<?xml version="1.0" encoding="utf-8"?>
<!-- Generator: Adobe Illustrator 27.5.0, SVG Export Plug-In . SVG Version: 6.00 Build 0)  -->
<svg version="1.1" id="_圖層_2" xmlns="http://www.w3.org/2000/svg" xmlns:xlink="http://www.w3.org/1999/xlink" x="0px" y="0px"
	 width="391.2px" height="391.2px" viewBox="0 0 391.2 391.2" style="enable-background:new 0 0 391.2 391.2;" xml:space="preserve"
	>
<style type="text/css">
	.st0{fill:#0AA07D;}
	.st1{opacity:0.1;enable-background:new    ;}
	.st2{opacity:0.15;fill:#FFFFFF;enable-background:new    ;}
	.st3{clip-path:url(#SVGID_00000072250478000600269690000016026193904294772608_);}
	.st4{fill:#B4DEEE;}
	.st5{clip-path:url(#SVGID_00000150783116655217243840000005742535372615121069_);}
	.st6{opacity:0.22;fill:#FFFFFF;enable-background:new    ;}
	.st7{clip-path:url(#SVGID_00000039110649048213830340000003808954714914018204_);}
	.st8{fill:#FFFFFF;}
	.st9{fill:#6FC6DE;}
	.st10{fill:#4FB2C3;}
	.st11{fill:#305422;}
	.st12{fill:#501F10;}
	.st13{fill:#3D7F31;}
	.st14{fill:#49963A;}
	.st15{fill:#326928;}
	.st16{fill:#1F3D15;}
	.st17{fill:#59370A;}
	.st18{fill:#825423;}
	.st19{fill:#FDEDBB;}
	.st20{fill:#99F1DB;}
	.st21{fill:#85B057;}
	.st22{fill:#B2CE6F;}
	.st23{fill:#769C4D;}
	.st24{opacity:0.47;fill:#8DBB41;enable-background:new    ;}
	.st25{fill:#0E3944;}
	.st26{fill:#EF6E4B;}
	.st27{fill:#FF8B66;}
	.st28{fill:#164353;}
	.st29{fill:#DB614D;}
	.st30{fill:#333333;}
	.st31{fill:#6097B2;}
	.st32{fill:#205260;}
	.st33{fill:#7C2213;}
	.st34{fill:#FF5B52;}
	.st35{fill:#8B383E;}
	.st36{fill:#662C33;}
	.st37{fill:#C74D34;}
	.st38{fill:#FA6142;}
	.st39{fill:#A02E44;}
	.st40{fill:#FFB878;}
	.st41{fill:#0C476B;}
	.st42{fill:#105E99;}
	.st43{fill:#225866;}
	.st44{fill:#8BBDDB;}
	.st45{fill:#3E6575;}
</style>
<g>
	<g>
		<g>
			<path class="st0" d="M1.8,0v187.9c0,83.9,73.3,152,163.8,152h202.5V152c0-83.9-73.3-152-163.8-152H1.8z"/>
		</g>
	</g>
	<path class="st1" d="M1.8,68.5v119.3c0,83.9,73.3,152,163.8,152h202.5v-4.6C187.3,283.5,65.8,154.6,1.8,68.5z"/>
	<path class="st2" d="M1.8,0v3.6C59.3,13.9,241.2,58.7,368.1,226v-74c0-83.9-73.3-152-163.8-152H1.8z"/>
</g>
<g>
	<g>
		<rect x="366.1" y="116.2" class="st0" width="25.1" height="275"/>
	</g>
</g>
<g>
	<g>
		<g>
			<g>
				<defs>
					<path id="SVGID_1_" d="M215.4,304.8h-56.1c-69.1,0-125.6-56.5-125.6-125.6V41.6h125.6h56.1c69.1,0,125.6,56.5,125.6,125.6
						v137.5L215.4,304.8L215.4,304.8z"/>
				</defs>
				<clipPath id="SVGID_00000062169091552836104990000005217288380977194174_">
					<use xlink:href="#SVGID_1_"  style="overflow:visible;"/>
				</clipPath>
				<g style="clip-path:url(#SVGID_00000062169091552836104990000005217288380977194174_);">
					<rect x="-14.1" y="-63.6" class="st4" width="454.8" height="454.8"/>
					<g>
						<g>
							<defs>
								<rect id="SVGID_00000080897874066399221400000010879544207434998704_" x="-14.1" y="-63.6" width="454.8" height="454.8"/>
							</defs>
							<clipPath id="SVGID_00000023240254494608913910000003621867419957246882_">
								<use xlink:href="#SVGID_00000080897874066399221400000010879544207434998704_"  style="overflow:visible;"/>
							</clipPath>
							<g style="clip-path:url(#SVGID_00000023240254494608913910000003621867419957246882_);">
								<polygon class="st6" points="213.4,163.8 200.3,-244.3 227.5,-244.3 								"/>
								<polygon class="st6" points="213.4,163.8 85.8,-224.1 111.9,-231.7 								"/>
								<polygon class="st6" points="213.4,163.8 -18.3,-172.4 4.6,-187.1 								"/>
								<polygon class="st6" points="213.4,163.8 -103.6,-93.5 -85.8,-114.1 								"/>
								<polygon class="st6" points="213.4,163.8 -163.3,6.2 -152,-18.5 								"/>
								<polygon class="st6" points="213.4,163.8 -192.5,118.7 -188.6,91.8 								"/>
								<polygon class="st6" points="213.4,163.8 -188.7,234.9 -192.6,207.9 								"/>
								<polygon class="st6" points="213.4,163.8 -152.4,345.3 -163.7,320.5 								"/>
								<polygon class="st6" points="213.4,163.8 -86.5,441 -104.3,420.4 								"/>
								<polygon class="st6" points="213.4,163.8 3.7,514.2 -19.2,499.5 								"/>
								<polygon class="st6" points="213.4,163.8 110.9,559.1 84.8,551.4 								"/>
								<polygon class="st6" points="213.4,163.8 226.4,571.9 199.2,571.9 								"/>
								<polygon class="st6" points="213.4,163.8 340.9,551.7 314.8,559.4 								"/>
								<polygon class="st6" points="213.4,163.8 445,500.1 422.1,514.8 								"/>
								<polygon class="st6" points="213.4,163.8 530.4,421.2 512.5,441.7 								"/>
								<polygon class="st6" points="213.4,163.8 590,321.5 578.7,346.2 								"/>
								<polygon class="st6" points="213.4,163.8 619.2,209 615.3,235.9 								"/>
								<polygon class="st6" points="213.4,163.8 615.4,92.8 619.3,119.7 								"/>
								<polygon class="st6" points="213.4,163.8 579.1,-17.6 590.4,7.1 								"/>
								<polygon class="st6" points="213.4,163.8 513.2,-113.3 531,-92.8 								"/>
								<polygon class="st6" points="213.4,163.8 423,-186.6 445.9,-171.9 								"/>
								<polygon class="st6" points="213.4,163.8 315.8,-231.4 341.9,-223.8 								"/>
							</g>
						</g>
					</g>
					<g>
						<g>
							<g>
								<defs>
									<rect id="SVGID_00000157306337764140709720000001622143654437574820_" x="-14.1" y="-63.6" width="454.8" height="454.8"/>
								</defs>
								<clipPath id="SVGID_00000103962463688746439520000017826506194852701870_">
									<use xlink:href="#SVGID_00000157306337764140709720000001622143654437574820_"  style="overflow:visible;"/>
								</clipPath>
								<g style="clip-path:url(#SVGID_00000103962463688746439520000017826506194852701870_);">
									<g>
										<g>
											<g>
												<path class="st8" d="M81.1,89.1c-3.1,0.3-6,1.1-8.6,2.2c0-0.5,0-0.9-0.1-1.4c-0.8-7.7-4.2-14.6-9.5-20
													c9.2-7.9,14.6-19.5,13.5-32C74.4,16.8,54.6,1.4,32,3.5C27.5,3.9,23.3,5,19.4,6.6c0.3-2,0.3-4.2,0.1-6.3
													C18-16.6,1.6-28.9-16.9-27.2S-49.3-10.4-47.8,6.5c0.7,7.4,4.2,13.9,9.4,18.7C-53,32.3-62.4,46.1-61,61
													c1.8,20.1,22.6,34.6,46.6,32.7c-0.1,1.4,0,2.8,0.1,4.2c1.9,20.3,22.8,35,46.7,32.8c11.1-1,20.9-5.5,28-12
													c3.9,8.2,13.7,13.5,24.5,12.5c13.4-1.2,23.5-11.7,22.4-23.3C106.3,96.3,94.5,87.9,81.1,89.1z"/>
												<path class="st8" d="M577.3-28.1c8-7,12.6-16.9,11.7-27.3c-1.7-18.8-20.7-32.3-42.3-30.3s-37.9,18.8-36.1,37.5
													c1.4,15.6,14.8,27.6,31.8,30.1c-12.3,8.7-20,22.1-19.7,36.7c-5,1.1-9.5,3.1-13.4,5.9c-2.3-23.8-28-40.9-57.4-38.2
													c-29.5,2.7-51.7,24.3-49.5,48.2c0.4,4.7,1.8,9,3.8,13.1c-3,1.3-5.5,2.9-7.5,4.9c-9.6-4.8-21-7.2-32.9-6.1
													c-30.7,2.8-53.6,27-51.1,54c0,0.2,0.1,0.5,0.1,0.7c-6.9-2.4-14.6-3.4-22.5-2.7c-22.8,2.1-40.6,17.6-43.5,36.4
													c-1.7-0.2-3.4-0.2-5.1,0c-5,0.5-9.5,2.3-13.5,5.2c-1.3-12.2-13.9-20.9-28.3-19.6c-2.7,0.2-5.3,0.8-7.7,1.7
													c-5.7-14-18.4-23.3-32.3-22c-17.6,1.6-30.3,19.5-28.4,40c1.9,20.5,17.7,35.8,35.2,34.2c8.6-0.8,16-5.4,21.1-12.4
													c4.6,2.4,10.2,3.5,16.1,3c4-0.4,7.7-1.5,10.9-3.1c-0.8,4-1.1,8.2-0.7,12.6c1.9,20.2,17.2,35.4,34.2,33.8
													c14.5-1.3,25.5-14.3,27.3-30.7c6.7,2.2,14.2,3.2,22,2.5c24.6-2.3,43.3-20.2,43.9-40.9c9.2,4.2,19.9,6.2,31.1,5.2
													c30.7-2.8,53.6-27,51.1-54c-0.5-5,10.8,1.6,8.8-2.8c5-1,5.1-5.4,8.2-8.2c7.7,2.5,8-5.6,16.9-6.4
													c15.3-1.4,28.6-7.9,37.6-17.1c3.9,13.9,18.7,23.4,35.4,21.8c12-1.1,22-7.7,27.2-16.7c5.6,1.3,11.5,1.7,17.6,1.1
													c27.9-2.6,48.7-24.8,46.5-49.6C621.9-10,601.8-26.9,577.3-28.1z"/>
											</g>
											<path class="st8" d="M252.1,175.4c-3.4,0.3-6.6,1.2-9.5,2.7c0.4-3,0.4-6,0.1-9.2c-2.1-23.2-22.4-40.4-45.3-38.3
												c-14.8,1.4-27,10.4-33.3,23c-3.5-5.4-9.6-9.1-16.5-9.6c1.3-4.3,1.9-8.9,1.4-13.6c-0.5-5.4-2.2-10.4-4.8-14.8
												c8-4.7,13-12.9,12.2-21.7c-1.2-12.8-14.1-22.1-28.9-20.8c-14.7,1.4-25.8,12.8-24.6,25.6c-8.3,1.9-15.4,6.4-20.6,12.5
												c-9-6-20.7-9.1-33.1-8c-14.9,1.4-27.7,8.6-35.5,18.8c0.7-3.8,1-7.7,0.6-11.7c-2.2-24.9-26-43-53.2-40.8
												c0.9-2.6,1.2-5.3,1-8.1c-0.5-5.8-3.6-10.9-8.5-14.9c16.3-6.1,27.2-20.9,25.7-37c-1.8-19.9-21.8-34.4-44.7-32.3
												s-39.9,20-38.1,39.9c0.9,9.5,5.9,17.8,13.4,23.6c-14.7,4.9-24.7,15.9-23.6,27.7C-112.4,82-96.9,92-78,91.8
												c-5.3,8-8.1,17.6-7.1,27.6c0.8,8.7,4.2,16.5,9.5,22.9c-9.3,5.2-15.1,13.3-14.3,22c1.2,13.4,17.7,22.8,36.7,21
												c18.9-1.7,33.3-13.9,32.3-27.1c11.3-3.3,20.8-10,27.1-18.8c-0.5,2.9-0.6,5.9-0.3,8.9c2.1,22.5,24.8,38.8,50.9,36.4
												c15.2-1.4,28.2-8.9,35.9-19.4c6.5,3.6,14.2,5.4,22.3,4.6c3.4-0.3,6.7-1.1,9.7-2.2c1.7,10.7,11.7,18.3,23.1,17.3
												c4.9-0.4,9.2-2.4,12.6-5.4c3.6,21.6,23,37.2,44.9,35.2c9.1-0.8,17.2-4.6,23.5-10.2c2.4,12.4,14.4,21.1,27.9,19.9
												c14.4-1.3,25-13.4,23.8-26.9C279.1,184,266.5,174.1,252.1,175.4z"/>
											<path class="st8" d="M649.2,15.2c-1-11.1-7-20.5-15.6-26.1c12.2-7.3,19.6-18.1,18.6-29.5C650.5-59,626.8-72,599.3-69.5
												s-48.4,19.7-46.7,38.3c1.3,14.5,16,25.6,35.3,28.6c-4.9,6.6-7.5,15.1-6.6,24c0.6,6.4,2.8,12.1,6.2,17c-0.1,0-0.1,0-0.2,0
												c-31.1,2.9-54.4,25.5-52.1,50.5c0.7,7.6,3.7,14.5,8.4,20.5c-11.8,3.3-22.4,8.1-31.4,14c0-0.6-0.1-1.2-0.1-1.8
												c-2.7-29.4-34.6-50.4-71.2-47.1c-36.6,3.4-64.1,29.9-61.4,59.3s34.6,50.4,71.2,47.1c11.5-1.1,22.1-4.4,31.1-9.4
												c0,1.3,0.1,2.5,0.2,3.8c3.1,34.1,46.1,58.1,95.9,53.5c49.8-4.6,87.7-35.9,84.5-70.1c-1.6-17.8-14.1-32.9-32.8-42.5
												c12.3-9.5,19.5-23.1,18.2-37.6c-1.1-11.7-7.6-21.9-17.4-29.1C642.6,43.3,650.5,29.9,649.2,15.2z"/>
										</g>
										<g>
											<path class="st8" d="M470.6-23c0,0.6-0.3,1.3-0.8,1.8h-77.7c-0.9-1-1.4-2.1-1.4-3.3c0-3.7,4.9-6.7,11-6.7
												c1.5,0,3,0.2,4.3,0.5c0.9-4.7,4.7-8.3,9.3-8.3c4.7,0,8.6,3.8,9.4,8.8c1.7-0.7,3.6-1.1,5.8-1.1c1.5-4.5,6.2-7.7,11.9-7.7
												c6.8,0,12.4,4.7,12.4,10.6c0,0.1,0,0.1,0,0.2c1-0.1,2.1-0.2,3.2-0.2C464.9-28.3,470.6-26,470.6-23z"/>
											<path class="st8" d="M357.2-32.7h-84.6c1.2-1.2,5.6-2.1,10.8-2.1c0.7,0,1.4,0,2.1,0.1c-0.9-1.6-1.3-3.5-1.3-5.5
												c0-6.1,4.7-11.1,10.4-11.1c3.6,0,6.7,1.9,8.6,4.8c1.6-1.1,3.4-1.7,5.5-1.7c4.2,0,7.7,2.6,9.1,6.2
												c1.5-0.6,3.1-0.9,4.9-0.9c0.2,0,0.5,0,0.7,0c1.6-4.3,6.4-7.3,12-7.3c6.9,0,12.6,4.7,12.6,10.5c0,1.9-0.6,3.6-1.6,5.1
												c0.5,0,1.1,0,1.6,0C352.2-34.6,355.9-33.8,357.2-32.7z"/>
											<path class="st8" d="M116-35.2H36.3c1.2-1.2,5.3-2,10.2-2c0.7,0,1.3,0,2,0c-0.8-1.5-1.3-3.3-1.3-5.1
												c0-5.8,4.4-10.5,9.8-10.5c3.4,0,6.3,1.8,8.1,4.6c1.5-1,3.2-1.6,5.2-1.6c3.9,0,7.3,2.5,8.6,5.9c1.4-0.5,3-0.8,4.7-0.8
												c0.2,0,0.5,0,0.7,0c1.5-4,6-6.9,11.3-6.9c6.5,0,11.8,4.4,11.8,9.9c0,1.8-0.6,3.4-1.5,4.8c0.5,0,1,0,1.5,0
												C111.3-36.9,114.8-36.2,116-35.2z"/>
										</g>
									</g>
									<g>
										<path class="st9" d="M663,238.4l-3.3,30l-1.9,16.8l-757-15.5l9.6-114.6c28.7-36.8,72.5-74.2,120.8-96.2
											c24.7,23.2,95.1,77.6,105.5,85.9c7.9,6.4,65.3,29.9,111,50c17.9-16.9,41.6-44.8,47.2-50c4.8-4.5,33.8-37.3,55.2-46.7
											C463.6,157.7,576.6,219.8,663,238.4z"/>
										<path class="st10" d="M659.6,268.4l-1.9,16.8l-757-15.5l9.6-114.6c28.8-36.8,72.6-74.2,120.9-96.2l-10,23.4l18.4,23.1
											l-54.3,27.2l92.4,7.2l38.9,47.3l110.6,28.2l20.5-20.4c17.9-16.9,41.6-44.8,47.2-50c4.8-4.5,33.8-37.3,55.2-46.7
											l-11.2,25.4l53.2,13.5l-35.4,27.6l63.7,14.4l108,55.7L659.6,268.4z"/>
									</g>
									<g>
										<g>
											<g>
												<path class="st11" d="M153.2,217.9c0,0,3.5-0.8,3.9-5.3c0.1-1,0-2.1-0.8-2.8s-2.1-0.5-3.2-0.4c1.3,0,2.1-1.3,2.6-2.4
													c0.4-0.9,0.8-1.9,0.9-2.9c0.1-1-0.1-2.1-0.8-2.9c-0.7-0.8-1.8-1-2.7-0.5c1.1-0.8,1.8-2,1.9-3.3c0.1-1.1-0.3-2.2-1.1-2.9
													c-0.9-0.6-2.4-0.5-3.1,0.3c0.1-1.2,0.2-2.4-0.1-3.6c-0.3-1.2-0.9-2.3-2-2.8c-1.6-0.8-3.7,0.1-4.7,1.6s-1.1,3.5-0.8,5.3
													c-0.4-0.9-2.5-1-3.3-0.4s-1.1,1.7-0.9,2.7c0.2,1,0.7,1.9,1.1,2.7c-1.4,0-2.4,0.6-3,1.9c-0.5,1.3-0.4,2.7,0,4
													s1.5,2.4,2.4,3.5c-1.4,0-2.5,1-2.8,2.4s0.3,2.9,1.3,3.9s2.5,1.8,3.9,2.2c0.2,0.1,1.3,3.2,4.4,3.6c2.1,0.3,4.6-0.3,5.9-2
													C152.5,219.7,153.3,217.9,153.2,217.9z"/>
												<g>
													<polygon class="st12" points="146.9,196.9 145.6,226.1 147.8,226.3 													"/>
													<polygon class="st12" points="146.9,217.7 154.2,212.6 147.3,219.2 													"/>
													<polygon class="st12" points="146.4,215.4 139.9,212 146.3,216.8 													"/>
													<polygon class="st12" points="146.8,207 152.9,202.3 147,207.9 													"/>
													<polygon class="st12" points="146.9,205.6 142,201.5 146.5,206.1 													"/>
												</g>
											</g>
											<g>
												<path class="st11" d="M181,219.8c0,0,3.1-0.7,3.4-4.7c0.1-0.9,0-1.8-0.7-2.4c-0.7-0.6-1.8-0.5-2.8-0.3
													c1.1,0,1.8-1.1,2.3-2.1c0.4-0.8,0.7-1.7,0.8-2.6c0.1-0.9-0.1-1.9-0.7-2.5c-0.6-0.7-1.6-0.9-2.4-0.5
													c0.9-0.7,1.6-1.8,1.7-2.9c0.1-0.9-0.2-1.9-1-2.5c-0.7-0.6-2.1-0.5-2.7,0.3c0.1-1,0.1-2.1-0.1-3.1c-0.2-1-0.8-2-1.8-2.5
													c-1.4-0.7-3.3,0.1-4.1,1.4s-0.9,3.1-0.7,4.6c-0.4-0.8-2.2-0.9-2.9-0.4s-0.9,1.5-0.8,2.4c0.1,0.9,0.6,1.6,1,2.4
													c-1.2,0-2.1,0.5-2.6,1.7s-0.4,2.4,0,3.5s1.4,2.1,2.1,3.1c-1.2,0-2.2,0.9-2.4,2.1c-0.2,1.2,0.3,2.5,1.1,3.4
													c0.9,0.9,2.2,1.6,3.4,1.9c0.2,0,1.1,2.8,3.9,3.2c1.8,0.3,4-0.3,5.2-1.7C180.5,221.4,181.1,219.8,181,219.8z"/>
												<g>
													<polygon class="st12" points="175.6,201.4 174.4,227 176.3,227.2 													"/>
													<polygon class="st12" points="175.5,219.6 181.9,215.2 175.9,220.9 													"/>
													<polygon class="st12" points="175.1,217.6 169.4,214.7 175,218.8 													"/>
													<polygon class="st12" points="175.4,210.3 180.8,206.1 175.6,211 													"/>
													<polygon class="st12" points="175.5,209 171.2,205.4 175.2,209.5 													"/>
												</g>
											</g>
											<g>
												<path class="st11" d="M123.4,217c0,0,2.1-0.5,2.3-3.6c0-0.7,0-1.4-0.5-1.9s-1.2-0.4-1.9-0.3c0.8,0,1.3-0.9,1.6-1.7
													c0.3-0.6,0.5-1.3,0.6-2s-0.1-1.4-0.5-1.9s-1.1-0.7-1.6-0.3c0.6-0.5,1.1-1.4,1.1-2.2c0.1-0.7-0.2-1.5-0.7-1.9
													s-1.5-0.4-1.8,0.2c0-0.8,0.1-1.6-0.1-2.4c-0.2-0.8-0.6-1.5-1.2-1.9c-1-0.5-2.2,0.1-2.8,1.1s-0.6,2.4-0.5,3.6
													c-0.2-0.6-1.5-0.7-1.9-0.3c-0.5,0.4-0.6,1.2-0.5,1.8c0.1,0.7,0.4,1.3,0.7,1.9c-0.8,0-1.4,0.4-1.8,1.3
													c-0.3,0.9-0.3,1.8,0,2.7s0.9,1.6,1.4,2.4c-0.8,0-1.5,0.7-1.7,1.6c-0.2,0.9,0.2,1.9,0.8,2.6c0.6,0.7,1.5,1.2,2.3,1.5
													c0.1,0,0.8,2.2,2.6,2.5c1.3,0.2,2.7-0.2,3.5-1.3C123,218.3,123.4,217,123.4,217z"/>
												<g>
													<polygon class="st12" points="119.7,202.8 118.9,222.6 120.2,222.7 													"/>
													<polygon class="st12" points="119.6,216.9 124,213.4 119.9,217.9 													"/>
													<polygon class="st12" points="119.4,215.3 115.5,213 119.3,216.2 													"/>
													<polygon class="st12" points="119.6,209.7 123.2,206.5 119.7,210.2 													"/>
													<polygon class="st12" points="119.7,208.7 116.7,205.9 119.4,209 													"/>
												</g>
											</g>
											<g>
												<path class="st11" d="M248,226.5c0,0,1.8-0.5,2-3c0-0.6,0-1.2-0.4-1.6c-0.4-0.4-1.1-0.3-1.6-0.2c0.6,0,1.1-0.7,1.3-1.4
													c0.2-0.5,0.4-1.1,0.5-1.7c0.1-0.6-0.1-1.2-0.4-1.6c-0.3-0.4-0.9-0.6-1.4-0.3c0.5-0.4,0.9-1.1,1-1.9
													c0-0.6-0.1-1.3-0.6-1.6c-0.4-0.4-1.2-0.3-1.5,0.2c0-0.7,0.1-1.4-0.1-2c-0.1-0.7-0.5-1.3-1-1.6c-0.8-0.5-1.9,0.1-2.4,0.9
													c-0.5,0.9-0.5,2-0.4,3c-0.2-0.5-1.2-0.6-1.6-0.2c-0.4,0.3-0.5,1-0.5,1.5c0.1,0.6,0.3,1.1,0.6,1.6
													c-0.7,0-1.2,0.4-1.5,1.1c-0.3,0.7-0.2,1.6,0,2.3s0.8,1.4,1.2,2c-0.7,0-1.3,0.6-1.4,1.4c-0.1,0.8,0.2,1.6,0.6,2.2
													c0.5,0.6,1.3,1,2,1.2c0.1,0,0.6,1.8,2.2,2.1c1.1,0.2,2.3-0.2,3-1.1C247.7,227.5,248,226.5,248,226.5z"/>
												<g>
													<polygon class="st12" points="244.9,214.4 244.2,231.2 245.3,231.3 													"/>
													<polygon class="st12" points="244.8,226.3 248.5,223.4 245,227.2 													"/>
													<polygon class="st12" points="244.6,225 241.3,223.1 244.5,225.8 													"/>
													<polygon class="st12" points="244.8,220.2 247.9,217.5 244.9,220.7 													"/>
													<polygon class="st12" points="244.8,219.4 242.4,217.1 244.6,219.7 													"/>
												</g>
											</g>
											<g>
												<path class="st11" d="M262,227c0,0,1.6-0.4,1.8-2.4c0-0.4,0-0.9-0.4-1.2s-1-0.2-1.5-0.2c0.6,0,1-0.6,1.2-1.1
													c0.2-0.4,0.4-0.9,0.4-1.3c0-0.5-0.1-1-0.4-1.3s-0.8-0.5-1.3-0.2c0.5-0.3,0.8-0.9,0.9-1.5c0-0.5-0.1-1-0.5-1.3
													s-1.1-0.2-1.4,0.1c0-0.5,0.1-1.1-0.1-1.6c-0.1-0.5-0.4-1-0.9-1.3c-0.8-0.4-1.7,0-2.2,0.7s-0.5,1.6-0.4,2.4
													c-0.2-0.4-1.1-0.5-1.5-0.2c-0.4,0.3-0.5,0.8-0.4,1.2s0.3,0.8,0.5,1.2c-0.6,0-1.1,0.3-1.4,0.8c-0.2,0.6-0.2,1.2,0,1.8
													s0.7,1.1,1.1,1.6c-0.7,0-1.2,0.5-1.3,1.1c-0.1,0.6,0.1,1.3,0.6,1.7c0.5,0.5,1.2,0.8,1.8,1c0.1,0,0.6,1.4,2.1,1.6
													c1,0.1,2.1-0.2,2.8-0.9C261.7,227.8,262.1,227,262,227z"/>
												<g>
													<polygon class="st12" points="259.1,217.6 258.5,230.7 259.5,230.8 													"/>
													<polygon class="st12" points="259.1,226.9 262.5,224.6 259.3,227.6 													"/>
													<polygon class="st12" points="258.9,225.9 255.9,224.4 258.8,226.5 													"/>
													<polygon class="st12" points="259.1,222.1 261.9,220 259.2,222.5 													"/>
													<polygon class="st12" points="259.1,221.5 256.8,219.6 258.9,221.7 													"/>
												</g>
											</g>
										</g>
										<g>
											<path class="st13" d="M612.1,244.4v3.7l0.9,63.5L-70.1,322V208.1C-70.1,208.1,256.3,235.3,612.1,244.4z"/>
											<path class="st14" d="M612.1,244.4v3.7c-144.1,0.7-339.9-6.1-395.6-9C149,235.6-23,217.6-70.1,212.5v-4.3
												C-70.1,208.1,256.3,235.3,612.1,244.4z"/>
										</g>
										<g>
											<g>
												<path class="st15" d="M32.6,234.3c0,1.7-18,3.1-40.2,3.1s-40.2-1.4-40.2-3.1s18-3.1,40.2-3.1S32.6,232.6,32.6,234.3z"/>
												<g>
													<g>
														<path class="st11" d="M-14.8,212.8c0.2,0-1.2,4.5-1.6,5c-3,4.2-8.8,6.2-13.9,5.8c-7.7-0.5-10.7-7.8-11.3-7.9
															c-3.4-0.5-7.2-2.2-9.8-4.4c-2.5-2.3-4.2-5.7-3.8-9.1c0.4-3.4,2.8-6,6.2-6.3c-2.1-2.5-5-4.9-6.3-8
															c-1.3-3-1.8-6.5-0.7-9.7c1.1-3.1,3.5-4.8,6.8-5.1c-1.3-2-2.7-4-3.2-6.3s-0.1-5,1.7-6.6s6.8-1.7,7.9,0.4
															c-0.8-3.2-1.1-6.7-0.3-9.9c0.3-1,0.6-2,1.1-2.9c2.1-3.8,7-6.4,11.1-4.8c2.7,1.1,4.5,3.6,5.3,6.4
															c0.9,2.7,0.9,5.6,0.9,8.5c1.3-2.2,5.2-2.7,7.3-1.3c2.2,1.4,3.2,4.1,3.2,6.6c0,3.2-1.5,6.3-3.9,8.3
															c2.1-1.3,4.8-1,6.6,0.7s2.5,4.3,2.5,6.7c0,0.7-0.1,1.4-0.2,2.1c-0.3,1.7-0.9,3.4-1.5,5.1c-1,2.6-2.5,5.4-5,6.1
															c2.4-0.5,4.9-0.9,6.8,0.5s2.3,4.1,2.3,6.4C-6.6,210.2-14.8,212.8-14.8,212.8z"/>
														<path class="st16" d="M-9.1,181.1c-0.4-1.5-1.2-2.9-2.2-4.1c-2.8-3.4-7.1-6.4-11.4-5.5c2.4-2,3.1-5.8,1.6-8.5
															c-1.6-2.7-5.1-4.2-8-3c1.4-2.9,0.4-6.5-1.9-8.7c-2.3-2.1-5.9-2.8-8.9-1.9c-1.1,0.3-2.1,0.8-3.1,1.4
															c0.3-1,0.6-2,1.1-2.9c2.1-3.8,7-6.4,11.1-4.8c2.7,1.1,4.5,3.6,5.3,6.4c0.9,2.7,0.9,5.6,0.9,8.5
															c1.3-2.2,5.2-2.7,7.3-1.3c2.2,1.4,3.2,4.1,3.2,6.6c0,3.2-1.5,6.3-3.9,8.3c2.1-1.3,4.8-1,6.6,0.7s2.5,4.3,2.5,6.7
															C-8.9,179.7-9,180.4-9.1,181.1z"/>
														<g>
															<polygon class="st12" points="-33.6,163.6 -31.5,233.8 -26.3,233.8 															"/>
															<polygon class="st12" points="-29.9,213.3 -13.4,199.9 -28.7,216.8 															"/>
															<polygon class="st12" points="-31.5,207.9 -47.8,201 -31.5,211.2 															"/>
															<polygon class="st12" points="-32.1,187.8 -18.3,175.5 -31.5,189.8 															"/>
															<polygon class="st12" points="-32.1,184.3 -44.5,175.5 -32.9,185.7 															"/>
														</g>
													</g>
													<g>
														<path class="st11" d="M39.6,201.9c-0.3,9.3-7.6,11.3-7.6,11.3c0.1,0-1.2,3.8-1.5,4.2c-2.7,3.5-7.8,5-12.2,4.6
															c-6.6-0.6-9.1-6.9-9.6-7c-2.9-0.5-6.2-2-8.4-4s-3.5-5-3.1-7.8c0.4-2.9,2.6-5.1,5.6-5.2c-1.8-2.2-4.2-4.3-5.3-6.9
															c-1-2.6-1.4-5.6-0.4-8.3c1-2.6,3.1-4,6-4.1c-1.1-1.7-2.2-3.5-2.6-5.5s0-4.3,1.6-5.6s5.9-1.3,6.9,0.6
															c-0.7-2.9-0.8-6,0.1-8.8c0.2-0.7,0.5-1.4,0.9-2.1c1.9-3.2,6.2-5.3,9.7-3.8c2.3,1,3.8,3.2,4.5,5.6
															c0.7,2.3,0.6,4.8,0.6,7.3c1.2-1.8,4.6-2.2,6.4-0.9c1.8,1.2,2.7,3.6,2.6,5.7c-0.1,2.7-1.5,5.3-3.6,7
															c1.8-1.1,4.2-0.7,5.8,0.8c1.5,1.5,2.1,3.7,2,5.8c-0.1,1.5-0.5,3-1,4.4c-0.2,0.6-0.4,1.1-0.7,1.7
															c-0.9,2.2-2.3,4.6-4.6,5.1c2.1-0.3,4.4-0.6,6,0.6C39.3,197.6,39.6,199.8,39.6,201.9z"/>
														<path class="st16" d="M38,184.5c-0.1,1.5-0.5,3-1,4.4c-0.4-0.8-0.9-1.6-1.5-2.3c-2.1-2.3-5.6-4.1-8.8-3.7
															c0.9-1.6,1.8-3.3,2.1-5.2c0.3-1.8,0-3.9-1.3-5.2s-3.5-1.9-4.8-0.6c1.3-3.2,0.8-7-1.3-9.7c-2-2.7-5.5-4.3-8.9-4.1
															c-1.2,0.1-2.4,0.4-3.4,0.9c0.2-0.7,0.5-1.4,0.9-2.1c1.9-3.2,6.2-5.3,9.7-3.8c2.3,1,3.8,3.2,4.5,5.6
															c0.7,2.3,0.6,4.8,0.6,7.3c1.2-1.8,4.6-2.2,6.4-0.9c1.8,1.2,2.7,3.6,2.6,5.7c-0.1,2.7-1.5,5.3-3.6,7
															c1.8-1.1,4.2-0.7,5.8,0.8C37.5,180.2,38.1,182.4,38,184.5z"/>
														<g>
															<polygon class="st12" points="17.4,172.1 16.9,233.9 21.2,234 															"/>
															<polygon class="st12" points="19,214 5.4,205.5 18.9,216.7 															"/>
															<polygon class="st12" points="19.2,208.2 32.6,199.3 19.1,210.6 															"/>
															<polygon class="st12" points="18,196.2 5,185.1 18,194.1 															"/>
														</g>
													</g>
												</g>
											</g>
											<g>
												<path class="st15" d="M134.2,245.5c0,2.2-26.8,4-59.9,4s-59.9-1.8-59.9-4s26.8-4,59.9-4S134.2,243.2,134.2,245.5z"/>
												<g>
													<g>
														<rect x="94.9" y="233.2" class="st12" width="27.5" height="2.5"/>
														<rect x="115.3" y="235.2" class="st12" width="1.4" height="8.9"/>
														<rect x="104.8" y="235.2" class="st12" width="1.5" height="8.9"/>
													</g>
													<g>
														<g>
															<g>
																<rect x="29.2" y="215.4" class="st17" width="28.7" height="30.1"/>
																<rect x="58" y="215.4" class="st18" width="45.3" height="30.1"/>
															</g>
															<polygon class="st19" points="109,218.7 25.7,218.7 39.6,194.7 96.1,194.7 															"/>
														</g>
														<g>
															<g>
																<g>
																	<rect x="32.6" y="225.9" class="st20" width="3.2" height="14.2"/>
																	<rect x="37.3" y="225.9" class="st20" width="3.2" height="14.2"/>
																</g>
																<g>
																	<rect x="45.5" y="225.9" class="st20" width="3.2" height="14.2"/>
																	<rect x="50.2" y="225.9" class="st20" width="3.2" height="14.2"/>
																</g>
															</g>
															<g>
																<g>
																	<rect x="63.8" y="225.9" class="st20" width="3.2" height="14.2"/>
																	<rect x="68.5" y="225.9" class="st20" width="3.2" height="14.2"/>
																</g>
																<g>
																	<rect x="76.7" y="225.9" class="st20" width="3.2" height="14.2"/>
																	<rect x="81.4" y="225.9" class="st20" width="3.2" height="14.2"/>
																</g>
															</g>
															<rect x="89" y="225.9" class="st17" width="10.8" height="19.6"/>
															<polygon class="st17" points="55.9,218.9 41.8,196.3 29.1,218.7 															"/>
														</g>
													</g>
												</g>
											</g>
											<g>
												<path class="st11" d="M28.9,250.2c0.9-0.8,1.1-2.4,0.4-3.4c-0.7-1-2.2-1-3-0.1c0.7-1.7-0.1-4.5-1.3-5.7
													c-1.3-1.2-3.3-1.3-4.7-0.3c-1.1-1.6-4-1.6-5.5-0.4c-0.3-1.8-2.3-3.2-4-2.9c-1.6,0.3-2.9,2.2-2.7,4.1
													c-0.6-0.5-1.4-1-2.1-0.6c-0.6,0.3-1.1,1.1-1.1,1.9c-1.2-0.7-2.3-1.5-3.6-1.3c-1.3,0.2-2.6,1.2-3.1,2.6
													c-0.5,1.4,0,3.2,1.1,3.9c-1.2-0.1-2.8,1.3-2.4,2.6L28.9,250.2z"/>
												<path class="st11" d="M-19.4,267.2c0.8-1.3,0.6-3.1-0.5-4.1c-1.1-1.1-2.9-1.2-4.1-0.4c0.6-0.8-0.2-2.8-0.8-3.6
													c-0.6-0.8-1.7-1.2-2.7-0.9c1.1-2,0-5.3-2.1-6.3s-4.9,0-5.8,2.1c-1.4-1.5-4.1-1.8-5.2-0.1c-1-1.1-1.5-3-2.7-3.7
													c-1.3-0.7-2.9-0.9-4.2-0.2c-1.3,0.7-1.9,2.5-1.1,3.7c-1-0.9-2.6-0.3-3.8,0.1c-1.3,0.4-2.2,1.6-2.5,2.9
													c-1.1-1.5-3.6-2.3-5.4-1.7c-1.8,0.5-3.1,2.3-3.2,4.2c0,1.9,1.2,3.7,3,4.3c-4-0.7-5.8,3.2-4.7,5.2L-19.4,267.2z"/>
												<path class="st11" d="M231.9,244c0.4-0.9,0.4-2-0.2-2.7c-0.6-0.8-1.6-1.2-2.5-1c0.3-1.5-0.9-3.5-2.3-4
													c-1.5-0.5-3.3,0.1-4,1.5c-1.3-1-2.4-2.6-4.1-2.8c-1.6-0.2-3.5,0.8-3.6,2.4c-0.5-0.6-1.2-1.2-1.9-0.9
													c-0.7,0.4-1,1.2-0.8,2c-1.4-0.7-3.5-0.4-4.5,0.9c-1,1.2-1,3.1,0,4.3L231.9,244z"/>
											</g>
										</g>
									</g>
									<g>
										<g>
											<g>
												<path class="st11" d="M295,244.7c0.1,0-1.1,3.8-1.4,4.3c-2.6,3.6-7.5,5.3-11.9,5c-6.6-0.5-9.2-6.7-9.6-6.8
													c-2.9-0.4-6.2-1.9-8.4-3.8c-2.2-1.9-3.6-4.9-3.2-7.8c0.4-2.9,2.4-5.2,5.3-5.4c-1.8-2.2-4.3-4.2-5.4-6.8
													s-1.5-5.6-0.6-8.3s3-4.1,5.8-4.3c-1.1-1.7-2.3-3.5-2.8-5.4c-0.5-2-0.1-4.3,1.4-5.7s5.8-1.4,6.8,0.4
													c-0.7-3-1-6.2-0.1-9.1c0.2-0.7,0.5-1.3,0.8-1.9c1.8-3.3,6-5.5,9.5-4.1c2.3,0.9,3.8,3.1,4.6,5.5c0.7,2.3,0.8,4.8,0.8,7.3
													c1.2-1.9,4.4-2.3,6.3-1.1s2.7,3.5,2.7,5.7c0,2.7-1.3,5.4-3.4,7.1c1.8-1.1,4.2-0.8,5.7,0.6c1.5,1.5,2.2,3.7,2.1,5.8
													c0,0.5-0.1,1-0.1,1.4c-0.2,1.6-0.8,3.2-1.3,4.7c-0.8,2.2-2.1,4.6-4.3,5.3c2-0.4,4.2-0.7,5.8,0.5c1.6,1.2,2,3.5,2,5.5
													C302.1,242.5,295,244.7,295,244.7z"/>
												<path class="st16" d="M298,209.9c1.5,1.5,2.2,3.7,2.1,5.8c0,0.5-0.1,1-0.1,1.4c-0.2-0.2-0.4-0.5-0.6-0.7
													c-2.5-2.4-6.7-4.2-10-3.2c1.1-1.8,2-3.9,2-6s-0.7-4.4-2.4-5.7c-1.6-1.4-3.9-2.8-5.6-1.5c-0.2-3.2-0.7-6.7-3.1-8.8
													c-2-1.8-5.1-2-7.6-1.1c-0.6,0.2-1.1,0.4-1.7,0.7c0.2-0.7,0.5-1.3,0.8-1.9c1.8-3.3,6-5.5,9.5-4.1
													c2.3,0.9,3.8,3.1,4.6,5.5c0.7,2.3,0.8,4.8,0.8,7.3c1.2-1.9,4.4-2.3,6.3-1.1s2.7,3.5,2.7,5.7c0,2.7-1.3,5.4-3.4,7.1
													C294,208.1,296.4,208.5,298,209.9z"/>
												<g>
													<polygon class="st12" points="278.9,202.5 280.7,262.7 285.2,262.7 													"/>
													<polygon class="st12" points="282.1,245.2 296.2,233.6 283.1,248.1 													"/>
													<polygon class="st12" points="280.7,240.5 266.8,234.6 280.7,243.3 													"/>
													<polygon class="st12" points="280.2,223.3 292,212.7 280.7,225 													"/>
													<polygon class="st12" points="280.2,220.3 269.5,212.7 279.5,221.4 													"/>
												</g>
											</g>
											<g>
												<path class="st11" d="M340.4,238.1c0.1,0-1.1,3.9-1.4,4.4c-2.6,3.7-7.7,5.4-12.2,5.1c-6.7-0.5-9.4-6.9-9.9-7
													c-3-0.4-6.3-1.9-8.6-3.9c-2.2-2-3.7-5-3.3-8c0.4-3,2.5-5.3,5.5-5.6c-1.9-2.2-4.4-4.3-5.5-7s-1.6-5.7-0.6-8.5
													c0.9-2.7,3-4.2,5.9-4.4c-1.2-1.7-2.4-3.5-2.8-5.6c-0.5-2-0.1-4.4,1.5-5.8c1.6-1.4,5.9-1.5,6.9,0.4
													c-0.9-3.7-1.1-7.7,0.7-11.1c0-0.1,0.1-0.1,0.1-0.2c1.8-3.4,6.1-5.6,9.7-4.2c2.3,0.9,3.9,3.2,4.7,5.6s0.8,5,0.8,7.5
													c1.2-1.9,4.5-2.4,6.4-1.1c1.9,1.2,2.8,3.6,2.8,5.8c0,2.8-1.3,5.5-3.5,7.3c1.8-1.2,4.3-0.8,5.8,0.7
													c1.6,1.5,2.2,3.8,2.2,5.9c0,1-0.2,1.9-0.4,2.9c-0.3,1.2-0.7,2.3-1.1,3.4c-0.9,2.3-2.2,4.8-4.4,5.4
													c2.1-0.4,4.4-0.8,6,0.5c1.7,1.3,2.1,3.6,2,5.7C347.7,235.8,340.4,238.1,340.4,238.1z"/>
												<path class="st16" d="M345.6,208.4c0,1-0.2,1.9-0.4,2.9c-0.7-1-1.5-1.9-2.5-2.7c-2.5-1.8-6.1-2.4-9-1.5
													c0.8-1.9,1.5-3.8,1.7-5.9c0.2-2-0.1-4.2-1.5-5.8c-1.3-1.6-3.6-2.8-5.4-1.9c0.9-4.1-1-8.7-4.6-10.9
													c-2.2-1.4-4.9-1.8-7.4-1.4c0-0.1,0.1-0.1,0.1-0.2c1.8-3.4,6.1-5.6,9.7-4.2c2.3,0.9,3.9,3.2,4.7,5.6s0.8,5,0.8,7.5
													c1.2-1.9,4.5-2.4,6.4-1.1c1.9,1.2,2.8,3.6,2.8,5.8c0,2.8-1.3,5.5-3.5,7.3c1.8-1.2,4.3-0.8,5.8,0.7
													C345,204,345.7,206.2,345.6,208.4z"/>
												<g>
													<polygon class="st12" points="324.5,196.2 325.8,259.9 330.2,259.9 													"/>
													<polygon class="st12" points="327.3,239.3 313.5,231 327.3,242.2 													"/>
													<polygon class="st12" points="327.3,233.4 340.6,223.8 327.3,235.8 													"/>
													<polygon class="st12" points="325.8,221 312.5,210 325.8,218.9 													"/>
												</g>
											</g>
										</g>
										<g>
											<path class="st11" d="M451.8,242.8c0,0,6.3-1.3,7.2-9.4c0.2-1.8,0.1-3.8-1.2-5c-1.4-1.3-3.7-1-5.7-0.9
												c2.3,0,3.8-2.2,4.9-4.3c0.8-1.7,1.6-3.4,1.8-5.2c0.2-1.8-0.1-3.8-1.3-5.2c-1.2-1.4-3.2-1.9-4.9-1.1
												c2-1.3,3.3-3.5,3.6-5.9c0.2-1.9-0.4-4-1.9-5.2s-4.4-1.1-5.5,0.4c0.2-2.1,0.4-4.3,0-6.4c-0.4-2.1-1.6-4.2-3.5-5.1
												c-2.9-1.5-6.7,0-8.6,2.7s-2.1,6.2-1.6,9.5c-0.7-1.6-4.4-2-5.9-0.9c-1.5,1-2,3-1.8,4.8s1.1,3.4,1.9,5
												c-2.5,0-4.4,1-5.4,3.2s-0.9,4.9-0.2,7.2c0.7,2.4,2.7,4.4,4,6.4c-2.5,0-4.5,1.8-5.1,4.2c-0.6,2.5,0.4,5.2,2.1,7
												c1.7,1.9,4.5,3.4,6.9,4.1c0.4,0.1,2.1,5.8,7.8,6.7c3.8,0.6,8.2-0.4,10.8-3.3C450.5,246,451.9,242.8,451.8,242.8z"/>
											<g>
												<polygon class="st12" points="441.6,204.8 437.8,257.2 441.7,257.6 												"/>
												<polygon class="st12" points="440.5,242.1 453.8,233.3 441.2,244.7 												"/>
												<polygon class="st12" points="439.8,237.9 428.2,231.5 439.5,240.3 												"/>
												<polygon class="st12" points="440.9,222.9 452,214.7 441.1,224.4 												"/>
												<polygon class="st12" points="441.1,220.3 432.6,212.7 440.4,221.2 												"/>
											</g>
										</g>
										<g>
											<path class="st21" d="M612.1,259.1v132.1H-70.1v-105C168.7,269.5,386.1,240.3,612.1,259.1z"/>
											<path class="st22" d="M612.1,259.1v24.2c-58.3-5.1-161.4-13.2-242.9-13.7C265,269,22.8,285.4-70.1,292.3v-6.2
												C168.7,269.5,386.1,240.3,612.1,259.1z"/>
										</g>
										<g>
											<ellipse class="st23" cx="325.9" cy="292.1" rx="5.5" ry="1.4"/>
											<ellipse class="st23" cx="358.6" cy="305.1" rx="5.5" ry="1.4"/>
											<ellipse class="st23" cx="405" cy="289.2" rx="5.5" ry="1.4"/>
											<ellipse class="st23" cx="529.1" cy="291.7" rx="5.5" ry="1.4"/>
											<ellipse class="st23" cx="342.2" cy="340.9" rx="5.5" ry="1.4"/>
											<ellipse class="st23" cx="249.8" cy="286" rx="4.2" ry="1.1"/>
											<ellipse class="st23" cx="136.7" cy="323.1" rx="6.8" ry="1.8"/>
											<ellipse class="st23" cx="204.6" cy="339.4" rx="7.8" ry="2"/>
											<ellipse class="st23" cx="89.2" cy="337.3" rx="4.1" ry="1.1"/>
											<ellipse class="st23" cx="268.7" cy="347.2" rx="7.5" ry="2"/>
											<ellipse class="st23" cx="382.2" cy="277" rx="4.1" ry="1.1"/>
											<ellipse class="st23" cx="143.2" cy="284.8" rx="2.6" ry="0.7"/>
											<ellipse class="st23" cx="113.6" cy="300.6" rx="5.5" ry="1.4"/>
											<ellipse class="st23" cx="66.9" cy="294.9" rx="5.5" ry="1.4"/>
											<ellipse class="st23" cx="191.2" cy="284.8" rx="4.3" ry="1.1"/>
											<ellipse class="st23" cx="294" cy="318.4" rx="5.5" ry="1.4"/>
										</g>
										<g>
											<g>
												<ellipse class="st24" cx="403.1" cy="263.4" rx="47.2" ry="5.2"/>
												<g>
													<path class="st11" d="M464,189.1c-1,3.1-2.5,5.9-4.5,8.2c-5.5,6.7-14,10.3-22,8.4c1.3,4.8-0.4,10.5-4.1,13.3
														c-3.7,2.9-11.4,2.6-15-0.4c-5.7,7.7-15.3,11.4-24,9.4c-8.7-2.1-16-9.9-18.4-19.5c-7.3,5.6-18.7,2.7-23.1-5.9
														c-4.4-8.6-0.9-21.1,7.1-25.3c-8.9-1-19.8-14.4-19.4-24.4s7.1-17.8,16-17.9c-4.6-4.7-5.2-13.3-1.5-18.9
														c3.7-5.5,11.6-7.5,16.8-3.9c0.4-5.7,2.2-11.1,5-15.8c4.4-7.2,11.2-12.6,18.8-14.3c12.6-2.8,25,8.4,30.7,21.3
														c4.6-3.9,11.6-3.5,15.8,0.9c4.2,4.4,4.8,12.3,1.6,17.7c7.2,0.4,15.3,3.7,17.6,11.3c1.4,4.6,0.2,9.7-2,13.8
														s-3.3,7.2-6.5,10.4C462.8,163.3,467.7,177.6,464,189.1z"/>
													<path class="st16" d="M464,189.1c-1,3.1-2.5,5.9-4.5,8.2c0.2-3.9-0.4-7.9-1.6-11.6c-2.8-8.5-8.4-17.4-16.5-21.3
														c2.5-4,5-8.1,6.3-12.7c1.2-4.6,1-9.7-1.7-13.6s-7.8-6.6-11.9-4.4c1.1-3.1,2-6.3,1.8-9.6c-0.2-3.3-1.7-6.6-4.5-8.3
														c-2.5-1.5-5.7-1.5-8.5-0.5s-4.6,2.5-6.7,4.6c-0.7-11.6-9.5-22.3-20.7-25.2c-6.1-1.6-12.7-0.8-18.4,1.8
														c4.4-7.2,11.2-12.6,18.8-14.3c12.6-2.8,25,8.4,30.7,21.3c4.6-3.9,11.6-3.5,15.8,0.9c4.2,4.4,4.8,12.3,1.6,17.7
														c7.2,0.4,15.3,3.7,17.6,11.3c1.4,4.6,0.2,9.7-2,13.8s-3.3,7.2-6.5,10.4C462.8,163.3,467.7,177.6,464,189.1z"/>
													<g>
														<polygon class="st12" points="401.4,125.4 397.5,265.4 408.8,265.4 														"/>
														<path class="st12" d="M403.1,206.3c1-1.7,31.1-21.7,31.1-21.7L402.9,200L403.1,206.3z"/>
														<path class="st12" d="M403.1,178.3c0.7-1.6,21.4-23.1,21.4-23.1l-21.6,17.1L403.1,178.3z"/>
														<path class="st12" d="M401,214.7c-0.9-1.7-29.5-21.7-29.5-21.7l29.7,15.4L401,214.7z"/>
														<path class="st12" d="M401,170.4c-0.7-1.6-20.3-23.1-20.3-23.1l20.4,17.1L401,170.4z"/>
													</g>
												</g>
											</g>
										</g>
									</g>
									<g>
										<path class="st23" d="M612.1,391.2H-70.1v-38.5c250.5-22.2,390.6,28.1,682.2,22.4V391.2z"/>
									</g>
								</g>
							</g>
						</g>
					</g>
					<g>
						<ellipse class="st24" cx="213.9" cy="302.7" rx="187.2" ry="4.8"/>
						<g>
							<path class="st25" d="M111,120.4c0,0-4.3-2.9-10.6-0.7c-6.3,2.3-7.7,10.7-6.2,17.6c1.6,6.9-7.1,30.4-7.1,30.4
								s4.5,6.3,20.3,3.9c0,0,11.8-21.4,10.9-36.7S111,120.4,111,120.4z"/>
							<path class="st26" d="M116,146.9c5.9-1.9,9.6,3,12.9,12.2c3.4,9.2,4.5,10.1,4.5,10.1l13.1,8.4l-1.1,4.9c0,0-12.5-4.9-15.5-8
								s-11.7-18.8-11.7-18.8L116,146.9z"/>
							<path class="st27" d="M87.1,206.2c0,0-2.6,13-2.1,32.6c0,0-10.1,14.9-1.8,57.6h4.4c0,0,3.6-36.3,6.3-46.1
								c2.7-9.8,12.9-12.8,13.4-42.7L87.1,206.2z"/>
							<path class="st27" d="M67,244.5c-2.5-8.4-9.1-22.5-25.9-41.5c0,0-1-0.5-2.4,0.3c-1.4,0.9-1.4,1.9-1.4,1.9s8.4,18.4,13.8,31.8
								c1.8,4.5,6.2,7.5,11.1,7.5H67z"/>
							<path class="st28" d="M97.6,260.7c0,0,0.1,6.3-4.1,6.4c-5.8,0.2-6-6.2-12.6-6s-20.1,1.9-24.5-8.4c-2.2-5.3,0.8-12.1-6.4-17.3
								c-7.2-5.1-3.7-10.9,0-14s-1.6-6.4,2.3-8c0.9-0.4,1.8-0.3,2.7,0c0.5,0.2,1,0.4,1.4,0.7c2,1.4,3.5,3.7,3.5,3.7
								C70.8,188,90.2,184,90.2,184l19.2,6.6C109.9,237.1,97.6,260.7,97.6,260.7z"/>
							<path class="st8" d="M116,146.9c0,0-4.5,1.5-10.8,0.5c-6.4-1-8.4-5-12.9-2.4c-6.7,3.9-3.6,17.2-1.9,24.1
								c0.6,2.6,1.4,9.3-0.1,14.9c0,0,8.9,7,19.2,6.6l5.6-12.1C115,178.5,127.2,164,116,146.9z"/>
							<path class="st26" d="M104.6,135.7c0,0,0.7,6.3-1.6,12c0,0,3.3,4.9,6.5,1.7c0,0,0.3-5.8,3.9-12.3
								C115.7,132.8,104.6,135.7,104.6,135.7z"/>
							<g>
								<path class="st27" d="M99.5,136c0,0-2.8-1.8-2.5,1c0.4,3.2,3.5,3.8,3.8,2.7C101.1,138.5,99.5,136,99.5,136z"/>
								<path class="st27" d="M115.6,132.5c0,0,1.8-2.8,2.7-0.2c1,3-1.5,4.9-2.3,4C115.2,135.5,115.6,132.5,115.6,132.5z"/>
								<path class="st27" d="M109.8,145.4c-5.1,1.1-8.7-1.5-10.9-11.5c-1.1-5.1,0.8-8.9,6.4-10.1c5.7-1.3,8.8,1.3,9.9,6.5
									C117.7,141,115,144.3,109.8,145.4z"/>
								<path class="st29" d="M114.4,134.2c0.2,0.5-0.1,1.1-0.7,1.3c-0.6,0.3-1.3,0.1-1.5-0.4s0.1-1.1,0.7-1.3
									C113.5,133.5,114.2,133.7,114.4,134.2z"/>
								<path class="st29" d="M104,136.8c0.1,0.5-0.4,1-1,1.1c-0.7,0.1-1.3-0.2-1.3-0.8c-0.1-0.5,0.4-1,1-1.1
									C103.3,135.9,103.9,136.3,104,136.8z"/>
								<g>
									<path class="st25" d="M110.8,129.5h-0.1c-0.9-0.6-2.1-0.3-2.1-0.3c-0.1,0-0.3,0-0.3-0.2c0-0.1,0-0.3,0.2-0.3
										c0.1,0,1.5-0.4,2.5,0.3c0.1,0.1,0.2,0.2,0.1,0.4C111,129.5,110.9,129.5,110.8,129.5z"/>
								</g>
								<g>
									<path class="st25" d="M101.3,131.7L101.3,131.7c-0.2-0.1-0.3-0.2-0.2-0.4c0.7-1.1,2.1-1.4,2.1-1.4c0.1,0,0.3,0.1,0.3,0.2
										c0,0.1-0.1,0.3-0.2,0.3c0,0-1.3,0.3-1.8,1.1C101.4,131.6,101.4,131.7,101.3,131.7z"/>
								</g>
								<path class="st30" d="M111.1,132.3c0.1,0.6,0,1.2-0.4,1.3c-0.4,0.1-0.7-0.4-0.9-1c-0.1-0.6,0-1.2,0.4-1.3
									C110.5,131.3,110.9,131.7,111.1,132.3z"/>
								<path class="st30" d="M104,133.9c0.1,0.6,0,1.2-0.4,1.3s-0.7-0.4-0.9-1c-0.1-0.6,0-1.2,0.4-1.3S103.9,133.2,104,133.9z"/>
								<path class="st30" d="M109.3,132.4c0,0,0.1-1.7,0.8-1.7c0.6,0,1.4,1.2,1.4,1.2l0.8-0.7l-0.9,0.3c0,0-0.8-1.3-1.4-1.2
									C109.1,130.6,109.3,132.4,109.3,132.4z"/>
								<path class="st30" d="M104.4,133.7c0,0-0.8-1.5-1.4-1.2c-0.6,0.2-0.8,1.7-0.8,1.7l-1-0.3l0.9-0.1c0,0,0.2-1.5,0.8-1.6
									C103.8,132,104.4,133.7,104.4,133.7z"/>
								<g>
									<path class="st29" d="M107.9,136.9l-0.3-0.5c0.4-0.2,0.5-0.5,0.4-0.7c-0.1-0.3-0.3-0.5-0.5-0.6c-0.1,0-0.2,0.1-0.3,0.3
										l-0.5-0.2c0.2-0.6,0.7-0.6,0.8-0.6c0.4,0,0.9,0.5,1,1C108.7,136.1,108.5,136.6,107.9,136.9z"/>
								</g>
								<path class="st25" d="M99.9,137.7c0,0-1.6-5.8-0.6-9.8c0,0,4.4-6.2,13-3.1c0,0,2.5,4.1,3.8,9.8c0,0,0.3-2-0.5-6.6
									c-0.8-4.6-4.9-7.4-10.4-6.5C99.5,122.4,93.5,127.9,99.9,137.7z"/>
							</g>
							<path class="st25" d="M108.9,123.5c0,0,0.3,1.5-1.1,5.4c0,0-1.1-1.1-2.3,0c-1.2,1.1-3.7,0.7-4.6,1.3s-0.9,2-0.9,2
								s-0.7-1.7,0-3.7c0,0-1.7,2.1-1.4,4.7c0,0-2.3-0.4-2.2-4.1c0.1-3.7,5.4-9.7,11.3-9.4c5.9,0.4,7.4,9.8,7.4,9.8
								s-0.5-0.4-1.4-0.2c0,0-0.1-2-1.5-4.5c0,0,0.6,1.8,0,3.8c0,0-1.7-0.9-3-0.6C109.3,128,110.1,126.4,108.9,123.5z"/>
							<path class="st27" d="M90.7,146.2c2.9-2.3,5.1,0.6,5.7,4.6s-4.7,27.6-8.7,26.8c-1.6-0.3-2.2-6.5-2.2-6.5s1.6-6.6,2.6-16.7
								C88.6,149.9,89.2,147.4,90.7,146.2z"/>
							<path class="st27" d="M82.3,174.3c-3.9-3.7-10.9-16-12.6-22.3l3-1.2c0,0,8.9,12.7,12.9,15.9c4.1,3.2,5.5,6.8,3.7,9.8
								C87.4,179.7,83.1,175.1,82.3,174.3z"/>
							<g>
								<path class="st27" d="M70.9,143.8c-0.2,4,3.1,5,1.6,8.1c-0.3,0.6-0.8,1-1.2,1.1c-0.9,0.3-1.9,0-2.6-0.7
									c-1.6-1.6-4-3.2-5.2-4c-1.5-0.8-0.6-1.1-0.6-1.1c-0.1-0.1-0.3-0.1-0.4-0.2c-1-0.4-1.9-0.6-1.1-1.1s3.9,0.6,3.9,0.6
									c-3.9-2.6-5-2-4.3-2.5c1-0.8,4.7,1,4.8,1c-2.1-2-3.6-2.4-2.7-2.7c0.8-0.3,4.9,2.7,6.4,3.8c0.3,0.2,0.5,0.4,0.5,0.4
									C69.8,143.4,70.9,143.8,70.9,143.8z"/>
								<path class="st26" d="M69.3,146.2c0.3,0.2,0.5,0.4,0.5,0.4s-0.7,1.2,0.2,2.7C70.1,149.4,68.4,148.3,69.3,146.2z"/>
								<path class="st26" d="M65.9,148.6c-0.3-0.2-2.3-1.3-3.1-1.2c-0.1-0.1-0.3-0.1-0.4-0.2C62.9,146.4,65.5,148.3,65.9,148.6z"/>
							</g>
							<g>
								<path class="st31" d="M81.4,208.2c0,0.4-0.4,0.8-0.8,0.8s-0.8-0.4-0.8-0.8s0.4-0.8,0.8-0.8
									C81.1,207.4,81.4,207.8,81.4,208.2z"/>
								<path class="st31" d="M95.5,213.7c0,0.4-0.4,0.8-0.8,0.8s-0.8-0.4-0.8-0.8c0-0.4,0.4-0.8,0.8-0.8
									C95.2,212.9,95.5,213.2,95.5,213.7z"/>
								<path class="st31" d="M107.6,216.6c0,0.4-0.4,0.8-0.8,0.8c-0.4,0-0.8-0.4-0.8-0.8c0-0.4,0.4-0.8,0.8-0.8
									C107.2,215.8,107.6,216.2,107.6,216.6z"/>
								<path class="st31" d="M89.1,197.9c0,0.4-0.4,0.8-0.8,0.8s-0.8-0.4-0.8-0.8c0-0.4,0.4-0.8,0.8-0.8S89.1,197.5,89.1,197.9z"/>
								<circle class="st31" cx="91" cy="205.4" r="0.8"/>
								<path class="st31" d="M104.3,209.7c0,0.4-0.4,0.8-0.8,0.8s-0.8-0.4-0.8-0.8c0-0.4,0.4-0.8,0.8-0.8S104.3,209.3,104.3,209.7z
									"/>
								<path class="st31" d="M106,196.7c0,0.4-0.4,0.8-0.8,0.8s-0.8-0.4-0.8-0.8c0-0.4,0.4-0.8,0.8-0.8
									C105.6,196,106,196.3,106,196.7z"/>
								<circle class="st31" cx="97" cy="194.1" r="0.8"/>
								<path class="st31" d="M74.4,223.7c0,0.4-0.4,0.8-0.8,0.8s-0.8-0.4-0.8-0.8c0-0.4,0.4-0.8,0.8-0.8
									C74.1,222.9,74.4,223.2,74.4,223.7z"/>
								<path class="st31" d="M63.2,220.3c0,0.4-0.4,0.8-0.8,0.8s-0.8-0.4-0.8-0.8c0-0.4,0.4-0.8,0.8-0.8S63.2,219.9,63.2,220.3z"/>
								<path class="st31" d="M56.5,214.1c-0.1,0.2-0.4,0.4-0.7,0.4c-0.4,0-0.8-0.4-0.8-0.8c0-0.1,0-0.2,0.1-0.3
									C55.6,213.6,56,213.8,56.5,214.1z"/>
								<circle class="st31" cx="77.7" cy="234" r="0.8"/>
								<path class="st31" d="M58.3,245.2c0,0.4-0.4,0.8-0.8,0.8s-0.8-0.4-0.8-0.8c0-0.4,0.4-0.8,0.8-0.8S58.3,244.7,58.3,245.2z"/>
								<circle class="st31" cx="65.7" cy="238.4" r="0.8"/>
								<circle class="st31" cx="53.4" cy="232.4" r="0.8"/>
								<path class="st31" d="M64.2,256c0,0.4-0.4,0.8-0.8,0.8s-0.8-0.4-0.8-0.8c0-0.4,0.4-0.8,0.8-0.8S64.2,255.6,64.2,256z"/>
								<path class="st31" d="M71.7,214.5c0,0.4-0.4,0.8-0.8,0.8s-0.8-0.4-0.8-0.8s0.4-0.8,0.8-0.8S71.7,214,71.7,214.5z"/>
								<path class="st31" d="M79.3,201.2c0,0.4-0.4,0.8-0.8,0.8s-0.8-0.4-0.8-0.8c0-0.4,0.4-0.8,0.8-0.8
									C78.9,200.4,79.3,200.7,79.3,201.2z"/>
								<path class="st31" d="M87.9,190.1c0,0.4-0.4,0.8-0.8,0.8s-0.8-0.4-0.8-0.8c0-0.4,0.4-0.8,0.8-0.8S87.9,189.6,87.9,190.1z"/>
								<path class="st31" d="M70.5,206.2c0,0.4-0.4,0.8-0.8,0.8s-0.8-0.4-0.8-0.8s0.4-0.8,0.8-0.8S70.5,205.8,70.5,206.2z"/>
								<path class="st31" d="M80.1,193.3c0,0.4-0.4,0.8-0.8,0.8s-0.8-0.4-0.8-0.8c0-0.4,0.4-0.8,0.8-0.8S80.1,192.8,80.1,193.3z"/>
								<path class="st31" d="M64.9,228.9c0,0.4-0.4,0.8-0.8,0.8s-0.8-0.4-0.8-0.8c0-0.4,0.4-0.8,0.8-0.8
									C64.6,228.1,64.9,228.4,64.9,228.9z"/>
								<path class="st31" d="M55,221.9c0,0.4-0.4,0.8-0.8,0.8s-0.8-0.4-0.8-0.8c0-0.4,0.4-0.8,0.8-0.8S55,221.4,55,221.9z"/>
								<circle class="st31" cx="83" cy="219.5" r="0.8"/>
								<circle class="st31" cx="99.4" cy="223.7" r="0.8"/>
								<path class="st31" d="M99.4,201.2c0,0.4-0.4,0.8-0.8,0.8s-0.8-0.4-0.8-0.8c0-0.4,0.4-0.8,0.8-0.8S99.4,200.7,99.4,201.2z"/>
								<path class="st31" d="M108.9,202.8c0,0.4-0.4,0.8-0.8,0.8s-0.8-0.4-0.8-0.8c0-0.4,0.4-0.8,0.8-0.8S108.9,202.4,108.9,202.8z
									"/>
								<path class="st31" d="M89.9,229.6c0,0.4-0.4,0.8-0.8,0.8s-0.8-0.4-0.8-0.8s0.4-0.8,0.8-0.8
									C89.5,228.9,89.9,229.2,89.9,229.6z"/>
								<circle class="st31" cx="82.2" cy="243.7" r="0.8"/>
								<circle class="st31" cx="70.1" cy="246" r="0.8"/>
								<circle class="st31" cx="103.5" cy="234" r="0.8"/>
								<path class="st31" d="M93.3,240c0,0.4-0.4,0.8-0.8,0.8s-0.8-0.4-0.8-0.8c0-0.4,0.4-0.8,0.8-0.8S93.3,239.5,93.3,240z"/>
								<path class="st31" d="M76.9,257.6c0,0.4-0.4,0.8-0.8,0.8s-0.8-0.4-0.8-0.8c0-0.4,0.4-0.8,0.8-0.8S76.9,257.2,76.9,257.6z"/>
								<circle class="st31" cx="88.3" cy="253.5" r="0.8"/>
								<circle class="st31" cx="100.1" cy="248.8" r="0.8"/>
								<path class="st31" d="M95.5,262.4c0,0.4-0.4,0.8-0.8,0.8s-0.8-0.4-0.8-0.8c0-0.4,0.4-0.8,0.8-0.8
									C95.2,261.6,95.5,262,95.5,262.4z"/>
							</g>
							<g>
								<path class="st28" d="M94.7,304.1h-13c-0.8-2.4,0.7-4.8,0.5-7c-0.5-3.6,1.6-1.6,1.6-1.6c0.4-3.9,5.8-4.6,5.8-2.9
									c-0.1,2.5,0.4,4.1,1.1,5.2c1.5,2.1,3.9,2.1,4.3,3.6c0,0.1,0.1,0.3,0.1,0.4C95.5,303.7,94.7,304.1,94.7,304.1z"/>
								<path class="st32" d="M95.1,301.8c-2.7,0.6-8.9-0.2-9.1-1.8c-0.2-1.5,3.1-2.2,4.8-2.3c1.5,2.1,3.9,2.1,4.3,3.6
									C95,301.5,95,301.7,95.1,301.8z"/>
							</g>
							<g>
								<path class="st28" d="M41.3,203.5c-1.4-1.3-3.6,0.8-3.6,0.8s1.2,1.8,0.4,2.5s-1.7-0.9-3.2-0.2c-0.1,0.1-0.3,0.1-0.4,0.2
									c-1.2,0.7-2.5,2.2-3.5,3.4c-0.2,0.2-0.4,0.4-0.6,0.6c-1.2,1.2-4.2,2-4.8-1.3s3.1-7.1,7.2-10.7c4.1-3.5,6.7-1.4,6.7-1.4
									s0.9,1.5,0.9,2.4s0.8,1.4,1.3,2.3C42.2,202.9,41.3,203.5,41.3,203.5z"/>
								<path class="st32" d="M34.5,206.8c-1.2,0.7-2.5,2.2-3.5,3.4c-1.5,0.4-2.9,0.3-3.1-1.2c-0.5-3.5,6.4-7.8,5.8-5.4
									C33.5,204.8,34,206,34.5,206.8z"/>
							</g>
							<g>
								<path class="st33" d="M111.4,136.7c0,0,0,1.5-1,2.6c-0.4,0.5-1,0.8-1.9,1c-0.5,0.1-0.9,0.1-1.3,0c-1.4-0.3-2.1-1.6-2.1-1.6
									s0.1,0,0.2,0c0.8-0.1,3.9-0.5,5.6-1.6l0,0C111.2,136.9,111.3,136.8,111.4,136.7z"/>
								<path class="st8" d="M111.1,137c-0.4,0.6-1.1,1.2-2.5,1.7c-1.7,0.6-2.6,0.3-3.1-0.1C106.2,138.6,109.3,138.2,111.1,137z"/>
								<path class="st34" d="M110.5,139.3c-0.4,0.5-1,0.8-1.9,1c-0.5,0.1-0.9,0.1-1.3,0c0.5-0.8,1.2-1.2,2.2-1.2
									C109.8,139.2,110.2,139.2,110.5,139.3z"/>
							</g>
						</g>
						<g>
							<path class="st8" d="M274.9,298.4c-0.6-0.3-1.2-1.1-1.8-2c0,0-0.5-2.8,0-5.7c0.5-2.9-0.8-5.3-4.9-6.2c-4-0.9-6.4,1.1-5.4,9.1
								l0,0c-0.6,3.3-0.7,7.2,0.7,10.4h12.3C275.8,304.1,277.7,299.9,274.9,298.4z"/>
							<path class="st27" d="M285.7,255.1c0,0,0,8-4.5,16.2c-4.6,8.4-10.3,19.9-10.3,19.9s-3.8,3.7-6.2-2.4c0,0,1.7-21.3,5.6-29.2
								C274.2,251.8,285.7,255.1,285.7,255.1z"/>
							<path class="st27" d="M344.7,229c0,0,7.3,30.8,12,38.9c0,0-1.1,3.4-6.1,4.4c0,0-15.9-23.4-17-33.3
								C332.6,229.2,344.7,229,344.7,229z"/>
							<g>
								<path class="st35" d="M348.3,236.3c-1.9,4.7-17,5-17,5l-1.2-1.7l-0.3-0.4l-2.4-3.5c0,0-24.9-24.5-29.8-22.4l0,0
									c-0.1,0.1-0.3,0.1-0.4,0.2c-3.3,2.4-3.7,15.5-7.6,37.4c-0.4,2.1-1.2,4.5-1.9,6.2c-0.1,0.2-0.1,0.4-0.2,0.5
									c-0.4,0.9-0.6,1.5-0.6,1.5c-15.2,6.2-20.3-6-20.3-6s0.2-0.4,0.4-0.9c0.1-0.1,0.1-0.3,0.2-0.4c0.8-1.8,2.1-4.8,2.1-6.4
									c0-1.8,0-3.5,0-5.1c0-0.1,0-0.3,0-0.4c0-5.3,0-9.9,0-13.8v-0.4c0-1.7,0-3.4,0.1-4.9v-0.4c0.1-6.9,0.4-11.6,0.6-14.6
									c0-0.1,0-0.3,0-0.4c0.4-5.2,0.9-5.7,0.9-5.7l-3.1-21.2h33.3c0,0,5,5,11.5,11.6c0.1,0.1,0.3,0.3,0.4,0.4
									c2.4,2.4,4.9,5,7.4,7.6c0.1,0.1,0.2,0.2,0.3,0.3c1,1,2,2.1,3,3.1c0.1,0.1,0.2,0.3,0.4,0.4c3.3,3.5,6.6,6.9,9.3,9.9
									c0.1,0.1,0.2,0.2,0.3,0.3c3.8,4.1,6.7,7.4,7.7,8.9c2.6,4,4.7,9.3,5.8,12.5l0,0c0.1,0.1,0.1,0.3,0.2,0.4
									C348,235.3,348.3,236.3,348.3,236.3z"/>
								<g>
									<path class="st36" d="M275.9,202.6c-1.4,1.6-3.3,2.6-5.9,2.9c0-0.1,0-0.3,0-0.4c2.4-0.3,4.3-1.3,5.5-2.8
										c2.3-2.7,1.9-6.3,1.9-6.4h0.4C277.9,196.1,278.3,199.8,275.9,202.6z"/>
									<path class="st36" d="M313.1,190.2c-0.1,0-0.3,0-0.4,0c-3.7,0-7.6-4-7.8-4.3l0.3-0.3c0,0.1,3.9,4.1,7.4,4.1
										C312.8,190,312.9,190.1,313.1,190.2z"/>
									<path class="st36" d="M287.8,257c-0.1,0.2-0.1,0.4-0.2,0.5c-2.5,0.9-4.7,1.3-6.8,1.3c-6.6,0-11.1-3.8-13.6-6.7
										c0.1-0.1,0.1-0.3,0.2-0.4C270.5,255.4,277.4,261,287.8,257z"/>
									<path class="st36" d="M296.7,205.6c0.6,2.4,0.9,4.9,0.9,7.6c-0.1,0.1-0.3,0.1-0.4,0.2c0-12.4-7.2-22.1-7.3-22.2l0.3-0.2
										c0.1,0.1,4.3,5.8,6.3,14.2c0.8-0.6,1.4-1.3,1.6-2.4c1-4.4-3.7-11.5-3.7-11.6l0.3-0.2c0.2,0.3,4.9,7.3,3.8,11.9
										C298.4,204,297.7,204.9,296.7,205.6z"/>
									<path class="st36" d="M333.8,211.8c-1.2,1.3-2.4,2.5-2.5,2.6l-0.2,0.2l-0.1-0.3c-1.6-4.2-12-13.4-12.1-13.5l-0.1-0.1
										l1.7-2.9c0.1,0.1,0.2,0.2,0.3,0.3l-1.4,2.4c2,0.7,3.4,0.8,4.4,0.7c0.1,0.1,0.2,0.3,0.4,0.4c-0.3,0.1-0.7,0.1-1.1,0.1
										c-0.9,0-2-0.2-3.2-0.6c2.4,2.1,9.7,8.9,11.3,12.7c0.6-0.6,1.5-1.5,2.3-2.4C333.6,211.6,333.7,211.7,333.8,211.8z"/>
									<path class="st36" d="M276.9,240.1h-0.2c-0.2,0-2,0.4-4.2,0.4c-1.1,0-2.2-0.1-3.2-0.4c0-0.1,0-0.3,0-0.4
										c2.7,0.8,6.3,0.2,7.2,0l-0.7-17.1c-0.4,0.9-1.2,2.2-2.6,2.9c-0.7,0.3-1.4,0.5-2.3,0.5c-0.5,0-1-0.1-1.6-0.2v-0.4
										c1.4,0.3,2.7,0.2,3.7-0.3c1.7-0.9,2.4-2.7,2.6-3.4c-1.4,0.2-4.1-0.5-6.3-1.1v-0.4c2.3,0.7,5.4,1.5,6.5,1.1l0.3-0.1
										L276.9,240.1z"/>
									<path class="st36" d="M347.4,233.7c-2.4,2.4-7.3,6-14.8,6c-0.8,0-1.6,0-2.5-0.1l-0.3-0.4c9.2,1.1,14.9-3.2,17.5-5.8
										C347.3,233.4,347.4,233.6,347.4,233.7z"/>
								</g>
							</g>
							<path class="st37" d="M307.3,88.1c0,0-0.9-2.1-4.8-2.1c-3,0-4.1,1.6-4.1,1.6c-1.8,5.2-3.7,25.1-4.4,25.9
								c-0.3,0.4-22.4,15.2-22.4,15.2c12,0.2,19.5,15,19.5,15c0.4-4.9,13.9-24.1,14.1-25.8C305.4,114.6,311.1,100.2,307.3,88.1z"/>
							<path class="st37" d="M269,192.3c0,0-0.1,4.2,1.2,4.4s12.3,3.5,24.9-2.2s14.8-10,11.1-13.1C302.5,178.3,269,192.3,269,192.3z
								"/>
							<path class="st38" d="M263.9,131.6c0,0-11.5-1.4-18.1,1.5c0,0-1.8,8.1,7.2,26.4c9,18.2,6.9,29.7,17.1,34
								c9,3.8,35.7-7.6,36.5-11.3c2.1-9.5-14.2-26.2-15.2-35.9C290.5,136.5,281,122,263.9,131.6z"/>
							<path class="st37" d="M245.9,133.1c-8,2.8-17,11.8-17,16.2c0,4.3,7.5,6,7.5,6l12.4-6c0,0,3.5-2.5,1.3-9.7
								C247.7,132.4,245.9,133.1,245.9,133.1z"/>
							<g>
								<path class="st8" d="M278.8,141.1c-2.4,0-5.4-0.9-7.2-2.2c-1-0.7-1.6-1.5-1.8-2.4c-0.5-2.8,2.3-4.3,2.4-4.4l0.4,0.7
									c-0.1,0-2.4,1.2-2,3.5c0.1,0.6,0.6,1.2,1.4,1.8c2.1,1.5,5.6,2.3,8,1.9c1-0.2,1.7-0.6,2-1.1c0.4-0.7,0.1-1.5,0.1-1.5l0.8-0.3
									c0,0,0.5,1.1-0.1,2.2c-0.4,0.8-1.3,1.3-2.6,1.5C279.8,141,279.3,141.1,278.8,141.1z"/>
							</g>
							<g>
								<path class="st8" d="M268.6,149.8c-1.8,0-4.7-0.7-5.1-3.7c-0.2-1.5-0.1-2.7,0-3.8c0.2-1.6,0.3-2.9-0.6-4.4
									c-1.5-2.5-3.6-2.7-3.7-2.7v-0.8c0.1,0,2.6,0.2,4.4,3.1c1.1,1.8,0.9,3.3,0.7,4.9c-0.1,1.1-0.2,2.2,0,3.6
									c0.4,3.1,4.5,2.9,4.6,2.9v0.8C268.9,149.8,268.8,149.8,268.6,149.8z"/>
							</g>
							<path class="st37" d="M271.1,135c0,0,6.1-4.1,4.6-8.6c-1.4-4.5-21-4.2-26,1.2c-5,5.3,10.9,8.9,10.9,8.9
								C261.9,134,269.8,133.7,271.1,135z"/>
							<path class="st39" d="M260.2,134.3c-2.9-1-4.6-3.1-4-5.5c0.6-2.4,13-2.5,15.3-0.5S270.6,137.8,260.2,134.3z"/>
							<path class="st26" d="M258.9,127.6c0,0,2.5,4.3,1.4,6.7c0,0,8.7,3,8.7-1.9c0,0-1.6-3.7-1-6L258.9,127.6z"/>
							<g>
								<path class="st40" d="M256,123.8c0,0-4.3-6.9-3.9-13.4c0.2-3.3,1.9-4.6,1.9-4.6s-1.4-1.9,0.1-4.8c0,0,2,2.3,9.1,1.6
									c6.8-0.7,7.5,4.2,7.5,4.2c4.9,0.7,1.6,15.5-1.8,17C268.9,123.8,256,123.8,256,123.8z"/>
								<path class="st27" d="M254.1,117.4c0,0-2.5-2.5-2.8,0.4c-0.4,3.3,2.7,4.7,3.3,3.6C255.2,120.4,254.1,117.4,254.1,117.4z"/>
								<path class="st27" d="M271.4,117.6c0,0,2.5-2.5,2.8,0.4c0.4,3.3-2.7,4.7-3.3,3.6C270.3,120.6,271.4,117.6,271.4,117.6z"/>
								<path class="st27" d="M262.5,129.5c-5.5,0-8.6-3.6-8.6-14.3c0-5.5,2.8-8.9,8.9-8.9s8.7,3.4,8.7,8.9
									C271.6,126.7,268.2,129.5,262.5,129.5z"/>
								<path class="st29" d="M269.8,119c0.1,0.6-0.4,1.1-1.1,1.2s-1.3-0.2-1.4-0.8c-0.1-0.6,0.4-1.1,1.1-1.2
									C269.1,118.1,269.7,118.5,269.8,119z"/>
								<path class="st29" d="M258.5,119.3c0,0.6-0.6,1-1.3,0.9c-0.7,0-1.2-0.5-1.2-1.1s0.6-1,1.3-0.9
									C258,118.3,258.6,118.8,258.5,119.3z"/>
								<g>
									<path class="st40" d="M267.4,113.3c-0.1,0-0.1,0-0.2-0.1c-0.9-0.7-2.2-0.4-2.2-0.4c-0.1,0-0.3-0.1-0.3-0.2s0.1-0.3,0.2-0.3
										s1.6-0.3,2.6,0.5c0.1,0.1,0.1,0.3,0.1,0.4C267.5,113.2,267.4,113.3,267.4,113.3z"/>
								</g>
								<g>
									<path class="st40" d="M256.9,113.3c-0.1,0-0.1,0-0.2-0.1s-0.1-0.3,0-0.4c1-0.8,2.6-0.6,2.6-0.6c0.1,0,0.3,0.2,0.2,0.3
										c0,0.1-0.2,0.2-0.3,0.2c0,0-1.3-0.2-2.2,0.5C257,113.3,257,113.3,256.9,113.3z"/>
								</g>
								<path class="st30" d="M266.8,116.4c0,0.7-0.3,1.2-0.7,1.2c-0.4,0-0.7-0.6-0.7-1.2c0-0.7,0.3-1.2,0.7-1.2
									C266.5,115.1,266.8,115.7,266.8,116.4z"/>
								<path class="st30" d="M259.5,116.4c0,0.7-0.3,1.2-0.7,1.2c-0.4,0-0.7-0.6-0.7-1.2c0-0.7,0.3-1.2,0.7-1.2
									S259.5,115.7,259.5,116.4z"/>
								<path class="st40" d="M255.6,107.5c0,0,5.8,2.1,14.2,1.5c0,0,1.8,2.2,1.6,10.1c0,0,4.9-14.1-9.4-14.1
									c-14.3,0-7.9,13.8-7.9,13.8S253,110.1,255.6,107.5z"/>
								<g>
									<path class="st29" d="M262.9,120l-0.4-0.4l1.1-1.1c-1-1.5-1-4.9-1-5.1h0.6c0,0,0,3.7,1.1,4.9l0.2,0.2L262.9,120z"/>
								</g>
							</g>
							<path class="st8" d="M282.2,136.6c1-0.2,0.9,2.5,0,1.7S281.2,136.8,282.2,136.6z"/>
							<path class="st8" d="M269.8,149.6c-0.2,1-2.7,0.1-1.6-0.6C269.3,148.5,270,148.6,269.8,149.6z"/>
							<path class="st26" d="M258.8,155.3c0,0-1.6,4.2-1.5,6.6c0.1,2.4,0.9,2.1,0.9,2.1s-1.2,0.5-1.5,1.9c-0.2,1.4,3.2,2.4,3.4,2.4
								c0.2,0,2.7-0.9,2.7-0.9l0.5-7.7l-2.1-1.4L258.8,155.3z"/>
							<path class="st27" d="M260.1,154.7c0,0,3,1.9,4.1,3c1.2,1.1,0.5,9.9,0,10.3c-0.5,0.4-4.3,1.3-5,0.8s0.3-3,0.3-3
								s1.9-0.4,1.6,0.3s0,1.3,0,1.3l0.8-0.3c0,0-0.4-2,0-3.4s-2.7-3-3-5.6C258.5,155.4,260.1,154.7,260.1,154.7z"/>
							<path class="st37" d="M229.3,150.5c-1-4.1,3.1-5.6,8.8-4.9c6.6,0.8,20.1,2.5,23,9.7c0,0,1,2.8-1.5,4.2
								C252.7,163.2,231.1,158.2,229.3,150.5z"/>
							<path class="st39" d="M249.9,147.7c0,0-7.8-3.3-11.7-3.6C234.2,143.8,243.5,147.2,249.9,147.7z"/>
							<g>
								<path class="st27" d="M308.7,77.2c-0.6,0.7-1.6,3.3-1.6,3.3c-0.4,2.2-0.6,3.4-1.4,4.4s-0.4,2.8-0.4,2.8s-3,1.5-5.5-0.4
									c0,0,0.3-1.8,0-2.3c-0.5-1-2.2-1.5-2.7-3.6c-0.6-2-2.3-4.3-2.3-4.3s0.5-1.1,1.4-0.4c0.9,0.6,1.5,2.3,1.9,2.4
									c0.1,0,0.2,0.1,0.3,0.1l0,0c0.4,0,0.7,0,1-0.3c0,0,0,0,0.1,0c0.8-0.9,1-3.7,1-5c0-1.7,0-4.1,1.1-3.7
									c1.1,0.4,0.1,1.4,0.9,5.2h0.4c0.1,0.3,0.8-2.3,1-4.7c0.1-1.7,1.2-1.1,1.5-0.5c0.2,0.5-0.1,2.2-0.2,3.4
									c-0.1,0.8-0.1,1.6-0.2,2.1l0.5,0.3c1.7-2.9,1.1-4.1,2.1-4.2c1-0.1,0.6,2.4,0.1,3.3c-0.2,0.4-0.4,1.2-0.6,2.1
									c1.7-2,1.5-3,2.3-2.9C310,74.5,309.2,76.5,308.7,77.2z"/>
								<path class="st26" d="M301.3,81.7c-0.6-1.6-2.6-2.3-2.9-2.4c0.4,0,0.7,0,1-0.3C301.4,79.9,301.3,81.7,301.3,81.7z"/>
							</g>
							<g>
								<path class="st8" d="M265.6,292c0,0-1.1-2.3-0.1-3.3s2.2,0.9,3.9,0.4c1.7-0.4,2.1-1.6,2.6,0
									C272.4,290.8,271.9,296.1,265.6,292z"/>
								<path class="st31" d="M272.1,291.9c0,0-4.7,1.6-7.1,0l0.6,2c0,0,5.1,0.5,5.8-0.7L272.1,291.9z"/>
								<path class="st31" d="M272,294.4c0,0-4.3-0.6-6.3,0.5v1c0,0,5.6-1.3,7.4,0L272,294.4z"/>
								<path class="st31" d="M265.5,297.9c0,0,0.8-2,3.4-2.2c2.6-0.1,4.3,1.3,4.3,1.3S269.2,295.4,265.5,297.9z"/>
							</g>
							<g>
								<path class="st8" d="M375.2,270c-8.2,10.9-19.3,13-19.3,13c-3.2-2.6-3.3-5.6-3.3-5.6s-3.1-2.8-3.5-4.1
									c-0.4-1.3,2.7-5.3,4.5-4.9c1.3,0.3,2,1.3,2.4,1.9c-1.5-3.4-0.3-4.6,1.9-4.3c2.3,0.3,0.1,0.8,1.7,2.7
									c0.1,0.1,0.2,0.2,0.4,0.3c0.3,0.2,0.6,0.3,1.1,0.4c0.4,0.1,0.7,0.1,1.2,0.1c0.2,0,0.4,0,0.7-0.1c0.4-0.1,0.8-0.2,1.3-0.3
									c0.7-0.2,1.4-0.5,2.1-0.9c2.8-1.5,4-2.1,6.2-1.5c2.1,0.5,2.1,2.2,2.1,2.2L375.2,270z"/>
								<path class="st31" d="M375.2,270c-8.2,10.9-19.3,13-19.3,13c5.7-2.4,10.9-5.6,14.5-9.6C373.9,269.5,375.2,270,375.2,270z"/>
								<g>
									<path class="st31" d="M359.9,268.8c0.3,0.2,0.6,0.3,1.1,0.4c-2.2,0.4-2.3,2.4-2.3,2.4l-0.9-0.3
										C357.9,269,359.8,268.8,359.9,268.8z"/>
									<path class="st31" d="M361.4,271.9h-1c-0.4-1.4,0.1-2.2,0.6-2.6c0.4,0.1,0.7,0.1,1.2,0.1
										C361,270.4,361.4,271.9,361.4,271.9z"/>
									<path class="st31" d="M363.8,271.3l-1,0.1c-0.4-1-0.3-1.7,0-2.2c0.4-0.1,0.8-0.2,1.3-0.3
										C363.3,270.1,363.8,271.3,363.8,271.3z"/>
								</g>
							</g>
							<path class="st37" d="M272.2,169.9c0,0,2.1,11.4-2.2,15.9c-4.3,4.5-1.4,0.8-0.2-5C271.1,175,270.2,168.8,272.2,169.9z"/>
							<path class="st37" d="M291.9,164.8c0,0,6.7,2.2,10.3,8.4C302.2,173.3,297.4,163.1,291.9,164.8z"/>
							<g>
								<path class="st33" d="M266.4,124.3c-0.5,0.6-1.4,1-2.7,1.1c-1,0.1-1.8-0.1-2.4-0.4c-2-0.9-2-3.2-2-3.2s0.3,0,0.7,0
									c1.4,0,4.8,0.1,7-0.4c0.2,0,0.3-0.1,0.5-0.1C267.3,121.3,267.5,123.1,266.4,124.3z"/>
								<path class="st8" d="M266.9,121.4c-0.6,0.9-2.1,1.4-3.6,1.4c-1.3,0-2.6-0.3-3.4-1C261.3,121.9,264.7,121.9,266.9,121.4z"/>
								<path class="st34" d="M266.4,124.3c-0.5,0.6-1.4,1-2.7,1.1c-1,0.1-1.8-0.1-2.4-0.4c0.7-0.8,1.7-1.3,2.8-1.3
									C264.6,123.8,265.6,123.9,266.4,124.3z"/>
							</g>
						</g>
						<g>
							<g>
								<path class="st27" d="M117.1,80.2c0.9,0,3.5,1,3.5,1c1.9,1.2,3,1.8,4.2,1.9c1.3,0.1,1.8,2.3,1.8,2.3s5,1.1,5.3-2.1
									c0,0-2.8-3.9-3-4.5c-0.4-1.1,0.3-2.6-0.8-4.4s-1.7-4.6-1.7-4.6s-1.1-0.3-1.2,0.7c-0.1,1.1,0.7,2.6,0.5,3.1
									c0,0.1-0.1,0.2-0.1,0.3l0,0c-0.2,0.3-0.5,0.5-0.8,0.6c0,0,0,0-0.1,0c-1.2,0-3.4-1.8-4.3-2.6c-1.2-1.2-3.1-2.7-3.5-1.7
									c-0.4,1.1,1,1,3.2,4.1l-0.2,0.3c0.2,0.2-2.2-1-4.2-2.5c-1.3-1-1.6,0.2-1.4,0.7c0.2,0.5,1.7,1.4,2.6,2.1
									c0.6,0.5,1.3,1,1.7,1.3l-0.1,0.5c-3.3-0.7-3.8-1.9-4.5-1.3c-0.7,0.7,1.4,2.1,2.4,2.3c0.4,0.1,1.2,0.5,1.9,0.9
									c-2.6-0.1-3.2-0.9-3.7-0.2C114.2,79.4,116.2,80.2,117.1,80.2z"/>
								<path class="st26" d="M125.4,77.8c-0.8-1.5,0.1-3.5,0.2-3.7c-0.2,0.3-0.5,0.5-0.8,0.6C124,76.7,125.4,77.8,125.4,77.8z"/>
							</g>
							<g>
								<path class="st27" d="M263.6,80.2c-0.9,0-3.5,1-3.5,1c-1.9,1.2-3,1.8-4.2,1.9c-1.3,0.1-1.8,2.3-1.8,2.3s-5,1.1-5.3-2.1
									c0,0,2.8-3.9,3-4.5c0.4-1.1-0.3-2.6,0.8-4.4c1.1-1.8,1.7-4.6,1.7-4.6s1.1-0.3,1.2,0.7c0.1,1.1-0.7,2.6-0.5,3.1
									c0,0.1,0.1,0.2,0.1,0.3l0,0c0.2,0.3,0.5,0.5,0.8,0.6c0,0,0,0,0.1,0c1.2,0,3.4-1.8,4.3-2.6c1.2-1.2,3.1-2.7,3.5-1.7
									c0.4,1.1-1,1-3.2,4.1l0.2,0.3c-0.2,0.2,2.2-1,4.2-2.5c1.3-1,1.6,0.2,1.4,0.7s-1.7,1.4-2.6,2.1c-0.6,0.5-1.3,1-1.7,1.3
									l0.1,0.5c3.3-0.7,3.8-1.9,4.5-1.3c0.7,0.7-1.4,2.1-2.4,2.3c-0.4,0.1-1.2,0.5-1.9,0.9c2.6-0.1,3.2-0.9,3.7-0.2
									C266.4,79.4,264.5,80.2,263.6,80.2z"/>
								<path class="st26" d="M255.3,77.8c0.8-1.5-0.1-3.5-0.2-3.7c0.2,0.3,0.5,0.5,0.8,0.6C256.7,76.7,255.3,77.8,255.3,77.8z"/>
							</g>
							<path class="st25" d="M219.8,231.2l-9.6-59.2l-19.2,2.1l-19.2-2.1l-9.6,59.2l-4.6,57.5c0,0,1.5,4.8,11,1.5
								c0,0,7.1-53.3,8.2-54.5c1.1-1.2,12.4-36,12.4-36h3.5c0,0,11.3,34.8,12.4,36c1.1,1.2,8.2,54.5,8.2,54.5c9.6,3.3,11-1.5,11-1.5
								L219.8,231.2z"/>
							<path class="st41" d="M185.1,114.5c1.2,1.2,7.2,3.3,10.3,0l2.1,2.1c0,0-2.4,5.7-6.7,5.9c-4.3,0.2-7.3-5.1-7.3-5.1
								L185.1,114.5z"/>
							<path class="st41" d="M201.9,113.9c7.1-3.1,30.2-11.2,30.2-11.2s15.5-19.4,18.6-22.3c0,0,3.4,0.6,4.4,4.9
								c0,0-10,21.3-15.4,27.5c-5.4,6.1-32.9,19.3-32.9,19.3L201.9,113.9z"/>
							<path class="st40" d="M177,113.5c2.1-1.3,12.8,5.8,12.8,5.8s13.8-7.3,17.1-5.9c0,0,2.9,3.9,4.1,14
								c1.2,10.1,1.3,51.5,1.3,51.5s-9.3,3.3-21.9,3.3c-14.3,0-22.1-4.1-22.1-4.1S165.7,120.6,177,113.5z"/>
							<path class="st26" d="M185.6,112.4c0,0,1.5,4.8,0,6.7c0,0,1.6,3.3,4.5,3.5c3.3,0.2,4.5-3.5,4.5-3.5s-1.7-4.7,0-6.3
								L185.6,112.4z"/>
							<g>
								<path class="st35" d="M181.8,107.6c0,0-3.2-6.2-2.6-12.8c0.6-6.6,10.6-8.2,17.4-4.9c0,0-2-2-1.2-2.5s2.1,2.9,2.1,2.9
									s2.1-0.7,2.5,0c0.3,0.7-2.2,1-2.2,1s4.3,2.4,0.3,15.2L181.8,107.6z"/>
								<path class="st27" d="M181.3,103.7c0,0-2.4-2.4-2.7,0.4c-0.3,3.3,2.6,4.6,3.2,3.5C182.4,106.6,181.3,103.7,181.3,103.7z"/>
								<path class="st27" d="M198.2,103.9c0,0,2.4-2.4,2.7,0.4c0.3,3.3-2.6,4.6-3.2,3.5C197.1,106.8,198.2,103.9,198.2,103.9z"/>
								<path class="st27" d="M189.5,115.5c-5.3,0-8.3-3.5-8.3-13.9c0-5.4,2.7-8.7,8.7-8.7s8.5,3.3,8.5,8.7
									C198.4,112.8,195,115.5,189.5,115.5z"/>
								<path class="st29" d="M196.6,105.3c0.1,0.5-0.4,1.1-1,1.2c-0.7,0.1-1.3-0.2-1.4-0.8c-0.1-0.5,0.4-1.1,1-1.2
									C195.9,104.4,196.5,104.7,196.6,105.3z"/>
								<path class="st29" d="M185.6,105.6c0,0.5-0.6,0.9-1.3,0.9s-1.2-0.5-1.2-1.1c0-0.5,0.6-0.9,1.3-0.9
									C185.1,104.5,185.7,105,185.6,105.6z"/>
								<g>
									<path class="st35" d="M194.2,99.8c-0.1,0-0.1,0-0.2-0.1c-0.7-0.8-2-0.7-2.1-0.7s-0.3-0.1-0.3-0.3c0-0.1,0.1-0.3,0.3-0.3
										c0.1,0,1.6,0,2.5,0.9c0.1,0.1,0.1,0.3,0,0.4S194.2,99.8,194.2,99.8z"/>
								</g>
								<g>
									<path class="st35" d="M184.1,99.8c-0.1,0-0.1,0-0.2-0.1c-0.1-0.1-0.1-0.3,0-0.4c0.9-0.9,2.4-0.9,2.5-0.9s0.3,0.1,0.3,0.3
										c0,0.1-0.1,0.3-0.3,0.3c0,0-1.3,0-2.1,0.7C184.3,99.8,184.2,99.8,184.1,99.8z"/>
								</g>
								<path class="st30" d="M193.7,102.7c0,0.7-0.3,1.2-0.7,1.2s-0.7-0.5-0.7-1.2s0.3-1.2,0.7-1.2
									C193.4,101.5,193.7,102,193.7,102.7z"/>
								<path class="st30" d="M186.6,102.7c0,0.7-0.3,1.2-0.7,1.2s-0.7-0.5-0.7-1.2s0.3-1.2,0.7-1.2
									C186.3,101.5,186.6,102,186.6,102.7z"/>
								<path class="st35" d="M197.8,105.1c0,0-0.2-5.8-2.4-10.3c0,0-4,1.8-4.9,1.4s0.8-1.4,0.8-1.4s-6.6,2.2-7,1.7
									c-0.4-0.4,2.2-1.7,2.2-1.7l-4.1,1.4c0,0-1.3,5.2-0.7,8.9c0,0-1.8-3-2-5.1s0.7-8.1,6.9-8.5s9.6,1,11.2,3.8
									C199.3,98,199.1,101.5,197.8,105.1z"/>
								<g>
									<path class="st29" d="M190.4,108.1c-0.5,0-1-0.1-1.2-0.2l0.2-0.5c0.6,0.2,1.4,0.2,1.6,0c0.1-0.1,0-0.3-0.1-0.5
										c-0.8-1.6-0.9-5.8-0.9-6h0.6c0,0,0.2,4.2,0.9,5.7c0.2,0.5,0.2,0.8,0,1.1C191.2,108,190.8,108.1,190.4,108.1z"/>
								</g>
							</g>
							<path class="st42" d="M196.3,116.1c0,0,9.7,30,10.6,54.4c0,0,3.5,1,7.4-4.4c3.9-5.3,1.6-47.7-5.9-54.7
								C208.4,111.3,205,110.5,196.3,116.1z"/>
							<path class="st41" d="M197.9,121.3c0,0,1.7-4,1-6.8s-3.5,0-3.5,0S196.5,119,197.9,121.3z"/>
							<path class="st41" d="M178.5,113.9c-7.1-3.1-30.2-11.2-30.2-11.2s-15.5-20-18.7-22.8c0,0-3.9,2.2-4.2,6.8
								c0,0,9.7,20,15.2,26.1c5.4,6.1,32.9,19.3,32.9,19.3L178.5,113.9z"/>
							<path class="st42" d="M184.1,116.1c0,0-9.7,30-10.6,54.4c0,0-3.5,1-7.4-4.4c-3.9-5.3-1.6-47.7,5.9-54.7
								C172.1,111.3,175.5,110.5,184.1,116.1z"/>
							<path class="st41" d="M182.6,121.3c0,0-1.7-4-1-6.8s3.5,0,3.5,0S184,119,182.6,121.3z"/>
							<g>
								<path class="st36" d="M233,304.1h-19.2c-1.3-7.6,0.8-15.3,0.8-15.3l8.8-1.5c0.8,4.8,1.8,6.7,3.1,7.7l0,0
									c1,0.7,2.1,0.9,3.6,1.4c1.7,0.6,2.5,1.6,3,2.8C233.8,301.4,233,304.1,233,304.1z"/>
								<path class="st35" d="M233,299.2c-4.7,0.6-15.1,1.6-14.5-1.1c0.5-2.3,4.9-2.9,7.9-3.1l0,0c1,0.7,2.1,0.9,3.6,1.4
									C231.7,297,232.5,298.1,233,299.2z"/>
							</g>
							<g>
								<path class="st36" d="M168.7,304.1h-19.1c0,0-0.6-1.8-0.3-3.7c0.2-1.5,1.1-3.2,3.3-3.9c1.7-0.6,2.9-0.8,4-1.8
									c1.1-1.1,2-3,2.7-7.4l8.8,1.5C167.9,288.8,170.1,296.4,168.7,304.1z"/>
								<path class="st35" d="M149.2,300.4c0.2-1.5,1.1-3.2,3.3-3.9c1.7-0.6,2.9-0.8,4-1.8c2.4,0.7,5.8,2.1,6.9,4.2
									C164.8,301.7,153.6,301.3,149.2,300.4z"/>
							</g>
							<g>
								<path class="st33" d="M193.7,108.7c0,0,0,1.7-1.5,2.6c-0.5,0.4-1.3,0.6-2.3,0.7c-0.5,0-0.9-0.1-1.3-0.2
									c-1.5-0.7-2-2.5-2-2.5s0.2,0,0.5,0.1c1.1,0.1,4,0.3,6-0.4C193.3,108.9,193.5,108.8,193.7,108.7z"/>
								<path class="st8" d="M193.1,108.9c-0.7,0.9-2.1,1.2-3.3,1.2c-1,0-2-0.2-2.7-0.9C188.2,109.4,191.1,109.6,193.1,108.9z"/>
								<path class="st34" d="M192.2,111.3c-0.5,0.4-1.3,0.6-2.3,0.7c-0.5,0-0.9-0.1-1.3-0.2c0.5-0.6,1.4-0.9,2.1-0.9
									C191.2,110.9,191.7,111.1,192.2,111.3z"/>
							</g>
						</g>
						<g>
							<g>
								<path class="st28" d="M306.4,302.7c0,0.8-0.1,1.4-0.1,1.4H283c0-0.5,0-0.9,0-1.4c0.3-6.1,2.2-11.4,2.2-11.4l5.8-2.5
									c0.5,3,1.8,4.9,3.4,6.2c0.4,0.3,0.9,0.6,1.3,0.9c0.2,0.1,0.4,0.2,0.6,0.3c0.5,0.2,1,0.4,1.5,0.6c2.1,0.6,4.1,0.8,5.6,1
									C306,298.1,306.4,300.9,306.4,302.7z"/>
								<path class="st43" d="M306.4,302.7c0,0.8-0.1,1.4-0.1,1.4H283c0-0.5,0-0.9,0-1.4H306.4z"/>
								<path class="st43" d="M295.8,295.8l-3.2,1l-0.7-1.2l2.6-0.7C294.9,295.3,295.4,295.6,295.8,295.8z"/>
								<path class="st43" d="M298,296.7l-2.2,1.4l-1.3-0.5l2-1.5C296.9,296.4,297.4,296.6,298,296.7z"/>
							</g>
							<g>
								<path class="st28" d="M217.4,302.7c-0.1,0.8-0.3,1.4-0.3,1.4h-15.5c-0.2-0.5-0.3-0.9-0.4-1.4c-1.5-7.4,8.8-16.5,8.8-16.5
									l3.3,4.4c0,0-0.4,7,2.4,8.4C217.3,299.9,217.5,301.5,217.4,302.7z"/>
								<path class="st43" d="M201.2,302.7h16.2c-0.1,0.8-0.3,1.4-0.3,1.4h-15.5C201.4,303.6,201.3,303.2,201.2,302.7z"/>
								<path class="st43" d="M214.9,298.4c0,0-6.5-1.5-9.5,0.4v-1.1C205.4,297.8,210.9,295.1,214.9,298.4z"/>
								<path class="st43" d="M213.6,296.8c0,0-4.2-1.9-8.2,0l0.5-1.1C205.9,295.7,210.7,293.9,213.6,296.8z"/>
							</g>
							<path class="st44" d="M299.4,236.7c0,6.2-5.5,57.1-5.5,57.1c-5.5,0.6-10-0.6-10-0.6c-1.5-25.8-1.7-48-1.7-48l-26.6-19.8h-0.1
								c0,0-0.1,0.5-0.3,1.3c-1.3,5.8-6.9,30.3-9.2,35.9c-2.6,6.4-31.5,33.2-31.5,33.2c-5.4-0.7-9.9-4.6-9.9-4.6
								c10.4-17.2,24.5-34.4,24.5-34.4c1.1-6.2,1.9-20,2.4-30.3c0-0.2,0-0.3,0-0.5c0.3-7,0.5-12.2,0.5-12.2l-4.9-10l30.9-11.4
								l6.9,8.9c0,0,1.6,1.5,4.1,3.8c0.1,0.1,0.2,0.2,0.3,0.3C278.7,214.1,299.4,233.9,299.4,236.7z"/>
							<g>
								<path class="st31" d="M231.5,226.4c0-0.2,0-0.3,0-0.5c6.5-3.5,5.4-9.2,5.4-9.2l0.4-0.1C237.4,216.6,238.5,222.7,231.5,226.4
									z"/>
								<path class="st31" d="M255.2,221.4c0.2,1.2,0.4,2.6,0.5,4h-0.1c0,0-0.1,0.5-0.3,1.3c-0.3-9.7-4.3-15.4-4.3-15.5l0.3-0.2
									c0,0,2.6,3.7,3.8,10c4.7-4.2,0.1-12.7,0-12.8l0.4-0.2C255.5,208,260.4,217,255.2,221.4z"/>
								<path class="st31" d="M269.4,205.3L269.4,205.3c-0.2,0.1-0.4,0.1-0.7,0.1c-2.3,0-6.1-3.2-6.3-3.3l0.3-0.3
									c1.2,1.1,4.7,3.6,6.3,3.2C269.2,205.1,269.3,205.2,269.4,205.3z"/>
							</g>
							<path class="st31" d="M229.3,150.5c0,0,9.4-1.5,14.1,1.5c4.7,3,10.9,10.8,10.9,10.8s-7.3,1-8.2,6
								C246.2,168.8,240.8,156,229.3,150.5z"/>
							<path class="st8" d="M215.2,155.4c-4,2.2-10.6,10.2-10.9,15.2c-0.3,4.8,3.3,9.3,5.7,13.1c7.5,11.8,15.5,22.3,18.9,36.1
								c0,0.1,17.3,6.9,37.5-17.4c0,0-11.4-15.4-15.4-28.5c-1.6-5.3-3.2-11-6.3-15.7c-3.4-5.2-9.2-8.2-15.3-7.7
								C224.2,150.9,219.1,153.2,215.2,155.4z"/>
							<path class="st26" d="M213.5,150.4c0,0,2.5,4.3,1.4,6.7c0,0,8.7,3,8.7-1.9c0,0-1.6-3.7-1-6L213.5,150.4z"/>
							<path class="st26" d="M232.9,180.2c0,0-4.9,1.4-6.1,3.1s-2.3,5.6-2.3,5.6h8.4l1.6-2.9l1.8-3.9L232.9,180.2z"/>
							<g>
								<path class="st28" d="M224.9,145.6c0,0,3.4-1.4,1.2-11.7c-1.5-6.8-3.6-7.8-4.9-7.9c0,0-1.7-2.5-7.4-1.3
									c-4,0.8-7.1,3.2-8.5,7.7c-1.5,4.6,1.5,14.6,5.3,15.6L224.9,145.6z"/>
								<path class="st27" d="M225.7,138.6c0,0,2.1-3,3,0c0.9,3.4-2,5.3-2.8,4.3C225,141.9,225.7,138.6,225.7,138.6z"/>
								<path class="st27" d="M207.7,141.8c0,0-3-2.1-2.8,0.9c0.2,3.5,3.6,4.4,4,3.2S207.7,141.8,207.7,141.8z"/>
								<path class="st27" d="M219,152.7c5.7-0.9,8.3-5.2,6.5-16.4c-1-5.8-4.5-8.8-10.9-7.8c-6.4,1.1-8.5,5-7.6,10.8
									C209,151.3,213.1,153.6,219,152.7z"/>
								<path class="st29" d="M209.6,143c0,0.6,0.6,1.1,1.3,1.1s1.3-0.5,1.3-1.1s-0.6-1.1-1.3-1.1
									C210.2,141.9,209.6,142.4,209.6,143z"/>
								<path class="st29" d="M221.4,141.4c0.1,0.6,0.8,0.9,1.5,0.7s1.2-0.8,1.1-1.3c-0.1-0.6-0.8-0.9-1.5-0.7
									C221.7,140.2,221.3,140.8,221.4,141.4z"/>
								<g>
									<path class="st30" d="M211.2,136.8c-0.1,0-0.1,0-0.2-0.1c-0.1-0.1-0.2-0.3-0.1-0.4c0.8-1.2,2.4-1.4,2.5-1.4
										c0.2,0,0.3,0.1,0.3,0.2c0,0.2-0.1,0.3-0.2,0.3c0,0-1.4,0.2-2.1,1.2C211.4,136.7,211.3,136.8,211.2,136.8z"/>
								</g>
								<g>
									<path class="st30" d="M222,135c-0.1,0-0.1,0-0.2-0.1c-0.9-0.7-2.3-0.4-2.3-0.4c-0.2,0-0.3-0.1-0.3-0.2
										c0-0.2,0.1-0.3,0.2-0.3c0.1,0,1.7-0.3,2.8,0.5c0.1,0.1,0.2,0.3,0.1,0.4C222.1,134.9,222.1,135,222,135z"/>
								</g>
								<path class="st30" d="M212.3,139.7c0.1,0.7,0.5,1.2,0.9,1.2c0.4-0.1,0.6-0.7,0.5-1.4s-0.5-1.2-0.9-1.2
									C212.4,138.4,212.1,139,212.3,139.7z"/>
								<path class="st30" d="M219.9,138.4c0.1,0.7,0.5,1.2,0.9,1.2c0.4-0.1,0.6-0.7,0.5-1.4s-0.5-1.2-0.9-1.2
									C220,137.1,219.8,137.7,219.9,138.4z"/>
								<path class="st25" d="M222.3,131.1c0,0-6.4,4.7-14.5,5l0.2,7.2c0,0-7.5-13.9,7.4-16.3c14.9-2.5,10.6,13.1,10.6,13.1
									S225.4,133.3,222.3,131.1z"/>
								<g>
									<path class="st29" d="M217,142.9v-0.6c0,0,0.9-0.1,1.1-0.6c0.1-0.2-0.3-0.9-0.6-1.5c-0.4-0.9-1-1.9-1.2-3.1l0.6-0.1
										c0.2,1.1,0.8,2.1,1.2,2.9c0.5,0.9,0.8,1.6,0.6,2.1C218.2,142.9,217,142.9,217,142.9z"/>
								</g>
								<path class="st37" d="M225.8,131.1c-10.8-4.7-21.1,5-21.1,5s-1.2-7.9,0.9-9.8c0.5-0.5,1.1-0.9,1.7-1.3
									c4.8-3,11.2-3,14.1-1.9c0.6,0.2,1.1,0.5,1.3,0.7C224.4,125.7,225.8,131.1,225.8,131.1z"/>
								<path class="st8" d="M224.4,129.3c0,0-9.1-1.8-17.6,3.8c0,0-0.5-5.1,0.5-8.1c4.8-3,11.2-3,14.1-1.9
									C223.1,125.1,224.4,129.3,224.4,129.3z"/>
								<path class="st39" d="M205.6,135.2c0,0,1.4-6.1,3.4-7.9c3.2-2.9,12.3-3.9,17.1-2.1c4.8,1.7,0,6.9,0,6.9
									S218.5,126.7,205.6,135.2z"/>
								<g>
									<path class="st33" d="M220.8,146.4c-0.4,0.3-0.9,0.5-1.6,0.6c-0.9,0.2-1.7,0.1-2.3,0c-2.1-0.5-2.6-2.3-2.6-2.3
										c0.2,0,0.3,0,0.5,0.1c2.1,0.2,5.2-0.6,6.5-0.9c0.4-0.1,0.6-0.2,0.6-0.2S222.1,145.4,220.8,146.4z"/>
									<path class="st34" d="M220.8,146.4c-0.4,0.3-0.9,0.5-1.6,0.6c-0.9,0.2-1.7,0.1-2.3,0c0.5-0.9,1.3-1.3,2.1-1.3
										C219.7,145.7,220.3,146,220.8,146.4z"/>
									<path class="st8" d="M221.3,143.8c-0.6,1.2-2,1.6-3.5,1.6c-1.1,0-2.2-0.3-3-0.7C217,144.9,220,144.2,221.3,143.8z"/>
								</g>
							</g>
							<path class="st27" d="M219.6,175.9c0,0,3.7,5.8,10.1,9.2c0,0,7.9-6.9,18.2-6.3c0,0-8.5,15.4-15.8,17.1
								c-3.8,0.9-17.7-8.3-17.7-8.3S217.1,177.8,219.6,175.9z"/>
							<path class="st31" d="M205.9,165.5c3.4-5.5,11.3,2.7,13.9,8.5c2.7,5.9,4.6,7.1,4.6,7.1s-7.8,3.3-7.8,9.2
								C216.7,190.3,198.5,177.6,205.9,165.5z"/>
							<path class="st26" d="M229.7,182.6c0,0,4.8-4.7,20.5-10.8l-2-6.4c1.8-2.4,5.1-2.4,5.1-2.4s8.1,11.4,6.7,14.8
								C259.1,179.9,242.3,182.1,229.7,182.6z"/>
							<path class="st27" d="M246.9,173.3c0,0,0.1-0.7,0.7-1.5s0.4-2.3,0.6-2.8s1.4-2.4,2.3-2.7c0.8-0.4,1.9-1,2.1,0.1
								c0.2,1-1.5,0.7-2.2,2.2c0,0,1.7-0.5,3-0.2s1.7,1.5,0.1,1.5c-1.3,0-3,0.9-3,0.9s1.7,0.3,1.4,1
								C251.5,172.9,249.4,172.2,246.9,173.3z"/>
						</g>
						<g>
							<path class="st45" d="M130.7,194.7c1.4,3.6,7.2,9.8,7.2,9.8s14.1-8.4,20.5-4.9c6.5,3.5,11.6,5.7,15.8,4.2
								s-13.8-34.4-13.8-34.4l-23.4-8.9c0,0-0.5,5.9-3.2,7s-5.5,10.8-5.3,12.7C128.7,182,130.7,194.7,130.7,194.7z"/>
							<path class="st26" d="M157,204.7c0,0-6,11.8-18.5,27c0,0-1.3,18-34.2,46.3l-3.4-2.7c0,0,19.6-30.7,23.5-40.1
								c3.9-9.4-2.2-18,15.9-41.9L157,204.7z"/>
							<path class="st36" d="M137.8,183.8c-5.2,9.9-6.9,22.7-6.9,22.7l-2.4,6c0,0,8.4,4.5,18.1,6.2l3.9-10.3L137.8,183.8z"/>
							<path class="st27" d="M164.9,203.7c0,0,2.6,13,2.1,32.6c0,0,10.1,14.9,1.8,57.6h-4.4c0,0-3.6-36.3-6.3-46.1
								c-2.7-9.8-12.9-12.8-13.4-42.7L164.9,203.7z"/>
							<g>
								<path class="st35" d="M167.4,217.7c0,0-8.2,1.5-22.8,0.8l-0.2-1.6l-0.1-0.4l-1.5-10.6c0,0-1.4-1.7-2.8-4.5
									c-0.2-0.3-0.3-0.7-0.5-1c-2-4.2-3.7-10.2-1.7-16.6l3.1,0.1h0.4l10.3,0.5h0.4l3.4,0.2h0.5l2.2,0.1c0,0,11.1,10,9.1,28.5
									l0.1,2.6v0.4L167.4,217.7z"/>
								<g>
									<path class="st36" d="M141.3,183.9c-0.3,0.8-2.2,7.1-1.2,17.4c-0.2-0.3-0.3-0.7-0.5-1c-0.7-9.4,1-15.3,1.3-16.4
										c0-0.1,0.1-0.2,0.1-0.2L141.3,183.9C141.3,183.8,141.3,183.9,141.3,183.9z"/>
									<path class="st36" d="M167.3,216.2c-2.9,0.7-7.9,1-12.6,1c-4.2,0-8.2-0.2-10.4-0.3l-0.1-0.4c3.7,0.2,13.4,0.6,19.7-0.1
										l-0.4-6.6c0.1-7.7-2.2-14.3-4.5-18.9c-5.7-1-7.3-5.3-7.6-6.5c0-0.2-0.1-0.3-0.1-0.3l0.4-0.1c0,0,0,0.2,0.1,0.4
										c0.4,1.2,1.9,4.9,6.9,6c-1.5-3-3-5-3.6-5.8c-0.2-0.2-0.3-0.4-0.3-0.4l0.3-0.3c0,0,0.2,0.2,0.5,0.7
										c1.9,2.6,8.3,12.3,8.2,25.1l0.4,6.6c1.1-0.1,2.1-0.3,2.9-0.5L167.3,216.2z"/>
								</g>
							</g>
							<path class="st44" d="M146.3,139.1c-3.3-1.8-26.9,7.4-26.9,7.4s-3.5,6.2-1.3,8.7c2.2,2.4,9.9,1.4,12.3,0
								c2.4-1.4,8.6-2.4,8.6-2.4L146.3,139.1z"/>
							<path class="st38" d="M167.2,119.5c0,0,4.9,1.9,6.7,7.5c1.8,5.6-3.5,19.8-1.7,26.4c1.8,6.5,1.6,18.9-4.2,21.5
								s-17.5-2.1-20.1-9.2c-2.5-7.1-1.4-34.1,3.4-43.3C156.2,113.2,166,117.8,167.2,119.5z"/>
							<path class="st44" d="M161.6,143.7c1.3,1.4,4.6-1.1,4.6-1.1s-0.1,12.2-3.6,13.2c-3.6,0.9-12.6-9.6-12.3-12.5
								S158.7,140.7,161.6,143.7z"/>
							<path class="st25" d="M147.9,140.7c0,0,3.6,3.1,9.9,4.5c6.3,1.5,9.7-1.5,12.9,2.5c4.8,6.1-3,17.3-7.1,23.1
								c-1.5,2.2-4.8,8.2-5.4,13.9c0,0-10.9,3.2-20.3-0.9l-0.7-13.4C137.1,170.4,131.2,152.4,147.9,140.7z"/>
							<path class="st44" d="M159.1,153.7c0,0,5-11.9,6.4-12.6c1.4-0.8,5.1,1.1,5.8,2.7c0.7,1.6,0,5.2,0,5.2
								S167.4,144.4,159.1,153.7z"/>
							<path class="st31" d="M182.9,203.7c-2.3,4.6-7.8,6-7.8,6s-0.4-0.6-1.1-1.8c-0.1-0.1-0.2-0.2-0.2-0.4
								c-4.4-7.1-17.7-29.7-17.4-41.5c0.3-14.1,9.5-21.8,9.5-21.8c4.7,1.1,6.1,2.4,6.1,2.4s1.6,8,0.1,17.6
								c-1.4,9.6-4.1,12.2-2.7,12.9c1.3,0.7,0,2.2,0,2.2s7.7,10.8,9.2,14.1c0.9,2.2,2.5,5.9,3.5,8.2c0.1,0.2,0.1,0.3,0.2,0.5
								C182.7,203.1,182.9,203.7,182.9,203.7z"/>
							<path class="st27" d="M169.5,146.6c0,0-5.5,4.1-2.3,10.4l15.4,15.9c-8.4,9-9.3,12.7-15.4,16.8l2.3,3.6
								c0,0,21.3-16.4,21.4-20.4C190.9,171.2,177.8,150.5,169.5,146.6z"/>
							<path class="st27" d="M166.9,189.7c0,0-2.9,0.3-4.8,0.8c-1.8,0.5-4.3,0.9-4.4,1.3c-0.1,0.4,4.1,0,4.1,0s-3.4,1.4-3.5,1.9
								s4.3-0.4,4.3-0.4s-2.8,1.7-2.6,2.2s3.6-0.7,3.6-0.7s-0.6,1.6-1.3,2.4c0,0,0.7,0.4,2-1.1s3.5-1,5.2-2.3
								C171.1,192.4,168.4,189.5,166.9,189.7z"/>
							<path class="st31" d="M151.2,142.6c0,0-4.2,2.7-6.9,9.3s-11.1,19-13,22.2c-2,3.2-0.6,20.6-0.6,20.6s-2.5-10.6-3.6-14.7
								c-1.1-4.1,3.5-14.3,4.2-14.8s4.3,0.4,3.6-3.7c-0.7-4.1,8.9-21.9,11.4-22.4C146.3,139.1,150.4,139.9,151.2,142.6z"/>
							<path class="st31" d="M138.1,143.5c-0.1,0.1-0.2,0.3-0.3,0.4c-1,1.4-2.7,2.5-2.7,2.5s-3.2,4.5-3.2,5c0,0.4-5.6,4.5-8.1,4.4
								l0,0c-0.3,0-0.6-0.1-0.8-0.3c-1.5-1.4,5-13,6.4-15.5c0.1-0.2,0.2-0.3,0.2-0.4c0-0.1,0.1-0.1,0.1-0.1s-1.1-4.2,3.6-3.4
								c3.9,0.6,4.7,3.8,5.1,5.9C138.5,142.5,138.4,143,138.1,143.5z"/>
							<path class="st27" d="M121.6,147.9c3.3-4.3,14.7-12.6,20.7-15l1.5,2.8c0,0-11.7,10.2-14.4,14.6c-2.7,4.4-6.1,6.2-9.4,4.7
								C116.8,153.6,120.9,148.8,121.6,147.9z"/>
							<path class="st44" d="M137,142.6l-0.6,0.7l-0.3,0.4l-1,1.2c0,0-2.6,3.1-2.5,4.4c0.1,0.9-4.9,4.9-8.7,6.6
								c-1.6,0.7-3,1-3.8,0.5c-2.8-1.6-2.2-6.5-0.6-9.7c1.4-2.9,7.5-6.6,9.1-7.5c0.2-0.1,0.3-0.2,0.4-0.2l0,0l0.6-2.3
								c0,0,2.1-1.3,3.8-0.5c0,0-3.7,0.2-3.1,1.6C130.8,139.2,136,142.6,137,142.6z"/>
							<g>
								<path class="st27" d="M150.4,130.8c-3.7,1.5-3.2,4.9-6.6,4.9c-2.1,0-2.4-2.4-2.4-2.4c1-2.1,1.6-5.6,1.7-7.3
									c0.1-1.7,0.7-1,0.7-1c0-0.2,0-0.3,0-0.5c0-1.1-0.3-1.9,0.5-1.5c0.8,0.5,1.1,3.7,1.1,3.7c0.7-4.7-0.3-5.3,0.5-4.9
									c1.1,0.6,1.1,4.7,1.1,4.8c0.9-2.7,0.6-4.3,1.3-3.6c0.6,0.6-0.3,5.6-0.7,7.4c-0.1,0.4-0.1,0.7-0.1,0.7
									C150.4,129.7,150.4,130.8,150.4,130.8z"/>
								<path class="st26" d="M147.6,130.4c-0.1,0.4-0.1,0.7-0.1,0.7s-1.4-0.1-2.4,1.3C145.1,132.4,145.4,130.5,147.6,130.4z"/>
								<path class="st26" d="M144,128.3c0-0.4,0.2-2.7-0.2-3.3c0-0.2,0-0.3,0-0.5C144.7,124.7,144.1,127.8,144,128.3z"/>
							</g>
							<path class="st44" d="M146.3,147.9c0,0,2.5-6.8,3.3-8.3s5-1.3,8.1-0.7c3.2,0.6,3.8,4.8,3.8,4.8S152,139.2,146.3,147.9z"/>
							<path class="st26" d="M162.6,134.5c0,0-3,5.6-3,11.7c0,0-4.9,3.3-6.7-0.8c0,0,1.9-5.5,1-12.8
								C153.3,127.6,162.6,134.5,162.6,134.5z"/>
							<g>
								<path class="st27" d="M152.9,126.8c0,0-0.9-3.2-2.5-0.9c-1.8,2.6,0,5.1,1,4.5C152.5,129.7,152.9,126.8,152.9,126.8z"/>
								<path class="st27" d="M167.2,135c0,0,3.2-0.9,2.1,1.6c-1.3,2.9-4.4,2.6-4.4,1.5C164.9,136.9,167.2,135,167.2,135z"/>
								<path class="st27" d="M154.2,140.7c-4.5-2.6-5.4-7-0.4-15.9c2.6-4.6,6.5-6.1,11.6-3.2s5.6,6.9,3.1,11.5
									C163.1,142.6,158.9,143.3,154.2,140.7z"/>
								<path class="st29" d="M165.2,135.4c-0.2,0.5-0.8,0.7-1.5,0.5c-0.6-0.2-1-0.8-0.8-1.3s0.8-0.7,1.5-0.5
									C165,134.3,165.3,134.9,165.2,135.4z"/>
								<path class="st29" d="M155.7,130.4c-0.3,0.4-1,0.5-1.5,0.1c-0.6-0.4-0.8-1-0.5-1.5c0.3-0.4,1-0.5,1.5-0.1
									C155.8,129.3,156,130,155.7,130.4z"/>
								<g>
									<path class="st30" d="M165.8,129.7c-0.1,0-0.2-0.1-0.3-0.2c-0.3-1-1.4-1.6-1.4-1.6c-0.1-0.1-0.2-0.2-0.1-0.4
										c0.1-0.1,0.2-0.2,0.4-0.1c0.1,0,1.3,0.7,1.7,1.9C166.1,129.5,166,129.6,165.8,129.7C165.9,129.7,165.8,129.7,165.8,129.7z"
										/>
								</g>
								<g>
									<path class="st30" d="M159.6,125.2h-0.1c0,0-1.1-0.7-2.1-0.4c-0.1,0-0.3,0-0.3-0.2c0-0.1,0-0.3,0.2-0.3
										c1.2-0.4,2.5,0.4,2.5,0.4c0.1,0.1,0.2,0.2,0.1,0.4C159.8,125.2,159.7,125.2,159.6,125.2z"/>
								</g>
								<path class="st30" d="M163.9,131.8c-0.3,0.6-0.8,0.9-1.1,0.7s-0.3-0.8,0-1.3c0.3-0.6,0.8-0.9,1.1-0.7
									C164.3,130.7,164.3,131.3,163.9,131.8z"/>
								<path class="st30" d="M157.6,128.4c-0.3,0.6-0.8,0.9-1.1,0.7c-0.3-0.2-0.3-0.8,0-1.3c0.3-0.6,0.8-0.9,1.1-0.7
									C157.9,127.2,157.9,127.8,157.6,128.4z"/>
								<path class="st30" d="M162.6,130.7c0,0,1.2-1.2,1.7-0.7c0.5,0.4,0.2,1.8,0.2,1.8h1l-0.9-0.3c0,0,0.3-1.5-0.3-1.8
									C163.6,129.2,162.6,130.7,162.6,130.7z"/>
								<path class="st30" d="M158.1,128.4c0,0,0.4-1.6-0.2-1.8c-0.6-0.2-1.7,0.7-1.7,0.7l-0.6-0.9l0.7,0.6c0,0,1.1-1,1.7-0.7
									C158.8,126.7,158.1,128.4,158.1,128.4z"/>
								<path class="st38" d="M166.6,123.5c0,0-1.6-2.3-3.9-0.5c-2.2,1.8-7.3,4.7-9.8,3.7c-2.5-0.9,5.4-11.6,12.3-8.5
									c6.9,3.1,6.3,13.2,3.4,16.4c-2.9,3.2-1.5,0.2-1.5,0.2s0.2-4.6,1.1-7.6C169.3,124.4,166.6,123.5,166.6,123.5z"/>
								<g>
									<path class="st29" d="M159,133.2c-0.1,0-0.3,0-0.4-0.1l0.1-0.5c0.5,0.1,0.7-0.1,0.8-0.3c0.2-0.3,0.1-0.6,0-0.7
										s-0.2-0.1-0.4,0l-0.3-0.5c0.6-0.3,0.9,0,1,0.1c0.3,0.3,0.3,0.9,0.1,1.4C159.8,133,159.4,133.2,159,133.2z"/>
								</g>
							</g>
							<g>
								<path class="st44" d="M192.2,172.2c-0.3,4-10.1,17-11.8,17.4c-0.4,0.1-0.9,0.4-1.3,0.6c-0.2,0.1-0.3,0.3-0.5,0.4
									c-0.9,0.8-1.6,1.6-1.6,1.6c-2.9-0.2-11-3.9-8.4-4.8c0.2,0,0.3-0.1,0.5-0.3c0.1-0.1,0.2-0.2,0.3-0.3c3.1-2.6,9-13,9.1-13.8
									c0-0.9,1.1-1,1.1-1s-5.6-8.2-8.9-9.2c-3.3-1-4.9-4.9-4.9-4.9c-3.2-13.6,6.1-11.5,6.1-11.5
									C178.8,150.7,192.5,168.2,192.2,172.2z"/>
								<g>
									<path class="st45" d="M179.1,190.3c-0.2,0.1-0.3,0.3-0.5,0.4c-4.4-0.3-8.1-2.5-9.5-3.4c0.1-0.1,0.2-0.2,0.3-0.3
										C170.9,188,174.7,190.1,179.1,190.3z"/>
								</g>
							</g>
							<g>
								<path class="st45" d="M138.1,143.5c-0.1,0.1-0.2,0.3-0.3,0.4c-0.6,0-1.2-0.1-1.8-0.2c-2.9-0.6-5.2-2.2-6.6-3.7
									c-0.3-0.3-0.6-0.6-0.9-0.9c0.2-0.1,0.3-0.2,0.4-0.2c0.2,0.2,0.5,0.5,0.7,0.8c1.5,1.4,3.7,3.1,6.7,3.7
									C136.9,143.5,137.5,143.5,138.1,143.5z"/>
							</g>
							<g>
								<path class="st45" d="M182.3,202.1c-1.4,2.3-3.9,5.1-8.2,5.8c-0.1-0.1-0.2-0.2-0.2-0.4c4.5-0.7,7-3.6,8.3-5.9
									C182.1,201.8,182.2,202,182.3,202.1z"/>
							</g>
							<g>
								<path class="st8" d="M107.4,277c0,0-1,1-2.1,2.9s0.1,3.6-5.1,7.9c0,0-10.4-6.1-15.1-14c0,0,0.1-2.2,2.4-2.8
									c1.2-0.3,4.6,1.3,7.8,1.9c0.5,0.1,0.9,0.2,1.4,0.2c0.6,0,1.1,0.1,1.7,0c0.5,0,1-0.2,1.4-0.3l0,0c1.1-0.5,2-1.3,2.4-2.9
									c0,0,2.8,1.6,0.9,4.3C103.1,274,106.4,272.6,107.4,277z"/>
								<path class="st31" d="M100.3,287.7c0,0-10.4-6.1-15.1-14c0,0,1.8-0.4,3.2,2.2C89.8,278.6,101.1,284.5,100.3,287.7z"/>
								<path class="st31" d="M100.3,275.3c-0.8,1.3-0.8-1.1-2-2.3c0.5,0,1-0.2,1.4-0.3l0,0C100.2,273.3,101,274.3,100.3,275.3z"/>
								<path class="st31" d="M97,275.4c-0.9,0.8-1.2-1.4-1.7-2.5c0.5,0.1,0.9,0.2,1.4,0.2C97.2,273.8,97.7,274.8,97,275.4z"/>
							</g>
							<g>
								<path class="st8" d="M171.6,304.1h-14.8c0,0-0.6-2.1,0-4.3c0.3-1,1.8-1.9,3.2-3.2c0.4-0.4,0.8-0.7,1.1-1.1
									c0.3-0.3,0.5-0.7,0.7-1.1c0.3-0.5,0.5-1,0.6-1.5c0.2-1.1,0.1-2.4-0.5-4c0,0,5-1.1,6.8,1.7c0,0,0.2-1.3,1.8-0.4
									c0,0-0.2,2.5,0.1,4.7C171,296.9,173,297.5,171.6,304.1z"/>
								<path class="st31" d="M167.8,295.2c-0.1,0.1-0.3,0.2-0.5,0.2s-0.3,0-0.4-0.1c-0.8-0.6-2.5-1.6-4.9-0.9
									c0.3-0.5,0.5-1,0.6-1.5c1-0.4,2.8-0.6,5.1,1.4C168,294.5,168,294.9,167.8,295.2z"/>
								<path class="st31" d="M166.5,297.6l-0.1,0.1c-0.2,0.3-0.6,0.4-0.9,0.2c-1-0.6-3.3-1.7-5.5-1.4c0.4-0.4,0.8-0.7,1.1-1.1
									c1.1-0.3,3.2-0.4,5.2,1.3C166.6,297,166.7,297.3,166.5,297.6z"/>
							</g>
							<g>
								<path class="st33" d="M161.2,135.8c0,0-0.7,1.6-2.4,1.9c-0.7,0.1-1.5,0-2.5-0.5c-0.7-0.4-1.2-0.8-1.5-1.2
									c-1-1.5-0.2-3.2-0.2-3.2s0.1,0.1,0.4,0.3c0.9,0.6,3.5,2.4,5.7,2.7C160.9,135.8,161.1,135.8,161.2,135.8z"/>
								<path class="st8" d="M160.7,135.7c-0.4,0.2-0.9,0.3-1.5,0.3h-0.1c-2,0-3.6-1.1-4.1-3C155.9,133.7,158.5,135.4,160.7,135.7z"
									/>
								<path class="st34" d="M158.8,137.7c-0.7,0.1-1.5,0-2.5-0.5c-0.7-0.4-1.2-0.8-1.5-1.2c0.3-0.1,0.6-0.2,1-0.2
									C157,135.8,158.4,136.6,158.8,137.7z"/>
							</g>
						</g>
					</g>
				</g>
			</g>
			<g>
				<defs>
					<path id="SVGID_00000154415121839167615290000014671470203799529860_" d="M215.4,304.8h-56.1c-69.1,0-125.6-56.5-125.6-125.6
						V41.6h125.6h56.1c69.1,0,125.6,56.5,125.6,125.6v137.5L215.4,304.8L215.4,304.8z"/>
				</defs>
				<clipPath id="SVGID_00000141419619739292041070000014071561883508531334_">
					<use xlink:href="#SVGID_00000154415121839167615290000014671470203799529860_"  style="overflow:visible;"/>
				</clipPath>
			</g>
		</g>
	</g>
</g>
</svg>
