<?xml version="1.0" encoding="utf-8"?>
<!-- Generator: Adobe Illustrator 27.5.0, SVG Export Plug-In . SVG Version: 6.00 Build 0)  -->
<svg version="1.1" id="_圖層_2" xmlns="http://www.w3.org/2000/svg" xmlns:xlink="http://www.w3.org/1999/xlink" x="0px" y="0px"
	 width="391.2px" height="391.2px" viewBox="0 0 391.2 391.2" style="enable-background:new 0 0 391.2 391.2;" xml:space="preserve"
	>
<style type="text/css">
	.st0{fill:#A6D11F;}
	.st1{opacity:0.1;enable-background:new    ;}
	.st2{opacity:0.15;fill:#FFFFFF;enable-background:new    ;}
	.st3{clip-path:url(#SVGID_00000176726953627645665410000008588497111556309127_);}
	.st4{fill:#A6EFF0;}
	.st5{clip-path:url(#SVGID_00000137853618686215189990000000504416342814976946_);}
	.st6{fill:#00504D;}
	.st7{opacity:0.5;fill:#FFFFFF;}
	.st8{opacity:0.72;}
	.st9{fill:#7AC032;}
	.st10{fill:#BFCA4F;}
	.st11{fill:none;stroke:#FFFFFF;stroke-width:1.9504;stroke-miterlimit:10;}
	.st12{opacity:0.14;fill:#003C6F;}
	.st13{fill:#007B56;}
	.st14{fill:#303D5C;}
	.st15{fill:#FF7B0F;}
	.st16{fill:#FF591C;}
	.st17{fill:#F493B2;}
	.st18{opacity:0.42;fill:#733853;}
	.st19{opacity:0.29;fill:#2E756E;}
	.st20{fill:#FFBC51;}
	.st21{fill:none;stroke:#FF7B0F;stroke-width:0.6501;stroke-miterlimit:10;}
	.st22{fill:#FFFFFF;}
	.st23{fill:#00976B;}
	.st24{opacity:0.52;fill:#2E756E;}
	.st25{clip-path:url(#SVGID_00000164487518553019781470000004564936278860481451_);}
	.st26{clip-path:url(#SVGID_00000072280790477813269150000003822431874854525617_);}
	.st27{fill:#FBA13B;}
	.st28{fill:#FF8533;}
	.st29{fill:none;stroke:#303D5C;stroke-width:0.6501;stroke-miterlimit:10;}
	.st30{fill:#FFB3C2;}
	.st31{fill:#E47B8C;}
	.st32{fill:none;stroke:#FFCDDA;stroke-width:0.6501;stroke-linecap:round;stroke-miterlimit:10;}
	.st33{clip-path:url(#SVGID_00000007427964014819715350000008444696188238365631_);}
	.st34{fill:none;stroke:#D2D2D2;stroke-width:0.6501;stroke-miterlimit:10;}
	.st35{opacity:0.58;fill:#FFFFFF;stroke:#FC5145;stroke-width:0.6501;stroke-miterlimit:10;}
	.st36{fill:#006867;}
	.st37{opacity:0.6;fill:#5C96AB;}
	.st38{opacity:0.6;fill:none;stroke:#5C96AB;stroke-width:0.6501;stroke-miterlimit:10;}
	.st39{fill:#724FA5;}
	.st40{fill:#5B3E92;}
	.st41{fill:#34337D;}
	.st42{fill:#8569B6;}
	.st43{fill:#FF2E1D;}
	.st44{fill:#E6261C;}
	.st45{opacity:0.22;fill:#5C96AB;}
	.st46{fill:#FFBC41;}
	.st47{fill:#00546E;}
	.st48{fill:#E8EAEB;}
	.st49{fill:#CBD3D8;}
	.st50{fill:none;stroke:#C02320;stroke-width:0.6501;stroke-miterlimit:10;}
	.st51{fill:#C02320;}
	.st52{opacity:0.6;fill:#003C6F;}
	.st53{fill:#4C4C4C;}
	.st54{fill:#004454;}
	.st55{opacity:0.32;fill:#5C96AB;}
	.st56{fill:#F37F84;}
	.st57{fill:#FFAEA5;}
	.st58{fill:none;stroke:#F37F84;stroke-width:0.6501;stroke-miterlimit:10;}
	.st59{fill:none;stroke:#F15D78;stroke-width:0.6501;stroke-miterlimit:10;}
	.st60{opacity:0.6;fill:#FFBC51;}
	.st61{fill:none;stroke:#F15D78;stroke-width:0.1625;stroke-miterlimit:10;}
	.st62{fill:none;stroke:#FFFFFF;stroke-width:0.6501;stroke-linecap:round;stroke-miterlimit:10;}
	.st63{fill:#00B2C6;}
	.st64{fill:#00D6D8;}
	.st65{opacity:0.25;fill:#5C96AB;}
	.st66{fill:none;stroke:#F37F84;stroke-width:0.4876;stroke-miterlimit:10;}
	.st67{fill:none;stroke:#F15D78;stroke-width:0.4876;stroke-miterlimit:10;}
	.st68{fill:#557E97;}
	.st69{fill:#5C96AB;}
	.st70{fill:#D9DADB;}
	.st71{fill:#004B47;}
	.st72{fill:#FFC0A6;}
</style>
<g id="_第一cut">
	<g>
		<g>
			<path class="st0" d="M0,0v176.6c0,78.9,73.3,142.8,163.8,142.8h202.5V142.8C366.3,64,292.9,0,202.5,0H0z"/>
			<path class="st1" d="M0,64.4v112.2c0,78.9,73.3,142.8,163.8,142.8h202.5v-4.3C185.5,266.4,64,145.2,0,64.4z"/>
			<path class="st2" d="M0,0v3.4c57.5,9.7,239.4,51.8,366.3,208.9v-69.5C366.3,64,292.9,0,202.5,0H0z"/>
		</g>
		<rect x="365.7" y="116.2" class="st0" width="25.5" height="275"/>
	</g>
</g>
<g>
	<g>
		<g>
			<path class="st0" d="M0.1,0.1v180.3c0,80.5,78.1,145.8,174.4,145.8h215.6V145.9C390.1,65.4,312,0.1,215.7,0.1H0.1z"/>
		</g>
	</g>
	<path class="st1" d="M0.1,65.9v114.5c0,80.5,78.1,145.8,174.4,145.8h215.6v-4.4C197.6,272.1,68.2,148.4,0.1,65.9z"/>
	<path class="st2" d="M0.1,0.1v3.4C61.4,13.4,255,56.4,390.2,216.9V146c0-80.5-78.1-145.8-174.4-145.8L0.1,0.1L0.1,0.1z"/>
</g>
<g>
	<g>
		<rect x="365" y="116.2" class="st0" width="25.5" height="275"/>
	</g>
</g>
<g>
	<g>
		<g>
			<g>
				<g>
					<g>
						<defs>
							<path id="SVGID_1_" d="M224.2,292.8H166c-71.8,0-130.5-55.1-130.5-122.5V36.1H166h58.2c71.8,0,130.5,55.1,130.5,122.5v134.1
								L224.2,292.8L224.2,292.8z"/>
						</defs>
						<clipPath id="SVGID_00000137815593508128007190000013943432286919484310_">
							<use xlink:href="#SVGID_1_"  style="overflow:visible;"/>
						</clipPath>
						<g style="clip-path:url(#SVGID_00000137815593508128007190000013943432286919484310_);">
							<rect x="32.6" y="-5.7" class="st4" width="325.1" height="325.1"/>
							<g>
								<defs>
									<rect id="SVGID_00000017481379898384874380000007465998157685692330_" x="32.6" y="-5.7" width="325.1" height="325.1"/>
								</defs>
								<clipPath id="SVGID_00000034069095407635354940000012987201148452761782_">
									<use xlink:href="#SVGID_00000017481379898384874380000007465998157685692330_"  style="overflow:visible;"/>
								</clipPath>
								<g style="clip-path:url(#SVGID_00000034069095407635354940000012987201148452761782_);">
									<ellipse class="st6" cx="71.4" cy="166.8" rx="52.5" ry="26.6"/>
									<g>
										<g>
											<path class="st7" d="M130.3,156L98.5,86V61.1c3.1-1.3,5-3,5-4.8c0-3.9-8.2-7-18.2-7s-18.2,3.1-18.2,7
												c0,1.9,1.9,3.6,5,4.8V86l-31.8,70c-6.4,14,1.4,30.4,16.3,34.2c6.8,1.7,15.8,2.7,28.7,2.7c12.9,0,21.9-0.9,28.7-2.7
												C128.9,186.4,136.7,170,130.3,156z"/>
											<g class="st8">
												<path class="st9" d="M110.7,186c-6,1.5-14,2.4-25.4,2.4c-11.4,0-19.4-0.8-25.4-2.4c-13.2-3.4-20.1-17.9-14.5-30.3
													L57,130.3h56.6l11.5,25.4C130.8,168.1,123.9,182.6,110.7,186z"/>
												<ellipse class="st10" cx="85.3" cy="130.9" rx="28.3" ry="10.9"/>
											</g>
											<ellipse class="st11" cx="85.3" cy="55.6" rx="14.9" ry="5.2"/>
										</g>
										<polyline class="st11" points="94.1,63.9 94.1,87.3 97.7,101.5 										"/>
										<g>
											<line class="st11" x1="67.1" y1="116.7" x2="77.3" y2="118.4"/>
											<line class="st11" x1="64.2" y1="124.8" x2="74.4" y2="126.5"/>
											<line class="st11" x1="61.4" y1="132.9" x2="71.6" y2="134.6"/>
											<line class="st11" x1="58.5" y1="140.9" x2="68.7" y2="142.7"/>
											<line class="st11" x1="55.7" y1="149" x2="65.9" y2="150.8"/>
											<line class="st11" x1="52.8" y1="157.1" x2="63" y2="158.9"/>
											<line class="st11" x1="50" y1="165.2" x2="60.2" y2="167"/>
										</g>
										<path class="st12" d="M75.3,62.3v25.9l-25.8,71.4c-2.3,10.8,1.9,22.6,10.4,29.5c3.8,0.4,7.8-0.2,11.6,0.1
											c-3.1-16.3,0.4-33.3,3.7-49.5C78.5,124,83.8,91,83.8,91V63.6C80.5,63.9,77.8,63.3,75.3,62.3z"/>
									</g>
								</g>
							</g>
							<g>
								<g>
									<ellipse class="st13" cx="315.9" cy="106.3" rx="33.3" ry="12.8"/>
								</g>
								<g>
									<path class="st9" d="M315.9,96.8c18,0,30,5.7,30,9.5c0,3.8-12,9.5-30,9.5c-18,0-30-5.7-30-9.5
										C285.9,102.5,297.9,96.8,315.9,96.8L315.9,96.8z M315.9,93.5c-18.4,0-33.3,5.7-33.3,12.8s14.9,12.8,33.3,12.8
										c18.4,0,33.3-5.7,33.3-12.8S334.3,93.5,315.9,93.5L315.9,93.5z"/>
								</g>
								<g>
									<path class="st14" d="M272.2,88.1c0.2,1.7,0.5,3.3,1,4.8c0.6,1.5,1.7,3,3.2,3.6c2.1,0.8,4.4-0.1,6.4-0.9
										c2.3-1,5-2.3,5.4-4.8c0.4-2-0.8-3.8-1.9-5.5c-3.9-5.9-7.9-11.9-11.8-17.8c-1.2-1.8-4-6.8-3.7-1.9c0,4.8,0.4,9.5,0.8,14.3
										C271.9,82.4,271.9,85.3,272.2,88.1z"/>
									<g>
										<path class="st14" d="M297.4,126.6L293,106c-0.4-2-0.9-4.2-2.2-5.7c-1.1-1.2-2.9-1.9-4.7-2.6c-0.6-0.2-1.1-0.4-1.7-0.7
											c-3.8-1.6-6-4.1-6.1-7l3.2-0.2c0.1,2.3,3.2,3.7,4.1,4.1c0.5,0.2,1.1,0.4,1.6,0.6c2.1,0.8,4.3,1.6,6,3.4
											c1.9,2.1,2.5,4.9,3,7.2l4.4,20.7L297.4,126.6z"/>
									</g>
								</g>
								<g>
									<g>
										<polygon class="st15" points="327.6,74.7 326.8,81 326.4,84 318.7,142.9 317.2,142.7 316.1,142.6 313.7,142.3 
											311.1,141.9 318.7,83 319.1,80 319.9,73.7 322.5,74 325,74.3 325.6,74.4 										"/>
										
											<rect x="318.1" y="73.9" transform="matrix(0.9917 0.1288 -0.1288 0.9917 16.6147 -40.2387)" class="st16" width="2.5" height="68.9"/>
										<path class="st17" d="M327.6,74.7l-0.8,6.3l-0.4,3c-0.3-0.5-0.7-0.9-1-1.3c0,0,0,0,0,0c-0.2-0.3-0.5-0.5-0.7-0.7
											c-0.2-0.2-0.4-0.3-0.6-0.4c-0.8-0.5-1.7-0.6-2.5-0.4c-0.8,0.2-1.5,0.6-2.3,1.3c-0.2,0.2-0.4,0.3-0.6,0.5l0.4-3l0.8-6.3
											c1-2.3,4-2.8,5.9-1.6C326.8,72.6,327.4,73.4,327.6,74.7z"/>
										<path class="st14" d="M326.8,81l-0.4,3c-0.2-0.5-0.6-0.9-1-1.3c0,0,0,0,0,0c-0.2-0.2-0.5-0.3-0.7-0.4
											c-0.2-0.1-0.4-0.2-0.6-0.2c-0.8-0.3-1.7-0.4-2.5-0.3c-0.8,0.1-1.6,0.3-2.2,0.7c-0.2,0.2-0.4,0.3-0.6,0.5l0.4-3
											c0.5-0.7,1.6-1.1,2.8-1.1c0.8-0.1,1.7,0,2.5,0.3c0.2,0.1,0.4,0.1,0.6,0.2C325.8,79.7,326.5,80.3,326.8,81z"/>
									</g>
									<path class="st18" d="M327.6,74.7l-0.8,6.3l-0.4,3l-7.7,58.9l-1.5-0.2l7.4-60.5l0-0.2l0.3-2.7l0.6-4.9l0.3-2.4
										C326.8,72.6,327.4,73.4,327.6,74.7z"/>
								</g>
								<g>
									<polygon class="st16" points="340.3,92.5 339.1,101 334.9,130.4 327.8,129.4 332.2,99.4 333.3,91.5 									"/>
									<path class="st19" d="M340.3,92.5l-1.2,8.5c-2.4-0.2-4.7-0.7-6.9-1.6l1.2-7.9L340.3,92.5z"/>
									
										<rect x="328.3" y="66.7" transform="matrix(0.9897 0.1431 -0.1431 0.9897 14.5504 -47.7041)" class="st20" width="21.3" height="21.3"/>
									<path class="st16" d="M338.8,95.2l-4.7-0.7c-4.5-0.7-7.6-4.8-7-9.3l0.4-2.6l21,3l-0.4,2.6
										C347.4,92.7,343.3,95.9,338.8,95.2z"/>
									<g>
										<line class="st21" x1="331.9" y1="65.6" x2="329.6" y2="81.4"/>
										<line class="st21" x1="334" y1="65.9" x2="331.8" y2="81.7"/>
										<line class="st21" x1="336.2" y1="66.2" x2="333.9" y2="82"/>
										<line class="st21" x1="338.3" y1="66.5" x2="336" y2="82.3"/>
										<line class="st21" x1="340.5" y1="66.8" x2="338.2" y2="82.6"/>
										<line class="st21" x1="342.6" y1="67.1" x2="340.3" y2="83"/>
										<line class="st21" x1="344.7" y1="67.4" x2="342.5" y2="83.3"/>
										<line class="st21" x1="346.9" y1="67.7" x2="344.6" y2="83.6"/>
										<line class="st21" x1="349" y1="68" x2="346.7" y2="83.9"/>
									</g>
								</g>
								<g>
									<path class="st22" d="M313.9,122.1l-7.5,0.8l-0.8,0.1l-3.4,0.3l-4.1,0.4l-5.1-50.5c-0.2-1.7,0-3.3,0.5-4.8
										c0.8-2.4,1.7-4.7,2.7-7c0.4-0.9,0.9-1.9,1.4-2.8c0.3-0.5,0.7-1.4,1.1-2c0.1-0.2,0.3-0.3,0.4-0.4c0.8-0.5,1.7,1.3,2.2,1.9
										c0.7,0.9,1.4,1.9,2.1,2.8c1.4,1.9,2.7,3.9,3.9,6c0.8,1.4,1.3,3,1.4,4.6L313.9,122.1z"/>
									<path class="st19" d="M302.1,123.2l-4.1,0.4l-5.1-50.5c-0.2-1.7,0-3.3,0.5-4.8c0.8-2.4,1.7-4.7,2.7-7
										c0.4-0.9,0.9-1.9,1.4-2.8c0.3-0.5,0.7-1.4,1.1-2l-1.4,13.8c-0.1,1-0.1,2.1,0,3.1L302.1,123.2z"/>
								</g>
								<g>
									<path class="st9" d="M349.2,106.1h-3.3c0,0.1,0,0.1,0,0.2c0,3.8-12,9.5-30,9.5s-30-5.7-30-9.5c0-0.1,0-0.1,0-0.2h-3.3
										c0,0.1,0,0.1,0,0.2c0,7.1,14.9,12.8,33.3,12.8c18.4,0,33.3-5.7,33.3-12.8C349.2,106.2,349.2,106.2,349.2,106.1z"/>
								</g>
								<path class="st23" d="M349.2,107.2v104.5H349c-0.3,6.9-15.1,12.5-33.2,12.5c-1.6,0-3.3,0-4.8-0.1c-4.2-0.2-8.2-0.8-11.8-1.6
									c-9.8-2.2-16.4-6.2-16.6-10.8h-0.1V107.2h0.3c0.8,4.3,7.2,8.1,16.4,10.2c3.6,0.8,7.5,1.4,11.8,1.6c1.6,0.1,3.3,0.1,5,0.1
									C333.5,119.1,347.9,113.8,349.2,107.2L349.2,107.2z"/>
								<path class="st24" d="M299.2,117.3v105.2c-9.8-2.2-16.4-6.2-16.6-10.8h-0.1V107.2h0.3C283.5,111.5,289.9,115.3,299.2,117.3z
									"/>
							</g>
							<g>
								<defs>
									<rect id="SVGID_00000144320603296655678980000000741383525029508239_" x="32.6" y="-5.7" width="325.1" height="325.1"/>
								</defs>
								<clipPath id="SVGID_00000166668330635029444590000012767664890329189266_">
									<use xlink:href="#SVGID_00000144320603296655678980000000741383525029508239_"  style="overflow:visible;"/>
								</clipPath>
								<g style="clip-path:url(#SVGID_00000166668330635029444590000012767664890329189266_);">
									<defs>
										<rect id="SVGID_00000021116253864881504570000004229268006201615026_" x="32.6" y="-5.7" width="325.1" height="325.1"/>
									</defs>
									<clipPath id="SVGID_00000066515440764515558190000000124663563884393393_">
										<use xlink:href="#SVGID_00000021116253864881504570000004229268006201615026_"  style="overflow:visible;"/>
									</clipPath>
									<g style="clip-path:url(#SVGID_00000066515440764515558190000000124663563884393393_);">
										<path class="st6" d="M219.3,297.6l80.7,43.1l38.9-75.8L219.3,297.6z M287.3,317.6l-28.6-15.3l42.8-12.3L287.3,317.6z
											 M301.4,290l0.9-1.9l0.1,0L301.4,290z"/>
										<g>
											<path class="st27" d="M220.9,294.7l79.6,40.9l38.3-71.7L220.9,294.7z M288.5,314.7L261.6,301l-2.6-1.3l43.6-11.5
												l-4.1,7.8L288.5,314.7z"/>
											<polygon class="st28" points="315.9,278 305.7,294.9 298.5,295.9 302.7,288.2 259.1,299.6 261.6,301 248.9,302 
												244.9,293.6 											"/>
											<path class="st20" d="M222.3,294.8l75.6,38.8l36.4-68.3L222.3,294.8z M285.9,312.8l-29.4-15.1l43.6-11.5L285.9,312.8z"/>
											<g>
												<line class="st29" x1="332.6" y1="273.8" x2="326.5" y2="271.7"/>
												<line class="st29" x1="331" y1="276.8" x2="327.5" y2="275.7"/>
												<line class="st29" x1="329.3" y1="279.9" x2="325.9" y2="278.7"/>
												<line class="st29" x1="327.6" y1="282.9" x2="324.2" y2="281.8"/>
												<line class="st29" x1="326" y1="286" x2="319.8" y2="283.9"/>
												<line class="st29" x1="324.3" y1="289.1" x2="320.9" y2="287.9"/>
												<line class="st29" x1="322.6" y1="292.1" x2="319.2" y2="291"/>
												<line class="st29" x1="320.9" y1="295.2" x2="317.5" y2="294"/>
												<line class="st29" x1="319.3" y1="298.2" x2="313.1" y2="296.1"/>
												<line class="st29" x1="317.6" y1="301.3" x2="314.2" y2="300.1"/>
												<line class="st29" x1="315.9" y1="304.4" x2="312.5" y2="303.2"/>
												<line class="st29" x1="314.3" y1="307.4" x2="310.9" y2="306.2"/>
												<line class="st29" x1="312.6" y1="310.5" x2="306.5" y2="308.4"/>
												<line class="st29" x1="310.9" y1="313.5" x2="307.5" y2="312.4"/>
												<line class="st29" x1="309.3" y1="316.6" x2="305.8" y2="315.4"/>
												<line class="st29" x1="307.6" y1="319.7" x2="304.2" y2="318.5"/>
												<line class="st29" x1="305.9" y1="322.7" x2="299.8" y2="320.6"/>
												<line class="st29" x1="304.3" y1="325.8" x2="300.8" y2="324.6"/>
												<line class="st29" x1="302.6" y1="328.8" x2="299.2" y2="327.7"/>
											</g>
											<g>
												<line class="st29" x1="243.2" y1="289.3" x2="245.4" y2="294.3"/>
												<line class="st29" x1="247.2" y1="288.3" x2="248.4" y2="291.1"/>
												<line class="st29" x1="251.2" y1="287.2" x2="252.4" y2="290"/>
												<line class="st29" x1="255.2" y1="286.1" x2="256.4" y2="288.9"/>
												<line class="st29" x1="259.2" y1="285.1" x2="261.3" y2="290.1"/>
												<line class="st29" x1="263.2" y1="284" x2="264.4" y2="286.8"/>
												<line class="st29" x1="267.2" y1="283" x2="268.4" y2="285.8"/>
												<line class="st29" x1="271.2" y1="281.9" x2="272.4" y2="284.7"/>
												<line class="st29" x1="275.2" y1="280.9" x2="277.3" y2="285.9"/>
												<line class="st29" x1="279.2" y1="279.8" x2="280.4" y2="282.6"/>
												<line class="st29" x1="283.2" y1="278.8" x2="284.3" y2="281.6"/>
												<line class="st29" x1="287.2" y1="277.7" x2="288.3" y2="280.5"/>
												<line class="st29" x1="291.1" y1="276.6" x2="293.3" y2="281.7"/>
												<line class="st29" x1="295.1" y1="275.6" x2="296.3" y2="278.4"/>
												<line class="st29" x1="299.1" y1="274.5" x2="300.3" y2="277.3"/>
												<line class="st29" x1="303.1" y1="273.5" x2="304.3" y2="276.3"/>
												<line class="st29" x1="307.1" y1="272.4" x2="309.2" y2="277.4"/>
												<line class="st29" x1="311.1" y1="271.4" x2="312.3" y2="274.2"/>
												<line class="st29" x1="315.1" y1="270.3" x2="316.3" y2="273.1"/>
											</g>
											<g>
												<line class="st29" x1="290.3" y1="328.9" x2="293.9" y2="324.5"/>
												<line class="st29" x1="287.1" y1="327.2" x2="289.1" y2="324.8"/>
												<line class="st29" x1="283.9" y1="325.6" x2="285.9" y2="323.1"/>
												<line class="st29" x1="280.6" y1="323.9" x2="282.7" y2="321.5"/>
												<line class="st29" x1="277.4" y1="322.3" x2="281.1" y2="317.9"/>
												<line class="st29" x1="274.2" y1="320.6" x2="276.3" y2="318.2"/>
												<line class="st29" x1="271" y1="319" x2="273" y2="316.5"/>
												<line class="st29" x1="267.8" y1="317.3" x2="269.8" y2="314.9"/>
												<line class="st29" x1="264.6" y1="315.7" x2="268.2" y2="311.2"/>
												<line class="st6" x1="263.4" y1="311.6" x2="261.4" y2="314"/>
												<line class="st29" x1="258.2" y1="312.4" x2="260.2" y2="309.9"/>
												<line class="st29" x1="255" y1="310.7" x2="257" y2="308.3"/>
												<line class="st29" x1="251.7" y1="309.1" x2="255.4" y2="304.6"/>
												<line class="st29" x1="248.5" y1="307.4" x2="250.6" y2="305"/>
												<line class="st29" x1="245.3" y1="305.8" x2="247.3" y2="303.3"/>
												<line class="st29" x1="242.1" y1="304.1" x2="244.1" y2="301.7"/>
												<line class="st29" x1="238.9" y1="302.5" x2="242.5" y2="298"/>
												<line class="st29" x1="235.7" y1="300.8" x2="237.7" y2="298.4"/>
												<line class="st29" x1="232.5" y1="299.2" x2="234.5" y2="296.7"/>
											</g>
										</g>
									</g>
								</g>
								<g style="clip-path:url(#SVGID_00000166668330635029444590000012767664890329189266_);">
									<path class="st6" d="M191.5,321.3l-29.5-14l27.5-10.1c6.9-2.5,14.3-2.2,21.1,1l8.5,4c3.4,1.6,3.2,7.7-0.3,9L191.5,321.3z"
										/>
									<g>
										<path class="st17" d="M196.8,321l-26.5-11.6l24.8-8.3c6.2-2.1,12.9-1.8,19,0.9l7.6,3.3c3.1,1.3,2.9,6.4-0.3,7.4L196.8,321
											z"/>
										<rect x="183.8" y="297.2" class="st17" width="40.1" height="11.8"/>
										<path class="st30" d="M196.8,309.3l-26.5-11.6l24.8-8.3c6.2-2.1,12.9-1.8,19,0.9l7.6,3.3c3.1,1.3,2.9,6.4-0.3,7.4
											L196.8,309.3z"/>
										<polygon class="st31" points="170.2,297.7 170.2,309.4 196.8,321 196.8,309.3 										"/>
									</g>
									<line class="st32" x1="196.8" y1="309.3" x2="222" y2="300.8"/>
								</g>
								<g style="clip-path:url(#SVGID_00000166668330635029444590000012767664890329189266_);">
									<defs>
										<rect id="SVGID_00000048482136433547403880000005855495459746732461_" x="32.6" y="-5.7" width="325.1" height="325.1"/>
									</defs>
									<clipPath id="SVGID_00000056429887138425950320000004533659172590804370_">
										<use xlink:href="#SVGID_00000048482136433547403880000005855495459746732461_"  style="overflow:visible;"/>
									</clipPath>
									<g style="clip-path:url(#SVGID_00000056429887138425950320000004533659172590804370_);">
										<polygon class="st6" points="77.6,332.7 1,289.7 101.7,243.5 178.3,286.5 										"/>
										<g>
											<polygon class="st22" points="78.1,329.3 1.3,287.5 101.7,243.5 178.5,285.3 											"/>
											<line class="st34" x1="92.1" y1="247.8" x2="168.9" y2="289.6"/>
											<line class="st34" x1="85.2" y1="250.8" x2="162" y2="292.6"/>
											<line class="st34" x1="78.3" y1="253.8" x2="155.1" y2="295.6"/>
											<line class="st34" x1="71.4" y1="256.8" x2="148.3" y2="298.6"/>
											<line class="st34" x1="64.6" y1="259.8" x2="141.4" y2="301.6"/>
											<line class="st34" x1="57.7" y1="262.8" x2="134.5" y2="304.6"/>
											<line class="st34" x1="50.8" y1="265.8" x2="127.6" y2="307.6"/>
											<line class="st34" x1="43.9" y1="268.8" x2="120.7" y2="310.6"/>
											<line class="st34" x1="37" y1="271.8" x2="113.9" y2="313.6"/>
											<line class="st34" x1="30.2" y1="274.9" x2="107" y2="316.6"/>
											<line class="st34" x1="23.3" y1="277.9" x2="100.1" y2="319.7"/>
											<line class="st34" x1="16.4" y1="280.9" x2="93.2" y2="322.7"/>
											<line class="st34" x1="9.5" y1="283.9" x2="86.3" y2="325.7"/>
											<line class="st35" x1="113.9" y1="250" x2="13.3" y2="294"/>
										</g>
										<g>
											<polygon class="st6" points="118.7,310.8 27.2,319.4 -3.3,233.2 88.2,224.7 											"/>
											<g>
												<polygon class="st22" points="118.7,309.7 27.2,318.2 -3.3,233.1 88.2,224.7 												"/>
												<line class="st34" x1="-0.4" y1="241.3" x2="91.1" y2="232.8"/>
												<line class="st34" x1="1.7" y1="247.1" x2="93.2" y2="238.7"/>
												<line class="st34" x1="3.8" y1="252.9" x2="95.3" y2="244.5"/>
												<line class="st34" x1="5.9" y1="258.8" x2="97.4" y2="250.3"/>
												<line class="st34" x1="8" y1="264.6" x2="99.5" y2="256.1"/>
												<line class="st34" x1="10.1" y1="270.4" x2="101.5" y2="262"/>
												<line class="st34" x1="12.2" y1="276.2" x2="103.6" y2="267.8"/>
												<line class="st34" x1="14.2" y1="282.1" x2="105.7" y2="273.6"/>
												<line class="st34" x1="16.3" y1="287.9" x2="107.8" y2="279.5"/>
												<line class="st34" x1="18.4" y1="293.7" x2="109.9" y2="285.3"/>
												<line class="st34" x1="20.5" y1="299.6" x2="112" y2="291.1"/>
												<line class="st34" x1="22.6" y1="305.4" x2="114.1" y2="296.9"/>
												<line class="st34" x1="24.7" y1="311.2" x2="116.2" y2="302.8"/>
												<line class="st35" x1="11" y1="231.7" x2="41.5" y2="316.8"/>
											</g>
										</g>
									</g>
								</g>
							</g>
							<g>
								<g>
									<path class="st6" d="M199.2,286.8c-0.6-0.1-1.3-0.2-1.9-0.4c-2.1-0.5-4-1.5-5.9-2.5c-39.9-20.6-79.7-41.1-119.6-61.7
										c-2.5-1.3-2.1-5,0.6-5.8l120.2-33.6c4.3-1.2,8.7-2.4,13.1-2.1c7.6,0.5,13.6,5.3,19.8,8.9c5.8,3.4,12.1,5.8,18.1,8.9
										c12.8,6.6,25.5,13.2,38.3,19.8c16.3,8.4,32.7,16.8,49,25.3c3.6,1.8,3,6.6-1,7.7c-16.6,4.6-33.1,9.2-49.7,13.8
										c-13.6,3.8-27.2,7.6-40.8,11.4c-6,1.7-11.9,3.4-17.9,5C214.6,283.4,206.7,287.7,199.2,286.8z"/>
									<path class="st6" d="M83.6,225.2c-1.4,0.1-2.9,0.2-4.3,0.6c-1.4,0.4-2.7,1.2-3.5,2.5c-0.8,1.2-0.8,2.9,0.1,4.1
										c1.1,1.4,3.1,1.5,4.8,1.5c4.6,0.1,9.4,0.1,13.4-2.1"/>
									<path class="st6" d="M96.5,231.9c-1.4,0.1-2.9,0.2-4.3,0.6c-1.4,0.4-2.7,1.2-3.5,2.5c-0.8,1.2-0.8,2.9,0.1,4.1
										c1.1,1.4,3.1,1.5,4.8,1.5c4.6,0.1,9.4,0.1,13.4-2.1"/>
								</g>
								<g>
									<path class="st36" d="M333.3,239.4c3.4,1.8,2.9,6.6-0.9,7.7l-120.2,34.8l-5.8,1.7l-0.2-0.1l-129-69.2l135.9-39.4
										L333.3,239.4z"/>
									<polygon class="st22" points="206.8,278.2 90.5,215.8 212.8,180.3 329.1,242.7 									"/>
									<polygon class="st22" points="328.3,202.9 329.1,242.7 85.1,215 85.1,177.4 									"/>
									<polygon class="st37" points="209.8,238.1 209.8,278.8 188.9,266.3 184.3,235.9 									"/>
									<path class="st36" d="M206.4,283.6l-98.3-52.8l-22.9-12.3l-8-4.3c-11.5-11.6-10.3-37,0-41.1c3.6-1,10.6,0.6,19.6,4.1
										c8.6,3.3,19.1,8.2,30.1,13.8c36.5,18.8,78.9,46.2,79.5,51.4C199.4,252,200.6,275.3,206.4,283.6z"/>
									<g>
										<path class="st36" d="M214.2,279.6l-2,2.3l-5.8,1.7l-0.2-0.1c-6.6-6.3-10.2-15.9-9.6-26.4c0.6-10.6,5.4-19.8,12.6-24
											l4.5,6.7c-4.8,2.8-8.2,9.8-8.7,17.7C204.6,266.8,208,275,214.2,279.6z"/>
									</g>
									<path class="st6" d="M201.2,239.7L77.3,173.2l129.6-37.6c4-1.2,8.3-0.7,11.9,1.2l114.4,61.4c3.4,1.8,2.9,6.6-0.9,7.7
										l-120.2,34.9C208.5,241.9,204.5,241.5,201.2,239.7z"/>
									<path class="st23" d="M95.7,183.1c-7.4,7.1-8.4,27,0,41.1l-10.5-5.6c-9.3-8.5-8.7-31,0-41.1L95.7,183.1z"/>
									<path class="st23" d="M196.6,237.2c-8.1,10.3-5.2,30.6,0,41.1l-10.5-5.6c-8.5-11.7-6.8-30.9,0-41.1L196.6,237.2z"/>
									<g>
										<line class="st38" x1="223.8" y1="240.6" x2="251.5" y2="231.7"/>
										<line class="st38" x1="276" y1="227.2" x2="298.4" y2="220.1"/>
										<line class="st38" x1="226.1" y1="243" x2="239.7" y2="238.7"/>
										<line class="st38" x1="245.3" y1="240.2" x2="300.8" y2="222.5"/>
										<line class="st38" x1="254.4" y1="240.2" x2="326.6" y2="217.2"/>
										<line class="st38" x1="249.4" y1="245.3" x2="305.6" y2="227.5"/>
										<line class="st38" x1="216.9" y1="258.6" x2="239.9" y2="251.2"/>
										<line class="st38" x1="297.5" y1="236.4" x2="329.4" y2="226.3"/>
										<line class="st38" x1="219.2" y1="261.1" x2="229.3" y2="257.8"/>
										<line class="st38" x1="260.7" y1="251.4" x2="312.7" y2="234.9"/>
										<line class="st38" x1="269.7" y1="251.8" x2="293" y2="244.4"/>
										<line class="st38" x1="256.2" y1="259.3" x2="298" y2="246"/>
									</g>
								</g>
								<g>
									<path class="st39" d="M228.8,232.5l-107.4-43.4l99.7-31l99.4,40.1c2.7,1.1,2.5,4.9-0.2,5.8L228.8,232.5z"/>
									<polygon class="st22" points="228.4,228.4 132.9,189.9 221.6,162.3 317.1,200.9 									"/>
									<polygon class="st22" points="317.4,174.4 132.9,164.4 132.9,189.9 317.1,200.9 									"/>
									<polygon class="st37" points="227.5,204.1 228.8,230 209.8,222.6 209.8,198.6 									"/>
									<path class="st40" d="M228.8,208.1l-107.4-43.4l99.7-31l98.8,39.9c2.9,1.2,2.7,5.3-0.3,6.2L228.8,208.1z"/>
									<path class="st41" d="M121.4,164.8c-4.3,5.5-4.9,17.9,0,24.4l107.4,43.4c-7.6-5.9-7.1-18.7,0-24.4L121.4,164.8z"/>
									<path class="st42" d="M215.5,202.7c-5.4,7.8-5,16,0,24.4l-12.1-4.9c-4.3-8.1-4-16.3,0-24.4L215.5,202.7z"/>
									<path class="st42" d="M196.6,195.1c-3.5,7.4-3,15.7,0,24.4l-7.5-3c-4.2-9.9-3.5-17.7,0-24.4L196.6,195.1z"/>
									<path class="st37" d="M220.6,229.2l-99.2-40c-1.7-2.3-2.7-5.3-3.2-8.4l100.5,40.6C218.8,224.1,219.4,226.8,220.6,229.2z"/>
									<g>
										<line class="st38" x1="288.7" y1="190.3" x2="311" y2="183.2"/>
										<line class="st38" x1="238.8" y1="206.2" x2="252.3" y2="201.9"/>
										<line class="st38" x1="258" y1="203.3" x2="313.4" y2="185.7"/>
										<line class="st38" x1="243.5" y1="211.1" x2="315.8" y2="188.2"/>
										<line class="st38" x1="262" y1="208.5" x2="304.3" y2="195.1"/>
										<line class="st38" x1="248.3" y1="216.1" x2="271.4" y2="208.8"/>
										<line class="st38" x1="291" y1="205.8" x2="315.7" y2="197.9"/>
										<line class="st38" x1="250.7" y1="218.6" x2="260.8" y2="215.4"/>
									</g>
								</g>
								<g>
									<path class="st43" d="M312.3,173.2l-99.3,29l-6.6,1.9l-76.3-29c-1.7-0.7-1.6-3.2,0.1-3.7l2.4-0.7l47.5-13.9l5.7-1.7
										l44.6-13.1l26.1,9.9l47.5,18.1L312.3,173.2z"/>
									<g>
										<polygon class="st22" points="207.5,199.3 132.7,170.9 229.6,142.6 304.4,171 										"/>
										<rect x="132.7" y="135.8" class="st22" width="171.6" height="35.1"/>
									</g>
									<polygon class="st37" points="209.8,166.8 209.8,202 224.4,194.4 225.1,167.9 									"/>
									<path class="st43" d="M319.1,159.2c-0.7,5.1-2.8,9.9-6.8,13.9l-105.9,31c3.8-4.4,6.4-9.1,7.3-14.1
										c1.4-7.5-0.7-15.4-7.3-23.2c26.6-17.8,62.3-27.8,105.9-31C317.5,142.7,320.2,151.3,319.1,159.2z"/>
									<path class="st44" d="M312.3,135.8l-8,2.3l-47.5,13.9l-1.3,0.4l-43.7,12.8l-5.4,1.6l-25.9-9.8l-0.3-0.1l-47.5-18.1l-2.6-1
										c-1.7-0.6-1.6-3,0-3.6c0.1,0,0.1-0.1,0.2-0.1l96.5-28.2c2.5-0.7,5.2-0.6,7.6,0.3L312.3,135.8z"/>
									<path class="st37" d="M215.4,197c-0.6,1.9-1.4,3.7-2.4,5.2l-6.6,1.9l-76.3-29c-1.7-0.7-1.6-3.2,0.1-3.7l2.4-0.7v-32l-2.6-1
										c-1.7-0.6-1.6-3,0-3.6l4.2,1.6l51.7,19.4c0,0,0.3,0.1,0.3,0.1c4.5,1.7,9.1,3.3,13.5,5.1c5.8,2.3,10,4.3,12.9,10.4
										C216.3,178.1,217.9,189.4,215.4,197z"/>
									<path class="st22" d="M233.6,158.8c5.8,7.1,7.4,29.9,0,37.3l-9.2,2.7c7.1-9.3,6-27.9,0-37.3L233.6,158.8z"/>
									<path class="st22" d="M243.5,155.9c5.8,7.1,7.4,29.9,0,37.3l-4.6,1.3c7.1-9.3,6-27.9,0-37.3L243.5,155.9z"/>
									<path class="st22" d="M304.9,166.5l-51.5,14.8c1.7-4.9,1.7-9.6,0-14.2l51.5-14.8C306.4,155.6,306.7,160.1,304.9,166.5z"/>
									<path class="st45" d="M319.1,159.2c-0.7,5.1-2.8,9.9-6.8,13.9l-105.9,31c3.8-4.4,6.4-9.1,7.3-14.1L319.1,159.2z"/>
									<path class="st38" d="M207.6,197.6"/>
									<g>
										<line class="st38" x1="133.6" y1="140.1" x2="160.9" y2="150.4"/>
										<line class="st38" x1="182.9" y1="162" x2="204.9" y2="170.2"/>
										<line class="st38" x1="133.9" y1="143.5" x2="147.2" y2="148.5"/>
										<line class="st38" x1="150.7" y1="153.1" x2="205.2" y2="173.6"/>
										<line class="st38" x1="134.6" y1="150.4" x2="205.6" y2="177"/>
										<line class="st38" x1="150.7" y1="159.7" x2="205.9" y2="180.5"/>
										<line class="st38" x1="135.3" y1="157.2" x2="157.9" y2="165.7"/>
										<line class="st38" x1="175.2" y1="175.5" x2="206.6" y2="187.3"/>
										<line class="st38" x1="135.6" y1="160.6" x2="145.5" y2="164.4"/>
										<line class="st38" x1="155.9" y1="171.5" x2="206.9" y2="190.7"/>
										<line class="st38" x1="162.7" y1="177.4" x2="185.6" y2="186"/>
										<line class="st38" x1="147.5" y1="175" x2="188.5" y2="190.4"/>
									</g>
								</g>
								<g>
									<g>
										<g>
											<polygon class="st27" points="211.6,153.4 150.7,130.2 229.7,107.2 290.5,130.3 											"/>
											<rect x="150.7" y="115.7" class="st27" width="139.8" height="14.5"/>
											<polygon class="st46" points="211.6,138.9 150.7,115.7 229.7,92.7 290.5,115.8 											"/>
											<polygon class="st28" points="150.7,115.7 211.6,138.9 211.6,153.4 150.7,130.3 											"/>
										</g>
										<g>
											<polygon class="st47" points="253.9,122 205.4,103.6 230.3,97.8 278.9,114.9 											"/>
											<polygon class="st28" points="278.9,114.9 275.9,115.7 230.3,98.4 208.3,104.7 205.4,103.6 230.3,96.5 											"/>
											<polygon class="st27" points="278.9,114.9 275.9,115.7 230.3,98.4 230.3,96.5 											"/>
										</g>
										<g>
											<g>
												<path class="st48" d="M213.9,108.5c0,0.1,0,0.2,0,0.3c-0.1,0.8-0.6,1.5-1.5,1.7l-9,2.6c-1.9,0.6-3.8,0.8-5.7,0.7
													c-1.9-0.1-3.8-0.5-5.6-1.1l-4.6-1.7c-1-0.4-1.4-1.3-1.3-2.2c0.1-0.8,0.6-1.5,1.4-1.7l3.4-1l3.7-1.1l1.9-0.6
													c3.7-1.1,7.7-0.9,11.4,0.4l0.3,0.1l4.3,1.6C213.5,107,213.9,107.8,213.9,108.5z"/>
												<rect x="186.2" y="105" class="st48" width="27.7" height="3.8"/>
												<path class="st49" d="M197.7,109.6v4.3c-1.9-0.1-3.8-0.5-5.6-1.1l-4.6-1.7c-1-0.4-1.4-1.3-1.3-2.2h0V105h2.8l2,1.1
													l5.2,2.7L197.7,109.6z"/>
												<path class="st22" d="M192.1,108.9l-4.6-1.7c-1.8-0.7-1.7-3.3,0.2-3.9l9-2.6c3.7-1.1,7.7-0.9,11.4,0.4l4.6,1.7
													c1.8,0.7,1.7,3.3-0.2,3.9l-9,2.6C199.7,110.4,195.7,110.3,192.1,108.9z"/>
											</g>
											<g>
												<path class="st48" d="M231.4,115c0,0.1,0,0.2,0,0.3c-0.1,0.8-0.6,1.5-1.5,1.7l-9,2.6c-1.9,0.6-3.8,0.8-5.7,0.7
													c-1.9-0.1-3.8-0.5-5.6-1.1l-4.6-1.7c-1-0.4-1.4-1.3-1.3-2.2c0.1-0.8,0.6-1.5,1.4-1.7l3.4-1l3.7-1.1l1.9-0.6
													c3.7-1.1,7.7-0.9,11.4,0.4l0.3,0.1l4.3,1.6C231,113.4,231.4,114.2,231.4,115z"/>
												<rect x="203.7" y="111.4" class="st48" width="27.7" height="3.8"/>
												<path class="st49" d="M215.2,116v4.3c-1.9-0.1-3.8-0.5-5.6-1.1l-4.6-1.7c-1-0.4-1.4-1.3-1.3-2.2h0v-3.8h2.8l2,1.1
													l5.2,2.7L215.2,116z"/>
												<path class="st22" d="M209.6,115.3l-4.6-1.7c-1.8-0.7-1.7-3.3,0.2-3.9l9-2.6c3.7-1.1,7.7-0.9,11.4,0.4l4.6,1.7
													c1.8,0.7,1.7,3.3-0.2,3.9l-9,2.6C217.2,116.9,213.2,116.7,209.6,115.3z"/>
											</g>
										</g>
										<path class="st50" d="M155.9,109.9"/>
										<path class="st50" d="M206.3,128.6"/>
										<g>
											<g>
												<path class="st48" d="M191.5,114.9c0,0.1,0,0.2,0,0.3c-0.1,0.8-0.6,1.5-1.5,1.7l-9,2.6c-1.9,0.6-3.8,0.8-5.7,0.7
													c-1.9-0.1-3.8-0.5-5.6-1.1l-4.6-1.7c-1-0.4-1.4-1.3-1.3-2.2c0.1-0.8,0.6-1.5,1.4-1.7l3.4-1l3.7-1.1l1.9-0.6
													c3.7-1.1,7.7-0.9,11.4,0.4l0.3,0.1l4.3,1.6C191.1,113.3,191.5,114.1,191.5,114.9z"/>
												<rect x="163.8" y="111.3" class="st48" width="27.7" height="3.8"/>
												<path class="st49" d="M175.3,115.9v4.3c-1.9-0.1-3.8-0.5-5.6-1.1l-4.6-1.7c-1-0.4-1.4-1.3-1.3-2.2h0v-3.8h2.8l2,1.1
													l5.2,2.7L175.3,115.9z"/>
												<path class="st22" d="M169.7,115.3l-4.6-1.7c-1.8-0.7-1.7-3.3,0.2-3.9l9-2.6c3.7-1.1,7.7-0.9,11.4,0.4l4.6,1.7
													c1.8,0.7,1.7,3.3-0.2,3.9l-9,2.6C177.4,116.8,173.4,116.6,169.7,115.3z"/>
											</g>
											<g>
												<path class="st48" d="M208.6,121.3c0,0.1,0,0.2,0,0.3c-0.1,0.8-0.6,1.5-1.5,1.7l-9,2.6c-1.9,0.6-3.8,0.8-5.7,0.7
													c-1.9-0.1-3.8-0.5-5.6-1.1l-4.6-1.7c-1-0.4-1.4-1.3-1.3-2.2c0.1-0.8,0.6-1.5,1.4-1.7l3.4-1l3.7-1.1l1.9-0.6
													c3.7-1.1,7.7-0.9,11.4,0.4l0.3,0.1l4.3,1.6C208.2,119.8,208.6,120.5,208.6,121.3z"/>
												<rect x="180.9" y="117.8" class="st48" width="27.7" height="3.8"/>
												<path class="st49" d="M192.4,122.4v4.3c-1.9-0.1-3.8-0.5-5.6-1.1l-4.6-1.7c-1-0.4-1.4-1.3-1.3-2.2h0v-3.8h2.8l2,1.1
													l5.2,2.7L192.4,122.4z"/>
												<path class="st22" d="M186.8,121.7l-4.6-1.7c-1.8-0.7-1.7-3.3,0.2-3.9l9-2.6c3.7-1.1,7.7-0.9,11.4,0.4l4.6,1.7
													c1.8,0.7,1.7,3.3-0.2,3.9l-9,2.6C194.4,123.2,190.4,123.1,186.8,121.7z"/>
											</g>
										</g>
										<g>
											<path class="st44" d="M244.8,118.4l-0.4-0.2l-0.3-0.1c-3.6-1.4-7.6-1.5-11.4-0.4l-16.8,5.1l-0.2,0l11.4-3.5l-11.7,3.6
												l-16.6,2.5v3.8l0,0c0,0,0,0,0,0c-0.1,0.9,0.3,1.8,1.3,2.2l4.6,1.7c1.8,0.7,3.7,1.1,5.6,1.1c1.9,0.1,3.9-0.1,5.7-0.7
												l32.4-9.8c0.9-0.3,1.4-1,1.5-1.7l0,0v-4.4L244.8,118.4z"/>
											<path class="st51" d="M210.3,130v4.3c-1.9-0.1-3.8-0.5-5.6-1.1l-4.6-1.7c-1-0.4-1.4-1.3-1.3-2.2h0v-3.8h2.8l2,1.1
												l5.2,2.7L210.3,130z"/>
											<path class="st43" d="M204.7,129.3l-4.6-1.7c-1.8-0.7-1.7-3.3,0.2-3.9l32.4-9.8c3.7-1.1,7.7-0.9,11.4,0.4l4.6,1.7
												c1.8,0.7,1.7,3.3-0.2,3.9l-32.4,9.8C212.3,130.9,208.3,130.7,204.7,129.3z"/>
										</g>
									</g>
									<g>
										<polygon class="st47" points="213.2,109.9 216.2,108.8 221.9,111.7 218.9,112.8 										"/>
										<polygon class="st47" points="205,106.2 202,104.7 205.9,103.3 203.6,102.2 199.7,103.6 196.7,102.1 193.7,103.2 
											196.7,104.7 192.8,106.1 195.1,107.3 199,105.8 202,107.3 										"/>
										<polygon class="st47" points="183.5,111.5 184,110 179.1,109.9 179.8,107.9 176,107.8 175.4,109.9 170.6,109.9 
											170.1,111.4 174.9,111.5 174.3,113.5 178,113.6 178.7,111.5 										"/>
										<g>
											<polygon class="st47" points="189.9,116.2 192.8,115.1 198.5,117.9 195.6,119 											"/>
											<path class="st47" d="M198.6,116.3c-0.8,0.3-1.9,0.3-2.5,0c-0.6-0.3-0.5-0.8,0.3-1.1c0.8-0.3,1.9-0.3,2.5,0
												C199.6,115.5,199.4,116,198.6,116.3z"/>
											<path class="st47" d="M191.8,118.8c-0.8,0.3-1.9,0.3-2.5,0c-0.6-0.3-0.5-0.8,0.3-1.1c0.8-0.3,1.9-0.3,2.5,0
												C192.7,118,192.6,118.5,191.8,118.8z"/>
										</g>
									</g>
									<g>
										<polygon class="st22" points="220.5,120 223.5,118.9 229.2,121.7 226.2,122.8 										"/>
										<polygon class="st22" points="216.6,121.5 219.6,120.4 225.3,123.2 222.3,124.3 										"/>
									</g>
								</g>
							</g>
							<g>
								<path class="st52" d="M127.5,190.1c-0.1,0.3-0.3,0.7-0.5,1c-1.8,3-5.4,4.9-8.9,4.5c-9.1,9-13.3,23-9.9,35.2l-22.9-12.3
									c-2.7-9.6-3.7-20.2-1.1-29.6c0.8-2.8,1.9-5.7,3.7-8c1.9-2.3,4.7-3.9,7.7-3.8c0.4,0,0.8,0,1.3,0c4.4-0.1,11.7-1.3,15.3-1.7
									c4.7,0.1,9.9,0.5,13.2,3.8C128.3,182.1,129.1,186.6,127.5,190.1z"/>
								<g>
									<g>
										<path class="st41" d="M97.8,131.9c0,0,0.1-0.9,2.6,4.6c2.5,5.5-8.1,23.1-9.6,25.1c-0.9,1.2-3.4,1.9-4.7,2.6
											c-1.8,0.8-3.4,0.9-4.9-0.7c-1.2-1.2-1.7-3-1.5-4.7c0.4-3.3,3.2-4.7,5.3-6.8C89,148,92.3,135.9,97.8,131.9z"/>
										<g>
											<g>
												<g>
													<path class="st22" d="M79,214c0,0-1.9,9.9-1.6,12.9c0.4,3,5,2.5,7.5-4.3c2.5-6.8,3-8.4,3.4-9.8c0.5-1.4-0.4-2-1.8-3.2
														C85.1,208.4,79,214,79,214z"/>
													<path class="st53" d="M87.6,212c-0.5,1.4-0.9,3-3.4,9.8c-1.9,5.1-5,6.7-6.5,5.9c1,2.2,5,1.2,7.3-5
														c2.5-6.8,3-8.4,3.4-9.8c0.3-1-0.1-1.6-0.9-2.4C87.7,210.9,87.8,211.3,87.6,212z"/>
												</g>
												<path class="st54" d="M86.2,209.5c0,0-1,2.2-2,3.4c-1,1.2-2.4,2-3.9,2.3c-8-6.8-17.6-12.5-21.9-20.4
													c-1.7-3-1.1-7.5,1.4-9.9c2.1-2,4.9-3.2,7.6-4.1c9.2-3.3,18.8-5.7,28.3-8.1c4.6-1.2,9.4,0.9,14,2.3
													c0.6,3.5-0.6,7.2-1.7,10.6c-0.2,0.6-0.4,1.2-0.8,1.7c-0.4,0.5-1,0.9-1.6,1c-7.8,1.3-22.5,3.7-30.3,4.5
													C79.1,197.2,86.2,209.5,86.2,209.5z"/>
												<g>
													<path class="st22" d="M93.6,223.6c0,0-1.9,9.9-1.5,12.9c0.4,3,5,2.5,7.5-4.3c2.5-6.8,2.9-8.4,3.4-9.8
														c0.5-1.4-0.4-2-1.8-3.2C99.8,218,93.6,223.6,93.6,223.6z"/>
													<path class="st53" d="M102.2,221.6c-0.5,1.4-0.9,3-3.4,9.8c-1.9,5.1-5,6.7-6.5,5.9c1,2.2,5,1.2,7.3-5
														c2.5-6.8,2.9-8.4,3.4-9.8c0.3-1-0.1-1.6-0.9-2.4C102.3,220.5,102.4,220.9,102.2,221.6z"/>
												</g>
												<path class="st47" d="M121,188.5c-2.2,2.6-4.9,4.8-7.8,6.5c-6.5,3.9-13.9,5.8-21,8.4c5.9,3.3,9.7,10,9.5,16.7
													c0,2.1-0.6,4.5-3,5.1c-0.7,0.2-1.5,0.1-2.3-0.1c-1.9-0.6-3.2-2.2-4.4-3.6c-2.8-3.4-5.6-6.8-8.4-10.2
													c-1.1-1.3-2.2-2.7-2.7-4.4c-1-3.7,1.4-7.4,3.7-10.4c4.5-6,9.2-12.1,15.1-16.7c5.9-4.7,15.1-5.9,22.4-6.6
													c0.7-0.1,1.4-0.1,2,0.1c1.5,0.6,1.8,2.6,1.7,4.2C125.6,181.5,123.7,185.3,121,188.5z"/>
											</g>
											<g>
												<path class="st40" d="M126.2,178.7c0,0.8-0.1,1.5-0.1,2.3c-11.6,1.7-23.7-0.7-33.5-7.2c-0.9-0.6-0.4-8.6-0.4-9.9
													c-0.1-3.5-0.2-7.1-0.3-10.6c-0.2-5.6-0.4-11.8,2.5-16.7c0.5-0.8,0.9-1.5,1.5-2.2c3.1-3.9,7.2-5.8,12.5-5.2
													c3.5,0.4,7,1.5,10.1,3.2c3.5,1.9,5.9,5.5,6.3,9.5C125.8,153.8,126.8,166.7,126.2,178.7z"/>
												<path class="st55" d="M126.2,178.7c0,0.8-0.1,1.5-0.1,2.3c-11.6,1.7-23.7-0.7-33.5-7.2c-0.9-0.6-0.4-8.6-0.4-9.9
													c-0.1-3.5-0.2-7.1-0.3-10.6c-0.2-5.6-0.4-11.8,2.5-16.7c0.5-0.8,0.9-1.5,1.5-2.2c0.1,8.6,1.1,17.2,3.1,25.6
													c0.7,3.2,1.6,6.4,3.5,9.1c2.3,3.5,6,6,10,7.5C116.7,178.3,121.5,179,126.2,178.7z"/>
											</g>
											<g>
												<path class="st56" d="M113.2,126.1c-0.2,1.7-0.2,3.3,0.2,5c-0.7,1.6-2,3-3.5,3.8c-1.6,0.8-3.4,0.9-5.1,0.4
													c-0.4-1.4-1.1-2.7-1.5-4.1C106.2,128.8,109.5,127.1,113.2,126.1z"/>
												<path class="st14" d="M117.9,121.5c-1.6,1.6-2.4,4-2.2,6.3l-4.2,0.6c0.4-2.3,1.2-4.3,2.6-6.2"/>
												<path class="st57" d="M97.8,106.8c0,0-3.3,4.2-1.3,13.6c0.9,4.4,1.1,8.9,4.5,12.4c0.4,0.4,0.9,0.7,1.5,0.8
													c1.5,0.2,3.5-0.4,4.8-0.9c2-0.8,3.9-2,5.5-3.5c1.3-1.3,2-2.9,2.3-4.7c0.2-0.8,0.1-0.6,0.9-1c1.2-0.6,2.3-1.4,3.1-2.6
													c0.8-1.2,1.3-2.6,0.3-4c-0.4-0.6-1-1-1.8-1.2c-1.3-0.3-2.3,0.3-3.3,1c-0.4-1.3-0.2-2.7-0.7-4.1
													c-0.6-1.8-1.8-3.4-3.6-4.3C105.3,105.7,97.8,106.8,97.8,106.8z"/>
												<path class="st58" d="M115.7,122.1l0.5-0.3c0.8-0.4,0.6-1.6-0.3-1.8l0,0c-0.1-0.6,0-1.3,0.3-1.8
													c0.4-0.5,1.1-0.7,1.6-0.3"/>
												<path class="st47" d="M111.1,105.4c0-1.1,0.5-2.2,1.4-2.9c0.9-0.7,2.1-1,3.1-0.7c-1.5,0.5-2.7,2-2.8,3.6"/>
												<path class="st47" d="M110,114.2c0-0.4-4.4,4.5-10.7,2.6c2.3-0.5,2.9-1.9,2.9-1.9s-2.4,2.5-6,1.4
													c1.6-0.5,2.4-1.1,2.4-1.1s-2.5,1-4.8,0.1c1.5-0.5,1.4-1.4,1.4-1.4s-1.4,1.1-3.8-1c1-0.1,1.3-4.3,5.3-7.2
													c4-2.9,7.1-3.5,12-2.5c-1.1-1.2-2.4-1.9-4.2-1.7c2.1-0.9,6.2,1,7.3,2.7c4-1.2,11.1,1.4,7.7,13.9
													c0.3-1.2-1.1-2.5-2.2-2.6c-1.1-0.1-1.8,1.2-1.8,2.2c0,1.4,0.2,2.9,0.2,4.3l-1.8,0.8c0,0,0.8-3.1-0.4-4.1
													C112.3,117.9,109.9,119,110,114.2z"/>
												<g>
													<path class="st14" d="M99.8,123.2c0.1,0.6-0.2,1.1-0.6,1.2c-0.4,0-0.8-0.4-0.8-1c-0.1-0.6,0.2-1.1,0.6-1.2
														C99.4,122.1,99.8,122.5,99.8,123.2z"/>
													<path class="st14" d="M107.3,122.4c0.1,0.6-0.2,1.1-0.6,1.2c-0.4,0-0.8-0.4-0.8-1c-0.1-0.6,0.2-1.1,0.6-1.2
														C106.9,121.3,107.2,121.8,107.3,122.4z"/>
													<path class="st58" d="M101,124.2c-0.1,0.5,0,1.1,0.3,1.6c0.3,0.4,0.8,0.8,1.4,0.8"/>
													<path class="st59" d="M102.4,127.9c2,0.2,4-0.6,5.3-2.1"/>
													<path class="st14" d="M100.5,120.3c-1.1-0.5-2.5,0-3,1.1c-0.2-0.7,0.1-1.6,0.8-1.9C99,119.2,100.1,119.6,100.5,120.3z"
														/>
													<path class="st14" d="M108.4,120.2c-0.3-0.5-1-0.8-1.6-0.8c-0.6,0-1.2,0.3-1.7,0.6c0.1-0.9,0.9-1.7,1.8-1.6
														C107.8,118.4,108.4,119.3,108.4,120.2z"/>
												</g>
											</g>
										</g>
										<path class="st41" d="M116.2,138.5c0,0,3.5-6.6,7.1-1.7c3.2,4.4,2.1,12.6,1.6,17.7c-0.2,1.8,0,6-1.2,7.5
											c-2.1,2.6-9.2,1-12,0.5c-6.5-1.3-13-2.5-19.6-3.8c0.2-2.9,0.9-5.7,2.1-8.3c3.6-0.3,7.2,0.5,10.8,1.1
											c1.7,0.3,8.3,1.9,9.2,0.2c0.5-0.9-0.5-4-0.5-5.1C113.9,143.7,114.8,141,116.2,138.5z"/>
										<g>
											<g>
												<path class="st15" d="M105.9,166.1c-4.5-2.8-10.8-2.6-15.6-0.4c-1.8-3.4-5.2-5.6-9-5.4c-1.9-5.8-5.6-11-10.4-14.7
													c4.7-0.1,9.7,1.8,13,5.2c4.3-3.2,9.9-3.5,14.8-1.2C100.7,155.5,103.9,160.1,105.9,166.1z"/>
												<path class="st60" d="M90.3,165.7c-1.8-3.4-5.2-5.6-9-5.4c-1.9-5.8-5.6-11-10.4-14.7c4.7-0.1,9.7,1.8,13,5.2L90.3,165.7
													z"/>
											</g>
										</g>
										<path class="st57" d="M80.1,159.5c-0.1-0.8-0.2-1.7-0.3-2.5c0-0.4-0.1-0.8-0.1-1.2c0-1,0.4-2.1,1-2.9
											c0.2-0.2,0.4-0.5,0.7-0.4c0.2,0,0.4,0.2,0.4,0.4c0.1,0.2,0,0.4,0,0.7c-0.1,1.1-0.3,2.4-0.1,3.5c0.6-0.2,1-0.6,1.4-1.1
											c0.4-0.5,0.7-1,1.1-1.4c0.4-0.4,0.9-0.7,1.4-0.9c0.2-0.1,0.4-0.1,0.6,0c0.2,0.1,0.2,0.3,0.2,0.5c0,0.2-0.1,0.3-0.2,0.5
											c-0.3,0.5-0.7,1-1.1,1.5c-0.2,0.3-1,1.1-0.9,1.6c1-0.1,2.1-0.7,3-1.3c0.2-0.1,0.4-0.2,0.5-0.3c0.2-0.1,0.3-0.2,0.5-0.2
											c0.1,0,0.3,0,0.4,0c0.2,0.1,0.3,0.3,0.3,0.5c0,0.5-0.5,0.9-0.9,1.2c-0.4,0.3-0.8,0.6-1.2,0.8c-0.3,0.1-1.1,0.9-1.4,0.8
											c0.6,0.1,1.1,0.1,1.7,0c0.5,0,1.1,0.1,1.6-0.1c0.2-0.1,0.4-0.2,0.6-0.3c0.3-0.2,0.6-0.3,1-0.3c0.1,0,0.3,0,0.4,0.1
											c0,0,0,0.1,0,0.1c0,0.4-0.2,0.8-0.6,1.1c-0.3,0.3-0.7,0.4-1.2,0.6c-0.7,0.3-1.4,0.1-2.1,0.3c-0.9,0.3,0.6,0.8,1,0.9
											c0.6,0.1,1.1,0.1,1.7,0c0.2,0,0.4,0,0.6,0s0.4,0.2,0.4,0.4c0.1,0.3-0.2,0.6-0.4,0.7c-0.6,0.3-1.2,0.5-1.9,0.5
											c-1.5,0.1-3.5,0.6-4.9,0.2C81.4,163.3,80.3,161.4,80.1,159.5z"/>
										<path class="st61" d="M86.9,161c-0.5,0.1-0.9,0.2-1.4,0.2"/>
										<path class="st61" d="M85.8,159.3c-0.5,0.3-1,0.5-1.6,0.6"/>
										<path class="st61" d="M84.2,157.6c-0.3,0.3-0.6,0.7-0.9,1"/>
									</g>
								</g>
							</g>
							<g>
								<g>
									<path class="st37" d="M278.4,193.2c-3.8-2.3-9-1.3-12.5,1.5c-3.5,2.8-5.6,7-6.9,11.2c-1.4,4.2-2.1,8.7-3.6,12.9
										c-1.3,3.9-3.3,7.6-4.3,11.5s-0.9,8.5,1.5,11.8c-3.9,9.1-4.3,20.3-1.3,29.7c12.7-2.9,25.5-6.7,37.9-10.7
										C292.3,238.2,287.3,214.6,278.4,193.2z"/>
									<path class="st6" d="M255.2,270.8c-0.9,0.6,5.2,5.6,5.7,6c3.4,2.8,6.5,4.4,11.1,4.2c5.5-0.2,10.6-2.3,16.2-1.5
										c5.2,0.8,9.7,3.8,14.4,6.1c7.2,3.5,15.2,5.4,23.2,5.3c3,0,7-1.3,6.9-4.4c-0.1-2.2-2.1-3.6-3.9-4.6
										c-14.2-8.2-28.3-16.4-42.5-24.6C275.4,261.5,264.9,264.4,255.2,270.8z"/>
								</g>
								<g>
									<g>
										<polygon class="st57" points="314.3,277.8 310.3,282.1 307.5,280.7 305.9,278.5 303.8,275.6 309,271.9 311.6,274.8 
																					"/>
										<polygon class="st57" points="319.8,273.9 316.7,278.4 314.9,277.4 312.5,274.2 309.5,270.3 315.4,267.1 317.8,270.8 
																					"/>
										<g>
											<path class="st44" d="M332.3,283.8c-3.3,1.2-7,1.2-10.4,0.6c-3.5-0.6-7-1.8-10.4-3c-0.3-0.1-0.3-3-0.3-3.4
												c0-0.6-0.1-1.3,0.2-1.8c0.3-0.7,1-0.5,1.6-0.6c0.4,0.6,1,1,1.7,1c0.7,0,1.6-0.4,2-1c-0.2-0.5-0.2-1-0.3-1.5
												c-0.1-0.4,0-0.8,0.3-1c0.7-0.7,1.7-1.1,2.6-1.1c0.3,0,0.6,0.2,0.8,0.5c1.8,3.3,4.5,6.1,7.6,7.8c0.9,0.5,2,0.2,2.9,0.8
												C331.3,281.6,332.2,282.7,332.3,283.8z"/>
											<path class="st22" d="M328.1,284.1c-2.4,0-3.9,0.1-6.3-0.5c-2.1-0.5-4.2-1.4-5.7-3.1c-0.4-0.5-1-0.8-1.6-0.8
												c-0.9-0.1-1.9,0-2.8,0.1c-0.5,0-0.9,0.5-0.9,1v2c0,0.7,0.5,1.3,1.1,1.4c2,0.3,3.9,1.1,5.9,0.3c4.8,2,10,2.4,14.9,1.1
												c0.4-0.8,0.4-1.9,0.1-2.8c-0.3-0.9-0.9-1.7-1.8-2c-0.6-0.3-1.5,0.8-1.8,1.3C329,282.3,328.1,284.1,328.1,284.1z"/>
											<g>
												<path class="st62" d="M321.5,275.6c-1.2,0.3-2.2,1.1-2.8,2.3"/>
												<path class="st62" d="M322.6,276.9c-1,0.4-1.8,1.1-2.3,2.1"/>
												<path class="st62" d="M323.8,277.8c-0.9,0.3-1.6,1.1-1.9,2.1"/>
												<path class="st62" d="M325,278.9c-0.7,0.5-1.3,1.3-1.7,2.2"/>
											</g>
										</g>
										<g>
											<path class="st44" d="M327.1,287.2c-3.3,1.2-7,1.2-10.4,0.6c-3.5-0.6-7-1.8-10.4-3c-0.3-0.1-0.3-3-0.3-3.4
												c0-0.6-0.1-1.3,0.2-1.8c0.3-0.7,1-0.5,1.6-0.6c0.4,0.6,1,1,1.7,1c0.7,0,1.6-0.4,2-1c-0.2-0.5-0.2-1-0.3-1.5
												c-0.1-0.4,0-0.8,0.3-1c0.7-0.7,1.7-1.1,2.6-1.1c0.3,0,0.6,0.2,0.8,0.5c1.8,3.3,4.5,6.1,7.6,7.8c0.9,0.5,2,0.2,2.9,0.8
												C326.1,284.9,327,286,327.1,287.2z"/>
											<path class="st22" d="M322.9,287.4c-2.4,0-3.9,0.1-6.3-0.5c-2.1-0.5-4.2-1.4-5.7-3.1c-0.4-0.5-1-0.8-1.6-0.8
												c-0.9-0.1-1.9,0-2.8,0.1c-0.5,0-0.9,0.5-0.9,1v2c0,0.7,0.5,1.3,1.1,1.4c2,0.3,3.9,1.1,5.9,0.3c4.8,2,10,2.4,14.9,1.1
												c0.4-0.8,0.4-1.9,0.1-2.8c-0.3-0.9-0.9-1.7-1.8-2c-0.6-0.3-1.5,0.8-1.8,1.3C323.8,285.6,322.9,287.4,322.9,287.4z"/>
											<g>
												<path class="st62" d="M316.3,278.9c-1.2,0.3-2.2,1.1-2.8,2.3"/>
												<path class="st62" d="M317.4,280.2c-1,0.4-1.8,1.1-2.3,2.1"/>
												<path class="st62" d="M318.6,281.1c-0.9,0.3-1.6,1.1-1.9,2.1"/>
												<path class="st62" d="M319.8,282.2c-0.7,0.5-1.3,1.3-1.7,2.2"/>
											</g>
										</g>
									</g>
									<polygon class="st56" points="309,271.9 311.6,274.8 305.9,278.5 303.8,275.6 									"/>
									<polygon class="st56" points="317.8,270.8 312.5,274.2 309.5,270.3 315.4,267.1 									"/>
									<path class="st63" d="M283.8,220.4c0-0.1,2,0.8,2.1,0.9c0.8,0.6,1.4,1.3,2,2.1c1.4,2.1,1.9,4.4,2.8,6.7
										c0.6,1.6,1.3,3.2,2,4.8c0.7,1.6,1.3,3.2,2,4.8c0.1,0.3,0.6,2.2,0.9,2.2c0,0,11.9,3.3,11.9,3.3l-4.1,8.8l-18.8-5.6
										C284.6,248.5,283.8,220.4,283.8,220.4z"/>
									<g>
										<path class="st47" d="M265.7,200.8c-1.1,4-2.1,8.1-3.2,12.1c-1,3.8-2.7,7.3-4.5,10.8c-1.4,2.7-2.9,5.7-3,8.9
											c0,3,1.8,4.4,3.7,6.3c3.5-2.4,8.2-3,12.4-3.5c-0.3-7,1.4-14.2,4.3-20.6c1.4-3,3-5.9,3.6-9.1c0.2-1.1,0.2-2.3-0.5-3.2
											c-1.1-1.4-2.8-2.1-4.6-2.2c-1.7-0.1-3.3,0.5-4.9,0.5C268,200.9,266.6,200.1,265.7,200.8z"/>
										<g>
											<path class="st64" d="M287.2,254.9L265.3,265c-2.2,0.2-6.6,1.8-9.6,0.6c0.1-2.6,0.2-5.1,0.4-7.6
												c0.3-4.2,0.6-8.3,0.9-12.5c0.5-6,1.3-12.1,3.9-17.6c0.5-1,1-2,1.6-3c1-1.6,3-5.3,5.3-5.2l14,0.9l1,2.7l2.8,7.1
												L287.2,254.9z"/>
											<path class="st65" d="M287.2,254.9L265.3,265c-2.2,0.2-6.6,1.8-9.6,0.6c0.1-2.6,0.2-5.1,0.4-7.6
												c5.7,1.1,11.8-0.6,16.4-4.3c5-4,8.2-9.9,9.6-16.1c1.1-4.7,1.2-9.6,0.8-14.4l2.8,7.1L287.2,254.9z"/>
										</g>
										<g>
											<path class="st57" d="M280,228c-1,0.9-2.2,0.8-3.4,0.4c-3.4-1.2-5.9-4.2-6.1-7.7v0l1.3-6.4l8.7,7.7l-0.2,1l-0.2,0.8
												c-0.1,0.2,0.6,1.2,0.7,1.5C281,226.2,280.7,227.3,280,228z"/>
											<path class="st56" d="M280.4,221.9l-0.2,1c-0.5,1.2-1,2.4-1.3,3.4c-2.3,0-3.9-1.1-5.7-2.5c-1.1-0.8-2-1.9-2.7-3v0
												l1.3-6.4L280.4,221.9z"/>
										</g>
										<path class="st47" d="M280.8,221.7c1.8,1.6,2.9,3.9,3.4,6.3c0.5,2.4,0.5,4.8,0.5,7.2c0-0.2,0.7-1,0.8-1.2
											c0.3-0.5,0.5-1,0.7-1.6c0.4-1.1,0.5-2.2,0.5-3.4c0.1-1.1,0-9.5-1.6-9.2C283.7,220,282,220.8,280.8,221.7z"/>
										<path class="st57" d="M290.7,205.7c-0.3,2.2-0.7,4.4-1.1,6.7c-0.5,2.4-1,4.7-2.2,6.8c-0.9,1.6-2.2,3.1-3.8,4
											c-0.9,0.5-1.9,0.6-2.8,0.2c-3.6-1.3-7.3-4-9.1-7.4c-2.1-4,0-9,1-13c1-3.9,6.5-4.8,10.6-4.6c2.3,0.1,4.7,0.7,6.2,2.7
											C290.5,202.4,290.9,204.1,290.7,205.7z"/>
										<path class="st47" d="M290.1,210.7c0.3-3.3-0.5-6.7-2.2-9.6c-2,2.7-4.6,5.1-7.7,6.4c-2.5,1-5.3,1.3-8,1.6
											c-0.7,1.9-1,4.1-1.1,6.1c0,1.1,0,2.3,0.3,3.4c0.9,4.2,4.3,7.3,6.5,10.9c1.7,2.9,2.7,6.2,3.6,9.4c-2.3-3.9-6.5-6.4-9.4-9.9
											c-2.6-3.2-4.6-6.9-5.7-10.9c-1.3-4.8-2.5-9.7-1.6-14.5c0.2-1.2,0.2-2.3,0.8-3.4c1.1-2,2.2-4.1,3.7-5.7
											c1.6-1.7,3.7-2.9,6-2.9c2.4,0,4.9-0.2,7.2,0.6c1.9,0.7,3.5,1.8,5.1,3c1.9,1.3,3.8,2.8,4.9,4.7c1,1.8,1.4,4,0.9,6
											C293.2,207.9,291.8,209.5,290.1,210.7z"/>
										<path class="st57" d="M272.5,214.6c-1.1-0.3-2-1.2-2.5-2.3c-0.5-1.1-0.6-2.3-0.4-3.4c0.1-0.6,0.3-1.3,0.9-1.6
											c0.4-0.2,0.9-0.2,1.3-0.1c1.2,0.3,2.2,1.4,2.3,2.7C273.3,211.2,272.7,213,272.5,214.6z"/>
										<path class="st47" d="M277.8,207.5c-1.7,1.4-3.1,3.1-4,5.1c-0.1-1.8-0.1-3.6,0.3-5.3"/>
										<path class="st58" d="M272.6,213l-0.5-0.3c-0.8-0.4-0.6-1.6,0.3-1.8l0,0c0.1-0.6,0-1.3-0.3-1.8c-0.4-0.5-1.1-0.7-1.6-0.3"
											/>
										<g>
											<path class="st14" d="M286.8,213.3c0,0.6,0.3,1.2,0.7,1.2c0.4,0,0.7-0.5,0.8-1.1c0-0.6-0.3-1.2-0.7-1.2
												C287.2,212.2,286.9,212.7,286.8,213.3z"/>
											<path class="st14" d="M281,213.3c-0.1,0.6,0.2,1.2,0.6,1.2c0.4,0,0.8-0.4,0.8-1.1c0.1-0.6-0.2-1.2-0.6-1.2
												C281.4,212.2,281,212.7,281,213.3z"/>
											<path class="st66" d="M285.7,215.5c0.1,0.6,0,1.2-0.3,1.6c-0.3,0.5-0.8,0.8-1.4,0.8"/>
											<path class="st67" d="M283.7,219.3c-2,0.2-4-0.6-5.3-2.2"/>
											<path class="st47" d="M286.5,211.1c0.9-0.7,2.4-0.6,3.2,0.3c0-0.8-0.6-1.5-1.3-1.6C287.6,209.7,286.7,210.4,286.5,211.1z
												"/>
											<path class="st47" d="M280.5,210.9c0.3-0.5,1-0.8,1.6-0.8c0.6,0,1.2,0.3,1.7,0.6c-0.1-0.9-0.9-1.7-1.8-1.7
												C281.1,209.1,280.5,210,280.5,210.9z"/>
										</g>
									</g>
									<g>
										<path class="st68" d="M282.1,252.2c1.8-1.6,4.2-2.6,6.3-3.9c2.1-1.3,4.3-2.6,6.4-3.9c1.3-0.8,2.5-1.6,3.9-2
											c1.4-0.4,2.9-0.4,4.2,0.4c1.4,0.8,2.2,2.4,3.1,3.9c4,7.3,7.9,14.6,11.9,21.9c-2.9,1.6-5.9,3.2-8.8,4.7
											c-5.1-6.2-10.1-12.4-15.2-18.7c-0.2-0.3-0.4-0.5-0.7-0.7c-0.3-0.2-0.7-0.3-1.1-0.3c-1.7-0.2-3.3-0.5-5-0.7
											C285.5,252.7,283.7,252.7,282.1,252.2z"/>
										<path class="st69" d="M258,266c-0.2,0.1,1.8,3.2,2.1,3.5c0.9,1.3,1.9,2.5,3.1,3.5c3.5,2.9,8.2,4.2,12.3,2.4
											c2.3-1,4.3-2.6,6.2-4.2c0.6-0.5,6.2-5.8,6.1-6c1.9,2.9,8.1,8.2,15.4,14.1c0,0,7.6-6.4,7.6-6.4c-3.2-4.9-6.3-9.9-9.5-14.8
											c-2.2-3.3-4.4-7.2-7.2-9.9c-0.8-0.7-1.7-1.2-2.6-1.4c-1.1-0.2-2.4-0.3-3.6-0.2c-2.2,0.2-3.7,1.9-5.4,3.2
											c-1.5,1.1-3,2.3-4.5,3.4c-2.9,2.2-5.8,4.4-8.8,6.6c-0.7,0.5-1.5,1.4-2.3,1.7C266.8,261.5,258,266,258,266z"/>
										<g>
											<path class="st57" d="M302.7,245.4c-0.1,0.2-0.2,0.4-0.3,0.7c0,0.3,0,0.5,0.2,0.7c0.3,0.3,0.7,0.1,1.1-0.1
												c0.2-0.1,0.5-0.3,0.7-0.4c0.4-0.2,0.8-0.5,1.1-0.8c0.6-0.7,0.5-2.3-0.7-2.1C304.1,243.4,303.1,244.7,302.7,245.4z"/>
											<path class="st57" d="M306.2,245.7c-0.8,0.7-1.5,1.4-2.2,2.2c-0.1,0.1-0.2,0.3-0.2,0.4c0,0.2,0,0.4,0,0.5
												c0.1,0.2,0.3,0.2,0.5,0.2c0.5,0,1-0.1,1.4-0.4c-0.1,0.3-0.4,0.8-0.6,1.1c-0.2,0.3-0.2,0.8,0.1,1c0.2,0.1,0.4,0.1,0.6,0
												c0.6-0.2,1.1-0.5,1.5-0.9c0.2-0.2,0.5-0.4,0.6-0.7c0.2-0.3,0.2-0.7,0.1-1c-0.1-0.3-0.6-0.8-0.9-0.6c0-0.4,0.1-0.7,0-1.1
												C307.1,246,306.5,245.4,306.2,245.7z"/>
											<path class="st57" d="M309.4,251c0,0.3,0,0.5-0.1,0.8c-0.1,0.4-0.2,0.7-0.4,1.1c-0.1,0.2-0.2,0.3-0.3,0.5
												c-0.1,0.1-0.3,0.2-0.5,0.2c-0.2,0-0.3-0.2-0.4-0.5c-0.1-0.2,0-0.4,0-0.7c0-0.5-0.1-2,0.4-2.4
												C308.7,249.7,309.4,250.5,309.4,251z"/>
										</g>
									</g>
									<g>
										<g>
											<path class="st36" d="M298.6,245.2c-4.1-1.1-8.3-1.9-12.6-1.7c2.6-4.6,5.4-9.3,8-13.9c5.4-2.1,11.9-0.9,16.2,2.9
												C306.3,236.6,301.9,240.6,298.6,245.2z"/>
											<polygon class="st70" points="317.4,223.9 307.5,230.6 310.2,232.5 											"/>
											<path class="st36" d="M310.2,232.5c0.9-5,6-8.4,8.9-9.4l-11.2,11.8L310.2,232.5z"/>
										</g>
										<g>
											<g>
												<polygon class="st57" points="283.8,243 293,241.8 293,247 285,248.1 												"/>
												<path class="st57" d="M288.5,243.2c1.1-0.3,1.6-1.5,2.1-2.5c0.5-1,1.1-2.1,2.1-2.5c0.6-0.2,1.3-0.1,2-0.1
													c0.8,0,1.5-0.2,2.2-0.6c0.3-0.2,0.7-0.4,0.9-0.7c0.2-0.2,0.4-0.5,0.7-0.7c0.2-0.1,0.6-0.5,0.8-0.2
													c0.2,0.3,0.3,0.7,0.3,1c0,0.4-0.2,0.8-0.4,1.1c-0.4,0.6-0.9,1.1-1.4,1.4c-0.5,0.3-1,0.4-1.5,0.7c-0.5,0.2-1,0.6-1.2,1
													c-0.3,0.5-0.3,1.1,0.1,1.5"/>
												<path class="st57" d="M291.9,241.5c1.3,0,2.7,0.2,4,0.2c1.3,0,2.7-0.2,3.9-0.9c1.9-1.1,2.9-3.4,4.9-4.3
													c0.2-0.1,0.5-0.2,0.7-0.2s0.5,0.1,0.6,0.4c-0.2,0.8-0.5,1.3-1,2c-1.2,1.9-2.4,3.8-3.7,5.6c-0.4,0.6-0.8,1.2-1.4,1.6
													c-1.3,0.8-9.8,1.1-9.8,1.2c-0.2-1.4-0.1-2.7,0.3-4c0.1-0.3,0.2-0.7,0.4-1C291,241.8,291.6,241.5,291.9,241.5z"/>
											</g>
											<path class="st63" d="M265.4,223.6c1.8-0.2,4,1.9,4.7,3.4c1.4,2.9,0.8,6.6,1,9.7c0,0.4,0.4,6.7,0.3,6.7l13.6-2
												c1.1,2.9,1.4,7.5,1.7,12.3c-7.9,2.5-15.6,4.2-22.8,3.8c-2.5-0.1-4.5-1.9-5-4.3c-1.6-6.9-1.4-14.2,0.2-21.1
												c0.5-1.9,1.1-3.9,2.2-5.6C262.4,224.6,263.4,223.9,265.4,223.6z"/>
										</g>
									</g>
								</g>
							</g>
							<g>
								<path class="st71" d="M75.8,262.3l4.2,1.1l3.9,1c0.9,0,1.9,0.2,2.7,0.7l58.1,36.7h0l0,0h0l0,0l2.9,1.8c0,0,0,0,0,0l1.5,0.9
									l0.8,0.5c1.8,1.1,2,3.8,0.4,5.1c-1.4,1.2-3.3,1.5-5,0.8c-0.3-0.1-0.6-0.3-0.8-0.4l-2.8-1.8l0,0l-0.1,0l-2.9-1.8l-58.1-36.7
									l0,0l0,0l0,0c0,0,0,0,0,0l-2.8-5L75.8,262.3z"/>
								<g>
									<polygon class="st72" points="80.6,266.3 86.7,261.2 80,259.4 75.8,258.3 77.7,261.3 									"/>
									<path class="st14" d="M77.7,261.3c-0.2-2.2,0.8-2.3,2.3-1.9l-4.2-1.1L77.7,261.3z"/>
									<path class="st15" d="M80.6,266.3l58.1,36.3l1.9-1.6l2.2-1.9l1.9-1.6l-58.1-36.3c-1.4-0.9-3.3-0.9-4.7-0.3
										c-0.9,0.4-1.6,1.1-1.8,2.1C79.9,263.9,80,265,80.6,266.3z"/>
									<path class="st16" d="M80.2,263l60.5,37.9l2.2-1.9L103,274.2l-21-13.3C81.1,261.3,80.4,262,80.2,263z"/>
									<path class="st30" d="M138.7,302.5l5.8,3.6c0.3,0.2,0.5,0.3,0.8,0.4c1.7,0.6,3.6,0.4,5-0.8c1.6-1.4,1.5-4-0.4-5.1l-0.8-0.5
										l-4.4-2.7L138.7,302.5z"/>
									<path class="st14" d="M141.6,304.4c-2.2-5.2,3.4-6.8,6.1-5.1l-2.9-1.8c-3.7-2.3-8.3,0-6.1,5.1L141.6,304.4z"/>
									<path class="st17" d="M145.3,306.6c1.7,0.6,3.6,0.4,5-0.8c1.6-1.4,1.5-4-0.4-5.1l-0.8-0.5c-1,0-2.1,0.3-2.9,0.8
										c-0.9,0.7-1.6,1.7-1.8,2.8C144.3,304.8,144.6,305.8,145.3,306.6z"/>
								</g>
							</g>
						</g>
					</g>
				</g>
			</g>
		</g>
	</g>
</g>
</svg>
