<?xml version="1.0" encoding="UTF-8"?>
<svg id="_圖層_2" data-name="圖層 2" xmlns="http://www.w3.org/2000/svg" width="263.6" height="263.6" xmlns:xlink="http://www.w3.org/1999/xlink" viewBox="0 0 263.6 263.6">
  <defs>
    <clipPath id="clippath">
      <circle cx="131.65" cy="132" r="122.96" style="fill: none;"/>
    </clipPath>
  </defs>
  <g id="_第一cut" data-name="第一cut">
    <g id="colleges_universities">
      <g style="clip-path: url(#clippath);">
        <circle cx="131.65" cy="132" r="122.96" style="fill: #e2ffd2;"/>
        <g>
          <path d="m81.77,195.57c0,.48.02.96.03,1.44.1,4.1.31,8.21.63,12.35.67,8.76,1.8,17.6,3.24,26.44,3.16,19.45,7.8,38.87,12.27,57.4,2.68,1.8,7.09,4.63,10.15,5.66,26.37,8.89,43.72,7.17,71.12,2.31,3.95-15.93,6.02-32.24,7.08-48.61,1.15-17.79,2.29-35.61,2.13-53.43-.55-1.77-1.13-3.54-1.74-5.3-.11-.32-.23-.65-.34-.97-.24-.62-.47-1.25-.71-1.86-.65-1.66-1.33-3.3-2.05-4.93-.96-2.19-2-4.35-3.09-6.47-4.19-4.84-8.69-9.4-13.48-13.64-5.17-4.59-10.84-8.89-17.44-10.94-4.55-1.41-9.39-1.69-14.15-1.45-2.96.15-5.92.51-8.83,1.07-10.84,2.07-21.17,6.88-29.76,13.82-2.7,2.18-5.23,4.57-7.55,7.15-.41.46-.82.93-1.22,1.4-2.4,2.83-4.6,5.95-5.59,9.53-.8,2.92-.76,6-.71,9.03Z" style="fill: #ffcfca;"/>
          <path d="m96.97,56.78c1.41-2,2.91-3.93,4.5-5.79,3.3-3.84,7.22-7.2,11.51-9.93,16.11-10.23,37.87-8.56,51.66,4.83,6.43,6.24,10.59,14.45,13.26,22.93,4.84,15.37,6.1,31.61,6.47,47.6.09,4,.1,8.01.19,12.01.03,1.16.59,10.81-.2,11.12-2.77,1.1-5.59,2.06-8.42,2.96-15.38,4.9-31.41,8.06-47.44,7.43-16.03-.63-32.1-5.23-45.15-14.77-.54-4.42-.8-8.71-.83-13.02-.07-12.99-.56-26.26,2.5-38.99,2.27-9.43,6.33-18.44,11.94-26.4Z" style="fill: #3a374c;"/>
          <polygon points="116.91 111.06 116.72 125.62 116.3 158.59 154.04 160.9 153.09 141.68 152.26 124.66 116.91 111.06" style="fill: #ffcfca;"/>
          <path d="m116.91,111.06l-.19,14.57c4,3.94,8.29,7.54,13.11,10.39,6.99,4.13,15.24,6.58,23.26,5.67l-.83-17.02-35.35-13.6Z" style="fill: #fcb9b4;"/>
          <path d="m101.57,88.49h0c1.7,8.4,5.03,16.47,9.53,23.31,7.27,11.06,19.34,20.95,32.97,22.05,6.97.56,14-1.72,19.05-6.61,1.23-1.19,2.36-2.52,3.36-3.97,9.09-13.15,10.41-30.6,6.38-46.27-1.75-6.79-4.5-13.24-8.07-18.87-3.89-6.14-9.56-11.49-16.04-15.11-10.75-5.99-23.73-7.21-34.55.71-4.89,3.58-8.47,8.77-10.68,14.42-.09.21-.16.42-.24.63-3.43,9.3-3.73,19.73-1.71,29.72Z" style="fill: #ffcfca;"/>
          <path d="m145.51,49.13c.29,3.37,1.98,6.46,3.91,9.24.43.61.87,1.22,1.32,1.81,5.59,7.34,13.2,13.14,21.77,16.58.12.05.27.11.43.18-1.75-6.8-4.51-13.27-8.08-18.91-3.9-6.15-9.58-11.52-16.07-15.14-.74.28-1.4.7-1.94,1.28-.67.73-1.05,1.66-1.23,2.64-.14.76-.16,1.55-.1,2.32Z" style="fill: #fcb9b4;"/>
          <path d="m101.57,88.49h0c2.88,2.14,5.75,4.36,9.17,5.35,1.72.5,3.51.66,5.3.67,5.44,0,10.87-1.49,15.53-4.29,6.63-3.98,11.52-10.41,14.78-17.41,1.87-4.02,3.25-8.24,4.36-12.53.83-3.19,1.51-6.42,2.14-9.65-1.7-2.46-4.35-3.19-7.27-3.69-.18-.03-.36-.07-.55-.1-10.84-1.78-22.14.47-31.96,5.4-3.36,1.69-6.54,3.68-9.56,5.91-.09.21-.16.42-.24.63-3.43,9.3-3.73,19.73-1.71,29.72Z" style="fill: #fcb9b4;"/>
          <path d="m-11.17,253.24c15.4.4,50.88-20.54,65.54-28.03,2.76-1.41,7.98-4.3,14.01-7.73,4.46-2.54,9.37-5.37,14.04-8.11,8.13-4.78,15.58-9.31,18.84-11.59,2.58-1.81,5.21-3.86,7.75-6.11,8.89-7.86,16.74-18.23,17.96-29.79.06-.6.07-4.93-.39-7.23-.18-.88-.41-1.46-.74-1.43-26.29,1.96-50.9,13.43-73.92,26.29-7.38,4.12-11.4,7.01-17.42,10.95-1.29.85-2.67,1.74-4.19,2.7-.03.02-.06.04-.09.06.07-.16.13-.32.2-.48.94-2.3,1.79-4.68,2.55-6.91.77-2.28,1.45-4.41,2.03-6.15,1.45-4.37,3.19-10.36,3.19-10.36,0,0,5.51-14.66,6.22-14.96,1.84-.76,3.6-1.69,5.25-2.78,2.04-1.35,3.48-3.14,5.35-4.67,3.23-2.65,7.02-4.66,10.44-7.08,1.06-.75,2.14-1.56,2.76-2.71.02-.04.04-.09.06-.13.55-1.14.53-2.64-.41-3.49-.72-.65-1.79-.78-2.74-.59-1.68.33-3.32,1.26-4.8,2.09-.94.54-1.92,1.2-2.96,1.54-1.58.52-.9-.81-.39-1.8.57-1.08,1.26-2.09,2-3.06,1.46-1.92,3.13-3.67,4.67-5.52,0,0,10.41-12.57,10.42-12.59,1.02-1.24.29-3.4-1.22-3.86-2.1-.65-3.56,1.97-4.76,3.21-2.02,2.07-4.05,4.13-6.08,6.18-1.46,1.47-2.93,2.94-4.4,4.4-.85.85-1.42,2.06-2.29,2.94-.32.33-1.15,1.3-1.72.99-.6-.32.06-1.32.23-1.74.41-1.04.87-2.05,1.34-3.07.92-1.95,1.91-3.87,2.92-5.78,2.04-3.89,4.15-7.78,5.72-11.9.07-.17.11-.34.14-.51.58-1.24-.12-2.87-1.43-3.3-2.46-.81-3.77,2.68-4.75,4.28-1.57,2.59-3.04,5.24-4.6,7.84-1.16,1.93-2.33,3.87-3.5,5.81-.4.68-1.57,4.23-2.77,3.84-1.05-.34.29-3.05.42-3.68.32-1.51.66-3.02,1.01-4.53.69-3.02,1.46-6.02,2.31-9,.08-.28.11-.55.1-.81.27-.83.55-1.67.83-2.5.5-1.5-.75-3.1-2.33-3.05-2.27.06-2.61,2.94-3.15,4.6-.86,2.64-1.69,5.29-2.49,7.95-.57,1.88-1.12,3.76-1.67,5.65-.29,1-1.2,5.5-3.01,4.18-.35-.26-.33-1.19-.35-1.56-.09-1.19.1-2.37.18-3.56.18-3.17.33-6.35.42-9.53.06-1.74-1.89-2.99-3.47-2.2-2.3,1.15-1.47,5.59-1.51,7.64-.06,3.26-.24,6.52-.54,9.77-.06.55-.11,1.11-.29,1.64-.24.68-.66,1.27-1.06,1.88,0,0,0,0-.01.02-2.22,3.45-3.53,7.44-4.06,11.49-.26,2.04-.33,4.1-.19,6.14.14,2.07,1.01,5.97,1.01,5.97,0,0-1.52,2.43-2.22,3.35-.8,1.06-1.54,2.16-2.3,3.24-1.58,2.24-3.17,4.49-4.75,6.73-5.49,7.77-11.12,15.44-16.32,23.41-13.46,20.63-18.95,31.19-24.87,45.4-3.25,7.81-.82,21.43,10.26,21.72Z" style="fill: #ffcfca;"/>
          <path d="m68.38,217.48c4.46-2.54,9.37-5.37,14.04-8.11.67,8.76,1.8,17.6,3.24,26.44,6.32-.16,12.62-.49,18.91-1.16,4-.42,8.35-1.17,10.99-4.19,1.89-2.16,2.55-5.13,2.75-8,.63-8.94-2.51-17.74-6.58-25.73-.87-1.71-1.78-3.39-2.71-5.06-3.44-6.16-7.16-12.18-9.99-18.64-.67-1.52-1.34-3.14-2.2-4.57-.96-1.61-2.14-3-3.8-3.82l-1.24.39c-.76,3.54-1.58,7.07-2.5,10.58-1.88,7.13-4.17,14.15-7.23,20.85-.08.18-.17.36-.25.55-3.44,7.43-7.86,14.47-13.41,20.47Z" style="fill: #fcb9b4;"/>
          <path d="m32.21,138.53c.34-2.36.94-4.76,2.41-6.64,1.47-1.88,3.98-3.09,6.27-2.44,1.14.33,2.12,1.08,3.2,1.57,2.71,1.24,6.13.93,8.36,2.92.3.27.59.6.67.99.17.76-.39,1.47-.92,2.04-.74.81-1.56,1.67-2.64,1.89-.88.18-1.77-.1-2.66-.21-2.2-.27-4.39.53-6.38,1.5-1.05.51-2.07,1.08-3.01,1.76-1.92,1.39-3.45,3.22-4.97,5.03-.2.24-.33.47-.34.78-.48-3.06-.45-6.14,0-9.2Z" style="fill: #f9bfbb;"/>
          <path d="m109.94,46.01c4.78-3.75,10.32-6.46,16.36-7.89,3.25-.77,6.58-1.23,9.91-1.34,4.26-.14,6.68,1.44,8.72,5.13,1.58,2.87,2.35,6.13,2.5,9.39.05,1.01.04,2.03-.03,3.06-.61,10.06-6.08,20.88-12.16,26.56-4.92,4.59-11.2,7.75-17.72,9.32-6.51,1.57-14.63,1.82-20.68-1.5-5.72-3.14-6.49-9.7-4.89-15.5,1.98-7.2,6.29-14.53,10.97-20.29,2.1-2.59,4.46-4.91,7.03-6.93Z" style="fill: #3a374c;"/>
          <path d="m135.35,41.6c.17-.71.38-1.43.78-2.04.94-1.41,2.72-1.99,4.41-2.14,5.95-.55,11.46,2.93,16.23,6.52,2.96,2.23,5.87,4.59,8.16,7.51,1.57,1.99,2.82,4.22,3.95,6.49,3.47,6.93,5.9,14.37,7.21,22.01l-.74,4.37c-.68-7.92-3.42-16.02-9.32-21.36-7.57-6.85-18.53-7.87-28.46-10.24-.65-.15-1.34-.34-1.78-.85-.34-.4-.48-.93-.58-1.44-.59-2.91-.54-5.94.14-8.83Z" style="fill: #3a374c;"/>
          <path d="m96.29,95.57c1.23-2.97,4.23-5.06,8.06-5.14,4.36-.09,7.78,3.55,10.57,6.9,0,0,5.34,20.29,5.34,20.29.15.56-5.22.4-5.86.26-2.16-.48-4.35-1.61-6.25-2.71-3.93-2.28-7.34-5.47-9.83-9.28-1.96-2.99-3.49-6.81-2.03-10.32Z" style="fill: #ffcfca;"/>
          <path d="m145.09,38.51c-.08.84-.11,1.68-.09,2.52,0,.29.02.58.04.87.19,3.22,1.06,6.39,2.42,9.3.44.94.94,1.86,1.49,2.75.13.21.27.43.41.64,2.99,4.59,7.19,8.24,11.78,11.1,2.38,1.48,4.9,2.77,7.63,3.36.57.13,1.15.21,1.73.27.06,0,.13.01.19.02.61.05,1.23.06,1.84.03,1.44-.08,2.86-.4,4.18-1.04-.84-2.63-1.82-5.21-2.95-7.73-5.37-11.91-14.27-20.24-25.08-24.08-1.19.16-2.36.45-3.44.78-.06.4-.11.81-.15,1.21Z" style="fill: #3a374c;"/>
          <g>
            <path d="m141.42,108.18c-.19,2.15.11,4.21.77,6.03.14.39.3.77.48,1.14,1.55,3.22,4.34,5.48,7.7,5.77,2.67.23,5.2-.83,7.17-2.74.15-.15.3-.3.45-.46,1.86-2.01,3.13-4.83,3.41-8.02.03-.38.05-.76.05-1.14l-19.89-1.71c-.06.37-.11.75-.14,1.13Z" style="fill: #d55454;"/>
            <path d="m142.67,115.35c1.55,3.22,4.34,5.48,7.7,5.77,2.67.23,5.2-.83,7.17-2.74-.34-.59-.76-1.14-1.25-1.65-1.63-1.7-4.01-2.87-6.73-3.1-2.04-.18-3.98.2-5.63.99-.44.21-.87.46-1.26.73Z" style="fill: #f37c7c;"/>
            <path d="m144.16,107.28c.38.5.82.97,1.32,1.4,1.61,1.39,3.81,2.33,6.29,2.55,2.64.23,5.12-.42,6.99-1.66.43-.28.82-.59,1.18-.93l-15.79-1.36Z" style="fill: #fff;"/>
          </g>
          <path d="m175.2,75.72c-4.19-1.1-8.44-.39-11.92,1.65l-19-1.6c-1.58-1.12-3.37-1.99-5.34-2.5-8.84-2.31-17.92,3-20.23,11.84-2.31,8.84,3,17.92,11.84,20.23,8.84,2.31,17.92-3,20.23-11.84.46-1.75.61-3.51.5-5.23l4.38.42c-1.14,7.81,3.77,15.42,11.58,17.47,8.39,2.19,17-2.85,19.19-11.24,2.19-8.39-2.85-17-11.24-19.19Zm-44.44,28.8c-8.39-2.19-13.43-10.8-11.24-19.19,2.19-8.39,10.8-13.43,19.19-11.24s13.43,10.8,11.24,19.19c-2.19,8.39-10.8,13.43-19.19,11.24Zm20.43-17.11c-.06-.48-.14-.96-.23-1.44l5.22.43c-.06.19-.13.37-.18.56-.08.3-.13.59-.18.89l-4.63-.44Zm5.25-1.84l-5.68-.46c-.86-3.25-2.7-6.18-5.26-8.38l16.62,1.4c-2.54,1.8-4.56,4.36-5.68,7.44Zm11.01,19.76c-7.94-2.08-12.7-10.22-10.63-18.16,2.08-7.94,10.22-12.7,18.16-10.63s12.7,10.22,10.63,18.16c-2.08,7.94-10.22,12.7-18.16,10.63Z" style="fill: #999;"/>
          <path d="m151.05,101.47c.51-.59,1.3-.96,2.14-.97.85-.03,1.72.38,2.27,1.06.55.66.79,1.66.46,2.48-.29.81-1.05,1.43-1.85,1.43.69-.35,1.08-.99,1.21-1.62.12-.63-.08-1.27-.48-1.76-.4-.5-.98-.83-1.65-.93-.67-.1-1.39.01-2.1.31Z" style="fill: #b53434;"/>
          <path d="m138.27,81.09c-.19-.05-.33-.23-.32-.43.01-.23.21-.41.45-.4l6.28.33c.23.01.41.21.4.45-.01.23-.21.41-.45.4l-6.28-.33s-.06,0-.09-.01Z" style="fill: #24404c;"/>
          <path d="m161.17,83.23c-.19-.05-.33-.23-.32-.44.02-.23.22-.41.45-.39l5.92.43c.23.01.41.22.39.45-.02.23-.22.41-.45.39l-5.92-.43s-.05,0-.08-.01Z" style="fill: #24404c;"/>
          <g>
            <path d="m144.99,92.28c.08,0,.17-.02.25-.05.3-.14.43-.49.3-.79-.73-1.6-2.23-2.71-4.02-2.97-1.42-.21-3.3.53-4.56,1.8-.23.23-.23.61,0,.84.23.23.61.23.84,0,.98-.99,2.49-1.61,3.53-1.46,1.38.2,2.54,1.06,3.1,2.28.1.22.32.35.54.35Z" style="fill: #fcb9b4;"/>
            <path d="m166.81,93.02c.12,0,.25-.04.36-.12.26-.2.32-.57.12-.84-1.06-1.43-2.8-2.43-4.24-2.43h-.01c-1.81,0-3.45.9-4.4,2.37-.18.28-.1.65.18.83.28.18.65.1.83-.18.73-1.13,1.99-1.82,3.39-1.82,1.07,0,2.46.83,3.29,1.95.12.16.3.24.48.24Z" style="fill: #fcb9b4;"/>
          </g>
          <g>
            <path d="m145.39,91.49c.08,0,.17-.02.25-.05.3-.14.43-.49.3-.79-.73-1.6-2.23-2.71-4.02-2.97-1.42-.21-3.3.53-4.56,1.8-.23.23-.23.61,0,.84.23.23.61.23.84,0,.98-.99,2.49-1.61,3.53-1.46,1.38.2,2.54,1.06,3.1,2.28.1.22.32.35.54.35Z" style="fill: #24404c;"/>
            <path d="m167.21,92.23c.12,0,.25-.04.36-.12.26-.2.32-.57.12-.84-1.06-1.43-2.8-2.43-4.24-2.43h-.01c-1.81,0-3.45.9-4.4,2.37-.18.28-.1.65.18.83.28.18.65.1.83-.18.73-1.13,1.99-1.82,3.39-1.82,1.07,0,2.46.83,3.29,1.95.12.16.3.24.48.24Z" style="fill: #24404c;"/>
          </g>
          <path d="m140.78,174.06c.27.31.55.61.83.91,5.08,5.32,12.61,9.35,17.99,13.11,6.91,4.82,11.23,9.68,15.11,16.99.78,1.46,1.53,2.96,2.25,4.47.51,1.06,1,2.14,1.49,3.23,2.57,5.75,4.79,11.78,6.88,17.89,3.82,11.17,7.17,22.6,11.21,33.06,4.89,12.66,10.45,24.77,17.19,36.56,6.61,11.57,13.62,22.9,21.05,33.98,3.71,5.54,7.53,11.01,11.43,16.41,1.33,1.84,5.12,7.35,7.45,10.52.51.7.95,1.28,1.28,1.69l.04.1h0c-.17,2.47,0,5.63.78,11.01.42,2.88.85,5.76,1.6,8.58,1.17,4.43,4,8.15,5.95,12.28.41.86.8,1.75,1.4,2.5,2.78,3.5,6.05-.36,5.94-3.57-.01-.3-.04-.6-.1-.89-.29-1.73-1.24-3.31-2.01-4.87-.45-.92-.87-1.86-1.09-2.86-.18-.84-.56-1.94.17-2.65.67-.64,2.01-.78,2.88-.65,1.04.15,1.95.68,2.76,1.35.6.49,1.14,1.07,1.66,1.65,1.35,1.5,2.6,3.06,3.91,4.58,1.82,2.11,3.27,4.31,3.94,7.02.69,2.75.75,5.61.97,8.43.24,3.03.39,7.15,3.07,9.15,1.23.92,2.99.07,3.46-1.25.26-.74.22-1.54.19-2.32-.23-4.99-.37-9.99-1.32-14.91-.9-4.64-3.08-9.02-5.16-13.25-3.09-6.24-16.85-27.54-16.85-27.54-.11-.22-5.92-13.61-9.82-22.05-2.93-6.35-5.42-11.22-8.19-17.64-5.43-12.58-12.52-28.5-17.14-41.4-.38-1.07-.74-2.12-1.08-3.15-.4-1.2-.76-2.38-1.1-3.55-2.9-9.88-4.19-18.84-6.57-29.64-2.52-11.4-5.24-22.74-7.82-34.12-4.09-18.1-11.49-28.83-17.73-32.67-8.64-5.31-17.34-9.55-26.44-12.74-.76-.27-1.53-.53-2.29-.78-3.46-1.14-6.98-2.13-10.57-2.96-.63-.15-1.27-.29-1.91-.43-4.1-.88-8.3-1.58-12.63-2.09-1.58-.18-3.1.68-4.35,1.99-1.49,1.55-2.62,3.72-3.03,5.54-1.37,6.04.71,10.89,4.29,14.98Z" style="fill: #ffcfca;"/>
          <path d="m116.64,216.54c8.49,8.24,19.98,13.09,31.74,14.45,3.47.4,7.02.51,10.45-.19,8.8-1.79,15.92-8.9,19.31-17.22.11-.27.22-.55.32-.83.23-.61.44-1.22.63-1.83,2.42-7.62,2.3-15.96.88-23.87-.67-3.74-1.61-7.41-2.69-11.04-1.47-4.97-3.2-9.88-4.84-14.8-.37-1.12-.75-2.26-1.16-3.39-.76-.27-1.53-.53-2.29-.78-3.46-1.14-6.98-2.13-10.57-2.96-.18,1.56-.51,3.1-.98,4.59-.5,1.58-1.16,3.11-1.97,4.57-2.82,5.09-7.39,9.27-12.83,11.37-.33.13-.67.25-1.01.36-.45.15-.92.29-1.38.41-4.24,1.11-8.7,1.06-13.07.78-8.25-.51-16.9-1.98-23.27-7.23.94,5.21-.36,10.53-.56,15.82-.45,11.83,4.82,23.56,13.32,31.8Z" style="fill: #fcb9b4;"/>
          <g>
            <path d="m89.68,159.79c-.93,9.5-.95,19.17-1.96,28.63-1.5,13.98-4.54,27.75-6.64,41.66-1.19,7.87-1.83,16.02-1.75,24.13.06,6.22.54,12.41,1.53,18.43,27.76,13.55,60.14,17.4,90.3,10.74,3.1-.68,6.19-1.48,9.18-2.57,4.59-1.68,8.57-4.08,13.24-5.55.17-13.31.35-26.67-.41-39.95-.44-7.81-1.2-15.6-2.47-23.32-3.32-20.18-9.72-34.9-12.62-55.13-1.83-.37-4.8-1.77-6.72-2.14-3.54-.67-7.1-1.73-10.86-2.06.14,5.49-.8,11.06-3.43,15.86-2.93,5.36-8.16,9.63-14.21,10.5-2.83.41-5.71.07-8.52-.46-5.18-.99-10.36-2.78-14.29-6.3-3.62-3.25-5.9-7.72-7.69-12.25-1.2-3.05-1.73-4.54-2.55-7.71-2.02.54-8.95,2.92-10.04,3.49-.75.4-9.33,3.59-10.08,4Z" style="fill: #fbb03b;"/>
            <path d="m79.32,254.21c.06,6.22.54,12.41,1.53,18.43,27.76,13.55,60.14,17.4,90.3,10.74,3.1-.68,6.19-1.48,9.18-2.57,4.59-1.68,8.57-4.08,13.24-5.55.17-13.31.35-26.67-.41-39.95-2.4,3.38-5.23,6.34-8.85,8.34-5.55,3.07-12.2,3.4-18.53,2.96-6.33-.45-12.64-1.59-18.97-1.22-11.51.68-22.1,6.29-33.33,8.88-5.04,1.16-10.2,1.71-15.37,1.79-6.3.09-12.61-.54-18.78-1.85Z" style="fill: #f9a12d;"/>
          </g>
          <path d="m22.6,209.91c2.29-2.35,4.86-5.74,6.45-8.61,1.97-3.54,3.79-7.16,5.46-10.84-1.29.85-2.67,1.74-4.19,2.7-1.57,6.04-3.88,11.88-7.71,16.75Z" style="fill: #fcb9b4;"/>
        </g>
      </g>
      <path d="m127.97,263.55c-.39-.01-.69-.33-.68-.72.01-.39.34-.71.72-.68,1.24.04,2.49.05,3.72.05.39,0,.7.31.7.7s-.31.7-.7.7c-1.24,0-2.51-.02-3.76-.05Zm6.81-.68c-.01-.39.29-.71.68-.72,1.23-.03,2.48-.09,3.72-.15.4-.02.72.27.74.66.02.39-.27.72-.66.74-1.25.07-2.51.12-3.76.16,0,0-.01,0-.02,0-.38,0-.69-.3-.7-.68Zm-10.57.52c-1.25-.07-2.51-.16-3.75-.27-.39-.03-.67-.37-.64-.76.03-.39.38-.68.76-.64,1.23.1,2.48.19,3.71.26.39.02.68.35.66.74-.02.37-.33.66-.7.66-.01,0-.03,0-.04,0Zm18.04-.89c-.03-.39.25-.72.64-.76,1.23-.1,2.48-.23,3.71-.36.38-.04.73.23.77.62.04.38-.23.73-.62.77-1.24.14-2.5.26-3.74.37-.02,0-.04,0-.06,0-.36,0-.67-.28-.7-.64Zm-25.54.26c-1.24-.14-2.49-.3-3.73-.48-.38-.06-.65-.41-.59-.79.05-.38.41-.65.79-.59,1.22.17,2.47.33,3.69.47.38.04.66.39.62.77-.04.36-.34.62-.69.62-.03,0-.05,0-.08,0Zm32.98-1.06c-.05-.38.21-.74.59-.79,1.22-.17,2.46-.37,3.68-.58.38-.06.74.19.81.57.07.38-.19.74-.57.81-1.23.21-2.48.41-3.72.58-.03,0-.07,0-.1,0-.34,0-.64-.25-.69-.6Zm-40.43,0c-1.22-.21-2.47-.44-3.7-.69-.38-.08-.62-.45-.55-.82.08-.38.45-.62.82-.55,1.22.25,2.45.48,3.66.68.38.07.64.43.57.81-.06.34-.35.58-.69.58-.04,0-.08,0-.12-.01Zm47.82-1.22c-.08-.38.17-.75.55-.82,1.22-.24,2.44-.51,3.64-.79.38-.08.75.15.84.52.09.38-.15.75-.52.84-1.21.28-2.45.55-3.68.79-.05,0-.09.01-.14.01-.33,0-.62-.23-.69-.56Zm-55.2-.27c-1.21-.28-2.44-.58-3.65-.9-.37-.1-.6-.48-.5-.85.1-.37.48-.6.85-.5,1.2.32,2.42.62,3.61.89.38.09.61.46.52.84-.07.32-.36.54-.68.54-.05,0-.11,0-.16-.02Zm62.5-1.37c-.1-.37.13-.76.5-.85,1.2-.31,2.41-.65,3.59-.99.37-.11.76.1.87.47.11.37-.1.76-.47.87-1.19.35-2.41.69-3.63,1-.06.02-.12.02-.18.02-.31,0-.59-.21-.68-.52Zm-69.78-.54c-1.2-.35-2.41-.73-3.6-1.11-.37-.12-.57-.51-.45-.88.12-.37.51-.57.88-.45,1.17.38,2.37.75,3.56,1.1.37.11.58.5.47.87-.09.3-.37.5-.67.5-.07,0-.13,0-.2-.03Zm76.98-1.52c-.12-.37.08-.76.45-.88,1.18-.38,2.37-.79,3.54-1.2.36-.13.76.06.89.42.13.36-.06.76-.42.89-1.18.42-2.38.83-3.58,1.22-.07.02-.14.03-.22.03-.3,0-.57-.19-.67-.48Zm-84.13-.8c-1.17-.42-2.36-.86-3.53-1.32-.36-.14-.54-.55-.4-.91.14-.36.55-.54.91-.4,1.16.45,2.33.89,3.49,1.3.36.13.55.53.42.89-.1.29-.37.46-.66.46-.08,0-.16-.01-.24-.04Zm91.22-1.68c-.14-.36.04-.77.4-.91,1.15-.45,2.32-.92,3.46-1.4.36-.15.77.02.92.37.15.36-.02.77-.37.92-1.15.49-2.33.97-3.5,1.42-.08.03-.17.05-.25.05-.28,0-.54-.17-.65-.45Zm-98.22-1.05c-1.14-.48-2.29-.99-3.43-1.51-.35-.16-.51-.58-.35-.93.16-.35.58-.5.93-.35,1.13.52,2.27,1.02,3.4,1.5.36.15.52.56.37.92-.11.27-.37.43-.65.43-.09,0-.18-.02-.27-.06Zm105.15-1.83c-.16-.35,0-.77.35-.93,1.12-.51,2.26-1.05,3.37-1.6.35-.17.77-.03.94.32.17.35.03.77-.32.94-1.12.55-2.27,1.1-3.41,1.62-.09.04-.19.06-.29.06-.27,0-.52-.15-.64-.41Zm-111.98-1.29c-1.12-.55-2.24-1.12-3.34-1.71-.34-.18-.47-.6-.29-.95.18-.34.6-.47.95-.29,1.09.58,2.2,1.14,3.31,1.69.35.17.49.59.32.94-.12.25-.37.39-.63.39-.1,0-.21-.02-.31-.07Zm118.72-1.99c-.18-.34-.05-.77.29-.95,1.09-.57,2.19-1.18,3.27-1.79.34-.19.76-.07.95.26.19.34.07.76-.26.95-1.1.62-2.21,1.23-3.31,1.81-.1.06-.22.08-.33.08-.25,0-.49-.14-.62-.37Zm-125.36-1.52c-1.09-.61-2.18-1.25-3.24-1.9-.33-.2-.44-.63-.24-.96.2-.33.63-.44.96-.24,1.05.64,2.13,1.27,3.21,1.88.34.19.45.62.26.95-.13.23-.37.35-.61.35-.12,0-.24-.03-.34-.09Zm131.91-2.14c-.2-.33-.09-.76.24-.96,1.05-.64,2.12-1.3,3.16-1.97.32-.21.76-.12.97.21.21.32.12.76-.21.97-1.06.68-2.13,1.35-3.2,1.99-.11.07-.24.1-.36.1-.24,0-.47-.12-.6-.34Zm-138.34-1.75c-1.04-.67-2.09-1.37-3.13-2.08-.32-.22-.4-.65-.18-.97.22-.32.65-.4.97-.18,1.02.7,2.07,1.39,3.1,2.06.32.21.42.64.21.97-.13.21-.36.32-.59.32-.13,0-.26-.04-.38-.11Zm144.66-2.28c-.22-.32-.14-.75.18-.97,1.02-.7,2.04-1.42,3.04-2.15.31-.23.75-.16.98.15.23.31.16.75-.15.98-1.02.74-2.05,1.47-3.08,2.17-.12.08-.26.12-.39.12-.22,0-.44-.11-.58-.3Zm-150.86-1.97c-1.01-.74-2.02-1.49-3.01-2.25-.31-.24-.36-.68-.13-.98.24-.31.68-.36.98-.13.98.75,1.98,1.5,2.98,2.23.31.23.38.67.15.98-.14.19-.35.29-.57.29-.14,0-.29-.04-.41-.13Zm156.94-2.41c-.24-.31-.18-.75.13-.98.98-.76,1.96-1.54,2.92-2.32.3-.25.74-.2.98.1.25.3.2.74-.1.98-.97.79-1.96,1.58-2.95,2.34-.13.1-.28.15-.43.15-.21,0-.42-.09-.55-.27Zm-162.9-2.19c-.97-.79-1.94-1.61-2.88-2.42-.29-.25-.32-.7-.07-.99.25-.29.69-.32.99-.07.93.81,1.89,1.61,2.85,2.4.3.24.34.69.1.99-.14.17-.34.26-.54.26-.16,0-.31-.05-.44-.16Zm168.72-2.53c-.25-.29-.22-.73.07-.99.94-.81,1.87-1.65,2.78-2.48.28-.26.73-.24.99.04s.24.73-.04.99c-.92.84-1.86,1.69-2.81,2.51-.13.11-.3.17-.46.17-.2,0-.39-.08-.53-.24Zm-174.4-2.4c-.92-.84-1.84-1.71-2.74-2.58-.28-.27-.28-.71-.01-.99.27-.28.71-.28.99-.01.89.86,1.8,1.72,2.71,2.56.28.26.3.7.04.99-.14.15-.33.23-.52.23-.17,0-.34-.06-.47-.18Zm179.95-2.64c-.27-.28-.26-.72.01-.99.88-.86,1.77-1.74,2.63-2.63.27-.28.71-.28.99-.01.28.27.28.71.01.99-.87.9-1.77,1.79-2.66,2.66-.14.13-.31.2-.49.2s-.36-.07-.5-.21Zm-185.34-2.61c-.87-.89-1.74-1.81-2.59-2.73-.26-.28-.24-.73.04-.99.28-.26.73-.24.99.04.84.91,1.7,1.82,2.56,2.7.27.28.26.72-.01.99-.14.13-.31.2-.49.2s-.36-.07-.5-.21Zm190.59-2.73c-.28-.26-.3-.7-.04-.99.83-.9,1.66-1.84,2.48-2.78.25-.29.7-.32.99-.07.29.25.32.7.07.99-.82.95-1.66,1.89-2.5,2.81-.14.15-.33.23-.52.23-.17,0-.34-.06-.47-.18Zm-195.68-2.81c-.82-.94-1.64-1.91-2.43-2.88-.25-.3-.2-.74.1-.98.3-.25.74-.2.98.1.78.96,1.59,1.91,2.4,2.85.25.29.22.73-.07.99-.13.11-.3.17-.46.17-.2,0-.39-.08-.53-.24Zm200.61-2.82c-.3-.25-.34-.69-.1-.99.79-.96,1.57-1.94,2.32-2.91.24-.31.68-.36.98-.13.31.24.36.68.13.98-.76.98-1.55,1.97-2.34,2.94-.14.17-.34.26-.54.26-.16,0-.31-.05-.44-.16Zm-205.39-3.01c-.76-.98-1.52-2-2.26-3.01-.23-.31-.16-.75.15-.98.31-.23.75-.16.98.15.73,1,1.48,2.01,2.24,2.98.24.31.18.74-.13.98-.13.1-.28.15-.43.15-.21,0-.42-.09-.55-.27Zm209.99-2.89c-.31-.23-.38-.67-.15-.98.72-.99,1.44-2.01,2.15-3.04.22-.32.65-.4.97-.18.32.22.4.65.18.97-.71,1.04-1.44,2.07-2.17,3.07-.14.19-.35.29-.57.29-.14,0-.29-.04-.41-.13Zm-214.43-3.2c-.71-1.03-1.41-2.09-2.09-3.14-.21-.32-.12-.76.21-.97.32-.21.76-.12.97.21.67,1.04,1.36,2.08,2.06,3.1.22.32.14.75-.18.97-.12.08-.26.12-.4.12-.22,0-.44-.11-.58-.3Zm218.68-2.94c-.32-.21-.42-.64-.21-.97.67-1.04,1.33-2.1,1.97-3.15.2-.33.63-.44.96-.24.33.2.44.63.24.96-.65,1.07-1.31,2.14-1.99,3.19-.13.21-.36.32-.59.32-.13,0-.26-.04-.38-.11Zm-222.77-3.39c-.65-1.07-1.29-2.16-1.9-3.25-.19-.34-.07-.76.26-.95.34-.19.76-.07.95.26.61,1.08,1.24,2.16,1.88,3.22.2.33.09.76-.24.96-.11.07-.24.1-.36.1-.24,0-.47-.12-.6-.34Zm226.67-2.98c-.34-.19-.45-.62-.26-.95.61-1.07,1.21-2.17,1.78-3.26.18-.34.6-.47.95-.29.34.18.47.6.29.95-.58,1.1-1.19,2.21-1.8,3.29-.13.23-.37.35-.61.35-.12,0-.24-.03-.34-.09Zm-230.38-3.58c-.59-1.11-1.17-2.24-1.72-3.36-.17-.35-.03-.77.32-.94.35-.17.77-.03.94.32.54,1.11,1.12,2.22,1.7,3.32.18.34.05.76-.29.95-.1.06-.22.08-.33.08-.25,0-.49-.14-.62-.37Zm233.91-3.01c-.35-.17-.49-.59-.32-.94.54-1.1,1.08-2.23,1.6-3.35.16-.35.58-.51.93-.34.35.16.51.58.34.93-.52,1.14-1.06,2.28-1.61,3.39-.12.25-.37.39-.63.39-.1,0-.21-.02-.31-.07Zm-237.25-3.76c-.52-1.14-1.03-2.31-1.52-3.45-.15-.36.02-.77.37-.92.36-.15.77.02.92.37.48,1.13.99,2.28,1.5,3.42.16.35,0,.77-.35.93-.09.04-.19.06-.29.06-.27,0-.52-.15-.64-.41Zm240.39-3.01c-.36-.15-.52-.56-.37-.92.48-1.13.95-2.29,1.4-3.44.14-.36.55-.54.91-.4.36.14.54.55.4.91-.45,1.16-.93,2.33-1.41,3.47-.11.27-.37.43-.64.43-.09,0-.18-.02-.27-.06Zm-243.33-3.94c-.46-1.17-.9-2.36-1.32-3.54-.13-.36.06-.76.42-.89.36-.13.76.06.89.42.41,1.16.85,2.34,1.31,3.5.14.36-.04.77-.4.91-.08.03-.17.05-.25.05-.28,0-.54-.17-.65-.45Zm246.09-3.01c-.36-.13-.55-.53-.42-.89.42-1.17.82-2.36,1.2-3.52.12-.37.52-.57.88-.45.37.12.57.51.45.88-.39,1.18-.79,2.38-1.22,3.56-.1.29-.37.46-.66.46-.08,0-.16-.01-.24-.04Zm-248.63-4.1c-.38-1.18-.76-2.39-1.11-3.6-.11-.37.1-.76.47-.87.37-.11.76.1.87.47.35,1.19.72,2.39,1.1,3.56.12.37-.08.76-.45.88-.07.02-.14.03-.22.03-.3,0-.57-.19-.67-.48Zm250.98-3c-.37-.11-.58-.5-.47-.87.35-1.19.69-2.4,1-3.59.1-.37.48-.6.85-.5.37.1.6.48.5.85-.32,1.2-.66,2.42-1.01,3.63-.09.31-.37.5-.67.5-.07,0-.13,0-.2-.03Zm-253.1-4.22c-.32-1.2-.62-2.43-.9-3.65-.09-.38.15-.75.52-.84.38-.09.75.15.84.52.28,1.21.58,2.42.89,3.61.1.37-.13.76-.5.85-.06.02-.12.02-.18.02-.31,0-.59-.21-.68-.52Zm255.04-3.01c-.38-.09-.61-.46-.52-.84.28-1.21.55-2.43.79-3.64.08-.38.45-.62.82-.55.38.08.62.45.55.82-.25,1.22-.52,2.46-.8,3.68-.08.32-.36.54-.68.54-.05,0-.11,0-.16-.02ZM2.6,157.97c-.25-1.22-.48-2.47-.69-3.7-.07-.38.19-.74.57-.81.38-.06.74.19.81.57.21,1.22.44,2.45.68,3.66.08.38-.17.75-.55.82-.05,0-.09.01-.14.01-.33,0-.62-.23-.69-.56Zm258.26-3.01c-.38-.07-.64-.43-.57-.81.21-1.22.41-2.46.58-3.68.06-.38.41-.65.79-.59.38.06.65.41.59.79-.18,1.23-.37,2.48-.59,3.72-.06.34-.35.58-.69.58-.04,0-.08,0-.12,0ZM1.32,150.55c-.18-1.24-.34-2.5-.48-3.73-.04-.38.23-.73.62-.77.38-.05.73.23.77.62.14,1.22.3,2.46.47,3.69.05.38-.21.74-.59.79-.03,0-.07,0-.1,0-.34,0-.64-.25-.69-.6Zm260.64-2.99c-.38-.04-.66-.39-.62-.77.14-1.23.27-2.48.37-3.7.03-.39.37-.67.76-.64.38.03.67.37.64.76-.11,1.24-.23,2.5-.37,3.74-.04.36-.34.62-.69.62-.03,0-.05,0-.08,0ZM.48,143.07c-.11-1.25-.19-2.51-.26-3.75-.02-.39.27-.72.66-.74.38,0,.72.27.74.66.07,1.23.16,2.48.26,3.71.03.39-.25.72-.64.76-.02,0-.04,0-.06,0-.36,0-.67-.28-.7-.64Zm262.17-2.97c-.39-.02-.68-.35-.66-.74.07-1.23.12-2.49.16-3.72.01-.38.32-.68.7-.68,0,0,.01,0,.02,0,.39.01.69.33.68.72-.04,1.25-.09,2.51-.16,3.76-.02.37-.33.66-.7.66-.01,0-.03,0-.04,0ZM.05,135.56C.02,134.31,0,133.04,0,131.8v-.25c0-.39.31-.7.7-.7s.7.31.7.7v.25c0,1.23.02,2.48.05,3.72.01.39-.29.71-.68.72,0,0-.01,0-.02,0-.38,0-.69-.3-.7-.68Zm262.15-3.64v-.12c0-1.2-.02-2.41-.05-3.6-.01-.39.29-.71.68-.72.38-.03.71.29.72.68.03,1.2.05,2.43.05,3.64v.12c0,.39-.31.7-.7.7s-.7-.31-.7-.7ZM.74,128.51c-.39-.01-.69-.33-.68-.72.04-1.24.09-2.51.17-3.76.02-.39.36-.69.74-.66.39.02.68.35.66.74-.07,1.24-.13,2.49-.16,3.72-.01.38-.32.68-.7.68,0,0-.01,0-.02,0Zm261.26-4.03c-.07-1.23-.15-2.48-.26-3.71-.03-.39.25-.72.64-.76.39-.02.72.25.76.64.1,1.25.19,2.51.26,3.75.02.39-.27.72-.66.74-.01,0-.03,0-.04,0-.37,0-.68-.29-.7-.66ZM1.13,121.03c-.38-.03-.67-.37-.64-.76.11-1.25.24-2.51.38-3.74.04-.38.39-.66.78-.62.38.04.66.39.62.78-.14,1.22-.27,2.47-.37,3.7-.03.36-.34.64-.7.64-.02,0-.04,0-.06,0Zm260.24-3.97c-.14-1.23-.3-2.47-.47-3.69-.05-.38.21-.74.59-.79.38-.05.74.21.79.6.17,1.24.33,2.49.47,3.73.04.38-.23.73-.62.77-.03,0-.05,0-.08,0-.35,0-.65-.26-.69-.62ZM1.95,113.59c-.38-.06-.65-.41-.59-.79.18-1.24.38-2.49.59-3.72.07-.38.43-.64.81-.57.38.07.64.43.57.81-.21,1.21-.41,2.45-.58,3.68-.05.35-.35.6-.69.6-.03,0-.07,0-.1,0Zm258.38-3.91c-.21-1.22-.44-2.45-.68-3.66-.08-.38.17-.75.55-.82.38-.07.75.17.82.55.25,1.22.48,2.47.69,3.7.07.38-.19.74-.57.81-.04,0-.08.01-.12.01-.33,0-.63-.24-.69-.58ZM3.19,106.21c-.38-.08-.62-.45-.55-.83.25-1.22.52-2.45.8-3.68.09-.38.46-.61.84-.52.38.09.61.46.52.84-.28,1.21-.55,2.43-.79,3.64-.07.33-.36.56-.68.56-.05,0-.09,0-.14-.01Zm255.68-3.82c-.28-1.2-.57-2.42-.89-3.62-.1-.37.13-.76.5-.85.37-.1.76.13.85.5.32,1.21.62,2.44.9,3.65.09.38-.15.75-.52.84-.05.01-.11.02-.16.02-.32,0-.61-.22-.68-.54Zm-254.01-3.47c-.37-.1-.6-.48-.5-.86.32-1.21.66-2.43,1.01-3.62.11-.37.5-.58.87-.47.37.11.58.5.47.87-.35,1.18-.69,2.39-1,3.59-.08.31-.37.52-.68.52-.06,0-.12,0-.18-.02Zm252.13-3.73c-.34-1.18-.71-2.38-1.09-3.56-.12-.37.08-.76.45-.88.37-.12.76.08.88.45.39,1.19.76,2.4,1.11,3.6.11.37-.1.76-.48.87-.07.02-.13.03-.2.03-.3,0-.58-.2-.67-.5Zm-250.05-3.46c-.37-.12-.57-.51-.45-.88.39-1.19.8-2.38,1.22-3.56.13-.36.53-.55.9-.42.36.13.55.53.42.9-.42,1.16-.82,2.35-1.21,3.52-.1.3-.37.48-.67.48-.07,0-.14-.01-.22-.03Zm247.76-3.64c-.42-1.17-.85-2.34-1.3-3.5-.14-.36.04-.77.4-.91.36-.14.77.04.91.4.45,1.17.9,2.36,1.32,3.54.13.36-.06.76-.42.89-.08.03-.16.04-.23.04-.29,0-.56-.18-.66-.47Zm-245.27-3.42c-.36-.14-.54-.55-.4-.91.45-1.15.93-2.32,1.42-3.47.15-.36.56-.52.92-.37.36.15.52.56.37.92-.48,1.14-.96,2.3-1.4,3.44-.11.28-.37.44-.65.44-.09,0-.17-.02-.26-.05Zm242.56-3.54c-.48-1.14-.99-2.29-1.5-3.42-.16-.35,0-.77.35-.93.35-.16.77,0,.93.35.52,1.14,1.03,2.3,1.52,3.45.15.36-.02.77-.37.92-.09.04-.18.06-.27.06-.27,0-.53-.16-.65-.43Zm-239.68-3.35c-.35-.16-.51-.58-.34-.93.52-1.13,1.06-2.27,1.62-3.39.17-.35.59-.49.94-.32.35.17.49.59.32.94-.55,1.11-1.09,2.24-1.6,3.35-.12.26-.37.41-.64.41-.1,0-.2-.02-.29-.06Zm236.58-3.44c-.55-1.11-1.12-2.23-1.69-3.32-.18-.34-.05-.76.29-.95.34-.18.77-.05.95.29.58,1.1,1.16,2.23,1.71,3.36.17.35.03.77-.32.94-.1.05-.2.07-.31.07-.26,0-.51-.14-.63-.39Zm-233.31-3.27c-.34-.18-.47-.61-.29-.95.59-1.11,1.2-2.21,1.81-3.29.19-.34.62-.45.95-.26.34.19.45.62.26.95-.61,1.07-1.21,2.16-1.79,3.26-.13.24-.37.37-.62.37-.11,0-.22-.03-.33-.08Zm229.82-3.33c-.61-1.08-1.24-2.16-1.88-3.22-.2-.33-.09-.76.24-.96.33-.2.76-.09.96.24.65,1.07,1.28,2.16,1.9,3.25.19.34.07.76-.26.95-.11.06-.23.09-.34.09-.24,0-.48-.13-.61-.36Zm-226.17-3.19c-.33-.2-.44-.63-.24-.96.65-1.07,1.32-2.14,1.99-3.18.21-.33.64-.42.97-.21.32.21.42.64.21.97-.67,1.03-1.33,2.09-1.97,3.15-.13.22-.36.34-.6.34-.12,0-.25-.03-.36-.1Zm222.32-3.2c-.67-1.04-1.36-2.09-2.06-3.11-.22-.32-.14-.75.18-.97.32-.22.75-.14.97.18.7,1.03,1.41,2.08,2.08,3.14.21.33.11.76-.21.97-.12.08-.25.11-.38.11-.23,0-.46-.11-.59-.32Zm-218.3-3.1c-.32-.22-.4-.65-.18-.97.7-1.03,1.44-2.06,2.17-3.07.23-.31.67-.38.98-.15.31.23.38.67.15.98-.73,1-1.45,2.02-2.15,3.04-.14.2-.35.3-.58.3-.14,0-.27-.04-.4-.12Zm214.09-3.05c-.73-1-1.48-2.01-2.23-2.98-.24-.31-.18-.75.13-.98.31-.24.74-.18.98.13.76.99,1.52,2,2.26,3.01.23.31.16.75-.15.98-.12.09-.27.13-.41.13-.22,0-.43-.1-.57-.29Zm-209.71-3.02c-.31-.24-.36-.68-.13-.98.76-.98,1.54-1.97,2.34-2.94.25-.3.69-.34.99-.1.3.25.34.69.1.99-.79.96-1.57,1.94-2.32,2.91-.14.18-.34.27-.55.27-.15,0-.3-.05-.43-.15Zm205.16-2.88c-.78-.95-1.58-1.91-2.4-2.85-.25-.29-.22-.73.07-.99.29-.25.73-.22.99.07.82.95,1.64,1.92,2.42,2.88.24.3.2.74-.1.98-.13.11-.29.16-.44.16-.2,0-.4-.09-.54-.26Zm-200.45-2.93c-.29-.25-.32-.7-.07-.99.82-.94,1.66-1.89,2.51-2.8.26-.28.7-.3.99-.04s.3.7.04.99c-.84.91-1.67,1.84-2.48,2.77-.14.16-.33.24-.53.24-.16,0-.33-.06-.46-.17Zm195.57-2.7c-.84-.91-1.7-1.82-2.56-2.71-.27-.28-.26-.72.01-.99.28-.27.72-.26.99.01.87.89,1.74,1.81,2.58,2.74.26.28.24.73-.04.99-.13.12-.3.18-.47.18-.19,0-.38-.08-.52-.23Zm-190.53-2.83c-.28-.27-.28-.71-.01-.99.88-.9,1.78-1.8,2.66-2.66.28-.27.72-.26.99.02.27.28.26.72-.02.99-.88.85-1.77,1.74-2.64,2.63-.14.14-.32.21-.5.21s-.35-.07-.49-.2Zm185.34-2.51c-.88-.86-1.79-1.72-2.7-2.56-.28-.26-.3-.7-.04-.99.26-.28.7-.3.99-.04.92.85,1.84,1.72,2.73,2.59.28.27.28.71.01.99-.14.14-.32.21-.5.21s-.35-.07-.49-.2Zm-180-2.73c-.26-.28-.24-.73.04-.99.91-.84,1.86-1.68,2.81-2.5.29-.25.73-.22.99.07.25.29.22.73-.07.99-.94.81-1.88,1.65-2.78,2.48-.13.12-.3.18-.47.18-.19,0-.38-.08-.52-.23Zm174.52-2.31c-.93-.81-1.89-1.62-2.84-2.4-.3-.24-.34-.69-.1-.98.24-.3.69-.34.98-.1.96.79,1.93,1.6,2.87,2.42.29.25.32.7.07.99-.14.16-.33.24-.53.24-.16,0-.33-.06-.46-.17Zm-168.88-2.62c-.24-.3-.2-.74.1-.98.97-.79,1.96-1.58,2.95-2.34.31-.24.75-.18.98.13.24.31.18.75-.13.98-.98.75-1.96,1.53-2.92,2.32-.13.11-.29.16-.44.16-.2,0-.4-.09-.54-.26Zm163.13-2.09c-.98-.76-1.98-1.51-2.97-2.23-.31-.23-.38-.67-.15-.98.23-.31.67-.38.98-.15,1.01.73,2.02,1.49,3.01,2.26.31.24.36.68.13.98-.14.18-.34.27-.55.27-.15,0-.3-.05-.43-.15Zm-157.22-2.51c-.23-.31-.16-.75.15-.98,1.01-.73,2.04-1.46,3.08-2.17.32-.22.75-.14.97.18.22.32.14.75-.18.97-1.03.7-2.05,1.42-3.05,2.15-.12.09-.27.13-.41.13-.22,0-.43-.1-.57-.29Zm151.21-1.87c-1.02-.7-2.06-1.39-3.1-2.06-.32-.21-.42-.64-.21-.97.21-.32.64-.42.97-.21,1.05.68,2.1,1.38,3.13,2.08.32.22.4.65.18.97-.14.2-.35.3-.58.3-.14,0-.27-.04-.4-.12Zm-145.04-2.39c-.21-.33-.11-.76.21-.97,1.06-.68,2.14-1.35,3.2-1.99.33-.2.76-.09.96.24.2.33.09.76-.24.96-1.05.63-2.12,1.3-3.17,1.97-.12.08-.25.11-.38.11-.23,0-.46-.11-.59-.32Zm138.79-1.64c-1.05-.64-2.13-1.27-3.21-1.88-.34-.19-.45-.62-.26-.95.19-.34.62-.45.95-.26,1.08.62,2.17,1.25,3.24,1.9.33.2.44.63.24.96-.13.22-.36.34-.6.34-.12,0-.25-.03-.36-.1Zm-132.39-2.27c-.19-.34-.07-.76.27-.95,1.09-.62,2.2-1.22,3.31-1.81.34-.18.77-.05.95.29.18.34.05.77-.29.95-1.09.58-2.2,1.18-3.27,1.79-.11.06-.23.09-.34.09-.24,0-.48-.13-.61-.36Zm125.93-1.4c-1.1-.58-2.21-1.15-3.31-1.69-.35-.17-.49-.59-.32-.94.17-.35.59-.49.94-.32,1.11.55,2.23,1.12,3.34,1.71.34.18.47.6.29.95-.13.24-.37.37-.62.37-.11,0-.22-.03-.33-.08Zm-119.32-2.14c-.17-.35-.03-.77.32-.94,1.13-.55,2.28-1.1,3.41-1.61.35-.16.77,0,.93.35.16.35,0,.77-.35.93-1.12.51-2.26,1.05-3.37,1.6-.1.05-.2.07-.31.07-.26,0-.51-.14-.63-.39Zm112.66-1.15c-1.13-.52-2.27-1.02-3.4-1.5-.36-.15-.52-.56-.37-.92.15-.36.56-.52.92-.37,1.14.48,2.29.99,3.43,1.51.35.16.51.58.34.93-.12.26-.37.41-.64.41-.1,0-.2-.02-.29-.06Zm-105.85-2c-.15-.36.02-.77.37-.92,1.16-.49,2.34-.97,3.5-1.42.36-.14.77.04.91.4.14.36-.04.77-.4.91-1.15.45-2.31.92-3.46,1.4-.09.04-.18.06-.27.06-.27,0-.53-.16-.65-.43Zm99.01-.9c-1.15-.45-2.32-.89-3.49-1.31-.36-.13-.55-.53-.42-.89.13-.36.53-.55.89-.42,1.17.42,2.36.86,3.52,1.32.36.14.54.55.4.91-.11.28-.37.45-.65.45-.09,0-.17-.02-.25-.05Zm-92.03-1.85c-.13-.36.06-.76.42-.89,1.17-.42,2.37-.82,3.58-1.21.37-.12.76.08.88.45.12.37-.08.76-.45.88-1.19.38-2.38.79-3.54,1.2-.08.03-.16.04-.23.04-.29,0-.56-.18-.66-.47Zm85.02-.66c-1.18-.38-2.37-.75-3.56-1.1-.37-.11-.58-.5-.47-.87.11-.37.5-.58.87-.47,1.2.35,2.41.73,3.59,1.12.37.12.57.51.45.88-.1.3-.37.48-.67.48-.07,0-.14-.01-.22-.03Zm-77.9-1.68c-.11-.37.11-.76.48-.87,1.21-.35,2.43-.69,3.63-1,.37-.1.76.13.85.5.1.37-.13.76-.5.85-1.19.31-2.4.64-3.59.99-.07.02-.13.03-.2.03-.3,0-.58-.2-.67-.5Zm70.75-.42c-1.2-.32-2.41-.62-3.61-.9-.38-.09-.61-.46-.52-.84.09-.38.46-.61.84-.52,1.21.28,2.44.59,3.65.91.37.1.6.48.5.86-.08.31-.37.52-.68.52-.06,0-.12,0-.18-.02Zm-63.52-1.5c-.09-.38.15-.75.52-.84,1.22-.28,2.46-.55,3.68-.79.38-.08.75.17.82.55s-.17.75-.55.82c-1.21.24-2.44.51-3.64.78-.05.01-.11.02-.16.02-.32,0-.61-.22-.68-.54Zm56.27-.19c-1.21-.24-2.44-.48-3.66-.69-.38-.07-.64-.43-.57-.81.07-.38.43-.63.81-.57,1.23.21,2.48.45,3.7.7.38.08.62.45.55.83-.07.33-.36.56-.68.56-.05,0-.09,0-.14-.01Zm-48.93-1.32c-.07-.38.19-.74.57-.81,1.23-.21,2.48-.4,3.72-.58.38-.05.74.21.79.6.05.38-.21.74-.6.79-1.23.17-2.46.37-3.68.57-.04,0-.08.01-.12.01-.33,0-.63-.24-.69-.58Zm41.6.05c-1.23-.18-2.48-.34-3.69-.48-.38-.04-.66-.39-.62-.77.04-.38.38-.66.77-.62,1.23.14,2.48.3,3.73.48.38.05.65.41.59.79-.05.35-.35.6-.69.6-.03,0-.07,0-.1,0Zm-34.19-1.14c-.04-.38.23-.73.62-.77,1.24-.14,2.5-.26,3.74-.37.39-.02.72.25.76.64.03.39-.25.72-.64.76-1.24.1-2.48.22-3.71.36-.03,0-.05,0-.08,0-.35,0-.65-.26-.69-.62Zm26.79.29c-1.24-.11-2.49-.2-3.71-.27-.39-.02-.68-.35-.66-.74.02-.39.35-.68.74-.66,1.23.07,2.5.16,3.75.27.39.03.67.37.64.76-.03.36-.34.64-.7.64-.02,0-.04,0-.06,0Zm-19.34-.95c-.02-.39.27-.72.66-.74,1.25-.07,2.52-.12,3.76-.15.39-.03.71.29.72.68.01.39-.29.71-.68.72-1.23.03-2.48.08-3.72.15-.01,0-.03,0-.04,0-.37,0-.68-.29-.7-.66Zm11.9.52c-1.23-.04-2.48-.06-3.72-.06-.39,0-.7-.31-.7-.7,0-.39.31-.7.7-.7h0c1.25,0,2.52.02,3.76.06.39.01.69.33.68.72-.01.38-.32.68-.7.68,0,0-.01,0-.02,0Z" style="fill: #81bd5b;"/>
    </g>
  </g>
</svg>