<?xml version="1.0" encoding="UTF-8"?>
<svg xmlns="http://www.w3.org/2000/svg" width="390.48" height="272.4" viewBox="0 0 390.48 272.4">
  <g style="isolation: isolate;">
    <g id="_圖層_2" data-name="圖層 2">
      <g id="_圖層_6" data-name="圖層 6">
        <g id="county_governments">
          <path d="m15.01,212.86h360.46c8.28,0,15.01,6.73,15.01,15.01v7.95c0,8.28-6.73,15.01-15.01,15.01H15.01c-8.28,0-15.01-6.73-15.01-15.01v-7.95c0-8.28,6.73-15.01,15.01-15.01Z" style="fill: #71ad28;"/>
          <polygon points="127.14 219.04 263.33 219.04 281.05 249.51 109.43 249.51 127.14 219.04" style="fill: #9ea0a3; fill-rule: evenodd;"/>
          <g>
            <g>
              <g>
                <polygon points="157.54 20.65 73.35 48.83 73.35 221.31 157.54 221.31 157.54 20.65" style="fill: #bfc9d3; fill-rule: evenodd;"/>
                <polygon points="151.3 27.91 79.59 52.18 79.59 209.51 151.3 209.51 151.3 27.91" style="fill: #2e687c; fill-rule: evenodd;"/>
                <g>
                  <rect x="76.79" y="200.39" width="74.52" height="1.82" style="fill: #bfc9d3;"/>
                  <rect x="76.79" y="191.27" width="74.52" height="1.82" style="fill: #bfc9d3;"/>
                  <rect x="76.79" y="182.15" width="74.52" height="1.82" style="fill: #bfc9d3;"/>
                  <rect x="76.79" y="173.03" width="74.52" height="1.82" style="fill: #bfc9d3;"/>
                  <rect x="76.79" y="163.91" width="74.52" height="1.82" style="fill: #bfc9d3;"/>
                  <rect x="76.79" y="154.79" width="74.52" height="1.82" style="fill: #bfc9d3;"/>
                  <rect x="76.79" y="145.67" width="74.52" height="1.82" style="fill: #bfc9d3;"/>
                  <rect x="76.79" y="136.55" width="74.52" height="1.82" style="fill: #bfc9d3;"/>
                  <rect x="76.79" y="127.43" width="74.52" height="1.82" style="fill: #bfc9d3;"/>
                  <rect x="76.79" y="118.31" width="74.52" height="1.82" style="fill: #bfc9d3;"/>
                  <rect x="76.79" y="109.19" width="74.52" height="1.82" style="fill: #bfc9d3;"/>
                  <rect x="76.79" y="100.07" width="74.52" height="1.82" style="fill: #bfc9d3;"/>
                  <rect x="76.79" y="90.95" width="74.52" height="1.82" style="fill: #bfc9d3;"/>
                  <rect x="76.79" y="81.83" width="74.52" height="1.82" style="fill: #bfc9d3;"/>
                  <rect x="76.79" y="72.71" width="74.52" height="1.82" style="fill: #bfc9d3;"/>
                  <rect x="76.79" y="63.59" width="74.52" height="1.82" style="fill: #bfc9d3;"/>
                  <rect x="76.79" y="54.47" width="74.52" height="1.82" style="fill: #bfc9d3;"/>
                  <rect x="89.65" y="45.36" width="61.66" height="1.82" style="fill: #bfc9d3;"/>
                  <rect x="118.1" y="36.24" width="33.21" height="1.82" style="fill: #bfc9d3;"/>
                </g>
              </g>
              <g>
                <polygon points="232.94 0 317.12 31.08 317.12 221.31 232.94 221.31 232.94 0" style="fill: #bfc9d3; fill-rule: evenodd;"/>
                <polygon points="239.17 8.01 310.89 34.78 310.89 208.3 239.17 208.3 239.17 8.01" style="fill: #2e687c; fill-rule: evenodd;"/>
                <g>
                  <rect x="239.17" y="198.24" width="74.52" height="2.01" style="fill: #bfc9d3;"/>
                  <rect x="239.17" y="188.18" width="74.52" height="2.01" style="fill: #bfc9d3;"/>
                  <rect x="239.17" y="178.12" width="74.52" height="2.01" style="fill: #bfc9d3;"/>
                  <rect x="239.17" y="168.06" width="74.52" height="2.01" style="fill: #bfc9d3;"/>
                  <rect x="239.17" y="158.01" width="74.52" height="2.01" style="fill: #bfc9d3;"/>
                  <rect x="239.17" y="147.95" width="74.52" height="2.01" style="fill: #bfc9d3;"/>
                  <rect x="239.17" y="137.89" width="74.52" height="2.01" style="fill: #bfc9d3;"/>
                  <rect x="239.17" y="127.83" width="74.52" height="2.01" style="fill: #bfc9d3;"/>
                  <rect x="239.17" y="117.77" width="74.52" height="2.01" style="fill: #bfc9d3;"/>
                  <rect x="239.17" y="107.71" width="74.52" height="2.01" style="fill: #bfc9d3;"/>
                  <rect x="239.17" y="97.66" width="74.52" height="2.01" style="fill: #bfc9d3;"/>
                  <rect x="239.17" y="87.6" width="74.52" height="2.01" style="fill: #bfc9d3;"/>
                  <rect x="239.17" y="77.54" width="74.52" height="2.01" style="fill: #bfc9d3;"/>
                  <rect x="239.17" y="67.48" width="74.52" height="2.01" style="fill: #bfc9d3;"/>
                  <rect x="239.17" y="57.42" width="74.52" height="2.01" style="fill: #bfc9d3;"/>
                  <rect x="239.17" y="47.37" width="74.52" height="2.01" style="fill: #bfc9d3;"/>
                  <rect x="239.17" y="37.31" width="74.52" height="2.01" style="fill: #bfc9d3;"/>
                  <rect x="239.17" y="27.25" width="61.66" height="2.01" style="fill: #bfc9d3;"/>
                  <rect x="239.17" y="17.19" width="33.21" height="2.01" style="fill: #bfc9d3;"/>
                </g>
              </g>
            </g>
            <polygon points="232.94 70.35 249.94 56.42 317.12 111.47 317.12 221.31 232.94 221.31 232.94 100.99 232.94 70.35" style="fill: #2e687c; fill-rule: evenodd; mix-blend-mode: multiply; opacity: .5;"/>
            <rect x="135.13" y="195.97" width="120.21" height="22.35" style="fill: #2e687c;"/>
            <g>
              <rect x="135.48" y="206.2" width="119.52" height="1.9" style="fill: #bfc9d3;"/>
              <g>
                <g>
                  <rect x="232.53" y="195.97" width="1.16" height="22.57" style="fill: #bfc9d3;"/>
                  <rect x="243.36" y="195.97" width="1.16" height="22.57" style="fill: #bfc9d3;"/>
                  <rect x="254.18" y="195.97" width="1.16" height="22.57" style="fill: #bfc9d3;"/>
                </g>
                <rect x="135.14" y="195.97" width="1.16" height="22.57" style="fill: #bfc9d3;"/>
                <rect x="145.96" y="195.97" width="1.16" height="22.57" style="fill: #bfc9d3;"/>
                <rect x="156.78" y="195.97" width="1.16" height="22.57" style="fill: #bfc9d3;"/>
                <rect x="167.6" y="195.97" width="1.16" height="22.57" style="fill: #bfc9d3;"/>
                <rect x="178.43" y="195.97" width="1.16" height="22.57" style="fill: #e6e6e6;"/>
                <rect x="189.25" y="195.97" width="1.16" height="22.57" style="fill: #e6e6e6;"/>
                <rect x="200.07" y="195.97" width="1.16" height="22.57" style="fill: #e6e6e6;"/>
                <rect x="210.89" y="195.97" width="1.16" height="22.57" style="fill: #e6e6e6;"/>
                <rect x="221.71" y="195.97" width="1.16" height="22.57" style="fill: #bfc9d3;"/>
              </g>
            </g>
            <rect x="147.34" y="97.99" width="95.79" height="8.31" style="fill: #c9c9c9;"/>
            <rect x="134.24" y="106.3" width="122" height="91.49" style="fill: #bfc9d3;"/>
            <g>
              <rect x="136.66" y="112.85" width="117.16" height="5.18" style="fill: #2e687c;"/>
              <rect x="136.66" y="119.12" width="117.16" height="5.18" style="fill: #2e687c;"/>
              <rect x="136.66" y="125.4" width="117.16" height="5.18" style="fill: #2e687c;"/>
              <rect x="136.66" y="131.67" width="117.16" height="5.18" style="fill: #2e687c;"/>
              <rect x="136.66" y="137.94" width="117.16" height="5.18" style="fill: #2e687c;"/>
              <rect x="136.66" y="144.21" width="117.16" height="5.18" style="fill: #2e687c;"/>
              <rect x="136.66" y="150.48" width="117.16" height="5.18" style="fill: #2e687c;"/>
              <rect x="136.66" y="156.76" width="117.16" height="5.18" style="fill: #2e687c;"/>
              <rect x="136.66" y="163.03" width="117.16" height="5.18" style="fill: #2e687c;"/>
              <rect x="136.66" y="169.3" width="117.16" height="5.18" style="fill: #2e687c;"/>
              <rect x="136.66" y="175.57" width="117.16" height="5.18" style="fill: #2e687c;"/>
              <rect x="136.66" y="181.84" width="117.16" height="5.18" style="fill: #2e687c;"/>
              <rect x="136.66" y="188.12" width="117.16" height="5.18" style="fill: #2e687c;"/>
            </g>
            <g>
              <rect x="150.53" y="106.97" width="4.45" height="89.22" style="fill: #bfc9d3;"/>
              <rect x="234.07" y="106.97" width="4.45" height="89.22" style="fill: #bfc9d3;"/>
            </g>
            <polygon points="243.13 98.4 243.13 98.4 243.13 106.3 155.68 106.3 147.34 98.41 243.13 98.4" style="fill: #d6d6d6; fill-rule: evenodd; mix-blend-mode: multiply; opacity: .5;"/>
            <rect x="140.54" y="56.42" width="109.39" height="42.58" style="fill: #f2f4f3;"/>
            <rect x="178.38" y="196.67" width="33.71" height="21.44" style="fill: #c9c9c9;"/>
            <rect x="176.34" y="195.51" width="37.79" height="1.15" style="fill: #e6e6e6;"/>
            <rect x="182.84" y="200.52" width="24.79" height="17.12" style="fill: #f2f4f3;"/>
            <rect x="183.76" y="201.2" width="22.96" height="15.44" style="fill: #2e687c;"/>
            <rect x="188.25" y="200.84" width="1.14" height="16.86" style="fill: #f2f4f3;"/>
            <rect x="201.09" y="200.84" width="1.14" height="16.86" style="fill: #f2f4f3;"/>
            <rect x="183.35" y="204.2" width="23.78" height=".93" style="fill: #f2f4f3;"/>
            <rect x="194.67" y="204.86" width="1.14" height="11.9" style="fill: #f2f4f3;"/>
            <g>
              <rect x="193.09" y="207.75" width=".57" height="5.84" style="fill: #f2f4f3;"/>
              <rect x="196.82" y="207.75" width=".57" height="5.84" style="fill: #f2f4f3;"/>
            </g>
            <polygon points="176.32 196.39 213.82 196.13 239.79 217.37 201.96 217.37 176.32 196.39" style="fill: #595959; fill-rule: evenodd; mix-blend-mode: multiply; opacity: .5;"/>
            <rect x="131.82" y="217.37" width="126.85" height="3.94" style="fill: #c9c9c9;"/>
            <rect x="143.4" y="58.35" width="103.64" height="38.51" style="fill: #1f4963;"/>
            <g>
              <rect x="142.76" y="58.06" width="1.23" height="38.7" style="fill: #f2f4f3;"/>
              <rect x="154.28" y="58.06" width="1.23" height="38.7" style="fill: #f2f4f3;"/>
              <rect x="165.81" y="58.06" width="1.24" height="38.7" style="fill: #f2f4f3;"/>
              <rect x="177.33" y="58.06" width="1.23" height="38.7" style="fill: #f2f4f3;"/>
              <rect x="188.86" y="58.06" width="1.23" height="38.7" style="fill: #f2f4f3;"/>
              <rect x="200.38" y="58.06" width="1.24" height="38.7" style="fill: #f2f4f3;"/>
              <rect x="142.76" y="95.33" width="104.77" height="2.02" style="fill: #f2f4f3;"/>
              <rect x="142.76" y="86.39" width="104.77" height="1.01" style="fill: #f2f4f3;"/>
              <rect x="142.76" y="76.44" width="104.77" height="2.02" style="fill: #f2f4f3;"/>
              <rect x="142.76" y="67.5" width="104.77" height="1.01" style="fill: #f2f4f3;"/>
              <rect x="142.76" y="58.06" width="104.77" height="1.01" style="fill: #f2f4f3;"/>
              <g>
                <rect x="200.38" y="58.06" width="1.24" height="38.7" style="fill: #f2f4f3;"/>
                <rect x="211.91" y="58.06" width="1.23" height="38.7" style="fill: #f2f4f3;"/>
                <rect x="223.43" y="58.06" width="1.23" height="38.7" style="fill: #f2f4f3;"/>
                <rect x="234.96" y="58.06" width="1.23" height="38.7" style="fill: #f2f4f3;"/>
                <rect x="246.49" y="58.06" width="1.23" height="38.7" style="fill: #f2f4f3;"/>
              </g>
            </g>
          </g>
          <g>
            <path d="m76.65,190.87h0c1.03,0,1.87,1.22,1.87,2.71v39.5c0,1.49-.84,2.72-1.87,2.72h0c-1.03,0-1.87-1.22-1.87-2.72v-39.5c0-1.49.84-2.71,1.87-2.71Z" style="fill: #786200; fill-rule: evenodd;"/>
            <g>
              <path d="m76.65,208.08h0c39.81-8.46,6.33-62.67,0-59.89-6.33-2.78-39.81,51.43,0,59.89h0Z" style="fill: #507b1c; fill-rule: evenodd;"/>
              <path d="m76.65,208.08h0c26.19-8.46,4.16-62.67,0-59.89-4.16-2.78-26.19,51.43,0,59.89h0Z" style="fill: #71ad28; fill-rule: evenodd;"/>
              <path d="m76.65,208.08h0c6.49-8.46,1.03-62.67,0-59.89-1.03-2.78-6.49,51.43,0,59.89h0Z" style="fill: #83c236; fill-rule: evenodd;"/>
            </g>
            <path d="m71.46,233.65h10.38c.93,0,1.69,1.1,1.69,2.45h0c0,1.34-.76,2.45-1.69,2.45h-10.38c-.93,0-1.68-1.1-1.68-2.45h0c0-1.35.76-2.45,1.68-2.45Z" style="fill: #507b1c; fill-rule: evenodd;"/>
          </g>
          <g>
            <path d="m305.18,192.75h0c1.03,0,1.87,1.22,1.87,2.72v39.5c0,1.49-.84,2.71-1.87,2.71h0c-1.03,0-1.87-1.22-1.87-2.71v-39.5c0-1.49.84-2.72,1.87-2.72Z" style="fill: #786200; fill-rule: evenodd;"/>
            <g>
              <path d="m305.18,209.96h0c39.81-8.46,6.33-62.67,0-59.89-6.33-2.78-39.81,51.43,0,59.89h0Z" style="fill: #507b1c; fill-rule: evenodd;"/>
              <path d="m305.18,209.96h0c26.19-8.46,4.16-62.67,0-59.89-4.16-2.78-26.19,51.43,0,59.89h0Z" style="fill: #71ad28; fill-rule: evenodd;"/>
              <path d="m305.18,209.96h0c6.49-8.46,1.03-62.67,0-59.89-1.03-2.78-6.49,51.43,0,59.89h0Z" style="fill: #83c236; fill-rule: evenodd;"/>
            </g>
            <path d="m299.99,235.53h10.38c.93,0,1.69,1.1,1.69,2.45h0c0,1.35-.76,2.45-1.69,2.45h-10.38c-.93,0-1.69-1.1-1.69-2.45h0c0-1.35.76-2.45,1.69-2.45Z" style="fill: #507b1c; fill-rule: evenodd;"/>
          </g>
          <g>
            <path d="m254.03,248.8c-.11,1.35-.56,6.02-.07,7.5-.07,2.68-2.86,2.01-3.24.75l-1.76-5.87,5.07-2.38Z" style="fill: #f0c17d; fill-rule: evenodd;"/>
            <g>
              <path d="m252.87,255.65c.52.62,2.06.72,3.21,2.03,2.03,2.29,3.63,5.39,5.29,7.3.41.47,1.59,1.35,2.04,2.06.22.57-1.93,1.77-2.06,1.84-.28.19-3.34,2.21-2.8.29.19-.69,1.95-1.63,1.79-2.38-.07-.1-.13-.2-.19-.3-.04-.06-.09-.11-.13-.16-1.2-1.38-9-8.29-9.2-8.89-.22-2.36-.29-3.82,2.05-1.77Z" style="fill: #f0c17d; fill-rule: evenodd;"/>
              <path d="m259.04,268.47c-.11.13-.74.68-.78.79-.22.73.52,1.23,1.08,1.15.67-.1,1.59-.81,2.18-1.21.49-.26,2.53-1.2,2.08-2.01-.25-.46-.78-1.04-1.41-1.46-.3.77-.22,1.32-.96,2.02-.65.62-1.38,1.22-1.82,1.25-.2.01-.31-.28-.37-.54Z" style="fill: #1f1c1d; fill-rule: evenodd;"/>
            </g>
            <path d="m248.22,222.77c.39,1.88-.02,2.3-.31,2.53l-1.38,1.1,4.78,1.04-1.18-5.31-1.91.64Z" style="fill: #f0c17d; fill-rule: evenodd;"/>
            <path d="m244.14,243.56c-.1,1.67-2.08,9.51-2.65,12.75.42,1.47,2.12,1.81,3.05,2.21-.18-.81.07-1.22.25-1.74,1.26-3.57,5.3-9.75,5.82-11.89l-6.46-1.32Z" style="fill: #ffdba7; fill-rule: evenodd;"/>
            <g>
              <path d="m241.55,257.05c.11,1.23-.31,3.08-.13,4.3.5,3.34,1.17,4.74,1.38,8.11-.32.45-1.31.39-2.15.42-.6.02-.92.25-.67.95.31.9,1.09.47,2.18.58.75.15,3.31.68,2.95-.9-.16-.69-.4-1.44-.4-2.01,0-2.37.27-4.5.21-7.28-.02-.88-.24-2.01-.34-3.1-.09-1.03-.07-1.26.03-2.09.17-1.42-3.59-1.45-3.05,1.01Z" style="fill: #ffdba7; fill-rule: evenodd;"/>
              <path d="m240.8,269.87c-.48.01-.92.04-1.19.19-.34.19-.56.52-.35,1.11.31.9,1.69.77,2.78.88.61.12,2.85.78,3.14-.14.14-.43.02-1.03-.13-1.65-.73.35-.87.77-1.88.77-.9,0-2.23-.12-2.58-.4-.2-.16.02-.42.21-.76Z" style="fill: #1f1c1d; fill-rule: evenodd;"/>
            </g>
            <path d="m254.38,230.72c-.17.84-1.52,4.88-1.84,7l-3.11.33-3.78-.71.44-6.11c-.59-2.18-1.38-4.63-1.35-4.67.37-.5.97-.61,1.69-.77.36-.08,1.35-.35,1.67-.72.99.38,2.46.43,3.54-.21.88,1.26,3.95-.16,2.74,5.86Z" style="fill: #d5e7f6; fill-rule: evenodd;"/>
            <path d="m253.18,225.27c.17.32.32.62.45.9.84.48,1.59,1.39.75,4.55l-1.79,6.77-2.34.95-.07-1.35c.25-3.86,1.63-7.15,1.63-12.03.21.24.45.41.7.55.23-.08.45-.2.68-.35Z" style="fill: #c6def2; fill-rule: evenodd;"/>
            <path d="m252.68,237.17c-.05.6.75,3.1.93,3.75.41,1.47.74,3.3.79,4.77.12,4-.51,6.46-.41,9.45-5.3.83-7.14.75-12.48.3.09-2.22,2.26-10.73,2.59-12.94.23-1.54,1.06-3.58,1.5-5.26,1.53.31,3.68.36,4.92.25,1.23-.11,1.47-.17,2.16-.32Z" style="fill: #44515c; fill-rule: evenodd;"/>
            <path d="m252.68,237.17c-.05.6.75,3.1.93,3.75.41,1.47.74,3.3.79,4.77.12,4-.51,6.46-.41,9.45-1,.16-1.88.28-2.68.38.01-1.35.61-8.79.58-9.82-.04-1.48-.38-3.31-.79-4.77-.16-.56-.78-2.5-.91-3.4.11,0,.22-.01.32-.02,1.23-.11,1.47-.17,2.16-.32Z" style="fill: #29343d; fill-rule: evenodd;"/>
            <g>
              <path d="m253.85,233.03c2.4-6.94-1.05-8.02-1.11-8.69-.16-1.91,1.08-2.79.65-5.27-.28-1.64-1.53-3-3.65-2.9-1.55.07-2.86,1.38-2.84,3.75.02,3.29,2.24,3.24,3.55,4.61.34.36-.38,2.98.38,4.56.97,2.02,2.8,3.18,3.02,3.93Z" style="fill: #632404; fill-rule: evenodd;"/>
              <path d="m252.84,224.55l-.11-.72c-.89.18-1.55.37-2.44.56l.27.38.05.37c.48-.1,1.94-.55,2.23-.59Z" style="fill: #d8ebed; fill-rule: evenodd;"/>
            </g>
            <path d="m245.45,226.05c-.5.12-.73.44-.89.89-.39,1.12.1,2.51.24,3.8.21,1.89.37,3.62.84,5.35.7,2.61,2.54,1.65,2.44-1.27-.06-1.7-.35-3.21-.5-5.05-.32-.79-.16-4.2-2.13-3.72Z" style="fill: #e3effa; fill-rule: evenodd;"/>
            <g>
              <path d="m247.25,243.56h-2.35c-.98,0-1.79.8-1.79,1.79v.84c0,.98.8,1.79,1.79,1.79h2.35c.98,0,1.79-.8,1.79-1.79v-.84c0-.98-.8-1.79-1.79-1.79h0Zm-.09.6c.67,0,1.28.53,1.25,1.2l-.03.79c-.03.67-.55,1.22-1.22,1.22h-2.16c-.67,0-1.17-.55-1.22-1.22l-.06-.75c-.05-.67.61-1.24,1.28-1.24h2.16Z" style="fill: #823008; fill-rule: evenodd;"/>
              <g>
                <rect x="240.39" y="245.04" width="11.37" height="8.5" rx=".52" ry=".52" style="fill: #823008;"/>
                <path d="m251.24,245.04h-10.32c-.29,0-.52.24-.52.52v1.47l5.29,3.24c.24.15.49.15.74,0l5.34-3.33v-1.38c0-.29-.24-.52-.52-.52Z" style="fill: #9b3b0b; fill-rule: evenodd;"/>
                <path d="m245.5,250.31s0,.09,0,.14c0,.51.26.92.59.92s.59-.41.59-.92c0-.05,0-.09,0-.14h-1.16Z" style="fill: #f5a82c; fill-rule: evenodd;"/>
                <path d="m245.44,249.84h1.27s.03.01.03.03v.48s-.01.03-.03.03h-1.27s-.03-.02-.03-.03v-.48s.02-.03.03-.03Z" style="fill: #fab647;"/>
              </g>
            </g>
            <g>
              <path d="m246.98,242.65l-.02,1.45c0,.16-.13.28-.3.29h-1.62c-.17,0-.29-.35-.28-.52l.02-1.22c.02-.16.14-.29.27-.39l.15-1.27c.4.09,1.04.16,1.44.25l.09,1.05c.18.1.26.29.26.36Z" style="fill: #ffdba7; fill-rule: evenodd;"/>
              <path d="m246.43,244.22l-.06-.86c-.01-.22.2-.43.39-.43h0c.19,0,.16.63.17.85l.03.45c.03.44-.5.59-.54,0Z" style="fill: #ffdba7; fill-rule: evenodd;"/>
              <path d="m245.88,244.35l-.05-.83c-.01-.21.21-.41.41-.42h0c.2,0,.16.6.17.81l.03.43c.03.42-.52.57-.56,0Z" style="fill: #ffdba7; fill-rule: evenodd;"/>
              <path d="m245.33,244.41l-.04-.71c-.01-.18.21-.33.41-.31h0c.2.02.15.54.16.72l.02.37c.02.36-.53.43-.56-.07Z" style="fill: #ffdba7; fill-rule: evenodd;"/>
              <path d="m244.82,244.5l-.06-.59c-.01-.15.19-.28.37-.27h0c.19.01.15.44.17.59l.03.31c.03.3-.48.37-.52-.04Z" style="fill: #ffdba7; fill-rule: evenodd;"/>
            </g>
            <path d="m248.01,235.7c-.03.64-.03.65-.14,1.13l-.87,5.49-2.21-.18.79-6.78c-.13-1.38,2.46-1.89,2.44.35Z" style="fill: #e3effa; fill-rule: evenodd;"/>
          </g>
          <g>
            <path d="m161.71,247.45c-.01.71.08,1.28.36,1.78.19.36.85.35,1.09.18.44-.31.43-.67.43-1.25.42-.6.64-.99.61-1.4-.03-.46-.11-.97-.17-1.74-.04-.41-.81-.32-.88-.13l-.73,1.88-.71.68Z" style="fill: #421803; fill-rule: evenodd;"/>
            <g>
              <path d="m154.79,232.57c0-.42.15-.8.09-1.02-.06-.23-.19-.39-.39-.68-.13-.19-.14-.72-.24-.93l-1.19.25c.09.23.12.36.05.43-.37.43-.16.95-.15,1.63,0,.07.09.34.15.49.09.11.29.12.63.15.47.04,1.02.04,1.03-.31Z" style="fill: #ffdba7; fill-rule: evenodd;"/>
              <path d="m153.42,231.39c-.05.1-.45.65-.44.72,0,.26.06.48.15.59,0,.3,1.27.32,1.55.24-.17-.42-.06-.76-.1-1.05-.03-.23-.21-.82-.43-.92-.07-.03-.05,0-.13.01-.32.08-.4-.02-.6.39Z" style="fill: #f0c17d; fill-rule: evenodd;"/>
              <path d="m154.55,231.49l-.07.11c.08.17.1.28.1.44,0,.24,0,.54.15.69-.14-.38-.05-.64-.09-.91-.02-.13-.05-.23-.09-.33Z" style="fill: #eebe69; fill-rule: evenodd;"/>
              <path d="m155.15,232.82c-.02-.16-.05-.32-.07-.48-.05-.42.04-.63-.05-.85-.05-.12-.12-.25-.25-.37l-.45-.37c-.32.23-.51.6.07,1.06.09.07.23.21.24.3.05.35.15.75.5.71Z" style="fill: #ffdba7; fill-rule: evenodd;"/>
              <g>
                <path d="m151.8,232.99l-1.27.21c-.14.02-.26.09-.26.48v4.88c0,.34.15.41.28.43l1.23.22.03-6.21Z" style="fill: #752b06; fill-rule: evenodd;"/>
                <path d="m155,232.24c-.55-.04-1.11-.08-1.69-.13-.75-.06-1.37.48-1.37,1.2,0,.2,0,.41,0,.61,0,.71.63,1.3,1.38,1.31.58,0,1.14,0,1.69.01.67,0,1.2-.52,1.2-1.17,0-.18,0-.37,0-.55,0-.65-.54-1.22-1.21-1.27h0Zm-.06.4c.46.03.71.42.77.87.02.17.04.35.07.52.06.45-.37.81-.83.8-.51,0-1.03-.02-1.56-.03-.51,0-.99-.42-.93-.9.02-.18.05-.36.07-.54.06-.48.35-.87.86-.83.53.03,1.05.07,1.56.1Z" style="fill: #823008; fill-rule: evenodd;"/>
                <path d="m157.02,233.37c-.76-.06-1.55-.11-2.39-.18-.88-.07-1.82-.13-2.8-.21-.17-.01-.31.15-.31.36v5.5c0,.21.14.37.31.35.99-.1,1.92-.2,2.81-.29.84-.09,1.64-.17,2.39-.25.12-.01.22-.17.22-.35,0-.77,0-1.54,0-2.31,0-.77,0-1.54,0-2.31,0-.18-.1-.33-.22-.34Z" style="fill: #823008; fill-rule: evenodd;"/>
              </g>
              <path d="m153.08,232.69c.05.08.12.15.21.2.1.05.25.08.33,0-.01-.22-.04-.46-.06-.68,0-.09-.14-.12-.23-.07-.08.04-.08.25-.09.4,0,.09-.01.11-.05.11-.05,0-.08,0-.12.02h0Zm.56.22v-.04s0-.07,0-.07l-.04-.47c-.02-.15-.05-.36.01-.45.04-.05.08-.09.18-.06.08.02.13.06.13.14,0,.34.04.64.09.98-.03.08-.1.08-.17.08-.06,0-.17,0-.2-.1h0Zm.39,0c.04.07.08.1.15.1.07,0,.17,0,.21-.05.08-.09.01-.31,0-.41-.03-.23-.08-.51-.12-.62-.07-.16-.32-.18-.33.01.02.36.05.65.09.97h0Zm.5.08s-.08-.21-.11-.4c-.02-.13-.04-.26-.05-.33-.01-.14.08-.18.16-.19.17,0,.23.18.28.39.03.14.05.28.07.39.03.15-.24.19-.35.13Z" style="fill: #ffdba7; fill-rule: evenodd;"/>
            </g>
            <path d="m155.97,228.1l-.21,2.8.99,2.47,1.27,3.63.23,4.05c.87,2.14,2.07,4.21,3.27,6.19.47.77,1.28.45,1.33-.37-.84-3.97-1.64-6.37-1.95-10.43l-1.6-7.95-3.35-.39Z" style="fill: #f0c17d; fill-rule: evenodd;"/>
            <path d="m156.09,228.16c-.4,1.5-.61,1.61-.47,3.07.19,1.9,1.7,5.13,2.3,7.44l2.46.22-1.08-10.4-1.05-1.44-2.17,1.11Z" style="fill: #032747; fill-rule: evenodd;"/>
            <path d="m161.45,237.92c-2.02,3.48-3.69,5.66-5.74,10.06-1.13.24-.25.26-1.78-.44,1.32-2.44.86-4.65,1.8-6.73.51-1.12,1.5-1.82,2.22-3.13.65-2.99,3.95-2.54,3.49.24Z" style="fill: #ffdba7; fill-rule: evenodd;"/>
            <path d="m161.35,214.16c-.38,1.83.06,1.9,1.18,2.78l-3.5.73.89-4,1.43.48Z" style="fill: #f0c17d; fill-rule: evenodd;"/>
            <path d="m156.75,216.77c-.89.24-1.34,1.46-1.88,2.95-.48,1.33-1.07,2.88-1.5,4.14l-.49,6.84,1.95-.03.76-6,1.25-2.67-.09-5.24Z" style="fill: #05345e; fill-rule: evenodd;"/>
            <g>
              <path d="m154.14,247.13c-.13.15-.41.43-.64.7-.12.15-.17.46-.26.62-.13.24-.35.69-.33.85.05.39.16.61,1.07,1.08l.45-.34c.32.55.31.74.6,1,.62.55,1.6.79,2.97.95.41-.92-1.23-1.13-1.96-2.76-.17-.38-.08-.65-.24-1.42-.37-.43-.81-.63-1.66-.69Z" style="fill: #752b06; fill-rule: evenodd;"/>
              <path d="m154.55,249.83c-.66-.75-1.51-.91-1.56-.81-.24.49.08.89.98,1.37l.46-.34c.32.55.31.74.6,1,.62.55,1.6.79,2.97.95-2.07-.67-3.12-1.79-3.45-2.16Z" style="fill: #421803; fill-rule: evenodd;"/>
            </g>
            <path d="m162.37,227.88c.42,1.98.85,3.27.26,5.62-.5,1.96-.85,4.01-1.48,5.58l-4.04-.26c.18-.33.66-.79.85-1.14.24-3.87.22-6.35-.05-10.23l4.46.43Z" style="fill: #05345e; fill-rule: evenodd;"/>
            <path d="m158.64,215.38c.83.23,1.74.14,2.58.01.39.81.68.79,1.75,1.35.9.46,1.14,1.49.44,4.21-.34,1.31-.68,2.47-.81,4.07-.2,2.57-.07,3.44.33,5.15l-4.81.14v-2.23l-.55,2.23-2.13-.15c.56-2.2.74-3.46.64-4.99-.15-2.31-.44-4.27-.39-6.51.02-.77.12-1.76,1.03-2.12.92-.37,1.28-.55,1.89-1.15Z" style="fill: #09477d; fill-rule: evenodd;"/>
            <path d="m162.09,216.37l.66,3.25c.01,1.7.03,3.17.11,4.81.06.87.91,2.06,1.42,1.92.56-.15,1.07-.96,1.12-1.74.05-.79-.21-1.74-.44-3.57-.11-.88-.03-1.78-.2-2.97-.09-.63-.34-1.07-1.07-1.17-.12-.02-.96-.22-1.6-.54Z" style="fill: #09477d; fill-rule: evenodd;"/>
            <path d="m156.97,215.64c.07-2.12.42-3.89.48-4.27.21-1.23,1.15-2.26,2.75-2.18,1.17.06,2.15,1.04,2.14,2.82,0,1.17-.02,2.96.36,3.82-1.46.5-4.93.66-5.73-.2Z" style="fill: #632404; fill-rule: evenodd;"/>
          </g>
        </g>
      </g>
    </g>
  </g>
</svg>