<?xml version="1.0" encoding="UTF-8"?>
<svg id="_圖層_2" data-name="圖層 2" xmlns="http://www.w3.org/2000/svg" width="258.54" height="391.69" viewBox="0 0 258.54 391.69">
  <g id="_第一cut" data-name="第一cut">
    <g>
      <g>
        <rect x="8.75" y="131.51" width="76.08" height="26.68" style="fill: #e5955a;"/>
        <rect y="152.27" width="93.58" height="239.42" style="fill: #eec1ae;"/>
        <g>
          <rect x="25.33" y="170.06" width="42.09" height="18.55" style="fill: #8dd9f9;"/>
          <rect x="25.33" y="193.49" width="42.09" height="18.55" style="fill: #8dd9f9;"/>
          <rect x="25.33" y="216.92" width="42.09" height="18.55" style="fill: #8dd9f9;"/>
          <rect x="25.33" y="240.36" width="42.09" height="18.55" style="fill: #86bbff;"/>
          <rect x="25.33" y="263.79" width="42.09" height="18.55" style="fill: #8dd9f9;"/>
          <rect x="25.33" y="287.22" width="42.09" height="18.55" style="fill: #8dd9f9;"/>
          <rect x="25.33" y="310.65" width="42.09" height="18.55" style="fill: #8dd9f9;"/>
          <rect x="25.33" y="334.09" width="42.09" height="18.55" style="fill: #8dd9f9;"/>
          <rect x="25.33" y="357.52" width="42.09" height="18.55" style="fill: #8dd9f9;"/>
        </g>
        <g>
          <rect x="8.65" y="170.06" width="13" height="18.55" style="fill: #8dd9f9;"/>
          <rect x="8.65" y="193.49" width="13" height="18.55" style="fill: #86bbff;"/>
          <rect x="8.65" y="216.92" width="13" height="18.55" style="fill: #8dd9f9;"/>
          <rect x="8.65" y="240.36" width="13" height="18.55" style="fill: #8dd9f9;"/>
          <rect x="8.65" y="263.79" width="13" height="18.55" style="fill: #8dd9f9;"/>
          <rect x="8.65" y="287.22" width="13" height="18.55" style="fill: #8dd9f9;"/>
          <rect x="8.65" y="310.65" width="13" height="18.55" style="fill: #8dd9f9;"/>
          <rect x="8.65" y="334.09" width="13" height="18.55" style="fill: #86bbff;"/>
          <rect x="8.65" y="357.52" width="13" height="18.55" style="fill: #8dd9f9;"/>
        </g>
        <rect x="71.83" y="170.06" width="13" height="18.55" style="fill: #8dd9f9;"/>
        <rect x="71.83" y="193.49" width="13" height="18.55" style="fill: #8dd9f9;"/>
        <rect x="71.83" y="216.92" width="13" height="18.55" style="fill: #8dd9f9;"/>
        <rect x="71.83" y="240.36" width="13" height="18.55" style="fill: #8dd9f9;"/>
        <rect x="71.83" y="263.79" width="13" height="18.55" style="fill: #8dd9f9;"/>
        <rect x="71.83" y="287.22" width="13" height="18.55" style="fill: #8dd9f9;"/>
        <rect x="71.83" y="310.65" width="13" height="18.55" style="fill: #86bbff;"/>
        <rect x="71.83" y="334.09" width="13" height="18.55" style="fill: #8dd9f9;"/>
        <rect x="71.83" y="357.52" width="13" height="18.55" style="fill: #8dd9f9;"/>
      </g>
      <g>
        <polygon points="164.44 81.74 98.79 61.43 98.79 95.91 164.44 95.91 164.44 81.74" style="fill: #e5955a;"/>
        <rect x="85.99" y="86.72" width="92.9" height="304.97" style="fill: #febd83;"/>
        <rect x="92.05" y="95.81" width="12.12" height="27.27" style="fill: #ededed;"/>
        <rect x="109.22" y="95.81" width="12.12" height="27.27" style="fill: #fff;"/>
        <rect x="126.39" y="95.81" width="12.12" height="27.27" style="fill: #ededed;"/>
        <rect x="143.55" y="95.81" width="12.12" height="27.27" style="fill: #ededed;"/>
        <rect x="160.72" y="95.81" width="12.12" height="27.27" style="fill: #fff;"/>
        <rect x="92.05" y="127.45" width="12.12" height="27.27" style="fill: #ededed;"/>
        <rect x="109.22" y="127.45" width="12.12" height="27.27" style="fill: #ededed;"/>
        <rect x="126.39" y="127.45" width="12.12" height="27.27" style="fill: #fff;"/>
        <rect x="143.55" y="127.45" width="12.12" height="27.27" style="fill: #ededed;"/>
        <rect x="160.72" y="127.45" width="12.12" height="27.27" style="fill: #fff;"/>
        <rect x="92.05" y="159.1" width="12.12" height="27.27" style="fill: #fff;"/>
        <rect x="109.22" y="159.1" width="12.12" height="27.27" style="fill: #fff;"/>
        <rect x="126.39" y="159.1" width="12.12" height="27.27" style="fill: #ededed;"/>
        <rect x="143.55" y="159.1" width="12.12" height="27.27" style="fill: #ededed;"/>
        <rect x="160.72" y="159.1" width="12.12" height="27.27" style="fill: #ededed;"/>
        <rect x="92.05" y="190.74" width="12.12" height="27.27" style="fill: #ededed;"/>
        <rect x="109.22" y="190.74" width="12.12" height="27.27" style="fill: #ededed;"/>
        <rect x="126.39" y="190.74" width="12.12" height="27.27" style="fill: #fff;"/>
        <rect x="143.55" y="190.74" width="12.12" height="27.27" style="fill: #ededed;"/>
        <rect x="160.72" y="190.74" width="12.12" height="27.27" style="fill: #fff;"/>
        <rect x="92.05" y="222.39" width="12.12" height="27.27" style="fill: #ededed;"/>
        <rect x="109.22" y="222.39" width="12.12" height="27.27" style="fill: #ededed;"/>
        <rect x="126.39" y="222.39" width="12.12" height="27.27" style="fill: #ededed;"/>
        <rect x="143.55" y="222.39" width="12.12" height="27.27" style="fill: #ededed;"/>
        <rect x="160.72" y="222.39" width="12.12" height="27.27" style="fill: #ededed;"/>
        <rect x="92.05" y="254.04" width="12.12" height="27.27" style="fill: #ededed;"/>
        <rect x="109.22" y="254.04" width="12.12" height="27.27" style="fill: #ededed;"/>
        <rect x="126.39" y="254.04" width="12.12" height="27.27" style="fill: #ededed;"/>
        <rect x="143.55" y="254.04" width="12.12" height="27.27" style="fill: #fff;"/>
        <rect x="160.72" y="254.04" width="12.12" height="27.27" style="fill: #ededed;"/>
        <rect x="92.05" y="285.68" width="12.12" height="27.27" style="fill: #ededed;"/>
        <rect x="109.22" y="285.68" width="12.12" height="27.27" style="fill: #fff;"/>
        <rect x="126.39" y="285.68" width="12.12" height="27.27" style="fill: #ededed;"/>
        <rect x="143.55" y="285.68" width="12.12" height="27.27" style="fill: #ededed;"/>
        <rect x="160.72" y="285.68" width="12.12" height="27.27" style="fill: #ededed;"/>
        <rect x="92.05" y="317.33" width="12.12" height="27.27" style="fill: #ededed;"/>
        <rect x="109.22" y="317.33" width="12.12" height="27.27" style="fill: #ededed;"/>
        <rect x="126.39" y="317.33" width="12.12" height="27.27" style="fill: #ededed;"/>
        <rect x="143.55" y="317.33" width="12.12" height="27.27" style="fill: #ededed;"/>
        <rect x="160.72" y="317.33" width="12.12" height="27.27" style="fill: #fff;"/>
        <rect x="92.05" y="348.97" width="12.12" height="27.27" style="fill: #ededed;"/>
        <rect x="109.22" y="348.97" width="12.12" height="27.27" style="fill: #ededed;"/>
        <rect x="126.39" y="348.97" width="12.12" height="27.27" style="fill: #fff;"/>
        <rect x="143.55" y="348.97" width="12.12" height="27.27" style="fill: #ededed;"/>
        <rect x="160.72" y="348.97" width="12.12" height="27.27" style="fill: #ededed;"/>
      </g>
      <g>
        <g>
          <circle cx="213.19" cy="45.34" r="45.34" style="fill: none; stroke: #fff; stroke-width: 2px;"/>
          <polygon points="203.58 83.1 175.49 93.91 175.18 64.86 203.58 83.1" style="fill: none; stroke: #fff; stroke-width: 2px;"/>
        </g>
        <g>
          <circle cx="213.19" cy="45.34" r="45.34" style="fill: #6d6de2;"/>
          <polygon points="203.58 83.1 175.49 93.91 175.18 64.86 203.58 83.1" style="fill: #6d6de2;"/>
        </g>
      </g>
      <g>
        <text transform="translate(186.46 54.53)" style="fill: #fff; font-family: MicrosoftJhengHeiBold, &apos;Microsoft JhengHei&apos;; font-size: 26.73px;"><tspan x="0" y="0">企業</tspan></text>
        <text transform="translate(186.46 54.53)" style="fill: #fff; font-family: MicrosoftJhengHeiBold, &apos;Microsoft JhengHei&apos;; font-size: 26.73px;"><tspan x="0" y="0">企業</tspan></text>
      </g>
    </g>
  </g>
</svg>