<?xml version="1.0" encoding="UTF-8"?>
<svg id="_圖層_2" data-name="圖層 2" xmlns="http://www.w3.org/2000/svg" width="263.6" height="267.62" xmlns:xlink="http://www.w3.org/1999/xlink" viewBox="0 0 263.6 267.62">
  <defs>
    <clipPath id="clippath">
      <circle cx="131.65" cy="132" r="122.96" style="fill: none;"/>
    </clipPath>
  </defs>
  <g id="_第一cut" data-name="第一cut">
    <g id="EnvironmentalVolunteer">
      <g style="clip-path: url(#clippath);">
        <circle cx="131.65" cy="132" r="122.96" style="fill: #eff0c5;"/>
        <g id="Character">
          <g id="Bottom">
            <g>
              <path d="m55.86,242.05c.6-2.9,8.09-31.7,8.09-31.7l-16.12,5.07c-.88,19.09-1.79,24.88-2.1,27.71h0c-.03.06-.12.29-.17.71-.42,3.35,3.94,5.71,6.6,8.32,1.05,1.03,4.1,4.08,7.3,6.24,2,1.35,6.34,2.02,7.06.71-3.23-3.2-7-6.74-9.44-10.23-1.17-1.67-1.94-3.35-1.21-6.83Z" style="fill: #ffbea7;"/>
              <g>
                <path d="m72.72,263.57c.18.03.16,2.09-.97,2.8-1.3.82-4.92,1.94-9.29.69-4.37-1.25-6.58-2.99-8.14-4.75-1.56-1.76-3.82-4.08-5.69-4.99-3.02-1.47-5.38-3.45-5.89-4.12-.51-.67-.04-3.23-.04-3.23l30.03,13.61Z" style="fill: #1a2e35;"/>
                <path d="m45.86,240.99s-.58-.05-.78.53c-.24.69-.7,2.73-1.17,3.85-.65,1.56-1.32,4.13-1.27,5.49.05,1.36,3.08,3.89,6.47,5.37,1.88,1.06,3.95,2.97,5.72,4.95,1.84,2.04,5.98,4.44,8.88,4.92,4.43.73,7.48-.04,8.61-1.5,1.39-1.81.71-3.08-4.04-6.21-.9-.59-3.99-3.11-5.03-4.01-2.83-2.44-5.52-5.64-6.43-9.34-.11-.43-.22-.91-.57-1.18-.27-.2-.64-.24-.98-.24-.87,0-1.74.12-2.57.37-.73.22-1.76.46-1.88,1.34-.04.31,0,.62.06.92.03.19.05.43-.13.52-.16.08-.34-.07-.46-.2-.46-.56-.76-1.23-1.13-1.86-.2-.34-.42-.66-.68-.94-.24-.26-2.67-1.44-2.65-1.79,0,0,.02-.48.02-.97Z" style="fill: #2b454e;"/>
                <path d="m69.05,258.9c-6.49-.52-9.11,3.14-9.75,5.55,1.51.8,3.09,1.43,4.42,1.65,4.43.73,7.67,0,8.79-1.47,1.32-1.71.84-3.31-3.46-5.73Z" style="fill: #fafafa;"/>
                <g>
                  <path d="m59.4,257.52c-.07-.01-.14-.04-.19-.1-.12-.13-.11-.33.02-.45,1.06-.96,3.86-2.02,6.15-1.42.17.04.27.22.23.39-.04.17-.21.27-.39.23-2.14-.56-4.73.51-5.57,1.27-.07.07-.17.09-.26.08Z" style="fill: #f0f0f0;"/>
                  <path d="m56.88,255.49c-.07-.01-.14-.04-.19-.1-.12-.13-.11-.33.02-.45,1.06-.96,3.86-2.03,6.15-1.42.17.04.27.22.23.39-.04.17-.21.27-.39.23-2.14-.56-4.73.51-5.57,1.27-.07.07-.17.09-.26.08Z" style="fill: #f0f0f0;"/>
                  <path d="m54.59,253.26c-.07-.01-.14-.04-.19-.1-.12-.13-.11-.33.02-.45,1.06-.96,3.87-2.02,6.15-1.42.17.04.27.22.23.39-.04.17-.21.27-.39.23-2.14-.56-4.73.51-5.57,1.27-.07.07-.17.09-.26.08Z" style="fill: #f0f0f0;"/>
                  <path d="m52.36,251.04c-.07-.01-.13-.04-.18-.1-.12-.13-.11-.33.02-.45,1.46-1.37,4.4-1.97,6.69-1.37.17.04.27.22.23.39-.04.17-.21.27-.39.23-2.07-.54-4.8,0-6.1,1.22-.07.07-.17.1-.26.08Z" style="fill: #f0f0f0;"/>
                </g>
              </g>
            </g>
            <g>
              <path d="m93.38,234.05c.3-2.95,4.01-35.85,4.01-35.85l-15.5,6.72c1.1,19.07,1.55,28.41,1.53,31.26h0c-.02.07-.09.31-.1.73-.07,3.38,4.52,5.27,7.43,7.59,1.15.92,4.5,3.63,7.91,5.45,2.13,1.14,6.51,1.35,7.09-.03-3.55-2.85-7.66-5.97-10.45-9.2-1.34-1.54-2.27-3.13-1.91-6.67Z" style="fill: #ffbea7;"/>
              <g>
                <path d="m112.38,253.7c.19,0,.37,2.06-.67,2.89-1.21.95-4.69,2.44-9.17,1.65-4.48-.79-6.86-2.29-8.59-3.88-1.73-1.59-4.22-3.66-6.18-4.38-3.16-1.15-5.71-2.87-6.29-3.48-.58-.61-.38-3.21-.38-3.21l31.28,10.41Z" style="fill: #1a2e35;"/>
                <path d="m83.33,234.03s-.58.01-.72.61c-.17.71-.42,2.79-.77,3.95-.49,1.62-.88,4.25-.7,5.59.19,1.34,3.46,3.55,6.99,4.67,1.98.86,4.24,2.55,6.21,4.33,2.04,1.84,6.41,3.8,9.35,3.97,4.48.27,7.44-.81,8.41-2.39,1.2-1.94.38-3.14-4.66-5.76-.95-.5-4.29-2.68-5.42-3.47-3.07-2.13-6.07-5.04-7.37-8.63-.1-.28-.25-.54-.31-.83-.06-.29-.1-.58-.37-.75-.17-.11-.38-.12-.58-.13-1.49-.06-3,.2-4.39.75-.19.08-.39.16-.52.32-.14.18-.18.42-.19.64,0,.23,0,.46-.04.68-.05.22-.19.44-.4.51-.42.14-.64-.47-.84-.73-.23-.31-.48-.62-.78-.87-.27-.23-2.8-1.16-2.82-1.51,0,0-.03-.47-.08-.97Z" style="fill: #2b454e;"/>
                <path d="m108.25,249.44c-6.51.15-8.74,4.07-9.13,6.54,1.58.64,3.22,1.1,4.56,1.18,4.48.27,7.62-.8,8.59-2.37,1.13-1.83.49-3.38-4.03-5.34Z" style="fill: #fafafa;"/>
                <g>
                  <path d="m98.51,249.06c-.07,0-.14-.03-.2-.08-.13-.12-.14-.32-.02-.45.95-1.07,3.63-2.41,5.97-2.05.17.03.29.19.27.36-.03.17-.18.29-.36.27-2.19-.33-4.65,1-5.4,1.84-.07.07-.16.11-.25.11Z" style="fill: #f0f0f0;"/>
                  <path d="m95.79,247.31c-.07,0-.14-.03-.2-.08-.13-.12-.14-.32-.02-.45.95-1.07,3.63-2.42,5.97-2.05.17.03.29.19.27.36-.03.17-.18.29-.36.27-2.19-.34-4.65,1-5.4,1.84-.07.07-.16.11-.25.11Z" style="fill: #f0f0f0;"/>
                  <path d="m93.29,245.33c-.07,0-.14-.03-.2-.08-.13-.12-.14-.32-.02-.45.95-1.07,3.64-2.41,5.97-2.05.17.03.29.19.27.36-.03.17-.18.29-.36.27-2.19-.33-4.65,1-5.4,1.84-.07.07-.16.11-.25.11Z" style="fill: #f0f0f0;"/>
                  <path d="m90.83,243.35c-.07,0-.14-.03-.19-.08-.13-.11-.15-.32-.03-.45,1.31-1.51,4.17-2.42,6.52-2.05.17.03.29.19.27.36-.03.17-.18.29-.36.27-2.11-.33-4.77.5-5.94,1.84-.07.08-.16.11-.25.11Z" style="fill: #f0f0f0;"/>
                </g>
              </g>
            </g>
            <g>
              <path d="m96.93,114.99l-34.71-.37-1.55-2.18s-5.54,7.21-7.3,18.8c-1.76,11.59-.98,20.97-.97,32.11,0,12.09-1.22,28.88-1.22,28.88,0,0-3.33,7.54-3.62,15.67-.24,6.75-1.56,23.56-1.56,23.56,0,0,6.37,3.01,12.17,1.2,0,0,4.66-14.51,8.42-29.67,1.6-6.46,2.81-9.18,5.26-20.28,1.48-6.69,3.69-16.38,5.61-24.69l4.42,23.46s-1.17,9.2-.79,16.31c.36,6.75,1.38,26.74,1.38,26.74,0,0,6.65,2.33,12.23-.07,0,0,4.47-34.26,5.05-42.37.11-23.35-.2-45.77-2.83-67.12Z" style="fill: #00dfbf;"/>
              <path d="m96.93,114.99l-34.71-.37-1.55-2.18s-5.54,7.21-7.3,18.8c-1.76,11.59-.98,20.97-.97,32.11,0,12.09-1.22,28.88-1.22,28.88,0,0-3.33,7.54-3.62,15.67-.24,6.75-1.56,23.56-1.56,23.56,0,0,6.37,3.01,12.17,1.2,0,0,4.66-14.51,8.42-29.67,1.6-6.46,2.81-9.18,5.26-20.28,1.48-6.69,3.69-16.38,5.61-24.69l4.42,23.46s-1.17,9.2-.79,16.31c.36,6.75,1.38,26.74,1.38,26.74,0,0,6.65,2.33,12.23-.07,0,0,4.47-34.26,5.05-42.37.11-23.35-.2-45.77-2.83-67.12Z" style="fill: #fff; opacity: .6;"/>
              <path d="m46.2,227.07c2.52,1.5,9.9,3.03,13.29,1.78l-1.04,3.94s-1.56,1.21-6.24.73c-4.7-.48-6.36-1.96-6.36-1.96l.35-4.49Z" style="fill: #375a64;"/>
              <path d="m82.05,220.03c2.67,1.23,10.12,2.1,13.37.51l-.53,4s-1.31,1.4-6.02,1.41c-4.73.01-6.63-1.31-6.63-1.31l-.19-4.6Z" style="fill: #375a64;"/>
              <path d="m77.46,158.03l3.84-16.84s9.51-3.97,13.78-9.56c0,0-2.92,8.09-11.15,11.89l-4.4,15.23,2.34,22.75-4.42-23.46Z" style="opacity: .1;"/>
            </g>
          </g>
          <g id="Top">
            <g id="Arm">
              <path d="m87.22,66.78c7.74.25,8.93,1.46,11.62,5.93,2.39,3.96,9.93,22.56,11.32,25.78,1.38,3.22-9.56,7.83-9.56,7.83-3.74-6.98-10.37-20.76-10.37-20.76l-3.01-18.79Z" style="fill: #ffbea7;"/>
              <path d="m87.11,66.64c3.52-.07,6.58.27,8.43,1.69,1.86,1.42,2.8,2.86,4.69,6.51s7.17,15.86,7.17,15.86c0,0-2.05,6.36-11.77,7.52l-8.53-14.91v-16.66Z" style="fill: #ececec;"/>
            </g>
            <g id="Chest">
              <path d="m97.05,95.24c-.08,1.87-.64,11.08-.64,11.08l2.1,19.28c-9.63,9.58-34.78,7.95-43.95-.25,2.58-10.75,7.29-16.16,7.03-19.26l-4.42-16.73s4.48-8.53,3.25-20.77l11.96-1.77,9.52-.17h5.21s5.91,6.02,9.82,11.49c4.34,6.07,5.15,11.79.12,17.11Z" style="fill: #f5f5f5;"/>
              <g>
                <path d="m71.95,88.1s-.09,0-.12-.02c-.03-.02-.06-.05-.07-.08l-1.3-2.73s-.01-.03-.01-.04c0-.02,0-.05.02-.07.02-.02.04-.04.06-.04l.54-.08s.08,0,.12.02c.03.02.05.05.06.07l.92,1.97.31-2.16s.02-.05.04-.08c.02-.03.05-.05.1-.06l.54-.08s.04,0,.07.02c.02.02.03.04.04.06,0,.01,0,.03,0,.04l-.47,3s-.02.07-.04.1c-.03.03-.06.05-.12.06l-.66.1Z" style="fill: #375a64;"/>
                <path d="m75.24,87.65c-.27.04-.5.03-.71-.03-.21-.06-.38-.17-.52-.33-.14-.16-.23-.38-.28-.65-.02-.13-.04-.26-.06-.39-.02-.13-.04-.26-.05-.39-.03-.27,0-.51.08-.71.08-.2.22-.36.4-.48.18-.12.41-.2.67-.24.26-.04.5-.03.71.03.21.06.39.18.53.34s.23.38.28.65c.02.13.05.26.07.38.02.13.03.26.05.39.03.27,0,.51-.08.71-.08.2-.22.35-.4.47-.18.12-.41.2-.67.24Zm-.09-.64c.15-.02.27-.09.35-.2s.11-.27.09-.48c-.01-.13-.03-.26-.05-.37s-.04-.24-.06-.36c-.03-.14-.07-.25-.12-.33-.06-.08-.13-.14-.21-.17-.08-.03-.18-.04-.28-.02-.1.02-.18.05-.25.1-.07.05-.12.13-.16.22-.03.09-.04.21-.03.35.02.13.03.25.05.36.02.12.04.24.06.37.04.21.11.35.22.43s.24.11.39.09Z" style="fill: #375a64;"/>
                <path d="m77.18,87.31s-.06,0-.08-.02c-.02-.02-.04-.04-.04-.07l-.42-2.91s0-.06.02-.08c.02-.02.04-.04.07-.04l.57-.09s.06,0,.08.02c.02.02.04.04.04.08l.34,2.34,1.31-.2s.06,0,.08.02c.02.02.04.05.04.08l.06.45s0,.06-.02.08c-.02.02-.04.04-.07.05l-1.99.3Z" style="fill: #375a64;"/>
                <path d="m80.89,86.79c-.26.04-.5.03-.71-.03s-.38-.17-.51-.34c-.13-.17-.22-.39-.26-.68l-.27-1.82s0-.06.02-.08c.02-.02.04-.04.07-.04l.56-.08s.06,0,.09.02c.02.02.04.04.04.08l.27,1.82c.03.19.09.33.2.42s.24.11.4.09c.16-.02.28-.09.36-.2s.1-.26.07-.46l-.27-1.82s0-.06.02-.08c.02-.02.04-.04.07-.04l.56-.09s.06,0,.08.02c.03.02.04.04.04.08l.27,1.82c.04.28.02.53-.06.73-.08.2-.21.36-.39.48-.18.12-.4.2-.66.23Z" style="fill: #375a64;"/>
                <path d="m82.86,86.44s-.06,0-.08-.02c-.02-.02-.04-.04-.04-.07l-.42-2.91s0-.06.02-.08c.02-.02.04-.04.07-.04l.46-.07s.09,0,.11.02c.03.02.04.03.05.05l1.31,1.56-.25-1.69s0-.06.02-.08c.02-.02.04-.04.07-.04l.52-.08s.06,0,.08.02c.02.02.04.04.04.08l.42,2.9s0,.06-.02.09c-.02.02-.04.04-.07.05l-.46.07s-.08,0-.11-.02c-.03-.02-.04-.04-.05-.04l-1.3-1.49.24,1.63s0,.06-.02.08c-.02.02-.04.04-.07.04l-.52.08Z" style="fill: #375a64;"/>
                <path d="m86.64,85.87s-.06,0-.08-.02c-.02-.02-.04-.04-.04-.07l-.34-2.32-.77.12s-.06,0-.08-.02c-.02-.02-.04-.04-.04-.07l-.07-.48s0-.06.02-.08c.02-.02.04-.04.07-.04l2.33-.35s.06,0,.08.02c.02.02.04.04.04.08l.07.48s0,.06-.02.08c-.02.03-.04.04-.07.04l-.77.12.34,2.32s0,.06-.02.08c-.02.02-.04.04-.07.04l-.57.09Z" style="fill: #375a64;"/>
                <path d="m88.7,85.56s-.06,0-.08-.02c-.02-.02-.04-.04-.04-.07l-.42-2.91s0-.06.02-.08c.02-.02.04-.04.07-.04l2.02-.31s.06,0,.08.02c.02.02.04.04.04.08l.06.42s0,.06-.02.09c-.02.02-.04.04-.07.04l-1.38.21.09.6,1.29-.2s.06,0,.08.02.04.05.04.08l.06.39s0,.06-.02.08c-.02.03-.04.04-.07.04l-1.29.2.09.62,1.42-.21s.06,0,.08.02c.02.02.04.04.04.08l.06.42s0,.06-.02.08c-.02.02-.04.04-.07.04l-2.06.31Z" style="fill: #375a64;"/>
                <path d="m91.47,85.14s-.06,0-.08-.02c-.02-.02-.04-.04-.04-.07l-.42-2.91s0-.06.02-.08c.02-.02.04-.04.07-.04l2.02-.31s.06,0,.08.02c.02.02.04.04.04.08l.06.42s0,.06-.02.09c-.02.02-.04.04-.07.04l-1.38.21.09.6,1.29-.2s.06,0,.08.02c.02.02.04.04.04.08l.06.39s0,.06-.02.08c-.02.03-.04.04-.07.04l-1.29.2.09.62,1.42-.21s.06,0,.08.02c.02.02.04.04.04.08l.06.42s0,.06-.02.08c-.02.02-.04.04-.07.05l-2.06.31Z" style="fill: #375a64;"/>
                <path d="m94.24,84.72s-.06,0-.08-.02c-.02-.02-.04-.04-.04-.07l-.42-2.91s0-.06.02-.08c.02-.02.04-.04.07-.04l1.18-.18c.38-.06.68-.01.92.13.24.15.38.38.43.7.03.21,0,.4-.07.56-.08.16-.19.29-.34.39l.76,1.01s.02.03.02.05c0,.02,0,.05-.02.07-.02.02-.04.03-.06.04l-.58.09c-.05,0-.1,0-.13-.02-.03-.02-.05-.05-.07-.07l-.64-.91-.44.07.14.99s0,.06-.02.08c-.02.02-.04.04-.08.05l-.56.08Zm.42-1.84l.5-.08c.14-.02.23-.07.29-.15.06-.08.08-.18.06-.29-.02-.12-.06-.21-.14-.27-.08-.06-.18-.08-.33-.06l-.5.08.11.77Z" style="fill: #375a64;"/>
              </g>
              <path d="m86.4,93c-3.75-4.5-9.96-.73-7.05,4.02,2.72,4.44,8.4,6.67,8.4,6.67,0,0,5.29-3.39,6.13-9.15.85-5.77-5.9-6.61-7.48-1.54Z" style="fill: #00dfbf;"/>
            </g>
            <g id="Head">
              <g>
                <path d="m69.59,62.16c-2.51-4.13-3.64-4.1-6.64-7.34-4.17-4.51-6.6-13.45-.33-19.32.62-4.11,3.38-7.22,7.16-8.78,3.94-1.62,8.46-1.72,12.61-.95,3.58.67,6.59,2.92,8.35,6.11,1.4,2.54,1.57,3.99,1.92,6.87.16,1.32.07,4.11-.52,5.34-2.42,5.04-6.73,5.72-8.83,7.25-4.11,3-8.23,6.01-12.34,9.01-.08.06-1.35,1.83-1.37,1.81Z" style="fill: #1a2e35;"/>
                <path d="m64.01,35.39c-.74-.94-1.69-1.62-2.88-2.05-3.65-1.3-8.03-.2-10.62,2.68-2.33,2.59-3.12,6.24-3.2,9.73-.08,3.49.46,6.96.38,10.45-.07,3.09-3.56,5.27-5.89,6.76-.43.27-.91.69-.77,1.18.09.31.42.49.72.62,3.45,1.43,7.71.61,10.38-1.99-.07.86-.13,1.72-.2,2.59,1.42-.03,2.73-.89,3.58-2.03.85-1.14,1.28-2.53,1.57-3.93.96-4.64,0-9.26.38-13.9.42-5.22,2.61-8.92,5.85-7.98,1.32.38,2.01,0,1.27-1.28-.17-.3-.36-.58-.57-.84Z" style="fill: #1a2e35;"/>
                <path d="m63.4,47.62c1.11-1.4,3.09-1.63,4.26-.16.39.5.65,1.09,1.04,1.6.38.51.95.94,1.59.92.48-.02,1-.26,1.22-.69.31-.6.25-1.32.3-1.8.87-8.58,4.82-15.03,12.33-10.65,2.95-2.91,4.52-2.4,5.6-1.61,2.08,1.52,3.28,3.69,3.28,12.56,0,8.8-2.99,12.99-4.46,13.83-1.47.84-3.09,1.16-6.03.98v4.89s2.3,7.78.46,12.44c0,0-3.73-1.52-7.41-4.72-5.38-4.67-5.97-7.82-5.97-7.82v-12.7s-1.67,1.57-4.06.27c-2.8-1.52-3.79-5.26-2.13-7.35Z" style="fill: #ffbea7;"/>
                <path d="m68.66,53.31c0,.69-.56,1.25-1.25,1.25s-1.25-.56-1.25-1.25.56-1.25,1.25-1.25,1.25.56,1.25,1.25Z" style="fill: #375a64;"/>
                <g>
                  <path d="m80.55,46.41c.1.7-.39,1.37-1.1,1.5-.71.12-1.37-.35-1.47-1.06-.1-.7.39-1.37,1.11-1.49.71-.12,1.37.35,1.47,1.06Z" style="fill: #1a2e35;"/>
                  <path d="m91,43.91l-2.88-1.16c.29-.81,1.17-1.21,1.97-.89.79.32,1.2,1.24.91,2.05Z" style="fill: #1a2e35;"/>
                  <path d="m78.62,42.41l-2.71,1.51c-.45-.74-.21-1.68.54-2.09.75-.42,1.72-.16,2.17.58Z" style="fill: #1a2e35;"/>
                  <g>
                    <path d="m79.87,54.27l5.12,1.47c-.35,1.44-1.94,2.27-3.54,1.75-1.4-.46-1.94-1.77-1.58-3.21Z" style="fill: #c76668;"/>
                    <path d="m82.92,57.58c-.21-1.41-1.44-2.46-2.89-2.4-.09,0-.17.03-.26.04.04,1.04.6,1.9,1.68,2.25.51.17,1,.18,1.47.1Z" style="fill: #ff9090;"/>
                  </g>
                  <path d="m90.21,45.84c.1.68-.38,1.33-1.07,1.45-.69.12-1.32-.34-1.42-1.02-.1-.68.38-1.33,1.07-1.45.69-.12,1.32.34,1.42,1.02Z" style="fill: #1a2e35;"/>
                  <polygon points="83.55 43.72 83.93 52.56 88.39 51.48 83.55 43.72" style="fill: #ff9a79;"/>
                  <path d="m82.52,62.6c-3.11-.32-9.97-1.72-11.21-4.1,0,0,.63,1.95,2.68,3.36,2.05,1.41,8.53,2.46,8.53,2.46v-1.71Z" style="fill: #ff9a79;"/>
                </g>
              </g>
            </g>
            <g id="Cap">
              <path d="m92.65,38.74s-.08-.02-.11-.02c-6.7-1.63-14.9-.41-21.68,2.81-.22.1-.44.21-.66.32h0c-5.69,2.56-9.93,6.01-10.66,7.27-.68-1.66-1.09-3.39-1.23-4.56-1.13-9.15.48-15.35,14.64-19.06,9.85-2.58,17.28,2.04,18.89,8.14.35,1.32.52,3.73.82,5.1Z" style="fill: #00dfbf;"/>
              <path d="m70.04,40.54c.32-.29,1.78-3.69,7.25-6.81,3.38-1.92,10.39-2.21,13.54-2.24,5.52-.06,6.87,1.07,6.96,1.88.02.19.12,1.08.15,1.28.03.2-.02.38-.1.53-.79,1.27-5.19,3.56-5.19,3.56-6.94-1.72-15.52-.38-22.46,3.1l-.16-1.31Z" style="fill: #00dfbf;"/>
              <path d="m70.04,40.54c.32-.29,1.78-3.69,7.25-6.81,3.38-1.92,10.39-2.21,13.54-2.24,5.52-.06,6.87,1.07,6.96,1.88.02.19.12,1.08.15,1.28.03.2-.02.38-.1.53-.79,1.27-5.19,3.56-5.19,3.56-6.94-1.72-15.52-.38-22.46,3.1l-.16-1.31Z" style="opacity: .15;"/>
              <path d="m70.2,41.85c6.94-3.48,15.51-4.82,22.46-3.1,0,0,4.39-2.29,5.19-3.56.42-.7-.02-2.46-6.85-2.38-3.15.04-10.17.32-13.54,2.24-5.47,3.12-6.93,6.51-7.25,6.81Z" style="fill: #00dfbf;"/>
              <path d="m70.2,41.85c6.94-3.48,15.51-4.82,22.46-3.1,0,0,4.39-2.29,5.19-3.56.42-.7-.02-2.46-6.85-2.38-3.15.04-10.17.32-13.54,2.24-5.47,3.12-6.93,6.51-7.25,6.81Z" style="opacity: .3;"/>
            </g>
            <path id="Arm-2" data-name="Arm" d="m109.63,97.31c2.52,6.36,3.16,6.74,1.97,12.36-1.09,5.13-3.02,11.77-4.22,18.76-.39,2.28.91,4.07-1.58,8.33-1.1,1.88-8.68-1.98-7.74-5.76,1.3-1.42,1.11-9.28,1.71-15.29.51-5.16.82-9.39.82-9.39l9.03-9.01Z" style="fill: #ffbea7;"/>
            <g id="Garbage">
              <path d="m94.01,137.71c-.69,5.06-5.96,17.14-16.21,16.79-10.24-.35-11.28-3.58-11.28-3.58,0,0-2.87,11.57,8.82,16.35,5.67,2.32,28.47,2.76,31.04-8.63,2.58-11.39-.65-14.65-.65-14.65,0,0-1.26,3.54-5.23,2.31-3.97-1.23-5.12-5.6-4.43-8.59h-2.07Z" style="fill: #2b454e;"/>
              <g>
                <path d="m103.98,151.32c-1.15-1.11-2.37-2.47-3.69-3.37-.75-.5-1.65-.83-2.55-.71-1.11.14-2.01.92-2.96,1.5-.95.58-2.21.98-3.15.36-.36-.24-.64-.62-1.05-.76-.7-.25-1.51.26-2.21,0-.87-.32-.97-1.54-1.64-2.18-.81-.77-2.17-.45-3.04.24-.96.76-1.57,1.84-2.41,2.66-.59.58-1.51.68-2.29.8-1.38.21-3.11.35-3,2.17.06,1.13.57,1.69-.91,2.49-1.54.83-3.6.37-5.12,1.19-.82.45-1.27,1.2-1.69,1.91-.49.85-.99,1.7-1.38,2.58-1.01,2.3-1.27,4.86-.32,7.17.42,1.01,1.12,2.5,2.48,2.84,1.83.46,3.55,0,5.21,1.08.67.43,1.16,1.01,1.81,1.46,1.18.81,2.8,1.14,4.36,1.15,1.26,0,2.47-.37,3.7-.38.9-.01,1.55.26,2.44.43,1.81.34,4.09.33,5.46-.83.98-.83,1.32-2.15,2.61-2.67,1.35-.54,2.96.1,4.47.07,2.54-.05,4.42-2.04,4.83-4.02.41-1.98-.24-3.98-.56-5.97-.42-2.64,2-4.59,1.89-7.01-.04-.83-.59-1.52-1.28-2.2Z" style="fill: #fafafa;"/>
                <path d="m103.98,151.32c-.47-.45-.99-.89-1.48-1.35-.14-.13-.46,1.67-.47,1.71-.16.79-.63,1.51-1.14,2.12-.75.89-1.66,1.68-2.2,2.71-.28.54-.46,1.15-.88,1.59-.52.55-1.38.74-2.08.46s-1.2-1.01-1.2-1.76c-.76-.45-1.75.03-2.37.66s-1.11,1.43-1.91,1.82c-.95.47-2.2.28-2.98,1.01-.35.33-.6.83-1.07.89-.48.06-.85-.38-1.1-.79-.47-.79-.84-1.65-1.07-2.55-.14-.52-.24-1.06-.48-1.54-.24-.48-.66-.91-1.2-.99-.62-.1-1.23.3-1.62.81-.38.5-.6,1.11-.91,1.66-1.01,1.83-2.91,2.97-4.72,4.02-.34.2-.71.4-1.09.35-.42-.05-.75-.39-1-.74-.55-.77-.9-1.69-.98-2.64-.04-.4-.03-.82-.25-1.15-.33-.51-1.03-.59-1.63-.63-.46-.03-.93-.06-1.36.09-.95.32-1.51,2.25-1.9,3.12-1.01,2.3-1.27,4.86-.32,7.17.42,1.01,1.12,2.5,2.48,2.84,1.83.46,3.55,0,5.21,1.08.67.43,1.16,1.01,1.81,1.46,1.18.81,2.8,1.14,4.36,1.15,1.26,0,2.47-.37,3.7-.38.9-.01,1.55.26,2.44.43,1.81.34,4.09.33,5.46-.83.98-.83,1.32-2.15,2.61-2.67,1.35-.54,2.96.1,4.47.07,2.54-.05,4.42-2.04,4.83-4.02s-.24-3.98-.56-5.97c-.42-2.64,2-4.59,1.89-7.01-.04-.83-.59-1.52-1.28-2.2Z" style="fill: #ececec;"/>
                <path d="m75.68,157.21c.35.38.47.89.32,1.34-.08.23-.22.45-.24.69-.02.24.12.52.41.58.24.05.48-.06.7-.16.58-.26,1.27-.44,1.92-.32s1.22.62,1.1,1.14c.44-.65.54-1.5.03-2.12-.51-.62-1.71-.88-2.44-.42.27-.58-.24-1.25-.95-1.49-.65-.22-1.48-.17-2.11.06.48.14.96.33,1.27.68Z" style="fill: #ececec;"/>
                <path d="m85.09,152.46c-.24.13-.51.21-.73.35-.22.14-.4.36-.33.58.51-.07.95.27,1.24.61.28.34.53.74.99.92.37.14.84.12,1.17.32.49.3.41.89.27,1.37.8-.43,1.61-.85,2.41-1.28.14-.07.28-.15.39-.26.3-.31.14-.8-.24-1.06-.38-.26-.9-.34-1.41-.37-.5-.03-1.01-.01-1.49-.12-.12-.03-.25-.08-.29-.17-.06-.15.17-.27.37-.33.77-.23,1.55-.46,2.32-.7.16-.09.12-.3-.03-.41-.14-.11-.35-.14-.54-.16-1.45-.2-3.01-.54-4.47-.57.06.49,1.54.64.37,1.27Z" style="fill: #ececec;"/>
                <path d="m92.64,151.28c-.2-.02-.4.02-.54.16-.28.27-.18.76.1,1.04.27.27.66.4,1.02.54.72.3.57.77.92,1.29.42.62,1.38,1.11,1.98,1.57.12.09.25.18.4.17.18-.02.3-.18.38-.34.25-.51.26-1.14.04-1.66-.07-.15-.15-.32-.11-.48.07-.27.43-.32.71-.31.47.01.94.02,1.42.03.36,0,.78-.02.96-.32.16-.27.03-.65-.22-.85-.81-.66-2.63-.72-3.59-.5-.74.17-1.52.52-2.28.21-.29-.12-.54-.33-.83-.45-.11-.05-.23-.08-.35-.09Z" style="fill: #ececec;"/>
              </g>
              <path d="m98.25,131.55c-1.79-.31-3.34.89-3.87,1.85-.54.96-1.42,4.06-.99,5.17.43,1.11,3.42,2.53,5.13,2.9,1.71.37,4.67.8,6.15-1.11,1.48-1.91,1.73-5.12,1.73-5.12,0,0-3.21-3.88-8.14-3.7Z" style="fill: #ff9a79;"/>
              <g>
                <path d="m114.07,168.88c-1.7-3.78-3.52-13.31-3.98-17.42-.47-4.11-.95-15-4.84-18.12-3.88-3.12-7.79-1.84-7.79-1.84,0,0,3.14.03,6.03,2.4,3.82,3.12,2.7,13.96-.84,20-3.54,6.04-8.87,7.33-13.02,5.05-4.15-2.28-5.6-10.49-7.37-14.77-1.77-4.28-5.9-5.34-10.77-6.5-7.41.07-7.1,11.65-7.81,20.05-.71,8.4-3.77,7.58-5.9,20.55-1.23,7.49,1.68,19.15.65,29.95-1.03,10.8-.86,18.84,14.37,26.86,8.58,4.52,26.72,4.43,38.14-2.23,11.42-6.66,6.53-21.69,8.44-31.79,3.47-18.32-3.61-28.41-5.3-32.19Zm-33.12-10.28c-2.48,3.61-9.94,3.44-12.56-2.41-.96-2.16-.64-12.77,1.32-13.84,1.96-1.07,5.14.26,8.91,2.13,2.45,1.57,3.74,12.07,2.33,14.12Z" style="fill: #375a64;"/>
                <path d="m110.94,232.86c3.85-2.24,5.84-5.44,6.87-9.08-6.37,9.36-24.08,13.44-37.55,9.46-13.47-3.98-16.83-16.17-15.4-26.32,1.43-10.15-2.46-19.86-4.04-25.43-1.58-5.58,2.02-14.72,2.5-20.99h0c-1.09,5.65-3.67,6.43-5.53,17.79-1.23,7.49,1.68,19.15.65,29.95-1.03,10.8-.86,18.84,14.37,26.86,8.58,4.52,26.72,4.43,38.14-2.23Z" style="fill: #2b454e;"/>
                <g>
                  <g>
                    <path d="m112.22,181h-2.61c-1.28-6.85-5.99-7.93-11.81-6.65,2.8.17,6.35,3.1,6.8,6.67h-2.61c-.51,0-.89.64-.61,1.03l4.14,5.82c.19.27.6.27.88,0l6.1-5.85c.41-.39.25-1.02-.27-1.02Z" style="fill: #00dfbf;"/>
                    <path d="m101.94,177.94c-1.4-1.86-3.53-3.13-5.35-3.24,0,0-5.71,1.93-7.82,8.3,0,0,5.24-6.08,13.16-5.06Z" style="fill: #00dfbf;"/>
                    <path d="m101.94,177.94c-1.4-1.86-3.53-3.13-5.35-3.24,0,0-5.71,1.93-7.82,8.3,0,0,5.24-6.08,13.16-5.06Z" style="opacity: .25;"/>
                  </g>
                  <g>
                    <path d="m86.57,185.36l.91,2.33c-5.5,5.62-4.79,10.52-1.66,14.89-.82-2.61.48-7.69,3.41-10.43l.91,2.33c.18.46.85.38,1.09-.12l3.6-7.49c.16-.34.02-.71-.31-.78l-7.18-1.63c-.48-.11-.97.45-.79.9Z" style="fill: #00dfbf;"/>
                    <path d="m87.49,196.53c-1.12,2.46-1.49,5.2-.95,6.89,0,0,3.65,3.83,9.9,1.56,0,0-7.08-.71-8.95-8.45Z" style="fill: #00dfbf;"/>
                    <path d="m87.49,196.53c-1.12,2.46-1.49,5.2-.95,6.89,0,0,3.65,3.83,9.9,1.56,0,0-7.08-.71-8.95-8.45Z" style="opacity: .25;"/>
                  </g>
                  <g>
                    <path d="m99.25,205.42l1.7-2.34c6.77,1.24,10.78-2.59,13.47-8.24-1.97,2.44-6.82,4.59-10.22,3.76l1.7-2.34c.33-.46.03-1.01-.48-.9l-7.74,1.68c-.35.08-.62.44-.57.78l1.08,7.48c.07.5.72.57,1.05.11Z" style="fill: #00dfbf;"/>
                    <path d="m108.61,197.3c2.52-.6,5.02-2.07,6.3-3.65,0,0,2.05-5.77-2.09-9.86,0,0,1.85,6.79-4.21,13.51Z" style="fill: #00dfbf;"/>
                    <path d="m108.61,197.3c2.52-.6,5.02-2.07,6.3-3.65,0,0,2.05-5.77-2.09-9.86,0,0,1.85,6.79-4.21,13.51Z" style="opacity: .25;"/>
                  </g>
                </g>
                <path d="m105.25,136.69l1.04-2.25c-.31-.43-.65-.8-1.03-1.1-.2-.16-.4-.3-.59-.44l-.96,1.18c.68.63,1.19,1.53,1.55,2.61Z" style="fill: #2b454e;"/>
                <path d="m64.86,145.6c1.28,1.02,2.37,1.67,3.2,2.07.21-2.13.62-4.03,1.22-4.91l-2.71-2.15c-.81,1.35-1.34,3.07-1.72,4.99Z" style="fill: #2b454e;"/>
              </g>
              <path d="m104.01,128.79c-2.35,1.58-3.4,5.61-4.24,7.11-.83,1.5-1.69,2.51-1.03,3.09s3.09-.08,4.18-1.59c1.09-1.5,3.8-4.21,3.8-4.21l-2.72-4.4Z" style="fill: #ffbea7;"/>
            </g>
            <g id="Arm-3" data-name="Arm">
              <path d="m60.42,68.58c-6.83,1.19-8.93,4.27-10.4,11.35-1.47,7.08-5.09,20.1-6.22,27.27-.35,2.25-1.17,3.65,1.09,8.01,4.35,8.39,13.57,21.62,16.66,24.9,3.76,4,6.59,6.69,10.58,6.9,3.99.21,6.11-.65,6.49-2.55,0,0-6.42-2.81-7.31-6.59,0,0,1.99.51,5.51,2.13,3.1,1.43,4.28-.34,3.81-.74-1.47-.87-1.82-2.13-5.68-4.64-5-3.26-6.96-2.87-8.78-5.37-4.12-5.65-8.79-19.52-8.79-19.52l5.4-20.76s4.05-9.82-2.35-20.4Z" style="fill: #ffbea7;"/>
              <path d="m61.12,68.48c-5.3.01-8.67,3.2-9.77,5.66-1.09,2.46-5.35,20.79-5.35,20.79,0,0,3.8,4.92,14.74,4.56l4.14-15.5s1.61-10.01-3.76-15.52Z" style="fill: #ececec;"/>
            </g>
          </g>
        </g>
        <g id="Character-2" data-name="Character">
          <g id="Bottom-2" data-name="Bottom">
            <g>
              <path d="m191.63,221.71c-.08-2.77-.72-30.66-.72-30.66l12.95,10.49c-2.69,15.85-3.68,20.08-3.85,22.74h0c.02.06.06.29.04.68-.16,3.15-3.79,4.69-6.67,6.66-1.13.78-4.44,3.09-7.73,4.56-2.06.92-6.16.83-6.61-.5,3.5-2.42,7.54-5.06,10.36-7.89,1.35-1.35,2.33-2.77,2.23-6.09Z" style="fill: #ff9090;"/>
              <g>
                <path d="m173.13,238.82c-.17,0-.52,1.89.38,2.74,1.04.99,4.16,2.67,8.4,2.32,4.24-.35,6.58-1.55,8.33-2.88,1.75-1.33,4.2-3.22,6.13-3.55,1.79-.31,3.75-1.02,4.34-1.54.59-.52.62-2.96.62-2.96l-28.2,5.87Z" style="fill: #1a2e35;"/>
                <path d="m200.08,223.51s.53.03.61.6c.1.68.15,2.63.38,3.74.32,1.55.43,4.69.14,5.93-.29,1.24-3.21,1.97-5.09,2.59-1.92.63-4.16,2.01-6.15,3.5-2.05,1.54-6.29,2.99-9.04,2.9-4.19-.13-6.86-1.39-7.63-2.94-.95-1.91-.09-2.95,4.83-4.96.93-.38,4.22-2.13,5.34-2.77,3.04-1.72,6.08-4.18,7.59-7.4.18-.38.36-.8.74-.97.29-.14.63-.1.94-.04.8.15,1.57.42,2.29.8.63.34,1.53.74,1.48,1.57-.02.29-.11.56-.22.83-.07.17-.12.39.02.5.14.1.33,0,.46-.11.52-.43.92-.99,1.37-1.5.24-.27.5-.53.8-.74.27-.19.61-.28.85-.5.31-.28.25-.64.28-1.03Z" style="fill: #00dfbf;"/>
                <path d="m200.08,223.51s.53.03.61.6c.1.68.15,2.63.38,3.74.32,1.55.43,4.69.14,5.93-.29,1.24-3.21,1.97-5.09,2.59-1.92.63-4.16,2.01-6.15,3.5-2.05,1.54-6.29,2.99-9.04,2.9-4.19-.13-6.86-1.39-7.63-2.94-.95-1.91-.09-2.95,4.83-4.96.93-.38,4.22-2.13,5.34-2.77,3.04-1.72,6.08-4.18,7.59-7.4.18-.38.36-.8.74-.97.29-.14.63-.1.94-.04.8.15,1.57.42,2.29.8.63.34,1.53.74,1.48,1.57-.02.29-.11.56-.22.83-.07.17-.12.39.02.5.14.1.33,0,.46-.11.52-.43.92-.99,1.37-1.5.24-.27.5-.53.8-.74.27-.19.61-.28.85-.5.31-.28.25-.64.28-1.03Z" style="opacity: .5;"/>
                <path d="m177.34,235.2c6.05.7,7.79,4.53,7.94,6.86-1.53.46-3.09.75-4.35.71-4.19-.13-7.03-1.4-7.8-2.94-.9-1.8-.17-3.19,4.21-4.63Z" style="fill: #fafafa;"/>
                <g>
                  <path d="m186.44,235.68c.07,0,.13-.02.19-.06.13-.1.16-.28.06-.41-.8-1.07-3.17-2.55-5.39-2.41-.16,0-.29.15-.28.31,0,.16.15.29.31.28,2.07-.12,4.24,1.33,4.87,2.18.05.07.14.12.22.12Z" style="fill: #f0f0f0;"/>
                  <path d="m189.12,234.28c.07,0,.13-.02.19-.06.13-.1.16-.28.06-.42-.8-1.07-3.17-2.56-5.39-2.41-.16,0-.29.15-.28.31,0,.16.14.29.31.28,2.07-.13,4.24,1.33,4.87,2.18.05.07.14.12.22.12Z" style="fill: #f0f0f0;"/>
                  <path d="m191.62,232.65c.07,0,.13-.02.19-.06.13-.1.16-.28.06-.41-.8-1.07-3.18-2.56-5.39-2.41-.16,0-.29.15-.28.31,0,.16.15.29.31.28,2.07-.13,4.24,1.33,4.87,2.18.05.07.14.12.22.12Z" style="fill: #f0f0f0;"/>
                  <path d="m194.07,231.02c.06,0,.13-.01.19-.06.13-.1.16-.28.07-.41-1.09-1.52-3.68-2.61-5.89-2.47-.16,0-.29.15-.28.31,0,.16.15.28.31.28,1.99-.12,4.4.87,5.37,2.22.05.08.14.12.23.12Z" style="fill: #f0f0f0;"/>
                </g>
              </g>
            </g>
            <g>
              <path d="m219.31,201.97l13.45-1.87c.38,8.93-.88,19.57-.56,27.95.06,1.58.84,12.23.46,15.51-.57,4.93-6.4,4.65-6.89,1.75-.5-2.89-.63-15.39-.73-16.67-.3-5.37-3.17-14.26-5.12-23.8-.1-.47-.5-2.42-.59-2.88Z" style="fill: #ff9090;"/>
              <g>
                <path d="m223.72,247.49c.07,2.87.44,4.78,1.4,6.5.96,1.71,2.85,2.31,4.81,1.89,1.96-.42,4.49-1.65,5.13-4.1.64-2.45.59-4.15.24-6.82l-11.59,2.54Z" style="fill: #1a2e35;"/>
                <path d="m232.17,227.03c.8.09.9,3.94,1.22,7.81.35,4.14,1.52,5.89,1.84,9.29.37,3.88.11,5.6-1.33,7.89-1.44,2.29-6.31,4.41-8.55.98-1.83-2.8-1.8-5.82-1.49-9.68.32-3.98.58-6.78.52-9.82-.05-2.9-.16-5.71.55-6.01.04.43.07.97.11,1.39.03.32.06,1.89.5,1.92.05-.37.06-.71.05-1.09-.01-.33.03-.68.25-.93.22-.24.58-.31.9-.37.79-.13,1.59-.24,2.39-.28.4-.02.8-.03,1.2,0,.32.02.71.06,1.01.18.19.08.36.22.42.41.05.14.03.29.03.44,0,.27.01.54.07.8.03.11.1.26.21.23.09-.02.13-.13.14-.23.02-.47-.03-.81-.03-1.35,0-.25-.03-.59-.02-.85,0-.25.01-.5,0-.74Z" style="fill: #00dfbf;"/>
                <path d="m232.17,227.03c.8.09.9,3.94,1.22,7.81.35,4.14,1.52,5.89,1.84,9.29.37,3.88.11,5.6-1.33,7.89-1.44,2.29-6.31,4.41-8.55.98-1.83-2.8-1.8-5.82-1.49-9.68.32-3.98.58-6.78.52-9.82-.05-2.9-.16-5.71.55-6.01.04.43.07.97.11,1.39.03.32.06,1.89.5,1.92.05-.37.06-.71.05-1.09-.01-.33.03-.68.25-.93.22-.24.58-.31.9-.37.79-.13,1.59-.24,2.39-.28.4-.02.8-.03,1.2,0,.32.02.71.06,1.01.18.19.08.36.22.42.41.05.14.03.29.03.44,0,.27.01.54.07.8.03.11.1.26.21.23.09-.02.13-.13.14-.23.02-.47-.03-.81-.03-1.35,0-.25-.03-.59-.02-.85,0-.25.01-.5,0-.74Z" style="opacity: .5;"/>
                <path d="m235.38,246.37c.05,2.4-.14,4.04-1.26,5.84-1.44,2.29-6.7,4.41-8.94.98-1.12-1.71-1.36-3.69-1.45-5.7,1.51-2.53,9.5-3.39,11.66-1.11Z" style="fill: #fafafa;"/>
                <g>
                  <path d="m225.92,243.35s.07,0,.1-.02c.03-.01,3.35-1.43,6.92-.47.16.04.32-.05.36-.21.04-.16-.05-.32-.21-.36-3.78-1.01-7.17.44-7.31.5-.15.07-.22.24-.15.39.05.12.17.19.29.18Z" style="fill: #f0f0f0;"/>
                  <path d="m232.85,239.97c.11,0,.22-.08.26-.19.06-.15-.02-.33-.17-.38-3.54-1.34-7.15.36-7.3.43-.15.07-.21.25-.14.4.07.15.25.21.4.14.03-.02,3.54-1.66,6.83-.41.04.02.08.02.12.02Z" style="fill: #f0f0f0;"/>
                  <path d="m232.74,237.25c.11,0,.21-.08.26-.19.06-.15-.01-.33-.17-.39-3.89-1.55-7.3.32-7.45.4-.14.08-.19.26-.11.4.08.14.26.19.4.11.03-.02,3.31-1.81,6.94-.37.04.02.09.02.13.02Z" style="fill: #f0f0f0;"/>
                  <path d="m232.6,234.19c.11,0,.21-.07.25-.18.06-.15,0-.32-.16-.39-3.65-1.51-7.35.4-7.5.49-.15.08-.2.26-.12.4.08.15.26.2.4.12.04-.02,3.61-1.87,7-.46.04.02.09.03.13.02Z" style="fill: #ececec;"/>
                </g>
              </g>
            </g>
            <g>
              <path d="m226.72,112.25c2.35,5.94,4.97,10.13,4.91,21.17-.12,23.47-.97,40.38-.97,40.38.08,2.07,1.03,5.14,2.06,15.84.86,8.96.13,22.69.13,22.69,0,0-6.09,2.93-11.54.49-1.93-7.7-5.16-27.75-7.2-38.03-1.86-9.34-3.54-22.98-3.54-22.98l-4.3,22.83s.34,9.22-.16,14.63c-.58,6.29-4.13,23.86-4.13,23.86,0,0-6.22,2.47-10.85-1.22,0,0-1.23-31.79-1.02-39.38.42-14.89.75-46.28,3.89-61.77l32.73,1.5Z" style="fill: #00dfbf;"/>
              <path d="m226.72,112.25c2.35,5.94,4.97,10.13,4.91,21.17-.12,23.47-.97,40.38-.97,40.38.08,2.07,1.03,5.14,2.06,15.84.86,8.96.13,22.69.13,22.69,0,0-6.09,2.93-11.54.49-1.93-7.7-5.16-27.75-7.2-38.03-1.86-9.34-3.54-22.98-3.54-22.98l-4.3,22.83s.34,9.22-.16,14.63c-.58,6.29-4.13,23.86-4.13,23.86,0,0-6.22,2.47-10.85-1.22,0,0-1.23-31.79-1.02-39.38.42-14.89.75-46.28,3.89-61.77l32.73,1.5Z" style="opacity: .3;"/>
              <path d="m233.21,210.12c-2.3,1.33-9.48,2.02-12.51.76l.74,3.63s1.35,1.03,5.59.94c4.23-.09,5.94-1.79,5.94-1.79l.24-3.54Z" style="fill: #375a64;"/>
              <path d="m202.72,210.07c-2.46,1.03-9.1.8-11.94-.83l.27,3.7s.94,1.42,5.17,1.64c4.25.22,5.81-1.02,5.81-1.02l.69-3.48Z" style="fill: #375a64;"/>
              <path d="m210.57,151.81l-1.98-16.65s-9.84-1.52-13.31-5.1c0,0,4.31,6.55,10.98,7.83l2.34,13.82-2.29,22.73,4.26-22.64Z" style="opacity: .15;"/>
            </g>
          </g>
          <g id="Top-2" data-name="Top">
            <g id="Hat">
              <path d="m209.46,52.87c7.59,2.96,15.71.3,18.14-5.94s-1.75-13.69-9.33-16.64c-7.59-2.96-15.71-.3-18.14,5.94-2.43,6.24,1.75,13.69,9.33,16.64Z" style="fill: #00dfbf;"/>
              <path d="m209.46,52.87c7.59,2.96,15.71.3,18.14-5.94s-1.75-13.69-9.33-16.64c-7.59-2.96-15.71-.3-18.14,5.94-2.43,6.24,1.75,13.69,9.33,16.64Z" style="fill: #fff; opacity: .6;"/>
              <path d="m216.81,35.17c-13.59-6.02-27.61-4.12-31.32,4.25-3.71,8.37,4.3,20.04,17.89,26.06,13.59,6.02,27.61,4.12,31.32-4.25,3.71-8.37-4.3-20.04-17.89-26.06Z" style="fill: #00dfbf;"/>
            </g>
            <path id="Hair" d="m226.15,54.17c-.18-.22.01,6.84.88,10.67.72,3.17,3.66,10.51,4.94,16.88,1.19,5.9,6.3,22-6.39,27.84h-25.78s-1.17-36.16,2.57-46.04c3.75-9.87,3-11.63,3-11.63l20.76,2.28Z" style="fill: #1a2e35;"/>
            <g id="Arm-4" data-name="Arm">
              <g>
                <path d="m202.56,69.25c-3.72-.17-7.02.59-9.26,3.4-3.51,4.4-10.27,15.64-14.16,22.53l-16.26,4.98,2.47,8.34s11.47-1.76,15.25-2.51c5.77-1.15,6.2-.58,8.42-3.79,1.91-2.77,7.27-10.72,7.27-10.72l6.26-22.23Z" style="fill: #ff9090;"/>
                <g id="Shovel">
                  <g>
                    <path d="m132.04,184.27l-1.61.93-3.83,21.27c-1.14,6.33-.26,11.13,1.42,17.59l1.84,7.06c.65,2.48,1.91,4.01,3.17,4.01,1.63,0,3.39-.74,6.32-2.66,2.93-1.92,5.16-3.95,7.05-11.71,2.38-9.74,2.7-20.68,2.7-20.68l-17.07-15.81Z" style="fill: #1a2e35;"/>
                    <polygon points="132.04 184.27 130.43 185.2 147.5 201.01 149.11 200.08 132.04 184.27" style="fill: #375a64;"/>
                    <path d="m127.19,223.25c.56,2.51,1.63,5.85,2.4,7.89,1.07,2.84,2.18,3.98,3.45,3.98.29,0,.61-.02,1.31-.33s1.62-.67,3.5-2.1c3.18-2.42,4.88-4.44,6.51-10.5,2.4-8.9,3.14-21.18,3.14-21.18l-17.07-15.81-3.83,21.27c-1.14,6.33-.9,10.06.6,16.78Z" style="fill: #2b454e;"/>
                    <path d="m137.35,191.61l3.23,2.99c-.14,4.7-2.34,17.38-3.31,19.36-.97,1.98-2,.93-1.8-.87s2.16-16.03,1.88-21.49Z" style="fill: #1a2e35;"/>
                  </g>
                  <g>
                    <g>
                      <path d="m149.13,126.16l3.23,2.99-11.78,65.44c-.4,1.65-3.87.52-3.23-2.99l11.78-65.44Z" style="fill: #00dfbf;"/>
                      <path d="m149.13,126.16l3.23,2.99-11.78,65.44c-.4,1.65-3.87.52-3.23-2.99l11.78-65.44Z" style="opacity: .3;"/>
                    </g>
                    <path d="m147.25,136.12c-.58,3.19,3.09,4.86,3.39,3.14l1.86-10.3-3.39-3.14-1.86,10.3Z" style="fill: #375a64;"/>
                    <path d="m147.74,111.47c-.66,3.66-.48,7.88.5,11.62l1.22,4.67c.43,1.65,1.37,2.52,2.19,2.03l2.32-1.4c1.85-1.12,3.28-3.85,3.94-7.5l1.06-5.89c.04-.23.06-.47.06-.71h0c0-.77-.17-1.55-.48-2.06-1.28-2.11-2.65-3.83-4.08-5.16-1.43-1.33-2.94-2.26-4.51-2.79-.38-.13-.75.15-.98.71h0c-.07.18-.13.39-.17.61l-1.06,5.89Zm5.73,14.4l-2.32,1.4c-.21.13-.46-.1-.57-.53l-1.22-4.68c-.79-3.04-.94-6.49-.4-9.47l.59-3.26c2.84.87,5.44,3.27,7.73,7.16l-.59,3.26c-.54,2.98-1.71,5.21-3.21,6.12Z" style="fill: #2b454e;"/>
                  </g>
                </g>
                <path d="m162.88,100.16c-3.75,1.27-7.16,1.09-9.14,2.23-1.18.68-4.07,5.34-3.84,6.64.36,2,.54,2.95,2.3,4.64s2.45,2.83,3.23,3.11c.78.28,1.83-.3,1.83-.3l-1.82-2.69s-.69-3.07,1.82-3.51l1.27,1.92c.32.8.54,2.11.28,3.51,0,0,1.3.7,2.29-.78.99-1.48,1.84-4.4,2.54-5.38.71-.98,3.6-1.35,3.6-1.35l-4.38-8.05Z" style="fill: #ff9090;"/>
                <path d="m202.38,69.02c-2.57-.02-5.74-.25-8.48,2.61-2.75,2.86-4.42,5.95-6.56,9.35-2.14,3.39-4.47,7.78-4.47,7.78,0,0,2.12,5.31,9.49,8.55l9.62-13.54.4-14.74Z" style="fill: #ececec;"/>
                <path d="m179.14,95.19c1.87.42,4.9,2.12,5.32,4,0,0,.08-3.11-4.64-5.21l-.68,1.2Z" style="fill: #c76668;"/>
              </g>
            </g>
            <g id="Chest-2" data-name="Chest">
              <path d="m194.86,94.32c.17,3.91-2.5,24.76-2.5,24.76,10.23,6.29,32.95,5.87,36.58-2.66-1.04-2.94-3.89-9.05-3.66-11.79l2.56-15.71s-4.68-7.75-3.61-18.56l-8.75-1.32-8.4-.15-4.7.12c-1.85,1.58-4.74,5.67-7.48,10.32-3.34,5.67-3.41,11.05-.04,14.97Z" style="fill: #f5f5f5;"/>
            </g>
            <g>
              <path d="m197.34,86.52s-.06-.02-.08-.05c-.02-.03-.03-.06-.03-.1l-.09-2.85s0-.03,0-.04c0-.02.02-.04.04-.06.02-.02.04-.02.06-.02l.41.05s.06.02.08.05c.01.03.02.05.02.08l.04,2.06.89-1.94s.03-.04.05-.07.05-.03.09-.03l.41.05s.03.01.04.03.01.04,0,.07c0,.01,0,.02-.01.04l-1.26,2.69s-.03.06-.06.09c-.03.02-.06.03-.1.03l-.51-.06Z" style="fill: #375a64;"/>
              <path d="m199.84,86.86c-.2-.02-.37-.09-.5-.19-.13-.1-.22-.25-.27-.43-.05-.19-.05-.41,0-.67.02-.12.05-.25.08-.38.03-.12.05-.25.08-.37.06-.26.16-.47.28-.64.12-.17.27-.29.44-.36s.35-.09.55-.07c.2.02.37.09.5.2.13.11.22.26.27.44.05.19.05.41,0,.67-.02.12-.05.25-.07.37-.03.13-.06.25-.09.37-.06.26-.15.47-.28.64-.12.16-.27.28-.44.35-.17.07-.35.09-.56.07Zm.13-.62c.12.01.22-.02.32-.1.09-.08.16-.23.21-.43.03-.13.06-.25.08-.36.02-.11.05-.23.07-.35.02-.14.03-.25.01-.34-.02-.09-.05-.16-.1-.21-.05-.05-.12-.08-.19-.09-.07,0-.15,0-.21.04s-.13.09-.18.17c-.05.08-.1.19-.13.32-.03.12-.05.24-.08.35-.02.11-.05.23-.07.36-.04.2-.03.35.03.46.05.1.14.16.25.17Z" style="fill: #375a64;"/>
              <path d="m201.34,87s-.04-.02-.05-.04c-.01-.02-.01-.05,0-.08l.6-2.81s.02-.06.04-.08c.02-.02.04-.03.06-.02l.44.05s.04.02.05.04c0,.02.01.05,0,.08l-.48,2.27,1,.12s.04.02.05.04c0,.02.01.05,0,.08l-.09.43s-.02.05-.04.07c-.02.02-.04.03-.07.03l-1.52-.18Z" style="fill: #375a64;"/>
              <path d="m204.15,87.38c-.2-.02-.37-.09-.5-.19-.13-.1-.22-.25-.26-.44-.04-.19-.04-.42.02-.69l.38-1.77s.02-.06.04-.08.04-.03.07-.02l.43.05s.04.02.05.04c.01.02.01.05,0,.08l-.37,1.76c-.04.19-.04.33.01.43.05.1.14.16.26.18.12.02.23-.02.32-.11.09-.09.15-.22.19-.41l.37-1.76s.02-.06.04-.08c.02-.02.04-.03.07-.02l.43.05s.04.01.05.04c.01.02.01.05,0,.08l-.38,1.77c-.06.27-.15.49-.27.66-.12.17-.26.28-.43.35-.17.07-.35.09-.55.07Z" style="fill: #375a64;"/>
              <path d="m205.67,87.52s-.04-.02-.05-.04c0-.02-.01-.05,0-.08l.6-2.81s.02-.06.04-.08c.02-.02.04-.03.07-.02l.35.04s.06.02.07.04c.01.02.02.04.02.05l.45,1.76.35-1.64s.02-.06.04-.08c.02-.02.04-.03.07-.02l.4.05s.04.02.05.04c0,.02.01.05,0,.08l-.6,2.81s-.02.06-.04.08c-.02.02-.04.03-.07.03l-.35-.04s-.06-.02-.07-.04c-.01-.03-.02-.04-.02-.05l-.47-1.7-.33,1.58s-.02.05-.04.07c-.02.02-.04.03-.07.03l-.4-.05Z" style="fill: #375a64;"/>
              <path d="m208.55,87.87s-.04-.02-.05-.04c-.01-.02-.01-.05,0-.08l.48-2.24-.59-.07s-.04-.02-.05-.04c0-.02-.01-.05,0-.08l.1-.46s.02-.06.04-.08.04-.03.07-.02l1.78.21s.04.02.05.04c.01.02.01.05,0,.08l-.1.46s-.02.05-.04.07c-.02.02-.04.03-.07.03l-.59-.07-.48,2.24s-.02.05-.04.07c-.02.02-.04.03-.07.03l-.44-.05Z" style="fill: #375a64;"/>
              <path d="m210.13,88.06s-.04-.02-.05-.04c-.01-.02-.01-.05,0-.08l.6-2.81s.02-.06.04-.08c.02-.02.04-.03.07-.02l1.54.19s.04.02.05.04c.01.02.01.05,0,.08l-.09.41s-.02.06-.04.07c-.02.02-.04.03-.07.02l-1.05-.13-.12.58.98.12s.04.02.05.04c.01.02.01.05,0,.08l-.08.38s-.02.05-.04.07c-.02.02-.04.03-.07.02l-.98-.12-.13.6,1.08.13s.04.02.05.04c.01.02.01.05,0,.08l-.09.41s-.02.05-.04.07c-.02.02-.04.03-.07.03l-1.57-.19Z" style="fill: #375a64;"/>
              <path d="m212.24,88.32s-.04-.02-.05-.04c-.01-.02-.01-.05,0-.08l.6-2.81s.02-.06.04-.08c.02-.02.04-.03.06-.02l1.54.19s.04.02.05.04c.01.02.01.05,0,.08l-.09.41s-.02.06-.04.07c-.02.02-.04.03-.07.02l-1.05-.13-.12.58.98.12s.04.02.05.04c.01.02.01.05,0,.08l-.08.38s-.02.05-.04.07c-.02.02-.04.03-.07.02l-.98-.12-.13.6,1.08.13s.04.02.05.04c.01.02.01.05,0,.08l-.09.41s-.02.05-.04.07c-.02.02-.04.03-.07.03l-1.57-.19Z" style="fill: #375a64;"/>
              <path d="m214.35,88.57s-.04-.02-.05-.04c-.01-.02-.01-.05,0-.08l.6-2.81s.02-.06.04-.08c.02-.02.04-.03.07-.02l.9.11c.29.03.49.15.62.34s.16.44.09.76c-.04.21-.12.37-.22.51-.1.13-.23.23-.37.28l.23,1.12s0,.03,0,.05c0,.02-.02.04-.03.06-.02.02-.04.02-.05.02l-.44-.05s-.07-.02-.08-.05c-.01-.03-.02-.06-.03-.08l-.17-1-.34-.04-.2.96s-.02.05-.04.07c-.02.02-.04.03-.07.03l-.43-.05Zm.87-1.62l.38.05c.1.01.19-.01.25-.07s.11-.15.13-.26c.02-.11.02-.21-.02-.28-.04-.08-.11-.12-.21-.13l-.38-.05-.16.74Z" style="fill: #375a64;"/>
            </g>
            <path d="m204.07,92.65c2.37-3.9,8.67-2.21,6.57,3.15-1.96,5.01-8.08,7.69-8.08,7.69,0,0-4.28-3.47-4.89-7.68-.81-5.62,4.83-7.89,6.4-3.16Z" style="fill: #00dfbf;"/>
            <g id="Head-2" data-name="Head">
              <g>
                <path d="m217.53,64.36c1.14-1.29,3-2.24,5.7-5.16,3.75-4.06,6.05-12.83.42-18.12-3.73-5.43-12.6-7.83-18.36-6.82-9.23,1.62-10.85,10.08-8.72,13.18l20.97,16.92Z" style="fill: #1a2e35;"/>
                <path d="m224.29,52.01c-1-1.26-2.79-1.47-3.84-.14-.35.45-.59.98-.93,1.44-.34.46-.86.85-1.43.83-.43-.02-.9-.24-1.1-.62-.27-.54-.23-1.19-.27-1.62-.78-7.72-2.76-9.41-8.16-8.09-2.42-2.27-3.82-2.72-6.67-2.5-3.11.24-5.6,1.54-5.6,10.49,0,7.92,2.69,11.69,4.02,12.45s2.98.99,5.63.84l-.21,4.5s-2.32,3.03.13,6.64c0,0,2.87.11,6.17-1.34,5.34-2.35,5.14-4.83,5.14-4.83l.7-11.98s1.65,2.55,4.49.56c2.35-1.65,3.41-4.73,1.92-6.61Z" style="fill: #ff9090;"/>
                <g>
                  <path d="m208.14,50.87c-.09.63.35,1.24.99,1.35.64.11,1.23-.32,1.32-.95.09-.63-.35-1.24-.99-1.35-.64-.11-1.23.32-1.32.95Z" style="fill: #1a2e35;"/>
                  <path d="m198.24,47.6l2.56-1.12c-.28-.72-1.09-1.06-1.79-.75-.71.31-1.05,1.15-.76,1.87Z" style="fill: #1a2e35;"/>
                  <path d="m208.86,46.9l2.41,1.41c.42-.66.21-1.5-.45-1.89-.67-.39-1.54-.17-1.96.49Z" style="fill: #1a2e35;"/>
                  <g>
                    <path d="m208.13,57.62l-4.61,1.32c.32,1.3,1.74,2.04,3.19,1.57,1.26-.41,1.74-1.6,1.42-2.89Z" style="fill: #b0494c;"/>
                    <path d="m205.39,60.61c.19-1.27,1.29-2.22,2.6-2.16.08,0,.15.02.23.03-.04.93-.54,1.71-1.51,2.03-.46.15-.9.16-1.32.09Z" style="fill: #ffaaa8;"/>
                  </g>
                  <path d="m198.66,50.57c-.09.61.34,1.2.96,1.3.62.11,1.19-.31,1.28-.92.09-.61-.34-1.2-.96-1.3-.62-.11-1.19.31-1.28.92Z" style="fill: #1a2e35;"/>
                  <path d="m205.15,49.44l-.05,6.78-3.2-.69c.52-2.29,1.57-4.54,3.25-6.09Z" style="fill: #c76668;"/>
                  <path d="m205.95,65.08c2.8-.29,8.77-1.5,9.89-3.64,0,0-.57,1.76-2.41,3.02-1.84,1.26-7.55,2.21-7.55,2.21l.07-1.59Z" style="fill: #c76668;"/>
                </g>
              </g>
            </g>
            <path d="m197.63,38.68c12.39-4.16,28.96,9.59,28.47,16.59,2.76-3.04.26-12.71.26-12.71-3.18-4.88-13.71-9.89-21.44-9.91-3.39,1.3-6.27,3.4-7.29,6.02Z" style="fill: #00dfbf;"/>
            <g>
              <path d="m220.87,120.94c2.94-1.18,4.79-2.87,4.79-2.87-1.34.09-2.4.13-3.12-.02-1.43-.3-1.76-1.39-1.69-1.91.05-.41,1.05-.2,2.62-.69,2.01-.63,3.29-1.34,5.57-1.47.85-.05,1.54-.71,2.16-1.28.58-.54,3.49-5.63,6.08-11.13l-10.25-12.41c-4.76-4.05-6.37-12.64-2.79-18.79,8.77,1.21,7.23,2.17,23.24,26.66,2.74,4.27,2.64,6.29-7.48,18.81-1.83,2.27-4.88,5.75-6.91,7.65-5.84,5.45-9.84,4.43-12.51,3.47-5.15-1.86-3.68-4.42.3-6.02Z" style="fill: #ff9090;"/>
              <path d="m223.57,70.27c2.66.02,5.88.71,7.37,1.91,1.49,1.21,3.27,3.45,6.78,8.96,3.5,5.51,5.28,8.02,5.28,8.02,0,0-1.96,6.61-9.42,8.46l-9.65-11.37s-5.39-8.3-.37-15.98Z" style="fill: #ececec;"/>
            </g>
          </g>
        </g>
      </g>
      <path d="m127.97,263.55c-.39-.01-.69-.33-.68-.72.01-.39.34-.71.72-.68,1.24.04,2.49.05,3.72.05.39,0,.7.31.7.7s-.31.7-.7.7c-1.24,0-2.51-.02-3.76-.05Zm6.81-.68c-.01-.39.29-.71.68-.72,1.23-.03,2.48-.09,3.72-.15.4-.02.72.27.74.66.02.39-.27.72-.66.74-1.25.07-2.51.12-3.76.16,0,0-.01,0-.02,0-.38,0-.69-.3-.7-.68Zm-10.57.52c-1.25-.07-2.51-.16-3.75-.27-.39-.03-.67-.37-.64-.76.03-.39.38-.68.76-.64,1.23.1,2.48.19,3.71.26.39.02.68.35.66.74-.02.37-.33.66-.7.66-.01,0-.03,0-.04,0Zm18.04-.89c-.03-.39.25-.72.64-.76,1.23-.1,2.48-.23,3.71-.36.38-.04.73.23.77.62.04.38-.23.73-.62.77-1.24.14-2.5.26-3.74.37-.02,0-.04,0-.06,0-.36,0-.67-.28-.7-.64Zm-25.54.26c-1.24-.14-2.49-.3-3.73-.48-.38-.06-.65-.41-.59-.79.05-.38.41-.65.79-.59,1.22.17,2.47.33,3.69.47.38.04.66.39.62.77-.04.36-.34.62-.69.62-.03,0-.05,0-.08,0Zm32.98-1.06c-.05-.38.21-.74.59-.79,1.22-.17,2.46-.37,3.68-.58.38-.06.74.19.81.57.07.38-.19.74-.57.81-1.23.21-2.48.41-3.72.58-.03,0-.07,0-.1,0-.34,0-.64-.25-.69-.6Zm-40.43,0c-1.22-.21-2.47-.44-3.7-.69-.38-.08-.62-.45-.55-.82.08-.38.45-.62.82-.55,1.22.25,2.45.48,3.66.68.38.07.64.43.57.81-.06.34-.35.58-.69.58-.04,0-.08,0-.12-.01Zm47.82-1.22c-.08-.38.17-.75.55-.82,1.22-.24,2.44-.51,3.64-.79.38-.08.75.15.84.52.09.38-.15.75-.52.84-1.21.28-2.45.55-3.68.79-.05,0-.09.01-.14.01-.33,0-.62-.23-.69-.56Zm-55.2-.27c-1.21-.28-2.44-.58-3.65-.9-.37-.1-.6-.48-.5-.85.1-.37.48-.6.85-.5,1.2.32,2.42.62,3.61.89.38.09.61.46.52.84-.07.32-.36.54-.68.54-.05,0-.11,0-.16-.02Zm62.5-1.37c-.1-.37.13-.76.5-.85,1.2-.31,2.41-.65,3.59-.99.37-.11.76.1.87.47.11.37-.1.76-.47.87-1.19.35-2.41.69-3.63,1-.06.02-.12.02-.18.02-.31,0-.59-.21-.68-.52Zm-69.78-.54c-1.2-.35-2.41-.73-3.6-1.11-.37-.12-.57-.51-.45-.88.12-.37.51-.57.88-.45,1.17.38,2.37.75,3.56,1.1.37.11.58.5.47.87-.09.3-.37.5-.67.5-.07,0-.13,0-.2-.03Zm76.98-1.52c-.12-.37.08-.76.45-.88,1.18-.38,2.37-.79,3.54-1.2.36-.13.76.06.89.42.13.36-.06.76-.42.89-1.18.42-2.38.83-3.58,1.22-.07.02-.14.03-.22.03-.3,0-.57-.19-.67-.48Zm-84.13-.8c-1.17-.42-2.36-.86-3.53-1.32-.36-.14-.54-.55-.4-.91.14-.36.55-.54.91-.4,1.16.45,2.33.89,3.49,1.3.36.13.55.53.42.89-.1.29-.37.46-.66.46-.08,0-.16-.01-.24-.04Zm91.22-1.68c-.14-.36.04-.77.4-.91,1.15-.45,2.32-.92,3.46-1.4.36-.15.77.02.92.37.15.36-.02.77-.37.92-1.15.49-2.33.97-3.5,1.42-.08.03-.17.05-.25.05-.28,0-.54-.17-.65-.45Zm-98.22-1.05c-1.14-.48-2.29-.99-3.43-1.51-.35-.16-.51-.58-.35-.93.16-.35.58-.5.93-.35,1.13.52,2.27,1.02,3.4,1.5.36.15.52.56.37.92-.11.27-.37.43-.65.43-.09,0-.18-.02-.27-.06Zm105.15-1.83c-.16-.35,0-.77.35-.93,1.12-.51,2.26-1.05,3.37-1.6.35-.17.77-.03.94.32.17.35.03.77-.32.94-1.12.55-2.27,1.1-3.41,1.62-.09.04-.19.06-.29.06-.27,0-.52-.15-.64-.41Zm-111.98-1.29c-1.12-.55-2.24-1.12-3.34-1.71-.34-.18-.47-.6-.29-.95.18-.34.6-.47.95-.29,1.09.58,2.2,1.14,3.31,1.69.35.17.49.59.32.94-.12.25-.37.39-.63.39-.1,0-.21-.02-.31-.07Zm118.72-1.99c-.18-.34-.05-.77.29-.95,1.09-.57,2.19-1.18,3.27-1.79.34-.19.76-.07.95.26.19.34.07.76-.26.95-1.1.62-2.21,1.23-3.31,1.81-.1.06-.22.08-.33.08-.25,0-.49-.14-.62-.37Zm-125.36-1.52c-1.09-.61-2.18-1.25-3.24-1.9-.33-.2-.44-.63-.24-.96.2-.33.63-.44.96-.24,1.05.64,2.13,1.27,3.21,1.88.34.19.45.62.26.95-.13.23-.37.35-.61.35-.12,0-.24-.03-.34-.09Zm131.91-2.14c-.2-.33-.09-.76.24-.96,1.05-.64,2.12-1.3,3.16-1.97.32-.21.76-.12.97.21.21.32.12.76-.21.97-1.06.68-2.13,1.35-3.2,1.99-.11.07-.24.1-.36.1-.24,0-.47-.12-.6-.34Zm-138.34-1.75c-1.04-.67-2.09-1.37-3.13-2.08-.32-.22-.4-.65-.18-.97.22-.32.65-.4.97-.18,1.02.7,2.07,1.39,3.1,2.06.32.21.42.64.21.97-.13.21-.36.32-.59.32-.13,0-.26-.04-.38-.11Zm144.66-2.28c-.22-.32-.14-.75.18-.97,1.02-.7,2.04-1.42,3.04-2.15.31-.23.75-.16.98.15.23.31.16.75-.15.98-1.02.74-2.05,1.47-3.08,2.17-.12.08-.26.12-.39.12-.22,0-.44-.11-.58-.3Zm-150.86-1.97c-1.01-.74-2.02-1.49-3.01-2.25-.31-.24-.36-.68-.13-.98.24-.31.68-.36.98-.13.98.75,1.98,1.5,2.98,2.23.31.23.38.67.15.98-.14.19-.35.29-.57.29-.14,0-.29-.04-.41-.13Zm156.94-2.41c-.24-.31-.18-.75.13-.98.98-.76,1.96-1.54,2.92-2.32.3-.25.74-.2.98.1.25.3.2.74-.1.98-.97.79-1.96,1.58-2.95,2.34-.13.1-.28.15-.43.15-.21,0-.42-.09-.55-.27Zm-162.9-2.19c-.97-.79-1.94-1.61-2.88-2.42-.29-.25-.32-.7-.07-.99.25-.29.69-.32.99-.07.93.81,1.89,1.61,2.85,2.4.3.24.34.69.1.99-.14.17-.34.26-.54.26-.16,0-.31-.05-.44-.16Zm168.72-2.53c-.25-.29-.22-.73.07-.99.94-.81,1.87-1.65,2.78-2.48.28-.26.73-.24.99.04s.24.73-.04.99c-.92.84-1.86,1.69-2.81,2.51-.13.11-.3.17-.46.17-.2,0-.39-.08-.53-.24Zm-174.4-2.4c-.92-.84-1.84-1.71-2.74-2.58-.28-.27-.28-.71-.01-.99.27-.28.71-.28.99-.01.89.86,1.8,1.72,2.71,2.56.28.26.3.7.04.99-.14.15-.33.23-.52.23-.17,0-.34-.06-.47-.18Zm179.95-2.64c-.27-.28-.26-.72.01-.99.88-.86,1.77-1.74,2.63-2.63.27-.28.71-.28.99-.01.28.27.28.71.01.99-.87.9-1.77,1.79-2.66,2.66-.14.13-.31.2-.49.2s-.36-.07-.5-.21Zm-185.34-2.61c-.87-.89-1.74-1.81-2.59-2.73-.26-.28-.24-.73.04-.99.28-.26.73-.24.99.04.84.91,1.7,1.82,2.56,2.7.27.28.26.72-.01.99-.14.13-.31.2-.49.2s-.36-.07-.5-.21Zm190.59-2.73c-.28-.26-.3-.7-.04-.99.83-.9,1.66-1.84,2.48-2.78.25-.29.7-.32.99-.07.29.25.32.7.07.99-.82.95-1.66,1.89-2.5,2.81-.14.15-.33.23-.52.23-.17,0-.34-.06-.47-.18Zm-195.68-2.81c-.82-.94-1.64-1.91-2.43-2.88-.25-.3-.2-.74.1-.98.3-.25.74-.2.98.1.78.96,1.59,1.91,2.4,2.85.25.29.22.73-.07.99-.13.11-.3.17-.46.17-.2,0-.39-.08-.53-.24Zm200.61-2.82c-.3-.25-.34-.69-.1-.99.79-.96,1.57-1.94,2.32-2.91.24-.31.68-.36.98-.13.31.24.36.68.13.98-.76.98-1.55,1.97-2.34,2.94-.14.17-.34.26-.54.26-.16,0-.31-.05-.44-.16Zm-205.39-3.01c-.76-.98-1.52-2-2.26-3.01-.23-.31-.16-.75.15-.98.31-.23.75-.16.98.15.73,1,1.48,2.01,2.24,2.98.24.31.18.74-.13.98-.13.1-.28.15-.43.15-.21,0-.42-.09-.55-.27Zm209.99-2.89c-.31-.23-.38-.67-.15-.98.72-.99,1.44-2.01,2.15-3.04.22-.32.65-.4.97-.18.32.22.4.65.18.97-.71,1.04-1.44,2.07-2.17,3.07-.14.19-.35.29-.57.29-.14,0-.29-.04-.41-.13Zm-214.43-3.2c-.71-1.03-1.41-2.09-2.09-3.14-.21-.32-.12-.76.21-.97.32-.21.76-.12.97.21.67,1.04,1.36,2.08,2.06,3.1.22.32.14.75-.18.97-.12.08-.26.12-.4.12-.22,0-.44-.11-.58-.3Zm218.68-2.94c-.32-.21-.42-.64-.21-.97.67-1.04,1.33-2.1,1.97-3.15.2-.33.63-.44.96-.24.33.2.44.63.24.96-.65,1.07-1.31,2.14-1.99,3.19-.13.21-.36.32-.59.32-.13,0-.26-.04-.38-.11Zm-222.77-3.39c-.65-1.07-1.29-2.16-1.9-3.25-.19-.34-.07-.76.26-.95.34-.19.76-.07.95.26.61,1.08,1.24,2.16,1.88,3.22.2.33.09.76-.24.96-.11.07-.24.1-.36.1-.24,0-.47-.12-.6-.34Zm226.67-2.98c-.34-.19-.45-.62-.26-.95.61-1.07,1.21-2.17,1.78-3.26.18-.34.6-.47.95-.29.34.18.47.6.29.95-.58,1.1-1.19,2.21-1.8,3.29-.13.23-.37.35-.61.35-.12,0-.24-.03-.34-.09Zm-230.38-3.58c-.59-1.11-1.17-2.24-1.72-3.36-.17-.35-.03-.77.32-.94.35-.17.77-.03.94.32.54,1.11,1.12,2.22,1.7,3.32.18.34.05.76-.29.95-.1.06-.22.08-.33.08-.25,0-.49-.14-.62-.37Zm233.91-3.01c-.35-.17-.49-.59-.32-.94.54-1.1,1.08-2.23,1.6-3.35.16-.35.58-.51.93-.34.35.16.51.58.34.93-.52,1.14-1.06,2.28-1.61,3.39-.12.25-.37.39-.63.39-.1,0-.21-.02-.31-.07Zm-237.25-3.76c-.52-1.14-1.03-2.31-1.52-3.45-.15-.36.02-.77.37-.92.36-.15.77.02.92.37.48,1.13.99,2.28,1.5,3.42.16.35,0,.77-.35.93-.09.04-.19.06-.29.06-.27,0-.52-.15-.64-.41Zm240.39-3.01c-.36-.15-.52-.56-.37-.92.48-1.13.95-2.29,1.4-3.44.14-.36.55-.54.91-.4.36.14.54.55.4.91-.45,1.16-.93,2.33-1.41,3.47-.11.27-.37.43-.64.43-.09,0-.18-.02-.27-.06Zm-243.33-3.94c-.46-1.17-.9-2.36-1.32-3.54-.13-.36.06-.76.42-.89.36-.13.76.06.89.42.41,1.16.85,2.34,1.31,3.5.14.36-.04.77-.4.91-.08.03-.17.05-.25.05-.28,0-.54-.17-.65-.45Zm246.09-3.01c-.36-.13-.55-.53-.42-.89.42-1.17.82-2.36,1.2-3.52.12-.37.52-.57.88-.45.37.12.57.51.45.88-.39,1.18-.79,2.38-1.22,3.56-.1.29-.37.46-.66.46-.08,0-.16-.01-.24-.04Zm-248.63-4.1c-.38-1.18-.76-2.39-1.11-3.6-.11-.37.1-.76.47-.87.37-.11.76.1.87.47.35,1.19.72,2.39,1.1,3.56.12.37-.08.76-.45.88-.07.02-.14.03-.22.03-.3,0-.57-.19-.67-.48Zm250.98-3c-.37-.11-.58-.5-.47-.87.35-1.19.69-2.4,1-3.59.1-.37.48-.6.85-.5.37.1.6.48.5.85-.32,1.2-.66,2.42-1.01,3.63-.09.31-.37.5-.67.5-.07,0-.13,0-.2-.03Zm-253.1-4.22c-.32-1.2-.62-2.43-.9-3.65-.09-.38.15-.75.52-.84.38-.09.75.15.84.52.28,1.21.58,2.42.89,3.61.1.37-.13.76-.5.85-.06.02-.12.02-.18.02-.31,0-.59-.21-.68-.52Zm255.04-3.01c-.38-.09-.61-.46-.52-.84.28-1.21.55-2.43.79-3.64.08-.38.45-.62.82-.55.38.08.62.45.55.82-.25,1.22-.52,2.46-.8,3.68-.08.32-.36.54-.68.54-.05,0-.11,0-.16-.02ZM2.6,157.97c-.25-1.22-.48-2.47-.69-3.7-.07-.38.19-.74.57-.81.38-.06.74.19.81.57.21,1.22.44,2.45.68,3.66.08.38-.17.75-.55.82-.05,0-.09.01-.14.01-.33,0-.62-.23-.69-.56Zm258.26-3.01c-.38-.07-.64-.43-.57-.81.21-1.22.41-2.46.58-3.68.06-.38.41-.65.79-.59.38.06.65.41.59.79-.18,1.23-.37,2.48-.59,3.72-.06.34-.35.58-.69.58-.04,0-.08,0-.12,0ZM1.32,150.55c-.18-1.24-.34-2.5-.48-3.73-.04-.38.23-.73.62-.77.38-.05.73.23.77.62.14,1.22.3,2.46.47,3.69.05.38-.21.74-.59.79-.03,0-.07,0-.1,0-.34,0-.64-.25-.69-.6Zm260.64-2.99c-.38-.04-.66-.39-.62-.77.14-1.23.27-2.48.37-3.7.03-.39.37-.67.76-.64.38.03.67.37.64.76-.11,1.24-.23,2.5-.37,3.74-.04.36-.34.62-.69.62-.03,0-.05,0-.08,0ZM.48,143.07c-.11-1.25-.19-2.51-.26-3.75-.02-.39.27-.72.66-.74.38,0,.72.27.74.66.07,1.23.16,2.48.26,3.71.03.39-.25.72-.64.76-.02,0-.04,0-.06,0-.36,0-.67-.28-.7-.64Zm262.17-2.97c-.39-.02-.68-.35-.66-.74.07-1.23.12-2.49.16-3.72.01-.38.32-.68.7-.68,0,0,.01,0,.02,0,.39.01.69.33.68.72-.04,1.25-.09,2.51-.16,3.76-.02.37-.33.66-.7.66-.01,0-.03,0-.04,0ZM.05,135.56C.02,134.31,0,133.04,0,131.8v-.25c0-.39.31-.7.7-.7s.7.31.7.7v.25c0,1.23.02,2.48.05,3.72.01.39-.29.71-.68.72,0,0-.01,0-.02,0-.38,0-.69-.3-.7-.68Zm262.15-3.64v-.12c0-1.2-.02-2.41-.05-3.6-.01-.39.29-.71.68-.72.38-.03.71.29.72.68.03,1.2.05,2.43.05,3.64v.12c0,.39-.31.7-.7.7s-.7-.31-.7-.7ZM.74,128.51c-.39-.01-.69-.33-.68-.72.04-1.24.09-2.51.17-3.76.02-.39.36-.69.74-.66.39.02.68.35.66.74-.07,1.24-.13,2.49-.16,3.72-.01.38-.32.68-.7.68,0,0-.01,0-.02,0Zm261.26-4.03c-.07-1.23-.15-2.48-.26-3.71-.03-.39.25-.72.64-.76.39-.02.72.25.76.64.1,1.25.19,2.51.26,3.75.02.39-.27.72-.66.74-.01,0-.03,0-.04,0-.37,0-.68-.29-.7-.66ZM1.13,121.03c-.38-.03-.67-.37-.64-.76.11-1.25.24-2.51.38-3.74.04-.38.39-.66.78-.62.38.04.66.39.62.78-.14,1.22-.27,2.47-.37,3.7-.03.36-.34.64-.7.64-.02,0-.04,0-.06,0Zm260.24-3.97c-.14-1.23-.3-2.47-.47-3.69-.05-.38.21-.74.59-.79.38-.05.74.21.79.6.17,1.24.33,2.49.47,3.73.04.38-.23.73-.62.77-.03,0-.05,0-.08,0-.35,0-.65-.26-.69-.62ZM1.95,113.59c-.38-.06-.65-.41-.59-.79.18-1.24.38-2.49.59-3.72.07-.38.43-.64.81-.57.38.07.64.43.57.81-.21,1.21-.41,2.45-.58,3.68-.05.35-.35.6-.69.6-.03,0-.07,0-.1,0Zm258.38-3.91c-.21-1.22-.44-2.45-.68-3.66-.08-.38.17-.75.55-.82.38-.07.75.17.82.55.25,1.22.48,2.47.69,3.7.07.38-.19.74-.57.81-.04,0-.08.01-.12.01-.33,0-.63-.24-.69-.58ZM3.19,106.21c-.38-.08-.62-.45-.55-.83.25-1.22.52-2.45.8-3.68.09-.38.46-.61.84-.52.38.09.61.46.52.84-.28,1.21-.55,2.43-.79,3.64-.07.33-.36.56-.68.56-.05,0-.09,0-.14-.01Zm255.68-3.82c-.28-1.2-.57-2.42-.89-3.62-.1-.37.13-.76.5-.85.37-.1.76.13.85.5.32,1.21.62,2.44.9,3.65.09.38-.15.75-.52.84-.05.01-.11.02-.16.02-.32,0-.61-.22-.68-.54Zm-254.01-3.47c-.37-.1-.6-.48-.5-.86.32-1.21.66-2.43,1.01-3.62.11-.37.5-.58.87-.47.37.11.58.5.47.87-.35,1.18-.69,2.39-1,3.59-.08.31-.37.52-.68.52-.06,0-.12,0-.18-.02Zm252.13-3.73c-.34-1.18-.71-2.38-1.09-3.56-.12-.37.08-.76.45-.88.37-.12.76.08.88.45.39,1.19.76,2.4,1.11,3.6.11.37-.1.76-.48.87-.07.02-.13.03-.2.03-.3,0-.58-.2-.67-.5Zm-250.05-3.46c-.37-.12-.57-.51-.45-.88.39-1.19.8-2.38,1.22-3.56.13-.36.53-.55.9-.42.36.13.55.53.42.9-.42,1.16-.82,2.35-1.21,3.52-.1.3-.37.48-.67.48-.07,0-.14-.01-.22-.03Zm247.76-3.64c-.42-1.17-.85-2.34-1.3-3.5-.14-.36.04-.77.4-.91.36-.14.77.04.91.4.45,1.17.9,2.36,1.32,3.54.13.36-.06.76-.42.89-.08.03-.16.04-.23.04-.29,0-.56-.18-.66-.47Zm-245.27-3.42c-.36-.14-.54-.55-.4-.91.45-1.15.93-2.32,1.42-3.47.15-.36.56-.52.92-.37.36.15.52.56.37.92-.48,1.14-.96,2.3-1.4,3.44-.11.28-.37.44-.65.44-.09,0-.17-.02-.26-.05Zm242.56-3.54c-.48-1.14-.99-2.29-1.5-3.42-.16-.35,0-.77.35-.93.35-.16.77,0,.93.35.52,1.14,1.03,2.3,1.52,3.45.15.36-.02.77-.37.92-.09.04-.18.06-.27.06-.27,0-.53-.16-.65-.43Zm-239.68-3.35c-.35-.16-.51-.58-.34-.93.52-1.13,1.06-2.27,1.62-3.39.17-.35.59-.49.94-.32.35.17.49.59.32.94-.55,1.11-1.09,2.24-1.6,3.35-.12.26-.37.41-.64.41-.1,0-.2-.02-.29-.06Zm236.58-3.44c-.55-1.11-1.12-2.23-1.69-3.32-.18-.34-.05-.76.29-.95.34-.18.77-.05.95.29.58,1.1,1.16,2.23,1.71,3.36.17.35.03.77-.32.94-.1.05-.2.07-.31.07-.26,0-.51-.14-.63-.39Zm-233.31-3.27c-.34-.18-.47-.61-.29-.95.59-1.11,1.2-2.21,1.81-3.29.19-.34.62-.45.95-.26.34.19.45.62.26.95-.61,1.07-1.21,2.16-1.79,3.26-.13.24-.37.37-.62.37-.11,0-.22-.03-.33-.08Zm229.82-3.33c-.61-1.08-1.24-2.16-1.88-3.22-.2-.33-.09-.76.24-.96.33-.2.76-.09.96.24.65,1.07,1.28,2.16,1.9,3.25.19.34.07.76-.26.95-.11.06-.23.09-.34.09-.24,0-.48-.13-.61-.36Zm-226.17-3.19c-.33-.2-.44-.63-.24-.96.65-1.07,1.32-2.14,1.99-3.18.21-.33.64-.42.97-.21.32.21.42.64.21.97-.67,1.03-1.33,2.09-1.97,3.15-.13.22-.36.34-.6.34-.12,0-.25-.03-.36-.1Zm222.32-3.2c-.67-1.04-1.36-2.09-2.06-3.11-.22-.32-.14-.75.18-.97.32-.22.75-.14.97.18.7,1.03,1.41,2.08,2.08,3.14.21.33.11.76-.21.97-.12.08-.25.11-.38.11-.23,0-.46-.11-.59-.32Zm-218.3-3.1c-.32-.22-.4-.65-.18-.97.7-1.03,1.44-2.06,2.17-3.07.23-.31.67-.38.98-.15.31.23.38.67.15.98-.73,1-1.45,2.02-2.15,3.04-.14.2-.35.3-.58.3-.14,0-.27-.04-.4-.12Zm214.09-3.05c-.73-1-1.48-2.01-2.23-2.98-.24-.31-.18-.75.13-.98.31-.24.74-.18.98.13.76.99,1.52,2,2.26,3.01.23.31.16.75-.15.98-.12.09-.27.13-.41.13-.22,0-.43-.1-.57-.29Zm-209.71-3.02c-.31-.24-.36-.68-.13-.98.76-.98,1.54-1.97,2.34-2.94.25-.3.69-.34.99-.1.3.25.34.69.1.99-.79.96-1.57,1.94-2.32,2.91-.14.18-.34.27-.55.27-.15,0-.3-.05-.43-.15Zm205.16-2.88c-.78-.95-1.58-1.91-2.4-2.85-.25-.29-.22-.73.07-.99.29-.25.73-.22.99.07.82.95,1.64,1.92,2.42,2.88.24.3.2.74-.1.98-.13.11-.29.16-.44.16-.2,0-.4-.09-.54-.26Zm-200.45-2.93c-.29-.25-.32-.7-.07-.99.82-.94,1.66-1.89,2.51-2.8.26-.28.7-.3.99-.04s.3.7.04.99c-.84.91-1.67,1.84-2.48,2.77-.14.16-.33.24-.53.24-.16,0-.33-.06-.46-.17Zm195.57-2.7c-.84-.91-1.7-1.82-2.56-2.71-.27-.28-.26-.72.01-.99.28-.27.72-.26.99.01.87.89,1.74,1.81,2.58,2.74.26.28.24.73-.04.99-.13.12-.3.18-.47.18-.19,0-.38-.08-.52-.23Zm-190.53-2.83c-.28-.27-.28-.71-.01-.99.88-.9,1.78-1.8,2.66-2.66.28-.27.72-.26.99.02.27.28.26.72-.02.99-.88.85-1.77,1.74-2.64,2.63-.14.14-.32.21-.5.21s-.35-.07-.49-.2Zm185.34-2.51c-.88-.86-1.79-1.72-2.7-2.56-.28-.26-.3-.7-.04-.99.26-.28.7-.3.99-.04.92.85,1.84,1.72,2.73,2.59.28.27.28.71.01.99-.14.14-.32.21-.5.21s-.35-.07-.49-.2Zm-180-2.73c-.26-.28-.24-.73.04-.99.91-.84,1.86-1.68,2.81-2.5.29-.25.73-.22.99.07.25.29.22.73-.07.99-.94.81-1.88,1.65-2.78,2.48-.13.12-.3.18-.47.18-.19,0-.38-.08-.52-.23Zm174.52-2.31c-.93-.81-1.89-1.62-2.84-2.4-.3-.24-.34-.69-.1-.98.24-.3.69-.34.98-.1.96.79,1.93,1.6,2.87,2.42.29.25.32.7.07.99-.14.16-.33.24-.53.24-.16,0-.33-.06-.46-.17Zm-168.88-2.62c-.24-.3-.2-.74.1-.98.97-.79,1.96-1.58,2.95-2.34.31-.24.75-.18.98.13.24.31.18.75-.13.98-.98.75-1.96,1.53-2.92,2.32-.13.11-.29.16-.44.16-.2,0-.4-.09-.54-.26Zm163.13-2.09c-.98-.76-1.98-1.51-2.97-2.23-.31-.23-.38-.67-.15-.98.23-.31.67-.38.98-.15,1.01.73,2.02,1.49,3.01,2.26.31.24.36.68.13.98-.14.18-.34.27-.55.27-.15,0-.3-.05-.43-.15Zm-157.22-2.51c-.23-.31-.16-.75.15-.98,1.01-.73,2.04-1.46,3.08-2.17.32-.22.75-.14.97.18.22.32.14.75-.18.97-1.03.7-2.05,1.42-3.05,2.15-.12.09-.27.13-.41.13-.22,0-.43-.1-.57-.29Zm151.21-1.87c-1.02-.7-2.06-1.39-3.1-2.06-.32-.21-.42-.64-.21-.97.21-.32.64-.42.97-.21,1.05.68,2.1,1.38,3.13,2.08.32.22.4.65.18.97-.14.2-.35.3-.58.3-.14,0-.27-.04-.4-.12Zm-145.04-2.39c-.21-.33-.11-.76.21-.97,1.06-.68,2.14-1.35,3.2-1.99.33-.2.76-.09.96.24.2.33.09.76-.24.96-1.05.63-2.12,1.3-3.17,1.97-.12.08-.25.11-.38.11-.23,0-.46-.11-.59-.32Zm138.79-1.64c-1.05-.64-2.13-1.27-3.21-1.88-.34-.19-.45-.62-.26-.95.19-.34.62-.45.95-.26,1.08.62,2.17,1.25,3.24,1.9.33.2.44.63.24.96-.13.22-.36.34-.6.34-.12,0-.25-.03-.36-.1Zm-132.39-2.27c-.19-.34-.07-.76.27-.95,1.09-.62,2.2-1.22,3.31-1.81.34-.18.77-.05.95.29.18.34.05.77-.29.95-1.09.58-2.2,1.18-3.27,1.79-.11.06-.23.09-.34.09-.24,0-.48-.13-.61-.36Zm125.93-1.4c-1.1-.58-2.21-1.15-3.31-1.69-.35-.17-.49-.59-.32-.94.17-.35.59-.49.94-.32,1.11.55,2.23,1.12,3.34,1.71.34.18.47.6.29.95-.13.24-.37.37-.62.37-.11,0-.22-.03-.33-.08Zm-119.32-2.14c-.17-.35-.03-.77.32-.94,1.13-.55,2.28-1.1,3.41-1.61.35-.16.77,0,.93.35.16.35,0,.77-.35.93-1.12.51-2.26,1.05-3.37,1.6-.1.05-.2.07-.31.07-.26,0-.51-.14-.63-.39Zm112.66-1.15c-1.13-.52-2.27-1.02-3.4-1.5-.36-.15-.52-.56-.37-.92.15-.36.56-.52.92-.37,1.14.48,2.29.99,3.43,1.51.35.16.51.58.34.93-.12.26-.37.41-.64.41-.1,0-.2-.02-.29-.06Zm-105.85-2c-.15-.36.02-.77.37-.92,1.16-.49,2.34-.97,3.5-1.42.36-.14.77.04.91.4.14.36-.04.77-.4.91-1.15.45-2.31.92-3.46,1.4-.09.04-.18.06-.27.06-.27,0-.53-.16-.65-.43Zm99.01-.9c-1.15-.45-2.32-.89-3.49-1.31-.36-.13-.55-.53-.42-.89.13-.36.53-.55.89-.42,1.17.42,2.36.86,3.52,1.32.36.14.54.55.4.91-.11.28-.37.45-.65.45-.09,0-.17-.02-.25-.05Zm-92.03-1.85c-.13-.36.06-.76.42-.89,1.17-.42,2.37-.82,3.58-1.21.37-.12.76.08.88.45.12.37-.08.76-.45.88-1.19.38-2.38.79-3.54,1.2-.08.03-.16.04-.23.04-.29,0-.56-.18-.66-.47Zm85.02-.66c-1.18-.38-2.37-.75-3.56-1.1-.37-.11-.58-.5-.47-.87.11-.37.5-.58.87-.47,1.2.35,2.41.73,3.59,1.12.37.12.57.51.45.88-.1.3-.37.48-.67.48-.07,0-.14-.01-.22-.03Zm-77.9-1.68c-.11-.37.11-.76.48-.87,1.21-.35,2.43-.69,3.63-1,.37-.1.76.13.85.5.1.37-.13.76-.5.85-1.19.31-2.4.64-3.59.99-.07.02-.13.03-.2.03-.3,0-.58-.2-.67-.5Zm70.75-.42c-1.2-.32-2.41-.62-3.61-.9-.38-.09-.61-.46-.52-.84.09-.38.46-.61.84-.52,1.21.28,2.44.59,3.65.91.37.1.6.48.5.86-.08.31-.37.52-.68.52-.06,0-.12,0-.18-.02Zm-63.52-1.5c-.09-.38.15-.75.52-.84,1.22-.28,2.46-.55,3.68-.79.38-.08.75.17.82.55s-.17.75-.55.82c-1.21.24-2.44.51-3.64.78-.05.01-.11.02-.16.02-.32,0-.61-.22-.68-.54Zm56.27-.19c-1.21-.24-2.44-.48-3.66-.69-.38-.07-.64-.43-.57-.81.07-.38.43-.63.81-.57,1.23.21,2.48.45,3.7.7.38.08.62.45.55.83-.07.33-.36.56-.68.56-.05,0-.09,0-.14-.01Zm-48.93-1.32c-.07-.38.19-.74.57-.81,1.23-.21,2.48-.4,3.72-.58.38-.05.74.21.79.6.05.38-.21.74-.6.79-1.23.17-2.46.37-3.68.57-.04,0-.08.01-.12.01-.33,0-.63-.24-.69-.58Zm41.6.05c-1.23-.18-2.48-.34-3.69-.48-.38-.04-.66-.39-.62-.77.04-.38.38-.66.77-.62,1.23.14,2.48.3,3.73.48.38.05.65.41.59.79-.05.35-.35.6-.69.6-.03,0-.07,0-.1,0Zm-34.19-1.14c-.04-.38.23-.73.62-.77,1.24-.14,2.5-.26,3.74-.37.39-.02.72.25.76.64.03.39-.25.72-.64.76-1.24.1-2.48.22-3.71.36-.03,0-.05,0-.08,0-.35,0-.65-.26-.69-.62Zm26.79.29c-1.24-.11-2.49-.2-3.71-.27-.39-.02-.68-.35-.66-.74.02-.39.35-.68.74-.66,1.23.07,2.5.16,3.75.27.39.03.67.37.64.76-.03.36-.34.64-.7.64-.02,0-.04,0-.06,0Zm-19.34-.95c-.02-.39.27-.72.66-.74,1.25-.07,2.52-.12,3.76-.15.39-.03.71.29.72.68.01.39-.29.71-.68.72-1.23.03-2.48.08-3.72.15-.01,0-.03,0-.04,0-.37,0-.68-.29-.7-.66Zm11.9.52c-1.23-.04-2.48-.06-3.72-.06-.39,0-.7-.31-.7-.7,0-.39.31-.7.7-.7h0c1.25,0,2.52.02,3.76.06.39.01.69.33.68.72-.01.38-.32.68-.7.68,0,0-.01,0-.02,0Z" style="fill: #b3b539;"/>
    </g>
  </g>
</svg>