<?xml version="1.0" encoding="UTF-8"?>
<svg xmlns="http://www.w3.org/2000/svg" width="324.65" height="188.08" xmlns:xlink="http://www.w3.org/1999/xlink" viewBox="0 0 324.65 188.08">
  <defs>
    <linearGradient id="linear-gradient" x1="305.9" y1="128.25" x2="295.19" y2="84.84" gradientUnits="userSpaceOnUse">
      <stop offset="0" stop-color="#c7e2e2"/>
      <stop offset="1" stop-color="#e1efef"/>
    </linearGradient>
    <linearGradient id="linear-gradient-2" x1="311.67" y1="126.83" x2="302.82" y2="90.98" xlink:href="#linear-gradient"/>
    <linearGradient id="linear-gradient-3" x1="204.67" y1="181.46" x2="217.31" y2="181.46" gradientUnits="userSpaceOnUse">
      <stop offset="0" stop-color="#e85e38"/>
      <stop offset="1" stop-color="#f3734a"/>
    </linearGradient>
    <linearGradient id="linear-gradient-4" x1="171.43" y1="144.05" x2="150.75" y2="166.22" xlink:href="#linear-gradient-3"/>
    <linearGradient id="linear-gradient-5" x1="185.03" y1="164.93" x2="184.66" y2="135.61" xlink:href="#linear-gradient-3"/>
    <linearGradient id="linear-gradient-6" x1="177.66" y1="167.8" x2="170.85" y2="157.59" xlink:href="#linear-gradient-3"/>
    <linearGradient id="linear-gradient-7" x1="1.46" y1="104.36" x2="24.02" y2="104.36" xlink:href="#linear-gradient-3"/>
    <linearGradient id="linear-gradient-8" x1="11.27" y1="76.81" x2="19.33" y2="39.63" gradientUnits="userSpaceOnUse">
      <stop offset="0" stop-color="#0f847e"/>
      <stop offset="1" stop-color="#159b91"/>
    </linearGradient>
    <linearGradient id="linear-gradient-9" x1="25.21" y1="79.84" x2="33.27" y2="42.65" xlink:href="#linear-gradient-8"/>
  </defs>
  <g style="isolation: isolate;">
    <g id="_圖層_2" data-name="圖層 2">
      <g id="_版頭版尾" data-name="版頭版尾">
        <g id="footer_earth">
          <g>
            <path d="m194.45,104.48s8.17-10.9,10.81-22.74c0,0,8.55-5.07,6.86-15.97-1.69-10.9,3.01-18.85,3.01-18.85,0,0-26.13,9.9-12.6,34.83,0,0,2,5.43-9.67,21.73l1.6,1.01Z" style="fill: #149980;"/>
            <g>
              <path d="m194.64,42.56c3.37,6.38,5.57,13.06,6.69,19.8,4.52,27.07-8.44,55.16-34.04,68.67-17.07,9.01-36.32,9.72-53.12,3.56-9.51-3.48-18.25-9.17-25.35-16.8-3.85-4.14-7.24-8.86-10.01-14.1-16.88-31.98-4.63-71.59,27.35-88.47,20.67-10.91,44.53-9.65,63.37,1.24,10.32,5.95,19.13,14.8,25.1,26.11Z" style="fill: #15b8b5;"/>
              <g>
                <path d="m150.12,130.35c-1.35.16-1.66.5-1.93.48-.52-.04-.92-.31-.8.11.12.42.29.52-.04.58-.33.07-.61.07-.18.26.43.2.75-.05,1.12-.3.36-.25.93-1.03.5-.38-.43.65-.98.96-.14.59.85-.36.38-.44,1.16-.57.78-.13.99-.02,1.05-.17.06-.15-.32-.25-.41-.48-.09-.23,1.01-.3-.34-.14Z" style="fill: #077773;"/>
                <path d="m116.73,55.08c.29.05,1.01-.19,3.4-.49,2.39-.3,1.32-.29,1.01-.58-.3-.3-.8-.16-1.31-.51-.51-.35-.18-.41-.59-.35-.41.06-.96-.26-1.61-.41-.66-.15-.47.09-1.22-.46-.76-.55-.15-.24-1.59-.21-1.43.02-1.06-.29-1.06-.29l-1.79-.12-1.65.45s-1.57.44-1.78.81c-.21.37-.26.49-.78.71-.3.12-.04.25.34.25.38,0,.42.02.89-.6.47-.62.35-.21,1.18-.53.83-.32.31-.32.81-.45.5-.13.92.13.56.3-.35.17-.37.19.36.29.73.09.38.13.94,0s.46.11.98.16c.53.04.53.24,1.35.07.81-.18.41-.06.61.35.2.41.66,1.58.95,1.62Z" style="fill: #077773;"/>
                <path d="m131.91,55.35c-.62-.02-.31.03-.76.07-.76.07-.56.82-.03.71s.26-.05.9.25c.64.3.22-.16.5-.29.28-.13.92-.39.89-.41-.03-.02-.41-.09-.83-.24-.43-.15-.05-.08-.67-.1Z" style="fill: #077773;"/>
                <path d="m116.76,50.08c.3-.02.51-.21.38-.67-.13-.46-.66-1.26-.96-1.16-.68.23-1.42-.16-.42.84,1,.99.7,1.01,1,.99Z" style="fill: #077773;"/>
                <path d="m118.32,14.59c-.07-.37-.36,0-.36,0l-.18.03c.37.13.59.22.54-.03Z" style="fill: #077773;"/>
                <path d="m117.21,14.44c-.55-.13-.53.35-.82.39l.37-.05,1.02-.17c-.17-.06-.36-.12-.57-.17Z" style="fill: #077773;"/>
                <path d="m115.44,15.1s-.41.19-.09.2c.32.01.19.06.77-.2.12-.06.21-.14.28-.15h-.1c-.76.12-.86.15-.86.15Z" style="fill: #077773;"/>
                <path d="m116.97,14.94s-.4.41-.74.41c0,0,.18.55.3.54.12-.02.78-.11.78-.11,0,0,.04-.41,0-.57-.04-.16-.34-.26-.34-.26Z" style="fill: #077773;"/>
                <path d="m118.56,15.41c.11-.18-.07-.47-.07-.47l-.37.17-.11.37s.43.1.55-.08Z" style="fill: #077773;"/>
                <path d="m137.61,23.12c.34.19.33.33.69.02.2-.17.33-.41.41-.58.17.09.38,0,.46-.14.1-.16-.05-.16.17-.28.22-.12.35-.24.36-.3,0-.06.26-.14-.05-.34s-.8.07-.54-.34c.26-.41,1.17-.33.16-.55-1-.22-.94-.22-1.38-.15-.44.08.17.32-.7.16-.86-.16-1.14-.09-.87-.46.26-.37.7-.89.6-1.04-.1-.15-.24-.23-.57-.13-.33.11-.69.41-.69.41-.04.36-.15.75-.15.75l-.39.83-.21.63s.12.01-.11.18c-.23.17-.9.19-.43.23.47.04.87-.09.41.24-.46.33-1.12.56-.46.51.66-.05,2.08-.3,2.08-.3l.48-.11.57.29s.56-.24.78-.28c.04,0,.07-.01.09-.02.02.1,0,.2-.11.32-.32.36-.94.24-.6.43Z" style="fill: #077773;"/>
                <path d="m133.6,24.47s.2.23.31.3c.12.07,0,0,.4-.15.4-.15.32-.21.34-.32.03-.11-.39.01-.62-.12-.23-.13-.09-.09-.29-.78-.2-.69-.24-.1-.24-.1l-.57.74s-.05.2-.05.62c0,.28.34.28.53.22.19-.06,0,0,.02-.17.02-.17.16-.25.16-.25Z" style="fill: #077773;"/>
                <path d="m139.63,22.88c.02.12.32-.37.4-.06.08.32.17.36.17.36l.54-.24.28-.48.04-.35s-.05-.44-.29-.33c-.24.11-.19.16-.38.31-.19.15-.12.29-.19.15s-.14-.64-.14-.64c-.36.23-.37.46-.37.46,0,0-.28.11-.18.38.1.27.1.31.12.43Z" style="fill: #077773;"/>
                <path d="m128.09,9.2c1.72-.09,2.14-.26,2.14-.26l1.46.29c1.46.29.25.1.95.22.7.12.31-.04.84-.12.53-.08.28.16-.05.21s-.32.13-.8.29c-.48.17.08.15.73.23.65.09.74-.3.74-.3,0,0,.15.18.05.35s-.11.09-.32.42c-.21.33,0,0,.45.34.45.34.99.53,1.43.79.44.26,2.62.88,2.62.88l1.6-.09s.71-.08,1.43.1c.72.18.42.3.6.27.18-.02,1.3.03,1.35-.05.05-.09-.47-.67-.75-1.05s-.09-.48-.09-.48l-.14-.3s-.38-.58-.17-.79c.21-.21.35-.07,1.47-.21,1.12-.14.41-.1.05-.47-.35-.37-.07-.23.12-.26.2-.03.41.06.53-.07.12-.14.26-.16.75-.22.49-.07.91-.09.37-.49-.54-.4-2.09-.14-7.21-.48-5.11-.35-7.87.33-8.15.37s-1.38.28-1.64.34c-.26.06-.76.22-1.74.37-.98.15-.7.14-1.25.17s-.52.12-1.03.25c-.13.03-.26.09-.4.15.37-.04.82-.06,1.4-.04,2.37.08.94-.27,2.66-.36Z" style="fill: #077773;"/>
                <path d="m151.42,10.25c.93-.06,1.18.28,1.57.01,0,0-2.14-.83-2.65-.82-.51.01-1.35.19-1.35.19l.4.72s1.09-.05,2.02-.11Z" style="fill: #077773;"/>
                <path d="m166.53,16.99s.82-.15.86-.27c.04-.13.18-.62-.13-.91-.31-.28-2.78-1.25-2.78-1.25-.35.05-.34.38-.34.38l.79,1.38,1.59.67Z" style="fill: #077773;"/>
                <path d="m176.28,24.69c.1.9.81,1.67.81,1.67,0,0,.44.53.75.77.31.23,2.05,1.48,2.57,1.38.52-.1.78.85.73-.1-.05-.95.26-.72-.17-1.23-.43-.51-.69-.89-1.05-1.25-.35-.37-.81-.42-.91-1.12q-.1-.7-.11-1.18c0-.48-6.6-4.97-6.6-4.97-1.11.16-2.4-.7-1.11.16,1.29.86,1.47,1.04,1.47,1.04l1.19.81s2.12,1.22,2.1,1.73c-.02.51-2.33-.21-2.05.29.28.5,2.28,1.1,2.38,2Z" style="fill: #077773;"/>
                <path d="m179.33,49.7c-.18-.11-.41.06-.41.06-.09.28-.1.37.15.44s.32-.05.32-.05c0,0,.12-.34-.06-.45Z" style="fill: #077773;"/>
                <path d="m179.95,50.06c-.24.2-.27.28-.14.35.13.07.37.16.37.16l.18-.29-.4-.21Z" style="fill: #077773;"/>
                <path d="m180.5,49.76l.29.12.22-.11-.29-.33c-.27.2-.22.32-.22.32Z" style="fill: #077773;"/>
                <path d="m180.86,50.53l.37.2.23-.15-.4-.41c-.23.15-.2.36-.2.36Z" style="fill: #077773;"/>
                <path d="m181.05,51.36c.19.11.2.37.34.19l.14-.18-.52-.28c-.07.11-.16.17.04.28Z" style="fill: #077773;"/>
                <path d="m180.43,51.64c.04.1.13.25.27.29.14.04.25-.04.25-.04,0,0-.19-.35-.21-.4-.02-.06-.31.15-.31.15Z" style="fill: #077773;"/>
                <polygon points="179.6 51.75 179.97 51.99 180.09 51.68 179.77 51.43 179.6 51.75" style="fill: #077773;"/>
                <path d="m165.91,129.07c-.47.03-1.03.05-1.03.05-.34.15-.15.5-.15.5l.54.28s.76.27.97.1c.22-.17.79.09.28-.4-.51-.48-.14-.56-.61-.53Z" style="fill: #077773;"/>
                <path d="m134.75,132.23c-.02-.08-.2-.09-.2-.09,0,0-.11.16.01.08.04-.03.09,0,.14.05.04,0,.06-.02.05-.04Z" style="fill: #077773;"/>
                <polygon points="135.02 132.5 135.02 132.49 135.02 132.5 135.02 132.5" style="fill: #077773;"/>
                <path d="m134.71,132.35c-.1.03-.46,0-.51.06-.07.08-.54.22-.54.22l.03.22.59.04.43-.04s.24-.18.33-.2l-.13.02s-.1-.24-.2-.33Z" style="fill: #077773;"/>
                <path d="m125.25,57.33c.31-.18.44-.7.78-1.07.34-.37.41.18,1.11-.22.7-.4.1-.29,1.1.02s.83.24,1.06-.39c.23-.63-1.17-.65-1.98-1.01-.81-.36-.7-.46-2.14-.43-1.43.02-.55.38-1.25.08-.7-.3-.8-.13-1.56.22-.49.23-.01.46.61.37.63-.09.46.15.51.52s-.21.35-.56.52c-.35.17-.66.41-1.76.65-1.1.24.07.47.07.47,0,0,.7.12,1.74-.09,1.05-.21.66-.41,1.66-.28.02,0,.03,0,.05,0,.92.15.25.8.56.62Z" style="fill: #077773;"/>
                <path d="m198.85,52.41c-1.8-5.48-4.3-10.59-7.38-15.27-1.81-2.75-3.81-5.34-5.99-7.77l-1.05-.84c-1.09-.26-1.38-.43-1.61-.19-.24.24-.57.65-.54.82.02.18.9,0,.02.18-.87.18-.99.38-1.2.17-.21-.21-.77-1.17-.64-.71.13.46.85,1.31.79,1.77-.06.46,0,.84.04,1.37.05.53.85,2.18.85,2.18,0,0,.79.13.71,1.03-.08.91-.06,1.02-.13,1.42-.05.33-.35.2-.39.65,1.02-.16,2.24-.02,2.24-.02,0,0,.41.27,1.07.75,0,0,0-.01,0-.02-.07.18-.17.51-.1.8.1.42-.05.8-.44.66-.4-.14-1.56-.97-1.08-.16.47.81,1.2,1.14.8,1.68-.4.53-.9-.47-.4.53.5,1,1.58,2.12.92,2.26-.48.1-1.64-.04-2.5.11.42.78.54.92.88,1.31.36.4-.21.64.51,1.33.72.69.73,1.63.76,1.96.02.27.07.57.26.97.05.1.1.2.16.3.33.55-.05.98-.06,1.3-.01.32-.02.14.54.88.56.74.89.37.7,1.15-.19.78.16,1.13.65,1.52.49.39.57-.04.69.64.06.34.28.55.49.68.21.13.42.19.46.22.07.07,1.09.8,1.14,1.45.05.63.63,1.66,1.96,2.97.04.04.07.07.11.11,1.41,1.37,1.82,3.08,2.48,2.17.67-.91,1.48-1.23,1.62-1.36.14-.14.08-.43.5-.53.42-.1.64-.13.52-.53-.12-.4.13-.89.27-1.05,0,0-.7-3.94-.6-4.27.1-.33-.3-1.67-.58-1.99-.07-.08-.13-.11-.19-.12.06,0,.14.03.22.12.28.32.67,1.66.57,1.99-.1.33.6,4.27.6,4.27.14-.16.54-.53.78.59.24,1.12.11,1.2.42,1.13.31-.06.72-.38.93.54.09.38-.11-3.32-.38-7.79-.14-.45-.28-.9-.43-1.35Zm-9.98-1.68h0s.04.05.05.08c-.02-.03-.04-.05-.05-.08Zm-1.24-11.28h0s-.03.02-.05.03c.02-.01.03-.02.05-.03Zm1.98,14.33c.09.04.17.08.24.1-.07-.02-.15-.06-.24-.1Zm5.32-4.69c.05.23.08.38.09.49-.01-.11-.04-.26-.09-.48-.3-1.28-1.66-3.56-1.66-3.56,0,0,1.36,2.26,1.66,3.54Zm-2.91,8.99s0,0,0,0c0,0,0,0,0,0,0,0,0,0,0,0Zm1.77-2.34h-.01s0,0,0,0c.01-.03.02-.07.01-.13,0,.05.01.09,0,.12Zm.94.24s0,0,0,0c.02,0,.04.02.06.03-.02-.01-.04-.02-.06-.03Zm-.38-1.02c.05.18.34.41.39.75-.06-.34-.34-.56-.39-.75Zm-1.03-2.44c-.05.64-.03,1.14.05,1.59-.09-.49-.13-1.04-.07-1.73.11-1.33-.21-1.66.65-2.31.25-.19.47-.24.64-.25-.06.16-.03.35.07.56-.17.01-.42-.21-.66-.03-.87.65-.56.84-.68,2.17Zm2.69.45c-.09.11-.12.34-.08.63.06.44.06.6-.54.82.48-.2.09-.31.03-.74-.03-.2-.48-.31-.5-.43h0c.32-1.09-.72-1.96-.44-2.8.25.53.93,1.17,1.24,1.79.13.26.3.49.29.73Z" style="fill: #077773;"/>
                <path d="m175.54,78.94c-.82.15-.85.18-2.33-.8-1.48-.98-2.25-.91-2.75-.82-.51.09-1.49.35-1.59.17-.11-.18-.32-.17-.49.09-.16.26-.39.08-1.23-.22-.84-.3-.75.05-1.13.46-.38.41-.8.97-.81.91,0-.06,0-.26-.02-.4-.02-.14.01-.34.15-.78.14-.44-.11-.62-.3-.81-.19-.19-.62-.17-1.01-.06-.38.11-.06-.31-.29-.5-.23-.19-1.13-.1-2.04-.35-.91-.25-1.09-.06-1.48.27-.39.33-.3.98-.61,1.2-.31.22-.69.62-.69.52,0-.1-.35-.19.03-.38.37-.19.3-.26.66-.67.36-.41.13-.48.24-1.01.1-.53-.05-.19-.63-.19-.58,0-1.21-.37-1.81-.64-.6-.27-.44.58-.44.58,0,0-.57.22-.83.63-.26.41-.37.77-.43,1.18s-.49.35-.42.02c.07-.33.32-.56.76-1.54.44-.98.23-.17.57-.45.34-.28.25-.15.27-.43.02-.27.63-1.12.58-1.44-.04-.31-.29.04-.52.01-.22-.03-.63-.47-1.05-1.2-.42-.74-.5-1.6-1.2-1.62-.34,0-.96.01-.97-.09-.01-.1.37-.29.08-.44-.56-.3-.25-.05-.65-.51-.39-.45-.41-.36-.8-.39-.28-.02-.55-.1-1-.23,0,0,0-.01,0-.02-.16-.05-.34-.1-.53-.16-.78-.25-.85.12-.85.12,0,0-.91-.05-1.23.38s-.42-.03-1.33.1c-.52.07-.65.05-.72-.03-.05-.07-.07-.18-.2-.31-.28-.32-1.22-.44-1.81-.36-.59.08-.1-.16-.09-.54,0-.38-.09-.19-.45-.53-.3-.28-.67-.33-1.12-.47-.11-.03-.22-.07-.34-.12-.61-.25-.59-.06-.8-.18-.2-.12-.19-.26-.4-.67-.02-.04-.05-.09-.08-.14-.2-.35-.6-.41-.92-.43-.16,0-.3,0-.38-.02-.26-.04-1.19-.14-1.37-.24-.18-.09-.23-.46-.46-.8-.23-.34-.25.04-1.37.14-1.12.1-.86.08-.83.37.03.29.02.28-.51.65-.53.37-.48.31-1.09.24-.61-.06-1.17-.56-1.5-.76-.33-.19-.4.04-.8.35-.4.31-.66.33-1.26.33-.6,0-.37-.2-.42-.78-.05-.57-.58-.48-1.97-.45-1.39.03-1.01.56-1.79.79-.78.23-.54.06-.49.47.06.41.63,1.16.71,1.63.08.47-.03.45-.39.62-.36.17-.44.41-.46.15-.02-.25-.26-.32-.5-.66-.24-.34.08-.31.11-.58.04-.27.2-.19.33-.5s-.12-.51-.2-.76c-.08-.26-.22-.25-.53-.64-.31-.39.01-.24.42-.45.4-.21.31-.27.42-.75.11-.48-.41-.34-1.07-.04-.66.3-.23.84-.56.72-.33-.12-.54-.21-.55.35-.01.55-.5.58-.69.53-.19-.05-.65-.18-.72-.03-.07.14-.06.52-.46.44-.4-.08-.28.04-.8.38-.52.34-.41,1.12-.31,1.85.1.73-.49-.05-.75.64-.26.69-.87.21-.75,1.06.12.85-.16.37-.22.24-.03-.06-.08-.13-.16-.21-.09-.09-.22-.21-.42-.36-.37-.29-.47-.11-1.04-.69-.58-.57-1.76.16-2.54.36-.78.2-1.11.57-1.71.84-.6.27-.77-.1-.99-.45-.22-.35-.21-.06-.19.21.02.27-.14.02-.28,0-.14,0-.22-.11-.19-.41.03-.24-.07-.21-.28-.22-.05,0-.11-.01-.18-.03-.33-.08-.42-.26-.57-.48-.15-.22-.21-.28-.38-.66-.17-.38-.3-.52-.3-.52,0,0-.19-.27-.37-.57-.18-.3-.15-.29.11-.51.25-.22-.01-.1-.13-.52-.12-.42.07-.28.38-.58.32-.3-.09-.57-.16-.94-.07-.37,0-.24.13-.64.12-.4.19-.46.35-.84.16-.38-.24-.52-.35-.49-.12.03-.47.17-.73.22-.26.05.25-.15.41-.37.16-.22.35-.14.51-.33.15-.19.07-.22-.14-.22-.21,0-.39-.12-.8-.33-.4-.21-.79,0-1.03-.23-.24-.22-.66.3-.97.14-.31-.17-.36.07-.81.29-.45.22-.98.14-1.49.03-.51-.11-.5.25-.7.12-.2-.13-.09-.09-.45.04-.36.13-.34-.11-.55-.08-.07,0-.06-.02-.01-.09.11-.13.42-.4.72-.71.43-.46.24-.87.23-1.36-.01-.5.17-.48.45-.64.15-.08.09-.1.08-.25,0-.14.02-.38.28-.89.55-1.07.29-.6.26-.95-.03-.35-.04-.57.1-.83.14-.26.65-.87.86-1.26.2-.39.19-.64-.37-.5-.56.14-.64.41-.94.15-.3-.26-1.28.12-1.99.32-.71.2-.73.5-.8,1.25-.07.75-.31,1.48-.51,1.86-.2.39-.46.54-1.47.75-1.01.2-.19.19-.73.34-.54.16-.44.12-1.13.62-.69.5-.77-.09-1.04-.45-.27-.36-.67.19-1.06-.13-.39-.32-.21-.72-.25-1.13-.04-.41-.5-.38-.65-1.07-.14-.7-.35-.88-.49-1.9-.15-1.02-.09-.64.28-1.83.37-1.19.04-.99.33-1.45.11-.16.16-.34.18-.51.04-.31,0-.62-.03-.92-.04-.46-.04-.29.14-.62.18-.32.2-.37.15-.74-.05-.37.07-.43.38-.8.31-.37.4-.31.51-.6.11-.28.09-.1.56-.17s.23-.08.41-.3c.18-.22.12-.03.43-.12.32-.09.22-.12.25-.35s-.12-.3.06-.62c.18-.32.15.2.97-.21.82-.42.32-.27.93-.09.61.18.45.04.93-.19.48-.23.24.19.49.2.26,0,.31,0,.69.1.37.1.51-.03.64-.27.13-.24.22-.02.47.13.25.14.12-.21-.16-.53-.28-.32,0-.3-.02-.65-.02-.36-.13.02-.45.06-.32.05-.29-.06-.12-.31.17-.25.45,0,1.21-.05.76-.05.65-.24.75-.41.1-.16.08.03.14.32.06.29.18-.04.81-.25.63-.21.27-.31,1.24-.09.97.22,0,.58.92.66.91.08.7-.42,1.23-.5.53-.08.53.06.84.44.31.37.69.08.86.59.17.51-.19.62-.16,1.1.03.47.22,1.12.47,1.09.25-.04.1.26.26.44.16.18.85,1.09,1.04,1.11.18.01.53.2.96-.41.43-.62.32-1.66-.07-2.04-.39-.38-.16-.53-.11-.94.04-.4-.15-.36-.44-.85-.29-.5-.37-.8-.51-1.2-.14-.4-.33-.35-.11-.8s.36-1.09.66-1.42c.3-.33.38-.31,1.15-.97.77-.66.81-.8,1.23-1.22.42-.42,1.04-.39,1.12-.64.08-.25.21-.22.84-.55.62-.33.42-.23.91-.56.49-.33.75-.82.22-1.07-.53-.25-.03-.19.75-.42.78-.23-.14-.23-.42-.4-.28-.17-.27-.41-.24-.73.03-.32.14-.39.02-.84-.12-.44.03-.62.35-1.02.32-.4.02.13,0,.57-.01.43.06.29.38.44.32.15.29.15.32-.15.03-.3-.02-.53.06-.83.08-.29.08-.04.47.13.38.17.16-.11.48-.52.32-.4.23-.3.3-.73,0,0-.45-.19.13-.35.58-.16.06-.22.32-.49.26-.28.16-.07.97-.15.81-.09.8-.08.95-.46.16-.38.12-.02.57.13.45.14.59-.52.47-.6-.12-.09-.45-.1-.46-.5-.01-.4-.05-.47.69-1.13.74-.66.51-.21.88-.53.37-.32.26-.28.63-.28.37,0,.43-.14.69-.19.26-.05.26-.22.77-.31.51-.09.27-.18.22-.48-.05-.3.04-.14.64-.25.6-.12.97-.36,1.51-.6.54-.25.03.19.05.23.03.05.21-.04.79-.04.58,0,.03.14-.01.26-.04.12-.25.13-.5.11-.25-.02-.26-.08-.47.04-.21.12-.84.41-.84.41,0,0-.04.14-.17.47-.13.33-.14.31-.15.51-.01.2.3.37.46.36.16-.01.54-.21.8-.34.26-.14.42-.39.6-.54.18-.15-.01-.15.09-.36.1-.21.3.1.3.1,0,0,.16-.02.36-.2.2-.18.12-.08.45-.14.33-.07.41-.05.58-.26s.1-.1.73-.29c.62-.19.25-.26.06-.48-.19-.21-.15.02-.41-.14-.26-.16-.02-.11-.2.05s-.23,0-.84.09-.91-.03-.97-.2c-.05-.17.02-.2-.57-.23-.59-.04-.27-.14-.33-.55s-.01-.09-.36-.04-.08-.05.06-.4c.15-.35.18-.28.25-.45.07-.17-.33-.01-.57.19-.24.2-.42.16-.58-.03-.16-.19-.21-.13-.55-.12-.34.01-.1-.05,0-.09s.13-.07.4-.11c.26-.04.43.04.43.04l.55-.15s.28-.07.73-.26c.44-.19.41-.25.07-.37-.34-.12-.44-.27-1.14-.19-.69.07-1.92.56-1.92.56,0,0-.69.3-1.03.46s-.61.4-.94.71c-.32.31-.48.04-.28-.25.2-.29.54-.48.96-.95.42-.47.5-.1,1.02-.13.52-.03.4-.15.7-.73.31-.58.33-.23.75-.41.42-.18,1.35-.19,1.35-.19,0,0,1.07-.06,2.67-.2,1.6-.14.74-.28,1.64-.92.9-.63.44-.59,1.38-.76.94-.17.64-.18.64-.18,0,0,.24-.04.58-.45.34-.41-.23-.09-.2-.45.02-.36-.14-.34-.52-.51-.38-.17-.47.08-.55-.16-.08-.24.06-.13-.76-.01-.82.12-1.01.38-1.27.52-.26.14-.36.17-.59.16-.23-.01.2-.27.2-.27,0,0,.57-.07.82-.22.25-.15.22-.14.64-.34.42-.21.45-.2.18-.31-.27-.11.11-.25-.49-.05-.6.2-.67.1-.81-.15-.14-.25-.09.01-.55.12s-.5.07-.61-.27c-.11-.34-.63,0-1.01.05-.38.05-.25-.2-.1-.58.16-.38-.07-.09-.13-.4-.06-.3-.13-.16-.87-.35-.75-.19-1.01-.39-1.6-.82-.58-.42-.23.05-.28.14-.05.1-.33.61-.45.81-.12.2-.34.05-.94.48-.6.43-.54.18-.54.18,0,0-.4-.29-.84-.46-.44-.18,0,0-.41-.25-.41-.25-.03-.23-.05-.84-.01-.61,0,0-.59.19-.59.19-.36.07-.48-.2-.11-.27-.44-.13-.97-.37-.53-.24-.31.03-.91.05-.6.02-.85.12-1.76.28-.91.16-.17.29-.34.56-.17.26-.65.24-.32.7.33.46-.24.6-.99.8-.75.2-.19.15.96.64,1.15.49.18.6,0,1.1-.17.5-.86.69-1.73.9-.87.21-1.13.25-.63.42.5.17.11,1.18.11,1.18l-.04,1.64s-.3,1.08-.68,1.13c-.09.01-.14.02-.16.02,0,0,0,0-.02,0-.01,0-.04,0-.08.01-.26.04-.66-1.03-.66-1.03,0,0-.48-.67-.67-1.12-.18-.45-.16-.69-.13-.9.03-.21.14-.51.36-1.02.23-.51-.42,0-.79.12-.37.11-.64.12-1.11.19-.47.07-.4-.08-1.22-.38-.82-.3-.66-.03-1.38-.41-.71-.38-1.45.19-2.02.42-.57.23-.03-.25-.06-.71-.03-.46-.09-.45-.34-.6s.18-.42,1.24-1.23c1.06-.81.96-.84,1.89-1.02.93-.17.6-.46,1.33-.83.73-.36,1.73.08,1.95-.29.22-.37.45-.38.95-.78.49-.4.45-.38.59-.55.14-.17.8-.04,1.14-.21.34-.17.94-.41,1.59-.74.65-.33.06-.39-.08-.84-.14-.46,1.62.04,2.03-.04.34-.06.32-.71.38-.71l.15-.02c-.1.01-.05.21,0,.6.06.55,0-.01.33-.06.33-.05.34,0,.76.14.42.14,0,.1-.08.23s-.79.37-.79.37c0,0-.64.27-.28.26.36,0,.51-.04.92-.13.41-.09.25-.22.52-.56.27-.34.16.02.6-.16.43-.18.43.06.44.16.01.1-.21.23-.58.42s-.39.21-.55.37c-.16.16-1.02.4-1.02.4,0,0-1.34.39-1.5.51-.16.12.4.3,1,.18.6-.12.77-.23,1.45-.35.69-.12.48.17,1.01.39.53.22.37.25.6.14.23-.1.58-.14.58-.14l1.81-.08s.79-.09,1.08-.28c.29-.19-.97.08-.97.08,0,0-.82-.14-1.14-.33-.33-.19,1.19-.07,1.19-.07l1.1.02s.37-.21.48-.42c.11-.21-.08-.27-.57-.37-.49-.1-.82.15-1.16,0-.34-.15-.21-.33-.18-.39.03-.06,1.62.33,1.62.33,0,0,.39.06.74-.24.36-.31.62-.55.76-.69.14-.14-1.6-.05-1.6-.05l-1.17.07-1.07-.21s.17-.06.59-.36c.42-.3-.43-.08-.43-.08h-.92s-1.09.09-1.09.09l-1.15-.37.71-.38s.39-.27.8-.46c-1.16.13-1.48.47-1.81.6-.24.09-.69.31-1.18.5-.04-.11-.27.02-.82.08-.67.08-.8.05-1.38.2-.58.14-.38.79-.47.47-.09-.32-.24-.13-.88.05-.63.18-.73.67-.34.66.39-.01.59-.05.52.3-.07.35-.65.35-.97.48-.31.12-.42.17-.41.31,0,.14-.17.27-.35.24-.18-.03,0,0-.09-.21-.09-.21.15-.19.41-.37.26-.19-.03-.29-.47-.23-.44.06-.86.56-1.51.65-.65.09.19-.44.54-.91.35-.47-.6-.09-1.01.14-.42.24-.89.69-.94,1.1-.05.41-.54.42-1.02.49-.48.07-.89.16-1.83.6-.94.45-1.08.21-1.35.12s.1-.25.45-.3c.35-.05.66-.08.91-.31.25-.23.5-.29.69-.44.19-.15-.35-.07-1.08-.03s-1.67.67-2.24.96c-.57.29.07.27-.02.67-.09.4-.41.39-1,.35-.59-.04-.32.05-.95.34-.58.27-.45.13-.57-.14-1.9,1.06-3.73,2.2-5.5,3.43-1.91,1.37-3.95,2.97-5.46,4.24-.61.53-1.21,1.07-1.8,1.62-1.63,1.58-2.82,3.04-3.29,3.55-.52.55-.12.57-.45.94-.33.36.07.67-.24.95-.09.08-.18.21-.26.35-.19.35-.37.83-.64,1.19-.39.51-.51,1.21-1.34,2.06-.84.85-1.24,1.53-1.78,3.06-.54,1.53-.87,1.75-1.31,2.29-.44.54-.42.68-.34,1.26.08.58.01,1.07-.23,1.31s.1.26-.12,1.09c-.22.83-.19.9.43,1.17.62.27.44.14.38.82-.04.46.1.73.14,1.09.02.17.02.37-.04.63-.17.78,0,1.61-.15,2.17-.16.56.42.4.47,1.19.05.79-.22.97-.71,1.04-.49.07.02.57.55,1.04.52.46.78.33.65,1.04-.14.72.08,1.38.59,1.92.52.54.37,1.04.48.71.11-.33.31-.36.23-.91-.08-.55-.12-.44-.4-.44-.28,0-.04-.43-.11-.92-.07-.49-.21-.39-.16-.85.05-.47-.02-.95-.48-1.5-.46-.55-.13-.24-.16-1.13-.03-.89.1-1.03-.16-1.57-.26-.54-.15-1.05.32-1.8.47-.74.16-.28.24-.25.08.03.39.34.49.67.11.32-.06.43-.13.79-.07.37.02.73-.12.97-.15.24.23.38.31.77.08.39.15.36.42.54.27.18.17.2.19.59.03.39.35.31.19.71-.16.4.16,1.13.49,1.36.33.23.44.57.49,1.08.05.51.58.42.74,1.53.16,1.11.55,1.06.71,1.31s.11.6-.07,1.04c-.18.44-.34.82-.19,1.32.15.5,1.1.89,1.19,1.14.08.26.49.74,1.31.71.82-.03.29.02.65.34.36.32.8.6,1.12.75.32.15.72.11,1.61.37.89.26.32.37.65.37.33,0,.3.02,1.07.18.77.16.49.05.88-.24.39-.29.53-.91,1.35-.92.82-.01.04.17.82.17.78,0,.09-.01.38.24.23.21.84.77,1.41,1.35.14.15.29.29.42.43.65.7.98.29,1.67.15.17-.04.28-.06.36-.06.22-.02.1.11.15.47.07.48.24.29.85.49.61.2.72-.01,1.28-.46.56-.45.25.13.13.49-.11.36.03.34.62.7.59.36.7,1.17,1.52,1.11.81-.06-.09-.42.06-.86.15-.44,1.01.65,1.3.92.29.27-.1.13-.57.2-.47.07-.21.03-.54.3s.07.47.12.86c.06.39.2.7.9.54.7-.16.82.29.82.29l.44.38s.28.39.32.64c.04.25,0,.25.57.61.57.35.87-.11.87-.11,0,0,1.24.23,1.54.2.3-.03.17,0,.68.25.51.24.24.4.4.84.17.44.16-.04.55-.24.39-.2.45-.44.45-.44l-.18-.41-.51-.51s.56-.18.83-.3c.27-.11.32-.57.62-.77.3-.21,1.41.05,1.52.46s.13.68.26.98.6.44.71.7c.11.27.53.69.43.89-.1.21.4.41.16.72-.24.32.29,1.17.06,1.66-.23.5.27.71.33,1.19.07.48-.42,1.18-.57,1.24-.16.07-1.02.22-1.04.71-.02.49-.37.55-.37.55,0,0-.06.19.02.36.08.17.06.22-.16.56-.22.34-.28.16-1.15.34-.87.18-.24.08.21.61.45.53-.1.24-.27.4-.17.16-.14.48-.29.88-.15.39-.3.1-.19.47.11.37.25.72.02,1.27-.24.54-.03.39.24.64.27.24.29-.06.97.27.67.32.22.73-.17.79-.4.06,0,0-.38.35-.38.35-.15.22-.71,1.12-.56.9-.07.37.51.99.58.62.25.79-.03.93-.28.14.57.29,1.68.87,1.11.57.38.14.64.62s.15.25.82.69c.66.44,1.42,2.11,1.86,2.45.44.34.68.77.75,1.16.07.39.03.44.41.39.38-.05.78.65,1.36,1.12.58.47.67.59.73.95.07.36-.04.54.12.85.16.3.7.5,1.71,1.06,1.01.56,1.41.86,3.51,1.29s.44.27,1.3.53c.86.27.1.3.31.48.21.18.72.03,1.2.26.21.1.31.15.38.19.09.06.1.12.16.3.1.3.18.44.47,1.29.29.85.14.49.32,1.31.18.83-.01.45-.01,1.39,0,.94.12,1.3-.17,1.61-.3.32-.2.37.05.54.25.17.14.38.39,1.06.25.68.3.96.21,1.27-.09.31.23.46.02.89-.21.43-.11.48,0,.9.1.42.02.68-.27,1.35-.29.67.15.62.27,1.36.12.74-.35.71-.14,1.21.21.51.34.73.51,1.26.16.53.06.54.01,1.04-.05.5-.14,1.42-.21,1.76-.07.34-.04.53-.21,1.15-.17.62-.34.24-.29.62.05.38-.01.21-.24.42-.22.21-.17.16.01.52.19.36.29.6.49.9.19.3.24.43.24.43,0,0-.07.17-.16.43-.1.25-.09.21-.26.47-.17.26-.04.47.09.76.13.29.01.1.1.51.09.41,0,.37-.03.6-.04.23-.11.31-.29.59-.18.28-.04.14.04.28.08.14.24-.02.54-.06.31-.04.11-.08.16-.13.05-.05.16-.59.16-.59,0,0,.02-.41.22-.85.21-.45.51-.07.51-.07l.04.62s-.08.27-.18.64c-.1.37-.07.26.02.65.09.39.04.6.1,1.08.07.48-.09.51-.2.52-.11,0-.21-.1-.37-.3-.16-.2-.13-.29-.28-.52-.15-.23-.02.12-.16.33-.14.21-.21.22-.24.48-.03.26-.19.32-.54.39-.35.07-.64.09-1.35.19-.71.1.28.04.78.09.5.05.85-.01,1.14-.21.29-.2.18-.02.28,0,.1.02.29-.01.57-.04.29-.03.12.21-.06.29-.18.08-.19.14-.24.29-.05.16.22.22.22.22,0,0-.03.25-.15.25-.12,0-.2-.03-.35-.04-.15,0-.37.16-.44.23-.07.07.22.29.22.29,0,0,.14-.1.32-.18.19-.08.21.5.35.54.13.04.17.54.17.57,0,0,.01-.02.02-.02.05-.1.1-.15.13-.18.04-.03.36.05.36.05l.02.17s-.13.09-.3.2c-.17.11-.02.11.03.17.05.05.36-.04.36-.04,0,0,.34,0,.5.1.16.1.58.27.58.27,0,0,.01.36-.15.34-.16-.02-.19-.09-.27-.1-.08,0,.02.16-.06.29-.08.13.03.23.03.23l.72.14.71.24.54-.14.37-.23.22.15s-.04.25-.03.32c.01.08.75.21.75.21,0,0,.46,0,.64.02.18.03.56-.19.91-.17,0,0,0,0,0,0,.34.03.91-.13.91-.13l1.07-.25s.19-.07.3-.16c.11-.09-.39-.08-.58-.16-.19-.07-.61-.19-.77-.23-.16-.04-.31.2-.45.07s-.36-.28-.44-.39c-.08-.11-.38-.48-.64-.66-.27-.18-.43-.41-.21-.68.13-.16.15-.19.73-.29.58-.1.38-.17.38-.52q0-.34.52-.66c.52-.31.61-.27,1.03-1.16.43-.9-.1-.28-.18-.21-.08.07-.48.29-1.24,0-.76-.29-.27-.41-.08-.78.19-.37.71-.47,1.29-.59.58-.11.09-.22.35-.47.26-.25.15-.1.19-.46.04-.36-.08-.42.45-.71.53-.28-.35-.34-.29-.58s-.27-.02-.23-.56c.04-.54-.36-.04-.22-.69.15-.65.71.14,2.12-.03,1.41-.17.97-.53.97-.53,0,0-.7-.47-.33-.82.37-.35-.06-.44-.11-.97-.05-.53.3-.01.96.01.66.03,1.43-.02,3.47-1.06,2.04-1.04,1.85-1.96,1.49-1.97-.36,0-.56.08-.31-.25.25-.33-.04-.47-.21-.66-.18-.18-1.15-.49-1.19-.61-.05-.11-.05-.32.19-.33.24,0,1.6.31,1.6.31,0,0,1.17.01,1.91-.06.74-.07.81-.2,1.32-.81.2-.24.41-.53.65-.85.36-.49.76-1.04,1.29-1.57.41-.42.51-.51.61-.55.01-.13.03-.27.01-.36-.02-.18.19-.43.19-.43l.35-.77s.2-.09.32-.05c.13.04.31.19.2.34-.11.15-.48.5-.61.76-.07.14-.13.27-.11.34.1-.05.23-.13.39-.23,1.03-.65.7-1.05,1.19-1.78.5-.73.65-.93,1.46-1.36.82-.43.34-.7.38-1.51.05-.8-.03-.82.28-1.66.32-.84.45-.5,1.1-1.11.65-.61.78-1.02,1.55-1.52.77-.5.6-.8,1.22-.86.62-.06.35-.08.78-.65.43-.57,1.04-.45,2.23-.53,1.19-.08.3-.43.76-.74.47-.3.54-.43.61-.98.07-.55.27-.81.73-1.21.45-.39.47-.48.62-.92.15-.44.42-.6.61-1.16.19-.56.21-1.28.39-1.07.18.21.03-.45.45-1.26.42-.81.3-1.5.39-2.32.09-.82.06-1.89.17-2.62.11-.73.39-.59.57-.17.18.42.22-.57.8-1.52s.84-1.49,1.02-1.85c.19-.36.46-.57.83-1.31.37-.74.46-1.41.97-2.44.51-1.03-.08-2.26-.25-3.01-.17-.75-.68-.77-1.5-.62Zm-51.84-56.46c0-.2.07-.19.43-.28,0,0,.42.14.37.37-.05.23,0,0-.53.16-.53.16-.27-.04-.27-.24Zm-2.59-.79s.1-.15.54-.41c0,0,.1.3,0,.82-.11.51-.26.71-.39.61-.13-.1-.68-.56-.68-.56l.53-.45Zm-.83,1.89c.26-.15.3.01.35.37l-.34.17s-.38-.03-.39-.2c0-.18.11-.18.37-.33Zm-1.7-3.84c.42-.24.24-.11.81-.31,0,0-.06.55-.39.87-.33.33-.23.21-.31.04-.08-.17-.13-.22-.53-.36-.4-.14,0,0,.42-.24Zm5.52-6.69s-.36.13-.42.06c-.06-.07.02-.27.02-.27l.28-.11c.12-.02.23.06.23.06l-.11.27Zm-.1-1.06c.1-.03.31-.04.31-.04.1-.01.59.2.49.23-.1.03-.45.06-.45.06,0,0-.2-.01-.15.22.05.23-.29.06-.29.04,0-.02,0-.48.09-.51Zm-8.09,16.67h1.04s.65-.48.65-.48l.42-.3.37.1.17.04s-.13.46-.31.8c-.17.34-1.04.27-1.04.27,0,0-.54.1-1.15.16-.61.07-.34.44-.34.44l-.85.47s-1.05.35-1.8,1.12c-.75.78-1.06.15-1.06.15,0,0-.43-.51-.13-.89.31-.38.35-.37.47-.37.12,0,.04.39.25.24,0,0,.42-.14.9-.25.48-.11.4-.14.72-.26.32-.12.24-.12.67-.34.43-.22.24-.31.24-.31l.06-.41.71-.2Zm-7.56-4.49c.18-.56,0,0,.37-.17,0,0,.36.45.43.77.07.33-.18.13-.91.31-.73.18-.07-.34.11-.91Zm-2.69.18c0-.54,0,0,.43-.06l.84.26-.31.36s-.96-.02-.96-.56Zm-.36,2.92l1.88-.96,1.85-.86s.98-.72,1.31-.19c.33.53.31.36.61.76.3.4.4.73.4.73,0,0-.67.65.74.45s1.43-.74,2.13-.3c.7.44.68.04.74.59.06.55.34.83-.16.68-.5-.15-.87-.25-1.04-.05-.17.2-.42.86-.42.86,0,0-.18.7-.39.79-.21.09-.57.2-.57.2,0,0-.05-.77-.24-.88-.2-.11-.46.38-.75.36-.28-.02.47-.5.54-.99.07-.49-.35-.75-.7-.7s-.2-.27-.6.13c-.4.4-.9.94-.9.94,0,0-.85.32-.89.88-.04.56.23.64.02,1.11-.21.47-.45.94-.45.94,0,0-.42.4-.61.21-.19-.19-.1-1.99-.1-1.99l.27-1.29,1.07-.75s.64-.25.95-.33c.31-.08.55-.18.72-.14.16.04.39-.09,0-.4-.38-.3-1.21.17-1.21.17-.21.09.05.19-.53.08-.58-.12.05-.31-.77-.13s-1.46.49-1.46.49h-.78s-.39.09-.61.08c-.22-.01-.07-.47-.07-.47Zm-1.26-.98c-.22.11,0,0-.46-.21-.46-.21-.03-.15.45-.58,0,0,.29.34.35.49.06.15-.11.19-.34.31Zm-1.35-5.58c.09-.77-.14-.26.38-.83l.52.58s-.38.59-.79,1.05c-.41.46-.2-.03-.11-.8Zm.1,2.57c-.04-.53.16-.32.61-.64l.14.32c.14.32-.04,1.14-.04,1.14,0,0-.36,1.09-.44,1.12-.08.03,0-.18.06-.76.06-.58-.29-.64-.33-1.17Zm-1.97-2.48s-.57.22-.86.12c-.29-.1-.37-.23.8-.57l.06.45Zm1.21,3.7c.21.36.02.82.06,1.24.04.41-.38.15-.38.15,0,0,.06-.39.15-.76.09-.37-.35-.61-.35-.61,0,0,.15-.36.15-.76,0-.4-.06-.39.28-.72,0,0-.12,1.09.09,1.45Zm-2.26-4.52c.62-.27.5-.43,1.16-.94l.48.29s-.36.41-.92.85c-.56.44-.72.28-1.27.3-.56.02-.07-.23.55-.5Zm2.99,39.68s.02.01.03.02c.02.01.03.02.04.03-.02-.02-.05-.03-.07-.05Zm30.41,33.25s0,0,.01,0c-.03,0-.06-.01-.1,0,0,0,.03,0,.09,0Zm-2.52-8.69s0,0,.01,0c0,0,0,0,.01.01,0,0-.02-.01-.02-.02Zm13.05-9.83c-.38-.6-.51-.85-.18-1.26.33-.41.57-.47.25-.9-.21-.28-.5-.83-.9-1.06.4.23.69.77.9,1.06.32.43.08.5-.25.9-.33.41-.21.66.18,1.26.38.6.47.98.93,1.21.29.15.58.23.82.21-.24.02-.53-.06-.82-.21-.46-.23-.54-.61-.93-1.21Zm5.76-.54c.07,0,.14-.02.21-.03-.07.02-.15.03-.24.03-.08,0-.14,0-.19.02.06,0,.13-.02.22-.02Zm-1.6.4l.08.13c.45.02,1.06.26,1.32.23-.25.04-.87-.23-1.33-.24l-.07-.12s0,0,0,0Zm6.53,33.53s.02-.02.03-.02c.01,0,.02-.01.03-.02-.02.01-.04.03-.06.04Zm-2.85-34.01s-.49-.31-.83-.38c-.03,0-.06,0-.1,0,.05-.01.04,0,.09,0,.33.07.82.36.83.38h0s.21-.02.46-.05c-.34.05-.45.06-.45.06Zm1.09-.15s.06-.01.09-.02c.16-.03.25-.03.3-.02-.07.08-.13,0-.39.03Z" style="fill: #077773;"/>
                <path d="m176.83,80.8c.02-1.43-1.13-2.78-2.55-2.97-.99-.14-2.06.22-2.97-.18-.87-.38-1.41-1.39-2.34-1.59-.75-.16-1.57.26-2.29-.02-.55-.21-.88-.78-1.34-1.16-.99-.82-2.69-.57-3.39.52-.21.33-.52.78-.88.62-.2-.1-.26-.35-.36-.54-.36-.69-1.53-.72-1.91-.04-1.37-1.22-1.3-3.36-2.08-5.03-.62-1.33-1.85-2.37-3.27-2.76-1.42-.39-3-.14-4.22.68-.46.31-.92.71-1.47.74-1.44.09-2.36-2.28-3.73-1.81-.32.11-.59.37-.92.42-.59.08-1.02-.5-1.4-.96-1.39-1.69-3.86-2.41-5.94-1.72-.48.16-.94.38-1.45.41-.69.03-1.34-.32-2-.54-.66-.22-1.48-.29-1.96.21-.16.16-.27.37-.48.46-.55.24-.99-.54-1.56-.73-.85-.29-1.52.82-1.54,1.72-.02.9.2,1.92-.38,2.6-.16.19-.38.34-.5.56-.19.33-.13.73-.05,1.1.58,2.69,2.11,5.17,4.26,6.88,1.11.88,2.36,1.56,3.6,2.23,1.43.76,2.86,1.52,4.29,2.27,2.85,1.5,5.74,3.03,8.89,3.71,2.14.46,4.34.52,6.53.58,2.14.06,4.27.12,6.41.18,1.92.05,3.84.1,5.76.1,1.45,0,2.94-.05,4.29-.59,2.33-.91,4.17-3.22,6.66-3.23" style="fill: #077773;"/>
                <path d="m124.61,23.54c1,.1,1.85-.63,2.73-1.11.88-.48,2.22-.6,2.66.3.07.14.11.29.22.4.23.23.62.14.93.03.81-.28,1.77-.52,2.46,0,.59.44.7,1.4.2,1.94-.5.54-1.5.48-1.91-.13-.25.96-.52,1.96-1.16,2.72-.64.76-1.78,1.2-2.66.73-.22-1.04,1.62-1.59,1.49-2.64-.1-.77-1.24-.94-1.85-.47-.61.48-.83,1.28-1.13,1.99-.29.72-.79,1.47-1.56,1.56-.33.04-.67-.05-.97.08-.59.25-.58,1.1-.4,1.72.18.62.41,1.36-.02,1.85-.48.54-1.35.3-2.06.43-.88.17-1.56,1.08-1.46,1.97.03.32.15.65.02.94-.24.54-1.05.49-1.48.9-.65.62-.09,1.91-.76,2.51-.23.21-.56.27-.87.35-2.06.56-3.62,2.61-3.6,4.75.01.93.29,1.87.11,2.79-.18.92-1.1,1.8-1.97,1.45-.78-.31-.93-1.32-1.19-2.12-.25-.8-1.15-1.64-1.82-1.13-.21.16-.34.44-.59.55-.52.23-.97-.44-1.17-.97-.31.4-.61.8-.92,1.2-.57-.17-.77-1.06-1.36-1.06-.74,0-.63,1.12-.83,1.83-.26.92-1.38,1.31-2.33,1.25-.95-.06-1.88-.42-2.83-.39s-2.02.65-2.02,1.61c0,.43.21.89.03,1.28-.23.49-.94.59-1.2,1.07-.21.39-.03.87-.05,1.32-.06,1.24-1.65,2.24-1.23,3.4.14.37.46.64.77.89.68.55,1.36,1.11,2.05,1.66.52.42,1.52.7,1.66.05.06-.26-.1-.55,0-.79.26-.56,1.07.1,1.69.1.7,0,1-.9.94-1.6-.07-.69-.28-1.47.12-2.04.99-1.39,3.75.56,4.75-.82.61.29.39,1.25-.1,1.72-.49.47-1.17.81-1.38,1.45-.23.73.27,1.46.37,2.22.14,1.02-.53,2.09-1.51,2.4.63.85,1.92.8,2.91.44.99-.36,1.93-.97,2.99-.99.29,0,.59.04.82.21.27.2.4.53.46.86.2,1.16-.38,2.36-.09,3.5.38,1.49,2.19,2.66,1.75,4.14-.88.61-2.1.28-3.01-.28-.91-.56-1.71-1.34-2.72-1.68-.56-.19-1.19-.24-1.67-.58-.74-.53-.9-1.55-1.39-2.32-.77-1.2-2.5-1.67-3.77-1.02-.3.16-.6.37-.95.37-.34,0-.63-.21-.94-.34-1.24-.52-2.61.28-3.94.46-2.12.29-4.34-1.25-4.8-3.35-.1-.44-.13-.92-.39-1.29-.26-.37-.71-.58-.92-.97-.17-.32-.15-.71-.13-1.08.16-2.49.33-4.98.49-7.47.08-1.17.16-2.37.64-3.43.92-2.05,3.09-3.22,5.2-3.99s4.37-1.33,6.11-2.76c1.41-1.16,2.5-2.89,4.28-3.28,1.25-.28,2.54.2,3.82.22,1.28.02,2.81-.78,2.72-2.06-.04-.57-.4-1.05-.6-1.58-.33-.88-.18-1.93.38-2.69,1.89-.33,3.64-1.39,4.81-2.91.2-.26.39-.53.66-.71,1.24-.79,2.94,1.04,4.23.34.38-.21.63-.6.89-.95,1-1.37,2.49-2.38,4.14-2.79" style="fill: #077773;"/>
                <path d="m180.79,29.44c.04,1.31,1.13,2.65.49,3.79-.16.28-.41.51-.54.81-.29.69.22,1.47.81,1.93.59.46,1.32.8,1.73,1.43-.34-.08-.72.25-.68.6.03.35.46.6.78.46-.52.28-1.05.57-1.57.85.57.17,1.19.22,1.78.13.15.52-.04,1.07-.1,1.61-.06.54.1,1.2.62,1.36-.61.2-1.21.46-1.77.77-.24.13-.48.28-.62.51-.39.64.18,1.44.82,1.83s1.42.67,1.75,1.34c.48.98-.3,2.19.07,3.21.41,1.12,2,1.44,2.42,2.56.34.9-.23,1.91-.09,2.86.23,1.57,2.09,2.2,3.38,3.14.47.34.88.76,1.29,1.17.94.95,1.88,1.9,2.82,2.85.25.26.52.52.85.65.57.23,1.23.03,1.71-.35.48-.38.81-.91,1.12-1.43.34-.58.68-1.18.81-1.84.13-.66,0-1.41-.48-1.88-1-.99-2.74-.28-4.04-.8-1.33-.53-1.83-2.13-1.97-3.55-.15-1.42-.15-2.97-1.05-4.08.35,1.41.43,2.89.98,4.23.55,1.34,1.79,2.56,3.23,2.47.13,0,.27-.03.37-.11.11-.09.17-.24.21-.38.76-2.64-.08-5.68-2.1-7.54-1.09-1-2.45-1.67-3.52-2.68-1.93-1.84-2.65-4.55-3.61-7.03-.96-2.48-2.52-5.07-5.09-5.75" style="fill: #077773;"/>
                <path d="m185.98,42.07c-.95-.13-1.88-.54-2.55-1.24-.74-.78-1.1-1.83-1.43-2.85-.11-.35-.23-.71-.14-1.07.07-.28.27-.5.45-.72.41-.48.9-.99,1.53-.99.39,0,.75.2,1.07.43,1.05.75,1.82,1.88,2.16,3.12.07.26.12.54.1.81-.06.59-.51,1.12-1.07,1.31-.56.2-1.21.09-1.71-.24" style="fill: #077773;"/>
                <path d="m175.49,83.13c-.72,1.41-1.44,2.82-2.16,4.23-.19.36-.38.76-.32,1.16.16,1.1,1.99,1.47,1.94,2.58-1.03.17-2.06.33-3.09.5-.2.03-.42.07-.55.23-.17.2-.14.5-.08.75.39,1.49,1.6,2.82,1.38,4.34-.36,2.47-4.14,3.25-4.53,5.72-.08.48-.01,1.02-.28,1.43-.67,1.02-2.31.18-3.46.59-.82.3-1.24,1.19-1.57,2-.51,1.23-1.01,2.47-1.52,3.7-.15.37-.31.75-.55,1.08-.33.45-.79.79-1.22,1.14-1.11.91-2.07,2-2.83,3.21-.24-.79-.31-1.64-.21-2.46-1.18.54-.45,2.45-1.14,3.56-.28.44-.76.71-1.24.92-1.49.68-3.11,1.07-4.74,1.16.94.67.83,2.24-.03,3.02-.85.78-2.15.87-3.27.58-.35-.09-.72-.22-1.06-.08-.9.36-.34,1.71-.45,2.67-.18,1.63-2.48,2.15-3.12,3.66-.24.55-.23,1.19-.47,1.74s-.93,1-1.43.66c-.24-.16-.35-.45-.42-.73-.52-1.9,0-3.91.53-5.81.63-2.32,1.27-4.64,1.9-6.96.61-2.22,1.21-4.44,1.82-6.67.52-1.9,1.05-3.83,2.1-5.49,1.15-1.83,2.84-3.24,4.51-4.61,1.41-1.16,2.83-2.33,4.24-3.49.83-.68,1.68-1.38,2.68-1.76,1.03-.4,2.16-.44,3.27-.43,4.32.06,8.85.95,12.81-.78" style="fill: #077773;"/>
              </g>
              <path d="m83.43,101.15c-13.83-33.42,2.05-71.71,35.47-85.54,15.41-6.38,31.86-6.43,46.47-1.37-16.25-7.89-35.67-9.07-53.67-1.62-33.42,13.83-49.29,52.13-35.47,85.54,7.45,18,22.01,30.91,39.07,36.83-13.91-6.76-25.49-18.43-31.87-33.84Z" style="fill: #fff; mix-blend-mode: overlay; opacity: .21;"/>
              <path d="m197.24,48.09c13.83,33.42-2.05,71.71-35.47,85.54-17.84,7.38-37.07,6.3-53.22-1.4,76.51-6.36,84.73-92.72,66.12-112.47,9.72,6.89,17.68,16.52,22.57,28.33Z" style="fill: #c7dee0; mix-blend-mode: multiply; opacity: .6;"/>
              <path d="m202.06,68.42c1.98,27.38-13.53,54.13-40.29,65.2-17.84,7.38-37.07,6.3-53.22-1.4-9.15-4.35-17.31-10.83-23.68-19.09,26.8,6.96,80.16,11.64,117.18-44.71Z" style="fill: #c7dee0; mix-blend-mode: multiply; opacity: .6;"/>
            </g>
            <g>
              <path d="m90.58,42.63s-5.48-13.75-1.73-22.83c.19-13.32,9.22-12.8,11.58-19.8,0,0,5.81,18.24-9.22,20.89,0,0-5.43,5.05.66,21.64l-1.29.1Z" style="fill: #16b596;"/>
              <path d="m87.57,26.11s-.34-15.52-19.46-13.13c5.33,4.54,4.81,13.42,17.55,9.44,0,0,1.86,4.96,2.21,9.56l-.3-5.87Z" style="fill: #149980;"/>
            </g>
            <path d="m191.17,107.13s7.82-9.29,11.46-11.73c6.28-15.65,21.42-7.6,28.75-9.1,0,0-9.16,13.2-26.68,10.5,0,0-7.04,4.33-15.25,15.15l1.72-4.83Z" style="fill: #16b596;"/>
            <path d="m177.94,123.95s13.83-11.3,14.39-24.89c0,0-8.2-5.86-7.91-21.42,0,0,16.19,7.91,11.34,22.67,0,0-6.01,15.37-17.68,25.18l-.15-1.54Z" style="fill: #138972;"/>
          </g>
          <g>
            <g>
              <g>
                <g>
                  <path d="m323.66,178.72s1.87,5.37.45,8.66c0,0-9.36,1.58-16.49,0,0,0-.41-4.87,7.24-5.49l-.61-3.47,9.42.29Z" style="fill: #ea623b;"/>
                  <path d="m300.65,142.01l13.05,38.61s9,1.54,10.95-1.48c0,0-2.39-16.14-7-22.65,0,0-.55-24.98-3.29-34.52l-13.71,20.04Z" style="fill: #0e5e5a;"/>
                </g>
                <g>
                  <path d="m283.2,179.9s.35,4.39-.58,6.59c0,0-9.42,1.19-16.48-.68,0,0-.2-4.88,7.46-5.19l1.03-3.38,8.57,2.66Z" style="fill: #f3734a;"/>
                  <path d="m315.57,122.7s.11,11.96-20.29,26.98l-11.52,32.36s-6.25-.11-10.09-3.07c0,0,7.02-30.71,9.54-35.21,2.52-4.5,9.43-19.53,9.43-19.53l22.93-1.54Z" style="fill: #106f6c;"/>
                </g>
              </g>
              <path d="m286.38,118.66l-.44-1.85c-.35-1.46-1.37-2.66-2.75-3.24h0c-.76-.32-1.6-.43-2.42-.33-1.77.23-7.59,1.18-7.53,1.3.07.17.85,2.36.85,2.36l6.77-1.21c.46-.08.94-.02,1.38.17h0c.68.29,1.19.88,1.38,1.6l.55,2.01,2.21-.81Z" style="fill: #758989;"/>
              <g>
                <path d="m231.14,174.14l13.22,6.15c3.19,1.49,6.98.26,8.71-2.81l25.15-44.82.91-1.62-34.37-17.59-16.6,50.79-.56,1.72c-1.06,3.23.47,6.75,3.56,8.19Z" style="fill: #f9b858;"/>
                <path d="m231.14,174.14l13.22,6.15c3.19,1.49,6.98.26,8.71-2.81l25.15-44.82-21.64,21.77c-7.51,7.55-18.03,11.1-28.42,9.81l-.56,1.72c-1.06,3.23.47,6.75,3.56,8.19Z" style="fill: #f79d59; mix-blend-mode: multiply; opacity: .35;"/>
                <circle cx="236.12" cy="179.61" r="6.1" style="fill: #697777;"/>
                <path d="m233.48,179.61c0,1.46,1.18,2.64,2.64,2.64s2.64-1.18,2.64-2.64-1.18-2.64-2.64-2.64-2.64,1.18-2.64,2.64Z" style="fill: #b1c8c9;"/>
                <path d="m282.03,128.69c0,.54-.07,1.08-.22,1.62l-.2.73-9.91-4.95-29.18-14.58.71-.94c1.01-1.33,2.77-1.84,4.34-1.25l2.23-1.75c2.07-1.62,4.86-1.98,7.27-.92l19.62,8.6c.94.38,1.76.95,2.43,1.66,1.2,1.26,1.91,2.97,1.91,4.78v3.65c.67,1,1.01,2.17,1.01,3.35Z" style="fill: #c7dee0;"/>
                <path d="m282.03,128.69c0,.54-.07,1.08-.22,1.62l-.2.73-9.91-4.95c.33-1.21.53-2.57.13-3.39-.79-1.6-16.7-9.7-18.86-10.8,1.88.92,14.16,6.9,20.28,8.83,4.71,1.49,5.69-1.8,5.86-3.82,1.2,1.26,1.91,2.97,1.91,4.78v3.65c.67,1,1.01,2.17,1.01,3.35Z" style="fill: #b1c8c9; mix-blend-mode: multiply; opacity: .35;"/>
                <path d="m281.61,131.04l-.46.69c-.59.9-1.77,1.2-2.72.71l-35.05-17.98c-1.08-.55-1.47-1.9-.86-2.95h0l39.1,19.53Z" style="fill: #93a3a2;"/>
                <g>
                  <g>
                    <path d="m247.7,147.35c-.15-.23-.41-.75-.27-1.11.14-.35.8-.79,1.27-1.03l2.51,1.32-1.08,2.05-2.44-1.22Z" style="fill: #e8e8e8;"/>
                    <path d="m246.86,142.76c.04-.13.21-.63.61-.81.46-.21,1.02-.58,1.05-.6l.18-.12-.25-.72,1.98,1.16.03,2.02-.19-.3-.21.08c-.27.1-2.15.79-3.09,1.78-.05-.98-.1-2.24-.12-2.49Z" style="fill: #e8e8e8;"/>
                  </g>
                  <g>
                    <path d="m257.41,147.7c-.43,0-1.05-.21-1.37-.34l-.6-2.77,2.26-.49.63,2.66c-.08.26-.31.79-.68.92-.06.02-.14.03-.24.03Z" style="fill: #e8e8e8;"/>
                    <path d="m252.22,148.3l1.53-1.32-.11.34.2.12c.08.05,1.94,1.14,3.35,1.22l-1.83,1.69c-.09.04-.34.14-.62.14-.15,0-.28-.03-.4-.08-.45-.22-1.11-.41-1.13-.42l-.21-.06-.39.65-.39-2.27Z" style="fill: #e8e8e8;"/>
                  </g>
                  <g>
                    <path d="m250.72,139.41l2.25-1.54s.08,0,.14,0c.21,0,.73.03.96.31.24.29.3,1.09.29,1.61l-2.37,1.56-1.27-1.93Z" style="fill: #e8e8e8;"/>
                    <path d="m254.84,142.06l.36-.02.04-.22c.05-.28.36-2.26-.06-3.56.88.44,2.01,1,2.23,1.11.1.1.45.49.41.93-.04.5.01,1.18.01,1.21l.02.22.74.13-1.98,1.17-1.78-.96Z" style="fill: #e8e8e8;"/>
                  </g>
                </g>
              </g>
              <g>
                <path d="m286.99,104.55l-.22,1.67s-1.49,1.28-3.39,3.76c-1.91,2.48-4.27,3.51-4.27,3.51l4.27,1.97s3.59-.77,6.44-2.74c2.86-1.97,5.12-7.57,5.12-7.57l-7.95-.6Z" style="fill: #f49987;"/>
                <path d="m291.84,107.4s-4.68-.82-5.72-2.96c0,0,1.97-16.73,7.18-16.62,5.21.11-1.46,19.58-1.46,19.58Z" style="fill: #b7cecd;"/>
                <path d="m291.45,125.7s.05.03.15.08c1.45.79,13.24,6.75,24.48-1.74,0,0-.51-31.72-12.18-38.93-6.48-4-10.82,1.54-10.82,1.54,0,0-2.78,1.25-3.22,6.29-.32,3.75,1.39,13.05,1.79,22.75.14,3.37.12,6.77-.2,10.01Z" style="fill: url(#linear-gradient);"/>
                <path d="m291.45,125.7s.05.03.15.08c4.5-.86,13.51-3.18,17.93-8.56,6.03-7.35.5-21.67.5-21.67l-9.57-3.78-.77,5.2c-.69,4.63-8.51,11.8-8.51,11.8l.29,3.62.22,1.59s.08,8.48-.24,11.72Z" style="fill: #c7dee0; mix-blend-mode: multiply; opacity: .35;"/>
                <g>
                  <path d="m300.46,106.69l-12.58,8.19s-5.12,1.17-5.92,3.22,0,2.56,0,2.56l1.55-.91s2.14,1.31,3.64.91,2.96-2.52,2.96-2.52c0,0,17.88-3.55,19.71-8.67,1.83-5.12-9.36-2.78-9.36-2.78Z" style="fill: #feb19e;"/>
                  <path d="m300.46,106.69s.06-3.76-.19-7.59c-.22-3.49-.81-6.98.48-8.86,2.71-3.95,7.02-2.27,9.65,6.51,2.39,7.97,1.83,13.24,1.83,13.24,0,0-9.51-.22-11.78-3.29Z" style="fill: url(#linear-gradient-2);"/>
                  <path d="m283.52,119.74l-1.91.99-6.67.8c-.7.08-1.19.72-1.1,1.42h0c.09.68.7,1.16,1.39,1.09l6.12-.66c1.02-.11,2.01-.46,2.87-1.03l2.18-1.44-2.87-1.16Z" style="fill: #758989;"/>
                </g>
              </g>
              <g>
                <path d="m299.1,81.17s2.31-8.12.45-10.57c-1.86-2.45-3.4-2.12-3.4-2.12,0,0-.06-3.57-3.33-3.84-3.11-.26-8.3,2.96-8.7,1.06,0,0-1.5,1.72-.48,3.36,0,0-2.49-.07-3-1.1,0,0-.91,5.16,3.11,5.41,0,0-.88,4.02,3.8,5.41,4.68,1.39,11.54,2.38,11.54,2.38Z" style="fill: #332012;"/>
                <path d="m291.91,83.73c.81,3.22.81,5.63.81,5.63,6.07-.44,7.75-5.19,7.75-5.19l-3.23-7.11-.02-.04s-6.11,3.48-5.3,6.7Z" style="fill: #feb19e;"/>
                <path d="m291.91,83.73c.81,3.22.81,5.63.81,5.63,0,0,6.15-3.34,4.57-12.02-.02-.1-.04-.19-.06-.28l-.02-.04s-6.11,3.48-5.3,6.7Z" style="fill: #ff856a;"/>
                <path d="m285.35,74.93s2.3,9.76,5.27,10.8,5.54-2.14,6.42-4.28c.88-2.14.18-4.43.18-4.43,0,0,1.57-2.06-.18-2.81-1.86-.8-1.86,1.92-1.86,1.92,0,0-2.96-.47-2.66-3.98,0,0-1.98,4.21-7.16,2.77Z" style="fill: #feb19e;"/>
              </g>
              <path d="m283.82,113.9s-3.22-.63-2.28,1.99c0,0-.73.66-1.78,0,0,0-.11.56-1.26.29,0,0-.94.8-1.37-.82-.44-1.62.76-3.27,1.54-3.16s1.71-.67,3.13-.33c1.42.34,1.8,1.08,2.04,2.03Z" style="fill: #feb19e;"/>
            </g>
            <g>
              <g>
                <path d="m175.17,185.4h-6.75c-3.31,0-10.17-3.56-5.36-12.35l13.71-8.5,5.16,8.14-6.75,12.7Z" style="fill: #127266;"/>
                <g>
                  <path d="m170.23,179.72s-.15-4.44,8.41-12.47l17.93-2.4,4.88,2.97s.68,7.05-6.82,8.17c-7.5,1.11-24.41,3.74-24.41,3.74Z" style="fill: #16998f;"/>
                  <path d="m203.01,176.8v8.67s-24.71,3.3-30.58-1.41c-4.97-3.98-1.76-9.87,10.54-9.74,12.31.13,20.04,2.48,20.04,2.48Z" style="fill: #1baa9c;"/>
                  <path d="m217.17,182.98c-.37,2.22-2.58,2.52-4.86,2.32-.89-.08-1.8-.23-2.6-.37-2.85-.51-5.04-.23-5.04-.23v-6.76c2.4.18,5.4-.32,7.8-.37.64-.01,1.23,0,1.77.08,2.54.35,3.44,2.24,2.93,5.33Z" style="fill: url(#linear-gradient-3);"/>
                  <path d="m217.17,182.98c-.37,2.22-2.58,2.52-4.86,2.32l1.27-.99c-1.6-2.85,0-5.9,0-5.9l-1.11-.84c.64-.01,1.23,0,1.77.08,2.54.35,3.44,2.24,2.93,5.33Z" style="fill: #f9ded7;"/>
                  <rect x="203.01" y="178.24" width="1.66" height="6.04" style="fill: #feb19e;"/>
                </g>
              </g>
              <g>
                <path d="m150.2,167.27l-.94,1.21s-3.98,3.56-4.96,5.85c-.98,2.28,5.59-.34,5.59-.34,0,0,2.57-1.39,2.7-2.72l1.37-1.55-3.75-2.44Z" style="fill: #f49987;"/>
                <path d="m172.43,135.44s-2.7-.83-5.16,5.03c-1.85,4.42-5.51,11.17-5.51,11.17l-11.88,15.08s1.64,3.3,4.22,3.75c0,0,13.22-11.88,14.31-14.14,1.08-2.27,4.02-6.8,4.02-6.8v-14.09Z" style="fill: url(#linear-gradient-4);"/>
              </g>
              <g>
                <g>
                  <path d="m143.4,152.21s.97-2.23-.85-4.24c-1.82-2.01-5.82-2.45-5.82-2.45,0,0,2.17,5.93,6.67,6.69Z" style="fill: #16b596;"/>
                  <path d="m147.37,157.12s-.85-3.38,1.96-5.1c2.81-1.72,3.59-2.34,3.59-2.34,0,0,.73,6.45-5.55,7.44Z" style="fill: #16b596;"/>
                  <path d="m144.69,170.39s.16-2.31-2.42-2.86c-2.58-.55-4.45.27-5.35-.35,0,0,2.73,5.84,7.77,3.21Z" style="fill: #16b596;"/>
                  <path d="m151.09,152.27c-.12-.15-.34-.17-.49-.05-2.72,2.19-3.97,5.62-4.54,8.11-.05-.45-.1-.9-.16-1.33-1.11-7.87-5.03-10.82-5.2-10.94-.16-.12-.38-.08-.49.08-.11.16-.08.38.08.49.04.03,3.85,2.89,4.92,10.47.47,3.38.53,7.66.45,11.4-1.03-1.05-2.7-1.72-2.79-1.76-.18-.07-.38.02-.46.2-.07.18.02.39.2.46.69.28,2.5,1.18,3.02,2.22-.13,4.25-.42,7.57-.42,7.63-.02.19.13.36.32.38.01,0,.02,0,.03,0,.18,0,.33-.14.35-.32,0-.06.28-3.26.42-7.41.07-.09.09-.2.06-.32-.01-.03-.03-.07-.04-.1.07-2.52.09-5.35-.04-8.03,0,0,0,0,0,0,0-.07.41-7.21,4.75-10.7.15-.12.17-.34.05-.49Z" style="fill: #07514c;"/>
                </g>
                <g>
                  <path d="m162.93,186.56h-32.43s-.47-3.62,2.03-3.62c0,0,.23-2.34,1.72-1.88,0,0,.7-5.16,4.77-4.38,0,0,1.41-3.26,3.98-1.74,0,0,1.7-1.56,4.09-1.87,2.36-.31,5.38.6,8.1,5.41,0,0,2.03-1.04,2.19,1.94,0,0,2.11-.38,2.81,2.59,0,0,3.38.85,2.73,3.55Z" style="fill: #332012;"/>
                  <path d="m148.58,183.59c-1.05,3.14-9.83-1.42-12.94,2.94h-5.13s-.47-3.62,2.03-3.62c0,0,.23-2.34,1.72-1.88,0,0,.7-5.16,4.77-4.38,0,0,1.41-3.26,3.98-1.74,0,0,1.7-1.56,4.09-1.87.44.48,3.19,3.88-3.38,6.61,0,0,5.98.6,4.87,3.93Z" style="fill: #4c321c;"/>
                  <ellipse cx="138.64" cy="181.49" rx=".83" ry=".35" style="fill: #332012;"/>
                  <path d="m146.52,182.74c0,.35-.68.63-1.52.63s-1.52-.28-1.52-.63.68-.63,1.52-.63,1.52.28,1.52.63Z" style="fill: #332012;"/>
                  <path d="m143.09,178.07c0,.25-.5.45-1.11.45s-1.11-.2-1.11-.45.5-.45,1.11-.45,1.11.2,1.11.45Z" style="fill: #332012;"/>
                  <path d="m157.46,182.74c0,.35-.81.63-1.82.63s-1.82-.28-1.82-.63.81-.63,1.82-.63,1.82.28,1.82.63Z" style="fill: #4c321c;"/>
                </g>
              </g>
              <g>
                <g>
                  <path d="m201.45,167.82s-2-1-5.66-1.03c0,0-.01,0-.02,0-2.39-.01-5.49.38-9.2,1.73-9.41,3.44-12.16-1.64-12.16-1.64,0,0,1.95-2.26,0-8.2-.09-.26-.18-.51-.27-.75-.14-.35-.28-.67-.42-.96-1.97-3.98-4.68-3.41-5.25-9.38-.36-3.77.77-7.57,1.83-10.17,0-.02.01-.04.02-.06,0-.02.02-.05.03-.07.81-1.96,1.56-3.22,1.56-3.22,5.23-5.63,11.45-2.44,14.65,1.67,4.69,6.02,6.13,18.33,6.13,18.33,7.19,5.24,8.75,13.75,8.75,13.75Z" style="fill: url(#linear-gradient-5);"/>
                  <path d="m195.77,166.79c-2.39-.01-5.49.38-9.2,1.73-9.41,3.44-12.16-1.64-12.16-1.64,0,0,1.95-2.26,0-8.2-.22-.65-.45-1.21-.69-1.71l10.62-16.03s6.3,2.7,0,19.22c-4.92,12.9,1.86,5.45,11.42,6.62Z" style="fill: #d64136; mix-blend-mode: multiply; opacity: .35;"/>
                  <path d="m176.45,149.62l-2.3,8.32c-.14-.35-.28-.67-.42-.96-1.97-3.98-4.68-3.41-5.25-9.38-.36-3.77.77-7.57,1.83-10.17-.32.88-2.05,6.1-.27,10.88,1.95,5.23,6.4,1.33,6.4,1.33Z" style="fill: #d64136; mix-blend-mode: multiply; opacity: .35;"/>
                </g>
                <g>
                  <path d="m155.72,171.24l-2.81,1.76s-3.52,1.93-6.27,2.05c-2.75.12-1.52,2.17-1.52,2.17h5.17c1.98,0,4.44.82,4.91-.82l3.98-1.7-3.46-3.46Z" style="fill: #feb19e;"/>
                  <path d="m155.2,170.71s0,2.5,3.91,4.92c0,0,15.55-6.88,19.14-11.88,3.59-5,11.41-16.72,7.03-21.95-3.32-3.97-6.81,1.85-9.14,6.09-2.62,4.77-5.47,10.55-5.47,10.55l-15.46,12.27Z" style="fill: url(#linear-gradient-6);"/>
                </g>
              </g>
              <g>
                <path d="m168.46,115.04s.8-7.09,7.53-6.15c6.47.9,6.33,8.86,3.93,13.77,0,0,1.64-1.52,2.93,0,1.29,1.52-2.11,7.73-6.39,3.63-4.28-4.1-8.01-11.25-8.01-11.25Z" style="fill: #28190f;"/>
                <path d="m168.46,114.22s5.75-3.28,6.7,3.34c.96,6.62-6.7-3.34-6.7-3.34Z" style="fill: #f16e46;"/>
                <path d="m165.4,129.28s-4.07-1.3-4.34-5.56c-.23-3.67,1.64-3.63,1.64-3.63,0,0,.58-6.33,7.03-5.86,6.45.47,10.69,7.89,6.99,15.37-3.71,7.48-11.31-.31-11.31-.31Z" style="fill: #332012;"/>
                <path d="m179.42,131.96s-1.33,6.52-5.47,6.64c-.71.02-1.18-.66-1.23-1.31-.05-.61.03-1.5.03-1.5l-1.85-2,4.63-5.92s0,0,0,0c.08.15,1.46,2.68,3.88,4.07Z" style="fill: #feb19e;"/>
                <path d="m172.72,137.29c-.05-.61.03-1.5.03-1.5l-1.85-2,4.63-5.92s0,0,0,0c2.02,5.48-1.63,8.54-2.82,9.4Z" style="fill: #ff856a;"/>
                <path d="m163.46,124.01s3.34,11.4,7.15,11.72c3.07.25,6.23-5.85,4.92-7.85,0,0,1.07-1.62-.06-2.83-1.13-1.21-2.46-.16-1.25,1.95,0,0-2.46-.2-2.77-2.15,0,0-5.16,3.44-7.99-.84Z" style="fill: #feb19e;"/>
              </g>
            </g>
            <g>
              <g>
                <path d="m44.47,52.73s5.05-.44,6.27,1.38c1.22,1.82-8.62,2.68-8.62,2.68l2.36-4.05Z" style="fill: #f49987;"/>
                <path d="m21.09,47.17l6.56,5.56,16.72-.87.78,7.5s-15,2.34-18.75,2.38c-3.75.04-15.24-5.27-15.24-5.27l9.92-9.3Z" style="fill: #127266;"/>
              </g>
              <g>
                <g>
                  <path d="m25.16,124.83l-1.14,5.98s-2.97,0-3.47-3.79c-.51-3.79,1.72-5.12,1.72-5.12l2.66,1.56.23,1.37Z" style="fill: #127266;"/>
                  <path d="m24.02,71.27s9.65,17.93,11.06,23.2c1.41,5.27-.24,11.46-8.24,30.35,0,0-6.3.02-7.23-3.92-.94-3.94-4.8-48.12-4.8-48.12l9.22-1.52Z" style="fill: #d64f34;"/>
                </g>
                <g>
                  <path d="m11.87,134.79s-1.41,4.92-.76,7.85c0,0,6.97,1.76,14,1.35,0,0,1.23-3.27-2.05-4.04-3.28-.77-3.57-2.59-3.57-2.59l-.47-2.58h-7.15Z" style="fill: #14988e;"/>
                  <path d="m1.48,72.56s-.47,4.22,2.97,13.91c3.44,9.69,6.56,16.88,6.56,16.88v32.19s1.72,1.41,9.06,0c0,0,4.38-29.85,3.91-35.16-.47-5.31-3.59-27.81-3.59-27.81H1.48Z" style="fill: url(#linear-gradient-7);"/>
                </g>
              </g>
              <g>
                <path d="m28.03,28.08s2.77.48,2.95-2.51c0,0,3.87.76,3.34-4.57,0,0-1.85.59-3.12,0,0,0,1.13-.18,1.24-1.82,0,0-2.4,1.64-5.8-1.7-3.4-3.34-9.43-4.45-11.02,1.46,0,0-3.19,2.3-1.46,6.21s.9,5.11.9,5.11l12.97-2.19Z" style="fill: #332012;"/>
                <path d="m22.01,34.65l-3.44,3.38-.08.08s-5.92-5.04-4.74-6.21c.78-.78,2.09-2.73,2.86-3.94.39-.6.65-1.02.65-1.02l4.74,7.71Z" style="fill: #feb19e;"/>
                <path d="m22.01,34.65l-3.44,3.38c-.05-.08-.09-.18-.14-.27,0,0-3.16-3.54-1.82-9.8.39-.6.65-1.02.65-1.02l4.74,7.71Z" style="fill: #ff856a;"/>
                <path d="m28.98,25.99s-3.97,9.59-7.5,9.61c-2.58.01-6.02-5.7-4.22-8.67,0,0-1.76-1.52-.08-2.7,1.48-1.03,2.19.27,1.41,1.95,0,0,2.11.43,2.3-1.84,0,0,4.14,2.85,7.93-.12,0,0-1.25,1.72-3.95,1.99,0,0,2.07.82,4.1-.23Z" style="fill: #feb19e;"/>
              </g>
              <g>
                <polygon points="38.83 54.1 43.41 54.1 14.86 187.72 10.28 187.72 38.83 54.1" style="fill: #c7dee0;"/>
                <polygon points="59.6 54.1 55.02 54.1 83.57 187.72 88.15 187.72 59.6 54.1" style="fill: #c7dee0;"/>
                <rect x="35.63" y="54.1" width="27.11" height="6.04" rx="1.5" ry="1.5" style="fill: #98aeaf;"/>
                <path d="m68.93,117.33H29.43c-1.04,0-1.88-.84-1.88-1.88h0c0-1.04.84-1.88,1.88-1.88h39.49c1.04,0,1.88.84,1.88,1.88h0c0,1.04-.84,1.88-1.88,1.88Z" style="fill: #98aeaf;"/>
                <path d="m30.39,115.45c0,.52-.42.94-.94.94s-.94-.42-.94-.94.42-.94.94-.94.94.42.94.94Z" style="fill: #c7dee0;"/>
                <path d="m69.83,115.45c0,.52-.42.94-.94.94s-.94-.42-.94-.94.42-.94.94-.94.94.42.94.94Z" style="fill: #c7dee0;"/>
              </g>
              <g>
                <path d="m25.15,72.95c-14.37,8.99-25.15,2.19-25.15,2.19,0,0,.39-9.76,3.98-24.69,3.59-14.92,7.81-17.93,7.81-17.93,0,0-.15-1.99,1.1-1.91,1.25.08,6.48,8.2,6.48,8.2l2.47,9.09,1.28,2.23c-.16,2.85-.14,7.98,0,10.32.43,7.75,2.04,12.49,2.04,12.49Z" style="fill: url(#linear-gradient-8);"/>
                <path d="m23.12,60.46c-14.38-3.47-12.78-17.2-12.78-17.2l11.51,4.65,1.28,1.3c-.16,2.85-.14,8.91,0,11.26Z" style="fill: #107a7a; mix-blend-mode: multiply; opacity: .17;"/>
                <g>
                  <g>
                    <g>
                      <path d="m55.28,43.31s-1.96,2.34-4.09,12.54c-.29,1.37.46,2.75,1.76,3.27,3.25,1.31,9.66,3.33,16.44,2.35,1.29-.19,2.3-1.22,2.45-2.51.39-3.28.99-10.02-.04-13.33l-16.51-2.32Z" style="fill: #f9b858;"/>
                      <path d="m71.79,45.64c-.09.63-3.85.61-8.41-.03-4.56-.64-8.18-1.67-8.09-2.29.09-.63,3.85-.61,8.41.03,4.56.64,8.18,1.67,8.09,2.29Z" style="fill: #f9c467;"/>
                      <path d="m69.74,44.8c-.05.33-2.83.2-6.22-.27-3.39-.48-6.1-1.13-6.05-1.46.05-.33,2.83-.2,6.22.27,3.39.48,6.1,1.13,6.05,1.46Z" style="fill: #ea9949;"/>
                      <path d="m87.83,50.97c-.11.23-.26.38-.45.42-1.13.21-2.29-2.51-2.29-2.51l-14.13,4.57s-1.82-2.06-.54-5.9l15.15-1.7c.1,0,.19-.01.29-.01,1.16.02,2.17.9,2.28,2.1.09.99.04,2.36-.31,3.04Z" style="fill: #f9b858;"/>
                      <path d="m87.83,50.97c-2.27-1.62-2.2-4-1.97-5.14,1.16.02,2.17.9,2.28,2.1.09.99.04,2.36-.31,3.04Z" style="fill: #ffd9a6;"/>
                    </g>
                    <path d="m70.96,45.59s-.04,0-.06,0c-.18-.04-.28-.22-.24-.39,0-.04.97-4.15-.87-7-.88-1.36-2.26-2.23-4.11-2.58-1.74-.33-3.29-.04-4.63.86-3.14,2.13-4.09,6.97-4.1,7.02-.03.18-.2.3-.38.26-.18-.03-.29-.21-.26-.38.04-.21,1.01-5.15,4.38-7.44,1.49-1.01,3.21-1.33,5.12-.96,2.03.39,3.56,1.36,4.53,2.87,1.99,3.09,1,7.33.96,7.5-.04.16-.18.26-.34.25Z" style="fill: #ea9949;"/>
                    <path d="m90.91,52.53c.3-.13.61-.12.89-.07.29.05.55.17.8.32.47.31.87.75.99,1.38-.32-.06-.57-.16-.81-.27-.24-.11-.45-.23-.66-.36-.42-.27-.78-.55-1.21-1Z" style="fill: #fff;"/>
                    <path d="m94.54,51.28c.36-.07.7-.03,1.02.06.33.09.63.23.91.42.28.19.52.43.71.72.2.28.33.62.35.98-.33-.16-.58-.32-.84-.48-.26-.15-.49-.32-.73-.48-.48-.34-.95-.68-1.42-1.22Z" style="fill: #fff;"/>
                    <path d="m91.58,47.26c.3-.17.62-.21.93-.2.31,0,.62.09.91.23.56.27,1.06.79,1.13,1.46-.33-.11-.57-.23-.81-.34-.24-.1-.47-.21-.7-.32-.46-.23-.91-.45-1.45-.83Z" style="fill: #fff;"/>
                    <path d="m100.35,54.78c.41.1.76.3,1.08.52.32.22.61.49.87.78.26.29.48.61.66.96.18.35.32.73.37,1.14-.36-.22-.64-.47-.92-.72-.28-.25-.53-.52-.78-.79-.24-.28-.47-.56-.69-.87-.22-.31-.42-.63-.59-1.01Z" style="fill: #fff;"/>
                    <path d="m100.76,50.68c.39-.06.77.01,1.12.14.35.12.68.31.97.55.29.24.54.53.72.87.19.33.29.71.28,1.1-.33-.23-.56-.46-.82-.67l-.75-.61c-.49-.42-.99-.81-1.52-1.38Z" style="fill: #fff;"/>
                    <path d="m97.53,57.87c.46.16.84.46,1.17.79.33.34.6.73.81,1.16.2.43.36.88.41,1.35.07.47.05.95-.08,1.41-.24-.42-.4-.83-.59-1.22l-.54-1.15c-.36-.76-.76-1.49-1.18-2.34Z" style="fill: #fff;"/>
                    <path d="m105.19,60.14c.36.04.67.21.94.41.27.2.5.46.68.75.35.57.53,1.27.32,1.96-.25-.26-.42-.52-.6-.76-.17-.25-.33-.48-.48-.73-.3-.5-.58-.97-.86-1.62Z" style="fill: #fff;"/>
                  </g>
                  <path d="m54.23,35.15l2.95-2.01s1.05-1.75,4.12-.77c3.07.98,3.64,1.59,3.23,2.59,0,0,1.99,1.34,1.65,2.28-.33.94-1.55,1.19-1.62,1.79s-.57,1.35-1.43,1.52c-.86.17-1.15.86-2.23.59-1.09-.27-3.02-1.97-3.02-1.97l-2.2.63-1.45-4.65Z" style="fill: #feb19e;"/>
                  <path d="m11.3,45.83c1.47,2.46,5.09,3.94,7.94,4.26,4.87.55,13.43,1.68,19.54-.36,8.48-2.83,18.08-9.51,18.08-9.51,0,0,.3-3.39-3.05-6.5,0,0-14.34,6.78-16.45,6.78-2.11,0-14.77-2.08-19.11-3.49-3.56-1.16-10.49,2.88-6.95,8.82Z" style="fill: url(#linear-gradient-9);"/>
                </g>
              </g>
            </g>
          </g>
        </g>
      </g>
    </g>
  </g>
</svg>