<?xml version="1.0" encoding="UTF-8"?>
<svg xmlns="http://www.w3.org/2000/svg" width="263.6" height="263.6" xmlns:xlink="http://www.w3.org/1999/xlink" viewBox="0 0 263.6 263.6">
  <defs>
    <clipPath id="clippath">
      <circle cx="131.95" cy="132" r="122.96" style="fill: none;"/>
    </clipPath>
  </defs>
  <g style="isolation: isolate;">
    <g id="_圖層_2" data-name="圖層 2">
      <g id="_第一cut" data-name="第一cut">
        <g id="heigh_scool">
          <g style="clip-path: url(#clippath);">
            <circle cx="131.95" cy="132" r="122.96" style="fill: #c7f7ff;"/>
            <g>
              <path d="m95.81,190.19c-4.71-.95-13.88.63-20.46,6.22-5.55,4.72-15.94,45.19-20.2,53.66-4.04,8.04,8.45,20.73,14.76,16.83,6.06-3.74,21.25-48.11,21.25-48.11,0,0,9.36-27.65,4.65-28.6Z" style="fill: #f1f1f1;"/>
              <path d="m147.5,188.7c4.71-.95,15.31,1.07,20.46,6.22,4.97,4.97,19.66,41.46,23.92,49.93,4.04,8.04-8.45,20.73-14.76,16.83-6.06-3.74-24.98-44.38-24.98-44.38,0,0-9.36-27.65-4.65-28.6Z" style="fill: #f1f1f1;"/>
              <g>
                <rect x="109.35" y="161.14" width="26.84" height="47.12" transform="translate(245.55 369.41) rotate(180)" style="fill: #f8d1c0;"/>
                <path d="m109.35,161.14v27.97c7.28,5.95,19.27,6.3,25.91-.96.32-.43.63-.87.94-1.32v-25.69h-26.84Z" style="fill: #e0927a;"/>
              </g>
              <g>
                <g>
                  <path d="m86.32,221.39c0-8.63,2.79-28.54,2.74-29.22,5.3-3.09,14.61-5.49,19.37-6.47.54,4.43,2.73,9.47,5.56,13.9,2.65,4.15,5.92,5.15,9.15,5.2,3.23.06,5.61-1.29,8.5-4.82,2.68-3.28,3.3-7.53,5.04-13.97,5.78,2.08,11.45,1.61,17.23,3.69,3.83,7.72,5.51,26.07,6.56,34.49.66,5.3,3.7,42.43,1.8,46.55-1.91,4.12-18.75,6.21-23.76,6.62-18.83,1.54-42.29-.34-45.5-1.4-13.28-4.4-11.16-5.59-10.65-11.86.26-3.2,3.95-34.07,3.95-42.7Z" style="fill: #f1f1f1;"/>
                  <path d="m158.75,210.1c-.24,8.93,1.48,27.54-2.41,28.79-3.13,1.01-44.85,2.44-66.3-.11-1.53,0-2.48-2.2-2.48-6.63,0-8.52.57-14.08-.63-20.86-.36,3.84-.61,7.5-.61,10.11,0,8.63-3.69,39.5-3.95,42.7-.51,6.27-2.63,7.46,10.65,11.86,3.21,1.06,26.67,2.94,45.5,1.4,5.01-.41,21.85-2.5,23.76-6.62,1.91-4.12-1.14-41.25-1.8-46.55-.43-3.48-.97-8.66-1.73-14.08Z" style="fill: #d5dde3;"/>
                  <path d="m109.1,184.7s-4.1.46-4.78,2.85c-.68,2.39-3.74,16.96,2.28,22.01,6.01,5.05,16.29-4.32,16.54-4.75.25-.43-12.03-6.33-14.04-20.1Z" style="fill: #e6e9eb;"/>
                  <path d="m136.45,184.8s4.1.46,4.78,2.85c.68,2.39,4.31,20.6-3.38,23.14-6.66,2.2-13.78-5.57-14.03-6s10.63-6.22,12.63-19.99Z" style="fill: #e6e9eb;"/>
                </g>
                <g>
                  <g>
                    <path d="m127.43,213c0,.67-.54,1.21-1.21,1.21s-1.21-.54-1.21-1.21.54-1.21,1.21-1.21,1.21.54,1.21,1.21Z" style="fill: #cad6e3;"/>
                    <circle cx="126.22" cy="230.93" r="1.21" style="fill: #cad6e3;"/>
                    <circle cx="126.22" cy="248.86" r="1.21" style="fill: #cad6e3;"/>
                  </g>
                  <polygon points="123.52 276.64 124.04 276.64 123.82 204.79 123.32 204.8 123.52 276.64" style="fill: #cad6e3;"/>
                </g>
              </g>
              <g>
                <g>
                  <g>
                    <path d="m176.92,160.34c11.62,1.41,19.62-11.17,19.48-20.81-.14-4.63-4.67-6.35-9.73-6.31-10.47-.07-17.8,9.12-15.17,16.01.91,4.5,2.65,10.62,5.42,11.11Z" style="fill: #ebb097;"/>
                    <path d="m179.82,150.83c.09.56,2.43,2.4,4.3,1.42,2.34-2.25-.93-5.64.75-7.75,1.87-.98,4.3-2.67,2.81-3.52-2.99-1.7-7.48,3.93-9.53-.3-.72-1.48-1.15-3.3-1.03-5.13-1.34.99-2.5,2.15-3.44,3.39.51,4.36,3.51,8.52,6.14,11.89Z" style="fill: #e39579;"/>
                  </g>
                  <g>
                    <path d="m76.63,152.26c-12.93-1.63-15.34-15.4-12.32-24.6,1.52-4.39,6.35-6.03,11.36-4.28,10.39,3.49,14.45,15.48,9.78,21.2-2.25,4.01-5.91,8.04-8.81,7.67Z" style="fill: #ffd0bf;"/>
                    <path d="m77.05,143.53c-.26.51-3.05,1.53-4.52.01-1.52-2.86,2.64-5.07,1.69-7.6-1.47-1.51-3.26-3.87-1.57-4.21,3.37-.68,5.89,6.06,9.15,2.68,1.14-1.18,2.12-2.78,2.57-4.56.97,1.36,1.71,2.82,2.21,4.29-1.84,3.99-5.99,7.01-9.53,9.39Z" style="fill: #f6a79c;"/>
                  </g>
                </g>
                <g>
                  <ellipse cx="201.94" cy="85.32" rx="25.14" ry="26.21" transform="translate(-15.28 114.9) rotate(-30.66)" style="fill: #4f3938;"/>
                  <path d="m202.78,67.73c4.3,3.01,3.6,9.19.44,13.12,3.55-.38,7.67.08,9.91,2.86,3.08,3.74,2.96,9.23.59,13.49-3.51,6.25-10.9,9.98-17.97,9.21-4.53-.37-8.92-1.95-12.66-4.43-1.01-1.18-1.94-2.46-2.76-3.85-6.12-10.32-4.62-22.95,2.86-31.01.85-.45,1.7-.86,2.49-1.23,5.84-2.21,11.86-1.88,17.11,1.83Z" style="fill: #473433;"/>
                  <path d="m189.73,99.74c2.09.86,4.25,1.39,6.43,1.56h.14c5.05.56,10.49-2.23,12.95-6.61,1.49-2.68,1.46-5.86-.08-7.72l-.03-.04c-.19-.24-.49-.44-.9-.61-1.05-.43-2.68-.57-4.48-.38l-12.3,1.33,7.76-9.64c1.03-1.28,1.6-3.02,1.42-4.33-.11-.8-.47-1.14-.8-1.37-.82-.58-1.66-1.05-2.52-1.4-2.94-1.21-6.19-1.18-9.68.11-.45.21-.87.41-1.26.61-5.59,6.58-6.3,16.44-1.65,24.28.52.88,1.12,1.75,1.79,2.57,1.02.63,2.1,1.18,3.21,1.64h0Z" style="fill: #423130;"/>
                  <path d="m201.33,63.27c1.38.27.83,2.38-.54,2.11-4.08-.79-8.33,1.46-10.11,5.18-.61,1.27-2.51.2-1.91-1.06,2.21-4.63,7.56-7.21,12.56-6.24Z" style="fill: #3b2b2a;"/>
                  <path d="m188.99,97.29c2.95,2.91,7.62,3.95,12.03,2.64,1.25-.37,1.68,1.41.43,1.79-5.06,1.51-10.51.35-13.91-3-.84-.83.61-2.25,1.45-1.42Z" style="fill: #3b2b2a;"/>
                  <path d="m190.7,89.41c1.37,1.59,3.43,2.39,5.51,1.94,1.37-.29,1.95,1.81.57,2.11-2.78.6-5.73-.3-7.6-2.47-.91-1.06.6-2.64,1.51-1.57Z" style="fill: #3b2b2a;"/>
                  <path d="m210.67,66.89c5.78,1.76,10.57,6.13,12.93,11.69,2.35,5.51,1.93,11.8-.82,17.09-1.52,2.93-3.74,5.44-6.45,7.33-1.15.8-2.26-1.08-1.11-1.88,4.26-2.97,7.09-7.89,7.65-13.05.57-5.3-1.38-10.55-5.08-14.35-2.13-2.18-4.74-3.83-7.66-4.72-1.34-.41-.81-2.52.54-2.11Z" style="fill: #3b2b2a;"/>
                </g>
                <g>
                  <ellipse cx="91.96" cy="55.82" rx="26.21" ry="25.14" transform="translate(-12.53 30.23) rotate(-17.5)" style="fill: #4f3938;"/>
                  <path d="m75.02,51c3.91-3.5,9.77-1.41,12.87,2.56.43-3.54,1.83-7.45,5.04-9,4.34-2.15,9.67-.78,13.27,2.5,5.29,4.84,7.24,12.88,4.88,19.6-1.39,4.33-3.93,8.24-7.2,11.32-1.38.71-2.84,1.33-4.37,1.81-11.44,3.61-23.4-.72-29.54-9.84-.25-.93-.45-1.85-.63-2.7-.82-6.19.87-11.98,5.68-16.25Z" style="fill: #473433;"/>
                  <path d="m103.22,71c1.31-1.83,2.32-3.82,2.98-5.9l.04-.13c1.68-4.79.21-10.73-3.5-14.12-2.27-2.06-5.37-2.76-7.54-1.68l-.04.02c-.28.13-.54.37-.8.73-.66.93-1.17,2.48-1.39,4.27l-1.5,12.28-7.62-9.75c-1.01-1.3-2.58-2.25-3.89-2.36-.81-.07-1.22.19-1.52.46-.75.67-1.4,1.38-1.94,2.13-1.85,2.58-2.56,5.76-2.1,9.45.1.48.2.94.31,1.37,5.13,6.94,14.57,9.87,23.26,7.13.98-.31,1.96-.7,2.91-1.15.85-.85,1.63-1.78,2.33-2.76t0,0Z" style="fill: #423130;"/>
                  <path d="m70.35,51.4c.58-1.28,2.51-.27,1.93,1.01-1.7,3.8-.47,8.45,2.75,11.03,1.1.88-.37,2.49-1.47,1.62-4.01-3.21-5.3-9-3.21-13.65Z" style="fill: #3b2b2a;"/>
                  <path d="m100.66,71.16c3.51-2.21,5.59-6.52,5.31-11.11-.08-1.3,1.76-1.32,1.84,0,.32,5.27-2.06,10.32-6.09,12.86-1,.63-2.05-1.11-1.06-1.74Z" style="fill: #3b2b2a;"/>
                  <path d="m93.38,67.7c1.86-.97,3.11-2.8,3.14-4.92.03-1.4,2.21-1.49,2.18-.08-.05,2.84-1.6,5.51-4.14,6.83-1.24.64-2.43-1.18-1.19-1.83Z" style="fill: #3b2b2a;"/>
                  <path d="m76,43.13c3.03-5.23,8.37-8.89,14.32-9.93,5.9-1.03,11.93.81,16.46,4.69,2.51,2.15,4.45,4.88,5.67,7.95.52,1.3-1.56,1.95-2.08.66-1.92-4.83-6.07-8.7-10.96-10.42-5.03-1.77-10.59-1.06-15.13,1.68-2.61,1.58-4.81,3.75-6.34,6.39-.7,1.21-2.64.21-1.93-1.01Z" style="fill: #3b2b2a;"/>
                </g>
                <path d="m132.22,183.44c14.33-2.28,35.27-9.21,43.06-22.83,1.69-9.69,2.98-19.45,3.87-29.25,1.03-11.39,1.5-23.08-1.7-34.07-3.48-11.97-11.38-22.61-21.83-29.41-12.53-8.16-28.6-10.72-43.01-6.52-11.53,3.09-21.77,11.26-26.68,22.18-2.14,4.76-3.33,9.9-4.16,15.06-1.38,8.62-1.77,17.39-1.17,26.1-1.27,4.9-2.53,9.8-3.8,14.7-.7,2.69-1.4,5.43-1.26,8.21.14,2.8,1.12,5.49,2.29,8.03,7.86,17.15,32.82,27.53,42.48,28.56,2.53.27,6.8.05,11.9-.77Z" style="fill: #ffd0bf;"/>
                <path d="m143.77,178.04c20.79-3.42,33.41-22.95,19.74-43.45-4.56-6.55-16.27-16.86-23.67-19.43-19.15-6.88-38.94-8.88-58.82-10.95.21-1.88.46-3.75.75-5.61.82-5.16,2.01-10.3,4.16-15.06,4.92-10.92,15.16-19.09,26.68-22.18,14.4-4.2,30.48-1.63,43.01,6.52,10.45,6.8,18.34,17.44,21.83,29.41,3.2,10.98,2.73,22.67,1.7,34.07-.89,9.8-2.18,19.56-3.87,29.25-7.79,13.62-28.73,20.55-43.06,22.83-5.1.81-9.37,1.04-11.9.77-5.47-.59-15.86-4.18-25.26-10.3,23.72,9.92,36.35,6.3,48.72,4.14Z" style="fill: #ebb097;"/>
                <g>
                  <path d="m108.04,102.15s-4.02,8.52-11.56,9.99c-9.07,1.77-20.95-3.62-20.95-3.62,0,0,20.39-3.11,20.39-8.2l-4.94-1.55c.31-1.23.38-1.49.68-2.7-4.67,6.37-9.91,16.86-10.89,30.91-1.46-1.22-7.51-3.09-7.51-3.09-7.46-29.6,8.94-55.68,34.19-63.99,23.22-7.64,54.13-5.52,70.33,14.94,14.2,3.23,20.62,15.72,23.05,28.29,1.3,6.73,1.3,13.46,1.05,18.82-.47,10.27-6.68,28.94-7.7,28.37-10.6-5.95-21.71-11.18-33.18-15.64.86-8.28-1-17.05-4.14-25.02-.74,7.44-1.1,15.09-4.08,21.97-4.22-1.49-8.49-2.87-12.79-4.15-.15-3.89-.79-7.84-.41-11.61-1.37,3.52-.77,7.43-1.97,10.91-2.2-.63-4.36-1.23-6.49-1.8l-2.44-16.74s-14.93,16.91-28.8,4.96c0,0,11.38-3.01,11.38-8.23s-3.22-2.83-3.22-2.83Z" style="fill: #4f3938;"/>
                  <path d="m107.46,59.89c23.22-7.64,54.13-5.52,70.33,14.94,14.2,3.23,20.62,15.72,23.05,28.29,1.3,6.73,1.3,13.46,1.05,18.82-.47,10.27-6.68,28.94-7.7,28.37-2.81-1.58-5.66-3.1-8.53-4.58.47-.63.87-1.34,1.16-2.1,6.26-14.81,5.98-31.04-.85-45.56-5.98-12.81-21.92-17.94-34.74-11.96-.85.28-1.71,0-2.28-.28-17.37-15.09-44.99-13.1-56.95,5.98-2.09,3.41-3.53,7.05-4.43,10.8-3.26,6.19-6.11,14.37-6.8,24.35-1.46-1.22-7.51-3.09-7.51-3.09-7.46-29.6,8.94-55.68,34.19-63.99Z" style="fill: #473433;"/>
                  <g>
                    <path d="m144.07,99.46c-4.72,8.29-6.59,17.79-5.29,27.24.16,1.17,2.28,1.19,2.12.01-1.25-9.13.49-18.3,5.06-26.32.59-1.03-1.29-1.97-1.88-.94Z" style="fill: #3c2b2b;"/>
                    <path d="m98.88,88.75c-8.75,6.23-14.89,13.7-17.57,24.58-1.22,4.94-.94,10.44-1.08,13.32-.06,1.16,2.16,1.04,2.06-.13-1.01-12.31,4.3-23.22,11.25-30.52,1.98-2.08,4.17-3.99,6.57-5.69,1.01-.72-.21-2.28-1.24-1.55Z" style="fill: #3c2b2b;"/>
                    <path d="m176.55,93.72c-.5-1.12-2.51-.65-2.01.48,4.82,10.85,6.44,22.52,4.62,33.73-.19,1.15,1.88,1.66,2.07.5,1.87-11.53.28-23.54-4.68-34.71Z" style="fill: #3c2b2b;"/>
                    <path d="m188,97.18c-.43-1.14-2.45-.67-2.01.48,2.63,6.88,3.47,14.13,2.41,21.15-.17,1.15,1.89,1.66,2.07.5,1.11-7.35.28-14.91-2.47-22.13Z" style="fill: #3c2b2b;"/>
                  </g>
                  <path d="m110.58,117.38c2.59,0,5.18-.44,7.61-1.34,5.78-2.14,10.59-6.85,12.85-12.59.23-.59-.06-1.25-.64-1.48-.58-.23-1.25.06-1.48.64-2.03,5.15-6.33,9.36-11.52,11.29-5.19,1.92-11.2,1.53-16.09-1.05-.56-.29-1.25-.08-1.54.48-.29.56-.08,1.25.48,1.54,3.16,1.67,6.75,2.52,10.33,2.52Z" style="fill: #3c2b2b;"/>
                  <path d="m100.23,110.51c.2,0,.41-.05.59-.17,3.62-2.22,6.43-5.8,7.72-9.84.19-.6-.14-1.24-.74-1.43-.6-.19-1.24.14-1.43.74-1.13,3.53-3.58,6.66-6.74,8.59-.54.33-.7,1.03-.38,1.57.21.35.59.54.97.54Z" style="fill: #3c2b2b;"/>
                </g>
                <g>
                  <g>
                    <circle cx="145.64" cy="157.11" r="10.64" transform="translate(-25.05 27.66) rotate(-9.99)" style="fill: #f09190;"/>
                    <g>
                      <path d="m149.65,154.79c.15,1.33.3,2.65.45,3.98.02.18.02.34-.09.51-.09.14-.26.27-.42.3-.33.06-.76-.13-.81-.51-.15-1.33-.3-2.65-.45-3.98-.02-.18-.02-.34.09-.51.09-.14.26-.27.42-.3.33-.06.76.13.81.51h0Z" style="fill: #f47170;"/>
                      <path d="m145.1,151.22c.12,2.69.23,5.39.35,8.08.02.36-.35.66-.69.65-.39-.01-.63-.33-.65-.69-.12-2.69-.23-5.39-.35-8.08-.02-.36.35-.66.69-.65.39.01.63.33.65.69h0Z" style="fill: #f47170;"/>
                    </g>
                  </g>
                  <g>
                    <circle cx="96.52" cy="142.52" r="10.33" transform="translate(-67.93 193.35) rotate(-73.07)" style="fill: #f09190;"/>
                    <g>
                      <path d="m99.95,139.6c.05,1.94.1,3.89.16,5.83,0,.35-.34.64-.67.63-.37-.01-.62-.32-.63-.67-.05-1.94-.1-3.89-.16-5.83,0-.35.34-.64.67-.63.37.01.62.32.63.67h0Z" style="fill: #f47170;"/>
                      <path d="m95,138.62c.05,1.31.11,2.62.16,3.92.01.34-.34.66-.67.63-.37-.03-.62-.31-.63-.67-.05-1.31-.11-2.62-.16-3.92-.01-.34.34-.66.67-.63.37.03.62.31.63.67h0Z" style="fill: #f47170;"/>
                    </g>
                  </g>
                  <g>
                    <ellipse cx="104.86" cy="133.01" rx="8.09" ry="6.03" transform="translate(-43.71 214.33) rotate(-80.45)" style="fill: #533838;"/>
                    <ellipse cx="140.62" cy="142.31" rx="8.09" ry="6.03" transform="translate(-23.06 257.36) rotate(-80.45)" style="fill: #533838;"/>
                    <path d="m122.6,140.44c-.75-.52-.02-1.39.42-1.84.53-.54-.35-1.33-.88-.79-.5.5-.95,1.1-1.03,1.83-.07.63.16,1.31.7,1.68.26.18.6.21.83-.04.19-.21.22-.65-.04-.83Z" style="fill: #533838;"/>
                    <path d="m110.21,119.75c-.35-.11-.7-.21-1.05-.29-.18-.04-.36-.07-.54-.1-.09-.01-.18-.03-.27-.04-.03,0-.09,0-.12-.01.14.01.17.02.09,0-.03,0-.05,0-.08,0-.74-.07-1.48-.06-2.22.03-.09.01-.18.02-.27.04-.02,0-.1,0-.12.02,0,0,.2-.03.08-.01-.19.04-.38.07-.57.11-.36.08-.71.18-1.05.29-.17.06-.34.12-.51.19-.08.03-.17.07-.25.1-.03.01-.09.03-.11.05.11-.05.14-.06.07-.03-.02.01-.05.02-.07.03-.33.15-.65.32-.97.51-.36.21-.7.45-1.03.7-.12.09.14-.12.03-.02-.04.03-.08.07-.12.1-.08.07-.16.13-.24.2-.17.15-.32.3-.48.46-.38.39-1.09.43-1.48.02-.39-.41-.43-1.06-.02-1.48,2.32-2.35,5.71-3.63,9.01-3.42.95.06,1.89.22,2.8.52.52.17.93.7.76,1.27-.15.51-.71.95-1.27.76h0Z" style="fill: #533838;"/>
                    <path d="m148.43,136.39c-.12-.34-.25-.68-.41-1.01-.08-.16-.16-.33-.25-.49-.04-.08-.09-.16-.13-.24-.02-.03-.05-.07-.06-.1.07.12.09.14.04.07-.01-.02-.03-.04-.04-.07-.39-.63-.85-1.21-1.36-1.75-.06-.07-.13-.13-.19-.19-.02-.02-.06-.08-.08-.08,0,0,.15.13.05.05-.15-.13-.29-.26-.44-.39-.28-.23-.57-.45-.87-.66-.15-.1-.3-.2-.46-.3-.08-.05-.16-.09-.23-.14-.02-.01-.07-.05-.1-.06.11.06.13.07.06.04-.02-.01-.05-.02-.07-.04-.32-.17-.65-.33-.99-.46-.39-.16-.78-.28-1.18-.4-.14-.04.18.04.03,0-.05-.01-.1-.02-.15-.04-.1-.02-.2-.05-.3-.07-.22-.04-.44-.08-.65-.11-.54-.07-1-.61-.91-1.17.09-.55.59-.99,1.17-.91,3.28.43,6.34,2.36,8.17,5.12.53.79.97,1.64,1.28,2.54.18.52,0,1.16-.55,1.37-.5.19-1.18,0-1.37-.55h0Z" style="fill: #533838;"/>
                    <path d="m113.51,145.42c2.89,3.62,7.71,5.3,12.21,4.1,1.56-.42,2.24,2,.68,2.41-5.29,1.41-11.22-.43-14.66-4.73-1-1.24.75-3.05,1.76-1.78Z" style="fill: #533838;"/>
                  </g>
                  <g style="mix-blend-mode: soft-light;">
                    <path d="m150.58,153.79c-.22.91,1.68,2.15,4.24,2.77,2.56.61,4.82.37,5.03-.54.22-.91-1.68-2.15-4.24-2.77-2.56-.61-4.82-.37-5.03.54Z" style="fill: #f7ece9;"/>
                  </g>
                  <g style="mix-blend-mode: soft-light;">
                    <path d="m86.35,135.65c-.17.72.72,1.55,2,1.85,1.28.31,2.45-.03,2.62-.74.17-.72-.72-1.55-2-1.85-1.28-.31-2.45.03-2.62.74Z" style="fill: #f7ece9;"/>
                  </g>
                </g>
              </g>
            </g>
          </g>
          <g>
            <path d="m131.86,263.6c-.39,0-.7-.31-.7-.7s.31-.7.7-.7c1.23,0,2.48-.02,3.72-.05.38-.03.71.29.72.68.01.39-.29.71-.68.72-1.25.04-2.52.05-3.76.05Zm-3.74-.05s-.01,0-.02,0c-1.25-.03-2.51-.09-3.76-.16-.39-.02-.68-.35-.66-.74.02-.39.34-.68.74-.66,1.24.07,2.49.12,3.72.15.39.01.69.33.68.72-.01.38-.32.68-.7.68Zm11.23-.16c-.37,0-.68-.29-.7-.66-.02-.39.27-.72.66-.74,1.23-.07,2.48-.16,3.71-.26.37-.04.72.25.76.64.03.39-.25.72-.64.76-1.25.11-2.51.2-3.75.27-.01,0-.03,0-.04,0Zm-18.7-.25s-.04,0-.06,0c-1.24-.11-2.5-.23-3.74-.37-.38-.04-.66-.39-.62-.77.04-.38.39-.66.77-.62,1.23.14,2.47.26,3.71.36.39.03.67.37.64.76-.03.37-.34.64-.7.64Zm26.16-.38c-.35,0-.65-.26-.69-.62-.04-.38.23-.73.62-.77,1.23-.14,2.47-.3,3.69-.47.38-.06.74.21.79.59.06.38-.21.74-.59.79-1.24.18-2.49.34-3.73.48-.03,0-.05,0-.08,0Zm-33.6-.46s-.07,0-.1,0c-1.24-.18-2.49-.37-3.72-.58-.38-.07-.64-.43-.57-.81.07-.38.43-.64.81-.57,1.22.21,2.46.4,3.68.58.38.05.65.41.59.79-.05.35-.35.6-.69.6Zm41.01-.6c-.33,0-.63-.24-.69-.58-.07-.38.19-.74.57-.81,1.21-.21,2.44-.44,3.66-.68.37-.07.75.17.82.55.08.38-.17.75-.55.82-1.23.25-2.48.48-3.7.69-.04,0-.08.01-.12.01Zm-48.39-.66s-.09,0-.14-.01c-1.23-.25-2.47-.51-3.68-.79-.38-.09-.61-.46-.52-.84.09-.38.46-.61.84-.52,1.2.28,2.42.54,3.64.79.38.08.62.45.55.82-.07.33-.36.56-.69.56Zm55.72-.82c-.32,0-.61-.22-.68-.54-.09-.38.15-.75.52-.84,1.2-.28,2.41-.58,3.61-.89.38-.1.76.13.85.5.1.37-.13.76-.5.85-1.21.32-2.44.62-3.65.9-.05.01-.11.02-.16.02Zm-63.02-.87c-.06,0-.12,0-.18-.02-1.21-.32-2.43-.66-3.63-1-.37-.11-.58-.5-.47-.87.11-.37.5-.58.87-.47,1.18.35,2.39.68,3.59.99.37.1.6.48.5.85-.08.31-.37.52-.68.52Zm70.26-1.03c-.3,0-.58-.2-.67-.5-.11-.37.1-.76.47-.87,1.19-.35,2.39-.72,3.56-1.1.37-.12.76.08.88.45.12.37-.08.76-.45.88-1.18.38-2.39.76-3.6,1.11-.07.02-.13.03-.2.03Zm-77.44-1.07c-.07,0-.14-.01-.22-.03-1.19-.39-2.39-.79-3.58-1.22-.36-.13-.55-.53-.42-.89.13-.36.53-.55.89-.42,1.17.42,2.36.82,3.54,1.2.37.12.57.51.45.88-.1.3-.37.48-.67.48Zm84.56-1.25c-.29,0-.56-.18-.66-.46-.13-.36.06-.76.42-.89,1.16-.41,2.33-.85,3.49-1.3.36-.14.77.04.91.4.14.36-.04.77-.4.91-1.17.46-2.36.9-3.53,1.32-.08.03-.16.04-.24.04Zm-91.64-1.27c-.08,0-.17-.02-.25-.05-1.17-.45-2.34-.93-3.5-1.42-.36-.15-.52-.56-.37-.92.15-.36.56-.52.92-.37,1.14.48,2.31.96,3.46,1.4.36.14.54.55.4.91-.11.28-.37.45-.65.45Zm98.6-1.44c-.27,0-.53-.16-.65-.43-.15-.36.02-.77.37-.92,1.12-.48,2.27-.98,3.4-1.5.35-.16.77,0,.93.35.16.35,0,.77-.35.93-1.14.52-2.3,1.03-3.43,1.51-.09.04-.18.06-.27.06Zm-105.52-1.48c-.1,0-.2-.02-.29-.06-1.14-.52-2.28-1.06-3.41-1.62-.35-.17-.49-.59-.32-.94.17-.35.59-.49.94-.32,1.11.55,2.25,1.09,3.37,1.6.35.16.51.58.35.93-.12.26-.37.41-.64.41Zm112.3-1.63c-.26,0-.51-.14-.63-.39-.17-.35-.03-.77.32-.94,1.11-.54,2.22-1.11,3.31-1.69.34-.18.76-.05.95.29.18.34.05.76-.29.95-1.1.58-2.23,1.16-3.34,1.71-.1.05-.21.07-.31.07Zm-119.03-1.69c-.11,0-.22-.03-.33-.08-1.1-.58-2.21-1.19-3.31-1.81-.34-.19-.46-.62-.26-.95.19-.34.62-.45.95-.26,1.08.61,2.19,1.22,3.27,1.79.34.18.47.6.29.95-.13.24-.37.37-.62.37Zm125.64-1.8c-.24,0-.48-.13-.61-.35-.19-.34-.07-.76.26-.95,1.07-.61,2.15-1.24,3.21-1.88.33-.2.76-.09.96.24.2.33.09.76-.24.96-1.07.64-2.16,1.28-3.24,1.9-.11.06-.23.09-.34.09Zm-132.16-1.89c-.12,0-.25-.03-.36-.1-1.07-.64-2.14-1.31-3.2-1.99-.33-.21-.42-.64-.21-.97.21-.33.64-.42.97-.21,1.04.67,2.11,1.34,3.16,1.97.33.2.44.63.24.96-.13.22-.36.34-.6.34Zm138.56-1.97c-.23,0-.46-.11-.59-.32-.21-.33-.11-.76.21-.97,1.03-.66,2.07-1.35,3.1-2.06.32-.22.75-.14.97.18.22.32.14.75-.18.97-1.04.71-2.09,1.41-3.13,2.08-.12.08-.25.11-.38.11Zm-144.86-2.08c-.14,0-.27-.04-.39-.12-1.03-.7-2.06-1.43-3.08-2.17-.31-.23-.38-.66-.15-.98.23-.31.67-.38.98-.15,1.01.73,2.03,1.45,3.04,2.15.32.22.4.65.18.97-.14.2-.35.3-.58.3Zm151.03-2.14c-.22,0-.43-.1-.57-.29-.23-.31-.16-.75.15-.98,1-.73,2-1.48,2.98-2.23.31-.24.74-.18.98.13.24.31.18.75-.13.98-.99.76-2,1.52-3.01,2.25-.12.09-.27.13-.41.13Zm-157.09-2.27c-.15,0-.3-.05-.43-.15-.99-.76-1.98-1.55-2.95-2.34-.3-.24-.34-.69-.1-.98.24-.3.69-.34.98-.1.96.78,1.94,1.56,2.92,2.32.31.24.36.68.13.98-.14.18-.35.27-.55.27Zm163.01-2.3c-.2,0-.4-.09-.54-.26-.24-.3-.2-.74.1-.99.96-.78,1.92-1.59,2.85-2.4.29-.25.73-.22.99.07.25.29.22.73-.07.99-.94.82-1.91,1.63-2.88,2.42-.13.11-.29.16-.44.16Zm-168.8-2.45c-.16,0-.33-.06-.46-.17-.95-.82-1.89-1.66-2.81-2.51-.28-.26-.3-.7-.04-.99s.7-.3.99-.04c.91.83,1.84,1.67,2.78,2.48.29.25.32.69.07.99-.14.16-.33.24-.53.24Zm174.46-2.45c-.19,0-.38-.08-.52-.23-.26-.28-.24-.73.04-.99.91-.83,1.82-1.69,2.71-2.56.28-.27.72-.26.99.01.27.28.26.72-.01.99-.9.87-1.82,1.74-2.74,2.58-.13.12-.3.18-.47.18Zm-179.97-2.61c-.18,0-.35-.07-.49-.2-.89-.87-1.79-1.76-2.66-2.66-.27-.28-.26-.72.01-.99.28-.27.72-.26.99.01.86.89,1.75,1.77,2.63,2.63.28.27.28.71.01.99-.14.14-.32.21-.5.21Zm185.34-2.61c-.18,0-.35-.07-.49-.2-.28-.27-.28-.71-.01-.99.86-.89,1.72-1.8,2.56-2.7.26-.29.7-.3.99-.04.28.26.3.7.04.99-.85.92-1.71,1.84-2.59,2.73-.14.14-.32.21-.5.21Zm-190.56-2.76c-.19,0-.38-.08-.52-.23-.84-.91-1.68-1.86-2.5-2.81-.25-.29-.22-.73.07-.99.29-.25.73-.22.99.07.81.94,1.65,1.87,2.48,2.78.26.28.24.73-.04.99-.13.12-.3.18-.47.18Zm195.63-2.75c-.16,0-.33-.06-.46-.17-.29-.25-.32-.7-.07-.99.81-.93,1.62-1.89,2.4-2.85.25-.3.69-.34.98-.1.3.24.34.69.1.98-.79.97-1.61,1.93-2.43,2.88-.14.16-.33.24-.53.24Zm-200.53-2.9c-.2,0-.4-.09-.54-.26-.79-.97-1.58-1.96-2.34-2.94-.24-.31-.18-.75.13-.98.31-.24.75-.18.98.13.75.97,1.53,1.95,2.32,2.91.24.3.2.74-.1.99-.13.11-.29.16-.44.16Zm205.28-2.89c-.15,0-.3-.05-.43-.15-.31-.24-.36-.68-.13-.98.75-.97,1.51-1.98,2.24-2.98.23-.31.67-.38.98-.15.31.23.38.67.15.98-.74,1.01-1.5,2.03-2.26,3.01-.14.18-.34.27-.55.27Zm-209.85-3.03c-.22,0-.43-.1-.57-.29-.73-1-1.46-2.03-2.17-3.07-.22-.32-.14-.75.18-.97.32-.22.75-.14.97.18.7,1.02,1.42,2.05,2.15,3.04.23.31.16.75-.15.98-.12.09-.27.13-.41.13Zm214.26-3.03c-.14,0-.27-.04-.4-.12-.32-.22-.4-.65-.18-.97.7-1.02,1.39-2.06,2.06-3.1.21-.33.64-.42.97-.21.32.21.42.64.21.97-.68,1.05-1.38,2.11-2.09,3.14-.14.2-.35.3-.58.3Zm-218.48-3.14c-.23,0-.46-.11-.59-.32-.67-1.05-1.34-2.12-1.99-3.19-.2-.33-.09-.76.24-.96.33-.2.76-.09.96.24.64,1.06,1.3,2.12,1.97,3.15.21.32.12.76-.21.97-.12.08-.25.11-.38.11Zm222.54-3.16c-.12,0-.25-.03-.36-.1-.33-.2-.44-.63-.24-.96.64-1.06,1.27-2.14,1.88-3.22.19-.34.62-.45.95-.26.34.19.45.62.26.95-.62,1.09-1.26,2.18-1.9,3.25-.13.22-.36.34-.6.34Zm-226.41-3.23c-.24,0-.48-.13-.61-.35-.62-1.09-1.22-2.19-1.8-3.29-.18-.34-.05-.77.29-.95.34-.18.76-.05.95.29.58,1.09,1.18,2.18,1.78,3.26.19.34.07.76-.26.95-.11.06-.23.09-.34.09Zm230.11-3.29c-.11,0-.22-.03-.33-.08-.34-.18-.47-.6-.29-.95.58-1.1,1.15-2.22,1.7-3.32.17-.35.59-.49.94-.32.35.17.49.59.32.94-.55,1.12-1.13,2.25-1.72,3.36-.13.24-.37.37-.62.37Zm-233.6-3.31c-.26,0-.51-.14-.63-.39-.55-1.11-1.09-2.25-1.61-3.39-.16-.35,0-.77.34-.93.35-.16.77,0,.93.34.52,1.13,1.05,2.25,1.6,3.35.17.35.03.77-.32.94-.1.05-.21.07-.31.07Zm236.92-3.42c-.1,0-.2-.02-.29-.06-.35-.16-.51-.58-.35-.93.52-1.13,1.02-2.28,1.5-3.42.15-.36.56-.52.92-.37.36.15.52.56.37.92-.49,1.15-1,2.31-1.52,3.45-.12.26-.37.41-.64.41Zm-240.03-3.36c-.27,0-.53-.16-.64-.43-.49-1.14-.96-2.31-1.41-3.47-.14-.36.04-.77.4-.91.36-.14.77.04.91.4.45,1.15.92,2.3,1.4,3.44.15.36-.02.77-.37.92-.09.04-.18.06-.27.06Zm242.95-3.55c-.08,0-.17-.02-.25-.05-.36-.14-.54-.55-.4-.91.45-1.16.89-2.34,1.31-3.5.13-.36.53-.55.89-.42.36.13.55.53.42.89-.42,1.17-.86,2.36-1.32,3.54-.11.28-.37.45-.65.45Zm-245.67-3.41c-.29,0-.56-.18-.66-.46-.42-1.18-.83-2.38-1.22-3.56-.12-.37.08-.76.45-.88.37-.12.76.08.88.45.38,1.17.79,2.35,1.2,3.52.13.36-.06.76-.42.89-.08.03-.16.04-.24.04Zm248.2-3.66c-.07,0-.14-.01-.22-.03-.37-.12-.57-.51-.45-.88.38-1.17.75-2.37,1.1-3.56.11-.37.5-.58.87-.47.37.11.58.5.47.87-.35,1.2-.73,2.41-1.11,3.6-.1.3-.37.48-.67.48Zm-250.51-3.46c-.3,0-.58-.2-.67-.5-.35-1.2-.69-2.42-1.01-3.63-.1-.37.12-.76.5-.85.37-.1.76.13.85.5.31,1.19.65,2.4,1,3.59.11.37-.1.76-.47.87-.07.02-.13.03-.2.03Zm252.62-3.73c-.06,0-.12,0-.18-.02-.37-.1-.6-.48-.5-.85.31-1.19.61-2.41.89-3.61.09-.38.46-.61.84-.52.38.09.61.46.52.84-.28,1.22-.59,2.45-.9,3.65-.08.31-.37.52-.68.52Zm-254.52-3.51c-.32,0-.61-.22-.68-.54-.28-1.22-.55-2.46-.8-3.68-.08-.38.17-.75.55-.82.38-.08.75.17.82.55.24,1.21.51,2.43.79,3.64.09.38-.15.75-.52.84-.05.01-.11.02-.16.02Zm256.21-3.78s-.09,0-.14-.01c-.38-.08-.62-.45-.55-.82.24-1.21.47-2.44.68-3.66.07-.38.43-.64.81-.57.38.07.64.43.57.81-.21,1.23-.44,2.48-.69,3.7-.07.33-.36.56-.69.56ZM2.62,154.97c-.33,0-.63-.24-.69-.58-.21-1.24-.41-2.49-.59-3.72-.06-.38.21-.74.59-.79.38-.05.74.21.79.59.17,1.22.37,2.45.58,3.68.07.38-.19.74-.57.81-.04,0-.08,0-.12,0Zm258.97-3.82s-.07,0-.1,0c-.38-.05-.65-.41-.59-.79.17-1.23.33-2.47.47-3.69.04-.38.39-.66.77-.62.38.04.66.39.62.77-.14,1.23-.3,2.49-.48,3.73-.05.35-.35.6-.69.6ZM1.55,147.57c-.35,0-.65-.26-.69-.62-.14-1.25-.27-2.51-.37-3.74-.03-.39.25-.72.64-.76.39-.04.72.25.76.64.1,1.22.23,2.47.37,3.7.04.38-.23.73-.62.77-.03,0-.05,0-.08,0Zm260.87-3.85s-.04,0-.06,0c-.39-.03-.67-.37-.64-.76.1-1.24.19-2.49.26-3.71.02-.39.36-.66.74-.66.39.02.68.35.66.74-.07,1.24-.16,2.5-.26,3.75-.03.37-.34.64-.7.64ZM.92,140.11c-.37,0-.68-.29-.7-.66-.07-1.25-.13-2.51-.16-3.76-.01-.39.29-.71.68-.72,0,0,.01,0,.02,0,.38,0,.69.3.7.68.04,1.23.09,2.49.16,3.72.02.39-.27.72-.66.74-.01,0-.03,0-.04,0Zm261.93-3.86s-.01,0-.02,0c-.39-.01-.69-.33-.68-.72.03-1.24.05-2.49.05-3.72v-.25c0-.39.31-.7.7-.7s.7.31.7.7v.25c0,1.24-.02,2.51-.05,3.76-.01.38-.32.68-.7.68ZM.7,132.62c-.39,0-.7-.31-.7-.7v-.12c0-1.21.02-2.44.05-3.64.01-.39.34-.71.72-.68.39.01.69.33.68.72-.03,1.19-.05,2.4-.05,3.6v.12c0,.39-.31.7-.7.7Zm262.14-4.11c-.38,0-.69-.3-.7-.68-.04-1.23-.09-2.48-.16-3.72-.02-.39.27-.72.66-.74.38-.03.72.27.74.66.07,1.25.13,2.52.17,3.76.01.39-.29.71-.68.72,0,0-.01,0-.02,0ZM.9,125.14s-.03,0-.04,0c-.39-.02-.68-.35-.66-.74.07-1.24.16-2.51.26-3.75.03-.39.37-.66.76-.64.39.03.67.37.64.76-.1,1.23-.19,2.48-.26,3.71-.02.37-.33.66-.7.66Zm261.5-4.1c-.36,0-.66-.27-.7-.64-.11-1.24-.23-2.48-.37-3.7-.04-.38.23-.73.62-.78.39-.04.73.23.78.62.14,1.24.27,2.5.38,3.74.03.39-.25.72-.64.76-.02,0-.04,0-.06,0ZM1.53,117.68s-.05,0-.08,0c-.38-.04-.66-.39-.62-.77.14-1.24.3-2.5.47-3.73.05-.38.41-.65.79-.6.38.05.65.41.59.79-.17,1.22-.33,2.47-.47,3.69-.04.36-.34.62-.69.62Zm260.02-4.08c-.34,0-.64-.25-.69-.6-.18-1.23-.37-2.46-.58-3.68-.07-.38.19-.74.57-.81.38-.07.74.19.81.57.21,1.23.41,2.48.59,3.72.06.38-.21.74-.59.79-.03,0-.07,0-.1,0ZM2.58,110.27s-.08,0-.12-.01c-.38-.07-.64-.43-.57-.81.21-1.23.44-2.48.69-3.7.08-.38.45-.62.82-.55.38.08.62.44.55.82-.24,1.21-.47,2.44-.68,3.66-.06.34-.35.58-.69.58Zm257.69-4.04c-.33,0-.62-.23-.68-.56-.24-1.2-.51-2.43-.79-3.64-.09-.38.15-.75.52-.84.38-.09.75.15.84.52.29,1.22.56,2.46.8,3.68.08.38-.17.75-.55.83-.05,0-.09.01-.14.01ZM4.05,102.93c-.05,0-.1,0-.16-.02-.38-.09-.61-.46-.52-.84.28-1.21.58-2.44.9-3.65.1-.37.48-.6.85-.5.37.1.6.48.5.85-.31,1.2-.61,2.42-.89,3.62-.07.32-.36.54-.68.54Zm254.52-3.99c-.31,0-.59-.21-.68-.52-.32-1.2-.65-2.4-1-3.59-.11-.37.1-.76.47-.87.37-.11.76.1.87.47.35,1.19.69,2.41,1.01,3.62.1.37-.12.76-.5.86-.06.02-.12.02-.18.02Zm-252.62-3.25c-.07,0-.13,0-.2-.03-.37-.11-.58-.5-.48-.87.35-1.19.72-2.4,1.11-3.6.12-.37.51-.57.88-.45.37.12.57.51.45.88-.38,1.18-.75,2.38-1.09,3.56-.09.31-.37.5-.67.5Zm250.51-3.93c-.29,0-.57-.19-.67-.48-.38-1.17-.79-2.36-1.21-3.52-.13-.36.06-.76.42-.9.36-.13.76.06.9.42.42,1.18.83,2.37,1.22,3.56.12.37-.08.76-.45.88-.07.02-.15.03-.22.03Zm-248.2-3.2c-.08,0-.16-.01-.23-.04-.36-.13-.55-.53-.42-.89.42-1.18.86-2.37,1.32-3.54.14-.36.54-.54.91-.4.36.14.54.55.4.91-.45,1.16-.89,2.33-1.3,3.5-.1.29-.37.47-.66.47Zm245.67-3.84c-.28,0-.54-.17-.65-.44-.45-1.14-.92-2.29-1.4-3.44-.15-.36.02-.77.37-.92.36-.15.77.02.92.37.49,1.15.97,2.32,1.42,3.47.14.36-.04.77-.4.91-.08.03-.17.05-.26.05Zm-242.95-3.16c-.09,0-.18-.02-.27-.06-.36-.15-.52-.56-.37-.92.49-1.15,1-2.32,1.52-3.45.16-.35.58-.51.93-.35.35.16.51.58.35.93-.51,1.13-1.02,2.28-1.5,3.42-.11.27-.37.43-.65.43Zm240.03-3.71c-.27,0-.52-.15-.64-.41-.51-1.12-1.05-2.24-1.6-3.35-.17-.35-.03-.77.32-.94.35-.17.77-.03.94.32.55,1.12,1.1,2.26,1.62,3.39.16.35,0,.77-.34.93-.09.04-.19.06-.29.06Zm-236.92-3.12c-.1,0-.21-.02-.31-.07-.35-.17-.49-.59-.32-.94.55-1.13,1.13-2.26,1.71-3.36.18-.34.6-.47.95-.29.34.18.47.6.29.95-.58,1.09-1.15,2.21-1.69,3.32-.12.25-.37.39-.63.39Zm233.61-3.58c-.25,0-.49-.13-.62-.37-.58-1.09-1.18-2.19-1.79-3.26-.19-.34-.07-.76.26-.95.33-.19.76-.07.95.26.61,1.08,1.22,2.19,1.81,3.29.18.34.05.77-.29.95-.1.06-.22.08-.33.08Zm-230.11-3.06c-.12,0-.24-.03-.34-.09-.34-.19-.46-.62-.26-.95.62-1.09,1.26-2.19,1.9-3.25.2-.33.63-.44.96-.24.33.2.44.63.24.96-.64,1.06-1.27,2.14-1.88,3.22-.13.23-.37.36-.61.36Zm226.42-3.44c-.24,0-.47-.12-.6-.34-.64-1.06-1.3-2.12-1.97-3.15-.21-.32-.12-.76.21-.97.32-.21.76-.12.97.21.67,1.04,1.34,2.12,1.99,3.18.2.33.09.76-.24.96-.11.07-.24.1-.36.1Zm-222.54-2.98c-.13,0-.26-.04-.38-.11-.32-.21-.42-.64-.21-.97.68-1.05,1.38-2.11,2.08-3.14.22-.32.65-.4.97-.18.32.22.4.65.18.97-.7,1.02-1.39,2.06-2.06,3.11-.13.21-.36.32-.59.32Zm218.49-3.3c-.22,0-.44-.11-.58-.3-.7-1.02-1.42-2.04-2.15-3.04-.23-.31-.16-.75.15-.98.31-.23.75-.16.98.15.74,1.01,1.47,2.04,2.17,3.07.22.32.14.75-.18.97-.12.08-.26.12-.4.12Zm-214.26-2.88c-.14,0-.29-.04-.41-.13-.31-.23-.38-.67-.15-.98.74-1.01,1.5-2.03,2.26-3.01.24-.31.68-.36.98-.13.31.24.36.68.13.98-.75.98-1.5,1.98-2.23,2.98-.14.19-.35.29-.57.29Zm209.85-3.16c-.21,0-.42-.09-.55-.27-.75-.97-1.53-1.95-2.32-2.91-.25-.3-.2-.74.1-.99.3-.24.74-.2.99.1.8.97,1.59,1.96,2.34,2.94.24.31.18.75-.13.98-.13.1-.28.15-.43.15Zm-205.27-2.77c-.16,0-.31-.05-.44-.16-.3-.24-.34-.69-.1-.98.79-.96,1.6-1.93,2.42-2.88.25-.29.69-.32.99-.07.29.25.32.69.07.99-.81.94-1.62,1.9-2.4,2.85-.14.17-.34.26-.54.26Zm200.53-3.01c-.2,0-.39-.08-.53-.24-.81-.93-1.64-1.87-2.48-2.77-.26-.28-.24-.73.04-.99s.73-.24.99.04c.85.92,1.69,1.86,2.51,2.8.25.29.22.73-.07.99-.13.12-.3.17-.46.17Zm-195.63-2.65c-.17,0-.34-.06-.47-.18-.28-.26-.3-.7-.04-.99.85-.92,1.72-1.84,2.58-2.74.27-.28.71-.28.99-.01.28.27.28.71.01.99-.86.88-1.72,1.79-2.56,2.71-.14.15-.33.23-.52.23Zm190.56-2.86c-.18,0-.36-.07-.5-.21-.87-.89-1.76-1.78-2.64-2.63-.28-.27-.28-.71-.02-.99.27-.28.71-.28.99-.02.89.86,1.78,1.76,2.66,2.66.27.28.26.72-.01.99-.14.13-.31.2-.49.2Zm-185.34-2.51c-.18,0-.36-.07-.5-.21-.27-.28-.26-.72.01-.99.89-.87,1.81-1.74,2.73-2.59.28-.26.73-.24.99.04.26.28.24.73-.04.99-.91.84-1.82,1.7-2.7,2.56-.14.13-.31.2-.49.2Zm179.97-2.7c-.17,0-.34-.06-.47-.18-.91-.83-1.84-1.66-2.78-2.48-.29-.25-.32-.69-.07-.99.25-.29.7-.33.99-.07.95.82,1.9,1.66,2.81,2.5.28.26.3.7.04.99-.14.15-.33.23-.52.23Zm-174.46-2.37c-.2,0-.39-.08-.53-.24-.25-.29-.22-.73.07-.99.94-.82,1.91-1.64,2.87-2.42.3-.25.74-.2.98.1.25.3.2.74-.1.98-.95.78-1.91,1.59-2.84,2.4-.13.11-.3.17-.46.17Zm168.8-2.54c-.16,0-.31-.05-.44-.16-.96-.78-1.94-1.56-2.92-2.32-.31-.24-.36-.68-.13-.98.24-.31.68-.36.98-.13.99.76,1.98,1.55,2.95,2.34.3.24.34.69.1.98-.14.17-.34.26-.54.26Zm-163.01-2.21c-.21,0-.42-.09-.55-.27-.24-.31-.18-.74.13-.98.99-.76,2-1.52,3.01-2.26.31-.23.75-.16.98.15.23.31.16.75-.15.98-1,.73-2,1.48-2.97,2.23-.13.1-.28.15-.43.15Zm157.08-2.37c-.14,0-.29-.04-.41-.13-.99-.72-2.02-1.44-3.05-2.15-.32-.22-.4-.65-.18-.97.22-.32.65-.4.97-.18,1.04.71,2.07,1.44,3.08,2.17.31.23.38.67.15.98-.14.19-.35.29-.57.29Zm-151.04-2.04c-.22,0-.44-.11-.58-.3-.22-.32-.14-.75.18-.97,1.03-.71,2.08-1.41,3.13-2.08.32-.21.76-.12.97.21.21.32.12.76-.21.97-1.04.67-2.08,1.36-3.1,2.06-.12.08-.26.12-.4.12Zm144.85-2.19c-.13,0-.26-.04-.38-.11-1.05-.67-2.11-1.34-3.17-1.97-.33-.2-.44-.63-.24-.96.2-.33.63-.44.96-.24,1.06.64,2.14,1.31,3.2,1.99.33.21.42.64.21.97-.13.21-.36.32-.59.32Zm-138.57-1.86c-.24,0-.47-.12-.6-.34-.2-.33-.09-.76.24-.96,1.07-.65,2.16-1.28,3.24-1.9.34-.19.76-.07.95.26.19.34.07.76-.26.95-1.07.61-2.15,1.24-3.21,1.88-.11.07-.24.1-.36.1Zm132.15-2.01c-.12,0-.23-.03-.34-.09-1.08-.61-2.18-1.21-3.27-1.79-.34-.18-.47-.6-.29-.95.18-.34.6-.47.95-.29,1.11.58,2.22,1.19,3.31,1.81.34.19.46.62.27.95-.13.23-.37.36-.61.36Zm-125.65-1.67c-.25,0-.49-.13-.62-.37-.18-.34-.05-.76.29-.95,1.11-.59,2.23-1.16,3.34-1.71.35-.17.77-.03.94.32.17.35.03.77-.32.94-1.1.54-2.21,1.11-3.31,1.69-.1.06-.22.08-.33.08Zm119.01-1.83c-.1,0-.21-.02-.31-.07-1.12-.55-2.25-1.09-3.37-1.6-.35-.16-.51-.58-.35-.93.16-.35.58-.51.93-.35,1.13.52,2.28,1.06,3.41,1.61.35.17.49.59.32.94-.12.25-.37.39-.63.39Zm-112.32-1.48c-.27,0-.52-.15-.64-.41-.16-.35,0-.77.34-.93,1.14-.52,2.29-1.03,3.43-1.51.36-.15.77.02.92.37.15.36-.02.77-.37.92-1.13.48-2.27.98-3.4,1.5-.09.04-.19.06-.29.06Zm105.49-1.63c-.09,0-.18-.02-.27-.06-1.15-.48-2.31-.95-3.46-1.4-.36-.14-.54-.55-.4-.91.14-.36.54-.54.91-.4,1.16.45,2.34.93,3.5,1.42.36.15.52.56.37.92-.11.27-.37.43-.65.43Zm-98.62-1.28c-.28,0-.54-.17-.65-.45-.14-.36.04-.77.4-.91,1.16-.46,2.35-.9,3.52-1.32.36-.13.76.06.89.42.13.36-.06.76-.42.89-1.16.42-2.34.86-3.49,1.31-.08.03-.17.05-.25.05Zm91.62-1.43c-.08,0-.16-.01-.23-.04-1.16-.41-2.35-.82-3.54-1.2-.37-.12-.57-.51-.45-.88.12-.37.51-.57.88-.45,1.2.39,2.41.8,3.58,1.21.36.13.55.53.42.89-.1.29-.37.47-.66.47Zm-84.58-1.09c-.29,0-.57-.19-.67-.48-.12-.37.08-.76.45-.88,1.19-.39,2.4-.76,3.59-1.12.37-.11.76.1.87.47.11.37-.1.76-.47.87-1.18.35-2.38.72-3.56,1.1-.07.02-.14.03-.22.03Zm77.44-1.21c-.06,0-.13,0-.2-.03-1.19-.35-2.4-.68-3.59-.99-.37-.1-.6-.48-.5-.85.1-.37.48-.6.85-.5,1.2.31,2.42.65,3.63,1,.37.11.58.5.48.87-.09.31-.37.5-.67.5Zm-70.26-.9c-.31,0-.59-.21-.68-.52-.1-.37.12-.76.5-.86,1.21-.32,2.44-.62,3.65-.91.38-.09.75.15.84.52.09.38-.15.75-.52.84-1.2.28-2.42.58-3.61.9-.06.02-.12.02-.18.02Zm63.02-.99c-.05,0-.1,0-.16-.02-1.2-.28-2.43-.54-3.64-.78-.38-.08-.62-.44-.55-.82s.44-.63.82-.55c1.22.24,2.46.51,3.68.79.38.09.61.46.52.84-.07.32-.36.54-.68.54Zm-55.73-.71c-.33,0-.62-.23-.68-.56-.08-.38.17-.75.55-.83,1.22-.25,2.46-.48,3.7-.7.38-.06.74.19.81.57.07.38-.19.74-.57.81-1.22.21-2.45.44-3.66.69-.05,0-.09.01-.14.01Zm48.39-.75s-.08,0-.12-.01c-1.21-.21-2.45-.4-3.68-.57-.38-.05-.65-.41-.6-.79.05-.38.41-.65.79-.6,1.24.17,2.49.37,3.72.58.38.06.64.43.57.81-.06.34-.35.58-.69.58Zm-41.01-.52c-.34,0-.64-.25-.69-.6-.06-.38.21-.74.59-.79,1.25-.18,2.5-.34,3.73-.48.39-.04.73.23.77.62.04.38-.23.73-.62.77-1.22.14-2.46.3-3.69.48-.03,0-.07,0-.1,0Zm33.6-.52s-.05,0-.08,0c-1.22-.14-2.47-.26-3.71-.36-.39-.03-.67-.37-.64-.76.03-.38.37-.66.76-.64,1.25.1,2.51.23,3.74.37.38.04.66.39.62.77-.04.36-.34.62-.69.62Zm-26.16-.33c-.36,0-.67-.28-.7-.64-.03-.39.25-.72.64-.76,1.26-.11,2.52-.2,3.75-.27.39-.02.72.27.74.66.02.39-.27.72-.66.74-1.22.07-2.47.16-3.71.27-.02,0-.04,0-.06,0Zm18.7-.29s-.03,0-.04,0c-1.24-.07-2.49-.12-3.72-.15-.39-.01-.69-.33-.68-.72.01-.39.33-.71.72-.68,1.24.03,2.51.08,3.76.15.39.02.68.35.66.74-.02.37-.33.66-.7.66Zm-11.23-.14c-.38,0-.69-.3-.7-.68-.01-.39.29-.71.68-.72,1.24-.04,2.51-.06,3.76-.06h0c.39,0,.7.31.7.7,0,.39-.31.7-.7.7-1.24,0-2.49.02-3.72.06,0,0-.01,0-.02,0Z" style="fill: #41c2d9;"/>
            <path d="m131.86,263.6c-.39,0-.7-.31-.7-.7s.31-.7.7-.7c1.23,0,2.48-.02,3.72-.05.38-.03.71.29.72.68.01.39-.29.71-.68.72-1.25.04-2.52.05-3.76.05Zm-3.74-.05s-.01,0-.02,0c-1.25-.03-2.51-.09-3.76-.16-.39-.02-.68-.35-.66-.74.02-.39.34-.68.74-.66,1.24.07,2.49.12,3.72.15.39.01.69.33.68.72-.01.38-.32.68-.7.68Zm11.23-.16c-.37,0-.68-.29-.7-.66-.02-.39.27-.72.66-.74,1.23-.07,2.48-.16,3.71-.26.37-.04.72.25.76.64.03.39-.25.72-.64.76-1.25.11-2.51.2-3.75.27-.01,0-.03,0-.04,0Zm-18.7-.25s-.04,0-.06,0c-1.24-.11-2.5-.23-3.74-.37-.38-.04-.66-.39-.62-.77.04-.38.39-.66.77-.62,1.23.14,2.47.26,3.71.36.39.03.67.37.64.76-.03.37-.34.64-.7.64Zm26.16-.38c-.35,0-.65-.26-.69-.62-.04-.38.23-.73.62-.77,1.23-.14,2.47-.3,3.69-.47.38-.06.74.21.79.59.06.38-.21.74-.59.79-1.24.18-2.49.34-3.73.48-.03,0-.05,0-.08,0Zm-33.6-.46s-.07,0-.1,0c-1.24-.18-2.49-.37-3.72-.58-.38-.07-.64-.43-.57-.81.07-.38.43-.64.81-.57,1.22.21,2.46.4,3.68.58.38.05.65.41.59.79-.05.35-.35.6-.69.6Zm41.01-.6c-.33,0-.63-.24-.69-.58-.07-.38.19-.74.57-.81,1.21-.21,2.44-.44,3.66-.68.37-.07.75.17.82.55.08.38-.17.75-.55.82-1.23.25-2.48.48-3.7.69-.04,0-.08.01-.12.01Zm-48.39-.66s-.09,0-.14-.01c-1.23-.25-2.47-.51-3.68-.79-.38-.09-.61-.46-.52-.84.09-.38.46-.61.84-.52,1.2.28,2.42.54,3.64.79.38.08.62.45.55.82-.07.33-.36.56-.69.56Zm55.72-.82c-.32,0-.61-.22-.68-.54-.09-.38.15-.75.52-.84,1.2-.28,2.41-.58,3.61-.89.38-.1.76.13.85.5.1.37-.13.76-.5.85-1.21.32-2.44.62-3.65.9-.05.01-.11.02-.16.02Zm-63.02-.87c-.06,0-.12,0-.18-.02-1.21-.32-2.43-.66-3.63-1-.37-.11-.58-.5-.47-.87.11-.37.5-.58.87-.47,1.18.35,2.39.68,3.59.99.37.1.6.48.5.85-.08.31-.37.52-.68.52Zm70.26-1.03c-.3,0-.58-.2-.67-.5-.11-.37.1-.76.47-.87,1.19-.35,2.39-.72,3.56-1.1.37-.12.76.08.88.45.12.37-.08.76-.45.88-1.18.38-2.39.76-3.6,1.11-.07.02-.13.03-.2.03Zm-77.44-1.07c-.07,0-.14-.01-.22-.03-1.19-.39-2.39-.79-3.58-1.22-.36-.13-.55-.53-.42-.89.13-.36.53-.55.89-.42,1.17.42,2.36.82,3.54,1.2.37.12.57.51.45.88-.1.3-.37.48-.67.48Zm84.56-1.25c-.29,0-.56-.18-.66-.46-.13-.36.06-.76.42-.89,1.16-.41,2.33-.85,3.49-1.3.36-.14.77.04.91.4.14.36-.04.77-.4.91-1.17.46-2.36.9-3.53,1.32-.08.03-.16.04-.24.04Zm-91.64-1.27c-.08,0-.17-.02-.25-.05-1.17-.45-2.34-.93-3.5-1.42-.36-.15-.52-.56-.37-.92.15-.36.56-.52.92-.37,1.14.48,2.31.96,3.46,1.4.36.14.54.55.4.91-.11.28-.37.45-.65.45Zm98.6-1.44c-.27,0-.53-.16-.65-.43-.15-.36.02-.77.37-.92,1.12-.48,2.27-.98,3.4-1.5.35-.16.77,0,.93.35.16.35,0,.77-.35.93-1.14.52-2.3,1.03-3.43,1.51-.09.04-.18.06-.27.06Zm-105.52-1.48c-.1,0-.2-.02-.29-.06-1.14-.52-2.28-1.06-3.41-1.62-.35-.17-.49-.59-.32-.94.17-.35.59-.49.94-.32,1.11.55,2.25,1.09,3.37,1.6.35.16.51.58.35.93-.12.26-.37.41-.64.41Zm112.3-1.63c-.26,0-.51-.14-.63-.39-.17-.35-.03-.77.32-.94,1.11-.54,2.22-1.11,3.31-1.69.34-.18.76-.05.95.29.18.34.05.76-.29.95-1.1.58-2.23,1.16-3.34,1.71-.1.05-.21.07-.31.07Zm-119.03-1.69c-.11,0-.22-.03-.33-.08-1.1-.58-2.21-1.19-3.31-1.81-.34-.19-.46-.62-.26-.95.19-.34.62-.45.95-.26,1.08.61,2.19,1.22,3.27,1.79.34.18.47.6.29.95-.13.24-.37.37-.62.37Zm125.64-1.8c-.24,0-.48-.13-.61-.35-.19-.34-.07-.76.26-.95,1.07-.61,2.15-1.24,3.21-1.88.33-.2.76-.09.96.24.2.33.09.76-.24.96-1.07.64-2.16,1.28-3.24,1.9-.11.06-.23.09-.34.09Zm-132.16-1.89c-.12,0-.25-.03-.36-.1-1.07-.64-2.14-1.31-3.2-1.99-.33-.21-.42-.64-.21-.97.21-.33.64-.42.97-.21,1.04.67,2.11,1.34,3.16,1.97.33.2.44.63.24.96-.13.22-.36.34-.6.34Zm138.56-1.97c-.23,0-.46-.11-.59-.32-.21-.33-.11-.76.21-.97,1.03-.66,2.07-1.35,3.1-2.06.32-.22.75-.14.97.18.22.32.14.75-.18.97-1.04.71-2.09,1.41-3.13,2.08-.12.08-.25.11-.38.11Zm-144.86-2.08c-.14,0-.27-.04-.39-.12-1.03-.7-2.06-1.43-3.08-2.17-.31-.23-.38-.66-.15-.98.23-.31.67-.38.98-.15,1.01.73,2.03,1.45,3.04,2.15.32.22.4.65.18.97-.14.2-.35.3-.58.3Zm151.03-2.14c-.22,0-.43-.1-.57-.29-.23-.31-.16-.75.15-.98,1-.73,2-1.48,2.98-2.23.31-.24.74-.18.98.13.24.31.18.75-.13.98-.99.76-2,1.52-3.01,2.25-.12.09-.27.13-.41.13Zm-157.09-2.27c-.15,0-.3-.05-.43-.15-.99-.76-1.98-1.55-2.95-2.34-.3-.24-.34-.69-.1-.98.24-.3.69-.34.98-.1.96.78,1.94,1.56,2.92,2.32.31.24.36.68.13.98-.14.18-.35.27-.55.27Zm163.01-2.3c-.2,0-.4-.09-.54-.26-.24-.3-.2-.74.1-.99.96-.78,1.92-1.59,2.85-2.4.29-.25.73-.22.99.07.25.29.22.73-.07.99-.94.82-1.91,1.63-2.88,2.42-.13.11-.29.16-.44.16Zm-168.8-2.45c-.16,0-.33-.06-.46-.17-.95-.82-1.89-1.66-2.81-2.51-.28-.26-.3-.7-.04-.99s.7-.3.99-.04c.91.83,1.84,1.67,2.78,2.48.29.25.32.69.07.99-.14.16-.33.24-.53.24Zm174.46-2.45c-.19,0-.38-.08-.52-.23-.26-.28-.24-.73.04-.99.91-.83,1.82-1.69,2.71-2.56.28-.27.72-.26.99.01.27.28.26.72-.01.99-.9.87-1.82,1.74-2.74,2.58-.13.12-.3.18-.47.18Zm-179.97-2.61c-.18,0-.35-.07-.49-.2-.89-.87-1.79-1.76-2.66-2.66-.27-.28-.26-.72.01-.99.28-.27.72-.26.99.01.86.89,1.75,1.77,2.63,2.63.28.27.28.71.01.99-.14.14-.32.21-.5.21Zm185.34-2.61c-.18,0-.35-.07-.49-.2-.28-.27-.28-.71-.01-.99.86-.89,1.72-1.8,2.56-2.7.26-.29.7-.3.99-.04.28.26.3.7.04.99-.85.92-1.71,1.84-2.59,2.73-.14.14-.32.21-.5.21Zm-190.56-2.76c-.19,0-.38-.08-.52-.23-.84-.91-1.68-1.86-2.5-2.81-.25-.29-.22-.73.07-.99.29-.25.73-.22.99.07.81.94,1.65,1.87,2.48,2.78.26.28.24.73-.04.99-.13.12-.3.18-.47.18Zm195.63-2.75c-.16,0-.33-.06-.46-.17-.29-.25-.32-.7-.07-.99.81-.93,1.62-1.89,2.4-2.85.25-.3.69-.34.98-.1.3.24.34.69.1.98-.79.97-1.61,1.93-2.43,2.88-.14.16-.33.24-.53.24Zm-200.53-2.9c-.2,0-.4-.09-.54-.26-.79-.97-1.58-1.96-2.34-2.94-.24-.31-.18-.75.13-.98.31-.24.75-.18.98.13.75.97,1.53,1.95,2.32,2.91.24.3.2.74-.1.99-.13.11-.29.16-.44.16Zm205.28-2.89c-.15,0-.3-.05-.43-.15-.31-.24-.36-.68-.13-.98.75-.97,1.51-1.98,2.24-2.98.23-.31.67-.38.98-.15.31.23.38.67.15.98-.74,1.01-1.5,2.03-2.26,3.01-.14.18-.34.27-.55.27Zm-209.85-3.03c-.22,0-.43-.1-.57-.29-.73-1-1.46-2.03-2.17-3.07-.22-.32-.14-.75.18-.97.32-.22.75-.14.97.18.7,1.02,1.42,2.05,2.15,3.04.23.31.16.75-.15.98-.12.09-.27.13-.41.13Zm214.26-3.03c-.14,0-.27-.04-.4-.12-.32-.22-.4-.65-.18-.97.7-1.02,1.39-2.06,2.06-3.1.21-.33.64-.42.97-.21.32.21.42.64.21.97-.68,1.05-1.38,2.11-2.09,3.14-.14.2-.35.3-.58.3Zm-218.48-3.14c-.23,0-.46-.11-.59-.32-.67-1.05-1.34-2.12-1.99-3.19-.2-.33-.09-.76.24-.96.33-.2.76-.09.96.24.64,1.06,1.3,2.12,1.97,3.15.21.32.12.76-.21.97-.12.08-.25.11-.38.11Zm222.54-3.16c-.12,0-.25-.03-.36-.1-.33-.2-.44-.63-.24-.96.64-1.06,1.27-2.14,1.88-3.22.19-.34.62-.45.95-.26.34.19.45.62.26.95-.62,1.09-1.26,2.18-1.9,3.25-.13.22-.36.34-.6.34Zm-226.41-3.23c-.24,0-.48-.13-.61-.35-.62-1.09-1.22-2.19-1.8-3.29-.18-.34-.05-.77.29-.95.34-.18.76-.05.95.29.58,1.09,1.18,2.18,1.78,3.26.19.34.07.76-.26.95-.11.06-.23.09-.34.09Zm230.11-3.29c-.11,0-.22-.03-.33-.08-.34-.18-.47-.6-.29-.95.58-1.1,1.15-2.22,1.7-3.32.17-.35.59-.49.94-.32.35.17.49.59.32.94-.55,1.12-1.13,2.25-1.72,3.36-.13.24-.37.37-.62.37Zm-233.6-3.31c-.26,0-.51-.14-.63-.39-.55-1.11-1.09-2.25-1.61-3.39-.16-.35,0-.77.34-.93.35-.16.77,0,.93.34.52,1.13,1.05,2.25,1.6,3.35.17.35.03.77-.32.94-.1.05-.21.07-.31.07Zm236.92-3.42c-.1,0-.2-.02-.29-.06-.35-.16-.51-.58-.35-.93.52-1.13,1.02-2.28,1.5-3.42.15-.36.56-.52.92-.37.36.15.52.56.37.92-.49,1.15-1,2.31-1.52,3.45-.12.26-.37.41-.64.41Zm-240.03-3.36c-.27,0-.53-.16-.64-.43-.49-1.14-.96-2.31-1.41-3.47-.14-.36.04-.77.4-.91.36-.14.77.04.91.4.45,1.15.92,2.3,1.4,3.44.15.36-.02.77-.37.92-.09.04-.18.06-.27.06Zm242.95-3.55c-.08,0-.17-.02-.25-.05-.36-.14-.54-.55-.4-.91.45-1.16.89-2.34,1.31-3.5.13-.36.53-.55.89-.42.36.13.55.53.42.89-.42,1.17-.86,2.36-1.32,3.54-.11.28-.37.45-.65.45Zm-245.67-3.41c-.29,0-.56-.18-.66-.46-.42-1.18-.83-2.38-1.22-3.56-.12-.37.08-.76.45-.88.37-.12.76.08.88.45.38,1.17.79,2.35,1.2,3.52.13.36-.06.76-.42.89-.08.03-.16.04-.24.04Zm248.2-3.66c-.07,0-.14-.01-.22-.03-.37-.12-.57-.51-.45-.88.38-1.17.75-2.37,1.1-3.56.11-.37.5-.58.87-.47.37.11.58.5.47.87-.35,1.2-.73,2.41-1.11,3.6-.1.3-.37.48-.67.48Zm-250.51-3.46c-.3,0-.58-.2-.67-.5-.35-1.2-.69-2.42-1.01-3.63-.1-.37.12-.76.5-.85.37-.1.76.13.85.5.31,1.19.65,2.4,1,3.59.11.37-.1.76-.47.87-.07.02-.13.03-.2.03Zm252.62-3.73c-.06,0-.12,0-.18-.02-.37-.1-.6-.48-.5-.85.31-1.19.61-2.41.89-3.61.09-.38.46-.61.84-.52.38.09.61.46.52.84-.28,1.22-.59,2.45-.9,3.65-.08.31-.37.52-.68.52Zm-254.52-3.51c-.32,0-.61-.22-.68-.54-.28-1.22-.55-2.46-.8-3.68-.08-.38.17-.75.55-.82.38-.08.75.17.82.55.24,1.21.51,2.43.79,3.64.09.38-.15.75-.52.84-.05.01-.11.02-.16.02Zm256.21-3.78s-.09,0-.14-.01c-.38-.08-.62-.45-.55-.82.24-1.21.47-2.44.68-3.66.07-.38.43-.64.81-.57.38.07.64.43.57.81-.21,1.23-.44,2.48-.69,3.7-.07.33-.36.56-.69.56ZM2.62,154.97c-.33,0-.63-.24-.69-.58-.21-1.24-.41-2.49-.59-3.72-.06-.38.21-.74.59-.79.38-.05.74.21.79.59.17,1.22.37,2.45.58,3.68.07.38-.19.74-.57.81-.04,0-.08,0-.12,0Zm258.97-3.82s-.07,0-.1,0c-.38-.05-.65-.41-.59-.79.17-1.23.33-2.47.47-3.69.04-.38.39-.66.77-.62.38.04.66.39.62.77-.14,1.23-.3,2.49-.48,3.73-.05.35-.35.6-.69.6ZM1.55,147.57c-.35,0-.65-.26-.69-.62-.14-1.25-.27-2.51-.37-3.74-.03-.39.25-.72.64-.76.39-.04.72.25.76.64.1,1.22.23,2.47.37,3.7.04.38-.23.73-.62.77-.03,0-.05,0-.08,0Zm260.87-3.85s-.04,0-.06,0c-.39-.03-.67-.37-.64-.76.1-1.24.19-2.49.26-3.71.02-.39.36-.66.74-.66.39.02.68.35.66.74-.07,1.24-.16,2.5-.26,3.75-.03.37-.34.64-.7.64ZM.92,140.11c-.37,0-.68-.29-.7-.66-.07-1.25-.13-2.51-.16-3.76-.01-.39.29-.71.68-.72,0,0,.01,0,.02,0,.38,0,.69.3.7.68.04,1.23.09,2.49.16,3.72.02.39-.27.72-.66.74-.01,0-.03,0-.04,0Zm261.93-3.86s-.01,0-.02,0c-.39-.01-.69-.33-.68-.72.03-1.24.05-2.49.05-3.72v-.25c0-.39.31-.7.7-.7s.7.31.7.7v.25c0,1.24-.02,2.51-.05,3.76-.01.38-.32.68-.7.68ZM.7,132.62c-.39,0-.7-.31-.7-.7v-.12c0-1.21.02-2.44.05-3.64.01-.39.34-.71.72-.68.39.01.69.33.68.72-.03,1.19-.05,2.4-.05,3.6v.12c0,.39-.31.7-.7.7Zm262.14-4.11c-.38,0-.69-.3-.7-.68-.04-1.23-.09-2.48-.16-3.72-.02-.39.27-.72.66-.74.38-.03.72.27.74.66.07,1.25.13,2.52.17,3.76.01.39-.29.71-.68.72,0,0-.01,0-.02,0ZM.9,125.14s-.03,0-.04,0c-.39-.02-.68-.35-.66-.74.07-1.24.16-2.51.26-3.75.03-.39.37-.66.76-.64.39.03.67.37.64.76-.1,1.23-.19,2.48-.26,3.71-.02.37-.33.66-.7.66Zm261.5-4.1c-.36,0-.66-.27-.7-.64-.11-1.24-.23-2.48-.37-3.7-.04-.38.23-.73.62-.78.39-.04.73.23.78.62.14,1.24.27,2.5.38,3.74.03.39-.25.72-.64.76-.02,0-.04,0-.06,0ZM1.53,117.68s-.05,0-.08,0c-.38-.04-.66-.39-.62-.77.14-1.24.3-2.5.47-3.73.05-.38.41-.65.79-.6.38.05.65.41.59.79-.17,1.22-.33,2.47-.47,3.69-.04.36-.34.62-.69.62Zm260.02-4.08c-.34,0-.64-.25-.69-.6-.18-1.23-.37-2.46-.58-3.68-.07-.38.19-.74.57-.81.38-.07.74.19.81.57.21,1.23.41,2.48.59,3.72.06.38-.21.74-.59.79-.03,0-.07,0-.1,0ZM2.58,110.27s-.08,0-.12-.01c-.38-.07-.64-.43-.57-.81.21-1.23.44-2.48.69-3.7.08-.38.45-.62.82-.55.38.08.62.44.55.82-.24,1.21-.47,2.44-.68,3.66-.06.34-.35.58-.69.58Zm257.69-4.04c-.33,0-.62-.23-.68-.56-.24-1.2-.51-2.43-.79-3.64-.09-.38.15-.75.52-.84.38-.09.75.15.84.52.29,1.22.56,2.46.8,3.68.08.38-.17.75-.55.83-.05,0-.09.01-.14.01ZM4.05,102.93c-.05,0-.1,0-.16-.02-.38-.09-.61-.46-.52-.84.28-1.21.58-2.44.9-3.65.1-.37.48-.6.85-.5.37.1.6.48.5.85-.31,1.2-.61,2.42-.89,3.62-.07.32-.36.54-.68.54Zm254.52-3.99c-.31,0-.59-.21-.68-.52-.32-1.2-.65-2.4-1-3.59-.11-.37.1-.76.47-.87.37-.11.76.1.87.47.35,1.19.69,2.41,1.01,3.62.1.37-.12.76-.5.86-.06.02-.12.02-.18.02Zm-252.62-3.25c-.07,0-.13,0-.2-.03-.37-.11-.58-.5-.48-.87.35-1.19.72-2.4,1.11-3.6.12-.37.51-.57.88-.45.37.12.57.51.45.88-.38,1.18-.75,2.38-1.09,3.56-.09.31-.37.5-.67.5Zm250.51-3.93c-.29,0-.57-.19-.67-.48-.38-1.17-.79-2.36-1.21-3.52-.13-.36.06-.76.42-.9.36-.13.76.06.9.42.42,1.18.83,2.37,1.22,3.56.12.37-.08.76-.45.88-.07.02-.15.03-.22.03Zm-248.2-3.2c-.08,0-.16-.01-.23-.04-.36-.13-.55-.53-.42-.89.42-1.18.86-2.37,1.32-3.54.14-.36.54-.54.91-.4.36.14.54.55.4.91-.45,1.16-.89,2.33-1.3,3.5-.1.29-.37.47-.66.47Zm245.67-3.84c-.28,0-.54-.17-.65-.44-.45-1.14-.92-2.29-1.4-3.44-.15-.36.02-.77.37-.92.36-.15.77.02.92.37.49,1.15.97,2.32,1.42,3.47.14.36-.04.77-.4.91-.08.03-.17.05-.26.05Zm-242.95-3.16c-.09,0-.18-.02-.27-.06-.36-.15-.52-.56-.37-.92.49-1.15,1-2.32,1.52-3.45.16-.35.58-.51.93-.35.35.16.51.58.35.93-.51,1.13-1.02,2.28-1.5,3.42-.11.27-.37.43-.65.43Zm240.03-3.71c-.27,0-.52-.15-.64-.41-.51-1.12-1.05-2.24-1.6-3.35-.17-.35-.03-.77.32-.94.35-.17.77-.03.94.32.55,1.12,1.1,2.26,1.62,3.39.16.35,0,.77-.34.93-.09.04-.19.06-.29.06Zm-236.92-3.12c-.1,0-.21-.02-.31-.07-.35-.17-.49-.59-.32-.94.55-1.13,1.13-2.26,1.71-3.36.18-.34.6-.47.95-.29.34.18.47.6.29.95-.58,1.09-1.15,2.21-1.69,3.32-.12.25-.37.39-.63.39Zm233.61-3.58c-.25,0-.49-.13-.62-.37-.58-1.09-1.18-2.19-1.79-3.26-.19-.34-.07-.76.26-.95.33-.19.76-.07.95.26.61,1.08,1.22,2.19,1.81,3.29.18.34.05.77-.29.95-.1.06-.22.08-.33.08Zm-230.11-3.06c-.12,0-.24-.03-.34-.09-.34-.19-.46-.62-.26-.95.62-1.09,1.26-2.19,1.9-3.25.2-.33.63-.44.96-.24.33.2.44.63.24.96-.64,1.06-1.27,2.14-1.88,3.22-.13.23-.37.36-.61.36Zm226.42-3.44c-.24,0-.47-.12-.6-.34-.64-1.06-1.3-2.12-1.97-3.15-.21-.32-.12-.76.21-.97.32-.21.76-.12.97.21.67,1.04,1.34,2.12,1.99,3.18.2.33.09.76-.24.96-.11.07-.24.1-.36.1Zm-222.54-2.98c-.13,0-.26-.04-.38-.11-.32-.21-.42-.64-.21-.97.68-1.05,1.38-2.11,2.08-3.14.22-.32.65-.4.97-.18.32.22.4.65.18.97-.7,1.02-1.39,2.06-2.06,3.11-.13.21-.36.32-.59.32Zm218.49-3.3c-.22,0-.44-.11-.58-.3-.7-1.02-1.42-2.04-2.15-3.04-.23-.31-.16-.75.15-.98.31-.23.75-.16.98.15.74,1.01,1.47,2.04,2.17,3.07.22.32.14.75-.18.97-.12.08-.26.12-.4.12Zm-214.26-2.88c-.14,0-.29-.04-.41-.13-.31-.23-.38-.67-.15-.98.74-1.01,1.5-2.03,2.26-3.01.24-.31.68-.36.98-.13.31.24.36.68.13.98-.75.98-1.5,1.98-2.23,2.98-.14.19-.35.29-.57.29Zm209.85-3.16c-.21,0-.42-.09-.55-.27-.75-.97-1.53-1.95-2.32-2.91-.25-.3-.2-.74.1-.99.3-.24.74-.2.99.1.8.97,1.59,1.96,2.34,2.94.24.31.18.75-.13.98-.13.1-.28.15-.43.15Zm-205.27-2.77c-.16,0-.31-.05-.44-.16-.3-.24-.34-.69-.1-.98.79-.96,1.6-1.93,2.42-2.88.25-.29.69-.32.99-.07.29.25.32.69.07.99-.81.94-1.62,1.9-2.4,2.85-.14.17-.34.26-.54.26Zm200.53-3.01c-.2,0-.39-.08-.53-.24-.81-.93-1.64-1.87-2.48-2.77-.26-.28-.24-.73.04-.99s.73-.24.99.04c.85.92,1.69,1.86,2.51,2.8.25.29.22.73-.07.99-.13.12-.3.17-.46.17Zm-195.63-2.65c-.17,0-.34-.06-.47-.18-.28-.26-.3-.7-.04-.99.85-.92,1.72-1.84,2.58-2.74.27-.28.71-.28.99-.01.28.27.28.71.01.99-.86.88-1.72,1.79-2.56,2.71-.14.15-.33.23-.52.23Zm190.56-2.86c-.18,0-.36-.07-.5-.21-.87-.89-1.76-1.78-2.64-2.63-.28-.27-.28-.71-.02-.99.27-.28.71-.28.99-.02.89.86,1.78,1.76,2.66,2.66.27.28.26.72-.01.99-.14.13-.31.2-.49.2Zm-185.34-2.51c-.18,0-.36-.07-.5-.21-.27-.28-.26-.72.01-.99.89-.87,1.81-1.74,2.73-2.59.28-.26.73-.24.99.04.26.28.24.73-.04.99-.91.84-1.82,1.7-2.7,2.56-.14.13-.31.2-.49.2Zm179.97-2.7c-.17,0-.34-.06-.47-.18-.91-.83-1.84-1.66-2.78-2.48-.29-.25-.32-.69-.07-.99.25-.29.7-.33.99-.07.95.82,1.9,1.66,2.81,2.5.28.26.3.7.04.99-.14.15-.33.23-.52.23Zm-174.46-2.37c-.2,0-.39-.08-.53-.24-.25-.29-.22-.73.07-.99.94-.82,1.91-1.64,2.87-2.42.3-.25.74-.2.98.1.25.3.2.74-.1.98-.95.78-1.91,1.59-2.84,2.4-.13.11-.3.17-.46.17Zm168.8-2.54c-.16,0-.31-.05-.44-.16-.96-.78-1.94-1.56-2.92-2.32-.31-.24-.36-.68-.13-.98.24-.31.68-.36.98-.13.99.76,1.98,1.55,2.95,2.34.3.24.34.69.1.98-.14.17-.34.26-.54.26Zm-163.01-2.21c-.21,0-.42-.09-.55-.27-.24-.31-.18-.74.13-.98.99-.76,2-1.52,3.01-2.26.31-.23.75-.16.98.15.23.31.16.75-.15.98-1,.73-2,1.48-2.97,2.23-.13.1-.28.15-.43.15Zm157.08-2.37c-.14,0-.29-.04-.41-.13-.99-.72-2.02-1.44-3.05-2.15-.32-.22-.4-.65-.18-.97.22-.32.65-.4.97-.18,1.04.71,2.07,1.44,3.08,2.17.31.23.38.67.15.98-.14.19-.35.29-.57.29Zm-151.04-2.04c-.22,0-.44-.11-.58-.3-.22-.32-.14-.75.18-.97,1.03-.71,2.08-1.41,3.13-2.08.32-.21.76-.12.97.21.21.32.12.76-.21.97-1.04.67-2.08,1.36-3.1,2.06-.12.08-.26.12-.4.12Zm144.85-2.19c-.13,0-.26-.04-.38-.11-1.05-.67-2.11-1.34-3.17-1.97-.33-.2-.44-.63-.24-.96.2-.33.63-.44.96-.24,1.06.64,2.14,1.31,3.2,1.99.33.21.42.64.21.97-.13.21-.36.32-.59.32Zm-138.57-1.86c-.24,0-.47-.12-.6-.34-.2-.33-.09-.76.24-.96,1.07-.65,2.16-1.28,3.24-1.9.34-.19.76-.07.95.26.19.34.07.76-.26.95-1.07.61-2.15,1.24-3.21,1.88-.11.07-.24.1-.36.1Zm132.15-2.01c-.12,0-.23-.03-.34-.09-1.08-.61-2.18-1.21-3.27-1.79-.34-.18-.47-.6-.29-.95.18-.34.6-.47.95-.29,1.11.58,2.22,1.19,3.31,1.81.34.19.46.62.27.95-.13.23-.37.36-.61.36Zm-125.65-1.67c-.25,0-.49-.13-.62-.37-.18-.34-.05-.76.29-.95,1.11-.59,2.23-1.16,3.34-1.71.35-.17.77-.03.94.32.17.35.03.77-.32.94-1.1.54-2.21,1.11-3.31,1.69-.1.06-.22.08-.33.08Zm119.01-1.83c-.1,0-.21-.02-.31-.07-1.12-.55-2.25-1.09-3.37-1.6-.35-.16-.51-.58-.35-.93.16-.35.58-.51.93-.35,1.13.52,2.28,1.06,3.41,1.61.35.17.49.59.32.94-.12.25-.37.39-.63.39Zm-112.32-1.48c-.27,0-.52-.15-.64-.41-.16-.35,0-.77.34-.93,1.14-.52,2.29-1.03,3.43-1.51.36-.15.77.02.92.37.15.36-.02.77-.37.92-1.13.48-2.27.98-3.4,1.5-.09.04-.19.06-.29.06Zm105.49-1.63c-.09,0-.18-.02-.27-.06-1.15-.48-2.31-.95-3.46-1.4-.36-.14-.54-.55-.4-.91.14-.36.54-.54.91-.4,1.16.45,2.34.93,3.5,1.42.36.15.52.56.37.92-.11.27-.37.43-.65.43Zm-98.62-1.28c-.28,0-.54-.17-.65-.45-.14-.36.04-.77.4-.91,1.16-.46,2.35-.9,3.52-1.32.36-.13.76.06.89.42.13.36-.06.76-.42.89-1.16.42-2.34.86-3.49,1.31-.08.03-.17.05-.25.05Zm91.62-1.43c-.08,0-.16-.01-.23-.04-1.16-.41-2.35-.82-3.54-1.2-.37-.12-.57-.51-.45-.88.12-.37.51-.57.88-.45,1.2.39,2.41.8,3.58,1.21.36.13.55.53.42.89-.1.29-.37.47-.66.47Zm-84.58-1.09c-.29,0-.57-.19-.67-.48-.12-.37.08-.76.45-.88,1.19-.39,2.4-.76,3.59-1.12.37-.11.76.1.87.47.11.37-.1.76-.47.87-1.18.35-2.38.72-3.56,1.1-.07.02-.14.03-.22.03Zm77.44-1.21c-.06,0-.13,0-.2-.03-1.19-.35-2.4-.68-3.59-.99-.37-.1-.6-.48-.5-.85.1-.37.48-.6.85-.5,1.2.31,2.42.65,3.63,1,.37.11.58.5.48.87-.09.31-.37.5-.67.5Zm-70.26-.9c-.31,0-.59-.21-.68-.52-.1-.37.12-.76.5-.86,1.21-.32,2.44-.62,3.65-.91.38-.09.75.15.84.52.09.38-.15.75-.52.84-1.2.28-2.42.58-3.61.9-.06.02-.12.02-.18.02Zm63.02-.99c-.05,0-.1,0-.16-.02-1.2-.28-2.43-.54-3.64-.78-.38-.08-.62-.44-.55-.82s.44-.63.82-.55c1.22.24,2.46.51,3.68.79.38.09.61.46.52.84-.07.32-.36.54-.68.54Zm-55.73-.71c-.33,0-.62-.23-.68-.56-.08-.38.17-.75.55-.83,1.22-.25,2.46-.48,3.7-.7.38-.06.74.19.81.57.07.38-.19.74-.57.81-1.22.21-2.45.44-3.66.69-.05,0-.09.01-.14.01Zm48.39-.75s-.08,0-.12-.01c-1.21-.21-2.45-.4-3.68-.57-.38-.05-.65-.41-.6-.79.05-.38.41-.65.79-.6,1.24.17,2.49.37,3.72.58.38.06.64.43.57.81-.06.34-.35.58-.69.58Zm-41.01-.52c-.34,0-.64-.25-.69-.6-.06-.38.21-.74.59-.79,1.25-.18,2.5-.34,3.73-.48.39-.04.73.23.77.62.04.38-.23.73-.62.77-1.22.14-2.46.3-3.69.48-.03,0-.07,0-.1,0Zm33.6-.52s-.05,0-.08,0c-1.22-.14-2.47-.26-3.71-.36-.39-.03-.67-.37-.64-.76.03-.38.37-.66.76-.64,1.25.1,2.51.23,3.74.37.38.04.66.39.62.77-.04.36-.34.62-.69.62Zm-26.16-.33c-.36,0-.67-.28-.7-.64-.03-.39.25-.72.64-.76,1.26-.11,2.52-.2,3.75-.27.39-.02.72.27.74.66.02.39-.27.72-.66.74-1.22.07-2.47.16-3.71.27-.02,0-.04,0-.06,0Zm18.7-.29s-.03,0-.04,0c-1.24-.07-2.49-.12-3.72-.15-.39-.01-.69-.33-.68-.72.01-.39.33-.71.72-.68,1.24.03,2.51.08,3.76.15.39.02.68.35.66.74-.02.37-.33.66-.7.66Zm-11.23-.14c-.38,0-.69-.3-.7-.68-.01-.39.29-.71.68-.72,1.24-.04,2.51-.06,3.76-.06h0c.39,0,.7.31.7.7,0,.39-.31.7-.7.7-1.24,0-2.49.02-3.72.06,0,0-.01,0-.02,0Z" style="fill: #41c2d9;"/>
          </g>
        </g>
      </g>
    </g>
  </g>
</svg>