<?xml version="1.0" encoding="UTF-8"?>
<svg id="uuid-71b8f074-c218-42ef-92fd-d2c719abf09c" data-name="圖層 2" xmlns="http://www.w3.org/2000/svg" width="100.03" height="85.52" viewBox="0 0 100.03 85.52">
  <g id="uuid-e41302e0-6337-4ef8-a7e6-14606145c0ac" data-name="圖層 6">
    <g id="uuid-b55b4c81-46a3-4776-b747-fefbb637ba0e" data-name="Lienchiang">
      <g>
        <text transform="translate(23.31 76.53)" style="fill: #fff; font-family: NotoSansTC-Bold, &apos;NotoSansTC Bold-90ms-RKSJ-H&apos;; font-size: 18px; font-weight: 700;"><tspan x="0" y="0">連江縣</tspan></text>
        <text transform="translate(23.31 76.53)" style="fill: #696969; font-family: NotoSansTC-Bold, &apos;NotoSansTC Bold-90ms-RKSJ-H&apos;; font-size: 18px; font-weight: 700;"><tspan x="0" y="0">連江縣</tspan></text>
      </g>
      <g>
        <g>
          <path d="m51.24,33.27h7l1-9,3-1,10-1h7.4l1.89-4.93-3.78-3.03-2.27-2.99-6.24-3.04-3,3s-3.48,3.07-4.74,3.03-5.29,0-5.29,0h-2.27l-1.13,2.99-.38,3.27-1.51,3.6s.32-.89.32,1.11v8Z" style="fill: #b3b3b3;"/>
          <path d="m31.74,36.77l3.11,1.32h2.08s1.31.18,1.31,1.18.5,4.96.5,4.96l3-.46s3,1,3,0-1.19-3.27-1.19-3.27h7.37l2.82.27v3s-2.82,2.54-2.82,2.54v3.21l-5.18,2.25-1,2-4,1h-3.24c-.76,0-2.26.5-2.26.5,0,0,.22.5-1.14-.5s-3.86-1.5-3.86-1.5l-2-1s-.5-.5-.5-1.5v-2l2.5-2.5s2-1,2-2-.5-4.5-.5-4.5v-3Z" style="fill: #b3b3b3;"/>
        </g>
        <g>
          <path d="m47.01,30.01h7l1-9,3-1,10-1h7.4l1.89-4.93-3.78-3.03-2.27-2.99-6.24-3.04-3,3s-3.48,3.07-4.74,3.03-5.29,0-5.29,0h-2.27l-1.13,2.99-.38,3.27-1.51,3.6s.32-.89.32,1.11v8Z" style="fill: #7dd1a7;"/>
          <g style="opacity: .85;">
            <g style="opacity: .85;">
              <path d="m48.78,28.91l-.08-.13v-.74s-.35-.51-.35-.51c-.04-.21-.08-.4-.12-.6-.08-.23-.03-.59-.03-1.05-.1-.69-.14-1.13-.25-1.51-.33.17-.1-1.37-.15-2.24-.12-.02-.24-.03-.35-.05.04-.43-.06-.74-.12-1.23,0-.02,0-.04-.02-.06-.1-.11-.23.01-.29.07-.02.02-.04.05-.05.05v-.06s0-.08,0-.12c.02-.17.06-.34.11-.52.06-.21.15-.42.23-.64.02-.11.03-.22.05-.32l.37-.63c.14-.56-.19-.32-.27-.51.16-.28.32-.56.49-.86.02-.08.04-.17.07-.26.06-.08.1-.15.16-.23.1.06.2.15.29.21l.12.44v.13c-.25.66-.26.81-.2.79.1.32.31-.25.55-.83.02-.13.03-.25.05-.36.05-.02.1-.08.15-.1l.05.53-.08.45c-.3.91.03.7-.42,1.52.03.06.07.14.1.2-.03.1-.06.2-.09.3-.02.08-.02.13-.03.2-.04.04-.08.09-.11.14-.06-.04-.12-.1-.17-.17-.01-.07-.07-.17.17-.61-.34.04-.46-.38-.45-.76-.22.19-.17.5-.36.82-.07.2-.15.42-.23.64-.01.03-.02.06-.03.09.17.05.22.06.26.08-.05.1-.09.21-.14.32-.02.04-.07.13-.07.13.01-.05.03-.11.06-.14.07-.02.1.06.11.09.06.15.08.27.1.38.02.14.04.27.07.45.22.1.16.48.17.63.33.72.42,1.63.41,2.74-.08.08-.11.51-.15.84.14.42.22.77.4.67.01-.11.03-.22.04-.3.02-.49.04-.99.06-1.47-.01-.18-.03-.4-.04-.59l-.22-.49c.14-.35.14-1.15.21-1.73.05-.21.11-.42.17-.66.14.54.08,1.1.08,1.71-.04.61-.07,1.19-.11,1.77.02.44.05.9.07,1.34.02.9.2,1.6.02,2.07-.03.26-.06.48-.09.73l-.14-.02Z" style="fill: #fff;"/>
              <path d="m48.32,25.89c.04-.33.07-.76.15-.84,0-1.11-.09-2.02-.41-2.74-.02-.15.04-.53-.17-.63-.03-.18-.05-.31-.07-.45-.02-.11-.04-.23-.1-.38-.02-.03-.05-.11-.11-.09-.03.03-.05.09-.06.14,0,0,.05-.09.07-.13.05-.11.1-.21.14-.32-.04-.01-.09-.03-.26-.08.01-.03.02-.06.03-.09.08-.22.16-.44.23-.64.19-.31.14-.63.36-.82,0,.39.11.81.45.76-.23.44-.18.54-.17.61.05.07.11.13.17.17l-.05.12-.17.38c-.04.09-.01.02.02-.03.03-.07.09-.02.1.03.02.08.03.16.03.24.08-.05.11.3.12.56.02.26.04.46.17.28-.07.59-.07,1.38-.21,1.73l.22.49c.01.2.03.41.04.59-.02.48-.04.98-.06,1.47-.01.09-.03.2-.04.3-.18.1-.26-.25-.4-.67Z" style="fill: #fff;"/>
              <path d="m48.78,21.97c-.13.18-.15-.02-.17-.28-.01-.26-.04-.61-.12-.56,0-.08-.01-.16-.03-.24,0-.06-.07-.1-.1-.03-.03.05-.05.12-.02.03l.17-.38.05-.12s.07-.09.11-.14c.01-.07.02-.12.03-.2.03-.1.06-.2.09-.3-.03-.06-.07-.14-.1-.2.45-.83.11-.61.42-1.52l.08-.45-.05-.53s-.1.08-.15.1c-.01.11-.03.23-.05.36-.24.58-.45,1.15-.55.83-.06.02-.05-.14.2-.79v-.13s-.12-.44-.12-.44c-.1-.06-.2-.16-.29-.21.02-.47.03-.9.04-1.38l.04-.27c-.01-.19-.01-.41-.02-.6.11-.14.21-.27.32-.39,0-.02.01-.05.02-.06.21-.37-.11-.28.04-.74.23-.42.47-.87.7-1.29.13-.42.28-.71.44-.95l-.04.03c.64.13,1.05.37,2.03.24l1.3.15c.59-.05,1.19-.1,1.78-.16l1.2.02c-.07.05.05.07.14.1.3,0,.44-.07.69-.14.24-.09.55-.04,1.13-.23.24-.08.48-.18.71-.29.44-.27.84-.56,1.25-.85.46-.32.88-.64,1.32-.98.07-.06.15-.12.24-.19.58-.41.29.06.62-.11.46-.33.91-.97,1.19-.93.33-.31.56-.51.83-.74.33-.4.39-.65.73-.91l.26-.25.35.17c.07.04.14.07.23.12.13-.12.49.11.67.24.27.12.56.25.82.36-.05.17.75.4.93.67.53.32,1.03.62,1.52.91.13.04.28.08.4.11.11.02.22.03.32.05.2.03.39.06.48.11.05.07.05.14,0,.21.12.21.26.36.45.59.2.24.42.51.59.83.32.49.66.99,1,1.49l.08.07c.28.17.57.35.86.53.21.18.45.37.67.55.21.15.42.31.6.45.4.19.97.52.75.62l.17.14c.22,0,.4.17.54.26-.01.05-.02.1,0,.11.05.06-.15.55-.33.71-.03.07-.06.15-.1.24-.08.25-.17.51-.26.77.05.09.02.25-.04.42-.06.16-.12.27-.18.36-.14.4-.29.8-.43,1.2-.05.14-.1.29-.15.44-.23,0-.47.01-.7.02.06.21-.95.13-1.43-.11-.17,0-.37,0-.54,0-.18.06-.33.12-.49.17-.43-.01-1.11.02-1.31-.1-.18,0-.4,0-.58,0-.51.13-.55-.02-.89-.01-.03,0-.09,0-.15,0l-.04.31c-.35.19-.61.04-.93-.05-.08-.01-.18-.02-.26-.02-.15,0-.22.04-.31.07-.01.35-1.04-.07-1.48.26-.43.05-.23-.27-1.01-.09-.23.35-1.69.27-2.52.3-.2.11-.41.22-.59.32-1.5-.11-2.31.49-3.78.66-.17.06-.36.12-.57.17-.65.05-1.13.47-1.77.52.04.14-.12.26-.36.37-.01.83-.42,2.16,0,2.32-.06.74-.28,1.63-.19,2.22-.25.35-.28.4-.29.52.03.29.16.17.25.22-.06.34-.11.67-.17,1.02-.14-.37-.22.37-.34.51.18.84-.25,1.39-.42,2.11-.15-.01-.29-.02-.44-.02-.72.07-.03.57-1.46.35-.54.22-.77.21-1.69.11-.39-.2-.97-.21-1.61-.34-.02-.07-.07-.14-.09-.23-.15-.04-.3-.09-.44-.14-.3-.27-.4-.47-.94-.59.04-.07.11-.15.15-.22.65-.04.82-.13,1.07-.13.17.1.37.22.54.32.34-.05.73-.11,1.07-.16h.83c.1-.08.21-.17.3-.25.07-.02.12-.03.19-.04.37.06.74.13,1.1.19.19.06.37.11.56.17.02-.02.05-.05.07-.09.06.07.11.13.2.24.07-.45.15-.92.22-1.36.07-.41.13-.78.2-1.19.07-.09.15-.21.22-.35-.04-.16-.08-.33-.12-.47,0-.38.19-.58.11-.89-.23.22-.06-.46-.01-1.36.06-.21.11-.41.16-.62-.03-.61-.14-.53-.18-.77l.03-.91c-.19.14-.1-.51-.12-.87.03-.11.05-.21.06-.31.61-.19.72-.45,1.53-.61.35-.16-.13-.18.24-.31.15-.05.27-.09.38-.12.14.03.27.07.44.1.15-.05.31-.1,1.01-.46,0,0,.01.01.02.02.08.07.14.15.18.23.33-.02.63-.03.96-.05.09-.04.19-.07.31-.11.59-.07,1.16-.13,1.75-.2-.1.36,1.14-.22,1.03.18l.28-.02c.04-.26-.23-.28-.11-.49.28,0,.58-.02.86-.03,0,.08,0,.18-.01.27.85.13.35-.25.9-.3.28.02.57.03.88.05.09.05.27.02.43,0,.28-.07.13-.16.16-.24l.74-.06c.52-.1.19-.27.59-.32.51.17.69.27,1.02.49l.22-.11c.18-.07.34-.14.48-.21.23-.08.59-.02.9-.04.14.1.37.19.26.36.12.02.27.04.42.05.17-.07.33-.15.46-.22.25,0,.49,0,.73.06.4-.01.8-.02,1.21-.03.38.04.76.07,1.12.11.29-.05.59-.11.89-.16.12-.01.23-.02.35-.03.06-.19.11-.38.17-.57l.33-.64c.11-.2.22-.42.37-.75.03-.06.05-.13.08-.21-.04-.01-.08-.03-.12-.04,0-.14,0-.26.02-.4.02-.16.07-.34.1-.5l.22-.55-.04-.03c-.1-.08-.2-.17-.32-.27-.22-.37-.37-.38-.47-.51-.25-.15-.28,0-.46-.09-.1-.08-.21-.18-.31-.26-.21-.32-.52-.6-.74-.78-.12-.1-.24-.19-.36-.28-.13-.1-.29-.24-.45-.38l-.06-.05-.57-.77c-.16-.09-.31-.17-.45-.24l-.64-.48-.31-.35c-.1-.11-.21-.24-.27-.28l-.16-.46-.02-.04c-.22-.14-.36-.24-.64-.41-.09-.09-.16-.15-.22-.22-.2-.04-.43-.08-.62-.11-.33-.12-.68-.24-1.01-.35-.03-.01-.08-.04-.14-.07-.06-.13-.14-.28-.23-.42-.08-.04-.17-.08-.28-.14-.31.03-.08.18-.15.23-.1-.02-.2-.04-.25-.03-.53-.26-.18-.48-.76-.64-.05.06-.09.12-.12.19l-.4-.21c-.07-.05-.13-.1-.19-.14-.14.09-.26.17-.39.25-.31.25-.6.49-.89.72-.16.39.27-.07.32.13-.11.35-.04.31,0,.3.17-.09.11-.25.24-.36.02,0,.05,0,.08-.01.05.1.1.19.15.3-.01.09-.02.17,0,.25,0,.02-.01.05-.02.08-.07.06-.11.08-.21.17-.14.13-.29.26-.43.39,0-.06-.08,0-.17.03-.32.22-.19.34-.58.68-.29.16-.57.31-.85.46-.56.32-.56.63-1.06.97-.14.1-.24.18-.38.27-.24.14-.46.28-.7.42-.22.17-.44.32-.78.53-.37.21-.78.41-1.21.56-.44.15-.91.18-1.37.19-.36,0-.72-.01-1.06-.02-.58.02-1.09-.27-1.57-.07-1.03-.08-2.36.13-2.92-.12-.45.1-1.18.08-1.81.12l1.93-1.33c-.06.21-.12.41-.14.58-.21.4-.41.78-.61,1.16-.07.2-.13.4-.2.61l-.13.39c0,.14-.04.74.03,1.02-.09.34-.17.67-.26,1.01-.02.16-.04.32-.06.48-.02.23-.04.44-.03.61-.01.07-.02.13-.03.2-.14.29-.26.56-.38.81-.08.17-.16.32-.23.44-.15.25-.28.4-.43.38-.02.08-.05.18-.08.31-.07.15-.14.32-.21.47,0,.02-.02.05-.03.08,0,.09-.02.17-.03.25v.15c-.04.06-.07.13-.11.21-.02.06.03-.05.06-.06.03-.04.08,0,.09.03h0c.02.06.03.11.04.16.01.04.02.09.04.25-.06.23-.12.45-.17.66Z" style="fill: #fff;"/>
              <path d="m48.52,12.59c.06-.19.12-.4.17-.57.12-.27.24-.53.37-.81l.14-.36.14-.36h.37s.05,0,.05,0c.54.08,1.03.16,1.6.24.06,0,.09,0,.15,0l1.5-.12c.19,0,.4,0,.59,0,.08.1.16.22.26.32.49,0,.98.01,1.47.07.11-.08.21-.15.31-.22.46-.03,1.2.09,1.34-.08.18-.17-.27-.2-.68-.19-.57.06-.51-.11-.71-.19.21-.06.4-.12.62-.18.39.02.84.04,1.21-.04.36-.1.61-.21.53.06.42-.22.91-.52,1.53-.87-.06-.05-.14-.08-.2-.13-.26.08-.95.63-.81.26.46-.28.92-.6,1.37-.94.26-.14.52-.28.76-.41-.04.16.22,0,.37.04.17-.18.34-.35.51-.53.13-.14.28-.35.45-.55.22-.41.11-.41.31-.8l.92-.9c.83-.59.16.34.37.45.08-.04.17-.09.28-.14.37-.41.74-.83,1.12-1.25.31.13.62.26.94.4.62.06,2.14,1.17,2.36.88.47.24,1.06.56,1.48.64.79-.08-.42-.53-.41-.71.32-.04.71.26.92.21.25.11.53.23.83.35.41.19.84.38,1.27.57.1.12.19.24.29.36.05.07.08.1.13.17.08.1.16.21.26.35.3.31.59.6.89.9.11.12.2.2.3.32.11.23.21.43.33.66.16.15.19.18.27.29.14.12.55.56.89.86-.12.04-.33,0-.57-.12-.12-.06-.25-.13-.39-.21-.09-.06-.19-.12-.27-.2-.05-.07-.09-.14-.13-.21-.16.22-.68-.82-1.02-1.06-.46.08.76,1.57.17,1.59-.62-.35-1.16-1.27-1.31-.94-.47-.52-.41-.88-.93-1.43-.02,0-.03-.01-.05-.02l-.17.17.07.03.55.75c.19.27.37.53.55.79.37.53.68.99,1.07,1.49.28.22.54.41.77.56-.34-.77,1.27.86.81.03-.25-.22-.51-.45-.78-.69.45.12.7.35.91.57.2.06.41.15.64.24.67.39,1.03.69,1.76,1.21.16-.09.59.24.99.56-.2.55-.4,1.08.1.57.42-.3-.27.78-.42,1.29-.11.06-.23.33-.36.66-.06.17-.13.35-.2.52-.05.14-.09.25-.15.37.01.25-.19.9.03.76.17-.48.24-.49.32-.53.04-.01.08-.05.12-.11.04-.06.08-.13.15-.34.01.25.53-.22.07.67.34-.19.2.41-.05,1.2-.25.8-.51,1.58-.55,2.03-.03.21-.09.47-.17.75-.73.07-1.83.06-2.83.05-.28.1-.67.17-1.15.22-.41.05-.79.09-1.17.13-.7.06-1.41.11-2.15.18l-.03.22s-.09,0-.12,0c-.39-.08-.66-.11-.87-.14-.14.12-.25.23-.36.35l-.24.15s-.09.05-.11.08v.08s0,0,0,0c-.02,0,.05,0-.05,0l-.24.02-.49.04c-.33-.14-.18-.26.09-.38.24-.11.77-.23.66-.32l.03-.03.18-.03c.12-.02.25-.04.38-.06.16-.07.33-.15.46-.22.3-.14,1.29.03,1.08-.26.73.05.85-.16,1.21-.26.27-.16-.37-.25-.7-.27-1.33.24-1.46-.38-2.5,0-.12-.02-.15-.03-.2-.05-.04-.02-.33,0-.54,0-.23.01-.46.02-.68.03-.44.02-.82.02-1.02-.06-.36-.1-.64-.09-.72-.26-.62.1-1.33.47-2.21.37-.4-.04-.29-.39-1.31-.24-.09.09-.19.19-.29.3-.68.13-1.19,0-.73-.21.18-.03.46,0,.74-.11-.14-.04-.31-.09-.45-.14-.44,0-.88.1-1.32.22-.22.06-.45.12-.66.17-.12.02-.23.05-.33.07-.07.02-.14.03-.22.04-.01-.05-.04-.09-.1-.12-.12-.06-.35-.04-.66.06-.22.22-.72.43-1.05.33-.16.08-.32.16-.48.25,0,.18.01.37.02.55.05.17.16.19.24.27-.05.25-.07.54-.08.83-.03.42-.07.86-.1,1.26-.04.45-.1.88-.18,1.26-.04.19-.09.37-.15.53-.06.18-.14.41-.22.57-.1.9.39-.09.17,1.14-.21,1.26-.55-.57-.69,1.57.17.18.2.21.24.25-.05.35-.09,1.1-.21,1.07,0,.02,0,.04,0,.06-1.25.04.06.45-1.57.29-.18.09-.33.17-.75.26-.59.01-1.16.02-1.7.03.05-.09.15-.18.19-.27-.26-.08-.52-.15-.77-.23-.45-.03-1.22.06-1.32-.11-.13-.16-.26-.33-.37-.49-.27-.08-.47-.16-.71-.23l-.43-.23c-.19,0-.4,0-.59,0,0-.02,0-.04,0-.05.04-.07.11-.15.18-.22.2-.11-.32-.13-.28-.23.18-.14.35-.27.52-.39.48.25.62.32.95.5,0,.04,0,.07-.01.09.15.05.3.1.44.14.02.08.07.15.09.23.64.13,1.22.14,1.61.34.92.09,1.15.11,1.69-.11,1.42.23.74-.27,1.46-.35.14,0,.29,0,.44.02.17-.72.61-1.27.42-2.11.11-.14.19-.87.34-.51.06-.36.11-.68.17-1.02-.09-.05-.22.07-.25-.22,0-.12.04-.18.29-.52-.09-.59.13-1.48.19-2.22-.42-.16-.02-1.49,0-2.32.24-.11.4-.23.36-.37.65-.05,1.13-.47,1.77-.52.21-.05.39-.11.57-.17,1.47-.17,2.28-.77,3.78-.66.19-.1.39-.21.59-.32.83-.04,2.29.04,2.52-.3.77-.18.58.14,1.01.09.44-.33,1.46.09,1.48-.26.09-.04.15-.08.31-.07.08,0,.18,0,.26.02.33.09.58.24.93.05l.04-.31c.06,0,.12,0,.15,0,.34,0,.38.14.89.01.18,0,.4,0,.58,0,.2.12.88.09,1.31.1.16-.05.31-.11.49-.17.17,0,.37,0,.54,0,.48.24,1.49.33,1.43.11.23,0,.47-.01.7-.02.05-.15.1-.29.15-.44.14-.4.29-.8.43-1.2.06-.09.12-.2.18-.36.06-.17.09-.32.04-.42.09-.26.17-.52.26-.77.04-.1.07-.17.1-.24.19-.16.38-.65.33-.71-.02-.01-.02-.06,0-.11-.15-.1-.32-.27-.54-.26l-.17-.14c.22-.1-.35-.43-.75-.62-.18-.14-.39-.29-.6-.45-.21-.18-.45-.37-.67-.55-.29-.18-.58-.36-.86-.53l-.08-.07c-.33-.5-.67-1.01-1-1.49-.17-.32-.39-.59-.59-.83-.19-.23-.33-.38-.45-.59.06-.07.06-.14,0-.21-.09-.05-.28-.08-.48-.11-.1-.01-.21-.03-.32-.05-.12-.03-.27-.06-.4-.11-.49-.29-1-.6-1.52-.91-.18-.27-.98-.49-.93-.67-.26-.12-.55-.24-.82-.36-.17-.13-.54-.37-.67-.24-.09-.05-.16-.08-.23-.12l-.35-.17-.26.25c-.35.26-.4.51-.73.91-.27.24-.5.44-.83.74-.28-.04-.73.6-1.19.93-.33.18-.04-.3-.62.11-.1.08-.17.13-.24.19-.44.35-.86.66-1.32.98-.41.29-.81.58-1.25.85-.24.1-.47.21-.71.29-.58.19-.89.15-1.13.23-.26.06-.4.14-.69.14-.09-.03-.21-.05-.14-.1l-1.2-.02c-.59.05-1.19.1-1.78.16l-1.3-.15c-.98.13-1.39-.11-2.03-.24l.04-.03c-.15.24-.3.53-.44.95-.23.42-.47.87-.7,1.29-.02,0-.02-.01-.04-.02l-.06-.69Z" style="fill: #fff;"/>
              <path d="m64.82,8.51s.02-.07.02-.08c0-.08,0-.16,0-.25-.05-.11-.1-.2-.15-.3-.03,0-.06.02-.08.01-.13.11-.07.27-.24.36-.05,0-.11.04,0-.3-.05-.2-.48.26-.32-.13.29-.24.58-.47.89-.72.13-.08.26-.16.39-.25.06.05.13.09.19.14l.4.21c.03-.07.07-.13.12-.19.58.16.24.38.76.64.05,0,.15.01.25.03.07-.05-.16-.2.15-.23.11.06.19.1.28.14.12.15.26.33.37.49.33.12.68.24,1.01.35.2.04.43.08.62.11.07.07.13.13.22.22.28.17.42.27.64.41l.02.04.16.46c.05.04.16.16.27.28l.31.35.64.48c.14.06.3.15.45.24l.57.77.06.05c.15.14.32.28.45.38.12.09.23.19.36.28.22.18.53.46.74.78.1.08.21.18.31.26.18.08.2-.06.46.09.1.13.25.15.47.51.12.1.22.18.32.27l.04.03-.22.55c-.03.16-.08.34-.1.5-.02.14-.02.26-.02.4.04.02.09.03.12.04-.03.08-.06.15-.08.21-.15.33-.26.55-.37.75l-.33.64c-.06.19-.11.38-.17.57-.11.01-.23.02-.35.03-.29.05-.59.11-.89.16-.36-.04-.74-.07-1.12-.11-.4.01-.81.02-1.21.03-.24-.05-.49-.05-.73-.06-.13.07-.3.15-.46.22-.15-.01-.3-.03-.42-.05.12-.17-.12-.25-.26-.36-.31.01-.67-.05-.9.04-.13.07-.29.14-.48.21l-.22.11c-.06,0-.09,0-.15.01-.08-.11-.17-.22-.26-.33-.12-.02-.4-.09-.61-.17-.4.05-.07.22-.59.32l-.74.06c-.03.08.12.17-.16.24-.15.01-.34.04-.43,0-.31-.02-.6-.04-.88-.05-.55.05-.05.43-.9.3,0-.09,0-.19.01-.27-.28,0-.58.02-.86.03-.13.21.15.23.11.49l-.28.02c.11-.4-1.14.17-1.03-.18-.58.07-1.16.13-1.75.2-.12.04-.22.08-.31.11-.33.02-.64.03-.96.05-.07,0-.13,0-.13-.01-.55.1-.65.12-.75.12-.71.31-.35,0-.76.01-.11.04-.23.07-.38.12-.37.13.11.15-.24.31-.81.17-.93.43-1.53.61-.01.1-.03.2-.06.31.02.36-.07,1.01.12.87l-.03.91c.04.24.15.16.18.77-.06.21-.11.41-.16.62-.05.9-.22,1.58.01,1.36.08.3-.11.51-.11.89.04.13.08.31.12.47-.07.13-.15.26-.22.35-.07.41-.13.78-.2,1.19-.07.44-.15.91-.22,1.36-.09-.11-.14-.17-.2-.24-.02.04-.05.07-.07.09-.19-.06-.37-.11-.56-.17-.03-.08-.05-.18-.09-.27.08,0,.16-.01.24-.02,0-.06,0-.12,0-.19,0-.39,0-.79,0-1.17l-.08-.05c.05-.29.1-.56.15-.85-.08-.04-.17-.1-.25-.14.02-.06.06-.24.09-.38.03-.14.06-.29.09-.42-.01-.29-.14-.13-.2-.21.01-.09.02-.18.04-.31.02-.12.03-.28.05-.43.04,0,.06.02.09.02.08.02.17.04.26.07,0,.19,0,.41.01.6l.39-.19c0-.58,0-1.04,0-1.45,0-.2-.02-.38-.03-.57-.01-.19-.04-.34-.08-.45.02-.84.17-1.88.24-2.7.47-.17.84-.32.99-.47-.62.16-.83.23-.99.28-.44-.07.07-.36,1.2-.67-.35-.08.12-.35.04-.43,1.08-.17,1.07-.48,2.14-.79l-.02-.23.38-.2.11-.03c.61-.04,1.24-.08,1.84-.12.71-.06,1.38-.12,2.09-.18.53-.02,1.07-.03,1.59-.05l.73.02c1.28.05.77-.25,1.48-.31.55,0,1.07,0,1.62,0,.18,0,.33,0,.47,0,.08,0,.15,0,.21,0,.1,0,.2-.01.3-.02.17,0,.32.01.46.02.1,0,.19.01.27.02.15.02.24.06.27.13.4-.18,1-.07,1.2-.17.56-.04,1.11-.03,1.67-.02.28,0,.57,0,.86,0,.19,0,.28,0,.42-.03.19-.02.41-.04.59-.07h.17s0,0,0,0c.06.03.11.06.17.06.12-.2.09-.33.08-.42.03-.12.03-.14.05-.22.05-.14.11-.29.17-.44l.1-.21c.05-.12.09-.23.14-.33-.05,0-.09-.03-.12-.04.05-.07.1-.13.15-.21-.01-.02-.03-.05-.04-.07-.09-.08-.19-.16-.28-.24-.19-.05-.36-.07-.52-.08l-.23-.15c.02-.06.06-.11.08-.17-.36-.18-.63-.39-.87-.6-.27-.26-.58-.55-.87-.82-.15-.23-.34-.5-.48-.69-.12-.15-.25-.31-.41-.46.25.07-.16-.5-.36-.64-.08-.12-.15-.24-.22-.37.05-.13.1-.27.14-.43-.13-.19-.17-.27-.23-.36l-.17-.28-.19-.12c-.26-.12-.5-.23-.74-.33-.39-.03-.79-.06-1.19-.09.11.13.2.24.31.36-.51-.11-.84-.28-1.15-.43-.12-.08-.23-.15-.36-.23-.11-.03-.27-.08-.34-.1h-.14c-.03-.06-.07-.11-.1-.16-.21-.06-.42-.13-.62-.19v-.02c-.11-.03-.22-.05-.34-.05-.14.13-.26.25-.4.38Z" style="fill: #fff;"/>
              <path d="m67.59,6.64c-.77-.75.37-.24.37-.06l-.37.06Z" style="fill: #fff;"/>
              <path d="m48.29,28.57c.02-.34.04-.71.06-1.04l.36.51v.74c-.09.11-.16.26-.24.4-.06-.21-.12-.4-.18-.61Z" style="fill: #fff;"/>
              <path d="m47.22,18.98c-.07-.08.03-.44.1-.79.02-.2.05-.43.08-.62.09-.13.18-.27.26-.4v-.02c0-.17,0-.36-.01-.53.07-.11.14-.19.21-.26.03.16.04.33.07.45.02.06.04.13.07.17-.02.09-.04.18-.07.26-.17.29-.33.57-.49.86.08.19.41-.04.27.51l-.37.63c-.05-.07-.09-.16-.13-.26Z" style="fill: #fff;"/>
              <path d="m47.32,14.22c.05-.14.09-.29.11-.46.26-.64.29-1.14.55-1.29.04.02.08.04.12.06-.04.31-.07.58-.14.97l-.11.36c-.01.17-.03.34-.04.51,0,.03-.01.1-.02.13-.1.13-.15.12-.19.11-.09-.12-.19-.23-.27-.39Z" style="fill: #fff;"/>
              <path d="m47.87,10.91c.09-.09.19-.14.27-.2l.14.25c-.04.18-.1.4-.13.59-.12.11-.24.21-.36.29-.19,0,.06-.63.08-.93Z" style="fill: #fff;"/>
              <path d="m48.78,11.06l.16-.3.32-.6.45.07c.12.02.25.04.38.06.48-.12.78-.07,1.06-.08.38-.01.77-.02,1.18-.03.31,0,.59,0,.9.01.25.02.48.04.74.06.34.03,1.28-.06,1.62.11.2.08.15.24.71.19.4-.01.86.02.68.19-.13.17-.87.04-1.34.08-.1.07-.21.14-.31.22-.49-.05-.98-.06-1.47-.07-.11-.1-.19-.22-.26-.32-.18,0-.4,0-.59,0l-1.5.12c-.06,0-.09,0-.15,0-.56-.09-1.06-.16-1.6-.24h-.05s-.37,0-.37,0l-.14.36-.14.36c-.12-.07-.2-.11-.28-.15Z" style="fill: #fff;"/>
              <path d="m52.64,7.93s.09.03.15.05c-.02.13-.04.27-.06.4-.25.02-.42.13-.76.08-.14-.14-.27-.27-.41-.41.48.05.61-.18,1.07-.13Z" style="fill: #fff;"/>
              <path d="m65.89,9.23s.12-.07.2-.09c0,0,.01,0,.02.01,0,0-.01.03-.02.04-.04.06-.07.12-.11.19-.07.11-.1.08-.11-.07,0-.07.01-.09.01-.1Z" style="fill: #fff;"/>
              <path d="m68.37,8.88c.36.17.44.05.67.04.04.03.08.07.12.1.24.11.48.22.74.33l.19.12.17.28c.05.09.09.17.23.36-.03.16-.08.29-.14.43-.07-.06-.15-.13-.23-.2-.08-.07-.17-.15-.19-.15l-.17-.25s0-.04,0-.06c-.06-.14-.21-.08-.31-.12-.02-.01-.03-.03-.05-.04-.04-.02-.07-.04-.1-.06-.07-.03-.12-.06-.17-.08-.09-.04-.16-.05-.2-.06-.09,0-.13.02-.25-.05-.14-.07-.25-.12-.39-.19-.11-.13-.2-.24-.31-.36.15,0,.28-.03.4-.05Z" style="fill: #fff;"/>
              <path d="m72.98,15.12c-.08.03-.15.07-.22.11-.13.06.04-.05.12-.2l.1.1Z" style="fill: #fff;"/>
              <path d="m73.22,15.28l-.12.28s0-.02,0-.03v-.11s0-.01.01-.02c-.02.05-.05.09-.07.15h0c-.07-.01-.14-.04-.2-.06-.05-.09-.08,0-.11-.14.02-.22.05-.12.06-.17,0-.02-.02-.04-.04-.08,0,.03.19.11.18.19l-.13.14c-.03.05,0-.04.02-.1.02-.06.04-.1.06-.14.05-.1.05-.02.09-.02.06.03.16.07.23.1.02,0,.05-.04.04,0Z" style="fill: #fff;"/>
              <path d="m73.35,15.67v-.05c.05.01.06.1.08.16-.09.08-.13.11-.16.13-.03-.01-.06-.02-.09-.04-.04,0-.07.02-.11.04-.11.02-.23.04-.34.06-.03-.01-.01-.02-.08-.03-.08,0-.15-.02-.21-.02-.13-.01-.24-.02-.33-.02-.18,0-.26.02-.26.07h-.74c0,.16-.59.05-.9.03-.65,0-1.29.02-1.92.02h-.43s-.32.03-.32.03c-.03,0-.1,0-.14.01l-.45-.19c-.34.1-.86.1-1.17.23-.06,0-.12.01-.15.01-.43.04-.89.08-1.32.12-.12.01-.21.02-.31.03-.39.02-.76.04-1.16.05-.14-.04-.29-.09-.45-.14.06-.08.13-.16.16-.24,1.04-.11,2.05-.21,3.1-.32.31-.03.58-.05.89-.08.41-.05.84-.09,1.29-.14.22,0,.46,0,.7,0,.45-.03.88-.05,1.34-.08.52,0,1.08.01,1.63.02.28-.13.5-.1.74-.04.12.03.24.06.38.07.12.02.06.02.09-.01.03.14.07.05.11.14.06.02.13.05.2.06h0c.03-.05.05-.1.07-.15,0,0,0,.02,0,.02v.11s-.01.05,0,.03l.12-.28c.04.15.07.31.14.39Z" style="fill: #fff;"/>
              <path d="m69.87,15.3c-.46.03-.89.05-1.34.08l.02-.14c.43.02.86.04,1.32.06Z" style="fill: #fff;"/>
              <path d="m66.54,15.52c-.31.03-.58.05-.89.08.28-.28.52-.13.89-.16v.08Z" style="fill: #fff;"/>
              <path d="m57.87,16.42l-.24.11c-.12.01-.24.03-.35.04-.86.3-1.71.59-2.52.86-.2.03-.38.07-.57.1,1.05-.57,1.69-.9,3.01-1.29.2-.01.43-.02.7-.04l-.03.23Z" style="fill: #fff;"/>
              <path d="m48.15,29.29c-.01-.46.02-.61.14-.72.06.21.12.4.18.61-.02.09-.04.18-.05.3-.09-.07-.18-.15-.27-.19Z" style="fill: #fff;"/>
              <path d="m47.4,17.57c-.03-.15-.01-.31.03-.46,0-.24.04-.46.11-.67.04.04.08.11.12.19,0,.17.01.36.02.53v.02c-.09.13-.18.27-.27.4Z" style="fill: #fff;"/>
              <path d="m52.64,7.93c.41-.28,1.07-.22,1.37-.16.08.08.17.15.28.23-.42.09-1.21.13-1.5-.02-.06-.02-.12-.03-.15-.05Z" style="fill: #fff;"/>
              <path d="m68.53,15.37c-.24,0-.48,0-.7,0-.45.05-.88.1-1.29.14v-.08c.04-.25.32-.22.44-.31.18-.02.3-.01.39,0,.14.01.29.02.45.04.11.02.26.04.4.05.09.01.19.02.33.02l-.02.14Z" style="fill: #fff;"/>
              <path d="m62.39,16.15c-.18.02-.4.03-.58.05-.4-.01-.76-.02-1.16-.03v-.14c.74-.09,1.33-.4,1.91-.12-.03.08-.1.16-.16.24Z" style="fill: #fff;"/>
              <path d="m58.87,16.33c-.31.03-.65.06-1,.09l.03-.23c.18,0,.24,0,.31,0h.23c.15,0,.29,0,.43,0v.14Z" style="fill: #fff;"/>
              <path d="m48.42,29.48c.01-.12.03-.21.05-.3.08-.14.14-.29.23-.4l.08.13c0,.31,0,.62-.01.89-.25.49-.34.17-.35-.33Z" style="fill: #fff;"/>
              <path d="m48.71,20.93c.03-.07.07-.15.09-.21v-.15c.02-.08.03-.17.04-.25.01-.03.03-.06.03-.08.07-.15.14-.32.21-.47.03-.12.06-.22.08-.31.15.02.29-.13.43-.38.07-.12.15-.27.23-.44.12-.25.24-.52.38-.81.01-.06.02-.13.03-.2,0-.17,0-.39.03-.61.02-.16.04-.32.06-.48.09-.34.17-.67.26-1.01.03-.02.07-.08.11-.13l-.11,1.49c.06.02.12.03.18.05l-.11,1.01-.45,1.1c-.24.28-.45.66-.68,1.12l-.22.5-.08.18c-.05.1-.11.13-.16.07-.07,0-.14-.12-.21-.02-.01-.03-.06-.08-.09-.03-.02,0-.07.12-.06.06Z" style="fill: #fff;"/>
              <path d="m47.54,16.43c.01-.09.02-.18.04-.31-.21-.37-.02-1.01.02-1.51.05.01.09.02.19-.11,0,.31.02.63.02.92.04.14.08.24.13.35-.02.18-.05.4-.07.58-.08.08-.14.15-.21.26-.04-.07-.08-.15-.12-.19Z" style="fill: #fff;"/>
              <path d="m48.18,14.3c.02-.11.05-.23.07-.35.11-.23.22-.46.33-.68.02,0,.02.01.04.02-.14.46.17.36-.04.74,0,.02-.01.04-.02.06-.11.12-.21.25-.32.39-.02-.07-.04-.15-.06-.19Z" style="fill: #fff;"/>
              <path d="m48.45,11.89c.04-.16.08-.29.13-.45.06-.12.13-.24.2-.38.08.04.16.09.28.15-.13.28-.25.54-.37.81-.11-.06-.17-.09-.24-.13Z" style="fill: #fff;"/>
              <path d="m55.14,12.27c.21-.17.07-.26.31-.22.78-.09.38.28.26.32-.18-.04-.39-.07-.57-.1Z" style="fill: #fff;"/>
              <path d="m56.57,12.56c-.15.18-.24.19-.34.22-.5.05-.31-.13-.38-.32.23.03.46.07.72.1Z" style="fill: #fff;"/>
              <path d="m57.8,12.37c-.16-.17.23-.34.88-.58-.06.08.17.03.34-.08.77-.35.54-.46,1.22-.9-.2-.12.13-.3.45-.53.23-.17.48-.36.71-.53.19-.17.39-.35.57-.51.09.03.19.07.27.13.08-.05.17-.11.27-.17l.2-.18c.08-.07.17-.15.24-.23l.36-.38c.78-.39-.63.79.16.41-.04.04-.1.12-.16.22-.07.11-.23.29-.33.38-.18.19-.36.32-.42.15-.14.09-.25.16-.37.24-.44.44-.24.4-.27.49-.65.55-.94.64-1.56,1.02-.13-.11-.47.08-.91.34-.49.29-1.15.64-1.64.7Z" style="fill: #fff;"/>
              <path d="m63.42,9.78c.4-.34.27-.46.58-.68.08-.04.16-.09.17-.03.15-.13.29-.26.43-.39.1-.09.14-.11.21-.17.21.18-.6.9-.93,1.15-.07.07-.13.13-.17.16-.16.17-.35.36-.51.54-.1.08-.18.15-.26.21-.27.14-.57.29-.85.44-.32.31-.39.18-.59.22.49-.34.5-.65,1.06-.97.28-.15.56-.31.85-.46Z" style="fill: #fff;"/>
              <path d="m68.67,9.49c.2-.05.33,0,.46.07.09.06.22.15.31.21.1.04.25-.02.31.12,0,.02,0,.04,0,.06h-.05c-.09.03-.17.05-.24.08l-.09-.05-.08-.02s-.13-.05-.2-.07c-.13-.14-.29-.28-.42-.41Z" style="fill: #fff;"/>
              <path d="m60.65,16.18c-.24.08-.5.16-.74.24-.22.02-.4.03-.58.05-.14-.04-.31-.09-.45-.14v-.14c.59-.05,1.2-.1,1.78-.16v.14Z" style="fill: #fff;"/>
              <path d="m57.09,17.66l.02.23c-1.07.31-1.06.62-2.14.79.08.08-.39.35-.04.43-1.13.31-1.64.6-1.2.67.16-.05.37-.12.99-.28-.15.15-.52.3-.99.47-.08.82-.23,1.86-.24,2.7.04.11.07.27.08.45,0,.19.02.38.03.57,0,.41,0,.88,0,1.45l-.39.19c0-.19,0-.41-.01-.6-.09-.02-.18-.05-.26-.07-.03,0-.05-.01-.09-.02-.02.15-.04.31-.05.43-.02.12-.03.21-.04.31.07.08.19-.08.2.21-.03.14-.06.28-.09.42-.03.14-.07.32-.09.38.08.04.17.1.25.14-.05.29-.1.56-.15.85l.08.05c0,.39,0,.79,0,1.17,0,.06,0,.13,0,.19-.08,0-.16.01-.24.02.04.09.06.19.09.27-.36-.06-.73-.13-1.1-.19-.07.02-.12.03-.19.04-.09.08-.2.17-.3.26h-.83c-.34.04-.73.1-1.07.15-.17-.1-.37-.22-.54-.32.04-.1.12-.2.2-.31-.25-.02-.5-.04-.73-.06-.05-.06-.11-.12-.13-.18-.19-.07-.37-.13-.56-.19.15-.08.32-.17.47-.26-.07-.17-.14-.33-.21-.5.12,0,.28,0,.43,0,.18.12.35.24.54.36l-.3.14.27.09c.31.02.59.04.89.06-.01.07.29.12.4.23.16-.04.33-.09.47-.12.11,0,.23,0,.33,0,.08-.1.14-.21.18-.31.03,0,.06,0,.08,0l-.06-.22c.08,0,.18,0,.26,0,.12.13.28.08.4-.08h.27s.03-.2.03-.2c.02-.13.04-.25.05-.36-.04-.15-.16-.16-.23-.23-.02-.02-.03-.06-.04-.08,0-.13-.02-.26-.04-.38.03-.38.06-.74.1-1.12.08-.55.16-1.07.25-1.61.03-.15.05-.29.08-.44.04-.24.07-.48.11-.72.06-.14.13-.28.18-.39.06-.39.13-.78.18-1.15.07-.05.14-.11.26-.32l-.07-1.34c-.09.08-.13-.05-.16-.25.15-.13.45-.3.23-.35.04-.02.13-.07.17-.1.36-.1.67-.19,1.01-.28.44-.08.81-.14,1.23-.21.6-.16,1.21-.33,1.81-.49Z" style="fill: #fff;"/>
              <path d="m48.75,29.02c-.25,0-.41.09-1.07.13-.7-.07-.22-.22-.23-.32.25-.05.45-.16.76-.17.23.02.48.04.73.06-.08.1-.15.2-.2.31Z" style="fill: #fff;"/>
              <path d="m47.81,15.42c0-.29-.02-.61-.02-.92,0-.03.01-.1.02-.13.13-.04.25-.07.38-.06.02.04.04.12.06.19,0,.19,0,.41.02.6l-.04.27-.28.4c-.05-.11-.09-.21-.13-.35Z" style="fill: #fff;"/>
              <path d="m50.6,16.89c0-.44,0-.92,0-1.36.03-.02.07-.08.11-.13l.11-.49.03-.12.02-.05.03-.1s-.03-.04-.05-.06c-.03-.07-.01-.14,0-.21.06-.16.12-.31.17-.43.13-.3.27-.61.42-.95.03-.19.08-.38.13-.59.1-.11.19-.22.28-.33l.08-.18-2.22,1.53c.18.01.36.02.54.03.34.02.71.04,1.04.06-.07.06-.14.12-.18.18-.28-.05-.57-.09-.88-.14.06.26.53.21.87.23,0,.05-.01.09-.02.13-.41.06-.8.11-1.2.17-.06,0-.12-.02-.17-.03l2.82-1.95c-.15.26-.28.51-.42.75l-.62,1.33c-.03-.18-.06-.37-.08-.53-.08.1-.16.23-.24.36-.04.14-.08.28-.12.43,0,.06-.01.11-.02.17h.02s.1.07.15.1c-.02,0-.09.46-.15.77l-.27,1.44c-.06-.02-.12-.03-.18-.05Z" style="fill: #fff;"/>
              <path d="m51.03,14.63c0-.06.01-.12.02-.17.04-.14.08-.28.12-.43.08-.13.16-.26.24-.36.03.16.05.35.08.53l-.19.36-.09.12-.02.05s-.1-.06-.15-.09h-.02Z" style="fill: #fff;"/>
              <path d="m50.24,13.55c.31.05.6.1.88.14.04-.06.11-.12.18-.18h1.02c.46.02.88.02,1.34.03.26.07.5.15.71.15.25-.02.46-.03.73-.04.5-.01,1.01-.02,1.52-.03.5,0,.9,0,1.32-.08.42-.06.81-.22,1.19-.39.09-.04.18-.09.23-.11,1.03-.37,1.07-.44,1.48-.69l-.06-.13.26-.18c.55-.29.77-.43.9-.42.17-.39.59-.64.84-.8.06-.09.13-.17.19-.27.08-.06.15-.12.26-.21.16-.17.34-.36.51-.54.03-.03.1-.1.17-.16.16-.04.31-.05.47-.08-.02.03-.05.09-.09.14l-.32.31c-.07.07-.16.14-.24.21l-.16.13c.03.06.06.1.1.16-.2.22-.44.47-.66.7-.12.07-.19.11-.29.17-.05.04-.08.06-.13.1-.84.91-1.19.87-1.78,1.25-.16.11-.33.22-.51.33-.2.12-.47.27-.72.4-.51.25-1.04.47-1.61.55-.34-.13-.6-.12-.88-.1-.13.01-.3.03-.48.04-.08.02-.17.03-.26.03-.34.01-.7.02-1.04.03-.93.13-1.75-.09-2.75-.08l-1.47-.02s.01-.08.02-.13c-.34-.02-.81.03-.87-.23Z" style="fill: #fff;"/>
              <path d="m65.59,8.42c-.01-.08-.02-.14-.03-.22.2.06.41.12.62.19.03.05.07.1.1.16.02.09.03.18.02.27.3.11.58.22.84.32.33.2.67.4,1.02.62.33,0,.89.26.92.16.06.02.17.07.2.07l.08.02.09.05.07.12s.02.09.02.13c.04.01.07.03.09.07.04.05.02.03.13.17.16.22.32.44.48.57.11.23.21.43.32.66.22.4.47.42.72,1.04l.18.24,1.28,1.05c.1.07.21.14.32.2.09.05.26.17.27.16,0,.03.02.06.03.09.12.04.23.08.35.13.02.05.04.11.05.16.12.03.25.06.4.11h0s-.25.26-.25.26c.06.09.03.23.05.25,0,.02,0,.05,0,.08,0,.03-.11.41-.06.37.04.04.01.21-.11.12-.11,0-.13.3-.21.32-.05-.03-.09-.07-.13-.16,0,0,.01,0,.01,0,.06-.25-.08-.31-.02-.39.02-.02.04-.04.06-.05l.02.02s.02,0,.02,0c-.04.1.09-.3.07-.35-.05-.02-.11-.03-.17-.02.06.01.17-.1.26-.16.03-.06.06-.12.06-.17-.06-.03-.14-.05-.24-.05,0,.05-.02.09-.04.13-.08.07-.16.12-.24.17-.19,0-.24.01-.29.02.03-.02.06-.04.08-.07,0-.04-.02-.08-.05-.12l-.1-.1v-.02s-.01,0-.08-.06c-.09-.08-.18-.16-.28-.24-.19-.16-.38-.33-.56-.5-.02-.02-.07-.06-.1-.08-.05-.03-.11-.06-.16-.09-.09-.06-.17-.12-.25-.17-.17-.12-.33-.24-.48-.34-.2-.24-.44-.53-.6-.75-.11-.14-.22-.29-.33-.45-.22-.32-.46-.7-.73-1.18l-.18-.26s-.01-.04-.02-.06l-.04-.11-.06-.06c.05-.03.11-.05.17-.07h.09s0-.12,0-.12l-.02-.09c-.08-.04-.11,0-.24,0-.21-.04-.42-.07-.65-.16-.33-.03-.8-.18-1.25-.38-.23-.1-.45-.22-.66-.33-.2-.12-.44-.26-.38-.28,0-.02,0-.05,0-.06-.02-.07-.04-.13-.06-.19-.07-.04-.13-.05-.17-.19-.06-.02-.11-.03-.16-.04l-.06-.03h0c-.01-.08-.02-.14-.03-.19,0-.03,0-.05-.01-.08Z" style="fill: #fff;"/>
              <path d="m73.4,16.43c-.12-.03-.22-.06-.34-.1-.06-.04-.1-.07-.16-.1-.03.03-.06.05-.09.09-.45,0-.88-.01-1.34-.02,0,.16-.56.02-.76.12-.56.01-.44-.16-.99-.19-.17.13-.18.18-.19.22-.34,0-.71,0-1.17-.01-.07.03-.12.05-.21.07-.11.02-.21.04-.29.05-.21.05-.37.08-.44.09-.09,0-.16,0-.22-.02-.06-.05-.12-.11-.15-.16-.89.01-1.35.11-1.78.25l-1.01.09c-.2-.03-.39-.06-.58-.09-.22.11-.41.21-.62.33-.18-.04-.39-.09-.57-.13-.18.02-.4.03-.74.06-.1.06-.18.1-.28.16-.71.06-1.38.12-2.09.18-.12-.15-.26-.3-.41-.46.25,0,.5-.01.73-.02.82.11,1.07-.06,1.17-.15.43-.12.64-.04.88.06.24-.05.48-.1.74-.16.34.02.7.03,1.04.05.29-.1.59-.2.9-.3.58-.01.73-.03,1.17-.24.03,0,.09,0,.15-.01.31-.13.83-.13,1.17-.23l.45.19s.1,0,.14-.01l.32-.03h.43c.62,0,1.26-.01,1.92-.02.3.02.91.13.9-.04h.74s.08-.06.26-.06c.09,0,.2.01.33.02.06,0,.14.02.21.02.07,0,.05.02.08.03.11-.02.23-.04.34-.06.02.06.05.12.08.18.07.03.14.06.21.09.02.09.03.18.04.27Z" style="fill: #fff;"/>
              <path d="m57.58,17.43l-.12-.02c-.29.02-.57.02-.89.04.37-.35.71-.56.23-.46-.85.2-.39.31-1.23.5-.27.07-.46.12-.73.19-.03-.09-.06-.17-.08-.26.8-.28,1.65-.57,2.52-.86.11-.01.23-.03.35-.04l.5.02.29.04c.2.03.4.05.59.08,0,.07,0,.12,0,.18.25,0,.5-.01.73-.02-.1.16-.19.32-.32.48-.59.04-1.23.08-1.84.12Z" style="fill: #fff;"/>
              <path d="m57.09,17.66c-.61.16-1.21.33-1.81.49.35-.2.67-.4,1.1-.63.05-.02.15-.05.2-.06.31-.03.59-.03.89-.04l.12.02-.11.03-.38.2Z" style="fill: #fff;"/>
              <path d="m52.87,18.75c.22.05-.08.22-.23.35.03.2.07.33.16.25l.07,1.34c-.12.21-.19.27-.26.32-.06.37-.12.76-.18,1.15-.05.11-.11.25-.18.39-.02-.34-.04-.73-.05-1.06.07-.85.14-1.69.21-2.57h0s.47-.17.47-.17Z" style="fill: #fff;"/>
              <path d="m51.79,26.88c.27.06.3.37.32.66-.04-.03-.09-.04-.14-.06l-.03.21h-.27c-.12.15-.28.2-.4.07-.08,0-.18,0-.26,0l.06.22s-.05,0-.08,0c-.1-.03-.2-.06-.29-.1,0-.07-.01-.14-.02-.22.14-.12.35-.16.59-.16.06-.05.11-.11.15-.17l.28.1s.07-.07.11-.11c0-.14-.02-.29-.02-.43Z" style="fill: #fff;"/>
              <path d="m52.42,27.52c.1.23.03.43.01.62-.08-.1-.16-.18-.24-.28.01-.07.02-.13.03-.2.07-.03.14-.09.2-.14Z" style="fill: #fff;"/>
              <path d="m50.47,28.29c-.14.04-.3.08-.47.12-.11-.1-.41-.15-.4-.23-.3-.02-.58-.04-.89-.06l-.27-.09.3-.14c-.18-.12-.35-.24-.54-.36.25-.01.49-.02.75-.04.08.09.16.18.27.27.28,0,.58,0,.86.01.13.08.32.15.4.23,0,.08-.01.18-.02.27Z" style="fill: #fff;"/>
              <path d="m47.94,16.81c-.03-.12-.05-.29-.07-.45.02-.18.05-.4.07-.58l.28-.4c-.02.47-.03.9-.04,1.38-.06.08-.1.15-.16.23-.03-.04-.05-.11-.07-.17Z" style="fill: #fff;"/>
              <path d="m47.96,13.5c.07-.39.1-.66.14-.97.13-.23.24-.43.35-.64.07.04.13.07.24.13-.05.17-.12.38-.17.57l.06.69c-.11.22-.22.45-.33.68-.02.12-.05.23-.07.35-.12,0-.25.03-.38.06.01-.17.03-.34.04-.51l.11-.36Z" style="fill: #fff;"/>
              <path d="m53.65,13.55c.2-.12.59-.07,1.01-.07.45-.05,1.03,0,1.6.02.16,0,.32,0,.47.01.27,0,.49,0,.69-.03.21,0,.39-.08.57-.1.17-.05.33-.13.46-.2.81-.38.2.11.9-.13.65-.31,1.02-.57,1.42-.82l.06.13c-.25.13-.47.25-.73.37-.27.14-.64.3-.98.43-.38.16-.78.33-1.19.39-.42.09-.82.08-1.32.08-.51.01-1.02.02-1.52.03-.27,0-.49.02-.73.04-.21,0-.44-.08-.71-.15Z" style="fill: #fff;"/>
              <path d="m61.14,11.5c.14-.1.25-.18.38-.27.2-.04.28.09.59-.22.28-.14.58-.3.85-.44-.06.09-.12.18-.19.27-.52.47-.62.65-.84.8-.12-.02-.35.12-.9.42,0-.21-.37-.15.1-.56Z" style="fill: #fff;"/>
              <path d="m64.82,8.51s.02-.07.02-.08c.13-.11.26-.2.38-.29.12,0,.23.02.33.05v.02c.02.08.03.14.04.22h0c-.19.19-.39.39-.58.58-.22.19-.42.38-.64.57-.17.03-.31.04-.47.08.32-.25,1.13-.96.93-1.15Z" style="fill: #fff;"/>
              <path d="m66.77,8.64c.13.09.24.16.36.23.3.15.63.32,1.15.43.14.07.25.12.39.19.13.13.29.27.42.41-.03.1-.6-.15-.92-.16-.35-.21-.69-.42-1.02-.62-.26-.1-.54-.2-.84-.32,0-.09,0-.17-.02-.27h.14c.08.01.23.06.34.09Z" style="fill: #fff;"/>
              <path d="m69.74,9.96l.17.25s.11.08.19.15c.08.07.16.14.23.2.08.12.15.24.22.37.19.14.61.71.36.64.16.15.3.31.41.46.14.19.34.46.48.69.29.27.6.56.87.82.23.21.51.41.87.6-.02.06-.05.11-.08.17l.23.15c.15-.03.33,0,.42,0,.03.03.06.05.1.08.09.08.19.16.28.24.01.03.03.05.04.07-.05.07-.1.14-.15.21.03.02.07.04.12.04-.04.1-.09.22-.14.33l-.1.21c-.06.15-.12.3-.17.44-.03.08-.02.1-.05.22.01.1.03.22-.08.42-.06,0-.11-.03-.17-.06h0s-.17,0-.17,0c-.18.03-.4.05-.59.07-.14.02-.23.03-.42.03-.29,0-.58,0-.86,0-.56,0-1.11-.02-1.67.02-.2.1-.8-.01-1.2.17-.03-.07-.12-.11-.27-.13-.07-.01-.16-.02-.27-.02-.14,0-.29-.01-.46-.02-.09,0-.19.01-.3.02-.07,0-.14,0-.21,0-.14,0-.29,0-.47,0-.55,0-1.07,0-1.62,0-.7.05-.2.35-1.48.31l-.73-.02c-.52.01-1.06.03-1.59.05.1-.06.18-.1.28-.16.34-.03.55-.05.74-.06.18.04.39.09.57.13.22-.11.41-.21.62-.33.19.03.38.06.58.09l1.01-.09c.43-.14.89-.24,1.78-.25.03.05.09.11.15.16.05.02.12.03.22.02.07,0,.23-.04.44-.09.08-.01.18-.03.29-.05.09-.02.13-.04.21-.07.46,0,.83.01,1.17.01,0-.05.01-.09.19-.22.55.03.44.2.99.19.2-.1.77.04.76-.12.45,0,.88.01,1.34.02.03-.04.05-.06.09-.09.05.03.1.06.16.1.12.03.22.06.34.1,0-.08-.02-.17-.04-.27h.08c.04.09.08.14.13.16.08-.02.1-.31.21-.32.12.09.15-.08.11-.12-.05.03.07-.34.06-.37,0-.03,0-.05,0-.08-.02-.01.01-.16-.05-.25l.25-.25h0c-.14-.06-.27-.09-.4-.12-.01-.05-.03-.1-.05-.16-.12-.04-.22-.08-.35-.13-.01-.02-.02-.06-.03-.09,0,.02-.18-.1-.27-.16-.11-.07-.21-.14-.32-.2l-1.28-1.05-.18-.24c-.25-.62-.5-.64-.72-1.04-.11-.23-.21-.43-.32-.66-.16-.14-.32-.36-.48-.57-.1-.14-.09-.12-.13-.17-.03-.03-.06-.06-.09-.07,0-.04-.02-.08-.02-.13l-.07-.12c.07-.03.15-.05.24-.08h.05Z" style="fill: #fff;"/>
              <path d="m73.23,12.63l.57.47c-.08.07-.16.15-.23.22-.05-.04-.07-.06-.12-.1l-.42-.4c.09-.08.14-.14.2-.19Z" style="fill: #fff;"/>
              <path d="m74.22,13.69c.09.22.18.33.07.35-.13-.11-.23-.2-.33-.34.08-.01.17-.02.26-.01Z" style="fill: #fff;"/>
              <path d="m74.57,16.59c.06.2-.07.38-.13.56l-.12.28h-.04s-.22-.23-.22-.23h.1c.05-.16.1-.31.15-.46.05-.12.15-.13.26-.15Z" style="fill: #fff;"/>
              <path d="m73.91,17.2l-.64.07c-.25-.08-.25-.15-.26-.23.3.03.54,0,.81-.02l.09.18Z" style="fill: #fff;"/>
              <path d="m63.52,17.95c-.15-.09-.3-.19-.45-.28.34-.03.71-.06,1.04-.09.42.09-.14.34-.59.37Z" style="fill: #fff;"/>
              <path d="m61.9,17.91c-.25,0-.5.01-.73.02-.05-.22.59-.33.89-.12-.06.03-.13.07-.16.11Z" style="fill: #fff;"/>
              <path d="m57.97,18.29c-.4.05-.13-.1-.22-.16.15-.04.32-.07.49-.09.13-.02.24-.02.36-.02.23,0,.42.04.51.08.12.13-.05.15-.3.16-.25,0-.53-.02-.84.03Z" style="fill: #fff;"/>
              <path d="m53.56,25.43c.13.19.03.57.08.78-.09.46-.18.67-.34.53-.02-.21-.05-.34-.05-.63l.31-.68Z" style="fill: #fff;"/>
              <path d="m56.35,13.98c.09,0,.18-.02.26-.03.17-.02.35-.03.48-.04.28-.01.54-.03.88.1-.3.02-.58.05-.88.03-.16,0-.32-.02-.48-.03l-.25-.03Z" style="fill: #fff;"/>
              <path d="m63.66,10.52l.39-.33.34-.33c.41-.5.56-.72.62-.86.19-.19.39-.39.58-.58h0s.01.1.01.1c0,.05.02.11.03.17h0s.06.03.06.03c0,.07.01.13.02.21l-.04.02c-.07.18-.09.24-.15.19l-.37.37-.65.65c-.06.07-.4.39-.52.49l-.39.33c-.31.32-.38.2-.59.24.22-.24.46-.49.66-.7Z" style="fill: #fff;"/>
              <path d="m63.56,10.36l.16-.13c.08-.07.16-.13.24-.21l.32-.31c.04-.05.07-.11.09-.14.22-.2.42-.38.64-.57-.05.14-.2.37-.62.86l-.34.33-.39.33c-.03-.06-.06-.1-.1-.16Z" style="fill: #fff;"/>
              <path d="m65.69,8.72c.05,0,.1.02.16.04.05.14.1.15.17.19.02.06.04.13.06.19-.08.02-.15.05-.2.09-.04-.09-.1-.19-.17-.3,0-.08-.01-.14-.02-.21Z" style="fill: #fff;"/>
              <path d="m68.38,10.19c.23.1.44.12.65.16.13,0,.17-.05.24,0l.02.09v.11s-.1.01-.1.01c-.06.02-.12.05-.17.07l-.03-.05-.02-.02-.11-.07c-.17-.1-.33-.2-.5-.3Z" style="fill: #fff;"/>
              <path d="m73.52,14.99c.1,0,.18.02.24.05,0,.05-.03.11-.06.17-.09.06-.2.18-.26.16.06,0,.12,0,.17.02.03.04-.1.45-.07.35,0,0,0,0-.02,0l-.02-.02s-.04.03-.06.05c-.03-.06-.03-.15-.07-.16v.05c-.08-.08-.1-.24-.14-.39.01-.05-.03,0-.04,0,0,.04.01.09.02.1l.04-.08c.08-.05.16-.1.24-.17.02-.04.03-.08.04-.13Z" style="fill: #fff;"/>
              <path d="m72.73,15.96s-.01-.02-.08-.03c-.08,0-.15-.02-.21-.02-.13-.01-.24-.02-.33-.02-.18,0-.26.02-.26.07,0-.05.08-.07.26-.07.09,0,.2.01.33.02.06,0,.14.02.21.02.07,0,.05.02.08.03Z" style="fill: #fff;"/>
              <path d="m65.79,16.08c.31-.13.83-.13,1.17-.23l.45.19-.45-.19c-.34.1-.86.1-1.17.23Z" style="fill: #fff;"/>
              <path d="m60.9,16.69c-.09.09-.35.26-1.17.15.4-.05.76-.1,1.17-.15Z" style="fill: #fff;"/>
              <path d="m56.37,17.52c-.28.06-.52.1-.76.15-.51.23-1.06.47-1.56.69-.33.09-.65.18-1.01.28-.04.03-.13.08-.17.1l-.47.15h0c-.14.43-.28.87-.43,1.32l-.06.49c-.05.69-.09,1.29-.13,1.89-.04.1-.07.14-.12.23l-.08.36-.07.21c-.05.14-.1.28-.15.43-.09-.15-.09-.36-.09-.59.01-.19.03-.37.04-.56.02-.21.03-.41.03-.6.08-.81.17-1.69.25-2.51.03-.29.07-.58.1-.81.06-.07.11-.14.16-.15,0-.05.02-.09.03-.15.29-.07.61-.15.9-.22.17-.13.29-.24.41-.37.31-.11.69-.25,1.01-.37.18-.03.37-.06.57-.1.03.09.06.17.08.26.27-.07.46-.12.73-.19.83-.19.37-.3,1.23-.5.48-.1.14.11-.23.46-.05.02-.15.05-.2.06Z" style="fill: #fff;"/>
              <path d="m52.78,18.26c-.29.07-.6.15-.9.22-.01.05-.02.1-.03.15-.05,0-.1.08-.16.15l.05-.41,1.45-.47c-.12.13-.24.24-.41.37Z" style="fill: #fff;"/>
              <path d="m52.4,18.91c.05.7-.11,1.57-.21,2.57.02.34.04.73.05,1.06-.04.24-.07.48-.11.72-.03.14-.05.29-.08.44-.08.54-.16,1.06-.25,1.61-.16-.13-.32-.27-.48-.44.01-.34.02-.67.03-1.03.05-.15.1-.29.15-.43l.07-.21.08-.36c.05-.1.08-.14.12-.23.04-.61.08-1.21.13-1.89l.06-.49c.15-.45.29-.89.43-1.31Z" style="fill: #fff;"/>
              <path d="m51.33,24.87c.16.17.32.3.48.44-.03.38-.07.74-.1,1.12.02.12.03.25.04.38-.05.04-.11.07-.16.09-.06.05-.22-.15-.33-.23-.08-.11-.07-.14-.07-.18.13,0,.25-.01.39-.07-.13-.09-.25-.16-.37-.22,0-.04,0-.02,0-.11l.04-.41c.03-.27.05-.54.08-.81Z" style="fill: #fff;"/>
              <path d="m51.58,26.42c-.13.06-.26.08-.39.07v-.29c.14.06.26.14.39.22Z" style="fill: #fff;"/>
              <path d="m51.79,26.88c0,.14.02.29.02.43-.03.04-.07.08-.11.11l-.28-.1c-.04-.14-.09-.27-.17-.4l-.03-.05c.01-.07.02-.14.04-.21.11.08.28.27.33.23.05-.02.1-.05.16-.09,0,.03.02.06.04.08Z" style="fill: #fff;"/>
              <path d="m50.8,28.29c-.1,0-.23,0-.33,0,0-.09.01-.19.02-.27.08-.04.14-.09.21-.13.09.04.2.07.29.1-.04.1-.1.21-.18.31Z" style="fill: #fff;"/>
              <path d="m51.42,27.33c.01.09-.07.07-.12.12-.01.02-.03.04-.03.04-.13.06-.29.11-.46.16-.05,0-.09,0-.13,0,0,.08.01.15.02.22-.07.04-.13.09-.21.13-.08-.08-.27-.15-.4-.23.07-.05.14-.09.17-.14-.23-.06-.46-.12-.72-.19-.19.01-.41.03-.59.04-.25.01-.49.02-.75.04-.15,0-.31,0-.43,0-.56-.22-.35-.35-.4-.45.35-.11,1.13.05,1.22-.16.46,0,.99.01,1.48.02.5,0,.43,0,.56.01.11-.09.14-.08.2-.08l.37.02h0s.03.04.03.04c.08.14.13.27.17.4Z" style="fill: #fff;"/>
              <path d="m50.09,27.79c-.28,0-.59,0-.86-.01-.11-.09-.19-.18-.27-.27.18-.01.4-.03.59-.04.26.07.48.13.72.19-.04.05-.11.09-.17.14Z" style="fill: #fff;"/>
              <path d="m61.81,16.21c.23.43-.93.31-.9.48-.4.05-.77.1-1.17.15-.23,0-.48.01-.73.02,0-.06,0-.11,0-.18-.19-.03-.39-.05-.59-.08l-.29-.04-.5-.02.24-.11c.34-.03.69-.06,1-.09.14.04.31.09.45.14.18-.02.37-.03.58-.05.24-.08.5-.16.74-.24.4.01.76.02,1.16.03Z" style="fill: #fff;"/>
              <path d="m50.59,15.54c-.08-.28-.03-.87-.03-1.02l.13-.39c.07-.2.13-.4.2-.61.2-.38.4-.76.61-1.16.03-.18.08-.38.14-.58l-1.93,1.33c.63-.04,1.36-.02,1.81-.12.56.25,1.89.04,2.92.12.49-.2.99.09,1.57.07.34,0,.7.01,1.06.02.46,0,.93-.04,1.37-.19.43-.15.84-.35,1.21-.56.34-.21.56-.36.78-.53.24-.14.46-.28.7-.42-.47.41-.09.35-.1.56l-.26.18c-.4.25-.76.5-1.42.82-.05.02-.14.06-.23.11-.45.18-.94.39-1.46.37-.47.05-1.18-.01-1.37-.03-.61-.05-1.18-.08-1.63-.02l-1.01.07c-.46,0-.88-.01-1.34-.02h-1.02c-.33-.03-.7-.05-1.04-.07-.17-.01-.36-.02-.54-.03l2.22-1.53-.08.18c-.1.11-.19.22-.28.33-.05.21-.1.4-.13.59-.15.34-.29.65-.42.95-.05.12-.11.28-.17.43-.02.07-.04.14,0,.21.01.02.03.04.05.06l-.03.1-.02.05-.03.12-.11.49c-.04.05-.08.1-.11.13Z" style="fill: #fff;"/>
              <path d="m51.03,14.63s-.02,0-.02,0c-.04,0-.08,0-.12.02.04-.01.08-.02.12-.02,0,0,.02,0,.02,0Z" style="fill: #fff;"/>
              <path d="m64.36,9.57s-.05.09-.09.14c.04-.05.07-.11.09-.14Z" style="fill: #fff;"/>
              <path d="m51.97,27.48s.09.03.14.06c-.04-.03-.09-.04-.14-.06Z" style="fill: #fff;"/>
              <path d="m69.29,10.55c.06-.11.56.54.84.92.15.21.3.42.45.62.08.1.15.19.23.3.12.14.25.29.39.46.06.09.12.19.18.29.16.16.33.32.48.47.11.1.22.2.33.3.09.08.18.17.27.25-.16.02-.31.04-.5.05-.02-.02-.07-.06-.1-.08l-.12-.13-.22-.2-.42-.4-.34-.54-.16-.25-.09-.16c-.16-.22-.35-.47-.51-.69-.2-.35-.41-.43-.61-.67-.21-.41-.1-.4-.11-.54Z" style="fill: #fff;"/>
              <path d="m73.43,15.77c-.06.08.09.14.02.39,0,0,0,0-.01,0h-.08c-.07-.03-.14-.06-.21-.1-.02-.06-.05-.12-.08-.18.04-.02.07-.03.11-.04.03.02.05.03.09.04.03-.02.07-.05.16-.13Z" style="fill: #fff;"/>
              <path d="m65.63,16.1c-.44.22-.59.23-1.17.24-.3.1-.6.2-.9.3-.34-.02-.7-.03-1.04-.05-.26.06-.5.11-.74.16-.24-.1-.45-.19-.88-.06-.02-.18,1.13-.05.9-.48.18-.02.4-.03.58-.05.16.05.31.09.45.14.4-.02.77-.04,1.16-.05.09,0,.18-.02.31-.03.43-.04.89-.08,1.32-.12Z" style="fill: #fff;"/>
              <path d="m65.79,16.08c-.06,0-.12.01-.15.01.03,0,.09,0,.15-.01Z" style="fill: #fff;"/>
              <path d="m56.37,17.52c-.43.23-.75.43-1.1.63-.42.07-.79.14-1.23.21.51-.23,1.06-.47,1.56-.69.24-.05.48-.09.76-.15Z" style="fill: #fff;"/>
              <path d="m56.57,17.46s-.15.05-.2.06c.05-.02.15-.05.2-.06Z" style="fill: #fff;"/>
              <path d="m51.75,26.8s.02.06.04.08c-.02-.02-.03-.06-.04-.08Z" style="fill: #fff;"/>
            </g>
          </g>
        </g>
        <g>
          <path d="m27.51,33.51l3.11,1.32h2.08s1.31.18,1.31,1.18.5,4.96.5,4.96l3-.46s3,1,3,0-1.19-3.27-1.19-3.27h7.37l2.82.27v3s-2.82,2.54-2.82,2.54v3.21l-5.18,2.25-1,2-4,1h-3.24c-.76,0-2.26.5-2.26.5,0,0,.22.5-1.14-.5s-3.86-1.5-3.86-1.5l-2-1s-.5-.5-.5-1.5v-2l2.5-2.5s2-1,2-2-.5-4.5-.5-4.5v-3Z" style="fill: #7dd1a7;"/>
          <g style="opacity: .85;">
            <g style="opacity: .85;">
              <path d="m25.75,34.5l.08.12v.66s.35.46.35.46c.04.19.08.37.12.56.03.08.04.18.04.29.02.11.04.28.05.4.01.12.03.25.05.39.19.6.27.98.42,1.31.31-.19.26,1.21.35,1.94.12,0,.24.01.36.02-.04.43.16.46-.18.85-.05.53-.49.92-.97,1.22-.04.04-.07.07-.09.1-.04.04-.07.08-.11.11l-.16.06c-.1.04-.18.12-.27.18l-.13.1c-.3.42.07.35.08.55-.31.24-.62.47-.94.72-.09.02-.17.04-.26.07-.05-.09-.08-.22-.13-.32l.16-.47c.38-.41.46-.57.4-.57,0-.38-.56.34-.89.62-.05-.01-.13,0-.18-.02.16-.27.24-.44.36-.67.21-.26.27-.4.32-.53.05-.12.09-.22.35-.47.07-.05.16-.12.28-.21,0-.03,0-.06.02-.1.01-.05.02-.1.03-.14l.26-.21c.14-.1.15-.13.23-.2.06-.02.13-.04.19-.06.02.08.02.17.01.26-.03.05-.04.13-.26.27-.08.06-.19.12-.31.19.16.06.2.2.18.34-.02.12-.06.3-.12.45-.02.05-.04.09-.05.13.04-.01.08-.03.11-.06.1-.06.16-.17.26-.25.09-.07.18-.14.3-.2.02,0,.03-.01.05-.02.2-.14.41-.29.6-.45-.09-.15-.12-.19-.14-.23.17-.13.34-.27.49-.37.15-.3.12-.31.06-.36-.21-.05-.17-.34-.2-.48-.37-.58-.56-1.36-.68-2.34.07-.08.05-.46.05-.76-.1-.18-.18-.32-.25-.46-.08-.15-.16-.22-.24-.15.01.16,0,.28,0,.35.04.44.07.87.11,1.3.03.15.07.34.1.51l.27.4c-.1.32-.02,1.03-.07,1.46-.02.07-.05.12-.08.18v.02s-.02,0-.02,0h0s0,0,0,0h1.12s0,0,0,0h0s0,0,0,0h0s-.06,0-.06,0c-.04,0-.06-.01-.11-.03.06.01.08.02.13.03h.05s0,0,0,0h0c1.12,0-1.52,0-1.25,0h0s0,0,0,0h0s0-.01,0-.01v-.05c-.02-.05-.03-.16-.04-.26-.02-.22-.04-.47-.05-.72-.03-.53-.05-1.04-.07-1.55-.07-.38-.15-.78-.22-1.16l-.11-.61c-.03-.34-.05-.67-.07-.92,0-.23,0-.43.08-.6.03-.24.06-.44.09-.65l.14.02Z" style="fill: #fff;"/>
              <path d="m26.31,37.39c0,.3.01.68-.05.76.12.98.3,1.76.68,2.34.03.14-.02.42.2.48.06.05.09.06-.06.36-.15.1-.32.24-.49.37.02.04.05.08.14.23-.2.16-.4.31-.6.45-.02,0-.04.02-.05.02-.12.06-.21.13-.3.2-.1.08-.16.19-.26.25-.03.02-.07.04-.11.06.02-.04.03-.08.05-.13.06-.15.1-.33.12-.45.02-.15-.02-.28-.18-.34.12-.06.23-.13.31-.19.22-.14.23-.22.26-.27,0-.09,0-.18-.01-.26.18-.12.32-.23.44-.34.06-.06.1-.1.13-.13,0-.01.02-.02.03-.04.01,0-.03-.01.03.02.07.04.14.07.21.1.02,0,.09.06.24.09.09.02.11.03.16.04.02,0,.05,0,.08,0h0s0,0,0,0c-1.7,0-.47,0-.85,0h0s0,0,0,0h0s0,0,0,0h0s0-.04,0-.04c-.01-.13-.05-.3-.17-.16.05-.43-.03-1.15.07-1.46l-.27-.4c-.03-.17-.07-.36-.1-.51-.04-.43-.07-.86-.11-1.3,0-.07,0-.19,0-.35.08-.07.16,0,.24.15.08.14.16.28.25.46Z" style="fill: #fff;"/>
              <path d="m26.24,40.81c.12-.14.16.03.17.16v.03s0,.01,0,.01h0s0,0,0,0h0c.38,0-.85,0,.85,0h0s-.05,0-.08,0c-.05,0-.07-.02-.16-.04-.15-.04-.21-.09-.24-.09-.07-.03-.14-.06-.21-.1-.06-.03-.01-.01-.03-.02-.01.01-.02.02-.03.04-.04.04-.07.08-.13.13-.12.11-.27.22-.44.34-.06.03-.12.05-.19.06-.08.07-.09.1-.23.2l-.26.21s-.02.09-.03.14c0,.04-.02.07-.02.1-.12.09-.21.16-.28.21-.26.25-.3.35-.35.47-.05.12-.11.27-.32.53-.12.23-.2.4-.36.67.05.01.13,0,.18.02.33-.29.9-1.01.89-.62.07,0-.02.16-.4.57l-.16.47c.04.1.08.22.13.32-.26.31-.49.59-.74.9l-.09.08v.11c.03.18.06.34.08.49-.09.1-.18.23-.28.36-.1.47.18.23.21.64-.07.42-.12.88,0,1.32.24.59.63.67.85.95.25.24.53.51,1.09.72.06.02.12.04.19.07.02.01.04.03.07.04.09.03.18.07.27.1.26.1.52.21.77.31.51.1,1.02.21,1.52.37.33.15.61.29.93.5-.08,0,.01.08.07.16.24.16.39.18.59.24.1.03.21.07.36.14.08.04.16.08.25.12.08.02.25.15.3.03-.04-.06.04-.06.09-.07l.16-.03.33-.06.26-.09c.37-.11.72-.2,1.05-.25.46-.05.94,0,1.44,0,.08,0,.17,0,.28,0,.63.06.17.24.49.31.43.04,1.17-.06,1.38.16h.1c.38-.07.78-.15,1.17-.23.53-.18.65-.35,1.14-.41.31-.07.6-.14.91-.22.09-.02.19-.04.31-.07.09-.18.5-.25.78-.28l.04-.05c.16-.35.34-.72.49-1.06.18.05.32-.58.54-.65.03-.05.06-.09.09-.14.37-.11.73-.22,1.08-.32.58-.36,1.02-.98,1.16-.68.22-.06.51-.21.81-.36.3-.15.62-.3,1.02-.41.46-.17.93-.34,1.39-.51.01-.18.02-.36.03-.53-.04-.37-.08-.77-.13-1.16,0-.24,0-.51.01-.75,0-.23-.02-.46-.03-.66-.03-.12-.06-.25-.08-.37.16-.22.36-.41.5-.32l.15-.13c-.08-.19.3-.38.29-.5-.01-.08.41-.44.66-.51.07-.06.15-.13.24-.21.25-.24.5-.48.76-.73,0-.06.03-.13.08-.2-.04-.24,0-.51.02-.68,0-.5-.02-1-.03-1.49,0-.35-.02-.71-.03-1.05v-.45s-.43-.03-.43-.03h-.14c-.07.2-.97.03-1.44-.26-.17-.02-.36-.04-.52-.06-.16.05-.31.09-.45.13-.09-.01-.19-.02-.29-.03-.4,0-.78,0-.92-.1-.17,0-.36,0-.53,0-.46.13-.5-.02-.8-.01-.03,0-.08,0-.14,0l-.04.31c-.39.24-.72-.07-1.13-.1-.15-.02-.21.02-.29.04.1.34-1.07-.17-1.37.11-.4,0-.41-.29-1.1-.19.02.16-.35.19-.84.17-.79-.2-.34.37-.39.61h0c.24.29.48.58.69.85.07.59.49,1.28.68,1.89.04.15.08.33-.06.5-.14.14-.33.22-.51.25-.37.07-.77.04-1.21-.08-.24-.12-.52-.17-.76-.22-.15-.03-.3-.06-.44-.1-.14-.02-.28.02-.42-.01,0,.02-.02.04-.03.06-.23.45-1.95.35-2.51.65l-.26.14-.25-.52c-.06-.12-.13-.19-.22-.2-.1-.66-.08-1.49-.29-1.99.17-.36.19-.41.18-.52-.09-.25-.19-.11-.28-.14-.02-.28-.02-.53-.02-.81.21.23.15-.36.23-.52-.09-.16-.13-.33-.13-.51,0-.09,0-.19.02-.28,0-.09.04-.12.04-.18.08-.22-.1-.6-.5-.74-.23-.06-.37.02-.44.1h.05c-.15.14-.28.27-.9.13-.43.2-.67.21-1.31.13-.05-.03-.11-.06-.17-.1-.14-.17-.35-.31-.59-.46-.22-.14-.46-.28-.69-.45.01-.08,0-.16.01-.24-.11-.09-.21-.18-.31-.28-.15-.35-.14-.57-.55-.87.06-.05.15-.1.21-.15.55.19.73.17.93.26.1.16.22.33.32.49.15.04.31.07.48.11.13.03.27.05.39.08l.27.12h.43c.12-.08.23-.18.39-.26.09-.02.16-.03.26-.04.28.05.56.09.83.14h.13c.22.06.34.12.51.19.26.17.46.35.7.63-.05.04-.09.08-.17.15.24.2.46.51.53.86.05.4.01.54.03.79,0,.4.03.79.04,1.2-.05.11-.1.24-.14.38.07.14.15.28.21.39.08.33-.07.55.08.8.18-.25.15.39.3,1.18,0,.17-.01.33-.02.51l-.46-.35h.04c.46-.17.35-.26.51-.34l.66-.18c-.2-.14.3-.2.51-.3.32,0,.6-.09.86-.18.17-.04.36-.1.59-.07.08.02.17.05.27.08.34.03.05-.19.35-.15h.04c.13.04.22.07.31.1.05.09.1.18.17.28.09.02.24.07.68,0,.02.09.05.18.05.28.11.02.2.02.29.04h.1s0-.05.06.06c.02.16.19.34.19.34,0,0,.02.01.03.01h0c-.22-.1.5.23-.5-.23h0s0,0,0,0h0s-.01,0-.01,0h-.02s-.09.02-.09.02c-.05-.03-.05-.16-.08-.23-.05-.17-.11-.35-.17-.52-.13-.35-.27-.69-.43-1.04.28.2.11-.14-.07-.48-.18-.34-.35-.67,0-.38l-.13-.28c-.47-.37-.4-.12-.82-.51-.03-.06-.05-.13-.08-.2.08-.11.15-.24.19-.35.12.1.25.2.38.31.03-.21.29-.12.2-.24-.04-.08-.14-.19.18-.18.36.05.72.09,1.12.14.15.06.34.05.51.05.27-.04.04-.15.02-.22h.84c.57-.04.11-.24.58-.25.69.22.91.34,1.31.59.18-.1.41-.2.63-.3.25-.08.69-.02.93-.04.13.1.34.19.23.36.11.02.25.04.38.05.15-.07.3-.15.42-.22.22,0,.44,0,.66.06h.38c.26,0,.52.03.78.04.39.08.79.15,1.16.22.3-.02.62-.03.93-.05l.64-.04.13.88.02.16c.03.38.05.74.08,1.1-.05.7-.1,1.4-.15,2.1l-.08.07c-.07.07-.15.13-.25.22.03.02.07.05.11.08-.12.16-.24.33-.39.52-.21.23-.39.43-.58.63-.17.15-.37.32-.56.49-.09.08-.18.16-.29.25-.43.19-.44.29-.57.38v.02c.04.27.16.22.21.4,0,.11,0,.25,0,.36-.06.13-.09.26-.11.38-.01.06-.02.1-.02.18,0,.12,0,.22,0,.32,0,.41.01.8-.01,1.23v.55s-.51.21-.51.21c-.11.12-.22.25-.3.37l-.7.54c-.33.17-.65.34-.99.52-.33.09-.53.12-.75.16-.34.11-.68.22-1,.32-.12,0-.2.01-.25,0-.08.09-.17.2-.26.3-.13.09-.27.19-.4.29l-.03.11s-.02.04-.04.07c-.1-.01-.21,0-.32.02-.03.05-.05.1-.09.17.07.24.17.11.22.17v.18c-.04.06-.06.11-.09.15-.06.11-.12.2-.17.28-.1.15-.18.23-.24.29-.13.12-.23.17-.41.53-.1.02-.22.06-.36.11-.04.09-.08.17-.09.25l-.9.22c-.49.07-1.03.16-1.31.18-.57.1-1.09.19-1.61.28-.64.32.48.03.35.24-.5.3-.47.31-.32.31.26-.03.35-.08.42-.13.08-.05.16-.11.3-.14.03.01.08,0,.14.01.01.1.03.2.04.32-.1.08-.17.16-.25.24-.03.02-.08.05-.13.08-.31.06-.6.12-.9.18-.22,0-.43-.01-.65-.02.07-.05-.1-.07-.17-.1-.32-.06-.4.1-.68.08-.24-.07-.51-.13-.78-.19-.52-.1-.75.14-1.16.11-.06,0-.11,0-.17,0-.08-.01-.26,0-.43.02-.23.07-.45.14-.68.21-.28.22-.61.21-.92.27l-.24.02s-.1,0-.1.01c.01.01.03.03.01.04-.12.03-.32-.03-.46-.07-.62-.2-1.2-.59-1.74-.97-.08-.06-.16-.11-.24-.17-.07-.04-.07-.06-.11-.09-.07-.06-.13-.12-.2-.18-.14-.12-.3-.21-.51-.18-.25-.13-.56-.23-.87-.31-.34-.09-.65-.17-.94-.25-.14-.05-.26-.1-.37-.15-.14-.07-.25-.14-.34-.22h-.01c-.77-.26-2.11-1-2.85-1.58-.31-.53-.46-1.09-.52-1.64-.15-.53-.15-1.2-.16-1.81-.01-.36-.03-.7-.04-1.06-.02-.37-.05-.7-.1-.99l.02-.04c.38-.31.75-.61,1.13-.93.28-.28.66-.64.78-.83.59-.49.97-.92,1.36-.98.04,0,.07,0,.09.02.09-.08.17-.18.29-.28l.39-.25.18-.1s.05-.03.09-.06c.12-.13.24-.26.32-.38.05-.04.12-.09.16-.14.04-.06.06-.1.05-.11h0s.13.08.13.08c.12.07.17.12.27.17.21.1.31.16.47.19.05.01.07.02.11.03h.06s0,0,0,0h0s0,0,0,0h0-1.12s0,0,0,0h0s0-.01,0-.01v-.02c.04-.05.07-.1.09-.18Z" style="fill: #fff;"/>
              <path d="m24.1,47.6c.03.14.08.29.13.42.06.22.13.44.28.62.1.05.21.11.29.15.33.26.64.5.99.77.05.02.07.04.11.06h.01c.08.03.15.07.23.09l.24.03c.24.03.53.08.8.14.16.05.35.11.51.17.04.12.07.25.13.38.42.15.83.32,1.21.56.12-.03.23-.05.35-.07.39.16.82.65,1,.56.2-.06-.17-.36-.41-.51-.39-.19-.29-.31-.43-.48.22.04.37.07.52.1.18.16.54.41.85.55.06.03.18.08.19,0,0-.01,0-.03,0-.04h.04s.05,0,.07,0c.08.01.1.07.01.2.18-.06.36-.11.55-.16.13-.03.26-.06.41-.08.18-.03.37-.05.59-.06-.03-.07-.1-.14-.13-.21-.13-.02-.47.04-.62.06-.16.02-.26,0-.17-.13.31-.08,1.17-.25,1.71-.2.27.05.53.1.79.15-.12.1.15.14.24.27.44-.05.91-.11,1.35-.16.31-.11.28-.18.45-.28.02-.02.05-.05.09-.08l.8-.19c.77-.02.07.35.21.55.08,0,.17.02.28.03.63-.21,1.26-.42,1.89-.62.09-.08.25-.14.44-.19.09-.19.17-.3.29-.56.13-.28.21-.52.13-.66.13-.26.29-.56.43-.85.26-.12.5-.25.67-.38.47-.66-.8.04-1.01-.06.18-.27.78-.42.9-.62.58-.28,1.33-.65,2-.98.05-.02.08-.03.13-.05.05-.02.1-.04.16-.06.16-.13.31-.25.47-.38.06-.04.1-.08.17-.12.16-.02.3-.03.45-.04.03-.03.06-.05.09-.07-.02-.08,0-.12.02-.17l.04-.09.02-.05s.01-.17.01-.25c.06.03.12.2.17.26.05.04.09.09.12.16.06.13.09.32.03.43.25.18-.58.3-.72.5.13.4,1.36-.22,1.61.2-.24.41-1.23.7-.87.9-.59.32-.93.17-1.55.55l.06.22c1.01-.44,2.2-.85,3.15-1.26,0-.47,0-.93-.04-1.34-.2.35-.23-.05-.25-.39-.03-.32-.05-.65-.23-.26-.02.28-.03.58-.05.89-.19-.4-.17-.59-.13-.92-.07-.21-.14-.43-.22-.64-.07-.41-.09-.74-.11-1.1.17-.17.34-.34.57-.57-.18-.09.26-.47.62-.81.37-.35.51-.5.13-.51-.28-.13.3-.31.46-.51.14.04.35-.19.55-.37,0-.07,0-.14,0-.2-.1-.15-.14-.44-.3-.38.02.38-.22.02-.2.37l-.03.03c-.03-.07-.28-.09-.28-.16-.02-.04-.03-.1,0-.2-.24,0-.33-.19-.39-.37-.06-.19-.08-.32-.22-.61-.11-.22-.15-.57-.16-.96l2.45,2.69c-.3-.02-.63-.06-.94-.09-.21.1-.5.15-.82.18-.16.02-.34.02-.52.03-.16,0-.45,0-.42.02l-.04.02-.18.02-.38.03c-.25.02-.5.05-.76.07l-.03.22s-.08,0-.11,0c-.33-.08-.65-.11-.73-.14-.02.12-.02.23-.02.35,0,.1,0,.2.03.31,0,0,0,0,0-.01-.19-.34-.16-.42-.13-.62.03-.04.07-.08.1-.12.02-.04.01-.07.06-.11l.2-.11c.27-.14,1.16.03.97-.26.33.02.52-.02.67-.07.07-.03.14-.06.2-.09l.1-.05.04-.04c.05-.08.02-.14-.04-.18-.15-.05-.37-.07-.52-.09-.6.12-.93.03-1.22-.05-.14-.04-.3-.07-.44-.07-.08,0-.16.03-.25.13-.35-.16-.91-.06-1.27-.29-.27-.14-.43-.16-.62-.33-.15.02-.25.1-.37.16-.05.04-.16.03-.2.07.05.09.07.16.06.22,0,.04-.06.02-.12,0-.1-.02-.2-.02-.02.35.11.1.23.21.35.31.19.36.06.56-.16.24-.05-.12-.04-.23-.18-.44-.03.05-.07.1-.1.16.02.12.07.26.12.41.02.07.05.14.07.22l.03.11s.02,0,0,.09l-.03.21c.08.19-.41.85-.64.94-.33.22-.51.26-.75.33-.37.08-.68.09-.94.07,0-.17-.43-.31-1.02-.45-.15.02-.4,0-.52-.02-.11-.02-.22-.05-.32-.11-.09-.04-.16-.04-.21-.1l-.12.04c-.23.08-.64.2-1.03.3-.16.1-.1.19-.13.29-.39.04-.81.12-1.23.2l-1.48.28-.26-1.59c-.2-1.23-.43-2.5-.13-3.28-.06-.62-.36.16-.37-.69,0-.45.16-.41.28-.44.07-.02.12-.06.15-.19.02-.07.02-.16.02-.28,0-.07,0-.15,0-.24,0-.06,0-.02,0-.03.02,0,.04,0,.07-.01,0,0,.01,0,.01,0,.08-.02,0-.02-.11.09-.03.02-.16.16-.13.14,0-.01,0-.03.03-.06-.22-.09-.31.24-.34.21h.21c-.08.01-.2,0-.36-.02-.15.09-.27.17-.56.26-.47.01-.94.02-1.38.03.07-.09.18-.18.25-.27l-.32-.12-.28-.24c-.21-.11-.61-.26-.81-.35-.22-.09-.39-.19-.4-.28-.05-.19-.09-.4-.11-.58-.19-.17-.33-.31-.49-.46l-.27-.36c-.15-.07-.33-.15-.48-.21,0-.02.02-.03.02-.04.06-.05.15-.1.24-.14.21-.03-.21-.24-.14-.31.2-.06.39-.12.58-.18.3.4.39.52.59.79-.02.03-.03.06-.05.08.1.1.21.19.31.28-.02.08,0,.16-.01.24.24.17.48.31.69.45.24.15.44.29.59.46.06.04.12.07.17.1.64.07.88.06,1.31-.13.62.14.75,0,.9-.13h-.05c.07-.08.21-.16.44-.1.4.13.58.52.5.74,0,.07-.03.09-.04.18-.01.1-.02.2-.02.28,0,.18.04.35.13.51-.08.16-.03.75-.23.52,0,.28,0,.53.02.81.1.03.2-.11.28.14.02.11,0,.17-.18.52.21.5.19,1.33.29,1.99.09.01.16.08.22.2l.25.52.26-.14c.56-.3,2.28-.2,2.51-.65.02-.02.03-.04.03-.06.14.03.28,0,.42.01.14.05.29.07.44.1.24.05.52.1.76.22.43.12.83.16,1.21.08.18-.03.37-.11.51-.25.14-.18.1-.35.06-.5-.19-.6-.61-1.3-.68-1.89-.22-.26-.45-.55-.69-.84h0c.05-.24-.4-.82.39-.62.49.02.86,0,.84-.17.69-.1.7.19,1.1.19.29-.28,1.47.23,1.37-.11.08-.03.14-.06.29-.04.41.03.74.34,1.13.1l.04-.31c.06,0,.11,0,.14,0,.31,0,.34.14.8.01.17,0,.36,0,.53,0,.15.1.53.09.92.1.11.01.2.02.29.03.14-.04.29-.08.45-.13.16.02.36.04.52.06.47.29,1.36.46,1.44.25h.14s.42.04.42.04v.45c.02.35.03.71.04,1.05,0,.49.02.99.03,1.49-.03.17-.06.44-.02.68-.05.07-.08.13-.08.2-.26.25-.51.49-.76.73-.1.09-.17.15-.24.21-.25.07-.67.44-.66.51.01.12-.37.31-.29.5l-.15.13c-.13-.09-.33.1-.5.32.02.13.05.26.08.37,0,.2.02.44.03.66,0,.24,0,.51-.01.75.04.39.09.79.13,1.16-.01.18-.02.35-.03.53-.47.17-.94.35-1.39.51-.4.11-.72.26-1.02.41-.31.15-.59.3-.81.36-.14-.31-.58.31-1.16.68-.35.1-.7.21-1.08.32-.03.04-.06.09-.09.14-.22.08-.37.7-.54.65-.16.34-.33.71-.49,1.06l-.04.05c-.28.03-.69.1-.78.28-.13.03-.22.05-.31.07-.31.07-.6.14-.91.22-.5.06-.61.23-1.14.41-.38.08-.79.16-1.17.23h-.1c-.22-.22-.95-.12-1.38-.16-.32-.08.14-.26-.49-.31-.11,0-.19,0-.28,0-.5,0-.98-.04-1.44,0-.33.05-.68.14-1.05.25l-.26.09-.33.06-.16.03c-.05.01-.13.01-.09.07-.05.12-.23,0-.3-.03-.09-.04-.17-.08-.25-.12-.14-.07-.26-.11-.36-.14-.2-.06-.35-.08-.59-.24-.06-.08-.15-.15-.07-.16-.32-.21-.61-.35-.93-.5-.5-.16-1.01-.27-1.52-.37-.26-.1-.52-.21-.77-.31-.09-.03-.18-.07-.27-.1-.03,0-.05-.02-.07-.04-.07-.02-.14-.05-.19-.07-.56-.22-.84-.48-1.09-.72-.22-.28-.61-.37-.85-.95-.12-.43-.08-.89,0-1.32.02,0,.03,0,.05,0,.1.14.2.3.31.41Z" style="fill: #fff;"/>
              <path d="m37.69,53.62c.05-.03.1-.06.13-.08.07-.08.15-.16.25-.24-.01-.11-.03-.21-.04-.32-.06,0-.11,0-.14-.01-.14.03-.21.08-.3.14-.08.05-.16.1-.42.13-.14,0-.18,0,.32-.31.14-.21-.99.08-.35-.24.52-.09,1.05-.18,1.61-.28.27-.02.82-.11,1.31-.18l.9-.22c0-.08.05-.16.09-.25.15-.05.27-.09.36-.11.18-.36.28-.41.41-.53.07-.06.14-.14.24-.29.05-.07.11-.16.17-.28.03-.05.06-.1.09-.15v-.18c-.05-.06-.15.07-.21-.17.04-.07.06-.12.09-.17.12-.04.25-.08.36-.1l.03-.11c.13-.09.27-.19.4-.29.08-.09.17-.2.26-.3.05,0,.14,0,.25,0,.32-.1.66-.21,1-.32.21-.04.42-.07.75-.16.33-.18.66-.35.99-.52l.7-.54c.09-.12.2-.25.3-.37l.5-.21v-.55c.03-.44.02-.82.02-1.23,0-.1,0-.21,0-.32,0-.08.01-.12.02-.18.02-.12.06-.24.11-.38,0-.11,0-.25,0-.36-.05-.18-.18-.13-.22-.4v-.02c.14-.08.15-.18.57-.38.11-.09.2-.17.29-.25.19-.17.39-.34.56-.49.19-.2.37-.4.58-.63.16-.19.28-.36.39-.52-.04-.03-.08-.06-.11-.08.1-.09.18-.15.25-.22l.08-.07c.05-.71.1-1.41.15-2.1-.03-.36-.05-.72-.08-1.1l-.02-.16-.13-.88-.64.04c-.31.02-.62.03-.93.05-.37-.07-.77-.15-1.16-.22-.26-.02-.52-.03-.78-.05h-.38c-.22-.04-.44-.05-.66-.05-.12.07-.27.15-.42.22-.14-.01-.27-.03-.38-.05.1-.17-.11-.25-.23-.36-.24.01-.68-.05-.93.04-.21.1-.44.2-.63.3-.07,0-.1,0-.16,0-.12-.11-.24-.24-.37-.36-.15-.03-.49-.13-.78-.23-.47.01,0,.21-.58.26h-.84c.01.06.25.17-.02.21-.17,0-.36,0-.51-.05-.39-.05-.76-.1-1.12-.14-.32,0-.22.1-.18.18.09.11-.18.03-.2.24-.13-.11-.26-.21-.38-.31-.04.11-.1.24-.19.35.03.07.05.13.08.2.41.39.35.14.82.51l.13.28c-.36-.29-.19.05,0,.38.18.34.35.67.07.48.16.34.3.69.43,1.04.07.17.12.35.17.52.03.07.03.2.08.23l.09-.02h.02s.01,0,.01,0h0s0,0,0,0h0s0,0,0,0c1.01.46.28.13.5.23h0s-.02,0-.03-.01c0,0-.17-.17-.19-.34-.06-.12-.03-.04-.06-.06h-.1c-.09-.01-.18-.02-.29-.04-.39-.14-.46-.19-.52-.23-.51-.04-.18-.16-.39-.32-.09-.03-.19-.05-.31-.09h-.04c-.3-.05,0,.17-.35.15-.1-.04-.19-.06-.27-.08-.23-.02-.42.04-.59.07-.27.09-.54.19-.86.18-.22.1-.71.16-.51.3l-.66.18c-.16.09-.05.18-.51.34h-.04s.46.35.46.35c0-.17.01-.33.02-.51-.15-.8-.12-1.43-.3-1.18-.15-.25,0-.47-.08-.8-.07-.11-.14-.25-.21-.39.04-.14.1-.27.14-.38-.02-.41-.04-.8-.04-1.2-.02-.25.03-.39-.03-.79-.06-.35-.28-.67-.53-.86.08-.07.12-.11.17-.15-.24-.29-.45-.46-.7-.63.08-.06.2-.12.29-.18.28.11.55.23.84.48.37.28.73.83.8,1.39l.06.46.05.32h.08c.02.4.03.78.05,1.18.09.04.18.08.27.11,0,.27,0,.54-.01.79.07.25.16.08.24.14,0,.08.02.16.03.27.01.11.02.25.04.38-.04,0-.07,0-.09,0-.08,0-.18,0-.27,0-.04-.17-.09-.35-.14-.52l-.34.24c.19.76.31,1.37.47,1.72l-1.39-1.05c.11-.05.19-.1.25-.16.37-.11.81-.18,1.23-.24.21-.03.41-.07.59-.1.21-.04.45-.09.63-.14.13-.02.24-.05.32-.09-.15,0-.27-.02-.33-.02-.35.04-.47.06-.58.07-.17-.12.02-.25.57-.36.19,0,.42-.02.68.02l.07.02c-.19-.22.32-.24.31-.35.13.04.25.08.36.1.34.12.43.1.57.09.13-.01.27-.03.44.02l.05-.22c.05-.02.12-.04.16-.07.06.02.08.02.08.03.02.34,0,.56.03.81.03.25.08.52.1.67.02.16.14.4.15.46.03.1.15.21.13.2,0,.01.02.02.04.03h0s0,0,0,0h0c1.8.83-2.46-1.13-2.02-.93h0s-.02.02-.02.02l-.03.03-.06.05-.13.1c-.08.05-.18.17-.24.17l-.06-.17c-.51-1.21-1.1-2.39-1.67-3.58l-.52-1.15c.34-.06.61-.14.8-.2.04-.04.32,0,.49.01l.57.05c1.98.17.96-.18,2.01-.16.82.05,1.6.11,2.42.16,1.5.13,2.36.03,2.5.25.43-.18.92-.07,1.11-.17.23-.02.45-.03.68-.03.26,0,.52,0,.79,0,.31.03.62.07.94.1.28.03.58.05.88.06.35.01.73.03,1.11.05l1.97.08.15,2.25.02.23c0,.11,0,.25,0,.39-.07.07-.12.15-.18.25-.02.24-.01.4,0,.61.02.18.04.3.07.41.03.57.04,1.33.03,2.12-.7.62-1.44,1.27-2.04,1.8-.02.08-.02.14-.04.21-.11.08-.15.1-.19.11-.04.02-.09.04-.14.06-.08.07-.17.15-.26.21-.01.07-.01.14,0,.2.04.07.08.13.11.18l.03.25c-.06,0-.12,0-.18.01.05.09.07.17.08.24,0,.18,0,.33,0,.49,0,.17-.01.34-.02.53-.03.68-.09,1.29-.11,1.97-.34.13-.67.29-1.02.5.13-.23-.79.15-1.03.33l-.58.2c-.17-.06-.33-.12-.53-.17-.31.11-.62.23-.94.35-.23.08-.45.16-.68.24-.27.13-.53.25-.79.37-.1.2-.18.39-.21.56.1.03.18.06.27.09-.05.1-.1.15-.16.19-.02.06-.04.1-.07.14-.03.02-.06.06-.1.09v.15s0,.07,0,.07v.03s0,0,0,.03l-.04.1c-.19.3-.36.55-.5.78l-.39.83c-.74.21-1.47.42-2.18.63-.24.01-.49.03-.74.04-.16,0-.31-.02-.46-.03-.4.1-.78.18-1.19.28Z" style="fill: #fff;"/>
              <path d="m41.38,49.54c-.69.62-.23-.4-.06-.36l.06.36Z" style="fill: #fff;"/>
              <path d="m26.24,34.81c-.02.31-.04.64-.06.93l-.36-.46v-.66c.09-.1.16-.23.24-.36.06.19.12.36.18.55Z" style="fill: #fff;"/>
              <path d="m26.21,43.19s-.05.17-.13.3c-.06.1-.12.19-.19.3-.08.17-.18.35-.27.51-.14.1-.29.2-.43.3-.09.13-.19.27-.29.39-.11.03-.2.04-.3.04.05-.12.12-.23.16-.34.02-.06.04-.11.03-.16.32-.25.63-.48.94-.72-.01-.2-.38-.13-.08-.55l.13-.1c.09-.06.16-.14.27-.18l.16-.06c0,.08,0,.17-.01.26Z" style="fill: #fff;"/>
              <path d="m24.74,46.3c-.17.34.12.8-.11,1.04-.05.01-.09.03-.13.04-.08-.17-.15-.37-.22-.59-.01-.18-.03-.36-.04-.53,0-.02,0-.05,0-.07.09-.07.13-.05.18-.04.1.07.21.12.31.15Z" style="fill: #fff;"/>
              <path d="m25.52,47.76c-.01.07-.03.14-.05.21-.09.03-.18.08-.28.1-.1-.07-.19-.16-.27-.25.04-.12.09-.24.14-.34.16-.12.26.23.44.28Z" style="fill: #fff;"/>
              <path d="m24.81,48.44c.12.1.24.19.37.3.39.05.53.18.71.27.08.03.15.07.24.11.06.02.12.06.19.08.06.01.13.03.2.04.05.01.11.02.16.03.28.07.53.15.81.24.22.09.43.17.64.27.29.12,1.17.39,1.39.72.14.16.04.29.43.48.24.15.61.45.41.51-.18.09-.61-.4-1-.56-.12.02-.23.03-.35.07-.37-.24-.79-.41-1.21-.56-.06-.13-.09-.26-.13-.38-.16-.05-.35-.11-.51-.17-.26-.05-.55-.1-.8-.14l-.24-.03c-.08-.02-.15-.05-.23-.08h-.01s-.07-.04-.11-.06c-.35-.27-.66-.51-.99-.77-.08-.04-.19-.1-.29-.15.13-.09.21-.14.3-.2Z" style="fill: #fff;"/>
              <path d="m27.55,47.18s.08.05.14.09c-.05.12-.11.25-.16.37-.11-.02-.21-.02-.31-.02-.11,0-.22-.02-.23-.02-.01,0-.03,0-.04-.02v-.16c.01-.09.02-.18.04-.26.02.02.03.03.05.03.03,0,.06-.03.08-.05-.01-.05.22-.04.44.05Z" style="fill: #fff;"/>
              <path d="m42.58,53.51c.09-.03.17-.06.26-.09.3-.71.63-1.47.93-2.16,0,0,0-.01.01-.02,0,0,.02.01.04.02.05.07.14.03.16.17-.07.36-.64,1.53-1.01,2.15-.16.02-.28.03-.36.01-.03-.06-.04-.08-.04-.09Z" style="fill: #fff;"/>
              <path d="m43.25,49.95c.16-.07.09-.2.13-.33.03,0,.05,0,.09,0,.25-.12.51-.24.79-.37.22-.08.45-.16.68-.24.32-.12.63-.24.94-.35.2.05.36.11.53.17-.21.13-.47.29-.72.45l-.78.33c-.38-.01-.49.19-.74.31-.18.05-.3.1-.38.14-.06.03-.05.04-.07.07-.02.04,0,.08-.05.1-.05.02-.09.04-.14.06-.09-.04-.17-.06-.27-.09v-.24Z" style="fill: #fff;"/>
              <path d="m50.22,44.61l.12.07.08.04c.13.08-.06-.01-.23,0v-.1s.03-.01.03-.01Z" style="fill: #fff;"/>
              <path d="m52.88,42.05l.02-.02c.02-.64.04-1.29.06-1.95,0-.05,0-.15,0-.26,0-.55.01-1.1.02-1.69l.03-.61.13-2.98-3.29-.5-.7-.11c-.17-.1-.64-.06-.77-.22.53-.11,1.01-.05,1.5,0l3.45.31v3.49c.02.36.02.71.1,1.08,0,.12-.06.48-.12.69-.06.24-.11.49-.12.88l.07,1.33c.02.34.02.56,0,.69-.33.24-.41.1-.7.19.1-.11.2-.23.31-.34Z" style="fill: #fff;"/>
              <path d="m52.64,41.38c0-.49,0-.94.01-1.43-.04-.26-.08-.47-.12-.73.01-.17.02-.32.03-.46,0-.08.02-.16.02-.22.01-.13.03-.23.03-.32.02-.17.03-.27.06-.38,0-.11-.01-.21-.02-.33l-.18-3.09-2.65-.03c-.07,0-.15,0-.23,0-.47-.02-.98-.05-1.45-.07-.61-.15-.94-.21-.94-.1l-.36-.04h-.6c0,.16-.53.05-.81.03-.75,0-1.48.02-2.2.02-.24,0-.49,0-.73,0-.05,0-.15,0-.2,0l-.77-.23c-.54.07-1.41.02-1.87.12-.1,0-.2,0-.25,0-.7,0-1.45-.01-2.15-.02-.2,0-.35,0-.5,0-.33,0-.65-.02-.97-.03l-.49-.02c-.12,0-.2.02-.32.02-.26-.05-.52-.09-.81-.14-.02-.09-.03-.18-.08-.27.4-.02.56-.04,1.08-.04h1.33c.89,0,1.77,0,2.68,0,.53,0,1.01,0,1.54.01.9,0,1.86-.01,2.81-.02.53-.03,1.04-.05,1.58-.08.5,0,1.02.01,1.55.02.08-.02.14-.03.19-.04.11-.01.21-.01.31-.01.11,0,.12,0,.18.01.1.02.19.05.29.08.2.07.41.15.72.12.13.16.6.11.77.22l.7.11,3.29.5-.13,2.98-.03.61c0,.59-.01,1.14-.02,1.69,0,.1,0,.21,0,.26-.02.66-.04,1.31-.06,1.95l-.02.02s0-.02,0-.03c-.09-.25-.16-.44-.25-.63Z" style="fill: #fff;"/>
              <path d="m45.13,33.53c-.54.03-1.05.05-1.58.08l.02-.14c.51.02,1.02.04,1.56.06Z" style="fill: #fff;"/>
              <path d="m40.74,33.62c-.53,0-1.01,0-1.54-.01.38-.25.89-.08,1.52-.07l.02.08Z" style="fill: #fff;"/>
              <path d="m39.74,37.72l.02-.31s0,.03-.01.04c-.02,0-.16,0-.3-.03l-.24-.05-.15-.03-.29-.08s-.06-.03-.09-.04c-.14-.04-.26-.07-.39-.11.15-.01.29-.02.42-.03.14.02.27.03.39.04.06,0,.11-.01.16-.01.11,0,.17-.02.25-.02.07,0,.14,0,.19.01.03,0,.06.02.06.02h.01c0,.28-.04.5-.04.75v-.14Z" style="fill: #fff;"/>
              <path d="m26.38,34.16c.01.42-.02.55-.14.65-.06-.19-.12-.36-.18-.55.02-.08.04-.16.05-.27.09.07.18.13.27.17Z" style="fill: #fff;"/>
              <path d="m25.62,44.3c-.05.19-.17.38-.32.55-.14.16-.26.25-.38.32-.02-.05-.02-.11-.02-.18.09-.13.19-.27.29-.39.14-.1.29-.2.43-.3Z" style="fill: #fff;"/>
              <path d="m27.55,47.18c.49-.16,1.15.11,1.45.28.06.1.12.2.21.32-.47-.09-1.27-.29-1.52-.51-.06-.04-.11-.06-.14-.09Z" style="fill: #fff;"/>
              <path d="m43.55,33.6c-.95,0-1.91.01-2.81.02l-.02-.08c0-.24.51-.19.72-.26,1.11,0,1,.19,2.14.19l-.02.14Z" style="fill: #fff;"/>
              <path d="m34.19,33.92l-.4.03.32.64c.34.77.63,1.45.97,2.21l-.22-.14c-.61-1.16-1.37-2.34-1.72-3.17.31.02.65.07.97.16.05.08.07.17.08.27Z" style="fill: #fff;"/>
              <path d="m40.13,40.49c-.2-.15-.47-1.27-.39-2.78v.14c-.08,1.46.21,2.54.39,2.64h0Z" style="fill: #fff;"/>
              <path d="m26.11,33.99c-.01.11-.03.19-.05.27-.08.13-.14.26-.23.36l-.08-.12c0-.28,0-.55.01-.8.25-.44.34-.15.35.29Z" style="fill: #fff;"/>
              <path d="m26.16,40.67s-.11.1-.16.14c-.08.12-.2.25-.32.38-.04.02-.07.04-.09.06l-.18.1-.39.25c-.12.1-.2.2-.29.28-.02-.01-.05-.02-.09-.02-.39.06-.77.49-1.36.98-.11.19-.49.55-.78.83-.38.31-.75.62-1.13.93-.01,0-.03,0-.05.02-.02.03-.05.11-.08.18v-.21s1.33-1.42,1.33-1.42c-.04-.05-.08-.09-.12-.15l1.1-1.13c.19-.09.34-.18.69-.48.14-.09.27-.19.42-.28l.24-.15.18-.12c.35-.2.51-.31.67-.44.14-.11.2.05.43.15,0,.02,0,.06-.05.11Z" style="fill: #fff;"/>
              <path d="m24.92,45.18s-.1.09-.16.16c.02.21-.14.38-.33.56,0,.09-.01.17,0,.25-.05,0-.09-.03-.18.04-.03-.14-.06-.28-.09-.41.03-.05.06-.1.1-.14.02-.1.02-.18.02-.27.11-.1.23-.22.34-.33.1,0,.19-.02.3-.04,0,.07,0,.13.02.18Z" style="fill: #fff;"/>
              <path d="m23.88,46.32c-.03.28-.07.59-.1.87-.02,0-.03,0-.05,0-.03-.41-.31-.17-.21-.64.1-.13.18-.26.28-.36.03.05.05.1.08.13Z" style="fill: #fff;"/>
              <path d="m24.5,47.91c.05.09.1.19.17.27.03.08.06.19.14.26-.09.06-.17.11-.3.2-.15-.18-.22-.4-.28-.62.12-.05.2-.08.27-.11Z" style="fill: #fff;"/>
              <path d="m28.37,52.05c.22-.08.16-.21.31-.09.27.08.35.23.3.3-.06.06-.24.07-.27.08-.1-.09-.22-.2-.33-.28Z" style="fill: #fff;"/>
              <path d="m29.46,53.05c-.22.07-.33.02-.44-.03-.56-.32-.28-.35-.26-.56.22.19.45.38.7.59Z" style="fill: #fff;"/>
              <path d="m30.46,53.42c-.03-.12.04-.17.19-.17.07,0,.2.03.27-.03-.08-.1.15-.07.27-.1-.08.06.12.09.3.03.21-.02.36-.08.48-.15.28-.11.5-.28.87-.34-.1-.2.17-.22.41-.22.24,0,.5,0,.73,0,.23-.01.46-.03.67-.04.05.08.09.18.11.27.08.01.18.03.27.04.3,0,.62-.02.92-.02.2.07.28.11.22.14-.06.03-.2.04-.3.06-.23.03-.45.06-.08.2-.19,0-1.03.28-.94-.06-.14-.02-.26-.04-.38-.05-.54.07-.38.16-.44.22-.18,0-.33,0-.47,0-.06,0-.12,0-.19-.01l-.1-.02c-.14-.02-.23-.04-.49,0-.03-.07-.09-.11-.21-.11-.17,0-.37.05-.6.11-.27.16-.59.18-.88.24l-.22.03s.03.08-.06.08c-.14,0-.27-.06-.37-.11Z" style="fill: #fff;"/>
              <path d="m35.3,53.77c.28.01.35-.14.68-.08.07.03.23.05.17.1.22,0,.44.01.65.02.3-.06.59-.12.9-.18-.06.13-.5.3-.87.41-.28.01-.62.02-.84,0-.17,0-.32-.03-.43-.04-.06,0-.11,0-.14,0-.17.02-.36.05-.54.08-.11,0-.19,0-.28,0-.25-.06-.53-.13-.78-.19-.35.05-.39-.09-.46-.18.41.03.64-.21,1.16-.11.27.06.54.12.78.19Z" style="fill: #fff;"/>
              <path d="m43.67,50.22c-.01-.14.03-.18.09-.19.12-.04.26-.05.4-.11.25-.12.36-.32.74-.31l-.32.38-.23.1c-.12.06-.25.13-.37.2h-.13s-.06-.02-.06-.02l-.13-.04Z" style="fill: #fff;"/>
              <path d="m35.08,36.8c.33.53.69,1.12,1.02,1.66.21.43.4.81.56,1.17.03.04,0,.19.08.15l.34-.35.17-.18.02-.02h.01s0-.02,0-.02h0s0,0,0,0l2.89,1.33h0s0,0,0,0h-.01s-.03-.03-.03-.04h0s.02.03.03.04h0s0,0,0,0h0s0,0,0,0c-6.14-2.83-1.7-.78-3.07-1.42h0s-.01.01-.01.01l-.11.09-.21.19-.21.19-.11.09s-.07.07-.07.03l-.11-.23c-.14-.31-.31-.63-.46-.94-.32-.64-.64-1.27-.95-1.89l.22.14Z" style="fill: #fff;"/>
              <path d="m39.49,38.41l-.05.22c-.17-.05-.31-.03-.44-.02-.14,0-.23.03-.57-.09-.11-.02-.22-.06-.36-.1,0,.11-.51.13-.31.35l-.07-.02c-.26-.04-.5-.02-.68-.02-.55.11-.74.24-.57.36.11-.01.23-.03.58-.07.06,0,.18.01.33.02-.08.04-.19.07-.32.09-.17.05-.41.1-.63.14-.18.03-.38.06-.59.1-.42.06-.86.13-1.23.24-.06.06-.14.11-.25.16l1.39,1.05c-.16-.35-.28-.96-.47-1.72l.34-.24c.04.17.09.35.14.52.09,0,.19,0,.27,0,.03,0,.06,0,.09,0-.01-.14-.03-.27-.04-.38-.01-.11-.02-.19-.03-.27-.08-.06-.17.11-.24-.14,0-.25,0-.52.01-.79-.09-.04-.18-.08-.27-.11-.02-.4-.03-.78-.05-1.17h-.08s-.05-.33-.05-.33l-.06-.46c-.07-.56-.43-1.11-.8-1.39-.3-.25-.56-.37-.84-.48-.09.06-.22.11-.29.18-.17-.07-.29-.13-.51-.18h-.13c-.28-.05-.56-.1-.83-.15-.09.02-.16.03-.26.04-.16.08-.27.17-.39.26h-.43s-.27-.13-.27-.13c-.12-.02-.26-.05-.39-.08-.16-.04-.32-.08-.48-.11-.1-.16-.22-.33-.32-.49.08-.08.18-.15.28-.21-.2-.11-.4-.21-.58-.31-.02-.07-.04-.15-.04-.21-.13-.13-.25-.25-.39-.38.16-.02.33-.05.49-.07,0-.18.01-.35.02-.53.1.04.23.1.35.16.1.18.2.34.3.52l-.3.02.19.17c.25.13.48.24.71.36-.05.06.22.23.2.33.09,0,.19-.01.27-.02l.14.06h.15c.1-.1.19-.21.25-.31.03,0,.06,0,.08,0l.03-.22c.17,0,.36,0,.53,0,.1.11.33.09.7,0h0s.3.02.3.02c.28.02.38.02.58.05.65.21,1.38.48,2.12,1.44.27.37.46.84.55,1.28.04.22.05.43.06.63v.11c.06.19.18.07.27.11.02.02.04.07.05.11.04.27.09.55.15.84.05.47.11.93.18,1.42.03.49.07.96.1,1.44,0,.21.02.41.03.61l-2.97-2.24c.06,0,.11-.01.17-.02.08.04.17.07.25.1.23-.02.45-.03.66-.04.06.06.11.12.28.19l.65-.32c-.11-.08-.01-.16.1-.24.15-.09.39-.19.28-.27.05-.02.14-.05.2-.08.09,0,.17-.01.25-.02.23.02.45.04.67.07.04,0,.08.02.13.04.24.08.48.15.76.23.04.02.09.04.14.06l.49.18.34.12Z" style="fill: #fff;"/>
              <path d="m29.34,33.21c-.2-.09-.38-.06-.93-.26-.55-.31-.1-.28-.07-.38.23.04.44,0,.7.11.19.1.38.2.58.31-.1.07-.2.13-.28.21Z" style="fill: #fff;"/>
              <path d="m24.25,45.64s-.06.09-.1.14c.03.13.06.27.09.41,0,.02,0,.05,0,.07l-.37.06s-.05-.07-.08-.13c-.03-.15-.05-.31-.09-.49v-.11s.09-.08.09-.08l.47-.14c0,.09,0,.17-.02.27Z" style="fill: #fff;"/>
              <path d="m22.58,43.16c-.39.46-.81.97-1.2,1.43-.01,0-.03,0-.05.02-.02.03-.05.11-.08.18l-.1,1.85c.16.37.1,1.06.17,1.48.04.46.13.91.31,1.38.14.22.28.43.47.66l.11.26.18.21c.27.21.55.41.84.61.4.27.86.55,1.29.78-.11,0-.24.02-.31.04-.38-.24-.71-.49-1.05-.76-.1.25.55.58.99.83-.03.04-.06.07-.09.1-.59-.24-1.18-.53-1.71-.83-.22-.18-.42-.36-.6-.53-.17-.18-.28-.42-.39-.64-.34-.65-.52-1.36-.57-2.08.12.22.25.42.37.58,0-.22,0-.41,0-.61-.08-.43-.1-.83-.13-1.29-.06-.05-.12-.15-.18-.25.02-.69.04-1.34.06-2.03v-.13s1.56-1.42,1.56-1.42c.04.05.08.09.12.15Z" style="fill: #fff;"/>
              <path d="m21.01,46.84c.03.46.06.86.13,1.29,0,.19,0,.39,0,.61-.12-.16-.25-.36-.37-.58-.02-.5.03-1.07.06-1.57.06.1.12.2.18.25Z" style="fill: #fff;"/>
              <path d="m23.15,51.31c.34.27.67.51,1.05.76.08-.02.2-.03.31-.04l.31.16.4.15.41.13.23.06c.34.09.66.19.98.3.17.13.3.26.44.31.17.05.31.09.47.16.17.08.23.09.45.22.32.21.64.43.97.62.33.18.66.34,1,.44.17.05.34.09.53.11.12,0,.11-.02.08-.04h.26c.09-.02.17-.03.21-.03.38.02.67,0,.87-.14.36-.08.53-.12.8-.18l-.02-.14.17-.03c.25.03.27.07.3.16.29-.21.71-.15.95-.12.09-.03.17-.05.26-.09.08,0,.17,0,.28,0,.17-.02.36-.05.54-.08.03,0,.08,0,.14,0,.13.09.23.18.36.28-.03,0-.09.03-.14.04h-.66c0,.06-.01.11-.02.18-.24.04-.52.08-.79.12-.11-.02-.18-.03-.27-.05-.05,0-.08,0-.14,0-.12.03-.24.04-.34.06-.05,0-.1.01-.14.02h-.03s-.06.01-.09,0c-.02-.01-.08-.02-.16-.03-.08,0-.09-.02-.36.05l-.58.17c-.1.06-.19.14-.29.17-.1.02-.2.05-.3.07-.2.04-.4.06-.59.07-.08,0-.24,0-.24,0,.06.02-.03.03-.14.02-.2-.02-.38-.07-.57-.12-.43-.49-.83-.46-1.33-.77-.23-.15-.46-.3-.69-.45-.12-.07-.11-.06-.16-.08l-.12-.06c-.53-.11-1.04-.52-1.77-.71l-.42-.11-.43-.14-.43-.16-.62-.32s.06-.07.09-.1c-.44-.25-1.09-.58-.99-.83Z" style="fill: #fff;"/>
              <path d="m40.11,53.51c0-.06-.02-.12-.03-.19.72-.21,1.45-.42,2.18-.63l.39-.83c.15-.23.31-.48.5-.78l.08-.09h.03s.06,0,.06,0c.04,0,.08,0,.12.01,0-.09.03-.18.04-.26l.07-.06c.09-.01.17-.02.25-.02,0-.15.13-.23.18-.36.12-.07.24-.14.37-.2l.23-.1c.23-.05.45-.09.65-.13.04-.03.08-.06.13-.08.08-.04.16-.08.24-.12.18-.08.36-.15.55-.24.37-.16.75-.31,1.01-.47.38-.11.72-.21,1.11-.33.54-.17.8-.41,1.21-.53.01-.11.03-.21.07-.31l.02-2.97c-.03-.07-.05-.13-.08-.2.02-.02.04-.04.05-.06-.03-.1-.07-.19-.1-.28l.02-.04c.07-.02.14-.04.2-.06.02-.08.03-.18.06-.28.05-.02.07,0,.15-.04.1-.06.17-.08.35-.21.54-.67,1.33-1.36,1.92-1.97-.02-.22-.03-.43-.06-.62-.05-.22-.09-1.71.06-1.53.14-.76-.08-1.7.24-1.47.03.84.19.44.16,1.17-.11,1.47-.1,2.1-.04,2.62l-.08.1c-.31.35-.64.73-.94,1.06-.38.26-.79.54-1.17.8l-.28.24c-.06.05-.05.05-.07.08-.03.04-.04.1-.02.17.08,0,.15,0,.21,0,.04,0,.03.03.16-.05l.15-.09.25-.17c-.1.32-.08.37-.06.41-.07.05-.14.1-.2.15-.04.02-.03,0-.04.01-.02,0-.04,0-.06.01-.04.01-.07.03-.11.04h-.02s-.01.11-.01.11c-.02.17-.04-.38-.07,1.24,0,.07,0,.21,0,.28.05.81.08,1.57.1,2.34-.89.41-1.91.81-3.38,1.32-.43.17-.86.33-1.29.5-.25.09-.5.18-.76.27l.55-.47c-.17.02-.35.05-.52.07-.23.1-.39.22-.53.35-.06.06-.17.14-.2.18,0,.03-.02.06-.03.07,0,.12-.01.2-.05.24-.01.08-.07.11-.17.13-.02,0-.04,0-.05,0-.26.41-.51.79-.75,1.17-.13.26-.25.5-.37.74-.33.08-.63.14-.91.13-.36.1-.74.21-1.13.32-.19.05-.33.08-.47.11-.02-.11-.02-.17-.03-.22Z" style="fill: #fff;"/>
              <path d="m49.74,34.94c-.27-.06-.51-.11-.78-.17-.13-.05-.23-.09-.37-.13-.12.02-.21.03-.3.06l-1.48-.16h-.18c-.1.16-.53.02-.73.12-.5.01-.4-.16-.89-.19-.16.13-.16.18-.17.22-.4,0-.85,0-1.4-.01-.6.16-1.07.21-1.31.12-.1-.06-.2-.12-.26-.18-1.35-.08-2.05-.03-2.63.07h-1.51c-.35-.06-.68-.11-1.01-.16-.12.05-.23.09-.34.13-.09.05-.26.07-.23.16-.22-.01-.48-.03-.71-.04l-.34.08.36.73c.16.22.3.41.46.63.58,1.19,1.17,2.38,1.67,3.58-.05.05-.16.25-.02-.02l.15-.27.04-.07h0s0,0,0,0l2.38,1.1h0s0,0,0,0h0s0,0,0,0h0s-.02-.02-.02-.02h.02s.01.02.01.02h0s0,0,0,0l-2.46-1.13h0s0,0,0,0h0s-.02.02-.02.02l-.03.03-.28.24-.14.12s-.1.1-.1.04l-.06-.17c-.08-.22-.19-.45-.28-.67-.49-1.43-.91-1.97-1.14-2.24-.54-.9-.57-1.2-.57-1.48-.14-.25-.29-.51-.44-.77.12-.04.26-.08.36-.12.2,0,.4-.02.6-.03.06-.01.22,0,.37.02l.44.04c.4-.07.8-.14,1.21-.21.96.04,1.18.05,1.79-.13.05,0,.15,0,.25,0,.46-.1,1.33-.05,1.87-.12l.77.23s.15,0,.2,0c.24,0,.49,0,.73,0,.71,0,1.45-.02,2.2-.02.27.02.81.13.81-.04h.6s.36.04.36.04c0-.1.32-.05.94.1.47.02.97.05,1.45.07-.01.06-.03.12-.04.17.09.02.17.05.25.07l2.97.8-.35,2.08c-.02.1-.03.19-.05.29-.09-.11-.17-.2-.25-.29l-2.35-2.59-.02.02Z" style="fill: #fff;"/>
              <path d="m39.64,38.34c-.06-.09-.14-.2-.24-.31.2-.18.26-.28.17-.34-.23-.12-.15.14-.44,0-.06-.02-.1-.04-.15-.06-.1-.04-.2-.07-.32-.12.04-.09.07-.16.11-.25l.29.08.15.03.24.05c.14.02.27.04.3.03,0,0,0,.01,0,.02,0-.02-.02.17-.02.25-.01.21-.02.42,0,.64l.02.33v.26c0,.18.02.35.05.53.05.2.03.29.07.43.02.12.1.28.12.35.02.07.06.14.11.21.05.05.02.04.05.06h0s.02,0,.02,0h.01s0,0,0,0h0s-2.46-1.13-2.46-1.13h0s0,0,0,0h0s-.02.02-.02.02l-.03.03-.28.24-.14.12s-.1.1-.1.04l-.06-.17c-.08-.22-.19-.45-.28-.67.28.26.56.51.82.79l.06.17c.05,0,.16-.12.24-.17l.13-.1.06-.05.03-.03h.02s0-.02,0-.02c-.44-.2,3.82,1.76,2.02.93h0s0,0,0,0c-.02,0-.03-.02-.04-.03.02,0-.1-.1-.13-.2,0-.07-.13-.3-.15-.46-.01-.15-.07-.42-.1-.67-.03-.26,0-.47-.03-.81,0-.01-.02-.01-.08-.03Z" style="fill: #fff;"/>
              <path d="m39.49,38.41l-.34-.12-.49-.18c.23.03.29,0,.4-.02l.28-.07s.05.01.07.01c.1.11.18.21.24.31-.04.04-.11.05-.16.07Z" style="fill: #fff;"/>
              <path d="m36.51,37.81c.12.08-.13.18-.28.27-.11.08-.21.16-.1.24l-.65.32c-.17-.07-.22-.13-.28-.19-.21.01-.43.03-.66.04-.08-.03-.17-.06-.25-.1.16-.08.35-.17.52-.25.43-.09.86-.18,1.31-.28.12-.02.24-.03.39-.06Z" style="fill: #fff;"/>
              <path d="m36.58,36.23c-.13.1-.22.02-.29-.11-.05.19-.06-.98-.5-1.62,0-.09-.04-.25-.09-.41-.73-.95-1.47-1.22-2.12-1.44-.2-.03-.3-.03-.58-.05l-.3-.02h0c-.37.1-.6.12-.7,0-.17,0-.36,0-.53,0l-.03.22s-.05,0-.08,0c-.08-.03-.17-.06-.23-.1.02-.07.03-.14.05-.22.09-.06.14-.1.3-.12.26-.02.54-.03.83-.04.12-.03.26-.06.39-.1h.02s.33.02.33.02c.36.03.48.05.72.09.66.29,1.42.66,2.12,1.71.32.43.56,1.03.62,1.57.02.13.03.28.03.39v.06s.04.16.04.16Z" style="fill: #fff;"/>
              <path d="m35.87,36c-.07-.31-.14-.75-.36-1.18-.2-.42-.52-.79-.8-1,.08-.05.15-.1.23-.16.27.23.49.49.71.85.2.47.27,1.06.21,1.48Z" style="fill: #fff;"/>
              <path d="m30.84,33.05c-.08,0-.17.01-.27.02.02-.1-.25-.27-.2-.33-.24-.12-.46-.24-.71-.36l-.19-.17.3-.02c-.1-.18-.2-.34-.3-.52.22.08.42.15.63.23.03.11.06.22.12.35.2.09.41.18.61.27.03.09.06.19.1.29-.03.08-.06.17-.09.26Z" style="fill: #fff;"/>
              <path d="m24.77,44.7c-.04.11-.11.22-.16.34-.11.1-.23.22-.34.33l-.47.14c.26-.31.49-.59.74-.9.09-.02.17-.04.26-.07,0,.05-.01.1-.03.16Z" style="fill: #fff;"/>
              <path d="m24.28,46.78c.07.22.14.42.22.59-.03.18-.03.36,0,.53-.07.03-.15.06-.27.11-.05-.13-.1-.29-.13-.42-.12-.11-.21-.27-.31-.41.03-.28.07-.59.1-.87l.37-.06c.01.17.02.35.04.53Z" style="fill: #fff;"/>
              <path d="m26.85,52.83c.18-.07.44.08.72.19.15.04.32.11.46.19.09.05.1.06.24.15.17.12.34.25.51.37.68.5,1.39.79,1.92.72.11,0,.14-.03.11-.04-.05-.02.04,0,.06,0,.06.01.07.03.07.06.01.06,0,.14.32.14.28-.05.58-.04.86-.25l.43-.12.37-.09.02.14c-.19.02-.55.09-.8.15-.09.04-.18.1-.27.13l-.27.04c-.18.02-.36.03-.54.02h-.26s.03.07-.08.06c-.18-.01-.36-.06-.53-.11-.34-.1-.67-.26-1-.44-.32-.18-.65-.4-.97-.62-.22-.13-.28-.14-.45-.22-.16-.07-.3-.11-.47-.16-.14-.06-.27-.19-.44-.31Z" style="fill: #fff;"/>
              <path d="m33.18,53.71c.06,0,.11,0,.17,0,.07.1.11.24.46.18.26.06.54.13.78.19-.09.04-.17.06-.26.09-.58.04-.74.13-.95.12-.04-.08-.06-.13-.3-.16.02-.17-.14-.32.1-.42Z" style="fill: #fff;"/>
              <path d="m37.69,53.62c.05-.03.1-.06.13-.08.34-.07.7-.13,1.06-.2.15,0,.31.02.46.03.25-.01.5-.03.74-.04,0,.07.02.12.03.19-.97.24-1.97.49-2.94.74-.1.02-.21.04-.31.07-.32-.01-.63-.03-.96-.04-.13-.09-.23-.19-.36-.28.11.02.27.03.43.04.22.01.57,0,.84,0,.37-.11.81-.28.87-.41Z" style="fill: #fff;"/>
              <path d="m43.2,50.7s.07-.07.1-.09c.02-.04.05-.09.07-.14.06-.04.11-.09.16-.19.05-.02.09-.04.14-.06l.13.04.06.02h.13c-.05.13-.18.21-.18.36-.08,0-.16.01-.25.02l-.07.06c-.02.09-.03.18-.04.26-.04,0-.08-.01-.12-.01h-.06s-.03,0-.03,0l-.08.09.04-.1s0-.02,0-.03v-.03s0-.07,0-.07v-.15Z" style="fill: #fff;"/>
              <path d="m44.9,49.61l.78-.33c.25-.15.51-.31.72-.45l.58-.2c.24-.18,1.16-.56,1.03-.33.35-.21.69-.36,1.02-.5.02-.68.08-1.29.11-1.97,0-.18.01-.35.02-.53,0-.16,0-.32,0-.49,0-.07-.03-.14-.08-.24.06-.01.12,0,.18-.01l-.03-.25c-.07-.06-.13-.14-.18-.21,0-.04-.01-.07-.02-.1.03-.02.06-.05.09-.08.08-.07.17-.15.26-.21.05-.02.09-.04.14-.06.04-.01.08-.03.19-.11.02-.07.03-.13.04-.21.6-.53,1.35-1.19,2.04-1.8,0-.79,0-1.55-.03-2.12-.02-.12-.05-.23-.07-.41-.02-.21-.02-.38,0-.61.06-.1.11-.18.18-.25,0-.14,0-.28,0-.39l-.02-.23-.15-2.25-1.97-.08c-.38-.02-.77-.03-1.11-.05-.31,0-.6-.03-.88-.06-.32-.03-.63-.07-.94-.1-.27,0-.53,0-.79,0-.23,0-.45.01-.68.03-.2.1-.68-.01-1.11.17-.14-.22-1-.11-2.5-.25-.82-.05-1.6-.11-2.42-.16-1.05-.02-.04.33-2.01.16l-.57-.05c-.17,0-.45-.05-.49-.01-.19.07-.46.14-.8.2l.52,1.15c-.16-.22-.3-.41-.46-.63l-.36-.73.34-.08c.22.01.48.03.71.04-.03-.1.14-.11.23-.16.11-.04.22-.09.34-.13.33.05.66.1,1.01.15h1.51c.58-.08,1.28-.13,2.63-.06.06.06.16.12.26.18.24.09.71.04,1.31-.12.55,0,1,.01,1.4.01,0-.05.01-.09.17-.22.5.03.39.2.89.19.2-.1.64.04.73-.12h.18s1.48.16,1.48.16c.09-.03.18-.05.3-.06.13.04.24.08.37.13.27.06.51.11.78.17l.02-.02,2.35,2.59c.08.09.16.17.25.29v.25c-.33-.23-.11.71-.24,1.47-.15-.18-.11,1.31-.06,1.53.03.19.05.4.06.62-.59.61-1.38,1.3-1.92,1.97-.18.13-.24.15-.35.21-.08.04-.1.02-.15.04-.03.1-.04.19-.06.28-.07.02-.14.04-.2.06l-.02.04c.03.09.06.18.1.28-.01.02-.03.04-.05.06.03.07.06.14.08.2l-.02,2.97c-.03.1-.05.2-.07.31-.41.12-.68.36-1.21.53-.38.11-.72.21-1.11.33-.25.16-.63.32-1.01.47-.19.08-.37.16-.55.24-.08.04-.16.08-.24.12-.05.03-.09.05-.13.08-.2.04-.42.09-.65.13l.32-.38Z" style="fill: #fff;"/>
              <path d="m48.11,45.56v-.87c.11.01.22.03.33.04,0,.03,0,.05,0,.08l-.05.87c-.12-.05-.2-.08-.27-.11Z" style="fill: #fff;"/>
              <path d="m48.32,44.23c.12-.17.15-.29.23-.21,0,.15,0,.28-.06.41-.06-.06-.12-.12-.17-.21Z" style="fill: #fff;"/>
              <path d="m51.17,39.64c-.06-.16-.08-.35-.08-.55,0-.18,0-.35,0-.53,0-.17,0-.36,0-.53.08-.05.15-.07.23-.11.01.33.02.68.03,1.01,0,.33-.1.5-.18.71Z" style="fill: #fff;"/>
              <path d="m51.33,37.67v-.16s-.12-1.75-.12-1.75l-1.52-.05-.93-.03c-.37-.12-.36-.18-.34-.26.45.07.85.08,1.28.11l1.75.11.05,1.87v.18c-.08-.01-.13-.02-.17-.02Z" style="fill: #fff;"/>
              <path d="m37.71,35.74c-.15-.05-.31-.11-.46-.16-.13-.04-.19-.05-.3-.08,0-.1.29-.07.52-.07.23,0,.47,0,.69,0,.67.14.13.32-.45.31Z" style="fill: #fff;"/>
              <path d="m37.02,36.55c.14.34.28.68.42.99-.31-.12-.89-1.2-.69-1.33.09.12.18.25.27.33Z" style="fill: #fff;"/>
              <path d="m39.64,39.24c-.15,0-.03-.12-.05-.19.06-.02.11-.03.13-.03.02,0,.04,0,.02,0,0-.02,0,.04,0,.1l.02.16c.01.11.03.21.05.32.02.17.04.3.08.44l.07.19s.02.07.03.1c.03.06.07.12.11.16,0,0,0,.02.01.02.02.02,0,.01,0,0v-.02s-.06-.05-.07-.08c-.06-.08-.04-.11-.12-.28-.07-.16-.1-.33-.12-.52-.03-.11-.05-.29-.06-.34h0s-.08-.03-.12-.02Z" style="fill: #fff;"/>
              <path d="m35.22,38.86c-.16-.14-.15-.49-.24-.66-.01-.44.03-.76.21-.65.07.23.13.45.19.66l-.16.65Z" style="fill: #fff;"/>
              <path d="m28.7,54.27c.5.3.9.27,1.33.77-.47-.18-.91-.45-1.33-.77Z" style="fill: #fff;"/>
              <path d="m35.07,54.49h.66c.1,0,.19-.01.27-.02.13-.01.25-.02.36-.03.22-.02.38-.04.5-.06.12-.05.21-.09.3-.13.97-.24,1.97-.49,2.94-.74.01.07.02.14.03.22.14-.03.28-.07.47-.11.01.05.02.11.03.17-1.42.47-1.5.53-1.78.51l-1.94.49h-2.13c-.37.05-.35-.09-.5-.19.27-.04.55-.08.79-.12Z" style="fill: #fff;"/>
              <path d="m35.09,54.3h.66c.06,0,.11-.02.14-.03.32.01.64.03.96.04.1-.02.2-.04.31-.07-.09.04-.18.08-.3.13-.13.02-.29.04-.5.06-.11,0-.23.02-.36.03-.08,0-.17.02-.27.03h-.66c0-.07.01-.13.02-.2Z" style="fill: #fff;"/>
              <path d="m40.61,53.62c.39-.11.76-.22,1.13-.32.28,0,.58-.05.91-.13.12-.24.24-.48.37-.74.25-.39.49-.77.75-1.17-.3.69-.62,1.45-.93,2.16-.09.03-.18.06-.26.09-.64.09-1.29.19-1.93.29-.01-.06-.02-.12-.03-.17Z" style="fill: #fff;"/>
              <path d="m44.04,50.89s.03-.04.03-.07c.03-.04.14-.12.2-.18.15-.13.3-.26.53-.35.17-.02.35-.05.52-.07l-.55.47c-.31.09-.78.26-.74.21Z" style="fill: #fff;"/>
              <path d="m49.92,44.29c-.02-.07-.01-.12.02-.17.02-.03.01-.02.07-.08l.28-.24c.38-.26.79-.54,1.17-.8.29-.33.63-.72.94-1.06l.08-.1c-.06-.52-.06-1.14.04-2.62.04.26.08.47.12.73,0,.49,0,.94-.01,1.43.09.19.17.38.25.63,0,0,0,.02,0,.03-.11.11-.21.22-.31.34-.4.34-.77.64-1.15.96-.23.2-.5.44-.73.65l-.25.17-.15.09c-.13.08-.12.04-.16.05-.06,0-.13,0-.21,0Z" style="fill: #fff;"/>
              <path d="m48.13,34.31c-.61-.15-.94-.21-.94-.1,0-.1.32-.05.94.1Z" style="fill: #fff;"/>
              <path d="m39.67,34.11c.46-.1,1.33-.05,1.87-.12l.77.23-.77-.23c-.54.07-1.41.02-1.87.12Z" style="fill: #fff;"/>
              <path d="m35.66,36.78c.23.27.65.81,1.14,2.24-.37-.76-.74-1.47-1.14-2.24Z" style="fill: #fff;"/>
              <path d="m39.34,38.02c-.08-.06-.16-.1-.27-.16-.06,0-.1,0-.18-.01l-.32-.06c-.27,0-.55,0-.81-.01-.04,0-.09,0-.13,0-.22-.02-.44-.04-.67-.07-.08,0-.16.01-.25.02-.05.03-.15.06-.2.08-.16.02-.27.04-.39.06-.26-.05-.53-.11-.8-.16l-.25.03c-.34.08-.63.15-.93.22-.04-.01-.06-.03-.1-.05l3.55,2.68.03-.04c.03-.25.06-.5.09-.78.17.16.21.49.27.77l-3.99-3.01c.1-.02.2-.05.28-.08.38-.07.79-.14,1.18-.21.14-.02.27-.04.38-.05.06.04.11.08.14.12.1.02.52-.02.81-.03.06-.03.13-.06.17-.09.15-.04.26-.08.38-.13.15,0,.32.01.49.02.17.01.33.02.48.03.13.03.25.07.39.11.03.01.06.03.09.04-.04.09-.07.16-.11.25.12.04.22.08.32.12.05.02.1.04.15.06.29.15.21-.12.44,0,.1.06.03.16-.17.34-.02,0-.05-.01-.07-.01Z" style="fill: #fff;"/>
              <path d="m36.77,37.27c-.29.01-.71.05-.81.03-.03-.04-.08-.08-.14-.12l1.11-.16.39.03c-.12.05-.24.09-.38.13-.04.03-.1.06-.17.09Z" style="fill: #fff;"/>
              <path d="m36.12,37.86c-.3.17-.79.19-1.31.28-.16.08-.35.17-.52.25-.06,0-.12.01-.17.02l2.97,2.24c0-.2-.02-.4-.03-.61-.03-.48-.07-.94-.1-1.44.19.08.37.16.56.27.06.29.12.58.19.89-.03.28-.06.54-.09.78l-.03.04-3.55-2.68s.06.03.1.05c.3-.07.59-.14.93-.22l.25-.03c.28.06.55.11.8.16Z" style="fill: #fff;"/>
              <path d="m37.52,38.87c-.19-.11-.38-.19-.56-.27-.07-.49-.13-.94-.18-1.42-.06-.29-.11-.57-.15-.84l.06-.21c.02-.06.05-.06.07-.14-.01-.88.21-.32.33-.37.02.09.04.17.05.26v.07s.01.03.01.03v.02s0,0,0,0h0s0,0,0,0h-.15s.03,0,.03,0c.2,0,.1,0,.13,0h0s.02.04.03.06c.01.03.02.12.02.18-.11.24-.21.52-.31.83.15.11.29.24.43.38.06.48.12.94.18,1.42Z" style="fill: #fff;"/>
              <path d="m36.91,37.08c.1-.31.2-.59.31-.83.03.35.08.78.12,1.2-.14-.14-.28-.27-.43-.38Z" style="fill: #fff;"/>
              <path d="m36.58,36.23l-.02-.16v-.06c-.02-.11-.03-.27-.04-.39-.06-.54-.3-1.15-.62-1.57-.69-1.05-1.45-1.42-2.12-1.71.41-.03.94.02,1.49.22.38.25.83.65,1.19,1.21.37.55.6,1.27.64,1.85-.12.05-.34-.51-.33.37-.02.07-.05.08-.07.14l-.06.21s-.03-.09-.05-.11Z" style="fill: #fff;"/>
              <path d="m31.13,33.11h-.15s-.14-.07-.14-.07c.03-.09.06-.18.09-.26l.12-.03.09-.06c.07.04.16.07.23.1-.06.1-.15.21-.25.31Z" style="fill: #fff;"/>
              <path d="m33.78,32.34c-.23,0-.33-.03-.72-.08l-.28-.03h-.08c-.07.02-.15.03-.24.05-.06.02-.11.04-.14.04-.21.03-.41.06-.61.08l-.29.04-.12.04s-.08,0-.11,0c-.02.08-.03.15-.05.22l-.09.06-.12.03c-.04-.1-.07-.2-.1-.29.04-.03.08-.07.11-.1l-.09-.13c-.06-.06-.17-.14-.24-.21-.17-.06-.35-.12-.5-.17-.22-.08-.42-.15-.63-.23-.13-.06-.25-.11-.35-.16-.37-.4-.16-.45-.15-.56.34.03.92.45,1.08.28.34.15.72.32,1.09.48l.13.06h.1s.06-.03.08-.04c.01-.01.15-.02.21-.02.14,0,.25,0,.38,0h.7s.26.01.26.01l.17.03c.21.03.25.04.35.07l.25.06c.16.04.32.1.49.16.32.12.68.29,1.05.54-.56-.2-1.08-.25-1.49-.22Z" style="fill: #fff;"/>
              <path d="m30.83,32.5c-.2-.09-.42-.18-.61-.27-.05-.13-.09-.23-.12-.35.15.05.34.11.5.17.08.07.19.15.24.21l.09.13s-.07.07-.11.1Z" style="fill: #fff;"/>
              <path d="m34.11,34.59c.57.13,1.28,2.05,1.55,2.2.4.77.77,1.48,1.14,2.24.1.23.2.45.28.67l.06.17c0,.06.05,0,.1-.04l.14-.12.28-.24.03-.03.02-.02h0s0,0,0,0h0s2.46,1.13,2.46,1.13h0s0,0,0,0h-.01s-.02-.02-.02-.02h0s0,0-.05-.05c-.06-.06-.1-.13-.11-.21-.02-.07-.1-.23-.12-.35-.04-.14-.02-.23-.07-.43-.03-.18-.05-.35-.06-.53v-.26s-.02-.33-.02-.33c0-.22,0-.43,0-.64,0-.08.02-.27.02-.25,0,0,0-.01,0-.02,0-.01.01-.03.01-.04l-.02.31c-.08,1.51.19,2.63.39,2.78,0,.01.01.02.03.03h.01s0,.01,0,.01h0s-2.89-1.33-2.89-1.33h0s0,0,0,0h0s-.01.02-.01.02l-.02.02-.17.18-.34.35c-.07.04-.05-.11-.08-.15-.16-.36-.35-.73-.56-1.17-.33-.53-.69-1.12-1.02-1.66-.34-.77-.63-1.45-.97-2.21Z" style="fill: #fff;"/>
              <path d="m21.38,44.58l-.02.04c.05.29.08.62.1.99.01.36.03.7.04,1.06,0,.62.01,1.28.16,1.81.06.56.22,1.11.52,1.64.73.57,2.08,1.32,2.85,1.56h.01c.09.08.2.16.34.23.11.05.24.1.37.15.29.08.6.16.94.25.31.08.62.18.87.31.2-.03.37.07.51.18.08.06.13.12.2.18.04.03.05.05.11.09.09.06.16.11.24.17.54.38,1.12.77,1.74.97.15.04.34.1.46.07.01-.01,0-.02-.01-.04,0-.01.07,0,.1-.01l.24-.02c.31-.06.64-.05.92-.27.23-.07.45-.14.68-.21.17-.02.35-.04.43-.02-.24.1-.08.25-.1.42l-.17.03-.37.09-.43.12c-.28.21-.58.2-.86.25-.04,0-.13.01-.21.02-.08.01-.27,0-.25.02.06.03-.09.03-.2.01-.22-.04-.42-.11-.62-.2-.41-.17-.79-.43-1.15-.7-.18-.14-.36-.27-.53-.4l-.14-.1-.11-.07c-.15-.08-.31-.15-.46-.18-.23-.07-.47-.13-.72-.19-.32-.11-.64-.21-.98-.3l-.23-.06-.41-.13-.4-.15-.31-.16c-.43-.23-.89-.51-1.29-.78-.29-.19-.57-.4-.84-.61l-.18-.21-.11-.26c-.19-.23-.33-.44-.47-.66-.18-.47-.27-.92-.31-1.38-.06-.42,0-1.1-.17-1.48l.1-1.85c.03-.07.05-.15.08-.18.02-.02.04-.02.05-.02Z" style="fill: #fff;"/>
              <path d="m21.01,46.84s.09-.12.14-.2c-.05.08-.09.17-.14.2Z" style="fill: #fff;"/>
              <path d="m35.9,54.28s-.09.03-.14.04c.06,0,.11-.03.14-.04Z" style="fill: #fff;"/>
              <path d="m35.71,34.09c.06.16.1.32.09.41,0-.09-.04-.25-.09-.41Z" style="fill: #fff;"/>
              <path d="m45.34,50.21c.07-.04.13-.08.18-.12.11-.06.22-.12.32-.17.23-.11.42-.21.61-.3.39-.19.76-.35,1.13-.5.72-.31,1.41-.58,2.07-.91,0-.11-.01-.22-.02-.35.03-.38.06-.79.09-1.17.02-.54.04-1.02.06-1.56.12.24.23.5.35.84,0,.07,0,.21,0,.28-.05.72-.1,1.45-.14,2.18l-.56.19c-.42.18-.88.38-1.3.55-.62.21-.84.44-1.31.66-.27.08-.55.15-.82.23l-.41.11c-.11.02-.16.03-.24.04Z" style="fill: #fff;"/>
              <path d="m52.52,39.22c.02-.72-.14-.33-.16-1.17v-.25c.02-.1.04-.19.05-.29l.35-2.08-2.97-.8c-.08-.02-.16-.04-.25-.07.01-.05.03-.12.04-.17.08,0,.16,0,.23,0l2.65.03.18,3.09c0,.11.01.22.02.33-.02.11-.04.21-.06.38,0,.09-.02.19-.03.32,0,.07-.02.14-.02.22,0,.14-.02.29-.03.46Z" style="fill: #fff;"/>
              <path d="m39.42,34.1c-.61.17-.83.17-1.79.13-.41.07-.82.14-1.21.21l-.44-.04c-.15-.01-.31-.03-.37-.02-.2,0-.4.02-.6.03-.1.04-.24.08-.36.12.15.26.29.52.44.77,0,.28.04.58.57,1.48-.27-.14-.97-2.07-1.55-2.2l-.32-.64.4-.03c.29.05.55.1.81.14.12,0,.2-.02.32-.02l.49.02c.32,0,.64.02.97.03.15,0,.3,0,.5,0,.7,0,1.45.01,2.15.02Z" style="fill: #fff;"/>
              <path d="m39.67,34.11c-.1,0-.2,0-.25,0,.05,0,.15,0,.25,0Z" style="fill: #fff;"/>
              <path d="m39.34,38.02l-.28.07c-.11.02-.17.05-.4.02-.05-.02-.09-.04-.14-.06-.29-.08-.52-.15-.76-.23-.04-.01-.08-.03-.13-.04.04,0,.09,0,.13,0,.26,0,.54,0,.81.01l.32.06c.08,0,.12,0,.18.01.11.06.18.1.27.16Z" style="fill: #fff;"/>
              <path d="m39.41,38.03s-.05-.01-.07-.01c.02,0,.05.01.07.01Z" style="fill: #fff;"/>
              <path d="m36.64,36.34s-.03-.09-.05-.11c.02.02.04.07.05.11Z" style="fill: #fff;"/>
            </g>
          </g>
        </g>
        <path d="m47.01,30.01h7l1-9,3-1,10-1h7.4l1.89-4.93-3.78-3.03-2.27-2.99-6.24-3.04-3,3s-3.48,3.07-4.74,3.03-5.29,0-5.29,0h-2.27l-1.13,2.99-.38,3.27-1.51,3.6s.32-.89.32,1.11v8Z" style="fill: #7dd1a7;"/>
        <path d="m27.51,33.51l3.11,1.32h2.08s1.31.18,1.31,1.18.5,4.96.5,4.96l3-.46s3,1,3,0-1.19-3.27-1.19-3.27h7.37l2.82.27v3s-2.82,2.54-2.82,2.54v3.21l-5.18,2.25-1,2-4,1h-3.24c-.76,0-2.26.5-2.26.5,0,0,.22.5-1.14-.5s-3.86-1.5-3.86-1.5l-2-1s-.5-.5-.5-1.5v-2l2.5-2.5s2-1,2-2-.5-4.5-.5-4.5v-3Z" style="fill: #7dd1a7;"/>
      </g>
      <rect x=".51" y=".51" width="99" height="84.5" rx="5.14" ry="5.14" style="fill: none; stroke: gray; stroke-dasharray: 0 0 3.08 5.14; stroke-miterlimit: 10; stroke-width: 1.03px;"/>
    </g>
  </g>
</svg>