<svg xmlns="http://www.w3.org/2000/svg" xmlns:xlink="http://www.w3.org/1999/xlink" width="296.14" height="55.916" viewBox="0 0 296.14 55.916">
  <defs>
    <clipPath id="clip-path">
      <rect id="矩形_4" data-name="矩形 4" width="296.14" height="55.916" transform="translate(0 0)" fill="none"/>
    </clipPath>
  </defs>
  <g id="logo" transform="translate(0 0)">
    <g id="组_1" data-name="组 1" clip-path="url(#clip-path)">
      <path id="路径_10" data-name="路径 10" d="M19.81,1.27l-.17.24-.54.72-.18.24-.23.3-.25.35-.23.3-.48.65-.37.48-.89,1.19-.19.25v.06l-.14.17v.06l-.24.31L15,7.65l-.18.25-.49.65-.47.64-.22.33h-.06l-.18.23-1.5,2-.42.55-.45.6-.46.62-.07.1-.59.74-.18.29H20.84l-.5.77v.06l-.32.41v.06l-.12.19-.18.24-.54.72-.59.77-.31.42-.28.45-.3.42-.71,1-.18.24-.48.66v.06l-.24.3-.18.24-.3.41-.18.24-.48.66-.37.48-.11.16L13,25.41l-.32.41-.18.24-.71,1-.23.3-.48.66-.54.71-.19.24-.37.47c-.05.09-.1.18-.14.27H20.93v9.58c0,.45.06.4-.39.4H0V.02H.06A2.2,2.2,0,0,0,.43.08h19a6.582,6.582,0,0,1,1.09.06l-.35.62V.85Z" fill="#fff"/>
      <path id="路径_11" data-name="路径 11" d="M42.22,23.74h0l.3-.17.65-.37.72-.54.6-.57,1.66-2,.3-.46.34-.78.38-.9.31-1.35v-.31h.05l.08-1.55H35.54l-.72.1-2,.55-.72.29-.18.11-.84.49-1.32,1-.06.1-.45.44-.18.2-.46.48-.67,1c.09.25-.1.33-.24.43l-.52,1-.12.35-.25,1-.11.54-.07.47v.65c0,.61,0,.61.65.61H37.8l-.13-.09h.13a1.843,1.843,0,0,0-.33-.06H26.88v-.06h10.6a1.79,1.79,0,0,1,.39.08h-.06v.32h.18l.8-.06,1.54-.24.32-.1.23-.07Z" fill="#fff"/>
      <path id="路径_12" data-name="路径 12" d="M44,37.48l-.36.34-.61.4-1,.54-.7.31-1.8.52h-.11l-.72.11H26.53v-.46l.34-2.1.25-.83.09-.31,1.38-2.39.19-.23.26-.31,1-1,.07-.07.31-.22.28-.2.49-.34,2.28-1.07h.1l.83-.18.3-.06.31-.1h.6c.06,0,.13.1.2.11H47.27a.45.45,0,0,1,.39.23v.3l-.11.84-.05.3-.12.55v.21c-.1.29-.19.57-.28.85a.07.07,0,0,0,0,.06l-.25.6-.11.2-.43.8-.34.56-.3.41-.43.54Z" fill="#fff"/>
      <path id="路径_13" data-name="路径 13" d="M31.65.98,32.79.45h.18l.29-.09L33.63.2l.35-.08.7-.12h1.7V.06H36V.12H47a1.863,1.863,0,0,0,.34-.06c.18,0,.26,0,.25.23s0,.49,0,.74l-.11.82-.07.3-.25,1.07-.19.49-.07.27-.28.49v.11l-.42.77-.51.67-.32.4-.4.5-.9.83-.2.17-.48.35-.36.24-.18.11a.088.088,0,0,0-.06,0l-.36.21-.25.12h-.11l-.17.08-.12.06-1.32.47-.54.11-.41.07-.71.11s-.06-.09-.08-.09H27.22a1.781,1.781,0,0,0-.34.06h-.23v-.6l.07-1.06c.08-.34.16-.68.23-1a.152.152,0,0,0,0-.06l.42-1.19.28-.6.19-.35m.05,0,.18-.31.35-.54.3-.35.41-.48.19-.19.35-.41.6-.52.48-.38Z" fill="#fff"/>
      <path id="路径_14" data-name="路径 14" d="M26.82,8.5h-.06v.15h.05a.841.841,0,0,1,.01-.15" fill="#fff"/>
      <path id="路径_15" data-name="路径 15" d="M.3,55.74V46.41H5.62v.89H1.36v3.07H4.94v.89H1.36v3.59h4.4v.89Z" fill="#fff"/>
      <path id="路径_16" data-name="路径 16" d="M6.66,55.74l2.75-4.82L6.84,46.41H8l1.32,2.47.54,1,.2.38h.07a.282.282,0,0,1,.07-.17c.26-.52.45-.92.59-1.17l1.33-2.47h1.09l-2.56,4.56,2.74,4.77H12.23l-1.43-2.6-.39-.73-.42-.78c-.25.51-.51,1-.77,1.51L7.8,55.78Z" fill="#fff"/>
      <path id="路径_17" data-name="路径 17" d="M14.93,55.74V46.41h2.59a4.395,4.395,0,0,1,2.52.59,2.421,2.421,0,0,1,1,2.11,2.569,2.569,0,0,1-1,2.15,3.84,3.84,0,0,1-2.47.7H16v3.78Zm1.06-4.64h1.43a3.091,3.091,0,0,0,1.9-.48,1.791,1.791,0,0,0,.62-1.51,1.641,1.641,0,0,0-.65-1.46,3.636,3.636,0,0,0-1.93-.39H16Z" fill="#fff"/>
      <path id="路径_18" data-name="路径 18" d="M22.91,55.74V46.41H24v8.44h4.12v.89Z" fill="#fff"/>
      <path id="路径_19" data-name="路径 19" d="M32.79,55.91a3.5,3.5,0,0,1-2.84-1.32,5.4,5.4,0,0,1-1.11-3.56,5.23,5.23,0,0,1,1.11-3.5,3.511,3.511,0,0,1,2.83-1.29,3.551,3.551,0,0,1,2.85,1.29,5.189,5.189,0,0,1,1.11,3.5,5.4,5.4,0,0,1-1.11,3.56,3.512,3.512,0,0,1-2.84,1.32m-2.08-2a2.56,2.56,0,0,0,4.16,0,4.762,4.762,0,0,0,.78-2.87,4.584,4.584,0,0,0-.78-2.82,2.6,2.6,0,0,0-3.638-.532,2.63,2.63,0,0,0-.532.532,4.637,4.637,0,0,0-.77,2.81,4.762,4.762,0,0,0,.78,2.87Z" fill="#fff"/>
      <path id="路径_20" data-name="路径 20" d="M38.79,55.74V46.41h2.86c2.15,0,3.22.86,3.22,2.58a2.57,2.57,0,0,1-.58,1.75,2.877,2.877,0,0,1-1.58.87l2.41,4.13H43.93l-2.33-4H39.85v4Zm1.06-4.9h1.63c1.56,0,2.33-.61,2.33-1.85a1.531,1.531,0,0,0-.6-1.35,3.149,3.149,0,0,0-1.73-.38H39.85Z" fill="#fff"/>
      <path id="路径_21" data-name="路径 21" d="M45.5,55.74l3.19-9.33h1.16l3.2,9.33H51.93l-.94-3H47.51l-.95,3Zm2.28-3.78h3l-.49-1.51c-.24-.72-.56-1.77-1-3.16-.27,1-.59,2-1,3.16Z" fill="#fff"/>
      <path id="路径_22" data-name="路径 22" d="M55.61,55.74V47.3H52.77v-.89h6.77v.89H56.68v8.44Z" fill="#fff"/>
      <path id="路径_23" data-name="路径 23" d="M64.3,55.91a3.512,3.512,0,0,1-2.84-1.32,5.448,5.448,0,0,1-1.1-3.56,5.284,5.284,0,0,1,1.1-3.5,3.77,3.77,0,0,1,5.319-.361,3.728,3.728,0,0,1,.361.361,5.189,5.189,0,0,1,1.11,3.5,5.4,5.4,0,0,1-1.11,3.56,3.5,3.5,0,0,1-2.84,1.32m-2.08-2a2.557,2.557,0,0,0,4.16,0,4.764,4.764,0,0,0,.79-2.87,4.584,4.584,0,0,0-.78-2.82,2.489,2.489,0,0,0-2.09-1,2.46,2.46,0,0,0-2.08,1,4.567,4.567,0,0,0-.78,2.81,4.762,4.762,0,0,0,.78,2.87Z" fill="#fff"/>
      <path id="路径_24" data-name="路径 24" d="M70.3,55.74V46.41h2.86c2.15,0,3.23.86,3.23,2.58a2.569,2.569,0,0,1-.59,1.75,2.812,2.812,0,0,1-1.58.87l2.41,4.13H75.44l-2.33-4H71.36v4Zm1.06-4.9H73c1.56,0,2.34-.61,2.34-1.85a1.531,1.531,0,0,0-.6-1.35A3.176,3.176,0,0,0,73,47.26H71.37Z" fill="#fff"/>
      <rect id="矩形_1" data-name="矩形 1" width="1.06" height="9.33" transform="translate(78.3 46.41)" fill="#fff"/>
      <path id="路径_25" data-name="路径 25" d="M85.22,55.91a3.058,3.058,0,0,1-2.33-.87,4.26,4.26,0,0,1-1-3.09V46.41H83v5.55c0,2,.75,3,2.24,3s2.3-1,2.3-3V46.41h1v5.54a4.3,4.3,0,0,1-1,3.09,3.109,3.109,0,0,1-2.32.87" fill="#fff"/>
      <path id="路径_26" data-name="路径 26" d="M91.09,55.74V46.41h1.3l1.84,5.1c.07.22.19.55.34,1s.26.77.33,1H95l.43-1.33c.1-.3.17-.52.22-.66l1.82-5.1h1.3v9.32h-1V50.35q0-.7.12-2.4v-.31h-.05l-.74,2.1-1.83,5h-.72l-1.84-5L92,47.64h-.05v.31q.12,1.7.12,2.4v5.39Z" fill="#fff"/>
      <path id="路径_27" data-name="路径 27" d="M107.59,55.91a3.5,3.5,0,0,1-2.84-1.32,5.4,5.4,0,0,1-1.11-3.56,5.23,5.23,0,0,1,1.11-3.5,3.76,3.76,0,0,1,5.305-.365,3.7,3.7,0,0,1,.365.365,5.189,5.189,0,0,1,1.11,3.5,5.4,5.4,0,0,1-1.11,3.56,3.48,3.48,0,0,1-2.83,1.32m-2.08-2a2.557,2.557,0,0,0,4.16,0,4.762,4.762,0,0,0,.78-2.87,4.584,4.584,0,0,0-.78-2.82,2.6,2.6,0,0,0-3.638-.532,2.63,2.63,0,0,0-.532.532,4.567,4.567,0,0,0-.78,2.81,4.764,4.764,0,0,0,.79,2.87Z" fill="#fff"/>
      <path id="路径_28" data-name="路径 28" d="M113.59,55.74V46.41h5.3v.89h-4.24v3.29h3.59v.89h-3.59v4.26Z" fill="#fff"/>
      <path id="路径_29" data-name="路径 29" d="M123.39,55.74V46.41h5.32v.89h-4.26v3.07H128v.89h-3.59v3.59h4.4v.89Z" fill="#fff"/>
      <path id="路径_30" data-name="路径 30" d="M130.84,55.74V46.41h1.09l3.53,6,1,1.91h.06a2.207,2.207,0,0,0,0-.23c-.09-1.2-.13-2.09-.13-2.67v-5h1v9.32h-1.1l-3.51-6-1-1.92h-.06v.68c.06,1,.09,1.67.09,2.17v5.07Z" fill="#fff"/>
      <path id="路径_31" data-name="路径 31" d="M141.72,55.74l-3-9.33h1.11l1.57,5.15c.08.26.18.63.32,1.11.24.84.44,1.5.6,2h.05c.14-.41.32-1,.54-1.76q.24-.859.39-1.32l1.54-5.15h1.08l-3,9.33Z" fill="#fff"/>
      <rect id="矩形_2" data-name="矩形 2" width="1.06" height="9.33" transform="translate(147.23 46.41)" fill="#fff"/>
      <path id="路径_32" data-name="路径 32" d="M150.89,55.74V46.41h2.86c2.15,0,3.22.86,3.22,2.58a2.57,2.57,0,0,1-.58,1.75,2.877,2.877,0,0,1-1.58.87l2.41,4.13H156l-2.33-4H152v4Zm1.06-4.9h1.63c1.56,0,2.33-.61,2.33-1.85a1.531,1.531,0,0,0-.6-1.35,3.149,3.149,0,0,0-1.73-.38H152Z" fill="#fff"/>
      <path id="路径_33" data-name="路径 33" d="M162.28,55.91a3.49,3.49,0,0,1-2.83-1.32,5.4,5.4,0,0,1-1.11-3.56,5.231,5.231,0,0,1,1.11-3.5,3.48,3.48,0,0,1,2.83-1.29,3.529,3.529,0,0,1,2.84,1.29,5.189,5.189,0,0,1,1.11,3.5,5.4,5.4,0,0,1-1.11,3.56,3.5,3.5,0,0,1-2.84,1.32m-2.07-2a2.55,2.55,0,0,0,4.15,0,4.7,4.7,0,0,0,.79-2.87,4.583,4.583,0,0,0-.78-2.82,2.489,2.489,0,0,0-2.09-1,2.46,2.46,0,0,0-2.08,1,4.567,4.567,0,0,0-.78,2.81,4.7,4.7,0,0,0,.79,2.87Z" fill="#fff"/>
      <path id="路径_34" data-name="路径 34" d="M168.29,55.74V46.41h1.08l3.53,6,1,1.91h.1a2.207,2.207,0,0,0,0-.23c-.08-1.2-.13-2.09-.13-2.67v-5h1v9.32h-1.1l-3.5-6-1-1.92h-.07v.68c.06,1,.09,1.67.09,2.17v5.07Z" fill="#fff"/>
      <path id="路径_35" data-name="路径 35" d="M177.44,55.74V46.41h1.3l1.84,5.1c.08.22.19.55.34,1l.34,1h.06c.1-.3.25-.74.43-1.33.1-.3.17-.52.22-.66l1.82-5.1h1.3v9.32h-1V50.35q0-.7.12-2.4v-.31h-.05l-.74,2.12-1.83,5h-.72l-1.84-5-.74-2.12h-.05v.31q.12,1.7.12,2.4v5.39Z" fill="#fff"/>
      <path id="路径_36" data-name="路径 36" d="M187.7,55.74V46.41H193v.89h-4.26v3.07h3.59v.89h-3.59v3.59h4.4v.89Z" fill="#fff"/>
      <path id="路径_37" data-name="路径 37" d="M195.14,55.74V46.41h1.09l3.53,6,1,1.91h.06a2.207,2.207,0,0,0,0-.23c-.09-1.2-.13-2.09-.13-2.67v-5h1v9.32h-1.1l-3.51-6-1-1.92H196v.68c.06,1,.09,1.67.09,2.17v5.07Z" fill="#fff"/>
      <path id="路径_38" data-name="路径 38" d="M206.25,55.74V47.3h-2.84v-.89h6.77v.89h-2.86v8.44Z" fill="#fff"/>
      <path id="路径_39" data-name="路径 39" d="M210.06,55.74l3.19-9.33h1.16l3.2,9.33h-1.12l-.93-3h-3.48l-1,3Zm2.29-3.78h2.94l-.48-1.51c-.24-.72-.56-1.77-1-3.16-.27,1-.59,2-1,3.16Z" fill="#fff"/>
      <path id="路径_40" data-name="路径 40" d="M219,55.74V46.41h1v8.44h4.12v.89Z" fill="#fff"/>
      <path id="路径_41" data-name="路径 41" d="M228.65,55.74V46.41H234v.89h-4.3v3.07h3.59v.89H229.7v3.59h4.4v.89Z" fill="#fff"/>
      <path id="路径_42" data-name="路径 42" d="M236.09,55.74V46.41h2.3a4.2,4.2,0,0,1,3.25,1.21,4.848,4.848,0,0,1,1.11,3.42,5,5,0,0,1-1.1,3.45,4.1,4.1,0,0,1-3.22,1.25Zm1.06-.87h1.15a3.161,3.161,0,0,0,2.54-1,4.276,4.276,0,0,0,.83-2.81,4.2,4.2,0,0,0-.83-2.79,3.21,3.21,0,0,0-2.54-1h-1.15Z" fill="#fff"/>
      <path id="路径_43" data-name="路径 43" d="M248.07,55.91a3.1,3.1,0,0,1-2.34-.87,4.3,4.3,0,0,1-1-3.09V46.41h1.05v5.55q0,3,2.25,3c1.5,0,2.29-1,2.29-3V46.41h1v5.54a4.349,4.349,0,0,1-.95,3.09,3.138,3.138,0,0,1-2.3.87" fill="#fff"/>
      <path id="路径_44" data-name="路径 44" d="M257.4,55.91a3.6,3.6,0,0,1-2.87-1.29,5.271,5.271,0,0,1-1.14-3.55,5.169,5.169,0,0,1,1.16-3.54,3.709,3.709,0,0,1,2.93-1.29,3.328,3.328,0,0,1,2.54,1.13l-.59.69a2.522,2.522,0,0,0-1.94-.89,2.662,2.662,0,0,0-2.2,1,4.487,4.487,0,0,0-.82,2.83,4.683,4.683,0,0,0,.8,2.87,2.619,2.619,0,0,0,2.19,1,2.859,2.859,0,0,0,2.2-1.07l.59.67a3.6,3.6,0,0,1-2.85,1.44" fill="#fff"/>
      <path id="路径_45" data-name="路径 45" d="M260.78,55.74l3.19-9.33h1.16l3.2,9.33h-1.12l-.93-3H262.8l-1,3Zm2.29-3.78H266l-.48-1.51c-.24-.72-.56-1.77-1-3.16h-.05c-.27,1-.59,2-1,3.16Z" fill="#fff"/>
      <path id="路径_46" data-name="路径 46" d="M270.9,55.74V47.3h-2.85v-.89h6.77v.89H272v8.44Z" fill="#fff"/>
      <rect id="矩形_3" data-name="矩形 3" width="1.06" height="9.33" transform="translate(276.52 46.41)" fill="#fff"/>
      <path id="路径_47" data-name="路径 47" d="M283.58,55.91a3.5,3.5,0,0,1-2.84-1.32,5.4,5.4,0,0,1-1.11-3.56,5.231,5.231,0,0,1,1.11-3.5,3.511,3.511,0,0,1,2.83-1.29,3.551,3.551,0,0,1,2.85,1.29,5.189,5.189,0,0,1,1.11,3.5,5.4,5.4,0,0,1-1.11,3.56,3.512,3.512,0,0,1-2.84,1.32m-2.08-2a2.56,2.56,0,0,0,4.16,0,4.762,4.762,0,0,0,.78-2.87,4.584,4.584,0,0,0-.78-2.82,2.6,2.6,0,0,0-3.638-.532,2.63,2.63,0,0,0-.532.532,4.637,4.637,0,0,0-.77,2.81,4.762,4.762,0,0,0,.78,2.87Z" fill="#fff"/>
      <path id="路径_48" data-name="路径 48" d="M289.58,55.74V46.41h1.08l3.54,6,1,1.91h.07v-.23c-.09-1.2-.13-2.09-.13-2.67v-5h1v9.32H295l-3.51-6-1-1.92h-.06v.68c.05,1,.08,1.67.08,2.17v5.07Z" fill="#fff"/>
      <path id="路径_49" data-name="路径 49" d="M51.449,28.819q-.1-.482.531-.58a6.744,6.744,0,0,0,2.512-1.787l.049-3.285q.192-1.642.241-3.382c0-.225-.089-.339-.266-.339a3.4,3.4,0,0,0-.555.049l-1.305.579q-.676.291-.725-.483-.241-.531.435-.676c.387-.1.66-.161.822-.193a1.957,1.957,0,0,1,.676-.145l.87-.242a34.661,34.661,0,0,0,.386-5.169l-.676.145a3.546,3.546,0,0,1-.58.048c-.1,0-.338-.024-.725-.072s-.612-.073-.676-.073a.518.518,0,0,0-.1-.29q-.194-.627.629-.676a1.29,1.29,0,0,0,.821.024,1.912,1.912,0,0,1,.773-.072c.1,0,.338-.008.724-.025a4.643,4.643,0,0,0,.774-.072h1.207c.032,0,.242-.016.628-.048s.612-.049.677-.049a9.709,9.709,0,0,0,1.932-.1,7.281,7.281,0,0,0,.822-.049,7.736,7.736,0,0,1,.821-.048h.386c.225.129.258.274.1.435a.446.446,0,0,1-.048.58.957.957,0,0,1-.677.048,3.112,3.112,0,0,0-1.449.145,5.119,5.119,0,0,0-.193,1.739q-.05,1.063-.048,2.126a5.989,5.989,0,0,0,1.5-.387.606.606,0,0,1,.531.677,4.868,4.868,0,0,1-1.449.58.923.923,0,0,0-.821.821l-.048,5.556a10.833,10.833,0,0,1,1.4-.58,6.782,6.782,0,0,1,1.835-.821.5.5,0,0,0,.484-.048q.385.29.144.628L53.381,31.186a.831.831,0,0,1-.58.29q-.579-1.3-1.352-2.657m1.4.918c0,.065.049.1.146.1.193-.064.144-.1-.146-.1m2.078-4.445.1,1.305a2.359,2.359,0,0,0,.194-1.5,18.47,18.47,0,0,1,.1-2.657c-.065-.225-.144-.242-.241-.048a2.653,2.653,0,0,1-.1,1.014,12.242,12.242,0,0,1-.048,1.884m.386-7.247.049.1a6.275,6.275,0,0,0,.29-2.464h-.1Zm.822,3.044.1.193.339-1.546c-.29.129-.4.4-.339.822a.762.762,0,0,1-.1.531m.386-1.546c.1-.032.129-.145.1-.338-.1.032-.129.145-.1.338m.58,6.812a.2.2,0,0,0-.193.1c.064.226.128.193.193-.1m.145-3.14.1-.193q-.1-.241-.1.193m.145-9.663q.146.339.241-.483c-.322.033-.4.193-.241.483m.483.87a1.513,1.513,0,0,0-.1.435.474.474,0,0,0,.1-.435m.1,8.938.048.193a2.362,2.362,0,0,0,.048-1.063Zm1.063-3.672.144.242v-.918a.963.963,0,0,0-.144.676m5.7-3.768.049-.194a7.914,7.914,0,0,1,2.464-.193,4.991,4.991,0,0,0,.531-.072,4.806,4.806,0,0,1,.532-.073h1.352a3.072,3.072,0,0,0,.484-.048l2.125-.048a9.455,9.455,0,0,1,1.329-.1,7.1,7.1,0,0,0,1.3-.121,6.833,6.833,0,0,1,1.232-.121,34.535,34.535,0,0,1,4.059-.241c.031,0,.193-.016.483-.048a1.663,1.663,0,0,0,.483-.049l1.981-.241c.354-.032.732-.049,1.135-.049a3.722,3.722,0,0,0,1.184-.193q.146,0,.579-.024a2.615,2.615,0,0,0,.58-.073l.387-.048a.879.879,0,0,1,1.111.483,3.977,3.977,0,0,1-2.609.677,6.468,6.468,0,0,1-1.353-.049q-.435.049-.724.1l-1.643.145a3.061,3.061,0,0,1-.483.048,6.045,6.045,0,0,1-1.546.1,5.453,5.453,0,0,0-1.063.1l-1.256.1a7.687,7.687,0,0,1-.87.048H75.7c-.289.033-.451.049-.482.049l-2.561.193a6.985,6.985,0,0,1-1.16.1,33.576,33.576,0,0,1-3.672.289,6.2,6.2,0,0,1-1.014.1l-1.981.193a1.369,1.369,0,0,1-.1-.724m1.6-4.4q.385-3.816.579-7.633a.692.692,0,0,1,.435-.918,1.941,1.941,0,0,1,.773-.145l.484.1c.1,0,.345.017.748.049s.7.048.894.048l.773.1q.435.048.58.048a.423.423,0,0,1,.435.048l5.8.194q3.043.337,6.088.386a4.068,4.068,0,0,0,.676.048,5.244,5.244,0,0,1,2.609.484q.338,0,.338.386a6.205,6.205,0,0,1-.29,2.657,14.478,14.478,0,0,1-.434,3.527,1.251,1.251,0,0,1-.29.966,4.181,4.181,0,0,1-1.788.194,1.562,1.562,0,0,1-.87.145c-.289.032-.483.048-.579.048L81.016,12.2q-1.016,0-1.933.048-1.014.048-1.932.048l-2.367-.048c-.259.032-.532.057-.822.072s-.555.033-.8.049-.41.024-.507.024a1.3,1.3,0,0,1-.918-.048,3.847,3.847,0,0,0-.628-.049q-1.016,0-1.884.073t-1.836.072a2.058,2.058,0,0,1-.725-.145.664.664,0,0,1-.338-.773m5.024,24.5.1-1.111q.048-1.112.1-2.271a7.977,7.977,0,0,0-.194-1.739l-4.058,3.188a.828.828,0,0,1-.628.339q-.435-.387.145-.773a.841.841,0,0,0,.435-.58,57.855,57.855,0,0,0,3.575-6.088,1.467,1.467,0,0,0,.387-.628,11.637,11.637,0,0,0-1.5.483,1.272,1.272,0,0,1-.725.194c-.065-.1-.145-.209-.242-.339a.285.285,0,0,1-.434-.144l.048-2.319a9.714,9.714,0,0,1,.1-1.933q-.048-1.884.049-3.865a.521.521,0,0,1,.362-.411A.633.633,0,0,1,69.373,18l2.125-.145a18.611,18.611,0,0,1,1.933-.1h2.56c.032-.065.242-.1.628-.1.322-.032.532-.048.628-.048l2.416-.049a1.9,1.9,0,0,1,.628-.048c.322.032.532.048.628.048a4.659,4.659,0,0,1,1.353-.1,1.736,1.736,0,0,1,.773.821q-.241,1.063-.386,2.077l-.918,3.866a1.608,1.608,0,0,1-1.015.338,1.281,1.281,0,0,1-.918.048,1.065,1.065,0,0,0-.483.1,5.628,5.628,0,0,1-1.643.434,1.408,1.408,0,0,1-.821.049.9.9,0,0,1-.58.193A3.363,3.363,0,0,0,75.7,27.9q.048,2.754-.048,5.556a13.145,13.145,0,0,0,1.836-1.111.656.656,0,0,1,.676.1q.435.193.146.531-3.189,1.838-6.426,3.575c-.355-.031-.532-.209-.532-.531M68.261,4.373c.161.162.258.145.29-.048q-.048-.387-.29.048m.145,28.07a.6.6,0,0,0,.435-.194c-.226-.193-.37-.128-.435.194m.194-20.92h.241c-.162-.257-.241-.257-.241,0m.386,14.494a.085.085,0,0,0,.1.1c.225-.064.193-.1-.1-.1m.387-14.687a.085.085,0,0,0-.1.1c.064.193.1.161.1-.1m.434,9.179a.38.38,0,0,0,.049-.579Zm.242-9.421.1.435a6.821,6.821,0,0,0,1.642.1c.1,0,.145-.064.145-.193a.76.76,0,0,1,.1-.532l.435-5.218a4.618,4.618,0,0,1,.1-1.352.439.439,0,0,0-.048-.58,13.771,13.771,0,0,0-2.319.1,1.262,1.262,0,0,1,.29.628,27.085,27.085,0,0,0-.338,5.363,7.6,7.6,0,0,0-.1,1.256m1.16,18.359-.822,1.063c.128.065.306-.064.532-.386q.531-.387.29-.677m.483-.435-.29.242c.1.1.193.017.29-.242m-.1-6.232.1.048.048-1.111A2.311,2.311,0,0,0,71.6,22.78m.483,2.416-.1.241,5.508-1.5a6.345,6.345,0,0,1,.193-1.546q.387-1.981.58-3.962c.032-.128,0-.209-.1-.242l-1.642.242a3.341,3.341,0,0,0-1.111.1q-1.16,0-2.367.1a.413.413,0,0,0-.532.193A5.657,5.657,0,0,1,72.32,20.9a19.514,19.514,0,0,1-.242,3.623.82.82,0,0,0,0,.677m.531,5.217a6.1,6.1,0,0,0-.1,1.546h.1l.049-1.594Zm.87-3.091c.194.032.322-.145.387-.532a1,1,0,0,0-.387.532m.145,1.159c0,.129.064.162.193.1,0-.354-.065-.387-.193-.1m1.015-18.6a8.958,8.958,0,0,1,.145,1.642c.1,0,.338-.016.724-.048l.967-.048a.758.758,0,0,0,.531-.1q.483-2.609.821-5.266a7.724,7.724,0,0,0,.048-1.933l-2.318-.145-.194,1.74a37.645,37.645,0,0,1-.724,4.155m.241,20.774V30.9q.242.387.169-.145c-.048-.354-.105-.387-.169-.1m1.788-4.01a.413.413,0,0,1,.628,0,2.617,2.617,0,0,1,1.594.677q.337.1.338.338a8.259,8.259,0,0,1,1.933.724l1.111-1.256q1.062-1.786,2.222-3.478a7.2,7.2,0,0,1,3.092,1.836,48.546,48.546,0,0,1-3.575,4.2,4.232,4.232,0,0,0,1.257.483q1.834.628,3.526,1.353a.68.68,0,0,1,.049.821,20.513,20.513,0,0,1-1.691,2.947.65.65,0,0,1-.966-.338L82.755,32.2a17.75,17.75,0,0,1-3.816-3,9.472,9.472,0,0,1-2.271-2.561m3.478-15.8a2.055,2.055,0,0,1-.483.386l1.015-.1c.386-.032.611-.049.676-.049q1.112-.144.821-1.5a1.814,1.814,0,0,0,.194-.822,1.042,1.042,0,0,1,.1-.628,13.222,13.222,0,0,0,.435-3.72l-1.691-.048-.1.58q-.243,1.111-.387,2.27a.439.439,0,0,0-.193.532q-.193,1.5-.387,3.092m-.483,7.537a.594.594,0,0,1,.145.1q.242.243.242-.145c-.162-.16-.29-.145-.387.049m.918-.049c-.032.259.016.4.145.435q.1-.338-.145-.435m.918.1c.129.193.242.162.338-.1Z" fill="#ffa792"/>
      <path id="路径_50" data-name="路径 50" d="M88.7,25.83a4.56,4.56,0,0,1,1.337-.286,2.372,2.372,0,0,0,1.337-.191,2.59,2.59,0,0,1,.525-.143l.334-.048.049-6.685a9.794,9.794,0,0,0-2.007-.191.832.832,0,0,1-.715-.477.306.306,0,0,1,.334-.287,15.478,15.478,0,0,0,2.435-.095,6.958,6.958,0,0,0,.047-2.149.623.623,0,0,1,.048-.525,1.637,1.637,0,0,1,2-.764,1.49,1.49,0,0,0,.765.1,2.349,2.349,0,0,1,1.05.047,5.41,5.41,0,0,0,.764.048.372.372,0,0,1,.238.382,19.375,19.375,0,0,1,.144,3.008,2.315,2.315,0,0,0,.955.1,1.275,1.275,0,0,1,1.1.525q0,.477-.5.477a5.141,5.141,0,0,0-.787.048h-.812A3.482,3.482,0,0,0,97.2,20a8.331,8.331,0,0,0-.048,2.005,9.252,9.252,0,0,1,0,2.292,1.639,1.639,0,0,0,.692-.071,3.559,3.559,0,0,1,.55-.12l.86-.238a6.05,6.05,0,0,0,1.049-.192c.16-.19.318-.206.479-.047a1.353,1.353,0,0,1-1.147.859q-4.01,2.053-8.355,3.772a1.594,1.594,0,0,1-.764.287,4.735,4.735,0,0,1-1.623-2.2.432.432,0,0,1-.192-.525m6.589-9.692a1.579,1.579,0,0,0,.239.859l-.048-.668c-.064-.287-.128-.35-.191-.191m.621-.144q.189.384.143-.286c-.128,0-.174.1-.143.286m0,8.5q.143.24.143-.239c-.1-.158-.143-.078-.143.239m.047-.477a.429.429,0,0,0,0-.478Zm.1-2.626.1-.573a1.253,1.253,0,0,0-.047-.764ZM100.878,36a1.45,1.45,0,0,1,.525-1.1.843.843,0,0,1,.335-.334q.715-1.29,1.527-2.483l2.961-5.491q.287-.333-.287-.286a.711.711,0,0,1-.62-.1.784.784,0,0,0-.573-.143q-.525.048-.478-.669a2.293,2.293,0,0,0-.094-.907.955.955,0,0,0-.049-.668l-.286-3.39a9.579,9.579,0,0,1,.1-2.34,1.707,1.707,0,0,1,1.528-.382,3.845,3.845,0,0,0,.477.048h1.194q.573,0,1.29.048l.811.095a7.322,7.322,0,0,0,.812.048A8.651,8.651,0,0,0,111,17.9l2.436.048a16.726,16.726,0,0,0,1.765.1,2.363,2.363,0,0,1,1.05.048,3.328,3.328,0,0,0,.812.1,1.4,1.4,0,0,1,1.385.477.744.744,0,0,1,.525.764,32.409,32.409,0,0,1-1,6.732.507.507,0,0,1-.477.526,1.591,1.591,0,0,1-.764.095,1.2,1.2,0,0,0-.955.382,16.589,16.589,0,0,1-.1,2.531,5.215,5.215,0,0,0,0,1l-.047,1.242a1.1,1.1,0,0,0,1.1.477l5.061-.907q0-2.148-.143-4.345c0-.254.1-.382.286-.382a1.464,1.464,0,0,0,.573-.119,1.318,1.318,0,0,1,.478-.12.808.808,0,0,1,.764.1,14,14,0,0,1,1.05,3.2,4.379,4.379,0,0,1,.191,1.576,2.988,2.988,0,0,1-2.864,1.193c-.1,0-.287.017-.573.048l-.621.095c-.223-.063-.319-.063-.286,0a9.192,9.192,0,0,0-2.054.43,4.4,4.4,0,0,1-.859.1l-1.385.238a1.767,1.767,0,0,1-.573.1h-1.623c-.319.032-.621.048-.908.048a2.162,2.162,0,0,1-.907.1.739.739,0,0,1-.811-.334,1.009,1.009,0,0,1-.717-.955,6.29,6.29,0,0,1,.144-1.719l.382-4.058c-.1-.127-.208-.127-.334,0a17.873,17.873,0,0,1-2.674,3.676,12.9,12.9,0,0,1-1.624,1.862c-.191-.063-.31.008-.358.215a.371.371,0,0,1-.406.31,30.423,30.423,0,0,1-3.581,3.152,1.031,1.031,0,0,0-.907.238q-.429.24-.573-.143m1.434-20.77.094-.334a.772.772,0,0,1,.716-.43q1.146,0,2.245.1.62,0,1.194-.048h2.53c.413.032.86.048,1.337.048h.477c0-.063-.064-.159-.19-.287a3.649,3.649,0,0,1,.429-1.909q.143-1,.238-2.053a6.049,6.049,0,0,0,.478-1.576c0-.222.079-.334.239-.334l.334.143a.553.553,0,0,1,.621,0,2.856,2.856,0,0,1,2.245.43,37.583,37.583,0,0,1-1,4.918c-.094.414.079.557.525.429.414-.031.859-.048,1.337-.048a17.911,17.911,0,0,1,3.2-.19l.048-.1c.063,0,.159.064.286.191a1.359,1.359,0,0,1,1,.382.494.494,0,0,1-.047.668l-3.009.287a1.97,1.97,0,0,0-.62-.1,2.259,2.259,0,0,1-.908-.095,3.654,3.654,0,0,0-.764.072,3.456,3.456,0,0,1-.716.071,1.209,1.209,0,0,1-.382-.048,17.135,17.135,0,0,0-2.2.048c-.1,0-.286-.015-.572-.048l-6.495.048a3.76,3.76,0,0,1-.62.048,2.979,2.979,0,0,0-1.051.1.792.792,0,0,1-1-.382m.667-7.925-.382-.383a2.014,2.014,0,0,1,.382-.525,11.13,11.13,0,0,1,1.48.1,29.776,29.776,0,0,0,3.39-.1L105.08,2.816q0-.286.382-.286a9.906,9.906,0,0,1,3.2.334,28.562,28.562,0,0,0,2.483,2.722,1.257,1.257,0,0,1-.048.763l3.2-.047a6.045,6.045,0,0,1,1.528.095c.286.287.254.525-.094.717a4.908,4.908,0,0,1-1.816.143,25.922,25.922,0,0,1-3.151-.1q-.573.048-.716.048h-2.292q-.621.048-1.193.048h-.717a6.73,6.73,0,0,0-1.027.071,6.258,6.258,0,0,1-.978.072Zm3.438,6.016-1.671-3.486a.947.947,0,0,1-.239-.621.959.959,0,0,1,.764-.429,1.632,1.632,0,0,1,2.054.716A7.041,7.041,0,0,1,108.8,11.22a.855.855,0,0,1,.383.573,18.026,18.026,0,0,1-1.815,1.575.321.321,0,0,1-.477.048.6.6,0,0,1-.478-.1m-1,6.207q.19.334.1-.144c-.064-.158-.1-.111-.1.144m2.435,6.016a.085.085,0,0,0,.1.095l4.918.1a2.189,2.189,0,0,0,.334-.669l.43-4.536a3.168,3.168,0,0,1,.334-1.623c0-.159-.16-.239-.478-.239h-.573c-.1,0-.294-.015-.6-.048s-.486-.047-.549-.047h-4.106q-.334-.144-.383.143a16.8,16.8,0,0,0,.287,3.1l3.056.144a3.79,3.79,0,0,0,.477.047h.191c.031,0,.192-.015.478-.047a1.737,1.737,0,0,1,.811.1q.383.286,0,.525a.859.859,0,0,1-.859.287c-.1,0-.247-.008-.454-.024s-.43-.031-.668-.048a6.269,6.269,0,0,1-.644-.071l-1.862-.144q-.432-.142-.622.1l.048,1.958a7.83,7.83,0,0,0,.334.907m5.634,1.384h.1c-.031-.286-.064-.286-.1,0m1.91.525a1.538,1.538,0,0,0,.1-.381q-.144.048-.1.381m.67-7.018c.062.191.111.127.142-.191-.064-.255-.112-.191-.142.191m.046.382c-.032-.032-.046,0-.046.1.03.191.046.16.046-.1m8.023,9.931c.158,0,.19-.063.094-.191-.064-.254-.094-.191-.094.191" fill="#d0ffa7"/>
      <path id="路径_51" data-name="路径 51" d="M132.8,34.267l.276-.459a.832.832,0,0,1,.918,0,1.228,1.228,0,0,0,.55.137c.062,0,.093-.046.093-.137l.229-3.167a1,1,0,0,0-.918.183,3.3,3.3,0,0,1-.551.046l-1.239.138a5.014,5.014,0,0,1-.528.092,2.932,2.932,0,0,0-.344.046.478.478,0,0,1-.688-.138.416.416,0,0,1-.138-.551.426.426,0,0,1,.39-.275,2.433,2.433,0,0,0,.482-.046l1.423-.275a1.607,1.607,0,0,1,.505-.092A5.005,5.005,0,0,0,135,29.447q.136-1.055.367-2.157a.917.917,0,0,1,.229-1.055q.965-1.239,1.974-2.387a1.018,1.018,0,0,0-1.1-.321,6.993,6.993,0,0,0-1.147-.092l-1.928.046-4.589,3.35q-.826.6-1.7,1.148a.326.326,0,0,1-.321-.413,52.486,52.486,0,0,0,3.764-4.5q1.377-1.973,2.891-3.81a1.685,1.685,0,0,0,.6-.826q-.138,0-.6-.046h-.551c-.092,0-.283.016-.573.046s-.467.046-.528.046a26.988,26.988,0,0,0-4.131.321,5.856,5.856,0,0,1-1.193.069q-.643-.022-.643-.757c-.122-.184-.062-.336.184-.459a1.735,1.735,0,0,1,.551-.092q.045,0,.6-.046l.964-.046a7.844,7.844,0,0,1,1.469-.045,3.774,3.774,0,0,0,.459.045h.046a1.513,1.513,0,0,1,.6-.137,5.2,5.2,0,0,0,.643-.046l.734-.138.276-3.3a1.977,1.977,0,0,1,.091-.872q0-2.523.23-5.094a1.935,1.935,0,0,0-1.056-.092,7.376,7.376,0,0,1-.826.046h-.413a2.838,2.838,0,0,1-.459-.046A.489.489,0,0,1,130,6.958a1.516,1.516,0,0,1,.6-.138l.917.046c.276.031.459.046.551.046h.643a20.977,20.977,0,0,0,.137-2.387,2.569,2.569,0,0,1,.138-1.285q.183-.78,1.148-.6c.275.091.535.168.78.229a22.96,22.96,0,0,1,2.524.322,1.336,1.336,0,0,0,.918.137,1.487,1.487,0,0,1,.275,1.056,11.528,11.528,0,0,1-.091,2.524c-.031.306.106.413.413.321a3.609,3.609,0,0,0,.6-.046,1.785,1.785,0,0,1,1.56.322.473.473,0,0,1-.184.734.648.648,0,0,1-.551-.092,2.544,2.544,0,0,0-.573.069,2.753,2.753,0,0,1-.62.069.26.26,0,0,1-.183-.046.382.382,0,0,0-.414.046l-.091,1.56a10.551,10.551,0,0,0-.046,2.2A27.428,27.428,0,0,1,140.049,9.8a5.706,5.706,0,0,1,2.295,1.285,1.669,1.669,0,0,1,1.147,1.239q-1.194,1.789-2.57,3.488a2.862,2.862,0,0,0-.734.918,7.813,7.813,0,0,0,.872-.046l3.029-.321q.459-.045.505.367a.451.451,0,0,1-.23.413.594.594,0,0,1-.734.321,2.609,2.609,0,0,0-1.377.184,25.125,25.125,0,0,0-3.029.092,3.611,3.611,0,0,0-.688.688q-2.021,1.974-3.994,3.993a1.6,1.6,0,0,0,1.01.138,4.345,4.345,0,0,0,.505.069c.184.016.367.023.551.023a33.838,33.838,0,0,0,3.534.183,7.389,7.389,0,0,0,.826.046,17.065,17.065,0,0,1,2.8.322.529.529,0,0,1,.229.5q-1.469,1.332-2.845,2.754a6.725,6.725,0,0,1-.046,1.744,15.282,15.282,0,0,0,2.662-.6,1.588,1.588,0,0,1,.459-.046.438.438,0,0,1,.367.183c.3.459.184.72-.367.78-.275,0-.429.092-.459.276l-1.377.229a5.191,5.191,0,0,1-.643.046,1.073,1.073,0,0,0-.734.367l-.367,2.3a7.46,7.46,0,0,0-.092,1.148,3.727,3.727,0,0,1-.184,1.422.317.317,0,0,0-.114.436.581.581,0,0,1-.023.528.771.771,0,0,0,.091.643q0,.366-.39.39c-.26.015-.451.023-.573.023a7.776,7.776,0,0,1-1.331-.321,1.358,1.358,0,0,0-.505-.092,1.906,1.906,0,0,1-.459-.046l-3.9-1.147a.48.48,0,0,1-.368-.459m-.734-16.431c0-.031-.069-.039-.206-.024s-.069.024.206.024m1.194-4.407c-.031.184.015.261.137.23a1.512,1.512,0,0,1,.046-.826l.092-1.194a4.463,4.463,0,0,0-.275,1.79m.917-9.408a.837.837,0,0,0-.367.275.439.439,0,0,0,.367-.275m1.01,4.911a3.768,3.768,0,0,0-.092,1.193.961.961,0,0,0,.138-.505,1.053,1.053,0,0,0-.046-.688m0,25.013v.092c.061-.061.061-.092,0-.092m.826.367c.153.154.26.138.321-.045-.091-.153-.2-.138-.321.045m.918,0c0,.215.061.322.184.322l.091-2.249a.122.122,0,0,0-.137.138Zm.551-3.579a.563.563,0,0,0,.138.229v-.826q-.231-.045-.138.6m1.744-18.589a.179.179,0,0,0-.183.138c-.092.183-.031.138.183-.138m.184,23.087c.153.061.213-.092.183-.46a.35.35,0,0,0-.183.46m.275-11.2h.046q.321-.229-.046,0m.688-10.144a1.734,1.734,0,0,0-.5.551.83.83,0,0,0,.5-.551m.414-2.983v-.046c-.123-.061-.123-.046,0,.046m3.947,22.306a.813.813,0,0,1,.367-.551,79.955,79.955,0,0,0,4.085-7.435q-1.929-1.653-3.855-3.4.182-.459.872-.276a23.728,23.728,0,0,0,3.579,1.7.434.434,0,0,0,.413.138,24.823,24.823,0,0,0,2.295-5.416.632.632,0,0,1-.275-.046,2.226,2.226,0,0,0-.78-.137,6.227,6.227,0,0,1-.781-.046h-.413a5.176,5.176,0,0,1-.642-.046,3.114,3.114,0,0,1-1.974-.275q-.412-.505-.734.091a25.4,25.4,0,0,1-2.708,2.754q-.459.185-.413.505-.276-.045-.321.138a.37.37,0,0,1-.505.137.6.6,0,0,1,0-.642.51.51,0,0,0,.275-.413l1.652-3.213L147.485,9.3c.06-.276.19-.413.39-.413a2.777,2.777,0,0,1,.665.091,10.356,10.356,0,0,0,1.744.505,1.473,1.473,0,0,0,.643.184,6.7,6.7,0,0,1,1.1.092c.276,0,.413.122.413.367l-1.285,1.928a27.356,27.356,0,0,1-3.3,4.589,1.644,1.644,0,0,0,.413.115,3.656,3.656,0,0,0,.459.023h.367a6.2,6.2,0,0,0,.665.069c.26.016.482.023.666.023l1.331.046c.061,0,.229.015.5.046a6.558,6.558,0,0,0,.688.045l.367.092a3.639,3.639,0,0,0,.46.046h1.055q.5.047.689.046a.6.6,0,0,0,.642,0,.7.7,0,0,0,.436.138,4.2,4.2,0,0,1,.574.045,1.717,1.717,0,0,0,.964,0c.03,0,.183-.015.458-.045a.78.78,0,0,1,.965.6.325.325,0,0,1-.368.368h-1.055l-.368.642-1.606,2.937q-.963,1.47-2.019,2.846a.525.525,0,0,0-.23.413l3.351,1.7a8.721,8.721,0,0,1,2.524,1.056,2.9,2.9,0,0,1,1.423.826l-2.249,3.259a1.062,1.062,0,0,1-1.561.092.637.637,0,0,0-.5-.322q-2.387-2.111-4.957-4.13L149.5,30.274a7.5,7.5,0,0,1-.78.6A20.711,20.711,0,0,1,145.19,33.3q-.276.321-.459-.092m.183-15.7.184-.183c-.154-.03-.215.03-.184.183M147.806,30.5a.163.163,0,0,0-.184.184q.321-.138.184-.184m.321-20.883c-.183.062-.275.229-.275.505.153-.061.244-.23.275-.505m1.744,18.864c-.092,0-.168.107-.229.321a.389.389,0,0,0,.229-.321m.6-.643c-.154,0-.23.092-.23.276.153-.062.23-.153.23-.276m.092-17.532q-.138,0-.138.183Zm.734,13.723a.794.794,0,0,0,.184-.5c-.246.122-.307.291-.184.5m2.2,4.222,1.377,1.147a2.758,2.758,0,0,0-.964-1.009c-.215-.214-.352-.26-.413-.138m.413-4.727a.122.122,0,0,0,.138-.138q-.185-.183-.138.138m.275-5.416c-.061,0-.091.062-.091.184.121.061.152,0,.091-.184M155.379,21l-.367.6c.183.062.305-.138.367-.6m1.01-2.753c-.276-.031-.429.153-.46.55Zm3.809,10.51c0,.092.076.138.23.138,0-.092-.077-.138-.23-.138" fill="#bad9ff"/>
      <path id="路径_52" data-name="路径 52" d="M167.455,18.089q.49-2.453.8-4.952a12.332,12.332,0,0,0,.58-2.721.459.459,0,0,1,.045-.446l-3.257-.089c-.356.03-.729.045-1.115.045a1.145,1.145,0,0,1-1.249-.268q.135-.579.8-.491a15.583,15.583,0,0,1,2.632-.044c.535-.029,1.055-.045,1.561-.045a2.757,2.757,0,0,0,.446-.044h1.784c.3,0,.625-.015.982-.045q.445-.044.981-.044V8.632l-1.829-3.39a1.874,1.874,0,0,1-.4-1.07q.624-.937,1.784-.09,1.517.8,2.989,1.7a1.2,1.2,0,0,1,1.115.759c.118.149.089.283-.089.4A6.554,6.554,0,0,1,174.1,8.855h3.078a2.576,2.576,0,0,1,.491-.044h.134q.49.045.937.067t.981.022l.446-.045c.118,0,.4-.014.848-.044h2.274a.167.167,0,0,1,.268,0,6.361,6.361,0,0,1,1.07,0q.67.357.09.8a5.845,5.845,0,0,1-2.275,0c-.357,0-.685.015-.982.044a9.321,9.321,0,0,1-.936.045q-.58,0-1.115-.045c-.357-.029-.73-.044-1.116-.044a13.789,13.789,0,0,0-2.453.133q-.581,1.473-1.071,3.034a10.339,10.339,0,0,0-.847,2.274,2.067,2.067,0,0,0-.223.937.54.54,0,0,0-.267.535,2.189,2.189,0,0,0,1.427-.133,2.5,2.5,0,0,1,.8-.134,2.148,2.148,0,0,0,.758-.134q1.695-.535,3.345-.981a1.3,1.3,0,0,0-.133-.892,3.016,3.016,0,0,1-.4-1.651c0-.148.112-.223.335-.223a.9.9,0,0,1,.468.089,1.172,1.172,0,0,1,.758.446,8.2,8.2,0,0,1,2.588,2.141.909.909,0,0,1,.267.447.534.534,0,0,1,.268.356,5.044,5.044,0,0,1-1.874,2.1,1.3,1.3,0,0,1-.58.267.9.9,0,0,1-.49-.8,4.11,4.11,0,0,0-.937-1.428,3.22,3.22,0,0,0-.669.089.83.83,0,0,0-.491.223,43.9,43.9,0,0,0-4.46.848,1.363,1.363,0,0,1-.446.134L171.2,18a1.666,1.666,0,0,1-.669.134q-.893.18-1.829.446a.944.944,0,0,1-1.249-.49m11.776,18.243a9.441,9.441,0,0,1-2.766-2.453q-.757-.624-1.6-1.294-.58-.311-.134-.758a1.846,1.846,0,0,1,2.007.758L179.1,22.371a2.076,2.076,0,0,0,.09-1.2l-1.785-.133c-.149,0-.312-.007-.49-.023s-.357-.037-.536-.067h-1.248a8.787,8.787,0,0,0-1.963.045,2.1,2.1,0,0,1-.223,1.115,1.021,1.021,0,0,0,.044.669,1.391,1.391,0,0,0-.312.87c0,.312.163.424.491.335.089,0,.268-.007.535-.023s.55-.037.848-.067l1.383-.089a1.468,1.468,0,0,1,1.516.134q.49.492-.312.714l-4.6.089q-.09.447-.223.937a.612.612,0,0,1-.134.446,1.3,1.3,0,0,0,.09.713,42.777,42.777,0,0,0,4.371-1.2,1.024,1.024,0,0,1,.535-.134l.357.179q.4.669-.446.8a3.486,3.486,0,0,1-.446.133,2.255,2.255,0,0,1-.8.223,28.464,28.464,0,0,1-3.211.893q-.761,0-.848.624a1.476,1.476,0,0,1-.134.669,29.172,29.172,0,0,1-.624,3.122.99.99,0,0,0-.089.446,3.4,3.4,0,0,1-.4,1.963.39.39,0,0,1-.446.223,2.179,2.179,0,0,1-.981.491,1.509,1.509,0,0,1-.848.267,6.663,6.663,0,0,0-.713.224.852.852,0,0,0-1.116.4,1.009,1.009,0,0,1-.446.624q-.312-.043-.267-.4.624-2.007,1.2-4.059.579-4.326,1.472-8.654a4.094,4.094,0,0,0,.178-1.2,2.728,2.728,0,0,1,1.115-2.364h2.5a1.453,1.453,0,0,0,.447.089h.49c.238,0,.453-.007.647-.022s.424-.037.691-.067l1.473-.045q.534.045,1.159.045h1.07a3.82,3.82,0,0,0,.625.045q2.007.133,4.015.089a1.3,1.3,0,0,0,.49.089,1.857,1.857,0,0,0,.446-.045l.446.313c.208-.06.342,0,.4.178a4.148,4.148,0,0,1,.134,1.338q-.536,2.587-.892,5.219-.269.669-.491,1.427l-.535,2.677a20.419,20.419,0,0,1-.937,3.435,1.75,1.75,0,0,1-.089.78,3.527,3.527,0,0,0-.179.781,1.3,1.3,0,0,1-.579.981,4.214,4.214,0,0,1-1.785-1.071m-9.724-4.951a.325.325,0,0,0-.223.4.44.44,0,0,0,.223-.4m.714-20.028-.536,2.855c.03.119.075.119.134,0l1.026-4.282c.06-.179-.03-.238-.267-.179a3.735,3.735,0,0,1-.357,1.606m-.178,18.869c-.12,0-.179.044-.179.133.059.209.118.164.179-.133m.267-.58c-.119,0-.178.119-.178.356Zm.268-1.071a1.063,1.063,0,0,0-.268.714,1.3,1.3,0,0,0,.268-.714m-.223-13.694h.089q-.045-.445-.089,0m.223,6.245c0,.149.074.178.223.089.089-.089.014-.118-.223-.089m.267,9.679a.6.6,0,0,0-.134.491c.06-.208.1-.371.134-.491m.268-7.85-.268,1.07a.749.749,0,0,0,0,.714Zm-.045-18.244a.488.488,0,0,0,.312.178c0-.089-.1-.148-.312-.178m.357,7.538.045.134a1.161,1.161,0,0,0,.178-.758q-.224.045-.223.624m.268,13.159a.176.176,0,0,0-.179.134c0,.267.06.223.179-.134m-.134-15.657a.079.079,0,0,0,.089.09c.179-.09.149-.119-.089-.09m.089-3.925a.488.488,0,0,0,.179.312c.148-.178.089-.282-.179-.312M172.54,9.7c-.03.119,0,.193.09.223.178-.179.148-.252-.09-.223m.313,1.249a.3.3,0,0,0-.134.267,1.876,1.876,0,0,0-.179.759q.09,0,.268-.4.267-.445.045-.624m.133,4.817v.089c.179,0,.238-.133.179-.4,0-.148-.06-.045-.179.312m5.264,11.865.089.09a3.174,3.174,0,0,0,.58-1.606.7.7,0,0,1,.089-.491q.089-.357.179-.624a.638.638,0,0,0-.09-.58,2.489,2.489,0,0,1-.178.936l-.446,2.008a.588.588,0,0,0-.223.267m2.364,4.149c.059,0,.089-.06.089-.179-.06-.059-.089,0-.089.179m.357-1.249a.513.513,0,0,0-.223.535c.148.06.223-.118.223-.535m-.134-2.855a3.474,3.474,0,0,0-.089.758.949.949,0,0,0,.245-.245,1.834,1.834,0,0,0,.2-.379q.089-.445-.357-.134" fill="#92ffd1"/>
      <path id="路径_53" data-name="路径 53" d="M196.253,30.845q-2.442-1.729-4.884-3.51a.99.99,0,0,0,.2-.458,2.641,2.641,0,0,1,2.137.61,12.469,12.469,0,0,0,.662-3,13.276,13.276,0,0,0,.1-1.628,22.286,22.286,0,0,1-2.646.966.824.824,0,0,1-.712.356.408.408,0,0,1-.611-.152l-.407-3.256a.36.36,0,0,1,.407-.407l2.442-.407q.051-.1.509-.127c.3-.017.491-.026.56-.026l.966-.2.509-3.917a3.911,3.911,0,0,0,.1-1.527,8.314,8.314,0,0,0-2.035.153,2,2,0,0,1-.636.1,4.985,4.985,0,0,0-.687.05h-.916a1.027,1.027,0,0,1,.509-1.119.638.638,0,0,0,.509-.1,6.95,6.95,0,0,1,1.577-.128q.813.027,1.577-.025l.356-.153a30.115,30.115,0,0,1,.611-3.51.657.657,0,0,1,.407-.814,5.552,5.552,0,0,0,1.933-.356,1.19,1.19,0,0,0,.89-.153,1.241,1.241,0,0,1,.992-.1,1.02,1.02,0,0,1,.865.2,17.374,17.374,0,0,1-.356,3.51q-.255.815.3.967a1.309,1.309,0,0,1,.585-.178c.22-.017.433-.026.636-.026h.254c.237-.033.356.051.356.255a.478.478,0,0,1-.05.763,1.2,1.2,0,0,1-.509.153l-.458-.1a2.1,2.1,0,0,1-.636.025,1.066,1.066,0,0,0-.839.331l-.306,2.086a13.455,13.455,0,0,0-.457,2.645,1.081,1.081,0,0,0,.534-.127,1.092,1.092,0,0,1,.534-.127l.509-.051a1.192,1.192,0,0,1,1.119.051q.355-.2.458,0c.2.237.373.254.508.051a.637.637,0,0,1-.559.712.617.617,0,0,0-.661.305l-2.8,1.17-.255,2.188q-.61,3.918-1.068,7.834a.632.632,0,0,1-.611.662q-.713-.255-1.526-.458m-4.426-7.886c-.1,0-.152.086-.152.255q.253.051.152-.255m2.391-.763a.48.48,0,0,0-.356.255c.237,0,.356-.084.356-.255m2.239-5.087.1-.1q.051-.458-.1.1m.813-2.442c.2-.033.288-.237.255-.61a.54.54,0,0,0-.255.61m.357,2.7a.344.344,0,0,0-.1.255c.067.1.1.017.1-.255m1.17-.61a.716.716,0,0,0-.1.407c.1.136.135,0,.1-.407m.051-.865.05-.254q0-.153-.05.254m.254-1.781a1.309,1.309,0,0,0-.1,1.018Zm16.483,23.3h-1.17c-.3.034-.475.051-.509.051l-2.238-.153q-.713-.2-.407-1.018a26.752,26.752,0,0,0,.2-3.306q.255-1.984.458-4.019l-1.933,1.78a14.933,14.933,0,0,1-2.238,1.323,18.894,18.894,0,0,1-3.358,2.137c-.374-.034-.475-.237-.306-.611a1.288,1.288,0,0,1,.408-.356,1.687,1.687,0,0,0,.508-.763,4.131,4.131,0,0,0,.916-1.221,1.136,1.136,0,0,0,.458-.611l2.849-4.731a.488.488,0,0,0,.407-.305l-3.663-.051a.9.9,0,0,1-.153-1.068,3.672,3.672,0,0,1,.763-.2l2.9.051q1.068.1,2.137.1h.712a1.52,1.52,0,0,0,.2-.763q.049-1.424.2-2.9a3.7,3.7,0,0,0,.2-1.73.179.179,0,0,0,.2-.2c.1-.2.288-.221.56-.051a4.873,4.873,0,0,1,2.493.356,5.631,5.631,0,0,1,1.78.509.388.388,0,0,1,.509.2v3.612a1.044,1.044,0,0,0,.051,1.069q.153,0,.712-.051h.814a5.962,5.962,0,0,0,1.069.1l1.119.1q.457.051.661.051t.356.56l-.458.763a.56.56,0,0,1-.61-.051,1.568,1.568,0,0,0-1.17.051l2.95,5.8q-1.068,1.172-2.187,2.341a4.863,4.863,0,0,1-.509.356.547.547,0,0,0-.509.051,28.525,28.525,0,0,1-2.747-6.411,8.773,8.773,0,0,0-.254,2.137,38.382,38.382,0,0,0-.611,4.884,2.037,2.037,0,0,1-.152,1.475,1.271,1.271,0,0,0,0,.509q-.1.51-.458.229t-.763.178c.067-.033,0-.1-.2-.2m6-26.607a1.187,1.187,0,0,1,.2-.967,21.394,21.394,0,0,1,.458-3.307q-.153-.355-.611-.152a1.117,1.117,0,0,0-.814,0,37.906,37.906,0,0,1-3.917-.1.621.621,0,0,1-.458-.153,4.823,4.823,0,0,0-.661.051,1.308,1.308,0,0,0-.509,0,5.624,5.624,0,0,0-1.526-.1q-.2-.151-.3,0l-1.324-.05a3.2,3.2,0,0,1-.508-.051,9.218,9.218,0,0,1-1.933-.1l-1.272,5.087a.442.442,0,0,1-.661.255,5.768,5.768,0,0,1-2.035-.153,3.378,3.378,0,0,0-.789-.178c-.221-.017-.331-.211-.331-.585l.662-4.579a.933.933,0,0,1,.915-.966,4.646,4.646,0,0,1,1.679-.1,1.949,1.949,0,0,0,.56.076c.3.018.509.026.61.026l2.391.05a17.671,17.671,0,0,0,1.883.1,13.949,13.949,0,0,1,2.645.255c.339.034.56.051.661.051q.712.051,1.323.05h1.323a1.925,1.925,0,0,0,.559.077c.306.017.509.025.611.025l.967.051a18.711,18.711,0,0,1,4.579.254,1.06,1.06,0,0,1,.763.2,1.106,1.106,0,0,1,.712.559,3.451,3.451,0,0,1-.967,1.73q-1.883,1.578-3.663,3.256a1.163,1.163,0,0,0-.61-.152c-.374,0-.577-.153-.611-.458M208.056,31.3a.9.9,0,0,0,.763-.458.724.724,0,0,0-.763.458m2.136-14.5a10.168,10.168,0,0,0-1.78-2.239.527.527,0,0,1-.051-.712,12.39,12.39,0,0,0,2.391-2.035c.305-.271.491-.407.56-.407a7.367,7.367,0,0,0,1.424-1.119,1.02,1.02,0,0,1,.814-.356.486.486,0,0,1,.407.2,1.026,1.026,0,0,1-.1,1.221l-3.154,5.6Zm4.528,11.9.153.1.051-1.068Zm.662-1.933a4.639,4.639,0,0,0,.1,1.374l.2-1.883a1.163,1.163,0,0,0-.153-.61,2.425,2.425,0,0,0-.152,1.119m1.373,6.665c.169.034.221-.1.153-.408-.136.069-.187.2-.153.408m2.29-16.229-1.12-2.7a1.529,1.529,0,0,1,1.018-1.678,1.161,1.161,0,0,1,.61-.153.946.946,0,0,1,.662.712q1.221,1.731,2.391,3.511a11.976,11.976,0,0,1,.966,1.22,2.494,2.494,0,0,1-.89,1.985,5.861,5.861,0,0,0-1.4,1.729q-.61-.05-.611-.814a25.229,25.229,0,0,1-1.627-3.815m1.373,11.548a.409.409,0,0,0,.2.458c0-.237-.069-.39-.2-.458" fill="#ffe68a"/>
      <path id="路径_54" data-name="路径 54" d="M229.151,19.207a2.359,2.359,0,0,0,.168-.88,15.391,15.391,0,0,0,.167-2.767,2.728,2.728,0,0,0-.041-1.257.5.5,0,0,1,.167-.545l2.222-.126a1.269,1.269,0,0,1,.712-.042l2.473-.209a6.823,6.823,0,0,0,.755-.042q1.509-.21,3.1-.293a.594.594,0,0,1,.083-.545l.084-2.641c-.112-.168-.35-.223-.712-.168a8.42,8.42,0,0,0-1.048.063,8.1,8.1,0,0,1-1.006.063c-.168,0-.357-.006-.566-.021a.309.309,0,0,1-.314-.356c0-.168.069-.265.209-.293h2.1a2.518,2.518,0,0,1,.691-.084,4.075,4.075,0,0,0,.65-.042,15.2,15.2,0,0,0,.126-1.97,2.535,2.535,0,0,1,.042-1.509,1.43,1.43,0,0,1,1.467-.377,7.315,7.315,0,0,1,.754.125c.308.029.5.042.587.042l1.341.294a1.76,1.76,0,0,1,1.3.251L244.534,8.1a.954.954,0,0,0,.126.754c.027,0,.167.014.419.042A2.584,2.584,0,0,0,246,8.812a1.141,1.141,0,0,1,1.509.629.785.785,0,0,1-1.006.126,1.08,1.08,0,0,0-.566-.105c-.209.014-.434.035-.671.063a6.253,6.253,0,0,1-.733.042v1.257a5.894,5.894,0,0,0,0,1.719l2.473-.042.084-.084a3.854,3.854,0,0,1,.838-.084h.838a4.713,4.713,0,0,1,.839-.084q.376,0,.838-.042c.056,0,.216-.021.482-.063a4.448,4.448,0,0,1,.524-.062L253,12a.657.657,0,0,0,.461-.084,10.3,10.3,0,0,1,2.1.126.89.89,0,0,1-.042,1.006,7.023,7.023,0,0,0-.8,1.215q-1.131,1.091-2.179,2.263a.8.8,0,0,1-.629.294q0,.042-.168.168-.292.168-.377-.126a8.317,8.317,0,0,1,.5-3.647c.028-.279-.07-.4-.293-.377a1.584,1.584,0,0,1-.5.084A21.483,21.483,0,0,1,248.39,13a3.824,3.824,0,0,1-1.215.209q-1.049,0-2.1.084a3.854,3.854,0,0,0-.838.084l-1.468.251a.651.651,0,0,1-.628-.083,2.055,2.055,0,0,0-.838.083,2.189,2.189,0,0,0-1.174.084c-.28-.055-.461.028-.545.252q-.21.418-.5,0a.379.379,0,0,0-.335-.21l-1.719.126a2.106,2.106,0,0,1-.838,0,.524.524,0,0,0-.419.084q-1.049.084-2.138.125a.462.462,0,0,0-.461.336l-.042,1.551a7.089,7.089,0,0,0-.335,2.179.81.81,0,0,1-.419.922,12.2,12.2,0,0,0-2.264.545,1.292,1.292,0,0,1-.587.126c-.335,0-.46-.182-.377-.545M231,15.141a2.007,2.007,0,0,0-.168,1.006.794.794,0,0,0,.209-.587.333.333,0,0,0-.041-.419m-.168,1.174v.377a.433.433,0,0,0,0-.377M231,18.872h.167q-.084-.252-.167,0M246.21,37.65l-.209.083-1.593-.754c-.224-.084-.377-.14-.461-.168a4.594,4.594,0,0,0-1.634-.754,1.623,1.623,0,0,0-.713-.377q-.378-.168-.042-.629a1.636,1.636,0,0,1,1.509.461c.028.084.168.126.419.126l.126-1.384a1.189,1.189,0,0,1,.084-.628q0-2.474.167-4.946a.389.389,0,0,0-.461.146.387.387,0,0,1-.461.147,1.375,1.375,0,0,0-.587.063,2.675,2.675,0,0,1-.461.105q-1.091.21-2.137.461a.57.57,0,0,1-.42.168l-.209-.042a.707.707,0,0,1-.084-.671,2.2,2.2,0,0,0,.126-.461q.754-1.467,1.467-3.018c.139-.279.056-.433-.252-.461a6.386,6.386,0,0,0-.67-.042l-3.772-.042a.922.922,0,0,0-.671,0,1.89,1.89,0,0,1-1.341-.251.581.581,0,0,1,.083-.713,2.756,2.756,0,0,0,.671-1.3,2.178,2.178,0,0,0,.377-1.048l2.054-4.317a.72.72,0,0,1,.168-.461,14.862,14.862,0,0,0,.8-1.928.7.7,0,0,1,.587-.545,12.33,12.33,0,0,1,3.73,1.173,3.067,3.067,0,0,1,1.509.587A4.058,4.058,0,0,1,242.9,17.7a28.6,28.6,0,0,1-2.305,3.563,2.352,2.352,0,0,0-.377.5q-.754,1.048-1.425,2.179-.21.252.084.336h2.095q.545-1.006,1.174-2.1a13.815,13.815,0,0,1,4.233.671,4.983,4.983,0,0,1-.838,1.844q-.588,1.217-1.258,2.347-.25.462.126.252l4.15-1.132q.377-.126.461-.168l.251-.042a3.749,3.749,0,0,0-.922-1.173.381.381,0,0,1,.336-.461,3.85,3.85,0,0,1,.544-.042,11.337,11.337,0,0,1,3.312.838.33.33,0,0,1,.419.126,1.447,1.447,0,0,1,.922.335,1.859,1.859,0,0,1-.294,1.383q-.335.672-.712,1.3a.513.513,0,0,1-.419.5l-1.718-1.551a1.95,1.95,0,0,0-1.677,0l-.461,4.569A4.409,4.409,0,0,1,248.516,33a.606.606,0,0,1-.084.461l-.377,4.15q-.085.5-.713.5l-.5-.168a1.174,1.174,0,0,0-.629-.293m-10.436-1.384c-.112,0-.168-.042-.168-.125a2.483,2.483,0,0,0-.377-1.132,1.419,1.419,0,0,1-.21-.88q-.084-1.259,1.426-1.551a.936.936,0,0,1,.628-.335,10.34,10.34,0,0,1,2.389-1.258.455.455,0,0,1,.42-.042.319.319,0,0,1,.419-.167q.461.461-.168,1.006-1.8,2.474-3.521,5.029a.834.834,0,0,1-.5.126q-.462-.084-.335-.671m.712-15.466c-.084,0-.125.07-.125.209.084,0,.125-.069.125-.209m1.006-2.557a.163.163,0,0,0-.167.126c0,.224.055.182.167-.126m.461-1.174a1.521,1.521,0,0,0-.461,1.09Zm-.419,2.976q-.042,0-.042.126c.112.056.126.015.042-.126m.587,4.024q-.168.042-.168.168.294,0,.168-.168m.084-2.137q-.084.377.168-.042.334-.378,0-.378a.96.96,0,0,1-.168.42m.293.922c-.084,0-.125.028-.125.084,0,.195.041.167.125-.084m1.174-5.323c-.112.028-.168.125-.168.293Zm.21,3.4a.037.037,0,0,0-.043.042c.028.112.043.1.043-.042m.544-.671a.163.163,0,0,0-.167.126c-.057.251,0,.209.167-.126M242.4,6.716c0,.141.042.224.126.252q.126-.252-.126-.252m.336,4.779.084.67.041-.419q.084-.293-.125-.251m.8-.545q-.126,0-.126.084c.056.251.1.224.126-.084m.461,15.634a.283.283,0,0,0-.126.252q.168-.042.126-.252m.335-.629c-.056,0-.083.042-.083.126a.522.522,0,0,0-.168.377,1.07,1.07,0,0,0,.251-.5m.042,6.12.084.126.042-.713a.525.525,0,0,0-.084-.419Zm.336-6.832-.294.5q.042.21.21-.168.209-.208.084-.335m-.168,10.688c.111.28.168.238.168-.126q-.042-.208-.168.126m.838-12.071a.932.932,0,0,0-.167.419c.223-.14.279-.279.167-.419m.126-.5a.167.167,0,0,1-.042.125q0,.294.21-.209-.294-.252-.168.084m.252,13.287h.083l.084-1.551q.084-.418-.126-.294a13.9,13.9,0,0,1-.041,1.845m.125-2.054v-.168q.042-.292,0,.168m.168-6.329.126,1.676.041-1.341a.7.7,0,0,1,.126-.545c-.224-.056-.321.014-.293.21m.545,6.035.084-.8a1.289,1.289,0,0,0-.084.8m1.09-2.179-.084.712a1.352,1.352,0,0,0,.084-.712m0-3.814c.083.028.1,0,.041-.084-.028-.168-.041-.14-.041.084m1.928-3.395q.166.292.335.209c-.084-.168-.2-.237-.335-.209m1.173,8.047a.639.639,0,0,0-.041-.5,1.984,1.984,0,0,1-.126-.712q.083-1.132,1.341-1.174a.846.846,0,0,1,.587-.126,8.041,8.041,0,0,1,.712,1.467,20.575,20.575,0,0,1,1.048,2.054q.46.714-.335,1.132a13.115,13.115,0,0,1-1.97,1.257,1,1,0,0,0-.419-.209Zm2.641-19.574a.165.165,0,0,0-.126.168c.056.083.1.028.126-.168" fill="#7aedff"/>
      <path id="路径_55" data-name="路径 55" d="M260.039,33.551l.1-.782a3.508,3.508,0,0,0,.2-1.418,13.741,13.741,0,0,0,.733-3.519,1.581,1.581,0,0,1,.147-.88,24.543,24.543,0,0,1,.44-3.372,4.47,4.47,0,0,1,.342-1.515,1.735,1.735,0,0,1,0-.586,4.5,4.5,0,0,0,.293-1.271,1.828,1.828,0,0,1,.88-1.858,1.932,1.932,0,0,1,1.026-.342,3.007,3.007,0,0,1,.709-.1,5.687,5.687,0,0,0,.709-.049l.293-.049a2.317,2.317,0,0,1,.709-.122c.309-.016.5-.025.562-.025l.635-.1a2.811,2.811,0,0,0,.538-.048l1.319-.2a2.718,2.718,0,0,1,.538-.1l.2-.048a5.44,5.44,0,0,1,1.32-.147,9.76,9.76,0,0,1,1.369,0l.244-.049a2.716,2.716,0,0,1,.049,2.688q-.294,1.223-.635,2.4A4.54,4.54,0,0,1,271.427,25a2.188,2.188,0,0,0-1.466.391q-1.809.441-3.666.978a1.764,1.764,0,0,0-1.466.684,16.905,16.905,0,0,1-.782,4.057,1.168,1.168,0,0,0,.1.684q2.052-.635,4.056-1.466L267.81,29.1a.938.938,0,0,1,.049-1.124A9.389,9.389,0,0,1,269.814,29a12.219,12.219,0,0,1,1.515,1.369,1.79,1.79,0,0,1,.391.733,7.506,7.506,0,0,1-1.71,1.808.465.465,0,0,1-.538.293c-.261.131-.44.049-.538-.244a.787.787,0,0,0-.1-.831.337.337,0,0,0-.146-.44.605.605,0,0,0-.391-.44,1.089,1.089,0,0,0-.489.1q-3.422,1.125-6.793,2.542a1.585,1.585,0,0,1-.636.244c-.293-.032-.408-.228-.342-.586m.2-16.373L260.675,16a.975.975,0,0,1,.146-.684,1.074,1.074,0,0,1,.2-.44l.879-2.688q1.32-3.617,2.346-7.38a.769.769,0,0,1,.293-.782.939.939,0,0,1,1.222.025,4.8,4.8,0,0,0,1.173.659,2.739,2.739,0,0,1,1.858,1.173,11.315,11.315,0,0,1-1.076,2.3l1.76.538a17.843,17.843,0,0,1,3.03,1.222,9.139,9.139,0,0,1,3.177,1.173.847.847,0,0,0,.586.147l.049.342q-.781,1.565-1.71,3.128-.539.733-1.222-.049l-6.207-5.621q-1.809,2.785-3.813,5.474a17.315,17.315,0,0,1-2.59,2.786c-.2.2-.342.293-.44.293a.478.478,0,0,1-.1-.439m1.174-1.222c-.164,0-.245.1-.245.293a.272.272,0,0,0,.245-.293m.244,15.346c-.066.033-.1.147-.1.342.228-.1.26-.211.1-.342m.391-5.132a.735.735,0,0,0-.147.587.674.674,0,0,0,.147-.587m.586-11.339-.391.2q.049.391.391-.2m.538,4.546c.1,0,.13-.114.1-.342Zm5.474,2.248a.262.262,0,0,1-.195.293,25.862,25.862,0,0,0-2.737,1.222l-.685,2.542q.1.342.636.049,1.563-.392,3.176-.88a14.894,14.894,0,0,0,.489-2.4,5.124,5.124,0,0,0,.1-1.417,21.769,21.769,0,0,0,.587-2.884q-.93,0-1.809.073a8.26,8.26,0,0,0-1.808.367.6.6,0,0,0-.147.342,14.041,14.041,0,0,1-.44,3.079,2.311,2.311,0,0,0,1.173-.342,2.392,2.392,0,0,1,1.222-.342h.049a.384.384,0,0,1,.391.293M265.415,4.91c.163,0,.245-.065.245-.2-.164-.032-.245.033-.245.2m1.271,7.624a.314.314,0,0,1,.2-.293,1.286,1.286,0,0,1,.781.049.65.65,0,0,0,.587.293l1.808.782q.88.539.1,1.32-1.026.733-2.1,1.417a1.474,1.474,0,0,1-.538-.782,7.279,7.279,0,0,1-.831-2.786m.1-7.038a.919.919,0,0,0,.684.245.926.926,0,0,0-.684-.245m1.173.88a.472.472,0,0,0-.245.538.876.876,0,0,0,.245-.538m1.71,17.253a2.005,2.005,0,0,0-.048.538q.293-.294.048-.538m.147-.831a.589.589,0,0,0-.147.635.659.659,0,0,0,.147-.635m2.542-12.219c.032.033.146.049.342.049Zm3.128,1.516a.158.158,0,0,0,.1-.147q-.1-.294-.1.147m.83,4.985c-.033-.163,0-.245.1-.245a.856.856,0,0,1,.2-.782,11.892,11.892,0,0,1,.636-2.2,13.017,13.017,0,0,1,.928-2.444,5.154,5.154,0,0,0,1.418-.195c.065,0,.244-.016.538-.049s.488-.049.586-.049a5.1,5.1,0,0,0,.538-.049h1.662a5.067,5.067,0,0,0,.537.049,1.3,1.3,0,0,1,.586-.147,4.453,4.453,0,0,0,.636-.049,2.932,2.932,0,0,1,.928-.146,3.428,3.428,0,0,1,.831-.1,6.622,6.622,0,0,0,.831-.049l4.937-.488q1.318-.1,2.688-.1h.684q.1.2.342,0,.537,1.026-.586,2.053l-2.151,2.248a.507.507,0,0,1-.635.122.546.546,0,0,1-.342-.513,6.222,6.222,0,0,1-.538-1.369,1.834,1.834,0,0,1-.2-.831.64.64,0,0,0-.439-.684,2.6,2.6,0,0,0-.758.1,4.136,4.136,0,0,1-.709.147,4.082,4.082,0,0,1-.488-.049q-1.223.1-2.493.146a3.238,3.238,0,0,1-1.026.147l-1.271.049a5.583,5.583,0,0,0-.636.073q-.489.073-.586.073a2.928,2.928,0,0,0-1.173.147,1.533,1.533,0,0,0-.782.1,5.6,5.6,0,0,0-.391,2.1,1.277,1.277,0,0,0-.147.831,3.513,3.513,0,0,0-.293.88,1.716,1.716,0,0,1-.831.831,3.843,3.843,0,0,0-1.368.342.908.908,0,0,0-.929.147,1.109,1.109,0,0,1-.733.293Zm1.467-3.128a2,2,0,0,0-.294.879,1.3,1.3,0,0,0,.294-.879m.2-.685c-.065,0-.1.042-.1.123s.033.041.1-.123m1.955,1.174c-.066,0-.1.081-.1.244.1,0,.13-.081.1-.244m1.662,21.26a28.481,28.481,0,0,0,.146-3.714.383.383,0,0,1,.147-.343l.049-3.079a10.8,10.8,0,0,1,.049-2.3,19.723,19.723,0,0,0-.049-3.665q-.1-1.417-.1-2.835-.05-1.173-.1-2.346a.546.546,0,0,1,.147-.538,4.318,4.318,0,0,0,1.271-.2,8.049,8.049,0,0,0,1.221.1,8.886,8.886,0,0,0,1.614.049c.391.033.813.049,1.27.049a4.526,4.526,0,0,1,1.369.1h2.688l.635.635q.342,2.689.489,5.328l-1.173.391a26.083,26.083,0,0,0-4.79.537V27.93a.727.727,0,0,0,.1.586,1.593,1.593,0,0,1,.88-.048,1.694,1.694,0,0,0,.488-.049h.44a7.065,7.065,0,0,0,.782-.049,5.675,5.675,0,0,1,.783-.049l1.368-.049q.831-.048,1.759-.1a8.742,8.742,0,0,1,1,.074,1.2,1.2,0,0,1,.9.513,42.2,42.2,0,0,1,.146,5.376l-.293.978a.629.629,0,0,1-.587.439,20.224,20.224,0,0,0-3.128.245.735.735,0,0,0-.586.146,1.18,1.18,0,0,0-.782-.024,2.757,2.757,0,0,1-.831.122,5.66,5.66,0,0,0-.782.049l-1.955.195c-.293.033-.457.049-.489.049l-1.612.245a2,2,0,0,0-.636.1,3.494,3.494,0,0,1-.733.1.926.926,0,0,1-.978-.244,1.03,1.03,0,0,0-.146-.831m1.124-.684c-.033.163.016.261.147.293q.1-.39-.147-.293m.049.684c.1,0,.13-.032.1-.1-.066-.227-.1-.195-.1.1m1.173-26.2.147-.44a13.286,13.286,0,0,1-.587-1.613,3.494,3.494,0,0,1-.342-1.71q-.392-.2-.147-.489a8.971,8.971,0,0,1,4.252,1.613,1.576,1.576,0,0,0,.733.293.619.619,0,0,1-.049.538,17.171,17.171,0,0,1-2.492,2.639,2.059,2.059,0,0,1-1.515-.831m-.88,21.016a.337.337,0,0,0,.1.342,9.438,9.438,0,0,0-.2-2.688,14.173,14.173,0,0,0,.1,2.346m2.493,3.91v.2q.243.292,0-.2m.1-13.929.048.1V19.524Zm.733,2.542h.293c.032-.065.2-.1.488-.1l.831-.147a.737.737,0,0,0,.929-.635q.048-1.71-.049-3.47a2.217,2.217,0,0,0-.146-1.027h-2.444q-.049,1.614.049,3.177a7.07,7.07,0,0,0,.049,2.2m.244,12.12.146.2,3.52-.244a1.665,1.665,0,0,0,.244-1.076,28.345,28.345,0,0,0,.2-4.692h-2.346a2.5,2.5,0,0,0-.928.2,1.031,1.031,0,0,1-.587.024c-.2-.049-.326.09-.391.416a30.612,30.612,0,0,0,.147,5.18m4.741-5.767-.147,2.737a1.086,1.086,0,0,0,.1.684,20.629,20.629,0,0,0,.2-3.47c-.1,0-.147.017-.147.049m.928,3.47a.556.556,0,0,0,.1-.488.613.613,0,0,0-.1.488m1.222-3.47a.9.9,0,0,0,.342.538c.1-.032.13-.179.1-.44-.131-.228-.277-.26-.44-.1m.88,4.2q-.147.147,0,.44Zm0-2.541c.162.066.212-.1.146-.489q-.2.049-.146.489" fill="#ffa492"/>
    </g>
  </g>
</svg>
