<svg id="圖層_1" data-name="圖層 1" xmlns="http://www.w3.org/2000/svg" width="309.23" height="41.59" viewBox="0 0 309.23 41.59">
  <title>logo_scorll</title>
  <g>
    <path d="M571.81-128.47l-0.17.24-0.54.72h0l-0.18.24h0l-0.23.3h0l-0.25.35h0l-0.23.3-0.48.65-0.37.48L568.47-124l-0.19.25v0.06l-0.14.17v0.06l-0.24.31-0.9,1.06-0.18.25h0l-0.49.65-0.47.64-0.22.33h-0.06l-0.18.23-1.5,2h0l-0.42.55h0l-0.45.6h0l-0.46.62-0.07.1-0.59.74-0.18.29h11.11l-0.5.77v0.06l-0.32.41v0.06l-0.12.19h0l-0.18.24h0l-0.54.72-0.59.77-0.31.42L570-111l-0.3.42-0.71,1-0.18.24-0.48.66v0.06l-0.24.3-0.18.24-0.3.41-0.18.24-0.48.66h0l-0.37.48-0.11.16-1.47,1.8-0.32.41-0.18.24-0.71,1-0.23.3h0l-0.48.66h0l-0.54.71h0l-0.19.24-0.37.47c-0.05.09-.1,0.18-0.14,0.27h11.09v9.58c0,0.45.06,0.4-.39,0.4H552v-39.67h0.06a2.2,2.2,0,0,0,.37.06h19a6.58,6.58,0,0,1,1.09.06l-0.35.62v0.09h0Z" transform="translate(-552 129.91)" style="fill: #4c9827"/>
    <path d="M594.22-106h0l0.3-.17,0.65-.37,0.72-.54h0l0.6-.57,1.66-2,0.3-.46,0.34-.78,0.38-.9,0.31-1.35v-0.31h0l0.08-1.55H587.54l-0.72.1-2,.55-0.72.29h0l-0.18.11-0.84.49-1.32,1-0.06.1-0.45.44h0l-0.18.2-0.46.48-0.67,1c0.09,0.25-.1.33-0.24,0.43l-0.52,1-0.12.35-0.25,1-0.11.54-0.07.47v0.65c0,0.61,0,.61.65,0.61H589.8l-0.13-.09h0.13l-0.33-.06H578.88v-0.06h10.6a1.8,1.8,0,0,1,.39.08h-0.06V-105H590l0.8-.06,1.54-.24h0l0.32-.1,0.23-.07Z" transform="translate(-552 129.91)" style="fill: #0087cd"/>
    <path d="M596-92.26l-0.36.34-0.61.4h0L594-91h0l-0.7.31h0l-1.8.52h-0.11L590.7-90H578.53V-90.5l0.34-2.1,0.25-.83,0.09-.31h0l1.38-2.39,0.19-.23,0.26-.31,1-1,0.07-.07,0.31-.22,0.28-.2,0.49-.34,2.28-1.07h0.1l0.83-.18,0.3-.06,0.31-.1h0.6c0.06,0,.13.1,0.2,0.11h11.46a0.45,0.45,0,0,1,.39.23v0.3l-0.11.84,0,0.3h0l-0.12.55v0.21c-0.1.29-.19,0.57-0.28,0.85a0.07,0.07,0,0,0,0,.06l-0.25.6-0.11.2-0.43.8L598-94.3h0l-0.3.41-0.43.54Z" transform="translate(-552 129.91)" style="fill: #0087cd"/>
    <path d="M591.21-90.42v0.07l0.79-.07h-0.79Z" transform="translate(-552 129.91)" style="fill: #0087cd"/>
    <path d="M581.43-96.58a0.28,0.28,0,0,0,.06-0.08,0.24,0.24,0,0,0-.06-0.09,0.06,0.06,0,0,0-.06.06A0.39,0.39,0,0,0,581.43-96.58Z" transform="translate(-552 129.91)" style="fill: #0087cd"/>
    <path d="M581.2-96.38h-0.08a0.57,0.57,0,0,0,0,.13Z" transform="translate(-552 129.91)" style="fill: #0087cd"/>
    <path d="M583.65-128.76l1.14-.53H585l0.29-.09,0.37-.16,0.35-.08,0.7-.12h1.7v0.06H588v0.06h11a1.86,1.86,0,0,0,.34-0.06h0c0.18,0,.26,0,0.25.23s0,0.49,0,.74l-0.11.82-0.07.3-0.25,1.07h0L599-126l-0.07.27-0.28.49v0.11l-0.42.77-0.51.67-0.32.4-0.4.5h0l-0.9.83-0.2.17h0l-0.48.35-0.36.24-0.18.11h-0.06l-0.36.21h0l-0.25.12h-0.11l-0.17.08-0.12.06-1.32.47h0l-0.54.11-0.41.07-0.71.11a0.32,0.32,0,0,0-.08-0.09h-11.5a1.86,1.86,0,0,0-.34.06h-0.23v-0.6l0.07-1.06c0.08-.34.16-0.68,0.23-1a0.14,0.14,0,0,0,0-.06l0.42-1.19,0.28-.6,0.19-.35h0l0.18-.31h0l0.35-.54,0.3-.35,0.41-.48,0.19-.19,0.35-.41h0l0.6-.52h0l0.48-.38Z" transform="translate(-552 129.91)" style="fill: #0087cd"/>
    <path d="M578.75-120.93h0v0.28h0v-0.28Z" transform="translate(-552 129.91)" style="fill: #0087cd"/>
    <path d="M578.82-121.24h-0.06v0.15h0.05A0.83,0.83,0,0,1,578.82-121.24Z" transform="translate(-552 129.91)" style="fill: #0087cd"/>
    <g style="isolation: isolate">
      <path d="M614.41-113.75v-14.76h9.08v2.45h-6.12v3.41h5.2v2.47h-5.2v3.95h6.34v2.47h-9.3Z" transform="translate(-552 129.91)"/>
      <path d="M626.47-113.75v-11.17h2.4l0.2,1.48h0.08a5.27,5.27,0,0,1,3.64-1.76q3.46,0,3.46,4.49v7h-2.94v-6.6a3.28,3.28,0,0,0-.37-1.81,1.37,1.37,0,0,0-1.21-.53,2.39,2.39,0,0,0-1.2.32,6.75,6.75,0,0,0-1.14.94v7.68h-2.92Z" transform="translate(-552 129.91)"/>
      <path d="M641.81-113.75L638-124.92h3l1.64,5.57,0.56,2.09q0.22,0.86.34,1.3h0.1q0.26-1,.82-3.07c0-.15.07-0.25,0.08-0.32l1.64-5.57h2.82l-3.74,11.17h-3.4Z" transform="translate(-552 129.91)"/>
      <path d="M652.29-126.72a1.82,1.82,0,0,1-1.26-.45,1.47,1.47,0,0,1-.5-1.15,1.48,1.48,0,0,1,.49-1.16,1.83,1.83,0,0,1,1.27-.44,1.8,1.8,0,0,1,1.25.44,1.48,1.48,0,0,1,.49,1.16,1.49,1.49,0,0,1-.49,1.14A1.76,1.76,0,0,1,652.29-126.72Zm-1.48,13v-11.17h2.92v11.17h-2.92Z" transform="translate(-552 129.91)"/>
      <path d="M656.89-113.75v-11.17h2.4l0.2,2h0.08a4.9,4.9,0,0,1,1.46-1.68,3,3,0,0,1,1.72-.58,3.43,3.43,0,0,1,1.32.24l-0.52,2.53a3.78,3.78,0,0,0-1.16-.18,2.2,2.2,0,0,0-1.38.5,3.68,3.68,0,0,0-1.2,1.7v6.66h-2.92Z" transform="translate(-552 129.91)"/>
      <path d="M670-113.47a5.1,5.1,0,0,1-3.74-1.54,5.86,5.86,0,0,1-1.64-4.31,5.91,5.91,0,0,1,1.64-4.35A5.06,5.06,0,0,1,670-125.2a5.06,5.06,0,0,1,3.74,1.54,5.91,5.91,0,0,1,1.64,4.35,5.86,5.86,0,0,1-1.64,4.31A5.1,5.1,0,0,1,670-113.47Zm0-2.39a2,2,0,0,0,1.76-.94,4.46,4.46,0,0,0,.62-2.52,4.46,4.46,0,0,0-.62-2.52,2,2,0,0,0-1.76-1,2,2,0,0,0-1.76,1,4.46,4.46,0,0,0-.62,2.52,4.46,4.46,0,0,0,.62,2.52A2,2,0,0,0,670-115.87Z" transform="translate(-552 129.91)"/>
      <path d="M677.89-113.75v-11.17h2.4l0.2,1.48h0.08a5.27,5.27,0,0,1,3.64-1.76q3.46,0,3.46,4.49v7h-2.94v-6.6a3.28,3.28,0,0,0-.37-1.81,1.37,1.37,0,0,0-1.21-.53,2.39,2.39,0,0,0-1.2.32,6.75,6.75,0,0,0-1.14.94v7.68h-2.92Z" transform="translate(-552 129.91)"/>
      <path d="M690.71-113.75v-11.17h2.4l0.2,1.5h0.08a7.86,7.86,0,0,1,1.52-1.26,3.86,3.86,0,0,1,1.92-.52,3.09,3.09,0,0,1,3.08,2,7.8,7.8,0,0,1,1.62-1.38,3.66,3.66,0,0,1,1.94-.58,3.1,3.1,0,0,1,2.64,1.2,5.48,5.48,0,0,1,.84,3.29v7H704v-6.6a3.32,3.32,0,0,0-.38-1.81,1.33,1.33,0,0,0-1.18-.52,3.27,3.27,0,0,0-2.16,1.26v7.68h-2.94v-6.6a3.31,3.31,0,0,0-.38-1.81,1.33,1.33,0,0,0-1.18-.52,3.27,3.27,0,0,0-2.16,1.26v7.68h-2.92Z" transform="translate(-552 129.91)"/>
      <path d="M714.85-113.47a5.3,5.3,0,0,1-3.94-1.56,5.75,5.75,0,0,1-1.62-4.29,6,6,0,0,1,1.6-4.31,4.86,4.86,0,0,1,3.62-1.58,4.3,4.3,0,0,1,3.5,1.52,5.85,5.85,0,0,1,1.18,3.83,4.87,4.87,0,0,1-.14,1.34h-6.9a3.16,3.16,0,0,0,1,2.07,3,3,0,0,0,2.08.72,4.69,4.69,0,0,0,2.52-.78l1,1.8A6.78,6.78,0,0,1,714.85-113.47Zm-2.74-7h4.56a2.81,2.81,0,0,0-.52-1.82,2,2,0,0,0-1.6-.66,2.23,2.23,0,0,0-1.58.62A3.06,3.06,0,0,0,712.11-120.46Z" transform="translate(-552 129.91)"/>
      <path d="M721.61-113.75v-11.17H724l0.2,1.48h0.08a5.27,5.27,0,0,1,3.64-1.76q3.46,0,3.46,4.49v7h-2.94v-6.6a3.28,3.28,0,0,0-.37-1.81,1.37,1.37,0,0,0-1.21-.53,2.39,2.39,0,0,0-1.2.32,6.75,6.75,0,0,0-1.14.94v7.68h-2.92Z" transform="translate(-552 129.91)"/>
      <path d="M738.53-113.47q-3.68,0-3.68-4.19v-4.95h-1.58v-2.17l1.72-.14,0.34-3h2.46v3h2.76v2.31h-2.76v4.95q0,1.88,1.52,1.88a3,3,0,0,0,1.1-.24l0.48,2.13A7.5,7.5,0,0,1,738.53-113.47Z" transform="translate(-552 129.91)"/>
      <path d="M745.13-113.47a3.21,3.21,0,0,1-2.4-.94,3.25,3.25,0,0,1-.92-2.37,3.13,3.13,0,0,1,1.53-2.78,11.69,11.69,0,0,1,4.91-1.35,1.74,1.74,0,0,0-1.9-1.93,6.56,6.56,0,0,0-3.08,1.06l-1.06-1.94a8.85,8.85,0,0,1,4.68-1.48A4,4,0,0,1,750.1-124a5.45,5.45,0,0,1,1.09,3.68v6.52h-2.4l-0.22-1.2h-0.06A5.25,5.25,0,0,1,745.13-113.47Zm1-2.29a3.14,3.14,0,0,0,2.16-1.1v-2.25q-3.64.48-3.64,2.09A1.22,1.22,0,0,0,746.09-115.77Z" transform="translate(-552 129.91)"/>
      <path d="M756.95-113.47q-2.76,0-2.76-3.41v-12.79h2.92v12.93q0,0.88.6,0.88a2,2,0,0,0,.4,0l0.36,2.17A4,4,0,0,1,756.95-113.47Z" transform="translate(-552 129.91)"/>
      <path d="M765.27-113.75v-14.76h9.08v2.45h-6.12v3.41h5.2v2.47h-5.2v3.95h6.34v2.47h-9.3Z" transform="translate(-552 129.91)"/>
      <path d="M781-113.47a4,4,0,0,1-3.34-1.57,6.71,6.71,0,0,1-1.24-4.28,6.38,6.38,0,0,1,1.44-4.31,4.17,4.17,0,0,1,3.26-1.58,3.71,3.71,0,0,1,1.6.34A4.69,4.69,0,0,1,784-124l-0.12-1.76v-3.93h2.94v15.92h-2.38l-0.24-1.16h-0.06A4.44,4.44,0,0,1,781-113.47Zm0.76-2.41a2.57,2.57,0,0,0,2.08-1.16V-122a3,3,0,0,0-2.08-.84,2,2,0,0,0-1.64.88,4.27,4.27,0,0,0-.68,2.55,4.6,4.6,0,0,0,.6,2.59A2,2,0,0,0,781.79-115.89Z" transform="translate(-552 129.91)"/>
      <path d="M793.29-113.47q-3.44,0-3.44-4.47v-7h2.94v6.6a3.26,3.26,0,0,0,.38,1.82,1.33,1.33,0,0,0,1.18.52,2.19,2.19,0,0,0,1.19-.32,4.44,4.44,0,0,0,1.09-1.08v-7.54h2.94v11.17h-2.4l-0.22-1.6h-0.08A4.62,4.62,0,0,1,793.29-113.47Z" transform="translate(-552 129.91)"/>
      <path d="M807.47-113.47a5.25,5.25,0,0,1-3.9-1.54,5.94,5.94,0,0,1-1.56-4.31,5.76,5.76,0,0,1,1.72-4.35,5.59,5.59,0,0,1,4-1.54A4.92,4.92,0,0,1,811-124l-1.4,1.9a2.66,2.66,0,0,0-1.72-.74,2.56,2.56,0,0,0-2.07,1,3.85,3.85,0,0,0-.79,2.53,3.81,3.81,0,0,0,.78,2.5,2.47,2.47,0,0,0,2,.95,3.41,3.41,0,0,0,2.18-.9l1.16,1.94A5.35,5.35,0,0,1,807.47-113.47Z" transform="translate(-552 129.91)"/>
      <path d="M815.77-113.47a3.21,3.21,0,0,1-2.4-.94,3.25,3.25,0,0,1-.92-2.37,3.13,3.13,0,0,1,1.53-2.78,11.69,11.69,0,0,1,4.91-1.35,1.74,1.74,0,0,0-1.9-1.93,6.56,6.56,0,0,0-3.08,1.06l-1.06-1.94a8.85,8.85,0,0,1,4.68-1.48,4,4,0,0,1,3.21,1.25,5.45,5.45,0,0,1,1.09,3.68v6.52h-2.4l-0.22-1.2h-0.06A5.25,5.25,0,0,1,815.77-113.47Zm1-2.29a3.14,3.14,0,0,0,2.16-1.1v-2.25q-3.64.48-3.64,2.09A1.22,1.22,0,0,0,816.73-115.77Z" transform="translate(-552 129.91)"/>
      <path d="M828.55-113.47q-3.68,0-3.68-4.19v-4.95h-1.58v-2.17l1.72-.14,0.34-3h2.46v3h2.76v2.31h-2.76v4.95q0,1.88,1.52,1.88a3,3,0,0,0,1.1-.24l0.48,2.13A7.5,7.5,0,0,1,828.55-113.47Z" transform="translate(-552 129.91)"/>
      <path d="M834.33-126.72a1.82,1.82,0,0,1-1.26-.45,1.47,1.47,0,0,1-.5-1.15,1.48,1.48,0,0,1,.49-1.16,1.83,1.83,0,0,1,1.27-.44,1.8,1.8,0,0,1,1.25.44,1.48,1.48,0,0,1,.49,1.16,1.49,1.49,0,0,1-.49,1.14A1.76,1.76,0,0,1,834.33-126.72Zm-1.48,13v-11.17h2.92v11.17h-2.92Z" transform="translate(-552 129.91)"/>
      <path d="M843.61-113.47a5.1,5.1,0,0,1-3.74-1.54,5.86,5.86,0,0,1-1.64-4.31,5.91,5.91,0,0,1,1.64-4.35,5.06,5.06,0,0,1,3.74-1.54,5.06,5.06,0,0,1,3.74,1.54,5.91,5.91,0,0,1,1.64,4.35,5.86,5.86,0,0,1-1.64,4.31A5.1,5.1,0,0,1,843.61-113.47Zm0-2.39a2,2,0,0,0,1.76-.94,4.46,4.46,0,0,0,.62-2.52,4.46,4.46,0,0,0-.62-2.52,2,2,0,0,0-1.76-1,2,2,0,0,0-1.76,1,4.46,4.46,0,0,0-.62,2.52,4.46,4.46,0,0,0,.62,2.52A2,2,0,0,0,843.61-115.87Z" transform="translate(-552 129.91)"/>
      <path d="M851.45-113.75v-11.17h2.4l0.2,1.48h0.08a5.27,5.27,0,0,1,3.64-1.76q3.46,0,3.46,4.49v7h-2.94v-6.6a3.28,3.28,0,0,0-.37-1.81,1.37,1.37,0,0,0-1.21-.53,2.39,2.39,0,0,0-1.2.32,6.75,6.75,0,0,0-1.14.94v7.68h-2.92Z" transform="translate(-552 129.91)"/>
      <path d="M614.41-92.81v-14.76h3v14.76h-3Z" transform="translate(-552 129.91)"/>
      <path d="M620.77-92.81V-104h2.4l0.2,1.48h0.08a5.27,5.27,0,0,1,3.64-1.76q3.46,0,3.46,4.49v7h-2.94v-6.6a3.28,3.28,0,0,0-.37-1.81,1.37,1.37,0,0,0-1.21-.53,2.39,2.39,0,0,0-1.2.32,6.75,6.75,0,0,0-1.14.94v7.68h-2.92Z" transform="translate(-552 129.91)"/>
      <path d="M634.09-92.81v-8.86h-1.5v-2.17l1.5-.12v-0.92a4.38,4.38,0,0,1,.9-2.93,3.69,3.69,0,0,1,3-1.2,5.67,5.67,0,0,1,2.12.4l-0.54,2.15a3.51,3.51,0,0,0-1.18-.24q-1.36,0-1.36,1.76v1h2.1v2.31H637v8.86h-2.94Z" transform="translate(-552 129.91)"/>
      <path d="M645.47-92.53a5.1,5.1,0,0,1-3.74-1.54,5.86,5.86,0,0,1-1.64-4.31,5.91,5.91,0,0,1,1.64-4.35,5.06,5.06,0,0,1,3.74-1.54,5.06,5.06,0,0,1,3.74,1.54,5.91,5.91,0,0,1,1.64,4.35,5.86,5.86,0,0,1-1.64,4.31A5.1,5.1,0,0,1,645.47-92.53Zm0-2.39a2,2,0,0,0,1.76-.94,4.46,4.46,0,0,0,.62-2.52,4.46,4.46,0,0,0-.62-2.52,2,2,0,0,0-1.76-1,2,2,0,0,0-1.76,1,4.46,4.46,0,0,0-.62,2.52,4.46,4.46,0,0,0,.62,2.52A2,2,0,0,0,645.47-94.92Z" transform="translate(-552 129.91)"/>
      <path d="M653.31-92.81V-104h2.4l0.2,2H656a4.9,4.9,0,0,1,1.46-1.68,3,3,0,0,1,1.72-.58,3.43,3.43,0,0,1,1.32.24L660-101.48a3.78,3.78,0,0,0-1.16-.18,2.2,2.2,0,0,0-1.38.5,3.68,3.68,0,0,0-1.2,1.7v6.66h-2.92Z" transform="translate(-552 129.91)"/>
      <path d="M662-92.81V-104h2.4l0.2,1.5h0.08a7.86,7.86,0,0,1,1.52-1.26,3.86,3.86,0,0,1,1.92-.52,3.09,3.09,0,0,1,3.08,2,7.8,7.8,0,0,1,1.62-1.38,3.66,3.66,0,0,1,1.94-.58,3.1,3.1,0,0,1,2.64,1.2,5.48,5.48,0,0,1,.84,3.29v7h-2.94v-6.6a3.32,3.32,0,0,0-.38-1.81,1.33,1.33,0,0,0-1.18-.52,3.27,3.27,0,0,0-2.16,1.26v7.68h-2.94v-6.6a3.31,3.31,0,0,0-.38-1.81,1.33,1.33,0,0,0-1.18-.52,3.27,3.27,0,0,0-2.16,1.26v7.68H662Z" transform="translate(-552 129.91)"/>
      <path d="M684.07-92.53a3.21,3.21,0,0,1-2.4-.94,3.25,3.25,0,0,1-.92-2.37,3.13,3.13,0,0,1,1.53-2.78,11.69,11.69,0,0,1,4.91-1.35,1.74,1.74,0,0,0-1.9-1.93,6.56,6.56,0,0,0-3.08,1.06l-1.06-1.94a8.85,8.85,0,0,1,4.68-1.48A4,4,0,0,1,689-103a5.45,5.45,0,0,1,1.09,3.68v6.52h-2.4L687.51-94h-0.06A5.25,5.25,0,0,1,684.07-92.53Zm1-2.29a3.14,3.14,0,0,0,2.16-1.1v-2.25q-3.64.48-3.64,2.09A1.22,1.22,0,0,0,685-94.82Z" transform="translate(-552 129.91)"/>
      <path d="M696.85-92.53q-3.68,0-3.68-4.19v-4.95h-1.58v-2.17l1.72-.14,0.34-3h2.46v3h2.76v2.31h-2.76v4.95q0,1.88,1.52,1.88a3,3,0,0,0,1.1-.24l0.48,2.13A7.5,7.5,0,0,1,696.85-92.53Z" transform="translate(-552 129.91)"/>
      <path d="M702.63-105.77a1.82,1.82,0,0,1-1.26-.45,1.47,1.47,0,0,1-.5-1.15,1.48,1.48,0,0,1,.49-1.16,1.83,1.83,0,0,1,1.27-.44,1.8,1.8,0,0,1,1.25.44,1.48,1.48,0,0,1,.49,1.16,1.49,1.49,0,0,1-.49,1.14A1.76,1.76,0,0,1,702.63-105.77Zm-1.48,13V-104h2.92v11.17h-2.92Z" transform="translate(-552 129.91)"/>
      <path d="M711.91-92.53a5.1,5.1,0,0,1-3.74-1.54,5.86,5.86,0,0,1-1.64-4.31,5.91,5.91,0,0,1,1.64-4.35,5.06,5.06,0,0,1,3.74-1.54,5.06,5.06,0,0,1,3.74,1.54,5.91,5.91,0,0,1,1.64,4.35,5.86,5.86,0,0,1-1.64,4.31A5.1,5.1,0,0,1,711.91-92.53Zm0-2.39a2,2,0,0,0,1.76-.94,4.46,4.46,0,0,0,.62-2.52,4.46,4.46,0,0,0-.62-2.52,2,2,0,0,0-1.76-1,2,2,0,0,0-1.76,1,4.46,4.46,0,0,0-.62,2.52,4.46,4.46,0,0,0,.62,2.52A2,2,0,0,0,711.91-94.92Z" transform="translate(-552 129.91)"/>
      <path d="M719.75-92.81V-104h2.4l0.2,1.48h0.08a5.27,5.27,0,0,1,3.64-1.76q3.46,0,3.46,4.49v7h-2.94v-6.6a3.28,3.28,0,0,0-.37-1.81,1.37,1.37,0,0,0-1.21-.53,2.39,2.39,0,0,0-1.2.32,6.75,6.75,0,0,0-1.14.94v7.68h-2.92Z" transform="translate(-552 129.91)"/>
      <path d="M741.77-92.53a7.84,7.84,0,0,1-2.91-.56,7.6,7.6,0,0,1-2.49-1.6l1.7-2a6.27,6.27,0,0,0,1.8,1.18,4.68,4.68,0,0,0,2,.46,2.92,2.92,0,0,0,1.75-.45,1.46,1.46,0,0,0,.61-1.25,1.43,1.43,0,0,0-.58-1.18,7.74,7.74,0,0,0-1.5-.76L742-98.77l-2-.84q-3-1.24-3-4a3.83,3.83,0,0,1,1.44-3.05,5.51,5.51,0,0,1,3.68-1.22,6.61,6.61,0,0,1,2.52.5,6.39,6.39,0,0,1,2.12,1.4l-1.5,1.86a4.87,4.87,0,0,0-3.14-1.22,2.61,2.61,0,0,0-1.56.42,1.33,1.33,0,0,0-.58,1.14,1.36,1.36,0,0,0,.64,1.14,7.19,7.19,0,0,0,1.54.74l0.14,0.06,1.94,0.82a5.42,5.42,0,0,1,2.16,1.48,3.91,3.91,0,0,1,.82,2.53,4,4,0,0,1-1.44,3.13A5.84,5.84,0,0,1,741.77-92.53Z" transform="translate(-552 129.91)"/>
      <path d="M750.57-88.32a5.14,5.14,0,0,1-1.54-.22l0.54-2.25a2.78,2.78,0,0,0,.78.14,2.12,2.12,0,0,0,2.1-1.7l0.2-.66-4.36-11h3L753-98.79q0.22,0.68.64,2.09l0.3,1.06h0.1q0.14-.52.41-1.58t0.39-1.58l1.54-5.19h2.82l-4,11.51a8.33,8.33,0,0,1-1.76,3.07A4.08,4.08,0,0,1,750.57-88.32Z" transform="translate(-552 129.91)"/>
      <path d="M764.27-92.53A6.53,6.53,0,0,1,762-93a7,7,0,0,1-2-1.14l1.34-1.83a4.94,4.94,0,0,0,3,1.22q1.62,0,1.62-1.18a1.12,1.12,0,0,0-.64-0.92,7.75,7.75,0,0,0-1.44-.66l-0.26-.1a6.76,6.76,0,0,1-2.06-1.14,2.68,2.68,0,0,1-1-2.11,3.08,3.08,0,0,1,1.14-2.47,4.54,4.54,0,0,1,3-1,6.36,6.36,0,0,1,3.82,1.38l-1.32,1.78a4.45,4.45,0,0,0-2.42-1,1.84,1.84,0,0,0-1.12.3,0.93,0.93,0,0,0-.36.78,1,1,0,0,0,.56.84,8.64,8.64,0,0,0,1.34.58l0.38,0.14a7.6,7.6,0,0,1,2.12,1.12,2.83,2.83,0,0,1,1,2.25,3.1,3.1,0,0,1-1.14,2.49A4.91,4.91,0,0,1,764.27-92.53Z" transform="translate(-552 129.91)"/>
      <path d="M774.61-92.53q-3.68,0-3.68-4.19v-4.95h-1.58v-2.17l1.72-.14,0.34-3h2.46v3h2.76v2.31h-2.76v4.95q0,1.88,1.52,1.88a3,3,0,0,0,1.1-.24L777-92.95A7.5,7.5,0,0,1,774.61-92.53Z" transform="translate(-552 129.91)"/>
      <path d="M783.39-92.53a5.3,5.3,0,0,1-3.94-1.56,5.75,5.75,0,0,1-1.62-4.29,6,6,0,0,1,1.6-4.31,4.86,4.86,0,0,1,3.62-1.58,4.3,4.3,0,0,1,3.5,1.52,5.85,5.85,0,0,1,1.18,3.83,4.87,4.87,0,0,1-.14,1.34h-6.9a3.16,3.16,0,0,0,1,2.07,3,3,0,0,0,2.08.72,4.69,4.69,0,0,0,2.52-.78l1,1.8A6.78,6.78,0,0,1,783.39-92.53Zm-2.74-7h4.56a2.81,2.81,0,0,0-.52-1.82,2,2,0,0,0-1.6-.66,2.23,2.23,0,0,0-1.58.62A3.06,3.06,0,0,0,780.65-99.51Z" transform="translate(-552 129.91)"/>
      <path d="M790.15-92.81V-104h2.4l0.2,1.5h0.08a7.86,7.86,0,0,1,1.52-1.26,3.86,3.86,0,0,1,1.92-.52,3.09,3.09,0,0,1,3.08,2,7.8,7.8,0,0,1,1.62-1.38,3.66,3.66,0,0,1,1.94-.58,3.1,3.1,0,0,1,2.64,1.2,5.48,5.48,0,0,1,.84,3.29v7h-2.94v-6.6a3.32,3.32,0,0,0-.38-1.81,1.33,1.33,0,0,0-1.18-.52,3.27,3.27,0,0,0-2.16,1.26v7.68h-2.94v-6.6a3.31,3.31,0,0,0-.38-1.81,1.33,1.33,0,0,0-1.18-.52,3.27,3.27,0,0,0-2.16,1.26v7.68h-2.92Z" transform="translate(-552 129.91)"/>
    </g>
  </g>
</svg>
