<svg xmlns="http://www.w3.org/2000/svg" width="128.76" height="58.77" viewBox="0 0 128.76 58.77">
  <g>
    <g>
      <path d="M58.51,30.45,56.79,55.72S2.11,58.59,1.38,58.59A1.48,1.48,0,0,1,0,56.88C.1,55.78,6.67,31.73,6.77,31s.25-.93,1.1-1S58.51,30.45,58.51,30.45Z" style="fill: #5bab4c"/>
      <path d="M70.81,30.5c-1.72,0-3,2.51-6.68,2.4s-4.9-2.44-5.62-2.45L56.79,55.72c1.65-.12.44,3.05,2.65,3.05h9.77c2.54,0,1.38-3.05,2.76-3.05Z" style="fill: #5bab4c"/>
      <path d="M58.51,29.73,57.06,55S1.93,57.88,1.21,57.88C0,57.88-.18,57.34.14,56.1.56,54.5,6.56,31,6.77,30.31c.27-.84.4-1,1.25-1Z" style="fill: #2f5e26"/>
      <path d="M70.81,29.78c-1.72,0-3,2.51-6.68,2.4s-4.9-2.43-5.62-2.45L57.06,55c1.88-.1,1,3,2.64,3h9.19c2,0,1.38-3,2.75-3Z" style="fill: #2f5e26"/>
      <path d="M70.26,30.45,72,55.72s54.68,2.87,55.41,2.87a1.49,1.49,0,0,0,1.38-1.71c-.1-1.1-6.67-25.15-6.77-25.86s-.25-.94-1.1-1S70.26,30.45,70.26,30.45Z" style="fill: #5bab4c"/>
      <path d="M70.2,29.73,71.64,55s55.13,2.88,55.85,2.88c1.21,0,1.39-.54,1.07-1.78-.42-1.61-6.42-25.12-6.63-25.79-.26-.85-.39-1-1.25-1S70.2,29.73,70.2,29.73Z" style="fill: #2f5e26"/>
      <path d="M1.52,55.94s11.86.24,26.63-.51,27.24-1.1,30.43-.93,3.27.88,5.8,1.13,5.21-1,5.8-1.13,16.5.28,24.6.72,28.1,1,32.47.72c0,0-42.57-6.66-62.9-6.66S1.52,55.94,1.52,55.94Z" style="opacity: 0.2"/>
    </g>
    <g>
      <path d="M127.25,55.94l-5.94-25.17-1.74-3.17,5,22.53S125.77,54.59,127.25,55.94Z" style="fill: #f5e6e0"/>
      <path d="M70.18,54.5s-3.29-2.93-5.8-3.65c0,0,4.65-5,19-5.09s41.23,4.37,41.23,4.37,1.92,4.37,2.64,5.81c0,0-7.84.07-20.88-.65C98.88,54.88,80.35,52.93,70.18,54.5Z" style="fill: #ebd4c8"/>
      <path d="M83.38,45.76c14.36-.09,41.23,4.37,41.23,4.37l-5-22.53S95,23.13,81.79,23.23s-17.41,5.09-17.41,5.09V50.85S69,45.86,83.38,45.76Z" style="fill: #fffcf5"/>
      <path d="M83.2,45.61c14.35-.1,40.21,3.37,40.21,3.37l-4.87-21.19S95,23.13,81.79,23.23s-17.41,5.09-17.41,5.09V50.85S68.84,45.7,83.2,45.61Z" style="opacity: 0.07"/>
      <path d="M81.79,23.23c13.16-.1,36.58,2.54,36.58,2.54l5,22.54s-25.74-3.6-40.09-3.1c-15.61.55-18.94,5.64-18.94,5.64V28.32S68.64,23.32,81.79,23.23Z" style="fill: #fffcf5"/>
      <path d="M81.79,23.23c13.16-.1,36.58,2.54,36.58,2.54L122.92,47S98,43.72,83.65,44.61c-15.59,1-19.27,6.24-19.27,6.24V28.32S68.64,23.32,81.79,23.23Z" style="opacity: 0.07"/>
      <path d="M117.52,23.23l5,22.53s-47.87-7-58.19,5.09V28.32C73.75,16.43,117.52,23.23,117.52,23.23Z" style="fill: #fffcf5"/>
      <path d="M116.36,23.34l4.36,19.84s-46-4.42-56.34,7.67V28.32C73.75,16.43,116.36,23.34,116.36,23.34Z" style="opacity: 0.07"/>
      <path d="M115,19.84l5.91,22.39S74.7,38.76,64.38,50.85V28.32C73.75,16.43,115,19.84,115,19.84Z" style="fill: #fffcf5"/>
      <path d="M114.56,19.91l4.31,21.86s-45.19-6-54.49,9.08V28.32C73.75,16.43,114.56,19.91,114.56,19.91Z" style="opacity: 0.07"/>
      <path d="M113.55,17.54,118.42,41s-45.43-8.5-54,9.81V28.32C71.23,5.78,113.55,17.54,113.55,17.54Z" style="fill: #fffcf5"/>
      <path d="M111.45,17.35l5,22.39s-42.82-10.45-52,11.11V28.32C71.23,5.78,111.45,17.35,111.45,17.35Z" style="opacity: 0.07"/>
      <path d="M110,14.37l7.16,24.92S72.51,27.6,64.38,50.85V28.32C70.26-.1,110,14.37,110,14.37Z" style="fill: #fffcf5"/>
      <path d="M68.38,28.74C69.52,23.59,72,20,75.89,17.66c3.36-2,7.8-3,13.2-3a64.22,64.22,0,0,1,17.62,2.83L111.45,34a104.24,104.24,0,0,0-17.76-1.66c-12.26,0-20.19,2.8-25.31,6.62Z" style="fill: #f2ebe4"/>
      <path d="M112.05,32.66l-5.64-19.4c-9.87-2.76-37.23-8.15-42,15.06V50.85h0S66.3,41.22,79.9,35.64C92,30.69,112.05,32.66,112.05,32.66Z" style="opacity: 0.05"/>
      <path d="M102.73,0,114.3,31.59S71.7,24.51,64.38,50.85V28.32C67.76-1.82,102.73,0,102.73,0Z" style="fill: #fffcf5"/>
      <path d="M65.53,42.69c7.72-12.54,20.6-16.86,39.26-17.26L97.25,3c-.47,0-27.59,1.91-31,25.37Z" style="fill: #f2ebe4"/>
      <path d="M69.66,51.13a48.16,48.16,0,0,1,17.65-2.55c10.53.3,25.62,2.55,25.62,2.55s-18.93-1.66-26.48-2A56.33,56.33,0,0,0,69.66,51.13Z" style="fill: #cfafa1"/>
      <path d="M79.9,50.85s6.4-.87,20.44.88C100.34,51.73,84.7,50.62,79.9,50.85Z" style="fill: #cfafa1"/>
      <path d="M67,18.53a32.68,32.68,0,0,0-2.58,9.79V50.85A24,24,0,0,1,71.57,39.1,157.46,157.46,0,0,1,67,18.53Z" style="opacity: 0.03"/>
    </g>
    <g>
      <path d="M1.52,55.94,7.45,30.77,9.19,27.6l-5,22.53S3,54.59,1.52,55.94Z" style="fill: #f5e6e0"/>
      <path d="M58.58,54.5s3.29-2.93,5.8-3.65c0,0-4.64-5-19-5.09S4.15,50.13,4.15,50.13,2.23,54.5,1.52,55.94c0,0,7.83.07,20.87-.65C29.88,54.88,48.41,52.93,58.58,54.5Z" style="fill: #ebd4c8"/>
      <path d="M45.38,45.76C31,45.67,4.15,50.13,4.15,50.13l5-22.53S33.82,23.13,47,23.23s17.41,5.09,17.41,5.09V50.85S59.74,45.86,45.38,45.76Z" style="fill: #fffcf5"/>
      <path d="M45.56,45.61C31.21,45.51,5.35,49,5.35,49l4.87-21.19S33.82,23.13,47,23.23s17.41,5.09,17.41,5.09V50.85S59.92,45.7,45.56,45.61Z" style="opacity: 0.07"/>
      <path d="M47,23.23c-13.15-.1-36.58,2.54-36.58,2.54l-5,22.54s25.74-3.6,40.09-3.1c15.61.55,18.94,5.64,18.94,5.64V28.32S60.12,23.32,47,23.23Z" style="fill: #fffcf5"/>
      <path d="M47,23.23c-13.15-.1-36.58,2.54-36.58,2.54L5.84,47s24.92-3.31,39.27-2.42c15.6,1,19.27,6.24,19.27,6.24V28.32S60.12,23.32,47,23.23Z" style="opacity: 0.07"/>
      <path d="M11.24,23.23l-5,22.53s47.87-7,58.18,5.09V28.32C55,16.43,11.24,23.23,11.24,23.23Z" style="fill: #fffcf5"/>
      <path d="M12.4,23.34,8.05,43.18s46-4.42,56.33,7.67V28.32C55,16.43,12.4,23.34,12.4,23.34Z" style="opacity: 0.07"/>
      <path d="M13.78,19.84,7.87,42.23s46.2-3.47,56.51,8.62V28.32C55,16.43,13.78,19.84,13.78,19.84Z" style="fill: #fffcf5"/>
      <path d="M14.2,19.91,9.89,41.77s45.19-6,54.49,9.08V28.32C55,16.43,14.2,19.91,14.2,19.91Z" style="opacity: 0.07"/>
      <path d="M15.21,17.54,10.34,41s45.43-8.5,54,9.81V28.32C57.53,5.78,15.21,17.54,15.21,17.54Z" style="fill: #fffcf5"/>
      <path d="M17.32,17.35l-5,22.39s42.82-10.45,52,11.11V28.32C57.53,5.78,17.32,17.35,17.32,17.35Z" style="opacity: 0.07"/>
      <path d="M18.8,14.37,11.64,39.29S56.25,27.6,64.38,50.85V28.32C58.51-.1,18.8,14.37,18.8,14.37Z" style="fill: #fffcf5"/>
      <path d="M60.38,28.74c-1.14-5.15-3.6-8.77-7.51-11.08-3.35-2-7.79-3-13.2-3a64.14,64.14,0,0,0-17.61,2.83L17.32,34a104,104,0,0,1,17.75-1.66c12.26,0,20.19,2.8,25.31,6.62Z" style="fill: #f2ebe4"/>
      <path d="M15.22,33.39l7.13-20.13c9.87-2.76,37.23-8.15,42,15.06V50.85h0s-2.52-9.73-16.19-15.14C34.26,30.21,15.22,33.39,15.22,33.39Z" style="opacity: 0.05"/>
      <path d="M26,0,14.32,31.67s42.74-7.16,50.06,19.18V28.32C61-1.82,26,0,26,0Z" style="fill: #fffcf5"/>
      <path d="M63.23,42.69c-7.72-12.54-19.13-18-37.79-18.37L31.71,4.05c.47,0,27.39.9,30.77,24.36Z" style="fill: #f2ebe4"/>
      <path d="M59.1,51.13a51.67,51.67,0,0,0-17.8-2.4c-10.52.3-25.47,2.4-25.47,2.4s18.64-2,26.49-2A63.38,63.38,0,0,1,59.1,51.13Z" style="fill: #cfafa1"/>
      <path d="M48.86,50.85a194.69,194.69,0,0,0-25.43,1.5S44.06,50.62,48.86,50.85Z" style="fill: #cfafa1"/>
    </g>
  </g>
</svg>
