<?xml version="1.0" encoding="UTF-8"?>
<svg id="uuid-03a5d68e-f285-4098-80d6-238669709ffe" data-name="圖層 2" xmlns="http://www.w3.org/2000/svg" width="130.36" height="43.14" viewBox="0 0 130.36 43.14">
  <g id="uuid-d56b5bfc-6ce9-4f01-bfc6-dd9920fa2550" data-name="第一cut">
    <g id="uuid-d480c973-aa36-4308-a1e5-dc0b6f39d61d" data-name="map_Resultslist">
      <path d="m35.68,22.26l-3.68,3.36,4.68,6.8-7.72,3.04-2.44-4.8-3.48,3.16-2.44-2.24,3.8-5.08-5.88-11.52-8.48-.64-.2,5.52,9.24-.88.56,13.2h-6.88l.32-1.2-1.52-.2v-2.44l2.36-.32,1.04-3.8-5.28-.84-.32,9.56L.44,31.3,6.76,10.98l9.36-.76-2.32-4.6,3.44-1.64,3.96,5.8,3.16-.24-2.92-3.96,1.32-1.96,7.24,2.68-2.36,2.96,4.4-.4v7.12l-6.96-.52,3.6,5.28,2.28-3.04,4.72,4.56Z" style="fill: #ff6e52;"/>
      <path d="m46.96,30.7l-6.72,4.6-2.2-2.44,4.12-6.56,4.8,4.4Zm9.92-16.6l-3.2-.16.08,2.04,2.68.12v3.16l-2.52.08.12,2.48,9.44-.48.08,5.52-9.28-.56.48,10.24h-6.84l.52-10.6-9.32-.56-.04-2.84,9.56-.44.12-2.68-10,.2,1.44-15.92h3.56l.16,1.2,19.08-1.2.92,16.04h-6.68l1.16-10.92-5-.28.08,1.48,3.4-.12v4.2Zm-12.24-3.8l4.6-.16.08-1.84-4.96-.28.28,2.28Zm.76,5.32l3.56.16.08-2.04-3.92-.2.28,2.08Zm15.4,20.76l-4.28-6.08,2.08-2.44,7.12,3.36-4.92,5.16Z" style="fill: #ff6e52;"/>
      <path d="m72.12,25.62l-3.72-1.92,4-4.16,2.32,3.04,2.64-3.04-4.92-2.08-2.68,2.76-2.52-1.72,3.36-6.92-2.76.08.12-4.96,13.8,1.08-.04,3.36-7.2.28,2.48,1.28-1.84,1.92,5.8.64.72,8.72-11.36,8.48-2.36-2,4.16-4.84Zm16.28-13.52l-1.04,13.48h-3.44l-.96-13.48h5.44Zm8.48,20.52h-7.36l.12-1.92-1.92-.2-.04-2.92,2.16-.4,1.28-19.92,4.8-.04.96,25.4Z" style="fill: #ff6e52;"/>
      <path d="m122.96,9.14l-7.6-.44-.24,2.4,7.04.36-.04,2.76-7.4.48-.24,2.28,9.4-.48.12,5.36-13.8-.8,3,3.44-5.32,2.6h3.44l.64,5.8,2.76.16v3.44l-2.36.04.16,1.48-7.96.16.72-9.8-5.24,2.6-1.76-2.44,8.36-7.68-5.8-.36-.04-2.8,9.44-.48-.24-2.24-7.36.44v-4.96l6.96.36-.28-2.48-7.44-.48-.04-2.8,7.12-.36-.24-2.6h7.36l-.24,2.24,7.12-.36v5.16Zm1.48,19.08l5.44,3.72-5.6,5.4-10.56-12.92,2.08-2.16,4.92,3.4,4.2-3.96,3.56,5.44-4.04,1.08Z" style="fill: #ff6e52;"/>
    </g>
  </g>
</svg>