<?xml version="1.0" encoding="UTF-8"?>
<svg id="_圖層_2" data-name="圖層 2" xmlns="http://www.w3.org/2000/svg" width="156.88" height="185.24" viewBox="0 0 156.88 185.24">
  <g id="_第一cut" data-name="第一cut">
    <g>
      <path d="m141.34.69c1.1,3.03,1.91,5.99,2.37,9.19-1.67.43-3.29.99-4.93,1.5-.29.09-.22.57.1.54,1.26-.14,2.75-.56,4.01-.44,2.04.21,2.23,1.95,2.78,3.66.9,2.85,1.63,5.75,2.35,8.66-.81.35-1.62.7-2.43,1.06-.27.12-.23.53.09.52.42,0,2.1-.42,2.49-.27,1.14.44,1.26,2.15,1.59,3.18.74,2.31,1.86,4.54,2.68,6.82-.28,2.07,2.01,4.66-1.15,5.74-.34.12-9.09-2.36-8.75-2.34,3.35.2,6.7.16,10.03-.26.04,0,.07-.02.09-.04,1.28,3.15,2.34,6.37,3.55,9.55-.06-.02-.13-.03-.2-.01-20.2,5.57-40.39,11.17-60.56,16.81-10.08,2.82-20.17,5.65-30.25,8.5-10.06,2.83-20.3,5.34-30.22,8.62.08-.12.08-.32-.09-.38-5.07-2.05-10.71-3.28-16.16-3.77-.08-.16-.28-.27-.45-.14.6-.47,1.87-.7,2.59-1.1.75-.42,1.51-.84,2.27-1.25,1.81-.97,3.65-1.88,5.5-2.75.26-.12.26-.63-.1-.57-4.32.68-8.44,1.9-12.41,3.75-2.91,1.35-5.29.22-8.19-.62-2.32-.67-4.63-1.36-6.96-2,2.38-3.13,4.7-6.3,7.05-9.45,0,0,.01,0,.02,0,.3-.05.61-.09.91-.14.05.07.12.09.19.07.05-.02.09-.06.11-.11,2.4-.36,4.81-.65,7.25-.76.32-.02-7.03.92-7.36.87-2.4-.4,2.47-2.08.03-1.77,4.39-6.79,9.55-12.93,14.43-19.36.15-.2,0-.44-.18-.48.02,0,.03,0,.06,0,9.98-2.95,19.76-6.78,29.59-10.21,9.76-3.41,19.52-6.81,29.29-10.22,19.65-6.86,39.3-13.72,58.96-20.58Z" style="fill: #b17f4a;"/>
      <path d="m141.83.49c1.37,2.97,2.13,6.27,2.33,9.54,0,.12-.07.19-.15.2t-.01,0c-.25.1-1.04.46-1.86.79.13,0,.24-.01.28-.02.98-.09,1.65-.27,2.39.36,1.16,1,1.55,4.16,1.97,5.58.65,2.22,1.19,4.46,1.61,6.73.26-.03.37.4.09.52-.41.18-.81.35-1.22.53.51-.07,1.03-.19,1.54-.33.14-.04.29.03.34.18,1.13,3.51,2.31,7,3.32,10.55.07.04.14.1.16.18.02.06.02.13-.01.2,0,.02-.01.03-.02.05-.31.78-.61,1.58-.98,2.32.31-.01.62-.03.92-.04-.01-.04-.03-.07-.04-.1-.16-.38.45-.57.61-.2,1.36,3.23,2.72,6.55,3.58,9.95.08.01.15.07.17.17.2,1.01-.26,2.24-.7,3.14-.41.86-1.11,2.08-2.04,2.43-.1.04-.19-.04-.22-.13-.04.05-.08.1-.15.12-17.22,6.24-34.9,11.11-52.54,16.05.07.03.12.08.15.17,1.09,3.72,2.44,7.33,4.06,10.85.04.09,0,.23-.07.3-.6.59-1.17,1.01-1.83,1.33.65,0,1.29-.09,1.93-.33.13-.03.27,0,.34.12.76,1.22,1.32,2.4,1.78,3.76.04.12-.01.27-.12.34-.31.21-.6.38-.9.52.32.01.64.02.96.04.13,0,.23.07.27.19,5.38,14.32,13.68,39.21,17.04,54.15.02.08,0,.14-.05.2.11.05.19.2.12.33-.24.42-.62.79-.98,1.16.48.03.96.06,1.44.1.1-.18.42-.21.51.05,3.78,11.92,7.11,20.09,10.75,32.06.14-.02.28.08.25.25-.18.84-.83,1.64-1.28,2.37-.52.85-1.04,1.69-1.59,2.52-.03.04-.07.07-.11.09.01.05.02.1.03.16.02.14-.11.28-.23.32-1.14.39-2.82,1.46-4.09,1.1-.46-.13-.88-.61-1.27-1.16.1.56.11,1.09-.12,1.43-.72,1.07-3.84,1.36-5,1.63-1,.24-1.92.67-2.75,0-.19-.15-.66-1.41-.69-1.5h0s-.02-.06-.04-.09c.15.9.16,1.7-.14,2.1-.76,1.01-4.53,1.47-5.71,1.42-.11,0-.21-.06-.27-.15-.08-.01-.17-.06-.21-.16-3.35-8.31-5.17-13.4-7.66-22-2.5-8.65-4.85-17.35-7.21-26.05-4.71-17.28-13.16-44.49-19.02-61.42-14.79,4.26-29.58,8.56-44.45,12.47-.05.07-.15.08-.22.05-.07,0-.13-.02-.17-.06-6.21-1.89-12.24-4.06-18.59-5.48-3.19-.71-6.4-1.25-9.62-1.8-1.01-.17-2.06-.24-2.61-.93-.79-.09-1.02-.73-1.21-1.47-.48-1.81-1.01-3.41-1.98-5-.15-.04-.29-.08-.44-.13-.28-.09-.19-.54.1-.45.07.02.14.04.21.06.03,0,.05-.01.07-.02,0-.01,0-.02.01-.03,2.21-3.35,4.63-6.6,7.11-9.76.14-.18.34-.11.45.02.22-.05.45-.09.68-.13-.01-.04-.02-.08-.03-.13-.06-.22-.12-.44-.17-.67-.03-.11.05-.18.14-.18-.11-.06-.18-.18-.1-.32,4.04-7.05,9.4-13.44,14.55-19.68.06-.06.12-.1.19-.1-.17-.05-.21-.32,0-.41,9.65-3.9,19.69-6.99,29.52-10.42l9.51-3.32c-.93-1.36-1.31-3.08-1.84-4.63-.66-1.91-1.36-3.82-1.96-5.75-.04-.13,0-.23.08-.3-.02-.03-.01-.06,0-.09-.15-.1-.15-.38.05-.43.07-.02.13-.04.2-.05.29-.55.61-1.08.95-1.6.35-.54.7-1.17,1.2-1.59.12-.1.26-.01.31.11,5.44-1.87,10.98-3.54,16.52-5.06.01,0,.02,0,.02,0,.06-.14.11-.28.16-.42.05-.13.17-.16.28-.14.13-.09.36-.08.46.12,1.88,3.99,3.54,8.17,4.76,12.42C102.83,13.44,122.05,6.73,141.27.02c.25-.09.42.12.42.33.06.03.11.07.14.14Zm1.88,9.39c-.46-3.2-1.27-6.16-2.37-9.19-19.66,6.86-39.31,13.72-58.96,20.58-9.76,3.41-19.52,6.81-29.29,10.22-9.82,3.43-19.61,7.26-29.59,10.21-.02,0-.04,0-.06,0,.19.04.33.28.18.48-4.87,6.43-10.04,12.58-14.43,19.36,2.43-.3,4.97-.06,7.37.34.33.06.27.55-.05.57-2.44.11-4.84.39-7.25.76-.02.05-.06.09-.11.11-.06.02-.14,0-.19-.07-.31.05-.61.09-.91.14-.01,0-.02,0-.02,0-2.35,3.15-4.67,6.32-7.05,9.45,2.33.65,4.64,1.33,6.96,2,2.9.84,5.29,1.97,8.19.62,3.97-1.84,8.09-3.07,12.41-3.75.36-.06.37.44.1.57-1.86.86-3.7,1.78-5.5,2.75-.76.4-1.52.83-2.27,1.25-.72.4-1.99.63-2.59,1.1.17-.13.37-.02.45.14,5.45.49,11.1,1.71,16.16,3.77.16.07.17.26.09.38,9.92-3.28,20.16-5.79,30.22-8.62,10.08-2.85,20.17-5.68,30.25-8.5,20.18-5.65,40.36-11.25,60.56-16.81.07-.02.14-.01.2.01-1.21-3.18-2.27-6.4-3.55-9.55-.02.01-.05.03-.09.04-3.34.42-6.68.46-10.03.26-.33-.02-.44-.48-.11-.6,3.16-1.08,6.36-2.01,9.62-2.74-.82-2.27-1.56-4.57-2.3-6.88-.33-1.02-.45-2.74-1.59-3.18-.4-.15-2.07.26-2.49.27-.32,0-.36-.41-.09-.52.81-.36,1.62-.71,2.43-1.06-.72-2.91-1.45-5.81-2.35-8.66-.54-1.71-.74-3.46-2.78-3.66-1.26-.12-2.74.3-4.01.44-.31.04-.38-.44-.1-.54,1.64-.52,3.26-1.07,4.93-1.5Zm11.8,40.73c.37-.73.46-1.47.63-2.21-20.17,5.56-40.33,11.15-60.48,16.79-10.08,2.82-20.17,5.66-30.25,8.5-10.06,2.84-20.09,6.06-30.26,8.49-.06.02-.11.01-.15,0,.21,1.75.23,3.48.09,5.24,39.34-11.96,79.64-21.09,118.44-34.78.23-.08.38.09.39.28.41-.81,1.17-1.45,1.59-2.29Zm-4.39-12.72c.21-.71.48-1.41.75-2.09-2.57.64-5.11,1.35-7.64,2.17,2.3.07,4.59.04,6.89-.08Zm-33.39,79.76c-1.24-3.92-5.85-17.98-7.21-21.86-.59-1.69-1.19-3.37-1.81-5.05-.3-.82-.62-2.3-1.12-3.02-.73-1.06-1.31-.85-2.4-.89-.31-.01-.41-.44-.1-.55,1.61-.53,1.82-1.05,1.12-2.5-.36-.75-.6-1.23-1.47-1.4-.68-.13-1.53.05-2.3,0,1.42,4.48,2.78,8.99,4.21,13.44,2.65,8.23,8.61,26.61,11.27,34.83,1.33,4.13,2.66,8.26,4,12.39,1.37,4.27,2.75,8.54,4.13,12.81,2.7,8.37,5.23,12.98,7.53,21.47.03.12-.01.22-.08.27.09.53.16,1.06.24,1.59.4-.76.82-1.51,1.25-2.25.36-.64.7-1.46,1.2-2.03,0-.01-.01-.02-.02-.03-3.92-11.87-7.05-20.08-10.83-32-.69.03-1.38.02-2.08.02-.13,0-.24-.09-.27-.2-.03-.09-.01-.18.05-.26.43-.48.86-1.08,1.38-1.47-.04-.03-.08-.06-.1-.13-2.18-7.75-4.2-15.52-6.62-23.2Zm-16.92-48.28c-.86.24-1.71.48-2.56.72.01.01.02.03.03.05,1.44,3.81,2.74,7.68,3.97,11.58,3.46-1.06,1.38-3.8.51-6.11-.75-1.97-1.4-3.97-1.98-6-.03-.1,0-.18.04-.25Zm-18.62-48.72c.33-.12.65-.23.98-.34-1.5-4.03-3.01-8.03-4.68-12-.29.87-.73,1.7-1.26,2.45.05.02.11.06.13.13,1.38,3.29,2.49,6.79,3.46,10.23.45-.16.91-.32,1.36-.48Zm50.55,156.04s0-.07,0-.1c-3-8.12-4.81-12.82-7.46-21.05-2.65-8.23-5.31-16.45-7.96-24.68-2.71-8.4-8.73-26.95-11.44-35.35-2.7-8.38-5.74-16.72-8.03-25.23,0-.03,0-.06,0-.08-1.16.32-2.31.65-3.46.97-4.83,1.37-9.67,2.76-14.5,4.15,6.68,16.55,14.51,44.17,19.19,61.35,2.37,8.69,4.71,17.4,7.21,26.05,2.47,8.54,4.88,13.17,7.45,21.66.11-.07.26.05.23.18-.03.09,2.18-.38,2.47-.45,1.08-.26,1.22-.17,1.86-1.22.86-1.42.04-3.48-.27-5.1-.08-.41.45-.59.62-.2,1.01,2.39,1.6,5.41,4.81,4.97.61-.08,2.46-.48,2.96-.84,1.5-1.07.89-2.27.6-3.59-.08-.35.36-.59.58-.28,1.05,1.51,2.34,3.51,4.36,2.34,1.52-.88.97-1.98.76-3.5ZM77.7,8.79c-5.41,1.78-10.92,3.43-16.43,4.86-.29.52-.72,1-1.05,1.48-.23.33-.45.67-.66,1.01,5.83-1.47,11.37-3.39,17.06-5.32.01,0,.02,0,.03,0,.41-.65.75-1.34,1.05-2.04Zm-15.13,18.71c5.97-2.08,11.94-4.17,17.92-6.25-1.34-3.26-2.61-6.66-3.56-10.05,0,0-.02.02-.03.03,0,.01-.01.03-.03.04-.03.04-.06.05-.1.06-5.4,2.7-11.66,4.41-17.6,5.44-.03.04-.05.09-.08.13.03.03.06.06.08.11.72,1.89,1.35,3.82,2.01,5.73.52,1.53,1.29,3.14,1.39,4.77Zm-28.16,54.4c-.01-.07,0-.12.04-.17-5.27-1.5-10.43-2.81-15.83-3.78.71,1.51,1.47,3.11,1.88,4.72.02.1-.04.19-.11.24.02,0,.03,0,.04,0,4.77,1.21,9.7,2.54,14.23,4.5.04-1.84-.04-3.69-.25-5.52Zm-11.6-7.38c1.2-.64,2.43-1.24,3.65-1.82-2.19.44-4.34,1.02-6.44,1.79-1.66.6-3.47,1.89-5.25,2.34.57,1.85,1.42,3.5,2.18,5.26,1.07.25,2.13.5,3.19.76h0c-.8-1.48-1.34-3.2-1.84-4.81-.06-.01-.11-.03-.15-.07-.05-.04-.1-.07-.14-.11-.14-.11-.13-.32-.02-.45,1.02-1.32,3.34-2.11,4.83-2.9Zm-9.49-12.39c-1.43-.07-2.86-.06-4.33-.04-.02,0-.03,0-.04,0,.06.16.12.32.18.47.02.06.04.11.06.16,1.37-.25,2.74-.44,4.13-.58Zm3.05,19.82c-.99-1.47-1.58-3.36-1.93-5.05-.17.03-.33.05-.5.07-1.79.15-3.91-.94-5.59-1.43-2.4-.7-4.79-1.4-7.18-2.13.49.71.91,1.47,1.24,2.28.32.8.41,2.43,1.05,3.24,0-.01,0-.02,0-.03-.01-.08.11-.12.15-.05.96,1.86,7.27,1.99,9.19,2.37,1.19.24,2.38.49,3.57.75Z" style="fill: #432918;"/>
      <g>
        <path d="m44.64,60.06l2.17-1.8.69,1.15c-1.9,1.76-3.96,3.55-5.25,4.68.06.17.01.33-.12.44l-1.29-1.39c.73-.55,1.62-1.29,2.6-2.08l-2.33-7.14-2.6.85-.45-1.38,2.6-.85-1.67-5.14,1.85-.46c.03.16-.07.29-.34.42l1.54,4.73,2.43-.79.45,1.38-2.43.79,2.14,6.58Zm6.75,1.6c.39,1.18.76,1.37,2.26.88l5.48-1.79c1.29-.42,1.31-1.09.64-3.73.43.15,1.07.2,1.5.15.73,3.04.57,4.15-1.69,4.88l-5.55,1.81c-2.43.79-3.29.48-4.03-1.78l-2.36-7.25-1.87,1.63-.98-1.11,2.35-2.05-1.92-5.89,1.85-.46c.03.16-.07.31-.33.44l1.58,4.86,2.68-2.35-1.95-6,1.82-.47c.03.16-.05.3-.31.43l1.63,5.01,2.96-2.6.22-.34,1.32.05c0,.09-.05.21-.14.31,1.33,4.09,2.37,7.5,2.47,8.38.23,1.38-.43,1.83-2.71,2.57-.2-.39-.48-.89-.76-1.18.55-.13,1.3-.38,1.54-.46.34-.11.55-.3.49-.85-.05-.58-.87-3.26-2.05-6.87l-2.85,2.5,2.69,8.26-1.38.45-2.49-7.65-2.68,2.35,2.56,7.87Z" style="fill: #fff;"/>
        <path d="m58.82,41.74l18.15-5.91,6.2,19.03-1.4.46-.28-.86-15.39,5.02.28.86-1.35.44-6.2-19.03Zm6.86,16.46l15.39-5.02-5.1-15.65-15.39,5.02,5.1,15.65Zm4.96-12.8l6.08-1.98.31.95-13.24,4.32-.31-.95,5.89-1.92-.35-1.08-3.63,1.18-1.1-3.38,8.67-2.82,1.1,3.38-3.76,1.23.35,1.08Zm-2.73,10.69l-2.26-6.92,10.08-3.29,2.26,6.92-10.08,3.29Zm-2.1-13.02l.5,1.55,6.17-2.01-.5-1.55-6.17,2.01Zm1.34,6.67l1.63,4.99,7.65-2.49-1.63-4.99-7.65,2.49Zm2.81,3.51l-.98-3.01,4.67-1.52.98,3.01-4.67,1.52Zm.23-2.5l.45,1.38,2.73-.89-.45-1.38-2.73.89Z" style="fill: #fff;"/>
        <path d="m89.48,42.85l-2.25,1.64,2.11,6.47c.52,1.59-.13,2.02-2.85,2.85-.16-.33-.54-.87-.87-1.21.59-.17,1.13-.32,1.52-.45.88-.29.99-.32.85-.75l-1.97-6.04-2.01,1.42c.03.18-.06.33-.19.44l-1.06-1.49c.77-.49,1.73-1.11,2.79-1.81l-1.6-4.9-2.84.92-.44-1.35,2.84-.92-1.46-4.49,1.82-.47c.03.18-.04.3-.33.44l1.33,4.08,2.6-.85.44,1.35-2.6.85,1.48,4.54,2.13-1.43.57,1.17Zm-.97-9.27l.84,2.58-1.27.41-1.25-3.85,12.04-3.92,1.3,3.98-1.31.43-.88-2.71-9.46,3.08Zm4.08-.38c0,.16-.07.31-.32.41.69,3.13.57,5.47-2.53,7.77-.26-.27-.76-.66-1.12-.8,2.81-1.96,2.94-3.96,2.2-6.97l1.77-.41Zm10.34,7.05l-4.95,1.61c2,1.68,4.82,3.04,7.16,3.42-.26.37-.55,1.01-.65,1.45-2.34-.54-5.16-2.03-7.3-3.85l2.19,6.73-1.42.46-2.17-6.64c-.6,2.83-2.04,5.64-3.83,7.5-.33-.27-.93-.65-1.33-.8,1.86-1.72,3.35-4.47,3.92-7.15l-4.49,1.46-.43-1.33,5.48-1.79-.79-2.41,1.88-.5c.03.16-.07.31-.33.44l.65,2,5.96-1.94.43,1.33Zm-8.66-7.9l1.76-.43c.03.16-.05.28-.32.41l1.26,3.87c.15.47.28.5.86.31l1.91-.62c.47-.15.51-.4.06-1.95.35.12.93.15,1.32.12.51,2,.3,2.59-.82,2.95l-2.26.74c-1.51.49-1.95.23-2.38-1.1l-1.4-4.3Z" style="fill: #fff;"/>
        <path d="m117.81,33.28c2.32.48,5.3,1.39,6.93,2.14l-.74,1.24c-.46-.23-1.03-.47-1.69-.73-2.08.77-4.23,1.55-6.3,2.27l1.78,5.46-1.44.47-1.77-5.42c-2.98,1.07-5.74,2.04-7.76,2.74.01.19-.09.31-.23.39l-1.09-1.45c1.29-.42,2.92-.95,4.72-1.56.43-.5.9-1.03,1.36-1.59-1.38-.5-3.37-1-5-1.25l.69-1.15c.42.05.9.14,1.36.22.76-1.08,1.61-2.5,2.17-3.63l-5.85,1.91.94,2.88-1.38.45-1.35-4.15,8.47-2.76-.78-2.39-8.45,2.75-.42-1.29,8.45-2.75-.65-2,1.91-.5c.03.16-.07.31-.33.44l.52,1.59,8.51-2.77.42,1.29-8.51,2.77.78,2.39,8.67-2.82,1.35,4.15-1.42.46-.94-2.88-8.64,2.82.81.14c-.05.14-.19.23-.42.3-.61,1.13-1.58,2.66-2.49,3.88.92.2,1.84.45,2.56.69,1.41-1.81,2.79-3.76,3.67-5.31l1.83.38c-.07.16-.27.25-.47.3-1.29,1.97-3.21,4.52-5.06,6.67l7.98-2.74c-1.12-.37-2.33-.72-3.4-.94l.71-1.09Zm-4.89,7.47c-.02.15-.17.27-.42.3-.98,1.8-2.71,3.88-4.29,5.37-.32-.18-.97-.49-1.36-.6,1.59-1.4,3.33-3.44,4.22-5.23l1.86.16Zm6.69-2.89c2.21.28,5.08.99,6.66,1.68-.48.7-.7.99-.92,1.27-1.47-.71-4.34-1.49-6.6-1.85l.85-1.11Z" style="fill: #fff;"/>
      </g>
      <path d="m80.48,21.24c-5.97,2.08-11.94,4.17-17.92,6.25-.1-1.63-.87-3.23-1.39-4.77-.66-1.92-1.28-3.85-2.01-5.73-.02-.05-.05-.08-.08-.11.03-.04.05-.09.08-.13,5.95-1.03,12.2-2.75,17.6-5.44.04,0,.07-.02.1-.06.01-.01.02-.02.03-.04,0,0,.02-.02.03-.03.95,3.39,2.21,6.79,3.56,10.05Z" style="fill: #7d4e24;"/>
      <path d="m132.74,176.59s-.01.06,0,.1c.22,1.52.76,2.62-.76,3.5-2.02,1.17-3.31-.82-4.36-2.34-.22-.31-.66-.07-.58.28.29,1.32.9,2.52-.6,3.59-.5.36-2.35.76-2.96.84-3.21.44-3.81-2.58-4.81-4.97-.17-.39-.7-.21-.62.2.31,1.62,1.13,3.68.27,5.1-.64,1.05-.78.96-1.86,1.22-.29.07-2.5.55-2.47.45.03-.12-.12-.25-.23-.18-2.57-8.49-4.98-13.13-7.45-21.66-2.5-8.65-4.84-17.35-7.21-26.05-4.68-17.19-12.51-44.81-19.19-61.35,4.83-1.39,9.66-2.78,14.5-4.15,1.15-.33,2.3-.65,3.46-.97,0,.02,0,.05,0,.08,2.28,8.5,5.33,16.85,8.03,25.23,2.71,8.4,8.73,26.95,11.44,35.35,2.65,8.23,5.31,16.45,7.96,24.68,2.65,8.24,4.46,12.93,7.46,21.05Z" style="fill: #7d4e24;"/>
      <path d="m61.27,13.65c5.51-1.43,11.02-3.08,16.43-4.86-.3.7-.64,1.39-1.05,2.04-.01,0-.02,0-.03,0-5.7,1.92-11.23,3.85-17.06,5.32.21-.34.43-.68.66-1.01.33-.48.76-.96,1.05-1.48Z" style="fill: #683c11;"/>
      <path d="m83.17,20.3c-.33.12-.65.23-.98.34-.45.16-.91.32-1.36.48-.98-3.44-2.09-6.93-3.46-10.23-.03-.07-.08-.11-.13-.13.53-.76.97-1.58,1.26-2.45,1.67,3.97,3.18,7.96,4.68,12Z" style="fill: #683c11;"/>
      <path d="m136.18,174.87s.01.02.02.03c-.5.57-.84,1.39-1.2,2.03-.42.75-.84,1.5-1.25,2.25-.08-.53-.16-1.06-.24-1.59.07-.06.11-.15.08-.27-2.29-8.49-4.83-13.1-7.53-21.47-1.38-4.27-2.76-8.54-4.13-12.81l1.07-.34c.03.11.14.2.27.2.7,0,1.39,0,2.08-.02,3.78,11.92,6.91,20.13,10.83,32Z" style="fill: #683c11;"/>
      <path d="m110.52,95.79c1.36,3.88,5.97,17.94,7.21,21.86,2.42,7.67,4.44,15.45,6.62,23.2.01.06.06.1.1.13-.52.39-.95.99-1.38,1.47-.07.07-.08.17-.05.26l-1.07.34c-1.33-4.12-2.67-8.25-4-12.39-2.66-8.22-8.62-26.61-11.27-34.83-1.44-4.45-2.79-8.96-4.21-13.44.77.06,1.62-.12,2.3,0,.86.17,1.11.65,1.47,1.4.7,1.45.49,1.97-1.12,2.5-.31.1-.21.54.1.55,1.09.03,1.67-.17,2.4.89.49.72.82,2.2,1.12,3.02.61,1.68,1.21,3.36,1.81,5.05Z" style="fill: #683c11;"/>
      <path d="m156.13,48.4c-.16.74-.26,1.48-.63,2.21-.42.84-1.18,1.48-1.59,2.29-.01-.18-.16-.35-.39-.28-38.81,13.69-79.1,22.82-118.44,34.78.14-1.76.12-3.49-.09-5.24.04.01.09.02.15,0,10.16-2.43,20.2-5.65,30.26-8.49,10.08-2.84,20.17-5.67,30.25-8.5,20.15-5.64,40.31-11.23,60.48-16.79Z" style="fill: #936037;"/>
      <path d="m98.24,70.09c.85-.24,1.71-.48,2.56-.72-.05.07-.07.15-.04.25.59,2.03,1.23,4.03,1.98,6,.88,2.31,2.96,5.05-.51,6.11-1.24-3.9-2.53-7.77-3.97-11.58,0-.02-.02-.04-.03-.05Z" style="fill: #683c11;"/>
      <path d="m34.45,81.73s-.05.1-.04.17c.21,1.83.29,3.68.25,5.52-4.53-1.97-9.46-3.3-14.23-4.5-.01,0-.03,0-.04,0,.08-.05.13-.13.11-.24-.41-1.61-1.17-3.2-1.88-4.72,5.4.96,10.57,2.28,15.83,3.78Z" style="fill: #936037;"/>
      <path d="m26.46,72.69c-1.23.58-2.45,1.19-3.65,1.82-1.49.79-3.81,1.58-4.83,2.9-.1.13-.12.34.02.45.05.04.09.07.14.11.05.04.1.05.15.07.51,1.61,1.04,3.32,1.84,4.8h0c-1.06-.26-2.12-.51-3.19-.76-.76-1.76-1.61-3.41-2.18-5.26,1.78-.45,3.59-1.74,5.25-2.34,2.1-.77,4.25-1.36,6.44-1.79Z" style="fill: #936037;"/>
      <path d="m14.44,76.9c.34,1.69.94,3.58,1.93,5.05-1.19-.27-2.38-.51-3.57-.75-1.92-.38-8.23-.5-9.19-2.37-.04-.07-.17-.03-.15.05,0,.01,0,.02,0,.03-.64-.8-.73-2.44-1.05-3.24-.33-.81-.75-1.56-1.24-2.28,2.39.73,4.79,1.43,7.18,2.13,1.68.49,3.8,1.58,5.59,1.43.17-.01.33-.04.5-.07Z" style="fill: #936037;"/>
    </g>
  </g>
</svg>