<svg xmlns="http://www.w3.org/2000/svg" width="25.411" height="23.01" viewBox="0 0 25.411 23.01">
  <path id="menu4_img" d="M334.32,24.87a1.428,1.428,0,0,1,.14-.2,3.623,3.623,0,0,1,5.13.17h2.78a.9.9,0,0,1,.14-.2,3.635,3.635,0,0,1,5.14.17h.96a3.276,3.276,0,0,0-1.11-1.14c-.31-.21-.65-.38-.98-.56h0l.14-.14a1.949,1.949,0,0,0,.64-1.23,7.4,7.4,0,0,0,0-1.63,2.383,2.383,0,0,0-4.72-.02,7.382,7.382,0,0,0-.05,1.05,2.377,2.377,0,0,0,.82,1.93.879.879,0,0,1,.06.1,4.617,4.617,0,0,0-2.1,1.6V16.42h16.36c.45,0,.57-.12.57-.56V2.44c0-.43-.12-.56-.55-.56H337.84c-.44,0-.56.13-.56.56V6.5a.33.33,0,0,1-.26.39h0a2.315,2.315,0,0,0-1.63,1.72,3.584,3.584,0,0,0,.55,3.3v.05h-.2a2.826,2.826,0,0,0-2.91,2.74h0v4.87a2.037,2.037,0,0,0,1.51,2.03.353.353,0,0,1,.2.23,2.517,2.517,0,0,0,.7,1.2,1.741,1.741,0,0,1,.12.14l-.53.26a3.85,3.85,0,0,0-1.58,1.44l1.07.02Zm7.08-9.23v-.89h3.65a.866.866,0,0,0,.79-.38c.75-1.02,1.6-2.01,2.4-3.01a1.328,1.328,0,0,0,.36-1.23,1.244,1.244,0,0,0-.56-.8.382.382,0,0,1-.21-.41V3.96c0-.3-.17-.48-.4-.48s-.38.19-.39.5V9.16a2.511,2.511,0,0,0-1.51,1.08c-.43.52-.85,1.05-1.28,1.56a.456.456,0,0,1-.29.15h-4.05v-.06a3.5,3.5,0,0,0,.56-3.2,2.423,2.423,0,0,0-2.06-1.93l-.24-.05v-4h19.37V15.65H341.39Zm-2.91,7.53V23.1a3.074,3.074,0,0,0,.75-3.22,2.37,2.37,0,0,0-3.71-1.38l-.23.16V14.79a.39.39,0,0,0-.48-.27.406.406,0,0,0-.27.27h0v5.98a1.09,1.09,0,0,1-.82-1.04V14.61a1.978,1.978,0,0,1,1.95-1.87h8.28a.926.926,0,0,0,.84-.39c.51-.67,1.06-1.3,1.61-1.94a1.136,1.136,0,0,1,.84-.49.546.546,0,0,1,.55.28.518.518,0,0,1-.1.6l-1.8,2.26a9.2,9.2,0,0,0-.57.75.437.437,0,0,1-.42.2h-3.76c-.46,0-.58.11-.58.57V24.73a5.3,5.3,0,0,0-2.11-1.54l.03-.02Zm-2.3-14.31a1.821,1.821,0,0,1,3.59.4,6.264,6.264,0,0,1-.06,1.3,1.8,1.8,0,0,1-1.98,1.38,1.845,1.845,0,0,1-1.61-1.78V9.71h0a5.971,5.971,0,0,1,.08-.84h-.02Zm2.33,12.8a1.621,1.621,0,0,1-3.19-.38,6.335,6.335,0,0,1,.05-1.23,1.583,1.583,0,0,1,1.76-1.24,1.636,1.636,0,0,1,1.43,1.6v.43h0a5.559,5.559,0,0,1-.08.82h.02Zm8.11-.13a1.625,1.625,0,0,1-3.22-.32,6.664,6.664,0,0,1,.05-1.18,1.6,1.6,0,0,1,1.78-1.23,1.642,1.642,0,0,1,1.42,1.59v.45h0a3.977,3.977,0,0,1,0,.69h-.02Zm3.85,3.28a.9.9,0,0,1,.14-.2,3.635,3.635,0,0,1,5.14.17h.96a6,6,0,0,0-.75-.84,14.926,14.926,0,0,0-1.34-.9h0l.14-.14a1.961,1.961,0,0,0,.65-1.23,7.677,7.677,0,0,0,0-1.66,2.363,2.363,0,0,0-2.36-2.03,2.4,2.4,0,0,0-2.37,2.03,8.37,8.37,0,0,0-.05,1,2.446,2.446,0,0,0,.82,1.98l.07.09-.48.23a3.96,3.96,0,0,0-1.63,1.46l1.06.03Zm4.19-3.15a1.616,1.616,0,0,1-3.18-.37,5.917,5.917,0,0,1,.06-1.26,1.587,1.587,0,0,1,1.78-1.22,1.624,1.624,0,0,1,1.41,1.59v.43h0a4.779,4.779,0,0,1-.08.84h.02Z" transform="translate(-332.829 -1.88)" fill="#fff"/>
</svg>
