<svg xmlns="http://www.w3.org/2000/svg" width="26.84" height="19" viewBox="0 0 26.84 19">
  <g id="menu5_img" transform="translate(-987.46 693.117)">
    <path id="路径_7" data-name="路径 7" d="M464.14,10.28h-.22a7.105,7.105,0,0,0-14.14,0h-.22a6.12,6.12,0,0,0,0,12.24.71.71,0,0,0,0-1.42,4.7,4.7,0,1,1,0-9.4,5.122,5.122,0,0,1,.78.06.714.714,0,0,0,.58-.16.729.729,0,0,0,.25-.55v-.07a5.69,5.69,0,0,1,11.38,0v.07a.729.729,0,0,0,.25.55.681.681,0,0,0,.58.16,5.122,5.122,0,0,1,.78-.06,4.7,4.7,0,1,1,0,9.4.71.71,0,0,0,0,1.42,6.12,6.12,0,0,0,0-12.24Z" transform="translate(544.02 -696.997)" fill="#fff"/>
    <path id="路径_8" data-name="路径 8" d="M453.44,10.74a3.06,3.06,0,0,1,3.06-3.06.71.71,0,0,0,0-1.42,4.485,4.485,0,0,0-4.48,4.48.71.71,0,1,0,1.42,0Z" transform="translate(544.02 -696.997)" fill="#fff"/>
    <path id="路径_9" data-name="路径 9" d="M462.57,17.26h-2.06v-2.2a.713.713,0,0,0-.71-.71h-5.9a.713.713,0,0,0-.71.71v2.2h-2.06a.721.721,0,0,0-.68.49.7.7,0,0,0,.26.8l5.72,4.19a.729.729,0,0,0,.42.14.707.707,0,0,0,.42-.14l5.72-4.19a.712.712,0,0,0-.42-1.29Zm-5.72,4.02-3.55-2.6h.6a.713.713,0,0,0,.71-.71v-2.2h4.48v2.2a.713.713,0,0,0,.71.71h.6l-3.55,2.6Z" transform="translate(544.02 -696.997)" fill="#fff"/>
  </g>
</svg>
