<svg xmlns="http://www.w3.org/2000/svg" width="27.27" height="23.467" viewBox="0 0 27.27 23.467">
  <path id="menu7_img" d="M667.48,21.51V5.16a.868.868,0,0,0,.05-.12,1.854,1.854,0,0,1,1.92-1.51h23.34a1.859,1.859,0,0,1,1.95,1.77V21.16a2.571,2.571,0,0,1-.08.62,1.9,1.9,0,0,1-1.94,1.36h-.9c.14.84.26,1.65.4,2.45a1.1,1.1,0,0,1-.75,1.36h0a1.27,1.27,0,0,1-.97-.15l-2.73-1.44a.677.677,0,0,0-.7,0l-2.58,1.36a3.535,3.535,0,0,1-.53.23,1.012,1.012,0,0,1-1.26-.66V26.2a1.831,1.831,0,0,1,0-.66c.12-.75.26-1.57.39-2.39H669.58a1.9,1.9,0,0,1-2.04-1.57.234.234,0,0,0-.07-.07Zm24.04,0h1.03c.51,0,.57-.05.57-.56V5.6c0-.49-.05-.54-.53-.54H669.61c-.5,0-.54.05-.54.55V21.22a.319.319,0,0,0,.29.33h13.76c.14,0,.2-.05.23-.2.08-.5.17-.99.24-1.51a.578.578,0,0,0-.12-.36,4.816,4.816,0,0,1-.89-3.54,4.888,4.888,0,0,1,9.69,1.29,4.787,4.787,0,0,1-.92,2.26.43.43,0,0,0-.11.28c.08.57.18,1.15.27,1.72v.02Zm-4.11-1.59a3.305,3.305,0,1,0-3.29-3.32h0a3.31,3.31,0,0,0,3.29,3.31v.02Zm3.07,5.07-.67-4.09a4.985,4.985,0,0,1-4.77,0l-.66,4.07c.09-.03.17-.07.26-.11.5-.26,1.02-.51,1.51-.81a2.338,2.338,0,0,1,2.54,0c.56.33,1.15.61,1.79.95h.02ZM689.73,9.7h.35a.76.76,0,0,0,.67-.83V8.72c-.12-.41-.41-.6-.95-.6H671.59a.815.815,0,0,0-.75.75.746.746,0,0,0,.54.75,2.008,2.008,0,0,0,.42.05h17.93V9.7Zm-18.07,2.82a.737.737,0,0,0-.75.51.794.794,0,0,0,.48,1.02h0a.967.967,0,0,0,.34.05h7.55a.848.848,0,0,0,.75-.36.75.75,0,0,0-.15-1.05.218.218,0,0,1-.05-.04.856.856,0,0,0-.46-.14h-7.71Z" transform="translate(-667.47 -3.527)" fill="#fff"/>
</svg>
