<?xml version="1.0" encoding="UTF-8"?>
<svg xmlns="http://www.w3.org/2000/svg" width="263.6" height="263.6" xmlns:xlink="http://www.w3.org/1999/xlink" viewBox="0 0 263.6 263.6">
  <defs>
    <clipPath id="clippath">
      <circle cx="131.95" cy="132" r="122.96" style="fill: none;"/>
    </clipPath>
  </defs>
  <g style="isolation: isolate;">
    <g id="_圖層_2" data-name="圖層 2">
      <g id="_第一cut" data-name="第一cut">
        <g id="parent-child">
          <g style="clip-path: url(#clippath);">
            <circle cx="131.95" cy="132" r="122.96" style="fill: #aff0da;"/>
            <g>
              <path d="m171.82,48.84c10.6-4.68,35.43,5.2,38.13,46.29,2.29,34.75,23.75,44.05,21.61,68.56-1.01,11.52-6.06,23.27-13.72,30.71-14.38,13.98-39.88,29.02-48.53,5.06-6.75-18.69-19.26-141.01,2.51-150.62Z" style="fill: #3f2716; fill-rule: evenodd;"/>
              <path d="m140.97,48.84c-10.6-4.68-35.43,5.2-38.13,46.29-1.78,26.95-15.08,39.85-19.97,56.02-5.2,17.23,3.27,48.61,29.48,54.52,12.75,2.87,26.71,6.03,31.13-6.21,6.75-18.69,19.26-141.01-2.51-150.62Z" style="fill: #3f2716; fill-rule: evenodd;"/>
              <path d="m173.99,173.61l-.57-19.8h-34.14l-1.26,19.78c-.55,8.74-18.44,11.71-25.43,16.17-20.78,13.26-38.84,35.92-38.13,69.03h163.89c.68-31.35-15.49-53.34-34.84-66.84-9.41-6.57-29.31-11.32-29.52-18.34Z" style="fill: #e4ae7c; fill-rule: evenodd;"/>
              <path d="m138.24,170.15c10.53,10.15,24.99,10.44,35.66.63l-.49-16.96h-34.14l-1.04,16.33Z" style="fill: #d67f54; fill-rule: evenodd;"/>
              <path d="m155.54,169.12c-38.31,1.3-62-80.26-36.67-116.14,7.56-10.7,16.38-3.36,33.57-2.52.29-.01.57,0,.86-.02.29,0,.57,0,.86.02,45.42-2.21,57.12,33.76,45.75,72.99-7.36,25.42-23.11,46.34-42.66,45.67-.29,0-.57,0-.86,0s-.57.02-.86,0Z" style="fill: #e4ae7c; fill-rule: evenodd;"/>
              <path d="m111.19,111.39c-.2-2.3-9.16-5.02-12.15,2.51-2.99,7.53,2.39,18.2,12.55,19.04,10.15.84,7.17-1.05,7.17-1.05l-7.57-20.5Z" style="fill: #e4ae7c; fill-rule: evenodd;"/>
              <path d="m201.62,111.39c.2-2.3,9.16-5.02,12.15,2.51,2.99,7.53-2.39,18.2-12.55,19.04-10.16.84-7.17-1.05-7.17-1.05l7.57-20.5Z" style="fill: #e4ae7c; fill-rule: evenodd;"/>
              <path d="m142.78,140.86c9.11-.12,18.15-.12,27.25,0-6.75,13.75-20.5,13.75-27.25,0Z" style="fill: #88342a; fill-rule: evenodd;"/>
              <path d="m163.45,148.9c-4.45,3.03-9.63,3.03-14.08,0,4.45-3.03,9.63-3.03,14.08,0Z" style="fill: #d17b65; fill-rule: evenodd;"/>
              <path d="m135.58,126.4c2.75,2.22,2.87,5.47.27,7.26-2.6,1.79-6.95,1.44-9.7-.78-2.75-2.22-2.87-5.47-.27-7.26,2.6-1.79,6.95-1.44,9.7.78Z" style="fill: #cf806b; fill-rule: evenodd;"/>
              <path d="m177.23,126.4c-2.75,2.22-2.87,5.47-.27,7.26,2.6,1.79,6.95,1.44,9.7-.78,2.75-2.22,2.87-5.47.27-7.26-2.6-1.79-6.95-1.44-9.7.78Z" style="fill: #cf806b; fill-rule: evenodd;"/>
              <path d="m103.23,119.38c0,.34-.26.61-.58.61s-.59-.28-.59-.61c0-2.17.41-3.6,1.07-4.45.53-.69,1.21-1,1.97-1.02.7-.02,1.45.23,2.19.67,1.74,1.03,3.52,3.19,4.49,5.53.61,1.46,1.11,3.01,1.24,3.88.04.29.05.53.02.72v.03c-.11.48-.38.7-.85.59-.18-.04-.38-.17-.59-.39-.79-.84-1.74-1.18-2.49-1.1-.27.03-.51.12-.69.25-.16.12-.29.3-.35.51-.15.52.01,1.28.66,2.29.18.28.11.66-.16.85-.27.19-.63.11-.81-.17-.86-1.35-1.05-2.48-.81-3.33.14-.49.41-.88.78-1.16.35-.27.78-.43,1.26-.48.84-.09,1.83.17,2.72.83-.21-.79-.57-1.83-1-2.85-.88-2.11-2.47-4.05-4-4.96-.57-.34-1.11-.53-1.59-.51-.42,0-.79.19-1.09.57-.49.64-.8,1.81-.8,3.68Z" style="fill: #d67f54; fill-rule: evenodd;"/>
              <path d="m155.62,134.62c-.32,0-.58-.28-.58-.62s.26-.61.58-.61c1.4,0,3.07-.02,4.36-.28,1.07-.22,1.86-.59,1.86-1.25,0-2.05-1.71-14.73-1.71-14.76-.04-.33.18-.65.5-.69.32-.05.61.19.66.52,0,.04,1.73,12.82,1.73,14.93,0,1.42-1.19,2.12-2.81,2.45-1.4.29-3.14.31-4.58.31Z" style="fill: #d67f54; fill-rule: evenodd;"/>
              <path d="m210.5,119.38c0,.34-.26.61-.58.61s-.58-.28-.58-.61c0-1.87-.31-3.04-.8-3.68-.3-.38-.67-.56-1.09-.57-.48-.01-1.02.18-1.59.51-1.53.91-3.12,2.85-4,4.96-.42,1.02-.79,2.06-1,2.85.9-.66,1.89-.92,2.72-.83.48.05.91.21,1.26.48.37.28.65.67.78,1.16.24.84.06,1.97-.81,3.33-.18.28-.54.36-.81.17-.27-.19-.34-.57-.16-.85.64-1.01.8-1.78.66-2.29-.06-.22-.18-.39-.35-.51-.18-.14-.42-.22-.69-.25-.75-.08-1.7.27-2.49,1.1-.21.22-.41.35-.59.39-.47.11-.74-.11-.84-.59v-.03c-.04-.18-.03-.43.01-.72.13-.87.63-2.42,1.24-3.88.98-2.34,2.76-4.5,4.49-5.53.75-.44,1.49-.69,2.19-.67.76.02,1.44.33,1.97,1.02.66.85,1.07,2.28,1.07,4.45Z" style="fill: #d67f54; fill-rule: evenodd;"/>
              <path d="m152.99,156.64c-.28-.17-.37-.55-.21-.84.16-.29.52-.39.8-.22.8.49,1.83.74,2.85.74s2.03-.25,2.8-.74c.27-.18.63-.08.8.21.17.29.08.66-.2.84-.96.61-2.18.92-3.4.92s-2.45-.3-3.44-.92Z" style="fill: #d67f54; fill-rule: evenodd;"/>
              <path d="m152.25,144.94c5.08-.02,10.16,0,15.25.05.92-1.2,1.77-2.58,2.53-4.13-4.76-.06-9.5-.09-14.24-.09-4.33,0-8.66.03-13.01.09.76,1.55,1.61,2.93,2.53,4.13,2.31-.03,4.62-.04,6.93-.05Z" style="fill: #ebebeb; fill-rule: evenodd;"/>
              <path d="m111.05,151.65c1.63,0,2.97-4.03,2.97-8.97s-1.33-8.97-2.97-8.97-2.97,4.03-2.97,8.97,1.33,8.97,2.97,8.97Z" style="fill: #d17b65; fill-rule: evenodd;"/>
              <ellipse cx="201.76" cy="142.68" rx="2.97" ry="8.97" style="fill: #d17b65;"/>
              <path d="m111.05,134.3c1.14,0,2.08-1.02,2.08-2.28s-.94-2.28-2.08-2.28-2.08,1.02-2.08,2.28.94,2.28,2.08,2.28Z" style="fill: #d17b65; fill-rule: evenodd;"/>
              <path d="m201.76,134.3c1.15,0,2.08-1.02,2.08-2.28s-.94-2.28-2.08-2.28-2.08,1.02-2.08,2.28.94,2.28,2.08,2.28Z" style="fill: #d17b65; fill-rule: evenodd;"/>
              <path d="m152.99,156.64c-.28-.17-.37-.55-.21-.84.16-.29.52-.39.8-.22.8.49,1.83.74,2.85.74s2.03-.25,2.8-.74c.27-.18.63-.08.8.21.17.29.08.66-.2.84-.96.61-2.18.92-3.4.92s-2.45-.3-3.44-.92Z" style="fill: #d67f54; fill-rule: evenodd;"/>
              <path d="m140.16,111.3c2.02,1.53,2.47,4.48,1.01,6.6-1.46,2.11-4.27,2.59-6.29,1.06-2.02-1.53-2.47-4.48-1.01-6.59,1.46-2.11,4.28-2.59,6.29-1.06Z" style="fill: #3f2716; fill-rule: evenodd;"/>
              <path d="m172.18,111.3c-2.02,1.53-2.47,4.48-1.01,6.6,1.46,2.11,4.27,2.59,6.29,1.06,2.02-1.53,2.47-4.48,1.01-6.59-1.46-2.11-4.28-2.59-6.29-1.06Z" style="fill: #3f2716; fill-rule: evenodd;"/>
              <path d="m142.29,97.87c-.16-.08-.32-.16-.48-.23-1.86-.8-3.43-1.02-5.44-.84-1.97.25-3.43.78-5.08,1.9-.77.59-3.77,3.49-2.92,4.56.35.11,3.34-1.71,4.22-2.05,1.37-.48,2.47-.66,3.92-.63,1.35.07,2.37.31,3.6.87.03,0,.26.13.3.15,2.51,1.45,2.28,2.39,3.99.99,2.63-1.67-.08-3.46-2.11-4.71Z" style="fill: #3f2716; fill-rule: evenodd;"/>
              <path d="m170.52,97.87c.16-.08.32-.16.48-.23,1.86-.8,3.43-1.02,5.44-.84,1.97.25,3.43.78,5.08,1.9.77.59,3.77,3.49,2.92,4.56-.35.11-3.34-1.71-4.22-2.05-1.37-.48-2.47-.66-3.92-.63-1.35.07-2.37.31-3.6.87-.03,0-.26.13-.3.15-2.51,1.45-2.28,2.39-3.99.99-2.63-1.67.08-3.46,2.11-4.71Z" style="fill: #3f2716; fill-rule: evenodd;"/>
              <path d="m224.56,130.7c5.34,9.74,9.6,18.63,7.08,32.08-2.28-4.3-6.47-12.59-17.48-14.54-66.11-11.71,1.96-96.78-78.3-79.57,0,0-1.25-12.03,1.99-21.48,6.31-18.43,26.25-18.38,40.17-13.24,22.11,8.16,28.92,36.39,33.52,59.54,3.56,17.91,4.32,21.36,13.01,37.2Z" style="fill: #52311d; fill-rule: evenodd;"/>
              <path d="m140.31,43.64c-7.52-9.81-37.9,3.58-40.61,44.66-2.44,36.99-27.82,47.09-17.79,81.3,4.54-30.28,24.05-24.71,39.75-49.05,14-21.7,28.37-64.22,18.65-76.91Z" style="fill: #52311d; fill-rule: evenodd;"/>
              <path d="m116.1,187.95c15.9,34.48,64.54,34.53,80.54.15,2.56,1.23,4.93,2.5,6.87,3.85,19.36,13.5,35.52,35.49,34.84,66.84H74.46c-.71-33.11,17.35-55.78,38.13-69.03.98-.63,2.18-1.22,3.51-1.81Z" style="fill: #5c67a8; fill-rule: evenodd;"/>
              <path d="m77.69,234.21h157.44c1.17,3.9,2.05,8.01,2.6,12.32H75.09c.55-4.31,1.43-8.42,2.6-12.32Z" style="fill: #cb516b; fill-rule: evenodd;"/>
              <path d="m90.52,209.57h46.7c12.05,5.72,26.31,5.71,38.36,0h46.7c2.96,3.78,5.62,7.89,7.89,12.32H82.64c2.27-4.44,4.93-8.54,7.89-12.32Z" style="fill: #cb516b; fill-rule: evenodd;"/>
              <path d="m116.1,187.96c1.59,3.44,3.5,6.53,5.67,9.29h-19.33c3.26-2.76,6.67-5.25,10.16-7.48.98-.63,2.18-1.22,3.51-1.81h0Zm94.28,9.29c-2.23-1.89-4.53-3.65-6.87-5.29-1.93-1.35-4.31-2.62-6.86-3.85-1.57,3.38-3.46,6.42-5.6,9.14h19.33Z" style="fill: #cb516b; fill-rule: evenodd;"/>
              <path d="m100.17,233.37c0-.51.4-.91.88-.91.48,0,.87.42.87.92l-.2,25.42c0,.51-.4.91-.88.91-.48,0-.87-.42-.87-.93l.2-25.42Z" style="fill: #48589b; fill-rule: evenodd;"/>
              <path d="m211.09,233.37c0-.51.4-.91.88-.91.48,0,.87.42.87.92l-.2,25.42c0,.51-.4.91-.88.91-.48,0-.87-.42-.87-.93l.2-25.42Z" style="fill: #48589b; fill-rule: evenodd;"/>
              <path d="m197.71,188.63l-.06.23-6.92,29.48c-.86,3.68.89,7.51,3.92,8.55,3.03,1.05,6.18-1.09,7.04-4.76l6.3-26.84c-1.47-1.17-2.97-2.28-4.49-3.34-1.66-1.16-3.65-2.26-5.79-3.33Z" style="fill: #ebebeb; fill-rule: evenodd;"/>
              <path d="m156.07,219.64h44.09l9.89,15.51c1.5,2.35.05,18.77.59,23.66h-54.57v-39.16Z" style="fill: #ebebeb; fill-rule: evenodd;"/>
              <path d="m114.46,188.72l.03.14,6.92,29.48c.86,3.68-.89,7.51-3.92,8.55-3.03,1.05-6.18-1.09-7.04-4.76l-6.2-26.39c2.7-2.17,5.49-4.16,8.33-5.97.56-.36,1.19-.7,1.87-1.04Z" style="fill: #ebebeb; fill-rule: evenodd;"/>
              <path d="m156.07,219.64h-44.09l-9.89,15.51c-1.5,2.35-.05,18.77-.59,23.66h54.57v-39.16Z" style="fill: #ebebeb; fill-rule: evenodd;"/>
              <path d="m120.92,219.43c-.08-.33.11-.66.42-.75.31-.08.63.11.71.44.68,2.76-.45,5.03-2.28,6.4-.69.52-1.49.91-2.33,1.13-.84.23-1.72.3-2.57.19-2.22-.29-4.27-1.79-5.04-4.92-.08-.33.11-.66.42-.75.31-.08.63.11.71.44.63,2.55,2.27,3.77,4.05,4,.71.09,1.44.03,2.13-.15.7-.19,1.36-.51,1.95-.95,1.46-1.09,2.37-2.9,1.82-5.09Z" style="fill: #58556c; fill-rule: evenodd;"/>
              <path d="m189.62,219.13c.08-.33.4-.52.71-.44.31.08.5.42.42.75-.54,2.19.37,4,1.83,5.09.58.43,1.25.76,1.95.95.69.19,1.42.25,2.13.15,1.78-.23,3.43-1.45,4.05-4,.08-.33.4-.52.71-.44.31.08.5.42.42.75-.77,3.12-2.82,4.62-5.04,4.92-.85.11-1.73.04-2.57-.19-.84-.23-1.63-.61-2.33-1.13-1.83-1.37-2.96-3.64-2.28-6.4Z" style="fill: #58556c; fill-rule: evenodd;"/>
              <path d="m127.28,258.39c0,.34-.26.61-.58.61s-.58-.27-.58-.61v-17.39c0-.34.26-.62.58-.62h59.42c.32,0,.58.28.58.62v17.39c0,.34-.26.61-.58.61s-.58-.27-.58-.61v-16.78h-58.25v16.78Z" style="fill: #58556c; fill-rule: evenodd;"/>
              <path d="m143.37,49.42c-.24.22-.61.19-.82-.06-.21-.26-.18-.64.06-.86,2.1-1.92,6.2-4.88,11.35-7.13,4.95-2.16,10.87-3.67,16.95-2.97,6.1.7,12.35,3.62,17.89,10.32,3.07,3.71,5.92,8.57,8.41,14.86,6.3,15.92,7.04,27.48,7.61,36.48.72,11.39,1.18,18.58,12.76,25.32.28.16.38.54.23.83-.16.29-.51.4-.79.24-12.13-7.07-12.61-14.51-13.36-26.31-.57-8.91-1.29-20.35-7.52-36.09-2.44-6.16-5.22-10.92-8.21-14.53-5.32-6.43-11.29-9.23-17.13-9.9-5.86-.67-11.59.79-16.38,2.88-5.02,2.19-9.01,5.07-11.04,6.93Z" style="fill: #68422d; fill-rule: evenodd;"/>
              <path d="m142.85,56.98c-.29.15-.64.03-.78-.27-.14-.3-.03-.67.26-.82,24.14-12.75,36.44-5.4,43.25,8.82,5.33,11.14,7.21,26.48,8.81,39.56,1.32,10.8,2.46,20.04,5.14,23.86,3.82,5.44,9.22,7.29,14.72,9.17,4.34,1.49,8.74,3,12.56,6.28.25.21.29.6.08.86-.2.26-.57.3-.82.09-3.65-3.14-7.95-4.61-12.19-6.06-5.67-1.94-11.25-3.85-15.29-9.61-2.87-4.08-4.02-13.46-5.36-24.43-1.59-12.99-3.46-28.22-8.7-39.17-6.51-13.6-18.35-20.6-41.69-8.27Z" style="fill: #68422d; fill-rule: evenodd;"/>
              <path d="m142.58,55.82c.32,0,.59.27.59.6,0,.34-.25.62-.58.62-11.49.18-15.15,11.8-19.29,24.99-1.26,3.99-2.56,8.13-4.15,12.19-2.42,6.18-5.64,11.74-9.97,16.87-4.32,5.12-9.76,9.81-16.62,14.24-.27.18-.63.08-.8-.21-.17-.29-.08-.66.19-.84,6.77-4.37,12.11-8.98,16.35-14,4.24-5.02,7.39-10.47,9.76-16.52,1.56-3.98,2.86-8.11,4.12-12.11,4.29-13.63,8.06-25.63,20.39-25.83Z" style="fill: #68422d; fill-rule: evenodd;"/>
              <path d="m142.59,48.02c.32.06.53.37.48.71-.05.33-.36.56-.67.5-.86-.15-1.69-.27-2.5-.34-.82-.08-1.6-.11-2.35-.1-.32,0-.58-.27-.58-.61,0-.34.26-.61.58-.62.81,0,1.62.03,2.45.1.84.08,1.71.19,2.6.36Z" style="fill: #68422d; fill-rule: evenodd;"/>
              <path d="m142.59,48.02c.32.06.53.37.48.71-.05.33-.36.56-.67.5-.86-.15-1.69-.27-2.5-.34-.82-.07-1.6-.11-2.35-.1-.32,0-.58-.27-.58-.61,0-.34.26-.61.58-.61.81,0,1.63.03,2.45.1.84.07,1.71.19,2.6.35Z" style="fill: #68422d; fill-rule: evenodd;"/>
              <path d="m142.59,48.02c.32.06.53.37.48.71-.05.33-.36.56-.67.5-1.16-.21-2.26-.34-3.32-.4-1.06-.06-2.07-.05-3.05.02-.32.02-.6-.23-.62-.57-.02-.34.22-.63.54-.66,1.02-.08,2.08-.09,3.19-.02,1.11.06,2.26.2,3.46.42Z" style="fill: #68422d; fill-rule: evenodd;"/>
              <path d="m142.59,48.02c.32.06.53.37.48.71-.05.33-.36.56-.67.5-17.03-3.08-21.76,7.84-30.76,28.69h0c-.97,2.26-2.13,4.31-3.5,6.3-1.36,1.98-2.91,3.89-4.66,5.86-.22.25-.59.26-.82.03-.24-.23-.25-.62-.03-.87,1.73-1.93,3.25-3.8,4.57-5.73,1.32-1.92,2.44-3.91,3.38-6.08h0c9.25-21.42,14.1-32.65,32.02-29.4Z" style="fill: #68422d; fill-rule: evenodd;"/>
            </g>
            <g>
              <path d="m71.75,214.51c-3.16-.67-9.31.44-13.72,4.38-3.72,3.32-10.69,31.83-13.54,37.8-2.71,5.66,5.66,14.6,9.9,11.85,4.06-2.64,14.25-33.89,14.25-33.89,0,0,6.28-19.48,3.12-20.14Z" style="fill: #f1f1f1;"/>
              <path d="m106.41,213.46c3.16-.67,10.27.76,13.72,4.38s13.18,29.21,16.04,35.17c2.71,5.66-5.66,14.6-9.9,11.85-4.06-2.64-16.75-31.27-16.75-31.27,0,0-6.28-19.48-3.12-20.14Z" style="fill: #f1f1f1;"/>
              <g>
                <rect x="80.83" y="194.05" width="18" height="33.2" transform="translate(179.66 421.29) rotate(180)" style="fill: #ffd3c2;"/>
                <path d="m80.83,194.05v19.71c4.88,4.19,12.92,4.44,17.37-.68.22-.3.42-.61.63-.93v-18.1h-18Z" style="fill: #eba992;"/>
              </g>
              <g>
                <g>
                  <path d="m65.39,236.49c0-6.08,1.87-20.11,1.84-20.58,3.55-2.18,9.8-3.86,12.99-4.56.36,3.12,1.83,6.67,3.73,9.79,1.78,2.92,3.97,3.63,6.14,3.67,2.17.04,3.76-.91,5.7-3.4,1.8-2.31,2.22-5.3,3.38-9.84,3.88,1.46,7.68,1.13,11.56,2.6,2.57,5.44,3.7,18.37,4.4,24.29.44,3.73,2.48,29.89,1.2,32.79-1.28,2.9-12.57,4.38-15.93,4.66-12.62,1.08-28.36-.24-30.51-.99-8.91-3.1-7.48-3.94-7.14-8.35.17-2.26,2.65-24,2.65-30.08Z" style="fill: #f1f1f1;"/>
                  <path d="m113.95,228.54c-.16,6.29.99,19.4-1.62,20.28-2.1.71-30.07,1.72-44.45-.08-1.03,0-1.66-1.55-1.66-4.67,0-6,.38-9.92-.42-14.7-.24,2.71-.41,5.28-.41,7.12,0,6.08-2.47,27.82-2.65,30.08-.34,4.42-1.77,5.25,7.14,8.35,2.15.75,17.88,2.07,30.51.99,3.36-.29,14.65-1.76,15.93-4.66,1.28-2.9-.76-29.06-1.2-32.79-.29-2.45-.65-6.1-1.16-9.92Z" style="fill: #d5dde3;"/>
                  <path d="m80.67,210.65s-2.75.32-3.2,2.01c-.45,1.68.7,16.37.7,16.37,0,0,3.33-3.97,4.63-4.65,1.3-.68,7.12.74,7.29.44.17-.3-8.07-4.46-9.42-14.16Z" style="fill: #e6e9eb;"/>
                  <path d="m99,210.71s2.75.32,3.2,2.01c.45,1.68-.7,16.37-.7,16.37,0,0-3.33-3.97-4.63-4.65-1.3-.68-6.18.66-6.35.36-.17-.3,7.12-4.38,8.47-14.08Z" style="fill: #e6e9eb;"/>
                </g>
                <g>
                  <path d="m108.09,247.14l-.28-10.8c-4.51.55-9.77.25-9.77.25v10.13c1.36,1.54,3.3,2.74,4.74,2.8,2.36.1,5.32-2.38,5.32-2.38Z" style="fill: #e6e9eb;"/>
                  <g>
                    <g>
                      <path d="m92.95,230.58c0,.47-.36.85-.81.85s-.81-.38-.81-.85.36-.85.81-.85.81.38.81.85Z" style="fill: #cad6e3;"/>
                      <ellipse cx="92.14" cy="243.21" rx=".81" ry=".85" style="fill: #cad6e3;"/>
                      <ellipse cx="92.14" cy="255.84" rx=".81" ry=".85" style="fill: #cad6e3;"/>
                    </g>
                    <polygon points="90.33 275.41 90.68 275.41 90.53 224.79 90.2 224.8 90.33 275.41" style="fill: #cad6e3;"/>
                  </g>
                </g>
              </g>
              <g>
                <g>
                  <g>
                    <g>
                      <path d="m52.44,191.77c-9.08-.01-14.43-10.63-13.68-18.15.42-3.6,4.03-4.52,7.95-4,8.1.95,13.17,8.84,10.67,13.98-1.01,3.43-2.76,8.05-4.93,8.17Z" style="fill: #ffd3c2;"/>
                      <path d="m51.1,184.18c-.11.43-1.98,1.67-3.29.75-1.56-1.94,1.12-4.3.04-6.08-1.31-.91-2.98-2.42-1.8-2.96,2.34-1.08,5.23,3.66,7.07.54.65-1.09,1.1-2.48,1.16-3.91.92.88,1.68,1.87,2.28,2.91-.71,3.35-3.25,6.34-5.46,8.74Z" style="fill: #f2ae97;"/>
                    </g>
                    <g>
                      <path d="m124.33,191.6c9.69-.22,12.54-10.73,11.01-18.12-.79-3.54-4.23-5.2-8.07-4.24-7.96,1.87-11.88,10.86-8.87,15.68,1.35,3.3,3.75,6.73,5.93,6.68Z" style="fill: #ffd3c2;"/>
                      <path d="m124.7,184.79c.16.42,2.14,1.43,3.35.37,1.35-2.1-1.56-4.15-.67-6.04,1.21-1.06,2.71-2.75,1.49-3.15-2.44-.8-4.82,4.23-6.98,1.34-.75-1.01-1.35-2.33-1.55-3.75-.82.98-1.48,2.05-1.97,3.16,1.05,3.25,3.89,5.93,6.33,8.07Z" style="fill: #f2ae97;"/>
                    </g>
                  </g>
                  <path d="m50.72,190.11c-.5-7.67-.71-15.36-.61-23.04.11-8.94.67-18.06,3.88-26.34,3.5-9.02,10.16-16.65,18.41-21.09,9.89-5.32,21.98-6.02,32.31-1.59,8.29,3.34,15.23,10.51,18.03,19.4,1.22,3.87,1.7,7.96,1.91,12.04.36,6.81-.03,13.66-1.15,20.37.56,3.91,1.12,7.82,1.68,11.73.31,2.15.61,4.33.3,6.48-.32,2.16-1.25,4.17-2.31,6.06-7.14,12.69-24.17,15-32.82,15.42-11.57.57-34.92-8.24-39.64-19.45Z" style="fill: #ffd3c2;"/>
                  <path d="m63.74,196.61c-7.58-6.84-9.51-14.54-7.28-22.99,5.15-.9,14.93-10.9,16.77-19.75,5.69,12.51,25.41,12.26,35.3,7.49,4.17,3.99,9.89,4.56,15.59,4.39.65-5.38.84-10.83.56-16.25-.21-4.07-.7-8.16-1.91-12.04-2.79-8.89-9.74-16.06-18.03-19.4-10.33-4.43-22.42-3.74-32.31,1.59-8.25,4.44-14.91,12.07-18.41,21.09-3.21,8.28-3.77,17.4-3.88,26.34-.1,7.68.11,15.37.61,23.04,4.71,11.21,28.07,20.02,39.64,19.45,6.67-.33,18.33-1.78,26.59-8.25-17.05,11.67-37.69,9.74-53.21-4.69Z" style="fill: #f2ae97;"/>
                  <g>
                    <g>
                      <path d="m46.21,141.37c.63-1.51,1.34-2.99,2.15-4.42,1.1-1.94,2.4-3.77,3.86-5.45,3.13-9.92,13.09-16.14,23.04-18.6,13.11-3.23,25.09-.19,36.86,5.98,8.79,4.61,12.45,9.42,18.42,20.08,11.2,26.59-6.02,34.72-6.02,34.72,0,0,.01-5.66-1.98-12.9-4.73-.31-11.29-3.62-14.7-7.2-4.26-4.48-10.23-13.24-12.91-18.92.44,7.37-1.73,17.82-8.18,21.33.71-3.13.72-6.43.02-9.56-2.61,6.84-7.81,12.55-14.2,15.58-3.93,1.87-8.29,2.71-12.59,2.51-3.21,1.68-5.75,2.91-9.54,4.4l1.13,11.48s-7.39-13.84-8.15-20.36c-.79-6.8.17-12.36,2.79-18.7Z" style="fill: #904c33;"/>
                      <path d="m57.17,124.26c.26-.18.26-.6.09-.84-.21-.28-.55-.27-.8-.09-.4.28-.77.59-1.13.92-1.82-1.87-4.4-2.92-6.94-2.75-.33.02-.57.32-.55.66.02.34.3.6.63.58,2.2-.15,4.44.76,6.02,2.38-.65.76-1.21,1.61-1.64,2.53-3.42-.34-6.93,1.2-9.05,4.07-.2.27-.15.66.11.87.08.06.17.1.26.12.21.04.43-.04.57-.23,1.76-2.39,4.75-3.77,7.63-3.62-.22.67-.39,1.37-.49,2.08-.1.76,1.03.89,1.13.13.09-.71.27-1.4.51-2.07.08.02.17.03.25.05.32.08.64-.14.71-.47.07-.33-.13-.67-.44-.74.33-.65.74-1.26,1.2-1.81.04.05.08.1.11.16.09.14.23.23.38.25.15.03.31,0,.45-.11.27-.2.33-.59.14-.87-.08-.11-.16-.22-.24-.33.34-.32.7-.62,1.08-.88Z" style="fill: #6b3634;"/>
                    </g>
                    <path d="m89.65,111.75c-4.67-.39-9.45-.07-14.38,1.15-9.96,2.45-19.92,8.68-23.04,18.6-1.46,1.68-2.76,3.51-3.86,5.45-.81,1.43-1.52,2.91-2.15,4.42-2.63,6.34-3.59,11.9-2.79,18.7.76,6.51,8.15,20.36,8.15,20.36l-1.13-11.48c-6.06-12.19-2.93-26.14,7.07-35.38-.08-17.9,26.79-21.19,32.14-21.81Z" style="fill: #7a412b;"/>
                    <g>
                      <path d="m71.38,163.24c.1.02.21,0,.31-.04,5.38-2.48,10.03-6.64,13.44-12.04,3.42-5.4,5.28-11.51,5.37-17.68,0-.31-.23-.56-.52-.57-.29,0-.54.24-.54.55-.1,5.95-1.89,11.86-5.2,17.08-3.3,5.22-7.79,9.24-12.98,11.63-.27.12-.39.46-.27.74.07.18.23.3.4.33Z" style="fill: #6b3634;"/>
                      <path d="m90.98,152.11c.2.04.41-.05.54-.24,3.56-5.53,3.8-12.73,3.99-18.52.01-.31-.22-.57-.51-.58-.29-.01-.54.23-.55.54-.19,5.65-.42,12.67-3.81,17.93-.17.26-.1.6.14.78.06.05.13.07.21.09Z" style="fill: #6b3634;"/>
                      <path d="m122.61,159.77c-.23-.64-1.07-.33-1.08.25-4.21-.82-8.28-2.74-11.81-5.58-3.69-2.98-6.61-6.81-8.44-11.1-.12-.28-.44-.41-.71-.28-.27.13-.39.46-.27.74,1.9,4.45,4.93,8.44,8.76,11.53,3.72,3,8.04,5.02,12.49,5.85.11.02.23.04.34.06,1.25,3.77,1.93,7.74,1.95,11.73,0,.76,1.14.9,1.13.13-.03-4.57-.82-9.07-2.38-13.34Z" style="fill: #6b3634;"/>
                      <path d="m127.75,150.77c.09.02.2,0,.29-.03.27-.12.41-.44.3-.73-2.83-7.38-7.55-14.05-13.67-19.28-6.12-5.22-13.29-8.73-20.75-10.13,0,0,0,0,0,0-.29-.05-.57.15-.62.45-.05.3.14.6.43.65,14.81,2.78,28.01,14.05,33.62,28.72.07.19.23.31.4.34Z" style="fill: #6b3634;"/>
                      <path d="m51.45,152.2s.01,0,.02,0c.29.04.56-.17.6-.48,1.77-13,10.34-24.74,21.83-29.91.27-.12.4-.45.28-.74-.12-.28-.43-.42-.7-.29-11.82,5.32-20.64,17.41-22.46,30.78-.04.3.15.58.43.63Z" style="fill: #6b3634;"/>
                      <path d="m65.27,152.24c-1.07,1.85-2.34,3.57-3.77,5.13-1.4,1.53-2.96,2.9-4.64,4.08-.98.68-1.99,1.31-3.04,1.87-.3.16-.72.02-.86-.31-.14-.34-.03-.73.29-.9.9-.47,1.77-.99,2.61-1.57.05-.03.1-.07.15-.1.03-.02.1-.07-.03.02.02-.02.05-.03.07-.05.11-.08.22-.16.33-.23.2-.14.4-.29.6-.44.41-.31.8-.63,1.19-.96.77-.66,1.51-1.37,2.21-2.11.18-.19.35-.38.52-.57.08-.09.16-.18.24-.27.04-.05.08-.09.12-.14.02-.02.04-.05.06-.07-.11.14-.01.02,0,0,.33-.39.65-.8.96-1.21.7-.92,1.34-1.89,1.92-2.9.17-.3.62-.39.89-.18.29.23.36.61.17.93h0Z" style="fill: #6b3634;"/>
                    </g>
                    <path d="m57.28,122.19c5.01-4.81,11.26-7.95,17.85-9.55,6.77-1.64,13.86-1.75,20.71-.55,6.82,1.19,13.52,3.69,19.3,7.72,5.85,4.09,10.72,9.7,14.16,16.13,3.41,6.37,5.47,13.57,5.7,20.89.03.9.03,1.8,0,2.7-.02.65-.99.76-.98.1.21-7.18-1.37-14.32-4.36-20.76-3.01-6.49-7.48-12.24-12.94-16.61-5.44-4.35-11.87-7.15-18.53-8.65-6.65-1.5-13.59-1.73-20.3-.51-6.5,1.19-12.82,3.81-18.03,8.13-.63.52-1.24,1.06-1.83,1.63-.46.44-1.21-.22-.75-.67h0Z" style="fill: #6b3634;"/>
                    <path d="m96.69,119.56c4.8-1.4,8.59-6.01,9.21-11.2-7.46,3.64-15.77,5.33-23.99,4.86l14.77,6.34Z" style="fill: #904c33;"/>
                    <path d="m105.29,108.31c-2.91,1.65-6.13,2.71-9.42,3.12-.95.12-1.9.18-2.85.2-.6,0-.54.98.06.97,3.43-.05,6.86-.78,10.04-2.14.64-.28,1.27-.58,1.89-.91-.3,2.31-1.26,4.51-2.73,6.25-.4.47.3,1.12.69.65,1.81-2.15,2.87-4.9,3.04-7.77.02-.41-.45-.53-.72-.38Z" style="fill: #6b3634;"/>
                  </g>
                </g>
                <g>
                  <g>
                    <ellipse cx="71.31" cy="184.36" rx="8.27" ry="8.69" style="fill: #f09190;"/>
                    <g>
                      <path d="m68.82,181.63c-.4,1.01-.79,2.01-1.19,3.02-.06.14-.09.27-.04.42.04.13.13.27.25.33.23.12.6.07.71-.22.4-1.01.79-2.01,1.19-3.02.06-.14.09-.27.04-.42-.04-.13-.13-.27-.25-.33-.23-.12-.6-.07-.71.22h0Z" style="fill: #f47170;"/>
                      <path d="m72.98,179.86c-.67,2.09-1.34,4.17-2,6.26-.09.28.12.6.38.67.29.08.54-.12.64-.4.67-2.09,1.34-4.17,2-6.26.09-.28-.12-.6-.38-.67-.29-.08-.54.12-.64.4h0Z" style="fill: #f47170;"/>
                    </g>
                  </g>
                  <g>
                    <ellipse cx="107.99" cy="183.37" rx="7.4" ry="7.78" style="fill: #f09190;"/>
                    <g>
                      <path d="m106.22,180.55c-.42,1.4-.84,2.79-1.27,4.19-.08.25.1.53.34.6.26.07.49-.1.57-.36.42-1.4.84-2.79,1.27-4.19.08-.25-.1-.53-.34-.6-.26-.07-.49.1-.57.36h0Z" style="fill: #f47170;"/>
                      <path d="m109.82,180.87c-.3.94-.59,1.87-.89,2.81-.08.24.1.55.34.6.26.06.49-.09.57-.36.3-.94.59-1.87.89-2.81.08-.24-.1-.55-.34-.6-.26-.06-.49.09-.57.36h0Z" style="fill: #f47170;"/>
                    </g>
                  </g>
                  <g>
                    <ellipse cx="104.15" cy="174.76" rx="6.08" ry="4.32" transform="translate(-79.89 261.44) rotate(-84.43)" style="fill: #533838;"/>
                    <ellipse cx="77.72" cy="174.02" rx="6.08" ry="4.32" transform="translate(-103.03 234.47) rotate(-84.43)" style="fill: #533838;"/>
                    <path d="m90.48,176.43c.62-.22.29-1,.07-1.42-.26-.5.5-.89.76-.39.24.47.44.99.34,1.53-.08.47-.37.91-.81,1.07-.22.08-.45.03-.56-.21-.09-.19-.02-.52.2-.59Z" style="fill: #533838;"/>
                    <path d="m103.1,164.07c.26,0,.52,0,.78.01.13,0,.26.02.39.04.06,0,.13.02.19.03.02,0,.06.02.08.01-.1-.02-.12-.02-.06-.01.02,0,.04,0,.05.01.52.11,1.03.27,1.52.48.06.03.12.05.18.08.02,0,.07.02.08.04,0,0-.13-.07-.05-.02.12.07.25.13.37.2.23.13.45.28.66.43.11.08.21.16.32.24.05.04.1.08.15.13.02.01.06.04.06.06-.07-.06-.08-.07-.04-.03.01.01.03.03.04.04.2.18.38.37.56.57.2.23.39.47.57.72.06.09-.07-.11-.01-.02.02.03.04.06.06.1.04.06.08.13.12.2.08.14.16.28.24.43.19.36.66.54,1.01.32.35-.22.51-.68.31-1.06-1.13-2.18-3.21-3.81-5.52-4.35-.67-.15-1.34-.24-2.03-.21-.39.01-.78.31-.78.76,0,.4.3.83.72.82h0Z" style="fill: #533838;"/>
                    <path d="m73.52,168.12c.15-.22.31-.44.48-.65.09-.1.17-.2.27-.3.05-.05.09-.1.14-.14.02-.02.05-.04.06-.06-.07.07-.09.08-.04.04.01-.01.03-.03.04-.04.39-.37.83-.7,1.28-.98.06-.03.11-.07.17-.1.01,0,.06-.04.07-.04,0,0-.13.07-.05.03.13-.06.25-.13.38-.19.24-.11.48-.21.73-.3.12-.04.25-.08.37-.12.06-.02.13-.04.19-.05.02,0,.06-.02.08-.02-.09.02-.1.02-.05.01.02,0,.04,0,.05-.01.25-.06.51-.1.77-.13.3-.03.59-.04.89-.04.11,0-.13,0-.02,0,.04,0,.07,0,.11,0,.07,0,.15,0,.22.02.16.01.31.03.47.06.39.06.81-.23.86-.65.05-.42-.21-.83-.62-.9-2.34-.37-4.83.38-6.63,1.99-.52.46-.99.98-1.38,1.57-.22.34-.24.84.1,1.11.31.24.81.25,1.05-.11h0Z" style="fill: #533838;"/>
                    <path d="m95.74,181.92c-2.71,2.01-6.35,2.22-9.21.42-.99-.63-1.94.98-.95,1.6,3.36,2.12,7.8,2.02,11.02-.36.93-.69.09-2.36-.86-1.66Z" style="fill: #533838;"/>
                  </g>
                  <g style="mix-blend-mode: soft-light;">
                    <path d="m66.21,181.49c.03.71-1.1,1.34-2.53,1.41-1.43.07-2.61-.44-2.64-1.15s1.1-1.34,2.53-1.41c1.43-.07,2.61.44,2.64,1.15Z" style="fill: #f7ece9;"/>
                  </g>
                  <g style="mix-blend-mode: soft-light;">
                    <path d="m115.59,180.18c.02.55-.72,1.04-1.65,1.09-.94.05-1.72-.36-1.74-.92-.02-.55.72-1.04,1.65-1.09.94-.05,1.72.36,1.74.92Z" style="fill: #f7ece9;"/>
                  </g>
                </g>
              </g>
            </g>
          </g>
          <g>
            <path d="m131.86,263.6c-.39,0-.7-.31-.7-.7s.31-.7.7-.7c1.23,0,2.48-.02,3.72-.05.38-.03.71.29.72.68.01.39-.29.71-.68.72-1.25.04-2.52.05-3.76.05Zm-3.74-.05s-.01,0-.02,0c-1.25-.03-2.51-.09-3.76-.16-.39-.02-.68-.35-.66-.74.02-.39.34-.68.74-.66,1.24.07,2.49.12,3.72.15.39.01.69.33.68.72-.01.38-.32.68-.7.68Zm11.23-.16c-.37,0-.68-.29-.7-.66-.02-.39.27-.72.66-.74,1.23-.07,2.48-.16,3.71-.26.37-.04.72.25.76.64.03.39-.25.72-.64.76-1.25.11-2.51.2-3.75.27-.01,0-.03,0-.04,0Zm-18.7-.25s-.04,0-.06,0c-1.24-.11-2.5-.23-3.74-.37-.38-.04-.66-.39-.62-.77.04-.38.39-.66.77-.62,1.23.14,2.47.26,3.71.36.39.03.67.37.64.76-.03.37-.34.64-.7.64Zm26.16-.38c-.35,0-.65-.26-.69-.62-.04-.38.23-.73.62-.77,1.23-.14,2.47-.3,3.69-.47.38-.06.74.21.79.59.06.38-.21.74-.59.79-1.24.18-2.49.34-3.73.48-.03,0-.05,0-.08,0Zm-33.6-.46s-.07,0-.1,0c-1.24-.18-2.49-.37-3.72-.58-.38-.07-.64-.43-.57-.81.07-.38.43-.64.81-.57,1.22.21,2.46.4,3.68.58.38.05.65.41.59.79-.05.35-.35.6-.69.6Zm41.01-.6c-.33,0-.63-.24-.69-.58-.07-.38.19-.74.57-.81,1.21-.21,2.44-.44,3.66-.68.37-.07.75.17.82.55.08.38-.17.75-.55.82-1.23.25-2.48.48-3.7.69-.04,0-.08.01-.12.01Zm-48.39-.66s-.09,0-.14-.01c-1.23-.25-2.47-.51-3.68-.79-.38-.09-.61-.46-.52-.84.09-.38.46-.61.84-.52,1.2.28,2.42.54,3.64.79.38.08.62.45.55.82-.07.33-.36.56-.69.56Zm55.72-.82c-.32,0-.61-.22-.68-.54-.09-.38.15-.75.52-.84,1.2-.28,2.41-.58,3.61-.89.38-.1.76.13.85.5.1.37-.13.76-.5.85-1.21.32-2.44.62-3.65.9-.05.01-.11.02-.16.02Zm-63.02-.87c-.06,0-.12,0-.18-.02-1.21-.32-2.43-.66-3.63-1-.37-.11-.58-.5-.47-.87.11-.37.5-.58.87-.47,1.18.35,2.39.68,3.59.99.37.1.6.48.5.85-.08.31-.37.52-.68.52Zm70.26-1.03c-.3,0-.58-.2-.67-.5-.11-.37.1-.76.47-.87,1.19-.35,2.39-.72,3.56-1.1.37-.12.76.08.88.45.12.37-.08.76-.45.88-1.18.38-2.39.76-3.6,1.11-.07.02-.13.03-.2.03Zm-77.44-1.07c-.07,0-.14-.01-.22-.03-1.19-.39-2.39-.79-3.58-1.22-.36-.13-.55-.53-.42-.89.13-.36.53-.55.89-.42,1.17.42,2.36.82,3.54,1.2.37.12.57.51.45.88-.1.3-.37.48-.67.48Zm84.56-1.25c-.29,0-.56-.18-.66-.46-.13-.36.06-.76.42-.89,1.16-.41,2.33-.85,3.49-1.3.36-.14.77.04.91.4.14.36-.04.77-.4.91-1.17.46-2.36.9-3.53,1.32-.08.03-.16.04-.24.04Zm-91.64-1.27c-.08,0-.17-.02-.25-.05-1.17-.45-2.34-.93-3.5-1.42-.36-.15-.52-.56-.37-.92.15-.36.56-.52.92-.37,1.14.48,2.31.96,3.46,1.4.36.14.54.55.4.91-.11.28-.37.45-.65.45Zm98.6-1.44c-.27,0-.53-.16-.65-.43-.15-.36.02-.77.37-.92,1.12-.48,2.27-.98,3.4-1.5.35-.16.77,0,.93.35.16.35,0,.77-.35.93-1.14.52-2.3,1.03-3.43,1.51-.09.04-.18.06-.27.06Zm-105.52-1.48c-.1,0-.2-.02-.29-.06-1.14-.52-2.28-1.06-3.41-1.62-.35-.17-.49-.59-.32-.94.17-.35.59-.49.94-.32,1.11.55,2.25,1.09,3.37,1.6.35.16.51.58.35.93-.12.26-.37.41-.64.41Zm112.3-1.63c-.26,0-.51-.14-.63-.39-.17-.35-.03-.77.32-.94,1.11-.54,2.22-1.11,3.31-1.69.34-.18.76-.05.95.29.18.34.05.76-.29.95-1.1.58-2.23,1.16-3.34,1.71-.1.05-.21.07-.31.07Zm-119.03-1.69c-.11,0-.22-.03-.33-.08-1.1-.58-2.21-1.19-3.31-1.81-.34-.19-.46-.62-.26-.95.19-.34.62-.45.95-.26,1.08.61,2.19,1.22,3.27,1.79.34.18.47.6.29.95-.13.24-.37.37-.62.37Zm125.64-1.8c-.24,0-.48-.13-.61-.35-.19-.34-.07-.76.26-.95,1.07-.61,2.15-1.24,3.21-1.88.33-.2.76-.09.96.24.2.33.09.76-.24.96-1.07.64-2.16,1.28-3.24,1.9-.11.06-.23.09-.34.09Zm-132.16-1.89c-.12,0-.25-.03-.36-.1-1.07-.64-2.14-1.31-3.2-1.99-.33-.21-.42-.64-.21-.97.21-.33.64-.42.97-.21,1.04.67,2.11,1.34,3.16,1.97.33.2.44.63.24.96-.13.22-.36.34-.6.34Zm138.56-1.97c-.23,0-.46-.11-.59-.32-.21-.33-.11-.76.21-.97,1.03-.66,2.07-1.35,3.1-2.06.32-.22.75-.14.97.18.22.32.14.75-.18.97-1.04.71-2.09,1.41-3.13,2.08-.12.08-.25.11-.38.11Zm-144.86-2.08c-.14,0-.27-.04-.39-.12-1.03-.7-2.06-1.43-3.08-2.17-.31-.23-.38-.66-.15-.98.23-.31.67-.38.98-.15,1.01.73,2.03,1.45,3.04,2.15.32.22.4.65.18.97-.14.2-.35.3-.58.3Zm151.03-2.14c-.22,0-.43-.1-.57-.29-.23-.31-.16-.75.15-.98,1-.73,2-1.48,2.98-2.23.31-.24.74-.18.98.13.24.31.18.75-.13.98-.99.76-2,1.52-3.01,2.25-.12.09-.27.13-.41.13Zm-157.09-2.27c-.15,0-.3-.05-.43-.15-.99-.76-1.98-1.55-2.95-2.34-.3-.24-.34-.69-.1-.98.24-.3.69-.34.98-.1.96.78,1.94,1.56,2.92,2.32.31.24.36.68.13.98-.14.18-.35.27-.55.27Zm163.01-2.3c-.2,0-.4-.09-.54-.26-.24-.3-.2-.74.1-.99.96-.78,1.92-1.59,2.85-2.4.29-.25.73-.22.99.07.25.29.22.73-.07.99-.94.82-1.91,1.63-2.88,2.42-.13.11-.29.16-.44.16Zm-168.8-2.45c-.16,0-.33-.06-.46-.17-.95-.82-1.89-1.66-2.81-2.51-.28-.26-.3-.7-.04-.99s.7-.3.99-.04c.91.83,1.84,1.67,2.78,2.48.29.25.32.69.07.99-.14.16-.33.24-.53.24Zm174.46-2.45c-.19,0-.38-.08-.52-.23-.26-.28-.24-.73.04-.99.91-.83,1.82-1.69,2.71-2.56.28-.27.72-.26.99.01.27.28.26.72-.01.99-.9.87-1.82,1.74-2.74,2.58-.13.12-.3.18-.47.18Zm-179.97-2.61c-.18,0-.35-.07-.49-.2-.89-.87-1.79-1.76-2.66-2.66-.27-.28-.26-.72.01-.99.28-.27.72-.26.99.01.86.89,1.75,1.77,2.63,2.63.28.27.28.71.01.99-.14.14-.32.21-.5.21Zm185.34-2.61c-.18,0-.35-.07-.49-.2-.28-.27-.28-.71-.01-.99.86-.89,1.72-1.8,2.56-2.7.26-.29.7-.3.99-.04.28.26.3.7.04.99-.85.92-1.71,1.84-2.59,2.73-.14.14-.32.21-.5.21Zm-190.56-2.76c-.19,0-.38-.08-.52-.23-.84-.91-1.68-1.86-2.5-2.81-.25-.29-.22-.73.07-.99.29-.25.73-.22.99.07.81.94,1.65,1.87,2.48,2.78.26.28.24.73-.04.99-.13.12-.3.18-.47.18Zm195.63-2.75c-.16,0-.33-.06-.46-.17-.29-.25-.32-.7-.07-.99.81-.93,1.62-1.89,2.4-2.85.25-.3.69-.34.98-.1.3.24.34.69.1.98-.79.97-1.61,1.93-2.43,2.88-.14.16-.33.24-.53.24Zm-200.53-2.9c-.2,0-.4-.09-.54-.26-.79-.97-1.58-1.96-2.34-2.94-.24-.31-.18-.75.13-.98.31-.24.75-.18.98.13.75.97,1.53,1.95,2.32,2.91.24.3.2.74-.1.99-.13.11-.29.16-.44.16Zm205.28-2.89c-.15,0-.3-.05-.43-.15-.31-.24-.36-.68-.13-.98.75-.97,1.51-1.98,2.24-2.98.23-.31.67-.38.98-.15.31.23.38.67.15.98-.74,1.01-1.5,2.03-2.26,3.01-.14.18-.34.27-.55.27Zm-209.85-3.03c-.22,0-.43-.1-.57-.29-.73-1-1.46-2.03-2.17-3.07-.22-.32-.14-.75.18-.97.32-.22.75-.14.97.18.7,1.02,1.42,2.05,2.15,3.04.23.31.16.75-.15.98-.12.09-.27.13-.41.13Zm214.26-3.03c-.14,0-.27-.04-.4-.12-.32-.22-.4-.65-.18-.97.7-1.02,1.39-2.06,2.06-3.1.21-.33.64-.42.97-.21.32.21.42.64.21.97-.68,1.05-1.38,2.11-2.09,3.14-.14.2-.35.3-.58.3Zm-218.48-3.14c-.23,0-.46-.11-.59-.32-.67-1.05-1.34-2.12-1.99-3.19-.2-.33-.09-.76.24-.96.33-.2.76-.09.96.24.64,1.06,1.3,2.12,1.97,3.15.21.32.12.76-.21.97-.12.08-.25.11-.38.11Zm222.54-3.16c-.12,0-.25-.03-.36-.1-.33-.2-.44-.63-.24-.96.64-1.06,1.27-2.14,1.88-3.22.19-.34.62-.45.95-.26.34.19.45.62.26.95-.62,1.09-1.26,2.18-1.9,3.25-.13.22-.36.34-.6.34Zm-226.41-3.23c-.24,0-.48-.13-.61-.35-.62-1.09-1.22-2.19-1.8-3.29-.18-.34-.05-.77.29-.95.34-.18.76-.05.95.29.58,1.09,1.18,2.18,1.78,3.26.19.34.07.76-.26.95-.11.06-.23.09-.34.09Zm230.11-3.29c-.11,0-.22-.03-.33-.08-.34-.18-.47-.6-.29-.95.58-1.1,1.15-2.22,1.7-3.32.17-.35.59-.49.94-.32.35.17.49.59.32.94-.55,1.12-1.13,2.25-1.72,3.36-.13.24-.37.37-.62.37Zm-233.6-3.31c-.26,0-.51-.14-.63-.39-.55-1.11-1.09-2.25-1.61-3.39-.16-.35,0-.77.34-.93.35-.16.77,0,.93.34.52,1.13,1.05,2.25,1.6,3.35.17.35.03.77-.32.94-.1.05-.21.07-.31.07Zm236.92-3.42c-.1,0-.2-.02-.29-.06-.35-.16-.51-.58-.35-.93.52-1.13,1.02-2.28,1.5-3.42.15-.36.56-.52.92-.37.36.15.52.56.37.92-.49,1.15-1,2.31-1.52,3.45-.12.26-.37.41-.64.41Zm-240.03-3.36c-.27,0-.53-.16-.64-.43-.49-1.14-.96-2.31-1.41-3.47-.14-.36.04-.77.4-.91.36-.14.77.04.91.4.45,1.15.92,2.3,1.4,3.44.15.36-.02.77-.37.92-.09.04-.18.06-.27.06Zm242.95-3.55c-.08,0-.17-.02-.25-.05-.36-.14-.54-.55-.4-.91.45-1.16.89-2.34,1.31-3.5.13-.36.53-.55.89-.42.36.13.55.53.42.89-.42,1.17-.86,2.36-1.32,3.54-.11.28-.37.45-.65.45Zm-245.67-3.41c-.29,0-.56-.18-.66-.46-.42-1.18-.83-2.38-1.22-3.56-.12-.37.08-.76.45-.88.37-.12.76.08.88.45.38,1.17.79,2.35,1.2,3.52.13.36-.06.76-.42.89-.08.03-.16.04-.24.04Zm248.2-3.66c-.07,0-.14-.01-.22-.03-.37-.12-.57-.51-.45-.88.38-1.17.75-2.37,1.1-3.56.11-.37.5-.58.87-.47.37.11.58.5.47.87-.35,1.2-.73,2.41-1.11,3.6-.1.3-.37.48-.67.48Zm-250.51-3.46c-.3,0-.58-.2-.67-.5-.35-1.2-.69-2.42-1.01-3.63-.1-.37.12-.76.5-.85.37-.1.76.13.85.5.31,1.19.65,2.4,1,3.59.11.37-.1.76-.47.87-.07.02-.13.03-.2.03Zm252.62-3.73c-.06,0-.12,0-.18-.02-.37-.1-.6-.48-.5-.85.31-1.19.61-2.41.89-3.61.09-.38.46-.61.84-.52.38.09.61.46.52.84-.28,1.22-.59,2.45-.9,3.65-.08.31-.37.52-.68.52Zm-254.52-3.51c-.32,0-.61-.22-.68-.54-.28-1.22-.55-2.46-.8-3.68-.08-.38.17-.75.55-.82.38-.08.75.17.82.55.24,1.21.51,2.43.79,3.64.09.38-.15.75-.52.84-.05.01-.11.02-.16.02Zm256.21-3.78s-.09,0-.14-.01c-.38-.08-.62-.45-.55-.82.24-1.21.47-2.44.68-3.66.07-.38.43-.64.81-.57.38.07.64.43.57.81-.21,1.23-.44,2.48-.69,3.7-.07.33-.36.56-.69.56ZM2.62,154.97c-.33,0-.63-.24-.69-.58-.21-1.24-.41-2.49-.59-3.72-.06-.38.21-.74.59-.79.38-.05.74.21.79.59.17,1.22.37,2.45.58,3.68.07.38-.19.74-.57.81-.04,0-.08,0-.12,0Zm258.97-3.82s-.07,0-.1,0c-.38-.05-.65-.41-.59-.79.17-1.23.33-2.47.47-3.69.04-.38.39-.66.77-.62.38.04.66.39.62.77-.14,1.23-.3,2.49-.48,3.73-.05.35-.35.6-.69.6ZM1.55,147.57c-.35,0-.65-.26-.69-.62-.14-1.25-.27-2.51-.37-3.74-.03-.39.25-.72.64-.76.39-.04.72.25.76.64.1,1.22.23,2.47.37,3.7.04.38-.23.73-.62.77-.03,0-.05,0-.08,0Zm260.87-3.85s-.04,0-.06,0c-.39-.03-.67-.37-.64-.76.1-1.24.19-2.49.26-3.71.02-.39.36-.66.74-.66.39.02.68.35.66.74-.07,1.24-.16,2.5-.26,3.75-.03.37-.34.64-.7.64ZM.92,140.11c-.37,0-.68-.29-.7-.66-.07-1.25-.13-2.51-.16-3.76-.01-.39.29-.71.68-.72,0,0,.01,0,.02,0,.38,0,.69.3.7.68.04,1.23.09,2.49.16,3.72.02.39-.27.72-.66.74-.01,0-.03,0-.04,0Zm261.93-3.86s-.01,0-.02,0c-.39-.01-.69-.33-.68-.72.03-1.24.05-2.49.05-3.72v-.25c0-.39.31-.7.7-.7s.7.31.7.7v.25c0,1.24-.02,2.51-.05,3.76-.01.38-.32.68-.7.68ZM.7,132.62c-.39,0-.7-.31-.7-.7v-.12c0-1.21.02-2.44.05-3.64.01-.39.34-.71.72-.68.39.01.69.33.68.72-.03,1.19-.05,2.4-.05,3.6v.12c0,.39-.31.7-.7.7Zm262.14-4.11c-.38,0-.69-.3-.7-.68-.04-1.23-.09-2.48-.16-3.72-.02-.39.27-.72.66-.74.38-.03.72.27.74.66.07,1.25.13,2.52.17,3.76.01.39-.29.71-.68.72,0,0-.01,0-.02,0ZM.9,125.14s-.03,0-.04,0c-.39-.02-.68-.35-.66-.74.07-1.24.16-2.51.26-3.75.03-.39.37-.66.76-.64.39.03.67.37.64.76-.1,1.23-.19,2.48-.26,3.71-.02.37-.33.66-.7.66Zm261.5-4.1c-.36,0-.66-.27-.7-.64-.11-1.24-.23-2.48-.37-3.7-.04-.38.23-.73.62-.78.39-.04.73.23.78.62.14,1.24.27,2.5.38,3.74.03.39-.25.72-.64.76-.02,0-.04,0-.06,0ZM1.53,117.68s-.05,0-.08,0c-.38-.04-.66-.39-.62-.77.14-1.24.3-2.5.47-3.73.05-.38.41-.65.79-.6.38.05.65.41.59.79-.17,1.22-.33,2.47-.47,3.69-.04.36-.34.62-.69.62Zm260.02-4.08c-.34,0-.64-.25-.69-.6-.18-1.23-.37-2.46-.58-3.68-.07-.38.19-.74.57-.81.38-.07.74.19.81.57.21,1.23.41,2.48.59,3.72.06.38-.21.74-.59.79-.03,0-.07,0-.1,0ZM2.58,110.27s-.08,0-.12-.01c-.38-.07-.64-.43-.57-.81.21-1.23.44-2.48.69-3.7.08-.38.45-.62.82-.55.38.08.62.44.55.82-.24,1.21-.47,2.44-.68,3.66-.06.34-.35.58-.69.58Zm257.69-4.04c-.33,0-.62-.23-.68-.56-.24-1.2-.51-2.43-.79-3.64-.09-.38.15-.75.52-.84.38-.09.75.15.84.52.29,1.22.56,2.46.8,3.68.08.38-.17.75-.55.83-.05,0-.09.01-.14.01ZM4.05,102.93c-.05,0-.1,0-.16-.02-.38-.09-.61-.46-.52-.84.28-1.21.58-2.44.9-3.65.1-.37.48-.6.85-.5.37.1.6.48.5.85-.31,1.2-.61,2.42-.89,3.62-.07.32-.36.54-.68.54Zm254.52-3.99c-.31,0-.59-.21-.68-.52-.32-1.2-.65-2.4-1-3.59-.11-.37.1-.76.47-.87.37-.11.76.1.87.47.35,1.19.69,2.41,1.01,3.62.1.37-.12.76-.5.86-.06.02-.12.02-.18.02Zm-252.62-3.25c-.07,0-.13,0-.2-.03-.37-.11-.58-.5-.48-.87.35-1.19.72-2.4,1.11-3.6.12-.37.51-.57.88-.45.37.12.57.51.45.88-.38,1.18-.75,2.38-1.09,3.56-.09.31-.37.5-.67.5Zm250.51-3.93c-.29,0-.57-.19-.67-.48-.38-1.17-.79-2.36-1.21-3.52-.13-.36.06-.76.42-.9.36-.13.76.06.9.42.42,1.18.83,2.37,1.22,3.56.12.37-.08.76-.45.88-.07.02-.15.03-.22.03Zm-248.2-3.2c-.08,0-.16-.01-.23-.04-.36-.13-.55-.53-.42-.89.42-1.18.86-2.37,1.32-3.54.14-.36.54-.54.91-.4.36.14.54.55.4.91-.45,1.16-.89,2.33-1.3,3.5-.1.29-.37.47-.66.47Zm245.67-3.84c-.28,0-.54-.17-.65-.44-.45-1.14-.92-2.29-1.4-3.44-.15-.36.02-.77.37-.92.36-.15.77.02.92.37.49,1.15.97,2.32,1.42,3.47.14.36-.04.77-.4.91-.08.03-.17.05-.26.05Zm-242.95-3.16c-.09,0-.18-.02-.27-.06-.36-.15-.52-.56-.37-.92.49-1.15,1-2.32,1.52-3.45.16-.35.58-.51.93-.35.35.16.51.58.35.93-.51,1.13-1.02,2.28-1.5,3.42-.11.27-.37.43-.65.43Zm240.03-3.71c-.27,0-.52-.15-.64-.41-.51-1.12-1.05-2.24-1.6-3.35-.17-.35-.03-.77.32-.94.35-.17.77-.03.94.32.55,1.12,1.1,2.26,1.62,3.39.16.35,0,.77-.34.93-.09.04-.19.06-.29.06Zm-236.92-3.12c-.1,0-.21-.02-.31-.07-.35-.17-.49-.59-.32-.94.55-1.13,1.13-2.26,1.71-3.36.18-.34.6-.47.95-.29.34.18.47.6.29.95-.58,1.09-1.15,2.21-1.69,3.32-.12.25-.37.39-.63.39Zm233.61-3.58c-.25,0-.49-.13-.62-.37-.58-1.09-1.18-2.19-1.79-3.26-.19-.34-.07-.76.26-.95.33-.19.76-.07.95.26.61,1.08,1.22,2.19,1.81,3.29.18.34.05.77-.29.95-.1.06-.22.08-.33.08Zm-230.11-3.06c-.12,0-.24-.03-.34-.09-.34-.19-.46-.62-.26-.95.62-1.09,1.26-2.19,1.9-3.25.2-.33.63-.44.96-.24.33.2.44.63.24.96-.64,1.06-1.27,2.14-1.88,3.22-.13.23-.37.36-.61.36Zm226.42-3.44c-.24,0-.47-.12-.6-.34-.64-1.06-1.3-2.12-1.97-3.15-.21-.32-.12-.76.21-.97.32-.21.76-.12.97.21.67,1.04,1.34,2.12,1.99,3.18.2.33.09.76-.24.96-.11.07-.24.1-.36.1Zm-222.54-2.98c-.13,0-.26-.04-.38-.11-.32-.21-.42-.64-.21-.97.68-1.05,1.38-2.11,2.08-3.14.22-.32.65-.4.97-.18.32.22.4.65.18.97-.7,1.02-1.39,2.06-2.06,3.11-.13.21-.36.32-.59.32Zm218.49-3.3c-.22,0-.44-.11-.58-.3-.7-1.02-1.42-2.04-2.15-3.04-.23-.31-.16-.75.15-.98.31-.23.75-.16.98.15.74,1.01,1.47,2.04,2.17,3.07.22.32.14.75-.18.97-.12.08-.26.12-.4.12Zm-214.26-2.88c-.14,0-.29-.04-.41-.13-.31-.23-.38-.67-.15-.98.74-1.01,1.5-2.03,2.26-3.01.24-.31.68-.36.98-.13.31.24.36.68.13.98-.75.98-1.5,1.98-2.23,2.98-.14.19-.35.29-.57.29Zm209.85-3.16c-.21,0-.42-.09-.55-.27-.75-.97-1.53-1.95-2.32-2.91-.25-.3-.2-.74.1-.99.3-.24.74-.2.99.1.8.97,1.59,1.96,2.34,2.94.24.31.18.75-.13.98-.13.1-.28.15-.43.15Zm-205.27-2.77c-.16,0-.31-.05-.44-.16-.3-.24-.34-.69-.1-.98.79-.96,1.6-1.93,2.42-2.88.25-.29.69-.32.99-.07.29.25.32.69.07.99-.81.94-1.62,1.9-2.4,2.85-.14.17-.34.26-.54.26Zm200.53-3.01c-.2,0-.39-.08-.53-.24-.81-.93-1.64-1.87-2.48-2.77-.26-.28-.24-.73.04-.99s.73-.24.99.04c.85.92,1.69,1.86,2.51,2.8.25.29.22.73-.07.99-.13.12-.3.17-.46.17Zm-195.63-2.65c-.17,0-.34-.06-.47-.18-.28-.26-.3-.7-.04-.99.85-.92,1.72-1.84,2.58-2.74.27-.28.71-.28.99-.01.28.27.28.71.01.99-.86.88-1.72,1.79-2.56,2.71-.14.15-.33.23-.52.23Zm190.56-2.86c-.18,0-.36-.07-.5-.21-.87-.89-1.76-1.78-2.64-2.63-.28-.27-.28-.71-.02-.99.27-.28.71-.28.99-.02.89.86,1.78,1.76,2.66,2.66.27.28.26.72-.01.99-.14.13-.31.2-.49.2Zm-185.34-2.51c-.18,0-.36-.07-.5-.21-.27-.28-.26-.72.01-.99.89-.87,1.81-1.74,2.73-2.59.28-.26.73-.24.99.04.26.28.24.73-.04.99-.91.84-1.82,1.7-2.7,2.56-.14.13-.31.2-.49.2Zm179.97-2.7c-.17,0-.34-.06-.47-.18-.91-.83-1.84-1.66-2.78-2.48-.29-.25-.32-.69-.07-.99.25-.29.7-.33.99-.07.95.82,1.9,1.66,2.81,2.5.28.26.3.7.04.99-.14.15-.33.23-.52.23Zm-174.46-2.37c-.2,0-.39-.08-.53-.24-.25-.29-.22-.73.07-.99.94-.82,1.91-1.64,2.87-2.42.3-.25.74-.2.98.1.25.3.2.74-.1.98-.95.78-1.91,1.59-2.84,2.4-.13.11-.3.17-.46.17Zm168.8-2.54c-.16,0-.31-.05-.44-.16-.96-.78-1.94-1.56-2.92-2.32-.31-.24-.36-.68-.13-.98.24-.31.68-.36.98-.13.99.76,1.98,1.55,2.95,2.34.3.24.34.69.1.98-.14.17-.34.26-.54.26Zm-163.01-2.21c-.21,0-.42-.09-.55-.27-.24-.31-.18-.74.13-.98.99-.76,2-1.52,3.01-2.26.31-.23.75-.16.98.15.23.31.16.75-.15.98-1,.73-2,1.48-2.97,2.23-.13.1-.28.15-.43.15Zm157.08-2.37c-.14,0-.29-.04-.41-.13-.99-.72-2.02-1.44-3.05-2.15-.32-.22-.4-.65-.18-.97.22-.32.65-.4.97-.18,1.04.71,2.07,1.44,3.08,2.17.31.23.38.67.15.98-.14.19-.35.29-.57.29Zm-151.04-2.04c-.22,0-.44-.11-.58-.3-.22-.32-.14-.75.18-.97,1.03-.71,2.08-1.41,3.13-2.08.32-.21.76-.12.97.21.21.32.12.76-.21.97-1.04.67-2.08,1.36-3.1,2.06-.12.08-.26.12-.4.12Zm144.85-2.19c-.13,0-.26-.04-.38-.11-1.05-.67-2.11-1.34-3.17-1.97-.33-.2-.44-.63-.24-.96.2-.33.63-.44.96-.24,1.06.64,2.14,1.31,3.2,1.99.33.21.42.64.21.97-.13.21-.36.32-.59.32Zm-138.57-1.86c-.24,0-.47-.12-.6-.34-.2-.33-.09-.76.24-.96,1.07-.65,2.16-1.28,3.24-1.9.34-.19.76-.07.95.26.19.34.07.76-.26.95-1.07.61-2.15,1.24-3.21,1.88-.11.07-.24.1-.36.1Zm132.15-2.01c-.12,0-.23-.03-.34-.09-1.08-.61-2.18-1.21-3.27-1.79-.34-.18-.47-.6-.29-.95.18-.34.6-.47.95-.29,1.11.58,2.22,1.19,3.31,1.81.34.19.46.62.27.95-.13.23-.37.36-.61.36Zm-125.65-1.67c-.25,0-.49-.13-.62-.37-.18-.34-.05-.76.29-.95,1.11-.59,2.23-1.16,3.34-1.71.35-.17.77-.03.94.32.17.35.03.77-.32.94-1.1.54-2.21,1.11-3.31,1.69-.1.06-.22.08-.33.08Zm119.01-1.83c-.1,0-.21-.02-.31-.07-1.12-.55-2.25-1.09-3.37-1.6-.35-.16-.51-.58-.35-.93.16-.35.58-.51.93-.35,1.13.52,2.28,1.06,3.41,1.61.35.17.49.59.32.94-.12.25-.37.39-.63.39Zm-112.32-1.48c-.27,0-.52-.15-.64-.41-.16-.35,0-.77.34-.93,1.14-.52,2.29-1.03,3.43-1.51.36-.15.77.02.92.37.15.36-.02.77-.37.92-1.13.48-2.27.98-3.4,1.5-.09.04-.19.06-.29.06Zm105.49-1.63c-.09,0-.18-.02-.27-.06-1.15-.48-2.31-.95-3.46-1.4-.36-.14-.54-.55-.4-.91.14-.36.54-.54.91-.4,1.16.45,2.34.93,3.5,1.42.36.15.52.56.37.92-.11.27-.37.43-.65.43Zm-98.62-1.28c-.28,0-.54-.17-.65-.45-.14-.36.04-.77.4-.91,1.16-.46,2.35-.9,3.52-1.32.36-.13.76.06.89.42.13.36-.06.76-.42.89-1.16.42-2.34.86-3.49,1.31-.08.03-.17.05-.25.05Zm91.62-1.43c-.08,0-.16-.01-.23-.04-1.16-.41-2.35-.82-3.54-1.2-.37-.12-.57-.51-.45-.88.12-.37.51-.57.88-.45,1.2.39,2.41.8,3.58,1.21.36.13.55.53.42.89-.1.29-.37.47-.66.47Zm-84.58-1.09c-.29,0-.57-.19-.67-.48-.12-.37.08-.76.45-.88,1.19-.39,2.4-.76,3.59-1.12.37-.11.76.1.87.47.11.37-.1.76-.47.87-1.18.35-2.38.72-3.56,1.1-.07.02-.14.03-.22.03Zm77.44-1.21c-.06,0-.13,0-.2-.03-1.19-.35-2.4-.68-3.59-.99-.37-.1-.6-.48-.5-.85.1-.37.48-.6.85-.5,1.2.31,2.42.65,3.63,1,.37.11.58.5.48.87-.09.31-.37.5-.67.5Zm-70.26-.9c-.31,0-.59-.21-.68-.52-.1-.37.12-.76.5-.86,1.21-.32,2.44-.62,3.65-.91.38-.09.75.15.84.52.09.38-.15.75-.52.84-1.2.28-2.42.58-3.61.9-.06.02-.12.02-.18.02Zm63.02-.99c-.05,0-.1,0-.16-.02-1.2-.28-2.43-.54-3.64-.78-.38-.08-.62-.44-.55-.82s.44-.63.82-.55c1.22.24,2.46.51,3.68.79.38.09.61.46.52.84-.07.32-.36.54-.68.54Zm-55.73-.71c-.33,0-.62-.23-.68-.56-.08-.38.17-.75.55-.83,1.22-.25,2.46-.48,3.7-.7.38-.06.74.19.81.57.07.38-.19.74-.57.81-1.22.21-2.45.44-3.66.69-.05,0-.09.01-.14.01Zm48.39-.75s-.08,0-.12-.01c-1.21-.21-2.45-.4-3.68-.57-.38-.05-.65-.41-.6-.79.05-.38.41-.65.79-.6,1.24.17,2.49.37,3.72.58.38.06.64.43.57.81-.06.34-.35.58-.69.58Zm-41.01-.52c-.34,0-.64-.25-.69-.6-.06-.38.21-.74.59-.79,1.25-.18,2.5-.34,3.73-.48.39-.04.73.23.77.62.04.38-.23.73-.62.77-1.22.14-2.46.3-3.69.48-.03,0-.07,0-.1,0Zm33.6-.52s-.05,0-.08,0c-1.22-.14-2.47-.26-3.71-.36-.39-.03-.67-.37-.64-.76.03-.38.37-.66.76-.64,1.25.1,2.51.23,3.74.37.38.04.66.39.62.77-.04.36-.34.62-.69.62Zm-26.16-.33c-.36,0-.67-.28-.7-.64-.03-.39.25-.72.64-.76,1.26-.11,2.52-.2,3.75-.27.39-.02.72.27.74.66.02.39-.27.72-.66.74-1.22.07-2.47.16-3.71.27-.02,0-.04,0-.06,0Zm18.7-.29s-.03,0-.04,0c-1.24-.07-2.49-.12-3.72-.15-.39-.01-.69-.33-.68-.72.01-.39.33-.71.72-.68,1.24.03,2.51.08,3.76.15.39.02.68.35.66.74-.02.37-.33.66-.7.66Zm-11.23-.14c-.38,0-.69-.3-.7-.68-.01-.39.29-.71.68-.72,1.24-.04,2.51-.06,3.76-.06h0c.39,0,.7.31.7.7,0,.39-.31.7-.7.7-1.24,0-2.49.02-3.72.06,0,0-.01,0-.02,0Z" style="fill: #319e7a;"/>
            <path d="m131.86,263.6c-.39,0-.7-.31-.7-.7s.31-.7.7-.7c1.23,0,2.48-.02,3.72-.05.38-.03.71.29.72.68.01.39-.29.71-.68.72-1.25.04-2.52.05-3.76.05Zm-3.74-.05s-.01,0-.02,0c-1.25-.03-2.51-.09-3.76-.16-.39-.02-.68-.35-.66-.74.02-.39.34-.68.74-.66,1.24.07,2.49.12,3.72.15.39.01.69.33.68.72-.01.38-.32.68-.7.68Zm11.23-.16c-.37,0-.68-.29-.7-.66-.02-.39.27-.72.66-.74,1.23-.07,2.48-.16,3.71-.26.37-.04.72.25.76.64.03.39-.25.72-.64.76-1.25.11-2.51.2-3.75.27-.01,0-.03,0-.04,0Zm-18.7-.25s-.04,0-.06,0c-1.24-.11-2.5-.23-3.74-.37-.38-.04-.66-.39-.62-.77.04-.38.39-.66.77-.62,1.23.14,2.47.26,3.71.36.39.03.67.37.64.76-.03.37-.34.64-.7.64Zm26.16-.38c-.35,0-.65-.26-.69-.62-.04-.38.23-.73.62-.77,1.23-.14,2.47-.3,3.69-.47.38-.06.74.21.79.59.06.38-.21.74-.59.79-1.24.18-2.49.34-3.73.48-.03,0-.05,0-.08,0Zm-33.6-.46s-.07,0-.1,0c-1.24-.18-2.49-.37-3.72-.58-.38-.07-.64-.43-.57-.81.07-.38.43-.64.81-.57,1.22.21,2.46.4,3.68.58.38.05.65.41.59.79-.05.35-.35.6-.69.6Zm41.01-.6c-.33,0-.63-.24-.69-.58-.07-.38.19-.74.57-.81,1.21-.21,2.44-.44,3.66-.68.37-.07.75.17.82.55.08.38-.17.75-.55.82-1.23.25-2.48.48-3.7.69-.04,0-.08.01-.12.01Zm-48.39-.66s-.09,0-.14-.01c-1.23-.25-2.47-.51-3.68-.79-.38-.09-.61-.46-.52-.84.09-.38.46-.61.84-.52,1.2.28,2.42.54,3.64.79.38.08.62.45.55.82-.07.33-.36.56-.69.56Zm55.72-.82c-.32,0-.61-.22-.68-.54-.09-.38.15-.75.52-.84,1.2-.28,2.41-.58,3.61-.89.38-.1.76.13.85.5.1.37-.13.76-.5.85-1.21.32-2.44.62-3.65.9-.05.01-.11.02-.16.02Zm-63.02-.87c-.06,0-.12,0-.18-.02-1.21-.32-2.43-.66-3.63-1-.37-.11-.58-.5-.47-.87.11-.37.5-.58.87-.47,1.18.35,2.39.68,3.59.99.37.1.6.48.5.85-.08.31-.37.52-.68.52Zm70.26-1.03c-.3,0-.58-.2-.67-.5-.11-.37.1-.76.47-.87,1.19-.35,2.39-.72,3.56-1.1.37-.12.76.08.88.45.12.37-.08.76-.45.88-1.18.38-2.39.76-3.6,1.11-.07.02-.13.03-.2.03Zm-77.44-1.07c-.07,0-.14-.01-.22-.03-1.19-.39-2.39-.79-3.58-1.22-.36-.13-.55-.53-.42-.89.13-.36.53-.55.89-.42,1.17.42,2.36.82,3.54,1.2.37.12.57.51.45.88-.1.3-.37.48-.67.48Zm84.56-1.25c-.29,0-.56-.18-.66-.46-.13-.36.06-.76.42-.89,1.16-.41,2.33-.85,3.49-1.3.36-.14.77.04.91.4.14.36-.04.77-.4.91-1.17.46-2.36.9-3.53,1.32-.08.03-.16.04-.24.04Zm-91.64-1.27c-.08,0-.17-.02-.25-.05-1.17-.45-2.34-.93-3.5-1.42-.36-.15-.52-.56-.37-.92.15-.36.56-.52.92-.37,1.14.48,2.31.96,3.46,1.4.36.14.54.55.4.91-.11.28-.37.45-.65.45Zm98.6-1.44c-.27,0-.53-.16-.65-.43-.15-.36.02-.77.37-.92,1.12-.48,2.27-.98,3.4-1.5.35-.16.77,0,.93.35.16.35,0,.77-.35.93-1.14.52-2.3,1.03-3.43,1.51-.09.04-.18.06-.27.06Zm-105.52-1.48c-.1,0-.2-.02-.29-.06-1.14-.52-2.28-1.06-3.41-1.62-.35-.17-.49-.59-.32-.94.17-.35.59-.49.94-.32,1.11.55,2.25,1.09,3.37,1.6.35.16.51.58.35.93-.12.26-.37.41-.64.41Zm112.3-1.63c-.26,0-.51-.14-.63-.39-.17-.35-.03-.77.32-.94,1.11-.54,2.22-1.11,3.31-1.69.34-.18.76-.05.95.29.18.34.05.76-.29.95-1.1.58-2.23,1.16-3.34,1.71-.1.05-.21.07-.31.07Zm-119.03-1.69c-.11,0-.22-.03-.33-.08-1.1-.58-2.21-1.19-3.31-1.81-.34-.19-.46-.62-.26-.95.19-.34.62-.45.95-.26,1.08.61,2.19,1.22,3.27,1.79.34.18.47.6.29.95-.13.24-.37.37-.62.37Zm125.64-1.8c-.24,0-.48-.13-.61-.35-.19-.34-.07-.76.26-.95,1.07-.61,2.15-1.24,3.21-1.88.33-.2.76-.09.96.24.2.33.09.76-.24.96-1.07.64-2.16,1.28-3.24,1.9-.11.06-.23.09-.34.09Zm-132.16-1.89c-.12,0-.25-.03-.36-.1-1.07-.64-2.14-1.31-3.2-1.99-.33-.21-.42-.64-.21-.97.21-.33.64-.42.97-.21,1.04.67,2.11,1.34,3.16,1.97.33.2.44.63.24.96-.13.22-.36.34-.6.34Zm138.56-1.97c-.23,0-.46-.11-.59-.32-.21-.33-.11-.76.21-.97,1.03-.66,2.07-1.35,3.1-2.06.32-.22.75-.14.97.18.22.32.14.75-.18.97-1.04.71-2.09,1.41-3.13,2.08-.12.08-.25.11-.38.11Zm-144.86-2.08c-.14,0-.27-.04-.39-.12-1.03-.7-2.06-1.43-3.08-2.17-.31-.23-.38-.66-.15-.98.23-.31.67-.38.98-.15,1.01.73,2.03,1.45,3.04,2.15.32.22.4.65.18.97-.14.2-.35.3-.58.3Zm151.03-2.14c-.22,0-.43-.1-.57-.29-.23-.31-.16-.75.15-.98,1-.73,2-1.48,2.98-2.23.31-.24.74-.18.98.13.24.31.18.75-.13.98-.99.76-2,1.52-3.01,2.25-.12.09-.27.13-.41.13Zm-157.09-2.27c-.15,0-.3-.05-.43-.15-.99-.76-1.98-1.55-2.95-2.34-.3-.24-.34-.69-.1-.98.24-.3.69-.34.98-.1.96.78,1.94,1.56,2.92,2.32.31.24.36.68.13.98-.14.18-.35.27-.55.27Zm163.01-2.3c-.2,0-.4-.09-.54-.26-.24-.3-.2-.74.1-.99.96-.78,1.92-1.59,2.85-2.4.29-.25.73-.22.99.07.25.29.22.73-.07.99-.94.82-1.91,1.63-2.88,2.42-.13.11-.29.16-.44.16Zm-168.8-2.45c-.16,0-.33-.06-.46-.17-.95-.82-1.89-1.66-2.81-2.51-.28-.26-.3-.7-.04-.99s.7-.3.99-.04c.91.83,1.84,1.67,2.78,2.48.29.25.32.69.07.99-.14.16-.33.24-.53.24Zm174.46-2.45c-.19,0-.38-.08-.52-.23-.26-.28-.24-.73.04-.99.91-.83,1.82-1.69,2.71-2.56.28-.27.72-.26.99.01.27.28.26.72-.01.99-.9.87-1.82,1.74-2.74,2.58-.13.12-.3.18-.47.18Zm-179.97-2.61c-.18,0-.35-.07-.49-.2-.89-.87-1.79-1.76-2.66-2.66-.27-.28-.26-.72.01-.99.28-.27.72-.26.99.01.86.89,1.75,1.77,2.63,2.63.28.27.28.71.01.99-.14.14-.32.21-.5.21Zm185.34-2.61c-.18,0-.35-.07-.49-.2-.28-.27-.28-.71-.01-.99.86-.89,1.72-1.8,2.56-2.7.26-.29.7-.3.99-.04.28.26.3.7.04.99-.85.92-1.71,1.84-2.59,2.73-.14.14-.32.21-.5.21Zm-190.56-2.76c-.19,0-.38-.08-.52-.23-.84-.91-1.68-1.86-2.5-2.81-.25-.29-.22-.73.07-.99.29-.25.73-.22.99.07.81.94,1.65,1.87,2.48,2.78.26.28.24.73-.04.99-.13.12-.3.18-.47.18Zm195.63-2.75c-.16,0-.33-.06-.46-.17-.29-.25-.32-.7-.07-.99.81-.93,1.62-1.89,2.4-2.85.25-.3.69-.34.98-.1.3.24.34.69.1.98-.79.97-1.61,1.93-2.43,2.88-.14.16-.33.24-.53.24Zm-200.53-2.9c-.2,0-.4-.09-.54-.26-.79-.97-1.58-1.96-2.34-2.94-.24-.31-.18-.75.13-.98.31-.24.75-.18.98.13.75.97,1.53,1.95,2.32,2.91.24.3.2.74-.1.99-.13.11-.29.16-.44.16Zm205.28-2.89c-.15,0-.3-.05-.43-.15-.31-.24-.36-.68-.13-.98.75-.97,1.51-1.98,2.24-2.98.23-.31.67-.38.98-.15.31.23.38.67.15.98-.74,1.01-1.5,2.03-2.26,3.01-.14.18-.34.27-.55.27Zm-209.85-3.03c-.22,0-.43-.1-.57-.29-.73-1-1.46-2.03-2.17-3.07-.22-.32-.14-.75.18-.97.32-.22.75-.14.97.18.7,1.02,1.42,2.05,2.15,3.04.23.31.16.75-.15.98-.12.09-.27.13-.41.13Zm214.26-3.03c-.14,0-.27-.04-.4-.12-.32-.22-.4-.65-.18-.97.7-1.02,1.39-2.06,2.06-3.1.21-.33.64-.42.97-.21.32.21.42.64.21.97-.68,1.05-1.38,2.11-2.09,3.14-.14.2-.35.3-.58.3Zm-218.48-3.14c-.23,0-.46-.11-.59-.32-.67-1.05-1.34-2.12-1.99-3.19-.2-.33-.09-.76.24-.96.33-.2.76-.09.96.24.64,1.06,1.3,2.12,1.97,3.15.21.32.12.76-.21.97-.12.08-.25.11-.38.11Zm222.54-3.16c-.12,0-.25-.03-.36-.1-.33-.2-.44-.63-.24-.96.64-1.06,1.27-2.14,1.88-3.22.19-.34.62-.45.95-.26.34.19.45.62.26.95-.62,1.09-1.26,2.18-1.9,3.25-.13.22-.36.34-.6.34Zm-226.41-3.23c-.24,0-.48-.13-.61-.35-.62-1.09-1.22-2.19-1.8-3.29-.18-.34-.05-.77.29-.95.34-.18.76-.05.95.29.58,1.09,1.18,2.18,1.78,3.26.19.34.07.76-.26.95-.11.06-.23.09-.34.09Zm230.11-3.29c-.11,0-.22-.03-.33-.08-.34-.18-.47-.6-.29-.95.58-1.1,1.15-2.22,1.7-3.32.17-.35.59-.49.94-.32.35.17.49.59.32.94-.55,1.12-1.13,2.25-1.72,3.36-.13.24-.37.37-.62.37Zm-233.6-3.31c-.26,0-.51-.14-.63-.39-.55-1.11-1.09-2.25-1.61-3.39-.16-.35,0-.77.34-.93.35-.16.77,0,.93.34.52,1.13,1.05,2.25,1.6,3.35.17.35.03.77-.32.94-.1.05-.21.07-.31.07Zm236.92-3.42c-.1,0-.2-.02-.29-.06-.35-.16-.51-.58-.35-.93.52-1.13,1.02-2.28,1.5-3.42.15-.36.56-.52.92-.37.36.15.52.56.37.92-.49,1.15-1,2.31-1.52,3.45-.12.26-.37.41-.64.41Zm-240.03-3.36c-.27,0-.53-.16-.64-.43-.49-1.14-.96-2.31-1.41-3.47-.14-.36.04-.77.4-.91.36-.14.77.04.91.4.45,1.15.92,2.3,1.4,3.44.15.36-.02.77-.37.92-.09.04-.18.06-.27.06Zm242.95-3.55c-.08,0-.17-.02-.25-.05-.36-.14-.54-.55-.4-.91.45-1.16.89-2.34,1.31-3.5.13-.36.53-.55.89-.42.36.13.55.53.42.89-.42,1.17-.86,2.36-1.32,3.54-.11.28-.37.45-.65.45Zm-245.67-3.41c-.29,0-.56-.18-.66-.46-.42-1.18-.83-2.38-1.22-3.56-.12-.37.08-.76.45-.88.37-.12.76.08.88.45.38,1.17.79,2.35,1.2,3.52.13.36-.06.76-.42.89-.08.03-.16.04-.24.04Zm248.2-3.66c-.07,0-.14-.01-.22-.03-.37-.12-.57-.51-.45-.88.38-1.17.75-2.37,1.1-3.56.11-.37.5-.58.87-.47.37.11.58.5.47.87-.35,1.2-.73,2.41-1.11,3.6-.1.3-.37.48-.67.48Zm-250.51-3.46c-.3,0-.58-.2-.67-.5-.35-1.2-.69-2.42-1.01-3.63-.1-.37.12-.76.5-.85.37-.1.76.13.85.5.31,1.19.65,2.4,1,3.59.11.37-.1.76-.47.87-.07.02-.13.03-.2.03Zm252.62-3.73c-.06,0-.12,0-.18-.02-.37-.1-.6-.48-.5-.85.31-1.19.61-2.41.89-3.61.09-.38.46-.61.84-.52.38.09.61.46.52.84-.28,1.22-.59,2.45-.9,3.65-.08.31-.37.52-.68.52Zm-254.52-3.51c-.32,0-.61-.22-.68-.54-.28-1.22-.55-2.46-.8-3.68-.08-.38.17-.75.55-.82.38-.08.75.17.82.55.24,1.21.51,2.43.79,3.64.09.38-.15.75-.52.84-.05.01-.11.02-.16.02Zm256.21-3.78s-.09,0-.14-.01c-.38-.08-.62-.45-.55-.82.24-1.21.47-2.44.68-3.66.07-.38.43-.64.81-.57.38.07.64.43.57.81-.21,1.23-.44,2.48-.69,3.7-.07.33-.36.56-.69.56ZM2.62,154.97c-.33,0-.63-.24-.69-.58-.21-1.24-.41-2.49-.59-3.72-.06-.38.21-.74.59-.79.38-.05.74.21.79.59.17,1.22.37,2.45.58,3.68.07.38-.19.74-.57.81-.04,0-.08,0-.12,0Zm258.97-3.82s-.07,0-.1,0c-.38-.05-.65-.41-.59-.79.17-1.23.33-2.47.47-3.69.04-.38.39-.66.77-.62.38.04.66.39.62.77-.14,1.23-.3,2.49-.48,3.73-.05.35-.35.6-.69.6ZM1.55,147.57c-.35,0-.65-.26-.69-.62-.14-1.25-.27-2.51-.37-3.74-.03-.39.25-.72.64-.76.39-.04.72.25.76.64.1,1.22.23,2.47.37,3.7.04.38-.23.73-.62.77-.03,0-.05,0-.08,0Zm260.87-3.85s-.04,0-.06,0c-.39-.03-.67-.37-.64-.76.1-1.24.19-2.49.26-3.71.02-.39.36-.66.74-.66.39.02.68.35.66.74-.07,1.24-.16,2.5-.26,3.75-.03.37-.34.64-.7.64ZM.92,140.11c-.37,0-.68-.29-.7-.66-.07-1.25-.13-2.51-.16-3.76-.01-.39.29-.71.68-.72,0,0,.01,0,.02,0,.38,0,.69.3.7.68.04,1.23.09,2.49.16,3.72.02.39-.27.72-.66.74-.01,0-.03,0-.04,0Zm261.93-3.86s-.01,0-.02,0c-.39-.01-.69-.33-.68-.72.03-1.24.05-2.49.05-3.72v-.25c0-.39.31-.7.7-.7s.7.31.7.7v.25c0,1.24-.02,2.51-.05,3.76-.01.38-.32.68-.7.68ZM.7,132.62c-.39,0-.7-.31-.7-.7v-.12c0-1.21.02-2.44.05-3.64.01-.39.34-.71.72-.68.39.01.69.33.68.72-.03,1.19-.05,2.4-.05,3.6v.12c0,.39-.31.7-.7.7Zm262.14-4.11c-.38,0-.69-.3-.7-.68-.04-1.23-.09-2.48-.16-3.72-.02-.39.27-.72.66-.74.38-.03.72.27.74.66.07,1.25.13,2.52.17,3.76.01.39-.29.71-.68.72,0,0-.01,0-.02,0ZM.9,125.14s-.03,0-.04,0c-.39-.02-.68-.35-.66-.74.07-1.24.16-2.51.26-3.75.03-.39.37-.66.76-.64.39.03.67.37.64.76-.1,1.23-.19,2.48-.26,3.71-.02.37-.33.66-.7.66Zm261.5-4.1c-.36,0-.66-.27-.7-.64-.11-1.24-.23-2.48-.37-3.7-.04-.38.23-.73.62-.78.39-.04.73.23.78.62.14,1.24.27,2.5.38,3.74.03.39-.25.72-.64.76-.02,0-.04,0-.06,0ZM1.53,117.68s-.05,0-.08,0c-.38-.04-.66-.39-.62-.77.14-1.24.3-2.5.47-3.73.05-.38.41-.65.79-.6.38.05.65.41.59.79-.17,1.22-.33,2.47-.47,3.69-.04.36-.34.62-.69.62Zm260.02-4.08c-.34,0-.64-.25-.69-.6-.18-1.23-.37-2.46-.58-3.68-.07-.38.19-.74.57-.81.38-.07.74.19.81.57.21,1.23.41,2.48.59,3.72.06.38-.21.74-.59.79-.03,0-.07,0-.1,0ZM2.58,110.27s-.08,0-.12-.01c-.38-.07-.64-.43-.57-.81.21-1.23.44-2.48.69-3.7.08-.38.45-.62.82-.55.38.08.62.44.55.82-.24,1.21-.47,2.44-.68,3.66-.06.34-.35.58-.69.58Zm257.69-4.04c-.33,0-.62-.23-.68-.56-.24-1.2-.51-2.43-.79-3.64-.09-.38.15-.75.52-.84.38-.09.75.15.84.52.29,1.22.56,2.46.8,3.68.08.38-.17.75-.55.83-.05,0-.09.01-.14.01ZM4.05,102.93c-.05,0-.1,0-.16-.02-.38-.09-.61-.46-.52-.84.28-1.21.58-2.44.9-3.65.1-.37.48-.6.85-.5.37.1.6.48.5.85-.31,1.2-.61,2.42-.89,3.62-.07.32-.36.54-.68.54Zm254.52-3.99c-.31,0-.59-.21-.68-.52-.32-1.2-.65-2.4-1-3.59-.11-.37.1-.76.47-.87.37-.11.76.1.87.47.35,1.19.69,2.41,1.01,3.62.1.37-.12.76-.5.86-.06.02-.12.02-.18.02Zm-252.62-3.25c-.07,0-.13,0-.2-.03-.37-.11-.58-.5-.48-.87.35-1.19.72-2.4,1.11-3.6.12-.37.51-.57.88-.45.37.12.57.51.45.88-.38,1.18-.75,2.38-1.09,3.56-.09.31-.37.5-.67.5Zm250.51-3.93c-.29,0-.57-.19-.67-.48-.38-1.17-.79-2.36-1.21-3.52-.13-.36.06-.76.42-.9.36-.13.76.06.9.42.42,1.18.83,2.37,1.22,3.56.12.37-.08.76-.45.88-.07.02-.15.03-.22.03Zm-248.2-3.2c-.08,0-.16-.01-.23-.04-.36-.13-.55-.53-.42-.89.42-1.18.86-2.37,1.32-3.54.14-.36.54-.54.91-.4.36.14.54.55.4.91-.45,1.16-.89,2.33-1.3,3.5-.1.29-.37.47-.66.47Zm245.67-3.84c-.28,0-.54-.17-.65-.44-.45-1.14-.92-2.29-1.4-3.44-.15-.36.02-.77.37-.92.36-.15.77.02.92.37.49,1.15.97,2.32,1.42,3.47.14.36-.04.77-.4.91-.08.03-.17.05-.26.05Zm-242.95-3.16c-.09,0-.18-.02-.27-.06-.36-.15-.52-.56-.37-.92.49-1.15,1-2.32,1.52-3.45.16-.35.58-.51.93-.35.35.16.51.58.35.93-.51,1.13-1.02,2.28-1.5,3.42-.11.27-.37.43-.65.43Zm240.03-3.71c-.27,0-.52-.15-.64-.41-.51-1.12-1.05-2.24-1.6-3.35-.17-.35-.03-.77.32-.94.35-.17.77-.03.94.32.55,1.12,1.1,2.26,1.62,3.39.16.35,0,.77-.34.93-.09.04-.19.06-.29.06Zm-236.92-3.12c-.1,0-.21-.02-.31-.07-.35-.17-.49-.59-.32-.94.55-1.13,1.13-2.26,1.71-3.36.18-.34.6-.47.95-.29.34.18.47.6.29.95-.58,1.09-1.15,2.21-1.69,3.32-.12.25-.37.39-.63.39Zm233.61-3.58c-.25,0-.49-.13-.62-.37-.58-1.09-1.18-2.19-1.79-3.26-.19-.34-.07-.76.26-.95.33-.19.76-.07.95.26.61,1.08,1.22,2.19,1.81,3.29.18.34.05.77-.29.95-.1.06-.22.08-.33.08Zm-230.11-3.06c-.12,0-.24-.03-.34-.09-.34-.19-.46-.62-.26-.95.62-1.09,1.26-2.19,1.9-3.25.2-.33.63-.44.96-.24.33.2.44.63.24.96-.64,1.06-1.27,2.14-1.88,3.22-.13.23-.37.36-.61.36Zm226.42-3.44c-.24,0-.47-.12-.6-.34-.64-1.06-1.3-2.12-1.97-3.15-.21-.32-.12-.76.21-.97.32-.21.76-.12.97.21.67,1.04,1.34,2.12,1.99,3.18.2.33.09.76-.24.96-.11.07-.24.1-.36.1Zm-222.54-2.98c-.13,0-.26-.04-.38-.11-.32-.21-.42-.64-.21-.97.68-1.05,1.38-2.11,2.08-3.14.22-.32.65-.4.97-.18.32.22.4.65.18.97-.7,1.02-1.39,2.06-2.06,3.11-.13.21-.36.32-.59.32Zm218.49-3.3c-.22,0-.44-.11-.58-.3-.7-1.02-1.42-2.04-2.15-3.04-.23-.31-.16-.75.15-.98.31-.23.75-.16.98.15.74,1.01,1.47,2.04,2.17,3.07.22.32.14.75-.18.97-.12.08-.26.12-.4.12Zm-214.26-2.88c-.14,0-.29-.04-.41-.13-.31-.23-.38-.67-.15-.98.74-1.01,1.5-2.03,2.26-3.01.24-.31.68-.36.98-.13.31.24.36.68.13.98-.75.98-1.5,1.98-2.23,2.98-.14.19-.35.29-.57.29Zm209.85-3.16c-.21,0-.42-.09-.55-.27-.75-.97-1.53-1.95-2.32-2.91-.25-.3-.2-.74.1-.99.3-.24.74-.2.99.1.8.97,1.59,1.96,2.34,2.94.24.31.18.75-.13.98-.13.1-.28.15-.43.15Zm-205.27-2.77c-.16,0-.31-.05-.44-.16-.3-.24-.34-.69-.1-.98.79-.96,1.6-1.93,2.42-2.88.25-.29.69-.32.99-.07.29.25.32.69.07.99-.81.94-1.62,1.9-2.4,2.85-.14.17-.34.26-.54.26Zm200.53-3.01c-.2,0-.39-.08-.53-.24-.81-.93-1.64-1.87-2.48-2.77-.26-.28-.24-.73.04-.99s.73-.24.99.04c.85.92,1.69,1.86,2.51,2.8.25.29.22.73-.07.99-.13.12-.3.17-.46.17Zm-195.63-2.65c-.17,0-.34-.06-.47-.18-.28-.26-.3-.7-.04-.99.85-.92,1.72-1.84,2.58-2.74.27-.28.71-.28.99-.01.28.27.28.71.01.99-.86.88-1.72,1.79-2.56,2.71-.14.15-.33.23-.52.23Zm190.56-2.86c-.18,0-.36-.07-.5-.21-.87-.89-1.76-1.78-2.64-2.63-.28-.27-.28-.71-.02-.99.27-.28.71-.28.99-.02.89.86,1.78,1.76,2.66,2.66.27.28.26.72-.01.99-.14.13-.31.2-.49.2Zm-185.34-2.51c-.18,0-.36-.07-.5-.21-.27-.28-.26-.72.01-.99.89-.87,1.81-1.74,2.73-2.59.28-.26.73-.24.99.04.26.28.24.73-.04.99-.91.84-1.82,1.7-2.7,2.56-.14.13-.31.2-.49.2Zm179.97-2.7c-.17,0-.34-.06-.47-.18-.91-.83-1.84-1.66-2.78-2.48-.29-.25-.32-.69-.07-.99.25-.29.7-.33.99-.07.95.82,1.9,1.66,2.81,2.5.28.26.3.7.04.99-.14.15-.33.23-.52.23Zm-174.46-2.37c-.2,0-.39-.08-.53-.24-.25-.29-.22-.73.07-.99.94-.82,1.91-1.64,2.87-2.42.3-.25.74-.2.98.1.25.3.2.74-.1.98-.95.78-1.91,1.59-2.84,2.4-.13.11-.3.17-.46.17Zm168.8-2.54c-.16,0-.31-.05-.44-.16-.96-.78-1.94-1.56-2.92-2.32-.31-.24-.36-.68-.13-.98.24-.31.68-.36.98-.13.99.76,1.98,1.55,2.95,2.34.3.24.34.69.1.98-.14.17-.34.26-.54.26Zm-163.01-2.21c-.21,0-.42-.09-.55-.27-.24-.31-.18-.74.13-.98.99-.76,2-1.52,3.01-2.26.31-.23.75-.16.98.15.23.31.16.75-.15.98-1,.73-2,1.48-2.97,2.23-.13.1-.28.15-.43.15Zm157.08-2.37c-.14,0-.29-.04-.41-.13-.99-.72-2.02-1.44-3.05-2.15-.32-.22-.4-.65-.18-.97.22-.32.65-.4.97-.18,1.04.71,2.07,1.44,3.08,2.17.31.23.38.67.15.98-.14.19-.35.29-.57.29Zm-151.04-2.04c-.22,0-.44-.11-.58-.3-.22-.32-.14-.75.18-.97,1.03-.71,2.08-1.41,3.13-2.08.32-.21.76-.12.97.21.21.32.12.76-.21.97-1.04.67-2.08,1.36-3.1,2.06-.12.08-.26.12-.4.12Zm144.85-2.19c-.13,0-.26-.04-.38-.11-1.05-.67-2.11-1.34-3.17-1.97-.33-.2-.44-.63-.24-.96.2-.33.63-.44.96-.24,1.06.64,2.14,1.31,3.2,1.99.33.21.42.64.21.97-.13.21-.36.32-.59.32Zm-138.57-1.86c-.24,0-.47-.12-.6-.34-.2-.33-.09-.76.24-.96,1.07-.65,2.16-1.28,3.24-1.9.34-.19.76-.07.95.26.19.34.07.76-.26.95-1.07.61-2.15,1.24-3.21,1.88-.11.07-.24.1-.36.1Zm132.15-2.01c-.12,0-.23-.03-.34-.09-1.08-.61-2.18-1.21-3.27-1.79-.34-.18-.47-.6-.29-.95.18-.34.6-.47.95-.29,1.11.58,2.22,1.19,3.31,1.81.34.19.46.62.27.95-.13.23-.37.36-.61.36Zm-125.65-1.67c-.25,0-.49-.13-.62-.37-.18-.34-.05-.76.29-.95,1.11-.59,2.23-1.16,3.34-1.71.35-.17.77-.03.94.32.17.35.03.77-.32.94-1.1.54-2.21,1.11-3.31,1.69-.1.06-.22.08-.33.08Zm119.01-1.83c-.1,0-.21-.02-.31-.07-1.12-.55-2.25-1.09-3.37-1.6-.35-.16-.51-.58-.35-.93.16-.35.58-.51.93-.35,1.13.52,2.28,1.06,3.41,1.61.35.17.49.59.32.94-.12.25-.37.39-.63.39Zm-112.32-1.48c-.27,0-.52-.15-.64-.41-.16-.35,0-.77.34-.93,1.14-.52,2.29-1.03,3.43-1.51.36-.15.77.02.92.37.15.36-.02.77-.37.92-1.13.48-2.27.98-3.4,1.5-.09.04-.19.06-.29.06Zm105.49-1.63c-.09,0-.18-.02-.27-.06-1.15-.48-2.31-.95-3.46-1.4-.36-.14-.54-.55-.4-.91.14-.36.54-.54.91-.4,1.16.45,2.34.93,3.5,1.42.36.15.52.56.37.92-.11.27-.37.43-.65.43Zm-98.62-1.28c-.28,0-.54-.17-.65-.45-.14-.36.04-.77.4-.91,1.16-.46,2.35-.9,3.52-1.32.36-.13.76.06.89.42.13.36-.06.76-.42.89-1.16.42-2.34.86-3.49,1.31-.08.03-.17.05-.25.05Zm91.62-1.43c-.08,0-.16-.01-.23-.04-1.16-.41-2.35-.82-3.54-1.2-.37-.12-.57-.51-.45-.88.12-.37.51-.57.88-.45,1.2.39,2.41.8,3.58,1.21.36.13.55.53.42.89-.1.29-.37.47-.66.47Zm-84.58-1.09c-.29,0-.57-.19-.67-.48-.12-.37.08-.76.45-.88,1.19-.39,2.4-.76,3.59-1.12.37-.11.76.1.87.47.11.37-.1.76-.47.87-1.18.35-2.38.72-3.56,1.1-.07.02-.14.03-.22.03Zm77.44-1.21c-.06,0-.13,0-.2-.03-1.19-.35-2.4-.68-3.59-.99-.37-.1-.6-.48-.5-.85.1-.37.48-.6.85-.5,1.2.31,2.42.65,3.63,1,.37.11.58.5.48.87-.09.31-.37.5-.67.5Zm-70.26-.9c-.31,0-.59-.21-.68-.52-.1-.37.12-.76.5-.86,1.21-.32,2.44-.62,3.65-.91.38-.09.75.15.84.52.09.38-.15.75-.52.84-1.2.28-2.42.58-3.61.9-.06.02-.12.02-.18.02Zm63.02-.99c-.05,0-.1,0-.16-.02-1.2-.28-2.43-.54-3.64-.78-.38-.08-.62-.44-.55-.82s.44-.63.82-.55c1.22.24,2.46.51,3.68.79.38.09.61.46.52.84-.07.32-.36.54-.68.54Zm-55.73-.71c-.33,0-.62-.23-.68-.56-.08-.38.17-.75.55-.83,1.22-.25,2.46-.48,3.7-.7.38-.06.74.19.81.57.07.38-.19.74-.57.81-1.22.21-2.45.44-3.66.69-.05,0-.09.01-.14.01Zm48.39-.75s-.08,0-.12-.01c-1.21-.21-2.45-.4-3.68-.57-.38-.05-.65-.41-.6-.79.05-.38.41-.65.79-.6,1.24.17,2.49.37,3.72.58.38.06.64.43.57.81-.06.34-.35.58-.69.58Zm-41.01-.52c-.34,0-.64-.25-.69-.6-.06-.38.21-.74.59-.79,1.25-.18,2.5-.34,3.73-.48.39-.04.73.23.77.62.04.38-.23.73-.62.77-1.22.14-2.46.3-3.69.48-.03,0-.07,0-.1,0Zm33.6-.52s-.05,0-.08,0c-1.22-.14-2.47-.26-3.71-.36-.39-.03-.67-.37-.64-.76.03-.38.37-.66.76-.64,1.25.1,2.51.23,3.74.37.38.04.66.39.62.77-.04.36-.34.62-.69.62Zm-26.16-.33c-.36,0-.67-.28-.7-.64-.03-.39.25-.72.64-.76,1.26-.11,2.52-.2,3.75-.27.39-.02.72.27.74.66.02.39-.27.72-.66.74-1.22.07-2.47.16-3.71.27-.02,0-.04,0-.06,0Zm18.7-.29s-.03,0-.04,0c-1.24-.07-2.49-.12-3.72-.15-.39-.01-.69-.33-.68-.72.01-.39.33-.71.72-.68,1.24.03,2.51.08,3.76.15.39.02.68.35.66.74-.02.37-.33.66-.7.66Zm-11.23-.14c-.38,0-.69-.3-.7-.68-.01-.39.29-.71.68-.72,1.24-.04,2.51-.06,3.76-.06h0c.39,0,.7.31.7.7,0,.39-.31.7-.7.7-1.24,0-2.49.02-3.72.06,0,0-.01,0-.02,0Z" style="fill: #16b596;"/>
          </g>
        </g>
      </g>
    </g>
  </g>
</svg>