<?xml version="1.0" encoding="utf-8"?>
<!-- Generator: Adobe Illustrator 27.5.0, SVG Export Plug-In . SVG Version: 6.00 Build 0)  -->
<svg version="1.1" id="_圖層_2" xmlns="http://www.w3.org/2000/svg" xmlns:xlink="http://www.w3.org/1999/xlink" x="0px" y="0px"
	 width="391.2px" height="391.2px" viewBox="0 0 391.2 391.2" style="enable-background:new 0 0 391.2 391.2;" xml:space="preserve"
	>
<style type="text/css">
	.st0{fill:#4FC32E;}
	.st1{opacity:0.1;enable-background:new    ;}
	.st2{opacity:0.15;fill:#FFFFFF;enable-background:new    ;}
	.st3{fill:#00FF51;}
	.st4{clip-path:url(#SVGID_00000149381438232643805440000008080018040321389725_);}
	.st5{clip-path:url(#SVGID_00000125580588383636278490000009782530019940631196_);}
	.st6{fill:#0078DB;}
	.st7{fill:url(#SVGID_00000165198159905114076230000006022169255968597390_);}
	.st8{fill:#3DDF73;}
	.st9{fill:url(#SVGID_00000137824718273761921190000003491446282782344632_);}
	.st10{fill:url(#SVGID_00000014600814647446807570000000136851636062851244_);}
	.st11{fill:#A1FAB3;}
	.st12{fill:url(#SVGID_00000053504470002818485290000004048647776301492389_);}
	.st13{fill:url(#SVGID_00000103973543308284777310000003932324355541830548_);}
	.st14{fill:url(#SVGID_00000022536466085027295890000004629967929712550528_);}
	.st15{fill:url(#SVGID_00000055685941190501102450000015386759707800168334_);}
	.st16{fill:url(#SVGID_00000086674126990958925230000008241636538112800442_);}
	.st17{fill:url(#SVGID_00000015339731853617760480000006165593918527008644_);}
	.st18{fill:url(#SVGID_00000121982021463652250060000007676975193986190250_);}
	.st19{fill:url(#SVGID_00000143612827069032699080000001879672345532402855_);}
	.st20{fill:url(#SVGID_00000118371435516234979050000012151110869550114746_);}
	.st21{fill:url(#SVGID_00000051362551528767426410000006157637414063814552_);}
	.st22{fill:url(#SVGID_00000183967413159129413380000011680139258061755804_);}
	.st23{fill:url(#SVGID_00000011727895802877779820000008210857560894049187_);}
	.st24{fill:url(#SVGID_00000001641039225450815190000004201911122457973180_);}
	.st25{fill:url(#SVGID_00000032616865242298066000000009043503743287622796_);}
	.st26{fill:url(#SVGID_00000088827872915150987050000017364672559723381149_);}
	.st27{fill:url(#SVGID_00000151539190947384004510000005235332068813290895_);}
	.st28{fill:url(#SVGID_00000183936774428262969760000002738396123502465167_);}
	.st29{fill:url(#SVGID_00000014598298098396647710000007863967802709076360_);}
	.st30{fill:url(#SVGID_00000083787550903344488400000016502431652303629479_);}
	.st31{fill:url(#SVGID_00000163771164474392209380000008922819195584798613_);}
	.st32{fill:url(#SVGID_00000045587168958170697320000005327286064190150831_);}
	.st33{fill:url(#SVGID_00000139260677422240742490000018109221993356194960_);}
	.st34{fill:url(#SVGID_00000036934476142345709640000000823605020556262020_);}
	.st35{fill:url(#SVGID_00000121979354329754065100000005229571947058708148_);}
	.st36{fill:url(#SVGID_00000183230630365359305940000018164410039078715541_);}
	.st37{fill:url(#SVGID_00000124855234371593353410000002853455723633423538_);}
	.st38{fill:url(#SVGID_00000099656875024489590860000015492040025114633633_);}
	.st39{fill:url(#SVGID_00000115503516766858357810000017525567971784724125_);}
	.st40{fill:url(#SVGID_00000049903068331725645170000012138330418006998690_);}
	.st41{fill:url(#SVGID_00000177447731443821885350000011952878078596493736_);}
	.st42{fill:url(#SVGID_00000084528406928423168500000005220466736574234009_);}
	.st43{fill:url(#SVGID_00000147219749182175692230000000462624011548802972_);}
	.st44{fill:url(#SVGID_00000130609334975879051260000012215433087771206284_);}
	.st45{fill:url(#SVGID_00000055694868318875129130000012160988419160808576_);}
	.st46{fill:url(#SVGID_00000070091275408504524690000009018645490857010081_);}
	.st47{fill:url(#SVGID_00000071537058438322638220000009746081973655450523_);}
	.st48{fill:url(#SVGID_00000181800962472716594450000004873369831814130050_);}
	.st49{fill:url(#SVGID_00000103255526515605276760000007309411999657919646_);}
	.st50{fill:url(#SVGID_00000161632749076154404910000005710354774328649094_);}
	.st51{fill:#FFFFFF;}
	.st52{fill:#001D40;}
</style>
<g>
	<g>
		<path class="st0" d="M391.3,1.9v180.8c0,80.8-73.3,146.2-163.8,146.2H25V148.1C25,67.4,98.3,1.9,188.8,1.9H391.3z"/>
	</g>
	<path class="st1" d="M391.3,67.8v114.8c0,80.8-73.3,146.2-163.8,146.2H25v-4.4C205.8,274.7,327.3,150.6,391.3,67.8z"/>
	<path class="st2" d="M391.3,1.9v3.4c-57.5,9.9-239.4,53-366.3,213.9v-71.1C25,67.4,98.3,1.9,188.8,1.9H391.3z"/>
</g>
<g>
	<g>
		<rect y="116.2" class="st0" width="25.5" height="275"/>
	</g>
</g>
<g>
	<g>
		<path id="SVGID_1_" class="st3" d="M181.6,299.8H56V162.3c0-69.1,56.5-125.6,125.6-125.6h56.1h125.6v137.6
			c0,69.1-56.5,125.6-125.6,125.6L181.6,299.8L181.6,299.8z"/>
	</g>
	<g>
		<defs>
			<path id="SVGID_00000107559149751215029590000000698502668279254443_" d="M181.6,299.8H56V162.3c0-69.1,56.5-125.6,125.6-125.6
				h56.1h125.6v137.6c0,69.1-56.5,125.6-125.6,125.6L181.6,299.8L181.6,299.8z"/>
		</defs>
		<clipPath id="SVGID_00000131351421154646888030000005550876457840791694_">
			<use xlink:href="#SVGID_00000107559149751215029590000000698502668279254443_"  style="overflow:visible;"/>
		</clipPath>
	</g>
	<g>
		<defs>
			<path id="SVGID_00000098198465865515943930000010729646277163610756_" d="M181.6,299.8H56V162.3c0-69.1,56.5-125.6,125.6-125.6
				h56.1h125.6v137.6c0,69.1-56.5,125.6-125.6,125.6L181.6,299.8L181.6,299.8z"/>
		</defs>
		<defs>
			<rect id="SVGID_00000003812446626023373980000016234627211720890298_" x="51" y="30" width="312.3" height="274"/>
		</defs>
		<clipPath id="SVGID_00000124154307480099240110000005140228368525484711_">
			<use xlink:href="#SVGID_00000098198465865515943930000010729646277163610756_"  style="overflow:visible;"/>
		</clipPath>
		
			<clipPath id="SVGID_00000043434835230105546740000003378209880965188764_" style="clip-path:url(#SVGID_00000124154307480099240110000005140228368525484711_);">
			<use xlink:href="#SVGID_00000003812446626023373980000016234627211720890298_"  style="overflow:visible;"/>
		</clipPath>
		<g style="clip-path:url(#SVGID_00000043434835230105546740000003378209880965188764_);">
			<rect x="-51.7" y="-78.2" class="st6" width="504.6" height="464.4"/>
			<g>
				<g>
					
						<linearGradient id="SVGID_00000173121018218181860940000011919604767944661661_" gradientUnits="userSpaceOnUse" x1="-729.7151" y1="2986.5815" x2="-750.4244" y2="3050.5366" gradientTransform="matrix(-0.9764 0.216 0.216 0.9764 -1150.9813 -2545.6973)">
						<stop  offset="0" style="stop-color:#05D065"/>
						<stop  offset="1" style="stop-color:#059055"/>
					</linearGradient>
					<path style="fill:url(#SVGID_00000173121018218181860940000011919604767944661661_);" d="M185.5,251.8
						c1.3-13.8,12.2-45,23.7-51.9c0.5-0.3,1-0.6,1.5-0.8c0.2-0.1,0.3-0.1,0.5-0.2c0,0,55.2,12.5,52.2,31.5c-0.1,0.4-0.1,0.8-0.2,1.1
						c0,0.2-0.1,0.3-0.1,0.4c-4.7,15.4-21.1-3.8-26.5,3.2c-5.5,7.1,31.6,20.6,27.2,31.5c0,0.1-0.1,0.2-0.1,0.3
						c-0.2,0.5-0.5,1-0.8,1.4c-5.1,6.6-18.4-5.9-20,3.2s18.6,28.4,3.7,35.8c-0.5,0.2-0.9,0.4-1.5,0.6c-0.7,0.3-1.4,0.5-2.1,0.7
						c-15.2,4.2-22.2-29.6-22.2-29.6s-3.1,17.9-12.4,16.4c-0.2,0-0.4-0.1-0.6-0.1c-0.3-0.1-0.6-0.2-0.9-0.3
						c-13-6.1,10.4-62-6.4-41.2c-5,6.2-9.1,9.1-11.7,8.7c-0.5-0.1-1-0.3-1.5-0.7C185.6,260.7,184.9,257.3,185.5,251.8z"/>
					<path class="st8" d="M188.6,262.8c0.3-0.7,0.6-1.4,0.9-2.1c2-4.6,4.1-9.2,6.3-13.8c2.5-5.2,5-10.5,7.6-15.7
						c2.2-4.4,4.3-8.8,6.5-13.2c0.7-1.4,1.4-2.9,2.1-4.3c0.4,1.7,0.8,3.4,1.3,5.1c2.3,8.8,4.9,17.4,7.8,26c-0.5,1.7-1,3.4-1.5,5.1
						c-1.2,4.2-2.4,8.3-3.6,12.5c-1.5,5.1-2.9,10.3-4.4,15.4c-1.3,4.6-2.6,9.2-3.9,13.8c-0.3,1.2-0.7,2.4-1,3.6
						c0.3,0.1,0.6,0.3,0.9,0.3c0.2,0.1,0.4,0.1,0.6,0.1c0.2-0.8,0.4-1.6,0.6-2.3c1.2-4.4,2.4-8.8,3.7-13.2
						c1.5-5.1,2.9-10.3,4.4-15.4c1.2-4.3,2.5-8.7,3.7-13c0.4-1.4,0.8-2.7,1.2-4.1c0.1,0.4,0.2,0.7,0.4,1.1c2.5,7.4,5,14.9,7.8,22.2
						c2.6,7,5.3,13.9,8.1,20.8c2.2,5.5,4.5,11.1,6.9,16.5c0.5-0.2,1-0.4,1.5-0.6c-2-4.4-3.8-8.9-5.7-13.4
						c-2.8-6.8-5.5-13.7-8.1-20.6c-2.5-6.6-4.8-13.2-7.1-19.9c-0.8-2.3-1.6-4.6-2.3-6.9c1.2,0.6,2.3,1.3,3.5,1.9
						c3.7,2,7.4,4.1,11.1,6.1c4.3,2.4,8.6,4.7,12.9,7.1c3.7,2,7.3,4,11,6.1c0.3,0.2,0.7,0.4,1,0.6c0.3-0.4,0.6-0.9,0.8-1.4
						c-3.5-1.9-6.9-3.8-10.4-5.8c-4.3-2.4-8.6-4.7-12.9-7.1c-3.8-2.1-7.7-4.2-11.5-6.3c-2.1-1.1-4.1-2.3-6.2-3.4l0,0
						c-2.2-6.6-4.3-13.2-6.1-20c-1.1-4.1-2.2-8.2-3.2-12.4c0.5,0.2,1.1,0.4,1.6,0.5c1.6,0.6,3.2,1.1,4.8,1.7
						c4.5,1.7,8.9,3.5,13.3,5.2c5,2,10,4.1,15,6.1c4.2,1.7,8.4,3.5,12.6,5.2c0.8,0.3,1.6,0.7,2.4,1c0-0.1,0.1-0.3,0.1-0.4
						c0.1-0.4,0.2-0.8,0.2-1.1c-0.4-0.2-0.8-0.3-1.1-0.5c-4-1.7-8-3.3-12-5c-5-2.1-10-4.1-15-6.1c-4.6-1.8-9.1-3.7-13.7-5.4
						c-2.8-1.1-5.6-2.2-8.5-3c-0.1,0-0.1,0-0.2-0.1c-0.8-3.7-1.6-7.5-2.2-11.3c-0.2-1.3-0.4-2.7-0.6-4c-0.1-0.6-0.2-1.2-0.2-1.7
						c0-0.3-0.1-0.7-0.1-1c0-0.1,0-0.2,0-0.3s0-0.1,0-0.1c0.8-0.1,0.8-1.5-0.1-1.6c-1-0.1-1.5,0.9-1.5,1.8c0,1.2,0.3,2.5,0.5,3.8
						s0.4,2.6,0.6,4c0.2,1.2,0.4,2.4,0.7,3.7c0.5,2.6,1,5.1,1.6,7.7c-0.8,1.6-1.6,3.1-2.3,4.7c-2.1,4.2-4.2,8.5-6.3,12.7
						c-2.6,5.2-5.1,10.5-7.6,15.8c-2.3,4.8-4.5,9.6-6.7,14.4c-0.5,1.1-0.9,2.1-1.4,3.2C187.6,262.5,188.1,262.7,188.6,262.8z
						 M209.6,192C209.7,191.9,209.7,192,209.6,192L209.6,192z"/>
				</g>
				<g>
					
						<linearGradient id="SVGID_00000070811352383341733780000009712199438758229435_" gradientUnits="userSpaceOnUse" x1="897.7517" y1="1530.1096" x2="877.0427" y2="1594.0647" gradientTransform="matrix(0.6089 0.7933 0.7933 -0.6089 -1492.1173 335.3917)">
						<stop  offset="0" style="stop-color:#05D065"/>
						<stop  offset="1" style="stop-color:#059055"/>
					</linearGradient>
					<path style="fill:url(#SVGID_00000070811352383341733780000009712199438758229435_);" d="M312.6,118.5c-13,4.6-45.9,8-57,0.4
						c-0.5-0.3-0.9-0.7-1.3-1c-0.1-0.1-0.3-0.2-0.4-0.4c0,0-12-55.3,6.5-60.7c0.4-0.1,0.7-0.2,1.1-0.3c0.2,0,0.3-0.1,0.5-0.1
						c15.9-2.3,5.5,20.7,14.1,22.6c8.7,2,5.3-37.4,17.1-38c0.1,0,0.2,0,0.3,0c0.6,0,1.1,0,1.6,0.1c8.1,1.8,2.5,19.2,11.4,16.7
						s17.9-28.9,30.8-18.5c0.4,0.3,0.8,0.7,1.2,1.1c0.5,0.5,1,1,1.5,1.6c10.3,12-17.4,32.7-17.4,32.7s17.6-4.7,20.1,4.3
						c0.1,0.2,0.1,0.4,0.1,0.6c0.1,0.3,0.1,0.7,0.1,1c0,14.4-60.5,16.8-34.6,23.2c7.8,1.9,12.1,4.4,12.8,7c0.2,0.5,0.1,1.1,0,1.6
						C320.6,114.6,317.8,116.6,312.6,118.5z"/>
					<path class="st8" d="M321.2,111c-0.8,0-1.5,0.1-2.3,0.1c-5,0.1-10.1,0.1-15.1,0.1c-5.8,0-11.6-0.1-17.4-0.2
						c-4.9-0.1-9.8-0.2-14.7-0.3c-1.6,0-3.2-0.1-4.8-0.1c1.4-1.1,2.7-2.2,4.1-3.3c7-5.8,13.7-11.8,20.3-18c1.8-0.3,3.5-0.6,5.3-0.8
						c4.3-0.7,8.6-1.4,12.9-2c5.3-0.8,10.5-1.7,15.8-2.5c4.7-0.8,9.4-1.5,14.1-2.3c1.2-0.2,2.4-0.4,3.7-0.6c0-0.3,0-0.7-0.1-1
						c0-0.2-0.1-0.4-0.1-0.6c-0.8,0.1-1.6,0.3-2.4,0.4c-4.5,0.8-9,1.5-13.5,2.3c-5.3,0.9-10.6,1.7-15.8,2.6
						c-4.5,0.7-8.9,1.4-13.4,2.1c-1.4,0.2-2.8,0.4-4.2,0.7c0.3-0.3,0.6-0.5,0.8-0.8c5.7-5.4,11.4-10.8,16.9-16.4
						c5.2-5.3,10.3-10.7,15.4-16.1c4.1-4.4,8.1-8.8,12-13.3c-0.4-0.4-0.8-0.8-1.2-1.1c-3.2,3.7-6.5,7.3-9.8,10.8
						c-5,5.4-10.1,10.8-15.2,16.1c-4.9,5.1-9.9,10-15,14.8c-1.7,1.7-3.5,3.3-5.2,5c0.1-1.3,0.2-2.7,0.3-4c0.3-4.2,0.6-8.4,0.8-12.6
						c0.3-4.9,0.7-9.8,1-14.7c0.3-4.2,0.6-8.3,0.9-12.5c0-0.4,0.1-0.8,0.1-1.2c-0.5-0.1-1-0.2-1.6-0.1c-0.3,4-0.5,7.9-0.8,11.9
						c-0.3,4.9-0.7,9.8-1,14.7c-0.3,4.4-0.6,8.7-0.9,13.1c-0.2,2.4-0.3,4.7-0.4,7.1l0,0c-5.1,4.8-10.2,9.5-15.5,14
						c-3.2,2.8-6.5,5.5-9.9,8.1c-0.1-0.6-0.1-1.1-0.2-1.7c-0.2-1.7-0.3-3.4-0.4-5.1c-0.4-4.8-0.6-9.5-0.9-14.3
						c-0.3-5.4-0.6-10.8-0.8-16.2c-0.2-4.5-0.4-9-0.6-13.6c0-0.9-0.1-1.7-0.1-2.6c-0.2,0-0.3,0-0.5,0.1c-0.4,0.1-0.8,0.2-1.1,0.3
						c0,0.4,0,0.8,0.1,1.2c0.2,4.3,0.4,8.6,0.6,13c0.2,5.4,0.5,10.8,0.8,16.1c0.3,4.9,0.5,9.8,0.9,14.7c0.2,3,0.3,6,0.9,8.9
						c0,0.1,0,0.1,0,0.2c-3,2.4-6.1,4.6-9.3,6.8c-1.1,0.8-2.3,1.5-3.4,2.3c-0.5,0.3-1,0.6-1.5,1c-0.3,0.2-0.6,0.4-0.8,0.5
						c-0.1,0-0.2,0.1-0.2,0.1l-0.1,0.1c-0.4-0.7-1.7-0.1-1.4,0.8c0.3,1,1.5,1,2.3,0.6c1.1-0.6,2.2-1.4,3.2-2.1
						c1.1-0.7,2.2-1.5,3.3-2.3c1-0.7,2-1.4,3-2.2c2.1-1.5,4.2-3.1,6.3-4.7c1.7,0,3.5,0.1,5.2,0.1c4.7,0.1,9.4,0.2,14.2,0.3
						c5.8,0.1,11.7,0.2,17.5,0.2c5.3,0,10.6,0.1,15.9-0.1c1.2,0,2.3-0.1,3.5-0.1C321.4,112,321.4,111.5,321.2,111z M248.2,121.9
						C248.1,121.9,248.2,121.8,248.2,121.9L248.2,121.9z"/>
				</g>
				<g>
					
						<linearGradient id="SVGID_00000167392313496099399350000016100437293905230761_" gradientUnits="userSpaceOnUse" x1="204.9375" y1="621.9015" x2="186.9811" y2="677.3551" gradientTransform="matrix(0.9915 0.1304 0.1304 -0.9915 -50.8894 690.0454)">
						<stop  offset="0" style="stop-color:#38B987"/>
						<stop  offset="0.9786" style="stop-color:#7EEA99"/>
					</linearGradient>
					<path style="fill:url(#SVGID_00000167392313496099399350000016100437293905230761_);" d="M262.2,74.6
						c-5.1,10.8-23.2,33-34.7,35.2c-0.5,0.1-1,0.2-1.5,0.2c-0.2,0-0.3,0-0.5,0c0,0-41.3-26.5-33.2-41.2c0.2-0.3,0.3-0.6,0.5-0.9
						c0.1-0.1,0.2-0.2,0.2-0.3c8.4-11.2,16.1,9.3,22.5,5.2c6.6-4.1-19.6-26.2-12.9-33.8c0.1-0.1,0.1-0.1,0.2-0.2
						c0.4-0.4,0.7-0.7,1.1-0.9c6.1-3.9,13.3,10.3,17.2,3.3c4-7-6.7-28.7,7.5-30.2c0.4-0.1,0.9-0.1,1.4-0.1c0.6,0,1.3,0,1.9,0.1
						c13.6,1,9.4,30.7,9.4,30.7s7.9-13.7,15-9.7c0.2,0.1,0.3,0.2,0.5,0.3c0.2,0.2,0.5,0.4,0.7,0.6c8.8,8.8-26.8,47.4-7,35.5
						c5.9-3.6,10.1-4.7,12.1-3.6c0.4,0.2,0.7,0.6,1,1C264.7,67.3,264.2,70.3,262.2,74.6z"/>
					<path class="st11" d="M262.9,64.7c-0.4,0.5-0.9,1-1.3,1.4c-3,3.2-6.1,6.3-9.2,9.3c-3.6,3.5-7.2,7-10.8,10.5
						c-3.1,3-6.1,5.9-9.2,8.8c-1,1-2,1.9-3,2.9c0.2-1.5,0.3-3,0.5-4.5c0.8-7.8,1.1-15.7,1.4-23.5c0.9-1.3,1.8-2.5,2.7-3.8
						c2.2-3,4.4-6.1,6.6-9.1c2.7-3.7,5.4-7.5,8.1-11.2c2.4-3.4,4.8-6.7,7.2-10.1c0.6-0.9,1.3-1.7,1.9-2.6c-0.2-0.2-0.4-0.4-0.7-0.6
						c-0.2-0.1-0.3-0.2-0.5-0.3c-0.4,0.6-0.8,1.2-1.2,1.7c-2.3,3.2-4.6,6.5-6.9,9.7c-2.7,3.8-5.4,7.5-8.1,11.3
						c-2.3,3.2-4.6,6.4-6.9,9.5c-0.7,1-1.5,2-2.2,3c0-0.3,0-0.7,0-1c0.2-6.8,0.3-13.6,0.3-20.4c-0.1-6.4-0.2-12.9-0.5-19.3
						c-0.2-5.2-0.4-10.4-0.8-15.5c-0.5,0-1,0-1.4,0.1c0.3,4.2,0.5,8.4,0.6,12.6c0.3,6.4,0.4,12.8,0.5,19.2
						c0.1,6.1,0.4,11.3,0.3,17.4c0,2.1-0.5,5.1-0.6,7.2c-0.8-0.9-1.5-1.7-2.3-2.6c-2.4-2.7-4.8-5.5-7.2-8.2
						c-2.8-3.2-5.6-6.4-8.4-9.6c-2.4-2.7-4.8-5.5-7.1-8.2c-0.2-0.3-0.4-0.5-0.7-0.8c-0.4,0.2-0.7,0.5-1.1,0.9
						c2.3,2.6,4.5,5.2,6.8,7.8c2.8,3.2,5.6,6.4,8.4,9.6c2.5,2.9,5,5.7,7.5,8.6c1.4,1.5,2.7,3.1,4.1,4.6l0,0
						c-0.2,6-0.4,12.1-0.9,18.1c-0.3,3.7-0.6,7.4-1.1,11c-0.4-0.3-0.8-0.6-1.1-0.9c-1.1-0.9-2.3-1.9-3.4-2.8
						c-3.1-2.7-6.2-5.4-9.3-8.2c-3.5-3.1-7-6.3-10.5-9.4c-2.9-2.6-5.8-5.3-8.7-7.9c-0.6-0.5-1.1-1-1.7-1.5c-0.1,0.1-0.2,0.2-0.2,0.3
						c-0.2,0.3-0.4,0.6-0.5,0.9c0.3,0.2,0.5,0.5,0.8,0.7c2.8,2.5,5.5,5.1,8.3,7.6c3.5,3.1,6.9,6.3,10.4,9.4c3.2,2.9,6.4,5.7,9.6,8.5
						c1.9,1.7,3.9,3.5,6,5c0.1,0,0.1,0.1,0.2,0.1c-0.4,3.3-0.9,6.6-1.5,9.9c-0.2,1.2-0.4,2.3-0.7,3.5c-0.1,0.5-0.2,1-0.3,1.5
						c-0.1,0.3-0.1,0.6-0.2,0.8c0,0.1-0.1,0.2-0.1,0.2v0.1c-0.7-0.2-1.1,1-0.4,1.4c0.8,0.4,1.5-0.3,1.8-1c0.3-1,0.5-2.2,0.7-3.2
						c0.2-1.1,0.4-2.3,0.6-3.4c0.2-1.1,0.4-2.1,0.5-3.2c0.4-2.2,0.7-4.5,1-6.8c1.1-1,2.2-2.1,3.3-3.1c3-2.8,5.9-5.6,8.9-8.5
						c3.6-3.5,7.3-7,10.9-10.6c3.3-3.2,6.5-6.5,9.7-9.8c0.7-0.7,1.4-1.5,2.1-2.2C263.6,65.3,263.3,64.9,262.9,64.7z M224.8,116.1
						C224.7,116.2,224.7,116.1,224.8,116.1L224.8,116.1z"/>
				</g>
				<g>
					<g>
						
							<linearGradient id="SVGID_00000165197259164312904170000008511608982691036347_" gradientUnits="userSpaceOnUse" x1="852.0195" y1="36.405" x2="852.0195" y2="157.167" gradientTransform="matrix(-0.4025 0.9154 -0.8465 -0.3722 524.5051 -615.3589)">
							<stop  offset="0" style="stop-color:#05D065"/>
							<stop  offset="1" style="stop-color:#059055"/>
						</linearGradient>
						<path style="fill:url(#SVGID_00000165197259164312904170000008511608982691036347_);" d="M81,146.1C51.2,129,30.2,98,30,94.2
							c13.9,2.7,28.6-1.6,42.8-0.6c14.1,1,26.7,8,38.2,16.1c30,21.2,36.4,42.9,37.2,49.9C148.2,159.6,120.2,168.7,81,146.1z"/>
					</g>
					<path class="st8" d="M122.9,119.2c-0.5-0.4-1-0.9-1.5-1.3l-1.6,27.9c-6.8-3.3-13.2-6.5-19.2-9.6l3-31.4c-0.5-0.3-1-0.6-1.5-0.9
						l-3,31.5c-8.6-4.5-16.4-8.8-23.4-12.7L73,93.6c-0.1,0-0.2,0-0.3,0c-0.4,0-0.9,0-1.3-0.1l2.7,28.2c-5-2.8-9.5-5.5-13.5-7.9
						c-14.9-9-25.2-16.1-30.1-19.6c-0.2,0-0.4-0.1-0.5-0.1c0,0.4,0.3,1.2,0.8,2.2c5,3.5,13.9,9.6,26.3,17.1l-9.4,5.3
						c0.4,0.4,0.7,0.8,1.1,1.2l9.8-5.6c0.4,0.2,0.8,0.5,1.1,0.7c9.9,6,22.9,13.4,38.4,21.6l-16.1,10c0.5,0.3,1.1,0.6,1.6,0.9
						l16.2-10c9.4,4.9,19.7,10,30.9,15.1c-2.2,1.4-7.1,4.6-11.7,7.5c0.8,0.1,1.6,0.2,2.4,0.4c4.1-2.6,8.4-5.4,11-7.1
						c4.7,2.1,9.5,4.3,14.5,6.4c0.8-0.2,1.3-0.3,1.3-0.3c0-0.3-0.1-0.6-0.1-0.9c-9.4-4.1-18.3-8.2-26.7-12.2L122.9,119.2z"/>
				</g>
				<g>
					<g>
						
							<linearGradient id="SVGID_00000067938313486718112630000011446695245499186306_" gradientUnits="userSpaceOnUse" x1="1577.198" y1="1067.6168" x2="1577.198" y2="1174.0127" gradientTransform="matrix(0.4141 0.9103 -0.8418 0.3829 398.6686 -1689.9282)">
							<stop  offset="0" style="stop-color:#38B987"/>
							<stop  offset="0.9786" style="stop-color:#7EEA99"/>
						</linearGradient>
						<path style="fill:url(#SVGID_00000067938313486718112630000011446695245499186306_);" d="M108.8,197.5
							c-28.7,9.5-61.5,5.1-64,3c10-7.5,15.7-19.7,24.7-28.4c8.9-8.7,21-12.8,33-15.6c31.6-7.3,49.5,1.3,54.6,4.8
							C157.2,161.3,146.7,185,108.8,197.5z"/>
					</g>
					<path class="st11" d="M115.8,154.2c-0.6,0.1-1.2,0.1-1.8,0.2l17.4,17.4c-6.1,2.5-12,4.8-17.6,7L95,158.4
						c-0.5,0.1-1,0.3-1.5,0.4l19,20.5c-8,3-15.4,5.6-22.1,7.9l-20.7-15.3c-0.1,0.1-0.1,0.1-0.2,0.2c-0.3,0.3-0.6,0.6-0.8,0.8
						l20.1,14.8c-4.8,1.6-9.2,3-13.1,4.2c-14.6,4.5-25.3,7.1-30.5,8.3c-0.1,0.1-0.2,0.2-0.4,0.3c0.3,0.2,0.9,0.5,1.9,0.8
						c5.2-1.2,14.5-3.5,26.7-7.2l-2,9.3c0.5,0,0.9,0,1.4,0l2.1-9.7c0.4-0.1,0.8-0.2,1.1-0.3c9.7-3,22.2-7.1,36.7-12.6l-2.9,16.4
						c0.5-0.2,1-0.3,1.5-0.5l2.9-16.5c8.7-3.3,18.1-7.1,28.1-11.4c-0.4,2.3-1.2,7.4-1.9,12.1c0.6-0.4,1.1-0.9,1.6-1.3
						c0.7-4.2,1.4-8.7,1.8-11.4c4.2-1.8,8.4-3.7,12.7-5.7c0.4-0.7,0.5-1,0.5-1c-0.2-0.1-0.4-0.3-0.6-0.4
						c-8.2,3.8-16.1,7.2-23.7,10.4L115.8,154.2z"/>
				</g>
				<g>
					<g>
						
							<linearGradient id="SVGID_00000169550192777909379700000014489289176452192702_" gradientUnits="userSpaceOnUse" x1="196.6721" y1="-565.0797" x2="196.6721" y2="-458.6837" gradientTransform="matrix(-0.9103 0.4141 -0.3829 -0.8418 113.6634 -403.3873)">
							<stop  offset="0" style="stop-color:#38B987"/>
							<stop  offset="0.9786" style="stop-color:#7EEA99"/>
						</linearGradient>
						<path style="fill:url(#SVGID_00000169550192777909379700000014489289176452192702_);" d="M108.1,109.5
							c-9.5-28.7-5.1-61.5-3-64c7.5,10,19.7,15.7,28.4,24.7c8.7,8.9,12.8,21,15.6,33c7.3,31.6-1.3,49.5-4.8,54.6
							C144.3,157.9,120.6,147.4,108.1,109.5z"/>
					</g>
					<path class="st11" d="M151.4,116.5c-0.1-0.6-0.1-1.2-0.2-1.8l-17.4,17.4c-2.5-6.1-4.8-12-7-17.6l20.4-18.9
						c-0.1-0.5-0.3-1-0.4-1.5l-20.5,19c-3-8-5.6-15.4-7.9-22.1l15.3-20.7c-0.1-0.1-0.1-0.1-0.2-0.2c-0.3-0.3-0.6-0.6-0.8-0.8
						l-14.8,20.1c-1.6-4.8-3-9.2-4.2-13.1c-4.5-14.6-7.1-25.3-8.3-30.5c-0.1-0.1-0.2-0.2-0.3-0.4c-0.2,0.3-0.5,0.9-0.8,1.9
						c1.2,5.2,3.5,14.5,7.2,26.7l-9.3-2c0,0.5,0,0.9,0,1.4l9.7,2.1c0.1,0.4,0.2,0.8,0.3,1.1c3,9.7,7.1,22.2,12.6,36.7l-16.4-2.9
						c0.2,0.5,0.3,1,0.5,1.5l16.5,2.9c3.3,8.7,7.1,18.1,11.4,28.1c-2.3-0.4-7.4-1.2-12.1-1.9c0.4,0.6,0.9,1.1,1.3,1.6
						c4.2,0.7,8.7,1.4,11.4,1.8c1.8,4.2,3.7,8.4,5.7,12.7c0.7,0.4,1,0.5,1,0.5c0.1-0.2,0.3-0.4,0.4-0.6c-3.8-8.2-7.2-16.1-10.4-23.7
						L151.4,116.5z"/>
				</g>
				<g>
					
						<linearGradient id="SVGID_00000115516733258880934950000013732786040253286788_" gradientUnits="userSpaceOnUse" x1="-3038.7717" y1="657.2468" x2="-3074.2893" y2="725.0529" gradientTransform="matrix(0.2283 -0.9736 -0.9736 -0.2283 1476.4261 -2564.4441)">
						<stop  offset="0" style="stop-color:#05D065"/>
						<stop  offset="1" style="stop-color:#059055"/>
					</linearGradient>
					<path style="fill:url(#SVGID_00000115516733258880934950000013732786040253286788_);" d="M70.3,261.2
						c12.8,2.4,26.1,1.7,38.7-1.2c12.4-2.9,24.2-8.1,35.1-14.6c6.1-3.6,11.9-7.7,17.4-12.1c0.7-0.5-0.1-1.6-0.7-1.1
						c-9.8,7.7-20.5,14.5-31.9,19.6c-11.6,5.2-24.1,8.6-36.8,9.4c-7.2,0.5-14.5,0.1-21.6-1.3C69.7,259.8,69.4,261,70.3,261.2
						L70.3,261.2z"/>
					
						<linearGradient id="SVGID_00000019643717091912801940000010133388585586334892_" gradientUnits="userSpaceOnUse" x1="-3057.6687" y1="647.3478" x2="-3093.1843" y2="715.1505" gradientTransform="matrix(0.2283 -0.9736 -0.9736 -0.2283 1476.4261 -2564.4441)">
						<stop  offset="0" style="stop-color:#05D065"/>
						<stop  offset="1" style="stop-color:#059055"/>
					</linearGradient>
					<path style="fill:url(#SVGID_00000019643717091912801940000010133388585586334892_);" d="M143.6,245.2c0,0-21.6,18.8-16.9,45.7
						C126.7,290.9,150.2,278.1,143.6,245.2z"/>
					
						<linearGradient id="SVGID_00000041257469232403093360000015042427259883941793_" gradientUnits="userSpaceOnUse" x1="-3059.8538" y1="646.2045" x2="-3095.3696" y2="714.0076" gradientTransform="matrix(0.2283 -0.9736 -0.9736 -0.2283 1476.4261 -2564.4441)">
						<stop  offset="0" style="stop-color:#05D065"/>
						<stop  offset="1" style="stop-color:#059055"/>
					</linearGradient>
					<path style="fill:url(#SVGID_00000041257469232403093360000015042427259883941793_);" d="M123.5,255.3c0,0-22.2,15.9-20.2,41.8
						C103.3,297.2,126.8,287.2,123.5,255.3z"/>
					
						<linearGradient id="SVGID_00000094584713676834041360000004436584490999159696_" gradientUnits="userSpaceOnUse" x1="-3023.752" y1="665.1127" x2="-3059.2715" y2="732.9229" gradientTransform="matrix(0.2283 -0.9736 -0.9736 -0.2283 1476.4261 -2564.4441)">
						<stop  offset="0" style="stop-color:#05D065"/>
						<stop  offset="1" style="stop-color:#059055"/>
					</linearGradient>
					<path style="fill:url(#SVGID_00000094584713676834041360000004436584490999159696_);" d="M123.6,254.1c0,0-2.6-27.2-26.1-38.5
						C97.6,215.7,94.4,241.1,123.6,254.1z"/>
					
						<linearGradient id="SVGID_00000070093969889028956970000017549302289694053046_" gradientUnits="userSpaceOnUse" x1="-3020.8667" y1="666.6255" x2="-3056.3867" y2="734.436" gradientTransform="matrix(0.2283 -0.9736 -0.9736 -0.2283 1476.4261 -2564.4441)">
						<stop  offset="0" style="stop-color:#05D065"/>
						<stop  offset="1" style="stop-color:#059055"/>
					</linearGradient>
					<path style="fill:url(#SVGID_00000070093969889028956970000017549302289694053046_);" d="M145.2,244c0,0-5.9-26.7-30.6-35
						C114.6,209,114.6,234.6,145.2,244z"/>
					
						<linearGradient id="SVGID_00000049182036717689882810000006055913953757431219_" gradientUnits="userSpaceOnUse" x1="-3056.0713" y1="648.1866" x2="-3091.5874" y2="715.9901" gradientTransform="matrix(0.2283 -0.9736 -0.9736 -0.2283 1476.4261 -2564.4441)">
						<stop  offset="0" style="stop-color:#05D065"/>
						<stop  offset="1" style="stop-color:#059055"/>
					</linearGradient>
					<path style="fill:url(#SVGID_00000049182036717689882810000006055913953757431219_);" d="M101.6,260.5c0,0-20.5,11.6-21.1,34.1
						C80.5,294.6,101.6,288.1,101.6,260.5z"/>
					
						<linearGradient id="SVGID_00000115516133402411593080000008723071093117421211_" gradientUnits="userSpaceOnUse" x1="-3027.3167" y1="663.2447" x2="-3062.8359" y2="731.0541" gradientTransform="matrix(0.2283 -0.9736 -0.9736 -0.2283 1476.4261 -2564.4441)">
						<stop  offset="0" style="stop-color:#05D065"/>
						<stop  offset="1" style="stop-color:#059055"/>
					</linearGradient>
					<path style="fill:url(#SVGID_00000115516133402411593080000008723071093117421211_);" d="M105.3,260.2c0,0-0.9-23.6-20.5-34.4
						C84.8,225.8,80.8,247.5,105.3,260.2z"/>
					
						<linearGradient id="SVGID_00000007422845815668491390000012699825356816533931_" gradientUnits="userSpaceOnUse" x1="-3048.6208" y1="652.0881" x2="-3084.1382" y2="719.8935" gradientTransform="matrix(0.2283 -0.9736 -0.9736 -0.2283 1476.4261 -2564.4441)">
						<stop  offset="0" style="stop-color:#05D065"/>
						<stop  offset="1" style="stop-color:#059055"/>
					</linearGradient>
					<path style="fill:url(#SVGID_00000007422845815668491390000012699825356816533931_);" d="M87.1,262.8c0,0-22.4,2-31.8,21.2
						C55.3,284,76.2,286.7,87.1,262.8z"/>
					
						<linearGradient id="SVGID_00000089551155406391121260000002011545625315203226_" gradientUnits="userSpaceOnUse" x1="-3025.3472" y1="664.2746" x2="-3060.8669" y2="732.0849" gradientTransform="matrix(0.2283 -0.9736 -0.9736 -0.2283 1476.4261 -2564.4441)">
						<stop  offset="0" style="stop-color:#05D065"/>
						<stop  offset="1" style="stop-color:#059055"/>
					</linearGradient>
					<path style="fill:url(#SVGID_00000089551155406391121260000002011545625315203226_);" d="M85.1,261.9c0,0-2-22.4-21.2-31.8
						C63.8,230.1,61.1,251,85.1,261.9z"/>
					
						<linearGradient id="SVGID_00000159454104126493259460000006081654120350035851_" gradientUnits="userSpaceOnUse" x1="-3030.019" y1="661.8297" x2="-3065.5374" y2="729.6373" gradientTransform="matrix(0.2283 -0.9736 -0.9736 -0.2283 1476.4261 -2564.4441)">
						<stop  offset="0" style="stop-color:#05D065"/>
						<stop  offset="1" style="stop-color:#059055"/>
					</linearGradient>
					<path style="fill:url(#SVGID_00000159454104126493259460000006081654120350035851_);" d="M74,261.7c0,0-15.9-15.9-36.7-10.8
						C37.4,250.9,48.6,268.6,74,261.7z"/>
				</g>
				<g>
					
						<linearGradient id="SVGID_00000031167792523654133420000013042310932554826391_" gradientUnits="userSpaceOnUse" x1="-2369.5818" y1="30.1214" x2="-2403.385" y2="94.6544" gradientTransform="matrix(-0.9999 -1.540000e-02 1.540000e-02 -0.9999 -2071.0095 208.9804)">
						<stop  offset="0" style="stop-color:#05D065"/>
						<stop  offset="1" style="stop-color:#059055"/>
					</linearGradient>
					<path style="fill:url(#SVGID_00000031167792523654133420000013042310932554826391_);" d="M331.4,152.4
						c-0.7,12.4-4.4,24.5-10.1,35.5c-5.6,10.8-13.1,20.5-21.6,29c-4.8,4.8-9.9,9.2-15.2,13.3c-0.6,0.5-1.5-0.4-0.8-0.9
						c9.4-7.3,18.1-15.5,25.5-24.9c7.5-9.5,13.5-20.2,17.2-31.8c2.1-6.6,3.4-13.4,3.8-20.2C330.2,151.5,331.5,151.6,331.4,152.4
						L331.4,152.4z"/>
					
						<linearGradient id="SVGID_00000030448457479717655280000013277306800965491390_" gradientUnits="userSpaceOnUse" x1="-2387.4866" y1="20.7424" x2="-2421.2874" y2="85.2712" gradientTransform="matrix(-0.9999 -1.540000e-02 1.540000e-02 -0.9999 -2071.0095 208.9804)">
						<stop  offset="0" style="stop-color:#05D065"/>
						<stop  offset="1" style="stop-color:#059055"/>
					</linearGradient>
					<path style="fill:url(#SVGID_00000030448457479717655280000013277306800965491390_);" d="M299.6,216.3c0,0,22.4-15.6,46.1-5
						C345.7,211.3,328.5,230.1,299.6,216.3z"/>
					
						<linearGradient id="SVGID_00000139283123031385839160000015823220719417434269_" gradientUnits="userSpaceOnUse" x1="-2389.6714" y1="19.5989" x2="-2423.4727" y2="84.1285" gradientTransform="matrix(-0.9999 -1.540000e-02 1.540000e-02 -0.9999 -2071.0095 208.9804)">
						<stop  offset="0" style="stop-color:#05D065"/>
						<stop  offset="1" style="stop-color:#059055"/>
					</linearGradient>
					<path style="fill:url(#SVGID_00000139283123031385839160000015823220719417434269_);" d="M313.7,200.1c0,0,19.8-16.9,43.3-9
						C357,191.2,342.3,210.6,313.7,200.1z"/>
					
						<linearGradient id="SVGID_00000089547923675940600160000016777179349729802886_" gradientUnits="userSpaceOnUse" x1="-2355.2886" y1="37.6066" x2="-2389.094" y2="102.1441" gradientTransform="matrix(-0.9999 -1.540000e-02 1.540000e-02 -0.9999 -2071.0095 208.9804)">
						<stop  offset="0" style="stop-color:#05D065"/>
						<stop  offset="1" style="stop-color:#059055"/>
					</linearGradient>
					<path style="fill:url(#SVGID_00000089547923675940600160000016777179349729802886_);" d="M312.5,200c0,0-24.5-8.7-29.5-33
						C283.1,167,307.2,170,312.5,200z"/>
					
						<linearGradient id="SVGID_00000167396570434062797880000006660482125046437277_" gradientUnits="userSpaceOnUse" x1="-2352.5813" y1="39.0264" x2="-2386.3867" y2="103.5642" gradientTransform="matrix(-0.9999 -1.540000e-02 1.540000e-02 -0.9999 -2071.0095 208.9804)">
						<stop  offset="0" style="stop-color:#05D065"/>
						<stop  offset="1" style="stop-color:#059055"/>
					</linearGradient>
					<path style="fill:url(#SVGID_00000167396570434062797880000006660482125046437277_);" d="M298.2,217.6c0,0-23.3-11.6-25.2-36.3
						C273,181.2,296.6,187.2,298.2,217.6z"/>
					
						<linearGradient id="SVGID_00000041284594100586333120000000106757755497809544_" gradientUnits="userSpaceOnUse" x1="-2386.0308" y1="21.5067" x2="-2419.8323" y2="86.037" gradientTransform="matrix(-0.9999 -1.540000e-02 1.540000e-02 -0.9999 -2071.0095 208.9804)">
						<stop  offset="0" style="stop-color:#05D065"/>
						<stop  offset="1" style="stop-color:#059055"/>
					</linearGradient>
					<path style="fill:url(#SVGID_00000041284594100586333120000000106757755497809544_);" d="M323.5,181.2c0,0,15.5-16.3,36.3-11.6
						C359.9,169.6,349,187.6,323.5,181.2z"/>
					
						<linearGradient id="SVGID_00000095318016547612564120000003100004231143375241_" gradientUnits="userSpaceOnUse" x1="-2358.6597" y1="35.8395" x2="-2392.4651" y2="100.3768" gradientTransform="matrix(-0.9999 -1.540000e-02 1.540000e-02 -0.9999 -2071.0095 208.9804)">
						<stop  offset="0" style="stop-color:#05D065"/>
						<stop  offset="1" style="stop-color:#059055"/>
					</linearGradient>
					<path style="fill:url(#SVGID_00000095318016547612564120000003100004231143375241_);" d="M322.4,184.5c0,0-21.6-6.3-27.1-26.9
						C295.4,157.6,316.3,158.9,322.4,184.5z"/>
					
						<linearGradient id="SVGID_00000059310147265587637510000000469205961565330345_" gradientUnits="userSpaceOnUse" x1="-2378.9705" y1="25.2043" x2="-2412.7729" y2="89.7363" gradientTransform="matrix(-0.9999 -1.540000e-02 1.540000e-02 -0.9999 -2071.0095 208.9804)">
						<stop  offset="0" style="stop-color:#05D065"/>
						<stop  offset="1" style="stop-color:#059055"/>
					</linearGradient>
					<path style="fill:url(#SVGID_00000059310147265587637510000000469205961565330345_);" d="M329,168.3c0,0,7-20.2,27-24.4
						C355.9,143.9,353.6,163.8,329,168.3z"/>
					
						<linearGradient id="SVGID_00000129196615911148636340000012349604349031649456_" gradientUnits="userSpaceOnUse" x1="-2356.8496" y1="36.7863" x2="-2390.655" y2="101.3237" gradientTransform="matrix(-0.9999 -1.540000e-02 1.540000e-02 -0.9999 -2071.0095 208.9804)">
						<stop  offset="0" style="stop-color:#05D065"/>
						<stop  offset="1" style="stop-color:#059055"/>
					</linearGradient>
					<path style="fill:url(#SVGID_00000129196615911148636340000012349604349031649456_);" d="M328.7,166.2c0,0-20.2-7-24.4-27
						C304.2,139.3,324.1,141.6,328.7,166.2z"/>
					
						<linearGradient id="SVGID_00000000223300913892292080000018445748094111111065_" gradientUnits="userSpaceOnUse" x1="-2361.271" y1="34.472" x2="-2395.0752" y2="99.007" gradientTransform="matrix(-0.9999 -1.540000e-02 1.540000e-02 -0.9999 -2071.0095 208.9804)">
						<stop  offset="0" style="stop-color:#05D065"/>
						<stop  offset="1" style="stop-color:#059055"/>
					</linearGradient>
					<path style="fill:url(#SVGID_00000000223300913892292080000018445748094111111065_);" d="M331,156c0,0-11-18.4-1.5-36.3
						C329.5,119.6,343.3,134.1,331,156z"/>
				</g>
			</g>
			<g>
				
					<linearGradient id="SVGID_00000138538416639328590890000011602361341258758044_" gradientUnits="userSpaceOnUse" x1="249.115" y1="134.7895" x2="162.885" y2="299.4105" gradientTransform="matrix(1 0 0 -1 0 394)">
					<stop  offset="0" style="stop-color:#38B987"/>
					<stop  offset="0.9786" style="stop-color:#7EEA99"/>
				</linearGradient>
				<circle style="fill:url(#SVGID_00000138538416639328590890000011602361341258758044_);" cx="206" cy="176.9" r="92.9"/>
				<g>
					
						<linearGradient id="SVGID_00000110457850708654740940000002437732422931238326_" gradientUnits="userSpaceOnUse" x1="261.9534" y1="118.1041" x2="144.8471" y2="215.8044" gradientTransform="matrix(1 0 0 -1 0 394)">
						<stop  offset="0" style="stop-color:#013568"/>
						<stop  offset="1" style="stop-color:#007064"/>
					</linearGradient>
					<path style="fill:url(#SVGID_00000110457850708654740940000002437732422931238326_);" d="M193,240c0.2-8.8,7.4-5.1,10.8-18.4
						c3.5-13.3-13.7,0-16.1-10.2c-2.5-10.2-12.9-3.7-18.2-13.5s-7.2,3.1-25.7,1.2c-18.6-1.8-21.2-17.8-5.1-16.1
						c16.1,1.6,13.7-18,29.4-21.7s6.7-8.4,0.6-25.1c-6.1-16.8-9.2-13.7-25.3-8c-8.2,2.9-11.9-0.4-13.6-4.4
						c-10.5,15-16.6,33.3-16.6,53c0,7.8,1,15.4,2.8,22.7c6.2,3.5,14.1,8.4,20,13.9c11.6,10.8,4.5,15.9,15.1,23.5
						c6.5,4.7,5,11.5,2.9,16.9c6.6,4.5,13.9,8.2,21.6,10.8c2.3-6.2,4.2-12.9,4.7-14.4C181.3,247.2,192.8,248.8,193,240z"/>
					
						<linearGradient id="SVGID_00000004525837961524050430000004475674926908534200_" gradientUnits="userSpaceOnUse" x1="299.5157" y1="163.1459" x2="182.4239" y2="260.834" gradientTransform="matrix(1 0 0 -1 0 394)">
						<stop  offset="0" style="stop-color:#013568"/>
						<stop  offset="1" style="stop-color:#007064"/>
					</linearGradient>
					<path style="fill:url(#SVGID_00000004525837961524050430000004475674926908534200_);" d="M298.9,176.9
						c0-42.6-28.7-78.5-67.9-89.4c-1.4,3.1-9.4,21.2-2.6,25.3c7.4,4.5,16.5-4.7,19.6,0.4s-20.4,8.6-14.7,21
						c5.7,12.5,27.6-1,29.6,10.2s2.9,21-18.6,11.6s-26.8-11.2-35.3,0.2c-8.6,11.4-34.3,24.1-11,32.3s33.1,2.5,30.2,14.1
						s-13.5,13.7-2.7,19c7.2,3.6-0.9,30,1.6,45.7C268.2,257.7,298.9,220.9,298.9,176.9z"/>
					
						<linearGradient id="SVGID_00000137117191128109652390000000273534034214553474_" gradientUnits="userSpaceOnUse" x1="319.4035" y1="186.9657" x2="202.2968" y2="284.6663" gradientTransform="matrix(1 0 0 -1 0 394)">
						<stop  offset="0" style="stop-color:#013568"/>
						<stop  offset="1" style="stop-color:#007064"/>
					</linearGradient>
					<path style="fill:url(#SVGID_00000137117191128109652390000000273534034214553474_);" d="M170.5,102.5
						c-1.4,11,5.5,37.2,20.8,31.5c9.6-3.6,27.9-30.1,32.1-48.3C217.8,84.6,212,84,206,84c-14,0-27.3,3.1-39.3,8.7
						C169.2,95.1,171.1,98.3,170.5,102.5z"/>
				</g>
			</g>
			<g>
				
					<linearGradient id="SVGID_00000103251129933448006070000013014754681592777393_" gradientUnits="userSpaceOnUse" x1="-1785.0521" y1="112.768" x2="-1819.5659" y2="178.6578" gradientTransform="matrix(-1 0 0 -1 -1509.4897 394)">
					<stop  offset="0" style="stop-color:#38B987"/>
					<stop  offset="0.9786" style="stop-color:#7EEA99"/>
				</linearGradient>
				<path style="fill:url(#SVGID_00000103251129933448006070000013014754681592777393_);" d="M250.9,239.3c2.3-0.1,4.9,0.4,7.7,1.9
					c2.6-7.8,9.9-13.3,18.6-13.3c0.7,0,1.5,0,2.2,0.1c3.7-8.4,12.1-14.2,21.8-14.2c12.9,0,23.3,10.2,23.8,22.9
					c7.2-1.8,13.2,0.5,17,4.4c3.6,3.7,0.9,10-4.3,10h-86.5C243.7,251.1,243.3,239.6,250.9,239.3z"/>
				
					<linearGradient id="SVGID_00000128457554872058583560000006562533768976053139_" gradientUnits="userSpaceOnUse" x1="-1588.3564" y1="313.6609" x2="-1623.478" y2="380.7112" gradientTransform="matrix(-1 0 0 -1 -1509.4897 394)">
					<stop  offset="0" style="stop-color:#38B987"/>
					<stop  offset="0.9786" style="stop-color:#7EEA99"/>
				</linearGradient>
				<path style="fill:url(#SVGID_00000128457554872058583560000006562533768976053139_);" d="M53.7,37.6c2.3-0.1,5,0.5,7.9,1.9
					C64.2,31.7,71.7,26,80.5,26c0.8,0,1.5,0,2.2,0.1c3.8-8.5,12.3-14.4,22.2-14.4c13.1,0,23.7,10.3,24.3,23.3
					c7.3-1.8,13.5,0.5,17.3,4.5c3.7,3.8,0.9,10.2-4.3,10.2h-88C46.4,49.6,46,38,53.7,37.6z"/>
				
					<linearGradient id="SVGID_00000009559168024411655970000005596879416390434694_" gradientUnits="userSpaceOnUse" x1="-645.9706" y1="374.5318" x2="-678.2805" y2="436.2142" gradientTransform="matrix(1 0 0 -1 904.6847 394)">
					<stop  offset="0" style="stop-color:#38B987"/>
					<stop  offset="0.9786" style="stop-color:#7EEA99"/>
				</linearGradient>
				<path style="fill:url(#SVGID_00000009559168024411655970000005596879416390434694_);" d="M281.8-19.8c-2.1-0.1-4.6,0.4-7.3,1.8
					c-2.4-7.3-9.3-12.5-17.4-12.5c-0.7,0-1.4,0-2,0.1c-3.5-7.8-11.3-13.3-20.4-13.3c-12,0-21.8,9.5-22.3,21.4
					c-6.8-1.7-12.4,0.5-15.9,4.1c-3.4,3.5-0.9,9.3,4,9.3h81C288.5-8.8,288.9-19.5,281.8-19.8z"/>
				
					<linearGradient id="SVGID_00000176023267233199221690000010018638078902760072_" gradientUnits="userSpaceOnUse" x1="156.325" y1="318.7068" x2="161.0986" y2="327.8201" gradientTransform="matrix(1 0 0 -1 0 394)">
					<stop  offset="0" style="stop-color:#05D065"/>
					<stop  offset="1" style="stop-color:#059055"/>
				</linearGradient>
				<polygon style="fill:url(#SVGID_00000176023267233199221690000010018638078902760072_);" points="160.2,59.9 163,65 168.1,67.8 
					163,70.6 160.2,75.7 157.4,70.6 152.4,67.8 157.4,65 				"/>
				
					<linearGradient id="SVGID_00000103956846370856303190000017956952607808895932_" gradientUnits="userSpaceOnUse" x1="50.9796" y1="229.2475" x2="54.8348" y2="236.6074" gradientTransform="matrix(1 0 0 -1 0 394)">
					<stop  offset="0" style="stop-color:#05D065"/>
					<stop  offset="1" style="stop-color:#059055"/>
				</linearGradient>
				<polygon style="fill:url(#SVGID_00000103956846370856303190000017956952607808895932_);" points="54.1,152.3 56.4,156.5 
					60.5,158.7 56.4,160.9 54.1,165.1 51.9,160.9 47.8,158.7 51.9,156.5 				"/>
				
					<linearGradient id="SVGID_00000016783863847013009570000006002812038068415393_" gradientUnits="userSpaceOnUse" x1="203.277" y1="89.6424" x2="207.1321" y2="97.0023" gradientTransform="matrix(1 0 0 -1 0 394)">
					<stop  offset="0" style="stop-color:#05D065"/>
					<stop  offset="1" style="stop-color:#059055"/>
				</linearGradient>
				<polygon style="fill:url(#SVGID_00000016783863847013009570000006002812038068415393_);" points="206.4,292 208.7,296.1 
					212.8,298.3 208.7,300.6 206.4,304.7 204.2,300.6 200.1,298.3 204.2,296.1 				"/>
				
					<linearGradient id="SVGID_00000026867882939816878220000016381349860477963947_" gradientUnits="userSpaceOnUse" x1="338.3914" y1="274.7701" x2="342.2466" y2="282.1299" gradientTransform="matrix(1 0 0 -1 0 394)">
					<stop  offset="0" style="stop-color:#05D065"/>
					<stop  offset="1" style="stop-color:#059055"/>
				</linearGradient>
				<polygon style="fill:url(#SVGID_00000026867882939816878220000016381349860477963947_);" points="341.6,106.8 343.8,110.9 
					347.9,113.2 343.8,115.4 341.6,119.5 339.3,115.4 335.2,113.2 339.3,110.9 				"/>
				
					<linearGradient id="SVGID_00000014603572027790919490000017018504933063968687_" gradientUnits="userSpaceOnUse" x1="158.3382" y1="108.4456" x2="160.5875" y2="112.7399" gradientTransform="matrix(1 0 0 -1 0 394)">
					<stop  offset="0" style="stop-color:#05D065"/>
					<stop  offset="1" style="stop-color:#059055"/>
				</linearGradient>
				<polygon style="fill:url(#SVGID_00000014603572027790919490000017018504933063968687_);" points="160.2,278.3 161.5,280.7 
					163.9,282 161.5,283.4 160.2,285.8 158.9,283.4 156.5,282 158.9,280.7 				"/>
				
					<linearGradient id="SVGID_00000036935694276162390950000000495786778876106407_" gradientUnits="userSpaceOnUse" x1="79.5283" y1="391.6177" x2="81.7037" y2="395.7706" gradientTransform="matrix(1 0 0 -1 0 394)">
					<stop  offset="0" style="stop-color:#05D065"/>
					<stop  offset="1" style="stop-color:#059055"/>
				</linearGradient>
				<circle style="fill:url(#SVGID_00000036935694276162390950000000495786778876106407_);" cx="81.3" cy="-1" r="3.2"/>
				
					<linearGradient id="SVGID_00000034776672655794786100000005755321945833347508_" gradientUnits="userSpaceOnUse" x1="355.1359" y1="319.6321" x2="357.3112" y2="323.785" gradientTransform="matrix(1 0 0 -1 0 394)">
					<stop  offset="0" style="stop-color:#05D065"/>
					<stop  offset="1" style="stop-color:#059055"/>
				</linearGradient>
				<path style="fill:url(#SVGID_00000034776672655794786100000005755321945833347508_);" d="M360.1,71c0,1.8-1.4,3.2-3.2,3.2
					c-1.8,0-3.2-1.4-3.2-3.2s1.4-3.2,3.2-3.2S360.1,69.2,360.1,71z"/>
				
					<linearGradient id="SVGID_00000029761489816179520000000014532179647339374977_" gradientUnits="userSpaceOnUse" x1="274.1149" y1="115.4102" x2="276.5622" y2="120.0823" gradientTransform="matrix(1 0 0 -1 0 394)">
					<stop  offset="0" style="stop-color:#38B987"/>
					<stop  offset="0.9786" style="stop-color:#7EEA99"/>
				</linearGradient>
				<path style="fill:url(#SVGID_00000029761489816179520000000014532179647339374977_);" d="M279.7,274.8c0,2-1.6,3.6-3.6,3.6
					s-3.6-1.6-3.6-3.6s1.6-3.6,3.6-3.6C278.1,271.2,279.7,272.8,279.7,274.8z"/>
				
					<linearGradient id="SVGID_00000104676588290483594130000014081135303135485102_" gradientUnits="userSpaceOnUse" x1="72.0686" y1="316.6581" x2="73.7001" y2="319.7729" gradientTransform="matrix(1 0 0 -1 0 394)">
					<stop  offset="0" style="stop-color:#05D065"/>
					<stop  offset="1" style="stop-color:#059055"/>
				</linearGradient>
				<circle style="fill:url(#SVGID_00000104676588290483594130000014081135303135485102_);" cx="73.4" cy="74.8" r="2.4"/>
			</g>
			<g>
				<g>
					<g>
						<path class="st51" d="M200.9,224.8c-3.4-0.1-7.2-0.1-11.7-0.1c-2.8,0-5.6,0-8.4,0c-2.8,0-5.6,0-8.4,0h-0.5
							c-5.4,0-10.3-4.9-10.3-10.3v-29.7l0.3,0.3c2.7,2.8,5.5,4.4,8.6,4.9c0.1,0,0.1,0,0.2,0.1c2.4,0.5,2.4,0.6,2.4,2.9
							c0,0,0,13.2,0,17.4c0,2,0.7,2.7,2.7,2.8l5.6,0.1c4.9,0,10,0.1,15,0.2l0,0c1.5,0,2.8-1.2,2.8-2.5c0.1-2.1,0.1-4.2,0.1-6.3
							c0-0.8,0-1.7,0-2.6h-7.9l14-14l13.6,13.9h-7.8v1.1c0,0.9,0,1.7,0,2.5c0,1.2,0.1,2.4,0.1,3.7c0.1,1.7,0.1,3.3,0.1,5
							c0.1,2.7-1.1,5.5-3.1,7.5S203.7,224.8,200.9,224.8L200.9,224.8z"/>
						<path class="st52" d="M161.8,185.1c2.6,2.7,5.4,4.4,8.7,4.9c0.1,0,0.2,0.1,0.3,0.1c2.2,0.5,2.2,0.5,2.2,2.7
							c0,5.8,0,11.6,0,17.4c0,2.1,0.8,2.9,2.9,2.9c6.9,0.1,13.8,0.1,20.7,0.3c0,0,0,0,0.1,0c1.5,0,2.9-1.2,2.9-2.6
							c0.2-3,0.1-5.9,0.1-9.1c-2.7,0-5.2,0-7.7,0c4.5-4.5,9-9,13.6-13.6c4.3,4.4,8.8,9,13.3,13.5c-2.4,0-4.9,0-7.6,0
							c0,1.4,0,2.6,0,3.8c0.1,2.9,0.2,5.8,0.3,8.7c0.1,5.4-4.4,10.5-10.3,10.5c-0.1,0-0.1,0-0.2,0c-3.9-0.1-7.8-0.1-11.7-0.1
							c-5.6,0-11.3,0-16.9,0c-0.1,0-0.2,0-0.4,0c-5.3,0-10.2-4.9-10.2-10.2c0-9.2,0-18.4,0-27.6
							C161.8,186.4,161.8,185.9,161.8,185.1 M161.5,184.4v0.8v1.7v7.9v19.7c0,5.5,5,10.5,10.5,10.5h0.4c2.8,0,5.6,0,8.5,0
							c2.8,0,5.6,0,8.4,0c4.5,0,8.3,0,11.7,0.1h0.2c2.8,0,5.5-1.1,7.5-3.2c2-2.1,3.2-4.9,3.1-7.6c0-1.7-0.1-3.3-0.1-5
							c0-1.2-0.1-2.4-0.1-3.6c0-0.8,0-1.7,0-2.5c0-0.3,0-0.6,0-1h7.3h0.7l-0.5-0.5l-13.3-13.5l-0.2-0.2l-0.2,0.2l-7.1,7.1l-6.5,6.5
							l-0.5,0.5h0.7h7.4c0,0.8,0,1.6,0,2.4c0,2.2,0,4.2-0.1,6.3c-0.1,1.2-1.3,2.3-2.6,2.3c-5.1-0.1-10.2-0.2-15.1-0.2
							c-1.9,0-3.7,0-5.6-0.1c-1.9,0-2.6-0.7-2.6-2.6c0-4.2,0-8.3,0-12.5V193c0-2.4-0.1-2.5-2.4-3c-0.1-0.1-0.2-0.1-0.3-0.1
							c-3.1-0.5-5.9-2-8.6-4.8L161.5,184.4L161.5,184.4z"/>
					</g>
					<g>
						<path class="st51" d="M249.4,177c-3.2-3.3-6.6-4.9-10.9-5.1h-0.1v-19.6c0-2.3-0.9-3.3-3.2-3.3h-4.7c-5.1,0-10.3-0.1-15.4-0.2
							l0,0c-1.9,0-3,1-3.2,2.7c-0.1,2-0.1,4-0.1,6.1c0,0.8,0,1.7,0,2.6h7.9l-13.9,13.9l-13.7-13.9h7.7c0-0.8,0-1.5,0-2.2
							c0-1.7,0-3.4,0-5c0-0.5,0-1-0.1-1.5c-0.1-3.3-0.3-6.8,1.9-9.8s4.9-4.4,8.3-4.4c4.1,0,8.2,0,12.3,0h16.9
							c5.6,0,10.4,4.8,10.4,10.3v29.7L249.4,177z"/>
						<path class="st52" d="M210.1,137.4L210.1,137.4c4.1,0,8.2,0,12.3,0c5,0,9.9,0,14.9,0c0.6,0,1.3,0,1.9,0
							c5.4,0,10.3,4.8,10.3,10.2c0,9.2,0,18.3,0,27.5c0,0.5,0,1,0,1.8c-3.1-3.3-6.6-5-11-5.1c0-0.5,0-1,0-1.5c0-6,0-12,0-17.9
							c0-2.5-1-3.4-3.4-3.4c-6.7-0.1-13.4-0.1-20.1-0.2h-0.1c-1.9,0-3.1,1.1-3.2,2.9c-0.2,2.9-0.1,5.8-0.1,8.8c2.7,0,5.2,0,7.7,0
							c-4.5,4.5-9,9-13.5,13.5c-4.3-4.4-8.8-8.9-13.3-13.5c2.4,0,4.9,0,7.5,0c0-2.6,0-5,0-7.4c-0.1-3.9-0.7-7.8,1.9-11.2
							C203.9,139,206.6,137.4,210.1,137.4 M210.1,137.1c-3.5,0-6.3,1.5-8.5,4.5c-2.2,3.1-2.1,6.5-2,9.9c0,0.5,0,1,0.1,1.5
							c0,1.6,0,3.3,0,5c0,0.7,0,1.4,0,2.1h-7.2h-0.7l0.5,0.5l5.5,5.6l7.8,7.9l0.2,0.2l0.2-0.2l6.1-6.1l7.4-7.4l0.5-0.5h-0.7H212
							c0-0.8,0-1.6,0-2.4c0-2.1-0.1-4.1,0.1-6.1c0.1-1.7,1.2-2.6,2.9-2.6h0.1c5.1,0.1,10.4,0.2,15.4,0.2c1.6,0,3.1,0,4.7,0
							c2.2,0,3.1,0.9,3.1,3.1v13v5v1.5v0.3h0.3c4.2,0.2,7.6,1.8,10.8,5l0.5,0.6v-0.8v-1.8v-7.9v-19.6c0-5.6-5-10.5-10.6-10.5h-1.9
							h-7.5h-7.5C218.3,137.1,214.2,137.1,210.1,137.1L210.1,137.1L210.1,137.1z"/>
					</g>
					<g>
						<path class="st51" d="M184.6,187.1c-0.7,0-3.5,0-4.3,0c-0.9,0-1.8,0-2.6,0c-0.6,0-1.1,0-1.7,0.1c-0.9,0-1.7,0.1-2.6,0.1
							c-2.3,0-4.9-0.2-7.3-2c-3-2.1-4.5-4.9-4.5-8.3v-29.3c0-4.2,3.9-10.4,10.1-10.4h0.1c3.3,0.1,6.8,0.1,11.1,0.1
							c2.7,0,5.5,0,8.2,0s5.5,0,8.2,0h2.2l-0.3,0.3c-3.3,3.3-4.9,6.7-5,10.8v0.1h-0.6c-0.3,0-0.7,0-1,0h-18.1
							c-2.3,0-3.2,0.9-3.2,3.1l-0.1,9.2c0,3.6-0.1,7.3-0.1,10.9c0,2,1,3.2,2.9,3.3c1.1,0,2.2,0,3.4,0c0.8,0,1.7,0,2.5,0s1.7,0,2.5,0
							v-7.8l13.9,13.9l-13.8,13.6v-7.7H184.6z"/>
						<path class="st52" d="M171.7,137.4h0.1c3.7,0.1,7.4,0.1,11.1,0.1c5.5,0,10.9,0,16.4,0c0.5,0,1,0,1.8,0
							c-3.1,3.1-4.9,6.5-5,10.9c-0.5,0-1,0.1-1.5,0.1c-6,0-12.1,0-18.1,0c-2.3,0-3.3,1-3.4,3.3c-0.1,6.7-0.1,13.4-0.2,20.1
							c0,2.1,1,3.3,3.1,3.4c1.1,0,2.2,0,3.4,0c1.7,0,3.4,0,5.2,0c0-2.6,0-5.2,0-7.6c4.5,4.5,9,9,13.5,13.5
							c-4.4,4.3-8.9,8.8-13.4,13.2c0-2.4,0-4.9,0-7.5c-1.5,0-3,0-4.4,0c-0.9,0-1.8,0-2.6,0c-1.4,0-2.9,0.1-4.3,0.1
							c-2.5,0-5-0.3-7.2-1.9c-2.8-2-4.4-4.7-4.4-8.2c0-9.8,0-19.5,0-29.3C161.8,143.7,165.6,137.4,171.7,137.4 M171.7,137.1
							c-6.3,0-10.3,6.3-10.3,10.6v12.8c0,5.5,0,11,0,16.4c0,3.5,1.5,6.3,4.5,8.5c2.5,1.8,5.1,2,7.4,2c0.9,0,1.8,0,2.6-0.1
							c0.6,0,1.1-0.1,1.7-0.1c0.9,0,1.8,0,2.6,0c0.7,0,1.4,0,2.2,0c0.6,0,1.3,0,1.9,0v7.2v0.7l0.5-0.5l6.9-6.8l6.5-6.4l0.2-0.2
							l-0.2-0.2l-1-1l-12.5-12.5l-0.5-0.5v0.7v7.3c-0.8,0-1.6,0-2.3,0c-0.9,0-1.7,0-2.5,0c-1.3,0-2.4,0-3.4,0
							c-2.3-0.1-2.8-1.7-2.8-3.1c0-3.6,0.1-7.3,0.1-10.9c0-3.1,0.1-6.2,0.1-9.2c0-2.2,0.9-3,3.1-3h7.7c3.5,0,6.9,0,10.4,0
							c0.3,0,0.7,0,1,0h0.5h0.3v-0.3c0.1-4,1.7-7.4,4.9-10.7l0.5-0.5h-0.7h-1.8c-2.7,0-5.5,0-8.2,0s-5.5,0-8.2,0
							c-4.3,0-7.8,0-11-0.1L171.7,137.1L171.7,137.1z"/>
					</g>
					<g>
						<path class="st51" d="M239.4,224.8c-3.7-0.1-7.4-0.1-11.1-0.1c-2.7,0-5.5,0-8.2,0s-5.5,0-8.2,0h-2.2l0.3-0.3
							c3.3-3.2,4.9-6.6,5.1-10.9v-0.1h19.8c2.1,0,3.1-1,3.1-3.1v-5.1c0-5,0.1-10.1,0.2-15.1c0-1.8-1.2-3.1-3-3.2
							c-1.1,0-2.2-0.1-3.3-0.1c-0.8,0-1.6,0-2.5,0c-0.8,0-1.6,0-2.5,0v7.7L213,180.9l13.7-13.4v7.5h4.3c0.9,0,1.8,0,2.6,0
							c0.6,0,1.3,0,1.9-0.1c0.8,0,1.5-0.1,2.3-0.1c2.3,0,4.9,0.2,7.3,2c3,2.2,4.5,4.9,4.5,8.3v8.6c0,6.9,0,13.9,0,20.8
							c0,4.2-4,10.3-10.1,10.3H239.4z"/>
						<path class="st52" d="M226.6,167.8c0,2.2,0,4.7,0,7.3c1.5,0,3,0,4.5,0c0.9,0,1.8,0,2.6,0c1.4,0,2.8-0.1,4.2-0.1
							c2.5,0,5,0.3,7.2,1.9c2.8,2,4.4,4.7,4.4,8.2c0,9.8,0,19.6,0,29.4c0,4-3.9,10.2-9.9,10.2h-0.1c-3.7-0.1-7.4-0.1-11.1-0.1
							c-5.5,0-11,0-16.5,0c-0.5,0-1,0-1.8,0c3.3-3.1,5-6.6,5.1-11c0.6,0,1.1,0,1.5,0c3.5,0,7,0,10.5,0c2.5,0,5.1,0,7.6,0
							c2.2,0,3.2-1,3.3-3.3c0.1-6.8,0.1-13.5,0.3-20.3c0.1-2-1.4-3.3-3.2-3.3c-1.1,0-2.2-0.1-3.3-0.1c-1.7,0-3.4,0-5.1,0
							c0,2.7,0,5.2,0,7.5c-4.4-4.4-8.9-8.9-13.4-13.4C217.5,176.7,222.1,172.2,226.6,167.8 M226.9,167.1l-0.5,0.5L213,180.7
							l-0.2,0.2l0.2,0.2l7.3,7.3l6.1,6.1l0.5,0.5v-0.7v-7.2c0.8,0,1.6,0,2.3,0c0.8,0,1.7,0,2.5,0c1.3,0,2.4,0,3.3,0.1
							c1.8,0.1,2.9,1.2,2.9,3c-0.1,5-0.2,10.2-0.2,15.1c0,1.7,0,3.4,0,5.1c0,2.1-0.9,2.9-3,2.9h-7.6h-5.2h-5.2h-1.5h-0.3v0.3
							c-0.1,4.2-1.7,7.6-5,10.8l-0.6,0.5h0.8h1.8c2.7,0,5.5,0,8.2,0s5.5,0,8.2,0c4.3,0,7.8,0,11.1,0.1h0.1c6.2,0,10.2-6.2,10.3-10.5
							c0-7,0-14,0-20.9c0-2.8,0-5.7,0-8.5c0-3.5-1.5-6.2-4.5-8.4c-2.4-1.7-5.1-2-7.4-2c-0.8,0-1.5,0-2.3,0.1c-0.6,0-1.3,0-1.9,0.1
							c-0.9,0-1.8,0-2.6,0h-2.2h-2v-7L226.9,167.1L226.9,167.1z"/>
					</g>
				</g>
				<path class="st51" d="M200.9,224.8c-3.4-0.1-7.2-0.1-11.7-0.1c-2.8,0-5.6,0-8.4,0c-2.8,0-5.6,0-8.4,0h-0.5
					c-5.4,0-10.3-4.9-10.3-10.3v-29.7l0.3,0.3c2.7,2.8,5.5,4.4,8.6,4.9c0.1,0,0.1,0,0.2,0.1c2.4,0.5,2.4,0.6,2.4,2.9
					c0,0,0,13.2,0,17.4c0,2,0.7,2.7,2.7,2.8l5.6,0.1c4.9,0,10,0.1,15,0.2l0,0c1.5,0,2.8-1.2,2.8-2.5c0.1-2.1,0.1-4.2,0.1-6.3
					c0-0.8,0-1.7,0-2.6h-7.9l14-14l13.6,13.9h-7.8v1.1c0,0.9,0,1.7,0,2.5c0,1.2,0.1,2.4,0.1,3.7c0.1,1.7,0.1,3.3,0.1,5
					c0.1,2.7-1.1,5.5-3.1,7.5S203.7,224.8,200.9,224.8L200.9,224.8z"/>
				<path class="st51" d="M249.4,177c-3.2-3.3-6.6-4.9-10.9-5.1h-0.1v-19.6c0-2.3-0.9-3.3-3.2-3.3h-4.7c-5.1,0-10.3-0.1-15.4-0.2
					l0,0c-1.9,0-3,1-3.2,2.7c-0.1,2-0.1,4-0.1,6.1c0,0.8,0,1.7,0,2.6h7.9l-13.9,13.9l-13.7-13.9h7.7c0-0.8,0-1.5,0-2.2
					c0-1.7,0-3.4,0-5c0-0.5,0-1-0.1-1.5c-0.1-3.3-0.3-6.8,1.9-9.8s4.9-4.4,8.3-4.4c4.1,0,8.2,0,12.3,0h16.9
					c5.6,0,10.4,4.8,10.4,10.3v29.7L249.4,177z"/>
				<path class="st51" d="M184.6,187.1c-0.7,0-3.5,0-4.3,0c-0.9,0-1.8,0-2.6,0c-0.6,0-1.1,0-1.7,0.1c-0.9,0-1.7,0.1-2.6,0.1
					c-2.3,0-4.9-0.2-7.3-2c-3-2.1-4.5-4.9-4.5-8.3v-29.3c0-4.2,3.9-10.4,10.1-10.4h0.1c3.3,0.1,6.8,0.1,11.1,0.1c2.7,0,5.5,0,8.2,0
					s5.5,0,8.2,0h2.2l-0.3,0.3c-3.3,3.3-4.9,6.7-5,10.8v0.1h-0.6c-0.3,0-0.7,0-1,0h-18.1c-2.3,0-3.2,0.9-3.2,3.1l-0.1,9.2
					c0,3.6-0.1,7.3-0.1,10.9c0,2,1,3.2,2.9,3.3c1.1,0,2.2,0,3.4,0c0.8,0,1.7,0,2.5,0s1.7,0,2.5,0v-7.8l13.9,13.9l-13.8,13.6v-7.7
					H184.6z"/>
				<path class="st51" d="M239.4,224.8c-3.7-0.1-7.4-0.1-11.1-0.1c-2.7,0-5.5,0-8.2,0s-5.5,0-8.2,0h-2.2l0.3-0.3
					c3.3-3.2,4.9-6.6,5.1-10.9v-0.1h19.8c2.1,0,3.1-1,3.1-3.1v-5.1c0-5,0.1-10.1,0.2-15.1c0-1.8-1.2-3.1-3-3.2
					c-1.1,0-2.2-0.1-3.3-0.1c-0.8,0-1.6,0-2.5,0c-0.8,0-1.6,0-2.5,0v7.7L213,180.9l13.7-13.4v7.5h4.3c0.9,0,1.8,0,2.6,0
					c0.6,0,1.3,0,1.9-0.1c0.8,0,1.5-0.1,2.3-0.1c2.3,0,4.9,0.2,7.3,2c3,2.2,4.5,4.9,4.5,8.3v8.6c0,6.9,0,13.9,0,20.8
					c0,4.2-4,10.3-10.1,10.3H239.4z"/>
			</g>
		</g>
	</g>
</g>
</svg>
