<?xml version="1.0" encoding="utf-8"?>
<!-- Generator: Adobe Illustrator 27.5.0, SVG Export Plug-In . SVG Version: 6.00 Build 0)  -->
<svg version="1.1" id="_圖層_2" xmlns="http://www.w3.org/2000/svg" xmlns:xlink="http://www.w3.org/1999/xlink" x="0px" y="0px"
	 width="391.2px" height="391.2px" viewBox="0 0 391.2 391.2" style="enable-background:new 0 0 391.2 391.2;" xml:space="preserve"
	>
<style type="text/css">
	.st0{fill:#0AA07D;}
	.st1{opacity:0.1;enable-background:new    ;}
	.st2{opacity:0.15;fill:#FFFFFF;enable-background:new    ;}
	.st3{clip-path:url(#SVGID_00000074423879707184407890000001479467103322884758_);}
	.st4{fill:#F8F8F8;}
	.st5{fill:#FBC6B4;}
	.st6{fill:#F7B2A0;}
	.st7{opacity:0.66;}
	.st8{fill:#92D9F8;}
	.st9{fill:#3AB9E6;}
	.st10{fill:#AEECFF;}
	.st11{fill:#21A8CC;}
	.st12{fill:#AEEEFF;}
	.st13{opacity:0.26;}
</style>
<g>
	<g>
		<g>
			<path class="st0" d="M1.8,0v187.9c0,83.9,73.3,152,163.8,152h202.5V152c0-83.9-73.3-152-163.8-152H1.8z"/>
		</g>
	</g>
	<path class="st1" d="M1.8,68.5v119.3c0,83.9,73.3,152,163.8,152h202.5v-4.6C187.3,283.5,65.8,154.6,1.8,68.5z"/>
	<path class="st2" d="M1.8,0v3.6C59.3,13.9,241.2,58.7,368.1,226v-74c0-83.9-73.3-152-163.8-152H1.8z"/>
</g>
<g>
	<g>
		<rect x="366.1" y="116.2" class="st0" width="25.1" height="275"/>
	</g>
</g>
<g>
	<g>
		<g>
			<g>
				<g>
					<g>
						<g>
							<defs>
								<path id="SVGID_1_" d="M215.4,304.8h-56.1c-69.1,0-125.6-56.5-125.6-125.6V41.6h125.6h56.1c69.1,0,125.6,56.5,125.6,125.6
									v137.5L215.4,304.8L215.4,304.8z"/>
							</defs>
							<clipPath id="SVGID_00000164498357748808219950000012941269045300713090_">
								<use xlink:href="#SVGID_1_"  style="overflow:visible;"/>
							</clipPath>
							<g style="clip-path:url(#SVGID_00000164498357748808219950000012941269045300713090_);">
								<g>
									<rect x="24.9" y="29.7" class="st4" width="343.1" height="298.8"/>
								</g>
								<g>
									<path class="st5" d="M388.2,207c0,0-79.1-29.3-106.3-52.2c-50-42-174.3-62.3-183.7-45.1c-8.7,16,20.8,21.9,29.5,25.5
										s52.5,16.1,52.5,16.1s-68-3.4-86.9-3.1c-18.5,0.4-30,24.4,8.2,28.7c38,4.3,74.7,13.9,74.7,13.9s-87-1.6-90.5,12.1
										c-3.5,13.4,8.6,22.1,91.1,11.3c0,0,14.1,18.2-20,22.5c-34,4.3-51.2,11.9-37.5,20.9c13.7,9.1,70.1-1.5,88.7-0.4
										c18.6,1.2,36.7,18.1,90.6,11.3c37.2-4.7,64.9,10.3,64.9,10.3S393.3,247.8,388.2,207z"/>
								</g>
								<g>
									<path class="st6" d="M207.1,196.3c0,0,38.2,70.5,89.2,18.2l-92.7-41L207.1,196.3z"/>
								</g>
								<g class="st7">
									<g>
										<path class="st8" d="M245.4,75.6H110.5l9.4,203.6h0.1c1.9,4.8,27.1,8.6,57.9,8.6c30.9,0,56.1-3.8,57.9-8.6h0.1L245.4,75.6
											z"/>
									</g>
									<g>
										<path class="st9" d="M224,274.6c0,4-20.6,7.3-46,7.3s-46-3.3-46-7.3s20.6-7.3,46-7.3C203.4,267.3,224,270.5,224,274.6z"/>
									</g>
									<g>
										<ellipse class="st10" cx="177.9" cy="75.6" rx="67.4" ry="8.3"/>
									</g>
									<g>
										<path class="st11" d="M127.4,177.4l-2.3-33.6c0,0,42.2-21.5,73,9.8c23.9,24.2-27.7,37.9-27.7,37.9L127.4,177.4z"/>
									</g>
									<g>
										<path class="st9" d="M224,275h-92.1l-4.5-97.6c0,0,19.3,0.2,34.8-10.2c12.2-8.2,17.7-23.7,27.7-29.7
											c28.9-17.4,41.5,11.9,41.5,11.9L224,275z"/>
									</g>
									<g>
										<path class="st12" d="M154.5,173.8c0,2.4-2,4.4-4.4,4.4s-4.4-2-4.4-4.4s2-4.4,4.4-4.4S154.5,171.3,154.5,173.8z"/>
									</g>
									<g>
										<path class="st12" d="M170.9,184.7c0,3.6-2.9,6.5-6.5,6.5s-6.5-2.9-6.5-6.5s2.9-6.5,6.5-6.5S170.9,181.1,170.9,184.7z"/>
									</g>
									<g>
										<path class="st12" d="M167.9,158.6c0,1.3-1,2.3-2.3,2.3s-2.3-1-2.3-2.3s1-2.3,2.3-2.3S167.9,157.3,167.9,158.6z"/>
									</g>
									<g>
										<path class="st12" d="M198.8,243.4c-1.6-1.8-1.5-4.6,0.3-6.3c1.8-1.6,4.6-1.5,6.3,0.3c1.6,1.8,1.5,4.6-0.3,6.3
											C203.3,245.3,200.5,245.2,198.8,243.4z"/>
									</g>
									<g>
										<path class="st12" d="M179.3,246.3c-2.4-2.7-2.2-6.8,0.5-9.2s6.8-2.2,9.2,0.5s2.2,6.8-0.5,9.2
											C185.9,249.1,181.7,248.9,179.3,246.3z"/>
									</g>
									<g>
										<path class="st12" d="M199.1,263.6c-0.8-0.9-0.8-2.4,0.2-3.2c0.9-0.8,2.4-0.8,3.2,0.2c0.8,0.9,0.8,2.4-0.2,3.2
											C201.3,264.6,199.9,264.5,199.1,263.6z"/>
									</g>
									<g class="st13">
										<path d="M143,257.5c-8.3,0-16.5-1-24.3-3l1.1,24.7h0.1c1.9,4.8,27.1,8.6,57.9,8.6c30.9,0,56.1-3.8,57.9-8.6h0.1l3.8-82.3
											C219.7,233.3,183.9,257.5,143,257.5z"/>
									</g>
								</g>
								<g>
									<path class="st5" d="M297.3,221.2c0,0-32.1,25.1-60.8-9.5c-6.4-7.7-14.7-26.5-34.2-29.7c-43-7.2-57.4-25.2-45.3-35.7
										c12.1-10.5,93.9,1.3,122.4,18.1C297.9,175.3,328.8,197.7,297.3,221.2z"/>
								</g>
								<g>
									<path class="st6" d="M158.1,147.5c0,0-4,5.4,7.8,7.7c8.9,1.7,19.8-3.1,21.7-6.6c0,0,3.4-5.8-10.3-6.3
										C172.3,142.1,160.8,142.5,158.1,147.5z"/>
								</g>
							</g>
						</g>
					</g>
				</g>
			</g>
		</g>
	</g>
</g>
</svg>
