<svg xmlns="http://www.w3.org/2000/svg" width="227.06" height="262.21" viewBox="0 0 227.06 262.21">
  <g style="isolation: isolate">
    <g id="圖層_2" data-name="圖層 2">
      <g id="第一cut">
        <g>
          <g>
            <circle cx="77.02" cy="50.23" r="50.23" style="fill: #ff69a0"/>
            <g>
              <path d="M75.57,40.79h-7V45c0,1.12-.23,1.71-1.18,2a16.67,16.67,0,0,1-4.73.33A6.6,6.6,0,0,0,62,45.43c1.8.06,3.44.06,3.91,0s.59-.14.59-.53V40.79H55.3a24.37,24.37,0,0,1,4.83,3.61l-1.56,1.44A25.63,25.63,0,0,0,53.71,42l1.45-1.23H49.07V39H66.45V37.17c-6,.17-11.91.29-16.15.35l-.09-1.71c2.92,0,6.77,0,11-.09V34.11h-9v-8h9V24.49H49.92V22.72H61.19V20.51h2.12v2.21H74.4v1.77H63.31v1.64H72.6v8H69.19A23.74,23.74,0,0,1,74.45,37L73.16,38.2A17.53,17.53,0,0,0,71.48,37l-2.91.09V39h7ZM54.24,29.4h6.95V27.64H54.24Zm6.95,3.24V30.81H54.24v1.83Zm2.12-5V29.4h7.14V27.64Zm7.14,3.17H63.31v1.83h7.14Zm-7.14,4.91,5.56-.08a22.15,22.15,0,0,0-2.24-.92l.71-.61h-4Z" style="fill: #fff"/>
              <path d="M89.2,42.61a27.17,27.17,0,0,1-9,3.79,8.05,8.05,0,0,0-1.32-1.64,26.17,26.17,0,0,0,8.7-2.92Zm15.36-4.09v1.85H92.76v7H90.61v-7H79V38.52H90.61V36.31H81.76V34.64h8.85V32.52H80.26V30.75h6.35a12.3,12.3,0,0,0-1.5-2.82l1.56-.41H79.08V25.69h4.74a22.76,22.76,0,0,0-2.36-4.26l1.86-.65a18,18,0,0,1,2.5,4.32l-1.47.59h3.59v-5.2h2v5.2H93.5v-5.2h2.08v5.2h3.56L98,25.31a25,25,0,0,0,2.26-4.47l2.24.62c-.83,1.5-1.8,3.12-2.56,4.23h4.53v1.83H96.79l1.91.53a29.62,29.62,0,0,1-2,2.7h6.74v1.77H92.76v2.12H102v1.67H92.76v2.21Zm-17.33-11a11.93,11.93,0,0,1,1.56,2.91l-1.21.32H95.7l-1-.32a22.58,22.58,0,0,0,1.74-2.91ZM96,41.7c2.76.91,6.5,2.32,8.53,3.26l-1.35,1.38c-2-.94-5.68-2.44-8.48-3.47Z" style="fill: #fff"/>
              <path d="M75.37,75.11v2.15h-26V75.11H61.13V67.87H52.07V65.79h9.06V59.34H50.71V57.2H63.63a33.37,33.37,0,0,0-5-4.51l1.76-1.23a33.1,33.1,0,0,1,5.39,4.74l-1.39,1H73.9v2.14H63.45v6.45h9.24v2.08H63.45v7.24Z" style="fill: #fff"/>
              <path d="M86.17,74.55c2.32,1,5.33,1.18,8.94,1.21,1.3,0,8.54,0,10.24-.06a5.82,5.82,0,0,0-.79,1.88H95.11c-6.35,0-10.73-.7-13.38-4.65a12,12,0,0,1-2.24,5.36,6.12,6.12,0,0,0-1.38-1.41c1.76-2.12,2.26-6.06,2.41-9.65h1.83c-.06,1.11-.12,2.26-.24,3.35a7.6,7.6,0,0,0,2.18,2.85V65.61H78.46V63.9H91.64v1.71H86.17v3.15h5v1.67h-5Zm3.74-12.79H80.2V52.58h9.71Zm-2-7.57H82.17v2.18h5.74Zm0,3.71H82.17v2.24h5.74Zm8.94,12.8A19.05,19.05,0,0,1,91.64,75a10.79,10.79,0,0,0-1.47-1.38A14.57,14.57,0,0,0,95,70.11Zm-.56-14c.24-.71.47-1.5.65-2.24H91.47V52.78h13.29v1.68H99c-.27.76-.56,1.56-.83,2.24h5.45V69.61h-11V56.7Zm5.27,1.61h-7v2.21h7Zm0,3.74h-7v2.18h7Zm0,3.74h-7V68h7Zm-1,4.29a22,22,0,0,1,4.58,3.77l-1.58,1a24.42,24.42,0,0,0-4.5-3.95Z" style="fill: #fff"/>
            </g>
            <polygon points="87.67 92.06 118.79 104.03 119.13 71.86 87.67 92.06" style="fill: #ff69a0"/>
          </g>
          <g>
            <g>
              <path d="M118.59,214.2,85.34,227.55,44.19,125.07l28.1-11.28a5.54,5.54,0,0,1,7.21,3.07Z" style="fill: #f4a640"/>
              <g>
                <rect x="50.41" y="125.82" width="64.65" height="90.9" transform="translate(-28.63 17.07) rotate(-10.05)" style="fill: #adcfd8"/>
                <rect x="61.96" y="135.41" width="28.87" height="0.65" transform="translate(-22.52 15.42) rotate(-10.05)" style="fill: #55769f"/>
                <rect x="55.61" y="133.79" width="41" height="0.65" transform="translate(-22.24 15.34) rotate(-10.05)" style="fill: #55769f"/>
                <rect x="52.71" y="142.11" width="49.74" height="0.65" transform="translate(-23.67 15.73) rotate(-10.05)" style="fill: #55769f"/>
                <rect x="53.26" y="145.18" width="49.74" height="0.65" transform="translate(-24.2 15.87) rotate(-10.05)" style="fill: #55769f"/>
                <rect x="54.35" y="151.32" width="49.74" height="0.65" transform="translate(-25.25 16.16) rotate(-10.05)" style="fill: #55769f"/>
                <rect x="54.89" y="154.39" width="49.74" height="0.65" transform="translate(-25.78 16.3) rotate(-10.05)" style="fill: #55769f"/>
                <rect x="55.43" y="157.46" width="49.74" height="0.65" transform="translate(-26.31 16.44) rotate(-10.05)" style="fill: #55769f"/>
                <rect x="57.83" y="170.96" width="49.74" height="0.65" transform="translate(-28.63 17.07) rotate(-10.05)" style="fill: #55769f"/>
                <rect x="58.39" y="174.14" width="49.74" height="0.65" transform="translate(-29.18 17.21) rotate(-10.05)" style="fill: #55769f"/>
                <rect x="58.96" y="177.32" width="49.74" height="0.65" transform="translate(-29.72 17.36) rotate(-10.05)" style="fill: #55769f"/>
                <rect x="59.52" y="180.51" width="49.74" height="0.65" transform="matrix(0.98, -0.17, 0.17, 0.98, -30.27, 17.51)" style="fill: #55769f"/>
                <rect x="60.08" y="183.69" width="49.74" height="0.65" transform="matrix(0.98, -0.17, 0.17, 0.98, -30.82, 17.65)" style="fill: #55769f"/>
                <rect x="60.65" y="186.87" width="49.74" height="0.65" transform="translate(-31.36 17.8) rotate(-10.05)" style="fill: #55769f"/>
                <rect x="61.21" y="190.06" width="49.74" height="0.65" transform="matrix(0.98, -0.17, 0.17, 0.98, -31.91, 17.95)" style="fill: #55769f"/>
              </g>
              <g>
                <rect x="45.44" y="125.38" width="64.65" height="90.9" transform="translate(-40.92 25.42) rotate(-14.74)" style="fill: #daeef7"/>
                <rect x="54.1" y="135.6" width="28.87" height="0.65" transform="matrix(0.97, -0.25, 0.25, 0.97, -32.34, 21.92)" style="fill: #55769f"/>
                <rect x="47.62" y="134.01" width="41" height="0.65" transform="translate(-31.94 21.76) rotate(-14.74)" style="fill: #55769f"/>
                <rect x="45.4" y="142.18" width="49.74" height="0.65" transform="matrix(0.97, -0.25, 0.25, 0.97, -33.95, 22.58)" style="fill: #55769f"/>
                <rect x="46.19" y="145.19" width="49.74" height="0.65" transform="translate(-34.69 22.88) rotate(-14.74)" style="fill: #55769f"/>
                <rect x="47.78" y="151.22" width="49.74" height="0.65" transform="translate(-36.18 23.48) rotate(-14.74)" style="fill: #55769f"/>
                <rect x="48.57" y="154.24" width="49.74" height="0.65" transform="translate(-36.92 23.78) rotate(-14.74)" style="fill: #55769f"/>
                <rect x="49.37" y="157.25" width="49.74" height="0.65" transform="matrix(0.97, -0.25, 0.25, 0.97, -37.66, 24.08)" style="fill: #55769f"/>
                <rect x="52.86" y="170.51" width="49.74" height="0.65" transform="translate(-40.92 25.41) rotate(-14.74)" style="fill: #55769f"/>
                <rect x="53.68" y="173.64" width="49.74" height="0.65" transform="matrix(0.97, -0.25, 0.25, 0.97, -41.69, 25.72)" style="fill: #55769f"/>
                <rect x="54.5" y="176.76" width="49.74" height="0.65" transform="translate(-42.46 26.03) rotate(-14.74)" style="fill: #55769f"/>
                <rect x="55.32" y="179.89" width="49.74" height="0.65" transform="translate(-43.23 26.34) rotate(-14.74)" style="fill: #55769f"/>
                <rect x="56.15" y="183.02" width="49.74" height="0.65" transform="translate(-43.99 26.66) rotate(-14.74)" style="fill: #55769f"/>
                <rect x="56.97" y="186.14" width="49.74" height="0.65" transform="translate(-44.76 26.97) rotate(-14.74)" style="fill: #55769f"/>
                <rect x="57.79" y="189.27" width="49.74" height="0.65" transform="translate(-45.53 27.28) rotate(-14.74)" style="fill: #55769f"/>
              </g>
              <path d="M106,219.27,39,246.15,0,148.94l56.25-34.7a6,6,0,0,1,8.7,2.87Z" style="fill: #feb546"/>
            </g>
            <path d="M134.91,100.35s-24.47,39.27-27.82,63c0,0,25.08-22.06,28.94-28.79,1.49-2.61,1.66-8.3,1.31-14.31-3.47-.51-8.34-1.76-8.34-1.76l7.7-5.65C135.94,106,134.91,100.35,134.91,100.35Z" style="fill: #06bfad"/>
            <path d="M150.35,124.56a43.49,43.49,0,0,0-17.52,4.9c-.17,2.61-.43,5.74-.43,5.74l-2.94-3.79C111.34,143,105.1,165.08,105.1,165.08c14.71-.78,24.63-5.14,31.34-10.74-.55-1.67-1.4-4.13-1.4-4.13l3.48,2.25a37.21,37.21,0,0,0,7-9.26c-1.81-1.16-3.83-2.53-3.83-2.53l5.31-.52A40.59,40.59,0,0,0,150.35,124.56Z" style="fill: #02ccc0"/>
            <path d="M136.44,154.34c-.55-1.67-1.4-4.13-1.4-4.13l3.48,2.25a37.21,37.21,0,0,0,7-9.26c-1.81-1.16-3.83-2.53-3.83-2.53l5.31-.52a40.59,40.59,0,0,0,3.39-15.59c-22.13,12.1-45.25,40.52-45.25,40.52C119.81,164.3,129.73,159.94,136.44,154.34Z" style="fill: #06bfad"/>
            <path d="M198.91,156.36a367.26,367.26,0,0,0-96.62,0V132.71h96.62Z" style="fill: #393768"/>
            <g>
              <path d="M211.88,152.53h4.58a4.81,4.81,0,0,0-2.7-.82H99.09c-6,0-10.87,4.31-10.87,9.63v6.11c0,5.32,4.87,9.63,10.87,9.63l113.38,0Z" style="fill: #e03268"/>
              <path d="M97.84,167.45v-6.11c0-5.32,4.87-9.63,10.87-9.63h-2.47c-6,0-10.86,4.31-10.86,9.63v6.11c0,5.32,4.86,9.63,10.86,9.63h2.43C102.69,177.07,97.84,172.76,97.84,167.45Z" style="fill: #feb546"/>
              <path d="M124.7,167.45v-6.11c0-5.32,4.86-9.63,10.86-9.63H133.1c-6,0-10.86,4.31-10.86,9.63v6.11c0,5.32,4.86,9.63,10.86,9.63h2.43C129.54,177.07,124.7,172.76,124.7,167.45Z" style="fill: #feb546"/>
              <path d="M146.78,151.73c-5.73,0-10.39,4.12-10.39,9.21v6.91c0,5.09,4.66,9.21,10.39,9.21h71.39v-1.54h-.3L199.73,174l-3.67-12.75s7.08-7.05,7.54-7.23,14.27-.74,14.27-.74h.3v-1.54Z" style="fill: #ff5b7e"/>
              <path d="M213.54,164.35c0-7.46,4.35-11.07,4.35-11.07H148.24c-5.26,0-9.54,3.79-9.54,8.46v5.32c0,4.67,4.28,8.46,9.54,8.46h69.65S213.54,173.74,213.54,164.35Z" style="fill: #daeef7"/>
              <path d="M138.7,161.74v5.32a7.59,7.59,0,0,0,.28,2c2.35-5.1,6.85-10,15.42-11.58,20-3.69,63.49-4.23,63.49-4.23H148.24C143,153.28,138.7,157.07,138.7,161.74Z" style="fill: #daeef7;mix-blend-mode: multiply"/>
            </g>
            <polygon points="150.6 147.89 79.36 125.44 150.6 100.18 227.06 124.04 150.6 147.89" style="fill: #393768"/>
            <rect x="210.93" y="126.02" width="2.59" height="36.73" style="fill: #393768"/>
            <path d="M216.38,165.61a4.16,4.16,0,1,1-4.16-4.16A4.16,4.16,0,0,1,216.38,165.61Z" style="fill: #393768"/>
            <g>
              <path d="M210,203.25h5.18a5.09,5.09,0,0,0-3.07-1H82.33A12.17,12.17,0,0,0,70,214.27v7.66a12.17,12.17,0,0,0,12.29,12l128.33,0Z" style="fill: #284c7a"/>
              <path d="M136.31,202.25a11.64,11.64,0,0,0-11.75,11.53v8.65A11.65,11.65,0,0,0,136.31,234h80.8V232h-.34l-20.54-1.91-4.15-16s8-8.83,8.54-9.05,16.15-.92,16.15-.92h.34v-1.93Z" style="fill: #55769f"/>
              <path d="M211.87,218.05c0-9.34,4.92-13.86,4.92-13.86H138a10.69,10.69,0,0,0-10.8,10.58v6.66A10.69,10.69,0,0,0,138,232h78.82S211.87,229.8,211.87,218.05Z" style="fill: #daeef7"/>
              <path d="M127.17,214.77v6.66a10.58,10.58,0,0,0,.31,2.54c2.66-6.37,7.76-12.52,17.46-14.49,22.64-4.61,71.85-5.29,71.85-5.29H138A10.69,10.69,0,0,0,127.17,214.77Z" style="fill: #daeef7;mix-blend-mode: multiply"/>
            </g>
            <g>
              <path d="M65.76,177.83H60.58a5.91,5.91,0,0,1,3.06-.81H193.47c6.8,0,12.3,4.28,12.3,9.56v6.08c0,5.28-5.5,9.56-12.3,9.56l-128.38,0Z" style="fill: #02ccc0"/>
              <path d="M139.47,177c6.49,0,11.76,4.1,11.76,9.15v6.86c0,5-5.27,9.15-11.76,9.15H58.64v-1.54H59l20.54-1.51,4.16-12.67s-8-7-8.54-7.18S59,178.57,59,178.57h-.34V177Z" style="fill: #06bfad"/>
              <path d="M63.89,189.58a14,14,0,0,0-4.93-11h78.85c6,0,10.81,3.76,10.81,8.4v5.28c0,4.64-4.84,8.4-10.81,8.4H59S63.89,198.9,63.89,189.58Z" style="fill: #daeef7"/>
              <path d="M148.62,187v5.28a6.52,6.52,0,0,1-.32,2c-2.66-5.06-7.75-9.93-17.46-11.5-22.65-3.66-71.88-4.2-71.88-4.2h78.85C143.78,178.58,148.62,182.34,148.62,187Z" style="fill: #daeef7;mix-blend-mode: multiply"/>
              <path d="M182,192.66v-6.08c0-5.28-5.51-9.56-12.3-9.56H182c6.79,0,12.3,4.28,12.3,9.56v6.08c0,5.28-5.51,9.56-12.3,9.56H169.85C176.57,202.15,182,197.9,182,192.66Z" style="fill: #55769f;opacity: 0.5"/>
            </g>
            <path d="M56,235H50.37a6.24,6.24,0,0,1,3.3-.91h140c7.32,0,13.25,4.78,13.25,10.68v6.79c0,5.9-5.93,10.69-13.25,10.69l-138.4,0Z" style="fill: #feb546"/>
            <path d="M135.42,234.07c7,0,12.68,4.58,12.68,10.22V252c0,5.65-5.68,10.22-12.68,10.22H48.29v-1.71h.36l22.15-1.69,4.47-14.16s-8.64-7.82-9.2-8-17.42-.82-17.42-.82h-.36v-1.71Z" style="fill: #f4a640"/>
            <path d="M53.94,248.08a15.77,15.77,0,0,0-5.31-12.29h85c6.44,0,11.65,4.2,11.65,9.39v5.9c0,5.18-5.21,9.39-11.65,9.39h-85S53.94,258.5,53.94,248.08Z" style="fill: #daeef7"/>
            <path d="M145.28,245.18v5.9a7.66,7.66,0,0,1-.34,2.25c-2.87-5.65-8.36-11.1-18.82-12.85-24.42-4.08-77.49-4.69-77.49-4.69h85C140.07,235.79,145.28,240,145.28,245.18Z" style="fill: #daeef7;mix-blend-mode: multiply"/>
            <polygon points="11.86 159.67 57.43 133.61 63.59 145.81 16.96 170.48 11.86 159.67" style="fill: #f4a640"/>
          </g>
        </g>
      </g>
    </g>
  </g>
</svg>
