<?xml version="1.0" encoding="utf-8"?>
<!-- Generator: Adobe Illustrator 27.3.1, SVG Export Plug-In . SVG Version: 6.00 Build 0)  -->
<!DOCTYPE svg PUBLIC "-//W3C//DTD SVG 1.1//EN" "http://www.w3.org/Graphics/SVG/1.1/DTD/svg11.dtd" [
	<!ENTITY ns_extend "http://ns.adobe.com/Extensibility/1.0/">
	<!ENTITY ns_ai "http://ns.adobe.com/AdobeIllustrator/10.0/">
	<!ENTITY ns_graphs "http://ns.adobe.com/Graphs/1.0/">
	<!ENTITY ns_vars "http://ns.adobe.com/Variables/1.0/">
	<!ENTITY ns_imrep "http://ns.adobe.com/ImageReplacement/1.0/">
	<!ENTITY ns_sfw "http://ns.adobe.com/SaveForWeb/1.0/">
	<!ENTITY ns_custom "http://ns.adobe.com/GenericCustomNamespace/1.0/">
	<!ENTITY ns_adobe_xpath "http://ns.adobe.com/XPath/1.0/">
]>
<svg version="1.1" id="_圖層_2" xmlns:x="&ns_extend;" xmlns:i="&ns_ai;" xmlns:graph="&ns_graphs;"
	 xmlns="http://www.w3.org/2000/svg" xmlns:xlink="http://www.w3.org/1999/xlink" x="0px" y="0px" viewBox="0 0 389.4 391.2"
	 style="enable-background:new 0 0 389.4 391.2;" xml:space="preserve">
<style type="text/css">
	.st0{fill:#0AA07D;}
	.st1{opacity:0.1;enable-background:new    ;}
	.st2{opacity:0.15;fill:#FFFFFF;enable-background:new    ;}
	.st3{clip-path:url(#SVGID_00000029725503920162945270000008376388768700540572_);}
	.st4{fill:#2092A4;}
	.st5{fill:#85B92B;}
	.st6{fill:#3184C4;}
	.st7{fill:#FFFFFF;}
</style>
<metadata>
	<sfw  xmlns="&ns_sfw;">
		<slices></slices>
		<sliceSourceBounds  bottomLeftOrigin="true" height="409.4" width="572.3" x="-41.2" y="0"></sliceSourceBounds>
	</sfw>
</metadata>
<g id="_圖層_2-2">
	<g>
		<path class="st0" d="M202.5,0L0,0l0,187.9c0,83.9,73.3,152,163.8,152h202.5V152C366.3,68.1,293,0,202.5,0L202.5,0z"/>
		<path class="st1" d="M366.3,335.2C185.5,283.5,64,154.6,0,68.5l0,119.3c0,83.9,73.3,152,163.8,152h202.5L366.3,335.2L366.3,335.2z
			"/>
		<path class="st2" d="M0,0l0,3.6C57.5,13.9,239.4,58.7,366.3,226v-74C366.3,68.1,293,0,202.5,0L0,0z"/>
	</g>
	<rect x="364.3" y="116.2" class="st0" width="25.1" height="275"/>
	<g>
		<defs>
			<path id="SVGID_1_" d="M213.6,304.8h-56.1c-69.1,0-125.6-56.5-125.6-125.6V41.6h125.6h56.1c69.1,0,125.6,56.5,125.6,125.6v137.5
				L213.6,304.8L213.6,304.8z"/>
		</defs>
		<clipPath id="SVGID_00000165223983408690830180000004963619882268274610_">
			<use xlink:href="#SVGID_1_"  style="overflow:visible;"/>
		</clipPath>
		<g style="clip-path:url(#SVGID_00000165223983408690830180000004963619882268274610_);">
			<rect x="10.9" y="-18.2" class="st4" width="520.2" height="357.6"/>
			<g>
				<path class="st5" d="M323.2,172.9h-0.2c0,0,0.1,0,0.1,0C323.1,172.9,323.2,172.9,323.2,172.9L323.2,172.9z"/>
				<path class="st5" d="M311.7,226.9c3,9.8,11.3,11.7,11.3,11.7s8.4-1.8,11.3-11.7c3.4-11.3-4.9-53.4-11.3-54
					C316.7,173.5,308.4,215.6,311.7,226.9z"/>
				<path class="st5" d="M104,208.4c0,12.1,9.8,21.9,22,21.9c12.1,0,21.9-9.8,21.9-21.9c0-12.1-9.8-21.9-21.9-21.9
					C113.9,186.4,104,196.3,104,208.4z"/>
				<path class="st5" d="M283.3,223.8c-0.1-0.1-0.2,0.2-0.2,0.2c-2.3,2.6-15,17.8,0,20.9v0.1c0.1,0,0.1,0,0.2,0c0,0,0.1,0,0.1,0
					v-0.1c15.2-2.6,2.4-18.2,0.1-20.9C283.5,224,283.4,223.7,283.3,223.8L283.3,223.8z"/>
				<path class="st6" d="M177.3,230.8c-15.7,0-27.7,7.3-32.9,18.4H211C204.1,238.1,192.3,230.8,177.3,230.8L177.3,230.8z"/>
				<path class="st7" d="M229.3,267.5c-0.5,0-0.9-0.4-0.9-0.9s0.4-0.9,0.9-0.9h14.8c1.3,0,1.9-0.2,1.9-2.4v-23.9
					c0-2,1.1-3.2,2.9-3.2h4.6c0.5,0,0.9,0.4,0.9,0.9s-0.4,0.9-0.9,0.9h-4.6c-0.3,0-1,0-1,1.4v23.9c0,2.1-0.4,4.2-3.7,4.2
					L229.3,267.5L229.3,267.5z"/>
				<path class="st7" d="M111.8,279.7c-0.2,0-0.5-0.1-0.7-0.3c-0.2-0.2-0.3-0.4-0.2-0.7c0-0.3,0.5-6.5,4.3-13.7
					c3.5-6.6,10.6-15.3,24.6-19.4c0.7-1.4,3.3-6.3,8.6-11.1c5.7-5.2,15.8-11.5,31.5-11.5c13.9,0,26.3,5.4,35.8,15.5
					c8,8.6,13.4,20.2,14.9,32.1c0.5,0.1,1.1,0.2,1.7,0.5c1.8,0.8,2.7,2.2,2.7,4.1c0,1.1-0.4,2.1-1.2,2.9c-1.6,1.6-4.5,1.6-4.6,1.6
					H219c-0.5,0-0.9-0.4-0.9-0.8c0,0-0.5-3.9-2.8-7.8c-3.1-5.1-7.6-7.7-13.9-7.7s-11,2.6-14.1,7.7c-2.3,3.9-2.8,7.8-2.8,7.9
					c-0.1,0.5-0.4,0.8-0.9,0.8h-22.4c-0.5,0-0.9-0.4-0.9-0.8c0,0-0.4-4-2.7-7.9c-3-5.1-7.7-7.8-13.8-7.8c-6.3,0-11.1,2.6-14.2,7.8
					c-2.3,3.9-2.8,7.9-2.8,7.9c-0.1,0.5-0.5,0.8-0.9,0.8L111.8,279.7L111.8,279.7z M124.9,277.8c0.3-1.5,1-4.6,2.9-7.8
					c2.4-4,7.2-8.7,15.8-8.7s13.2,4.7,15.5,8.7c1.9,3.2,2.6,6.3,2.8,7.8h20.8c0.3-1.4,1-4.6,2.9-7.7c2.4-3.9,7-8.6,15.7-8.6
					c8.6,0,13.2,4.7,15.5,8.6c1.9,3.2,2.6,6.3,2.9,7.7h9.5c0,0,0,0,0,0c0.6,0,2.4-0.2,3.3-1.1c0.4-0.4,0.6-0.9,0.6-1.6
					c0-2.6-3.1-2.8-3.4-2.8c-0.5,0-0.9-0.4-0.9-0.8c-1.3-11.7-6.6-23.3-14.5-31.8c-6.4-6.8-17.5-14.9-34.4-14.9
					c-15,0-24.7,5.9-30.2,10.9c-5.9,5.4-8.4,10.9-8.4,11c-0.1,0.2-0.3,0.4-0.6,0.5c-10.9,3.1-18.9,9.3-23.8,18.5
					c-2.8,5.3-3.7,10-4,12L124.9,277.8L124.9,277.8z"/>
				<path class="st7" d="M187,280c0-7.9,6.4-14.4,14.4-14.4s14.4,6.4,14.4,14.4c0,7.9-6.4,14.4-14.4,14.4S187,287.9,187,280z
					 M188.8,280c0,6.9,5.6,12.5,12.5,12.5s12.5-5.6,12.5-12.5c0-6.9-5.6-12.5-12.5-12.5S188.8,273.1,188.8,280z"/>
				<path class="st7" d="M143.3,294.4c-7.9,0-14.4-6.4-14.4-14.4s6.4-14.4,14.4-14.4s14.4,6.4,14.4,14.4S151.2,294.4,143.3,294.4
					L143.3,294.4z M143.3,267.5c-6.9,0-12.5,5.6-12.5,12.5s5.6,12.5,12.5,12.5s12.5-5.6,12.5-12.5
					C155.8,273.1,150.2,267.5,143.3,267.5L143.3,267.5z"/>
				<path class="st7" d="M146.1,247.3c-0.2-0.3-0.2-0.6-0.1-0.9c2.7-5.7,7.1-10.5,12.9-13.8c5.9-3.4,13.4-5.2,20.8-5.2
					s14.3,1.8,20.3,5.2c5.7,3.3,10.5,7.9,14.1,13.7c0.2,0.3,0.2,0.7,0,0.9c-0.2,0.3-0.5,0.5-0.8,0.5h-66.6
					C146.6,247.8,146.3,247.6,146.1,247.3z M199.2,234.3c-5.8-3.3-12.3-4.9-19.4-4.9c-14.3,0-25.9,6.2-31.4,16.6h63.4
					C208.4,241,204.2,237.1,199.2,234.3z"/>
				<path class="st7" d="M254.8,237c0-3,2.4-5.4,5.4-5.4c0.5,0,0.9,0.4,0.9,0.9v8.8c0,0,0,0.1,0,0.1s0-0.4,0,0.1s-0.4,0.9-0.9,0.9
					C257.2,242.4,254.8,240,254.8,237z M259.2,233.6c-1.5,0.4-2.6,1.8-2.6,3.4s1.1,3,2.6,3.4V233.6L259.2,233.6z"/>
				<path class="st7" d="M261.5,234.1c0-0.5,0.4-0.9,0.9-0.9h2.4c0.5,0,0.9,0.4,0.9,0.9s-0.4,0.9-0.9,0.9h-2.4
					C261.9,235,261.5,234.6,261.5,234.1z"/>
				<path class="st7" d="M261.5,240c0-0.5,0.4-0.9,0.9-0.9h2.4c0.5,0,0.9,0.4,0.9,0.9s-0.4,0.9-0.9,0.9h-2.4
					C261.9,240.9,261.5,240.5,261.5,240z"/>
				<path class="st7" d="M36.7,267.4c-2.9,0-5.2-2.3-5.2-5.2v-14.4c0-0.5,0.4-0.9,0.9-0.9h15.1c0.5,0,0.9,0.4,0.9,0.9v14.3
					c0,2.9-2.4,5.2-5.2,5.2L36.7,267.4L36.7,267.4z M46.6,248.8H33.3v13.5c0,1.9,1.5,3.4,3.4,3.4h6.5c1.9,0,3.4-1.5,3.4-3.4V248.8
					L46.6,248.8z"/>
				<path class="st7" d="M42.5,263.1v-12c0-0.7,0.6-1.3,1.3-1.3s1.3,0.6,1.3,1.3v12c0,0.7-0.6,1.3-1.3,1.3S42.5,263.8,42.5,263.1z
					 M43.5,251.1v12c0,0.1,0.1,0.2,0.2,0.2s0.2-0.1,0.2-0.2v-12c0-0.1-0.1-0.2-0.2-0.2S43.5,250.9,43.5,251.1z"/>
				<path class="st7" d="M38.6,263.1v-12c0-0.7,0.6-1.3,1.3-1.3s1.3,0.6,1.3,1.3v12c0,0.7-0.6,1.3-1.3,1.3S38.6,263.8,38.6,263.1z
					 M39.6,251.1v12c0,0.1,0.1,0.2,0.2,0.2s0.2-0.1,0.2-0.2v-12c0-0.1-0.1-0.2-0.2-0.2S39.6,250.9,39.6,251.1z"/>
				<path class="st7" d="M34.7,263.1v-12c0-0.7,0.6-1.3,1.3-1.3s1.3,0.6,1.3,1.3v12c0,0.7-0.6,1.3-1.3,1.3S34.7,263.8,34.7,263.1z
					 M35.8,251.1v12c0,0.1,0.1,0.2,0.2,0.2s0.2-0.1,0.2-0.2v-12c0-0.1-0.1-0.2-0.2-0.2S35.8,250.9,35.8,251.1z"/>
				<path class="st7" d="M30.8,246.5c0-1.3,1-2.3,2.3-2.3h13.8c1.3,0,2.3,1,2.3,2.3s-1,2.3-2.3,2.3H33.1
					C31.8,248.8,30.8,247.7,30.8,246.5z M33.1,246c-0.2,0-0.5,0.2-0.5,0.5s0.2,0.5,0.5,0.5h13.8c0.2,0,0.5-0.2,0.5-0.5
					s-0.2-0.5-0.5-0.5H33.1z"/>
				<path class="st7" d="M37.3,245.6c-0.4,0-0.7-0.3-0.7-0.7v-1c0-1,0.7-1.8,1.6-1.8h3.6c0.9,0,1.5,0.8,1.5,1.7v1.1
					c0,0.4-0.3,0.7-0.7,0.7S42,245.3,42,245v-1.1c0-0.2-0.1-0.4-0.2-0.4h-3.6c-0.1,0-0.3,0.2-0.3,0.4v1
					C37.9,245.3,37.6,245.6,37.3,245.6L37.3,245.6z"/>
				<path class="st7" d="M52.3,232.1v-3.7c0-0.5,0.4-0.9,0.9-0.9h55.9c0.5,0,0.9,0.4,0.9,0.9v3.7c0,0.5-0.4,0.9-0.9,0.9H53.3
					C52.7,233,52.3,232.6,52.3,232.1z M108.2,229.3h-54v1.8h54V229.3z"/>
				<path class="st7" d="M52.3,238.1v-3.7c0-0.5,0.4-0.9,0.9-0.9h55.9c0.5,0,0.9,0.4,0.9,0.9v3.7c0,0.5-0.4,0.9-0.9,0.9H53.3
					C52.7,239,52.3,238.6,52.3,238.1z M108.2,235.3h-54v1.8h54V235.3z"/>
				<path class="st7" d="M52.3,244.1v-3.7c0-0.5,0.4-0.9,0.9-0.9h55.9c0.5,0,0.9,0.4,0.9,0.9v3.7c0,0.5-0.4,0.9-0.9,0.9H53.3
					C52.7,245,52.3,244.6,52.3,244.1z M108.2,241.3h-54v1.8h54V241.3z"/>
				<path class="st7" d="M50.6,254.9v-5.9c0-0.5,0.4-0.9,0.9-0.9h59.3c0.5,0,0.9,0.4,0.9,0.9v5.9c0,0.5-0.4,0.9-0.9,0.9H51.6
					C51,255.8,50.6,255.4,50.6,254.9z M109.9,250H52.5v4h57.4V250z"/>
				<path class="st7" d="M95,265.2v-10.3c0-0.5,0.4-0.9,0.9-0.9h3.6c0.5,0,0.9,0.4,0.9,0.9v10.3c0,0.5-0.4,0.9-0.9,0.9h-3.6
					C95.4,266.1,95,265.7,95,265.2z M98.6,255.8h-1.8v8.4h1.8V255.8z"/>
				<path class="st7" d="M61.9,265.2v-10.3c0-0.5,0.4-0.9,0.9-0.9h3.6c0.5,0,0.9,0.4,0.9,0.9v10.3c0,0.5-0.4,0.9-0.9,0.9h-3.6
					C62.3,266.1,61.9,265.7,61.9,265.2z M65.5,255.8h-1.8v8.4h1.8V255.8z"/>
				<path class="st7" d="M92.7,234.4v-2.3c0-0.3,0.2-0.5,0.5-0.5h2.7c0.3,0,0.5,0.2,0.5,0.5v2.3c0,0.3-0.2,0.5-0.5,0.5h-2.7
					C93,234.9,92.7,234.7,92.7,234.4z M95.4,232.6h-1.6v1.3h1.6V232.6z"/>
				<path class="st7" d="M65.9,234.4v-2.3c0-0.3,0.2-0.5,0.5-0.5h2.7c0.3,0,0.5,0.2,0.5,0.5v2.3c0,0.3-0.2,0.5-0.5,0.5h-2.7
					C66.1,234.9,65.9,234.7,65.9,234.4z M68.6,232.6H67v1.3h1.6V232.6z"/>
				<path class="st7" d="M92.7,240.4v-2c0-0.3,0.2-0.5,0.5-0.5h2.7c0.3,0,0.5,0.2,0.5,0.5v2c0,0.3-0.2,0.5-0.5,0.5h-2.7
					C93,240.9,92.7,240.7,92.7,240.4z M95.4,239h-1.6v0.9h1.6V239z"/>
				<path class="st7" d="M65.9,240.4v-2c0-0.3,0.2-0.5,0.5-0.5h2.7c0.3,0,0.5,0.2,0.5,0.5v2c0,0.3-0.2,0.5-0.5,0.5h-2.7
					C66.1,240.9,65.9,240.7,65.9,240.4z M68.6,239H67v0.9h1.6V239z"/>
				<path class="st7" d="M92.7,249.1v-5c0-0.3,0.2-0.5,0.5-0.5h2.7c0.3,0,0.5,0.2,0.5,0.5v5c0,0.3-0.2,0.5-0.5,0.5h-2.7
					C93,249.6,92.7,249.3,92.7,249.1z M95.4,244.6h-1.6v3.9h1.6V244.6z"/>
				<path class="st7" d="M65.9,249.1v-5c0-0.3,0.2-0.5,0.5-0.5h2.7c0.3,0,0.5,0.2,0.5,0.5v5c0,0.3-0.2,0.5-0.5,0.5h-2.7
					C66.1,249.6,65.9,249.3,65.9,249.1z M68.6,244.6H67v3.9h1.6V244.6z"/>
				<path class="st7" d="M324.2,265.2l0-72.4c0-0.5,0.4-0.9,0.9-0.9c0.5,0,0.9,0.4,0.9,0.9l0,72.4c0,0.5-0.4,0.9-0.9,0.9
					S324.2,265.7,324.2,265.2z"/>
				<path class="st7" d="M325.1,207.2c-0.2,0-0.5-0.1-0.7-0.3c-0.4-0.4-0.3-1,0-1.3l6.3-5.9c0.4-0.4,1-0.3,1.3,0
					c0.4,0.4,0.3,1,0,1.3l-6.3,5.9C325.5,207.1,325.3,207.2,325.1,207.2L325.1,207.2z"/>
				<path class="st7" d="M324.4,217.9l-6.9-9.4c-0.3-0.4-0.2-1,0.2-1.3c0.4-0.3,1-0.2,1.3,0.2l6.9,9.4c0.3,0.4,0.2,1-0.2,1.3
					c-0.2,0.1-0.4,0.2-0.5,0.2C324.8,218.2,324.5,218.1,324.4,217.9z"/>
				<path class="st7" d="M324.9,237.7c-0.1,0-0.1,0-0.2,0c-0.4-0.1-8.9-2.1-12-12.3c-3-10,3.1-44.8,9.3-53.2
					c0.8-1.1,1.6-1.7,2.4-1.9c0.1-0.1,0.2-0.1,0.4-0.1h0.2c0.1,0,0.3,0,0.4,0.1c0.8,0.2,1.6,0.9,2.4,1.9c6.2,8.4,12.3,43.1,9.3,53.2
					c-3.1,10.2-11.6,12.2-12,12.3C325,237.7,325,237.7,324.9,237.7L324.9,237.7z M323.5,173.3c-5.9,7.9-11.8,42.1-9,51.5
					c1.2,3.9,3.3,6.9,6.3,9c1.9,1.3,3.5,1.8,4.1,2c0.6-0.2,2.2-0.7,4.1-2c3-2.1,5.2-5.1,6.3-9c2.8-9.5-3.1-43.6-9-51.5
					c-0.7-0.9-1.2-1.2-1.4-1.2C324.7,172.1,324.2,172.4,323.5,173.3z"/>
				<path class="st7" d="M236.7,272.1c0,0.5,0.4,0.9,0.9,0.9h100.6c0.5,0,0.9-0.4,0.9-0.9s-0.4-0.9-0.9-0.9H237.6
					C237.1,271.2,236.7,271.6,236.7,272.1z"/>
				<path class="st7" d="M13.9,272.1c0,0.5,0.4,0.9,0.9,0.9h87.4c0.5,0,0.9-0.4,0.9-0.9s-0.4-0.9-0.9-0.9H14.9
					C14.4,271.2,13.9,271.6,13.9,272.1z"/>
				<path class="st7" d="M-41.2,272.1c0,0.5,0.4,0.9,0.9,0.9H6.4c0.5,0,0.9-0.4,0.9-0.9s-0.4-0.9-0.9-0.9h-46.6
					C-40.8,271.2-41.2,271.6-41.2,272.1z"/>
				<path class="st7" d="M235.1,261.7V140.3c0-2.2,1.2-4,2.8-4s2.8,1.8,2.8,4v121.4c0,1.8-2,1.8-2.8,1.8
					C236.8,263.5,235.1,263.5,235.1,261.7z M238.7,261.6V140.3c0-1.3-0.6-2.1-0.9-2.1s-0.9,0.8-0.9,2.1v121.3c0.2,0,0.6,0,0.9,0
					C238.3,261.6,238.6,261.6,238.7,261.6L238.7,261.6z"/>
				<path class="st7" d="M242.2,128.3c-0.7,0-1.4-0.2-2.1-0.7c-0.3-0.2-3.1-2.4,1.3-8.9c0,0,0-0.1,0-0.1l19.4-25.1
					c0.3-0.5,0.8-0.8,1.4-1c0.6-0.2,1.2-0.1,1.7,0.2l0,0c0.9,0.6,1.1,2.1,0.3,3.1l-15.8,27.5c0,0,0,0,0,0.1
					C246.2,126.7,244.1,128.3,242.2,128.3L242.2,128.3z M246.9,122.5L262.7,95c0,0,0,0,0-0.1c0.2-0.2,0.2-0.4,0.2-0.6
					c-0.1,0-0.3,0.1-0.5,0.3c0,0,0,0.1,0,0.1l-19.4,25.1c-3.2,4.7-1.8,6.2-1.7,6.3c0.3,0.2,0.7,0.5,1.4,0.3
					C243.5,126.2,244.9,125.4,246.9,122.5L246.9,122.5z"/>
				<path class="st7" d="M226.8,134.3c-0.7,0-1.5,0-2.3-0.1c0,0-0.1,0-0.1,0l-31.3-5.5c-1.3-0.2-2.3-1.2-2.2-2.3l0,0
					c0.1-0.6,0.4-1.1,1-1.4c0.5-0.3,1.1-0.4,1.6-0.3l31.7,1.2c0,0,0.1,0,0.1,0c5.4,0.6,7.9,2.4,7.6,5.4
					C232.9,131.5,232.3,134.3,226.8,134.3L226.8,134.3z M231.1,130.9c0-0.4,0.1-0.9-0.4-1.4c-0.6-0.6-2-1.5-5.5-1.9l-31.7-1.2
					c0,0-0.1,0-0.1,0c-0.3,0-0.5,0.1-0.6,0.1c0.1,0.1,0.3,0.2,0.5,0.3c0,0,0.1,0,0.1,0l31.3,5.5C230.4,133,231,131.1,231.1,130.9
					L231.1,130.9z"/>
				<path class="st7" d="M261.7,172.2c-0.8,0-1.6-0.5-2.1-1.3l-17.3-26.6c0,0,0,0,0-0.1c-2.6-4.7-2.6-7.9,0-9.3
					c0.4-0.2,3.6-1.7,7.3,5.2c0,0,0,0.1,0,0.1l13.5,28.7c0.6,1.2,0.3,2.6-0.6,3.1l0,0C262.3,172.1,262,172.2,261.7,172.2
					L261.7,172.2z M248,141c-2.7-5-4.7-4.4-4.9-4.4c-0.3,0.2-0.8,0.4-0.9,1.2c-0.2,0.8,0,2.5,1.6,5.6l17.3,26.6c0,0,0,0,0,0.1
					c0.1,0.2,0.3,0.4,0.4,0.4c0-0.1,0-0.3-0.1-0.6c0,0,0-0.1,0-0.1L248,141L248,141z"/>
				<path class="st7" d="M233.7,131.5c0-2.2,1.8-4.1,4.1-4.1s4.1,1.8,4.1,4.1c0,2.2-1.8,4.1-4.1,4.1
					C235.6,135.6,233.7,133.8,233.7,131.5z M235.6,131.5c0,1.2,1,2.2,2.2,2.2s2.2-1,2.2-2.2s-1-2.2-2.2-2.2S235.6,130.3,235.6,131.5
					z"/>
				<path class="st7" d="M202.2,227c-0.5,0-0.9-0.4-0.9-0.9v-51.6c0-0.8-0.5-1.4-0.9-1.4s-0.9,0.6-0.9,1.4v49.8
					c0,0.5-0.4,0.9-0.9,0.9s-0.9-0.4-0.9-0.9v-49.8c0-1.8,1.2-3.3,2.7-3.3s2.7,1.5,2.7,3.3v51.6C203.1,226.6,202.7,227,202.2,227
					L202.2,227z"/>
				<path class="st7" d="M202.3,164.4c-0.3,0-0.6,0-0.9-0.1c-0.3-0.1-3-1-1.5-6.8c0,0,0-0.1,0-0.1l7.3-22.2c0.3-1.1,1.3-1.7,2.2-1.5
					l0,0c0.5,0.1,0.9,0.5,1.1,1c0.2,0.4,0.2,0.9,0.1,1.4l-4.2,22.9c0,0,0,0.1,0,0.1C205.6,162.6,204.2,164.4,202.3,164.4
					L202.3,164.4z M204.7,158.7l3.9-21.6l-6.9,20.8c-0.8,3.2-0.1,4.3,0.2,4.5c0.2,0.1,0.5,0.1,0.9-0.1
					C203.3,162.1,204,161.2,204.7,158.7L204.7,158.7z"/>
				<path class="st7" d="M168.8,176.6c-0.3,0-0.6-0.1-0.9-0.2c-0.5-0.2-0.9-0.6-1-1.1c-0.2-0.9,0.5-1.9,1.6-2.1l22.3-7
					c0,0,0.1,0,0.1,0c4-0.9,6.3-0.2,6.9,2.1c0.1,0.3,0.5,3.1-5.3,4.5c0,0-0.1,0-0.1,0l-23,3.9C169.1,176.6,168.9,176.6,168.8,176.6
					L168.8,176.6z M191.9,170.8c3.2-0.8,3.9-1.9,3.9-2.3c0-0.2-0.1-0.5-0.5-0.7c-0.4-0.2-1.5-0.5-4.1,0.1l-20.9,6.6L191.9,170.8
					L191.9,170.8z"/>
				<path class="st7" d="M223.6,193.5c-0.6,0-1.1-0.3-1.6-0.8l-16.5-16.4c0,0,0,0-0.1-0.1c-1.7-1.9-2.4-3.5-2.4-4.8
					c0-1.3,0.8-2,1.1-2.2c0.2-0.2,2.5-1.9,6.4,2.6c0,0,0,0,0,0l14.1,18.6c0.7,0.8,0.7,2.1,0,2.7l0,0
					C224.4,193.4,224,193.5,223.6,193.5L223.6,193.5z M205.2,170.7c-0.2,0.2-0.4,0.4-0.4,0.8c0,0.5,0.2,1.6,2,3.6l15.5,15.4L209,173
					C206.9,170.5,205.6,170.5,205.2,170.7z"/>
				<path class="st7" d="M197.7,167.5c0-1.8,1.4-3.2,3.2-3.2s3.2,1.4,3.2,3.2s-1.5,3.2-3.2,3.2C199.1,170.7,197.7,169.3,197.7,167.5
					z M199.5,167.5c0,0.8,0.6,1.4,1.4,1.4s1.4-0.6,1.4-1.4s-0.6-1.4-1.4-1.4S199.5,166.7,199.5,167.5z"/>
				<path class="st7" d="M2.4,254.8c0-7.1,5.8-12.8,12.8-12.8s12.8,5.8,12.8,12.8s-5.8,12.8-12.8,12.8S2.4,261.8,2.4,254.8z
					 M4.2,254.8c0,6.1,4.9,11,11,11s11-4.9,11-11s-4.9-11-11-11C9.1,243.8,4.2,248.7,4.2,254.8z"/>
				<path class="st7" d="M15.2,255.7c-0.3,0-0.6-0.2-0.8-0.5l-11-20.3l-8.8,20.2c-0.1,0.3-0.5,0.6-0.9,0.6h-23.4
					c-0.3,0-0.6-0.2-0.8-0.4c-0.2-0.3-0.2-0.6-0.1-0.9l9.6-22c0.1-0.3,0.5-0.6,0.9-0.6H3.3h0c0.2,0,0.4,0.1,0.6,0.2
					c0,0,0.1,0.1,0.1,0.1c0,0.1,0.1,0.1,0.1,0.2L16,254.3c0.2,0.4,0.1,1-0.4,1.2C15.5,255.6,15.4,255.7,15.2,255.7L15.2,255.7z
					 M-6.9,253.8l8.8-20.1h-21.4l-8.8,20.1H-6.9L-6.9,253.8z"/>
				<path class="st7" d="M3.3,233.7c-0.5,0-0.9-0.4-0.9-0.9V228c0-0.5,0.4-0.9,0.9-0.9h7.2c0.5,0,0.9,0.4,0.9,0.9s-0.4,0.9-0.9,0.9
					H4.2v3.9C4.2,233.3,3.8,233.7,3.3,233.7L3.3,233.7z"/>
				<path class="st7" d="M127.9,246.6v-48.2c0-0.5,0.4-0.9,0.9-0.9s0.9,0.4,0.9,0.9v48.2c0,0.5-0.4,0.9-0.9,0.9
					S127.9,247.1,127.9,246.6z"/>
				<path class="st7" d="M128.1,210.4c-0.4-0.4-0.4-0.9,0-1.3l6.1-6c0.4-0.4,0.9-0.4,1.3,0s0.4,0.9,0,1.3l-6.1,6
					c-0.2,0.2-0.4,0.3-0.6,0.3S128.3,210.6,128.1,210.4z"/>
				<path class="st7" d="M128.8,221.4c-0.3,0-0.6-0.1-0.8-0.4l-7.3-10.8c-0.3-0.4-0.2-1,0.2-1.3c0.4-0.3,1-0.2,1.3,0.2l7.3,10.8
					c0.3,0.4,0.2,1-0.2,1.3C129.2,221.4,129,221.4,128.8,221.4L128.8,221.4z"/>
				<path class="st7" d="M105.9,206.7c0-12.6,10.3-22.9,22.9-22.9c12.6,0,22.9,10.3,22.9,22.9s-10.3,22.9-22.9,22.9
					S105.9,219.3,105.9,206.7z M107.8,206.7c0,11.6,9.4,21,21,21s21-9.4,21-21s-9.4-21-21-21S107.8,195.1,107.8,206.7z"/>
				<path class="st7" d="M278.9,232.5c-0.8,2.2-1.2,4.7-0.4,7c1,2.7,3.3,4.4,5.9,5.4c0.5,0.2,0.7-0.6,0.2-0.8
					c-2.5-1-4.9-2.8-5.6-5.6c-0.3-1.2-0.2-2.4,0-3.6c2,2,4,4,6,6v3.5c0,0.5,0.8,0.5,0.8,0v-3.5c2-2,4-4,6-6c0.2,1.2,0.3,2.5-0.1,3.7
					c-0.8,2.7-3,4.4-5.5,5.4c-0.5,0.2-0.3,1,0.2,0.8c2.6-1.1,5.1-2.8,6-5.6c0.7-2.3,0.4-4.8-0.5-7c-1.2-3.1-3.1-6.1-5.3-8.5
					c-0.4-0.4-0.9,0.2-0.6,0.6c1.1,1.2,2.2,2.6,3.1,4.1c0,0,0,0,0,0c-1.1,1.1-2.2,2.2-3.3,3.3v-7.7c0-0.5-0.8-0.5-0.8,0v7.7
					c-1.1-1.1-2.2-2.2-3.3-3.3c0,0,0,0,0,0c0.9-1.4,1.9-2.8,3.1-4.1c0.4-0.4-0.2-1-0.6-0.6C282,226.4,280,229.4,278.9,232.5
					L278.9,232.5z M291.7,234.2c-1.9,1.9-3.9,3.9-5.8,5.8V233l3.8-3.8c0.5,1,1,1.9,1.4,2.9C291.3,232.8,291.5,233.5,291.7,234.2
					C291.7,234.1,291.7,234.2,291.7,234.2L291.7,234.2z M279.3,234.1C279.3,234.1,279.3,234.1,279.3,234.1c0.1-0.8,0.4-1.4,0.6-2.1
					c0.4-0.9,0.9-1.9,1.4-2.8c1.2,1.2,2.5,2.5,3.8,3.8v6.9C283.1,238,281.2,236.1,279.3,234.1L279.3,234.1z"/>
				<path class="st7" d="M265.2,254.3v-62.2c0-4,3.2-7.2,7.2-7.2h26.1c4,0,7.2,3.2,7.2,7.2l0,61.8c0,3.9-1.4,5.3-5.4,5.3h-29.6
					C267,259.2,265.2,258.4,265.2,254.3z M298.5,186.7h-26.1c-2.9,0-5.3,2.4-5.3,5.3v62.2c0,2.7,0.4,3.1,3.6,3.1h29.6
					c3,0,3.6-0.6,3.6-3.4l0-61.8C303.8,189.1,301.4,186.7,298.5,186.7L298.5,186.7z"/>
				<path class="st7" d="M270.3,208.3v-13.6c0-2.1,1.7-3.9,3.9-3.9h22.4c2.1,0,3.9,1.7,3.9,3.9v13.6c0,2.1-1.7,3.9-3.9,3.9h-22.4
					C272.1,212.2,270.3,210.4,270.3,208.3z M274.2,192.7c-1.1,0-2,0.9-2,2v13.6c0,1.1,0.9,2,2,2h22.4c1.1,0,2-0.9,2-2v-13.6
					c0-1.1-0.9-2-2-2H274.2z"/>
				<path class="st7" d="M260.3,265.1v-5.7c0-1.2,1-2.1,2.1-2.1h45.7c1.2,0,2.1,1,2.1,2.1v5.7c0,1.2-1,2.1-2.1,2.1h-45.7
					C261.2,267.3,260.3,266.3,260.3,265.1z M262.4,259.2c-0.2,0-0.3,0.1-0.3,0.3v5.7c0,0.2,0.1,0.3,0.3,0.3h45.7
					c0.2,0,0.3-0.1,0.3-0.3v-5.7c0-0.2-0.1-0.3-0.3-0.3H262.4z"/>
				<path class="st7" d="M70.4,83c0.1-0.3,0.1-0.6,0.1-0.8s-0.1-0.5,0.1-0.7c-0.1-0.5,0.1-1,0.2-1.5c0-0.2,0.1-0.3,0.1-0.5
					c0-0.2,0.1-0.4,0.1-0.6c0.1-0.2,0.1-0.4,0.2-0.6s0.1-0.4,0.2-0.6c0.3-1.1,0.8-2.2,1.4-3.2c0.5-0.9,1-1.8,1.6-2.6
					c0.3-0.4,0.7-0.9,1.1-1.3c0.3-0.3,0.5-0.6,0.8-0.9c0.9-0.9,1.9-1.6,2.9-2.3c0.7-0.5,1.4-0.9,2.1-1.3c1.2-0.7,2.5-1.2,3.8-1.6
					c0.7-0.2,1.4-0.4,2-0.5c0.5-0.1,1.1-0.1,1.6-0.3c0,0,0,0,0.1,0c0.5,0,1-0.1,1.6-0.1c0.5,0,1.1,0,1.6,0c0.6,0.1,1.2,0.1,1.8,0.2
					c0.4,0.1,0.8,0.2,1.2,0.2c0.1,0,0.3,0.1,0.5,0.1c0.5,0.1,1,0.3,1.4,0.4c0.6,0.2,1.3,0.4,1.9,0.7c0.6,0.3,1.2,0.6,1.8,0.8
					c0.5,0.2,0.9,0.5,1.3,0.7c0.1,0,0.1,0.1,0.2,0.1c0.2,0.3,0.5,0.4,0.9,0.3c0.4-0.3,0.7-0.6,1-0.8c0.4-0.2,0.8-0.5,1.2-0.6
					c0.4-0.2,0.8-0.3,1.2-0.5c0.8-0.4,1.7-0.7,2.5-0.9c0.5-0.2,1.1-0.3,1.6-0.4c0.3,0,0.6,0,0.9-0.1c0.3-0.1,0.6,0,0.9-0.1
					c0.4-0.1,0.8,0,1.2-0.1c0.7-0.2,1.4-0.1,2-0.1c0.4,0,0.7,0.2,1.1,0.1c0.3,0,0.6,0.1,1,0.2c0.2,0.1,0.5,0,0.8,0.1
					c0.3,0.1,0.6,0.2,1,0.2c0.8,0.2,1.5,0.4,2.2,0.7c0.5,0.2,1,0.4,1.5,0.6c0.3,0.1,0.5,0.2,0.8,0.4c0.4,0.2,0.7,0.4,1.1,0.6
					c0.5,0.3,1,0.7,1.5,1c0.4,0.3,0.8,0.6,1.1,0.9c0.4,0.3,0.8,0.8,1.3,1.1c0.2,0.1,0.3,0.3,0.4,0.5c0.4,0.5,0.9,0.9,1.3,1.4
					c0.3,0.4,0.6,0.9,0.9,1.3c0.4,0.6,0.8,1.2,1.2,1.8c0.2,0.4,0.4,0.9,0.6,1.3c0.1,0.3,0.2,0.6,0.3,0.8c0.2,0.3,0.3,0.7,0.4,1
					c0.1,0.3,0.3,0.6,0.3,1c0.3,0.7,0.3,1.5,0.6,2.2c0,0,0,0,0,0.1c0,0.5,0.1,1.1,0.1,1.6c0,0.2,0.1,0.4,0.1,0.7
					c0.2,0.2,0.4,0.4,0.7,0.5c0.5,0.2,0.9,0.6,1.3,0.8c0.7,0.5,1.4,1,2,1.6c0.5,0.4,1,0.8,1.4,1.3c1,1.1,1.9,2.2,2.7,3.5
					c0.6,0.9,1,1.8,1.5,2.8c0.3,0.7,0.5,1.4,0.8,2.1c0.2,0.7,0.4,1.4,0.6,2.2c0,0.2,0,0.4,0.1,0.6c0.1,0.2,0.1,0.4,0.1,0.6
					c0.1,0.6,0.2,1.2,0.2,1.9c0,0.7,0,1.3,0,2s0,1.3,0,1.9c0,0.5,0,1-0.1,1.5c-0.1,0.4-0.1,0.9-0.2,1.3c-0.1,0.4-0.2,0.9-0.4,1.3
					c-0.2,0.5-0.3,1.1-0.5,1.6c-0.2,0.5-0.3,0.9-0.5,1.4c-0.2,0.3-0.3,0.7-0.5,1c-0.5,0.9-1,1.7-1.6,2.5c-0.8,1.2-1.8,2.1-2.8,3.1
					c-0.5,0.5-0.9,0.9-1.4,1.3c-0.7,0.5-1.4,1-2.1,1.4c-0.3,0.2-0.7,0.4-1,0.6c-0.5,0.3-1.1,0.5-1.6,0.7c-0.6,0.3-1.2,0.5-1.9,0.7
					c-0.7,0.2-1.3,0.4-2,0.5c-0.4,0.1-0.9,0-1.3,0.1c0,0-0.1-0.1-0.1-0.1c-0.5-0.4-0.7-0.9-0.7-1.6c0-0.3,0-0.6,0-0.8
					c0-0.3,0-0.7,0.1-1c0.1-0.3,0.3-0.6,0.6-0.7c0.4-0.1,0.8-0.2,1.2-0.3c0.4-0.1,0.7-0.3,1.1-0.3c0.2,0,0.4-0.2,0.6-0.2
					c0.4-0.1,0.7-0.4,1.1-0.5c0.5-0.2,1-0.4,1.5-0.7c0.6-0.4,1.2-0.8,1.8-1.2c0.8-0.6,1.4-1.3,2-1.9c0.7-0.7,1.3-1.5,1.9-2.4
					c0.3-0.5,0.5-0.9,0.8-1.4c0.4-0.6,0.5-1.3,0.8-2c0.1-0.4,0.3-0.7,0.4-1.1c0.2-0.2,0-0.5,0.2-0.8c0.1-0.2,0.1-0.5,0.2-0.8
					c0.1-0.3,0-0.6,0.1-0.8c0.1-0.1,0-0.2,0-0.4c0-1.4,0-2.7,0-4.1c0-0.6-0.1-1.2-0.2-1.8c-0.1-0.5-0.2-1.1-0.4-1.6
					c-0.3-0.9-0.6-1.8-1-2.6c-0.4-0.9-0.9-1.8-1.5-2.6c-0.3-0.5-0.6-1-1.1-1.4c-0.3-0.3-0.6-0.7-0.9-1c-0.6-0.5-1.2-1.1-1.8-1.6
					c-0.5-0.4-1.1-0.7-1.7-1.1c-0.5-0.3-1.1-0.6-1.6-0.9c-0.7-0.4-1.1-0.9-1.1-1.7c0-0.3-0.2-0.7-0.1-1c0-0.3,0.1-0.7,0-1
					c-0.1-0.3-0.1-0.6-0.1-0.8c0-0.2-0.1-0.5-0.2-0.8c-0.1-0.4-0.2-0.7-0.2-1.1c-0.1-0.5-0.3-0.8-0.4-1.3c-0.3-0.9-0.8-1.7-1.2-2.6
					c-0.2-0.4-0.6-0.8-0.9-1.3c-0.3-0.4-0.6-0.8-1-1.3c-0.3-0.4-0.8-0.8-1.1-1.2c-0.5-0.5-1.1-0.9-1.7-1.4c-0.6-0.4-1.2-0.8-1.8-1.2
					c-0.3-0.2-0.7-0.3-1-0.4c-0.4-0.1-0.6-0.3-1-0.4c-0.4-0.1-0.7-0.2-1-0.3c-0.3-0.1-0.5-0.2-0.8-0.2s-0.5-0.1-0.8-0.2
					c-0.3-0.1-0.7,0-1-0.1c-0.4-0.1-0.7,0-1-0.1c-0.3-0.1-0.6-0.1-0.9-0.1c-0.4,0-0.8-0.1-1.2,0.1c-0.4,0.1-0.8,0-1.1,0.1
					c-0.2,0.1-0.6,0.1-0.9,0.1c-0.3,0.1-0.6,0.2-1,0.2c-0.6,0.2-1.2,0.3-1.8,0.5c-0.7,0.3-1.4,0.6-2,0.9c-0.7,0.4-1.3,0.8-1.9,1.3
					c-0.3,0.2-0.6,0.4-0.9,0.7c-0.1,0.1-0.4,0.2-0.6,0.2c-0.2,0-0.4,0.1-0.5,0.1c-0.2,0-0.5-0.1-0.7-0.2c-0.5-0.2-1-0.5-1.4-0.8
					c-0.7-0.6-1.5-1.1-2.3-1.4c-0.5-0.2-1-0.4-1.4-0.6c-0.5-0.2-1-0.3-1.5-0.5c-0.3,0.1-0.6-0.2-0.9-0.2c-0.3-0.1-0.6-0.1-0.9-0.2
					c-0.4,0.1-0.8-0.1-1.2-0.1c-0.5,0-1-0.2-1.6-0.1c-0.4,0-0.8-0.1-1.2,0.1c-0.4,0.1-0.8,0-1.1,0.1c-0.2,0.1-0.6,0-0.9,0.1
					c-0.6,0.2-1.2,0.3-1.8,0.5c-0.5,0.2-1,0.3-1.5,0.5c-0.5,0.2-0.9,0.4-1.3,0.6c-0.7,0.4-1.4,0.8-2,1.3c-0.3,0.2-0.6,0.4-0.9,0.7
					c-0.5,0.5-1,1-1.5,1.5c-0.5,0.5-0.9,1.1-1.3,1.6c-0.6,0.8-1,1.6-1.4,2.4c-0.3,0.6-0.5,1.3-0.8,2c-0.2,0.5-0.3,1-0.4,1.5
					c-0.1,0.4-0.1,0.9-0.2,1.3c-0.1,0.6,0,1.2-0.1,1.7c0,0.4-0.1,0.7-0.1,1c-0.1,0.2-0.2,0.3-0.4,0.5c-0.3,0.3-0.6,0.6-1,0.8
					c-0.9,0.5-1.8,1-2.7,1.6c-0.3,0.2-0.6,0.5-0.8,0.7c-0.4,0.3-0.8,0.7-1.1,1c-0.8,0.8-1.4,1.6-2,2.4c-0.4,0.5-0.7,1.1-1,1.7
					c-0.2,0.5-0.5,1-0.8,1.5c-0.3,0.6-0.5,1.2-0.6,1.8c-0.2,0.6-0.3,1.2-0.5,1.8c0,0.1-0.1,0.1-0.1,0.1c0.1,0.2-0.1,0.4-0.1,0.7
					c0,0.4-0.2,0.8-0.1,1.3c0,0.4,0,0.8,0,1.3c0,0.2,0.1,0.4-0.1,0.6c-0.1,0.1,0,0.3,0,0.4c0.2,0.6,0.1,1.2,0.1,1.8
					c0.1,0.5,0.1,1.1,0.3,1.6c0.1,0.2-0.1,0.4,0.1,0.6c0,0.6,0.3,1.1,0.5,1.7c0.3,0.8,0.6,1.6,1.1,2.3c0.4,0.6,0.7,1.2,1.1,1.8
					c0.4,0.6,0.9,1.2,1.4,1.7c0.2,0.2,0.4,0.5,0.6,0.7c0.8,0.7,1.7,1.5,2.6,2.1c0.6,0.4,1.3,0.7,2,1c0.6,0.3,1.2,0.5,1.8,0.7
					c0.5,0.2,0.9,0.3,1.4,0.4c0.4,0.1,0.8,0.2,1.2,0.3c0.4,0.5,0.5,1,0.4,1.5c0,0.4,0,0.8,0,1.2c0,0.3-0.1,0.5-0.2,0.7
					c-0.1,0.4-0.4,0.6-0.9,0.6c0,0-0.1,0-0.1,0c-0.8,0.1-1.5-0.2-2.1-0.3c-0.4-0.1-0.7-0.2-1-0.3c-0.3-0.1-0.7-0.2-1-0.3
					c0,0-0.1,0-0.1,0c-0.8-0.4-1.6-0.7-2.3-1.1c-0.6-0.3-1.2-0.7-1.8-1.1c-0.8-0.6-1.6-1.1-2.2-1.8c-0.2-0.2-0.5-0.4-0.7-0.6
					c-0.5-0.6-1.1-1.1-1.5-1.7c-0.5-0.5-0.8-1.2-1.2-1.7c-0.7-0.9-1.1-2-1.7-3c-0.1-0.3-0.2-0.6-0.3-0.9c-0.1-0.3-0.2-0.6-0.3-0.9
					c-0.1-0.3-0.1-0.6-0.3-0.9c-0.1-0.7-0.4-1.4-0.4-2.2c-0.2-0.3,0-0.6-0.1-0.8c-0.1-0.3,0-0.6-0.1-0.8c-0.2-0.7-0.1-1.4-0.1-2.1
					c0-0.1,0-0.2-0.1-0.4c-0.1-0.2-0.1-0.5,0-0.6c0.1-0.3,0.1-0.6,0.1-0.8c-0.1-0.7,0.1-1.4,0.1-2.2c0-0.2,0.1-0.5,0.1-0.7
					c0-0.2,0.2-0.4,0.1-0.7c0.2-0.2,0.1-0.5,0.2-0.8c0.1-0.2,0.1-0.5,0.2-0.8c0.1-0.5,0.3-1,0.5-1.5c0.1-0.5,0.4-0.9,0.5-1.4
					c0.3-0.8,0.7-1.6,1.1-2.3c0.4-0.7,0.8-1.4,1.4-1.9c0.9-1.4,2.2-2.4,3.3-3.6c0.4-0.4,0.8-0.7,1.2-1c0.3-0.2,0.6-0.5,1-0.7
					c0.3-0.2,0.6-0.4,1-0.6C69.9,83.2,70.1,83.1,70.4,83L70.4,83z M124,92.8c-0.1-0.2,0.1-0.5-0.1-0.8c0-0.4-0.2-0.8-0.2-1.2
					c-0.4-0.9-0.6-1.9-1.2-2.7c-0.4-0.6-0.8-1.2-1.2-1.7c-0.6-0.6-1.2-1.1-1.9-1.5c-0.5-0.3-1-0.6-1.5-0.7c-0.7-0.2-1.4-0.6-2.2-0.6
					c-0.2-0.2-0.5,0-0.7-0.2h-0.8c-0.5,0-1.1,0-1.6,0c-0.5,0-1,0-1.6,0.1c-0.5,0.1-1,0.3-1.5,0.3c-0.8,0.3-1.6,0.5-2.3,0.9
					c-0.4,0.2-0.8,0.4-1.1,0.7c-0.3,0.2-0.5,0.5-0.8,0.7c-0.6,0.3-0.8,0.9-1.3,1.3c0,0.3-0.4,0.4-0.5,0.7c-0.1,0.3-0.3,0.6-0.5,0.8
					c-0.2,0.2-0.2,0.5-0.4,0.7s-0.3,0.4-0.4,0.7c-0.1,0.2-0.2,0.4-0.2,0.7c-0.1,0.5-0.3,1-0.4,1.5c-0.1,0.4,0,0.9-0.1,1.3
					c-0.1,0.3-0.1,0.6-0.1,0.9c0,0.3-0.1,0.6-0.1,0.9c0,0.2,0.1,0.4,0.1,0.7c0,0.3,0,0.7,0.1,1c0.1,0.3-0.1,0.7,0.2,0.9
					c0,0.7,0.2,1.4,0.5,2c0.3,0.9,0.7,1.8,1.3,2.6c0.2,0.4,0.5,0.7,0.8,1.1c0.5,0.6,0.8,0.9,1.5,1.4c0.7,0.5,1.5,1,2.3,1.3
					c0.4,0.2,0.8,0.3,1.2,0.4c0.4,0.2,0.9,0.1,1.3,0.3c0.2,0.1,0.5,0,0.7,0c0.3-0.1,0.5,0.1,0.7,0.1c0.5,0,1,0,1.6-0.1
					c0.5-0.1,0.9-0.1,1.4-0.1c0.5,0,1-0.2,1.4-0.3c0.8-0.2,1.5-0.5,2.2-0.9c0.6-0.4,1.2-0.7,1.7-1.2c0.4-0.4,0.7-0.7,1.1-1.1
					c0.5-0.5,0.9-1.1,1.2-1.7c0.5-0.8,0.8-1.7,1.1-2.7c0.1-0.4,0.1-0.8,0.3-1.1c0-0.1,0-0.2,0-0.3c0-0.1,0-0.2,0-0.3
					c0.2-0.2,0.1-0.5,0.1-0.7s0.1-0.4,0.1-0.7c0-0.4,0-0.8,0-1.2c0-0.4-0.1-0.8-0.1-1.2C124.1,93.4,124.2,93.1,124,92.8L124,92.8z
					 M112.7,103.2c-1.2,0.1-2.2-0.3-3.3-0.9c-0.5-0.3-0.9-0.6-1.2-1.1c-0.4-0.5-0.8-1-1.1-1.6c-0.2-0.6-0.5-1.1-0.6-1.8
					c-0.1-0.5-0.1-0.9-0.2-1.4c-0.1-0.4-0.1-0.8-0.1-1.2c0.1-0.9,0-1.7,0.4-2.6c0-0.5,0.2-1,0.4-1.4c0.4-0.8,0.8-1.5,1.4-2.1
					c0.8-0.8,1.7-1.2,2.8-1.5c0.4-0.1,0.7-0.1,1.1-0.2s0.8-0.1,1.1,0c0.5,0.1,1.1,0.1,1.6,0.3c0.5,0.2,1,0.4,1.4,0.7
					c0.3,0.2,0.6,0.6,0.9,0.8c0.6,0.5,0.9,1.1,1.2,1.8c0.1,0.3,0.2,0.7,0.3,1c0.1,0.4,0.2,0.8,0.2,1.1c0.1,0.4,0,0.9,0.1,1.3
					c0.1,0.3,0.1,0.6,0.1,0.8c-0.1,0.6,0,1.1-0.1,1.7c0,0.4-0.2,0.8-0.3,1.2c-0.1,0.3-0.1,0.6-0.2,0.9c-0.2,0.5-0.5,1-0.8,1.4
					c-0.3,0.5-0.7,0.9-1.1,1.3c-0.1,0.1-0.3,0.2-0.4,0.3c-0.3,0.2-0.6,0.3-1,0.5s-0.7,0.2-1,0.3c-0.5,0.1-1.1,0.2-1.6,0.1
					C112.7,103.2,112.7,103.2,112.7,103.2L112.7,103.2z M98.9,104.9c0-1,0-2,0-2.9c0-0.2-0.1-0.4-0.3-0.6c-0.3-0.2-0.5-0.1-0.7,0.1
					c-0.4,0.2-0.7,0.5-1.1,0.6c-0.4,0.2-0.8,0.4-1.2,0.6c-0.6,0.3-1.3,0.5-2,0.5c-0.8,0.1-1.5,0.1-2.3-0.1c-0.4-0.1-0.8-0.2-1.1-0.3
					c-1.1-0.5-1.9-1.1-2.6-2.1c-0.2-0.3-0.3-0.7-0.6-0.9c-0.1-0.5-0.5-0.9-0.5-1.5c-0.3-0.8-0.4-1.7-0.4-2.6c0-0.3,0-0.7,0.1-1
					c0.1-0.3,0-0.7,0.1-1.1c0-0.1,0.1-0.3,0.1-0.4c0.1-0.6,0.2-1.2,0.5-1.7c0.2-0.3,0.3-0.6,0.5-0.9c0.3-0.4,0.5-0.9,1-1.2
					c0.3-0.2,0.5-0.4,0.8-0.7c0-0.1,0.1-0.1,0.2-0.1c0.4-0.3,0.8-0.5,1.3-0.7c0.6-0.2,1.3-0.4,1.9-0.4c0.8,0,1.5,0,2.2,0.2
					c0.4,0.2,0.9,0.2,1.3,0.4c0.8,0.4,1.5,0.8,2.3,1.1c0.4-0.1,0.5-0.3,0.6-0.5v-4.1c-0.4-0.3-0.7-0.5-1.1-0.6
					c-0.7-0.2-1.3-0.4-2-0.6c-0.4-0.1-0.9-0.1-1.3-0.1c-0.7,0-1.5,0-2.2,0c-0.2,0-0.5-0.1-0.7,0c-0.2,0.1-0.4,0-0.6,0.1
					c-0.2,0.1-0.4,0.1-0.6,0.1c-0.3,0.1-0.5,0.1-0.8,0.2c-0.3,0.1-0.6,0.2-0.9,0.2c-0.4,0.1-0.7,0.3-1,0.5c-0.8,0.3-1.5,0.8-2.2,1.3
					c-0.9,0.8-1.7,1.6-2.3,2.7c-0.2,0.4-0.5,0.8-0.7,1.2c-0.1,0.3-0.2,0.6-0.4,0.8c0,0.1-0.1,0.2-0.1,0.2c-0.1,0.5-0.2,0.9-0.4,1.4
					c-0.1,0.5-0.2,1-0.3,1.4c-0.1,0.4,0,0.7-0.1,1.1c-0.1,0.4,0,0.8,0,1.3c0,0.4,0,0.8,0.1,1.2c0.1,0.6,0.1,1.1,0.2,1.7
					c0.1,0.4,0.2,0.8,0.3,1.2c0.2,0.5,0.4,1,0.6,1.5c0.3,0.7,0.7,1.2,1.1,1.8c0.2,0.3,0.5,0.6,0.7,0.8c0.2,0.2,0.4,0.3,0.6,0.5
					c0.3,0.3,0.6,0.5,0.9,0.7c0.7,0.5,1.4,0.9,2.1,1.2c0.4,0.1,0.7,0.3,1.1,0.4c0.4,0.1,0.8,0.1,1.1,0.2c0.3,0.1,0.6,0,1,0
					c0.3,0,0.6,0.2,0.9,0.1c0.7-0.1,1.4-0.2,2.1-0.1c0.1,0,0.3-0.1,0.4-0.1c0.1,0,0.3,0,0.4,0c0.7-0.2,1.5-0.3,2.1-0.7
					c0.6-0.3,1.2-0.4,1.6-0.9C98.9,105.3,98.9,105.1,98.9,104.9L98.9,104.9z M125,128.8c-0.4,0.1-0.7-0.1-1-0.1
					c-0.4-0.1-0.7-0.4-0.7-0.9c0-3.7,0-7.5,0-11.2c0-0.1,0-0.3,0-0.4c-0.1-0.4-0.2-0.7-0.6-0.8c-0.3-0.1-0.5-0.1-0.8-0.1
					c-1.7,0-3.3,0-5,0c-0.4,0-0.8,0.1-1.1,0.2c-0.3,0.7,0,1.4-0.2,2.1c0,0.1,0.1,0.1,0.1,0.2c-0.1,0.1-0.1,0.1-0.1,0.2
					c0.2,0.1,0,0.3,0,0.4c0,0.2,0.1,0.4,0.1,0.6c0,0.9,0,1.8,0,2.7s0,1.8,0,2.7c0,0.9-0.1,1.8-0.1,2.7c0,0.4,0,0.8-0.1,1.1
					c-0.2,0.2-0.4,0.4-0.6,0.6c-0.3,0-0.8,0.1-1.2,0.1c0,0,0,0-0.1,0c-0.2,0-0.4,0.1-0.6,0.2c-0.4,0.3-0.4,0.6-0.4,1
					c0.1,0.1,0.1,0.2,0.2,0.3c0.3,0.4,0.6,0.7,0.9,1.1c0.6,0.6,1.1,1.3,1.7,1.9c0.1,0.1,0.2,0.1,0.2,0.2c0.3,0.6,0.8,0.9,1.1,1.4
					c0.2,0.3,0.5,0.6,0.7,0.9c0.4,0.5,0.8,1,1.2,1.4c0,0,0.1,0,0.1,0c0.6,0.2,0.8,0.1,1.2-0.3c0.3-0.3,0.5-0.6,0.8-0.9
					c0.4-0.5,0.9-1,1.3-1.5c0.5-0.6,1-1.1,1.5-1.7c0.2-0.2,0.4-0.4,0.5-0.7c0.3-0.6,0.8-1,1.2-1.5c0.3-0.4,0.6-0.8,0.5-1.4
					c-0.2-0.2-0.4-0.4-0.6-0.6C125.2,128.8,125.1,128.8,125,128.8L125,128.8z M88.6,115.2c-0.3,0-0.5,0-0.8,0
					c-1.7,0.1-3.5-0.1-5.2,0.1c-0.2,0.2-0.3,0.3-0.4,0.3c-0.3,0.8-0.2,1.4-0.2,2.1c0,1.8,0,3.6,0,5.3v4.8c-0.1,0.4-0.4,0.7-0.6,0.7
					c-0.3,0-0.6,0.1-1,0.1c-0.5,0-0.8,0.2-1.1,0.6c-0.1,0.5,0,1,0.3,1.4c0.1,0.1,0.2,0.2,0.3,0.3c0.4,0.4,0.8,0.8,1.1,1.2
					c0.3,0.4,0.6,0.7,0.9,1.1c0.3,0.4,0.6,0.7,0.9,1c0.5,0.7,1,1.4,1.7,2c0.1,0.1,0.1,0.1,0.2,0.2c0.2,0.4,0.6,0.7,1,0.9
					c0.3,0,0.7,0.1,0.9-0.2c0.3-0.4,0.7-0.7,0.9-1.1c0.4-0.6,0.8-1.1,1.3-1.6c0.4-0.5,0.9-0.9,1.3-1.4c0.4-0.6,0.8-1.1,1.3-1.6
					c0.5-0.4,0.8-1,1.2-1.5c0-0.1,0-0.2,0-0.4c0-0.4-0.5-0.9-0.8-0.9c-0.5,0-1-0.1-1.5-0.1c-0.1-0.2-0.3-0.4-0.5-0.6
					c0-0.4,0-0.9,0-1.3c0-0.4-0.1-0.8-0.1-1.2c0-3.1,0-6.3,0-9.4v-0.5c-0.1-0.2-0.3-0.3-0.4-0.4C89.1,115.3,88.9,115.2,88.6,115.2
					L88.6,115.2z M107.6,136.1c-0.3,0-0.5-0.2-0.7-0.3c-0.2-0.1-0.2-0.3-0.3-0.5c-0.1-0.2-0.1-0.4-0.1-0.5c0-3.8,0-7.7,0-11.4
					c0-0.1-0.1-0.2-0.1-0.2c-0.2-0.4-0.5-0.7-1-0.7c-1.8,0-3.6,0-5.4,0c-0.4,0-0.7,0.1-0.9,0.5c0,0.1-0.1,0.1-0.2,0.2
					c0,3.6,0,7.2,0,10.8c0,0.5,0.1,1.1-0.1,1.6c-0.1,0.1-0.2,0.3-0.3,0.3c-0.2,0.1-0.3,0.1-0.4,0.1c-0.2,0.1-0.4,0.1-0.6,0.1
					c-0.3-0.3-0.6,0.1-0.9,0c-0.1,0-0.2,0.1-0.3,0.1c-0.1,0.1-0.2,0.3-0.3,0.4c0,0.1,0,0.3,0,0.5c0.3,0.4,0.7,0.9,1,1.4
					c0.3,0.4,0.7,0.8,1.1,1.2c0.2,0.3,0.5,0.5,0.7,0.8c0.3,0.4,0.6,0.8,0.9,1.1c0.3,0.3,0.6,0.6,0.9,1c0.3,0.4,0.6,0.9,1,1.2
					c0.1,0.1,0.2,0.2,0.3,0.3c0.1,0.2,0.3,0.3,0.5,0.3c0.1,0,0.1,0.1,0.2,0.1c0.6-0.1,1-0.4,1.2-0.8c0.5-0.7,1.1-1.4,1.8-2.1
					c0.2-0.2,0.5-0.5,0.6-0.7c0.3-0.6,0.9-1,1.2-1.6c0.3-0.4,0.6-0.7,0.9-1.1c0,0,0-0.1,0.1-0.1c0.3-0.4,0.5-0.7,0.8-1.1v-0.6
					c-0.1-0.2-0.3-0.4-0.5-0.6C108.4,136.1,108,136,107.6,136.1L107.6,136.1z M130.6,104.5c0.6-0.4,1.2-0.9,1.7-1.4
					c0.2-0.2,0.5-0.4,0.7-0.7c0.5-0.5,0.8-1.1,1-1.8c0.1-0.7,0.1-1.3,0-1.9c-0.2-0.8-0.7-1.4-1.5-1.9c-0.2-0.1-0.3-0.3-0.5-0.3
					c-0.6-0.1-1.1-0.3-1.7-0.3c-0.5,0-1,0-1.5,0.1c-0.4,0.1-1,0.2-1.3,0.5c-0.6,0.4-1,0.9-1.4,1.5c-0.2,0.5-0.4,1-0.4,1.5
					c0,0.1-0.1,0.2-0.1,0.3c-0.1,0.2,0,0.3,0.2,0.4c0.2,0,0.5,0.1,0.7,0.1c0.6,0,1.3,0,2,0c0-0.1,0.1-0.2,0.1-0.2
					c0-0.3,0.1-0.6,0.3-0.9c0.1-0.2,0.2-0.5,0.5-0.6c0.3-0.1,0.5-0.1,0.8,0c0.2,0.1,0.4,0.1,0.5,0.3c0.1,0.3,0.3,0.5,0.3,0.8
					c0,0.3-0.1,0.5-0.3,0.7c-0.4,0.5-0.8,0.9-1.3,1.3s-1,0.8-1.4,1.2c-0.4,0.4-0.8,0.8-1.1,1.2c-0.2,0.3-0.5,0.6-0.6,1
					c-0.1,0.3-0.5,0.6-0.4,1.1c-0.2,0.2,0,0.5-0.1,0.7c-0.2,0.4,0,0.7-0.1,1.1c0,0.1,0.1,0.2,0.1,0.2h8.2c0.3-0.2,0-0.6,0.2-0.8
					c0.2-0.3,0-0.6,0.2-0.9c0.1-0.2,0-0.6,0-0.8c-0.4-0.1-0.6-0.1-1-0.1c-0.3,0-0.7,0-1,0h-1.9c-0.1-0.1-0.3-0.2-0.4-0.3v-0.4
					C130.2,104.9,130.4,104.7,130.6,104.5z"/>
			</g>
		</g>
	</g>
</g>
</svg>
