<?xml version="1.0" encoding="utf-8"?>
<!-- Generator: Adobe Illustrator 27.5.0, SVG Export Plug-In . SVG Version: 6.00 Build 0)  -->
<svg version="1.1" id="_圖層_2" xmlns="http://www.w3.org/2000/svg" xmlns:xlink="http://www.w3.org/1999/xlink" x="0px" y="0px"
	 width="391.2px" height="391.2px" viewBox="0 0 391.2 391.2" enable-background="new 0 0 391.2 391.2" xml:space="preserve">
<g>
	<g>
		<g>
			<path fill="#0AA07D" d="M1.8,0v187.9c0,83.9,73.3,152,163.8,152h202.5V152c0-83.9-73.3-152-163.8-152H1.8z"/>
		</g>
	</g>
	<path opacity="0.1" enable-background="new    " d="M1.8,68.5v119.3c0,83.9,73.3,152,163.8,152h202.5v-4.6
		C187.3,283.5,65.8,154.6,1.8,68.5z"/>
	<path opacity="0.15" fill="#FFFFFF" enable-background="new    " d="M1.8,0v3.6C59.3,13.9,241.2,58.7,368.1,226v-74
		c0-83.9-73.3-152-163.8-152H1.8z"/>
</g>
<g>
	<g>
		<rect x="366.1" y="116.2" fill="#0AA07D" width="25.1" height="275"/>
	</g>
</g>
<g>
	<g>
		<g>
			<defs>
				<path id="SVGID_1_" d="M215.4,304.8h-56.1c-69.1,0-125.6-56.5-125.6-125.6V41.6h125.6h56.1c69.1,0,125.6,56.5,125.6,125.6v137.5
					L215.4,304.8L215.4,304.8z"/>
			</defs>
			<clipPath id="SVGID_00000121963089315351754760000008746387999476538803_">
				<use xlink:href="#SVGID_1_"  overflow="visible"/>
			</clipPath>
			<g clip-path="url(#SVGID_00000121963089315351754760000008746387999476538803_)">
				<rect x="25.5" y="10.5" fill="#FFFAD8" width="318.9" height="318.9"/>
				<path fill="#FCE29F" d="M251.8,213.4h83.5l-11.5-5.4c0,0,2.7-4.8-2.7-10.2s-13.6-3.4-13.6-3.4s-1.4-10.2-9.5-10.9
					c-9.5-0.8-12.9,7.5-12.9,7.5s-5.4-6.8-13.6-2s-4.8,11.5-4.8,11.5s-5.4-3.4-11.5,1.4C250.3,205.7,251.8,213.4,251.8,213.4z"/>
				<path fill="#FCE29F" d="M48.8,141.9h83.5l-11.5-5.4c0,0,2.7-4.8-2.7-10.2c-5.4-5.4-13.6-3.4-13.6-3.4s-1.4-10.2-9.5-10.9
					c-9.5-0.8-12.9,7.5-12.9,7.5s-5.4-6.8-13.6-2S63.7,129,63.7,129s-5.4-3.4-11.5,1.4C47.2,134.2,48.8,141.9,48.8,141.9z"/>
				<g>
					<g>
						
							<rect x="230.6" y="192.8" transform="matrix(0.7305 -0.6829 0.6829 0.7305 -76.9546 237.8056)" fill="#FFFFFF" width="64.4" height="47.3"/>
						<path fill="#DC5A32" d="M258.3,205.8c2.4,0.1,4.8,0.3,7.1,0.7c1.9,0.3,4.8,0.4,6.5,1.3c-0.8-1.3-1.5-2.6-2.3-4
							c0,0.2,0,0.5,0,0.7c0.4-1.1,0.9-2.2,1.3-3.2c-1.9,2.1-5.7,2.3-8.4,2.6c-3.4,0.3-6.8,0.6-10.1,1.4c-4.7,1.2-4,7.3,0,8.8
							c6,2.2,11.9,4.5,17.9,6.7c-0.7-2.6-1.3-5.1-2-7.7c0.4-0.3-0.1,0.1-0.5,0.1c-0.5,0-1,0-1.4,0c-1.2,0-2.3-0.1-3.5,0
							c-2.7,0.2-5.1,1-7,3c-2,2.1-1.7,5.8,0.9,7.2c1.5,0.8,3,1.6,4.6,2.5c0.7,0.4,1.4,0.7,2,1.1c0.3,0.2,0.7,0.4,1,0.5
							c1.2,0.8,1,0.1-0.9-2.2c0.4-1.1,0.9-2.2,1.3-3.2c0.7-0.4,0.5-0.4-0.7,0c-0.5,0.1-1.1,0.2-1.6,0.4c-1.3,0.3-2.5,0.5-3.8,0.8
							c-3.1,0.7-4.7,5.5-2,7.7c1.4,1.1,2.9,2.3,4.3,3.4c2,1.5,4.6,1.9,6.5,0c1.6-1.6,1.9-5,0-6.5c-1.4-1.1-2.9-2.3-4.3-3.4
							c-0.7,2.6-1.3,5.1-2,7.7c4.2-0.9,11.5-1.2,11.6-7.1c0.1-5.2-7.6-7.6-11.3-9.6c0.3,2.4,0.6,4.8,0.9,7.2c0.8-0.9,4-0.2,5.2-0.2
							c2.8-0.1,5.1-0.9,7.2-2.8c2.8-2.5,0.9-6.5-2-7.7c-6-2.2-11.9-4.5-17.9-6.7c0,2.9,0,5.9,0,8.8c4.5-1.2,9.2-1,13.8-1.9
							c4.2-0.9,10.3-3.2,10-8.4c-0.1-1.5-0.8-3.2-2.3-4c-5.3-2.6-12.4-2.9-18.2-3.2C252.4,196.3,252.4,205.5,258.3,205.8
							L258.3,205.8z"/>
					</g>
					<polygon fill="#DFE1E0" points="265,182 253.2,237.7 233.2,233.4 229.1,227.9 					"/>
					<g>
						
							<rect x="202.7" y="174.4" transform="matrix(0.2152 -0.9766 0.9766 0.2152 -8.9888 384.8477)" fill="#FFFFFF" width="64.4" height="47.3"/>
						<path fill="#FBC700" d="M229.5,191.5c2.1-1.6,4.4-3,6.8-4.2c0.6-0.3,1.3-0.6,2-0.8c1.1-0.3,1.2-0.4,0.4-0.2
							c0.8,0.5,1.5,2,1.9,2.8c0.3,0.5,0.5,0.9,0.8,1.4c0.4,1.4,0.7,1.3,1-0.4c0.1,0.1-1.8,0.8-1.9,0.9c-1.3,0.4-2.7,0.7-4,0.9
							c-0.8,0.1-1.5,0.1-2.3,0.2c-1.5-0.1-1.1,0.4,1.2,1.6c0,0.8,0,1.7,0,2.5c0-0.1-1.4,0.6,0.1,0.6c0.1,0.1,0.2,0.3,0.3,0.4
							c0.1-0.3,0.2-0.6,0.3-0.9c-0.5,0.3-0.9,0.7-1.4,1c-2.6,1.6-5.5,2.6-8.4,3.5c-1.9,0.6-3.6,2.5-3.5,4.6c0.2,3.6,2.2,5.2,5,7.2
							c2.4,1.7,4.7,3.6,7.4,4.9c5.8,2.6,12.5-1.2,11.3-7.9c-1.1-6.3-7.9-8.3-13.4-6.9c-2.7,0.7-4.9,2.1-7,3.8
							c-0.5,0.4-2.2,1.5-2.3,1.7c0.2-0.6,0.9,1.8,0.8,0.3c0-0.6-0.9-1.7-1.2-2.1c-3.4-5.1-11.7-0.3-8.3,4.8c1.9,2.9,3.1,5.6,6.9,6.3
							c3.5,0.7,6.7-1,9.3-3.1c1.1-0.9,2-1.8,3.3-2.3c0.4-0.2,1-0.4,1.5-0.4c2.6-0.2,0.3,0.1,1.1-0.4c-0.7-1.1-0.1-1.9,1.9-2.5
							c-0.2-0.1-0.5-0.3-0.7-0.4c-0.5-0.6-1.6-1.1-2.2-1.5c-1.1-0.8-3.8-2-4.6-3.2c0.2,0.8,0.4,1.6,0.7,2.4c0-0.3,0-0.5-0.1-0.8
							c-1.2,1.5-2.3,3.1-3.5,4.6c4.7-1.5,10.5-3.3,14-7c3.7-3.8,3-9.3-0.6-13c-3.6-3.6-9.8-4.5-13.7-0.8c-4,3.7-3,10.6,2.6,12.1
							c4.4,1.2,11.1-0.2,15.2-2.3c4.7-2.4,6.3-7.1,4.1-11.9c-2-4.3-5.3-10-10.6-10.4c-5.2-0.3-11.1,3.6-15.1,6.6
							c-2.1,1.6-3.1,4.1-1.7,6.5C224.1,191.9,227.4,193.1,229.5,191.5L229.5,191.5z"/>
					</g>
				</g>
				<g>
					<g>
						<g>
							<g>
								<polygon fill="#FBC700" points="182.4,185.2 172.9,188.5 166.2,228.7 207.7,229 201.7,187.3 192.9,184.8 								"/>
								<g>
									<g>
										<path fill="#F6C09C" d="M154.7,177.4c0-0.9-0.2-1.7-0.7-2.4c-0.8-1.2-2.2-3.1-3.3-2.9c-1.6,0.2-1.7,2.1-1.7,2.1
											s-1.2-1.7-3.3-0.5s-2.9,7-1,8.9s4.7,1,4.7,1s1.6,1.2,3.5-0.2C154.3,182.4,154.6,179.2,154.7,177.4z"/>
										<path fill="#D0805C" d="M149.4,183.9h-0.1c-0.2-0.1-0.3-0.2-0.2-0.4c0,0,1.2-3.9,0.8-6.2c0-0.2,0.1-0.4,0.3-0.4
											s0.4,0.1,0.4,0.3c0.5,2.4-0.7,6.3-0.8,6.5C149.7,183.8,149.6,183.9,149.4,183.9z"/>
									</g>
									<path fill="#FBC700" d="M173.8,188l-14,4.9l-6-11.5l-7.5,2.8c0,0,5.5,17.7,6.8,18.8s20.3,2.1,20.3,2.1S175.7,195,173.8,188
										z"/>
								</g>
								<path fill="#F6C09C" d="M191.1,180.2l1.6,5.6c0,0-4.5,2.6-10.5,0.4l1.6-5.7L191.1,180.2z"/>
							</g>
						</g>
						<path fill="#FBC700" d="M201.7,187.3c0,0,7.6,4.2,17.1,15.3l-10.2,3.8l-6.9-3.2L201.7,187.3z"/>
						<g>
							<g>
								<path fill="#DAAB50" d="M203.9,220.4c5.9,4.1,15.3,7,26.8,0.5c13.2-7.4,11.8-23.5,3.3-27.5c-6.7-3.2-11.7-0.7-13.8,3.2
									s-2.7,6.3-8,5.8s-9.5-0.1-11.8,3.9C197.5,211.2,199.7,217.5,203.9,220.4z M231.3,197.7c2,0.9,3.3,2.8,2.8,4.3
									c-0.5,1.4-2.6,1.9-4.6,1s-3.3-2.8-2.8-4.3C227.3,197.2,229.3,196.8,231.3,197.7z"/>
							</g>
							<path fill="#76AB39" d="M213.3,214.4c-2.5,0.4,0.4-1.5-4.3-1.6c-4.7-0.2-4.5-2.3-1.9-4.1c2.5-1.8,6.4-3.9,7.8-2.1
								s5.2,0.7,3.7,3.5C217.1,212.8,215.5,214.1,213.3,214.4z"/>
							<path fill="#FBC700" d="M220.7,212.5c-3.1,0.9-7.2,1-5.8-0.8s0.6-1.2-1.2-3.4s3-3,5.6-3.9s0.8,1.9,3,3.2
								C224.5,208.9,225,211.2,220.7,212.5z"/>
						</g>
						<path fill="#76AB39" d="M234.6,209.1c0.1,1.6-1.7,3-3.8,3.1c-2.2,0.1-4-1.2-4-2.8c-0.1-1.6,1.7-3,3.8-3.1
							C232.7,206.3,234.5,207.5,234.6,209.1z"/>
						<path fill="#FBC700" d="M228.6,215.9c0.1,1.6-1.7,3-3.8,3.1c-2.2,0.1-4-1.2-4-2.8c-0.1-1.6,1.7-3,3.8-3.1
							C226.8,213,228.6,214.2,228.6,215.9z"/>
						<path fill="#FFFFFF" d="M218.7,218.3c0.1,1.6-1.7,3-3.8,3.1c-2.2,0.1-4-1.2-4-2.8c-0.1-1.6,1.7-3,3.8-3.1
							C216.9,215.4,218.7,216.7,218.7,218.3z"/>
						<path fill="#F6C09C" d="M228,197.8c0,0,6.1-1,6.9,1.1c0.8,2.1-6.4,3.3-6.4,3.3S223.6,199.3,228,197.8z"/>
						<g>
							<polygon fill="#C68034" points="140.2,159.3 146.5,157.3 147.1,162 146.3,163.8 143.9,164.5 142,163.5 							"/>
							<path fill="#C68034" d="M146.4,163.4l10.8,36.4c0.1,0.5-0.1,1-0.6,1.2l0,0c-0.5,0.2-1-0.1-1.2-0.6l-12-36L146.4,163.4z"/>
							<g>
								<g>
									<path id="XMLID_57_" fill="#FFFFFF" d="M146.5,157.3c0,0-0.2-5-2.1-9.6l-8.3,2.6c0,0,2.2,2.7,4.1,8.9L146.5,157.3z"/>
								</g>
								<g>
									<defs>
										<path id="SVGID_00000058559755502528053850000011349329732343328899_" d="M146.5,157.3c0,0-0.2-5-2.1-9.6l-8.3,2.6
											c0,0,2.2,2.7,4.1,8.9L146.5,157.3z"/>
									</defs>
									<clipPath id="SVGID_00000143608235817949814210000017115517730232965000_">
										<use xlink:href="#SVGID_00000058559755502528053850000011349329732343328899_"  overflow="visible"/>
									</clipPath>
									<path clip-path="url(#SVGID_00000143608235817949814210000017115517730232965000_)" fill="#569A36" d="M137.5,154.5
										c1.6,1.1,2.3,0.7,3.2-0.3c1-1,1.9-0.9,2.7-0.7c0.9,0.2,1.3-1,2.3-1.5c0.9-0.5,0.9-0.5,0.9-0.5l-1.3-4.6l-10.2,3.3
										L137.5,154.5z"/>
								</g>
								<g>
									<defs>
										<path id="SVGID_00000023266848006623460070000017053443564401200299_" d="M146.5,157.3c0,0-0.2-5-2.1-9.6l-8.3,2.6
											c0,0,2.2,2.7,4.1,8.9L146.5,157.3z"/>
									</defs>
									<clipPath id="SVGID_00000039849176142122298610000001004962099537126559_">
										<use xlink:href="#SVGID_00000023266848006623460070000017053443564401200299_"  overflow="visible"/>
									</clipPath>
									<path clip-path="url(#SVGID_00000039849176142122298610000001004962099537126559_)" fill="#308539" d="M139.7,153.7
										C139.6,153.7,139.6,153.7,139.7,153.7c-0.2,0.1-0.3,0-0.4-0.1c0,0-1.1-2.8-2.8-4.7c-0.1-0.1-0.1-0.3,0-0.4
										c0.1-0.1,0.3-0.1,0.4,0c1.8,2,2.8,4.8,2.9,4.9C139.8,153.5,139.8,153.6,139.7,153.7z"/>
								</g>
								<g>
									<defs>
										<path id="SVGID_00000068645346066555565950000012376041394416029326_" d="M146.5,157.3c0,0-0.2-5-2.1-9.6l-8.3,2.6
											c0,0,2.2,2.7,4.1,8.9L146.5,157.3z"/>
									</defs>
									<clipPath id="SVGID_00000088126899258514165850000013237280364745291676_">
										<use xlink:href="#SVGID_00000068645346066555565950000012376041394416029326_"  overflow="visible"/>
									</clipPath>
									<path clip-path="url(#SVGID_00000088126899258514165850000013237280364745291676_)" fill="#308539" d="M141,153.3
										L141,153.3c-0.2,0.1-0.3,0-0.4-0.1c0,0-1.1-2.8-2.8-4.7c-0.1-0.1-0.1-0.3,0-0.4c0.1-0.1,0.3-0.1,0.4,0
										c1.8,2,2.8,4.8,2.9,4.9C141.2,153.1,141.1,153.2,141,153.3z"/>
								</g>
								<g>
									<defs>
										<path id="SVGID_00000126281447240689958500000002777970738706613649_" d="M146.5,157.3c0,0-0.2-5-2.1-9.6l-8.3,2.6
											c0,0,2.2,2.7,4.1,8.9L146.5,157.3z"/>
									</defs>
									<clipPath id="SVGID_00000000926223553371682560000012810683065138164098_">
										<use xlink:href="#SVGID_00000126281447240689958500000002777970738706613649_"  overflow="visible"/>
									</clipPath>
									<path clip-path="url(#SVGID_00000000926223553371682560000012810683065138164098_)" fill="#308539" d="M142.3,152.8
										L142.3,152.8c-0.2,0.1-0.3,0-0.4-0.1c0,0-1.1-2.8-2.8-4.7c-0.1-0.1-0.1-0.3,0-0.4c0.1-0.1,0.3-0.1,0.4,0
										c1.8,2,2.8,4.8,2.9,4.9C142.5,152.6,142.4,152.8,142.3,152.8z"/>
								</g>
								<g>
									<defs>
										<path id="SVGID_00000068644842645289260310000014721719314728832172_" d="M146.5,157.3c0,0-0.2-5-2.1-9.6l-8.3,2.6
											c0,0,2.2,2.7,4.1,8.9L146.5,157.3z"/>
									</defs>
									<clipPath id="SVGID_00000149364074008944224860000017002310249066283950_">
										<use xlink:href="#SVGID_00000068644842645289260310000014721719314728832172_"  overflow="visible"/>
									</clipPath>
									<path clip-path="url(#SVGID_00000149364074008944224860000017002310249066283950_)" fill="#308539" d="M143.7,152.4
										C143.7,152.4,143.6,152.4,143.7,152.4c-0.2,0.1-0.3,0-0.4-0.1c0,0-1.1-2.8-2.8-4.7c-0.1-0.1-0.1-0.3,0-0.4
										c0.1-0.1,0.3-0.1,0.4,0c1.8,2,2.8,4.8,2.9,4.9C143.8,152.2,143.8,152.3,143.7,152.4z"/>
								</g>
								<g>
									<defs>
										<path id="SVGID_00000050623583528882427190000007477904754109945755_" d="M146.5,157.3c0,0-0.2-5-2.1-9.6l-8.3,2.6
											c0,0,2.2,2.7,4.1,8.9L146.5,157.3z"/>
									</defs>
									<clipPath id="SVGID_00000166660470185364045500000005244891764428659329_">
										<use xlink:href="#SVGID_00000050623583528882427190000007477904754109945755_"  overflow="visible"/>
									</clipPath>
									<path clip-path="url(#SVGID_00000166660470185364045500000005244891764428659329_)" fill="#308539" d="M145,152L145,152
										c-0.2,0.1-0.3,0-0.4-0.1c0,0-1.1-2.8-2.8-4.7c-0.1-0.1-0.1-0.3,0-0.4c0.1-0.1,0.3-0.1,0.4,0c1.8,2,2.8,4.8,2.9,4.9
										C145.2,151.8,145.1,151.9,145,152z"/>
								</g>
							</g>
						</g>
						<path fill="#F6C09C" d="M149.5,173c-2.2,2.6-3.2,6.1-1.4,6.2c1.8,0.2,3.8-2.4,3.8-2.4L149.5,173z"/>
						<path fill="#F6C09C" d="M144.9,172.7c4-1.1,6.3,8.9,2.2,10.1C143,184,141.3,173.8,144.9,172.7z"/>
					</g>
					<g>
						<g>
							<path fill="#DC5A32" d="M188.7,135.1c10-2.3,23.7-1.4,24.9,9.6c1.1,11-8.9,15.7-14.6,18c-5.7,2.3-23.6,2.4-30.1-3.6
								s-11.1-14.7-4.7-21.8C172.7,127.7,188.7,135.1,188.7,135.1z"/>
							<path fill="#DC5A32" d="M188.7,138L188.7,138c-0.6,0.1-1.1-0.2-1.2-0.8c0-0.2-1.2-5.6,3.1-9.9c0.4-0.4,1-0.4,1.4,0
								s0.4,1,0,1.4c-3.5,3.5-2.6,7.8-2.6,8C189.6,137.3,189.3,137.9,188.7,138z"/>
						</g>
						<path fill="#DE913A" d="M186.4,138.2c11.2-2.5,20,3.1,24.1,12.9c4.1,9.8-1.3,22.5-6.3,25.2c-5.1,2.7-28.4,5.6-34.4,0.1
							c-6-5.5-10.5-17.6-5.7-26.8C171.8,134.8,186.4,138.2,186.4,138.2z"/>
						<g>
							<path fill="#F6C09C" d="M204.8,162.8c3.7-1.8,8.7,2,6.6,7c-2.2,5-5.8,4.7-5.8,4.7l-2.1-4.9L204.8,162.8z"/>
							<g>
								<g>
									<path fill="#F6C09C" d="M204,153c3,3,3.3,9.7,1.2,15.4c0,0,2,3,0.7,6.1c-1.8,4.3-8.6,8-18.1,8.3
										c-9.4,0.3-14.8-2.6-17.1-4.4c-2.7-2.2-3.3-6.4-2-7.8c0,0-3.2-6.2-1.6-12.1c1.6-5.9,8.1-10.3,17.3-11.6
										C193.7,145.7,200.7,149.6,204,153z"/>
									<path fill="#DA842E" d="M185.6,169.7h-0.1c-0.2-0.1-0.3-0.3-0.2-0.4c0.2-0.4,1-2.3,2.1-2.4c1.1-0.1,2.1,1.9,2.3,2.2
										c0.1,0.2,0,0.4-0.2,0.5s-0.4,0-0.5-0.2c-0.4-0.8-1.1-1.9-1.6-1.8c-0.5,0-1.2,1.2-1.5,2
										C185.9,169.6,185.8,169.7,185.6,169.7z"/>
									<g>
										<path fill="#FFFFFF" d="M195.2,161.6c5.1-0.2,4.9,7.5,0.3,7.7C190.8,169.4,190.7,161.7,195.2,161.6z"/>
										<path fill="#0097A0" d="M195.3,163.1c3.3-0.2,3.1,5.1,1,5.7c-1.6,0.5-2.5-0.2-2.9-1C192.9,166.9,192.3,163.3,195.3,163.1z
											"/>
										<path fill="#DA842E" d="M199.2,164.8c-0.1,0-0.3-0.1-0.3-0.2c-0.6-1.6-1.5-2.6-2.6-3c-1.1-0.3-2.2,0.1-2.8,0.5
											c-0.2,0.1-0.4,0.1-0.5-0.1c-0.1-0.2-0.1-0.4,0.1-0.5c0.8-0.6,2.1-1,3.4-0.6c0.9,0.3,2.2,1.1,3,3.4c0.1,0.2,0,0.4-0.2,0.4
											C199.3,164.8,199.3,164.8,199.2,164.8z"/>
									</g>
									<g>
										<path fill="#FFFFFF" d="M179.2,162.2c-5.1-0.3-5.1,7.5-0.4,7.7C183.4,170.1,183.6,162.4,179.2,162.2z"/>
										<path fill="#0097A0" d="M179.4,163.7c-3.3-0.2-3.4,4.8-1.4,5.6c1.2,0.5,2.4,0,3-0.8C181.8,167.5,182,163.8,179.4,163.7z"
											/>
										<path fill="#DA842E" d="M175.1,165.3H175c-0.2-0.1-0.3-0.3-0.2-0.4c0.9-2.3,2.2-3.1,3.1-3.3c1.3-0.4,2.6,0.1,3.4,0.7
											c0.2,0.1,0.2,0.3,0.1,0.5c-0.1,0.2-0.3,0.2-0.5,0.1c-0.6-0.5-1.7-0.9-2.8-0.6c-1.1,0.3-2,1.3-2.6,2.9
											C175.3,165.3,175.2,165.3,175.1,165.3z"/>
									</g>
								</g>
							</g>
							<path fill="#D0805C" d="M205.9,174.9L205.9,174.9c-0.3-0.1-0.4-0.2-0.3-0.4c0.7-3-0.6-5.9-0.7-5.9c0-0.1,0-0.2,0-0.2l1.4-5.9
								c0-0.2,0.2-0.3,0.4-0.3s0.3,0.2,0.3,0.4l-1.3,5.8c0.3,0.6,1.4,3.3,0.6,6.2C206.2,174.8,206.1,174.9,205.9,174.9z"/>
							<path fill="#DA842E" d="M209.3,166.8c0,0-2.6-1.3-4.1,1.5l0.6-2.1C205.8,166.3,207.6,164.8,209.3,166.8z"/>
							<path fill="#F6C09C" d="M169.1,164c-3.8-1.5-8.6,2.6-6,7.5c2.5,4.8,6.2,4.3,6.2,4.3l1.8-5L169.1,164z"/>
							<path fill="#D0805C" d="M168.7,176.2c-0.1,0-0.3-0.1-0.3-0.2c-0.9-2.9,0-5.7,0.2-6.3l-1.7-5.7c-0.1-0.2,0-0.4,0.2-0.4
								c0.2-0.1,0.4,0,0.4,0.2l1.8,5.8c0,0.1,0,0.2,0,0.2s-1.2,3-0.2,5.9c0.1,0.2,0,0.4-0.2,0.4
								C168.8,176.2,168.8,176.2,168.7,176.2z"/>
							<path fill="#DA842E" d="M164.8,168.4c0,0,2.5-1.5,4.2,1.3l-0.7-2.1C168.3,167.6,166.4,166.2,164.8,168.4z"/>
						</g>
						<g>
							<g>
								<path id="XMLID_58_" fill="#DE913A" d="M168.5,166.9c0,0-2.2-2.3-2.7-4.8c-0.8-3.7-0.4-17.3,18.1-19
									c21.6-2,25.6,10.4,24.8,16.7c-0.3,2.5-2.3,5.3-2.3,5.3l-1.6-6.6l-13.6-9.3c0,0,1.4,5.7,3,6.6c-4.2-0.2-9.1-2.1-11.8-6.9
									c0,0-4.4,5.4-13.2,14.1L168.5,166.9z"/>
							</g>
						</g>
						<path fill="#E95C3A" d="M182.6,171.9c0,0,3.6,1.2,9.2,0.1c0,0-1.5,6.5-4.7,6.6C183.3,178.7,182.6,171.9,182.6,171.9z"/>
						<path fill="#DC5A32" d="M162.8,150.7c0,0,9.4-10.5,24.9-9.3c15.5,1.1,22.8,9.7,22.8,9.7s0-13.7-22.5-14.2
							C167,136.4,162.8,150.7,162.8,150.7z"/>
					</g>
				</g>
				<g>
					<path fill="#E95C3A" d="M318.9,128.6c0,0,8.7,9.8,3.6,20c-5.2,10.2-12.4,8-13.8,22.8c-1.2,11.9-6.2,18.9-14.3,19.8
						c-13.8,1.5-16.3-25.5,4.6-34.5c8.5-3.7,16.2-9.5,14.9-26.6L318.9,128.6z"/>
					<g>
						<g>
							<g>
								<g>
									<path id="XMLID_55_" fill="#CCCFCF" d="M322,114.7c0,0-4.4-24.1-11-36.6l-21.4,10.3c0,0,14.1,19.2,15.2,31.2L322,114.7z"/>
								</g>
								<g>
									<defs>
										<path id="SVGID_00000124884420945949441480000002908860327589317805_" d="M322,114.7c0,0-4.4-24.1-11-36.6l-21.4,10.3
											c0,0,14.1,19.2,15.2,31.2L322,114.7z"/>
									</defs>
									<clipPath id="SVGID_00000180324772096328090420000002966128770469603007_">
										<use xlink:href="#SVGID_00000124884420945949441480000002908860327589317805_"  overflow="visible"/>
									</clipPath>
									<polygon clip-path="url(#SVGID_00000180324772096328090420000002966128770469603007_)" fill="#E95C3A" points="
										322.5,109.2 300,116.4 289.8,95 317.4,82.6 									"/>
								</g>
							</g>
							<polygon fill="#B2B2B2" points="322,114.7 318.5,122.7 310.6,124.4 304.8,119.6 							"/>
							<polygon fill="#CCCFCF" points="318.5,122.7 320.6,128.9 312.2,130.9 310.6,124.4 							"/>
							<polygon fill="#B2B2B2" points="289.6,88.4 285.7,85.5 308.2,74.6 311,78.1 							"/>
						</g>
						<path fill="#FFFFFF" d="M315.7,106.8c-0.7,0-1.4-0.5-1.6-1.3c0-0.1-3.1-11.6-6.7-20.3c-0.4-0.9,0-1.8,0.9-2.2
							c0.9-0.4,1.8,0,2.2,0.9c3.7,8.9,6.7,20.3,6.8,20.7c0.2,0.9-0.3,1.8-1.2,2.1C315.9,106.8,315.8,106.8,315.7,106.8z"/>
					</g>
				</g>
				<g>
					<g>
						<defs>
							<rect id="SVGID_00000076600256766138308630000008897817278227844510_" x="25.5" y="10.5" width="318.9" height="318.9"/>
						</defs>
						<clipPath id="SVGID_00000172429892675955043860000000756421513487179924_">
							<use xlink:href="#SVGID_00000076600256766138308630000008897817278227844510_"  overflow="visible"/>
						</clipPath>
						<g clip-path="url(#SVGID_00000172429892675955043860000000756421513487179924_)">
							<g>
								<g>
									<path fill="#71B939" d="M312.2,257.2c11.5,6.5,19.5-13.6,12.9-26.4C311,237.4,301.8,251.3,312.2,257.2z"/>
									<path fill="#71B939" d="M306.8,272.7c3.1,12.8,23.2,5,28.1-8.6C322.4,257.2,303.9,261.1,306.8,272.7z"/>
									<path fill="#71B939" d="M298.5,268.2c13.1-1.3,8.1-22.3-4.6-29C285.2,250.6,286.6,269.5,298.5,268.2z"/>
									<path fill="#71B939" d="M284.9,284.1c13.1-1.3,8.1-22.3-4.6-29C271.6,266.5,273,285.3,284.9,284.1z"/>
									<path fill="#71B939" d="M291.4,291.8c3.1,12.8,23.2,5,28.1-8.6C305.8,276.2,288.6,280.2,291.4,291.8z"/>
									<path fill="#40A240" d="M270,300.4c-0.3,0-0.6-0.2-0.8-0.5c-0.3-0.4-0.1-1,0.3-1.3c34.4-21.2,46.3-51.7,46.4-52
										c0.2-0.5,0.7-0.7,1.2-0.6c0.5,0.2,0.7,0.7,0.6,1.2c-0.1,0.3-12.2,31.3-47.2,52.9C270.4,300.4,270.2,300.4,270,300.4z"/>
									<path fill="#40A240" d="M282.9,292.1c-0.2,0-0.5-0.1-0.7-0.3c-0.2-0.2-0.3-0.5-0.3-0.8l1.3-20c0-0.5,0.5-0.9,1-0.9
										s0.9,0.5,0.9,1l-1.3,18.9l19.8-2.7c0.5-0.1,1,0.3,1.1,0.8s-0.3,1-0.8,1.1l-20.9,2.9H282.9z"/>
									<path fill="#40A240" d="M300,274.7c-0.2,0-0.4-0.1-0.6-0.2c-0.2-0.2-0.4-0.4-0.4-0.7l-1.1-14.5c0-0.5,0.4-1,0.9-1
										s1,0.4,1,0.9l1,13.4l16.2-3.8c0.5-0.1,1,0.2,1.1,0.7s-0.2,1-0.7,1.1l-17.3,4.1C300.1,274.7,300.1,274.7,300,274.7z"/>
								</g>
								<g>
									<g>
										<g>
											<g>
												<g>
													<g>
														<path id="XMLID_38_" fill="#71B939" d="M99.4,295.5c-4.6-8.2-9.6-21.6-15.5-32.8c-1-1.9-3.3-3-5.3-2.4
															c-4.6,1.3-1.9,8-3.6,12.1c-1.3-5.7-3.7-11.1-6.8-16c-1.7-2.6-4-5.3-7.1-5.5s-6.1,3.8-3.9,6.1
															c-3.5-6.3-7.8-12.2-12.9-17.3c-1.8-1.8-4-3.7-6.7-2.9c-1.6,0.5-2.8,1.8-3.3,3.4c-1,3.1,0.2,6.2,1.5,9
															c3.6,7.7,8.4,14.9,14.3,21c-2.5-2-5.2-3.9-7.9-5.6c-1.6-1-3.4-2-5.3-0.8c-0.9,0.6-1.5,1.5-1.8,2.5
															c-0.7,2.5,0.5,4.9,1.8,7c5.9,9,16.1,14,25.8,18.6c0,0-0.1,0-0.1-0.1c-5.7-3.1-14.4,1.6-5.6,9c4.7,4,10.6,6.4,16.4,8.3
															c9,2.8,18.4,3.9,27.7,4.9L99.4,295.5z"/>
													</g>
													<g>
														<defs>
															<path id="SVGID_00000096774541931057689820000003616011667313283744_" d="M99.4,295.5c-4.6-8.2-9.6-21.6-15.5-32.8
																c-1-1.9-3.3-3-5.3-2.4c-4.6,1.3-1.9,8-3.6,12.1c-1.3-5.7-3.7-11.1-6.8-16c-1.7-2.6-4-5.3-7.1-5.5s-6.1,3.8-3.9,6.1
																c-3.5-6.3-7.8-12.2-12.9-17.3c-1.8-1.8-4-3.7-6.7-2.9c-1.6,0.5-2.8,1.8-3.3,3.4c-1,3.1,0.2,6.2,1.5,9
																c3.6,7.7,8.4,14.9,14.3,21c-2.5-2-5.2-3.9-7.9-5.6c-1.6-1-3.4-2-5.3-0.8c-0.9,0.6-1.5,1.5-1.8,2.5
																c-0.7,2.5,0.5,4.9,1.8,7c5.9,9,16.1,14,25.8,18.6c0,0-0.1,0-0.1-0.1c-5.7-3.1-14.4,1.6-5.6,9
																c4.7,4,10.6,6.4,16.4,8.3c9,2.8,18.4,3.9,27.7,4.9L99.4,295.5z"/>
														</defs>
														<clipPath id="SVGID_00000024719492910462937100000012181603519785692555_">
															<use xlink:href="#SVGID_00000096774541931057689820000003616011667313283744_"  overflow="visible"/>
														</clipPath>
														<path clip-path="url(#SVGID_00000024719492910462937100000012181603519785692555_)" fill="#40A240" d="M105.9,309.2
															c-0.1,0-0.3,0-0.4-0.1c-32.9-14.4-63-57-63.3-57.4s-0.2-1,0.2-1.3s1-0.2,1.3,0.2s30.1,42.6,62.5,56.8
															c0.5,0.2,0.7,0.8,0.5,1.3C106.6,308.9,106.3,309.2,105.9,309.2z"/>
													</g>
												</g>
											</g>
										</g>
									</g>
								</g>
								<g>
									<g>
										<g>
											<circle id="XMLID_39_" fill="#8DCFDF" cx="184.3" cy="328.5" r="108.4"/>
										</g>
										<g>
											<defs>
												<circle id="SVGID_00000080909224663267409220000002806764977251909008_" cx="184.3" cy="328.5" r="108.4"/>
											</defs>
											<clipPath id="SVGID_00000080904779237821593150000003052700158592399530_">
												<use xlink:href="#SVGID_00000080909224663267409220000002806764977251909008_"  overflow="visible"/>
											</clipPath>
											<g clip-path="url(#SVGID_00000080904779237821593150000003052700158592399530_)">
												<g>
													<path fill="#35AB40" d="M138.6,221.6c8.7-1.3,16.8,6,19.6,14.3c2.7,8.4,1.5,17.4,0.1,26.1c-0.5,3.3-1.4,7.2-4.5,8.5
														c-4.1,1.8-8.4-2.4-9.9-6.5c-1.5-4.2-1.9-9-5-12.2c-4.2-4.4-11.9-3.3-16.6,0.5c-4.7,3.9-7.1,9.7-9.4,15.4
														c4.8-1.1,10.1,2.7,10.5,7.6c0.1,1.5,0,3.3,1.2,4.2c1.9,1.4,4.1-1.2,6.3-2.3c3.8-2,8.5,1.8,9.2,6s-1.3,8.3-3.2,12.1
														c-1.1,2.2-2.4,4.5-4.6,5.6c-4.1,1.9-8.4-1.4-12.2-3.8c-3.8-2.4-10.2-3-11.5,1.3c1.8,8.1,3.1,18.1-3.3,23.4
														c-2.6,2.2-6,3.1-9,4.7c-8.3,4.7-11.8,14.6-17,22.6c-1.4,2.1-3.8,4.4-6.2,3.5c-1.6-0.6-2.4-2.2-3-3.7
														c-10-25.2-0.6-53.8,11.4-78.1c6.2-12.6,13.2-25.1,23.5-34.7c10.3-9.6,24.4-15.9,38.3-14.1"/>
												</g>
												<g>
													<path fill="#35AB40" d="M92.2,359.1c4.6-3.6,11.3,0.5,14.8,5.1c3.5,4.7,6.7,10.6,12.5,11.7c4.3,0.8,8.7-1.5,13.1-1.2
														c6.4,0.4,11.6,7.5,10,13.8c-1.3,5-5.8,8.5-9.7,11.9s-7.8,7.9-7.2,13.1c0.2,1.9,1.1,3.8,0.8,5.7
														c-0.5,3.5-4.7,5.4-8.1,4.7c-3.4-0.6-6.2-3.1-8.8-5.4c-7.4-6.6-14.8-13.6-19.3-22.4c-5.3-10.3-6.3-22.7-2.6-33.7
														c0.7-2,2.4-4.4,4.4-3.7"/>
												</g>
												<g>
													<path fill="#35AB40" d="M196.6,230.3c-2.1,1.2-3.9,2.6-5.2,4.7c-0.8,1.3-1.2,2.7-1.2,4.2c0.1,4,3.3,5.6,6.1,7.3
														c4.6,2.9,8.5,6.9,11.2,11.6c0.5,0.9,1,1.9,1,2.9c-0.1,1.6-1.3,2.8-2.5,3.8c-2.4,2.1-4.7,4.2-7.1,6.3
														c-4.1,3.6-8.3,7.4-9.4,13c-0.5,2.6-0.1,5.4,1.4,7.6c3.9,5.4,11.4,3.6,16.1,0c4.2-3.2,7.4-7.7,12-10.3
														c10.2-5.8,22.9-0.7,34.2,2.4c3,0.8,6.2,1.5,9.2,0.7c4.6-1.2,8.1-5.8,12.8-6.2c3.3-0.3,6.8,1.3,9.6-1.5
														c1.2-1.2,1.9-3,1.9-4.7c0.1-3.7-2-6.9-4.1-9.7c-15.9-21.4-38.7-37.4-64.2-45.1c-5.4-1.6-11.1-0.7-15.9,2.3
														c-0.6,0.4-1.4,0.5-2.2,0.4c-3-0.3-4.8,3.1-2.9,5.4l0,0C198.9,226.9,198.4,229.3,196.6,230.3z"/>
												</g>
												<g>
													<path fill="#35AB40" d="M301.5,290.9c-5.9,1.1-12-4.2-17.5-1.9c-6.1,2.5-5.2,11.6-10.1,15.8
														c-6.1,5.2-15.7-0.2-23.8,0.9c-6.9,0.9-12,6.6-15.7,12.3c-6.7,10.2-11.2,22.8-7.6,34.4c0.4,1.3,1.1,2.7,2.4,3.3
														c1.5,0.6,3.2-0.1,4.6-0.9c4.6-2.5,9-5.5,12.9-8.9c1.2-1,2.4-2.1,3.9-2.3c3-0.5,5.4,2,7.3,4.3
														c6.7,7.8,16.4,15.1,26.8,13.1c11.2-2.2,16.8-14.1,19.3-24.7s3.4-21.5,2.9-32.3c-0.3-5.4-2.5-12.3-8.1-12.5"/>
												</g>
											</g>
										</g>
										<g>
											<defs>
												<circle id="SVGID_00000117674035920771701970000007967911833230641541_" cx="184.3" cy="328.5" r="108.4"/>
											</defs>
											<clipPath id="SVGID_00000028305613674814153260000010328301903161601717_">
												<use xlink:href="#SVGID_00000117674035920771701970000007967911833230641541_"  overflow="visible"/>
											</clipPath>
											
												<path opacity="0.56" clip-path="url(#SVGID_00000028305613674814153260000010328301903161601717_)" fill="#74BFD8" enable-background="new    " d="
												M242.2,232.8c0,0,47.9,55.7,21.2,126.9c-26.3,70.1-93.5,79.1-93.5,79.1s94.6,13.4,123.6-77.9S242.2,232.8,242.2,232.8z"
												/>
										</g>
									</g>
								</g>
							</g>
							<g>
								<g>
									<g>
										<path fill="#6CC4D2" d="M58.5,130.5c-2.2-8.7-13.2-12.2-22-10.7s-16.8,6.3-25.6,8.1c-11.5,2.4-24.5-1.1-31.8-10.2
											c-7.4-9.1-7.5-23.9,0.9-32c4-3.8,9.3-5.9,13.3-9.6c4.8-4.5,7.3-11.2,6.8-17.7c-0.4-4-1.8-7.8-2-11.8
											C-2.5,35.1,5.9,22.7,17,19.4c25.4-7.6,28.6,11.5,40,16.5c7.2,3.1,15.7,0.9,23.2,3.2C91.4,42.5,97.6,57,92.3,67.5
											C86.8,78.3,78.5,85,70.5,94.1c-8.6,9.9-8.1,18.9-5.9,33.2L58.5,130.5z"/>
									</g>
									<path fill="#FFFFFF" d="M72,58.9c-3.5-4.3-4.2-9.6-1.5-11.8s7.7-0.5,11.2,3.8s4.2,9.6,1.5,11.8S75.5,63.2,72,58.9z"/>
								</g>
								<g>
									<polygon fill="#DF923A" points="66.8,148.5 78.3,140.6 82.4,149.7 81.9,153.8 77.5,156.9 72.9,155.9 									"/>
									<path fill="#DF923A" d="M81.9,153l44.7,67.6c0.6,0.9,0.4,2.1-0.5,2.7l0,0c-0.9,0.6-2.1,0.4-2.8-0.5l-46.9-66.1L81.9,153z"
										/>
									<g>
										<g>
											<path id="XMLID_56_" fill="#FFFFFF" d="M78.3,140.6c0,0-2.1-13.6-10.1-18.3L53,132.8c0,0,6.1,4.1,13.8,15.7L78.3,140.6z"
												/>
										</g>
										<g>
											<defs>
												<path id="SVGID_00000162352811670056774160000008029537512500495239_" d="M78.3,140.6c0,0-2.1-13.6-10.1-18.3L53,132.8
													c0,0,6.1,4.1,13.8,15.7L78.3,140.6z"/>
											</defs>
											<clipPath id="SVGID_00000101823279807660419350000016395174097547692172_">
												<use xlink:href="#SVGID_00000162352811670056774160000008029537512500495239_"  overflow="visible"/>
											</clipPath>
											<path clip-path="url(#SVGID_00000101823279807660419350000016395174097547692172_)" fill="#6CC4D2" d="M58.6,141.1
												c5.8,0.5,5.3-2.4,7.3-5.3c1.9-2.9,3.4-1,6.3-2.4c2.9-1.5,2.4-7.8,2.4-7.8l-6.3-5.8l-18.4,12.6l10.2,9.2"/>
										</g>
									</g>
								</g>
							</g>
						</g>
					</g>
				</g>
				<g>
					
						<rect x="118.9" y="259.3" transform="matrix(0.8871 -0.4616 0.4616 0.8871 -105.6266 91.0214)" fill="#DE913A" width="28.7" height="4.2"/>
					<polygon fill="#DE913A" points="132.4,242.1 155.9,259.3 150,262.4 126.7,244.7 					"/>
					<polygon fill="#DE913A" points="123.4,276.2 117.8,279.1 117.4,247.6 122.9,244.7 					"/>
					<polygon fill="#DE913A" points="87.8,189.8 144.1,265.4 138.9,268.1 82.6,192.4 					"/>
					
						<rect x="70.4" y="192.7" transform="matrix(0.8871 -0.4616 0.4616 0.8871 -89.3647 75.0691)" fill="#FFFFFF" width="76.7" height="55"/>
					<path fill="#7AB236" d="M102.5,229.2c-1-2.4-1.9-4.8-2.6-7.3c-0.6-2-1.7-4.8-1.7-6.9c-0.5,1.1-0.9,2.3-1.4,3.4
						c0.1-0.1,0.2-0.2,0.4-0.3c-1.1,0.5-2.3,0.9-3.4,1.4c-1.2,0,0,0.3,0.4,0.7c0.6,0.5,1.2,1.2,1.7,1.8c0.9,1.1,1.6,2.4,2.4,3.7
						c1.8,3,3.5,5.9,5.8,8.6c2.6,3.1,8.5,0.6,8.2-3.4c-0.5-6.3-1-12.7-1.6-19c-2,1.5-4,3.1-6.1,4.6c-1.3-0.5,0.1,0.7,0.4,1.4
						c0.5,1.1,0.9,2.3,1.5,3.4c1.3,2.5,3.3,4.3,6.1,5.2c3.1,1,5.9-1.6,6.1-4.6c0.1-1.5,0.2-3.1,0.2-4.6c0-0.6-0.1-3.2,0-3.5
						c-1,0.7-1.9,1.5-2.9,2.2c0.2,0,0.5-0.1,0.7-0.1c-1.2-0.2-2.5-0.3-3.7-0.5c1.4,0.8,2.8,3.4,3.7,4.7c2.3,3,7.7,3.3,8.7-1.1
						c0.4-1.8,0.8-3.6,1.2-5.4c1.4-6-7.9-8.6-9.2-2.5c-0.4,1.8-0.8,3.6-1.2,5.4c2.9-0.4,5.8-0.8,8.7-1.1c-2.9-3.7-6.4-10.7-12.2-8.2
						c-4.9,2.1-3.7,10.6-3.9,14.9c2-1.5,4-3.1,6.1-4.6c-0.4-0.1-1.6-3.6-2-4.4c-1.4-2.7-3.2-4.3-6-5.5s-6.3,1.8-6.1,4.6
						c0.5,6.3,1,12.7,1.6,19c2.7-1.1,5.4-2.3,8.2-3.4c-4.7-5.6-6.9-14-14.2-17.1c-4.6-1.9-8.7,1.5-7.9,6.4
						c0.8,5.1,2.6,10.1,4.5,14.9c1,2.4,3.2,4.1,5.9,3.3C101.4,234.5,103.5,231.6,102.5,229.2L102.5,229.2z"/>
					
						<rect x="81.9" y="243.4" transform="matrix(0.8871 -0.4616 0.4616 0.8871 -99.4049 84.1364)" fill="#DE913A" width="80.8" height="3.7"/>
				</g>
			</g>
		</g>
	</g>
</g>
</svg>
