<?xml version="1.0" encoding="utf-8"?>
<!-- Generator: Adobe Illustrator 27.5.0, SVG Export Plug-In . SVG Version: 6.00 Build 0)  -->
<svg version="1.1" id="_圖層_2" xmlns="http://www.w3.org/2000/svg" xmlns:xlink="http://www.w3.org/1999/xlink" x="0px" y="0px"
	 width="391.2px" height="391.2px" viewBox="0 0 391.2 391.2" style="enable-background:new 0 0 391.2 391.2;" xml:space="preserve"
	>
<style type="text/css">
	.st0{fill:#0AA07D;}
	.st1{opacity:0.1;enable-background:new    ;}
	.st2{opacity:0.15;fill:#FFFFFF;enable-background:new    ;}
	.st3{clip-path:url(#SVGID_00000134246385213043614650000002143204760975922857_);fill:#B4DEEE;}
	.st4{clip-path:url(#SVGID_00000134246385213043614650000002143204760975922857_);}
	.st5{clip-path:url(#SVGID_00000181795225768445808130000017589991675003458440_);}
	.st6{opacity:0.22;fill:#FFFFFF;}
	.st7{clip-path:url(#SVGID_00000005252642190219564050000003691678964017761445_);}
	.st8{fill:#FFFFFF;}
	.st9{fill:#6FC6DE;}
	.st10{fill:#4FB2C3;}
	.st11{fill:#305422;}
	.st12{fill:#501F10;}
	.st13{fill:#3D7F31;}
	.st14{fill:#49963A;}
	.st15{fill:#326928;}
	.st16{fill:#1F3D15;}
	.st17{fill:#59370A;}
	.st18{fill:#825423;}
	.st19{fill:#FDEDBB;}
	.st20{fill:#99F1DB;}
	.st21{fill:#85B057;}
	.st22{fill:#B2CE6F;}
	.st23{fill:#769C4D;}
	.st24{opacity:0.47;fill:#8DBB41;}
	.st25{fill:#0E3944;}
	.st26{fill:#EF6E4B;}
	.st27{fill:#FF8B66;}
	.st28{fill:#164353;}
	.st29{fill:#DB614D;}
	.st30{fill:#333333;}
	.st31{fill:#6097B2;}
	.st32{fill:#205260;}
	.st33{fill:#7C2213;}
	.st34{fill:#FF5B52;}
	.st35{fill:#8B383E;}
	.st36{fill:#662C33;}
	.st37{fill:#C74D34;}
	.st38{fill:#FA6142;}
	.st39{fill:#A02E44;}
	.st40{fill:#FFB878;}
	.st41{fill:#0C476B;}
	.st42{fill:#105E99;}
	.st43{fill:#225866;}
	.st44{fill:#8BBDDB;}
	.st45{fill:#3E6575;}
</style>
<g>
	<g>
		<g>
			<path class="st0" d="M188.7,0C98.2,0,24.9,68.1,24.9,152v187.9h202.5c90.5,0,163.8-68.1,163.8-152V0L188.7,0z"/>
		</g>
	</g>
	<path class="st1" d="M24.9,335.2v4.6h202.5c90.5,0,163.8-68.1,163.8-152V68.5C327.2,154.6,205.7,283.5,24.9,335.2z"/>
	<path class="st2" d="M188.7,0C98.2,0,24.9,68.1,24.9,152v74C151.8,58.7,333.7,13.9,391.2,3.6V0L188.7,0z"/>
</g>
<g>
	<g>
		<rect x="1.8" y="116.2" class="st0" width="25.1" height="275"/>
	</g>
</g>
<g>
	<g>
		<defs>
			<path id="SVGID_1_" d="M177.6,304.7H52V167.2c0-69.1,56.5-125.6,125.6-125.6h56.1h125.6v137.6c0,69.1-56.5,125.6-125.6,125.6
				L177.6,304.7L177.6,304.7z"/>
		</defs>
		<clipPath id="SVGID_00000098911231863288120440000011462272846223261092_">
			<use xlink:href="#SVGID_1_"  style="overflow:visible;"/>
		</clipPath>
		
			<rect x="7.3" y="-72.9" style="clip-path:url(#SVGID_00000098911231863288120440000011462272846223261092_);fill:#B4DEEE;" width="454.8" height="454.8"/>
		<g style="clip-path:url(#SVGID_00000098911231863288120440000011462272846223261092_);">
			<defs>
				<rect id="SVGID_00000103245397129505353360000008876516736295521957_" x="7.3" y="-72.9" width="454.8" height="454.8"/>
			</defs>
			<clipPath id="SVGID_00000074408244701461490890000015673249355882644135_">
				<use xlink:href="#SVGID_00000103245397129505353360000008876516736295521957_"  style="overflow:visible;"/>
			</clipPath>
			<g style="clip-path:url(#SVGID_00000074408244701461490890000015673249355882644135_);">
				<polygon class="st6" points="234.8,154.5 221.7,-253.6 248.9,-253.6 				"/>
				<polygon class="st6" points="234.8,154.5 107.2,-233.4 133.3,-241 				"/>
				<polygon class="st6" points="234.8,154.5 3.1,-181.7 26,-196.4 				"/>
				<polygon class="st6" points="234.8,154.5 -82.2,-102.8 -64.4,-123.4 				"/>
				<polygon class="st6" points="234.8,154.5 -141.9,-3.1 -130.6,-27.8 				"/>
				<polygon class="st6" points="234.8,154.5 -171.1,109.4 -167.2,82.5 				"/>
				<polygon class="st6" points="234.8,154.5 -167.3,225.6 -171.2,198.6 				"/>
				<polygon class="st6" points="234.8,154.5 -131,336 -142.3,311.2 				"/>
				<polygon class="st6" points="234.8,154.5 -65.1,431.7 -82.9,411.1 				"/>
				<polygon class="st6" points="234.8,154.5 25.1,504.9 2.2,490.2 				"/>
				<polygon class="st6" points="234.8,154.5 132.3,549.8 106.2,542.1 				"/>
				<polygon class="st6" points="234.8,154.5 247.8,562.6 220.6,562.6 				"/>
				<polygon class="st6" points="234.8,154.5 362.3,542.4 336.2,550.1 				"/>
				<polygon class="st6" points="234.8,154.5 466.4,490.8 443.5,505.5 				"/>
				<polygon class="st6" points="234.8,154.5 551.8,411.9 533.9,432.4 				"/>
				<polygon class="st6" points="234.8,154.5 611.4,312.2 600.1,336.9 				"/>
				<polygon class="st6" points="234.8,154.5 640.6,199.7 636.7,226.6 				"/>
				<polygon class="st6" points="234.8,154.5 636.8,83.5 640.7,110.4 				"/>
				<polygon class="st6" points="234.8,154.5 600.5,-26.9 611.8,-2.2 				"/>
				<polygon class="st6" points="234.8,154.5 534.6,-122.6 552.4,-102.1 				"/>
				<polygon class="st6" points="234.8,154.5 444.4,-195.9 467.3,-181.2 				"/>
				<polygon class="st6" points="234.8,154.5 337.2,-240.7 363.3,-233.1 				"/>
			</g>
		</g>
		<g style="clip-path:url(#SVGID_00000098911231863288120440000011462272846223261092_);">
			<g>
				<defs>
					<rect id="SVGID_00000106138514984605643720000000985835367240943509_" x="7.3" y="-72.9" width="454.8" height="454.8"/>
				</defs>
				<clipPath id="SVGID_00000094583009168106909460000004899453865177931680_">
					<use xlink:href="#SVGID_00000106138514984605643720000000985835367240943509_"  style="overflow:visible;"/>
				</clipPath>
				<g style="clip-path:url(#SVGID_00000094583009168106909460000004899453865177931680_);">
					<g>
						<g>
							<g>
								<path class="st8" d="M102.5,79.8c-3.1,0.3-6,1.1-8.6,2.2c0-0.5,0-0.9-0.1-1.4C93,72.9,89.6,66,84.3,60.6
									c9.2-7.9,14.6-19.5,13.5-32C95.8,7.5,76-7.9,53.4-5.8c-4.5,0.4-8.7,1.5-12.6,3.1c0.3-2,0.3-4.2,0.1-6.3
									C39.4-25.9,23-38.2,4.5-36.5S-27.9-19.7-26.4-2.8c0.7,7.4,4.2,13.9,9.4,18.7C-31.6,23-41,36.8-39.6,51.7
									C-37.8,71.8-17,86.3,7,84.4c-0.1,1.4,0,2.8,0.1,4.2c1.9,20.3,22.8,35,46.7,32.8c11.1-1,20.9-5.5,28-12
									c3.9,8.2,13.7,13.5,24.5,12.5c13.4-1.2,23.5-11.7,22.4-23.3C127.7,87,115.9,78.6,102.5,79.8z"/>
								<path class="st8" d="M598.7-37.4c8-7,12.6-16.9,11.7-27.3C608.7-83.5,589.7-97,568.1-95S530.2-76.2,532-57.5
									c1.4,15.6,14.8,27.6,31.8,30.1c-12.3,8.7-20,22.1-19.7,36.7c-5,1.1-9.5,3.1-13.4,5.9c-2.3-23.8-28-40.9-57.4-38.2
									c-29.5,2.7-51.7,24.3-49.5,48.2c0.4,4.7,1.8,9,3.8,13.1c-3,1.3-5.5,2.9-7.5,4.9c-9.6-4.8-21-7.2-32.9-6.1
									c-30.7,2.8-53.6,27-51.1,54c0,0.2,0.1,0.5,0.1,0.7c-6.9-2.4-14.6-3.4-22.5-2.7c-22.8,2.1-40.6,17.6-43.5,36.4
									c-1.7-0.2-3.4-0.2-5.1,0c-5,0.5-9.5,2.3-13.5,5.2c-1.3-12.2-13.9-20.9-28.3-19.6c-2.7,0.2-5.3,0.8-7.7,1.7
									c-5.7-14-18.4-23.3-32.3-22c-17.6,1.6-30.3,19.5-28.4,40c1.9,20.5,17.7,35.8,35.2,34.2c8.6-0.8,16-5.4,21.1-12.4
									c4.6,2.4,10.2,3.5,16.1,3c4-0.4,7.7-1.5,10.9-3.1c-0.8,4-1.1,8.2-0.7,12.6c1.9,20.2,17.2,35.4,34.2,33.8
									c14.5-1.3,25.5-14.3,27.3-30.7c6.7,2.2,14.2,3.2,22,2.5c24.6-2.3,43.3-20.2,43.9-40.9c9.2,4.2,19.9,6.2,31.1,5.2
									c30.7-2.8,53.6-27,51.1-54c-0.5-5,10.8,1.6,8.8-2.8c5-1,5.1-5.4,8.2-8.2c7.7,2.5,8-5.6,16.9-6.4
									c15.3-1.4,28.6-7.9,37.6-17.1c3.9,13.9,18.7,23.4,35.4,21.8c12-1.1,22-7.7,27.2-16.7c5.6,1.3,11.5,1.7,17.6,1.1
									c27.9-2.6,48.7-24.8,46.5-49.6C643.3-19.3,623.2-36.2,598.7-37.4z"/>
							</g>
							<path class="st8" d="M273.5,166.1c-3.4,0.3-6.6,1.2-9.5,2.7c0.4-3,0.4-6,0.1-9.2c-2.1-23.2-22.4-40.4-45.3-38.3
								c-14.8,1.4-27,10.4-33.3,23c-3.5-5.4-9.6-9.1-16.5-9.6c1.3-4.3,1.9-8.9,1.4-13.6c-0.5-5.4-2.2-10.4-4.8-14.8
								c8-4.7,13-12.9,12.2-21.7c-1.2-12.8-14.1-22.1-28.9-20.8c-14.7,1.4-25.8,12.8-24.6,25.6c-8.3,1.9-15.4,6.4-20.6,12.5
								c-9-6-20.7-9.1-33.1-8c-14.9,1.4-27.7,8.6-35.5,18.8c0.7-3.8,1-7.7,0.6-11.7C33.5,76.1,9.7,58-17.5,60.2
								c0.9-2.6,1.2-5.3,1-8.1c-0.5-5.8-3.6-10.9-8.5-14.9C-8.7,31.1,2.2,16.3,0.7,0.2C-1.1-19.7-21.1-34.2-44-32.1
								s-39.9,20-38.1,39.9c0.9,9.5,5.9,17.8,13.4,23.6c-14.7,4.9-24.7,15.9-23.6,27.7c1.3,13.6,16.8,23.6,35.7,23.4
								c-5.3,8-8.1,17.6-7.1,27.6c0.8,8.7,4.2,16.5,9.5,22.9c-9.3,5.2-15.1,13.3-14.3,22c1.2,13.4,17.7,22.8,36.7,21
								c18.9-1.7,33.3-13.9,32.3-27.1c11.3-3.3,20.8-10,27.1-18.8c-0.5,2.9-0.6,5.9-0.3,8.9c2.1,22.5,24.8,38.8,50.9,36.4
								c15.2-1.4,28.2-8.9,35.9-19.4c6.5,3.6,14.2,5.4,22.3,4.6c3.4-0.3,6.7-1.1,9.7-2.2c1.7,10.7,11.7,18.3,23.1,17.3
								c4.9-0.4,9.2-2.4,12.6-5.4c3.6,21.6,23,37.2,44.9,35.2c9.1-0.8,17.2-4.6,23.5-10.2c2.4,12.4,14.4,21.1,27.9,19.9
								c14.4-1.3,25-13.4,23.8-26.9C300.5,174.7,287.9,164.8,273.5,166.1z"/>
							<path class="st8" d="M670.6,5.9c-1-11.1-7-20.5-15.6-26.1c12.2-7.3,19.6-18.1,18.6-29.5c-1.7-18.6-25.4-31.6-52.9-29.1
								c-27.5,2.5-48.4,19.7-46.7,38.3c1.3,14.5,16,25.6,35.3,28.6c-4.9,6.6-7.5,15.1-6.6,24c0.6,6.4,2.8,12.1,6.2,17
								c-0.1,0-0.1,0-0.2,0c-31.1,2.9-54.4,25.5-52.1,50.5c0.7,7.6,3.7,14.5,8.4,20.5c-11.8,3.3-22.4,8.1-31.4,14
								c0-0.6-0.1-1.2-0.1-1.8c-2.7-29.4-34.6-50.4-71.2-47.1c-36.6,3.4-64.1,29.9-61.4,59.3c2.7,29.4,34.6,50.4,71.2,47.1
								c11.5-1.1,22.1-4.4,31.1-9.4c0,1.3,0.1,2.5,0.2,3.8c3.1,34.1,46.1,58.1,95.9,53.5c49.8-4.6,87.7-35.9,84.5-70.1
								c-1.6-17.8-14.1-32.9-32.8-42.5c12.3-9.5,19.5-23.1,18.2-37.6c-1.1-11.7-7.6-21.9-17.4-29.1C664,34,671.9,20.6,670.6,5.9z"/>
						</g>
						<g>
							<path class="st8" d="M492-32.3c0,0.6-0.3,1.3-0.8,1.8h-77.7c-0.9-1-1.4-2.1-1.4-3.3c0-3.7,4.9-6.7,11-6.7
								c1.5,0,3,0.2,4.3,0.5c0.9-4.7,4.7-8.3,9.3-8.3c4.7,0,8.6,3.8,9.4,8.8c1.7-0.7,3.6-1.1,5.8-1.1c1.5-4.5,6.2-7.7,11.9-7.7
								c6.8,0,12.4,4.7,12.4,10.6c0,0.1,0,0.1,0,0.2c1-0.1,2.1-0.2,3.2-0.2C486.3-37.6,492-35.3,492-32.3z"/>
							<path class="st8" d="M378.6-42H294c1.2-1.2,5.6-2.1,10.8-2.1c0.7,0,1.4,0,2.1,0.1c-0.9-1.6-1.3-3.5-1.3-5.5
								c0-6.1,4.7-11.1,10.4-11.1c3.6,0,6.7,1.9,8.6,4.8c1.6-1.1,3.4-1.7,5.5-1.7c4.2,0,7.7,2.6,9.1,6.2c1.5-0.6,3.1-0.9,4.9-0.9
								c0.2,0,0.5,0,0.7,0c1.6-4.3,6.4-7.3,12-7.3c6.9,0,12.6,4.7,12.6,10.5c0,1.9-0.6,3.6-1.6,5.1c0.5,0,1.1,0,1.6,0
								C373.6-43.9,377.3-43.1,378.6-42z"/>
							<path class="st8" d="M137.4-44.5H57.7c1.2-1.2,5.3-2,10.2-2c0.7,0,1.3,0,2,0c-0.8-1.5-1.3-3.3-1.3-5.1
								c0-5.8,4.4-10.5,9.8-10.5c3.4,0,6.3,1.8,8.1,4.6c1.5-1,3.2-1.6,5.2-1.6c3.9,0,7.3,2.5,8.6,5.9c1.4-0.5,3-0.8,4.7-0.8
								c0.2,0,0.5,0,0.7,0c1.5-4,6-6.9,11.3-6.9c6.5,0,11.8,4.4,11.8,9.9c0,1.8-0.6,3.4-1.5,4.8c0.5,0,1,0,1.5,0
								C132.7-46.2,136.2-45.5,137.4-44.5z"/>
						</g>
					</g>
					<g>
						<path class="st9" d="M684.4,229.1l-3.3,30l-1.9,16.8l-757-15.5l9.6-114.6C-39.5,109,4.3,71.6,52.6,49.6
							c24.7,23.2,95.1,77.6,105.5,85.9c7.9,6.4,65.3,29.9,111,50c17.9-16.9,41.6-44.8,47.2-50c4.8-4.5,33.8-37.3,55.2-46.7
							C485,148.4,598,210.5,684.4,229.1z"/>
						<path class="st10" d="M681,259.1l-1.9,16.8l-757-15.5l9.6-114.6C-39.5,109,4.3,71.6,52.6,49.6L42.6,73L61,96.1L6.7,123.3
							l92.4,7.2l38.9,47.3L248.6,206l20.5-20.4c17.9-16.9,41.6-44.8,47.2-50c4.8-4.5,33.8-37.3,55.2-46.7l-11.2,25.4l53.2,13.5
							l-35.4,27.6l63.7,14.4l108,55.7L681,259.1z"/>
					</g>
					<g>
						<g>
							<g>
								<path class="st11" d="M174.6,208.6c0,0,3.5-0.8,3.9-5.3c0.1-1,0-2.1-0.8-2.8c-0.8-0.7-2.1-0.5-3.2-0.4
									c1.3,0,2.1-1.3,2.6-2.4c0.4-0.9,0.8-1.9,0.9-2.9c0.1-1-0.1-2.1-0.8-2.9c-0.7-0.8-1.8-1-2.7-0.5c1.1-0.8,1.8-2,1.9-3.3
									c0.1-1.1-0.3-2.2-1.1-2.9c-0.9-0.6-2.4-0.5-3.1,0.3c0.1-1.2,0.2-2.4-0.1-3.6c-0.3-1.2-0.9-2.3-2-2.8
									c-1.6-0.8-3.7,0.1-4.7,1.6s-1.1,3.5-0.8,5.3c-0.4-0.9-2.5-1-3.3-0.4c-0.8,0.6-1.1,1.7-0.9,2.7c0.2,1,0.7,1.9,1.1,2.7
									c-1.4,0-2.4,0.6-3,1.9c-0.5,1.3-0.4,2.7,0,4c0.4,1.3,1.5,2.4,2.4,3.5c-1.4,0-2.5,1-2.8,2.4c-0.3,1.4,0.3,2.9,1.3,3.9
									c1,1,2.5,1.8,3.9,2.2c0.2,0.1,1.3,3.2,4.4,3.6c2.1,0.3,4.6-0.3,5.9-2C173.9,210.4,174.7,208.6,174.6,208.6z"/>
								<g>
									<polygon class="st12" points="168.3,187.6 167,216.8 169.2,217 									"/>
									<polygon class="st12" points="168.3,208.4 175.6,203.3 168.7,209.9 									"/>
									<polygon class="st12" points="167.8,206.1 161.3,202.7 167.7,207.5 									"/>
									<polygon class="st12" points="168.2,197.7 174.3,193 168.4,198.6 									"/>
									<polygon class="st12" points="168.3,196.3 163.4,192.2 167.9,196.8 									"/>
								</g>
							</g>
							<g>
								<path class="st11" d="M202.4,210.5c0,0,3.1-0.7,3.4-4.7c0.1-0.9,0-1.8-0.7-2.4c-0.7-0.6-1.8-0.5-2.8-0.3
									c1.1,0,1.8-1.1,2.3-2.1c0.4-0.8,0.7-1.7,0.8-2.6c0.1-0.9-0.1-1.9-0.7-2.5c-0.6-0.7-1.6-0.9-2.4-0.5c0.9-0.7,1.6-1.8,1.7-2.9
									c0.1-0.9-0.2-1.9-1-2.5c-0.7-0.6-2.1-0.5-2.7,0.3c0.1-1,0.1-2.1-0.1-3.1c-0.2-1-0.8-2-1.8-2.5c-1.4-0.7-3.3,0.1-4.1,1.4
									s-0.9,3.1-0.7,4.6c-0.4-0.8-2.2-0.9-2.9-0.4c-0.7,0.5-0.9,1.5-0.8,2.4c0.1,0.9,0.6,1.6,1,2.4c-1.2,0-2.1,0.5-2.6,1.7
									s-0.4,2.4,0,3.5c0.4,1.1,1.4,2.1,2.1,3.1c-1.2,0-2.2,0.9-2.4,2.1c-0.2,1.2,0.3,2.5,1.1,3.4c0.9,0.9,2.2,1.6,3.4,1.9
									c0.2,0,1.1,2.8,3.9,3.2c1.8,0.3,4-0.3,5.2-1.7C201.9,212.1,202.5,210.5,202.4,210.5z"/>
								<g>
									<polygon class="st12" points="197,192.1 195.8,217.7 197.7,217.9 									"/>
									<polygon class="st12" points="196.9,210.3 203.3,205.9 197.3,211.6 									"/>
									<polygon class="st12" points="196.5,208.3 190.8,205.4 196.4,209.5 									"/>
									<polygon class="st12" points="196.8,201 202.2,196.8 197,201.7 									"/>
									<polygon class="st12" points="196.9,199.7 192.6,196.1 196.6,200.2 									"/>
								</g>
							</g>
							<g>
								<path class="st11" d="M144.8,207.7c0,0,2.1-0.5,2.3-3.6c0-0.7,0-1.4-0.5-1.9c-0.5-0.5-1.2-0.4-1.9-0.3
									c0.8,0,1.3-0.9,1.6-1.7c0.3-0.6,0.5-1.3,0.6-2c0.1-0.7-0.1-1.4-0.5-1.9c-0.4-0.5-1.1-0.7-1.6-0.3c0.6-0.5,1.1-1.4,1.1-2.2
									c0.1-0.7-0.2-1.5-0.7-1.9c-0.5-0.4-1.5-0.4-1.8,0.2c0-0.8,0.1-1.6-0.1-2.4c-0.2-0.8-0.6-1.5-1.2-1.9c-1-0.5-2.2,0.1-2.8,1.1
									c-0.6,1-0.6,2.4-0.5,3.6c-0.2-0.6-1.5-0.7-1.9-0.3c-0.5,0.4-0.6,1.2-0.5,1.8c0.1,0.7,0.4,1.3,0.7,1.9
									c-0.8,0-1.4,0.4-1.8,1.3c-0.3,0.9-0.3,1.8,0,2.7c0.3,0.9,0.9,1.6,1.4,2.4c-0.8,0-1.5,0.7-1.7,1.6c-0.2,0.9,0.2,1.9,0.8,2.6
									c0.6,0.7,1.5,1.2,2.3,1.5c0.1,0,0.8,2.2,2.6,2.5c1.3,0.2,2.7-0.2,3.5-1.3C144.4,209,144.8,207.7,144.8,207.7z"/>
								<g>
									<polygon class="st12" points="141.1,193.5 140.3,213.3 141.6,213.4 									"/>
									<polygon class="st12" points="141,207.6 145.4,204.1 141.3,208.6 									"/>
									<polygon class="st12" points="140.8,206 136.9,203.7 140.7,206.9 									"/>
									<polygon class="st12" points="141,200.4 144.6,197.2 141.1,200.9 									"/>
									<polygon class="st12" points="141.1,199.4 138.1,196.6 140.8,199.7 									"/>
								</g>
							</g>
							<g>
								<path class="st11" d="M269.4,217.2c0,0,1.8-0.5,2-3c0-0.6,0-1.2-0.4-1.6c-0.4-0.4-1.1-0.3-1.6-0.2c0.6,0,1.1-0.7,1.3-1.4
									c0.2-0.5,0.4-1.1,0.5-1.7c0.1-0.6-0.1-1.2-0.4-1.6c-0.3-0.4-0.9-0.6-1.4-0.3c0.5-0.4,0.9-1.1,1-1.9c0-0.6-0.1-1.3-0.6-1.6
									c-0.4-0.4-1.2-0.3-1.5,0.2c0-0.7,0.1-1.4-0.1-2c-0.1-0.7-0.5-1.3-1-1.6c-0.8-0.5-1.9,0.1-2.4,0.9c-0.5,0.9-0.5,2-0.4,3
									c-0.2-0.5-1.2-0.6-1.6-0.2c-0.4,0.3-0.5,1-0.5,1.5c0.1,0.6,0.3,1.1,0.6,1.6c-0.7,0-1.2,0.4-1.5,1.1c-0.3,0.7-0.2,1.6,0,2.3
									c0.2,0.7,0.8,1.4,1.2,2c-0.7,0-1.3,0.6-1.4,1.4c-0.1,0.8,0.2,1.6,0.6,2.2c0.5,0.6,1.3,1,2,1.2c0.1,0,0.6,1.8,2.2,2.1
									c1.1,0.2,2.3-0.2,3-1.1C269.1,218.2,269.4,217.2,269.4,217.2z"/>
								<g>
									<polygon class="st12" points="266.3,205.1 265.6,221.9 266.7,222 									"/>
									<polygon class="st12" points="266.2,217 269.9,214.1 266.4,217.9 									"/>
									<polygon class="st12" points="266,215.7 262.7,213.8 265.9,216.5 									"/>
									<polygon class="st12" points="266.2,210.9 269.3,208.2 266.3,211.4 									"/>
									<polygon class="st12" points="266.2,210.1 263.8,207.8 266,210.4 									"/>
								</g>
							</g>
							<g>
								<path class="st11" d="M283.4,217.7c0,0,1.6-0.4,1.8-2.4c0-0.4,0-0.9-0.4-1.2c-0.4-0.3-1-0.2-1.5-0.2c0.6,0,1-0.6,1.2-1.1
									c0.2-0.4,0.4-0.9,0.4-1.3c0-0.5-0.1-1-0.4-1.3c-0.3-0.3-0.8-0.5-1.3-0.2c0.5-0.3,0.8-0.9,0.9-1.5c0-0.5-0.1-1-0.5-1.3
									c-0.4-0.3-1.1-0.2-1.4,0.1c0-0.5,0.1-1.1-0.1-1.6c-0.1-0.5-0.4-1-0.9-1.3c-0.8-0.4-1.7,0-2.2,0.7c-0.5,0.7-0.5,1.6-0.4,2.4
									c-0.2-0.4-1.1-0.5-1.5-0.2c-0.4,0.3-0.5,0.8-0.4,1.2c0.1,0.4,0.3,0.8,0.5,1.2c-0.6,0-1.1,0.3-1.4,0.8
									c-0.2,0.6-0.2,1.2,0,1.8c0.2,0.6,0.7,1.1,1.1,1.6c-0.7,0-1.2,0.5-1.3,1.1c-0.1,0.6,0.1,1.3,0.6,1.7c0.5,0.5,1.2,0.8,1.8,1
									c0.1,0,0.6,1.4,2.1,1.6c1,0.1,2.1-0.2,2.8-0.9C283.1,218.5,283.5,217.7,283.4,217.7z"/>
								<g>
									<polygon class="st12" points="280.5,208.3 279.9,221.4 280.9,221.5 									"/>
									<polygon class="st12" points="280.5,217.6 283.9,215.3 280.7,218.3 									"/>
									<polygon class="st12" points="280.3,216.6 277.3,215.1 280.2,217.2 									"/>
									<polygon class="st12" points="280.5,212.8 283.3,210.7 280.6,213.2 									"/>
									<polygon class="st12" points="280.5,212.2 278.2,210.3 280.3,212.4 									"/>
								</g>
							</g>
						</g>
						<g>
							<path class="st13" d="M633.5,235.1l0,3.7l0.9,63.5l-683.1,10.4V198.8C-48.7,198.8,277.7,226,633.5,235.1z"/>
							<path class="st14" d="M633.5,235.1l0,3.7c-144.1,0.7-339.9-6.1-395.6-9c-67.5-3.5-239.5-21.5-286.6-26.6v-4.3
								C-48.7,198.8,277.7,226,633.5,235.1z"/>
						</g>
						<g>
							<g>
								<path class="st15" d="M54,225c0,1.7-18,3.1-40.2,3.1c-22.2,0-40.2-1.4-40.2-3.1s18-3.1,40.2-3.1C36,221.9,54,223.3,54,225z"
									/>
								<g>
									<g>
										<path class="st11" d="M6.6,203.5c0.2,0-1.2,4.5-1.6,5c-3,4.2-8.8,6.2-13.9,5.8c-7.7-0.5-10.7-7.8-11.3-7.9
											c-3.4-0.5-7.2-2.2-9.8-4.4c-2.5-2.3-4.2-5.7-3.8-9.1c0.4-3.4,2.8-6,6.2-6.3c-2.1-2.5-5-4.9-6.3-8c-1.3-3-1.8-6.5-0.7-9.7
											c1.1-3.1,3.5-4.8,6.8-5.1c-1.3-2-2.7-4-3.2-6.3c-0.5-2.3-0.1-5,1.7-6.6c1.8-1.6,6.8-1.7,7.9,0.4c-0.8-3.2-1.1-6.7-0.3-9.9
											c0.3-1,0.6-2,1.1-2.9c2.1-3.8,7-6.4,11.1-4.8c2.7,1.1,4.5,3.6,5.3,6.4c0.9,2.7,0.9,5.6,0.9,8.5c1.3-2.2,5.2-2.7,7.3-1.3
											c2.2,1.4,3.2,4.1,3.2,6.6c0,3.2-1.5,6.3-3.9,8.3c2.1-1.3,4.8-1,6.6,0.7c1.8,1.7,2.5,4.3,2.5,6.7c0,0.7-0.1,1.4-0.2,2.1
											c-0.3,1.7-0.9,3.4-1.5,5.1c-1,2.6-2.5,5.4-5,6.1c2.4-0.5,4.9-0.9,6.8,0.5c1.9,1.4,2.3,4.1,2.3,6.4
											C14.8,200.9,6.6,203.5,6.6,203.5z"/>
										<path class="st16" d="M12.3,171.8c-0.4-1.5-1.2-2.9-2.2-4.1c-2.8-3.4-7.1-6.4-11.4-5.5c2.4-2,3.1-5.8,1.6-8.5
											c-1.6-2.7-5.1-4.2-8-3c1.4-2.9,0.4-6.5-1.9-8.7c-2.3-2.1-5.9-2.8-8.9-1.9c-1.1,0.3-2.1,0.8-3.1,1.4c0.3-1,0.6-2,1.1-2.9
											c2.1-3.8,7-6.4,11.1-4.8c2.7,1.1,4.5,3.6,5.3,6.4c0.9,2.7,0.9,5.6,0.9,8.5c1.3-2.2,5.2-2.7,7.3-1.3
											c2.2,1.4,3.2,4.1,3.2,6.6c0,3.2-1.5,6.3-3.9,8.3c2.1-1.3,4.8-1,6.6,0.7c1.8,1.7,2.5,4.3,2.5,6.7
											C12.5,170.4,12.4,171.1,12.3,171.8z"/>
										<g>
											<polygon class="st12" points="-12.2,154.3 -10.1,224.5 -4.9,224.5 											"/>
											<polygon class="st12" points="-8.5,204 8,190.6 -7.3,207.5 											"/>
											<polygon class="st12" points="-10.1,198.6 -26.4,191.7 -10.1,201.9 											"/>
											<polygon class="st12" points="-10.7,178.5 3.1,166.2 -10.1,180.5 											"/>
											<polygon class="st12" points="-10.7,175 -23.1,166.2 -11.5,176.4 											"/>
										</g>
									</g>
									<g>
										<path class="st11" d="M61,192.6c-0.3,9.3-7.6,11.3-7.6,11.3c0.1,0-1.2,3.8-1.5,4.2c-2.7,3.5-7.8,5-12.2,4.6
											c-6.6-0.6-9.1-6.9-9.6-7c-2.9-0.5-6.2-2-8.4-4c-2.2-2-3.5-5-3.1-7.8c0.4-2.9,2.6-5.1,5.6-5.2c-1.8-2.2-4.2-4.3-5.3-6.9
											c-1-2.6-1.4-5.6-0.4-8.3c1-2.6,3.1-4,6-4.1c-1.1-1.7-2.2-3.5-2.6-5.5c-0.4-2,0-4.3,1.6-5.6c1.6-1.3,5.9-1.3,6.9,0.6
											c-0.7-2.9-0.8-6,0.1-8.8c0.2-0.7,0.5-1.4,0.9-2.1c1.9-3.2,6.2-5.3,9.7-3.8c2.3,1,3.8,3.2,4.5,5.6c0.7,2.3,0.6,4.8,0.6,7.3
											c1.2-1.8,4.6-2.2,6.4-0.9c1.8,1.2,2.7,3.6,2.6,5.7c-0.1,2.7-1.5,5.3-3.6,7c1.8-1.1,4.2-0.7,5.8,0.8c1.5,1.5,2.1,3.7,2,5.8
											c-0.1,1.5-0.5,3-1,4.4c-0.2,0.6-0.4,1.1-0.7,1.7c-0.9,2.2-2.3,4.6-4.6,5.1c2.1-0.3,4.4-0.6,6,0.6
											C60.7,188.3,61,190.5,61,192.6z"/>
										<path class="st16" d="M59.4,175.2c-0.1,1.5-0.5,3-1,4.4c-0.4-0.8-0.9-1.6-1.5-2.3c-2.1-2.3-5.6-4.1-8.8-3.7
											c0.9-1.6,1.8-3.3,2.1-5.2c0.3-1.8,0-3.9-1.3-5.2c-1.3-1.3-3.5-1.9-4.8-0.6c1.3-3.2,0.8-7-1.3-9.7c-2-2.7-5.5-4.3-8.9-4.1
											c-1.2,0.1-2.4,0.4-3.4,0.9c0.2-0.7,0.5-1.4,0.9-2.1c1.9-3.2,6.2-5.3,9.7-3.8c2.3,1,3.8,3.2,4.5,5.6
											c0.7,2.3,0.6,4.8,0.6,7.3c1.2-1.8,4.6-2.2,6.4-0.9c1.8,1.2,2.7,3.6,2.6,5.7c-0.1,2.7-1.5,5.3-3.6,7
											c1.8-1.1,4.2-0.7,5.8,0.8C58.9,170.9,59.5,173.1,59.4,175.2z"/>
										<g>
											<polygon class="st12" points="38.8,162.8 38.3,224.6 42.6,224.7 											"/>
											<polygon class="st12" points="40.4,204.7 26.8,196.2 40.3,207.4 											"/>
											<polygon class="st12" points="40.6,198.9 54,190 40.5,201.3 											"/>
											<polygon class="st12" points="39.4,186.9 26.4,175.8 39.4,184.8 											"/>
										</g>
									</g>
								</g>
							</g>
							<g>
								<path class="st15" d="M155.6,236.2c0,2.2-26.8,4-59.9,4s-59.9-1.8-59.9-4c0-2.2,26.8-4,59.9-4S155.6,233.9,155.6,236.2z"/>
								<g>
									<g>
										<rect x="116.3" y="223.9" class="st12" width="27.5" height="2.5"/>
										<rect x="136.7" y="225.9" class="st12" width="1.4" height="8.9"/>
										<rect x="126.2" y="225.9" class="st12" width="1.5" height="8.9"/>
									</g>
									<g>
										<g>
											<g>
												<rect x="50.6" y="206.1" class="st17" width="28.7" height="30.1"/>
												<rect x="79.4" y="206.1" class="st18" width="45.3" height="30.1"/>
											</g>
											<polygon class="st19" points="130.4,209.4 47.1,209.4 61,185.4 117.5,185.4 											"/>
										</g>
										<g>
											<g>
												<g>
													<rect x="54" y="216.6" class="st20" width="3.2" height="14.2"/>
													<rect x="58.7" y="216.6" class="st20" width="3.2" height="14.2"/>
												</g>
												<g>
													<rect x="66.9" y="216.6" class="st20" width="3.2" height="14.2"/>
													<rect x="71.6" y="216.6" class="st20" width="3.2" height="14.2"/>
												</g>
											</g>
											<g>
												<g>
													<rect x="85.2" y="216.6" class="st20" width="3.2" height="14.2"/>
													<rect x="89.9" y="216.6" class="st20" width="3.2" height="14.2"/>
												</g>
												<g>
													<rect x="98.1" y="216.6" class="st20" width="3.2" height="14.2"/>
													<rect x="102.8" y="216.6" class="st20" width="3.2" height="14.2"/>
												</g>
											</g>
											<rect x="110.4" y="216.6" class="st17" width="10.8" height="19.6"/>
											<polygon class="st17" points="77.3,209.6 63.2,187 50.5,209.4 											"/>
										</g>
									</g>
								</g>
							</g>
							<g>
								<path class="st11" d="M50.3,240.9c0.9-0.8,1.1-2.4,0.4-3.4c-0.7-1-2.2-1-3-0.1c0.7-1.7-0.1-4.5-1.3-5.7
									c-1.3-1.2-3.3-1.3-4.7-0.3c-1.1-1.6-4-1.6-5.5-0.4c-0.3-1.8-2.3-3.2-4-2.9c-1.6,0.3-2.9,2.2-2.7,4.1c-0.6-0.5-1.4-1-2.1-0.6
									c-0.6,0.3-1.1,1.1-1.1,1.9c-1.2-0.7-2.3-1.5-3.6-1.3c-1.3,0.2-2.6,1.2-3.1,2.6c-0.5,1.4,0,3.2,1.1,3.9
									c-1.2-0.1-2.8,1.3-2.4,2.6L50.3,240.9z"/>
								<path class="st11" d="M2,257.9c0.8-1.3,0.6-3.1-0.5-4.1c-1.1-1.1-2.9-1.2-4.1-0.4c0.6-0.8-0.2-2.8-0.8-3.6
									c-0.6-0.8-1.7-1.2-2.7-0.9c1.1-2,0-5.3-2.1-6.3c-2.1-1-4.9,0-5.8,2.1c-1.4-1.5-4.1-1.8-5.2-0.1c-1-1.1-1.5-3-2.7-3.7
									c-1.3-0.7-2.9-0.9-4.2-0.2c-1.3,0.7-1.9,2.5-1.1,3.7c-1-0.9-2.6-0.3-3.8,0.1c-1.3,0.4-2.2,1.6-2.5,2.9
									c-1.1-1.5-3.6-2.3-5.4-1.7c-1.8,0.5-3.1,2.3-3.2,4.2c0,1.9,1.2,3.7,3,4.3c-4-0.7-5.8,3.2-4.7,5.2L2,257.9z"/>
								<path class="st11" d="M253.3,234.7c0.4-0.9,0.4-2-0.2-2.7c-0.6-0.8-1.6-1.2-2.5-1c0.3-1.5-0.9-3.5-2.3-4
									c-1.5-0.5-3.3,0.1-4,1.5c-1.3-1-2.4-2.6-4.1-2.8c-1.6-0.2-3.5,0.8-3.6,2.4c-0.5-0.6-1.2-1.2-1.9-0.9c-0.7,0.4-1,1.2-0.8,2
									c-1.4-0.7-3.5-0.4-4.5,0.9c-1,1.2-1,3.1,0,4.3L253.3,234.7z"/>
							</g>
						</g>
					</g>
					<g>
						<g>
							<g>
								<path class="st11" d="M316.4,235.4c0.1,0-1.1,3.8-1.4,4.3c-2.6,3.6-7.5,5.3-11.9,5c-6.6-0.5-9.2-6.7-9.6-6.8
									c-2.9-0.4-6.2-1.9-8.4-3.8c-2.2-1.9-3.6-4.9-3.2-7.8c0.4-2.9,2.4-5.2,5.3-5.4c-1.8-2.2-4.3-4.2-5.4-6.8
									c-1.1-2.6-1.5-5.6-0.6-8.3c0.9-2.7,3-4.1,5.8-4.3c-1.1-1.7-2.3-3.5-2.8-5.4c-0.5-2-0.1-4.3,1.4-5.7c1.5-1.4,5.8-1.4,6.8,0.4
									c-0.7-3-1-6.2-0.1-9.1c0.2-0.7,0.5-1.3,0.8-1.9c1.8-3.3,6-5.5,9.5-4.1c2.3,0.9,3.8,3.1,4.6,5.5c0.7,2.3,0.8,4.8,0.8,7.3
									c1.2-1.9,4.4-2.3,6.3-1.1c1.9,1.2,2.7,3.5,2.7,5.7c0,2.7-1.3,5.4-3.4,7.1c1.8-1.1,4.2-0.8,5.7,0.6c1.5,1.5,2.2,3.7,2.1,5.8
									c0,0.5-0.1,1-0.1,1.4c-0.2,1.6-0.8,3.2-1.3,4.7c-0.8,2.2-2.1,4.6-4.3,5.3c2-0.4,4.2-0.7,5.8,0.5c1.6,1.2,2,3.5,2,5.5
									C323.5,233.2,316.4,235.4,316.4,235.4z"/>
								<path class="st16" d="M319.4,200.6c1.5,1.5,2.2,3.7,2.1,5.8c0,0.5-0.1,1-0.1,1.4c-0.2-0.2-0.4-0.5-0.6-0.7
									c-2.5-2.4-6.7-4.2-10-3.2c1.1-1.8,2-3.9,2-6s-0.7-4.4-2.4-5.7c-1.6-1.4-3.9-2.8-5.6-1.5c-0.2-3.2-0.7-6.7-3.1-8.8
									c-2-1.8-5.1-2-7.6-1.1c-0.6,0.2-1.1,0.4-1.7,0.7c0.2-0.7,0.5-1.3,0.8-1.9c1.8-3.3,6-5.5,9.5-4.1c2.3,0.9,3.8,3.1,4.6,5.5
									c0.7,2.3,0.8,4.8,0.8,7.3c1.2-1.9,4.4-2.3,6.3-1.1c1.9,1.2,2.7,3.5,2.7,5.7c0,2.7-1.3,5.4-3.4,7.1
									C315.4,198.8,317.8,199.2,319.4,200.6z"/>
								<g>
									<polygon class="st12" points="300.3,193.2 302.1,253.4 306.6,253.4 									"/>
									<polygon class="st12" points="303.5,235.9 317.6,224.3 304.5,238.8 									"/>
									<polygon class="st12" points="302.1,231.2 288.2,225.3 302.1,234 									"/>
									<polygon class="st12" points="301.6,214 313.4,203.4 302.1,215.7 									"/>
									<polygon class="st12" points="301.6,211 290.9,203.4 300.9,212.1 									"/>
								</g>
							</g>
							<g>
								<path class="st11" d="M361.8,228.8c0.1,0-1.1,3.9-1.4,4.4c-2.6,3.7-7.7,5.4-12.2,5.1c-6.7-0.5-9.4-6.9-9.9-7
									c-3-0.4-6.3-1.9-8.6-3.9c-2.2-2-3.7-5-3.3-8c0.4-3,2.5-5.3,5.5-5.6c-1.9-2.2-4.4-4.3-5.5-7c-1.1-2.7-1.6-5.7-0.6-8.5
									c0.9-2.7,3-4.2,5.9-4.4c-1.2-1.7-2.4-3.5-2.8-5.6c-0.5-2-0.1-4.4,1.5-5.8c1.6-1.4,5.9-1.5,6.9,0.4
									c-0.9-3.7-1.1-7.7,0.7-11.1c0-0.1,0.1-0.1,0.1-0.2c1.8-3.4,6.1-5.6,9.7-4.2c2.3,0.9,3.9,3.2,4.7,5.6s0.8,5,0.8,7.5
									c1.2-1.9,4.5-2.4,6.4-1.1c1.9,1.2,2.8,3.6,2.8,5.8c0,2.8-1.3,5.5-3.5,7.3c1.8-1.2,4.3-0.8,5.8,0.7c1.6,1.5,2.2,3.8,2.2,5.9
									c0,1-0.2,1.9-0.4,2.9c-0.3,1.2-0.7,2.3-1.1,3.4c-0.9,2.3-2.2,4.8-4.4,5.4c2.1-0.4,4.4-0.8,6,0.5c1.7,1.3,2.1,3.6,2,5.7
									C369.1,226.5,361.8,228.8,361.8,228.8z"/>
								<path class="st16" d="M367,199.1c0,1-0.2,1.9-0.4,2.9c-0.7-1-1.5-1.9-2.5-2.7c-2.5-1.8-6.1-2.4-9-1.5
									c0.8-1.9,1.5-3.8,1.7-5.9c0.2-2-0.1-4.2-1.5-5.8c-1.3-1.6-3.6-2.8-5.4-1.9c0.9-4.1-1-8.7-4.6-10.9c-2.2-1.4-4.9-1.8-7.4-1.4
									c0-0.1,0.1-0.1,0.1-0.2c1.8-3.4,6.1-5.6,9.7-4.2c2.3,0.9,3.9,3.2,4.7,5.6s0.8,5,0.8,7.5c1.2-1.9,4.5-2.4,6.4-1.1
									c1.9,1.2,2.8,3.6,2.8,5.8c0,2.8-1.3,5.5-3.5,7.3c1.8-1.2,4.3-0.8,5.8,0.7C366.4,194.7,367.1,196.9,367,199.1z"/>
								<g>
									<polygon class="st12" points="345.9,186.9 347.2,250.6 351.6,250.6 									"/>
									<polygon class="st12" points="348.7,230 334.9,221.7 348.7,232.9 									"/>
									<polygon class="st12" points="348.7,224.1 362,214.5 348.7,226.5 									"/>
									<polygon class="st12" points="347.2,211.7 333.9,200.7 347.2,209.6 									"/>
								</g>
							</g>
						</g>
						<g>
							<path class="st11" d="M473.2,233.5c0,0,6.3-1.3,7.2-9.4c0.2-1.8,0.1-3.8-1.2-5c-1.4-1.3-3.7-1-5.7-0.9c2.3,0,3.8-2.2,4.9-4.3
								c0.8-1.7,1.6-3.4,1.8-5.2c0.2-1.8-0.1-3.8-1.3-5.2c-1.2-1.4-3.2-1.9-4.9-1.1c2-1.3,3.3-3.5,3.6-5.9c0.2-1.9-0.4-4-1.9-5.2
								c-1.5-1.2-4.4-1.1-5.5,0.4c0.2-2.1,0.4-4.3,0-6.4c-0.4-2.1-1.6-4.2-3.5-5.1c-2.9-1.5-6.7,0-8.6,2.7c-1.9,2.7-2.1,6.2-1.6,9.5
								c-0.7-1.6-4.4-2-5.9-0.9c-1.5,1-2,3-1.8,4.8c0.2,1.8,1.1,3.4,1.9,5c-2.5,0-4.4,1-5.4,3.2c-1,2.2-0.9,4.9-0.2,7.2
								c0.7,2.4,2.7,4.4,4,6.4c-2.5,0-4.5,1.8-5.1,4.2c-0.6,2.5,0.4,5.2,2.1,7c1.7,1.9,4.5,3.4,6.9,4.1c0.4,0.1,2.1,5.8,7.8,6.7
								c3.8,0.6,8.2-0.4,10.8-3.3C471.9,236.7,473.3,233.5,473.2,233.5z"/>
							<g>
								<polygon class="st12" points="463,195.5 459.2,247.9 463.1,248.3 								"/>
								<polygon class="st12" points="461.9,232.8 475.2,224 462.6,235.4 								"/>
								<polygon class="st12" points="461.2,228.6 449.6,222.2 460.9,231 								"/>
								<polygon class="st12" points="462.3,213.6 473.4,205.4 462.5,215.1 								"/>
								<polygon class="st12" points="462.5,211 454,203.4 461.8,211.9 								"/>
							</g>
						</g>
						<g>
							<path class="st21" d="M633.5,249.8v132.1H-48.7V276.9C190.1,260.2,407.5,231,633.5,249.8z"/>
							<path class="st22" d="M633.5,249.8v24.2c-58.3-5.1-161.4-13.2-242.9-13.7C286.4,259.7,44.2,276.1-48.7,283v-6.2
								C190.1,260.2,407.5,231,633.5,249.8z"/>
						</g>
						<g>
							<ellipse class="st23" cx="347.3" cy="282.8" rx="5.5" ry="1.4"/>
							<ellipse class="st23" cx="380" cy="295.8" rx="5.5" ry="1.4"/>
							<ellipse class="st23" cx="426.4" cy="279.9" rx="5.5" ry="1.4"/>
							<ellipse class="st23" cx="550.5" cy="282.4" rx="5.5" ry="1.4"/>
							<ellipse class="st23" cx="363.6" cy="331.6" rx="5.5" ry="1.4"/>
							<ellipse class="st23" cx="271.2" cy="276.7" rx="4.2" ry="1.1"/>
							<ellipse class="st23" cx="158.1" cy="313.8" rx="6.8" ry="1.8"/>
							<ellipse class="st23" cx="226" cy="330.1" rx="7.8" ry="2"/>
							<ellipse class="st23" cx="110.6" cy="328" rx="4.1" ry="1.1"/>
							<ellipse class="st23" cx="290.1" cy="337.9" rx="7.5" ry="2"/>
							<ellipse class="st23" cx="403.6" cy="267.7" rx="4.1" ry="1.1"/>
							<ellipse class="st23" cx="164.6" cy="275.5" rx="2.6" ry="0.7"/>
							<ellipse class="st23" cx="135" cy="291.3" rx="5.5" ry="1.4"/>
							<ellipse class="st23" cx="88.3" cy="285.6" rx="5.5" ry="1.4"/>
							<ellipse class="st23" cx="212.6" cy="275.5" rx="4.3" ry="1.1"/>
							<ellipse class="st23" cx="315.4" cy="309.1" rx="5.5" ry="1.4"/>
						</g>
						<g>
							<g>
								<ellipse class="st24" cx="424.5" cy="254.1" rx="47.2" ry="5.2"/>
								<g>
									<path class="st11" d="M485.4,179.8c-1,3.1-2.5,5.9-4.5,8.2c-5.5,6.7-14,10.3-22,8.4c1.3,4.8-0.4,10.5-4.1,13.3
										c-3.7,2.9-11.4,2.6-15-0.4c-5.7,7.7-15.3,11.4-24,9.4c-8.7-2.1-16-9.9-18.4-19.5c-7.3,5.6-18.7,2.7-23.1-5.9
										c-4.4-8.6-0.9-21.1,7.1-25.3c-8.9-1-19.8-14.4-19.4-24.4c0.4-10,7.1-17.8,16-17.9c-4.6-4.7-5.2-13.3-1.5-18.9
										c3.7-5.5,11.6-7.5,16.8-3.9c0.4-5.7,2.2-11.1,5-15.8c4.4-7.2,11.2-12.6,18.8-14.3c12.6-2.8,25,8.4,30.7,21.3
										c4.6-3.9,11.6-3.5,15.8,0.9c4.2,4.4,4.8,12.3,1.6,17.7c7.2,0.4,15.3,3.7,17.6,11.3c1.4,4.6,0.2,9.7-2,13.8
										c-2.2,4.1-3.3,7.2-6.5,10.4C484.2,154,489.1,168.3,485.4,179.8z"/>
									<path class="st16" d="M485.4,179.8c-1,3.1-2.5,5.9-4.5,8.2c0.2-3.9-0.4-7.9-1.6-11.6c-2.8-8.5-8.4-17.4-16.5-21.3
										c2.5-4,5-8.1,6.3-12.7c1.2-4.6,1-9.7-1.7-13.6s-7.8-6.6-11.9-4.4c1.1-3.1,2-6.3,1.8-9.6c-0.2-3.3-1.7-6.6-4.5-8.3
										c-2.5-1.5-5.7-1.5-8.5-0.5c-2.8,1-4.6,2.5-6.7,4.6c-0.7-11.6-9.5-22.3-20.7-25.2c-6.1-1.6-12.7-0.8-18.4,1.8
										c4.4-7.2,11.2-12.6,18.8-14.3c12.6-2.8,25,8.4,30.7,21.3c4.6-3.9,11.6-3.5,15.8,0.9c4.2,4.4,4.8,12.3,1.6,17.7
										c7.2,0.4,15.3,3.7,17.6,11.3c1.4,4.6,0.2,9.7-2,13.8c-2.2,4.1-3.3,7.2-6.5,10.4C484.2,154,489.1,168.3,485.4,179.8z"/>
									<g>
										<polygon class="st12" points="422.8,116.1 418.9,256.1 430.2,256.1 										"/>
										<path class="st12" d="M424.5,197c1-1.7,31.1-21.7,31.1-21.7l-31.3,15.4L424.5,197z"/>
										<path class="st12" d="M424.5,169c0.7-1.6,21.4-23.1,21.4-23.1l-21.6,17.1L424.5,169z"/>
										<path class="st12" d="M422.4,205.4c-0.9-1.7-29.5-21.7-29.5-21.7l29.7,15.4L422.4,205.4z"/>
										<path class="st12" d="M422.4,161.1c-0.7-1.6-20.3-23.1-20.3-23.1l20.4,17.1L422.4,161.1z"/>
									</g>
								</g>
							</g>
						</g>
					</g>
					<g>
						<path class="st23" d="M633.5,381.9H-48.7v-38.5c250.5-22.2,390.6,28.1,682.2,22.4V381.9z"/>
					</g>
				</g>
			</g>
		</g>
		<g style="clip-path:url(#SVGID_00000098911231863288120440000011462272846223261092_);">
			<ellipse class="st24" cx="235.3" cy="293.4" rx="187.2" ry="4.8"/>
			<g>
				<path class="st25" d="M132.4,111.1c0,0-4.3-2.9-10.6-0.7c-6.3,2.3-7.7,10.7-6.2,17.6c1.6,6.9-7.1,30.4-7.1,30.4
					s4.5,6.3,20.3,3.9c0,0,11.8-21.4,10.9-36.7S132.4,111.1,132.4,111.1z"/>
				<path class="st26" d="M137.4,137.6c5.9-1.9,9.6,3,12.9,12.2c3.4,9.2,4.5,10.1,4.5,10.1l13.1,8.4l-1.1,4.9c0,0-12.5-4.9-15.5-8
					c-3-3.1-11.7-18.8-11.7-18.8L137.4,137.6z"/>
				<path class="st27" d="M108.5,196.9c0,0-2.6,13-2.1,32.6c0,0-10.1,14.9-1.8,57.6h4.4c0,0,3.6-36.3,6.3-46.1
					c2.7-9.8,12.9-12.8,13.4-42.7L108.5,196.9z"/>
				<path class="st27" d="M88.4,235.2c-2.5-8.4-9.1-22.5-25.9-41.5c0,0-1-0.5-2.4,0.3c-1.4,0.9-1.4,1.9-1.4,1.9s8.4,18.4,13.8,31.8
					c1.8,4.5,6.2,7.5,11.1,7.5H88.4z"/>
				<path class="st28" d="M119,251.4c0,0,0.1,6.3-4.1,6.4c-5.8,0.2-6-6.2-12.6-6c-6.6,0.2-20.1,1.9-24.5-8.4
					c-2.2-5.3,0.8-12.1-6.4-17.3c-7.2-5.1-3.7-10.9,0-14c3.7-3.1-1.6-6.4,2.3-8c0.9-0.4,1.8-0.3,2.7,0c0.5,0.2,1,0.4,1.4,0.7
					c2,1.4,3.5,3.7,3.5,3.7c10.9-29.8,30.3-33.8,30.3-33.8l19.2,6.6C131.3,227.8,119,251.4,119,251.4z"/>
				<path class="st8" d="M137.4,137.6c0,0-4.5,1.5-10.8,0.5c-6.4-1-8.4-5-12.9-2.4c-6.7,3.9-3.6,17.2-1.9,24.1
					c0.6,2.6,1.4,9.3-0.1,14.9c0,0,8.9,7,19.2,6.6l5.6-12.1C136.4,169.2,148.6,154.7,137.4,137.6z"/>
				<path class="st26" d="M126,126.4c0,0,0.7,6.3-1.6,12c0,0,3.3,4.9,6.5,1.7c0,0,0.3-5.8,3.9-12.3C137.1,123.5,126,126.4,126,126.4
					z"/>
				<g>
					<path class="st27" d="M120.9,126.7c0,0-2.8-1.8-2.5,1c0.4,3.2,3.5,3.8,3.8,2.7C122.5,129.2,120.9,126.7,120.9,126.7z"/>
					<path class="st27" d="M137,123.2c0,0,1.8-2.8,2.7-0.2c1,3-1.5,4.9-2.3,4C136.6,126.2,137,123.2,137,123.2z"/>
					<path class="st27" d="M131.2,136.1c-5.1,1.1-8.7-1.5-10.9-11.5c-1.1-5.1,0.8-8.9,6.4-10.1c5.7-1.3,8.8,1.3,9.9,6.5
						C139.1,131.7,136.4,135,131.2,136.1z"/>
					<path class="st29" d="M135.8,124.9c0.2,0.5-0.1,1.1-0.7,1.3c-0.6,0.3-1.3,0.1-1.5-0.4c-0.2-0.5,0.1-1.1,0.7-1.3
						C134.9,124.2,135.6,124.4,135.8,124.9z"/>
					<path class="st29" d="M125.4,127.5c0.1,0.5-0.4,1-1,1.1c-0.7,0.1-1.3-0.2-1.3-0.8c-0.1-0.5,0.4-1,1-1.1
						C124.7,126.6,125.3,127,125.4,127.5z"/>
					<g>
						<path class="st25" d="M132.2,120.2c0,0-0.1,0-0.1,0c-0.9-0.6-2.1-0.3-2.1-0.3c-0.1,0-0.3,0-0.3-0.2c0-0.1,0-0.3,0.2-0.3
							c0.1,0,1.5-0.4,2.5,0.3c0.1,0.1,0.2,0.2,0.1,0.4C132.4,120.2,132.3,120.2,132.2,120.2z"/>
					</g>
					<g>
						<path class="st25" d="M122.7,122.4c0,0-0.1,0-0.1,0c-0.1-0.1-0.2-0.2-0.1-0.4c0.7-1.1,2.1-1.4,2.1-1.4c0.1,0,0.3,0.1,0.3,0.2
							c0,0.1-0.1,0.3-0.2,0.3c0,0-1.3,0.3-1.8,1.1C122.8,122.3,122.8,122.4,122.7,122.4z"/>
					</g>
					<path class="st30" d="M132.5,123c0.1,0.6,0,1.2-0.4,1.3c-0.4,0.1-0.7-0.4-0.9-1c-0.1-0.6,0-1.2,0.4-1.3
						C131.9,122,132.3,122.4,132.5,123z"/>
					<path class="st30" d="M125.4,124.6c0.1,0.6,0,1.2-0.4,1.3c-0.4,0.1-0.7-0.4-0.9-1c-0.1-0.6,0-1.2,0.4-1.3
						C124.9,123.5,125.3,123.9,125.4,124.6z"/>
					<path class="st30" d="M130.7,123.1c0,0,0.1-1.7,0.8-1.7c0.6,0,1.4,1.2,1.4,1.2l0.8-0.7l-0.9,0.3c0,0-0.8-1.3-1.4-1.2
						C130.5,121.3,130.7,123.1,130.7,123.1z"/>
					<path class="st30" d="M125.8,124.4c0,0-0.8-1.5-1.4-1.2c-0.6,0.2-0.8,1.7-0.8,1.7l-1-0.3l0.9-0.1c0,0,0.2-1.5,0.8-1.6
						C125.2,122.7,125.8,124.4,125.8,124.4z"/>
					<g>
						<path class="st29" d="M129.3,127.6l-0.3-0.5c0.4-0.2,0.5-0.5,0.4-0.7c-0.1-0.3-0.3-0.5-0.5-0.6c-0.1,0-0.2,0.1-0.3,0.3
							l-0.5-0.2c0.2-0.6,0.7-0.6,0.8-0.6c0.4,0,0.9,0.5,1,1C130.1,126.8,129.9,127.3,129.3,127.6z"/>
					</g>
					<path class="st25" d="M121.3,128.4c0,0-1.6-5.8-0.6-9.8c0,0,4.4-6.2,13-3.1c0,0,2.5,4.1,3.8,9.8c0,0,0.3-2-0.5-6.6
						c-0.8-4.6-4.9-7.4-10.4-6.5C120.9,113.1,114.9,118.6,121.3,128.4z"/>
				</g>
				<path class="st25" d="M130.3,114.2c0,0,0.3,1.5-1.1,5.4c0,0-1.1-1.1-2.3,0c-1.2,1.1-3.7,0.7-4.6,1.3c-0.9,0.6-0.9,2-0.9,2
					s-0.7-1.7,0-3.7c0,0-1.7,2.1-1.4,4.7c0,0-2.3-0.4-2.2-4.1c0.1-3.7,5.4-9.7,11.3-9.4c5.9,0.4,7.4,9.8,7.4,9.8s-0.5-0.4-1.4-0.2
					c0,0-0.1-2-1.5-4.5c0,0,0.6,1.8,0,3.8c0,0-1.7-0.9-3-0.6C130.7,118.7,131.5,117.1,130.3,114.2z"/>
				<path class="st27" d="M112.1,136.9c2.9-2.3,5.1,0.6,5.7,4.6c0.6,4-4.7,27.6-8.7,26.8c-1.6-0.3-2.2-6.5-2.2-6.5s1.6-6.6,2.6-16.7
					C110,140.6,110.6,138.1,112.1,136.9z"/>
				<path class="st27" d="M103.7,165c-3.9-3.7-10.9-16-12.6-22.3l3-1.2c0,0,8.9,12.7,12.9,15.9c4.1,3.2,5.5,6.8,3.7,9.8
					C108.8,170.4,104.5,165.8,103.7,165z"/>
				<g>
					<path class="st27" d="M92.3,134.5c-0.2,4,3.1,5,1.6,8.1c-0.3,0.6-0.8,1-1.2,1.1c-0.9,0.3-1.9,0-2.6-0.7c-1.6-1.6-4-3.2-5.2-4
						c-1.5-0.8-0.6-1.1-0.6-1.1c-0.1-0.1-0.3-0.1-0.4-0.2c-1-0.4-1.9-0.6-1.1-1.1c0.8-0.5,3.9,0.6,3.9,0.6c-3.9-2.6-5-2-4.3-2.5
						c1-0.8,4.7,1,4.8,1c-2.1-2-3.6-2.4-2.7-2.7c0.8-0.3,4.9,2.7,6.4,3.8c0.3,0.2,0.5,0.4,0.5,0.4C91.2,134.1,92.3,134.5,92.3,134.5
						z"/>
					<path class="st26" d="M90.7,136.9c0.3,0.2,0.5,0.4,0.5,0.4s-0.7,1.2,0.2,2.7C91.5,140.1,89.8,139,90.7,136.9z"/>
					<path class="st26" d="M87.3,139.3c-0.3-0.2-2.3-1.3-3.1-1.2c-0.1-0.1-0.3-0.1-0.4-0.2C84.3,137.1,86.9,139,87.3,139.3z"/>
				</g>
				<g>
					<path class="st31" d="M102.8,198.9c0,0.4-0.4,0.8-0.8,0.8c-0.4,0-0.8-0.4-0.8-0.8s0.4-0.8,0.8-0.8
						C102.5,198.1,102.8,198.5,102.8,198.9z"/>
					<path class="st31" d="M116.9,204.4c0,0.4-0.4,0.8-0.8,0.8c-0.4,0-0.8-0.4-0.8-0.8c0-0.4,0.4-0.8,0.8-0.8
						C116.6,203.6,116.9,203.9,116.9,204.4z"/>
					<path class="st31" d="M129,207.3c0,0.4-0.4,0.8-0.8,0.8c-0.4,0-0.8-0.4-0.8-0.8c0-0.4,0.4-0.8,0.8-0.8
						C128.6,206.5,129,206.9,129,207.3z"/>
					<path class="st31" d="M110.5,188.6c0,0.4-0.4,0.8-0.8,0.8c-0.4,0-0.8-0.4-0.8-0.8c0-0.4,0.4-0.8,0.8-0.8
						C110.1,187.8,110.5,188.2,110.5,188.6z"/>
					<circle class="st31" cx="112.4" cy="196.1" r="0.8"/>
					<path class="st31" d="M125.7,200.4c0,0.4-0.4,0.8-0.8,0.8s-0.8-0.4-0.8-0.8c0-0.4,0.4-0.8,0.8-0.8S125.7,200,125.7,200.4z"/>
					<path class="st31" d="M127.4,187.4c0,0.4-0.4,0.8-0.8,0.8c-0.4,0-0.8-0.4-0.8-0.8c0-0.4,0.4-0.8,0.8-0.8
						C127,186.7,127.4,187,127.4,187.4z"/>
					<circle class="st31" cx="118.4" cy="184.8" r="0.8"/>
					<path class="st31" d="M95.8,214.4c0,0.4-0.4,0.8-0.8,0.8c-0.4,0-0.8-0.4-0.8-0.8c0-0.4,0.4-0.8,0.8-0.8
						C95.5,213.6,95.8,213.9,95.8,214.4z"/>
					<path class="st31" d="M84.6,211c0,0.4-0.4,0.8-0.8,0.8c-0.4,0-0.8-0.4-0.8-0.8c0-0.4,0.4-0.8,0.8-0.8
						C84.2,210.2,84.6,210.6,84.6,211z"/>
					<path class="st31" d="M77.9,204.8c-0.1,0.2-0.4,0.4-0.7,0.4c-0.4,0-0.8-0.4-0.8-0.8c0-0.1,0-0.2,0.1-0.3
						C77,204.3,77.4,204.5,77.9,204.8z"/>
					<circle class="st31" cx="99.1" cy="224.7" r="0.8"/>
					<path class="st31" d="M79.7,235.9c0,0.4-0.4,0.8-0.8,0.8s-0.8-0.4-0.8-0.8c0-0.4,0.4-0.8,0.8-0.8S79.7,235.4,79.7,235.9z"/>
					<circle class="st31" cx="87.1" cy="229.1" r="0.8"/>
					<circle class="st31" cx="74.8" cy="223.1" r="0.8"/>
					<path class="st31" d="M85.6,246.7c0,0.4-0.4,0.8-0.8,0.8c-0.4,0-0.8-0.4-0.8-0.8c0-0.4,0.4-0.8,0.8-0.8
						C85.2,245.9,85.6,246.3,85.6,246.7z"/>
					<path class="st31" d="M93.1,205.2c0,0.4-0.4,0.8-0.8,0.8s-0.8-0.4-0.8-0.8s0.4-0.8,0.8-0.8S93.1,204.7,93.1,205.2z"/>
					<path class="st31" d="M100.7,191.9c0,0.4-0.4,0.8-0.8,0.8c-0.4,0-0.8-0.4-0.8-0.8c0-0.4,0.4-0.8,0.8-0.8
						C100.3,191.1,100.7,191.4,100.7,191.9z"/>
					<path class="st31" d="M109.3,180.8c0,0.4-0.4,0.8-0.8,0.8c-0.4,0-0.8-0.4-0.8-0.8c0-0.4,0.4-0.8,0.8-0.8
						C108.9,180,109.3,180.3,109.3,180.8z"/>
					<path class="st31" d="M91.9,196.9c0,0.4-0.4,0.8-0.8,0.8s-0.8-0.4-0.8-0.8s0.4-0.8,0.8-0.8S91.9,196.5,91.9,196.9z"/>
					<path class="st31" d="M101.5,184c0,0.4-0.4,0.8-0.8,0.8c-0.4,0-0.8-0.4-0.8-0.8c0-0.4,0.4-0.8,0.8-0.8
						C101.1,183.2,101.5,183.5,101.5,184z"/>
					<path class="st31" d="M86.3,219.6c0,0.4-0.4,0.8-0.8,0.8c-0.4,0-0.8-0.4-0.8-0.8c0-0.4,0.4-0.8,0.8-0.8
						C86,218.8,86.3,219.1,86.3,219.6z"/>
					<path class="st31" d="M76.4,212.6c0,0.4-0.4,0.8-0.8,0.8s-0.8-0.4-0.8-0.8c0-0.4,0.4-0.8,0.8-0.8S76.4,212.1,76.4,212.6z"/>
					<circle class="st31" cx="104.4" cy="210.2" r="0.8"/>
					<circle class="st31" cx="120.8" cy="214.4" r="0.8"/>
					<path class="st31" d="M120.8,191.9c0,0.4-0.4,0.8-0.8,0.8s-0.8-0.4-0.8-0.8c0-0.4,0.4-0.8,0.8-0.8S120.8,191.4,120.8,191.9z"/>
					<path class="st31" d="M130.3,193.5c0,0.4-0.4,0.8-0.8,0.8s-0.8-0.4-0.8-0.8c0-0.4,0.4-0.8,0.8-0.8S130.3,193.1,130.3,193.5z"/>
					<path class="st31" d="M111.3,220.3c0,0.4-0.4,0.8-0.8,0.8c-0.4,0-0.8-0.4-0.8-0.8s0.4-0.8,0.8-0.8
						C110.9,219.6,111.3,219.9,111.3,220.3z"/>
					<circle class="st31" cx="103.6" cy="234.4" r="0.8"/>
					<circle class="st31" cx="91.5" cy="236.7" r="0.8"/>
					<circle class="st31" cx="124.9" cy="224.7" r="0.8"/>
					<path class="st31" d="M114.7,230.7c0,0.4-0.4,0.8-0.8,0.8s-0.8-0.4-0.8-0.8c0-0.4,0.4-0.8,0.8-0.8S114.7,230.2,114.7,230.7z"/>
					<path class="st31" d="M98.3,248.3c0,0.4-0.4,0.8-0.8,0.8c-0.4,0-0.8-0.4-0.8-0.8c0-0.4,0.4-0.8,0.8-0.8
						C97.9,247.5,98.3,247.9,98.3,248.3z"/>
					<circle class="st31" cx="109.7" cy="244.2" r="0.8"/>
					<circle class="st31" cx="121.5" cy="239.5" r="0.8"/>
					<path class="st31" d="M116.9,253.1c0,0.4-0.4,0.8-0.8,0.8c-0.4,0-0.8-0.4-0.8-0.8c0-0.4,0.4-0.8,0.8-0.8
						C116.6,252.3,116.9,252.7,116.9,253.1z"/>
				</g>
				<g>
					<path class="st28" d="M116.1,294.8h-13c-0.8-2.4,0.7-4.8,0.5-7c-0.5-3.6,1.6-1.6,1.6-1.6c0.4-3.9,5.8-4.6,5.8-2.9
						c-0.1,2.5,0.4,4.1,1.1,5.2c1.5,2.1,3.9,2.1,4.3,3.6c0,0.1,0.1,0.3,0.1,0.4C116.9,294.4,116.1,294.8,116.1,294.8z"/>
					<path class="st32" d="M116.5,292.5c-2.7,0.6-8.9-0.2-9.1-1.8c-0.2-1.5,3.1-2.2,4.8-2.3c1.5,2.1,3.9,2.1,4.3,3.6
						C116.4,292.2,116.4,292.4,116.5,292.5z"/>
				</g>
				<g>
					<path class="st28" d="M62.7,194.2c-1.4-1.3-3.6,0.8-3.6,0.8s1.2,1.8,0.4,2.5c-0.8,0.7-1.7-0.9-3.2-0.2
						c-0.1,0.1-0.3,0.1-0.4,0.2c-1.2,0.7-2.5,2.2-3.5,3.4c-0.2,0.2-0.4,0.4-0.6,0.6c-1.2,1.2-4.2,2-4.8-1.3
						c-0.6-3.3,3.1-7.1,7.2-10.7c4.1-3.5,6.7-1.4,6.7-1.4s0.9,1.5,0.9,2.4c0,0.9,0.8,1.4,1.3,2.3C63.6,193.6,62.7,194.2,62.7,194.2z
						"/>
					<path class="st32" d="M55.9,197.5c-1.2,0.7-2.5,2.2-3.5,3.4c-1.5,0.4-2.9,0.3-3.1-1.2c-0.5-3.5,6.4-7.8,5.8-5.4
						C54.9,195.5,55.4,196.7,55.9,197.5z"/>
				</g>
				<g>
					<path class="st33" d="M132.8,127.4c0,0,0,1.5-1,2.6c-0.4,0.5-1,0.8-1.9,1c-0.5,0.1-0.9,0.1-1.3,0c-1.4-0.3-2.1-1.6-2.1-1.6
						s0.1,0,0.2,0c0.8-0.1,3.9-0.5,5.6-1.6h0C132.6,127.6,132.7,127.5,132.8,127.4z"/>
					<path class="st8" d="M132.5,127.7c-0.4,0.6-1.1,1.2-2.5,1.7c-1.7,0.6-2.6,0.3-3.1-0.1C127.6,129.3,130.7,128.9,132.5,127.7z"/>
					<path class="st34" d="M131.9,130c-0.4,0.5-1,0.8-1.9,1c-0.5,0.1-0.9,0.1-1.3,0c0.5-0.8,1.2-1.2,2.2-1.2
						C131.2,129.9,131.6,129.9,131.9,130z"/>
				</g>
			</g>
			<g>
				<path class="st8" d="M296.3,289.1c-0.6-0.3-1.2-1.1-1.8-2c0,0-0.5-2.8,0-5.7c0.5-2.9-0.8-5.3-4.9-6.2c-4-0.9-6.4,1.1-5.4,9.1
					c0,0,0,0,0,0c-0.6,3.3-0.7,7.2,0.7,10.4h12.3C297.2,294.8,299.1,290.6,296.3,289.1z"/>
				<path class="st27" d="M307.1,245.8c0,0,0,8-4.5,16.2c-4.6,8.4-10.3,19.9-10.3,19.9s-3.8,3.7-6.2-2.4c0,0,1.7-21.3,5.6-29.2
					C295.6,242.5,307.1,245.8,307.1,245.8z"/>
				<path class="st27" d="M366.1,219.7c0,0,7.3,30.8,12,38.9c0,0-1.1,3.4-6.1,4.4c0,0-15.9-23.4-17-33.3
					C354,219.9,366.1,219.7,366.1,219.7z"/>
				<g>
					<path class="st35" d="M369.7,227c-1.9,4.7-17,5-17,5l-1.2-1.7l-0.3-0.4l-2.4-3.5c0,0-24.9-24.5-29.8-22.4h0
						c-0.1,0.1-0.3,0.1-0.4,0.2c-3.3,2.4-3.7,15.5-7.6,37.4c-0.4,2.1-1.2,4.5-1.9,6.2c-0.1,0.2-0.1,0.4-0.2,0.5
						c-0.4,0.9-0.6,1.5-0.6,1.5c-15.2,6.2-20.3-6-20.3-6s0.2-0.4,0.4-0.9c0.1-0.1,0.1-0.3,0.2-0.4c0.8-1.8,2.1-4.8,2.1-6.4
						c0-1.8,0-3.5,0-5.1c0-0.1,0-0.3,0-0.4c0-5.3,0-9.9,0-13.8v-0.4c0-1.7,0-3.4,0.1-4.9v-0.4c0.1-6.9,0.4-11.6,0.6-14.6
						c0-0.1,0-0.3,0-0.4c0.4-5.2,0.9-5.7,0.9-5.7l-3.1-21.2h33.3c0,0,5,5,11.5,11.6c0.1,0.1,0.3,0.3,0.4,0.4c2.4,2.4,4.9,5,7.4,7.6
						c0.1,0.1,0.2,0.2,0.3,0.3c1,1,2,2.1,3,3.1c0.1,0.1,0.2,0.3,0.4,0.4c3.3,3.5,6.6,6.9,9.3,9.9c0.1,0.1,0.2,0.2,0.3,0.3
						c3.8,4.1,6.7,7.4,7.7,8.9c2.6,4,4.7,9.3,5.8,12.5c0,0,0,0,0,0c0.1,0.1,0.1,0.3,0.2,0.4C369.4,226,369.7,227,369.7,227z"/>
					<g>
						<path class="st36" d="M297.3,193.3c-1.4,1.6-3.3,2.6-5.9,2.9c0-0.1,0-0.3,0-0.4c2.4-0.3,4.3-1.3,5.5-2.8
							c2.3-2.7,1.9-6.3,1.9-6.4l0.4,0C299.3,186.8,299.7,190.5,297.3,193.3z"/>
						<path class="st36" d="M334.5,180.9c-0.1,0-0.3,0-0.4,0c-3.7,0-7.6-4-7.8-4.3l0.3-0.3c0,0.1,3.9,4.1,7.4,4.1
							C334.2,180.7,334.3,180.8,334.5,180.9z"/>
						<path class="st36" d="M309.2,247.7c-0.1,0.2-0.1,0.4-0.2,0.5c-2.5,0.9-4.7,1.3-6.8,1.3c-6.6,0-11.1-3.8-13.6-6.7
							c0.1-0.1,0.1-0.3,0.2-0.4C291.9,246.1,298.8,251.7,309.2,247.7z"/>
						<path class="st36" d="M318.1,196.3c0.6,2.4,0.9,4.9,0.9,7.6c-0.1,0.1-0.3,0.1-0.4,0.2c0-12.4-7.2-22.1-7.3-22.2l0.3-0.2
							c0.1,0.1,4.3,5.8,6.3,14.2c0.8-0.6,1.4-1.3,1.6-2.4c1-4.4-3.7-11.5-3.7-11.6l0.3-0.2c0.2,0.3,4.9,7.3,3.8,11.9
							C319.8,194.7,319.1,195.6,318.1,196.3z"/>
						<path class="st36" d="M355.2,202.5c-1.2,1.3-2.4,2.5-2.5,2.6l-0.2,0.2l-0.1-0.3c-1.6-4.2-12-13.4-12.1-13.5l-0.1-0.1l1.7-2.9
							c0.1,0.1,0.2,0.2,0.3,0.3l-1.4,2.4c2,0.7,3.4,0.8,4.4,0.7c0.1,0.1,0.2,0.3,0.4,0.4c-0.3,0.1-0.7,0.1-1.1,0.1
							c-0.9,0-2-0.2-3.2-0.6c2.4,2.1,9.7,8.9,11.3,12.7c0.6-0.6,1.5-1.5,2.3-2.4C355,202.3,355.1,202.4,355.2,202.5z"/>
						<path class="st36" d="M298.3,230.8l-0.2,0c-0.2,0-2,0.4-4.2,0.4c-1.1,0-2.2-0.1-3.2-0.4c0-0.1,0-0.3,0-0.4
							c2.7,0.8,6.3,0.2,7.2,0l-0.7-17.1c-0.4,0.9-1.2,2.2-2.6,2.9c-0.7,0.3-1.4,0.5-2.3,0.5c-0.5,0-1-0.1-1.6-0.2v-0.4
							c1.4,0.3,2.7,0.2,3.7-0.3c1.7-0.9,2.4-2.7,2.6-3.4c-1.4,0.2-4.1-0.5-6.3-1.1v-0.4c2.3,0.7,5.4,1.5,6.5,1.1l0.3-0.1
							L298.3,230.8z"/>
						<path class="st36" d="M368.8,224.4c-2.4,2.4-7.3,6-14.8,6c-0.8,0-1.6,0-2.5-0.1l-0.3-0.4c9.2,1.1,14.9-3.2,17.5-5.8
							C368.7,224.1,368.8,224.3,368.8,224.4z"/>
					</g>
				</g>
				<path class="st37" d="M328.7,78.8c0,0-0.9-2.1-4.8-2.1c-3,0-4.1,1.6-4.1,1.6c-1.8,5.2-3.7,25.1-4.4,25.9
					c-0.3,0.4-22.4,15.2-22.4,15.2c12,0.2,19.5,15,19.5,15c0.4-4.9,13.9-24.1,14.1-25.8C326.8,105.3,332.5,90.9,328.7,78.8z"/>
				<path class="st37" d="M290.4,183c0,0-0.1,4.2,1.2,4.4s12.3,3.5,24.9-2.2c12.6-5.7,14.8-10,11.1-13.1
					C323.9,169,290.4,183,290.4,183z"/>
				<path class="st38" d="M285.3,122.3c0,0-11.5-1.4-18.1,1.5c0,0-1.8,8.1,7.2,26.4c9,18.2,6.9,29.7,17.1,34
					c9,3.8,35.7-7.6,36.5-11.3c2.1-9.5-14.2-26.2-15.2-35.9C311.9,127.2,302.4,112.7,285.3,122.3z"/>
				<path class="st37" d="M267.3,123.8c-8,2.8-17,11.8-17,16.2c0,4.3,7.5,6,7.5,6l12.4-6c0,0,3.5-2.5,1.3-9.7
					C269.1,123.1,267.3,123.8,267.3,123.8z"/>
				<g>
					<path class="st8" d="M300.2,131.8c-2.4,0-5.4-0.9-7.2-2.2c-1-0.7-1.6-1.5-1.8-2.4c-0.5-2.8,2.3-4.3,2.4-4.4l0.4,0.7
						c-0.1,0-2.4,1.2-2,3.5c0.1,0.6,0.6,1.2,1.4,1.8c2.1,1.5,5.6,2.3,8,1.9c1-0.2,1.7-0.6,2-1.1c0.4-0.7,0.1-1.5,0.1-1.5l0.8-0.3
						c0,0,0.5,1.1-0.1,2.2c-0.4,0.8-1.3,1.3-2.6,1.5C301.2,131.7,300.7,131.8,300.2,131.8z"/>
				</g>
				<g>
					<path class="st8" d="M290,140.5c-1.8,0-4.7-0.7-5.1-3.7c-0.2-1.5-0.1-2.7,0-3.8c0.2-1.6,0.3-2.9-0.6-4.4
						c-1.5-2.5-3.6-2.7-3.7-2.7l0-0.8c0.1,0,2.6,0.2,4.4,3.1c1.1,1.8,0.9,3.3,0.7,4.9c-0.1,1.1-0.2,2.2,0,3.6
						c0.4,3.1,4.5,2.9,4.6,2.9l0,0.8C290.3,140.5,290.2,140.5,290,140.5z"/>
				</g>
				<path class="st37" d="M292.5,125.7c0,0,6.1-4.1,4.6-8.6c-1.4-4.5-21-4.2-26,1.2c-5,5.3,10.9,8.9,10.9,8.9
					C283.3,124.7,291.2,124.4,292.5,125.7z"/>
				<path class="st39" d="M281.6,125c-2.9-1-4.6-3.1-4-5.5c0.6-2.4,13-2.5,15.3-0.5S292,128.5,281.6,125z"/>
				<path class="st26" d="M280.3,118.3c0,0,2.5,4.3,1.4,6.7c0,0,8.7,3,8.7-1.9c0,0-1.6-3.7-1-6L280.3,118.3z"/>
				<g>
					<path class="st40" d="M277.4,114.5c0,0-4.3-6.9-3.9-13.4c0.2-3.3,1.9-4.6,1.9-4.6s-1.4-1.9,0.1-4.8c0,0,2,2.3,9.1,1.6
						c6.8-0.7,7.5,4.2,7.5,4.2c4.9,0.7,1.6,15.5-1.8,17H277.4z"/>
					<path class="st27" d="M275.5,108.1c0,0-2.5-2.5-2.8,0.4c-0.4,3.3,2.7,4.7,3.3,3.6C276.6,111.1,275.5,108.1,275.5,108.1z"/>
					<path class="st27" d="M292.8,108.3c0,0,2.5-2.5,2.8,0.4c0.4,3.3-2.7,4.7-3.3,3.6C291.7,111.3,292.8,108.3,292.8,108.3z"/>
					<path class="st27" d="M283.9,120.2c-5.5,0-8.6-3.6-8.6-14.3c0-5.5,2.8-8.9,8.9-8.9c6.1,0,8.7,3.4,8.7,8.9
						C293,117.4,289.6,120.2,283.9,120.2z"/>
					<path class="st29" d="M291.2,109.7c0.1,0.6-0.4,1.1-1.1,1.2c-0.7,0.1-1.3-0.2-1.4-0.8c-0.1-0.6,0.4-1.1,1.1-1.2
						C290.5,108.8,291.1,109.2,291.2,109.7z"/>
					<path class="st29" d="M279.9,110c0,0.6-0.6,1-1.3,0.9c-0.7,0-1.2-0.5-1.2-1.1c0-0.6,0.6-1,1.3-0.9
						C279.4,109,280,109.5,279.9,110z"/>
					<g>
						<path class="st40" d="M288.8,104c-0.1,0-0.1,0-0.2-0.1c-0.9-0.7-2.2-0.4-2.2-0.4c-0.1,0-0.3-0.1-0.3-0.2
							c0-0.1,0.1-0.3,0.2-0.3c0.1,0,1.6-0.3,2.6,0.5c0.1,0.1,0.1,0.3,0.1,0.4C288.9,103.9,288.8,104,288.8,104z"/>
					</g>
					<g>
						<path class="st40" d="M278.3,104c-0.1,0-0.1,0-0.2-0.1c-0.1-0.1-0.1-0.3,0-0.4c1-0.8,2.6-0.6,2.6-0.6c0.1,0,0.3,0.2,0.2,0.3
							c0,0.1-0.2,0.2-0.3,0.2c0,0-1.3-0.2-2.2,0.5C278.4,104,278.4,104,278.3,104z"/>
					</g>
					<path class="st30" d="M288.2,107.1c0,0.7-0.3,1.2-0.7,1.2c-0.4,0-0.7-0.6-0.7-1.2c0-0.7,0.3-1.2,0.7-1.2
						C287.9,105.8,288.2,106.4,288.2,107.1z"/>
					<path class="st30" d="M280.9,107.1c0,0.7-0.3,1.2-0.7,1.2c-0.4,0-0.7-0.6-0.7-1.2c0-0.7,0.3-1.2,0.7-1.2
						S280.9,106.4,280.9,107.1z"/>
					<path class="st40" d="M277,98.2c0,0,5.8,2.1,14.2,1.5c0,0,1.8,2.2,1.6,10.1c0,0,4.9-14.1-9.4-14.1c-14.3,0-7.9,13.8-7.9,13.8
						S274.4,100.8,277,98.2z"/>
					<g>
						<path class="st29" d="M284.3,110.7l-0.4-0.4l1.1-1.1c-1-1.5-1-4.9-1-5.1l0.6,0c0,0,0,3.7,1.1,4.9l0.2,0.2L284.3,110.7z"/>
					</g>
				</g>
				<path class="st8" d="M303.6,127.3c1-0.2,0.9,2.5,0,1.7C302.7,128.2,302.6,127.5,303.6,127.3z"/>
				<path class="st8" d="M291.2,140.3c-0.2,1-2.7,0.1-1.6-0.6C290.7,139.2,291.4,139.3,291.2,140.3z"/>
				<path class="st26" d="M280.2,146c0,0-1.6,4.2-1.5,6.6c0.1,2.4,0.9,2.1,0.9,2.1s-1.2,0.5-1.5,1.9c-0.2,1.4,3.2,2.4,3.4,2.4
					c0.2,0,2.7-0.9,2.7-0.9l0.5-7.7l-2.1-1.4L280.2,146z"/>
				<path class="st27" d="M281.5,145.4c0,0,3,1.9,4.1,3c1.2,1.1,0.5,9.9,0,10.3c-0.5,0.4-4.3,1.3-5,0.8c-0.7-0.5,0.3-3,0.3-3
					s1.9-0.4,1.6,0.3s0,1.3,0,1.3l0.8-0.3c0,0-0.4-2,0-3.4c0.4-1.4-2.7-3-3-5.6C279.9,146.1,281.5,145.4,281.5,145.4z"/>
				<path class="st37" d="M250.7,141.2c-1-4.1,3.1-5.6,8.8-4.9c6.6,0.8,20.1,2.5,23,9.7c0,0,1,2.8-1.5,4.2
					C274.1,153.9,252.5,148.9,250.7,141.2z"/>
				<path class="st39" d="M271.3,138.4c0,0-7.8-3.3-11.7-3.6C255.6,134.5,264.9,137.9,271.3,138.4z"/>
				<g>
					<path class="st27" d="M330.1,67.9c-0.6,0.7-1.6,3.3-1.6,3.3c-0.4,2.2-0.6,3.4-1.4,4.4c-0.8,1-0.4,2.8-0.4,2.8s-3,1.5-5.5-0.4
						c0,0,0.3-1.8,0-2.3c-0.5-1-2.2-1.5-2.7-3.6c-0.6-2-2.3-4.3-2.3-4.3s0.5-1.1,1.4-0.4c0.9,0.6,1.5,2.3,1.9,2.4
						c0.1,0,0.2,0.1,0.3,0.1c0,0,0,0,0,0c0.4,0,0.7,0,1-0.3c0,0,0,0,0.1,0c0.8-0.9,1-3.7,1-5c0-1.7,0-4.1,1.1-3.7
						c1.1,0.4,0.1,1.4,0.9,5.2l0.4,0c0.1,0.3,0.8-2.3,1-4.7c0.1-1.7,1.2-1.1,1.5-0.5c0.2,0.5-0.1,2.2-0.2,3.4
						c-0.1,0.8-0.1,1.6-0.2,2.1l0.5,0.3c1.7-2.9,1.1-4.1,2.1-4.2c1-0.1,0.6,2.4,0.1,3.3c-0.2,0.4-0.4,1.2-0.6,2.1
						c1.7-2,1.5-3,2.3-2.9C331.4,65.2,330.6,67.2,330.1,67.9z"/>
					<path class="st26" d="M322.7,72.4c-0.6-1.6-2.6-2.3-2.9-2.4c0.4,0,0.7,0,1-0.3C322.8,70.6,322.7,72.4,322.7,72.4z"/>
				</g>
				<g>
					<path class="st8" d="M287,282.7c0,0-1.1-2.3-0.1-3.3c1-1,2.2,0.9,3.9,0.4c1.7-0.4,2.1-1.6,2.6,0
						C293.8,281.5,293.3,286.8,287,282.7z"/>
					<path class="st31" d="M293.5,282.6c0,0-4.7,1.6-7.1,0l0.6,2c0,0,5.1,0.5,5.8-0.7L293.5,282.6z"/>
					<path class="st31" d="M293.4,285.1c0,0-4.3-0.6-6.3,0.5v1c0,0,5.6-1.3,7.4,0L293.4,285.1z"/>
					<path class="st31" d="M286.9,288.6c0,0,0.8-2,3.4-2.2c2.6-0.1,4.3,1.3,4.3,1.3S290.6,286.1,286.9,288.6z"/>
				</g>
				<g>
					<path class="st8" d="M396.6,260.7c-8.2,10.9-19.3,13-19.3,13c-3.2-2.6-3.3-5.6-3.3-5.6s-3.1-2.8-3.5-4.1
						c-0.4-1.3,2.7-5.3,4.5-4.9c1.3,0.3,2,1.3,2.4,1.9c-1.5-3.4-0.3-4.6,1.9-4.3c2.3,0.3,0.1,0.8,1.7,2.7c0.1,0.1,0.2,0.2,0.4,0.3
						c0.3,0.2,0.6,0.3,1.1,0.4c0.4,0.1,0.7,0.1,1.2,0.1c0.2,0,0.4,0,0.7-0.1c0.4-0.1,0.8-0.2,1.3-0.3c0.7-0.2,1.4-0.5,2.1-0.9
						c2.8-1.5,4-2.1,6.2-1.5c2.1,0.5,2.1,2.2,2.1,2.2L396.6,260.7z"/>
					<path class="st31" d="M396.6,260.7c-8.2,10.9-19.3,13-19.3,13c5.7-2.4,10.9-5.6,14.5-9.6C395.3,260.2,396.6,260.7,396.6,260.7z
						"/>
					<g>
						<path class="st31" d="M381.3,259.5c0.3,0.2,0.6,0.3,1.1,0.4c-2.2,0.4-2.3,2.4-2.3,2.4l-0.9-0.3
							C379.3,259.7,381.2,259.5,381.3,259.5z"/>
						<path class="st31" d="M382.8,262.6l-1,0c-0.4-1.4,0.1-2.2,0.6-2.6c0.4,0.1,0.7,0.1,1.2,0.1
							C382.4,261.1,382.8,262.6,382.8,262.6z"/>
						<path class="st31" d="M385.2,262l-1,0.1c-0.4-1-0.3-1.7,0-2.2c0.4-0.1,0.8-0.2,1.3-0.3C384.7,260.8,385.2,262,385.2,262z"/>
					</g>
				</g>
				<path class="st37" d="M293.6,160.6c0,0,2.1,11.4-2.2,15.9c-4.3,4.5-1.4,0.8-0.2-5C292.5,165.7,291.6,159.5,293.6,160.6z"/>
				<path class="st37" d="M313.3,155.5c0,0,6.7,2.2,10.3,8.4C323.6,164,318.8,153.8,313.3,155.5z"/>
				<g>
					<path class="st33" d="M287.8,115c-0.5,0.6-1.4,1-2.7,1.1c-1,0.1-1.8-0.1-2.4-0.4c-2-0.9-2-3.2-2-3.2s0.3,0,0.7,0
						c1.4,0,4.8,0.1,7-0.4c0.2,0,0.3-0.1,0.5-0.1C288.7,112,288.9,113.8,287.8,115z"/>
					<path class="st8" d="M288.3,112.1c-0.6,0.9-2.1,1.4-3.6,1.4c-1.3,0-2.6-0.3-3.4-1C282.7,112.6,286.1,112.6,288.3,112.1z"/>
					<path class="st34" d="M287.8,115c-0.5,0.6-1.4,1-2.7,1.1c-1,0.1-1.8-0.1-2.4-0.4c0.7-0.8,1.7-1.3,2.8-1.3
						C286,114.5,287,114.6,287.8,115z"/>
				</g>
			</g>
			<g>
				<g>
					<path class="st27" d="M138.5,70.9c0.9,0,3.5,1,3.5,1c1.9,1.2,3,1.8,4.2,1.9c1.3,0.1,1.8,2.3,1.8,2.3s5,1.1,5.3-2.1
						c0,0-2.8-3.9-3-4.5c-0.4-1.1,0.3-2.6-0.8-4.4c-1.1-1.8-1.7-4.6-1.7-4.6s-1.1-0.3-1.2,0.7c-0.1,1.1,0.7,2.6,0.5,3.1
						c0,0.1-0.1,0.2-0.1,0.3c0,0,0,0,0,0c-0.2,0.3-0.5,0.5-0.8,0.6c0,0,0,0-0.1,0c-1.2,0-3.4-1.8-4.3-2.6c-1.2-1.2-3.1-2.7-3.5-1.7
						c-0.4,1.1,1,1,3.2,4.1l-0.2,0.3c0.2,0.2-2.2-1-4.2-2.5c-1.3-1-1.6,0.2-1.4,0.7c0.2,0.5,1.7,1.4,2.6,2.1c0.6,0.5,1.3,1,1.7,1.3
						l-0.1,0.5c-3.3-0.7-3.8-1.9-4.5-1.3c-0.7,0.7,1.4,2.1,2.4,2.3c0.4,0.1,1.2,0.5,1.9,0.9c-2.6-0.1-3.2-0.9-3.7-0.2
						C135.6,70.1,137.6,70.9,138.5,70.9z"/>
					<path class="st26" d="M146.8,68.5c-0.8-1.5,0.1-3.5,0.2-3.7c-0.2,0.3-0.5,0.5-0.8,0.6C145.4,67.4,146.8,68.5,146.8,68.5z"/>
				</g>
				<g>
					<path class="st27" d="M285,70.9c-0.9,0-3.5,1-3.5,1c-1.9,1.2-3,1.8-4.2,1.9c-1.3,0.1-1.8,2.3-1.8,2.3s-5,1.1-5.3-2.1
						c0,0,2.8-3.9,3-4.5c0.4-1.1-0.3-2.6,0.8-4.4c1.1-1.8,1.7-4.6,1.7-4.6s1.1-0.3,1.2,0.7c0.1,1.1-0.7,2.6-0.5,3.1
						c0,0.1,0.1,0.2,0.1,0.3c0,0,0,0,0,0c0.2,0.3,0.5,0.5,0.8,0.6c0,0,0,0,0.1,0c1.2,0,3.4-1.8,4.3-2.6c1.2-1.2,3.1-2.7,3.5-1.7
						c0.4,1.1-1,1-3.2,4.1l0.2,0.3c-0.2,0.2,2.2-1,4.2-2.5c1.3-1,1.6,0.2,1.4,0.7c-0.2,0.5-1.7,1.4-2.6,2.1c-0.6,0.5-1.3,1-1.7,1.3
						l0.1,0.5c3.3-0.7,3.8-1.9,4.5-1.3c0.7,0.7-1.4,2.1-2.4,2.3c-0.4,0.1-1.2,0.5-1.9,0.9c2.6-0.1,3.2-0.9,3.7-0.2
						C287.8,70.1,285.9,70.9,285,70.9z"/>
					<path class="st26" d="M276.7,68.5c0.8-1.5-0.1-3.5-0.2-3.7c0.2,0.3,0.5,0.5,0.8,0.6C278.1,67.4,276.7,68.5,276.7,68.5z"/>
				</g>
				<path class="st25" d="M241.2,221.9l-9.6-59.2l-19.2,2.1l-19.2-2.1l-9.6,59.2l-4.6,57.5c0,0,1.5,4.8,11,1.5
					c0,0,7.1-53.3,8.2-54.5c1.1-1.2,12.4-36,12.4-36h3.5c0,0,11.3,34.8,12.4,36c1.1,1.2,8.2,54.5,8.2,54.5c9.6,3.3,11-1.5,11-1.5
					L241.2,221.9z"/>
				<path class="st41" d="M206.5,105.2c1.2,1.2,7.2,3.3,10.3,0l2.1,2.1c0,0-2.4,5.7-6.7,5.9c-4.3,0.2-7.3-5.1-7.3-5.1L206.5,105.2z"
					/>
				<path class="st41" d="M223.3,104.6c7.1-3.1,30.2-11.2,30.2-11.2S269,74,272.1,71.1c0,0,3.4,0.6,4.4,4.9c0,0-10,21.3-15.4,27.5
					c-5.4,6.1-32.9,19.3-32.9,19.3L223.3,104.6z"/>
				<path class="st40" d="M198.4,104.2c2.1-1.3,12.8,5.8,12.8,5.8s13.8-7.3,17.1-5.9c0,0,2.9,3.9,4.1,14c1.2,10.1,1.3,51.5,1.3,51.5
					s-9.3,3.3-21.9,3.3c-14.3,0-22.1-4.1-22.1-4.1S187.1,111.3,198.4,104.2z"/>
				<path class="st26" d="M207,103.1c0,0,1.5,4.8,0,6.7c0,0,1.6,3.3,4.5,3.5c3.3,0.2,4.5-3.5,4.5-3.5s-1.7-4.7,0-6.3L207,103.1z"/>
				<g>
					<path class="st35" d="M203.2,98.3c0,0-3.2-6.2-2.6-12.8c0.6-6.6,10.6-8.2,17.4-4.9c0,0-2-2-1.2-2.5c0.8-0.5,2.1,2.9,2.1,2.9
						s2.1-0.7,2.5,0c0.3,0.7-2.2,1-2.2,1s4.3,2.4,0.3,15.2L203.2,98.3z"/>
					<path class="st27" d="M202.7,94.4c0,0-2.4-2.4-2.7,0.4c-0.3,3.3,2.6,4.6,3.2,3.5C203.8,97.3,202.7,94.4,202.7,94.4z"/>
					<path class="st27" d="M219.6,94.6c0,0,2.4-2.4,2.7,0.4c0.3,3.3-2.6,4.6-3.2,3.5C218.5,97.5,219.6,94.6,219.6,94.6z"/>
					<path class="st27" d="M210.9,106.2c-5.3,0-8.3-3.5-8.3-13.9c0-5.4,2.7-8.7,8.7-8.7c6,0,8.5,3.3,8.5,8.7
						C219.8,103.5,216.4,106.2,210.9,106.2z"/>
					<path class="st29" d="M218,96c0.1,0.5-0.4,1.1-1,1.2c-0.7,0.1-1.3-0.2-1.4-0.8c-0.1-0.5,0.4-1.1,1-1.2
						C217.3,95.1,217.9,95.4,218,96z"/>
					<path class="st29" d="M207,96.3c0,0.5-0.6,0.9-1.3,0.9c-0.7,0-1.2-0.5-1.2-1.1c0-0.5,0.6-0.9,1.3-0.9
						C206.5,95.2,207.1,95.7,207,96.3z"/>
					<g>
						<path class="st35" d="M215.6,90.5c-0.1,0-0.1,0-0.2-0.1c-0.7-0.8-2-0.7-2.1-0.7c-0.1,0-0.3-0.1-0.3-0.3c0-0.1,0.1-0.3,0.3-0.3
							c0.1,0,1.6,0,2.5,0.9c0.1,0.1,0.1,0.3,0,0.4C215.7,90.5,215.6,90.5,215.6,90.5z"/>
					</g>
					<g>
						<path class="st35" d="M205.5,90.5c-0.1,0-0.1,0-0.2-0.1c-0.1-0.1-0.1-0.3,0-0.4c0.9-0.9,2.4-0.9,2.5-0.9
							c0.1,0,0.3,0.1,0.3,0.3c0,0.1-0.1,0.3-0.3,0.3c0,0-1.3,0-2.1,0.7C205.7,90.5,205.6,90.5,205.5,90.5z"/>
					</g>
					<path class="st30" d="M215.1,93.4c0,0.7-0.3,1.2-0.7,1.2c-0.4,0-0.7-0.5-0.7-1.2c0-0.7,0.3-1.2,0.7-1.2
						C214.8,92.2,215.1,92.7,215.1,93.4z"/>
					<path class="st30" d="M208,93.4c0,0.7-0.3,1.2-0.7,1.2c-0.4,0-0.7-0.5-0.7-1.2c0-0.7,0.3-1.2,0.7-1.2
						C207.7,92.2,208,92.7,208,93.4z"/>
					<path class="st35" d="M219.2,95.8c0,0-0.2-5.8-2.4-10.3c0,0-4,1.8-4.9,1.4c-0.9-0.4,0.8-1.4,0.8-1.4s-6.6,2.2-7,1.7
						c-0.4-0.4,2.2-1.7,2.2-1.7l-4.1,1.4c0,0-1.3,5.2-0.7,8.9c0,0-1.8-3-2-5.1c-0.2-2.1,0.7-8.1,6.9-8.5c6.2-0.4,9.6,1,11.2,3.8
						C220.7,88.7,220.5,92.2,219.2,95.8z"/>
					<g>
						<path class="st29" d="M211.8,98.8c-0.5,0-1-0.1-1.2-0.2l0.2-0.5c0.6,0.2,1.4,0.2,1.6,0c0.1-0.1,0-0.3-0.1-0.5
							c-0.8-1.6-0.9-5.8-0.9-6l0.6,0c0,0,0.2,4.2,0.9,5.7c0.2,0.5,0.2,0.8,0,1.1C212.6,98.7,212.2,98.8,211.8,98.8z"/>
					</g>
				</g>
				<path class="st42" d="M217.7,106.8c0,0,9.7,30,10.6,54.4c0,0,3.5,1,7.4-4.4c3.9-5.3,1.6-47.7-5.9-54.7
					C229.8,102,226.4,101.2,217.7,106.8z"/>
				<path class="st41" d="M219.3,112c0,0,1.7-4,1-6.8s-3.5,0-3.5,0S217.9,109.7,219.3,112z"/>
				<path class="st41" d="M199.9,104.6c-7.1-3.1-30.2-11.2-30.2-11.2s-15.5-20-18.7-22.8c0,0-3.9,2.2-4.2,6.8c0,0,9.7,20,15.2,26.1
					c5.4,6.1,32.9,19.3,32.9,19.3L199.9,104.6z"/>
				<path class="st42" d="M205.5,106.8c0,0-9.7,30-10.6,54.4c0,0-3.5,1-7.4-4.4c-3.9-5.3-1.6-47.7,5.9-54.7
					C193.5,102,196.9,101.2,205.5,106.8z"/>
				<path class="st41" d="M204,112c0,0-1.7-4-1-6.8s3.5,0,3.5,0S205.4,109.7,204,112z"/>
				<g>
					<path class="st36" d="M254.4,294.8h-19.2c-1.3-7.6,0.8-15.3,0.8-15.3l8.8-1.5c0.8,4.8,1.8,6.7,3.1,7.7c0,0,0,0,0,0
						c1,0.7,2.1,0.9,3.6,1.4c1.7,0.6,2.5,1.6,3,2.8C255.2,292.1,254.4,294.8,254.4,294.8z"/>
					<path class="st35" d="M254.4,289.9c-4.7,0.6-15.1,1.6-14.5-1.1c0.5-2.3,4.9-2.9,7.9-3.1c0,0,0,0,0,0c1,0.7,2.1,0.9,3.6,1.4
						C253.1,287.7,253.9,288.8,254.4,289.9z"/>
				</g>
				<g>
					<path class="st36" d="M190.1,294.8H171c0,0-0.6-1.8-0.3-3.7c0.2-1.5,1.1-3.2,3.3-3.9c1.7-0.6,2.9-0.8,4-1.8
						c1.1-1.1,2-3,2.7-7.4l8.8,1.5C189.3,279.5,191.5,287.1,190.1,294.8z"/>
					<path class="st35" d="M170.6,291.1c0.2-1.5,1.1-3.2,3.3-3.9c1.7-0.6,2.9-0.8,4-1.8c2.4,0.7,5.8,2.1,6.9,4.2
						C186.2,292.4,175,292,170.6,291.1z"/>
				</g>
				<g>
					<path class="st33" d="M215.1,99.4c0,0,0,1.7-1.5,2.6c-0.5,0.4-1.3,0.6-2.3,0.7c-0.5,0-0.9-0.1-1.3-0.2c-1.5-0.7-2-2.5-2-2.5
						s0.2,0,0.5,0.1c1.1,0.1,4,0.3,6-0.4C214.7,99.6,214.9,99.5,215.1,99.4z"/>
					<path class="st8" d="M214.5,99.6c-0.7,0.9-2.1,1.2-3.3,1.2c-1,0-2-0.2-2.7-0.9C209.6,100.1,212.5,100.3,214.5,99.6z"/>
					<path class="st34" d="M213.6,102c-0.5,0.4-1.3,0.6-2.3,0.7c-0.5,0-0.9-0.1-1.3-0.2c0.5-0.6,1.4-0.9,2.1-0.9
						C212.6,101.6,213.1,101.8,213.6,102z"/>
				</g>
			</g>
			<g>
				<g>
					<path class="st28" d="M327.8,293.4c0,0.8-0.1,1.4-0.1,1.4h-23.3c0-0.5,0-0.9,0-1.4c0.3-6.1,2.2-11.4,2.2-11.4l5.8-2.5
						c0.5,3,1.8,4.9,3.4,6.2c0.4,0.3,0.9,0.6,1.3,0.9c0.2,0.1,0.4,0.2,0.6,0.3c0.5,0.2,1,0.4,1.5,0.6c2.1,0.6,4.1,0.8,5.6,1
						C327.4,288.8,327.8,291.6,327.8,293.4z"/>
					<path class="st43" d="M327.8,293.4c0,0.8-0.1,1.4-0.1,1.4h-23.3c0-0.5,0-0.9,0-1.4H327.8z"/>
					<path class="st43" d="M317.2,286.5l-3.2,1l-0.7-1.2l2.6-0.7C316.3,286,316.8,286.3,317.2,286.5z"/>
					<path class="st43" d="M319.4,287.4l-2.2,1.4l-1.3-0.5l2-1.5C318.3,287.1,318.8,287.3,319.4,287.4z"/>
				</g>
				<g>
					<path class="st28" d="M238.8,293.4c-0.1,0.8-0.3,1.4-0.3,1.4H223c-0.2-0.5-0.3-0.9-0.4-1.4c-1.5-7.4,8.8-16.5,8.8-16.5l3.3,4.4
						c0,0-0.4,7,2.4,8.4C238.7,290.6,238.9,292.2,238.8,293.4z"/>
					<path class="st43" d="M222.6,293.4h16.2c-0.1,0.8-0.3,1.4-0.3,1.4H223C222.8,294.3,222.7,293.9,222.6,293.4z"/>
					<path class="st43" d="M236.3,289.1c0,0-6.5-1.5-9.5,0.4v-1.1C226.8,288.5,232.3,285.8,236.3,289.1z"/>
					<path class="st43" d="M235,287.5c0,0-4.2-1.9-8.2,0l0.5-1.1C227.3,286.4,232.1,284.6,235,287.5z"/>
				</g>
				<path class="st44" d="M320.8,227.4c0,6.2-5.5,57.1-5.5,57.1c-5.5,0.6-10-0.6-10-0.6c-1.5-25.8-1.7-48-1.7-48L277,216.1l-0.1,0
					c0,0-0.1,0.5-0.3,1.3c-1.3,5.8-6.9,30.3-9.2,35.9c-2.6,6.4-31.5,33.2-31.5,33.2c-5.4-0.7-9.9-4.6-9.9-4.6
					c10.4-17.2,24.5-34.4,24.5-34.4c1.1-6.2,1.9-20,2.4-30.3c0-0.2,0-0.3,0-0.5c0.3-7,0.5-12.2,0.5-12.2l-4.9-10l30.9-11.4l6.9,8.9
					c0,0,1.6,1.5,4.1,3.8c0.1,0.1,0.2,0.2,0.3,0.3C300.1,204.8,320.8,224.6,320.8,227.4z"/>
				<g>
					<path class="st31" d="M252.9,217.1c0-0.2,0-0.3,0-0.5c6.5-3.5,5.4-9.2,5.4-9.2l0.4-0.1C258.8,207.3,259.9,213.4,252.9,217.1z"
						/>
					<path class="st31" d="M276.6,212.1c0.2,1.2,0.4,2.6,0.5,4l-0.1,0c0,0-0.1,0.5-0.3,1.3c-0.3-9.7-4.3-15.4-4.3-15.5l0.3-0.2
						c0,0,2.6,3.7,3.8,10c4.7-4.2,0.1-12.7,0-12.8l0.4-0.2C276.9,198.7,281.8,207.7,276.6,212.1z"/>
					<path class="st31" d="M290.8,196C290.8,196,290.8,196,290.8,196c-0.2,0.1-0.4,0.1-0.7,0.1c-2.3,0-6.1-3.2-6.3-3.3l0.3-0.3
						c1.2,1.1,4.7,3.6,6.3,3.2C290.6,195.8,290.7,195.9,290.8,196z"/>
				</g>
				<path class="st31" d="M250.7,141.2c0,0,9.4-1.5,14.1,1.5c4.7,3,10.9,10.8,10.9,10.8s-7.3,1-8.2,6
					C267.6,159.5,262.2,146.7,250.7,141.2z"/>
				<path class="st8" d="M236.6,146.1c-4,2.2-10.6,10.2-10.9,15.2c-0.3,4.8,3.3,9.3,5.7,13.1c7.5,11.8,15.5,22.3,18.9,36.1
					c0,0.1,17.3,6.9,37.5-17.4c0,0-11.4-15.4-15.4-28.5c-1.6-5.3-3.2-11-6.3-15.7c-3.4-5.2-9.2-8.2-15.3-7.7
					C245.6,141.6,240.5,143.9,236.6,146.1z"/>
				<path class="st26" d="M234.9,141.1c0,0,2.5,4.3,1.4,6.7c0,0,8.7,3,8.7-1.9c0,0-1.6-3.7-1-6L234.9,141.1z"/>
				<path class="st26" d="M254.3,170.9c0,0-4.9,1.4-6.1,3.1s-2.3,5.6-2.3,5.6h8.4l1.6-2.9l1.8-3.9L254.3,170.9z"/>
				<g>
					<path class="st28" d="M246.3,136.3c0,0,3.4-1.4,1.2-11.7c-1.5-6.8-3.6-7.8-4.9-7.9c0,0-1.7-2.5-7.4-1.3c-4,0.8-7.1,3.2-8.5,7.7
						c-1.5,4.6,1.5,14.6,5.3,15.6L246.3,136.3z"/>
					<path class="st27" d="M247.1,129.3c0,0,2.1-3,3,0c0.9,3.4-2,5.3-2.8,4.3C246.4,132.6,247.1,129.3,247.1,129.3z"/>
					<path class="st27" d="M229.1,132.5c0,0-3-2.1-2.8,0.9c0.2,3.5,3.6,4.4,4,3.2C230.7,135.4,229.1,132.5,229.1,132.5z"/>
					<path class="st27" d="M240.4,143.4c5.7-0.9,8.3-5.2,6.5-16.4c-1-5.8-4.5-8.8-10.9-7.8c-6.4,1.1-8.5,5-7.6,10.8
						C230.4,142,234.5,144.3,240.4,143.4z"/>
					<path class="st29" d="M231,133.7c0,0.6,0.6,1.1,1.3,1.1c0.7,0,1.3-0.5,1.3-1.1c0-0.6-0.6-1.1-1.3-1.1
						C231.6,132.6,231,133.1,231,133.7z"/>
					<path class="st29" d="M242.8,132.1c0.1,0.6,0.8,0.9,1.5,0.7c0.7-0.2,1.2-0.8,1.1-1.3c-0.1-0.6-0.8-0.9-1.5-0.7
						C243.1,130.9,242.7,131.5,242.8,132.1z"/>
					<g>
						<path class="st30" d="M232.6,127.5c-0.1,0-0.1,0-0.2-0.1c-0.1-0.1-0.2-0.3-0.1-0.4c0.8-1.2,2.4-1.4,2.5-1.4
							c0.2,0,0.3,0.1,0.3,0.2c0,0.2-0.1,0.3-0.2,0.3c0,0-1.4,0.2-2.1,1.2C232.8,127.4,232.7,127.5,232.6,127.5z"/>
					</g>
					<g>
						<path class="st30" d="M243.4,125.7c-0.1,0-0.1,0-0.2-0.1c-0.9-0.7-2.3-0.4-2.3-0.4c-0.2,0-0.3-0.1-0.3-0.2
							c0-0.2,0.1-0.3,0.2-0.3c0.1,0,1.7-0.3,2.8,0.5c0.1,0.1,0.2,0.3,0.1,0.4C243.5,125.6,243.5,125.7,243.4,125.7z"/>
					</g>
					<path class="st30" d="M233.7,130.4c0.1,0.7,0.5,1.2,0.9,1.2c0.4-0.1,0.6-0.7,0.5-1.4c-0.1-0.7-0.5-1.2-0.9-1.2
						C233.8,129.1,233.5,129.7,233.7,130.4z"/>
					<path class="st30" d="M241.3,129.1c0.1,0.7,0.5,1.2,0.9,1.2c0.4-0.1,0.6-0.7,0.5-1.4c-0.1-0.7-0.5-1.2-0.9-1.2
						C241.4,127.8,241.2,128.4,241.3,129.1z"/>
					<path class="st25" d="M243.7,121.8c0,0-6.4,4.7-14.5,5l0.2,7.2c0,0-7.5-13.9,7.4-16.3c14.9-2.5,10.6,13.1,10.6,13.1
						S246.8,124,243.7,121.8z"/>
					<g>
						<path class="st29" d="M238.4,133.6l0-0.6c0,0,0.9-0.1,1.1-0.6c0.1-0.2-0.3-0.9-0.6-1.5c-0.4-0.9-1-1.9-1.2-3.1l0.6-0.1
							c0.2,1.1,0.8,2.1,1.2,2.9c0.5,0.9,0.8,1.6,0.6,2.1C239.6,133.6,238.4,133.6,238.4,133.6z"/>
					</g>
					<path class="st37" d="M247.2,121.8c-10.8-4.7-21.1,5-21.1,5s-1.2-7.9,0.9-9.8c0.5-0.5,1.1-0.9,1.7-1.3c4.8-3,11.2-3,14.1-1.9
						c0.6,0.2,1.1,0.5,1.3,0.7C245.8,116.4,247.2,121.8,247.2,121.8z"/>
					<path class="st8" d="M245.8,120c0,0-9.1-1.8-17.6,3.8c0,0-0.5-5.1,0.5-8.1c4.8-3,11.2-3,14.1-1.9
						C244.5,115.8,245.8,120,245.8,120z"/>
					<path class="st39" d="M227,125.9c0,0,1.4-6.1,3.4-7.9c3.2-2.9,12.3-3.9,17.1-2.1c4.8,1.7,0,6.9,0,6.9S239.9,117.4,227,125.9z"
						/>
					<g>
						<path class="st33" d="M242.2,137.1c-0.4,0.3-0.9,0.5-1.6,0.6c-0.9,0.2-1.7,0.1-2.3,0c-2.1-0.5-2.6-2.3-2.6-2.3
							c0.2,0,0.3,0,0.5,0.1c2.1,0.2,5.2-0.6,6.5-0.9c0.4-0.1,0.6-0.2,0.6-0.2S243.5,136.1,242.2,137.1z"/>
						<path class="st34" d="M242.2,137.1c-0.4,0.3-0.9,0.5-1.6,0.6c-0.9,0.2-1.7,0.1-2.3,0c0.5-0.9,1.3-1.3,2.1-1.3
							C241.1,136.4,241.7,136.7,242.2,137.1z"/>
						<path class="st8" d="M242.7,134.5c-0.6,1.2-2,1.6-3.5,1.6c-1.1,0-2.2-0.3-3-0.7C238.4,135.6,241.4,134.9,242.7,134.5z"/>
					</g>
				</g>
				<path class="st27" d="M241,166.6c0,0,3.7,5.8,10.1,9.2c0,0,7.9-6.9,18.2-6.3c0,0-8.5,15.4-15.8,17.1c-3.8,0.9-17.7-8.3-17.7-8.3
					S238.5,168.5,241,166.6z"/>
				<path class="st31" d="M227.3,156.2c3.4-5.5,11.3,2.7,13.9,8.5c2.7,5.9,4.6,7.1,4.6,7.1s-7.8,3.3-7.8,9.2
					C238.1,181,219.9,168.3,227.3,156.2z"/>
				<path class="st26" d="M251.1,173.3c0,0,4.8-4.7,20.5-10.8l-2-6.4c1.8-2.4,5.1-2.4,5.1-2.4s8.1,11.4,6.7,14.8
					C280.5,170.6,263.7,172.8,251.1,173.3z"/>
				<path class="st27" d="M268.3,164c0,0,0.1-0.7,0.7-1.5c0.6-0.8,0.4-2.3,0.6-2.8c0.2-0.5,1.4-2.4,2.3-2.7c0.8-0.4,1.9-1,2.1,0.1
					c0.2,1-1.5,0.7-2.2,2.2c0,0,1.7-0.5,3-0.2c1.3,0.3,1.7,1.5,0.1,1.5c-1.3,0-3,0.9-3,0.9s1.7,0.3,1.4,1
					C272.9,163.6,270.8,162.9,268.3,164z"/>
			</g>
			<g>
				<path class="st45" d="M152.1,185.4c1.4,3.6,7.2,9.8,7.2,9.8s14.1-8.4,20.5-4.9c6.5,3.5,11.6,5.7,15.8,4.2
					c4.2-1.5-13.8-34.4-13.8-34.4l-23.4-8.9c0,0-0.5,5.9-3.2,7c-2.7,1.1-5.5,10.8-5.3,12.7C150.1,172.7,152.1,185.4,152.1,185.4z"/>
				<path class="st26" d="M178.4,195.4c0,0-6,11.8-18.5,27c0,0-1.3,18-34.2,46.3l-3.4-2.7c0,0,19.6-30.7,23.5-40.1
					c3.9-9.4-2.2-18,15.9-41.9L178.4,195.4z"/>
				<path class="st36" d="M159.2,174.5c-5.2,9.9-6.9,22.7-6.9,22.7l-2.4,6c0,0,8.4,4.5,18.1,6.2l3.9-10.3L159.2,174.5z"/>
				<path class="st27" d="M186.3,194.4c0,0,2.6,13,2.1,32.6c0,0,10.1,14.9,1.8,57.6h-4.4c0,0-3.6-36.3-6.3-46.1
					c-2.7-9.8-12.9-12.8-13.4-42.7L186.3,194.4z"/>
				<g>
					<path class="st35" d="M188.8,208.4c0,0-8.2,1.5-22.8,0.8l-0.2-1.6l-0.1-0.4l-1.5-10.6c0,0-1.4-1.7-2.8-4.5
						c-0.2-0.3-0.3-0.7-0.5-1c-2-4.2-3.7-10.2-1.7-16.6l3.1,0.1l0.4,0l10.3,0.5l0.4,0l3.4,0.2l0.5,0l2.2,0.1c0,0,11.1,10,9.1,28.5
						l0.1,2.6l0,0.4L188.8,208.4z"/>
					<g>
						<path class="st36" d="M162.7,174.6c-0.3,0.8-2.2,7.1-1.2,17.4c-0.2-0.3-0.3-0.7-0.5-1c-0.7-9.4,1-15.3,1.3-16.4
							c0-0.1,0.1-0.2,0.1-0.2L162.7,174.6C162.7,174.5,162.7,174.6,162.7,174.6z"/>
						<path class="st36" d="M188.7,206.9c-2.9,0.7-7.9,1-12.6,1c-4.2,0-8.2-0.2-10.4-0.3l-0.1-0.4c3.7,0.2,13.4,0.6,19.7-0.1
							l-0.4-6.6c0.1-7.7-2.2-14.3-4.5-18.9c-5.7-1-7.3-5.3-7.6-6.5c0-0.2-0.1-0.3-0.1-0.3l0.4-0.1c0,0,0,0.2,0.1,0.4
							c0.4,1.2,1.9,4.9,6.9,6c-1.5-3-3-5-3.6-5.8c-0.2-0.2-0.3-0.4-0.3-0.4l0.3-0.3c0,0,0.2,0.2,0.5,0.7c1.9,2.6,8.3,12.3,8.2,25.1
							l0.4,6.6c1.1-0.1,2.1-0.3,2.9-0.5L188.7,206.9z"/>
					</g>
				</g>
				<path class="st44" d="M167.7,129.8c-3.3-1.8-26.9,7.4-26.9,7.4s-3.5,6.2-1.3,8.7c2.2,2.4,9.9,1.4,12.3,0
					c2.4-1.4,8.6-2.4,8.6-2.4L167.7,129.8z"/>
				<path class="st38" d="M188.6,110.2c0,0,4.9,1.9,6.7,7.5c1.8,5.6-3.5,19.8-1.7,26.4c1.8,6.5,1.6,18.9-4.2,21.5
					c-5.8,2.6-17.5-2.1-20.1-9.2c-2.5-7.1-1.4-34.1,3.4-43.3C177.6,103.9,187.4,108.5,188.6,110.2z"/>
				<path class="st44" d="M183,134.4c1.3,1.4,4.6-1.1,4.6-1.1s-0.1,12.2-3.6,13.2c-3.6,0.9-12.6-9.6-12.3-12.5
					S180.1,131.4,183,134.4z"/>
				<path class="st25" d="M169.3,131.4c0,0,3.6,3.1,9.9,4.5c6.3,1.5,9.7-1.5,12.9,2.5c4.8,6.1-3,17.3-7.1,23.1
					c-1.5,2.2-4.8,8.2-5.4,13.9c0,0-10.9,3.2-20.3-0.9l-0.7-13.4C158.5,161.1,152.6,143.1,169.3,131.4z"/>
				<path class="st44" d="M180.5,144.4c0,0,5-11.9,6.4-12.6c1.4-0.8,5.1,1.1,5.8,2.7c0.7,1.6,0,5.2,0,5.2S188.8,135.1,180.5,144.4z"
					/>
				<path class="st31" d="M204.3,194.4c-2.3,4.6-7.8,6-7.8,6s-0.4-0.6-1.1-1.8c-0.1-0.1-0.2-0.2-0.2-0.4
					c-4.4-7.1-17.7-29.7-17.4-41.5c0.3-14.1,9.5-21.8,9.5-21.8c4.7,1.1,6.1,2.4,6.1,2.4s1.6,8,0.1,17.6c-1.4,9.6-4.1,12.2-2.7,12.9
					c1.3,0.7,0,2.2,0,2.2s7.7,10.8,9.2,14.1c0.9,2.2,2.5,5.9,3.5,8.2c0.1,0.2,0.1,0.3,0.2,0.5C204.1,193.8,204.3,194.4,204.3,194.4z
					"/>
				<path class="st27" d="M190.9,137.3c0,0-5.5,4.1-2.3,10.4l15.4,15.9c-8.4,9-9.3,12.7-15.4,16.8l2.3,3.6c0,0,21.3-16.4,21.4-20.4
					C212.3,161.9,199.2,141.2,190.9,137.3z"/>
				<path class="st27" d="M188.3,180.4c0,0-2.9,0.3-4.8,0.8c-1.8,0.5-4.3,0.9-4.4,1.3c-0.1,0.4,4.1,0,4.1,0s-3.4,1.4-3.5,1.9
					c-0.1,0.5,4.3-0.4,4.3-0.4s-2.8,1.7-2.6,2.2c0.2,0.5,3.6-0.7,3.6-0.7s-0.6,1.6-1.3,2.4c0,0,0.7,0.4,2-1.1c1.3-1.5,3.5-1,5.2-2.3
					C192.5,183.1,189.8,180.2,188.3,180.4z"/>
				<path class="st31" d="M172.6,133.3c0,0-4.2,2.7-6.9,9.3c-2.7,6.6-11.1,19-13,22.2c-2,3.2-0.6,20.6-0.6,20.6s-2.5-10.6-3.6-14.7
					c-1.1-4.1,3.5-14.3,4.2-14.8c0.7-0.5,4.3,0.4,3.6-3.7c-0.7-4.1,8.9-21.9,11.4-22.4C167.7,129.8,171.8,130.6,172.6,133.3z"/>
				<path class="st31" d="M159.5,134.2c-0.1,0.1-0.2,0.3-0.3,0.4c-1,1.4-2.7,2.5-2.7,2.5s-3.2,4.5-3.2,5c0,0.4-5.6,4.5-8.1,4.4h0
					c-0.3,0-0.6-0.1-0.8-0.3c-1.5-1.4,5-13,6.4-15.5c0.1-0.2,0.2-0.3,0.2-0.4c0-0.1,0.1-0.1,0.1-0.1s-1.1-4.2,3.6-3.4
					c3.9,0.6,4.7,3.8,5.1,5.9C159.9,133.2,159.8,133.7,159.5,134.2z"/>
				<path class="st27" d="M143,138.6c3.3-4.3,14.7-12.6,20.7-15l1.5,2.8c0,0-11.7,10.2-14.4,14.6c-2.7,4.4-6.1,6.2-9.4,4.7
					C138.2,144.3,142.3,139.5,143,138.6z"/>
				<path class="st44" d="M158.4,133.3l-0.6,0.7l-0.3,0.4l-1,1.2c0,0-2.6,3.1-2.5,4.4c0.1,0.9-4.9,4.9-8.7,6.6c-1.6,0.7-3,1-3.8,0.5
					c-2.8-1.6-2.2-6.5-0.6-9.7c1.4-2.9,7.5-6.6,9.1-7.5c0.2-0.1,0.3-0.2,0.4-0.2c0,0,0,0,0,0l0.6-2.3c0,0,2.1-1.3,3.8-0.5
					c0,0-3.7,0.2-3.1,1.6C152.2,129.9,157.4,133.3,158.4,133.3z"/>
				<g>
					<path class="st27" d="M171.8,121.5c-3.7,1.5-3.2,4.9-6.6,4.9c-2.1,0-2.4-2.4-2.4-2.4c1-2.1,1.6-5.6,1.7-7.3
						c0.1-1.7,0.7-1,0.7-1c0-0.2,0-0.3,0-0.5c0-1.1-0.3-1.9,0.5-1.5c0.8,0.5,1.1,3.7,1.1,3.7c0.7-4.7-0.3-5.3,0.5-4.9
						c1.1,0.6,1.1,4.7,1.1,4.8c0.9-2.7,0.6-4.3,1.3-3.6c0.6,0.6-0.3,5.6-0.7,7.4c-0.1,0.4-0.1,0.7-0.1,0.7
						C171.8,120.4,171.8,121.5,171.8,121.5z"/>
					<path class="st26" d="M169,121.1c-0.1,0.4-0.1,0.7-0.1,0.7s-1.4-0.1-2.4,1.3C166.5,123.1,166.8,121.2,169,121.1z"/>
					<path class="st26" d="M165.4,119c0-0.4,0.2-2.7-0.2-3.3c0-0.2,0-0.3,0-0.5C166.1,115.4,165.5,118.5,165.4,119z"/>
				</g>
				<path class="st44" d="M167.7,138.6c0,0,2.5-6.8,3.3-8.3c0.8-1.5,5-1.3,8.1-0.7c3.2,0.6,3.8,4.8,3.8,4.8S173.4,129.9,167.7,138.6
					z"/>
				<path class="st26" d="M184,125.2c0,0-3,5.6-3,11.7c0,0-4.9,3.3-6.7-0.8c0,0,1.9-5.5,1-12.8C174.7,118.3,184,125.2,184,125.2z"/>
				<g>
					<path class="st27" d="M174.3,117.5c0,0-0.9-3.2-2.5-0.9c-1.8,2.6,0,5.1,1,4.5C173.9,120.4,174.3,117.5,174.3,117.5z"/>
					<path class="st27" d="M188.6,125.7c0,0,3.2-0.9,2.1,1.6c-1.3,2.9-4.4,2.6-4.4,1.5C186.3,127.6,188.6,125.7,188.6,125.7z"/>
					<path class="st27" d="M175.6,131.4c-4.5-2.6-5.4-7-0.4-15.9c2.6-4.6,6.5-6.1,11.6-3.2c5.1,2.9,5.6,6.9,3.1,11.5
						C184.5,133.3,180.3,134,175.6,131.4z"/>
					<path class="st29" d="M186.6,126.1c-0.2,0.5-0.8,0.7-1.5,0.5c-0.6-0.2-1-0.8-0.8-1.3c0.2-0.5,0.8-0.7,1.5-0.5
						C186.4,125,186.7,125.6,186.6,126.1z"/>
					<path class="st29" d="M177.1,121.1c-0.3,0.4-1,0.5-1.5,0.1c-0.6-0.4-0.8-1-0.5-1.5c0.3-0.4,1-0.5,1.5-0.1
						C177.2,120,177.4,120.7,177.1,121.1z"/>
					<g>
						<path class="st30" d="M187.2,120.4c-0.1,0-0.2-0.1-0.3-0.2c-0.3-1-1.4-1.6-1.4-1.6c-0.1-0.1-0.2-0.2-0.1-0.4
							c0.1-0.1,0.2-0.2,0.4-0.1c0.1,0,1.3,0.7,1.7,1.9C187.5,120.2,187.4,120.3,187.2,120.4C187.3,120.4,187.2,120.4,187.2,120.4z"
							/>
					</g>
					<g>
						<path class="st30" d="M181,115.9c0,0-0.1,0-0.1,0c0,0-1.1-0.7-2.1-0.4c-0.1,0-0.3,0-0.3-0.2c0-0.1,0-0.3,0.2-0.3
							c1.2-0.4,2.5,0.4,2.5,0.4c0.1,0.1,0.2,0.2,0.1,0.4C181.2,115.9,181.1,115.9,181,115.9z"/>
					</g>
					<path class="st30" d="M185.3,122.5c-0.3,0.6-0.8,0.9-1.1,0.7c-0.3-0.2-0.3-0.8,0-1.3c0.3-0.6,0.8-0.9,1.1-0.7
						C185.7,121.4,185.7,122,185.3,122.5z"/>
					<path class="st30" d="M179,119.1c-0.3,0.6-0.8,0.9-1.1,0.7c-0.3-0.2-0.3-0.8,0-1.3c0.3-0.6,0.8-0.9,1.1-0.7
						C179.3,117.9,179.3,118.5,179,119.1z"/>
					<path class="st30" d="M184,121.4c0,0,1.2-1.2,1.7-0.7c0.5,0.4,0.2,1.8,0.2,1.8l1,0l-0.9-0.3c0,0,0.3-1.5-0.3-1.8
						C185,119.9,184,121.4,184,121.4z"/>
					<path class="st30" d="M179.5,119.1c0,0,0.4-1.6-0.2-1.8c-0.6-0.2-1.7,0.7-1.7,0.7l-0.6-0.9l0.7,0.6c0,0,1.1-1,1.7-0.7
						C180.2,117.4,179.5,119.1,179.5,119.1z"/>
					<path class="st38" d="M188,114.2c0,0-1.6-2.3-3.9-0.5c-2.2,1.8-7.3,4.7-9.8,3.7c-2.5-0.9,5.4-11.6,12.3-8.5
						c6.9,3.1,6.3,13.2,3.4,16.4c-2.9,3.2-1.5,0.2-1.5,0.2s0.2-4.6,1.1-7.6C190.7,115.1,188,114.2,188,114.2z"/>
					<g>
						<path class="st29" d="M180.4,123.9c-0.1,0-0.3,0-0.4-0.1l0.1-0.5c0.5,0.1,0.7-0.1,0.8-0.3c0.2-0.3,0.1-0.6,0-0.7
							c-0.1-0.1-0.2-0.1-0.4,0l-0.3-0.5c0.6-0.3,0.9,0,1,0.1c0.3,0.3,0.3,0.9,0.1,1.4C181.2,123.7,180.8,123.9,180.4,123.9z"/>
					</g>
				</g>
				<g>
					<path class="st44" d="M213.6,162.9c-0.3,4-10.1,17-11.8,17.4c-0.4,0.1-0.9,0.4-1.3,0.6c-0.2,0.1-0.3,0.3-0.5,0.4
						c-0.9,0.8-1.6,1.6-1.6,1.6c-2.9-0.2-11-3.9-8.4-4.8c0.2,0,0.3-0.1,0.5-0.3c0.1-0.1,0.2-0.2,0.3-0.3c3.1-2.6,9-13,9.1-13.8
						c0-0.9,1.1-1,1.1-1s-5.6-8.2-8.9-9.2c-3.3-1-4.9-4.9-4.9-4.9c-3.2-13.6,6.1-11.5,6.1-11.5C200.2,141.4,213.9,158.9,213.6,162.9
						z"/>
					<g>
						<path class="st45" d="M200.5,181c-0.2,0.1-0.3,0.3-0.5,0.4c-4.4-0.3-8.1-2.5-9.5-3.4c0.1-0.1,0.2-0.2,0.3-0.3
							C192.3,178.7,196.1,180.8,200.5,181z"/>
					</g>
				</g>
				<g>
					<path class="st45" d="M159.5,134.2c-0.1,0.1-0.2,0.3-0.3,0.4c-0.6,0-1.2-0.1-1.8-0.2c-2.9-0.6-5.2-2.2-6.6-3.7
						c-0.3-0.3-0.6-0.6-0.9-0.9c0.2-0.1,0.3-0.2,0.4-0.2c0.2,0.2,0.5,0.5,0.7,0.8c1.5,1.4,3.7,3.1,6.7,3.7
						C158.3,134.2,158.9,134.2,159.5,134.2z"/>
				</g>
				<g>
					<path class="st45" d="M203.7,192.8c-1.4,2.3-3.9,5.1-8.2,5.8c-0.1-0.1-0.2-0.2-0.2-0.4c4.5-0.7,7-3.6,8.3-5.9
						C203.5,192.5,203.6,192.7,203.7,192.8z"/>
				</g>
				<g>
					<path class="st8" d="M128.8,267.7c0,0-1,1-2.1,2.9c-1.1,1.9,0.1,3.6-5.1,7.9c0,0-10.4-6.1-15.1-14c0,0,0.1-2.2,2.4-2.8
						c1.2-0.3,4.6,1.3,7.8,1.9c0.5,0.1,0.9,0.2,1.4,0.2c0.6,0,1.1,0.1,1.7,0c0.5,0,1-0.2,1.4-0.3h0c1.1-0.5,2-1.3,2.4-2.9
						c0,0,2.8,1.6,0.9,4.3C124.5,264.7,127.8,263.3,128.8,267.7z"/>
					<path class="st31" d="M121.7,278.4c0,0-10.4-6.1-15.1-14c0,0,1.8-0.4,3.2,2.2C111.2,269.3,122.5,275.2,121.7,278.4z"/>
					<path class="st31" d="M121.7,266c-0.8,1.3-0.8-1.1-2-2.3c0.5,0,1-0.2,1.4-0.3h0C121.6,264,122.4,265,121.7,266z"/>
					<path class="st31" d="M118.4,266.1c-0.9,0.8-1.2-1.4-1.7-2.5c0.5,0.1,0.9,0.2,1.4,0.2C118.6,264.5,119.1,265.5,118.4,266.1z"/>
				</g>
				<g>
					<path class="st8" d="M193,294.8h-14.8c0,0-0.6-2.1,0-4.3c0.3-1,1.8-1.9,3.2-3.2c0.4-0.4,0.8-0.7,1.1-1.1
						c0.3-0.3,0.5-0.7,0.7-1.1c0.3-0.5,0.5-1,0.6-1.5c0.2-1.1,0.1-2.4-0.5-4c0,0,5-1.1,6.8,1.7c0,0,0.2-1.3,1.8-0.4
						c0,0-0.2,2.5,0.1,4.7C192.4,287.6,194.4,288.2,193,294.8z"/>
					<path class="st31" d="M189.2,285.9c-0.1,0.1-0.3,0.2-0.5,0.2c-0.2,0-0.3,0-0.4-0.1c-0.8-0.6-2.5-1.6-4.9-0.9
						c0.3-0.5,0.5-1,0.6-1.5c1-0.4,2.8-0.6,5.1,1.4C189.4,285.2,189.4,285.6,189.2,285.9z"/>
					<path class="st31" d="M187.9,288.3l-0.1,0.1c-0.2,0.3-0.6,0.4-0.9,0.2c-1-0.6-3.3-1.7-5.5-1.4c0.4-0.4,0.8-0.7,1.1-1.1
						c1.1-0.3,3.2-0.4,5.2,1.3C188,287.7,188.1,288,187.9,288.3z"/>
				</g>
				<g>
					<path class="st33" d="M182.6,126.5c0,0-0.7,1.6-2.4,1.9c-0.7,0.1-1.5,0-2.5-0.5c-0.7-0.4-1.2-0.8-1.5-1.2
						c-1-1.5-0.2-3.2-0.2-3.2s0.1,0.1,0.4,0.3c0.9,0.6,3.5,2.4,5.7,2.7C182.3,126.5,182.5,126.5,182.6,126.5z"/>
					<path class="st8" d="M182.1,126.4c-0.4,0.2-0.9,0.3-1.5,0.3h-0.1c-2,0-3.6-1.1-4.1-3C177.3,124.4,179.9,126.1,182.1,126.4z"/>
					<path class="st34" d="M180.2,128.4c-0.7,0.1-1.5,0-2.5-0.5c-0.7-0.4-1.2-0.8-1.5-1.2c0.3-0.1,0.6-0.2,1-0.2
						C178.4,126.5,179.8,127.3,180.2,128.4z"/>
				</g>
			</g>
		</g>
		<g style="clip-path:url(#SVGID_00000098911231863288120440000011462272846223261092_);">
			<defs>
				<rect id="SVGID_00000005981891078127132760000007171102130004570814_" x="7.3" y="233.7" width="454.8" height="148.2"/>
			</defs>
			<clipPath id="SVGID_00000050655999337641465940000007734724616218123415_">
				<use xlink:href="#SVGID_00000005981891078127132760000007171102130004570814_"  style="overflow:visible;"/>
			</clipPath>
		</g>
	</g>
</g>
</svg>
