<?xml version="1.0" encoding="UTF-8"?>
<svg xmlns="http://www.w3.org/2000/svg" width="47.39" height="40.04" xmlns:xlink="http://www.w3.org/1999/xlink" viewBox="0 0 47.39 40.04">
  <defs>
    <linearGradient id="linear-gradient" x1="20.45" y1="34.28" x2="20.45" y2="3.52" gradientUnits="userSpaceOnUse">
      <stop offset="0" stop-color="#008200"/>
      <stop offset="1" stop-color="#77c600"/>
    </linearGradient>
    <linearGradient id="linear-gradient-2" x1="25.28" y1="25.03" x2="17.46" y2="6.78" gradientUnits="userSpaceOnUse">
      <stop offset="0" stop-color="#757575"/>
      <stop offset=".23" stop-color="#535353"/>
      <stop offset=".58" stop-color="#262626"/>
      <stop offset=".84" stop-color="#0a0a0a"/>
      <stop offset="1" stop-color="#000"/>
    </linearGradient>
    <linearGradient id="linear-gradient-3" x1="37.66" y1="34.28" x2="37.66" y2="3.52" xlink:href="#linear-gradient"/>
    <linearGradient id="linear-gradient-4" x1="43.86" y1="25.27" x2="37.27" y2="10.15" xlink:href="#linear-gradient-2"/>
  </defs>
  <g style="isolation: isolate;">
    <g id="_圖層_2" data-name="圖層 2">
      <g id="_圖層_6" data-name="圖層 6">
        <g>
          <g style="mix-blend-mode: multiply; opacity: .3;">
            <polygon points="13.83 5.62 0 5.62 0 14.84 5.19 20.31 7.99 23.26 7.89 23.37 0 31.7 0 40.04 14.69 40.04 30.59 23.26 13.83 5.62" style="fill: #fff;"/>
            <polygon points="14 5.45 .17 5.45 .17 14.67 5.35 20.14 8.16 23.09 8.06 23.2 .17 31.53 .17 39.87 14.86 39.87 30.76 23.09 14 5.45" style="fill: #f9f9f9;"/>
            <polygon points="14.17 5.28 .33 5.28 .33 14.5 5.52 19.97 8.33 22.92 8.22 23.03 .33 31.35 .33 39.7 15.02 39.7 30.93 22.92 14.17 5.28" style="fill: #f3f3f3;"/>
            <polygon points="14.33 5.11 .5 5.11 .5 14.33 5.69 19.8 8.49 22.75 8.39 22.86 .5 31.18 .5 39.53 15.19 39.53 31.09 22.75 14.33 5.11" style="fill: #ededed;"/>
            <polygon points="14.5 4.93 .66 4.93 .66 14.16 5.85 19.62 8.66 22.58 8.56 22.69 .66 31.01 .66 39.36 15.35 39.36 31.26 22.58 14.5 4.93" style="fill: #e7e7e7;"/>
            <polygon points="14.67 4.76 .83 4.76 .83 13.99 6.02 19.45 8.82 22.41 8.72 22.52 .83 30.84 .83 39.18 15.52 39.18 31.42 22.41 14.67 4.76" style="fill: #e1e1e1;"/>
            <polygon points="14.83 4.59 1 4.59 1 13.82 6.18 19.28 8.99 22.24 8.89 22.35 1 30.67 1 39.01 15.69 39.01 31.59 22.24 14.83 4.59" style="fill: #dbdbdb;"/>
            <polygon points="15 4.42 1.16 4.42 1.16 13.65 6.35 19.11 9.16 22.06 9.06 22.17 1.16 30.5 1.16 38.84 15.85 38.84 31.76 22.06 15 4.42" style="fill: #d5d5d5;"/>
            <polygon points="15.16 4.25 1.33 4.25 1.33 13.48 6.52 18.94 9.32 21.89 9.22 22 1.33 30.33 1.33 38.67 16.02 38.67 31.92 21.89 15.16 4.25" style="fill: #cfcfcf;"/>
            <polygon points="15.33 4.08 1.5 4.08 1.5 13.31 6.68 18.77 9.49 21.72 9.39 21.83 1.5 30.16 1.5 38.5 16.18 38.5 32.09 21.72 15.33 4.08" style="fill: #c9c9c9;"/>
            <polygon points="15.5 3.91 1.66 3.91 1.66 13.13 6.85 18.6 9.65 21.55 9.55 21.66 1.66 29.99 1.66 38.33 16.35 38.33 32.26 21.55 15.5 3.91" style="fill: #c3c3c3;"/>
            <polygon points="15.66 3.74 1.83 3.74 1.83 12.96 7.02 18.43 9.82 21.38 9.72 21.49 1.83 29.82 1.83 38.16 16.52 38.16 32.42 21.38 15.66 3.74" style="fill: #bdbdbd;"/>
            <polygon points="15.83 3.57 1.99 3.57 1.99 12.79 7.18 18.26 9.99 21.21 9.89 21.32 1.99 29.64 1.99 37.99 16.68 37.99 32.59 21.21 15.83 3.57" style="fill: #b7b7b7;"/>
            <polygon points="15.99 3.4 2.16 3.4 2.16 12.62 7.35 18.09 10.15 21.04 10.05 21.15 2.16 29.47 2.16 37.82 16.85 37.82 32.75 21.04 15.99 3.4" style="fill: #b1b1b1;"/>
            <polygon points="16.16 3.22 2.33 3.22 2.33 12.45 7.51 17.91 10.32 20.87 10.22 20.98 2.33 29.3 2.33 37.64 17.02 37.64 32.92 20.87 16.16 3.22" style="fill: #ababab;"/>
            <polygon points="16.33 3.05 2.49 3.05 2.49 12.28 7.68 17.74 10.49 20.7 10.38 20.81 2.49 29.13 2.49 37.47 17.18 37.47 33.09 20.7 16.33 3.05" style="fill: #a5a5a5;"/>
            <polygon points="16.49 2.88 2.66 2.88 2.66 12.11 7.85 17.57 10.65 20.52 10.55 20.64 2.66 28.96 2.66 37.3 17.35 37.3 33.25 20.52 16.49 2.88" style="fill: #9f9f9f;"/>
            <polygon points="16.66 2.71 2.82 2.71 2.82 11.94 8.01 17.4 10.82 20.35 10.72 20.46 2.82 28.79 2.82 37.13 17.51 37.13 33.42 20.35 16.66 2.71" style="fill: #999;"/>
            <polygon points="16.82 2.54 2.99 2.54 2.99 11.77 8.18 17.23 10.98 20.18 10.88 20.29 2.99 28.62 2.99 36.96 17.68 36.96 33.58 20.18 16.82 2.54" style="fill: #939393;"/>
            <polygon points="16.99 2.37 3.16 2.37 3.16 11.6 8.34 17.06 11.15 20.01 11.05 20.12 3.16 28.45 3.16 36.79 17.85 36.79 33.75 20.01 16.99 2.37" style="fill: #8d8d8d;"/>
            <polygon points="17.16 2.2 3.32 2.2 3.32 11.42 8.51 16.89 11.32 19.84 11.21 19.95 3.32 28.28 3.32 36.62 18.01 36.62 33.92 19.84 17.16 2.2" style="fill: #878787;"/>
            <polygon points="17.32 2.03 3.49 2.03 3.49 11.25 8.68 16.72 11.48 19.67 11.38 19.78 3.49 28.1 3.49 36.45 18.18 36.45 34.08 19.67 17.32 2.03" style="fill: #818181;"/>
            <polygon points="17.49 1.86 3.65 1.86 3.65 11.08 8.84 16.55 11.65 19.5 11.55 19.61 3.65 27.93 3.65 36.28 18.34 36.28 34.25 19.5 17.49 1.86" style="fill: #7b7b7b;"/>
            <polygon points="17.66 1.69 3.82 1.69 3.82 10.91 9.01 16.38 11.81 19.33 11.71 19.44 3.82 27.76 3.82 36.11 18.51 36.11 34.41 19.33 17.66 1.69" style="fill: #757575;"/>
            <polygon points="17.82 1.51 3.99 1.51 3.99 10.74 9.17 16.2 11.98 19.16 11.88 19.27 3.99 27.59 3.99 35.93 18.68 35.93 34.58 19.16 17.82 1.51" style="fill: #6f6f6f;"/>
            <polygon points="17.99 1.34 4.15 1.34 4.15 10.57 9.34 16.03 12.15 18.99 12.05 19.1 4.15 27.42 4.15 35.76 18.84 35.76 34.75 18.99 17.99 1.34" style="fill: #696969;"/>
            <polygon points="18.15 1.17 4.32 1.17 4.32 10.4 9.51 15.86 12.31 18.81 12.21 18.93 4.32 27.25 4.32 35.59 19.01 35.59 34.91 18.81 18.15 1.17" style="fill: #636363;"/>
            <polygon points="18.32 1 4.49 1 4.49 10.23 9.67 15.69 12.48 18.64 12.38 18.75 4.49 27.08 4.49 35.42 19.18 35.42 35.08 18.64 18.32 1" style="fill: #5d5d5d;"/>
            <polygon points="18.49 .83 4.65 .83 4.65 10.06 9.84 15.52 12.64 18.47 12.54 18.58 4.65 26.91 4.65 35.25 19.34 35.25 35.25 18.47 18.49 .83" style="fill: #575757;"/>
            <polygon points="18.65 .66 4.82 .66 4.82 9.89 10.01 15.35 12.81 18.3 12.71 18.41 4.82 26.74 4.82 35.08 19.51 35.08 35.41 18.3 18.65 .66" style="fill: #515151;"/>
            <polygon points="18.82 .49 4.98 .49 4.98 9.71 10.17 15.18 12.98 18.13 12.88 18.24 4.98 26.57 4.98 34.91 19.67 34.91 35.58 18.13 18.82 .49" style="fill: #4b4b4b;"/>
            <polygon points="18.98 .32 5.15 .32 5.15 9.54 10.34 15.01 13.14 17.96 13.04 18.07 5.15 26.39 5.15 34.74 19.84 34.74 35.74 17.96 18.98 .32" style="fill: #454545;"/>
          </g>
          <g>
            <polygon points="35.74 17.96 19.84 34.74 5.15 34.74 5.15 26.39 13.04 18.07 13.14 17.96 10.34 15.01 35.74 17.96" style="fill: #f05;"/>
            <g style="opacity: .9;">
              <polygon points="18.98 .32 5.15 .32 5.15 9.54 10.34 15.01 13.14 17.96 13.04 18.07 5.15 26.39 5.15 34.74 19.84 34.74 35.74 17.96 18.98 .32" style="fill: url(#linear-gradient);"/>
              <path d="m19.98,35.05H4.83v-8.79l7.87-8.31-7.87-8.29V0h14.29l17.06,17.96-16.2,17.1Zm-14.51-.63h14.24l15.6-16.46L18.85.63H5.47v8.78l8.11,8.54-.3.33-7.81,8.24v7.9Z" style="fill: #fff;"/>
            </g>
            <polygon points="13.04 18.07 13.14 17.96 10.34 15.01 5.15 9.54 5.15 .32 18.98 .32 35.74 17.96 13.04 18.07" style="fill: url(#linear-gradient-2); mix-blend-mode: screen; opacity: .7;"/>
          </g>
          <polygon points="34.45 4.24 27.94 4.24 40.88 17.86 28.6 30.82 35.11 30.82 47.39 17.86 34.45 4.24" style="fill: url(#linear-gradient-3); opacity: .9;"/>
          <polygon points="34.45 4.24 27.94 4.24 40.88 17.86 47.39 17.86 34.45 4.24" style="fill: url(#linear-gradient-4); mix-blend-mode: screen; opacity: .7;"/>
        </g>
      </g>
    </g>
  </g>
</svg>