<?xml version="1.0" encoding="UTF-8"?>
<svg id="_圖層_2" data-name="圖層 2" xmlns="http://www.w3.org/2000/svg" width="169.76" height="42.4" viewBox="0 0 169.76 42.4">
  <g id="_圖層_6" data-name="圖層 6">
    <g>
      <path d="m21.2,42.4C9.51,42.4,0,32.89,0,21.2S9.51,0,21.2,0h127.36c11.69,0,21.2,9.51,21.2,21.2s-9.51,21.2-21.2,21.2H21.2Z" style="fill: #e2e2e2;"/>
      <path d="m148.56,39.42H21.2c-10.06,0-18.22-8.16-18.22-18.22h0C2.98,11.14,11.14,2.98,21.2,2.98h127.36c10.06,0,18.22,8.16,18.22,18.22h0c0,10.06-8.16,18.22-18.22,18.22Z" style="fill: #f39c11;"/>
      <path d="m148.56,4.71H21.2c-9.09,0-16.49,7.4-16.49,16.49h160.34c0-9.09-7.4-16.49-16.49-16.49Z" style="fill: #ffb64d;"/>
    </g>
  </g>
</svg>