<?xml version="1.0" encoding="utf-8"?>
<!-- Generator: Adobe Illustrator 27.5.0, SVG Export Plug-In . SVG Version: 6.00 Build 0)  -->
<svg version="1.1" id="_圖層_2" xmlns="http://www.w3.org/2000/svg" xmlns:xlink="http://www.w3.org/1999/xlink" x="0px" y="0px"
	 width="391.2px" height="391.2px" viewBox="0 0 391.2 391.2" style="enable-background:new 0 0 391.2 391.2;" xml:space="preserve"
	>
<style type="text/css">
	.st0{fill:#0AA07D;}
	.st1{opacity:0.1;enable-background:new    ;}
	.st2{opacity:0.15;fill:#FFFFFF;enable-background:new    ;}
	.st3{clip-path:url(#SVGID_00000042725313566475537080000002001220367655703735_);fill:#BFF4F5;}
	.st4{clip-path:url(#SVGID_00000042725313566475537080000002001220367655703735_);}
	.st5{fill:#75E6EA;}
	.st6{fill:#FFAE91;}
	.st7{fill:#FF941B;}
	.st8{fill:#E4CEC3;}
	.st9{fill:#FFFFFF;}
	.st10{fill:#A3CDDA;}
	.st11{fill:#A0572F;}
	.st12{fill:#463C39;}
	.st13{fill:#FFEDB0;}
	.st14{fill:#FFC500;}
	.st15{fill:#FFD442;}
	.st16{fill:#4B423F;}
	.st17{fill:#C7C4C4;}
	.st18{fill:#F63904;}
	.st19{fill:#F6F5F5;}
	.st20{fill:#CDCACA;}
	.st21{fill:#007399;}
	.st22{fill:#59A4BD;}
	.st23{fill:#4F4643;}
	.st24{fill:#A29D9C;}
	.st25{fill:#87807E;}
	.st26{fill:#564D4B;}
	.st27{fill:#9B9694;}
	.st28{fill:#BAB7B6;}
	.st29{fill:#D8BAAA;}
	.st30{fill:#EEEDED;}
	.st31{fill:#00D1D8;}
	.st32{fill:#FFBEA7;}
	.st33{fill:#C6C2C2;}
	.st34{fill:#706967;}
	.st35{fill:#B5F2F4;}
	.st36{fill:#82BACD;}
</style>
<g>
	<g>
		<g>
			<path class="st0" d="M188.7,0C98.2,0,24.9,68.1,24.9,152v187.9h202.5c90.5,0,163.8-68.1,163.8-152V0L188.7,0z"/>
		</g>
	</g>
	<path class="st1" d="M24.9,335.2v4.6h202.5c90.5,0,163.8-68.1,163.8-152V68.5C327.2,154.6,205.7,283.5,24.9,335.2z"/>
	<path class="st2" d="M188.7,0C98.2,0,24.9,68.1,24.9,152v74C151.8,58.7,333.7,13.9,391.2,3.6V0L188.7,0z"/>
</g>
<g>
	<g>
		<rect x="1.8" y="116.2" class="st0" width="25.1" height="275"/>
	</g>
</g>
<g>
	<g>
		<defs>
			<path id="SVGID_1_" d="M177.6,304.7H52V167.2c0-69.1,56.5-125.6,125.6-125.6h56.1h125.6v137.6c0,69.1-56.5,125.6-125.6,125.6
				L177.6,304.7L177.6,304.7z"/>
		</defs>
		<clipPath id="SVGID_00000137122813705349064900000015440083565987116989_">
			<use xlink:href="#SVGID_1_"  style="overflow:visible;"/>
		</clipPath>
		
			<rect x="40" y="35" style="clip-path:url(#SVGID_00000137122813705349064900000015440083565987116989_);fill:#BFF4F5;" width="326" height="274"/>
		<g style="clip-path:url(#SVGID_00000137122813705349064900000015440083565987116989_);">
			<path class="st5" d="M337.5,209c0,8-0.7,15.7-2.2,23.3c-0.3,1.8-0.7,3.5-1.1,5.2c-1.7,7.3-4,14.3-7,21c-0.3,0.7-0.6,1.4-0.9,2.1
				l-0.1,0.3c-0.3,0.7-0.7,1.4-1,2.1c-0.4,0.8-0.7,1.5-1.1,2.3c-0.4,0.7-0.7,1.4-1.1,2.1c-0.3,0.6-0.7,1.3-1.1,1.9
				c-0.1,0.2-0.2,0.4-0.3,0.6c-0.3,0.6-0.7,1.2-1,1.8c-0.4,0.7-0.8,1.4-1.3,2.1c-1.1,1.9-2.3,3.7-3.6,5.5c-0.3,0.4-0.6,0.9-0.9,1.3
				c0,0,0,0,0,0c-0.3,0.5-0.7,0.9-1,1.4c-0.7,1-1.5,2-2.3,3c-0.3,0.4-0.6,0.7-0.9,1.1c-0.4,0.5-0.9,1.1-1.3,1.6
				c-0.4,0.5-0.8,0.9-1.2,1.4c-0.7,0.8-1.3,1.6-2,2.3c-1.1,1.2-2.2,2.4-3.4,3.6c-1.8,1.9-3.7,3.7-5.6,5.4c-0.6,0.5-1.1,1-1.7,1.5
				c-0.1,0.1-0.2,0.2-0.3,0.3l0,0c-4,3.5-8.3,6.8-12.8,9.8c-2.2,1.5-4.5,2.9-6.9,4.3c-5.1,2.9-10.4,5.5-16,7.7
				c-5.4,2.1-11,3.9-16.7,5.3c-1.2,0.3-2.5,0.6-3.7,0.8c-2.6,0.6-5.3,1-8,1.4c-3,0.4-6,0.7-9.1,0.9c-2.1,0.1-4.1,0.2-6.2,0.3
				c-0.7,0-1.5,0-2.2,0c-1.7,0-3.4,0-5.1-0.1c-9.4-0.4-18.6-1.8-27.3-4.2c-10.5-2.8-20.5-7-29.7-12.4c-0.9-0.5-1.8-1.1-2.7-1.6
				c0,0,0,0,0,0c-0.8-0.5-1.6-1-2.4-1.5c0,0,0,0,0,0c-5-3.2-9.8-6.9-14.3-10.8h0c-2.2-1.9-4.4-4-6.5-6.1c-3.2-3.2-6.2-6.6-9.1-10.2
				c-2.1-2.6-4.1-5.4-6-8.2c-0.8-1.3-1.7-2.5-2.5-3.8l0,0c-6.8-10.9-11.9-23-15-35.8c-2.3-9.4-3.5-19.2-3.5-29.2
				c0-2.8,0.1-5.6,0.3-8.4c0-0.5,0.1-1,0.1-1.5c0,0,0,0,0,0c0.3-3.3,0.6-6.5,1.2-9.7v0c0.2-1.4,0.5-2.7,0.7-4.1
				c0.6-3.1,1.3-6.1,2.1-9.1c5.5-20.1,16-38.2,30-52.8c1.2-1.2,2.3-2.4,3.5-3.6c0.1-0.1,0.3-0.2,0.4-0.4c0.2-0.2,0.3-0.3,0.5-0.5
				c0.2-0.2,0.3-0.3,0.5-0.5c2.7-2.5,5.4-4.9,8.3-7.1c0.8-0.7,1.7-1.3,2.5-1.9c4.4-3.3,9.1-6.3,14-9c0.8-0.4,1.5-0.8,2.3-1.2
				c0.5-0.2,0.9-0.5,1.4-0.7c0.6-0.3,1.3-0.7,2-1c2-1,4-1.9,6-2.7c9.6-4,19.8-6.9,30.4-8.4h0c5.5-0.8,11.2-1.2,17-1.3h0.7
				c1.1,0,2.2,0,3.2,0c0,0,0,0,0,0c0.6,0,1.2,0,1.7,0.1c0.5,0,1,0,1.5,0.1c5.7,0.3,11.3,1,16.8,2c10.8,2.1,21.1,5.5,30.7,10.2
				c3.8,1.8,7.5,3.9,11.1,6.1h0c0,0,0,0,0,0c1.7,1.1,3.4,2.2,5.1,3.4c0.1,0,0.1,0.1,0.2,0.1c0.5,0.4,1,0.7,1.5,1.1c0,0,0,0,0,0
				c0.3,0.2,0.6,0.4,0.9,0.6c0.4,0.3,0.8,0.6,1.2,0.9c2,1.5,3.9,3,5.8,4.6c0.3,0.3,0.6,0.5,0.9,0.8c3.5,3,6.8,6.2,9.9,9.5
				c0,0,0,0.1,0.1,0.1c0.2,0.3,0.5,0.5,0.7,0.8c0.2,0.2,0.4,0.5,0.6,0.7c0,0,0,0,0,0c0.8,0.9,1.6,1.8,2.4,2.8
				c1.8,2.1,3.5,4.2,5.1,6.4c3.9,5.2,7.4,10.8,10.4,16.6c1.3,2.4,2.5,4.9,3.6,7.4c0,0,0,0.1,0,0.1v0c5.4,12.3,8.8,25.7,9.9,39.7
				c0,0,0,0,0,0c0,0,0,0,0,0v0.1c0,0.6,0.1,1.1,0.1,1.7c0,0.4,0.1,0.8,0.1,1.2v0C337.4,204.3,337.5,206.6,337.5,209z"/>
			<g>
				<path class="st6" d="M274.6,137.9c0,0,0.7,13.4,0.7,14.8c0,1.3,9.8,27.6,12.4,28.1c3.6,0,10.9-25.1,11.7-28.5
					c0.9-3.4,0-16.7,0-16.7S276.2,139.2,274.6,137.9z"/>
				<path class="st7" d="M351.9,225.8c-3.7,10.8-10.6,11.9-13.4,11.9h0c-0.7,0-1.1-0.1-1.1-0.1l-0.7-2l-1.3-3.5l-6.5-17.6l-0.7-1.8
					l0,2.5l-0.4,19.6v0.2l0,0.5l-0.5,23c-5.3,12.1-12.5,23.3-21.2,33c-11.5,0.4-39.6,0.1-41.6-0.3c-4.3-0.9-16.3-22.6-16.3-22.6
					l-1-48.5l-0.1-7.3l-0.2,0.5l-9,24.3c0,0-9.9,1.8-14.6-11.9c-4.7-13.7,4-44.8,14.1-57.8c8.9-11.5,30.1-16.5,34.7-17.5
					c0.6-0.1,0.9-0.2,0.9-0.2l0.6-2.2l0.9-3.4c0,0,0.2,0,0.4,0.1c1.3,0.3,5.2,1.2,8,2.8c3.3,2,3.7,8.7,3.7,8.7l0,0.6l-0.1,2.4
					l0.9,17.6l0.1,1.6l0.3-4l1-15.2l-0.1-2.4l0-0.6c0,0,0.4-6.8,3.7-8.7c2.6-1.5,6.1-2.4,7.6-2.8c0.5-0.1,0.7-0.2,0.7-0.2l0.9,3.4
					l0.6,2.2c0,0,0.3,0.1,0.9,0.2c2.5,0.5,9.9,2.3,17.6,5.6c2.2,0.9,4.3,2,6.4,3.2c0,0,0.1,0,0.1,0v0c0.4,0.2,0.7,0.4,1.1,0.6
					c3.7,2.2,7.1,4.9,9.6,8.1C347.8,181,356.6,212.2,351.9,225.8z"/>
				<g>
					<path class="st7" d="M259.7,133.2c-8.6-6.5-8.5-16.9-4.6-19.6c7.8-5.3,26.4-6,39.5-5.5c13.1,0.6,23.5,0.8,26.9,7.6
						c3.4,6.8-1.3,16.9-12.4,21.5C294.1,143.4,268.3,139.7,259.7,133.2z"/>
					<path class="st8" d="M259.7,133.2c-8.6-6.5-8.5-16.9-4.6-19.6c7.8-5.3,26.4-6,39.5-5.5c13.1,0.6,23.5,0.8,26.9,7.6
						c3.4,6.8-1.3,16.9-12.4,21.5C294.1,143.4,268.3,139.7,259.7,133.2z"/>
					<g>
						<g>
							<g>
								<path class="st6" d="M306.4,121c-0.2,2.2-0.6,4.5-1.2,6.7c-2,7.7-6.1,14.7-12.1,17c-7.7,3-16.8-0.5-21.5-8.4
									c-1.2-2-2-5.1-2.4-8.6c-1.3-9.9-0.1-22.7-0.1-22.7c2.5-3,36.4-1,36.4-1S307.4,110.9,306.4,121z"/>
								<g>
									<path class="st6" d="M270,123.9c0,0-2.5-5.7-4.9-5.5s-2.5,5.5-0.4,8.5c2,3,6.3,4,6.8,3.4S270,123.9,270,123.9z"/>
									<path class="st6" d="M304.4,123.9c0,0,2.5-5.7,4.9-5.5c2.5,0.2,2.5,5.5,0.4,8.5c-2,3-6.3,4-6.8,3.4
										C302.4,129.6,304.4,123.9,304.4,123.9z"/>
								</g>
								<path class="st9" d="M305.2,127.6c-2,7.7-6.1,14.7-12.1,17c-7.7,3-16.8-0.5-21.5-8.4c-1.2-2-2-5.1-2.4-8.6
									c3-1.5,12.8-6.1,18.4-5.7C293.1,122.4,301.8,125.2,305.2,127.6z"/>
								<g>
									<path class="st10" d="M271.5,129.9c1.4-0.7,2.7-1.4,4.2-2c0.7-0.3,1.4-0.5,2.1-0.8c0.3-0.1,0.7-0.2,1-0.3
										c0.3-0.1,0.7-0.1,0.8-0.5c0-0.1,0-0.2-0.1-0.3c-0.3-0.2-0.6,0-0.9,0.1c-0.4,0.1-0.8,0.3-1.2,0.4c-0.7,0.3-1.4,0.5-2.1,0.8
										c-1.4,0.6-2.9,1.2-4.3,1.8C270.7,129.4,271.1,130.1,271.5,129.9L271.5,129.9z"/>
								</g>
								<g>
									<path class="st10" d="M272.1,134.6c1,0.4,1.9,0.9,2.9,1.3c0.5,0.2,1,0.4,1.5,0.5c0.2,0.1,0.5,0.2,0.8,0.2
										c0.2,0.1,0.5,0.1,0.7,0c0.1-0.1,0.1-0.2,0.1-0.3c-0.1-0.2-0.3-0.3-0.6-0.3c-0.2-0.1-0.5-0.2-0.7-0.3
										c-0.5-0.2-1-0.4-1.4-0.6c-0.9-0.4-1.8-0.8-2.8-1.2c-0.2-0.1-0.4-0.1-0.6,0.2C271.9,134.2,271.9,134.5,272.1,134.6
										L272.1,134.6z"/>
								</g>
								<g>
									<path class="st10" d="M272,132.3c0.5-0.1,1.1-0.2,1.6-0.3c0.3,0,0.7-0.1,1-0.1c0.2-0.1,0.5-0.2,0.7-0.3
										c0.1-0.1,0.1-0.4-0.1-0.3c-0.2,0-0.5,0-0.7,0c-0.3,0-0.6,0.1-1,0.1c-0.5,0.1-1.1,0.1-1.7,0.3
										C271.4,131.8,271.6,132.4,272,132.3L272,132.3z"/>
								</g>
								<g>
									<path class="st10" d="M302.4,129.2c-1.4-0.6-2.8-1.2-4.3-1.8c-0.7-0.3-1.4-0.6-2.1-0.8c-0.4-0.1-0.8-0.3-1.2-0.4
										c-0.3-0.1-0.6-0.3-0.9-0.1c-0.1,0.1-0.1,0.2-0.1,0.3c0.1,0.3,0.5,0.4,0.8,0.5c0.3,0.1,0.7,0.2,1,0.3
										c0.7,0.2,1.4,0.5,2.1,0.8c1.4,0.6,2.8,1.2,4.2,2C302.4,130.1,302.8,129.4,302.4,129.2L302.4,129.2z"/>
								</g>
								<g>
									<path class="st10" d="M300.9,133.9c-0.9,0.4-1.9,0.8-2.8,1.2c-0.5,0.2-0.9,0.4-1.4,0.6c-0.2,0.1-0.5,0.2-0.7,0.3
										c-0.2,0.1-0.4,0.1-0.6,0.3c-0.1,0.1,0,0.2,0.1,0.3c0.2,0.1,0.4,0.1,0.7,0c0.3-0.1,0.5-0.1,0.8-0.2c0.5-0.2,1-0.3,1.6-0.5
										c1-0.4,1.9-0.8,2.9-1.3c0.2-0.1,0.3-0.4,0.2-0.6C301.4,133.8,301.1,133.8,300.9,133.9L300.9,133.9z"/>
								</g>
								<g>
									<path class="st10" d="M301.7,131.7c-0.5-0.2-1.1-0.2-1.7-0.3c-0.3,0-0.6-0.1-0.9-0.1c-0.3,0-0.5,0-0.8,0
										c-0.2,0-0.2,0.3-0.1,0.3c0.2,0.1,0.4,0.2,0.7,0.3c0.1,0,0.3,0.1,0.5,0.1c0.2,0,0.3,0,0.5,0.1c0.5,0.1,1.1,0.1,1.6,0.3
										C301.9,132.4,302.1,131.8,301.7,131.7L301.7,131.7z"/>
								</g>
								<path class="st11" d="M268.6,121.5c0,0,5-12,3.5-15c-1.5-3-4.3-2.9-4.3-2.9S265.9,116.5,268.6,121.5z"/>
								<path class="st11" d="M306.3,121.5c0,0-2.8-7.6-3-11.8c-0.3-4.2,0.2-5.7,1.2-6.7c1-1,3.5,0.9,3.6,4.6
									C308.2,117.2,306.3,121.5,306.3,121.5z"/>
								<path class="st12" d="M279.7,118.3c-0.4-0.7-1-1.2-1.9-1.1c-0.8,0.1-1.5,0.8-1.7,1.5c-0.3,1.2,0,2.9,1.4,3.2
									c1.2,0.3,2.1-0.4,2.4-1.4C280.2,119.9,280.1,119,279.7,118.3z"/>
								<path class="st12" d="M294,118.4c0.4-0.7,1-1.2,1.9-1.1c0.8,0.1,1.5,0.8,1.7,1.5c0.3,1.2,0,2.9-1.4,3.2
									c-1.2,0.3-2.1-0.4-2.4-1.4C293.5,120,293.6,119.1,294,118.4z"/>
							</g>
							<g>
								<path class="st9" d="M267.1,119.4c0.7,1.5,1.3,3.1,1.8,4.7c0.5,1.4,1,2.8,1.1,4.4c0,0.7,1,0.7,1.1,0
									c0.1-0.8-0.2-1.6-0.4-2.3c-0.3-0.8-0.6-1.5-0.8-2.3c-0.6-1.7-1.1-3.4-2.1-4.8C267.5,118.6,266.9,119,267.1,119.4
									L267.1,119.4z"/>
							</g>
							<g>
								<path class="st9" d="M306.8,119.1c-0.3,0.3-0.6,0.6-0.8,1c-0.2,0.3-0.4,0.7-0.6,1.1c-0.4,0.7-0.7,1.5-0.9,2.3
									c-0.3,0.8-0.5,1.5-0.7,2.3c-0.1,0.4-0.2,0.8-0.3,1.2c-0.1,0.4-0.2,0.8,0.1,1c0.1,0.1,0.2,0.1,0.3,0c0.3-0.1,0.4-0.5,0.5-0.8
									c0.1-0.4,0.2-0.8,0.3-1.1c0.2-0.7,0.4-1.5,0.7-2.2c0.3-0.7,0.6-1.4,0.9-2.1c0.2-0.4,0.4-0.7,0.5-1.1
									c0.2-0.4,0.3-0.8,0.5-1.1C307.5,119.2,307.1,118.8,306.8,119.1L306.8,119.1z"/>
							</g>
						</g>
						<g>
							<path class="st11" d="M280.3,114.1c-1-0.4-2.3-0.6-3.3-0.3c-0.6,0.2-1.1,0.4-1.5,0.8c-0.2,0.2-0.4,0.4-0.6,0.6
								c-0.2,0.2-0.4,0.5-0.5,0.8c0,0.2,0.1,0.3,0.3,0.3c0.2,0,0.5-0.1,0.7-0.1c0.2-0.1,0.5-0.1,0.7-0.2c0.1,0,0.2-0.1,0.3-0.1
								c0,0,0.3-0.1,0.2-0.1c-0.1,0,0.1,0,0.1,0c0.1,0,0.2-0.1,0.3-0.1c0.1,0,0.1,0,0,0c0.1,0,0.2-0.1,0.3-0.1
								c0.2-0.1,0.4-0.1,0.6-0.2c0.1,0,0.2-0.1,0.3-0.1c0.1,0,0.1,0,0.2,0c-0.1,0,0.1,0,0.1,0c0.5,0,1,0,1.4,0.1
								C280.7,115.5,281,114.4,280.3,114.1L280.3,114.1z"/>
						</g>
						<g>
							<path class="st11" d="M294,115C293.9,115,294.1,115,294,115c0.1,0,0.2-0.1,0.2-0.1c0.1,0,0.2,0,0.3-0.1c0.2,0,0.4,0,0.6,0
								c0.3,0,0.5,0,0.8,0c0.3,0,0.5,0,0.7,0.1c0.5,0.1,1,0.3,1.5,0.4c0.2,0.1,0.5,0.1,0.7,0.2c0.1,0,0.1,0,0.2,0
								c0.1,0,0.2,0.1,0.3,0.1c0.1,0,0.2-0.1,0.2-0.2c0.1-0.5-0.4-1.1-0.8-1.3c-0.5-0.3-1.2-0.5-1.8-0.6c-1.2-0.2-2.5-0.2-3.6,0.4
								c-0.3,0.1-0.4,0.5-0.2,0.8C293.4,115.1,293.8,115.1,294,115L294,115z"/>
						</g>
					</g>
					<path class="st7" d="M264.3,108.9c0,0,1.9-21.4,17.9-23.4c16-2,25.4,8.6,26.9,14s1.2,10.7,1.2,10.7S271.8,105.5,264.3,108.9z"
						/>
					<path class="st7" d="M283.9,108.5c0,0,0.2-13.3,0.3-16.1c0.1-2.8-0.4-7.4,0.3-7.8c0.8-0.4,6-0.2,6.8,0.6
						c0.8,0.8,0.3,22.5,0.1,23.3C291.3,109.1,283.9,108.5,283.9,108.5z"/>
					<g>
						<path class="st11" d="M284.2,106c0-1.9,0-3.9,0-5.8c0.1-3.9,0.1-7.8,0.3-11.7c0-1.2,0.1-2.4,0.2-3.6c0-0.1,0-0.3-0.2-0.3
							c-0.4,0.6-0.6,1.6-0.7,2.3c-0.1,1-0.1,2.1-0.1,3.1c0,1.1,0,2.1-0.1,3.2c-0.1,3.8,0,7.7-0.1,11.5c0,0.4,0,0.9,0,1.3
							C283.8,105.9,284,106,284.2,106z"/>
					</g>
					<g>
						<path class="st11" d="M291.7,94c0.1,3.7,0.1,7.4,0.1,11.1c0,0.4-0.1,0.9-0.1,1.4c0.2-0.2,0.5-0.4,0.8-0.5c0-0.1,0-0.2,0-0.3
							c0-1.7,0-3.4,0-5c0-3.9-0.2-7.7-0.2-11.6c-0.1-3.7-0.9-3.9-0.9-3.9C291.8,87.9,291.6,91.1,291.7,94z"/>
					</g>
					<path class="st11" d="M294.9,99.5c-0.1-0.4-0.3-0.8-0.6-1.2c-1.7-2.8-5.8-4.9-9.1-3.9c-1.2,0.4-2.1,1.2-2.9,2.1
						c-2.1,2.7-2.3,7.1,0.5,9.5c2.4,2,6.5,2.4,9.1,0.8C294.6,105.2,295.8,102.2,294.9,99.5z"/>
					<path class="st13" d="M294.1,99.5c-0.1-0.4-0.3-0.7-0.5-1.1c-1.5-2.4-5.1-4.3-7.9-3.4c-1,0.3-1.9,1-2.5,1.8
						c-1.9,2.4-2,6.2,0.5,8.3c2.1,1.7,5.7,2.1,8,0.7C293.8,104.5,294.9,101.9,294.1,99.5z"/>
					<path class="st14" d="M252.6,120.3c0,0,0-4.6,7.1-7.6c7.1-3,21.2-2.9,31.2-3.1c10-0.2,23.5,2.5,27.1,5c4.1,2.9,4.4,8.7,4.4,8.7
						s3.4-9.5-7.4-13.4c-10.7-3.9-42.7-3.6-52.5-1.4c-4.1,0.9-7,2.5-8.1,3.9C251.1,116.6,252.6,120.3,252.6,120.3z"/>
					<g>
						<path class="st9" d="M288.1,96c-1.1-0.1-2.3,0.1-3.3,0.8c-0.5,0.4-1,0.8-1.2,1.4c-0.2,0.4-0.3,0.7-0.3,1.1
							c0,0.4,0.2,1,0.6,1.2c-0.1-0.1-0.1-0.1-0.2-0.2c0,0.1,0.1,0.1,0.1,0.2c0.2,0.3,0.7,0.2,0.9-0.1c0,0,0,0,0-0.1
							c-0.1,0.1-0.1,0.1-0.2,0.2c0.2-0.1,0.3-0.2,0.4-0.3c-0.2,0.2,0.1-0.1,0.1-0.1c0,0,0.1-0.1,0.1-0.1c0-0.1,0.1-0.2,0.1-0.3
							c-0.1,0.2-0.1,0.2-0.1,0.1c0.1-0.2,0.2-0.3,0.2-0.5c0,0,0-0.1,0-0.1c-0.1,0.3-0.1,0.1,0,0c0-0.1,0.1-0.2,0.2-0.3
							c0,0,0.1-0.1,0.1-0.1c-0.2,0.3-0.1,0.1,0,0c0.1-0.1,0.1-0.2,0.2-0.2c0,0,0.1-0.1,0.1-0.1c0.1-0.1,0.3-0.2,0,0
							c0.4-0.2,0.8-0.5,1.2-0.6c0.1-0.1-0.2,0.1,0,0c0,0,0.1,0,0.1-0.1c0.1,0,0.2-0.1,0.3-0.1c0.1,0,0.2,0,0.3-0.1c0.2,0-0.2,0,0,0
							c0.1,0,0.1,0,0.2,0c0.4,0,0.9-0.4,0.8-0.8C288.9,96.4,288.5,96.1,288.1,96L288.1,96z"/>
					</g>
					<g>
						<path class="st9" d="M290.7,105.2c0.1,0,0.1,0,0.2,0c0,0,0.1,0,0.1,0c0.1,0,0.2-0.1,0.3-0.1c0,0,0.1,0,0.1,0c0,0,0,0,0,0
							c0.1,0,0.1-0.1,0.2-0.1c0,0,0,0,0.1-0.1c0.1-0.1,0.1-0.1,0.1-0.2c0,0,0-0.1,0-0.1c0,0,0,0,0,0c0,0,0,0,0-0.1
							c0-0.1,0-0.3,0-0.4c0-0.1-0.1-0.2-0.1-0.3c-0.1-0.1-0.1-0.1-0.2-0.2c-0.1-0.1-0.2-0.1-0.4-0.1c0,0-0.1,0-0.1,0
							c-0.1,0-0.2,0-0.3,0c-0.1,0-0.2,0.1-0.3,0.1c0.1,0,0.1-0.1,0.2-0.1c-0.1,0-0.2,0.1-0.3,0.1c0.1,0,0.1-0.1,0.2-0.1
							c-0.1,0-0.2,0.1-0.3,0.1c0.1,0,0.2,0,0.2,0c0,0,0,0-0.1,0c-0.2,0-0.3,0-0.4,0.1c-0.1,0-0.1,0.1-0.2,0.1
							c-0.1,0.1-0.2,0.2-0.2,0.4c0,0.1,0,0.2,0,0.3c0,0.1,0,0.2,0.1,0.3c0.1,0.1,0.1,0.2,0.2,0.2c0.1,0.1,0.2,0.1,0.3,0.2
							C290.4,105.2,290.6,105.2,290.7,105.2L290.7,105.2z"/>
					</g>
				</g>
				<g>
					<path class="st15" d="M303,150.5c-0.5,0.8-1.1,1.5-1.6,2.1c-1.3,1.4-2.8,2.7-4.4,3.7c-1.6,1.1-3.3,1.9-5.2,2.4
						c-0.9,0.3-1.8,0.5-2.8,0.6c-0.2,0-0.4,0-0.6,0l-0.1-2.4c0.1,0,0.3,0,0.4-0.1c0.8-0.2,1.6-0.4,2.3-0.7c1.6-0.6,3-1.4,4.4-2.4
						c1.4-0.9,2.6-2.1,3.7-3.3c0.7-0.7,1.3-1.7,2.1-2.4l0.6,2.2C302.1,150.3,302.5,150.4,303,150.5z"/>
				</g>
				<g>
					<g>
						<path class="st15" d="M272,150.5c0.5,0.8,1.1,1.5,1.6,2.1c1.3,1.4,2.8,2.7,4.4,3.7c1.6,1.1,3.3,1.9,5.2,2.4
							c0.9,0.3,1.8,0.5,2.8,0.6c0.2,0,0.4,0,0.6,0l0.1-2.4c-0.1,0-0.3,0-0.4-0.1c-0.8-0.2-1.6-0.4-2.3-0.7c-1.6-0.6-3-1.4-4.4-2.4
							c-1.4-0.9-2.6-2.1-3.7-3.3c-0.7-0.7-1.3-1.7-2.1-2.4l-0.6,2.2C272.9,150.3,272.6,150.4,272,150.5z"/>
					</g>
				</g>
				<path class="st15" d="M328,220.9c0,0-15.9,2.5-42.7,3c-21.9,0.4-38.3-3.9-38.3-3.9l-0.3-9l-0.3-8.7l-0.4-11.2
					c0.5,0,27.2,4.7,47,4c19.8-0.7,33.9-4.7,33.9-4.7l0.4,11.2l0.3,9.5L328,220.9z"/>
				<path class="st9" d="M327.6,211.2c-6.8,1.3-19.7,3.9-39.6,3.9c-18.6,0-33.2-2.8-41.3-4.2l-0.3-8.7c7.1,1.3,22.8,3.8,42.9,3.6
					c17.9-0.2,31.1-2.7,38.1-4.3L327.6,211.2z"/>
				<g>
					<path class="st11" d="M287.4,175c-0.3,8.2-0.1,16.5-0.1,24.7c0,4.1,0,8.1,0,12.2c0,4.2-0.2,8.4,0.2,12.6c0,0.4,0.6,0.4,0.7,0
						c0.4-4.2,0.2-8.4,0.2-12.6c0-4.1,0-8.1,0-12.2c0-8.2,0.2-16.5-0.1-24.7C288.2,174.4,287.4,174.4,287.4,175L287.4,175z"/>
				</g>
				<g>
					<path class="st16" d="M283.5,211.5c0,0,55.2-83.2,57.9-84.8c2.7-1.6,3.9,0.5,1,5.9c-2.9,5.4-49.5,86.5-52.2,87
						C287.5,220,280.8,216.4,283.5,211.5z"/>
					<path class="st17" d="M339.5,116.9c0,0-7.6-4.5-8.1-3.5c-0.5,1-1.8,6.7-2,10.1c-0.2,3.4,0.3,5.9,0.3,5.9s6.9,2.9,11.3,6
						c4.4,3.2,11.6,13.3,12.6,14.1c1,0.8,5-7.4,9.9-11.9c4.9-4.5,7.2-6.4,7.6-6.9c0.3-0.5-13.6-5.5-21-8.9
						C342.7,118.4,339.5,116.9,339.5,116.9z"/>
					<path class="st18" d="M363.8,127.4c-0.1,0.1-0.2,0.1-0.3,0.2c-6.2,3.8-12.9,6.5-19.6,9.3c-0.2,0.1-0.5,0.2-0.7,0.3
						c4.3,4.2,9.6,11.5,10.4,12.2c1,0.8,5-7.4,9.9-11.9c4.9-4.5,7.2-6.4,7.6-6.9C371.3,130.5,368,129.1,363.8,127.4z"/>
				</g>
				<path class="st11" d="M321.4,188c0,0-12.2-13.7-16.9-13.8c-4.7-0.1-7.6,6.5-9.1,10.5c-1.5,4,0.9,6.9,3.9,9.3
					c3,2.4,5.7,4.9,5.7,4.9s2.7,6.2,3.4,7.5c0.7,1.3,8.2-6.3,11.4-10S321.4,188,321.4,188z"/>
				<path class="st7" d="M306,203.4c0,0,7.2-3.2,11.6-8.7c4.4-5.5,4.4-7.6,4.4-7.6s9.9,5.9,17.1,13.9c7.2,8.1,10.2,12.4,10.9,14.1
					c0.7,1.7,0.9,22.5-12.5,22.6c-10.4,0.1-19.9-10.2-24.1-17.9C309.1,212.1,306,203.4,306,203.4z"/>
				<path class="st15" d="M315.1,222.7c1.5-0.4,3.1-1,4.5-1.7c4.8-2.3,9.1-5.8,12.5-9.9c2.7-3.3,4.8-7.1,5.9-11.3
					c-4-4.2-8.6-7.7-11.8-10c-0.3,0.8-0.7,1.5-1.2,2.3c-2.2,3.9-5.5,7.1-9.1,9.7c-2.7,1.9-5.6,3.5-8.7,4.7c1.3,3.2,3.5,8.5,6.2,13.3
					C313.8,220.8,314.4,221.8,315.1,222.7z"/>
				<path class="st9" d="M318.7,215.3c5-2.3,9.2-6.2,12.4-10.7c1.6-2.2,2.9-4.5,4-7c0.1-0.1,0.1-0.3,0.2-0.4
					c-1.2-1.1-2.4-2.2-3.6-3.1c-0.7,1.3-1.4,2.6-2.2,3.9c-2.7,4.2-6.1,7.9-10.2,10.7c-2,1.3-4.1,2.5-6.3,3.4
					c-0.9,0.4-1.9,0.7-2.9,0.9c0.6,1.3,1.3,2.7,2,4.1C314.3,216.9,316.6,216.3,318.7,215.3z"/>
				<g>
					<path class="st11" d="M321.5,188.4c5.2,2.4,9.6,6.2,13.7,10.2c2,1.9,3.9,3.9,5.7,6c1,1.1,2.1,2.2,3,3.3c1.1,1.2,2,2.7,3.2,3.7
						c0.2,0.2,0.7,0,0.6-0.3c-0.6-1.4-1.8-2.6-2.8-3.8c-1-1.2-2-2.3-3.1-3.4c-2-2.1-4-4.3-6.1-6.3c-4.2-4-8.7-7.6-14.1-9.8
						C321.4,187.8,321.2,188.3,321.5,188.4L321.5,188.4z"/>
				</g>
				<g>
					<path class="st11" d="M305.9,203.5c2.1,6.7,4.6,13.4,8.5,19.2c1.8,2.7,3.9,5.5,6.2,7.7c1,1,2.1,1.8,3.2,2.6
						c1.2,0.9,2.4,1.8,3.7,2.4c0.3,0.1,0.6-0.2,0.4-0.5c-2.1-1.8-4.6-3.3-6.6-5.2c-2.4-2.3-4.4-5.1-6.3-7.9c-1.9-2.9-3.7-6-5.1-9.2
						c-1.3-3.1-2.2-6.4-3.7-9.4C306.1,203.1,305.8,203.2,305.9,203.5L305.9,203.5z"/>
				</g>
			</g>
			<g>
				<path class="st6" d="M79,186.3c0,0,0.3,35.2,1.8,42.3c1.5,7,5,10.2,9.2,10c9.4-0.3,11.7-7.4,13.2-8.9c1.5-1.5-4-15.4-4-15.4
					s-3,2.8-3.5,3c-0.5,0.2-7.7-24.8-8-26.6C87.4,188.9,79.8,184.3,79,186.3z"/>
				<path class="st19" d="M134.2,140.1c0,0-2.6,1-4.9,3.7c-1.1,1.3-2.2,2.8-2.2,2.8s-15.1,2.8-21.4,10.7
					c-6.4,7.9-13.9,47.7-13.9,47.7s7,28.6,7.9,28.9c0.8,0.3,13.2-13.2,19.6-21.1c6.4-7.9,59.9-5.2,62.4-4.9
					c2.5,0.3,26.6-2.5,26.1-6.2c-0.5-3.7-12.7-40.6-24.6-47.2c-11.9-6.5-18.9-8-18.9-8s-1-4.9-8-6.3
					C149.3,139,134.2,140.1,134.2,140.1z"/>
				<g>
					<path class="st20" d="M105.5,172.5c0.2,2.8,0.6,5.5,1.1,8.2c0.7,4.1,1.2,8.1,1.6,12.2c0.4,3.9,0.8,7.9,1,11.8
						c0.1,2,0.2,3.9,0.3,5.9c0.1,1.9,0,4,0.5,5.8c0.1,0.3,0.5,0.3,0.5,0c0.5-1.9,0.3-4.1,0.3-6c-0.1-2-0.2-4-0.4-5.9
						c-0.3-4-0.7-7.9-1.2-11.8c-0.5-3.8-1-7.7-1.7-11.5c-0.5-2.9-0.9-6-1.6-8.8C106,172.1,105.5,172.2,105.5,172.5L105.5,172.5z"/>
				</g>
				<g>
					<g>
						<path class="st6" d="M133.2,133.3c0,0,0.3,15.8,0.3,17.1c0,1.3,10.9,19.3,12.5,19.6c3.6,0,11.5-17.2,12.4-20.6
							c0.9-3.3-0.5-18.3-0.5-18.3S134.8,134.7,133.2,133.3z"/>
						<path class="st6" d="M164.9,116.5c-0.2,2.2-0.6,4.5-1.2,6.6c-2,7.7-6.1,14.6-12,16.9c-7.7,3-16.7-0.5-21.4-8.4
							c-1.2-2-2-5.1-2.4-8.5c-1.3-9.8-0.1-22.6-0.1-22.6c14.6-13.6,36.3-1,36.3-1S165.9,106.5,164.9,116.5z"/>
						<g>
							<path class="st6" d="M128.6,119.4c0,0-2.5-5.7-4.9-5.5c-2.5,0.2-2.5,5.5-0.4,8.5c2,3,6.2,4,6.8,3.3
								C130.6,125.1,128.6,119.4,128.6,119.4z"/>
							<path class="st6" d="M162.9,119.4c0,0,2.5-5.7,4.9-5.5c2.5,0.2,2.5,5.5,0.4,8.5c-2,3-6.2,4-6.8,3.3S162.9,119.4,162.9,119.4z
								"/>
						</g>
						<path class="st9" d="M163.7,123.2c-2,7.7-6.1,14.6-12,16.9c-7.7,3-16.7-0.5-21.4-8.4c-1.2-2-2-5.1-2.4-8.5
							c3-1.5,12.8-6.1,18.3-5.7C151.7,117.9,160.4,120.7,163.7,123.2z"/>
						<g>
							<path class="st10" d="M130.1,125.4c1.4-0.7,2.7-1.4,4.2-2c0.7-0.3,1.4-0.5,2.1-0.8c0.3-0.1,0.7-0.2,1-0.3
								c0.3-0.1,0.7-0.1,0.8-0.4c0-0.1,0-0.2-0.1-0.3c-0.3-0.2-0.6,0-0.9,0.1c-0.4,0.1-0.8,0.3-1.1,0.4c-0.7,0.3-1.4,0.5-2.1,0.8
								c-1.4,0.6-2.8,1.2-4.3,1.8C129.3,124.9,129.7,125.6,130.1,125.4L130.1,125.4z"/>
						</g>
						<g>
							<path class="st10" d="M130.8,130.1c1,0.4,1.9,0.9,2.9,1.3c0.5,0.2,1,0.4,1.5,0.5c0.2,0.1,0.5,0.2,0.7,0.2
								c0.2,0.1,0.5,0.1,0.7,0c0.1-0.1,0.1-0.2,0.1-0.3c-0.1-0.2-0.3-0.2-0.6-0.3c-0.2-0.1-0.5-0.2-0.7-0.2c-0.5-0.2-1-0.4-1.4-0.6
								c-0.9-0.4-1.8-0.8-2.8-1.2c-0.2-0.1-0.4-0.1-0.6,0.1C130.5,129.7,130.6,130,130.8,130.1L130.8,130.1z"/>
						</g>
						<g>
							<path class="st10" d="M130.6,127.8c0.5-0.1,1.1-0.2,1.6-0.3c0.3,0,0.7-0.1,1-0.1c0.2-0.1,0.5-0.2,0.7-0.3
								c0.1-0.1,0.1-0.4-0.1-0.3c-0.2,0-0.5,0-0.7,0c-0.3,0-0.6,0.1-1,0.1c-0.5,0.1-1.1,0.1-1.6,0.3
								C130.1,127.3,130.2,127.9,130.6,127.8L130.6,127.8z"/>
						</g>
						<g>
							<path class="st10" d="M160.9,124.7c-1.4-0.6-2.8-1.2-4.3-1.8c-0.7-0.3-1.4-0.6-2.1-0.8c-0.4-0.1-0.8-0.3-1.1-0.4
								c-0.3-0.1-0.6-0.3-0.9-0.1c-0.1,0.1-0.1,0.2-0.1,0.3c0.1,0.3,0.5,0.4,0.8,0.4c0.3,0.1,0.7,0.2,1,0.3c0.7,0.2,1.4,0.5,2.1,0.8
								c1.4,0.6,2.8,1.2,4.2,2C160.9,125.6,161.3,124.9,160.9,124.7L160.9,124.7z"/>
						</g>
						<g>
							<path class="st10" d="M159.5,129.4c-0.9,0.4-1.8,0.8-2.8,1.2c-0.5,0.2-0.9,0.4-1.4,0.6c-0.2,0.1-0.5,0.2-0.7,0.2
								c-0.2,0.1-0.4,0.1-0.6,0.3c-0.1,0.1,0,0.2,0.1,0.3c0.2,0.1,0.4,0.1,0.7,0c0.3-0.1,0.5-0.1,0.7-0.2c0.5-0.2,1-0.3,1.5-0.5
								c1-0.4,1.9-0.8,2.9-1.3c0.2-0.1,0.3-0.4,0.1-0.6C159.9,129.3,159.7,129.3,159.5,129.4L159.5,129.4z"/>
						</g>
						<g>
							<path class="st10" d="M160.2,127.2c-0.5-0.2-1.1-0.2-1.6-0.3c-0.3,0-0.6-0.1-0.9-0.1c-0.2,0-0.5,0-0.8,0
								c-0.2,0-0.2,0.2-0.1,0.3c0.2,0.1,0.4,0.2,0.7,0.3c0.1,0,0.3,0.1,0.5,0.1c0.2,0,0.3,0,0.5,0.1c0.5,0.1,1.1,0.1,1.6,0.3
								C160.4,127.9,160.6,127.3,160.2,127.2L160.2,127.2z"/>
						</g>
						<path class="st11" d="M127.3,117c0,0,5-12,3.5-15c-1.5-3-4.3-2.8-4.3-2.8S124.6,112.1,127.3,117z"/>
						<path class="st11" d="M164.8,117c0,0-2.8-7.5-3-11.7c-0.3-4.2,0.2-5.7,1.2-6.7c1-1,3.5,0.9,3.6,4.6
							C166.7,112.7,164.8,117,164.8,117z"/>
						<path class="st12" d="M138.3,113.8c-0.4-0.7-1-1.2-1.9-1.1c-0.8,0.1-1.5,0.8-1.7,1.5c-0.3,1.2,0,2.9,1.4,3.2
							c1.2,0.3,2.1-0.4,2.4-1.4C138.8,115.4,138.7,114.5,138.3,113.8z"/>
						<path class="st11" d="M139.9,109.4c-0.6-0.4-2.1-0.5-2.8-0.4c-0.8,0-1.6,0.2-2.3,0.5c-0.7,0.3-1.9,1.1-2.1,1.9
							c-0.1,0.7,0.2,0.5,0.7,0.4c0.7-0.3,1.3-0.4,2.1-0.4c1.3,0,2.6,0.1,3.9-0.1C140.4,111.1,140.7,110.1,139.9,109.4z"/>
						<path class="st12" d="M152.5,113.9c0.4-0.7,1-1.2,1.9-1.1c0.8,0.1,1.5,0.8,1.7,1.5c0.3,1.2,0,2.9-1.4,3.2
							c-1.2,0.3-2.1-0.4-2.4-1.4C152,115.5,152.1,114.7,152.5,113.9z"/>
						<path class="st11" d="M151.2,109.4c0.6-0.4,2.1-0.5,2.8-0.4c0.8,0,1.6,0.2,2.3,0.5c0.7,0.3,1.9,1.1,2.1,1.9
							c0.1,0.7-0.2,0.5-0.7,0.4c-0.7-0.2-1.3-0.4-2.1-0.4c-1.3,0-2.6,0.1-3.9-0.1C150.6,111,150.3,110,151.2,109.4z"/>
					</g>
					<path class="st12" d="M125.4,109.6c0,0-0.2-18.3,7.7-24.9c7.9-6.6,23.1-5.6,28.9,3.3c5.8,8.9,4.9,15.2,4.9,16.9
						s-0.2,3.8-0.2,3.8s-0.3-6.3-12.9-10.4C136.9,92.9,125.4,109.6,125.4,109.6z"/>
					<path class="st21" d="M124.6,110.9c0.4,0.9,1.8-1.5,6.4-5.1c4.5-3.6,9.2-6.5,17.4-6.5c6.2,0,13.8,5.4,15.7,8.1
						c2,2.8,2.9,4.2,3.7,3.5c0.9-0.8-2.1-7.7-9.3-11.9c-8-4.7-14.8-3.8-19.3-1.8C129.6,101.6,123.9,109.3,124.6,110.9z"/>
				</g>
				<g>
					<path class="st20" d="M127,147c-1,2.5-1.3,5.3-1.4,7.9c-0.1,1.9-0.1,3.8,0.1,5.7c0.1,1.2,0.1,2.6,1.3,3.3
						c1.1,0.7,2.8,0.7,4,0.8c2.1,0.2,4.2,0,6.2,0.6c1.5,0.4,2.8,1.3,4.1,2.2c1.3,1,2.3,2.2,3.6,3.2c0.3,0.2,0.8-0.1,0.6-0.5
						c-0.6-1.1-1.9-2.1-2.9-2.9c-1.1-0.9-2.3-1.7-3.6-2.3c-3.2-1.5-6.6-0.8-9.9-1.3c-0.6-0.1-1.5-0.2-1.9-0.8
						c-0.6-0.6-0.5-1.7-0.5-2.5c-0.2-1.8-0.2-3.6-0.1-5.4c0.1-2.6,0.3-5.4,1.1-8C127.6,146.8,127.1,146.7,127,147L127,147z"/>
				</g>
				<g>
					<path class="st20" d="M164.1,146.8c0.8,2.5,0.9,5.2,1.1,7.8c0.1,1.8,0.1,3.6-0.1,5.4c-0.1,0.8,0,2-0.5,2.7
						c-0.4,0.5-1.3,0.6-1.9,0.8c-3.3,0.5-6.7-0.2-9.8,1.2c-1.3,0.6-2.5,1.4-3.6,2.3c-1,0.8-2.4,1.8-3,3c-0.2,0.4,0.3,0.7,0.6,0.5
						c1.3-1,2.3-2.2,3.6-3.2c1.2-0.9,2.6-1.8,4.1-2.2c2-0.6,4.1-0.5,6.2-0.6c1.3-0.1,2.9-0.1,4-0.8c1.1-0.7,1.2-2.1,1.3-3.3
						c0.2-1.9,0.2-3.8,0.1-5.7c-0.2-2.6-0.5-5.4-1.4-7.9C164.4,146.4,164,146.5,164.1,146.8L164.1,146.8z"/>
				</g>
				<g>
					<path class="st22" d="M133.2,149.2C133.2,149.2,133.2,149.2,133.2,149.2C133.2,149.2,133.2,149.2,133.2,149.2L133.2,149.2z"/>
				</g>
				<g>
					<path class="st20" d="M131.9,145.4c-0.7,0.8-0.7,1.9-0.4,2.9c0.4,1.4,1,2.8,1.6,4.1c0.8,1.7,1.7,3.4,2.9,4.9
						c1.3,1.6,2.5,3.3,3.7,5c1.3,1.8,2.7,3.5,4,5.2c0.8,1.1,1.4,2.3,2.3,3.3c0.1,0.1,0.2,0,0.2-0.1c-0.2-0.9-1.1-1.8-1.6-2.6
						c-1.1-1.6-2.1-3.3-3.2-4.9c-2-2.8-4-5.7-5.8-8.6c-0.9-1.4-1.6-2.8-2.2-4.3c-0.5-1.2-1.9-3.4-1-4.6
						C132.5,145.5,132.1,145.2,131.9,145.4L131.9,145.4z"/>
				</g>
				<g>
					<path class="st20" d="M159.4,144.5c1.2,2.5-0.7,5.7-1.8,8c-0.7,1.4-1.6,2.8-2.4,4.2c-1.2,2-2.3,4-3.5,6
						c-0.7,1.2-1.8,2.7-2.1,4.2c0,0.2,0.2,0.3,0.3,0.2c0.8-0.8,1.3-2,1.9-3c0.9-1.7,1.9-3.4,2.9-5.1c1.5-2.7,2.9-5.5,4.4-8.3
						c1-1.9,2.5-4.6,0.7-6.6C159.6,143.9,159.2,144.2,159.4,144.5L159.4,144.5z"/>
				</g>
				<path class="st12" d="M187,310l-0.1-2.8l0-2.3l0-1.2l0-0.9l-0.2-13.6l-0.2-9.4l-0.6-33.1l0-1.3l-0.1-6.5v0l0-1.3l-0.2-9.3l0-0.8
					l0-2.4l-0.1-4v0l-0.2-12.1c0,0-0.1-0.4-0.5-1.1c-0.5-1-1.5-2.7-3.1-5c-0.1-0.1-0.1-0.2-0.2-0.3c-0.1-0.1-0.2-0.3-0.3-0.4
					c-0.1-0.1-0.2-0.2-0.2-0.3c0,0-0.1-0.1-0.1-0.1c-0.7-0.9-1.4-1.9-2.1-3c0,0,0,0,0,0c-1.4-2.1-2.9-4.3-3.9-5.8
					c-0.3-0.5-0.6-0.9-0.8-1.2c-0.2-0.3-0.3-0.5-0.3-0.5s-2-1-9.6-2.2h0c-1-0.1-2.1-0.3-3.3-0.5c-0.1,0-0.3,0-0.4-0.1c0,0,0,0-0.1,0
					c-0.6-0.1-1.4-0.1-2.1-0.2c-1.7-0.1-3.7-0.1-5.8-0.1h0c-0.6,0-1.2,0-1.8,0h0c-0.3,0-0.6,0-0.8,0c-0.3,0-0.6,0-0.9,0
					c-0.2,0-0.3,0-0.5,0c-0.3,0-0.5,0-0.8,0c-1.4,0.1-2.7,0.2-4.1,0.3c-4.9,0.4-9.9,0.9-14,1.4h0c-0.5,0.1-1,0.1-1.5,0.2h0
					c-4,0.5-6.9,1-8.1,1.3c-0.5,0.1-1.1,0.6-1.6,1.2c-2.5,2.7-5.4,9.3-7.4,14.2v0c0,0,0,0,0,0s0,0,0,0c-0.4,1-0.8,2-1.1,2.8v0
					c0,0,0,0,0,0s0,0,0,0c-0.6,1.6-1,2.7-1,2.7s0.5,5.2,1,11.8c0.7,8.2,1.5,18.5,1.8,23.2c0.2,3.6,0.1,10.2-0.2,16.7
					c-0.2,5-0.4,10-0.6,13.7c1.9,2.8,3.9,5.5,6,8.2c2.8,3.6,5.9,7,9.1,10.2c0,0.1,0.1,0.2,0.1,0.2c2.5,1.1,4.7,2.9,6.8,4.6
					c2.1,1.8,4,3.7,5.7,5.8c1.5,1.8,2.9,3.7,4.1,5.8c1.3,0.2,2.7,0.3,4.1,0.4c0,0,0,0,0,0c7.1,0.6,15.4,0.7,22.7,0.6c0,0,0,0,0,0
					c4.5,0,8.5-0.2,11.6-0.3c3.9-0.2,6.4-0.3,6.4-0.3L187,310z"/>
				<path class="st23" d="M121.2,147.3c-1-0.2-6.9,1.5-6.9,4.5c0,3,3.6,43.7,4.7,48.3c1.2,4.7,3.6,8.1,7.9,4.8
					C131.3,201.6,122.2,147.4,121.2,147.3z"/>
				<g>
					<path class="st24" d="M121.9,198C122,198,122,198,121.9,198C121.9,198,121.9,198,121.9,198L121.9,198z"/>
				</g>
				<g>
					<path class="st25" d="M122.2,198.5c0.3-0.4,0.7-0.8,1.2-1c0.2-0.1,0.4-0.1,0.6-0.1c0.3,0,0.4,0,0.7,0.1
						c0.4,0.1,0.8,0.3,1.1,0.6c0.2,0.2,0.2,0.3,0.4,0.5c0.1,0.1,0.1,0.1,0.1,0.3c0,0.1,0,0.1,0,0.2c0,0,0,0.2,0,0.1
						c0.1,0.5-0.1,1-0.3,1.5c-0.1,0.1-0.1,0.2-0.2,0.3c0.1-0.1,0,0-0.1,0.1c0,0.1-0.1,0.1-0.2,0.2c0,0-0.1,0.1-0.1,0.1
						c-0.1,0.1,0.1,0,0,0c0,0,0,0-0.1,0.1c-0.1,0.1-0.2,0.1-0.3,0.2c-0.1,0,0,0,0,0c0,0-0.1,0-0.1,0c-0.1,0-0.1,0-0.2,0.1
						c-0.1,0-0.2,0.1-0.3,0.1c-0.1,0,0.1,0,0,0c0,0-0.1,0-0.1,0c-0.1,0-0.1,0-0.2,0c-0.1,0-0.2,0-0.4,0c0,0-0.1,0-0.1,0
						c0,0,0.1,0,0,0c-0.1,0-0.1,0-0.2,0c-0.1,0-0.2,0-0.3-0.1c-0.1,0-0.2,0-0.3-0.1c0,0-0.1,0-0.1,0c0,0,0,0-0.1,0c-0.1,0,0.1,0,0,0
						c-0.1-0.1-0.2-0.1-0.3-0.2c-0.1-0.1-0.2-0.1-0.2-0.2c-0.2-0.1-0.4-0.3-0.4-0.4c-0.1-0.2-0.1-0.4-0.1-0.6c0-0.3,0.1-0.5,0.1-0.8
						c0-0.1-0.2-0.2-0.3-0.1c-0.5,0.3-0.4,1-0.3,1.5c0,0.1,0.1,0.2,0.1,0.3c-0.1-0.1,0-0.1,0,0c0,0,0,0,0,0.1c0,0.1,0,0.1,0,0.2
						c0.1,0.3,0.3,0.5,0.5,0.7c0.4,0.4,0.9,0.7,1.5,0.8c0.6,0.1,1.2,0.1,1.8-0.1c1.3-0.4,2.1-1.7,2.1-3.1c0-1.3-0.8-2.4-2-2.9
						c-1.5-0.5-3,0.1-3.8,1.4C121.2,198.6,121.9,199,122.2,198.5L122.2,198.5z"/>
				</g>
				<path class="st23" d="M170,147.9c1-0.2,7.4,0.8,7.4,3.8c0,3-3.6,43.7-4.7,48.3c-1.2,4.7-3.6,8.1-7.9,4.8
					C160.4,201.6,169,148.1,170,147.9z"/>
				<g>
					<path class="st25" d="M170.3,198.1c-0.7-1.2-2-1.8-3.4-1.5c-1.2,0.2-2.2,1.2-2.4,2.5c-0.2,1.3,0.4,2.8,1.7,3.4
						c1.1,0.5,2.4,0.5,3.3-0.2c0.3-0.2,0.5-0.4,0.7-0.7c0.1-0.1,0.1-0.3,0.2-0.4c0-0.1,0-0.1,0-0.2c0,0.1,0,0,0.1-0.1
						c0.2-0.5,0.3-1.3-0.2-1.7c-0.1-0.1-0.3,0-0.3,0.1c-0.1,0.4,0.2,0.8,0.1,1.2c0,0,0,0.1,0,0.1c0,0-0.1,0.1,0,0.1
						c-0.1,0.1-0.1,0.1-0.2,0.2c-0.2,0.2-0.3,0.2-0.5,0.4c-0.1,0.1-0.2,0.1-0.3,0.1c-0.1,0,0,0-0.1,0c-0.1,0-0.1,0-0.2,0.1
						c-0.2,0.1-0.4,0.1-0.6,0.1c-0.1,0-0.1,0-0.2,0c-0.1,0,0.1,0,0,0c-0.1,0-0.2,0-0.4,0c-0.1,0-0.1,0-0.2,0c0,0-0.2,0-0.1,0
						c-0.1,0-0.2,0-0.3-0.1c0,0-0.1,0-0.1,0c0,0-0.2-0.1-0.1,0c-0.1,0-0.2-0.1-0.3-0.2c0,0-0.2-0.1-0.1,0c0,0-0.1-0.1-0.1-0.1
						c-0.1-0.1-0.2-0.2-0.2-0.2c-0.3-0.4-0.5-0.9-0.5-1.4c0-0.5,0.1-0.8,0.4-1.3c0,0,0.1-0.1,0,0c0,0,0,0,0.1-0.1
						c0,0,0.1-0.1,0.1-0.1c0.1-0.1,0.2-0.2,0.2-0.2c0,0,0.2-0.1,0.3-0.2c0,0,0.1-0.1,0.1-0.1c0.1,0,0.1,0,0.1-0.1
						c0.5-0.2,1-0.2,1.4-0.1c0.5,0.1,1,0.5,1.3,1C169.8,199,170.6,198.6,170.3,198.1L170.3,198.1z"/>
				</g>
				<g>
					<path class="st14" d="M50,137.5c-3.7-2.7-7.9-7.1-9.5-11.5c-0.3-0.9-0.7-2,0-2.9c0.7-0.9,2.1-0.7,3.1-0.8
						c1.1-0.1,2.2,0,3.2-0.6c1.1-0.7,1.6-1.9,2.5-2.8c1.5-1.3,3.6-0.7,5.4-1.2c2.5-0.7,3.3-3.6,6.1-3.6c1.3,0,2.3,0.3,3.4-0.4
						c1.2-0.7,1.7-1.8,2.5-2.9c1.8-2.5,3.6-1.1,6.1-0.7c3.1,0.5,3.5-3.9,6.3-3.9c2.2,0,3.6,1.9,5.8,0.3c1-0.7,1.7-2,3-2.3
						c1.3-0.3,2.1,0.7,3.2,0.9c2.1,0.5,4-2.7,6-3.4c5.5-1.7,3.8,8.4,3.3,10.9c-0.5,2.7-0.5,5.5-2,7.9c-1.5,2.3-4.9,3.3-7.4,4.3
						c-7.3,2.9-14.9,4.8-22.5,6.9c-5.2,1.4-10.3,4.2-15.6,4.7c-0.9,0.1-1.8-0.1-2.5,0.5L50,137.5z"/>
					<g>
						<path class="st23" d="M93.4,109.7c0.1,1.7,0.1,3.4,0.1,5.2c0,0.9,0,1.7,0,2.6c0,0.8,0,1.7,0.3,2.5c0.1,0.2,0.3,0.2,0.4,0
							c0.3-0.8,0.3-1.6,0.3-2.5c0-0.9,0-1.7,0-2.6c0-1.7-0.1-3.4-0.3-5.2C94.1,109.2,93.3,109.2,93.4,109.7L93.4,109.7z"/>
					</g>
					<g>
						<path class="st23" d="M46.3,127.6c0.9,1,1.7,1.9,2.5,2.9c0.8,1,1.7,1.9,2.8,2.6c0.1,0.1,0.3-0.1,0.2-0.2
							c-0.8-1-1.6-1.9-2.5-2.9c-0.9-0.9-1.7-1.9-2.6-2.8C46.5,126.9,46.1,127.3,46.3,127.6L46.3,127.6z"/>
					</g>
					<g>
						<path class="st23" d="M55.5,124c0.6,1.3,1.2,2.5,2,3.8c0.4,0.6,0.7,1.2,1.1,1.8c0.4,0.5,0.7,1.2,1.3,1.5
							c0.2,0.1,0.4-0.1,0.4-0.3c-0.1-0.7-0.6-1.2-1-1.8c-0.4-0.6-0.8-1.2-1.1-1.7c-0.8-1.2-1.5-2.4-2.1-3.6
							C55.8,123.4,55.3,123.7,55.5,124L55.5,124z"/>
					</g>
					<g>
						<path class="st23" d="M73.6,117c0.3,1.5,0.9,2.8,1.4,4.2c0.3,0.7,0.5,1.4,0.8,2.1c0.1,0.3,0.2,0.7,0.3,1
							c0.1,0.3,0.2,0.6,0.5,0.8c0.1,0.1,0.3,0,0.4-0.2c0.1-0.3,0-0.7-0.1-1c-0.1-0.3-0.2-0.6-0.3-1c-0.3-0.7-0.5-1.4-0.8-2
							c-0.6-1.4-1.1-2.7-1.5-4.1C74.1,116.5,73.5,116.7,73.6,117L73.6,117z"/>
					</g>
					<g>
						<path class="st23" d="M83.3,113.1c0.2,1.6,0.3,3.2,0.6,4.8c0.2,1.5,0.3,3.2,1.1,4.6c0.1,0.2,0.4,0.1,0.4-0.1
							c0.1-0.8-0.1-1.6-0.2-2.4c-0.1-0.8-0.3-1.5-0.4-2.3c-0.2-1.6-0.6-3.1-0.9-4.7C83.8,112.8,83.3,112.9,83.3,113.1L83.3,113.1z"
							/>
					</g>
					<g>
						<path class="st23" d="M63.7,119.2c0.6,1.7,1.4,3.2,2.4,4.7c0.5,0.7,0.9,1.4,1.4,2.1c0.5,0.7,0.9,1.6,1.6,2.1
							c0.1,0.1,0.4,0,0.3-0.2c-0.2-0.8-0.8-1.5-1.2-2.1c-0.5-0.7-1-1.4-1.4-2.1c-0.9-1.5-1.8-3-2.3-4.7
							C64.3,118.5,63.5,118.7,63.7,119.2L63.7,119.2z"/>
					</g>
					<path class="st11" d="M110.5,277.9c1.9,2.8,3.9,5.5,6,8.2l-5.3-21.9l-8.1-33.1v0l-0.2-0.8L99,214.6l-4.9-20.2v0l-1.5-6
						l-0.8-3.1l-0.6-2.3l-2.7-11.2v0l-8.4-34.2l-0.2-0.9l-1.1-4.5l-0.7-2.8l-0.3-1.2h0v0l-2.1,1.8h0l0,0l-2.8,2.4l1.5,6.1l0.5,1.9v0
						l8.4,34.1l3.8,15.5v0l1,4.1c0,0,0,0,0,0c0,0,0,0,0,0l0.8,3.4l0.8,3.1l8.7,35v0L108,274l0,0L110.5,277.9z"/>
					<path class="st23" d="M75.4,139.9c1.5-1,3.1-1.9,4.8-2.5l-2.3-9.4l-4.9,4.2l2,7.9C75.1,140.2,75.3,140.1,75.4,139.9z"/>
					<path class="st11" d="M100.7,115.8c-0.2-0.5-8.2,2.2-16.8,5.1l0-0.1c0,0-38.2,13.3-37.9,14.3c0.3,1,4.6,8.8,8.8,9.1
						c2.2,0.2,11.5-2.9,19.6-5.8c9-3.1,23.2-8.1,25.2-10C102.7,125.5,101.1,116.8,100.7,115.8z"/>
				</g>
				<path class="st6" d="M79.3,196.4c0,0-1.1-9.8-1-14.3c0.1-4.5,9.9-13.7,14.1-9.4c1.1,1.1,0.1,2.6,0.1,2.6s1.6-0.1,1.7,1.3
					c0.2,1.4-0.4,1.8-0.4,1.8s1.4,0.1,1.5,1.8c0.1,1.7-0.6,2-0.6,2s2.2,0.9,1.5,3c-0.7,2.1-5.4,3.7-6.7,5.7s-1.4,5-1.4,5
					S79.8,197.2,79.3,196.4z"/>
				<g>
					<path class="st9" d="M126.3,115.4c0.6,1.4,1.3,2.8,1.7,4.3c0.2,0.7,0.4,1.5,0.5,2.3c0.1,0.4,0.1,0.8,0.1,1.2
						c0,0.4,0,0.8,0.2,1.1c0.2,0.3,0.7,0.3,0.9,0c0.3-0.7,0.1-1.7,0-2.4c-0.1-0.8-0.3-1.7-0.5-2.5c-0.5-1.6-1-3.2-2-4.5
						C126.8,114.3,126,114.8,126.3,115.4L126.3,115.4z"/>
				</g>
				<g>
					<path class="st9" d="M165.2,114.7c-1.7,2.1-2.4,4.8-2.8,7.3c0,0.3-0.1,0.6-0.1,0.9c0,0.3-0.1,0.7,0,0.9
						c0.1,0.1,0.3,0.2,0.4,0.2c0.3-0.1,0.3-0.5,0.4-0.7c0.3-1.3,0.5-2.6,0.9-3.9c0.4-1.4,0.9-2.9,1.9-4
						C166.2,114.9,165.6,114.2,165.2,114.7L165.2,114.7z"/>
				</g>
			</g>
			<g>
				<path class="st12" d="M258.8,313.2c-0.1-1.2-0.1-2.4-0.2-3.6c-0.2-2.8-0.3-5.7-0.5-8.7c-0.2-3-0.4-6.1-0.6-9.2v0
					c0-0.1,0-0.3,0-0.4c0-0.2,0-0.5,0-0.7c-0.2-2.5-0.3-5.1-0.5-7.7c-0.2-2.3-0.3-4.6-0.5-6.9c-0.2-2.9-0.4-5.7-0.6-8.5
					c-0.4-6.1-0.8-11.6-1.2-16.3c-0.2-2.5-0.4-4.8-0.6-6.7v0c-0.4-3.8-0.7-6.4-1-7.1c-0.2-0.4-0.8-0.6-1.7-0.6c-1,0-2.3,0.1-3.9,0.4
					c-0.5,0.1-0.9,0.2-1.4,0.2c-0.7,0.1-1.4,0.3-2.2,0.4c-0.8,0.2-1.7,0.3-2.5,0.5c-0.3,0.1-0.6,0.1-0.9,0.2c-0.7,0.1-1.3,0.3-2,0.4
					c-1,0.2-2,0.4-3,0.6c0,0-0.1,0-0.1,0h0c-0.3,0.1-0.6,0.1-0.9,0.2c-0.6,0.1-1.2,0.2-1.8,0.3c-4.3,0.7-9,1.4-13.7,1.8
					c-0.6,0.1-1.2,0.1-1.7,0.1c-0.4,0-0.9,0.1-1.3,0.1c-2.1,0.1-4.1,0.1-6,0c-5.5-0.2-10.5-1-14.7-1.9c-0.2,0-0.4-0.1-0.5-0.1
					c-0.4-0.1-0.7-0.2-1-0.2c-3.2-0.7-5.8-1.6-7.6-2.2c-0.2-0.1-0.4-0.1-0.6-0.2h0c-1.7-0.6-2.6-1-2.6-1s-0.1,2.5-0.3,6.6
					c0,0,0,0,0,0v0c0,0,0,0,0,0c0,0.8-0.1,1.7-0.1,2.6c-0.3,8.1-0.8,20.7-1.1,34.1c-0.1,3-0.1,6.1-0.2,9.1
					c-0.1,4.2-0.1,8.3-0.2,12.3c0,0.5,0,1,0,1.5v0.5c0,1.5,0,2.9,0,4.4c0,1.4,0,2.9,0,4.2c0,0.6,0,1.1,0,1.7
					c0.1,5.8,0.2,11,0.4,15.1c8.8,2.4,17.9,3.8,27.3,4.2c1.7,0.1,3.4,0.1,5.1,0.1c0.7,0,1.5,0,2.2,0c0.6-9.7,1.6-22.7,2.2-23.4
					c0.6-0.6,2.6,13.1,4,23.1l9.1-0.9c2.7-0.4,5.4-0.8,8-1.4c1.2-0.3,2.5-0.5,3.7-0.8c5.7-1.4,11.3-3.2,16.7-5.3
					C259.2,320.9,259,317.3,258.8,313.2z"/>
				<path class="st21" d="M205.9,142.7c0,0-28.9,5.9-30.2,8.3c-1.3,2.4,6.8,95.2,6.8,95.2s21.5,2.8,45.8,1.5
					c9.6-0.5,25.8-3.3,25.8-3.3s8.1-86.3,6.1-89.5c-2-3.3-27.4-11.2-34.4-12.5C218.9,141.2,205.9,142.7,205.9,142.7z"/>
				<g>
					<g>
						<path class="st12" d="M215.3,165.7c-0.4,2.5,0,4.9,0.1,7.4c0.1,2.7,0.1,5.4,0.2,8c0.1,5.4,0.3,10.8,0.4,16.1
							c0.1,5.5,0.5,11,0.5,16.5c0,5.5-0.4,11-0.5,16.5c-0.1,2.9,0,5.9,0.2,8.8c0.2,2.9,0.1,6,0.6,8.9c0.1,0.7,1.1,0.4,1.1-0.2
							c0.3-2.6-0.1-5.4-0.3-8c-0.2-2.6-0.3-5.2-0.3-7.8c0-5.4,0.4-10.8,0.4-16.2c0-5.4-0.5-10.8-0.5-16.3c0-5.3-0.2-10.6-0.3-15.9
							c0-3-0.1-6-0.2-9c0-2.9-0.5-5.8-0.5-8.7C216.1,165.3,215.4,165.2,215.3,165.7L215.3,165.7z"/>
					</g>
				</g>
				<path class="st6" d="M181.7,166.8c0,0,7.4,33,8,33.5c0.7,0.5,38.9,15.1,38.3,16.9c-0.7,1.8-9.5,6.4-29.2,10.2
					c-21.5,4.1-29.6-4.4-33.7-13.5c-4.1-9-5.7-28.9-4.6-32.8C161.7,177.1,180.4,165.8,181.7,166.8z"/>
				<path class="st6" d="M272.8,198.6c0,6.7-4.3,20.7-14.8,24.3c-10.5,3.6-33.5,1.1-47.3-4.6c-13.8-5.7-21.8-18.7-21.8-18.7
					s8.7-3.9,20.7-4.4c15.3-0.6,32.3,3.9,32.3,3.9s0,0,0,0c0-0.1,0.1-0.6,0.2-1.3c0.6-4,2.4-15.9,2.9-17.2c0.7-1.6,26.3,3,26.3,3
					S272.8,191.9,272.8,198.6z"/>
				<g>
					<path class="st6" d="M203.3,133.5c0,0,0.7,13.1,0.7,14.4s9.4,15.7,12,16.2c3.5,0,10.8-13.2,11.7-16.5c0.9-3.3,0-16.3,0-16.3
						S204.8,134.8,203.3,133.5z"/>
					<path class="st6" d="M234.4,117c-0.2,2.2-0.6,4.4-1.2,6.5c-2,7.5-5.9,14.3-11.8,16.6c-7.5,3-16.4-0.5-21-8.2
						c-1.2-2-1.9-5-2.4-8.4c-1.3-9.6-0.1-22.2-0.1-22.2c2.5-3,35.6-1,35.6-1S235.4,107.2,234.4,117z"/>
					<g>
						<path class="st6" d="M198.8,119.9c0,0-2.4-5.6-4.8-5.4c-2.4,0.2-2.4,5.4-0.4,8.3c2,3,6.1,3.9,6.7,3.3
							C200.7,125.4,198.8,119.9,198.8,119.9z"/>
						<path class="st6" d="M232.5,119.9c0,0,2.4-5.6,4.8-5.4s2.4,5.4,0.4,8.3s-6.1,3.9-6.7,3.3C230.5,125.4,232.5,119.9,232.5,119.9
							z"/>
					</g>
					<path class="st9" d="M233.3,123.5c-2,7.5-5.9,14.3-11.8,16.6c-7.5,3-16.4-0.5-21-8.2c-1.2-2-1.9-5-2.4-8.4
						c2.9-1.4,12.5-5.9,18-5.6C221.4,118.4,230,121.1,233.3,123.5z"/>
					<g>
						<path class="st10" d="M200.3,125.7c1.3-0.7,2.7-1.4,4.1-1.9c0.7-0.3,1.4-0.5,2.1-0.8c0.3-0.1,0.7-0.2,1-0.3
							c0.3-0.1,0.7-0.1,0.8-0.4c0-0.1,0-0.2-0.1-0.3c-0.3-0.2-0.6,0-0.9,0.1c-0.4,0.1-0.8,0.3-1.1,0.4c-0.7,0.3-1.4,0.5-2.1,0.8
							c-1.4,0.6-2.8,1.2-4.2,1.8C199.5,125.3,199.9,125.9,200.3,125.7L200.3,125.7z"/>
					</g>
					<g>
						<path class="st10" d="M200.9,130.3c0.9,0.4,1.9,0.9,2.8,1.2c0.5,0.2,1,0.4,1.5,0.5c0.2,0.1,0.5,0.1,0.7,0.2
							c0.2,0.1,0.5,0.1,0.7,0c0.1-0.1,0.1-0.2,0.1-0.3c-0.1-0.2-0.3-0.2-0.6-0.3c-0.2-0.1-0.5-0.2-0.7-0.2c-0.5-0.2-0.9-0.4-1.4-0.6
							c-0.9-0.4-1.8-0.8-2.7-1.2c-0.2-0.1-0.4-0.1-0.6,0.1C200.6,130,200.7,130.3,200.9,130.3L200.9,130.3z"/>
					</g>
					<g>
						<path class="st10" d="M200.8,128.1c0.5-0.1,1.1-0.2,1.6-0.2c0.3,0,0.6,0,0.9-0.1c0.2-0.1,0.5-0.2,0.7-0.3
							c0.1-0.1,0.1-0.3-0.1-0.3c-0.2,0-0.5,0-0.7,0c-0.3,0-0.6,0.1-0.9,0.1c-0.5,0.1-1.1,0.1-1.6,0.3
							C200.2,127.6,200.4,128.2,200.8,128.1L200.8,128.1z"/>
					</g>
					<g>
						<path class="st10" d="M230.5,125.1c-1.4-0.6-2.8-1.2-4.2-1.8c-0.7-0.3-1.4-0.6-2.1-0.8c-0.4-0.1-0.7-0.3-1.1-0.4
							c-0.3-0.1-0.6-0.3-0.9-0.1c-0.1,0.1-0.1,0.2-0.1,0.3c0.1,0.3,0.5,0.3,0.8,0.4c0.3,0.1,0.7,0.2,1,0.3c0.7,0.2,1.4,0.5,2.1,0.8
							c1.4,0.5,2.8,1.2,4.1,1.9C230.5,125.9,230.9,125.3,230.5,125.1L230.5,125.1z"/>
					</g>
					<g>
						<path class="st10" d="M229.1,129.6c-0.9,0.4-1.8,0.8-2.7,1.2c-0.5,0.2-0.9,0.4-1.4,0.6c-0.2,0.1-0.5,0.2-0.7,0.2
							c-0.2,0.1-0.4,0.1-0.6,0.3c-0.1,0.1,0,0.2,0.1,0.3c0.2,0.1,0.4,0.1,0.7,0c0.2-0.1,0.5-0.1,0.7-0.2c0.5-0.2,1-0.3,1.5-0.5
							c1-0.4,1.9-0.8,2.8-1.2c0.2-0.1,0.2-0.4,0.1-0.6C229.5,129.6,229.3,129.5,229.1,129.6L229.1,129.6z"/>
					</g>
					<g>
						<path class="st10" d="M229.8,127.5c-0.5-0.2-1.1-0.2-1.6-0.3c-0.3,0-0.6-0.1-0.9-0.1c-0.2,0-0.5,0-0.8,0
							c-0.2,0-0.2,0.2-0.1,0.3c0.2,0.1,0.4,0.2,0.6,0.3c0.1,0,0.3,0.1,0.4,0.1c0.2,0,0.3,0,0.5,0.1c0.5,0.1,1.1,0.1,1.6,0.2
							C230,128.2,230.2,127.6,229.8,127.5L229.8,127.5z"/>
					</g>
					<path class="st26" d="M197.5,117.5c0,0,4.9-11.7,3.4-14.7c-1.5-3-4.2-2.8-4.2-2.8S194.8,112.7,197.5,117.5z"/>
					<path class="st26" d="M234.3,117.5c0,0-2.7-7.4-3-11.5c-0.2-4.1,0.2-5.6,1.1-6.6c1-1,3.5,0.9,3.5,4.5
						C236.2,113.3,234.3,117.5,234.3,117.5z"/>
					<path class="st12" d="M208.3,114.4c-0.4-0.7-1-1.2-1.9-1c-0.8,0.1-1.5,0.7-1.6,1.5c-0.3,1.2,0,2.8,1.4,3.1
						c1.1,0.3,2.1-0.4,2.4-1.4C208.8,116,208.7,115.1,208.3,114.4z"/>
					<path class="st12" d="M209.8,110.1c-0.6-0.4-2-0.5-2.8-0.4c-0.7,0-1.5,0.2-2.2,0.5c-0.7,0.3-1.9,1.1-2,1.9
						c-0.1,0.6,0.2,0.5,0.7,0.4c0.7-0.2,1.3-0.4,2-0.4c1.2,0,2.6,0.1,3.8-0.1C210.4,111.7,210.7,110.7,209.8,110.1z"/>
					<path class="st12" d="M222.3,114.5c0.4-0.7,1-1.2,1.9-1c0.8,0.1,1.5,0.7,1.6,1.5c0.3,1.2,0,2.8-1.4,3.1
						c-1.1,0.3-2.1-0.4-2.4-1.4C221.8,116.1,221.9,115.2,222.3,114.5z"/>
					<path class="st12" d="M220.9,110c0.6-0.4,2-0.5,2.8-0.4c0.7,0,1.5,0.2,2.2,0.5c0.7,0.3,1.9,1.1,2,1.9c0.1,0.6-0.2,0.5-0.7,0.4
						c-0.7-0.2-1.3-0.4-2-0.4c-1.2,0-2.6,0.1-3.8-0.1C220.4,111.6,220.1,110.6,220.9,110z"/>
					<path class="st21" d="M195.6,100.6c0,0-6.3-3.7-6.5-5.1c-0.2-1.7,5.4-5.4,7.9-11.5c1.1-0.2,8.9-1.6,13.1-4.2
						c4.2-2.5,5.3-4.9,7.3-4.4c2,0.6,5.7,4.7,10.2,6.5c4.4,1.8,7.6,1.8,7.7,2.2c0.2,0.4,2.1,4.5,4.1,7.2c2.1,2.7,2.9,2.7,3,4
						c0.1,1.3-7,7.9-7.8,8.6c-0.8,0.7-36.4,2-36.9,0.4C197,102.9,195.6,100.6,195.6,100.6z"/>
					<path class="st12" d="M195.3,100.8c0,0,0.4,5.5,0.6,5.9c0.2,0.4,40.4-0.3,40.4-0.3s0.2-4.2,0.1-4.5c-0.2-0.3-5.3-6.2-8.5-7.2
						c-2.7-0.8-10.3-3.7-11.1-3.6c-3.7,0.2-13.6,3.1-14.5,3.6C201.3,95.2,195.4,100.4,195.3,100.8z"/>
					<path class="st27" d="M195.5,106.2l0,2c0,0,15.4,0.1,23.3,0.2s17.7-1,17.7-1l0.1-1.5c0,0-11.1-3.4-21.2-3.1
						C205.2,103.1,195.5,106.2,195.5,106.2z"/>
					<g>
						<path class="st12" d="M198.1,87c0.1,0.5,0.2,0.9,0.5,1.3c0.4,0.7,0.8,1.5,1.3,2.2c0.9,1.5,1.8,3.1,2.8,4.5
							c0.3,0.4,0.9,1.4,1.6,1c0.2-0.1,0.3-0.3,0.2-0.5c0-0.1,0,0.1,0,0.1c0-0.1,0-0.2-0.1-0.3c-0.1-0.1-0.1-0.2-0.2-0.3
							c-0.2-0.2-0.3-0.4-0.5-0.6c0,0-0.1-0.2-0.2-0.3c-0.1-0.2-0.2-0.3-0.3-0.5c-0.2-0.3-0.5-0.7-0.7-1c-1.1-1.4-2-2.9-2.9-4.4
							c-0.2-0.3-0.3-0.6-0.6-0.9c-0.1-0.1-0.2-0.2-0.2-0.3c0,0-0.2-0.2-0.1-0.1C198.5,86.7,198.1,86.7,198.1,87L198.1,87z"/>
					</g>
					<g>
						<path class="st12" d="M232.6,88.1C232.7,88,232.6,88.1,232.6,88.1c-0.1,0.2-0.2,0.2-0.3,0.3c-0.2,0.2-0.3,0.5-0.5,0.7
							c-0.4,0.7-0.8,1.3-1.3,2c-0.9,1.5-1.9,2.9-3,4.3c-0.1,0.1-0.3,0.4-0.5,0.6c-0.1,0.1-0.2,0.2-0.3,0.3c0,0.1-0.1,0.1-0.1,0.2
							c-0.1,0.3,0,0,0,0.1c-0.1,0.2,0,0.4,0.2,0.5c0.5,0.4,1.1-0.3,1.4-0.7c0.5-0.6,1-1.3,1.4-2c0.9-1.6,1.9-3.1,2.8-4.7
							c0.3-0.5,0.5-1,0.6-1.5C233.1,87.9,232.7,87.9,232.6,88.1L232.6,88.1z"/>
					</g>
					<path class="st14" d="M219.6,84.6c-1.7-2-4.9-2.4-6.7,0.3c-1.3,1.9-1.5,4.3-1.2,6.5c0.3,2,1.7,4.4,3.8,4.7
						C221.1,97,222.5,87.9,219.6,84.6z"/>
					<g>
						<path class="st28" d="M214,93.2c0.3,0.4,0.5,0.9,1,1.1c0.5,0.2,1.1,0.3,1.6,0.2c1.1-0.1,1.9-0.9,2.3-1.9
							c0.4-1,0.6-2.2,0.6-3.3c0-1.1-0.1-2.4-0.5-3.4c-0.4-1-1.5-1.9-2.7-1.6c-0.3,0.1-0.3,0.5,0,0.6c0.5,0.2,1,0.1,1.5,0.5
							c0.4,0.3,0.6,0.8,0.8,1.3c0.4,1.1,0.4,2.4,0.3,3.6c-0.1,1.1-0.4,2.3-1.1,3.2c-0.5,0.6-1.2,0.8-1.9,0.7
							c-0.8-0.1-1.1-0.6-1.5-1.2C214.2,92.8,213.9,93,214,93.2L214,93.2z"/>
					</g>
				</g>
				<path class="st21" d="M228,141c0,0-1,6.2-4.6,12.5c-3,5.3-6.7,10-6.7,10l8.4,7c0,0,7.6-9.4,8.6-16.5
					C234.7,146.9,228,141,228,141z"/>
				<g>
					<path class="st14" d="M240,170.8c-0.3-0.1-0.6-0.2-1-0.3c-3-0.5-10.4-1.7-10.7,3.1c0,0.3,0,0.7,0.1,1c0.3,1.8,1.1,3.9,2,5.5
						c0.6,1,1.3,2.3,2.4,2.9c3.3,1.8,6-2.1,7.3-4.6C241.2,176.1,242.9,172,240,170.8z"/>
					<g>
						<path class="st28" d="M235,182c1.6-0.9,2.9-2.2,3.8-3.8c0.4-0.8,0.8-1.6,1.1-2.5c0.1-0.4,0.2-0.9,0.3-1.3
							c0.1-0.4,0.1-0.8-0.1-1.2c-0.1-0.1-0.2-0.1-0.3,0c-0.3,0.3-0.2,0.7-0.3,1.1c-0.1,0.4-0.2,0.8-0.3,1.2
							c-0.2,0.8-0.5,1.7-0.9,2.5c-0.8,1.5-2,2.9-3.4,3.9C234.7,181.8,234.8,182,235,182L235,182z"/>
					</g>
					<g>
						<path class="st28" d="M233.5,171.1c-0.9-0.1-1.9,0.3-2.6,0.9c-0.3,0.3-0.6,0.7-0.8,1.1c-0.1,0.2-0.2,0.4-0.2,0.7
							c0,0.3-0.1,0.6,0.1,0.8c0.1,0.1,0.3,0.1,0.4,0c0.2-0.2,0.1-0.4,0.2-0.7c0,0.1,0-0.1,0-0.1c0,0,0-0.1,0-0.1c0,0,0-0.1,0-0.1
							c0,0,0-0.1,0-0.1c0.2-0.4,0.4-0.6,0.7-0.9c0.6-0.5,1.3-0.8,2.1-0.7c0.2,0,0.4-0.2,0.4-0.4
							C233.9,171.3,233.7,171.2,233.5,171.1L233.5,171.1z"/>
					</g>
				</g>
				<g>
					<path class="st29" d="M220.7,221.4c-0.6-0.2-1.1-0.3-1.7-0.5c-2.3-0.7-4.7-1.5-7-2.3c-5.6-2.1-15.5-9.5-20.8-14.3
						c-0.3-0.2-0.6,0.2-0.3,0.4c5.3,6.1,14.8,12.9,20.5,15.2c2.3,0.9,4.7,1.7,7,2.4c0,0,0,0,0.1,0L220.7,221.4z"/>
				</g>
				<g>
					<path class="st29" d="M252.1,203.5c-0.8,0-1.5-0.6-2.2-1c-0.9-0.5-1.8-0.9-2.7-1.3c-1.7-0.8-3.5-1.4-5.3-2.1
						c0-0.1,0.1-0.6,0.2-1.3c1.9,0.7,3.9,1.4,5.7,2.2c1,0.4,1.9,0.9,2.9,1.4c0.6,0.4,1.5,0.8,1.7,1.6
						C252.5,203.2,252.4,203.5,252.1,203.5z"/>
				</g>
				<path class="st21" d="M189.9,146.4c0,0-16.1,1-19.2,4.9c-3.1,3.9-9.5,14.3-11.7,27.9c-2.1,13.6,0,17.7,0,17.7s4.8-3.8,14.1-3.9
					c9.4-0.2,15.1,1.8,15.1,1.8s0-20.4-1-30C186.3,155.1,189.9,146.4,189.9,146.4z"/>
				<path class="st21" d="M241.5,146.9c0,0,17.1,4.6,20.2,8.5c3.1,3.9,9.3,10.2,11.4,23.8c2.1,13.6,0,17.7,0,17.7s-4.8-3.8-14.1-3.9
					c-9.4-0.2-17,1.5-17,1.5s1.9-20,2.9-29.7C245.8,155.1,241.5,146.9,241.5,146.9z"/>
				<g>
					<g>
						<path class="st12" d="M180.9,166.7c0.7,4.7,1.8,9.4,2.8,14.1c0.9,4,0.8,8.6,2.6,12.3c0.2,0.5,1,0.1,0.8-0.3
							c-0.6-2.1-1.1-4.2-1.4-6.3c-0.3-2.1-0.6-4.1-1-6.1c-1-4.6-1.9-9.2-3.1-13.8C181.4,166.1,180.8,166.3,180.9,166.7L180.9,166.7z
							"/>
					</g>
				</g>
				<g>
					<g>
						<path class="st12" d="M248.1,167c-1.7,4.2-2.4,8.6-3.1,13c-0.4,2.1-0.7,4.2-1.1,6.4c-0.4,2-1.2,4.3-1.1,6.4
							c0,0.2,0.3,0.3,0.5,0.1c1-1.8,1.2-4.3,1.5-6.2c0.4-2.1,0.7-4.2,1-6.4c0.7-4.4,1.7-8.8,3-13C249.1,166.7,248.3,166.5,248.1,167
							L248.1,167z"/>
					</g>
				</g>
				<g>
					<g>
						<path class="st12" d="M206.7,179.5c-2.5-0.2-5-0.2-7.5-0.1c-2.3,0.1-4.6,0.2-6.9,0.6c-1,0.2-1.9,0.4-2.9,0.6
							c-0.4,0.1-0.9,0.2-1.2,0.4c-0.7,0.6-0.4,1.9-0.4,2.7c0,0.2,0.2,0.4,0.4,0.5c1.5,0.3,2.9,0.1,4.4,0c1.7-0.1,3.5-0.1,5.2-0.1
							c3.7,0,7.5-0.2,11.2-0.3c0.6,0,0.6-0.9,0-0.9c-3.6,0-7.2,0.1-10.8,0.1c-1.7,0-3.3-0.1-5,0c-1.6,0.1-3.2,0.5-4.8,0.2
							c0.1,0.2,0.2,0.3,0.4,0.5c0-0.5-0.1-1.1,0-1.6c0.1-0.4,0.1-0.3,0.5-0.4c1.6-0.4,3.3-0.7,5-0.9c4.1-0.5,8.3-0.2,12.4-0.5
							C207.2,180.2,207.2,179.5,206.7,179.5L206.7,179.5z"/>
					</g>
				</g>
				<g>
					<g>
						<path class="st12" d="M216.8,164.1c1.5,1.2,2.8,2.6,4.2,3.9c0.8,0.7,1.6,1.4,2.4,2.1c0.4,0.3,0.8,0.8,1.3,0.9
							c1.2,0.2,2-1.5,2.6-2.3c1.2-1.6,2.3-3.3,3.3-5.1c1.7-3,3.7-6.3,4-9.9c0.2-2-0.1-3.9-0.7-5.8c-0.6-1.7-1.2-3.2-2.8-4.2
							c-0.3-0.2-0.6,0.2-0.4,0.4c0.9,1.7,2.3,3.4,2.8,5.3c0.6,2.2,0.1,4.4-0.6,6.5c-0.6,1.9-1.5,3.7-2.5,5.5
							c-1.1,1.9-2.1,3.9-3.4,5.7c-0.4,0.6-0.8,1.2-1.3,1.7c-0.1,0.2-0.3,0.6-0.5,0.7c-0.4,0.3-0.3,0.2-0.8-0.2
							c-0.8-0.7-1.6-1.4-2.3-2.1c-1-0.9-2-1.7-3-2.5c-0.6-0.5-1.2-1-2-1.2C216.8,163.5,216.5,163.9,216.8,164.1L216.8,164.1z"/>
					</g>
				</g>
				<path class="st12" d="M202.4,143.4c-2,0.3-13.9,0.2-24.5,3.2c-5.3,1.5-8.2,3.1-5.9,4.3c1.9,1,20.9-2.3,27-3.4
					C199.9,145.8,201.4,144.5,202.4,143.4z"/>
				<path class="st12" d="M231.1,143.8c1.9,0.5,13.7,2,23.8,6.4c5.1,2.2,7.7,4.2,5.3,5c-2,0.7-20.4-5.1-26.3-6.9
					C233.2,146.6,232,145.1,231.1,143.8z"/>
				<g>
					<g>
						<path class="st12" d="M200.8,143.9c-2.4,2.4-3.8,5.4-3.5,8.9c0.4,3.8,2.2,7.5,3.9,10.8c0.6,1.2,1.3,2.5,2,3.7
							c0.6,1.1,1.3,2.3,2.3,3.1c1.6,1.2,3.2-0.4,4.5-1.4c1.1-0.9,2.3-1.7,3.3-2.7c0.7-0.6,1.8-1.3,2.2-2.2c0.2-0.4-0.2-0.8-0.6-0.6
							c-0.8,0.5-1.5,1.2-2.2,1.9c-1.1,1-2.3,2-3.5,2.9c-0.6,0.5-1.6,1.5-2.4,1.6c-1.2,0.2-2.3-2.3-2.8-3.1
							c-1.9-3.4-3.8-6.9-5.1-10.6c-0.7-1.9-1.1-4-0.8-6.1c0.4-2.2,1.7-4.1,3.3-5.6C201.8,144.2,201.2,143.5,200.8,143.9L200.8,143.9
							z"/>
					</g>
				</g>
				<g>
					<path class="st9" d="M196.3,116.4c0.7,1.2,1.3,2.4,1.9,3.6c0.3,0.6,0.5,1.2,0.8,1.8c0.1,0.3,0.3,0.6,0.4,0.9
						c0.1,0.3,0.3,0.6,0.5,0.9c0.3,0.3,0.7,0.1,0.7-0.3c0-0.3-0.1-0.7-0.2-1c-0.1-0.3-0.2-0.7-0.4-1c-0.3-0.6-0.6-1.2-0.9-1.8
						c-0.6-1.2-1.4-2.3-2.1-3.5C196.7,115.4,196,115.9,196.3,116.4L196.3,116.4z"/>
				</g>
				<g>
					<path class="st9" d="M234.6,115.1c-0.9,1.2-1.6,2.5-2.2,3.9c-0.3,0.7-0.5,1.4-0.7,2.1c-0.1,0.4-0.2,0.7-0.3,1.1
						c-0.1,0.3-0.2,0.7-0.2,1.1c0,0.4,0.6,0.6,0.8,0.2c0.2-0.3,0.2-0.7,0.3-1c0.1-0.3,0.2-0.7,0.3-1c0.2-0.7,0.5-1.4,0.7-2.1
						c0.5-1.3,1.2-2.6,2-3.8C235.6,115.2,234.9,114.7,234.6,115.1L234.6,115.1z"/>
				</g>
			</g>
			<g>
				<path class="st30" d="M253.2,209.7c0,0,8.9-2.3,19.4-2c6.8,0.2,13.1,2.1,13.1,2.1s-4.3,13.8-4.2,14.1c0.1,0.2-34.7-1.5-34.4-2
					C247.2,221.3,253.2,209.7,253.2,209.7z"/>
				<path class="st31" d="M257.9,210.2c0,0-6.7,2.4-11.5,14.4c-4.9,12-6.7,87.4-6.7,87.4s31.1,2.7,36.8,0.7c5.8-2,8.7-17.7,8.7-17.7
					s3.8-81.4,0.4-83.2C282.3,210,265,208.2,257.9,210.2z"/>
				<path class="st21" d="M282.3,307.4v4.8c-2.2,1.5-4.5,2.9-6.9,4.3c-5.1,2.9-10.4,5.5-16,7.7c-5.4,2.1-11,3.9-16.7,5.3
					c-1.2,0.3-2.5,0.6-3.7,0.8l-1.8-22.9c0.2-0.1,1.1,0.1,2.6,0.4h0c0.6,0.1,1.3,0.3,2.1,0.4c3.9,0.7,9.8,1.6,16.7,1.5
					c0.7,0,1.4,0,2.2-0.1c5.8-0.3,10.7-0.8,14.5-1.2c2.7-0.3,4.7-0.6,5.9-0.8h0C281.9,307.4,282.3,307.4,282.3,307.4z"/>
				<g>
					<path class="st19" d="M302.6,295.1c-1.8,1.9-3.7,3.7-5.6,5.4c-0.6,0.5-1.1,1-1.7,1.5c-0.1,0.1-0.2,0.2-0.3,0.3
						c-4,3.5-8.3,6.8-12.8,9.8c-2.2,1.5-4.5,2.9-6.9,4.3c0-1.1,0-2.3-0.1-3.4v0c0-1.5-0.1-3.1-0.1-4.6c0-1.2-0.1-2.4-0.1-3.6
						c0-0.4,0-0.9,0-1.3c0-0.2,0-0.4,0-0.6v0c-0.1-3.8-0.2-7.5-0.3-11.3c-0.1-1.9-0.1-3.7-0.1-5.6c0-0.2,0-0.3,0-0.5v0
						c0-0.2,0-0.4,0-0.6v0c0-1.5,0-2.9-0.1-4.4c0,0,0,0,0,0c0-0.6,0-1.1,0-1.7c0-1,0-2.1,0-3.1v-0.9c0,0,0,0,0,0
						c0-2.5,0-4.9,0.1-7.4v0c0.1-4.9,0.2-9.7,0.4-14.6c0.3-8.4,0.7-16.9,1.9-25.2c0.2-1.2,0.4-2.4,0.6-3.6c0,0,0-0.1,0-0.1v0
						c0.6-3,1.4-5.9,2.6-8.7c0.1-0.3,0.2-0.6,0.4-0.8c0.1-0.3,0.3-0.6,0.4-1c0,0,0,0,0,0c0.2-0.6,0.5-1.2,0.7-1.8v0
						c0.1-0.2,0.2-0.5,0.3-0.7v0c0-0.1,0-0.1,0.1-0.2v0c0.1-0.3,0.2-0.5,0.3-0.7c0.1-0.1,0.1-0.3,0.2-0.4c0.1-0.1,0.1-0.2,0.2-0.3
						c0,0,0,0,0,0c0.8,0.1,1.6,0.3,2.3,0.5c0.4,0.1,0.7,0.2,1.1,0.3c0,0,0,0,0,0h0c0.4,0.1,0.9,0.2,1.3,0.3c0.3,0.1,0.7,0.2,1,0.3
						c2.5,0.7,4.7,1.5,6.8,2.4c1.1,0.5,2.1,1,3.1,1.5c0.2,0.1,0.4,0.3,0.5,0.7c0.6,1.3,1.2,4.3,1.6,8.5c1.7,15.9,2.1,48.6,2.3,68.2
						C302.6,292.8,302.6,294,302.6,295.1z"/>
					<path class="st19" d="M258.5,208.8c-0.2,0.2-0.5,0.5-0.8,0.8c0,0,0,0,0,0c0,0,0,0,0,0c0,0,0,0,0,0c-0.1,0.1-0.2,0.2-0.3,0.3
						c0,0,0,0,0,0v0c-0.1,0.1-0.2,0.2-0.3,0.3c-0.2,0.2-0.3,0.4-0.5,0.6l0,0c-0.1,0.1-0.2,0.3-0.4,0.5c-0.3,0.4-0.6,0.7-0.9,1.1
						c-1.5,2.1-3.2,4.8-4.7,8.4c-0.2,0.4-0.4,0.9-0.6,1.3v0c-0.3,0.7-0.6,1.5-0.9,2.3c-0.7,1.9-1.3,4.1-1.9,6.4c0,0,0,0,0,0v0
						c0,0.1-0.1,0.3-0.1,0.4c-0.2,0.6-0.3,1.3-0.4,1.9c-0.3,1.4-0.5,2.8-0.8,4.3c-0.2,1-0.3,2-0.4,3.1c-0.2,1.7-0.4,3.5-0.6,5.3
						c-0.7,6.5-1.2,13.8-1.7,21.3c0,0,0,0.1,0,0.1c0,0.1,0,0.1,0,0.2c0,0,0,0,0,0c0,0.1,0,0.2,0,0.4c0,0.1,0,0.3,0,0.4
						c-0.4,6.4-0.7,12.8-0.9,18.9v0c-0.1,2.6-0.2,5-0.3,7.4c0,0.3,0,0.7,0,1c0,0,0,0,0,0c0,0.4,0,0.8,0,1.2v0
						c-0.1,4.1-0.2,8-0.2,11.3c0,1.4,0,2.8,0,4c0,3.2,0.1,5.8,0.2,7.4c0.3,3.1,0.5,6.6,0.6,9.8c-1.2,0.3-2.5,0.6-3.7,0.8
						c-2.6,0.6-5.3,1-8,1.4c-0.3-7-0.8-18.2-0.9-30.5c0-1.1,0-2.4,0-3.7c0-0.2,0-0.3,0-0.5c0-0.1,0-0.2,0-0.4
						c0.2-6.8,0.7-16.2,1.6-26.2c0-0.3,0-0.6,0.1-0.9c0,0,0,0,0,0c0-0.3,0.1-0.6,0.1-0.8v0c0.1-1,0.2-1.9,0.3-2.9c0,0,0,0,0-0.1
						c0,0,0,0,0-0.1c0-0.1,0-0.3,0-0.4c0.1-0.7,0.1-1.5,0.2-2.3c0.5-5.2,1.1-10.5,1.7-15.6c0.3-2.6,0.7-5.2,1-7.7l0,0c0,0,0,0,0,0
						c0.1-0.7,0.2-1.3,0.3-1.9c0.2-1.2,0.4-2.4,0.5-3.6c0.1-0.9,0.3-1.7,0.4-2.6c0.4-2.6,0.9-5.1,1.3-7.2c1.1-5.4,2.3-9.2,3.4-10.4
						c0,0,0,0,0,0c0.1-0.1,0.3-0.3,0.4-0.3c1.5-1,3.3-1.7,5.2-2.3c0.1-0.1,0.3-0.1,0.5-0.1c2-0.6,4-1.1,6-1.4c0,0,0,0,0,0
						c0,0,0,0,0.1,0c0,0,0.1,0,0.1,0c0,0,0,0,0.1,0c1-0.2,1.9-0.3,2.8-0.5c0.3,0,0.6-0.1,0.9-0.1h0c0,0,0.1,0,0.1,0c0,0,0.1,0,0.1,0
						h0C257.8,208.9,258.1,208.9,258.5,208.8z"/>
				</g>
				<path class="st19" d="M246.3,211.7c0,0-10,2.8-18.3,12.8c-8.3,10-12.3,26.5-15,36.9c-2.7,10.5-2.3,27.8,8.5,33.4
					c10.8,5.7,27.3-1.2,37.8-4c10.5-2.8,19.5-7.3,19.5-7.3s-3.2-6-2.5-10.5c0.7-4.5,1.5-5.8,1.5-5.8s-27.6,0.5-33.6,0.7
					c-6,0.2-9.8,0.5-9.8,0.5s4.7-37.9,6.7-43.1C242.9,220.1,246.3,211.7,246.3,211.7z"/>
				<path class="st19" d="M302.3,216.8c-11.5-8.3-16.7-7.1-16.7-7.1l-3.3,5.9c0.4,1.4,0.6,2.9,0.9,4.4c0.5,2.6,1.3,5.2,2.1,7.8
					c0.9,3,1.6,6.1,2.4,9.2c1.2,5.3,2.3,10.7,2.7,16.2c0.4,5.2,0.5,10.9-1.8,15.6c-0.9,2-2.3,3.7-4.1,4.9c-2.8,1.7-6.1,1.8-9.3,1.9
					c-2.5,0.1-5.1,0-7.6,0.1c-2.7,0-5.3,0.2-8,0.3c-3.7,0.2-7.3,0.3-11,0.4L238,295.2c0,0,9.3,5,29.3,7c20,2,30.4,1.3,38.1-4.7
					c7.7-6,11.6-20.1,12.3-40.1C318.3,237.4,313.8,225.1,302.3,216.8z"/>
				<g>
					<path class="st20" d="M281.4,210.1c3.9,3.5,7.7,7.6,10.3,12.1c0.6,1.1,1.2,2.2,1.6,3.4c0.4,1.2,0.6,2.3-0.9,2.6
						c-1.9,0.4-3.9,0.6-5.6,1.5c-4.4,2.3,0.6,8.2,1.8,10.9c0.5,1.1,0.8,2.3,0.7,3.5c-0.1,1.4-1,2.5-1.8,3.6c-1.7,2.2-3.6,4.2-5,6.6
						c-1.7,2.9-3.1,6.1-4.2,9.4c-1,3.1-2,6.6-1.5,9.9c0.1,0.7,1.1,0.5,1.2-0.2c0.4-3.2,0.8-6.3,1.8-9.4c1-3.1,2.3-6.1,3.9-8.9
						c0.8-1.4,1.5-2.8,2.4-4c0.8-1.1,1.8-2,2.6-3.1c1.4-1.9,2.2-3.7,1.6-6.1c-0.6-2.3-2.2-4.2-3.2-6.3c-0.5-1-1.1-2.3-1-3.5
						c0.1-1.3,1.4-1.7,2.4-2c1-0.3,2-0.6,3-0.9c0.8-0.3,1.7-0.3,2.3-0.9c1.5-1.2,0.2-3.8-0.4-5.1c-2.5-5.4-7-9.9-11.4-13.7
						C281.6,209.3,281.1,209.8,281.4,210.1L281.4,210.1z"/>
				</g>
				<g>
					<path class="st20" d="M256.3,210.2c-4.7,3.1-9.5,6.3-13.1,10.7c-0.3,0.4-0.6,0.8-0.9,1.2c-0.5,0.6-1,1.3-1.4,1.9
						c-0.7,0.9-1.4,2-1.7,3.1c-0.3,1.2,0.1,2.1,0.7,2.9c0.5,0.7,1.2,1.3,1.8,2c2.6,3.2-1,7.2-2.4,10.1c-1.3,2.6-2.5,5.3-2,8.3
						c0.4,2.6,1.7,5,2.6,7.5c1,2.5,1.5,5,1.8,7.7c0.1,0.8,0.1,1.6,0.1,2.4c-0.4,0-0.7,0-1.1,0c0-1.2-0.1-2.3-0.2-3.5
						c-0.3-3.3-1.5-6.1-2.7-9.2c-0.5-1.2-1-2.5-1.2-3.8c-0.3-1.2-0.4-2.5-0.2-3.8c0.2-1.5,0.7-2.9,1.4-4.3c0.4-0.9,0.9-1.8,1.4-2.6
						c1.1-1.9,2.9-4.2,2.9-6.4c0-1.5-1.2-2.5-2.3-3.6c-0.3-0.3-0.6-0.6-0.8-1c-1.1-1.7-0.3-3.6,0.7-5.1c1.1-1.7,2.2-3.4,3.6-5
						c0.2-0.3,0.5-0.6,0.7-0.8c3.5-3.8,7.8-6.6,12-9.4C256.3,209.2,256.7,209.9,256.3,210.2z"/>
				</g>
				<path class="st32" d="M275.4,284.6c1.5-0.6,2.9-1.2,4.3-1.8c2-0.8,4.8-1.6,5.9-3.6c0.3-0.6,0.3-1.3,0.4-2
					c0.1-0.7,0.3-1.5,0.4-2.2c0.3-1.5,0.7-2.9,1.1-4.3c0.5-1.8,1-3.7,1.4-5.5c-2.1,0.5-4.4,1.7-4.9,2c-0.7,0.4-6.8-0.1-6.8-0.1
					c-3.8,1.1-3.3,15-2.1,17.2C275.3,284.4,275.3,284.5,275.4,284.6z"/>
				<g>
					<path class="st33" d="M243.4,267.3c-0.1,0.4-0.1,0.3-0.1,0.7c-2.6,0.2-10.4,1.4-11.7,1.6c-2.7,0.4-5.5,0.9-8.1,1.7
						c-0.4,0.1-0.6-0.5-0.2-0.7c2.4-0.8,4.8-1.3,7.2-1.7c0.4-0.1,0.8-0.1,1.2-0.2c1.4-0.2,2.8-0.5,4.2-0.7
						C238.4,267.7,240.9,267.5,243.4,267.3z"/>
				</g>
				<g>
					<path class="st20" d="M230.5,297.5c5.7-0.8,11.3-1.7,16.9-2.9c3.1-0.7,6.1-1.6,9.2-2.6c7.5-2.4,15.1-4.8,22.4-7.8
						c1.6-0.6,3.1-1.3,4.6-2.1c0.9-0.5,1.7-1,2.2-1.8c0.3-0.5-0.5-0.9-0.7-0.4c0.1-0.2,0,0-0.1,0.1c-0.2,0.1-0.3,0.2-0.5,0.4
						c-0.4,0.3-0.8,0.5-1.2,0.8c-1.2,0.7-2.5,1.3-3.8,1.8c-3.7,1.6-7.4,2.9-11.2,4.2c-3.7,1.3-7.3,2.5-11,3.7
						c-2.7,0.9-5.5,1.8-8.3,2.5c-6.1,1.5-12.4,2.5-18.6,3.4C229.6,296.7,229.9,297.6,230.5,297.5L230.5,297.5z"/>
				</g>
				<g>
					<path class="st20" d="M293,238.1c-0.1,0.9-0.3,1.8-0.4,2.7c-0.1,1.3-0.1,2.5-0.2,3.8c-0.1,1.6-0.6,3.2-0.9,4.7
						c-0.4,1.7-0.6,3.4-1,5.1c-1.3,6.6-2.5,13.2-3.9,19.7c-0.3,1.3-0.6,2.6-0.9,3.8c-0.2,0.8-0.4,1.6-0.5,2.4c0,0.3,0.5,0.6,0.7,0.3
						c1.1-1.4,1.3-3.5,1.7-5.2c0.7-3,1.3-6,1.8-9c1.3-6.9,2.3-13.8,3.2-20.7c0.2-1.5,0.8-2.9,1-4.5c0.1-1,0.2-2.1,0.2-3.1
						C294,237.4,293.1,237.5,293,238.1L293,238.1z"/>
				</g>
				<g>
					<path class="st33" d="M235.8,231.7c-1.8,7.1-2.4,14.5-2.9,21.8c-0.2,3.7-0.4,7.4-0.7,11c-0.1,1.6-0.2,3.2-0.3,4.8
						c0.4-0.2,0.8-0.4,1.2-0.5c0,0,0.1,0,0.1,0c0.1-1.3,0.1-2.6,0.2-3.8c0.2-3.7,0.3-7.4,0.5-11c0.4-7.4,1.1-14.7,2.5-22
						C236.6,231.4,235.9,231.3,235.8,231.7z"/>
				</g>
				<g>
					<path class="st33" d="M269.9,269.8c-1.2,0.7-1.4,2.5-1.5,3.7c-0.2,1.5-0.1,3,0,4.5c0.1,1.6,0.3,3.3,0.7,4.9
						c0.2,0.9,0.5,1.7,0.8,2.5c0.2,0.5,0.6,1.4,1.2,1.5c0.2,0,0.4,0,0.4-0.2c0.1-0.5-0.3-1.3-0.5-1.8c-0.3-0.7-0.5-1.4-0.7-2.2
						c-0.4-1.5-0.6-3-0.8-4.6c-0.1-1.3-0.1-2.6-0.1-3.9c0.1-1.5,0.4-2.7,0.9-4C270.5,269.9,270.1,269.7,269.9,269.8L269.9,269.8z"/>
				</g>
				<g>
					<path class="st20" d="M303,299.1c0,0.2-0.1,0.3-0.2,0.4c0,0,0,0-0.1,0.1c-0.6,0.4-1.4,0.7-2.2,1c-0.3,0.1-0.7,0.2-1,0.3
						c-1.1,0.4-2.2,0.8-3.4,1.1c-2.2,0.7-4.5,1.2-6.7,1.6c-2.2,0.3-4.5,0.5-6.7,0.3c-0.1,0-0.2,0-0.3,0c-1.2-0.1-2.4-0.2-3.7-0.3
						c-1.2-0.1-2.4-0.1-3.6-0.2h0c-0.3,0-0.4-0.5-0.1-0.6c0,0,0,0,0.1,0c0.1,0,0.1,0,0.2,0c2.2-0.5,4.6-0.1,6.8,0c0.4,0,0.7,0,1.1,0
						c2.1,0.1,4.1-0.1,6.2-0.4c2.3-0.4,4.7-0.9,6.9-1.6c1.1-0.3,2.1-0.7,3.2-1.1c1-0.4,1.9-0.9,2.9-1c0.1,0,0.1,0,0.2,0
						c0.1,0,0.1,0,0.2,0C302.9,298.7,303,298.9,303,299.1z"/>
				</g>
				<g>
					<path class="st12" d="M276.4,207.2c0.9,1.2,2,2.2,2.9,3.4c1,1.3,1.6,2.8,2.2,4.3c1.3,3.1,2.1,6.7,2.4,10.1
						c0.3,3.4,0.4,6.9,0.4,10.4c0,3.4-0.1,6.8-0.5,10.2c-0.5,3.8-1.6,9.9-2.1,13c-0.1,0.5,1.2,0.5,1.5,0c0.5-1,1.1-4.3,1.4-5.8
						c0.3-1.9,0.7-3.7,1-5.6c0.5-3.6,0.7-7.2,0.6-10.8c0-3.6-0.1-7.2-0.4-10.8c-0.3-3.5-1-7.2-2.3-10.4c-0.7-1.7-1.6-3.4-2.6-4.8
						c-1-1.4-2.3-2.5-3.4-3.8C276.8,205.7,276,206.6,276.4,207.2L276.4,207.2z"/>
				</g>
				<path class="st34" d="M284.4,256.8c-0.2-0.2-0.5-0.4-0.7-0.6c-0.2-0.1-0.3-0.2-0.5-0.3h0c-0.4-0.2-0.7-0.3-1.1-0.3h0
					c-0.1,0-0.2,0-0.3,0h0c-0.1,0-0.3,0-0.4,0c-1.6,0.1-3.2,1-3.8,2.5c-0.7,1.6-0.3,3.7,1,4.9c0,0,0.1,0.1,0.1,0.1
					c0.4,0.3,0.8,0.6,1.2,0.7h0c1.1,0.4,2.4,0.4,3.4-0.2c1.1-0.6,2-1.7,2.3-2.9C286,259.3,285.4,257.8,284.4,256.8z"/>
				<g>
					<path class="st12" d="M240.4,262.3L240.4,262.3L240.4,262.3C240.4,262.3,240.4,262.4,240.4,262.3
						C240.4,262.3,240.4,262.3,240.4,262.3C240.4,262.3,240.4,262.3,240.4,262.3C240.4,262.3,240.4,262.3,240.4,262.3
						C240.4,262.3,240.4,262.3,240.4,262.3C240.4,262.3,240.4,262.3,240.4,262.3C240.4,262.3,240.5,262.3,240.4,262.3
						C240.4,262.3,240.4,262.3,240.4,262.3z"/>
					<path class="st12" d="M239.1,264.8C239.1,264.8,239.1,264.8,239.1,264.8C239.1,264.8,239.1,264.8,239.1,264.8
						C239,264.7,239,264.8,239.1,264.8z"/>
					<polygon class="st12" points="240.4,266.1 240.4,266.1 240.4,266.1 240.4,266.1 					"/>
					<path class="st12" d="M240.4,266C240.4,266,240.4,266,240.4,266C240.4,266.1,240.4,266,240.4,266z"/>
					<polygon class="st12" points="240.4,262.3 240.4,262.3 240.4,262.3 					"/>
					<path class="st12" d="M240.2,262.4C240.2,262.4,240.2,262.4,240.2,262.4C240.2,262.4,240.2,262.4,240.2,262.4
						C240.2,262.4,240.2,262.4,240.2,262.4C240.2,262.5,240.2,262.4,240.2,262.4z"/>
					<path class="st12" d="M240.4,266C240.4,266,240.4,266,240.4,266C240.4,266,240.4,266,240.4,266C240.4,266,240.4,266,240.4,266
						C240.4,266,240.4,266,240.4,266z"/>
					<path class="st12" d="M240.1,262.5C240.1,262.5,240.1,262.5,240.1,262.5C240.1,262.5,240.1,262.5,240.1,262.5
						C240.1,262.5,240.1,262.5,240.1,262.5C240.1,262.5,240.2,262.5,240.1,262.5z"/>
					<path class="st12" d="M240,263C240,263,240,263,240,263C240,263,240,263,240,263C240,263,240,263,240,263z"/>
				</g>
				<g>
					<path class="st12" d="M257.2,209c-4.6,1.6-7.8,5.6-10,9.8c-1.1,2.2-2,4.5-2.7,6.9c-0.3,1.1-0.6,2.2-0.9,3.3
						c-0.2,0.8-0.6,2.1-0.6,3.2c0,0,0,0,0,0c0,0,0,0,0.1,0c0.3-0.2,0.7-0.3,1.1-0.3c0,0,0,0,0,0c0-0.1,0-0.2,0-0.3
						c0.1-0.7,0.3-1.5,0.5-2.2c0.2-1.1,0.5-2.1,0.8-3.1c0.7-2.2,1.5-4.3,2.5-6.4c2-4.1,5-7.9,9.4-9.7
						C258,209.7,257.8,208.8,257.2,209z"/>
				</g>
				<g>
					<path class="st32" d="M249.7,182.6c0,0-1.6-2.9-3.4-2c-1.9,0.9-0.8,7.1,1.8,8.4c2.6,1.3,4.3-0.2,4.3-0.2L249.7,182.6z"/>
					<path class="st32" d="M255.9,201c0,0,0.7,11.1,0.2,12.6c-0.5,1.5-3.7,3.2-2.5,5.5c1.2,2.3,9.5,2.7,17.5,0.7
						c8-2,8.3-3.7,8.3-7.5c0-3.8-0.8-20.1-0.8-20.1S257.6,197.4,255.9,201z"/>
					<path class="st32" d="M248.7,171.8c0,0-0.2,23.7,4.9,30.3c3.9,5.1,12.1,6.1,17.6,2.3c5.5-3.8,8.3-8.4,10.1-12.6
						c1.8-4.2,2.6-16.4,2.3-21.4c-0.2-5-0.1-14.1-8-15.6C267.7,153.2,249.9,165.9,248.7,171.8z"/>
					<path class="st32" d="M281.5,181c0,0,4.5-4,6.4-1.3c1.9,2.7-0.1,7.5-3.4,8.9c-2.3,0.9-5-1.3-5-1.3L281.5,181z"/>
					<path class="st12" d="M248.1,180.7l1.2,2.2c0,0-1.5-9.2,3.5-13.1c5-3.9,11-3.6,16.4-5.6c4.7-1.7,7.4-3.9,7.4-3.9
						s0.1,5.5,1.4,11.3c1.3,5.8,3.7,8.8,4.3,9.3c0.7,0.6,4.7-8.6,5.7-12.8c1.2-4.7,2.4-10.3-1.9-12.2c-4.4-1.9-7.9-1-7.9-1
						s-3.5-10.3-16.1-6.9c-11,2.9-10.3,8.7-12.4,9.6c-2.1,1-6.5,3.3-5.8,10.1C244.9,174.5,248.1,180.7,248.1,180.7z"/>
					<path class="st12" d="M257.3,177.6c-0.4-0.7-1-1.2-1.9-1.1c-0.8,0.1-1.5,0.8-1.7,1.5c-0.3,1.2,0,2.8,1.4,3.2
						c1.2,0.3,2.1-0.4,2.4-1.4C257.8,179.2,257.7,178.3,257.3,177.6z"/>
					<path class="st12" d="M274.1,177.2c-0.4-0.8-1.1-1.3-2.1-1.2c-0.9,0.1-1.6,0.8-1.8,1.6c-0.3,1.3-0.1,3.1,1.6,3.5
						c1.3,0.3,2.3-0.5,2.6-1.5C274.6,179,274.5,178,274.1,177.2z"/>
					<path class="st12" d="M259.4,173.2c-0.6-0.4-2.1-0.5-2.8-0.4c-0.8,0-1.6,0.2-2.3,0.5c-0.7,0.3-1.9,1.1-2.1,1.9
						c-0.1,0.7,0.2,0.5,0.7,0.4c0.7-0.2,1.3-0.4,2-0.4c1.3,0,2.6,0.1,3.8-0.1C260,174.8,260.2,173.8,259.4,173.2z"/>
					<path class="st12" d="M268.4,172.7c0.6-0.5,2-0.6,2.8-0.6c0.8,0,1.6,0.1,2.3,0.4c0.7,0.2,1.9,1,2.1,1.8
						c0.2,0.6-0.2,0.5-0.6,0.4c-0.7-0.2-1.3-0.3-2.1-0.3c-1.3,0-2.6,0.2-3.8,0.1C267.9,174.4,267.6,173.4,268.4,172.7z"/>
					<g>
						<path class="st9" d="M277.2,187.4c0.2-0.2,0.5-0.4,0.7-0.6c0.3-0.3,0.5-0.6,0.8-1c0.5-0.7,1-1.4,1.5-2c1-1.4,2.1-2.7,3.4-3.8
							c0.3-0.2,0.6-0.4,0.9-0.6c0.3-0.2,0.8-0.4,0.7-0.8c-0.2-0.9-1.5,0-1.9,0.3c-1.4,1-2.5,2.3-3.6,3.6c-0.6,0.8-1.2,1.6-1.8,2.4
							c-0.3,0.4-0.5,0.7-0.8,1.1c-0.2,0.3-0.3,0.7-0.5,1C276.4,187.4,276.9,187.7,277.2,187.4L277.2,187.4z"/>
					</g>
					<path class="st9" d="M249.6,186.5c0,0,5.3-4.8,13.1-5.1c7.7-0.2,15.2,4.1,15.4,4.5c0.2,0.4,0.9,11.6,0.6,12.2
						c-0.3,0.6-6.6,9-16,8.9C248.9,206.9,249.6,186.5,249.6,186.5z"/>
					<path class="st9" d="M249.9,184.7c-0.2-0.5-0.5-1.1-0.6-1.7c0-0.1-0.1-0.3-0.1-0.4l-1.1-2c0,0-0.2-0.5-0.6-1.3
						c-0.1,0.1-0.1,0.2-0.1,0.4c0.2,1.3,0.4,2.5,0.8,3.7c0.2,0.6,0.4,1.1,0.7,1.7c0.3,0.6,0.5,1.2,1,1.5c0.4,0.3,0.7-0.2,0.7-0.5
						C250.5,185.8,250.2,185.2,249.9,184.7z"/>
					<path class="st9" d="M282.5,188.7c-0.4,1.4-1.1,2.7-1.8,4c-0.5,0.9-1,1.8-1.5,2.6c-0.6,0.8-1.2,1.6-1.8,2.4
						c-0.3,0.4,0.2,0.7,0.6,0.6c0.9-0.4,1.6-1.4,2.1-2.2c0.6-0.9,1.1-1.9,1.6-2.9c0.4-0.9,0.9-1.8,1.3-2.7c0.2-0.5,0.5-1.1,0.6-1.6
						C283.2,188.8,282.9,188.8,282.5,188.7z"/>
					<g>
						<path class="st10" d="M278.4,189c-1.2,0-2.4-0.3-3.6-0.5c-0.6-0.1-1.2-0.2-1.8-0.2c-0.5,0-1.2-0.1-1.7,0.2
							c-0.2,0.1-0.2,0.3,0,0.4c0.5,0.3,1.2,0.3,1.7,0.4c0.6,0.1,1.2,0.2,1.8,0.3c1.2,0.1,2.4,0.2,3.6,0.2
							C278.9,189.8,278.9,189,278.4,189L278.4,189z"/>
					</g>
					<g>
						<path class="st10" d="M278.3,192.9c-0.2,0.3-0.4,0.6-0.7,0.9c-0.3,0.3-0.5,0.6-0.8,0.9c-0.3,0.3-0.5,0.5-0.8,0.8
							c-0.1,0.2-0.3,0.3-0.4,0.5c-0.1,0.1-0.2,0.3-0.3,0.4c-0.2,0.2,0,0.6,0.3,0.5c0.2-0.1,0.4-0.2,0.5-0.2c0.1,0,0.2-0.1,0.3-0.1
							c0.1-0.1,0.2-0.1,0.2-0.2c0.4-0.3,0.7-0.6,0.9-0.9c0.3-0.3,0.5-0.7,0.7-1c0.2-0.4,0.4-0.7,0.6-1.1
							C279.1,192.8,278.5,192.5,278.3,192.9L278.3,192.9z"/>
					</g>
					<g>
						<path class="st10" d="M250.2,192.5c0.3-0.2,0.6-0.4,0.8-0.6c0.2-0.1,0.3-0.2,0.5-0.4c0.1-0.1,0.1-0.1,0.2-0.2
							c0.1-0.1,0.1-0.2,0.2-0.3c0-0.2,0-0.3-0.2-0.4c-0.1,0-0.2-0.1-0.4,0c-0.1,0-0.2,0.1-0.3,0.1c-0.2,0.1-0.3,0.2-0.4,0.3
							c-0.3,0.2-0.5,0.4-0.8,0.6c-0.2,0.1-0.3,0.5-0.2,0.7C249.7,192.5,250,192.6,250.2,192.5L250.2,192.5z"/>
					</g>
					<g>
						<path class="st10" d="M250.7,198.1c0.3,0.1,0.6,0.2,0.9,0.3c0.1,0,0.3,0.1,0.4,0.1c0.1,0,0.2,0,0.3,0c0.1,0,0.1,0,0.2,0
							c0.2,0,0.3-0.2,0.1-0.3c-0.1,0-0.1-0.1-0.2-0.1c-0.1-0.1-0.1-0.1-0.2-0.1c-0.2-0.1-0.3-0.1-0.5-0.2c-0.1,0-0.3-0.1-0.4-0.1
							c-0.1,0-0.1,0-0.2-0.1c0,0,0,0-0.1,0c0,0,0,0,0,0c0,0-0.1,0-0.1-0.1c-0.2-0.1-0.4,0-0.5,0.1
							C250.5,197.8,250.5,198,250.7,198.1L250.7,198.1z"/>
					</g>
				</g>
				<g>
					<g>
						<path class="st34" d="M244.7,230.6C244.7,230.6,244.7,230.5,244.7,230.6C244.7,230.5,244.7,230.5,244.7,230.6
							C244.7,230.6,244.7,230.6,244.7,230.6z"/>
						<path class="st34" d="M244.2,229.8C244.1,229.8,244.1,229.8,244.2,229.8C244.1,229.8,244.1,229.8,244.2,229.8
							C244.1,229.8,244.2,229.8,244.2,229.8z"/>
						<path class="st34" d="M254.7,250c0.1-2.9,0.1-5.8-0.3-8.7c0-0.2-0.1-0.4-0.1-0.5c-0.5-2.9-1.7-5.6-3.9-7.6
							c-0.9-0.8-1.9-1.4-3.1-1.7c0,0-0.1,0-0.1,0c-0.4-0.1-0.8-0.2-1.2-0.3c0,0,0,0,0,0v0c0-0.1,0-0.3,0-0.4c0,0,0,0,0-0.1
							c0,0,0,0,0-0.1c-0.1-0.6-0.3-1.1-0.8-1.5c0,0,0,0,0,0c-0.1-0.1-0.2-0.1-0.3-0.2c-0.4-0.1-0.8-0.2-1.2-0.1h0
							c-0.1,0-0.3,0.1-0.4,0.1c-0.6,0.2-1.2,0.6-1.5,1.2c-0.1,0.2-0.2,0.3-0.2,0.5c0,0,0,0.1,0,0.1c0,0.1-0.1,0.3-0.1,0.4
							c-0.1,0-0.2,0-0.4,0.1h0c0,0-0.1,0-0.1,0c0,0-0.1,0-0.1,0c-0.2,0.1-0.4,0.1-0.7,0.2c0,0-0.1,0-0.1,0c-0.2,0.1-0.4,0.1-0.6,0.2
							c-1.3,0.5-2.4,1.3-3.4,2.2c-0.1,0.1-0.1,0.1-0.2,0.2c-0.3,0.3-0.6,0.7-0.9,1.1v0l0,0c-0.5,0.7-1,1.4-1.4,2.1
							c-0.5,0.9-0.9,1.8-1.2,2.8c-0.9,2.4-1.4,5.1-1.7,7.5c-0.1,0.9-0.2,1.8-0.3,2.6c-0.2,2.3-0.3,4.6-0.3,6.9c0,2.1,0.2,4.3,1,6.2
							c0.3,0.7,0.6,1.3,1.1,1.8l0,0c0.3,0.4,0.7,0.6,1.2,0.8c0.2,0.1,0.5,0.2,0.8,0.2c0.1,0,0.2,0,0.3,0h0c1.1,0.1,2.1-0.3,3.2-0.4
							c0.5-0.1,1-0.1,1.4-0.1c0.6,0,0.6-0.9,0-0.9c-0.5,0-1,0-1.5,0h0c-0.8,0.1-1.5,0.2-2.3,0.3c-0.3,0-0.5,0-0.7,0
							c-0.5-0.1-0.9-0.2-1.2-0.4c-0.5-0.4-0.8-1-1-1.8c0-0.1,0-0.1-0.1-0.2v0c0,0,0,0,0,0v0c-0.8-3.3-0.5-6.9-0.3-10.2
							c0.1-1.7,0.3-3.3,0.6-5c0.3-1.4,0.6-2.9,1.1-4.3c0,0,0,0,0,0c0.1-0.5,0.3-0.9,0.5-1.4c0.3-0.7,0.5-1.4,0.9-2.1l0,0
							c0,0,0,0,0,0c0-0.1,0.1-0.2,0.2-0.3c0,0,0,0,0,0v0l0,0c0.3-0.5,0.5-1,0.8-1.5c0.7-1.2,1.6-2.3,2.8-3.2c0,0,0.1,0,0.1-0.1
							c0.3-0.2,0.7-0.5,1.1-0.7c0.5-0.3,1-0.5,1.6-0.6c0.2-0.1,0.4-0.1,0.6-0.2c0.7-0.2,1.5-0.2,2.2-0.2h0c0.8,0,1.5,0.2,2.3,0.5
							c0.2,0.1,0.4,0.1,0.6,0.2c0.4,0.2,0.9,0.4,1.3,0.6c1.2,0.7,2,1.7,2.7,2.8c0.6,1.1,1,2.3,1.2,3.6c0.3,1.4,0.3,2.8,0.4,4.2
							c0,1.3,0,2.6,0.1,3.9c0.1,2,0.2,4,0.1,5.9c-0.1,2.6,0,5.2-0.7,7.7c-0.2,0.6-0.4,1.8-1.1,2.1c-0.4,0.2-1.2,0.1-1.6,0.1
							c-0.4,0-0.8,0-1.2,0c-0.2,0-0.3,0-0.5,0h-0.4c-1,0-0.9,1.4,0,1.5c0.1,0,0.3,0,0.4,0c0.1,0,0.2,0,0.3,0h0
							c1.9,0.2,4.1,0.3,5.1-1.7c1.1-2.2,1.1-5,1.3-7.5c0.1-1.3,0-2.5-0.1-3.8c0-0.6,0-1.2,0-1.8C254.7,250.8,254.7,250.4,254.7,250z
							"/>
					</g>
					<g>
						<path class="st12" d="M246,231c-0.5-0.1-1-0.1-1.5-0.1c-0.7,0-1.3,0-1.9,0c-0.5,0-1,0.1-1.5,0.2c0.1,0,0.2,0,0.4-0.1
							c0-0.2,0-0.3,0.1-0.5c0.3,0,0.6-0.1,0.9-0.1c0.6-0.1,1.3-0.1,1.9-0.1c0.5,0,1,0,1.6,0.1c0,0,0,0,0,0c0,0,0,0.1,0,0.1
							C246,230.7,246,230.9,246,231z"/>
					</g>
					<path class="st12" d="M237.9,267c0,0.1,0.1,0.2,0.1,0.3c0.3,0.5,0.7,1,1.3,1.1c0.5,0.1,0.9-0.3,1.3-0.7
						c0.1-0.2,0.2-0.3,0.2-0.5c0.5-1,0.8-2.9,0.2-4c-0.3-0.5-0.8-0.7-1.3-0.9c-0.4-0.1-0.8-0.1-1.1,0.1c-0.9,0.5-0.9,1.8-0.9,2.7
						C237.7,265.8,237.8,266.4,237.9,267z"/>
					<path class="st12" d="M245.1,266.8c0,0.1,0.1,0.2,0.1,0.3c0.3,0.5,0.7,1,1.3,1.1c0.5,0.1,0.9-0.3,1.3-0.7
						c0.1-0.2,0.2-0.3,0.2-0.5c0.5-1,0.8-2.9,0.2-4c-0.3-0.5-0.8-0.7-1.3-0.9c-0.4-0.1-0.8-0.1-1.1,0.1c-0.9,0.5-0.9,1.8-0.9,2.7
						C244.9,265.6,244.9,266.2,245.1,266.8z"/>
				</g>
				<g>
					<path class="st12" d="M280.5,257.7c-0.4,0.2-0.7,0.4-1,0.8c-0.2,0.3-0.3,0.7-0.3,1.1c0,0.8,0.4,1.5,1,2
						c0.2,0.1,0.3,0.3,0.5,0.4c0.2,0.1,0.5,0.2,0.7,0.2c0.4,0,0.8,0,1.2-0.2c0.8-0.4,1.3-1.3,1.3-2.1c0-0.5-0.1-1.1-0.4-1.5
						c-0.2-0.4-0.7-0.9-1.2-0.8c-0.1,0-0.1,0.1-0.1,0.2c0.1,0.2,0.3,0.2,0.4,0.4c0.2,0.1,0.3,0.3,0.4,0.4c0.2,0.3,0.4,0.7,0.4,1.1
						c0.1,0.7-0.3,1.5-0.9,1.8c-0.3,0.2-0.6,0.3-0.9,0.3c-0.3,0-0.7-0.1-1-0.3c-0.6-0.3-0.9-0.9-1-1.5c-0.1-0.8,0.4-1.5,1-1.9
						C280.8,257.9,280.7,257.6,280.5,257.7L280.5,257.7z"/>
				</g>
			</g>
			<g>
				<path class="st6" d="M216.6,263.3c0,0,5.1,10.7,6.3,18.8c1.2,8.1,1.2,19.5-11.4,22.9c-12.6,3.4-20.5-2.5-20.5-2.5l1.4-36.8
					L216.6,263.3z"/>
				<g>
					<path class="st11" d="M169.8,164.1c0,0,7.9-4.7,13.7-0.6c5.8,4.2,2.7,11.9,6.7,18.1c4,6.2,12.8,15.4,8.9,27.4
						c-3.8,12-22.3,15.2-35.2,17.4c-12.9,2.3-26.8-0.9-33.4-10.3c-6.6-9.4-5.1-24.2,3.3-32.3c8.4-8.1,9-14.6,13.9-19.8
						c5.8-6.1,14-5.7,17.5-3.5C168.5,162.4,169.8,164.1,169.8,164.1z"/>
					<path class="st31" d="M177.6,218.4c0,0,16.6,4.7,24.3,11.6c7.7,6.9,19.1,40.1,19.1,40.1s-8.9,2-13.5,4.7
						c-4.5,2.7-6.1,3.7-6.1,3.7L177.6,218.4z"/>
					<path class="st35" d="M208.4,270.1c-3.1,1-6.1,2.3-8.6,4.3l1.7,4.2c0,0,1.6-1,6.1-3.7c4.5-2.7,13.5-4.7,13.5-4.7
						s-0.4-1.3-1.2-3.3C216,267.6,212.2,268.9,208.4,270.1z"/>
					<path class="st31" d="M208.4,332.8c-9.4-0.4-18.6-1.8-27.3-4.2c-10.5-2.8-20.5-7-29.7-12.4c-0.9-0.5-1.8-1.1-2.7-1.6
						c0,0,0,0,0,0c-0.8-0.5-1.6-1-2.4-1.5c0,0,0,0,0,0c-5-3.2-9.8-6.9-14.3-10.8h0c-1.5-5.5-2.7-11.1-3.7-16.3
						c-0.5-2.5-0.9-4.8-1.2-7v0c-0.1-1-0.3-1.9-0.4-2.9c-0.5-3.6-0.9-6.5-1.2-8.6c-1.7-13.2-0.2-31.6-0.2-31.6s1.5-2.1,4-4.7
						c0,0,0,0,0,0c2.2-2.3,5.2-4.9,8.5-6.6c0.6-0.3,1.3-0.6,1.9-1c1.7-0.8,3.5-1.6,5.2-2.3v0c0.3-0.1,0.6-0.3,1-0.4
						c0.1,0,0.2-0.1,0.3-0.1c0.5-0.2,0.9-0.3,1.4-0.5c0.2-0.1,0.5-0.2,0.7-0.2c0.8-0.3,1.5-0.5,2.2-0.8c0.5-0.2,1-0.3,1.5-0.5
						c0.3-0.1,0.6-0.2,0.8-0.2c0,0,0.1,0,0.1,0c0,0,0.1,0,0.1,0c0.1,0,0.1,0,0.2-0.1c0.1,0,0.3-0.1,0.4-0.1c0.1,0,0.2-0.1,0.3-0.1
						c0.2-0.1,0.5-0.1,0.7-0.2c0.2-0.1,0.4-0.1,0.6-0.2c0.2-0.1,0.4-0.1,0.6-0.1c0.2,0,0.4-0.1,0.5-0.1c0.1,0,0.2,0,0.3-0.1
						c0,0,0.1,0,0.1,0c0.1,0,0.1,0,0.2,0c0.2,0,0.5-0.1,0.8-0.1c0.4-0.1,0.8-0.1,1.3-0.2c0.2,0,0.5-0.1,0.7-0.1
						c1-0.1,2.1-0.3,3.4-0.3c0.2,0,0.5,0,0.7,0c0.3,0,0.5,0,0.8,0c0.6,0,1.3,0,2,0c0.3,0,0.6,0,0.9,0c0.3,0,0.5,0,0.8,0
						c0.4,0,0.7,0,1.1,0.1c0.1,0,0.1,0,0.2,0c0.2,0,0.5,0,0.7,0.1c0.4,0,0.8,0.1,1.2,0.1c0.3,0,0.7,0.1,1,0.1c0.2,0,0.4,0.1,0.6,0.1
						c0.1,0,0.3,0,0.4,0.1c0.6,0.1,1.2,0.2,1.8,0.4h0c0.2,0.1,0.4,0.1,0.7,0.2c0.2,0.1,0.5,0.1,0.7,0.2c0.2,0.1,0.4,0.1,0.7,0.2
						c0.2,0.1,0.5,0.1,0.7,0.2c0.1,0,0.1,0.1,0.2,0.1c0.1,0,0.1,0,0.2,0.1c0,0,0,0,0.1,0l0,0c0,0,0,0,0,0c0,0,0,0,0,0s0,0,0,0
						c0.5,0.2,1.1,0.6,1.7,1c0.8,0.6,1.7,1.4,2.6,2.3c0.8,0.9,1.7,1.9,2.6,3.1c0.3,0.3,0.5,0.7,0.8,1c0.5,0.7,1.1,1.5,1.6,2.3
						c1.9,2.8,3.9,6,5.7,9.3v0c0.3,0.5,0.5,1,0.8,1.4c0,0,0,0,0,0c0.2,0.3,0.4,0.7,0.6,1c0.8,1.5,1.6,3,2.3,4.4
						c0.5,1.1,1,2.1,1.5,3.1c1.9,4.2,3.4,7.9,4.2,10.5c0.5,1.6,0.8,3.7,1.2,6.3c0.3,2.1,0.5,4.4,0.7,7c0.1,1.6,0.3,3.2,0.4,4.9v0
						c0.1,1.1,0.2,2.2,0.2,3.4v0c0,0.3,0,0.6,0.1,1v0c0,0.4,0,0.7,0.1,1.1c0,0,0,0,0,0c0.4,7.9,0.7,16.5,0.9,24v0c0,0.1,0,0.3,0,0.4
						c0.3,9.6,0.6,17.4,1,19.7C207.8,328,208.1,330.4,208.4,332.8z"/>
					<g>
						<path class="st36" d="M194.3,236.4c-1.6,1.9-0.8,5-0.1,7.1c0.4,1.4,0.9,2.7,1.4,4.1c0.2,0.6,0.4,1.1,0.7,1.7
							c0.2,0.4,0.3,0.9,0.7,1.2c0.1,0.1,0.3,0,0.3-0.1c0.1-0.4-0.1-0.8-0.2-1.2c-0.2-0.5-0.4-1-0.6-1.5c-0.5-1.2-0.9-2.5-1.3-3.8
							c-0.3-1.3-0.6-2.6-0.7-3.9c-0.1-1,0-2.1,0.5-3.1C195,236.5,194.6,236.1,194.3,236.4L194.3,236.4z"/>
					</g>
					<path class="st35" d="M188.1,222.2c-2,4.8-10.2,20.1-14.7,19.8c-5-0.3-27.9-18.1-28.5-20.6c5.1-2,9.9-3.4,12-3.7
						c3.1-0.5,11.9-2,21.1,0.9c0.1,0,0.1,0.1,0.2,0.1C179.8,219.1,183.7,220.3,188.1,222.2z"/>
					<path class="st6" d="M182.1,221.9c-0.1,0.7-0.3,1.4-0.6,2.2c-1.2,3.1-7,12.5-8,13c-0.9,0.4-0.5,0.3-5.9-2.9
						c-4.5-2.7-13.4-10.4-16.4-13c1.9-1.5,2-3,2.3-5.8c0.3-3.2,0.3-11.8,0.3-11.8l21.6,3.4c0,0-1,8,0.1,11.5
						C176.4,221,179.9,221.5,182.1,221.9z"/>
					<path class="st6" d="M147.6,178.9c0,0,0.2,21.7,6.7,27c6.4,5.3,18.5,6.1,24.6-0.3c6.1-6.4,4.3-21.9,3.1-26.7
						c-1.2-4.7-3.7-7.2-7.3-9.8c-3.7-2.7-9.9-4.1-9.9-4.1S148.8,175.6,147.6,178.9z"/>
					<path class="st6" d="M149.8,190.1c0,0-2.4-4.9-5.3-2.7c-2.9,2.1-1.8,7.1,2,8c3.8,0.9,5.3-0.2,5.3-0.2L149.8,190.1z"/>
					<path class="st11" d="M149,190.3c0,0,1.1-4.3,3.6-8.5c2.9-5,6.5-6.1,11-8.4c5.5-2.8,7.1-6,7.9-7.7c0.8-1.7-6-3.2-11-2.8
						c-5,0.3-16.3,6.6-17.5,15.6C142.4,183.3,149,190.3,149,190.3z"/>
					<path class="st12" d="M163,183.3c-0.4-0.8-1.1-1.3-2.1-1.2c-0.9,0.1-1.6,0.8-1.8,1.7c-0.3,1.3-0.1,3.2,1.6,3.5
						c1.3,0.3,2.3-0.5,2.7-1.6C163.6,185.1,163.5,184.1,163,183.3z"/>
					<path class="st12" d="M179,183.3c-0.4-0.7-1-1.2-1.9-1.1c-0.8,0.1-1.5,0.8-1.7,1.5c-0.3,1.2,0,2.9,1.4,3.3
						c1.2,0.3,2.1-0.4,2.4-1.5C179.5,184.9,179.4,184,179,183.3z"/>
					<g>
						<path class="st11" d="M158.3,180.8c0,0,0.1-0.1,0.1-0.1c0.1-0.1,0,0,0,0c0.1-0.1,0.1-0.1,0.2-0.2c0.1-0.1,0.2-0.1,0.2-0.2
							c0,0,0.1-0.1,0,0c0,0,0.1,0,0.2-0.1c0.4-0.1,0.8-0.3,1.2-0.4c0.1,0,0.2,0,0.3-0.1c0,0,0.2,0,0.1,0c-0.1,0,0,0,0.1,0
							c0.1,0,0.2,0,0.3,0c0,0,0.2,0,0.1,0c-0.1,0,0,0,0.1,0c0.1,0,0.1,0,0.2,0c0.2,0,0.4,0,0.6,0c0.1,0,0.2,0,0.2,0c0,0-0.2,0-0.1,0
							c0.1,0,0.2,0,0.4,0c0.1,0,0.3-0.2,0.3-0.3c0-0.1,0-0.3-0.1-0.4c0,0-0.1-0.2-0.1-0.1c0,0,0,0,0,0c0-0.1-0.1-0.1-0.2-0.2
							c-0.2-0.2-0.5-0.3-0.7-0.3c-0.6-0.1-1.1-0.1-1.7,0.1c-0.3,0.1-0.6,0.2-0.8,0.3c-0.2,0.1-0.5,0.3-0.7,0.5c0,0-0.1,0.1-0.1,0.1
							c-0.1,0.1,0.1,0-0.1,0c-0.1,0.1-0.2,0.2-0.3,0.3c-0.2,0.2-0.3,0.3-0.5,0.5c-0.2,0.2-0.1,0.5,0.1,0.7
							C157.9,181,158.1,181,158.3,180.8L158.3,180.8z"/>
					</g>
					<g>
						<path class="st11" d="M179.4,180.9c0,0-0.1-0.1-0.1-0.1c-0.1-0.1,0,0,0,0c-0.1-0.1-0.1-0.1-0.2-0.2c-0.1-0.1-0.2-0.1-0.2-0.2
							c0,0-0.1-0.1,0,0c0,0-0.1,0-0.2-0.1c-0.4-0.1-0.8-0.3-1.2-0.4c-0.1,0-0.2,0-0.3-0.1c0,0-0.2,0-0.1,0c0.1,0,0,0-0.1,0
							c-0.1,0-0.2,0-0.3,0c0,0-0.2,0-0.1,0c0.1,0,0,0-0.1,0c-0.1,0-0.1,0-0.2,0c-0.2,0-0.4,0-0.6,0c-0.1,0-0.2,0-0.2,0
							c0,0,0.2,0,0.1,0c-0.1,0-0.2,0-0.4,0c-0.1,0-0.3-0.2-0.3-0.3c0-0.2,0-0.3,0.1-0.4c0,0,0.1-0.2,0.1-0.1c0,0,0,0,0,0
							c0-0.1,0.1-0.1,0.2-0.2c0.2-0.2,0.5-0.3,0.7-0.3c0.6-0.1,1.1-0.1,1.7,0.1c0.3,0.1,0.6,0.2,0.8,0.3c0.2,0.1,0.5,0.3,0.7,0.5
							c0,0,0.1,0.1,0.1,0.1c0.1,0.1-0.1,0,0.1,0c0.1,0.1,0.2,0.2,0.3,0.3c0.2,0.2,0.3,0.3,0.5,0.5c0.2,0.2,0.1,0.5-0.1,0.7
							C179.9,181.1,179.6,181.1,179.4,180.9L179.4,180.9z"/>
					</g>
					<path class="st21" d="M205.2,244.1c0,0-45.8,2.5-46.1,4.6c-0.3,2-2.2,59.4-0.5,59.7c1.7,0.3,43.1-1.5,44.8-3.1
						C205.1,303.8,206.9,244.8,205.2,244.1z"/>
					<path class="st9" d="M153.3,191c0,0,0.3,5.8,0,8.4s-1,4.7-1,4.7s3.9,7.1,15.6,6.9c11.3-0.2,13.6-6.9,14.7-11.4
						c1.1-4.5,0.9-7.1,0.9-7.1s-5.9-5.5-13-5.4C163.4,187.1,153.3,191,153.3,191z"/>
					<g>
						<path class="st9" d="M154.7,192.7c0.1-0.5-0.2-0.9-0.4-1.3c-0.2-0.4-0.5-0.8-0.7-1.2c-0.5-0.9-1.1-1.7-1.8-2.4
							c-0.7-0.7-1.5-1.3-2.4-1.8c-0.9-0.5-2-0.9-2.9-0.4c-0.3,0.2-0.3,0.7,0,0.9c-0.2-0.4-0.3-0.4-0.2-0.2c0,0.1,0.1,0.1,0.2,0.2
							c0.1,0.1,0.2,0.1,0.3,0.1c0.2,0.1,0.4,0.1,0.6,0.2c0.4,0.1,0.8,0.2,1.2,0.3c0.8,0.4,1.5,0.9,2.2,1.5c0.7,0.6,1.3,1.3,1.8,2.1
							c0.3,0.4,0.5,0.7,0.7,1.1c0.2,0.4,0.4,0.9,0.7,1.1C154.2,193.1,154.6,193,154.7,192.7L154.7,192.7z"/>
					</g>
					<path class="st9" d="M153.9,204.3c-0.4-0.8-1.1-1.4-1.7-2c-0.6-0.7-1.1-1.4-1.6-2.1c-0.5-0.7-0.9-1.5-1.2-2.2
						c-0.3-0.7-0.4-1.5-0.6-2.2c-0.3,0-0.6,0-0.9-0.1c-0.2,1.8,0.8,3.7,1.7,5.1c0.5,0.8,1.1,1.6,1.7,2.3c0.6,0.7,1.2,1.6,2,2
						C153.6,205.3,154.1,204.8,153.9,204.3z"/>
					<g>
						<path class="st10" d="M154.9,195.4c1.3-0.2,2.7-0.3,4.1-0.3c1.3,0,2.7,0.1,3.9-0.1c0.2,0,0.2-0.3,0-0.3
							c-0.7-0.2-1.4-0.2-2.1-0.2c-0.7,0-1.3-0.1-2-0.1c-1.4,0-2.8,0.1-4.1,0.3C154.2,194.7,154.4,195.5,154.9,195.4L154.9,195.4z"/>
					</g>
					<g>
						<path class="st10" d="M154.5,200.1c0.7,0.5,1.4,1.1,2.1,1.6c0.3,0.3,0.7,0.5,1.1,0.7c0.2,0.1,0.4,0.2,0.6,0.3
							c0.2,0.1,0.5,0.1,0.7,0.1c0.3,0,0.4-0.4,0.2-0.6c-0.2-0.1-0.3-0.2-0.5-0.3c-0.2-0.1-0.4-0.2-0.6-0.3c-0.4-0.2-0.7-0.4-1.1-0.7
							c-0.7-0.5-1.4-1-2.1-1.5C154.4,199.1,154,199.8,154.5,200.1L154.5,200.1z"/>
					</g>
					<g>
						<path class="st10" d="M182.8,196.9c-0.4-0.2-0.7-0.4-1.1-0.5c-0.2-0.1-0.4-0.1-0.6-0.2c-0.2-0.1-0.4-0.1-0.7-0.1
							c-0.2,0-0.5,0-0.7,0.2c-0.1,0.1-0.1,0.2-0.1,0.3c0,0.2,0.1,0.3,0.3,0.4c0.2,0.1,0.4,0.2,0.6,0.3c0.2,0,0.4,0.1,0.6,0.1
							c0.2,0,0.4,0.1,0.6,0.1c0.1,0,0.2,0.1,0.3,0.1c0.1,0,0.1,0,0.2,0.1c0,0,0,0,0.1,0c0,0,0.1,0,0,0c0.2,0.1,0.5,0.1,0.6-0.2
							C183.1,197.3,183,197.1,182.8,196.9L182.8,196.9z"/>
					</g>
					<g>
						<path class="st10" d="M181.1,201.9c-0.3,0.1-0.7,0.1-1,0.2c-0.2,0.1-0.4,0.1-0.5,0.2c-0.1,0-0.2,0.1-0.2,0.1
							c-0.1,0-0.1,0.1-0.2,0.2c-0.2,0.1,0,0.3,0.1,0.4c0.1,0,0.2,0.1,0.3,0.1c0.1,0,0.2,0,0.3,0c0.2,0,0.4,0,0.6-0.1
							c0.3-0.1,0.7-0.2,1-0.3c0.2-0.1,0.4-0.3,0.3-0.5C181.6,201.9,181.4,201.8,181.1,201.9L181.1,201.9z"/>
					</g>
				</g>
				<path class="st6" d="M204.7,302.8c0,0-0.3,0.1-0.8,0.4c0,0,0,0,0,0c-1,0.5-2.7,1.3-5.1,2.3h0c-0.2,0.1-0.4,0.2-0.5,0.2
					c0,0-0.1,0-0.1,0c-0.4,0.2-0.9,0.4-1.4,0.6c-0.5,0.2-1,0.4-1.5,0.6c-2.5,1-5.3,2-8.3,3c-2.1,0.7-4.2,1.3-6.3,1.8
					c-1.6,0.4-3.3,0.7-4.9,1c-2.2,0.4-4.5,0.7-6.7,1c0,0,0,0,0,0c-6.9,0.9-13.9,1.4-20.3,0.9c0,0,0,0,0,0c-0.5,0-1-0.1-1.5-0.2
					c-3.9-0.5-7.6-1.4-11-2.9c-0.6-0.3-1.1-0.6-1.6-0.9c-3.2-2.1-5.6-5.8-7.3-9.8c-0.6-1.3-1-2.6-1.5-3.9c-0.1-0.2-0.2-0.5-0.2-0.7
					c-0.8-2.5-1.4-4.9-1.8-6.9c-0.6-3.1-0.8-5.2-0.8-5.2c-0.2-0.9-0.2-1.7,0-2.6v0c0.4-2,1.8-3.8,3.7-5.4c6.8-5.6,20.3-8.1,20.7-5.4
					c0.1,0.6,0.2,1.3,0.4,2.2c0.2,1,0.5,2.3,0.8,3.5c0.8,3.1,1.7,6.6,2.3,8.9c0,0.1,0,0.1,0.1,0.2c0.4,1.4,0.6,2.3,0.6,2.3
					s0.3,0,0.8,0c1,0,3,0.1,5.5,0.1c0,0,0,0,0,0c5.9,0.2,15,0.5,22.9,0.8c2,0.1,4,0.2,5.8,0.3c1.8,0.1,3.4,0.2,4.8,0.4
					c2.2,0.2,3.8,0.4,4.6,0.7c3.9,1.2,6.8,7.8,8,10.9v0C204.5,302.1,204.7,302.8,204.7,302.8z"/>
				<path class="st6" d="M213.2,304.7c-6.6,2.9-13.4,1.6-16,0.9c0,0,0,0,0,0c-0.1,0-0.2-0.1-0.3-0.1c-0.1,0-0.2-0.1-0.3-0.1
					c-0.1,0-0.1,0-0.2-0.1c-0.1,0-0.2,0-0.2-0.1c0,0,0,0,0,0s0,0-0.1,0c-0.9-0.1-10.2-1.6-19.3-3.1c-9.1-1.5-18-3-18.4-3.4
					c-0.3-0.2-1.8-1.5-3.4-3.2c-0.8-0.8-1.6-1.7-2.3-2.7c-2-2.6-3.3-5.4-1.5-7.2c0,0,0,0,0,0c0.2-0.2,0.5-0.4,0.7-0.6
					c4.8-3.3,19.1-5.3,31.1-5.3c12.7,0,29.3,3.4,29.3,3.4s6.3,2.9,6.6,4.6C219.1,289.4,221.7,300.9,213.2,304.7z"/>
				<path class="st31" d="M129.7,231c0,0-6.2,3.9-10.9,17.9c-4.6,14-0.2,31.5,1.2,34.6c1.4,3.2,2.9,6.5,2.9,6.5s7.3-5.9,14.4-9.4
					c6.4-3.1,12.4-4.4,12.4-4.4s-1-11.1-6.2-23.7C138.3,239.8,129.7,231,129.7,231z"/>
				<g>
					<path class="st36" d="M142.6,244.4c1.3,5.3,2.4,10.6,3.5,15.9c0.5,2.6,1,5.2,1.6,7.8c0.3,1.3,0.6,2.7,0.9,4
						c0.3,1.3,0.6,2.7,1.1,3.9c0.1,0.3,0.6,0.2,0.6-0.2c-0.2-1.3-0.7-2.6-1-3.9c-0.3-1.3-0.6-2.5-0.9-3.8c-0.6-2.7-1.1-5.3-1.6-8
						c-1-5.4-2-10.7-3.5-15.9C143.1,243.8,142.5,244,142.6,244.4L142.6,244.4z"/>
				</g>
				<path class="st35" d="M149.4,275c-0.2-0.7-0.4-1.5-0.5-2.2c-0.7,0.1-1.4,0.2-2.1,0.3c-9.3,1.4-19.5,4.3-26.7,10.8
					c1.3,3.1,2.8,6.2,2.8,6.2s7.3-5.9,14.4-9.4c6.4-3.1,12.4-4.4,12.4-4.4s0-0.1,0-0.2C149.6,275.6,149.5,275.3,149.4,275z"/>
				<path class="st29" d="M198.2,305.8c-0.9,0.4-1.9,0.8-2.9,1.2c-0.9-0.2-1.8-0.4-2.7-0.6c-5.3-1.4-10.6-2.8-15.9-4.3
					c-2.7-0.8-5.4-1.6-8.1-2.3c-3.3-1-6.6-1.9-9.9-3c-0.9-0.3-2.6-0.8-3.9-1.2c-0.9-0.3-1.5-0.5-1.6-0.6c-0.4-0.6-0.6-1.3-0.8-2.1
					c-0.1-0.4-0.2-0.7-0.3-1.1c-0.2-0.9-0.5-1.7-0.7-2.6c-0.1-0.5-0.4-2.2-0.5-3.5c0.2-0.2,0.5-0.4,0.7-0.6c0.1,0.5,0.3,1,0.4,1.5
					c0.1,0.5,0.2,0.9,0.3,1.4c0.1,0.3,0.2,0.7,0.2,1c0.5,1.7,0.9,3.4,1.4,5.1c2.1,0.5,4.1,1.1,6.2,1.6c7.5,2.1,15,4.2,22.5,6.1
					c3.9,1,7.7,2,11.6,2.9c0.4,0.1,1,0.3,1.6,0.5c0,0,0,0,0.1,0c0.1,0,0.2,0,0.2,0.1c0.1,0,0.1,0,0.2,0.1c0.1,0,0.2,0.1,0.3,0.1
					c0.1,0,0.2,0.1,0.3,0.1c0,0,0,0,0,0C197.5,305.6,197.9,305.7,198.2,305.8z"/>
				<g>
					<path class="st29" d="M213.2,283.5c-1.6-0.9-3.4-1.5-5.1-2.1c-0.9-0.3-1.7-0.5-2.7-0.6c0,0,0,1,0.1,1.1
						c0.8,0.2,1.6,0.4,2.4,0.6c1.7,0.5,3.3,1.2,5.1,1.7C213.3,284.3,213.6,283.7,213.2,283.5z"/>
				</g>
			</g>
		</g>
	</g>
</g>
</svg>
