<?xml version="1.0" encoding="utf-8"?>
<!-- Generator: Adobe Illustrator 27.5.0, SVG Export Plug-In . SVG Version: 6.00 Build 0)  -->
<svg version="1.1" id="_圖層_2" xmlns="http://www.w3.org/2000/svg" xmlns:xlink="http://www.w3.org/1999/xlink" x="0px" y="0px"
	 width="391.2px" height="391.2px" viewBox="0 0 391.2 391.2" style="enable-background:new 0 0 391.2 391.2;" xml:space="preserve"
	>
<style type="text/css">
	.st0{fill:#0AA07D;}
	.st1{opacity:0.1;enable-background:new    ;}
	.st2{opacity:0.15;fill:#FFFFFF;enable-background:new    ;}
	.st3{clip-path:url(#SVGID_00000113326160522820557510000010083854466415103904_);}
	.st4{fill:#FFFAD8;}
	.st5{fill:#FCE29F;}
	.st6{fill:#FFFFFF;}
	.st7{fill:#DC5A32;}
	.st8{fill:#DFE1E0;}
	.st9{fill:#FBC700;}
	.st10{fill:#F6C09C;}
	.st11{fill:#D0805C;}
	.st12{fill:#DAAB50;}
	.st13{fill:#76AB39;}
	.st14{fill:#C68034;}
	.st15{clip-path:url(#SVGID_00000061471849308943852010000009117564431001314205_);fill:#569A36;}
	.st16{clip-path:url(#SVGID_00000083072558166197221850000010348488070331205526_);fill:#308539;}
	.st17{clip-path:url(#SVGID_00000017518956870930144840000011508938822305260973_);fill:#308539;}
	.st18{clip-path:url(#SVGID_00000154413652507588501140000014778297780228717970_);fill:#308539;}
	.st19{clip-path:url(#SVGID_00000053517992955762595020000017019262235169691577_);fill:#308539;}
	.st20{clip-path:url(#SVGID_00000096027779217117674480000000571660010083848111_);fill:#308539;}
	.st21{fill:#DE913A;}
	.st22{fill:#DA842E;}
	.st23{fill:#0097A0;}
	.st24{fill:#E95C3A;}
	.st25{fill:#CCCFCF;}
	.st26{clip-path:url(#SVGID_00000123429166568070952860000006332633673180622518_);fill:#E95C3A;}
	.st27{fill:#B2B2B2;}
	.st28{clip-path:url(#SVGID_00000155849971819757711980000004989638529558971267_);}
	.st29{fill:#71B939;}
	.st30{fill:#40A240;}
	.st31{clip-path:url(#SVGID_00000183939109512914585020000012794582665057255827_);fill:#40A240;}
	.st32{fill:#8DCFDF;}
	.st33{clip-path:url(#SVGID_00000054959459068846754500000005159116718938115734_);}
	.st34{fill:#35AB40;}
	
		.st35{opacity:0.56;clip-path:url(#SVGID_00000053520903825933585950000004414099518770965425_);fill:#74BFD8;enable-background:new    ;}
	.st36{fill:#6CC4D2;}
	.st37{fill:#DF923A;}
	.st38{clip-path:url(#SVGID_00000009565754403118924850000018116005621431541650_);fill:#6CC4D2;}
	.st39{fill:#7AB236;}
</style>
<g>
	<g>
		<g>
			<path class="st0" d="M188.7,0C98.2,0,24.9,68.1,24.9,152v187.9h202.5c90.5,0,163.8-68.1,163.8-152V0H188.7z"/>
		</g>
	</g>
	<path class="st1" d="M24.9,335.2v4.6h202.5c90.5,0,163.8-68.1,163.8-152V68.5C327.2,154.6,205.7,283.5,24.9,335.2z"/>
	<path class="st2" d="M188.7,0C98.2,0,24.9,68.1,24.9,152v74C151.8,58.7,333.7,13.9,391.2,3.6V0H188.7z"/>
</g>
<g>
	<g>
		<rect x="1.8" y="116.2" class="st0" width="25.1" height="275"/>
	</g>
</g>
<g>
	<g>
		<g>
			<defs>
				<path id="SVGID_1_" d="M177.6,304.7H52V167.2c0-69.1,56.5-125.6,125.6-125.6h56.1h125.6v137.6c0,69.1-56.5,125.6-125.6,125.6
					L177.6,304.7L177.6,304.7z"/>
			</defs>
			<clipPath id="SVGID_00000064316041285291215240000011070642599211137446_">
				<use xlink:href="#SVGID_1_"  style="overflow:visible;"/>
			</clipPath>
			<g style="clip-path:url(#SVGID_00000064316041285291215240000011070642599211137446_);">
				<rect x="57.6" class="st4" width="318.9" height="318.9"/>
				<path class="st5" d="M283.9,202.9h83.5l-11.5-5.4c0,0,2.7-4.8-2.7-10.2s-13.6-3.4-13.6-3.4s-1.4-10.2-9.5-10.9
					c-9.5-0.8-12.9,7.5-12.9,7.5s-5.4-6.8-13.6-2s-4.8,11.5-4.8,11.5s-5.4-3.4-11.5,1.4C282.4,195.2,283.9,202.9,283.9,202.9z"/>
				<path class="st5" d="M80.9,131.4h83.5l-11.5-5.4c0,0,2.7-4.8-2.7-10.2c-5.4-5.4-13.6-3.4-13.6-3.4s-1.4-10.2-9.5-10.9
					c-9.5-0.8-12.9,7.5-12.9,7.5s-5.4-6.8-13.6-2s-4.8,11.5-4.8,11.5s-5.4-3.4-11.5,1.4C79.2,123.7,80.9,131.4,80.9,131.4z"/>
				<g>
					<g>
						
							<rect x="262.7" y="182.3" transform="matrix(0.7305 -0.6829 0.6829 0.7305 -61.1792 256.8823)" class="st6" width="64.4" height="47.3"/>
						<path class="st7" d="M290.3,195.3c2.4,0.1,4.8,0.3,7.1,0.7c1.9,0.3,4.8,0.4,6.5,1.3c-0.8-1.3-1.5-2.6-2.3-4c0,0.2,0,0.5,0,0.7
							c0.4-1.1,0.9-2.2,1.3-3.2c-1.9,2.1-5.7,2.3-8.4,2.6c-3.4,0.3-6.8,0.6-10.1,1.4c-4.7,1.2-4,7.3,0,8.8c6,2.2,11.9,4.5,17.9,6.7
							c-0.7-2.6-1.3-5.1-2-7.7c0.4-0.3-0.1,0.1-0.5,0.1c-0.5,0-1,0-1.4,0c-1.2,0-2.3-0.1-3.5,0c-2.7,0.2-5.1,1-7,3
							c-2,2.1-1.7,5.8,0.9,7.2c1.5,0.8,3,1.6,4.6,2.5c0.7,0.4,1.4,0.7,2,1.1c0.3,0.2,0.7,0.4,1,0.5c1.2,0.8,1,0.1-0.9-2.2
							c0.4-1.1,0.9-2.2,1.3-3.2c0.7-0.4,0.5-0.4-0.7,0c-0.5,0.1-1.1,0.2-1.6,0.4c-1.3,0.3-2.5,0.5-3.8,0.8c-3.1,0.7-4.7,5.5-2,7.7
							c1.4,1.1,2.9,2.3,4.3,3.4c2,1.5,4.6,1.9,6.5,0c1.6-1.6,1.9-5,0-6.5c-1.4-1.1-2.9-2.3-4.3-3.4c-0.7,2.6-1.3,5.1-2,7.7
							c4.2-0.9,11.5-1.2,11.6-7.1c0.1-5.2-7.6-7.6-11.3-9.6c0.3,2.4,0.6,4.8,0.9,7.2c0.8-0.9,4-0.2,5.2-0.2c2.8-0.1,5.1-0.9,7.2-2.8
							c2.8-2.5,0.9-6.5-2-7.7c-6-2.2-11.9-4.5-17.9-6.7c0,2.9,0,5.9,0,8.8c4.5-1.2,9.2-1,13.8-1.9c4.2-0.9,10.3-3.2,10-8.4
							c-0.1-1.5-0.8-3.2-2.3-4c-5.3-2.6-12.4-2.9-18.2-3.2C284.5,185.8,284.5,195,290.3,195.3L290.3,195.3z"/>
					</g>
					<polygon class="st8" points="297,171.5 285.2,227.2 265.2,222.9 261.2,217.4 					"/>
					<g>
						
							<rect x="234.8" y="163.9" transform="matrix(0.2152 -0.9766 0.9766 0.2152 26.3944 407.9732)" class="st6" width="64.4" height="47.3"/>
						<path class="st9" d="M261.5,181c2.1-1.6,4.4-3,6.8-4.2c0.6-0.3,1.3-0.6,2-0.8c1.1-0.3,1.2-0.4,0.4-0.2c0.8,0.5,1.5,2,1.9,2.8
							c0.3,0.5,0.5,0.9,0.8,1.4c0.4,1.4,0.7,1.3,1-0.4c0.1,0.1-1.8,0.8-1.9,0.9c-1.3,0.4-2.7,0.7-4,0.9c-0.8,0.1-1.5,0.1-2.3,0.2
							c-1.5-0.1-1.1,0.4,1.2,1.6c0,0.8,0,1.7,0,2.5c0-0.1-1.4,0.6,0.1,0.6c0.1,0.1,0.2,0.3,0.3,0.4c0.1-0.3,0.2-0.6,0.3-0.9
							c-0.5,0.3-0.9,0.7-1.4,1c-2.6,1.6-5.5,2.6-8.4,3.5c-1.9,0.6-3.6,2.5-3.5,4.6c0.2,3.6,2.2,5.2,5,7.2c2.4,1.7,4.7,3.6,7.4,4.9
							c5.8,2.6,12.5-1.2,11.3-7.9c-1.1-6.3-7.9-8.3-13.4-6.9c-2.7,0.7-4.9,2.1-7,3.8c-0.5,0.4-2.2,1.5-2.3,1.7
							c0.2-0.6,0.9,1.8,0.8,0.3c0-0.6-0.9-1.7-1.2-2.1c-3.4-5.1-11.7-0.3-8.3,4.8c1.9,2.9,3.1,5.6,6.9,6.3c3.5,0.7,6.7-1,9.3-3.1
							c1.1-0.9,2-1.8,3.3-2.3c0.4-0.2,1-0.4,1.5-0.4c2.6-0.2,0.3,0.1,1.1-0.4c-0.7-1.1-0.1-1.9,1.9-2.5c-0.2-0.1-0.5-0.3-0.7-0.4
							c-0.5-0.6-1.6-1.1-2.2-1.5c-1.1-0.8-3.8-2-4.6-3.2c0.2,0.8,0.4,1.6,0.7,2.4c0-0.3,0-0.5-0.1-0.8c-1.2,1.5-2.3,3.1-3.5,4.6
							c4.7-1.5,10.5-3.3,14-7c3.7-3.8,3-9.3-0.6-13c-3.6-3.6-9.8-4.5-13.7-0.8c-4,3.7-3,10.6,2.6,12.1c4.4,1.2,11.1-0.2,15.2-2.3
							c4.7-2.4,6.3-7.1,4.1-11.9c-2-4.3-5.3-10-10.6-10.4c-5.2-0.3-11.1,3.6-15.1,6.6c-2.1,1.6-3.1,4.1-1.7,6.5
							C256.2,181.4,259.5,182.6,261.5,181L261.5,181z"/>
					</g>
				</g>
				<g>
					<g>
						<g>
							<g>
								<polygon class="st9" points="214.4,174.7 204.9,178 198.2,218.2 239.8,218.5 233.8,176.8 224.9,174.3 								"/>
								<g>
									<g>
										<path class="st10" d="M186.8,166.9c0-0.9-0.2-1.7-0.7-2.4c-0.8-1.2-2.2-3.1-3.3-2.9c-1.6,0.2-1.7,2.1-1.7,2.1
											s-1.2-1.7-3.3-0.5s-2.9,7-1,8.9s4.7,1,4.7,1s1.6,1.2,3.5-0.2C186.4,171.9,186.7,168.7,186.8,166.9z"/>
										<path class="st11" d="M181.4,173.4h-0.1c-0.2-0.1-0.3-0.2-0.2-0.4c0,0,1.2-3.9,0.8-6.2c0-0.2,0.1-0.4,0.3-0.4
											s0.4,0.1,0.4,0.3c0.5,2.4-0.7,6.3-0.8,6.5C181.8,173.3,181.7,173.4,181.4,173.4z"/>
									</g>
									<path class="st9" d="M205.9,177.5l-14,4.9l-6-11.5l-7.5,2.8c0,0,5.5,17.7,6.8,18.8s20.3,2.1,20.3,2.1
										S207.8,184.5,205.9,177.5z"/>
								</g>
								<path class="st10" d="M223.2,169.7l1.6,5.6c0,0-4.5,2.6-10.5,0.4l1.6-5.7L223.2,169.7z"/>
							</g>
						</g>
						<path class="st9" d="M233.8,176.8c0,0,7.6,4.2,17.1,15.3l-10.2,3.8l-6.9-3.2L233.8,176.8z"/>
						<g>
							<g>
								<path class="st12" d="M235.9,209.9c5.9,4.1,15.3,7,26.8,0.5c13.2-7.4,11.8-23.5,3.3-27.5c-6.7-3.2-11.7-0.7-13.8,3.2
									s-2.7,6.3-8,5.8s-9.5-0.1-11.8,3.9C229.6,200.7,231.8,207,235.9,209.9z M263.4,187.2c2,0.9,3.3,2.8,2.8,4.3
									c-0.5,1.4-2.6,1.9-4.6,1s-3.3-2.8-2.8-4.3C259.4,186.7,261.4,186.3,263.4,187.2z"/>
							</g>
							<path class="st13" d="M245.4,203.9c-2.5,0.4,0.4-1.5-4.3-1.6c-4.7-0.2-4.5-2.3-1.9-4.1c2.5-1.8,6.4-3.9,7.8-2.1
								s5.2,0.7,3.7,3.5C249.2,202.3,247.6,203.6,245.4,203.9z"/>
							<path class="st9" d="M252.8,202c-3.1,0.9-7.2,1-5.8-0.8s0.6-1.2-1.2-3.4s3-3,5.6-3.9s0.8,1.9,3,3.2
								C256.5,198.4,257,200.7,252.8,202z"/>
						</g>
						<path class="st13" d="M266.7,198.6c0.1,1.6-1.7,3-3.8,3.1c-2.2,0.1-4-1.2-4-2.8c-0.1-1.6,1.7-3,3.8-3.1
							C264.8,195.8,266.5,197,266.7,198.6z"/>
						<path class="st9" d="M260.7,205.4c0.1,1.6-1.7,3-3.8,3.1c-2.2,0.1-4-1.2-4-2.8c-0.1-1.6,1.7-3,3.8-3.1
							C258.9,202.5,260.7,203.7,260.7,205.4z"/>
						<path class="st6" d="M250.8,207.8c0.1,1.6-1.7,3-3.8,3.1c-2.2,0.1-4-1.2-4-2.8c-0.1-1.6,1.7-3,3.8-3.1
							C248.9,204.9,250.8,206.2,250.8,207.8z"/>
						<path class="st10" d="M260,187.3c0,0,6.1-1,6.9,1.1s-6.4,3.3-6.4,3.3S255.7,188.8,260,187.3z"/>
						<g>
							<polygon class="st14" points="172.2,148.8 178.6,146.8 179.2,151.5 178.4,153.3 175.9,154 174.1,153 							"/>
							<path class="st14" d="M178.4,152.9l10.8,36.4c0.1,0.5-0.1,1-0.6,1.2l0,0c-0.5,0.2-1-0.1-1.2-0.6l-12-36L178.4,152.9z"/>
							<g>
								<g>
									<path id="XMLID_57_" class="st6" d="M178.6,146.8c0,0-0.2-5-2.1-9.6l-8.3,2.6c0,0,2.2,2.7,4.1,8.9L178.6,146.8z"/>
								</g>
								<g>
									<g>
										<defs>
											<path id="SVGID_00000030483903771209364890000010517124487455436952_" d="M178.6,146.8c0,0-0.2-5-2.1-9.6l-8.3,2.6
												c0,0,2.2,2.7,4.1,8.9L178.6,146.8z"/>
										</defs>
										<clipPath id="SVGID_00000069395774264916720680000002128003565254972288_">
											<use xlink:href="#SVGID_00000030483903771209364890000010517124487455436952_"  style="overflow:visible;"/>
										</clipPath>
										<path style="clip-path:url(#SVGID_00000069395774264916720680000002128003565254972288_);fill:#569A36;" d="M169.6,144
											c1.6,1.1,2.3,0.7,3.2-0.3c1-1,1.9-0.9,2.7-0.7c0.9,0.2,1.3-1,2.3-1.5c0.9-0.5,0.9-0.5,0.9-0.5l-1.3-4.6l-10.2,3.3
											L169.6,144z"/>
									</g>
								</g>
								<g>
									<g>
										<defs>
											<path id="SVGID_00000044875007941848569630000011996433247595913862_" d="M178.6,146.8c0,0-0.2-5-2.1-9.6l-8.3,2.6
												c0,0,2.2,2.7,4.1,8.9L178.6,146.8z"/>
										</defs>
										<clipPath id="SVGID_00000163785838420145479910000015062949270923597758_">
											<use xlink:href="#SVGID_00000044875007941848569630000011996433247595913862_"  style="overflow:visible;"/>
										</clipPath>
										<path style="clip-path:url(#SVGID_00000163785838420145479910000015062949270923597758_);fill:#308539;" d="M171.8,143.2
											C171.7,143.2,171.7,143.2,171.8,143.2c-0.2,0.1-0.3,0-0.4-0.1c0,0-1.1-2.8-2.8-4.7c-0.1-0.1-0.1-0.3,0-0.4
											c0.1-0.1,0.3-0.1,0.4,0c1.8,2,2.8,4.8,2.9,4.9C171.9,143,171.9,143.1,171.8,143.2z"/>
									</g>
								</g>
								<g>
									<g>
										<defs>
											<path id="SVGID_00000167384778385696426900000000116277975013484732_" d="M178.6,146.8c0,0-0.2-5-2.1-9.6l-8.3,2.6
												c0,0,2.2,2.7,4.1,8.9L178.6,146.8z"/>
										</defs>
										<clipPath id="SVGID_00000101792829352230256630000007488358709439693730_">
											<use xlink:href="#SVGID_00000167384778385696426900000000116277975013484732_"  style="overflow:visible;"/>
										</clipPath>
										<path style="clip-path:url(#SVGID_00000101792829352230256630000007488358709439693730_);fill:#308539;" d="M173.1,142.8
											L173.1,142.8c-0.2,0.1-0.3,0-0.4-0.1c0,0-1.1-2.8-2.8-4.7c-0.1-0.1-0.1-0.3,0-0.4c0.1-0.1,0.3-0.1,0.4,0
											c1.8,2,2.8,4.8,2.9,4.9C173.2,142.6,173.2,142.7,173.1,142.8z"/>
									</g>
								</g>
								<g>
									<g>
										<defs>
											<path id="SVGID_00000070826858680953776100000011428131016403306892_" d="M178.6,146.8c0,0-0.2-5-2.1-9.6l-8.3,2.6
												c0,0,2.2,2.7,4.1,8.9L178.6,146.8z"/>
										</defs>
										<clipPath id="SVGID_00000030448243129449832110000013900244055466336416_">
											<use xlink:href="#SVGID_00000070826858680953776100000011428131016403306892_"  style="overflow:visible;"/>
										</clipPath>
										<path style="clip-path:url(#SVGID_00000030448243129449832110000013900244055466336416_);fill:#308539;" d="M174.4,142.3
											L174.4,142.3c-0.2,0.1-0.3,0-0.4-0.1c0,0-1.1-2.8-2.8-4.7c-0.1-0.1-0.1-0.3,0-0.4c0.1-0.1,0.3-0.1,0.4,0
											c1.8,2,2.8,4.8,2.9,4.9C174.6,142.1,174.4,142.3,174.4,142.3z"/>
									</g>
								</g>
								<g>
									<g>
										<defs>
											<path id="SVGID_00000120531537918807369540000014880924860637437347_" d="M178.6,146.8c0,0-0.2-5-2.1-9.6l-8.3,2.6
												c0,0,2.2,2.7,4.1,8.9L178.6,146.8z"/>
										</defs>
										<clipPath id="SVGID_00000009569114745340312330000008620174790275573179_">
											<use xlink:href="#SVGID_00000120531537918807369540000014880924860637437347_"  style="overflow:visible;"/>
										</clipPath>
										<path style="clip-path:url(#SVGID_00000009569114745340312330000008620174790275573179_);fill:#308539;" d="M175.8,141.9
											C175.8,141.9,175.7,141.9,175.8,141.9c-0.2,0.1-0.3,0-0.4-0.1c0,0-1.1-2.8-2.8-4.7c-0.1-0.1-0.1-0.3,0-0.4
											c0.1-0.1,0.3-0.1,0.4,0c1.8,2,2.8,4.8,2.9,4.9C175.9,141.7,175.9,141.8,175.8,141.9z"/>
									</g>
								</g>
								<g>
									<g>
										<defs>
											<path id="SVGID_00000049186679644831516130000016637927229931687322_" d="M178.6,146.8c0,0-0.2-5-2.1-9.6l-8.3,2.6
												c0,0,2.2,2.7,4.1,8.9L178.6,146.8z"/>
										</defs>
										<clipPath id="SVGID_00000041978241173564741630000016843314825437138604_">
											<use xlink:href="#SVGID_00000049186679644831516130000016637927229931687322_"  style="overflow:visible;"/>
										</clipPath>
										<path style="clip-path:url(#SVGID_00000041978241173564741630000016843314825437138604_);fill:#308539;" d="M177.1,141.5
											L177.1,141.5c-0.2,0.1-0.3,0-0.4-0.1c0,0-1.1-2.8-2.8-4.7c-0.1-0.1-0.1-0.3,0-0.4c0.1-0.1,0.3-0.1,0.4,0
											c1.8,2,2.8,4.8,2.9,4.9C177.2,141.3,177.2,141.4,177.1,141.5z"/>
									</g>
								</g>
							</g>
						</g>
						<path class="st10" d="M181.6,162.5c-2.2,2.6-3.2,6.1-1.4,6.2c1.8,0.2,3.8-2.4,3.8-2.4L181.6,162.5z"/>
						<path class="st10" d="M176.9,162.2c4-1.1,6.3,8.9,2.2,10.1C175.1,173.5,173.4,163.3,176.9,162.2z"/>
					</g>
					<g>
						<g>
							<path class="st7" d="M220.8,124.6c10-2.3,23.7-1.4,24.9,9.6c1.1,11-8.9,15.7-14.6,18c-5.7,2.3-23.6,2.4-30.1-3.6
								s-11.1-14.7-4.7-21.8C204.8,117.2,220.8,124.6,220.8,124.6z"/>
							<path class="st7" d="M220.8,127.5L220.8,127.5c-0.6,0.1-1.1-0.2-1.2-0.8c0-0.2-1.2-5.6,3.1-9.9c0.4-0.4,1-0.4,1.4,0
								s0.4,1,0,1.4c-3.5,3.5-2.6,7.8-2.6,8C221.7,126.8,221.4,127.4,220.8,127.5z"/>
						</g>
						<path class="st21" d="M218.4,127.7c11.2-2.5,20,3.1,24.1,12.9c4.1,9.8-1.3,22.5-6.3,25.2c-5.1,2.7-28.4,5.6-34.4,0.1
							c-6-5.5-10.5-17.6-5.7-26.8C203.9,124.3,218.4,127.7,218.4,127.7z"/>
						<g>
							<path class="st10" d="M236.9,152.3c3.7-1.8,8.7,2,6.6,7c-2.2,5-5.8,4.7-5.8,4.7l-2.1-4.9L236.9,152.3z"/>
							<g>
								<g>
									<path class="st10" d="M236.1,142.5c3,3,3.3,9.7,1.2,15.4c0,0,2,3,0.7,6.1c-1.8,4.3-8.6,8-18.1,8.3
										c-9.4,0.3-14.8-2.6-17.1-4.4c-2.7-2.2-3.3-6.4-2-7.8c0,0-3.2-6.2-1.6-12.1c1.6-5.9,8.1-10.3,17.3-11.6
										C225.8,135.2,232.8,139.1,236.1,142.5z"/>
									<path class="st22" d="M217.7,159.2h-0.1c-0.2-0.1-0.3-0.3-0.2-0.4c0.2-0.4,1-2.3,2.1-2.4c1.1-0.1,2.1,1.9,2.3,2.2
										c0.1,0.2,0,0.4-0.2,0.5s-0.4,0-0.5-0.2c-0.4-0.8-1.1-1.9-1.6-1.8c-0.5,0-1.2,1.2-1.5,2
										C217.9,159.1,217.9,159.2,217.7,159.2z"/>
									<g>
										<path class="st6" d="M227.2,151.1c5.1-0.2,4.9,7.5,0.3,7.7C222.9,158.9,222.8,151.2,227.2,151.1z"/>
										<path class="st23" d="M227.4,152.6c3.3-0.2,3.1,5.1,1,5.7c-1.6,0.5-2.5-0.2-2.9-1C224.9,156.4,224.4,152.8,227.4,152.6z"
											/>
										<path class="st22" d="M231.2,154.3c-0.1,0-0.3-0.1-0.3-0.2c-0.6-1.6-1.5-2.6-2.6-3c-1.1-0.3-2.2,0.1-2.8,0.5
											c-0.2,0.1-0.4,0.1-0.5-0.1c-0.1-0.2-0.1-0.4,0.1-0.5c0.8-0.6,2.1-1,3.4-0.6c0.9,0.3,2.2,1.1,3,3.4c0.1,0.2,0,0.4-0.2,0.4
											C231.4,154.3,231.4,154.3,231.2,154.3z"/>
									</g>
									<g>
										<path class="st6" d="M211.2,151.7c-5.1-0.3-5.1,7.5-0.4,7.7C215.4,159.6,215.7,151.9,211.2,151.7z"/>
										<path class="st23" d="M211.4,153.2c-3.3-0.2-3.4,4.8-1.4,5.6c1.2,0.5,2.4,0,3-0.8C213.9,157,214.1,153.3,211.4,153.2z"/>
										<path class="st22" d="M207.2,154.8h-0.1c-0.2-0.1-0.3-0.3-0.2-0.4c0.9-2.3,2.2-3.1,3.1-3.3c1.3-0.4,2.6,0.1,3.4,0.7
											c0.2,0.1,0.2,0.3,0.1,0.5c-0.1,0.2-0.3,0.2-0.5,0.1c-0.6-0.5-1.7-0.9-2.8-0.6c-1.1,0.3-2,1.3-2.6,2.9
											C207.4,154.8,207.2,154.8,207.2,154.8z"/>
									</g>
								</g>
							</g>
							<path class="st11" d="M237.9,164.4L237.9,164.4c-0.3-0.1-0.4-0.2-0.3-0.4c0.7-3-0.6-5.9-0.7-5.9c0-0.1,0-0.2,0-0.2l1.4-5.9
								c0-0.2,0.2-0.3,0.4-0.3s0.3,0.2,0.3,0.4l-1.3,5.8c0.3,0.6,1.4,3.3,0.6,6.2C238.2,164.3,238.2,164.4,237.9,164.4z"/>
							<path class="st22" d="M241.4,156.3c0,0-2.6-1.3-4.1,1.5l0.6-2.1C237.9,155.8,239.7,154.3,241.4,156.3z"/>
							<path class="st10" d="M201.2,153.5c-3.8-1.5-8.6,2.6-6,7.5c2.5,4.8,6.2,4.3,6.2,4.3l1.8-5L201.2,153.5z"/>
							<path class="st11" d="M200.8,165.7c-0.1,0-0.3-0.1-0.3-0.2c-0.9-2.9,0-5.7,0.2-6.3l-1.7-5.7c-0.1-0.2,0-0.4,0.2-0.4
								c0.2-0.1,0.4,0,0.4,0.2l1.8,5.8c0,0.1,0,0.2,0,0.2s-1.2,3-0.2,5.9c0.1,0.2,0,0.4-0.2,0.4
								C200.9,165.7,200.9,165.7,200.8,165.7z"/>
							<path class="st22" d="M196.9,157.9c0,0,2.5-1.5,4.2,1.3l-0.7-2.1C200.4,157.1,198.4,155.7,196.9,157.9z"/>
						</g>
						<g>
							<g>
								<path id="XMLID_58_" class="st21" d="M200.6,156.4c0,0-2.2-2.3-2.7-4.8c-0.8-3.7-0.4-17.3,18.1-19
									c21.6-2,25.6,10.4,24.8,16.7c-0.3,2.5-2.3,5.3-2.3,5.3l-1.6-6.6l-13.6-9.3c0,0,1.4,5.7,3,6.6c-4.2-0.2-9.1-2.1-11.8-6.9
									c0,0-4.4,5.4-13.2,14.1L200.6,156.4z"/>
							</g>
						</g>
						<path class="st24" d="M214.7,161.4c0,0,3.6,1.2,9.2,0.1c0,0-1.5,6.5-4.7,6.6C215.4,168.2,214.7,161.4,214.7,161.4z"/>
						<path class="st7" d="M194.9,140.2c0,0,9.4-10.5,24.9-9.3c15.5,1.1,22.8,9.7,22.8,9.7s0-13.7-22.5-14.2
							C199.1,125.9,194.9,140.2,194.9,140.2z"/>
					</g>
				</g>
				<g>
					<path class="st24" d="M351,118.1c0,0,8.7,9.8,3.6,20c-5.2,10.2-12.4,8-13.8,22.8c-1.2,11.9-6.2,18.9-14.3,19.8
						c-13.8,1.5-16.3-25.5,4.6-34.5c8.5-3.7,16.2-9.5,14.9-26.6L351,118.1z"/>
					<g>
						<g>
							<g>
								<g>
									<path id="XMLID_55_" class="st25" d="M354,104.2c0,0-4.4-24.1-11-36.6l-21.4,10.3c0,0,14.1,19.2,15.2,31.2L354,104.2z"/>
								</g>
								<g>
									<g>
										<defs>
											<path id="SVGID_00000064341472760485364480000009522582863066362764_" d="M354,104.2c0,0-4.4-24.1-11-36.6l-21.4,10.3
												c0,0,14.1,19.2,15.2,31.2L354,104.2z"/>
										</defs>
										<clipPath id="SVGID_00000045578533662838476420000007411146451724156094_">
											<use xlink:href="#SVGID_00000064341472760485364480000009522582863066362764_"  style="overflow:visible;"/>
										</clipPath>
										<polygon style="clip-path:url(#SVGID_00000045578533662838476420000007411146451724156094_);fill:#E95C3A;" points="
											354.5,98.7 332,105.9 321.8,84.5 349.5,72.1 										"/>
									</g>
								</g>
							</g>
							<polygon class="st27" points="354,104.2 350.5,112.2 342.7,113.9 336.8,109.1 							"/>
							<polygon class="st25" points="350.5,112.2 352.7,118.4 344.2,120.4 342.7,113.9 							"/>
							<polygon class="st27" points="321.7,77.9 317.8,75 340.2,64.1 343,67.6 							"/>
						</g>
						<path class="st6" d="M347.8,96.3c-0.7,0-1.4-0.5-1.6-1.3c0-0.1-3.1-11.6-6.7-20.3c-0.4-0.9,0-1.8,0.9-2.2
							c0.9-0.4,1.8,0,2.2,0.9c3.7,8.9,6.7,20.3,6.8,20.7c0.2,0.9-0.3,1.8-1.2,2.1C348,96.3,347.8,96.3,347.8,96.3z"/>
					</g>
				</g>
				<g>
					<g>
						<g>
							<defs>
								<rect id="SVGID_00000137132654008959916900000017803277188732875695_" x="57.6" width="318.9" height="318.9"/>
							</defs>
							<clipPath id="SVGID_00000083049943312159490250000006478499651895149977_">
								<use xlink:href="#SVGID_00000137132654008959916900000017803277188732875695_"  style="overflow:visible;"/>
							</clipPath>
							<g style="clip-path:url(#SVGID_00000083049943312159490250000006478499651895149977_);">
								<g>
									<g>
										<path class="st29" d="M344.2,246.7c11.5,6.5,19.5-13.6,12.9-26.4C343,226.9,333.8,240.8,344.2,246.7z"/>
										<path class="st29" d="M338.8,262.2c3.1,12.8,23.2,5,28.1-8.6C354.5,246.7,336,250.6,338.8,262.2z"/>
										<path class="st29" d="M330.5,257.7c13.1-1.3,8.1-22.3-4.6-29C317.2,240.1,318.7,259,330.5,257.7z"/>
										<path class="st29" d="M317,273.6c13.1-1.3,8.1-22.3-4.6-29C303.7,256,305,274.8,317,273.6z"/>
										<path class="st29" d="M323.5,281.3c3.1,12.8,23.2,5,28.1-8.6C337.8,265.7,320.7,269.7,323.5,281.3z"/>
										<path class="st30" d="M302,289.9c-0.3,0-0.6-0.2-0.8-0.5c-0.3-0.4-0.1-1,0.3-1.3c34.4-21.2,46.3-51.7,46.4-52
											c0.2-0.5,0.7-0.7,1.2-0.6c0.5,0.2,0.7,0.7,0.6,1.2c-0.1,0.3-12.2,31.3-47.2,52.9C302.5,289.9,302.2,289.9,302,289.9z"/>
										<path class="st30" d="M315,281.6c-0.2,0-0.5-0.1-0.7-0.3c-0.2-0.2-0.3-0.5-0.3-0.8l1.3-20c0-0.5,0.5-0.9,1-0.9
											s0.9,0.5,0.9,1l-1.3,18.9l19.8-2.7c0.5-0.1,1,0.3,1.1,0.8c0.1,0.5-0.3,1-0.8,1.1L315,281.6L315,281.6z"/>
										<path class="st30" d="M332,264.2c-0.2,0-0.4-0.1-0.6-0.2c-0.2-0.2-0.4-0.4-0.4-0.7l-1.1-14.5c0-0.5,0.4-1,0.9-1
											s1,0.4,1,0.9l1,13.4l16.2-3.8c0.5-0.1,1,0.2,1.1,0.7c0.1,0.5-0.2,1-0.7,1.1l-17.3,4.1C332.2,264.2,332.2,264.2,332,264.2z
											"/>
									</g>
									<g>
										<g>
											<g>
												<g>
													<g>
														<g>
															<path id="XMLID_38_" class="st29" d="M131.5,285c-4.6-8.2-9.6-21.6-15.5-32.8c-1-1.9-3.3-3-5.3-2.4
																c-4.6,1.3-1.9,8-3.6,12.1c-1.3-5.7-3.7-11.1-6.8-16c-1.7-2.6-4-5.3-7.1-5.5s-6.1,3.8-3.9,6.1
																c-3.5-6.3-7.8-12.2-12.9-17.3c-1.8-1.8-4-3.7-6.7-2.9c-1.6,0.5-2.8,1.8-3.3,3.4c-1,3.1,0.2,6.2,1.5,9
																c3.6,7.7,8.4,14.9,14.3,21c-2.5-2-5.2-3.9-7.9-5.6c-1.6-1-3.4-2-5.3-0.8c-0.9,0.6-1.5,1.5-1.8,2.5
																c-0.7,2.5,0.5,4.9,1.8,7c5.9,9,16.1,14,25.8,18.6c0,0-0.1,0-0.1-0.1c-5.7-3.1-14.4,1.6-5.6,9
																c4.7,4,10.6,6.4,16.4,8.3c9,2.8,18.4,3.9,27.7,4.9L131.5,285z"/>
														</g>
														<g>
															<g>
																<defs>
																	<path id="SVGID_00000114766206129407539500000018427421896958199485_" d="M131.5,285c-4.6-8.2-9.6-21.6-15.5-32.8
																		c-1-1.9-3.3-3-5.3-2.4c-4.6,1.3-1.9,8-3.6,12.1c-1.3-5.7-3.7-11.1-6.8-16c-1.7-2.6-4-5.3-7.1-5.5s-6.1,3.8-3.9,6.1
																		c-3.5-6.3-7.8-12.2-12.9-17.3c-1.8-1.8-4-3.7-6.7-2.9c-1.6,0.5-2.8,1.8-3.3,3.4c-1,3.1,0.2,6.2,1.5,9
																		c3.6,7.7,8.4,14.9,14.3,21c-2.5-2-5.2-3.9-7.9-5.6c-1.6-1-3.4-2-5.3-0.8c-0.9,0.6-1.5,1.5-1.8,2.5
																		c-0.7,2.5,0.5,4.9,1.8,7c5.9,9,16.1,14,25.8,18.6c0,0-0.1,0-0.1-0.1c-5.7-3.1-14.4,1.6-5.6,9
																		c4.7,4,10.6,6.4,16.4,8.3c9,2.8,18.4,3.9,27.7,4.9L131.5,285z"/>
																</defs>
																<clipPath id="SVGID_00000183957496382446363810000016083795582238375558_">
																	<use xlink:href="#SVGID_00000114766206129407539500000018427421896958199485_"  style="overflow:visible;"/>
																</clipPath>
																<path style="clip-path:url(#SVGID_00000183957496382446363810000016083795582238375558_);fill:#40A240;" d="
																	M138,298.7c-0.1,0-0.3,0-0.4-0.1c-32.9-14.4-63-57-63.3-57.4c-0.3-0.4-0.2-1,0.2-1.3s1-0.2,1.3,0.2
																	c0.3,0.4,30.1,42.6,62.5,56.8c0.5,0.2,0.7,0.8,0.5,1.3C138.6,298.4,138.4,298.7,138,298.7z"/>
															</g>
														</g>
													</g>
												</g>
											</g>
										</g>
									</g>
									<g>
										<g>
											<g>
												<circle id="XMLID_39_" class="st32" cx="216.4" cy="318" r="108.4"/>
											</g>
											<g>
												<g>
													<defs>
														<circle id="SVGID_00000109742923200342291490000011057144932221696666_" cx="216.4" cy="318" r="108.4"/>
													</defs>
													<clipPath id="SVGID_00000134209671810405774770000006529954026074099617_">
														<use xlink:href="#SVGID_00000109742923200342291490000011057144932221696666_"  style="overflow:visible;"/>
													</clipPath>
													<g style="clip-path:url(#SVGID_00000134209671810405774770000006529954026074099617_);">
														<g>
															<path class="st34" d="M170.7,211.1c8.7-1.3,16.8,6,19.6,14.3c2.7,8.4,1.5,17.4,0.1,26.1c-0.5,3.3-1.4,7.2-4.5,8.5
																c-4.1,1.8-8.4-2.4-9.9-6.5c-1.5-4.2-1.9-9-5-12.2c-4.2-4.4-11.9-3.3-16.6,0.5c-4.7,3.9-7.1,9.7-9.4,15.4
																c4.8-1.1,10.1,2.7,10.5,7.6c0.1,1.5,0,3.3,1.2,4.2c1.9,1.4,4.1-1.2,6.3-2.3c3.8-2,8.5,1.8,9.2,6s-1.3,8.3-3.2,12.1
																c-1.1,2.2-2.4,4.5-4.6,5.6c-4.1,1.9-8.4-1.4-12.2-3.8c-3.8-2.4-10.2-3-11.5,1.3c1.8,8.1,3.1,18.1-3.3,23.4
																c-2.6,2.2-6,3.1-9,4.7c-8.3,4.7-11.8,14.6-17,22.6c-1.4,2.1-3.8,4.4-6.2,3.5c-1.6-0.6-2.4-2.2-3-3.7
																c-10-25.2-0.6-53.8,11.4-78.1c6.2-12.6,13.2-25.1,23.5-34.7c10.3-9.6,24.4-15.9,38.3-14.1"/>
														</g>
														<g>
															<path class="st34" d="M124.2,348.6c4.6-3.6,11.3,0.5,14.8,5.1c3.5,4.7,6.7,10.6,12.5,11.7c4.3,0.8,8.7-1.5,13.1-1.2
																c6.4,0.4,11.6,7.5,10,13.8c-1.3,5-5.8,8.5-9.7,11.9s-7.8,7.9-7.2,13.1c0.2,1.9,1.1,3.8,0.8,5.7
																c-0.5,3.5-4.7,5.4-8.1,4.7c-3.4-0.6-6.2-3.1-8.8-5.4c-7.4-6.6-14.8-13.6-19.3-22.4c-5.3-10.3-6.3-22.7-2.6-33.7
																c0.7-2,2.4-4.4,4.4-3.7"/>
														</g>
														<g>
															<path class="st34" d="M228.7,219.8c-2.1,1.2-3.9,2.6-5.2,4.7c-0.8,1.3-1.2,2.7-1.2,4.2c0.1,4,3.3,5.6,6.1,7.3
																c4.6,2.9,8.5,6.9,11.2,11.6c0.5,0.9,1,1.9,1,2.9c-0.1,1.6-1.3,2.8-2.5,3.8c-2.4,2.1-4.7,4.2-7.1,6.3
																c-4.1,3.6-8.3,7.4-9.4,13c-0.5,2.6-0.1,5.4,1.4,7.6c3.9,5.4,11.4,3.6,16.1,0c4.2-3.2,7.4-7.7,12-10.3
																c10.2-5.8,22.9-0.7,34.2,2.4c3,0.8,6.2,1.5,9.2,0.7c4.6-1.2,8.1-5.8,12.8-6.2c3.3-0.3,6.8,1.3,9.6-1.5
																c1.2-1.2,1.9-3,1.9-4.7c0.1-3.7-2-6.9-4.1-9.7c-15.9-21.4-38.7-37.4-64.2-45.1c-5.4-1.6-11.1-0.7-15.9,2.3
																c-0.6,0.4-1.4,0.5-2.2,0.4c-3-0.3-4.8,3.1-2.9,5.4l0,0C230.9,216.4,230.4,218.8,228.7,219.8z"/>
														</g>
														<g>
															<path class="st34" d="M333.5,280.4c-5.9,1.1-12-4.2-17.5-1.9c-6.1,2.5-5.2,11.6-10.1,15.8
																c-6.1,5.2-15.7-0.2-23.8,0.9c-6.9,0.9-12,6.6-15.7,12.3c-6.7,10.2-11.2,22.8-7.6,34.4c0.4,1.3,1.1,2.7,2.4,3.3
																c1.5,0.6,3.2-0.1,4.6-0.9c4.6-2.5,9-5.5,12.9-8.9c1.2-1,2.4-2.1,3.9-2.3c3-0.5,5.4,2,7.3,4.3
																c6.7,7.8,16.4,15.1,26.8,13.1c11.2-2.2,16.8-14.1,19.3-24.7s3.4-21.5,2.9-32.3c-0.3-5.4-2.5-12.3-8.1-12.5"/>
														</g>
													</g>
												</g>
											</g>
											<g>
												<g>
													<defs>
														<circle id="SVGID_00000065055607797178649920000001578002274838229929_" cx="216.4" cy="318" r="108.4"/>
													</defs>
													<clipPath id="SVGID_00000172407643328766147830000012458473489159961492_">
														<use xlink:href="#SVGID_00000065055607797178649920000001578002274838229929_"  style="overflow:visible;"/>
													</clipPath>
													
														<path style="opacity:0.56;clip-path:url(#SVGID_00000172407643328766147830000012458473489159961492_);fill:#74BFD8;enable-background:new    ;" d="
														M274.2,222.3c0,0,47.9,55.7,21.2,126.9c-26.3,70.1-93.5,79.1-93.5,79.1s94.6,13.4,123.6-77.9S274.2,222.3,274.2,222.3z
														"/>
												</g>
											</g>
										</g>
									</g>
								</g>
								<g>
									<g>
										<g>
											<path class="st36" d="M90.6,120c-2.2-8.7-13.2-12.2-22-10.7s-16.8,6.3-25.6,8.1c-11.5,2.4-24.5-1.1-31.8-10.2
												c-7.4-9.1-7.5-23.9,0.9-32c4-3.8,9.3-5.9,13.3-9.6c4.8-4.5,7.3-11.2,6.8-17.7c-0.4-4-1.8-7.8-2-11.8
												C29.6,24.6,38,12.2,49.1,8.9c25.4-7.6,28.6,11.5,40,16.5c7.2,3.1,15.7,0.9,23.2,3.2c11.2,3.4,17.4,17.9,12.1,28.4
												c-5.5,10.8-13.8,17.5-21.8,26.6c-8.6,9.9-8.1,18.9-5.9,33.2L90.6,120z"/>
										</g>
										<path class="st6" d="M104.1,48.4c-3.5-4.3-4.2-9.6-1.5-11.8s7.7-0.5,11.2,3.8s4.2,9.6,1.5,11.8S107.6,52.7,104.1,48.4z"/>
									</g>
									<g>
										<polygon class="st37" points="98.9,138 110.4,130.1 114.5,139.2 114,143.3 109.6,146.4 105,145.4 										"/>
										<path class="st37" d="M114,142.5l44.7,67.6c0.6,0.9,0.4,2.1-0.5,2.7l0,0c-0.9,0.6-2.1,0.4-2.8-0.5l-46.9-66.1L114,142.5z"
											/>
										<g>
											<g>
												<path id="XMLID_56_" class="st6" d="M110.4,130.1c0,0-2.1-13.6-10.1-18.3l-15.2,10.5c0,0,6.1,4.1,13.8,15.7L110.4,130.1
													z"/>
											</g>
											<g>
												<g>
													<defs>
														<path id="SVGID_00000106850674234381992520000011033131699601687938_" d="M110.4,130.1c0,0-2.1-13.6-10.1-18.3
															l-15.2,10.5c0,0,6.1,4.1,13.8,15.7L110.4,130.1z"/>
													</defs>
													<clipPath id="SVGID_00000039818532619057767950000016307671563520906408_">
														<use xlink:href="#SVGID_00000106850674234381992520000011033131699601687938_"  style="overflow:visible;"/>
													</clipPath>
													<path style="clip-path:url(#SVGID_00000039818532619057767950000016307671563520906408_);fill:#6CC4D2;" d="
														M90.7,130.6c5.8,0.5,5.3-2.4,7.3-5.3c1.9-2.9,3.4-1,6.3-2.4c2.9-1.5,2.4-7.8,2.4-7.8l-6.3-5.8L82,121.9l10.2,9.2"/>
												</g>
											</g>
										</g>
									</g>
								</g>
							</g>
						</g>
					</g>
				</g>
				<g>
					
						<rect x="150.9" y="248.8" transform="matrix(0.8871 -0.4616 0.4616 0.8871 -97.1518 104.6269)" class="st21" width="28.7" height="4.2"/>
					<polygon class="st21" points="164.4,231.6 187.9,248.8 182.1,251.9 158.8,234.2 					"/>
					<polygon class="st21" points="155.5,265.7 149.9,268.6 149.5,237.1 155,234.2 					"/>
					<polygon class="st21" points="119.9,179.3 176.2,254.9 170.9,257.6 114.7,181.9 					"/>
					
						<rect x="102.5" y="182.2" transform="matrix(0.8871 -0.4616 0.4616 0.8871 -80.9031 88.6716)" class="st6" width="76.7" height="55"/>
					<path class="st39" d="M134.6,218.7c-1-2.4-1.9-4.8-2.6-7.3c-0.6-2-1.7-4.8-1.7-6.9c-0.5,1.1-0.9,2.3-1.4,3.4
						c0.1-0.1,0.2-0.2,0.4-0.3c-1.1,0.5-2.3,0.9-3.4,1.4c-1.2,0,0,0.3,0.4,0.7c0.6,0.5,1.2,1.2,1.7,1.8c0.9,1.1,1.6,2.4,2.4,3.7
						c1.8,3,3.5,5.9,5.8,8.6c2.6,3.1,8.5,0.6,8.2-3.4c-0.5-6.3-1-12.7-1.6-19c-2,1.5-4,3.1-6.1,4.6c-1.3-0.5,0.1,0.7,0.4,1.4
						c0.5,1.1,0.9,2.3,1.5,3.4c1.3,2.5,3.3,4.3,6.1,5.2c3.1,1,5.9-1.6,6.1-4.6c0.1-1.5,0.2-3.1,0.2-4.6c0-0.6-0.1-3.2,0-3.5
						c-1,0.7-1.9,1.5-2.9,2.2c0.2,0,0.5-0.1,0.7-0.1c-1.2-0.2-2.5-0.3-3.7-0.5c1.4,0.8,2.8,3.4,3.7,4.7c2.3,3,7.7,3.3,8.7-1.1
						c0.4-1.8,0.8-3.6,1.2-5.4c1.4-6-7.9-8.6-9.2-2.5c-0.4,1.8-0.8,3.6-1.2,5.4c2.9-0.4,5.8-0.8,8.7-1.1c-2.9-3.7-6.4-10.7-12.2-8.2
						c-4.9,2.1-3.7,10.6-3.9,14.9c2-1.5,4-3.1,6.1-4.6c-0.4-0.1-1.6-3.6-2-4.4c-1.4-2.7-3.2-4.3-6-5.5s-6.3,1.8-6.1,4.6
						c0.5,6.3,1,12.7,1.6,19c2.7-1.1,5.4-2.3,8.2-3.4c-4.7-5.6-6.9-14-14.2-17.1c-4.6-1.9-8.7,1.5-7.9,6.4
						c0.8,5.1,2.6,10.1,4.5,14.9c1,2.4,3.2,4.1,5.9,3.3C133.5,224,135.6,221.1,134.6,218.7L134.6,218.7z"/>
					
						<rect x="113.9" y="232.9" transform="matrix(0.8871 -0.4616 0.4616 0.8871 -90.9297 97.7496)" class="st21" width="80.8" height="3.7"/>
				</g>
			</g>
		</g>
	</g>
</g>
</svg>
