<?xml version="1.0" encoding="UTF-8"?>
<svg id="_圖層_2" data-name="圖層 2" xmlns="http://www.w3.org/2000/svg" width="263.6" height="263.6" xmlns:xlink="http://www.w3.org/1999/xlink" viewBox="0 0 263.6 263.6">
  <defs>
    <clipPath id="clippath">
      <circle cx="131.95" cy="132" r="122.96" style="fill: none;"/>
    </clipPath>
  </defs>
  <g id="_第一cut" data-name="第一cut">
    <g id="social_person">
      <g style="clip-path: url(#clippath);">
        <circle cx="131.95" cy="132" r="122.96" style="fill: #c7f7ff;"/>
        <g>
          <path d="m83.64,100.71s-8.15-25.34,12.49-35.36c20.64-10.01,74.47-.52,74.47-.52,0,0,6.29,35.67-.37,40.32-6.66,4.66-86.59-4.44-86.59-4.44Z" style="fill: #323942;"/>
          <circle cx="83.64" cy="111.89" r="12.65" transform="translate(-44.52 167.48) rotate(-76.67)" style="fill: #e48282;"/>
          <circle cx="177.56" cy="111.89" r="12.65" transform="translate(-29.23 76.06) rotate(-22.39)" style="fill: #e48282;"/>
          <path d="m146.93,157.81l-2.14-28.1-21.94,3.01-3.58,41.07c7.24-.87,19.03-4.19,27.66-15.99Z" style="fill: #e49581;"/>
          <path d="m164.35,125.35c-1.22,2.66-1.85,5.57-3.26,8.14-3.79,6.93-12.69,9.81-19.84,6.44-2.1-.99-4.02-2.47-6.3-2.89-2.1-.39-4.37.23-5.98,1.64-1.36,1.18-2.27,2.87-3.84,3.75-1.1.62-2.41.77-3.67.78-6.64.07-12.24-3.01-16.05-8.34-3.45-4.83-5.62-10.57-9.82-14.85-2.28-2.32-5.06-4.07-7.88-5.71.04.32.07.65.11.99,1.47,13.27,7.81,24.83,19.86,31.25,12.08,6.44,28.53,8.73,41.39,3.44,9.96-4.1,17.65-11.41,21.59-21.26,1.48-3.7,2.47-7.74,3.12-11.92-4.09,1.18-7.6,4.59-9.42,8.55Z" style="fill: #323942;"/>
          <path d="m174.58,91.02c-2.24-44.9-38.8-44.23-38.8-44.23,0,0-48.78-3.76-48.59,53.06-.39,6.38-.14,8.53.52,14.45,2.82,1.64,5.6,3.38,7.88,5.71,6.02,6.13,8.15,15.8,15.41,20.4,2.93,1.86,6.43,2.66,9.9,2.77,1.69.05,3.5-.1,4.86-1.1,1.04-.77,1.69-1.94,2.58-2.87,1.74-1.82,4.46-2.65,6.92-2.11,2.15.47,3.95,1.86,5.94,2.81,3.47,1.66,7.57,1.94,11.23.76,3.66-1.18,6.83-3.8,8.67-7.18,1.4-2.57,2.04-5.48,3.26-8.14,1.82-3.96,5.33-7.37,9.42-8.55,1.32-8.52,1.22-17.65.81-25.77Z" style="fill: #f4b5a3;"/>
          <path d="m49.09,258.19s15.84-77.74,84.02-77.74,77.07,77.74,77.07,77.74H49.09Z" style="fill: #b5d6d8;"/>
          <path d="m119.27,173.79l-1.58,18.08s.78-.4,15.41,1.33c14.63,1.72,15.67-11.25,15.67-11.25l-1.84-24.14c-8.63,11.79-20.42,15.12-27.66,15.99Z" style="fill: #f4b5a3;"/>
          <path d="m113.07,108.88c0,2.48-1.01,4.49-2.24,4.49s-2.24-2.01-2.24-4.49,1.01-4.49,2.24-4.49,2.24,2.01,2.24,4.49Z" style="fill: #323942;"/>
          <ellipse cx="152.38" cy="109.65" rx="2.24" ry="4.49" style="fill: #323942;"/>
          <path d="m135.58,111.89c-1.29.86-2.64,1.55-3.74,2.57-.33.31-.59.67-.59.91-.03.22.11.49.49.8,1.06,1.07,2.48.96,3.85.2-.58.87-1.69,1.57-2.94,1.41-.62-.06-1.18-.38-1.64-.73-.42-.3-1.03-.94-.96-1.8.12-.82.61-1.28,1.04-1.65,1.31-1.01,2.89-1.53,4.5-1.71h0Z" style="fill: #323942;"/>
          <path d="m126.91,126.71c3.24,2.24,7.5,3.53,10.93,1.01.49-.3.93-.69,1.45-1.01-.32.5-.66,1.02-1.07,1.47-3.14,3.61-8.9,2.28-11.31-1.47h0Z" style="fill: #323942;"/>
          <circle cx="108.58" cy="121.35" r="4.73" style="fill: #e48282;"/>
          <circle cx="154.04" cy="122.42" r="4.73" style="fill: #e48282;"/>
          <path d="m145.73,100.71c2.49-6.8,12.65-8,15.94-1.2-1.51-.36-2.81-.92-4.26-1.14-4.18-.9-7.8.71-11.68,2.34h0Z" style="fill: #323942;"/>
          <path d="m118.09,99.51c-2.74-2.14-5.32-2.85-8.07-2.74-3,.05-6.05,1.14-9.11,1.56,2.16-2.79,5.39-4.67,9.01-4.8,3.59-.24,7.72,2.24,8.16,5.97h0Z" style="fill: #323942;"/>
          <path d="m145.55,121.55c-3.91,1.5-6.6-7.81-11.38-4.17,0,0-.17.14-.81.03v-.12c-.1.03-.18.05-.26.07-.08-.02-.16-.04-.26-.07v.12c-.64.11-.81-.03-.81-.03-4.77-3.64-7.47,5.67-11.38,4.17,3.51,2.76,5.85,3.56,12.44.09,6.6,3.47,8.93,2.67,12.44-.09Z" style="fill: #323942;"/>
          <path d="m173.2,98.61c-6.07-1.64-10.72-33.21-20.82-33.73-10.1-.52-43.07,31.46-61.28,16.95-18.22-14.52-14.57-32.73-11.1-34.12,3.47-1.39,4.86,7.46,4.86,7.46,0,0-1.05-9.71,2.86-10.41,3.91-.69,4.43,8.5,4.43,8.5,0,0-2.29-11.28,4.15-11.45,6.43-.17,2.96,10.93,2.96,10.93,0,0,42.57-26.39,55.37-6,26.88,5.6,24.65,53.51,18.58,51.87Z" style="fill: #323942;"/>
          <path d="m154.04,48.23s1.65-8.97,3.87-9.22c2.22-.25-1.93,8.06-1.93,8.06,0,0,3.78-4.86,4.89-3.45,1.11,1.41-4.9,5.85-6.82,4.62Z" style="fill: #323942;"/>
          <path d="m118.71,180.28l14.4,12.91-8.1,15.82s-13.94-11.01-13.26-25.76c7.84-13.01,7.46-8.63,7.46-8.63l-.49,5.66Z" style="fill: #a4b7b7;"/>
          <path d="m148.4,180.28l-15.3,12.91,9,15.82s13.94-11.01,13.26-25.76c-7.84-13.01-7.46-8.63-7.46-8.63l.49,5.66Z" style="fill: #a4b7b7;"/>
          <path d="m134.91,209.02c0,.93-.75,1.68-1.68,1.68s-1.68-.75-1.68-1.68.75-1.68,1.68-1.68,1.68.75,1.68,1.68Z" style="fill: #fff;"/>
          <path d="m134.91,236.65c0,.93-.75,1.68-1.68,1.68s-1.68-.75-1.68-1.68.75-1.68,1.68-1.68,1.68.75,1.68,1.68Z" style="fill: #fff;"/>
        </g>
      </g>
      <g>
        <path d="m131.86,263.6c-.39,0-.7-.31-.7-.7s.31-.7.7-.7c1.23,0,2.48-.02,3.72-.05.38-.03.71.29.72.68.01.39-.29.71-.68.72-1.25.04-2.52.05-3.76.05Zm-3.74-.05s-.01,0-.02,0c-1.25-.03-2.51-.09-3.76-.16-.39-.02-.68-.35-.66-.74.02-.39.34-.68.74-.66,1.24.07,2.49.12,3.72.15.39.01.69.33.68.72-.01.38-.32.68-.7.68Zm11.23-.16c-.37,0-.68-.29-.7-.66-.02-.39.27-.72.66-.74,1.23-.07,2.48-.16,3.71-.26.37-.04.72.25.76.64.03.39-.25.72-.64.76-1.25.11-2.51.2-3.75.27-.01,0-.03,0-.04,0Zm-18.7-.25s-.04,0-.06,0c-1.24-.11-2.5-.23-3.74-.37-.38-.04-.66-.39-.62-.77.04-.38.39-.66.77-.62,1.23.14,2.47.26,3.71.36.39.03.67.37.64.76-.03.37-.34.64-.7.64Zm26.16-.38c-.35,0-.65-.26-.69-.62-.04-.38.23-.73.62-.77,1.23-.14,2.47-.3,3.69-.47.38-.06.74.21.79.59.06.38-.21.74-.59.79-1.24.18-2.49.34-3.73.48-.03,0-.05,0-.08,0Zm-33.6-.46s-.07,0-.1,0c-1.24-.18-2.49-.37-3.72-.58-.38-.07-.64-.43-.57-.81.07-.38.43-.64.81-.57,1.22.21,2.46.4,3.68.58.38.05.65.41.59.79-.05.35-.35.6-.69.6Zm41.01-.6c-.33,0-.63-.24-.69-.58-.07-.38.19-.74.57-.81,1.21-.21,2.44-.44,3.66-.68.37-.07.75.17.82.55.08.38-.17.75-.55.82-1.23.25-2.48.48-3.7.69-.04,0-.08.01-.12.01Zm-48.39-.66s-.09,0-.14-.01c-1.23-.25-2.47-.51-3.68-.79-.38-.09-.61-.46-.52-.84.09-.38.46-.61.84-.52,1.2.28,2.42.54,3.64.79.38.08.62.45.55.82-.07.33-.36.56-.69.56Zm55.72-.82c-.32,0-.61-.22-.68-.54-.09-.38.15-.75.52-.84,1.2-.28,2.41-.58,3.61-.89.38-.1.76.13.85.5.1.37-.13.76-.5.85-1.21.32-2.44.62-3.65.9-.05.01-.11.02-.16.02Zm-63.02-.87c-.06,0-.12,0-.18-.02-1.21-.32-2.43-.66-3.63-1-.37-.11-.58-.5-.47-.87.11-.37.5-.58.87-.47,1.18.35,2.39.68,3.59.99.37.1.6.48.5.85-.08.31-.37.52-.68.52Zm70.26-1.03c-.3,0-.58-.2-.67-.5-.11-.37.1-.76.47-.87,1.19-.35,2.39-.72,3.56-1.1.37-.12.76.08.88.45.12.37-.08.76-.45.88-1.18.38-2.39.76-3.6,1.11-.07.02-.13.03-.2.03Zm-77.44-1.07c-.07,0-.14-.01-.22-.03-1.19-.39-2.39-.79-3.58-1.22-.36-.13-.55-.53-.42-.89.13-.36.53-.55.89-.42,1.17.42,2.36.82,3.54,1.2.37.12.57.51.45.88-.1.3-.37.48-.67.48Zm84.56-1.25c-.29,0-.56-.18-.66-.46-.13-.36.06-.76.42-.89,1.16-.41,2.33-.85,3.49-1.3.36-.14.77.04.91.4.14.36-.04.77-.4.91-1.17.46-2.36.9-3.53,1.32-.08.03-.16.04-.24.04Zm-91.64-1.27c-.08,0-.17-.02-.25-.05-1.17-.45-2.34-.93-3.5-1.42-.36-.15-.52-.56-.37-.92.15-.36.56-.52.92-.37,1.14.48,2.31.96,3.46,1.4.36.14.54.55.4.91-.11.28-.37.45-.65.45Zm98.6-1.44c-.27,0-.53-.16-.65-.43-.15-.36.02-.77.37-.92,1.12-.48,2.27-.98,3.4-1.5.35-.16.77,0,.93.35.16.35,0,.77-.35.93-1.14.52-2.3,1.03-3.43,1.51-.09.04-.18.06-.27.06Zm-105.52-1.48c-.1,0-.2-.02-.29-.06-1.14-.52-2.28-1.06-3.41-1.62-.35-.17-.49-.59-.32-.94.17-.35.59-.49.94-.32,1.11.55,2.25,1.09,3.37,1.6.35.16.51.58.35.93-.12.26-.37.41-.64.41Zm112.3-1.63c-.26,0-.51-.14-.63-.39-.17-.35-.03-.77.32-.94,1.11-.54,2.22-1.11,3.31-1.69.34-.18.76-.05.95.29.18.34.05.76-.29.95-1.1.58-2.23,1.16-3.34,1.71-.1.05-.21.07-.31.07Zm-119.03-1.69c-.11,0-.22-.03-.33-.08-1.1-.58-2.21-1.19-3.31-1.81-.34-.19-.46-.62-.26-.95.19-.34.62-.45.95-.26,1.08.61,2.19,1.22,3.27,1.79.34.18.47.6.29.95-.13.24-.37.37-.62.37Zm125.64-1.8c-.24,0-.48-.13-.61-.35-.19-.34-.07-.76.26-.95,1.07-.61,2.15-1.24,3.21-1.88.33-.2.76-.09.96.24.2.33.09.76-.24.96-1.07.64-2.16,1.28-3.24,1.9-.11.06-.23.09-.34.09Zm-132.16-1.89c-.12,0-.25-.03-.36-.1-1.07-.64-2.14-1.31-3.2-1.99-.33-.21-.42-.64-.21-.97.21-.33.64-.42.97-.21,1.04.67,2.11,1.34,3.16,1.97.33.2.44.63.24.96-.13.22-.36.34-.6.34Zm138.56-1.97c-.23,0-.46-.11-.59-.32-.21-.33-.11-.76.21-.97,1.03-.66,2.07-1.35,3.1-2.06.32-.22.75-.14.97.18.22.32.14.75-.18.97-1.04.71-2.09,1.41-3.13,2.08-.12.08-.25.11-.38.11Zm-144.86-2.08c-.14,0-.27-.04-.39-.12-1.03-.7-2.06-1.43-3.08-2.17-.31-.23-.38-.66-.15-.98.23-.31.67-.38.98-.15,1.01.73,2.03,1.45,3.04,2.15.32.22.4.65.18.97-.14.2-.35.3-.58.3Zm151.03-2.14c-.22,0-.43-.1-.57-.29-.23-.31-.16-.75.15-.98,1-.73,2-1.48,2.98-2.23.31-.24.74-.18.98.13.24.31.18.75-.13.98-.99.76-2,1.52-3.01,2.25-.12.09-.27.13-.41.13Zm-157.09-2.27c-.15,0-.3-.05-.43-.15-.99-.76-1.98-1.55-2.95-2.34-.3-.24-.34-.69-.1-.98.24-.3.69-.34.98-.1.96.78,1.94,1.56,2.92,2.32.31.24.36.68.13.98-.14.18-.35.27-.55.27Zm163.01-2.3c-.2,0-.4-.09-.54-.26-.24-.3-.2-.74.1-.99.96-.78,1.92-1.59,2.85-2.4.29-.25.73-.22.99.07.25.29.22.73-.07.99-.94.82-1.91,1.63-2.88,2.42-.13.11-.29.16-.44.16Zm-168.8-2.45c-.16,0-.33-.06-.46-.17-.95-.82-1.89-1.66-2.81-2.51-.28-.26-.3-.7-.04-.99s.7-.3.99-.04c.91.83,1.84,1.67,2.78,2.48.29.25.32.69.07.99-.14.16-.33.24-.53.24Zm174.46-2.45c-.19,0-.38-.08-.52-.23-.26-.28-.24-.73.04-.99.91-.83,1.82-1.69,2.71-2.56.28-.27.72-.26.99.01.27.28.26.72-.01.99-.9.87-1.82,1.74-2.74,2.58-.13.12-.3.18-.47.18Zm-179.97-2.61c-.18,0-.35-.07-.49-.2-.89-.87-1.79-1.76-2.66-2.66-.27-.28-.26-.72.01-.99.28-.27.72-.26.99.01.86.89,1.75,1.77,2.63,2.63.28.27.28.71.01.99-.14.14-.32.21-.5.21Zm185.34-2.61c-.18,0-.35-.07-.49-.2-.28-.27-.28-.71-.01-.99.86-.89,1.72-1.8,2.56-2.7.26-.29.7-.3.99-.04.28.26.3.7.04.99-.85.92-1.71,1.84-2.59,2.73-.14.14-.32.21-.5.21Zm-190.56-2.76c-.19,0-.38-.08-.52-.23-.84-.91-1.68-1.86-2.5-2.81-.25-.29-.22-.73.07-.99.29-.25.73-.22.99.07.81.94,1.65,1.87,2.48,2.78.26.28.24.73-.04.99-.13.12-.3.18-.47.18Zm195.63-2.75c-.16,0-.33-.06-.46-.17-.29-.25-.32-.7-.07-.99.81-.93,1.62-1.89,2.4-2.85.25-.3.69-.34.98-.1.3.24.34.69.1.98-.79.97-1.61,1.93-2.43,2.88-.14.16-.33.24-.53.24Zm-200.53-2.9c-.2,0-.4-.09-.54-.26-.79-.97-1.58-1.96-2.34-2.94-.24-.31-.18-.75.13-.98.31-.24.75-.18.98.13.75.97,1.53,1.95,2.32,2.91.24.3.2.74-.1.99-.13.11-.29.16-.44.16Zm205.28-2.89c-.15,0-.3-.05-.43-.15-.31-.24-.36-.68-.13-.98.75-.97,1.51-1.98,2.24-2.98.23-.31.67-.38.98-.15.31.23.38.67.15.98-.74,1.01-1.5,2.03-2.26,3.01-.14.18-.34.27-.55.27Zm-209.85-3.03c-.22,0-.43-.1-.57-.29-.73-1-1.46-2.03-2.17-3.07-.22-.32-.14-.75.18-.97.32-.22.75-.14.97.18.7,1.02,1.42,2.05,2.15,3.04.23.31.16.75-.15.98-.12.09-.27.13-.41.13Zm214.26-3.03c-.14,0-.27-.04-.4-.12-.32-.22-.4-.65-.18-.97.7-1.02,1.39-2.06,2.06-3.1.21-.33.64-.42.97-.21.32.21.42.64.21.97-.68,1.05-1.38,2.11-2.09,3.14-.14.2-.35.3-.58.3Zm-218.48-3.14c-.23,0-.46-.11-.59-.32-.67-1.05-1.34-2.12-1.99-3.19-.2-.33-.09-.76.24-.96.33-.2.76-.09.96.24.64,1.06,1.3,2.12,1.97,3.15.21.32.12.76-.21.97-.12.08-.25.11-.38.11Zm222.54-3.16c-.12,0-.25-.03-.36-.1-.33-.2-.44-.63-.24-.96.64-1.06,1.27-2.14,1.88-3.22.19-.34.62-.45.95-.26.34.19.45.62.26.95-.62,1.09-1.26,2.18-1.9,3.25-.13.22-.36.34-.6.34Zm-226.41-3.23c-.24,0-.48-.13-.61-.35-.62-1.09-1.22-2.19-1.8-3.29-.18-.34-.05-.77.29-.95.34-.18.76-.05.95.29.58,1.09,1.18,2.18,1.78,3.26.19.34.07.76-.26.95-.11.06-.23.09-.34.09Zm230.11-3.29c-.11,0-.22-.03-.33-.08-.34-.18-.47-.6-.29-.95.58-1.1,1.15-2.22,1.7-3.32.17-.35.59-.49.94-.32.35.17.49.59.32.94-.55,1.12-1.13,2.25-1.72,3.36-.13.24-.37.37-.62.37Zm-233.6-3.31c-.26,0-.51-.14-.63-.39-.55-1.11-1.09-2.25-1.61-3.39-.16-.35,0-.77.34-.93.35-.16.77,0,.93.34.52,1.13,1.05,2.25,1.6,3.35.17.35.03.77-.32.94-.1.05-.21.07-.31.07Zm236.92-3.42c-.1,0-.2-.02-.29-.06-.35-.16-.51-.58-.35-.93.52-1.13,1.02-2.28,1.5-3.42.15-.36.56-.52.92-.37.36.15.52.56.37.92-.49,1.15-1,2.31-1.52,3.45-.12.26-.37.41-.64.41Zm-240.03-3.36c-.27,0-.53-.16-.64-.43-.49-1.14-.96-2.31-1.41-3.47-.14-.36.04-.77.4-.91.36-.14.77.04.91.4.45,1.15.92,2.3,1.4,3.44.15.36-.02.77-.37.92-.09.04-.18.06-.27.06Zm242.95-3.55c-.08,0-.17-.02-.25-.05-.36-.14-.54-.55-.4-.91.45-1.16.89-2.34,1.31-3.5.13-.36.53-.55.89-.42.36.13.55.53.42.89-.42,1.17-.86,2.36-1.32,3.54-.11.28-.37.45-.65.45Zm-245.67-3.41c-.29,0-.56-.18-.66-.46-.42-1.18-.83-2.38-1.22-3.56-.12-.37.08-.76.45-.88.37-.12.76.08.88.45.38,1.17.79,2.35,1.2,3.52.13.36-.06.76-.42.89-.08.03-.16.04-.24.04Zm248.2-3.66c-.07,0-.14-.01-.22-.03-.37-.12-.57-.51-.45-.88.38-1.17.75-2.37,1.1-3.56.11-.37.5-.58.87-.47.37.11.58.5.47.87-.35,1.2-.73,2.41-1.11,3.6-.1.3-.37.48-.67.48Zm-250.51-3.46c-.3,0-.58-.2-.67-.5-.35-1.2-.69-2.42-1.01-3.63-.1-.37.12-.76.5-.85.37-.1.76.13.85.5.31,1.19.65,2.4,1,3.59.11.37-.1.76-.47.87-.07.02-.13.03-.2.03Zm252.62-3.73c-.06,0-.12,0-.18-.02-.37-.1-.6-.48-.5-.85.31-1.19.61-2.41.89-3.61.09-.38.46-.61.84-.52.38.09.61.46.52.84-.28,1.22-.59,2.45-.9,3.65-.08.31-.37.52-.68.52Zm-254.52-3.51c-.32,0-.61-.22-.68-.54-.28-1.22-.55-2.46-.8-3.68-.08-.38.17-.75.55-.82.38-.08.75.17.82.55.24,1.21.51,2.43.79,3.64.09.38-.15.75-.52.84-.05.01-.11.02-.16.02Zm256.21-3.78s-.09,0-.14-.01c-.38-.08-.62-.45-.55-.82.24-1.21.47-2.44.68-3.66.07-.38.43-.64.81-.57.38.07.64.43.57.81-.21,1.23-.44,2.48-.69,3.7-.07.33-.36.56-.69.56ZM2.62,154.97c-.33,0-.63-.24-.69-.58-.21-1.24-.41-2.49-.59-3.72-.06-.38.21-.74.59-.79.38-.05.74.21.79.59.17,1.22.37,2.45.58,3.68.07.38-.19.74-.57.81-.04,0-.08,0-.12,0Zm258.97-3.82s-.07,0-.1,0c-.38-.05-.65-.41-.59-.79.17-1.23.33-2.47.47-3.69.04-.38.39-.66.77-.62.38.04.66.39.62.77-.14,1.23-.3,2.49-.48,3.73-.05.35-.35.6-.69.6ZM1.55,147.57c-.35,0-.65-.26-.69-.62-.14-1.25-.27-2.51-.37-3.74-.03-.39.25-.72.64-.76.39-.04.72.25.76.64.1,1.22.23,2.47.37,3.7.04.38-.23.73-.62.77-.03,0-.05,0-.08,0Zm260.87-3.85s-.04,0-.06,0c-.39-.03-.67-.37-.64-.76.1-1.24.19-2.49.26-3.71.02-.39.36-.66.74-.66.39.02.68.35.66.74-.07,1.24-.16,2.5-.26,3.75-.03.37-.34.64-.7.64ZM.92,140.11c-.37,0-.68-.29-.7-.66-.07-1.25-.13-2.51-.16-3.76-.01-.39.29-.71.68-.72,0,0,.01,0,.02,0,.38,0,.69.3.7.68.04,1.23.09,2.49.16,3.72.02.39-.27.72-.66.74-.01,0-.03,0-.04,0Zm261.93-3.86s-.01,0-.02,0c-.39-.01-.69-.33-.68-.72.03-1.24.05-2.49.05-3.72v-.25c0-.39.31-.7.7-.7s.7.31.7.7v.25c0,1.24-.02,2.51-.05,3.76-.01.38-.32.68-.7.68ZM.7,132.62c-.39,0-.7-.31-.7-.7v-.12c0-1.21.02-2.44.05-3.64.01-.39.34-.71.72-.68.39.01.69.33.68.72-.03,1.19-.05,2.4-.05,3.6v.12c0,.39-.31.7-.7.7Zm262.14-4.11c-.38,0-.69-.3-.7-.68-.04-1.23-.09-2.48-.16-3.72-.02-.39.27-.72.66-.74.38-.03.72.27.74.66.07,1.25.13,2.52.17,3.76.01.39-.29.71-.68.72,0,0-.01,0-.02,0ZM.9,125.14s-.03,0-.04,0c-.39-.02-.68-.35-.66-.74.07-1.24.16-2.51.26-3.75.03-.39.37-.66.76-.64.39.03.67.37.64.76-.1,1.23-.19,2.48-.26,3.71-.02.37-.33.66-.7.66Zm261.5-4.1c-.36,0-.66-.27-.7-.64-.11-1.24-.23-2.48-.37-3.7-.04-.38.23-.73.62-.78.39-.04.73.23.78.62.14,1.24.27,2.5.38,3.74.03.39-.25.72-.64.76-.02,0-.04,0-.06,0ZM1.53,117.68s-.05,0-.08,0c-.38-.04-.66-.39-.62-.77.14-1.24.3-2.5.47-3.73.05-.38.41-.65.79-.6.38.05.65.41.59.79-.17,1.22-.33,2.47-.47,3.69-.04.36-.34.62-.69.62Zm260.02-4.08c-.34,0-.64-.25-.69-.6-.18-1.23-.37-2.46-.58-3.68-.07-.38.19-.74.57-.81.38-.07.74.19.81.57.21,1.23.41,2.48.59,3.72.06.38-.21.74-.59.79-.03,0-.07,0-.1,0ZM2.58,110.27s-.08,0-.12-.01c-.38-.07-.64-.43-.57-.81.21-1.23.44-2.48.69-3.7.08-.38.45-.62.82-.55.38.08.62.44.55.82-.24,1.21-.47,2.44-.68,3.66-.06.34-.35.58-.69.58Zm257.69-4.04c-.33,0-.62-.23-.68-.56-.24-1.2-.51-2.43-.79-3.64-.09-.38.15-.75.52-.84.38-.09.75.15.84.52.29,1.22.56,2.46.8,3.68.08.38-.17.75-.55.83-.05,0-.09.01-.14.01ZM4.05,102.93c-.05,0-.1,0-.16-.02-.38-.09-.61-.46-.52-.84.28-1.21.58-2.44.9-3.65.1-.37.48-.6.85-.5.37.1.6.48.5.85-.31,1.2-.61,2.42-.89,3.62-.07.32-.36.54-.68.54Zm254.52-3.99c-.31,0-.59-.21-.68-.52-.32-1.2-.65-2.4-1-3.59-.11-.37.1-.76.47-.87.37-.11.76.1.87.47.35,1.19.69,2.41,1.01,3.62.1.37-.12.76-.5.86-.06.02-.12.02-.18.02Zm-252.62-3.25c-.07,0-.13,0-.2-.03-.37-.11-.58-.5-.48-.87.35-1.19.72-2.4,1.11-3.6.12-.37.51-.57.88-.45.37.12.57.51.45.88-.38,1.18-.75,2.38-1.09,3.56-.09.31-.37.5-.67.5Zm250.51-3.93c-.29,0-.57-.19-.67-.48-.38-1.17-.79-2.36-1.21-3.52-.13-.36.06-.76.42-.9.36-.13.76.06.9.42.42,1.18.83,2.37,1.22,3.56.12.37-.08.76-.45.88-.07.02-.15.03-.22.03Zm-248.2-3.2c-.08,0-.16-.01-.23-.04-.36-.13-.55-.53-.42-.89.42-1.18.86-2.37,1.32-3.54.14-.36.54-.54.91-.4.36.14.54.55.4.91-.45,1.16-.89,2.33-1.3,3.5-.1.29-.37.47-.66.47Zm245.67-3.84c-.28,0-.54-.17-.65-.44-.45-1.14-.92-2.29-1.4-3.44-.15-.36.02-.77.37-.92.36-.15.77.02.92.37.49,1.15.97,2.32,1.42,3.47.14.36-.04.77-.4.91-.08.03-.17.05-.26.05Zm-242.95-3.16c-.09,0-.18-.02-.27-.06-.36-.15-.52-.56-.37-.92.49-1.15,1-2.32,1.52-3.45.16-.35.58-.51.93-.35.35.16.51.58.35.93-.51,1.13-1.02,2.28-1.5,3.42-.11.27-.37.43-.65.43Zm240.03-3.71c-.27,0-.52-.15-.64-.41-.51-1.12-1.05-2.24-1.6-3.35-.17-.35-.03-.77.32-.94.35-.17.77-.03.94.32.55,1.12,1.1,2.26,1.62,3.39.16.35,0,.77-.34.93-.09.04-.19.06-.29.06Zm-236.92-3.12c-.1,0-.21-.02-.31-.07-.35-.17-.49-.59-.32-.94.55-1.13,1.13-2.26,1.71-3.36.18-.34.6-.47.95-.29.34.18.47.6.29.95-.58,1.09-1.15,2.21-1.69,3.32-.12.25-.37.39-.63.39Zm233.61-3.58c-.25,0-.49-.13-.62-.37-.58-1.09-1.18-2.19-1.79-3.26-.19-.34-.07-.76.26-.95.33-.19.76-.07.95.26.61,1.08,1.22,2.19,1.81,3.29.18.34.05.77-.29.95-.1.06-.22.08-.33.08Zm-230.11-3.06c-.12,0-.24-.03-.34-.09-.34-.19-.46-.62-.26-.95.62-1.09,1.26-2.19,1.9-3.25.2-.33.63-.44.96-.24.33.2.44.63.24.96-.64,1.06-1.27,2.14-1.88,3.22-.13.23-.37.36-.61.36Zm226.42-3.44c-.24,0-.47-.12-.6-.34-.64-1.06-1.3-2.12-1.97-3.15-.21-.32-.12-.76.21-.97.32-.21.76-.12.97.21.67,1.04,1.34,2.12,1.99,3.18.2.33.09.76-.24.96-.11.07-.24.1-.36.1Zm-222.54-2.98c-.13,0-.26-.04-.38-.11-.32-.21-.42-.64-.21-.97.68-1.05,1.38-2.11,2.08-3.14.22-.32.65-.4.97-.18.32.22.4.65.18.97-.7,1.02-1.39,2.06-2.06,3.11-.13.21-.36.32-.59.32Zm218.49-3.3c-.22,0-.44-.11-.58-.3-.7-1.02-1.42-2.04-2.15-3.04-.23-.31-.16-.75.15-.98.31-.23.75-.16.98.15.74,1.01,1.47,2.04,2.17,3.07.22.32.14.75-.18.97-.12.08-.26.12-.4.12Zm-214.26-2.88c-.14,0-.29-.04-.41-.13-.31-.23-.38-.67-.15-.98.74-1.01,1.5-2.03,2.26-3.01.24-.31.68-.36.98-.13.31.24.36.68.13.98-.75.98-1.5,1.98-2.23,2.98-.14.19-.35.29-.57.29Zm209.85-3.16c-.21,0-.42-.09-.55-.27-.75-.97-1.53-1.95-2.32-2.91-.25-.3-.2-.74.1-.99.3-.24.74-.2.99.1.8.97,1.59,1.96,2.34,2.94.24.31.18.75-.13.98-.13.1-.28.15-.43.15Zm-205.27-2.77c-.16,0-.31-.05-.44-.16-.3-.24-.34-.69-.1-.98.79-.96,1.6-1.93,2.42-2.88.25-.29.69-.32.99-.07.29.25.32.69.07.99-.81.94-1.62,1.9-2.4,2.85-.14.17-.34.26-.54.26Zm200.53-3.01c-.2,0-.39-.08-.53-.24-.81-.93-1.64-1.87-2.48-2.77-.26-.28-.24-.73.04-.99s.73-.24.99.04c.85.92,1.69,1.86,2.51,2.8.25.29.22.73-.07.99-.13.12-.3.17-.46.17Zm-195.63-2.65c-.17,0-.34-.06-.47-.18-.28-.26-.3-.7-.04-.99.85-.92,1.72-1.84,2.58-2.74.27-.28.71-.28.99-.01.28.27.28.71.01.99-.86.88-1.72,1.79-2.56,2.71-.14.15-.33.23-.52.23Zm190.56-2.86c-.18,0-.36-.07-.5-.21-.87-.89-1.76-1.78-2.64-2.63-.28-.27-.28-.71-.02-.99.27-.28.71-.28.99-.02.89.86,1.78,1.76,2.66,2.66.27.28.26.72-.01.99-.14.13-.31.2-.49.2Zm-185.34-2.51c-.18,0-.36-.07-.5-.21-.27-.28-.26-.72.01-.99.89-.87,1.81-1.74,2.73-2.59.28-.26.73-.24.99.04.26.28.24.73-.04.99-.91.84-1.82,1.7-2.7,2.56-.14.13-.31.2-.49.2Zm179.97-2.7c-.17,0-.34-.06-.47-.18-.91-.83-1.84-1.66-2.78-2.48-.29-.25-.32-.69-.07-.99.25-.29.7-.33.99-.07.95.82,1.9,1.66,2.81,2.5.28.26.3.7.04.99-.14.15-.33.23-.52.23Zm-174.46-2.37c-.2,0-.39-.08-.53-.24-.25-.29-.22-.73.07-.99.94-.82,1.91-1.64,2.87-2.42.3-.25.74-.2.98.1.25.3.2.74-.1.98-.95.78-1.91,1.59-2.84,2.4-.13.11-.3.17-.46.17Zm168.8-2.54c-.16,0-.31-.05-.44-.16-.96-.78-1.94-1.56-2.92-2.32-.31-.24-.36-.68-.13-.98.24-.31.68-.36.98-.13.99.76,1.98,1.55,2.95,2.34.3.24.34.69.1.98-.14.17-.34.26-.54.26Zm-163.01-2.21c-.21,0-.42-.09-.55-.27-.24-.31-.18-.74.13-.98.99-.76,2-1.52,3.01-2.26.31-.23.75-.16.98.15.23.31.16.75-.15.98-1,.73-2,1.48-2.97,2.23-.13.1-.28.15-.43.15Zm157.08-2.37c-.14,0-.29-.04-.41-.13-.99-.72-2.02-1.44-3.05-2.15-.32-.22-.4-.65-.18-.97.22-.32.65-.4.97-.18,1.04.71,2.07,1.44,3.08,2.17.31.23.38.67.15.98-.14.19-.35.29-.57.29Zm-151.04-2.04c-.22,0-.44-.11-.58-.3-.22-.32-.14-.75.18-.97,1.03-.71,2.08-1.41,3.13-2.08.32-.21.76-.12.97.21.21.32.12.76-.21.97-1.04.67-2.08,1.36-3.1,2.06-.12.08-.26.12-.4.12Zm144.85-2.19c-.13,0-.26-.04-.38-.11-1.05-.67-2.11-1.34-3.17-1.97-.33-.2-.44-.63-.24-.96.2-.33.63-.44.96-.24,1.06.64,2.14,1.31,3.2,1.99.33.21.42.64.21.97-.13.21-.36.32-.59.32Zm-138.57-1.86c-.24,0-.47-.12-.6-.34-.2-.33-.09-.76.24-.96,1.07-.65,2.16-1.28,3.24-1.9.34-.19.76-.07.95.26.19.34.07.76-.26.95-1.07.61-2.15,1.24-3.21,1.88-.11.07-.24.1-.36.1Zm132.15-2.01c-.12,0-.23-.03-.34-.09-1.08-.61-2.18-1.21-3.27-1.79-.34-.18-.47-.6-.29-.95.18-.34.6-.47.95-.29,1.11.58,2.22,1.19,3.31,1.81.34.19.46.62.27.95-.13.23-.37.36-.61.36Zm-125.65-1.67c-.25,0-.49-.13-.62-.37-.18-.34-.05-.76.29-.95,1.11-.59,2.23-1.16,3.34-1.71.35-.17.77-.03.94.32.17.35.03.77-.32.94-1.1.54-2.21,1.11-3.31,1.69-.1.06-.22.08-.33.08Zm119.01-1.83c-.1,0-.21-.02-.31-.07-1.12-.55-2.25-1.09-3.37-1.6-.35-.16-.51-.58-.35-.93.16-.35.58-.51.93-.35,1.13.52,2.28,1.06,3.41,1.61.35.17.49.59.32.94-.12.25-.37.39-.63.39Zm-112.32-1.48c-.27,0-.52-.15-.64-.41-.16-.35,0-.77.34-.93,1.14-.52,2.29-1.03,3.43-1.51.36-.15.77.02.92.37.15.36-.02.77-.37.92-1.13.48-2.27.98-3.4,1.5-.09.04-.19.06-.29.06Zm105.49-1.63c-.09,0-.18-.02-.27-.06-1.15-.48-2.31-.95-3.46-1.4-.36-.14-.54-.55-.4-.91.14-.36.54-.54.91-.4,1.16.45,2.34.93,3.5,1.42.36.15.52.56.37.92-.11.27-.37.43-.65.43Zm-98.62-1.28c-.28,0-.54-.17-.65-.45-.14-.36.04-.77.4-.91,1.16-.46,2.35-.9,3.52-1.32.36-.13.76.06.89.42.13.36-.06.76-.42.89-1.16.42-2.34.86-3.49,1.31-.08.03-.17.05-.25.05Zm91.62-1.43c-.08,0-.16-.01-.23-.04-1.16-.41-2.35-.82-3.54-1.2-.37-.12-.57-.51-.45-.88.12-.37.51-.57.88-.45,1.2.39,2.41.8,3.58,1.21.36.13.55.53.42.89-.1.29-.37.47-.66.47Zm-84.58-1.09c-.29,0-.57-.19-.67-.48-.12-.37.08-.76.45-.88,1.19-.39,2.4-.76,3.59-1.12.37-.11.76.1.87.47.11.37-.1.76-.47.87-1.18.35-2.38.72-3.56,1.1-.07.02-.14.03-.22.03Zm77.44-1.21c-.06,0-.13,0-.2-.03-1.19-.35-2.4-.68-3.59-.99-.37-.1-.6-.48-.5-.85.1-.37.48-.6.85-.5,1.2.31,2.42.65,3.63,1,.37.11.58.5.48.87-.09.31-.37.5-.67.5Zm-70.26-.9c-.31,0-.59-.21-.68-.52-.1-.37.12-.76.5-.86,1.21-.32,2.44-.62,3.65-.91.38-.09.75.15.84.52.09.38-.15.75-.52.84-1.2.28-2.42.58-3.61.9-.06.02-.12.02-.18.02Zm63.02-.99c-.05,0-.1,0-.16-.02-1.2-.28-2.43-.54-3.64-.78-.38-.08-.62-.44-.55-.82s.44-.63.82-.55c1.22.24,2.46.51,3.68.79.38.09.61.46.52.84-.07.32-.36.54-.68.54Zm-55.73-.71c-.33,0-.62-.23-.68-.56-.08-.38.17-.75.55-.83,1.22-.25,2.46-.48,3.7-.7.38-.06.74.19.81.57.07.38-.19.74-.57.81-1.22.21-2.45.44-3.66.69-.05,0-.09.01-.14.01Zm48.39-.75s-.08,0-.12-.01c-1.21-.21-2.45-.4-3.68-.57-.38-.05-.65-.41-.6-.79.05-.38.41-.65.79-.6,1.24.17,2.49.37,3.72.58.38.06.64.43.57.81-.06.34-.35.58-.69.58Zm-41.01-.52c-.34,0-.64-.25-.69-.6-.06-.38.21-.74.59-.79,1.25-.18,2.5-.34,3.73-.48.39-.04.73.23.77.62.04.38-.23.73-.62.77-1.22.14-2.46.3-3.69.48-.03,0-.07,0-.1,0Zm33.6-.52s-.05,0-.08,0c-1.22-.14-2.47-.26-3.71-.36-.39-.03-.67-.37-.64-.76.03-.38.37-.66.76-.64,1.25.1,2.51.23,3.74.37.38.04.66.39.62.77-.04.36-.34.62-.69.62Zm-26.16-.33c-.36,0-.67-.28-.7-.64-.03-.39.25-.72.64-.76,1.26-.11,2.52-.2,3.75-.27.39-.02.72.27.74.66.02.39-.27.72-.66.74-1.22.07-2.47.16-3.71.27-.02,0-.04,0-.06,0Zm18.7-.29s-.03,0-.04,0c-1.24-.07-2.49-.12-3.72-.15-.39-.01-.69-.33-.68-.72.01-.39.33-.71.72-.68,1.24.03,2.51.08,3.76.15.39.02.68.35.66.74-.02.37-.33.66-.7.66Zm-11.23-.14c-.38,0-.69-.3-.7-.68-.01-.39.29-.71.68-.72,1.24-.04,2.51-.06,3.76-.06h0c.39,0,.7.31.7.7,0,.39-.31.7-.7.7-1.24,0-2.49.02-3.72.06,0,0-.01,0-.02,0Z" style="fill: #41c2d9;"/>
        <path d="m131.86,263.6c-.39,0-.7-.31-.7-.7s.31-.7.7-.7c1.23,0,2.48-.02,3.72-.05.38-.03.71.29.72.68.01.39-.29.71-.68.72-1.25.04-2.52.05-3.76.05Zm-3.74-.05s-.01,0-.02,0c-1.25-.03-2.51-.09-3.76-.16-.39-.02-.68-.35-.66-.74.02-.39.34-.68.74-.66,1.24.07,2.49.12,3.72.15.39.01.69.33.68.72-.01.38-.32.68-.7.68Zm11.23-.16c-.37,0-.68-.29-.7-.66-.02-.39.27-.72.66-.74,1.23-.07,2.48-.16,3.71-.26.37-.04.72.25.76.64.03.39-.25.72-.64.76-1.25.11-2.51.2-3.75.27-.01,0-.03,0-.04,0Zm-18.7-.25s-.04,0-.06,0c-1.24-.11-2.5-.23-3.74-.37-.38-.04-.66-.39-.62-.77.04-.38.39-.66.77-.62,1.23.14,2.47.26,3.71.36.39.03.67.37.64.76-.03.37-.34.64-.7.64Zm26.16-.38c-.35,0-.65-.26-.69-.62-.04-.38.23-.73.62-.77,1.23-.14,2.47-.3,3.69-.47.38-.06.74.21.79.59.06.38-.21.74-.59.79-1.24.18-2.49.34-3.73.48-.03,0-.05,0-.08,0Zm-33.6-.46s-.07,0-.1,0c-1.24-.18-2.49-.37-3.72-.58-.38-.07-.64-.43-.57-.81.07-.38.43-.64.81-.57,1.22.21,2.46.4,3.68.58.38.05.65.41.59.79-.05.35-.35.6-.69.6Zm41.01-.6c-.33,0-.63-.24-.69-.58-.07-.38.19-.74.57-.81,1.21-.21,2.44-.44,3.66-.68.37-.07.75.17.82.55.08.38-.17.75-.55.82-1.23.25-2.48.48-3.7.69-.04,0-.08.01-.12.01Zm-48.39-.66s-.09,0-.14-.01c-1.23-.25-2.47-.51-3.68-.79-.38-.09-.61-.46-.52-.84.09-.38.46-.61.84-.52,1.2.28,2.42.54,3.64.79.38.08.62.45.55.82-.07.33-.36.56-.69.56Zm55.72-.82c-.32,0-.61-.22-.68-.54-.09-.38.15-.75.52-.84,1.2-.28,2.41-.58,3.61-.89.38-.1.76.13.85.5.1.37-.13.76-.5.85-1.21.32-2.44.62-3.65.9-.05.01-.11.02-.16.02Zm-63.02-.87c-.06,0-.12,0-.18-.02-1.21-.32-2.43-.66-3.63-1-.37-.11-.58-.5-.47-.87.11-.37.5-.58.87-.47,1.18.35,2.39.68,3.59.99.37.1.6.48.5.85-.08.31-.37.52-.68.52Zm70.26-1.03c-.3,0-.58-.2-.67-.5-.11-.37.1-.76.47-.87,1.19-.35,2.39-.72,3.56-1.1.37-.12.76.08.88.45.12.37-.08.76-.45.88-1.18.38-2.39.76-3.6,1.11-.07.02-.13.03-.2.03Zm-77.44-1.07c-.07,0-.14-.01-.22-.03-1.19-.39-2.39-.79-3.58-1.22-.36-.13-.55-.53-.42-.89.13-.36.53-.55.89-.42,1.17.42,2.36.82,3.54,1.2.37.12.57.51.45.88-.1.3-.37.48-.67.48Zm84.56-1.25c-.29,0-.56-.18-.66-.46-.13-.36.06-.76.42-.89,1.16-.41,2.33-.85,3.49-1.3.36-.14.77.04.91.4.14.36-.04.77-.4.91-1.17.46-2.36.9-3.53,1.32-.08.03-.16.04-.24.04Zm-91.64-1.27c-.08,0-.17-.02-.25-.05-1.17-.45-2.34-.93-3.5-1.42-.36-.15-.52-.56-.37-.92.15-.36.56-.52.92-.37,1.14.48,2.31.96,3.46,1.4.36.14.54.55.4.91-.11.28-.37.45-.65.45Zm98.6-1.44c-.27,0-.53-.16-.65-.43-.15-.36.02-.77.37-.92,1.12-.48,2.27-.98,3.4-1.5.35-.16.77,0,.93.35.16.35,0,.77-.35.93-1.14.52-2.3,1.03-3.43,1.51-.09.04-.18.06-.27.06Zm-105.52-1.48c-.1,0-.2-.02-.29-.06-1.14-.52-2.28-1.06-3.41-1.62-.35-.17-.49-.59-.32-.94.17-.35.59-.49.94-.32,1.11.55,2.25,1.09,3.37,1.6.35.16.51.58.35.93-.12.26-.37.41-.64.41Zm112.3-1.63c-.26,0-.51-.14-.63-.39-.17-.35-.03-.77.32-.94,1.11-.54,2.22-1.11,3.31-1.69.34-.18.76-.05.95.29.18.34.05.76-.29.95-1.1.58-2.23,1.16-3.34,1.71-.1.05-.21.07-.31.07Zm-119.03-1.69c-.11,0-.22-.03-.33-.08-1.1-.58-2.21-1.19-3.31-1.81-.34-.19-.46-.62-.26-.95.19-.34.62-.45.95-.26,1.08.61,2.19,1.22,3.27,1.79.34.18.47.6.29.95-.13.24-.37.37-.62.37Zm125.64-1.8c-.24,0-.48-.13-.61-.35-.19-.34-.07-.76.26-.95,1.07-.61,2.15-1.24,3.21-1.88.33-.2.76-.09.96.24.2.33.09.76-.24.96-1.07.64-2.16,1.28-3.24,1.9-.11.06-.23.09-.34.09Zm-132.16-1.89c-.12,0-.25-.03-.36-.1-1.07-.64-2.14-1.31-3.2-1.99-.33-.21-.42-.64-.21-.97.21-.33.64-.42.97-.21,1.04.67,2.11,1.34,3.16,1.97.33.2.44.63.24.96-.13.22-.36.34-.6.34Zm138.56-1.97c-.23,0-.46-.11-.59-.32-.21-.33-.11-.76.21-.97,1.03-.66,2.07-1.35,3.1-2.06.32-.22.75-.14.97.18.22.32.14.75-.18.97-1.04.71-2.09,1.41-3.13,2.08-.12.08-.25.11-.38.11Zm-144.86-2.08c-.14,0-.27-.04-.39-.12-1.03-.7-2.06-1.43-3.08-2.17-.31-.23-.38-.66-.15-.98.23-.31.67-.38.98-.15,1.01.73,2.03,1.45,3.04,2.15.32.22.4.65.18.97-.14.2-.35.3-.58.3Zm151.03-2.14c-.22,0-.43-.1-.57-.29-.23-.31-.16-.75.15-.98,1-.73,2-1.48,2.98-2.23.31-.24.74-.18.98.13.24.31.18.75-.13.98-.99.76-2,1.52-3.01,2.25-.12.09-.27.13-.41.13Zm-157.09-2.27c-.15,0-.3-.05-.43-.15-.99-.76-1.98-1.55-2.95-2.34-.3-.24-.34-.69-.1-.98.24-.3.69-.34.98-.1.96.78,1.94,1.56,2.92,2.32.31.24.36.68.13.98-.14.18-.35.27-.55.27Zm163.01-2.3c-.2,0-.4-.09-.54-.26-.24-.3-.2-.74.1-.99.96-.78,1.92-1.59,2.85-2.4.29-.25.73-.22.99.07.25.29.22.73-.07.99-.94.82-1.91,1.63-2.88,2.42-.13.11-.29.16-.44.16Zm-168.8-2.45c-.16,0-.33-.06-.46-.17-.95-.82-1.89-1.66-2.81-2.51-.28-.26-.3-.7-.04-.99s.7-.3.99-.04c.91.83,1.84,1.67,2.78,2.48.29.25.32.69.07.99-.14.16-.33.24-.53.24Zm174.46-2.45c-.19,0-.38-.08-.52-.23-.26-.28-.24-.73.04-.99.91-.83,1.82-1.69,2.71-2.56.28-.27.72-.26.99.01.27.28.26.72-.01.99-.9.87-1.82,1.74-2.74,2.58-.13.12-.3.18-.47.18Zm-179.97-2.61c-.18,0-.35-.07-.49-.2-.89-.87-1.79-1.76-2.66-2.66-.27-.28-.26-.72.01-.99.28-.27.72-.26.99.01.86.89,1.75,1.77,2.63,2.63.28.27.28.71.01.99-.14.14-.32.21-.5.21Zm185.34-2.61c-.18,0-.35-.07-.49-.2-.28-.27-.28-.71-.01-.99.86-.89,1.72-1.8,2.56-2.7.26-.29.7-.3.99-.04.28.26.3.7.04.99-.85.92-1.71,1.84-2.59,2.73-.14.14-.32.21-.5.21Zm-190.56-2.76c-.19,0-.38-.08-.52-.23-.84-.91-1.68-1.86-2.5-2.81-.25-.29-.22-.73.07-.99.29-.25.73-.22.99.07.81.94,1.65,1.87,2.48,2.78.26.28.24.73-.04.99-.13.12-.3.18-.47.18Zm195.63-2.75c-.16,0-.33-.06-.46-.17-.29-.25-.32-.7-.07-.99.81-.93,1.62-1.89,2.4-2.85.25-.3.69-.34.98-.1.3.24.34.69.1.98-.79.97-1.61,1.93-2.43,2.88-.14.16-.33.24-.53.24Zm-200.53-2.9c-.2,0-.4-.09-.54-.26-.79-.97-1.58-1.96-2.34-2.94-.24-.31-.18-.75.13-.98.31-.24.75-.18.98.13.75.97,1.53,1.95,2.32,2.91.24.3.2.74-.1.99-.13.11-.29.16-.44.16Zm205.28-2.89c-.15,0-.3-.05-.43-.15-.31-.24-.36-.68-.13-.98.75-.97,1.51-1.98,2.24-2.98.23-.31.67-.38.98-.15.31.23.38.67.15.98-.74,1.01-1.5,2.03-2.26,3.01-.14.18-.34.27-.55.27Zm-209.85-3.03c-.22,0-.43-.1-.57-.29-.73-1-1.46-2.03-2.17-3.07-.22-.32-.14-.75.18-.97.32-.22.75-.14.97.18.7,1.02,1.42,2.05,2.15,3.04.23.31.16.75-.15.98-.12.09-.27.13-.41.13Zm214.26-3.03c-.14,0-.27-.04-.4-.12-.32-.22-.4-.65-.18-.97.7-1.02,1.39-2.06,2.06-3.1.21-.33.64-.42.97-.21.32.21.42.64.21.97-.68,1.05-1.38,2.11-2.09,3.14-.14.2-.35.3-.58.3Zm-218.48-3.14c-.23,0-.46-.11-.59-.32-.67-1.05-1.34-2.12-1.99-3.19-.2-.33-.09-.76.24-.96.33-.2.76-.09.96.24.64,1.06,1.3,2.12,1.97,3.15.21.32.12.76-.21.97-.12.08-.25.11-.38.11Zm222.54-3.16c-.12,0-.25-.03-.36-.1-.33-.2-.44-.63-.24-.96.64-1.06,1.27-2.14,1.88-3.22.19-.34.62-.45.95-.26.34.19.45.62.26.95-.62,1.09-1.26,2.18-1.9,3.25-.13.22-.36.34-.6.34Zm-226.41-3.23c-.24,0-.48-.13-.61-.35-.62-1.09-1.22-2.19-1.8-3.29-.18-.34-.05-.77.29-.95.34-.18.76-.05.95.29.58,1.09,1.18,2.18,1.78,3.26.19.34.07.76-.26.95-.11.06-.23.09-.34.09Zm230.11-3.29c-.11,0-.22-.03-.33-.08-.34-.18-.47-.6-.29-.95.58-1.1,1.15-2.22,1.7-3.32.17-.35.59-.49.94-.32.35.17.49.59.32.94-.55,1.12-1.13,2.25-1.72,3.36-.13.24-.37.37-.62.37Zm-233.6-3.31c-.26,0-.51-.14-.63-.39-.55-1.11-1.09-2.25-1.61-3.39-.16-.35,0-.77.34-.93.35-.16.77,0,.93.34.52,1.13,1.05,2.25,1.6,3.35.17.35.03.77-.32.94-.1.05-.21.07-.31.07Zm236.92-3.42c-.1,0-.2-.02-.29-.06-.35-.16-.51-.58-.35-.93.52-1.13,1.02-2.28,1.5-3.42.15-.36.56-.52.92-.37.36.15.52.56.37.92-.49,1.15-1,2.31-1.52,3.45-.12.26-.37.41-.64.41Zm-240.03-3.36c-.27,0-.53-.16-.64-.43-.49-1.14-.96-2.31-1.41-3.47-.14-.36.04-.77.4-.91.36-.14.77.04.91.4.45,1.15.92,2.3,1.4,3.44.15.36-.02.77-.37.92-.09.04-.18.06-.27.06Zm242.95-3.55c-.08,0-.17-.02-.25-.05-.36-.14-.54-.55-.4-.91.45-1.16.89-2.34,1.31-3.5.13-.36.53-.55.89-.42.36.13.55.53.42.89-.42,1.17-.86,2.36-1.32,3.54-.11.28-.37.45-.65.45Zm-245.67-3.41c-.29,0-.56-.18-.66-.46-.42-1.18-.83-2.38-1.22-3.56-.12-.37.08-.76.45-.88.37-.12.76.08.88.45.38,1.17.79,2.35,1.2,3.52.13.36-.06.76-.42.89-.08.03-.16.04-.24.04Zm248.2-3.66c-.07,0-.14-.01-.22-.03-.37-.12-.57-.51-.45-.88.38-1.17.75-2.37,1.1-3.56.11-.37.5-.58.87-.47.37.11.58.5.47.87-.35,1.2-.73,2.41-1.11,3.6-.1.3-.37.48-.67.48Zm-250.51-3.46c-.3,0-.58-.2-.67-.5-.35-1.2-.69-2.42-1.01-3.63-.1-.37.12-.76.5-.85.37-.1.76.13.85.5.31,1.19.65,2.4,1,3.59.11.37-.1.76-.47.87-.07.02-.13.03-.2.03Zm252.62-3.73c-.06,0-.12,0-.18-.02-.37-.1-.6-.48-.5-.85.31-1.19.61-2.41.89-3.61.09-.38.46-.61.84-.52.38.09.61.46.52.84-.28,1.22-.59,2.45-.9,3.65-.08.31-.37.52-.68.52Zm-254.52-3.51c-.32,0-.61-.22-.68-.54-.28-1.22-.55-2.46-.8-3.68-.08-.38.17-.75.55-.82.38-.08.75.17.82.55.24,1.21.51,2.43.79,3.64.09.38-.15.75-.52.84-.05.01-.11.02-.16.02Zm256.21-3.78s-.09,0-.14-.01c-.38-.08-.62-.45-.55-.82.24-1.21.47-2.44.68-3.66.07-.38.43-.64.81-.57.38.07.64.43.57.81-.21,1.23-.44,2.48-.69,3.7-.07.33-.36.56-.69.56ZM2.62,154.97c-.33,0-.63-.24-.69-.58-.21-1.24-.41-2.49-.59-3.72-.06-.38.21-.74.59-.79.38-.05.74.21.79.59.17,1.22.37,2.45.58,3.68.07.38-.19.74-.57.81-.04,0-.08,0-.12,0Zm258.97-3.82s-.07,0-.1,0c-.38-.05-.65-.41-.59-.79.17-1.23.33-2.47.47-3.69.04-.38.39-.66.77-.62.38.04.66.39.62.77-.14,1.23-.3,2.49-.48,3.73-.05.35-.35.6-.69.6ZM1.55,147.57c-.35,0-.65-.26-.69-.62-.14-1.25-.27-2.51-.37-3.74-.03-.39.25-.72.64-.76.39-.04.72.25.76.64.1,1.22.23,2.47.37,3.7.04.38-.23.73-.62.77-.03,0-.05,0-.08,0Zm260.87-3.85s-.04,0-.06,0c-.39-.03-.67-.37-.64-.76.1-1.24.19-2.49.26-3.71.02-.39.36-.66.74-.66.39.02.68.35.66.74-.07,1.24-.16,2.5-.26,3.75-.03.37-.34.64-.7.64ZM.92,140.11c-.37,0-.68-.29-.7-.66-.07-1.25-.13-2.51-.16-3.76-.01-.39.29-.71.68-.72,0,0,.01,0,.02,0,.38,0,.69.3.7.68.04,1.23.09,2.49.16,3.72.02.39-.27.72-.66.74-.01,0-.03,0-.04,0Zm261.93-3.86s-.01,0-.02,0c-.39-.01-.69-.33-.68-.72.03-1.24.05-2.49.05-3.72v-.25c0-.39.31-.7.7-.7s.7.31.7.7v.25c0,1.24-.02,2.51-.05,3.76-.01.38-.32.68-.7.68ZM.7,132.62c-.39,0-.7-.31-.7-.7v-.12c0-1.21.02-2.44.05-3.64.01-.39.34-.71.72-.68.39.01.69.33.68.72-.03,1.19-.05,2.4-.05,3.6v.12c0,.39-.31.7-.7.7Zm262.14-4.11c-.38,0-.69-.3-.7-.68-.04-1.23-.09-2.48-.16-3.72-.02-.39.27-.72.66-.74.38-.03.72.27.74.66.07,1.25.13,2.52.17,3.76.01.39-.29.71-.68.72,0,0-.01,0-.02,0ZM.9,125.14s-.03,0-.04,0c-.39-.02-.68-.35-.66-.74.07-1.24.16-2.51.26-3.75.03-.39.37-.66.76-.64.39.03.67.37.64.76-.1,1.23-.19,2.48-.26,3.71-.02.37-.33.66-.7.66Zm261.5-4.1c-.36,0-.66-.27-.7-.64-.11-1.24-.23-2.48-.37-3.7-.04-.38.23-.73.62-.78.39-.04.73.23.78.62.14,1.24.27,2.5.38,3.74.03.39-.25.72-.64.76-.02,0-.04,0-.06,0ZM1.53,117.68s-.05,0-.08,0c-.38-.04-.66-.39-.62-.77.14-1.24.3-2.5.47-3.73.05-.38.41-.65.79-.6.38.05.65.41.59.79-.17,1.22-.33,2.47-.47,3.69-.04.36-.34.62-.69.62Zm260.02-4.08c-.34,0-.64-.25-.69-.6-.18-1.23-.37-2.46-.58-3.68-.07-.38.19-.74.57-.81.38-.07.74.19.81.57.21,1.23.41,2.48.59,3.72.06.38-.21.74-.59.79-.03,0-.07,0-.1,0ZM2.58,110.27s-.08,0-.12-.01c-.38-.07-.64-.43-.57-.81.21-1.23.44-2.48.69-3.7.08-.38.45-.62.82-.55.38.08.62.44.55.82-.24,1.21-.47,2.44-.68,3.66-.06.34-.35.58-.69.58Zm257.69-4.04c-.33,0-.62-.23-.68-.56-.24-1.2-.51-2.43-.79-3.64-.09-.38.15-.75.52-.84.38-.09.75.15.84.52.29,1.22.56,2.46.8,3.68.08.38-.17.75-.55.83-.05,0-.09.01-.14.01ZM4.05,102.93c-.05,0-.1,0-.16-.02-.38-.09-.61-.46-.52-.84.28-1.21.58-2.44.9-3.65.1-.37.48-.6.85-.5.37.1.6.48.5.85-.31,1.2-.61,2.42-.89,3.62-.07.32-.36.54-.68.54Zm254.52-3.99c-.31,0-.59-.21-.68-.52-.32-1.2-.65-2.4-1-3.59-.11-.37.1-.76.47-.87.37-.11.76.1.87.47.35,1.19.69,2.41,1.01,3.62.1.37-.12.76-.5.86-.06.02-.12.02-.18.02Zm-252.62-3.25c-.07,0-.13,0-.2-.03-.37-.11-.58-.5-.48-.87.35-1.19.72-2.4,1.11-3.6.12-.37.51-.57.88-.45.37.12.57.51.45.88-.38,1.18-.75,2.38-1.09,3.56-.09.31-.37.5-.67.5Zm250.51-3.93c-.29,0-.57-.19-.67-.48-.38-1.17-.79-2.36-1.21-3.52-.13-.36.06-.76.42-.9.36-.13.76.06.9.42.42,1.18.83,2.37,1.22,3.56.12.37-.08.76-.45.88-.07.02-.15.03-.22.03Zm-248.2-3.2c-.08,0-.16-.01-.23-.04-.36-.13-.55-.53-.42-.89.42-1.18.86-2.37,1.32-3.54.14-.36.54-.54.91-.4.36.14.54.55.4.91-.45,1.16-.89,2.33-1.3,3.5-.1.29-.37.47-.66.47Zm245.67-3.84c-.28,0-.54-.17-.65-.44-.45-1.14-.92-2.29-1.4-3.44-.15-.36.02-.77.37-.92.36-.15.77.02.92.37.49,1.15.97,2.32,1.42,3.47.14.36-.04.77-.4.91-.08.03-.17.05-.26.05Zm-242.95-3.16c-.09,0-.18-.02-.27-.06-.36-.15-.52-.56-.37-.92.49-1.15,1-2.32,1.52-3.45.16-.35.58-.51.93-.35.35.16.51.58.35.93-.51,1.13-1.02,2.28-1.5,3.42-.11.27-.37.43-.65.43Zm240.03-3.71c-.27,0-.52-.15-.64-.41-.51-1.12-1.05-2.24-1.6-3.35-.17-.35-.03-.77.32-.94.35-.17.77-.03.94.32.55,1.12,1.1,2.26,1.62,3.39.16.35,0,.77-.34.93-.09.04-.19.06-.29.06Zm-236.92-3.12c-.1,0-.21-.02-.31-.07-.35-.17-.49-.59-.32-.94.55-1.13,1.13-2.26,1.71-3.36.18-.34.6-.47.95-.29.34.18.47.6.29.95-.58,1.09-1.15,2.21-1.69,3.32-.12.25-.37.39-.63.39Zm233.61-3.58c-.25,0-.49-.13-.62-.37-.58-1.09-1.18-2.19-1.79-3.26-.19-.34-.07-.76.26-.95.33-.19.76-.07.95.26.61,1.08,1.22,2.19,1.81,3.29.18.34.05.77-.29.95-.1.06-.22.08-.33.08Zm-230.11-3.06c-.12,0-.24-.03-.34-.09-.34-.19-.46-.62-.26-.95.62-1.09,1.26-2.19,1.9-3.25.2-.33.63-.44.96-.24.33.2.44.63.24.96-.64,1.06-1.27,2.14-1.88,3.22-.13.23-.37.36-.61.36Zm226.42-3.44c-.24,0-.47-.12-.6-.34-.64-1.06-1.3-2.12-1.97-3.15-.21-.32-.12-.76.21-.97.32-.21.76-.12.97.21.67,1.04,1.34,2.12,1.99,3.18.2.33.09.76-.24.96-.11.07-.24.1-.36.1Zm-222.54-2.98c-.13,0-.26-.04-.38-.11-.32-.21-.42-.64-.21-.97.68-1.05,1.38-2.11,2.08-3.14.22-.32.65-.4.97-.18.32.22.4.65.18.97-.7,1.02-1.39,2.06-2.06,3.11-.13.21-.36.32-.59.32Zm218.49-3.3c-.22,0-.44-.11-.58-.3-.7-1.02-1.42-2.04-2.15-3.04-.23-.31-.16-.75.15-.98.31-.23.75-.16.98.15.74,1.01,1.47,2.04,2.17,3.07.22.32.14.75-.18.97-.12.08-.26.12-.4.12Zm-214.26-2.88c-.14,0-.29-.04-.41-.13-.31-.23-.38-.67-.15-.98.74-1.01,1.5-2.03,2.26-3.01.24-.31.68-.36.98-.13.31.24.36.68.13.98-.75.98-1.5,1.98-2.23,2.98-.14.19-.35.29-.57.29Zm209.85-3.16c-.21,0-.42-.09-.55-.27-.75-.97-1.53-1.95-2.32-2.91-.25-.3-.2-.74.1-.99.3-.24.74-.2.99.1.8.97,1.59,1.96,2.34,2.94.24.31.18.75-.13.98-.13.1-.28.15-.43.15Zm-205.27-2.77c-.16,0-.31-.05-.44-.16-.3-.24-.34-.69-.1-.98.79-.96,1.6-1.93,2.42-2.88.25-.29.69-.32.99-.07.29.25.32.69.07.99-.81.94-1.62,1.9-2.4,2.85-.14.17-.34.26-.54.26Zm200.53-3.01c-.2,0-.39-.08-.53-.24-.81-.93-1.64-1.87-2.48-2.77-.26-.28-.24-.73.04-.99s.73-.24.99.04c.85.92,1.69,1.86,2.51,2.8.25.29.22.73-.07.99-.13.12-.3.17-.46.17Zm-195.63-2.65c-.17,0-.34-.06-.47-.18-.28-.26-.3-.7-.04-.99.85-.92,1.72-1.84,2.58-2.74.27-.28.71-.28.99-.01.28.27.28.71.01.99-.86.88-1.72,1.79-2.56,2.71-.14.15-.33.23-.52.23Zm190.56-2.86c-.18,0-.36-.07-.5-.21-.87-.89-1.76-1.78-2.64-2.63-.28-.27-.28-.71-.02-.99.27-.28.71-.28.99-.02.89.86,1.78,1.76,2.66,2.66.27.28.26.72-.01.99-.14.13-.31.2-.49.2Zm-185.34-2.51c-.18,0-.36-.07-.5-.21-.27-.28-.26-.72.01-.99.89-.87,1.81-1.74,2.73-2.59.28-.26.73-.24.99.04.26.28.24.73-.04.99-.91.84-1.82,1.7-2.7,2.56-.14.13-.31.2-.49.2Zm179.97-2.7c-.17,0-.34-.06-.47-.18-.91-.83-1.84-1.66-2.78-2.48-.29-.25-.32-.69-.07-.99.25-.29.7-.33.99-.07.95.82,1.9,1.66,2.81,2.5.28.26.3.7.04.99-.14.15-.33.23-.52.23Zm-174.46-2.37c-.2,0-.39-.08-.53-.24-.25-.29-.22-.73.07-.99.94-.82,1.91-1.64,2.87-2.42.3-.25.74-.2.98.1.25.3.2.74-.1.98-.95.78-1.91,1.59-2.84,2.4-.13.11-.3.17-.46.17Zm168.8-2.54c-.16,0-.31-.05-.44-.16-.96-.78-1.94-1.56-2.92-2.32-.31-.24-.36-.68-.13-.98.24-.31.68-.36.98-.13.99.76,1.98,1.55,2.95,2.34.3.24.34.69.1.98-.14.17-.34.26-.54.26Zm-163.01-2.21c-.21,0-.42-.09-.55-.27-.24-.31-.18-.74.13-.98.99-.76,2-1.52,3.01-2.26.31-.23.75-.16.98.15.23.31.16.75-.15.98-1,.73-2,1.48-2.97,2.23-.13.1-.28.15-.43.15Zm157.08-2.37c-.14,0-.29-.04-.41-.13-.99-.72-2.02-1.44-3.05-2.15-.32-.22-.4-.65-.18-.97.22-.32.65-.4.97-.18,1.04.71,2.07,1.44,3.08,2.17.31.23.38.67.15.98-.14.19-.35.29-.57.29Zm-151.04-2.04c-.22,0-.44-.11-.58-.3-.22-.32-.14-.75.18-.97,1.03-.71,2.08-1.41,3.13-2.08.32-.21.76-.12.97.21.21.32.12.76-.21.97-1.04.67-2.08,1.36-3.1,2.06-.12.08-.26.12-.4.12Zm144.85-2.19c-.13,0-.26-.04-.38-.11-1.05-.67-2.11-1.34-3.17-1.97-.33-.2-.44-.63-.24-.96.2-.33.63-.44.96-.24,1.06.64,2.14,1.31,3.2,1.99.33.21.42.64.21.97-.13.21-.36.32-.59.32Zm-138.57-1.86c-.24,0-.47-.12-.6-.34-.2-.33-.09-.76.24-.96,1.07-.65,2.16-1.28,3.24-1.9.34-.19.76-.07.95.26.19.34.07.76-.26.95-1.07.61-2.15,1.24-3.21,1.88-.11.07-.24.1-.36.1Zm132.15-2.01c-.12,0-.23-.03-.34-.09-1.08-.61-2.18-1.21-3.27-1.79-.34-.18-.47-.6-.29-.95.18-.34.6-.47.95-.29,1.11.58,2.22,1.19,3.31,1.81.34.19.46.62.27.95-.13.23-.37.36-.61.36Zm-125.65-1.67c-.25,0-.49-.13-.62-.37-.18-.34-.05-.76.29-.95,1.11-.59,2.23-1.16,3.34-1.71.35-.17.77-.03.94.32.17.35.03.77-.32.94-1.1.54-2.21,1.11-3.31,1.69-.1.06-.22.08-.33.08Zm119.01-1.83c-.1,0-.21-.02-.31-.07-1.12-.55-2.25-1.09-3.37-1.6-.35-.16-.51-.58-.35-.93.16-.35.58-.51.93-.35,1.13.52,2.28,1.06,3.41,1.61.35.17.49.59.32.94-.12.25-.37.39-.63.39Zm-112.32-1.48c-.27,0-.52-.15-.64-.41-.16-.35,0-.77.34-.93,1.14-.52,2.29-1.03,3.43-1.51.36-.15.77.02.92.37.15.36-.02.77-.37.92-1.13.48-2.27.98-3.4,1.5-.09.04-.19.06-.29.06Zm105.49-1.63c-.09,0-.18-.02-.27-.06-1.15-.48-2.31-.95-3.46-1.4-.36-.14-.54-.55-.4-.91.14-.36.54-.54.91-.4,1.16.45,2.34.93,3.5,1.42.36.15.52.56.37.92-.11.27-.37.43-.65.43Zm-98.62-1.28c-.28,0-.54-.17-.65-.45-.14-.36.04-.77.4-.91,1.16-.46,2.35-.9,3.52-1.32.36-.13.76.06.89.42.13.36-.06.76-.42.89-1.16.42-2.34.86-3.49,1.31-.08.03-.17.05-.25.05Zm91.62-1.43c-.08,0-.16-.01-.23-.04-1.16-.41-2.35-.82-3.54-1.2-.37-.12-.57-.51-.45-.88.12-.37.51-.57.88-.45,1.2.39,2.41.8,3.58,1.21.36.13.55.53.42.89-.1.29-.37.47-.66.47Zm-84.58-1.09c-.29,0-.57-.19-.67-.48-.12-.37.08-.76.45-.88,1.19-.39,2.4-.76,3.59-1.12.37-.11.76.1.87.47.11.37-.1.76-.47.87-1.18.35-2.38.72-3.56,1.1-.07.02-.14.03-.22.03Zm77.44-1.21c-.06,0-.13,0-.2-.03-1.19-.35-2.4-.68-3.59-.99-.37-.1-.6-.48-.5-.85.1-.37.48-.6.85-.5,1.2.31,2.42.65,3.63,1,.37.11.58.5.48.87-.09.31-.37.5-.67.5Zm-70.26-.9c-.31,0-.59-.21-.68-.52-.1-.37.12-.76.5-.86,1.21-.32,2.44-.62,3.65-.91.38-.09.75.15.84.52.09.38-.15.75-.52.84-1.2.28-2.42.58-3.61.9-.06.02-.12.02-.18.02Zm63.02-.99c-.05,0-.1,0-.16-.02-1.2-.28-2.43-.54-3.64-.78-.38-.08-.62-.44-.55-.82s.44-.63.82-.55c1.22.24,2.46.51,3.68.79.38.09.61.46.52.84-.07.32-.36.54-.68.54Zm-55.73-.71c-.33,0-.62-.23-.68-.56-.08-.38.17-.75.55-.83,1.22-.25,2.46-.48,3.7-.7.38-.06.74.19.81.57.07.38-.19.74-.57.81-1.22.21-2.45.44-3.66.69-.05,0-.09.01-.14.01Zm48.39-.75s-.08,0-.12-.01c-1.21-.21-2.45-.4-3.68-.57-.38-.05-.65-.41-.6-.79.05-.38.41-.65.79-.6,1.24.17,2.49.37,3.72.58.38.06.64.43.57.81-.06.34-.35.58-.69.58Zm-41.01-.52c-.34,0-.64-.25-.69-.6-.06-.38.21-.74.59-.79,1.25-.18,2.5-.34,3.73-.48.39-.04.73.23.77.62.04.38-.23.73-.62.77-1.22.14-2.46.3-3.69.48-.03,0-.07,0-.1,0Zm33.6-.52s-.05,0-.08,0c-1.22-.14-2.47-.26-3.71-.36-.39-.03-.67-.37-.64-.76.03-.38.37-.66.76-.64,1.25.1,2.51.23,3.74.37.38.04.66.39.62.77-.04.36-.34.62-.69.62Zm-26.16-.33c-.36,0-.67-.28-.7-.64-.03-.39.25-.72.64-.76,1.26-.11,2.52-.2,3.75-.27.39-.02.72.27.74.66.02.39-.27.72-.66.74-1.22.07-2.47.16-3.71.27-.02,0-.04,0-.06,0Zm18.7-.29s-.03,0-.04,0c-1.24-.07-2.49-.12-3.72-.15-.39-.01-.69-.33-.68-.72.01-.39.33-.71.72-.68,1.24.03,2.51.08,3.76.15.39.02.68.35.66.74-.02.37-.33.66-.7.66Zm-11.23-.14c-.38,0-.69-.3-.7-.68-.01-.39.29-.71.68-.72,1.24-.04,2.51-.06,3.76-.06h0c.39,0,.7.31.7.7,0,.39-.31.7-.7.7-1.24,0-2.49.02-3.72.06,0,0-.01,0-.02,0Z" style="fill: #41c2d9;"/>
      </g>
    </g>
  </g>
</svg>