<?xml version="1.0" encoding="utf-8"?>
<!-- Generator: Adobe Illustrator 27.5.0, SVG Export Plug-In . SVG Version: 6.00 Build 0)  -->
<svg version="1.1" id="_圖層_2" xmlns="http://www.w3.org/2000/svg" xmlns:xlink="http://www.w3.org/1999/xlink" x="0px" y="0px"
	 width="391.2px" height="391.2px" viewBox="0 0 391.2 391.2" style="enable-background:new 0 0 391.2 391.2;" xml:space="preserve"
	>
<style type="text/css">
	.st0{fill:#0AA07D;}
	.st1{opacity:0.1;enable-background:new    ;}
	.st2{opacity:0.15;fill:#FFFFFF;enable-background:new    ;}
	.st3{clip-path:url(#SVGID_00000080183334025499569230000016148566163037089932_);}
	.st4{fill:#BEEE90;}
	.st5{fill:#FFFFFF;}
	.st6{opacity:0.3;fill:#499900;}
	.st7{fill:#521F02;}
	.st8{opacity:0.2;}
	.st9{fill:#499900;}
	.st10{opacity:0.3;}
	.st11{fill:#005C3A;}
	.st12{opacity:0.4;}
	.st13{fill:#1A212D;}
	.st14{fill:#00976D;}
	.st15{opacity:0.1;}
	.st16{fill:#00BABA;}
	.st17{fill:#162030;}
	.st18{fill:#FFC0C5;}
	.st19{fill:#FF7E00;}
	.st20{opacity:0.5;fill:#FFC0C5;}
	.st21{fill:#FBFAFD;}
	.st22{opacity:0.4;fill:#FFFFFF;}
	.st23{fill:#FFB400;}
	.st24{opacity:0.5;}
	.st25{fill:#CC979B;}
</style>
<g>
	<g>
		<g>
			<path class="st0" d="M188.7,0C98.2,0,24.9,68.1,24.9,152v187.9h202.5c90.5,0,163.8-68.1,163.8-152V0H188.7z"/>
		</g>
	</g>
	<path class="st1" d="M24.9,335.2v4.6h202.5c90.5,0,163.8-68.1,163.8-152V68.5C327.2,154.6,205.7,283.5,24.9,335.2z"/>
	<path class="st2" d="M188.7,0C98.2,0,24.9,68.1,24.9,152v74C151.8,58.7,333.7,13.9,391.2,3.6V0H188.7z"/>
</g>
<g>
	<g>
		<rect x="1.8" y="116.2" class="st0" width="25.1" height="275"/>
	</g>
</g>
<g>
	<g>
		<g>
			<g>
				<defs>
					<path id="SVGID_1_" d="M177.6,304.7H52V167.2c0-69.1,56.5-125.6,125.6-125.6h56.1h125.6v137.6c0,69.1-56.5,125.6-125.6,125.6
						L177.6,304.7L177.6,304.7z"/>
				</defs>
				<clipPath id="SVGID_00000096737614245310521080000010010813489906841491_">
					<use xlink:href="#SVGID_1_"  style="overflow:visible;"/>
				</clipPath>
				<g style="clip-path:url(#SVGID_00000096737614245310521080000010010813489906841491_);">
					<rect x="-49" y="39.1" class="st4" width="409.9" height="293.9"/>
					<g>
						<path class="st5" d="M360.9,118.2v23.1H256.4c6.3-4.5,13.3-7.4,23-4.2c0,0-1.2-11.1,5.5-12.8c6.8-1.8,10,3,10.1,3.3
							c-0.2-0.4-4.4-11.9,6.7-17.5c10.4-5.3,16.5,4.6,16.5,4.6s4.2-17.4,20.5-15.1c15.5,2.2,14.7,20.5,14.7,20.5s2.9-3.9,7.2-2
							C360.7,118.2,360.8,118.2,360.9,118.2z"/>
						<path class="st5" d="M159.3,96.9c0,0-11.9-7.1-21.1-5.7c0,0,2-11.1-5.9-13.4c-7.9-2.3-10.6,4.6-10.6,4.6s-3.1-23.7-21.7-21.3
							c-18.6,2.3-16.3,21.8-16.3,21.8s-12.3-7.3-15.1,8.3c0,0-15.5-3.8-18.3,5.7H159.3z"/>
					</g>
					<g>
						<g>
							<g>
								<g>
									<polygon class="st5" points="172.5,311.2 185.2,311.2 180.5,115.5 177.1,115.5 									"/>
									<polygon class="st6" points="179.3,115.5 179.3,311.2 185.2,311.2 180.5,115.5 									"/>
									<g>
										<g>
											<path class="st5" d="M167.2,125.2c-3.3,1.7-52.1,6.9-52.1,6.9s45.2-19.2,48.9-19.4c3.7-0.1,15,2.8,15,2.8
												S170.5,123.6,167.2,125.2z"/>
											<path class="st6" d="M115,132.1l63.9-16.6c0,0-11.3-2.9-15-2.8C160.2,112.9,115,132.1,115,132.1z"/>
										</g>
										<g>
											<path class="st5" d="M184.1,129.8c-2-3.1-5.2-14.3-5.2-14.3s11.2,3.1,14.3,5.1c3.1,2,32.5,41.3,32.5,41.3
												S186.2,132.9,184.1,129.8z"/>
											<path class="st6" d="M225.7,162l-46.8-46.5c0,0,11.2,3.1,14.3,5.1C196.4,122.7,225.7,162,225.7,162z"/>
										</g>
										<g>
											<path class="st5" d="M176.5,100.5c0.2-3.7,20.6-48.4,20.6-48.4s-6.5,48.7-8.2,51.9c-1.8,3.3-10,11.5-10,11.5
												S176.3,104.2,176.5,100.5z"/>
											<path class="st6" d="M197.2,52.1l-18.3,63.4c0,0-2.6-11.3-2.4-15C176.8,96.8,197.2,52.1,197.2,52.1z"/>
										</g>
										<path class="st5" d="M177.6,110.6c2.7-0.7,5.5,0.9,6.2,3.6c0.7,2.7-0.9,5.5-3.6,6.2c-2.7,0.7-5.5-0.9-6.2-3.6
											C173.3,114.1,174.9,111.3,177.6,110.6z"/>
										<path class="st6" d="M178.1,112.4c1.7-0.4,3.4,0.6,3.9,2.3c0.4,1.7-0.6,3.4-2.3,3.9c-1.7,0.4-3.4-0.6-3.9-2.3
											C175.4,114.6,176.4,112.9,178.1,112.4z"/>
									</g>
								</g>
							</g>
							<g>
								<g>
									<polygon class="st5" points="103.7,311.2 113.4,311.2 109.9,160.9 107.2,160.9 									"/>
									<polygon class="st6" points="108.9,160.9 108.9,311.2 113.4,311.2 109.9,160.9 									"/>
									<g>
										<g>
											<path class="st5" d="M103,171.2c-1.9,2.1-35.3,19.6-35.3,19.6s26.9-26.5,29.5-27.6c2.6-1.1,11.5-2.2,11.5-2.2
												S104.8,169,103,171.2z"/>
											<path class="st6" d="M67.6,190.8l41-29.9c0,0-8.9,1.1-11.5,2.2C94.5,164.3,67.6,190.8,67.6,190.8z"/>
										</g>
										<g>
											<path class="st5" d="M116.4,169.6c-2.3-1.7-7.8-8.7-7.8-8.7s8.9-0.9,11.7-0.4c2.8,0.5,34.9,20.4,34.9,20.4
												S118.7,171.3,116.4,169.6z"/>
											<path class="st6" d="M155.2,180.9l-46.6-20c0,0,8.9-0.9,11.7-0.4C123.1,161.1,155.2,180.9,155.2,180.9z"/>
										</g>
										<g>
											<path class="st5" d="M102.7,150.8c-0.9-2.7,1.1-40.4,1.1-40.4s9.1,36.6,8.7,39.4c-0.3,2.8-3.9,11-3.9,11
												S103.5,153.5,102.7,150.8z"/>
											<path class="st6" d="M103.8,110.5l4.8,50.5c0,0-5.1-7.4-5.9-10.1C101.8,148.1,103.8,110.5,103.8,110.5z"/>
										</g>
										<path class="st5" d="M106.3,157.8c1.7-1.3,4.2-0.9,5.4,0.9c1.3,1.7,0.9,4.2-0.9,5.4c-1.7,1.3-4.2,0.9-5.4-0.9
											C104.2,161.5,104.6,159,106.3,157.8z"/>
										<path class="st6" d="M107.2,158.9c1.1-0.8,2.6-0.6,3.4,0.5c0.8,1.1,0.6,2.6-0.5,3.4c-1.1,0.8-2.6,0.6-3.4-0.5
											C105.8,161.3,106.1,159.7,107.2,158.9z"/>
									</g>
								</g>
							</g>
						</g>
					</g>
					<g>
						<g>
							<g>
								<path class="st7" d="M238.3,301.9h51.2c-12.1-59.8-11.6-152.1-10.6-193.5c0.3-13.3,0.7-21.4,0.7-21.4l-26.1-21.7
									c0.8,16.9,1.3,33.1,1.4,48.6c0,3,0,6,0,9v0c0,2.6,0,5.2,0,7.7C254.4,208.3,245.7,266.3,238.3,301.9z"/>
								<path class="st7" d="M208.1,70.5c-1,45.1,34.5,57.2,46.8,60.1c2.6,0.6,4.1,0.8,4.1,0.8l0.1-17.2c-1.4,0-2.8-0.1-4.2-0.2
									c-0.1,0-0.1,0-0.2,0c-40.9-3.6-42.8-43.4-42.8-43.4H208.1z"/>
								<path class="st8" d="M254.9,130.6c-0.5,77.7-9.3,135.7-16.7,171.3h15.9c0.4-2.1,0.8-4.3,1.2-6.7
									C268,213.9,261,94.5,261,94.5c5.2,8.2,13.4,12.2,17.9,13.9c0.3-13.3,0.7-21.4,0.7-21.4l-26.1-21.7l1.2,48.6l0.2,9v0
									c-36.4-5.3-44.5-38.8-46.4-52.4h-0.5C207.1,115.6,242.6,127.8,254.9,130.6z"/>
							</g>
							<g>
								<path class="st9" d="M360.9,39.1V87c-9.9-0.6-18.1-7.8-18.7-8.4c0,0,0,0,0,0s1.5,12.6-10.1,15.2
									c-11.6,2.6-16.7-13.9-16.7-13.9s-0.1,23.8-26.2,23.9c-3.8,0-7.2-0.6-10.1-1.6h0c-17-5.7-19.6-25.5-19.6-25.5
									s-0.4,6.3-5.1,10.4l0,0c-0.1,0.1-0.2,0.2-0.3,0.3c-1.6,1.2-3.6,2.3-6.2,2.7c-11,2-11.5-13.5-11.5-13.5s-1.6,13.1-17.7,15.5
									c-1.2,0.2-2.5,0.3-3.9,0.4h0c-0.3,0-0.6,0-1,0c-1,0-2,0-2.9-0.1c0,0,0,0,0,0h0c-18.2-1.4-22.6-18.9-22.6-18.9
									s-5.5,14.1-21.9,7.5c-16.4-6.6-6-26.9-6-26.9s-14,2.2-14.6-8.5c-0.1-2.5,0.8-4.7,2.4-6.5h152.5v0h0.1v0H360.9z"/>
								<path class="st10" d="M342.2,78.6C342.2,78.6,342.2,78.6,342.2,78.6c0,0,1.5,12.6-10.1,15.2c-11.6,2.6-16.7-13.9-16.7-13.9
									s-0.1,23.8-26.2,23.9c-3.8,0-7.2-0.6-10.1-1.6h0c-17-5.7-19.6-25.5-19.6-25.5s-0.4,6.3-5.1,10.4l0,0
									c-0.1,0.1-0.2,0.2-0.3,0.3c-1.6,1.2-3.6,2.3-6.2,2.7c-11,2-11.5-13.5-11.5-13.5s-1.6,13.1-17.7,15.5
									c-1.2,0.2-2.5,0.3-3.9,0.4h0c-0.3,0-0.6,0-1,0c-1,0-2,0-2.9-0.1c0,0,0,0,0,0h0c-18.2-1.4-22.6-18.9-22.6-18.9
									s-5.5,14.1-21.9,7.5c-16.4-6.6-6-26.9-6-26.9s-14,2.2-14.6-8.5c-0.1-2.5,0.8-4.7,2.4-6.5h94.2c1.1,9.5,5.8,20.7,21.4,22.6
									c26.3,3.1,35.8-19.8,36.9-22.6v0h0.1v0c0.2,2,1.5,15.1,10.9,14.9c10.1-0.2,13.4-11.4,13.4-11.4s4.4,22.7,27.5,22.7
									c3.3,0,6-0.5,8.3-1.2V87C351,86.4,342.8,79.2,342.2,78.6z"/>
							</g>
						</g>
						<g>
							<g>
								<g>
									<path class="st11" d="M163.8,199.1l0-1.9c0-1.1-0.9-2-2.1-2h-25.2c-1.2,0-2.2,0.9-2.1,2l0,1.9c0,0.4,0.1,0.8,0.4,1.1
										l-7.1,0c0,0,3.8-0.6,4-3c0.2-1.6,0.7-4.3,4-4.3h10.5c0.2,0,0.3,0,0.3,0h16.1c3.3,0,3.9,2.6,4,4.3c0.2,2.4,4,3,4,3l-7.2,0
										C163.6,199.9,163.8,199.5,163.8,199.1z"/>
									<path class="st12" d="M163.8,199.1l0-1.9c0-1.1-0.9-2-2.1-2h-25.2c-1.2,0-2.2,0.9-2.1,2l0,1.9c0,0.4,0.1,0.8,0.4,1.1
										l-7.1,0c0,0,3.8-0.6,4-3c0.2-1.6,0.7-4.3,4-4.3h10.5c0.2,0,0.3,0,0.3,0h16.1c3.3,0,3.9,2.6,4,4.3c0.2,2.4,4,3,4,3l-7.2,0
										C163.6,199.9,163.8,199.5,163.8,199.1z"/>
								</g>
								<g>
									<polygon class="st13" points="127.8,312.9 122.9,312.9 121.7,304.1 127.7,304.1 									"/>
									<polygon class="st13" points="170.4,312.9 175.4,312.9 176.6,304.1 170.6,304.1 									"/>
								</g>
								<path class="st11" d="M188.6,200.2l-0.1,1.7l-0.2,3.5l-0.2,3.5l-5.1,91.9c-0.2,3.8-4.2,6.8-9,6.8h-49.7
									c-2.3,0-4.5-0.7-6.1-1.9c-1-0.7-1.8-1.6-2.3-2.7c-0.4-0.7-0.6-1.5-0.6-2.3l-5.1-91.9l-0.2-3.5l-0.2-3.5l-0.1-1.7H188.6z"/>
								<polygon class="st10" points="188.5,201.9 188.1,208.8 110.1,208.8 109.8,201.9 								"/>
								<path class="st11" d="M197.4,205.4h-96.6c-0.1-1.9,0.8-3.7,2.1-4.9c1.4-1.3,3.3-2,5.4-2h81.5
									C194.2,198.4,197.5,201.5,197.4,205.4z"/>
								<path class="st10" d="M197.4,205.4h-9.1l-0.2,3.5l-5.1,91.9c-0.2,3.8-4.2,6.8-9,6.8h-49.7c-2.3,0-4.5-0.7-6.1-1.9
									c-1-0.7-1.8-1.6-2.3-2.7c41.3-15.9,52.4-70.9,55.5-97.7c0.2-1.9,0.4-3.6,0.5-5.2c0.1-0.6,0.1-1.2,0.2-1.8h17.8
									C194.2,198.4,197.5,201.5,197.4,205.4z"/>
							</g>
							<g>
								<g>
									<path class="st5" d="M153,250.6c0,0.8,0,1.4,0,2c-0.1,0-0.2,0.1-0.2,0.1c-0.9-1.6-1.9-3.3-2.8-4.9c-0.1-0.3-0.1-0.5,0-0.7
										c0.9-1.6,1.8-3.2,2.9-5.2c0.1,1,0.1,1.7,0.1,2.5c3.5-0.1,7,0.4,10.6-1.2c-1.5,2.3-2.5,4.8-4.5,6.6
										c-0.8,0.7-1.8,0.8-2.8,0.8C155.3,250.6,154.2,250.6,153,250.6z"/>
									<path class="st5" d="M136,234.9c-0.6-0.4-1.2-0.7-2-1.3c2.2,0,4,0,5.9,0c0.4,0,0.6,0.2,0.8,0.5c0.9,1.5,1.8,3.1,2.8,4.7
										c-0.8,0.1-1.2-0.6-2.1-0.7c-1.5,3.1-4,5.8-4.2,9.7c-1.2-2.1-2.5-4.1-3.3-6.3c-0.4-1.2-0.2-2.4,0.4-3.5
										C134.8,237,135.4,236,136,234.9z"/>
									<path class="st5" d="M146.4,222.6c2.3,0.1,4.4-0.1,6.6,0.2c1.5,0.2,2.6,0.9,3.4,2.3c0.6,1,1.2,2,1.8,3
										c0.7-0.3,1.2-0.6,1.8-1c0.1,0,0.1,0.1,0.2,0.1c-1,1.6-1.9,3.2-2.9,4.8c-0.1,0.2-0.4,0.3-0.6,0.3c-1.8,0-3.6,0-5.8,0
										c0.7-0.5,1.2-0.8,1.9-1.3C150.8,228.2,149.6,224.9,146.4,222.6z"/>
									<path class="st5" d="M148.5,244.3c0,2.1,0,4.1,0,6.2c-1.3,0-2.5,0-3.8,0c-1.2,0-2.4,0-3.6,0c-1.3,0-2.3-0.6-2.9-1.8
										c-0.6-1.4-0.4-2.8,0.3-4.1c0.2-0.3,0.4-0.3,0.7-0.3C142.3,244.3,145.4,244.3,148.5,244.3z"/>
									<path class="st5" d="M143.7,234.2c-1.8-1-3.6-2.1-5.4-3.1c1.4-2.3,2.6-4.6,4-6.8c0.7-1.1,1.8-1.4,3.1-1.2
										c1.4,0.3,2.4,1.1,3.1,2.3c0.2,0.3,0.1,0.5-0.1,0.7C146.8,228.7,145.3,231.4,143.7,234.2z"/>
									<path class="st5" d="M160.4,231.9c1.4,2.3,2.7,4.5,3.9,6.7c0.6,1.1,0.4,2.3-0.4,3.3c-0.9,1.1-2.2,1.6-3.6,1.7
										c-0.3,0-0.4-0.2-0.6-0.4c-1.6-2.7-3.1-5.4-4.7-8.1C156.8,234,158.5,233,160.4,231.9z"/>
								</g>
							</g>
						</g>
						<g>
							<path class="st9" d="M142.3,300.3c0,0,0-10.5,8.3-11.2c8.3-0.7,10.6,3.5,10.6,3.5s-11-12.9-4.6-18c6.4-5.1,9.2,12.1,9.2,12.1
								s-1.1-22.8,15.1-21c16.2,1.8,18.6,18.6,18.6,18.6s2.2-7.9,8.7-6.6s4.4,11.2,4.4,11.2s5.4-10.2,12.6-8.4
								c7.2,1.8-6.2,10.9-6.2,10.9s11.9-4.8,13.8,9H142.3z"/>
							<path class="st10" d="M149.3,300.3c0,0,2.3-7,11.2-3.5c0,0-1-6.2,5.2-6.4c6.3-0.3,7.8,2.9,7.8,2.9s-7.2-10-1.8-12.4
								c5.3-2.4,8.2,8.4,8.2,8.4s1.7-7.8,10.1-6.8c8.4,1,7.7,8,7.7,8s3.6-6.4,7.1-5.3c3.5,1.1-1.2,7.5-1.2,7.5s6.2-3.5,9.8,3.2
								c0,0,7.7-6.3,12.1,4.5H149.3z"/>
						</g>
					</g>
					<path class="st14" d="M360.9,312.9V333H-3.8c17.5-6.7,35.9-12.5,54.9-17.3c44.4-11.3,92.5-17.5,142.9-17.5
						c109.5-0.5,163.2,13.7,166.7,14.7C360.8,312.9,360.9,312.9,360.9,312.9z"/>
					<path class="st15" d="M360.7,312.8c-119.8,21.1-309.6,2.8-309.6,2.8c44.4-11.3,92.5-17.5,142.9-17.5
						C303.5,297.6,357.2,311.9,360.7,312.8z"/>
					<g>
						<polygon class="st16" points="333.9,333 296.9,333 295.3,316.1 294.8,333 260.7,333 259.9,302.1 259.8,297.4 259.6,290.8 
							259.3,276.7 259.2,273.4 260.3,273.4 276.3,272.9 291.5,272.5 305.5,272.1 316.4,271.8 333.4,271.4 333.6,298.8 						"/>
						<path class="st17" d="M335.8,333h-38.8l-1.7-16.9l-0.5,16.9h-36.6L257,296l2.6-5.3l-0.3-14.1l-0.1-3.3l1.1,0l16-0.4l15.2-0.4
							l13.9-0.4l11-0.3l17-0.5c0,0,0.9,12.7,3.6,22.9C338.8,306.6,335.8,333,335.8,333z"/>
						<path class="st8" d="M323.3,303.9c-6.1,3-16.6,5.5-29.4,7.4l6.8,4.4l1,17.3h-4.7l-1.7-16.9l-3.8-4.5c-6.6,0.9-14,1.3-22.3,1
							l-1,20.4h-10l-1-32.5l-0.1-5.9l76.6,4.2L323.3,303.9z"/>
						<path class="st18" d="M248.1,211l-8.2,27.9L207.5,261l1.1,12.5c0,0,40.9-16.6,43.5-19.2c2.5-2.6,14.3-35.2,14.3-35.2
							L248.1,211z"/>
						<path class="st19" d="M255.4,172.2l-13.4,39.9c0,0,14,14,25.9,12.3c11.9-1.7-9.4-45.3-9.4-45.3L255.4,172.2z"/>
						<path class="st19" d="M338.8,295.4c-0.5,0.5-1.1,1-1.7,1.4c-12,8.6-44.2,9.6-44.2,9.6s-28.2,2-38.4-7.9l0.2-1.7l0.5-5l0.5-4.8
							l0.9-8.2l0.5-5l1.4-13l0.5-5l1.4-13l0.5-5l0.3-2.7l-0.7-3.7l-0.6-6.6l-0.4-5l-1.1-13l-0.4-5l-1.1-13l-0.4-5l-1-11.3
							c0,0,0.4-0.6,1.6-1.7c1.2-1.2,3.1-2.9,6.1-5c2.3-1.7,5.2-3.6,8.8-5.7c0.6-0.3,1.1-0.6,1.7-1c6.3-3.4,13.3-6.4,20.3-7.7
							c5.4,0.9,10.8,2.7,15.8,4.8v0c2.1,0.9,4.1,1.9,6.1,2.9c5.4,2.8,9.3,4.9,12.1,6.5c4.7,2.7,6.3,3.8,6.3,3.8l-0.1,1.3l-0.8,13
							l-0.3,5l-0.8,13l-0.3,5l-0.7,11.5l0.1,1.5l0.5,5l0.6,6.5l0.6,6.5l0.5,5l1.3,13l0.3,3.5l0.1,1.5l1.3,13l0.5,5l1.3,13
							L338.8,295.4z"/>
						<g class="st8">
							<path d="M334.3,169.2l-0.1,1.3H257c1.2-1.2,3.1-2.9,6.1-5H328C332.7,168.1,334.3,169.2,334.3,169.2z"/>
							<polygon points="333.4,183.5 333.1,188.5 256.9,188.5 256.4,183.5 							"/>
							<polygon points="332.3,201.5 332,206.6 258.4,206.6 258,201.5 							"/>
							<polygon points="331.9,224.6 260,224.6 259.6,219.6 331.4,219.6 							"/>
							<polygon points="333.7,242.7 260.5,242.7 261,237.6 333.2,237.6 							"/>
							<polygon points="335.4,260.7 258.5,260.7 259.1,255.7 334.9,255.7 335.3,259.2 							"/>
							<polygon points="337.2,278.7 256.6,278.7 257.1,273.7 336.7,273.7 							"/>
							<path d="M338.8,295.4c-0.5,0.5-1.1,1-1.7,1.4h-82.4l0.5-5h83.3L338.8,295.4z"/>
						</g>
						<path class="st5" d="M309.8,156L309.8,156c-4.3,16.9-16.8,29.7-29.7,27.9c-13-1.8-6.4-25.1-6.4-25.1v0
							c6.3-3.4,13.3-6.4,20.3-7.7C299.4,152.1,304.8,153.8,309.8,156z"/>
						<polygon class="st10" points="259.2,224.2 260.8,199.6 262.8,227.3 259.2,226.6 						"/>
						<path class="st10" d="M338.8,295.4c-10.2,9.9-45.9,11-45.9,11s-28.2,2-38.4-7.9l1.2-11.5c11.1-2.3,36.1-7.5,40.8-10.2
							c6.2-3.4,24.9-24,24.7-30.8c-0.3-6.8-1.8-23.5-1.8-23.5l-14.3-15.2l12.3,6.1l-2.2-15.1l12.2,19.6l3.7,8.8l1.4,4.5l2.7,28
							L338.8,295.4z"/>
						<path class="st18" d="M305.5,154.4c0,0-7.9,26.2-23.1,26.2c-11.2,0-5.6-21.8-5.6-21.8l0.6-6l0.9-9.7l13.3,2.1l12.3-15.2
							l0.8,11.9L305.5,154.4z"/>
						<path class="st20" d="M304.7,141.8c-11.4,10.7-22.7,15-27.3,11l0.9-9.7l13.3,2.1l12.3-15.2L304.7,141.8z"/>
						<g>
							<path class="st5" d="M251.3,227.1c-0.4,2.9,0,8,0.5,12.6c0.6,5,1.3,9.3,1.3,9.3s4.3,2.1,8.2,2.8c3.9,0.5,8.7-0.4,8.7-0.4
								s0.1-0.3,0.4-0.8c0.7-1.4,2.1-4.4,3.5-7.8c1.8-4.3,3.7-9.1,4.1-12c0.1-0.8,0.1-1.7-0.2-2.6c-1.2-5.4-7.6-11.2-7.6-11.2
								l1.6-11.5l-8-1.1l-1.6,11.5c0,0-7.5,3.8-10.2,8.7C251.7,225.5,251.4,226.3,251.3,227.1z"/>
							<path class="st15" d="M263.1,218.7l2-14l3,0.4l3,0.4l-2,14c0,0,6.4,5.5,5.6,11.3c-0.8,5.8-6.6,19.4-6.6,19.4
								s-2.4,0.9-6.5,0.3c-4.1-0.6-6.1-2-6.1-2s-1.6-14.6-0.8-20.5C255.5,222.1,263.1,218.7,263.1,218.7z"/>
							<path class="st21" d="M253.7,237.2c7.6,1.5,12,2.1,19.3,2.7l2.1-8.7c-7.2-0.8-13.4-1.7-21.1-3L253.7,237.2z"/>
							<path class="st15" d="M251.3,227.1c-0.4,2.9,0,8,0.5,12.6c0.6,5,1.3,9.3,1.3,9.3s4.3,2.1,8.2,2.8c3.9,0.5,8.7-0.4,8.7-0.4
								s0.1-0.3,0.4-0.8c-9.6-11-5.8-31.4-5.8-31.4l2-14.4l-2.7-0.4l-1.6,11.5c0,0-7.5,3.8-10.2,8.7
								C251.7,225.5,251.4,226.3,251.3,227.1z"/>
							<polygon class="st5" points="262.4,207.2 272.9,208.6 273.1,207.5 262.5,206 							"/>
							<g>
								<polygon class="st17" points="262.8,200.5 262.6,204.2 262.5,206 273.1,207.5 273.4,205.9 274.2,202.1 								"/>
								<polygon class="st10" points="262.6,204.2 262.5,206 273.1,207.5 273.4,205.9 								"/>
							</g>
						</g>
						<g>
							<path class="st19" d="M208.9,227.2l11.8,23.7c1,2.1,2,2.8,5.6,1l4.1-2c0,0,1.3-0.7,3.2-1.6l4.1-2c3.6-1.8,3.6-3,2.5-5.1
								l-11.8-23.7c-1.8-3.6-8.5-5.7-9.1-6.8c-0.5-1.1-1.6-3.2-1.6-3.2l-10.4,5.2c0,0,1.1,2.2,1.6,3.2
								C209.5,217,207.1,223.7,208.9,227.2z"/>
							<g>
								<path class="st17" d="M203.7,208.5c1,1.5,2,3.1,2.9,4.6c3.9-1.9,7.9-3.9,11.9-5.9c-0.1-0.2-0.1-0.4-0.2-0.6
									c-0.6-1.5-1.1-3-1.7-4.5c-0.3-0.9-1.4-1.3-2.3-0.9c-3,1.2-5.8,2.6-8.6,4.1c-0.5,0.3-0.9,0.5-1.4,0.8
									C203.5,206.6,203.2,207.7,203.7,208.5z"/>
								<path class="st10" d="M203.7,208.5c1,1.5,2,3.1,2.9,4.6c3.9-1.9,7.9-3.9,11.9-5.9c-0.1-0.2-0.1-0.4-0.2-0.6
									c-2.3,0.8-9.3,2.8-12.6-1.3c-0.5,0.3-0.9,0.5-1.4,0.8C203.5,206.6,203.2,207.7,203.7,208.5z"/>
							</g>
							<path class="st10" d="M208.9,227.2l11.8,23.7c1,2.1,2,2.8,5.6,1l4.1-2c0,0,1.3-0.7,3.2-1.6l4.1-2c3.6-1.8,3.6-3,2.5-5.1
								l-0.6-1.2c-19,6.2-26.1-11.5-27.6-14.5c-1.5-3.1,0.2-9.4,0.2-9.4l-1.7-3.5l7.2-5.1l-10.4,5.2c0,0,1.1,2.2,1.6,3.2
								C209.5,217,207.1,223.7,208.9,227.2z"/>
							<path class="st22" d="M219.9,213.6c0,0,5.7,2.2,6.7,4.2l8,16.1c0.2,0.3,0,0.7-0.3,0.8c-0.3,0.2-0.7,0-0.8-0.3
								c-1.4-2.8-7.4-14.9-8-16C224.5,216.7,219.9,213.6,219.9,213.6z"/>
						</g>
						<g>
							<path class="st5" d="M288,271.1l-10.1-3.1c-0.2-0.1-0.4-0.1-0.4-0.1l-13.1-4.1c-2.7-0.8-2.5-2.8-1.7-5.3l6.5-20.8l7.6-24.4
								l3-9.8c1.2-3.9,12.5-3.7,12.5-3.7l1.2-3.8l-1.9-0.6l0.6-1.9l12.7,4l-0.6,1.9l-1.9-0.6l-1.2,3.8c0,0,9.5,6.2,8.3,10.1l-3,9.8
								l-7.6,24.4l-6.4,20.8C291.7,270.2,290.7,271.9,288,271.1z"/>
							<polygon class="st14" points="297.1,244.2 272.1,236.4 278.5,215.8 303.5,223.7 							"/>
							<path class="st15" d="M279.7,203.4l-17.1,55c-0.8,2.5-1,4.5,1.7,5.3l13.1,4.1c0,0,0.2,0,0.4,0.1l10.1,3.1
								c2.7,0.8,3.6-0.9,4.4-3.4l0.4-1.3c-22.9-13.3-14.3-41.3-12.3-47.5l4-12.9c1.1-3.5,9.6-3.8,9.6-3.8l1.5-4.8l6.4,2.8l0.4-1.4
								l-9-2.8l-1.2,3.8C292.3,199.7,280.9,199.5,279.7,203.4z"/>
						</g>
						<g>
							
								<rect x="235.4" y="199.8" transform="matrix(0.9994 3.597995e-02 -3.597995e-02 0.9994 7.3819 -8.627)" class="st5" width="15.9" height="1.9"/>
							<g>
								<path class="st5" d="M230.8,215.8c0.2,9.1,0.5,18.2,0.7,27.3c0.1,2.4,0.6,3.5,4.4,3.4c1.4,0,2.9,0,4.3,0c0,0,1.4,0,3.4,0.1
									c1.4,0.1,2.9,0.1,4.3,0.2c3.7,0.3,4.4-0.8,4.6-3.2c0.8-9.1,1.6-18.2,2.4-27.2c0.4-4.1-5-9.7-5-10.9c0.1-1.2,0.2-3.7,0.2-3.7
									c-4.6-0.3-9.2-0.5-13.7-0.4c0,0,0,2.5,0,3.7C236.4,206.5,230.7,211.6,230.8,215.8z"/>
							</g>
							<path class="st14" d="M232.5,230.1c6.7-0.2,13.3,0,20,0.6c0.4-4.4,0.8-8.9,1.2-13.3c-7.1-0.7-14.3-0.9-21.5-0.7
								C232.2,221.2,232.3,225.7,232.5,230.1z"/>
							<path class="st15" d="M230.8,215.8c0.2,9.1,0.5,18.2,0.7,27.3c0.1,2.4,0.6,3.5,4.4,3.4c1.4,0,2.9,0,4.3,0c0,0,1.4,0,3.4,0.1
								c1.4,0.1,2.9,0.1,4.3,0.2c3.7,0.3,4.4-0.8,4.6-3.2c0-0.4,0.1-0.9,0.1-1.3c-18.7-4.5-18-23.1-17.9-26.9c-0.1-3.5,5-8.6,5-8.5
								c0-1.4,0-2.7,0.1-4.1c3.4-0.4,6.9-0.8,10.4-1c-4.6-0.3-9.2-0.5-13.7-0.4c0,0,0,2.5,0,3.7
								C236.4,206.5,230.7,211.6,230.8,215.8z"/>
						</g>
						<g>
							<g>
								<polygon class="st23" points="309.7,229.6 305,277.4 303.7,290.8 252.2,290.8 252.1,259.9 261.6,224.8 								"/>
								<path class="st8" d="M304.4,283.4l-0.7,7.4h-43.9l1.6-55.8C261.4,234.9,269.6,275.6,304.4,283.4z"/>
								<path class="st23" d="M261.6,224.8l-1.5,55.4l-0.3,10.6h-53.5l-4.5-58.8c0-0.1,0-0.1,0-0.1l-0.4-4.9l21.4-0.8l10.6-0.4
									L261.6,224.8z"/>
								<path class="st12" d="M201.4,226.9l0.4,4.9c0,0,0,0,0,0.1l1.4,18.5l1.1,14.6l2,25.8h53.5l0.3-10.6l0.4-15.2l0.4-14.6
									l0.7-25.6l-28.1,1l-10.6,0.4L201.4,226.9z"/>
							</g>
						</g>
						<g>
							<path class="st23" d="M201.4,227c0,0-6.6,11.4-12.8,14.2l64.7-2.6c0,0,9.1-6.5,8.3-13.8L201.4,227z"/>
							<g>
								<path class="st23" d="M261.8,224.8c1,5.5,2.6,9.3,9.9,14.2l48.5,3.3c-8.9-5.2-10.6-12.7-10.6-12.7L261.8,224.8z"/>
								<path class="st10" d="M261.8,224.8c1,5.5,2.6,9.3,9.9,14.2l48.5,3.3c-8.9-5.2-10.6-12.7-10.6-12.7L261.8,224.8z"/>
							</g>
						</g>
						<g>
							<path class="st18" d="M296,290.4c0,0-0.1,0.1-0.1,0.1c-0.3,0.3-0.6,0.6-0.9,0.9c-3.6,3.7-4.7,4.2-5.9,4.1
								c-0.9-0.2-0.8-1.1-0.8-1.3c-0.1,0.2-0.8,1.7-2.4,1.5c-1.3-0.2-1.2-1.7-1.2-1.7c-0.1,0.2-1.4,1.9-3.5,1.3
								c-1.5-0.4-1.1-2.3-1-2.5c0,0,0,0,0,0l1.2-0.9l1.4,0.2l9,1l2.3-1.5L296,290.4z"/>
							<path class="st18" d="M301.8,278.4c-1.5,6.5-3.2,9.6-5.8,12c0,0-0.1,0.1-0.1,0.1c-0.4,0.3-0.8,0.7-1.2,1
								c-0.6,0.4-1.2,0.9-1.8,1.3c-0.2,0.1-0.3,0.2-0.5,0.4c0,0,0,0,0,0c-1.2,0.7-2.6,1.1-4.1,1.1c-0.9,0-1.7,0-2.6-0.1c0,0,0,0,0,0
								c-2.8-0.3-5.4-1.4-5.4-1.4c0,0,0,0,0,0c-2,3.2-6,1.7-4.6-1.9c0.4-1,0.4-1,1.1-2.1c0.1-0.2,0.3-0.4,0.4-0.6
								c2.2-3.5,5.5-7.6,5.7-7.9c-3.1,1.9-9.5,2.4-9-0.5c0.6-4.2,20.8-8.9,20.8-8.9L301.8,278.4z"/>
							<path class="st20" d="M295,291.4c-3.6,3.7-4.7,4.2-5.9,4.1c-0.9-0.2-0.8-1.1-0.8-1.3c-0.1,0.2-0.8,1.7-2.4,1.5
								c-1.3-0.2-1.2-1.7-1.2-1.7c-0.1,0.2-1.4,1.9-3.5,1.3c-1.5-0.4-1.1-2.3-1-2.5c-2,3.2-6,1.7-4.6-1.9c0.4-1,0.4-1,1.1-2.1
								c0.1-0.2,0.3-0.4,0.4-0.6c0,0,6.8,4.8,17.1,3.4c0.2,0,0.3,0,0.5-0.1C294.8,291.5,294.9,291.4,295,291.4z"/>
						</g>
						<path class="st18" d="M322.7,202l6.6,40.4l-34.6,28.4c0,0,0,6.8,6.5,9.6c0,0,45.2-24.3,48-31.7c2.7-7.3-4.1-42.6-4.1-42.6
							L322.7,202z"/>
						<polygon class="st20" points="326.5,227.6 347.1,218.4 346.6,214.9 325.5,221.4 						"/>
						<path class="st19" d="M315.3,198.2l7.6,25.7l28-10.5c0,0-6.9-34.5-16.6-44.2C334.3,169.2,320.2,175.1,315.3,198.2z"/>
						<g>
							<path class="st17" d="M260.2,105.9c0,0-2,8.7,2.5,14.7l4-14.1L260.2,105.9z"/>
							<path class="st18" d="M281.8,88.8C281.8,88.8,281.8,88.8,281.8,88.8c0,0,16.8-4.2,25.7,16c0,0,5.3,13.1-0.2,25.7
								c0,0-11.8,16.8-25.5,21.5c-9.7,3-17.4-14.4-19.6-31.7C260.8,104.4,270.8,90.2,281.8,88.8z"/>
							<path class="st17" d="M315.5,89.4c-3.8-5.2-10.3-3.4-10.3-3.4h0h0c-19.4-33.1-53.4,8.7-53.4,8.7h8.5l-15.5,6.1
								c14.8,8.5,37.1,8.4,37.1,8.4l0,0c8.3,0.2,14.8-0.4,14.8-0.4s-0.5,5.6,5.7,8.3c-0.1,7.9,1.2,15.6,1.2,15.6
								c1.7-4.1,2.5-8.2,2.9-11.6l0,0c0,0,1.7-2.3,3.6-3.6c2-1.1,4-1.1,4-1.1S319.3,94.6,315.5,89.4z"/>
							<path class="st18" d="M306.2,123.9l-0.3,6.4c6.6,2.4,12.1-4.1,13-9.5c0.5-2.7-0.1-5.1-2.3-5.9c-4.1-1.6-7.7,2.1-9.3,4.9
								C306.6,121,306.2,123.9,306.2,123.9z"/>
							<path class="st17" d="M289.1,121.7c0,2.6,0.6,4.7,1.4,4.7c0.8,0,1.4-2.1,1.4-4.7c0-2.6-0.6-4.7-1.4-4.7
								C289.7,116.9,289.1,119.1,289.1,121.7z"/>
							<path class="st17" d="M271.2,122c0,2.6,0.6,4.8,1.2,4.8c0.7,0,1.2-2.1,1.2-4.8c0-2.6-0.6-4.8-1.2-4.8
								C271.8,117.3,271.2,119.4,271.2,122z"/>
							<g>
								<path class="st17" d="M266.4,117.3c0.4,0,1.7-2.7,3.5-3.6c1.1-0.5,2.5-0.5,4,0c0.5,0.2,1.1-0.1,1.3-0.6
									c0.2-0.5-0.1-1.1-0.6-1.3c-2.1-0.7-4-0.7-5.6,0.1C266.4,113.1,266.3,117.3,266.4,117.3z"/>
							</g>
							<g>
								<path class="st17" d="M296.5,117.6c0.6-0.2-0.4-4.7-3.3-6.1c-1.8-0.9-4-0.9-6.3-0.1c-0.6,0.2-0.9,0.9-0.7,1.5
									c0.2,0.6,0.9,0.9,1.5,0.7c1.7-0.6,3.3-0.6,4.5,0C294.2,114.6,296.4,117.6,296.5,117.6z"/>
							</g>
						</g>
					</g>
					<g>
						<g>
							<path class="st17" d="M108.6,246.1c0,0-1.5-0.6-4.6,0.9c-3.1,1.6-6,4.1-12.6,3.1c0,0,2.9,5,6.9,3.7
								C102.4,252.6,108,248.9,108.6,246.1z"/>
							<path class="st24" d="M108.6,246.1c0,0-1.5-0.6-4.6,0.9c-3.1,1.6-6,4.1-12.6,3.1c0,0,2.9,5,6.9,3.7
								C102.4,252.6,108,248.9,108.6,246.1z"/>
							<path class="st17" d="M67.8,302.1c0.4,0.9,0.8,1.8,1.4,2.6c0.3,0.5,0.7,1,1,1.4c10.9,13.6,24.5,0.7,39.6,2.7
								c15.1,2,25.1-8.9,19.8-22.2c-2.7-6.9-7.5-10.5-12.3-13.6c-4.5-2.9-9.1-5.4-12-10c-6-9.3,3.4-9.2,3.4-16.9c0-0.1,0-0.1,0-0.2
								c0,0-5.5,6.7-13.4,5.1c-8.9-3-11.3-0.8-11.8-0.9c9.6,2.4,9,10.4,5.8,14.4C87.9,267.3,62.5,289.2,67.8,302.1z"/>
							<path class="st10" d="M79.2,287.6c0,0,6.7,4.6,17.4,2.7c0,0-3.6,2.2-7.6,1.6c0,0,4.5,4.5,15.8,1.7
								C104.8,293.6,91.7,300.5,79.2,287.6z"/>
							<path class="st10" d="M101.8,259.2c0,0-0.3-3.1,1.4-5.8c0,0-2.8,3.1-2.9,6l-2.5,0.3c0,0-0.2-2.9-1.8-4.4c0,0,0.9,3.1-0.4,5
								l-1.3-0.6c0,0-0.2-6.4-3.2-7.7c0,0,2.6,2.1,1.9,7.9C93.1,259.9,98.1,263.6,101.8,259.2z"/>
							<path class="st10" d="M102.1,260.1c0,0,1.5,7.1,8.1,11.7c0,0-5.9-2.9-8.9-9l0.2,5.1c0,0-1.5-3.8-2-6.8l-3.2-0.2
								c0,0-0.3,5.4-3.6,10.2c0,0,2-4.8,1.8-8.5c0,0-1.6,3.4-4.7,4.8c0,0,3.3-3.8,3.5-7.6L102.1,260.1z"/>
						</g>
						<path class="st19" d="M103.3,258c0,0-5,2.9-11.9,0.2c0,0-0.3,0.9-0.1,2.1c0,0,3.2,4,12.7,0.4C103.9,260.7,104.7,259,103.3,258
							z"/>
						<path class="st10" d="M69.2,304.8c0.3,0.5,0.7,1,1,1.4c10.9,13.6,24.5,0.7,39.6,2.7c15.1,2,25.1-8.9,19.8-22.2
							c-2.7-6.9-7.5-10.5-12.3-13.6c0,0,13.7,13.9,3.4,24.3c-10.4,10.3-20.2,3.4-30.9,9.9C79.1,313.8,71.5,307.4,69.2,304.8z"/>
					</g>
					<g>
						<g>
							<path class="st25" d="M294.7,127.1c0.1,0.4,1,0.5,2.1,0.4c1.1-0.2,2-0.6,1.9-1c-0.1-0.4-1-0.5-2.1-0.4
								C295.5,126.3,294.6,126.8,294.7,127.1z"/>
							<path class="st25" d="M294.5,129.4c0.1-0.4,1-0.5,2.1-0.4c1.1,0.2,2,0.6,1.9,1c-0.1,0.4-1,0.5-2.1,0.4
								C295.3,130.2,294.4,129.7,294.5,129.4z"/>
						</g>
						<g>
							<path class="st25" d="M268.8,129.4c-0.1-0.4-1-0.5-2.1-0.4c-1.1,0.2-2,0.6-1.9,1c0.1,0.4,1,0.5,2.1,0.4
								C268,130.2,268.8,129.7,268.8,129.4z"/>
							<path class="st25" d="M268.7,127.1c-0.1,0.4-1,0.5-2.1,0.4c-1.1-0.2-2-0.6-1.9-1c0.1-0.4,1-0.5,2.1-0.4
								C267.9,126.3,268.7,126.8,268.7,127.1z"/>
						</g>
					</g>
					<g>
						<path class="st25" d="M279.8,138.7c4.8-0.1,7.7-3.9,7.8-4.1c0.1-0.1,0.1-0.3-0.1-0.4c-0.1-0.1-0.3-0.1-0.4,0.1
							c0,0-2.8,3.7-7.3,3.8c-4.5,0.1-6.7-3.4-6.7-3.4c-0.1-0.1-0.3-0.2-0.4-0.1c-0.1,0.1-0.2,0.3-0.1,0.4
							C272.6,135.2,275,138.8,279.8,138.7z"/>
					</g>
					<g>
						<path class="st25" d="M278.9,132.3c0,0-0.1,0-0.1,0c-0.6-0.1-1.9-0.5-2.1-4c-0.2-5.7,0.7-8.9,0.7-9c0.1-0.2,0.3-0.3,0.5-0.3
							c0.2,0.1,0.3,0.3,0.3,0.5c0,0-0.9,3.2-0.7,8.8c0.1,2.4,0.8,3.3,1.4,3.3c0.9,0.1,2.2-1.4,2.8-4c0-0.2,0.3-0.3,0.5-0.3
							c0.2,0,0.3,0.3,0.3,0.5C281.8,130.4,280.4,132.3,278.9,132.3z"/>
					</g>
					<path class="st25" d="M314.6,119.5c-4.6-0.1-7.3,4.1-7.4,4.3c-0.1,0.2-0.1,0.4,0.1,0.5c0.1,0,0.1,0.1,0.2,0.1
						c0.1,0,0.3-0.1,0.3-0.2c0,0,1-1.6,2.8-2.7c1.6,1,0.8,3.7,0.8,3.8c-0.1,0.2,0,0.4,0.3,0.5c0,0,0.1,0,0.1,0
						c0.2,0,0.3-0.1,0.4-0.3c0-0.1,0.9-3-0.8-4.4c0.9-0.5,1.9-0.8,3.1-0.8c0,0,0.1,0,0.1,0c0.2,0,0.4-0.2,0.4-0.4
						C315,119.7,314.8,119.5,314.6,119.5z"/>
				</g>
			</g>
		</g>
	</g>
</g>
</svg>
