<?xml version="1.0" encoding="UTF-8"?>
<svg id="uuid-ae0927f0-a069-423d-b352-07962ab03152" data-name="圖層 2" xmlns="http://www.w3.org/2000/svg" width="279.55" height="210.19" viewBox="0 0 279.55 210.19">
  <g id="uuid-b01b8152-aca8-45ac-b046-c3e7fcecf607" data-name="第一cut">
    <g>
      <g>
        <path d="m88.28,142.97c-10.87,1.06-21.07,6.46-31.77,8.67-.02,0-.04,0-.07,0-.14.02-.27.04-.41.06,13.29-3.09,25.65-8.91,38.54-13.17,0,0,0,0,0,0,5.46-.53,10.99-.44,16.43.25.78.1,1.75.4,1.83,1.19-8.03,1.91-16.34,2.18-24.55,2.99Z" style="fill: #e3e0a8;"/>
        <path d="m54.7,151.65c2.55-7.9,7.1-18.52,12.39-24.7,6.24-7.29,12.98-14.41,21.4-18.99-11.83,12.31-22.61,28.24-32.29,42.53-.04.06-.08.12-.12.19h0c-.33.4-.66.79-.98,1.18-.13-.07-.27-.14-.4-.21Z" style="fill: #f3f3d8;"/>
        <path d="m55.31,151.83c.06-.09.12-.18.18-.28h.01c.44-.35,1.21-.95,2.12-1.65,14.09-5.94,27.71-14.62,42.92-15.4,1.77-.09,3.67-.08,5.15.9-3.77.85-7.46,1.94-11.12,3.14,0,0,0,0,0,0-12.89,4.26-25.26,10.08-38.54,13.17-.24.04-.48.07-.71.11Z" style="fill: #f3f3d8;"/>
        <path d="m55.49,151.55c-.25.19-.39.3-.39.3.33-.39.65-.78.98-1.17-.19.29-.39.58-.58.86h-.01Z" style="fill: #e3e0a8;"/>
        <path d="m55.5,151.55c.19-.28.39-.57.58-.86h0c.06-.08.12-.14.17-.21.46-.18.91-.37,1.36-.57-.91.7-1.68,1.3-2.12,1.64Z" style="fill: #f3f3d8;"/>
        <path d="m99.54,116.56c-1.47,1.7-3.36,2.99-5.22,4.25-10.93,7.38-20.03,17.49-30.96,24.87-1.37.93-3.85,2.8-5.73,4.23-.45.19-.9.38-1.36.57,7.43-8.83,16.2-18.89,25.71-25.05,5.53-3.58,11.2-7.18,17.57-8.86Z" style="fill: #e3e0a8;"/>
        <path d="m54.58,152.01l.11-.36c.13.06.27.13.4.21l-.52.15Z" style="fill: #f3f3d8;"/>
        <path d="m47.96,156.58c2.2-1.36,4.39-2.79,6.56-4.34.02-.08.05-.15.07-.23l.52-.15c.07,0,.14-.02.21-.03-.09.13-.17.25-.25.37l.21.15c.11,0,.23.01.34.03l-.03.43c-.21.27-.41.54-.61.81l-.06-.04c-15.23,12.24-26.6,25.29-39.46,40.01-.76.88-1.64,1.81-2.8,1.96.11-1.9,1.08-3.62,2.08-5.25,8.48-13.89,20.52-23.81,33.23-33.72Z" style="fill: #f3f3d8;"/>
        <path d="m56.44,151.66c-.3.06-.59.12-.9.18l.48-.12c.14-.02.28-.04.41-.06Z" style="fill: #f3f3d8;"/>
        <path d="m55.31,151.83c.24-.04.48-.07.71-.11l-.48.12c.3-.06.6-.11.9-.18.02,0,.05,0,.07,0,18.39-2.75,37.92-7.03,56.42-6.03-.11,2.08-.63,6.16-.92,8.5-18.78-2.11-37.35-4.57-56.06-1.88v.16c-.12,0-.22-.02-.33-.02-.11-.01-.23-.02-.34-.03l-.21-.15c.08-.12.16-.24.25-.37Z" style="fill: #f3f3d8;"/>
        <path d="m115.22,156.99c1.28.22,1.15.61.79.92s-.85.42-1.32.36l-55.27-4.61.16-1.27c20.37,1.56,35.48,1.22,55.63,4.6Z" style="fill: #96214b;"/>
        <path d="m54.59,157.41c-3.93,6.82-9.29,12.67-14.26,18.79-7.79,9.59-14.65,19.9-21.49,30.19-.32.16-.81.02-1.04-.3-.19-.27-.24-.59-.24-.93.46-.66.91-1.32,1.37-1.98,11.62-16.8,23.64-33.32,36.03-49.57.2-.27.41-.54.61-.81l.03-.43c.11,0,.21,0,.32.02,0,0,2.47-.09,3.66,0l-.16,1.27c.37.99.74,1.97,1.1,2.95.47,1.26.95,2.67.46,3.92-.11.3-.28.59-.54.78-.47.36-1.14.35-1.71.2-1-.28-1.87-.94-2.56-1.73-.62-.72-1.12-1.55-1.6-2.38Z" style="fill: #96214b;"/>
        <path d="m54.92,153.57l.06.04c-12.4,16.24-24.41,32.77-36.03,49.57l-.22-.15c-1-.59-1.83-1.46-2.37-2.48-.2-.37-.37-.79-.33-1.21.04-.41.26-.77.47-1.12,10.59-17.19,24.24-30.28,38.43-44.65Z" style="fill: #f3f3d8;"/>
        <path d="m53.4,152.36c-.17.05-.35.1-.52.15.53-.32,1.05-.65,1.59-.97.08.03.16.07.24.12l-.11.36c-.39.12-.79.23-1.19.35Z" style="fill: #f3f3d8;"/>
        <path d="m54.58,152.01c-.02.08-.05.15-.07.23-2.17,1.56-4.36,2.98-6.56,4.34,1.81-1.4,3.62-2.81,5.44-4.23.4-.11.79-.23,1.19-.35Z" style="fill: #f3f3d8;"/>
        <path d="m52.87,152.5c.17-.05.35-.1.52-.15-1.82,1.42-3.64,2.82-5.44,4.23-8.35,5.2-16.77,9.53-24.01,16.65-4.88,4.8-9.65,9.85-15.52,13.37,11.81-15.3,28.02-24.02,44.45-34.1Z" style="fill: #e3e0a8;"/>
        <path d="m54.46,151.53c-.53.33-1.06.65-1.59.97-15.3,4.41-31.35,7.48-44.41,16.51l-.04.13c-2.73-.91-5.55-1.53-8.41-1.85h-.01c9.77-9.85,20.82-13.37,34.29-16.77,5.8-1.46,14.66-1.65,20.17,1.01Z" style="fill: #f3f3d8;"/>
        <path d="m86.99,108.94c-6.49,6-12.97,12.08-18.51,18.99-5.75,7.17-9.74,15.32-13.94,23.45-.02,0-.04-.01-.07-.01-.09,0-.17,0-.25.01.01-.17-.09-.36-.31-.36-9.33-.31-18.67,1.03-27.56,3.85-4.29,1.36-8.46,3.05-12.5,5.04-4.05,2-8.21,4.19-11.44,7.41-.28.28.18.7.46.42,3.19-3.17,7.32-5.33,11.32-7.3,4.15-2.05,8.46-3.77,12.88-5.14,7.73-2.39,15.78-3.66,23.86-3.69-7.49.67-14.83,2.49-21.91,5.01-7.83,2.79-15.85,6.14-22.42,11.31-.31.25.02.77.34.52,6.54-5.15,14.49-8.47,22.27-11.24,8.13-2.9,16.6-4.86,25.24-5.21.13.13.38.16.5-.06,4.31-8.33,8.38-16.68,14.32-24,5.47-6.74,11.81-12.69,18.18-18.57.29-.27-.17-.69-.46-.42Z" style="fill: #e3e0a8;"/>
        <path d="m53.92,152.78c-16.02,11.11-29.89,25.12-40.84,41.24-.23.33.33.62.55.29,10.89-16.03,24.7-29.96,40.63-41.01.33-.23,0-.75-.34-.52Z" style="fill: #e3e0a8;"/>
        <path d="m52.6,156.07c-13.57,13.71-26.34,28.5-35.24,45.73-.18.36.37.65.55.29,8.87-17.19,21.61-31.93,35.15-45.6.28-.29-.18-.7-.46-.42Z" style="fill: #e3e0a8;"/>
        <path d="m112.91,148.1c.4.01.37-.61-.03-.62-13.63-.48-27.28.16-40.81,1.9-.12.02-.2.09-.24.18-4.6.3-9.19.75-13.76,1.34,7.02-3.03,14.12-5.88,21.3-8.53,7.57-2.8,15.27-5.73,23.37-6.42.4-.03.37-.66-.03-.62-7.96.69-15.52,3.51-22.97,6.25-7.79,2.87-15.5,5.97-23.12,9.28-.12.05-.18.16-.19.27-.13.02-.27.03-.4.05-.39.05-.37.68.03.62,18.8-2.62,37.88-2.76,56.71-.4.39.05.54-.56.14-.61-11.21-1.41-22.52-1.93-33.8-1.57,11.23-1.13,22.53-1.51,33.81-1.11Z" style="fill: #e3e0a8;"/>
      </g>
      <g>
        <g>
          <path d="m161.4,68.39c.13.03.25.07.37.12.52.21,1,.53,1.32.99.33.48.44,1.07.5,1.66.3,3.31-1.55,6.72-4.47,8.3.02,1.11.64,2.16,1.45,2.93.85.8,1.89,1.36,2.93,1.9l.44.38c-1.46,1.7-2.84,3.47-4.14,5.29-.47-.33-.96-.64-1.5-.85-.79-.31-1.69-.4-2.47-.06-.53.24-.94.63-1.27,1.12-.97,2.03-1.57,4.28-1.51,6.52h-.38c-2.79.44-5.54,1.08-8.25,1.91h0c2.13-2.99,3.53-5.89,4.37-8.64.33-.04.65-.12.96-.24,1.61-.59,2.85-2.06,3.19-3.74.1-.48.13-.99.04-1.48-.08-.5-.28-.96-.53-1.41-.61-1.08-1.53-1.99-2.68-2.48-.21-2.36-.75-4.51-1.42-6.38,2.05.02,4.09-.13,6.12-.46l.17-.06c.42-1.62,1.19-3.19,2.46-4.26,1.18-.99,2.83-1.48,4.29-1.07Z" style="fill: #ffc9a8;"/>
          <path d="m148.36,74.23c.67,1.86,1.22,4.01,1.42,6.38-.06-.04-.12-.06-.18-.08-.87-.33-1.84-.38-2.72-.14v-.04c-.79.12-1.45.7-1.96,1.3-.64.75-1.2,1.6-1.45,2.56-.42,1.65.19,3.52,1.48,4.63,1.04.9,2.48,1.29,3.84,1.1-.85,2.76-2.24,5.66-4.37,8.64h0c-3.52,1.07-6.95,2.47-10.22,4.16-.91.07-1.83.07-2.76.01-2.08-.12-4.17-.5-6.17-1.07-1.45-.4-2.87-.9-4.24-1.5-2.2-.97-4.26-2.25-5.97-3.93-1.34-1.32-2.43-2.85-3.32-4.5h0c-.87-1.63-1.54-3.37-2.05-5.14-.72-2.51-1.14-5.09-1.46-7.69-.01-.11-.03-.21-.04-.33-.12-.99-.23-1.98-.33-2.97-.04-.4-.08-.83-.02-1.22.08-.1.16-.22.24-.33,1-1.46,1.96-2.95,2.89-4.46,1.31,2.45,3.1,4.66,5.23,6.43,1.62,1.36,3.65,2.53,5.74,2.2.16-.02.34-.07.46-.18.28-.27.15-.73-.01-1.07-.99-2.12-2.2-4.13-3.61-5.99l.24-.19c3.83,3.2,8.67,5.16,13.65,5.54.6.05,1.34,0,1.62-.53.28-.53-.08-1.16-.44-1.63-1.61-2.15-3.45-4.11-5.49-5.86h0c5.94,3.78,12.96,5.82,20,5.86Z" style="fill: #ffdcbf;"/>
          <path d="m160.47,71.69c-1.01.22-2.29,2.82-.72,2.61.39-.05.4-.67,0-.62-.1-.43.02-.79.34-1.07.39.14.79.27,1.18.41.11.23-.23,1.09-.32,1.26-.44.89-1.41,1.84-2.47,1.31-1.97-.97-.63-3.49.27-4.69.24-.32-.3-.63-.54-.31-1.05,1.4-2.12,3.65-.59,5.15,1.37,1.33,3.14.32,3.86-1.15.47-.95.73-3.29-1.02-2.91Z" style="fill: #fd9f6b;"/>
        </g>
        <g>
          <path d="m117.95,106.71c-.21.1-.42.21-.59.36h0c1.61-1.15,3.85-2.57,5.2-2.71,1.78-.19,7.12-1.76,8.9-1.6.93.05,1.85.05,2.76-.01-3.58,1.85-6.97,4.04-10.11,6.56-.51-.4-1.02-.81-1.54-1.2-.67-.51-1.36-1.03-2.14-1.33-.79-.31-1.7-.4-2.47-.06Z" style="fill: #ff4973;"/>
          <path d="m129.64,114.19c1.53,2.06,1.3,5.25-.53,7.06-1.36,1.34-3.34,1.88-5.24,1.91-1.21.02-2.43-.15-3.55-.6-.89-.36-1.68-.9-2.36-1.56-1.36-1.32-2.29-3.14-2.63-5.02,0-.01,0-.04,0-.05-.47-2.75.17-5.6,1.38-8.12.19-.28.41-.53.67-.74.18-.14.38-.26.59-.36.77-.34,1.68-.25,2.47.06.79.3,1.48.82,2.14,1.33.52.39,1.03.8,1.54,1.2,1.36,1.07,2.68,2.19,3.99,3.32.2.17.4.35.59.53.35.31.67.65.96,1.03Z" style="fill: #ffdcbf;"/>
          <path d="m167,103.58c-1.36,1.34-3.34,1.88-5.24,1.91-1.21.02-2.43-.15-3.55-.6-2.51-1.02-4.26-3.43-4.89-6.06-.04-.19-.08-.38-.11-.57-.09-.52-.14-1.05-.15-1.58-.06-2.24.54-4.48,1.51-6.52.33-.49.74-.88,1.27-1.12.78-.34,1.68-.25,2.47.06.54.21,1.03.52,1.5.85.22.16.44.32.65.48.59.46,1.19.92,1.77,1.39.82.64,1.63,1.31,2.42,1.99.45.38.89.76,1.33,1.14.56.48,1.1.98,1.54,1.56,1.54,2.06,1.3,5.26-.53,7.06Z" style="fill: #ffdcbf;"/>
        </g>
        <g>
          <path d="m121.87,29.99c3.91,2.16,7.42,5.26,9.64,9.11-1.42.46-2.73,1.14-3.86,2.1-5.99,2.16-10.93,6.83-14.86,11.93-1.1,1.44-2.16,2.94-3.11,4.5,13.1-24.94-3.02-32.46-3.02-32.46,5.27.9,10.53,2.25,15.22,4.83Z" style="fill: #d6793c;"/>
          <path d="m99.77,77.17c0-.07,0-.13,0-.19v-5.17c1.65.18,3.32.29,4.98.34-.03.72-.02,1.48.3,2.12.33.64,1.06,1.13,1.76.96.05-.01.1-.03.14-.04.36-.14.65-.44.89-.76-.06.39-.02.82.02,1.22.1.99.21,1.98.33,2.97-.13.3-.75.43-1.46.49-.04,0-.07,0-.1,0-.9.05-1.93,0-2.34-.04-1.32-.09-2.62-.42-3.84-.96-.2-.09-.4-.19-.53-.37-.11-.16-.14-.36-.15-.56Z" style="fill: #dd732b;"/>
        </g>
        <path d="m109.68,57.63c-2.74,4.45-4.69,9.35-4.94,14.51-1.66-.05-3.33-.16-4.98-.34-3.57-.38-7.12-1.05-10.59-2-2.51-.69-5.04-1.56-7.13-3.13-2.29-1.73-3.93-4.22-4.97-6.89-1.04-2.68-1.52-5.54-1.8-8.4-.87-8.65-.05-17.48,2.41-25.83l.02-.34c.53.03,1.06.04,1.59.03,2.69-.04,5.34-.56,8.01-.87,6.43-.74,12.97-.29,19.35.79,0,0,16.12,7.52,3.02,32.46Z" style="fill: #e88b4b;"/>
        <g>
          <path d="m25.18,19.41c4.23,6.52,10.03,11.88,14.49,18.25-.82-.13-1.69.09-2.39.55-.99.65-1.64,1.73-1.98,2.86-.08.25-.15.5-.18.76l-.26-.05c-2.06.7-4.17,1.41-6.33,1.35-2.17-.05-4.45-1.01-5.48-2.92-.51-.97-.68-2.1-.65-3.2.03-1.52.42-3.07,1.29-4.32.87-1.25,2.25-2.18,3.77-2.32-4.32-3.53-6.84-9.17-6.58-14.75.02-.37.13-.84.49-.91.27-.06.52.16.72.35,1.24,1.28,2.14,2.85,3.11,4.35Z" style="fill: #e88b4b;"/>
          <g>
            <path d="m109.41,96.11c-3.91,6.86-9.65,15.19-14.28,19.95v.14c-.76-.06-1.52.04-2.24.27h0c-3.46-3.08-6.89-6.43-10.46-9.61l.19-.21c.17-5.52.59-11.02,1.28-16.5v-.03s1.72-7.08,1.72-7.08c0,0-4.88.31-30.02-14.94-4.13-4.17-8.04-8.58-11.71-13.17-3.03-3.8-5.92-7.76-8.14-12.09l-.73-.91c-.18-.78,1.56-3.74,2.31-4.24.53-.36,1.2-.52,1.82-.42.08,0,.16.03.23.05,12.37,14.49,27.78,26.38,44.94,34.63,4.92,2.37,10.05,4.46,15.45,5.23,0,.2.04.4.15.56.13.18.33.28.53.37,1.22.54,2.52.87,3.84.96.41.03,1.44.09,2.34.04.04,0,.07,0,.1,0,.71-.06,1.33-.19,1.46-.49.01.11.03.22.04.33.32,2.59.74,5.18,1.46,7.69.51,1.76,1.18,3.51,2.05,5.13h0c-.67,1.35-1.45,2.82-2.34,4.37Z" style="fill: #72e267;"/>
            <path d="m131.45,102.75c-1.78-.16-7.12,1.42-8.9,1.6-1.36.13-3.6,1.56-5.2,2.7h0c-.26.21-.48.47-.67.75-1.21,2.52-1.85,5.37-1.38,8.12,0,.01,0,.04,0,.05l-.4.08c-4.43,2.59-10.18,7.41-13.99,12.57-.13-1.01-.33-2.11-.64-3.31.15-.44.27-.91.35-1.38.22-1.28.16-2.59-.27-3.79.59-.21,1.91-.85,3.68-1.97,3.05-1.93,7.43-5.32,11.71-10.46,1.79-2.13,3.55-4.57,5.2-7.32l.1-.21c1.37.61,2.79,1.1,4.24,1.5,2,.56,4.08.95,6.17,1.07Z" style="fill: #72e267;"/>
            <path d="m121.04,100.18l-.1.21c-1.65,2.76-3.41,5.2-5.2,7.32-4.28,5.14-8.67,8.53-11.71,10.46-1.76,1.13-3.08,1.76-3.68,1.97-.05-.13-.1-.27-.16-.4-.81-1.81-2.56-3.16-4.52-3.48-.18-.03-.36-.05-.55-.06v-.14c4.63-4.76,10.37-13.08,14.29-19.95.88-1.55,1.67-3.02,2.34-4.36.89,1.65,1.98,3.18,3.32,4.5,1.71,1.68,3.77,2.96,5.97,3.93Z" style="fill: #3ecc3a;"/>
            <path d="m85.62,83.03l-1.71,7.08c-4.72-2.12-8.98-5.16-13.04-8.36-5.37-4.23-10.47-8.79-15.27-13.65,25.15,15.25,30.02,14.94,30.02,14.94Z" style="fill: #64d659;"/>
          </g>
          <path d="m100.36,120.15c.44,1.2.5,2.51.27,3.79-.08.47-.2.93-.35,1.38-.61,1.8-1.7,3.4-2.89,4.87-.93,1.15-1.93,2.25-2.98,3.28-.42.42-.85.82-1.28,1.22-.09.08-.18.17-.27.24-.18.16-.36.31-.53.46-.5.41-1.04.77-1.61,1.01-.44.19-.9.3-1.38.31-1.44.03-2.76-.94-3.48-2.19-.04-.08-.09-.17-.13-.25-.69-1.37-.78-2.97-.67-4.5,0-.1.01-.21.03-.32.12-1.58.45-3.14.98-4.63.32-.91.71-1.79,1.18-2.63.36-.64.76-1.26,1.21-1.85.2-.27.42-.55.65-.81,1.06-1.22,2.43-2.4,2.6-2.54,0,0,.01-.01.01-.01.37-.2.76-.37,1.16-.5h0c.72-.23,1.48-.33,2.23-.27.19,0,.37.03.55.06,1.96.33,3.71,1.68,4.52,3.48.06.13.11.27.16.4Z" style="fill: #e88b4b;"/>
        </g>
        <g>
          <path d="m148.36,74.23c-7.04-.04-14.06-2.08-20-5.87h0c2.04,1.75,3.88,3.71,5.49,5.86.36.47.72,1.1.44,1.63-.28.53-1.02.59-1.62.53-4.98-.39-9.82-2.35-13.65-5.54l-.24.19c1.41,1.86,2.62,3.87,3.61,5.99.16.35.3.81.01,1.07-.12.11-.3.16-.46.18-2.09.33-4.12-.85-5.74-2.2-2.13-1.78-3.92-3.98-5.23-6.43-.93,1.5-1.89,2.99-2.89,4.46-.07.11-.16.22-.24.33-.24.33-.53.62-.89.76-.04.01-.09.03-.14.04-.7.18-1.43-.31-1.76-.96-.33-.64-.33-1.4-.3-2.12.24-5.17,2.2-10.07,4.94-14.51.96-1.56,2.01-3.06,3.11-4.5,3.93-5.1,8.87-9.77,14.86-11.93,1.13-.96,2.45-1.64,3.86-2.1,1.25-.4,2.56-.63,3.91-.71,1.67-.11,3.37,0,5,.28.37.07.75.14,1.12.21,4.42.93,8.63,2.72,13.08,3.53,5.89,1.06,12.08.33,17.55-2.08,7.32-3.22,13.6-9.4,21.58-9.99,4.77-.34,9.61,1.52,13.11,4.79,3.5,3.27,5.66,7.87,6.22,12.62.62,5.33-.76,10.88-3.8,15.29-1.62,2.36-3.72,4.4-6.11,5.97l-.24-.37c2.36-1.69,3.31-4.85,3.66-7.78.43-3.6.26-7.37-1.29-10.65-1.82-3.85-5.58-6.72-9.78-7.49-4.9-.88-9.99,1.05-13.88,4.15-3.88,3.1-6.76,7.28-9.4,11.5-1.36,2.16-2.68,4.38-4.43,6.24-1.72,1.85-3.92,3.35-6.4,3.77-1.46-.41-3.11.07-4.29,1.07-1.28,1.07-2.05,2.64-2.46,4.26l-.17.06c-2.02.33-4.07.48-6.12.46Z" style="fill: #00abab;"/>
          <path d="m194.07,65.18c-9.99,2.45-18.88,8.39-26.32,15.52-1.07,1.04-2.13,2.11-3.13,3.24l-.04-.04c-.22.25-.44.5-.65.76l-.44-.38c-1.04-.54-2.08-1.1-2.93-1.9-.81-.77-1.42-1.82-1.45-2.93,2.92-1.58,4.77-4.98,4.47-8.3-.05-.59-.17-1.18-.5-1.66-.32-.46-.8-.79-1.32-.99-.12-.05-.24-.09-.37-.12,2.48-.42,4.69-1.92,6.4-3.77,1.75-1.86,3.07-4.08,4.43-6.24,2.64-4.22,5.52-8.4,9.4-11.5,3.89-3.11,8.98-5.03,13.88-4.15,4.2.76,7.95,3.64,9.78,7.49,1.55,3.28,1.72,7.05,1.29,10.65-.36,2.94-1.3,6.09-3.66,7.78l.24.37c-2.07,1.37-4.36,2.41-6.76,3.02.03-.04.05-.08.07-.12l-.24-.16c-2.63.68-5.22,1.51-7.75,2.5l-.1-.25c1.81-3,3.71-5.95,5.69-8.83Z" style="fill: #008986;"/>
          <path d="m121.29,77.08c-5.85-5.69-9.28-13.41-9.56-21.57-.02-.48-.76-.48-.74,0,.28,8.35,3.78,16.27,9.78,22.09.34.33.87-.19.52-.52Z" style="fill: #008986;"/>
          <path d="m133.1,74.7c-8.83-5.14-16.72-13.15-17.23-23.91-.02-.47-.76-.48-.74,0,.52,11.03,8.53,19.27,17.6,24.55.41.24.79-.4.37-.64Z" style="fill: #008986;"/>
          <path d="m154.54,72.36c-7.88-.37-15.18-3.79-21.26-8.69-2.71-2.18-5.19-4.63-7.49-7.23-2.54-2.86-4.98-5.9-5.8-9.72-.1-.47-.82-.27-.71.2.76,3.52,2.85,6.41,5.16,9.09,2.67,3.11,5.59,6.03,8.82,8.57,6.14,4.83,13.42,8.15,21.29,8.52.48.02.48-.72,0-.74Z" style="fill: #008986;"/>
          <path d="m202.95,39.43c-2.7-1.76-5.87-2.92-9.11-3.11-3.66-.21-6.89,1.18-9.86,3.19-3.12,2.11-6.03,4.58-8.68,7.24-2.64,2.65-5,5.57-7.72,8.14-6.11,5.77-13.99,7.78-22.14,5.63-8.84-2.33-15.71-8.97-20.85-16.24-.27-.39-.92-.02-.64.37,7.79,11.01,20.97,21.06,35.21,16.39,6.86-2.25,11.17-8.09,15.99-13.07,2.87-2.97,6.03-5.7,9.46-7.99,3.92-2.61,8.08-3.62,12.69-2.32,7.63,2.15,13.33,9.03,14.45,16.81.07.47.78.27.71-.2-.87-6.04-4.4-11.5-9.52-14.84Z" style="fill: #008986;"/>
          <path d="m207.65,36.69c-3.43-2.91-7.77-4.54-12.28-4.58-5.04-.04-9.28,2.12-13.29,4.98-4.86,3.47-9.43,7.31-15.13,9.35-5.57,2-11.66,2.52-17.48,1.39-6.35-1.23-12.18-4.33-16.84-8.79-.34-.33-.87.19-.52.52,7.47,7.15,17.83,10.68,28.11,9.28,5.46-.74,10.51-2.83,15.06-5.9,4.66-3.15,8.99-7.45,14.43-9.23,5.95-1.94,12.66-.53,17.41,3.5.36.31.89-.22.52-.52Z" style="fill: #008986;"/>
        </g>
        <g>
          <path d="m138,26.45h.04c1.06-2.98,2.78-5.72,5-7.97,1.02-1.02,2.22-1.99,3.65-2.15.41,2.05-.44,4.13-1.33,6.03-.72,1.51-1.48,3.01-2.27,4.48,1.68-1.81,4.26-2.73,6.7-2.4.24.04.52.1.64.32.16.3-.09.65-.33.89-1.93,1.91-4.44,3.22-7.11,3.72.47,3.05,0,6.24-1.34,9.02l-.11.5c-.37-.07-.75-.15-1.12-.21-1.62-.28-3.33-.39-5-.28l-.04-.82c1.73-5.43.16-11.62-3.45-16.03-3.61-4.4-9.06-7.09-14.69-7.98-3.79-.59-7.67-.42-11.49-.13-1.82.13-3.69.28-5.46-.18-1.77-.46-3.47-1.66-3.98-3.42-.16-.51-.19-1.07-.09-1.6h.11c.09-.02.17-.06.26-.09,5.01-2.08,10.34-3.47,15.75-3.63,5.51-.16,11.11.99,15.88,3.77,3.2,1.85,6.01,4.46,7.84,7.67,1.79,3.15,2.59,6.92,1.95,10.5Z" style="fill: #96214b;"/>
          <path d="m135.38,37.57l.04.82c-1.34.08-2.66.31-3.91.71-2.22-3.85-5.72-6.95-9.63-9.11-4.69-2.58-9.95-3.93-15.22-4.82-2.83-.48-5.68-.83-8.54-1.01-.25-.02-.5-.04-.75-.04-.82-.05-1.62-.07-2.44-.09-.18,0-.36-.01-.54,0-.55,0-1.1,0-1.64,0-.23,0-.46,0-.69.01-1.2.04-2.4.11-3.6.22-.3.02-.59.06-.89.09-.08,0-.16.01-.24.02-1,.11-2,.26-3,.39-.18.02-.36.05-.54.07-1.49.2-2.97.37-4.47.4h-.65c-.31,0-.62-.01-.93-.03-2.17-.13-4.33-.66-6.14-1.83-2.94-1.91-4.52-5.36-4.68-8.88-.02-.5-.01-1,.02-1.5.07-.9.22-1.8.48-2.66.37-1.24.95-2.48,1.84-3.41h0c.15-.16.31-.32.48-.45.16-.14.33-.26.51-.37,1.66-1.06,3.8-.98,5.64-.24.29.11.58.25.85.4.06.02.11.06.16.09,2.01,1.13,3.53,2.94,5.01,4.71l.07-.06c-.61-1.19-.83-2.56-.93-3.9-.07-1.18-.05-2.38.26-3.53.19-.71.51-1.4.96-1.99.27-.35.58-.67.94-.93.8-.59,1.9-.88,2.79-.45.65.3,1.08.91,1.44,1.51,1.07,1.74,1.81,3.67,2.17,5.67.02.09.04.19.06.28,0-.29.06-.57.14-.84.23-.78.7-1.51,1.19-2.17.73-.99,1.56-1.95,2.5-2.74.94-.79,2-1.4,3.21-1.68.19-.04.39-.08.58-.04.47.11.71.64.82,1.12.55,2.3-.04,4.86-1.56,6.68l.06.15c-.09.03-.17.07-.26.11l-.11-.02c-.11.53-.07,1.09.09,1.61.51,1.76,2.21,2.96,3.98,3.42,1.77.45,3.64.31,5.46.17,3.82-.28,7.7-.46,11.49.14,5.63.88,11.08,3.57,14.69,7.97,1.31,1.59,2.34,3.42,3.06,5.36,1.25,3.43,1.49,7.21.39,10.67Z" style="fill: #761938;"/>
          <path d="m84.31,24.77c-.11.12-.29.2-.47.11-.02-.01-.04-.02-.06-.03-7.2-3.56-12.53-10.14-14.54-17.91h0c.15-.16.31-.32.48-.45.11.03.2.11.24.25,1.97,7.63,7.19,14.03,14.26,17.51.24.11.23.37.1.53Z" style="fill: #96214b;"/>
          <path d="m88.15,23.83c.02.29-.25.58-.53.37-.12-.09-.24-.19-.36-.27-5.94-4.62-9.79-10.72-11.41-18.06.29.11.58.25.85.4,1.7,7.04,5.52,12.86,11.33,17.25.1.07.11.21.12.31Z" style="fill: #96214b;"/>
          <path d="m78.65,24.92s-.11-.01-.16-.04c-4.91-2.17-8.93-5.81-11.59-10.38-.02-.5-.01-1,.02-1.5,2.56,4.99,6.76,8.96,11.95,11.24.38.17.14.68-.21.68Z" style="fill: #96214b;"/>
          <path d="m92.49,23.3c-5.27-5.99-8.09-13.29-8.3-21.27-.01-.48-.75-.48-.74,0,.21,8.18,3.11,15.65,8.51,21.79.32.36.84-.17.52-.52Z" style="fill: #96214b;"/>
          <path d="m94.87,23.4c-3.13-4.96-4.61-10.41-4.52-16.27,0-.48-.73-.48-.74,0-.09,5.98,1.43,11.58,4.62,16.64.25.4.9.03.64-.37Z" style="fill: #96214b;"/>
          <path d="m97.87,23.52c-4.04-6.34-5.25-14.05-3.34-21.33.12-.46-.59-.66-.71-.2-1.95,7.46-.72,15.39,3.42,21.9.26.4.9.03.64-.37Z" style="fill: #96214b;"/>
        </g>
        <g>
          <path d="m102.44,39.03c.02-.47.1-.94.41-1.3.38-.44,1.05-.58,1.62-.4.56.19,1,.64,1.27,1.16.27.52.39,1.11.44,1.7.07.67.07,1.38-.13,2.03-.21.65-.62,1.26-1.22,1.58-.34.19-.74.27-1.12.18-.47-.12-.85-.5-1.05-.93-.21-.44-.27-.93-.3-1.42-.04-.62-.04-1.25,0-1.88.01-.24.04-.47.09-.7h0Z" style="fill: #202443;"/>
          <path d="m102.21,57.69c.1.41.13.83.09,1.25-.12,1.27-.74,2.47-1.62,3.39-.88.93-2,1.59-3.2,2.06-1.54.6-3.21.87-4.86.79v-.09c-.33-.62-.31-1.36-.21-2.05.31-1.96,1.33-3.81,2.82-5.12s3.46-2.07,5.45-2.11l.05-.08c.7.45,1.26,1.14,1.47,1.95Z" style="fill: #d33b61;"/>
          <path d="m91.64,57c1.32-.03,2.54-.88,3.8-1.4.47-.19.95-.33,1.44-.43,1.07-.21,2.19-.19,3.2.21.23.1.46.21.67.36l-.05.08c-1.99.04-3.95.81-5.45,2.11s-2.51,3.15-2.82,5.12c-.1.69-.12,1.43.21,2.05v.09c-1.66-.07-3.31-.48-4.8-1.22-1.3-.64-2.54-1.59-3.14-2.92-.6-1.33-.42-3.09.72-4.01,1.07-.87,2.61-.79,3.96-.5.76.16,1.51.37,2.28.47Z" style="fill: #8e3245;"/>
          <path d="m81.27,36.59s.01-.03.02-.04c.16-.25.38-.45.66-.55.44-.16.93,0,1.28.3s.56.73.69,1.18c.5,1.66-.11,3.65-1.57,4.6-.26.17-.57.31-.88.27-.49-.07-.79-.59-.94-1.05-.52-1.56-.24-3.38.74-4.71Z" style="fill: #202443;"/>
          <path d="m85.62,26.59c-.67-.58-1.54-.79-2.46-.76-2.27-.37-5.08.36-6.18,2.57-.49.99-.25,2.29.87,2.72,1.32.51,2.35-.76,3.45-1.26,1.3-.59,2.91.14,4.09-.64.93-.61,1.09-1.88.24-2.62Z" style="fill: #761938;"/>
          <path d="m102.3,27.43c.67-.58,1.54-.78,2.46-.76,2.27-.37,5.08.37,6.18,2.58.49.99.24,2.29-.87,2.72-1.32.5-2.35-.76-3.45-1.26-1.3-.59-2.91.13-4.09-.64-.93-.61-1.09-1.88-.23-2.62Z" style="fill: #761938;"/>
          <path d="m109.97,33.34c-2.79-2.38-6.64-2.39-9.33-.45-.24.01-.46.12-.67.37-.18.23-.36.46-.53.71-.35.39-.66.82-.93,1.31-.09.16-.13.31-.14.46-.56,1.07-.97,2.21-1.22,3.36-1.81-1.29-4.21-1.3-6.08-.08-.18-2.45-1.22-4.84-3.09-6.43-2.79-2.38-6.64-2.39-9.33-.45-.23.01-.46.12-.66.37-.19.23-.37.46-.54.71-.35.39-.66.83-.93,1.31-.09.16-.13.31-.14.46-1.86,3.59-2.21,7.9.69,11.23,3.27,3.76,8.92,3.53,12.01-.31.96-1.2,1.58-2.66,1.86-4.19.26,0,.51-.1.74-.33,1.51-1.56,3.67-1.35,5.01.31.09.1.18.19.27.25.12,1.77.77,3.51,2.1,5.03,3.27,3.76,8.92,3.53,12.01-.31,3.04-3.78,2.65-10.13-1.09-13.31Zm-23.03,11.65c-2.67,2.75-7.03,2.09-8.93-1.24-1.67-2.93-.82-6.27.96-8.89,2-2.47,5.78-2.56,8.06-.13,2.53,2.69,2.47,7.62-.1,10.26Zm21.99.75c-2.67,2.75-7.03,2.09-8.92-1.24-1.67-2.93-.82-6.28.96-8.89,2.01-2.47,5.79-2.56,8.07-.14,2.53,2.7,2.47,7.63-.1,10.27Z" style="fill: #ffb537;"/>
          <path d="m90.5,46.03c1.02-1.5,1.64-3.22,2.27-4.92.07-.19.16-.41.35-.5.42-.21.81.35.94.81.62,2.25.74,4.65.21,6.92-.1.43-.23.87-.53,1.2-.2.21-.46.37-.72.5-2.18,1.11-4.88,1.14-7.08.08-.61-.3-1.19-.68-1.56-1.24-.37-.56-.48-1.33-.14-1.91.39-.65,1.22-.9,1.97-.94,1.43-.08,2.93.36,4.28,0Z" style="fill: #cf5e0b;"/>
          <path d="m82.15,36.91c-.18-.04-.34.03-.46.15-.06.03-.12.06-.16.13-.17.25-.25.52-.27.81-.03.22-.02.45.03.67.06.26.44.37.62.16.12-.14.2-.29.26-.45.34-.51.7-1.33-.02-1.48Z" style="fill: #f4ebe7;"/>
          <path d="m82.39,40.63s.02-.06.02-.1c0-.03,0-.05,0-.07.04-.35-.48-.6-.68-.23-.1.18-.14.33-.15.53-.02.31.42.5.63.26.09-.11.14-.22.17-.34,0-.02.01-.04.02-.06,0,0,0,0,0,0Z" style="fill: #f4ebe7;"/>
          <path d="m103.8,38.58c-.04-.1-.1-.16-.17-.2-.16-.18-.45-.23-.58.04-.19.42-.56,1.58.18,1.7.81.13.74-1.08.57-1.54Z" style="fill: #f4ebe7;"/>
          <path d="m104.65,42.08c.05-.38-.49-.66-.67-.26-.11.25-.17.47-.17.74,0,.3.42.51.63.26.15-.18.21-.33.24-.56,0-.07,0-.13-.03-.18Z" style="fill: #f4ebe7;"/>
        </g>
        <g>
          <path d="m152.95,85.97c-.34,1.68-1.58,3.14-3.19,3.74-.31.12-.64.19-.96.24-1.36.19-2.8-.2-3.84-1.1-1.3-1.11-1.9-2.98-1.48-4.63.24-.96.8-1.82,1.45-2.56.52-.61,1.17-1.19,1.96-1.3v.04c.89-.24,1.86-.19,2.73.14.06.02.12.04.18.08,1.14.48,2.07,1.39,2.68,2.48.25.44.45.91.53,1.41.08.5.06,1-.04,1.48Z" style="fill: #ffa26d;"/>
          <path d="m141.53,88.84l.02-.05c.27.11.53.27.73.49.5.53.67,1.29.72,2.02.14,2.39-.93,4.77-2.66,6.43-.9.87-1.98,1.55-3.14,2.04l-.1-.25c-.43-.6-.67-1.32-.77-2.05-.24-1.65.21-3.37,1.07-4.8.85-1.45,2.09-2.62,3.45-3.6.2-.14.46-.28.68-.21Z" style="fill: #d33b61;"/>
          <path d="m128.73,95.16c1.61-.27,3.11-1.04,4.46-1.96,1.48-1.02,2.83-2.23,4.28-3.31.72-.52,1.48-1.02,2.34-1.22.57-.13,1.2-.1,1.73.11l-.02.05c-.22-.07-.48.07-.68.21-1.36.97-2.6,2.15-3.45,3.6-.85,1.44-1.3,3.15-1.07,4.8.1.73.34,1.45.77,2.05l.1.25c-1.05.44-2.16.74-3.28.88-1.36.18-2.79.14-4.05-.41s-2.33-1.68-2.52-3.04c-.07-.5-.01-1.03.26-1.45.16-.24.4-.42.67-.52.16-.01.31-.03.47-.06Z" style="fill: #8e3245;"/>
          <path d="m131.75,78.28h0c-.1-.58,0-1.2.26-1.73.13-.27.33-.53.6-.67.27-.14.58-.14.87-.1.78.11,1.5.56,2,1.17.51.61.8,1.38.9,2.16.07.56.05,1.15-.15,1.67-.2.53-.6,1-1.12,1.2-.96.39-2.1-.21-2.65-1.1-.47-.77-.69-1.69-.7-2.6Z" style="fill: #202443;"/>
          <path d="m125.17,85.84c.27,1.36.21,2.76.13,4.14-.07.14-.1.33-.16.47-.1.19-.27.33-.45.46-1.91,1.31-4.54,1.48-6.61.43-.57-.3-1.11-.69-1.42-1.26-.31-.56-.33-1.31.08-1.81.26-.32.64-.49,1.03-.63.79-.28,1.61-.45,2.37-.78.77-.32,1.5-.82,1.89-1.55.51-.98.34-2.26,1.02-3.13,1.17.85,1.85,2.24,2.12,3.65Z" style="fill: #ffb78c;"/>
          <path d="m113.35,81.04h0c0-.59.17-1.19.5-1.68.18-.25.4-.48.69-.58.28-.1.59-.06.88.02.76.22,1.4.77,1.81,1.45s.59,1.48.58,2.27c0,.56-.11,1.14-.39,1.63-.27.5-.73.9-1.28,1.03-1.01.24-2.05-.51-2.46-1.47-.36-.83-.44-1.77-.33-2.68Z" style="fill: #202443;"/>
          <path d="m113.95,73.09c-2.71,1.17-4.42,3.89-4.47,6.81-.02,1.43,2.2,1.43,2.22,0,.04-2.21,1.36-4.03,3.37-4.89,1.31-.57.18-2.48-1.12-1.92Z" style="fill: #008986;"/>
          <path d="m138.26,72.76c-1.17-1.12-2.59-1.92-4.19-2.21-1.3-.24-3.09-.37-4.08.66-.99,1.03.58,2.61,1.57,1.57.48-.5,2.2-.06,2.7.09.94.28,1.72.78,2.43,1.45,1.03.99,2.61-.58,1.57-1.57Z" style="fill: #008986;"/>
          <path d="m114.4,80.4c-.19,0-.3.06-.38.17-.09.04-.16.11-.19.23-.11.49.06.91.46,1.21.21.16.47-.02.54-.22.15-.4.2-1.37-.44-1.39Z" style="fill: #f4ebe7;"/>
          <path d="m116.34,83.78h0s0-.02,0-.03c0,0,0,0,0,0,.02-.07,0-.14-.04-.22,0,0,0,0,0,0,0-.02,0-.03,0-.05.04-.48-.7-.47-.74,0-.01.17,0,.33.07.5.14.36.76.35.73-.1,0-.03-.01-.07-.02-.1Z" style="fill: #f4ebe7;"/>
          <path d="m133.37,77.66c-.14-.22-.39-.33-.6-.28-.22-.14-.55-.08-.55.24,0,.44,0,1.07.32,1.41.27.29.73.26.92-.1.19-.36.11-.94-.1-1.27Z" style="fill: #f4ebe7;"/>
          <path d="m135.05,80.07c-.1-.3-.45-.26-.62-.07-.08.07-.13.17-.12.31,0,.03.01.06.01.09-.02.1,0,.19.05.25.02.07.04.15.08.22.21.36.73.23.71-.2,0-.09-.02-.17-.04-.26-.01-.11-.03-.22-.07-.34Z" style="fill: #f4ebe7;"/>
        </g>
        <g>
          <path d="m42.18,91.62c8.53-.07,16.84,3.25,23.82,8.15,7.01,4.93,12.8,11.4,18.09,18.15,1.08,1.39,2.16,2.8,3.17,4.26-.47.84-.86,1.72-1.18,2.63-5.2-8.27-12.16-15.46-19.93-21.41-3.08-2.35-6.35-4.56-10.05-5.71l-.23.31c-1.62-1.21-3.31-2.31-5.1-3.22-3.15-1.62-6.63-2.7-10.16-2.84.52-.13,1.05-.23,1.58-.32Z" style="fill: #e3e0a8;"/>
          <path d="m92.87,134.93c.1-.07.19-.16.27-.24.43-.4.85-.8,1.28-1.22,1.05-1.04,2.05-2.13,2.98-3.28,1.19-1.48,2.28-3.07,2.89-4.87.31,1.19.51,2.3.64,3.31-1.87,2.53-3.27,5.13-3.82,7.59-.67.04-1.33.04-2-.03-.96-.1-1.92-.35-2.77-.79.18-.15.36-.3.53-.46Z" style="fill: #e3e0a8;"/>
          <path d="m84.75,135.12c-11.15-18.41-26.79-34.84-46.72-42.94l.07-.18c.83-.07,1.66-.1,2.49-.07,3.52.14,7.01,1.22,10.16,2.84,1.79.92,3.48,2.02,5.1,3.22,1.9,1.4,3.69,2.96,5.42,4.57,6.46,6.01,12.13,12.82,17.78,19.61,2.01,2.42,4.03,4.84,6.04,7.26-.01.1-.02.21-.03.32-.1,1.53-.01,3.13.67,4.5.04.08.09.17.13.25l-1.12.61Z" style="fill: #ffb537;"/>
          <path d="m100.93,128.62c.54,4.23-.25,6.78-.25,6.78v.21c-.49.16-1.02.27-1.53.36-.67.11-1.35.2-2.03.24.55-2.46,1.95-5.06,3.82-7.59Z" style="fill: #f3f3d8;"/>
          <path d="m134.21,102.74c3.27-1.69,6.69-3.08,10.22-4.15,2.71-.83,5.46-1.47,8.25-1.91h.38c0,.52.06,1.05.15,1.57.03.19.07.38.11.57-8.53,4.14-16.76,8.96-24.63,14.33-.19-.19-.39-.36-.59-.53-1.3-1.13-2.63-2.25-3.99-3.32,3.14-2.52,6.53-4.71,10.11-6.56Z" style="fill: #f3f3d8;"/>
          <path d="m112.62,142.84c-3.36-2.8-6.69-5.62-10-8.46-.06-.05-.12-.1-.17-.15,3.29-3.07,6.67-6.06,10.15-8.94l.19.23c1.28,7.26,5.33,13.86,10.65,18.96,5.32,5.1,11.88,8.78,18.72,11.52,13.84,5.54,29.27,7.38,43.87,4.4,14.16-2.89,27.44-10.45,36.62-21.59.2.87.4,1.73.6,2.6,2.35,10.31,4.42,20.73,5.16,31.29l-.53,1.85c-23.77-1.32-47.65-.37-71.23,2.83h-.36c0-.23-.08-.3-.32-.62h0c-2.93-2.15-5.84-4.32-8.74-6.51-1.56-1.17-3.11-2.34-4.66-3.52-4.09-3.13-8.15-6.29-12.19-9.48-3.77-2.97-7.5-5.97-11.22-9.01-2.19-1.79-4.37-3.59-6.55-5.4Z" style="fill: #f6a022;"/>
          <path d="m191.26,85.76c3.38-.7,6.79-1.28,10.22-1.74,10.83,16.43,16.66,35.6,21.16,54.79-9.18,11.14-22.46,18.7-36.62,21.59-14.6,2.99-30.03,1.15-43.87-4.4-6.84-2.74-13.4-6.42-18.72-11.52-5.32-5.1-9.37-11.7-10.65-18.96l-.19-.23c1.76-1.46,3.54-2.89,5.35-4.3.68.67,1.48,1.2,2.36,1.56,1.12.45,2.34.62,3.55.6,1.91-.03,3.88-.56,5.24-1.91,1.83-1.82,2.07-5,.53-7.06-.28-.38-.61-.72-.96-1.03,7.87-5.37,16.1-10.19,24.63-14.33.63,2.63,2.39,5.05,4.89,6.06,1.12.45,2.34.62,3.55.6,1.91-.03,3.88-.56,5.24-1.91,1.83-1.81,2.07-5,.53-7.06-.44-.59-.99-1.08-1.54-1.56-.44-.39-.88-.76-1.33-1.14.19-.07.38-.16.57-.23,8.44-3.34,17.15-5.99,26.04-7.83Z" style="fill: #ffb537;"/>
          <path d="m202.08,76.87l.02.2c-3.59,2.93-7.2,5.83-10.84,8.69-8.9,1.84-17.6,4.48-26.04,7.83.47-.75,1.26-1.26,2.02-1.73,5.45-3.39,10.93-6.76,16.74-9.5,2.39-1.13,4.86-2.15,7.38-3.01,3.48-1.19,7.07-2.06,10.73-2.48Z" style="fill: #e3e0a8;"/>
          <path d="m196.4,72.04c-1.42,2.07-3.77,5.57-5.05,7.31-2.51.86-4.98,1.88-7.38,3.01-5.8,2.74-11.29,6.11-16.74,9.5-.76.47-1.54.98-2.02,1.73-.19.07-.39.16-.57.23-.79-.67-1.6-1.34-2.42-1.99l.03-.04c7.29-7.69,16.33-13.71,26.22-17.53,2.54-.99,5.12-1.82,7.75-2.5l.24.16s-.04.07-.07.12Z" style="fill: #f3f3d8;"/>
          <path d="m164.63,83.94c.99-1.13,2.05-2.2,3.13-3.24,7.44-7.13,16.32-13.07,26.32-15.52-1.99,2.88-3.88,5.83-5.69,8.83l.1.25c-9.89,3.82-18.93,9.84-26.22,17.53l-.03.04c-.59-.47-1.18-.93-1.77-1.39-.21-.16-.43-.33-.65-.48,1.3-1.82,2.68-3.6,4.14-5.29.21-.25.43-.5.65-.76l.04.04Z" style="fill: #e3e0a8;"/>
          <path d="m156.29,177.39c.02.37-.02.74-.12,1.1-.42,1.46-1.74,2.46-3.07,3.21-.53.3-1.06.57-1.61.82h0c-.83.45-1.66.01-2.39-.41-3.47-2.01-6.84-4.17-10.13-6.43,2.66-.78,5.12-2.26,7.06-4.26.39-.4.76-.83,1.2-1.17,2.9,2.19,5.81,4.36,8.74,6.51h0c.21.25.31.39.32.63Z" style="fill: #ffcc84;"/>
          <path d="m134.87,172.77c-.22-.16-.44-.32-.65-.47.72-.13,1.39-.47,2.05-.82l1.87-.98c.53-.27,1.06-.56,1.51-.93.27-.23.51-.5.81-.7.3-.21.65-.35.96-.56.53-.39.87-.97,1.16-1.56,1.55,1.18,3.1,2.35,4.66,3.52-.44.34-.81.77-1.2,1.17-1.94,1.99-4.4,3.48-7.06,4.26-1.38-.95-2.74-1.92-4.1-2.91Z" style="fill: #ea8300;"/>
          <path d="m142.57,166.73c-.3.59-.63,1.18-1.16,1.56-.3.21-.65.36-.96.56-.3.21-.53.47-.81.7-.45.38-.99.66-1.51.93l-1.87.98c-.65.35-1.33.7-2.05.82-4.33-3.18-8.54-6.53-12.69-9.97,1.7-.06,3.34-.71,4.78-1.64,1.48-.94,2.76-2.15,4.02-3.37l.06-.07c4.03,3.2,8.1,6.35,12.19,9.48Z" style="fill: #ffcc84;"/>
          <path d="m110.86,153.29c3.54,3.04,7.08,6.07,10.67,9.04,4.15,3.44,8.36,6.79,12.69,9.97-.07,0-.13.02-.21.02-14.33-7.39-29.5-13.14-45.12-17.11,1.44-3.25,1.36-7,.42-10.42-.95-3.45-2.71-6.61-4.57-9.67l1.12-.61c.72,1.25,2.04,2.22,3.48,2.19.48,0,.94-.13,1.38-.31,4.11,3.25,8.15,6.63,12.14,10.04,2.68,2.28,5.33,4.57,7.99,6.86Z" style="fill: #ffb537;"/>
          <path d="m130.38,157.25l-.06.07c-1.26,1.22-2.54,2.42-4.02,3.37-1.45.93-3.08,1.58-4.78,1.64-3.59-2.97-7.13-6-10.67-9.04,1.41.01,2.75-.68,4-1.36.66-.36,1.32-.71,1.9-1.19.43-.37.8-.8,1.24-1.16.47-.39,1.07-.78,1.17-1.34,3.71,3.04,7.45,6.04,11.22,9.01Z" style="fill: #ea8300;"/>
          <path d="m119.17,148.23c-.1.56-.7.96-1.17,1.34-.44.36-.81.79-1.24,1.16-.58.48-1.24.84-1.9,1.19-1.25.68-2.59,1.38-4,1.36-2.66-2.29-5.32-4.58-7.99-6.86l.04-.04c1.16.48,2.49.42,3.7.07,1.21-.35,2.32-.96,3.42-1.57.97-.55,1.98-1.14,2.59-2.05,2.18,1.81,4.36,3.61,6.55,5.4Z" style="fill: #ffcc84;"/>
          <path d="m102.45,134.23c.05.05.11.1.17.15-.47.62-1.17.99-1.93,1.24v-.21s.78-2.56.24-6.78c3.81-5.15,9.56-9.98,13.99-12.57l.4-.08c.34,1.88,1.27,3.7,2.63,5.02-1.81,1.41-3.59,2.84-5.35,4.3-3.48,2.88-6.86,5.87-10.15,8.94Z" style="fill: #f3f3d8;"/>
          <path d="m97.11,136.21c.68-.04,1.36-.13,2.03-.24.52-.08,1.05-.19,1.55-.36.76-.25,1.45-.62,1.93-1.24,3.31,2.84,6.64,5.66,10,8.46-.62.91-1.62,1.5-2.59,2.05-1.1.62-2.21,1.22-3.42,1.57-1.21.34-2.54.41-3.7-.07l-.04.04c-4-3.41-8.03-6.78-12.14-10.04.57-.24,1.1-.6,1.61-1.01.85.44,1.81.69,2.77.79.67.07,1.33.07,2,.03Z" style="fill: #ea8300;"/>
          <path d="m91.71,116.98c-.17.14-1.54,1.33-2.6,2.54-.23.26-.45.53-.65.81-5.22-8.58-11.55-16.71-19.88-22.31-1.93-1.29-3.97-2.44-6.09-3.4l.04-.1c7.51,2.11,13.89,6.97,19.9,12.34,3.57,3.18,7,6.54,10.46,9.61-.41.13-.79.3-1.16.5h-.01Z" style="fill: #e3e0a8;"/>
          <path d="m89.32,144.79c.94,3.42,1.02,7.18-.42,10.42-.08-.02-.17-.04-.25-.07h-.03c-12.71-21.36-28.31-40.99-46.25-58.21-1.62-1.56-3.27-3.1-5.04-4.48l.36-.42c.12.04.24.1.36.15,19.93,8.1,35.57,24.53,46.72,42.94,1.85,3.05,3.62,6.22,4.57,9.67Z" style="fill: #f6a022;"/>
          <path d="m88.46,120.33c-.45.59-.85,1.2-1.21,1.85-1.01-1.46-2.08-2.88-3.17-4.26-5.29-6.75-11.08-13.22-18.09-18.15-6.98-4.9-15.29-8.22-23.82-8.15,6.8-1.19,13.91.1,20.3,2.99,2.13.96,4.17,2.11,6.09,3.4,8.33,5.6,14.66,13.73,19.88,22.31Z" style="fill: #f3f3d8;"/>
          <path d="m86.07,124.81c-.53,1.49-.86,3.05-.98,4.63-2.02-2.42-4.03-4.85-6.04-7.26-5.65-6.78-11.31-13.6-17.78-19.61-1.73-1.61-3.52-3.17-5.42-4.57l.23-.31c3.7,1.15,6.98,3.36,10.05,5.71,7.78,5.95,14.74,13.14,19.93,21.41Z" style="fill: #f3f3d8;"/>
          <path d="m115.24,118.1c-6.43,4.7-11.86,10.56-16.05,17.34-.25.41.39.78.64.37,4.12-6.67,9.45-12.45,15.78-17.08.38-.28.01-.92-.37-.64Z" style="fill: #e3e0a8;"/>
          <path d="m151.56,97.44c-9.09,3.26-17.62,7.83-25.37,13.6-.38.28,0,.93.37.64,7.7-5.73,16.17-10.28,25.2-13.52.45-.16.25-.88-.2-.71Z" style="fill: #e3e0a8;"/>
          <path d="m85.53,126.75c-3.99-6.13-8.83-11.71-13.74-17.13-4.51-4.99-9.53-9.59-15.89-12.06-.45-.17-.64.54-.2.71,6.45,2.5,11.46,7.3,16,12.36,4.69,5.23,9.33,10.58,13.17,16.48.26.4.9.03.64-.37Z" style="fill: #e3e0a8;"/>
        </g>
      </g>
      <g>
        <path d="m240.2,176.39c5.18-.16,10.37-.32,15.55-.05l-.02.4c5.55,2.63,11.1,5.27,16.31,8.52,2.82,1.77,5.58,3.76,7.52,6.47l-.12.27c-5.27-2.43-10.85-4.03-16.56-4.97-8.79-1.45-17.91-1.38-26.8-.49l-.63-.21c-3.3-4.35-7.79-7.65-12.4-10.59-3.37-2.15-6.86-4.15-10.64-5.47-2.66-.93-5.84-1.2-8.87-1.03-.23-.06-.47-.1-.7-.14,12.8-.83,25.8,1.69,37.36,7.24v.03Z" style="fill: #e3e0a8;"/>
        <path d="m278.21,178.27v1.29c-6.95-1.32-13.9-2.64-20.95-3.12-.5-.04-1.01-.06-1.51-.09-5.18-.27-10.37-.11-15.55.05v-.03c-11.56-5.55-24.56-8.07-37.36-7.24-.36-.06-.72-.12-1.09-.16l.02-.23c9.86-2.6,20.25-2.78,30.4-1.64,6.34.71,12.6,1.92,18.83,3.33,3.73.85,7.46,1.77,11.16,2.71,5.46,1.38,10.94,2.8,16.05,5.13Z" style="fill: #f3f3d8;"/>
        <path d="m235.83,199.04c11.3-1.45,22.74-1.67,34.08-.67,2.4,2.36,4.81,4.72,7.21,7.07v.27c-.65-.04-1.28-.07-1.91-.11-14.71-.8-29.48-.7-44.19.28l-.19-.28c-3.01-5.5-6.33-10.82-9.95-15.94-2.45-3.47-5.05-6.86-8.18-9.71-3.09-2.81-6.74-5.1-10.78-6.14.06-.17.09-.35.09-.54,0-.43-.2-.83-.39-1.21-.45-.88-.94-1.81-1.72-2.38,1.15-.21,2.38-.35,3.64-.41,1.95.41,3.84,1.15,5.61,2.09,2.9,1.54,5.49,3.62,7.95,5.8,7.21,6.39,13.54,13.77,18.73,21.89Z" style="fill: #e3e0a8;"/>
        <path d="m275.21,205.6c.56.95,1,1.97,1.3,3.03-15.1,1.01-30.23,1.52-45.38,1.57v-.24c-8.32-11.73-17.33-23.13-28.45-32.24-.72-.58-1.44-1.16-2.23-1.6.51-.4.85-1.02,1.15-1.61.12-.23.24-.47.32-.71,4.04,1.04,7.69,3.32,10.78,6.14,3.14,2.86,5.74,6.25,8.18,9.71,3.62,5.12,6.94,10.44,9.95,15.94l.19.28c14.71-.98,29.47-1.08,44.19-.28Z" style="fill: #00abab;"/>
        <path d="m269.91,198.37c-11.34-1.01-22.78-.78-34.08.67-5.19-8.12-11.52-15.5-18.73-21.89-2.46-2.18-5.05-4.26-7.95-5.8-1.77-.94-3.66-1.68-5.61-2.09,3.02-.17,6.2.1,8.87,1.03,3.77,1.32,7.27,3.32,10.64,5.47,4.61,2.94,9.09,6.24,12.4,10.59l.63.21c8.89-.89,18.01-.96,26.8.49,4.29,3.55,8.4,7.33,12.28,11.31l-.07.57c-1.72-.22-3.45-.4-5.17-.55Z" style="fill: #f3f3d8;"/>
        <path d="m272.57,172.51v.02c-7.08-1.43-14.29-2.2-21.51-2.3l-.06.19c-6.22-1.41-12.48-2.62-18.83-3.33-10.14-1.13-20.53-.96-30.4,1.64l-.02.23c-.55-.06-1.11-.09-1.67-.09,9.06-2.63,18.51-3.89,27.94-3.72,4.97.09,9.93.57,14.86,1.22,9.95,1.32,19.82,3.34,29.48,6.03.07.03.14.07.21.1Z" style="fill: #e3e0a8;"/>
        <path d="m265.44,143.51c1.23.91,2.44,1.85,3.63,2.81-6.98,5.08-13.05,11.42-17.83,18.61-10.04-2.44-20.43-3.46-30.75-2.99-3.83.18-7.68.56-11.36,1.63-3.35.97-6.53,2.52-9.38,4.54.02-.07.05-.14.08-.21,17.22-16.74,41.64-25.79,65.61-24.39Z" style="fill: #e3e0a8;"/>
        <path d="m205.04,156.34c1.49-2.93,3.07-5.81,4.68-8.68,4.9-8.7,10.18-17.31,17.2-24.4,13.8,4.66,26.85,11.53,38.52,20.25-23.97-1.4-48.39,7.65-65.61,24.39,1.51-3.95,3.29-7.79,5.21-11.56Z" style="fill: #f3f3d8;"/>
        <path d="m251.24,164.93c7.27,1.76,14.36,4.27,21.12,7.48-9.67-2.69-19.53-4.71-29.48-6.03-4.93-.65-9.89-1.13-14.86-1.22-9.43-.17-18.88,1.08-27.94,3.72-.27.07-.55.16-.82.24-.06-.17-.12-.34-.2-.5.23-.17.45-.34.69-.5,2.84-2.02,6.02-3.57,9.38-4.54,3.68-1.07,7.53-1.45,11.36-1.63,10.32-.47,20.71.55,30.75,2.99Z" style="fill: #f3f3d8;"/>
        <path d="m199.83,167.9c-.03.07-.06.14-.08.21-.24.16-.46.33-.69.5-1.06-2.48-2.95-4.57-4.83-6.53-5.45-5.68-11.47-11.1-18.7-14.18,3.62.78,7.24,1.57,10.87,2.36,2.11.46,4.23.92,6.32,1.47,3.78,1,7.49,2.28,11.07,3.85.45.2.92.42,1.25.77-1.92,3.77-3.7,7.61-5.21,11.56Z" style="fill: #f3f3d8;"/>
        <path d="m202.84,169.12c.23.04.47.08.7.14-1.26.06-2.49.21-3.64.41-.14-.11-.3-.2-.47-.27-.03-.01-.06-.02-.09-.03-.02-.08-.05-.16-.09-.24.27-.09.55-.17.82-.24.56,0,1.12.03,1.67.09.37.04.73.09,1.09.16Z" style="fill: #e3e0a8;"/>
        <path d="m201.92,173.8c-.08.24-.2.48-.32.71-.3.59-.64,1.21-1.15,1.61,0,0-.02-.01-.02-.01h0c-.59.5-1.39.68-2.15.64-.77-.05-1.5-.32-2.18-.67-.52-.27-1.02-.58-1.44-.99-1.03-1.01-1.42-2.63-.97-4l.07-.09s.07.06.11.08c.29-.72.91-1.3,1.62-1.63.49-.22,1.03-.34,1.57-.38.38-.03.77-.02,1.15.02.4.04.79.12,1.15.28.03,0,.06.02.09.03.17.07.32.17.47.27.78.57,1.28,1.5,1.72,2.38.19.39.39.78.39,1.21,0,.19-.04.37-.09.54Z" style="fill: #00d1c3;"/>
        <path d="m174.8,151.1c0-1.14-.08-2.27-.21-3.4h0c.3.07.62.13.92.2,7.23,3.08,13.25,8.5,18.7,14.18,1.88,1.97,3.77,4.05,4.83,6.53.07.16.14.33.2.5.04.08.06.16.09.24-.36-.16-.75-.24-1.15-.28-.38-.04-.77-.05-1.15-.02v-.16c-6.68-6.59-13.8-12.93-22.24-17.04,0-.26,0-.51,0-.77Z" style="fill: #e3e0a8;"/>
        <path d="m174.81,151.86c8.43,4.11,15.55,10.45,22.22,17.04v.16c-.54.04-1.07.16-1.56.38-.71.33-1.33.91-1.62,1.63-.04-.02-.07-.05-.11-.08-8.27-5.93-15.5-13.24-23.86-19.04l.04-.06c1.6-.38,3.23-.65,4.87-.8.01.26.01.51,0,.77Z" style="fill: #00abab;"/>
        <path d="m274.64,202.91c-14.19-.76-28.42-.72-42.61.11-3.13-6.97-7.31-13.44-12.42-19.13-4.86-5.4-10.76-11.02-18.09-12.59-.39-.08-.56.52-.17.6,7.39,1.58,13.31,7.34,18.16,12.82,4.91,5.54,8.92,11.82,11.96,18.57-.03.14.02.3.16.35,0,0,0,0,0,0,.11.25.4.18.51-.01,14.15-.83,28.33-.86,42.49-.11.4.02.4-.6,0-.62Z" style="fill: #b4af77;"/>
        <path d="m271.28,199.84c-12.62-1.11-25.31-.79-37.85.92-3.69-7.33-7.81-14.63-13.34-20.74-5.11-5.64-11.94-10.08-19.8-9.9-.4,0-.4.63,0,.62,8.09-.19,14.96,4.63,20.07,10.52,5.21,6.01,9.15,13.05,12.7,20.14.13.25.43.17.53-.03,12.49-1.71,25.13-2.01,37.69-.9.4.04.4-.59,0-.62Z" style="fill: #b4af77;"/>
        <path d="m198.43,168.69c-3.16-4.41-6.96-8.28-11.01-11.86-3.78-3.34-7.78-7.1-12.8-8.34-.39-.1-.55.5-.17.6,5.08,1.25,9.14,5.15,12.94,8.54,2.78,2.48,5.44,5.11,7.84,7.96-5.81-5.99-12.66-10.89-20.24-14.43-.36-.17-.68.37-.31.54,8.79,4.11,16.59,10.03,22.91,17.39.13.15.3.12.41,0,.26.15.65-.12.44-.4Z" style="fill: #b4af77;"/>
      </g>
    </g>
  </g>
</svg>