<?xml version="1.0" encoding="UTF-8"?>
<svg id="uuid-20b14db1-7560-4062-8918-8ccbcaed696a" data-name="圖層 2" xmlns="http://www.w3.org/2000/svg" width="143.72" height="43.14" viewBox="0 0 143.72 43.14">
  <g id="uuid-e84e14bf-d003-44f6-b712-6cb8e5a4a035" data-name="第一cut">
    <g>
      <path d="m11.32,17.06l-4.68.2-1.04,18.72-4.24.04L.92,2.74h6.56l-.04.68,9.4-.72.48,15h-6.08l.08-.64Zm-.2-4.84l-4.16-.56-.08,1.64,4.84.64.84-6.76-5.32-.44-.12,2.16,4-.76v4.08Zm.44,13.84l.64-2.84-3.36-.24v-2.92l17.68-.24.08,4.4-2.68-.16.32,2.84,2.88.16.04,2.92-2.6.12.6,5.4-5.84-.2.44-5.04-4.36.12-1.96,5.08-3.84-.96.92-3.96-2.56.08-.08-4.8,3.68.24Zm5.36.36l3.16.2.24-2.84-2.32-.16-1.08,2.8Zm2.48-23.08l10.4.24.04-.52h4.16l1.08,33.92h-6.56l.08-1.88-1.16-.08v-2.48l1.24-.12.6-14.72h-10.36l.48-14.36Zm9,9.2l-4.16-.56.24,1.64,4.92.92.28-7.84-6.04.8.24,1.8,4.52-.84v4.08Z" style="fill: #ff6e52;"/>
      <path d="m47.56,10.26l-1.96,3.64,6.44-.4v5.36l-3.44-.28,3.36,2.88-3.96,3.72,4.32,2.24-3.64,5.4-4.48-4.04-4.4,4.12-2.04-1.96,3.48-4.84-3.76-3.44,1.16-4.92-2.12-.2-.04-3.04,3-.2,1.56-6.6,6.52,2.56Zm-4.2,7.88l-1.92,3.6,2.12,1.12,3.2-4.44-3.4-.28Zm9.64-2.8l7.04-13.04,5.8,4.2-8.36,8.68,8.24-.48-1.24-4.04,2.84-1.4,6.12,7.92-5.92,3.24-.76-2.44-12.28,2-1.48-4.64Zm13.88,11.64l-7.56-1.16.36,4.48,4.72.76v3.76l-11.04.32.96-13.76,4.64-.04.04.72,12.28-.56.92,13.92h-6.68l1.36-8.44Z" style="fill: #ff6e52;"/>
      <path d="m84.68,22.7l.76,10h-7.84l.08-1.36-1.44-.08-.04-2.88,1.64-.2.16-3-2.16.8-1.12-5.16,3.56-.72.24-4.32-3.76-.24-.04-3.44,4.04-.32.24-4.72h4.56l.32,4.32,3.64-.32.08,5.2-3.4-.16.2,2.8,2.52-.52.92,3.12-3.16,1.2Zm21.16-11.16l.6-2.28-12.8-.64-.28,2.6h-4.88l-.68-6.96h6.32l-.12,1,17.32-.68.36,6.96h-5.84Zm-9.28,17.44l-5.2,5.68-2.88-1.76,2.64-7.08,5.44,3.16Zm.72-18.52l2.36,5.2-9.24,2.48-1.4-3.32,8.28-4.36Zm6.44,7.12l-.2,2.96,6.92.28v3.56l-7.16.24-.72,11.56h-4.88l-.68-11.36-7.4.2-.04-5.08,7.2.32-.16-2.72,7.12.04Zm-2.48-2.76l.92-3.04,9.44,1.16-2,6.12-8.36-4.24Zm5.88,20.36l-3.08-6.92,2.52-1.88,5.68,4.64-5.12,4.16Z" style="fill: #ff6e52;"/>
      <path d="m113.68,10.3l7.44-.12-1,2.04,6.72-.48-.6-3.44-8.36.56.12-5.84,7.44.64-.56-3.28h7.64l-.64,3.84,7.6.64v2.52l-8.2.56-.56,3.56,11.24-.8.4,7.64h-6.68l1.96-2.68-18.72-.96-1.72,3.64h-3.16l-.36-8.04Zm3.8,22.28l4,3.88-5.76,3.32-1.96-1.88,3.72-5.32Zm7.4,5.68l-1.44-.12-.04-2.28,1.96-.24.76-3.92-7.24.84-1.2-4.8,3.56-2.24-4.16-2.88,8.88-7,4.04,3.2-8.04,3.92,2.72.56,7.36-4.64,3.4,4.92-14.56,4.56,12.96.24-.6-2.56,2.16-1.12,5.24,4.96-5.72,3-.48-1.92-3.8.44,1.36,8.6-7.36-.12.24-1.4Zm10.08-2.56l1.04-2.48,7.16,1.12-2.12,5.12-6.08-3.76Z" style="fill: #ff6e52;"/>
    </g>
  </g>
</svg>