<?xml version="1.0" encoding="utf-8"?>
<!-- Generator: Adobe Illustrator 27.3.1, SVG Export Plug-In . SVG Version: 6.00 Build 0)  -->
<svg version="1.1" id="_圖層_2" xmlns="http://www.w3.org/2000/svg" xmlns:xlink="http://www.w3.org/1999/xlink" x="0px" y="0px"
	 viewBox="0 0 263.6 263.6" style="enable-background:new 0 0 263.6 263.6;" xml:space="preserve">
<style type="text/css">
	.st0{clip-path:url(#SVGID_00000124123861935670926510000015638982662142386364_);}
	.st1{fill:#E2FFD2;}
	.st2{opacity:0.6;fill:#F0C486;enable-background:new    ;}
	.st3{fill:#6D5B89;}
	.st4{fill:#181818;}
	.st5{fill:#252727;}
	.st6{fill:#FFF5F2;}
	.st7{fill:#FFA07F;}
	.st8{fill:#FF7D6F;}
	.st9{fill:#534274;}
	.st10{fill:#254F79;}
	.st11{fill:#173E59;}
	.st12{fill:#FFBF90;}
	.st13{fill:#FC5B68;}
	.st14{fill:#CF4A57;}
	.st15{fill:#55062C;}
	.st16{fill:#3D3D3D;}
	.st17{fill:#FFA049;}
	.st18{fill:none;}
	.st19{fill:#FF8035;}
	.st20{fill:#FFF0E7;}
	.st21{fill:#B0B007;}
	.st22{fill:#8F9106;}
	.st23{fill:#456997;}
	.st24{fill:#FFFFFF;}
	.st25{fill:#3C2D61;}
	.st26{fill:#81BD5B;}
</style>
<g id="_第一cut">
	<g id="teacher">
		<g>
			<defs>
				<circle id="SVGID_1_" cx="131.7" cy="132" r="123"/>
			</defs>
			<clipPath id="SVGID_00000083088649832297905580000017316287837619527845_">
				<use xlink:href="#SVGID_1_"  style="overflow:visible;"/>
			</clipPath>
			<g style="clip-path:url(#SVGID_00000083088649832297905580000017316287837619527845_);">
				<circle class="st1" cx="131.7" cy="132" r="123"/>
				<g>
					<g>
						<path class="st2" d="M305.5,589.7c0,0-77,15.8-171.9,15.8s-171.9-15.8-171.9-15.8s77-15.8,171.9-15.8S305.5,589.7,305.5,589.7
							z"/>
						<g>
							<g>
								<path class="st3" d="M231.1,224.6c-0.1,1.1-0.4,2.1-0.6,3.2c-0.5,2.2-1.3,4.4-2.4,6.5l-3.4,6.7l-1.6,3.2l-2.7,5.3l-3.2,6.3
									l-0.8,1.5l-1.6,3.2l-6.6,13.1l-1.3,2.5l-2.9-2.5l-3.2-2.7l-10.2-8.8l0.4-1.6l0.8-3.2l3.3-13.2l0.8-3.2l3.3-13.1l0.8-3.2
									l0.4-1.5l-10.2-11.7l-5.7-6.4l-8.6-9.9l-2.8-3.2l-0.4-0.4l-1.4-1.6l-2.2-2.6l-0.9-12.3l-0.9-12.6l-0.2-3.2l-1-13.1L166,143
									l-0.9-12.7c0,0,0.9-0.2,2.2-0.5c2.6-0.5,6.9-1,10.4,0c1.4,0.4,2.7,1.1,3.7,2.1c0.6,0.6,1.8,2.1,3.4,4.2
									c0.9,1.2,2,2.7,3.2,4.3c0.6,0.8,1.2,1.6,1.8,2.5c0.7,1,1.5,2.1,2.2,3.2c2.7,3.9,5.8,8.3,9,13.1c1.1,1.6,2.2,3.3,3.3,5
									c2.4,3.7,4.8,7.5,7.2,11.4c0.6,1.1,1.3,2.1,1.9,3.2c1.4,2.3,2.7,4.6,4.1,6.9c1.1,1.9,2.2,3.8,3.2,5.7
									c0.1,0.2,0.2,0.4,0.3,0.6c0.6,1.1,1.2,2.1,1.7,3.2c2.4,4.6,4.6,9.1,6.2,13.1c0.1,0.3,0.2,0.6,0.4,0.8
									c0.3,0.8,0.6,1.6,0.8,2.4C231.3,215.7,231.7,220.2,231.1,224.6L231.1,224.6z"/>
								<g>
									<path class="st4" d="M102.5,91.8c-3.4,6.6-10.8,8.8-17.7,8.4c-1.2-0.1-2.3-0.2-3.4-0.5c-6.5-1.3-12.8-4.4-17.1-9.5
										s-6.6-12-5.2-18.5c1.4-6.3,6-11.6,11.6-14.9c5.1-3,11.2-4.5,17.1-3.6c5.9,1,11.4,4.5,14.1,9.8c0,0,0,0.1,0,0.1
										C106.1,71.4,106.7,83.6,102.5,91.8L102.5,91.8z"/>
									<path class="st5" d="M101.9,63.2c-4.2,3.4-11,4.8-14.7,8.3c-1.5-2.6-1-6.3,0.6-8.7c-5.3,0.8-10,5-11.4,10.2
										c-1.4,5.2,0.4,11.2,4.5,14.7c-3.6-0.8-7.1-2.5-9.8-5c0.6,5.2,3.8,9.8,7.7,13.2c1.9,1.7,3.9,3.1,6,4.4
										c-1.2-0.1-2.3-0.2-3.4-0.5c-6.5-1.3-12.8-4.4-17.1-9.5c-4.3-5-6.6-12-5.2-18.5c1.4-6.3,6-11.6,11.6-14.9
										c5.1-3,11.2-4.5,17.1-3.6c5.9,1,11.4,4.5,14.1,9.8C101.9,63.1,101.9,63.1,101.9,63.2L101.9,63.2z"/>
									<circle class="st6" cx="95.1" cy="79.1" r="12.1"/>
								</g>
								<path class="st4" d="M149.8,61.2c0,0,6.8,9.4,7.1,12.9c0.4,3.5,0,25.3,0,25.3l-13.5-38.1H149.8z"/>
								<g>
									<g>
										<g>
											<path class="st7" d="M140.7,594.5l10.1,1.5l1.6-15.7c0,0,7.3,17.1,10.4,18.1s32.9,1.8,44.1-0.8c11.4-2.7,10.9-6,10.9-6
												c-1.1-2.4-9.9-8.3-18.1-11c-1.7-0.5-3.9-1.8-6.4-3.6c-9.6-6.8-23.1-20.1-23.1-20.1h-21.7
												C139.4,568.3,140.7,594.5,140.7,594.5L140.7,594.5z"/>
											<path class="st8" d="M140.7,594.5l10.1,1.5l1.6-15.7c0,0,7.3,17.1,10.4,18.1s32.9,1.8,44.1-0.8c11.4-2.7,10.9-6,10.9-6
												c-1.1-2.4-9.9-8.3-18.1-11c-1.7-0.5-3.9-1.8-6.4-3.6c-2.9,3.4-6.6,7.8-7.6,8.6c-1.7,1.3-16.9-9.8-19.6-11.5
												c-2.7-1.7-9.2-17.1-9.2-17.1h-8.4C139.4,568.3,140.7,594.5,140.7,594.5L140.7,594.5z"/>
											<path class="st9" d="M206.8,597.7c-5.2,1.2-14.6,1.7-23.3,1.8h-0.1c-7.1,0-13.8-0.2-17.6-0.5h0c-1.5-0.1-2.6-0.3-3.1-0.4
												c-1.4-0.5-3.8-4.5-5.9-8.6c-2.4-4.7-4.5-9.6-4.5-9.6l-0.5,5.4l-1,10.3l-10.1-1.5c0,0-0.5-10.2,1.3-20.6v0
												c1.1-6.2,3-12.6,6.4-16.8c0,0,5.2,5.6,8.1,12.7c2.8,7.1,23.1,21.7,31.1,21.9c8,0.2,11.9-10.9,11.9-10.9
												c8.3,2.7,17,8.6,18.2,10.9C217.7,591.7,218.2,595,206.8,597.7L206.8,597.7z"/>
										</g>
										<g>
											<path class="st7" d="M59.5,590.1c0,3.7,7.9,15.9,12.5,15.9s21.4-11,23.5-18.4c0.6-2.1,0.7-6.2,0.5-11.2
												c0-0.8-0.1-1.7-0.1-2.6c-0.6-12.2-2.6-27.3-2.6-27.3H72.1c0,0-6.2,16.9-9.9,30.2C60.7,582.4,59.6,587.3,59.5,590.1
												L59.5,590.1z"/>
											<path class="st8" d="M59.5,590.1c0,3.7,7.9,15.9,12.5,15.9s21.4-11,23.5-18.4c0.6-2.1,0.7-6.2,0.5-11.2
												c0-0.8-0.1-1.7-0.1-2.6c-5.2,3.8-16.8,12.1-18.1,11.8c-1.6-0.4-5.4-5.3-5.8-7.7c-0.4-2.4,4.5-31.3,4.5-31.3h-4.5
												c0,0-6.2,16.9-9.9,30.2C60.7,582.4,59.6,587.3,59.5,590.1L59.5,590.1z"/>
											<path class="st9" d="M59.5,590.1c0,3.7,7.9,15.9,12.5,15.9s21.4-11,23.5-18.4c0.6-2.1,0.7-6.2,0.5-11.2
												c-5,6.2-14.6,16.6-21.2,15.5c-5.7-1-10.1-9-12.7-15.2C60.6,582.4,59.6,587.3,59.5,590.1L59.5,590.1z"/>
										</g>
									</g>
									<g>
										<path class="st7" d="M72.1,546.6h21.3c0,0,20.7-98,26-109.5c2.4-5.2,7.4-28.1,12.1-51.8c2.6-12.9,5.1-26.1,7.1-36.6
											c3.6,0.1,7.1,0.1,10.2,0.1c0.2,11.2,0.4,25.1,0.6,37.8c0.4,17.9,0.8,33.4,1.1,35.2c0,0-7.6,22.3-9.8,34.1
											c-1.6,8.6,7.7,101.2,7.7,101.2h21.7c0,0,6.6-117.8,9.5-126.1c1.3-3.8,4.5-23,7.3-45c3.3-25.9,6.1-55.5,4.5-68.2
											c-0.5-3.9-1.1-8.4-2-13.2c-1.2-7.4-2.7-15.4-4.2-23h-83.6c-0.4,1.1-0.7,2.2-1.1,3.3c-1.9,6.1-3.4,12.4-4.5,18.7
											c-0.6,3.3-1,6.6-1.4,10c0,0.5-0.1,1-0.1,1.4c-0.4,7.5-0.4,39-0.3,64.8c0.1,19.9,0.3,36.4,0.3,36.4s-17,32.8-18,46
											C76.2,469.3,72.1,546.6,72.1,546.6L72.1,546.6z"/>
										<path class="st8" d="M72.1,546.6h4.5c2-22.2,6.7-72.5,8.5-83.4c2.3-14.1,17.9-48.4,17.9-48.4s-0.5-86.2,0-91.8
											c0.4-4.4,4.5-30.4,6.3-41.3h-7.5c-0.4,1.1-0.7,2.2-1.1,3.3c-1.9,6.1-3.4,12.4-4.5,18.7c-0.6,3.3-1,6.6-1.4,10
											c0,0.5-0.1,1-0.1,1.4c-0.4,7.5-0.4,39-0.3,64.8c0.1,19.9,0.3,36.4,0.3,36.4s-17,32.8-18,46
											C76.2,469.3,72.1,546.6,72.1,546.6L72.1,546.6z"/>
										<path class="st8" d="M149.4,386.6c0.4,17.9,0.8,33.4,1.1,35.2c0,0-7.6,22.3-9.8,34.1c-1.6,8.6,7.7,101.2,7.7,101.2h8.4
											l-2.5-14.7c0,0-11.1-76.6-7.5-83.7c3.5-7.1,12.1-39.3,12.1-39.3l-3.9-79l-25.5-1.3l9.1,9.5c3.6,0.1,7.1,0.1,10.2,0.1
											C149,360,149.2,373.9,149.4,386.6L149.4,386.6z"/>
									</g>
									<g>
										<path class="st10" d="M62.9,520.3h49.8c0,0,7.8-67.9,11.9-76.4c4.1-8.4,19-83.5,19.5-85.8l0-0.1l-2.1,56.1
											c0,0-10.2,28.9-10.1,38.2c0.1,9.3,2.5,67.9,2.5,67.9h50.5c0,0,11.2-173.8,10.5-191.3s-10.5-55.6-10.5-55.6l-75.8-4.5
											l-9.9-0.6c0,0-14,46.2-14,51.3s-1.6,90.2-1.6,90.2s-13.5,35.3-14.5,40.3C68.1,455.1,62.9,520.3,62.9,520.3L62.9,520.3z"/>
										<path class="st6" d="M116.5,302.2c27,3.1,68.3,2.8,68.3,2.8l-24.7-43.5l-30.7,9.9L116.5,302.2L116.5,302.2z"/>
										<path class="st11" d="M132,452.4c0.1,9.3,2.5,67.9,2.5,67.9h16.6c-2.8-19.2-8.2-58.4-6.9-66.9c1.7-11.4,8.5-34,8.5-34
											l-4.4-79.3l-4.2,17.9l-2.1,56.1C142.1,414.1,131.9,443,132,452.4L132,452.4z"/>
										<path class="st11" d="M77.2,520.3c-0.8-16.3-1.8-43.2-0.8-51.4c1.5-12,18.4-52.6,18.4-52.6s2.4-87.9,1.4-92.6
											c-0.9-4.4,11.4-49.2,13-54.9l-9.9-0.6c0,0-14,46.2-14,51.3s-1.6,90.2-1.6,90.2s-13.5,35.3-14.5,40.3
											c-1,5-6.2,70.2-6.2,70.2L77.2,520.3L77.2,520.3z"/>
									</g>
								</g>
								<path class="st3" d="M192.3,306.5c-1.1,0-2.3-0.1-3.4-0.3c-0.3,0-0.6-0.1-1-0.2c-1.1-0.2-2.1-0.6-3.2-1
									c-4.9-1.9-9.3-5.4-13.1-9.5c-1.7-1.8-3.3-3.8-4.8-5.7c-3.7-4.9-6.5-9.8-8.3-13.1c-0.6-1.1-1-2-1.4-2.7l-0.9,0
									c-0.2,1-0.4,1.9-0.7,2.8c-0.1,0.4-0.2,0.8-0.3,1.1c-0.8,2.5-1.9,4.8-3.2,6.9c-1.2,1.9-2.6,3.6-4.1,5.2
									c-1.1,1.1-2.4,2.2-3.6,3.2c-1.7,1.3-3.5,2.4-5.4,3.3c-1,0.5-2.1,1-3.2,1.4c-4.2,1.8-8.7,2.9-13.1,3.6
									c-1.1,0.2-2.1,0.4-3.2,0.5c-4.6,0.6-9.1,0.8-13.1,0.7c-1.1,0-2.1,0-3.2-0.1c-6.7-0.2-11.7-1-13.1-1.2
									c-0.3,0-0.4-0.1-0.4-0.1l0.4-2l1.3-6.3l0.6-3.2l2.6-13.1l0.6-3.2l2.6-13.1l0.6-3.2l2.6-13.1l0.5,0.1c0-0.1,0-0.1,0-0.2v-0.1
									c0.2-1.1,0.4-2.1,0.6-3.2c0.4-2,0.7-4.1,1-6.1c1.3-7.8,2.2-15.6,2.1-23c0-2-0.2-4.1-0.4-6c-0.3-2.7-0.6-7.9-0.9-14.2
									c-0.3-5.4-0.5-11.6-0.8-17.8c-0.2-3.9-0.3-7.7-0.5-11.3c-0.1-1.1-0.1-2.1-0.2-3.2c-0.3-5.6-0.6-10.3-0.9-13.1
									c-0.1-1-0.3-1.8-0.4-2.3c-0.1-0.3-0.1-0.6-0.2-0.9c-0.4-1.7-0.8-3.1-1.1-4.2c0-0.1,0-0.3-0.1-0.4l-0.1-0.3l-0.2-0.6
									l-0.1-0.4l0,0l-0.2-0.7h0l3.9-0.4h0l1.7-0.1l1.5-0.1l4.3-0.4l8.8-0.5l3.2-0.2l8.4-0.5c0.5,0.5,2.2,0.6,4.8,0.4
									c1-0.1,2-0.1,3.2-0.3c1.2-0.1,2.5-0.3,3.9-0.4c3-0.4,6.3-0.9,9.3-1.4c0.9-0.2,1.9-0.3,2.8-0.5c0.1,0,0.3,0,0.4-0.1
									c0.6-0.1,1.1-0.2,1.7-0.3c0.4-0.1,0.9-0.2,1.3-0.2c4-0.7,6.8-1.2,6.8-1.2s0.6,4.8,1.6,12.7c0.1,1,0.3,2.1,0.4,3.2
									c0.4,3.2,0.9,6.7,1.4,10.6c0.9,7.2,2,15.5,3.2,24.3c0.4,3.4,0.9,6.9,1.4,10.5c0,0.1,0,0.3,0.1,0.4c0.1,1.1,0.3,2.1,0.4,3.2
									c0.6,4.4,1.2,8.8,1.8,13.1c0.1,1.1,0.3,2.1,0.4,3.2c0.6,4.4,1.2,8.8,1.8,13.1c0.1,1.1,0.3,2.1,0.4,3.2
									c0.6,4.5,1.3,8.9,1.9,13.1c0.2,1.1,0.3,2.1,0.5,3.2c0.6,3.9,1.1,7.6,1.6,10.9c0.1,0.8,0.2,1.5,0.4,2.2
									c0.2,1.1,0.3,2.1,0.5,3.2c0.3,1.5,0.5,3,0.7,4.3c0.4,2.5,0.8,4.7,1.2,6.6l0.2,0l0.6,0.2l2.6,13l1.1,5.3l0.6,3.2l2.6,13.1
									L192.3,306.5L192.3,306.5z"/>
								<path class="st7" d="M130,129.9c-0.2-5.2,0.9-12.8,0.9-12.8l-17.7-3.8c0,0-0.1,4.9-0.5,10.1c-0.3,4.7-0.9,9.6-1.6,11.5
									c-0.1,0.3-0.3,0.5-0.4,0.6l20.4-1.2C130.4,133.6,130.1,131.9,130,129.9L130,129.9z"/>
								<path class="st8" d="M112.7,123.3c4.6,2.8,11,6.6,13.1,7c1.2,0.2,2.7,0,4.3-0.4c-0.2-5.2,0.9-12.8,0.9-12.8l-17.7-3.8
									C113.2,113.2,113,118.1,112.7,123.3z"/>
								<g>
									<path class="st12" d="M114.5,50.8c0.6-0.1,25.3,1.1,30.7,8.6c5.4,7.4,16,36.4,12.1,51.7c-3.9,15.4-13.9,15-17.5,14.5
										c-3.6-0.4-21-4.6-25.7-9.3c-4.6-4.7-17.2-30.8-16.6-38.3C98.1,70.7,114.5,50.8,114.5,50.8z"/>
									<path class="st7" d="M113,48.9c0.6-0.1,25.3,1.1,30.7,8.6c5.4,7.4,16,36.4,12.1,51.7c-3.9,15.4-13.9,15-17.5,14.5
										c-3.6-0.4-21-4.6-25.7-9.3C108,109.7,95.4,83.6,96,76.2C96.7,68.7,113,48.9,113,48.9z"/>
									<g>
										<path class="st8" d="M138.1,98.1c-0.8,0-1.6-0.1-2.3,0.2c1.3,1.4,3.2,2.2,5.1,2.2c0.1,0,0.3,0,0.4-0.1
											c0.2-0.1,0.3-0.2,0.4-0.3c0.7-0.9,1.3-1.9,1.6-3c0.1-0.2,0.1-0.4,0.1-0.7c-0.1-0.8-0.5-0.4-0.9-0.1
											c-0.4,0.4-0.9,0.7-1.4,0.9C140.2,97.8,139.1,98.1,138.1,98.1z"/>
										<path class="st13" d="M140.9,100.1c0.3-0.5,0.6-1,0.9-1.6c0.4-0.7,0.7-1.3,0.9-2c-2.8-0.7-3.7-3.1-4.6-5.8
											c-0.4-1.2-0.5-2.5-0.3-3.8c0.1-0.7,0.3-1.3,0.6-1.9c0.1-0.3,0.3-0.6,0.5-0.9c0.2-0.3,0.4-0.5,0.6-0.7
											c-0.1,0.2-0.1,0.4-0.2,0.6c-0.2,0.6-0.4,1.1-0.5,1.6s-0.2,1.1-0.2,1.7c0,1.2,0.1,2.3,0.5,3.4c0.4,1.1,0.9,2.1,1.7,2.9
											c0.9,1,2.1,1.8,3.3,2.1c0,0-0.9,2.4-1,2.6c-0.2,0.5-0.6,1-0.9,1.5c-0.3,0.4-0.7,1-1.3,1.2c-0.2,0.1-0.4,0.1-0.5,0
											c0.1-0.1,0.1-0.2,0.2-0.3c0-0.1,0-0.1,0.1-0.1C140.8,100.4,140.8,100.2,140.9,100.1L140.9,100.1z"/>
									</g>
									<path class="st7" d="M110,101.8c-0.9-0.3-6.3-5.3-8.8-1.3c-2.5,4-2.4,9.9,1.1,12.7c3.1,2.5,7.4,5.1,11.7,3.2L110,101.8
										L110,101.8z"/>
									<path class="st8" d="M102.1,104.9c-0.1,0.8,0.2,1.6,0.6,2.3c1.6,3,5,5,8.3,6.7c-1.1-1.4-1.8-3.1-1.9-4.9
										c0-0.6,0-1.2-0.1-1.8C108.6,104.8,102.4,100.2,102.1,104.9L102.1,104.9z"/>
									<path class="st14" d="M112.6,114.6c0,0-0.1,0-0.2-0.1s-0.3-0.1-0.5-0.2c-0.4-0.2-1.1-0.6-1.7-1.1c-0.6-0.6-1.2-1.4-1.6-2.3
										c-0.4-1-0.6-2.2-0.2-3.4c0-0.2,0.1-0.3,0.1-0.5l0-0.1v0l0,0l0,0l0,0c0,0,0,0,0,0l-0.1-0.1l-0.1-0.2
										c-0.1-0.1-0.2-0.2-0.3-0.3c-0.4-0.4-0.7-0.8-1.1-1.2s-0.8-0.7-1.1-1c-0.4-0.3-0.7-0.6-1.1-0.7c-0.3-0.2-0.7-0.3-1-0.3
										c-0.3,0-0.6,0.1-0.8,0.3c-0.2,0.1-0.3,0.3-0.3,0.4c0,0.1,0,0.2,0,0.2s0-0.1,0-0.2c0-0.1,0.1-0.3,0.2-0.5
										c0.2-0.2,0.4-0.4,0.9-0.5c0.4-0.1,0.9,0,1.3,0.2c0.4,0.2,0.9,0.4,1.3,0.7s0.9,0.6,1.3,0.9c0.4,0.3,0.9,0.7,1.3,1.2
										c0.1,0.1,0.2,0.2,0.3,0.3l0.1,0.2l0.2,0.2l0.1,0.2c0,0.1,0,0.1-0.1,0.2l-0.1,0.3c-0.1,0.1-0.1,0.3-0.1,0.4
										c-0.3,1.1-0.2,2.2,0.1,3.1c0.3,0.9,0.7,1.7,1.2,2.3s1,1,1.4,1.3c0.2,0.1,0.3,0.2,0.4,0.3
										C112.6,114.6,112.7,114.6,112.6,114.6L112.6,114.6z"/>
									<path class="st15" d="M150.2,73.8c0,0-4.8-2.6-7.5-1.9s-3,3.3-1.9,3.6S150.2,73.8,150.2,73.8L150.2,73.8z"/>
									<path class="st15" d="M112.9,84.3c0,0,5.3-6.5,9.3-7.9c4-1.5,6,0.7,4.6,1.9C125.4,79.5,112.9,84.3,112.9,84.3L112.9,84.3z"
										/>
									<g>
										<path class="st5" d="M112.9,86.9c0.6,1,2.2,1.6,3.3,1.8c0.4-0.7,0.9-1.2,1.6-1.3c1.7-0.3,3.6,1.6,4.1,4.3
											c0.6,2.7-0.4,5.2-2.1,5.6c-1.7,0.3-3.6-1.6-4.1-4.3c-0.2-0.8-0.2-1.7-0.1-2.4C114.1,89.7,112.9,86.9,112.9,86.9
											L112.9,86.9z"/>
										<path class="st6" d="M119.1,92.9c0,0-1.8,1.1-3.8,0.9c-2.1-0.1-3.7-1.4-3.7-1.4s1.8-1.1,3.8-0.9
											C117.5,91.6,119.1,92.9,119.1,92.9z"/>
									</g>
									<g>
										<path class="st5" d="M146.2,80.5c-0.1,1-1.1,2-1.7,2.6c-0.5-0.4-1.1-0.5-1.6-0.3c-1.4,0.4-2,2.5-1.4,4.7s2.2,3.7,3.6,3.3
											c1.4-0.4,2-2.5,1.4-4.7c-0.2-0.7-0.5-1.3-0.8-1.8C146.4,83,146.2,80.5,146.2,80.5z"/>
										<path class="st6" d="M143.9,87.2c0,0,1.7,0.1,3.1-0.7c1.5-0.9,2.1-2.4,2.1-2.4s-1.7-0.1-3.1,0.7
											C144.6,85.6,143.9,87.2,143.9,87.2z"/>
									</g>
									<g>
										<path class="st8" d="M127,101.5c0,1.3-2.7,2.4-6.2,2.6c-3.4,0.1-6.3-0.8-6.3-2.2c0-1.3,2.7-2.4,6.2-2.6
											C124.1,99.2,127,100.2,127,101.5z"/>
										<path class="st8" d="M158.8,89.5c0.6,0.8-1,2.8-3.4,4.5c-2.4,1.7-4.9,2.4-5.4,1.6c-0.6-0.8,1-2.8,3.4-4.5
											C155.8,89.4,158.2,88.7,158.8,89.5z"/>
									</g>
								</g>
								<path class="st4" d="M156.2,67.7c0,0-1.2,0.3-3.1,0.8h0l-5.1-5.3l0.9,6.3c-3.3,0.8-7.4,1.8-11.8,2.9l-5-5.2l0.9,6.2
									c-7.8,1.9-15.4,3.9-19,5.1l-4-5.2l0.9,6.6l-5.3,2.8l4.8,19.4c0,0-5.2-3.7-8.3-1.5c0,0-2.6,3.7-2.5,6.7c0,0-1.5-3.9-3.5-9.2
									c-0.8-2.2-1.8-4.6-2.8-7.1c-0.1-0.3-0.3-0.7-0.4-1c-0.5-1.2-0.9-2.4-1.4-3.6c-0.9-2.6-1.8-5.2-2.4-7.9
									c-0.5-2-1.2-4.1-0.4-6.1c0.4-1.1,1.2-2,1.8-3c1-1.5,2.1-2.9,3.1-4.3c2.8-3.8,5.6-7.5,8.8-11c2.5-2.7,5.5-6,9.1-7.2
									c8.6-3,29.7,2,33.6,3.9c2,1,4.9,5.4,7.2,9.5C154.5,64.2,156.2,67.7,156.2,67.7L156.2,67.7z"/>
								<path class="st5" d="M152.4,60.4c-5.6,2.4-11.6,4.6-17.4,2.8c-4.2-1.3-7.7-4.5-12-5.1c1.8,3.1,2.8,6.6,2.9,10.2
									c-7.1,3.3-16,2.3-22.1-2.6c0.2,3.9,0.4,7.8,0.6,11.8c-3.2,0.2-6.4,0.3-9.6,0.5c0.4,4.5,2.2,9,5,12.6c-2.3,0.2-4.6,0-6.8-0.5
									c-0.5-1.2-0.9-2.4-1.4-3.6c-0.6-1.9-1.3-3.8-1.9-5.7c-0.2-0.7-0.4-1.4-0.6-2.1c-0.5-2-1.2-4.1-0.4-6.1c0.4-1.1,1.2-2,1.8-3
									c1-1.5,2.1-2.9,3.1-4.3c2.8-3.8,5.6-7.5,8.8-11c2.5-2.7,5.5-6,9.1-7.2c8.6-3,29.7,2,33.6,3.9c1,0.5,2.2,1.8,3.4,3.6
									C149.9,56.1,151.2,58.3,152.4,60.4L152.4,60.4z"/>
								<path class="st16" d="M148.6,54.4c-4.4,0.9-9.1,0.9-13.6,0.7c-7.7-0.5-15.4-1.8-23.1-1.2c2.4,2.8,4,6.4,4.4,10.1
									c-5.7,0.5-11.5-0.1-17-1.7c-0.2,3.9-0.5,7.9-0.8,11.8c-3,0.1-6,0.2-9,0.2c0.9,2.4,1.8,4.9,2.7,7.3c-0.9-0.2-1.7-0.5-2.5-0.9
									c-0.2-0.7-0.4-1.4-0.6-2.1c-0.5-2-1.2-4.1-0.4-6.1c0.4-1.1,1.2-2,1.8-3c1-1.5,2.1-2.9,3.1-4.3c2.8-3.8,5.6-7.5,8.8-11
									c2.5-2.7,5.5-6,9.1-7.2c8.6-3,29.7,2,33.6,3.9C146.2,51.3,147.4,52.6,148.6,54.4L148.6,54.4z"/>
								<path class="st3" d="M140.7,240.7c0,0-0.5,0.1-1.3,0.2c-4.6,0.6-20.6,2.8-36.3,3.2c-0.6,0-1.1,0-1.6,0.1
									c-3.1,0.1-6.2,0.1-9.2-0.1c-9.5-0.3-17.8-1.7-21.6-4.8c-0.1-0.1-0.2-0.1-0.2-0.2c-2.9-2.5-4.8-6.6-5.9-11.3
									c-0.2-1-0.4-2.1-0.6-3.2c-0.5-2.9-0.7-6-0.8-9c0-1.4,0-2.8,0-4.1c0-1.1,0.1-2.1,0.1-3.2c0.2-4.4,0.8-8.8,1.6-13.1
									c0.2-1.1,0.4-2.1,0.7-3.2c0.9-4,2-8,3.4-11.9c0.2-0.4,0.3-0.8,0.4-1.3c1.3-3.6,2.7-7.8,4.2-11.8c0.6-1.5,1.1-3,1.6-4.5
									c0.4-1.1,0.8-2.1,1.2-3.2c2.2-5.8,4.1-10.8,5.2-13.1c0.2-0.5,0.4-0.9,0.6-1.1c0.4-0.7,1.2-1.4,2.2-2.1
									c0.7-0.5,1.6-1,2.4-1.5c1-0.6,2.1-1.1,3.2-1.6c4.5-2,9.2-3.5,9.2-3.5v0h0c1.4,1.6,2.8,3.3,3.9,5c1.2,1.8,2.3,3.6,3.2,5.3
									c1.9,3.5,3,6.2,3,6.2l-0.5,6.3l-0.3,3.2l-1.1,13.1l-0.3,3.2l-0.4,4.8l-0.5,1.4l-2.4,6.6l-1.3,3.6l-4.8,13.1l-1.1,3.2l0,0.1
									l6.4,0.2l2.1,0.1l1.1,0l13.1,0.4l3.2,0.1l13.1,0.4l2,0.1l1.2,11l0.1,0.9l0.4,3.2L140.7,240.7L140.7,240.7z"/>
								<g>
									<path class="st6" d="M138.3,85.6c0-5.4,3.9-9.8,8.6-9.8s8.6,4.4,8.6,9.8s-3.9,9.8-8.6,9.8S138.3,91,138.3,85.6z
										 M140.6,85.6c0,4.1,2.8,7.4,6.3,7.4s6.3-3.3,6.3-7.4s-2.8-7.4-6.3-7.4S140.6,81.5,140.6,85.6z"/>
									<path class="st6" d="M108.3,92.1c0-6.9,5.6-12.5,12.5-12.5s12.5,5.6,12.5,12.5s-5.6,12.5-12.5,12.5S108.3,99.1,108.3,92.1z
										 M110.6,92.1c0,5.6,4.6,10.2,10.2,10.2s10.2-4.6,10.2-10.2S126.4,82,120.8,82S110.6,86.5,110.6,92.1z"/>
									<path class="st6" d="M132.4,89.1c2.5-3.2,6.5-1.2,6.7-1.2l1-2.1c-2-1-6.6-1.9-9.6,1.8L132.4,89.1z"/>
									<path class="st6" d="M103,101.2c1.9-2.3,6.4-2.6,8-2.4l0.1-2.3c-0.3,0-6.8-0.3-9.9,3.3L103,101.2L103,101.2z"/>
								</g>
							</g>
							<g>
								<polygon class="st17" points="194.8,68 180,86.1 183.9,64.9 								"/>
								<polygon class="st17" points="196.3,96.1 183.3,93.7 194.9,89.9 								"/>
								<polygon class="st17" points="168.3,72.5 168.8,85.7 162.5,75.2 								"/>
							</g>
						</g>
						<path class="st9" d="M230.5,227.7c0.3-1.1,0.5-2.1,0.6-3.2h-10.6v-13.1h9.5c-0.2-0.8-0.5-1.6-0.8-2.4
							c-0.1-0.3-0.2-0.5-0.4-0.8h-8.3v-13.1h2c-0.5-1-1.1-2.1-1.7-3.2h-0.3v-0.6c-1-1.9-2.1-3.8-3.2-5.7v6.3h-13.1v-13.2h9.1
							c-0.6-1.1-1.3-2.1-1.9-3.2h-7.2v-11.4c-1.1-1.7-2.2-3.3-3.3-5h-13.1v-13.1h4.1c-0.8-1.1-1.5-2.2-2.2-3.2h-1.8v-2.5
							c-1.2-1.6-2.3-3.1-3.2-4.3v6.8h-13.1v-13.1h6c-3.5-1-7.8-0.5-10.4,0h1.2V143h-13.1V132c-0.1,0-0.3,0-0.4,0.1
							c-0.9,0.2-1.8,0.3-2.8,0.5V143H139v-8.6c-1.1,0.1-2.2,0.2-3.2,0.3v8.4h-13.1v-8.3l-3.2,0.2v8.1h-13.1v-7.2l-1.5,0.1l-1.7,0.1
							v6.9H90.1v-3.1c-1.1,0.5-2.2,1-3.2,1.6v1.5h-2.4c-0.9,0.7-1.7,1.4-2.2,2.1c-0.2,0.2-0.3,0.6-0.6,1.1h5.2v13.1H76.5
							c-0.4,1-0.8,2.1-1.2,3.2h11.5v13.1H73.7V167c-1.5,4.1-2.9,8.2-4.2,11.8h1v13.2h-4.9c-0.2,1.1-0.5,2.1-0.7,3.2h5.5v13.1h-7.2
							c-0.1,1.1-0.1,2.1-0.1,3.2h7.3v13.1h-6.5c0.2,1.1,0.4,2.1,0.6,3.2h5.9V239c0.1,0.1,0.1,0.1,0.2,0.2c3.9,3.1,12.1,4.5,21.6,4.8
							h10.8v13.2h-4.7l-0.6,3.2h5.4v13.1h-8l-0.6,3.2h8.6v13.1H92l-0.6,3.2h11.9v9.5c1,0,2.1,0,3.2,0.1V293h13.1v8.9
							c1.1-0.1,2.1-0.3,3.2-0.5V293h13.1v4.8c1.1-0.4,2.1-0.9,3.2-1.4V293h5.4c1.3-1,2.5-2,3.6-3.2h-9v-13.1h13.2v8
							c1.3-2.1,2.4-4.3,3.2-6.9v-1.1h13.1v13.1h-1.6c1.5,1.9,3.1,3.9,4.8,5.7V293h13.1v12c1,0.4,2.1,0.7,3.2,1V293h1.7l-0.6-3.2H188
							v-5.3l-2.6-13l-0.6-0.2v2.2h-13.1v-13.1h11.1c-0.2-1-0.3-2.1-0.5-3.2h-10.6V244h8.6c-0.1-1-0.3-2.1-0.5-3.2h-8.1v-13.1h6.3
							c-0.1-1-0.3-2.1-0.4-3.2h-5.9v-13.1h4.1c-0.1-1.1-0.3-2.1-0.4-3.2h-3.6v-13.1h13.1v9.9l5.7,6.4h10.6v13.1h-0.8l-0.8,3.2h1.6
							v13.1h-4.9l-0.8,3.2h5.7v13.2h-9l-0.8,3.2h9.8v10.4l3.2,2.7v-13.1h10.8l1.6-3.2h-12.4V244h13.1v11.7l3.2-6.3V244h2.7l1.6-3.2
							h-4.3v-13.1L230.5,227.7L230.5,227.7z M86.8,240.9H73.7v-13.1h13.2V240.9z M86.8,224.5H73.7v-13.1h13.2V224.5z M86.8,208.2
							H73.7v-13.1h13.2V208.2z M86.8,191.9H73.7v-13.2h13.2V191.9z M122.6,146.1h13.1v13.1h-13.1V146.1z M122.6,162.4h13.1v13.1
							h-13.1V162.4z M122.6,178.8h13.1v13.2h-13.1V178.8z M122.6,195.1h13.1v13.1h-13.1V195.1z M122.6,211.4h13.1v13.1h-13.1V211.4z
							 M119.5,178.8v13.2h-13.1v-13.2H119.5z M106.3,175.6v-13.1h13.1v13.1H106.3z M119.5,195.1v13.1h-13.1v-13.1H119.5z
							 M106.3,227.7h13.1v13.1h-13.1V227.7z M106.3,224.6v-13.1h13.1v13.1H106.3z M122.6,227.7h13.1v13.1h-13.1V227.7z M106.3,146.1
							h13.1v13.1h-13.1V146.1z M90,146.1h13.1v13.1H90V146.1z M90,162.4h13.1v13.1H90V162.4z M90,178.8h13.1v13.2H90V178.8z
							 M90,195.1h13.1v13.1H90V195.1z M90,211.4h13.1v13.1H90V211.4z M90,240.9v-13.1h13.1v13.1H90z M119.5,289.8h-13.1v-13.1h13.1
							V289.8z M119.5,273.5h-13.1v-13.1h13.1V273.5z M119.5,257.2h-13.1V244h13.1V257.2z M135.8,289.8h-13.1v-13.1h13.1V289.8z
							 M135.8,273.5h-13.1v-13.1h13.1V273.5z M135.8,257.2h-13.1V244h13.1V257.2z M152.1,273.5h-13.2v-13.1h13.2V273.5z
							 M152.1,257.2h-13.2V244h13.2V257.2z M152.1,240.9h-13.2v-13.1h13.2V240.9z M152.1,224.5h-13.2v-13.1h13.2V224.5z
							 M152.1,208.2h-13.2v-13.1h13.2V208.2z M152.1,191.9h-13.2v-13.2h13.2V191.9z M152.1,175.6h-13.2v-13.1h13.2V175.6z
							 M152.1,159.3h-13.2v-13.1h13.2V159.3z M155.3,146.1h13.1v13.1h-13.1V146.1z M168.4,273.5h-13.1v-13.1h13.1V273.5z
							 M168.4,257.2h-13.1V244h13.1V257.2z M168.4,240.9h-13.1v-13.1h13.1V240.9z M168.4,224.5h-13.1v-13.1h13.1V224.5z
							 M168.4,208.2h-13.1v-13.1h13.1V208.2z M168.4,191.9h-13.1v-13.2h13.1V191.9z M168.4,175.6h-13.1v-13.1h13.1V175.6z
							 M184.7,276.7v13.1h-13.1v-13.1H184.7z M184.7,191.9h-13.1v-13.2h13.1V191.9z M184.7,175.6h-13.1v-13.1h13.1V175.6z
							 M184.7,159.2h-13.1v-13.1h13.1V159.2z M201.1,208.2h-13.1v-13.1h13.1V208.2z M201.1,191.9h-13.1v-13.2h13.1V191.9z
							 M201.1,175.6h-13.1v-13.1h13.1V175.6z M217.4,240.8h-13.1v-13.1h13.1V240.8z M217.4,224.5h-13.1v-13.1h13.1V224.5z
							 M217.4,208.2h-13.1v-13.1h13.1V208.2z M208.4,273.5h-4.2l2.9,2.5L208.4,273.5L208.4,273.5z M188.9,306.1
							c1.1,0.2,2.3,0.3,3.4,0.3l-0.1-0.3H188.9L188.9,306.1z M90,301.3v-2.1l-0.4,2C89.6,301.3,89.7,301.3,90,301.3L90,301.3z"/>
						<path class="st18" d="M229.2,209c-11.5-28.1-44-73.2-47.8-77.2c-4.6-4.8-16.3-1.6-16.3-1.6v0.1v-0.1c0,0-2.8,0.5-6.8,1.2
							c-0.4,0.1-0.9,0.1-1.3,0.2c-0.7,0.1-1.4,0.2-2.1,0.3c-3.8,0.6-8.1,1.3-12.1,1.8c-5.9,0.7-10.9,1.1-11.8,0.3l-20.4,1.2
							l-5.8,0.5l-1.7,0.1l-3.9,0.3l0,0c0,0-14.2,4.4-17,8.7c-1.8,2.8-8.7,22.2-13.2,35c-4,11.4-6.1,23.4-5.8,35.5
							c0.2,9.6,2,19.3,7.4,23.7c5.1,4.1,17.7,5.1,30.8,4.9c0,0.1,0,0.1,0,0.2l-0.5-0.1l-11.4,57.1c0,0,59,10.6,66.7-27.3l0.9,0
							c2.9,6.1,16.7,32.4,35.1,32.5l-7-34.9l-0.7-0.2c-0.4-1.9-0.7-4.1-1.2-6.6c-0.5-2.9-1-6.1-1.6-9.7c-2.6-17-5.9-41-8.9-63.4
							l27.7,31.5l-9.8,38.9l16.3,14.1l21-41.8C232.2,226.4,232.6,217.2,229.2,209L229.2,209z"/>
						<path class="st6" d="M99.2,136.4l0.2,0.7c0,0,0,0,0,0c0.9,1.1,28.8,37.3,35.1,37.1c5.1-0.2,17.6-30.3,22.4-42.4
							c-0.7,0.1-1.4,0.2-2.1,0.3c-3.8,0.6-8.1,1.3-12.1,1.8c-5.9,0.7-10.9,1.1-11.8,0.3l-20.4,1.2l-5.8,0.5l-1.7,0.1L99.2,136.4
							L99.2,136.4z"/>
						<path class="st7" d="M104.8,135.9c4.2,3.5,13.8,10.7,23.6,10.2c9.5-0.4,13.1-8.1,14.4-12.2c-5.9,0.7-11,1.1-11.8,0.3
							l-20.4,1.2L104.8,135.9L104.8,135.9z"/>
						<path class="st9" d="M104.3,261.5h29.3c0,0-4.8,9.9-15.8,9.9S104.3,261.5,104.3,261.5z"/>
						<path class="st9" d="M183.4,264.7c-0.5,0.1-0.9,0.2-1.4,0.3c-10.8,2.1-15.1-7.1-15.1-7.1l15-2.9
							C182.4,258.6,182.9,261.8,183.4,264.7z"/>
						<g>
							<path class="st7" d="M161.7,271.9c0.9,2.5,17.4-5.8,17.4-5.8l3.8,3.4l-6.5,4.1l-5.5,9.8c0,0,1.3,1.8,3,3.8c0,0,0,0,0,0
								c0,0,0,0,0,0c0.1,0.1,0.3,0.3,0.4,0.5c0,0,0,0.1,0.1,0.1c0.1,0,0.1,0.1,0.2,0.2c0.2,0.2,0.4,0.5,0.6,0.7c0.9,1,1.8,2,2.6,2.8
								c0.1,0.1,0.2,0.2,0.3,0.3c0.6,0.5,1.1,0.9,1.6,1.2c0.5,0.4,1,0.6,1.4,0.6l5.8-6.5c0,0,12.1,0.6,13.7-0.2
								c0.6-0.3,2.3-3.1,4.1-6.2c0.6-1.1,1.2-2.3,1.8-3.4c0,0,0,0,0.1-0.1c0.2-0.4,0.4-0.8,0.6-1.2L190.8,262
								c-0.9-0.1-1.8-0.3-2.7-0.5c-3.3-0.6-6.9-0.9-9.8-0.6c-1.2,0.2-2.3,0.4-3.1,0.8C169.6,264.8,160.8,269.4,161.7,271.9
								L161.7,271.9z"/>
							<path class="st14" d="M173.8,287.3c0.2,0.3,0.4,0.5,0.6,0.8c0.1-0.1,0.1-0.1,0.1-0.2c0.7-1.1,1.8-2.5,2.9-4.1
								c1.1-1.5,2.3-2.8,3.2-3.7c0.2-0.2,0.5-0.4,0.6-0.6c0.2-0.2,0.4-0.3,0.5-0.4c0.3-0.2,0.5-0.4,0.5-0.4s-0.2,0-0.6,0.1
								c-0.2,0-0.4,0.1-0.7,0.2c-0.3,0.1-0.6,0.2-0.9,0.4c-1.3,0.6-3,1.8-4.2,3.5C174.8,284.4,174.1,286.1,173.8,287.3L173.8,287.3z
								"/>
							<path class="st14" d="M177.7,291.6c0.1,0.1,0.2,0.2,0.3,0.3c0.2-0.3,0.5-0.7,0.8-1.2c0.7-1.1,1.8-2.5,2.9-4.1
								c1.1-1.5,2.3-2.8,3.2-3.7c0.2-0.2,0.5-0.4,0.7-0.6c0.2-0.2,0.4-0.3,0.5-0.4c0.3-0.2,0.5-0.4,0.5-0.4s-0.2,0-0.6,0.1
								c-0.2,0-0.4,0.1-0.7,0.2c-0.3,0.1-0.6,0.2-0.9,0.4c-1.3,0.6-3,1.8-4.2,3.5c-1.2,1.7-1.9,3.4-2.2,4.7
								C177.8,290.9,177.8,291.3,177.7,291.6L177.7,291.6z"/>
						</g>
						<polygon class="st9" points="207.2,276.1 211.9,266.7 192.7,254.7 190.8,262 						"/>
						<g>
							<g>
								<g>
									
										<rect x="155.3" y="141.8" transform="matrix(0.9801 -0.1987 0.1987 0.9801 -31.8939 35.5654)" class="st19" width="11.9" height="69.9"/>
									
										<rect x="157.4" y="145.8" transform="matrix(0.9801 -0.1987 0.1987 0.9801 -31.0484 35.3048)" class="st20" width="5.9" height="53.2"/>
									<path class="st17" d="M170.1,204.1c0.3,1.7-0.7,3.3-2.4,3.6c-1.7,0.3-3.3-0.7-3.6-2.4c-0.3-1.7,0.7-3.3,2.4-3.6
										C168.1,201.4,169.8,202.5,170.1,204.1z"/>
									
										<rect x="114.6" y="157.8" transform="matrix(0.9801 -0.1987 0.1987 0.9801 -29.6774 28.9459)" class="st20" width="29.7" height="9.1"/>
									
										<rect x="125.3" y="194.5" transform="matrix(0.9801 -0.1987 0.1987 0.9801 -36.1918 30.9609)" class="st20" width="21.8" height="2.7"/>
									
										<rect x="126.3" y="199.7" transform="matrix(0.9801 -0.1987 0.1987 0.9801 -37.2108 31.2759)" class="st20" width="21.8" height="2.7"/>
									
										<rect x="127.4" y="204.9" transform="matrix(0.9801 -0.1987 0.1987 0.9801 -38.2317 31.591)" class="st20" width="21.8" height="2.7"/>
									<polygon class="st17" points="104.3,152.6 116.5,212.9 117,212.9 118.2,212.9 122,213 123.9,213 125.4,213 129.1,213.1 
										129.1,213.1 137.9,213.2 137.6,217.2 157.9,213.1 162.4,212.1 162.8,212.1 167.1,211.2 167.1,211.2 170.3,210.5 174,209.8 
										173.8,208.7 173.1,205.2 167.9,179.5 163.4,157.3 163.2,156.5 162.9,154.8 162.6,153.3 161.7,148.7 161.3,147 161,145.6 
										160.2,141.3 148.5,143.6 130.3,147.3 119.4,149.5 119.4,149.5 114.8,150.5 112.2,151 									"/>
								</g>
								<polygon class="st19" points="98.1,150.1 111.4,212.9 112.7,212.9 116.5,212.9 104.3,152.6 112.2,151 114.8,150.5 
									119.4,149.5 119.4,149.5 130.3,147.3 148.5,143.6 160.2,141.3 155.2,139.1 								"/>
								<polygon class="st20" points="101,151.1 112.7,212.9 116.5,212.9 104.3,152.6 112.2,151 114.8,150.5 119.4,149.5 
									119.4,149.5 130.3,147.3 130.3,147.3 156.6,142 154.5,140.7 116.3,148.1 112.1,149 								"/>
							</g>
							<g>
								<g>
									<polygon class="st21" points="117.8,151.7 118.3,158.5 118.4,159.9 119,169.1 120.1,184.8 120.1,184.8 122,213 123.9,213 
										125.4,213 129.1,213.1 129.1,213.1 137.9,213.2 137.6,217.2 137.4,220.4 141.8,220.1 147.7,219.7 167.6,218.4 175.2,217.9 
										178.3,217.7 179.4,217.6 179.3,216 179,212 175.4,158.9 175.2,155 175.1,154.8 175,152.4 174.7,147.8 171,148.1 
										162.8,148.7 161.7,148.7 158.6,148.9 152.7,149.3 149.7,149.5 									"/>
									
										<rect x="165.2" y="148.2" transform="matrix(0.9977 -6.784116e-02 6.784116e-02 0.9977 -12.0289 12.0319)" class="st22" width="11.9" height="69.9"/>
									
										<rect x="167.9" y="152.1" transform="matrix(0.9977 -6.784116e-02 6.784116e-02 0.9977 -11.7294 12.0014)" class="st20" width="5.9" height="53.2"/>
									<path class="st21" d="M176.3,211.5c0.1,1.7-1.2,3.2-2.9,3.3c-1.7,0.1-3.2-1.2-3.3-2.9c-0.1-1.7,1.2-3.2,2.9-3.3
										C174.7,208.5,176.1,209.8,176.3,211.5z"/>
									
										<rect x="126.6" y="160.1" transform="matrix(0.9977 -6.784116e-02 6.784116e-02 0.9977 -10.8466 9.9737)" class="st20" width="29.7" height="9.1"/>
									
										<rect x="132.8" y="197.4" transform="matrix(0.9977 -6.784116e-02 6.784116e-02 0.9977 -13.1525 10.2093)" class="st20" width="21.8" height="2.7"/>
									
										<rect x="133.2" y="202.7" transform="matrix(0.9977 -6.784116e-02 6.784116e-02 0.9977 -13.5135 10.2461)" class="st20" width="21.8" height="2.7"/>
									
										<rect x="133.6" y="208.1" transform="matrix(0.9977 -6.784116e-02 6.784116e-02 0.9977 -13.8745 10.2829)" class="st20" width="21.8" height="2.7"/>
								</g>
								<polygon class="st22" points="112,148.4 112.1,149 112.2,151 117,212.9 118.2,212.9 122,213 120.1,184.8 120.1,184.8 
									119,169.1 118.4,159.9 118.3,158.5 117.8,151.7 149.7,149.5 152.7,149.3 158.6,148.9 161.7,148.7 162.8,148.7 171,148.1 
									174.7,147.8 170,145 161,145.6 158,145.7 157.8,145.7 149,146.3 130.3,147.3 130.3,147.3 116.3,148.1 								"/>
								<polygon class="st20" points="114.8,149.8 114.8,150.5 115.4,160.5 115.9,169.8 118.2,212.9 122,213 120.1,184.8 
									120.1,184.8 119,169.1 118.4,159.9 118.3,158.5 117.8,151.7 149.7,149.5 152.7,149.3 158.6,148.9 161.7,148.7 162.8,148.7 
									171,148.1 169.2,146.5 161.3,147 158.3,147.2 152.3,147.5 149.3,147.7 119.4,149.5 119.4,149.5 								"/>
							</g>
							<g>
								<g>
									<g>
										
											<rect x="163.2" y="216.4" transform="matrix(0.3572 -0.934 0.934 0.3572 -101.3579 295.5527)" class="st19" width="1.6" height="10"/>
										
											<rect x="91.6" y="177.8" transform="matrix(0.3572 -0.934 0.934 0.3572 -58.3291 283.5253)" class="st17" width="170.5" height="12.7"/>
										
											<rect x="204" y="109.7" transform="matrix(0.3572 -0.934 0.934 0.3572 24.5302 265.0791)" class="st19" width="1.6" height="10"/>
										
											<rect x="198.2" y="125" transform="matrix(0.3572 -0.934 0.934 0.3572 6.5471 269.4313)" class="st19" width="1.6" height="10"/>
										
											<rect x="192.4" y="140.2" transform="matrix(0.3572 -0.934 0.934 0.3572 -11.436 273.7835)" class="st19" width="1.6" height="10"/>
										
											<rect x="186.6" y="155.5" transform="matrix(0.3572 -0.934 0.934 0.3572 -29.4302 278.1383)" class="st19" width="1.6" height="10"/>
										
											<rect x="180.7" y="170.7" transform="matrix(0.3572 -0.934 0.934 0.3572 -47.3975 282.4934)" class="st19" width="1.6" height="10"/>
										
											<rect x="174.9" y="185.9" transform="matrix(0.3572 -0.934 0.934 0.3572 -65.3807 286.8456)" class="st19" width="1.6" height="10"/>
										
											<rect x="169.1" y="201.2" transform="matrix(0.3572 -0.934 0.934 0.3572 -83.3812 291.1911)" class="st19" width="1.6" height="10"/>
										
											<rect x="157.4" y="231.7" transform="matrix(0.3572 -0.934 0.934 0.3572 -119.341 299.9048)" class="st19" width="1.6" height="10"/>
										
											<rect x="151.6" y="246.9" transform="matrix(0.3572 -0.934 0.934 0.3572 -137.3242 304.257)" class="st19" width="1.6" height="10"/>
									</g>
									
										<rect x="140.3" y="205.8" transform="matrix(0.9919 -0.1269 0.1269 0.9919 -25.0633 20.8549)" class="st20" width="21.8" height="2.7"/>
									
										<rect x="140.9" y="211.1" transform="matrix(0.9919 -0.1269 0.1269 0.9919 -25.7316 20.9852)" class="st20" width="21.8" height="2.7"/>
									
										<rect x="141.6" y="216.4" transform="matrix(0.9919 -0.1269 0.1269 0.9919 -26.3988 21.1139)" class="st20" width="21.8" height="2.7"/>
									<polygon class="st23" points="122.5,161.7 123.3,168.2 126.9,196.3 127.3,199 127.6,201.6 128,204.3 128.3,206.9 
										128.7,209.7 129.1,213.1 137.9,213.2 137.6,217.2 137.4,220.4 136.7,230.4 176.1,225.3 187.9,223.8 179,154.5 175.4,155 
										175.2,155 172.2,155.4 167.2,156 166.3,156.1 163.3,156.5 163.2,156.5 160.3,156.9 160.3,156.9 154.4,157.6 151.4,158 
										143.8,159 143.8,159 128.1,161 126.3,161.2 									"/>
									
										<rect x="171.6" y="155" transform="matrix(0.9919 -0.1269 0.1269 0.9919 -22.6629 24.0694)" class="st10" width="11.9" height="69.9"/>
									<polygon class="st6" points="123.4,263.3 120,260.2 250.6,117.9 252.3,119.5 									"/>
									
										<rect x="174.1" y="158.9" transform="matrix(0.9919 -0.1269 0.1269 0.9919 -22.1083 23.9609)" class="st20" width="5.9" height="53.2"/>
									<path class="st23" d="M184.4,217.9c0.2,1.7-1,3.2-2.7,3.4s-3.2-1-3.4-2.7s1-3.2,2.7-3.4S184.2,216.2,184.4,217.9z"/>
									
										<rect x="132" y="168.7" transform="matrix(0.9919 -0.1269 0.1269 0.9919 -20.7989 20.0324)" class="st20" width="29.7" height="9.1"/>
								</g>
								<polygon class="st10" points="116.5,158.7 116.7,160.3 117.9,169.3 120.1,184.8 120.1,184.8 123.9,213 125.4,213 
									129.1,213.1 129.1,213.1 128.7,209.7 128.3,206.9 128,204.3 127.6,201.6 127.3,199 126.9,196.3 123.3,168.2 122.5,161.7 
									126.3,161.2 128.1,161 143.8,159 143.8,159 151.4,158 154.4,157.6 160.3,156.9 160.3,156.9 163.2,156.5 163.3,156.5 
									166.3,156.1 167.2,156 172.2,155.4 175.2,155 175.4,155 179,154.5 175,152.4 174.2,152 172,152.2 166.1,152.9 163.1,153.3 
									162.6,153.3 159.6,153.7 153.7,154.4 150.7,154.7 143.2,155.6 134.7,156.6 118.3,158.5 								"/>
								<polygon class="st20" points="119.3,160 120.4,168.8 125.4,213 129.1,213.1 128.6,209.7 128.3,206.9 128,204.3 127.6,201.6 
									127.3,199 126.9,196.3 126.9,196.3 123.3,168.2 122.5,161.7 126.3,161.2 128.1,161 143.8,159 143.8,159 151.4,158 
									154.4,157.6 160.3,156.9 163.2,156.5 163.3,156.5 166.3,156.1 167.2,156 172.2,155.4 175.2,155 175.4,155 175.1,154.8 
									173.5,153.5 172.1,153.7 166.2,154.4 163.2,154.7 162.9,154.8 159.9,155.1 154,155.8 151.1,156.2 143.5,157.1 								"/>
							</g>
						</g>
						<g>
							<path class="st12" d="M167.9,197.1c-0.3,0.1-0.7,0.3-1,0.5c-2.6,1.4-4,4.2-6,6.3c-2.7,3-6.5,5-8.6,8.4
								c-1.8,2.9-2.1,6.4-2.7,9.7c-0.2,1-0.4,2.1-1.2,2.9c-0.6,0.6-1.5,0.9-2.3,1.1c-2.5,0.7-5.2,1.3-7.7,2.2
								c0.1-1.2,0.4-2.4,0.8-3.5c0.2-0.6,7.7-2.8,7.7-2.8s0.1-10.2,4.8-13.2c2.8-1.8,5.6-3.6,7.6-6.3c1-1.4,1.8-3,3-4.3
								s2.8-2.3,4.5-2.3c0.2,0,0.4,0,0.6,0.1C167.9,196.1,167.9,196.6,167.9,197.1L167.9,197.1z"/>
							<path class="st7" d="M140.9,239.2l14.2-3.1l4,1.7c3,0.8,31.8-5,32-7c0.1-0.5,0.1-1.1,0-1.7c0-0.9-0.1-1.7-0.2-2.2
								c-0.1-0.4-0.1-0.6-0.1-0.6s0.4-1,0.8-2.2c0.2-0.7,0.4-1.5,0.5-2.2c0.1-0.8,0-1.4-0.4-1.8s-2.2-0.6-4.6-0.8
								c-6-0.5-15.6-0.6-15.2-1.2c0.6-0.8,21.2-5.8,21.2-5.8s0.3-0.6,0.4-1.4c0.1-0.5,0.1-1.1-0.2-1.8c-0.6-1.8-31.1,1.3-31.1,1.3
								c3.3-3.5,5.4-8.3,5.8-13.1c0-0.1,0-0.1,0-0.1c0-0.4-0.1-0.9-0.4-1.1c-0.2-0.1-0.4-0.1-0.6-0.1c-1.7-0.1-3.4,1-4.5,2.3
								c-1.2,1.3-2,2.9-3,4.3c-1.9,2.7-4.8,4.5-7.6,6.3c-4.7,3-4.8,13.2-4.8,13.2s-7.5,2.1-7.7,2.8c-0.4,1.2-0.7,2.4-0.8,3.5
								c-0.2,2.1,0,4.1,0.4,5.8c0.1,0.2,0.1,0.4,0.1,0.6C139.8,237.3,140.9,239.2,140.9,239.2L140.9,239.2z"/>
							<path class="st8" d="M140.9,239.2l14.2-3.1l4,1.7c3,0.8,31.8-5,32-7c0.1-0.5,0.1-1.1,0-1.7c0-0.9-0.1-1.7-0.2-2.2
								c-0.1-0.4-0.1-0.6-0.1-0.6s0.4-1,0.8-2.2c0.2-0.7,0.4-1.5,0.5-2.2c0.1-0.8,0-1.4-0.4-1.8s-2.2-0.6-4.6-0.8
								c-0.9,1.5-1.6,3.4-2.5,4.7c-1.5,2.1-3.5,3.8-5.8,4.9c-3.7,1.9-8,2.3-12.2,2.3c-4.2,0-8.4-0.4-12.5-0.1
								c-5.1,0.4-10,1.8-14.8,3.4C139.8,237.3,140.9,239.2,140.9,239.2L140.9,239.2z"/>
							<g>
								<path class="st14" d="M191.5,224.1c-0.6,0.1-1.1,0.1-1.7,0.1c-3.3,0.2-6.3,0-8.5-0.2c-2-0.2-3.3-0.5-3.5-0.6
									c0.1,0,1.5-0.3,3.5-0.6c2.2-0.3,5.1-0.7,8.4-0.9c0.8-0.1,1.6-0.1,2.3-0.1C191.9,222.5,191.8,223.3,191.5,224.1L191.5,224.1z
									"/>
								<path class="st14" d="M191.1,229.2c-5.3,0.5-9.6-0.1-9.8-0.1c0.3-0.1,4.4-1.5,9.6-2.1C190.9,227.5,191,228.3,191.1,229.2
									L191.1,229.2z"/>
							</g>
						</g>
						<g>
							<path class="st9" d="M96.4,213.4c13.7,0.1,27.8,1.7,41.4,0.3c0.8-0.1,1.1-1.3,0.2-1.4c-12.8-2-26.1-1.4-39.1-1.8
								c3.4-6,6.3-12.6,7.8-19.4l-1.4-6.8c-2.9,9.4-5.3,18.2-10.2,26.8C94.6,212.1,95.3,213.4,96.4,213.4L96.4,213.4z"/>
							<path class="st9" d="M103.8,243.3c10.2-1.5,21-2.6,31.4-1.8c0.7,0.1,1,1.1,0.2,1.3c-10.1,2.1-21,2.5-31.3,2.4
								C103,245.3,102.6,243.5,103.8,243.3z"/>
							<polygon class="st9" points="135.3,242.8 149.8,241.3 147.2,211.6 137.2,212.2 							"/>
						</g>
						<path class="st24" d="M126.6,109.6c0,0,6.4-3.4,17.9-2.9c0,0-1.5,8.2-8,8.9C129.9,116.2,126.6,109.6,126.6,109.6z"/>
					</g>
					<path class="st9" d="M165.8,599L165.8,599c-16.7-1-25.1-4.4-25.1-4.4l6.5-13.8l2.3-4.8l9.8,4.5l4.9,13.8L165.8,599L165.8,599z"
						/>
					<path class="st25" d="M183.4,599.5c-7.1,0-13.8-0.2-17.6-0.5h0c-16.7-1-25.1-4.4-25.1-4.4s-0.5-10.2,1.3-20.6
						c1.6,2.1,3.3,4.5,5.2,6.8c1.4,1.7,2.9,3.4,4.6,5c1.5,1.4,3.1,2.8,5,4.2c2.1,1.5,4.5,3,7.3,4.3
						C169.2,596.6,175.5,598.5,183.4,599.5L183.4,599.5z"/>
					<circle class="st6" cx="203" cy="580.8" r="4.9"/>
					<path class="st6" d="M79.6,589.7c0,2.7-2.2,4.9-4.9,4.9s-4.9-2.2-4.9-4.9s2.2-4.9,4.9-4.9S79.6,587,79.6,589.7z"/>
				</g>
			</g>
		</g>
		<path class="st26" d="M128,263.6c-0.4,0-0.7-0.3-0.7-0.7c0-0.4,0.3-0.7,0.7-0.7c1.2,0,2.5,0,3.7,0c0.4,0,0.7,0.3,0.7,0.7
			s-0.3,0.7-0.7,0.7C130.5,263.6,129.2,263.6,128,263.6L128,263.6z M134.8,262.9c0-0.4,0.3-0.7,0.7-0.7c1.2,0,2.5-0.1,3.7-0.1
			c0.4,0,0.7,0.3,0.7,0.7s-0.3,0.7-0.7,0.7c-1.2,0.1-2.5,0.1-3.8,0.2c0,0,0,0,0,0C135.1,263.6,134.8,263.3,134.8,262.9L134.8,262.9z
			 M124.2,263.4c-1.2-0.1-2.5-0.2-3.8-0.3c-0.4,0-0.7-0.4-0.6-0.8s0.4-0.7,0.8-0.6c1.2,0.1,2.5,0.2,3.7,0.3c0.4,0,0.7,0.4,0.7,0.7
			C125,263.1,124.6,263.4,124.2,263.4C124.3,263.4,124.2,263.4,124.2,263.4L124.2,263.4z M142.3,262.5c0-0.4,0.2-0.7,0.6-0.8
			c1.2-0.1,2.5-0.2,3.7-0.4c0.4,0,0.7,0.2,0.8,0.6c0,0.4-0.2,0.7-0.6,0.8c-1.2,0.1-2.5,0.3-3.7,0.4c0,0,0,0-0.1,0
			C142.6,263.1,142.3,262.9,142.3,262.5L142.3,262.5z M116.7,262.8c-1.2-0.1-2.5-0.3-3.7-0.5c-0.4-0.1-0.6-0.4-0.6-0.8
			c0.1-0.4,0.4-0.6,0.8-0.6c1.2,0.2,2.5,0.3,3.7,0.5c0.4,0,0.7,0.4,0.6,0.8C117.5,262.5,117.2,262.8,116.7,262.8
			C116.8,262.8,116.8,262.8,116.7,262.8L116.7,262.8z M149.7,261.7c-0.1-0.4,0.2-0.7,0.6-0.8c1.2-0.2,2.5-0.4,3.7-0.6
			c0.4-0.1,0.7,0.2,0.8,0.6c0.1,0.4-0.2,0.7-0.6,0.8c-1.2,0.2-2.5,0.4-3.7,0.6c0,0-0.1,0-0.1,0C150.1,262.3,149.8,262,149.7,261.7
			L149.7,261.7z M109.3,261.7c-1.2-0.2-2.5-0.4-3.7-0.7c-0.4-0.1-0.6-0.5-0.6-0.8c0.1-0.4,0.4-0.6,0.8-0.5c1.2,0.2,2.4,0.5,3.7,0.7
			c0.4,0.1,0.6,0.4,0.6,0.8c-0.1,0.3-0.4,0.6-0.7,0.6C109.4,261.7,109.3,261.7,109.3,261.7L109.3,261.7z M157.1,260.5
			c-0.1-0.4,0.2-0.8,0.6-0.8c1.2-0.2,2.4-0.5,3.6-0.8c0.4-0.1,0.8,0.1,0.8,0.5c0.1,0.4-0.1,0.8-0.5,0.8c-1.2,0.3-2.4,0.5-3.7,0.8
			c-0.1,0-0.1,0-0.1,0C157.5,261,157.2,260.8,157.1,260.5L157.1,260.5z M101.9,260.2c-1.2-0.3-2.4-0.6-3.6-0.9
			c-0.4-0.1-0.6-0.5-0.5-0.9s0.5-0.6,0.9-0.5c1.2,0.3,2.4,0.6,3.6,0.9c0.4,0.1,0.6,0.5,0.5,0.8c-0.1,0.3-0.4,0.5-0.7,0.5
			C102,260.2,101.9,260.2,101.9,260.2L101.9,260.2z M164.4,258.8c-0.1-0.4,0.1-0.8,0.5-0.9c1.2-0.3,2.4-0.6,3.6-1
			c0.4-0.1,0.8,0.1,0.9,0.5s-0.1,0.8-0.5,0.9c-1.2,0.4-2.4,0.7-3.6,1c-0.1,0-0.1,0-0.2,0C164.8,259.4,164.5,259.2,164.4,258.8z
			 M94.6,258.3c-1.2-0.4-2.4-0.7-3.6-1.1c-0.4-0.1-0.6-0.5-0.4-0.9c0.1-0.4,0.5-0.6,0.9-0.4c1.2,0.4,2.4,0.7,3.6,1.1
			c0.4,0.1,0.6,0.5,0.5,0.9c-0.1,0.3-0.4,0.5-0.7,0.5C94.7,258.3,94.7,258.3,94.6,258.3L94.6,258.3z M171.6,256.8
			c-0.1-0.4,0.1-0.8,0.4-0.9c1.2-0.4,2.4-0.8,3.5-1.2c0.4-0.1,0.8,0.1,0.9,0.4s-0.1,0.8-0.4,0.9c-1.2,0.4-2.4,0.8-3.6,1.2
			c-0.1,0-0.1,0-0.2,0C172,257.3,171.7,257.1,171.6,256.8L171.6,256.8z M87.5,256c-1.2-0.4-2.4-0.9-3.5-1.3
			c-0.4-0.1-0.5-0.6-0.4-0.9s0.6-0.5,0.9-0.4c1.2,0.4,2.3,0.9,3.5,1.3c0.4,0.1,0.6,0.5,0.4,0.9c-0.1,0.3-0.4,0.5-0.7,0.5
			C87.6,256,87.5,256,87.5,256L87.5,256z M178.7,254.3c-0.1-0.4,0-0.8,0.4-0.9c1.1-0.4,2.3-0.9,3.5-1.4c0.4-0.1,0.8,0,0.9,0.4
			c0.1,0.4,0,0.8-0.4,0.9c-1.1,0.5-2.3,1-3.5,1.4c-0.1,0-0.2,0.1-0.2,0.1C179.1,254.8,178.8,254.6,178.7,254.3L178.7,254.3z
			 M80.5,253.3c-1.1-0.5-2.3-1-3.4-1.5c-0.3-0.2-0.5-0.6-0.3-0.9c0.2-0.4,0.6-0.5,0.9-0.4c1.1,0.5,2.3,1,3.4,1.5
			c0.4,0.1,0.5,0.6,0.4,0.9c-0.1,0.3-0.4,0.4-0.7,0.4C80.7,253.3,80.6,253.3,80.5,253.3z M185.6,251.4c-0.2-0.4,0-0.8,0.4-0.9
			c1.1-0.5,2.3-1.1,3.4-1.6c0.4-0.2,0.8,0,0.9,0.3s0,0.8-0.3,0.9c-1.1,0.6-2.3,1.1-3.4,1.6c-0.1,0-0.2,0.1-0.3,0.1
			C186,251.8,185.7,251.7,185.6,251.4z M73.6,250.1c-1.1-0.6-2.2-1.1-3.3-1.7c-0.3-0.2-0.5-0.6-0.3-0.9c0.2-0.3,0.6-0.5,0.9-0.3
			c1.1,0.6,2.2,1.1,3.3,1.7c0.3,0.2,0.5,0.6,0.3,0.9c-0.1,0.2-0.4,0.4-0.6,0.4C73.9,250.2,73.8,250.2,73.6,250.1L73.6,250.1z
			 M192.4,248.1c-0.2-0.3-0.1-0.8,0.3-0.9c1.1-0.6,2.2-1.2,3.3-1.8c0.3-0.2,0.8-0.1,0.9,0.3c0.2,0.3,0.1,0.8-0.3,0.9
			c-1.1,0.6-2.2,1.2-3.3,1.8c-0.1,0.1-0.2,0.1-0.3,0.1C192.7,248.5,192.5,248.4,192.4,248.1L192.4,248.1z M67,246.6
			c-1.1-0.6-2.2-1.2-3.2-1.9c-0.3-0.2-0.4-0.6-0.2-1c0.2-0.3,0.6-0.4,1-0.2c1.1,0.6,2.1,1.3,3.2,1.9c0.3,0.2,0.4,0.6,0.3,0.9
			c-0.1,0.2-0.4,0.4-0.6,0.4C67.2,246.7,67.1,246.7,67,246.6L67,246.6z M198.9,244.5c-0.2-0.3-0.1-0.8,0.2-1c1.1-0.6,2.1-1.3,3.2-2
			c0.3-0.2,0.8-0.1,1,0.2c0.2,0.3,0.1,0.8-0.2,1c-1.1,0.7-2.1,1.4-3.2,2c-0.1,0.1-0.2,0.1-0.4,0.1
			C199.3,244.8,199,244.7,198.9,244.5L198.9,244.5z M60.6,242.7c-1-0.7-2.1-1.4-3.1-2.1c-0.3-0.2-0.4-0.6-0.2-1s0.7-0.4,1-0.2
			c1,0.7,2.1,1.4,3.1,2.1c0.3,0.2,0.4,0.6,0.2,1c-0.1,0.2-0.4,0.3-0.6,0.3C60.8,242.9,60.7,242.8,60.6,242.7L60.6,242.7z
			 M205.2,240.5c-0.2-0.3-0.1-0.8,0.2-1c1-0.7,2-1.4,3-2.1c0.3-0.2,0.8-0.2,1,0.1s0.2,0.8-0.1,1c-1,0.7-2.1,1.5-3.1,2.2
			c-0.1,0.1-0.3,0.1-0.4,0.1C205.6,240.8,205.4,240.6,205.2,240.5L205.2,240.5z M54.4,238.5c-1-0.7-2-1.5-3-2.2
			c-0.3-0.2-0.4-0.7-0.1-1c0.2-0.3,0.7-0.4,1-0.1c1,0.8,2,1.5,3,2.2c0.3,0.2,0.4,0.7,0.2,1c-0.1,0.2-0.3,0.3-0.6,0.3
			C54.6,238.6,54.5,238.6,54.4,238.5L54.4,238.5z M211.3,236.1c-0.2-0.3-0.2-0.8,0.1-1c1-0.8,2-1.5,2.9-2.3c0.3-0.2,0.7-0.2,1,0.1
			c0.2,0.3,0.2,0.7-0.1,1c-1,0.8-2,1.6-2.9,2.3c-0.1,0.1-0.3,0.1-0.4,0.1C211.7,236.3,211.4,236.3,211.3,236.1L211.3,236.1z
			 M48.4,233.9c-1-0.8-1.9-1.6-2.9-2.4c-0.3-0.2-0.3-0.7-0.1-1c0.2-0.3,0.7-0.3,1-0.1c0.9,0.8,1.9,1.6,2.8,2.4
			c0.3,0.2,0.3,0.7,0.1,1c-0.1,0.2-0.3,0.3-0.5,0.3C48.7,234.1,48.6,234,48.4,233.9L48.4,233.9z M217.1,231.4
			c-0.2-0.3-0.2-0.7,0.1-1c0.9-0.8,1.9-1.6,2.8-2.5c0.3-0.3,0.7-0.2,1,0s0.2,0.7,0,1c-0.9,0.8-1.9,1.7-2.8,2.5
			c-0.1,0.1-0.3,0.2-0.5,0.2C217.5,231.6,217.3,231.5,217.1,231.4L217.1,231.4z M42.7,229c-0.9-0.8-1.8-1.7-2.7-2.6
			c-0.3-0.3-0.3-0.7,0-1s0.7-0.3,1,0c0.9,0.9,1.8,1.7,2.7,2.6c0.3,0.3,0.3,0.7,0,1c-0.1,0.1-0.3,0.2-0.5,0.2
			C43,229.2,42.9,229.1,42.7,229L42.7,229z M222.7,226.3c-0.3-0.3-0.3-0.7,0-1c0.9-0.9,1.8-1.7,2.6-2.6c0.3-0.3,0.7-0.3,1,0
			s0.3,0.7,0,1c-0.9,0.9-1.8,1.8-2.7,2.7c-0.1,0.1-0.3,0.2-0.5,0.2S222.8,226.5,222.7,226.3L222.7,226.3z M37.3,223.7
			c-0.9-0.9-1.7-1.8-2.6-2.7c-0.3-0.3-0.2-0.7,0-1c0.3-0.3,0.7-0.2,1,0c0.8,0.9,1.7,1.8,2.6,2.7c0.3,0.3,0.3,0.7,0,1
			c-0.1,0.1-0.3,0.2-0.5,0.2S37.5,223.8,37.3,223.7L37.3,223.7z M227.9,221c-0.3-0.3-0.3-0.7,0-1c0.8-0.9,1.7-1.8,2.5-2.8
			c0.2-0.3,0.7-0.3,1-0.1c0.3,0.2,0.3,0.7,0.1,1c-0.8,0.9-1.7,1.9-2.5,2.8c-0.1,0.1-0.3,0.2-0.5,0.2
			C228.2,221.2,228.1,221.1,227.9,221L227.9,221z M32.3,218.2c-0.8-0.9-1.6-1.9-2.4-2.9c-0.2-0.3-0.2-0.7,0.1-1
			c0.3-0.2,0.7-0.2,1,0.1c0.8,1,1.6,1.9,2.4,2.9c0.2,0.3,0.2,0.7-0.1,1c-0.1,0.1-0.3,0.2-0.5,0.2C32.6,218.4,32.4,218.3,32.3,218.2
			L32.3,218.2z M232.9,215.3c-0.3-0.2-0.3-0.7-0.1-1c0.8-1,1.6-1.9,2.3-2.9c0.2-0.3,0.7-0.4,1-0.1c0.3,0.2,0.4,0.7,0.1,1
			c-0.8,1-1.5,2-2.3,2.9c-0.1,0.2-0.3,0.3-0.5,0.3C233.2,215.5,233,215.4,232.9,215.3L232.9,215.3z M27.5,212.3c-0.8-1-1.5-2-2.3-3
			c-0.2-0.3-0.2-0.8,0.2-1s0.7-0.2,1,0.1c0.7,1,1.5,2,2.2,3c0.2,0.3,0.2,0.7-0.1,1c-0.1,0.1-0.3,0.1-0.4,0.1
			C27.8,212.6,27.6,212.5,27.5,212.3L27.5,212.3z M237.5,209.4c-0.3-0.2-0.4-0.7-0.1-1c0.7-1,1.4-2,2.1-3c0.2-0.3,0.6-0.4,1-0.2
			s0.4,0.6,0.2,1c-0.7,1-1.4,2.1-2.2,3.1c-0.1,0.2-0.4,0.3-0.6,0.3C237.7,209.6,237.6,209.5,237.5,209.4L237.5,209.4z M23,206.2
			c-0.7-1-1.4-2.1-2.1-3.1c-0.2-0.3-0.1-0.8,0.2-1c0.3-0.2,0.8-0.1,1,0.2c0.7,1,1.4,2.1,2.1,3.1c0.2,0.3,0.1,0.8-0.2,1
			c-0.1,0.1-0.3,0.1-0.4,0.1C23.4,206.5,23.2,206.4,23,206.2L23,206.2z M241.7,203.3c-0.3-0.2-0.4-0.6-0.2-1c0.7-1,1.3-2.1,2-3.1
			c0.2-0.3,0.6-0.4,1-0.2s0.4,0.6,0.2,1c-0.6,1.1-1.3,2.1-2,3.2c-0.1,0.2-0.4,0.3-0.6,0.3C242,203.4,241.8,203.4,241.7,203.3
			L241.7,203.3z M18.9,199.9c-0.7-1.1-1.3-2.2-1.9-3.2c-0.2-0.3-0.1-0.8,0.3-0.9c0.3-0.2,0.8-0.1,1,0.3c0.6,1.1,1.2,2.2,1.9,3.2
			c0.2,0.3,0.1,0.8-0.2,1c-0.1,0.1-0.2,0.1-0.4,0.1C19.3,200.3,19.1,200.1,18.9,199.9L18.9,199.9z M245.6,196.9
			c-0.3-0.2-0.5-0.6-0.3-0.9c0.6-1.1,1.2-2.2,1.8-3.3c0.2-0.3,0.6-0.5,1-0.3c0.3,0.2,0.5,0.6,0.3,0.9c-0.6,1.1-1.2,2.2-1.8,3.3
			c-0.1,0.2-0.4,0.4-0.6,0.4C245.8,197,245.7,197,245.6,196.9L245.6,196.9z M15.2,193.4c-0.6-1.1-1.2-2.2-1.7-3.4
			c-0.2-0.4,0-0.8,0.3-0.9s0.8,0,0.9,0.3c0.5,1.1,1.1,2.2,1.7,3.3c0.2,0.3,0,0.8-0.3,0.9c-0.1,0.1-0.2,0.1-0.3,0.1
			C15.6,193.7,15.4,193.6,15.2,193.4L15.2,193.4z M249.1,190.3c-0.4-0.2-0.5-0.6-0.3-0.9c0.5-1.1,1.1-2.2,1.6-3.4
			c0.2-0.4,0.6-0.5,0.9-0.3c0.4,0.2,0.5,0.6,0.3,0.9c-0.5,1.1-1.1,2.3-1.6,3.4c-0.1,0.2-0.4,0.4-0.6,0.4
			C249.4,190.4,249.2,190.4,249.1,190.3L249.1,190.3z M11.9,186.6c-0.5-1.1-1-2.3-1.5-3.4c-0.2-0.4,0-0.8,0.4-0.9
			c0.4-0.1,0.8,0,0.9,0.4c0.5,1.1,1,2.3,1.5,3.4c0.2,0.4,0,0.8-0.3,0.9c-0.1,0-0.2,0.1-0.3,0.1C12.3,187,12,186.8,11.9,186.6
			L11.9,186.6z M252.3,183.6c-0.4-0.1-0.5-0.6-0.4-0.9c0.5-1.1,1-2.3,1.4-3.4c0.1-0.4,0.5-0.5,0.9-0.4c0.4,0.1,0.5,0.6,0.4,0.9
			c-0.5,1.2-0.9,2.3-1.4,3.5c-0.1,0.3-0.4,0.4-0.6,0.4C252.5,183.6,252.4,183.6,252.3,183.6L252.3,183.6z M9,179.6
			c-0.5-1.2-0.9-2.4-1.3-3.5c-0.1-0.4,0.1-0.8,0.4-0.9c0.4-0.1,0.8,0.1,0.9,0.4c0.4,1.2,0.8,2.3,1.3,3.5c0.1,0.4,0,0.8-0.4,0.9
			c-0.1,0-0.2,0.1-0.2,0.1C9.3,180.1,9.1,179.9,9,179.6L9,179.6z M255,176.6c-0.4-0.1-0.5-0.5-0.4-0.9c0.4-1.2,0.8-2.4,1.2-3.5
			c0.1-0.4,0.5-0.6,0.9-0.4c0.4,0.1,0.6,0.5,0.5,0.9c-0.4,1.2-0.8,2.4-1.2,3.6c-0.1,0.3-0.4,0.5-0.7,0.5
			C255.2,176.7,255.1,176.7,255,176.6L255,176.6z M6.4,172.5c-0.4-1.2-0.8-2.4-1.1-3.6c-0.1-0.4,0.1-0.8,0.5-0.9
			c0.4-0.1,0.8,0.1,0.9,0.5c0.3,1.2,0.7,2.4,1.1,3.6c0.1,0.4-0.1,0.8-0.5,0.9c-0.1,0-0.1,0-0.2,0C6.8,173,6.5,172.8,6.4,172.5
			L6.4,172.5z M257.4,169.5c-0.4-0.1-0.6-0.5-0.5-0.9c0.4-1.2,0.7-2.4,1-3.6c0.1-0.4,0.5-0.6,0.9-0.5s0.6,0.5,0.5,0.9
			c-0.3,1.2-0.7,2.4-1,3.6c-0.1,0.3-0.4,0.5-0.7,0.5C257.5,169.5,257.5,169.5,257.4,169.5L257.4,169.5z M4.3,165.3
			c-0.3-1.2-0.6-2.4-0.9-3.6c-0.1-0.4,0.2-0.8,0.5-0.8c0.4-0.1,0.8,0.1,0.8,0.5c0.3,1.2,0.6,2.4,0.9,3.6c0.1,0.4-0.1,0.8-0.5,0.9
			c-0.1,0-0.1,0-0.2,0C4.7,165.8,4.4,165.6,4.3,165.3L4.3,165.3z M259.3,162.3c-0.4-0.1-0.6-0.5-0.5-0.8c0.3-1.2,0.5-2.4,0.8-3.6
			c0.1-0.4,0.5-0.6,0.8-0.6c0.4,0.1,0.6,0.4,0.5,0.8c-0.2,1.2-0.5,2.5-0.8,3.7c-0.1,0.3-0.4,0.5-0.7,0.5
			C259.4,162.3,259.4,162.3,259.3,162.3L259.3,162.3z M2.6,158c-0.2-1.2-0.5-2.5-0.7-3.7c-0.1-0.4,0.2-0.7,0.6-0.8
			c0.4-0.1,0.7,0.2,0.8,0.6c0.2,1.2,0.4,2.4,0.7,3.7c0.1,0.4-0.2,0.8-0.5,0.8c0,0-0.1,0-0.1,0C2.9,158.5,2.7,158.3,2.6,158L2.6,158z
			 M260.9,155c-0.4-0.1-0.6-0.4-0.6-0.8c0.2-1.2,0.4-2.5,0.6-3.7c0.1-0.4,0.4-0.6,0.8-0.6s0.6,0.4,0.6,0.8c-0.2,1.2-0.4,2.5-0.6,3.7
			c-0.1,0.3-0.4,0.6-0.7,0.6C260.9,155,260.9,155,260.9,155L260.9,155z M1.3,150.6c-0.2-1.2-0.3-2.5-0.5-3.7c0-0.4,0.2-0.7,0.6-0.8
			c0.4-0.1,0.7,0.2,0.8,0.6c0.1,1.2,0.3,2.5,0.5,3.7c0,0.4-0.2,0.7-0.6,0.8c0,0-0.1,0-0.1,0C1.7,151.2,1.4,150.9,1.3,150.6
			L1.3,150.6z M262,147.6c-0.4,0-0.7-0.4-0.6-0.8c0.1-1.2,0.3-2.5,0.4-3.7c0-0.4,0.4-0.7,0.8-0.6c0.4,0,0.7,0.4,0.6,0.8
			c-0.1,1.2-0.2,2.5-0.4,3.7C262.7,147.3,262.4,147.6,262,147.6C262,147.6,262,147.6,262,147.6L262,147.6z M0.5,143.1
			c-0.1-1.2-0.2-2.5-0.3-3.8c0-0.4,0.3-0.7,0.7-0.7c0.4,0,0.7,0.3,0.7,0.7c0.1,1.2,0.2,2.5,0.3,3.7c0,0.4-0.2,0.7-0.6,0.8
			c0,0,0,0-0.1,0C0.8,143.7,0.5,143.4,0.5,143.1z M262.6,140.1c-0.4,0-0.7-0.4-0.7-0.7c0.1-1.2,0.1-2.5,0.2-3.7
			c0-0.4,0.3-0.7,0.7-0.7c0,0,0,0,0,0c0.4,0,0.7,0.3,0.7,0.7c0,1.2-0.1,2.5-0.2,3.8C263.4,139.8,263,140.1,262.6,140.1
			C262.7,140.1,262.6,140.1,262.6,140.1L262.6,140.1z M0,135.6c0-1.2,0-2.5,0-3.8v-0.2c0-0.4,0.3-0.7,0.7-0.7s0.7,0.3,0.7,0.7v0.2
			c0,1.2,0,2.5,0,3.7c0,0.4-0.3,0.7-0.7,0.7c0,0,0,0,0,0C0.4,136.2,0.1,135.9,0,135.6L0,135.6z M262.2,131.9v-0.1c0-1.2,0-2.4,0-3.6
			c0-0.4,0.3-0.7,0.7-0.7c0.4,0,0.7,0.3,0.7,0.7c0,1.2,0,2.4,0,3.6v0.1c0,0.4-0.3,0.7-0.7,0.7S262.2,132.3,262.2,131.9L262.2,131.9z
			 M0.7,128.5c-0.4,0-0.7-0.3-0.7-0.7c0-1.2,0.1-2.5,0.2-3.8c0-0.4,0.4-0.7,0.7-0.7c0.4,0,0.7,0.3,0.7,0.7c-0.1,1.2-0.1,2.5-0.2,3.7
			C1.5,128.2,1.1,128.5,0.7,128.5C0.8,128.5,0.8,128.5,0.7,128.5L0.7,128.5z M262,124.5c-0.1-1.2-0.1-2.5-0.3-3.7
			c0-0.4,0.2-0.7,0.6-0.8c0.4,0,0.7,0.2,0.8,0.6c0.1,1.2,0.2,2.5,0.3,3.8c0,0.4-0.3,0.7-0.7,0.7c0,0,0,0,0,0
			C262.3,125.1,262,124.9,262,124.5z M1.1,121c-0.4,0-0.7-0.4-0.6-0.8c0.1-1.2,0.2-2.5,0.4-3.7c0-0.4,0.4-0.7,0.8-0.6
			c0.4,0,0.7,0.4,0.6,0.8c-0.1,1.2-0.3,2.5-0.4,3.7C1.9,120.8,1.6,121,1.1,121C1.2,121,1.2,121,1.1,121L1.1,121z M261.4,117.1
			c-0.1-1.2-0.3-2.5-0.5-3.7c0-0.4,0.2-0.7,0.6-0.8s0.7,0.2,0.8,0.6c0.2,1.2,0.3,2.5,0.5,3.7c0,0.4-0.2,0.7-0.6,0.8c0,0,0,0-0.1,0
			C261.7,117.7,261.4,117.4,261.4,117.1L261.4,117.1z M1.9,113.6c-0.4-0.1-0.7-0.4-0.6-0.8c0.2-1.2,0.4-2.5,0.6-3.7
			c0.1-0.4,0.4-0.6,0.8-0.6s0.6,0.4,0.6,0.8c-0.2,1.2-0.4,2.4-0.6,3.7c0,0.3-0.3,0.6-0.7,0.6C2,113.6,2,113.6,1.9,113.6L1.9,113.6z
			 M260.3,109.7c-0.2-1.2-0.4-2.4-0.7-3.7c-0.1-0.4,0.2-0.8,0.5-0.8c0.4-0.1,0.8,0.2,0.8,0.6c0.2,1.2,0.5,2.5,0.7,3.7
			c0.1,0.4-0.2,0.7-0.6,0.8c0,0-0.1,0-0.1,0C260.7,110.3,260.4,110,260.3,109.7L260.3,109.7z M3.2,106.2c-0.4-0.1-0.6-0.4-0.5-0.8
			c0.2-1.2,0.5-2.4,0.8-3.7c0.1-0.4,0.5-0.6,0.8-0.5c0.4,0.1,0.6,0.5,0.5,0.8c-0.3,1.2-0.5,2.4-0.8,3.6c-0.1,0.3-0.4,0.6-0.7,0.6
			C3.3,106.2,3.2,106.2,3.2,106.2z M258.9,102.4c-0.3-1.2-0.6-2.4-0.9-3.6c-0.1-0.4,0.1-0.8,0.5-0.8c0.4-0.1,0.8,0.1,0.9,0.5
			c0.3,1.2,0.6,2.4,0.9,3.7c0.1,0.4-0.1,0.8-0.5,0.8c0,0-0.1,0-0.2,0C259.2,102.9,258.9,102.7,258.9,102.4z M4.8,98.9
			c-0.4-0.1-0.6-0.5-0.5-0.9c0.3-1.2,0.7-2.4,1-3.6c0.1-0.4,0.5-0.6,0.9-0.5s0.6,0.5,0.5,0.9c-0.3,1.2-0.7,2.4-1,3.6
			c-0.1,0.3-0.4,0.5-0.7,0.5C5,98.9,4.9,98.9,4.8,98.9L4.8,98.9z M257,95.2c-0.3-1.2-0.7-2.4-1.1-3.6c-0.1-0.4,0.1-0.8,0.4-0.9
			c0.4-0.1,0.8,0.1,0.9,0.4c0.4,1.2,0.8,2.4,1.1,3.6c0.1,0.4-0.1,0.8-0.5,0.9c-0.1,0-0.1,0-0.2,0C257.3,95.7,257.1,95.5,257,95.2
			L257,95.2z M6.9,91.7c-0.4-0.1-0.6-0.5-0.5-0.9c0.4-1.2,0.8-2.4,1.2-3.6c0.1-0.4,0.5-0.6,0.9-0.4C9,87,9.1,87.4,9,87.8
			c-0.4,1.2-0.8,2.3-1.2,3.5c-0.1,0.3-0.4,0.5-0.7,0.5C7.1,91.8,7,91.8,6.9,91.7L6.9,91.7z M254.7,88.1c-0.4-1.2-0.9-2.3-1.3-3.5
			c-0.1-0.4,0-0.8,0.4-0.9c0.4-0.1,0.8,0,0.9,0.4c0.5,1.2,0.9,2.4,1.3,3.5c0.1,0.4-0.1,0.8-0.4,0.9c-0.1,0-0.2,0-0.2,0
			C255.1,88.5,254.8,88.4,254.7,88.1L254.7,88.1z M9.4,84.7c-0.4-0.1-0.5-0.6-0.4-0.9c0.5-1.2,0.9-2.3,1.4-3.5
			c0.2-0.4,0.6-0.5,0.9-0.4c0.4,0.2,0.5,0.6,0.4,0.9c-0.5,1.1-1,2.3-1.4,3.4c-0.1,0.3-0.4,0.4-0.7,0.4C9.6,84.7,9.5,84.7,9.4,84.7z
			 M252,81.1c-0.5-1.1-1-2.3-1.5-3.4c-0.2-0.3,0-0.8,0.4-0.9s0.8,0,0.9,0.3c0.5,1.1,1,2.3,1.5,3.4c0.1,0.4,0,0.8-0.4,0.9
			c-0.1,0-0.2,0.1-0.3,0.1C252.4,81.6,252.1,81.4,252,81.1L252,81.1z M12.3,77.8c-0.3-0.2-0.5-0.6-0.3-0.9c0.5-1.1,1.1-2.3,1.6-3.4
			c0.2-0.3,0.6-0.5,0.9-0.3s0.5,0.6,0.3,0.9c-0.5,1.1-1.1,2.2-1.6,3.3c-0.1,0.3-0.4,0.4-0.6,0.4C12.5,77.8,12.4,77.8,12.3,77.8
			L12.3,77.8z M248.9,74.3c-0.5-1.1-1.1-2.2-1.7-3.3c-0.2-0.3,0-0.8,0.3-0.9c0.3-0.2,0.8-0.1,1,0.3c0.6,1.1,1.2,2.2,1.7,3.4
			c0.2,0.3,0,0.8-0.3,0.9c-0.1,0.1-0.2,0.1-0.3,0.1C249.2,74.7,249,74.6,248.9,74.3z M15.6,71.1c-0.3-0.2-0.5-0.6-0.3-0.9
			c0.6-1.1,1.2-2.2,1.8-3.3c0.2-0.3,0.6-0.4,1-0.3c0.3,0.2,0.5,0.6,0.3,0.9c-0.6,1.1-1.2,2.2-1.8,3.3c-0.1,0.2-0.4,0.4-0.6,0.4
			C15.8,71.1,15.7,71.1,15.6,71.1L15.6,71.1z M245.4,67.7c-0.6-1.1-1.2-2.2-1.9-3.2c-0.2-0.3-0.1-0.8,0.2-1s0.8-0.1,1,0.2
			c0.6,1.1,1.3,2.2,1.9,3.3c0.2,0.3,0.1,0.8-0.3,0.9c-0.1,0.1-0.2,0.1-0.3,0.1C245.8,68.1,245.5,68,245.4,67.7L245.4,67.7z
			 M19.2,64.5c-0.3-0.2-0.4-0.6-0.2-1c0.7-1.1,1.3-2.1,2-3.2c0.2-0.3,0.6-0.4,1-0.2c0.3,0.2,0.4,0.6,0.2,1c-0.7,1-1.3,2.1-2,3.2
			c-0.1,0.2-0.4,0.3-0.6,0.3C19.5,64.7,19.3,64.6,19.2,64.5L19.2,64.5z M241.5,61.3c-0.7-1-1.4-2.1-2.1-3.1c-0.2-0.3-0.1-0.8,0.2-1
			s0.8-0.1,1,0.2c0.7,1,1.4,2.1,2.1,3.1c0.2,0.3,0.1,0.8-0.2,1c-0.1,0.1-0.2,0.1-0.4,0.1C241.9,61.7,241.7,61.6,241.5,61.3
			L241.5,61.3z M23.2,58.2c-0.3-0.2-0.4-0.7-0.2-1c0.7-1,1.4-2.1,2.2-3.1c0.2-0.3,0.7-0.4,1-0.2c0.3,0.2,0.4,0.7,0.2,1
			c-0.7,1-1.5,2-2.2,3c-0.1,0.2-0.3,0.3-0.6,0.3C23.5,58.4,23.4,58.3,23.2,58.2L23.2,58.2z M237.3,55.2c-0.7-1-1.5-2-2.2-3
			c-0.2-0.3-0.2-0.8,0.1-1c0.3-0.2,0.7-0.2,1,0.1c0.8,1,1.5,2,2.3,3c0.2,0.3,0.2,0.8-0.1,1c-0.1,0.1-0.3,0.1-0.4,0.1
			C237.7,55.5,237.5,55.4,237.3,55.2L237.3,55.2z M27.6,52.2c-0.3-0.2-0.4-0.7-0.1-1c0.8-1,1.5-2,2.3-2.9c0.2-0.3,0.7-0.3,1-0.1
			c0.3,0.2,0.3,0.7,0.1,1c-0.8,1-1.6,1.9-2.3,2.9c-0.1,0.2-0.3,0.3-0.6,0.3C27.9,52.3,27.7,52.3,27.6,52.2z M232.8,49.3
			c-0.8-1-1.6-1.9-2.4-2.8c-0.2-0.3-0.2-0.7,0.1-1c0.3-0.2,0.7-0.2,1,0.1c0.8,1,1.6,1.9,2.4,2.9c0.2,0.3,0.2,0.7-0.1,1
			c-0.1,0.1-0.3,0.2-0.4,0.2C233.1,49.5,232.9,49.5,232.8,49.3L232.8,49.3z M32.3,46.4c-0.3-0.2-0.3-0.7-0.1-1
			c0.8-0.9,1.7-1.9,2.5-2.8c0.3-0.3,0.7-0.3,1,0s0.3,0.7,0,1c-0.8,0.9-1.7,1.8-2.5,2.8c-0.1,0.2-0.3,0.2-0.5,0.2
			C32.6,46.5,32.5,46.5,32.3,46.4z M227.9,43.7c-0.8-0.9-1.7-1.8-2.6-2.7c-0.3-0.3-0.3-0.7,0-1c0.3-0.3,0.7-0.3,1,0
			c0.9,0.9,1.7,1.8,2.6,2.7c0.3,0.3,0.2,0.7,0,1c-0.1,0.1-0.3,0.2-0.5,0.2C228.2,43.9,228,43.8,227.9,43.7L227.9,43.7z M37.4,40.8
			c-0.3-0.3-0.3-0.7,0-1c0.9-0.9,1.8-1.8,2.7-2.7c0.3-0.3,0.7-0.3,1,0s0.3,0.7,0,1c-0.9,0.8-1.8,1.7-2.6,2.6C38.2,41,38,41,37.8,41
			S37.5,41,37.4,40.8L37.4,40.8z M222.7,38.3c-0.9-0.9-1.8-1.7-2.7-2.6c-0.3-0.3-0.3-0.7,0-1c0.3-0.3,0.7-0.3,1,0
			c0.9,0.8,1.8,1.7,2.7,2.6c0.3,0.3,0.3,0.7,0,1c-0.1,0.1-0.3,0.2-0.5,0.2S222.8,38.5,222.7,38.3z M42.7,35.6c-0.3-0.3-0.2-0.7,0-1
			c0.9-0.8,1.9-1.7,2.8-2.5c0.3-0.3,0.7-0.2,1,0.1c0.2,0.3,0.2,0.7-0.1,1c-0.9,0.8-1.9,1.7-2.8,2.5c-0.1,0.1-0.3,0.2-0.5,0.2
			C43,35.8,42.8,35.7,42.7,35.6z M217.2,33.3c-0.9-0.8-1.9-1.6-2.8-2.4c-0.3-0.2-0.3-0.7-0.1-1c0.2-0.3,0.7-0.3,1-0.1
			c1,0.8,1.9,1.6,2.9,2.4c0.3,0.2,0.3,0.7,0.1,1c-0.1,0.2-0.3,0.2-0.5,0.2C217.5,33.5,217.3,33.4,217.2,33.3L217.2,33.3z M48.3,30.7
			c-0.2-0.3-0.2-0.7,0.1-1c1-0.8,2-1.6,2.9-2.3c0.3-0.2,0.8-0.2,1,0.1c0.2,0.3,0.2,0.8-0.1,1c-1,0.8-2,1.5-2.9,2.3
			c-0.1,0.1-0.3,0.2-0.4,0.2C48.7,30.9,48.5,30.8,48.3,30.7L48.3,30.7z M211.5,28.6c-1-0.8-2-1.5-3-2.2c-0.3-0.2-0.4-0.7-0.1-1
			c0.2-0.3,0.7-0.4,1-0.1c1,0.7,2,1.5,3,2.3c0.3,0.2,0.4,0.7,0.1,1c-0.1,0.2-0.3,0.3-0.6,0.3C211.8,28.7,211.6,28.7,211.5,28.6
			L211.5,28.6z M54.3,26.1c-0.2-0.3-0.2-0.8,0.2-1c1-0.7,2-1.5,3.1-2.2c0.3-0.2,0.8-0.1,1,0.2s0.1,0.8-0.2,1c-1,0.7-2.1,1.4-3.1,2.1
			c-0.1,0.1-0.3,0.1-0.4,0.1C54.6,26.3,54.4,26.2,54.3,26.1L54.3,26.1z M205.5,24.2c-1-0.7-2.1-1.4-3.1-2.1c-0.3-0.2-0.4-0.6-0.2-1
			c0.2-0.3,0.6-0.4,1-0.2c1.1,0.7,2.1,1.4,3.1,2.1c0.3,0.2,0.4,0.6,0.2,1c-0.1,0.2-0.4,0.3-0.6,0.3
			C205.7,24.3,205.6,24.3,205.5,24.2L205.5,24.2z M60.4,21.8c-0.2-0.3-0.1-0.8,0.2-1c1.1-0.7,2.1-1.4,3.2-2c0.3-0.2,0.8-0.1,1,0.2
			s0.1,0.8-0.2,1c-1.1,0.6-2.1,1.3-3.2,2c-0.1,0.1-0.2,0.1-0.4,0.1C60.8,22.1,60.5,22,60.4,21.8L60.4,21.8z M199.2,20.2
			c-1.1-0.6-2.1-1.3-3.2-1.9c-0.3-0.2-0.4-0.6-0.3-1c0.2-0.3,0.6-0.5,0.9-0.3c1.1,0.6,2.2,1.2,3.2,1.9c0.3,0.2,0.4,0.6,0.2,1
			c-0.1,0.2-0.4,0.3-0.6,0.3C199.5,20.3,199.3,20.2,199.2,20.2L199.2,20.2z M66.8,17.9c-0.2-0.3-0.1-0.8,0.3-1
			c1.1-0.6,2.2-1.2,3.3-1.8c0.3-0.2,0.8-0.1,0.9,0.3s0.1,0.8-0.3,0.9c-1.1,0.6-2.2,1.2-3.3,1.8c-0.1,0.1-0.2,0.1-0.3,0.1
			C67.2,18.3,67,18.1,66.8,17.9L66.8,17.9z M192.8,16.5c-1.1-0.6-2.2-1.1-3.3-1.7c-0.4-0.2-0.5-0.6-0.3-0.9c0.2-0.4,0.6-0.5,0.9-0.3
			c1.1,0.6,2.2,1.1,3.3,1.7c0.3,0.2,0.5,0.6,0.3,1c-0.1,0.2-0.4,0.4-0.6,0.4C193,16.6,192.9,16.5,192.8,16.5L192.8,16.5z M73.4,14.4
			c-0.2-0.4,0-0.8,0.3-0.9c1.1-0.6,2.3-1.1,3.4-1.6c0.3-0.2,0.8,0,0.9,0.4s0,0.8-0.3,0.9c-1.1,0.5-2.3,1.1-3.4,1.6
			c-0.1,0.1-0.2,0.1-0.3,0.1C73.8,14.8,73.6,14.6,73.4,14.4L73.4,14.4z M186.1,13.2c-1.1-0.5-2.3-1-3.4-1.5
			c-0.4-0.1-0.5-0.6-0.4-0.9c0.1-0.4,0.6-0.5,0.9-0.4c1.1,0.5,2.3,1,3.4,1.5c0.4,0.2,0.5,0.6,0.3,0.9c-0.1,0.3-0.4,0.4-0.6,0.4
			C186.3,13.3,186.2,13.2,186.1,13.2L186.1,13.2z M80.2,11.2c-0.2-0.4,0-0.8,0.4-0.9c1.2-0.5,2.3-1,3.5-1.4c0.4-0.1,0.8,0,0.9,0.4
			c0.1,0.4,0,0.8-0.4,0.9c-1.2,0.4-2.3,0.9-3.5,1.4c-0.1,0-0.2,0.1-0.3,0.1C80.6,11.6,80.4,11.5,80.2,11.2z M179.3,10.3
			c-1.1-0.4-2.3-0.9-3.5-1.3c-0.4-0.1-0.6-0.5-0.4-0.9c0.1-0.4,0.5-0.5,0.9-0.4c1.2,0.4,2.4,0.9,3.5,1.3c0.4,0.1,0.5,0.6,0.4,0.9
			c-0.1,0.3-0.4,0.4-0.6,0.4C179.4,10.4,179.3,10.3,179.3,10.3L179.3,10.3z M87.2,8.5c-0.1-0.4,0.1-0.8,0.4-0.9
			c1.2-0.4,2.4-0.8,3.6-1.2c0.4-0.1,0.8,0.1,0.9,0.4c0.1,0.4-0.1,0.8-0.4,0.9c-1.2,0.4-2.4,0.8-3.5,1.2c-0.1,0-0.2,0-0.2,0
			C87.6,8.9,87.3,8.7,87.2,8.5z M172.2,7.8c-1.2-0.4-2.4-0.8-3.6-1.1c-0.4-0.1-0.6-0.5-0.5-0.9s0.5-0.6,0.9-0.5
			c1.2,0.3,2.4,0.7,3.6,1.1c0.4,0.1,0.6,0.5,0.4,0.9c-0.1,0.3-0.4,0.5-0.7,0.5C172.4,7.8,172.3,7.8,172.2,7.8L172.2,7.8z M94.3,6.1
			c-0.1-0.4,0.1-0.8,0.5-0.9c1.2-0.3,2.4-0.7,3.6-1c0.4-0.1,0.8,0.1,0.9,0.5c0.1,0.4-0.1,0.8-0.5,0.8c-1.2,0.3-2.4,0.6-3.6,1
			c-0.1,0-0.1,0-0.2,0C94.7,6.6,94.4,6.4,94.3,6.1L94.3,6.1z M165.1,5.7c-1.2-0.3-2.4-0.6-3.6-0.9c-0.4-0.1-0.6-0.5-0.5-0.8
			s0.5-0.6,0.8-0.5c1.2,0.3,2.4,0.6,3.6,0.9c0.4,0.1,0.6,0.5,0.5,0.9c-0.1,0.3-0.4,0.5-0.7,0.5C165.2,5.7,165.2,5.7,165.1,5.7
			L165.1,5.7z M101.6,4.2c-0.1-0.4,0.1-0.8,0.5-0.8c1.2-0.3,2.5-0.5,3.7-0.8c0.4-0.1,0.8,0.2,0.8,0.5s-0.2,0.8-0.6,0.8
			c-1.2,0.2-2.4,0.5-3.6,0.8c-0.1,0-0.1,0-0.2,0C101.9,4.7,101.6,4.5,101.6,4.2L101.6,4.2z M157.8,4c-1.2-0.2-2.4-0.5-3.7-0.7
			c-0.4-0.1-0.6-0.4-0.6-0.8c0.1-0.4,0.4-0.6,0.8-0.6c1.2,0.2,2.5,0.5,3.7,0.7c0.4,0.1,0.6,0.5,0.6,0.8C158.6,3.8,158.3,4,158,4
			C157.9,4,157.9,4,157.8,4L157.8,4z M108.9,2.7c-0.1-0.4,0.2-0.7,0.6-0.8c1.2-0.2,2.5-0.4,3.7-0.6c0.4,0,0.7,0.2,0.8,0.6
			c0.1,0.4-0.2,0.7-0.6,0.8c-1.2,0.2-2.5,0.4-3.7,0.6c0,0-0.1,0-0.1,0C109.3,3.3,109,3,108.9,2.7L108.9,2.7z M150.5,2.7
			c-1.2-0.2-2.5-0.3-3.7-0.5c-0.4,0-0.7-0.4-0.6-0.8c0-0.4,0.4-0.7,0.8-0.6c1.2,0.1,2.5,0.3,3.7,0.5c0.4,0,0.6,0.4,0.6,0.8
			C151.2,2.5,150.9,2.7,150.5,2.7C150.6,2.7,150.5,2.7,150.5,2.7L150.5,2.7z M116.3,1.6c0-0.4,0.2-0.7,0.6-0.8
			c1.2-0.1,2.5-0.3,3.7-0.4c0.4,0,0.7,0.2,0.8,0.6c0,0.4-0.2,0.7-0.6,0.8c-1.2,0.1-2.5,0.2-3.7,0.4c0,0-0.1,0-0.1,0
			C116.7,2.2,116.4,2,116.3,1.6L116.3,1.6z M143.1,1.9c-1.2-0.1-2.5-0.2-3.7-0.3c-0.4,0-0.7-0.4-0.7-0.7c0-0.4,0.4-0.7,0.7-0.7
			c1.2,0.1,2.5,0.2,3.8,0.3c0.4,0,0.7,0.4,0.6,0.8C143.8,1.6,143.5,1.9,143.1,1.9C143.2,1.9,143.1,1.9,143.1,1.9z M123.8,0.9
			c0-0.4,0.3-0.7,0.7-0.7c1.2-0.1,2.5-0.1,3.8-0.2c0.4,0,0.7,0.3,0.7,0.7s-0.3,0.7-0.7,0.7c-1.2,0-2.5,0.1-3.7,0.1c0,0,0,0,0,0
			C124.1,1.6,123.8,1.3,123.8,0.9L123.8,0.9z M135.7,1.5c-1.2,0-2.5-0.1-3.7-0.1c-0.4,0-0.7-0.3-0.7-0.7S131.6,0,132,0l0,0
			c1.2,0,2.5,0,3.8,0.1c0.4,0,0.7,0.3,0.7,0.7C136.4,1.2,136.1,1.5,135.7,1.5C135.7,1.5,135.7,1.5,135.7,1.5L135.7,1.5z"/>
	</g>
</g>
</svg>
