<?xml version="1.0" encoding="UTF-8"?>
<svg id="_圖層_2" data-name="圖層 2" xmlns="http://www.w3.org/2000/svg" width="354.06" height="247.64" xmlns:xlink="http://www.w3.org/1999/xlink" viewBox="0 0 354.06 247.64">
  <defs>
    <clipPath id="clippath">
      <path d="m192.6,109.38l12.39,42.27L25.76,209.14C.06,198.04-4.63,180.85,10.7,157.77l181.9-48.4Z" style="clip-rule: evenodd; fill: #e28a2b; stroke-width: 0px;"/>
    </clipPath>
    <clipPath id="clippath-1">
      <circle cx="233.85" cy="120.27" r="97.92" transform="translate(-16.55 200.58) rotate(-45)" style="fill: #fff; stroke-width: 0px;"/>
    </clipPath>
    <clipPath id="clippath-2">
      <rect x="120.7" y="142.01" width="130.49" height="50.03" style="fill: none; stroke-width: 0px;"/>
    </clipPath>
    <clipPath id="clippath-3">
      <rect x="268.68" y="202.62" width="75.27" height="59.56" style="fill: none; stroke-width: 0px;"/>
    </clipPath>
    <clipPath id="clippath-4">
      <path d="m308.98,218.99c1.18-.59.2-4.54.2-4.54,11.24-5.06,20.45-6.44,20.45-6.44,0,0-2.17,19.13-14.07,36.16,0,0-3.88-1.45-4.67-.53-.85.85,2.37,3.68,2.37,3.68-1.31,1.64-2.63,3.22-4.14,4.8-17.62,18.28-43.26,22.09-43.26,22.09,0,0,1.18-10.32,6.51-22.55,0,0,4.86,1.05,5.39-.13.46-1.12-2.17-6.51-2.17-6.51,2.76-5.06,6.31-10.26,10.78-14.92,5.85-6.05,12.56-10.52,18.93-13.81,0,0,2.5,3.29,3.68,2.7Z" style="fill: none; stroke-width: 0px;"/>
    </clipPath>
    <clipPath id="clippath-5">
      <path d="m308.98,218.99c1.18-.59.2-4.54.2-4.54,11.24-5.06,20.45-6.44,20.45-6.44,0,0-2.17,19.13-14.07,36.16,0,0-3.88-1.45-4.67-.53-.85.85,2.37,3.68,2.37,3.68-1.31,1.64-2.63,3.22-4.14,4.8-17.62,18.28-43.26,22.09-43.26,22.09,0,0,1.18-10.32,6.51-22.55,0,0,4.86,1.05,5.39-.13.46-1.12-2.17-6.51-2.17-6.51,2.76-5.06,6.31-10.26,10.78-14.92,5.85-6.05,12.56-10.52,18.93-13.81,0,0,2.5,3.29,3.68,2.7Z" style="fill: none; stroke-width: 0px;"/>
    </clipPath>
    <clipPath id="clippath-6">
      <path d="m337.18,251.33c-4.4-4.8-16.37,6.97-24.39,16.11,7.69-9.8,17.55-24.19,11.57-26.82-5.85-2.63-12.1,12.62-15.84,24.13,3.16-12.03,6.38-28.79-.13-28.86-10.19-.13-3.35,40.96-3.35,40.96,0,0,38.98-18.01,32.15-25.51Z" style="fill: none; stroke-width: 0px;"/>
    </clipPath>
    <clipPath id="clippath-7">
      <path d="m337.18,251.33c-4.4-4.8-16.37,6.97-24.39,16.11,7.69-9.8,17.55-24.19,11.57-26.82-5.85-2.63-12.1,12.62-15.84,24.13,3.16-12.03,6.38-28.79-.13-28.86-10.19-.13-3.35,40.96-3.35,40.96,0,0,38.98-18.01,32.15-25.51Z" style="fill: none; stroke-width: 0px;"/>
    </clipPath>
    <clipPath id="clippath-9">
      <rect x="201.63" y="56.94" width="138.71" height="205.24" style="fill: none; stroke-width: 0px;"/>
    </clipPath>
    <clipPath id="clippath-10">
      <rect x="88.68" y="190" width="45.89" height="72.18" style="fill: none; stroke-width: 0px;"/>
    </clipPath>
    <clipPath id="clippath-11">
      <path d="m138.65,272.11c-3.94-3.09-17.95-10.85-18.8-15.71-.59-3.48.53-7.23-.72-10.52-1.77-4.6-7.43-6.64-9.86-10.91-2.76-4.86.99-10.32-.26-15.71-.66-2.76-3.81-5.92-5.06-8.48-1.25-2.56-2.37-5.32-2.1-8.15.13-1.38.85-5.46,4.93-7.1,4.08-1.71,7.43.59,8.55,1.51,2.17,1.84,3.35,4.54,4.27,7.23.92,2.7.92,7.17,2.43,9.53,2.96,4.73,9.47,5.92,10.91,11.24,1.31,4.73-1.25,10.19.79,14.66,1.45,3.22,4.86,5.06,6.9,7.95,3.02,4.08-1.38,19.46-1.97,24.46Z" style="fill: none; stroke-width: 0px;"/>
    </clipPath>
    <clipPath id="clippath-12">
      <path d="m138.65,272.11c-3.94-3.09-17.95-10.85-18.8-15.71-.59-3.48.53-7.23-.72-10.52-1.77-4.6-7.43-6.64-9.86-10.91-2.76-4.86.99-10.32-.26-15.71-.66-2.76-3.81-5.92-5.06-8.48-1.25-2.56-2.37-5.32-2.1-8.15.13-1.38.85-5.46,4.93-7.1,4.08-1.71,7.43.59,8.55,1.51,2.17,1.84,3.35,4.54,4.27,7.23.92,2.7.92,7.17,2.43,9.53,2.96,4.73,9.47,5.92,10.91,11.24,1.31,4.73-1.25,10.19.79,14.66,1.45,3.22,4.86,5.06,6.9,7.95,3.02,4.08-1.38,19.46-1.97,24.46Z" style="fill: none; stroke-width: 0px;"/>
    </clipPath>
    <clipPath id="clippath-13">
      <path d="m100.19,271.12c1.25,0,2.37-.07,3.22-.33,1.84-.39,2.83-1.12,2.7-1.64-.13-.53-1.18-.79-2.83-1.05s-3.75-.66-6.05-1.25c-.92-.26-1.77-.53-2.63-.72-1.45-3.48-1.97-6.77-1.91-9.86.79.66,1.64,1.18,2.7,1.64,1.18.46,2.43.79,3.55.85,1.12.13,2.1.07,2.96-.07,1.64-.33,2.56-.99,2.5-1.45-.07-.53-1.05-.85-2.43-1.18-1.38-.39-3.22-.85-5.13-1.64-.99-.39-1.84-.72-2.76-1.12-.33-.13-.72-.26-1.05-.46.53-2.96,1.51-5.59,2.7-7.89.46.59.99,1.12,1.64,1.58.85.59,1.84,1.05,2.7,1.31s1.71.33,2.43.33c1.38-.07,2.17-.59,2.17-1.12s-.72-.99-1.64-1.51c-.99-.53-2.17-1.18-3.48-2.1-.72-.53-1.45-.99-2.1-1.38,2.7-4.08,5.46-6.44,5.46-6.44h0s3.68.33,8.15,2.1c-.33.72-.59,1.51-.92,2.37-.53,1.45-1.18,2.7-1.64,3.68s-.79,1.77-.46,2.24c.26.39,1.25.39,2.43-.33.59-.39,1.25-.92,1.77-1.64.59-.72,1.12-1.58,1.45-2.63.26-.72.39-1.51.46-2.24,2.3,1.18,4.6,2.76,6.71,4.93-.2.33-.39.59-.59.92-.53.79-1.05,1.64-1.64,2.5-1.12,1.71-2.37,3.16-3.29,4.27s-1.58,1.91-1.31,2.37c.2.46,1.31.46,2.89-.26.79-.33,1.64-.92,2.5-1.64.85-.72,1.71-1.64,2.37-2.76.59-.92.99-1.91,1.25-2.89,1.84,2.5,3.29,5.52,4.08,9.2-.53.66-1.12,1.38-1.71,2.1-1.51,1.84-3.09,3.35-4.21,4.54-1.18,1.12-1.91,1.97-1.71,2.43.2.46,1.45.46,3.16-.2.85-.33,1.84-.92,2.83-1.64.79-.59,1.58-1.31,2.3-2.1.46,14.07-12.75,13.35-12.75,13.35,0,0-10.32,8.15-18.08-3.62,1.25.33,2.3.46,3.29.46Z" style="fill: none; stroke-width: 0px;"/>
    </clipPath>
    <clipPath id="clippath-14">
      <path d="m100.19,271.12c1.25,0,2.37-.07,3.22-.33,1.84-.39,2.83-1.12,2.7-1.64-.13-.53-1.18-.79-2.83-1.05s-3.75-.66-6.05-1.25c-.92-.26-1.77-.53-2.63-.72-1.45-3.48-1.97-6.77-1.91-9.86.79.66,1.64,1.18,2.7,1.64,1.18.46,2.43.79,3.55.85,1.12.13,2.1.07,2.96-.07,1.64-.33,2.56-.99,2.5-1.45-.07-.53-1.05-.85-2.43-1.18-1.38-.39-3.22-.85-5.13-1.64-.99-.39-1.84-.72-2.76-1.12-.33-.13-.72-.26-1.05-.46.53-2.96,1.51-5.59,2.7-7.89.46.59.99,1.12,1.64,1.58.85.59,1.84,1.05,2.7,1.31s1.71.33,2.43.33c1.38-.07,2.17-.59,2.17-1.12s-.72-.99-1.64-1.51c-.99-.53-2.17-1.18-3.48-2.1-.72-.53-1.45-.99-2.1-1.38,2.7-4.08,5.46-6.44,5.46-6.44h0s3.68.33,8.15,2.1c-.33.72-.59,1.51-.92,2.37-.53,1.45-1.18,2.7-1.64,3.68s-.79,1.77-.46,2.24c.26.39,1.25.39,2.43-.33.59-.39,1.25-.92,1.77-1.64.59-.72,1.12-1.58,1.45-2.63.26-.72.39-1.51.46-2.24,2.3,1.18,4.6,2.76,6.71,4.93-.2.33-.39.59-.59.92-.53.79-1.05,1.64-1.64,2.5-1.12,1.71-2.37,3.16-3.29,4.27s-1.58,1.91-1.31,2.37c.2.46,1.31.46,2.89-.26.79-.33,1.64-.92,2.5-1.64.85-.72,1.71-1.64,2.37-2.76.59-.92.99-1.91,1.25-2.89,1.84,2.5,3.29,5.52,4.08,9.2-.53.66-1.12,1.38-1.71,2.1-1.51,1.84-3.09,3.35-4.21,4.54-1.18,1.12-1.91,1.97-1.71,2.43.2.46,1.45.46,3.16-.2.85-.33,1.84-.92,2.83-1.64.79-.59,1.58-1.31,2.3-2.1.46,14.07-12.75,13.35-12.75,13.35,0,0-10.32,8.15-18.08-3.62,1.25.33,2.3.46,3.29.46Z" style="fill: none; stroke-width: 0px;"/>
    </clipPath>
    <clipPath id="clippath-15">
      <path d="m240.15,205.05h-36.88c-45.43,0-82.57-37.14-82.57-82.57V32.03h119.45c45.43,0,82.57,37.14,82.57,82.57v90.39l-82.57.07h0Z" style="fill: none; stroke-width: 0px;"/>
    </clipPath>
  </defs>
  <g id="_第一cut" data-name="第一cut">
    <g id="activity_competition6">
      <path d="m23.79,216.29c-25.68-11.04-30.37-28.24-15.04-51.32l103.32-27.51c-4.72-55.76,30.23-109.06,85.98-125.41,63.66-18.67,130.51,17.86,149.17,81.52,18.68,63.67-17.85,130.51-81.53,149.18-55.75,16.36-113.95-9.64-140.08-59.11l-101.82,32.64Zm123.45-39.58c22.13,38.03,68.09,57.6,112.18,44.67,51.87-15.2,81.63-69.65,66.41-121.52-15.2-51.86-69.65-81.62-121.52-66.41-44.09,12.93-72.21,54.22-70.29,98.18l13.22,45.08Z" style="fill: rgba(226, 138, 43, .5); fill-rule: evenodd; opacity: .5; stroke-width: 0px;"/>
      <g>
        <g>
          <path d="m192.6,109.38l12.39,42.27L25.76,209.14C.06,198.04-4.63,180.85,10.7,157.77l181.9-48.4Z" style="fill: #e28a2b; fill-rule: evenodd;"/>
          <g style="clip-path: url(#clippath);">
            <g>
              <rect x="-25.4" y="136.64" width="73.43" height="97.74" transform="translate(-51.74 10.68) rotate(-16.34)" style="fill: #e9a760; stroke-width: 0px;"/>
              <path d="m23.73,166.63s-3.34,1.67-5.57,4.32c-1.08,1.29-2,2.84-1.39,4.61.53,1.56-.31,3.24-1.86,3.77-1.55.53-3.24-.3-3.77-1.86-1.33-3.9.08-7.49,2.47-10.34,2.98-3.55,7.45-5.81,7.45-5.81,1.46-.73,3.25-.14,3.99,1.32.74,1.47.15,3.26-1.32,3.99Z" style="fill: #ffe6ca; fill-rule: evenodd; stroke-width: 0px;"/>
            </g>
          </g>
        </g>
        <path d="m98.16,147.84l-32.64,9.84c-1.57.47-3.23-.42-3.71-1.99-.47-1.57.42-3.23,1.99-3.7l32.64-9.84c1.57-.47,3.23.42,3.7,1.99.47,1.57-.42,3.23-1.99,3.7Z" style="fill: #ffe6ca; fill-rule: evenodd; stroke-width: 0px;"/>
        <circle cx="234.64" cy="121.42" r="113.71" style="fill: #ffeed4; stroke-width: 0px;"/>
        <g>
          <circle cx="233.85" cy="120.27" r="97.92" transform="translate(-16.55 200.58) rotate(-45)" style="fill: #fff;"/>
          <g style="clip-path: url(#clippath-1);">
            <g>
              <g>
                <rect x="86.38" y="4.35" width="257.83" height="257.83" style="fill: #dcdfe6; stroke-width: 0px;"/>
                <path d="m124.91,141.88V44.06c0-2.89,2.3-5.19,5.19-5.19h154.23c2.89,0,5.19,2.3,5.19,5.19v97.76c0,2.89-2.3,5.19-5.19,5.19h-154.23c-2.83,0-5.19-2.3-5.19-5.13Z" style="fill: #fc9e16; stroke-width: 0px;"/>
                <path d="m280.71,143.19h-146.93c-2.76,0-5-2.24-5-5V47.74c0-2.76,2.24-5,5-5h146.93c2.76,0,5,2.24,5,5v90.46c0,2.76-2.24,5-5,5Z" style="fill: #2d7a52; stroke-width: 0px;"/>
                <path d="m300.63,153.18H114.39c-1.31,0-2.37-1.05-2.37-2.37v-1.38c0-1.31,1.05-2.37,2.37-2.37h186.24c1.31,0,2.37,1.05,2.37,2.37v1.38c0,1.25-1.05,2.37-2.37,2.37Z" style="fill: #ff8f1b; stroke-width: 0px;"/>
                <path d="m150.35,142.27v3.94h-16.96v-3.94c0-.66.53-1.18,1.18-1.18h14.59c.66,0,1.18.53,1.18,1.18Z" style="fill: #ff5634; stroke-width: 0px;"/>
                <rect x="133.39" y="144.24" width="16.96" height="1.97" style="fill: #db1e05; stroke-width: 0px;"/>
                <path d="m171.58,142.27v3.94h-16.96v-3.94c0-.66.53-1.18,1.18-1.18h14.59c.66,0,1.18.53,1.18,1.18Z" style="fill: #fff4e0; stroke-width: 0px;"/>
                <rect x="154.62" y="144.24" width="16.96" height="1.97" style="fill: #ffe1b9; stroke-width: 0px;"/>
                <path d="m182.63,146.22l-15.71-6.44,1.45-3.48c.26-.72,1.12-1.05,1.84-.79l13.15,5.39c.72.26,1.05,1.12.79,1.84l-1.51,3.48Z" style="fill: #070018; stroke-width: 0px;"/>
                <g style="clip-path: url(#clippath-2);">
                  <path d="m234.1,190.79c-.2-2.24-2.04-5.19-4.27-8.02l-27.81.26c-2.43,2.83-4.21,5.52-3.94,7.23.79,4.54,36.62,6.38,36.03.53Z" style="fill: #007a7b; stroke-width: 0px;"/>
                  <path d="m221.41,173.63l-.66-25.57-8.02.33-.33,24.59s-6.11,5.13-10.39,10.06l27.81-.26c-3.68-4.8-8.41-9.14-8.41-9.14Z" style="fill: #eaedf5; stroke-width: 0px;"/>
                  <polygon points="211.09 146.41 211.22 149.44 222.6 149.77 222.4 146.48 211.09 146.41" style="fill: #fff; stroke-width: 0px;"/>
                  <path d="m214.9,173.3c-.13.07-.2.13-.39.13-.33,0-.59-.26-.59-.66l.2-21.56c0-.33.26-.59.66-.59.33,0,.59.26.59.66l-.2,21.56c0,.2-.13.33-.26.46Z" style="fill: #fff; stroke-width: 0px;"/>
                  <path d="m201.16,188.82c-.26.2-.59.13-.79-.07-.26-.26-.26-.66,0-.85l11.96-12.16c.26-.26.66-.26.85,0,.26.26.26.66,0,.85l-11.9,12.16q-.07.07-.13.07Z" style="fill: #fff; stroke-width: 0px;"/>
                  <path d="m206.69,187.11c-.39.79-.13,1.71.66,2.17.79.39,1.71.13,2.17-.66.39-.79.13-1.71-.66-2.17-.79-.46-1.77-.13-2.17.66Z" style="fill: #eaedf5; stroke-width: 0px;"/>
                  <path d="m213.72,189.21c-.33.66-.07,1.51.59,1.84s1.51.07,1.84-.59.07-1.51-.59-1.84c-.66-.33-1.51-.07-1.84.59Z" style="fill: #eaedf5; stroke-width: 0px;"/>
                  <path d="m221.81,185.73c-.33.59-.07,1.38.53,1.71.59.33,1.38.07,1.71-.53s.07-1.38-.53-1.71-1.38-.07-1.71.53Z" style="fill: #eaedf5; stroke-width: 0px;"/>
                  <path d="m226.54,179.35c1.25-2.17,5.98-5.46,11.18-6.05,5.19-.53,7.43,5.72,7.36,9.93-.13,4.21-3.94,9.34-10.45,8.61s-7.56-3.35-8.48-6.9c-.92-3.48.39-5.59.39-5.59Z" style="fill: #d60; stroke-width: 0px;"/>
                  <path d="m228.71,179.87c.59-1.38,2.3-1.58,2.89-.99s.39,3.42-1.45,3.42-1.45-2.43-1.45-2.43Z" style="fill: #fff; stroke-width: 0px;"/>
                  <path d="m227.86,173.3v-.59s1.84-.26,3.88.99c2.04,1.25,2.3,2.43,2.3,2.43l-.53.2s-.85-1.91-3.02-2.5c-2.17-.53-2.63-.53-2.63-.53Z" style="fill: #003e5c; stroke-width: 0px;"/>
                  <path d="m231.8,172.45s1.31-1.77,2.89-3.75c1.58-2.04,6.31-2.3,6.31-2.3,0,0,.13,4.6-3.02,5.85-3.09,1.25-6.18.2-6.18.2Z" style="fill: #fc9e16; stroke-width: 0px;"/>
                  <path d="m232.39,176.72c-.66,0-1.05-.2-1.12-.2-.13-.07-.13-.2-.13-.26.07-.13.2-.13.26-.13h0c.07,0,.99.46,2.43-.2s1.71-1.38,1.71-1.38c.07-.13.13-.2.26-.13.13.07.2.13.13.26,0,.07-.33.92-1.91,1.64-.59.33-1.18.39-1.64.39Z" style="fill: #fff; stroke-width: 0px;"/>
                  <path d="m229.7,173.04h-.39c-.13,0-.2-.13-.13-.26,0-.13.13-.2.26-.13,0,0,1.12.2,4.47-1.05,3.48-1.25,5.65-3.88,5.65-3.88.07-.07.2-.13.33,0,.07.07.13.2,0,.33-.07.13-2.24,2.7-5.85,4.01-2.43.79-3.75.99-4.34.99Z" style="fill: #003e5c; stroke-width: 0px;"/>
                  <path d="m141.28,183.56c-.92-1.64-4.47-4.08-8.35-4.54-3.88-.39-5.59,4.27-5.52,7.43.07,3.16,2.96,6.97,7.89,6.44,4.93-.53,5.65-2.5,6.38-5.19.59-2.63-.39-4.14-.39-4.14Z" style="fill: #ff8f1b; stroke-width: 0px;"/>
                  <path d="m139.63,183.95c-.46-1.05-1.71-1.18-2.17-.79-.46.46-.33,2.56,1.12,2.56s1.05-1.77,1.05-1.77Z" style="fill: #fff; stroke-width: 0px;"/>
                  <path d="m140.29,179.02v-.46s-1.38-.2-2.89.72c-1.51.92-1.71,1.84-1.71,1.84l.39.13s.66-1.45,2.24-1.84c1.58-.46,1.97-.39,1.97-.39Z" style="fill: #003e5c; stroke-width: 0px;"/>
                  <path d="m136.87,181.58c.46,0,.79-.13.79-.13.07-.07.13-.13.07-.2-.07-.07-.13-.13-.2-.07h0s-.79.33-1.84-.13c-1.05-.53-1.25-1.05-1.25-1.05,0-.07-.13-.13-.2-.13s-.13.13-.13.2c0,0,.2.66,1.45,1.25.53.2.99.26,1.31.26Z" style="fill: #fff; stroke-width: 0px;"/>
                  <polygon points="191.04 160.68 189.33 163.77 190.84 164.56 193.14 162.12 191.04 160.68" style="fill: #084a7c; stroke-width: 0px;"/>
                  <path d="m187.1,158.9s2.1.79,5.52,3.22c3.42,2.43,3.94,2.89,3.94,2.89,0,0,2.76-5.65-1.58-8.09-4.27-2.43-7.89,1.97-7.89,1.97Z" style="fill: #007a7b; stroke-width: 0px;"/>
                  <path d="m189.73,158.71s0-.07,0,0c-.13-.13-.13-.33,0-.46.07-.07.39-.39,1.25-.72.92-.33,2.1.07,2.17.07.13.07.26.2.2.39-.07.13-.2.26-.39.2,0,0-.99-.33-1.77-.07s-1.05.53-1.05.53c-.07.13-.26.13-.39.07Z" style="fill: #fff; stroke-width: 0px;"/>
                  <path d="m195.05,156.93s.53-2.56,1.51-2.04c1.05.53-1.05,2.3-1.05,2.3l-.46-.26Z" style="fill: #fff; stroke-width: 0px;"/>
                  <path d="m174.28,189.8s-3.35,4.08-4.73,3.42,1.77-5.19,1.77-5.19l2.96,1.77Z" style="fill: #fc9e16; stroke-width: 0px;"/>
                  <path d="m170.66,194.47c-.39.59-2.56-.46-3.16-.99s.79-1.05,2.1-.33c1.25.79,1.05,1.31,1.05,1.31Z" style="fill: #d60; stroke-width: 0px;"/>
                  <polygon points="174.74 161.66 176.38 164.75 177.89 163.97 177.1 160.74 174.74 161.66" style="fill: #084a7c; stroke-width: 0px;"/>
                  <path d="m171.12,163.97s1.77-1.31,5.72-2.83,4.6-1.71,4.6-1.71c0,0-3.22-5.39-7.56-3.16-4.47,2.24-2.76,7.69-2.76,7.69Z" style="fill: #007a7b; stroke-width: 0px;"/>
                  <path d="m176.25,163.97c-2.96,1.71-8.94,5.52-8.68,15.91.26,10.39,11.9,14.66,20.18,11.57,8.28-3.09,13.02-13.15,6.97-23.8-6.05-10.65-18.47-3.68-18.47-3.68Z" style="fill: #007a7b; stroke-width: 0px;"/>
                  <path d="m176.64,167.06c-2.7,1.51-7.76,6.9-5.65,14.13,1.91,6.57,7.36,9.73,14.73,7.89,7.43-1.91,10.06-7.89,7.69-15.38-2.43-7.56-9.53-10.65-16.76-6.64Z" style="fill: #fff; stroke-width: 0px;"/>
                  <path d="m172.11,161.6q-.07-.07-.13-.13c0-.07-.13-.53.13-1.45.26-.99,1.18-1.77,1.25-1.77.13-.13.33-.07.46.07.13.13.07.33-.07.46,0,0-.85.66-1.05,1.45-.2.79-.13,1.18-.13,1.18.07.2-.07.33-.26.39-.07-.13-.13-.2-.2-.2Z" style="fill: #fff; stroke-width: 0px;"/>
                  <path d="m173.82,156.27s-1.84-1.84-.85-2.43,1.31,2.17,1.31,2.17l-.46.26Z" style="fill: #fff; stroke-width: 0px;"/>
                  <path d="m173.55,154.37c-.07-.07-.13-.2-.07-.33s.2-.26.39-.2c.07,0,1.05.33,2.43-.53,1.38-.79,1.18-2.76,1.18-2.76,0-.13.07-.33.26-.33.07,0,3.48-.79,6.77-.79,4.34-.07,8.09,1.12,8.09,1.12.13.07.2.2.2.33,0,0-.07,1.05.66,2.7.72,1.58,2.17,1.91,2.17,1.91.2,0,.26.2.26.39s-.2.26-.39.26c-.07,0-1.77-.33-2.63-2.24-.59-1.31-.72-2.3-.72-2.76-.85-.26-4.08-1.05-7.69-1.05-2.7,0-5.52.53-6.38.72,0,.66-.07,2.3-1.45,3.09-1.64.99-2.89.59-2.96.59-.07-.13-.13-.13-.13-.13Z" style="fill: #fff; stroke-width: 0px;"/>
                  <path d="m182.36,172.05c.85.13,1.58-4.6.46-4.73-1.18-.13-1.31,4.6-.46,4.73Z" style="fill: #fc9e16; stroke-width: 0px;"/>
                  <path d="m192.42,178.43c.07-.99-3.88-1.51-4.08,0-.13,1.45,4.08.99,4.08,0Z" style="fill: #fc9e16; stroke-width: 0px;"/>
                  <path d="m172.24,177.97c.07,1.12,3.48,1.12,3.68-.39.13-1.51-3.75-.72-3.68.39Z" style="fill: #fc9e16; stroke-width: 0px;"/>
                  <path d="m182.23,183.88c-1.05-.2-1.64,3.29-.33,3.42,1.31.2,1.45-3.22.33-3.42Z" style="fill: #fc9e16; stroke-width: 0px;"/>
                  <path d="m182.56,178.03q0-.07,0,0l-7.89-7.49c-.13-.13-.13-.33,0-.46s.33-.13.46,0l7.89,7.49c.13.13.13.33,0,.46-.13.07-.33.07-.46,0Z" style="fill: #003e5c; stroke-width: 0px;"/>
                  <polygon points="188.61 172.18 183.48 177.84 182.82 176.92 188.02 171.33 188.61 172.18" style="fill: #003e5c; stroke-width: 0px;"/>
                  <path d="m181.9,178.3c.53,1.18,1.91.53,2.43-.33s-.39-1.84-1.64-1.64c-1.25.2-1.12,1.31-.79,1.97Z" style="fill: #003e5c; stroke-width: 0px;"/>
                  <path d="m170.6,171.46c-.13-.07-.13-.26-.07-.39.07-.13,1.31-2.83,4.14-4.54.13-.07.33-.07.39.13.07.13.07.33-.13.46-2.7,1.64-3.88,4.27-3.94,4.27-.07.13-.26.2-.39.13.07-.07,0-.07,0-.07Z" style="fill: #fff; stroke-width: 0px;"/>
                  <path d="m189.86,190.52s3.62,3.81,4.93,3.02c1.31-.79-2.17-5.06-2.17-5.06l-2.76,2.04Z" style="fill: #fc9e16; stroke-width: 0px;"/>
                  <path d="m193.87,194.93c.46.53,2.56-.66,3.09-1.25s-.92-.99-2.1-.13c-1.25.85-.99,1.38-.99,1.38Z" style="fill: #d60; stroke-width: 0px;"/>
                  <path d="m155.08,177.44s-.26,1.91-.85,1.91.2-2.1.2-2.1l.66.2Z" style="fill: #003e5c; stroke-width: 0px;"/>
                  <path d="m153.77,173.3l4.08,1.25s-2.63,3.75-3.35,3.55c-.66-.2-.72-4.8-.72-4.8Z" style="fill: #007a7b; stroke-width: 0px;"/>
                  <path d="m157.18,162.52l4.4,1.18s-1.31,4.47-2.43,7.63c-.92,2.7-1.31,3.29-1.31,3.29l-4.08-1.25s1.64-5.46,2.3-7.69c.66-2.3,1.12-3.16,1.12-3.16Z" style="fill: #fc9e16; stroke-width: 0px;"/>
                  <path d="m155.54,172.31h-.13c-.2-.07-.26-.2-.2-.39l2.3-8.15c.07-.2.2-.26.39-.2.2.07.26.2.2.39l-2.3,8.15c-.07.07-.13.13-.26.2Z" style="fill: #fff; stroke-width: 0px;"/>
                  <path d="m154.82,177.11h0c-.2,0-.33-.13-.33-.33l-.07-2.17c0-.2.13-.33.33-.33s.33.13.33.33l.07,2.17c-.07.13-.2.26-.33.33Z" style="fill: #fff; stroke-width: 0px;"/>
                  <path d="m157.18,162.52s2.83-7.49,3.48-9.14,2.83-2.3,4.21-.59c1.38,1.64-.99,5.26-1.91,10.26-.26,1.64.79,1.64.85,2.1,0,.39-1.12.33-1.45-1.12-.39-1.91,2.3-8.81,2.04-8.81s-2.83,8.41-2.83,8.41l-4.4-1.12Z" style="fill: #d60; stroke-width: 0px;"/>
                  <path d="m158.96,161.14h-.13c-.13-.07-.26-.26-.2-.39,0-.07,1.91-5.46,2.3-6.51.39-1.18,1.25-1.58,1.25-1.64.13-.07.33,0,.39.13s0,.33-.13.39c0,0-.66.33-.99,1.25-.39,1.05-2.3,6.44-2.3,6.51,0,.2-.07.26-.2.26Z" style="fill: #fff; stroke-width: 0px;"/>
                  <path d="m151.2,157.52s2.43-3.75,0-6.25c-2.43-2.56-2.1-2.1-2.1-2.1,0,0-.26,1.71-1.25,3.29s.33,4.54,1.51,5.26c1.25.66,1.84-.2,1.84-.2Z" style="fill: #007a7b; stroke-width: 0px;"/>
                  <path d="m155.21,189.41c1.05-.2-.53-20.64-1.91-26.1s-2.04-5.85-2.04-5.85l-1.38.39s-.66,4.4.26,10.52c.79,6.05,3.94,21.23,5.06,21.04Z" style="fill: #084a7c; stroke-width: 0px;"/>
                  <path d="m150.87,165.67c-.07.07-.13.07-.2.07-.13,0-.26-.13-.26-.26l-.33-6.71c0-.13.13-.26.26-.26s.26.13.26.26l.33,6.71c0,.07-.07.13-.07.2Z" style="fill: #0082bc; stroke-width: 0px;"/>
                  <path d="m154.56,185.99q-.07.07-.13.07c-.13,0-.33-.07-.33-.2l-3.55-17.68c0-.13.07-.33.2-.33s.33.07.33.2l3.55,17.68c.07.13,0,.2-.07.26Z" style="fill: #0082bc; stroke-width: 0px;"/>
                  <path d="m149.43,156.08c.66-.13.2-3.16-.79-3.09-.99,0-.39,3.35.79,3.09Z" style="fill: #fff; stroke-width: 0px;"/>
                  <path d="m149.23,178.63l-4.01-20.25-3.02.66-.53.72s3.35,17.82,3.94,19.39c.59,1.58,1.91,1.38,2.63,1.05.72-.33,1.05-1.12.99-1.58Z" style="fill: #d60; stroke-width: 0px;"/>
                  <path d="m145.22,159.69c-.39.99-1.51,1.45-2.5,1.05-.99-.39-1.45-1.51-1.05-2.5s1.51-1.45,2.5-1.05c.92.39,1.45,1.51,1.05,2.5Z" style="fill: #af5207; stroke-width: 0px;"/>
                  <path d="m144.76,165.28c.07-.13.13-.2.26-.26.2-.07.39.07.46.26l2.96,12.69c.07.2-.07.39-.26.46s-.39-.07-.46-.26l-2.96-12.69c-.07-.07-.07-.13,0-.2Z" style="fill: #fff; stroke-width: 0px;"/>
                  <polygon points="157.05 191.91 144.69 191.91 142.2 170.61 159.49 170.61 157.05 191.91" style="fill: #007a7b; stroke-width: 0px;"/>
                </g>
                <g style="clip-path: url(#clippath-3);">
                  <path d="m308.98,218.99c1.18-.59.2-4.54.2-4.54,11.24-5.06,20.45-6.44,20.45-6.44,0,0-2.17,19.13-14.07,36.16,0,0-3.88-1.45-4.67-.53-.85.85,2.37,3.68,2.37,3.68-1.31,1.64-2.63,3.22-4.14,4.8-17.62,18.28-43.26,22.09-43.26,22.09,0,0,1.18-10.32,6.51-22.55,0,0,4.86,1.05,5.39-.13.46-1.12-2.17-6.51-2.17-6.51,2.76-5.06,6.31-10.26,10.78-14.92,5.85-6.05,12.56-10.52,18.93-13.81,0,0,2.5,3.29,3.68,2.7Z" style="fill: #007a7b; stroke-width: 0px;"/>
                  <g style="clip-path: url(#clippath-4);">
                    <path d="m319.37,221.29c-.85-3.48-1.64-6.97-2.5-10.45-.26-.99-.46-1.97-.72-2.96-.07-.13-.26-.13-.26,0,.85,3.48,1.64,6.97,2.5,10.45.26.99.46,1.97.72,2.96,0,.2.26.13.26,0h0Z" style="fill: #999; stroke-width: 0px;"/>
                    <path d="m316.54,224.38c-1.97-4.67-3.88-9.4-5.85-14.07-.53-1.31-1.12-2.63-1.64-3.94-.07-.13-.26-.07-.2.07,1.97,4.67,3.88,9.4,5.85,14.07.53,1.31,1.12,2.63,1.64,3.94.07.2.26.07.2-.07h0Z" style="fill: #999; stroke-width: 0px;"/>
                    <path d="m315.29,226.02c4.34-.59,8.61-1.18,12.95-1.77.13,0,.13-.26,0-.26-4.34.59-8.61,1.18-12.95,1.77-.2,0-.13.26,0,.26h0Z" style="fill: #999; stroke-width: 0px;"/>
                    <path d="m311.41,230.17c-3.09-5.19-6.25-10.39-9.34-15.58-.85-1.45-1.77-2.96-2.63-4.4-.07-.13-.26,0-.2.13,3.09,5.19,6.25,10.39,9.34,15.58.85,1.45,1.77,2.89,2.63,4.4.07.2.26.07.2-.13h0Z" style="fill: #999; stroke-width: 0px;"/>
                    <path d="m305.69,236.48c4.93-.07,9.86-.46,14.73-1.05,1.38-.2,2.76-.39,4.14-.59.13,0,.13-.26,0-.26-4.86.72-9.8,1.25-14.73,1.51-1.38.07-2.83.13-4.21.13-.07,0-.07.26.07.26h0Z" style="fill: #999; stroke-width: 0px;"/>
                    <path d="m304.05,238.32c5.46-.07,10.91,0,16.37-.59,1.51-.2,3.02-.39,4.54-.66.13,0,.13-.26,0-.26-2.7.46-5.39.79-8.09.92-2.7.2-5.46.2-8.15.26-1.58,0-3.09.07-4.67.07-.2,0-.2.26,0,.26h0Z" style="fill: #999; stroke-width: 0px;"/>
                    <path d="m298.92,243.25c-2.63-5.79-5.32-11.64-7.95-17.42-.72-1.64-1.51-3.29-2.24-4.93-.07-.13-.26-.07-.2.07,2.63,5.79,5.32,11.64,7.95,17.42.72,1.64,1.51,3.29,2.24,4.93.07.13.26.07.2-.07h0Z" style="fill: #999; stroke-width: 0px;"/>
                    <path d="m284.79,256.72c-2.5-5.32-5-10.65-7.49-15.97-.72-1.51-1.38-3.02-2.1-4.47-.07-.13-.26-.07-.2.07,2.5,5.32,5,10.65,7.49,15.97.72,1.51,1.38,3.02,2.1,4.47.07.2.26.13.2-.07h0Z" style="fill: #999; stroke-width: 0px;"/>
                  </g>
                  <g style="clip-path: url(#clippath-5);">
                    <path d="m330.61,207.09c-4.6,6.64-9.66,12.89-14.92,19s-10.72,12.03-16.3,17.82c-2.83,2.83-5.65,5.72-8.55,8.55-1.45,1.38-2.89,2.83-4.34,4.21l-4.4,4.14-2.24,2.04-2.24,2.04-4.54,4.01c-3.02,2.63-6.11,5.26-9.2,7.89l-1.18-1.45c3.09-2.56,6.18-5.13,9.27-7.69l4.54-3.94,2.3-1.97,2.24-2.04,4.47-4.01c1.51-1.38,2.89-2.76,4.4-4.14,2.96-2.76,5.79-5.59,8.61-8.41,5.65-5.72,11.18-11.5,16.5-17.55,5.26-6.05,10.45-12.23,15.12-18.74l.46.26Z" style="fill: #009692; stroke-width: 0px;"/>
                  </g>
                  <path d="m337.18,251.33c-4.4-4.8-16.37,6.97-24.39,16.11,7.69-9.8,17.55-24.19,11.57-26.82-5.85-2.63-12.1,12.62-15.84,24.13,3.16-12.03,6.38-28.79-.13-28.86-10.19-.13-3.35,40.96-3.35,40.96,0,0,38.98-18.01,32.15-25.51Z" style="fill: #0e6a7c; stroke-width: 0px;"/>
                  <g style="clip-path: url(#clippath-6);">
                    <path d="m304.9,277.43c1.25-2.17,2.43-4.34,3.62-6.51s2.37-4.4,3.55-6.57,2.37-4.4,3.48-6.57c1.12-2.24,2.3-4.4,3.42-6.64s2.24-4.47,3.35-6.64c.13-.26.26-.59.39-.85.07-.13.07-.33-.07-.39s-.33-.07-.39.07c-1.12,2.24-2.24,4.47-3.35,6.64-1.12,2.24-2.3,4.47-3.42,6.64-1.12,2.24-2.3,4.4-3.48,6.57s-2.37,4.4-3.55,6.57-2.37,4.34-3.62,6.51c-.13.26-.33.53-.46.85-.2.33.33.66.53.33h0Z" style="fill: #009692; stroke-width: 0px;"/>
                  </g>
                  <g style="clip-path: url(#clippath-7);">
                    <path d="m305.36,276.45c.39-4.67.85-9.4,1.25-14.07s.85-9.34,1.25-14c.26-2.63.46-5.26.72-7.89.07-.39-.59-.39-.59,0-.39,4.67-.85,9.4-1.25,14.07s-.85,9.34-1.25,14c-.26,2.63-.46,5.26-.72,7.89,0,.33.59.39.59,0h0Z" style="fill: #009692; stroke-width: 0px;"/>
                  </g>
                </g>
                <g style="clip-path: url(#clippath-9);">
                  <path d="m226.61,128.4s-1.05,6.38-5.72,7.49c-3.81.92-7.36-2.7-8.55-4.14-.26-.33-.46-.53-.46-.53h-.72c-.99,0-2.76-.2-3.42-1.45-.99-1.71,2.56-2.89,2.56-2.89,0,0-1.84-1.64-1.38-2.83s2.89-1.38,2.89-1.38c0,0-2.63-1.71-1.77-3.22,1.31-2.24,4.08.2,4.27.33-.2-.2-3.62-3.75-1.71-4.34,1.64-.53,4.34,1.25,6.05,3.09l.46.46s.13-.07.26-.2c.85-.59,3.62-2.17,5.32-.72,2.1,1.71,1.91,10.32,1.91,10.32Z" style="fill: #ffa87f; stroke-width: 0px;"/>
                  <path d="m221.68,132.28c-.13.07-.26.07-.39,0-.2-.13-.2-.33-.13-.53.59-.92.79-1.84.59-2.76-.59-2.37-3.81-4.01-3.81-4.08-.2-.07-.26-.33-.13-.53.07-.2.33-.26.53-.13.13.07,3.48,1.84,4.21,4.54.33,1.12.07,2.3-.66,3.35-.07.07-.13.13-.2.13Z" style="fill: #ef6a3f; stroke-width: 0px;"/>
                  <path d="m218.45,123.14c0,.46-.2.79-.53.99-.07.07-.13.07-.26.13-.2.07-.39.13-.66.13.2.13.33.26.46.39.13.13.2.26.26.46.07.2.13.59-.2.92-.59.79-1.97,1.12-3.09,1.25.79.46,1.51,1.12,1.71,1.77.13.39.13.79-.13,1.12-.2.2-.46.39-.79.59-.85.39-2.17.72-3.02.85-.33-.33-.46-.53-.46-.53h-.72c.07-.07.13-.07.2-.07,1.38-.13,3.75-.66,4.21-1.25.07-.07.13-.2.07-.46-.26-.72-1.58-1.64-2.76-1.91-.2-.07-.33-.2-.26-.39,0-.2.2-.33.39-.33.92,0,3.42-.13,4.14-1.05.07-.13.07-.2.07-.26-.07-.2-.26-.33-.59-.53-.59-.33-1.51-.66-2.17-.85-.07,0-.13-.07-.2-.13-.07-.07-.13-.2-.07-.33.07-.2.26-.33.46-.26.13,0,.39.07.72.2.59.07,1.25.13,1.71.07.26,0,.46-.07.66-.2.07-.07.2-.13.2-.39,0-.33-.13-.72-.39-1.12-.07-.13-.07-.26,0-.39h0c.13-.2.46-.2.59.07.26.46.46,1.05.46,1.51Z" style="fill: #ef6a3f; stroke-width: 0px;"/>
                  <path d="m215.69,116.17c.66.39,1.18.79,1.71,1.25.53.53.85.79,1.25,1.12,0-.07,0,.07,0,0l-7.17-30.31c-.13-.46-.79-.33-.72.13l4.93,27.81h0Z" style="fill: #003e5c; stroke-width: 0px;"/>
                  <path d="m221.94,133c-2.5,1.58-3.16.39-3.16.39l-1.25-7.1.13-.13c.26-.39.26-.72.2-.92-.07-.13-.13-.33-.26-.46l-.26-.26v-.13c.2,0,.39-.07.53-.13.07-.07.2-.07.26-.13.2-.13.39-.33.46-.59.33.26.66.46,1.12.53h.33l1.91,8.94Z" style="fill: #003e5c; stroke-width: 0px;"/>
                  <path d="m224.11,121.89c-.07.07-1.18.99-2.43,1.64-.72.33-1.45.59-2.17.53-.59-.07-.99-.33-1.31-.79-1.18-1.58-.2-3.62.53-4.73l.46.46s.13-.07.26-.2c-.59.92-1.64,2.76-.66,4.08.2.26.46.46.85.46,1.31.13,3.35-1.38,4.01-1.97.13-.13.39-.13.53,0,.07.13.07.39-.07.53Z" style="fill: #ef6a3f; stroke-width: 0px;"/>
                  <path d="m262.3,114.53h0v.13l-.07.2-.07.46c-.07.13-.07.33-.13.53-.07.2-.07.33-.13.53-.13.72-.33,1.38-.53,2.1-.39,1.38-.79,2.83-1.25,4.21-.46,1.38-.99,2.76-1.51,4.14-.26.66-.59,1.38-.85,2.04-.26.66-.59,1.31-.92,1.97-.66,1.31-1.31,2.56-2.04,3.81-.2.33-.39.59-.53.92-.2.33-.39.59-.59.92-.39.59-.79,1.18-1.18,1.77-.79,1.18-1.71,2.24-2.56,3.35-.92,1.05-1.84,2.1-2.83,3.09l-.72.72-.79.72-.39.33-.07.07.07-.07.07-.07c.07-.07.2-.13.26-.2.39-.26.92-.53,1.38-.66.13,0,.2-.07.33-.07h1.25c.13.07-.13,0-.46-.13s-.79-.39-1.25-.66-.99-.59-1.51-.99c-1.05-.72-2.17-1.64-3.29-2.63s-2.24-1.97-3.35-3.02c-1.12-1.05-2.24-2.17-3.29-3.29-1.12-1.12-2.17-2.3-3.29-3.42-.53-.59-1.05-1.18-1.64-1.77l-1.58-1.71-11.96,9.01.39.59.39.59.79,1.12c.53.72,1.05,1.45,1.58,2.17,1.05,1.45,2.1,2.83,3.22,4.21,1.12,1.38,2.3,2.76,3.48,4.08.59.66,1.25,1.31,1.84,1.97l1.97,1.97c1.38,1.31,2.83,2.56,4.4,3.88.79.66,1.64,1.25,2.63,1.84.92.59,1.97,1.18,3.16,1.77s2.56,1.12,4.34,1.45l.33.07c.13,0,.26.07.33.07.26.07.46.07.72.07s.53.07.79.07h1.64c.26,0,.59-.07.92-.07.13,0,.33-.07.46-.07s.33-.07.46-.07c.33-.07.59-.13.92-.2,1.25-.33,2.56-.99,3.68-1.71.26-.2.53-.39.79-.59l.2-.13.2-.13.13-.13.53-.46,1.12-.99c.33-.33.72-.66,1.05-1.05,1.45-1.38,2.7-2.83,4.01-4.27,1.25-1.51,2.43-3.02,3.48-4.67,1.12-1.58,2.1-3.22,3.02-4.93l.66-1.25c.2-.39.46-.85.66-1.25.2-.39.46-.85.66-1.31l.59-1.31c1.58-3.48,2.83-7.03,3.81-10.65.46-1.84.92-3.62,1.25-5.52.2-.92.33-1.84.46-2.83,0-.26.07-.46.07-.72s.07-.46.07-.72.07-.53.07-.79l.07-.92-15.91-1.51Z" style="fill: #fff; stroke-width: 0px;"/>
                  <path d="m224.7,134.97c.07.59.53.99,1.12.92s.99-.53.92-1.12-.53-.99-1.12-.92c-.59,0-.99.53-.92,1.12Z" style="fill: #c2daf4; stroke-width: 0px;"/>
                  <path d="m246.2,152.72c.2,0,.39-.13.46-.33.85-3.29.72-7.49.72-7.63,0-.26-.2-.46-.46-.46s-.46.2-.46.46c0,.07.13,4.21-.72,7.43-.07.26.07.46.33.53,0,0,.07,0,.13,0Z" style="fill: #c2daf4; stroke-width: 0px;"/>
                  <path d="m249.02,149.5c.07,0,.13,0,.2-.07.2-.13.33-.39.2-.59-.07-.13-1.51-2.96-2.17-3.81-.13-.2-.46-.2-.59-.07-.2.13-.2.46-.07.59.59.79,2.04,3.62,2.04,3.68.07.2.2.26.39.26Z" style="fill: #c2daf4; stroke-width: 0px;"/>
                  <path d="m221.48,143.52c.13,0,.26-.07.33-.13,3.68-3.81,12.03-9.86,12.1-9.93.2-.13.26-.39.13-.59-.13-.2-.39-.26-.59-.13-.07.07-8.48,6.11-12.23,9.99-.2.2-.2.46,0,.59.07.2.2.2.26.2Z" style="fill: #c2daf4; stroke-width: 0px;"/>
                  <path d="m225.09,140.3c.13,0,.2-.07.26-.13.2-.13.2-.46.07-.59l-4.47-5.32c-.13-.2-.46-.2-.59-.07-.2.13-.2.46-.07.59l4.47,5.32c.07.13.2.2.33.2Z" style="fill: #c2daf4; stroke-width: 0px;"/>
                  <path d="m251.26,261.92v.2s.2.33.46.92c2.24,4.14,11.96,21.76,24.06,38.39,1.77,2.37,3.55,4.8,5.39,7.1.79.99,1.64,2.04,2.43,3.02,3.55,4.27,6.51,6.9,9.86,9.14.33.26.72.46,1.12.72.72.46,1.45.85,2.17,1.25.33.2.72.39,1.12.59,0,0,5.46-5.72,7.95-11.31,0,0-.72-1.18-1.84-3.02-.2-.39-.46-.79-.72-1.18-.79-1.25-1.64-2.76-2.63-4.4-4.4-7.36-10.32-17.42-12.49-22.09-1.64-3.42-3.55-7.23-5.65-10.91-.39-.72-.85-1.45-1.25-2.1-.07-.07-.07-.13-.13-.26-2.89-4.8-6.18-9.4-9.6-12.75l7.82-45.95.46-2.89-17.22-6.05-.99-.33-4.08-1.45s-.33,1.51-.85,4.08c-.07.33-.13.66-.2.99-2.37,11.7-7.49,41.22-5.19,58.31Z" style="fill: #003e5c; stroke-width: 0px;"/>
                  <path d="m266.9,256.79c.07.07,8.74,8.68,33.66,54.5.2.39.46.85.66,1.25l.59-.79c-.2-.39-.46-.85-.66-1.25-23.14-42.47-32.02-52.66-33.46-54.17,2.04-7.49,8.28-46.02,8.55-47.66.07-.26-.13-.46-.39-.53-.26-.07-.46.13-.53.39-.07.39-6.64,41.02-8.55,47.79,0,.13,0,.33.13.46Z" style="fill: #006b81; stroke-width: 0px;"/>
                  <path d="m308.06,187.17s1.31,12.29-1.51,19.13-39.05,3.35-48.25-2.83c-3.81-2.5,4.27-25.84,4.27-25.84l45.49,9.53Z" style="fill: #003e5c; stroke-width: 0px;"/>
                  <path d="m256.39,203.54c.53-.07,1.05-.26,1.58-.39.85-.26,1.64-.66,2.37-1.18.79-.53,1.51-1.12,2.1-1.71,4.01-4.01,5.19-10.12,5.19-10.39.07-.26-.13-.53-.39-.53-.26-.07-.53.13-.53.39,0,.07-1.25,6.38-5.26,10.26-.53.46-1.05.92-1.64,1.31-.72.46-1.45.85-2.3,1.05-.33.13-.66.2-.99.26,0,.2-.07.53-.13.92Z" style="fill: #006b81; stroke-width: 0px;"/>
                  <path d="m278.74,206.96c0,.26.2.46.46.46h0c.26,0,.46-.2.46-.39.07-1.71.2-3.42.26-5.13,0-.33.07-.59.07-.92.39-5.65.85-11.11,1.18-15.05,0-.33.07-.59.07-.92.07-.85.13-1.64.2-2.24-.33-.07-.59-.07-.92-.13-.07.66-.13,1.38-.2,2.3,0,.26-.07.59-.07.92-.33,3.88-.79,9.34-1.18,14.92,0,.33-.07.59-.07.92-.07,1.71-.2,3.48-.26,5.26Z" style="fill: #006b81; stroke-width: 0px;"/>
                  <path d="m277.36,201.04c.13.07.79.39,1.64.59.26.07.59.2.92.26.26.07.59.07.85.13.59,0,1.12,0,1.58-.26.59-.26.92-.79,1.05-1.45.33-1.71,1.05-8.87,1.51-13.94,0-.33.07-.59.07-.92.07-.79.13-1.58.2-2.17-.33-.07-.59-.07-.92-.13-.07.66-.13,1.38-.2,2.17,0,.26-.07.59-.07.92-.46,5.06-1.18,12.23-1.51,13.87-.07.39-.26.66-.59.79-.46.26-1.25.2-1.97,0-.33-.07-.66-.13-.92-.26-.53-.2-.99-.39-1.25-.53-.26-.13-.53,0-.59.2-.07.33,0,.59.2.72Z" style="fill: #006b81; stroke-width: 0px;"/>
                  <path d="m281.17,202.75v125.17l.13,1.97h13.81c.13-.92.46-2.37.92-4.27.07-.39.2-.85.33-1.31,1.77-7.63,4.86-20.71,5.46-32.08.72-16.04.53-37.08.53-37.08,1.58-12.03,4.08-38.13,5.26-51.47,0-.33.07-.66.07-.92.39-4.47.66-7.3.66-7.3-2.24-.92-6.25-.26-10.52.92-.33.07-.59.2-.92.26-7.63,2.3-15.71,6.11-15.71,6.11Z" style="fill: #003e5c; stroke-width: 0px;"/>
                  <path d="m293.73,325.69h.92c.07-.39.13-.85.26-1.31,1.25-6.51,3.48-18.6,4.6-26.49,1.64-10.98.85-41.42.85-42.6,1.25-10.45,3.75-46.35,3.75-46.74,0-.26-.2-.46-.46-.53-.26,0-.46.2-.53.46,0,.39-2.5,36.29-3.75,46.68v.07c0,.33.79,31.42-.79,42.47-1.18,7.95-3.42,20.18-4.67,26.62-.07.53-.13.99-.2,1.38Z" style="fill: #006b81; stroke-width: 0px;"/>
                  <path d="m294.32,189.8c.07.2.66,3.48,2.56,6.84,1.12,1.97,2.7,3.94,4.8,5.32,1.77,1.12,3.75,1.71,5.92,1.71,0-.33.07-.66.07-.92-2.04,0-3.88-.53-5.52-1.58-1.91-1.25-3.29-3.02-4.34-4.8-1.91-3.29-2.56-6.71-2.56-6.77-.07-.26-.26-.39-.53-.39-.26.07-.46.33-.39.59Z" style="fill: #006b81; stroke-width: 0px;"/>
                  <path d="m257.04,186.38c10.06,9.34,33.72,14.33,52,5.46,1.97-5.46,4.21-25.05,4.8-30.9.13-1.18.2-2.3.26-3.48.39-5.59.26-11.24,0-17.16,0-.33,0-.66-.07-.99-.26-4.86-.59-9.93-.92-15.25-.66-10.58-4.21-17.09-10.32-18.08-2.83-.46-5.13-1.25-6.77-2.04-.2-.07-.39-.2-.59-.26-1.97-.99-3.09-1.91-3.09-1.91h-13.67c-1.18,1.71-2.7,2.83-4.27,3.55-.2.07-.33.2-.53.26-4.86,2.1-10.52,1.71-11.7,7.56-.72,3.68,2.1,11.24,1.77,26.62,0,1.12-.07,2.3-.13,3.48-.07,1.12-.13,2.3-.2,3.55-.07,1.12-.2,2.3-.33,3.48-.13,1.05-.2,2.1-.33,3.22s-.26,2.3-.46,3.48c-.92,6.31-3.35,21.17-5.46,29.39Z" style="fill: #fff; stroke-width: 0px;"/>
                  <path d="m262.7,153.32c.2,0,.39-.2.46-.39.92-8.09.92-24.13.92-24.26,0-.26-.2-.46-.46-.46s-.46.2-.46.46c0,.13,0,16.17-.92,24.19,0,.2.2.46.46.46h0Z" style="fill: #c2daf4; stroke-width: 0px;"/>
                  <path d="m281.5,183.69c.07.59.53.99,1.12.92.59-.07.99-.53.92-1.12-.07-.59-.53-.99-1.12-.92-.53.07-.99.59-.92,1.12Z" style="fill: #c2daf4; stroke-width: 0px;"/>
                  <path d="m281.3,188.75c.07.59.53.99,1.12.92.59-.07.99-.53.92-1.12-.07-.59-.53-.99-1.12-.92-.53,0-.92.53-.92,1.12Z" style="fill: #c2daf4; stroke-width: 0px;"/>
                  <path d="m269.27,133.73c-2.7-3.16-1.71-10.06-1.64-10.39,0-.2.2-.39.46-.39h9.14c.2,0,.39.13.46.39.07.26,1.05,7.23-1.64,10.39-.85.99-1.97,1.51-3.35,1.51s-2.56-.53-3.42-1.51Zm-.79-9.86c-.2,1.45-.59,6.84,1.51,9.27.66.79,1.58,1.18,2.7,1.18s1.97-.39,2.7-1.18c2.1-2.43,1.64-7.82,1.51-9.27h-8.41Z" style="fill: #c2daf4; stroke-width: 0px;"/>
                  <path d="m291.62,85.01c-.13,1.51,2.24,1.18,3.48.39.53-.39.53-1.45.72-2.83.26-1.58-.33-.59,1.25-2.76,1.64-2.24.39-6.31-1.25-6.38,0,0,2.04-3.48-.85-6.18-2.63-2.43-4.93-.72-4.93-.72,0,0-.46-3.29-3.22-3.75-2.7-.46-4.86,2.04-4.86,2.04,0,0-1.77-2.5-5.06-1.31-3.22,1.18-2.24,3.62-2.24,3.62,0,0-3.22-.39-4.54,2.17-1.12,2.17.33,3.81.33,3.81,0,0-1.45.99-1.12,3.62.26,2.24,1.91,2.43,1.91,4.01,0,.85.2,1.91.33,2.63.13.59.66,1.58,1.18,1.58h0c.72,0,1.25-1.25,1.12-1.97-.13-1.25-.2-3.09.53-4.08,1.25-1.71.46-3.88,2.43-4.54,1.97-.59,8.48,2.7,13.15-.07,0,0-.26,2.7,1.38,3.48,1.64.79.92,2.89.59,4.67-.07.79-.33,2.5-.33,2.56Z" style="fill: #070018; stroke-width: 0px;"/>
                  <path d="m278.48,99.34v3.48c.39.33.79.59,1.25.85,6.05,3.62,12.56-.85,12.56-.85v-12.03l-12.16,7.56-1.64.99Z" style="fill: #ffa87f; stroke-width: 0px;"/>
                  <path d="m278.48,99.28v3.62c.39.33.79.59,1.25.85,5.13-2.04,8.87-7.43,8.87-7.43l-8.48,2.04-1.64.92Z" style="fill: #ff8769; stroke-width: 0px;"/>
                  <path d="m292.28,99.28s4.08.66,5.19,5.32c-3.94,4.14-7.49,7.76-13.15,8.81v-8.35c0,.07,5-1.18,7.95-5.79Z" style="fill: #fff; stroke-width: 0px;"/>
                  <path d="m278.34,100.53s-3.62.79-5.06,5.46c3.68,4.47,5.65,6.11,10.98,7.49v-8.35c.07,0-2.96-.07-5.92-4.6Z" style="fill: #fff; stroke-width: 0px;"/>
                  <g>
                    <g>
                      <polygon points="276.31 165.28 278.67 171 278.67 171 279.72 173.5 282.68 180.73 284.13 177.97 284.65 176.98 285.84 174.75 286.36 173.76 287.48 171.53 288.01 170.54 289.19 168.3 289.19 168.3 289.65 167.32 290.77 165.21 290.77 164.95 290.57 163.31 290.18 159.5 290.05 157.85 289.65 154.1 289.45 152.4 289.06 148.65 288.93 146.94 288.53 143.19 288.34 141.48 287.94 137.74 287.81 136.09 287.42 132.28 287.22 130.64 286.89 126.82 286.69 125.18 286.3 121.37 286.17 119.72 285.71 115.84 282.88 115.71 282.75 116.37 282.62 117.68 282.22 120.64 282.03 122.02 281.63 124.98 281.43 126.3 281.04 129.32 280.91 130.64 280.51 133.66 280.32 134.97 279.92 137.93 279.72 139.31 279.33 142.27 279.2 143.59 278.8 146.61 278.61 147.92 278.21 150.95 278.02 152.26 277.62 155.29 277.42 156.6 277.03 159.56 276.9 160.88 276.5 163.9 276.31 165.21 276.31 165.28" style="fill: #007a7b; stroke-width: 0px;"/>
                      <g>
                        <polygon points="282.62 117.68 286.3 121.37 286.17 119.72 282.75 116.37 282.62 117.68" style="fill: #00abb1; stroke-width: 0px;"/>
                        <polygon points="282.03 122.02 286.89 126.82 286.69 125.18 282.22 120.64 282.03 122.02" style="fill: #00abb1; stroke-width: 0px;"/>
                        <polygon points="281.43 126.3 287.42 132.28 287.22 130.64 281.63 124.98 281.43 126.3" style="fill: #00abb1; stroke-width: 0px;"/>
                        <polygon points="280.91 130.64 287.94 137.74 287.81 136.09 281.04 129.32 280.91 130.64" style="fill: #00abb1; stroke-width: 0px;"/>
                        <polygon points="280.32 134.97 288.53 143.19 288.34 141.48 280.51 133.66 280.32 134.97" style="fill: #00abb1; stroke-width: 0px;"/>
                        <polygon points="279.72 139.31 289.06 148.65 288.93 146.94 279.92 137.93 279.72 139.31" style="fill: #00abb1; stroke-width: 0px;"/>
                        <polygon points="279.2 143.59 289.65 154.1 289.45 152.4 279.33 142.27 279.2 143.59" style="fill: #00abb1; stroke-width: 0px;"/>
                        <polygon points="278.61 147.92 290.18 159.5 290.05 157.85 278.8 146.61 278.61 147.92" style="fill: #00abb1; stroke-width: 0px;"/>
                        <polygon points="278.02 152.26 290.77 164.95 290.57 163.31 278.21 150.95 278.02 152.26" style="fill: #00abb1; stroke-width: 0px;"/>
                        <polygon points="277.42 156.6 289.19 168.3 289.65 167.32 277.62 155.29 277.42 156.6" style="fill: #00abb1; stroke-width: 0px;"/>
                        <polygon points="276.9 160.88 287.48 171.53 288.01 170.54 277.03 159.56 276.9 160.88" style="fill: #00abb1; stroke-width: 0px;"/>
                        <polygon points="276.31 165.21 285.84 174.75 286.36 173.76 276.5 163.9 276.31 165.21" style="fill: #00abb1; stroke-width: 0px;"/>
                        <polygon points="278.67 171 279.72 173.5 284.13 177.97 284.65 176.98 278.67 171" style="fill: #00abb1; stroke-width: 0px;"/>
                      </g>
                      <polygon points="285.71 115.84 284.33 117.95 282.88 115.71 282.62 117.62 284.26 119.33 285.9 117.29 285.71 115.84" style="fill: #00abb1; stroke-width: 0px;"/>
                    </g>
                    <polygon points="288.14 112.23 284.33 117.95 280.58 112.23 284.33 107.43 288.14 112.23" style="fill: #007a7b; stroke-width: 0px;"/>
                    <g>
                      <path d="m290.37,116.17c.13,0,.2-.07.26-.07,3.81-3.02,7.03-10.91,7.23-11.24.07-.2,0-.46-.26-.59-.2-.07-.46,0-.59.26,0,.07-3.09,7.49-6.57,10.58l-5.79-7.89c-.07-.13-.2-.2-.33-.2s-.26.07-.33.2l-5.39,7.69c-.85-1.51-3.02-5.46-4.8-9.14-.13-.2-.39-.33-.59-.2s-.33.39-.2.59c2.3,4.67,5.13,9.73,5.19,9.8.07.13.2.2.39.2.13,0,.33-.07.39-.2l5.46-7.76,5.72,7.76c-.07.07.07.13.2.2h0Z" style="fill: #c2daf4; stroke-width: 0px;"/>
                      <path d="m284.33,107.89c.26,0,.46-.2.46-.46v-1.97c0-.26-.2-.46-.46-.46s-.46.2-.46.46v1.97c0,.26.2.46.46.46Z" style="fill: #c2daf4; stroke-width: 0px;"/>
                    </g>
                  </g>
                  <path d="m274.14,83.89s-1.97-2.37-3.09,0-.26,7.1,2.76,6.31l.33-6.31Z" style="fill: #ff8769; stroke-width: 0px;"/>
                  <path d="m272.03,92.11s0,7.23,7.49,7.17c7.43,0,12.49-5.85,12.75-6.11h0l.07-1.51.39-7.89.2-4.21s.92-7.56-6.25-8.94c-5.26-.99-10.19-.13-12.69,2.63-.07.07-.13.2-.26.26-.79.99-1.25,2.17-1.45,3.55l-.26,7.56-.07,1.84.07,5.65Z" style="fill: #ffa87f; stroke-width: 0px;"/>
                  <path d="m286.04,78.9h0c-.39.85-1.38,1.25-2.24.85-.53-.2-1.05-.39-1.71-.53-.85-.2-1.45-1.05-1.18-1.91h0c.07,0,3.55-.33,5.13,1.58Z" style="fill: #070018; stroke-width: 0px;"/>
                  <path d="m272.49,78.9h0c.39.85,1.38,1.25,2.24.85.53-.2,1.05-.39,1.71-.53.85-.2,1.45-1.05,1.18-1.91h0s-3.48-.33-5.13,1.58Z" style="fill: #070018; stroke-width: 0px;"/>
                  <path d="m273.87,73.51c1.18-.39,2.04,0,3.88.79,2.63,1.18,5.59.13,8.22-1.25,2.63-1.31,4.21.53,3.29,1.77-.92,1.25-.79,2.24.2,3.75.99,1.58-1.84,2.3-.26,3.48.66.53.66,1.31.33,1.97-.26.79.39,1.58,1.18,1.45h0c.85-.2,2.04-1.71,2.04-1.71l.2-4.21s.92-7.56-6.25-8.94c-5.26-.99-10.19-.13-12.69,2.63.07.13,0,.2-.13.26Z" style="fill: #070018; stroke-width: 0px;"/>
                  <path d="m282.03,85.54c0,.53,1.05.92,2.43.92s2.43-.39,2.43-.92-1.05-.92-2.43-.92c-1.38-.07-2.43.39-2.43.92Z" style="fill: #ff8769; stroke-width: 0px;"/>
                  <path d="m272.16,86.46h.59c1.31,0,2.43-.39,2.43-.92s-1.05-.92-2.43-.92h-.53l-.07,1.84Z" style="fill: #ff8769; stroke-width: 0px;"/>
                  <path d="m282.16,82.65c0,.72.33,1.31.72,1.31s.72-.59.72-1.31-.33-1.31-.72-1.31-.72.59-.72,1.31Z" style="fill: #6d373f; stroke-width: 0px;"/>
                  <path d="m274.93,82.65c0,.72.33,1.31.72,1.31s.72-.59.72-1.31-.33-1.31-.72-1.31-.72.59-.72,1.31Z" style="fill: #6d373f; stroke-width: 0px;"/>
                  <path d="m277.42,89.74c2.63,0,4.8-2.24,4.8-2.3.13-.13.13-.33,0-.39-.13-.13-.33-.13-.39,0-.13.13-3.48,3.62-6.71,1.31-.13-.07-.33-.07-.39.07s-.07.33.07.39c.85.66,1.77.92,2.63.92Z" style="fill: #6d373f; stroke-width: 0px;"/>
                  <path d="m289.91,90.27c.07.07.99,2.3,2.37,2.89h0l.07-1.51s-1.18-.2-2.43-1.38Z" style="fill: #ff8769; stroke-width: 0px;"/>
                  <path d="m291.23,85.27s2.89-3.88,5-.85c1.71,2.5-1.58,9.01-5,6.77v-5.92Z" style="fill: #ffa87f; stroke-width: 0px;"/>
                  <path d="m291.62,90.07c.13,0,.26-.13.26-.26.33-2.96,2.76-3.94,2.89-4.01.13-.07.2-.26.2-.39-.07-.13-.26-.2-.39-.2-.13.07-2.89,1.18-3.22,4.47,0,.2.07.33.26.39h0Z" style="fill: #6d373f; stroke-width: 0px;"/>
                  <path d="m294.38,88.23c.07,0,.2-.07.26-.13.13-.13.07-.33-.07-.39s-1.18-.92-2.04-.72c-.13.07-.26.2-.2.33s.2.26.33.2c.53-.13,1.31.39,1.58.59,0,.13.07.13.13.13Z" style="fill: #6d373f; stroke-width: 0px;"/>
                  <path d="m278.67,86.26c.13,0,.33-.13.33-.33,0-.13-.13-.33-.33-.33-1.12,0-1.58-.59-1.77-.85,1.18-2.43,2.37-4.86,2.37-4.93.07-.13,0-.33-.13-.39s-.33,0-.39.13c0,0-1.25,2.56-2.43,5.06-.07.07-.07.2,0,.26,0,.13.59,1.38,2.37,1.38Z" style="fill: #6d373f; stroke-width: 0px;"/>
                  <path d="m299.18,120.45l1.71,3.16,2.43,4.67,2.43,4.73,2.43,4.73c1.58,3.16,3.22,6.31,4.73,9.4,1.58,3.16,3.02,6.31,4.47,9.4.72,1.58,1.38,3.09,1.97,4.6.33.72.59,1.51.79,2.17.13.33.2.66.33.99v.07c0,.13-.07.33-.07.46-.13.72-.33,1.58-.46,2.37-.39,1.64-.79,3.35-1.18,5-.85,3.42-1.71,6.84-2.63,10.26l-1.38,5.13-1.38,5.13h0c-.92,3.42,1.12,6.97,4.54,7.89,3.29.85,6.64-.92,7.76-4.01.59-1.71,1.18-3.42,1.77-5.13l1.77-5.13c1.12-3.42,2.24-6.84,3.35-10.32.53-1.77,1.05-3.48,1.58-5.32.26-.92.53-1.84.72-2.83.13-.53.26-1.05.33-1.64.07-.33.13-.66.13-1.05,0-.2.07-.46.07-.79v-2.3l-.07-.26-.07-.46c-.07-.26-.13-.59-.2-.85-.13-.53-.26-1.05-.46-1.58-.33-.99-.59-1.97-.92-2.89-.66-1.84-1.31-3.62-1.97-5.32-1.38-3.48-2.83-6.84-4.34-10.12-1.51-3.29-3.02-6.57-4.6-9.86l-2.37-4.86-2.43-4.86c-.79-1.58-1.64-3.22-2.5-4.8l-1.25-2.43-1.31-2.43c-1.45-2.76-4.34-4.34-7.3-4.27-3.02,4.01-5.19,8.61-6.44,13.41Z" style="fill: #fff; stroke-width: 0px;"/>
                  <path d="m322.46,192.04c-.13-.59.2-1.12.79-1.25.59-.13,1.12.2,1.25.79.13.59-.2,1.12-.79,1.25-.53.07-1.12-.26-1.25-.79Z" style="fill: #c2daf4; stroke-width: 0px;"/>
                  <path d="m315.62,184.28h.26c3.88,2.17,11.83,5,11.9,5.06.2.07.33.26.26.46-.07.2-.26.33-.46.26-.07,0-8.09-2.89-12.03-5.13-.2-.13-.26-.33-.2-.53.13-.07.2-.13.26-.13Z" style="fill: #c2daf4; stroke-width: 0px;"/>
                  <path d="m318.91,185.86h.26c.2.07.26.26.2.46l-2.1,5.52c-.07.2-.26.26-.46.2-.2-.07-.26-.26-.2-.46l2.1-5.52c0-.07.13-.13.2-.2Z" style="fill: #c2daf4; stroke-width: 0px;"/>
                  <path d="m313.05,147.86c-.2.07-.33-.07-.46-.2l-10.12-18.54c-.13-.2-.07-.46.13-.53.2-.13.46-.07.53.13l10.12,18.54c.13.2.07.46-.13.53,0,0,0,.07-.07.07Z" style="fill: #c2daf4; stroke-width: 0px;"/>
                  <path d="m305.76,134.65h-.2l-2.76-.99c-.2-.07-.33-.26-.26-.53.07-.2.26-.33.53-.26l2.76.99c.2.07.33.26.26.53-.07.13-.2.26-.33.26Z" style="fill: #c2daf4; stroke-width: 0px;"/>
                  <path d="m326.99,163.24s-.07,0,0,0c-.07,0-4.54.72-5.79,1.25-.2.07-.46,0-.53-.2-.07-.2,0-.46.2-.53,1.31-.59,5.72-1.25,5.92-1.31s.39.13.46.33c.07.2-.07.39-.26.46Z" style="fill: #c2daf4; stroke-width: 0px;"/>
                  <path d="m321.73,164.29c-.13,0-.26,0-.33-.07-.2-.13-.2-.39-.07-.53.66-.79,2.24-2.43,2.3-2.5.13-.13.39-.13.53,0,.13.13.13.39,0,.53,0,0-1.64,1.71-2.3,2.43,0,.07-.07.13-.13.13Z" style="fill: #c2daf4; stroke-width: 0px;"/>
                  <path d="m307.73,195.98h0c-.59-.13-1.84-.26-3.29-.07-2.04.26-3.75,1.64-4.73,2.1s.39,1.71,2.1,1.38,3.16-.33,3.81-.2c0,0-2.1.26-3.35.92-.53.26-1.31.59-2.04.99-.33.2-.72.39-.99.59-.53.39-.92.72-.85,1.12.07.66,1.05.59,2.3.39.46-.07.99-.2,1.51-.26.2-.07.39-.07.59-.07,1.77-.26,2.56-.59,4.01-.46,0,0-1.71.46-2.56,1.05-.13.13-.33.2-.53.33-.33.26-.72.46-1.05.79-.59.46-1.18.92-1.45,1.31-.46.66,1.38,1.18,3.09.53.59-.26,1.12-.53,1.51-.79.46-.26.85-.53,1.25-.66q.07,0,.13-.07c.26-.07.46-.07.72,0,0,0-.39.33-.92.72h0l-.07.07c-.33.26-.66.53-.92.79-.46.46-1.05,1.51-1.18,2.37-.07.46-.07.85.26,1.05.33.13.92-.13,1.64-.59,1.05-.66,2.3-1.58,3.16-1.71,1.51-.2,4.14-.72,7.82-1.64,2.96-.79,5.13-3.88,5.59-5.26.13-.33.26-.72.26-.72l-8.09-6.9s-.72-.26-1.71-.53c-.92-.26-2.04-.53-2.89-.53-.33,0-.66.07-.92.13-.39.13-.66.39-.99.46l-.59.26-.66,3.09Z" style="fill: #ffa87f; stroke-width: 0px;"/>
                  <path d="m313.05,192.37s5.59,6.11,10.45,7.43c.79-.39,1.91-1.84,2.1-2.7,0,0-6.84-3.22-11.18-7.82-.79.66-1.25,2.1-1.38,3.09Z" style="fill: #21120e; stroke-width: 0px;"/>
                  <path d="m320.68,191.77c1.58,1.05,2.04,3.16,1.05,4.73-1.05,1.58-3.16,2.04-4.73,1.05-1.58-1.05-2.04-3.16-1.05-4.73.99-1.64,3.09-2.1,4.73-1.05Z" style="fill: #21120e; stroke-width: 0px;"/>
                  <path d="m320.88,195.98c-.72,1.12-2.24,1.45-3.42.72-1.12-.72-1.45-2.24-.72-3.42.72-1.12,2.24-1.45,3.42-.72,1.12.72,1.45,2.24.72,3.42Z" style="fill: #fff; stroke-width: 0px;"/>
                </g>
                <g style="clip-path: url(#clippath-10);">
                  <path id="SVGID" d="m138.65,272.11c-3.94-3.09-17.95-10.85-18.8-15.71-.59-3.48.53-7.23-.72-10.52-1.77-4.6-7.43-6.64-9.86-10.91-2.76-4.86.99-10.32-.26-15.71-.66-2.76-3.81-5.92-5.06-8.48-1.25-2.56-2.37-5.32-2.1-8.15.13-1.38.85-5.46,4.93-7.1,4.08-1.71,7.43.59,8.55,1.51,2.17,1.84,3.35,4.54,4.27,7.23.92,2.7.92,7.17,2.43,9.53,2.96,4.73,9.47,5.92,10.91,11.24,1.31,4.73-1.25,10.19.79,14.66,1.45,3.22,4.86,5.06,6.9,7.95,3.02,4.08-1.38,19.46-1.97,24.46Z" style="fill: #007a7b; stroke-width: 0px;"/>
                  <g style="clip-path: url(#clippath-11);">
                    <path d="m109.72,202.42c2.3-3.02,4.8-5.85,7.63-8.41.79-.72,1.58-1.45,2.43-2.1.13-.13-.07-.33-.2-.2-2.96,2.43-5.65,5.13-8.09,8.09-.66.85-1.38,1.64-1.97,2.5-.2.13.13.26.2.13h0Z" style="fill: #999; stroke-width: 0px;"/>
                    <path d="m112.81,209.92c3.42-3.35,6.84-6.71,10.26-10.06.99-.92,1.91-1.91,2.89-2.83.13-.13-.07-.39-.2-.2-3.42,3.35-6.84,6.71-10.26,10.06-.99.92-1.91,1.91-2.89,2.83-.2.07.07.33.2.2h0Z" style="fill: #999; stroke-width: 0px;"/>
                    <path d="m114.85,215.7c-4.67.33-9.34.2-13.94-.33-1.31-.13-2.63-.33-3.94-.53-.2-.07-.26.26-.07.33,4.6.79,9.34,1.12,14,1.05,1.31,0,2.63-.07,3.94-.2.2,0,.2-.33,0-.33h0Z" style="fill: #999; stroke-width: 0px;"/>
                    <path d="m115.9,217.94c-3.48.79-7.1.92-10.65.46-1.05-.13-2.04-.33-3.02-.53-.2-.07-.26.26-.07.33,3.55.79,7.23.99,10.85.59,1.05-.13,2.04-.26,3.02-.53.13-.07.07-.33-.13-.33h0Z" style="fill: #999; stroke-width: 0px;"/>
                    <path d="m120.11,227.21c2.63-1.91,5.32-3.88,7.95-5.79s5.32-3.88,7.95-5.79c1.51-1.12,3.02-2.17,4.54-3.29.13-.13,0-.39-.13-.26-2.63,1.91-5.32,3.88-7.95,5.79s-5.32,3.88-7.95,5.79c-1.51,1.12-3.02,2.17-4.54,3.29-.2.07-.07.33.13.26h0Z" style="fill: #999; stroke-width: 0px;"/>
                    <path d="m123.39,236.61c2.37-1.91,4.8-3.81,7.17-5.72,2.37-1.91,4.8-3.81,7.17-5.72,1.38-1.05,2.7-2.17,4.08-3.22.13-.13-.07-.33-.2-.2-2.37,1.91-4.8,3.81-7.17,5.72-2.37,1.91-4.8,3.81-7.17,5.72-1.38,1.05-2.7,2.17-4.08,3.22-.2.13.07.33.2.2h0Z" style="fill: #999; stroke-width: 0px;"/>
                    <path d="m120.9,231.22c-5-1.25-10.06-2.5-15.05-3.75-1.38-.33-2.83-.72-4.21-1.05-.2-.07-.26.26-.07.33,5,1.25,10.06,2.5,15.05,3.75,1.38.33,2.83.72,4.21,1.05.2,0,.26-.26.07-.33h0Z" style="fill: #999; stroke-width: 0px;"/>
                    <path d="m128.52,247.06c3.02-1.84,6.05-3.68,9.07-5.46s6.05-3.68,9.07-5.46c1.71-1.05,3.42-2.04,5.13-3.09.2-.13,0-.39-.13-.26-3.02,1.84-6.05,3.68-9.07,5.46-3.02,1.84-6.05,3.68-9.07,5.46-1.71,1.05-3.42,2.04-5.13,3.09-.2.07-.07.39.13.26h0Z" style="fill: #999; stroke-width: 0px;"/>
                    <path d="m131.02,255.87c2.89-1.58,5.85-3.09,8.74-4.67s5.85-3.09,8.74-4.67c1.64-.85,3.29-1.77,4.93-2.63.2-.07,0-.39-.13-.26-2.89,1.58-5.85,3.09-8.74,4.67s-5.85,3.09-8.74,4.67c-1.64.85-3.29,1.77-4.93,2.63-.2.07-.07.33.13.26h0Z" style="fill: #999; stroke-width: 0px;"/>
                    <path d="m123.79,239.76c-3.42-.39-6.77-.92-10.12-1.58s-6.64-1.45-9.93-2.43c-1.84-.53-3.68-1.12-5.46-1.71-.2-.07-.26.26-.07.33,3.22,1.12,6.51,2.1,9.86,2.89,3.29.85,6.64,1.51,10.06,2.04,1.91.33,3.81.59,5.65.79.2,0,.2-.33,0-.33h0Z" style="fill: #999; stroke-width: 0px;"/>
                    <path d="m128.92,250.41c-4.47-.99-8.94-1.97-13.41-2.96-4.47-.99-8.94-1.97-13.41-2.96-2.5-.53-5-1.12-7.56-1.64-.2-.07-.26.26-.07.33,4.47.99,8.94,1.97,13.41,2.96,4.47.99,8.94,1.97,13.41,2.96,2.5.53,5,1.12,7.56,1.64.2,0,.26-.33.07-.33h0Z" style="fill: #999; stroke-width: 0px;"/>
                    <path d="m124.25,238.65c4.47-3.16,8.94-6.31,13.35-9.47,1.25-.85,2.5-1.77,3.75-2.63.2-.13,0-.39-.13-.26-4.47,3.16-8.94,6.31-13.35,9.47-1.25.85-2.5,1.77-3.75,2.63-.2.07,0,.39.13.26h0Z" style="fill: #999; stroke-width: 0px;"/>
                    <path d="m111.63,207.81c3.22-2.43,6.25-5.06,9.2-7.82.85-.79,1.64-1.58,2.43-2.37.13-.13-.07-.39-.2-.2-2.83,2.83-5.79,5.52-8.94,8.02-.85.72-1.77,1.45-2.7,2.1-.13.13.07.39.2.26h0Z" style="fill: #999; stroke-width: 0px;"/>
                  </g>
                  <g style="clip-path: url(#clippath-12);">
                    <polygon points="106.5 194.27 141.6 275.13 138.12 276.58 105.91 194.53 106.5 194.27" style="fill: #00be9a; stroke-width: 0px;"/>
                  </g>
                  <path d="m100.19,271.12c1.25,0,2.37-.07,3.22-.33,1.84-.39,2.83-1.12,2.7-1.64-.13-.53-1.18-.79-2.83-1.05s-3.75-.66-6.05-1.25c-.92-.26-1.77-.53-2.63-.72-1.45-3.48-1.97-6.77-1.91-9.86.79.66,1.64,1.18,2.7,1.64,1.18.46,2.43.79,3.55.85,1.12.13,2.1.07,2.96-.07,1.64-.33,2.56-.99,2.5-1.45-.07-.53-1.05-.85-2.43-1.18-1.38-.39-3.22-.85-5.13-1.64-.99-.39-1.84-.72-2.76-1.12-.33-.13-.72-.26-1.05-.46.53-2.96,1.51-5.59,2.7-7.89.46.59.99,1.12,1.64,1.58.85.59,1.84,1.05,2.7,1.31s1.71.33,2.43.33c1.38-.07,2.17-.59,2.17-1.12s-.72-.99-1.64-1.51c-.99-.53-2.17-1.18-3.48-2.1-.72-.53-1.45-.99-2.1-1.38,2.7-4.08,5.46-6.44,5.46-6.44h0s3.68.33,8.15,2.1c-.33.72-.59,1.51-.92,2.37-.53,1.45-1.18,2.7-1.64,3.68s-.79,1.77-.46,2.24c.26.39,1.25.39,2.43-.33.59-.39,1.25-.92,1.77-1.64.59-.72,1.12-1.58,1.45-2.63.26-.72.39-1.51.46-2.24,2.3,1.18,4.6,2.76,6.71,4.93-.2.33-.39.59-.59.92-.53.79-1.05,1.64-1.64,2.5-1.12,1.71-2.37,3.16-3.29,4.27s-1.58,1.91-1.31,2.37c.2.46,1.31.46,2.89-.26.79-.33,1.64-.92,2.5-1.64.85-.72,1.71-1.64,2.37-2.76.59-.92.99-1.91,1.25-2.89,1.84,2.5,3.29,5.52,4.08,9.2-.53.66-1.12,1.38-1.71,2.1-1.51,1.84-3.09,3.35-4.21,4.54-1.18,1.12-1.91,1.97-1.71,2.43.2.46,1.45.46,3.16-.2.85-.33,1.84-.92,2.83-1.64.79-.59,1.58-1.31,2.3-2.1.46,14.07-12.75,13.35-12.75,13.35,0,0-10.32,8.15-18.08-3.62,1.25.33,2.3.46,3.29.46Z" style="fill: #0e6a7c; stroke-width: 0px;"/>
                  <g style="clip-path: url(#clippath-13);">
                    <path d="m105.32,242.79c-2.63-.85-5.13-2.3-7.17-4.21-.59-.53-1.12-1.12-1.64-1.71-.07-.07-.2.07-.13.13,1.77,2.17,4.08,3.88,6.64,5.06.72.33,1.45.59,2.24.85.13.07.2-.13.07-.13h0Z" style="fill: #999; stroke-width: 0px;"/>
                    <path d="m107.95,250.74c-2.17-.07-4.4-.33-6.51-.92-2.1-.59-4.14-1.38-6.11-2.43-1.12-.59-2.17-1.25-3.16-2.04-.07-.07-.2.07-.13.13,1.77,1.31,3.68,2.43,5.79,3.29,2.04.85,4.21,1.45,6.44,1.84,1.25.2,2.5.33,3.75.33.07,0,.07-.2-.07-.2h0Z" style="fill: #999; stroke-width: 0px;"/>
                    <path d="m109,253.9c-2.5-.26-4.93-.79-7.3-1.64-2.37-.85-4.6-2.04-6.71-3.42-1.18-.79-2.3-1.71-3.35-2.63-.07-.07-.2.07-.13.13,1.84,1.71,3.94,3.16,6.18,4.4,2.24,1.18,4.6,2.1,7.03,2.7,1.38.33,2.76.59,4.21.72.2-.07.2-.26.07-.26h0Z" style="fill: #999; stroke-width: 0px;"/>
                    <path d="m124.31,246.8c-.92,2.56-2.1,5-3.62,7.3s-3.22,4.4-5.26,6.25c-1.12,1.05-2.3,2.04-3.55,2.89-.13.07,0,.26.13.13,2.24-1.58,4.27-3.42,6.11-5.52,1.77-2.04,3.35-4.34,4.54-6.77.72-1.38,1.31-2.76,1.84-4.27.07-.07-.13-.13-.2,0h0Z" style="fill: #999; stroke-width: 0px;"/>
                    <path d="m108.93,253.31c1.84-1.77,3.35-3.88,4.54-6.11,1.18-2.24,1.97-4.67,2.43-7.17.26-1.45.33-2.83.33-4.27,0-.13-.2-.13-.2,0,.07,2.56-.33,5.06-1.12,7.49-.79,2.43-1.91,4.67-3.35,6.77-.85,1.18-1.77,2.24-2.76,3.29-.07-.07.07.07.13,0h0Z" style="fill: #999; stroke-width: 0px;"/>
                    <path d="m109.33,254.49c2.3-1.51,4.4-3.29,6.18-5.46,1.77-2.1,3.16-4.6,3.75-7.36.33-1.51.46-3.09.26-4.67,0-.13-.2-.13-.2,0,.33,2.76-.26,5.59-1.51,8.09-1.18,2.43-2.96,4.54-5,6.38-1.12,1.05-2.37,1.97-3.62,2.83-.07.07,0,.26.13.2h0Z" style="fill: #999; stroke-width: 0px;"/>
                    <path d="m104.99,241.21c1.51-2.17,2.43-4.67,2.76-7.3,0-.13-.2-.2-.2-.07-.33,2.56-1.25,5.06-2.76,7.23,0,.13.13.2.2.13h0Z" style="fill: #999; stroke-width: 0px;"/>
                    <path d="m105.84,243.77c1.51-2.24,2.76-4.67,3.75-7.23.07-.13-.13-.13-.2-.07-.99,2.56-2.24,4.93-3.75,7.23,0,.07.13.2.2.07h0Z" style="fill: #999; stroke-width: 0px;"/>
                  </g>
                  <g style="clip-path: url(#clippath-14);">
                    <path d="m114.98,275.13c-.92-3.55-1.91-7.03-2.89-10.58-.99-3.48-2.04-7.03-3.16-10.52-2.17-6.97-4.47-13.94-6.9-20.77l.2-.07c2.5,6.84,4.86,13.81,7.17,20.71,1.12,3.48,2.24,6.97,3.29,10.45s2.1,7.03,3.02,10.52l-.72.26Z" style="fill: #009692; stroke-width: 0px;"/>
                  </g>
                </g>
                <rect x="115.11" y="191.91" width="150.48" height="10.06" style="fill: #fc9e16; stroke-width: 0px;"/>
                <rect x="129.25" y="201.9" width="122.15" height="60.22" style="fill: #ff8f1b; stroke-width: 0px;"/>
                <rect x="129.25" y="201.9" width="122.15" height="4.14" style="fill: #d57b20; stroke-width: 0px;"/>
                <rect x="134.57" y="210.18" width="111.56" height="51.93" style="fill: #895526; stroke-width: 0px;"/>
                <rect x="134.57" y="210.18" width="111.56" height="15.38" style="fill: #fc9e16; stroke-width: 0px;"/>
                <circle cx="190.32" cy="217.81" r="3.09" style="fill: #d57b20; stroke-width: 0px;"/>
              </g>
              <g style="clip-path: url(#clippath-15);">
                <path d="m191.76,112.16c-.46.2-.72.33-.79.39,0,0-.07.2-.2.53-.07.26-.26.39-.53.39,0,0-.07,0-.13-.07-.07-.07-.13-.07-.2-.07s-.2,0-.39.07-.33.07-.46.07-.26-.07-.39-.2c-.13-.13-.2-.2-.33-.2s-.26.13-.39.33c-.07.2-.2.53-.26.85-.07.33-.2.66-.26.85-.07.2-.07.46.07.85,0,.2-.13.46-.33.79s-.33.59-.33.85.07.46.2.66c.13.13.2.26.2.33,0,.13-.07.26-.13.53-.07.26-.13.39-.13.46s0,.13.07.26.07.2.07.26l.07.59c0,.26-.13.59-.33.92-.2.39-.33.72-.33.92,0,.07,0,.2.07.46v.2c.07,0,.13,0,.26.07.33.07.53.2.59.39,0,.07.07.13.07.33,0,.13.13.2.2.26.07,0,.2.07.39.2.13.07.26.13.39.13.07,0,.07.07.13.07,1.12.66,1.84,1.18,2.1,1.58.13.2.33.46.53.79.26.2.53.53.72.92.26.39.39.79.39,1.12,0,.13.07.33.2.46.07.07.2.26.33.39.07.13.13.26.2.53.07.33.07.53.13.59,0,.13.13.33.2.59.13.26.2.46.2.59s.13.39.26.66.2.39.26.53v.13c-.07.07-.2.13-.39.13-.13.07-.2.13-.2.33,0,.07.07.33.13.72,0,.33-.07.53-.2.72s-.2.26-.2.39c0,.07.13.2.33.39.2.26.33.59.33.85v.26c0,.13-.07.2-.07.33,0,.2.07.33.13.53.13.2.26.26.46.26.13,0,.26-.13.33-.39.07-.26.2-.39.53-.39.2,0,.53.07.92.26.33.13.59.26.72.39s.2.33.2.59c0,.2.13.26.46.26.13,0,.2-.13.2-.33,0-.07-.07-.13-.2-.33s-.2-.33-.2-.39c-.13-.39-.2-.66-.2-.85,0-.26.26-.59.79-1.12.53-.46.79-.85.79-1.18,0-.13-.07-.33-.2-.53s-.2-.39-.2-.66c0-.13.07-.26.13-.33.07-.13.13-.2.13-.26-.2-.53-.26-1.05-.26-1.51,0-.26.07-.66.13-1.12.13-.39.13-.66.13-.66v-.26c-.13.13-.26.26-.46.26-.07,0-.33-.13-.85-.39-.53-.26-.79-.46-.85-.46-.2-.07-.26-.26-.33-.59,0-.33-.2-.46-.46-.46v-.33c.07-.07.07-.13.13-.2,0,0,.07-.07.07-.13,0-.33-.13-.59-.46-.85-.33-.26-.46-.46-.46-.53,0-.33.2-.59.53-.85.33-.2.53-.33.53-.33,0-.07-.2-.26-.53-.66s-.53-.66-.53-.72c0-.13.07-.2.26-.26.2-.07.26-.2.26-.46,0-.39-.13-.66-.33-.85s-.33-.39-.33-.59v-.46c.07-.33.33-.92.66-1.84.07-.13.2-.39.33-.72.13-.2.2-.39.26-.53.07-.2.33-.33.85-.46.39-.13.53-.26.39-.53.07,0,.26-.07.59-.13.26-.07.39-.26.46-.46,0-.07.07-.2.2-.39s.2-.33.2-.39v-.92c0-.13-.13-.26-.33-.33-.26-.07-.46-.13-.59-.2s-.2-.2-.2-.39c0-.26.07-.46,0-.59-.13,0-.26-.07-.46-.13-.2-.07-.33-.13-.39-.13-.33,0-.53.13-.59.46-.07.26-.13.39-.33.39,0,0-.26-.26-.66-.72-.46-.46-.85-.72-1.31-.72-.07,0-.2.13-.39.33s-.39.33-.59.33-.33-.07-.33-.13c.07-.13.07-.26.07-.33,0-.26-.07-.39-.26-.39-.2.13-.46.2-.66.33m5.92-14.99c.2-.07.66-.33,1.31-.79.33-.2.66-.39.92-.46-.26-.13-.53-.2-.72-.2-.46-.07-.99-.13-1.58,0-.2,0-.39-.07-.59-.2-.2-.13-.26-.33-.2-.53.07-.26,0-.53-.26-.72s-.39-.39-.39-.46.07-.13.26-.26c.2-.13.26-.26.26-.33,0-.59-.13-.85-.46-.92h-.79c-.13,0-.2-.07-.33-.2s-.2-.2-.33-.2c-.07,0-.2,0-.26.07-.07,0-.13,0-.13.07v.13c-.07.07-.07.2-.07.2l.07.46c0,.13-.07.26-.13.33-.07.07-.26.07-.59,0-.2-.13-.46-.2-.66-.2,0,0-.13.07-.33.13h-.26c0-.13-.07-.26-.07-.33,0-.13-.07-.2-.2-.2-.2,0-.33.07-.46.2-.07.13-.33.2-.72.2-.2,0-.39,0-.39-.07-.13-.13-.33-.26-.53-.33-.53-.13-.85-.26-.99-.39-.2-.13-.39-.33-.53-.66-.13-.2-.33-.26-.66-.26-.13,0-.33.07-.53.2l-.33.2c-.13,0-.26-.07-.39-.13-.13-.13-.26-.13-.39-.13s-.26.13-.39.46c-.13.33-.33.46-.59.46-.13,0-.39.13-.72.46l-.46.46c-.07,0-.2-.07-.2-.13h-.26c0,.07,0,.2-.13.26-.07.07-.2.13-.33.2-.07.07-.13.13-.2.39-.07.2-.13.26-.26.26-.07,0-.07-.07-.13-.13,0-.07-.07-.13-.2-.13-.2,0-.26.2-.26.59s-.13.59-.33.59c-.07,0-.26-.07-.59-.2-.39-.13-.59-.2-.72-.2-.13.07-.2.07-.26.07,0,0-.2-.07-.46-.2-.2-.13-.46-.2-.72-.26-.07.07-.13.2-.13.33-.07.2-.07.33-.07.53,0,.13,0,.2.07.2,0,0,.07.07.2.07.07,0,.26-.07.59-.13.07,0,.13.07.13.2s-.07.26-.2.39c-.13.2-.2.26-.2.33,0,.13.07.2.2.2s.2.07.2.2c0,.07,0,.13-.07.2s-.07.2-.07.26c0,.13.07.26.2.39.13.13.2.26.2.33,0,.13-.07.26-.13.46-.13.13-.2.26-.33.39-.2.26-.33.39-.33.46v.46c0,.13,0,.2-.07.33.13.07.39.13.72.33.39.26.79.33,1.12.33.13,0,.39-.13.72-.33s.66-.39.85-.59c.13-.13.26-.33.33-.72.07-.2.26-.33.59-.33,0-.26.2-.39.53-.46.46-.07.79-.2.99-.46.07-.07.39-.13,1.12-.2.53-.07.92-.07,1.05-.07.26,0,.53.13.72.46.07.07.2.13.39.2.2,0,.26.07.26.2,0,.07-.07.13-.13.13-.13.07-.2.13-.2.13v.13c.53.13.79.2.85.33v.46s.07.07.13.2c.13.13.13.26.13.39,0,.07-.07.2-.13.39-.07.2-.13.33-.13.39s.07.13.13.26c.07.13.13.26.13.39s0,.2-.07.26c-.07.07-.13.2-.13.26,0,.13.13.2.33.39.2.13.33.2.39.2.13,0,.33-.07.46-.26.13-.2.33-.26.39-.26.13,0,.26.07.53.13.2.07.46.2.79.26.13,0,.2-.07.26-.07.2-.07.26-.13.26-.13,0-.07-.07-.13-.2-.2-.13-.13-.26-.33-.26-.59,0-.07,0-.2.07-.33.07-.2.07-.26.07-.26-.07-.13-.13-.26-.13-.33s.07-.07.13-.13c.07,0,.13-.07.26-.07,0,0,.13.07.26.26.13.2.33.26.46.26.26,0,.39-.07.46-.26,0-.2.07-.33.07-.39.2.07.39.07.59-.13.2-.2.33-.39.39-.46.13-.07.2-.13.2-.2s.07-.13.07-.2c0-.13.13-.2.33-.13.07,0,.2,0,.39.07.13,0,.33-.2.53-.53.07-.07.13-.07.39-.07.2,0,.33-.07.39-.13,0,0,.07-.2.13-.66.07-.33.2-.53.46-.66m-10.19-2.5c.2.13.33.26.53.26s.39.13.59.26c.26.2.39.39.39.59,0,.07-.07.13-.2.2s-.2.13-.26.13-.13,0-.26-.07-.2-.07-.2-.07c-.13,0-.26.13-.33.33s-.2.33-.39.33c-.13,0-.26-.07-.26-.2-.07-.13-.13-.26-.2-.26s-.26-.07-.53-.07c-.2,0-.26-.07-.26-.2,0-.07.07-.13.13-.2l.13-.13s-.07-.13-.2-.2c-.13-.13-.2-.2-.2-.26,0-.13.07-.2.26-.2l.39.07h.2l.39-.39c-.07-.13.13-.07.26.07m19.92-35.5c-.07,0-.13,0-.13.07-.07,0-.13.07-.2.07-.13,0-.46-.2-1.05-.66-.59-.46-.85-.72-.85-.79l.26-.53c0-.13-.13-.2-.46-.2s-.59.07-.66,0c-.07,0-.2-.13-.33-.26-.13-.13-.26-.2-.46-.26-.33-.07-.59-.33-.72-.72-.13-.39-.39-.59-.79-.59-.2,0-.46,0-.72.07-.26.07-.46.07-.59.07h0c0,.07-.07.13-.07.13-.07.07-.07.2-.07.26s-.07.13-.13.13l-.33.53-.07.39c.07.13,0,.2-.2.33-.13.07-.2.2-.26.26.07.07.13.07.13.13.13.26.26.39.39.39s.26.07.46.2c.2.13.33.2.53.2.13,0,.33,0,.46.13.2.13.26.33.26.53,0,.07.07.2.2.39.13.2.2.39.2.53,0,.07,0,.13-.07.2-.07.07-.13.13-.2.13-.07-.07-.13-.26-.26-.53-.07-.13-.2-.2-.33-.2-.33,0-.53.13-.66.33-.07.13-.07.26-.13.33-.07.13-.2.2-.39.2-.13,0-.2.07-.13.2v.33c-.07.13-.13.2-.2.26s-.2.13-.26.13h.39c.07,0,.13,0,.26.07s.2.13.33.13h.26c.07,0,.07.07.07.2s0,.2-.07.2c-.07.07-.13.13-.13.26.2.13.53.33.92.72.39.39.66.59.72.66s.2.07.39.13c.13.07.2.13.26.26,0,.13.07.26.2.33.07.13.13.26.13.39,0,.07-.07.2-.13.33-.07.13-.13.33-.13.39,0,.13.07.26.2.39s.2.33.2.39-.07.13-.13.26c-.07.07-.13.2-.13.33,0,.2.2.33.66.33l.39-.13c.26-.07.53-.13.66-.13.2,0,.53.07.92.13.13,0,.26,0,.33-.07s.2-.07.2-.07c.13,0,.26.07.39.2.13.13.26.26.26.39,0,.07.07.13.2.2.13.07.2.2.26.26.13.2.2.39.2.46s0,.13-.07.2c-.07.07-.07.2-.07.2l.2.39c.13-.07.2-.07.26-.13.13-.07.33-.07.66-.13.26,0,.39-.13.53-.2q.07-.07.13-.13c0-.33.13-.59.39-.79.13-.13.39-.33.79-.66.07-.07.07-.13.13-.26.07-.13.13-.2.2-.26.26-.26.46-.46.46-.53v-.72c.26-.07.39-.33.33-.79h0c-.2.13-.33.2-.39.2-.66-.2-.92-.33-.92-.46,0,0,.07-.13.13-.2.07-.13.13-.2.13-.33-.26-.72-.39-1.18-.53-1.31-.2-.26-.46-.53-.79-.72-.26-.13-.39-.2-.39-.26.07-.26.13-.46.13-.66s-.07-.39-.2-.66-.26-.39-.46-.53c-.13-.07-.26-.13-.33-.13-.13-.07-.2-.13-.2-.2,0-.13-.07-.2-.13-.33-.07.26-.13.2-.26.2m-18.54,17.22c-.07-.2-.2-.39-.46-.59-.07.07-.2.2-.26.33-.13.2-.13.39-.07.59,0,.2-.13.33-.39.53-.26.13-.46.2-.53.26-.2.07-.26.33-.33.72-.07.53-.13.79-.13.85-.07.13-.33.39-.79.79-.53.39-.79.66-.85.79-.13.26-.26.59-.39,1.05-.07.2-.2.59-.33,1.12-.13.53-.46,1.05-1.05,1.64-.46.46-.92.92-1.25,1.31h.66c.26,0,.53.07.92.2.33.13.59.2.72.2,0,0,.2-.07.53-.13s.53-.13.72-.13l.72.07c.13,0,.2,0,.33-.07s.2-.07.33-.07.26.07.33.13.13.13.26.26c.07.07.2.13.39.13.13,0,.26.07.46.07.07,0,.33.07.85.2.26.07.53.13.79.2,0,0,.13,0,.26-.07s.33-.07.46-.07.39.07.85.13c.2.07.46.07.66.13h.53c.07,0,.2-.07.33-.26s.2-.33.2-.39c0-.13-.13-.2-.39-.2s-.39.07-.46.07c0,0-.13-.13-.33-.39-.26-.26-.33-.39-.33-.46,0-.13.07-.26.13-.39.07-.13.13-.33.13-.59,0-.46.07-.72.07-.92v-.39c0-.13.07-.26.13-.39.07-.13.13-.26.26-.33.07-.07.13-.2.13-.33s-.07-.26-.13-.39c-.13-.13-.2-.26-.2-.33l.39-.13c.2-.07.33-.2.46-.33-.07,0-.07-.07-.13-.07,0,0-.26-.07-.66-.2-.2-.07-.33-.2-.33-.33,0-.33,0-.53-.07-.59-.26-.33-.33-.53-.33-.66,0-.26-.13-.46-.39-.53-.39-.07-.66-.07-.85-.2-.39-.13-.59-.33-.66-.53-.07-.26-.2-.53-.39-.66-.39-.13-.46-.33-.53-.66m30.7-4.34c-.33-.07-.59-.13-.66-.2-.13-.07-.26-.13-.53-.2-.2-.07-.33-.07-.39-.2-.13-.13-.2-.26-.26-.33-.07-.07-.2-.13-.39-.2h-.2v.2s.07.07.13.13c.07.07.07.13.07.13,0,.07,0,.13-.07.2-.07.07-.13.13-.2.13s-.13,0-.13-.07h-.26v.2c.07,0,.13.07.2.13s.13.13.13.2c0,0,0,.07-.07.07s-.13.07-.13.07c-.13,0-.46-.13-.99-.33s-.85-.33-.92-.33l-.79.13c-.13,0-.39-.13-.72-.46-.2-.2-.39-.33-.59-.39v.26c-.07,0-.2.07-.33.13-.07.07-.13.13-.13.2l.13.59c-.2.13-.39.33-.59.53-.39.33-.59.72-.59,1.05,0,.2-.07.33-.07.39-.07.13-.26.26-.66.39-.2.07-.46.2-.66.33,0,0,.07.07.07.13s.07.13.07.2v.33c0,.07-.13.2-.39.26-.33.07-.53.2-.53.33-.07.07-.2.2-.39.39-.13.13-.2.26-.2.39,0,.26.07.39.13.46.07.07.2.13.39.26.33.13.46.26.46.26,0,.07.07.13.13.2.07.07.07.13.07.2-.2.26-.39.53-.59.79-.39.53-.59.79-.59.85l.07.39c0,.33-.07.59-.26.85-.2.2-.33.26-.33.33,0,0,.07.13.2.26.13.2.2.33.2.39v1.25c0,.13,0,.2-.13.26s-.13.13-.13.2.07.13.13.26c.07.13.13.2.13.26s-.13.2-.33.33-.33.26-.33.33c-.07.2-.13.53-.2.85-.07.13-.07.26-.07.46,0,.13-.07.33-.13.39-.07.07-.2.13-.39.26-.13.07-.26.13-.26.33,0,.13.13.26.39.39.26.13.39.2.39.33,0,.07,0,.2-.07.26s-.07.2-.07.26c.2.33.33.46.33.53s0,.26-.13.53c-.07.26-.13.46-.2.66s-.07.46-.13.85c-.07.39-.13.59-.26.72,0,0-.2.13-.53.33-.07.07-.13.13-.2.33-.07.13-.2.2-.26.2l-.39-.13h-.2v.13c0,.07.07.13.13.33.07.2.07.26.07.33,0,.13-.07.33-.26.66-.2.33-.33.53-.53.53-.07,0-.2,0-.39-.07s-.33-.07-.53-.07-.33,0-.46.07c-.33.07-.46.2-.46.33,0,.07,0,.13.07.26,0,.07-.07.2-.2.33s-.2.2-.2.26.07.13.13.26c.07.07.13.2.13.2,0,.2-.13.33-.46.53-.07.07-.13.07-.26.13.07.2.13.39.13.66,0,0-.2.2-.59.53-.39.26-.59.53-.59.66,0,.2.26.39.72.72.46.26.72.59.72.99,0,0,0,.07-.07.13.26.13.46.46.53.92.13.72.26,1.12.46,1.18.07,0,.26.07.53.13.2.07.33.2.39.33,0,.07.2.26.53.66.07,0,.2-.07.39-.2s.33-.2.46-.2c.26,0,.46.13.66.33.13.2.2.33.13.53-.07.26,0,.39.13.46.07.07.2.13.39.26l.26.26c.13.13.26.2.39.26.33.07.39.33.33.72h.26c.13,0,.26,0,.39-.07.13-.07.26-.07.39-.07s.2-.07.26-.26c.07-.13.13-.26.13-.39-.07-.2-.07-.33-.07-.39-.07-.2-.07-.33-.07-.39s.13-.33.39-.66c.26-.39.46-.66.46-.79.07-.13.2-.39.46-.79.07-.13.13-.2.13-.39,0-.13,0-.26.07-.33,0-.07.2-.46.66-1.25.39-.72.53-1.12.53-1.25,0-.07-.07-.13-.13-.2-.13-.07-.13-.13-.13-.2,0-.26.13-.66.46-1.12.33-.53.66-.79.92-.79.2,0,.39.07.53.13l.2.2c.07-.2.07-.33.07-.53,0-.07.07-.33.26-.79.13-.46.2-.79.2-.85s0-.2-.07-.39-.07-.39-.07-.59c0-.46.07-.85.2-1.12.13-.33.26-.79.33-1.38.07-.53.26-1.25.72-2.3.13-.26.2-.39.26-.53.07-.2.13-.39.13-.59s0-.46.07-.72.13-.53.2-.66c.13-.2.26-.59.46-1.18s.33-.92.26-1.12c-.07-.13-.07-.39-.07-.79v-.99c.07-.13.13-.2.2-.33.13-.13.26-.2.53-.33.07,0,.07-.13.13-.39.07-.26.13-.46.13-.53,0-.2-.13-.39-.39-.53s-.39-.46-.39-.99c0-.39.07-.72.13-.85.07-.07.33-.33.66-.72.13-.2.26-.46.26-.79v-.72c0-.2.07-.39.13-.46.26-.2.46-.39.59-.66.2-.26.33-.46.46-.59.2-.13.39-.33.72-.46.2-.07.33-.26.39-.53.13-.39.2-.59.2-.59.07-.13.2-.33.33-.53,0-.07.07-.07.07-.13-.07-.07-.2-.13-.26-.13-.46-.07-.85-.2-1.18-.26m-2.43-25.57c-.13-.26-.33-.39-.53-.53s-.46-.2-.85-.33c-.39-.07-.66-.13-.85-.13-.33,0-.59.2-.85.53-.26.33-.53.53-.72.53-.46.07-.72.26-.79.72-.07.39-.26.72-.53.92-.13.07-.2.13-.26.2q-.07.07-.07.13s.2.13.53.33.53.46.53.79c0,.13,0,.26-.07.26h-.07c-.07,0-.2-.13-.33-.46-.2-.33-.39-.53-.59-.53-.26,0-.33.13-.39.39,0,.07-.07.13-.2.2-.13.07-.26.2-.39.26-.33.2-.59.33-.79.39h-.72c-.33,0-.53.07-.66.13-.07.07-.13.07-.2.07.07.26.13.39.33.46l.72.26s.13.13.39.39c.13.13.26.2.53.2s.39.07.53.2c.13.13.2.26.2.46,0,.07.07.2.13.26.07.13.13.2.13.2l.07.53c0,.13-.2.26-.53.53-.33.2-.59.33-.72.33l-.39-.07c-.13,0-.13.13-.13.46,0,.2,0,.33.07.39s.07.2.07.26-.07.2-.13.26c-.07.07-.13.2-.13.26,0,.2.13.39.33.66s.26.53.26.85c0,.07-.07.13-.13.2-.07.07-.13.13-.13.2,0,.13.07.2.2.2h.33c.07,0,.2,0,.26.07.07.07.2.07.26.07s.2,0,.26-.07c.13-.07.2-.07.26-.07s.2.13.46.39c.2.2.33.39.39.53.07.07.13.26.33.46.13.13.2.26.2.39-.26.13-.46.26-.53.39-.07.07-.13.2-.13.39s.13.46.46.79.46.59.46.79l-.07.33c0,.07.07.13.13.26.07.07.07.13.13.2h.07c.07,0,.26-.07.53-.13.26-.13.39-.2.53-.33s.46-.26.92-.33c.13-.07.26-.07.39-.13.07-.07.13-.13.33-.26.2-.13.33-.26.33-.33.07-.13.13-.26.13-.33,0-.2,0-.39-.07-.46s-.07-.2-.07-.33c0-.39.07-.59.2-.66s.59-.2,1.38-.53l.66-.33c.26-.13.39-.26.53-.39.07-.07.2-.26.26-.46.13-.13.33-.26.59-.26.07,0,.13.07.33.13s.33.13.33.13c.2,0,.39-.2.46-.59.07-.39.13-.59.13-.66.07,0,.39-.13.85-.2.46-.13.72-.26.72-.46,0-.13-.07-.26-.2-.39s-.2-.26-.2-.33c0-.26.2-.39.59-.39.46,0,.72-.07.79-.13.13-.13.39-.26.79-.39.33-.13.53-.13.66-.13.07,0,.2,0,.26.07.72-.39,1.05-.72,1.05-.99,0-.07-.07-.13-.2-.2-.07,0-.2-.07-.26-.07-.13,0-.26.07-.39.13-.13.07-.26.13-.39.13-.26,0-.39-.07-.46-.2-.07-.07-.07-.26-.07-.59,0-.13-.07-.33-.2-.53s-.2-.33-.2-.53c0-.13.07-.33.13-.66.07-.33.13-.46.2-.53v-.07l-.33-.07c-.13,0-.33.07-.53.2-.2.13-.39.2-.66.2s-.59,0-.79-.07c-.33-.07-.53-.2-.59-.33,0-.07-.07-.13-.2-.2-.07.13-.13.26-.2.39-.2.33-.33.46-.46.46-.2-.07-.26-.07-.26-.07q-.07,0-.13.07c-.07.07-.07.13-.07.2s.07.2.2.39c.13.2.2.39.2.46,0,.33-.13.46-.46.46,0,0-.2-.07-.46-.13s-.46-.13-.59-.13c-.2,0-.39-.07-.59-.2-.07,0-.2-.13-.46-.33s-.46-.33-.53-.39c-.2-.13-.26-.33-.2-.46,0-.26-.07-.46-.2-.59l-.26-.13c0-.07.13-.2.39-.26.2-.07.33-.13.39-.13.26-.07.46-.07.53-.13.13-.07.26-.13.33-.33-.07-.2-.13-.33-.2-.46-.07-.07-.07-.13-.07-.2v-.2c0-.13-.07-.2-.26-.2s-.33-.07-.39-.13-.2-.2-.26-.33c-.07-.13-.2-.2-.33-.26.2-.26.13-.46-.07-.72m-1.58,1.77s.13.07.2.13c.13.13.2.2.2.33q0,.07-.07.13c0,.07-.07.13-.07.13,0,.13.07.26.2.46.13.2.2.39.2.53,0,.2.13.39.39.59.26.13.39.33.39.46l-.2.79c0,.07.07.33.2.72,0,.07.13.13.33.13s.33.07.33.13c0,.2-.2.33-.59.33-.13,0-.26,0-.33-.07s-.2-.07-.2-.07c-.2,0-.26.07-.26.26,0,.13,0,.2.07.26s.07.13.07.26l-.07.26c0,.07.13.13.33.2.2.07.33.13.33.26,0,0,0,.07-.07.13h-.85c-.79-.26-1.25-.46-1.38-.59,0,0-.07-.2-.13-.53-.07-.26-.13-.39-.26-.39s-.2.07-.33.13-.2.13-.26.13-.13-.07-.2-.13-.13-.13-.13-.2c0,0,.07-.26.2-.66s.2-.72.2-.79c0-.26,0-.46-.07-.53-.13-.13-.33-.26-.72-.33-.13,0-.26-.13-.33-.33.07-.07.07-.2.13-.33,0,0,.07-.2.2-.39.07-.13.2-.26.33-.33,0,0,.2-.13.46-.33.26-.13.39-.26.46-.33.07-.07.2-.26.39-.66.07-.2.2-.26.39-.26.13,0,.2.07.2.13.2.13.26.2.33.33Z" style="fill: none; stroke: #fff; stroke-miterlimit: 10; stroke-width: .69px;"/>
                <path d="m200.97,100.99c-.13.13-.2.2-.33.2-.39.13-.66.2-.66.2-.13.07-.26.26-.53.53-.2.26-.33.39-.39.39-.13.2-.2.33-.2.53,0,.13.07.26.13.39.07.13.13.26.13.33s-.13.2-.33.39-.33.39-.33.53c0,.07,0,.13.07.2,0,.07.07.13.07.2v.33c.07.26.07.59-.13.92-.13.33-.26.53-.26.59,0,0,.07.13.2.33s.2.39.2.46c0,.13-.2.33-.53.53-.39.26-.59.53-.72.79-.07.13-.13.39-.33.72-.13.2-.2.46-.2.59s.07.39.26.85c.2.46.26.72.26.85.13,0,.26.07.46.2.26.13.39.26.39.39,0,.07,0,.13-.07.2s-.13.13-.26.13h-.07v.59c0,.2.07.33.2.39s.33.13.59.2c.2.07.33.2.33.33v.92c0,.07-.07.2-.2.39s-.2.33-.2.39c-.07.2-.2.39-.46.46-.26.07-.46.13-.59.13.13.26,0,.39-.39.53-.46.13-.72.26-.85.46-.07.13-.13.26-.26.53-.2.33-.33.59-.33.72-.39.92-.59,1.51-.66,1.84v.46c0,.2.13.39.33.59.2.2.33.46.33.85,0,.26-.07.39-.26.46-.2.07-.26.13-.26.26,0,.07.2.33.53.72s.53.59.53.66c0,0-.2.13-.53.33-.33.26-.53.53-.53.85,0,.13.13.33.46.53.33.26.46.53.46.85q0,.07-.07.13c-.07.07-.07.13-.13.2v.33c.26,0,.46.13.46.46s.13.59.33.59c.07,0,.33.13.85.46.53.26.79.39.85.39.13,0,.33-.07.46-.26,0-.13-.07-.33-.13-.53-.13-.33-.2-.53-.2-.59,0-.13.07-.26.13-.46.07-.2.13-.46.13-.79.07-.33.13-.59.33-.72.2-.13.33-.46.39-.92s.2-.79.33-.99c.07-.13.13-.26.2-.46.07-.26.13-.39.13-.46.2-.39.26-.72.33-.99.07-.33.13-.66.2-1.05.13-.39.2-.66.33-.79.07-.07.13-.2.26-.26.13-.13.26-.2.33-.33.13-.13.13-.39.13-.79-.07-.59.26-1.12.99-1.58.2-.13.46-.39.79-.72l.85-.85s.13-.07.39-.2c.26-.13.39-.2.46-.26.33-.26.53-.46.72-.59.07-.07.07-.2.07-.39s.07-.26.2-.33c.26-.07.39-.13.46-.2v-.33c0-.13-.07-.33-.13-.53-.13-.2-.13-.33-.13-.39,0-.33.07-.53.26-.59.39-.13.66-.26.85-.33.07,0,.13-.07.33-.26.39-.39.66-.72.72-1.05s.2-.66.33-.85c.07-.07.2-.33.46-.72.2-.33.33-.66.39-.92,0-.13.07-.33.2-.46l.39-.46c.07-.07.07-.2.13-.53.07-.26.13-.46.13-.53.2-.39.39-.66.72-.72.2-.07.46-.26.72-.59,0,0-.07-.07-.13-.2-.07-.13-.13-.39-.13-.79l-.07-1.18c0-.07.13-.2.33-.33s.33-.33.33-.53l-.07-.66c0-.2.13-.46.33-.85.2-.33.39-.59.53-.59.2-.07.33-.26.39-.59.07-.46.2-.99.33-1.58,0-.07.07-.26.2-.59.07-.13.13-.33.13-.46l-.2-.2c-.13-.13-.26-.13-.53-.13-.33,0-.59.26-.92.79-.26.46-.46.85-.46,1.12,0,.07.07.13.13.2.13.07.13.13.13.2,0,.13-.2.53-.53,1.25-.39.79-.59,1.18-.66,1.25,0,.07-.07.2-.07.33s-.07.26-.13.39c-.26.39-.46.66-.46.79-.07.13-.2.39-.46.79-.26.39-.39.59-.39.66s0,.2.07.39c0,.07,0,.2.07.39,0,.13-.07.26-.13.39-.07.13-.2.26-.26.26-.13,0-.26,0-.39.07-.13.07-.26.07-.39.07h-.26c.07-.46,0-.66-.33-.72-.13-.07-.26-.13-.39-.26l-.26-.26c-.2-.13-.33-.2-.39-.26-.13-.07-.2-.26-.13-.46,0-.13-.07-.33-.13-.53-.13-.2-.39-.33-.66-.33-.13,0-.33.07-.46.2-.2.13-.33.2-.39.2-.33-.39-.46-.59-.53-.66-.07-.13-.2-.26-.39-.33-.26-.07-.39-.07-.53-.13-.13-.07-.33-.46-.46-1.18-.07-.46-.26-.79-.53-.92-.07.07-.2.13-.39.2l-.66.26c-.53.33-.59.46-.72.53m-8.55,1.51c-.07,0-.13.07-.26.07-.33-.07-.59-.2-.79-.26-.26-.13-.39-.13-.53-.13s-.26.07-.39.26c-.2.2-.33.26-.46.26-.07,0-.2-.07-.39-.2s-.33-.26-.33-.39c0-.07.07-.13.13-.26.07-.07.07-.2.07-.26,0-.13-.07-.26-.13-.39-.07-.13-.13-.26-.13-.26,0-.13.07-.26.13-.39.07-.2.13-.33.13-.39,0-.13-.07-.33-.13-.39-.13-.13-.13-.2-.13-.2v-.46c-.07-.13-.39-.2-.85-.33v-.13s.07-.07.2-.13l.13-.13c0-.13-.07-.2-.26-.2-.2-.07-.33-.13-.39-.2-.2-.33-.46-.46-.72-.46-.13,0-.53,0-1.05.07-.72.07-1.05.13-1.12.2-.2.26-.53.46-.99.46-.33.07-.53.2-.53.46-.33,0-.59.07-.59.33-.07.33-.2.59-.33.72-.2.2-.46.39-.85.59-.39.2-.66.33-.72.33-.33,0-.72-.13-1.12-.33-.33-.2-.53-.26-.72-.33-.07.13-.13.2-.2.33-.2.2-.33.26-.33.33,0,.13.13.26.33.39.2.13.26.26.26.33,0,.13-.13.33-.46.53s-.59.46-.66.66c-.07.07-.07.13-.07.26v.33c-.07.13-.13.26-.26.39-.13.13-.13.2-.13.33,0,.07.07.2.13.53s.13.53.26.59c.13.07.2.13.2.2,0,.13-.26.26-.79.33-.53.13-.79.33-.79.53l.2.39c.13.26.2.53.2.66,0,.2.13.33.26.33.13.07.33.13.72.26.33.13.79.53,1.38,1.18s.85,1.25.85,1.77v.39c.2-.07.33-.07.53-.07l1.31.39c.92.26,1.51.39,1.84.39.2,0,.46-.13.79-.39.33-.26.59-.39.85-.39l.59.07c.46,0,.79-.26.99-.85.13-.66.33-1.05.39-1.25.07-.13.2-.2.46-.33.2-.13.33-.2.39-.26.07-.13.2-.26.33-.39.07-.07.2-.2.53-.46.2-.13.39-.46.72-1.05.26-.46.66-.79,1.12-.99.2-.13.53-.46.85-1.12.33-.59.46-.92.46-1.12-.13-.13-.13-.33-.13-.72m.07-14.07c0-.2-.07-.46-.13-.85-.07-.2-.13-.46-.2-.66-.2,0-.39-.07-.66-.13-.46-.07-.72-.13-.85-.13s-.33,0-.46.07-.26.07-.26.07c-.26-.07-.53-.13-.79-.2-.53-.13-.79-.2-.85-.2-.2,0-.33,0-.46-.07-.2,0-.33-.07-.39-.13-.13-.13-.2-.26-.26-.26-.07-.07-.2-.13-.33-.13-.07,0-.2,0-.33.07s-.2.07-.33.07l-.72-.07c-.2,0-.46.07-.72.13-.33.07-.46.13-.53.13-.13,0-.39-.07-.72-.2-.33-.13-.66-.2-.92-.2h-.66c-.07.07-.13.2-.2.26.07.26-.07.53-.39.72-.33.26-.53.53-.46.79.07.26,0,.53-.26.85s-.46.59-.46.72,0,.2.07.33.07.2.07.26-.13.46-.46,1.25-.46,1.25-.46,1.51c0,.13.07.53.26,1.25.13.13.2.2.2.33s-.07.2-.26.2h-.2c-.07,0-.13.07-.2.13.26.07.53.13.72.26.26.13.39.2.46.2s.13,0,.26-.07c.13,0,.33.07.72.2s.59.2.59.2c.2,0,.33-.2.33-.59s.07-.59.26-.59c.13,0,.2.07.2.13s.07.13.13.13c.13,0,.26-.07.26-.26.07-.2.13-.33.2-.39.2-.07.33-.2.33-.2.07-.07.13-.13.13-.26h.26c.07.07.13.13.2.13.13-.13.33-.26.46-.46.33-.26.53-.46.72-.46.26,0,.46-.2.59-.46.07-.33.2-.46.39-.46.07,0,.2.07.39.13.2.13.33.13.39.13l.33-.2c.2-.13.39-.2.53-.2.33,0,.59.07.66.26.2.33.39.53.53.66.13.07.46.2.99.39.2.07.39.2.53.33.07.07.2.07.39.07.39,0,.59-.07.72-.2.07-.13.26-.2.46-.2.13,0,.2.07.2.2,0,.07,0,.2.07.33h.26c.2-.07.26-.13.33-.13.2,0,.39.07.66.2.33.07.53.07.59,0,.13-.07.13-.2.13-.33l-.07-.46c0-.07,0-.13.07-.2v-.2c-.13-.26-.26-.46-.39-.46.07.13,0,.2-.13.26-.2,0-.33.07-.33.07,0,0-.07.07-.2.26-.07.13-.2.2-.26.2-.13,0-.26-.13-.46-.33-.13-.2-.26-.33-.33-.33h-.26c-.07,0-.13-.07-.13-.13,0-.13.07-.39.26-.85l.26-.66c0-.07-.07-.2-.13-.39-.07-.2-.13-.39-.13-.53s.07-.26.13-.33c0-.2.07-.26.07-.33m9.4-29.32c0-.26-.07-.39-.26-.53-.13-.13-.33-.13-.46-.13-.2,0-.33-.07-.53-.2-.2-.13-.33-.2-.46-.2s-.26-.13-.39-.39c-.07-.07-.07-.13-.13-.13-.07.07-.07.13-.13.2-.07.2-.2.33-.26.46-.13.13-.2.26-.2.33,0,.13.07.2.2.33.07.13.07.26.07.46,0,.13-.07.26-.13.53-.13.33-.26.59-.39.72-.07.07-.2.2-.33.26-.07,0-.07.07-.13.07,0,.07.07.13.13.13l.39-.13c.07,0,.13.13.13.33.07.13.33.2.66.26.07-.07.2-.13.26-.13.07-.07.13-.13.2-.26v-.33c0-.13.07-.2.13-.2.2,0,.33-.07.39-.2.07-.07.07-.2.13-.33.13-.2.33-.33.66-.33.13,0,.26.07.33.2.13.26.2.46.26.53.07,0,.13,0,.2-.13.07-.07.07-.13.07-.2,0-.13-.07-.33-.2-.53-.2-.26-.2-.39-.2-.46m7.89-7.56c-.2-.26-.33-.39-.39-.39l-.72-.26c-.13-.07-.26-.2-.33-.46h-.07c-.07,0-.13-.07-.26-.13s-.2-.13-.26-.13-.2.07-.39.13c-.13.13-.33.2-.39.2-.13.07-.26.07-.33.07-.13,0-.2.07-.33.13-.07.13-.2.2-.33.26,0,0-.33.07-.85.13-.46.07-.72.2-.85.33-.07.07-.59.39-1.45.92-.72.46-1.05.79-1.05,1.12,0,.07,0,.13.07.2,0,.07-.07.2-.2.39-.13.2-.26.33-.39.39-.2.07-.33.26-.39.46,0,.07-.07.13-.13.26h0c.13,0,.33,0,.59-.07s.53-.07.72-.07c.39,0,.66.2.79.59s.39.66.72.72c.2,0,.33.13.46.26.13.13.2.26.33.26h.66c.33,0,.46.07.46.2l-.26.53c0,.07.26.33.85.79.59.46.92.66,1.05.66.07,0,.13,0,.2-.07.07,0,.13-.07.13-.07.07,0,.2.07.26.2.07.07.13.2.13.33,0,.07.07.13.2.2.07.07.2.07.33.13.2.13.33.26.46.53.13.2.2.46.2.66s-.07.39-.13.66c0,0,.13.13.39.26.33.2.59.46.79.72.13.13.26.59.53,1.31,0,.13-.07.26-.13.33-.07.13-.13.2-.13.2,0,.13.33.26.92.46.07,0,.2-.07.39-.2,0-.07.07-.13.13-.2.13-.13.26-.26.33-.39,0-.33.07-.53.2-.72.26-.66.66-.92,1.05-.92,0-.07-.07-.13-.13-.2-.13-.13-.13-.2-.13-.26l.07-.33c0-.2-.13-.46-.46-.79s-.46-.59-.46-.79c0-.13.07-.26.13-.39.07-.13.26-.26.53-.39,0-.13-.07-.26-.2-.39-.2-.2-.26-.33-.33-.46s-.2-.26-.39-.53-.39-.39-.46-.39-.13,0-.26.07-.2.07-.26.07-.2,0-.26-.07c-.07-.07-.13-.07-.26-.07h-.33c-.13,0-.2-.07-.2-.2s.07-.2.13-.2c.07-.07.13-.13.13-.2,0-.33-.07-.59-.26-.85-.2-.26-.33-.46-.33-.66,0-.13.07-.2.13-.26.07-.07.13-.13.13-.26s0-.2-.07-.26-.07-.2-.07-.39c0-.26.07-.46.13-.46l.39.07c.13,0,.33-.13.72-.33.33-.2.53-.39.53-.53l-.07-.53c0-.07-.07-.13-.13-.2-.07-.13-.13-.2-.13-.26,0-.2-.07-.33-.2-.46s-.33-.2-.53-.2c-.33.33-.53.26-.66.2m-18.08,17.55l-.07.07c-.07.07-.13.13-.13.2,0,0-.07.2-.2.46-.07.2-.13.33-.2.39s-.07.2,0,.2c0,.07-.07.13-.13.2-.13.13-.2.2-.26.26-.13.13-.2.33-.26.59-.07.2-.2.39-.39.53-.26.13-.46.2-.66.33-.07.07-.2.2-.26.39-.07.07-.13.2-.33.39-.13.13-.2.26-.2.39,0,.2.07.33.2.46s.13.2.13.26c0,.13-.07.26-.2.39s-.2.26-.2.33l.07.33v.2c0,.07-.07.2-.2.26h-.07c.26.2.46.39.46.59.07.33.13.53.26.59.2.13.33.33.39.66.07.2.26.39.66.53.2.07.46.13.85.2.26.07.39.26.39.53,0,.13.13.33.33.66.07.07.07.26.07.59,0,.2.13.33.33.33.39.13.59.13.66.2,0,0,.07,0,.13.07.13.07.26.2.53.33.13.07.39.13.72.13l.72-.07c.13,0,.33.07.59.2.26,0,.53-.26.66-.79l.26-.99c.07-.07.2-.2.46-.33.2-.13.33-.2.33-.33s0-.33.07-.59.2-.39.26-.39c.13,0,.26.07.33.13.07.13.2.2.33.2.07,0,.13.13.13.26s.07.2.13.2c.13,0,.26-.13.2-.33,0-.26.13-.39.33-.39l.26.13c.2.07.33.13.39.13s.26-.07.53-.26c.26-.2.46-.26.59-.26.07,0,.13.07.2.13.2,0,.39-.13.53-.46s.46-.46.99-.46c0,0,.2-.07.53-.26.13-.07.33-.2.59-.33.33-.2.46-.33.46-.46,0,0,0-.07-.07-.2h.26c.07,0,.33.07.72.13.13,0,.26-.13.46-.33l.33-.33c.07,0,.13,0,.26.07.07.07.2.07.33.07.07,0,.2-.07.39-.13s.33-.13.39-.13.2,0,.2.07c.07,0,.13.07.2.07.13,0,.2-.13.2-.33s.13-.33.33-.33c.07,0,.13.07.26.13.07.07.26.13.46.13l.66-.07c.13,0,.26.07.33.26.2-.13.46-.2.66-.33.33-.13.53-.26.66-.39,0-.07.07-.2.07-.39,0-.33.2-.72.59-1.05.2-.2.39-.33.59-.53l-.13-.59c0-.07.07-.13.13-.2.13-.07.2-.13.33-.13v-.26c0-.13-.07-.26-.2-.33s-.33-.13-.66-.13c-.26,0-.46.07-.66.2-.2.13-.33.2-.46.2-.07,0-.2-.07-.26-.2-.07-.13-.13-.26-.13-.33,0-.13-.13-.2-.26-.26s-.26-.13-.26-.2l.07-.39c0-.13,0-.26-.07-.33-.07-.13-.13-.2-.26-.2-.07,0-.13,0-.13.07-.07,0-.07.07-.13.13-.13.13-.26.2-.53.2s-.53.07-.66.13c-.07,0-.13.07-.26.13h-.07c-.2.13-.39.33-.53.66-.13.26-.2.46-.33.46s-.2-.07-.26-.2c-.07-.13-.2-.2-.33-.2s-.33.2-.59.53-.46.53-.53.59c-.26.2-.59.46-.99.72s-.66.39-.79.39c-.07,0-.2,0-.33-.07s-.2-.07-.26-.07c-.13,0-.26.13-.33.33s-.13.33-.2.33c-.2,0-.33-.13-.46-.46s-.26-.53-.26-.53c-.07-.07-.26-.07-.53-.07s-.46.07-.53.07c-.2,0-.46-.07-.72-.13-.26-.07-.46-.13-.46-.13-.13,0-.2.07-.2.13,0,.13,0,.26.07.33s.07.2.07.26c0,.2,0,.33-.07.39-.07.13-.2.2-.46.2l-.46-.07c-.07,0-.2,0-.33.07s-.26.07-.33.07c-.2,0-.39-.07-.53-.26-.2-.2-.46-.33-.85-.39-.07,0-.2-.07-.33-.2-.2-.13-.33-.2-.39-.2-.39-.07-.66-.2-.85-.33-.33-.2-.66-.33-.85-.46-.39-.26-.66-.46-.66-.66l-.07-.33c0-.07-.07-.13-.2-.2-.13-.07-.2-.13-.26-.2,0,0-.2-.2-.59-.53-.07-.26-.2-.33-.26-.46m16.3.92h0m13.54-20.31c-.13-.07-.26-.13-.33-.13-.2-.2-.46-.33-.72-.33-.13,0-.26.07-.33.26s-.13.26-.26.26-.2-.07-.26-.26c-.07-.2-.13-.33-.13-.33-.13-.07-.33-.13-.66-.2-.13.13-.26.26-.33.33s-.26.07-.53.13c-.07,0-.2.07-.39.13-.26.07-.39.2-.39.26,0,0,.07.07.26.13.13.13.2.33.2.59,0,.13.07.33.2.46.07.07.26.26.53.39.26.2.39.33.46.33.2.13.39.2.59.2.07,0,.26.07.59.13.26.07.46.13.46.13.33,0,.46-.13.46-.46,0-.07-.07-.2-.2-.46-.13-.26-.2-.39-.2-.39,0-.07,0-.13.07-.2q.07-.07.13-.07s.13,0,.26.07c.13,0,.26-.13.46-.46,0-.26.07-.39.07-.53h0m-5.72-1.31c-.13-.07-.2-.13-.2-.13-.13-.07-.13-.2-.13-.33,0-.07-.07-.13-.2-.13-.2,0-.33.07-.39.26-.2.39-.33.59-.39.66s-.2.2-.46.33c-.33.2-.46.26-.46.33-.13.07-.2.2-.33.33-.13.26-.2.39-.2.39-.07.13-.13.2-.13.33.07.2.13.33.33.33.39.07.59.13.72.33.07.07.07.26.07.53,0,.13-.07.39-.2.79-.13.46-.2.66-.2.66,0,.07.07.13.13.2.07.07.13.13.2.13s.2-.07.26-.13c.13-.07.2-.13.33-.13s.2.13.26.39c.07.33.07.53.13.53.13.13.59.33,1.38.59h.85c0-.07.07-.13.07-.13,0-.13-.13-.2-.33-.26s-.33-.13-.33-.2l.07-.26c0-.13,0-.2-.07-.26s-.07-.13-.07-.26.07-.26.26-.26c.07,0,.13,0,.2.07s.2.07.33.07c.39,0,.59-.13.59-.33,0-.07-.13-.13-.33-.13s-.33-.07-.33-.13c-.13-.39-.2-.66-.2-.72l.2-.79c0-.13-.13-.33-.39-.46-.26-.13-.39-.33-.39-.59,0-.13-.07-.33-.2-.53s-.2-.33-.2-.46c0-.07,0-.13.07-.13,0-.07.07-.07.07-.13-.26-.13-.26-.2-.39-.33Z" style="fill: none; stroke: #fff; stroke-miterlimit: 10; stroke-width: .69px;"/>
                <path d="m188.02,94.94c-.2,0-.33-.13-.53-.26-.13-.13-.26-.2-.46-.13l-.39.39h-.2l-.39-.07c-.13,0-.26.07-.26.2,0,.07.07.13.2.26l.2.2-.13.13c-.07.07-.13.13-.13.2,0,.13.07.2.26.2.26,0,.46,0,.53.07.07,0,.13.13.2.26s.13.2.26.2c.2,0,.33-.13.39-.33s.2-.33.33-.33c.07,0,.13,0,.2.07.13.07.2.07.26.07s.13-.07.26-.13c.13-.07.2-.13.2-.2,0-.2-.13-.39-.39-.59,0-.07-.2-.13-.39-.2m15.91-19c0,.07-.13.26-.46.46-.26.13-.46.26-.59.33-.33.2-.46.26-.53.26-.53,0-.85.13-.99.46-.13.26-.33.46-.53.46-.07-.07-.13-.13-.2-.13-.13,0-.33.07-.59.26s-.46.26-.53.26-.2-.07-.39-.13-.26-.13-.26-.13c-.2,0-.33.13-.33.39s-.07.33-.2.33-.13-.07-.13-.2,0-.26-.13-.26c-.13-.07-.26-.13-.33-.2-.07-.07-.2-.13-.33-.13s-.2.13-.26.39c-.07.26-.13.46-.07.59,0,.13-.07.2-.33.33s-.39.26-.46.33l-.26.99c-.13.53-.33.79-.66.79-.33-.13-.53-.2-.59-.2l-.72.07c-.33,0-.53-.07-.72-.13-.2-.13-.39-.26-.53-.33-.13.2-.26.26-.46.33l-.39.13c0,.07.07.2.2.33s.13.26.13.39-.07.26-.13.33c-.13.13-.2.2-.26.33-.07.13-.13.26-.13.39v.39c0,.2,0,.46-.07.92,0,.26-.07.46-.13.59-.07.13-.13.26-.13.39,0,.07.13.2.33.46.26.26.33.39.33.39,0,0,.2,0,.46-.07.26,0,.39.07.39.2,0,.07-.07.2-.2.39-.13.2-.26.26-.33.26h-.53c.07.2.13.39.2.66.13.33.13.66.13.85,0,.07-.07.13-.13.2-.07.07-.13.2-.13.33s.07.33.13.53c.07.26.13.39.13.39l-.26.66c-.13.46-.26.72-.26.85s.07.13.13.13h.26c.07,0,.13.13.33.33.13.2.33.33.46.33.07,0,.2-.07.26-.2.13-.13.2-.26.2-.26,0,0,.13,0,.33-.07.13,0,.13-.13.13-.26.13,0,.26.13.39.46v.07c.07,0,.13,0,.13-.07.13-.07.2-.07.26-.07.13,0,.2.07.33.2s.2.2.33.2h.79c.33.07.46.39.46.92,0,.13-.07.26-.26.33-.2.13-.26.2-.26.26s.13.26.39.46c.2.2.33.46.26.72-.07.2,0,.39.2.53.13.13.33.2.59.2.59-.07,1.12-.07,1.58,0,.26.07.46.13.72.2-.26.13-.59.26-.92.46-.66.46-1.12.72-1.31.79-.26.13-.46.33-.53.66-.07.39-.13.66-.13.66-.07.07-.2.13-.39.13s-.33.07-.39.07c-.2.39-.39.53-.53.53s-.26-.07-.39-.07c-.2,0-.26.07-.33.13,0,.13-.07.2-.07.2,0,.07-.07.07-.2.2-.07.07-.2.2-.39.46-.2.2-.33.2-.59.13,0,.07-.07.13-.07.39-.07.2-.2.26-.46.26-.13,0-.33-.07-.46-.26-.13-.2-.26-.26-.26-.26-.07,0-.2,0-.26.07-.07,0-.13.07-.13.13s.07.2.13.33c0,0,0,.13-.07.26s-.07.26-.07.33c0,.26.07.46.26.59l.2.2c0,.07-.07.07-.26.13v.66c0,.13-.13.53-.46,1.12s-.66.99-.85,1.12c-.46.2-.79.53-1.12.99-.33.59-.59.92-.72,1.05-.33.26-.53.39-.53.46-.13.13-.26.26-.33.39-.07.07-.2.13-.39.26-.26.13-.39.26-.46.33-.13.2-.26.59-.39,1.25-.2.59-.53.85-.99.85l-.59-.07c-.26,0-.59.13-.85.39-.33.26-.59.39-.79.39-.26,0-.92-.13-1.84-.39l-1.31-.39c-.2,0-.33,0-.53.07,0,.39.13.85.26,1.25.2.59.39,1.05.46,1.38.13.39.26.72.39,1.05.07.13.26.46.53.92l.72,1.58c0,.07-.13.2-.33.33s-.33.33-.33.53c0,.13.07.26.2.46.13.2.2.39.2.66s.07.46.26.72c.33.39.66.79.92,1.25.33.46.53.79.66.85.26.26.85.66,1.71,1.12,0,0,.13.07.39.07v-.2c-.07-.2-.07-.39-.07-.46,0-.26.13-.59.33-.92.2-.39.33-.66.33-.92l-.07-.59c0-.07,0-.13-.07-.26s-.07-.2-.07-.26.07-.2.13-.46c.07-.26.13-.39.13-.53,0-.07-.07-.2-.2-.33s-.2-.39-.2-.66.13-.53.33-.85.33-.59.33-.79c-.13-.33-.13-.66-.07-.85.13-.2.2-.46.26-.85.07-.33.2-.66.26-.85.13-.2.26-.33.39-.33.07,0,.2.07.33.2s.26.2.39.2.33,0,.46-.07c.2-.07.33-.07.39-.07s.13,0,.2.07.13.07.13.07c.26,0,.46-.13.53-.39.13-.33.2-.53.2-.53.07-.07.33-.2.79-.39.2-.13.46-.2.66-.26.2,0,.26.13.26.39,0,.07,0,.13-.07.33,0,.07.13.13.33.13s.39-.13.59-.33c.2-.2.33-.33.39-.33.46,0,.85.26,1.31.72.46.46.66.72.66.72.13,0,.26-.13.33-.39.07-.26.26-.46.59-.46.07,0,.2.07.39.13.2.07.33.13.46.13h.07c.13,0,.2-.07.26-.13s.07-.13.07-.2c0-.13-.13-.26-.39-.39-.2-.13-.33-.13-.46-.2,0-.07-.07-.33-.26-.85-.2-.46-.26-.72-.26-.85,0-.2.07-.39.2-.59.2-.33.26-.53.33-.72.07-.26.33-.53.72-.79.33-.2.53-.39.53-.53s-.07-.26-.2-.46-.2-.33-.2-.33c0-.07.07-.26.26-.59.13-.33.2-.59.13-.92v-.33c0-.07,0-.13-.07-.2-.07-.13-.07-.2-.07-.2,0-.2.13-.39.33-.53.2-.2.33-.33.33-.39s-.07-.2-.13-.33c-.07-.13-.13-.26-.13-.39s.07-.33.2-.53c0,0,.13-.2.39-.39l.53-.53s.26-.07.66-.2c.13-.07.26-.13.33-.2.13-.13.26-.2.39-.26l.66-.26c.2-.07.33-.13.39-.2s.07-.07.07-.13c0-.39-.26-.72-.72-.99-.46-.26-.72-.53-.72-.72,0-.13.2-.33.59-.66.39-.33.59-.46.59-.53,0-.2-.07-.46-.13-.66.07-.07.2-.07.26-.13.33-.2.46-.39.46-.53,0-.07-.07-.13-.13-.2-.07-.07-.13-.2-.13-.26s.07-.13.2-.26.2-.2.2-.33c-.07-.13-.07-.2-.07-.26,0-.13.13-.26.46-.33.13,0,.33-.07.46-.07.2,0,.33,0,.53.07s.33.07.39.07c.13,0,.33-.2.53-.53.13-.33.26-.53.26-.66,0,0,0-.13-.07-.33s-.13-.26-.13-.33v-.13h.2l.39.13c.13,0,.2-.07.26-.2.07-.2.2-.26.2-.33.33-.2.53-.33.53-.33.13-.13.2-.39.26-.72.07-.39.07-.66.13-.85.07-.2.13-.39.2-.66s.13-.46.13-.53-.13-.26-.33-.53c0-.07,0-.2.07-.26s.07-.13.07-.26c0-.07-.13-.2-.39-.33-.26-.13-.39-.26-.39-.39s.07-.26.26-.33c.2-.07.33-.2.39-.26.07-.13.13-.26.13-.39,0-.2.07-.33.07-.46.07-.33.13-.66.2-.85,0-.07.13-.2.33-.33s.33-.26.33-.33-.07-.13-.13-.26c-.07-.13-.13-.2-.13-.26s.07-.13.13-.2c.07-.07.13-.13.13-.26v-1.25c0-.13-.07-.26-.2-.39-.13-.2-.2-.26-.2-.26l.33-.33c.2-.26.26-.53.26-.85l-.07-.39c0-.07.2-.33.59-.85.2-.26.39-.53.59-.79,0,0,0-.07-.07-.2-.07-.07-.13-.13-.13-.2s-.2-.13-.46-.26c-.2-.13-.33-.2-.39-.26s-.13-.26-.13-.46.07-.33.2-.39c.2-.2.33-.33.39-.39.07-.13.26-.2.53-.33.26-.07.39-.2.39-.26v-.33c0-.07-.07-.13-.07-.2s-.07-.07-.07-.13c-.07-.13-.2-.26-.33-.26l-.66.07c-.2,0-.39-.07-.46-.13-.07-.07-.2-.13-.26-.13-.2,0-.33.13-.33.33s-.07.33-.2.33c-.07,0-.13,0-.2-.07-.07,0-.13-.07-.2-.07s-.2.07-.39.13-.33.13-.39.13c-.13,0-.26,0-.33-.07s-.2-.07-.26-.07-.2.13-.33.33c-.2.2-.33.33-.46.33-.39-.07-.66-.13-.72-.13h-.26c.59.53.59.59.59.59m-6.57-13.35c0,.07-.2.13-.53.2-.39,0-.66.07-.85.2-.07.07-.2.2-.39.39-.2.2-.33.33-.33.39s0,.13.07.2c.07.07.07.13,0,.2,0,.07-.13.07-.39.13h.13-.33c-.26,0-.46.13-.53.33-.13.33-.2.66-.39.92-.07.13-.2.39-.26.79-.13.46-.2.79-.26.92-.13.26-.26.53-.39.79-.07.07-.13.13-.2.2-.26.26-.46.46-.66.53-.13.07-.2.13-.26.26l-.07.07c.07.13.13.2.26.33.33.33.53.46.59.53,0,.07.13.13.26.2.13.07.2.13.2.2l.07.33c0,.2.26.46.66.66.2.13.53.26.85.46.2.13.46.26.85.33.13,0,.26.07.39.2.13.13.26.2.33.2.39.07.72.2.85.39.13.2.33.26.53.26.07,0,.2,0,.33-.07s.26-.07.33-.07l.46.07c.2,0,.39-.07.46-.2.07-.07.07-.2.07-.39,0-.13,0-.2-.07-.26s-.07-.2-.07-.33c0-.07.07-.13.2-.13.07,0,.2.07.46.13s.53.13.72.13c.07,0,.26,0,.53-.07.26,0,.39,0,.53.07,0,0,.07.2.26.53.13.26.26.46.46.46.07,0,.13-.13.2-.33s.2-.33.33-.33c0,0,.13,0,.26.07.13,0,.26.07.33.07.13,0,.39-.13.79-.39.39-.26.72-.46.99-.72.07-.07.26-.26.53-.59.26-.33.46-.53.59-.53s.26.07.33.2c.07.13.13.2.26.2s.2-.13.33-.46.33-.59.53-.66h.07l-.2-.39c0-.07,0-.13.07-.2.07-.13.07-.2.07-.2,0-.13-.07-.26-.2-.46-.07-.07-.13-.2-.26-.26-.07-.07-.13-.13-.2-.2-.07-.13-.13-.26-.26-.39s-.26-.2-.39-.2c-.07,0-.13,0-.2.07s-.2.07-.33.07c-.39-.07-.72-.13-.92-.13-.13,0-.33.07-.66.13l-.39.13c-.39,0-.66-.13-.66-.33,0-.13.07-.2.13-.33.07-.07.13-.2.13-.26,0-.13-.07-.26-.2-.39s-.2-.26-.2-.39.07-.26.13-.39c.07-.13.13-.26.13-.33,0-.13-.07-.26-.13-.39-.13-.13-.13-.26-.2-.33,0-.13-.13-.2-.26-.26-.2-.07-.33-.07-.39-.13-.07,0-.33-.26-.72-.66s-.72-.66-.92-.72c.07-.13.07-.2.13-.26.07-.07.07-.13.07-.2,0-.13,0-.2-.07-.2h-.26c-.07,0-.2-.07-.33-.13-.07-.07-.2-.07-.26-.07h-.39c-.33,0-.53-.07-.66-.26,0-.2-.07-.33-.13-.33l-.39.13c-.07-.07-.07-.13-.13-.13-.13.07-.13.13-.2.2v.33c0,.13-.07.2-.2.2-.26.07-.46.2-.53.46,0-.07,0,.07,0,.26m25.05-7.49c0,.07.07.2.2.33s.2.26.2.39-.26.33-.72.46c-.53.13-.79.2-.85.2,0,0-.07.2-.13.66-.07.39-.26.59-.46.59-.07,0-.13-.07-.33-.13s-.26-.13-.33-.13c-.26,0-.46.07-.59.26-.07.2-.2.33-.26.46-.13.13-.26.26-.53.39l-.66.33c-.79.26-1.25.46-1.38.53s-.2.26-.2.66c0,.13,0,.26.07.33s.07.2.07.46c0,.13-.07.26-.13.33-.07.07-.2.2-.33.33s-.26.26-.33.26c-.07.07-.2.13-.39.13-.46.07-.79.2-.92.33-.07.07-.26.2-.53.33-.26.13-.46.2-.53.13h-.07c-.39-.07-.72.26-1.05.92-.07.2-.13.39-.2.72-.07.13-.2.26-.33.39-.07.07-.13.13-.13.2h0c.07.46,0,.72-.33.79v.72c0,.07-.13.26-.46.53-.07.07-.13.13-.2.26-.07.13-.07.26-.13.26-.39.33-.66.53-.79.66-.26.2-.39.46-.39.79.07,0,.13-.07.13-.07.07,0,.2.07.26.2.07.13.07.2.07.33l-.07.39c0,.07.07.13.26.2.2.07.26.13.26.26,0,.07.07.2.13.33.07.13.2.2.26.2.13,0,.26-.07.46-.2.2-.13.39-.2.66-.2s.53.07.66.13.2.2.2.33c.2.07.39.2.59.39.33.33.59.46.72.46l.79-.13c.07,0,.39.13.92.33.53.2.85.33.99.33.07,0,.13,0,.13-.07.07,0,.07-.07.07-.07,0-.07-.07-.13-.13-.2-.07-.07-.13-.07-.2-.13v-.2h.26c.07.07.13.07.13.07.07,0,.13-.07.2-.13s.07-.13.07-.2c0,0,0-.07-.07-.13s-.07-.13-.13-.13h.2c.2.07.33.13.39.2.07.07.13.13.26.33.07.07.2.13.39.2.26.07.39.13.53.2.07.07.33.13.66.2.39.07.72.13,1.05.26.07.07.2.07.26.13.07-.13.13-.26.13-.46,0-.53-.07-.92-.07-1.25.07-.39.2-.79.39-1.18.07-.26.13-.46.2-.66.07-.26.2-.39.33-.46.07,0,.26-.07.66-.2.33-.07.53-.2.53-.33,0,0-.13-.07-.33-.2-.2-.13-.33-.26-.33-.33,0-.13.07-.26.26-.46q.07-.07.13-.13c.13-.07.2-.13.33-.2,0-.13,0-.26.07-.46l.07-.33c0-.59-.13-1.18-.39-1.84-.26-.66-.39-1.05-.39-1.12v-.59c0-.2-.07-.39-.13-.53-.26-.39-.46-.66-.46-.72-.07-.07-.07-.33-.07-.66,0-.2,0-.53.07-.92.07-.59.13-1.05.2-1.31.13-.39.26-.79.39-1.05.13-.2.2-.39.33-.46.13-.2.39-.39.66-.59.13-.13.26-.33.26-.59s.13-.46.33-.53c.13-.07.59-.33,1.45-.72,0,0,.07,0,.07-.07-.07-.07-.13-.07-.26-.07s-.33.07-.66.13c-.39.13-.66.26-.79.39-.07.07-.33.07-.79.13-.2-.13-.39,0-.39.26Z" style="fill: none; stroke: #fff; stroke-miterlimit: 10; stroke-width: .69px;"/>
              </g>
            </g>
          </g>
        </g>
        <path d="m267.66,235.59c-63.66,18.67-130.51-17.86-149.18-81.53C99.81,90.39,136.34,23.55,200.01,4.88c63.66-18.67,130.51,17.86,149.18,81.53,18.67,63.67-17.86,130.51-81.53,149.18Zm-4.27-15.72c-55.25,16.2-113.25-15.5-129.44-70.74-16.2-55.24,15.5-113.25,70.74-129.44,55.24-16.2,113.25,15.5,129.44,70.74,16.2,55.24-15.5,113.25-70.74,129.44Z" style="fill: #efaf3f; fill-rule: evenodd; stroke-width: 0px;"/>
        <path d="m237.01,10.51s-40.94-2.66-70.78,25.02c-1.2,1.11-3.09,1.04-4.2-.16-1.11-1.21-1.04-3.09.16-4.2C193.9,1.76,237.39,4.58,237.39,4.58c1.64.1,2.88,1.52,2.77,3.16-.11,1.64-1.52,2.88-3.16,2.77Z" style="fill: #ffe6ca; fill-rule: evenodd; stroke-width: 0px;"/>
        <ellipse cx="247.78" cy="7.96" rx="3.52" ry="3.67" transform="translate(197.74 250.76) rotate(-80.19)" style="fill: #ffe6ca; stroke-width: 0px;"/>
      </g>
    </g>
  </g>
</svg>