<?xml version="1.0" encoding="UTF-8"?>
<svg id="_圖層_2" data-name="圖層 2" xmlns="http://www.w3.org/2000/svg" width="345.22" height="339.53" xmlns:xlink="http://www.w3.org/1999/xlink" viewBox="0 0 345.22 339.53">
  <defs>
    <clipPath id="clippath">
      <path d="m152.96,63.55l.87.75c.29.25.75.31,1.3.12,1.11-.38,2.19-1.63,2.41-2.78.11-.58-.01-1.03-.31-1.28l-.87-.75c.29.25.42.7.31,1.29-.22,1.16-1.3,2.4-2.41,2.78-.55.19-1.01.13-1.3-.12Z" style="fill: #feb923; stroke-width: 0px;"/>
    </clipPath>
    <clipPath id="clippath-1">
      <path d="m239.51,144.11l8.4,3.26c-8.61-3.34-19.43-.97-30.38,7.9l-8.4-3.26c7.81-6.32,15.56-9.34,22.48-9.34,2.78,0,5.43.49,7.9,1.44h0Z" style="fill: #f7f7ff; stroke-width: 0px;"/>
    </clipPath>
    <clipPath id="clippath-2">
      <path d="m217.53,155.26c-21.77,17.61-35.83,54.19-31.4,81.7,2.2,13.67,8.55,22.53,17.05,25.82l-8.4-3.26c-8.5-3.29-14.85-12.15-17.05-25.82-4.43-27.51,9.63-64.09,31.4-81.7l8.4,3.26Z" style="fill: #f7f7ff; stroke-width: 0px;"/>
    </clipPath>
    <clipPath id="clippath-3">
      <path d="m232.62,258.81l-12.2,8.01c.43-.25,1.03-.22,1.68.16l12.62-7.97c-.48-.27-.93-.41-1.33-.41-.29,0-.55.07-.78.2h0Z" style="fill: none; stroke-width: 0px;"/>
    </clipPath>
    <clipPath id="clippath-4">
      <path d="m222.1,266.98c1.31.75,2.36,2.59,2.36,4.09,0,.75-.27,1.27-.69,1.52l13.04-6.57c.53-.31.86-.97.86-1.9,0-1.87-1.31-4.16-2.95-5.11l-12.62,7.97Z" style="fill: none; stroke-width: 0px;"/>
    </clipPath>
    <clipPath id="clippath-5">
      <path d="m220.46,268.23l-26.35,17.04c.09-.05.2-.04.33.03l27.12-16.96c-.25-.14-.49-.21-.7-.21-.15,0-.29.04-.41.1h0Z" style="fill: #595964; stroke-width: 0px;"/>
    </clipPath>
    <clipPath id="clippath-6">
      <path d="m194.44,285.3c.26.15.47.51.46.81,0,.15-.05.25-.14.3l27.89-14.38c.28-.16.45-.51.45-1,0-.98-.69-2.19-1.55-2.68l-27.12,16.96Z" style="fill: #595964; stroke-width: 0px;"/>
    </clipPath>
    <clipPath id="clippath-7">
      <path d="m257.97,209.58l-13.03-2.18c.55-.67,1.17-.95,1.73-.85l13.03,2.18c-.56-.09-1.18.18-1.73.85h0Z" style="fill: #e8e9fe; stroke-width: 0px;"/>
    </clipPath>
    <clipPath id="clippath-8">
      <path d="m257.1,214.89c.3.8.8,1.25,1.35,1.35l-13.03-2.18c-.55-.09-1.05-.55-1.35-1.34-.61-1.6-.22-3.98.87-5.31l13.03,2.18c-1.09,1.33-1.48,3.71-.87,5.31h0Z" style="fill: #e8e9fe; stroke-width: 0px;"/>
    </clipPath>
    <clipPath id="clippath-9">
      <path d="m321.19,222.38l-62.57-12.13c.42-.51.9-.72,1.32-.65l61.24,12.78Z" style="fill: none; stroke-width: 0px;"/>
    </clipPath>
    <clipPath id="clippath-10">
      <path d="m321.19,222.38l-62.21-7.04c-.42-.07-.8-.42-1.03-1.03-.47-1.23-.17-3.04.67-4.07l62.57,12.13Z" style="fill: none; stroke-width: 0px;"/>
    </clipPath>
    <clipPath id="clippath-11">
      <path d="m175.93,263.6v3.3c-.02,2.24-1.49,4.48-4.44,6.2-5.93,3.45-15.58,3.45-21.55,0-3.01-1.74-4.51-4.01-4.5-6.29v-3.3c0,2.27,1.5,4.55,4.51,6.29,5.97,3.45,15.62,3.45,21.55,0,2.94-1.71,4.42-3.95,4.43-6.2Z" style="fill: #dddffe; stroke-width: 0px;"/>
    </clipPath>
    <clipPath id="clippath-12">
      <path d="m170.36,254.66v1.58c0,1.42-.94,2.83-2.8,3.92-3.75,2.18-9.85,2.18-13.62,0-1.9-1.1-2.85-2.54-2.84-3.97v-1.58c0,1.44.95,2.88,2.85,3.97,3.78,2.18,9.88,2.18,13.62,0,1.86-1.08,2.8-2.5,2.8-3.92Z" style="fill: #dddffe; stroke-width: 0px;"/>
    </clipPath>
    <clipPath id="clippath-13">
      <path d="m169.25,228.1v1.4c0,1.25-.83,2.51-2.48,3.47-3.31,1.93-8.71,1.93-12.05,0-1.68-.97-2.52-2.24-2.51-3.51v-1.4c0,1.27.84,2.55,2.52,3.51,3.34,1.93,8.74,1.93,12.05,0,1.65-.96,2.47-2.21,2.48-3.47Z" style="fill: #e8e9fe; stroke-width: 0px;"/>
    </clipPath>
    <clipPath id="clippath-14">
      <path d="m145.81,278.87v3.3c-.02,2.24-1.49,4.48-4.44,6.2-5.93,3.45-15.58,3.45-21.55,0-3.01-1.74-4.51-4.01-4.5-6.29v-3.3c0,2.27,1.5,4.55,4.51,6.29,5.97,3.45,15.62,3.45,21.55,0,2.95-1.71,4.42-3.95,4.43-6.2Z" style="fill: #595964; stroke-width: 0px;"/>
    </clipPath>
    <clipPath id="clippath-15">
      <path d="m140.24,269.93v1.58c0,1.42-.94,2.84-2.8,3.92-3.75,2.18-9.85,2.18-13.62,0-1.9-1.1-2.85-2.54-2.84-3.97v-1.58c0,1.44.95,2.88,2.85,3.97,3.78,2.18,9.88,2.18,13.62,0,1.86-1.08,2.8-2.5,2.8-3.92Z" style="fill: #595964; stroke-width: 0px;"/>
    </clipPath>
    <clipPath id="clippath-16">
      <path d="m139.13,243.36v1.4c0,1.25-.83,2.51-2.48,3.47-3.31,1.93-8.71,1.93-12.05,0-1.68-.97-2.52-2.24-2.51-3.51v-1.4c0,1.27.84,2.55,2.52,3.51,3.34,1.93,8.74,1.93,12.05,0,1.65-.96,2.47-2.21,2.48-3.47Z" style="fill: #65656b; stroke-width: 0px;"/>
    </clipPath>
    <clipPath id="clippath-17">
      <path d="m178.39,289.63v3.3c-.02,2.24-1.49,4.48-4.44,6.2-5.93,3.45-15.58,3.45-21.55,0-3.01-1.74-4.51-4.01-4.5-6.29v-3.3c0,2.27,1.5,4.55,4.51,6.29,5.97,3.45,15.62,3.45,21.55,0,2.95-1.71,4.42-3.95,4.43-6.2Z" style="fill: #595964; stroke-width: 0px;"/>
    </clipPath>
    <clipPath id="clippath-18">
      <path d="m172.82,280.7v1.58c0,1.42-.94,2.84-2.81,3.92-3.75,2.18-9.85,2.18-13.62,0-1.9-1.1-2.85-2.54-2.84-3.97v-1.58c0,1.44.95,2.88,2.85,3.97,3.78,2.18,9.88,2.18,13.62,0,1.86-1.08,2.8-2.5,2.8-3.92Z" style="fill: #595964; stroke-width: 0px;"/>
    </clipPath>
    <clipPath id="clippath-19">
      <path d="m171.71,254.13v1.4c0,1.25-.83,2.51-2.48,3.47-3.31,1.93-8.71,1.93-12.05,0-1.68-.97-2.52-2.24-2.51-3.51v-1.4c0,1.27.84,2.55,2.52,3.51,3.34,1.93,8.74,1.93,12.05,0,1.65-.96,2.47-2.21,2.48-3.47Z" style="fill: #65656b; stroke-width: 0px;"/>
    </clipPath>
  </defs>
  <g id="_圖層_8" data-name="圖層 8">
    <g id="activity_competition">
      <g>
        <g>
          <ellipse cx="172.58" cy="239.89" rx="172.58" ry="99.64" style="fill: #cdc981; stroke-width: 0px;"/>
          <ellipse cx="172.58" cy="228.79" rx="172.58" ry="99.64" style="fill: #f9f6b8; stroke-width: 0px;"/>
        </g>
        <g>
          <g>
            <g>
              <g>
                <g style="isolation: isolate;">
                  <polygon points="148.7 148.91 149.24 194.9 186.47 216.54 185.92 170.54 148.7 148.91" style="fill: #e8e9fe; stroke-width: 0px;"/>
                  <polygon points="185.92 170.54 186.47 216.54 223.93 194.9 223.39 148.91 185.92 170.54" style="fill: #dddffe; stroke-width: 0px;"/>
                  <polygon points="148.7 148.91 185.92 170.54 223.39 148.91 186.16 127.27 148.7 148.91" style="fill: #f7f7ff; stroke-width: 0px;"/>
                </g>
                <g style="isolation: isolate;">
                  <polygon points="101.24 141.11 101.78 222.3 139.01 243.94 138.46 162.74 101.24 141.11" style="fill: #fb5c4d; stroke-width: 0px;"/>
                  <polygon points="138.46 162.74 139.01 243.94 176.48 222.3 175.93 141.11 138.46 162.74" style="fill: #f94f3f; stroke-width: 0px;"/>
                  <polygon points="101.24 141.11 138.46 162.74 175.93 141.11 138.71 119.48 101.24 141.11" style="fill: #fe6f62; stroke-width: 0px;"/>
                </g>
                <g style="isolation: isolate;">
                  <polygon points="53.78 225.65 54.33 249.7 91.55 271.33 91.01 247.28 53.78 225.65" style="fill: #e8e9fe; stroke-width: 0px;"/>
                  <polygon points="91.01 247.28 91.55 271.33 129.02 249.7 128.48 225.65 91.01 247.28" style="fill: #dddffe; stroke-width: 0px;"/>
                  <polygon points="53.78 225.65 91.01 247.28 128.48 225.65 91.25 204.02 53.78 225.65" style="fill: #fefefe; stroke-width: 0px;"/>
                </g>
              </g>
              <g>
                <path d="m182.06,147.71c.43.91.49,3.39.52,3.47.07.18.48.12.61.07.24-.11.09-.51.06-.69-.07-.45-.04-3.51-.04-4.09,0-.33-.82.04-1.32,0-.49-.04.15.58.2,1.06l-.03.18Z" style="fill: #595964; stroke-width: 0px;"/>
                <path d="m194.13,111.01c.1,0,.2,0,.28.04.11.05.2.13.28.21.37.37.7.88.95,1.34.38.69.72,1.5.58,2.29-.03.15-.07.3-.17.41-.11.12-.27.18-.4.26-.23.16-.19.44-.43.61-.1.07-.22.07-.33.09-.13.03-.19.09-.26.2-.06.09-.16.14-.25.21-.26.19-.63-.02-.64-.33,0-.16.08-.3.12-.45.04-.14.05-.31.08-.46.02-.15.03-.32-.04-.46-.05-.1-.15-.23-.23-.31-.1-.09-.2.02-.24.12-.11.29-.17.61-.18.92,0,.09,0,.18-.03.26-.03.08-.09.16-.18.17-.1.01-.19-.06-.23-.14-.04-.09-.05-.19-.06-.29-.02-.3-.03-.6-.05-.9,0-.15-.02-.3-.02-.45,0-.14-.03-.25.04-.37.19-.31.4-.5.36-.9-.03-.27-.12-.53-.12-.8,0-.3.1-.6.3-.82.17-.2.54-.43.85-.46Z" style="fill: #ffd4c0; stroke-width: 0px;"/>
                <path d="m188.61,103.54c-.21-.61.57-.92.58-1.58.01-.67.26-1.24.61-1.86.16-.28.38-.58.71-.65.3-.07.59.08.82.24,1.39.96,1.94,2.44,2.22,4.02.19,1.07,1.91,7.21,1.77,7.96-.1.55-.85.87-1.32.97-.39.08-.92.12-1.27-.14-.32-.24-3.64-7.56-4.12-8.96Z" style="fill: #dddffe; stroke-width: 0px;"/>
                <path d="m189.62,102.27c-.58-.69-.74-1.89-.93-2.65-.27-1.07-1.86-8.49-2.36-9.47-.49-.97,1.23,1.17,2.22.79.72-.27,1.62-.16,2.17.38,1.27,1.24,1.69,3.41,1.66,5.06-.02,1.04,1.08,6.87,1.21,7.47.11.52-1.36-1.87-1.76-1.52-.38.33-.89.54-1.38.45-.35-.07-.61-.25-.82-.5Z" style="fill: #dddffe; stroke-width: 0px;"/>
                <path d="m181.29,91.41c1.08-.49,1.47-.76,2.6-1.01.18-.04.8.19.98.15,1.38-.29,2.84-.23,4.12.34.01,0,.03.01.04.02v8.45h-8.1l.35-7.94Z" style="fill: #fdc2a5; stroke-width: 0px;"/>
                <path d="m182.76,91.76s5.04,2.53,4.8-.26c-.34-3.9-.59-4.33-2.33-4.84-.48-.14-.67-.54-1.16-.52-1.81.07-1.05,1.02-.94,1.7.32,2.03-.39,2.85-.36,3.92Z" style="fill: #fdc2a5; stroke-width: 0px;"/>
                <path d="m181.49,91.34c1.08-.49,1.27-.69,2.41-.94.18-.04.8.19.98.15,1.38-.29,2.84-.23,4.12.34.01,0,.03.01.04.02v8.45h-8.1l.54-8.01Z" style="fill: #fdc2a5; stroke-width: 0px;"/>
                <path d="m182.45,92.69c-.34-.27-1.16-1.28-1.16-1.28.32-.14.57-.27.81-.38.61,1,2.53,2.41,4.41,2.17.87-.11,1.16-1.05,1.93-2.51.19.06.38.11.56.19.01,0,.03.01.04.02,0,0-.97,1.9-1.51,2.45-1.39,1.39-4.07.14-5.08-.66Z" style="fill: #f7f7ff; stroke-width: 0px;"/>
                <path d="m187.31,90.25s.05,0,.07,0c-.2-.06-.32,0-.07,0Z" style="fill: #e8e9fe; stroke-width: 0px;"/>
                <path d="m177.12,95.31c0,.16-.01.32,0,.48.02.47.14.92.24,1.37.12.54.38,1.02.67,1.48.31.49.56.99.86,1.48.31.5.47,1,.71,1.53.54,1.18,1.03,2.41,1.24,3.7.17,1.04.17,2.09.12,3.13-.03.5-.12,1-.09,1.49,0,.14-.03.38,0,.5.04.18.13.24.3.37.9.7,1.97,1.11,3.08,1.3,1.19.2,2.48.12,3.62-.08.34-.06.66-.12.97-.19,1.36-.32,2.39-.73,2.56-.86.25-.19.14-.14-.07-1.96-.88-7.48,2.43-7.62,1.14-11.53-.22-.67-.67-1.3-.95-1.97-1.02-2.45-.38-5.18-4.13-5.32.23.07.58.3.61.92.08,1.58-.54,2.07-1.23,2.58-.18.14-.38.24-.59.32-1.73.59-4.1-.37-4.88-2.66-.98.59-2.05,1.05-2.97,1.73-.79.58-1.14,1.27-1.2,2.17Z" style="fill: #e8e9fe; stroke-width: 0px;"/>
                <path d="m188.99,102.66c-.1-1.53-.31-3.04-.67-4.53-.36-1.51-.81-3.14-1.63-4.47-.07-.11-.25-.04-.22.09.41,1.47,1,2.88,1.36,4.37.38,1.59.6,3.21.7,4.84.19,3.17.29,6.42-.11,9.58-.03.26.43.33.47.06.51-3.23.32-6.69.1-9.94Z" style="fill: #f7f7ff; stroke-width: 0px;"/>
                <path d="m188.03,90.83c.02.67-.22,1.59-.59,2.15-.18.27-.76.51-1.06.62.17.18,1.15.87,1.37.99.39.21.76.31,1.15.05.51-.35.89-1.47,0-3.09-.1-.18-.21-.35-.36-.49-.07-.07-.14-.13-.23-.17-.02,0-.27-.08-.27-.06Z" style="fill: #f7f7ff; stroke-width: 0px;"/>
                <path d="m181.68,91.4s-.09,0-.11.05c0,.23.34-.23.5-.13.53.35.86,1.39,1.78,1.94,1.33.79,2.56.34,2.67.29.05.62.09,2.02-.44,2.28-1.25.63-3.29-.32-4.03-1.13-.4-.44-.68-.76-.95-1.28-.16-.31-.37-.65-.32-1.02.02-.14.28-.82.51-.98h.39Z" style="fill: #f7f7ff; stroke-width: 0px;"/>
                <path d="m179.5,153.67c.05.13.13.25.23.35.24.24.52.4.87.42.22.02.42-.05.62-.13.37-.14.6-.43.78-.77.22-.42.39-.8.45-1.26.03-.21.15-1.91.24-2.21.09-.28.53-2.53.52-3.35,0-.48.05-.98-.41-1.29-.16-.1-.81-.1-.99-.11-.2-.02.09.77-.11.81-.13.02-.31-1.25-.42-1.18-.29.17-.63.97-.86,1.2-.29.29-.28,1.08-.39,1.7-.05.29-.24,2.1-.35,2.75-.08.47-.18,1.07-.26,1.55-.1.61-.12,1.03.09,1.53Z" style="fill: #595964; stroke-width: 0px;"/>
                <path d="m191.13,130.38l-5.56,1.03c-.11,1.44-.11,2.84.03,3.83.38,2.73,1.79,6.44,1.13,9.19-.14.61,1.29.83,1.7,1.09.15.1.26.29.35.44.44.72.78,1.52,1.14,2.29.14.29.26.6.44.87.29.43.19-.34.18-.54-.03-.58-.13-1.16-.22-1.74-.12-.87-.28-1.73-.31-2.61-.02-.73,1.04-13.28,1.1-13.85Z" style="fill: #fdc2a5; stroke-width: 0px;"/>
                <path d="m187.62,147.11c-.38.98-.25,3.55-.28,3.63-.06.19-.49.16-.62.11-.26-.1-.13-.52-.11-.71.04-.47-.26-2.94-.4-3.45-.09-.33-.18-.62.33-.71.51-.08,1.06.43,1.04.93l.04.19Z" style="fill: #595964; stroke-width: 0px;"/>
                <path d="m190.26,148.59c.11.24.23.52.42.71.19.19.44.33.65.5.22.17.46.31.7.43.19.1.41.16.57.31.16.15.22.47.14.68-.07.21-.28.32-.48.39-.31.12-1.29.14-1.85.03-.62-.12-1.25-.2-1.64-.77-.23-.33-.24-.69-.33-1.07-.12-.46-.28-.87-.52-1.28-.16-.27-.34-.52-.58-.73-.27-.24-.6-.45-.87-.69-.24-.23-.33-.46-.42-.77-.09-.34-.09-.69,0-1.03.15-.58.5-1.27,1.15-1.37.52-.08,1.05.49,1.39.81.43.4.67.89.83,1.45.21.68.27,1.42.63,2.05.08.13.11.27.2.36Z" style="fill: #65656b; stroke-width: 0px;"/>
                <path d="m190.1,140.18c-.02.42-.21,4.94-.04,5.71.06.27.17,1.64.25,1.99.08.37.4,1.38.11,1.69-.13.14-.56.09-.79-.07-.36-.25-1.12-1.94-1.29-2.34-.27-.67-1.29-1.31-1.54-1.99-.17-.46-.1-.7.06-1.16.08-.22.15-.34.24-.55.21-.5.11-2.55.06-2.84-.05-.3,2.95-.82,2.93-.44Z" style="fill: #fdc2a5; stroke-width: 0px;"/>
                <path d="m186.31,127.41c-.62,4.46-2.17,9.57-2.83,14.02-.18,1.22-.58,2.83-.58,5.55,0,.89-1.34,2.6-1.88,2.22-.37-.26-.83-1.43-.79-1.88.29-2.76-.27-5.1-.27-8.21,0-2.65-.29-7.11.95-9.46.25-.48.59-.29,1.13-.35l4.26-1.89Z" style="fill: #ffd4c0; stroke-width: 0px;"/>
                <path d="m180.58,147.24c-.05.31-.35-.23-.35.08,0,.35-.16,1.87-.21,2.22-.06.43-.09.98,0,1.41.08.37.23.71.59.84.42.15.89-.2,1.16-.54.29-.37.39-.66.56-1.1.15-.39.31-.8.37-1.21.12-.81.28-1.71.16-2.53-.01-.08-.3-1.14-.35-1.1-.14.1-.26.23-.38.35-.48.47-.96.94-1.44,1.42-.18.18-.06-.12-.1.16Z" style="fill: #ffd4c0; stroke-width: 0px;"/>
                <path d="m191.42,109.83s.35,1.52.4,1.9c.53,3.77.13,8.81-.08,12.57-.1,1.8-.38,7.26-.75,8.47-.28.93-4.24,1.39-5.12,1.37-1.1-.02-5.82-.25-6.02-1.91-.25-2.11-.54-6.21-.87-8.31-.36-2.32-.8-6.3-.56-8.65.26-2.58,1.15-3.89,2.44-5.84-.08.16,1.89,1.57,4.84,1.78,3.08.23,5.71-1.39,5.71-1.39Z" style="fill: #65656b; stroke-width: 0px;"/>
                <path d="m191.67,110.94c-.11-.53-.25-1.11-.25-1.11,0,0-2.63,1.61-5.71,1.39-2.95-.22-4.92-1.63-4.84-1.78-.22.33-.43.65-.63.96,3.24,2.56,7.76,2.32,11.42.55Z" style="fill: #595964; stroke-width: 0px;"/>
                <path d="m179.95,87.03c0-.39,0-.78.06-1.17.11-.83.41-2.57,1.29-3.48.43.04.5,1.33.93,1.42.4.08.76.35,1.12.54.22.12.6.23.7.49.19.49-.48,1.31-.68,1.74-.44.97-.48,2.07-.43,3.11.06,1.11.43,2.21,1.08,3.12.51.7,1.16,1.29,1.63,2.02.7,1.1.91,2.5.55,3.76-.38-.65-.76-1.31-1.31-1.82-.72-.68-1.67-1.06-2.42-1.72-.7-.61-1.18-1.43-1.52-2.3-.54-1.4-.77-2.9-.92-4.39-.04-.44-.08-.88-.09-1.32Z" style="fill: #ae7558; stroke-width: 0px;"/>
                <path d="m184.71,89.22c-.15-.12-.29-.25-.43-.38-.48-.45-1.03-.97-1.37-1.53-1.08-1.82-1.14-4.26.38-5.85,1.08-1.13,2.8-1.6,4.31-1.18.41.11.8.29,1.17.48.33.17.65.35.9.62.16.18.29.38.41.59.21.38.32.75.44,1.16.07.23.04.47.04.7,0,.41-.03.81-.11,1.22-.07.33-.11.67-.12,1.01,0,.34.16.64.27.96.07.2.18.5.12.7-.06.22-.3.39-.4.58-.12.21-.15.37-.16.61,0,.16-.06.26-.12.4-.05.12-.02.2-.04.32-.02.14-.13.26-.18.39-.06.15-.1.29-.18.43-.45.81-1.1.86-1.91.55-1.09-.42-2.12-1.03-3.01-1.78Z" style="fill: #ffd4c0; stroke-width: 0px;"/>
                <path d="m181.07,83.69c.07-2.3.75-2.69,1.62-3.42.84-.71,1.98-1.04,3.08-1.01,1.12.03,2.22.41,3.17,1,.04.02.08.05.11.07.49.32.93.68,1.19,1.21.23.47.33.95.38,1.47,0,.1.02.22-.04.3-.06.09-.16.13-.26.16-.8.25-1.79.08-2.43-.48-.07.58-.49,1.04-.89,1.46-.42.44-.95.87-1.3,1.36-.24.33-.33.67-.69.91-.33.22-.57.24-.92.08-.32-.15-.65-.39-1-.17-.33.2-.2.63-.12.94.02.06.14.49-.04.5-.18,0-1.93-1.62-1.85-4.38Z" style="fill: #d69a7c; stroke-width: 0px;"/>
                <path d="m181.07,83.69c.04-1.35.29-2.04.67-2.53,0,0,1.05.4,1.99,1.06.88.62,1.84,1.73,1.84,1.73-.08.34.11.67.18,1.01.06.26-.06.13-.14.39l-1,.88-.49.6s-.03,0-.04-.02c-.32-.15-.65-.39-1-.17-.33.2-.07.77,0,1.08.02.06.14.72.14.72-.18,0-2.24-1.99-2.16-4.75Z" style="fill: #d69a7c; stroke-width: 0px;"/>
                <path d="m183.26,85.78c-.78-.05-.98.92-.44,1.67.16.22.44.41.64.59,1.41,1.19,1.76-.11,1.31-.51-1.04-.94-.53-1.69-1.51-1.75Z" style="fill: #ffd4c0; stroke-width: 0px;"/>
                <path d="m183.77,87.56c-.09-.08-.99-.61-.38-.97.17-.1.36.05.38.22.01.09-.01.19,0,.28,0,.05.03.11.06.15.08.13.35.25.3.44-.05.17-.31-.09-.36-.13Z" style="fill: #fdc2a5; stroke-width: 0px;"/>
                <path d="m176.76,94.34c.33-.57,1.01-.83,1.68-.59.64.22,1.1.78,1.44,1.37.93,1.59,1.17,3.55.89,5.34-.26,1.63-.53,3.27-.9,4.88-.04.18-.07.37-.15.54-.72,1.56-2.26,1.53-3.15.81-.39-.32-.64-.61-.71-1.1-.07-.5,0-1.05,0-1.56.02-1.09.06-2.19.11-3.28.06-1.2.13-2.41.25-3.6.08-.84.15-1.73.42-2.54.03-.09.07-.18.12-.26Z" style="fill: #f7f7ff; stroke-width: 0px;"/>
                <path d="m177.73,120.88s.01,0,.02,0c.12,0,.15-.16.16-.26.02-.08,0-.23.07-.3.15-.14.18.19.22.28.03.08.03.15.05.23.02.08.03.15.04.23,0,.06.03.14.06.19.05.12.14.24.28.21.2-.04.14-.29.16-.43,0-.08-.08-.36.01-.41.08-.05.26.26.29.32.13.22.21.49.41.66.12.11.36.22.36-.04,0-.17-.09-.31-.15-.46-.08-.2-.14-.39-.21-.59-.02-.05-.14-.32-.11-.35.03-.02.11.05.13.06.15.1.28.21.41.33.1.1.19.21.29.31.11.1.38.38.54.21.15-.16-.1-.51-.2-.63-.21-.27-.38-.53-.53-.83-.19-.39-.32-.81-.26-1.24.02-.17.12-.39.28-.47.22.26.29.56.41.9.09.28.21.54.5.67.14.06.34.17.48.06.13-.11.11-.29.04-.42-.07-.13-.19-.24-.24-.38-.05-.13-.09-.27-.11-.41-.04-.26-.04-.53-.11-.77-.06-.25-.19-.48-.36-.68-.06-.07-.12-.14-.19-.21-.15-.17-.27-.35-.39-.53-.34-.52-.4-1.26-.64-1.84-.22-.53-.73-.27-1.14-.05-.35.19-.93.65-.9.99.05.49.03,1.69.01,1.77-.07.28-.12.56-.17.84-.05.29-.08.54-.08.84,0,.24-.02.49.01.72.04.34.14.69.28,1.01.05.11.12.45.27.48Z" style="fill: #ffd4c0; stroke-width: 0px;"/>
                <path d="m177.53,116.16c-.62-.42-.64-1.32-.75-2.03-.26-1.68-1.43-7.71-.72-10.79.17-.74,1.51.07,2.35.12.57.03,1.01.9,1.27,1.49.33.73.4,10.21.27,10.58-.28.79-1.94.97-2.41.64Z" style="fill: #f7f7ff; stroke-width: 0px;"/>
              </g>
              <g>
                <g>
                  <g>
                    <path d="m105.75,179.37c.4-.12.79-.27,1.2-.34.24-.04.52-.13.76-.06.32.1.26.44.31.71.17.85.23,1.73.18,2.6,0,.11-.02.22-.08.3-.11.14-.32.15-.48.07-.16-.07-.28-.21-.42-.32-.51-.42-1.22-.55-1.82-.26-.29.14-.56.33-.86.45-.3.12-.66.16-.94,0-.63-.37-.62-1.69-.35-2.28.11-.24.29-.45.53-.56.23-.1.5-.08.75-.08.43,0,.83-.1,1.23-.23Z" style="fill: #ffceb8; stroke-width: 0px;"/>
                    <path d="m118.44,151.25c1.43.39,2.95.5,4.44.55,1.71.05,3.43.01,5.12.25,1.51.21,3.21.54,4.62,1.14,1.94.84,3.55,2.39,5.52,3.17,2.6,1.03,5.7.53,7.87-1.26-.16.13.29,2.42.32,2.74.34,3.9.03,7.48-1.63,11.05-.5,1.03-.95,2.06-1.32,3.14-.35,1.04-.19,2.1-.15,3.2-3.72.58-7.52-.24-11.07-1.5-4.07-1.45-7.99-3.32-11.89-5.12-2.46-1.13-5.26-1.45-7.9-.93-1.61.32-3.33-.05-4.45,1.4.44-.57.74-1.36,1.08-2,.4-.74.78-1.5,1.12-2.27.67-1.52,1.19-3.13,1.33-4.8.18-2.1-.25-4.21-.83-6.24-.38-1.36-.84-2.7-1.22-4.06-.16-.56-.49-1.3-.4-1.88.04-.26.16-1.09.41-1.21.12-.06.97.13,1.14.16.89.14,1.72.58,2.45,1.1,1.03.74,1.93,1.67,3.01,2.34.75.47,1.57.8,2.42,1.03Z" style="fill: #dddffe; stroke-width: 0px;"/>
                    <path d="m103.26,227.17s-.05,0-.07,0c-.45-.04-.79-.43-.75-.88l6.6-80.58c.04-.45.43-.79.88-.75.45.04.79.43.75.88l-6.6,80.58c-.04.43-.39.75-.82.75Z" style="fill: #695670; stroke-width: 0px;"/>
                    <path d="m105.65,179.59c.65.27,1.28.6,1.88.99.13.08.26.17.35.3.09.13.14.3.07.44-.07.15-.24.24-.4.25-.3.02-.57-.15-.84-.29-.27-.14-.59-.26-.86-.13-.13.06-.23.17-.35.25-.44.29-1.11.06-1.35-.41-.21-.42-.1-1.04.21-1.4.34-.4.86-.18,1.28,0Z" style="fill: #ffd7c4; stroke-width: 0px;"/>
                    <path d="m104.38,182.52c-.27.05-.55.08-.73.12-1.22.27-2.45.49-3.69.65-.73.1-1.53.27-2.25.16-.8-.12-1.56-.19-2.33-.49-.77-.3-1.33-.82-1.88-1.48-.25-.3-.5-.68-.44-1.09.06-.43.48-.67.67-1.02.2-.38.52-.67.91-.85.45-.21.95-.29,1.44-.36.27-.04.57-.08.82.03.3.14.47.46.71.67.38.33.91.4,1.41.45.97.09,1.94.14,2.92.14.73,0,1.84-.26,2.48.18.33.23.45.66.54,1.06.09.38.37,1.24.05,1.57-.13.13-.37.2-.62.25Z" style="fill: #dddffe; stroke-width: 0px;"/>
                    <path d="m93.67,181.55c-1.04-1.62-1.98-3.96-3.43-6.66-.39-.73-.67-1.53-.81-2.35-.14-.83.03-1.59.32-2.41.13-.37.33-.79.71-.94.35-.14.72,0,1.04.15,1.9.94,3.15,2.86,3.84,4.77.64,1.78,1.54,3.45,2.17,5.24.12.34.27.7.32,1.06.22,1.73-.78,3-2.05,2.69-.62-.15-1.53-.68-2.1-1.56Z" style="fill: #dddffe; stroke-width: 0px;"/>
                    <path d="m84.79,223.06c.21,1.93.22,3.88.22,5.83,0,.59.2,1.15.15,1.74-.04.38-.17.77-.46,1.03-.28.26-.69.37-1.07.36-.79,0-1.55-.46-1.99-1.11-.66-.96-.5-2.18-.61-3.28-.08-.79-.14-1.58-.17-2.37-.04-1,.31-1.45,1.04-2.08.56-.48,1.1-1.27,1.74-1.61.31-.17.75-.02,1,.2.28.25.42.62.45.99l-.29.29Z" style="fill: #15151a; stroke-width: 0px;"/>
                    <path d="m90.25,220.39c.6.1,1.24.5,1.78.75,1.29.61,2.55,1.28,3.81,1.95.89.48,2.88,1.3,2.43,2.63-.21.61-.82,1.01-1.46,1.13-1.26.23-2.37-.15-3.37-.86-.99-.71-2.12-1.23-3.3-1.52-1.01-.25-1.67-.82-1.7-1.91-.03-1.06.53-2.38,1.8-2.17Z" style="fill: #15151a; stroke-width: 0px;"/>
                    <path d="m93.71,197.57c-.44,3.28-.02,12.85-3.22,12-1-.27-2.74-2.03-2.89-4.21-.08-1.18-.02-2.85-.08-4.02-.13-2.43-2.49-10.26,2.47-11.76.75-.23,1.9-1.7,2.53-1.18.13.11.54.62.85,1.74.18.64.27,1.61.39,2.46.2,1.46.21,3.17-.04,4.98Z" style="fill: #595964; stroke-width: 0px;"/>
                    <path d="m92.36,221.32c-.12.69-.55,1.45-2.9,1.36-.64-.03-1-1.89-1.1-2.39-.45-2.15-.07-4.7-.21-6.89-.23-3.48-.6-5.96-.45-7.56.06-.66.9.04,1.27-.51.91-1.34,4.24-.52,4.12.15-.5,2.87-.72,15.81-.73,15.84Z" style="fill: #595964; stroke-width: 0px;"/>
                    <path d="m87.01,207.05c-.02.74-.1,1.48-.16,2.22-.11,1.19-.23,2.39-.35,3.58-.69,6.69-.79,10.11-1.38,11.5-.49,1.14-2.02,1.01-3,.66-.43-.16-.83-.42-1.08-.81-.23-.38-.3-.84-.35-1.28-.48-4.29-.17-8.54.96-12.7.27-.98.59-1.98,1.18-2.82.21-.3,1.36,1.77,1.68,1.59.35-.19-.42-.79-.03-.75.74.08,1.44.45,1.92,1.01l.6-2.2Z" style="fill: #797882; stroke-width: 0px;"/>
                    <path d="m82.08,189.79s.3-.39.31-.38c1.07.58,2.41.48,3.69.67,2.76.41,2.96.9,4.82-.26.48.48-.06,3.72-.14,4.14-.5,2.47-2.08,2.3-2.19,3.46-.26,2.67-.76,7.94-1.24,10.58-.19,1.03-.41,2.08-.98,2.95-.67,1.01-1.81,1.54-3.01,1.39-.31-.04-.62-.15-.85-.36-.52-.5-1.1-.39-1.01-1.11.26-2.1.08-5.07-.32-7.15-.8-4.21-1.04-8.81.91-13.91Z" style="fill: #797882; stroke-width: 0px;"/>
                    <path d="m81.97,185.48h0c.09.71.15,1.41.17,2.11-.03-.7-.09-1.41-.18-2.11Z" style="fill: #fdc2a5; stroke-width: 0px;"/>
                    <path d="m82.15,187.59c.02.43.03.86.03,1.28,0,0-.02,0-.02-.01.01-.42,0-.85,0-1.27Z" style="fill: #fdc2a5; stroke-width: 0px;"/>
                    <path d="m82.15,187.59c-.03-.7-.09-1.41-.18-2.11h0c-.11-.89-.28-1.78-.48-2.65-.36-1.56-.77-2.81-1.2-4.35-.24-.86-.76-2.17-.83-2.78-.16-1.42.66-2.51,2.49-3.76,1.24-.84,3.72-1.95,6.14-2.7,3.39-1.06,3.87.18,4.85,2.88.91,2.52.65,6.68.24,9.36-.22,1.42-.35,2.85-.4,4.29-.04,1.24.1,2.41.3,3.63-2.97,2.1-7.02,1.57-10.41.75-.21-.04-.41-.1-.6-.18.07-.79.09-1.58.06-2.37Z" style="fill: #f7f7ff; stroke-width: 0px;"/>
                    <path d="m92.93,188.19c.05.4.11.8.18,1.21-2.97,2.1-7.02,1.57-10.41.75-.21-.04-.41-.1-.6-.18.04-.48.06-.96.06-1.43,2.83,1.08,7.82,1.62,10.77-.34Z" style="fill: #15151a; stroke-width: 0px;"/>
                    <path d="m83.45,188.94v1.38c-.25-.06-.51-.11-.76-.18-.07-.01-.13-.04-.19-.06v-1.44c.3.1.61.2.95.29Z" style="fill: #797882; stroke-width: 0px;"/>
                    <path d="m90.08,189.28v1.38c-.31.06-.63.11-.95.14v-1.38c.32-.03.64-.08.95-.14Z" style="fill: #797882; stroke-width: 0px;"/>
                    <path d="m88.17,187.67c.37.31.81.69,1.17,1,.53-.82.54-.89,1.03-1.72.02-4.91-.2-9.51-1.37-14.21-.45.32-.68.48-1.14.81.6,4.5.96,9.18.31,14.13Z" style="fill: #797882; stroke-width: 0px;"/>
                    <path d="m89.48,172.63s0,.04,0,.07c0,.14-.09.31-.14.44-.1.28-.23.55-.38.81-.08.14-.18.28-.33.35-.17.07-.37.02-.53-.07-.18-.1-.52-.25-.48-.48.04-.2.11-.4.17-.59.13-.39.31-.87.67-1.11.4-.27.69.13.91.43.04.06.08.1.09.16Z" style="fill: #15151a; stroke-width: 0px;"/>
                    <path d="m84.36,170.64c-.09,2.74,5.05,2.79,4.98.21-.1-3.59-.32-4-2.01-4.56-.46-.15-.95-.27-1.44-.28-1.79-.03-1.09.87-1.03,1.51.2,1.88-.47,2.14-.5,3.12Z" style="fill: #fdc2a5; stroke-width: 0px;"/>
                    <path d="m84.36,170.64c.03-.99.7-1.25.5-3.12-.07-.63-.76-1.54,1.03-1.51.49,0,.98.13,1.44.28,1.67.55,1.9.96,2.01,4.42-1.42-.14-2.68-1.71-4.13-.77-.39.29-.65.66-.83,1.07-.02-.12-.02-.24-.02-.36Z" style="fill: #fdc2a5; stroke-width: 0px;"/>
                    <path d="m85.2,169.93c1.45-.93,2.71.64,4.13.77,0,.05,0,.1,0,.15.07,2.46-4.6,2.53-4.96.15.18-.41.44-.78.83-1.07Z" style="fill: #fdc2a5; stroke-width: 0px;"/>
                    <path d="m88.5,172.33c.09.29.48.4.73.57.11.07.31.22.45.19.15-.03.24-.23.29-.35.36-.88.57-1.85.58-2.81,0-.3-.05-.64-.28-.86-.21-.19-.58-.23-.84-.12-.28.12-.35.68-.25.93.36.92-.05,1.97-.68,2.44Z" style="fill: #f7f7ff; stroke-width: 0px;"/>
                    <path d="m88.54,172.34s-.45.71-.99,1.19c-.14.12-.24.27-.42.21-.88-.28-2.74-1.84-3.11-2.83-.13-.36.12-.8.33-1.08.04-.05.32-.44.37-.47.04.06.23.76.54,1.22.71,1.05,2.02,1.59,3.29,1.76Z" style="fill: #f7f7ff; stroke-width: 0px;"/>
                  </g>
                  <g>
                    <path d="m90.77,161.74c.39.54.65,1.18.69,1.88.02.3-.01.6-.09.89-.08.27-.23.54-.21.83.02.34.29.71.43,1.02.12.28.2.61.1.9-.06.17-.16.31-.25.47-.4.74.09,1.76-.66,2.33-.19.14-.42.18-.65.21-.29.04-1.63-.24-2.16-.44-.58-.21-1.17-.81-1.61-1.25-.34-.34-.91-.77-1.14-1.19-.07-.13.08-.16-.06-.22-.08-.03-.22-.55-.31-.55-.11,0-.26-.11-.36-.17-.18-.11-.24.33-.31.13-.31-.85-.68-1.71-.7-2.63-.02-.84-.09-1.56.4-2.3.37-.56.92-.99,1.53-1.27.93-.43,2.02-.52,3.01-.26.94.25,1.8.83,2.36,1.61Z" style="fill: #ffd4c0; stroke-width: 0px;"/>
                    <path d="m87.9,163.34c-.3,0-.87-.07-1.07.2-.29.38-.06.9.01,1.31.11.57.18,1.14.27,1.71.02.12.04.25-.02.36-.07.15-.27.22-.44.19-.17-.03-.31-.14-.45-.24-.23-.18-.45-.38-.66-.59-.18-.17-.37-.35-.59-.13-.24.24-.23.76-.15,1.07.01.05.13.46-.04.46-.17,0-1.62-1.5-1.69-4.05-.06-2.44,1.63-2.9,1.63-2.9,0,0,.75-1.27,2.72-1.17,2,.1,3.84.85,4.9,2.64-.18.61-.76,1.04-1.37,1.21-.61.17-1.27.12-1.9.05-.38-.04-.77-.09-1.16-.11Z" style="fill: #d69a7c; stroke-width: 0px;"/>
                  </g>
                  <path d="m84.91,165.55c-.73,0-.85.91-.31,1.57.16.19.43.36.63.5,1.37,1.02,1.62-.2,1.18-.55-1.02-.81-.59-1.53-1.5-1.53Z" style="fill: #ffd4c0; stroke-width: 0px;"/>
                  <path d="m85.47,167.24c-.09-.07-.95-.5-.41-.87.15-.1.33.02.37.19.02.08,0,.17.02.26.01.05.04.1.07.14.08.11.34.21.3.39-.03.16-.29-.06-.34-.1Z" style="fill: #fdc2a5; stroke-width: 0px;"/>
                </g>
                <g>
                  <path d="m80.74,187.69c.07.07.15.14.26.19.15.07.33.1.49.05.21-.07.36-.24.5-.41.23-.27.47-.52.73-.77.07-.06.15-.13.24-.12.08,0,.15.08.17.16.02.05-.03.31,0,.32.07.02.23-.08.3-.1.12-.04.23-.07.35-.1.25-.06.49-.1.75-.13.5-.05,1-.04,1.49.04.04,0,.09.02.13.04.04.02.07.07.06.11,0,.05-.05.08-.1.1-.33.18-.71.2-1.07.29-.15.04-.29.11-.44.16-.2.06-.39.13-.58.21.61-.13,1.23-.2,1.85-.2.13,0,.43.01.5.13.1.17-.17.27-.28.31-.34.12-.68.24-1.01.35.37-.13.79-.16,1.17-.12.19.02.33.03.28.26-.03.15-.16.28-.31.3-.23.04-.47.07-.7.12-.33.07-.65.15-.95.29.26.02.53.04.78.13.2.07.44.2.56.39.08.13.09.38-.11.39-.21.01-.41.02-.62,0-.44-.02-.87-.09-1.31-.03-.63.09-1.21.44-1.84.52-.57.07-1.14-.09-1.65-.35-.47-.24-.82-.66-1.26-.94-.27-.17-.56-.27-.78-.5-.25-.26-.48-.52-.71-.8-.11-.13-.22-.28-.23-.45-.01-.24.18-.44.37-.57.26-.18.56-.3.87-.37.29-.06.61-.11.89.02.36.18.68.54.99.81.1.09.18.18.26.27Z" style="fill: #ffd4c0; stroke-width: 0px;"/>
                  <path d="m80.97,172.67s.55.33.74,2.89c.05.68-.06,1.36-.18,2.03-.11.6-.35,1.4-.86,1.78-.49.36-.96.76-1.44,1.15-.96.78-1.94,1.55-2.94,2.29-.46.34-.97.84-1.52,1.05-1.54.61-3.02-.21-3.28-1.35-.1-.43.08-.9.27-1.29.28-.55,2.01-2.41,2.5-2.93,4.94-5.18,6.71-5.63,6.71-5.63Z" style="fill: #f7f7ff; stroke-width: 0px;"/>
                  <path d="m79.61,189.75c-.69.19-1.63-.71-2.08-1.06-1.05-.84-4.97-3.59-5.98-5.97-.24-.57,1.18-1.1,1.85-1.67.46-.39,1.23-.17,1.73,0,.62.21,5.92,6.28,6.01,6.6.19.68-1,1.97-1.53,2.12Z" style="fill: #f7f7ff; stroke-width: 0px;"/>
                </g>
              </g>
            </g>
            <g>
              <g>
                <path d="m140.26,87.36c.01.13.03.26.06.4.07.35.18.71.08,1.06-.26.9-1.33.24-1.47-.37-.08-.35.07-.72,0-1.07-.07-.32-.31-.57-.43-.87-.21-.51-.06-1.08-.1-1.63-.04-.6-.32-1.15-.6-1.68-.29-.53-.59-1.06-.72-1.64-.1-.45-.09-1.02.18-1.41.24-.35.68-.61.97-.94.11-.13.27-.17.39-.28.13-.12.22-.32.29-.49.14-.36.18-.76.18-1.15,0-.6-.1-1.2,0-1.79.04-.26.12-.53.28-.74.13-.16.17-.41.22-.6.03-.12.06-.23.09-.35.02-.11.02-.21.13-.12.12.1.2.33.28.46.09.15.17.31.24.47.14.31.24.64.28.98.08.79-.19,1.58-.16,2.38.01.48.14.95.3,1.4.08.22.16.4.19.63.03.23.05.47.03.71-.03.5-.36.99-.35,1.49.01.35.31.51.44.83.23.6-.4,1.59-.57,2.21-.18.68-.29,1.38-.22,2.08Z" style="fill: #aa7066; stroke-width: 0px;"/>
                <path d="m141.03,66.34c0-.31.14-.6.33-.85.47-.65,1.28-1.07,2.07-.95.4.06.6.28.91.5.28.19.56.37.66.71.1.35.05.71-.04,1.05-.09.35-.22.7-.23,1.06,0,.29.06.58,0,.87-.08.43-.57.69-.94.86-.25.11-.53.19-.8.13-.44-.1-.73-.52-.9-.93-.18-.42-.38-.82-.58-1.23-.19-.39-.48-.76-.48-1.22Z" style="fill: #fdc2a5; stroke-width: 0px;"/>
                <path d="m117.39,86.9c-.29-.18-.65-.21-.98-.19-.87.07-1.74.58-2.08,1.39-.17.41-.08.72-.06,1.13.02.37.02.74.28,1.02.27.29.63.45,1,.57.38.12.77.2,1.12.4.28.16.51.39.81.51.45.18.98-.14,1.35-.38.25-.17.48-.39.58-.67.16-.46-.06-.97-.35-1.38-.29-.41-.54-.83-.81-1.24-.26-.4-.43-.89-.86-1.15Z" style="fill: #fdc2a5; stroke-width: 0px;"/>
                <path d="m116.14,86.61c.33.08.63.36.62.69,0,.21-.07.33-.18.5-.15.25-.25.51-.32.79-.08.36-.13.72-.26,1.06-.13.34-.36.67-.7.8-1.07.43-1.5-1.17-1.37-1.91.11-.62.44-1.18.8-1.71.22-.33,1.02-.31,1.4-.22Z" style="fill: #ffd4c0; stroke-width: 0px;"/>
                <path d="m117.84,87.11c-.46-.54-1.29-.8-1.89-.42.12.29.52.32.74.53.23.21.24.56.2.87-.04.31-.1.63.02.92.25.59,1.17.57,1.46.02.28-.53-.19-1.51-.53-1.91Z" style="fill: #ffd4c0; stroke-width: 0px;"/>
                <path d="m145.7,81c-.06.12-.13.23-.19.35-.79,1.43-1.65,2.83-2.58,4.17-.5.73-3.03,3.88-3.57,4.58-.42.54-.01-1.64-.23-1.83-.21-.18-.44-.39-.58-.62-.12-.19-.18-.44-.28-.65-.26-.54-.48-1.11-.56-1.7-.1-.77.05-1.6.56-2.18.33-.38.79-.62,1.21-.9.75-.51,1.39-1.17,1.88-1.93.54-.84,1.05-1.7,1.59-2.54.43-.68.79-1.4,1.24-2.07.47-.7,1.03-1.38,1.97-1.22,1.12.2,1.53,1.63,1.3,2.58-.34,1.41-1.05,2.68-1.75,3.94Z" style="fill: #dddffe; stroke-width: 0px;"/>
                <path d="m142.52,68.78c-.1.06-.19.14-.2.24-.03.19.06.41.09.59.09.48.18.96.28,1.44.23,1.12.5,2.22.79,3.33.21.81.44,1.62.69,2.43.12.39.25.77.35,1.17.06.23.73-.07,1.06-.03.77.07,1.96-.4,1.94-1.35,0-.28-.21-1.44-.5-2.54-.02-.08-.05-.16-.07-.24-.21-.64-.47-1.27-.72-1.9-.31-.78-.64-1.55-.96-2.33-.12-.29-.24-.59-.38-.88-.1-.21-.23-.37-.47-.42-.17-.03-.35-.01-.52.02-.41.07-.83.18-1.2.38-.05.03-.11.06-.16.09Z" style="fill: #dddffe; stroke-width: 0px;"/>
                <path d="m138.43,85.03c.22-.53.39-1.17.38-1.81,0-.17-.04-.3-.19-.4-.18-.12-.75-.32-.94-.18-.19.15-.49.27-.4.44.13.27,1.22,1.77,1.15,1.94Z" style="fill: #fe6f62; stroke-width: 0px;"/>
                <g>
                  <g>
                    <path d="m129.27,84.81c1.1-.5,3.1-1.48,4.18-2.22.16-.11.89.37,1.07.33,1.4-.3,2.89-.23,4.19.34.01,0,.03.01.04.02v8.59h-8.24l-1.25-7.07Z" style="fill: #fdc2a5; stroke-width: 0px;"/>
                    <path d="m132.37,84.15s5.13,2.58,4.88-.27c-.34-3.97-.6-4.41-2.37-4.92-.49-.14-.68-.55-1.18-.53-1.84.07-1.07,1.03-.96,1.73.33,2.06-.4,2.9-.37,3.99Z" style="fill: #fdc2a5; stroke-width: 0px;"/>
                    <g>
                      <path d="m137,82.61s.05,0,.07,0c-.2-.06-.32,0-.07,0Z" style="fill: #fafafe; stroke-width: 0px;"/>
                      <path d="m126.63,87.76c-.01.16-.01.32,0,.49.02.48.15.94.25,1.4.12.55.39,1.04.68,1.51.31.5.56,1.01.87,1.51.31.51.47,1.02.72,1.56.55,1.2,1.04,2.45,1.26,3.76.18,1.05.18,2.12.12,3.18-.03.5-.12,1.02-.09,1.52,0,.14-.03.39,0,.5.04.18.13.25.3.38.92.71,2,1.13,3.13,1.32,1.21.2,2.52.12,3.69-.08.35-.06.67-.13.99-.2,1.39-.33,2.43-.75,2.61-.88.26-.2.14-.14-.07-1.99-.89-7.61,2.47-7.75,1.16-11.73-.22-.68-.68-1.32-.96-2-1.04-2.5-.39-5.27-4.2-5.41.24.07,2.45,3.8-.21,4.89-1.71.7-5.11-1.17-5.9-3.5-1.13.53-2.16.86-3.1,1.56-.8.59-1.16,1.3-1.22,2.21Z" style="fill: #f7f7ff; stroke-width: 0px;"/>
                    </g>
                    <path d="m134.27,81.69c-.14-.09-.28-.19-.41-.3-.06-.05-.12-.1-.18-.16-.51-.48-.82-1.13-1.2-1.7-.39-.57-.6-1.33-.7-2.01-.2-1.38.15-2.83,1.13-3.86,1.1-1.15,2.85-1.63,4.38-1.2.41.12.81.29,1.19.49.33.17.66.36.91.63.17.18.29.39.41.6.21.38.32.77.44,1.18.07.23.04.48.04.71,0,.42-.03.83-.11,1.24-.07.34-.11.68-.12,1.03,0,.35.16.65.27.97.07.2.19.51.13.71-.07.22-.3.39-.41.59-.12.21-.15.37-.16.62,0,.16-.06.26-.12.4-.05.12-.02.21-.04.33-.02.14-.13.26-.18.39-.06.15-.1.29-.18.43-.46.82-1.12.88-1.94.56-.64-.25-1.24-.57-1.82-.93-.44-.26-.9-.48-1.33-.75Z" style="fill: #ffd4c0; stroke-width: 0px;"/>
                  </g>
                  <path d="m127.05,86.38c.05-.08.1-.16.15-.25.15-.28.4-.55.72-.56.25,0,.47.15.64.32.46.45.77,1.03,1.05,1.61.28.59.55,1.2.68,1.84.12.57.19,1.38-.13,1.9-.31.5-.58,1.03-.87,1.55-.58,1.05-1.17,2.09-1.79,3.12-.29.48-.57,1.11-.97,1.5-1.15,1.1-2.78.91-3.42-.02-.24-.35-.26-.84-.23-1.25.05-.6.32-1.15.52-1.7.24-.64.48-1.29.73-1.93.66-1.69,1.33-3.42,2.21-5.01.22-.4.48-.75.72-1.13Z" style="fill: #dddffe; stroke-width: 0px;"/>
                  <path d="m118.62,89.51c.68-.19,1.22.34,1.71.7,1.16.85,5.46,3.62,6.74,6.03.31.58-1.1,1.11-1.72,1.69-.43.39-1.24.18-1.77,0-.66-.21-6.19-5.98-6.31-6.29-.26-.68.82-2,1.35-2.14Z" style="fill: #dddffe; stroke-width: 0px;"/>
                </g>
                <path d="m136.59,144.96c0,.1-.02.21-.04.31-.07.34-.26.67-.56.83-.24.13-.54.14-.81.07-.94-.25-1.56-1.19-1.85-2.06-.35-1.05-.28-2.31-.88-3.25-.14-.22-.32-.41-.45-.64-.2-.36-.24-.79-.18-1.2.05-.35.17-.7.43-.94.49-.48,1.29-.33,1.78.06.37.3,1,.31,1.22.74.27.52.2.59.35,1.05.4,1.26.79,2.99.95,4.31.03.24.06.48.04.72Z" style="fill: #65656b; stroke-width: 0px;"/>
                <path d="m132.82,138.47l-.57,3.73c-.2.08-.32.02-.43-.09l.08-2.83.92-.8Z" style="fill: #65656b; stroke-width: 0px;"/>
                <path d="m136.35,140.62l.28-3.44.95.08-.53,3.45c-.23.14-.51.17-.7-.09Z" style="fill: #65656b; stroke-width: 0px;"/>
                <path d="m142.67,140.57c.42.61.96,1.56,1.3,2.22.1.18.17.38.13.58-.04.2-.2.37-.39.46-.19.09-.4.12-.61.13-.82.06-1.65-.06-2.42-.33-.42-.15-.84-.36-1.13-.7-.41-.49-.5-1.17-.63-1.79-.12-.63-.34-1.31-.88-1.65-.15-.09-.32-.15-.47-.24-1.13-.64-1.24-2.21-.5-3.19.4-.53.87-.45,1.4-.17.65.34.96.93,1.42,1.46.07.07.13.15.21.22.49.47-.08-1.98.18-1.31.74,1.89,1.87,3.58,2.38,4.32Z" style="fill: #65656b; stroke-width: 0px;"/>
                <path d="m142,120.75c-.55,2.96-1.19,5.97-1.42,8.69-.1,1.24-.23,5.8-.05,7.03.09.66-1.14,1.02-1.7.67-.39-.24-1.16-.81-1.17-1.27-.06-2.6-1.23-6.13-1.66-8.69-.32-1.88-.18-4.3.32-6.42h5.68Z" style="fill: #fdc2a5; stroke-width: 0px;"/>
                <path d="m140.46,135.68c0,.44.07.88.15,1.3.04.2.04.39.1.59.06.21.15.42.25.62.17.37.37.73.58,1.08.2.33.48.63.62.99.09.23.12.49.02.72-.13.32-.65.05-.86-.07-.15-.08-.29-.18-.42-.3-.5-.44-.82-1.05-1.26-1.54-.5-.56-1.19-.87-1.78-1.32-.18-.14-.36-.28-.48-.47-.18-.28-.22-.64-.16-.96.07-.4.35-.71.41-1.1.05-.39.07-.82.31-1.15l2.53,1.62Z" style="fill: #fdc2a5; stroke-width: 0px;"/>
                <path d="m137.68,117.64c-.33,4.52-1.87,9.87-2.24,14.39-.1,1.24-.13,7.42.04,8.65.09.66-1.62.65-2.18.3-.39-.24-.77-2.06-.78-2.52-.06-2.6-1.23-6.13-1.66-8.69-.44-2.64,0-6.37,1.09-8.81.22-.5.55-1.04,1.08-1.13l4.65-2.18Z" style="fill: #ffd4c0; stroke-width: 0px;"/>
                <path d="m134.87,138.5c.07.31.5.37.52.68.03.35.12,1.25.19,1.6.09.42.16.98.1,1.42-.05.38-.21.62-.56.78-.41.18-.77.09-1.07-.23-.31-.35-.55-.77-.74-1.19-.17-.38-.36-.78-.45-1.19-.18-.8-.39-1.71-.33-2.54,0-.09.23-1.17.28-1.13.14.09.27.21.4.33.51.44,1.03.89,1.54,1.33.19.17.05-.12.11.15Z" style="fill: #ffd4c0; stroke-width: 0px;"/>
                <path d="m141.06,101.59c1.86,5.13,1.34,14.94,1.57,19.15.04.74.03,2.56-.47,3.11-.54.59-3.24,2.27-5.82,2.24-2.89-.04-6.23-1.22-6.58-2.65-.17-.72-.67-5.96-1.03-8.25-.37-2.34-.8-4.7-.56-7.07.26-2.6,1.16-4.86,2.38-7.15-.17.31,1.22,2.32,5.37,2.55,3.45.19,5.15-1.93,5.15-1.93Z" style="fill: #65656b; stroke-width: 0px;"/>
                <path d="m133.74,81.32c-.02.87.29,1.72.66,2.51.37.79.8,1.56,1.04,2.4.35,1.2.3,2.53.85,3.65.28.57.71,1.05,1.06,1.58.35.53.64,1.14.58,1.77-.07.81-.73,1.73-1.6,1.76-.53.02-1.05-.29-1.29-.76-.23-.44-.21-.98-.48-1.4-.24-.37-.66-.59-.87-.98-.4-.73.14-1.7-.23-2.45-.25-.5-.84-.75-1.12-1.24-.23-.41-.19-.92-.23-1.39-.04-.44-.15-.76-.49-1.04-.37-.3-.74-.6-1.08-.93-.13-.13-.26-.27-.3-.45-.05-.23.07-.47.16-.68.21-.47.34-.98.36-1.5.02-.51-.07-1.01-.19-1.5-.12-.49-.26-.87-.14-1.37.1-.43.37-.82.44-1.26.13-.72-.26-1.46-.15-2.19.03-.22.16-.46.38-.48.11,0,.22.06.31.11.42.26.85.6,1.3.78.34.13.6.15.9.4.61.51,1.14,1.32,1.15,2.14,0,.49-.33.63-.59,1.03-.28.43-.43.96-.44,1.47Z" style="fill: #aa7066; stroke-width: 0px;"/>
                <path d="m130.72,75.99c.14-3.19,1.87-3.66,1.87-3.66,0,0,.5-1.04,3.12-1.12,1.19-.03,2.61.55,3.47,1.44.29.3.54.63.74.99.43.79.61,1.67.57,2.56-.01.24-.09.47-.21.67,0-.43-.13-.85-.38-1.2,0,0,0,0,0,0-.12-.17-.27-.31-.44-.43-.08-.06-.17-.11-.26-.16-.08-.04-.19-.11-.28-.11-.1,0-.11.16-.14.23-.04.11-.08.23-.12.34-.09.22-.18.44-.3.65-.23.4-.55.76-.97.96-.31.15-.65.2-.98.3-.68.21-.94.69-1.24,1.29-.18.35-.43.7-.84.63-.37-.07-.7-.36-1.07-.47-.08-.02-.19-.02-.24.05-.15.2.47.51.59.59.06.04.03,1.99.03,1.99,0,0-3.04-2.36-2.91-5.53Z" style="fill: #aa7066; stroke-width: 0px;"/>
                <path d="m132.88,78.06c-.8-.05-1,.94-.45,1.7.16.22.44.42.65.6,1.43,1.21,1.79-.11,1.33-.52-1.06-.96-.54-1.71-1.54-1.78Z" style="fill: #ffd4c0; stroke-width: 0px;"/>
                <path d="m133.4,79.87c-.09-.08-1-.62-.38-.98.17-.1.36.05.39.23.01.09-.01.19,0,.28,0,.06.03.11.06.16.08.13.36.26.3.45-.05.17-.32-.09-.37-.13Z" style="fill: #fdc2a5; stroke-width: 0px;"/>
              </g>
              <g>
                <g style="isolation: isolate;">
                  <g>
                    <path d="m152.96,63.55l.87.75c.29.25.75.31,1.3.12,1.11-.38,2.19-1.63,2.41-2.78.11-.58-.01-1.03-.31-1.28l-.87-.75c.29.25.42.7.31,1.29-.22,1.16-1.3,2.4-2.41,2.78-.55.19-1.01.13-1.3-.12Z" style="fill: #feb923;"/>
                    <g style="clip-path: url(#clippath);">
                      <g style="isolation: isolate;">
                        <path d="m152.96,63.55l.87.75c.29.25.75.31,1.3.12.64-.22,1.27-.73,1.74-1.34l-.87-.75c-.46.61-1.09,1.12-1.74,1.34-.55.19-1.01.13-1.3-.12h0Z" style="fill: #feb923; stroke-width: 0px;"/>
                        <path d="m156,62.33l.87.75c.24-.31.43-.65.55-1l-.87-.75c-.13.34-.32.68-.55,1h0Z" style="fill: #feb923; stroke-width: 0px;"/>
                        <path d="m156.55,61.33l.87.75c.05-.15.1-.3.13-.44.11-.58-.01-1.03-.31-1.28l-.87-.75c.29.25.42.7.31,1.29-.03.15-.07.29-.12.44h0Z" style="fill: #feb923; stroke-width: 0px;"/>
                      </g>
                    </g>
                  </g>
                  <path d="m152.66,62.27c-.22,1.16.49,1.79,1.6,1.41,1.11-.38,2.19-1.63,2.41-2.78.22-1.16-.49-1.79-1.6-1.41-1.11.38-2.19,1.63-2.41,2.78Z" style="fill: #feb923; stroke-width: 0px;"/>
                </g>
                <g>
                  <path d="m167.13,64.93c.38.33.74,2.32.62,2.86-.18.87-.59,1.77-1.14,2.59h0c-1.04,1.55-2.59,2.87-4.15,3.38-1.16.38-2.21.13-2.82-.4l1.03.91c.61.53,1.57.67,2.73.29,1.56-.51,3.11-1.82,4.15-3.38h0c.55-.83.95-1.72,1.14-2.59.11-.54.16-1.04.09-1.47h0s0,0,0,0c0,0,0,0,0,0h0c-.09-.59-.34-1.06-.71-1.39l-.93-.81Z" style="fill: #ffc122; stroke-width: 0px;"/>
                  <path d="m159.01,71.35l.11-2.13c-.07,1.29.83,1.96,2.18,1.52l1.18,3.03c-2.15.7-3.59-.37-3.48-2.42h0Z" style="fill: #fed130; stroke-width: 0px;"/>
                  <g>
                    <path d="m162.49,73.77l-1.18-3.03c.06-.02.12-.04.19-.07l1.29,2.99c-.1.04-.2.07-.3.11h0Z" style="fill: #fed130; stroke-width: 0px;"/>
                    <path d="m162.79,73.66l-1.29-2.99c.52-.2,1.03-.54,1.49-.96l2.18,2.42c-.73.67-1.54,1.21-2.37,1.54h0Z" style="fill: #fed130; stroke-width: 0px;"/>
                    <path d="m165.16,72.13l-2.18-2.42c.81-.75,1.44-1.75,1.64-2.72.16-.76.02-1.35-.33-1.72l2.96-.22c.56.58.77,1.53.52,2.74-.32,1.54-1.33,3.14-2.62,4.33h0Z" style="fill: #fed130; stroke-width: 0px;"/>
                    <path d="m167.26,65.06l-2.96.22c-.26-.27-.63-.41-1.09-.39l2.31-.45c.73-.03,1.32.2,1.74.63h0Z" style="fill: #fed130; stroke-width: 0px;"/>
                    <path d="m165.53,64.43l-2.31.45c-.12,0-.25.02-.38.05l2.09-.43c.21-.04.42-.07.61-.08h0Z" style="fill: #fed130; stroke-width: 0px;"/>
                  </g>
                </g>
                <g>
                  <g>
                    <path d="m159.04,70.08c-.07-1.37-.72-2.66-1.55-3.73.12.15.24.3.36.46-.24-.33-.5-.65-.78-.94.15.16.29.32.42.49-.35-.42-.73-.81-1.14-1.16.79.46,2.34-1.7,2.15-2.46,1.2,1.09,2.77,1.88,4.4,2,.63.05,1.31-.12,1.89.2.72.4.86,1.27.75,2.03-.24,1.65-1.47,3.2-2.85,4.08-1.28.81-3.54,1.13-3.64-.96Z" style="fill: #ffc122; stroke-width: 0px;"/>
                    <g>
                      <path d="m158.52,62.76l-2.6-2.38c.15.17.22.43.16.77-.04.21-.12.43-.23.64l2.6,2.31c.11-.2.19-.41.22-.61.06-.32,0-.57-.15-.73h0Z" style="fill: #feb923; stroke-width: 0px;"/>
                      <path d="m158.45,64.09l-2.6-2.31c-.1.18-.22.35-.35.5l2.62,2.28c.13-.15.24-.31.34-.48h0Z" style="fill: #feb923; stroke-width: 0px;"/>
                      <path d="m158.12,64.57l-2.62-2.28c-.28.32-.63.58-.99.71-.37.14-.68.1-.88-.06l2.71,2.25c.19.16.48.19.84.06.34-.12.67-.37.94-.68h0Z" style="fill: #feb923; stroke-width: 0px;"/>
                    </g>
                  </g>
                  <path d="m153.49,49.91c.09-.1.15-.22.17-.36.49-2.53-.65-5.84-2.6-7.54-1.06-.92-2.19-1.23-3.21-.88-1.01.35-1.72,1.3-1.98,2.67-.08.42.19.82.61.9.42.08.82-.19.9-.61.15-.8.51-1.35.98-1.51.47-.16,1.09.05,1.7.59,1.52,1.32,2.49,4.11,2.1,6.09-.08.42.19.82.61.9.28.05.55-.05.73-.25Z" style="fill: #ffc122; stroke-width: 0px;"/>
                  <path d="m156.77,58.25c.39-2.41-.19-4.62-1.71-6.57.65.79.9,1.99.64,3.49-.62,3.57-3.95,7.48-7.43,8.74-1.56.57-2.89.5-3.83-.07.7.39,1.88,1.05,3.66,1.17,1.88.13,3.31-.41,3.84-.65,3.84-1.74,4.67-5.12,4.83-6.12h0Z" style="fill: #ffc122; stroke-width: 0px;"/>
                  <path d="m155.16,51.8l-7.08-8.7c.71.98.98,2.4.67,4.16-.18,1.05-.55,2.11-1.07,3.16l7.15,7.3c.42-.84.72-1.71.86-2.55.25-1.42.03-2.57-.54-3.36h0Z" style="fill: #ffc122; stroke-width: 0px;"/>
                  <path d="m154.84,57.72l-7.15-7.3c-.55,1.11-1.26,2.19-2.08,3.18l7.55,6.69c.67-.8,1.24-1.67,1.68-2.57h0Z" style="fill: #fed130; stroke-width: 0px;"/>
                  <path d="m153.15,60.29l-7.55-6.69c-1.68,2.02-3.83,3.67-6.03,4.47-1.93.7-3.58.62-4.73-.08l9.62,5.85c.93.57,2.26.63,3.83.07,1.78-.65,3.52-1.98,4.88-3.62h0Z" style="fill: #ffc122; stroke-width: 0px;"/>
                  <path d="m133.16,52.9c-.77,4.41,2.1,6.72,6.4,5.16,4.3-1.56,8.42-6.4,9.19-10.81.77-4.41-2.1-6.72-6.4-5.16-4.3,1.56-8.42,6.4-9.19,10.81Z" style="fill: #ffdb5a; stroke-width: 0px;"/>
                  <path d="m134.51,52.42c-.64,3.65,1.73,5.56,5.3,4.27,3.56-1.29,6.97-5.3,7.6-8.95.64-3.65-1.73-5.56-5.3-4.27-3.56,1.29-6.97,5.3-7.6,8.95Z" style="fill: #feb923; stroke-width: 0px;"/>
                  <path d="m146.48,67.02c.41-.47.7-1.12.85-1.9.08-.42-.19-.82-.61-.9-.42-.08-.82.19-.9.61-.15.8-.51,1.35-.98,1.51-.47.16-1.09-.05-1.7-.59-1.52-1.32-2.49-4.11-2.1-6.09.08-.42-.19-.82-.61-.9-.42-.08-.82.19-.9.61-.49,2.53.65,5.84,2.6,7.54,1.06.92,2.19,1.23,3.21.88.44-.15.82-.41,1.13-.77Z" style="fill: #ffdb5a; stroke-width: 0px;"/>
                </g>
              </g>
              <path d="m141.73,64.8c-.17.26-.19.63.02.85.13.13.26.17.43.22.26.06.48.17.71.32.28.18.54.39.84.54.3.14.66.21.97.09.98-.39.25-1.72-.31-2.12-.47-.34-1.04-.5-1.6-.62-.35-.08-.87.44-1.06.74Z" style="fill: #ffd4c0; stroke-width: 0px;"/>
              <path d="m140.98,66.8c-.2-.61,0-1.39.58-1.67.17.23,0,.55.05.83.06.28.32.46.58.58.26.12.54.23.7.46.33.48-.11,1.18-.68,1.14-.55-.04-1.08-.87-1.23-1.33Z" style="fill: #ffd4c0; stroke-width: 0px;"/>
            </g>
          </g>
          <g>
            <g style="isolation: isolate;">
              <polygon points="57.05 139.33 50.74 135.85 62.29 105.56 68.6 109.04 57.05 139.33" style="fill: #fb5c4d; stroke-width: 0px;"/>
              <polygon points="68.6 109.04 62.29 105.56 88.58 89.59 94.89 93.07 68.6 109.04" style="fill: #fe6f62; stroke-width: 0px;"/>
              <polygon points="27.07 157.59 20.77 154.11 50.74 135.85 57.05 139.33 27.07 157.59" style="fill: #fe6f62; stroke-width: 0px;"/>
              <polygon points="27.11 159.03 20.8 155.55 20.77 154.11 27.07 157.59 27.11 159.03" style="fill: #3e158d; stroke-width: 0px;"/>
              <polygon points="112.51 64.54 113.33 65.17 95.38 94.24 69.33 110.06 57.78 140.35 27.11 159.03 27.07 157.59 57.05 139.33 68.6 109.04 94.89 93.07 112.51 64.54" style="fill: #e03f30; stroke-width: 0px;"/>
            </g>
            <g style="isolation: isolate;">
              <polygon points="121.31 47.35 122.17 49.08 119.74 71.3 118.87 69.58 121.31 47.35" style="fill: #fb5c4d; stroke-width: 0px;"/>
              <polygon points="118.87 69.58 119.74 71.3 100.55 59.83 99.69 58.11 118.87 69.58" style="fill: #e03f30; stroke-width: 0px;"/>
              <polygon points="121.31 47.35 118.87 69.58 99.69 58.11 121.31 47.35" style="fill: #fb5c4d; stroke-width: 0px;"/>
            </g>
            <polygon points="94.89 93.07 88.58 89.59 106.2 61.06 112.51 64.54 94.89 93.07" style="fill: #fb5c4d; stroke-width: 0px;"/>
          </g>
          <g>
            <g>
              <path d="m247.91,147.36l-8.4-3.26c-8.61-3.34-19.43-.97-30.38,7.9l8.4,3.26c10.96-8.86,21.77-11.23,30.38-7.9h0Z" style="fill: #f7f7ff; stroke-width: 0px;"/>
              <g>
                <path d="m239.51,144.11l8.4,3.26c-8.61-3.34-19.43-.97-30.38,7.9l-8.4-3.26c7.81-6.32,15.56-9.34,22.48-9.34,2.78,0,5.43.49,7.9,1.44h0Z" style="fill: #f7f7ff;"/>
                <g style="clip-path: url(#clippath-1);">
                  <path d="m247.91,147.36l-8.4-3.26c-8.61-3.34-19.43-.97-30.38,7.9l8.4,3.26c10.96-8.86,21.77-11.23,30.38-7.9h0Z" style="fill: #f7f7ff; stroke-width: 0px;"/>
                </g>
              </g>
              <path d="m194.77,259.53l8.4,3.26c-8.5-3.29-14.85-12.15-17.05-25.82-4.43-27.51,9.63-64.09,31.4-81.7l-8.4-3.26c-21.77,17.61-35.83,54.19-31.4,81.7,2.2,13.67,8.55,22.53,17.05,25.82h0Z" style="fill: #f7f7ff; stroke-width: 0px;"/>
              <g>
                <path d="m217.53,155.26c-21.77,17.61-35.83,54.19-31.4,81.7,2.2,13.67,8.55,22.53,17.05,25.82l-8.4-3.26c-8.5-3.29-14.85-12.15-17.05-25.82-4.43-27.51,9.63-64.09,31.4-81.7l8.4,3.26Z" style="fill: #f7f7ff;"/>
                <g style="clip-path: url(#clippath-2);">
                  <path d="m217.53,155.26l-8.4-3.26c-21.77,17.61-35.83,54.19-31.4,81.7,2.2,13.67,8.55,22.53,17.05,25.82l8.4,3.26c-8.5-3.29-14.85-12.15-17.05-25.82-4.43-27.51,9.63-64.09,31.4-81.7h0Z" style="fill: #f7f7ff; stroke-width: 0px;"/>
                </g>
              </g>
              <g>
                <path d="m217.53,155.26c-21.77,17.61-35.83,54.19-31.4,81.7,4.43,27.51,25.66,35.54,47.43,17.92,21.77-17.61,35.83-54.19,31.4-81.7-4.43-27.51-25.66-35.54-47.43-17.92h0Z" style="fill: #fe6f62; stroke-width: 0px;"/>
                <path d="m219.73,168.95c-15.79,12.77-25.98,39.3-22.77,59.25,3.21,19.95,18.61,25.77,34.39,13,15.79-12.77,25.98-39.3,22.77-59.25-3.21-19.95-18.61-25.77-34.39-13h0Z" style="fill: #f7f7ff; stroke-width: 0px;"/>
                <path d="m221.65,180.9c-10.56,8.55-17.39,26.3-15.24,39.65,2.15,13.35,12.45,17.25,23.02,8.7,10.56-8.55,17.39-26.3,15.24-39.65-2.15-13.35-12.45-17.25-23.02-8.7h0Z" style="fill: #fe6f62; stroke-width: 0px;"/>
                <path d="m223.39,191.73c-5.83,4.72-9.6,14.52-8.42,21.9,1.19,7.37,6.88,9.52,12.71,4.8,5.83-4.72,9.6-14.52,8.42-21.9-1.19-7.37-6.88-9.52-12.71-4.8h0Z" style="fill: #f7f7ff; stroke-width: 0px;"/>
              </g>
            </g>
            <g>
              <path d="m279.85,239.52c1.15,5.91-.48,14.76-8.61,19.45-8.71,5.03-16.09,1.14-24.22-.5l32.82-18.95Z" style="fill: #e03f30; stroke-width: 0px;"/>
              <path d="m278.52,234.23c-4.54-3.96-13.02-6.96-21.19-2.25-8.75,5.05-9.1,13.4-11.79,21.29l32.97-19.04Z" style="fill: #f94f3f; stroke-width: 0px;"/>
              <path d="m280.47,237.55c6.85,2.62,12.06,7.52,3.89,12.23-8.75,5.05-23.22,5.26-36.87,6.81l32.97-19.04Z" style="fill: #f94f3f; stroke-width: 0px;"/>
              <g>
                <path d="m278.92,235.19l-45.29,25.12v6.36l46.41-27.73c.28-.16.46-.52.46-1.01,0-1.01-.71-2.23-1.58-2.73Z" style="fill: #fe6f62; stroke-width: 0px;"/>
                <path d="m233.63,264.09l46.69-27.11c-.26-.73-.79-1.44-1.4-1.79l-45.29,25.12v3.78Z" style="fill: #fb5c4d; stroke-width: 0px;"/>
                <path d="m280.33,236.98l-46.69,27.11v2.59l46.41-27.73c.28-.17.46-.52.46-1.02,0-.3-.06-.63-.18-.95Z" style="fill: #f94f3f; stroke-width: 0px;"/>
                <path d="m233.63,260.31l45.29-25.12c-.1-.06-.19-.1-.29-.13-.02,0-.05-.02-.07-.02-.03,0-.05-.02-.08-.03-.06-.02-.12-.02-.18-.03,0,0,0,0-.01,0-.08,0-.16,0-.24.01-.02,0-.04,0-.05.01-.07.02-.15.04-.21.08l-44.16,24.01v1.22Z" style="fill: #f94f3f; stroke-width: 0px;"/>
              </g>
              <g>
                <path d="m220.42,266.82l12.2-8.01c.54-.31,1.28-.27,2.1.21l-12.62,7.97c-.66-.38-1.25-.41-1.68-.16h0Z" style="fill: #f7f7ff; stroke-width: 0px;"/>
                <g style="clip-path: url(#clippath-3);">
                  <path d="m220.42,266.82l12.2-8.01c.35-.21.8-.26,1.29-.13l-12.46,8.04c-.4-.1-.75-.06-1.04.11h0Z" style="fill: #f7f7ff; stroke-width: 0px;"/>
                  <path d="m221.45,266.71l12.46-8.04c.26.06.53.18.81.34l-12.62,7.97c-.22-.13-.44-.22-.65-.27h0Z" style="fill: #f7f7ff; stroke-width: 0px;"/>
                </g>
                <path d="m236.81,266.02l-13.04,6.57c.43-.25.69-.77.69-1.52,0-1.5-1.05-3.33-2.36-4.09l12.62-7.97c1.64.94,2.95,3.23,2.95,5.11,0,.93-.33,1.59-.86,1.9h0Z" style="fill: #f7f7ff; stroke-width: 0px;"/>
                <g style="clip-path: url(#clippath-4);">
                  <path d="m222.1,266.98l12.62-7.97c1.14.66,2.13,1.97,2.62,3.34l-13.15,7.3c-.39-1.09-1.18-2.14-2.09-2.67h0Z" style="fill: #f7f7ff; stroke-width: 0px;"/>
                  <path d="m224.19,269.65l13.15-7.3c.21.6.33,1.2.33,1.77,0,.93-.33,1.59-.86,1.9l-13.04,6.57c.43-.25.69-.77.69-1.52,0-.45-.09-.94-.27-1.42h0Z" style="fill: #f7f7ff; stroke-width: 0px;"/>
                </g>
                <path d="m222.1,266.98c1.31.76,2.36,2.59,2.36,4.09,0,1.5-1.07,2.11-2.37,1.36-1.31-.75-2.36-2.59-2.36-4.09,0-1.5,1.07-2.11,2.37-1.35h0Z" style="fill: #f7f7ff; stroke-width: 0px;"/>
              </g>
              <g>
                <path d="m194.11,285.26l26.35-17.04c.28-.16.67-.14,1.11.11l-27.12,16.96c-.13-.07-.25-.08-.33-.03h0Z" style="fill: #595964; stroke-width: 0px;"/>
                <g>
                  <path d="m220.46,268.23l-26.35,17.04c.09-.05.2-.04.33.03l27.12-16.96c-.25-.14-.49-.21-.7-.21-.15,0-.29.04-.41.1h0Z" style="fill: #595964;"/>
                  <g style="clip-path: url(#clippath-5);">
                    <path d="m194.11,285.26l26.35-17.04c.19-.11.42-.14.68-.07l-26.82,17.08c-.08-.02-.15-.01-.2.02h0Z" style="fill: #595964; stroke-width: 0px;"/>
                    <path d="m194.31,285.24l26.82-17.09c.14.03.28.09.43.18l-27.12,16.96s-.09-.04-.13-.05h0Z" style="fill: #595964; stroke-width: 0px;"/>
                  </g>
                </g>
                <path d="m222.66,272.02l-27.89,14.38c.08-.05.14-.15.14-.3,0-.3-.21-.66-.46-.81l27.12-16.96c.86.5,1.55,1.7,1.55,2.68,0,.49-.17.84-.45,1h0Z" style="fill: #595964; stroke-width: 0px;"/>
                <g>
                  <path d="m194.44,285.3c.26.15.47.51.46.81,0,.15-.05.25-.14.3l27.89-14.38c.28-.16.45-.51.45-1,0-.98-.69-2.19-1.55-2.68l-27.12,16.96Z" style="fill: #595964;"/>
                  <g style="clip-path: url(#clippath-6);">
                    <path d="m194.44,285.3l27.12-16.96c.6.35,1.12,1.03,1.37,1.75l-28.08,15.73c-.08-.22-.23-.42-.41-.53h0Z" style="fill: #797882; stroke-width: 0px;"/>
                    <path d="m194.85,285.82l28.08-15.73c.11.31.18.63.17.93,0,.49-.17.84-.45,1l-27.89,14.38c.08-.05.14-.15.14-.3,0-.09-.02-.19-.05-.28h0Z" style="fill: #595964; stroke-width: 0px;"/>
                  </g>
                </g>
                <path d="m194.44,285.3c.26.15.47.51.46.81,0,.3-.21.42-.47.27-.26-.15-.47-.51-.46-.81,0-.3.21-.42.47-.27h0Z" style="fill: #65656b; stroke-width: 0px;"/>
              </g>
              <path d="m279.47,235.58c1.16-7.24-.48-14.2-8.65-9.49-8.75,5.05-16.16,17.48-24.33,28.53l32.98-19.04Z" style="fill: #fb5c4d; stroke-width: 0px;"/>
            </g>
          </g>
          <g>
            <path d="m266.73,230.79c-.3,1.3-7.52,3.52-5.87-1.23,1.49-4.25.5-16.08,3.72-15.43.26.05.85.13,1.06.28,1.32.91,1.67,5.6,1.67,5.8-.21,6.78-.57,10.51-.58,10.57Z" style="fill: #f7f7ff; stroke-width: 0px;"/>
            <g>
              <path d="m274.34,215.03c15.83-3.17,31.88-8.25,44.31-6.21,12.43,2.04,9.57,8.88,2.57,13.91l-46.88-7.7Z" style="fill: #f85d4f; stroke-width: 0px;"/>
              <path d="m224.81,205.92l32.2,3.57c-.25-.04-.53.03-.79.21l-31.43-3.68.02-.1Z" style="fill: #585863; stroke-width: 0px;"/>
              <path d="m224.79,206.02l31.43,3.68c-.14.09-.27.22-.4.38l-31.06-3.91.03-.14Z" style="fill: #656573; stroke-width: 0px;"/>
              <path d="m224.6,207.06l.17-.9,31.06,3.91c-.52.64-.81,1.63-.8,2.54l-30.43-5.56Z" style="fill: #656573; stroke-width: 0px;"/>
              <path d="m224.6,207.06l30.43,5.56c0,.4.07.78.2,1.11.21.55.55.86.93.92l-31.67-7,.11-.6Z" style="fill: #585863; stroke-width: 0px;"/>
              <path d="m255.82,210.08c-.75.92-1.02,2.55-.6,3.66.42,1.1,1.37,1.25,2.12.33.75-.92,1.02-2.55.6-3.66-.42-1.1-1.37-1.25-2.12-.34h0Z" style="fill: #52525e; stroke-width: 0px;"/>
              <path d="m259.7,208.72l-13.03-2.18c-.56-.09-1.18.18-1.73.85l13.03,2.18c.55-.67,1.17-.95,1.73-.85h0Z" style="fill: #e8e9fe; stroke-width: 0px;"/>
              <g>
                <path d="m257.97,209.58l-13.03-2.18c.55-.67,1.17-.95,1.73-.85l13.03,2.18c-.56-.09-1.18.18-1.73.85h0Z" style="fill: #e8e9fe;"/>
                <g style="clip-path: url(#clippath-7);">
                  <path d="m259.7,208.72l-13.03-2.18c-.37-.06-.76.04-1.15.3l13.03,2.18c.38-.27.78-.37,1.15-.3h0Z" style="fill: #e8e9fe; stroke-width: 0px;"/>
                  <path d="m258.56,209.03l-13.03-2.18c-.2.14-.39.32-.58.55l13.03,2.18c.19-.23.38-.41.58-.55h0Z" style="fill: #e8e9fe; stroke-width: 0px;"/>
                </g>
              </g>
              <path d="m245.42,214.06l13.03,2.18c-.55-.09-1.05-.55-1.35-1.34-.61-1.6-.22-3.98.87-5.31l-13.03-2.18c-1.09,1.33-1.48,3.71-.87,5.31.3.8.8,1.25,1.35,1.34h0Z" style="fill: #e8e9fe; stroke-width: 0px;"/>
              <g>
                <path d="m257.1,214.89c.3.8.8,1.25,1.35,1.35l-13.03-2.18c-.55-.09-1.05-.55-1.35-1.34-.61-1.6-.22-3.98.87-5.31l13.03,2.18c-1.09,1.33-1.48,3.71-.87,5.31h0Z" style="fill: #e8e9fe;"/>
                <g style="clip-path: url(#clippath-8);">
                  <path d="m257.97,209.58l-13.03-2.18c-.76.93-1.18,2.37-1.16,3.69l13.03,2.18c-.02-1.33.4-2.76,1.16-3.69h0Z" style="fill: #e8e9fe; stroke-width: 0px;"/>
                  <path d="m256.82,213.27l-13.03-2.18c0,.58.1,1.13.29,1.62.3.8.8,1.25,1.35,1.35l13.03,2.18c-.55-.09-1.05-.55-1.35-1.34-.18-.49-.28-1.04-.29-1.62h0Z" style="fill: #e8e9fe; stroke-width: 0px;"/>
                </g>
              </g>
              <g>
                <path d="m257.97,209.58c-1.09,1.33-1.48,3.71-.87,5.31.61,1.6,1.99,1.82,3.08.49,1.09-1.33,1.48-3.71.87-5.31-.61-1.6-1.99-1.82-3.08-.49h0Z" style="fill: #cacdfc; stroke-width: 0px;"/>
                <path d="m274.11,214.88c13.98,8.07,27.56,18.01,40,20.06,12.43,2.04,11.9-5.35,6.88-12.36l-46.88-7.7Z" style="fill: #e56250; stroke-width: 0px;"/>
                <path d="m321.19,222.37l-61.24-12.78c-.43-.07-.9.14-1.32.65l62.57,12.13Z" style="fill: #fa6450; stroke-width: 0px;"/>
              </g>
              <g style="clip-path: url(#clippath-9);">
                <path d="m321.19,222.37l-61.24-12.78c-.28-.05-.59.03-.88.23l62.12,12.55h0Z" style="fill: #fa6450; stroke-width: 0px;"/>
                <path d="m321.19,222.37l-62.12-12.55c-.15.11-.3.25-.45.42l62.57,12.13h0Z" style="fill: #fe6f62; stroke-width: 0px;"/>
              </g>
              <path d="m258.98,215.33l62.21,7.04-62.57-12.13c-.84,1.02-1.14,2.84-.67,4.06.23.61.61.96,1.03,1.03h0Z" style="fill: #fe6f62; stroke-width: 0px;"/>
              <g style="clip-path: url(#clippath-10);">
                <path d="m321.19,222.37l-62.57-12.13c-.58.71-.9,1.81-.89,2.83l63.46,9.3h0Z" style="fill: #fe6f62; stroke-width: 0px;"/>
                <path d="m321.19,222.37l-63.46-9.3c0,.44.08.87.22,1.24.23.61.61.95,1.03,1.03l62.21,7.04h0Z" style="fill: #fa6450; stroke-width: 0px;"/>
              </g>
              <g>
                <path d="m274.67,213.44c9.34-4.24,16.71-10.74,29.14-8.7,12.43,2.04,17.42,11.46,17.38,17.63l-46.52-8.93Z" style="fill: #fe6f62; stroke-width: 0px;"/>
                <path d="m274.25,215.99c7.49,7,12.34,14.39,24.77,16.43,12.43,2.04,20.12-4,22.05-9.87l-46.82-6.56Z" style="fill: #fa6450; stroke-width: 0px;"/>
              </g>
            </g>
            <g id="man">
              <g>
                <g id="man-2" data-name="man">
                  <g>
                    <path d="m262.53,274.79c-.2-.46-1.86-.9-2.35-1.07-1.24-.41-2.51-.49-3.78-.73-.26-.05-.53-.09-.78-.01-.63.2-.88,1.3-.73,1.85.1.39.4.7.74.91.51.32,1.2.56,1.8.59.65.03,1.25.17,1.8.52.72.45,1.24.95,2.13.92.89-.03,1.56-.64,1.5-1.55-.02-.33-.11-.65-.2-.96-.06-.2-.08-.35-.13-.47Z" style="fill: #15151a; stroke-width: 0px;"/>
                    <path d="m265.92,274.55c-.04-.05-.09-.11-.13-.17-.42-.59-1.01-.89-1.64-1.24-.23-.13-.48-.27-.75-.27-.61,0-.99.74-.89,1.34.04.28.16.54.22.82.12.52.1,1.27-.33,1.65-.58.52-1.43.86-2.07,1.31-.25.18-.5.37-.65.64-.35.63.18,1.6.74,1.92.35.2.78.2,1.17.1.59-.14,1.24-.47,1.68-.89.47-.44.99-.78,1.63-.93,1.09-.26,2.44-.47,2.65-1.84.06-.37-.07-.74-.28-1.05-.37-.54-.94-.9-1.35-1.39Z" style="fill: #595964; stroke-width: 0px;"/>
                  </g>
                </g>
                <path d="m261.39,246.71c-.49.49-2.33-.42-2.36-.66-2.19-1.7-1.93,5.09-1.3,7.78.34,1.45.25,2.97.45,4.44.22,1.65.57,3.28,1.04,4.87.1.34.21.7.46.96.51.54,1.37.49,2.1.37.63-.1,1.34-.28,1.65-.84.19-.35.19-.76.18-1.16,0-1.04-.01-2.12.19-3.14.22-1.09.44-2.18.66-3.27.19-.96.39-1.91.48-2.88.17-1.75.03-3.52-.24-5.26-.14-.91.16-2.62-1.13-2.8-1.17-.17-1.86,1.26-2.19,1.58Z" style="fill: #595964; stroke-width: 0px;"/>
                <path d="m258.78,260.24l-.36-1.52c.15.5.26,1.01.36,1.52Z" style="fill: #f7928b; stroke-width: 0px;"/>
                <path d="m259.48,262.58c.38-.52,1.31-.49,1.62-.35.24.11,2.02-.91,2.55-1.31-.04.03.03.46.03.53.01.18.02.36.03.54.02.36.04.71.05,1.07.03.7.04,1.4.03,2.1,0,.71-.03,1.43-.07,2.14-.04.64-.15,1.28-.09,1.91.03.32-.06.67-.1,1-.05.36-.09.72-.14,1.09-.09.72-.18,1.45-.27,2.17-.01.1-.03.2-.04.3-.07.55-.1,1.45-.52,1.86-.44.42-1.17.58-1.75.47-.49-.09-.95-.36-1.27-.74-.36-.43-.32-1.09-.32-1.63-.02-2.29.14-4.57.15-6.85,0-1.76-.09-3.54-.43-5.26l.54.97Z" style="fill: #595964; stroke-width: 0px;"/>
                <path d="m258.01,247.18c-.21-.11-1.29-.65-1.28-.94,0-.2-.52-.36-.66-.36-.25,0-.5.16-.7.31-.49.35-.85.89-1.08,1.47-.31.79-.38,1.66-.43,2.52-.14,2.55-.08,5.12.2,7.66.14,1.28.33,2.56.57,3.83.12.63.25,1.26.4,1.89.14.6.27.79.77,1.11,1.09.68,3.04.59,3.82-.64.84-1.32.49-3.38.76-4.87.39-2.16,1.83-3.75,2.49-5.8.49-1.51.42-2.93.17-4.47-.12-.73-.34-2.46-1.08-2.89-.2-.11-1.53-.42-2.6.65-.63.62-.56.92-1.33.52Z" style="fill: #797882; stroke-width: 0px;"/>
                <path d="m256.11,265.55c.6.94,1.19,1.88,1.77,2.83.46.75.91,1.5,1.36,2.26.34.58.68,1.17,1.02,1.76.43.76.86,1.52,1.3,2.26.33.55.57,1.35,1.22,1.62.57.24,1.43-.16,1.88-.47.36-.25,1.03-.74,1.19-1.16.16-.42-.09-1.07-.23-1.47-.38-1.05-.87-2.07-1.37-3.07-.85-1.68-1.75-3.34-2.69-4.97-.91-1.55-1.63-3.16-2.45-4.76-.09-.18-.3-.3-.48-.32-.24-.02-3.23,3.49-3.39,4.09,0,0,.15.24.88,1.4Z" style="fill: #797882; stroke-width: 0px;"/>
              </g>
              <path d="m265.35,238.55c.05-.38.1-.76.17-1.14.32-1.81.86-3.58,1.09-5.41.18-1.42.31-3.19-.82-4.29-.18-.18-.39-.33-.62-.45-2.19-1.24-4.28.27-6.34,1.01-1.35.49-2.64,1.12-3.85,1.89-.42.27-.85.45-1.13.87-.3.44-.46.92-.49,1.46-.03.61.08,1.21.18,1.82.59,3.5.85,7.08.43,10.6-.19,1.58-.24,3.19-.32,4.78,0,.16-.11.59-.03.74.16.31,1.3.45,1.64.54,1.23.31,2.49.55,3.76.64,1.65.12,3.33.01,4.92-.47.43-.13.87-.3,1.14-.66.51-.67.12-1.41.14-2.14.03-1.1.01-2.2-.01-3.3-.05-2.16-.12-4.33.15-6.49Z" style="fill: #f7f7ff; stroke-width: 0px;"/>
              <path d="m257.47,226.45c-.08-.56-.51-.43-.29-.94.18-.43.46-.83.83-1.12.37-.29.84-.46,1.31-.43.16,0,.27.1.43.1.44,0,.89-.08,1.33-.02.44.06.85.1.85.59,0,.66-.03,1.3.18,1.95.11.35.28.68.31,1.05.06.72-.46,1.38-1.11,1.69-.79.38-1.69.35-2.54.23-.42-.06-1.02-.15-1.27-.55-.19-.3-.11-.7-.07-1.04.06-.5.11-1,.04-1.51Z" style="fill: #fee2d4; stroke-width: 0px;"/>
              <g>
                <path d="m255.67,219.71c-.27.33-.48.69-.54,1.12-.14.95.24,1.94.03,2.88-.2.92.19,3,2,3.54.92.27,2.72-.05,3.3-.32.78-.37,1.3-1.13,1.76-1.86,3.78-6-3.99-8.47-6.56-5.35Z" style="fill: #fee2d4; stroke-width: 0px;"/>
                <path d="m263.95,222.37c-.02.18-.05.36-.08.53-.03.13-.06.26-.1.39-.03.11-.08.22-.13.33-.18.4-.44.77-.69,1.13-.35.5-.73,1.02-1.28,1.29-.24.12-.5.18-.76.23-.71.16-1.77.19-2.32-.4-.24-.26-.34-.64-.39-.99-.04-.34-.06-.64-.15-.98-.02-.08-.05-.17-.07-.25-.04-.13-.09-.27-.16-.39-.11-.2-.28-.37-.5-.44-.37-.11-.82.1-1.15-.12-.17-.11-.25-.31-.33-.49-.08-.18-.14-.39-.22-.59-.1-.27-.22-.53-.38-.74-.09-.11-.19-.21-.26-.34-.1-.17-.21-.33-.21-.52-.04-.88.69-1.75,1.29-2.31.33-.3.69-.57,1.1-.75.36-.15.75-.23,1.13-.28,1.14-.16,2.37-.14,3.37.42.27.15.52.34.65.62.03.06.05.13.09.18.06.07.15.11.23.14.27.13.5.29.68.48.93.95.79,2.58.62,3.84Z" style="fill: #fad7a3; stroke-width: 0px;"/>
                <path d="m257.74,222.41c.72-.06.92.84.44,1.54-.14.21-.4.39-.58.56-1.28,1.13-1.63-.06-1.22-.45.94-.89.46-1.57,1.37-1.65Z" style="fill: #fee2d4; stroke-width: 0px;"/>
                <path d="m257.56,223.86c.07-.08.83-.63.25-.89-.16-.07-.31.07-.32.23,0,.08.03.17.02.25,0,.05-.02.1-.04.14-.06.12-.29.26-.23.42.06.15.27-.1.31-.15Z" style="fill: #ffceb8; stroke-width: 0px;"/>
              </g>
            </g>
            <g>
              <path d="m249.79,216.03c-.69-1.11-1.39-3.26-.99-4.16.47-1.03.39-1.24.69-1.4.79-.39.61.38.8.48.21.11.24-.1.84-.12.49-.02.28.31.43.41.12.08.25-.06.36.07.04.04.04.12.09.16.12.1.18-.05.49.29.29.33-.73.7-.61,1.67.03.24.1.47.15.71.06.29.09.59.08.88,0,.25-.06.75-.05.88l-2.29.13Z" style="fill: #ffceb8; stroke-width: 0px;"/>
              <path d="m257.63,230.08c.54.1-2.14,8.13-4.38,3.64-2.01-4.03-7.14-9.1-4.42-10.94.22-.15.68-.52.94-.57,1.57-.31,1.94.87,2.06,1.03,3.67,4.85,5.74,6.83,5.81,6.85Z" style="fill: #f7f7ff; stroke-width: 0px;"/>
              <path d="m249.25,215.29c-.3.32-1.84,8.27-1.02,10,.4.84,3.21.68,3.67-.82.46-1.52.84-8.17.42-8.9-.45-.79-2.66-.71-3.07-.27Z" style="fill: #f7f7ff; stroke-width: 0px;"/>
            </g>
          </g>
          <g>
            <g style="isolation: isolate;">
              <g style="isolation: isolate;">
                <path d="m175.93,263.6v3.3c-.02,2.24-1.49,4.48-4.44,6.2-5.93,3.45-15.58,3.45-21.55,0-3.01-1.74-4.51-4.01-4.5-6.29v-3.3c0,2.27,1.5,4.55,4.51,6.29,5.97,3.45,15.62,3.45,21.55,0,2.94-1.71,4.42-3.95,4.43-6.2Z" style="fill: #dddffe;"/>
                <g style="clip-path: url(#clippath-11);">
                  <g style="isolation: isolate;">
                    <path d="m171.5,269.8c2.94-1.71,4.42-3.95,4.43-6.2l-4.43,6.2Z" style="fill: #dddffe; stroke-width: 0px;"/>
                    <path d="m171.49,273.1c-3.68,2.14-8.78,2.95-13.56,2.44v-3.3c4.78.51,9.89-.3,13.57-2.44v3.3Z" style="fill: #dddffe; stroke-width: 0px;"/>
                    <path d="m175.93,263.6v3.3c-.02,2.24-1.49,4.48-4.44,6.2l.11-4.81,4.32-4.69Z" style="fill: #c7caff; stroke-width: 0px;"/>
                    <path d="m157.95,272.23v3.3c-2.94-.31-5.74-1.13-8.01-2.44-.64-.37-1.21-.76-1.72-1.18v-3.3c.51.41,1.08.81,1.72,1.18,2.27,1.31,5.07,2.12,8,2.44h0Z" style="fill: #e8e9fe; stroke-width: 0px;"/>
                    <path d="m148.23,268.62v3.3c-1.87-1.53-2.8-3.32-2.79-5.11v-3.3c0,1.79.93,3.58,2.79,5.11h0Z" style="fill: #dddffe; stroke-width: 0px;"/>
                  </g>
                </g>
              </g>
              <path d="m171.43,257.31c5.97,3.45,6,9.04.07,12.48-5.93,3.45-15.58,3.45-21.55,0-5.97-3.45-6-9.04-.07-12.48,5.93-3.45,15.58-3.45,21.55,0Z" style="fill: #f7f7ff; stroke-width: 0px;"/>
            </g>
            <g>
              <g style="isolation: isolate;">
                <path d="m147.28,259.98c.28-1.99,1.1-3.74,2.49-5.19,1.4-1.46,3.21-2.51,5.12-3.15,3.42-1.13,7.16-1.22,10.63-.29,3.79,1.02,7.51,3.65,8.41,7.67.27,1.21.32,2.47-.15,3.63-.57,1.4-1.71,2.5-2.94,3.32-2.43,1.61-5.4,2.36-8.29,2.59-2.97.23-6.03-.07-8.84-1.07-2.6-.92-5.58-2.64-6.33-5.51-.18-.67-.16-1.33-.11-2.02Z" style="fill: #eeefff; stroke-width: 0px;"/>
                <path d="m170.4,266.26c1.4-.85,2.73-2.01,3.37-3.55.5-1.21.44-2.55.14-3.81-.53-2.17-1.91-3.96-3.66-5.3-3.17-2.43-7.63-3.22-11.54-2.79-2.32.26-4.57.9-6.58,2.09,2.32-1.39,5.25-2,7.93-2.06,2.45-.05,5,.38,7.18,1.55,1.82.97,3.38,2.56,3.77,4.65.46,2.51-.77,5.17-2.37,7.04-2.24,2.64-5.57,4.13-8.96,4.53,3.65.17,7.56-.45,10.72-2.36Z" style="fill: #e8e9fe; stroke-width: 0px;"/>
                <path d="m170.4,266.26c2.13-1.28,3.87-3.25,3.73-5.86-.09-1.8-.81-3.46-1.89-4.88-1.98-2.59-5.32-4.06-8.47-4.55-1.76-.28-3.53-.32-5.3-.13,4.11-.39,9.12.32,11.98,3.62,1.07,1.23,1.7,2.8,1.68,4.44-.02,1.87-.83,3.63-1.94,5.11-1.49,1.98-3.51,3.38-5.77,4.34,2.09-.34,4.16-.99,5.98-2.08Z" style="fill: #dddffe; stroke-width: 0px;"/>
                <path d="m149.99,258.91c-2.11,2.46,2.65,8.08,8.88,7.32,3.13-.38,5.1-2.16,4.14-3.13-.43-.44-1.85-.69-1.87-.69-3.24-.55-4.29-.9-4.99-1.13-1.99-.65-3.56-1.64-4.14-2.03-.57-.39-.95-.53-.96-.53-.58-.19-.9,0-1.07.19h0Z" style="fill: #eeefff; stroke-width: 0px;"/>
                <path d="m151.06,261.11c-.9,2.08,4.79,6.6,9.82,4.25,1.15-.54,2.24-1.64.29-2.33-1.49-.52-3.08-.67-4.59-1.09-1.34-.37-2.61-.96-3.98-1.22-.76-.15-1.29-.2-1.54.38h0Z" style="fill: #f7f7ff; stroke-width: 0px;"/>
                <path d="m152.96,262.74c-.18.94,1.54,2.1,2.54,2.37,3.39.91,4.83-.32,4.89-.37,1.86-1.64-6.3-2.53-6.4-2.53-.69.02-.98.17-1.04.53h0Z" style="fill: #f7f7ff; stroke-width: 0px;"/>
              </g>
              <g>
                <path d="m174.14,263.37v-2.48c0,1.94-1.24,3.87-3.74,5.37-1.7,1.03-3.78,1.72-5.98,2.08v2.48c2.2-.36,4.27-1.06,5.98-2.08,2.5-1.5,3.74-3.44,3.75-5.37h0Z" style="fill: #c7caff; stroke-width: 0px;"/>
                <path d="m164.41,270.83v-2.48c-1.53.25-3.14.34-4.73.27v2.48c1.58.07,3.19-.02,4.73-.27h0Z" style="fill: #c7caff; stroke-width: 0px;"/>
                <path d="m159.67,271.1v-2.48c-3-.14-5.95-.86-8.3-2.16-1.64-.91-2.79-2.01-3.46-3.18v2.48c.66,1.17,1.81,2.26,3.45,3.18,2.35,1.31,5.3,2.03,8.3,2.16h0Z" style="fill: #e8e9fe; stroke-width: 0px;"/>
                <path d="m147.91,265.76v-2.48c-.45-.8-.68-1.63-.67-2.47v2.48c0,.83.22,1.67.67,2.47h0Z" style="fill: #c7caff; stroke-width: 0px;"/>
              </g>
            </g>
            <g style="isolation: isolate;">
              <g style="isolation: isolate;">
                <path d="m170.36,254.66v1.58c0,1.42-.94,2.83-2.8,3.92-3.75,2.18-9.85,2.18-13.62,0-1.9-1.1-2.85-2.54-2.84-3.97v-1.58c0,1.44.95,2.88,2.85,3.97,3.78,2.18,9.88,2.18,13.62,0,1.86-1.08,2.8-2.5,2.8-3.92Z" style="fill: #dddffe;"/>
                <g style="clip-path: url(#clippath-12);">
                  <g style="isolation: isolate;">
                    <path d="m170.36,254.66v1.58c0,1.42-.94,2.83-2.8,3.92-2.32,1.35-5.55,1.86-8.57,1.54v-1.58c3.02.32,6.25-.19,8.57-1.54,1.86-1.08,2.8-2.5,2.8-3.92h0Z" style="fill: #dddffe; stroke-width: 0px;"/>
                    <path d="m158.99,260.12v1.58c-1.85-.2-3.62-.71-5.06-1.54-.4-.23-.76-.48-1.08-.74v-1.58c.32.26.68.51,1.09.74,1.43.83,3.2,1.34,5.05,1.54h0Z" style="fill: #dddffe; stroke-width: 0px;"/>
                    <path d="m152.86,257.84v1.58c-1.18-.97-1.77-2.1-1.76-3.23v-1.58c0,1.13.59,2.26,1.76,3.23h0Z" style="fill: #dddffe; stroke-width: 0px;"/>
                  </g>
                </g>
              </g>
              <path d="m167.52,250.69c3.78,2.18,3.8,5.71.04,7.89-3.75,2.18-9.85,2.18-13.62,0-3.77-2.18-3.79-5.71-.04-7.89,3.75-2.18,9.85-2.18,13.62,0Z" style="fill: #f7f7ff; stroke-width: 0px;"/>
            </g>
            <g>
              <g>
                <path d="m155.49,225.25c1.48,10.33,1.35,18.69-1,28.88-.21.76-.16,1.51.25,2.17,2.46-10.2,2.83-18.88,1.78-29.3-.52-.54-.88-1.15-1.03-1.75h0Z" style="fill: #dddffe; stroke-width: 0px;"/>
                <path d="m158.49,228.34c.48,10.14.14,19.57-1.39,29.6,1.21.42,2.72.59,4.19.54-.22-9.9-.28-19.79-.26-29.7-.86.04-1.72-.1-2.54-.45h0Z" style="fill: #f7f7ff; stroke-width: 0px;"/>
                <path d="m161.03,228.79c-.03,9.9.03,19.8.26,29.7,1.36-.05,2.68-.3,3.72-.76-1.78-10.06-2.17-19.37-1.66-29.57-.74.37-1.53.58-2.32.62h0Z" style="fill: #e8e9fe; stroke-width: 0px;"/>
                <path d="m163.35,228.16c-.51,10.19-.12,19.51,1.66,29.57.34-.15.65-.32.92-.51,1.22-.86,1.49-1.99,1.17-3.13-2.37-10.16-2.52-18.55-1.11-28.87-.21.91-.91,1.83-1.93,2.53-.23.16-.46.3-.71.42h0Z" style="fill: #dddffe; stroke-width: 0px;"/>
              </g>
              <path d="m156.57,222.75c-2.03,1.36-1.19,3.6.83,4.99,2.03,1.39,4.62,1.39,6.65,0,2.03-1.39,2.88-3.63.85-4.99-2.03-1.36-6.31-1.36-8.34,0h0Z" style="fill: #fefefe; stroke-width: 0px;"/>
              <path d="m156.52,227c1.05,10.43.68,19.1-1.78,29.3.2.33.5.64.89.91.41.29.91.53,1.47.72,1.54-10.03,1.87-19.47,1.39-29.6-.38-.16-.74-.36-1.09-.59-.33-.23-.63-.48-.88-.74h0Z" style="fill: #e8e9fe; stroke-width: 0px;"/>
            </g>
            <g style="isolation: isolate;">
              <g style="isolation: isolate;">
                <path d="m169.25,228.1v1.4c0,1.25-.83,2.51-2.48,3.47-3.31,1.93-8.71,1.93-12.05,0-1.68-.97-2.52-2.24-2.51-3.51v-1.4c0,1.27.84,2.55,2.52,3.51,3.34,1.93,8.74,1.93,12.05,0,1.65-.96,2.47-2.21,2.48-3.47Z" style="fill: #e8e9fe;"/>
                <g style="clip-path: url(#clippath-13);">
                  <g style="isolation: isolate;">
                    <path d="m169.25,228.1v1.4c0,1.25-.83,2.51-2.48,3.47-2.06,1.19-4.91,1.65-7.58,1.36v-1.4c2.67.29,5.53-.17,7.58-1.36,1.65-.96,2.47-2.21,2.48-3.47h0Z" style="fill: #e8e9fe; stroke-width: 0px;"/>
                    <path d="m159.19,232.92v1.4c-1.64-.18-3.21-.63-4.47-1.36-.36-.21-.68-.43-.96-.66v-1.4c.29.23.6.45.96.66,1.27.73,2.83,1.19,4.47,1.36h0Z" style="fill: #e8e9fe; stroke-width: 0px;"/>
                    <path d="m153.77,230.9v1.4c-1.04-.85-1.56-1.86-1.56-2.86v-1.4c0,1,.52,2,1.56,2.86h0Z" style="fill: #e8e9fe; stroke-width: 0px;"/>
                  </g>
                </g>
              </g>
              <path d="m166.73,224.58c3.34,1.93,3.36,5.05.04,6.98-3.31,1.93-8.71,1.93-12.05,0-3.34-1.93-3.35-5.05-.04-6.98,3.32-1.93,8.71-1.93,12.05,0Z" style="fill: #f7f7ff; stroke-width: 0px;"/>
            </g>
            <g>
              <path d="m169.4,222.57c0,4.79-3.88,8.67-8.67,8.67-2.74,0-5.18-1.27-6.77-3.26-1.19-1.48-1.9-3.36-1.9-5.41,0-4.79,3.88-8.67,8.67-8.67,1.71,0,3.31.5,4.65,1.36,2.42,1.54,4.02,4.23,4.02,7.31Z" style="fill: #eeefff; stroke-width: 0px;"/>
              <path d="m161.13,219.69c0,1.86-1.51,3.37-3.37,3.37-1.07,0-2.01-.49-2.63-1.26-.46-.58-.74-1.31-.74-2.1,0-1.86,1.51-3.37,3.37-3.37.66,0,1.29.19,1.81.53.94.6,1.56,1.65,1.56,2.84Z" style="fill: #f7f7ff; stroke-width: 0px;"/>
              <path d="m165.66,215.45c1.34,1.64,2.07,3.69,1.74,6-.79,6.35-7.75,8.36-13.58,6.35.05.06.09.13.14.19,1.59,1.98,4.03,3.26,6.77,3.26,4.79,0,8.67-3.88,8.67-8.67,0-2.96-1.48-5.56-3.74-7.12Z" style="fill: #dddffe; stroke-width: 0px;"/>
              <path d="m165.66,215.45c-.09-.06-.19-.13-.28-.19-.27-.17-.55-.33-.84-.47,2.45,3.62,1.01,8.82-2.36,11.45-2.81,1.61-5.62,1.36-8.77.97.13.2.26.4.41.59,5.84,2.01,12.79,0,13.58-6.35.33-2.3-.4-4.36-1.74-6Z" style="fill: #e8e9fe; stroke-width: 0px;"/>
            </g>
          </g>
          <g>
            <g style="isolation: isolate;">
              <g style="isolation: isolate;">
                <path d="m145.81,278.87v3.3c-.02,2.24-1.49,4.48-4.44,6.2-5.93,3.45-15.58,3.45-21.55,0-3.01-1.74-4.51-4.01-4.5-6.29v-3.3c0,2.27,1.5,4.55,4.51,6.29,5.97,3.45,15.62,3.45,21.55,0,2.95-1.71,4.42-3.95,4.43-6.2Z" style="fill: #595964;"/>
                <g style="clip-path: url(#clippath-14);">
                  <g style="isolation: isolate;">
                    <path d="m141.38,285.06c2.95-1.71,4.42-3.95,4.43-6.2l-4.43,6.2Z" style="fill: #595964; stroke-width: 0px;"/>
                    <path d="m141.37,288.36c-3.68,2.14-8.78,2.95-13.56,2.44v-3.3c4.78.51,9.89-.3,13.57-2.44v3.3Z" style="fill: #15151a; stroke-width: 0px;"/>
                    <path d="m145.81,278.87v3.3c-.02,2.24-1.49,4.48-4.44,6.2l.11-4.81,4.32-4.69Z" style="fill: #15151a; stroke-width: 0px;"/>
                    <path d="m127.82,287.5v3.3c-2.94-.31-5.74-1.13-8.01-2.44-.64-.37-1.21-.76-1.72-1.18v-3.3c.51.41,1.08.81,1.72,1.18,2.27,1.31,5.07,2.12,8,2.44h0Z" style="fill: #595964; stroke-width: 0px;"/>
                    <path d="m118.11,283.88v3.3c-1.87-1.53-2.8-3.32-2.79-5.11v-3.3c0,1.79.93,3.58,2.79,5.11h0Z" style="fill: #15151a; stroke-width: 0px;"/>
                  </g>
                </g>
              </g>
              <path d="m141.3,272.58c5.97,3.45,6,9.04.07,12.48-5.93,3.45-15.58,3.45-21.55,0-5.97-3.45-6-9.04-.07-12.48,5.93-3.45,15.58-3.45,21.55,0Z" style="fill: #797882; stroke-width: 0px;"/>
            </g>
            <g>
              <g style="isolation: isolate;">
                <path d="m117.15,275.24c.28-1.99,1.1-3.74,2.49-5.19,1.4-1.46,3.21-2.51,5.12-3.15,3.42-1.13,7.16-1.22,10.63-.29,3.79,1.02,7.51,3.65,8.41,7.67.27,1.21.32,2.47-.15,3.63-.57,1.4-1.71,2.5-2.94,3.32-2.43,1.61-5.4,2.36-8.29,2.59-2.97.23-6.03-.07-8.84-1.07-2.6-.92-5.58-2.64-6.33-5.51-.18-.67-.16-1.33-.11-2.02Z" style="fill: #65656b; stroke-width: 0px;"/>
                <path d="m140.27,281.52c1.4-.85,2.73-2.01,3.37-3.55.5-1.21.44-2.55.14-3.81-.53-2.17-1.91-3.96-3.66-5.3-3.17-2.43-7.63-3.22-11.54-2.79-2.32.26-4.57.9-6.58,2.09,2.32-1.39,5.25-2,7.93-2.06,2.45-.05,5,.38,7.18,1.55,1.82.97,3.38,2.56,3.77,4.65.46,2.51-.77,5.17-2.37,7.04-2.24,2.64-5.57,4.13-8.96,4.53,3.65.17,7.56-.45,10.73-2.36Z" style="fill: #595964; stroke-width: 0px;"/>
                <path d="m140.27,281.52c2.13-1.28,3.87-3.25,3.73-5.86-.09-1.8-.81-3.46-1.89-4.88-1.98-2.59-5.32-4.06-8.47-4.55-1.76-.28-3.53-.32-5.3-.13,4.11-.39,9.12.32,11.98,3.62,1.07,1.24,1.7,2.8,1.68,4.44-.02,1.87-.83,3.63-1.94,5.11-1.49,1.98-3.51,3.38-5.77,4.34,2.09-.34,4.16-.99,5.98-2.08Z" style="fill: #595964; stroke-width: 0px;"/>
                <path d="m119.86,274.17c-2.11,2.46,2.65,8.08,8.88,7.32,3.13-.38,5.1-2.16,4.14-3.13-.43-.44-1.85-.69-1.87-.69-3.24-.55-4.29-.9-4.99-1.13-1.99-.65-3.56-1.64-4.14-2.03-.57-.39-.95-.53-.96-.53-.58-.19-.9,0-1.07.19h0Z" style="fill: #797882; stroke-width: 0px;"/>
                <path d="m120.93,276.38c-.9,2.08,4.79,6.6,9.82,4.25,1.15-.54,2.24-1.64.29-2.33-1.49-.52-3.08-.67-4.59-1.09-1.34-.37-2.61-.96-3.98-1.22-.77-.15-1.29-.2-1.54.38h0Z" style="fill: #797882; stroke-width: 0px;"/>
                <path d="m122.83,278.01c-.18.94,1.54,2.1,2.54,2.37,3.39.91,4.83-.32,4.89-.37,1.86-1.64-6.3-2.53-6.4-2.53-.69.02-.98.17-1.04.53h0Z" style="fill: #928f9c; stroke-width: 0px;"/>
              </g>
              <g>
                <path d="m144.01,278.63v-2.48c0,1.94-1.24,3.87-3.74,5.37-1.7,1.03-3.78,1.72-5.98,2.08v2.48c2.2-.36,4.27-1.06,5.98-2.08,2.5-1.5,3.74-3.44,3.75-5.37h0Z" style="fill: #15151a; stroke-width: 0px;"/>
                <path d="m134.28,286.09v-2.48c-1.53.25-3.14.34-4.73.27v2.48c1.58.07,3.19-.02,4.73-.27h0Z" style="fill: #15151a; stroke-width: 0px;"/>
                <path d="m129.54,286.36v-2.48c-3-.14-5.95-.86-8.3-2.16-1.64-.91-2.79-2.01-3.46-3.18v2.48c.66,1.17,1.81,2.26,3.45,3.18,2.35,1.31,5.3,2.03,8.3,2.16h0Z" style="fill: #595964; stroke-width: 0px;"/>
                <path d="m117.78,281.02v-2.48c-.45-.8-.68-1.63-.67-2.47v2.48c0,.83.22,1.67.67,2.47h0Z" style="fill: #15151a; stroke-width: 0px;"/>
              </g>
            </g>
            <g style="isolation: isolate;">
              <g style="isolation: isolate;">
                <path d="m140.24,269.93v1.58c0,1.42-.94,2.84-2.8,3.92-3.75,2.18-9.85,2.18-13.62,0-1.9-1.1-2.85-2.54-2.84-3.97v-1.58c0,1.44.95,2.88,2.85,3.97,3.78,2.18,9.88,2.18,13.62,0,1.86-1.08,2.8-2.5,2.8-3.92Z" style="fill: #595964;"/>
                <g style="clip-path: url(#clippath-15);">
                  <g style="isolation: isolate;">
                    <path d="m140.24,269.93v1.58c0,1.42-.94,2.84-2.8,3.92-2.32,1.35-5.55,1.86-8.57,1.54v-1.58c3.02.32,6.25-.19,8.57-1.54,1.86-1.08,2.8-2.5,2.8-3.92h0Z" style="fill: #595964; stroke-width: 0px;"/>
                    <path d="m128.87,275.39v1.58c-1.85-.2-3.62-.71-5.06-1.54-.4-.23-.76-.48-1.08-.74v-1.58c.32.26.68.51,1.09.74,1.43.83,3.2,1.34,5.05,1.54h0Z" style="fill: #595964; stroke-width: 0px;"/>
                    <path d="m122.73,273.1v1.58c-1.18-.97-1.77-2.1-1.76-3.23v-1.58c0,1.13.59,2.26,1.76,3.23h0Z" style="fill: #595964; stroke-width: 0px;"/>
                  </g>
                </g>
              </g>
              <path d="m137.39,265.96c3.78,2.18,3.8,5.71.04,7.89-3.75,2.18-9.85,2.18-13.62,0-3.77-2.18-3.79-5.71-.04-7.89,3.75-2.18,9.85-2.18,13.62,0Z" style="fill: #797882; stroke-width: 0px;"/>
            </g>
            <g>
              <g>
                <path d="m125.36,240.52c1.48,10.33,1.35,18.69-1,28.88-.21.76-.16,1.51.25,2.17,2.46-10.2,2.83-18.88,1.78-29.3-.52-.54-.88-1.15-1.03-1.75h0Z" style="fill: #595964; stroke-width: 0px;"/>
                <path d="m128.36,243.61c.48,10.14.14,19.57-1.39,29.6,1.21.42,2.72.6,4.19.54-.22-9.9-.28-19.79-.26-29.7-.86.04-1.72-.1-2.54-.45h0Z" style="fill: #797882; stroke-width: 0px;"/>
                <path d="m130.9,244.05c-.03,9.9.03,19.8.26,29.7,1.36-.05,2.68-.3,3.72-.76-1.78-10.06-2.17-19.37-1.66-29.57-.74.37-1.53.58-2.32.62h0Z" style="fill: #65656b; stroke-width: 0px;"/>
                <path d="m133.22,243.43c-.51,10.19-.12,19.51,1.66,29.57.34-.15.65-.32.92-.51,1.22-.86,1.49-1.99,1.17-3.13-2.37-10.16-2.52-18.55-1.11-28.87-.21.91-.91,1.83-1.93,2.53-.23.16-.46.3-.71.42h0Z" style="fill: #595964; stroke-width: 0px;"/>
              </g>
              <path d="m126.44,238.02c-2.03,1.36-1.19,3.6.83,4.99,2.03,1.39,4.62,1.39,6.65,0,2.03-1.39,2.88-3.63.85-4.99-2.03-1.36-6.31-1.36-8.34,0h0Z" style="fill: #fefefe; stroke-width: 0px;"/>
              <path d="m126.39,242.27c1.05,10.43.68,19.1-1.78,29.3.2.33.5.64.89.91.41.29.91.53,1.47.72,1.54-10.03,1.87-19.47,1.39-29.6-.38-.16-.74-.36-1.09-.59-.33-.23-.63-.48-.88-.74h0Z" style="fill: #65656b; stroke-width: 0px;"/>
            </g>
            <g style="isolation: isolate;">
              <g style="isolation: isolate;">
                <path d="m139.13,243.36v1.4c0,1.25-.83,2.51-2.48,3.47-3.31,1.93-8.71,1.93-12.05,0-1.68-.97-2.52-2.24-2.51-3.51v-1.4c0,1.27.84,2.55,2.52,3.51,3.34,1.93,8.74,1.93,12.05,0,1.65-.96,2.47-2.21,2.48-3.47Z" style="fill: #65656b;"/>
                <g style="clip-path: url(#clippath-16);">
                  <g style="isolation: isolate;">
                    <path d="m139.13,243.36v1.4c0,1.25-.83,2.51-2.48,3.47-2.06,1.19-4.91,1.65-7.58,1.36v-1.4c2.67.29,5.53-.17,7.58-1.36,1.65-.96,2.47-2.21,2.48-3.47h0Z" style="fill: #15151a; stroke-width: 0px;"/>
                    <path d="m129.07,248.19v1.4c-1.64-.18-3.21-.63-4.47-1.36-.36-.21-.68-.43-.96-.66v-1.4c.28.23.6.45.96.66,1.27.73,2.83,1.19,4.47,1.36h0Z" style="fill: #595964; stroke-width: 0px;"/>
                    <path d="m123.64,246.17v1.4c-1.04-.85-1.56-1.86-1.56-2.86v-1.4c0,1,.52,2,1.56,2.86h0Z" style="fill: #15151a; stroke-width: 0px;"/>
                  </g>
                </g>
              </g>
              <path d="m136.61,239.85c3.34,1.93,3.36,5.05.04,6.98-3.31,1.93-8.71,1.93-12.05,0-3.34-1.93-3.35-5.05-.04-6.98,3.32-1.93,8.71-1.93,12.05,0Z" style="fill: #797882; stroke-width: 0px;"/>
            </g>
            <g>
              <path d="m139.28,237.84c0,4.79-3.88,8.67-8.67,8.67-2.74,0-5.18-1.27-6.77-3.26-1.19-1.48-1.9-3.36-1.9-5.41,0-4.79,3.88-8.67,8.67-8.67,1.71,0,3.31.5,4.65,1.36,2.42,1.54,4.02,4.23,4.02,7.31Z" style="fill: #797882; stroke-width: 0px;"/>
              <path d="m131.01,234.96c0,1.86-1.51,3.37-3.37,3.37-1.07,0-2.01-.49-2.63-1.27-.46-.58-.74-1.31-.74-2.1,0-1.86,1.51-3.37,3.37-3.37.66,0,1.29.19,1.81.53.94.6,1.56,1.65,1.56,2.84Z" style="fill: #928f9c; stroke-width: 0px;"/>
              <path d="m135.54,230.72c1.34,1.64,2.07,3.7,1.74,6-.79,6.35-7.75,8.36-13.58,6.35.05.06.09.13.14.19,1.59,1.98,4.03,3.26,6.77,3.26,4.79,0,8.67-3.88,8.67-8.67,0-2.96-1.48-5.56-3.74-7.12Z" style="fill: #15151a; stroke-width: 0px;"/>
              <path d="m135.54,230.72c-.09-.06-.19-.13-.28-.19-.27-.17-.55-.33-.84-.47,2.45,3.62,1.01,8.82-2.36,11.45-2.81,1.61-5.62,1.36-8.77.97.13.2.26.4.41.59,5.84,2.01,12.79,0,13.58-6.35.33-2.3-.4-4.36-1.74-6Z" style="fill: #65656b; stroke-width: 0px;"/>
            </g>
          </g>
          <g>
            <g style="isolation: isolate;">
              <g style="isolation: isolate;">
                <path d="m178.39,289.63v3.3c-.02,2.24-1.49,4.48-4.44,6.2-5.93,3.45-15.58,3.45-21.55,0-3.01-1.74-4.51-4.01-4.5-6.29v-3.3c0,2.27,1.5,4.55,4.51,6.29,5.97,3.45,15.62,3.45,21.55,0,2.95-1.71,4.42-3.95,4.43-6.2Z" style="fill: #595964;"/>
                <g style="clip-path: url(#clippath-17);">
                  <g style="isolation: isolate;">
                    <path d="m173.96,295.83c2.95-1.71,4.42-3.95,4.43-6.2l-4.43,6.2Z" style="fill: #595964; stroke-width: 0px;"/>
                    <path d="m173.95,299.13c-3.68,2.14-8.78,2.95-13.56,2.44v-3.3c4.78.51,9.89-.3,13.57-2.44v3.3Z" style="fill: #15151a; stroke-width: 0px;"/>
                    <path d="m178.39,289.63v3.3c-.02,2.24-1.49,4.48-4.44,6.2l.11-4.81,4.32-4.69Z" style="fill: #15151a; stroke-width: 0px;"/>
                    <path d="m160.4,298.27v3.3c-2.94-.31-5.74-1.13-8.01-2.44-.64-.37-1.21-.76-1.72-1.18v-3.3c.51.41,1.08.81,1.72,1.18,2.27,1.31,5.07,2.12,8,2.44h0Z" style="fill: #595964; stroke-width: 0px;"/>
                    <path d="m150.69,294.65v3.3c-1.87-1.53-2.8-3.32-2.79-5.11v-3.3c0,1.79.93,3.58,2.79,5.11h0Z" style="fill: #15151a; stroke-width: 0px;"/>
                  </g>
                </g>
              </g>
              <path d="m173.89,283.35c5.97,3.45,6,9.04.07,12.48-5.93,3.45-15.58,3.45-21.55,0-5.97-3.45-6-9.04-.07-12.48,5.93-3.45,15.58-3.45,21.55,0Z" style="fill: #797882; stroke-width: 0px;"/>
            </g>
            <g>
              <g style="isolation: isolate;">
                <path d="m149.73,286.01c.28-1.99,1.1-3.74,2.49-5.19,1.4-1.46,3.21-2.51,5.12-3.15,3.42-1.13,7.16-1.22,10.63-.29,3.79,1.02,7.51,3.65,8.41,7.67.27,1.21.32,2.47-.15,3.63-.57,1.4-1.71,2.5-2.94,3.32-2.43,1.61-5.4,2.36-8.29,2.59-2.97.23-6.03-.07-8.84-1.07-2.6-.92-5.58-2.64-6.33-5.51-.18-.67-.16-1.33-.11-2.02Z" style="fill: #65656b; stroke-width: 0px;"/>
                <path d="m172.85,292.29c1.4-.85,2.73-2.01,3.37-3.55.5-1.21.44-2.55.14-3.81-.53-2.17-1.91-3.96-3.66-5.3-3.17-2.43-7.63-3.22-11.54-2.79-2.32.26-4.57.9-6.58,2.09,2.32-1.39,5.25-2,7.93-2.06,2.45-.05,5,.38,7.18,1.55,1.82.97,3.38,2.56,3.77,4.65.46,2.51-.77,5.17-2.37,7.04-2.24,2.64-5.57,4.13-8.96,4.53,3.65.17,7.56-.45,10.73-2.36Z" style="fill: #595964; stroke-width: 0px;"/>
                <path d="m172.85,292.29c2.13-1.28,3.87-3.25,3.73-5.86-.09-1.8-.81-3.46-1.89-4.88-1.98-2.59-5.32-4.06-8.47-4.55-1.76-.28-3.53-.32-5.3-.13,4.11-.39,9.12.32,11.98,3.62,1.07,1.24,1.7,2.8,1.68,4.44-.02,1.87-.83,3.63-1.94,5.11-1.49,1.98-3.51,3.38-5.77,4.34,2.09-.34,4.16-.99,5.98-2.08Z" style="fill: #595964; stroke-width: 0px;"/>
                <path d="m152.44,284.94c-2.11,2.46,2.65,8.08,8.88,7.32,3.13-.38,5.1-2.16,4.14-3.13-.43-.44-1.85-.69-1.87-.69-3.24-.55-4.29-.9-4.99-1.13-1.99-.65-3.56-1.64-4.14-2.03-.57-.39-.95-.53-.96-.53-.58-.19-.9,0-1.07.19h0Z" style="fill: #797882; stroke-width: 0px;"/>
                <path d="m153.51,287.14c-.9,2.08,4.79,6.6,9.82,4.25,1.15-.54,2.24-1.64.29-2.33-1.49-.52-3.08-.67-4.59-1.09-1.34-.37-2.61-.96-3.98-1.22-.76-.15-1.28-.2-1.54.38h0Z" style="fill: #797882; stroke-width: 0px;"/>
                <path d="m155.41,288.78c-.18.94,1.54,2.1,2.54,2.37,3.39.91,4.83-.32,4.89-.37,1.86-1.64-6.3-2.53-6.4-2.53-.69.02-.98.17-1.04.53h0Z" style="fill: #928f9c; stroke-width: 0px;"/>
              </g>
              <g>
                <path d="m176.59,289.4v-2.48c0,1.94-1.24,3.87-3.74,5.37-1.7,1.03-3.78,1.72-5.98,2.08v2.48c2.2-.36,4.27-1.06,5.98-2.08,2.5-1.5,3.74-3.44,3.75-5.37h0Z" style="fill: #15151a; stroke-width: 0px;"/>
                <path d="m166.86,296.86v-2.48c-1.53.25-3.14.34-4.73.27v2.48c1.58.07,3.19-.02,4.73-.27h0Z" style="fill: #15151a; stroke-width: 0px;"/>
                <path d="m162.13,297.13v-2.48c-3-.14-5.95-.86-8.3-2.16-1.64-.91-2.79-2.01-3.46-3.18v2.48c.66,1.17,1.81,2.26,3.45,3.18,2.35,1.31,5.3,2.03,8.3,2.16h0Z" style="fill: #595964; stroke-width: 0px;"/>
                <path d="m150.36,291.79v-2.48c-.45-.8-.68-1.63-.67-2.47v2.48c0,.83.22,1.67.67,2.47h0Z" style="fill: #15151a; stroke-width: 0px;"/>
              </g>
            </g>
            <g style="isolation: isolate;">
              <g style="isolation: isolate;">
                <path d="m172.82,280.7v1.58c0,1.42-.94,2.84-2.81,3.92-3.75,2.18-9.85,2.18-13.62,0-1.9-1.1-2.85-2.54-2.84-3.97v-1.58c0,1.44.95,2.88,2.85,3.97,3.78,2.18,9.88,2.18,13.62,0,1.86-1.08,2.8-2.5,2.8-3.92Z" style="fill: #595964;"/>
                <g style="clip-path: url(#clippath-18);">
                  <g style="isolation: isolate;">
                    <path d="m172.82,280.7v1.58c0,1.42-.94,2.84-2.81,3.92-2.32,1.35-5.55,1.86-8.57,1.54v-1.58c3.02.32,6.25-.19,8.57-1.54,1.86-1.08,2.8-2.5,2.8-3.92h0Z" style="fill: #595964; stroke-width: 0px;"/>
                    <path d="m161.45,286.16v1.58c-1.85-.2-3.62-.71-5.06-1.54-.4-.23-.76-.48-1.08-.74v-1.58c.32.26.68.51,1.09.74,1.43.83,3.2,1.34,5.05,1.54h0Z" style="fill: #595964; stroke-width: 0px;"/>
                    <path d="m155.31,283.87v1.58c-1.18-.97-1.77-2.1-1.76-3.23v-1.58c0,1.13.59,2.26,1.76,3.23h0Z" style="fill: #595964; stroke-width: 0px;"/>
                  </g>
                </g>
              </g>
              <path d="m169.97,276.72c3.78,2.18,3.8,5.71.04,7.89-3.75,2.18-9.85,2.18-13.62,0-3.77-2.18-3.79-5.71-.04-7.89,3.75-2.18,9.85-2.18,13.62,0Z" style="fill: #797882; stroke-width: 0px;"/>
            </g>
            <g>
              <g>
                <path d="m157.94,251.29c1.48,10.33,1.35,18.69-1,28.88-.21.76-.16,1.51.25,2.17,2.46-10.2,2.83-18.88,1.78-29.3-.52-.54-.88-1.15-1.03-1.75h0Z" style="fill: #595964; stroke-width: 0px;"/>
                <path d="m160.95,254.37c.48,10.14.14,19.57-1.39,29.6,1.21.42,2.72.6,4.19.54-.22-9.9-.28-19.79-.26-29.7-.86.04-1.72-.1-2.54-.45h0Z" style="fill: #797882; stroke-width: 0px;"/>
                <path d="m163.48,254.82c-.03,9.9.03,19.8.26,29.7,1.36-.05,2.68-.3,3.72-.76-1.78-10.06-2.17-19.37-1.66-29.57-.74.37-1.53.58-2.32.62h0Z" style="fill: #65656b; stroke-width: 0px;"/>
                <path d="m165.8,254.2c-.51,10.19-.12,19.51,1.66,29.57.34-.15.65-.32.92-.51,1.22-.86,1.49-1.99,1.17-3.13-2.37-10.16-2.52-18.55-1.11-28.87-.21.91-.91,1.83-1.93,2.53-.23.16-.46.3-.71.42h0Z" style="fill: #595964; stroke-width: 0px;"/>
              </g>
              <path d="m159.03,248.79c-2.03,1.36-1.19,3.6.83,4.99,2.03,1.39,4.62,1.39,6.65,0,2.03-1.39,2.88-3.63.85-4.99-2.03-1.36-6.31-1.36-8.34,0h0Z" style="fill: #fefefe; stroke-width: 0px;"/>
              <path d="m158.98,253.04c1.05,10.43.68,19.1-1.78,29.3.2.33.5.64.89.91.41.29.91.53,1.47.72,1.54-10.03,1.87-19.47,1.39-29.6-.38-.16-.74-.36-1.09-.59-.33-.23-.63-.48-.88-.74h0Z" style="fill: #65656b; stroke-width: 0px;"/>
            </g>
            <g style="isolation: isolate;">
              <g style="isolation: isolate;">
                <path d="m171.71,254.13v1.4c0,1.25-.83,2.51-2.48,3.47-3.31,1.93-8.71,1.93-12.05,0-1.68-.97-2.52-2.24-2.51-3.51v-1.4c0,1.27.84,2.55,2.52,3.51,3.34,1.93,8.74,1.93,12.05,0,1.65-.96,2.47-2.21,2.48-3.47Z" style="fill: #65656b;"/>
                <g style="clip-path: url(#clippath-19);">
                  <g style="isolation: isolate;">
                    <path d="m171.71,254.13v1.4c0,1.25-.83,2.51-2.48,3.47-2.06,1.19-4.91,1.65-7.58,1.36v-1.4c2.67.29,5.53-.17,7.58-1.36,1.65-.96,2.47-2.21,2.48-3.47h0Z" style="fill: #15151a; stroke-width: 0px;"/>
                    <path d="m161.65,258.96v1.4c-1.64-.18-3.21-.63-4.47-1.36-.36-.21-.68-.43-.96-.66v-1.4c.29.23.6.45.96.66,1.27.73,2.83,1.19,4.47,1.36h0Z" style="fill: #595964; stroke-width: 0px;"/>
                    <path d="m156.22,256.94v1.4c-1.04-.85-1.56-1.86-1.56-2.86v-1.4c0,1,.52,2,1.56,2.86h0Z" style="fill: #15151a; stroke-width: 0px;"/>
                  </g>
                </g>
              </g>
              <path d="m169.19,250.61c3.34,1.93,3.36,5.05.04,6.98-3.31,1.93-8.71,1.93-12.05,0-3.34-1.93-3.35-5.05-.04-6.98,3.32-1.93,8.71-1.93,12.05,0Z" style="fill: #797882; stroke-width: 0px;"/>
            </g>
            <g>
              <path d="m171.86,248.61c0,4.79-3.88,8.67-8.67,8.67-2.74,0-5.18-1.27-6.77-3.26-1.19-1.48-1.9-3.36-1.9-5.41,0-4.79,3.88-8.67,8.67-8.67,1.71,0,3.31.5,4.65,1.36,2.42,1.54,4.02,4.23,4.02,7.31Z" style="fill: #797882; stroke-width: 0px;"/>
              <path d="m163.59,245.72c0,1.86-1.51,3.37-3.37,3.37-1.07,0-2.01-.49-2.63-1.27-.46-.58-.74-1.31-.74-2.1,0-1.86,1.51-3.37,3.37-3.37.66,0,1.29.19,1.81.53.94.6,1.56,1.65,1.56,2.84Z" style="fill: #928f9c; stroke-width: 0px;"/>
              <path d="m168.12,241.48c1.34,1.64,2.07,3.69,1.74,6-.79,6.35-7.75,8.36-13.58,6.35.05.06.09.13.14.19,1.59,1.98,4.03,3.26,6.77,3.26,4.79,0,8.67-3.88,8.67-8.67,0-2.96-1.48-5.56-3.74-7.12Z" style="fill: #15151a; stroke-width: 0px;"/>
              <path d="m168.12,241.48c-.09-.06-.19-.13-.28-.19-.27-.17-.55-.33-.84-.47,2.45,3.62,1.01,8.82-2.36,11.45-2.81,1.61-5.62,1.36-8.77.97.13.2.26.4.41.59,5.84,2.01,12.79,0,13.58-6.35.33-2.3-.4-4.36-1.74-6Z" style="fill: #65656b; stroke-width: 0px;"/>
            </g>
          </g>
        </g>
      </g>
      <g>
        <path d="m345.22,59.74c0,32.99-26.75,59.74-59.74,59.74-32.99,0-59.74-26.75-59.74-59.74,0-32.99,26.75-59.74,59.74-59.74,32.99,0,59.74,26.75,59.74,59.74Z" style="fill: #fe6f62; stroke-width: 0px;"/>
        <polygon points="288.32 110.97 255.27 132.88 246.6 95.6 288.32 110.97" style="fill: #fe6f62; stroke-width: 0px;"/>
        <g>
          <g>
            <path d="m258.47,39.88c-1.43-.98-4.3-2.66-6.44-3.78l1.43-1.89c2.03,1.01,4.93,2.55,6.47,3.53l-1.47,2.13Zm-5.6,14.1c1.89-2.62,4.58-7.24,6.61-11.2l1.89,1.71c-1.82,3.67-4.27,8.01-6.33,11.23l-2.17-1.75Zm7.35-23.58c-1.43-1.01-4.34-2.69-6.47-3.85l1.43-1.85c2.13,1.01,5.07,2.62,6.54,3.6l-1.5,2.1Zm14,6.54v5.74h7.31v13.33h-2.48v-1.29h-12.42v1.47h-2.42v-13.51h7.52v-5.74h-10.08v-2.52h10.08v-5.67c-2.55.39-5.18.7-7.66.94-.14-.63-.49-1.61-.73-2.2,6.02-.63,13.05-1.71,16.93-3.11l2.03,2.03c-2.27.77-5.07,1.43-8.08,1.96v6.05h9.59v2.52h-9.59Zm4.83,8.15h-12.42v7.21h12.42v-7.21Z" style="fill: #fff; stroke-width: 0px;"/>
            <path d="m318.16,32.35s-.04.98-.04,1.33c-.38,14.66-.7,19.52-1.89,20.99-.59.91-1.29,1.19-2.34,1.29-.98.14-2.62.1-4.23,0-.07-.7-.35-1.78-.73-2.45,1.68.14,3.22.17,3.88.17.59,0,.91-.1,1.26-.56.8-1.01,1.22-5.63,1.58-18.33h-5c-.42,9.31-2.03,16.93-8.19,21.55-.38-.56-1.29-1.43-1.92-1.85.56-.38,1.05-.8,1.5-1.22-5.28.63-10.71,1.22-14.63,1.64l-.38-2.27c2.1-.18,4.72-.42,7.59-.7v-3.01h-6.61v-1.99h6.61v-2.13h-6.54v-10.39h6.54v-2.2h-7.56v-2.03h7.56v-2.31c-2.24.17-4.51.31-6.58.38-.1-.56-.35-1.4-.63-1.92,5.18-.28,11.48-.91,15.08-1.71l1.29,1.99c-1.89.42-4.27.73-6.82,1.01v2.55h7.42v2.03h-7.42v2.2h6.79v10.39h-6.79v2.13h6.86v1.99h-6.86v2.76c2.27-.21,4.65-.46,7-.73v.14c3.01-4.13,3.95-9.76,4.27-16.3h-4.09v-2.45h4.16c.07-2.45.07-5,.07-7.66h2.45c0,2.62,0,5.21-.07,7.66h7.42Zm-27.96,6.37h4.41v-2.52h-4.41v2.52Zm4.41,4.27v-2.55h-4.41v2.55h4.41Zm2.34-6.79v2.52h4.58v-2.52h-4.58Zm4.58,4.23h-4.58v2.55h4.58v-2.55Z" style="fill: #fff; stroke-width: 0px;"/>
            <path d="m267.53,90.76c.11.59.35,1.5.53,1.99-5.32,2.94-6.12,3.46-6.54,3.95-.14-.63-.59-1.82-.98-2.41.49-.25,1.05-.77,1.05-2.06v-5.39h-2.55c-.42,4.97-1.43,8.92-5.28,11.3-.32-.52-1.05-1.43-1.54-1.82,3.36-1.92,4.16-5.35,4.48-9.48h-2.41v-7.24h11.79v7.24h-2.2v5.84l3.67-1.92Zm-.35-12.91h-14.52v-2.13h3.6c-.35-1.01-.87-2.24-1.29-3.18l2.1-.52c.56,1.15,1.19,2.62,1.61,3.71h2.97c.46-1.19.98-2.73,1.22-3.81l2.34.56c-.42,1.08-.87,2.27-1.29,3.25h3.25v2.13Zm-.14-6.82h-13.79v-2.1h5.63c-.28-.77-.67-1.61-.98-2.31l2.27-.46c.46.84.91,1.89,1.26,2.76h5.6v2.1Zm-10.53,13.96h7.24v-3.57h-7.24v3.57Zm24.21,10.78c.35,0,.74-.04.91-.18.21-.07.38-.31.49-.73.11-.49.11-1.57.14-2.97.49.38,1.29.8,1.92,1.01-.07,1.36-.17,2.87-.38,3.43-.21.52-.56.91-1.08,1.12-.46.21-1.26.28-1.82.28h-1.99c-.7,0-1.61-.14-2.06-.59-.56-.38-.77-.94-.77-2.9v-7.42h-2.17c-.53,5.35-1.99,9.27-7.1,11.51-.28-.56-.95-1.43-1.47-1.85,4.62-1.85,5.84-5.18,6.26-9.66h-2.55v-7.21h12.6v7.21h-3.18v7.66c0,.59.03.98.21,1.12.18.1.42.18.74.18h1.33Zm2.48-18.05h-15.18v-2.13h3.32c-.31-.98-.77-2.17-1.15-3.11l2.06-.46c.52,1.15,1.08,2.52,1.4,3.57h3.11c.46-1.15.91-2.66,1.19-3.74l2.34.56c-.45,1.05-.91,2.2-1.33,3.18h4.23v2.13Zm-.84-6.68h-14v-2.1h5.53c-.25-.77-.59-1.57-.91-2.27l2.27-.46c.42.8.88,1.85,1.19,2.73h5.91v2.1Zm-11.13,13.93h8.08v-3.5h-8.08v3.5Z" style="fill: #fff; stroke-width: 0px;"/>
            <path d="m312.7,93.59h-4.51c3.46.94,7.07,2.06,9.38,2.87l-2.13,1.54c-2.31-.91-6.19-2.17-10.11-3.32l1.22-1.08h-7.73l1.54.94c-2.8,1.57-7.42,2.94-11.16,3.6-.32-.45-1.01-1.26-1.5-1.75,3.32-.52,7.42-1.68,9.8-2.8h-4.23v-8.57c-1.61.98-3.29,1.78-4.86,2.34-.35-.56-1.08-1.43-1.58-1.89,3.04-.88,6.4-2.55,8.71-4.51h-7.87v-1.92h8.89v-1.57h-4.83v-1.54h4.83v-1.54h-5.35v-1.64h5.35v-1.54h2.45v1.54h7.98v-1.54h2.45v1.54h5.25v1.64h-5.25v1.54h4.86v1.54h-4.86v1.57h8.96v1.92h-7.49c2.2,1.78,5.32,3.32,8.26,4.06-.52.46-1.26,1.4-1.61,1.96-1.61-.49-3.29-1.26-4.83-2.2v8.82Zm-22.25-19.8h-2.41v-5.32h14c-.28-.63-.63-1.26-.95-1.78l2.55-.7c.45.73.98,1.68,1.33,2.48h13.02v5.32h-2.52v-3.25h-25.02v3.25Zm19.73,10.43h-14.52v1.61h14.52v-1.61Zm0,3.08h-14.52v1.64h14.52v-1.64Zm0,3.11h-14.52v1.68h14.52v-1.68Zm-11.83-9.45c-.56.59-1.19,1.19-1.82,1.75h13.29c-.63-.56-1.22-1.12-1.75-1.75h-9.73Zm.63-5.04h7.98v-1.54h-7.98v1.54Zm0,3.11h7.98v-1.57h-7.98v1.57Z" style="fill: #fff; stroke-width: 0px;"/>
          </g>
          <g>
            <path d="m258.47,39.88c-1.43-.98-4.3-2.66-6.44-3.78l1.43-1.89c2.03,1.01,4.93,2.55,6.47,3.53l-1.47,2.13Zm-5.6,14.1c1.89-2.62,4.58-7.24,6.61-11.2l1.89,1.71c-1.82,3.67-4.27,8.01-6.33,11.23l-2.17-1.75Zm7.35-23.58c-1.43-1.01-4.34-2.69-6.47-3.85l1.43-1.85c2.13,1.01,5.07,2.62,6.54,3.6l-1.5,2.1Zm14,6.54v5.74h7.31v13.33h-2.48v-1.29h-12.42v1.47h-2.42v-13.51h7.52v-5.74h-10.08v-2.52h10.08v-5.67c-2.55.39-5.18.7-7.66.94-.14-.63-.49-1.61-.73-2.2,6.02-.63,13.05-1.71,16.93-3.11l2.03,2.03c-2.27.77-5.07,1.43-8.08,1.96v6.05h9.59v2.52h-9.59Zm4.83,8.15h-12.42v7.21h12.42v-7.21Z" style="fill: #fff; stroke-width: 0px;"/>
            <path d="m318.16,32.35s-.04.98-.04,1.33c-.38,14.66-.7,19.52-1.89,20.99-.59.91-1.29,1.19-2.34,1.29-.98.14-2.62.1-4.23,0-.07-.7-.35-1.78-.73-2.45,1.68.14,3.22.17,3.88.17.59,0,.91-.1,1.26-.56.8-1.01,1.22-5.63,1.58-18.33h-5c-.42,9.31-2.03,16.93-8.19,21.55-.38-.56-1.29-1.43-1.92-1.85.56-.38,1.05-.8,1.5-1.22-5.28.63-10.71,1.22-14.63,1.64l-.38-2.27c2.1-.18,4.72-.42,7.59-.7v-3.01h-6.61v-1.99h6.61v-2.13h-6.54v-10.39h6.54v-2.2h-7.56v-2.03h7.56v-2.31c-2.24.17-4.51.31-6.58.38-.1-.56-.35-1.4-.63-1.92,5.18-.28,11.48-.91,15.08-1.71l1.29,1.99c-1.89.42-4.27.73-6.82,1.01v2.55h7.42v2.03h-7.42v2.2h6.79v10.39h-6.79v2.13h6.86v1.99h-6.86v2.76c2.27-.21,4.65-.46,7-.73v.14c3.01-4.13,3.95-9.76,4.27-16.3h-4.09v-2.45h4.16c.07-2.45.07-5,.07-7.66h2.45c0,2.62,0,5.21-.07,7.66h7.42Zm-27.96,6.37h4.41v-2.52h-4.41v2.52Zm4.41,4.27v-2.55h-4.41v2.55h4.41Zm2.34-6.79v2.52h4.58v-2.52h-4.58Zm4.58,4.23h-4.58v2.55h4.58v-2.55Z" style="fill: #fff; stroke-width: 0px;"/>
            <path d="m267.53,90.76c.11.59.35,1.5.53,1.99-5.32,2.94-6.12,3.46-6.54,3.95-.14-.63-.59-1.82-.98-2.41.49-.25,1.05-.77,1.05-2.06v-5.39h-2.55c-.42,4.97-1.43,8.92-5.28,11.3-.32-.52-1.05-1.43-1.54-1.82,3.36-1.92,4.16-5.35,4.48-9.48h-2.41v-7.24h11.79v7.24h-2.2v5.84l3.67-1.92Zm-.35-12.91h-14.52v-2.13h3.6c-.35-1.01-.87-2.24-1.29-3.18l2.1-.52c.56,1.15,1.19,2.62,1.61,3.71h2.97c.46-1.19.98-2.73,1.22-3.81l2.34.56c-.42,1.08-.87,2.27-1.29,3.25h3.25v2.13Zm-.14-6.82h-13.79v-2.1h5.63c-.28-.77-.67-1.61-.98-2.31l2.27-.46c.46.84.91,1.89,1.26,2.76h5.6v2.1Zm-10.53,13.96h7.24v-3.57h-7.24v3.57Zm24.21,10.78c.35,0,.74-.04.91-.18.21-.07.38-.31.49-.73.11-.49.11-1.57.14-2.97.49.38,1.29.8,1.92,1.01-.07,1.36-.17,2.87-.38,3.43-.21.52-.56.91-1.08,1.12-.46.21-1.26.28-1.82.28h-1.99c-.7,0-1.61-.14-2.06-.59-.56-.38-.77-.94-.77-2.9v-7.42h-2.17c-.53,5.35-1.99,9.27-7.1,11.51-.28-.56-.95-1.43-1.47-1.85,4.62-1.85,5.84-5.18,6.26-9.66h-2.55v-7.21h12.6v7.21h-3.18v7.66c0,.59.03.98.21,1.12.18.1.42.18.74.18h1.33Zm2.48-18.05h-15.18v-2.13h3.32c-.31-.98-.77-2.17-1.15-3.11l2.06-.46c.52,1.15,1.08,2.52,1.4,3.57h3.11c.46-1.15.91-2.66,1.19-3.74l2.34.56c-.45,1.05-.91,2.2-1.33,3.18h4.23v2.13Zm-.84-6.68h-14v-2.1h5.53c-.25-.77-.59-1.57-.91-2.27l2.27-.46c.42.8.88,1.85,1.19,2.73h5.91v2.1Zm-11.13,13.93h8.08v-3.5h-8.08v3.5Z" style="fill: #fff; stroke-width: 0px;"/>
            <path d="m312.7,93.59h-4.51c3.46.94,7.07,2.06,9.38,2.87l-2.13,1.54c-2.31-.91-6.19-2.17-10.11-3.32l1.22-1.08h-7.73l1.54.94c-2.8,1.57-7.42,2.94-11.16,3.6-.32-.45-1.01-1.26-1.5-1.75,3.32-.52,7.42-1.68,9.8-2.8h-4.23v-8.57c-1.61.98-3.29,1.78-4.86,2.34-.35-.56-1.08-1.43-1.58-1.89,3.04-.88,6.4-2.55,8.71-4.51h-7.87v-1.92h8.89v-1.57h-4.83v-1.54h4.83v-1.54h-5.35v-1.64h5.35v-1.54h2.45v1.54h7.98v-1.54h2.45v1.54h5.25v1.64h-5.25v1.54h4.86v1.54h-4.86v1.57h8.96v1.92h-7.49c2.2,1.78,5.32,3.32,8.26,4.06-.52.46-1.26,1.4-1.61,1.96-1.61-.49-3.29-1.26-4.83-2.2v8.82Zm-22.25-19.8h-2.41v-5.32h14c-.28-.63-.63-1.26-.95-1.78l2.55-.7c.45.73.98,1.68,1.33,2.48h13.02v5.32h-2.52v-3.25h-25.02v3.25Zm19.73,10.43h-14.52v1.61h14.52v-1.61Zm0,3.08h-14.52v1.64h14.52v-1.64Zm0,3.11h-14.52v1.68h14.52v-1.68Zm-11.83-9.45c-.56.59-1.19,1.19-1.82,1.75h13.29c-.63-.56-1.22-1.12-1.75-1.75h-9.73Zm.63-5.04h7.98v-1.54h-7.98v1.54Zm0,3.11h7.98v-1.57h-7.98v1.57Z" style="fill: #fff; stroke-width: 0px;"/>
          </g>
        </g>
      </g>
    </g>
  </g>
</svg>