<?xml version="1.0" encoding="UTF-8"?>
<svg id="_圖層_2" data-name="圖層 2" xmlns="http://www.w3.org/2000/svg" width="354.06" height="247.64" xmlns:xlink="http://www.w3.org/1999/xlink" viewBox="0 0 354.06 247.64">
  <defs>
    <clipPath id="clippath">
      <path d="m192.6,109.38l12.39,42.27L25.76,209.14C.06,198.04-4.63,180.85,10.7,157.77l181.9-48.4Z" style="clip-rule: evenodd; fill: #e28a2b; stroke-width: 0px;"/>
    </clipPath>
    <clipPath id="clippath-1">
      <circle cx="233.85" cy="120.27" r="97.92" transform="translate(-16.55 200.58) rotate(-45)" style="fill: #fff; stroke-width: 0px;"/>
    </clipPath>
    <clipPath id="clippath-2">
      <path d="m249.62,215.72h-43.11c-53.1,0-96.51-43.42-96.51-96.51V13.47h139.62c53.1,0,96.51,43.42,96.51,96.51v105.66l-96.51.08h0Z" style="fill: none; stroke-width: 0px;"/>
    </clipPath>
  </defs>
  <g id="_第一cut" data-name="第一cut">
    <g id="activity_competition2">
      <path d="m23.79,216.29c-25.68-11.04-30.37-28.24-15.04-51.32l103.32-27.51c-4.72-55.76,30.23-109.06,85.98-125.41,63.66-18.67,130.51,17.86,149.17,81.52,18.68,63.67-17.85,130.51-81.53,149.18-55.75,16.36-113.95-9.64-140.08-59.11l-101.82,32.64Zm123.45-39.58c22.13,38.03,68.09,57.6,112.18,44.67,51.87-15.2,81.63-69.65,66.41-121.52-15.2-51.86-69.65-81.62-121.52-66.41-44.09,12.93-72.21,54.22-70.29,98.18l13.22,45.08Z" style="fill: rgba(226, 138, 43, .5); fill-rule: evenodd; opacity: .5; stroke-width: 0px;"/>
      <g>
        <g>
          <path d="m192.6,109.38l12.39,42.27L25.76,209.14C.06,198.04-4.63,180.85,10.7,157.77l181.9-48.4Z" style="fill: #e28a2b; fill-rule: evenodd;"/>
          <g style="clip-path: url(#clippath);">
            <g>
              <rect x="-25.4" y="136.64" width="73.43" height="97.74" transform="translate(-51.74 10.68) rotate(-16.34)" style="fill: #e9a760; stroke-width: 0px;"/>
              <path d="m23.73,166.63s-3.34,1.67-5.57,4.32c-1.08,1.29-2,2.84-1.39,4.61.53,1.56-.31,3.24-1.86,3.77-1.55.53-3.24-.3-3.77-1.86-1.33-3.9.08-7.49,2.47-10.34,2.98-3.55,7.45-5.81,7.45-5.81,1.46-.73,3.25-.14,3.99,1.32.74,1.47.15,3.26-1.32,3.99Z" style="fill: #ffe6ca; fill-rule: evenodd; stroke-width: 0px;"/>
            </g>
          </g>
        </g>
        <path d="m98.16,147.84l-32.64,9.84c-1.57.47-3.23-.42-3.71-1.99-.47-1.57.42-3.23,1.99-3.7l32.64-9.84c1.57-.47,3.23.42,3.7,1.99.47,1.57-.42,3.23-1.99,3.7Z" style="fill: #ffe6ca; fill-rule: evenodd; stroke-width: 0px;"/>
        <circle cx="234.64" cy="121.42" r="113.71" style="fill: #ffeed4; stroke-width: 0px;"/>
        <g>
          <circle cx="233.85" cy="120.27" r="97.92" transform="translate(-16.55 200.58) rotate(-45)" style="fill: #fff;"/>
          <g style="clip-path: url(#clippath-1);">
            <g>
              <g>
                <rect x="95.55" y="-.82" width="275.33" height="275.33" style="fill: #abe7ff; stroke-width: 0px;"/>
                <path d="m77.34,110.98c-1.92-7.3,1.38-15.75,7.99-19.29,6.61-3.53,15.98-1.15,19.59,5.46l.38-.54c1-1.23,2.77-1.54,4.15-.85l2.84,1.54c1.38-8.45,12.06-12.6,20.36-10.37,8.3,2.31,14.52,8.84,20.36,15.21.54-5.92,8.53-8.61,13.91-6.15,5.38,2.46,8.53,8.07,11.14,13.45l15.75,4.3h-125.41l8.91-2.77Z" style="fill: #fff; stroke-width: 0px;"/>
                <path d="m390.85,23.46c-.38-3.46-1.84-6.99-4.76-8.84-2.92-1.84-7.3-1.54-9.3,1.31-.31-2.54-4.69-3-5.53-.61,2-5.46-1.77-11.83-7.15-13.99s-11.68-.77-16.52,2.38-8.53,7.76-11.99,12.45h0c-.85-1.77-2.92-2.77-4.76-2.07h-.08c1.15-2.61-1.69-5.61-4.53-5.69-2.84-.08-5.38,1.69-7.53,3.61-3.07,2.69-5.38,7.76-7.91,10.99l-12.29,3.69h101.89l-9.53-3.23Z" style="fill: #fff; stroke-width: 0px;"/>
                <path d="m364.42,163.08c-6.3,2.07-10.6,8.84-9.99,15.45-5.61-3.84-13.14-4.46-19.36-1.69-9.68,4.38-14.22,15.52-16.14,25.9-5.53-2.61-12.99,2.15-12.91,8.22-6.22-4.84-15.29-5.69-22.28-2.07-6.99,3.61-11.6,11.45-11.3,19.29-4.07-2.38-9.99-.08-11.45,4.38-4-5.23-10.83-8.07-17.37-7.15s-12.37,5.46-14.75,11.53c-2.07-2.77-6.45-3.23-9.07-1.08-3.23-7.38-8.38-13.91-14.83-18.75-3.38-2.54-7.3-4.61-11.53-4.84s-8.76,1.92-10.37,5.76c-1.15-3.38-4.92-5.61-8.53-5.07-4.53-8.15-9.99-16.37-18.21-20.67-8.3-4.3-19.98-3.23-25.05,4.61-.08-3.38-4.3-5.84-7.3-4.3,2-9.07-6.76-18.21-16.06-18.37s-17.67,6.92-21.21,15.52v87.75h294.92v-108.04c-3.38-5.69-10.91-8.45-17.21-6.38Z" style="fill: #fff; stroke-width: 0px;"/>
                <g>
                  <path d="m334.37,52.2s-4.3,2-7.15,4.38c0-1.08,2.54-5.76,2.54-5.76l3.07-.92,1.54,2.31Z" style="fill: #589fef; stroke-width: 0px;"/>
                  <path d="m311.71,51.97s-.54-4.53,2.84-5.92c3.38-1.38,21.29-5.76,21.29-5.76,0,0-4.69,3.77-2.69,8.68-.85.69-21.44,5.84-21.44,5.84v-2.84h0Z" style="fill: #fff; stroke-width: 0px;"/>
                  <path d="m335.76,40.29s3.92-1.38,7.99,3.15l.46,3s-9.61-9.07-10.6,4.69c0,0-2.07-2.69-1.92-4.99,0-2.23,2.15-5.69,4.07-5.84Z" style="fill: #ebebeb; stroke-width: 0px;"/>
                  <path d="m332.68,47.97s-2.77-6.76,6.07-13.68l-23.67,6.45s-4.76,3.61-3.46,11.22l21.05-4Z" style="fill: #f4f4f4; stroke-width: 0px;"/>
                  <path d="m331.3,47.2s1.31-.31,1.61,3.07c-1.23.54-5.23,2.54-4.53,14.37l-2.69.77c-.08.08-3.77-12.76,5.61-18.21Z" style="fill: #ebebeb; stroke-width: 0px;"/>
                  <path d="m331.3,47.2s-13.52,1.31-23.36,6.45c0,0-8.38,6.92-5.69,18.44l23.36-6.61s-1.92-14.06,5.69-18.29Z" style="fill: #fff; stroke-width: 0px;"/>
                  <path d="m332.07,50.12s-.38-1.46.69-2.15c1.08-.77,2.31,1.38,2.23,3.07-.15,1.61-2.07,2.31-2.92-.92Z" style="fill: #82b6ff; stroke-width: 0px;"/>
                  <g>
                    <path d="m321.54,63.11c-.15,0-.31-.08-.31-.23-.92-9.3,3.3-12.99,3.46-13.14.15-.08.31-.08.38,0,.08.15.08.31,0,.38-.08,0-4.15,3.69-3.3,12.68,0,.15-.08.31-.23.31h0Z" style="fill: #82b6ff; stroke-width: 0px;"/>
                    <path d="m316.93,64.34c-.15,0-.31-.08-.31-.23-.92-9.3,3.3-12.99,3.46-13.14.15-.08.31-.08.38,0,.08.15.08.31,0,.38-.08,0-4.15,3.69-3.3,12.68.15.15-.08.31-.23.31h0Z" style="fill: #82b6ff; stroke-width: 0px;"/>
                    <path d="m312.32,65.57c-.15,0-.31-.08-.31-.23-.85-9.3,3.38-12.99,3.53-13.14.15-.08.31-.08.38,0,.08.15.08.31,0,.38-.08,0-4.15,3.69-3.3,12.68.08.15-.08.31-.31.31.15,0,0,0,0,0Z" style="fill: #82b6ff; stroke-width: 0px;"/>
                    <path d="m307.86,66.8c-.15,0-.31-.08-.31-.23-.92-9.3,3.3-12.99,3.46-13.14.15-.08.31-.08.38,0,.08.15.08.31,0,.38-.08,0-4.15,3.69-3.3,12.68,0,.15-.15.31-.23.31h0Z" style="fill: #82b6ff; stroke-width: 0px;"/>
                  </g>
                  <path d="m330.15,42.82h0c-.23,0-.31-.15-.31-.38.54-2.69,3.3-5.38,3.46-5.53.08-.08.31-.08.38,0s.08.31,0,.38c0,0-2.77,2.69-3.23,5.23-.08.15-.23.31-.31.31Z" style="fill: #82b6ff; stroke-width: 0px;"/>
                  <path d="m325.77,46.44c-.15,0-.31-.15-.31-.31-.08-4.38,3.38-7.91,3.53-8.07.08-.08.31-.08.38,0s.08.31,0,.38c0,0-3.46,3.46-3.3,7.61.08.23-.08.38-.31.38h0Z" style="fill: #82b6ff; stroke-width: 0px;"/>
                  <path d="m322.08,47.36c-.15,0-.31-.15-.31-.31-.08-4.38,3.38-7.91,3.53-8.07.08-.08.31-.08.38,0s.08.31,0,.38c0,0-3.46,3.46-3.3,7.61-.08.23-.23.31-.31.38h0Z" style="fill: #82b6ff; stroke-width: 0px;"/>
                  <path d="m318.24,48.2c-.15,0-.31-.15-.31-.31-.08-4.38,3.38-7.91,3.53-8.07.08-.08.31-.08.38,0s.08.31,0,.38c0,0-3.46,3.46-3.3,7.61-.08.31-.23.38-.31.38h0Z" style="fill: #82b6ff; stroke-width: 0px;"/>
                  <path d="m314.47,49.12c-.15,0-.31-.15-.31-.31-.08-4.38,3.38-7.91,3.53-8.07.08-.08.31-.08.38,0s.08.31,0,.38c0,0-3.46,3.46-3.3,7.61,0,.31-.15.38-.31.38h0Z" style="fill: #82b6ff; stroke-width: 0px;"/>
                </g>
                <g>
                  <path d="m113.91,155.32s4.53,2.15,7.45,4.61c0-1.15-2.69-6.07-2.69-6.07l-3.23-.92-1.54,2.38Z" style="fill: #ffce6d; stroke-width: 0px;"/>
                  <path d="m137.73,155.09s.61-4.76-3-6.15c-3.53-1.46-22.36-6.07-22.36-6.07,0,0,4.92,4,2.77,9.14.92.69,22.44,6.15,22.44,6.15l.15-3.07Z" style="fill: #fff; stroke-width: 0px;"/>
                  <path d="m112.45,142.87s-4.07-1.46-8.38,3.3l-.46,3.15s10.07-9.53,11.14,4.92c0,0,2.15-2.77,2-5.23-.08-2.46-2.31-5.99-4.3-6.15Z" style="fill: #ebebeb; stroke-width: 0px;"/>
                  <path d="m115.68,150.86s2.84-7.07-6.38-14.29l24.82,6.76s4.99,3.77,3.61,11.76l-22.05-4.23Z" style="fill: #f4f4f4; stroke-width: 0px;"/>
                  <path d="m117.22,150.1s-1.31-.31-1.69,3.23c1.31.54,5.46,2.69,4.76,15.06l2.77.85s3.84-13.45-5.84-19.13Z" style="fill: #ebebeb; stroke-width: 0px;"/>
                  <path d="m117.22,150.1s14.14,1.38,24.44,6.76c0,0,8.76,7.22,5.92,19.29l-24.51-6.92s2.07-14.68-5.84-19.13Z" style="fill: #fff; stroke-width: 0px;"/>
                  <path d="m116.37,153.17s.38-1.46-.69-2.31c-1.08-.77-2.46,1.46-2.38,3.23.08,1.77,2.23,2.46,3.07-.92Z" style="fill: #ffe76b; stroke-width: 0px;"/>
                  <g>
                    <path d="m127.28,166.77c.15,0,.31-.15.31-.31.92-9.76-3.46-13.68-3.61-13.83-.15-.08-.31-.08-.46,0-.08.15-.08.31,0,.46.08,0,4.38,3.92,3.46,13.29.08.23.23.38.31.38h0Z" style="fill: #ffe76b; stroke-width: 0px;"/>
                    <path d="m132.2,168.08c.15,0,.31-.15.31-.31.92-9.76-3.46-13.68-3.61-13.83-.15-.08-.31-.08-.46,0-.08.15-.08.31,0,.46.08,0,4.38,3.92,3.46,13.29-.08.23,0,.38.31.38-.08,0,0,0,0,0Z" style="fill: #ffe76b; stroke-width: 0px;"/>
                    <path d="m136.97,169.38c.15,0,.31-.15.31-.31.92-9.76-3.46-13.68-3.61-13.83-.15-.08-.31-.08-.46,0-.08.15-.08.31,0,.46.08,0,4.38,3.92,3.46,13.29,0,.23.15.38.31.38h0Z" style="fill: #ffe76b; stroke-width: 0px;"/>
                    <path d="m141.81,170.69c.15,0,.31-.15.31-.31.92-9.76-3.46-13.68-3.61-13.83-.15-.08-.31-.08-.46,0-.08.15-.08.31,0,.46.08,0,4.38,3.92,3.46,13.29-.08.15.08.31.31.38q-.08,0,0,0Z" style="fill: #ffe76b; stroke-width: 0px;"/>
                  </g>
                  <path d="m118.37,145.49q.08,0,0,0c.23-.08.31-.23.31-.38-.54-2.84-3.46-5.69-3.61-5.76-.15-.15-.31-.08-.46,0-.15.15-.08.31,0,.46,0,0,2.92,2.84,3.38,5.46.15.15.23.23.38.23Z" style="fill: #ffe76b; stroke-width: 0px;"/>
                  <path d="m122.9,149.25c.15,0,.31-.15.31-.31.08-4.61-3.53-8.3-3.69-8.45s-.31-.15-.46,0c-.15.15-.15.31,0,.46,0,0,3.61,3.61,3.53,7.99,0,.15.08.31.31.31h0Z" style="fill: #ffe76b; stroke-width: 0px;"/>
                  <path d="m130.9,151.17c.15,0,.31-.15.31-.31.08-4.61-3.53-8.3-3.69-8.45s-.31-.15-.46,0-.15.31,0,.46c0,0,3.61,3.61,3.53,7.99,0,.15.08.31.31.31q-.08,0,0,0Z" style="fill: #ffe76b; stroke-width: 0px;"/>
                  <path d="m134.81,152.17c.15,0,.31-.15.31-.31.08-4.61-3.53-8.3-3.69-8.45s-.31-.15-.46,0-.15.31,0,.46c0,0,3.61,3.61,3.53,7.99,0,.15.15.31.31.31h0Z" style="fill: #ffe76b; stroke-width: 0px;"/>
                </g>
                <g>
                  <path d="m350.51,131.19s-1.61-5.53,1.38-16.29c0,0-11.91,9.45-19.98,23.05l9.3,4.53c-.08-.08,4.92-7.76,9.3-11.3Z" style="fill: #fff; stroke-width: 0px;"/>
                  <path d="m351.89,114.9l.85.38s-2.61,9.84-1.61,17.21l-1.77-1.69c0-.08.23-12.29,2.54-15.91Z" style="fill: #ebebeb; stroke-width: 0px;"/>
                  <path d="m349.36,130.73s-5.84-9.68-3.53-16.37c0,0-13.06,13.06-17.44,23.36l11.99,6.22,8.99-13.22Z" style="fill: #f4f4f4; stroke-width: 0px;"/>
                  <path d="m348.97,132.04s-6.07-4.76-8.15-16.67c-2.61,1.61-14.98,13.91-17.75,21.98l14.06,6.61,11.83-11.91Z" style="fill: #fff; stroke-width: 0px;"/>
                  <path d="m308.48,146.48s13.14-1.15,23.44,3.77l14.68-16.14s-9.76-8.3-18.98-6.61c-.08-.08-16.21,13.75-19.13,18.98Z" style="fill: #ffa4c6; stroke-width: 0px;"/>
                  <path d="m327.54,127.43l-.38-1.38s11.3-1.15,19.44,6.92c0,0,.38.69-.08,1.15,0-.08-9.76-7.84-18.98-6.69Z" style="fill: #f4f4f4; stroke-width: 0px;"/>
                  <path d="m327.15,126.04s-13.06,9.61-19.67,19.52l1,.92s13.75-14.22,19.13-18.98l-.46-1.46Z" style="fill: #fff; stroke-width: 0px;"/>
                  <path d="m331.92,150.25s.46,1.92,2.84,1.46l15.75-16.91s-3.46-1.15-3.92-.69c-.46.38-14.68,16.14-14.68,16.14Z" style="fill: #fb86b6; stroke-width: 0px;"/>
                  <path d="m341.14,134.42c-1.69-1.38-5.99-4.3-11.91-4.38-.31,0-.54.08-.77.31l-2.31,2.38c-.54.54-.23,1.54.54,1.69,2.84.54,8.22,1.84,10.99,4.15.38.38,1.08.31,1.38-.15l2.23-2.54c.38-.38.23-1.08-.15-1.46Z" style="fill: #ffe76b; stroke-width: 0px;"/>
                  <path d="m343.83,137.03c-14.22,9.84-34.35,8.38-34.73,8.3-.31.38-.54.77-.69,1.08,0,0,13.14-1.15,23.44,3.77l11.99-13.14Z" style="fill: #ffa4c6; isolation: isolate; opacity: .5; stroke-width: 0px;"/>
                  <path d="m346.52,134.04s2.23,1.77,3.92.69c1.69-1.08,0-3.61,0-3.61,0,0-1.92-1-3,0-1.08,1.15-.92,2.92-.92,2.92Z" style="fill: #ffa4c6; stroke-width: 0px;"/>
                </g>
                <g>
                  <path d="m164.48,65.18s5.07-2.54,16.21-1.54c0,0-11.45-9.99-26.2-15.45l-2.69,9.91s8.38,3.53,12.68,7.07Z" style="fill: #fff; stroke-width: 0px;"/>
                  <path d="m180.69,63.65l-.23.85s-10.14-.77-17.14,1.54l1.38-2.07s12.06-1.92,15.98-.31Z" style="fill: #ebebeb; stroke-width: 0px;"/>
                  <path d="m164.71,63.96s8.38-7.45,15.45-6.38c0,0-15.14-10.45-26.05-12.83l-3.92,12.83,14.52,6.38Z" style="fill: #f4f4f4; stroke-width: 0px;"/>
                  <path d="m163.4,63.8s3.61-6.84,14.91-11.07c-2.07-2.23-16.37-12.14-24.74-13.45l-3.92,14.98,13.75,9.53Z" style="fill: #fff; stroke-width: 0px;"/>
                  <path d="m141.88,26.76s3.53,12.68.54,23.67l18.52,11.45s6.38-11.07,3.07-19.83c0,0-16.52-13.37-22.13-15.29Z" style="fill: #17e5bb; stroke-width: 0px;"/>
                  <path d="m164.01,42.06l1.31-.61s3.23,10.91-3.23,20.36c0,0-.61.46-1.15.15,0-.08,5.92-11.14,3.07-19.9Z" style="fill: #f4f4f4; stroke-width: 0px;"/>
                  <path d="m165.32,41.44s-11.76-11.07-22.67-15.75l-.77,1.15s16.44,10.91,22.13,15.29l1.31-.69Z" style="fill: #fff; stroke-width: 0px;"/>
                  <path d="m142.5,50.43s-1.84.85-.92,3.07l19.44,12.37s.54-3.61,0-3.92c-.69-.38-18.52-11.53-18.52-11.53Z" style="fill: #00cc9e; stroke-width: 0px;"/>
                  <path d="m150.34,50.35c.77-2,2.23-6.99.54-12.68-.08-.23-.31-.46-.54-.61l-2.92-1.46c-.69-.38-1.54.23-1.46,1,.38,2.84.77,8.38-.61,11.68-.23.46.08,1.08.54,1.31l3.07,1.31c.54.23,1.15,0,1.38-.54Z" style="fill: #7688eb; stroke-width: 0px;"/>
                  <path d="m160.94,61.88s-1.38,2.46,0,3.92c1.38,1.46,3.53-.61,3.53-.61,0,0,.69-2.07-.54-3-1.31-.85-3-.31-3-.31Z" style="fill: #17e5bb; stroke-width: 0px;"/>
                  <path d="m145.26,52.2l15.68,9.68s5.46-9.45,3.61-17.83c-6.15,8.99-14.45,9.07-19.29,8.15Z" style="fill: #17e5bb; isolation: isolate; opacity: .5; stroke-width: 0px;"/>
                </g>
                <g>
                  <g>
                    <circle cx="233.25" cy="121.97" r="85.06" style="fill: #fff; stroke-width: 0px;"/>
                    <circle cx="233.25" cy="121.97" r="77.76" style="fill: #00a6e7; stroke-width: 0px;"/>
                    <g>
                      <path d="m241.78,129.73c1,.23,2.07.46,2.84,1.23,1.69,1.77.38,4.84,1.46,7.07.38.85,1.08,1.46,1.69,2.15,4.23,4.84,3.23,12.37,4.84,18.44.31,1.31,1.15,2.46,2.31,3.15,2.54,1.38,4.76-.46,6.53-2.23,2.38-2.31,4.92-5.23,4.23-8.45-.23-1.08-.85-2.07-.92-3.23-.08-2,1.77-3.46,2.46-5.3,1.31-3.3-.77-7.07.08-10.45.92-3.84,5.53-6.76,4.69-10.68-.31-1.46-1.31-2.69-1.38-4.15-.15-2.15,1.69-3.84,3.15-5.38,1-1.08,1.92-2.69,1.84-4.07,0-1.46,1.46-2.38,2.84-1.92.23.08.54.23.77.38,2.61,1.54,4.38,4.3,6.15,6.76s4.3,4.61,6.22.54c.69-1.54.92-3.38,2-4.69.31-.31.61-.61,1.08-.69.31,0,.61.08.85.23,2,1,3.15,3.23,4.53,4.99s3.84,3.3,5.84,2.31c2.46-1.23,2.15-5.15.54-7.15-.61-.69-.77-1.69-.46-2.61.38-1.08,1.31-1,2.15-1.15.31-.08.61-.15.85-.23-4.53-19.9-16.67-36.81-33.2-47.72-.08,0-.15.08-.23.08-1.15.61-1.84,1.84-2.69,2.92-1.84,2.54-4.23,4.69-7.15,5.76-6.15,2.23-12.99-.77-19.36.46-4.84,1-9.3,5.15-9.07,9.99.08,1.15.31,2.31.31,3.38-.08,1.15-.61,2.38-1.69,2.77-.69.23-2.61-3.69-4.92-1.69-1.77,1.54-1.31,5.23,0,6.84,1.23,1.61,3.61,3.07,3,4.99-.38,1.38-2.23,2.69-1.23,3.84.23.31.61.46,1,.54,2.54.31,5.23-.61,6.99-2.46.69-.77,1.31-1.69,2.38-2,.54-.15,1.15-.08,1.54.31,1.08.92-.31,2.46.69,3.3.23.23.54.31.85.31,2.31.15,4.46-1.23,6.92-.85.77.15,1.46.46,2,1.08,1.61,1.92-.31,4.38-2.38,4.84-1.84.38-3.69-.31-5.53-.92-4.3-1.46-9.45-2.31-13.22.31-4,2.77-4.84,8.3-4.69,13.14.08,3.46.54,6.84,1.31,10.14.23,1.23.61,2.46,1.61,3.23.61.46,1.38.61,2.15.77,2.54.61,4.92,1.15,7.45,1.77Z" style="fill: #17e5bb; stroke-width: 0px;"/>
                      <path d="m206.74,192.59c-.77-1.84-.85-4-.23-5.92.77-2.46,2.61-4.46,3.3-6.92.92-3.23-.23-6.99,1.31-9.91.92-1.77,2.61-2.92,4-4.3,1.38-1.46,2.46-3.53,1.69-5.3-.38-.85-1.15-1.54-1.38-2.46-.23-1,.08-2,.31-3,1-4.92-2.77-10.37-7.76-10.99-2.92-.31-6.15.85-8.76-.54-1.77-.92-2.84-2.69-4.15-4.15s-3.38-2.77-5.23-2.07c-.69.23-1.31.77-2,.85-1.31.23-2.38-.92-3.61-1.38-1.61-.61-3.46-.08-4.76.92-1.38,1-2.31,2.46-3.23,3.92-3.38,5.38-7.99,10.45-4.15,16.83.77,1.31,2,2.46,3.46,2.84.69.15,1.46.15,2.07.46,2,.92,1.84,3.77,3.23,5.46.61.77,1.61,1.23,2.46,1.69,3.23,2,5.69,5.69,6.15,9.45.46,3.84,1.84,7.53,4,10.68,4.46,2.69,9.14,4.84,14.14,6.61,0-.85-.46-1.92-.85-2.77Z" style="fill: #17e5bb; stroke-width: 0px;"/>
                      <path d="m297.18,128.66c-1-1.15-1.84-2.46-3.07-3.38-1.38-1-3.61-.61-3.38,1.15,0,.15.08.38.23.61.92,2,3.23,3.15,4.61,4.76.69.85,1.23,1.77,1.77,2.69,1.31,2.15,2.15,4.76,4.84,5.46,1.54.38,3.46-.38,3.77-1.92.23-1.15-.54-2.31-1.38-3.23-2.23-2.31-5.15-3.77-7.38-6.15Z" style="fill: #17e5bb; stroke-width: 0px;"/>
                      <path d="m308.48,120.74c-.85.77-.77,2-1.08,3.15-.31,1.31-1.08,2.31-2.07,3.15-1.69,1.46-1.23,3.15,0,4.76.77,1,1.61,1.84,2.54,2.61.31.23.69.54,1.08.69s.69.23,1,.31c.77-4.3,1.15-8.84,1.15-13.37v-1.84c-1.08-.15-2.23,0-2.61.54Z" style="fill: #17e5bb; stroke-width: 0px;"/>
                      <path d="m299.49,162.62c-.61-.61-1.23-1.23-1.38-2.07-.23-1.15.54-2.38.46-3.53-.08-1-.85-1.84-1.61-2.54-.23-.15-.38-.31-.69-.38-.31,0-.61.15-.92.38-.85.69-1.54,1.61-2.46,2.23-.92.69-2.07,1.08-3.15.61-.92-.46-1.46-1.54-2.46-1.84-1.38-.46-2.69.61-3.77,1.61-1.15,1.15-2.31,2.23-3.46,3.38-2.54,2.46-6.69,2.38-6.69,6.84,0,1.84.61,3.61.38,5.38-.23,1.84-1.23,3.84-.08,5.3.77,1.08,2.31,1.23,3.69,1.08,2.07-.15,4.15-.69,5.99-1.54,1.08-.54,2.23-1.15,3.46-1.23.54,0,1.08.08,1.61.15,4.3-4,7.91-8.68,11.07-13.83Z" style="fill: #17e5bb; stroke-width: 0px;"/>
                      <path d="m157.1,106.14c1.08,1.84,2.23,3.69,3.07,5.61,1.38,2.84,2.69,5.84,4.92,8.07,1.38,1.38,3.07,2.46,4.69,3.46,1.08.69,2.23,1.38,3.53,1.46,1.31.08,2.69-.77,2.84-2,.15-1.08-.61-2-1.38-2.84-1.38-1.54-2.84-3.15-4.23-4.69-.92-1-1.92-2.31-1.54-3.69.38-1.23,1.84-1.92,3.15-1.92s2.61.46,3.92.61c4.07.38,7.84-2.38,9.99-5.92,1.08-1.77,1.92-3.77,3.07-5.53,2.84-4.3,7.61-6.84,11.53-10.22,1-.85,2-1.92,2.15-3.15.23-1.84-1.46-3.53-3.23-3.92-1.84-.31-3.69.46-5.23,1.54-.77.54-1.54,1.23-2.46,1.54s-2.07.31-2.77-.38c-1.08-1.15-.23-3.07.92-4.15.92-.92,2-1.61,3.15-2.15,1.77-.77,3.92-1.15,4.84-2.84,1.08-1.92-.38-4.53-2.46-5.38s-4.46-.46-6.53.15c-1.08.31-2.23.69-3.38.54-1.15-.15-2.23-1-2.31-2.15,0-.85.61-1.61,1.08-2.38.46-.77.69-1.84.08-2.46-.31-.31-.77-.46-1.23-.46h-.31c-13.06,10.83-22.36,26.05-25.9,43.26Z" style="fill: #17e5bb; stroke-width: 0px;"/>
                    </g>
                    <path d="m289.88,68.57c5.46,10.6,8.53,22.67,8.53,35.5,0,42.96-34.81,77.76-77.76,77.76-22.28,0-42.42-9.37-56.56-24.44,12.91,25.13,39.04,42.34,69.24,42.34,42.96,0,77.76-34.81,77.76-77.76-.08-20.67-8.15-39.5-21.21-53.41Z" style="fill: #00a6e7; isolation: isolate; opacity: .5; stroke-width: 0px;"/>
                    <path d="m237.17,144.56c-.92-.92-2.23-1.77-4-1.77-2.15,0-3.46,1.15-4.3,2.31-.77,1.08-1.15,2.38-1.15,3.77,0,2.69.61,8.22,5.61,8.22,4.69,0,5.53-4.76,5.61-7.61.23-1.84-.46-3.61-1.77-4.92Z" style="fill: #005e9d; stroke-width: 0px;"/>
                    <path d="m239.09,149.48v-.92c-2.46.23-8.07,1.15-10.37,5.15.77,1.84,2.15,3.46,4.84,3.46,4.53-.08,5.3-4.92,5.53-7.68Z" style="fill: #ffa4c6; stroke-width: 0px;"/>
                  </g>
                  <g>
                    <path d="m233.25,173.92s.15-18.37,33.58-25.51v9.45s-23.44,8.3-32.66,16.98c-.38-.31-.92-.92-.92-.92Z" style="fill: #f4f4f4; stroke-width: 0px;"/>
                    <path d="m233.25,173.92s1.38-19.67-15.37-30.28c-.85,4.23-5.46,19.67-5.46,19.67l20.82,10.6Z" style="fill: #f4f4f4; stroke-width: 0px;"/>
                    <path d="m276.28,157.24l-7.22,1.38,6.38-2.46c-.54-.61-1-1.15-1.31-1.54-32.43,5.92-40.88,19.29-40.88,19.29,0,0,5.3,5.92,8.3,4.53,15.98-9.14,37.88-17.37,37.88-17.37,0,0-1.61-2-3.15-3.84Z" style="fill: #fff; stroke-width: 0px;"/>
                    <path d="m190.22,157.24l7.22,1.38-6.38-2.46c.54-.61,1-1.15,1.31-1.54,32.35,5.92,40.88,19.29,40.88,19.29,0,0-5.3,5.92-8.3,4.53-15.98-9.14-37.88-17.37-37.88-17.37,0,0,1.61-2,3.15-3.84Z" style="fill: #fff; stroke-width: 0px;"/>
                    <path d="m226.33,177.37s.61-3.46,6.92-3.46,6.92,3.46,6.92,3.46c0,0-6.07,5.53-13.83,0Z" style="fill: #f19000; stroke-width: 0px;"/>
                    <path d="m240.17,177.37v51.79c17.37-14.52,42.96-17.52,42.96-17.52v-51.79s-25.59,3-42.96,17.52Z" style="fill: #ffe76b; stroke-width: 0px;"/>
                    <path d="m226.33,177.37v51.79c-17.37-14.52-42.96-17.52-42.96-17.52v-51.79c-.08,0,25.51,3,42.96,17.52Z" style="fill: #ffe76b; stroke-width: 0px;"/>
                    <path d="m226.33,177.37v51.79c5.92,2.77,13.91,0,13.91,0v-51.79c-.08,0-8.07,2.77-13.91,0Z" style="fill: #ffcb43; stroke-width: 0px;"/>
                    <path d="m273.98,170.84c-9.91,1.38-21.13,8.45-23.9,10.3-.38.23-.61.69-.61,1.15v8.84c0,1.15,1.54,1.84,2.61,1.15,4.53-2.77,14.06-8.07,22.44-9.07.85-.08,1.38-.69,1.38-1.38v-9.53c-.15-.92-1-1.61-1.92-1.46Z" style="fill: #00a6e7; stroke-width: 0px;"/>
                    <path d="m226.33,189.36c-9.61,20.67-35.5,19.98-42.96,19.36v2.84s25.67,3,42.96,17.52v-39.73Z" style="fill: #ffe76b; isolation: isolate; opacity: .5; stroke-width: 0px;"/>
                    <path d="m240.17,229.17v-29.2c-1.61,3.3-5.07,9.68-13.91,10.68v18.6c5.92,2.69,13.91-.08,13.91-.08Z" style="fill: #ffcb43; isolation: isolate; opacity: .5; stroke-width: 0px;"/>
                    <path d="m283.12,185.6c-4.53,10.76-15.91,27.74-42.96,27.97v15.6c17.37-14.52,42.96-17.52,42.96-17.52v-26.05Z" style="fill: #ffe76b; isolation: isolate; opacity: .5; stroke-width: 0px;"/>
                  </g>
                  <g>
                    <path d="m287.19,191.74c-.38,0-.77-.23-1-.61-.23-.54-.08-1.23.54-1.46,16.29-7.99,25.51-17.14,27.28-27.28,2-11.37-6.22-19.98-6.3-20.06-.46-.46-.38-1.15,0-1.54.46-.46,1.15-.38,1.54,0s9.07,9.53,6.92,21.98c-1.92,10.91-11.45,20.59-28.43,28.89-.15,0-.38.08-.54.08Z" style="fill: #007fb7; stroke-width: 0px;"/>
                    <path d="m288.73,188.59c.54.38.92.92,1,1.61.23,1.54-.31,4.61-5.84,7.15-5.84,2.46-8.38-2.77-5.76-4.69,2.61-1.84,6.76-2.07,6.76-2.07,0,0-1.46-1.23-1.77-2.54-.38-1.15,3.23-1,5.61.54Z" style="fill: #007fb7; stroke-width: 0px;"/>
                  </g>
                  <g>
                    <path d="m179.31,191.74c-.15,0-.31,0-.46-.08-16.98-8.3-26.59-17.98-28.43-28.89-2.15-12.45,6.53-21.59,6.92-21.98.46-.46,1.15-.46,1.54,0,.46.46.46,1.15,0,1.54-.15.15-8.3,8.84-6.3,20.06,1.77,10.14,10.99,19.29,27.28,27.28.54.23.77.92.54,1.46-.31.38-.69.61-1.08.61Z" style="fill: #007fb7; stroke-width: 0px;"/>
                    <path d="m177.69,188.59c-.54.38-.92.92-1,1.61-.23,1.54.31,4.61,5.84,7.15,5.84,2.46,8.38-2.77,5.76-4.69-2.61-1.84-6.76-2.07-6.76-2.07,0,0,1.46-1.23,1.77-2.54.38-1.15-3.23-1-5.61.54Z" style="fill: #007fb7; stroke-width: 0px;"/>
                  </g>
                </g>
                <path d="m370.11,228.01c-5.76-1.84-10.37-6.92-11.6-12.83-2.31,1.15-5.07,1.08-7.3-.15-1.08,6.22-3.53,12.53-8.3,16.75-4.69,4.23-11.91,6.15-17.67,3.38-.31,4.99-2.07,8.76-6.53,10.99-1.23.61-13.45,2.54-13.14,1.84-2.84,5.92-7.91,5.99-12.22,9.68-3.15,2.77-4.92,6.92-8.61,9.53-4,2.77-8.68,4.53-13.37,5.61-10.68,2.61-45.11-1.08-52.64-11.53-8.15,4.84-15.75,10.53-25.43,11.37-8.91.85-18.13-1.46-25.36-6.69-6.61-4.84-11.83-11.91-19.59-14.45-4.3,4.69-12.06,4.92-17.67,2-5.69-2.92-9.68-8.3-12.99-13.75-3.38,2-8.38.31-9.91-3.3-5.38,3.61-12.91,3.77-18.37.31-1-.61-1.92-1.38-2.69-2.15v42.96h294.92v-50.1c-3.61,1.46-7.84,1.77-11.53.54Z" style="fill: #dff6ff; stroke-width: 0px;"/>
                <path d="m323.46,99.99c1.46-4.76-1.69-9.45-6.22-11.45-2.54-1.08-6.07-.77-7.22,1.69-.38-1.61-2.92-1.92-3.69-.54-2.07-4-7.68-4.84-11.76-3-4.07,1.84-6.92,5.61-9.61,9.14-.92-1.92-4.15-2.07-5.3-.23.77-2.15-1.38-4.53-3.69-4.69-2.31-.15-4.46,1.38-5.92,3.07-1.54,1.77-2.69,3.92-3.38,6.22l-8.07,2.46h69.85l-4.99-2.69Z" style="fill: #fff; stroke-width: 0px;"/>
                <rect x="95.55" y="-.82" width="275.33" height="275.33" style="fill: none; stroke-width: 0px;"/>
              </g>
              <g style="clip-path: url(#clippath-2);">
                <g>
                  <g>
                    <circle cx="263.83" cy="141.52" r="8.45" style="fill: #1c1c1b; stroke-width: 0px;"/>
                    <circle cx="267.06" cy="137.49" r="2.61" style="fill: #fff; stroke-width: 0px;"/>
                    <path d="m271.44,141.49c0,.61-.54,1.15-1.15,1.15s-1.15-.54-1.15-1.15.54-1.15,1.15-1.15,1.15.54,1.15,1.15Z" style="fill: #fff; stroke-width: 0px;"/>
                  </g>
                  <path d="m263.83,111.37c-13.06,0-23.67,10.6-23.67,23.67s10.6,23.67,23.67,23.67,23.67-10.6,23.67-23.67-10.68-23.67-23.67-23.67Zm0,45.03c-11.76,0-21.36-9.61-21.36-21.36s9.61-21.36,21.36-21.36,21.36,9.61,21.36,21.36-9.53,21.36-21.36,21.36Z" style="fill: #fff; stroke-width: 0px;"/>
                  <g>
                    <circle cx="202.59" cy="141.49" r="8.45" style="fill: #1c1c1b; stroke-width: 0px;"/>
                    <circle cx="205.82" cy="137.49" r="2.61" style="fill: #fff; stroke-width: 0px;"/>
                    <path d="m210.27,141.49c0,.61-.54,1.15-1.15,1.15s-1.15-.54-1.15-1.15.54-1.15,1.15-1.15c.54,0,1.15.54,1.15,1.15Z" style="fill: #fff; stroke-width: 0px;"/>
                  </g>
                  <path d="m202.59,111.37c-13.06,0-23.67,10.6-23.67,23.67s10.6,23.67,23.67,23.67,23.67-10.6,23.67-23.67-10.6-23.67-23.67-23.67Zm0,45.03c-11.76,0-21.36-9.61-21.36-21.36s9.61-21.36,21.36-21.36,21.36,9.61,21.36,21.36c-.08,11.76-9.53,21.36-21.36,21.36Z" style="fill: #fff; stroke-width: 0px;"/>
                  <path d="m241.16,136.03c-.46,0-.85-.23-1.08-.69-.08-.23-2.23-4.84-6.92-4.84s-6.76,4.61-6.92,4.84c-.23.61-.92.85-1.54.61s-.85-.92-.61-1.54c.08-.23,2.77-6.22,8.99-6.22s8.91,5.92,8.99,6.22c.23.61,0,1.23-.61,1.54.08.08-.08.08-.31.08Z" style="fill: #fff; stroke-width: 0px;"/>
                  <path d="m286.35,134.65c-.23,0-.54-.08-.77-.31-.46-.38-.46-1.08-.08-1.54l24.59-26.97c.38-.46,1.08-.46,1.54-.08s.46,1.08.08,1.54l-24.59,26.97c-.15.31-.54.38-.77.38Z" style="fill: #fff; stroke-width: 0px;"/>
                  <path d="m180.07,134.65c-.31,0-.61-.15-.85-.38l-24.67-26.97c-.38-.46-.38-1.15.08-1.54s1.15-.38,1.54.08l24.67,26.97c.38.46.38,1.15-.08,1.54-.08.23-.31.31-.69.31Z" style="fill: #fff; stroke-width: 0px;"/>
                </g>
              </g>
            </g>
          </g>
        </g>
        <path d="m267.66,235.59c-63.66,18.67-130.51-17.86-149.18-81.53C99.81,90.39,136.34,23.55,200.01,4.88c63.66-18.67,130.51,17.86,149.18,81.53,18.67,63.67-17.86,130.51-81.53,149.18Zm-4.27-15.72c-55.25,16.2-113.25-15.5-129.44-70.74-16.2-55.24,15.5-113.25,70.74-129.44,55.24-16.2,113.25,15.5,129.44,70.74,16.2,55.24-15.5,113.25-70.74,129.44Z" style="fill: #efaf3f; fill-rule: evenodd; stroke-width: 0px;"/>
        <path d="m237.01,10.51s-40.94-2.66-70.78,25.02c-1.2,1.11-3.09,1.04-4.2-.16-1.11-1.21-1.04-3.09.16-4.2C193.9,1.76,237.39,4.58,237.39,4.58c1.64.1,2.88,1.52,2.77,3.16-.11,1.64-1.52,2.88-3.16,2.77Z" style="fill: #ffe6ca; fill-rule: evenodd; stroke-width: 0px;"/>
        <ellipse cx="247.78" cy="7.96" rx="3.52" ry="3.67" transform="translate(197.74 250.76) rotate(-80.19)" style="fill: #ffe6ca; stroke-width: 0px;"/>
      </g>
    </g>
  </g>
</svg>