<?xml version="1.0" encoding="UTF-8"?>
<svg xmlns="http://www.w3.org/2000/svg" width="315" height="321.44" xmlns:xlink="http://www.w3.org/1999/xlink" viewBox="0 0 315 321.44">
  <defs>
    <clipPath id="clippath">
      <circle cx="158.17" cy="163.2" r="89.75" style="fill: none; stroke-width: 0px;"/>
    </clipPath>
    <clipPath id="clippath-1">
      <path d="m136.46,267.9H40v-105.6c0-53.07,43.39-96.46,96.46-96.46h139.54v105.67c0,53.07-43.39,96.46-96.46,96.46l-43.08-.08h0Z" style="fill: none; stroke-width: 0px;"/>
    </clipPath>
    <clipPath id="clippath-2">
      <path d="m136.46,267.9H40v-105.6c0-53.07,43.39-96.46,96.46-96.46h139.54v105.67c0,53.07-43.39,96.46-96.46,96.46l-43.08-.08h0Z" style="fill: none; stroke-width: 0px;"/>
    </clipPath>
    <clipPath id="clippath-3">
      <rect x="5.67" y="-22.09" width="349.28" height="349.28" style="fill: none; stroke-width: 0px;"/>
    </clipPath>
    <clipPath id="clippath-4">
      <path d="m136.46,267.9H40v-105.6c0-53.07,43.39-96.46,96.46-96.46h139.54v105.67c0,53.07-43.39,96.46-96.46,96.46l-43.08-.08h0Z" style="fill: none; stroke-width: 0px;"/>
    </clipPath>
    <clipPath id="clippath-5">
      <rect x="5.67" y="-22.09" width="349.28" height="349.28" style="fill: none; stroke-width: 0px;"/>
    </clipPath>
    <clipPath id="clippath-6">
      <path d="m136.46,267.9H40v-105.6c0-53.07,43.39-96.46,96.46-96.46h139.54v105.67c0,53.07-43.39,96.46-96.46,96.46l-43.08-.08h0Z" style="fill: none; stroke-width: 0px;"/>
    </clipPath>
  </defs>
  <g style="isolation: isolate;">
    <g id="_圖層_2" data-name="圖層 2">
      <g id="_第一cut" data-name="第一cut">
        <g id="activity_competition5">
          <g>
            <path d="m172.05,286.1c64.59,0,116.95-52.36,116.95-116.96,0-59.62-44.62-108.79-102.29-116.01v-5.82c0-.28-.06-.55-.08-.83,5.07-4.2,8.31-10.54,8.31-17.64,0-12.64-10.25-22.89-22.89-22.89s-22.89,10.25-22.89,22.89c0,5.02,1.63,9.65,4.37,13.42-.04.09-.08.17-.12.26,1.16,1.55,2.53,2.93,4.03,4.15-.01.22-.07.42-.07.65v5.82c-57.66,7.22-102.29,56.39-102.29,116.01,0,64.59,52.36,116.96,116.96,116.96Zm0-274.34c9.43,0,17.08,7.65,17.08,17.08,0,2.95-.75,5.72-2.06,8.14-.07-.06-.13-.12-.19-.17-.74,1.41-1.68,2.69-2.77,3.83-1.82-2.01-4.43-3.29-7.36-3.29h-9.4c-3,0-5.66,1.35-7.49,3.45-3.02-3.08-4.89-7.3-4.89-11.96,0-9.43,7.65-17.08,17.08-17.08Z" style="fill: #e28a2b; mix-blend-mode: multiply; opacity: .19; stroke-width: 0px;"/>
            <g>
              <path d="m158.17,61.83c-55.99,0-101.37,45.39-101.37,101.37s45.39,101.37,101.37,101.37,101.37-45.39,101.37-101.37-45.39-101.37-101.37-101.37Z" style="fill: #ffefd2; stroke-width: 0px;"/>
              <g>
                <path d="m158.17,46.24c-64.59,0-116.96,52.36-116.96,116.96s52.36,116.96,116.96,116.96,116.96-52.36,116.96-116.96-52.36-116.96-116.96-116.96Zm0,216.01c-54.71,0-99.06-44.35-99.06-99.06s44.35-99.06,99.06-99.06,99.06,44.35,99.06,99.06-44.35,99.06-99.06,99.06Z" style="fill: #efaf3f; stroke-width: 0px;"/>
                <path d="m158.17,55.14c-59.68,0-108.06,48.38-108.06,108.06s48.38,108.06,108.06,108.06,108.06-48.38,108.06-108.06-48.38-108.06-108.06-108.06Zm0,207.12c-54.71,0-99.06-44.35-99.06-99.06s44.35-99.06,99.06-99.06,99.06,44.35,99.06,99.06-44.35,99.06-99.06,99.06Z" style="fill: #e28a2b; stroke-width: 0px;"/>
                <g style="clip-path: url(#clippath);">
                  <g style="clip-path: url(#clippath-1);">
                    <rect x="5.67" y="-22.09" width="349.28" height="349.28" style="fill: #b4deee; stroke-width: 0px;"/>
                  </g>
                  <g style="clip-path: url(#clippath-2);">
                    <g style="clip-path: url(#clippath-3);">
                      <g>
                        <polygon points="180.39 152.55 170.33 -160.86 191.22 -160.86 180.39 152.55" style="fill: #fff; isolation: isolate; opacity: .22; stroke-width: 0px;"/>
                        <polygon points="180.39 152.55 82.39 -145.35 102.44 -151.19 180.39 152.55" style="fill: #fff; isolation: isolate; opacity: .22; stroke-width: 0px;"/>
                        <polygon points="180.39 152.55 2.45 -105.65 20.03 -116.94 180.39 152.55" style="fill: #fff; isolation: isolate; opacity: .22; stroke-width: 0px;"/>
                        <polygon points="180.39 152.55 -63.06 -45.05 -49.39 -60.87 180.39 152.55" style="fill: #fff; isolation: isolate; opacity: .22; stroke-width: 0px;"/>
                        <polygon points="180.39 152.55 -108.91 31.51 -100.23 12.55 180.39 152.55" style="fill: #fff; isolation: isolate; opacity: .22; stroke-width: 0px;"/>
                        <polygon points="180.39 152.55 -131.34 117.91 -128.34 97.25 180.39 152.55" style="fill: #fff; isolation: isolate; opacity: .22; stroke-width: 0px;"/>
                        <polygon points="180.39 152.55 -128.42 207.15 -131.41 186.42 180.39 152.55" style="fill: #fff; isolation: isolate; opacity: .22; stroke-width: 0px;"/>
                        <polygon points="180.39 152.55 -100.54 291.94 -109.22 272.89 180.39 152.55" style="fill: #fff; isolation: isolate; opacity: .22; stroke-width: 0px;"/>
                        <polygon points="180.39 152.55 -49.93 365.43 -63.6 349.61 180.39 152.55" style="fill: #fff; isolation: isolate; opacity: .22; stroke-width: 0px;"/>
                        <polygon points="180.39 152.55 19.34 421.65 1.75 410.36 180.39 152.55" style="fill: #fff; isolation: isolate; opacity: .22; stroke-width: 0px;"/>
                        <polygon points="180.39 152.55 101.67 456.13 81.62 450.22 180.39 152.55" style="fill: #fff; isolation: isolate; opacity: .22; stroke-width: 0px;"/>
                        <polygon points="180.39 152.55 190.37 465.96 169.48 465.96 180.39 152.55" style="fill: #fff; isolation: isolate; opacity: .22; stroke-width: 0px;"/>
                        <polygon points="180.39 152.55 278.3 450.45 258.26 456.36 180.39 152.55" style="fill: #fff; isolation: isolate; opacity: .22; stroke-width: 0px;"/>
                        <polygon points="180.39 152.55 358.25 410.82 340.66 422.11 180.39 152.55" style="fill: #fff; isolation: isolate; opacity: .22; stroke-width: 0px;"/>
                        <polygon points="180.39 152.55 423.84 350.23 410.09 365.97 180.39 152.55" style="fill: #fff; isolation: isolate; opacity: .22; stroke-width: 0px;"/>
                        <polygon points="180.39 152.55 469.61 273.66 460.93 292.63 180.39 152.55" style="fill: #fff; isolation: isolate; opacity: .22; stroke-width: 0px;"/>
                        <polygon points="180.39 152.55 492.03 187.26 489.04 207.92 180.39 152.55" style="fill: #fff; isolation: isolate; opacity: .22; stroke-width: 0px;"/>
                        <polygon points="180.39 152.55 489.11 98.02 492.11 118.68 180.39 152.55" style="fill: #fff; isolation: isolate; opacity: .22; stroke-width: 0px;"/>
                        <polygon points="180.39 152.55 461.24 13.24 469.91 32.21 180.39 152.55" style="fill: #fff; isolation: isolate; opacity: .22; stroke-width: 0px;"/>
                        <polygon points="180.39 152.55 410.63 -60.26 424.3 -44.52 180.39 152.55" style="fill: #fff; isolation: isolate; opacity: .22; stroke-width: 0px;"/>
                        <polygon points="180.39 152.55 341.36 -116.55 358.94 -105.26 180.39 152.55" style="fill: #fff; isolation: isolate; opacity: .22; stroke-width: 0px;"/>
                        <polygon points="180.39 152.55 259.03 -150.96 279.07 -145.12 180.39 152.55" style="fill: #fff; isolation: isolate; opacity: .22; stroke-width: 0px;"/>
                      </g>
                    </g>
                  </g>
                  <g style="clip-path: url(#clippath-4);">
                    <g style="clip-path: url(#clippath-5);">
                      <g>
                        <g>
                          <g>
                            <g>
                              <path d="m78.78,95.18c-2.38.23-4.61.84-6.6,1.69,0-.38,0-.69-.08-1.08-.61-5.91-3.23-11.21-7.3-15.36,7.07-6.07,11.21-14.98,10.37-24.58-1.54-16.2-16.74-28.03-34.1-26.42-3.46.31-6.68,1.15-9.68,2.38.23-1.54.23-3.23.08-4.84C30.32,14,17.73,4.56,3.52,5.86c-14.21,1.31-24.88,12.9-23.73,25.88.54,5.68,3.23,10.67,7.22,14.36-11.21,5.45-18.43,16.05-17.36,27.49,1.38,15.44,17.36,26.57,35.79,25.11-.08,1.08,0,2.15.08,3.23,1.46,15.59,17.51,26.88,35.86,25.19,8.52-.77,16.05-4.22,21.5-9.22,3,6.3,10.52,10.37,18.82,9.6,10.29-.92,18.05-8.99,17.2-17.89-.77-8.91-9.83-15.36-20.12-14.44Z" style="fill: #fff; stroke-width: 0px;"/>
                              <path d="m459.85,5.17c6.14-5.38,9.68-12.98,8.99-20.97-1.31-14.44-15.9-24.81-32.49-23.27s-29.11,14.44-27.72,28.8c1.08,11.98,11.37,21.2,24.42,23.12-9.45,6.68-15.36,16.97-15.13,28.18-3.84.84-7.3,2.38-10.29,4.53-1.77-18.28-21.5-31.41-44.08-29.34-22.66,2.07-39.7,18.66-38.01,37.02.31,3.61,1.38,6.91,2.92,10.06-2.3,1-4.22,2.23-5.76,3.76-7.37-3.69-16.13-5.53-25.27-4.68-23.58,2.15-41.16,20.74-39.24,41.47,0,.15.08.38.08.54-5.3-1.84-11.21-2.61-17.28-2.07-17.51,1.61-31.18,13.52-33.41,27.95-1.31-.15-2.61-.15-3.92,0-3.84.38-7.3,1.77-10.37,3.99-1-9.37-10.67-16.05-21.73-15.05-2.07.15-4.07.61-5.91,1.31-4.38-10.75-14.13-17.89-24.81-16.9-13.52,1.23-23.27,14.98-21.81,30.72,1.46,15.74,13.59,27.49,27.03,26.26,6.6-.61,12.29-4.15,16.2-9.52,3.53,1.84,7.83,2.69,12.36,2.3,3.07-.31,5.91-1.15,8.37-2.38-.61,3.07-.84,6.3-.54,9.68,1.46,15.51,13.21,27.19,26.26,25.96,11.14-1,19.58-10.98,20.97-23.58,5.15,1.69,10.91,2.46,16.9,1.92,18.89-1.77,33.25-15.51,33.71-31.41,7.07,3.23,15.28,4.76,23.88,3.99,23.58-2.15,41.16-20.74,39.24-41.47-.38-3.84,8.29,1.23,6.76-2.15,3.84-.77,3.92-4.15,6.3-6.3,5.91,1.92,6.14-4.3,12.98-4.92,11.75-1.08,21.96-6.07,28.88-13.13,3,10.67,14.36,17.97,27.19,16.74,9.22-.84,16.9-5.91,20.89-12.83,4.3,1,8.83,1.31,13.52.84,21.43-2,37.4-19.05,35.71-38.09-1.54-17.2-16.97-30.18-35.79-31.1Z" style="fill: #fff; stroke-width: 0px;"/>
                            </g>
                            <path d="m210.11,161.46c-2.61.23-5.07.92-7.3,2.07.31-2.3.31-4.61.08-7.07-1.61-17.82-17.2-31.03-34.79-29.41-11.37,1.08-20.74,7.99-25.57,17.66-2.69-4.15-7.37-6.99-12.67-7.37,1-3.3,1.46-6.84,1.08-10.44-.38-4.15-1.69-7.99-3.69-11.37,6.14-3.61,9.98-9.91,9.37-16.67-.92-9.83-10.83-16.97-22.19-15.97-11.29,1.08-19.81,9.83-18.89,19.66-6.37,1.46-11.83,4.92-15.82,9.6-6.91-4.61-15.9-6.99-25.42-6.14-11.44,1.08-21.27,6.6-27.26,14.44.54-2.92.77-5.91.46-8.99-1.69-19.12-19.97-33.02-40.86-31.33.69-2,.92-4.07.77-6.22-.38-4.45-2.76-8.37-6.53-11.44C-6.62,57.78,1.75,46.41.6,34.05-.78,18.77-16.14,7.63-33.73,9.24c-17.59,1.61-30.64,15.36-29.26,30.64.69,7.3,4.53,13.67,10.29,18.12-11.29,3.76-18.97,12.21-18.12,21.27,1,10.44,12.9,18.12,27.42,17.97-4.07,6.14-6.22,13.52-5.45,21.2.61,6.68,3.23,12.67,7.3,17.59-7.14,3.99-11.6,10.21-10.98,16.9.92,10.29,13.59,17.51,28.18,16.13,14.51-1.31,25.57-10.67,24.81-20.81,8.68-2.53,15.97-7.68,20.81-14.44-.38,2.23-.46,4.53-.23,6.84,1.61,17.28,19.05,29.8,39.09,27.95,11.67-1.08,21.66-6.84,27.57-14.9,4.99,2.76,10.91,4.15,17.13,3.53,2.61-.23,5.15-.84,7.45-1.69,1.31,8.22,8.99,14.05,17.74,13.29,3.76-.31,7.07-1.84,9.68-4.15,2.76,16.59,17.66,28.57,34.48,27.03,6.99-.61,13.21-3.53,18.05-7.83,1.84,9.52,11.06,16.2,21.43,15.28,11.06-1,19.2-10.29,18.28-20.66-1.08-10.44-10.75-18.05-21.81-17.05Z" style="fill: #fff; stroke-width: 0px;"/>
                            <path d="m515.07,38.43c-.77-8.52-5.38-15.74-11.98-20.04,9.37-5.61,15.05-13.9,14.28-22.66-1.31-14.28-19.51-24.27-40.63-22.35-21.12,1.92-37.17,15.13-35.86,29.41,1,11.14,12.29,19.66,27.11,21.96-3.76,5.07-5.76,11.6-5.07,18.43.46,4.92,2.15,9.29,4.76,13.06h-.15c-23.88,2.23-41.78,19.58-40.01,38.78.54,5.84,2.84,11.14,6.45,15.74-9.06,2.53-17.2,6.22-24.11,10.75,0-.46-.08-.92-.08-1.38-2.07-22.58-26.57-38.71-54.68-36.17-28.11,2.61-49.23,22.96-47.15,45.54,2.07,22.58,26.57,38.71,54.68,36.17,8.83-.84,16.97-3.38,23.88-7.22,0,1,.08,1.92.15,2.92,2.38,26.19,35.4,44.62,73.65,41.09,38.25-3.53,67.35-27.57,64.89-53.84-1.23-13.67-10.83-25.27-25.19-32.64,9.45-7.3,14.98-17.74,13.98-28.88-.84-8.99-5.84-16.82-13.36-22.35,9.37-4.76,15.44-15.05,14.44-26.34Z" style="fill: #fff; stroke-width: 0px;"/>
                          </g>
                          <path d="m290.82,1.64h-64.97c.92-.92,4.3-1.61,8.29-1.61.54,0,1.08,0,1.61.08-.69-1.23-1-2.69-1-4.22,0-4.68,3.61-8.52,7.99-8.52,2.76,0,5.15,1.46,6.6,3.69,1.23-.84,2.61-1.31,4.22-1.31,3.23,0,5.91,2,6.99,4.76,1.15-.46,2.38-.69,3.76-.69h.54c1.23-3.3,4.92-5.61,9.22-5.61,5.3,0,9.68,3.61,9.68,8.06,0,1.46-.46,2.76-1.23,3.92h1.23c3.23,0,6.07.61,7.07,1.46Z" style="fill: #fff; stroke-width: 0px;"/>
                        </g>
                        <g>
                          <path d="m525.67,209.84l-2.53,23.04-1.46,12.9-581.36-11.9,7.37-88.01C-30.27,117.61,3.37,88.88,40.46,71.99c18.97,17.82,73.03,59.6,81.02,65.97,6.07,4.92,50.15,22.96,85.25,38.4,13.75-12.98,31.95-34.41,36.25-38.4,3.69-3.46,25.96-28.65,42.39-35.86,87.17,45.77,173.95,93.46,240.3,107.75Z" style="fill: #6fc6de; stroke-width: 0px;"/>
                          <path d="m523.06,232.88l-1.46,12.9-581.36-11.9,7.37-88.01C-30.27,117.61,3.37,88.88,40.46,71.99l-7.68,17.97,14.13,17.74-41.7,20.89,70.96,5.53,29.87,36.33,84.94,21.66,15.74-15.67c13.75-12.98,31.95-34.41,36.25-38.4,3.69-3.46,25.96-28.65,42.39-35.86l-8.6,19.51,40.86,10.37-27.19,21.2,48.92,11.06,82.94,42.78,100.76,25.8Z" style="fill: #4fb2c3; stroke-width: 0px;"/>
                        </g>
                        <g>
                          <g>
                            <g>
                              <path d="m134.15,194.1s2.69-.61,3-4.07c.08-.77,0-1.61-.61-2.15s-1.61-.38-2.46-.31c1,0,1.61-1,2-1.84.31-.69.61-1.46.69-2.23.08-.77-.08-1.61-.61-2.23-.54-.61-1.38-.77-2.07-.38.84-.61,1.38-1.54,1.46-2.53.08-.84-.23-1.69-.84-2.23-.69-.46-1.84-.38-2.38.23.08-.92.15-1.84-.08-2.76-.23-.92-.69-1.77-1.54-2.15-1.23-.61-2.84.08-3.61,1.23-.77,1.15-.84,2.69-.61,4.07-.31-.69-1.92-.77-2.53-.31s-.84,1.31-.69,2.07c.15.77.54,1.46.84,2.07-1.08,0-1.84.46-2.3,1.46-.38,1-.31,2.07,0,3.07s1.15,1.84,1.84,2.69c-1.08,0-1.92.77-2.15,1.84-.23,1.08.23,2.23,1,3s1.92,1.38,3,1.69c.15.08,1,2.46,3.38,2.76,1.61.23,3.53-.23,4.53-1.54.23-.08.84-1.46.77-1.46Z" style="fill: #305422; stroke-width: 0px;"/>
                              <g>
                                <polygon points="129.32 177.97 128.32 200.39 130.01 200.55 129.32 177.97" style="fill: #501f10; stroke-width: 0px;"/>
                                <polygon points="129.32 193.94 134.92 190.03 129.62 195.09 129.32 193.94" style="fill: #501f10; stroke-width: 0px;"/>
                                <polygon points="128.93 192.18 123.94 189.57 128.86 193.25 128.93 192.18" style="fill: #501f10; stroke-width: 0px;"/>
                                <polygon points="129.24 185.73 133.92 182.12 129.39 186.42 129.24 185.73" style="fill: #501f10; stroke-width: 0px;"/>
                                <polygon points="129.32 184.65 125.55 181.5 129.01 185.03 129.32 184.65" style="fill: #501f10; stroke-width: 0px;"/>
                              </g>
                            </g>
                            <g>
                              <path d="m155.5,195.56s2.38-.54,2.61-3.61c.08-.69,0-1.38-.54-1.84-.54-.46-1.38-.38-2.15-.23.84,0,1.38-.84,1.77-1.61.31-.61.54-1.31.61-2,.08-.69-.08-1.46-.54-1.92-.46-.54-1.23-.69-1.84-.38.69-.54,1.23-1.38,1.31-2.23.08-.69-.15-1.46-.77-1.92-.54-.46-1.61-.38-2.07.23.08-.77.08-1.61-.08-2.38-.15-.77-.61-1.54-1.38-1.92-1.08-.54-2.53.08-3.15,1.08-.61,1-.69,2.38-.54,3.53-.31-.61-1.69-.69-2.23-.31s-.69,1.15-.61,1.84c.08.69.46,1.23.77,1.84-.92,0-1.61.38-2,1.31s-.31,1.84,0,2.69,1.08,1.61,1.61,2.38c-.92,0-1.69.69-1.84,1.61-.15.92.23,1.92.84,2.61.69.69,1.69,1.23,2.61,1.46.15,0,.84,2.15,3,2.46,1.38.23,3.07-.23,3.99-1.31.23-.15.69-1.38.61-1.38Z" style="fill: #305422; stroke-width: 0px;"/>
                              <g>
                                <polygon points="151.36 181.42 150.44 201.08 151.89 201.24 151.36 181.42" style="fill: #501f10; stroke-width: 0px;"/>
                                <polygon points="151.28 195.4 156.2 192.02 151.59 196.4 151.28 195.4" style="fill: #501f10; stroke-width: 0px;"/>
                                <polygon points="150.97 193.87 146.6 191.64 150.9 194.79 150.97 193.87" style="fill: #501f10; stroke-width: 0px;"/>
                                <polygon points="151.2 188.26 155.35 185.03 151.36 188.8 151.2 188.26" style="fill: #501f10; stroke-width: 0px;"/>
                                <polygon points="151.28 187.26 147.98 184.5 151.05 187.65 151.28 187.26" style="fill: #501f10; stroke-width: 0px;"/>
                              </g>
                            </g>
                            <g>
                              <path d="m111.27,193.4s1.61-.38,1.77-2.76c0-.54,0-1.08-.38-1.46s-.92-.31-1.46-.23c.61,0,1-.69,1.23-1.31.23-.46.38-1,.46-1.54s-.08-1.08-.38-1.46-.84-.54-1.23-.23c.46-.38.84-1.08.84-1.69.08-.54-.15-1.15-.54-1.46s-1.15-.31-1.38.15c0-.61.08-1.23-.08-1.84-.15-.61-.46-1.15-.92-1.46-.77-.38-1.69.08-2.15.84s-.46,1.84-.38,2.76c-.15-.46-1.15-.54-1.46-.23-.38.31-.46.92-.38,1.38.08.54.31,1,.54,1.46-.61,0-1.08.31-1.38,1-.23.69-.23,1.38,0,2.07s.69,1.23,1.08,1.84c-.61,0-1.15.54-1.31,1.23-.15.69.15,1.46.61,2,.46.54,1.15.92,1.77,1.15.08,0,.61,1.69,2,1.92,1,.15,2.07-.15,2.69-1,.15-.15.46-1.15.46-1.15Z" style="fill: #305422; stroke-width: 0px;"/>
                              <g>
                                <polygon points="108.43 182.5 107.81 197.71 108.81 197.78 108.43 182.5" style="fill: #501f10; stroke-width: 0px;"/>
                                <polygon points="108.35 193.33 111.73 190.64 108.58 194.1 108.35 193.33" style="fill: #501f10; stroke-width: 0px;"/>
                                <polygon points="108.2 192.1 105.2 190.33 108.12 192.79 108.2 192.1" style="fill: #501f10; stroke-width: 0px;"/>
                                <polygon points="108.35 187.8 111.11 185.34 108.43 188.18 108.35 187.8" style="fill: #501f10; stroke-width: 0px;"/>
                                <polygon points="108.43 187.03 106.12 184.88 108.2 187.26 108.43 187.03" style="fill: #501f10; stroke-width: 0px;"/>
                              </g>
                            </g>
                            <g>
                              <path d="m206.96,200.7s1.38-.38,1.54-2.3c0-.46,0-.92-.31-1.23-.31-.31-.84-.23-1.23-.15.46,0,.84-.54,1-1.08.15-.38.31-.84.38-1.31.08-.46-.08-.92-.31-1.23-.23-.31-.69-.46-1.08-.23.38-.31.69-.84.77-1.46,0-.46-.08-1-.46-1.23-.31-.31-.92-.23-1.15.15,0-.54.08-1.08-.08-1.54-.08-.54-.38-1-.77-1.23-.61-.38-1.46.08-1.84.69-.38.69-.38,1.54-.31,2.3-.15-.38-.92-.46-1.23-.15-.31.23-.38.77-.38,1.15.08.46.23.84.46,1.23-.54,0-.92.31-1.15.84-.23.54-.15,1.23,0,1.77s.61,1.08.92,1.54c-.54,0-1,.46-1.08,1.08-.08.61.15,1.23.46,1.69.38.46,1,.77,1.54.92.08,0,.46,1.38,1.69,1.61.84.15,1.77-.15,2.3-.84.08-.23.31-1,.31-1Z" style="fill: #305422; stroke-width: 0px;"/>
                              <g>
                                <polygon points="204.58 191.41 204.04 204.31 204.89 204.39 204.58 191.41" style="fill: #501f10; stroke-width: 0px;"/>
                                <polygon points="204.5 200.55 207.34 198.32 204.65 201.24 204.5 200.55" style="fill: #501f10; stroke-width: 0px;"/>
                                <polygon points="204.35 199.55 201.81 198.09 204.27 200.16 204.35 199.55" style="fill: #501f10; stroke-width: 0px;"/>
                                <polygon points="204.5 195.86 206.88 193.79 204.58 196.25 204.5 195.86" style="fill: #501f10; stroke-width: 0px;"/>
                                <polygon points="204.5 195.25 202.66 193.48 204.35 195.48 204.5 195.25" style="fill: #501f10; stroke-width: 0px;"/>
                              </g>
                            </g>
                            <g>
                              <path d="m217.71,201.08s1.23-.31,1.38-1.84c0-.31,0-.69-.31-.92s-.77-.15-1.15-.15c.46,0,.77-.46.92-.84.15-.31.31-.69.31-1,0-.38-.08-.77-.31-1s-.61-.38-1-.15c.38-.23.61-.69.69-1.15,0-.38-.08-.77-.38-1s-.84-.15-1.08.08c0-.38.08-.84-.08-1.23-.08-.38-.31-.77-.69-1-.61-.31-1.31,0-1.69.54s-.38,1.23-.31,1.84c-.15-.31-.84-.38-1.15-.15s-.38.61-.31.92.23.61.38.92c-.46,0-.84.23-1.08.61-.15.46-.15.92,0,1.38s.54.84.84,1.23c-.54,0-.92.38-1,.84-.08.46.08,1,.46,1.31.38.38.92.61,1.38.77.08,0,.46,1.08,1.61,1.23.77.08,1.61-.15,2.15-.69.15.08.46-.54.38-.54Z" style="fill: #305422; stroke-width: 0px;"/>
                              <g>
                                <polygon points="215.48 193.87 215.02 203.93 215.79 204 215.48 193.87" style="fill: #501f10; stroke-width: 0px;"/>
                                <polygon points="215.48 201.01 218.09 199.24 215.64 201.55 215.48 201.01" style="fill: #501f10; stroke-width: 0px;"/>
                                <polygon points="215.33 200.24 213.03 199.09 215.25 200.7 215.33 200.24" style="fill: #501f10; stroke-width: 0px;"/>
                                <polygon points="215.48 197.32 217.63 195.71 215.56 197.63 215.48 197.32" style="fill: #501f10; stroke-width: 0px;"/>
                                <polygon points="215.48 196.86 213.72 195.4 215.33 197.01 215.48 196.86" style="fill: #501f10; stroke-width: 0px;"/>
                              </g>
                            </g>
                          </g>
                          <g>
                            <path d="m486.58,214.45v2.84l.69,48.77-524.61,7.99v-87.47s250.67,20.89,523.92,27.88Z" style="fill: #3d7f31; stroke-width: 0px;"/>
                            <path d="m486.58,214.45v2.84c-110.67.54-261.04-4.68-303.81-6.91-51.84-2.69-183.93-16.51-220.1-20.43v-3.3c0-.08,250.67,20.81,523.92,27.8Z" style="fill: #49963a; stroke-width: 0px;"/>
                          </g>
                          <g>
                            <g>
                              <path d="m41.54,206.69c0,1.31-13.82,2.38-30.87,2.38s-30.87-1.08-30.87-2.38,13.82-2.38,30.87-2.38,30.87,1.08,30.87,2.38Z" style="fill: #326928; stroke-width: 0px;"/>
                              <g>
                                <g>
                                  <path d="m5.13,190.18c.15,0-.92,3.46-1.23,3.84-2.3,3.23-6.76,4.76-10.67,4.45-5.91-.38-8.22-5.99-8.68-6.07-2.61-.38-5.53-1.69-7.53-3.38-1.92-1.77-3.23-4.38-2.92-6.99.31-2.61,2.15-4.61,4.76-4.84-1.61-1.92-3.84-3.76-4.84-6.14-1-2.3-1.38-4.99-.54-7.45.84-2.38,2.69-3.69,5.22-3.92-1-1.54-2.07-3.07-2.46-4.84s-.08-3.84,1.31-5.07c1.38-1.23,5.22-1.31,6.07.31-.61-2.46-.84-5.15-.23-7.6.23-.77.46-1.54.84-2.23,1.61-2.92,5.38-4.92,8.52-3.69,2.07.84,3.46,2.76,4.07,4.92.69,2.07.69,4.3.69,6.53,1-1.69,3.99-2.07,5.61-1,1.69,1.08,2.46,3.15,2.46,5.07,0,2.46-1.15,4.84-3,6.37,1.61-1,3.69-.77,5.07.54,1.38,1.31,1.92,3.3,1.92,5.15,0,.54-.08,1.08-.15,1.61-.23,1.31-.69,2.61-1.15,3.92-.77,2-1.92,4.15-3.84,4.68,1.84-.38,3.76-.69,5.22.38,1.46,1.08,1.77,3.15,1.77,4.92,0,8.52-6.3,10.52-6.3,10.52Z" style="fill: #305422; stroke-width: 0px;"/>
                                  <path d="m9.51,165.83c-.31-1.15-.92-2.23-1.69-3.15-2.15-2.61-5.45-4.92-8.75-4.22,1.84-1.54,2.38-4.45,1.23-6.53-1.23-2.07-3.92-3.23-6.14-2.3,1.08-2.23.31-4.99-1.46-6.68-1.77-1.61-4.53-2.15-6.84-1.46-.84.23-1.61.61-2.38,1.08.23-.77.46-1.54.84-2.23,1.61-2.92,5.38-4.92,8.52-3.69,2.07.84,3.46,2.76,4.07,4.92.69,2.07.69,4.3.69,6.53,1-1.69,3.99-2.07,5.61-1,1.69,1.08,2.46,3.15,2.46,5.07,0,2.46-1.15,4.84-3,6.37,1.61-1,3.69-.77,5.07.54,1.38,1.31,1.92,3.3,1.92,5.15,0,.54-.08,1.08-.15,1.61Z" style="fill: #1f3d15; stroke-width: 0px;"/>
                                  <g>
                                    <polygon points="-6.46 190.56 6.21 180.27 -5.54 193.25 -6.46 190.56" style="fill: #501f10; stroke-width: 0px;"/>
                                    <polygon points="-8.15 170.98 2.45 161.53 -7.69 172.52 -8.15 170.98" style="fill: #501f10; stroke-width: 0px;"/>
                                  </g>
                                </g>
                                <g>
                                  <path d="m46.91,181.81c-.23,7.14-5.84,8.68-5.84,8.68.08,0-.92,2.92-1.15,3.23-2.07,2.69-5.99,3.84-9.37,3.53-5.07-.46-6.99-5.3-7.37-5.38-2.23-.38-4.76-1.54-6.45-3.07s-2.69-3.84-2.38-5.99c.31-2.23,2-3.92,4.3-3.99-1.38-1.69-3.23-3.3-4.07-5.3-.77-2-1.08-4.3-.31-6.37.77-2,2.38-3.07,4.61-3.15-.84-1.31-1.69-2.69-2-4.22-.31-1.54,0-3.3,1.23-4.3,1.23-1,4.53-1,5.3.46-.54-2.23-.61-4.61.08-6.76.15-.54.38-1.08.69-1.61,1.46-2.46,4.76-4.07,7.45-2.92,1.77.77,2.92,2.46,3.46,4.3.54,1.77.46,3.69.46,5.61.92-1.38,3.53-1.69,4.92-.69,1.38.92,2.07,2.76,2,4.38-.08,2.07-1.15,4.07-2.76,5.38,1.38-.84,3.23-.54,4.45.61,1.15,1.15,1.61,2.84,1.54,4.45-.08,1.15-.38,2.3-.77,3.38-.15.46-.31.84-.54,1.31-.69,1.69-1.77,3.53-3.53,3.92,1.61-.23,3.38-.46,4.61.46,1.23.77,1.46,2.46,1.46,4.07Z" style="fill: #305422; stroke-width: 0px;"/>
                                  <path d="m45.68,168.45c-.08,1.15-.38,2.3-.77,3.38-.31-.61-.69-1.23-1.15-1.77-1.61-1.77-4.3-3.15-6.76-2.84.69-1.23,1.38-2.53,1.61-3.99.23-1.38,0-3-1-3.99s-2.69-1.46-3.69-.46c1-2.46.61-5.38-1-7.45-1.54-2.07-4.22-3.3-6.84-3.15-.92.08-1.84.31-2.61.69.15-.54.38-1.08.69-1.61,1.46-2.46,4.76-4.07,7.45-2.92,1.77.77,2.92,2.46,3.46,4.3.54,1.77.46,3.69.46,5.61.92-1.38,3.53-1.69,4.92-.69,1.38.92,2.07,2.76,2,4.38-.08,2.07-1.15,4.07-2.76,5.38,1.38-.84,3.23-.54,4.45.61,1.15,1.23,1.61,2.92,1.54,4.53Z" style="fill: #1f3d15; stroke-width: 0px;"/>
                                  <g>
                                    <polygon points="29.86 158.92 29.48 206.38 32.78 206.46 29.86 158.92" style="fill: #501f10; stroke-width: 0px;"/>
                                    <polygon points="31.09 191.1 20.65 184.57 31.01 193.17 31.09 191.1" style="fill: #501f10; stroke-width: 0px;"/>
                                    <polygon points="31.25 186.65 41.54 179.81 31.17 188.49 31.25 186.65" style="fill: #501f10; stroke-width: 0px;"/>
                                    <polygon points="30.32 177.43 20.34 168.91 30.32 175.82 30.32 177.43" style="fill: #501f10; stroke-width: 0px;"/>
                                  </g>
                                </g>
                              </g>
                            </g>
                            <g>
                              <path d="m119.56,215.29c0,1.69-20.58,3.07-46,3.07s-46-1.38-46-3.07,20.58-3.07,46-3.07,46,1.31,46,3.07Z" style="fill: #326928; stroke-width: 0px;"/>
                              <g>
                                <g>
                                  <rect x="89.38" y="205.85" width="21.12" height="1.92" style="fill: #501f10; stroke-width: 0px;"/>
                                  <rect x="105.05" y="207.38" width="1.08" height="6.84" style="fill: #501f10; stroke-width: 0px;"/>
                                  <rect x="96.98" y="207.38" width="1.15" height="6.84" style="fill: #501f10; stroke-width: 0px;"/>
                                </g>
                                <g>
                                  <g>
                                    <g>
                                      <rect x="38.92" y="192.18" width="22.04" height="23.12" style="fill: #59370a; stroke-width: 0px;"/>
                                      <rect x="61.04" y="192.18" width="34.79" height="23.12" style="fill: #825423; stroke-width: 0px;"/>
                                    </g>
                                    <polygon points="100.21 194.71 36.24 194.71 46.91 176.28 90.3 176.28 100.21 194.71" style="fill: #fdedbb; stroke-width: 0px;"/>
                                  </g>
                                  <g>
                                    <g>
                                      <g>
                                        <rect x="41.54" y="200.24" width="2.46" height="10.91" style="fill: #99f1db; stroke-width: 0px;"/>
                                        <rect x="45.15" y="200.24" width="2.46" height="10.91" style="fill: #99f1db; stroke-width: 0px;"/>
                                      </g>
                                      <g>
                                        <rect x="51.44" y="200.24" width="2.46" height="10.91" style="fill: #99f1db; stroke-width: 0px;"/>
                                        <rect x="55.05" y="200.24" width="2.46" height="10.91" style="fill: #99f1db; stroke-width: 0px;"/>
                                      </g>
                                    </g>
                                    <g>
                                      <g>
                                        <rect x="65.5" y="200.24" width="2.46" height="10.91" style="fill: #99f1db; stroke-width: 0px;"/>
                                        <rect x="69.11" y="200.24" width="2.46" height="10.91" style="fill: #99f1db; stroke-width: 0px;"/>
                                      </g>
                                      <g>
                                        <rect x="75.4" y="200.24" width="2.46" height="10.91" style="fill: #99f1db; stroke-width: 0px;"/>
                                        <rect x="79.01" y="200.24" width="2.46" height="10.91" style="fill: #99f1db; stroke-width: 0px;"/>
                                      </g>
                                    </g>
                                    <rect x="84.85" y="200.24" width="8.29" height="15.05" style="fill: #59370a; stroke-width: 0px;"/>
                                    <polygon points="59.43 194.86 48.6 177.51 38.85 194.71 59.43 194.86" style="fill: #59370a; stroke-width: 0px;"/>
                                  </g>
                                </g>
                              </g>
                            </g>
                            <g>
                              <path d="m38.69,218.9c.69-.61.84-1.84.31-2.61-.54-.77-1.69-.77-2.3-.08.54-1.31-.08-3.46-1-4.38-1-.92-2.53-1-3.61-.23-.84-1.23-3.07-1.23-4.22-.31-.23-1.38-1.77-2.46-3.07-2.23-1.23.23-2.23,1.69-2.07,3.15-.46-.38-1.08-.77-1.61-.46-.46.23-.84.84-.84,1.46-.92-.54-1.77-1.15-2.76-1-1,.15-2,.92-2.38,2-.38,1.08,0,2.46.84,3-.92-.08-2.15,1-1.84,2l24.58-.31Z" style="fill: #305422; stroke-width: 0px;"/>
                              <path d="m1.6,231.96c.61-1,.46-2.38-.38-3.15-.84-.84-2.23-.92-3.15-.31.46-.61-.15-2.15-.61-2.76-.46-.61-1.31-.92-2.07-.69.84-1.54,0-4.07-1.61-4.84-1.61-.77-3.76,0-4.45,1.61-1.08-1.15-3.15-1.38-3.99-.08-.77-.84-1.15-2.3-2.07-2.84-1-.54-2.23-.69-3.23-.15-1,.54-1.46,1.92-.84,2.84-.77-.69-2-.23-2.92.08-1,.31-1.69,1.23-1.92,2.23-.84-1.15-2.76-1.77-4.15-1.31-1.38.38-2.38,1.77-2.46,3.23,0,1.46.92,2.84,2.3,3.3-3.07-.54-4.45,2.46-3.61,3.99l35.17-1.15Z" style="fill: #305422; stroke-width: 0px;"/>
                              <path d="m194.59,214.14c.31-.69.31-1.54-.15-2.07-.46-.61-1.23-.92-1.92-.77.23-1.15-.69-2.69-1.77-3.07-1.15-.38-2.53.08-3.07,1.15-1-.77-1.84-2-3.15-2.15-1.23-.15-2.69.61-2.76,1.84-.38-.46-.92-.92-1.46-.69-.54.31-.77.92-.61,1.54-1.08-.54-2.69-.31-3.46.69-.77.92-.77,2.38,0,3.3l18.35.23Z" style="fill: #305422; stroke-width: 0px;"/>
                            </g>
                          </g>
                        </g>
                        <g>
                          <g>
                            <g>
                              <path d="m243.05,214.68c.08,0-.84,2.92-1.08,3.3-2,2.76-5.76,4.07-9.14,3.84-5.07-.38-7.07-5.15-7.37-5.22-2.23-.31-4.76-1.46-6.45-2.92-1.69-1.46-2.76-3.76-2.46-5.99.31-2.23,1.84-3.99,4.07-4.15-1.38-1.69-3.3-3.23-4.15-5.22s-1.15-4.3-.46-6.37c.69-2.07,2.3-3.15,4.45-3.3-.84-1.31-1.77-2.69-2.15-4.15-.38-1.54-.08-3.3,1.08-4.38s4.45-1.08,5.22.31c-.54-2.3-.77-4.76-.08-6.99.15-.54.38-1,.61-1.46,1.38-2.53,4.61-4.22,7.3-3.15,1.77.69,2.92,2.38,3.53,4.22.54,1.77.61,3.69.61,5.61.92-1.46,3.38-1.77,4.84-.84s2.07,2.69,2.07,4.38c0,2.07-1,4.15-2.61,5.45,1.38-.84,3.23-.61,4.38.46,1.15,1.15,1.69,2.84,1.61,4.45,0,.38-.08.77-.08,1.08-.15,1.23-.61,2.46-1,3.61-.61,1.69-1.61,3.53-3.3,4.07,1.54-.31,3.23-.54,4.45.38,1.23.92,1.54,2.69,1.54,4.22,0,7.07-5.45,8.75-5.45,8.75Z" style="fill: #305422; stroke-width: 0px;"/>
                              <path d="m245.36,187.95c1.15,1.15,1.69,2.84,1.61,4.45,0,.38-.08.77-.08,1.08-.15-.15-.31-.38-.46-.54-1.92-1.84-5.15-3.23-7.68-2.46.84-1.38,1.54-3,1.54-4.61s-.54-3.38-1.84-4.38c-1.23-1.08-3-2.15-4.3-1.15-.15-2.46-.54-5.15-2.38-6.76-1.54-1.38-3.92-1.54-5.84-.84-.46.15-.84.31-1.31.54.15-.54.38-1,.61-1.46,1.38-2.53,4.61-4.22,7.3-3.15,1.77.69,2.92,2.38,3.53,4.22.54,1.77.61,3.69.61,5.61.92-1.46,3.38-1.77,4.84-.84,1.46.92,2.07,2.69,2.07,4.38,0,2.07-1,4.15-2.61,5.45,1.31-.92,3.15-.61,4.38.46Z" style="fill: #1f3d15; stroke-width: 0px;"/>
                              <g>
                                <polygon points="230.69 182.27 232.07 228.5 235.53 228.5 230.69 182.27" style="fill: #501f10; stroke-width: 0px;"/>
                                <polygon points="233.15 215.06 243.98 206.15 233.91 217.29 233.15 215.06" style="fill: #501f10; stroke-width: 0px;"/>
                                <polygon points="232.07 211.45 221.4 206.92 232.07 213.6 232.07 211.45" style="fill: #501f10; stroke-width: 0px;"/>
                                <polygon points="231.69 198.24 240.75 190.1 232.07 199.55 231.69 198.24" style="fill: #501f10; stroke-width: 0px;"/>
                                <polygon points="231.69 195.94 223.47 190.1 231.15 196.78 231.69 195.94" style="fill: #501f10; stroke-width: 0px;"/>
                              </g>
                            </g>
                            <g>
                              <path d="m277.92,209.61c.08,0-.84,3-1.08,3.38-2,2.84-5.91,4.15-9.37,3.92-5.15-.38-7.22-5.3-7.6-5.38-2.3-.31-4.84-1.46-6.6-3-1.69-1.54-2.84-3.84-2.53-6.14.31-2.3,1.92-4.07,4.22-4.3-1.46-1.69-3.38-3.3-4.22-5.38-.84-2.07-1.23-4.38-.46-6.53.69-2.07,2.3-3.23,4.53-3.38-.92-1.31-1.84-2.69-2.15-4.3-.38-1.54-.08-3.38,1.15-4.45,1.23-1.08,4.53-1.15,5.3.31-.69-2.84-.84-5.91.54-8.52,0-.08.08-.08.08-.15,1.38-2.61,4.68-4.3,7.45-3.23,1.77.69,3,2.46,3.61,4.3s.61,3.84.61,5.76c.92-1.46,3.46-1.84,4.92-.84,1.46.92,2.15,2.76,2.15,4.45,0,2.15-1,4.22-2.69,5.61,1.38-.92,3.3-.61,4.45.54,1.23,1.15,1.69,2.92,1.69,4.53,0,.77-.15,1.46-.31,2.23-.23.92-.54,1.77-.84,2.61-.69,1.77-1.69,3.69-3.38,4.15,1.61-.31,3.38-.61,4.61.38,1.31,1,1.61,2.76,1.54,4.38,0,7.3-5.61,9.06-5.61,9.06Z" style="fill: #305422; stroke-width: 0px;"/>
                              <path d="m281.91,186.8c0,.77-.15,1.46-.31,2.23-.54-.77-1.15-1.46-1.92-2.07-1.92-1.38-4.68-1.84-6.91-1.15.61-1.46,1.15-2.92,1.31-4.53.15-1.54-.08-3.23-1.15-4.45-1-1.23-2.76-2.15-4.15-1.46.69-3.15-.77-6.68-3.53-8.37-1.69-1.08-3.76-1.38-5.68-1.08,0-.08.08-.08.08-.15,1.38-2.61,4.68-4.3,7.45-3.23,1.77.69,3,2.46,3.61,4.3.61,1.84.61,3.84.61,5.76.92-1.46,3.46-1.84,4.92-.84,1.46.92,2.15,2.76,2.15,4.45,0,2.15-1,4.22-2.69,5.61,1.38-.92,3.3-.61,4.45.54,1.31,1.08,1.84,2.76,1.77,4.45Z" style="fill: #1f3d15; stroke-width: 0px;"/>
                              <g>
                                <polygon points="265.71 177.43 266.71 226.35 270.09 226.35 265.71 177.43" style="fill: #501f10; stroke-width: 0px;"/>
                                <polygon points="267.86 210.53 257.26 204.16 267.86 212.76 267.86 210.53" style="fill: #501f10; stroke-width: 0px;"/>
                                <polygon points="267.86 206 278.07 198.63 267.86 207.84 267.86 206" style="fill: #501f10; stroke-width: 0px;"/>
                                <polygon points="266.71 196.48 256.49 188.03 266.71 194.86 266.71 196.48" style="fill: #501f10; stroke-width: 0px;"/>
                              </g>
                            </g>
                          </g>
                          <g>
                            <path d="m486.58,225.74v101.45H-37.34v-80.64c183.39-12.83,350.35-35.25,523.92-20.81Z" style="fill: #85b057; stroke-width: 0px;"/>
                            <path d="m486.58,225.74v18.59c-44.77-3.92-123.95-10.14-186.54-10.52-80.02-.46-266.03,12.13-337.37,17.43v-4.76c183.39-12.75,350.35-35.17,523.92-20.74Z" style="fill: #b2ce6f; stroke-width: 0px;"/>
                          </g>
                          <g>
                            <ellipse cx="266.78" cy="251.08" rx="4.22" ry="1.08" style="fill: #769c4d; stroke-width: 0px;"/>
                            <ellipse cx="291.9" cy="261.06" rx="4.22" ry="1.08" style="fill: #769c4d; stroke-width: 0px;"/>
                            <ellipse cx="279.3" cy="288.56" rx="4.22" ry="1.08" style="fill: #769c4d; stroke-width: 0px;"/>
                            <ellipse cx="208.34" cy="246.4" rx="3.23" ry=".84" style="fill: #769c4d; stroke-width: 0px;"/>
                            <ellipse cx="121.48" cy="274.89" rx="5.22" ry="1.38" style="fill: #769c4d; stroke-width: 0px;"/>
                            <ellipse cx="173.63" cy="287.41" rx="5.99" ry="1.54" style="fill: #769c4d; stroke-width: 0px;"/>
                            <ellipse cx="85" cy="285.79" rx="3.15" ry=".84" style="fill: #769c4d; stroke-width: 0px;"/>
                            <ellipse cx="222.86" cy="293.4" rx="5.76" ry="1.54" style="fill: #769c4d; stroke-width: 0px;"/>
                            <ellipse cx="310.02" cy="239.48" rx="3.15" ry=".84" style="fill: #769c4d; stroke-width: 0px;"/>
                            <ellipse cx="126.47" cy="245.47" rx="2" ry=".54" style="fill: #769c4d; stroke-width: 0px;"/>
                            <ellipse cx="103.74" cy="257.61" rx="4.22" ry="1.08" style="fill: #769c4d; stroke-width: 0px;"/>
                            <ellipse cx="67.88" cy="253.23" rx="4.22" ry="1.08" style="fill: #769c4d; stroke-width: 0px;"/>
                            <ellipse cx="163.34" cy="245.47" rx="3.3" ry=".84" style="fill: #769c4d; stroke-width: 0px;"/>
                            <ellipse cx="242.29" cy="271.28" rx="4.22" ry="1.08" style="fill: #769c4d; stroke-width: 0px;"/>
                          </g>
                          <g>
                            <ellipse cx="326.07" cy="229.04" rx="36.25" ry="3.99" style="fill: #8dbb41; isolation: isolate; opacity: .47; stroke-width: 0px;"/>
                            <g>
                              <path d="m372.84,171.98c-.77,2.38-1.92,4.53-3.46,6.3-4.22,5.15-10.75,7.91-16.9,6.45,1,3.69-.31,8.06-3.15,10.21-2.84,2.23-8.75,2-11.52-.31-4.38,5.91-11.75,8.75-18.43,7.22-6.68-1.61-12.29-7.6-14.13-14.98-5.61,4.3-14.36,2.07-17.74-4.53-3.38-6.6-.69-16.2,5.45-19.43-6.84-.77-15.21-11.06-14.9-18.74.31-7.68,5.45-13.67,12.29-13.75-3.53-3.61-3.99-10.21-1.15-14.51,2.84-4.22,8.91-5.76,12.9-3,.31-4.38,1.69-8.52,3.84-12.13,3.38-5.53,8.6-9.68,14.44-10.98,9.68-2.15,19.2,6.45,23.58,16.36,3.53-3,8.91-2.69,12.13.69,3.23,3.38,3.69,9.45,1.23,13.59,5.53.31,11.75,2.84,13.52,8.68,1.08,3.53.15,7.45-1.54,10.6s-2.53,5.53-4.99,7.99c7.6,4.45,11.37,15.44,8.52,24.27Z" style="fill: #305422; stroke-width: 0px;"/>
                              <path d="m372.84,171.98c-.77,2.38-1.92,4.53-3.46,6.3.15-3-.31-6.07-1.23-8.91-2.15-6.53-6.45-13.36-12.67-16.36,1.92-3.07,3.84-6.22,4.84-9.75.92-3.53.77-7.45-1.31-10.44s-5.99-5.07-9.14-3.38c.84-2.38,1.54-4.84,1.38-7.37-.15-2.53-1.31-5.07-3.46-6.37-1.92-1.15-4.38-1.15-6.53-.38s-3.53,1.92-5.15,3.53c-.54-8.91-7.3-17.13-15.9-19.35-4.68-1.23-9.75-.61-14.13,1.38,3.38-5.53,8.6-9.68,14.44-10.98,9.68-2.15,19.2,6.45,23.58,16.36,3.53-3,8.91-2.69,12.13.69,3.23,3.38,3.69,9.45,1.23,13.59,5.53.31,11.75,2.84,13.52,8.68,1.08,3.53.15,7.45-1.54,10.6s-2.53,5.53-4.99,7.99c7.45,4.38,11.21,15.36,8.37,24.19Z" style="fill: #1f3d15; stroke-width: 0px;"/>
                              <g>
                                <path d="m324.46,191.64c-.69-1.31-22.66-16.67-22.66-16.67l22.81,11.83-.15,4.84Z" style="fill: #501f10; stroke-width: 0px;"/>
                                <path d="m324.46,157.62c-.54-1.23-15.59-17.74-15.59-17.74l15.67,13.13-.08,4.61Z" style="fill: #501f10; stroke-width: 0px;"/>
                              </g>
                            </g>
                          </g>
                        </g>
                        <path d="m486.58,327.19H-37.34v-29.57c192.38-17.05,299.97,21.58,523.92,17.2v12.36Z" style="fill: #769c4d; stroke-width: 0px;"/>
                      </g>
                    </g>
                  </g>
                  <g style="clip-path: url(#clippath-6);">
                    <g>
                      <ellipse cx="180.77" cy="259.22" rx="143.77" ry="3.69" style="fill: #8dbb41; isolation: isolate; opacity: .47; stroke-width: 0px;"/>
                      <g>
                        <path d="m101.75,119.22s-3.3-2.23-8.14-.54c-4.84,1.77-5.91,8.22-4.76,13.52,1.23,5.3-5.45,23.35-5.45,23.35,0,0,3.46,4.84,15.59,3,0,0,9.06-16.43,8.37-28.18-.69-11.75-5.61-11.14-5.61-11.14Z" style="fill: #0e3944; stroke-width: 0px;"/>
                        <path d="m105.59,139.57c4.53-1.46,7.37,2.3,9.91,9.37,2.61,7.07,3.46,7.76,3.46,7.76l10.06,6.45-.84,3.76s-9.6-3.76-11.9-6.14c-2.3-2.38-8.99-14.44-8.99-14.44l-1.69-6.76Z" style="fill: #ef6e4b; stroke-width: 0px;"/>
                        <path d="m83.39,185.11s-2,9.98-1.61,25.04c0,0-7.76,11.44-1.38,44.24h3.38s2.76-27.88,4.84-35.4c2.07-7.53,9.91-9.83,10.29-32.79l-15.51-1.08Z" style="fill: #ff8b66; stroke-width: 0px;"/>
                        <path d="m67.95,214.52c-1.92-6.45-6.99-17.28-19.89-31.87,0,0-.77-.38-1.84.23-1.08.69-1.08,1.46-1.08,1.46,0,0,6.45,14.13,10.6,24.42,1.38,3.46,4.76,5.76,8.52,5.76h3.69Z" style="fill: #ff8b66; stroke-width: 0px;"/>
                        <path d="m91.45,226.97s.08,4.84-3.15,4.92c-4.45.15-4.61-4.76-9.68-4.61s-15.44,1.46-18.82-6.45c-1.69-4.07.61-9.29-4.92-13.29-5.53-3.92-2.84-8.37,0-10.75s-1.23-4.92,1.77-6.14c.69-.31,1.38-.23,2.07,0,.38.15.77.31,1.08.54,1.54,1.08,2.69,2.84,2.69,2.84,8.37-22.89,23.27-25.96,23.27-25.96l14.75,5.07c.38,35.71-9.06,53.84-9.06,53.84Z" style="fill: #164353; stroke-width: 0px;"/>
                        <path d="m105.59,139.57s-3.46,1.15-8.29.38c-4.92-.77-6.45-3.84-9.91-1.84-5.15,3-2.76,13.21-1.46,18.51.46,2,1.08,7.14-.08,11.44,0,0,6.84,5.38,14.75,5.07l4.3-9.29c-.08,0,9.29-11.14.69-24.27Z" style="fill: #fff; stroke-width: 0px;"/>
                        <path d="m96.83,130.97s.54,4.84-1.23,9.22c0,0,2.53,3.76,4.99,1.31,0,0,.23-4.45,3-9.45,1.77-3.3-6.76-1.08-6.76-1.08Z" style="fill: #ef6e4b; stroke-width: 0px;"/>
                        <g>
                          <path d="m92.91,131.2s-2.15-1.38-1.92.77c.31,2.46,2.69,2.92,2.92,2.07.23-.92-1-2.84-1-2.84Z" style="fill: #ff8b66; stroke-width: 0px;"/>
                          <path d="m105.28,128.51s1.38-2.15,2.07-.15c.77,2.3-1.15,3.76-1.77,3.07-.61-.61-.31-2.92-.31-2.92Z" style="fill: #ff8b66; stroke-width: 0px;"/>
                          <path d="m100.82,138.42c-3.92.84-6.68-1.15-8.37-8.83-.84-3.92.61-6.84,4.92-7.76,4.38-1,6.76,1,7.6,4.99,1.92,8.22-.15,10.75-4.15,11.6Z" style="fill: #ff8b66; stroke-width: 0px;"/>
                          <path d="m104.36,129.82c.15.38-.08.84-.54,1-.46.23-1,.08-1.15-.31s.08-.84.54-1c.46-.23,1-.08,1.15.31Z" style="fill: #db614d; stroke-width: 0px;"/>
                          <path d="m96.37,131.81c.08.38-.31.77-.77.84-.54.08-1-.15-1-.61-.08-.38.31-.77.77-.84.46-.08.92.23,1,.61Z" style="fill: #db614d; stroke-width: 0px;"/>
                          <path d="m101.59,126.21h-.08c-.69-.46-1.61-.23-1.61-.23-.08,0-.23,0-.23-.15,0-.08,0-.23.15-.23.08,0,1.15-.31,1.92.23.08.08.15.15.08.31-.08.08-.15.08-.23.08Z" style="fill: #0e3944; stroke-width: 0px;"/>
                          <path d="m94.3,127.9h-.08c-.08-.08-.15-.15-.08-.31.54-.84,1.61-1.08,1.61-1.08.08,0,.23.08.23.15s-.08.23-.15.23c0,0-1,.23-1.38.84-.08.08-.08.15-.15.15Z" style="fill: #0e3944; stroke-width: 0px;"/>
                          <path d="m101.82,128.36c.08.46,0,.92-.31,1-.31.08-.54-.31-.69-.77-.08-.46,0-.92.31-1,.23,0,.54.31.69.77Z" style="fill: #333; stroke-width: 0px;"/>
                          <path d="m96.37,129.59c.08.46,0,.92-.31,1-.31.08-.54-.31-.69-.77-.08-.46,0-.92.31-1,.31-.08.61.23.69.77Z" style="fill: #333; stroke-width: 0px;"/>
                          <path d="m100.44,128.43s.08-1.31.61-1.31c.46,0,1.08.92,1.08.92l.61-.54-.69.23s-.61-1-1.08-.92c-.69.23-.54,1.61-.54,1.61Z" style="fill: #333; stroke-width: 0px;"/>
                          <path d="m96.68,129.43s-.61-1.15-1.08-.92c-.46.15-.61,1.31-.61,1.31l-.77-.23.69-.08s.15-1.15.61-1.23c.69-.15,1.15,1.15,1.15,1.15Z" style="fill: #333; stroke-width: 0px;"/>
                          <path d="m99.36,131.89l-.23-.38c.31-.15.38-.38.31-.54-.08-.23-.23-.38-.38-.46-.08,0-.15.08-.23.23l-.38-.15c.15-.46.54-.46.61-.46.31,0,.69.38.77.77.15.38,0,.77-.46,1Z" style="fill: #db614d; stroke-width: 0px;"/>
                          <path d="m93.22,132.5s-1.23-4.45-.46-7.53c0,0,3.38-4.76,9.98-2.38,0,0,1.92,3.15,2.92,7.53,0,0,.23-1.54-.38-5.07-.61-3.53-3.76-5.68-7.99-4.99-4.38.69-8.99,4.92-4.07,12.44Z" style="fill: #0e3944; stroke-width: 0px;"/>
                        </g>
                        <path d="m100.13,121.6s.23,1.15-.84,4.15c0,0-.84-.84-1.77,0s-2.84.54-3.53,1c-.69.46-.69,1.54-.69,1.54,0,0-.54-1.31,0-2.84,0,0-1.31,1.61-1.08,3.61,0,0-1.77-.31-1.69-3.15.08-2.84,4.15-7.45,8.68-7.22,4.53.31,5.68,7.53,5.68,7.53,0,0-.38-.31-1.08-.15,0,0-.08-1.54-1.15-3.46,0,0,.46,1.38,0,2.92,0,0-1.31-.69-2.3-.46.08,0,.69-1.23-.23-3.46Z" style="fill: #0e3944; stroke-width: 0px;"/>
                        <path d="m86.16,139.03c2.23-1.77,3.92.46,4.38,3.53.46,3.07-3.61,21.2-6.68,20.58-1.23-.23-1.69-4.99-1.69-4.99,0,0,1.23-5.07,2-12.83.38-3.46.84-5.38,2-6.3Z" style="fill: #ff8b66; stroke-width: 0px;"/>
                        <path d="m79.7,160.61c-3-2.84-8.37-12.29-9.68-17.13l2.3-.92s6.84,9.75,9.91,12.21c3.15,2.46,4.22,5.22,2.84,7.53-1.46,2.46-4.76-1.08-5.38-1.69Z" style="fill: #ff8b66; stroke-width: 0px;"/>
                        <g>
                          <path d="m70.95,137.19c-.15,3.07,2.38,3.84,1.23,6.22-.23.46-.61.77-.92.84-.69.23-1.46,0-2-.54-1.23-1.23-3.07-2.46-3.99-3.07-1.15-.61-.46-.84-.46-.84-.08-.08-.23-.08-.31-.15-.77-.31-1.46-.46-.84-.84s3,.46,3,.46c-3-2-3.84-1.54-3.3-1.92.77-.61,3.61.77,3.69.77-1.61-1.54-2.76-1.84-2.07-2.07.61-.23,3.76,2.07,4.92,2.92.23.15.38.31.38.31-.15-2.38.69-2.07.69-2.07Z" style="fill: #ff8b66; stroke-width: 0px;"/>
                          <path d="m69.72,139.03c.23.15.38.31.38.31,0,0-.54.92.15,2.07.08.08-1.23-.77-.54-2.38Z" style="fill: #ef6e4b; stroke-width: 0px;"/>
                          <path d="m67.11,140.88c-.23-.15-1.77-1-2.38-.92-.08-.08-.23-.08-.31-.15.38-.61,2.38.84,2.69,1.08Z" style="fill: #ef6e4b; stroke-width: 0px;"/>
                        </g>
                        <g>
                          <path d="m79.01,186.65c0,.31-.31.61-.61.61s-.61-.31-.61-.61.31-.61.61-.61c.38,0,.61.31.61.61Z" style="fill: #6097b2; stroke-width: 0px;"/>
                          <path d="m89.84,190.87c0,.31-.31.61-.61.61s-.61-.31-.61-.61.31-.61.61-.61c.38,0,.61.23.61.61Z" style="fill: #6097b2; stroke-width: 0px;"/>
                          <path d="m99.13,193.1c0,.31-.31.61-.61.61s-.61-.31-.61-.61.31-.61.61-.61.61.31.61.61Z" style="fill: #6097b2; stroke-width: 0px;"/>
                          <path d="m84.93,178.74c0,.31-.31.61-.61.61s-.61-.31-.61-.61.31-.61.61-.61.61.31.61.61Z" style="fill: #6097b2; stroke-width: 0px;"/>
                          <circle cx="86.39" cy="184.5" r=".61" style="fill: #6097b2; stroke-width: 0px;"/>
                          <path d="m96.6,187.8c0,.31-.31.61-.61.61s-.61-.31-.61-.61.31-.61.61-.61.61.31.61.61Z" style="fill: #6097b2; stroke-width: 0px;"/>
                          <path d="m97.91,177.81c0,.31-.31.61-.61.61s-.61-.31-.61-.61.31-.61.61-.61c.31.08.61.31.61.61Z" style="fill: #6097b2; stroke-width: 0px;"/>
                          <circle cx="90.99" cy="175.82" r=".61" style="fill: #6097b2; stroke-width: 0px;"/>
                          <path d="m73.64,198.55c0,.31-.31.61-.61.61s-.61-.31-.61-.61.31-.61.61-.61c.38,0,.61.23.61.61Z" style="fill: #6097b2; stroke-width: 0px;"/>
                          <path d="m65.04,195.94c0,.31-.31.61-.61.61s-.61-.31-.61-.61.31-.61.61-.61.61.31.61.61Z" style="fill: #6097b2; stroke-width: 0px;"/>
                          <path d="m59.89,191.18c-.08.15-.31.31-.54.31-.31,0-.61-.31-.61-.61,0-.08,0-.15.08-.23.38.15.69.31,1.08.54Z" style="fill: #6097b2; stroke-width: 0px;"/>
                          <circle cx="76.17" cy="206.46" r=".61" style="fill: #6097b2; stroke-width: 0px;"/>
                          <path d="m61.27,215.06c0,.31-.31.61-.61.61s-.61-.31-.61-.61.31-.61.61-.61.61.23.61.61Z" style="fill: #6097b2; stroke-width: 0px;"/>
                          <circle cx="66.96" cy="209.84" r=".61" style="fill: #6097b2; stroke-width: 0px;"/>
                          <circle cx="57.51" cy="205.23" r=".61" style="fill: #6097b2; stroke-width: 0px;"/>
                          <path d="m65.8,223.36c0,.31-.31.61-.61.61s-.61-.31-.61-.61.31-.61.61-.61.61.31.61.61Z" style="fill: #6097b2; stroke-width: 0px;"/>
                          <path d="m71.56,191.48c0,.31-.31.61-.61.61s-.61-.31-.61-.61.31-.61.61-.61.61.23.61.61Z" style="fill: #6097b2; stroke-width: 0px;"/>
                          <path d="m77.4,181.27c0,.31-.31.61-.61.61s-.61-.31-.61-.61.31-.61.61-.61c.31,0,.61.23.61.61Z" style="fill: #6097b2; stroke-width: 0px;"/>
                          <path d="m84.01,172.75c0,.31-.31.61-.61.61s-.61-.31-.61-.61.31-.61.61-.61.61.23.61.61Z" style="fill: #6097b2; stroke-width: 0px;"/>
                          <path d="m70.64,185.11c0,.31-.31.61-.61.61s-.61-.31-.61-.61.31-.61.61-.61.61.31.61.61Z" style="fill: #6097b2; stroke-width: 0px;"/>
                          <path d="m78.01,175.2c0,.31-.31.61-.61.61s-.61-.31-.61-.61.31-.61.61-.61.61.23.61.61Z" style="fill: #6097b2; stroke-width: 0px;"/>
                          <path d="m66.34,202.54c0,.31-.31.61-.61.61s-.61-.31-.61-.61.31-.61.61-.61c.38,0,.61.23.61.61Z" style="fill: #6097b2; stroke-width: 0px;"/>
                          <path d="m58.74,197.17c0,.31-.31.61-.61.61s-.61-.31-.61-.61.31-.61.61-.61.61.23.61.61Z" style="fill: #6097b2; stroke-width: 0px;"/>
                          <circle cx="80.24" cy="195.32" r=".61" style="fill: #6097b2; stroke-width: 0px;"/>
                          <circle cx="92.84" cy="198.55" r=".61" style="fill: #6097b2; stroke-width: 0px;"/>
                          <path d="m92.84,181.27c0,.31-.31.61-.61.61s-.61-.31-.61-.61.31-.61.61-.61.61.23.61.61Z" style="fill: #6097b2; stroke-width: 0px;"/>
                          <path d="m100.13,182.5c0,.31-.31.61-.61.61s-.61-.31-.61-.61.31-.61.61-.61.61.31.61.61Z" style="fill: #6097b2; stroke-width: 0px;"/>
                          <path d="m85.54,203.08c0,.31-.31.61-.61.61s-.61-.31-.61-.61.31-.61.61-.61c.31.08.61.31.61.61Z" style="fill: #6097b2; stroke-width: 0px;"/>
                          <circle cx="79.63" cy="213.91" r=".61" style="fill: #6097b2; stroke-width: 0px;"/>
                          <circle cx="70.34" cy="215.68" r=".61" style="fill: #6097b2; stroke-width: 0px;"/>
                          <circle cx="95.99" cy="206.46" r=".61" style="fill: #6097b2; stroke-width: 0px;"/>
                          <path d="m88.15,211.07c0,.31-.31.61-.61.61s-.61-.31-.61-.61.31-.61.61-.61.61.23.61.61Z" style="fill: #6097b2; stroke-width: 0px;"/>
                          <path d="m75.56,224.58c0,.31-.31.61-.61.61s-.61-.31-.61-.61.31-.61.61-.61.61.31.61.61Z" style="fill: #6097b2; stroke-width: 0px;"/>
                          <circle cx="84.31" cy="221.44" r=".61" style="fill: #6097b2; stroke-width: 0px;"/>
                          <circle cx="93.37" cy="217.83" r=".61" style="fill: #6097b2; stroke-width: 0px;"/>
                          <path d="m89.84,228.27c0,.31-.31.61-.61.61s-.61-.31-.61-.61.31-.61.61-.61c.38,0,.61.31.61.61Z" style="fill: #6097b2; stroke-width: 0px;"/>
                        </g>
                        <g>
                          <path d="m89.23,260.3h-9.98c-.61-1.84.54-3.69.38-5.38-.38-2.76,1.23-1.23,1.23-1.23.31-3,4.45-3.53,4.45-2.23-.08,1.92.31,3.15.84,3.99,1.15,1.61,3,1.61,3.3,2.76,0,.08.08.23.08.31.31,1.46-.31,1.77-.31,1.77Z" style="fill: #164353; stroke-width: 0px;"/>
                          <path d="m89.53,258.53c-2.07.46-6.84-.15-6.99-1.38-.15-1.15,2.38-1.69,3.69-1.77,1.15,1.61,3,1.61,3.3,2.76-.08.15-.08.31,0,.38Z" style="fill: #205260; stroke-width: 0px;"/>
                        </g>
                        <g>
                          <path d="m48.22,183.04c-1.08-1-2.76.61-2.76.61,0,0,.92,1.38.31,1.92s-1.31-.69-2.46-.15c-.08.08-.23.08-.31.15-.92.54-1.92,1.69-2.69,2.61-.15.15-.31.31-.46.46-.92.92-3.23,1.54-3.69-1s2.38-5.45,5.53-8.22c3.15-2.69,5.15-1.08,5.15-1.08,0,0,.69,1.15.69,1.84s.61,1.08,1,1.77c.38.61-.31,1.08-.31,1.08Z" style="fill: #164353; stroke-width: 0px;"/>
                          <path d="m43,185.57c-.92.54-1.92,1.69-2.69,2.61-1.15.31-2.23.23-2.38-.92-.38-2.69,4.92-5.99,4.45-4.15-.15.92.23,1.84.61,2.46Z" style="fill: #205260; stroke-width: 0px;"/>
                        </g>
                        <g>
                          <path d="m102.05,131.74s0,1.15-.77,2c-.31.38-.77.61-1.46.77-.38.08-.69.08-1,0-1.08-.23-1.61-1.23-1.61-1.23h.15c.61-.08,3-.38,4.3-1.23h0c.23-.15.31-.23.38-.31Z" style="fill: #7c2213; stroke-width: 0px;"/>
                          <path d="m101.82,131.97c-.31.46-.84.92-1.92,1.31-1.31.46-2,.23-2.38-.08.54,0,2.92-.31,4.3-1.23Z" style="fill: #fff; stroke-width: 0px;"/>
                          <path d="m101.36,133.73c-.31.38-.77.61-1.46.77-.38.08-.69.08-1,0,.38-.61.92-.92,1.69-.92.23.08.54.08.77.15Z" style="fill: #ff5b52; stroke-width: 0px;"/>
                        </g>
                      </g>
                      <g>
                        <path d="m227.62,255.92c-.46-.23-.92-.84-1.38-1.54,0,0-.38-2.15,0-4.38.38-2.23-.61-4.07-3.76-4.76-3.07-.69-4.92.84-4.15,6.99h0c-.46,2.53-.54,5.53.54,7.99h9.45c0,.08,1.46-3.15-.69-4.3Z" style="fill: #fff; stroke-width: 0px;"/>
                        <path d="m235.91,222.66s0,6.14-3.46,12.44c-3.53,6.45-7.91,15.28-7.91,15.28,0,0-2.92,2.84-4.76-1.84,0,0,1.31-16.36,4.3-22.42,3-5.99,11.83-3.46,11.83-3.46Z" style="fill: #ff8b66; stroke-width: 0px;"/>
                        <path d="m281.22,202.62s5.61,23.65,9.22,29.87c0,0-.84,2.61-4.68,3.38,0,0-12.21-17.97-13.06-25.57-.77-7.53,8.52-7.68,8.52-7.68Z" style="fill: #ff8b66; stroke-width: 0px;"/>
                        <g>
                          <path d="m283.99,208.23c-1.46,3.61-13.06,3.84-13.06,3.84l-.92-1.31-.23-.31-1.84-2.69s-19.12-18.82-22.89-17.2h0c-.08.08-.23.08-.31.15-2.53,1.84-2.84,11.9-5.84,28.72-.31,1.61-.92,3.46-1.46,4.76-.08.15-.08.31-.15.38-.31.69-.46,1.15-.46,1.15-11.67,4.76-15.59-4.61-15.59-4.61,0,0,.15-.31.31-.69.08-.08.08-.23.15-.31.61-1.38,1.61-3.69,1.61-4.92v-15.13c0-1.31,0-2.61.08-3.76v-.31c.08-5.3.31-8.91.46-11.21v-.31c.31-3.99.69-4.38.69-4.38l-2.38-16.28h25.57s3.84,3.84,8.83,8.91c.08.08.23.23.31.31,1.84,1.84,3.76,3.84,5.68,5.84.08.08.15.15.23.23.77.77,1.54,1.61,2.3,2.38.08.08.15.23.31.31,2.53,2.69,5.07,5.3,7.14,7.6.08.08.15.15.23.23,2.92,3.15,5.15,5.68,5.91,6.84,2,3.07,3.61,7.14,4.45,9.6h0c.08.08.08.23.15.31.46,1.08.69,1.84.69,1.84Z" style="fill: #8b383e; stroke-width: 0px;"/>
                          <g>
                            <path d="m228.39,182.35c-1.08,1.23-2.53,2-4.53,2.23v-.31c1.84-.23,3.3-1,4.22-2.15,1.77-2.07,1.46-4.84,1.46-4.92h.31c.08.15.38,3-1.46,5.15Z" style="fill: #662c33; stroke-width: 0px;"/>
                            <path d="m256.95,172.82h-.31c-2.84,0-5.84-3.07-5.99-3.3l.23-.23c0,.08,3,3.15,5.68,3.15.15.23.23.31.38.38Z" style="fill: #662c33; stroke-width: 0px;"/>
                            <path d="m237.52,224.12c-.08.15-.08.31-.15.38-1.92.69-3.61,1-5.22,1-5.07,0-8.52-2.92-10.44-5.15.08-.08.08-.23.15-.31,2.38,2.84,7.68,7.14,15.67,4.07Z" style="fill: #662c33; stroke-width: 0px;"/>
                            <path d="m244.36,184.65c.46,1.84.69,3.76.69,5.84-.08.08-.23.08-.31.15,0-9.52-5.53-16.97-5.61-17.05l.23-.15c.08.08,3.3,4.45,4.84,10.91.61-.46,1.08-1,1.23-1.84.77-3.38-2.84-8.83-2.84-8.91l.23-.15c.15.23,3.76,5.61,2.92,9.14-.08.84-.61,1.54-1.38,2.07Z" style="fill: #662c33; stroke-width: 0px;"/>
                            <path d="m272.85,189.41c-.92,1-1.84,1.92-1.92,2l-.15.15-.08-.23c-1.23-3.23-9.22-10.29-9.29-10.37l-.08-.08,1.31-2.23c.08.08.15.15.23.23l-1.08,1.84c1.54.54,2.61.61,3.38.54.08.08.15.23.31.31-.23.08-.54.08-.84.08-.69,0-1.54-.15-2.46-.46,1.84,1.61,7.45,6.84,8.68,9.75.46-.46,1.15-1.15,1.77-1.84.08.15.15.23.23.31Z" style="fill: #662c33; stroke-width: 0px;"/>
                            <path d="m229.15,211.15h-.15c-.15,0-1.54.31-3.23.31-.84,0-1.69-.08-2.46-.31v-.31c2.07.61,4.84.15,5.53,0l-.54-13.13c-.31.69-.92,1.69-2,2.23-.54.23-1.08.38-1.77.38-.38,0-.77-.08-1.23-.15v-.31c1.08.23,2.07.15,2.84-.23,1.31-.69,1.84-2.07,2-2.61-1.08.15-3.15-.38-4.84-.84v-.31c1.77.54,4.15,1.15,4.99.84l.23-.08.61,14.51Z" style="fill: #662c33; stroke-width: 0px;"/>
                            <path d="m283.3,206.23c-1.84,1.84-5.61,4.61-11.37,4.61-.61,0-1.23,0-1.92-.08l-.23-.31c7.07.84,11.44-2.46,13.44-4.45,0,0,.08.15.08.23Z" style="fill: #662c33; stroke-width: 0px;"/>
                          </g>
                        </g>
                        <path d="m252.5,94.41s-.69-1.61-3.69-1.61c-2.3,0-3.15,1.23-3.15,1.23-1.38,3.99-2.84,19.28-3.38,19.89-.23.31-17.2,11.67-17.2,11.67,9.22.15,14.98,11.52,14.98,11.52.31-3.76,10.67-18.51,10.83-19.81.15-2.53,4.53-13.59,1.61-22.89Z" style="fill: #c74d34; stroke-width: 0px;"/>
                        <path d="m223.09,174.44s-.08,3.23.92,3.38,9.45,2.69,19.12-1.69c9.68-4.38,11.37-7.68,8.52-10.06-2.84-2.38-28.57,8.37-28.57,8.37Z" style="fill: #c74d34; stroke-width: 0px;"/>
                        <path d="m219.17,127.82s-8.83-1.08-13.9,1.15c0,0-1.38,6.22,5.53,20.27,6.91,13.98,5.3,22.81,13.13,26.11,6.91,2.92,27.42-5.84,28.03-8.68,1.61-7.3-10.91-20.12-11.67-27.57-.69-7.53-7.99-18.66-21.12-11.29Z" style="fill: #fa6142; stroke-width: 0px;"/>
                        <path d="m205.35,128.97c-6.14,2.15-13.06,9.06-13.06,12.44s5.76,4.61,5.76,4.61l9.52-4.61s2.69-1.92,1-7.45c-1.84-5.53-3.23-4.99-3.23-4.99Z" style="fill: #c74d34; stroke-width: 0px;"/>
                        <path d="m230.61,135.12c-1.84,0-4.15-.69-5.53-1.69-.77-.54-1.23-1.15-1.38-1.84-.38-2.15,1.77-3.3,1.84-3.38l.31.54c-.08,0-1.84.92-1.54,2.69.08.46.46.92,1.08,1.38,1.61,1.15,4.3,1.77,6.14,1.46.77-.15,1.31-.46,1.54-.84.31-.54.08-1.15.08-1.15l.61-.23s.38.84-.08,1.69c-.31.61-1,1-2,1.15-.31.15-.69.23-1.08.23Z" style="fill: #fff; stroke-width: 0px;"/>
                        <path d="m222.78,141.8c-1.38,0-3.61-.54-3.92-2.84-.15-1.15-.08-2.07,0-2.92.15-1.23.23-2.23-.46-3.38-1.15-1.92-2.76-2.07-2.84-2.07v-.61c.08,0,2,.15,3.38,2.38.84,1.38.69,2.53.54,3.76-.08.84-.15,1.69,0,2.76.31,2.38,3.46,2.23,3.53,2.23v.61c0,.08-.08.08-.23.08Z" style="fill: #fff; stroke-width: 0px;"/>
                        <path d="m224.7,130.43s4.68-3.15,3.53-6.6c-1.08-3.46-16.13-3.23-19.97.92-3.84,4.07,8.37,6.84,8.37,6.84,1-1.92,7.07-2.15,8.06-1.15Z" style="fill: #c74d34; stroke-width: 0px;"/>
                        <path d="m216.33,129.89c-2.23-.77-3.53-2.38-3.07-4.22.46-1.84,9.98-1.92,11.75-.38,1.77,1.54-.69,7.3-8.68,4.61Z" style="fill: #a02e44; stroke-width: 0px;"/>
                        <path d="m215.33,124.75s1.92,3.3,1.08,5.15c0,0,6.68,2.3,6.68-1.46,0,0-1.23-2.84-.77-4.61l-6.99.92Z" style="fill: #ef6e4b; stroke-width: 0px;"/>
                        <g>
                          <path d="m213.1,121.83s-3.3-5.3-3-10.29c.15-2.53,1.46-3.53,1.46-3.53,0,0-1.08-1.46.08-3.69,0,0,1.54,1.77,6.99,1.23,5.22-.54,5.76,3.23,5.76,3.23,3.76.54,1.23,11.9-1.38,13.06,0,0-9.91,0-9.91,0Z" style="fill: #ffb878; stroke-width: 0px;"/>
                          <path d="m211.64,116.91s-1.92-1.92-2.15.31c-.31,2.53,2.07,3.61,2.53,2.76.46-.77-.38-3.07-.38-3.07Z" style="fill: #ff8b66; stroke-width: 0px;"/>
                          <path d="m224.93,117.07s1.92-1.92,2.15.31c.31,2.53-2.07,3.61-2.53,2.76-.46-.77.38-3.07.38-3.07Z" style="fill: #ff8b66; stroke-width: 0px;"/>
                          <path d="m218.09,126.21c-4.22,0-6.6-2.76-6.6-10.98,0-4.22,2.15-6.84,6.84-6.84s6.68,2.61,6.68,6.84c.08,8.83-2.53,10.98-6.91,10.98Z" style="fill: #ff8b66; stroke-width: 0px;"/>
                          <path d="m223.7,118.14c.08.46-.31.84-.84.92s-1-.15-1.08-.61c-.08-.46.31-.84.84-.92.54-.08,1,.23,1.08.61Z" style="fill: #db614d; stroke-width: 0px;"/>
                          <path d="m215.02,118.37c0,.46-.46.77-1,.69-.54,0-.92-.38-.92-.84s.46-.77,1-.69c.54.08,1,.46.92.84Z" style="fill: #db614d; stroke-width: 0px;"/>
                          <path d="m221.86,113.77q-.08,0-.15-.08c-.69-.54-1.69-.31-1.69-.31-.08,0-.23-.08-.23-.15s.08-.23.15-.23,1.23-.23,2,.38c.08.08.08.23.08.31-.08,0-.15.08-.15.08Z" style="fill: #ffb878; stroke-width: 0px;"/>
                          <path d="m213.79,113.77q-.08,0-.15-.08c-.08-.08-.08-.23,0-.31.77-.61,2-.46,2-.46.08,0,.23.15.15.23,0,.08-.15.15-.23.15,0,0-1-.15-1.69.38q0,.08-.08.08Z" style="fill: #ffb878; stroke-width: 0px;"/>
                          <path d="m221.4,116.15c0,.54-.23.92-.54.92s-.54-.46-.54-.92c0-.54.23-.92.54-.92.31-.08.54.38.54.92Z" style="fill: #333; stroke-width: 0px;"/>
                          <path d="m215.79,116.15c0,.54-.23.92-.54.92s-.54-.46-.54-.92c0-.54.23-.92.54-.92s.54.38.54.92Z" style="fill: #333; stroke-width: 0px;"/>
                          <path d="m212.8,109.31s4.45,1.61,10.91,1.15c0,0,1.38,1.69,1.23,7.76,0,0,3.76-10.83-7.22-10.83s-6.07,10.6-6.07,10.6c0,0-.84-6.68,1.15-8.68Z" style="fill: #ffb878; stroke-width: 0px;"/>
                          <path d="m218.4,118.91l-.31-.31.84-.84c-.77-1.15-.77-3.76-.77-3.92h.46s0,2.84.84,3.76l.15.15-1.23,1.15Z" style="fill: #db614d; stroke-width: 0px;"/>
                        </g>
                        <path d="m233.22,131.66c.77-.15.69,1.92,0,1.31s-.77-1.15,0-1.31Z" style="fill: #fff; stroke-width: 0px;"/>
                        <path d="m223.7,141.64c-.15.77-2.07.08-1.23-.46.84-.38,1.38-.31,1.23.46Z" style="fill: #fff; stroke-width: 0px;"/>
                        <path d="m215.25,146.02s-1.23,3.23-1.15,5.07c.08,1.84.69,1.61.69,1.61,0,0-.92.38-1.15,1.46-.15,1.08,2.46,1.84,2.61,1.84s2.07-.69,2.07-.69l.38-5.91-1.61-1.08-1.84-2.3Z" style="fill: #ef6e4b; stroke-width: 0px;"/>
                        <path d="m216.25,145.56s2.3,1.46,3.15,2.3c.92.84.38,7.6,0,7.91-.38.31-3.3,1-3.84.61s.23-2.3.23-2.3c0,0,1.46-.31,1.23.23s0,1,0,1l.61-.23s-.31-1.54,0-2.61-2.07-2.3-2.3-4.3c-.31-2.07.92-2.61.92-2.61Z" style="fill: #ff8b66; stroke-width: 0px;"/>
                        <path d="m192.6,142.33c-.77-3.15,2.38-4.3,6.76-3.76,5.07.61,15.44,1.92,17.66,7.45,0,0,.77,2.15-1.15,3.23-5.3,2.84-21.89-1-23.27-6.91Z" style="fill: #c74d34; stroke-width: 0px;"/>
                        <path d="m208.42,140.18s-5.99-2.53-8.99-2.76c-3.07-.23,4.07,2.38,8.99,2.76Z" style="fill: #a02e44; stroke-width: 0px;"/>
                        <g>
                          <path d="m253.58,86.04c-.46.54-1.23,2.53-1.23,2.53-.31,1.69-.46,2.61-1.08,3.38s-.31,2.15-.31,2.15c0,0-2.3,1.15-4.22-.31,0,0,.23-1.38,0-1.77-.38-.77-1.69-1.15-2.07-2.76-.46-1.54-1.77-3.3-1.77-3.3,0,0,.38-.84,1.08-.31.69.46,1.15,1.77,1.46,1.84.08,0,.15.08.23.08h0c.31,0,.54,0,.77-.23h.08c.61-.69.77-2.84.77-3.84,0-1.31,0-3.15.84-2.84.84.31.08,1.08.69,3.99h.31c.08.23.61-1.77.77-3.61.08-1.31.92-.84,1.15-.38.15.38-.08,1.69-.15,2.61-.08.61-.08,1.23-.15,1.61l.38.23c1.31-2.23.84-3.15,1.61-3.23.77-.08.46,1.84.08,2.53-.15.31-.31.92-.46,1.61,1.31-1.54,1.15-2.3,1.77-2.23.46.15-.15,1.69-.54,2.23Z" style="fill: #ff8b66; stroke-width: 0px;"/>
                          <path d="m247.89,89.5c-.46-1.23-2-1.77-2.23-1.84.31,0,.54,0,.77-.23,1.54.69,1.46,2.07,1.46,2.07Z" style="fill: #ef6e4b; stroke-width: 0px;"/>
                        </g>
                        <g>
                          <path d="m220.48,251s-.84-1.77-.08-2.53,1.69.69,3,.31c1.31-.31,1.61-1.23,2,0,.31,1.31-.08,5.38-4.92,2.23Z" style="fill: #fff; stroke-width: 0px;"/>
                          <path d="m225.47,250.93s-3.61,1.23-5.45,0l.46,1.54s3.92.38,4.45-.54l.54-1Z" style="fill: #6097b2; stroke-width: 0px;"/>
                          <path d="m225.39,252.85s-3.3-.46-4.84.38v.77s4.3-1,5.68,0l-.84-1.15Z" style="fill: #6097b2; stroke-width: 0px;"/>
                          <path d="m220.4,255.53s.61-1.54,2.61-1.69c2-.08,3.3,1,3.3,1,0,0-3.07-1.23-5.91.69Z" style="fill: #6097b2; stroke-width: 0px;"/>
                        </g>
                        <g>
                          <path d="m304.65,234.11c-6.3,8.37-14.82,9.98-14.82,9.98-2.46-2-2.53-4.3-2.53-4.3,0,0-2.38-2.15-2.69-3.15-.31-1,2.07-4.07,3.46-3.76,1,.23,1.54,1,1.84,1.46-1.15-2.61-.23-3.53,1.46-3.3,1.77.23.08.61,1.31,2.07.08.08.15.15.31.23.23.15.46.23.84.31.31.08.54.08.92.08.15,0,.31,0,.54-.08.31-.08.61-.15,1-.23.54-.15,1.08-.38,1.61-.69,2.15-1.15,3.07-1.61,4.76-1.15,1.61.38,1.61,1.69,1.61,1.69l.38.84Z" style="fill: #fff; stroke-width: 0px;"/>
                          <path d="m304.65,234.11c-6.3,8.37-14.82,9.98-14.82,9.98,4.38-1.84,8.37-4.3,11.14-7.37,2.69-3,3.69-2.61,3.69-2.61Z" style="fill: #6097b2; stroke-width: 0px;"/>
                          <g>
                            <path d="m292.9,233.19c.23.15.46.23.84.31-1.69.31-1.77,1.84-1.77,1.84l-.69-.23c.08-1.77,1.54-1.92,1.61-1.92Z" style="fill: #6097b2; stroke-width: 0px;"/>
                            <path d="m294.05,235.57h-.77c-.31-1.08.08-1.69.46-2,.31.08.54.08.92.08-.92.77-.61,1.92-.61,1.92Z" style="fill: #6097b2; stroke-width: 0px;"/>
                            <path d="m295.89,235.11l-.77.08c-.31-.77-.23-1.31,0-1.69.31-.08.61-.15,1-.23-.61.92-.23,1.84-.23,1.84Z" style="fill: #6097b2; stroke-width: 0px;"/>
                          </g>
                        </g>
                        <path d="m225.54,157.23s1.61,8.75-1.69,12.21c-3.3,3.46-1.08.61-.15-3.84,1-4.45.31-9.22,1.84-8.37Z" style="fill: #c74d34; stroke-width: 0px;"/>
                        <path d="m240.67,153.32s5.15,1.69,7.91,6.45c0,.08-3.69-7.76-7.91-6.45Z" style="fill: #c74d34; stroke-width: 0px;"/>
                        <g>
                          <path d="m221.09,122.21c-.38.46-1.08.77-2.07.84-.77.08-1.38-.08-1.84-.31-1.54-.69-1.54-2.46-1.54-2.46h.54c1.08,0,3.69.08,5.38-.31.15,0,.23-.08.38-.08-.15,0,0,1.38-.84,2.3Z" style="fill: #7c2213; stroke-width: 0px;"/>
                          <path d="m221.47,119.99c-.46.69-1.61,1.08-2.76,1.08-1,0-2-.23-2.61-.77,1.08.08,3.69.08,5.38-.31Z" style="fill: #fff; stroke-width: 0px;"/>
                          <path d="m221.09,122.21c-.38.46-1.08.77-2.07.84-.77.08-1.38-.08-1.84-.31.54-.61,1.31-1,2.15-1,.38.08,1.15.15,1.77.46Z" style="fill: #ff5b52; stroke-width: 0px;"/>
                        </g>
                      </g>
                      <g>
                        <g>
                          <path d="m106.43,88.35c.69,0,2.69.77,2.69.77,1.46.92,2.3,1.38,3.23,1.46,1,.08,1.38,1.77,1.38,1.77,0,0,3.84.84,4.07-1.61,0,0-2.15-3-2.3-3.46-.31-.84.23-2-.61-3.38-.84-1.38-1.31-3.53-1.31-3.53,0,0-.84-.23-.92.54-.08.84.54,2,.38,2.38,0,.08-.08.15-.08.23h0c-.15.23-.38.38-.61.46h-.08c-.92,0-2.61-1.38-3.3-2-.92-.92-2.38-2.07-2.69-1.31-.31.84.77.77,2.46,3.15l-.15.23c.15.15-1.69-.77-3.23-1.92-1-.77-1.23.15-1.08.54.15.38,1.31,1.08,2,1.61.46.38,1,.77,1.31,1l-.08.38c-2.53-.54-2.92-1.46-3.46-1-.54.54,1.08,1.61,1.84,1.77.31.08.92.38,1.46.69-2-.08-2.46-.69-2.84-.15-.31.77,1.23,1.38,1.92,1.38Z" style="fill: #ff8b66; stroke-width: 0px;"/>
                          <path d="m112.8,86.5c-.61-1.15.08-2.69.15-2.84-.15.23-.38.38-.61.46-.61,1.54.46,2.38.46,2.38Z" style="fill: #ef6e4b; stroke-width: 0px;"/>
                        </g>
                        <g>
                          <path d="m218.94,88.35c-.69,0-2.69.77-2.69.77-1.46.92-2.3,1.38-3.23,1.46-1,.08-1.38,1.77-1.38,1.77,0,0-3.84.84-4.07-1.61,0,0,2.15-3,2.3-3.46.31-.84-.23-2,.61-3.38.84-1.38,1.31-3.53,1.31-3.53,0,0,.84-.23.92.54.08.84-.54,2-.38,2.38,0,.08.08.15.08.23h0c.15.23.38.38.61.46h.08c.92,0,2.61-1.38,3.3-2,.92-.92,2.38-2.07,2.69-1.31.31.84-.77.77-2.46,3.15l.15.23c-.15.15,1.69-.77,3.23-1.92,1-.77,1.23.15,1.08.54-.15.38-1.31,1.08-2,1.61-.46.38-1,.77-1.31,1l.08.38c2.53-.54,2.92-1.46,3.46-1,.54.54-1.08,1.61-1.84,1.77-.31.08-.92.38-1.46.69,2-.08,2.46-.69,2.84-.15.23.77-1.23,1.38-1.92,1.38Z" style="fill: #ff8b66; stroke-width: 0px;"/>
                          <path d="m212.56,86.5c.61-1.15-.08-2.69-.15-2.84.15.23.38.38.61.46.61,1.54-.46,2.38-.46,2.38Z" style="fill: #ef6e4b; stroke-width: 0px;"/>
                        </g>
                        <path d="m185.3,204.31l-7.37-45.46-14.75,1.61-14.75-1.61-7.37,45.46-3.53,44.16s1.15,3.69,8.45,1.15c0,0,5.45-40.93,6.3-41.85.84-.92,9.52-27.65,9.52-27.65h2.69s8.68,26.73,9.52,27.65c.84.92,6.3,41.85,6.3,41.85,7.37,2.53,8.45-1.15,8.45-1.15l-3.46-44.16Z" style="fill: #0e3944; stroke-width: 0px;"/>
                        <path d="m158.65,114.69c.92.92,5.53,2.53,7.91,0l1.61,1.61s-1.84,4.38-5.15,4.53c-3.3.15-5.61-3.92-5.61-3.92l1.23-2.23Z" style="fill: #0c476b; stroke-width: 0px;"/>
                        <path d="m171.55,114.23c5.45-2.38,23.19-8.6,23.19-8.6,0,0,11.9-14.9,14.28-17.13,0,0,2.61.46,3.38,3.76,0,0-7.68,16.36-11.83,21.12-4.15,4.68-25.27,14.82-25.27,14.82l-3.76-13.98Z" style="fill: #0c476b; stroke-width: 0px;"/>
                        <path d="m152.43,113.92c1.61-1,9.83,4.45,9.83,4.45,0,0,10.6-5.61,13.13-4.53,0,0,2.23,3,3.15,10.75.92,7.76,1,39.55,1,39.55,0,0-7.14,2.53-16.82,2.53-10.98,0-16.97-3.15-16.97-3.15,0,0-2-44.16,6.68-49.61Z" style="fill: #ffb878; stroke-width: 0px;"/>
                        <path d="m159.04,113.07s1.15,3.69,0,5.15c0,0,1.23,2.53,3.46,2.69,2.53.15,3.46-2.69,3.46-2.69,0,0-1.31-3.61,0-4.84l-6.91-.31Z" style="fill: #ef6e4b; stroke-width: 0px;"/>
                        <g>
                          <path d="m156.12,109.39s-2.46-4.76-2-9.83c.46-5.07,8.14-6.3,13.36-3.76,0,0-1.54-1.54-.92-1.92s1.61,2.23,1.61,2.23c0,0,1.61-.54,1.92,0,.23.54-1.69.77-1.69.77,0,0,3.3,1.84.23,11.67l-12.52.84Z" style="fill: #8b383e; stroke-width: 0px;"/>
                          <path d="m155.73,106.39s-1.84-1.84-2.07.31c-.23,2.53,2,3.53,2.46,2.69.46-.77-.38-3-.38-3Z" style="fill: #ff8b66; stroke-width: 0px;"/>
                          <path d="m168.71,106.55s1.84-1.84,2.07.31c.23,2.53-2,3.53-2.46,2.69-.46-.77.38-3,.38-3Z" style="fill: #ff8b66; stroke-width: 0px;"/>
                          <path d="m162.03,115.46c-4.07,0-6.37-2.69-6.37-10.67,0-4.15,2.07-6.68,6.68-6.68s6.53,2.53,6.53,6.68c0,8.6-2.61,10.67-6.84,10.67Z" style="fill: #ff8b66; stroke-width: 0px;"/>
                          <path d="m167.48,107.62c.08.38-.31.84-.77.92-.54.08-1-.15-1.08-.61-.08-.38.31-.84.77-.92.54-.08,1,.15,1.08.61Z" style="fill: #db614d; stroke-width: 0px;"/>
                          <path d="m159.04,107.85c0,.38-.46.69-1,.69s-.92-.38-.92-.84c0-.38.46-.69,1-.69.54,0,1,.38.92.84Z" style="fill: #db614d; stroke-width: 0px;"/>
                          <path d="m165.64,103.4q-.08,0-.15-.08c-.54-.61-1.54-.54-1.61-.54s-.23-.08-.23-.23c0-.08.08-.23.23-.23.08,0,1.23,0,1.92.69.08.08.08.23,0,.31s-.15.08-.15.08Z" style="fill: #8b383e; stroke-width: 0px;"/>
                          <path d="m157.88,103.4q-.08,0-.15-.08c-.08-.08-.08-.23,0-.31.69-.69,1.84-.69,1.92-.69s.23.08.23.23c0,.08-.08.23-.23.23,0,0-1,0-1.61.54,0,.08-.08.08-.15.08Z" style="fill: #8b383e; stroke-width: 0px;"/>
                          <path d="m165.26,105.62c0,.54-.23.92-.54.92s-.54-.38-.54-.92.23-.92.54-.92c.31,0,.54.38.54.92Z" style="fill: #333; stroke-width: 0px;"/>
                          <path d="m159.8,105.62c0,.54-.23.92-.54.92s-.54-.38-.54-.92.23-.92.54-.92c.31,0,.54.38.54.92Z" style="fill: #333; stroke-width: 0px;"/>
                          <path d="m168.41,107.47s-.15-4.45-1.84-7.91c0,0-3.07,1.38-3.76,1.08s.61-1.08.61-1.08c0,0-5.07,1.69-5.38,1.31-.31-.31,1.69-1.31,1.69-1.31l-3.15,1.08s-1,3.99-.54,6.84c0,0-1.38-2.3-1.54-3.92s.54-6.22,5.3-6.53,7.37.77,8.6,2.92c1.15,2.07,1,4.76,0,7.53Z" style="fill: #8b383e; stroke-width: 0px;"/>
                          <path d="m162.72,109.77c-.38,0-.77-.08-.92-.15l.15-.38c.46.15,1.08.15,1.23,0,.08-.08,0-.23-.08-.38-.61-1.23-.69-4.45-.69-4.61h.46s.15,3.23.69,4.38c.15.38.15.61,0,.84-.23.23-.54.31-.84.31Z" style="fill: #db614d; stroke-width: 0px;"/>
                        </g>
                        <path d="m167.25,115.92s7.45,23.04,8.14,41.78c0,0,2.69.77,5.68-3.38,3-4.07,1.23-36.63-4.53-42.01,0-.08-2.61-.69-9.29,3.61Z" style="fill: #105e99; stroke-width: 0px;"/>
                        <path d="m168.48,119.91s1.31-3.07.77-5.22c-.54-2.15-2.69,0-2.69,0,0,0,.84,3.46,1.92,5.22Z" style="fill: #0c476b; stroke-width: 0px;"/>
                        <path d="m153.58,114.23c-5.45-2.38-23.19-8.6-23.19-8.6,0,0-11.9-15.36-14.36-17.51,0,0-3,1.69-3.23,5.22,0,0,7.45,15.36,11.67,20.04,4.15,4.68,25.27,14.82,25.27,14.82l3.84-13.98Z" style="fill: #0c476b; stroke-width: 0px;"/>
                        <path d="m157.88,115.92s-7.45,23.04-8.14,41.78c0,0-2.69.77-5.68-3.38-3-4.07-1.23-36.63,4.53-42.01.08-.08,2.69-.69,9.29,3.61Z" style="fill: #105e99; stroke-width: 0px;"/>
                        <path d="m156.73,119.91s-1.31-3.07-.77-5.22c.54-2.15,2.69,0,2.69,0,0,0-.84,3.46-1.92,5.22Z" style="fill: #0c476b; stroke-width: 0px;"/>
                        <g>
                          <path d="m195.44,260.3h-14.75c-1-5.84.61-11.75.61-11.75l6.76-1.15c.61,3.69,1.38,5.15,2.38,5.91h0c.77.54,1.61.69,2.76,1.08,1.31.46,1.92,1.23,2.3,2.15.54,1.69-.08,3.76-.08,3.76Z" style="fill: #662c33; stroke-width: 0px;"/>
                          <path d="m195.44,256.53c-3.61.46-11.6,1.23-11.14-.84.38-1.77,3.76-2.23,6.07-2.38h0c.77.54,1.61.69,2.76,1.08,1.31.46,1.92,1.31,2.3,2.15Z" style="fill: #8b383e; stroke-width: 0px;"/>
                        </g>
                        <g>
                          <path d="m146.06,260.3h-14.67s-.46-1.38-.23-2.84c.15-1.15.84-2.46,2.53-3,1.31-.46,2.23-.61,3.07-1.38.84-.84,1.54-2.3,2.07-5.68l6.76,1.15c-.15,0,1.54,5.84.46,11.75Z" style="fill: #662c33; stroke-width: 0px;"/>
                          <path d="m131.08,257.45c.15-1.15.84-2.46,2.53-3,1.31-.46,2.23-.61,3.07-1.38,1.84.54,4.45,1.61,5.3,3.23,1.08,2.15-7.53,1.84-10.91,1.15Z" style="fill: #8b383e; stroke-width: 0px;"/>
                        </g>
                        <g>
                          <path d="m165.26,110.23s0,1.31-1.15,2c-.38.31-1,.46-1.77.54-.38,0-.69-.08-1-.15-1.15-.54-1.54-1.92-1.54-1.92,0,0,.15,0,.38.08.84.08,3.07.23,4.61-.31.15-.08.31-.15.46-.23Z" style="fill: #7c2213; stroke-width: 0px;"/>
                          <path d="m164.8,110.39c-.54.69-1.61.92-2.53.92-.77,0-1.54-.15-2.07-.69.84.15,3.07.31,4.61-.23Z" style="fill: #fff; stroke-width: 0px;"/>
                          <path d="m164.11,112.23c-.38.31-1,.46-1.77.54-.38,0-.69-.08-1-.15.38-.46,1.08-.69,1.61-.69.38,0,.77.15,1.15.31Z" style="fill: #ff5b52; stroke-width: 0px;"/>
                        </g>
                      </g>
                      <g>
                        <g>
                          <path d="m251.81,259.22c0,.61-.08,1.08-.08,1.08h-17.89v-1.08c.23-4.68,1.69-8.75,1.69-8.75l4.45-1.92c.38,2.3,1.38,3.76,2.61,4.76.31.23.69.46,1,.69.15.08.31.15.46.23.38.15.77.31,1.15.46,1.61.46,3.15.61,4.3.77,2,.23,2.3,2.38,2.3,3.76Z" style="fill: #164353; stroke-width: 0px;"/>
                          <path d="m251.81,259.22c0,.61-.08,1.08-.08,1.08h-17.89v-1.08h17.97Z" style="fill: #225866; stroke-width: 0px;"/>
                          <path d="m243.67,253.92l-2.46.77-.54-.92,2-.54c.31.31.69.54,1,.69Z" style="fill: #225866; stroke-width: 0px;"/>
                          <path d="m245.36,254.61l-1.69,1.08-1-.38,1.54-1.15c.31.23.69.38,1.15.46Z" style="fill: #225866; stroke-width: 0px;"/>
                        </g>
                        <g>
                          <path d="m183.46,259.22c-.08.61-.23,1.08-.23,1.08h-11.9c-.15-.38-.23-.69-.31-1.08-1.15-5.68,6.76-12.67,6.76-12.67l2.53,3.38s-.31,5.38,1.84,6.45c1.23.69,1.38,1.92,1.31,2.84Z" style="fill: #164353; stroke-width: 0px;"/>
                          <path d="m171.02,259.22h12.44c-.08.61-.23,1.08-.23,1.08h-11.9c-.15-.38-.23-.69-.31-1.08Z" style="fill: #225866; stroke-width: 0px;"/>
                          <path d="m181.54,255.92s-4.99-1.15-7.3.31v-.84c0,.08,4.22-2,7.3.54Z" style="fill: #225866; stroke-width: 0px;"/>
                          <path d="m180.54,254.69s-3.23-1.46-6.3,0l.38-.84s3.69-1.38,5.91.84Z" style="fill: #225866; stroke-width: 0px;"/>
                        </g>
                        <path d="m246.43,208.53c0,4.76-4.22,43.85-4.22,43.85-4.22.46-7.68-.46-7.68-.46-1.15-19.81-1.31-36.86-1.31-36.86l-20.43-15.21h-.08s-.08.38-.23,1c-1,4.45-5.3,23.27-7.07,27.57-2,4.92-24.19,25.5-24.19,25.5-4.15-.54-7.6-3.53-7.6-3.53,7.99-13.21,18.82-26.42,18.82-26.42.84-4.76,1.46-15.36,1.84-23.27v-.38c.23-5.38.38-9.37.38-9.37l-3.76-7.68,23.73-8.75,5.3,6.84s1.23,1.15,3.15,2.92c.08.08.15.15.23.23,7.22,6.68,23.12,21.89,23.12,24.04Z" style="fill: #8bbddb; stroke-width: 0px;"/>
                        <g>
                          <path d="m194.29,200.62v-.38c4.99-2.69,4.15-7.07,4.15-7.07l.31-.08c.08,0,.92,4.68-4.45,7.53Z" style="fill: #6097b2; stroke-width: 0px;"/>
                          <path d="m212.49,196.78c.15.92.31,2,.38,3.07h-.08s-.08.38-.23,1c-.23-7.45-3.3-11.83-3.3-11.9l.23-.15s2,2.84,2.92,7.68c3.61-3.23.08-9.75,0-9.83l.31-.15s3.76,6.91-.23,10.29Z" style="fill: #6097b2; stroke-width: 0px;"/>
                          <path d="m223.39,184.42h0c-.15.08-.31.08-.54.08-1.77,0-4.68-2.46-4.84-2.53l.23-.23c.92.84,3.61,2.76,4.84,2.46.15.08.23.15.31.23Z" style="fill: #6097b2; stroke-width: 0px;"/>
                        </g>
                        <path d="m192.6,142.33s7.22-1.15,10.83,1.15c3.61,2.3,8.37,8.29,8.37,8.29,0,0-5.61.77-6.3,4.61.08,0-4.07-9.83-12.9-14.05Z" style="fill: #6097b2; stroke-width: 0px;"/>
                        <path d="m181.77,146.1c-3.07,1.69-8.14,7.83-8.37,11.67-.23,3.69,2.53,7.14,4.38,10.06,5.76,9.06,11.9,17.13,14.51,27.72,0,.08,13.29,5.3,28.8-13.36,0,0-8.75-11.83-11.83-21.89-1.23-4.07-2.46-8.45-4.84-12.06-2.61-3.99-7.07-6.3-11.75-5.91-3.99.31-7.91,2.07-10.91,3.76Z" style="fill: #fff; stroke-width: 0px;"/>
                        <path d="m180.46,142.26s1.92,3.3,1.08,5.15c0,0,6.68,2.3,6.68-1.46,0,0-1.23-2.84-.77-4.61l-6.99.92Z" style="fill: #ef6e4b; stroke-width: 0px;"/>
                        <path d="m195.36,165.14s-3.76,1.08-4.68,2.38-1.77,4.3-1.77,4.3h6.45l1.23-2.23,1.38-3-2.61-1.46Z" style="fill: #ef6e4b; stroke-width: 0px;"/>
                        <g>
                          <path d="m189.22,138.57s2.61-1.08.92-8.99c-1.15-5.22-2.76-5.99-3.76-6.07,0,0-1.31-1.92-5.68-1-3.07.61-5.45,2.46-6.53,5.91-1.15,3.53,1.15,11.21,4.07,11.98l10.98-1.84Z" style="fill: #164353; stroke-width: 0px;"/>
                          <path d="m189.83,133.2s1.61-2.3,2.3,0c.69,2.61-1.54,4.07-2.15,3.3-.69-.77-.15-3.3-.15-3.3Z" style="fill: #ff8b66; stroke-width: 0px;"/>
                          <path d="m176.01,135.65s-2.3-1.61-2.15.69c.15,2.69,2.76,3.38,3.07,2.46s-.92-3.15-.92-3.15Z" style="fill: #ff8b66; stroke-width: 0px;"/>
                          <path d="m184.69,144.02c4.38-.69,6.37-3.99,4.99-12.59-.77-4.45-3.46-6.76-8.37-5.99-4.92.84-6.53,3.84-5.84,8.29,1.54,9.22,4.68,10.98,9.22,10.29Z" style="fill: #ff8b66; stroke-width: 0px;"/>
                          <path d="m177.47,136.57c0,.46.46.84,1,.84s1-.38,1-.84-.46-.84-1-.84c-.54,0-1,.38-1,.84Z" style="fill: #db614d; stroke-width: 0px;"/>
                          <path d="m186.53,135.35c.08.46.61.69,1.15.54s.92-.61.84-1c-.08-.46-.61-.69-1.15-.54-.61.08-.92.54-.84,1Z" style="fill: #db614d; stroke-width: 0px;"/>
                          <path d="m178.7,131.81q-.08,0-.15-.08c-.08-.08-.15-.23-.08-.31.61-.92,1.84-1.08,1.92-1.08.15,0,.23.08.23.15,0,.15-.08.23-.15.23,0,0-1.08.15-1.61.92,0,.08-.08.15-.15.15Z" style="fill: #333; stroke-width: 0px;"/>
                          <path d="m186.99,130.43q-.08,0-.15-.08c-.69-.54-1.77-.31-1.77-.31-.15,0-.23-.08-.23-.15,0-.15.08-.23.15-.23s1.31-.23,2.15.38c.08.08.15.23.08.31-.15,0-.15.08-.23.08Z" style="fill: #333; stroke-width: 0px;"/>
                          <path d="m179.54,134.04c.08.54.38.92.69.92.31-.08.46-.54.38-1.08s-.38-.92-.69-.92c-.31.08-.54.54-.38,1.08Z" style="fill: #333; stroke-width: 0px;"/>
                          <path d="m185.38,133.04c.08.54.38.92.69.92.31-.08.46-.54.38-1.08s-.38-.92-.69-.92c-.31.08-.46.54-.38,1.08Z" style="fill: #333; stroke-width: 0px;"/>
                          <path d="m187.22,127.44s-4.92,3.61-11.14,3.84l.15,5.53s-5.76-10.67,5.68-12.52c11.44-1.92,8.14,10.06,8.14,10.06,0,0-.46-5.22-2.84-6.91Z" style="fill: #0e3944; stroke-width: 0px;"/>
                          <path d="m183.15,136.5v-.46s.69-.08.84-.46c.08-.15-.23-.69-.46-1.15-.31-.69-.77-1.46-.92-2.38l.46-.08c.15.84.61,1.61.92,2.23.38.69.61,1.23.46,1.61-.38.69-1.31.69-1.31.69Z" style="fill: #db614d; stroke-width: 0px;"/>
                          <path d="m189.91,127.44c-8.29-3.61-16.2,3.84-16.2,3.84,0,0-.92-6.07.69-7.53.38-.38.84-.69,1.31-1,3.69-2.3,8.6-2.3,10.83-1.46.46.15.84.38,1,.54,1.31,1.46,2.38,5.61,2.38,5.61Z" style="fill: #c74d34; stroke-width: 0px;"/>
                          <path d="m188.83,126.05s-6.99-1.38-13.52,2.92c0,0-.38-3.92.38-6.22,3.69-2.3,8.6-2.3,10.83-1.46,1.31,1.54,2.3,4.76,2.3,4.76Z" style="fill: #fff; stroke-width: 0px;"/>
                          <path d="m174.4,130.58s1.08-4.68,2.61-6.07c2.46-2.23,9.45-3,13.13-1.61,3.69,1.31,0,5.3,0,5.3,0,0-5.84-4.15-15.74,2.38Z" style="fill: #a02e44; stroke-width: 0px;"/>
                          <g>
                            <path d="m186.07,139.19c-.31.23-.69.38-1.23.46-.69.15-1.31.08-1.77,0-1.61-.38-2-1.77-2-1.77.15,0,.23,0,.38.08,1.61.15,3.99-.46,4.99-.69.31-.08.46-.15.46-.15,0,0,.15,1.31-.84,2.07Z" style="fill: #7c2213; stroke-width: 0px;"/>
                            <path d="m186.07,139.19c-.31.23-.69.38-1.23.46-.69.15-1.31.08-1.77,0,.38-.69,1-1,1.61-1,.54,0,1,.23,1.38.54Z" style="fill: #ff5b52; stroke-width: 0px;"/>
                            <path d="m186.45,137.19c-.46.92-1.54,1.23-2.69,1.23-.84,0-1.69-.23-2.3-.54,1.69.15,3.99-.38,4.99-.69Z" style="fill: #fff; stroke-width: 0px;"/>
                          </g>
                        </g>
                        <path d="m185.15,161.84s2.84,4.45,7.76,7.07c0,0,6.07-5.3,13.98-4.84,0,0-6.53,11.83-12.13,13.13-2.92.69-13.59-6.37-13.59-6.37,0,0,2.07-7.53,3.99-8.99Z" style="fill: #ff8b66; stroke-width: 0px;"/>
                        <path d="m174.63,153.85c2.61-4.22,8.68,2.07,10.67,6.53,2.07,4.53,3.53,5.45,3.53,5.45,0,0-5.99,2.53-5.99,7.07.08,0-13.9-9.75-8.22-19.05Z" style="fill: #6097b2; stroke-width: 0px;"/>
                        <path d="m192.9,166.99s3.69-3.61,15.74-8.29l-1.54-4.92c1.38-1.84,3.92-1.84,3.92-1.84,0,0,6.22,8.75,5.15,11.37-.69,1.61-13.59,3.3-23.27,3.69Z" style="fill: #ef6e4b; stroke-width: 0px;"/>
                        <path d="m206.11,159.84s.08-.54.54-1.15.31-1.77.46-2.15,1.08-1.84,1.77-2.07c.61-.31,1.46-.77,1.61.08.15.77-1.15.54-1.69,1.69,0,0,1.31-.38,2.3-.15s1.31,1.15.08,1.15c-1,0-2.3.69-2.3.69,0,0,1.31.23,1.08.77-.31.84-1.92.31-3.84,1.15Z" style="fill: #ff8b66; stroke-width: 0px;"/>
                      </g>
                      <g>
                        <path d="m116.87,176.28c1.08,2.76,5.53,7.53,5.53,7.53,0,0,10.83-6.45,15.74-3.76,4.99,2.69,8.91,4.38,12.13,3.23s-10.6-26.42-10.6-26.42l-17.97-6.84s-.38,4.53-2.46,5.38-4.22,8.29-4.07,9.75c.15,1.38,1.69,11.14,1.69,11.14Z" style="fill: #3e6575; stroke-width: 0px;"/>
                        <path d="m137.07,183.96s-4.61,9.06-14.21,20.74c0,0-1,13.82-26.26,35.56l-2.61-2.07s15.05-23.58,18.05-30.8c3-7.22-1.69-13.82,12.21-32.18l12.83,8.75Z" style="fill: #ef6e4b; stroke-width: 0px;"/>
                        <path d="m122.33,167.91c-3.99,7.6-5.3,17.43-5.3,17.43l-1.84,4.61s6.45,3.46,13.9,4.76l3-7.91-9.75-18.89Z" style="fill: #662c33; stroke-width: 0px;"/>
                        <path d="m143.14,183.19s2,9.98,1.61,25.04c0,0,7.76,11.44,1.38,44.24h-3.38s-2.76-27.88-4.84-35.4c-2.07-7.53-9.91-9.83-10.29-32.79l15.51-1.08Z" style="fill: #ff8b66; stroke-width: 0px;"/>
                        <g>
                          <path d="m145.06,193.94s-6.3,1.15-17.51.61l-.15-1.23-.08-.31-1.15-8.14s-1.08-1.31-2.15-3.46c-.15-.23-.23-.54-.38-.77-1.54-3.23-2.84-7.83-1.31-12.75l2.38.08h.31l7.91.38h.31l2.61.15h.38l1.69.08s8.52,7.68,6.99,21.89l.08,2v.31l.08,1.15Z" style="fill: #8b383e; stroke-width: 0px;"/>
                          <g>
                            <path d="m125.02,167.98c-.23.61-1.69,5.45-.92,13.36-.15-.23-.23-.54-.38-.77-.54-7.22.77-11.75,1-12.59,0-.08.08-.15.08-.15l.23.15c0-.08,0,0,0,0Z" style="fill: #662c33; stroke-width: 0px;"/>
                            <path d="m144.98,192.79c-2.23.54-6.07.77-9.68.77-3.23,0-6.3-.15-7.99-.23l-.08-.31c2.84.15,10.29.46,15.13-.08l-.31-5.07c.08-5.91-1.69-10.98-3.46-14.51-4.38-.77-5.61-4.07-5.84-4.99,0-.15-.08-.23-.08-.23l.31-.08s0,.15.08.31c.31.92,1.46,3.76,5.3,4.61-1.15-2.3-2.3-3.84-2.76-4.45-.15-.15-.23-.31-.23-.31l.23-.23s.15.15.38.54c1.46,2,6.37,9.45,6.3,19.28l.31,5.07c.84-.08,1.61-.23,2.23-.38l.15.31Z" style="fill: #662c33; stroke-width: 0px;"/>
                          </g>
                        </g>
                        <path d="m128.86,133.58c-2.53-1.38-20.66,5.68-20.66,5.68,0,0-2.69,4.76-1,6.68,1.69,1.84,7.6,1.08,9.45,0,1.84-1.08,6.6-1.84,6.6-1.84l5.61-10.52Z" style="fill: #8bbddb; stroke-width: 0px;"/>
                        <path d="m144.91,118.53s3.76,1.46,5.15,5.76-2.69,15.21-1.31,20.27c1.38,4.99,1.23,14.51-3.23,16.51-4.45,2-13.44-1.61-15.44-7.07-1.92-5.45-1.08-26.19,2.61-33.25,3.76-7.07,11.29-3.53,12.21-2.23Z" style="fill: #fa6142; stroke-width: 0px;"/>
                        <path d="m140.61,137.11c1,1.08,3.53-.84,3.53-.84,0,0-.08,9.37-2.76,10.14-2.76.69-9.68-7.37-9.45-9.6s6.45-2,8.68.31Z" style="fill: #8bbddb; stroke-width: 0px;"/>
                        <path d="m130.08,134.81s2.76,2.38,7.6,3.46c4.84,1.15,7.45-1.15,9.91,1.92,3.69,4.68-2.3,13.29-5.45,17.74-1.15,1.69-3.69,6.3-4.15,10.67,0,0-8.37,2.46-15.59-.69l-.54-10.29c-.08,0-4.61-13.82,8.22-22.81Z" style="fill: #0e3944; stroke-width: 0px;"/>
                        <path d="m138.69,144.79s3.84-9.14,4.92-9.68c1.08-.61,3.92.84,4.45,2.07.54,1.23,0,3.99,0,3.99,0,0-3-3.53-9.37,3.61Z" style="fill: #8bbddb; stroke-width: 0px;"/>
                        <path d="m156.96,183.19c-1.77,3.53-5.99,4.61-5.99,4.61,0,0-.31-.46-.84-1.38-.08-.08-.15-.15-.15-.31-3.38-5.45-13.59-22.81-13.36-31.87.23-10.83,7.3-16.74,7.3-16.74,3.61.84,4.68,1.84,4.68,1.84,0,0,1.23,6.14.08,13.52-1.08,7.37-3.15,9.37-2.07,9.91,1,.54,0,1.69,0,1.69,0,0,5.91,8.29,7.07,10.83.69,1.69,1.92,4.53,2.69,6.3.08.15.08.23.15.38.31.77.46,1.23.46,1.23Z" style="fill: #6097b2; stroke-width: 0px;"/>
                        <path d="m146.67,139.34s-4.22,3.15-1.77,7.99l11.83,12.21c-6.45,6.91-7.14,9.75-11.83,12.9l1.77,2.76s16.36-12.59,16.43-15.67c0-1.31-10.06-17.2-16.43-20.2Z" style="fill: #ff8b66; stroke-width: 0px;"/>
                        <path d="m144.68,172.44s-2.23.23-3.69.61c-1.38.38-3.3.69-3.38,1-.08.31,3.15,0,3.15,0,0,0-2.61,1.08-2.69,1.46s3.3-.31,3.3-.31c0,0-2.15,1.31-2,1.69s2.76-.54,2.76-.54c0,0-.46,1.23-1,1.84,0,0,.54.31,1.54-.84s2.69-.77,3.99-1.77c1.23-1.08-.84-3.3-2-3.15Z" style="fill: #ff8b66; stroke-width: 0px;"/>
                        <path d="m132.62,136.27s-3.23,2.07-5.3,7.14c-2.07,5.07-8.52,14.59-9.98,17.05-1.54,2.46-.46,15.82-.46,15.82,0,0-1.92-8.14-2.76-11.29-.84-3.15,2.69-10.98,3.23-11.37s3.3.31,2.76-2.84c-.54-3.15,6.84-16.82,8.75-17.2,0,0,3.15.61,3.76,2.69Z" style="fill: #6097b2; stroke-width: 0px;"/>
                        <path d="m122.56,136.96c-.08.08-.15.23-.23.31-.77,1.08-2.07,1.92-2.07,1.92,0,0-2.46,3.46-2.46,3.84,0,.31-4.3,3.46-6.22,3.38h0c-.23,0-.46-.08-.61-.23-1.15-1.08,3.84-9.98,4.92-11.9.08-.15.15-.23.15-.31s.08-.08.08-.08c0,0-.84-3.23,2.76-2.61,3,.46,3.61,2.92,3.92,4.53.08.38,0,.77-.23,1.15Z" style="fill: #6097b2; stroke-width: 0px;"/>
                        <path d="m109.89,140.34c2.53-3.3,11.29-9.68,15.9-11.52l1.15,2.15s-8.99,7.83-11.06,11.21c-2.07,3.38-4.68,4.76-7.22,3.61-2.46-1.08.69-4.76,1.23-5.45Z" style="fill: #ff8b66; stroke-width: 0px;"/>
                        <path d="m121.71,136.27l-.46.54-.23.31-.77.92s-2,2.38-1.92,3.38c.08.69-3.76,3.76-6.68,5.07-1.23.54-2.3.77-2.92.38-2.15-1.23-1.69-4.99-.46-7.45,1.08-2.23,5.76-5.07,6.99-5.76.15-.08.23-.15.31-.15h0l.46-1.77s1.61-1,2.92-.38c0,0-2.84.15-2.38,1.23.38,1.08,4.38,3.69,5.15,3.69Z" style="fill: #8bbddb; stroke-width: 0px;"/>
                        <g>
                          <path d="m132,127.21c-2.84,1.15-2.46,3.76-5.07,3.76-1.61,0-1.84-1.84-1.84-1.84.77-1.61,1.23-4.3,1.31-5.61.08-1.31.54-.77.54-.77v-.38c0-.84-.23-1.46.38-1.15.61.38.84,2.84.84,2.84.54-3.61-.23-4.07.38-3.76.84.46.84,3.61.84,3.69.69-2.07.46-3.3,1-2.76.46.46-.23,4.3-.54,5.68-.08.31-.08.54-.08.54,2.23-1.08,2.23-.23,2.23-.23Z" style="fill: #ff8b66; stroke-width: 0px;"/>
                          <path d="m129.85,126.9c-.08.31-.08.54-.08.54,0,0-1.08-.08-1.84,1,0,0,.23-1.46,1.92-1.54Z" style="fill: #ef6e4b; stroke-width: 0px;"/>
                          <path d="m127.09,125.29c0-.31.15-2.07-.15-2.53v-.38c.69.15.23,2.53.15,2.92Z" style="fill: #ef6e4b; stroke-width: 0px;"/>
                        </g>
                        <path d="m128.86,140.34s1.92-5.22,2.53-6.37c.61-1.15,3.84-1,6.22-.54,2.46.46,2.92,3.69,2.92,3.69,0,0-7.3-3.46-11.67,3.23Z" style="fill: #8bbddb; stroke-width: 0px;"/>
                        <path d="m141.37,130.05s-2.3,4.3-2.3,8.99c0,0-3.76,2.53-5.15-.61,0,0,1.46-4.22.77-9.83-.46-3.84,6.68,1.46,6.68,1.46Z" style="fill: #ef6e4b; stroke-width: 0px;"/>
                        <g>
                          <path d="m133.92,124.13s-.69-2.46-1.92-.69c-1.38,2,0,3.92.77,3.46.84-.54,1.15-2.76,1.15-2.76Z" style="fill: #ff8b66; stroke-width: 0px;"/>
                          <path d="m144.91,130.43s2.46-.69,1.61,1.23c-1,2.23-3.38,2-3.38,1.15,0-.92,1.77-2.38,1.77-2.38Z" style="fill: #ff8b66; stroke-width: 0px;"/>
                          <path d="m134.92,134.81c-3.46-2-4.15-5.38-.31-12.21,2-3.53,4.99-4.68,8.91-2.46s4.3,5.3,2.38,8.83c-4.15,7.3-7.37,7.83-10.98,5.84Z" style="fill: #ff8b66; stroke-width: 0px;"/>
                          <path d="m143.37,130.74c-.15.38-.61.54-1.15.38-.46-.15-.77-.61-.61-1s.61-.54,1.15-.38c.46.15.69.61.61,1Z" style="fill: #db614d; stroke-width: 0px;"/>
                          <path d="m136.07,126.9c-.23.31-.77.38-1.15.08-.46-.31-.61-.77-.38-1.15.23-.31.77-.38,1.15-.08.46.31.61.84.38,1.15Z" style="fill: #db614d; stroke-width: 0px;"/>
                          <path d="m143.83,126.36c-.08,0-.15-.08-.23-.15-.23-.77-1.08-1.23-1.08-1.23-.08-.08-.15-.15-.08-.31.08-.08.15-.15.31-.08.08,0,1,.54,1.31,1.46,0,.15-.08.23-.23.31.08,0,0,0,0,0Z" style="fill: #333; stroke-width: 0px;"/>
                          <path d="m139.07,122.9h-.08s-.84-.54-1.61-.31c-.08,0-.23,0-.23-.15,0-.08,0-.23.15-.23.92-.31,1.92.31,1.92.31.08.08.15.15.08.31-.08.08-.15.08-.23.08Z" style="fill: #333; stroke-width: 0px;"/>
                          <path d="m142.37,127.97c-.23.46-.61.69-.84.54-.23-.15-.23-.61,0-1,.23-.46.61-.69.84-.54.31.15.31.61,0,1Z" style="fill: #333; stroke-width: 0px;"/>
                          <path d="m137.53,125.36c-.23.46-.61.69-.84.54-.23-.15-.23-.61,0-1,.23-.46.61-.69.84-.54.23.08.23.54,0,1Z" style="fill: #333; stroke-width: 0px;"/>
                          <path d="m141.37,127.13s.92-.92,1.31-.54c.38.31.15,1.38.15,1.38h.77l-.69-.23s.23-1.15-.23-1.38c-.54-.38-1.31.77-1.31.77Z" style="fill: #333; stroke-width: 0px;"/>
                          <path d="m137.92,125.36s.31-1.23-.15-1.38c-.46-.15-1.31.54-1.31.54l-.46-.69.54.46s.84-.77,1.31-.54c.61.31.08,1.61.08,1.61Z" style="fill: #333; stroke-width: 0px;"/>
                          <path d="m144.45,121.6s-1.23-1.77-3-.38c-1.69,1.38-5.61,3.61-7.53,2.84-1.92-.69,4.15-8.91,9.45-6.53,5.3,2.38,4.84,10.14,2.61,12.59-2.23,2.46-1.15.15-1.15.15,0,0,.15-3.53.84-5.84.84-2.15-1.23-2.84-1.23-2.84Z" style="fill: #fa6142; stroke-width: 0px;"/>
                          <path d="m138.61,129.05c-.08,0-.23,0-.31-.08l.08-.38c.38.08.54-.08.61-.23.15-.23.08-.46,0-.54s-.15-.08-.31,0l-.23-.38c.46-.23.69,0,.77.08.23.23.23.69.08,1.08-.08.31-.38.46-.69.46Z" style="fill: #db614d; stroke-width: 0px;"/>
                        </g>
                        <g>
                          <path d="m164.11,159c-.23,3.07-7.76,13.06-9.06,13.36-.31.08-.69.31-1,.46-.15.08-.23.23-.38.31-.69.61-1.23,1.23-1.23,1.23-2.23-.15-8.45-3-6.45-3.69.15,0,.23-.08.38-.23l.23-.23c2.38-2,6.91-9.98,6.99-10.6,0-.69.84-.77.84-.77,0,0-4.3-6.3-6.84-7.07-2.53-.77-3.76-3.76-3.76-3.76-2.46-10.44,4.68-8.83,4.68-8.83,5.3,3.3,15.82,16.74,15.59,19.81Z" style="fill: #8bbddb; stroke-width: 0px;"/>
                          <path d="m154.04,172.9c-.15.08-.23.23-.38.31-3.38-.23-6.22-1.92-7.3-2.61l.23-.23c1.15.77,4.07,2.38,7.45,2.53Z" style="fill: #3e6575; stroke-width: 0px;"/>
                        </g>
                        <path d="m122.56,136.96c-.08.08-.15.23-.23.31-.46,0-.92-.08-1.38-.15-2.23-.46-3.99-1.69-5.07-2.84l-.69-.69c.15-.08.23-.15.31-.15.15.15.38.38.54.61,1.15,1.08,2.84,2.38,5.15,2.84.46.08.92.08,1.38.08Z" style="fill: #3e6575; stroke-width: 0px;"/>
                        <path d="m156.5,181.96c-1.08,1.77-3,3.92-6.3,4.45-.08-.08-.15-.15-.15-.31,3.46-.54,5.38-2.76,6.37-4.53-.08.15,0,.31.08.38Z" style="fill: #3e6575; stroke-width: 0px;"/>
                        <g>
                          <path d="m98.98,239.48s-.77.77-1.61,2.23.08,2.76-3.92,6.07c0,0-7.99-4.68-11.6-10.75,0,0,.08-1.69,1.84-2.15.92-.23,3.53,1,5.99,1.46.38.08.69.15,1.08.15.46,0,.84.08,1.31,0,.38,0,.77-.15,1.08-.23h0c.84-.38,1.54-1,1.84-2.23,0,0,2.15,1.23.69,3.3,0-.15,2.53-1.23,3.3,2.15Z" style="fill: #fff; stroke-width: 0px;"/>
                          <path d="m93.53,247.7s-7.99-4.68-11.6-10.75c0,0,1.38-.31,2.46,1.69,1.08,2.07,9.75,6.6,9.14,9.06Z" style="fill: #6097b2; stroke-width: 0px;"/>
                          <path d="m93.53,238.18c-.61,1-.61-.84-1.54-1.77.38,0,.77-.15,1.08-.23h0c.38.46,1,1.23.46,2Z" style="fill: #6097b2; stroke-width: 0px;"/>
                          <path d="m90.99,238.25c-.69.61-.92-1.08-1.31-1.92.38.08.69.15,1.08.15.38.54.77,1.31.23,1.77Z" style="fill: #6097b2; stroke-width: 0px;"/>
                        </g>
                        <g>
                          <path d="m148.29,260.3h-11.37s-.46-1.61,0-3.3c.23-.77,1.38-1.46,2.46-2.46.31-.31.61-.54.84-.84.23-.23.38-.54.54-.84.23-.38.38-.77.46-1.15.15-.84.08-1.84-.38-3.07,0,0,3.84-.84,5.22,1.31,0,0,.15-1,1.38-.31,0,0-.15,1.92.08,3.61.31,1.54,1.84,2,.77,7.07Z" style="fill: #fff; stroke-width: 0px;"/>
                          <path d="m145.37,253.46c-.08.08-.23.15-.38.15s-.23,0-.31-.08c-.61-.46-1.92-1.23-3.76-.69.23-.38.38-.77.46-1.15.77-.31,2.15-.46,3.92,1.08.23.15.23.46.08.69Z" style="fill: #6097b2; stroke-width: 0px;"/>
                          <path d="m144.37,255.3l-.08.08c-.15.23-.46.31-.69.15-.77-.46-2.53-1.31-4.22-1.08.31-.31.61-.54.84-.84.84-.23,2.46-.31,3.99,1,.23.23.31.46.15.69Z" style="fill: #6097b2; stroke-width: 0px;"/>
                        </g>
                        <g>
                          <path d="m140.3,131.05s-.54,1.23-1.84,1.46c-.54.08-1.15,0-1.92-.38-.54-.31-.92-.61-1.15-.92-.77-1.15-.15-2.46-.15-2.46,0,0,.08.08.31.23.69.46,2.69,1.84,4.38,2.07h.38Z" style="fill: #7c2213; stroke-width: 0px;"/>
                          <path d="m139.91,130.97c-.31.15-.69.23-1.15.23h-.08c-1.54,0-2.76-.84-3.15-2.3.69.54,2.69,1.84,4.38,2.07Z" style="fill: #fff; stroke-width: 0px;"/>
                          <path d="m138.45,132.5c-.54.08-1.15,0-1.92-.38-.54-.31-.92-.61-1.15-.92.23-.08.46-.15.77-.15.92,0,2,.61,2.3,1.46Z" style="fill: #ff5b52; stroke-width: 0px;"/>
                        </g>
                      </g>
                    </g>
                  </g>
                </g>
              </g>
              <path d="m158.17,0c-12.64,0-22.89,10.25-22.89,22.89s10.25,22.89,22.89,22.89,22.89-10.25,22.89-22.89S170.82,0,158.17,0Zm0,39.97c-9.43,0-17.08-7.65-17.08-17.08s7.65-17.08,17.08-17.08,17.08,7.65,17.08,17.08-7.65,17.08-17.08,17.08Z" style="fill: #efaf3f; stroke-width: 0px;"/>
              <path d="m173,30.86c-2.86,5.42-8.55,9.11-15.11,9.11s-11.87-3.46-14.82-8.59c-1.56,1.41-2.78,3.19-3.54,5.19,4.17,5.59,10.84,9.21,18.36,9.21s14.8-3.97,18.92-10.01c-.87-1.93-2.18-3.61-3.81-4.92Z" style="fill: #e28a2b; stroke-width: 0px;"/>
              <path d="m153.47,31.39h9.4c5.5,0,9.97,4.47,9.97,9.97v10.48h-29.34v-10.48c0-5.5,4.47-9.97,9.97-9.97Z" style="fill: #efaf3f; stroke-width: 0px;"/>
            </g>
          </g>
          <circle cx="18.22" cy="163.2" r="18.22" style="fill: #efaf3f; stroke-width: 0px;"/>
          <path d="m33.93,156.59c-2.35.33-2.7.64-3.61,3.38-1.06,3.2-3.7,11.59-5.59,17.72h-1.27c-1.73-5.14-3.91-11.32-5.68-16.28-1.9,5.62-3.82,11.19-5.53,16.28h-1.25c-1.61-5.56-3.56-11.93-5.37-17.79-.86-2.68-1.25-3.08-3.4-3.31v-.99h8.58v.99c-2.48.26-2.55.65-2.08,2.34,1.27,4.39,2.57,8.74,3.9,13.26,1.81-5.21,3.75-10.88,5.42-16.31h1.2c1.87,5.58,3.74,10.8,5.66,16.34,1.37-4.29,3.22-10.18,3.91-12.9.5-1.94.22-2.41-2.63-2.72v-.99h7.74v.99Z" style="fill: #fff5e6; stroke-width: 0px;"/>
          <circle cx="158.31" cy="22.97" r="18.22" style="fill: #efaf3f; stroke-width: 0px;"/>
          <path d="m170.27,13.12c-2.12.24-2.81.59-2.91,2.12-.05,1.11-.12,2.47-.12,5.54v13.38h-1.38l-14.24-17.34v8.21c0,2.99.09,4.46.17,5.43.08,1.66.89,2.21,3.31,2.4v.99h-8.15v-.99c2.04-.17,2.85-.67,3-2.29.11-1.09.17-2.54.17-5.56v-8.41c0-.97-.07-1.54-.67-2.3-.63-.84-1.35-1.02-2.94-1.18v-.99h5.28l13.91,16.45v-7.8c0-3.07-.06-4.45-.16-5.49-.1-1.49-.83-2-3.52-2.17v-.99h8.25v.99Z" style="fill: #fff5e6; stroke-width: 0px;"/>
          <circle cx="296.78" cy="163.06" r="18.22" style="fill: #efaf3f; stroke-width: 0px;"/>
          <path d="m306.38,170.18c-.19.88-1.1,4.39-1.43,5.38h-16.44v-.98c3.1-.25,3.32-.52,3.32-3.27v-13.12c0-2.95-.37-3.12-2.84-3.35v-.99h10.34c3.21,0,4.49-.03,4.9-.07.03.79.17,3.34.31,5.17l-1.06.17c-.3-1.14-.68-1.96-1.08-2.64-.55-1.02-1.25-1.25-3.21-1.25h-2.99c-1.08,0-1.16.09-1.16,1.09v7.31h3.63c2.39,0,2.59-.5,3.01-2.79h1.08v6.99h-1.08c-.45-2.42-.72-2.76-3.04-2.76h-3.6v6.49c0,2.33.61,2.62,2.36,2.66h2.98c2.01,0,2.37-.29,3.11-1.16.67-.75,1.37-2.1,1.85-3.12l1.04.27Z" style="fill: #fff5e6; stroke-width: 0px;"/>
          <circle cx="159.12" cy="300.72" r="18.22" style="fill: #efaf3f; stroke-width: 0px;"/>
          <path d="m163.23,296.5c-.51-1.91-1.32-3.84-4.04-3.84-2.16,0-3,1.57-3,3.1,0,1.93,1.24,2.94,3.68,4.19,3.42,1.75,5.01,3.12,5.01,5.9,0,3.12-2.68,5.47-6.5,5.47-1.76,0-3.3-.49-4.52-.95-.22-.79-.6-2.95-.8-4.48l.94-.24c.58,1.92,1.92,4.57,4.91,4.57,2.03,0,3.27-1.39,3.27-3.27,0-2.14-1.16-3.05-3.7-4.43-3.04-1.65-4.8-3.05-4.8-5.81s2.19-5.1,6.12-5.1c1.69,0,3.28.44,3.89.55.12,1.05.25,2.27.48,4.15l-.94.19Z" style="fill: #fff5e6; stroke-width: 0px;"/>
        </g>
      </g>
    </g>
  </g>
</svg>