<?xml version="1.0" encoding="UTF-8"?>
<svg xmlns="http://www.w3.org/2000/svg" width="250" height="338.41" xmlns:xlink="http://www.w3.org/1999/xlink" viewBox="0 0 250 338.41">
  <defs>
    <clipPath id="clippath">
      <circle cx="125" cy="125" r="92.41" style="fill: none; stroke-width: 0px;"/>
    </clipPath>
  </defs>
  <g style="isolation: isolate;">
    <g id="_圖層_2" data-name="圖層 2">
      <g id="_第一cut" data-name="第一cut">
        <g id="activity_competition7">
          <path d="m250,125c0,69.04-125,202.6-125,202.6,0,0-125-133.56-125-202.6S55.96,0,125,0s125,55.96,125,125Z" style="fill: #efaf3f; stroke-width: 0px;"/>
          <circle cx="125" cy="125" r="101.2" style="fill: #e28a2b; stroke-width: 0px;"/>
          <path d="m198.25,331.62c0,3.75-33.69,6.79-75.25,6.79s-75.25-3.04-75.25-6.79,33.69-6.79,75.25-6.79,75.25,3.04,75.25,6.79Z" style="fill: #efaf3f; mix-blend-mode: multiply; opacity: .21; stroke-width: 0px;"/>
          <g>
            <path d="m218.32,125c0,51.54-41.78,93.32-93.32,93.32S31.68,176.54,31.68,125,73.46,31.68,125,31.68s93.32,41.78,93.32,93.32Z" style="fill: #baf1f4; stroke-width: 0px;"/>
            <g style="clip-path: url(#clippath);">
              <g>
                <rect x="-49.39" y="25.62" width="277.07" height="198.66" style="fill: #beee90; stroke-width: 0px;"/>
                <g>
                  <path d="m227.68,79.08v15.61h-70.64c4.26-3.04,8.99-5,15.55-2.84,0,0-.81-7.5,3.72-8.65,4.6-1.22,6.76,2.03,6.83,2.23-.14-.27-2.97-8.04,4.53-11.83,7.03-3.58,11.15,3.11,11.15,3.11,0,0,2.84-11.76,13.86-10.21,10.48,1.49,9.94,13.86,9.94,13.86,0,0,1.96-2.64,4.87-1.35.07.07.14.07.2.07Z" style="fill: #fff; stroke-width: 0px;"/>
                  <path d="m91.41,64.69s-8.04-4.8-14.26-3.85c0,0,1.35-7.5-3.99-9.06-5.34-1.55-7.16,3.11-7.16,3.11,0,0-2.1-16.02-14.67-14.4-12.57,1.55-11.02,14.74-11.02,14.74,0,0-8.31-4.93-10.21,5.61,0,0-10.48-2.57-12.37,3.85h73.68Z" style="fill: #fff; stroke-width: 0px;"/>
                </g>
                <g>
                  <g>
                    <polygon points="100.33 209.54 108.92 209.54 105.74 77.26 103.44 77.26 100.33 209.54" style="fill: #fff; stroke-width: 0px;"/>
                    <polygon points="104.93 77.26 104.93 209.54 108.92 209.54 105.74 77.26 104.93 77.26" style="fill: #499900; isolation: isolate; opacity: .3; stroke-width: 0px;"/>
                    <g>
                      <g>
                        <path d="m96.75,83.82c-2.23,1.15-35.22,4.66-35.22,4.66,0,0,30.55-12.98,33.05-13.11,2.5-.07,10.14,1.89,10.14,1.89,0,0-5.75,5.48-7.98,6.56Z" style="fill: #fff; stroke-width: 0px;"/>
                        <path d="m61.47,88.48l43.19-11.22s-7.64-1.96-10.14-1.89c-2.5.14-33.05,13.11-33.05,13.11Z" style="fill: #499900; isolation: isolate; opacity: .3; stroke-width: 0px;"/>
                      </g>
                      <g>
                        <path d="m108.18,86.92c-1.35-2.1-3.51-9.67-3.51-9.67,0,0,7.57,2.1,9.67,3.45s21.97,27.92,21.97,27.92c0,0-26.7-19.6-28.12-21.7Z" style="fill: #fff; stroke-width: 0px;"/>
                        <path d="m136.29,108.69l-31.63-31.43s7.57,2.1,9.67,3.45c2.16,1.42,21.97,27.98,21.97,27.98Z" style="fill: #499900; isolation: isolate; opacity: .3; stroke-width: 0px;"/>
                      </g>
                      <g>
                        <path d="m103.04,67.12c.14-2.5,13.92-32.72,13.92-32.72,0,0-4.39,32.92-5.54,35.08-1.22,2.23-6.76,7.77-6.76,7.77,0,0-1.76-7.64-1.62-10.14Z" style="fill: #fff; stroke-width: 0px;"/>
                        <path d="m117.03,34.4l-12.37,42.85s-1.76-7.64-1.62-10.14c.2-2.5,13.99-32.72,13.99-32.72Z" style="fill: #499900; isolation: isolate; opacity: .3; stroke-width: 0px;"/>
                      </g>
                      <path d="m103.78,73.95c1.83-.47,3.72.61,4.19,2.43s-.61,3.72-2.43,4.19c-1.83.47-3.72-.61-4.19-2.43s.61-3.72,2.43-4.19Z" style="fill: #fff; stroke-width: 0px;"/>
                      <path d="m104.12,75.16c1.15-.27,2.3.41,2.64,1.55.27,1.15-.41,2.3-1.55,2.64-1.15.27-2.3-.41-2.64-1.55-.27-1.15.41-2.3,1.55-2.64Z" style="fill: #499900; isolation: isolate; opacity: .3; stroke-width: 0px;"/>
                    </g>
                  </g>
                  <g>
                    <polygon points="53.83 209.54 60.39 209.54 58.02 107.95 56.2 107.95 53.83 209.54" style="fill: #fff; stroke-width: 0px;"/>
                    <polygon points="57.34 107.95 57.34 209.54 60.39 209.54 58.02 107.95 57.34 107.95" style="fill: #499900; isolation: isolate; opacity: .3; stroke-width: 0px;"/>
                    <g>
                      <g>
                        <path d="m53.36,114.91c-1.28,1.42-23.86,13.25-23.86,13.25,0,0,18.18-17.91,19.94-18.66s7.77-1.49,7.77-1.49c0,0-2.64,5.41-3.85,6.89Z" style="fill: #fff; stroke-width: 0px;"/>
                        <path d="m29.43,128.16l27.71-20.21s-6.02.74-7.77,1.49c-1.76.81-19.94,18.72-19.94,18.72Z" style="fill: #499900; isolation: isolate; opacity: .3; stroke-width: 0px;"/>
                      </g>
                      <g>
                        <path d="m62.41,113.83c-1.55-1.15-5.27-5.88-5.27-5.88,0,0,6.02-.61,7.91-.27,1.89.34,23.59,13.79,23.59,13.79,0,0-24.67-6.49-26.23-7.64Z" style="fill: #fff; stroke-width: 0px;"/>
                        <path d="m88.64,121.47l-31.5-13.52s6.02-.61,7.91-.27c1.89.41,23.59,13.79,23.59,13.79Z" style="fill: #499900; isolation: isolate; opacity: .3; stroke-width: 0px;"/>
                      </g>
                      <g>
                        <path d="m53.15,101.12c-.61-1.83.74-27.31.74-27.31,0,0,6.15,24.74,5.88,26.63-.2,1.89-2.64,7.44-2.64,7.44,0,0-3.45-4.93-3.99-6.76Z" style="fill: #fff; stroke-width: 0px;"/>
                        <path d="m53.9,73.88l3.24,34.13s-3.45-5-3.99-6.83c-.61-1.89.74-27.31.74-27.31Z" style="fill: #499900; isolation: isolate; opacity: .3; stroke-width: 0px;"/>
                      </g>
                      <path d="m55.59,105.85c1.15-.88,2.84-.61,3.65.61.88,1.15.61,2.84-.61,3.65-1.15.88-2.84.61-3.65-.61-.81-1.15-.54-2.84.61-3.65Z" style="fill: #fff; stroke-width: 0px;"/>
                      <path d="m56.2,106.59c.74-.54,1.76-.41,2.3.34s.41,1.76-.34,2.3c-.74.54-1.76.41-2.3-.34-.61-.68-.41-1.76.34-2.3Z" style="fill: #499900; isolation: isolate; opacity: .3; stroke-width: 0px;"/>
                    </g>
                  </g>
                </g>
                <g>
                  <g>
                    <g>
                      <path d="m144.81,203.25h34.61c-8.18-40.42-7.84-102.81-7.16-130.79.2-8.99.47-14.47.47-14.47l-17.64-14.67c.54,11.42.88,22.37.95,32.85v6.08h0v5.2c-.34,52.52-6.22,91.72-11.22,115.79Z" style="fill: #521f02; stroke-width: 0px;"/>
                      <path d="m124.4,46.84c-.68,30.48,23.32,38.66,31.63,40.62,1.76.41,2.77.54,2.77.54l.07-11.63c-.95,0-1.89-.07-2.84-.14h-.14c-27.65-2.43-28.93-29.34-28.93-29.34h-2.57v-.07Z" style="fill: #521f02; stroke-width: 0px;"/>
                      <path d="m156.03,87.47c-.34,52.52-6.29,91.72-11.29,115.79h10.75c.27-1.42.54-2.91.81-4.53,8.58-54.95,3.85-135.66,3.85-135.66,3.51,5.54,9.06,8.25,12.1,9.4.2-8.99.47-14.47.47-14.47l-17.64-14.67.81,32.85.14,6.08h0c-24.6-3.58-30.08-26.23-31.36-35.42h-.34c-.61,30.48,23.39,38.73,31.7,40.62Z" style="isolation: isolate; opacity: .2; stroke-width: 0px;"/>
                    </g>
                    <g>
                      <path d="m227.68,25.62v32.38c-6.69-.41-12.23-5.27-12.64-5.68h0s1.01,8.52-6.83,10.27c-7.84,1.76-11.29-9.4-11.29-9.4,0,0-.07,16.09-17.71,16.15-2.57,0-4.87-.41-6.83-1.08h0c-11.49-3.85-13.25-17.24-13.25-17.24,0,0-.27,4.26-3.45,7.03h0c-.07.07-.14.14-.2.2-1.08.81-2.43,1.55-4.19,1.83-7.44,1.35-7.77-9.13-7.77-9.13,0,0-1.08,8.85-11.96,10.48-.81.14-1.69.2-2.64.27h-.68c-.68,0-1.35,0-1.96-.07h0c-12.3-.95-15.28-12.78-15.28-12.78,0,0-3.72,9.53-14.8,5.07-11.09-4.46-4.06-18.18-4.06-18.18,0,0-9.46,1.49-9.87-5.75-.07-1.69.54-3.18,1.62-4.39h143.77Z" style="fill: #499900; stroke-width: 0px;"/>
                      <path d="m215.04,52.32h0s1.01,8.52-6.83,10.27c-7.84,1.76-11.29-9.4-11.29-9.4,0,0-.07,16.09-17.71,16.15-2.57,0-4.87-.41-6.83-1.08h0c-11.49-3.85-13.25-17.24-13.25-17.24,0,0-.27,4.26-3.45,7.03h0c-.07.07-.14.14-.2.2-1.08.81-2.43,1.55-4.19,1.83-7.44,1.35-7.77-9.13-7.77-9.13,0,0-1.08,8.85-11.96,10.48-.81.14-1.69.2-2.64.27h-.68c-.68,0-1.35,0-1.96-.07h0c-12.3-.95-15.28-12.78-15.28-12.78,0,0-3.72,9.53-14.8,5.07-11.09-4.46-4.06-18.18-4.06-18.18,0,0-9.46,1.49-9.87-5.75-.07-1.69.54-3.18,1.62-4.39h63.67c.74,6.42,3.92,13.99,14.47,15.28,17.78,2.1,24.2-13.38,24.94-15.28h.07c.14,1.35,1.01,10.21,7.37,10.07,6.83-.14,9.06-7.71,9.06-7.71,0,0,2.97,15.34,18.59,15.34,2.23,0,4.06-.34,5.61-.81v15.48c-6.69-.41-12.23-5.27-12.64-5.68Z" style="isolation: isolate; opacity: .3; stroke-width: 0px;"/>
                    </g>
                  </g>
                  <g>
                    <g>
                      <g>
                        <path d="m94.45,133.77v-1.28c0-.74-.61-1.35-1.42-1.35h-17.03c-.81,0-1.49.61-1.42,1.35v1.28c0,.27.07.54.27.74h-4.8s2.57-.41,2.7-2.03c.14-1.08.47-2.91,2.7-2.91h18.18c2.23,0,2.64,1.76,2.7,2.91.14,1.62,2.7,2.03,2.7,2.03h-4.87c.14-.2.27-.47.27-.74Z" style="fill: #005c3a; stroke-width: 0px;"/>
                        <path d="m94.45,133.77v-1.28c0-.74-.61-1.35-1.42-1.35h-17.03c-.81,0-1.49.61-1.42,1.35v1.28c0,.27.07.54.27.74h-4.8s2.57-.41,2.7-2.03c.14-1.08.47-2.91,2.7-2.91h18.18c2.23,0,2.64,1.76,2.7,2.91.14,1.62,2.7,2.03,2.7,2.03h-4.87c.14-.2.27-.47.27-.74Z" style="isolation: isolate; opacity: .4; stroke-width: 0px;"/>
                      </g>
                      <g>
                        <polygon points="70.12 210.69 66.81 210.69 66 204.74 70.05 204.74 70.12 210.69" style="fill: #1a212d; stroke-width: 0px;"/>
                        <polygon points="98.91 210.69 102.29 210.69 103.11 204.74 99.05 204.74 98.91 210.69" style="fill: #1a212d; stroke-width: 0px;"/>
                      </g>
                      <path d="m111.22,134.51l-.07,1.15-.14,2.37-.14,2.37-3.45,62.12c-.14,2.57-2.84,4.6-6.08,4.6h-33.59c-1.55,0-3.04-.47-4.12-1.28-.68-.47-1.22-1.08-1.55-1.83-.27-.47-.41-1.01-.41-1.55l-3.45-62.12-.14-2.37-.14-2.37-.07-1.15h53.33v.07Z" style="fill: #005c3a; stroke-width: 0px;"/>
                      <polygon points="111.15 135.66 110.88 140.32 58.16 140.32 57.95 135.66 111.15 135.66" style="isolation: isolate; opacity: .3; stroke-width: 0px;"/>
                      <path d="m117.17,138.03H51.87c-.07-1.28.54-2.5,1.42-3.31.95-.88,2.23-1.35,3.65-1.35h55.09c2.97-.07,5.2,2.03,5.14,4.66Z" style="fill: #005c3a; stroke-width: 0px;"/>
                      <path d="m117.17,138.03h-6.15l-.14,2.37-3.45,62.12c-.14,2.57-2.84,4.6-6.08,4.6h-33.59c-1.55,0-3.04-.47-4.12-1.28-.68-.47-1.22-1.08-1.55-1.83,27.92-10.75,35.42-47.92,37.51-66.04.14-1.28.27-2.43.34-3.51.07-.41.07-.81.14-1.22h12.03c2.91.07,5.14,2.16,5.07,4.8Z" style="isolation: isolate; opacity: .3; stroke-width: 0px;"/>
                    </g>
                    <g>
                      <path d="m87.15,168.58v1.35c-.07,0-.14.07-.14.07-.61-1.08-1.28-2.23-1.89-3.31-.07-.2-.07-.34,0-.47.61-1.08,1.22-2.16,1.96-3.51.07.68.07,1.15.07,1.69,2.37-.07,4.73.27,7.16-.81-1.01,1.55-1.69,3.24-3.04,4.46-.54.47-1.22.54-1.89.54-.68,0-1.42,0-2.23,0Z" style="fill: #fff; stroke-width: 0px;"/>
                      <path d="m75.66,157.97c-.41-.27-.81-.47-1.35-.88h3.99c.27,0,.41.14.54.34.61,1.01,1.22,2.1,1.89,3.18-.54.07-.81-.41-1.42-.47-1.01,2.1-2.7,3.92-2.84,6.56-.81-1.42-1.69-2.77-2.23-4.26-.27-.81-.14-1.62.27-2.37.34-.68.74-1.35,1.15-2.1Z" style="fill: #fff; stroke-width: 0px;"/>
                      <path d="m82.69,149.65c1.55.07,2.97-.07,4.46.14,1.01.14,1.76.61,2.3,1.55.41.68.81,1.35,1.22,2.03.47-.2.81-.41,1.22-.68.07,0,.07.07.14.07-.68,1.08-1.28,2.16-1.96,3.24-.07.14-.27.2-.41.2h-3.92c.47-.34.81-.54,1.28-.88-1.35-1.89-2.16-4.12-4.33-5.68Z" style="fill: #fff; stroke-width: 0px;"/>
                      <path d="m84.11,164.32v4.19h-5c-.88,0-1.55-.41-1.96-1.22-.41-.95-.27-1.89.2-2.77.14-.2.27-.2.47-.2,2.1,0,4.19,0,6.29,0Z" style="fill: #fff; stroke-width: 0px;"/>
                      <path d="m80.87,157.49c-1.22-.68-2.43-1.42-3.65-2.1.95-1.55,1.76-3.11,2.7-4.6.47-.74,1.22-.95,2.1-.81.95.2,1.62.74,2.1,1.55.14.2.07.34-.07.47-1.08,1.76-2.1,3.58-3.18,5.48Z" style="fill: #fff; stroke-width: 0px;"/>
                      <path d="m92.16,155.94c.95,1.55,1.83,3.04,2.64,4.53.41.74.27,1.55-.27,2.23-.61.74-1.49,1.08-2.43,1.15-.2,0-.27-.14-.41-.27-1.08-1.83-2.1-3.65-3.18-5.48,1.22-.74,2.37-1.42,3.65-2.16Z" style="fill: #fff; stroke-width: 0px;"/>
                    </g>
                  </g>
                  <g>
                    <path d="m79.92,202.17s0-7.1,5.61-7.57c5.61-.47,7.16,2.37,7.16,2.37,0,0-7.44-8.72-3.11-12.17s6.22,8.18,6.22,8.18c0,0-.74-15.41,10.21-14.19,10.95,1.22,12.57,12.57,12.57,12.57,0,0,1.49-5.34,5.88-4.46s2.97,7.57,2.97,7.57c0,0,3.65-6.89,8.52-5.68,4.87,1.22-4.19,7.37-4.19,7.37,0,0,8.04-3.24,9.33,6.08h-61.17v-.07Z" style="fill: #499900; stroke-width: 0px;"/>
                    <path d="m84.65,202.17s1.55-4.73,7.57-2.37c0,0-.68-4.19,3.51-4.33,4.26-.2,5.27,1.96,5.27,1.96,0,0-4.87-6.76-1.22-8.38,3.58-1.62,5.54,5.68,5.54,5.68,0,0,1.15-5.27,6.83-4.6,5.68.68,5.2,5.41,5.2,5.41,0,0,2.43-4.33,4.8-3.58s-.81,5.07-.81,5.07c0,0,4.19-2.37,6.62,2.16,0,0,5.2-4.26,8.18,3.04h-51.51v-.07Z" style="isolation: isolate; opacity: .3; stroke-width: 0px;"/>
                  </g>
                </g>
                <path d="m227.68,210.69v13.59H-18.83c11.83-4.53,24.27-8.45,37.11-11.69,30.01-7.64,62.52-11.83,96.59-11.83,74.02-.34,110.31,9.26,112.68,9.94.07,0,.14,0,.14,0Z" style="fill: #00976d; stroke-width: 0px;"/>
                <path d="m227.55,210.62c-80.98,14.26-209.27,1.89-209.27,1.89,30.01-7.64,62.52-11.83,96.59-11.83,74.02-.34,110.31,9.33,112.68,9.94Z" style="isolation: isolate; opacity: .1; stroke-width: 0px;"/>
                <g>
                  <polygon points="209.43 224.28 184.42 224.28 183.34 212.85 183 224.28 159.95 224.28 159.41 203.39 159.34 200.21 159.21 195.75 159.01 186.22 158.94 183.99 159.68 183.99 170.5 183.65 180.77 183.38 190.23 183.11 197.6 182.91 209.09 182.64 209.23 201.16 209.43 224.28" style="fill: #00baba; stroke-width: 0px;"/>
                  <path d="m210.72,224.28h-26.23l-1.15-11.42-.34,11.42h-24.74l-.81-25.01,1.76-3.58-.2-9.53-.07-2.23h.74l10.82-.27,10.27-.27,9.4-.27,7.44-.2,11.49-.34s.61,8.58,2.43,15.48c1.22,8.38-.81,26.23-.81,26.23Z" style="fill: #162030; stroke-width: 0px;"/>
                  <path d="m202.27,204.61c-4.12,2.03-11.22,3.72-19.87,5l4.6,2.97.68,11.69h-3.18l-1.15-11.42-2.57-3.04c-4.46.61-9.46.88-15.07.68l-.68,13.79h-6.76l-.68-21.97-.07-3.99,51.78,2.84-7.03,3.45Z" style="isolation: isolate; opacity: .2; stroke-width: 0px;"/>
                  <path d="m151.44,141.81l-5.54,18.86-21.9,14.94.74,8.45s27.65-11.22,29.4-12.98c1.69-1.76,9.67-23.79,9.67-23.79l-12.37-5.48Z" style="fill: #ffc0c5; stroke-width: 0px;"/>
                  <path d="m156.37,115.58l-9.06,26.97s9.46,9.46,17.51,8.31c8.04-1.15-6.35-30.62-6.35-30.62l-2.1-4.66Z" style="fill: #ff7e00; stroke-width: 0px;"/>
                  <path d="m212.74,198.86c-.34.34-.74.68-1.15.95-8.11,5.81-29.88,6.49-29.88,6.49,0,0-19.06,1.35-25.96-5.34l.14-1.15.34-3.38.34-3.24.61-5.54.34-3.38.95-8.79.34-3.38.95-8.79.34-3.38.2-1.83-.47-2.5-.41-4.46-.27-3.38-.74-8.79-.27-3.38-.74-8.79-.27-3.38-.68-7.64s.27-.41,1.08-1.15c.81-.81,2.1-1.96,4.12-3.38,1.55-1.15,3.51-2.43,5.95-3.85.41-.2.74-.41,1.15-.68,4.26-2.3,8.99-4.33,13.72-5.2,3.65.61,7.3,1.83,10.68,3.24h0c1.42.61,2.77,1.28,4.12,1.96,3.65,1.89,6.29,3.31,8.18,4.39,3.18,1.83,4.26,2.57,4.26,2.57l-.07.88-.54,8.79-.2,3.38-.54,8.79-.2,3.38-.47,7.77.07,1.01.34,3.38.41,4.39.41,4.39.34,3.38.88,8.79.2,2.37.07,1.01.88,8.79.34,3.38.88,8.79.27,2.5Z" style="fill: #ff7e00; stroke-width: 0px;"/>
                  <g style="opacity: .2;">
                    <path d="m209.7,113.56l-.07.88h-52.18c.81-.81,2.1-1.96,4.12-3.38h43.87c3.18,1.76,4.26,2.5,4.26,2.5Z" style="stroke-width: 0px;"/>
                    <polygon points="209.09 123.22 208.89 126.6 157.38 126.6 157.05 123.22 209.09 123.22" style="stroke-width: 0px;"/>
                    <polygon points="208.35 135.39 208.15 138.84 158.4 138.84 158.13 135.39 208.35 135.39" style="stroke-width: 0px;"/>
                    <polygon points="208.08 151 159.48 151 159.21 147.62 207.74 147.62 208.08 151" style="stroke-width: 0px;"/>
                    <polygon points="209.3 163.24 159.82 163.24 160.15 159.79 208.96 159.79 209.3 163.24" style="stroke-width: 0px;"/>
                    <polygon points="210.44 175.41 158.47 175.41 158.87 172.03 210.11 172.03 210.38 174.39 210.44 175.41" style="stroke-width: 0px;"/>
                    <polygon points="211.66 187.57 157.18 187.57 157.52 184.19 211.32 184.19 211.66 187.57" style="stroke-width: 0px;"/>
                    <path d="m212.74,198.86c-.34.34-.74.68-1.15.95h-55.7l.34-3.38h56.31l.2,2.43Z" style="stroke-width: 0px;"/>
                  </g>
                  <path d="m193.14,104.63h0c-2.91,11.42-11.36,20.08-20.08,18.86-8.79-1.22-4.33-16.97-4.33-16.97h0c4.26-2.3,8.99-4.33,13.72-5.2,3.65.68,7.3,1.83,10.68,3.31Z" style="fill: #fff; stroke-width: 0px;"/>
                  <polygon points="158.94 150.73 160.02 134.11 161.37 152.83 158.94 152.36 158.94 150.73" style="isolation: isolate; opacity: .3; stroke-width: 0px;"/>
                  <path d="m212.74,198.86c-6.89,6.69-31.03,7.44-31.03,7.44,0,0-19.06,1.35-25.96-5.34l.81-7.77c7.5-1.55,24.4-5.07,27.58-6.89,4.19-2.3,16.83-16.22,16.7-20.82-.2-4.6-1.22-15.88-1.22-15.88l-9.67-10.27,8.31,4.12-1.49-10.21,8.25,13.25,2.5,5.95.95,3.04,1.83,18.93,2.43,24.47Z" style="isolation: isolate; opacity: .3; stroke-width: 0px;"/>
                  <path d="m190.23,103.55s-5.34,17.71-15.61,17.71c-7.57,0-3.79-14.74-3.79-14.74l.41-4.06.61-6.56,8.99,1.42,8.31-10.27.54,8.04.54,8.45Z" style="fill: #ffc0c5; stroke-width: 0px;"/>
                  <path d="m189.69,95.04c-7.71,7.23-15.34,10.14-18.45,7.44l.61-6.56,8.99,1.42,8.31-10.27.54,7.98Z" style="fill: #ffc0c5; isolation: isolate; opacity: .5; stroke-width: 0px;"/>
                  <g>
                    <path d="m153.6,152.69c-.27,1.96,0,5.41.34,8.52.41,3.38.88,6.29.88,6.29,0,0,2.91,1.42,5.54,1.89,2.64.34,5.88-.27,5.88-.27,0,0,.07-.2.27-.54.47-.95,1.42-2.97,2.37-5.27,1.22-2.91,2.5-6.15,2.77-8.11.07-.54.07-1.15-.14-1.76-.81-3.65-5.14-7.57-5.14-7.57l1.08-7.77-5.41-.74-1.08,7.77s-5.07,2.57-6.89,5.88c-.2.61-.41,1.15-.47,1.69Z" style="fill: #fff; stroke-width: 0px;"/>
                    <path d="m161.57,147.02l1.35-9.46,2.03.27,2.03.27-1.35,9.46s4.33,3.72,3.79,7.64-4.46,13.11-4.46,13.11c0,0-1.62.61-4.39.2-2.77-.41-4.12-1.35-4.12-1.35,0,0-1.08-9.87-.54-13.86.54-3.99,5.68-6.29,5.68-6.29Z" style="isolation: isolate; opacity: .1; stroke-width: 0px;"/>
                    <path d="m155.22,159.52c5.14,1.01,8.11,1.42,13.05,1.83l1.42-5.88c-4.87-.54-9.06-1.15-14.26-2.03l-.2,6.08Z" style="fill: #fbfafd; stroke-width: 0px;"/>
                    <path d="m153.6,152.69c-.27,1.96,0,5.41.34,8.52.41,3.38.88,6.29.88,6.29,0,0,2.91,1.42,5.54,1.89,2.64.34,5.88-.27,5.88-.27,0,0,.07-.2.27-.54-6.49-7.44-3.92-21.22-3.92-21.22l1.35-9.73-1.83-.27-1.08,7.77s-5.07,2.57-6.89,5.88c-.27.61-.47,1.15-.54,1.69Z" style="isolation: isolate; opacity: .1; stroke-width: 0px;"/>
                    <polygon points="161.1 139.24 168.2 140.19 168.33 139.45 161.17 138.43 161.1 139.24" style="fill: #fff; stroke-width: 0px;"/>
                    <g>
                      <polygon points="161.37 134.71 161.24 137.21 161.17 138.43 168.33 139.45 168.54 138.36 169.08 135.8 161.37 134.71" style="fill: #162030; stroke-width: 0px;"/>
                      <polygon points="161.24 137.21 161.17 138.43 168.33 139.45 168.54 138.36 161.24 137.21" style="isolation: isolate; opacity: .3; stroke-width: 0px;"/>
                    </g>
                  </g>
                  <g>
                    <path d="m124.94,152.76l7.98,16.02c.68,1.42,1.35,1.89,3.79.68l2.77-1.35s.88-.47,2.16-1.08l2.77-1.35c2.43-1.22,2.43-2.03,1.69-3.45l-7.98-16.02c-1.22-2.43-5.75-3.85-6.15-4.6-.34-.74-1.08-2.16-1.08-2.16l-7.03,3.51s.74,1.49,1.08,2.16c.41.74-1.22,5.27,0,7.64Z" style="fill: #ff7e00; stroke-width: 0px;"/>
                    <g>
                      <path d="m121.42,140.12c.68,1.01,1.35,2.1,1.96,3.11,2.64-1.28,5.34-2.64,8.04-3.99-.07-.14-.07-.27-.14-.41-.41-1.01-.74-2.03-1.15-3.04-.2-.61-.95-.88-1.55-.61-2.03.81-3.92,1.76-5.81,2.77-.34.2-.61.34-.95.54-.54.34-.74,1.08-.41,1.62Z" style="fill: #162030; stroke-width: 0px;"/>
                      <path d="m121.42,140.12c.68,1.01,1.35,2.1,1.96,3.11,2.64-1.28,5.34-2.64,8.04-3.99-.07-.14-.07-.27-.14-.41-1.55.54-6.29,1.89-8.52-.88-.34.2-.61.34-.95.54-.54.34-.74,1.08-.41,1.62Z" style="isolation: isolate; opacity: .3; stroke-width: 0px;"/>
                    </g>
                    <path d="m124.94,152.76l7.98,16.02c.68,1.42,1.35,1.89,3.79.68l2.77-1.35s.88-.47,2.16-1.08l2.77-1.35c2.43-1.22,2.43-2.03,1.69-3.45l-.41-.81c-12.84,4.19-17.64-7.77-18.66-9.8-1.01-2.1.14-6.35.14-6.35l-1.15-2.37,4.87-3.45-7.03,3.51s.74,1.49,1.08,2.16c.41.74-1.22,5.27,0,7.64Z" style="isolation: isolate; opacity: .3; stroke-width: 0px;"/>
                    <path d="m132.37,143.57s3.85,1.49,4.53,2.84l5.41,10.88c.14.2,0,.47-.2.54-.2.14-.47,0-.54-.2-.95-1.89-5-10.07-5.41-10.82-.68-1.15-3.79-3.24-3.79-3.24Z" style="fill: #fff; isolation: isolate; opacity: .4; stroke-width: 0px;"/>
                  </g>
                  <g>
                    <path d="m178.41,182.43l-6.83-2.1c-.14-.07-.27-.07-.27-.07l-8.85-2.77c-1.83-.54-1.69-1.89-1.15-3.58l4.39-14.06,5.14-16.49,2.03-6.62c.81-2.64,8.45-2.5,8.45-2.5l.81-2.57-1.28-.41.41-1.28,8.58,2.7-.41,1.28-1.28-.41-.81,2.57s6.42,4.19,5.61,6.83l-2.03,6.62-5.14,16.49-4.33,14.06c-.54,1.69-1.22,2.84-3.04,2.3Z" style="fill: #fff; stroke-width: 0px;"/>
                    <polygon points="184.56 164.25 167.66 158.98 171.98 145.06 188.88 150.4 184.56 164.25" style="fill: #00976d; stroke-width: 0px;"/>
                    <path d="m172.79,136.67l-11.56,37.18c-.54,1.69-.68,3.04,1.15,3.58l8.85,2.77s.14,0,.27.07l6.83,2.1c1.83.54,2.43-.61,2.97-2.3l.27-.88c-15.48-8.99-9.67-27.92-8.31-32.11l2.7-8.72c.74-2.37,6.49-2.57,6.49-2.57l1.01-3.24,4.33,1.89.27-.95-6.08-1.89-.81,2.57c.14,0-7.57-.14-8.38,2.5Z" style="isolation: isolate; opacity: .1; stroke-width: 0px;"/>
                  </g>
                  <g>
                    <rect x="147.59" y="129.51" width="1.28" height="10.75" transform="translate(8.1 278.17) rotate(-87.94)" style="fill: #fff; stroke-width: 0px;"/>
                    <path d="m139.74,145.06c.14,6.15.34,12.3.47,18.45.07,1.62.41,2.37,2.97,2.3h2.91s.95,0,2.3.07c.95.07,1.96.07,2.91.14,2.5.2,2.97-.54,3.11-2.16.54-6.15,1.08-12.3,1.62-18.39.27-2.77-3.38-6.56-3.38-7.37.07-.81.14-2.5.14-2.5-3.11-.2-6.22-.34-9.26-.27v2.5c0,.95-3.85,4.39-3.79,7.23Z" style="fill: #fff; stroke-width: 0px;"/>
                    <path d="m140.89,154.72c4.53-.14,8.99,0,13.52.41.27-2.97.54-6.02.81-8.99-4.8-.47-9.67-.61-14.53-.47,0,3.04.07,6.08.2,9.06Z" style="fill: #00976d; stroke-width: 0px;"/>
                    <path d="m139.74,145.06c.14,6.15.34,12.3.47,18.45.07,1.62.41,2.37,2.97,2.3h2.91s.95,0,2.3.07c.95.07,1.96.07,2.91.14,2.5.2,2.97-.54,3.11-2.16,0-.27.07-.61.07-.88-12.64-3.04-12.17-15.61-12.1-18.18-.07-2.37,3.38-5.81,3.38-5.75,0-.95,0-1.83.07-2.77,2.3-.27,4.66-.54,7.03-.68-3.11-.2-6.22-.34-9.26-.27v2.5c-.07.95-3.92,4.39-3.85,7.23Z" style="isolation: isolate; opacity: .1; stroke-width: 0px;"/>
                  </g>
                  <g>
                    <polygon points="193.07 154.38 189.9 186.69 189.02 195.75 154.21 195.75 154.14 174.86 160.56 151.14 193.07 154.38" style="fill: #ffb400; stroke-width: 0px;"/>
                    <path d="m189.49,190.75l-.47,5h-29.67l1.08-37.72c0-.07,5.54,27.44,29.07,32.72Z" style="isolation: isolate; opacity: .2; stroke-width: 0px;"/>
                    <path d="m160.56,151.14l-1.01,37.45-.2,7.16h-36.16l-3.04-39.75v-.07l-.27-3.31,14.47-.54,7.16-.27,19.06-.68Z" style="fill: #ffb400; stroke-width: 0px;"/>
                    <path d="m119.87,152.56l.27,3.31v.07l.95,12.5.74,9.87,1.35,17.44h36.16l.2-7.16.27-10.27.27-9.87.47-17.3-18.99.68-7.16.27-14.53.47Z" style="isolation: isolate; opacity: .4; stroke-width: 0px;"/>
                  </g>
                  <g>
                    <path d="m119.87,152.63s-4.46,7.71-8.65,9.6l43.73-1.76s6.15-4.39,5.61-9.33l-40.69,1.49Z" style="fill: #ffb400; stroke-width: 0px;"/>
                    <g>
                      <path d="m160.7,151.14c.68,3.72,1.76,6.29,6.69,9.6l32.78,2.23c-6.02-3.51-7.16-8.58-7.16-8.58l-32.31-3.24Z" style="fill: #ffb400; stroke-width: 0px;"/>
                      <path d="m160.7,151.14c.68,3.72,1.76,6.29,6.69,9.6l32.78,2.23c-6.02-3.51-7.16-8.58-7.16-8.58l-32.31-3.24Z" style="isolation: isolate; opacity: .3; stroke-width: 0px;"/>
                    </g>
                  </g>
                  <g>
                    <path d="m183.81,195.48l-.07.07-.61.61c-2.43,2.5-3.18,2.84-3.99,2.77-.61-.14-.54-.74-.54-.88-.07.14-.54,1.15-1.62,1.01-.88-.14-.81-1.15-.81-1.15-.07.14-.95,1.28-2.37.88-1.01-.27-.74-1.55-.68-1.69h0l.81-.61.95.14,6.08.68,1.55-1.01,1.28-.81Z" style="fill: #ffc0c5; stroke-width: 0px;"/>
                    <path d="m187.73,187.37c-1.01,4.39-2.16,6.49-3.92,8.11l-.07.07c-.27.2-.54.47-.81.68-.41.27-.81.61-1.22.88-.14.07-.2.14-.34.27h0c-.81.47-1.76.74-2.77.74-.61,0-1.15,0-1.76-.07h0c-1.89-.2-3.65-.95-3.65-.95h0c-1.35,2.16-4.06,1.15-3.11-1.28q.27-.68.74-1.42c.07-.14.2-.27.27-.41,1.49-2.37,3.72-5.14,3.85-5.34-2.1,1.28-6.42,1.62-6.08-.34.41-2.84,14.06-6.02,14.06-6.02l4.8,5.07Z" style="fill: #ffc0c5; stroke-width: 0px;"/>
                    <path d="m183.14,196.16c-2.43,2.5-3.18,2.84-3.99,2.77-.61-.14-.54-.74-.54-.88-.07.14-.54,1.15-1.62,1.01-.88-.14-.81-1.15-.81-1.15-.07.14-.95,1.28-2.37.88-1.01-.27-.74-1.55-.68-1.69-1.35,2.16-4.06,1.15-3.11-1.28q.27-.68.74-1.42c.07-.14.2-.27.27-.41,0,0,4.6,3.24,11.56,2.3.14,0,.2,0,.34-.07.07,0,.14-.07.2-.07Z" style="fill: #ffc0c5; isolation: isolate; opacity: .5; stroke-width: 0px;"/>
                  </g>
                  <path d="m201.86,135.73l4.46,27.31-23.39,19.2s0,4.6,4.39,6.49c0,0,30.55-16.43,32.45-21.43,1.83-4.93-2.77-28.79-2.77-28.79l-15.14-2.77Z" style="fill: #ffc0c5; stroke-width: 0px;"/>
                  <polygon points="204.43 153.03 218.35 146.81 218.02 144.45 203.75 148.84 204.43 153.03" style="fill: #ffc0c5; isolation: isolate; opacity: .5; stroke-width: 0px;"/>
                  <path d="m196.86,133.16l5.14,17.37,18.93-7.1s-4.66-23.32-11.22-29.88c0,0-9.53,3.99-12.84,19.6Z" style="fill: #ff7e00; stroke-width: 0px;"/>
                  <g>
                    <path d="m159.61,70.77s-1.35,5.88,1.69,9.94l2.7-9.53-4.39-.41Z" style="fill: #162030; stroke-width: 0px;"/>
                    <path d="m174.21,59.21h0s11.36-2.84,17.37,10.82c0,0,3.58,8.85-.14,17.37,0,0-7.98,11.36-17.24,14.53-6.56,2.03-11.76-9.73-13.25-21.43-.95-10.75,5.81-20.35,13.25-21.29Z" style="fill: #ffc0c5; stroke-width: 0px;"/>
                    <path d="m196.99,59.62c-2.57-3.51-6.96-2.3-6.96-2.3h0c-13.11-22.37-36.1,5.88-36.1,5.88h5.75l-10.48,4.12c10,5.75,25.08,5.68,25.08,5.68h0c5.61.14,10-.27,10-.27,0,0-.34,3.79,3.85,5.61-.07,5.34.81,10.54.81,10.54,1.15-2.77,1.69-5.54,1.96-7.84h0s1.15-1.55,2.43-2.43c1.35-.74,2.7-.74,2.7-.74,0,0,3.51-14.74.95-18.25Z" style="fill: #162030; stroke-width: 0px;"/>
                    <path d="m190.71,82.94l-.2,4.33c4.46,1.62,8.18-2.77,8.79-6.42.34-1.83-.07-3.45-1.55-3.99-2.77-1.08-5.2,1.42-6.29,3.31-.47.81-.74,2.77-.74,2.77Z" style="fill: #ffc0c5; stroke-width: 0px;"/>
                    <path d="m179.15,81.45c0,1.76.41,3.18.95,3.18s.95-1.42.95-3.18-.41-3.18-.95-3.18c-.54-.07-.95,1.42-.95,3.18Z" style="fill: #162030; stroke-width: 0px;"/>
                    <path d="m167.05,81.65c0,1.76.41,3.24.81,3.24.47,0,.81-1.42.81-3.24s-.41-3.24-.81-3.24c-.41.07-.81,1.49-.81,3.24Z" style="fill: #162030; stroke-width: 0px;"/>
                    <path d="m163.8,78.48c.27,0,1.15-1.83,2.37-2.43.74-.34,1.69-.34,2.7,0,.34.14.74-.07.88-.41.14-.34-.07-.74-.41-.88-1.42-.47-2.7-.47-3.79.07-1.76.81-1.83,3.65-1.76,3.65Z" style="fill: #162030; stroke-width: 0px;"/>
                    <path d="m184.15,78.68c.41-.14-.27-3.18-2.23-4.12-1.22-.61-2.7-.61-4.26-.07-.41.14-.61.61-.47,1.01.14.41.61.61,1.01.47,1.15-.41,2.23-.41,3.04,0,1.35.68,2.84,2.7,2.91,2.7Z" style="fill: #162030; stroke-width: 0px;"/>
                  </g>
                </g>
                <g>
                  <g>
                    <path d="m57.14,165.54s-1.01-.41-3.11.61c-2.1,1.08-4.06,2.77-8.52,2.1,0,0,1.96,3.38,4.66,2.5,2.77-.81,6.56-3.31,6.96-5.2Z" style="fill: #162030; stroke-width: 0px;"/>
                    <path d="m57.14,165.54s-1.01-.41-3.11.61c-2.1,1.08-4.06,2.77-8.52,2.1,0,0,1.96,3.38,4.66,2.5,2.77-.81,6.56-3.31,6.96-5.2Z" style="isolation: isolate; opacity: .5; stroke-width: 0px;"/>
                    <path d="m29.56,203.39c.27.61.54,1.22.95,1.76.2.34.47.68.68.95,7.37,9.19,16.56.47,26.77,1.83,10.21,1.35,16.97-6.02,13.38-15.01-1.83-4.66-5.07-7.1-8.31-9.19-3.04-1.96-6.15-3.65-8.11-6.76-4.06-6.29,2.3-6.22,2.3-11.42v-.14s-3.72,4.53-9.06,3.45c-6.02-2.03-7.64-.54-7.98-.61,6.49,1.62,6.08,7.03,3.92,9.73-.95,1.89-18.12,16.7-14.53,25.42Z" style="fill: #162030; stroke-width: 0px;"/>
                    <path d="m37.27,193.59s4.53,3.11,11.76,1.83c0,0-2.43,1.49-5.14,1.08,0,0,3.04,3.04,10.68,1.15,0,0-8.85,4.66-17.3-4.06Z" style="isolation: isolate; opacity: .3; stroke-width: 0px;"/>
                    <path d="m52.55,174.39s-.2-2.1.95-3.92c0,0-1.89,2.1-1.96,4.06l-1.69.2s-.14-1.96-1.22-2.97c0,0,.61,2.1-.27,3.38l-.88-.41s-.14-4.33-2.16-5.2c0,0,1.76,1.42,1.28,5.34.07,0,3.45,2.5,5.95-.47Z" style="isolation: isolate; opacity: .3; stroke-width: 0px;"/>
                    <path d="m52.75,175s1.01,4.8,5.48,7.91c0,0-3.99-1.96-6.02-6.08l.14,3.45s-1.01-2.57-1.35-4.6l-2.16-.14s-.2,3.65-2.43,6.89c0,0,1.35-3.24,1.22-5.75,0,0-1.08,2.3-3.18,3.24,0,0,2.23-2.57,2.37-5.14l5.95.2Z" style="isolation: isolate; opacity: .3; stroke-width: 0px;"/>
                  </g>
                  <path d="m53.56,173.58s-3.38,1.96-8.04.14c0,0-.2.61-.07,1.42,0,0,2.16,2.7,8.58.27-.07,0,.47-1.15-.47-1.83Z" style="fill: #ff7e00; stroke-width: 0px;"/>
                  <path d="m30.51,205.21c.2.34.47.68.68.95,7.37,9.19,16.56.47,26.77,1.83,10.21,1.35,16.97-6.02,13.38-15.01-1.83-4.66-5.07-7.1-8.31-9.19,0,0,9.26,9.4,2.3,16.43-7.03,6.96-13.65,2.3-20.89,6.69-7.23,4.39-12.37.07-13.92-1.69Z" style="isolation: isolate; opacity: .3; stroke-width: 0px;"/>
                </g>
                <g>
                  <g>
                    <path d="m182.93,85.1c.07.27.68.34,1.42.27.74-.14,1.35-.41,1.28-.68s-.68-.34-1.42-.27c-.74.14-1.35.47-1.28.68Z" style="fill: #cc979b; stroke-width: 0px;"/>
                    <path d="m182.8,86.65c.07-.27.68-.34,1.42-.27.74.14,1.35.41,1.28.68s-.68.34-1.42.27c-.74-.14-1.35-.47-1.28-.68Z" style="fill: #cc979b; stroke-width: 0px;"/>
                  </g>
                  <g>
                    <path d="m165.43,86.65c-.07-.27-.68-.34-1.42-.27-.74.14-1.35.41-1.28.68s.68.34,1.42.27c.74-.14,1.28-.47,1.28-.68Z" style="fill: #cc979b; stroke-width: 0px;"/>
                    <path d="m165.36,85.1c-.07.27-.68.34-1.42.27-.74-.14-1.35-.41-1.28-.68s.68-.34,1.42-.27c.74.14,1.28.47,1.28.68Z" style="fill: #cc979b; stroke-width: 0px;"/>
                  </g>
                </g>
                <path d="m172.86,92.94c3.24-.07,5.2-2.64,5.27-2.77.07-.07.07-.2-.07-.27-.07-.07-.2-.07-.27.07,0,0-1.89,2.5-4.93,2.57-3.04.07-4.53-2.3-4.53-2.3-.07-.07-.2-.14-.27-.07-.07.07-.14.2-.07.27,0,.14,1.62,2.57,4.87,2.5Z" style="fill: #cc979b; stroke-width: 0px;"/>
                <path d="m172.25,88.61h-.07c-.41-.07-1.28-.34-1.42-2.7-.14-3.85.47-6.02.47-6.08.07-.14.2-.2.34-.2.14.07.2.2.2.34,0,0-.61,2.16-.47,5.95.07,1.62.54,2.23.95,2.23.61.07,1.49-.95,1.89-2.7,0-.14.2-.2.34-.2s.2.2.2.34c-.47,1.76-1.42,3.04-2.43,3.04Z" style="fill: #cc979b; stroke-width: 0px;"/>
                <path d="m196.39,79.96c-3.11-.07-4.93,2.77-5,2.91-.07.14-.07.27.07.34.07,0,.07.07.14.07s.2-.07.2-.14c0,0,.68-1.08,1.89-1.83,1.08.68.54,2.5.54,2.57-.07.14,0,.27.2.34h.07c.14,0,.2-.07.27-.2,0-.07.61-2.03-.54-2.97.61-.34,1.28-.54,2.1-.54h.07c.14,0,.27-.14.27-.27s-.14-.27-.27-.27Z" style="fill: #cc979b; stroke-width: 0px;"/>
              </g>
            </g>
            <path d="m175.47,64.51c9.65,13.15,15.35,29.37,15.35,46.92,0,43.85-35.54,79.39-79.39,79.39-17.56,0-33.78-5.7-46.92-15.35,14.45,19.68,37.75,32.47,64.04,32.47,43.85,0,79.39-35.54,79.39-79.39,0-26.29-12.78-49.59-32.47-64.04Z" style="fill: #fff; opacity: .3; stroke-width: 0px;"/>
            <path d="m74.62,133.93c-5.16-7.03-8.21-15.7-8.21-25.09,0-23.44,19-42.44,42.44-42.44,9.39,0,18.06,3.05,25.08,8.21-7.72-10.52-20.18-17.35-34.23-17.35-23.44,0-42.44,19-42.44,42.44,0,14.05,6.83,26.51,17.36,34.23Z" style="fill: #fff; opacity: .3; stroke-width: 0px;"/>
          </g>
          <path d="m99.77,18.32s-40.2,8.19-61.71,42.74c-.87,1.39-2.7,1.82-4.09.95-1.39-.87-1.82-2.7-.95-4.09C55.87,21.21,98.58,12.49,98.58,12.49c1.61-.33,3.18.71,3.51,2.32.32,1.61-.71,3.18-2.32,3.51Z" style="fill: #ffe6ca; fill-rule: evenodd; stroke-width: 0px;"/>
          <ellipse cx="109.49" cy="13.02" rx="3.67" ry="3.52" transform="translate(-.74 10.43) rotate(-5.43)" style="fill: #ffe6ca; stroke-width: 0px;"/>
          <path d="m63.65,229.33l37.87,49.21c1.02,1.49.65,3.53-.84,4.55-1.49,1.02-3.53.64-4.55-.84l-37.88-49.22c-1.02-1.49-.64-3.53.84-4.55,1.49-1.02,3.53-.65,4.55.84Z" style="fill: #ffe6ca; fill-rule: evenodd; stroke-width: 0px;"/>
        </g>
      </g>
    </g>
  </g>
</svg>