<?xml version="1.0" encoding="UTF-8"?>
<svg id="_圖層_2" data-name="圖層 2" xmlns="http://www.w3.org/2000/svg" width="140.56" height="167.16" viewBox="0 0 140.56 167.16">
  <g id="_圖層_7" data-name="圖層 7">
    <g id="air_balloon3">
      <line x1="60.17" y1="134.56" x2="69.91" y2="160.98" style="fill: none; stroke: #05d8de; stroke-miterlimit: 10; stroke-width: 5px;"/>
      <line x1="81.53" y1="132.01" x2="74.08" y2="159.15" style="fill: none; stroke: #05d8de; stroke-miterlimit: 10; stroke-width: 5px;"/>
      <path d="m84.53,150.16h-27.9c-.98,0-1.74.64-1.74,1.36,0,.76.76,1.4,1.74,1.4h.27v8.61c0,3.1,2.61,5.64,5.86,5.64h15.63c3.26,0,5.86-2.54,5.86-5.64v-8.61h.27c.98,0,1.74-.64,1.74-1.4,0-.72-.76-1.36-1.74-1.36Z" style="fill: #05d8de; fill-rule: evenodd; stroke-width: 0px;"/>
      <g>
        <path d="m70.28,0c-1.03,0-2.07.02-3.09.07l.22,5.16c.25-.01.51-.02.76-.03h0s.01,0,.02,0c0,0,0,0,0,0,0,0,.01,0,.02,0,0,0,0,0,0,0,.03,0,.06,0,.08,0,0,0,0,0,0,0,0,0,0,0,.02,0,0,0,0,0,0,0,0,0,.01,0,.01,0,0,0,0,0,.01,0,0,0,0,0,.01,0,0,0,0,0,.01,0,0,0,0,0,.01,0,0,0,0,0,.01,0,0,0,.01,0,.02,0,0,0,0,0,.01,0,0,0,0,0,.01,0,0,0,0,0,.01,0,0,0,0,0,.01,0,0,0,0,0,.01,0,0,0,0,0,.01,0,0,0,0,0,.01,0,0,0,0,0,.01,0,0,0,0,0,.01,0,0,0,0,0,.01,0,.02,0,.03,0,.05,0,0,0,0,0,0,0,0,0,.01,0,.02,0,0,0,0,0,0,0,0,0,.01,0,.02,0,0,0,0,0,0,0,0,0,.01,0,.02,0h0s.02,0,.02,0h0s.03,0,.05,0h0s.02,0,.02,0h0s.01,0,.02,0h0s.02,0,.02,0h0s.05,0,.08,0h.03s0,0,0,0c0,0,.01,0,.02,0h0s.02,0,.02,0h0s.05,0,.08,0h0s.02,0,.02,0h0s.02,0,.02,0h.13s0,0,0,0c0,0,.02,0,.02,0h0s.07,0,.1,0h0s.02,0,.02,0h0s.01,0,.02,0h0s.01,0,.02,0h0s.05,0,.08,0h0s.02,0,.02,0h0s.02,0,.02,0h0s.02,0,.02,0h0s.05,0,.08,0h0s.01,0,.02,0h.03s.01,0,.02,0h0s.03,0,.05,0h.02s0,0,0,0h.02s.01,0,.02,0h.03s.03,0,.05,0h0s.01,0,.02,0h.03s.01,0,.02,0h.09s.01,0,.02,0h.11V0h0Zm-4.95.17c-1.03.07-2.06.17-3.08.28l.58,5.13c.95-.11,1.9-.2,2.86-.26l-.36-5.15h0Zm-4.92.52c-1.02.14-2.05.31-3.06.5l.94,5.08c.49-.09.99-.18,1.48-.26h0s.02,0,.02,0h0s.02,0,.02,0h0s.02,0,.02,0h0s.05,0,.07-.01h0s.01,0,.02,0c0,0,0,0,0,0,0,0,.01,0,.02,0h0s.01,0,.02,0c0,0,0,0,0,0,0,0,.01,0,.02,0h0s.05,0,.07-.01h0s.01,0,.02,0c0,0,0,0,0,0h.02s0,0,0,0c0,0,.01,0,.02,0,0,0,0,0,0,0,0,0,.01,0,.02,0,0,0,0,0,0,0,0,0,.01,0,.02,0h0s.03,0,.05,0h0s.01,0,.02,0c0,0,0,0,0,0,0,0,.01,0,.02,0h0s.01,0,.02,0c0,0,0,0,0,0,0,0,.01,0,.02,0h0s.08-.01.13-.02h0c.2-.03.41-.06.61-.09l-.72-5.11h0Zm-4.88.86c-1.01.21-2.02.46-3.01.71l1.3,5c.3-.08.61-.16.91-.23h0s.01,0,.02,0c0,0,0,0,0,0,0,0,.01,0,.02,0,0,0,0,0,0,0,.01,0,.03,0,.04-.01,0,0,0,0,0,0,.02,0,.04,0,.06-.01,0,0,0,0,0,0,0,0,0,0,.01,0,0,0,0,0,0,0,0,0,0,0,.01,0,0,0,0,0,0,0,0,0,0,0,.01,0,0,0,0,0,.01,0,0,0,0,0,.01,0h.01s0,0,.01,0c0,0,0,0,.01,0,0,0,0,0,0,0l.07-.02s0,0,0,0c0,0,.01,0,.02,0,0,0,0,0,0,0,0,0,.01,0,.02,0,0,0,0,0,0,0,0,0,.01,0,.02,0,0,0,0,0,0,0,0,0,.01,0,.02,0,0,0,0,0,0,0h.02s0,0,0,0c.02,0,.05-.01.07-.02h0s.01,0,.02,0h0s.01,0,.02,0c0,0,0,0,0,0,0,0,.01,0,.02,0h0s.01,0,.02,0c0,0,0,0,0,0h.02s0,0,0,0c.02,0,.03,0,.05-.01h0s.01,0,.02,0c0,0,0,0,0,0,0,0,.01,0,.02,0,0,0,0,0,0,0,0,0,.01,0,.02,0,0,0,0,0,0,0,0,0,.01,0,.02,0,0,0,0,0,0,0,0,0,.01,0,.02,0,0,0,0,0,0,0,0,0,.01,0,.01,0,0,0,0,0,0,0,0,0,.01,0,.02,0,0,0,0,0,.01,0,0,0,.01,0,.02,0,0,0,0,0,0,0h.02s0,0,.01,0h.01s0,0,.01,0h.01s0,0,.01,0,0,0,.01,0,0,0,.01,0c0,0,0,0,0,0,0,0,0,0,.01,0,0,0,0,0,0,0,0,0,.01,0,.02,0,0,0,0,0,0,0,.02,0,.04,0,.06-.01h0s.01,0,.02,0c0,0,0,0,0,0,0,0,.01,0,.02,0,0,0,0,0,0,0,0,0,.01,0,.02,0,0,0,0,0,0,0,0,0,.01,0,.02,0h0c.22-.05.44-.1.66-.14l-1.08-5.05h0Zm-4.81,1.21c-.99.29-1.98.6-2.96.93l1.65,4.89c.9-.31,1.82-.59,2.74-.86l-1.43-4.96h0Zm-4.71,1.54c-.96.35-1.93.74-2.88,1.13l2,4.76c.14-.06.27-.11.41-.17,0,0,0,0,0,0,.01,0,.03-.01.04-.01,0,0,0,0,0,0,.01,0,.02,0,.04-.01,0,0,0,0,0,0,.01,0,.02-.01.04-.01,0,0,0,0,0,0,0,0,.02,0,.03-.01,0,0,0,0,0,0,0,0,.02,0,.03-.01,0,0,0,0,.01,0,0,0,.02,0,.03-.01,0,0,.01,0,.01,0,0,0,.02,0,.03-.01,0,0,0,0,.01,0,0,0,.02,0,.02,0,0,0,.01,0,.02,0,0,0,.01,0,.02,0,0,0,.01,0,.02,0,0,0,.01,0,.02,0,0,0,.01,0,.02,0,0,0,.02,0,.03-.01h.02s.02-.01.03-.02c0,0,.01,0,.02,0,0,0,.01,0,.02,0,0,0,.02,0,.02,0,0,0,.01,0,.02,0,0,0,.02,0,.03-.01,0,0,.01,0,.02,0,0,0,.01,0,.02,0,0,0,.01,0,.02,0h.02s.02-.01.03-.02c0,0,.01,0,.02,0,0,0,.01,0,.02,0,0,0,.02,0,.02,0,0,0,.01,0,.02,0,0,0,.02,0,.02,0,0,0,.01,0,.02,0,0,0,.01,0,.02,0,0,0,.02,0,.03-.01,0,0,.01,0,.02,0,0,0,.02,0,.03-.01,0,0,.01,0,.02,0,0,0,.01,0,.02,0,0,0,.01,0,.02,0,0,0,.01,0,.02,0,0,0,.02,0,.02,0,0,0,.01,0,.02,0,0,0,.01,0,.02,0,0,0,.02,0,.03-.01,0,0,.01,0,.02,0,0,0,.02,0,.03-.01,0,0,.01,0,.02,0,0,0,.02,0,.02,0,0,0,.01,0,.02,0,0,0,.02,0,.02,0,0,0,.01,0,.02,0,0,0,.02,0,.02,0,0,0,.01,0,.02,0,0,0,.01,0,.02,0,0,0,.01,0,.02,0,0,0,.02,0,.03-.01,0,0,.01,0,.02,0,0,0,.01,0,.02,0,0,0,.01,0,.02,0,0,0,.01,0,.02,0,0,0,.02,0,.03-.01,0,0,.01,0,.02,0,0,0,.02,0,.03-.01,0,0,.01,0,.02,0h.02s.02-.01.02-.02c0,0,.01,0,.02,0,0,0,0,0,.01,0,.01,0,.02,0,.03-.01,0,0,0,0,.01,0,.01,0,.02,0,.03-.01h0s.03-.01.04-.02c0,0,0,0,0,0,.19-.07.37-.14.56-.21l-1.78-4.85h0Zm-4.59,1.87c-.94.42-1.88.87-2.79,1.33l2.33,4.61c.35-.18.71-.35,1.06-.52,0,0,0,0,0,0,.01,0,.02-.01.03-.02,0,0,0,0,0,0,.01,0,.02-.01.03-.02,0,0,0,0,.01,0,0,0,.01,0,.02,0,0,0,.02,0,.02-.01,0,0,.01,0,.02,0,0,0,.01,0,.01,0,0,0,.02,0,.03-.01,0,0,.01,0,.02,0,0,0,.02,0,.03-.01,0,0,.01,0,.02,0,0,0,.01,0,.02-.01,0,0,.01,0,.02,0,0,0,.01,0,.02,0,0,0,.02,0,.03-.01,0,0,0,0,.01,0,0,0,.02,0,.03-.01,0,0,0,0,.01,0,0,0,.02,0,.02-.01,0,0,.01,0,.02,0,0,0,.02,0,.02-.01,0,0,0,0,.01,0,0,0,.02,0,.03-.01h.01s.02-.02.03-.02c0,0,0,0,.01,0,.01,0,.02,0,.03-.01h.01s.02-.02.03-.02c0,0,0,0,.01,0,0,0,.02,0,.03-.01,0,0,0,0,0,0,0,0,.02,0,.03-.01h0s.02-.01.03-.02c0,0,0,0,0,0,.01,0,.02,0,.03-.01,0,0,0,0,.01,0,0,0,.02-.01.03-.01,0,0,0,0,.01,0,0,0,.02,0,.03-.01,0,0,0,0,.01,0,0,0,.02,0,.02-.01,0,0,0,0,.01,0,0,0,.02,0,.03-.01,0,0,0,0,.01,0,0,0,.02,0,.03-.01,0,0,0,0,.01,0,0,0,.02,0,.03-.01,0,0,0,0,.01,0,0,0,.02,0,.03-.01,0,0,.01,0,.02,0,0,0,.01,0,.02-.01,0,0,.01,0,.02,0,0,0,.01,0,.02,0,0,0,.01,0,.02,0,0,0,.01,0,.02-.01,0,0,.01,0,.02,0,0,0,.02,0,.02-.01,0,0,.01,0,.02,0,0,0,.01,0,.02,0,0,0,.02,0,.03-.01,0,0,0,0,.01,0,.01,0,.02-.01.03-.02,0,0,0,0,0,0,.01,0,.03-.01.04-.02t0,0s.09-.04.14-.06l-2.12-4.71h0Zm-4.44,2.19c-.9.49-1.81,1-2.69,1.53l2.65,4.43s0,0,0,0c.01,0,.02-.01.04-.02,0,0,0,0,0,0,.4-.24.8-.47,1.2-.7,0,0,0,0,0,0,.01,0,.02-.01.04-.02,0,0,0,0,0,0,.01,0,.02-.01.03-.02,0,0,0,0,0,0,.01,0,.02-.01.03-.02h0s.02-.02.03-.02c0,0,0,0,0,0,0,0,.02-.01.03-.02,0,0,0,0,0,0,0,0,.02-.01.03-.02,0,0,0,0,.01,0,0,0,.02-.01.03-.02,0,0,0,0,.01,0,0,0,.02-.01.03-.02,0,0,0,0,.01,0,0,0,.02,0,.02-.01,0,0,.01,0,.02,0,0,0,.01,0,.02-.01,0,0,.01,0,.02-.01,0,0,.01,0,.02,0,0,0,.01,0,.02-.01,0,0,.01,0,.02-.01h.02s.01-.02.02-.02c0,0,.01,0,.02-.01,0,0,0,0,.01,0,.01,0,.02-.01.03-.02,0,0,0,0,0,0,.01,0,.02-.01.04-.02h0c.22-.12.43-.24.65-.36l-2.45-4.55h0Zm-4.27,2.5c-.87.55-1.73,1.13-2.58,1.71l2.95,4.24s0,0,.01,0c0,0,.01,0,.02-.01,0,0,.01,0,.02-.01,0,0,.01,0,.02-.01,0,0,0,0,.01,0,.01,0,.02-.01.03-.02,0,0,0,0,0,0,.01,0,.02-.01.03-.02h0s.02-.02.03-.03c0,0,0,0,0,0,.01,0,.02-.02.03-.02,0,0,0,0,0,0,.04-.03.07-.05.11-.07t0,0c.38-.26.77-.52,1.15-.77h0s.1-.07.15-.1c0,0,0,0,0,0,.01,0,.02-.02.04-.02,0,0,0,0,0,0l.04-.02s0,0,0,0c.04-.02.08-.05.11-.07,0,0,0,0,0,0,.01,0,.02-.02.04-.02,0,0,0,0,0,0,.01,0,.02-.02.04-.02,0,0,0,0,0,0,.01,0,.02-.02.04-.02,0,0,0,0,0,0,.15-.1.3-.19.45-.29l-2.76-4.36h0Zm-4.09,2.8c-.83.61-1.65,1.25-2.45,1.89l3.24,4.02s.06-.05.08-.07h0s.02-.02.03-.03c0,0,0,0,0,0,0,0,.02-.01.02-.02,0,0,.01,0,.02-.01,0,0,0,0,.01-.01,0,0,.02-.01.02-.02,0,0,0,0,.01,0,0,0,.02-.01.03-.02h0s.02-.02.03-.03h0c.65-.52,1.32-1.03,1.99-1.53l-3.06-4.16h0Zm-3.88,3.08c-.78.67-1.56,1.36-2.31,2.06l3.52,3.78s.02-.02.03-.03h0s.02-.02.03-.03c0,0,0,0,0,0,.02-.02.04-.04.06-.06,0,0,0,0,0,0,.01,0,.02-.02.03-.03,0,0,0,0,0,0,.01,0,.02-.02.03-.03,0,0,0,0,0,0,0,0,.02-.02.03-.02,0,0,0,0,0,0,0,0,.02-.02.03-.02,0,0,0,0,0,0,0,0,.02-.02.03-.02h0s.02-.02.02-.03c0,0,0,0,0,0,0,0,.02-.01.02-.02,0,0,0,0,0,0,0,0,.02-.01.02-.02,0,0,0,0,.01-.01,0,0,.02-.01.02-.02,0,0,0,0,.01-.01,0,0,.01-.01.02-.02,0,0,0,0,.01-.01,0,0,.01-.01.02-.02,0,0,.01-.01.02-.02,0,0,.01,0,.01-.01,0,0,.01-.01.02-.02,0,0,0,0,.01-.01l.02-.02s0,0,.01-.01c0,0,.01-.01.02-.02,0,0,0,0,.01-.01,0,0,.01-.01.02-.02,0,0,0,0,0,0l.03-.03s0,0,0,0c0,0,.02-.02.03-.03,0,0,0,0,0,0,.01,0,.02-.02.03-.03h0c.46-.42.93-.82,1.4-1.23l-3.35-3.93h0Zm-3.66,3.34c-.73.72-1.46,1.46-2.16,2.21l3.77,3.53s.07-.08.11-.11h0s.02-.02.03-.03c0,0,0,0,0,0,0,0,.01-.01.02-.02,0,0,0,0,.01-.01,0,0,0,0,.01-.01,0,0,.01-.01.02-.02,0,0,0,0,0-.01,0,0,.02-.02.02-.02,0,0,0,0,0,0,0,0,.02-.02.03-.03h0c.56-.6,1.14-1.19,1.73-1.76l-3.61-3.69h0Zm-3.41,3.59c-.68.77-1.35,1.56-2,2.36l4.01,3.25c.6-.74,1.22-1.47,1.86-2.19l-3.86-3.43h0Zm-3.15,3.82c-.63.81-1.24,1.65-1.83,2.49l4.23,2.96s0,0,0,0c0,0,.01-.02.02-.03,0,0,0,0,0,0,0-.01.01-.02.02-.03h0s.01-.03.02-.04c0,0,0,0,0,0,0,0,.01-.02.02-.03,0,0,0,0,0-.01,0,0,.01-.02.02-.03,0,0,0,0,0-.01,0,0,.01-.01.02-.02,0,0,0,0,.01-.01,0,0,0-.01.01-.02,0,0,0,0,0-.01,0,0,.01-.01.02-.02,0,0,0,0,0-.01,0,0,.01-.02.02-.02,0,0,0,0,0-.01,0,0,.01-.02.02-.02,0,0,0,0,0-.01,0,0,0-.01.01-.02v-.02s.02,0,.02-.01l.02-.02s0,0,0-.01c0,0,.01-.02.02-.03,0,0,0,0,0-.01,0,0,.01-.02.02-.03,0,0,0,0,0-.01,0,0,0-.01.01-.02,0,0,0,0,0,0,0-.01.02-.02.02-.03,0,0,0,0,0,0,0-.01.02-.02.02-.03,0,0,0,0,0,0,0-.01.02-.02.02-.03t0,0c.4-.55.8-1.09,1.21-1.63l-4.09-3.15h0Zm-2.88,4.03c-.57.86-1.12,1.74-1.65,2.62l4.43,2.66c.49-.82,1-1.63,1.53-2.43l-4.3-2.85h0Zm-2.59,4.22c-.51.89-1,1.81-1.46,2.73l4.6,2.34c.19-.36.37-.73.57-1.09,0,0,0,0,0-.01,0,0,.01-.02.02-.03,0,0,0,0,0-.02,0,0,0-.02.01-.02,0,0,0-.01.01-.02,0,0,0-.01,0-.02,0,0,0-.02.01-.03,0,0,0,0,0-.01,0-.01.01-.02.02-.03,0,0,0,0,0-.01,0-.01.01-.02.02-.03,0,0,0,0,0,0,0-.01.01-.02.02-.03,0,0,0,0,0,0,.01-.03.03-.05.04-.08,0,0,0,0,0,0,.2-.37.4-.73.61-1.1l-4.5-2.54h0Zm-2.28,4.4c-.44.93-.87,1.88-1.27,2.83l4.76,2.01c.09-.22.19-.44.28-.66,0,0,0,0,0,0,0-.01.01-.03.02-.04,0,0,0,0,0,0,0-.01.01-.03.02-.04h0s.01-.03.02-.04c0,0,0,0,0,0,0-.01.01-.03.02-.04,0,0,0,0,0,0,0-.01.01-.02.02-.03,0,0,0,0,0,0,0-.01,0-.02.01-.03,0,0,0,0,0,0,0-.01,0-.02.01-.03,0,0,0,0,0,0,0,0,0-.02.01-.03,0,0,0-.01,0-.02,0,0,0-.01.01-.02,0,0,0,0,0-.01,0,0,0-.02.01-.03,0,0,0-.01,0-.02,0,0,0-.02.01-.03,0,0,0-.01,0-.02,0,0,0-.01,0-.02,0,0,0-.02.01-.03,0,0,0,0,0-.01,0-.01,0-.02.01-.03,0,0,0,0,0-.01,0-.01.01-.02.02-.04,0,0,0,0,0,0,.2-.45.41-.91.63-1.36l-4.66-2.22h0Zm-1.97,4.55c-.37.96-.73,1.94-1.06,2.91l4.89,1.67s.03-.09.05-.14c0,0,0,0,0-.01,0-.01,0-.02.01-.03,0,0,0-.01,0-.02,0,0,0-.01,0-.02,0,0,0-.02,0-.02,0,0,0-.01,0-.02,0,0,0-.02.01-.03,0,0,0,0,0-.01,0-.01,0-.02.01-.03,0,0,0,0,0-.01,0-.01,0-.02.01-.03,0,0,0,0,0,0,0-.01,0-.02.01-.04,0,0,0,0,0,0,0-.01,0-.03.01-.04,0,0,0,0,0,0,0-.01,0-.02.01-.04,0,0,0,0,0,0,.26-.73.53-1.46.81-2.18l-4.81-1.88h0Zm-1.64,4.68c-.31.98-.59,1.98-.86,2.98l4.99,1.32s0,0,0,0c0-.01,0-.03,0-.04,0,0,0,0,0,0,0-.01,0-.02,0-.04,0,0,0,0,0,0,0-.01,0-.02,0-.03,0,0,0,0,0-.01,0-.01,0-.02,0-.03h0s0-.03,0-.04c0,0,0,0,0-.01,0-.01,0-.02,0-.03,0,0,0-.01,0-.02,0,0,0-.01,0-.02,0,0,0-.02,0-.02,0,0,0-.01,0-.02,0,0,0-.02,0-.03,0,0,0,0,0-.02,0-.01,0-.02,0-.03,0,0,0-.01,0-.01,0,0,0-.01,0-.02,0,0,0,0,0,0,0-.01,0-.03.01-.04,0,0,0,0,0,0,0-.02,0-.03.01-.04h0c.2-.74.42-1.48.65-2.21l-4.93-1.54h0Zm-1.3,4.78c-.24,1-.45,2.02-.64,3.03l5.07.96s.02-.08.02-.12h0s0-.02,0-.02h0s0-.02,0-.02c0,0,0,0,0,0,0,0,0-.01,0-.02,0,0,0,0,0,0,0,0,0,0,0,0,0-.01,0-.02,0-.04,0,0,0,0,0,0,0,0,0-.01,0-.02,0,0,0,0,0,0,0,0,0-.01,0-.02,0,0,0,0,0,0,.11-.57.23-1.13.35-1.69,0,0,0,0,0,0,0,0,0,0,0-.01,0,0,0,0,0-.01,0,0,0,0,0-.01,0,0,0,0,0-.01,0,0,0,0,0,0,0,0,0,0,0-.01,0,0,0,0,0,0,0,0,0-.01,0-.02,0,0,0,0,0,0,0-.02.01-.05.02-.07h0c.05-.22.1-.43.15-.65l-5.03-1.18h0Zm-.96,4.86c-.16,1.01-.31,2.05-.43,3.07l5.13.6c.11-.95.24-1.9.39-2.84l-5.1-.82h0Zm-.62,4.91c-.09,1.02-.16,2.06-.21,3.09l5.16.24c0-.09,0-.18.01-.27,0,0,0,0,0,0,0,0,0-.01,0-.02h0s0-.02,0-.02h0s0-.04,0-.06c0,0,0,0,0,0,0,0,0,0,0-.01,0,0,0,0,0-.01,0,0,0,0,0-.01,0,0,0,0,0-.01,0,0,0,0,0-.01v-.02s0,0,0,0c0,0,0-.01,0-.02,0,0,0,0,0,0,0,0,0-.01,0-.02h0s0-.04,0-.05c0,0,0,0,0,0,0,0,0-.01,0-.02,0,0,0,0,0,0,0,0,0-.01,0-.02,0,0,0,0,0,0,0,0,0-.01,0-.02h0s0-.05,0-.08h0s0-.02,0-.03h0s0-.02,0-.03h0s0-.02,0-.03h0s0-.07,0-.1h0s0-.02,0-.02h0s0-.02,0-.03h0s0-.02,0-.03h0s0-.05,0-.08h0s0-.02,0-.02c0,0,0,0,0,0,0,0,0-.01,0-.02,0,0,0,0,0,0,0,0,0-.01,0-.02,0,0,0,0,0,0,0,0,0-.01,0-.02,0,0,0,0,0,0,0,0,0-.01,0-.02,0,0,0-.01,0-.02,0,0,0,0,0-.01,0,0,0,0,0-.01,0,0,0,0,0-.01,0,0,0,0,0-.01s0,0,0-.01,0,0,0-.01c0,0,0,0,0-.01s0,0,0-.01c0,0,0,0,0,0,0,0,0,0,0-.02,0,0,0,0,0,0,0-.02,0-.04,0-.06,0,0,0,0,0,0,0,0,0-.01,0-.02,0,0,0,0,0,0,0,0,0-.01,0-.02,0,0,0,0,0,0,0,0,0-.01,0-.02,0,0,0,0,0,0,.03-.47.07-.94.11-1.4l-5.14-.46H.29ZM.01,68.86c0,.47-.01.95-.01,1.43,0,.56,0,1.11.02,1.67l5.16-.12c0-.14,0-.28,0-.41,0,0,0,0,0,0,0,0,0-.01,0-.02,0,0,0,0,0-.01,0,0,0,0,0,0,0,0,0-.01,0-.02h0c0-.28,0-.55,0-.82h0v-.02s0,0,0,0v-.02h0v-.02h0v-.03h0v-.02s0,0,0-.01h0v-.03h0v-.03h0v-.03h0v-.03h0v-.04h0v-.04h0v-.04s0,0,0,0v-.04h0v-.04h0s0-.03,0-.04h0s0-.03,0-.04h0v-.04h0s0-.03,0-.04h0s0-.03,0-.04h0s0-.03,0-.04c0,0,0,0,0,0v-.03s0,0,0,0c0-.01,0-.02,0-.03h0s0-.03,0-.04c0,0,0,0,0,0,0,0,0-.02,0-.03h0s0-.03,0-.04c0,0,0,0,0-.01,0,0,0-.01,0-.02h0s0-.04,0-.04c0,0,0-.01,0-.02,0,0,0-.01,0-.02,0,0,0-.02,0-.02,0,0,0-.01,0-.02,0,0,0-.01,0-.02h0s0-.04,0-.05c0,0,0,0,0,0,0-.14,0-.29,0-.43l-5.16-.1H.01Zm5.23,4.69l-5.16.25c.05,1.03.12,2.07.22,3.09l5.14-.48s0,0,0,0c0,0,0,0,0-.01,0,0,0,0,0-.01,0,0,0,0,0-.01,0,0,0,0,0-.01,0,0,0,0,0-.01,0,0,0,0,0-.01,0,0,0,0,0,0v-.05s0,0,0,0c0,0,0-.01,0-.02h0s0-.02,0-.03h0c-.03-.31-.05-.62-.08-.93h0s0-.02,0-.02h0s0-.02,0-.02h0s0-.02,0-.02h0s0-.02,0-.02c0,0,0,0,0,0,0,0,0-.02,0-.02h0s0-.02,0-.03c0,0,0,0,0,0,0,0,0-.01,0-.02,0,0,0-.01,0-.01,0,0,0,0,0-.01,0,0,0-.01,0-.01,0,0,0,0,0,0,0,0,0-.01,0-.02,0,0,0,0,0,0,0,0,0-.01,0-.02,0,0,0,0,0,0-.04-.49-.07-.98-.09-1.48h0Zm.39,4.57l-5.13.61c.12,1.02.27,2.05.44,3.07l5.09-.84c-.1-.6-.19-1.2-.27-1.8h0s0-.02,0-.02h0s0-.02,0-.02c0,0,0,0,0,0,0,0,0-.01,0-.02,0,0,0,0,0,0,0,0,0,0,0-.01,0,0,0,0,0-.01s0,0,0,0c0-.01,0-.02,0-.04,0,0,0,0,0,0,0,0,0-.01,0-.02h0s0-.02,0-.02h0c-.04-.28-.07-.56-.11-.85h0Zm.71,4.53l-5.07.98c.19,1.01.41,2.03.65,3.03l5.02-1.2c-.12-.52-.24-1.04-.35-1.56h0s0-.02,0-.02h0s0-.02,0-.02h0s0-.02,0-.02c0,0,0,0,0,0,0,0,0-.01,0-.02,0,0,0,0,0,0,0,0,0-.01,0-.02h0s0-.02,0-.03c0,0,0,0,0,0,0,0,0,0,0-.01,0,0,0,0,0-.01,0,0,0,0,0-.01,0,0,0,0,0-.01,0,0,0,0,0,0,0,0,0-.01,0-.02,0,0,0,0,0,0,0,0,0-.01,0-.02h0c-.07-.33-.13-.66-.2-.99h0Zm1.03,4.47l-4.99,1.33c.27.99.56,1.99.87,2.97l4.92-1.55c-.17-.53-.33-1.06-.48-1.6,0,0,0,0,0,0,0-.01,0-.02-.01-.04,0,0,0,0,0-.01,0,0,0-.02,0-.03,0,0,0-.01,0-.02s0-.01,0-.02c0,0,0-.02,0-.03,0,0,0-.01,0-.02,0-.01,0-.02,0-.03,0,0,0,0,0-.01,0-.01,0-.02,0-.03,0,0,0,0,0-.01,0-.01,0-.02,0-.03,0,0,0,0,0,0,0-.01,0-.03-.01-.04,0,0,0,0,0,0,0-.01,0-.03-.01-.04,0,0,0,0,0,0-.07-.26-.14-.52-.21-.78h0Zm1.34,4.39l-4.88,1.68c.34.97.7,1.95,1.07,2.91l4.8-1.9c-.04-.1-.08-.19-.11-.29h0s-.01-.03-.02-.04c0,0,0,0,0,0-.02-.05-.04-.11-.06-.16,0,0,0,0,0,0,0-.01-.01-.03-.02-.04,0,0,0,0,0,0,0-.01-.01-.03-.02-.04,0,0,0,0,0,0-.01-.03-.02-.05-.03-.08,0,0,0,0,0,0,0-.01,0-.02-.01-.04h0s-.01-.03-.01-.04c0,0,0,0,0,0,0-.01-.01-.03-.02-.04h0l-.03-.08h0s0-.03-.01-.04c0,0,0,0,0,0v-.04s-.02,0-.02,0c0-.01,0-.03-.01-.04,0,0,0,0,0,0,0-.01,0-.02-.01-.04,0,0,0,0,0,0,0-.01,0-.03-.01-.04,0,0,0,0,0,0,0-.01,0-.02-.01-.04,0,0,0,0,0,0,0-.01,0-.03-.01-.04,0,0,0,0,0,0,0-.01,0-.02-.01-.04,0,0,0,0,0,0-.01-.03-.02-.05-.03-.08,0,0,0,0,0,0,0-.01,0-.02-.01-.04,0,0,0,0,0,0,0-.01,0-.03-.01-.04,0,0,0,0,0,0,0-.01,0-.03-.01-.04,0,0,0,0,0,0-.01-.03-.02-.05-.03-.08,0,0,0,0,0,0,0-.01-.01-.03-.02-.04,0,0,0,0,0,0,0-.01-.01-.03-.02-.04,0,0,0,0,0,0-.13-.36-.26-.73-.39-1.1h0Zm1.65,4.28l-4.75,2.03c.4.95.83,1.89,1.28,2.82l4.66-2.23c-.41-.86-.81-1.73-1.18-2.61h0Zm1.95,4.16l-4.59,2.36c.47.91.96,1.83,1.47,2.72l4.49-2.56s-.02-.04-.03-.06h0s-.02-.03-.02-.04h0s-.02-.03-.02-.04h0s0-.02-.01-.02c0,0,0,0,0,0,0-.01-.01-.02-.02-.03,0,0,0,0,0-.01,0,0-.01-.02-.02-.03,0,0,0-.01,0-.01,0,0,0-.02-.01-.03,0,0,0-.01,0-.02,0,0,0-.02-.01-.02,0,0,0-.01-.01-.02,0,0,0-.01,0-.02,0,0,0-.02-.01-.03,0,0,0,0,0-.01,0,0,0-.02-.01-.03,0,0,0,0,0-.01,0,0,0-.02-.01-.02,0,0,0-.01,0-.02,0,0,0-.01-.01-.02,0,0,0-.01,0-.02,0,0,0-.02-.01-.02,0,0,0,0,0-.01,0,0-.01-.02-.02-.03,0,0,0,0,0-.01,0,0,0-.02-.01-.03,0,0,0,0,0-.01,0,0-.01-.02-.02-.03,0,0,0,0,0-.01,0,0,0-.01-.01-.02,0,0,0-.01-.01-.02,0,0,0-.01-.01-.02,0,0,0-.01-.01-.02,0,0,0-.01-.01-.02h0s0-.03-.01-.04c0,0,0,0,0-.01,0,0,0-.02-.01-.03,0,0,0-.01,0-.02s0-.01,0-.02c0,0,0-.02-.01-.02,0,0,0-.01,0-.01,0,0,0-.02-.01-.03,0,0,0,0,0-.01,0,0,0-.02-.01-.02,0,0,0-.01,0-.02,0,0,0-.01-.01-.02,0,0,0-.01,0-.02,0,0,0-.02-.01-.03,0,0,0,0,0,0,0-.01-.01-.02-.02-.03,0,0,0,0,0,0,0-.01-.01-.02-.02-.03,0,0,0,0,0,0,0-.01-.01-.03-.02-.04h0c-.24-.44-.47-.88-.7-1.33h0Zm2.24,4.01l-4.42,2.67c.53.88,1.09,1.76,1.66,2.61l4.3-2.87c-.23-.35-.46-.7-.69-1.05,0,0,0,0,0,0,0-.01-.02-.02-.02-.04,0,0,0,0,0,0,0-.01-.02-.02-.02-.04,0,0,0,0,0,0,0-.01-.01-.02-.02-.03,0,0,0,0,0,0,0-.01-.01-.02-.02-.03,0,0,0,0,0-.01,0,0-.01-.02-.02-.03,0,0,0,0,0-.01,0,0-.01-.02-.02-.03,0,0,0-.01,0-.02,0,0,0-.01-.01-.02,0,0,0-.01-.01-.02,0,0,0,0,0-.01,0,0-.01-.02-.02-.03,0,0,0,0,0,0,0-.01-.02-.02-.02-.04h0c-.21-.34-.42-.67-.62-1.01h0Zm2.51,3.84l-4.22,2.98c.59.84,1.21,1.68,1.84,2.49l4.08-3.16s0,0,0,0c0,0-.01-.02-.02-.02,0,0,0,0,0-.01,0,0-.01-.02-.02-.03,0,0,0,0,0-.01,0,0-.01-.02-.02-.02h0s-.01-.03-.02-.03c0,0,0,0-.01-.01,0,0-.01-.01-.02-.02,0,0,0,0,0-.01,0,0-.01-.02-.02-.03,0,0,0,0,0-.01,0,0-.01-.02-.02-.03,0,0,0,0,0-.01,0,0-.01-.02-.02-.03,0,0,0,0,0-.01,0,0-.01-.02-.02-.03h0s-.01-.02-.02-.03c0,0,0,0,0-.01,0,0-.01-.02-.02-.02,0,0,0,0,0,0,0,0-.01-.02-.02-.03,0,0,0,0,0-.01,0,0-.01-.02-.02-.03,0,0,0,0,0-.01,0,0-.01-.02-.02-.03,0,0,0,0,0-.01,0,0-.01-.02-.02-.02,0,0,0,0,0-.01,0,0-.01-.02-.02-.02,0,0,0,0-.01-.01,0,0,0-.01-.02-.02,0,0,0,0,0-.01,0,0-.01-.02-.02-.03,0,0,0,0,0-.01,0,0-.01-.02-.02-.03,0,0,0,0,0-.01,0,0-.01-.02-.02-.03,0,0,0,0,0-.01,0,0-.01-.02-.02-.02,0,0,0,0-.01-.01,0,0-.01-.01-.01-.02,0,0,0-.01-.01-.02,0,0,0-.01-.02-.02,0,0,0,0,0-.01,0,0-.01-.02-.02-.02,0,0,0,0,0-.01,0,0-.01-.02-.02-.02,0,0,0,0,0-.01,0,0-.01-.02-.02-.02,0,0,0,0-.01-.01,0,0,0-.01-.01-.02v-.02s-.02,0-.03-.02c0,0-.01-.01-.02-.02,0,0,0-.01-.01-.02,0,0-.01-.01-.02-.02,0,0,0,0-.01-.02,0,0-.01-.01-.02-.02,0,0,0-.01-.01-.02,0,0,0-.01-.01-.02,0,0,0,0,0,0,0,0-.01-.02-.02-.03,0,0,0,0,0,0,0,0-.01-.02-.02-.03,0,0,0,0,0,0l-.02-.03s0,0,0,0c0-.01-.02-.02-.03-.04h0c-.25-.34-.5-.69-.74-1.03h0Zm2.78,3.65l-4,3.27c.65.8,1.33,1.59,2.01,2.35l3.85-3.44s0,0,0,0c0-.01-.02-.02-.03-.03,0,0,0,0,0,0,0,0-.02-.02-.02-.03,0,0,0,0,0,0,0,0-.02-.02-.02-.03,0,0,0,0,0,0,0,0-.01-.02-.02-.02,0,0,0,0-.01-.01,0,0-.01-.01-.02-.02,0,0-.01-.01-.02-.02,0,0,0,0-.01-.01,0,0-.01-.02-.02-.02,0,0,0,0,0-.01-.34-.39-.68-.78-1.02-1.18h0s-.02-.02-.03-.03c0,0,0,0,0,0,0,0-.02-.02-.02-.03,0,0,0,0,0,0,0,0,0-.01-.01-.02,0,0-.01-.01-.02-.02,0,0,0,0-.01-.01,0,0-.01-.01-.02-.02,0,0,0,0-.01-.01,0,0-.01-.01-.02-.02,0,0,0,0-.01-.01,0,0-.01-.02-.02-.02,0,0,0,0,0,0,0,0-.02-.02-.02-.03,0,0,0,0,0,0,0-.01-.02-.02-.02-.03,0,0,0,0,0,0,0,0-.02-.02-.03-.03,0,0,0,0,0,0-.12-.15-.25-.3-.37-.45h0Zm3.03,3.45l-3.76,3.54c.7.75,1.43,1.49,2.17,2.21l3.6-3.7c-.09-.08-.17-.17-.25-.25h0s-.02-.02-.03-.03h0s-.02-.02-.03-.03h0s-.02-.02-.02-.03h0s-.01-.02-.02-.03c0,0,0,0-.01-.01,0,0-.01-.01-.02-.02,0,0,0,0-.01-.01,0,0-.01-.01-.02-.02,0,0-.01,0-.01-.01,0,0,0,0,0,0l-.02-.02h0s-.02-.03-.03-.04h0s-.02-.02-.03-.04h0c-.49-.49-.98-.99-1.45-1.49h0Zm3.26,3.23l-3.5,3.79c.75.7,1.53,1.39,2.32,2.05l3.33-3.94c-.53-.45-1.05-.9-1.57-1.37h0s-.02-.02-.03-.03h0s-.02-.02-.03-.03c0,0,0,0,0,0-.01,0-.02-.02-.03-.03,0,0,0,0,0,0,0,0-.02-.02-.03-.02,0,0,0,0,0,0,0,0-.01,0-.02-.01,0,0,0,0-.01-.01,0,0-.01-.01-.02-.02,0,0-.01,0-.01-.01,0,0-.01-.01-.02-.02,0,0,0,0-.01-.01s-.01-.01-.02-.02c0,0-.01-.01-.02-.01,0,0,0,0-.01-.01,0,0-.01-.01-.02-.02,0,0,0,0-.01-.01,0,0-.01-.01-.02-.02,0,0,0,0-.01-.01,0,0-.02-.01-.02-.02h-.01s-.02-.02-.02-.03c0,0,0,0,0,0,0,0-.01-.01-.02-.02,0,0,0,0,0,0,0,0-.02-.02-.03-.02,0,0,0,0,0,0,0,0-.02-.02-.03-.03,0,0,0,0,0,0,0,0-.02-.02-.03-.03,0,0,0,0,0,0-.01,0-.02-.02-.03-.03,0,0,0,0,0,0h0Zm3.48,2.99l-3.23,4.03c.8.64,1.63,1.28,2.46,1.88l3.05-4.17s0,0-.01,0c0,0-.01,0-.02-.01,0,0,0,0-.01,0-.01,0-.02-.01-.03-.02,0,0,0,0,0,0-.01,0-.02-.01-.03-.02,0,0,0,0,0,0,0,0-.02-.02-.03-.02,0,0,0,0,0,0-.63-.46-1.24-.93-1.85-1.41,0,0,0,0,0,0-.01,0-.02-.02-.03-.03,0,0,0,0,0,0,0,0-.02-.02-.03-.02,0,0,0,0,0,0-.01,0-.02-.02-.03-.02,0,0,0,0,0,0,0,0-.02-.02-.03-.02,0,0,0,0,0,0,0,0-.02-.01-.02-.02h0s-.02-.02-.02-.03c0,0,0,0-.01-.01,0,0-.01-.01-.02-.02,0,0,0,0-.01-.01,0,0-.01-.01-.02-.02,0,0,0,0,0,0h0Zm3.68,2.74l-2.94,4.25c.84.58,1.71,1.16,2.58,1.71l2.75-4.37s-.06-.04-.09-.06c0,0,0,0,0,0-.01,0-.02-.01-.03-.02,0,0,0,0-.01,0h-.02s-.01-.02-.02-.03c0,0,0,0-.01,0,0,0-.02-.01-.03-.02,0,0,0,0-.01,0-.01,0-.02-.01-.03-.02,0,0,0,0-.01,0-.01,0-.02-.01-.03-.02h0s-.02-.02-.03-.03c0,0,0,0,0,0-.02-.02-.05-.03-.07-.05,0,0,0,0,0,0-.01,0-.02-.02-.04-.02,0,0,0,0,0,0-.24-.15-.48-.31-.71-.46,0,0,0,0,0,0-.01,0-.02-.02-.04-.02,0,0,0,0,0,0-.02-.02-.05-.03-.07-.05,0,0,0,0,0,0-.01,0-.02-.02-.03-.02,0,0,0,0,0,0l-.03-.02s0,0,0,0c-.01,0-.02-.01-.03-.02,0,0,0,0,0,0-.01,0-.02-.01-.03-.02,0,0,0,0,0,0,0,0-.02-.01-.03-.02,0,0,0,0-.01,0,0,0-.01,0-.02-.02,0,0-.01,0-.02-.01,0,0-.01,0-.02-.01,0,0,0,0-.01,0,0,0-.02-.01-.02-.02,0,0-.01,0-.02-.01,0,0-.01,0-.02-.01,0,0-.01-.01-.02-.01,0,0,0,0,0,0-.01,0-.02-.01-.03-.02,0,0,0,0,0,0-.01,0-.02-.02-.04-.02h0c-.23-.16-.46-.31-.68-.47h0Zm3.86,2.48l-2.63,4.44c.88.52,1.79,1.04,2.7,1.52l2.43-4.55c-.38-.2-.76-.41-1.14-.62,0,0,0,0,0,0-.01,0-.02-.01-.04-.02,0,0,0,0,0,0-.01,0-.02-.01-.03-.02,0,0,0,0,0,0-.01,0-.02-.01-.03-.02,0,0,0,0,0,0-.01,0-.02-.01-.03-.02,0,0,0,0,0,0-.01,0-.02-.01-.03-.02,0,0,0,0,0,0-.01,0-.02-.01-.03-.02,0,0,0,0,0,0-.01,0-.02-.01-.03-.02,0,0,0,0-.01,0-.01,0-.02-.01-.03-.02,0,0,0,0-.01,0-.01,0-.02-.01-.03-.02,0,0,0,0-.01,0,0,0-.02,0-.02-.01,0,0-.01,0-.02,0,0,0-.01,0-.02-.01,0,0-.01,0-.02,0,0,0-.02,0-.03-.01,0,0,0,0-.01,0,0,0-.02-.01-.03-.02,0,0,0,0-.01,0,0,0-.02-.01-.03-.02,0,0,0,0-.01,0,0,0-.02,0-.02-.01,0,0-.01,0-.02,0,0,0-.01,0-.02-.01,0,0,0,0-.01,0,0,0-.02-.01-.02-.01,0,0,0,0-.01,0,0,0-.02-.01-.03-.02,0,0,0,0-.01,0,0,0-.02-.01-.03-.02h-.01s-.02-.02-.03-.02c0,0,0,0-.01,0,0,0-.02,0-.02-.01,0,0-.01,0-.01,0,0,0-.02,0-.02-.01,0,0,0,0-.01,0,0,0-.02-.01-.03-.02,0,0,0,0-.01,0,0,0-.02-.01-.03-.02,0,0,0,0-.01,0-.01,0-.02-.01-.03-.02,0,0,0,0,0,0-.01,0-.02-.01-.03-.02,0,0,0,0,0,0-.01,0-.02-.01-.03-.02,0,0,0,0,0,0-.01,0-.02-.01-.04-.02,0,0,0,0,0,0-.01,0-.02-.01-.04-.02,0,0,0,0,0,0-.01,0-.03-.02-.04-.02h0c-.06-.04-.13-.08-.19-.11h0Zm4.03,2.2l-2.31,4.62c.92.46,1.86.91,2.8,1.33l2.11-4.72c-.87-.39-1.74-.8-2.59-1.23h0Zm4.17,1.91l-1.98,4.77c.95.39,1.92.77,2.89,1.12l1.77-4.85c-.19-.07-.37-.14-.56-.21h-.01s-.02-.01-.03-.02c0,0-.01,0-.02,0,0,0-.02,0-.02,0,0,0-.01,0-.02,0h-.01s-.02-.01-.03-.02c0,0,0,0-.01,0h-.03s0-.01,0-.02c-.01,0-.02,0-.04-.01,0,0,0,0,0,0-.63-.24-1.25-.49-1.87-.74h0Zm4.3,1.61l-1.64,4.9c.97.33,1.97.63,2.96.92l1.42-4.97c-.37-.11-.75-.22-1.12-.33,0,0,0,0,0,0-.01,0-.03,0-.04-.01,0,0,0,0,0,0-.01,0-.03,0-.04-.01,0,0,0,0,0,0-.01,0-.02,0-.04-.01,0,0,0,0,0,0-.01,0-.02,0-.03-.01,0,0,0,0,0,0-.01,0-.02,0-.03,0,0,0,0,0-.01,0-.01,0-.02,0-.03,0,0,0,0,0-.01,0-.01,0-.02,0-.03,0,0,0,0,0-.01,0-.01,0-.02,0-.03,0,0,0,0,0-.01,0,0,0-.01,0-.02,0,0,0-.01,0-.02,0,0,0-.02,0-.02,0,0,0-.01,0-.02,0-.01,0-.02,0-.03,0,0,0-.01,0-.02,0,0,0-.02,0-.03,0,0,0-.01,0-.02,0,0,0-.01,0-.02,0,0,0-.02,0-.03,0,0,0-.01,0-.02,0,0,0-.02,0-.03,0,0,0,0,0-.02,0,0,0-.02,0-.03,0,0,0-.01,0-.02,0,0,0-.01,0-.02,0,0,0-.02,0-.03,0h-.02s-.01,0-.02-.01c0,0-.02,0-.03,0,0,0-.01,0-.02,0,0,0-.02,0-.03,0,0,0-.01,0-.02,0s-.01,0-.02,0c0,0-.02,0-.03,0,0,0-.01,0-.02,0-.01,0-.02,0-.03,0,0,0-.01,0-.02,0,0,0-.02,0-.02,0h-.02s-.02-.01-.03-.01c0,0,0,0-.01,0,0,0-.02,0-.03-.01,0,0,0,0-.01,0-.01,0-.02,0-.03-.01,0,0,0,0,0,0-.01,0-.02,0-.04-.01,0,0,0,0,0,0-.03,0-.05-.02-.08-.03,0,0,0,0,0,0-.01,0-.03,0-.04-.01,0,0,0,0,0,0-.11-.04-.22-.07-.34-.11h0Zm4.4,1.3l-1.28,5c1,.26,2.01.49,3.02.7l1.06-5.05c-.94-.2-1.87-.41-2.79-.65h0Zm4.48.98l-.93,5.08c1.01.18,2.04.35,3.06.49l.7-5.12c-.74-.1-1.48-.22-2.22-.34h0s-.01,0-.02,0c0,0,0,0,0,0,0,0,0,0-.01,0,0,0,0,0-.01,0,0,0,0,0,0,0,0,0-.01,0-.01,0,0,0,0,0,0,0-.18-.03-.35-.06-.52-.09h0Zm4.54.66l-.57,5.13c1.02.11,2.06.2,3.08.27l.34-5.15c-.05,0-.1,0-.16-.01,0,0,0,0,0,0,0,0-.01,0-.02,0,0,0-.01,0-.02,0,0,0,0,0,0,0,0,0-.01,0-.02,0,0,0,0,0,0,0,0,0-.01,0-.02,0h0s-.02,0-.02,0h0c-.6-.04-1.2-.09-1.8-.15h0s-.02,0-.03,0h0s-.08,0-.13-.01c0,0,0,0,0,0,0,0-.01,0-.02,0,0,0,0,0,0,0,0,0-.01,0-.02,0,0,0,0,0,0,0,0,0-.01,0-.02,0,0,0,0,0,0,0,0,0-.01,0-.02,0h0s-.02,0-.02,0h0s-.02,0-.02,0c0,0,0,0,0,0,0,0-.01,0-.02,0,0,0,0,0,0,0,0,0-.01,0-.02,0,0,0,0,0,0,0,0,0-.01,0-.01,0,0,0,0,0,0,0,0,0-.01,0-.02,0,0,0,0,0,0,0,0,0-.01,0-.02,0h0s-.02,0-.02,0c0,0,0,0,0,0,0,0-.01,0-.02,0,0,0,0,0,0,0,0,0,0,0-.01,0,0,0,0,0-.01,0,0,0,0,0-.01,0s0,0-.01,0c0,0,0,0-.01,0,0,0,0,0,0,0,0,0-.01,0-.02,0,0,0,0,0,0,0,0,0-.02,0-.02,0t0,0s-.01,0-.02,0c0,0,0,0,0,0,0,0-.01,0-.02,0,0,0,0,0,0,0h-.02s0,0,0,0c0,0-.01,0-.02,0,0,0,0,0,0,0-.02,0-.03,0-.05,0h0Zm4.58.34l-.21,5.16c.95.04,1.91.06,2.85.06h.24s-.02-5.16-.02-5.16c-.02,0-.04,0-.05,0h-.02c-.05,0-.1,0-.15,0h-.12s0,0,0,0h-.08s-.02,0-.04,0h-.01s-.02,0-.03,0h-.04s0,0-.01,0h-.04s-.02,0-.03,0h-.01s-.02,0-.03,0c0,0,0,0-.01,0h-.02s-.01,0-.02,0c0,0-.02,0-.03,0h-.01s-.02,0-.03,0c0,0-.01,0-.02,0s-.01,0-.02,0h-.02s-.02,0-.03,0c0,0-.01,0-.02,0,0,0-.01,0-.02,0,0,0-.01,0-.02,0,0,0-.02,0-.02,0s-.01,0-.02,0h-.02s-.02,0-.03,0c0,0,0,0-.02,0,0,0-.01,0-.02,0,0,0-.01,0-.02,0-.01,0-.02,0-.03,0,0,0,0,0-.01,0-.02,0-.05,0-.07,0h0s-.05,0-.07,0h0s-.03,0-.05,0h0c-.52,0-1.03-.02-1.54-.04h0Zm7.46-.12h-.19s0,.01,0,.01h-.02s0,0,0,0c0,0-.01,0-.02,0,0,0,0,0-.01,0,0,0,0,0-.01,0,0,0-.01,0-.01,0h0s-.04,0-.06,0h0s-.01,0-.02,0c0,0,0,0,0,0-.83.06-1.67.1-2.51.12l.15,5.16c1.03-.03,2.07-.08,3.09-.16l-.38-5.15h0Zm4.56-.49h0c-.51.07-1.03.14-1.55.2,0,0,0,0,0,0,0,0-.01,0-.02,0,0,0,0,0,0,0,0,0-.01,0-.02,0,0,0,0,0,0,0,0,0,0,0-.02,0,0,0,0,0,0,0,0,0-.01,0-.02,0,0,0,0,0,0,0-.01,0-.02,0-.03,0,0,0,0,0,0,0,0,0,0,0-.01,0,0,0,0,0-.01,0,0,0,0,0,0,0,0,0-.01,0-.02,0,0,0,0,0,0,0,0,0-.01,0-.02,0,0,0,0,0,0,0,0,0-.01,0-.02,0,0,0,0,0,0,0,0,0-.02,0-.02,0h0s-.05,0-.08,0h0s-.01,0-.02,0h0c-.31.04-.62.07-.93.1l.51,5.14c1.02-.1,2.06-.23,3.07-.37l-.74-5.11h0Zm4.52-.81c-.4.09-.81.17-1.21.25h0s-.02,0-.02,0h0s-.01,0-.02,0c0,0,0,0,0,0,0,0,0,0-.01,0,0,0,0,0-.01,0,0,0,0,0-.01,0,0,0,0,0-.01,0,0,0,0,0,0,0-.5.1-1,.19-1.5.27l.87,5.09c1.01-.17,2.04-.37,3.04-.59l-1.1-5.05h0Zm4.45-1.13c-.54.16-1.09.31-1.64.46,0,0,0,0,0,0,0,0-.01,0-.02,0,0,0,0,0,0,0,0,0-.01,0-.02,0,0,0,0,0,0,0,0,0-.01,0-.02,0,0,0,0,0,0,0,0,0-.01,0-.02,0,0,0,0,0,0,0-.03,0-.07.02-.1.03h0s-.01,0-.02,0c0,0,0,0,0,0,0,0-.01,0-.02,0,0,0,0,0,0,0,0,0-.01,0-.02,0,0,0,0,0,0,0,0,0-.01,0-.02,0,0,0,0,0,0,0-.28.07-.56.14-.85.21l1.23,5.01c1-.24,2.01-.52,2.99-.8l-1.45-4.96h0Zm4.36-1.45c-.78.29-1.57.57-2.37.83,0,0,0,0,0,0-.01,0-.02,0-.04.01,0,0,0,0,0,0-.01,0-.02,0-.03.01,0,0,0,0-.01,0h-.03s-.01.01-.02.02c0,0-.01,0-.02,0-.01,0-.02,0-.03.01,0,0,0,0,0,0-.05.02-.1.03-.14.05l1.58,4.92c.98-.32,1.96-.66,2.93-1.01l-1.8-4.84h0Zm4.24-1.75s-.01,0-.02,0h0s-.03.01-.04.02h0c-.2.09-.41.18-.61.27h0s-.03.01-.04.02h0s-.07.03-.11.05c0,0,0,0-.01,0-.01,0-.02,0-.03.01,0,0,0,0-.01,0,0,0-.02,0-.03.01,0,0-.01,0-.02,0,0,0-.01,0-.02,0,0,0-.02,0-.03.01,0,0-.01,0-.02,0,0,0-.02,0-.03.01,0,0,0,0-.01,0,0,0-.02,0-.03.01,0,0,0,0-.01,0,0,0-.02,0-.03.01,0,0,0,0,0,0,0,0-.02,0-.03.01,0,0,0,0,0,0-.01,0-.02.01-.03.02,0,0,0,0,0,0-.01,0-.02.01-.04.02,0,0,0,0,0,0-.01,0-.03.01-.04.02,0,0,0,0,0,0-.45.19-.91.38-1.37.57l1.93,4.79c.95-.38,1.91-.79,2.85-1.22l-2.14-4.7h0Zm4.11-2.05s-.01,0-.02,0c0,0,0,0,0,0l-.04.02h0s-.07.04-.11.06h0s-.03.02-.04.02h0s-.03.02-.04.02h0c-.05.03-.1.06-.15.08h0s-.03.02-.04.02h0s-.03.02-.04.02h0s-.07.04-.11.06h0s-.03.02-.04.02h0s-.03.02-.04.02c0,0,0,0,0,0-.01,0-.03.01-.04.02h0s-.07.04-.11.06c0,0,0,0,0,0-.01,0-.02.01-.04.02t0,0s-.02.01-.04.02c0,0,0,0,0,0-.02.01-.04.02-.06.03h0s-.03.01-.04.02c0,0,0,0,0,0-.01,0-.02.01-.03.02,0,0,0,0,0,0-.01,0-.02.01-.03.02,0,0,0,0,0,0-.01,0-.02.01-.03.02,0,0,0,0,0,0l-.03.02s0,0,0,0h-.02s0,.01-.01.02c-.01,0-.02.01-.03.02,0,0,0,0-.01,0,0,0-.02,0-.03.01,0,0,0,0-.01,0,0,0-.02,0-.03.01,0,0,0,0-.01,0,0,0-.01,0-.02,0,0,0-.02,0-.02.01,0,0-.01,0-.02,0,0,0-.01,0-.02,0,0,0-.02,0-.02.01,0,0,0,0-.01,0,0,0-.02,0-.03.01,0,0-.01,0-.01,0,0,0-.02,0-.03.01,0,0,0,0-.01,0,0,0-.02,0-.03.01,0,0,0,0-.01,0,0,0-.01,0-.02,0,0,0-.02,0-.02.01,0,0-.01,0-.02,0,0,0-.01,0-.02,0,0,0-.02,0-.02.01,0,0,0,0-.01,0,0,0-.02,0-.03.01,0,0-.01,0-.01,0,0,0-.02,0-.03.01,0,0,0,0-.01,0,0,0-.02,0-.03.01,0,0-.01,0-.01,0,0,0-.01,0-.02.01,0,0,0,0,0,0-.01,0-.02.01-.03.02,0,0,0,0-.01,0-.01,0-.02.01-.03.02,0,0,0,0,0,0-.01,0-.02.01-.03.02,0,0,0,0-.01,0-.01,0-.02.01-.03.02,0,0,0,0,0,0-.01,0-.03.01-.04.02,0,0,0,0,0,0,0,0-.01,0-.02.01,0,0,0,0,0,0-.01,0-.03.01-.04.02,0,0,0,0,0,0-.01,0-.03.01-.04.02h0s-.03.02-.04.02h0c-.1.05-.2.1-.3.15l2.26,4.64c.92-.45,1.85-.93,2.75-1.42l-2.46-4.54h0Zm3.95-2.33c-.08.05-.16.1-.24.15h0s-.02.02-.04.03c0,0,0,0,0,0-.01,0-.02.01-.03.02,0,0,0,0,0,0,0,0-.01,0-.02.01,0,0-.02.01-.02.01h-.02s-.02.02-.03.03c0,0,0,0-.01,0,0,0-.02.01-.02.02,0,0,0,0-.01,0,0,0-.02.01-.03.02,0,0,0,0,0,0-.01,0-.02.01-.03.02,0,0,0,0,0,0-.01,0-.02.01-.03.02h0s-.02.02-.03.02c0,0,0,0,0,0-.01,0-.02.01-.04.02,0,0,0,0,0,0-.6.37-1.2.73-1.81,1.08l2.58,4.47c.89-.51,1.78-1.06,2.65-1.61l-2.78-4.35h0Zm3.78-2.6c-.29.21-.58.42-.87.63,0,0,0,0,0,0-.01,0-.02.02-.04.03,0,0,0,0,0,0-.01,0-.02.02-.03.02,0,0,0,0,0,0-.01,0-.02.02-.03.02h0s-.02.02-.03.03h0s-.02.02-.03.02c0,0,0,0,0,0-.01,0-.02.01-.03.02,0,0,0,0,0,0-.01,0-.02.01-.03.02,0,0,0,0,0,0-.01,0-.02.01-.03.02,0,0,0,0-.01,0,0,0-.02.01-.03.02,0,0,0,0-.01,0,0,0-.02.01-.02.02,0,0,0,0-.01,0,0,0-.01,0-.02.02,0,0,0,0-.01,0,0,0-.02.01-.02.02,0,0,0,0-.01,0,0,0-.02.01-.02.02,0,0-.01,0-.01.01,0,0-.02.01-.02.02,0,0-.01,0-.01.01,0,0-.01,0-.02.01,0,0-.02.01-.02.02,0,0,0,0-.01,0,0,0-.02.01-.03.02,0,0,0,0,0,0l-.03.02s0,0,0,0c-.27.19-.55.38-.82.57l2.89,4.28c.85-.58,1.7-1.18,2.53-1.79l-3.08-4.15h0Zm3.59-2.86s0,0,0,0c0,0-.01.01-.02.02,0,0,0,0-.01,0,0,0-.02.01-.02.02,0,0,0,0-.01,0,0,0-.02.01-.02.02,0,0,0,0,0,0,0,0-.02.01-.03.02,0,0,0,0-.01,0,0,0-.02.02-.03.02,0,0,0,0,0,0,0,0-.02.02-.03.02,0,0,0,0,0,0,0,0-.02.02-.03.02,0,0,0,0,0,0,0,0-.02.02-.03.02,0,0,0,0,0,0,0,0-.02.02-.03.02,0,0,0,0,0,0-.01,0-.02.02-.03.03,0,0,0,0,0,0,0,0-.02.02-.03.03,0,0,0,0,0,0-.03.03-.07.06-.1.09h0s-.02.02-.03.03h0c-.56.47-1.13.93-1.71,1.38l3.19,4.06c.81-.63,1.61-1.29,2.39-1.96l-3.36-3.92h0Zm3.38-3.11c-.67.66-1.35,1.31-2.05,1.94h0s-.02.02-.03.03c0,0,0,0,0,0l3.46,3.83c.76-.69,1.52-1.4,2.25-2.12l-3.63-3.68h0Zm3.15-3.34c-.59.67-1.19,1.32-1.8,1.96h0s-.02.02-.03.03c0,0,0,0,0,0,0,0-.02.02-.02.03,0,0,0,0,0,0,0,0-.01.01-.02.02,0,0,0,0-.01.01h-.01s-.01.03-.02.03c0,0,0,0,0,0l3.72,3.58c.71-.74,1.42-1.51,2.1-2.28l-3.88-3.41h0Zm2.91-3.55c-.33.43-.67.86-1.01,1.29h0s-.02.02-.03.04h0s-.02.03-.03.04h0s-.05.07-.08.1t0,0s-.02.02-.03.03c0,0,0,0,0,0l-.03.03s0,0,0,0c0,.01-.02.02-.03.03,0,0,0,0,0,0-.18.22-.37.45-.55.67l3.96,3.31c.66-.79,1.31-1.6,1.93-2.42l-4.1-3.13h0Zm2.65-3.74s0,0,0,0c0,.01-.01.02-.02.03,0,0,0,0,0,0,0,.01-.01.02-.02.03,0,0,0,0,0,0,0,.01-.01.02-.02.03,0,0,0,0,0,0,0,.01-.01.02-.02.03,0,0,0,0,0,0,0,.01-.02.02-.02.03,0,0,0,0,0,0,0,.01-.01.02-.02.03,0,0,0,0,0,0,0,.01-.01.02-.02.03,0,0,0,0,0,0,0,.01-.02.02-.02.03,0,0,0,0,0,0-.22.34-.45.67-.68,1h0s-.02.02-.03.04c0,0,0,0,0,0,0,.01-.02.02-.02.04,0,0,0,0,0,0,0,.01-.02.02-.02.03,0,0,0,0,0,0,0,.01-.02.02-.02.03,0,0,0,0,0,0,0,.01-.01.02-.02.03,0,0,0,0,0,0,0,.01-.01.02-.02.03,0,0,0,0,0,0,0,.01-.01.02-.02.03,0,0,0,0,0,.01,0,0-.01.02-.02.03,0,0,0,0,0,.01,0,0,0,.01-.01.02,0,0,0,.01-.01.02,0,0,0,.01-.01.02,0,0-.01.02-.02.03,0,0,0,0,0,.01,0,.01-.02.02-.02.03,0,0,0,0,0,0-.15.21-.3.42-.45.63l4.19,3.02c.6-.83,1.19-1.69,1.76-2.55l-4.31-2.84h0Zm2.38-3.92c-.06.11-.12.22-.19.33h0s-.02.03-.02.04h0s-.01.03-.02.04c0,0,0,0,0,0l-.06.1s0,0,0,0c0,.01-.01.02-.02.04,0,0,0,0,0,0,0,.01-.01.02-.02.03,0,0,0,0,0,0,0,.01-.01.02-.02.03,0,0,0,0,0,0l-.02.04s0,0,0,0c-.01.02-.02.04-.04.06,0,0,0,0,0,0,0,.01-.01.02-.02.03t0,0s-.01.02-.02.03c0,0,0,0,0,0l-.02.03s0,0,0,0l-.04.06s0,0,0,0c0,.01-.01.02-.02.04,0,0,0,0,0,0,0,.01-.01.02-.02.04,0,0,0,0,0,0,0,.01-.01.02-.02.04,0,0,0,0,0,0,0,.01-.01.03-.02.04,0,0,0,0,0,0-.02.03-.04.07-.06.1h0s-.02.03-.02.04h0s-.02.03-.02.04h0c-.03.05-.06.1-.09.15h0s-.02.03-.02.04h0c-.19.33-.39.65-.59.98l4.39,2.72c.54-.87,1.07-1.77,1.57-2.67l-4.5-2.53h0Zm2.1-4.08c-.06.13-.13.27-.19.4,0,0,0,0,0,0,0,.01-.01.03-.02.04,0,0,0,0,0,0,0,.01-.01.03-.02.04,0,0,0,0,0,0-.01.03-.02.05-.04.08,0,0,0,0,0,0,0,.01-.01.02-.02.04,0,0,0,0,0,0,0,.01-.01.02-.02.03,0,0,0,0,0,0,0,.01-.01.02-.02.03,0,0,0,0,0,0,0,.01-.01.02-.02.03,0,0,0,0,0,0,0,.01-.01.02-.02.03,0,0,0,0,0,0,0,.01-.01.02-.02.03h0s-.01.03-.02.04c0,0,0,0,0,0,0,.01-.01.02-.02.03,0,0,0,0,0,0,0,.01-.01.02-.02.03,0,0,0,0,0,0,0,.01-.01.02-.02.03,0,0,0,0,0,0,0,.01-.01.02-.02.03,0,0,0,0,0,0,0,.01-.01.02-.02.03,0,0,0,0,0,0,0,.01-.01.02-.02.03,0,0,0,0,0,0,0,.01-.01.02-.02.03,0,0,0,0,0,0,0,.01-.01.03-.02.04,0,0,0,0,0,0-.01.03-.03.05-.04.08,0,0,0,0,0,0,0,.01-.01.02-.02.04h0s-.01.03-.02.04c0,0,0,0,0,0-.21.41-.42.83-.63,1.23l4.57,2.41c.48-.91.94-1.84,1.38-2.77l-4.67-2.2h0Zm1.81-4.22c-.08.2-.15.39-.23.58,0,0,0,0,0,0,0,.01-.01.03-.02.04,0,0,0,0,0,0,0,.01-.01.03-.02.04,0,0,0,0,0,0,0,.01-.01.03-.02.04,0,0,0,0,0,0,0,.01-.01.03-.01.04,0,0,0,0,0,0,0,.01,0,.02-.01.03,0,0,0,0,0,0,0,.01,0,.02-.01.03,0,0,0,0,0,0,0,.01,0,.02-.01.03,0,0,0,0,0,0,0,0,0,.02-.01.03h0s0,.03-.01.04c0,0,0,0,0,.01,0,0,0,.02-.01.03h0s0,.03-.01.04c0,0,0,0,0,.01,0,0,0,.02-.01.03,0,0,0,.01,0,.02,0,0,0,.02-.01.02,0,0,0,.01,0,.02,0,0,0,.02,0,.02,0,0,0,.01,0,.02,0,0,0,.02-.01.03,0,0,0,.01,0,.02,0,0,0,.02-.01.03,0,0,0,.01,0,.02,0,0,0,.01,0,.02,0,0,0,.01,0,.02,0,0,0,.01,0,.02,0,0,0,.02-.01.03,0,0,0,.01,0,.02v.02s-.01.01-.02.02c0,0,0,.01,0,.02,0,0,0,.02-.01.03,0,0,0,.01,0,.02,0,0,0,.01,0,.02,0,0,0,.02-.01.02,0,0,0,0,0,.02,0,0,0,.02-.01.03,0,0,0,.01,0,.02v.03s-.02.01-.02.02c0,0,0,.01,0,.02,0,0,0,.02-.01.02,0,0,0,.01,0,.02,0,0,0,.01,0,.02,0,0,0,.02-.01.02,0,0,0,0,0,.02,0,0,0,.02-.01.03,0,0,0,0,0,.01,0,.01,0,.02-.01.03,0,0,0,0,0,.01,0,0,0,.02-.01.03,0,0,0,.01,0,.02,0,0,0,.01,0,.02,0,0,0,0,0,0,0,.01,0,.02-.01.03,0,0,0,0,0,0,0,.01-.01.02-.02.04,0,0,0,0,0,0l-.02.04h0c-.09.21-.18.43-.27.63l4.73,2.08c.41-.94.81-1.9,1.18-2.86l-4.82-1.86h0Zm1.5-4.34s0,0,0,.01c0,0,0,.02,0,.02,0,0,0,0,0,.01,0,.01,0,.02-.01.03h0s0,.03-.01.05c0,0,0,0,0,0,0,.01,0,.03-.01.04,0,0,0,0,0,0-.16.51-.33,1.03-.5,1.53,0,0,0,0,0,0,0,.01,0,.03-.01.04,0,0,0,0,0,0,0,.01,0,.02-.01.04,0,0,0,0,0,0,0,0,0,.02-.01.03,0,0,0,0,0,.01,0,.01,0,.02,0,.03,0,0,0,.01,0,.02,0,0,0,.01,0,.02,0,0,0,.02,0,.02,0,0,0,.01,0,.02s0,.02,0,.02c0,0,0,.01,0,.02,0,0,0,.01,0,.02,0,0,0,0,0,0,0,.01,0,.03-.01.04h0c-.08.22-.15.44-.23.66l4.86,1.74c.35-.97.67-1.96.98-2.94l-4.94-1.52h0Zm1.19-4.43c-.22.93-.45,1.86-.71,2.78l4.97,1.39c.28-.99.53-2,.77-3l-5.03-1.16h0Zm.88-4.5c-.15.95-.32,1.89-.51,2.82l5.06,1.03c.2-1.01.39-2.03.55-3.05l-5.1-.81h0Zm.56-4.55c-.02.24-.04.49-.07.73,0,0,0,0,0,0,0,0,0,0,0,.01,0,0,0,0,0,.01,0,0,0,0,0,.01,0,0,0,0,0,.01,0,0,0,0,0,.01,0,0,0,0,0,.01,0,0,0,0,0,.01,0,0,0,.01,0,.02,0,0,0,0,0,0v.02s0,0,0,0c0,.02,0,.03,0,.05h0s0,.02,0,.03h0s0,.02,0,.02h0s0,.02,0,.03h0c-.02.22-.05.45-.07.67h0s0,.02,0,.03h0s0,.07-.01.1c0,0,0,0,0,0,0,0,0,.01,0,.02,0,0,0,0,0,0,0,0,0,.01,0,.02,0,0,0,0,0,0,0,0,0,.01,0,.02,0,0,0,0,0,0,0,0,0,.01,0,.02,0,0,0,0,0,0,0,0,0,.01,0,.02,0,0,0,0,0,.02,0,0,0,0,0,.01,0,0,0,0,0,.01,0,0,0,0,0,.01,0,0,0,0,0,.01,0,0,0,0,0,0,0,0,0,.01,0,.02,0,0,0,0,0,0,0,0,0,.01,0,.02,0,0,0,0,0,0-.03.27-.07.55-.1.82l5.12.67c.13-1.02.25-2.05.33-3.08l-5.14-.44h0Zm.24-4.58c-.02.96-.05,1.92-.11,2.87l5.15.31c.06-1.02.1-2.06.12-3.09l-5.16-.09h0Zm5.07-4.86l-5.16.27c.02.43.04.86.06,1.28h0s0,.09,0,.13h0s0,.02,0,.03h0s0,.07,0,.1h0s0,.02,0,.03h0s0,.02,0,.03h0s0,.02,0,.03h0s0,.05,0,.08h0s0,.02,0,.02c0,0,0,0,0,0,0,0,0,.01,0,.02,0,0,0,0,0,0,0,0,0,.01,0,.02h0s0,.02,0,.03c0,0,0,0,0,0,0,.02,0,.03,0,.05,0,0,0,0,0,0,0,0,0,.01,0,.02h0s0,.02,0,.02c0,0,0,0,0,0,0,0,0,.01,0,.02,0,0,0,0,0,0,0,0,0,.01,0,.02,0,0,0,0,0,0,0,0,0,.02,0,.02h0s0,.02,0,.02c0,0,0,0,0,.01,0,0,0,0,0,.01,0,0,0,0,0,.01,0,0,0,0,0,.01,0,0,0,0,0,.01,0,0,0,0,0,.01,0,0,0,0,0,.01h0s0,.06,0,.09h0s0,.02,0,.02h0s0,.02,0,.02h0c0,.21,0,.42,0,.63l5.16-.05c0-1.03-.04-2.07-.1-3.09h0Zm-.43-4.93l-5.12.63v.08s.01,0,.01,0c0,0,0,0,0,.01,0,0,0,0,0,.01,0,0,0,0,0,.01,0,0,0,0,0,.01s0,0,0,.01c0,0,0,.01,0,.01,0,0,0,0,0,0v.05s0,0,0,0c0,0,0,.02,0,.02h0s0,.02,0,.02h0s0,.02,0,.03h0c.03.21.05.43.07.64h0s0,.02,0,.02h0s0,.02,0,.02h0s0,.07.01.1c0,0,0,0,0,0,0,0,0,.01,0,.02h0s0,.02,0,.02c0,0,0,0,0,0,0,0,0,.01,0,.02,0,0,0,0,0,0,0,0,0,0,0,.01,0,0,0,0,0,.01,0,0,0,.01,0,.02,0,0,0,0,0,.01,0,0,0,.01,0,.02h0s0,.02,0,.02c0,0,0,0,0,.01,0,0,0,0,0,.01,0,0,0,.01,0,.01,0,0,0,0,0,0,0,0,0,.01,0,.01,0,0,0,0,0,0,0,0,0,.01,0,.02h0s0,.07.01.11h0c.05.46.09.92.12,1.39l5.15-.41c-.08-1.02-.19-2.06-.31-3.08h0Zm-.78-4.89l-5.07.99c.13.66.25,1.33.36,2,0,0,0,0,0,0,0,0,0,.01,0,.02,0,0,0,0,0,0,0,0,0,.01,0,.02,0,0,0,0,0,0,0,.02,0,.04,0,.06,0,0,0,0,0,0,0,0,0,0,0,.01,0,0,0,0,0,.01,0,0,0,0,0,.01,0,0,0,0,0,.01,0,0,0,0,0,.01s0,0,0,.01c0,0,0,0,0,.01,0,0,0,0,0,.01,0,0,0,0,0,.01,0,0,0,0,0,.01,0,0,0,0,0,0v.02s0,0,0,0c0,0,0,.02,0,.02h0s0,.02,0,.02c0,0,0,0,0,0,0,0,0,.01,0,.02,0,0,0,0,0,0,0,0,0,.01,0,.02,0,0,0,0,0,0,0,0,0,.01,0,.02h0s0,.02,0,.03h0s.01.07.02.1h0s0,.02,0,.03h0s0,.02,0,.02h0s0,.02,0,.03h0s0,.05.01.08h0s0,.02,0,.02h0s0,.02,0,.02h0s0,.02,0,.02h0s0,.02,0,.02c0,0,0,0,0,0,0,.02,0,.03,0,.05l5.11-.77c-.15-1.02-.33-2.04-.53-3.05h0Zm-1.12-4.83l-4.98,1.35c.25.92.48,1.85.69,2.78l5.04-1.13c-.22-1-.47-2.02-.74-3.01h0Zm-1.46-4.73l-4.88,1.7c.03.09.06.18.09.27h0s0,.03.01.05c0,0,0,0,0,0v.04s.02,0,.02,0c0,0,0,.01,0,.02,0,0,0,.01,0,.02v.03s.01.01.02.02c0,0,0,.02,0,.02s0,.01,0,.02v.02s.01.02.02.03c0,0,0,0,0,.01,0,.01,0,.02.01.03,0,0,0,0,0,.01,0,0,0,.02.01.03,0,0,0,0,0,0,0,.01,0,.02.01.04,0,0,0,0,0,0,0,.01,0,.03.01.04,0,0,0,0,0,0,0,.01,0,.03.01.04,0,0,0,0,0,0,0,.01,0,.03.01.04,0,0,0,0,0,0,.21.64.42,1.28.61,1.92l4.95-1.48c-.3-.98-.62-1.98-.95-2.95h0Zm-1.8-4.62l-4.74,2.04c.06.14.12.27.17.41,0,0,0,0,0,0,0,.01.01.03.02.04,0,0,0,0,0,0,0,.01.01.02.01.04,0,0,0,0,0,0,0,.01,0,.02.01.03,0,0,0,0,0,.01,0,0,0,.02.01.03,0,0,0,0,0,.01,0,0,0,.02.01.03,0,0,0,.01,0,.02,0,0,0,.02.01.03,0,0,0,.01,0,.02,0,0,0,.01,0,.02v.03s.01,0,.02.01c0,.01,0,.02.01.03,0,0,0,0,0,0,0,.01.01.03.02.04,0,0,0,0,0,0,.02.04.03.07.05.11h0c.24.58.47,1.15.69,1.74l4.83-1.83c-.36-.96-.75-1.93-1.16-2.87h0Zm-2.12-4.48l-4.59,2.37c.17.34.35.67.51,1.01,0,0,0,0,0,0,0,.01.01.02.02.03,0,0,0,0,0,0,0,0,0,.02.01.03,0,0,0,0,0,.01,0,0,0,.01,0,.02,0,0,0,.02.01.02,0,0,0,.01,0,.02,0,0,0,.02.01.03,0,0,0,0,0,.01,0,0,0,.02.01.03,0,0,0,0,0,.01,0,0,0,.02.01.03h0s.01.03.02.04c0,0,0,0,0,0,0,.01.01.02.02.03,0,0,0,0,0,0,0,.01.01.03.02.04,0,0,0,0,0,0,.19.39.38.78.56,1.17l4.69-2.17c-.43-.93-.89-1.87-1.36-2.78h0Zm-2.43-4.32l-4.41,2.69c.5.82.98,1.64,1.44,2.48l4.52-2.49c-.5-.9-1.02-1.8-1.55-2.68h0Zm-2.73-4.13l-4.21,2.99c.31.44.62.88.92,1.33,0,0,0,0,0,0l.02.04s0,0,0,0c0,.01.02.02.02.04h0s.02.03.02.04c0,0,0,0,0,0,0,.01.02.02.02.04,0,0,0,0,0,0,0,.01.02.02.02.03,0,0,0,0,0,0,0,.01.02.02.02.03h0s.01.03.02.04c0,0,0,0,0,0,0,.01.01.02.02.03,0,0,0,0,0,0,0,.01.01.02.02.03,0,0,0,0,0,0,0,.01.01.02.02.03,0,0,0,0,0,0,0,.01.01.02.02.03h0s.01.03.02.04c0,0,0,0,0,0,0,.01.01.02.02.03,0,0,0,0,0,0,0,.01.01.02.02.03,0,0,0,0,0,0,0,.01.01.02.02.03,0,0,0,0,0,0,.02.04.05.07.07.11,0,0,0,0,0,0,.08.12.16.25.24.38l4.34-2.81c-.56-.86-1.14-1.72-1.74-2.56h0Zm-3.01-3.93l-3.99,3.28c.09.11.19.23.28.35,0,0,0,0,0,0,0,.01.02.02.03.03,0,0,0,0,0,0,0,0,.02.02.02.03,0,0,0,0,0,0,0,0,.01.02.02.02h0s.01.02.02.03c0,0,0,0,.01.01,0,0,.01.01.02.02,0,0,0,0,.01.01,0,0,.01.01.02.02v.02s.02,0,.02,0c0,.01.02.02.03.03,0,0,0,0,0,0,0,.01.02.02.03.03h0c.27.34.54.68.8,1.02h0s.02.02.03.04c0,0,0,0,0,0,0,0,.02.02.02.03,0,0,0,0,0,.01,0,0,.01.01.02.02,0,0,0,.01.01.02,0,0,0,.01.01.01,0,0,.01.01.02.02,0,0,0,0,.01.01,0,0,.01.02.02.02,0,0,0,0,0,.01,0,0,.01.02.02.03,0,0,0,0,0,0,0,0,.01.02.02.03,0,0,0,0,0,0,0,.01.01.02.02.03,0,0,0,0,0,0,0,0,.02.02.02.03,0,0,0,0,0,0,0,.01.02.02.03.03,0,0,0,0,0,0,.05.07.11.14.16.21l4.13-3.1c-.62-.82-1.26-1.64-1.91-2.43h0Zm-3.28-3.71l-3.75,3.55c.33.35.67.71.99,1.07h0s.05.06.08.09h0s.02.02.03.03c0,0,0,0,0,0,0,0,.01.02.02.02,0,0,0,0,.01.01,0,0,.01.01.02.02,0,0,0,0,.01.01h.01s.01.03.02.03c0,0,0,0,.01.01,0,0,.01.02.02.02,0,0,0,0,.01.01,0,0,.01.02.02.02,0,0,0,0,0,.01l.02.02s0,0,0,.01c0,0,.01.01.02.02,0,0,0,0,0,0,0,0,.01.02.02.02,0,0,0,0,0,0,0,0,.02.02.02.03,0,0,0,0,0,0,0,0,.02.02.02.03,0,0,0,0,0,0,0,0,.02.02.03.03h0s.02.03.03.03c0,0,0,0,0,0,.02.02.04.04.06.06,0,0,0,0,0,0,0,.01.02.02.03.03,0,0,0,0,0,0,0,.01.02.02.03.03,0,0,0,0,0,0,0,.01.02.02.03.03,0,0,0,0,0,0,0,.01.02.02.03.03h0s.04.05.06.07h0s.02.02.03.03h0s.02.02.03.03c0,0,0,0,0,0,0,.01.02.02.03.03,0,0,0,0,0,0,0,0,.02.02.03.03,0,0,0,0,0,0,0,.01.02.02.03.03,0,0,0,0,0,0,0,.01.02.02.03.03,0,0,0,0,0,0,0,0,.02.02.02.03h0s3.9-3.38,3.9-3.38c-.67-.78-1.37-1.55-2.08-2.29h0Zm-3.53-3.47l-3.49,3.81c.7.65,1.4,1.31,2.07,1.98l3.65-3.65c-.73-.73-1.48-1.45-2.23-2.14h0Zm-3.76-3.22l-3.22,4.04s0,0,0,0c0,0,.02.01.03.02,0,0,0,0,0,0,0,0,.02.02.03.02,0,0,0,0,0,0,.01,0,.02.02.03.03,0,0,0,0,0,0,.01,0,.02.02.03.03t0,0c.7.56,1.39,1.13,2.06,1.72l3.39-3.9c-.77-.67-1.58-1.34-2.38-1.98h0Zm-3.98-2.95l-2.92,4.26c.39.26.77.53,1.15.81,0,0,0,0,.01,0,0,0,.02.01.02.02,0,0,.01,0,.02.01,0,0,.01,0,.02.01,0,0,.01,0,.02.01,0,0,0,0,.01.01,0,0,.02.01.02.02,0,0,0,0,0,0,0,0,.02.01.03.02,0,0,0,0,0,0,.01,0,.02.02.03.02,0,0,0,0,0,0,.01,0,.02.02.03.02,0,0,0,0,0,0,.31.23.63.46.94.69l3.11-4.12c-.82-.62-1.67-1.23-2.51-1.81h0Zm-4.18-2.66l-2.62,4.45c.83.49,1.64.99,2.44,1.51l2.81-4.33c-.86-.56-1.75-1.11-2.63-1.63h0Zm-4.36-2.36l-2.3,4.62s0,0,.01,0c0,0,.01,0,.02,0h.02s.02.02.02.02c0,0,0,0,.01,0,0,0,.02,0,.03.01,0,0,0,0,.01,0,0,0,.02,0,.03.01,0,0,0,0,.01,0,.01,0,.02,0,.03.02,0,0,0,0,0,0,0,0,.02.01.03.01,0,0,0,0,0,0,.01,0,.02.01.03.02,0,0,0,0,0,0,0,0,.02.01.03.02,0,0,0,0,.01,0,.01,0,.02.01.03.02,0,0,0,0,0,0,.01,0,.02.01.03.02,0,0,0,0,0,0,.01,0,.02.01.03.02,0,0,0,0,0,0,.01,0,.02.01.03.02h0s.02.01.03.02c0,0,0,0,0,0,.01,0,.02.01.03.02,0,0,0,0,0,0,.01,0,.02.01.03.02,0,0,0,0,0,0,.01,0,.02.01.03.02h0s.02.01.03.02c0,0,0,0,0,0,.01,0,.02.01.04.02,0,0,0,0,0,0,.01,0,.02.01.03.02,0,0,0,0,0,0,.01,0,.02.01.03.02,0,0,0,0,0,0,0,0,.02.01.03.02,0,0,0,0,0,0,0,0,.02.01.03.02,0,0,0,0,0,0,0,0,.02,0,.03.01,0,0,0,0,.01,0,0,0,.02,0,.03.01,0,0,0,0,.01,0,0,0,.02,0,.03.01,0,0,0,0,.01,0,0,0,.02,0,.03.01h.01s.02.02.02.02c0,0,.01,0,.02,0,0,0,.01,0,.02,0,0,0,.02,0,.03.01,0,0,0,0,.01,0,0,0,.02,0,.03.01,0,0,.01,0,.02,0,0,0,.01,0,.02.01,0,0,.01,0,.02.01h.02s0,.01,0,.02c.01,0,.02.01.03.02,0,0,0,0,0,0l.04.02s0,0,0,0c.01,0,.03.01.04.02h0c.39.21.77.41,1.16.63l2.5-4.52c-.9-.5-1.82-.98-2.74-1.44h0Zm-4.51-2.04l-1.96,4.78c.3.12.61.25.91.38,0,0,0,0,0,0,.03.01.05.02.08.03,0,0,0,0,0,0,.01,0,.03.01.04.02,0,0,0,0,0,0,.01,0,.02.01.03.01,0,0,0,0,0,0,.01,0,.02,0,.03.01,0,0,0,0,.01,0,.01,0,.02,0,.03.01,0,0,0,0,.01,0,0,0,.02,0,.02.01,0,0,.01,0,.02,0,0,0,.02,0,.02.01,0,0,0,0,.01,0,0,0,.02,0,.03.01,0,0,.01,0,.02,0,0,0,.02,0,.03.01,0,0,.01,0,.02,0,0,0,.01,0,.02,0,0,0,.02,0,.03.01,0,0,.01,0,.01,0,0,0,.02,0,.03.01,0,0,0,0,.01,0,.01,0,.02,0,.03.01,0,0,0,0,0,0,.01,0,.03.01.04.02h0s.01,0,.02.01c0,0,0,0,0,0,.01,0,.03.01.04.02,0,0,0,0,0,0,.01,0,.03.01.04.02h0s.03.01.04.02h0s.07.03.11.05h0s.03.01.04.02h0s.03.01.04.02h0c.05.02.1.05.16.07h0s.03.01.04.02c0,0,0,0,0,0,.04.02.07.03.11.05h0s.03.01.04.02c0,0,0,0,0,0,.01,0,.02.01.04.02,0,0,0,0,0,0,.01,0,.02.01.04.02,0,0,0,0,0,0l.04.02s0,0,0,0c0,0,.01,0,.02,0,0,0,0,0,.01,0,0,0,.02,0,.03.01,0,0,0,0,.01,0,.01,0,.02,0,.03.01,0,0,0,0,.01,0,0,0,.02,0,.03.01,0,0,.01,0,.02,0h.02s.02.02.03.02c0,0,.01,0,.02,0,0,0,.02,0,.03.01,0,0,0,0,0,0l2.17-4.68c-.93-.43-1.89-.85-2.84-1.24h0Zm-4.65-1.72l-1.62,4.9c.17.06.34.11.51.17,0,0,0,0,0,0,.01,0,.03,0,.04.01,0,0,0,0,0,0,.01,0,.03,0,.04.01,0,0,0,0,0,0,.03,0,.05.02.08.03,0,0,0,0,0,0,.01,0,.02,0,.04.01,0,0,0,0,0,0,.01,0,.02,0,.04.01h0s.02.01.04.02c0,0,0,0,0,0,.01,0,.02,0,.03.01h0s.02.01.03.01h0s.02.01.03.01h.01s.02.01.03.02c0,0,0,0,.01,0,0,0,.02,0,.03.01,0,0,0,0,0,0,0,0,.02,0,.03.01,0,0,0,0,0,0,0,0,.02,0,.03.01,0,0,0,0,.01,0,0,0,.02,0,.03.01,0,0,0,0,.01,0,.01,0,.02,0,.03.01,0,0,0,0,.01,0,.01,0,.02,0,.03.01,0,0,0,0,0,0h.03s0,.01.01.01c0,0,.02,0,.03.01,0,0,0,0,.01,0,0,0,.02,0,.03.01,0,0,0,0,.01,0,.01,0,.02,0,.03.01,0,0,0,0,.01,0,0,0,.02,0,.03.01,0,0,0,0,.01,0,0,0,.02,0,.03.01h0s.02.01.03.01c0,0,0,0,.01,0,0,0,.02,0,.03.01,0,0,0,0,.01,0,.01,0,.02,0,.03.01,0,0,0,0,.01,0,.01,0,.02,0,.03.01,0,0,0,0,0,0,0,0,.02,0,.03.01,0,0,0,0,.01,0,0,0,.02,0,.03.01h.01s.02.01.03.02c0,0,0,0,.01,0,.01,0,.02,0,.03.01,0,0,0,0,.01,0,0,0,.02,0,.03.01,0,0,0,0,0,0,0,0,.02,0,.03.01,0,0,0,0,.01,0,0,0,.02,0,.03.01,0,0,0,0,.01,0,0,0,.02,0,.03.01,0,0,0,0,.01,0,0,0,.02,0,.03.01,0,0,0,0,.01,0,0,0,.02,0,.03.01,0,0,.01,0,.02,0,0,0,.01,0,.02,0,0,0,.01,0,.02,0,0,0,.01,0,.02,0,0,0,.01,0,.02,0,0,0,.02,0,.03,0,0,0,.01,0,.02,0,0,0,.02,0,.03,0,0,0,.01,0,.02,0s.01,0,.02,0c0,0,.02,0,.03.01,0,0,0,0,.01,0,.01,0,.02,0,.03.01,0,0,0,0,0,0,.12.04.23.09.35.13l1.84-4.83c-.96-.37-1.94-.71-2.92-1.04h0Zm-4.76-1.39l-1.27,5.01c.21.05.42.11.63.16h0c.11.03.23.06.34.09h0s.03,0,.04.01h0s.03,0,.05.01h0s.05.01.07.02h0s.03,0,.05.01h0s.03,0,.04.01h0s.08.02.12.03c0,0,0,0,0,0,.01,0,.03,0,.04.01,0,0,0,0,0,0,.01,0,.03,0,.04.01,0,0,0,0,0,0,.01,0,.03,0,.04.01,0,0,0,0,0,0,0,0,.01,0,.02,0,0,0,0,0,0,0,.01,0,.02,0,.04.01,0,0,0,0,.01,0,.01,0,.02,0,.03,0,0,0,0,0,.01,0,.01,0,.02,0,.03,0,0,0,.01,0,.02,0,0,0,.01,0,.02,0,0,0,.02,0,.03,0,0,0,.01,0,.02,0,0,0,.01,0,.02,0,0,0,.02,0,.02,0,0,0,.01,0,.02,0s.02,0,.02,0c0,0,.01,0,.02,0,0,0,.01,0,.02,0,.01,0,.02,0,.03,0,0,0,.01,0,.02,0,.01,0,.02,0,.03,0,0,0,.01,0,.02,0,0,0,.02,0,.02,0,0,0,.01,0,.02,0,0,0,.01,0,.02,0,0,0,.01,0,.02,0,0,0,.02,0,.03,0,0,0,.01,0,.02,0,.01,0,.02,0,.03,0,0,0,0,0,.01,0,.01,0,.02,0,.03,0,0,0,0,0,.01,0,.01,0,.02,0,.03,0,0,0,0,0,.01,0,.01,0,.02,0,.03,0,0,0,0,0,.01,0,.01,0,.02,0,.03,0,0,0,0,0,.01,0,.01,0,.02,0,.03,0,0,0,0,0,.01,0,.01,0,.02,0,.03.01,0,0,0,0,0,0,.01,0,.02,0,.03,0,0,0,0,0,0,0,.01,0,.02,0,.04.01h0s.02,0,.04.01c0,0,0,0,0,0,.01,0,.03,0,.04.01,0,0,0,0,0,0,.01,0,.03,0,.04.01h0s.03,0,.04.01c0,0,0,0,0,0,.01,0,.03,0,.04.01,0,0,0,0,0,0,.01,0,.03,0,.04.01,0,0,0,0,0,0,.01,0,.03,0,.04.01h0l1.49-4.94c-.98-.3-1.99-.57-2.99-.83h0Zm-4.84-1.04l-.91,5.08c.94.17,1.88.36,2.81.57l1.13-5.04c-1-.23-2.02-.43-3.04-.61h0Zm-4.9-.7l-.55,5.13s0,0,.01,0h0s.02,0,.02,0h0s.03,0,.05,0h0s.02,0,.02,0h0s.01,0,.02,0h0s.01,0,.02,0h0c.9.1,1.79.22,2.67.35l.77-5.11c-1.01-.15-2.05-.29-3.07-.4h0Zm-4.94-.35l-.19,5.16s0,0,.01,0h0c.8.03,1.6.07,2.39.13h0s.02,0,.02,0h0s.01,0,.02,0c0,0,0,0,0,0,0,0,.01,0,.02,0,0,0,0,0,0,0h.02s.03,0,.05,0h0c.1,0,.21.02.31.02l.41-5.15c-1.02-.08-2.06-.14-3.09-.18h0Zm-2.61-.05v5.16h.11c.11,0,.23,0,.34,0h0s.01,0,.02,0h.02s0,0,.01,0h0c.06,0,.13,0,.19,0l.05-5.16c-.25,0-.51,0-.76,0h0Z" style="fill: #05d8de; stroke-width: 0px;"/>
        <circle cx="70.28" cy="70.28" r="65.12" style="fill: none; stroke: #fff; stroke-miterlimit: 10; stroke-width: 8.03px;"/>
        <circle cx="70.28" cy="70.28" r="65.12" style="fill: #05d8de; stroke-width: 0px;"/>
      </g>
      <g>
        <g>
          <path d="m45.76,31.87v2.06h-14.67v-2.06h14.67Z" style="fill: #fff; stroke-width: 0px;"/>
          <path d="m52.15,36.18h-5.05v-1.9h5.05v1.9Zm-.35-6.44h-4.39v-1.83h4.39v1.83Zm5.29,2.55c.67,3.05,2.06,5.42,4.78,6.44-.43.38-1,1.18-1.26,1.69-2.04-.91-3.33-2.46-4.19-4.53-.67,1.71-2.03,3.43-4.66,4.69-.29-.46-.97-1.2-1.44-1.56,4.27-1.96,4.72-5.07,4.72-7.13v-1.47h2.04v1.87Zm-2.79-2.28c-.49,1.29-1.1,2.42-1.74,3.32-.41-.32-1.39-.86-1.9-1.1,1.32-1.48,2.26-4.03,2.73-6.6l2.1.35c-.16.73-.33,1.45-.54,2.15h4.8l.37-.11,1.39.81c-.41,1.69-1.08,3.4-1.66,4.62-.38-.22-1.16-.61-1.63-.78.3-.67.67-1.69.94-2.66h-4.86Z" style="fill: #fff; stroke-width: 0px;"/>
          <path d="m76.65,38.25c0,1.02-.22,1.53-.86,1.82-.65.32-1.63.35-3.06.33-.06-.51-.37-1.32-.61-1.82.89.05,1.95.03,2.23.03.3,0,.41-.1.41-.38v-2.39h-3.36v4.45h-1.91v-4.45h-3.25c-.29,1.74-.86,3.49-2.01,4.74-.3-.35-1.07-1-1.5-1.23,1.74-1.91,1.88-4.75,1.88-6.98v-5.69h12.04v11.58Zm-7.16-4.19v-1.96h-3v.29c0,.51-.02,1.08-.05,1.67h3.05Zm-3-5.58v1.85h3v-1.85h-3Zm8.28,0h-3.36v1.85h3.36v-1.85Zm0,5.58v-1.96h-3.36v1.96h3.36Z" style="fill: #fff; stroke-width: 0px;"/>
          <path d="m93.69,38.59v1.53h-11.72v-1.53h4.83v-.92h-3.38v-1.15c-.29.37-.61.7-.91.99-.11-.33-.48-1.15-.75-1.59-.19,1.66-.65,3.49-1.71,4.78-.29-.35-1.07-1.02-1.47-1.23,1.29-1.59,1.42-3.86,1.42-5.5v-2.84h2.15c-.26-.27-.57-.56-.8-.73,1.15-.18,2.41-.4,3.64-.69-1-.26-2.04-.48-2.98-.65l.89-.69h-2.74v-1.48h5.55c-.19-.3-.41-.59-.61-.83l1.28-.62c.37.41.8.97,1.07,1.45h5.52v1.48h-2.31l.77.48c-.57.27-1.24.54-1.96.8.94.26,1.8.51,2.52.75l-.89.73h2.34v1.52h-11.58v1.34c0,.51-.02,1.07-.08,1.67.77-.75,1.42-1.77,1.82-2.87l1.61.48c-.08.21-.16.41-.26.64h1.85v-.97h1.87v.97h3.94v1.48h-3.94v.83h3.48v1.45h-3.48v.92h5.02Zm-6.89-2.38v-.83h-2.6c-.18.29-.35.56-.54.83h3.14Zm3.25-5.09c-.78-.27-1.74-.54-2.74-.81-1.15.3-2.31.57-3.43.81h6.17Zm-5.74-2.76c1,.22,2.06.46,3.11.72.77-.21,1.5-.46,2.09-.72h-5.2Z" style="fill: #fff; stroke-width: 0px;"/>
          <path d="m95.35,33.32h6.06v7.1h-1.9v-.72h-2.38v.8h-1.79v-7.18Zm1.79,1.82v2.74h2.38v-2.74h-2.38Zm9.74-3.14h-9.34v-5.77h9.34v5.77Zm-1.93-3.95h-5.58v2.15h5.58v-2.15Zm4.08,5.28v7.11h-1.91v-.73h-2.54v.8h-1.82v-7.18h6.27Zm-1.91,4.56v-2.74h-2.54v2.74h2.54Z" style="fill: #fff; stroke-width: 0px;"/>
          <path d="m41.48,52.13c-.57-.45-1.77-1.15-2.58-1.64l1.07-1.36c.8.4,2.02,1.05,2.65,1.47l-1.13,1.53Zm1.39,2.18c-.61,1.71-1.34,3.54-2.06,5.12l-1.74-1.04c.67-1.24,1.56-3.25,2.25-5.12l1.55,1.04Zm-.64-6.41c-.56-.45-1.75-1.2-2.58-1.71l1.08-1.36c.81.45,2.04,1.13,2.66,1.55l-1.16,1.52Zm8.18,6.47v3.44c0,.81-.13,1.26-.69,1.51-.54.26-1.29.29-2.26.27-.08-.49-.29-1.16-.49-1.63.56.02,1.2.02,1.39.02s.26-.05.26-.22v-3.4h-2.52v-5.76h2.12c.16-.46.3-.94.4-1.35h-3.08v2.69c0,2.82-.29,7.03-2.18,9.68-.33-.3-1.13-.81-1.59-1.02,1.79-2.46,1.95-6.08,1.95-8.66v-4.4h9.95v1.71h-4.66l1.77.32c-.21.35-.41.7-.61,1.04h3.05v5.76h-2.79Zm-2.38,1.12c-.49,1.15-1.24,2.47-1.83,3.28-.35-.29-1.07-.7-1.48-.91.61-.77,1.24-1.87,1.64-2.85l1.67.48Zm-.27-4.64h3.68v-.88h-3.68v.88Zm0,2.17h3.68v-.89h-3.68v.89Zm4.74,1.82c.51.96,1.21,2.25,1.55,3.03l-1.75.77c-.29-.83-.92-2.17-1.44-3.17l1.64-.62Z" style="fill: #fff; stroke-width: 0px;"/>
          <path d="m61.76,57.39c-2.23.54-4.67,1.12-6.49,1.53l-.43-1.77c1.08-.19,2.54-.48,4.07-.8l-.38-.1c.22-.89.48-2.25.56-3.25l1.85.4c-.27.92-.54,1.91-.8,2.69l1.47-.3.16,1.59Zm-.24-10.19h-6.41v-1.74h6.41v1.74Zm-.35,5.58h-5.63v-4.46h5.63v4.46Zm-4.91,3.59c-.02-.75-.22-1.95-.53-2.84l1.51-.38c.33.89.57,2.04.62,2.79l-1.61.43Zm3.22-6.57h-2.34v1.5h2.34v-1.5Zm5.85,7.72c-.86.81-2.31,1.66-3.54,2.12-.27-.33-.83-.88-1.24-1.21,1.2-.41,2.57-1.23,3.24-1.9l1.55.99Zm-.96-9.49c.06-.35.11-.72.16-1.07h-2.63v-1.59h7.69v1.59h-2.98c-.11.37-.22.73-.33,1.07h2.97v8.42h-6.95v-8.42h2.09Zm3.05,1.4h-3.41v1h3.41v-1Zm0,2.3h-3.41v1h3.41v-1Zm0,2.33h-3.41v1.02h3.41v-1.02Zm0,2.6c.85.56,2.04,1.4,2.66,1.98l-1.51,1c-.54-.57-1.71-1.48-2.58-2.09l1.44-.89Z" style="fill: #fff; stroke-width: 0px;"/>
          <path d="m73.33,52.08c-.53-.51-1.66-1.18-2.55-1.58l1.04-1.4c.91.35,2.06.94,2.63,1.45l-1.12,1.53Zm1.13,1.96c-.54,1.75-1.23,3.65-1.88,5.25l-1.72-.94c.61-1.28,1.47-3.36,2.07-5.29l1.53.99Zm-.37-6.17c-.53-.53-1.66-1.24-2.58-1.66l1.07-1.4c.89.38,2.07,1.02,2.65,1.53l-1.13,1.53Zm11.34,2.2c-.48,2.07-1.16,3.91-2.07,5.47.26,1.13.53,1.79.81,1.8.22.02.38-.8.46-2.26.3.37,1.04.83,1.34.97-.4,2.9-1.18,3.52-1.83,3.52-.88-.02-1.55-.8-2.04-2.22-.69.83-1.47,1.55-2.33,2.15-.26-.32-.88-.93-1.24-1.21,1.23-.75,2.23-1.72,3.05-2.92-.35-1.77-.57-4.03-.7-6.65h-4.19v2.77c0,2.39-.22,5.87-1.56,8.1-.3-.3-1.02-.78-1.42-.96,1.21-2.06,1.32-4.99,1.32-7.14v-4.45h5.77c-.03-.7-.05-1.42-.06-2.15h1.74c0,.73.02,1.45.05,2.15h1.8c-.46-.45-1.15-.97-1.77-1.34l1.02-.96c.72.4,1.63,1.04,2.04,1.53l-.78.77h.65v1.67h-2.89c.08,1.48.19,2.85.33,4.05.37-.93.65-1.93.88-3.01l1.63.3Zm-7.06,6.3v.86h-1.24v-5.33h3.6v4.46h-2.36Zm2.23-5.36h-3.4v-1.39h3.4v1.39Zm-2.23,2.26v1.71h1.1v-1.71h-1.1Z" style="fill: #fff; stroke-width: 0px;"/>
          <path d="m101.47,57.86v1.37h-14.49v-1.37h6.3v-.57h-4.88v-1.23h4.88v-.51h-4.56v-4.08h11.02v4.08h-4.64v.51h4.94v1.23h-4.94v.57h6.38Zm-.03-6.87h-14.43v-1.35h14.43v1.35Zm-2.07-1.83h-10.36v-3.94h10.36v3.94Zm-8.87,3.87h2.77v-.56h-2.77v.56Zm2.77,1.5v-.56h-2.77v.56h2.77Zm4.18-8.32h-6.62v.51h6.62v-.51Zm0,1.45h-6.62v.53h6.62v-.53Zm.43,4.82h-2.79v.56h2.79v-.56Zm0,1.5h-2.79v.56h2.79v-.56Z" style="fill: #fff; stroke-width: 0px;"/>
        </g>
        <g>
          <path d="m45.76,31.87v2.06h-14.67v-2.06h14.67Z" style="fill: #fff; stroke-width: 0px;"/>
          <path d="m52.15,36.18h-5.05v-1.9h5.05v1.9Zm-.35-6.44h-4.39v-1.83h4.39v1.83Zm5.29,2.55c.67,3.05,2.06,5.42,4.78,6.44-.43.38-1,1.18-1.26,1.69-2.04-.91-3.33-2.46-4.19-4.53-.67,1.71-2.03,3.43-4.66,4.69-.29-.46-.97-1.2-1.44-1.56,4.27-1.96,4.72-5.07,4.72-7.13v-1.47h2.04v1.87Zm-2.79-2.28c-.49,1.29-1.1,2.42-1.74,3.32-.41-.32-1.39-.86-1.9-1.1,1.32-1.48,2.26-4.03,2.73-6.6l2.1.35c-.16.73-.33,1.45-.54,2.15h4.8l.37-.11,1.39.81c-.41,1.69-1.08,3.4-1.66,4.62-.38-.22-1.16-.61-1.63-.78.3-.67.67-1.69.94-2.66h-4.86Z" style="fill: #fff; stroke-width: 0px;"/>
          <path d="m76.65,38.25c0,1.02-.22,1.53-.86,1.82-.65.32-1.63.35-3.06.33-.06-.51-.37-1.32-.61-1.82.89.05,1.95.03,2.23.03.3,0,.41-.1.41-.38v-2.39h-3.36v4.45h-1.91v-4.45h-3.25c-.29,1.74-.86,3.49-2.01,4.74-.3-.35-1.07-1-1.5-1.23,1.74-1.91,1.88-4.75,1.88-6.98v-5.69h12.04v11.58Zm-7.16-4.19v-1.96h-3v.29c0,.51-.02,1.08-.05,1.67h3.05Zm-3-5.58v1.85h3v-1.85h-3Zm8.28,0h-3.36v1.85h3.36v-1.85Zm0,5.58v-1.96h-3.36v1.96h3.36Z" style="fill: #fff; stroke-width: 0px;"/>
          <path d="m93.69,38.59v1.53h-11.72v-1.53h4.83v-.92h-3.38v-1.15c-.29.37-.61.7-.91.99-.11-.33-.48-1.15-.75-1.59-.19,1.66-.65,3.49-1.71,4.78-.29-.35-1.07-1.02-1.47-1.23,1.29-1.59,1.42-3.86,1.42-5.5v-2.84h2.15c-.26-.27-.57-.56-.8-.73,1.15-.18,2.41-.4,3.64-.69-1-.26-2.04-.48-2.98-.65l.89-.69h-2.74v-1.48h5.55c-.19-.3-.41-.59-.61-.83l1.28-.62c.37.41.8.97,1.07,1.45h5.52v1.48h-2.31l.77.48c-.57.27-1.24.54-1.96.8.94.26,1.8.51,2.52.75l-.89.73h2.34v1.52h-11.58v1.34c0,.51-.02,1.07-.08,1.67.77-.75,1.42-1.77,1.82-2.87l1.61.48c-.08.21-.16.41-.26.64h1.85v-.97h1.87v.97h3.94v1.48h-3.94v.83h3.48v1.45h-3.48v.92h5.02Zm-6.89-2.38v-.83h-2.6c-.18.29-.35.56-.54.83h3.14Zm3.25-5.09c-.78-.27-1.74-.54-2.74-.81-1.15.3-2.31.57-3.43.81h6.17Zm-5.74-2.76c1,.22,2.06.46,3.11.72.77-.21,1.5-.46,2.09-.72h-5.2Z" style="fill: #fff; stroke-width: 0px;"/>
          <path d="m95.35,33.32h6.06v7.1h-1.9v-.72h-2.38v.8h-1.79v-7.18Zm1.79,1.82v2.74h2.38v-2.74h-2.38Zm9.74-3.14h-9.34v-5.77h9.34v5.77Zm-1.93-3.95h-5.58v2.15h5.58v-2.15Zm4.08,5.28v7.11h-1.91v-.73h-2.54v.8h-1.82v-7.18h6.27Zm-1.91,4.56v-2.74h-2.54v2.74h2.54Z" style="fill: #fff; stroke-width: 0px;"/>
          <path d="m41.48,52.13c-.57-.45-1.77-1.15-2.58-1.64l1.07-1.36c.8.4,2.02,1.05,2.65,1.47l-1.13,1.53Zm1.39,2.18c-.61,1.71-1.34,3.54-2.06,5.12l-1.74-1.04c.67-1.24,1.56-3.25,2.25-5.12l1.55,1.04Zm-.64-6.41c-.56-.45-1.75-1.2-2.58-1.71l1.08-1.36c.81.45,2.04,1.13,2.66,1.55l-1.16,1.52Zm8.18,6.47v3.44c0,.81-.13,1.26-.69,1.51-.54.26-1.29.29-2.26.27-.08-.49-.29-1.16-.49-1.63.56.02,1.2.02,1.39.02s.26-.05.26-.22v-3.4h-2.52v-5.76h2.12c.16-.46.3-.94.4-1.35h-3.08v2.69c0,2.82-.29,7.03-2.18,9.68-.33-.3-1.13-.81-1.59-1.02,1.79-2.46,1.95-6.08,1.95-8.66v-4.4h9.95v1.71h-4.66l1.77.32c-.21.35-.41.7-.61,1.04h3.05v5.76h-2.79Zm-2.38,1.12c-.49,1.15-1.24,2.47-1.83,3.28-.35-.29-1.07-.7-1.48-.91.61-.77,1.24-1.87,1.64-2.85l1.67.48Zm-.27-4.64h3.68v-.88h-3.68v.88Zm0,2.17h3.68v-.89h-3.68v.89Zm4.74,1.82c.51.96,1.21,2.25,1.55,3.03l-1.75.77c-.29-.83-.92-2.17-1.44-3.17l1.64-.62Z" style="fill: #fff; stroke-width: 0px;"/>
          <path d="m61.76,57.39c-2.23.54-4.67,1.12-6.49,1.53l-.43-1.77c1.08-.19,2.54-.48,4.07-.8l-.38-.1c.22-.89.48-2.25.56-3.25l1.85.4c-.27.92-.54,1.91-.8,2.69l1.47-.3.16,1.59Zm-.24-10.19h-6.41v-1.74h6.41v1.74Zm-.35,5.58h-5.63v-4.46h5.63v4.46Zm-4.91,3.59c-.02-.75-.22-1.95-.53-2.84l1.51-.38c.33.89.57,2.04.62,2.79l-1.61.43Zm3.22-6.57h-2.34v1.5h2.34v-1.5Zm5.85,7.72c-.86.81-2.31,1.66-3.54,2.12-.27-.33-.83-.88-1.24-1.21,1.2-.41,2.57-1.23,3.24-1.9l1.55.99Zm-.96-9.49c.06-.35.11-.72.16-1.07h-2.63v-1.59h7.69v1.59h-2.98c-.11.37-.22.73-.33,1.07h2.97v8.42h-6.95v-8.42h2.09Zm3.05,1.4h-3.41v1h3.41v-1Zm0,2.3h-3.41v1h3.41v-1Zm0,2.33h-3.41v1.02h3.41v-1.02Zm0,2.6c.85.56,2.04,1.4,2.66,1.98l-1.51,1c-.54-.57-1.71-1.48-2.58-2.09l1.44-.89Z" style="fill: #fff; stroke-width: 0px;"/>
          <path d="m73.33,52.08c-.53-.51-1.66-1.18-2.55-1.58l1.04-1.4c.91.35,2.06.94,2.63,1.45l-1.12,1.53Zm1.13,1.96c-.54,1.75-1.23,3.65-1.88,5.25l-1.72-.94c.61-1.28,1.47-3.36,2.07-5.29l1.53.99Zm-.37-6.17c-.53-.53-1.66-1.24-2.58-1.66l1.07-1.4c.89.38,2.07,1.02,2.65,1.53l-1.13,1.53Zm11.34,2.2c-.48,2.07-1.16,3.91-2.07,5.47.26,1.13.53,1.79.81,1.8.22.02.38-.8.46-2.26.3.37,1.04.83,1.34.97-.4,2.9-1.18,3.52-1.83,3.52-.88-.02-1.55-.8-2.04-2.22-.69.83-1.47,1.55-2.33,2.15-.26-.32-.88-.93-1.24-1.21,1.23-.75,2.23-1.72,3.05-2.92-.35-1.77-.57-4.03-.7-6.65h-4.19v2.77c0,2.39-.22,5.87-1.56,8.1-.3-.3-1.02-.78-1.42-.96,1.21-2.06,1.32-4.99,1.32-7.14v-4.45h5.77c-.03-.7-.05-1.42-.06-2.15h1.74c0,.73.02,1.45.05,2.15h1.8c-.46-.45-1.15-.97-1.77-1.34l1.02-.96c.72.4,1.63,1.04,2.04,1.53l-.78.77h.65v1.67h-2.89c.08,1.48.19,2.85.33,4.05.37-.93.65-1.93.88-3.01l1.63.3Zm-7.06,6.3v.86h-1.24v-5.33h3.6v4.46h-2.36Zm2.23-5.36h-3.4v-1.39h3.4v1.39Zm-2.23,2.26v1.71h1.1v-1.71h-1.1Z" style="fill: #fff; stroke-width: 0px;"/>
          <path d="m101.47,57.86v1.37h-14.49v-1.37h6.3v-.57h-4.88v-1.23h4.88v-.51h-4.56v-4.08h11.02v4.08h-4.64v.51h4.94v1.23h-4.94v.57h6.38Zm-.03-6.87h-14.43v-1.35h14.43v1.35Zm-2.07-1.83h-10.36v-3.94h10.36v3.94Zm-8.87,3.87h2.77v-.56h-2.77v.56Zm2.77,1.5v-.56h-2.77v.56h2.77Zm4.18-8.32h-6.62v.51h6.62v-.51Zm0,1.45h-6.62v.53h6.62v-.53Zm.43,4.82h-2.79v.56h2.79v-.56Zm0,1.5h-2.79v.56h2.79v-.56Z" style="fill: #fff; stroke-width: 0px;"/>
        </g>
      </g>
      <g id="expanded">
        <path d="m80.9,95.54v11.41c0,.65-.53,1.18-1.18,1.18h-1.08l5.02,5.02,5.02-5.02h-1.08c-.65,0-1.18-.53-1.18-1.18v-11.41h-5.51Z" style="fill: #fff; stroke-width: 0px;"/>
        <path d="m92.31,95.54h-3.54v10.23h2.75c.65,0,1.18.53,1.18,1.18,0,.31-.12.61-.34.83l-7.87,7.87c-.46.46-1.21.46-1.67,0h0s-7.87-7.87-7.87-7.87c-.46-.46-.46-1.21,0-1.67.22-.22.52-.34.83-.34h2.75v-10.23h-3.54c-1.52,0-2.75,1.23-2.75,2.75v17.31c0,1.52,1.23,2.75,2.75,2.75h17.31c1.52,0,2.75-1.23,2.75-2.75v-17.31c0-1.52-1.23-2.75-2.75-2.75Z" style="fill: #fff; stroke-width: 0px;"/>
        <path d="m72.6,89.02l-10.05-8.17c-.51-.41-1.25-.34-1.66.17-.41.51-.34,1.25.17,1.66,0,0,0,0,0,0l10.05,8.17c.51.41,1.25.33,1.66-.17.41-.51.33-1.25-.17-1.66h0Z" style="fill: #fff; stroke-width: 0px;"/>
        <path d="m90.35,75.62v-4.07c0-1.52-1.23-2.75-2.75-2.75h-7.87c-1.52,0-2.75,1.23-2.75,2.75v4.07c-2.85,1.13-4.72,3.88-4.72,6.94v1.11l-7.87-6.39c-.25-.2-.53-.36-.84-.46.04-.18.06-.36.06-.55v-4.72c0-1.52-1.23-2.75-2.75-2.75h-11.8c-1.52,0-2.75,1.23-2.75,2.75v4.72c0,.36.07.71.21,1.05-.63.52-.99,1.29-1,2.1v36.19c0,1.52,1.23,2.75,2.75,2.75h21.24c.65,0,1.18-.53,1.18-1.18s-.53-1.18-1.18-1.18h-21.24c-.22,0-.39-.18-.39-.39v-3.54h21.64c.65,0,1.18-.53,1.18-1.18s-.53-1.18-1.18-1.18h-21.64v-13.38h21.64c.65,0,1.18-.53,1.18-1.18s-.53-1.18-1.18-1.18h-21.64v-14.56c0-.22.18-.39.39-.39h14.39c.09,0,.18.03.25.09l10.99,8.93c.46.37.73.93.73,1.53v3.22c0,.65.53,1.18,1.18,1.18s1.18-.53,1.18-1.18v-3.22c0-1.3-.59-2.54-1.6-3.36l-.76-.62v-3.03c0-2.82,2.29-5.11,5.11-5.11h7.87c2.82,0,5.11,2.29,5.11,5.11v10.23c0,.65.53,1.18,1.18,1.18s1.18-.53,1.18-1.18v-10.23c0-3.06-1.87-5.81-4.72-6.94Zm-41.31,1.04c-.22,0-.39-.18-.39-.39v-4.72c0-.22.18-.39.39-.39h11.8c.22,0,.39.18.39.39v4.72c0,.22-.18.39-.39.39h-11.8Zm30.68-1.57c-.13,0-.26.01-.39.02v-3.56c0-.22.18-.39.39-.39h7.87c.22,0,.39.18.39.39v3.56c-.13,0-.26-.02-.39-.02h-7.87Z" style="fill: #fff; stroke-width: 0px;"/>
        <path d="m87.59,79.02c-.65,0-1.18.53-1.18,1.18s.53,1.18,1.18,1.18c.65,0,1.18.53,1.18,1.18v3.93c0,.65.53,1.18,1.18,1.18s1.18-.53,1.18-1.18v-3.93c0-1.95-1.59-3.54-3.54-3.54Z" style="fill: #fff; stroke-width: 0px;"/>
        <path d="m69.5,101.44c.65,0,1.18-.53,1.18-1.18s-.53-1.18-1.18-1.18h-17.31c-.65,0-1.18.53-1.18,1.18v5.51c0,.65.53,1.18,1.18,1.18h17.31c.65,0,1.18-.53,1.18-1.18s-.53-1.18-1.18-1.18h-16.13v-3.15h16.13Z" style="fill: #fff; stroke-width: 0px;"/>
      </g>
    </g>
  </g>
</svg>