<?xml version="1.0" encoding="UTF-8"?>
<svg id="_圖層_2" data-name="圖層 2" xmlns="http://www.w3.org/2000/svg" width="136.32" height="162.12" viewBox="0 0 136.32 162.12">
  <g id="_圖層_7" data-name="圖層 7">
    <g id="air_balloon6">
      <rect x="58.86" y="129.13" width="6.83" height="27.3" transform="translate(-36.32 22.19) rotate(-15.7)" style="fill: #5fa3e2; stroke-width: 0px;"/>
      <rect x="61.13" y="138.23" width="27.3" height="6.83" transform="translate(-83.85 163.8) rotate(-70.12)" style="fill: #5fa3e2; stroke-width: 0px;"/>
      <path d="m82.2,145.62h-27.06c-.95,0-1.68.62-1.68,1.32,0,.74.74,1.36,1.68,1.36h.26v8.35c0,3,2.53,5.47,5.69,5.47h15.16c3.16,0,5.69-2.47,5.69-5.47v-8.35h.26c.95,0,1.68-.62,1.68-1.36,0-.7-.74-1.32-1.68-1.32Z" style="fill: #5fa3e2; fill-rule: evenodd; stroke-width: 0px;"/>
      <g>
        <path d="m68.16,0c-1,0-2.01.02-3,.06l.22,5c.65-.03,1.31-.05,1.97-.05h0c.05,0,.1,0,.15,0h0s.02,0,.02,0h.08s0,0,0,0c0,0,.01,0,.02,0h0s.01,0,.02,0h.03s.05,0,.07,0h.03s.01,0,.02,0h.03s.03,0,.05,0h0s.01,0,.02,0h.03s.01,0,.02,0h.09s.01,0,.02,0h.11V0h0Zm-4.8.17c-.99.07-2,.16-2.99.27l.57,4.98c.92-.1,1.84-.19,2.77-.25l-.35-5h0Zm-4.78.5c-.99.14-1.98.3-2.96.48l.92,4.92c.53-.1,1.07-.19,1.61-.28h0c.06-.01.13-.02.19-.03h0s.02,0,.02,0h0c.06,0,.11-.02.17-.03h0c.25-.04.49-.07.74-.11l-.7-4.96h0Zm-4.73.84c-.98.21-1.96.44-2.92.69l1.26,4.85c.6-.16,1.2-.3,1.81-.44,0,0,0,0,0,0,0,0,.01,0,.02,0h0s.01,0,.01,0c0,0,0,0,0,0,0,0,.01,0,.01,0,0,0,0,0,0,0,0,0,.01,0,.02,0,0,0,0,0,0,0,.02,0,.05-.01.07-.02,0,0,0,0,0,0,0,0,0,0,.01,0,0,0,0,0,.01,0,0,0,0,0,.01,0,0,0,0,0,.01,0,0,0,0,0,.01,0,0,0,0,0,.01,0,0,0,0,0,.01,0,0,0,0,0,.01,0,0,0,0,0,.01,0,0,0,0,0,.01,0,0,0,0,0,0,0,0,0,.01,0,.02,0h0s.01,0,.02,0c0,0,0,0,0,0,0,0,0,0,.01,0,0,0,0,0,0,0,0,0,0,0,.01,0,0,0,0,0,0,0h.01s0,0,.01,0c0,0,0,0,.01,0,0,0,0,0,.01,0,0,0,0,0,.01,0,0,0,0,0,.01,0,0,0,0,0,.01,0,0,0,0,0,.01,0,0,0,.01,0,.02,0,0,0,0,0,.01,0,0,0,.01,0,.02,0,0,0,0,0,.01,0,0,0,0,0,.01,0,0,0,0,0,.01,0,0,0,0,0,.01,0s0,0,.01,0c0,0,0,0,.01,0,0,0,.01,0,.01,0,0,0,0,0,0,0,0,0,0,0,.02,0,0,0,0,0,0,0,.03,0,.07-.01.1-.02,0,0,0,0,0,0,0,0,.01,0,.02,0,0,0,0,0,0,0,0,0,.01,0,.02,0,0,0,0,0,0,0,0,0,.01,0,.02,0,0,0,0,0,0,0,.03,0,.05-.01.08-.02l-1.05-4.9h0Zm-4.66,1.17c-.96.28-1.92.58-2.87.9l1.6,4.74c.87-.29,1.74-.57,2.62-.82,0,0,0,0,.01,0,0,0,0,0,0,0,0,0,.01,0,.02,0l-1.39-4.81h0Zm-4.57,1.5c-.94.34-1.88.71-2.8,1.1l1.94,4.62s.06-.03.1-.04h0s.03-.01.04-.02c0,0,0,0,0,0,.01,0,.02,0,.03-.01,0,0,0,0,.01,0,0,0,.01,0,.02,0,0,0,.02,0,.02,0h.02s.01-.01.02-.02c0,0,.01,0,.02,0,0,0,.01,0,.02,0,0,0,.01,0,.02,0s.01,0,.02,0c0,0,.01,0,.02,0,0,0,.02,0,.03-.01,0,0,0,0,.01,0,0,0,.02,0,.03-.01,0,0,0,0,.01,0,0,0,.02,0,.03-.01,0,0,0,0,.01,0,.01,0,.02,0,.03-.01,0,0,0,0,0,0,0,0,.02,0,.03-.01h0s.02-.01.03-.02c0,0,0,0,.01,0,.01,0,.02,0,.03-.01,0,0,0,0,.01,0,.01,0,.02,0,.03-.01,0,0,0,0,0,0,.01,0,.02,0,.03-.01,0,0,0,0,0,0,.01,0,.02,0,.03-.01,0,0,0,0,0,0,.01,0,.02,0,.03-.01,0,0,0,0,0,0,.01,0,.02,0,.03-.01,0,0,0,0,0,0,.01,0,.02,0,.03-.01,0,0,0,0,0,0,.01,0,.02,0,.03-.01h0s.02-.01.03-.01c0,0,0,0,0,0,.01,0,.02,0,.03-.01,0,0,0,0,0,0,.01,0,.02,0,.03-.01,0,0,0,0,0,0,.01,0,.02,0,.03-.01,0,0,0,0,.01,0,.01,0,.02,0,.03-.01,0,0,0,0,.01,0,0,0,.02,0,.03-.01,0,0,0,0,.01,0,0,0,.02,0,.03-.01,0,0,0,0,.01,0,0,0,.02,0,.03-.01,0,0,0,0,.01,0,0,0,.02,0,.03-.01,0,0,0,0,.01,0,0,0,.02,0,.03-.01,0,0,0,0,.01,0,0,0,.02,0,.02,0,0,0,.01,0,.02,0,0,0,.02,0,.02,0,0,0,0,0,.01,0,0,0,.02,0,.03-.01,0,0,.01,0,.02,0,0,0,.02,0,.03-.01,0,0,.01,0,.01,0,0,0,.02,0,.02,0,0,0,.01,0,.02,0s.02,0,.02,0c0,0,.01,0,.02,0,0,0,.01,0,.02,0,0,0,.01,0,.02,0,0,0,.02,0,.02,0h.02s.02-.01.03-.02h.02s.02-.01.03-.02c0,0,.01,0,.02,0,0,0,.02,0,.02,0h.02s.01-.01.02-.02c0,0,.01,0,.02,0,0,0,.02,0,.03-.01,0,0,0,0,.01,0,0,0,.02,0,.03-.01,0,0,.01,0,.01,0,0,0,.02,0,.03-.01,0,0,0,0,.01,0,0,0,.01,0,.02,0,0,0,.01,0,.02,0,0,0,.02,0,.02,0,0,0,0,0,.01,0,0,0,.02,0,.03-.01,0,0,0,0,.01,0,.01,0,.02,0,.03-.01,0,0,0,0,.01,0,0,0,.02,0,.03-.01,0,0,0,0,0,0,.01,0,.02,0,.03-.01,0,0,0,0,0,0,.01,0,.02,0,.03-.01,0,0,0,0,0,0,.01,0,.02,0,.03-.01,0,0,0,0,0,0,.01,0,.02,0,.04-.01,0,0,0,0,0,0,.01,0,.02,0,.04-.01h0c.08-.03.16-.06.24-.09l-1.73-4.7h0Zm-4.45,1.82c-.91.41-1.82.84-2.71,1.29l2.26,4.47s.01,0,.02-.01h0s.02-.01.04-.02c0,0,0,0,0,0,0,0,.01,0,.02-.01,0,0,.02,0,.02-.01,0,0,.01,0,.02,0,0,0,.01,0,.02-.01h.02s.01-.02.02-.02h.01s.02-.02.03-.02c0,0,0,0,0,0,.01,0,.02-.01.03-.02,0,0,0,0,0,0,.01,0,.02-.01.03-.02,0,0,0,0,0,0,.01,0,.02-.01.03-.02h0c.71-.36,1.43-.7,2.16-1.02l-2.06-4.57h0Zm-4.31,2.13c-.88.47-1.76.97-2.61,1.48l2.57,4.3s0,0,0,0c.01,0,.02-.01.03-.02,0,0,0,0,0,0,.01,0,.02-.01.03-.02,0,0,0,0,0,0,.01,0,.02-.01.03-.02,0,0,0,0,0,0,.01,0,.02-.01.03-.02,0,0,0,0,0,0,.01,0,.02-.01.03-.02,0,0,0,0,0,0,.01,0,.02-.01.03-.02,0,0,0,0,0,0,.01,0,.02-.01.03-.02,0,0,0,0,0,0,.01,0,.02-.01.03-.02,0,0,0,0,0,0,.01,0,.02-.01.03-.02,0,0,0,0,0,0,.01,0,.02-.01.03-.02,0,0,0,0,0,0,.01,0,.02-.01.03-.02h0s.02-.02.03-.02c0,0,0,0,0,0,.01,0,.02-.01.03-.02,0,0,0,0,0,0,.01,0,.02-.01.03-.02,0,0,0,0,0,0,.01,0,.02-.01.03-.02,0,0,0,0,0,0,.01,0,.02-.01.03-.02,0,0,0,0,0,0,.01,0,.02-.01.03-.02,0,0,0,0,0,0,.01,0,.02-.01.03-.02,0,0,0,0,0,0,.01,0,.02-.01.03-.02,0,0,0,0,0,0,0,0,.02-.01.03-.02,0,0,0,0,0,0,.01,0,.02-.01.03-.02,0,0,0,0,0,0,.01,0,.02-.01.03-.02,0,0,0,0,0,0,.01,0,.02-.01.03-.02,0,0,0,0,0,0,.01,0,.02-.01.03-.02,0,0,0,0,0,0,0,0,.02-.01.03-.02,0,0,0,0,0,0,0,0,.02-.01.03-.02,0,0,0,0,0,0,0,0,.02-.01.03-.02,0,0,0,0,.01,0,.01,0,.02-.01.03-.02,0,0,0,0,.01,0l.03-.02s0,0,.01,0c0,0,.02,0,.02-.01,0,0,.01,0,.01,0,0,0,.01,0,.02-.01,0,0,.01,0,.02,0,0,0,.01,0,.02-.01,0,0,0,0,.01,0,0,0,.02,0,.03-.01,0,0,0,0,.01,0,0,0,.02-.01.03-.01h.01s.02-.02.02-.02c0,0,.01,0,.02,0s.01,0,.02-.01c0,0,.01,0,.02-.01,0,0,.01,0,.02,0,0,0,.01,0,.02-.01,0,0,.01,0,.02-.01,0,0,.01,0,.02,0,0,0,.02,0,.02-.01,0,0,.01,0,.02,0,0,0,.01,0,.02-.01,0,0,.01,0,.02-.01,0,0,.01,0,.02,0,0,0,.02,0,.02-.01,0,0,.01,0,.02,0,0,0,.02,0,.02-.01,0,0,0,0,.01,0,0,0,.02,0,.02-.01,0,0,0,0,.01,0,0,0,.01,0,.02-.01,0,0,.01,0,.02-.01,0,0,.01,0,.02,0,0,0,.01,0,.01,0,0,0,.02-.01.03-.01,0,0,0,0,.01,0,.01,0,.02-.01.03-.02,0,0,0,0,0,0,.01,0,.02-.01.03-.02,0,0,0,0,0,0,.01,0,.02-.01.03-.02,0,0,0,0,0,0,0,0,.01,0,.02-.01,0,0,0,0,0,0,.01,0,.02-.01.04-.02,0,0,0,0,0,0,.01,0,.02-.01.04-.02,0,0,0,0,0,0,.01,0,.02-.01.03-.02,0,0,0,0,0,0,.01,0,.02-.01.04-.02,0,0,0,0,0,0,.03-.02.07-.04.1-.06,0,0,0,0,0,0,.01,0,.02-.01.04-.02,0,0,0,0,0,0,.01,0,.02-.01.03-.02,0,0,0,0,0,0,.05-.03.1-.05.14-.08h0s.01,0,.02-.01l-2.38-4.41h0Zm-4.15,2.43c-.84.53-1.68,1.09-2.5,1.66l2.86,4.11s.01,0,.02-.01h0s.02-.02.04-.03h0s.02-.02.03-.03c0,0,0,0,0,0,.01,0,.02-.02.03-.02,0,0,0,0,0,0l.06-.04s0,0,0,0c0,0,.02-.01.03-.02,0,0,0,0,0,0,0,0,.02-.01.03-.02,0,0,0,0,.01,0l.03-.02s0,0,.01,0c0,0,.01,0,.02-.01,0,0,.01,0,.02-.01,0,0,.01,0,.02-.01,0,0,.01,0,.02-.01,0,0,.01,0,.02-.01,0,0,.01,0,.01-.01,0,0,.01-.01.02-.01,0,0,.01,0,.02-.01,0,0,.01,0,.02-.01,0,0,.01,0,.01-.01h.02s.01-.02.02-.03c0,0,.01,0,.02-.01,0,0,.02-.01.02-.01,0,0,.01,0,.02-.01,0,0,.01-.01.02-.02h.01s.01-.02.02-.02c0,0,.01,0,.02-.01,0,0,.01,0,.02-.01,0,0,.01,0,.02-.01,0,0,.01,0,.02-.01h.02s.01-.02.02-.03c0,0,0,0,.01,0,0,0,.02-.01.02-.02h.01s.02-.02.02-.02c0,0,0,0,.01,0,0,0,.01,0,.02-.01,0,0,.01,0,.02-.01,0,0,0,0,.01-.01,0,0,.01,0,.02-.01,0,0,.01,0,.02-.01,0,0,.01,0,.02-.01h.02s.01-.02.02-.02h.02s.01-.02.02-.03h.02s.01-.02.02-.03c0,0,0,0,.01,0,0,0,.02-.01.02-.02,0,0,0,0,.01,0,0,0,.02-.01.03-.02,0,0,0,0,.01,0,0,0,.02-.01.03-.02,0,0,0,0,0,0,0,0,.01,0,.02-.01,0,0,0,0,0,0,0,0,.02-.01.03-.02,0,0,0,0,.01,0,0,0,.02-.01.03-.02,0,0,0,0,0,0,.01,0,.02-.01.03-.02,0,0,0,0,0,0,.01,0,.02-.01.03-.02,0,0,0,0,0,0,.01,0,.02-.01.03-.02,0,0,0,0,0,0l.06-.04h0s.02-.02.04-.03h0s.02-.02.04-.03h0c.26-.17.52-.34.78-.51l-2.68-4.23h0Zm-3.96,2.71c-.8.59-1.6,1.21-2.38,1.83l3.14,3.9s.03-.02.04-.03c0,0,.01,0,.02-.01,0,0,.01,0,.02-.01,0,0,.01-.01.02-.01,0,0,0,0,.01-.01,0,0,.01-.01.02-.02,0,0,0,0,0,0,0,0,.02-.01.03-.02h0s.02-.02.03-.03c0,0,0,0,0,0,0,0,.02-.02.03-.02h0s.02-.02.03-.03c0,0,0,0,0,0,.63-.51,1.28-1,1.93-1.48l-2.97-4.03h0Zm-3.76,2.98c-.76.65-1.51,1.32-2.24,1.99l3.41,3.67c.09-.08.18-.16.27-.25,0,0,0,0,0,0,0,0,.02-.02.03-.03,0,0,0,0,0,0,0,0,.01-.01.02-.02,0,0,0,0,.01-.01,0,0,.01,0,.02-.01,0,0,.01-.01.02-.02,0,0,0,0,.01-.01,0,0,.02-.01.02-.02,0,0,0,0,0,0,0,0,.02-.02.02-.02,0,0,0,0,0,0,0,0,.02-.02.03-.02,0,0,0,0,0,0,.01,0,.02-.02.03-.02,0,0,0,0,0,0,.01,0,.02-.02.03-.03,0,0,0,0,0,0,.01,0,.02-.02.03-.03h0s.02-.02.03-.03c0,0,0,0,0,0,.01,0,.02-.02.03-.03,0,0,0,0,0,0,.17-.16.34-.31.52-.46,0,0,0,0,0,0,.01,0,.02-.02.03-.03,0,0,0,0,0,0,.01,0,.02-.02.03-.03,0,0,0,0,0,0,.01,0,.02-.02.03-.03,0,0,0,0,0,0,.01,0,.02-.02.03-.03,0,0,0,0,0,0,0,0,.02-.02.03-.02,0,0,0,0,0,0,0,0,.02-.02.03-.02h0s.02-.02.03-.03c0,0,0,0,0,0,0,0,.02-.01.02-.02,0,0,0,0,.01,0,0,0,.02-.01.02-.02,0,0,0,0,.01,0,0,0,.01,0,.02-.01,0,0,.01-.01.02-.02,0,0,0,0,.01-.01l.02-.02s0,0,0,0c.18-.16.36-.31.54-.46l-3.25-3.81h0Zm-3.54,3.24c-.71.7-1.42,1.42-2.1,2.15l3.66,3.42c.63-.68,1.28-1.34,1.94-1.99l-3.5-3.58h0Zm-3.31,3.48c-.66.75-1.31,1.52-1.94,2.29l3.89,3.16c.58-.72,1.19-1.43,1.8-2.12l-3.75-3.32h0Zm-3.06,3.7c-.61.79-1.21,1.6-1.78,2.42l4.1,2.87s0,0,0,0c0-.01.02-.02.02-.03,0,0,0,0,0,0,0-.01.02-.02.02-.03,0,0,0,0,0,0,.52-.73,1.05-1.46,1.6-2.17,0,0,0,0,0,0l-3.97-3.05h0Zm-2.79,3.91c-.55.83-1.09,1.69-1.6,2.54l4.29,2.58c.21-.35.43-.71.65-1.06h0s.02-.03.02-.04c0,0,0,0,0,0,.01-.02.02-.04.04-.06,0,0,0-.01,0-.02v-.02s.02-.01.03-.02c0,0,0-.01.01-.02,0,0,0-.01.01-.02h0s.01-.03.02-.04c0,0,0,0,0,0,0,0,.01-.02.02-.03,0,0,0,0,0,0,0-.01.01-.02.02-.03,0,0,0,0,0,0,0-.01.01-.02.02-.03,0,0,0,0,0,0,.2-.32.41-.63.61-.95l-4.18-2.77h0Zm-2.51,4.1c-.49.87-.97,1.76-1.42,2.65l4.46,2.27c.39-.76.79-1.52,1.21-2.26,0,0,0,0,0,0,0-.01.01-.02.02-.03,0,0,0,0,0,0,0-.01.01-.02.02-.03,0,0,0,0,0,0,0,0,.01-.02.02-.03,0,0,0,0,0-.01,0,0,0-.01.01-.02,0,0,0-.01.01-.02,0,0,0-.01.01-.02h0s-4.36-2.47-4.36-2.47h0Zm-2.22,4.26c-.43.9-.84,1.82-1.23,2.74l4.61,1.95s0,0,0,0c0-.01,0-.02.01-.03,0,0,0,0,0,0,0-.01,0-.02.01-.03,0,0,0,0,0,0,.01-.03.02-.05.03-.08,0,0,0,0,0,0,.24-.57.5-1.14.76-1.71,0,0,0,0,0,0,0-.01.01-.03.02-.04,0,0,0,0,0,0,0-.01.01-.02.02-.04,0,0,0,0,0,0,0-.01.01-.03.02-.04,0,0,0,0,0,0,0-.01.01-.02.02-.04,0,0,0,0,0,0,0-.01.01-.02.02-.03,0,0,0,0,0,0,0-.01.01-.02.02-.03,0,0,0,0,0,0,0-.01.01-.02.02-.03h0s0-.03.01-.04c0,0,0,0,0,0,0,0,0-.02.01-.03,0,0,0,0,0-.01,0,0,0-.02.01-.02,0,0,0,0,0-.01,0,0,0-.02.01-.03,0,0,0,0,0-.01,0,0,0-.02.01-.03,0,0,0-.01,0-.02,0,0,0-.01,0-.02,0,0,0-.01.01-.02,0,0,0-.01,0-.02,0,0,0-.02.01-.03,0,0,0,0,0-.01,0,0,0-.02.01-.03,0,0,0-.01,0-.02,0,0,0-.02.01-.03,0,0,0,0,0-.01,0,0,0,0,0,0l-4.52-2.15h0Zm-1.91,4.41c-.36.93-.71,1.88-1.03,2.82l4.74,1.62c.07-.22.15-.44.23-.66h0s0-.03.01-.04c0,0,0,0,0,0,0-.01,0-.03.01-.04,0,0,0,0,0,0,.01-.04.03-.08.04-.12h0s0-.03.01-.04c0,0,0,0,0,0,0-.01,0-.03.01-.04,0,0,0,0,0,0,.01-.04.03-.08.04-.12,0,0,0,0,0,0,0-.01,0-.03.01-.04h0c.14-.4.29-.79.44-1.18,0,0,0,0,0,0,0-.01,0-.03.01-.04,0,0,0,0,0,0,0-.01,0-.02.01-.04,0,0,0,0,0,0,0-.01.01-.03.01-.04,0,0,0,0,0,0,0-.01,0-.03.01-.04,0,0,0,0,0,0,0-.01,0-.02.01-.03,0,0,0,0,0,0,0-.01,0-.02.01-.03,0,0,0,0,0-.01,0,0,0-.02.01-.03,0,0,0,0,0-.01,0,0,0-.02,0-.02,0,0,0,0,0,0l-4.66-1.82h0Zm-1.59,4.53c-.3.95-.58,1.92-.83,2.89l4.84,1.28c.05-.19.1-.38.15-.57h0s0-.02,0-.02c0,0,0,0,0,0,0,0,0-.01,0-.02,0,0,0,0,0,0,0,0,0-.01,0-.02,0,0,0,0,0,0,0,0,0-.01,0-.02,0,0,0,0,0,0,0,0,0-.01,0-.02,0,0,0,0,0,0,0,0,0,0,0-.01,0,0,0-.02,0-.02,0,0,0,0,0,0,0,0,0-.01,0-.01,0,0,0,0,0,0,0,0,0-.01,0-.02,0,0,0,0,0,0,0,0,0-.01,0-.02,0,0,0,0,0,0,0,0,0-.01,0-.02,0,0,0,0,0,0,0,0,0-.01,0-.02,0,0,0,0,0,0,0,0,0-.01,0-.02,0,0,0,0,0,0,.01-.05.03-.09.04-.14,0,0,0,0,0,0,0,0,0-.01,0-.02h0c.16-.55.32-1.1.49-1.64l-4.78-1.49h0Zm-1.27,4.64c-.23.97-.44,1.96-.62,2.94l4.92.93c.03-.15.06-.3.09-.46h0s0-.02,0-.02h0s0-.02,0-.02c0,0,0,0,0,0,0,0,0-.01,0-.02,0,0,0,0,0,0,0,0,0,0,0-.01,0,0,0,0,0-.01,0,0,0,0,0,0,0,0,0-.02,0-.03h0s0-.02,0-.02c0,0,0,0,0,0,0,0,0-.01,0-.02,0,0,0,0,0,0,0,0,0,0,0-.02,0,0,0,0,0,0,0,0,0-.01,0-.02,0,0,0,0,0,0,.05-.23.09-.47.14-.7,0,0,0,0,0,0,0,0,0-.01,0-.02,0,0,0,0,0,0,0,0,0-.01,0-.02,0,0,0,0,0,0,0,0,0-.01,0-.02,0,0,0,0,0,0,0-.03.01-.05.02-.08,0,0,0,0,0,0,0,0,0-.01,0-.02,0,0,0,0,0,0,0,0,0,0,0-.02,0,0,0,0,0,0,0,0,0-.01,0-.02,0,0,0,0,0,0,0,0,0,0,0-.02,0,0,0,0,0,0,0,0,0,0,0-.02,0,0,0,0,0,0,0,0,0-.01,0-.02,0,0,0,0,0,0,0,0,0-.02,0-.03,0,0,0,0,0,0,0,0,0-.01,0-.01,0,0,0,0,0,0,0,0,0,0,0-.01,0,0,0,0,0,0,0,0,0,0,0-.01,0,0,0,0,0-.01,0,0,0,0,0-.01h0s0-.02,0-.02c0,0,0,0,0-.01,0,0,0,0,0,0,0,0,0-.01,0-.01,0,0,0,0,0,0,0,0,0-.02,0-.02h0s0-.02,0-.02c0,0,0,0,0,0,0,0,0-.01,0-.01,0,0,0,0,0,0,0,0,0-.01,0-.02,0,0,0,0,0,0,0,0,0-.01,0-.02,0,0,0,0,0,0,0,0,0-.01,0-.02,0,0,0,0,0,0,0,0,0-.01,0-.02,0,0,0,0,0,0,0-.02,0-.03.01-.05h0s0-.02,0-.02c0,0,0,0,0-.01,0,0,0,0,0-.01,0,0,0,0,0,0h0s0-.02,0-.02c0,0,0,0,0-.01,0,0,0,0,0-.01,0,0,0,0,0-.01,0,0,0,0,0-.01,0,0,0,0,0-.01,0,0,0,0,0-.01,0,0,0,0,0-.01,0-.02,0-.03.01-.05,0,0,0,0,0,0,0,0,0-.01,0-.02,0,0,0,0,0,0,0,0,0-.01,0-.02,0,0,0,0,0,0,0,0,0-.01,0-.02,0,0,0,0,0,0,0,0,0-.01,0-.02,0,0,0,0,0,0,.03-.12.05-.24.08-.36l-4.88-1.15h0Zm-.93,4.71c-.16.98-.3,1.98-.41,2.97l4.97.58c.11-.92.24-1.84.38-2.76l-4.94-.8h0Zm-.6,4.77c-.09.99-.16,2-.2,2.99l5,.23c.02-.5.05-1.01.09-1.51h0s0-.03,0-.05h0s0-.08,0-.13h0s0-.02,0-.02h0s0-.09,0-.13h0s0-.02,0-.02h0s0-.02,0-.02h0s0-.02,0-.03h0s0-.05,0-.08h0s0-.02,0-.02h0s0-.02,0-.02h0s0-.08,0-.13h0s0-.02,0-.02h0s0-.02,0-.02h0s0-.07,0-.1h0s0-.02,0-.02h0s0-.02,0-.03h0c0-.05,0-.1.01-.15h0s0-.08.01-.13h0s0-.02,0-.02h0s0-.03,0-.05h0s0-.05,0-.07l-4.99-.45H.28ZM.01,66.78c0,.46-.01.92-.01,1.38,0,.54,0,1.08.02,1.62l5.01-.12c0-.25-.01-.5-.01-.75h0s0-.02,0-.02h0s0-.02,0-.02h0s0-.02,0-.02h0s0-.02,0-.02c0,0,0,0,0,0v-.02h0s0-.05,0-.07h0s0-.02,0-.02h0v-.02s0,0,0,0h0v-.02s0,0,0-.01h0v-.02s0,0,0-.01h0s0-.02,0-.02h0v-.03h0s0-.02,0-.03h0v-.03s0,0,0,0v-.02h0s0-.04,0-.05h0v-.02h0s0-.02,0-.02h0v-.03h0v-.02h0v-.03s0,0,0,0v-.02h0v-.03h0v-.03h0v-.03h0v-.03h0v-.04h0v-.04h0v-.04h0s0-.03,0-.04h0v-.04h0s0-.03,0-.04h0v-.04s0,0,0,0v-.03h0s0-.03,0-.04h0s0-.03,0-.04h0s0-.03,0-.04h0s0-.03,0-.04h0s0-.03,0-.04h0s0-.06,0-.08c0,0,0,0,0,0,0-.23,0-.45,0-.68l-5.01-.1H.01Zm5.07,4.55l-5,.25c.05,1,.12,2,.21,2.99l4.99-.47c0-.07-.01-.14-.02-.21h0s0-.02,0-.02h0s0-.03,0-.05c0,0,0,0,0,0,0,0,0-.01,0-.02,0,0,0,0,0,0,0,0,0,0,0-.01,0,0,0,0,0-.01,0,0,0,0,0-.01,0,0,0,0,0-.01,0,0,0,0,0,0,0,0,0,0,0-.01,0,0,0,0,0,0-.07-.79-.12-1.58-.16-2.38h0Zm.37,4.44l-4.97.6c.12.99.26,1.99.42,2.97l4.94-.81c0-.05-.02-.1-.02-.15,0,0,0,0,0,0,0,0,0-.01,0-.02,0,0,0,0,0,0,0,0,0,0,0-.01,0,0,0-.01,0-.01,0,0,0,0,0,0,0,0,0-.01,0-.02,0,0,0,0,0,0-.07-.45-.14-.9-.2-1.35,0,0,0,0,0,0,0,0,0-.01,0-.02,0,0,0,0,0,0,0,0,0-.01,0-.02,0,0,0,0,0,0,0,0,0-.01,0-.02h0s0-.03,0-.05c0,0,0,0,0-.01,0,0,0,0,0,0,0,0,0,0,0-.01t0,0s0-.01,0-.02h0s0-.02,0-.03h0s0-.02,0-.03h0c-.04-.31-.08-.62-.12-.94h0Zm.69,4.4l-4.92.95c.19.98.4,1.97.63,2.94l4.87-1.16c-.02-.09-.04-.18-.06-.27h0s0-.02,0-.02h0s-.01-.05-.02-.07c0,0,0,0,0,0,0,0,0,0,0-.01,0,0,0,0,0-.01,0,0,0,0,0,0,0,0,0-.01,0-.01,0,0,0,0,0,0,0,0,0-.01,0-.02,0,0,0,0,0,0-.17-.75-.33-1.51-.48-2.27h0Zm1,4.34l-4.84,1.29c.26.96.54,1.93.84,2.88l4.78-1.51c-.28-.88-.54-1.77-.78-2.67h0Zm1.3,4.26l-4.73,1.63c.32.94.68,1.89,1.04,2.82l4.66-1.84c-.04-.11-.09-.22-.13-.32h0s-.03-.08-.05-.12c0,0,0,0,0,0,0-.01,0-.02-.01-.04,0,0,0,0,0,0,0-.01,0-.03-.01-.04,0,0,0,0,0,0,0-.01-.01-.03-.01-.04,0,0,0,0,0,0-.01-.03-.02-.05-.03-.08,0,0,0,0,0,0,0-.01,0-.02-.01-.04,0,0,0,0,0,0,0-.01,0-.03-.01-.04,0,0,0,0,0,0,0-.01,0-.03-.01-.04h0s-.02-.05-.03-.08c0,0,0,0,0,0,0-.01,0-.03-.01-.04,0,0,0,0,0,0,0-.01-.01-.03-.01-.04,0,0,0,0,0,0-.21-.55-.41-1.11-.6-1.68h0Zm1.6,4.15l-4.61,1.96c.39.92.81,1.84,1.24,2.74l4.52-2.17c-.3-.63-.59-1.26-.87-1.9h0c-.03-.07-.06-.13-.09-.2,0,0,0,0,0,0l-.02-.04h0s-.01-.03-.02-.04c0,0,0,0,0,0-.02-.04-.03-.08-.05-.12,0,0,0,0,0,0,0-.01-.01-.03-.02-.04h0s-.01-.03-.02-.04c0,0,0,0,0,0-.02-.04-.03-.08-.05-.12,0,0,0,0,0,0,0-.01-.01-.03-.02-.04,0,0,0,0,0,0h0Zm1.89,4.03l-4.46,2.29c.45.89.94,1.78,1.43,2.64l4.35-2.48c-.2-.34-.39-.69-.58-1.04h0s-.01-.03-.02-.04c0,0,0,0,0,0,0,0-.01-.02-.02-.03,0,0,0,0,0-.01,0,0,0-.02-.01-.02,0,0,0-.01,0-.02,0,0,0-.01,0-.02,0,0,0-.02-.01-.02,0,0,0-.01,0-.01,0,0,0-.02-.01-.03,0,0,0,0,0-.01,0,0-.01-.02-.02-.03,0,0,0,0,0,0,0,0-.01-.02-.02-.03,0,0,0,0,0,0,0-.01-.01-.02-.02-.03,0,0,0,0,0,0,0-.01-.01-.02-.02-.03,0,0,0,0,0,0,0-.01-.01-.02-.02-.04,0,0,0,0,0,0-.18-.33-.35-.67-.52-1h0Zm2.17,3.89l-4.28,2.59c.52.85,1.06,1.7,1.61,2.53l4.17-2.78c-.16-.24-.31-.47-.47-.71h0s-.01-.02-.02-.03c0,0,0,0,0,0,0,0,0-.01-.01-.02,0,0-.01-.02-.01-.02,0,0,0,0,0-.01,0,0-.01-.02-.02-.03,0,0,0,0,0-.01,0,0-.01-.02-.02-.03,0,0,0,0,0,0,0-.01-.01-.02-.02-.03,0,0,0,0,0,0,0-.01-.01-.02-.02-.03h0c-.3-.47-.59-.93-.87-1.4h0Zm2.44,3.72l-4.09,2.89c.57.81,1.18,1.63,1.78,2.41l3.96-3.07c-.18-.23-.36-.47-.54-.7h0s-.02-.02-.03-.04h0s-.02-.03-.03-.04h0s-.02-.03-.03-.04h0s-.03-.04-.04-.06h0s-.02-.02-.03-.04c0,0,0,0,0,0,0-.01-.02-.02-.02-.03,0,0,0,0,0,0,0,0-.01-.02-.02-.03,0,0,0,0,0,0,0,0-.01-.02-.02-.03,0,0,0,0,0,0l-.02-.02s0-.01-.01-.02c0,0,0-.01-.01-.02,0,0,0,0-.01-.01l-.02-.02s0,0-.01-.01c0,0-.01-.01-.02-.02,0,0,0,0-.01-.01,0,0-.01-.01-.02-.02,0,0,0-.01-.01-.02,0,0,0-.01-.01-.02,0,0-.01-.01-.01-.02,0,0,0,0-.01-.01,0,0-.01-.02-.02-.02,0,0,0,0,0-.01,0,0-.01-.02-.02-.03,0,0,0,0,0-.01,0,0-.01-.02-.02-.03,0,0,0,0,0,0,0,0-.01-.02-.02-.02,0,0,0,0,0,0,0,0-.01-.02-.02-.03,0,0,0,0,0,0,0,0-.01-.02-.02-.03,0,0,0,0,0,0,0,0-.02-.02-.02-.03,0,0,0,0,0,0,0-.01-.02-.02-.02-.03,0,0,0,0,0,0-.17-.23-.34-.47-.51-.71h0Zm2.69,3.54l-3.88,3.17c.63.77,1.29,1.54,1.95,2.28l3.74-3.34c-.62-.69-1.22-1.4-1.81-2.12h0Zm2.93,3.35l-3.65,3.43c.68.73,1.39,1.45,2.1,2.14l3.49-3.59c-.11-.11-.22-.21-.32-.32h0s-.02-.02-.03-.03c0,0,0,0,0,0,0,0-.02-.02-.02-.02,0,0,0,0,0,0,0,0,0,0-.01-.01,0,0-.01-.01-.02-.02h-.01s-.01-.03-.02-.03c0,0,0,0-.01-.01,0,0-.01-.01-.02-.02,0,0,0,0-.01-.01,0,0-.01-.01-.02-.02,0,0,0,0-.01-.01,0,0-.01-.01-.02-.02,0,0,0,0,0,0,0,0-.02-.02-.02-.02h0s-.02-.02-.02-.03c0,0,0,0,0,0,0,0-.02-.02-.02-.02h0s-.02-.02-.03-.03h0s-.02-.02-.03-.03c0,0,0,0,0,0,0,0-.02-.02-.02-.03,0,0,0,0,0,0,0,0-.02-.02-.03-.03,0,0,0,0,0,0,0,0-.02-.02-.03-.03,0,0,0,0,0,0,0,0-.02-.02-.03-.03h0s-.02-.02-.03-.03h0s-.02-.02-.03-.03c0,0,0,0,0,0l-.02-.03h0s-.02-.02-.03-.03c0,0,0,0,0,0,0,0-.02-.02-.02-.02,0,0,0,0,0,0,0,0-.02-.02-.02-.02,0,0,0,0,0,0,0,0-.02-.02-.02-.02,0,0,0,0,0,0,0,0-.01-.02-.02-.02,0,0,0,0,0,0,0,0-.01-.01-.02-.02,0,0,0,0,0,0,0,0-.01-.01-.02-.02,0,0,0,0,0,0,0,0-.02-.02-.02-.02,0,0,0,0,0,0,0,0-.01-.01-.02-.02,0,0,0,0-.01-.01,0,0-.01-.01-.02-.02,0,0,0,0-.01-.01,0,0-.01-.01-.02-.02,0,0-.01-.01-.02-.02,0,0,0,0-.01-.02,0,0-.01-.01-.02-.02,0,0,0-.01-.01-.01,0,0-.01-.01-.02-.02,0,0,0,0-.01-.02,0,0,0,0-.01-.01,0,0-.01-.01-.02-.02,0,0,0,0-.01-.01,0,0,0,0-.01-.01,0,0-.01-.01-.02-.02,0,0,0,0,0-.01,0,0-.02-.02-.02-.02,0,0,0,0,0,0,0,0-.02-.02-.02-.03,0,0,0,0,0,0,0,0-.02-.02-.03-.03,0,0,0,0,0,0-.03-.03-.05-.06-.08-.08h0s-.02-.02-.03-.03h0s-.02-.02-.03-.03h0c-.09-.1-.19-.2-.28-.3h0Zm3.16,3.13l-3.4,3.68c.73.68,1.49,1.34,2.25,1.99l3.23-3.82c-.3-.26-.6-.51-.9-.78h0s-.02-.02-.03-.03c0,0,0,0,0,0,0,0-.02-.02-.03-.02,0,0,0,0,0,0,0,0-.02-.01-.02-.02,0,0,0,0-.01,0,0,0-.01-.01-.02-.02,0,0,0,0-.01-.01h-.01s-.01-.03-.02-.03c0,0,0,0-.01-.01,0,0-.01-.01-.02-.02,0,0,0,0-.01-.01,0,0-.01-.01-.02-.02,0,0,0,0-.01-.01,0,0-.01-.01-.02-.02,0,0,0,0-.01-.01,0,0-.01-.01-.02-.02,0,0,0,0,0,0,0,0-.02-.02-.02-.02,0,0,0,0,0,0,0,0-.02-.01-.02-.02,0,0,0,0,0,0,0,0-.02-.02-.03-.02,0,0,0,0,0,0,0,0-.02-.02-.03-.02,0,0,0,0,0,0,0,0-.02-.02-.03-.02,0,0,0,0,0,0,0,0-.02-.02-.03-.03,0,0,0,0,0,0-.01,0-.02-.02-.03-.03,0,0,0,0,0,0,0,0-.02-.02-.03-.03,0,0,0,0,0,0-.01,0-.02-.02-.03-.03,0,0,0,0,0,0-.19-.17-.39-.35-.58-.53h0Zm3.37,2.9l-3.13,3.91c.78.62,1.58,1.24,2.38,1.83l2.96-4.04c-.75-.55-1.48-1.11-2.21-1.69h0Zm3.57,2.66l-2.85,4.12c.82.57,1.66,1.12,2.51,1.65l2.67-4.24c-.1-.06-.2-.13-.31-.19,0,0,0,0,0,0,0,0-.02-.01-.03-.02,0,0,0,0-.01,0,0,0-.02-.01-.02-.02,0,0-.01,0-.02-.01,0,0-.01,0-.02-.01,0,0-.01,0-.02-.01,0,0,0,0-.01,0,0,0-.02-.01-.03-.02,0,0,0,0-.01,0,0,0-.02-.01-.03-.02,0,0,0,0-.01,0,0,0-.02-.01-.03-.02,0,0,0,0,0,0,0,0-.02-.01-.03-.02,0,0,0,0,0,0,0,0-.02-.01-.03-.02,0,0,0,0,0,0l-.03-.02s0,0,0,0c-.01,0-.02-.01-.03-.02,0,0,0,0,0,0-.01,0-.02-.01-.03-.02,0,0,0,0,0,0-.01,0-.02-.01-.03-.02,0,0,0,0,0,0-.01,0-.02-.01-.03-.02,0,0,0,0,0,0-.01,0-.02-.01-.03-.02,0,0,0,0,0,0-.01,0-.02-.01-.03-.02,0,0,0,0,0,0-.01,0-.02-.01-.03-.02,0,0,0,0,0,0-.01,0-.02-.01-.03-.02,0,0,0,0,0,0-.04-.02-.07-.05-.11-.07,0,0,0,0,0,0-.01,0-.02-.02-.03-.02,0,0,0,0,0,0-.01,0-.02-.01-.03-.02,0,0,0,0,0,0-.01,0-.02-.01-.03-.02,0,0,0,0,0,0-.01,0-.02-.01-.03-.02,0,0,0,0,0,0-.01,0-.02-.02-.03-.02,0,0,0,0,0,0,0,0-.02-.02-.03-.02,0,0,0,0,0,0-.01,0-.02-.01-.03-.02,0,0,0,0,0,0-.01,0-.02-.01-.03-.02,0,0,0,0,0,0-.01,0-.02-.01-.03-.02,0,0,0,0,0,0-.01,0-.02-.01-.03-.02,0,0,0,0,0,0-.01,0-.02-.01-.03-.02,0,0,0,0,0,0-.01,0-.02-.01-.03-.02,0,0,0,0,0,0,0,0-.02-.01-.03-.02,0,0,0,0,0,0-.01,0-.02-.01-.03-.02h0s-.02-.02-.03-.02c0,0,0,0,0,0,0,0-.02-.01-.02-.02,0,0,0,0-.01,0,0,0-.02-.01-.02-.02,0,0,0,0-.01,0,0,0-.02-.01-.03-.02,0,0,0,0-.01,0,0,0-.02-.01-.02-.02,0,0,0,0-.01,0,0,0-.01-.01-.02-.02,0,0-.01,0-.01-.01,0,0-.01,0-.02-.01l-.02-.02s0,0-.01,0c0,0-.02-.01-.03-.02,0,0,0,0-.01,0-.01,0-.02-.01-.03-.02,0,0,0,0,0,0-.14-.09-.27-.18-.41-.28h0Zm3.75,2.4l-2.55,4.31c.86.51,1.74,1,2.62,1.47l2.36-4.42c-.23-.12-.46-.25-.69-.37,0,0,0,0,0,0-.01,0-.02-.01-.04-.02,0,0,0,0,0,0-.01,0-.02-.01-.03-.02,0,0,0,0,0,0-.01,0-.02-.01-.03-.02,0,0,0,0,0,0-.01,0-.02-.01-.03-.02,0,0,0,0,0,0,0,0-.02-.01-.03-.02,0,0,0,0,0,0,0,0-.02-.01-.03-.02,0,0,0,0-.01,0,0,0-.02,0-.03-.01,0,0,0,0-.01,0,0,0-.02,0-.03-.01,0,0,0,0-.01,0,0,0-.01,0-.02-.01,0,0-.01,0-.02-.01,0,0,0,0-.02,0,0,0-.02,0-.02-.01,0,0,0,0-.01,0,0,0-.02-.01-.03-.02,0,0,0,0-.01,0-.02-.01-.04-.02-.06-.03h0s-.03-.02-.04-.02h0c-.4-.22-.79-.45-1.19-.69h0Zm3.91,2.13l-2.24,4.48c.89.45,1.8.88,2.71,1.29l2.04-4.57s-.01,0-.02,0c0,0,0,0,0,0-.01,0-.03-.01-.04-.02,0,0,0,0,0,0-.02,0-.04-.02-.06-.03h0s-.03-.01-.04-.02h0s-.03-.01-.04-.02h0c-.13-.06-.26-.12-.39-.18h0s-.03-.01-.04-.02h0s-.03-.01-.04-.02h0s-.04-.02-.06-.03c0,0,0,0,0,0-.01,0-.02-.01-.03-.02,0,0,0,0-.01,0-.01,0-.02,0-.03-.01,0,0,0,0-.01,0,0,0-.02,0-.03-.01,0,0-.01,0-.02,0,0,0-.01,0-.02,0,0,0-.02,0-.02-.01,0,0-.01,0-.02,0,0,0-.02,0-.03-.01,0,0,0,0-.01,0,0,0-.01,0-.02-.01,0,0-.01,0-.02,0,0,0-.02,0-.02-.01,0,0,0,0-.01,0,0,0-.02,0-.03-.01,0,0,0,0-.01,0,0,0-.02,0-.03-.01,0,0,0,0-.01,0-.01,0-.02,0-.03-.01,0,0,0,0,0,0-.01,0-.02,0-.03-.01,0,0,0,0,0,0,0,0-.02-.01-.03-.01h0s-.02-.01-.03-.02c0,0,0,0,0,0-.01,0-.02-.01-.03-.02,0,0,0,0,0,0-.01,0-.02-.01-.03-.02,0,0,0,0,0,0-.01,0-.02-.01-.03-.02,0,0,0,0,0,0-.02-.01-.05-.02-.07-.04h0s-.03-.01-.04-.02h0s-.02-.01-.04-.02h0s-.02-.01-.04-.02h0s-.08-.04-.12-.06c0,0,0,0,0,0-.01,0-.02-.01-.04-.02,0,0,0,0,0,0-.01,0-.03-.01-.04-.02,0,0,0,0,0,0-.01,0-.02-.01-.04-.02h0s-.02-.01-.04-.02h0s-.02-.01-.03-.02h0s-.02-.01-.03-.02c0,0,0,0,0,0-.01,0-.02-.01-.03-.02,0,0,0,0,0,0,0,0-.02-.01-.03-.01,0,0,0,0-.01,0,0,0-.02,0-.03-.01,0,0,0,0-.01,0,0,0-.01,0-.02-.01,0,0-.01,0-.02,0,0,0-.01,0-.02,0s-.01,0-.02,0c0,0-.02,0-.02-.01,0,0-.01,0-.02,0,0,0,0,0,0,0-.01,0-.02-.01-.04-.02h0s-.03-.02-.04-.02h0c-.07-.04-.14-.07-.22-.11h0Zm4.05,1.85l-1.92,4.63c.92.38,1.86.75,2.8,1.09l1.71-4.71s0,0,0,0c0,0-.02,0-.03-.01,0,0,0,0,0,0-.01,0-.02,0-.03-.01,0,0,0,0,0,0-.01,0-.03,0-.04-.01,0,0,0,0,0,0-.01,0-.03,0-.04-.01h0c-.59-.21-1.17-.44-1.75-.67,0,0,0,0,0,0-.01,0-.02,0-.04-.02,0,0,0,0,0,0-.01,0-.02,0-.04-.01,0,0,0,0,0,0-.01,0-.02,0-.04-.01,0,0,0,0,0,0-.01,0-.02,0-.03-.01,0,0,0,0,0,0-.01,0-.02,0-.03-.01,0,0,0,0-.01,0,0,0-.02,0-.03-.01,0,0,0,0-.01,0-.01,0-.02,0-.03-.01,0,0,0,0-.01,0,0,0-.02,0-.03-.01,0,0-.01,0-.02,0,0,0-.01,0-.02,0,0,0-.02,0-.02-.01,0,0,0,0-.02,0,0,0-.02,0-.03-.01,0,0,0,0-.01,0-.02,0-.04-.02-.06-.03h0s-.03-.01-.04-.02h0s-.09-.04-.14-.06h0Zm4.17,1.56l-1.59,4.75c.95.32,1.91.61,2.87.89l1.37-4.82c-.89-.26-1.78-.53-2.66-.82h0Zm4.27,1.26l-1.25,4.85c.97.25,1.95.48,2.93.68l1.03-4.9s-.06-.01-.09-.02c0,0,0,0,0,0,0,0-.01,0-.02,0,0,0,0,0-.01,0,0,0,0,0-.01,0s0,0-.01,0c0,0,0,0-.01,0,0,0,0,0-.01,0,0,0,0,0,0,0,0,0,0,0-.01,0,0,0,0,0,0,0-.41-.09-.82-.18-1.23-.27,0,0,0,0,0,0,0,0-.01,0-.02,0,0,0,0,0,0,0,0,0-.01,0-.02,0,0,0,0,0,0,0,0,0-.01,0-.01,0,0,0,0,0,0,0,0,0,0,0-.01,0,0,0,0,0-.01,0,0,0,0,0-.01,0,0,0,0,0-.01,0,0,0-.01,0-.02,0,0,0,0,0-.01,0,0,0,0,0-.01,0,0,0,0,0-.01,0,0,0,0,0-.01,0,0,0,0,0-.01,0,0,0,0,0,0,0,0,0,0,0-.01,0,0,0,0,0,0,0,0,0,0,0-.01,0,0,0,0,0,0,0h-.02s0,0,0,0c0,0-.01,0-.02,0h0s-.05-.01-.07-.02h0s-.01,0-.02,0h0s-.01,0-.02,0h0s-.01,0-.02,0h0s-.01,0-.02,0h0s-.06-.02-.09-.02h0s-.01,0-.02,0h0s-.01,0-.02,0h0s-.09-.02-.14-.04h0s-.02,0-.02,0h0s-.01,0-.02,0h0s-.01,0-.02,0h0s-.01,0-.02,0h0s-.05-.01-.07-.02h0s-.01,0-.02,0h0s-.01,0-.02,0c0,0,0,0,0,0,0,0,0,0-.01,0,0,0,0,0,0,0,0,0,0,0-.01,0,0,0,0,0,0,0,0,0,0,0-.01,0,0,0,0,0,0,0,0,0,0,0-.01,0h0s0,0,0,0c-.02,0-.04,0-.05-.01h0s-.01,0-.02,0c0,0,0,0,0,0,0,0-.01,0-.02,0,0,0,0,0,0,0-.04-.01-.08-.02-.12-.03h0Zm4.35.95l-.9,4.93c.98.18,1.98.34,2.97.47l.68-4.96c-.27-.04-.53-.07-.8-.11,0,0,0,0,0,0,0,0-.01,0-.02,0,0,0,0,0,0,0,0,0-.01,0-.02,0,0,0,0,0,0,0,0,0,0,0-.02,0,0,0,0,0,0,0,0,0-.01,0-.02,0,0,0,0,0-.01,0,0,0,0,0,0,0,0,0,0,0-.01,0,0,0,0,0,0,0,0,0-.01,0-.02,0,0,0,0,0,0,0,0,0-.01,0-.02,0,0,0,0,0,0,0,0,0-.01,0-.02,0h0c-.56-.09-1.12-.18-1.68-.28h0s-.01,0-.02,0c0,0,0,0,0,0h-.02s0,0,0,0h0Zm4.4.64l-.55,4.98c.99.11,2,.2,2.99.26l.33-5c-.93-.06-1.85-.14-2.77-.24h0Zm4.44.33l-.2,5c.92.04,1.85.06,2.77.06h.23s-.02-5.01-.02-5.01c-.07,0-.14,0-.22,0h-.08s-.02,0-.03,0h0s-.02,0-.03,0h0s-.02,0-.03,0h0s-.03,0-.04,0h0s-.02,0-.04,0h0s-.02,0-.04,0c0,0,0,0,0,0-.01,0-.02,0-.04,0h0s-.03,0-.04,0h0s-.03,0-.04,0c0,0,0,0,0,0-.03,0-.05,0-.08,0h0c-.63,0-1.26-.02-1.88-.04h0s-.03,0-.04,0h0s-.02,0-.04,0c0,0,0,0,0,0-.01,0-.02,0-.03,0,0,0,0,0-.01,0,0,0-.02,0-.03,0,0,0,0,0,0,0h0Zm7.23-.12s0,0,0,0c0,0,0,0,0,0,0,0-.01,0-.02,0,0,0,0,0,0,0h-.02s0,0,0,0c-.9.07-1.81.11-2.72.14l.15,5.01c1-.03,2-.08,3-.15l-.36-4.99h0Zm4.43-.48c-.16.02-.32.05-.49.07h0s0,0-.01,0c0,0,0,0-.01,0,0,0,0,0,0,0,0,0-.01,0-.02,0,0,0,0,0,0,0-.55.07-1.1.14-1.65.2h0s-.01,0-.02,0c0,0,0,0,0,0,0,0-.01,0-.02,0,0,0,0,0,0,0,0,0,0,0-.01,0-.16.02-.33.03-.49.05l.5,4.98c.99-.1,2-.22,2.98-.36l-.71-4.96h0Zm4.38-.79c-.9.2-1.81.37-2.73.53l.85,4.94c.98-.17,1.98-.36,2.95-.57l-1.06-4.89h0Zm4.31-1.1c-.16.05-.33.09-.49.14h0s-.01,0-.02,0h0s-.01,0-.02,0h0s-.01,0-.02,0h0s-.01,0-.02,0c0,0,0,0-.01,0,0,0,0,0,0,0,0,0,0,0-.02,0,0,0,0,0,0,0,0,0-.01,0-.02,0,0,0,0,0,0,0,0,0-.01,0-.02,0,0,0,0,0,0,0-.67.19-1.34.36-2.02.53l1.19,4.86c.97-.24,1.94-.5,2.9-.78l-1.41-4.81h0Zm4.22-1.4s-.09.03-.13.05h0s-.01,0-.02,0c0,0,0,0,0,0,0,0-.01,0-.02,0,0,0,0,0,0,0,0,0,0,0,0,0,0,0,0,0-.01,0,0,0,0,0,0,0-.8.29-1.61.57-2.42.83l1.54,4.77c.95-.31,1.9-.64,2.84-.98l-1.74-4.69h0Zm4.11-1.7c-.24.11-.47.21-.71.32,0,0,0,0,0,0-.01,0-.02.01-.04.02,0,0,0,0,0,0-.01,0-.02.01-.03.01,0,0,0,0,0,0-.01,0-.02.01-.03.01,0,0,0,0,0,0-.01,0-.02,0-.03.01,0,0,0,0,0,0-.01,0-.02,0-.03.01h-.01s-.02.01-.03.02c0,0-.01,0-.02,0h-.03s-.01.02-.02.02c0,0-.01,0-.02,0,0,0-.02,0-.03.01,0,0,0,0-.01,0-.01,0-.02,0-.03.01,0,0,0,0,0,0-.01,0-.03.01-.04.02h0c-.47.2-.94.4-1.42.59l1.87,4.65c.92-.37,1.85-.77,2.76-1.18l-2.07-4.56h0Zm3.98-1.98c-.16.09-.33.18-.5.27,0,0,0,0,0,0-.01,0-.02.01-.03.02,0,0,0,0,0,0,0,0-.02.01-.03.02,0,0,0,0-.01,0,0,0-.02,0-.02.01,0,0-.01,0-.02.01,0,0-.01,0-.02,0h-.02s0,.02-.01.02c-.01,0-.02.01-.03.02,0,0,0,0,0,0-.58.31-1.17.6-1.76.89l2.19,4.5c.9-.44,1.79-.9,2.67-1.37l-2.39-4.4h0Zm3.83-2.26c-.15.1-.3.19-.46.29,0,0,0,0,0,0-.01,0-.02.01-.03.02,0,0,0,0-.01,0h-.02s-.02.02-.02.03c0,0,0,0-.01,0-.01,0-.02.01-.03.02,0,0,0,0,0,0-.01,0-.02.01-.03.02,0,0,0,0,0,0-.43.27-.86.53-1.3.79h0s-.02.01-.03.02c0,0,0,0,0,0-.01,0-.02.01-.03.02h0s-.02.02-.03.02c0,0,0,0-.01,0,0,0-.02,0-.02.01,0,0-.01,0-.02.01,0,0,0,0,0,0-.01,0-.02.01-.03.02h0c-.08.05-.16.1-.25.14l2.51,4.34c.86-.5,1.73-1.02,2.57-1.56l-2.69-4.22h0Zm3.66-2.53c-.39.29-.78.57-1.18.85h0s-.02.02-.04.03h0s-.02.02-.03.03c0,0,0,0,0,0-.01,0-.02.02-.04.03h0s-.01,0-.02.01t0,0s-.02.02-.03.02c0,0,0,0,0,0,0,0-.02.01-.03.02,0,0,0,0,0,0,0,0-.02.01-.03.02,0,0,0,0,0,0l-.03.02s0,0,0,0c0,0-.02.01-.02.02,0,0,0,0-.01,0,0,0-.01,0-.02.01,0,0,0,0-.01,0,0,0-.02.01-.03.02,0,0,0,0,0,0,0,0-.02.01-.03.02,0,0,0,0,0,0,0,0-.02.01-.03.02,0,0,0,0,0,0,0,0-.02.01-.03.02,0,0,0,0,0,0-.03.02-.06.04-.1.07h0s-.02.02-.04.03h0s-.02.02-.04.03h0c-.14.09-.27.19-.41.28l2.8,4.15c.82-.56,1.65-1.14,2.45-1.74l-2.98-4.02h0Zm3.48-2.78c-.48.42-.97.82-1.47,1.22,0,0,0,0,0,0-.01,0-.02.02-.03.03,0,0,0,0,0,0-.01,0-.02.02-.03.03,0,0,0,0,0,0-.01,0-.02.02-.03.03h0s-.02.02-.03.03t0,0s-.02.02-.03.03c0,0,0,0,0,0,0,0-.02.02-.03.02,0,0,0,0,0,0-.01,0-.02.01-.03.02,0,0,0,0,0,0,0,0-.02.02-.03.02,0,0,0,0,0,0,0,0-.02.02-.03.02,0,0,0,0,0,0,0,0-.02.02-.03.02,0,0,0,0,0,0,0,0-.02.01-.03.02,0,0,0,0,0,0,0,0-.02.01-.03.02,0,0,0,0,0,0,0,0-.02.02-.03.02,0,0,0,0,0,0,0,0-.02.01-.03.02,0,0,0,0,0,0,0,0-.02.02-.03.02,0,0,0,0,0,0,0,0-.02.01-.02.02,0,0,0,0-.01,0,0,0-.01.01-.02.02h0s-.02.02-.03.03c0,0,0,0,0,0,0,0-.02.01-.03.02,0,0,0,0-.01,0,0,0-.02.01-.02.02,0,0,0,0,0,0l3.09,3.94c.78-.61,1.56-1.25,2.32-1.9l-3.26-3.8h0Zm3.28-3.01c-.13.13-.26.25-.39.38h0s-.02.02-.03.03h0s-.02.02-.03.03h0l-.05.05s0,0,0,0l-.02.02s0,0-.01.01c0,0-.01.01-.02.02,0,0,0,0-.01.01,0,0-.01.01-.02.02,0,0-.01.01-.02.01,0,0,0,0-.01.01,0,0-.01.01-.02.02h-.01s-.01.02-.02.03c0,0,0,0-.01.01,0,0-.02.01-.02.02,0,0,0,0,0,0,0,0-.01.01-.02.02,0,0,0,0-.01,0,0,0-.02.01-.02.02,0,0,0,0,0,0,0,0-.02.02-.03.02,0,0,0,0,0,0,0,0-.02.02-.02.02,0,0,0,0,0,0,0,0-.02.02-.03.02,0,0,0,0,0,0-.01,0-.02.02-.03.02,0,0,0,0,0,0,0,0-.02.02-.03.03,0,0,0,0,0,0,0,0-.02.02-.03.03,0,0,0,0,0,0,0,0-.02.02-.03.03,0,0,0,0,0,0-.01,0-.02.02-.03.03,0,0,0,0,0,0,0,0-.02.02-.03.03,0,0,0,0,0,0-.01,0-.02.02-.03.03,0,0,0,0,0,0-.01,0-.02.02-.03.03,0,0,0,0,0,0-.02.02-.04.04-.06.06,0,0,0,0,0,0-.01,0-.02.02-.03.03,0,0,0,0,0,0,0,0-.02.02-.03.03h0s-.02.02-.03.03c0,0,0,0,0,0-.03.03-.06.06-.09.09,0,0,0,0,0,0-.01,0-.02.02-.03.03,0,0,0,0,0,0-.01,0-.02.02-.03.03,0,0,0,0,0,0-.01,0-.02.02-.03.03,0,0,0,0,0,0-.01,0-.02.02-.03.03,0,0,0,0,0,0-.02.02-.04.04-.06.06,0,0,0,0,0,0-.01,0-.02.02-.03.03,0,0,0,0,0,0-.01,0-.02.02-.03.03,0,0,0,0,0,0-.01,0-.02.02-.03.03,0,0,0,0,0,0,0,0-.02.02-.03.03,0,0,0,0,0,0-.02.02-.04.04-.06.06,0,0,0,0,0,0,0,0-.02.02-.03.03,0,0,0,0,0,0,0,0-.02.02-.03.03,0,0,0,0,0,0,0,0-.02.02-.03.03h0s-.02.02-.03.03h0s-.02.02-.03.03c0,0,0,0,0,0,0,0-.02.02-.03.02,0,0,0,0,0,0,0,0-.02.02-.02.02,0,0,0,0,0,0,0,0-.01.01-.02.02,0,0,0,0,0,0l3.36,3.72c.74-.67,1.47-1.36,2.18-2.06l-3.52-3.56h0Zm3.06-3.23c-.61.7-1.24,1.38-1.88,2.05l3.61,3.47c.69-.72,1.37-1.46,2.03-2.21l-3.76-3.31h0Zm2.82-3.44c-.13.17-.27.35-.4.52,0,0,0,0,0,0,0,.01-.02.02-.02.03h0s-.02.02-.02.03c0,0,0,0,0,0,0,.01-.02.02-.02.03,0,0,0,0,0,0-.02.02-.03.04-.05.06,0,0,0,0,0,0,0,0-.02.02-.02.03,0,0,0,0,0,0,0,0-.02.02-.02.03,0,0,0,0,0,0,0,0-.02.02-.02.03,0,0,0,0,0,0,0,0-.02.02-.02.03,0,0,0,0,0,0,0,0-.02.02-.02.03,0,0,0,0,0,0,0,0-.01.02-.02.03h0s-.01.02-.02.03c0,0,0,0,0,0,0,0-.01.02-.02.03,0,0,0,0,0,0,0,0-.01.02-.02.03,0,0,0,0,0,0,0,0-.01.02-.02.03,0,0,0,0,0,0,0,0-.01.02-.02.03,0,0,0,0,0,0,0,0-.01.02-.02.02,0,0,0,0,0,0,0,0-.01.02-.02.03,0,0,0,0,0,0,0,0-.01.02-.02.03,0,0,0,0,0,0,0,0-.01.02-.02.03,0,0,0,0,0,0,0,0-.01.02-.02.03,0,0,0,0,0,0,0,0-.02.02-.02.03,0,0,0,0,0,0,0,.01-.02.02-.02.03,0,0,0,0,0,0,0,0-.02.02-.02.03,0,0,0,0,0,0,0,0-.02.02-.02.03,0,0,0,0,0,0,0,0-.02.02-.02.03,0,0,0,0,0,0,0,.01-.02.02-.02.03h0s-.02.02-.03.03h0s-.02.02-.03.03c0,0,0,0,0,0,0,0-.02.02-.03.03,0,0,0,0,0,0,0,.01-.02.02-.03.03,0,0,0,0,0,0,0,.01-.02.02-.03.03,0,0,0,0,0,0-.16.19-.31.38-.47.57l3.84,3.21c.64-.76,1.27-1.55,1.87-2.35l-3.98-3.04h0Zm2.57-3.63c-.16.24-.32.48-.48.72,0,0,0,0,0,0-.02.02-.03.05-.05.07,0,0,0,0,0,0,0,.01-.01.02-.02.03,0,0,0,0,0,0,0,0-.01.02-.02.03,0,0,0,0,0,0,0,.01-.01.02-.02.03,0,0,0,0,0,.01,0,0-.01.02-.02.03,0,0,0,0,0,.01,0,0,0,.01-.01.02,0,0,0,.01-.01.02,0,0,0,.01-.01.01,0,0-.01.02-.02.03,0,0,0,0,0,.01,0,.01-.02.02-.02.03t0,0c-.28.41-.57.82-.86,1.22l4.06,2.93c.58-.81,1.16-1.64,1.7-2.47l-4.18-2.75h0Zm2.31-3.8c-.04.07-.09.15-.13.23,0,0,0,0,0,0,0,.01-.01.03-.02.04,0,0,0,0,0,0,0,.01-.01.02-.02.03,0,0,0,0,0,0,0,.01-.01.02-.02.03,0,0,0,0,0,0,0,0,0,.02-.01.02,0,0,0,.01,0,.02,0,0,0,.01-.01.02,0,0,0,.01-.01.02,0,0,0,.01,0,.02-.01.02-.02.04-.03.06,0,0,0,0,0,0,0,.01-.01.03-.02.04h0s-.02.03-.02.04h0c-.35.61-.71,1.21-1.08,1.81l4.26,2.64c.53-.85,1.04-1.72,1.53-2.59l-4.37-2.45h0Zm2.04-3.96s-.04.09-.07.14h0s-.01.03-.02.04c0,0,0,0,0,0v.02s-.02.01-.02.02c0,0,0,.01,0,.02,0,0,0,.01,0,.02,0,0,0,.01-.01.02,0,0,0,.01,0,.02,0,0,0,.01,0,.02,0,0,0,.01-.01.02,0,0,0,0,0,.01,0,0,0,.02-.01.03,0,0,0,0,0,.01,0,.01,0,.02-.01.03,0,0,0,0,0,0,0,0-.01.02-.02.03,0,0,0,0,0,0,0,.01-.01.02-.02.03,0,0,0,0,0,0,0,.01-.01.02-.02.04,0,0,0,0,0,0,0,.01-.01.03-.02.04,0,0,0,0,0,0,0,.01-.01.02-.02.03,0,0,0,0,0,0,0,.01-.01.02-.02.04,0,0,0,0,0,0,0,.01-.01.03-.02.04h0s-.02.05-.04.08c0,0,0,0,0,0,0,.01-.01.02-.02.04,0,0,0,0,0,0,0,.01-.01.02-.02.04,0,0,0,0,0,0,0,.01-.01.02-.02.03,0,0,0,0,0,0,0,.01-.01.02-.02.04,0,0,0,0,0,0,0,.01-.01.02-.02.03,0,0,0,0,0,0,0,.01-.01.02-.02.03,0,0,0,0,0,0,0,.01-.01.02-.02.03,0,0,0,0,0,0,0,.01-.01.02-.02.03,0,0,0,0,0,0,0,.01-.01.02-.02.03,0,0,0,0,0,0,0,.01,0,.02-.01.03,0,0,0,0,0,0v.03s-.02,0-.02.01c0,0,0,.02-.01.03,0,0,0,0,0,.01,0,0,0,.02-.01.03,0,0,0,0,0,.01,0,0,0,.02-.01.02,0,0,0,.01,0,.02,0,0,0,.01,0,.02v.02s-.02.01-.02.02v.02s-.02,0-.02.02c0,0,0,.02-.01.03,0,0,0,0,0,.01,0,0,0,.01,0,.02,0,0,0,0,0,0,0,.01-.01.02-.02.03,0,0,0,0,0,0,0,.01-.01.03-.02.04h0s-.01.03-.02.04h0c-.15.29-.3.58-.45.87l4.43,2.33c.46-.88.92-1.79,1.34-2.69l-4.53-2.14h0Zm1.75-4.09s0,0,0,0c0,0,0,.02-.01.03,0,0,0,0,0,.01,0,0,0,.02-.01.03,0,0,0,0,0,.01,0,0,0,.02-.01.03,0,0,0,0,0,.01,0,.01,0,.02-.01.03,0,0,0,0,0,0,0,.01,0,.02-.01.03,0,0,0,0,0,0,0,.01,0,.02-.01.03,0,0,0,0,0,0,0,.01,0,.02-.01.03,0,0,0,0,0,0,0,.01,0,.02-.01.04,0,0,0,0,0,0,0,.01,0,.02-.01.04,0,0,0,0,0,0,0,.01,0,.02-.01.04,0,0,0,0,0,0-.01.03-.02.05-.03.08,0,0,0,0,0,0,0,.01-.01.03-.02.04,0,0,0,0,0,0,0,.01-.01.03-.02.04,0,0,0,0,0,0,0,.01-.01.03-.02.04,0,0,0,0,0,0-.02.04-.03.08-.05.12,0,0,0,0,0,0,0,.01-.01.03-.02.04,0,0,0,0,0,0,0,.01-.01.03-.02.04,0,0,0,0,0,0-.24.59-.49,1.18-.74,1.76l4.58,2.01c.4-.91.79-1.85,1.15-2.78l-4.67-1.81h0Zm1.46-4.2c-.04.12-.08.24-.11.37h0s0,.02,0,.02c0,0,0,0,0,0,0,0,0,.01,0,.02,0,0,0,0,0,0,0,0,0,0,0,0,0,.02-.01.03-.02.05,0,0,0,0,0,0,0,0,0,.01,0,.02t0,0c-.21.67-.44,1.34-.67,2,0,0,0,0,0,0,0,0,0,.01,0,.02,0,0,0,0,0,0,0,0,0,0,0,.01h0s0,.02,0,.02c0,0,0,0,0,.01,0,0,0,0,0,0,0,.02-.02.04-.02.07l4.72,1.68c.34-.94.65-1.9.95-2.85l-4.79-1.47h0Zm1.16-4.3c-.18.78-.37,1.54-.58,2.31h0s0,.02,0,.02h0s-.02.06-.03.09h0s0,.02,0,.02c0,0,0,0,0,0,0,0,0,.01,0,.02,0,0,0,0,0,0,0,0,0,.01,0,.02h0s0,.02,0,.02c0,0,0,0,0,0,0,0,0,.01,0,.02,0,0,0,0,0,0,0,0,0,.01,0,.02h0s0,.03-.01.05c0,0,0,0,0,0,0,0,0,0,0,.01,0,0,0,0,0,0,0,0,0,0,0,.01,0,0,0,0,0,0h0s0,.02,0,.02c0,0,0,0,0,0l4.82,1.34c.27-.96.52-1.94.74-2.91l-4.88-1.13h0Zm.85-4.37c-.05.31-.1.62-.15.93h0s0,.02,0,.02c0,0,0,0,0,0,0,0,0,.01,0,.01,0,0,0,0,0,0,0,0,0,0,0,.01,0,0,0,0,0,.01,0,0,0,0,0,.01-.1.58-.21,1.15-.33,1.72l4.91,1c.2-.98.38-1.97.53-2.96l-4.95-.78h0Zm.54-4.42c-.01.13-.02.26-.03.38h0s0,.02,0,.02c0,0,0,0,0,0,0,0,0,0,0,.01,0,0,0,0,0,.01,0,0,0,0,0,.01,0,0,0,0,0,.01,0,0,0,0,0,.01,0,0,0,0,0,.01,0,0,0,0,0,.01v.02s0,0,0,0c0,0,0,.01,0,.02,0,0,0,0,0,.01,0,0,0,0,0,.01,0,0,0,0,0,0h0s0,.02,0,.02c0,0,0,0,0,.01,0,0,0,0,0,0h0s0,.02,0,.02c0,0,0,.01,0,.02,0,0,0,0,0,0,0,.02,0,.03,0,.05,0,0,0,0,0,0,0,0,0,.01,0,.02,0,0,0,0,0,0,0,0,0,.01,0,.01,0,0,0,0,0,0,0,0,0,.01,0,.02,0,0,0,0,0,0,0,0,0,.01,0,.02,0,0,0,0,0,0,0,0,0,.01,0,.02,0,0,0,0,0,0,0,0,0,.02,0,.02h0s0,.02,0,.02c0,0,0,0,0,0,0,0,0,0,0,.01,0,0,0,0,0,.01,0,0,0,0,0,.01,0,0,0,0,0,.01,0,0,0,0,0,.01,0,0,0,0,0,.01,0,0,0,0,0,.01,0,0,0,0,0,.01,0,0,0,.01,0,.02,0,0,0,0,0,0,0,0,0,.02,0,.02,0,0,0,0,0,0,0,0,0,.01,0,.02,0,0,0,0,0,0,0,0,0,0,0,.01,0,0,0,0,0,0,0,0,0,0,0,.01,0,0,0,0,0,.01,0,0,0,0,0,.01,0,0,0,0,0,.01,0,0,0,0,0,.01,0,0,0,0,0,.01,0,0,0,0,0,.01,0,0,0,.01,0,.02,0,0,0,0,0,.01,0,0,0,0,0,.01,0,0,0,0,0,0,0,0,0,0,0,.01,0,0,0,0,0,.01,0,0,0,0,0,.01,0,0,0,0,0,.01,0,0,0,0,0,.01,0,0,0,0,0,.01,0,0,0,0,0,.01,0,0,0,0,0,0,0,.02,0,.04,0,.05h0s0,.01,0,.02c0,0,0,0,0,0,0,0,0,0,0,.02h0s0,.02,0,.02c0,0,0,0,0,0,0,0,0,0,0,.02h0s0,.06,0,.09c0,0,0,0,0,0,0,0,0,.01,0,.02,0,0,0,0,0,0,0,0,0,.01,0,.02,0,0,0,0,0,0,0,0,0,.01,0,.02,0,0,0,0,0,0,0,0,0,.01,0,.02,0,0,0,0,0,0,0,.03,0,.05,0,.08,0,0,0,0,0,0,0,0,0,.01,0,.02,0,0,0,0,0,0,0,0,0,.01,0,.02h0s0,.02,0,.02c0,0,0,0,0,0,0,0,0,0,0,.02,0,0,0,0,0,0,0,.02,0,.04,0,.06,0,0,0,0,0,0,0,0,0,0,0,.01,0,0,0,0,0,0,0,0,0,0,0,.01,0,0,0,0,0,0,0,0,0,.01,0,.01,0,0,0,0,0,0,0,0,0,0,0,.01,0,0,0,0,0,.01,0,0,0,0,0,.01,0,0,0,0,0,.01,0,0,0,0,0,0,0,0,0,.02,0,.02,0,0,0,0,0,0v.02s0,0,0,0c0,0,0,.01,0,.02,0,0,0,0,0,0,0,0,0,.01,0,.02h0s0,.02,0,.02c0,0,0,0,0,0-.03.21-.05.42-.08.63l4.97.65c.13-.99.24-1.99.32-2.98l-4.99-.43h0Zm.23-4.44s0,.03,0,.04h0s0,.02,0,.02h0s0,.02,0,.02c0,0,0,0,0,.01,0,0,0,0,0,0-.02.9-.05,1.79-.1,2.67l5,.3c.06-.99.1-2,.11-3l-5.01-.08h0Zm4.92-4.72l-5,.26c.03.65.06,1.31.07,1.97,0,0,0,0,0,0,0,0,0,0,0,.01,0,0,0,0,0,.01,0,0,0,0,0,.01,0,0,0,.01,0,.02h0s0,.02,0,.03h0c0,.24,0,.48.01.72l5.01-.05c0-1-.04-2-.09-3h0Zm-.42-4.78l-4.97.61c.06.47.11.95.16,1.42h0s0,.01,0,.02c0,0,0,0,0,0,0,0,0,.01,0,.02,0,0,0,0,0,0,0,0,0,.01,0,.02,0,0,0,0,0,0,0,0,0,0,0,.01v.02s0,0,0,0c0,0,0,.01,0,.02,0,0,0,0,0,0,0,0,0,.01,0,.02h0s0,.02,0,.03h0c.04.39.07.77.1,1.16l4.99-.4c-.08-.99-.18-2-.3-2.99h0Zm-.76-4.74l-4.91.96c.05.28.11.55.16.83,0,0,0,0,0,0,0,0,0,.01,0,.02,0,0,0,0,0,0,0,0,0,0,0,.01,0,0,0,0,0,.01,0,0,0,0,0,.01,0,0,0,0,0,.01,0,0,0,0,0,0,0,0,0,.01,0,.02,0,0,0,0,0,0,0,.02,0,.03,0,.05h0s0,.02,0,.02h0s0,.02,0,.02c0,0,0,0,0,0,0,0,0,.01,0,.02h0s0,.02,0,.03h0c.04.24.08.49.13.73h0s.01.06.02.1c0,0,0,0,0,0,0,0,0,.01,0,.02,0,0,0,0,0,0,0,0,0,.01,0,.02,0,0,0,0,0,0,0,0,0,.01,0,.02,0,0,0,0,0,0,0,0,0,0,0,.01,0,0,0,0,0,0,0,0,0,.01,0,.02,0,0,0,0,0,0,0,0,0,.01,0,.02,0,0,0,0,0,.01,0,0,0,0,0,.01,0,0,0,0,0,.01,0,0,0,0,0,0,0,0,0,0,0,.02,0,0,0,0,0,0,0,0,0,.01,0,.02,0,0,0,0,0,0,.03.2.06.4.09.6l4.95-.74c-.15-.99-.32-1.98-.51-2.96h0Zm-1.09-4.68l-4.83,1.31c.02.07.04.13.05.2h0s0,.02,0,.02h0s0,.02,0,.02c0,0,0,0,0,0,0,0,0,.01,0,.02,0,0,0,0,0,0h0s0,.02,0,.02h0c.14.54.28,1.08.41,1.62h0s0,.01,0,.02c0,0,0,0,0,0,0,0,0,.01,0,.02,0,0,0,0,0,0,0,0,0,0,0,.02,0,0,0,0,0,0,0,0,0,0,0,.01,0,0,0,0,0,0,0,0,0,0,0,.01v.02s0,0,0,0c0,0,0,0,0,.01,0,0,0,0,0,0,0,0,0,0,0,.01,0,0,0,0,0,0,0,0,0,0,0,.01,0,0,0,0,0,0,0,0,0,.01,0,.02,0,0,0,0,0,0,0,0,0,.01,0,.02h0s0,.02,0,.03h0s.01.06.02.09h0c.03.14.06.28.09.42l4.89-1.09c-.22-.97-.46-1.95-.72-2.92h0Zm-1.42-4.59l-4.73,1.65c.04.11.08.22.11.33,0,0,0,0,0,0,0,0,0,.01,0,.02,0,0,0,0,0,0,0,0,0,.01,0,.02,0,0,0,0,0,0,0,0,0,.01,0,.02,0,0,0,0,0,0,0,0,0,.01,0,.02,0,0,0,0,0,0,0,.02.02.05.02.07,0,0,0,0,0,0,0,0,0,0,0,.01h0s0,.02,0,.02c0,0,0,0,0,0,0,0,0,0,0,.01,0,0,0,0,0,.01,0,0,0,0,0,0,0,0,0,.01,0,.02,0,0,0,0,0,0,0,0,0,.01,0,.02h0c.19.56.37,1.12.54,1.69,0,0,0,0,0,0,0,0,0,.01,0,.02,0,0,0,0,0,0h0s0,.02,0,.03c0,0,0,0,0,0,0,0,0,.01,0,.02,0,0,0,0,0,0,.03.09.05.18.08.27l4.8-1.44c-.29-.96-.6-1.92-.93-2.86h0Zm-1.74-4.48l-4.6,1.98c.3.69.58,1.39.86,2.09h0c.02.05.04.11.06.16,0,0,0,0,0,0,0,.01.01.03.01.04,0,0,0,0,0,0,0,.01.01.03.01.04,0,0,0,0,0,0,0,.01.01.03.02.04h0s.02.05.03.08c0,0,0,0,0,0,0,.01,0,.03.01.04,0,0,0,0,0,0,0,.01,0,.03.01.04,0,0,0,0,0,0,0,.01,0,.03.01.04t0,0l4.68-1.77c-.35-.93-.73-1.87-1.13-2.78h0Zm-2.05-4.34l-4.45,2.3c.16.31.32.62.47.93,0,0,0,0,0,0,.02.05.05.1.08.15,0,0,0,0,0,0,0,.01.01.02.02.04,0,0,0,0,0,0,0,.01.01.02.02.04h0s.04.08.06.12h0s.01.03.02.04c0,0,0,0,0,0,0,.01.01.02.02.04,0,0,0,0,0,0,0,.01.01.02.02.04,0,0,0,0,0,0,.03.05.05.1.08.16,0,0,0,0,0,0,.15.31.3.63.45.94l4.55-2.1c-.42-.9-.86-1.81-1.32-2.7h0Zm-2.36-4.19l-4.27,2.61c.16.26.32.53.48.79,0,0,0,0,0,0,0,.01.01.02.02.04h0s.01.03.02.04c0,0,0,0,0,0,0,.01.01.02.02.03,0,0,0,0,0,.01,0,0,.01.02.02.03,0,0,0,0,0,.01,0,0,0,.01.01.02,0,0,0,.01.01.02,0,0,0,.01.01.02,0,0,0,0,0,.01,0,0,.01.02.02.03,0,0,0,0,0,.01,0,0,0,.02.01.02,0,0,0,0,0,.01,0,0,0,.02.01.02,0,0,0,0,0,.01v.02s.02.01.02.02c0,0,0,.01.01.02,0,0,0,.01,0,.02v.02s.02,0,.02.01c0,0,.01.02.02.03,0,0,0,0,0,.01,0,0,.01.02.02.03,0,0,0,0,0,.01,0,0,.01.02.02.03h0s0,.03.01.03c0,0,0,.01.01.02,0,0,0,.01.01.02h0s.01.03.02.04c0,0,0,0,0,0,0,.01.01.02.02.03h0s.01.03.02.04c0,0,0,0,0,0,.16.28.32.56.48.85l4.39-2.42c-.48-.87-.99-1.75-1.51-2.6h0Zm-2.64-4.01l-4.08,2.9c.24.34.47.67.71,1.01h0s.02.03.02.04c0,0,0,0,0,0,0,.01.01.02.02.03,0,0,0,0,0,0,0,0,0,.01.01.02,0,0,0,.01.01.02,0,0,0,.01.01.02,0,0,0,.01.01.02,0,0,0,0,0,.01,0,0,0,.01.01.02,0,0,0,.01.01.01,0,0,.01.02.02.02,0,0,0,0,0,0,0,0,.01.02.02.03,0,0,0,0,0,0,0,.01.01.02.02.03,0,0,0,0,0,0,0,0,.01.02.02.03h0s.01.03.02.04h0c.2.3.4.6.6.91l4.2-2.72c-.54-.84-1.11-1.67-1.69-2.48h0Zm-2.92-3.81l-3.87,3.18c.27.33.54.66.8.99h0s.02.02.03.04h0s.02.03.03.04h0s.02.02.03.04c0,0,0,0,0,0l.07.09h0s.02.02.03.04c0,0,0,0,0,0,0,.01.02.02.02.03,0,0,0,0,0,0,0,.01.02.02.02.03,0,0,0,0,0,0,.01.02.03.04.04.05h0s.02.02.03.03c0,0,0,0,0,0,0,0,.01.02.02.03,0,0,0,0,0,0,0,0,.01.02.02.03,0,0,0,0,0,0,0,0,.01.02.02.03,0,0,0,0,0,0,0,0,.01.02.02.03,0,0,0,0,0,.01,0,0,0,.01.01.02,0,0,0,0,0,0,0,0,.01.02.02.03,0,0,0,0,0,0l.02.03s0,0,0,0c0,0,.01.02.02.03,0,0,0,0,0,0,0,0,.01.02.02.03,0,0,0,0,0,.01,0,0,.01.02.02.03,0,0,0,0,0,.01,0,0,0,.01.01.02,0,0,0,0,0,0,0,0,.01.02.02.03,0,0,0,0,0,0,0,0,.01.02.02.03,0,0,0,0,0,0,0,0,.01.02.02.03h0s.02.03.02.04c0,0,0,0,0,0,.02.03.05.06.07.09h0s.02.03.03.04h0s.02.03.03.04h0s.04.06.06.09l4-3.01c-.6-.8-1.22-1.59-1.86-2.36h0Zm-3.18-3.6l-3.64,3.44c.29.31.58.62.87.93h0s.02.02.03.03c0,0,0,0,0,0,0,0,.02.02.02.03,0,0,0,0,0,0,0,0,.02.02.02.03,0,0,0,0,0,0,0,0,.01.02.02.03,0,0,0,0,0,0,0,0,.01.01.02.02,0,0,.01.01.01.02,0,0,0,.01.01.01,0,0,0,0,.01.01,0,0,.01.01.02.02h.01s.01.03.02.03c0,0,0,0,.01.01,0,0,.01.01.02.02,0,0,.01.01.01.02,0,0,0,0,.01.01,0,0,.01.01.02.02,0,0,0,0,.01.01,0,0,.01.01.02.02,0,0,0,0,.01.01,0,0,.01.02.02.02,0,0,0,0,0,.01,0,0,.01.01.02.02,0,0,0,0,0,0,0,0,.01.01.02.02,0,0,0,0,0,.01,0,0,.01.01.02.02,0,0,0,0,0,0,0,0,.01.02.02.03,0,0,0,0,0,0,0,0,.02.02.02.03,0,0,0,0,0,0,0,0,.02.02.02.03,0,0,0,0,0,0,0,0,.02.02.02.03h0s.02.02.03.03c0,0,0,0,0,0,0,.01.02.02.03.03,0,0,0,0,0,0,0,.01.02.02.03.03,0,0,0,0,0,0,0,.01.02.02.03.03,0,0,0,0,0,0,0,.01.02.02.03.03,0,0,0,0,0,0,0,.01.02.02.03.03h0c.09.1.17.2.26.29l3.78-3.28c-.65-.75-1.33-1.5-2.02-2.22h0Zm-3.42-3.37l-3.39,3.69c.17.16.34.31.51.47,0,0,0,0,0,0,.01.01.02.02.03.03,0,0,0,0,0,0,.01,0,.02.02.03.03,0,0,0,0,0,0,.02.02.04.04.06.06,0,0,0,0,0,0,0,0,.02.02.03.03,0,0,0,0,0,0,.01,0,.02.02.03.03,0,0,0,0,0,0,0,0,.02.02.03.02,0,0,0,0,0,0,0,0,.02.02.02.02,0,0,0,0,0,0,0,0,.01.01.02.02,0,0,0,0,0,0,0,0,.01.01.02.02,0,0,0,0,.01.01,0,0,.01.01.02.02,0,0,0,0,.01.01,0,0,.01.01.02.02,0,0,0,0,.01.01,0,0,.01.01.02.02h.01s0,.02,0,.02c0,0,.02.02.02.02,0,0,0,0,0,0,0,0,.02.02.03.03h0s.02.02.03.03h0c.33.32.65.64.97.96l3.54-3.54c-.7-.7-1.43-1.4-2.17-2.08h0Zm-3.65-3.12l-3.12,3.92c.21.17.42.33.62.5h0s.02.02.03.03c0,0,0,0,0,0,0,0,.02.01.03.02,0,0,0,0,0,0l.02.02s.01,0,.02.01,0,0,.01.01c0,0,.01.01.02.02,0,0,0,0,.01.01,0,0,.02.01.02.02h.01s.02.02.02.03c0,0,0,0,0,0,0,0,.02.01.03.02h0s.02.02.03.03c0,0,0,0,0,0,0,0,.02.02.03.02h0s.02.02.03.03c0,0,0,0,0,0,.01,0,.02.02.03.02,0,0,0,0,0,0,.01,0,.02.02.03.03h0c.37.31.73.62,1.09.93l3.29-3.78c-.75-.65-1.53-1.3-2.31-1.92h0Zm-3.86-2.86l-2.84,4.13c.63.43,1.25.87,1.86,1.33h0s.02.02.04.03h0s.04.03.06.04c0,0,0,0,0,0,0,0,.02.01.03.02,0,0,0,0,.01,0,0,0,.01.01.02.02,0,0,0,0,.02.01,0,0,.01,0,.02.01,0,0,.01.01.02.02,0,0,0,0,.01,0,0,0,.02.01.02.02,0,0,0,0,.01,0,0,0,.02.01.02.02,0,0,0,0,.01,0,0,0,.02.01.03.02,0,0,0,0,0,0,0,0,.02.01.03.02,0,0,0,0,0,0,0,0,.02.01.03.02,0,0,0,0,0,0l3.01-4c-.8-.6-1.62-1.19-2.44-1.75h0Zm-4.05-2.58l-2.54,4.32c.8.47,1.59.96,2.37,1.46l2.73-4.2c-.84-.54-1.7-1.07-2.55-1.58h0Zm-4.22-2.29l-2.23,4.49c.5.25,1,.5,1.49.76h0s.03.01.04.02c0,0,0,0,0,0,.01,0,.02.01.03.02,0,0,0,0,0,0,0,0,.01,0,.02.01,0,0,.01,0,.02.01,0,0,.01,0,.02,0,0,0,.02,0,.02.01,0,0,0,0,.01,0,0,0,.02,0,.02.01h.01s.02.02.03.02c0,0,0,0,0,0,.01,0,.02.01.03.02,0,0,0,0,0,0,.01,0,.02.01.03.02,0,0,0,0,0,0,.01,0,.03.01.04.02h0c.2.11.41.22.61.33l2.42-4.38c-.87-.48-1.77-.95-2.66-1.39h0Zm-4.38-1.98l-1.9,4.63c.2.08.4.17.6.25,0,0,0,0,0,0,.01,0,.03.01.04.02,0,0,0,0,0,0,.01,0,.02.01.04.02,0,0,0,0,0,0,.01,0,.02.01.04.02,0,0,0,0,0,0,.01,0,.02,0,.03.01,0,0,0,0,0,0,0,0,.02,0,.03.01,0,0,0,0,.01,0,.01,0,.02,0,.03.01,0,0,0,0,.01,0,0,0,.02,0,.03.01,0,0,0,0,.01,0,0,0,.01,0,.02,0,0,0,.01,0,.02,0,0,0,.01,0,.02,0,0,0,.02,0,.03.01,0,0,0,0,.01,0,.01,0,.02,0,.03.01,0,0,0,0,0,0,0,0,.01,0,.02,0h0s.03.01.04.02c0,0,0,0,0,0,.01,0,.03.01.04.02h0s.03.01.04.02h0c.46.2.91.4,1.36.61l2.11-4.54c-.9-.42-1.83-.82-2.75-1.2h0Zm-4.51-1.67l-1.57,4.76s.06.02.08.03c0,0,0,0,0,0,.01,0,.03,0,.04.01h0s.03,0,.04.01c0,0,0,0,0,0,.03,0,.05.02.08.03,0,0,0,0,0,0,.01,0,.02,0,.04.01,0,0,0,0,0,0,.01,0,.02,0,.03.01,0,0,0,0,0,0,0,0,.02,0,.03.01,0,0,0,0,0,0,0,0,.02,0,.03.01,0,0,0,0,0,0h.03s0,.01,0,.01c0,0,.02,0,.03.01,0,0,0,0,.01,0,.01,0,.02,0,.03.01h.01s.02.01.03.01h.01s.01.01.02.01c0,0,.01,0,.02,0,0,0,.01,0,.02,0,0,0,.01,0,.02,0,0,0,.01,0,.02,0,0,0,.01,0,.02,0,0,0,.02,0,.03,0,0,0,.01,0,.02,0,0,0,.01,0,.02,0,0,0,.01,0,.02,0,0,0,.01,0,.02,0,0,0,.02,0,.03,0,0,0,.01,0,.02,0,0,0,.02,0,.02,0,0,0,.01,0,.02,0,0,0,.01,0,.02,0,0,0,.02,0,.02,0,0,0,.01,0,.02,0,0,0,.01,0,.02,0,0,0,.02,0,.03,0,0,0,0,0,.01,0,0,0,.02,0,.03.01,0,0,0,0,.01,0,0,0,.02,0,.03,0,0,0,0,0,.02,0,0,0,.01,0,.02,0,0,0,.02,0,.02,0,0,0,.01,0,.02,0,0,0,.01,0,.02,0,0,0,.02,0,.02,0,0,0,.01,0,.02,0h.03s.01.01.02.02c0,0,.02,0,.02,0,0,0,.01,0,.02,0h.02s.02.01.03.02c0,0,.01,0,.02,0,0,0,.01,0,.02,0,0,0,.01,0,.02,0,0,0,.01,0,.02,0,0,0,.01,0,.02,0,0,0,.02,0,.02,0,0,0,.01,0,.02,0,0,0,.02,0,.03.01,0,0,0,0,.01,0,0,0,.02,0,.03.01,0,0,0,0,.01,0,0,0,.02,0,.03.01,0,0,0,0,.01,0,0,0,.02,0,.02,0,0,0,.01,0,.01,0,0,0,.02,0,.03.01,0,0,0,0,0,0,0,0,.02,0,.03.01,0,0,0,0,0,0,.01,0,.02,0,.03.01,0,0,0,0,0,0,.01,0,.02,0,.03.01,0,0,0,0,0,0,.01,0,.02,0,.04.01,0,0,0,0,0,0,.01,0,.03,0,.04.01,0,0,0,0,0,0,.01,0,.02,0,.04.01,0,0,0,0,0,0,.01,0,.03,0,.04.01,0,0,0,0,0,0,.22.08.43.16.65.24l1.78-4.68c-.93-.35-1.88-.69-2.83-1.01h0Zm-4.61-1.34l-1.23,4.85c.53.13,1.05.27,1.58.42h0s.01,0,.02,0c0,0,0,0,0,0,0,0,0,0,.01,0,0,0,0,0,.01,0,0,0,0,0,0,0,0,0,.01,0,.01,0,0,0,0,0,0,0,0,0,.01,0,.02,0,0,0,0,0,0,0,.33.09.67.19,1,.29l1.44-4.8c-.95-.29-1.93-.56-2.9-.8h0Zm-4.7-1.01l-.88,4.93c.38.07.76.14,1.14.22h0s.01,0,.02,0h0s.01,0,.02,0h0s.02,0,.02,0h0s.01,0,.02,0c0,0,.01,0,.02,0,0,0,0,0,0,0,0,0,.01,0,.02,0,0,0,0,0,0,0,0,0,.01,0,.02,0,0,0,0,0,0,0,0,0,.01,0,.02,0,0,0,0,0,0,0,.47.09.94.19,1.4.3l1.1-4.89c-.97-.22-1.96-.42-2.94-.59h0Zm-4.76-.68l-.53,4.98c.15.02.31.03.46.05h0s.02,0,.02,0h0s.01,0,.02,0h0s.01,0,.02,0c0,0,0,0,0,0,0,0,.01,0,.02,0,0,0,0,0,0,0,0,0,.02,0,.02,0h0s.01,0,.02,0c0,0,0,0,.01,0,0,0,0,0,.01,0,0,0,0,0,.01,0,0,0,0,0,0,0,0,0,.01,0,.01,0,0,0,0,0,0,0,0,0,.01,0,.02,0h0c.69.08,1.38.18,2.06.28l.75-4.95c-.98-.15-1.99-.28-2.98-.38h0Zm-4.79-.34l-.18,5s0,0,0,0c0,0,.01,0,.01,0,0,0,0,0,0,0,.66.02,1.32.06,1.97.1,0,0,0,0,0,0,0,0,0,0,.02,0,0,0,0,0,0,0,0,0,0,0,.01,0h.01s0,0,.01,0h.01s0,0,.01,0c0,0,.01,0,.02,0,0,0,0,0,0,0,0,0,.02,0,.02,0h0s.02,0,.02,0h0s.01,0,.02,0h0s.01,0,.02,0h0c.19.01.38.03.57.04l.4-4.99c-.99-.08-2-.14-2.99-.18h0Zm-2.53-.05v5.01h.08c.2,0,.4,0,.6,0l.05-5.01c-.24,0-.49,0-.74,0h0Z" style="fill: #1b79d9; stroke-width: 0px;"/>
        <circle cx="68.16" cy="68.16" r="63.15" style="fill: none; stroke: #fff; stroke-miterlimit: 10; stroke-width: 7.79px;"/>
        <circle cx="68.16" cy="68.16" r="63.15" style="fill: #1b79d9; opacity: .68; stroke-width: 0px;"/>
      </g>
      <g>
        <g>
          <path d="m52.41,36.38c-.6.31-1.21.62-1.78.87.62.45,1.33.8,2.16,1.02-.37.34-.87.96-1.08,1.41-2.07-.7-3.4-2.13-4.2-4.11-.45.39-.94.73-1.5,1.05v1.33l2.18-.42c-.05.4-.06,1-.03,1.34-2.84.62-3.35.76-3.65.94-.08-.36-.37-.94-.59-1.24.28-.12.62-.43.62-1.05v-.14c-.43.19-.85.32-1.27.46-.17-.26-.45-.6-.71-.9l.02.11c-1.42.42-2.94.8-4.19,1.14l-.31-1.67c.45-.09.94-.22,1.52-.36v-3.8h-1.21v-1.59h1.21v-2.88h-1.31v-1.61h4.19v1.61h-1.27v2.88h1.13v1.59h-1.13v3.42l1.16-.31.14,1.05c1.1-.29,2.24-.73,3.17-1.25h-1.78v-3.38h7.7v3.38h-2.58c.17.39.4.74.67,1.05.56-.32,1.14-.73,1.53-1.04l1.21,1.08Zm.05-5.02h-9.46v-1.45h9.46v1.45Zm-.49-1.95h-8.41v-3.51h8.41v3.51Zm-5.95-2.27h-.97v1.04h.97v-1.04Zm-.49,6.89h4.34v-.87h-4.34v.87Zm2.67-6.89h-.97v1.04h.97v-1.04Zm2.21,0h-1.02v1.04h1.02v-1.04Z" style="fill: #fff; stroke-width: 0px;"/>
          <path d="m58.93,36.12c-1.59.66-3.35,1.38-4.75,1.92l-.6-1.89c.51-.15,1.11-.34,1.78-.57v-4.76h-1.5v-1.75h1.5v-3.46h1.79v3.46h1.31v1.75h-1.31v4.14c.48-.17.94-.34,1.42-.51l.36,1.67Zm7.13,2.09c.12,0,.25,0,.32-.03.08-.03.14-.12.19-.31.03-.19.05-.6.06-1.16.31.29.97.6,1.41.76-.05.57-.11,1.19-.23,1.45-.14.26-.36.45-.65.57-.23.09-.67.14-.96.14h-.99c-.4,0-.9-.12-1.17-.37-.29-.26-.43-.59-.43-1.53v-1.87h-1.11c-.26,2.04-1.04,3.31-3.93,4.03-.15-.42-.59-1.1-.94-1.41,2.38-.46,2.94-1.25,3.15-2.63h-1.28v-4.67h7.4v4.67h-1.59v1.92c0,.2,0,.31.06.37.06.05.15.06.28.06h.42Zm1.59-7.54h-8.76v-1.51h1.87c-.08-.34-.22-.71-.34-1.02l1.48-.29c.19.39.39.93.48,1.31h1.75c.17-.43.34-.93.45-1.31l1.67.31c-.19.36-.34.7-.51,1h1.92v1.51Zm-.4-2.84h-7.93v-1.48h3.06c-.09-.25-.19-.51-.26-.73l1.73-.32c.14.31.29.71.42,1.05h2.98v1.48Zm-6.07,5.16h3.96v-.65h-3.96v.65Zm0,1.72h3.96v-.65h-3.96v.65Z" style="fill: #fff; stroke-width: 0px;"/>
          <path d="m75.02,29.56c-.68,4.17-2.35,7.3-4.51,8.92-.31-.43-1.04-1.16-1.48-1.42,1.78-1.21,3.11-3.32,3.79-6.03h-3.23v-1.85h3.9l.34-.06,1.21.45Zm7.68-.26c-1.14,1.14-2.49,2.43-3.59,3.31,1.17,1.78,2.75,3.23,4.7,4.08-.45.4-1.07,1.17-1.38,1.72-2.18-1.16-3.82-3.04-5.02-5.35v4.44c0,1.07-.2,1.61-.82,1.95-.6.32-1.53.42-2.78.42-.08-.57-.4-1.5-.68-2.06.85.03,1.67.03,1.96.03.26,0,.36-.09.36-.36v-12.07h1.96v3.77c.25.7.53,1.34.85,1.99.97-.93,2.04-2.1,2.74-3.06l1.7,1.19Z" style="fill: #fff; stroke-width: 0px;"/>
          <path d="m90.33,32.68v5.56c0,.67-.11,1.04-.54,1.27-.4.23-.97.25-1.79.25-.05-.39-.23-.97-.42-1.34.43.02.9.02,1.04.02.15,0,.2-.06.2-.2v-1.41c-.51.34-1,.66-1.5.96l-.4-.87c-.12,1.05-.39,2.16-.93,2.97-.26-.26-.94-.73-1.28-.88.76-1.16.82-2.72.82-3.96v-2.37h-.76v-2.4h.59v-4.41h5.02v4.41h.65v2.4h-.7Zm-.7-1.16h-3.54v.62h3.54v-.62Zm-2.86-1.24h.6v-2.47h1.5v-.63h-2.1v3.11Zm.23,4.79c0,.45-.02.91-.05,1.42.53-.22,1.16-.53,1.85-.87v-.68l-.62.68c-.26-.26-.74-.68-1.19-1.02v.46Zm0-.87l.53-.53c.45.29.94.63,1.28.91v-1.27h-1.81v.88Zm1.87-3.93v-1.44h-.57v1.44h.57Zm10.2,7.98v1.33h-8.16v-1.33h1.82c-.12-.39-.26-.79-.42-1.13l.97-.29h-1.62v-3.01h6.65v3.01h-1.76l1.19.32c-.25.39-.46.76-.68,1.1h2.01Zm-.12-4.95h-7.88v-1.31h7.88v1.31Zm-.29-1.84h-7.36v-4.96h1.82v-1.1h1.42v1.1h.68v-1.1h1.44v1.1h1.99v4.96Zm-6-3.04h.79v-.71h-.79v.71Zm0,1.84h.79v-.73h-.79v.73Zm.6,5.47h3.35v-.8h-3.35v.8Zm.51,1.1c.19.46.39.99.53,1.42h1.25c.19-.46.39-.99.51-1.42h-2.29Zm1.53-8.41v-.71h-.74v.71h.74Zm-.74,1.11v.73h.74v-.73h-.74Zm2.67-1.82h-.82v.71h.82v-.71Zm0,1.82h-.82v.73h.82v-.73Z" style="fill: #fff; stroke-width: 0px;"/>
          <path d="m58.86,44.54c-.42,1.07-.93,2.16-1.53,3.2v10.6h-1.75v-7.94c-.36.45-.73.87-1.08,1.25-.17-.45-.68-1.44-.99-1.89,1.44-1.39,2.84-3.59,3.65-5.78l1.7.56Zm2.71,9.4c-.63,1.33-1.58,2.83-2.36,3.77-.32-.28-1-.77-1.42-.99.77-.85,1.61-2.13,2.13-3.28l1.65.49Zm2.49-.97v5.43h-1.85v-5.43h-4.03v-1.67h4.03v-1.36h-3.03v-5.32h8.12v5.32h-3.23v1.36h4v1.67h-4Zm-3.14-4.65h4.53v-2.07h-4.53v2.07Zm5.02,5.12c.88,1.02,1.82,2.35,2.27,3.26l-1.45.88c-.42-.91-1.36-2.33-2.18-3.38l1.36-.76Z" style="fill: #fff; stroke-width: 0px;"/>
          <path d="m74.92,47.96h-5.75v-1.45h2.6c-.23-.59-.62-1.36-.97-1.95l1.38-.66c.42.63.88,1.48,1.13,2.06l-1,.56h2.63v1.45Zm8.11,6.15c-.51.93-1.22,1.67-2.12,2.3.87.25,1.84.42,2.86.51-.36.36-.8,1.04-1,1.45-1.36-.19-2.57-.53-3.6-1.02-1.19.49-2.53.83-3.96,1.05-.12-.4-.46-1.05-.76-1.42v.56h-3.15v.65h-1.5v-5.33h4.65v4.11c1.08-.12,2.16-.32,3.11-.62-.46-.37-.87-.79-1.22-1.27l.59-.19h-1.68v-1.24h6.43l.28-.06,1.08.51Zm-5.97-8.04h-2.13v-1.36h2.13v-.76h1.61v2.84h-1.33l.37.11c-.09.23-.19.48-.29.7h1.36c-.08-.25-.15-.51-.23-.73l1.28-.31v-2.61h1.62v.74h2.04v1.36h-2.04v.74h-1.16c.11.26.2.54.28.8h2.54v1.1h-2.64v.53h2.23v.91h-2.23v.53h2.23v.91h-2.23v.56h2.95v1.07h-6.11v.23h-1.51v-3.15c-.17.2-.36.4-.54.59-.15-.31-.59-.96-.87-1.3v.48h-4.56v-1.39h4.56v.8c.79-.74,1.47-1.84,1.85-2.98l.82.25v-.65Zm-7.23,4.65h4.56v1.39h-4.56v-1.39Zm3.09,3.6h-1.62v1.73h1.62v-1.73Zm6.01-5.63h-1.62v.53h1.62v-.53Zm0,1.44h-1.62v.53h1.62v-.53Zm0,1.44h-1.62v.56h1.62v-.56Zm-.85,3.32c.29.31.68.59,1.13.82.48-.23.9-.51,1.27-.82h-2.4Z" style="fill: #fff; stroke-width: 0px;"/>
        </g>
        <g>
          <path d="m52.41,36.38c-.6.31-1.21.62-1.78.87.62.45,1.33.8,2.16,1.02-.37.34-.87.96-1.08,1.41-2.07-.7-3.4-2.13-4.2-4.11-.45.39-.94.73-1.5,1.05v1.33l2.18-.42c-.05.4-.06,1-.03,1.34-2.84.62-3.35.76-3.65.94-.08-.36-.37-.94-.59-1.24.28-.12.62-.43.62-1.05v-.14c-.43.19-.85.32-1.27.46-.17-.26-.45-.6-.71-.9l.02.11c-1.42.42-2.94.8-4.19,1.14l-.31-1.67c.45-.09.94-.22,1.52-.36v-3.8h-1.21v-1.59h1.21v-2.88h-1.31v-1.61h4.19v1.61h-1.27v2.88h1.13v1.59h-1.13v3.42l1.16-.31.14,1.05c1.1-.29,2.24-.73,3.17-1.25h-1.78v-3.38h7.7v3.38h-2.58c.17.39.4.74.67,1.05.56-.32,1.14-.73,1.53-1.04l1.21,1.08Zm.05-5.02h-9.46v-1.45h9.46v1.45Zm-.49-1.95h-8.41v-3.51h8.41v3.51Zm-5.95-2.27h-.97v1.04h.97v-1.04Zm-.49,6.89h4.34v-.87h-4.34v.87Zm2.67-6.89h-.97v1.04h.97v-1.04Zm2.21,0h-1.02v1.04h1.02v-1.04Z" style="fill: #fff; stroke-width: 0px;"/>
          <path d="m58.93,36.12c-1.59.66-3.35,1.38-4.75,1.92l-.6-1.89c.51-.15,1.11-.34,1.78-.57v-4.76h-1.5v-1.75h1.5v-3.46h1.79v3.46h1.31v1.75h-1.31v4.14c.48-.17.94-.34,1.42-.51l.36,1.67Zm7.13,2.09c.12,0,.25,0,.32-.03.08-.03.14-.12.19-.31.03-.19.05-.6.06-1.16.31.29.97.6,1.41.76-.05.57-.11,1.19-.23,1.45-.14.26-.36.45-.65.57-.23.09-.67.14-.96.14h-.99c-.4,0-.9-.12-1.17-.37-.29-.26-.43-.59-.43-1.53v-1.87h-1.11c-.26,2.04-1.04,3.31-3.93,4.03-.15-.42-.59-1.1-.94-1.41,2.38-.46,2.94-1.25,3.15-2.63h-1.28v-4.67h7.4v4.67h-1.59v1.92c0,.2,0,.31.06.37.06.05.15.06.28.06h.42Zm1.59-7.54h-8.76v-1.51h1.87c-.08-.34-.22-.71-.34-1.02l1.48-.29c.19.39.39.93.48,1.31h1.75c.17-.43.34-.93.45-1.31l1.67.31c-.19.36-.34.7-.51,1h1.92v1.51Zm-.4-2.84h-7.93v-1.48h3.06c-.09-.25-.19-.51-.26-.73l1.73-.32c.14.31.29.71.42,1.05h2.98v1.48Zm-6.07,5.16h3.96v-.65h-3.96v.65Zm0,1.72h3.96v-.65h-3.96v.65Z" style="fill: #fff; stroke-width: 0px;"/>
          <path d="m75.02,29.56c-.68,4.17-2.35,7.3-4.51,8.92-.31-.43-1.04-1.16-1.48-1.42,1.78-1.21,3.11-3.32,3.79-6.03h-3.23v-1.85h3.9l.34-.06,1.21.45Zm7.68-.26c-1.14,1.14-2.49,2.43-3.59,3.31,1.17,1.78,2.75,3.23,4.7,4.08-.45.4-1.07,1.17-1.38,1.72-2.18-1.16-3.82-3.04-5.02-5.35v4.44c0,1.07-.2,1.61-.82,1.95-.6.32-1.53.42-2.78.42-.08-.57-.4-1.5-.68-2.06.85.03,1.67.03,1.96.03.26,0,.36-.09.36-.36v-12.07h1.96v3.77c.25.7.53,1.34.85,1.99.97-.93,2.04-2.1,2.74-3.06l1.7,1.19Z" style="fill: #fff; stroke-width: 0px;"/>
          <path d="m90.33,32.68v5.56c0,.67-.11,1.04-.54,1.27-.4.23-.97.25-1.79.25-.05-.39-.23-.97-.42-1.34.43.02.9.02,1.04.02.15,0,.2-.06.2-.2v-1.41c-.51.34-1,.66-1.5.96l-.4-.87c-.12,1.05-.39,2.16-.93,2.97-.26-.26-.94-.73-1.28-.88.76-1.16.82-2.72.82-3.96v-2.37h-.76v-2.4h.59v-4.41h5.02v4.41h.65v2.4h-.7Zm-.7-1.16h-3.54v.62h3.54v-.62Zm-2.86-1.24h.6v-2.47h1.5v-.63h-2.1v3.11Zm.23,4.79c0,.45-.02.91-.05,1.42.53-.22,1.16-.53,1.85-.87v-.68l-.62.68c-.26-.26-.74-.68-1.19-1.02v.46Zm0-.87l.53-.53c.45.29.94.63,1.28.91v-1.27h-1.81v.88Zm1.87-3.93v-1.44h-.57v1.44h.57Zm10.2,7.98v1.33h-8.16v-1.33h1.82c-.12-.39-.26-.79-.42-1.13l.97-.29h-1.62v-3.01h6.65v3.01h-1.76l1.19.32c-.25.39-.46.76-.68,1.1h2.01Zm-.12-4.95h-7.88v-1.31h7.88v1.31Zm-.29-1.84h-7.36v-4.96h1.82v-1.1h1.42v1.1h.68v-1.1h1.44v1.1h1.99v4.96Zm-6-3.04h.79v-.71h-.79v.71Zm0,1.84h.79v-.73h-.79v.73Zm.6,5.47h3.35v-.8h-3.35v.8Zm.51,1.1c.19.46.39.99.53,1.42h1.25c.19-.46.39-.99.51-1.42h-2.29Zm1.53-8.41v-.71h-.74v.71h.74Zm-.74,1.11v.73h.74v-.73h-.74Zm2.67-1.82h-.82v.71h.82v-.71Zm0,1.82h-.82v.73h.82v-.73Z" style="fill: #fff; stroke-width: 0px;"/>
          <path d="m58.86,44.54c-.42,1.07-.93,2.16-1.53,3.2v10.6h-1.75v-7.94c-.36.45-.73.87-1.08,1.25-.17-.45-.68-1.44-.99-1.89,1.44-1.39,2.84-3.59,3.65-5.78l1.7.56Zm2.71,9.4c-.63,1.33-1.58,2.83-2.36,3.77-.32-.28-1-.77-1.42-.99.77-.85,1.61-2.13,2.13-3.28l1.65.49Zm2.49-.97v5.43h-1.85v-5.43h-4.03v-1.67h4.03v-1.36h-3.03v-5.32h8.12v5.32h-3.23v1.36h4v1.67h-4Zm-3.14-4.65h4.53v-2.07h-4.53v2.07Zm5.02,5.12c.88,1.02,1.82,2.35,2.27,3.26l-1.45.88c-.42-.91-1.36-2.33-2.18-3.38l1.36-.76Z" style="fill: #fff; stroke-width: 0px;"/>
          <path d="m74.92,47.96h-5.75v-1.45h2.6c-.23-.59-.62-1.36-.97-1.95l1.38-.66c.42.63.88,1.48,1.13,2.06l-1,.56h2.63v1.45Zm8.11,6.15c-.51.93-1.22,1.67-2.12,2.3.87.25,1.84.42,2.86.51-.36.36-.8,1.04-1,1.45-1.36-.19-2.57-.53-3.6-1.02-1.19.49-2.53.83-3.96,1.05-.12-.4-.46-1.05-.76-1.42v.56h-3.15v.65h-1.5v-5.33h4.65v4.11c1.08-.12,2.16-.32,3.11-.62-.46-.37-.87-.79-1.22-1.27l.59-.19h-1.68v-1.24h6.43l.28-.06,1.08.51Zm-5.97-8.04h-2.13v-1.36h2.13v-.76h1.61v2.84h-1.33l.37.11c-.09.23-.19.48-.29.7h1.36c-.08-.25-.15-.51-.23-.73l1.28-.31v-2.61h1.62v.74h2.04v1.36h-2.04v.74h-1.16c.11.26.2.54.28.8h2.54v1.1h-2.64v.53h2.23v.91h-2.23v.53h2.23v.91h-2.23v.56h2.95v1.07h-6.11v.23h-1.51v-3.15c-.17.2-.36.4-.54.59-.15-.31-.59-.96-.87-1.3v.48h-4.56v-1.39h4.56v.8c.79-.74,1.47-1.84,1.85-2.98l.82.25v-.65Zm-7.23,4.65h4.56v1.39h-4.56v-1.39Zm3.09,3.6h-1.62v1.73h1.62v-1.73Zm6.01-5.63h-1.62v.53h1.62v-.53Zm0,1.44h-1.62v.53h1.62v-.53Zm0,1.44h-1.62v.56h1.62v-.56Zm-.85,3.32c.29.31.68.59,1.13.82.48-.23.9-.51,1.27-.82h-2.4Z" style="fill: #fff; stroke-width: 0px;"/>
        </g>
      </g>
      <path id="Layer_1" d="m52.01,87.12c1.19-.68,5.99-3.56,6.95-3.9,4.01-1.44,4.92,2.85,9.78,5.6,2.35,1.33,5.94,1.61,6.9,3.53.79,2.01-1.24,3.87-3.73,2.88-1.38-.54-2.2,1.55-.82,2.09,3.99,1.58,7.52-1.44,6.95-4.78l7.94-4.61c3.22-1.84,5.26,2.54,2.63,4.07l-13.4,7.72c-3,1.75-5.65,1.98-9.24.96-2.66-.73-5.79-2.35-9.3-5.51l-4.66-8.06Zm13.93,24c-1.38-.65-2.77-1.3-5.99-.03-2.32.9-3.28.48-4.21.03-1.41-.65-2.8-1.3-5.99-.03-3,1.16-3.93.25-3.93.25-1.07-1.05-2.63.57-1.55,1.61,0,0,1.95,1.95,6.3.23,2.32-.9,3.25-.45,4.21-.03,1.38.65,2.77,1.3,5.99.03,2.32-.9,3.28-.45,4.21-.03,1.41.65,2.8,1.3,5.99.03,2.32-.9,3.28-.45,4.24-.03,1.38.65,2.77,1.3,5.99.03,3-1.16,3.9-.23,3.9-.23,1.07,1.02,2.63-.59,1.58-1.61,0-.03-1.95-1.95-6.3-.25-2.32.9-3.28.48-4.24.03-1.38-.65-2.77-1.3-5.99-.03-2.32.9-3.25.48-4.21.03Zm-.14-4.61c-3.22-1.24-4.61-.59-5.99.03-.93.45-1.89.9-4.21-.03-4.35-1.7-6.3.25-6.3.25-1.07,1.05.51,2.66,1.55,1.61.03,0,.93-.93,3.93.25,3.22,1.24,4.61.62,5.99-.03.93-.45,1.89-.88,4.21.03,3.22,1.24,4.61.62,5.99-.03.96-.45,1.89-.88,4.24.03,3.19,1.24,4.58.62,5.96-.03.96-.45,1.92-.88,4.24.03,4.72,1.84,7.72-.42,6.33-1.84-.45-.45-1.16-.45-1.61-.03,0,0-.9.93-3.9-.25-3.22-1.24-4.61-.59-5.99.03-.96.45-1.89.9-4.21-.03-3.22-1.24-4.61-.59-5.99.03-.96.45-1.92.9-4.24-.03Zm2.94-40.25c-9.81,11.14-3.36,17.07,2.15,16,3.65,9.78,25.1,3.56,7.89-16-.45-.51-1.16-.57-1.64-.14-.76.68-3.02,3.76-3.45,4.44-.85-1.38-1.89-2.8-3.08-4.15-.25-.31-.48-.57-.99-.57-.31,0-.65.14-.88.42Zm-2.29,12.32c-1.61-2.49.42-6.53,3.17-9.86,1.07,1.3,2.03,2.71,2.71,4.1-1.16,2.2-2.06,4.78-1.89,7.24-1.47.28-3.14-.2-3.99-1.47Zm16.48,2.35c-1.53,6.08-13.76,4.78-9.27-5.68,1.05-2.37,2.6-4.58,4.24-6.56,4.61,5.54,5.71,9.61,5.03,12.24Zm-23.91-.11c-.65.17-1.41.45-2.03.82l-12.58,7.26c-.54.31-.73.99-.42,1.55h.03l7.6,13.2c.48.93,1.7.85,2.06-.03l2.52-5.85c5.99,4.97,13.54,7.74,19.98,4.01l13.57-7.83c3.59-2.06,2.88-7.49-1.13-8.56-1.47-.4-2.6-.06-3.84.65l-7.66,4.44c-1.78-2.23-5.14-2.43-7.26-3.65-4.64-2.6-5.85-7.43-10.83-6.02Zm-8.96,7.43l4.47,7.72-2.03,4.69-5.99-10.37,3.56-2.03Z" style="fill: #fff; stroke-width: 0px;"/>
    </g>
  </g>
</svg>