<?xml version="1.0" encoding="UTF-8"?>
<svg id="_圖層_2" data-name="圖層 2" xmlns="http://www.w3.org/2000/svg" width="142.3" height="169.23" viewBox="0 0 142.3 169.23">
  <g id="_圖層_7" data-name="圖層 7">
    <g id="air_balloon5">
      <line x1="60.91" y1="135.32" x2="68.63" y2="162.76" style="fill: none; stroke: #42d9ae; stroke-miterlimit: 10; stroke-width: 7.12px;"/>
      <line x1="82.68" y1="134.45" x2="72.99" y2="161.25" style="fill: none; stroke: #42d9ae; stroke-miterlimit: 10; stroke-width: 7.12px;"/>
      <path d="m85.57,152.01h-28.25c-.99,0-1.76.64-1.76,1.37,0,.77.77,1.42,1.76,1.42h.27v8.72c0,3.13,2.64,5.71,5.93,5.71h15.83c3.3,0,5.93-2.58,5.93-5.71v-8.72h.27c.99,0,1.76-.64,1.76-1.42,0-.73-.77-1.37-1.76-1.37Z" style="fill: #42d9ae; fill-rule: evenodd; stroke-width: 0px;"/>
      <g>
        <path d="m71.15,0c-1.04,0-2.09.02-3.13.07l.23,5.22c.63-.03,1.27-.05,1.9-.06,0,0,0,0,0,0,.04,0,.08,0,.11,0h0s.01,0,.02,0h0s.07,0,.11,0h0s.01,0,.02,0h0s.01,0,.01,0h0s.01,0,.02,0h0s0,0,.02,0h0s.04,0,.06,0h.01s0,0,.01,0h.01s0,0,.01,0h.01s0,0,.01,0h.02s0,0,.01,0h.02s.01,0,.02,0h.02s0,0,.01,0h.02s0,0,.01,0h.04s.01,0,.02,0h.03s0,0,0,0h.05s0,0,.01,0h.09s0,0,0,0h.13V0h0Zm-5.01.17c-1.04.07-2.09.17-3.12.29l.59,5.19c.06,0,.12-.01.18-.02h0s.04,0,.06,0c0,0,0,0,.01,0,0,0,0,0,0,0,0,0,.01,0,.02,0,0,0,0,0,0,0,0,0,.01,0,.02,0h0c.86-.09,1.72-.17,2.59-.23l-.36-5.21h0Zm-4.99.52c-1.03.15-2.07.31-3.09.51l.96,5.14c.14-.03.27-.05.41-.07h0s.01,0,.02,0h0s.01,0,.02,0c0,0,0,0,0,0,0,0,.01,0,.02,0,0,0,0,0,0,0,0,0,.01,0,.02,0h0s.02,0,.02,0c0,0,0,0,0,0,0,0,0,0,.01,0,0,0,0,0,.01,0,0,0,0,0,0,0,0,0,.01,0,.01,0,0,0,0,0,0,0,0,0,.01,0,.02,0,0,0,0,0,0,0,0,0,0,0,.02,0,0,0,0,0,0,0,.04,0,.09-.02.13-.02,0,0,0,0,0,0,0,0,.01,0,.02,0,0,0,0,0,0,0,.53-.09,1.07-.18,1.61-.26,0,0,0,0,0,0,0,0,.01,0,.02,0,0,0,0,0,0,0,0,0,.01,0,.02,0,0,0,0,0,0,0,0,0,.01,0,.02,0,0,0,0,0,0,0,0,0,.01,0,.02,0,0,0,0,0,0,0,.02,0,.04,0,.05,0,0,0,0,0,.01,0,0,0,0,0,.01,0,0,0,0,0,.01,0,0,0,0,0,.01,0,0,0,0,0,.01,0,0,0,0,0,0,0,0,0,.01,0,.02,0,0,0,0,0,0,0,0,0,.01,0,.02,0,0,0,0,0,0,0,0,0,.02,0,.02,0h0s.07-.01.1-.01h0s.04,0,.06,0l-.73-5.18h0Zm-4.94.87c-1.02.22-2.04.46-3.05.72l1.32,5.06s.09-.02.13-.03h0s.01,0,.02,0h0s.01,0,.02,0c0,0,0,0,0,0,0,0,0,0,.02,0,0,0,0,0,0,0,0,0,0,0,.02,0,0,0,0,0,0,0,0,0,0,0,.01,0,.02,0,.03,0,.05-.01,0,0,0,0,0,0,0,0,.01,0,.02,0,0,0,0,0,0,0,0,0,.01,0,.02,0h0s.01,0,.02,0h0s.01,0,.02,0h0s.02,0,.02,0h0c.06-.01.11-.03.17-.04h0c.11-.03.23-.06.35-.09h0s.01,0,.02,0h0s.01,0,.02,0c0,0,0,0,0,0h.02s0,0,0,0c.02,0,.05-.01.07-.02h0s.01,0,.02,0c0,0,0,0,0,0h.02s0,0,0,0c0,0,.01,0,.02,0,0,0,0,0,0,0,0,0,.01,0,.01,0,0,0,0,0,0,0,0,0,.01,0,.01,0,0,0,0,0,0,0,0,0,.01,0,.02,0,0,0,0,0,0,0,0,0,.02,0,.02,0,0,0,0,0,0,0,0,0,0,0,.01,0,0,0,0,0,.01,0,0,0,0,0,.01,0,0,0,0,0,.01,0,0,0,0,0,.01,0h.01s0,0,.01,0c0,0,0,0,.01,0,0,0,0,0,0,0,0,0,0,0,.01,0h0s.01,0,.02,0c0,0,0,0,0,0,.02,0,.04,0,.06-.01,0,0,0,0,0,0,0,0,.01,0,.02,0,0,0,0,0,0,0,0,0,.01,0,.02,0,0,0,0,0,0,0,0,0,.01,0,.02,0,0,0,0,0,0,0,0,0,.01,0,.02,0,0,0,0,0,0,0,0,0,.01,0,.02,0,0,0,0,0,0,0,.05-.01.1-.02.15-.04,0,0,0,0,0,0,0,0,.01,0,.02,0,0,0,0,0,0,0,.04-.01.09-.02.13-.03,0,0,0,0,0,0,0,0,.01,0,.02,0,0,0,0,0,0,0,0,0,.01,0,.02,0,0,0,0,0,0,0,0,0,.01,0,.02,0h0s.01,0,.02,0c0,0,0,0,0,0,.02,0,.04,0,.07-.01h0s.01,0,.01,0c0,0,0,0,0,0,0,0,0,0,.01,0,0,0,0,0,.01,0,0,0,0,0,.01,0,0,0,0,0,.01,0,0,0,0,0,.01,0h.01s0,0,.01,0c0,0,0,0,.01,0,0,0,0,0,.01,0,0,0,.01,0,.02,0h0c.21-.05.42-.09.62-.14l-1.09-5.11h0Zm-4.87,1.22c-1,.29-2.01.6-2.99.94l1.67,4.95c.91-.31,1.84-.6,2.77-.87l-1.45-5.02h0Zm-4.77,1.56c-.98.36-1.96.75-2.92,1.15l2.02,4.82c.14-.06.28-.12.42-.17,0,0,0,0,0,0,.01,0,.03-.01.04-.02,0,0,0,0,0,0,.01,0,.02,0,.04-.02,0,0,0,0,0,0,.01,0,.02-.01.04-.01h0s.02-.01.03-.01c0,0,0,0,.01,0,0,0,.02,0,.03-.01h.01s.02-.01.03-.02c0,0,.01,0,.02,0,0,0,.02,0,.02-.01,0,0,.01,0,.02,0,0,0,.01,0,.02,0,0,0,.02,0,.03-.01,0,0,0,0,.01,0,.01,0,.02,0,.03-.01,0,0,0,0,.01,0,.01,0,.03-.01.04-.02,0,0,0,0,0,0,0,0,.02,0,.02,0h0s.03-.01.04-.02c0,0,0,0,0,0,.01,0,.03-.01.04-.02h0s.03-.01.04-.02h0s.08-.03.12-.05h0s.03-.01.04-.02c0,0,0,0,0,0,.01,0,.03-.01.04-.02,0,0,0,0,0,0l.04-.02h0s.05-.02.07-.03h0s.03-.01.04-.02h0s.03-.01.04-.02c0,0,0,0,0,0,.01,0,.03-.01.04-.02h0s.05-.02.07-.03c0,0,0,0,0,0,.01,0,.02,0,.04-.01h0s.02-.01.03-.02c0,0,0,0,.01,0h.04s0-.02,0-.02c.02,0,.04-.02.07-.03,0,0,0,0,0,0,.01,0,.02,0,.04-.01,0,0,0,0,.01,0,.01,0,.02,0,.03-.01,0,0,0,0,.01,0,.01,0,.02,0,.03-.01,0,0,0,0,.01,0,.01,0,.03-.01.04-.02h0s.01,0,.02,0c0,0,0,0,0,0,.01,0,.02,0,.04-.01,0,0,0,0,.01,0,.01,0,.02,0,.03-.01,0,0,0,0,0,0,.01,0,.02,0,.04-.01,0,0,0,0,0,0,.04-.01.08-.03.11-.04h0c.15-.06.3-.11.45-.17l-1.8-4.91h0Zm-4.64,1.9c-.95.43-1.9.88-2.83,1.35l2.36,4.67c.86-.44,1.74-.85,2.62-1.25l-2.15-4.77h0Zm-4.5,2.22c-.92.49-1.83,1.01-2.73,1.55l2.68,4.49c.11-.07.22-.13.33-.2h0s.1-.06.15-.09c0,0,0,0,0,0,.01,0,.02-.01.04-.02,0,0,0,0,0,0,.01,0,.02-.01.03-.02,0,0,0,0,0,0,.01,0,.02-.01.03-.02,0,0,0,0,.01,0,0,0,.01,0,.02-.01,0,0,.01,0,.02-.01,0,0,.01,0,.02-.01,0,0,0,0,.01,0,0,0,.02-.01.03-.01,0,0,.01,0,.02,0h.02s.01-.02.02-.02c0,0,.01,0,.02-.01,0,0,.01,0,.02-.01,0,0,0,0,.01,0,0,0,.02-.01.03-.02h.01s.02-.02.03-.02h.01s.02-.02.03-.02c0,0,0,0,.01,0,0,0,.02,0,.03-.01,0,0,0,0,.01,0l.03-.02s0,0,.01,0c0,0,.02-.01.03-.02,0,0,0,0,.01,0,.01,0,.02-.01.03-.02,0,0,0,0,.01,0,0,0,.02-.01.03-.02,0,0,0,0,.01,0,.01,0,.02-.01.03-.02,0,0,0,0,0,0,.01,0,.02-.01.03-.02,0,0,0,0,0,0,.01,0,.02-.01.03-.02h0s.02-.02.03-.02c0,0,0,0,0,0,.01,0,.02-.01.03-.02,0,0,0,0,0,0,.01,0,.02-.01.03-.02,0,0,0,0,0,0,.01,0,.02-.01.03-.02h0s.02-.02.03-.02h0s.02-.02.03-.02c0,0,0,0,0,0,.01,0,.02-.01.03-.02,0,0,0,0,0,0,.01,0,.02-.01.03-.02h0s.02-.02.03-.02c0,0,0,0,0,0,.01,0,.02-.01.03-.02,0,0,0,0,0,0,.01,0,.02-.01.03-.02,0,0,0,0,0,0,.01,0,.02-.01.03-.02,0,0,0,0,0,0,.01,0,.02-.01.03-.02,0,0,0,0,0,0,.01,0,.02-.01.03-.02,0,0,0,0,0,0,.01,0,.02-.01.03-.02h0s.02-.01.03-.02c0,0,0,0,0,0,.01,0,.02-.01.03-.02,0,0,0,0,0,0,.01,0,.02-.01.03-.02,0,0,0,0,0,0,.01,0,.02-.01.03-.02,0,0,0,0,0,0,.01,0,.02-.01.03-.02,0,0,0,0,0,0,0,0,.02-.01.03-.02,0,0,0,0,0,0,0,0,.02-.01.03-.02,0,0,0,0,0,0,.01,0,.02-.01.03-.02,0,0,0,0,.01,0,.01,0,.02-.01.03-.02,0,0,0,0,.01,0,0,0,.02-.01.03-.02,0,0,0,0,.01,0,.01,0,.02-.01.03-.02h0s.02-.01.03-.02c0,0,0,0,.01,0,0,0,.02,0,.03-.01,0,0,0,0,.01,0,0,0,.02-.01.03-.02,0,0,0,0,.01,0,0,0,.02-.01.03-.01,0,0,.01,0,.02,0,0,0,.02,0,.02-.01,0,0,.01,0,.02-.01,0,0,.01,0,.02,0h.01s-2.48-4.61-2.48-4.61h0Zm-4.33,2.53c-.88.56-1.76,1.14-2.61,1.74l2.99,4.29s.04-.03.06-.04h0s.03-.02.04-.03h0s.02-.02.03-.02c0,0,0,0,0,0,0,0,.01,0,.02-.01,0,0,.02-.01.02-.02,0,0,.01,0,.02-.01,0,0,.01,0,.02-.01s.01,0,.02-.01c0,0,.01,0,.02-.01,0,0,.01,0,.02-.01,0,0,.01,0,.02-.01,0,0,0,0,.01,0,0,0,.02-.01.03-.02,0,0,0,0,.01,0,.01,0,.02-.01.03-.02,0,0,0,0,0,0,.01,0,.02-.01.03-.02,0,0,0,0,0,0l.03-.02s0,0,0,0c.01,0,.02-.01.03-.02h0s.02-.02.03-.02c0,0,0,0,0,0,.01,0,.02-.02.03-.02,0,0,0,0,0,0,.01,0,.02-.02.03-.02,0,0,0,0,0,0,.01,0,.02-.01.03-.02,0,0,0,0,0,0,.01,0,.02-.02.04-.02,0,0,0,0,0,0,.02-.02.05-.03.07-.05,0,0,0,0,0,0,.01,0,.02-.02.04-.02h0s.02-.02.04-.03c0,0,0,0,0,0,.01,0,.02-.02.04-.02,0,0,0,0,0,0,.01,0,.02-.02.04-.02h0s.05-.03.07-.05c0,0,0,0,0,0,.01,0,.02-.02.03-.02,0,0,0,0,0,0l.03-.02s0,0,0,0c.01,0,.02-.01.03-.02,0,0,0,0,0,0,.02-.02.05-.03.07-.05,0,0,0,0,0,0,.01,0,.02-.02.03-.02,0,0,0,0,0,0,.01,0,.02-.01.03-.02,0,0,0,0,0,0,.01,0,.02-.01.03-.02,0,0,0,0,0,0,.01,0,.02-.01.03-.02,0,0,0,0,0,0,.01,0,.02-.01.03-.02,0,0,0,0,0,0,.01,0,.02-.01.03-.02,0,0,0,0,0,0,.01,0,.02-.01.03-.02,0,0,0,0,0,0,.01,0,.02-.01.03-.02,0,0,0,0,0,0,0,0,.02-.01.03-.02,0,0,0,0,.01,0,0,0,.02-.01.03-.02,0,0,0,0,.01,0,0,0,.01,0,.02-.02,0,0,.01,0,.02,0,0,0,.02-.01.02-.01,0,0,0,0,.01,0,0,0,.02-.01.03-.02,0,0,0,0,.01,0,0,0,.02-.01.03-.02,0,0,0,0,.01,0,0,0,.02-.01.03-.02,0,0,.01,0,.02,0,0,0,.01,0,.02-.01h.02s.01-.02.02-.02c0,0,.02-.01.02-.01,0,0,0,0,.01,0,0,0,.02-.01.02-.02,0,0,.01,0,.02-.01,0,0,.01,0,.02-.01,0,0,.01,0,.02-.01,0,0,.01,0,.02-.01,0,0,.01,0,.02-.01,0,0,.02-.01.02-.02,0,0,0,0,.01,0,0,0,.02-.01.03-.02,0,0,0,0,.01,0,0,0,.02-.01.03-.02,0,0,0,0,.01,0,.01,0,.02-.01.03-.02,0,0,0,0,0,0,0,0,.02-.01.03-.02,0,0,0,0,.01,0,0,0,.01,0,.02-.01,0,0,0,0,0,0,.01,0,.02-.01.03-.02,0,0,0,0,0,0,.01,0,.02-.01.03-.02,0,0,0,0,0,0,.01,0,.02-.01.03-.02,0,0,0,0,0,0,.01,0,.02-.01.03-.02,0,0,0,0,0,0l.06-.04s0,0,0,0c0,0,.02,0,.02-.01l-2.8-4.42h0Zm-4.14,2.83c-.84.62-1.67,1.26-2.48,1.91l3.28,4.07.05-.04s0,0,0,0c0,0,.02-.02.03-.02,0,0,0,0,.01,0,0,0,.02-.01.02-.02,0,0,0,0,.01-.01,0,0,.01-.01.02-.02s.01,0,.02-.01c0,0,0,0,.01-.01,0,0,.02-.01.03-.02,0,0,0,0,.01,0,0,0,.02-.01.03-.02,0,0,0,0,0,0,0,0,.02-.01.03-.02,0,0,0,0,0,0,0,0,.02-.02.03-.02,0,0,0,0,0,0,.01,0,.02-.02.03-.03h0s.02-.02.03-.03c0,0,0,0,0,0,.01,0,.02-.02.03-.03,0,0,0,0,0,0,.01,0,.02-.02.03-.03h0c.6-.48,1.22-.95,1.84-1.41l-3.1-4.21h0Zm-3.93,3.11c-.79.67-1.58,1.37-2.34,2.08l3.56,3.83c.19-.18.37-.35.57-.52,0,0,0,0,0,0,0,0,.02-.02.03-.03h0s.02-.02.03-.03c0,0,0,0,.01,0,0,0,.02-.01.02-.02,0,0,0,0,.01-.01,0,0,.01,0,.02-.02s.01-.01.02-.02c0,0,0,0,.01-.01,0,0,.02-.02.03-.02,0,0,0,0,0,0,.01,0,.02-.02.03-.03,0,0,0,0,0,0,.3-.27.6-.54.91-.8,0,0,0,0,0,0,.01,0,.02-.02.03-.03,0,0,0,0,0,0,0,0,.02-.01.03-.02,0,0,0,0,.01,0,0,0,.01-.01.02-.02,0,0,.01,0,.02-.01,0,0,0,0,.01-.01,0,0,.02-.01.02-.02h.01s.02-.02.02-.03c0,0,0,0,0,0,0,0,.02-.02.03-.02,0,0,0,0,0,0,0,0,.02-.02.03-.03,0,0,0,0,0,0,.07-.06.14-.12.21-.18l-3.39-3.98h0Zm-3.7,3.38c-.74.73-1.48,1.48-2.19,2.24l3.82,3.57h0s.02-.02.03-.03h0c.35-.37.71-.75,1.07-1.11,0,0,0,0,0,0,.01-.01.02-.02.03-.03h0s.02-.02.03-.03c0,0,0,0,0,0,0,0,.02-.02.03-.03,0,0,0,0,0,0,0,0,.02-.02.02-.02,0,0,0,0,0,0,0,0,.01-.01.02-.02,0,0,0,0,.01-.01l.02-.02s.01-.01.02-.02c0,0,.01-.01.02-.02s.01-.01.02-.02l.02-.02s0,0,.01-.01c0,0,0,0,.01-.01,0,0,.02-.02.02-.02h0s.02-.02.03-.03h0s.02-.02.03-.04h0c.19-.19.37-.37.56-.56l-3.66-3.73h0Zm-3.45,3.63c-.69.78-1.37,1.58-2.03,2.39l4.06,3.29s0,0,0,0c0,0,.01-.02.02-.02,0,0,0,0,.01-.01,0,0,.01-.01.02-.02,0,0,0-.01.01-.02,0,0,0,0,.01-.01,0,0,.01-.02.02-.02,0,0,0,0,0-.01,0,0,.02-.02.02-.03,0,0,0,0,0,0,0-.01.02-.02.02-.03,0,0,0,0,0,0,.04-.04.07-.09.11-.13h0s.02-.03.03-.04h0c.1-.13.21-.25.32-.38h0s.02-.03.03-.04h0s.07-.09.11-.13c0,0,0,0,0,0,0-.01.02-.02.03-.03,0,0,0,0,0,0,0,0,.02-.02.02-.03,0,0,0,0,0,0,0,0,.01-.02.02-.02,0,0,0,0,.01-.01,0,0,.01-.01.02-.02,0,0,0,0,.01-.01,0,0,0-.01.01-.02,0,0,.01-.01.02-.02,0,0,0-.01.01-.02,0,0,0,0,.01-.01,0,0,.01-.01.02-.02,0,0,0-.01.01-.02,0,0,.01-.01.02-.02s0,0,.01-.02c0,0,.01-.01.02-.02,0,0,0-.01.01-.02,0,0,0,0,.01-.01,0,0,.01-.02.02-.02,0,0,0,0,.01-.01,0,0,.01-.01.02-.02,0,0,0,0,0-.01,0,0,.02-.02.02-.03,0,0,0,0,0,0,0,0,.01-.02.02-.02,0,0,0,0,.01-.01,0,0,.01-.02.02-.02,0,0,0,0,0,0,0,0,.01-.02.02-.03,0,0,0,0,0,0,0,0,.02-.02.02-.03,0,0,0,0,0,0,0,0,.01-.02.02-.03h0s.02-.03.02-.04c0,0,0,0,0,0,0,0,.01-.02.02-.03,0,0,0,0,0,0,0,0,.01-.02.02-.03,0,0,0,0,0,0,0,0,.02-.02.02-.03,0,0,0,0,0,0,0,0,.02-.02.02-.03,0,0,0,0,0,0,0,0,.01-.02.02-.03,0,0,0,0,0-.01,0,0,.02-.02.02-.03,0,0,0,0,0,0,0,0,.01-.01.02-.02,0,0,0,0,.01-.01,0,0,.01-.01.02-.02,0,0,0,0,.01-.01,0,0,.01-.01.02-.02,0,0,0,0,.01-.01,0,0,.01-.01.02-.02,0,0,0,0,.01-.01,0,0,.01-.01.02-.02,0,0,0-.01.01-.02,0,0,0,0,.01-.01,0,0,.01-.02.02-.02,0,0,0,0,0,0,0,0,.02-.02.03-.03h0s.02-.03.03-.04h0c.04-.05.09-.1.13-.15l-3.91-3.47h0Zm-3.19,3.86c-.63.82-1.26,1.67-1.85,2.53l4.28,3c.25-.35.5-.7.75-1.05h0s.02-.03.03-.04c0,0,0,0,0,0,0-.01.02-.02.02-.03,0,0,0,0,0,0,0,0,.01-.02.02-.03,0,0,0,0,0-.01,0,0,.01-.01.02-.02,0,0,0-.01.01-.02v-.02s.02-.02.03-.02c0,0,0,0,.01-.01,0,0,0-.01.01-.02,0,0,0-.01.01-.02,0,0,0-.01.01-.02,0,0,0-.01.01-.02,0,0,.01-.01.02-.02,0,0,0,0,0-.01,0,0,.01-.02.02-.03h0s.01-.03.02-.04c0,0,0,0,0-.01,0,0,.01-.02.02-.03,0,0,0,0,0,0,0,0,.01-.02.02-.03,0,0,0,0,0,0,0-.01.01-.02.02-.03,0,0,0,0,0,0,0,0,.01-.02.02-.03,0,0,0,0,0,0,0,0,.02-.02.02-.03,0,0,0,0,0,0,0-.01.01-.02.02-.03,0,0,0,0,0,0,0-.01.01-.02.02-.03,0,0,0,0,0,0,0,0,.01-.02.02-.03,0,0,0,0,0,0,0-.01.01-.02.02-.03,0,0,0,0,0,0,0,0,.01-.02.02-.03,0,0,0,0,0,0,0,0,.01-.02.02-.03,0,0,0,0,0-.01,0-.01.01-.02.02-.03,0,0,0,0,0-.01,0,0,.01-.02.02-.03,0,0,0,0,0-.01,0,0,.01-.02.02-.02,0,0,0,0,.01-.01,0,0,.01-.01.02-.02,0,0,0-.01.01-.02v-.02s.02-.01.03-.02c0,0,0-.01.01-.02,0,0,.01-.02.02-.03,0,0,0,0,0-.01,0,0,0-.01.01-.02,0,0,0,0,0,0,0-.01.02-.02.03-.03h0c.05-.07.1-.14.15-.2l-4.14-3.19h0Zm-2.91,4.08c-.57.87-1.14,1.76-1.67,2.65l4.48,2.69c.16-.26.31-.52.47-.78,0,0,0,0,0,0,.02-.04.05-.07.07-.11,0,0,0,0,0,0,0-.01.01-.02.02-.03,0,0,0,0,0,0,0-.01.01-.02.02-.03,0,0,0,0,0,0,0-.01.01-.02.02-.03,0,0,0,0,0,0,0-.01.01-.02.02-.03,0,0,0,0,0,0,0,0,.01-.02.02-.03h0s0-.03.02-.04c0,0,0,0,0-.01,0,0,.01-.02.02-.03h0s.01-.03.02-.04c0,0,0-.01,0-.01,0,0,0-.01.01-.02,0,0,0-.01.01-.02,0,0,0-.01.01-.02,0,0,.01-.02.01-.02,0,0,0-.01,0-.01,0,0,.01-.02.02-.03,0,0,0,0,0-.01,0,0,.01-.02.02-.03,0,0,0,0,0-.01.01-.02.03-.04.04-.06,0,0,0,0,0,0l.02-.03s0,0,0,0c0-.01.01-.02.02-.03,0,0,0,0,0,0,0-.01.02-.02.02-.04,0,0,0,0,0,0,0-.01.02-.03.02-.04h0s0-.02.01-.02c0,0,0,0,0,0,0-.01.02-.02.02-.04,0,0,0,0,0,0,0-.01.02-.02.02-.04,0,0,0,0,0,0,0-.01.02-.02.02-.04,0,0,0,0,0,0,0-.01.02-.02.02-.04,0,0,0,0,0,0,.02-.03.04-.07.07-.1h0s.02-.03.02-.04c0,0,0,0,0,0,0-.01.01-.02.02-.03,0,0,0,0,0,0,0-.01.01-.02.02-.03,0,0,0,0,0,0,0-.01.01-.02.02-.03,0,0,0,0,0,0v-.02s.02,0,.02-.01l.02-.03s0,0,0-.01c0,0,.01-.02.02-.03,0,0,0,0,0-.01,0,0,.01-.02.02-.02,0,0,0-.01.01-.02,0,0,0-.01.01-.02,0,0,0-.01.02-.02,0,0,0,0,0-.01,0,0,.01-.02.02-.03,0,0,0,0,0-.01,0,0,.01-.02.02-.03,0,0,0,0,0-.01,0,0,.01-.02.02-.03h0s.01-.03.02-.04c0,0,0,0,0,0,0-.01.01-.02.02-.03,0,0,0,0,0,0l-4.36-2.89h0Zm-2.62,4.28c-.51.91-1.01,1.84-1.48,2.76l4.66,2.37c.25-.49.5-.97.76-1.45,0,0,0,0,0,0,0-.01.01-.03.02-.04,0,0,0,0,0,0,0-.01.01-.02.02-.04,0,0,0,0,0,0,0-.01.01-.02.02-.03,0,0,0,0,0,0,0,0,.01-.02.02-.03,0,0,0,0,0-.01,0,0,0-.02.01-.03,0,0,0,0,0-.01,0,0,0-.02.01-.03,0,0,0,0,0-.01,0,0,0-.02.01-.03,0,0,0-.01,0-.02,0,0,0-.01,0-.02,0,0,0-.02.01-.03,0,0,0,0,0,0,0-.01.01-.02.02-.04h0c.13-.25.27-.49.41-.74l-4.55-2.57h0Zm-2.31,4.45c-.45.94-.88,1.9-1.28,2.86l4.82,2.03c.07-.17.15-.35.22-.52,0,0,0,0,0,0,0-.01.01-.02.02-.04,0,0,0,0,0-.01,0,0,0-.02.01-.03,0,0,0-.01,0-.02,0,0,0-.01,0-.02,0,0,0-.02.01-.03,0,0,0,0,0-.01,0-.01,0-.02.01-.03,0,0,0,0,0,0,0-.01.01-.02.02-.04,0,0,0,0,0,0,.01-.03.02-.05.04-.08,0,0,0,0,0,0,.16-.37.33-.75.5-1.11,0,0,0,0,0,0,0-.01.01-.02.02-.04,0,0,0,0,0,0,0-.01,0-.02.02-.03h0s.01-.03.01-.04c0,0,0,0,0-.01,0,0,0-.02.01-.02,0,0,0-.01,0-.02,0,0,0-.01,0-.02v-.02s.02-.01.02-.02c0,0,0-.01,0-.02h0c.07-.15.14-.29.21-.44l-4.72-2.24h0Zm-1.99,4.6c-.38.97-.74,1.96-1.08,2.95l4.95,1.69c.05-.14.09-.27.14-.41h0s.01-.03.02-.05h0s.01-.03.02-.05h0s0-.02,0-.02c0,0,0-.01,0-.02,0,0,0-.02,0-.03,0,0,0-.01,0-.02,0,0,0-.02,0-.02s0-.01,0-.02c0,0,0-.01,0-.02,0,0,0-.02,0-.02,0,0,0-.01,0-.02,0,0,0-.02.01-.03,0,0,0,0,0-.01,0,0,0-.02.01-.03,0,0,0,0,0-.01,0-.01,0-.02.01-.03,0,0,0,0,0,0,0-.01,0-.02.01-.03,0,0,0,0,0,0,0-.01,0-.02.01-.04,0,0,0,0,0,0,0-.01,0-.02.01-.04,0,0,0,0,0,0,0-.01,0-.03.01-.04,0,0,0,0,0,0,0-.01.01-.03.01-.04,0,0,0,0,0,0,0-.01,0-.03.01-.04,0,0,0,0,0,0,0-.01.01-.03.01-.04,0,0,0,0,0,0,0-.01,0-.03.01-.04,0,0,0,0,0,0,0-.01.01-.03.02-.04h0c.19-.51.38-1.02.58-1.53l-4.87-1.9h0Zm-1.66,4.73c-.31.99-.6,2.01-.87,3.01l5.05,1.33c.09-.35.19-.7.29-1.05h0c.02-.06.03-.11.05-.17,0,0,0,0,0,0,0,0,0-.01,0-.01,0,0,0,0,0,0,0,0,0-.01,0-.01,0,0,0,0,0,0,0,0,0,0,0-.01,0,0,0,0,0-.01,0,0,0,0,0-.01,0,0,0,0,0-.01,0,0,0,0,0,0,0-.02.01-.05.02-.07h0s0-.02,0-.02h0s0-.02,0-.02h0s0-.02,0-.02h0s0-.02,0-.02h0c.09-.33.19-.65.29-.97,0,0,0,0,0,0,0,0,0-.01,0-.02,0,0,0,0,0,0,0,0,0-.01,0-.02,0,0,0,0,0,0,0,0,0-.01,0-.02,0,0,0,0,0,0,0,0,0,0,0-.01,0-.02.01-.03.02-.05,0,0,0,0,0,0,0,0,0-.01,0-.02h0c.02-.05.03-.1.05-.15l-4.99-1.55h0Zm-1.32,4.84c-.24,1.01-.46,2.04-.65,3.07l5.14.97c.08-.42.16-.83.25-1.25,0,0,0,0,0,0,0,0,0-.01,0-.02,0,0,0,0,0,0,0,0,0-.01,0-.02,0,0,0,0,0,0,0,0,0,0,0-.01,0,0,0-.01,0-.02,0,0,0,0,0,0,.11-.5.22-1.01.34-1.51l-5.09-1.2h0Zm-.97,4.92c-.17,1.03-.31,2.07-.43,3.1l5.19.6s0-.07.01-.1c0,0,0,0,0,0,0,0,0,0,0-.01,0,0,0-.01,0-.02,0,0,0,0,0,0,0,0,0-.01,0-.02h0s0-.02,0-.03h0s0-.02,0-.03h0c.05-.4.1-.79.15-1.18,0,0,0,0,0,0,0,0,0-.01,0-.02,0,0,0,0,0,0,0,0,0-.01,0-.02,0,0,0,0,0-.01,0,0,0,0,0-.01s0,0,0-.01c0,0,0,0,0,0,0-.03,0-.06.01-.08h0c.06-.43.13-.87.2-1.3l-5.16-.83h0Zm-.62,4.97c-.09,1.03-.16,2.09-.21,3.13l5.22.24c.02-.47.05-.94.08-1.41h0s0-.02,0-.03h0s0-.02,0-.02h0s0-.02,0-.03h0s0-.02,0-.03h0s0-.02,0-.03c0,0,0,0,0,0,0,0,0-.01,0-.02,0,0,0,0,0-.01,0,0,0,0,0-.01,0,0,0,0,0-.01,0,0,0,0,0-.01,0,0,0,0,0-.01h0s0-.02,0-.03c0,0,0,0,0,0,.03-.41.06-.83.1-1.24l-5.21-.47H.29ZM.01,69.71c0,.48-.01.96-.01,1.44,0,.56,0,1.13.02,1.69l5.23-.12c0-.34-.01-.69-.02-1.03h0s0-.02,0-.03h0s0-.02,0-.03h0s0-.02,0-.03h0v-.03s0,0,0,0v-.02h0s0-.02,0-.03h0v-.03h0s0-.05,0-.08h0v-.03h0s0-.02,0-.03h0v-.03h0v-.03h0v-.03s0,0,0-.01h0v-.04h0v-.03h0v-.03h0v-.03h0v-.04h0v-.05h0v-.04h0s0-.03,0-.04h0v-.04h0s0-.03,0-.04h0s0-.06,0-.08h0c0-.34,0-.67.01-1.01l-5.23-.1H.01Zm5.29,4.75l-5.22.26c.05,1.04.13,2.09.22,3.12l5.2-.49c-.09-.96-.16-1.93-.21-2.9h0Zm.39,4.63l-5.19.62c.12,1.03.27,2.08.44,3.1l5.16-.85c-.11-.68-.21-1.37-.31-2.05h0s0-.02,0-.03h0s0-.05-.01-.08t0,0s0-.01,0-.02c0,0,0,0,0,0,0,0,0,0,0-.01,0,0,0,0,0-.01,0,0,0,0,0-.01,0,0,0,0,0-.01,0,0,0,0,0-.01,0,0,0,0,0-.01,0,0,0,0,0,0-.03-.2-.05-.4-.08-.61h0Zm.72,4.59l-5.13.99c.2,1.02.42,2.05.66,3.07l5.08-1.21c-.19-.79-.36-1.58-.52-2.38h0s0-.02,0-.02h0s0-.02,0-.02h0s0-.02,0-.02c0,0,0,0,0,0,0,0,0-.02,0-.02,0,0,0,0,0,0,0,0,0-.01,0-.02,0,0,0-.01,0-.02,0,0,0,0,0,0,0,0,0-.01,0-.02,0,0,0,0,0,0,0,0,0-.01,0-.02,0,0,0,0,0,0-.02-.09-.03-.18-.05-.27h0Zm1.04,4.53l-5.05,1.35c.27,1.01.56,2.02.88,3.01l4.99-1.57c-.24-.76-.47-1.53-.68-2.31,0,0,0,0,0,0,0,0,0,0,0-.01,0,0,0,0,0-.01,0,0,0,0,0,0,0,0,0-.01,0-.02,0,0,0,0,0,0,0,0,0-.01,0-.02,0,0,0,0,0,0-.04-.13-.07-.26-.11-.39h0Zm1.36,4.44l-4.94,1.7c.34.98.71,1.97,1.09,2.94l4.86-1.92s0-.01,0-.02c0,0,0,0,0,0v-.03s-.02-.01-.02-.02c0,0,0-.01,0-.02,0,0,0-.02-.01-.03,0,0,0-.01,0-.02,0,0,0-.02-.01-.03,0,0,0,0,0-.01,0,0,0-.02-.01-.03,0,0,0,0,0,0,0-.01-.01-.03-.01-.04h0s0-.03-.01-.04c0,0,0,0,0,0,0-.01-.01-.03-.02-.04,0,0,0,0,0,0-.31-.79-.6-1.58-.87-2.39h0Zm1.67,4.34l-4.81,2.05c.41.96.84,1.92,1.29,2.86l4.71-2.26c-.42-.87-.82-1.75-1.2-2.65h0Zm1.97,4.21l-4.65,2.39c.47.93.98,1.85,1.49,2.76l4.54-2.59s0,0,0-.01c0,0,0-.01-.01-.02,0,0,0-.02-.01-.02,0,0,0,0,0-.01,0,0-.01-.02-.02-.03,0,0,0,0,0-.01,0-.01-.01-.02-.02-.03,0,0,0,0,0,0-.01-.02-.02-.04-.04-.06,0,0,0,0,0,0,0-.01-.01-.02-.02-.04h0s-.01-.03-.02-.04h0c-.03-.05-.06-.1-.08-.15h0c-.04-.08-.09-.16-.13-.24h0s-.02-.03-.02-.04h0c-.03-.05-.06-.1-.08-.15h0s-.01-.03-.02-.04c0,0,0,0,0,0,0-.01-.01-.02-.02-.04h0s-.01-.03-.02-.04c0,0,0,0,0,0,0,0,0-.01-.01-.02,0,0,0-.01-.01-.02,0,0,0-.01-.01-.02,0,0,0-.01,0-.01,0,0-.01-.02-.01-.03,0,0,0,0,0-.01,0,0,0-.02-.01-.03,0,0,0-.01,0-.02v-.02s-.02-.01-.02-.02c0,0,0-.01-.01-.02,0,0,0-.01-.01-.02v-.02s-.02-.02-.02-.02c0,0,0-.01,0-.02,0,0,0-.01-.01-.02,0,0,0-.01-.01-.02,0,0,0-.01-.01-.02,0,0,0-.01-.01-.02v-.02s-.02-.01-.02-.02c0,0,0-.02-.01-.02,0,0,0,0,0-.01,0,0,0-.02-.01-.03,0,0,0,0,0-.01,0,0,0-.02-.01-.03,0,0,0,0,0-.01,0,0,0-.01-.01-.02,0,0,0-.01-.01-.02,0,0,0-.01-.01-.02,0,0,0-.01-.01-.02,0,0,0-.01-.01-.02,0,0,0,0,0-.01,0,0,0-.02-.01-.03,0,0,0-.01,0-.01,0,0,0-.02-.01-.03,0,0,0-.01,0-.02,0,0,0-.02-.01-.02v-.02s-.02-.01-.02-.02c0,0,0-.01-.01-.02,0,0,0-.01,0-.02,0,0,0-.02-.01-.02,0,0,0-.01,0-.02,0,0,0-.02-.01-.02v-.02s-.02-.01-.02-.02c0,0,0,0,0-.01l-.02-.03s0,0,0,0c0-.01-.01-.02-.02-.03h0s-.01-.03-.02-.05h0c-.08-.15-.16-.31-.24-.46h0Zm2.26,4.06l-4.47,2.71c.54.89,1.1,1.78,1.68,2.64l4.35-2.9s0,0,0,0c0,0,0-.01-.01-.02,0,0,0-.01-.01-.02v-.02s-.02-.01-.03-.02c0,0,0-.01-.01-.02,0,0,0-.01-.01-.02,0,0-.01-.02-.02-.02,0,0,0-.01-.01-.02,0,0-.01-.02-.02-.02,0,0,0-.01-.01-.02,0,0,0,0,0-.01,0,0-.01-.02-.02-.03,0,0,0,0,0-.01,0,0-.01-.02-.02-.03,0,0,0,0,0-.01,0-.01-.01-.02-.02-.03,0,0,0,0,0,0,0,0-.01-.02-.02-.03,0,0,0,0,0-.01,0,0,0-.01-.01-.02,0,0,0,0,0,0,0-.01-.01-.02-.02-.03,0,0,0,0,0,0,0-.01-.01-.02-.02-.03,0,0,0,0,0,0,0-.01-.01-.02-.02-.03,0,0,0,0,0,0,0-.01-.02-.02-.02-.04h0s-.04-.07-.07-.1c0,0,0,0,0,0,0-.01-.02-.02-.02-.04,0,0,0,0,0,0,0-.01-.02-.02-.02-.04h0s-.04-.07-.07-.11c0,0,0,0,0,0,0-.01-.02-.02-.02-.04,0,0,0,0,0,0,0-.01-.02-.02-.02-.04,0,0,0,0,0,0,0-.01-.01-.02-.02-.03,0,0,0,0,0,0,0-.01-.01-.02-.02-.03,0,0,0,0,0,0-.01-.02-.03-.04-.04-.06h0s-.02-.03-.02-.04c0,0,0,0,0,0,0-.01-.02-.02-.02-.04,0,0,0,0,0,0,0-.01-.02-.02-.02-.04,0,0,0,0,0,0-.02-.03-.04-.07-.06-.1,0,0,0,0,0,0,0-.01-.01-.02-.02-.03,0,0,0,0,0,0l-.02-.03s0,0,0,0c0-.01-.01-.02-.02-.03,0,0,0,0,0,0,0-.01-.02-.02-.02-.04,0,0,0,0,0,0,0,0,0-.01-.01-.02h0s-.02-.03-.02-.04c0,0,0,0,0,0,0-.01-.01-.02-.02-.03,0,0,0,0,0,0,0-.01-.01-.02-.02-.03,0,0,0,0,0,0,0-.01-.01-.02-.02-.03,0,0,0,0,0,0-.01-.02-.03-.04-.04-.06,0,0,0,0,0,0,0-.01-.01-.02-.02-.03,0,0,0,0,0,0,0-.01-.01-.02-.02-.03,0,0,0,0,0,0,0-.01-.01-.02-.02-.03,0,0,0,0,0,0,0-.01-.01-.02-.02-.03,0,0,0,0,0,0-.01-.02-.03-.04-.04-.06h0s-.02-.03-.02-.04c0,0,0,0,0,0,0-.01-.01-.02-.02-.04,0,0,0,0,0,0,0-.01-.02-.02-.02-.04h0c-.07-.12-.15-.25-.22-.37h0Zm2.54,3.89l-4.27,3.02c.6.85,1.23,1.7,1.86,2.52l4.13-3.2s0,0,0,0c0,0-.01-.02-.02-.02,0,0,0,0,0-.01,0,0-.01-.02-.02-.03,0,0,0,0,0,0,0,0-.02-.02-.02-.03,0,0,0,0,0,0,0-.01-.02-.02-.02-.03,0,0,0,0,0,0,0-.01-.02-.02-.03-.03,0,0,0,0,0,0-.01-.01-.02-.02-.03-.04h0c-.33-.43-.66-.87-.98-1.31h0s-.02-.02-.03-.04c0,0,0,0,0,0,0-.01-.02-.02-.02-.03,0,0,0,0,0,0,0-.01-.02-.02-.02-.03h0s-.01-.02-.02-.03c0,0,0,0,0,0,0-.01-.01-.02-.02-.03,0,0,0,0,0-.01,0,0-.01-.02-.02-.03,0,0,0,0-.01-.01,0,0-.01-.02-.02-.02,0,0,0-.01-.01-.02,0,0,0,0-.01-.01,0,0-.01-.02-.02-.03,0,0,0,0,0,0,0-.01-.02-.02-.02-.03h0c-.11-.16-.22-.31-.33-.46h0Zm2.81,3.7l-4.05,3.31c.66.8,1.34,1.61,2.03,2.38l3.9-3.48s-.04-.04-.06-.07c0,0,0,0,0,0,0-.01-.02-.02-.03-.03h0s-.02-.02-.03-.03c0,0,0,0,0,0,0-.01-.02-.02-.03-.03h0s-.02-.02-.03-.03h0s-.02-.02-.02-.03c0,0,0,0,0,0,0,0-.01-.02-.02-.02,0,0,0,0,0-.01,0,0-.01-.02-.02-.02,0,0,0,0-.01-.01,0,0-.01-.01-.02-.02,0,0-.01-.01-.01-.02,0,0,0,0-.01-.02,0,0-.01-.01-.02-.02,0,0,0,0-.01-.01,0,0-.01-.02-.02-.02,0,0,0,0-.01-.01,0,0,0-.01-.01-.02,0,0-.01-.01-.02-.02,0,0,0-.01-.01-.02,0,0,0,0,0-.01,0,0-.02-.02-.02-.03,0,0,0,0,0,0l-.02-.03s0,0,0,0c0,0-.02-.02-.02-.03,0,0,0,0,0,0,0,0-.02-.02-.03-.03,0,0,0,0,0,0-.01-.01-.02-.02-.03-.04h0s-.01-.01-.02-.02h0s-.02-.02-.03-.04c0,0,0,0,0,0,0,0-.02-.02-.02-.03,0,0,0,0,0,0,0,0-.02-.02-.02-.03,0,0,0,0,0,0,0,0-.02-.02-.03-.03,0,0,0,0,0,0,0,0-.02-.02-.02-.03,0,0,0,0,0,0v-.02s-.02,0-.03-.01c0,0-.01-.01-.02-.02,0,0,0,0,0-.01,0,0-.01-.02-.02-.02,0,0,0,0-.01-.01,0,0-.01-.02-.02-.02,0,0,0,0-.01-.01,0,0-.01-.01-.02-.02,0,0,0-.01-.01-.02h-.01s-.01-.03-.02-.04c0,0,0,0-.01-.01,0,0-.01-.02-.02-.02,0,0,0,0-.01-.01,0,0-.01-.01-.02-.02,0,0,0-.01-.01-.01,0,0-.01-.01-.02-.02,0,0,0,0-.01-.01,0,0-.01-.01-.02-.02,0,0,0,0,0-.01,0,0-.01-.02-.02-.03,0,0,0,0,0,0,0,0-.01-.02-.02-.03,0,0,0,0,0,0,0,0-.02-.02-.02-.03,0,0,0,0,0,0,0,0-.02-.02-.02-.03,0,0,0,0,0,0,0,0-.02-.02-.03-.03,0,0,0,0,0,0,0-.01-.02-.02-.03-.03,0,0,0,0,0,0,0-.01-.02-.02-.03-.03h0s-.02-.02-.03-.03c0,0,0,0,0,0,0-.01-.02-.02-.03-.03,0,0,0,0,0,0-.18-.22-.37-.44-.55-.66h0Zm3.06,3.49l-3.81,3.58c.71.76,1.45,1.51,2.2,2.23l3.65-3.75s0,0,0,0c0,0-.02-.02-.03-.03,0,0,0,0,0,0,0,0-.02-.02-.03-.03,0,0,0,0,0,0,0,0-.02-.02-.03-.03h0s-.02-.02-.03-.03c0,0,0,0,0,0,0,0-.02-.02-.03-.03,0,0,0,0,0,0,0,0-.02-.02-.03-.03,0,0,0,0,0,0,0,0-.02-.02-.03-.03h0s-.02-.02-.03-.03c0,0,0,0,0,0,0,0-.02-.02-.02-.02,0,0,0,0,0,0,0,0-.02-.02-.03-.03,0,0,0,0,0,0,0,0-.02-.02-.02-.02h0s-.02-.02-.03-.03c0,0,0,0,0,0l-.03-.03s0,0,0,0c0,0-.02-.02-.03-.02,0,0,0,0,0,0,0,0-.02-.02-.03-.02,0,0,0,0,0,0,0,0-.02-.02-.03-.03h0s-.02-.02-.02-.03c0,0,0,0,0,0,0,0-.02-.02-.02-.02h0s-.02-.02-.03-.03c0,0,0,0,0,0,0,0-.02-.02-.03-.03,0,0,0,0,0,0,0,0-.02-.02-.03-.03,0,0,0,0,0,0,0,0-.02-.02-.03-.03,0,0,0,0,0,0,0,0-.02-.02-.03-.03h0s-.02-.02-.03-.03h0s-.02-.02-.03-.03c0,0,0,0,0,0l-.03-.03h0s-.02-.02-.03-.03h0s-.02-.02-.03-.03c0,0,0,0,0,0,0,0-.02-.02-.03-.03h0s-.02-.02-.03-.03c0,0,0,0,0,0,0,0-.02-.02-.03-.03,0,0,0,0,0,0,0,0-.02-.02-.03-.03,0,0,0,0,0,0,0,0-.02-.02-.03-.03h0s-.02-.02-.03-.03c0,0,0,0,0,0-.02-.02-.04-.04-.06-.06h0s-.02-.02-.03-.03c0,0,0,0,0,0-.01-.01-.02-.02-.03-.03,0,0,0,0,0,0-.01-.01-.02-.02-.03-.03,0,0,0,0,0,0-.01-.01-.02-.02-.03-.03h0c-.25-.26-.5-.52-.75-.79h0Zm3.3,3.27l-3.55,3.84c.76.71,1.55,1.4,2.35,2.07l3.38-3.99s-.01-.01-.02-.02h0s-.09-.08-.13-.11h0c-.15-.13-.3-.26-.45-.39h0c-.06-.05-.11-.1-.17-.15h0s-.02-.02-.04-.03h0s-.09-.08-.13-.11t0,0s-.02-.02-.03-.03c0,0,0,0,0,0,0,0-.02-.02-.03-.03,0,0,0,0,0,0,0,0-.02-.02-.03-.02,0,0,0,0,0,0,0,0-.02-.02-.03-.02,0,0,0,0,0,0,0,0-.01,0-.02-.01,0,0-.01-.01-.02-.02,0,0-.01,0-.02-.01,0,0,0,0-.02-.01,0,0-.01-.01-.02-.02,0,0-.01-.01-.02-.02,0,0-.01,0-.02-.01,0,0-.01-.01-.02-.02,0,0-.01,0-.02-.01,0,0-.01-.01-.02-.02,0,0,0,0-.01-.01,0,0-.02-.01-.02-.02,0,0,0,0-.01,0,0,0-.02-.01-.02-.02,0,0,0,0,0,0,0,0-.02-.02-.03-.02,0,0,0,0,0,0,0,0-.02-.02-.03-.02,0,0,0,0,0,0,0,0-.02-.02-.03-.03,0,0,0,0,0,0-.01,0-.02-.02-.03-.03,0,0,0,0,0,0-.01,0-.02-.02-.03-.03,0,0,0,0,0,0-.01,0-.02-.02-.03-.03h0c-.21-.19-.43-.39-.64-.58h0Zm3.52,3.03l-3.27,4.08c.81.65,1.65,1.29,2.49,1.91l3.09-4.22c-.74-.54-1.47-1.1-2.18-1.67h0s-.02-.02-.03-.03c0,0,0,0,0,0,0,0-.02-.01-.02-.02,0,0-.01,0-.01-.01,0,0-.01,0-.01-.01,0,0-.02-.01-.02-.02,0,0,0,0,0,0h0Zm3.73,2.78l-2.97,4.3c.86.59,1.74,1.17,2.62,1.73l2.78-4.43c-.22-.14-.44-.28-.65-.41h0s-.02-.02-.04-.02c0,0,0,0,0,0-.01,0-.02-.02-.04-.02,0,0,0,0,0,0-.01,0-.02-.01-.04-.02,0,0,0,0,0,0-.04-.02-.07-.05-.11-.07,0,0,0,0,0,0-.01,0-.02-.01-.03-.02,0,0,0,0,0,0-.01,0-.02-.01-.03-.02,0,0,0,0,0,0-.01,0-.02-.01-.03-.02,0,0,0,0,0,0-.01,0-.02-.02-.04-.02,0,0,0,0,0,0-.01,0-.02-.02-.03-.02,0,0,0,0,0,0-.01,0-.02-.02-.03-.02,0,0,0,0,0,0-.01,0-.02-.01-.03-.02,0,0,0,0,0,0l-.03-.02s0,0,0,0c-.01,0-.02-.01-.03-.02,0,0,0,0,0,0-.01,0-.02-.01-.03-.02,0,0,0,0,0,0,0,0-.02-.01-.03-.02,0,0,0,0,0,0-.01,0-.02-.01-.03-.02,0,0,0,0,0,0-.01,0-.02-.01-.03-.02,0,0,0,0-.01,0-.01,0-.02-.01-.03-.02,0,0,0,0-.01,0,0,0-.02-.01-.03-.02,0,0,0,0-.01,0,0,0-.01,0-.02-.02,0,0-.01,0-.01,0,0,0-.01,0-.02-.01,0,0-.01,0-.02-.01,0,0-.01,0-.02-.01,0,0,0,0-.01,0,0,0-.02-.01-.02-.02,0,0-.01,0-.02-.01,0,0-.02-.01-.02-.02,0,0-.01,0-.02-.01h-.01s-.02-.02-.03-.03c0,0,0,0,0,0-.01,0-.02-.01-.03-.02,0,0,0,0,0,0-.01,0-.02-.02-.04-.02,0,0,0,0,0,0-.22-.15-.43-.29-.65-.44h0Zm3.91,2.51l-2.66,4.5c.9.53,1.81,1.05,2.73,1.54l2.46-4.61c-.85-.46-1.7-.93-2.53-1.42h0Zm4.08,2.23l-2.34,4.67c.93.47,1.88.92,2.83,1.34l2.13-4.77c-.75-.33-1.49-.68-2.22-1.04h0s-.03-.01-.04-.02c0,0,0,0,0,0-.01,0-.02-.01-.03-.02,0,0,0,0,0,0-.01,0-.02-.01-.03-.02,0,0,0,0-.01,0-.01,0-.02,0-.03-.02,0,0,0,0-.01,0,0,0-.02,0-.02-.01,0,0-.01,0-.02,0,0,0-.01,0-.02-.01,0,0-.01,0-.02-.01h-.02s-.01-.02-.02-.02c0,0,0,0-.01,0h-.03s0-.02,0-.02c-.01,0-.03-.01-.04-.02h0s-.01,0-.02-.01h0Zm4.23,1.93l-2,4.83c.96.4,1.94.78,2.92,1.14l1.79-4.91h-.02s0,0,0,0c-.04-.01-.08-.03-.12-.04,0,0,0,0,0,0-.01,0-.02,0-.04-.01,0,0,0,0-.01,0-.01,0-.02,0-.03-.01,0,0,0,0-.01,0-.01,0-.02,0-.03-.01,0,0-.01,0-.01,0,0,0-.01,0-.02,0,0,0-.02,0-.03,0,0,0-.01,0-.02,0,0,0-.01,0-.02,0s-.02,0-.02,0c0,0-.01,0-.02,0,0,0-.01,0-.02,0,0,0-.01,0-.02,0,0,0,0,0-.01,0-.01,0-.02,0-.03-.01,0,0,0,0-.01,0-.01,0-.02,0-.03-.01,0,0,0,0-.01,0,0,0-.02,0-.03-.01,0,0,0,0-.01,0-.01,0-.02,0-.03-.01,0,0,0,0-.01,0,0,0-.02,0-.03-.01,0,0,0,0-.01,0-.01,0-.02,0-.03-.01,0,0,0,0-.01,0-.01,0-.02,0-.03-.01,0,0,0,0-.01,0,0,0-.02,0-.03-.01,0,0,0,0,0,0-.01,0-.02,0-.03-.01h0s-.02-.01-.04-.02c0,0,0,0,0,0-.01,0-.02,0-.04-.01,0,0,0,0,0,0-.01,0-.02,0-.04-.01,0,0,0,0,0,0-.01,0-.02,0-.04-.01,0,0,0,0,0,0-.01,0-.03,0-.04-.01,0,0,0,0,0,0-.01,0-.02,0-.04-.01,0,0,0,0,0,0-.01,0-.03,0-.04-.01,0,0,0,0,0,0-.01,0-.02,0-.04-.01,0,0,0,0,0,0-.01,0-.02,0-.04-.01,0,0,0,0,0,0-.01,0-.03,0-.04-.01,0,0,0,0,0,0-.01,0-.02,0-.03-.01,0,0,0,0,0,0-.01,0-.02,0-.04-.01,0,0,0,0,0,0-.01,0-.02,0-.03-.01,0,0,0,0,0,0-.01,0-.02,0-.03-.01,0,0,0,0,0,0-.01,0-.02,0-.04-.01h0s-.02-.01-.03-.02c0,0,0,0,0,0-.01,0-.02,0-.03-.01,0,0,0,0,0,0-.01,0-.02,0-.03-.01,0,0,0,0,0,0-.01,0-.02,0-.03-.01,0,0,0,0-.01,0-.01,0-.02,0-.03-.01,0,0,0,0-.01,0,0,0-.02,0-.03-.01,0,0,0,0-.01,0,0,0-.02,0-.03-.01,0,0,0,0-.01,0h-.03s-.01-.02-.02-.02c0,0-.02,0-.03-.01,0,0-.01,0-.02,0,0,0-.01,0-.02,0,0,0-.02,0-.02-.01,0,0-.01,0-.02,0-.01,0-.02,0-.03-.01,0,0,0,0-.01,0-.24-.1-.49-.2-.73-.3h0Zm4.35,1.63l-1.66,4.96c.99.33,1.99.64,3,.93l1.43-5.03c-.54-.15-1.08-.31-1.61-.48,0,0,0,0,0,0-.01,0-.03,0-.04-.01h0s-.03,0-.04-.01h0s-.02,0-.04-.01h0s-.02,0-.03-.01c0,0,0,0-.01,0-.01,0-.02,0-.03-.01,0,0,0,0-.01,0-.01,0-.02,0-.03,0,0,0,0,0-.01,0,0,0-.01,0-.02,0,0,0-.02,0-.03,0,0,0-.01,0-.01,0-.01,0-.02,0-.03-.01,0,0,0,0,0,0-.26-.08-.53-.17-.79-.26h0Zm4.46,1.31l-1.3,5.06c1.01.26,2.03.5,3.05.71l1.07-5.12s-.07-.02-.11-.02c0,0,0,0,0,0,0,0-.01,0-.02,0,0,0,0,0,0,0,0,0,0,0-.01,0,0,0,0,0-.01,0,0,0,0,0-.01,0,0,0-.01,0-.02,0,0,0,0,0,0,0-.81-.17-1.61-.36-2.41-.56,0,0,0,0,0,0,0,0,0,0-.01,0,0,0-.01,0-.02,0,0,0,0,0,0,0,0,0-.01,0-.02,0,0,0,0,0,0,0-.05-.01-.1-.03-.15-.04h0Zm4.54,1l-.94,5.14c1.02.19,2.06.35,3.1.49l.71-5.18c-.51-.07-1.02-.15-1.53-.23,0,0,0,0,0,0,0,0-.01,0-.02,0,0,0,0,0,0,0,0,0-.01,0-.02,0,0,0,0,0,0,0s0,0-.01,0c0,0,0,0-.01,0,0,0,0,0-.01,0,0,0,0,0-.01,0,0,0,0,0,0,0-.41-.07-.82-.14-1.22-.21h0Zm4.6.67l-.57,5.2c1.03.11,2.08.21,3.12.28l.35-5.22c-.31-.02-.63-.04-.94-.07h0s-.02,0-.02,0h0c-.05,0-.1,0-.15-.01h0c-.59-.05-1.18-.11-1.77-.17h0Zm4.63.35l-.21,5.22c.96.04,1.93.06,2.89.06h.24s-.02-5.23-.02-5.23c0,0-.02,0-.02,0h-.02c-.06,0-.12,0-.18,0h-.13s-.02,0-.04,0h-.05s-.03,0-.04,0h0s-.02,0-.04,0h-.05s-.02,0-.04,0h0s-.03,0-.04,0h0s-.03,0-.04,0c0,0,0,0,0,0-.03,0-.05,0-.08,0h0s-.05,0-.08,0h0s-.03,0-.04,0h0s-.05,0-.08,0h0c-.26,0-.53,0-.79-.01h0s-.05,0-.08,0c0,0,0,0,0,0-.03,0-.05,0-.08,0h0s-.02,0-.04,0c0,0,0,0,0,0h-.03s0,0,0,0c-.01,0-.02,0-.03,0,0,0,0,0-.01,0,0,0-.02,0-.03,0,0,0-.01,0-.02,0,0,0-.02,0-.02,0,0,0-.01,0-.02,0,0,0-.01,0-.02,0-.01,0-.02,0-.03,0,0,0,0,0-.01,0-.02,0-.05,0-.07,0h0c-.2,0-.4-.01-.61-.02h0Zm7.55-.12c-.96.07-1.93.12-2.9.15l.15,5.23c1.04-.03,2.09-.08,3.13-.16l-.38-5.21h0Zm4.62-.5s0,0,0,0c0,0,0,0-.01,0,0,0,0,0-.01,0,0,0,0,0-.01,0,0,0,0,0,0,0-.94.13-1.88.25-2.83.34l.52,5.2c1.04-.1,2.08-.23,3.11-.38l-.75-5.17h0Zm4.57-.82c-.16.03-.32.07-.48.1,0,0,0,0,0,0,0,0-.01,0-.02,0,0,0,0,0-.01,0,0,0,0,0-.01,0,0,0-.01,0-.02,0,0,0,0,0,0,0,0,0-.01,0-.02,0h0c-.75.16-1.51.3-2.28.43l.88,5.15c1.03-.18,2.06-.38,3.08-.6l-1.11-5.11h0Zm4.5-1.15c-.16.05-.33.09-.49.14h0s-.01,0-.02,0h0s-.01,0-.02,0c0,0,0,0,0,0,0,0-.01,0-.02,0h0s-.02,0-.02,0h0s-.02,0-.02,0c0,0,0,0,0,0,0,0-.01,0-.02,0,0,0,0,0,0,0,0,0,0,0-.01,0,0,0,0,0-.01,0,0,0,0,0-.01,0,0,0,0,0-.01,0,0,0,0,0-.01,0,0,0-.01,0-.01,0,0,0,0,0,0,0,0,0-.01,0-.02,0,0,0,0,0,0,0-.68.19-1.37.37-2.06.54l1.24,5.08c1.01-.25,2.03-.52,3.03-.81l-1.47-5.02h0Zm4.41-1.46c-.15.05-.3.11-.44.16h0s-.03.01-.04.02c0,0,0,0-.01,0,0,0-.02,0-.03.01,0,0-.01,0-.02,0,0,0-.01,0-.02,0,0,0-.02,0-.03.01,0,0,0,0-.01,0-.01,0-.02,0-.03.01,0,0,0,0,0,0,0,0-.02,0-.03.01,0,0,0,0,0,0-.01,0-.03.01-.04.01,0,0,0,0,0,0-.01,0-.03,0-.04.01,0,0,0,0,0,0-.48.17-.97.34-1.46.5,0,0,0,0,0,0-.01,0-.03,0-.04.01,0,0,0,0,0,0-.01,0-.02,0-.04.01,0,0,0,0,0,0-.01,0-.02,0-.03.01h-.01s-.02,0-.03.01c0,0,0,0-.01,0-.01,0-.02,0-.03.01,0,0-.01,0-.02,0,0,0-.02,0-.03,0,0,0-.01,0-.02,0,0,0-.01,0-.02,0-.01,0-.02,0-.03,0,0,0,0,0-.01,0h-.04s0,.01,0,.01c-.05.02-.1.03-.15.05l1.6,4.98c.99-.32,1.99-.66,2.96-1.03l-1.82-4.9h0Zm4.29-1.77c-.47.21-.94.42-1.41.62,0,0,0,0,0,0-.01,0-.03.01-.04.02,0,0,0,0,0,0-.01,0-.02.01-.04.02,0,0,0,0,0,0-.01,0-.03.01-.04.02h0s-.02.01-.03.02c0,0,0,0,0,0-.01,0-.02,0-.03.01,0,0,0,0-.01,0,0,0-.02,0-.03.01h-.02s-.02.01-.03.02h-.02s-.01.01-.02.01c0,0-.02,0-.03.01,0,0,0,0-.01,0-.01,0-.02.01-.04.02,0,0,0,0,0,0-.28.12-.57.24-.86.35l1.95,4.85c.97-.39,1.93-.8,2.88-1.23l-2.16-4.76h0Zm4.16-2.07s-.04.02-.06.04h0s-.02.01-.04.02c0,0,0,0,0,0,0,0-.01,0-.02.01,0,0-.02,0-.02.01,0,0-.01,0-.01,0,0,0-.02,0-.03.01,0,0,0,0-.01,0,0,0-.02.01-.03.02h0s-.02.02-.03.02h0s-.02.02-.04.02c0,0,0,0,0,0-.01,0-.02.01-.04.02,0,0,0,0,0,0-.23.12-.45.24-.68.36h0s-.08.04-.12.06c0,0,0,0,0,0-.01,0-.02.01-.04.02,0,0,0,0,0,0-.01,0-.02.01-.03.02,0,0,0,0,0,0-.01,0-.02.01-.03.02,0,0,0,0-.01,0,0,0-.02,0-.03.01,0,0,0,0-.01,0,0,0-.02,0-.02.01,0,0-.01,0-.02,0,0,0-.01,0-.02.01,0,0-.01,0-.02,0,0,0-.02,0-.02.01,0,0-.01,0-.02.01,0,0,0,0,0,0-.01,0-.02.01-.04.02,0,0,0,0,0,0-.36.18-.72.36-1.08.54l2.29,4.7c.93-.46,1.87-.94,2.79-1.44l-2.5-4.59h0Zm4-2.36c-.81.52-1.64,1.02-2.48,1.51l2.62,4.53c.9-.52,1.8-1.07,2.68-1.63l-2.81-4.41h0Zm3.83-2.64c-.17.13-.34.25-.51.38,0,0,0,0,0,0-.01,0-.02.02-.04.03,0,0,0,0,0,0-.01,0-.02.02-.03.02,0,0,0,0,0,0-.01,0-.02.01-.03.02,0,0,0,0,0,0-.01,0-.02.01-.03.02,0,0,0,0,0,0,0,0-.02.01-.03.02,0,0,0,0-.01,0,0,0-.02.01-.03.02h-.01s-.02.02-.02.03c0,0-.01,0-.02.01,0,0-.01,0-.02.01,0,0-.02.01-.02.02,0,0,0,0-.01,0-.01,0-.02.01-.03.02,0,0,0,0,0,0-.5.36-1,.7-1.5,1.05l2.93,4.33c.86-.58,1.72-1.19,2.56-1.81l-3.12-4.2h0Zm3.63-2.9s-.07.06-.11.1c0,0,0,0-.01.01,0,0-.01.01-.02.02,0,0-.01,0-.02.01l-.02.02s-.01.01-.02.02c0,0,0,0-.01.01,0,0-.01.01-.02.02,0,0,0,0,0,0,0,0-.02.01-.03.02,0,0,0,0,0,0,0,0-.02.02-.03.02h0s-.02.02-.03.03c0,0,0,0,0,0-.01,0-.02.02-.03.03,0,0,0,0,0,0-.61.52-1.24,1.02-1.87,1.52l3.22,4.11c.82-.64,1.63-1.31,2.42-1.99l-3.4-3.97h0Zm3.42-3.15c-.25.25-.51.49-.76.74h0s-.02.02-.03.03c0,0,0,0,0,0l-.03.02s0,0,0,0c0,0-.02.02-.02.02,0,0,0,0-.01.01,0,0-.01,0-.01.01,0,0-.01.01-.02.02,0,0,0,0-.01.01,0,0-.01.01-.02.02,0,0,0,0-.01.01,0,0-.01.01-.02.02,0,0,0,0-.01.01,0,0-.01.01-.02.02,0,0,0,0,0,0,0,0-.02.01-.02.02,0,0,0,0,0,0,0,0-.02.02-.03.03,0,0,0,0,0,0,0,0-.02.02-.03.03,0,0,0,0,0,0-.01,0-.02.02-.03.03,0,0,0,0,0,0-.32.3-.64.6-.97.89l3.51,3.88c.77-.7,1.54-1.42,2.28-2.15l-3.67-3.72h0Zm3.19-3.38c-.12.14-.25.28-.38.42h0s-.02.02-.03.04c0,0,0,0,0,0,0,.01-.02.02-.03.03,0,0,0,0,0,0,0,0-.01.01-.02.02,0,0,0,.01-.01.01,0,0-.01.01-.02.02,0,0,0,0-.01.01,0,0-.01.01-.02.02,0,0-.01.01-.01.02,0,0-.01.01-.01.02,0,0-.01.01-.02.02,0,0,0,0-.01.01,0,0-.01.02-.02.02,0,0,0,0,0,.01,0,0-.02.02-.02.03,0,0,0,0,0,0,0,0-.02.02-.02.03,0,0,0,0,0,0,0,.01-.02.02-.03.03,0,0,0,0,0,0,0,.01-.02.02-.03.03,0,0,0,0,0,0,0,0-.02.02-.03.03,0,0,0,0,0,0,0,0-.02.02-.03.03,0,0,0,0,0,0,0,.01-.02.02-.03.03,0,0,0,0,0,0,0,0-.02.02-.03.03,0,0,0,0,0,0,0,.01-.02.02-.03.03,0,0,0,0,0,0,0,.01-.02.02-.03.03,0,0,0,0,0,0-.01.01-.02.02-.03.03,0,0,0,0,0,0,0,.01-.02.02-.03.03,0,0,0,0,0,0,0,.01-.02.02-.03.03,0,0,0,0,0,0,0,0-.02.02-.03.03h0s-.02.02-.03.03c0,0,0,0,0,0-.03.03-.06.06-.09.1h0s-.02.02-.03.03c0,0,0,0,0,0,0,0-.02.02-.03.03,0,0,0,0,0,0,0,.01-.02.02-.03.03,0,0,0,0,0,0,0,.01-.02.02-.03.03h0s-.02.02-.03.03c0,0,0,0,0,0,0,0-.02.02-.03.03,0,0,0,0,0,0,0,.01-.02.02-.03.03,0,0,0,0,0,0,0,0-.02.02-.03.03,0,0,0,0,0,0,0,0-.02.02-.02.03,0,0,0,0,0,0,0,0-.02.02-.02.03,0,0,0,0,0,0,0,0-.02.02-.02.02,0,0,0,0,0,0,0,0-.01.02-.02.02,0,0,0,0,0,0,0,0-.02.02-.02.02,0,0,0,0,0,.01,0,0-.01.01-.02.02h-.01s-.01.03-.02.03c0,0,0,0-.01.01,0,0-.01.01-.01.02,0,0-.01.01-.02.02,0,0,0,0-.01.01,0,0-.01.02-.02.02,0,0,0,0,0,0,0,0-.02.02-.03.03,0,0,0,0,0,0-.08.08-.15.16-.23.24l3.77,3.62c.72-.75,1.43-1.53,2.12-2.31l-3.92-3.45h0Zm2.95-3.59c-.59.77-1.19,1.53-1.81,2.27l4.01,3.35c.67-.8,1.32-1.62,1.96-2.45l-4.16-3.17h0Zm2.69-3.79c-.06.09-.12.18-.18.27,0,0,0,0,0,.01,0,0-.01.02-.02.03,0,0,0,.01-.01.02v.02s-.02.02-.03.02h0s-.01.03-.02.04c0,0,0,0,0,0,0,.01-.01.02-.02.03,0,0,0,0,0,0,0,.01-.02.02-.02.03,0,0,0,0,0,0-.43.64-.87,1.27-1.32,1.9l4.24,3.06c.61-.84,1.21-1.71,1.78-2.58l-4.37-2.87h0Zm2.41-3.97c-.47.84-.97,1.68-1.48,2.5l4.44,2.76c.55-.88,1.08-1.79,1.59-2.7l-4.56-2.56h0Zm2.13-4.13c-.11.24-.23.48-.34.71h0s-.01.03-.02.04c0,0,0,0,0,0,0,.01-.01.03-.02.04,0,0,0,0,0,0,0,.01-.01.03-.02.04,0,0,0,0,0,0-.01.02-.02.04-.03.06,0,0,0,0,0,0,0,.01-.01.02-.02.03,0,0,0,0,0,.01,0,.01-.01.02-.02.03,0,0,0,0,0,.01,0,0,0,.02-.01.03,0,0,0,.01,0,.02,0,0,0,.01,0,.02,0,0,0,.02-.01.03v.02s-.02.02-.02.03c0,0,0,.01,0,.02,0,0,0,.02-.01.02,0,0,0,.01,0,.02,0,0,0,.02-.01.02h0s0,.03-.01.04c0,0,0,0,0,.01,0,0-.01.02-.01.03,0,0,0,0,0,.01l-.02.03s0,0,0,.01c0,0-.01.02-.02.03h0s-.01.03-.02.04c0,0,0,0,0,0,0,0-.01.02-.02.03,0,0,0,0,0,0,0,.01-.01.02-.02.03,0,0,0,0,0,0,0,.01-.01.02-.02.03h0s-.01.03-.02.04c0,0,0,0,0,0,0,.01-.01.02-.02.04,0,0,0,0,0,0,0,.01-.01.02-.02.04,0,0,0,0,0,0,0,.01-.01.03-.02.04,0,0,0,0,0,0,0,.01-.01.02-.02.04h0s-.01.03-.02.04c0,0,0,0,0,0,0,.01-.01.02-.02.04,0,0,0,0,0,0-.01.03-.03.05-.04.08,0,0,0,0,0,0,0,.01-.01.03-.02.04,0,0,0,0,0,0,0,.01-.01.02-.02.04,0,0,0,0,0,0,0,.01-.01.02-.02.04,0,0,0,0,0,0-.02.04-.04.08-.06.12,0,0,0,0,0,0,0,.01-.01.02-.02.04,0,0,0,0,0,0,0,.01-.01.02-.02.04h0s-.01.03-.02.04c0,0,0,0,0,0,0,.01-.01.02-.02.04,0,0,0,0,0,0,0,.01-.01.02-.02.03h0s-.01.03-.02.04c0,0,0,0,0,0,0,.01-.01.02-.02.03,0,0,0,0,0,.01,0,0-.01.02-.02.03,0,0,0,0,0,.01,0,.01,0,.02-.02.03,0,0,0,0,0,.01,0,0,0,.02-.01.02,0,0,0,.01,0,.02,0,0,0,.02-.01.02h0s4.63,2.44,4.63,2.44c.48-.92.96-1.86,1.4-2.81l-4.73-2.23h0Zm1.83-4.27s-.02.04-.03.07h0s-.03.08-.05.12c0,0,0,0,0,0,0,.01-.01.03-.02.04,0,0,0,0,0,0,0,.01,0,.02-.01.04h0s0,.03-.01.05c0,0,0,0,0,0,0,.01,0,.03-.01.04h0s0,.02,0,.03c0,0,0,0,0,.01,0,.01,0,.02-.01.03,0,0,0,0,0,.01,0,.01,0,.02-.01.03,0,0,0,0,0,.01,0,.01,0,.02-.01.03,0,0,0,0,0,.01,0,0,0,.01,0,.02,0,0,0,.02-.01.03,0,0,0,.01,0,.02,0,0,0,.01,0,.02,0,0,0,.01,0,.02,0,0,0,.01,0,.02,0,0,0,.02-.01.03,0,0,0,.01,0,.02,0,0,0,.01,0,.02,0,0,0,.02,0,.02,0,0,0,.01,0,.02v.03s-.02.01-.02.02c0,0,0,.02-.01.03,0,0,0,.01,0,.02,0,0,0,.02,0,.02,0,0,0,.01,0,.02,0,0,0,.02,0,.02,0,0,0,0,0,.01,0,0,0,.02-.01.03,0,0,0,0,0,.01,0,0,0,.02-.01.03,0,0,0,0,0,.01,0,0,0,.02-.01.03,0,0,0,0,0,.01,0,0,0,.02-.01.03,0,0,0,0,0,0,0,0,0,.02-.01.03h0s0,.03-.01.04c0,0,0,0,0,.01,0,0,0,.02-.01.03,0,0,0,0,0,.01,0,.01,0,.02-.01.03,0,0,0,0,0,.01,0,0,0,.02-.01.03,0,0,0,0,0,0,0,0,0,.02-.01.03,0,0,0,0,0,.01,0,0,0,.02-.01.03,0,0,0,0,0,0,0,0,0,.02-.01.03,0,0,0,0,0,.01,0,.01,0,.02-.01.03,0,0,0,0,0,0,0,.01,0,.02-.01.03,0,0,0,0,0,0,0,.01,0,.02-.01.03,0,0,0,0,0,0,0,0,0,.02-.01.03,0,0,0,0,0,0,0,.01,0,.02-.01.03,0,0,0,0,0,0,0,.01,0,.02-.01.03,0,0,0,0,0,.01,0,0-.01.02-.01.03,0,0,0,0,0,0,0,.01,0,.02-.01.03,0,0,0,0,0,0,0,.01,0,.02-.01.03,0,0,0,0,0,0,0,.01,0,.02-.01.03,0,0,0,0,0,0,0,.01,0,.02-.01.03,0,0,0,0,0,0,0,0-.01.02-.01.03,0,0,0,0,0,.01,0,.01,0,.02-.01.03,0,0,0,0,0,0,0,0,0,.02-.01.03,0,0,0,0,0,.01,0,.01,0,.02-.01.03,0,0,0,0,0,.01,0,0,0,.02-.01.03,0,0,0,0,0,.01,0,0,0,.02-.01.03,0,0,0,0,0,.01,0,0,0,.02-.01.02,0,0,0,.01,0,.02,0,0,0,.01,0,.02v.02s-.01.01-.02.02c0,0,0,.01,0,.02,0,0,0,.01-.01.02,0,0,0,.01,0,.02,0,0,0,.02-.01.03,0,0,0,.01,0,.02,0,0,0,0,0,.01,0,0,0,.02-.01.03,0,0,0,0,0,.01,0,.01,0,.02-.01.03,0,0,0,0,0,.01,0,.01-.01.02-.02.04,0,0,0,0,0,0,0,.02-.02.05-.03.07h0s-.01.03-.02.05h0s-.02.04-.03.07l4.79,2.1c.42-.95.82-1.93,1.2-2.9l-4.87-1.89h0Zm1.52-4.39c-.29.93-.59,1.85-.92,2.76l4.92,1.76c.35-.98.68-1.98.99-2.98l-5-1.54h0Zm1.21-4.49c-.11.49-.23.97-.35,1.45h0s-.02.07-.02.1c0,0,0,0,0,0,0,0,0,.01,0,.01,0,0,0,0,0,0,0,0,0,.01,0,.01,0,0,0,0,0,.01h0s0,.02,0,.02c0,0,0,0,0,.01,0,0,0,.01,0,.01,0,0,0,0,0,0,0,0,0,0,0,.02,0,0,0,0,0,0-.1.38-.2.76-.31,1.13l5.04,1.4c.28-1,.54-2.02.77-3.04l-5.09-1.18h0Zm.89-4.56c-.12.76-.25,1.51-.4,2.26,0,0,0,0,0,0,0,0,0,.01,0,.02h0s0,.02,0,.02c0,0,0,0,0,0,0,0,0,0,0,.01h0s0,.02,0,.02c0,0,0,0,0,.01,0,0,0,0,0,.01,0,0,0,.01,0,.02,0,0,0,0,0,0,0,0,0,.02,0,.02h0s0,.02,0,.02h0s0,.02,0,.02h0s0,.02,0,.03h0s0,.02,0,.03h0c-.02.11-.05.23-.07.34l5.12,1.04c.21-1.02.4-2.06.56-3.08l-5.16-.82h0Zm.56-4.61c-.03.32-.06.64-.09.96h0s0,.02,0,.02h0s0,.02,0,.03h0s0,.02,0,.03h0s0,.04,0,.05h0s0,.02,0,.02h0s0,.02,0,.02c0,0,0,0,0,0,0,0,0,.01,0,.02,0,0,0,0,0,0,0,0,0,.01,0,.02,0,0,0,0,0,0,0,0,0,.01,0,.02,0,0,0,0,0,0,0,.02,0,.03,0,.05h0s0,.02,0,.02c0,0,0,0,0,0,0,0,0,.01,0,.02,0,0,0,0,0,0,0,0,0,.01,0,.02,0,0,0,0,0,0,0,0,0,.01,0,.02,0,0,0,0,0,0,0,0,0,.01,0,.02,0,0,0,0,0,0,0,0,0,.02,0,.03h0s0,.02,0,.03h0s0,.02,0,.02c0,0,0,0,0,0,0,0,0,.01,0,.02,0,0,0,0,0,0v.02s0,0,0,0c0,0,0,.02,0,.02h0s0,.07-.01.1h0s0,.02,0,.03h0c-.04.4-.09.8-.15,1.2l5.18.68c.14-1.03.25-2.08.34-3.11l-5.21-.45h0Zm.24-4.64c-.02.97-.05,1.94-.11,2.9l5.22.31c.06-1.04.1-2.09.12-3.13l-5.23-.09h0Zm5.14-4.92l-5.22.28c0,.15.02.3.02.45,0,0,0,0,0,0,0,0,0,0,0,.01,0,0,0,0,0,.01,0,0,0,0,0,.01,0,0,0,.01,0,.02,0,0,0,0,0,0v.02s0,0,0,0c.03.73.05,1.46.06,2.2h0s0,.07,0,.11c0,0,0,0,0,0v.02s0,0,0,0v.02s0,0,0,.01h0s5.23-.04,5.23-.04c0-1.04-.04-2.09-.1-3.13h0Zm-.44-4.99l-5.19.64c.05.44.1.87.15,1.31h0s0,.02,0,.03h0s0,.02,0,.02c0,0,0,0,0,0,0,0,0,.01,0,.02h0s0,.02,0,.02c0,0,0,0,0,.01h0s0,.02,0,.03c0,0,0,0,0,0,0,0,0,0,0,.02h0s0,.02,0,.03c0,0,0,0,0,0,.05.46.09.92.12,1.38l5.21-.41c-.08-1.04-.19-2.09-.32-3.12h0Zm-.79-4.95l-5.13,1.01s0,0,0,0c0,0,0,.01,0,.02,0,0,0,0,0,0,0,.04.01.07.02.11,0,0,0,0,0,0,0,0,0,.01,0,.02,0,0,0,0,0,0,0,0,0,.01,0,.02,0,0,0,0,0,0,0,0,0,.01,0,.01,0,0,0,0,0,0,0,0,0,0,0,.02,0,0,0,0,0,0,0,.02,0,.04.01.06,0,0,0,0,0,0,0,0,0,0,0,.01,0,0,0,0,0,.01,0,0,0,0,0,.01s0,0,0,.01c0,0,0,0,0,.01,0,0,0,0,0,.01,0,0,0,0,0,0,0,0,0,0,0,.01,0,0,0,0,0,0,0,0,0,.01,0,.02,0,0,0,0,0,0,0,.02,0,.03,0,.05,0,0,0,0,0,0,0,0,0,.01,0,.02,0,0,0,0,0,0v.02s0,0,0,0c0,0,0,.01,0,.02h0s0,.02,0,.02c0,0,0,0,0,0v.02s0,0,0,0c0,.02,0,.03,0,.05h0s0,.02,0,.02h0s0,.02,0,.03h0s0,.02,0,.02h0s0,.02,0,.03h0s0,.02,0,.03h0s.01.07.02.1h0s0,.02,0,.03h0s0,.02,0,.02h0c.12.64.22,1.29.32,1.94l5.17-.78c-.15-1.03-.33-2.07-.53-3.09h0Zm-1.14-4.89l-5.05,1.37c.02.08.04.15.06.23h0s0,.02,0,.02h0s0,.02,0,.02h0s0,.02,0,.02c0,0,0,0,0,0,0,0,0,.01,0,.02,0,0,0,.01,0,.02,0,0,0,0,0,0,0,0,0,.01,0,.02,0,0,0,0,0,0,0,0,0,.01,0,.02h0c.11.41.21.82.31,1.23,0,0,0,0,0,0,0,0,0,.01,0,.02,0,0,0,0,0,0,0,0,0,.01,0,.02,0,0,0,0,0,0,0,0,0,.01,0,.02,0,0,0,0,0,0,0,0,0,.01,0,.02,0,0,0,.02,0,.02h0s0,.02,0,.02c0,0,0,0,0,0,0,0,0,.01,0,.02,0,0,0,0,0,0,0,0,0,.01,0,.02h0s0,.02,0,.03h0c.08.33.15.66.23.98l5.1-1.14c-.23-1.02-.48-2.04-.75-3.04h0Zm-1.48-4.79l-4.94,1.72c.32.91.62,1.83.9,2.76l5.01-1.5c-.3-1-.62-2-.97-2.98h0Zm-1.82-4.68l-4.8,2.07s0,0,0,0c0,0,0,.01,0,.01,0,.01,0,.02.01.03,0,0,0,0,0,0,0,.01.01.03.02.04,0,0,0,0,0,0,0,.01.01.03.02.04h0c.36.84.7,1.69,1.02,2.54l4.89-1.85c-.37-.97-.76-1.95-1.18-2.91h0Zm-2.14-4.53l-4.64,2.4s0,0,0,.01c0,0,0,.01,0,.02,0,0,0,.01,0,.02,0,0,0,.02.01.03,0,0,0,.01,0,.02,0,0,0,.02.01.03,0,0,0,0,0,.01,0,0,0,.02.01.02v.02s.02.02.02.02c0,0,0,0,0,.01,0,0,.01.02.02.03,0,0,0,0,0,.01,0,0,.01.02.01.03,0,0,0,0,0,.01,0,0,.01.02.01.03,0,0,0,0,0,.01,0,0,0,.02.01.03,0,0,0,0,0,.01,0,0,0,.02.01.03,0,0,0,0,0,.01,0,0,0,.02.01.03,0,0,0,0,0,.01,0,0,.01.02.01.03,0,0,0,0,0,.01,0,.01,0,.02.01.03,0,0,0,0,0,.01,0,0,.01.02.01.03,0,0,0,0,0,.01,0,0,0,.02.01.03h0s0,.03.01.04c0,0,0,.01,0,.02,0,0,0,.02.01.03,0,0,0,0,0,.01,0,0,0,.02.01.03,0,0,0,.01,0,.02,0,0,0,.02.01.03,0,0,0,0,0,.01,0,0,0,.01.01.02,0,0,0,.01.01.02,0,0,0,.01.01.02v.02s.02.01.02.02c0,0,0,.01,0,.02v.03s.02.01.02.02c0,0,0,.02.01.03v.02s.01.01.02.02c0,0,0,.02.01.02,0,0,0,.01,0,.01,0,0,0,.02.01.03,0,0,0,0,0,.01,0,.01.01.02.02.03,0,0,0,0,0,.01.01.02.02.04.03.06h0s.01.03.02.04h0s.01.03.02.04h0c.22.44.43.89.63,1.33l4.74-2.19c-.44-.94-.9-1.89-1.38-2.82h0Zm-2.46-4.37l-4.46,2.72c.29.48.58.96.86,1.44,0,0,0,0,0,0,0,.01.01.02.02.04,0,0,0,0,0,0,0,.01.01.02.02.04,0,0,0,0,0,0,0,.01.01.02.02.04,0,0,0,0,0,0,0,.01.01.02.02.03,0,0,0,0,0,0,0,.01.01.02.02.03,0,0,0,0,0,0,0,.01.01.02.02.03,0,0,0,0,0,.01,0,.01.01.02.02.03,0,0,0,0,0,.01,0,0,.01.02.02.03,0,0,0,0,0,.01,0,0,0,.01.01.02,0,0,0,.01.01.02,0,0,0,.01.01.02,0,0,0,.02.01.02,0,0,0,.01,0,.02,0,0,.01.02.02.03,0,0,0,.01,0,.01,0,0,0,.01.01.02,0,0,0,0,0,.01,0,.01.01.02.02.03,0,0,0,0,0,0l.02.03s0,0,0,0c0,.01.01.03.02.04h0c.08.15.17.3.25.46l4.58-2.52c-.5-.91-1.03-1.82-1.57-2.71h0Zm-2.76-4.19l-4.26,3.03c.31.44.62.88.92,1.33h0s.02.03.03.04h0s.03.04.04.06c0,0,0,0,0,.01,0,0,.01.02.02.03h0s.01.03.02.04c0,0,0,.01.01.02,0,0,0,.01.01.02,0,0,.01.02.02.02,0,0,0,0,0,.01,0,0,.01.02.02.03,0,0,0,0,0,.01,0,.01.01.02.02.03,0,0,0,0,0,0l.02.03s0,0,0,0c.16.24.32.48.47.72l4.39-2.84c-.56-.87-1.16-1.75-1.76-2.59h0Zm-3.05-3.98l-4.04,3.32c.11.13.22.26.32.4,0,0,0,0,0,0l.02.03s0,0,0,0c0,0,.01.02.02.03,0,0,0,0,0,.01,0,0,.01.01.02.02,0,0,0,.01.01.02,0,0,0,0,.01.01,0,0,.01.02.02.02,0,0,0,0,.01.01,0,0,.01.02.02.02,0,0,0,0,0,.01,0,0,.01.02.02.03,0,0,0,0,0,0,0,0,.01.02.02.03,0,0,0,0,0,0,0,.01.02.02.02.03,0,0,0,0,0,0,0,0,.02.02.03.03,0,0,0,0,0,0,0,.01.02.02.03.03,0,0,0,0,0,0,.4.5.78,1,1.17,1.51l4.18-3.14c-.62-.83-1.28-1.66-1.94-2.46h0Zm-3.32-3.76l-3.79,3.6c.65.69,1.3,1.4,1.92,2.12,0,0,0,0,0,0,0,.01.02.02.03.03,0,0,0,0,0,0l3.95-3.43c-.68-.79-1.39-1.57-2.1-2.32h0Zm-3.57-3.51l-3.53,3.85c.71.65,1.41,1.32,2.1,2.01l3.7-3.69c-.73-.74-1.5-1.46-2.26-2.17h0Zm-3.81-3.26l-3.25,4.09c.21.17.43.34.64.51,0,0,0,0,0,0,.04.03.07.06.1.08,0,0,0,0,0,0,.01,0,.02.02.03.03,0,0,0,0,0,0,0,0,.02.02.03.02,0,0,0,0,0,0,0,0,.02.02.03.02,0,0,0,0,0,0,0,0,.02.01.03.02h0s.02.02.02.03h.01s.01.02.02.03c0,0,0,0,.01.01,0,0,.01.01.02.02,0,0,0,0,.01.01,0,0,.02.01.02.02,0,0,.01,0,.02.01,0,0,.01,0,.01.01,0,0,.01.01.02.02,0,0,0,0,.01,0,0,0,.02.02.03.02,0,0,0,0,0,0,.01,0,.02.02.03.03,0,0,0,0,0,0,.36.3.73.61,1.08.92l3.43-3.94c-.78-.68-1.59-1.36-2.41-2h0Zm-4.03-2.98l-2.96,4.31c.14.1.29.2.43.3h0s.02.02.03.02c0,0,0,0,.01,0,0,0,.01,0,.02.01,0,0,.02.01.02.02,0,0,0,0,.01,0,0,0,.02.01.03.02h0s.02.02.03.02c0,0,0,0,0,0,.01,0,.02.01.03.02,0,0,0,0,0,0,.01,0,.02.02.03.02,0,0,0,0,0,0,.01,0,.02.02.04.03h0c.42.3.84.6,1.25.9,0,0,0,0,0,0,.01,0,.02.02.03.03,0,0,0,0,0,0,0,0,.02.02.03.02,0,0,0,0,0,0,.01,0,.02.02.03.02,0,0,0,0,0,0,.01,0,.02.01.03.02,0,0,0,0,0,0,0,0,.02.01.03.02,0,0,0,0,0,0,.01,0,.02.01.03.02,0,0,0,0,.01,0,0,0,.02.01.03.02,0,0,0,0,.01.01,0,0,.02.01.02.02,0,0,.01,0,.01.01s0,0,.01.01c0,0,.02.01.02.02,0,0,0,0,.01,0,.01,0,.02.01.03.02,0,0,0,0,0,0,0,0,.01,0,.01.01l3.15-4.17c-.83-.63-1.69-1.24-2.54-1.83h0Zm-4.23-2.69l-2.65,4.51c.84.49,1.66,1,2.47,1.53l2.85-4.39c-.87-.57-1.77-1.12-2.67-1.65h0Zm-4.41-2.39l-2.32,4.68s.01,0,.02,0c0,0,0,0,0,0,.01,0,.03.01.04.02,0,0,0,0,0,0,.04.02.07.04.11.05,0,0,0,0,0,0,.01,0,.03.01.04.02h0s.03.02.04.02c0,0,0,0,0,0,.04.02.07.04.11.05,0,0,0,0,0,0,.01,0,.03.01.04.02h0s.03.02.04.02h0s.03.02.04.02h0c.07.03.13.07.2.1h0c.63.32,1.25.65,1.86.99l2.53-4.57c-.91-.5-1.84-.99-2.78-1.46h0Zm-4.57-2.07l-1.99,4.83c.17.07.35.14.52.22,0,0,0,0,0,0,.01,0,.02.01.04.02,0,0,0,0,.01,0,0,0,.02,0,.03.01,0,0,.01,0,.02,0,0,0,.01,0,.02,0,0,0,.02,0,.03.01,0,0,.01,0,.02,0,0,0,.02,0,.03.01,0,0,0,0,.01,0,0,0,.02,0,.03.01,0,0,0,0,0,0,.01,0,.02,0,.03.01,0,0,0,0,0,0,.01,0,.03.01.04.02,0,0,0,0,0,0,.01,0,.02.01.04.02,0,0,0,0,0,0,.01,0,.03.01.04.02,0,0,0,0,0,0,.49.21.97.42,1.45.64t0,0s.03.01.04.02c0,0,0,0,0,0,.01,0,.02.01.04.02,0,0,0,0,0,0,.01,0,.02.01.04.02,0,0,0,0,0,0,0,0,.02,0,.03.01,0,0,.01,0,.02,0,0,0,.02,0,.02.01,0,0,.02,0,.02.01,0,0,.01,0,.02,0,0,0,.01,0,.02.01h0s.02,0,.03.01l2.2-4.74c-.94-.44-1.91-.86-2.87-1.26h0Zm-4.7-1.74l-1.64,4.96c.72.24,1.43.49,2.14.75h0s.03,0,.04.01c0,0,0,0,0,0,.01,0,.02,0,.03.01,0,0,0,0,.01,0,0,0,.02,0,.03.01,0,0,0,0,.01,0,0,0,.02,0,.02,0,0,0,.01,0,.02,0,0,0,.01,0,.02,0,.01,0,.02,0,.03.01,0,0,0,0,0,0,.12.04.24.09.35.13l1.86-4.89c-.97-.37-1.97-.72-2.96-1.05h0Zm-4.82-1.4l-1.28,5.07c.94.24,1.87.5,2.8.77l1.51-5.01c-1-.3-2.01-.58-3.02-.84h0Zm-4.9-1.06l-.92,5.15c.96.17,1.91.36,2.85.57l1.15-5.1c-1.01-.23-2.05-.44-3.07-.62h0Zm-4.96-.71l-.56,5.2c.58.06,1.15.13,1.72.21h0s.02,0,.02,0h0s.01,0,.02,0h0s.01,0,.02,0h0s.01,0,.02,0c0,0,0,0,0,0h.05s0,0,0,0c0,0,.01,0,.02,0,0,0,0,0,.01,0,0,0,0,0,.01,0s0,0,.01,0c0,0,0,0,0,0,0,0,.01,0,.01,0,0,0,0,0,0,0,0,0,0,0,.02,0,0,0,0,0,0,0,.3.04.59.08.89.13l.78-5.17c-1.03-.16-2.07-.29-3.11-.4h0Zm-5-.36l-.19,5.22c.37.01.74.03,1.11.05,0,0,0,0,0,0,0,0,.01,0,.02,0,0,0,0,0,0,0h.02s0,0,0,0c0,0,.01,0,.02,0,0,0,0,0,0,0,0,0,.01,0,.02,0,0,0,.02,0,.02,0,0,0,0,0,0,0,0,0,.01,0,.02,0,0,0,0,0,0,0,0,0,.01,0,.02,0,0,0,0,0,0,0,0,0,.01,0,.02,0,0,0,0,0,0,0,0,0,.01,0,.02,0,0,0,0,0,0,0,0,0,.01,0,.02,0h0s.05,0,.08,0h.03s0,0,0,0c.22.01.44.03.66.04h0s.02,0,.02,0h0s.05,0,.08,0h0s.01,0,.02,0c0,0,0,0,0,0,0,0,.01,0,.02,0,0,0,0,0,0,0,0,0,0,0,.01,0,0,0,0,0,.01,0s0,0,.01,0c0,0,0,0,.01,0,0,0,0,0,.01,0,0,0,0,0,.01,0,0,0,0,0,0,0,.02,0,.04,0,.06,0,0,0,0,0,0,0,0,0,.01,0,.02,0,0,0,0,0,0,0,.15.01.3.02.45.03l.42-5.21c-1.03-.08-2.09-.14-3.13-.18h0Zm-2.65-.05v5.23h.12s.02,0,.02,0h.08s.09,0,.13,0h0s.06,0,.09,0h0s.01,0,.02,0h.03s0,0,.01,0h.02s0,0,0,0c.06,0,.12,0,.18,0l.06-5.23c-.26,0-.51,0-.77,0h0Z" style="fill: #60d9b7; stroke-width: 0px;"/>
        <circle cx="71.15" cy="71.15" r="65.92" style="fill: none; stroke: #fff; stroke-miterlimit: 10; stroke-width: 8.13px;"/>
        <circle cx="71.15" cy="71.15" r="65.92" style="fill: #33d9aa; opacity: .68; stroke-width: 0px;"/>
      </g>
      <g>
        <path d="m45.86,37.66c1.03,1.01,3.04,1.48,5.6,1.61-.46.44-.99,1.25-1.25,1.8-2.13-.27-3.78-.87-4.98-1.92-.72.84-2.3,1.58-5.49,1.94-.15-.36-.46-.84-.76-1.23h-5.03v-1.73h5.74v1.16c3.63-.38,4.1-1.23,4.1-1.94v-.28h-1.14c-.4.63-.85,1.2-1.33,1.63-.36-.34-1.2-.89-1.67-1.16,1.01-.84,1.79-2.09,2.22-3.38l1.98.44c-.09.28-.21.57-.32.84h5.4l.34-.1,1.54.48c-.49,1.04-1.14,2.24-1.75,3l-1.75-.65c.21-.3.46-.7.67-1.1h-2.11v.59Zm.51,11.17c1.75.65,3.61,1.41,4.73,1.96l-2.03,1.22c-1.08-.63-3.06-1.56-4.94-2.24l1.16-.93h-5.36l1.65.76c-1.56.99-4.01,1.94-5.93,2.47-.38-.44-1.18-1.27-1.67-1.65,1.82-.34,3.86-.91,5.19-1.58h-2.74v-7.71h12.71v7.71h-2.77Zm-7.12-11.97h-4.86v-1.65h4.86v1.65Zm-.63,6.42h8.23v-.82h-8.23v.82Zm0,2.09h8.23v-.82h-8.23v.82Zm0,2.13h8.23v-.85h-8.23v.85Z" style="fill: #fff; stroke-width: 0px;"/>
        <path d="m55.82,43.09c-.68-.53-2.11-1.37-3.08-1.96l1.27-1.61c.95.47,2.41,1.25,3.15,1.75l-1.35,1.82Zm1.65,2.6c-.72,2.03-1.6,4.22-2.45,6.1l-2.07-1.23c.8-1.48,1.86-3.88,2.68-6.1l1.84,1.23Zm-.76-7.64c-.66-.53-2.09-1.42-3.08-2.03l1.29-1.61c.97.53,2.43,1.35,3.17,1.84l-1.39,1.8Zm9.75,7.71v4.1c0,.97-.15,1.5-.82,1.81-.65.3-1.54.34-2.7.32-.1-.59-.34-1.39-.59-1.94.66.02,1.42.02,1.65.02s.3-.06.3-.27v-4.05h-3v-6.86h2.53c.19-.55.36-1.12.48-1.62h-3.67v3.21c0,3.36-.34,8.38-2.6,11.53-.4-.36-1.35-.97-1.9-1.22,2.13-2.93,2.32-7.24,2.32-10.32v-5.24h11.85v2.03h-5.55l2.11.38c-.25.42-.49.84-.72,1.23h3.63v6.86h-3.32Zm-2.83,1.33c-.59,1.37-1.48,2.94-2.18,3.91-.42-.34-1.27-.84-1.77-1.08.72-.91,1.48-2.22,1.96-3.4l1.99.57Zm-.32-5.53h4.39v-1.04h-4.39v1.04Zm0,2.58h4.39v-1.06h-4.39v1.06Zm5.64,2.17c.61,1.14,1.44,2.68,1.84,3.61l-2.09.91c-.34-.99-1.1-2.58-1.71-3.78l1.96-.74Z" style="fill: #fff; stroke-width: 0px;"/>
        <path d="m77.19,39.23c-.4.68-.84,1.42-1.35,2.13v10.68h-2.05v-8.17c-.4.42-.82.82-1.2,1.16-.15-.49-.7-1.69-1.04-2.22,1.35-1.06,2.83-2.74,3.7-4.35l1.94.78Zm-.4-4.22c-1.03,1.65-2.58,3.44-4.03,4.6-.25-.48-.78-1.33-1.14-1.75,1.2-.91,2.51-2.41,3.15-3.61l2.01.76Zm8.76,5.55v1.54h3.02v9.92h-2.2v-.8h-3.86v.8h-2.09v-9.92h2.93v-1.54h-3.29v1.37c0,3.17-.27,7.24-2.17,10.07-.36-.3-1.14-.78-1.63-.99,1.63-2.55,1.82-6.31,1.82-9.08v-6.17c3.23-.28,6.93-.78,9.21-1.35l1.67,1.6c-2.53.59-5.89,1.01-8.91,1.25v1.52h3.29v-1.58h2.2v1.58h3.88v1.79h-3.88Zm.82,3.27h-3.86v.91h3.86v-.91Zm0,2.38h-3.86v.91h3.86v-.91Zm0,3.36v-.99h-3.86v.99h3.86Z" style="fill: #fff; stroke-width: 0px;"/>
        <path d="m108.18,47.76c-.74.38-1.48.76-2.18,1.06.76.55,1.63.99,2.66,1.25-.46.42-1.06,1.18-1.33,1.73-2.55-.85-4.18-2.62-5.17-5.05-.55.47-1.16.89-1.84,1.29v1.63l2.68-.51c-.06.49-.08,1.23-.04,1.65-3.5.76-4.12.93-4.48,1.16-.1-.44-.46-1.16-.72-1.52.34-.15.76-.53.76-1.29v-.17c-.53.23-1.04.4-1.56.57-.21-.32-.55-.74-.87-1.1l.02.13c-1.75.51-3.61.99-5.15,1.41l-.38-2.05c.55-.11,1.16-.27,1.86-.44v-4.67h-1.48v-1.96h1.48v-3.53h-1.61v-1.98h5.15v1.98h-1.56v3.53h1.39v1.96h-1.39v4.2l1.42-.38.17,1.29c1.35-.36,2.75-.89,3.89-1.54h-2.18v-4.16h9.46v4.16h-3.17c.21.47.49.91.82,1.29.68-.4,1.41-.89,1.88-1.27l1.48,1.33Zm.06-6.17h-11.63v-1.79h11.63v1.79Zm-.61-2.39h-10.33v-4.31h10.33v4.31Zm-7.31-2.79h-1.2v1.27h1.2v-1.27Zm-.61,8.47h5.34v-1.06h-5.34v1.06Zm3.29-8.47h-1.2v1.27h1.2v-1.27Zm2.72,0h-1.25v1.27h1.25v-1.27Z" style="fill: #fff; stroke-width: 0px;"/>
      </g>
      <path d="m45.45,88.48c-.04-9.35,5.37-18.36,13.66-22.7-.89-1.59-2.93-4.6.15-5.22,4.81-.51,8.27,3.65,11.9,5.85-4.92,1.93-4.08,16.08-8.63,5.79-5.94,3.12-9.82,9.58-9.8,16.28-1.76.03-3.63-1.04-3.42-2.89-.07.39-.21.76-.41,1.1-.72,1.13-2.01,1.76-3.44,1.79Zm53.62-11.9c-.62-3.08-3.63-1.04-5.22-.15-4.34-8.29-13.36-13.7-22.7-13.66.03,1.82,1.11,3.53,2.89,3.84-1.84-.21-2.92,1.67-2.89,3.42,6.71-.02,13.17,3.86,16.28,9.8-10.3,4.55,3.85,3.71,5.79,8.63,2.2-3.63,6.36-7.09,5.85-11.9Zm-5.65,13.69c-.19.34-.34.71-.41,1.1.21-1.84-1.67-2.92-3.42-2.89.02,6.71-3.86,13.17-9.8,16.28-4.55-10.3-3.71,3.85-8.63,5.79,3.63,2.2,7.09,6.36,11.9,5.85,3.08-.62,1.04-3.63.15-5.22,8.29-4.34,13.7-13.36,13.66-22.7-1.43.03-2.72.67-3.44,1.79Zm-24.06,20.47c-.34-.19-.71-.34-1.1-.41,1.84.21,2.92-1.67,2.89-3.42-6.71.02-13.17-3.86-16.28-9.8,10.3-4.55-3.85-3.71-5.79-8.63-2.2,3.63-6.36,7.09-5.85,11.9.62,3.08,3.63,1.04,5.22.15,4.34,8.29,13.36,13.7,22.7,13.66-.03-1.43-.67-2.72-1.79-3.44Z" style="fill: #fff; stroke-width: 0px;"/>
    </g>
  </g>
</svg>