<?xml version="1.0" encoding="UTF-8"?>
<svg id="_圖層_2" data-name="圖層 2" xmlns="http://www.w3.org/2000/svg" width="144.78" height="172.18" viewBox="0 0 144.78 172.18">
  <g id="_圖層_7" data-name="圖層 7">
    <g id="air_balloon8">
      <line x1="83.98" y1="136.83" x2="76.3" y2="164.79" style="fill: none; stroke: #05d8de; stroke-miterlimit: 10; stroke-width: 5.15px;"/>
      <g>
        <line x1="61.97" y1="138.6" x2="72" y2="165.8" style="fill: none; stroke: #05d8de; stroke-miterlimit: 10; stroke-width: 5.15px;"/>
        <path d="m87.07,154.66h-28.74c-1.01,0-1.79.66-1.79,1.4,0,.79.78,1.44,1.79,1.44h.28v8.87c0,3.19,2.68,5.81,6.04,5.81h16.1c3.35,0,6.04-2.62,6.04-5.81v-8.87h.28c1.01,0,1.79-.66,1.79-1.44,0-.74-.78-1.4-1.79-1.4Z" style="fill: #05d8de; fill-rule: evenodd; stroke-width: 0px;"/>
        <g>
          <path d="m72.39,0c-1.06,0-2.13.02-3.19.07l.23,5.31c.84-.04,1.68-.06,2.52-.06h0s.02,0,.02,0h0s.02,0,.02,0h.03s.04,0,.05,0h0s.02,0,.02,0h.03s.01,0,.02,0h.09s.01,0,.02,0h.11V0h0Zm-5.09.18c-1.06.07-2.12.17-3.17.29l.6,5.28c.37-.04.75-.08,1.13-.12,0,0,0,0,0,0,0,0,.01,0,.02,0,0,0,0,0,.01,0,0,0,0,0,.01,0s0,0,.01,0c0,0,0,0,.01,0,0,0,.01,0,.02,0,0,0,0,0,0,0,.57-.05,1.15-.1,1.73-.14l-.37-5.31h0Zm-5.07.53c-1.05.15-2.11.32-3.15.51l.97,5.23s.01,0,.02,0c0,0,0,0,0,0,0,0,.01,0,.02,0,0,0,0,0,0,0,0,0,.01,0,.02,0,0,0,0,0,0,0,0,0,.01,0,.02,0,0,0,0,0,0,0,0,0,.01,0,.02,0,0,0,0,0,0,0,0,0,.01,0,.02,0,0,0,0,0,0,0,.01,0,.02,0,.03,0,0,0,0,0,.01,0,0,0,0,0,0,0h.02s0,0,0,0c0,0,.01,0,.02,0,0,0,0,0,0,0,0,0,.01,0,.02,0,0,0,0,0,0,0,0,0,.01,0,.02,0,0,0,0,0,0,0,0,0,.01,0,.02,0h0s.05,0,.08-.01h0s.01,0,.02,0h0s.01,0,.02,0h0s.01,0,.02,0c0,0,0,0,0,0,.03,0,.07-.01.1-.02h0s.02,0,.02,0h.03s0,0,0,0c0,0,.02,0,.02,0h0s.02,0,.03,0h0s.07-.01.1-.02h0s.01,0,.02,0h0s.01,0,.02,0h0s.01,0,.02,0h0s.01,0,.02,0c0,0,0,0,0,0,.02,0,.03,0,.05,0,0,0,0,0,0,0,0,0,.01,0,.02,0,0,0,0,0,.01,0,0,0,0,0,.01,0s0,0,.01,0,0,0,.01,0c0,0,0,0,.01,0h0s0,0,.01,0c0,0,0,0,0,0,.03,0,.06,0,.08-.01,0,0,0,0,0,0,0,0,.01,0,.02,0,0,0,0,0,0,0,0,0,.01,0,.02,0,0,0,0,0,0,0,.58-.1,1.15-.19,1.74-.27l-.74-5.27h0Zm-5.02.89c-1.04.22-2.08.47-3.1.74l1.34,5.15c.51-.13,1.01-.26,1.52-.38,0,0,0,0,0,0,0,0,.01,0,.02,0,0,0,0,0,0,0,0,0,.01,0,.02,0,0,0,0,0,0,0,0,0,.01,0,.01,0h.01s0,0,.01,0h.02s0,0,0,0c.02,0,.03,0,.05-.01h0s.02,0,.02,0h0c.39-.09.78-.18,1.17-.26l-1.11-5.2h0Zm-4.95,1.24c-1.02.29-2.04.62-3.04.95l1.7,5.04c.19-.06.38-.13.57-.19,0,0,0,0,0,0,0,0,.01,0,.02,0,0,0,0,0,0,0,0,0,.01,0,.02,0,0,0,0,0,0,0,0,0,.01,0,.02,0,0,0,0,0,0,0,0,0,.02,0,.02,0,0,0,0,0,.01,0,0,0,0,0,0,0h.02s0,0,0,0c0,0,.01,0,.02,0,0,0,0,0,0,0,0,0,.01,0,.02,0,0,0,0,0,0,0,0,0,.01,0,.02,0h0s.01,0,.02,0h0c.25-.08.51-.16.76-.24h0s.02,0,.02,0h0s.01,0,.02,0h0s.01,0,.02,0c0,0,0,0,0,0,0,0,.01,0,.02,0h0s.01,0,.02,0c0,0,0,0,0,0h.05s0-.02,0-.02h.02s0,0,0,0c0,0,.01,0,.02,0,0,0,0,0,0,0,0,0,0,0,.01,0,0,0,0,0,.01,0,0,0,0,0,.01,0,0,0,0,0,.01,0s0,0,.01,0c0,0,0,0,.01,0h.01s0,0,.01,0c0,0,0,0,.01,0,.03,0,.05-.02.08-.02,0,0,0,0,0,0,0,0,.01,0,.02,0,0,0,0,0,0,0,0,0,.01,0,.02,0,0,0,0,0,0,0,0,0,.01,0,.02,0,0,0,0,0,0,0,0,0,.01,0,.02,0,0,0,0,0,0,0,0,0,.01,0,.02,0,0,0,0,0,0,0,.19-.06.38-.11.57-.17,0,0,0,0,0,0,0,0,.01,0,.02,0,0,0,0,0,0,0,0,0,.02,0,.02,0h0s.01,0,.02,0h0s.06-.02.08-.02c0,0,0,0,0,0l-1.48-5.11h0Zm-4.85,1.59c-.99.37-1.99.76-2.97,1.17l2.06,4.91c.13-.05.25-.11.38-.16,0,0,0,0,0,0,.01,0,.02-.01.04-.02,0,0,0,0,0,0,.01,0,.02,0,.03-.01,0,0,0,0,.01,0,.01,0,.02,0,.03-.01,0,0,0,0,.01,0,0,0,.02,0,.03-.01h.02s.01-.01.02-.02c0,0,.02,0,.03-.01,0,0,0,0,.01,0,.48-.2.96-.39,1.45-.57h0s.03-.01.04-.02c0,0,0,0,0,0,.01,0,.02,0,.04-.01,0,0,0,0,.01,0,0,0,.01,0,.02,0,0,0,.02,0,.03-.01,0,0,.01,0,.02,0,0,0,.02,0,.03-.01,0,0,0,0,.01,0,.01,0,.02,0,.03-.01h0s.02-.01.04-.02c0,0,0,0,0,0,.01,0,.03-.01.04-.02,0,0,0,0,0,0,.11-.04.23-.09.35-.13l-1.84-4.99h0Zm-4.72,1.93c-.96.43-1.93.9-2.88,1.37l2.4,4.75c.88-.44,1.77-.87,2.67-1.27l-2.19-4.85h0Zm-4.57,2.26c-.93.5-1.86,1.03-2.77,1.57l2.73,4.57s0,0,0,0c.01,0,.02-.01.04-.02h0s.08-.05.12-.07c0,0,0,0,0,0,.59-.35,1.19-.7,1.8-1.03,0,0,0,0,0,0,.01,0,.02-.01.03-.02,0,0,0,0,0,0,.01,0,.02-.01.03-.02,0,0,0,0,.01,0,0,0,.02-.01.03-.02,0,0,.01,0,.02,0,0,0,.01,0,.02-.01,0,0,.02,0,.03-.01,0,0,0,0,.01,0,.01,0,.02-.01.03-.02,0,0,0,0,0,0,.13-.07.25-.14.38-.21l-2.52-4.68h0Zm-4.4,2.58c-.89.57-1.79,1.16-2.66,1.77l3.04,4.36h.01s0-.01.01-.02c0,0,.02-.01.02-.02,0,0,.01,0,.02-.01,0,0,.01,0,.02-.01,0,0,.02-.01.02-.02,0,0,0,0,.01,0,0,0,.02-.01.03-.02,0,0,0,0,.01,0,.01,0,.02-.01.03-.02,0,0,0,0,0,0,.01,0,.02-.01.03-.02h0s.02-.02.03-.03c0,0,0,0,0,0,.01,0,.02-.02.04-.02,0,0,0,0,0,0,.01,0,.02-.02.03-.02,0,0,0,0,0,0,.01,0,.02-.02.04-.02,0,0,0,0,0,0,.01,0,.02-.02.04-.03,0,0,0,0,0,0,.67-.46,1.35-.91,2.04-1.35l-2.85-4.49h0Zm-4.21,2.88c-.85.63-1.7,1.28-2.52,1.95l3.34,4.14s.03-.03.05-.04h0s.02-.02.03-.03c0,0,0,0,0,0,0,0,.02-.02.03-.02,0,0,0,0,.01,0,0,0,.02-.01.02-.02,0,0,0,0,.01-.01,0,0,0,0,.01-.01,0,0,.02-.01.02-.02,0,0,0,0,.01-.01,0,0,.02-.01.03-.02,0,0,0,0,0,0,0,0,.02-.02.03-.02,0,0,0,0,0,0,.01,0,.02-.02.03-.02,0,0,0,0,0,0,.01,0,.02-.02.03-.03,0,0,0,0,0,0,0,0,.02-.02.03-.03,0,0,0,0,0,0,.01,0,.02-.02.03-.03,0,0,0,0,0,0,.01,0,.02-.02.03-.03h0c.61-.49,1.24-.96,1.87-1.43l-3.16-4.28h0Zm-4,3.17c-.81.69-1.61,1.4-2.38,2.12l3.62,3.9c.08-.08.16-.15.25-.23,0,0,0,0,.01,0,0,0,.02-.01.02-.02,0,0,0,0,.01-.01,0,0,.01-.01.02-.02,0,0,.01,0,.02-.02,0,0,.01,0,.01-.01,0,0,.01-.01.02-.02,0,0,0,0,0,0,0,0,.02-.02.03-.02h0s.02-.02.03-.03c0,0,0,0,0,0,0,0,.02-.02.03-.03,0,0,0,0,0,0,0,0,.02-.02.03-.03,0,0,0,0,0,0,.56-.51,1.12-1.01,1.7-1.49l-3.45-4.05h0Zm-3.76,3.44c-.76.74-1.5,1.51-2.23,2.28l3.89,3.63c.67-.72,1.36-1.42,2.06-2.11l-3.72-3.8h0Zm-3.51,3.69c-.7.79-1.4,1.61-2.06,2.43l4.13,3.35c.62-.76,1.26-1.52,1.91-2.25l-3.98-3.53h0Zm-3.25,3.93c-.64.84-1.28,1.7-1.89,2.57l4.35,3.05c.27-.39.55-.78.83-1.16,0,0,0,0,0,0,0-.01.02-.02.03-.03,0,0,0,0,0,0,0-.01.02-.02.02-.03,0,0,0,0,0,0,0-.01.02-.02.02-.03,0,0,0,0,0,0,0-.01.02-.02.02-.03h0s.02-.03.02-.04c0,0,0,0,0,0,0-.01.02-.02.02-.03h0s.02-.03.02-.04c0,0,0,0,0,0,0-.01.01-.02.02-.03,0,0,0,0,0,0,0,0,.01-.02.02-.03,0,0,0,0,0-.01,0-.01.01-.02.02-.03,0,0,0,0,0-.01,0,0,.01-.02.02-.02,0,0,0,0,0-.01,0,0,.01-.02.02-.02,0,0,0,0,0-.01,0,0,.01-.02.02-.03,0,0,0,0,0-.01,0,0,.01-.02.02-.03,0,0,0,0,0-.01,0,0,.01-.02.02-.02,0,0,0-.01.01-.02s0-.01.01-.02c0,0,.01-.02.02-.02,0,0,0,0,0-.01,0,0,.01-.02.02-.03,0,0,0,0,0-.01,0-.01.02-.02.02-.03,0,0,0,0,0,0,.01-.02.03-.04.04-.06h0s.02-.03.03-.04h0s.02-.03.03-.04h0c.1-.13.19-.26.29-.39l-4.22-3.24h0Zm-2.96,4.15c-.58.88-1.16,1.79-1.7,2.7l4.56,2.74c.05-.08.09-.16.14-.24,0,0,0,0,0,0,0-.01.01-.02.02-.03,0,0,0,0,0,0,0-.01.01-.02.02-.03,0,0,0,0,0,0,0-.01.01-.02.02-.03,0,0,0,0,0,0,0,0,.01-.02.02-.03,0,0,0,0,0-.01,0,0,0-.02.02-.02,0,0,0,0,0-.01,0,0,.01-.02.02-.03,0,0,0,0,0-.01,0,0,.01-.02.02-.03,0,0,0-.01,0-.02,0,0,.01-.02.02-.03,0,0,0-.01.01-.02,0,0,0-.01.01-.02v-.02s.02-.01.02-.02c0,0,.01-.02.02-.03,0,0,0,0,0-.01,0,0,.01-.02.02-.03,0,0,0,0,0-.01,0,0,.01-.02.02-.02,0,0,0-.01.01-.02,0,0,0-.01.01-.02,0,0,0,0,0-.01,0-.01.01-.02.02-.03,0,0,0,0,0-.01,0-.01.01-.02.02-.03,0,0,0,0,0,0,0-.01.01-.02.02-.03,0,0,0,0,0,0,0-.01.01-.02.02-.03,0,0,0,0,0,0,0-.01.02-.03.03-.04h0s0-.01.01-.02c0,0,0,0,0,0,0-.01.02-.02.02-.04,0,0,0,0,0,0,0-.01.01-.02.02-.04,0,0,0,0,0,0,0-.01.02-.02.02-.04,0,0,0,0,0,0,0-.01.02-.03.02-.04h0s.03-.04.04-.07h0s.02-.03.02-.04c0,0,0,0,0,0l.02-.04s0,0,0,0c0-.01.01-.02.02-.04,0,0,0,0,0,0,0-.01.02-.03.02-.04h0s.03-.04.04-.06c0,0,0,0,0,0,0-.01.01-.02.02-.03,0,0,0,0,0,0,0-.01.01-.02.02-.03,0,0,0,0,0,0,0-.01.01-.02.02-.03,0,0,0,0,0,0l.02-.04s0,0,0,0c0,0,0-.01.01-.02,0,0,0,0,0-.01l.02-.03s0,0,0,0c0-.01.01-.02.02-.03,0,0,0,0,0,0,0-.01.01-.02.02-.03,0,0,0,0,0,0,0-.01.01-.02.02-.03,0,0,0,0,0,0,0-.01.02-.03.03-.04h0s0-.01.01-.02h0s.02-.03.03-.04c0,0,0,0,0,0,0-.01.01-.02.02-.03,0,0,0,0,0,0,0-.01.01-.02.02-.03,0,0,0,0,0,0,0-.01.01-.02.02-.03,0,0,0,0,0,0,.01-.02.03-.04.04-.06h0s.02-.03.03-.04c0,0,0,0,0,0l.02-.04h0s.02-.03.02-.04h0c.05-.09.11-.17.16-.25l-4.43-2.94h0Zm-2.67,4.35c-.52.92-1.03,1.87-1.51,2.81l4.74,2.41c.16-.31.31-.61.48-.92,0,0,0,0,0,0,0-.01.01-.02.02-.03,0,0,0,0,0,0,0-.01.01-.02.02-.03,0,0,0,0,0-.01,0,0,0-.01.01-.02,0,0,0-.01.01-.02,0,0,0-.01,0-.02,0,0,0-.02.01-.03,0,0,0-.01,0-.02,0,0,0-.02.01-.02,0,0,0-.01,0-.02,0,0,0-.02.01-.03,0,0,0,0,0-.01,0,0,.01-.02.02-.03,0,0,0,0,0,0,0-.01.01-.02.02-.03h0s.01-.03.02-.04c0,0,0,0,0,0,0-.01.01-.02.02-.03,0,0,0,0,0,0,.02-.04.04-.08.06-.12h0c.2-.38.41-.76.62-1.13l-4.63-2.62h0Zm-2.35,4.53c-.45.96-.89,1.94-1.31,2.91l4.9,2.07c.11-.26.22-.52.34-.78h0c.02-.06.05-.11.07-.16h0s.01-.03.02-.05h0s.01-.03.02-.05h0s.03-.08.05-.12c0,0,0,0,0,0,0-.01.01-.03.02-.04,0,0,0,0,0,0,0-.01.01-.03.02-.04h0s.01-.03.02-.05c0,0,0,0,0,0l.03-.07h0s.01-.03.02-.04c0,0,0,0,0,0,0-.01.01-.02.02-.04,0,0,0,0,0-.01,0-.01.01-.02.02-.03,0,0,0,0,0-.01,0-.01,0-.02.01-.03,0,0,0,0,0-.01,0,0,0-.01,0-.02,0,0,0,0,0-.01,0-.01.01-.02.02-.03,0,0,0,0,0-.01,0-.01.01-.02.02-.03,0,0,0,0,0,0,0-.01.01-.02.02-.03,0,0,0,0,0-.01,0-.01.01-.02.02-.04,0,0,0,0,0,0,.01-.02.02-.04.03-.07,0,0,0,0,0,0,0-.01.01-.02.02-.04,0,0,0,0,0,0,0-.01.01-.02.02-.03,0,0,0,0,0,0,0-.01.01-.02.02-.04,0,0,0,0,0,0l.03-.07h0s.01-.03.02-.04c0,0,0,0,0,0l.02-.04s0,0,0,0c0-.01.01-.03.02-.04,0,0,0,0,0,0l.05-.11h0s.01-.03.02-.05h0s.01-.03.02-.05h0c.05-.1.1-.21.15-.31l-4.8-2.28h0Zm-2.03,4.68c-.39.99-.75,1.99-1.1,3l5.03,1.72c.31-.91.64-1.8.98-2.69,0,0,0,0,0,0,0-.01.01-.03.02-.04,0,0,0,0,0,0,0-.01.01-.03.02-.04,0,0,0,0,0,0l-4.95-1.94h0Zm-1.69,4.82c-.31,1.01-.61,2.04-.88,3.07l5.14,1.35c.07-.26.14-.52.21-.78,0,0,0,0,0,0,0,0,0-.01,0-.02,0,0,0,0,0-.01,0,0,0,0,0,0,0,0,0-.01,0-.02,0,0,0,0,0,0,0,0,0-.01,0-.02,0,0,0,0,0,0,0,0,0-.01,0-.02,0,0,0,0,0,0,.15-.53.3-1.06.46-1.59,0,0,0,0,0,0,0,0,0-.01,0-.02,0,0,0,0,0,0,0,0,0-.01,0-.02,0,0,0,0,0,0,0,0,0-.01,0-.02,0,0,0,0,0,0,0,0,0-.01,0-.02,0,0,0,0,0,0,0,0,0-.01,0-.02,0,0,0,0,0,0,0-.01,0-.03.01-.04,0,0,0,0,0,0,0,0,0,0,0,0,0,0,0,0,0-.01,0,0,0,0,0,0,0,0,0,0,0-.01,0,0,0,0,0-.01,0,0,0,0,0-.01,0,0,0,0,0-.01,0,0,0,0,0-.01,0,0,0,0,0,0,0,0,0-.01,0-.02,0,0,0,0,0,0,0,0,0-.01,0-.02,0,0,0,0,0,0,0,0,0-.01,0-.02h0s0-.02,0-.03l-5.08-1.58h0Zm-1.34,4.92c-.24,1.03-.46,2.08-.66,3.12l5.23.99c.18-.97.39-1.93.61-2.89l-5.18-1.22h0Zm-.99,5.01c-.17,1.04-.32,2.11-.44,3.16l5.28.62c.04-.35.08-.69.13-1.04h0s0-.02,0-.02c0,0,0,0,0,0,0,0,0-.01,0-.02,0,0,0,0,0,0,0,0,0,0,0-.01,0,0,0,0,0-.01h0s0-.02,0-.02c0,0,0,0,0-.01,0,0,0-.01,0-.02,0,0,0,0,0,0,0-.02,0-.04,0-.06,0,0,0,0,0,0,0,0,0-.01,0-.02,0,0,0,0,0,0,0,0,0-.01,0-.02,0,0,0,0,0,0,0,0,0-.01,0-.02,0,0,0,0,0,0,.04-.29.08-.58.12-.87,0,0,0,0,0,0,0,0,0-.01,0-.02,0,0,0,0,0,0,0,0,0-.01,0-.02,0,0,0,0,0,0,0,0,0,0,0-.02,0,0,0,0,0,0,0,0,0-.01,0-.02,0,0,0-.01,0-.02,0,0,0,0,0,0,0,0,0-.01,0-.02,0,0,0,0,0,0,0,0,0-.01,0-.02,0,0,0,0,0,0,0,0,0-.01,0-.02,0,0,0,0,0,0,0,0,0-.01,0-.02h0c.03-.18.06-.36.08-.53l-5.25-.85h0Zm-.64,5.06c-.09,1.05-.17,2.12-.22,3.18l5.31.24c.05-.99.11-1.97.2-2.95l-5.3-.48H.29ZM.01,70.92c0,.49-.01.98-.01,1.47,0,.57,0,1.15.02,1.72l5.32-.12c0-.4-.02-.8-.02-1.19h0s0-.08,0-.12h0v-.02h0v-.03s0,0,0-.01v-.02h0v-.03h0v-.03h0s0-.02,0-.03h0v-.04h0v-.03h0v-.03h0v-.03h0v-.04h0v-.05h0v-.04h0s0-.03,0-.04h0v-.04h0s0-.03,0-.04v-.04s0-.02,0-.03v-.02s0-.01,0-.02h0s0-.04,0-.05h0s0-.06,0-.08h0c0-.17,0-.34,0-.51h0s0-.05,0-.08c0,0,0,0,0-.02,0,0,0-.02,0-.03,0,0,0-.02,0-.02,0,0,0,0,0-.01,0-.01,0-.02,0-.04h0c0-.06,0-.11,0-.17l-5.32-.11H.01Zm5.39,4.83l-5.31.26c.05,1.06.13,2.13.23,3.18l5.3-.49c-.06-.66-.11-1.33-.16-2,0,0,0,0,0,0,0,0,0-.01,0-.02,0,0,0,0,0,0,0,0,0-.01,0-.02,0,0,0,0,0-.01h0s0-.02,0-.03c0,0,0,0,0-.01,0,0,0,0,0-.01,0,0,0,0,0,0-.02-.27-.03-.55-.05-.83h0Zm.4,4.71l-5.28.63c.13,1.05.28,2.11.45,3.16l5.25-.87s0,0,0,0c0,0,0,0,0-.02,0,0,0,0,0,0,0,0,0-.01,0-.02,0,0,0,0,0,0,0,0,0-.01,0-.02,0,0,0,0,0,0,0,0,0-.01,0-.02h0c-.15-.89-.27-1.79-.38-2.7,0,0,0,0,0,0,0,0,0-.01,0-.02h0s0-.02,0-.02c0,0,0,0,0,0,0-.03,0-.06-.01-.09,0,0,0,0,0,0h0Zm.73,4.67l-5.22,1c.2,1.04.43,2.09.67,3.12l5.17-1.24c-.11-.46-.22-.93-.32-1.39h0s0-.01,0-.02c0,0,0,0,0,0,0,0,0-.01,0-.02,0,0,0,0,0,0,0,0,0-.01,0-.01,0,0,0,0,0-.01,0,0,0,0,0-.01,0,0,0,0,0-.01,0,0,0,0,0-.01,0,0,0-.01,0-.02,0,0,0,0,0,0,0,0,0-.02,0-.02h0s0-.02,0-.02c0,0,0,0,0,0,0,0,0-.01,0-.02,0,0,0,0,0,0,0,0,0-.01,0-.02h0s0-.02,0-.03h0c-.08-.37-.15-.73-.22-1.1,0,0,0,0,0,0,0,0,0-.01,0-.02,0,0,0,0,0-.01,0,0,0,0,0-.01,0,0,0,0,0-.01h0s0-.02,0-.03c0,0,0,0,0,0,0-.02,0-.03,0-.04h0Zm1.06,4.61l-5.14,1.37c.27,1.02.57,2.05.89,3.06l5.07-1.6c-.1-.31-.19-.62-.29-.93h0s0-.02,0-.02h0s0-.02,0-.02h0s0-.02,0-.03h0s0-.02,0-.02h0s-.01-.05-.02-.07h0s0-.02,0-.02c0,0,0,0,0,0,0,0,0-.01,0-.02h0s0-.02,0-.02c0,0,0,0,0,0,0,0,0-.01,0-.02h0s0-.02,0-.02h0s-.01-.05-.02-.08h0s0-.02,0-.02c0,0,0,0,0,0,0,0,0-.01,0-.02h0s0-.02,0-.02h0s0-.02,0-.03h0s0-.02,0-.02h0c-.14-.47-.27-.94-.39-1.41h0Zm1.38,4.52l-5.03,1.73c.34,1,.72,2.01,1.11,2.99l4.95-1.95c-.36-.91-.7-1.84-1.02-2.77h0Zm1.7,4.41l-4.89,2.09c.42.97.86,1.95,1.32,2.91l4.8-2.3c-.24-.5-.47-1-.7-1.51,0,0,0,0,0,0,0-.01-.01-.03-.02-.04,0,0,0,0,0,0,0-.01-.01-.03-.02-.04h0s-.01-.03-.02-.04c0,0,0,0,0,0,0,0-.01-.02-.01-.03,0,0,0,0,0-.01,0,0,0-.02-.01-.03,0,0,0,0,0,0,0,0-.01-.02-.01-.03,0,0,0,0,0-.01,0,0,0-.02-.01-.03,0,0,0,0,0-.01,0,0,0-.02-.01-.03,0,0,0-.01,0-.02,0,0,0-.01,0-.02,0,0,0-.01-.01-.02,0,0,0-.01,0-.02,0,0,0-.02-.01-.03,0,0,0,0,0-.02v-.03s-.02,0-.02-.01c0,0,0-.01,0-.02,0,0,0,0,0,0,0-.01-.01-.03-.02-.04,0,0,0,0,0,0,0-.01-.01-.03-.02-.04,0,0,0,0,0,0,0-.01-.01-.03-.02-.04h0c-.08-.18-.15-.35-.23-.53h0Zm2.01,4.28l-4.73,2.43c.48.94.99,1.89,1.52,2.81l4.62-2.63c-.11-.19-.21-.37-.32-.56,0,0,0,0,0,0,0-.01-.01-.02-.02-.04,0,0,0,0,0,0,0-.01-.01-.02-.02-.03,0,0,0,0,0,0,0-.01-.01-.02-.02-.03,0,0,0,0,0-.01,0,0,0-.02-.01-.03,0,0,0,0,0-.01,0,0,0-.02-.01-.02h0s0-.03-.01-.04v-.02s-.02-.02-.02-.03v-.02s-.02-.02-.02-.02c0,0,0-.01-.01-.02,0,0,0-.01,0-.02,0,0-.01-.02-.02-.03,0,0,0,0,0-.01,0-.01-.01-.02-.02-.03,0,0,0,0,0-.01,0,0-.01-.02-.02-.03,0,0,0-.01,0-.01,0,0,0-.01-.01-.02,0,0,0-.02-.01-.02,0,0,0-.01-.01-.02,0,0,0,0,0-.01,0-.01-.01-.02-.02-.03,0,0,0,0,0-.01,0-.01-.01-.02-.02-.03,0,0,0,0,0-.01,0-.01-.01-.02-.02-.03,0,0,0,0,0-.01,0-.01-.01-.02-.02-.03,0,0,0,0,0,0,0,0,0-.01-.01-.02,0,0,0,0,0,0,0-.01-.01-.03-.02-.04,0,0,0,0,0-.01,0-.01-.01-.02-.02-.03,0,0,0,0,0-.01,0-.01-.01-.02-.02-.03,0,0,0,0,0-.01,0-.01-.01-.02-.02-.03,0,0,0,0,0,0l-.02-.03s0,0,0,0c0,0,0-.01-.01-.02h0s-.01-.03-.02-.04c0,0,0,0,0-.01,0-.01-.01-.02-.02-.03,0,0,0,0,0,0,0-.01-.01-.02-.02-.03,0,0,0,0,0,0,0-.01-.01-.02-.02-.03,0,0,0,0,0-.01,0,0,0-.01-.01-.02,0,0,0,0,0,0,0-.01-.01-.03-.02-.04,0,0,0,0,0,0,0-.01-.01-.02-.02-.04,0,0,0,0,0,0,0-.01-.01-.02-.02-.03,0,0,0,0,0,0,0-.01-.01-.03-.02-.04,0,0,0,0,0,0-.12-.22-.23-.45-.35-.67h0Zm2.3,4.13l-4.55,2.75c.55.9,1.12,1.81,1.71,2.69l4.42-2.95c-.13-.19-.26-.38-.38-.58,0,0,0,0,0,0,0-.01-.02-.03-.02-.04,0,0,0,0,0,0,0-.01-.01-.02-.02-.03,0,0,0,0,0,0,0-.01-.02-.02-.02-.04,0,0,0,0,0,0,0-.01-.02-.02-.02-.03,0,0,0,0,0,0,0-.01-.01-.02-.02-.03,0,0,0,0,0,0,0,0-.01-.02-.02-.03h0s-.01-.03-.02-.04h0s-.01-.03-.02-.04c0,0,0,0,0-.01,0,0,0-.01-.01-.02,0,0,0-.01-.01-.02,0,0,0-.01-.01-.02,0,0,0-.01-.01-.02,0,0,0-.01-.01-.02,0,0,0,0,0-.01,0,0-.01-.02-.02-.03,0,0,0-.01-.01-.02,0,0-.01-.02-.02-.02,0,0,0-.01-.01-.02,0,0,0,0-.01-.02,0,0-.01-.02-.02-.02,0,0,0,0,0-.01,0,0-.01-.02-.02-.03,0,0,0,0,0-.01,0-.01-.01-.02-.02-.03,0,0,0,0,0,0,0-.01-.02-.03-.03-.04h0s0-.01-.01-.02c0,0,0,0,0,0,0-.01-.02-.03-.02-.04,0,0,0,0,0,0,0-.01-.01-.02-.02-.03,0,0,0,0,0,0l-.02-.03s0,0,0,0l-.02-.03s0,0,0,0c-.02-.03-.04-.07-.07-.1h0s-.02-.03-.02-.04c0,0,0,0,0,0,0-.01-.02-.02-.02-.04,0,0,0,0,0,0,0-.01-.02-.03-.02-.04h0s-.03-.05-.04-.07h0s-.02-.03-.03-.04c0,0,0,0,0,0,0-.01-.02-.03-.02-.04h0s-.02-.03-.02-.04c0,0,0,0,0,0,0-.01-.02-.03-.02-.04h0s-.03-.04-.04-.07h0s-.02-.03-.02-.04c0,0,0,0,0,0,0-.01-.01-.02-.02-.03,0,0,0,0,0,0,0-.01-.01-.02-.02-.03,0,0,0,0,0,0,0-.01-.02-.03-.02-.04h0s-.03-.04-.04-.06c0,0,0,0,0-.01,0-.01-.01-.02-.02-.03,0,0,0,0,0-.01,0-.01-.01-.02-.02-.03,0,0,0,0,0-.01,0-.01-.01-.02-.02-.03,0,0,0,0,0-.01,0,0-.01-.02-.02-.03,0,0,0-.01-.01-.02,0,0,0-.01-.01-.02,0,0,0-.02-.01-.02,0,0,0-.01-.01-.02,0,0,0,0,0-.01,0,0,0-.01,0-.02h0Zm2.59,3.95l-4.34,3.07c.61.86,1.25,1.73,1.9,2.56l4.21-3.26c-.14-.17-.27-.35-.4-.53h0s-.02-.03-.03-.04c0,0,0,0,0,0,0-.01-.02-.02-.02-.03,0,0,0,0,0,0,0,0-.01-.02-.02-.03,0,0,0,0,0-.01,0,0,0-.01-.01-.02,0,0-.01-.02-.02-.02,0,0,0-.01-.01-.02,0,0-.01-.02-.02-.02,0,0,0,0-.01-.01,0,0-.01-.02-.02-.02,0,0,0,0,0-.01,0,0-.01-.02-.02-.02,0,0,0,0,0-.01,0,0-.01-.02-.02-.03,0,0,0,0,0,0,0-.01-.02-.02-.02-.03,0,0,0,0,0,0,0-.01-.02-.02-.02-.03,0,0,0,0,0,0l-.03-.03s0,0,0,0c-.35-.47-.69-.94-1.03-1.42h0Zm2.86,3.76l-4.12,3.36c.67.82,1.37,1.63,2.07,2.42l3.97-3.54c-.66-.73-1.3-1.48-1.92-2.25h0Zm3.12,3.55l-3.87,3.65c.72.77,1.48,1.53,2.23,2.27l3.71-3.81s0,0,0,0c0,0-.02-.02-.02-.02,0,0,0,0,0,0,0,0-.01-.01-.02-.02,0,0,0,0-.01,0,0,0-.02-.02-.02-.02,0,0,0,0-.01-.01,0,0-.01-.01-.02-.02,0,0,0,0-.01-.01,0,0-.01-.01-.02-.02,0,0-.01-.01-.02-.02,0,0-.01-.01-.02-.02,0,0,0,0-.01-.01,0,0-.01-.01-.02-.02,0,0,0,0-.01-.01,0,0-.01-.01-.02-.02h-.01s-.01-.03-.02-.03c0,0,0,0-.01-.01,0,0-.01-.01-.02-.02,0,0-.01-.01-.02-.02,0,0-.01-.01-.02-.02,0,0-.01-.01-.02-.02,0,0-.01-.01-.02-.02,0,0-.01-.01-.02-.02,0,0-.01-.01-.02-.02,0,0,0,0-.01-.01,0,0-.01-.01-.02-.02,0,0,0,0-.01-.01,0,0-.01-.01-.02-.02,0,0,0,0-.01-.01s-.01-.01-.02-.02c0,0-.01-.01-.02-.02,0,0,0,0-.01-.01,0,0-.01-.01-.02-.02,0,0-.01-.01-.01-.01,0,0-.01-.01-.02-.02,0,0-.01-.01-.02-.02,0,0,0,0-.01-.01,0,0-.01-.01-.02-.02,0,0,0,0-.01-.01,0,0-.01-.01-.02-.02,0,0,0,0-.01-.01,0,0-.01-.01-.02-.02,0,0-.01-.01-.02-.02,0,0-.01-.01-.01-.02,0,0-.01-.01-.02-.02,0,0,0,0-.01-.01,0,0-.01-.01-.02-.02,0,0,0,0-.02-.02,0,0,0,0-.01-.01,0,0-.01-.01-.02-.02,0,0,0,0-.01-.01,0,0-.01-.01-.02-.02,0,0,0,0-.01-.01,0,0-.01-.01-.02-.02,0,0-.01-.01-.02-.02,0,0-.01-.01-.02-.02l-.02-.02s-.01-.01-.01-.01c0,0-.01-.01-.02-.02,0,0-.01-.01-.02-.02,0,0,0,0-.01-.01,0,0-.01-.01-.02-.02,0,0,0,0-.01-.01,0,0-.01-.01-.02-.02h-.01s-.01-.02-.02-.03c0,0-.01-.01-.02-.02,0,0-.01-.01-.02-.02,0,0-.01-.01-.02-.02,0,0,0,0-.02-.02,0,0-.01-.01-.02-.02,0,0-.01-.01-.02-.02,0,0,0,0-.01-.01,0,0-.01-.01-.02-.02,0,0,0,0-.01-.01,0,0-.01-.02-.02-.02,0,0,0,0-.01-.01,0,0-.01-.01-.02-.02,0,0-.01-.01-.02-.02,0,0-.01-.01-.01-.02,0,0-.01-.01-.02-.02s0,0-.01-.02c0,0-.01-.01-.02-.02,0,0-.01-.01-.01-.02v-.02s-.03-.01-.03-.02c0,0,0,0-.01-.01,0,0-.01-.01-.02-.02,0,0,0,0-.01-.01,0,0-.01-.01-.02-.02,0,0,0-.01-.01-.01,0,0,0,0-.01-.01,0,0-.01-.01-.02-.02,0,0,0,0-.01-.01,0,0-.01-.02-.02-.02,0,0,0,0-.01-.01,0,0-.01-.02-.02-.02,0,0,0,0-.01-.01v-.02s-.03-.01-.03-.02c0,0,0-.01-.01-.02,0,0,0,0-.01-.01,0,0-.02-.02-.02-.02,0,0,0,0,0,0,0,0-.02-.02-.02-.03,0,0,0,0,0,0,0,0-.02-.02-.03-.03,0,0,0,0,0,0-.01-.01-.02-.02-.03-.03h0c-.09-.09-.18-.19-.26-.28h0Zm3.36,3.33l-3.61,3.91c.78.72,1.58,1.43,2.39,2.11l3.43-4.06s0,0,0,0c0,0-.02-.02-.03-.02,0,0,0,0,0,0,0,0-.02-.01-.03-.02,0,0,0,0-.01,0,0,0-.02-.02-.03-.02h-.01s-.02-.02-.02-.03c0,0,0,0-.01-.01,0,0-.01-.01-.02-.02,0,0-.01,0-.01-.01,0,0-.01-.01-.02-.02,0,0-.01,0-.02-.01,0,0-.01-.01-.02-.02,0,0-.01,0-.01-.01,0,0-.01-.01-.02-.02,0,0-.01,0-.02-.01,0,0-.01-.01-.02-.02,0,0-.01-.01-.02-.02,0,0,0,0-.01,0,0,0-.02-.02-.03-.02,0,0,0,0,0,0-.01,0-.02-.02-.03-.03,0,0,0,0,0,0-.01,0-.02-.02-.03-.03h0c-.06-.05-.11-.1-.17-.15h0c-.54-.47-1.07-.95-1.6-1.43h0Zm3.58,3.08l-3.33,4.15c.83.66,1.68,1.31,2.53,1.94l3.14-4.29s0,0-.01-.01c0,0,0,0,0,0-.01,0-.02-.02-.03-.02,0,0,0,0,0,0-.01,0-.02-.02-.03-.02,0,0,0,0,0,0-.02-.01-.04-.03-.06-.04,0,0,0,0,0,0-.01,0-.02-.02-.03-.02,0,0,0,0,0,0,0,0-.02-.01-.03-.02,0,0,0,0-.01,0-.01,0-.02-.02-.03-.02,0,0,0,0,0,0l-.03-.02s0,0,0,0c0,0-.01,0-.02-.01,0,0,0,0,0,0-.01,0-.02-.02-.03-.02,0,0,0,0-.01,0,0,0-.02-.01-.02-.02,0,0,0,0-.01,0,0,0-.02-.01-.03-.02,0,0-.01,0-.01-.01,0,0-.01-.01-.02-.02,0,0-.01,0-.02-.01h-.01s-.02-.02-.02-.03c0,0,0,0-.01,0l-.02-.02s0,0-.01-.01c0,0-.02-.01-.03-.02,0,0,0,0-.01,0,0,0-.02-.01-.02-.02,0,0,0,0-.01,0,0,0-.02-.01-.02-.02,0,0,0,0,0,0-.01,0-.02-.01-.03-.02,0,0,0,0,0,0,0,0-.02-.02-.03-.02h0s-.02-.02-.03-.03c0,0,0,0,0,0-.01,0-.02-.01-.03-.02,0,0,0,0,0,0-.01,0-.02-.02-.03-.03,0,0,0,0,0,0-.01,0-.02-.02-.04-.03,0,0,0,0,0,0-.01,0-.02-.02-.04-.03,0,0,0,0,0,0-.01,0-.02-.02-.04-.03,0,0,0,0,0,0-.01-.01-.02-.02-.04-.03h0c-.44-.33-.88-.68-1.31-1.02h0Zm3.79,2.82l-3.03,4.37c.87.6,1.77,1.19,2.66,1.76l2.83-4.5c-.63-.39-1.24-.8-1.85-1.21h0s-.02-.02-.03-.03c0,0,0,0,0,0-.01,0-.02-.01-.03-.02,0,0,0,0-.01,0,0,0-.01,0-.02-.01,0,0-.02-.01-.03-.02,0,0,0,0,0,0-.16-.11-.31-.21-.47-.32h0Zm3.98,2.55l-2.71,4.58c.91.54,1.85,1.07,2.78,1.56l2.51-4.69c-.17-.09-.34-.18-.51-.28h0s-.02-.01-.03-.02c0,0,0,0-.01,0,0,0-.01,0-.02-.01,0,0-.01,0-.02-.01,0,0-.01,0-.02,0,0,0-.01,0-.02-.01,0,0-.01,0-.02,0,0,0-.02-.01-.03-.01,0,0,0,0,0,0-.01,0-.02-.01-.03-.02,0,0,0,0,0,0-.01,0-.02-.01-.04-.02h0s-.03-.02-.04-.02c0,0,0,0,0,0-.38-.21-.75-.42-1.12-.63,0,0,0,0,0,0-.01,0-.03-.01-.04-.02,0,0,0,0,0,0l-.04-.02s0,0,0,0c-.01,0-.02-.01-.03-.02,0,0,0,0,0,0,0,0-.02-.01-.03-.02h-.01s-.02-.02-.03-.02h-.02s-.01-.02-.02-.02c0,0-.02-.01-.03-.01,0,0,0,0,0,0-.13-.07-.25-.15-.38-.22h0Zm4.15,2.26l-2.38,4.76c.95.47,1.92.93,2.88,1.36l2.17-4.86s0,0-.01,0c0,0-.01,0-.02,0,0,0-.01,0-.02,0,0,0-.02,0-.03-.01,0,0,0,0-.01,0,0,0-.02,0-.03-.01,0,0,0,0-.01,0,0,0-.02,0-.03-.01,0,0,0,0-.01,0,0,0-.02,0-.03-.01,0,0,0,0,0,0-.01,0-.02-.01-.03-.02,0,0,0,0,0,0-.01,0-.02-.01-.04-.02,0,0,0,0,0,0-.01,0-.02-.01-.04-.02,0,0,0,0,0,0-.01,0-.02-.01-.04-.02,0,0,0,0,0,0-.04-.02-.08-.04-.12-.06h0s-.03-.01-.04-.02c0,0,0,0,0,0-.01,0-.03-.01-.04-.02,0,0,0,0,0,0-.04-.02-.08-.04-.12-.06,0,0,0,0,0,0-.01,0-.03-.01-.04-.02,0,0,0,0,0,0-.01,0-.03-.01-.04-.02,0,0,0,0,0,0-.01,0-.03-.01-.04-.02,0,0,0,0,0,0-.03-.01-.05-.02-.08-.04,0,0,0,0,0,0-.01,0-.02-.01-.04-.02,0,0,0,0,0,0-.01,0-.02-.01-.04-.02,0,0,0,0,0,0-.01,0-.02-.01-.03-.02,0,0,0,0,0,0-.01,0-.02-.01-.03-.02,0,0,0,0,0,0,0,0-.02,0-.03-.01,0,0,0,0-.01,0,0,0-.02,0-.03-.01,0,0,0,0-.01,0,0,0-.02,0-.03-.01h-.01s-.02-.02-.03-.02c0,0-.01,0-.02,0,0,0-.01,0-.02,0,0,0-.02,0-.02-.01h-.02s-.02-.02-.03-.02c0,0,0,0-.01,0-.01,0-.02,0-.03-.01,0,0,0,0-.01,0-.02-.01-.04-.02-.07-.03h0s-.03-.01-.04-.02h0s-.03-.01-.04-.02h0c-.37-.18-.73-.35-1.1-.54h0Zm4.3,1.97l-2.04,4.91c.98.41,1.98.8,2.97,1.16l1.82-5s-.03-.01-.04-.02c0,0,0,0,0,0-.01,0-.03,0-.04-.02,0,0,0,0,0,0-.01,0-.03-.01-.04-.01h0s-.03-.01-.04-.02c0,0,0,0,0,0-.01,0-.02,0-.03-.01,0,0,0,0,0,0-.01,0-.02,0-.03-.01,0,0,0,0-.01,0-.01,0-.02,0-.03-.01h-.01s-.02-.01-.03-.02c0,0-.01,0-.02,0,0,0-.01,0-.02,0,0,0-.02,0-.02,0,0,0-.01,0-.02,0,0,0-.02,0-.03-.01,0,0-.01,0-.01,0-.01,0-.02,0-.03-.01,0,0,0,0-.01,0-.04-.01-.08-.03-.12-.04h0c-.7-.26-1.39-.53-2.07-.82h0s-.04-.02-.06-.02h0Zm4.43,1.66l-1.69,5.04c1,.34,2.03.65,3.05.94l1.46-5.11c-.09-.03-.18-.05-.27-.08,0,0-.02,0-.02,0,0,0,0,0,0,0,0,0-.01,0-.02,0h0c-.84-.25-1.68-.51-2.5-.78h0Zm4.53,1.34l-1.32,5.15c1.03.26,2.07.51,3.11.72l1.09-5.2c-.97-.2-1.93-.43-2.88-.67h0Zm4.62,1.01l-.95,5.23c1.04.19,2.1.36,3.15.5l.72-5.27s-.03,0-.04,0c0,0,0,0,0,0,0,0-.01,0-.02,0,0,0,0,0,0,0,0,0-.01,0-.02,0h0s-.01,0-.02,0c0,0,0,0,0,0,0,0-.01,0-.02,0,0,0,0,0,0,0,0,0,0,0-.02,0,0,0,0,0,0,0-.02,0-.04,0-.06,0h0s0,0-.01,0c0,0,0,0,0,0,0,0-.01,0-.01,0,0,0,0,0,0,0,0,0-.01,0-.02,0,0,0,0,0,0,0,0,0-.01,0-.01,0,0,0,0,0-.01,0,0,0,0,0-.01,0h-.01s0,0-.01,0c0,0-.01,0-.02,0,0,0-.01,0-.02,0,0,0,0,0-.01,0,0,0,0,0-.01,0,0,0,0,0-.01,0,0,0,0,0-.01,0,0,0,0,0-.01,0s0,0-.01,0c0,0,0,0-.01,0,0,0,0,0-.01,0,0,0,0,0-.01,0s0,0-.01,0c0,0-.01,0-.02,0,0,0,0,0,0,0,0,0-.01,0-.02,0,0,0-.01,0-.02,0h-.01s0,0-.01,0c0,0,0,0-.01,0,0,0,0,0-.01,0,0,0,0,0-.01,0,0,0,0,0-.01,0,0,0,0,0-.01,0,0,0,0,0-.01,0,0,0,0,0-.01,0,0,0,0,0-.01,0,0,0,0,0-.01,0,0,0,0,0-.01,0,0,0-.01,0-.02,0,0,0-.01,0-.02,0,0,0-.01,0-.02,0,0,0,0,0-.01,0,0,0,0,0-.01,0,0,0,0,0-.01,0,0,0,0,0-.01,0,0,0,0,0-.01,0,0,0,0,0-.01,0,0,0,0,0-.01,0,0,0,0,0-.01,0,0,0,0,0-.01,0,0,0,0,0-.01,0,0,0,0,0-.01,0,0,0,0,0-.01,0-.02,0-.04,0-.05,0h0s-.01,0-.02,0c0,0,0,0,0,0,0,0-.01,0-.02,0,0,0,0,0,0,0,0,0-.01,0-.02,0,0,0,0,0,0,0,0,0-.01,0-.02,0h0s0,0-.02,0c0,0,0,0,0,0-.03,0-.06,0-.08-.01,0,0,0,0,0,0,0,0-.01,0-.02,0,0,0,0,0,0,0,0,0-.01,0-.02,0,0,0,0,0,0,0,0,0-.01,0-.02,0h0s-.01,0-.02,0c0,0,0,0,0,0-.55-.09-1.09-.18-1.63-.28h0Zm4.68.68l-.58,5.29c1.05.12,2.12.21,3.18.28l.35-5.31c-.21-.01-.43-.03-.64-.05h0s-.02,0-.02,0c0,0,0,0,0,0,0,0-.01,0-.02,0h0s-.02,0-.03,0c0,0,0,0,0,0,0,0,0,0-.01,0,0,0-.01,0-.02,0,0,0,0,0,0,0,0,0-.01,0-.02,0,0,0,0,0,0,0-.48-.04-.95-.08-1.42-.13,0,0,0,0,0,0-.03,0-.05,0-.08,0h-.01s0,0-.01,0c0,0,0,0-.01,0,0,0,0,0-.01,0,0,0-.01,0-.02,0,0,0,0,0,0,0,0,0-.01,0-.02,0h0c-.19-.02-.37-.04-.55-.06h0Zm4.71.35l-.21,5.31c.97.04,1.96.06,2.94.06h.25s-.02-5.32-.02-5.32c-.08,0-.15,0-.23,0h-.09s-.02,0-.03,0h0s-.02,0-.04,0h0s-.02,0-.03,0h0s-.03,0-.04,0h-.01s-.02,0-.04,0h0s-.02,0-.03,0h-.01s-.02,0-.03,0h-.01s-.02,0-.03,0h-.01s-.02,0-.03,0c0,0,0,0-.01,0,0,0-.02,0-.03,0,0,0-.01,0-.01,0,0,0-.02,0-.03,0,0,0,0,0-.01,0-.01,0-.02,0-.03,0,0,0-.01,0-.01,0,0,0-.02,0-.02,0,0,0-.01,0-.02,0,0,0-.02,0-.03,0,0,0-.01,0-.02,0,0,0-.01,0-.02,0,0,0-.01,0-.02,0-.01,0-.02,0-.03,0,0,0-.01,0-.02,0,0,0-.02,0-.02,0,0,0-.01,0-.02,0,0,0-.01,0-.02,0,0,0-.01,0-.02,0,0,0-.01,0-.02,0h-.02s-.01,0-.02,0c0,0-.01,0-.02,0,0,0-.02,0-.03,0,0,0-.01,0-.02,0,0,0-.01,0-.01,0-.01,0-.02,0-.04,0,0,0,0,0-.01,0,0,0-.01,0-.02,0,0,0,0,0-.01,0-.01,0-.02,0-.04,0,0,0,0,0-.01,0h-.02s0,0,0,0c-.01,0-.03,0-.04,0,0,0,0,0,0,0-.02,0-.05,0-.07,0,0,0,0,0,0,0-.02,0-.03,0-.05,0h0s-.02,0-.03,0h0s-.03,0-.05,0h0s-.05,0-.08,0c0,0,0,0,0,0-.03,0-.05,0-.08,0h0s-.03,0-.05,0h0s-.05,0-.08,0c0,0,0,0,0,0-.03,0-.05,0-.08,0h0s-.05,0-.08,0h0s-.03,0-.05,0c0,0,0,0,0,0,0,0-.02,0-.03,0h0s-.03,0-.05,0c0,0,0,0,0,0-.02,0-.05,0-.07,0,0,0,0,0-.01,0-.01,0-.03,0-.04,0,0,0,0,0-.01,0,0,0-.01,0-.02,0,0,0-.01,0-.01,0h-.04s0,0-.01,0c0,0-.01,0-.02,0,0,0-.01,0-.02,0,0,0-.02,0-.03,0,0,0-.01,0-.02,0,0,0-.01,0-.02,0,0,0-.02,0-.03,0,0,0-.01,0-.02,0,0,0-.01,0-.02,0h-.02s-.02,0-.03,0c0,0,0,0-.01,0-.01,0-.02,0-.03,0,0,0,0,0,0,0-.01,0-.02,0-.03,0,0,0,0,0-.01,0-.01,0-.02,0-.04,0,0,0,0,0,0,0-.01,0-.02,0-.04,0h0s-.03,0-.04,0c0,0,0,0,0,0-.01,0-.03,0-.04,0h0Zm7.68-.13c-.95.07-1.9.12-2.86.15h0s-.06,0-.09,0l.16,5.32c1.06-.03,2.13-.09,3.18-.16l-.39-5.3h0Zm4.7-.51c-.35.05-.7.1-1.06.14h0s-.02,0-.02,0h0s-.01,0-.02,0c0,0,0,0,0,0,0,0-.01,0-.02,0,0,0,0,0,0,0h-.02s0,0,0,0c0,0-.02,0-.02,0,0,0,0,0,0,0h-.01s0,0-.01,0c0,0,0,0-.01,0,0,0,0,0-.01,0,0,0,0,0,0,0,0,0-.01,0-.01,0,0,0,0,0,0,0,0,0-.01,0-.02,0,0,0,0,0,0,0-.54.07-1.08.13-1.63.18l.53,5.29c1.05-.1,2.12-.23,3.17-.39l-.76-5.26h0Zm4.65-.84c-.16.03-.31.07-.47.1,0,0,0,0,0,0h-.02s0,0,0,0c0,0-.01,0-.02,0,0,0,0,0,0,0,0,0,0,0-.01,0,0,0,0,0-.01,0s0,0-.01,0c0,0,0,0-.01,0,0,0,0,0-.01,0-.77.16-1.54.31-2.32.44l.9,5.24c1.04-.18,2.1-.38,3.13-.61l-1.13-5.2h0Zm4.58-1.17c-.57.17-1.14.33-1.71.48h-.02s0,0,0,0c0,0-.01,0-.02,0,0,0,0,0,0,0,0,0-.01,0-.02,0,0,0,0,0,0,0,0,0,0,0-.02,0,0,0,0,0,0,0-.01,0-.02,0-.03,0,0,0,0,0,0,0,0,0,0,0,0,0,0,0-.01,0-.02,0,0,0,0,0,0,0,0,0-.01,0-.02,0,0,0,0,0,0,0,0,0-.01,0-.02,0,0,0,0,0,0,0,0,0-.01,0-.02,0h0s-.01,0-.02,0h0c-.29.08-.59.15-.88.22l1.27,5.17c1.03-.25,2.07-.53,3.08-.83l-1.49-5.1h0Zm4.49-1.49c-.92.34-1.85.67-2.79.97l1.63,5.06c1.01-.32,2.02-.68,3.01-1.05l-1.85-4.99h0Zm4.37-1.8c-.32.15-.64.29-.97.43h0s-.03.01-.04.02c0,0,0,0,0,0-.01,0-.03.01-.04.02,0,0,0,0,0,0-.01,0-.03.01-.04.02h0s-.05.02-.08.04c0,0,0,0,0,0-.01,0-.02.01-.04.02,0,0,0,0,0,0-.01,0-.03.01-.04.02,0,0,0,0,0,0-.01,0-.02.01-.04.02h0s-.03.01-.04.02c0,0,0,0,0,0-.01,0-.03.01-.04.02,0,0,0,0,0,0-.01,0-.03.01-.04.02,0,0,0,0,0,0-.01,0-.02.01-.04.02,0,0,0,0,0,0-.01,0-.02,0-.04.02,0,0,0,0,0,0-.01,0-.03.01-.04.02,0,0,0,0,0,0-.01,0-.02.01-.04.02,0,0,0,0,0,0-.01,0-.03.01-.04.02,0,0,0,0,0,0-.01,0-.02.01-.04.02h0s-.02.01-.04.02c0,0,0,0,0,0-.01,0-.03.01-.04.02,0,0,0,0,0,0-.01,0-.02.01-.04.02,0,0,0,0,0,0-.01,0-.02.01-.04.02,0,0,0,0,0,0-.01,0-.02,0-.04.01,0,0,0,0,0,0-.01,0-.02,0-.04.01,0,0,0,0,0,0-.01,0-.02.01-.04.02,0,0,0,0,0,0-.01,0-.02.01-.04.02,0,0,0,0,0,0-.01,0-.03.01-.04.02,0,0,0,0,0,0-.01,0-.02,0-.04.02h0s-.02.01-.04.02c0,0,0,0,0,0-.01,0-.02,0-.04.02,0,0,0,0,0,0-.03.01-.05.02-.08.03,0,0,0,0,0,0-.01,0-.03.01-.04.02,0,0,0,0,0,0-.01,0-.03.01-.04.02,0,0,0,0,0,0-.06.02-.11.05-.17.07h0c-.06.02-.11.05-.17.07l1.99,4.93c.98-.4,1.97-.82,2.93-1.26l-2.2-4.84h0Zm4.23-2.11c-.11.06-.22.12-.32.17,0,0,0,0,0,0-.01,0-.03.01-.04.02h0s-.03.01-.04.02c0,0,0,0,0,0-.03.01-.05.03-.08.04,0,0,0,0,0,0-.01,0-.02.01-.04.02,0,0,0,0,0,0-.01,0-.02.01-.03.02,0,0,0,0,0,0-.01,0-.02.01-.03.02,0,0,0,0,0,0-.01,0-.02.01-.03.02,0,0,0,0,0,0,0,0-.02,0-.03.01,0,0,0,0-.01,0,0,0-.02,0-.03.01,0,0,0,0-.01,0,0,0-.02.01-.03.01,0,0-.01,0-.02,0,0,0-.02,0-.03.01,0,0-.01,0-.02,0,0,0-.01,0-.02,0,0,0-.02,0-.02.01,0,0,0,0-.01,0,0,0-.02.01-.03.02,0,0,0,0-.01,0l-.03.02s0,0,0,0c-.04.02-.07.04-.11.06h0c-.38.2-.77.39-1.15.59h0s-.03.01-.04.02c0,0,0,0,0,0-.01,0-.02.01-.03.02,0,0,0,0-.01,0,0,0-.01,0-.02,0,0,0-.02,0-.03.01,0,0,0,0-.01,0-.01,0-.02,0-.03.01,0,0,0,0-.01,0-.01,0-.02.01-.03.02h0c-.06.03-.11.06-.16.08l2.33,4.78c.95-.46,1.91-.95,2.84-1.46l-2.54-4.67h0Zm4.07-2.4c-.19.12-.38.24-.57.36,0,0,0,0,0,0-.02.01-.04.03-.06.04,0,0-.01,0-.01,0,0,0-.02.01-.02.02,0,0-.01,0-.02.01,0,0-.01,0-.02.01,0,0-.01,0-.02.01,0,0,0,0-.01,0,0,0-.02.01-.03.02,0,0,0,0-.01,0,0,0-.02.01-.03.02,0,0,0,0,0,0-.01,0-.02.01-.03.02,0,0,0,0,0,0-.01,0-.02.01-.03.02,0,0,0,0,0,0-.02.02-.05.03-.08.05,0,0,0,0,0,0-.01,0-.02.02-.04.02,0,0,0,0,0,0-.01,0-.03.02-.04.02,0,0,0,0,0,0-.21.13-.42.26-.63.38,0,0,0,0,0,0-.01,0-.02.01-.04.02,0,0,0,0,0,0-.01,0-.02.01-.04.02,0,0,0,0,0,0-.01,0-.02.01-.03.02,0,0,0,0,0,0-.01,0-.02.01-.03.02,0,0,0,0,0,0,0,0-.02.01-.03.02,0,0,0,0-.01,0,0,0-.02.01-.03.02,0,0,0,0-.01,0,0,0-.02.01-.03.02,0,0,0,0-.01,0,0,0-.02,0-.03.02,0,0-.01,0-.02.01,0,0,0,0-.01,0-.01,0-.02.01-.03.02,0,0,0,0,0,0l-.04.02h0c-.14.08-.28.16-.42.24l2.66,4.6c.92-.53,1.83-1.09,2.72-1.66l-2.86-4.48h0Zm3.89-2.68c-.78.58-1.58,1.15-2.39,1.69h0s-.01.01-.02.01l2.98,4.41c.88-.59,1.75-1.21,2.6-1.84l-3.17-4.27h0Zm3.69-2.95c-.47.4-.94.8-1.42,1.18,0,0,0,0,0,0-.05.04-.09.08-.14.11,0,0,0,0,0,0-.01,0-.02.02-.03.03,0,0,0,0,0,0-.01,0-.02.02-.03.03,0,0,0,0,0,0,0,0-.02.02-.03.03,0,0,0,0,0,0,0,0-.02.02-.03.02,0,0,0,0,0,0,0,0-.02.02-.03.02,0,0,0,0,0,0,0,0-.02.02-.03.02,0,0,0,0-.01,0,0,0-.02.01-.03.02,0,0,0,0-.01,0,0,0-.02.01-.02.02,0,0,0,0-.01.01,0,0-.01,0-.02.01,0,0-.01.01-.02.02,0,0,0,0-.01.01,0,0-.02.01-.03.02,0,0,0,0,0,0-.11.09-.23.18-.34.27l3.28,4.19c.83-.65,1.66-1.33,2.47-2.02l-3.46-4.04h0Zm3.48-3.2c-.19.19-.38.38-.58.56h0s-.02.02-.03.03h0s-.02.02-.03.03c0,0,0,0,0,0,0,0-.02.02-.02.02,0,0,0,0-.01.01,0,0,0,0-.01.01,0,0-.01.01-.02.02,0,0,0,0-.01.01,0,0-.01.01-.02.02h-.01s-.01.03-.02.03c0,0-.01.01-.02.02,0,0-.01.01-.02.02,0,0,0,0-.01,0,0,0-.01.01-.02.02,0,0,0,0,0,0,0,0-.02.02-.02.02,0,0,0,0,0,0,0,0-.02.02-.02.02,0,0,0,0,0,0,0,0-.02.02-.03.02h0s-.02.02-.02.03c0,0,0,0,0,0,0,0-.02.01-.02.02,0,0,0,0,0,0,0,0-.02.02-.02.02,0,0,0,0,0,0,0,0-.02.02-.03.02,0,0,0,0,0,0,0,0-.02.02-.03.02,0,0,0,0,0,0,0,0-.02.02-.03.02,0,0,0,0,0,0,0,0-.02.01-.02.02,0,0,0,0-.01.01,0,0-.01.01-.02.02,0,0,0,0-.01.01,0,0-.01.01-.02.02,0,0,0,0-.01,0,0,0-.02.02-.02.02,0,0,0,0-.01.01,0,0-.01.01-.02.02,0,0,0,0-.01.01,0,0-.01.01-.02.02,0,0,0,0-.01.01,0,0-.01,0-.02.01,0,0-.01.01-.02.02,0,0-.01,0-.01.01,0,0-.02.01-.02.02,0,0,0,0,0,0-.01,0-.02.02-.03.03,0,0,0,0,0,0-.22.2-.44.4-.66.6l3.57,3.95c.78-.71,1.56-1.45,2.32-2.19l-3.74-3.79h0Zm3.25-3.44s0,0,0,0c0,0-.01.01-.02.02,0,0,0,0,0,0,0,0-.02.02-.02.03,0,0,0,0-.01.01,0,0-.01.02-.02.02,0,0,0,0-.01.01,0,0-.01.02-.02.02,0,0,0,0-.01.01,0,0-.01.01-.02.02,0,0,0,0-.01.01,0,0-.01.01-.02.02,0,0,0,.01-.01.02,0,0-.01.01-.02.02,0,0-.01.01-.01.02,0,0-.01.01-.02.02,0,0-.01.01-.01.02,0,0-.01.01-.02.02,0,0,0,.01-.01.02,0,0-.01.01-.02.02,0,0,0,.01-.01.02,0,0,0,0-.01.01,0,0-.01.02-.02.02,0,0,0,0,0,.01l-.02.03s0,0,0,0c0,0-.02.02-.02.03,0,0,0,0,0,0,0,0-.02.02-.03.03,0,0,0,0,0,0-.02.02-.03.04-.05.05,0,0,0,0,0,0,0,.01-.02.02-.03.03,0,0,0,0,0,0,0,.01-.02.02-.03.03,0,0,0,0,0,0,0,.01-.02.02-.03.03h0s-.02.03-.03.04h0s-.03.04-.05.06h0s-.02.02-.03.04h0s-.02.03-.03.04h0c-.19.2-.37.41-.56.61h0c-.06.07-.13.13-.19.2h0s-.02.02-.03.04h0s-.02.03-.03.04h0s-.03.04-.05.06c0,0,0,0,0,0,0,0-.02.02-.03.03,0,0,0,0-.01.01,0,0-.02.02-.02.02,0,0,0,0-.01.01,0,0-.01.01-.02.02,0,0,0,0-.01.01,0,0-.01.01-.02.02,0,0-.01.01-.02.02,0,0,0,0-.01.01,0,0-.02.02-.02.02h0s-.02.03-.02.03c0,0,0,0,0,0,0,0-.02.02-.02.03,0,0,0,0,0,0,0,0-.02.02-.02.03,0,0,0,0,0,0-.01.01-.02.02-.03.03,0,0,0,0,0,0-.01.01-.02.02-.03.03,0,0,0,0,0,0-.01.01-.02.02-.03.03h0s3.83,3.69,3.83,3.69c.73-.76,1.46-1.55,2.16-2.35l-3.99-3.52h0Zm3-3.65c-.4.52-.8,1.03-1.21,1.54h0s-.02.03-.03.04c0,0,0,0,0,0,0,.01-.02.02-.03.03,0,0,0,0,0,0l-.02.03s0,0-.01.01c0,0,0,.01-.01.02,0,0-.01.02-.02.02h-.01s-.01.03-.02.03c0,0,0,.01-.01.02,0,0-.01.01-.02.02,0,0,0,0-.01.01,0,0-.01.02-.02.02,0,0,0,0,0,0,0,0-.02.02-.02.03,0,0,0,0,0,0,0,0-.02.02-.02.03,0,0,0,0,0,0,0,0-.02.02-.03.03,0,0,0,0,0,0-.11.13-.22.26-.32.39l4.08,3.41c.68-.81,1.35-1.65,1.99-2.49l-4.23-3.23h0Zm2.73-3.86s0,0,0,0c0,0-.01.02-.02.03h0s-.01.03-.02.04c0,0,0,0,0,.01,0,.01-.01.02-.02.03,0,0,0,0,0,0,0,.01-.01.02-.02.03,0,0,0,0,0,0,0,.01-.01.02-.02.03h0s-.01.03-.02.04c0,0,0,0,0,0,0,.01-.02.02-.02.03h0s-.02.03-.02.04c0,0,0,0,0,0-.39.59-.79,1.17-1.2,1.75,0,0,0,0,0,0,0,.01-.02.02-.03.04,0,0,0,0,0,0,0,.01-.02.02-.02.03,0,0,0,0,0,0,0,.01-.01.02-.02.03,0,0,0,0,0,0,0,0-.01.02-.02.03,0,0,0,0,0,.01,0,0-.01.02-.02.03,0,0,0,0-.01.01,0,0-.01.02-.02.02,0,0,0,.01-.01.02,0,0,0,0,0,.01,0,0-.01.02-.02.03,0,0,0,0,0,0,0,.01-.02.02-.03.04h0s-.03.04-.04.06l4.31,3.11c.62-.86,1.23-1.74,1.81-2.62l-4.44-2.92h0Zm2.46-4.04c-.03.06-.07.12-.1.18h0l-.06.11h0s-.02.03-.02.04c0,0,0,0,0,0,0,.01-.01.02-.02.03,0,0,0,0,0,.01,0,0-.01.02-.02.03,0,0,0,.01,0,.02,0,0,0,.01,0,.02,0,0,0,.02-.01.02,0,0,0,.01,0,.02,0,0-.01.02-.01.03,0,0,0,0,0,.01,0,0-.01.02-.02.03,0,0,0,0,0,.01,0,0,0,.02-.01.03,0,0,0,0,0,.01,0,0-.01.02-.02.03,0,0,0,0,0,0,0,.01-.01.02-.02.03,0,0,0,0,0,.01,0,.01-.01.02-.02.03,0,0,0,0,0,0,0,.01-.01.02-.02.03,0,0,0,0,0,0,0,.01-.01.02-.02.03,0,0,0,0,0,0,0,.01-.01.02-.02.03,0,0,0,0,0,0,0,.01-.01.02-.02.04h0s-.01.03-.02.04c0,0,0,0,0,0,0,.01-.01.02-.02.04,0,0,0,0,0,0,0,.01-.01.02-.02.04,0,0,0,0,0,0-.02.04-.05.08-.07.12,0,0,0,0,0,0,0,.01-.02.03-.02.04,0,0,0,0,0,0,0,.01-.01.02-.02.04,0,0,0,0,0,0-.26.44-.52.87-.79,1.3,0,0,0,0,0,0,0,.01-.02.03-.02.04,0,0,0,0,0,0l4.52,2.8c.56-.9,1.1-1.82,1.62-2.75l-4.64-2.6h0Zm2.17-4.2c-.08.17-.16.35-.25.52h0s-.01.03-.02.04h0s-.01.03-.02.04c0,0,0,0,0,0,0,.01-.01.03-.02.04h0s0,.02-.01.02c0,0,0,0,0,.01v.03s-.02,0-.02.01c0,0,0,.02-.01.03,0,0,0,.01,0,.02,0,0,0,.02-.01.02,0,0,0,.01,0,.02,0,0,0,.01,0,.02,0,0,0,.02-.01.03,0,0,0,0,0,.01,0,.01,0,.02-.01.03,0,0,0,0,0,.01,0,0-.01.02-.02.03,0,0,0,0,0,.01,0,0,0,.02-.01.03,0,0,0,0,0,.01,0,0,0,.02-.01.03,0,0,0,0,0,0,0,.01-.01.02-.02.03,0,0,0,0,0,0,0,.01-.01.02-.02.03,0,0,0,0,0,0,0,.01-.01.02-.02.03,0,0,0,0,0,0,0,.01-.01.02-.02.04,0,0,0,0,0,0,0,.01-.01.03-.02.04,0,0,0,0,0,0,0,.01-.01.03-.02.04h0s-.01.03-.02.04h0s-.01.03-.02.04c0,0,0,0,0,0,0,.01-.01.02-.02.04,0,0,0,0,0,0-.01.03-.03.05-.04.08,0,0,0,0,0,0,0,.01-.01.03-.02.04,0,0,0,0,0,0,0,.01-.01.03-.02.04,0,0,0,0,0,0,0,.01-.01.03-.02.04t0,0c-.03.05-.06.11-.08.16,0,0,0,0,0,0,0,.01-.01.03-.02.04,0,0,0,0,0,0-.03.05-.06.11-.08.16,0,0,0,0,0,0,0,.01-.01.03-.02.04,0,0,0,0,0,0,0,.01-.01.03-.02.04h0s-.04.08-.06.12c0,0,0,0,0,0,0,.01-.01.02-.02.04,0,0,0,0,0,0,0,.01-.01.02-.02.04,0,0,0,0,0,0,0,.01-.01.02-.02.04,0,0,0,0,0,0,0,.01-.01.02-.02.04,0,0,0,0,0,0,0,.01-.01.02-.02.03,0,0,0,0,0,0,0,.01-.01.02-.02.03,0,0,0,0,0,0,0,.01-.01.02-.02.03,0,0,0,0,0,.01,0,0-.01.02-.02.03,0,0,0,0,0,.01,0,0,0,.02-.01.03,0,0,0,.01,0,.02,0,0,0,.01-.01.02,0,0,0,.01-.01.02,0,0,0,.01-.01.02,0,0,0,0,0,.01l4.71,2.48c.49-.94.97-1.9,1.42-2.85l-4.81-2.27h0Zm1.86-4.34c-.24.63-.5,1.26-.76,1.88,0,0,0,0,0,0,0,.01-.01.03-.02.04h0s0,.03-.02.04h0s0,.03-.01.04c0,0,0,0,0,.01,0,0,0,.02-.01.03,0,0,0,.01,0,.02,0,0,0,.02-.01.02,0,0,0,.01,0,.02,0,0,0,.02-.01.03,0,0,0,.01,0,.02,0,0,0,0,0,.01,0,.01,0,.02-.01.03h0s-.01.03-.02.05h0c-.07.16-.14.32-.21.49l4.87,2.14c.43-.97.84-1.96,1.22-2.95l-4.96-1.92h0Zm1.55-4.47c-.25.83-.52,1.64-.81,2.45,0,0,0,0,0,0,0,0,0,.01,0,.02,0,0,0,0,0,0,0,0,0,.01,0,.02,0,0,0,0,0,0,0,0,0,0,0,.02,0,0,0,0,0,0,0,0,0,.01,0,.02,0,0,0,0,0,0,0,0,0,.01,0,.02,0,.02-.01.03-.02.05h0s0,.02,0,.02h0s0,.02,0,.02h0s-.03.1-.05.14l5.01,1.79c.36-1,.69-2.02,1.01-3.03l-5.08-1.56h0Zm1.23-4.56c-.01.06-.03.13-.04.19h0s0,.02,0,.02h0s0,.02,0,.02c0,0,0,0,0,0,0,0,0,.01,0,.02,0,0,0,0,0,0,0,0,0,.01,0,.02,0,0,0,0,0,0,0,0,0,.02,0,.02h0s0,.02,0,.02c0,0,0,0,0,.01,0,0,0,0,0,.01,0,0,0,0,0,.01,0,0,0,0,0,0,0,0,0,0,0,.01,0,0,0,0,0,0,0,0,0,.01,0,.02,0,0,0,0,0,0,0,0,0,.01,0,.02,0,0,0,0,0,0-.01.05-.02.1-.04.15,0,0,0,0,0,0,0,0,0,.01,0,.02,0,0,0,0,0,0-.01.06-.03.12-.04.18,0,0,0,0,0,0,0,0,0,.01,0,.02,0,0,0,0,0,0,0,0,0,.01,0,.02,0,0,0,0,0,0,0,.04-.02.07-.03.11,0,0,0,0,0,0,0,0,0,.01,0,.02,0,0,0,0,0,0,0,0,0,.01,0,.02,0,0,0,0,0,0,0,0,0,0,0,.01h0s0,.02,0,.02c0,0,0,0,0,.01,0,0,0,0,0,0v.02s0,0,0,0c0,0,0,.02,0,.02h0s0,.02,0,.03c0,0,0,0,0,0,0,0,0,.01,0,.02,0,0,0,0,0,0,0,0,0,.01,0,.02h0s0,.02,0,.03h0s0,.02,0,.03h0c-.14.54-.28,1.08-.43,1.61l5.12,1.43c.28-1.02.55-2.06.79-3.09l-5.18-1.2h0Zm.9-4.64c-.06.38-.12.76-.19,1.14,0,0,0,0,0,0,0,0,0,.01,0,.02,0,0,0,0,0,0,0,0,0,.01,0,.02,0,0,0,0,0,0,0,0,0,0,0,.01,0,0,0,0,0,.01,0,0,0,0,0,.01,0,0,0,0,0,.01,0,0,0,0,0,.01,0,0,0,.01,0,.02,0,0,0,0,0,0,0,.02,0,.03,0,.05,0,0,0,0,0,0,0,0,0,.01,0,.02,0,0,0,0,0,0,0,0,0,.01,0,.02h0s0,.02,0,.03h0c-.04.24-.09.48-.13.72h0s0,.02,0,.02c0,0,0,0,0,0v.02s0,0,0,0c0,0,0,.01,0,.02,0,0,0,0,0,0,0,0,0,.01,0,.02,0,0,0,0,0,0v.02s0,.01,0,.02c0,0,0,0,0,.01,0,0,0,.01,0,.02,0,0,0,0,0,0,0,0,0,.01,0,.02,0,0,0,0,0,0,0,0,0,.01,0,.02,0,0,0,0,0,0,0,0,0,.01,0,.02,0,0,0,0,0,0-.04.18-.07.36-.11.54l5.21,1.06c.21-1.04.4-2.09.57-3.14l-5.25-.83h0Zm.57-4.69c-.09.98-.19,1.97-.32,2.94l5.27.69c.14-1.05.25-2.11.34-3.17l-5.3-.46h0Zm.24-4.72c0,.46-.02.93-.04,1.39h0s0,.06,0,.09c0,0,0,0,0,0,0,0,0,0,0,.01,0,0,0,0,0,.01,0,0,0,0,0,.01,0,0,0,0,0,.01,0,0,0,0,0,.01,0,0,0,.01,0,.02,0,0,0,0,0,0-.02.46-.04.92-.07,1.38l5.31.32c.06-1.05.1-2.12.12-3.18l-5.32-.09h0Zm5.23-5.01l-5.31.28s0,0,0,0h0s0,.02,0,.02c0,0,0,0,0,0v.02s0,0,0,.01c0,0,0,0,0,0,.02.46.04.93.06,1.4h0s0,.01,0,.02h0s0,.08,0,.11c0,0,0,0,0,0,0,0,0,.01,0,.02h0s0,.02,0,.02c0,0,0,0,0,.01,0,0,0,0,0,.01,0,0,0,0,0,.01,0,0,0,.01,0,.01,0,0,0,.01,0,.02,0,0,0,0,0,.01,0,0,0,.01,0,.02,0,0,0,0,0,0,0,0,0,.01,0,.02,0,0,0,0,0,0,0,0,0,.01,0,.02,0,0,0,0,0,0,0,0,0,.01,0,.02,0,0,0,0,0,0,0,0,0,.01,0,.02h0s0,.04,0,.06h0s0,.02,0,.03h0s0,.02,0,.03h0s0,.02,0,.03h0s0,.06,0,.08h0s0,.02,0,.03h0s0,.02,0,.03h0s0,.02,0,.03h0s0,.07,0,.11h0s0,.02,0,.03h0s0,.02,0,.03h0s0,.02,0,.03h0s0,.04,0,.05c0,0,0,0,0,0,0,0,0,.01,0,.02,0,0,0,0,0,.01,0,0,0,0,0,.01,0,0,0,0,0,.01h0s0,.02,0,.03c0,0,0,0,0,0,0,.03,0,.06,0,.08h0c0,.12,0,.25,0,.37l5.32-.05c-.01-1.06-.04-2.13-.1-3.18h0Zm-.45-5.08l-5.28.65c.03.26.06.51.09.77,0,0,0,0,0,0,0,0,0,0,0,.02,0,0,0,0,0,0,0,0,0,.01,0,.01,0,0,0,0,0,.01,0,0,0,0,0,.01,0,0,0,0,0,.01,0,0,0,0,0,0,0,0,0,.01,0,.02,0,0,0,0,0,0,0,.02,0,.03,0,.05h0s0,.02,0,.03h0s0,.02,0,.03h0s0,.02,0,.03h0c.07.64.13,1.28.18,1.92l5.3-.42c-.08-1.06-.19-2.12-.32-3.17h0Zm-.8-5.04l-5.22,1.02c.08.42.16.85.24,1.28h0s0,.02,0,.02h0s0,.02,0,.03h0s0,.02,0,.03c0,0,0,0,0,0,0,0,0,.01,0,.02h0s0,.02,0,.03c0,0,0,0,0,0v.02s0,0,0,.01c0,0,0,0,0,.01,0,0,0,0,0,.01,0,0,0,0,0,0,0,0,0,.01,0,.02,0,0,0,0,0,0,0,0,0,.01,0,.02,0,0,0,0,0,0,.08.46.15.93.22,1.39l5.26-.79c-.16-1.05-.34-2.1-.54-3.14h0Zm-1.16-4.97l-5.13,1.39c.14.53.28,1.06.41,1.59,0,0,0,0,0,0,0,0,0,.01,0,.02,0,0,0,0,0,.01,0,0,0,0,0,.01,0,0,0,0,0,.01h0s0,.02,0,.03c0,0,0,0,0,0,0,0,0,0,0,.02,0,0,0,0,0,0,.09.39.18.78.27,1.17l5.19-1.16c-.23-1.03-.49-2.08-.77-3.1h0Zm-1.51-4.88l-5.02,1.75c.04.12.08.24.12.36h0s0,.01,0,.02c0,0,0,0,0,0,0,0,0,.01,0,.02,0,0,0,0,0,0h0s0,.02,0,.02c0,0,0,0,0,.01,0,0,0,0,0,.01h0c.16.48.32.95.47,1.43h0s0,.02,0,.02h0s0,.01,0,.02c0,0,0,0,0,0,0,.02.01.04.02.05,0,0,0,0,0,.01,0,0,0,0,0,0,0,0,0,.01,0,.02,0,0,0,0,0,0,0,0,0,.01,0,.02,0,0,0,0,0,0,0,0,0,.01,0,.02h0c.08.25.15.5.23.74l5.09-1.53c-.3-1.01-.63-2.04-.98-3.04h0Zm-1.85-4.76l-4.89,2.1c.39.9.76,1.81,1.11,2.74l4.97-1.88c-.38-.99-.78-1.99-1.2-2.96h0Zm-2.18-4.61l-4.72,2.44.07.14h0s.01.03.02.04c0,0,0,0,0,.01,0,0,0,.02.01.03,0,0,0,.01.01.02,0,0,0,0,0,.01,0,0,.01.02.02.03,0,0,0,0,0,.01,0,.01.01.02.02.03,0,0,0,0,0,0,0,.01.01.03.02.04h0c.38.75.75,1.51,1.11,2.28l4.83-2.23c-.44-.96-.92-1.92-1.4-2.86h0Zm-2.5-4.45l-4.54,2.77c.34.55.66,1.1.98,1.67,0,0,0,0,0,0,0,.01.01.02.02.04,0,0,0,0,0,0,0,.01.01.02.02.03,0,0,0,0,0,0,0,.01.01.02.02.03,0,0,0,0,0,0,0,0,.01.02.02.03,0,0,0,0,0,.01,0,0,0,.02.01.03,0,0,0,0,0,.01,0,0,0,.02.01.03v.02s.02.02.02.03c0,0,0,.01,0,.02,0,0,0,.01.01.02,0,0,0,.02.01.03,0,0,0,0,0,.01l.02.03s0,0,0,0c.09.17.19.33.28.5l4.66-2.57c-.51-.93-1.05-1.85-1.6-2.76h0Zm-2.81-4.26l-4.33,3.08c.21.3.42.6.63.91h0s.02.03.03.04h0s.02.02.03.04c0,0,0,0,0,0,0,.01.02.02.03.04,0,0,0,0,0,0,.03.04.05.07.08.11,0,0,0,0,0,0,0,.01.02.02.02.04,0,0,0,0,0,0,0,.01.02.02.02.04,0,0,0,0,0,0,0,.01.02.02.02.04,0,0,0,0,0,0,.03.04.05.07.08.11h0s.02.03.02.04c0,0,0,0,0,0,0,.01.02.02.02.04,0,0,0,0,0,0,0,.01.02.02.02.04,0,0,0,0,0,0,.02.02.03.05.05.08h0s.02.02.02.04c0,0,0,0,0,0,0,.01.02.02.02.04,0,0,0,0,0,0,0,.01.02.03.03.04,0,0,0,0,0,0,.17.26.34.51.51.77l4.47-2.89c-.57-.89-1.18-1.78-1.79-2.64h0Zm-3.1-4.05l-4.11,3.38c.3.36.59.73.88,1.09h0s.02.03.03.04c0,0,0,0,0,0,0,0,.02.02.02.03,0,0,0,0,0,.01,0,0,0,.01.01.02,0,0,.01.02.02.02,0,0,0,.01.01.02,0,0,.01.02.02.02,0,0,0,0,0,.01,0,0,.01.02.02.02,0,0,0,0,.01.01,0,0,.01.02.02.02,0,0,0,0,0,0,0,0,.02.02.02.03,0,0,0,0,0,0,0,0,.02.02.02.03h0s.02.03.02.04c0,0,0,0,0,0,0,.01.02.02.03.03,0,0,0,0,0,0,0,.01.02.02.03.03h0c.09.12.19.24.28.37,0,0,0,0,0,0,0,.01.02.02.03.04,0,0,0,0,0,0,.01.01.02.02.03.04,0,0,0,0,0,0,.02.02.04.05.05.07,0,0,0,0,0,0,0,.01.02.02.02.03,0,0,0,0,0,0,0,.01.01.02.02.03,0,0,0,0,0,.01,0,0,.01.02.02.03,0,0,0,0,.01.01,0,0,0,.01.01.02,0,0,.01.02.02.03,0,0,0,0,0,0,.03.04.06.08.09.13l4.25-3.2c-.64-.85-1.3-1.69-1.97-2.51h0Zm-3.38-3.82l-3.86,3.66c.17.18.34.36.5.54,0,0,0,0,0,0,0,0,.02.02.03.03,0,0,0,0,0,0,.01.01.02.02.03.03,0,0,0,0,0,0,0,.01.02.02.03.03,0,0,0,0,0,0,0,0,.02.02.03.03,0,0,0,0,0,0,0,0,.02.02.03.03h0s.02.02.03.03c0,0,0,0,0,0,0,0,.02.02.02.03h0s.02.03.02.03c0,0,0,0,.01.01,0,0,.01.01.02.02,0,0,0,0,.01.01,0,0,.01.01.02.02v.02s.03.01.03.02c0,0,0,0,.01.01,0,0,.01.01.02.02,0,0,0,.01.01.01,0,0,.01.01.02.02,0,0,0,.01.01.02,0,0,0,0,.01.01,0,0,.01.02.02.02,0,0,0,0,.01.01,0,0,.02.02.02.03,0,0,0,0,0,0,0,0,.02.02.03.03,0,0,0,0,0,0,.01.01.02.02.03.03h0c.24.26.47.52.7.79h0s.08.09.11.13c0,0,0,0,0,0,0,.01.02.02.03.03,0,0,0,0,0,0,0,0,.02.02.02.03h0s.01.03.02.03c0,0,0,0,.01.01,0,0,0,0,0,0l4.02-3.49c-.69-.8-1.41-1.59-2.14-2.36h0Zm-3.64-3.58l-3.59,3.92c.5.46.99.92,1.48,1.4t0,0s.02.02.03.03c0,0,0,0,0,0,0,0,.02.02.03.03,0,0,0,0,0,0,0,0,.02.02.03.03,0,0,0,0,0,0,0,0,.02.02.02.02,0,0,0,0,.01.01,0,0,.01,0,.01.01,0,0,.01.01.02.02,0,0,0,0,0,0,0,0,.02.02.03.03h0c.15.15.29.29.44.44l3.76-3.76c-.75-.75-1.52-1.49-2.3-2.21h0Zm-3.88-3.31l-3.31,4.16c.18.14.36.29.54.43,0,0,0,0,0,0,0,0,.02.02.03.02,0,0,0,0,0,0,0,0,.02.01.03.02,0,0,0,0,.01,0,0,0,.02.01.03.02,0,0,0,0,.01.01,0,0,.01.01.02.02s.01.01.02.02c0,0,.01,0,.01.01,0,0,.02.01.03.02,0,0,0,0,0,0,.01,0,.02.02.03.03,0,0,0,0,0,0,.26.21.52.43.77.64h0s.02.02.03.03h0s.02.02.03.03h0s.02.02.03.03h0s.01.02.02.02c0,0,.01.01.02.02,0,0,.01,0,.02.01,0,0,0,0,.02.01l.02.02s.01.01.02.01c0,0,.01,0,.02.01,0,0,.01.01.02.02,0,0,0,0,0,0,0,0,.02.02.03.02,0,0,0,0,0,0,0,0,.02.02.03.02,0,0,0,0,0,0,0,0,.02.02.03.03h0s.02.02.03.03h0c.1.09.21.18.31.27l3.49-4.01c-.8-.69-1.62-1.38-2.45-2.04h0Zm-4.1-3.03l-3.01,4.38c.07.05.15.1.23.16,0,0,0,0,0,0,.01,0,.02.02.03.02,0,0,0,0,0,0,.01,0,.02.01.03.02,0,0,0,0,0,0,.01,0,.02.01.03.02,0,0,0,0,0,0,0,0,.02.01.03.02,0,0,0,0,.01,0,0,0,.01.01.02.02,0,0,0,0,.01.01,0,0,.01.01.02.02,0,0,.01,0,.02.01,0,0,.02.01.02.02,0,0,.01,0,.02.01,0,0,.01,0,.01.01,0,0,.02.01.03.02,0,0,0,0,0,0,.01,0,.02.01.03.02,0,0,0,0,0,0,.01,0,.02.02.04.03h0c.36.26.72.52,1.08.78h0s.03.02.04.03h0s.02.02.04.03c0,0,0,0,0,0,.02.01.04.03.06.04,0,0,.01,0,.02.01,0,0,.01.01.02.02,0,0,.01,0,.02.01,0,0,.01.01.02.02,0,0,.01,0,.02.01,0,0,.01,0,.02.01,0,0,.02.01.02.02,0,0,0,0,.01,0,0,0,.02.01.03.02,0,0,0,0,0,0,.01,0,.02.01.03.02,0,0,0,0,0,0,.01,0,.02.01.03.02,0,0,0,0,0,0,.1.07.2.15.29.22l3.2-4.25c-.85-.64-1.72-1.26-2.59-1.86h0Zm-4.3-2.74l-2.7,4.58c.16.1.33.19.49.29,0,0,.01,0,.02.01,0,0,.01,0,.02.01,0,0,.01,0,.02.01,0,0,.01,0,.02.01,0,0,.02.01.03.01,0,0,0,0,0,0,.01,0,.02.01.03.02h0s.02.02.03.03c0,0,0,0,0,0,.01,0,.03.02.04.02,0,0,0,0,0,0,.51.31,1.02.63,1.53.95,0,0,0,0,0,0,.01,0,.03.02.04.02,0,0,0,0,0,0,.01,0,.02.01.03.02,0,0,0,0,0,0,.01,0,.02.01.03.02h.01s.02.02.02.02c0,0,.01,0,.02.01,0,0,.01,0,.02.01,0,0,.02.01.02.02,0,0,.01,0,.02,0,.02.01.03.02.05.03l2.89-4.46c-.89-.58-1.8-1.14-2.71-1.68h0Zm-4.49-2.43l-2.36,4.76c.88.44,1.76.9,2.62,1.37l2.57-4.65c-.93-.51-1.88-1.01-2.82-1.48h0Zm-4.65-2.11l-2.02,4.92c.91.37,1.82.77,2.71,1.18l2.24-4.82c-.96-.45-1.94-.88-2.92-1.28h0Zm-4.79-1.77l-1.67,5.05c.4.13.8.27,1.19.41h0s.02,0,.02,0h0s.01,0,.02,0h0s.02,0,.02,0h0s.05.02.07.03c0,0,0,0,0,0,0,0,.01,0,.02,0,0,0,0,0,0,0h.02s0,0,0,0c0,0,.01,0,.02,0,0,0,0,0,0,0,0,0,0,0,.01,0,0,0,0,0,.01,0s0,0,.01,0,0,0,.01,0c0,0,0,0,.01,0,0,0,0,0,.01,0,0,0,0,0,.01,0,.02,0,.03.01.05.02,0,0,0,0,0,0,0,0,0,0,.02,0,0,0,0,0,0,0,0,0,0,0,.02,0,0,0,0,0,0,0,0,0,.01,0,.02,0,0,0,0,0,0,0,0,0,.01,0,.02,0,0,0,0,0,0,0,0,0,.01,0,.02,0,0,0,0,0,0,0,.04.02.09.03.13.05h0s.03.01.04.02c0,0,0,0,0,0,0,0,.01,0,.02,0t0,0c.08.03.16.06.24.09,0,0,0,0,0,0,.04.02.09.03.13.05,0,0,0,0,0,0,0,0,.01,0,.02,0,0,0,0,0,0,0,0,0,.01,0,.02,0,0,0,0,0,0,0,0,0,.01,0,.02,0,0,0,0,0,0,0,0,0,0,0,.02,0,0,0,0,0,0,0,0,0,0,0,.01,0,0,0,0,0,0,0,0,0,.01,0,.01,0,0,0,0,0,0,0,0,0,.02,0,.02,0,0,0,0,0,.01,0,0,0,0,0,0,0,0,0,.01,0,.02,0,0,0,0,0,0,0,0,0,.01,0,.02,0h0s.01,0,.02,0h0s.01,0,.02,0h0c.1.04.19.07.29.11l1.89-4.97c-.99-.38-2-.74-3.01-1.07h0Zm-4.9-1.43l-1.31,5.16c.96.24,1.91.51,2.85.79l1.53-5.09c-1.01-.3-2.05-.59-3.07-.85h0Zm-4.99-1.08l-.94,5.24c.24.04.49.09.73.13,0,0,0,0,0,0,0,0,0,0,.01,0,0,0,0,0,.01,0,0,0,0,0,.01,0,0,0,.01,0,.02,0,0,0,0,0,0,0,0,0,.01,0,.02,0,0,0,0,0,0,0h.02s0,0,0,0c.69.13,1.38.28,2.06.43l1.17-5.19c-1.03-.23-2.08-.44-3.13-.63h0Zm-5.05-.72l-.57,5.29c.22.02.45.05.67.08,0,0,0,0,0,0,0,0,.01,0,.02,0,0,0,0,0,.01,0,0,0,0,0,.01,0,0,0,0,0,.01,0h.01s0,0,.01,0c0,0,0,0,0,0,.35.04.7.09,1.05.13,0,0,0,0,0,0,0,0,.02,0,.02,0,0,0,0,0,0,0,.02,0,.04,0,.07,0h0s0,0,.01,0c0,0,0,0,.01,0,0,0,0,0,.01,0,0,0,0,0,.01,0,0,0,0,0,.01,0h.02s0,0,0,0h.02s0,0,0,0c.31.04.61.09.92.13l.8-5.26c-1.05-.16-2.11-.3-3.16-.41h0Zm-5.09-.36l-.19,5.31c.21,0,.42.02.63.03h0s.02,0,.02,0h0s.01,0,.02,0c0,0,0,0,0,0,0,0,.01,0,.02,0h0s.03,0,.05,0c0,0,0,0,0,0,0,0,.01,0,.02,0,0,0,0,0,0,0,0,0,.01,0,.02,0,0,0,0,0,0,0h.02s0,0,.01,0c0,0,.01,0,.02,0,0,0,0,0,0,0,0,0,.01,0,.02,0,0,0,0,0,0,0,0,0,.02,0,.02,0,0,0,0,0,0,0,0,0,.01,0,.02,0,0,0,0,0,.01,0s0,0,.01,0,0,0,.01,0h.01s0,0,.01,0c0,0,.01,0,.02,0,0,0,0,0,0,0,0,0,.01,0,.02,0,0,0,0,0,0,0,.02,0,.03,0,.05,0,0,0,0,0,0,0,0,0,.01,0,.02,0,0,0,0,0,0,0,0,0,.01,0,.02,0,0,0,0,0,0,0,0,0,.01,0,.02,0h0s.02,0,.02,0h.05s0,0,0,0c0,0,.02,0,.03,0h.03s0,0,0,0c0,0,.02,0,.03,0h0c.31.02.62.04.93.06h0s.01,0,.02,0c0,0,0,0,0,0,0,0,.01,0,.02,0t0,0s.01,0,.02,0c0,0,0,0,0,0,0,0,.01,0,.02,0,0,0,0,0,0,0,0,0,0,0,.01,0,.01,0,.02,0,.03,0,0,0,0,0,0,0,0,0,.01,0,.02,0h0s.01,0,.02,0h0c.15.01.3.02.46.04l.43-5.3c-1.05-.08-2.12-.15-3.18-.19h0Zm-2.69-.05v5.32h.11c.14,0,.27,0,.41,0h.01s0,0,.01,0c.06,0,.12,0,.18,0l.06-5.32c-.26,0-.52,0-.78,0h0Z" style="fill: #05d8de; stroke-width: 0px;"/>
          <circle cx="72.39" cy="72.39" r="67.07" style="fill: none; stroke: #fff; stroke-miterlimit: 10; stroke-width: 8.27px;"/>
          <circle cx="72.39" cy="72.39" r="67.07" style="fill: #05d8de; opacity: .68; stroke-width: 0px;"/>
        </g>
        <g>
          <path d="m83.44,105.28c.62,4.72-1.26,9.64-5.34,12.69-6.01,4.5-14.55,3.27-19.05-2.74-4.44-5.93-3.29-14.32,2.51-18.87l1.29,1.72,2.19-8.01-8.29-.15,1.27,1.7c-8.41,6.49-10.08,18.59-3.69,27.12,6.45,8.61,18.69,10.38,27.31,3.93,6.18-4.63,8.83-12.23,7.46-19.35" style="fill: none; stroke: #fff; stroke-linecap: round; stroke-linejoin: round; stroke-width: 2.33px;"/>
          <path d="m75.26,106.55c0,3.04-2.46,5.5-5.5,5.5s-5.5-2.46-5.5-5.5,2.46-5.5,5.5-5.5" style="fill: none; stroke: #fff; stroke-linecap: round; stroke-linejoin: round; stroke-width: 2.33px;"/>
          <g>
            <path d="m96.05,80.46c3,6.45,1.85,14.35-3.48,19.66-5.33,5.31-13.24,6.42-19.67,3.39-3-6.45-1.85-14.35,3.48-19.66,5.33-5.31,13.24-6.42,19.67-3.39Z" style="fill: none; stroke: #fff; stroke-linecap: round; stroke-linejoin: round; stroke-width: 2.33px;"/>
            <line x1="96.05" y1="80.46" x2="73.59" y2="102.81" style="fill: none; stroke: #fff; stroke-linecap: round; stroke-linejoin: round; stroke-width: 2.33px;"/>
            <line x1="72.84" y1="103.55" x2="70.07" y2="106.31" style="fill: none; stroke: #fff; stroke-linecap: round; stroke-linejoin: round; stroke-width: 2.33px;"/>
            <line x1="84.64" y1="80.03" x2="85.1" y2="91.25" style="fill: none; stroke: #fff; stroke-linecap: round; stroke-linejoin: round; stroke-width: 2.33px;"/>
            <line x1="77.01" y1="83.73" x2="77.63" y2="98.75" style="fill: none; stroke: #fff; stroke-linecap: round; stroke-linejoin: round; stroke-width: 2.33px;"/>
            <line x1="96.43" y1="91.87" x2="85.2" y2="91.36" style="fill: none; stroke: #fff; stroke-linecap: round; stroke-linejoin: round; stroke-width: 2.33px;"/>
            <line x1="92.68" y1="99.48" x2="77.67" y2="98.79" style="fill: none; stroke: #fff; stroke-linecap: round; stroke-linejoin: round; stroke-width: 2.33px;"/>
          </g>
        </g>
        <g>
          <path d="m46.21,32.5c-.27,3.06-1.2,4.63-6.47,5.32-.13-.53-.62-1.37-1.02-1.79,4.43-.44,5.08-1.37,5.27-3.53h-3.06v2.48h-2.13v-4.45h6.7c-.18-.49-.36-.98-.56-1.42l2.28-.64c.33.62.71,1.4.97,2.06h6.5v4.1h-2.26v-2.13h-2.57v2.2c0,.51.09.69.64.69h2.71c.51,0,1.33-.04,1.73-.13.05.56.11,1.4.18,1.91-.36.13-1.17.15-1.84.15h-2.82c-2.17,0-2.75-.69-2.75-2.66v-2.17h-1.49Zm1.79,10.73h6.76v2.04h-15.94v-2.04h6.89v-2.93h-4.85v-2h12.13v2h-4.99v2.93Z" style="fill: #fff; stroke-width: 0px;"/>
          <path d="m70.49,34.83c-.05,4.96.13,8.62,1.18,8.62.27,0,.36-1,.38-2.55.42.53.95,1.07,1.38,1.38-.15,2.33-.56,3.33-1.93,3.33-2.71,0-3.13-3.84-3.21-9.16h-9.82v-1.44c-.22.2-.42.38-.64.55-.29-.44-1.06-1.35-1.51-1.77,1.69-1.17,3.23-3.1,4.06-5.14l2.11.64c-.13.29-.27.6-.44.91h10.68v1.62h-11.61c-.15.24-.31.47-.47.71h10.55v1.57h-10.64v-1.44c-.6.8-1.22,1.55-1.89,2.17h11.81Zm-8.8,7.21c-.82,1.42-2.24,2.86-3.7,3.59-.31-.47-.91-1.18-1.35-1.57,1.33-.51,2.73-1.57,3.46-2.62l1.58.6Zm2.15-.84v4.41h-2.04v-4.41h-4.5v-1.64h2.1c-.18-.6-.64-1.48-1.11-2.08l1.64-.66c.51.66,1.04,1.51,1.2,2.11l-1.51.62h2.19v-2.75h2.04v2.75h1.53l-.98-.38c.42-.64.97-1.6,1.26-2.28l1.91.58c-.6.75-1.2,1.51-1.68,2.08h2.19v1.64h-4.23Zm1.44.18c1.09.75,2.61,1.88,3.35,2.62l-1.29,1.33c-.71-.77-2.19-1.95-3.3-2.79l1.24-1.17Z" style="fill: #fff; stroke-width: 0px;"/>
          <path d="m75.39,37.46h6.92v8.11h-2.17v-.82h-2.71v.91h-2.04v-8.2Zm2.04,2.08v3.13h2.71v-3.13h-2.71Zm11.13-3.59h-10.68v-6.6h10.68v6.6Zm-2.2-4.52h-6.38v2.46h6.38v-2.46Zm4.66,6.03v8.13h-2.19v-.84h-2.9v.91h-2.08v-8.2h7.16Zm-2.19,5.21v-3.13h-2.9v3.13h2.9Z" style="fill: #fff; stroke-width: 0px;"/>
          <path d="m96.01,32.95c-.31.93-.82,1.82-1.73,2.55-.27-.38-1.02-1.13-1.4-1.38,1.38-1.04,1.58-2.33,1.58-3.39v-1.22c1.9-.11,4.08-.38,5.36-.82l1.2,1.26c-1.28.46-3.02.69-4.7.84,0,.18,0,.38-.02.58h4.96v1.58h-1.75v1.86h-1.91v-1.86h-1.58Zm9.02,1.91v-1.91h-1.57c-.22.8-.58,1.57-1.2,2.2h5.03v7.51h-2.4c1.71.51,3.44,1.11,4.59,1.57l-1,1.51c-1.29-.58-3.46-1.4-5.48-2.02l.66-1.06h-4.72l1.18.69c-1.57.87-4.03,1.86-5.87,2.4-.18-.38-.71-1.38-1.04-1.82,1.51-.29,3.35-.75,4.7-1.28h-2.41v-7.51h6.52c-.38-.33-1.07-.78-1.44-.97,1.17-1.04,1.31-2.37,1.31-3.41v-1.33c2.04-.09,4.35-.36,5.63-.8l1.35,1.2c-1.38.47-3.33.75-5.16.87v.09c0,.18,0,.36-.02.55h5.85v1.58h-2.57v1.91h-1.95Zm.07,1.58h-7.52v.82h7.52v-.82Zm0,2.02h-7.52v.84h7.52v-.84Zm0,2.06h-7.52v.82h7.52v-.82Z" style="fill: #fff; stroke-width: 0px;"/>
          <path d="m73.24,65.14v1.86h-16.58v-1.86h1.93v-4.14h12.77v4.14h1.88Zm-7.92-5.08h-8.24v-8.95h8.11v1.64h-2.88v.91h2.46v2.13c1.09-1.28,1.86-3.26,2.28-5.28l1.88.38c-.16.77-.38,1.51-.64,2.22h4.79v1.82h-5.54c-.38.8-.82,1.51-1.28,2.1-.31-.29-1.04-.84-1.49-1.11v1.51h-2.46v1h3.01v1.62Zm-6.27-7.31v.91h1.53v-.91h-1.53Zm3.94,2.3h-3.94v.98h3.94v-.98Zm-3.94,3.39h1.53v-1h-1.53v1Zm1.53,6.7h1.57v-2.46h-1.57v2.46Zm3.53-2.46v2.46h1.58v-2.46h-1.58Zm2.28-3.19v-1.8h6.23v1.8h-6.23Zm1.28,3.19v2.46h1.58v-2.46h-1.58Z" style="fill: #fff; stroke-width: 0px;"/>
          <path d="m77.47,58.82c-.6-.56-1.84-1.29-2.84-1.75l1.18-1.58c1,.38,2.3,1.02,2.92,1.58l-1.26,1.75Zm1.57,2.66c-.6,1.95-1.4,4.04-2.15,5.83l-1.95-1.11c.67-1.4,1.64-3.72,2.35-5.85l1.75,1.13Zm-.89-7.4c-.58-.58-1.82-1.38-2.82-1.84l1.22-1.6c.98.42,2.26,1.15,2.88,1.69l-1.28,1.75Zm4.01,9.69c-.6,1.38-1.58,2.88-2.46,3.79-.4-.33-1.22-.86-1.69-1.11.86-.82,1.69-2.04,2.19-3.22l1.97.55Zm3.02-.69h-5.5v-11.88h5.5v11.88Zm-1.9-10h-1.79v1.53h1.79v-1.53Zm0,3.26h-1.79v1.55h1.79v-1.55Zm0,3.3h-1.79v1.57h1.79v-1.57Zm1.09,3.44c.67.84,1.53,2.02,1.91,2.79l-1.71,1.02c-.35-.77-1.17-1.99-1.84-2.9l1.64-.91Zm3.59-.22h-1.88v-10.53h1.88v10.53Zm3.1-12.35v14.56c0,1.11-.2,1.69-.84,2-.64.35-1.58.42-3.01.42-.07-.56-.35-1.48-.62-2.08.93.04,1.8.04,2.1.04.31-.02.4-.11.4-.38v-14.56h1.97Z" style="fill: #fff; stroke-width: 0px;"/>
        </g>
      </g>
    </g>
  </g>
</svg>