<?xml version="1.0" encoding="UTF-8"?>
<svg id="_圖層_2" data-name="圖層 2" xmlns="http://www.w3.org/2000/svg" width="144.78" height="172.18" viewBox="0 0 144.78 172.18">
  <g id="_圖層_7" data-name="圖層 7">
    <g id="air_balloon4">
      <line x1="61.98" y1="137.68" x2="69.82" y2="165.59" style="fill: none; stroke: #23bdd9; stroke-miterlimit: 10; stroke-width: 7.25px;"/>
      <line x1="84.12" y1="136.8" x2="74.26" y2="164.06" style="fill: none; stroke: #23bdd9; stroke-miterlimit: 10; stroke-width: 7.25px;"/>
      <path d="m87.07,154.66h-28.74c-1.01,0-1.79.66-1.79,1.4,0,.79.78,1.44,1.79,1.44h.28v8.87c0,3.19,2.68,5.81,6.04,5.81h16.1c3.35,0,6.04-2.62,6.04-5.81v-8.87h.28c1.01,0,1.79-.66,1.79-1.44,0-.74-.78-1.4-1.79-1.4Z" style="fill: #23bdd9; fill-rule: evenodd; stroke-width: 0px;"/>
      <g>
        <path d="m72.39,0c-1.06,0-2.13.02-3.19.07l.23,5.31c.84-.04,1.68-.06,2.52-.06h0s.02,0,.02,0h0s.02,0,.02,0h.03s.04,0,.05,0h0s.02,0,.02,0h.03s.01,0,.02,0h.09s.01,0,.02,0h.11V0h0Zm-5.09.18c-1.06.07-2.12.17-3.17.29l.6,5.28c.37-.04.75-.08,1.13-.12,0,0,0,0,0,0,0,0,.01,0,.02,0,0,0,0,0,.01,0,0,0,0,0,.01,0s0,0,.01,0c0,0,0,0,.01,0,0,0,.01,0,.02,0,0,0,0,0,0,0,.57-.05,1.15-.1,1.73-.14l-.37-5.31h0Zm-5.07.53c-1.05.15-2.11.32-3.15.51l.97,5.23s.01,0,.02,0c0,0,0,0,0,0,0,0,.01,0,.02,0,0,0,0,0,0,0,0,0,.01,0,.02,0,0,0,0,0,0,0,0,0,.01,0,.02,0,0,0,0,0,0,0,0,0,.01,0,.02,0,0,0,0,0,0,0,0,0,.01,0,.02,0,0,0,0,0,0,0,.01,0,.02,0,.03,0,0,0,0,0,.01,0,0,0,0,0,0,0h.02s0,0,0,0c0,0,.01,0,.02,0,0,0,0,0,0,0,0,0,.01,0,.02,0,0,0,0,0,0,0,0,0,.01,0,.02,0,0,0,0,0,0,0,0,0,.01,0,.02,0h0s.05,0,.08-.01h0s.01,0,.02,0h0s.01,0,.02,0h0s.01,0,.02,0c0,0,0,0,0,0,.03,0,.07-.01.1-.02h0s.02,0,.02,0h.03s0,0,0,0c0,0,.02,0,.02,0h0s.02,0,.03,0h0s.07-.01.1-.02h0s.01,0,.02,0h0s.01,0,.02,0h0s.01,0,.02,0h0s.01,0,.02,0c0,0,0,0,0,0,.02,0,.03,0,.05,0,0,0,0,0,0,0,0,0,.01,0,.02,0,0,0,0,0,.01,0,0,0,0,0,.01,0s0,0,.01,0,0,0,.01,0c0,0,0,0,.01,0h0s0,0,.01,0c0,0,0,0,0,0,.03,0,.06,0,.08-.01,0,0,0,0,0,0,0,0,.01,0,.02,0,0,0,0,0,0,0,0,0,.01,0,.02,0,0,0,0,0,0,0,.58-.1,1.15-.19,1.74-.27l-.74-5.27h0Zm-5.02.89c-1.04.22-2.08.47-3.1.74l1.34,5.15c.51-.13,1.01-.26,1.52-.38,0,0,0,0,0,0,0,0,.01,0,.02,0,0,0,0,0,0,0,0,0,.01,0,.02,0,0,0,0,0,0,0,0,0,.01,0,.01,0h.01s0,0,.01,0h.02s0,0,0,0c.02,0,.03,0,.05-.01h0s.02,0,.02,0h0c.39-.09.78-.18,1.17-.26l-1.11-5.2h0Zm-4.95,1.24c-1.02.29-2.04.61-3.04.95l1.7,5.04c.19-.06.38-.13.57-.19,0,0,0,0,0,0,0,0,.01,0,.02,0,0,0,0,0,0,0,0,0,.01,0,.02,0,0,0,0,0,0,0,0,0,.01,0,.02,0,0,0,0,0,0,0,0,0,.02,0,.02,0,0,0,0,0,.01,0,0,0,0,0,0,0h.02s0,0,0,0c0,0,.01,0,.02,0,0,0,0,0,0,0,0,0,.01,0,.02,0,0,0,0,0,0,0,0,0,.01,0,.02,0h0s.01,0,.02,0h0c.25-.08.51-.16.76-.24h0s.02,0,.02,0h0s.01,0,.02,0h0s.01,0,.02,0c0,0,0,0,0,0,0,0,.01,0,.02,0h0s.01,0,.02,0c0,0,0,0,0,0h.05s0-.02,0-.02h.02s0,0,0,0c0,0,.01,0,.02,0,0,0,0,0,0,0,0,0,0,0,.01,0,0,0,0,0,.01,0,0,0,0,0,.01,0,0,0,0,0,.01,0s0,0,.01,0c0,0,0,0,.01,0h.01s0,0,.01,0c0,0,0,0,.01,0,.03,0,.05-.02.08-.02,0,0,0,0,0,0,0,0,.01,0,.02,0,0,0,0,0,0,0,0,0,.01,0,.02,0,0,0,0,0,0,0,0,0,.01,0,.02,0,0,0,0,0,0,0,0,0,.01,0,.02,0,0,0,0,0,0,0,0,0,.01,0,.02,0,0,0,0,0,0,0,.19-.06.38-.11.57-.17,0,0,0,0,0,0,0,0,.01,0,.02,0,0,0,0,0,0,0,0,0,.02,0,.02,0h0s.01,0,.02,0h0s.06-.02.08-.02c0,0,0,0,0,0l-1.48-5.11h0Zm-4.85,1.59c-.99.37-1.99.76-2.97,1.17l2.06,4.91c.13-.05.25-.11.38-.16,0,0,0,0,0,0,.01,0,.02-.01.04-.02,0,0,0,0,0,0,.01,0,.02,0,.03-.01,0,0,0,0,.01,0,.01,0,.02,0,.03-.01,0,0,0,0,.01,0,0,0,.02,0,.03-.01h.02s.01-.01.02-.02c0,0,.02,0,.03-.01,0,0,0,0,.01,0,.48-.2.96-.39,1.45-.57h0s.03-.01.04-.02c0,0,0,0,0,0,.01,0,.02,0,.04-.01,0,0,0,0,.01,0,0,0,.01,0,.02,0,0,0,.02,0,.03-.01,0,0,.01,0,.02,0,0,0,.02,0,.03-.01,0,0,0,0,.01,0,.01,0,.02,0,.03-.01h0s.02-.01.04-.02c0,0,0,0,0,0,.01,0,.03-.01.04-.02,0,0,0,0,0,0,.11-.04.23-.09.35-.13l-1.84-4.99h0Zm-4.72,1.93c-.96.43-1.93.9-2.88,1.37l2.4,4.75c.08-.04.16-.08.25-.12,0,0,0,0,0,0,.01,0,.02-.01.04-.02h0s.02-.01.03-.02c0,0,0,0,.01,0,0,0,.02-.01.03-.02h.01s.02-.01.03-.02c0,0,.01,0,.02,0,0,0,.01,0,.02-.01,0,0,.01,0,.02-.01,0,0,.01,0,.02-.01s.02,0,.02-.01c0,0,.01,0,.02,0,0,0,.01,0,.02,0,0,0,.01,0,.02-.01,0,0,.02,0,.02-.01,0,0,0,0,0,0l.04-.02s0,0,0,0c.01,0,.03-.01.04-.02,0,0,0,0,0,0,.36-.17.71-.35,1.07-.52,0,0,0,0,0,0,.01,0,.03-.01.04-.02h0s.02-.01.03-.02c0,0,0,0,.01,0,0,0,.01,0,.02,0,0,0,.02,0,.02-.01,0,0,.01,0,.02,0,0,0,.01,0,.02,0,0,0,.02,0,.02-.01,0,0,.01,0,.02,0,0,0,.02,0,.02-.01,0,0,.01,0,.02,0,0,0,.01,0,.02,0,0,0,.02,0,.03-.01,0,0,0,0,.01,0,0,0,.02,0,.03-.01,0,0,0,0,.01,0,.01,0,.02,0,.03-.01,0,0,0,0,0,0,.01,0,.02-.01.03-.02,0,0,0,0,0,0,.01,0,.02-.01.04-.02,0,0,0,0,0,0,.01,0,.03-.01.04-.02,0,0,0,0,0,0,.01,0,.03-.01.04-.02,0,0,0,0,0,0,.11-.05.23-.1.34-.15l-2.19-4.85h0Zm-4.57,2.26c-.93.5-1.86,1.03-2.77,1.57l2.73,4.57s0,0,0,0c.01,0,.02-.01.04-.02h0s.08-.05.12-.07c0,0,0,0,0,0,.59-.35,1.19-.7,1.8-1.03,0,0,0,0,0,0,.01,0,.02-.01.03-.02,0,0,0,0,0,0,.01,0,.02-.01.03-.02,0,0,0,0,.01,0,0,0,.02-.01.03-.02,0,0,.01,0,.02,0,0,0,.01,0,.02-.01,0,0,.02,0,.03-.01,0,0,0,0,.01,0,.01,0,.02-.01.03-.02,0,0,0,0,0,0,.13-.07.25-.14.38-.21l-2.52-4.68h0Zm-4.4,2.58c-.89.57-1.79,1.16-2.66,1.77l3.04,4.36h.01s0-.01.01-.02c0,0,.02-.01.02-.02,0,0,.01,0,.02-.01,0,0,.01,0,.02-.01,0,0,.02-.01.02-.02,0,0,0,0,.01,0,0,0,.02-.01.03-.02,0,0,0,0,.01,0,.01,0,.02-.01.03-.02,0,0,0,0,0,0,.01,0,.02-.01.03-.02h0s.02-.02.03-.03c0,0,0,0,0,0,.01,0,.02-.02.04-.02,0,0,0,0,0,0,.01,0,.02-.02.03-.02,0,0,0,0,0,0,.01,0,.02-.02.04-.02,0,0,0,0,0,0,.01,0,.02-.02.04-.03,0,0,0,0,0,0,.67-.46,1.35-.91,2.04-1.35l-2.85-4.49h0Zm-4.21,2.88c-.85.63-1.7,1.28-2.52,1.95l3.34,4.14s.03-.03.05-.04h0s.02-.02.03-.03c0,0,0,0,0,0,0,0,.02-.02.03-.02,0,0,0,0,.01,0,0,0,.02-.01.02-.02,0,0,0,0,.01-.01,0,0,0,0,.01-.01,0,0,.02-.01.02-.02,0,0,0,0,.01-.01,0,0,.02-.01.03-.02,0,0,0,0,0,0,0,0,.02-.02.03-.02,0,0,0,0,0,0,.01,0,.02-.02.03-.02,0,0,0,0,0,0,.01,0,.02-.02.03-.03,0,0,0,0,0,0,0,0,.02-.02.03-.03,0,0,0,0,0,0,.01,0,.02-.02.03-.03,0,0,0,0,0,0,.01,0,.02-.02.03-.03h0c.61-.49,1.24-.96,1.87-1.43l-3.16-4.28h0Zm-4,3.17c-.81.69-1.61,1.4-2.38,2.12l3.62,3.9c.08-.08.16-.15.25-.23,0,0,0,0,0,0l.03-.02s0,0,.01-.01c0,0,.01-.01.02-.02,0,0,.01,0,.02-.01,0,0,.01,0,.02-.01,0,0,.01-.01.02-.02,0,0,0,0,0,0,0,0,.02-.02.03-.02,0,0,0,0,0,0,0,0,.02-.02.03-.02,0,0,0,0,0,0,0,0,.02-.02.03-.03,0,0,0,0,0,0,0,0,.02-.02.03-.03,0,0,0,0,0,0,.03-.03.07-.06.1-.09h0c.29-.27.6-.54.9-.8,0,0,0,0,0,0,.04-.04.09-.08.14-.12,0,0,0,0,0,0,.01,0,.02-.02.03-.03,0,0,0,0,0,0,0,0,.02-.02.03-.03h0s.02-.02.03-.03c0,0,0,0,0,0,.01,0,.02-.02.03-.03,0,0,0,0,0,0,0,0,.02-.02.03-.02,0,0,0,0,0,0,0,0,.02-.02.03-.02,0,0,0,0,0,0,0,0,.02-.02.03-.02h.01s.02-.02.03-.03c0,0,0,0,.01-.01,0,0,.02-.01.02-.02,0,0,0,0,.01-.01,0,0,.01-.01.02-.02,0,0,.01-.01.02-.02,0,0,.01,0,.02-.01,0,0,.01-.01.02-.02,0,0,.01,0,.02-.01l.02-.02s.01,0,.01-.01c0,0,.01,0,.02-.01,0,0,0,0,0,0l.03-.03s0,0,0,0c.01,0,.02-.02.03-.03,0,0,0,0,0,0,0,0,.01,0,.02-.01l-3.45-4.05h0Zm-3.76,3.44c-.76.74-1.5,1.51-2.23,2.28l3.89,3.63c.47-.5.94-.99,1.42-1.47,0,0,0,0,0,0l.03-.03s0,0,0,0c0,0,.02-.02.02-.02,0,0,0,0,.01-.01l.02-.02s.01-.01.02-.02c0,0,0,0,.01-.01,0,0,.01-.02.02-.02h0s.02-.03.02-.03c0,0,0,0,0,0,0,0,.02-.02.03-.03,0,0,0,0,0,0l.03-.03h0c.13-.13.26-.26.39-.39l-3.72-3.8h0Zm-3.51,3.69c-.7.79-1.4,1.61-2.06,2.43l4.13,3.35c.12-.14.23-.29.35-.43h0s.02-.02.03-.03c0,0,0,0,0,0,0,0,.02-.02.03-.03,0,0,0,0,0,0,0,0,.02-.02.02-.03,0,0,0,0,0,0,0,0,.01-.01.02-.02,0,0,0-.01.01-.02,0,0,0-.01.01-.02,0,0,.01-.01.02-.02,0,0,0,0,.01-.01,0,0,.01-.02.02-.02,0,0,0,0,0-.01v-.02s.02,0,.02,0c0-.01.02-.02.03-.03,0,0,0,0,0,0,0-.01.02-.02.03-.03h0s.02-.03.03-.04h0c.12-.14.24-.28.36-.42h0s.05-.06.08-.1h0s.02-.02.03-.04c0,0,0,0,.01-.01,0,0,.01-.01.02-.02,0,0,0,0,.01-.01,0,0,.01-.01.02-.02,0,0,0-.01.01-.02,0,0,0-.01.01-.02,0,0,.01-.01.02-.02,0,0,0,0,0-.01,0,0,.02-.02.02-.03,0,0,0,0,0,0,0,0,.02-.02.02-.03,0,0,0,0,0,0,0-.01.02-.02.03-.03,0,0,0,0,0,0,.19-.22.38-.44.58-.66l-3.98-3.53h0Zm-3.25,3.93c-.64.84-1.28,1.7-1.89,2.57l4.35,3.05c.57-.81,1.15-1.6,1.75-2.38l-4.22-3.24h0Zm-2.96,4.15c-.58.88-1.16,1.79-1.7,2.7l4.56,2.74c.04-.07.08-.13.12-.2,0,0,0,0,0,0,0-.01.02-.02.02-.04,0,0,0,0,0,0,0-.01.01-.02.02-.03,0,0,0,0,0,0,0-.01.01-.02.02-.03,0,0,0,0,0-.01,0,0,.01-.02.02-.03,0,0,0,0,0-.01v-.02s.02-.01.03-.02c0,0,0-.01.01-.02,0,0,.01-.02.02-.03,0,0,0,0,0-.01,0-.01.02-.03.02-.04h0c.33-.55.68-1.09,1.03-1.62,0,0,0,0,0,0l.02-.03s0,0,0-.01c0,0,.01-.02.02-.03,0,0,0-.01.01-.02,0,0,0-.01.01-.02,0,0,.01-.02.02-.02,0,0,0,0,0-.01,0-.01.01-.02.02-.03,0,0,0,0,0,0,0-.01.02-.02.02-.03,0,0,0,0,0,0,.03-.05.07-.1.1-.15l-4.43-2.94h0Zm-2.67,4.35c-.52.92-1.03,1.87-1.51,2.81l4.74,2.41c.45-.88.91-1.75,1.4-2.6l-4.63-2.62h0Zm-2.35,4.53c-.45.96-.89,1.94-1.31,2.91l4.9,2.07c.38-.91.79-1.81,1.21-2.7l-4.8-2.28h0Zm-2.03,4.68c-.39.99-.75,1.99-1.1,3l5.03,1.72c.2-.6.42-1.19.64-1.78h0s.01-.03.02-.04c0,0,0,0,0,0,0-.01.01-.03.02-.04,0,0,0,0,0,0,0-.01.01-.03.02-.04,0,0,0,0,0,0,0-.01.01-.03.02-.04,0,0,0,0,0,0,0-.01.01-.03.02-.04,0,0,0,0,0,0,0-.01,0-.03.01-.04,0,0,0,0,0,0,0-.01,0-.02.01-.04,0,0,0,0,0,0,0-.01,0-.03.01-.04,0,0,0,0,0,0,0-.01.01-.03.01-.04,0,0,0,0,0,0,0-.01.01-.03.01-.04,0,0,0,0,0,0,0-.01,0-.02.01-.04,0,0,0,0,0,0,0-.01,0-.02.01-.04,0,0,0,0,0,0,0-.01,0-.02.01-.04,0,0,0,0,0,0,0-.01,0-.02.01-.04,0,0,0,0,0,0,0-.01,0-.02.01-.04,0,0,0,0,0,0,0-.01,0-.02.01-.04,0,0,0,0,0,0v-.04s.02,0,.02,0c0-.01.01-.03.01-.04,0,0,0,0,0,0,0-.01,0-.03.01-.04,0,0,0,0,0,0,0-.01,0-.03.01-.04,0,0,0,0,0,0,0-.01,0-.02.01-.04h0s0-.03.01-.04c0,0,0,0,0,0,0-.01.01-.03.02-.04,0,0,0,0,0,0l-4.95-1.94h0Zm-1.69,4.82c-.31,1.01-.61,2.04-.88,3.07l5.14,1.35c.07-.26.14-.52.21-.78h0s0-.02,0-.02c0,0,0,0,0-.01,0,0,0,0,0-.01,0,0,0,0,0-.01,0,0,0,0,0,0,0,0,0-.01,0-.01,0,0,0,0,0,0,0,0,0-.01,0-.01,0,0,0,0,0,0,0,0,0-.01,0-.02,0,0,0,0,0,0,.09-.32.18-.63.27-.95,0,0,0,0,0,0,0,0,0-.01,0-.02,0,0,0,0,0,0,0,0,0-.01,0-.02,0,0,0,0,0,0,0,0,0-.01,0-.02h0s0-.02,0-.02h0s0-.02,0-.02,0,0,0-.01c0,0,0,0,0,0,0,0,0-.02,0-.02,0,0,0,0,0,0,0,0,0-.01,0-.02,0,0,0,0,0,0,0,0,0-.01,0-.02,0,0,0,0,0,0,0,0,0-.01,0-.02h0s0-.02,0-.03h0c.07-.24.14-.48.22-.72l-5.08-1.58h0Zm-1.34,4.92c-.24,1.03-.46,2.08-.66,3.12l5.23.99c.18-.97.39-1.93.61-2.89l-5.18-1.22h0Zm-.99,5.01c-.17,1.04-.32,2.11-.44,3.16l5.28.62c.05-.42.1-.85.16-1.27h0s0-.02,0-.03h0s0-.02,0-.02h0s0-.02,0-.03h0s0-.04,0-.05c0,0,0,0,0,0,0,0,0-.01,0-.02,0,0,0,0,0-.01,0,0,0,0,0-.01,0,0,0,0,0-.01,0,0,0,0,0-.01,0,0,0,0,0-.01,0,0,0,0,0-.01,0,0,0,0,0-.01,0,0,0,0,0,0,0-.03,0-.06.01-.08,0,0,0,0,0,0,0,0,0-.01,0-.02,0,0,0,0,0,0,0,0,0-.01,0-.02,0,0,0,0,0,0,0,0,0-.01,0-.02,0,0,0,0,0,0,0-.04.01-.09.02-.14h0s0-.01,0-.02c0,0,0,0,0,0,0,0,0-.01,0-.02,0,0,0,0,0,0,0,0,0-.02,0-.02,0,0,0,0,0,0,0-.04.01-.08.02-.11,0,0,0,0,0,0,0,0,0-.01,0-.02,0,0,0,0,0,0,0,0,0-.01,0-.02,0,0,0,0,0,0v-.02s0,0,0,0c0-.03,0-.06.01-.08,0,0,0,0,0,0,0,0,0,0,0-.02h0s0-.02,0-.02h0s0-.02,0-.02c0,0,0-.01,0-.02,0,0,0,0,0,0,0,0,0-.01,0-.02,0,0,0,0,0,0,0-.02,0-.03,0-.05h0s0-.02,0-.03h0s0-.02,0-.03h0c.03-.19.06-.37.09-.56l-5.25-.85h0Zm-.64,5.06c-.09,1.05-.17,2.12-.22,3.18l5.31.24c.05-.99.11-1.97.2-2.95l-5.3-.48H.29ZM.01,70.92c0,.49-.01.98-.01,1.47,0,.57,0,1.15.02,1.72l5.32-.12c0-.4-.02-.8-.02-1.19h0s0-.08,0-.12h0v-.02h0v-.03s0,0,0-.01v-.02h0v-.03h0v-.03h0s0-.02,0-.03h0v-.04h0v-.03h0v-.03h0v-.03h0v-.04h0v-.05h0v-.04h0s0-.03,0-.04h0v-.04h0s0-.03,0-.04v-.04s0-.02,0-.03v-.02s0-.01,0-.02h0s0-.04,0-.05h0s0-.06,0-.08h0c0-.17,0-.34,0-.51h0s0-.05,0-.08c0,0,0,0,0-.02,0,0,0-.02,0-.03,0,0,0-.02,0-.02,0,0,0,0,0-.01,0-.01,0-.02,0-.04h0c0-.06,0-.11,0-.17l-5.32-.11H.01Zm5.39,4.83l-5.31.26c.05,1.06.13,2.13.23,3.18l5.3-.49c-.05-.57-.1-1.14-.14-1.71h0s0-.02,0-.03h0s0-.07,0-.11h0s0-.02,0-.02c0,0,0,0,0,0,0,0,0-.01,0-.02,0,0,0,0,0-.01,0,0,0,0,0-.01,0,0,0,0,0-.01,0,0,0,0,0-.01s0,0,0-.01h0s0-.04,0-.07c0,0,0,0,0,0,0,0,0-.01,0-.02,0,0,0,0,0,0,0,0,0-.01,0-.02h0c-.02-.29-.03-.59-.05-.88h0Zm.4,4.71l-5.28.63c.13,1.05.28,2.11.45,3.16l5.25-.87c-.16-.97-.3-1.94-.42-2.93h0Zm.73,4.67l-5.22,1c.2,1.04.43,2.09.67,3.12l5.17-1.24c-.14-.6-.28-1.2-.41-1.81h0s0-.02,0-.02h0s0-.02,0-.02h0s0-.02,0-.03c0,0,0,0,0,0,0,0,0-.01,0-.02,0,0,0,0,0,0,0,0,0,0,0-.01,0,0,0-.01,0-.02h0s0-.02,0-.02c0,0,0,0,0,0,0,0,0-.01,0-.02,0,0,0,0,0,0,0,0,0-.01,0-.02,0,0,0,0,0,0-.06-.29-.12-.57-.17-.86h0Zm1.06,4.61l-5.14,1.37c.27,1.02.57,2.05.89,3.06l5.07-1.6c-.1-.32-.2-.64-.3-.97,0,0,0,0,0,0-.02-.06-.04-.12-.05-.18h0c-.17-.56-.32-1.12-.48-1.69h0Zm1.38,4.52l-5.03,1.73c.34,1,.72,2.01,1.11,2.99l4.95-1.95s0,0,0,0c0,0,0-.02-.01-.03,0,0,0,0,0,0,0-.01,0-.02-.01-.03,0,0,0,0,0-.01,0-.01,0-.02-.01-.03h0s0-.03-.01-.04c0,0,0,0,0,0,0-.01,0-.02-.01-.04,0,0,0,0,0,0,0-.01-.01-.03-.01-.04,0,0,0,0,0,0,0-.01,0-.02-.01-.04,0,0,0,0,0,0,0-.01,0-.02-.01-.04,0,0,0,0,0,0,0-.01,0-.03-.01-.04,0,0,0,0,0,0,0-.01,0-.03-.02-.04,0,0,0,0,0,0,0-.01-.01-.03-.02-.04,0,0,0,0,0,0,0-.01,0-.02-.01-.04,0,0,0,0,0,0,0-.01,0-.03-.01-.04h0s-.01-.03-.01-.04c0,0,0,0,0,0,0-.01,0-.02-.01-.04h0s-.01-.03-.01-.04c0,0,0,0,0,0,0-.01,0-.02-.01-.04,0,0,0,0,0,0,0-.01,0-.03-.01-.04,0,0,0,0,0,0,0-.01-.01-.03-.01-.04,0,0,0,0,0,0,0-.01,0-.03-.01-.04,0,0,0,0,0,0,0-.01-.01-.03-.01-.04,0,0,0,0,0,0,0-.01,0-.02-.01-.04,0,0,0,0,0,0,0-.01,0-.02-.01-.04,0,0,0,0,0,0,0-.01,0-.02-.01-.04,0,0,0,0,0,0,0-.01,0-.02-.01-.04,0,0,0,0,0,0,0-.01,0-.03-.01-.04,0,0,0,0,0,0,0-.01,0-.02-.01-.04,0,0,0,0,0,0,0-.01,0-.02-.01-.04,0,0,0,0,0,0,0-.01,0-.02-.01-.04h0s0-.03-.01-.04c0,0,0,0,0,0,0-.01,0-.02-.01-.03,0,0,0,0,0,0,0-.01,0-.02-.01-.03,0,0,0,0,0-.01,0-.01,0-.02-.01-.03,0,0,0,0,0-.01,0-.01,0-.02-.01-.03,0,0,0,0,0,0,0-.01,0-.02-.01-.03,0,0,0,0,0,0,0-.01,0-.02-.01-.03,0,0,0,0,0-.01,0-.01,0-.02-.01-.03,0,0,0,0,0-.01,0-.01,0-.02-.01-.03,0,0,0,0,0-.01,0-.01,0-.02-.01-.03,0,0,0,0,0-.01,0,0,0-.02,0-.03,0,0,0-.01,0-.02,0,0,0-.02,0-.03,0,0,0,0,0-.01,0-.01,0-.02-.01-.03,0,0,0-.01,0-.02,0,0,0-.02-.01-.03,0,0,0-.01,0-.02,0,0,0-.02,0-.02,0,0,0-.01,0-.02,0,0,0-.01,0-.02,0,0,0-.02,0-.02,0,0,0-.02,0-.02,0,0,0-.01,0-.02,0,0,0-.01,0-.02v-.02s-.01-.02-.02-.03c0,0,0-.01,0-.02,0,0,0-.01,0-.02,0,0,0-.02,0-.03,0,0,0,0,0-.02,0,0,0-.02-.01-.03,0,0,0,0,0-.02,0-.01,0-.02-.01-.03,0,0,0-.01,0-.01,0,0,0-.01,0-.02,0,0,0-.02,0-.03,0,0,0-.01,0-.02,0,0,0-.01,0-.01v-.03s-.01-.01-.02-.01c0-.01,0-.02-.01-.03,0,0,0,0,0-.01v-.04s-.02,0-.02,0l-.02-.07s0,0,0,0c0-.01,0-.03-.01-.04,0,0,0,0,0,0,0-.01,0-.03-.01-.04,0,0,0,0,0,0,0-.01,0-.03-.01-.04,0,0,0,0,0,0,0-.02-.02-.05-.02-.07,0,0,0,0,0,0,0,0,0-.02,0-.02h0Zm1.7,4.41l-4.89,2.09c.42.97.86,1.95,1.32,2.91l4.8-2.3c-.13-.28-.26-.56-.39-.83h0s-.01-.03-.02-.04c0,0,0,0,0,0,0-.01-.01-.03-.02-.04,0,0,0,0,0,0,0-.01-.01-.02-.02-.04h0s-.01-.03-.02-.04c0,0,0,0,0,0,0,0-.01-.02-.01-.03,0,0,0,0,0,0,0,0-.01-.02-.01-.03,0,0,0,0,0-.01,0,0,0-.02-.01-.03,0,0,0-.01,0-.02,0,0,0-.02-.01-.03,0,0,0-.01,0-.02,0,0,0-.01,0-.02,0,0,0-.02-.01-.02,0,0,0-.01,0-.02,0,0,0-.02-.01-.03,0,0,0,0,0-.01,0-.01,0-.02-.01-.03,0,0,0,0,0-.01v-.02s-.01,0-.01-.01c0-.01,0-.02-.01-.03,0,0,0,0,0,0,0-.01-.01-.02-.02-.04,0,0,0,0,0,0,0-.01-.01-.03-.02-.04,0,0,0,0,0,0-.18-.4-.35-.8-.53-1.2h0Zm2.01,4.28l-4.73,2.43c.48.94.99,1.89,1.52,2.81l4.62-2.63c-.11-.19-.21-.37-.32-.56,0,0,0,0,0,0,0-.01-.01-.02-.02-.03h0s-.01-.03-.02-.04c0,0,0,0,0-.01,0,0-.01-.02-.02-.03,0,0,0,0,0-.01,0,0,0-.02-.01-.02,0,0,0-.01,0-.02,0,0,0-.01-.01-.02,0,0,0-.01,0-.02,0,0,0-.02-.01-.02,0,0,0-.01,0-.02,0,0,0-.02-.01-.03,0,0,0-.01,0-.02,0,0,0-.01-.01-.02,0,0,0-.01-.01-.02,0,0,0,0,0-.02,0,0-.01-.02-.02-.03,0,0,0,0,0-.01l-.02-.03s0,0,0-.01c0,0,0-.02-.01-.03,0,0,0-.01,0-.02,0,0,0-.01-.01-.02,0,0,0-.02-.01-.02,0,0,0-.01-.01-.02,0,0,0,0,0-.01,0,0-.01-.02-.02-.03,0,0,0,0,0-.01,0,0,0-.02-.01-.03,0,0,0-.01,0-.02,0,0,0-.02-.01-.03,0,0,0-.01,0-.02,0,0,0-.01-.01-.02,0,0,0-.02-.01-.02,0,0,0-.01,0-.02,0,0,0-.02-.01-.02,0,0,0-.01,0-.02,0,0,0-.01-.01-.02,0,0,0-.01-.01-.02,0,0,0-.01-.01-.02v-.02s-.02-.02-.02-.02c0,0,0-.01,0-.02,0,0,0-.02-.01-.03,0,0,0,0,0-.01,0,0-.01-.02-.02-.03,0,0,0,0,0-.01,0,0-.01-.02-.02-.03,0,0,0,0,0-.01,0,0,0-.02-.01-.03h0s0-.03-.01-.04c0,0,0,0,0,0,0-.01-.01-.02-.02-.03,0,0,0,0,0,0,0-.01-.01-.02-.02-.03,0,0,0,0,0,0,0-.01-.01-.02-.02-.03,0,0,0,0,0,0,0-.01-.01-.02-.02-.04,0,0,0,0,0,0-.01-.03-.03-.05-.04-.08,0,0,0,0,0,0,0-.01-.01-.03-.02-.04,0,0,0,0,0,0,0-.01-.01-.02-.02-.04,0,0,0,0,0,0,0-.01-.01-.03-.02-.04,0,0,0,0,0,0-.03-.05-.06-.11-.08-.16h0s-.01-.03-.02-.04h0c-.03-.05-.06-.11-.09-.16h0s-.01-.03-.02-.04c0,0,0,0,0,0,0-.01-.01-.03-.02-.04,0,0,0,0,0,0,0-.02-.01-.03-.02-.04h0s-.03-.05-.04-.08c0,0,0,0,0,0h0Zm2.3,4.13l-4.55,2.75c.55.9,1.12,1.81,1.71,2.69l4.42-2.95c-.24-.36-.47-.72-.71-1.08,0,0,0,0,0,0-.02-.04-.05-.08-.07-.12,0,0,0,0,0,0,0-.01-.01-.02-.02-.04,0,0,0,0,0,0,0-.01-.01-.02-.02-.03,0,0,0,0,0,0,0-.01-.01-.02-.02-.03,0,0,0,0,0,0,0-.01-.01-.02-.02-.03,0,0,0,0,0,0,0-.01-.01-.02-.02-.03,0,0,0,0,0,0,0-.01-.01-.02-.02-.03h0s-.01-.03-.02-.04c0,0,0,0,0,0,0-.01-.01-.02-.02-.03,0,0,0,0,0,0,0-.01-.01-.02-.02-.03,0,0,0,0,0,0,0-.01-.01-.02-.02-.03,0,0,0,0,0,0,0-.01-.01-.02-.02-.03,0,0,0,0,0,0,0-.01-.01-.02-.02-.03,0,0,0,0,0,0,0-.01-.01-.02-.02-.03,0,0,0,0,0,0,0-.01-.01-.02-.02-.03,0,0,0,0,0,0,0,0-.01-.02-.02-.03,0,0,0,0,0,0,0-.01-.01-.02-.02-.03h0s-.01-.03-.02-.04c0,0,0,0,0-.01,0,0-.01-.02-.02-.03h0s-.01-.03-.02-.04c0,0,0,0,0-.01,0-.01-.01-.02-.02-.03,0,0,0,0,0-.01,0,0-.01-.02-.02-.03,0,0,0,0,0,0,0-.01-.01-.02-.02-.03,0,0,0,0,0,0,0-.01-.01-.02-.02-.03,0,0,0,0,0,0,0-.01-.01-.02-.02-.03h0s-.01-.03-.02-.04c0,0,0,0,0-.01,0-.01-.01-.02-.02-.03h0s-.01-.03-.02-.04c0,0,0,0,0,0,0-.01-.01-.02-.02-.03,0,0,0,0,0,0,0,0-.01-.02-.02-.03,0,0,0,0,0,0,0-.01-.01-.02-.02-.03,0,0,0,0,0,0,0-.01-.01-.02-.02-.03,0,0,0,0,0,0,0-.01-.01-.02-.02-.03,0,0,0,0,0,0,0-.01-.01-.02-.02-.03,0,0,0,0,0,0h0Zm2.59,3.95l-4.34,3.07c.61.86,1.25,1.73,1.9,2.56l4.21-3.26c-.57-.74-1.13-1.5-1.68-2.26,0,0,0,0,0,0,0-.01-.02-.02-.02-.03h0s-.02-.03-.02-.04c0,0,0,0,0,0,0,0-.01-.02-.02-.02,0,0,0,0,0,0h0Zm2.86,3.76l-4.12,3.36c.67.82,1.37,1.63,2.07,2.42l3.97-3.54c-.1-.11-.19-.22-.29-.32h0s-.02-.02-.03-.04c0,0,0,0,0,0,0-.01-.02-.02-.03-.03,0,0,0,0,0,0,0,0-.02-.02-.02-.03,0,0,0,0,0-.01,0,0,0-.01-.01-.02,0,0-.01-.01-.02-.02,0,0,0-.01-.01-.02,0,0-.01-.01-.02-.02,0,0,0,0-.01-.01,0,0-.01-.01-.02-.02,0,0-.01-.01-.01-.02,0,0-.01-.01-.02-.02,0,0,0,0-.01-.01,0,0-.01-.01-.02-.02,0,0,0,0,0,0,0,0-.01-.02-.02-.03,0,0,0,0,0,0,0,0-.02-.02-.02-.03,0,0,0,0,0,0,0,0-.02-.02-.02-.03,0,0,0,0,0,0,0,0-.02-.02-.03-.03,0,0,0,0,0,0,0-.01-.02-.02-.03-.03,0,0,0,0,0,0,0-.01-.02-.02-.03-.03,0,0,0,0,0,0,0,0-.02-.02-.03-.03,0,0,0,0,0,0,0-.01-.02-.02-.03-.03,0,0,0,0,0,0,0-.01-.02-.02-.03-.03,0,0,0,0,0,0,0-.01-.02-.02-.03-.03,0,0,0,0,0,0-.03-.03-.06-.07-.09-.1,0,0,0,0,0,0l-.03-.03s0,0,0,0c0-.01-.02-.02-.03-.03,0,0,0,0,0,0-.05-.06-.1-.12-.15-.18,0,0,0,0,0,0-.06-.07-.12-.14-.18-.21,0,0,0,0,0,0,0-.01-.02-.02-.03-.03h0s-.02-.02-.03-.04c0,0,0,0,0,0-.02-.02-.04-.05-.06-.07,0,0,0,0,0,0,0,0-.02-.02-.03-.03,0,0,0,0,0,0,0-.01-.02-.02-.03-.03,0,0,0,0,0,0,0,0-.02-.02-.03-.03,0,0,0,0,0,0,0,0-.02-.02-.02-.03,0,0,0,0,0,0,0,0-.02-.02-.03-.03,0,0,0,0,0,0,0,0-.02-.02-.02-.03,0,0,0,0,0,0,0,0-.02-.02-.02-.03,0,0,0,0,0,0,0,0-.01-.02-.02-.03h0s-.01-.03-.02-.04c0,0,0,0,0-.01,0,0-.01-.02-.02-.02,0,0,0,0-.01-.01,0,0-.01-.01-.01-.02,0,0-.01-.01-.02-.02,0,0,0,0-.01-.01,0,0-.01-.02-.02-.03,0,0,0,0,0-.01,0-.01-.02-.02-.03-.03,0,0,0,0,0,0l-.07-.08h0Zm3.12,3.55l-3.87,3.65c.72.77,1.48,1.53,2.23,2.27l3.71-3.81c-.34-.33-.68-.67-1.01-1.01,0,0,0,0,0,0-.01-.01-.02-.02-.03-.03,0,0,0,0,0,0,0,0-.02-.02-.03-.03,0,0,0,0,0,0-.01-.01-.02-.02-.03-.03,0,0,0,0,0,0,0,0-.02-.02-.03-.03,0,0,0,0,0,0,0,0-.02-.02-.03-.03,0,0,0,0,0,0,0,0-.02-.02-.03-.03h0s-.02-.02-.03-.03c0,0,0,0,0,0,0,0-.02-.02-.03-.03,0,0,0,0,0,0,0,0-.02-.02-.02-.03,0,0,0,0,0,0,0,0-.02-.02-.02-.02,0,0,0,0,0-.01,0,0-.01-.01-.02-.02,0,0,0,0-.01-.01,0,0-.01-.01-.02-.02,0,0,0,0,0-.01,0,0-.02-.02-.02-.02,0,0,0,0-.01-.01,0,0-.01-.01-.02-.02,0,0,0,0-.01-.01,0,0-.02-.02-.02-.02,0,0,0,0,0,0,0,0-.01-.02-.02-.02,0,0,0,0-.01-.01,0,0-.01-.01-.02-.02,0,0,0,0-.01-.01,0,0-.01-.01-.02-.02,0,0,0,0,0,0,0,0-.02-.02-.02-.02,0,0,0,0,0,0,0,0-.02-.02-.02-.03,0,0,0,0,0,0,0,0-.02-.02-.03-.03,0,0,0,0,0,0,0,0-.02-.02-.03-.03,0,0,0,0,0,0-.01-.01-.02-.02-.03-.03h0s-.02-.02-.03-.03c0,0,0,0,0,0-.01-.01-.02-.02-.03-.03,0,0,0,0,0,0-.01-.01-.02-.02-.03-.03,0,0,0,0,0,0-.07-.08-.15-.16-.22-.23h0Zm3.36,3.33l-3.61,3.91c.78.72,1.58,1.43,2.39,2.11l3.43-4.06c-.75-.64-1.49-1.29-2.21-1.96h0Zm3.58,3.08l-3.33,4.15c.83.66,1.68,1.31,2.53,1.94l3.14-4.29c-.11-.08-.22-.16-.33-.25,0,0,0,0,0,0-.01,0-.02-.02-.04-.03,0,0,0,0,0,0-.01,0-.02-.02-.03-.03,0,0,0,0,0,0-.01,0-.02-.02-.03-.03,0,0,0,0,0,0-.01,0-.02-.01-.03-.02,0,0,0,0,0,0-.01,0-.02-.01-.03-.02,0,0,0,0,0,0,0,0-.02-.02-.03-.02,0,0,0,0,0,0,0,0-.02-.01-.03-.02,0,0,0,0-.01,0,0,0-.02-.01-.03-.02h-.01s-.01-.02-.02-.02c0,0-.01,0-.02-.01,0,0-.01,0-.02-.01,0,0-.01-.01-.02-.02,0,0-.01,0-.02-.01,0,0-.01,0-.02-.01,0,0-.01-.01-.02-.02,0,0-.01,0-.02-.01,0,0-.02-.01-.02-.02,0,0-.01,0-.02-.01,0,0-.01,0-.02-.01,0,0-.01-.01-.02-.02,0,0-.01,0-.02-.01,0,0-.01-.01-.02-.02,0,0-.01,0-.02-.01l-.02-.02s-.01,0-.02-.01c0,0,0,0-.01-.01,0,0-.02-.01-.02-.02,0,0,0,0-.01-.01,0,0-.02-.01-.02-.02,0,0,0,0-.01-.01,0,0-.02-.01-.03-.02,0,0,0,0-.01,0,0,0-.01-.01-.02-.02,0,0,0,0-.01-.01,0,0-.02-.01-.02-.02,0,0,0,0-.01,0-.01,0-.02-.01-.03-.02,0,0,0,0,0,0,0,0-.02-.02-.03-.02,0,0,0,0,0,0,0,0-.02-.01-.03-.02,0,0,0,0,0,0-.01,0-.02-.02-.03-.02,0,0,0,0,0,0-.01,0-.02-.02-.03-.03,0,0,0,0,0,0-.02-.02-.05-.04-.07-.06,0,0,0,0,0,0-.32-.24-.63-.49-.94-.74h0Zm3.79,2.82l-3.03,4.37c.87.6,1.77,1.19,2.66,1.76l2.83-4.5c-.5-.32-1-.64-1.49-.96h0s-.03-.02-.04-.03h0s-.03-.02-.04-.03h0s-.07-.05-.1-.07c0,0,0,0,0,0-.01,0-.02-.02-.03-.02,0,0,0,0,0,0l-.03-.02s0,0,0,0c-.01,0-.02-.02-.03-.02h0s-.07-.05-.1-.07h0s-.03-.02-.04-.03h0c-.17-.12-.34-.24-.51-.35h0Zm3.98,2.55l-2.71,4.58c.91.54,1.85,1.07,2.78,1.56l2.51-4.69c-.06-.03-.12-.06-.18-.1h0s-.02-.01-.04-.02c0,0,0,0-.01,0,0,0-.02,0-.02-.01,0,0-.01,0-.02-.01,0,0,0,0-.01,0,0,0-.02-.01-.03-.02,0,0,0,0-.01,0-.01,0-.02-.01-.03-.02,0,0,0,0,0,0-.58-.31-1.16-.64-1.73-.97h0s-.02-.02-.04-.02c0,0,0,0,0,0-.01,0-.02-.01-.03-.02,0,0,0,0,0,0-.01,0-.02-.01-.03-.02,0,0,0,0,0,0,0,0-.02-.01-.03-.02,0,0-.01,0-.02,0,0,0-.01,0-.02-.01,0,0-.01,0-.02-.01,0,0-.01,0-.02-.01,0,0-.01,0-.02-.01,0,0-.02,0-.02-.01,0,0-.01,0-.02-.01,0,0,0,0,0,0l-.04-.02h0s-.09-.06-.14-.09h0Zm4.15,2.26l-2.38,4.76c.95.47,1.92.93,2.88,1.36l2.17-4.86c-.17-.07-.34-.15-.5-.23,0,0,0,0,0,0-.01,0-.03-.01-.04-.02h0s-.03-.01-.04-.02c0,0,0,0,0,0-.01,0-.03-.01-.04-.02h0s-.03-.01-.04-.02c0,0,0,0,0,0-.01,0-.03-.01-.04-.02,0,0,0,0,0,0-.01,0-.02-.01-.04-.02,0,0,0,0,0,0-.01,0-.02-.01-.04-.02,0,0,0,0,0,0-.01,0-.02-.01-.04-.02,0,0,0,0,0,0-.01,0-.02-.01-.03-.02,0,0,0,0,0,0,0,0-.02-.01-.03-.02,0,0,0,0,0,0-.01,0-.02-.01-.03-.02,0,0,0,0-.01,0-.01,0-.02,0-.03-.02,0,0,0,0-.01,0,0,0-.02-.01-.03-.02,0,0,0,0-.01,0,0,0-.02,0-.03-.01,0,0,0,0-.01,0,0,0-.02,0-.03-.01,0,0,0,0-.01,0,0,0-.02,0-.03-.01,0,0,0,0-.01,0,0,0-.02,0-.03-.01,0,0,0,0-.01,0,0,0-.02,0-.03-.01,0,0-.01,0-.02,0,0,0-.02,0-.02-.01,0,0-.01,0-.02,0,0,0-.01,0-.02,0,0,0-.02,0-.02-.01,0,0-.01,0-.02,0,0,0-.01,0-.02,0,0,0-.02,0-.02-.01,0,0-.01,0-.02,0,0,0-.02,0-.03-.01,0,0-.01,0-.02,0,0,0,0,0-.02,0-.01,0-.02,0-.03-.01,0,0,0,0-.01,0-.01,0-.02,0-.03-.01,0,0,0,0-.01,0-.01,0-.02-.01-.03-.02,0,0,0,0-.01,0l-.04-.02s0,0,0,0c0,0-.01,0-.02-.01h0s-.03-.01-.04-.02c0,0,0,0,0,0-.01,0-.02-.01-.04-.02h0s-.03-.02-.04-.02h0c-.28-.14-.56-.28-.84-.42h0Zm4.3,1.97l-2.04,4.91c.98.41,1.98.8,2.97,1.16l1.82-5c-.1-.04-.2-.07-.3-.11,0,0,0,0,0,0-.01,0-.03-.01-.04-.02,0,0,0,0,0,0-.01,0-.03,0-.04-.02,0,0,0,0,0,0-.01,0-.03-.01-.04-.02t0,0s-.03,0-.04-.01c0,0,0,0,0,0-.01,0-.02,0-.04-.01,0,0,0,0-.01,0-.01,0-.02,0-.03-.01,0,0,0,0-.01,0-.01,0-.02,0-.03-.01,0,0,0,0-.01,0-.01,0-.02,0-.03-.01,0,0-.01,0-.02,0,0,0-.02,0-.02,0,0,0-.01,0-.02,0,0,0-.02,0-.02,0,0,0-.01,0-.02,0,0,0-.02,0-.03-.01,0,0-.01,0-.02,0,0,0-.01,0-.02,0,0,0-.02,0-.03-.01,0,0,0,0-.01,0-.01,0-.02,0-.03-.01,0,0,0,0-.01,0-.01,0-.02,0-.04-.01,0,0,0,0,0,0-.04-.01-.08-.03-.12-.04h0s-.03-.01-.05-.02h0c-.34-.13-.68-.27-1.02-.4h0s-.03-.01-.04-.02h0s-.03-.01-.04-.02c0,0,0,0,0,0l-.04-.02s0,0,0,0c-.02,0-.04-.02-.07-.03,0,0-.01,0-.02,0h-.03s-.01-.02-.02-.02c0,0-.02,0-.03-.01,0,0-.01,0-.02,0,0,0-.01,0-.02,0,0,0-.02,0-.03-.01,0,0,0,0-.01,0-.01,0-.02,0-.03-.01,0,0,0,0-.01,0,0,0-.02,0-.03-.01,0,0,0,0-.01,0,0,0-.02,0-.03-.01,0,0,0,0,0,0-.01,0-.02,0-.04-.01,0,0,0,0,0,0-.01,0-.03-.01-.04-.02,0,0,0,0,0,0-.01,0-.03-.01-.04-.02h0Zm4.43,1.66l-1.69,5.04c1,.34,2.03.65,3.05.94l1.46-5.11c-.11-.03-.22-.06-.33-.1,0,0,0,0,0,0,0,0-.01,0-.01,0h-.01s0,0-.01,0,0,0-.01,0c0,0,0,0-.01,0s0,0-.01,0c0,0,0,0-.01,0,0,0-.01,0-.02,0,0,0,0,0,0,0,0,0-.02,0-.02,0h0s-.07-.02-.1-.03h0c-.15-.04-.3-.09-.44-.13h0s-.1-.03-.15-.05h0s-.02,0-.02,0c0,0,0,0,0,0,0,0-.01,0-.02,0,0,0,0,0,0,0,0,0-.01,0-.02,0,0,0,0,0,0,0,0,0-.01,0-.02,0,0,0,0,0,0,0,0,0-.01,0-.02,0,0,0,0,0,0,0,0,0,0,0-.01,0,0,0,0,0-.01,0,0,0,0,0-.01,0-.02,0-.03,0-.05-.01,0,0,0,0,0,0,0,0,0,0-.02,0,0,0,0,0,0,0,0,0-.01,0-.02,0,0,0,0,0,0,0,0,0-.01,0-.02,0,0,0,0,0,0,0,0,0-.01,0-.02,0,0,0,0,0,0,0-.46-.14-.91-.29-1.36-.44h0Zm4.53,1.34l-1.32,5.15c1.03.26,2.07.51,3.11.72l1.09-5.2c-.97-.2-1.93-.43-2.88-.67h0Zm4.62,1.01l-.95,5.23c1.04.19,2.1.36,3.15.5l.72-5.27c-.58-.08-1.16-.17-1.74-.26h0s-.01,0-.02,0c0,0,0,0,0,0,0,0-.01,0-.02,0,0,0,0,0,0,0,0,0-.01,0-.02,0,0,0,0,0,0,0h-.02s0,0-.01,0c0,0,0,0-.01,0,0,0,0,0-.01,0,0,0,0,0-.01,0,0,0-.02,0-.03,0,0,0,0,0-.01,0,0,0,0,0-.02,0,0,0,0,0,0,0,0,0-.01,0-.02,0,0,0,0,0,0,0,0,0-.01,0-.02,0,0,0,0,0,0,0,0,0-.01,0-.02,0,0,0,0,0,0,0-.3-.05-.6-.1-.9-.16h0Zm4.68.68l-.58,5.29c1.05.12,2.12.21,3.18.28l.35-5.31c-.32-.02-.64-.04-.96-.07h0s-.01,0-.02,0h0s-.01,0-.02,0h0s-.02,0-.02,0h0s-.02,0-.03,0c0,0,0,0,0,0h-.02s0,0-.01,0c0,0,0,0-.01,0,0,0,0,0-.01,0h-.01s0,0-.01,0h-.01s0,0-.01,0c0,0,0,0-.01,0,0,0,0,0-.01,0,0,0,0,0-.01,0,0,0-.02,0-.03,0,0,0,0,0,0,0,0,0-.01,0-.02,0,0,0,0,0,0,0,0,0-.01,0-.02,0,0,0,0,0,0,0,0,0-.01,0-.02,0,0,0,0,0,0,0,0,0-.01,0-.02,0,0,0,0,0,0,0,0,0-.01,0-.02,0h0s-.04,0-.06,0c0,0,0,0,0,0,0,0-.01,0-.02,0,0,0,0,0,0,0,0,0-.01,0-.02,0,0,0,0,0,0,0,0,0-.01,0-.02,0,0,0,0,0,0,0,0,0-.01,0-.02,0,0,0,0,0,0,0-.03,0-.05,0-.08,0,0,0,0,0,0,0,0,0,0,0-.01,0,0,0,0,0-.01,0,0,0,0,0-.01,0,0,0,0,0-.01,0,0,0,0,0-.01,0,0,0,0,0-.01,0,0,0,0,0-.01,0,0,0-.01,0-.02,0,0,0,0,0,0,0-.02,0-.03,0-.05,0,0,0,0,0,0,0h-.02s0,0,0,0c0,0-.01,0-.02,0h0s-.02,0-.02,0h0c-.36-.03-.72-.07-1.08-.11h0Zm4.71.35l-.21,5.31c.97.04,1.96.06,2.94.06h.25s-.02-5.32-.02-5.32c-.08,0-.15,0-.23,0h-.09s-.02,0-.03,0h0s-.02,0-.04,0h0s-.02,0-.03,0h0s-.03,0-.04,0h-.01s-.02,0-.04,0h0s-.02,0-.03,0h-.01s-.02,0-.03,0h-.01s-.02,0-.03,0h-.01s-.02,0-.03,0c0,0,0,0-.01,0,0,0-.02,0-.03,0,0,0,0,0-.01,0-.01,0-.02,0-.03,0,0,0,0,0-.01,0-.01,0-.02,0-.03,0,0,0,0,0-.01,0,0,0-.02,0-.03,0,0,0,0,0-.01,0,0,0-.02,0-.03,0,0,0-.01,0-.02,0,0,0-.01,0-.02,0,0,0-.01,0-.02,0-.01,0-.02,0-.03,0,0,0-.01,0-.02,0,0,0-.02,0-.02,0,0,0-.01,0-.02,0,0,0-.01,0-.02,0,0,0-.01,0-.02,0,0,0-.01,0-.02,0,0,0-.02,0-.02,0,0,0-.01,0-.02,0,0,0-.01,0-.02,0,0,0-.02,0-.03,0,0,0-.01,0-.02,0,0,0-.01,0-.01,0-.01,0-.02,0-.04,0,0,0,0,0-.01,0,0,0-.01,0-.02,0,0,0,0,0-.01,0-.01,0-.02,0-.04,0,0,0,0,0-.01,0h-.02s0,0,0,0h-.04s0,0,0,0c-.02,0-.05,0-.07,0,0,0,0,0,0,0-.04,0-.09,0-.13,0h0s-.05,0-.08,0h0s-.05,0-.08,0h0s-.09,0-.13,0h0c-.17,0-.34,0-.51-.01h0s-.05,0-.08,0h0s-.05,0-.08,0h0s-.03,0-.05,0h0s-.02,0-.02,0c0,0,0,0,0,0h-.04s0,0-.01,0c0,0-.01,0-.02,0,0,0-.02,0-.03,0h-.02s-.01,0-.02,0c0,0-.01,0-.02,0,0,0-.02,0-.03,0,0,0-.01,0-.02,0,0,0-.02,0-.02,0h-.01Zm7.68-.13c-.17.01-.34.02-.5.03h0s-.01,0-.02,0c0,0,0,0,0,0,0,0-.01,0-.02,0,0,0,0,0,0,0,0,0-.01,0-.01,0,0,0,0,0-.01,0,0,0,0,0-.01,0s0,0-.01,0,0,0-.01,0c0,0-.02,0-.02,0,0,0,0,0,0,0,0,0-.01,0-.02,0,0,0,0,0,0,0,0,0-.01,0-.02,0h0c-.32.02-.64.04-.96.05h0s-.02,0-.02,0h0s-.01,0-.02,0c0,0,0,0,0,0h-.02s0,0,0,0h-.02s0,0,0,0c0,0-.02,0-.03,0h0s-.01,0-.02,0c0,0,0,0,0,0,0,0-.01,0-.02,0,0,0,0,0,0,0,0,0-.01,0-.02,0,0,0,0,0-.01,0,0,0,0,0-.01,0,0,0,0,0-.01,0,0,0,0,0-.01,0-.02,0-.04,0-.06,0,0,0,0,0,0,0,0,0-.01,0-.02,0,0,0,0,0,0,0,0,0-.01,0-.02,0h0s-.01,0-.02,0c0,0,0,0,0,0,0,0-.01,0-.02,0,0,0,0,0,0,0-.29.01-.58.02-.88.03l.16,5.32c1.06-.03,2.13-.09,3.18-.16l-.39-5.3h0Zm4.7-.51c-.17.03-.35.05-.52.07,0,0,0,0,0,0,0,0-.01,0-.02,0,0,0,0,0,0,0,0,0-.01,0-.01,0,0,0,0,0,0,0,0,0,0,0-.01,0,0,0,0,0-.01,0,0,0,0,0-.01,0,0,0-.01,0-.02,0h0s-.02,0-.02,0c0,0,0,0,0,0,0,0-.01,0-.02,0,0,0,0,0,0,0,0,0-.01,0-.02,0h0s-.01,0-.02,0h0c-.73.1-1.46.18-2.19.25l.53,5.29c1.05-.1,2.12-.23,3.17-.39l-.76-5.26h0Zm4.65-.84c-.16.03-.32.07-.48.1h0s-.02,0-.03,0h0s-.02,0-.02,0h0s-.02,0-.02,0h0s-.01,0-.02,0c0,0,0,0,0,0-.02,0-.03,0-.05.01,0,0,0,0,0,0,0,0-.01,0-.02,0,0,0,0,0-.01,0,0,0,0,0-.01,0s0,0-.01,0h-.01s0,0-.01,0c0,0,0,0-.01,0,0,0-.01,0-.02,0,0,0,0,0,0,0,0,0-.01,0-.02,0t0,0s-.09.02-.13.03c0,0,0,0,0,0-.66.13-1.33.26-2,.37l.9,5.24c1.04-.18,2.1-.38,3.13-.61l-1.13-5.2h0Zm4.58-1.17c-.7.21-1.41.4-2.12.58h0s-.01,0-.02,0h0s-.01,0-.02,0h0s-.01,0-.02,0c0,0,0,0,0,0,0,0-.01,0-.02,0,0,0,0,0,0,0,0,0-.01,0-.02,0,0,0-.02,0-.03,0,0,0,0,0,0,0,0,0-.01,0-.02,0h0s-.01,0-.02,0c0,0,0,0,0,0,0,0-.01,0-.02,0h0c-.17.04-.34.09-.52.13l1.27,5.17c1.03-.25,2.07-.53,3.08-.83l-1.49-5.1h0Zm4.49-1.49c-.35.13-.7.26-1.06.38h0s-.01,0-.02,0c0,0,0,0,0,0-.02,0-.03.01-.05.02,0,0,0,0-.01,0,0,0,0,0,0,0,0,0-.01,0-.02,0,0,0,0,0,0,0,0,0-.01,0-.02,0,0,0,0,0,0,0,0,0-.01,0-.02,0,0,0,0,0,0,0-.52.18-1.05.36-1.58.53l1.63,5.06c1.01-.32,2.02-.68,3.01-1.05l-1.85-4.99h0Zm4.37-1.8c-.34.15-.67.3-1.01.45h0c-.06.02-.11.05-.17.07,0,0,0,0,0,0-.01,0-.03.01-.04.02,0,0,0,0,0,0-.01,0-.03.01-.04.02,0,0,0,0,0,0-.01,0-.03.01-.04.02,0,0,0,0,0,0l-.04.02s0,0,0,0c-.01,0-.02.01-.04.02,0,0,0,0,0,0-.01,0-.02.01-.04.02,0,0,0,0,0,0-.01,0-.02.01-.04.02,0,0,0,0,0,0,0,0-.02.01-.03.01,0,0,0,0,0,0-.01,0-.02.01-.04.02,0,0,0,0,0,0-.01,0-.02,0-.03.01,0,0,0,0,0,0-.01,0-.02.01-.04.02,0,0,0,0,0,0-.01,0-.02,0-.03.01,0,0,0,0-.01,0-.01,0-.02,0-.03.01,0,0,0,0,0,0-.01,0-.02,0-.03.01,0,0,0,0,0,0-.01,0-.02,0-.03.01,0,0,0,0,0,0-.01,0-.02,0-.03.01,0,0,0,0-.01,0,0,0-.02,0-.03.01,0,0,0,0-.01,0-.01,0-.02,0-.03.01,0,0,0,0-.01,0,0,0-.02,0-.03.01,0,0,0,0-.01,0,0,0-.02,0-.03.01,0,0,0,0-.01,0-.01,0-.02,0-.03.01h-.01s-.02.01-.03.02c0,0,0,0-.01,0-.01,0-.02,0-.03.01,0,0,0,0-.01,0,0,0-.02,0-.03.01,0,0,0,0-.01,0,0,0-.02,0-.03.01,0,0,0,0-.01,0-.01,0-.02,0-.03.01,0,0,0,0-.01,0-.01,0-.02,0-.03.01,0,0,0,0-.01,0-.01,0-.02,0-.03.01,0,0,0,0-.01,0,0,0-.02,0-.03.01,0,0,0,0,0,0-.01,0-.02,0-.03.01,0,0,0,0,0,0-.01,0-.02,0-.03.01,0,0,0,0,0,0-.01,0-.02,0-.03.01,0,0,0,0-.01,0-.01,0-.02,0-.03.01,0,0,0,0,0,0-.01,0-.02,0-.03.01,0,0,0,0,0,0-.01,0-.02,0-.04.01h0s-.02.01-.04.02c0,0,0,0,0,0l1.99,4.93c.98-.4,1.97-.82,2.93-1.26l-2.2-4.84h0Zm4.23-2.11c-.63.34-1.27.68-1.92,1,0,0,0,0,0,0-.01,0-.03.01-.04.02h0s-.03.02-.04.02c0,0,0,0,0,0-.01,0-.02.01-.04.02,0,0,0,0,0,0-.01,0-.02.01-.04.02,0,0,0,0,0,0,0,0-.02.01-.03.02,0,0,0,0-.01,0-.01,0-.02,0-.03.02h-.01s-.02.02-.03.02c0,0-.01,0-.02,0,0,0-.01,0-.02,0h-.03s0,.02-.01.02c-.01,0-.02.01-.03.02,0,0,0,0-.01,0-.1.05-.2.1-.3.15l2.33,4.78c.95-.46,1.91-.95,2.84-1.46l-2.54-4.67h0Zm4.07-2.4c-.05.03-.1.07-.16.1,0,0,0,0,0,0-.01,0-.03.02-.04.02h0s-.08.05-.11.07c0,0,0,0,0,0-.01,0-.02.01-.03.02,0,0,0,0,0,0-.01,0-.02.01-.03.02,0,0,0,0,0,0,0,0-.02.01-.03.02,0,0,0,0,0,0,0,0-.02.01-.03.02,0,0,0,0-.01,0,0,0-.02.01-.02.01h-.02s-.02.02-.02.02c0,0,0,0-.01,0,0,0-.02.01-.03.02,0,0,0,0-.01,0,0,0-.02.01-.02.02,0,0-.01,0-.02.01,0,0-.01,0-.02.01l-.02.02s0,0-.01,0c0,0-.02.01-.03.02,0,0,0,0-.01,0,0,0-.02.01-.03.02,0,0,0,0-.01,0-.01,0-.02.01-.04.02,0,0,0,0,0,0,0,0-.01,0-.02.01,0,0,0,0,0,0-.01,0-.02.02-.04.02,0,0,0,0,0,0l-.03.02s0,0,0,0c-.01,0-.02.01-.04.02,0,0,0,0,0,0-.01,0-.03.02-.04.02h0s-.07.05-.11.07h0s-.03.02-.04.03h0s-.03.02-.04.03h0s-.1.06-.15.09h0s-.03.02-.04.03h0s-.03.02-.04.03h0c-.05.03-.1.06-.15.09h0s-.03.02-.04.03c0,0,0,0,0,0-.01,0-.03.02-.04.02,0,0,0,0,0,0-.04.02-.07.04-.11.06,0,0,0,0,0,0-.01,0-.02.01-.03.02,0,0,0,0,0,0-.01,0-.02.01-.03.02,0,0,0,0-.01,0-.01,0-.02.01-.03.02,0,0,0,0-.01,0,0,0-.01,0-.02.01,0,0-.01,0-.02.01,0,0-.01,0-.02.01,0,0-.02.01-.02.01,0,0-.01,0-.02,0,0,0-.01,0-.02.01,0,0-.02,0-.02.01,0,0-.01,0-.02,0,0,0-.01,0-.02.01,0,0-.01,0-.02.01,0,0,0,0-.01,0,0,0-.02.01-.03.02,0,0,0,0-.01,0,0,0-.02.01-.03.02,0,0,0,0-.01,0,0,0-.02.01-.03.02,0,0,0,0-.01,0-.01,0-.02.01-.03.02,0,0,0,0,0,0-.01,0-.02.01-.03.02,0,0,0,0,0,0-.01,0-.02.01-.03.02,0,0,0,0,0,0-.01,0-.02.01-.03.02,0,0,0,0,0,0-.01,0-.02.01-.03.02,0,0,0,0,0,0-.01,0-.02.01-.04.02,0,0,0,0,0,0-.01,0-.03.01-.04.02l2.66,4.6c.92-.53,1.83-1.09,2.72-1.66l-2.86-4.48h0Zm3.89-2.68c-.52.38-1.04.76-1.57,1.13,0,0,0,0,0,0-.01,0-.02.02-.03.02,0,0,0,0,0,0-.01,0-.02.01-.03.02,0,0,0,0,0,0-.01,0-.02.01-.03.02,0,0,0,0,0,0,0,0-.02.01-.03.02,0,0,0,0-.01,0,0,0-.02.01-.03.02,0,0,0,0-.01,0,0,0-.02.01-.03.02,0,0-.01,0-.02.01,0,0-.02.01-.02.02,0,0-.01,0-.02.01,0,0,0,0-.01,0-.01,0-.02.01-.03.02h0s-.02.02-.04.03h0c-.16.11-.32.22-.48.33l2.98,4.41c.88-.59,1.75-1.21,2.6-1.84l-3.17-4.27h0Zm3.69-2.95c-.23.2-.47.4-.7.6,0,0,0,0,0,0-.01,0-.02.02-.03.03,0,0,0,0,0,0-.01,0-.02.02-.03.03,0,0,0,0,0,0,0,0-.02.02-.03.03,0,0,0,0,0,0,0,0-.02.02-.03.03,0,0,0,0,0,0,0,0-.02.02-.03.02,0,0,0,0,0,0,0,0-.02.02-.03.02,0,0,0,0,0,0,0,0-.02.01-.03.02,0,0,0,0-.01,0,0,0-.02.01-.03.02,0,0,0,0-.01.01,0,0-.01.01-.02.02h-.02s-.01.02-.02.03c0,0-.02.01-.02.02,0,0,0,0-.01,0,0,0-.02.01-.03.02,0,0,0,0,0,0-.38.32-.77.63-1.16.93l3.28,4.19c.83-.65,1.66-1.33,2.47-2.02l-3.46-4.04h0Zm3.48-3.2s0,0-.01.01c0,0,0,0,0,0,0,0-.01.01-.02.02,0,0,0,0-.01.01,0,0,0,0-.01.01,0,0-.01.01-.02.02h-.01s-.02.03-.02.03c0,0,0,0,0,0,0,0-.02.02-.03.03h0c-.5.5-1.02.98-1.54,1.46,0,0,0,0,0,0,0,0-.02.02-.03.03,0,0,0,0,0,0,0,0-.02.02-.03.02,0,0,0,0,0,0,0,0-.01.01-.02.02,0,0-.01.01-.02.02,0,0-.01,0-.01.01,0,0-.02.02-.03.02,0,0,0,0,0,0-.09.09-.19.17-.29.26l3.57,3.95c.78-.71,1.56-1.45,2.32-2.19l-3.74-3.79h0Zm3.25-3.44c-.06.06-.11.13-.17.19h0s-.02.02-.03.04c0,0,0,0,0,0,0,0-.02.02-.03.03,0,0,0,0,0,0l-.02.02s0,.01-.02.02c0,0,0,0-.01.01,0,0-.01.02-.02.02,0,0,0,0,0,.01,0,0-.02.02-.02.03,0,0,0,0,0,0,0,0-.02.02-.03.03,0,0,0,0,0,0-.01.01-.02.02-.03.03,0,0,0,0,0,0-.01.01-.02.02-.03.03t0,0c-.51.57-1.04,1.14-1.57,1.69l3.83,3.69c.73-.76,1.46-1.55,2.16-2.35l-3.99-3.52h0Zm3-3.65c-.59.77-1.19,1.53-1.81,2.27,0,0,0,0,0,0,0,.01-.02.02-.03.03,0,0,0,0,0,0l4.08,3.41c.68-.81,1.35-1.65,1.99-2.49l-4.23-3.23h0Zm2.73-3.86c-.08.12-.16.24-.24.36,0,0,0,0,0,0,0,.01-.02.02-.02.04h0c-.03.05-.06.1-.1.15h0s-.02.03-.03.04h0s-.02.03-.03.04h0s-.02.03-.03.04h0s-.03.04-.04.06h0s-.02.03-.03.04h0s-.02.03-.03.04h0s-.02.03-.03.04h0c-.36.53-.72,1.05-1.1,1.57l4.31,3.11c.62-.86,1.23-1.74,1.81-2.62l-4.44-2.92h0Zm2.46-4.04c-.09.16-.18.32-.27.48,0,0,0,0,0,0,0,.01-.02.03-.02.04,0,0,0,0,0,0,0,.01-.01.03-.02.04,0,0,0,0,0,0-.01.03-.03.05-.04.08,0,0,0,0,0,0,0,.01-.02.03-.02.04,0,0,0,0,0,0,0,.01-.01.02-.02.04h0s-.01.03-.02.04c0,0,0,0,0,0,0,.01-.01.03-.02.04,0,0,0,0,0,0-.01.03-.03.05-.04.08,0,0,0,0,0,0,0,.01-.01.02-.02.04,0,0,0,0,0,0,0,.01-.01.02-.02.04,0,0,0,0,0,0,0,.01-.01.02-.02.04h0s-.02.03-.02.04c0,0,0,0,0,0,0,.01-.02.03-.02.04h0s-.01.02-.02.04c0,0,0,0,0,0,0,.01-.01.02-.02.04,0,0,0,0,0,0,0,.01-.01.03-.02.04,0,0,0,0,0,0,0,.01-.01.02-.02.04,0,0,0,0,0,0-.02.04-.05.08-.07.12,0,0,0,0,0,0,0,.01-.02.03-.02.04,0,0,0,0,0,0l-.02.04s0,0,0,0c-.22.37-.44.74-.67,1.1l4.52,2.8c.56-.9,1.1-1.82,1.62-2.75l-4.64-2.6h0Zm2.17-4.2c-.19.4-.38.79-.57,1.18h0s-.01.03-.02.04c0,0,0,0,0,0,0,.01-.01.03-.02.04,0,0,0,0,0,0l-.02.04h0s-.02.05-.03.07c0,0,0,0,0,0,0,.01-.01.02-.02.03,0,0,0,0,0,.01,0,.01-.01.02-.02.03,0,0,0,0,0,.01l-.02.03s0,0,0,.01c0,0,0,.02-.01.02,0,0,0,.01,0,.02,0,0,0,.01,0,.02,0,0,0,.01-.01.02,0,0,0,.01-.01.02,0,0,0,0,0,.01,0,0,0,.02-.01.03,0,0,0,0,0,.01,0,0,0,.02-.01.03,0,0,0,.01,0,.02,0,0,0,.01-.01.02,0,0,0,.01-.01.02,0,0,0,.01,0,.02,0,0,0,.02-.01.02,0,0,0,.01,0,.02,0,0,0,.01,0,.02,0,0,0,.02-.01.03,0,0,0,0,0,.02,0,0,0,.02-.01.03,0,0,0,.01,0,.01,0,0,0,.02-.01.03,0,0,0,.01,0,.02,0,0,0,.02-.01.03,0,0,0,.01,0,.02,0,0,0,.01-.01.02,0,0,0,0,0,.01,0,.01-.01.02-.02.03,0,0,0,0,0,0,0,.01-.01.02-.02.03,0,0,0,0,0,.01,0,.01-.01.02-.02.03,0,0,0,0,0,0,0,.01-.01.03-.02.04h0s-.02.05-.03.07h0s-.01.03-.02.04c0,0,0,0,0,0,0,.01-.01.03-.02.04h0c-.05.09-.09.18-.14.27l4.71,2.48c.49-.94.97-1.9,1.42-2.85l-4.81-2.27h0Zm1.86-4.34s-.02.06-.03.08c0,0,0,0,0,0,0,.01,0,.02-.01.04,0,0,0,0,0,0,0,.01,0,.02-.01.03,0,0,0,0,0,.01,0,.01,0,.02-.01.03,0,0,0,0,0,.01,0,0,0,.01,0,.02,0,0,0,.02,0,.02,0,0,0,.01,0,.02,0,.01,0,.02-.01.03,0,0,0,0,0,.01,0,.02-.02.05-.03.07,0,0,0,0,0,0,0,.01-.01.03-.02.04h0c-.18.44-.35.88-.54,1.32,0,0,0,0,0,.01,0,.01,0,.02-.01.03,0,0,0,.01,0,.01v.03s-.02.01-.02.02c0,0,0,.01,0,.02,0,0,0,.02-.01.03h0s0,.03-.01.04c0,0,0,0,0,.01,0,.01,0,.02-.01.03,0,0,0,0,0,0,0,.01,0,.02-.01.03,0,0,0,0,0,0,0,.01-.01.03-.02.04,0,0,0,0,0,0,0,.01-.01.03-.02.04,0,0,0,0,0,0-.08.2-.17.39-.26.59l4.87,2.14c.43-.97.84-1.96,1.22-2.95l-4.96-1.92h0Zm1.55-4.47c-.29.94-.6,1.88-.93,2.8l5.01,1.79c.36-1,.69-2.02,1.01-3.03l-5.08-1.56h0Zm1.23-4.56c-.05.2-.09.4-.14.59h0s0,.02,0,.02h0s0,.02,0,.02c0,0,0,0,0,0,0,0,0,.01,0,.02,0,0,0,0,0,0,0,0,0,0,0,.01,0,0,0,0,0,.01,0,0,0,0,0,0-.18.72-.36,1.44-.56,2.16l5.12,1.43c.28-1.02.55-2.06.79-3.09l-5.18-1.2h0Zm.9-4.64c-.02.15-.05.29-.07.43h0s0,.02,0,.02c0,0,0,0,0,0,0,.04-.01.08-.02.11h0s0,.01,0,.02c0,0,0,0,0,0,0,0,0,.01,0,.02,0,0,0,0,0,0,0,0,0,.01,0,.02,0,0,0,0,0,0,0,0,0,.01,0,.02h0s0,.02,0,.02c0,0,0,0,0,0,0,.03,0,.06-.01.08,0,0,0,0,0,0,0,0,0,.01,0,.02,0,0,0,0,0,0,0,0,0,.01,0,.02,0,0,0,0,0,0,0,0,0,.01,0,.02,0,0,0,0,0,0,0,0,0,.01,0,.02,0,0,0,0,0,0,0,.03-.01.06-.02.09,0,0,0,0,0,0,0,0,0,.01,0,.02,0,0,0,0,0,0,0,0,0,.01,0,.02,0,0,0,0,0,0,0,0,0,.01,0,.02,0,0,0,0,0,0,0,0,0,.01,0,.02,0,0,0,0,0,0-.11.62-.23,1.24-.35,1.86l5.21,1.06c.21-1.04.4-2.09.57-3.14l-5.25-.83h0Zm.57-4.69s0,.07,0,.1h0s0,.02,0,.03h0s0,.02,0,.03h0s0,.07,0,.11h0s0,.02,0,.03h0s0,.02,0,.03h0s0,.09-.01.13h0s0,.02,0,.03h0s0,.02,0,.03h0c-.05.57-.11,1.13-.18,1.69h0s0,.02,0,.02h0s0,.02,0,.02c0,0,0,0,0,0,0,0,0,.01,0,.02,0,0,0,0,0,0,0,0,0,.01,0,.02h0s0,.02,0,.03c0,0,0,.01,0,.02,0,0,0,.01,0,.02,0,0,0,.01,0,.01,0,0,0,0,0,0,0,0,0,0,0,.02,0,0,0,0,0,0,0,0,0,0,0,.02,0,0,0,0,0,0,0,0,0,.01,0,.02,0,0,0,0,0,0-.02.17-.04.33-.06.5l5.27.69c.14-1.05.25-2.11.34-3.17l-5.3-.46h0Zm.24-4.72c0,.39-.02.77-.03,1.15h0s0,.01,0,.02c0,0,0,0,0,0,0,0,0,0,0,.01,0,0,0,0,0,.01,0,0,0,0,0,.01,0,0,0,.01,0,.02,0,0,0,0,0,0-.02.57-.05,1.14-.08,1.71l5.31.32c.06-1.05.1-2.12.12-3.18l-5.32-.09h0Zm5.23-5.01l-5.31.28c0,.05,0,.1,0,.15,0,0,0,0,0,0,0,0,0,0,0,.01s0,0,0,.01c0,0,0,0,0,0,0,0,0,.01,0,.02,0,0,0,0,0,0,.04.73.06,1.47.07,2.2h0s0,.02,0,.02c0,0,0,0,0,0,0,0,0,.01,0,.02h0s0,.02,0,.02c0,0,0,0,0,.01h0c0,.15,0,.29,0,.44l5.32-.05c0-1.06-.04-2.13-.1-3.18h0Zm-.45-5.08l-5.28.65c.08.67.16,1.34.22,2.02,0,0,0,0,0,0,0,0,0,.01,0,.02,0,0,0,0,0,0,0,0,0,.01,0,.02,0,0,0,0,0,0,0,.04,0,.07.01.11,0,0,0,0,0,0,0,0,0,.01,0,.02,0,0,0,0,0,0,0,0,0,.01,0,.02,0,0,0,0,0,0,0,0,0,.01,0,.02,0,0,0,0,0,0,0,.04,0,.07,0,.11,0,0,0,0,0,0,0,0,0,.01,0,.02,0,0,0,0,0,0,0,0,0,.01,0,.02,0,0,0,0,0,0,0,0,0,.01,0,.02,0,0,0,0,0,0,0,0,0,.01,0,.02h0s0,.04,0,.07c0,0,0,0,0,0,0,0,0,.01,0,.02,0,0,0,0,0,0,0,0,0,.01,0,.02,0,0,0,0,0,0,0,0,0,.01,0,.02,0,0,0,0,0,0,0,0,0,.01,0,.02,0,0,0,0,0,0,0,.04,0,.08,0,.11h0s0,.01,0,.02c0,0,0,0,0,0,0,.06,0,.12.01.18l5.3-.42c-.08-1.06-.19-2.12-.32-3.17h0Zm-.8-5.04l-5.22,1.02c.19.96.36,1.93.5,2.91l5.26-.79c-.16-1.05-.34-2.1-.54-3.14h0Zm-1.16-4.97l-5.13,1.39c.12.46.24.92.36,1.38h0s0,.02,0,.02c0,0,0,0,0,0,0,0,0,0,0,.01,0,0,0,0,0,.01,0,0,0,0,0,0,0,0,0,.01,0,.02,0,0,0,0,0,0,0,0,0,.01,0,.02,0,0,0,0,0,0,.11.44.21.89.31,1.34,0,0,0,0,0,0,0,0,0,.01,0,.02,0,0,0,0,0,0,0,0,0,0,0,0l5.19-1.16c-.23-1.03-.49-2.08-.77-3.1h0Zm-1.51-4.88l-5.02,1.75c.07.19.13.38.2.58h0s.01.03.02.05h0s.02.06.03.1h0s0,.02,0,.02c0,0,0,0,0,0,0,0,0,.01,0,.02,0,0,0,0,0,0v.02s0,0,0,0h0s0,.02,0,.02c0,0,0,0,0,.01,0,0,0,0,0,.01,0,0,0,0,0,.01,0,0,0,0,0,.01,0,0,0,0,0,.01.01.03.02.07.03.1h0s0,.02,0,.02c0,0,0,0,0,0v.02s0,0,0,0c.2.59.38,1.19.56,1.79l5.09-1.53c-.3-1.01-.63-2.04-.98-3.04h0Zm-1.85-4.76l-4.89,2.1c.32.73.62,1.47.91,2.22,0,0,0,0,0,0,0,.01.01.03.02.04,0,0,0,0,0,0,0,.01.01.03.02.04h0s0,.03.01.04c0,0,0,0,0,0,0,.01,0,.02.01.03h0s0,.03.01.04h0s0,.03.01.04c0,0,0,.01,0,.02,0,0,0,.01,0,.02,0,0,0,.02,0,.02,0,0,0,.01,0,.02,0,.01,0,.02.01.03,0,0,0,0,0,.01l.05.14,4.97-1.88c-.38-.99-.78-1.99-1.2-2.96h0Zm-2.18-4.61l-4.72,2.44c.08.16.17.33.25.49,0,0,0,0,0,0,0,.01.01.03.02.04,0,0,0,0,0,0,0,.01.01.03.02.04,0,0,0,0,0,0,.01.03.03.05.04.08,0,0,0,0,0,0,0,.01.01.02.02.04,0,0,0,0,0,0,0,.01.01.02.02.04,0,0,0,0,0,0,0,.01.01.02.02.04,0,0,0,0,0,0,0,.01.01.03.02.04,0,0,0,0,0,0,0,.01.01.03.02.04,0,0,0,0,0,0,0,.01.01.03.02.04,0,0,0,0,0,0,0,.01.01.02.02.04,0,0,0,0,0,0,0,.01.01.02.02.04,0,0,0,0,0,0,0,.01.01.03.02.04h0c.27.54.53,1.08.78,1.62l4.83-2.23c-.44-.96-.92-1.92-1.4-2.87h0Zm-2.5-4.45l-4.54,2.77c.2.33.4.66.59.99h0s.01.03.02.04c0,0,0,0,0,0,0,.01.01.02.02.04h0s.01.03.02.04c0,0,0,0,0,0,0,.01.01.02.02.03,0,0,0,0,0,0,0,0,.01.02.02.03,0,0,0,0,0,.01,0,0,.01.02.02.03,0,0,0,0,0,.01,0,0,.01.02.02.03,0,0,0,.01,0,.02,0,0,0,.02.01.03,0,0,0,.01,0,.02,0,0,0,.01.01.02v.02s.02.01.02.01l.02.03s0,0,0,.01c0,.01.01.02.02.03,0,0,0,0,0,.01,0,0,.01.02.02.03,0,0,0,.01,0,.02,0,0,0,.01.01.02,0,0,0,0,0,0,0,.01.01.02.02.03,0,0,0,0,0,0,0,.01.01.02.02.04,0,0,0,0,0,0,0,.01.01.02.02.04,0,0,0,0,0,0,0,.01.02.03.02.04h0s.02.04.04.07c0,0,0,0,0,0,0,.01.01.03.02.04,0,0,0,0,0,0,0,.01.01.02.02.04,0,0,0,0,0,0,0,.01.01.02.02.03,0,0,0,0,0,0,0,.01.01.03.02.04t0,0s0,.01.01.02c0,0,0,0,0,0,0,.01.01.02.02.03,0,0,0,0,0,.01,0,0,0,.02.01.03,0,0,0,.01,0,.02,0,0,0,.02.01.02,0,0,0,.01.01.02,0,0,0,0,0,.01,0,0,.01.02.02.03,0,0,0,0,0,.01,0,.01.01.02.02.03,0,0,0,0,0,.01,0,.01.01.02.02.03,0,0,0,0,0,0,0,.01.01.02.02.03,0,0,0,0,0,0,.05.09.1.19.16.28l4.66-2.57c-.51-.93-1.05-1.85-1.6-2.76h0Zm-2.81-4.26l-4.33,3.08c.57.8,1.12,1.62,1.66,2.44l4.47-2.89c-.57-.89-1.18-1.78-1.79-2.64h0Zm-3.1-4.05l-4.11,3.38c.6.74,1.2,1.49,1.77,2.25,0,0,0,0,0,0,0,.01.02.02.03.03,0,0,0,0,0,0,0,.01.02.02.02.03,0,0,0,0,0,0l4.25-3.2c-.64-.85-1.3-1.69-1.97-2.51h0Zm-3.38-3.82l-3.86,3.66c.08.09.17.18.25.27h0s.02.02.03.03c0,0,0,0,0,0,0,0,.02.02.03.03,0,0,0,0,0,0,0,0,.02.02.03.03,0,0,0,0,0,0,0,0,.02.02.02.03,0,0,0,0,0,0,0,0,.01.02.02.02h.01s.01.02.02.03c0,0,0,.01.01.02,0,0,.01.01.02.02,0,0,0,.01.01.02,0,0,.01.01.02.02,0,0,.01.01.02.02,0,0,0,0,0,.01,0,0,.02.02.02.03,0,0,0,0,0,0,0,0,.02.02.03.03,0,0,0,0,0,0,.01.01.02.02.03.03h0c.46.51.92,1.02,1.37,1.53l4.02-3.49c-.69-.8-1.41-1.59-2.14-2.36h0Zm-3.64-3.58l-3.59,3.92c.73.67,1.44,1.35,2.13,2.04l3.76-3.76c-.75-.75-1.52-1.49-2.3-2.21h0Zm-3.88-3.31l-3.31,4.16s.09.08.14.11c0,0,0,0,0,0,0,0,.02.02.03.03,0,0,0,0,0,0,.01,0,.02.02.03.03,0,0,0,0,0,0,0,0,.02.02.03.03h0s.02.02.03.03h0s.02.02.03.03c0,0,0,0,0,0,0,0,.02.02.03.02,0,0,0,0,.01,0,0,0,.02.01.03.02,0,0,0,0,.01,0,0,0,.02.01.03.02,0,0,0,0,.01.01,0,0,.02.01.02.02,0,0,0,0,.01.01,0,0,.01,0,.02.01l.02.02s.01,0,.02.01c0,0,.01,0,.02.01,0,0,.01,0,.02.01,0,0,.01,0,.02.01,0,0,.02.01.02.02,0,0,0,0,.01.01,0,0,.01.01.02.02,0,0,.01,0,.02.01,0,0,.01,0,.02.01,0,0,.01.01.02.02,0,0,0,0,.01.01,0,0,.02.01.02.02,0,0,0,0,.01,0,0,0,.02.01.02.02,0,0,0,0,.01.01,0,0,.01.01.02.02,0,0,.01,0,.02.01,0,0,.01,0,.02.01,0,0,0,0,0,0,0,0,.02.02.03.02,0,0,0,0,0,0,0,0,.02.02.03.02,0,0,0,0,0,0,0,0,.02.02.03.02,0,0,0,0,0,0,.01,0,.02.02.03.03,0,0,0,0,0,0,.03.03.06.05.09.08,0,0,0,0,0,0,.01,0,.02.02.04.03h0s.02.02.04.03h0c.06.05.12.1.17.15h0s.03.02.04.03h0c.3.25.6.51.89.76l3.49-4.01c-.8-.69-1.62-1.38-2.45-2.04h0Zm-4.1-3.03l-3.01,4.38c.06.04.11.08.17.12h0s.02.02.03.03c0,0,0,0,0,0,0,0,.01,0,.02.01,0,0,.02.01.02.02,0,0,.01,0,.02.01,0,0,.02.01.02.02,0,0,.01,0,.02.01,0,0,.01.01.02.02,0,0,.01,0,.02.01,0,0,.01.01.02.02,0,0,0,0,.01,0,0,0,.02.01.03.02,0,0,0,0,0,0,.01,0,.02.01.03.02,0,0,0,0,0,0,.01,0,.02.01.03.02,0,0,0,0,0,0,.01,0,.02.02.03.02,0,0,0,0,0,0,.01,0,.02.02.03.02,0,0,0,0,0,0,.02.02.05.04.07.05,0,0,0,0,0,0,.01,0,.02.02.04.03,0,0,0,0,0,0,.3.21.6.43.9.64,0,0,0,0,0,0,.01,0,.02.02.03.03,0,0,0,0,0,0,.01,0,.02.02.03.02,0,0,0,0,0,0,.01,0,.02.02.03.02,0,0,0,0,0,0,.01,0,.02.02.03.02,0,0,0,0,0,0,.01,0,.02.02.03.02,0,0,0,0,0,0,0,0,.02.02.03.02,0,0,0,0,.01,0,.01,0,.02.01.03.02,0,0,0,0,.01,0,0,0,.02.01.03.02,0,0,0,0,.01,0,0,0,.01,0,.02.02,0,0,.01,0,.02.01,0,0,.01,0,.02.01,0,0,.02.01.02.02,0,0,0,0,.01,0,0,0,.02.01.03.02,0,0,0,0,0,0,0,0,.01,0,.02.01h0s.03.02.04.03h0c.11.08.21.16.32.24l3.2-4.25c-.85-.64-1.72-1.26-2.59-1.86h0Zm-4.3-2.74l-2.7,4.58c.31.18.61.36.91.55h0s.02.02.04.02c0,0,0,0,0,0,.01,0,.02.02.04.02,0,0,0,0,0,0,.01,0,.02.01.03.02,0,0,0,0,0,0,0,0,.02.01.03.02,0,0,0,0,0,0,0,0,.02.01.03.02,0,0,0,0,.01,0,0,0,.02.01.03.02,0,0,0,0,.01,0,0,0,.02.01.03.02,0,0,.01,0,.02,0,0,0,.01,0,.02.01,0,0,.02.01.03.02,0,0,0,0,.01,0,.01,0,.02.01.03.02,0,0,0,0,0,0l.04.02h0c.4.25.79.5,1.18.75l2.89-4.46c-.89-.58-1.8-1.14-2.71-1.68h0Zm-4.49-2.43l-2.36,4.76s.05.03.08.04c0,0,0,0,0,0,.01,0,.02.01.04.02,0,0,0,0,0,0,0,0,.02.01.03.02,0,0,0,0,.01,0,0,0,.02,0,.03.01,0,0,.01,0,.02,0,0,0,.01,0,.02,0h.03s0,.02.01.02c.01,0,.02.01.04.02,0,0,0,0,0,0,.02.01.04.02.07.03h0c.26.13.53.27.79.41h0s.03.02.04.02h0s.04.02.07.03c0,0,0,0,.01,0,.01,0,.02.01.03.02,0,0,0,0,.01,0h.03s.01.02.02.02c0,0,.02,0,.02.01,0,0,.02,0,.02.01h.01s.02.02.03.02c0,0,0,0,.01,0,.01,0,.02.01.03.02,0,0,0,0,0,0,.01,0,.02.01.03.02,0,0,0,0,0,0,.01,0,.02.01.04.02h0s.03.01.04.02c0,0,0,0,0,0,.01,0,.03.01.04.02,0,0,0,0,0,0,.01,0,.03.01.04.02,0,0,0,0,0,0,.3.16.6.32.89.48l2.57-4.65c-.93-.51-1.88-1.01-2.82-1.48h0Zm-4.65-2.11l-2.02,4.92s0,0,.01,0c0,0,0,0,0,0,.01,0,.02,0,.04.01,0,0,0,0,.01,0,.01,0,.02,0,.03.01,0,0,0,0,.01,0,.01,0,.02,0,.03.01,0,0,0,0,.01,0,0,0,.02,0,.03.01,0,0,.01,0,.02,0,0,0,.01,0,.02,0,0,0,.02,0,.03.01,0,0,.01,0,.02,0,0,0,0,0,.02,0,.01,0,.02,0,.03.01,0,0,0,0,.01,0,.01,0,.02,0,.03.01,0,0,0,0,.02,0,0,0,.02,0,.03.01,0,0,.01,0,.02,0,0,0,.01,0,.02,0,0,0,.02,0,.03.01,0,0,.01,0,.02,0,0,0,0,0,.02,0h.03s.01.02.02.02c0,0,.02,0,.03.01,0,0,0,0,.01,0,0,0,.02,0,.03.01,0,0,.01,0,.02,0,0,0,.01,0,.02,0,0,0,.01,0,.01,0h.03s0,.02,0,.02c.01,0,.02.01.04.02,0,0,0,0,0,0,.01,0,.03.01.04.02,0,0,0,0,0,0,.01,0,.03.01.04.02h0c.05.02.11.05.16.07h0c.44.19.87.38,1.3.58h0s.03.01.04.02h0s.03.01.04.02c0,0,0,0,0,0,.01,0,.02,0,.03.01,0,0,.01,0,.01,0h.02s.02.02.03.02c0,0,.01,0,.01,0,0,0,.02,0,.02.01,0,0,.01,0,.02,0,0,0,.02,0,.03.01,0,0,0,0,0,0,.01,0,.02.01.04.02,0,0,0,0,0,0,.01,0,.02.01.04.02,0,0,0,0,0,0,.01,0,.03.01.04.02t0,0l2.24-4.82c-.96-.45-1.94-.88-2.92-1.28h0Zm-4.79-1.77l-1.67,5.05c.94.31,1.87.64,2.78.99l1.89-4.97c-.99-.38-2-.74-3.01-1.07h0Zm-4.9-1.43l-1.31,5.16c.23.06.46.12.69.18,0,0,0,0,0,0h.02s0,0,0,0c0,0,.01,0,.02,0,0,0,0,0,0,0h.02s0,0,0,0c0,0,.01,0,.02,0,0,0,0,0,0,0,.03,0,.06.02.09.02,0,0,0,0,0,0,0,0,0,0,.02,0h0s0,0,.02,0c0,0,0,0,0,0,0,0,.01,0,.01,0,0,0,0,0,0,0,0,0,.01,0,.01,0,0,0,0,0,0,0,0,0,0,0,.01,0,0,0,0,0,0,0,0,0,.01,0,.01,0,0,0,0,0,0,0,.02,0,.04,0,.05.01h.01s0,0,.01,0c0,0,0,0,.01,0,0,0,0,0,.01,0,0,0,0,0,.01,0,0,0,0,0,.01,0,0,0,0,0,.01,0,0,0,0,0,.01,0,0,0,0,0,.01,0,0,0,0,0,0,0,0,0,.01,0,.02,0,0,0,0,0,0,0,0,0,.01,0,.02,0h0s.03,0,.05.01h0s.01,0,.02,0c0,0,0,0,0,0,0,0,.01,0,.02,0h0s.01,0,.02,0h0s.01,0,.02,0h0s.02,0,.02,0h0s.1.03.15.04h0c.43.12.86.25,1.29.38l1.53-5.09c-1.01-.31-2.05-.59-3.07-.85h0Zm-4.99-1.08l-.94,5.24h0s0,0,.01,0c0,0,0,0,.01,0,0,0,.01,0,.01,0,0,0,0,0,0,0,0,0,.01,0,.02,0,0,0,0,0,0,0,.77.14,1.53.29,2.28.45h0s.01,0,.02,0c0,0,0,0,0,0,0,0,.01,0,.02,0h0s.07.02.1.02c0,0,0,0,.01,0,0,0,0,0,.01,0h.01s0,0,.01,0c0,0,0,0,.01,0,0,0,0,0,0,0,0,0,.01,0,.02,0,0,0,0,0,0,0h.02s0,0,0,0c0,0,.01,0,.02,0h0s.03,0,.05.01h0s.02,0,.02,0h0s.01,0,.02,0h0s.01,0,.02,0h0s.02,0,.02,0h0s.06.01.1.02l1.17-5.19c-1.03-.23-2.08-.44-3.13-.63h0Zm-5.05-.72l-.57,5.29c.41.04.83.09,1.24.14,0,0,0,0,0,0,0,0,.01,0,.02,0,0,0,0,0,0,0,0,0,.01,0,.02,0,0,0,0,0,0,0,.03,0,.06,0,.09.01,0,0,0,0,0,0,0,0,.01,0,.02,0,0,0,0,0,0,0,0,0,.01,0,.01,0,0,0,0,0,.01,0,0,0,0,0,.01,0,0,0,0,0,.01,0,0,0,0,0,.01,0,0,0,.01,0,.02,0,0,0,0,0,0,0,0,0,.01,0,.02,0,0,0,0,0,0,0,0,0,.02,0,.02,0,0,0,0,0,0,0h.02s0,0,0,0c0,0,.01,0,.02,0,0,0,0,0,0,0,0,0,.01,0,.02,0,0,0,0,0,0,0,0,0,.01,0,.02,0,0,0,0,0,0,0,0,0,.01,0,.02,0,0,0,0,0,0,0,.02,0,.03,0,.05,0h0s.01,0,.02,0c0,0,0,0,0,0,0,0,.01,0,.02,0,0,0,0,0,0,0,0,0,.01,0,.02,0,0,0,0,0,0,0h.02s0,0,0,0c0,0,.02,0,.02,0h0s.03,0,.05,0h0s.02,0,.02,0c0,0,0,0,0,0,0,0,.01,0,.02,0,0,0,0,0,0,0,0,0,.01,0,.02,0,0,0,0,0,0,0,0,0,.01,0,.02,0h0s.02,0,.02,0h0s.03,0,.05,0h0s.02,0,.02,0c0,0,0,0,0,0,0,0,.01,0,.02,0,0,0,0,0,0,0,0,0,.01,0,.02,0,0,0,0,0,0,0,0,0,.01,0,.02,0,0,0,0,0,0,0h.02s0,0,0,0c.02,0,.03,0,.05,0,0,0,0,0,0,0,0,0,.01,0,.02,0,0,0,0,0,0,0,0,0,.01,0,.01,0,0,0,0,0,.01,0,0,0,0,0,.01,0,0,0,0,0,.01,0,0,0,0,0,.01,0,0,0,0,0,.01,0,0,0,0,0,.01,0,0,0,0,0,.01,0,0,0,0,0,.01,0,.01,0,.02,0,.03,0,0,0,0,0,0,0,0,0,.01,0,.02,0,0,0,0,0,0,0,0,0,.01,0,.02,0,0,0,0,0,0,0,0,0,.01,0,.02,0,0,0,0,0,0,0,0,0,.01,0,.02,0,0,0,0,0,0,0,.13.02.26.04.39.06l.8-5.26c-1.05-.16-2.11-.3-3.16-.41h0Zm-5.09-.36l-.19,5.31c.21,0,.42.02.63.03h0s.02,0,.02,0h0s.01,0,.02,0c0,0,0,0,0,0,0,0,.01,0,.02,0,0,0,0,0,0,0,0,0,.01,0,.02,0,.02,0,.03,0,.05,0,0,0,0,0,0,0,0,0,.01,0,.02,0h0s.01,0,.02,0h0c.71.03,1.41.08,2.12.14l.43-5.3c-1.05-.08-2.12-.15-3.18-.19h0Zm-2.69-.05v5.32h.12c.13,0,.26,0,.38,0,0,0,0,0,0,0h.02c.07,0,.14,0,.21,0l.06-5.32c-.26,0-.52,0-.78,0h0Z" style="fill: #41c2d9; stroke-width: 0px;"/>
        <circle cx="72.39" cy="72.39" r="67.07" style="fill: none; stroke: #fff; stroke-miterlimit: 10; stroke-width: 8.27px;"/>
        <circle cx="72.39" cy="72.39" r="67.07" style="fill: #23bdd9; opacity: .68; stroke-width: 0px;"/>
      </g>
      <g>
        <g>
          <path d="m46.84,33.61c-.25,2.76-1.08,4.17-5.83,4.79-.11-.48-.56-1.23-.92-1.61,3.99-.39,4.58-1.23,4.74-3.19h-2.76v2.23h-1.92v-4.01h6.04c-.16-.44-.33-.89-.51-1.28l2.05-.57c.3.56.64,1.26.87,1.86h5.86v3.69h-2.04v-1.92h-2.31v1.99c0,.46.08.62.57.62h2.45c.46,0,1.2-.03,1.56-.12.05.51.1,1.26.16,1.72-.33.11-1.05.13-1.66.13h-2.54c-1.95,0-2.48-.62-2.48-2.4v-1.95h-1.35Zm1.61,9.67h6.09v1.84h-14.37v-1.84h6.21v-2.64h-4.37v-1.81h10.93v1.81h-4.5v2.64Z" style="fill: #fff; stroke-width: 0px;"/>
          <path d="m68.73,35.72c-.05,4.47.11,7.77,1.07,7.77.25,0,.33-.9.34-2.3.38.48.85.97,1.25,1.25-.13,2.1-.51,3-1.74,3-2.45,0-2.82-3.46-2.89-8.26h-8.85v-1.3c-.2.18-.38.35-.57.49-.26-.39-.95-1.21-1.36-1.59,1.53-1.05,2.91-2.79,3.66-4.63l1.9.57c-.11.26-.25.54-.39.82h9.62v1.46h-10.46c-.13.21-.28.43-.43.64h9.51v1.41h-9.59v-1.3c-.54.72-1.1,1.4-1.71,1.95h10.64Zm-7.93,6.5c-.74,1.28-2.02,2.58-3.33,3.23-.28-.43-.82-1.07-1.22-1.41,1.2-.46,2.46-1.41,3.12-2.36l1.43.54Zm1.94-.76v3.97h-1.84v-3.97h-4.06v-1.48h1.89c-.16-.54-.57-1.33-1-1.87l1.48-.59c.46.59.94,1.36,1.08,1.9l-1.36.56h1.97v-2.48h1.84v2.48h1.38l-.89-.34c.38-.57.87-1.45,1.13-2.05l1.72.53c-.54.67-1.08,1.36-1.51,1.87h1.97v1.48h-3.81Zm1.3.16c.98.67,2.35,1.69,3.02,2.36l-1.17,1.2c-.64-.69-1.97-1.76-2.97-2.51l1.12-1.05Z" style="fill: #fff; stroke-width: 0px;"/>
          <path d="m73.14,38.08h6.24v7.31h-1.95v-.74h-2.45v.82h-1.84v-7.39Zm1.84,1.87v2.82h2.45v-2.82h-2.45Zm10.03-3.23h-9.62v-5.94h9.62v5.94Zm-1.99-4.07h-5.75v2.22h5.75v-2.22Zm4.2,5.43v7.32h-1.97v-.76h-2.61v.82h-1.87v-7.39h6.45Zm-1.97,4.7v-2.82h-2.61v2.82h2.61Z" style="fill: #fff; stroke-width: 0px;"/>
          <path d="m91.72,34.03c-.28.84-.74,1.64-1.56,2.3-.25-.34-.92-1.02-1.26-1.25,1.25-.94,1.43-2.1,1.43-3.05v-1.1c1.71-.1,3.68-.35,4.83-.74l1.08,1.13c-1.15.41-2.73.62-4.24.75,0,.16,0,.34-.02.53h4.47v1.43h-1.58v1.67h-1.72v-1.67h-1.43Zm8.13,1.72v-1.72h-1.41c-.2.72-.53,1.41-1.08,1.99h4.53v6.76h-2.17c1.54.46,3.1,1,4.14,1.41l-.9,1.36c-1.17-.53-3.12-1.26-4.94-1.82l.59-.95h-4.25l1.07.62c-1.41.79-3.63,1.67-5.29,2.17-.16-.34-.64-1.25-.94-1.64,1.36-.26,3.02-.67,4.24-1.15h-2.17v-6.76h5.88c-.34-.3-.97-.71-1.3-.87,1.05-.94,1.18-2.13,1.18-3.07v-1.2c1.84-.08,3.92-.33,5.07-.72l1.22,1.08c-1.25.43-3,.67-4.65.79v.08c0,.16,0,.33-.02.49h5.27v1.43h-2.31v1.72h-1.76Zm.07,1.43h-6.78v.74h6.78v-.74Zm0,1.82h-6.78v.76h6.78v-.76Zm0,1.86h-6.78v.74h6.78v-.74Z" style="fill: #fff; stroke-width: 0px;"/>
          <path d="m61.53,50.46c-.44,1.13-.99,2.3-1.63,3.4v11.26h-1.86v-8.44c-.38.48-.77.92-1.15,1.33-.18-.48-.72-1.53-1.05-2,1.53-1.48,3.02-3.81,3.87-6.14l1.81.59Zm2.87,9.98c-.67,1.41-1.67,3-2.51,4.01-.34-.3-1.07-.82-1.51-1.05.82-.9,1.71-2.27,2.27-3.48l1.76.53Zm2.64-1.03v5.76h-1.97v-5.76h-4.29v-1.77h4.29v-1.45h-3.22v-5.65h8.62v5.65h-3.43v1.45h4.25v1.77h-4.25Zm-3.33-4.94h4.81v-2.2h-4.81v2.2Zm5.34,5.43c.94,1.08,1.94,2.5,2.41,3.46l-1.54.94c-.44-.97-1.44-2.48-2.31-3.6l1.44-.8Z" style="fill: #fff; stroke-width: 0px;"/>
          <path d="m78.59,54.09h-6.11v-1.54h2.76c-.25-.62-.66-1.44-1.03-2.07l1.46-.71c.44.67.94,1.58,1.2,2.18l-1.07.59h2.79v1.54Zm8.62,6.53c-.54.99-1.3,1.77-2.25,2.45.92.26,1.95.44,3.04.54-.38.38-.85,1.1-1.07,1.54-1.44-.2-2.73-.56-3.83-1.08-1.26.53-2.69.89-4.2,1.12-.13-.43-.49-1.12-.8-1.51v.59h-3.35v.69h-1.59v-5.66h4.94v4.37c1.15-.13,2.3-.34,3.3-.66-.49-.39-.92-.84-1.3-1.35l.62-.2h-1.79v-1.31h6.83l.3-.07,1.15.54Zm-6.34-8.54h-2.27v-1.44h2.27v-.8h1.71v3.02h-1.41l.39.11c-.1.25-.2.51-.31.74h1.44c-.08-.26-.16-.54-.25-.77l1.36-.33v-2.77h1.72v.79h2.17v1.44h-2.17v.79h-1.23c.11.28.21.57.3.85h2.69v1.17h-2.81v.56h2.36v.97h-2.36v.56h2.36v.97h-2.36v.59h3.14v1.13h-6.49v.25h-1.61v-3.35c-.18.21-.38.43-.57.62-.16-.33-.62-1.02-.92-1.38v.51h-4.84v-1.48h4.84v.85c.84-.79,1.56-1.95,1.97-3.17l.87.26v-.69Zm-7.68,4.94h4.84v1.48h-4.84v-1.48Zm3.28,3.83h-1.72v1.84h1.72v-1.84Zm6.39-5.98h-1.72v.56h1.72v-.56Zm0,1.53h-1.72v.56h1.72v-.56Zm0,1.53h-1.72v.59h1.72v-.59Zm-.9,3.53c.31.33.72.62,1.2.87.51-.25.95-.54,1.35-.87h-2.54Z" style="fill: #fff; stroke-width: 0px;"/>
        </g>
        <g>
          <path d="m46.84,33.61c-.25,2.76-1.08,4.17-5.83,4.79-.11-.48-.56-1.23-.92-1.61,3.99-.39,4.58-1.23,4.74-3.19h-2.76v2.23h-1.92v-4.01h6.04c-.16-.44-.33-.89-.51-1.28l2.05-.57c.3.56.64,1.26.87,1.86h5.86v3.69h-2.04v-1.92h-2.31v1.99c0,.46.08.62.57.62h2.45c.46,0,1.2-.03,1.56-.12.05.51.1,1.26.16,1.72-.33.11-1.05.13-1.66.13h-2.54c-1.95,0-2.48-.62-2.48-2.4v-1.95h-1.35Zm1.61,9.67h6.09v1.84h-14.37v-1.84h6.21v-2.64h-4.37v-1.81h10.93v1.81h-4.5v2.64Z" style="fill: #fff; stroke-width: 0px;"/>
          <path d="m68.73,35.72c-.05,4.47.11,7.77,1.07,7.77.25,0,.33-.9.34-2.3.38.48.85.97,1.25,1.25-.13,2.1-.51,3-1.74,3-2.45,0-2.82-3.46-2.89-8.26h-8.85v-1.3c-.2.18-.38.35-.57.49-.26-.39-.95-1.21-1.36-1.59,1.53-1.05,2.91-2.79,3.66-4.63l1.9.57c-.11.26-.25.54-.39.82h9.62v1.46h-10.46c-.13.21-.28.43-.43.64h9.51v1.41h-9.59v-1.3c-.54.72-1.1,1.4-1.71,1.95h10.64Zm-7.93,6.5c-.74,1.28-2.02,2.58-3.33,3.23-.28-.43-.82-1.07-1.22-1.41,1.2-.46,2.46-1.41,3.12-2.36l1.43.54Zm1.94-.76v3.97h-1.84v-3.97h-4.06v-1.48h1.89c-.16-.54-.57-1.33-1-1.87l1.48-.59c.46.59.94,1.36,1.08,1.9l-1.36.56h1.97v-2.48h1.84v2.48h1.38l-.89-.34c.38-.57.87-1.45,1.13-2.05l1.72.53c-.54.67-1.08,1.36-1.51,1.87h1.97v1.48h-3.81Zm1.3.16c.98.67,2.35,1.69,3.02,2.36l-1.17,1.2c-.64-.69-1.97-1.76-2.97-2.51l1.12-1.05Z" style="fill: #fff; stroke-width: 0px;"/>
          <path d="m73.14,38.08h6.24v7.31h-1.95v-.74h-2.45v.82h-1.84v-7.39Zm1.84,1.87v2.82h2.45v-2.82h-2.45Zm10.03-3.23h-9.62v-5.94h9.62v5.94Zm-1.99-4.07h-5.75v2.22h5.75v-2.22Zm4.2,5.43v7.32h-1.97v-.76h-2.61v.82h-1.87v-7.39h6.45Zm-1.97,4.7v-2.82h-2.61v2.82h2.61Z" style="fill: #fff; stroke-width: 0px;"/>
          <path d="m91.72,34.03c-.28.84-.74,1.64-1.56,2.3-.25-.34-.92-1.02-1.26-1.25,1.25-.94,1.43-2.1,1.43-3.05v-1.1c1.71-.1,3.68-.35,4.83-.74l1.08,1.13c-1.15.41-2.73.62-4.24.75,0,.16,0,.34-.02.53h4.47v1.43h-1.58v1.67h-1.72v-1.67h-1.43Zm8.13,1.72v-1.72h-1.41c-.2.72-.53,1.41-1.08,1.99h4.53v6.76h-2.17c1.54.46,3.1,1,4.14,1.41l-.9,1.36c-1.17-.53-3.12-1.26-4.94-1.82l.59-.95h-4.25l1.07.62c-1.41.79-3.63,1.67-5.29,2.17-.16-.34-.64-1.25-.94-1.64,1.36-.26,3.02-.67,4.24-1.15h-2.17v-6.76h5.88c-.34-.3-.97-.71-1.3-.87,1.05-.94,1.18-2.13,1.18-3.07v-1.2c1.84-.08,3.92-.33,5.07-.72l1.22,1.08c-1.25.43-3,.67-4.65.79v.08c0,.16,0,.33-.02.49h5.27v1.43h-2.31v1.72h-1.76Zm.07,1.43h-6.78v.74h6.78v-.74Zm0,1.82h-6.78v.76h6.78v-.76Zm0,1.86h-6.78v.74h6.78v-.74Z" style="fill: #fff; stroke-width: 0px;"/>
          <path d="m61.53,50.46c-.44,1.13-.99,2.3-1.63,3.4v11.26h-1.86v-8.44c-.38.48-.77.92-1.15,1.33-.18-.48-.72-1.53-1.05-2,1.53-1.48,3.02-3.81,3.87-6.14l1.81.59Zm2.87,9.98c-.67,1.41-1.67,3-2.51,4.01-.34-.3-1.07-.82-1.51-1.05.82-.9,1.71-2.27,2.27-3.48l1.76.53Zm2.64-1.03v5.76h-1.97v-5.76h-4.29v-1.77h4.29v-1.45h-3.22v-5.65h8.62v5.65h-3.43v1.45h4.25v1.77h-4.25Zm-3.33-4.94h4.81v-2.2h-4.81v2.2Zm5.34,5.43c.94,1.08,1.94,2.5,2.41,3.46l-1.54.94c-.44-.97-1.44-2.48-2.31-3.6l1.44-.8Z" style="fill: #fff; stroke-width: 0px;"/>
          <path d="m78.59,54.09h-6.11v-1.54h2.76c-.25-.62-.66-1.44-1.03-2.07l1.46-.71c.44.67.94,1.58,1.2,2.18l-1.07.59h2.79v1.54Zm8.62,6.53c-.54.99-1.3,1.77-2.25,2.45.92.26,1.95.44,3.04.54-.38.38-.85,1.1-1.07,1.54-1.44-.2-2.73-.56-3.83-1.08-1.26.53-2.69.89-4.2,1.12-.13-.43-.49-1.12-.8-1.51v.59h-3.35v.69h-1.59v-5.66h4.94v4.37c1.15-.13,2.3-.34,3.3-.66-.49-.39-.92-.84-1.3-1.35l.62-.2h-1.79v-1.31h6.83l.3-.07,1.15.54Zm-6.34-8.54h-2.27v-1.44h2.27v-.8h1.71v3.02h-1.41l.39.11c-.1.25-.2.51-.31.74h1.44c-.08-.26-.16-.54-.25-.77l1.36-.33v-2.77h1.72v.79h2.17v1.44h-2.17v.79h-1.23c.11.28.21.57.3.85h2.69v1.17h-2.81v.56h2.36v.97h-2.36v.56h2.36v.97h-2.36v.59h3.14v1.13h-6.49v.25h-1.61v-3.35c-.18.21-.38.43-.57.62-.16-.33-.62-1.02-.92-1.38v.51h-4.84v-1.48h4.84v.85c.84-.79,1.56-1.95,1.97-3.17l.87.26v-.69Zm-7.68,4.94h4.84v1.48h-4.84v-1.48Zm3.28,3.83h-1.72v1.84h1.72v-1.84Zm6.39-5.98h-1.72v.56h1.72v-.56Zm0,1.53h-1.72v.56h1.72v-.56Zm0,1.53h-1.72v.59h1.72v-.59Zm-.9,3.53c.31.33.72.62,1.2.87.51-.25.95-.54,1.35-.87h-2.54Z" style="fill: #fff; stroke-width: 0px;"/>
        </g>
      </g>
      <g>
        <path d="m102.03,101.04h-1.36c.3-.99.46-2.04.46-3.12,0-5.93-4.75-10.73-10.6-10.73-.84,0-1.66.11-2.45.3-1.56-8.19-8.68-14.38-17.23-14.38s-15.3,5.89-17.09,13.78c-.79-.24-1.63-.37-2.5-.37-4.91,0-8.89,4.03-8.89,9,0,2.08.71,4,1.88,5.52h-2.78c-2.89,0-5.24,2.38-5.24,5.31s2.35,5.31,5.24,5.31h60.56c2.89,0,5.24-2.38,5.24-5.31s-2.35-5.31-5.24-5.31Z" style="fill: none; stroke: #fff; stroke-miterlimit: 10; stroke-width: 2.69px;"/>
        <g>
          <path d="m55.3,92.99h-2.55c-.86,0-1.56.7-1.56,1.56v10.06c0,.86.7,1.56,1.56,1.56s1.56-.7,1.56-1.56v-2.37h.99c2.55,0,4.62-2.07,4.62-4.62s-2.07-4.62-4.62-4.62Zm0,6.12h-.99v-2.99h.99c.83,0,1.5.67,1.5,1.5s-.67,1.5-1.5,1.5Z" style="fill: #fff; stroke-width: 0px;"/>
          <path d="m69.96,93.05c-.67-.2-1.38.07-1.75.65l-1.68,2.61-1.81-2.64c-.39-.57-1.1-.81-1.75-.61-.65.2-1.1.81-1.1,1.49v10.06c0,.86.7,1.56,1.56,1.56s1.56-.7,1.56-1.56v-5l.28.42c.3.43.79.69,1.31.68.52,0,1.01-.28,1.29-.72l.07-.11v4.73c0,.86.7,1.56,1.56,1.56s1.56-.7,1.56-1.56v-10.06c0-.69-.46-1.3-1.12-1.5h0Z" style="fill: #fff; stroke-width: 0px;"/>
          <path d="m88.69,99.08v-.94h2.15c.69,0,1.25-.56,1.25-1.25s-.56-1.25-1.25-1.25h-3.4c-.69,0-1.25.56-1.25,1.25v3.56c0,.38.17.73.46.97.29.24.67.33,1.04.26,1.12-.23,1.99-.05,2.32.48.2.31.18.73-.05,1.04-.39.52-1.29.63-2.39.31-.66-.2-1.36.18-1.55.85-.2.66.18,1.36.85,1.55.64.19,1.26.28,1.84.28,1.37,0,2.52-.51,3.26-1.48.85-1.13.92-2.69.17-3.88-.69-1.1-1.93-1.71-3.44-1.74h0Z" style="fill: #fff; stroke-width: 0px;"/>
          <path d="m78.05,102.66c1.18-.7,2.81-1.65,2.81-3.8,0-1.79-1.48-3.24-3.3-3.24s-3.3,1.45-3.3,3.24c0,.69.56,1.25,1.25,1.25s1.25-.56,1.25-1.25c0-.4.36-.73.8-.73s.8.33.8.73c0,.62-.37.94-1.57,1.64-1.56.92-2.53,2.62-2.52,4.43,0,.69.56,1.25,1.25,1.25h4.1c.69,0,1.25-.56,1.25-1.25s-.56-1.25-1.25-1.25h-2.53c.22-.42.56-.77.98-1.02Z" style="fill: #fff; stroke-width: 0px;"/>
          <circle cx="83.3" cy="104.96" r="1.25" style="fill: #fff; stroke-width: 0px;"/>
        </g>
      </g>
    </g>
  </g>
</svg>