<?xml version="1.0" encoding="UTF-8"?>
<svg id="_圖層_2" data-name="圖層 2" xmlns="http://www.w3.org/2000/svg" width="119.83" height="142.51" viewBox="0 0 119.83 142.51">
  <g id="_圖層_7" data-name="圖層 7">
    <g id="air_balloon7">
      <line x1="51.49" y1="113.96" x2="57.99" y2="137.06" style="fill: none; stroke: #a66cd9; stroke-miterlimit: 10; stroke-width: 6px;"/>
      <line x1="69.82" y1="113.23" x2="61.66" y2="135.8" style="fill: none; stroke: #a66cd9; stroke-miterlimit: 10; stroke-width: 6px;"/>
      <path d="m72.26,128.01h-23.79c-.83,0-1.48.54-1.48,1.16,0,.65.65,1.19,1.48,1.19h.23v7.34c0,2.64,2.22,4.81,5,4.81h13.33c2.78,0,5-2.17,5-4.81v-7.34h.23c.83,0,1.48-.54,1.48-1.19,0-.61-.65-1.16-1.48-1.16Z" style="fill: #a66cd9; fill-rule: evenodd; stroke-width: 0px;"/>
      <g>
        <path d="m59.92,0c-.88,0-1.76.02-2.64.06l.19,4.4c.65-.03,1.3-.05,1.95-.05h0s.01,0,.02,0h0s.01,0,.02,0h.02s.04,0,.06,0h0s.01,0,.02,0h.03s.01,0,.02,0h0s.03,0,.04,0h.04s0,0,0,0h.06s.01,0,.02,0h.11V0h0Zm-4.22.15c-.87.06-1.76.14-2.63.24l.5,4.37c.42-.05.83-.09,1.25-.13,0,0,0,0,0,0,0,0,.01,0,.02,0,0,0,0,0,0,0,0,0,.01,0,.02,0h0s.07,0,.11-.01c0,0,0,0,0,0,0,0,.01,0,.02,0h0s.06,0,.09,0h0s.01,0,.02,0h0s.01,0,.02,0c0,0,0,0,0,0,.29-.02.59-.05.88-.07l-.31-4.39h0Zm-4.2.44c-.87.12-1.74.27-2.61.43l.81,4.33c.16-.03.31-.06.47-.08,0,0,0,0,0,0,0,0,0,0,.01,0,0,0,0,0,0,0,0,0,0,0,.01,0,0,0,0,0,0,0,0,0,0,0,.01,0,0,0,0,0,.01,0,0,0,0,0,0,0,0,0,0,0,.01,0,0,0,0,0,0,0,0,0,.01,0,.02,0,0,0,0,0,0,0,0,0,.01,0,.02,0h0s.01,0,.02,0c0,0,0,0,0,0,0,0,.01,0,.02,0,0,0,0,0,0,0,0,0,.01,0,.02,0h0s.01,0,.02,0h0s.01,0,.02,0h0s.06,0,.09-.01h0c.41-.07.82-.13,1.22-.2h0s.01,0,.02,0h0s.01,0,.02,0h0s.01,0,.02,0h0s.01,0,.02,0c0,0,0,0,0,0,0,0,.01,0,.02,0h0s.01,0,.02,0h.02s0,0,0,0c0,0,.01,0,.02,0,0,0,0,0,0,0,0,0,0,0,.01,0,0,0,0,0,0,0s0,0,.01,0,0,0,.01,0h.01s0,0,.01,0c0,0,0,0,0,0,.02,0,.04,0,.07,0,0,0,0,0,0,0,0,0,.01,0,.02,0,0,0,0,0,0,0,0,0,.01,0,.02,0,0,0,0,0,0,0,0,0,.01,0,.02,0,0,0,0,0,0,0,0,0,.01,0,.02,0l-.61-4.36h0Zm-4.16.74c-.86.18-1.72.39-2.57.61l1.11,4.26c.79-.21,1.58-.39,2.38-.56l-.92-4.31h0Zm-4.1,1.03c-.84.24-1.69.51-2.52.79l1.41,4.17c.34-.11.68-.23,1.03-.34,0,0,0,0,.01,0h.03s.01-.01.01-.01c0,0,.01,0,.02,0,0,0,.01,0,.02,0,0,0,0,0,.01,0,0,0,.02,0,.03,0,0,0,0,0,.01,0,0,0,.02,0,.03,0,0,0,0,0,0,0,.01,0,.02,0,.03,0,0,0,0,0,0,0,.01,0,.02,0,.03,0,0,0,0,0,0,0,.01,0,.02,0,.03-.01,0,0,0,0,0,0,.01,0,.02,0,.03-.01,0,0,0,0,0,0,.01,0,.02,0,.03-.01h0s.07-.02.11-.03h0c.11-.03.22-.07.33-.1h0s.02,0,.04-.01c0,0,0,0,0,0,.01,0,.02,0,.03-.01,0,0,0,0,0,0,.01,0,.02,0,.04-.01h0s.02,0,.03-.01c0,0,0,0,0,0,.01,0,.02,0,.03,0,0,0,0,0,0,0,.01,0,.02,0,.03,0,0,0,0,0,.01,0,0,0,.02,0,.03,0,0,0,0,0,.01,0,0,0,.01,0,.02,0h.02s0,0,.01-.01c.01,0,.02,0,.03,0,0,0,0,0,0,0,.05-.02.11-.03.16-.05l-1.22-4.23h0Zm-4.01,1.32c-.82.3-1.65.63-2.46.97l1.7,4.06.05-.02s0,0,0,0c0,0,.02,0,.03-.01,0,0,0,0,.01,0,0,0,.02,0,.02-.01,0,0,0,0,.01,0,0,0,.01,0,.02,0,0,0,.01,0,.02,0,0,0,0,0,.01,0,0,0,.02,0,.02-.01,0,0,0,0,.01,0,0,0,.02,0,.02-.01,0,0,0,0,.01,0,0,0,.01,0,.02,0,0,0,0,0,.01,0,0,0,.02,0,.02,0,0,0,0,0,0,0,0,0,.02,0,.03-.01,0,0,0,0,.01,0,0,0,.02,0,.03-.01,0,0,0,0,0,0,0,0,.02,0,.03-.01,0,0,0,0,0,0,0,0,.02,0,.03-.01,0,0,0,0,0,0,0,0,.02,0,.03-.01,0,0,0,0,0,0,0,0,.02,0,.03-.01,0,0,0,0,0,0,0,0,.02,0,.03-.01,0,0,0,0,.01,0,0,0,.02,0,.03-.01,0,0,0,0,0,0,0,0,.02,0,.03-.01,0,0,0,0,.01,0,0,0,.02,0,.02,0,0,0,0,0,.01,0,0,0,.02,0,.02,0,0,0,0,0,.01,0,0,0,.02,0,.02-.01,0,0,0,0,.01,0,0,0,.02,0,.02-.01,0,0,0,0,.01,0,0,0,.01,0,.02,0,0,0,.01,0,.02,0,0,0,0,0,.02,0,0,0,.01,0,.02,0,0,0,.01,0,.02,0h.02s.01-.01.02-.01c0,0,.01,0,.02,0,0,0,.01,0,.02,0,0,0,.01,0,.02,0,0,0,0,0,0,0,0,0,.02,0,.03-.01,0,0,0,0,0,0,.01,0,.02,0,.03-.01,0,0,0,0,0,0,.01,0,.02,0,.03-.01h0c.39-.16.79-.31,1.19-.45l-1.52-4.13h0Zm-3.91,1.6c-.8.36-1.6.74-2.38,1.14l1.98,3.93c.44-.22.89-.44,1.34-.65h0s.02-.01.03-.02c0,0,0,0,0,0,0,0,.02-.01.03-.01,0,0,0,0,0,0,0,0,.02,0,.03-.01,0,0,0,0,0,0,0,0,.02,0,.03-.01,0,0,0,0,0,0,0,0,.02,0,.02-.01,0,0,0,0,.01,0,0,0,.02,0,.02-.01,0,0,0,0,.01,0,0,0,.01,0,.02-.01,0,0,.01,0,.02,0,0,0,0,0,0,0,0,0,.02,0,.03-.01h0c.19-.09.38-.18.58-.26l-1.81-4.01h0Zm-3.79,1.87c-.77.42-1.54.85-2.3,1.3l2.26,3.78c.09-.06.19-.11.28-.17h0s.02-.01.03-.02h0s.01-.01.02-.02c0,0,0,0,.01,0,0,0,0,0,.01,0,0,0,.01,0,.02-.01,0,0,.01,0,.02,0,0,0,.01,0,.02-.01,0,0,0,0,.01,0,0,0,.01,0,.02-.01,0,0,0,0,.01,0,0,0,.02,0,.02-.01,0,0,0,0,0,0,0,0,.02-.01.03-.01,0,0,0,0,0,0,0,0,.02,0,.03-.01,0,0,0,0,0,0,0,0,.02-.01.03-.02h0s.02-.01.03-.02c0,0,0,0,0,0,0,0,.02-.01.03-.02,0,0,0,0,0,0,0,0,.02-.01.03-.02h0s.02-.01.03-.02c0,0,0,0,0,0,0,0,.02-.01.03-.02,0,0,0,0,0,0,0,0,.02-.01.03-.02,0,0,0,0,0,0,.01,0,.02-.01.03-.02,0,0,0,0,0,0,.01,0,.02-.01.03-.02,0,0,0,0,0,0,.01,0,.02-.01.03-.02,0,0,0,0,0,0,0,0,.02-.01.03-.02,0,0,0,0,0,0,0,0,.02-.01.03-.02,0,0,0,0,0,0,0,0,.02,0,.03-.01,0,0,0,0,0,0,0,0,.01,0,.02-.01,0,0,0,0,.01,0,0,0,.02,0,.02-.01,0,0,0,0,.01,0,0,0,.02,0,.02-.01,0,0,0,0,.01,0,0,0,.02,0,.02-.01,0,0,0,0,.01,0,0,0,.01,0,.02-.01,0,0,0,0,.01,0,0,0,.01,0,.02,0,0,0,.01,0,.02-.01,0,0,.01,0,.01,0,0,0,.01,0,.02-.01,0,0,0,0,.02,0,0,0,.01,0,.02,0,0,0,.01,0,.02-.01,0,0,.01,0,.02,0,0,0,0,0,.01,0,0,0,.02,0,.02-.01,0,0,0,0,0,0,0,0,.02,0,.03-.01h0s.02-.02.03-.02c0,0,0,0,0,0l.03-.02h0s.06-.04.09-.05h0s.02-.01.04-.02h0c.05-.03.11-.06.16-.09h0s.02-.01.04-.02h0s.02-.01.04-.02h0s.06-.03.09-.05c0,0,0,0,0,0,0,0,.02-.01.03-.02h0s.02-.01.02-.02c0,0,0,0,.01,0,0,0,.01,0,.02-.01,0,0,0,0,.02,0,0,0,0,0,.01,0,0,0,.02,0,.02-.01h.01s.02-.02.02-.02c0,0,0,0,0,0,0,0,.02,0,.02-.01,0,0,0,0,0,0l-2.09-3.88h0Zm-3.64,2.13c-.74.47-1.48.96-2.2,1.46l2.52,3.61c.67-.47,1.35-.92,2.04-1.35l-2.36-3.72h0Zm-3.48,2.38c-.7.52-1.41,1.06-2.09,1.61l2.76,3.43c.14-.11.29-.23.43-.34h0s.02-.02.03-.03h0s.02-.02.03-.03h0s.05-.04.08-.07c0,0,0,0,0,0,0,0,.02-.01.03-.02,0,0,0,0,0,0,0,0,.02-.01.03-.02,0,0,0,0,0,0,0,0,.02-.01.03-.02,0,0,0,0,0,0,.03-.02.05-.04.08-.06,0,0,0,0,0,0l.03-.02s0,0,0,0c0,0,.02-.01.03-.02t0,0s.02-.01.03-.02c0,0,0,0,0,0,.04-.03.08-.06.11-.09h0s.02-.02.03-.03h0s.02-.02.03-.03h0s.08-.06.12-.09h0c.26-.2.52-.39.78-.59l-2.61-3.54h0Zm-3.31,2.62c-.67.57-1.33,1.16-1.97,1.75l3,3.22c.41-.38.83-.76,1.25-1.13h0s.08-.07.11-.1c0,0,0,0,0,0,0,0,.02-.02.03-.02,0,0,0,0,0,0,0,0,.02-.02.03-.02h0s.08-.07.11-.1c0,0,0,0,0,0,0,0,.02-.02.03-.02,0,0,0,0,0,0,0,0,.02-.02.03-.02,0,0,0,0,0,0,0,0,.02-.02.03-.02,0,0,0,0,0,0,.03-.02.06-.05.09-.07,0,0,0,0,0,0,0,0,.02-.02.03-.02h0s.02-.02.03-.02c0,0,0,0,0,0,.02-.02.04-.03.06-.05l-2.85-3.35h0Zm-3.12,2.85c-.63.61-1.25,1.25-1.84,1.89l3.22,3.01c.55-.59,1.12-1.17,1.69-1.73h0s0-.01.01-.02l-3.08-3.14h0Zm-2.91,3.06c-.58.66-1.16,1.33-1.71,2.01l3.42,2.77c.48-.59.98-1.18,1.48-1.75,0,0,0,0,0,0,0,0,.02-.02.02-.03h0s.01-.02.02-.03c0,0,0,0,0,0,0,0,.01-.02.02-.02,0,0,0,0,0,0,0,0,.01-.01.02-.02,0,0,0,0,0,0l-3.29-2.92h0Zm-2.69,3.25c-.53.69-1.06,1.41-1.56,2.13l3.6,2.53c.13-.18.26-.36.39-.54,0,0,0,0,0,0,0,0,.01-.02.02-.03,0,0,0,0,0,0,0,0,.01-.01.02-.02,0,0,0,0,0-.01,0,0,0,0,.01-.01,0,0,0-.01.01-.02,0,0,0,0,0-.01,0,0,0-.01.01-.02,0,0,0,0,0-.01,0,0,.01-.02.02-.02,0,0,0,0,0,0,0,0,.01-.01.02-.02,0,0,0,0,0,0,0,0,.01-.02.02-.02,0,0,0,0,0,0,0,0,.01-.02.02-.03,0,0,0,0,0,0,0,0,.01-.02.02-.03,0,0,0,0,0,0,0,0,.01-.02.02-.03,0,0,0,0,0,0,.27-.37.54-.74.82-1.1l-3.49-2.68h0Zm-2.45,3.44c-.48.73-.96,1.48-1.41,2.23l3.77,2.27c.08-.13.15-.25.23-.38h0s.04-.06.05-.09c0,0,0,0,0-.01,0,0,0-.01.01-.02,0,0,0-.01,0-.01,0,0,0-.01.01-.02,0,0,0-.01.01-.02,0,0,0,0,0-.01,0,0,0-.02.01-.02,0,0,0,0,0,0,0,0,.01-.02.02-.02,0,0,0,0,0,0,0,0,.01-.02.02-.03,0,0,0,0,0,0,0,0,.01-.02.02-.03,0,0,0,0,0,0,0,0,.01-.02.02-.03,0,0,0,0,0,0,0-.01.01-.02.02-.03,0,0,0,0,0,0,0,0,.01-.02.02-.03,0,0,0,0,0,0,0,0,.01-.02.02-.03,0,0,0,0,0,0,0-.01.01-.02.02-.03,0,0,0,0,0,0,0,0,.01-.02.02-.03,0,0,0,0,0,0,0,0,.01-.02.02-.03,0,0,0,0,0,0,0-.01.01-.02.02-.03,0,0,0,0,0,0,0-.01.01-.02.02-.03,0,0,0,0,0,0,0,0,.01-.02.02-.03,0,0,0,0,0,0,0,0,.01-.02.02-.03,0,0,0,0,0,0,0,0,.01-.02.02-.03h0s.01-.02.02-.03h0s.01-.02.02-.03c0,0,0,0,0,0,0,0,.01-.02.02-.02,0,0,0,0,0,0,0,0,0-.01.02-.02,0,0,0,0,0,0,0,0,.01-.02.01-.02,0,0,0,0,0-.01,0,0,0-.01.01-.02,0,0,0-.01.01-.02,0,0,0-.01,0-.01,0,0,0-.01.01-.02,0,0,0,0,0-.01h0s0-.03.01-.03c0,0,0-.01,0-.01,0,0,0-.01,0-.02,0,0,0-.01.01-.02,0,0,0,0,0,0,0,0,.01-.02.02-.03,0,0,0,0,0,0,0-.01.01-.02.02-.03h0c.13-.2.26-.4.39-.59l-3.67-2.43h0Zm-2.21,3.6c-.43.76-.85,1.55-1.25,2.33l3.92,2c.37-.73.76-1.45,1.16-2.15l-3.83-2.17h0Zm-1.95,3.75c-.38.79-.74,1.6-1.08,2.41l4.06,1.71c.3-.71.61-1.4.94-2.09,0,0,0,0,0,0,.01-.02.02-.04.03-.07,0,0,0,0,0,0,0,0,0-.02.01-.03,0,0,0,0,0,0,0,0,0-.02.01-.03,0,0,0,0,0,0l-3.98-1.89h0Zm-1.68,3.88c-.32.82-.62,1.65-.91,2.48l4.17,1.42c.26-.77.54-1.54.84-2.3l-4.1-1.6h0Zm-1.4,3.99c-.26.84-.51,1.69-.73,2.54l4.26,1.12c.21-.79.43-1.57.68-2.35l-4.2-1.31h0Zm-1.11,4.08c-.2.85-.38,1.72-.55,2.58l4.33.82c.05-.25.1-.5.15-.75,0,0,0,0,0,0,0,0,0-.01,0-.02,0,0,0,0,0,0,0-.03.01-.06.02-.09,0,0,0,0,0,0,0,0,0,0,0,0,0,0,0,0,0-.01,0,0,0,0,0,0,0,0,0,0,0-.01,0,0,0,0,0,0,0,0,0,0,0-.01,0,0,0,0,0,0,0,0,0-.01,0-.02,0,0,0,0,0,0,.09-.46.2-.91.3-1.37h0s0-.01,0-.02c0,0,0,0,0,0,0,0,0,0,0-.01,0,0,0,0,0,0,0,0,0,0,0,0,0,0,0,0,0-.01,0,0,0,0,0,0l-4.29-1.01h0Zm-.82,4.14c-.14.86-.26,1.74-.36,2.61l4.37.51c.08-.71.18-1.42.29-2.12,0,0,0,0,0,0,0,0,0-.01,0-.02,0,0,0,0,0,0,0,0,0-.01,0-.02,0,0,0,0,0,0,0,0,0,0,0-.01,0,0,0-.01,0-.01,0,0,0,0,0,0,0,0,0-.01,0-.02,0,0,0,0,0,0,0,0,0-.01,0-.02h0s0-.02,0-.02h0c0-.06.02-.11.03-.16l-4.35-.7h0Zm-.53,4.19c-.08.87-.14,1.76-.18,2.63l4.4.2c.02-.46.05-.93.08-1.39h0s0-.01,0-.02t0,0s0-.01,0-.02c0,0,0,0,0-.01h0s0-.02,0-.03c0,0,0,0,0,0,0,0,0-.01,0-.02,0,0,0,0,0,0,0,0,0-.01,0-.02h0c.02-.31.05-.62.08-.93l-4.38-.39H.24ZM.01,58.7c0,.4-.01.81-.01,1.22,0,.47,0,.95.02,1.42l4.4-.1c0-.29-.01-.58-.01-.87h0v-.02h0s0-.02,0-.02h0s0-.02,0-.02h0v-.02h0s0-.02,0-.02h0v-.02h0s0-.02,0-.02h0s0-.05,0-.07h0v-.02s0,0,0,0v-.02h0v-.02h0v-.02h0v-.02s0,0,0,0h0v-.02h0v-.02h0v-.04h0v-.03h0v-.03h0v-.04h0v-.03h0s0-.03,0-.04h0v-.03h0s0-.03,0-.04h0v-.05s0,0,0-.01v-.02h0s0-.03,0-.04h0c0-.23,0-.45,0-.67,0,0,0,0,0-.01,0,0,0-.01,0-.02,0,0,0-.02,0-.03,0,0,0,0,0,0,0,0,0-.02,0-.03h0s0-.02,0-.04l-4.4-.09H.01Zm4.46,4l-4.4.22c.04.88.11,1.76.19,2.63l4.38-.41s0,0,0,0h0s0-.02,0-.02h0c-.07-.8-.13-1.6-.17-2.41h0Zm.33,3.9l-4.37.52c.1.87.23,1.75.37,2.61l4.34-.72c-.05-.32-.1-.63-.15-.95h0s0-.01,0-.02h0s0-.01,0-.02h0s0-.05,0-.07h0s0-.01,0-.02c0,0,0,0,0,0,0,0,0,0,0-.01,0,0,0,0,0,0,0,0,0,0,0-.01,0,0,0,0,0,0,0,0,0,0,0-.01,0,0,0,0,0,0,0,0,0,0,0,0,0-.01,0-.03,0-.04,0,0,0,0,0,0,0,0,0,0,0-.01,0,0,0,0,0,0,0,0,0,0,0-.01,0,0,0,0,0,0,0,0,0-.01,0-.01,0,0,0,0,0,0,0,0,0,0,0-.01,0,0,0,0,0,0,0-.03,0-.06-.01-.09h0s0-.01,0-.02c0,0,0,0,0,0,0,0,0-.01,0-.02,0,0,0,0,0,0,0,0,0-.01,0-.02,0,0,0,0,0,0,0-.04-.01-.07-.02-.11,0,0,0,0,0,0,0,0,0-.01,0-.02,0,0,0,0,0,0,0,0,0-.01,0-.02,0,0,0,0,0,0,0-.04-.01-.07-.02-.11h0s0-.01,0-.02c0,0,0,0,0,0,0,0,0-.01,0-.02,0,0,0,0,0,0,0-.03,0-.06-.01-.09,0,0,0,0,0,0v-.02s0,0,0,0v-.02s0,0,0,0c0,0,0,0,0-.02,0,0,0,0,0,0,0,0,0,0,0-.01,0,0,0,0,0,0,0-.01,0-.03,0-.05,0,0,0,0,0,0,0,0,0,0,0-.01,0,0,0,0,0,0,0,0,0,0,0-.01,0,0,0,0,0,0,0,0,0,0,0-.01,0,0,0,0,0,0,0,0,0,0,0-.01,0,0,0,0,0-.01,0,0,0,0,0,0,0,0,0,0,0-.01,0,0,0,0,0,0,0,0,0-.01,0-.02h0s0-.01,0-.02c0,0,0,0,0,0,0,0,0-.01,0-.02,0,0,0,0,0,0,0,0,0-.01,0-.02h0s0-.02,0-.02h0s0-.02,0-.02h0c0-.07-.02-.14-.03-.22h0Zm.6,3.87l-4.32.83c.17.86.35,1.73.56,2.58l4.28-1.02c-.19-.79-.36-1.59-.52-2.39h0Zm.87,3.81l-4.25,1.14c.23.85.47,1.7.74,2.54l4.2-1.32c-.06-.19-.12-.39-.18-.58,0,0,0,0,0,0,0-.01,0-.02,0-.03,0,0,0,0,0,0,0-.01,0-.02,0-.03,0,0,0,0,0,0,0-.01,0-.02,0-.03,0,0,0,0,0,0,0,0,0-.02,0-.02h0s0-.03,0-.04c0,0,0,0,0-.01,0,0,0-.02,0-.02,0,0,0-.01,0-.02,0,0,0,0,0-.02,0,0,0-.02,0-.02,0,0,0,0,0-.01,0-.01,0-.02,0-.03,0,0,0,0,0,0,0-.01,0-.03-.01-.04h0c-.14-.47-.27-.94-.4-1.41h0Zm1.14,3.74l-4.16,1.43c.29.83.59,1.66.92,2.48l4.09-1.62c-.13-.32-.25-.64-.37-.96h0s0-.02-.01-.04c0,0,0,0,0,0,0-.01,0-.02-.01-.04h0s-.02-.05-.03-.07c0,0,0,0,0,0,0-.01,0-.02-.01-.03,0,0,0,0,0,0,0-.01,0-.02-.01-.03,0,0,0,0,0,0,0-.01,0-.02-.01-.03h0s0-.03-.01-.03c0,0,0,0,0,0,0,0,0-.02-.01-.03,0,0,0,0,0,0,0,0,0-.02-.01-.03,0,0,0,0,0-.01,0-.01,0-.02,0-.03,0,0,0,0,0-.01,0,0,0-.02,0-.02,0,0,0,0,0-.01,0,0,0-.01,0-.02,0,0,0-.01,0-.02,0,0,0-.01,0-.01,0,0,0-.01,0-.02,0,0,0,0,0-.02,0,0,0-.01,0-.02,0,0,0-.01,0-.02,0,0,0-.01,0-.02,0,0,0,0,0,0,0-.01,0-.02-.01-.03,0,0,0,0,0,0,0-.01,0-.02-.01-.03h0c-.08-.22-.16-.45-.23-.67h0Zm1.41,3.65l-4.05,1.73c.34.81.71,1.62,1.09,2.41l3.97-1.9c-.09-.19-.19-.39-.28-.59,0,0,0,0,0,0,0-.01-.01-.02-.02-.03,0,0,0,0,0,0-.01-.02-.02-.04-.03-.07,0,0,0,0,0,0,0-.01,0-.02-.01-.03,0,0,0,0,0,0,0,0,0-.02-.01-.03,0,0,0,0,0,0,0-.01,0-.02-.01-.03,0,0,0,0,0,0,0,0,0-.02-.01-.03,0,0,0,0,0,0,0,0,0-.02-.01-.03,0,0,0,0,0,0,0,0,0-.02-.01-.03,0,0,0,0,0,0,0,0,0-.02-.01-.03,0,0,0,0,0,0,0,0,0-.02-.01-.03,0,0,0,0,0,0,0,0,0-.02-.01-.03,0,0,0,0,0,0,0,0,0-.02-.01-.03,0,0,0,0,0,0,0,0,0-.02-.01-.03,0,0,0,0,0,0,0,0,0-.02-.01-.03,0,0,0,0,0,0,0,0,0-.02-.01-.03,0,0,0,0,0,0,0,0,0-.02-.01-.03,0,0,0,0,0,0,0,0,0-.02-.01-.03,0,0,0,0,0,0,0,0,0-.02-.01-.03,0,0,0,0,0,0,0,0,0-.02-.01-.03,0,0,0,0,0,0,0,0,0-.02-.01-.03,0,0,0,0,0,0,0-.01,0-.02-.01-.03,0,0,0,0,0,0,0,0,0-.02-.01-.03,0,0,0,0,0,0,0,0-.01-.02-.01-.03,0,0,0,0,0,0,0,0-.01-.02-.01-.03,0,0,0,0,0,0,0-.01,0-.02-.01-.03,0,0,0,0,0,0,0-.01,0-.02-.01-.03,0,0,0,0,0,0-.1-.23-.2-.47-.3-.7h0Zm1.66,3.54l-3.92,2.01c.4.78.82,1.56,1.26,2.32l3.82-2.18c-.4-.71-.79-1.42-1.16-2.15h0Zm1.91,3.42l-3.77,2.28c.45.75.93,1.5,1.42,2.23l3.66-2.44s-.03-.04-.04-.06c0,0,0,0,0,0,0,0-.01-.02-.02-.03,0,0,0,0,0,0,0,0-.01-.02-.02-.02,0,0,0,0,0,0,0,0-.01-.02-.01-.02,0,0,0,0,0-.01,0,0,0-.01-.01-.02,0,0,0-.01-.01-.02,0,0,0,0,0-.01,0,0-.01-.02-.02-.02,0,0,0,0,0,0,0-.01-.01-.02-.02-.03h0c-.22-.34-.44-.68-.66-1.02h0s-.01-.02-.02-.03c0,0,0,0,0,0,0,0-.01-.02-.02-.03,0,0,0,0,0,0,0,0-.01-.02-.02-.03,0,0,0,0,0,0,0,0,0-.01-.01-.02,0,0,0-.01-.01-.02v-.02s-.02,0-.02-.01c0,0,0-.01-.01-.02,0,0,0,0,0-.01v-.02s-.02,0-.02-.01c0,0,0-.01-.01-.02,0,0,0-.01,0-.01,0,0,0,0,0-.01,0,0,0-.01-.01-.02,0,0,0,0,0-.01,0,0,0-.02-.01-.02,0,0,0,0,0-.01,0,0,0-.01-.01-.02,0,0,0,0,0-.01,0,0,0-.01-.01-.02,0,0,0,0,0-.01,0,0,0-.01-.01-.02,0,0,0-.01,0-.01,0,0,0-.01-.01-.02,0,0,0,0,0-.01,0,0,0-.01-.01-.02,0,0,0,0,0-.01,0,0,0-.02-.01-.02,0,0,0,0,0-.01,0,0,0-.01-.01-.02,0,0,0-.01,0-.01,0,0,0-.01,0-.02,0,0,0-.01-.01-.02,0,0,0-.01,0-.01,0,0,0-.01-.01-.02,0,0,0,0,0-.01,0,0,0,0,0-.01,0,0,0-.01-.01-.02h0s0-.02,0-.03v-.02s-.02,0-.02,0c0,0,0-.01,0-.02h0Zm2.14,3.27l-3.6,2.54c.5.72,1.03,1.43,1.57,2.12l3.48-2.69c-.05-.07-.1-.14-.16-.2h0s0-.01-.01-.02h0s-.01-.02-.02-.03c0,0,0,0,0-.01,0,0-.01-.01-.02-.02,0,0,0,0-.01-.01,0,0,0-.01-.01-.02,0,0,0-.01-.01-.02h0s-.01-.02-.02-.03c0,0,0,0,0,0,0,0-.01-.02-.02-.02,0,0,0,0,0,0,0,0-.01-.02-.02-.02,0,0,0,0,0,0,0,0-.01-.02-.02-.03,0,0,0,0,0,0,0,0-.01-.02-.02-.03,0,0,0,0,0,0,0,0-.01-.02-.02-.03,0,0,0,0,0,0,0,0-.01-.02-.02-.03,0,0,0,0,0,0,0,0-.01-.02-.02-.03,0,0,0,0,0,0,0,0-.01-.02-.02-.03,0,0,0,0,0,0,0,0-.02-.02-.02-.03h0s-.03-.04-.04-.06c0,0,0,0,0,0,0,0-.01-.02-.02-.03,0,0,0,0,0,0,0,0-.01-.02-.02-.03,0,0,0,0,0,0,0,0-.01-.02-.02-.03,0,0,0,0,0,0,0,0-.02-.02-.02-.03h0s-.01-.02-.02-.03c0,0,0,0,0,0,0,0-.01-.02-.02-.03,0,0,0,0,0,0,0,0-.01-.02-.02-.03,0,0,0,0,0,0,0,0-.01-.02-.02-.03,0,0,0,0,0,0,0,0-.01-.02-.02-.02,0,0,0,0,0,0,0,0-.01-.02-.02-.02,0,0,0,0,0,0,0,0-.01-.01-.02-.02,0,0,0,0,0-.01,0,0,0-.01-.01-.02,0,0,0,0,0,0l-.02-.02s0,0,0-.01c0,0-.01-.01-.01-.02h0s0-.02-.01-.03,0-.01-.01-.02c0,0,0,0,0-.01,0,0-.01-.02-.02-.02,0,0,0,0,0,0,0,0-.01-.02-.02-.03,0,0,0,0,0,0,0-.01-.01-.02-.02-.03h0c-.17-.23-.33-.46-.5-.7h0Zm2.37,3.11l-3.41,2.79c.55.68,1.13,1.35,1.71,2.01l3.28-2.93s0,0,0,0c0,0-.01-.02-.02-.02h0s-.01-.02-.02-.03c0,0,0,0,0,0,0,0-.01-.01-.02-.02,0,0,0,0,0,0,0,0-.01-.01-.01-.02,0,0,0,0-.01-.01,0,0,0,0-.01-.01,0,0,0-.01-.01-.02,0,0,0,0-.01-.01,0,0,0-.01-.01-.02,0,0,0,0-.01-.01,0,0,0,0-.01-.01,0,0,0,0-.01-.01,0,0,0,0-.01-.01,0,0,0,0,0,0,0,0-.01-.01-.02-.02,0,0,0,0,0,0,0,0-.01-.02-.02-.02,0,0,0,0,0,0,0,0-.01-.02-.02-.02,0,0,0,0,0,0,0,0-.02-.02-.02-.03,0,0,0,0,0,0l-.07-.08h0s-.02-.02-.03-.03h0s-.02-.02-.02-.03h0s-.02-.02-.03-.03h0s-.04-.05-.07-.08c0,0,0,0,0,0,0,0-.02-.02-.02-.03,0,0,0,0,0,0,0,0-.02-.02-.02-.03h0s-.02-.02-.02-.03c0,0,0,0,0,0-.02-.03-.04-.05-.07-.08,0,0,0,0,0,0,0,0-.02-.02-.02-.03,0,0,0,0,0,0,0,0-.01-.02-.02-.03,0,0,0,0,0,0,0,0-.01-.02-.02-.02,0,0,0,0,0,0l-.02-.02s0,0,0,0c0,0,0-.01-.01-.02,0,0,0,0,0,0,0,0-.01-.02-.02-.03,0,0,0,0,0,0,0,0-.01-.01-.02-.02,0,0,0,0,0-.01,0,0-.01-.01-.02-.02,0,0,0,0,0-.01,0,0-.01-.01-.02-.02,0,0,0,0-.01-.01,0,0,0,0-.01-.01,0,0-.01-.01-.02-.02,0,0,0,0,0-.01,0,0-.01-.01-.02-.02,0,0,0,0,0-.01,0,0-.01-.01-.02-.02,0,0,0,0,0-.01,0,0-.01-.01-.01-.02,0,0,0,0-.01-.01,0,0-.01-.01-.01-.02h0s-.01-.02-.02-.03c0,0,0,0,0,0,0,0-.01-.01-.02-.02,0,0,0,0,0,0,0,0-.01-.01-.02-.02,0,0,0,0,0,0,0,0-.01-.02-.02-.02,0,0,0,0,0,0,0,0-.01-.01-.02-.02h0s-.01-.02-.02-.03c0,0,0,0,0,0,0,0-.01-.02-.02-.02,0,0,0,0,0,0,0,0-.01-.02-.02-.02h0s-.01-.02-.02-.03c0,0,0,0,0,0,0,0-.01-.02-.02-.03,0,0,0,0,0,0,0,0-.02-.02-.02-.03,0,0,0,0,0,0,0,0-.02-.02-.02-.03,0,0,0,0,0,0,0,0-.01-.02-.02-.03,0,0,0,0,0,0,0,0-.01-.02-.02-.03,0,0,0,0,0,0,0,0-.02-.02-.02-.03,0,0,0,0,0,0,0,0-.02-.02-.02-.03h0s-.05-.06-.07-.09h0s-.02-.02-.02-.03c0,0,0,0,0,0,0-.01-.01-.02-.02-.03h0s-.02-.02-.02-.03t0,0h0Zm2.58,2.94l-3.21,3.02c.6.64,1.22,1.27,1.85,1.88l3.07-3.15c-.38-.37-.75-.74-1.12-1.12h0s-.02-.02-.02-.03c0,0,0,0,0,0l-.02-.02s0,0,0,0c0,0,0,0-.01-.01,0,0-.01-.01-.02-.02,0,0,0,0-.01-.01,0,0-.01-.01-.02-.02,0,0,0,0,0,0,0,0-.01-.01-.02-.02,0,0,0,0,0,0,0,0-.01-.01-.02-.02,0,0,0,0,0,0,0,0-.01-.01-.02-.02,0,0,0,0,0,0,0,0-.02-.02-.02-.02h0s-.02-.02-.03-.03c0,0,0,0,0,0-.11-.12-.23-.24-.34-.36h0Zm2.78,2.75l-2.99,3.23c.64.59,1.31,1.18,1.98,1.75l2.84-3.36c-.62-.53-1.23-1.07-1.83-1.62h0Zm2.97,2.55l-2.75,3.44c.68.55,1.39,1.09,2.09,1.6l2.6-3.55c-.27-.2-.53-.39-.8-.59h0s-.02-.02-.03-.02c0,0,0,0,0,0,0,0-.02-.01-.03-.02,0,0,0,0,0,0,0,0-.02-.01-.03-.02,0,0,0,0,0,0-.02-.01-.04-.03-.06-.05,0,0,0,0,0,0,0,0-.02-.02-.03-.02,0,0,0,0,0,0,0,0-.02-.01-.03-.02,0,0,0,0,0,0,0,0-.02-.01-.03-.02,0,0,0,0,0,0,0,0-.02-.01-.03-.02,0,0,0,0,0,0,0,0-.02-.01-.03-.02,0,0,0,0,0,0,0,0-.02-.01-.03-.02,0,0,0,0,0,0,0,0-.02-.01-.03-.02,0,0,0,0,0,0,0,0-.02-.01-.03-.02h0s-.02-.02-.02-.02c0,0,0,0,0,0,0,0-.02-.01-.02-.02,0,0,0,0,0,0,0,0-.02-.01-.02-.02,0,0,0,0,0,0,0,0-.01-.01-.02-.02,0,0,0,0,0,0,0,0-.01-.01-.02-.02,0,0,0,0,0,0,0,0-.01-.01-.02-.02,0,0,0,0,0,0,0,0-.01-.01-.02-.02,0,0,0,0-.01,0,0,0-.01-.01-.02-.02,0,0,0,0-.01,0,0,0-.01,0-.01-.01,0,0-.01,0-.02-.01,0,0,0,0-.01,0,0,0-.01-.01-.02-.02,0,0,0,0-.01,0,0,0-.01,0-.02-.01,0,0,0,0-.01,0,0,0-.01,0-.02-.01,0,0,0,0,0,0-.01,0-.02-.02-.03-.02h0s-.02-.02-.03-.03h0c-.11-.08-.21-.17-.31-.25h0Zm3.14,2.34l-2.5,3.62c.72.5,1.46.99,2.2,1.45l2.34-3.73c-.27-.17-.54-.35-.81-.52,0,0,0,0,0,0,0,0-.02-.01-.03-.02h0s-.02-.02-.02-.02h-.01s-.01-.02-.02-.02c0,0,0,0-.01,0,0,0,0,0-.01,0,0,0-.01,0-.02-.01h-.01s-.01-.02-.02-.02c0,0,0,0-.01,0,0,0-.02-.01-.02-.01,0,0,0,0,0,0,0,0-.01,0-.02-.01,0,0,0,0,0,0,0,0-.01,0-.02-.02,0,0,0,0,0,0l-.03-.02s0,0,0,0c0,0-.02-.01-.03-.02,0,0,0,0,0,0,0,0-.02-.01-.03-.02,0,0,0,0,0,0-.01,0-.02-.01-.03-.02,0,0,0,0,0,0-.04-.03-.08-.06-.13-.08,0,0,0,0,0,0-.23-.16-.46-.31-.69-.47,0,0,0,0,0,0h0Zm3.29,2.11l-2.24,3.79c.75.45,1.53.88,2.3,1.3l2.07-3.88s0,0-.01,0c0,0,0,0-.01,0,0,0-.02,0-.02-.01,0,0,0,0-.01,0,0,0-.01,0-.02,0h0s-.02-.01-.04-.02c0,0,0,0,0,0-.01,0-.02-.01-.03-.02,0,0,0,0,0,0-.01,0-.02-.01-.03-.02h0c-.45-.24-.89-.49-1.33-.75h0s-.02-.01-.04-.02h0s-.04-.02-.05-.03c0,0,0,0,0,0,0,0-.02,0-.03-.01,0,0,0,0-.01,0,0,0-.01,0-.02-.01,0,0,0,0-.02,0,0,0,0,0-.01,0,0,0-.01,0-.02-.01,0,0,0,0,0,0,0,0-.02-.01-.03-.01h0s-.02-.02-.03-.02c0,0,0,0,0,0-.01,0-.02-.01-.03-.02,0,0,0,0,0,0-.1-.06-.2-.12-.3-.17h0Zm3.43,1.87l-1.97,3.94c.78.39,1.59.77,2.39,1.13l1.79-4.02-.15-.07s0,0,0,0c-.01,0-.02,0-.03-.01,0,0,0,0-.01,0,0,0-.01,0-.02,0,0,0-.01,0-.02,0h-.01s-.02-.01-.02-.02c0,0,0,0-.01,0,0,0-.02,0-.03-.01,0,0,0,0,0,0,0,0-.02,0-.03-.01h0s-.02-.01-.03-.02c0,0,0,0,0,0,0,0-.02,0-.03-.01,0,0,0,0,0,0-.01,0-.02,0-.03-.01,0,0,0,0,0,0-.01,0-.02,0-.03-.01,0,0,0,0,0,0-.04-.02-.09-.04-.14-.06,0,0,0,0,0,0-.07-.03-.14-.06-.21-.1,0,0,0,0,0,0-.05-.02-.09-.04-.14-.06,0,0,0,0,0,0-.01,0-.02,0-.03-.01,0,0,0,0,0,0,0,0-.02-.01-.03-.01,0,0,0,0,0,0,0,0-.02,0-.03-.01,0,0,0,0,0,0,0,0-.02,0-.03-.01h0s-.02-.01-.03-.02h0s-.02-.01-.03-.02c0,0,0,0,0,0,0,0-.02,0-.03-.01,0,0,0,0-.01,0,0,0-.02,0-.03-.01,0,0,0,0-.01,0,0,0-.01,0-.02,0,0,0-.01,0-.01,0,0,0-.01,0-.02,0,0,0-.01,0-.02,0,0,0-.01,0-.02,0,0,0,0,0-.01,0,0,0-.01,0-.02,0,0,0-.01,0-.02,0,0,0,0,0-.01,0,0,0-.02,0-.03-.01,0,0,0,0,0,0,0,0-.02,0-.03-.01,0,0,0,0,0,0l-.03-.02h0c-.23-.11-.47-.23-.7-.34h0Zm3.56,1.63l-1.69,4.07c.81.34,1.64.66,2.46.96l1.51-4.14c-.14-.05-.29-.11-.43-.16,0,0,0,0,0,0-.01,0-.02,0-.03-.01,0,0,0,0,0,0-.01,0-.02,0-.03-.01h0s-.02,0-.03-.01c0,0,0,0,0,0,0,0-.02,0-.03-.01,0,0,0,0,0,0,0,0-.02,0-.03-.01h0s-.02,0-.03-.01c0,0,0,0-.01,0,0,0-.02,0-.03,0,0,0,0,0-.01,0,0,0-.01,0-.02,0,0,0-.01,0-.02,0,0,0-.01,0-.02,0s-.01,0-.02,0c0,0-.01,0-.02,0,0,0-.01,0-.02,0,0,0-.01,0-.02,0,0,0-.01,0-.02,0,0,0,0,0,0,0-.01,0-.02,0-.03-.01,0,0,0,0,0,0h-.03s0-.01,0-.01c-.01,0-.02,0-.04-.01h0s-.07-.03-.1-.04h0c-.41-.16-.82-.32-1.23-.49h0Zm3.66,1.37l-1.4,4.18c.83.28,1.68.54,2.52.78l1.21-4.23c-.2-.06-.41-.12-.61-.18h0s-.07-.02-.1-.03c0,0,0,0,0,0-.01,0-.02,0-.03,0,0,0,0,0-.01,0,0,0-.02,0-.03,0,0,0,0,0-.01,0,0,0-.02,0-.02,0,0,0-.01,0-.01,0,0,0-.01,0-.02,0,0,0,0,0-.01,0,0,0-.02,0-.02,0,0,0,0,0-.01,0,0,0-.02,0-.02,0,0,0-.01,0-.01,0h-.02s0-.01-.01-.01c0,0-.01,0-.02,0,0,0-.02,0-.02,0,0,0-.01,0-.02,0,0,0-.01,0-.02,0,0,0-.02,0-.02,0,0,0,0,0-.01,0h-.02s-.01-.01-.01-.01c0,0-.02,0-.02,0,0,0,0,0-.01,0,0,0-.01,0-.02,0,0,0-.01,0-.02,0,0,0-.01,0-.02,0,0,0,0,0-.01,0,0,0-.02,0-.02,0,0,0,0,0-.01,0h-.03s0-.01,0-.01c-.01,0-.02,0-.03-.01,0,0,0,0,0,0-.02,0-.04-.01-.06-.02,0,0,0,0,0,0-.01,0-.02,0-.04-.01h0c-.3-.09-.59-.19-.89-.29h0Zm3.75,1.11l-1.09,4.26c.85.22,1.71.42,2.57.6l.9-4.31c-.14-.03-.29-.06-.43-.09,0,0,0,0,0,0,0,0,0,0-.01,0,0,0,0,0,0,0,0,0,0,0-.01,0,0,0,0,0,0,0,0,0,0,0-.01,0,0,0,0,0-.01,0,0,0,0,0,0,0-.46-.1-.92-.21-1.38-.32h0s-.01,0-.02,0c0,0,0,0,0,0,0,0,0,0,0,0,0,0,0,0-.01,0h0s-.01,0-.01,0c0,0,0,0,0,0-.14-.03-.28-.07-.42-.11h0Zm3.82.84l-.79,4.33c.86.16,1.74.3,2.61.42l.6-4.36c-.23-.03-.45-.06-.68-.1,0,0,0,0,0,0,0,0,0,0-.02,0h0s-.01,0-.01,0c0,0,0,0,0,0,0,0,0,0-.01,0,0,0,0,0,0,0,0,0,0,0-.02,0,0,0,0,0,0,0-.02,0-.05,0-.07-.01,0,0,0,0,0,0,0,0-.01,0-.02,0,0,0,0,0,0,0,0,0-.01,0-.01,0,0,0,0,0,0,0,0,0,0,0-.01,0,0,0,0,0,0,0,0,0,0,0-.01,0,0,0,0,0,0,0-.02,0-.03,0-.05,0,0,0,0,0,0,0,0,0,0,0-.01,0,0,0,0,0,0,0,0,0,0,0-.01,0,0,0,0,0,0,0,0,0,0,0-.01,0,0,0,0,0,0,0,0,0,0,0-.01,0,0,0,0,0,0,0,0,0,0,0-.01,0,0,0,0,0,0,0-.02,0-.05,0-.07-.01,0,0,0,0,0,0,0,0-.01,0-.02,0,0,0,0,0,0,0,0,0-.01,0-.02,0,0,0,0,0,0,0,0,0-.01,0-.02,0t0,0s-.01,0-.02,0h0c-.4-.06-.8-.13-1.2-.21h0Zm3.87.57l-.48,4.38c.87.1,1.75.17,2.63.23l.29-4.39c-.16-.01-.32-.02-.48-.03,0,0,0,0,0,0,0,0,0,0-.01,0,0,0,0,0,0,0,0,0,0,0,0,0,0,0,0,0-.01,0,0,0,0,0,0,0-.64-.05-1.27-.11-1.9-.18h0Zm3.9.29l-.18,4.4c.81.03,1.62.05,2.43.05h.2s-.01-4.4-.01-4.4h-.06s-.09,0-.13,0h-.11s-.02,0-.03,0h-.04s-.02,0-.03,0h-.04s-.02,0-.03,0h0s-.02,0-.03,0h-.03s0,0,0,0h-.03s0,0-.01,0h-.02s0,0-.01,0c0,0-.02,0-.03,0h-.01s-.02,0-.03,0h-.01s-.02,0-.02,0h-.01s-.02,0-.03,0c0,0,0,0-.01,0,0,0-.01,0-.02,0h-.01s-.02,0-.03,0c0,0,0,0-.01,0,0,0-.01,0-.02,0,0,0-.01,0-.02,0,0,0-.01,0-.02,0h-.01s-.01,0-.02,0c0,0-.01,0-.02,0h-.01s-.01,0-.02,0c0,0-.02,0-.02,0,0,0-.01,0-.02,0h-.01s-.02,0-.03,0c0,0,0,0,0,0,0,0-.01,0-.02,0h0s-.02,0-.03,0h0s-.04,0-.06,0h0s-.04,0-.06,0h0c-.39,0-.79-.02-1.18-.03h0Zm6.36-.1s-.03,0-.05,0h-.02s0,0,0,0c0,0-.01,0-.02,0h0s-.03,0-.04,0c0,0,0,0,0,0,0,0,0,0-.01,0,0,0,0,0-.01,0,0,0,0,0,0,0,0,0-.01,0-.01,0,0,0,0,0,0,0,0,0,0,0-.02,0,0,0,0,0,0,0-.35.02-.69.04-1.04.06h0s-.01,0-.02,0c0,0,0,0,0,0,0,0,0,0-.02,0,0,0,0,0,0,0,0,0,0,0-.01,0h0s-.01,0-.02,0c0,0,0,0-.01,0,0,0,0,0,0,0,0,0,0,0-.01,0,0,0,0,0,0,0,0,0,0,0-.01,0,0,0,0,0,0,0,0,0,0,0-.01,0,0,0,0,0,0,0,0,0-.01,0-.02,0h0c-.33.02-.67.03-1,.04l.13,4.4c.88-.03,1.76-.07,2.63-.13l-.32-4.39h0Zm3.89-.42c-.64.09-1.28.17-1.92.24h0s-.01,0-.02,0h0s0,0-.01,0c0,0,0,0,0,0,0,0,0,0-.01,0,0,0,0,0-.01,0,0,0,0,0,0,0-.14.02-.29.03-.43.04l.44,4.38c.87-.09,1.75-.19,2.62-.32l-.63-4.36h0Zm3.85-.69c-.79.17-1.59.33-2.4.47l.74,4.34c.86-.15,1.74-.32,2.59-.5l-.93-4.3h0Zm3.79-.97c-.13.04-.26.07-.38.11,0,0,0,0,0,0,0,0,0,0-.01,0,0,0,0,0,0,0,0,0,0,0-.01,0,0,0,0,0,0,0,0,0,0,0,0,0,0,0,0,0-.01,0,0,0,0,0,0,0-.63.18-1.27.35-1.91.5l1.05,4.28c.85-.21,1.71-.44,2.55-.69l-1.24-4.22h0Zm3.71-1.23c-.76.28-1.53.55-2.31.8l1.35,4.19c.83-.27,1.67-.56,2.5-.87l-1.53-4.13h0Zm3.62-1.49c-.58.26-1.16.52-1.75.76,0,0,0,0,0,0,0,0-.02,0-.03.01,0,0,0,0,0,0,0,0-.02,0-.03.01,0,0,0,0,0,0,0,0-.02,0-.02.01,0,0,0,0-.01,0,0,0-.01,0-.02,0h-.02s-.01.01-.02.01c-.02,0-.04.02-.06.02h0c-.09.04-.18.07-.27.11l1.64,4.08c.81-.33,1.63-.68,2.43-1.04l-1.82-4.01h0Zm3.5-1.74c-.27.15-.54.29-.81.43,0,0,0,0,0,0-.01,0-.02.01-.03.02,0,0,0,0,0,0-.01,0-.02.01-.03.02,0,0,0,0,0,0-.01,0-.02.01-.03.02,0,0,0,0,0,0-.01,0-.02.01-.03.02,0,0,0,0,0,0-.01,0-.02.01-.03.02,0,0,0,0,0,0-.01,0-.02,0-.03.02,0,0,0,0,0,0,0,0-.02.01-.03.01,0,0,0,0,0,0h-.03s0,.02,0,.02c0,0-.02.01-.03.01,0,0,0,0,0,0,0,0-.02,0-.03.01,0,0,0,0,0,0,0,0-.02.01-.03.01,0,0,0,0,0,0,0,0-.02,0-.03.01,0,0,0,0,0,0,0,0-.02,0-.03.01,0,0,0,0,0,0,0,0-.02,0-.03.01,0,0,0,0,0,0,0,0-.02,0-.03.01,0,0,0,0,0,0,0,0-.02,0-.03.01,0,0,0,0,0,0,0,0-.02,0-.03.01,0,0,0,0,0,0,0,0-.02,0-.03.01,0,0,0,0,0,0,0,0-.02,0-.03.01,0,0,0,0,0,0,0,0-.02.01-.03.01,0,0,0,0,0,0,0,0-.02,0-.03.01,0,0,0,0,0,0,0,0-.02.01-.03.01,0,0,0,0,0,0-.01,0-.02,0-.03.01,0,0,0,0,0,0,0,0-.02.01-.03.01,0,0,0,0,0,0,0,0-.02.01-.03.02,0,0,0,0,0,0-.17.09-.34.17-.51.25l1.93,3.96c.79-.38,1.58-.79,2.35-1.21l-2.1-3.87h0Zm3.37-1.99c-.28.18-.56.35-.84.53h0s-.02.01-.03.02c0,0,0,0,0,0-.01,0-.02.01-.03.02,0,0,0,0,0,0-.03.02-.06.04-.1.06,0,0,0,0,0,0-.01,0-.02.01-.03.02,0,0,0,0,0,0,0,0-.02.01-.03.02,0,0,0,0,0,0-.01,0-.02.01-.03.02,0,0,0,0,0,0,0,0-.02.01-.03.02,0,0,0,0,0,0,0,0-.02.01-.03.02,0,0,0,0,0,0,0,0-.02.01-.03.02h0s-.02.02-.02.02h0s-.01.01-.02.02c0,0,0,0-.01,0,0,0-.02,0-.02.01,0,0,0,0-.01,0,0,0-.01,0-.02.01,0,0,0,0-.01,0,0,0-.01,0-.02.01h-.02s-.01.02-.02.02c0,0,0,0-.01,0,0,0-.01,0-.02.01,0,0,0,0-.01,0,0,0-.01,0-.02.01,0,0,0,0-.01,0s0,0-.01,0c0,0-.01,0-.02.01,0,0,0,0-.01,0h-.02s0,.02,0,.02c0,0-.02.01-.03.02,0,0,0,0,0,0,0,0-.02.01-.03.02,0,0,0,0,0,0-.02.01-.04.02-.05.03h0s-.02.01-.03.02h0s-.02.01-.03.02h0c-.11.07-.23.13-.34.2l2.2,3.81c.76-.44,1.52-.9,2.26-1.37l-2.37-3.71h0Zm3.22-2.22c-.06.04-.11.08-.17.13h0s-.02.01-.03.02c0,0,0,0,0,0,0,0,0,0-.01.01,0,0-.01,0-.02.01,0,0,0,0-.01,0,0,0-.02.01-.02.02,0,0,0,0,0,0-.44.32-.88.64-1.33.95,0,0,0,0,0,0,0,0-.01.01-.02.02,0,0,0,0-.01,0,0,0-.01,0-.02.01-.11.07-.22.15-.32.22l2.47,3.65c.73-.49,1.45-1,2.15-1.53l-2.62-3.53h0Zm3.06-2.44c-.62.53-1.25,1.05-1.89,1.55l2.72,3.46c.69-.54,1.38-1.1,2.04-1.67l-2.86-3.34h0Zm2.88-2.65c-.16.16-.32.31-.48.46h0s-.02.02-.03.03c0,0,0,0,0,0,0,0-.02.02-.02.02,0,0,0,0,0,0,0,0-.01.01-.02.02,0,0,0,0,0,0,0,0,0,0-.01.01,0,0-.01,0-.02.01h-.01s0,.02-.01.02c0,0-.01.01-.02.02,0,0,0,0-.01.01,0,0-.01.01-.02.02,0,0,0,0-.01.01h-.01s0,.02-.01.03c0,0,0,0-.01.01,0,0-.01.01-.02.02,0,0,0,0-.01.01,0,0-.01.01-.02.02h-.01s-.01.02-.02.03c0,0,0,0-.01.01,0,0-.01,0-.01.01,0,0-.01,0-.02.01,0,0,0,0-.01.01h-.02s0,.02-.01.03c0,0,0,0-.01.01,0,0,0,0-.01.01,0,0,0,0-.01.01,0,0-.01.01-.02.02,0,0,0,0-.01,0,0,0-.01.01-.02.02,0,0,0,0-.01,0,0,0-.01,0-.01.01,0,0,0,0-.01.01,0,0,0,0-.01.01,0,0,0,0-.01.01,0,0,0,0-.01.01,0,0,0,0-.01.01,0,0-.01.01-.02.02,0,0,0,0-.01.01,0,0-.01.01-.02.02,0,0,0,0-.01.01,0,0-.01.01-.02.02,0,0,0,0-.01.01,0,0,0,0-.01.01,0,0,0,0-.01.01,0,0,0,0-.01.01,0,0,0,0-.01.01,0,0-.01,0-.01.01,0,0,0,0-.01.01,0,0-.01.01-.02.02,0,0,0,0-.01.01,0,0-.01.01-.02.02,0,0,0,0-.01.01,0,0-.01.01-.02.02,0,0,0,0-.01.01s0,0-.01.01c0,0-.01,0-.02.01,0,0,0,0-.01.01,0,0,0,0-.01.01,0,0-.01,0-.01.01h-.01s-.01.02-.02.03c0,0,0,0-.01,0l-.02.02h-.01s-.01.02-.02.03c0,0,0,0,0,0,0,0-.01.01-.02.02,0,0,0,0-.01,0,0,0-.01.01-.02.02,0,0,0,0-.01,0,0,0-.01.01-.02.02,0,0,0,0,0,0,0,0-.01.01-.02.02,0,0,0,0,0,0,0,0-.01.01-.02.02,0,0,0,0,0,0,0,0-.01.01-.02.02,0,0,0,0,0,0,0,0-.02.01-.02.02,0,0,0,0,0,0,0,0-.01.01-.02.02,0,0,0,0,0,0,0,0-.02.01-.02.02,0,0,0,0,0,0,0,0-.02.02-.02.02,0,0,0,0,0,0,0,0-.02.01-.02.02,0,0,0,0,0,0l2.95,3.27c.65-.59,1.29-1.2,1.92-1.81l-3.09-3.13h0Zm2.69-2.84c-.54.61-1.09,1.21-1.66,1.8l3.17,3.05c.61-.63,1.21-1.28,1.79-1.94l-3.3-2.91h0Zm2.48-3.02c-.08.1-.16.2-.23.3,0,0,0,0,0,0,0,0-.02.02-.02.03h0s-.05.06-.07.09c0,0,0,0,0,0,0,0-.01.02-.02.03,0,0,0,0,0,0,0,0-.01.02-.02.03,0,0,0,0,0,0,0,0-.01.02-.02.03,0,0,0,0,0,0,0,0-.01.02-.02.03,0,0,0,0,0,0,0,0-.01.02-.02.03,0,0,0,0,0,0,0,0-.01.02-.02.02,0,0,0,0,0,0,0,0-.01.02-.02.02,0,0,0,0,0,0,0,0-.01.02-.02.02h0s-.01.02-.02.03h0s-.01.02-.02.03h0s-.01.02-.02.03h0s-.01.02-.02.03c0,0,0,0,0,0,0,0-.01.01-.02.02h0s-.01.02-.02.03c0,0,0,0,0,0,0,0-.01.01-.02.02,0,0,0,0,0,0,0,0-.01.01-.02.02,0,0,0,0,0,0,0,0,0,.01-.01.02,0,0,0,0-.01.01,0,0,0,.01-.01.02,0,0,0,0-.01.01,0,0,0,.01-.01.02,0,0,0,0,0,.01,0,0-.01.01-.02.02,0,0,0,0,0,.01,0,0-.01.01-.02.02,0,0,0,0,0,.01,0,0,0,.01-.01.02,0,0,0,0-.01.01,0,0,0,0-.01.01,0,0,0,.01-.01.02,0,0,0,0-.01.01,0,0,0,.01-.01.02,0,0,0,0-.01.01,0,0,0,0,0,.01,0,0-.01.01-.01.02,0,0,0,0-.01.01,0,0,0,.01-.01.01,0,0,0,.01-.01.02,0,0,0,0,0,0,0,0-.01.01-.02.02,0,0,0,0,0,0,0,0-.01.02-.02.02,0,0,0,0,0,0,0,0-.01.02-.02.03,0,0,0,0,0,0-.16.19-.31.38-.47.57l3.38,2.82c.56-.67,1.12-1.37,1.65-2.06l-3.5-2.67h0Zm2.26-3.19s0,0,0,.01c0,0,0,0,0,.01,0,0,0,0,0,.01,0,0,0,.01-.01.02,0,0,0,0,0,.01,0,0-.01.02-.02.02,0,0,0,0,0,0,0,.01-.01.02-.02.03,0,0,0,0,0,0-.42.64-.86,1.27-1.3,1.89l3.57,2.58c.51-.71,1.02-1.44,1.5-2.17l-3.68-2.42h0Zm2.03-3.34c-.36.64-.74,1.28-1.12,1.91,0,0,0,0,0,0,0,.01-.01.02-.02.03,0,0,0,0,0,0,0,.01-.01.02-.02.03,0,0,0,0,0,0-.01.02-.03.04-.04.06h0s-.01.02-.02.03h0s-.01.02-.02.03c0,0,0,0,0,0l3.74,2.32c.46-.74.91-1.51,1.34-2.27l-3.84-2.15h0Zm1.79-3.48c-.35.74-.71,1.47-1.09,2.19l3.9,2.05c.41-.78.8-1.57,1.18-2.36l-3.98-1.88h0Zm1.54-3.6c-.29.76-.61,1.52-.93,2.26l4.03,1.77c.35-.8.69-1.62,1.01-2.44l-4.11-1.59h0Zm1.28-3.7s-.01.05-.02.07c0,0,0,0,0,0,0,.01,0,.02,0,.03,0,0,0,0,0,0,0,0,0,.02,0,.03,0,0,0,0,0,.01,0,0,0,.02,0,.02,0,0,0,0,0,.01,0,0,0,.01,0,.02,0,0,0,.01,0,.02,0,0,0,.01,0,.02,0,0,0,.02,0,.03,0,0,0,0,0,.01,0,0,0,.01,0,.02,0,0,0,0,0,0,0,.01,0,.02-.01.03,0,0,0,0,0,0,0,.01,0,.02-.01.04h0c-.03.11-.07.22-.1.33h0s0,.03-.01.04h0s0,.03-.01.04h0s-.01.04-.02.06c0,0,0,0,0,0,0,.01,0,.02-.01.03,0,0,0,0,0,.01,0,0,0,.02,0,.03,0,0,0,0,0,.01,0,0,0,.01,0,.02,0,0,0,.01,0,.02,0,0,0,0,0,.01,0,0,0,.02,0,.02,0,0,0,0,0,.01,0,0,0,.02,0,.03,0,0,0,0,0,0,0,0,0,.02,0,.03,0,0,0,0,0,0,0,.01,0,.02-.01.03,0,0,0,0,0,0,0,.01,0,.02-.01.03,0,0,0,0,0,0,0,.01,0,.02-.01.03,0,0,0,0,0,0-.12.37-.25.75-.39,1.12l4.15,1.48c.29-.83.57-1.67.83-2.51l-4.21-1.29h0Zm1.02-3.78c-.18.8-.39,1.59-.6,2.37l4.24,1.18c.24-.84.45-1.7.65-2.56l-4.29-.99h0Zm.75-3.84c-.03.16-.05.32-.08.48,0,0,0,0,0,0,0,0,0,0,0,.01,0,0,0,0,0,.01,0,0,0,0,0,0,0,0,0,.01,0,.01,0,0,0,0,0,0-.11.63-.22,1.25-.35,1.87l4.31.88c.17-.86.33-1.73.47-2.6l-4.35-.69h0Zm.47-3.88c-.04.42-.08.83-.12,1.24h0s0,.01,0,.02h0s0,.02,0,.02h0s0,.01,0,.02c0,0,0,0,0,0v.02h0s0,.01,0,.02c0,0,0,0,0,0,0,0,0,.01,0,.02,0,0,0,0,0,0,0,0,0,0,0,.01,0,0,0,0,0,.01,0,0,0,0,0,.01,0,0,0,0,0,.01,0,0,0,0,0,0,0,0,0,0,0,.01,0,0,0,0,0,0,0,0,0,0,0,.01,0,0,0,0,0,0,0,.02,0,.04,0,.05,0,0,0,0,0,0,0,0,0,.01,0,.02,0,0,0,0,0,0,0,0,0,.01,0,.02,0,0,0,0,0,0,0,0,0,.01,0,.02,0,0,0,0,0,0-.03.23-.06.47-.08.7,0,0,0,0,0,0,0,0,0,.01,0,.02h0s0,.01,0,.02h0s0,.05,0,.07c0,0,0,0,0,0,0,0,0,0,0,.01,0,0,0,0,0,0,0,0,0,0,0,0,0,0,0,0,0,0l4.36.57c.11-.87.21-1.75.29-2.62l-4.39-.38h0Zm.2-3.91c0,.43-.02.85-.04,1.27h0s0,.02,0,.02h0s0,.02,0,.02h0s0,.03,0,.04c0,0,0,0,0,0,0,0,0,0,0,.01,0,0,0,0,0,.01,0,0,0,0,0,0,0,0,0,0,0,.01,0,0,0,0,0,0,0,0,0,0,0,.01,0,0,0,0,0,0,0,.03,0,.06,0,.09h0c-.01.31-.03.61-.05.91l4.39.26c.05-.87.09-1.76.1-2.63l-4.4-.07h0Zm4.33-4.15l-4.4.23c.04.8.07,1.6.08,2.41h0v.02h0s4.4-.03,4.4-.03c0-.88-.04-1.76-.08-2.63h0Zm-.37-4.2l-4.37.54c.01.11.03.23.04.34h0v.02s0,0,0,0c0,0,0,0,0,.01,0,0,0,0,0,0,0,0,0,0,0,0,0,0,0,.01,0,.01,0,0,0,0,0,0,.07.61.13,1.23.18,1.84,0,0,0,0,0,0,0,0,0,.01,0,.01h0s0,.02,0,.02c0,0,0,0,0,.01,0,0,0,0,0,0,0,0,0,.01,0,.02h0s0,.07,0,.1l4.39-.35c-.07-.87-.16-1.76-.27-2.62h0Zm-.66-4.17l-4.32.85c.1.51.19,1.02.28,1.53h0s0,.01,0,.02h0s0,.01,0,.02c0,0,0,0,0,0,0,0,0,0,0,.01,0,0,0,0,0,0,0,0,0,.01,0,.01,0,0,0,0,0,0,0,0,0,.01,0,.02,0,0,0,0,0,0,0,0,0,0,0,.01,0,0,0,0,0,.01,0,0,0,0,0,0,0,0,0,0,0,.01,0,0,0,0,0,0,0,0,0,0,0,.01,0,0,0,0,0,0,0,0,0,.01,0,.01,0,0,0,0,0,0,.04.23.07.45.11.68l4.35-.65c-.13-.87-.28-1.74-.45-2.6h0Zm-.96-4.11l-4.25,1.15c.02.06.03.12.05.18,0,0,0,0,0,0,0,0,0,.01,0,.01,0,0,0,0,0,0,0,0,0,0,0,.01h0s0,.02,0,.02h0s0,.02,0,.02c.19.7.36,1.41.52,2.12l4.3-.96c-.19-.86-.4-1.72-.63-2.56h0Zm-1.25-4.04l-4.16,1.45c.2.56.38,1.13.56,1.7,0,0,0,0,0,0,0,.01,0,.02.01.03,0,0,0,0,0,0,0,.01,0,.02.01.03,0,0,0,0,0,0,0,.01,0,.02.01.03h0s0,.02.01.03c0,0,0,0,0,0,0,.01,0,.02,0,.03,0,0,0,0,0,0,0,.01,0,.02,0,.03,0,0,0,0,0,0,0,0,0,.02,0,.03,0,0,0,0,0,.01,0,0,0,.01,0,.02,0,0,0,.01,0,.02,0,0,0,.01,0,.02,0,0,0,.01,0,.02,0,0,0,.01,0,.02,0,0,0,.01,0,.02,0,0,0,0,0,.01,0,0,0,.02,0,.03,0,0,0,0,0,0,0,.01,0,.02.01.03h0c.02.06.03.11.05.17l4.22-1.26c-.25-.84-.53-1.69-.81-2.51h0Zm-1.53-3.94l-4.04,1.74c.26.59.5,1.2.74,1.8,0,0,0,0,0,0,0,.01,0,.02.01.03,0,0,0,0,0,0,0,0,0,.02.01.03,0,0,0,0,0,0,0,.01,0,.02.01.03h0s0,.02,0,.03c0,0,0,0,0,.01,0,0,0,.02,0,.02,0,0,0,0,0,.01,0,0,0,.02,0,.02,0,0,0,0,0,.01,0,0,0,.02,0,.02,0,0,0,.01,0,.02,0,0,0,0,0,.01,0,0,0,.02.01.03,0,0,0,0,0,0,0,.01,0,.02.01.03,0,0,0,0,0,0,.02.04.03.08.05.12l4.12-1.56c-.31-.82-.64-1.64-.99-2.45h0Zm-1.81-3.82l-3.91,2.02c.03.07.07.14.1.2,0,0,0,0,0,0,0,.01.01.02.02.03h0s0,.02.02.03c0,0,0,0,0,0,0,0,0,.02.01.03,0,0,0,0,0,0,0,0,0,.02.01.03,0,0,0,0,0,0,0,0,0,.02.01.03,0,0,0,0,0,0v.02s.02,0,.02.01c0,0,0,.02.01.02h0s0,.03.01.03c0,0,0,0,0,.01,0,0,0,.01,0,.02v.02s.01.01.02.02c0,0,0,.01,0,.02,0,0,0,.01,0,.02h0s0,.03.01.04h0s0,.03.01.04c0,0,0,0,0,.01,0,0,0,.01,0,.02,0,0,0,.01,0,.02,0,0,0,.01,0,.02,0,0,0,.01,0,.01,0,0,0,.01.01.02,0,0,0,0,0,.01,0,0,0,.02.01.02,0,0,0,0,0,.01,0,0,0,.02.01.02,0,0,0,0,0,.01,0,0,0,.02.01.03,0,0,0,0,0,0,0,0,0,.02.01.02,0,0,0,0,0,0,0,0,0,.02.01.03,0,0,0,0,0,0,0,0,0,.02.01.03,0,0,0,0,0,0,0,0,0,.02.01.03h0s0,.02.01.04c0,0,0,0,0,0,.02.04.04.09.07.13,0,0,0,0,0,0,.17.34.33.69.49,1.04l4-1.85c-.37-.8-.76-1.59-1.16-2.37h0Zm-2.07-3.68l-3.76,2.29c.07.11.14.22.2.34,0,0,0,0,0,0,0,0,.01.02.02.03,0,0,0,0,0,.01,0,0,0,.01.01.02,0,0,0,0,0,.01,0,0,0,0,0,.01,0,0,0,.01.01.02h0s.01.03.02.03c0,0,0,0,0,0,0,0,.01.02.02.03,0,0,0,0,0,0,.21.35.41.7.61,1.05,0,0,0,0,0,0,0,.01.01.02.02.03,0,0,0,0,0,0,0,.01.01.02.02.03,0,0,0,0,0,0,0,0,.01.02.02.03,0,0,0,0,0,0,0,0,.01.02.02.03,0,0,0,0,0,0,0,0,.01.02.01.03,0,0,0,0,0,0,0,0,0,.02.01.02,0,0,0,0,0,.01,0,0,0,.02.01.02,0,0,0,0,0,.01,0,0,0,.01.01.02s0,.01.01.02c0,0,0,0,0,.01v.02s.02,0,.02,0c0,.01.01.02.02.03,0,0,0,0,0,0,.03.06.07.12.1.18l3.86-2.12c-.42-.77-.87-1.54-1.32-2.28h0Zm-2.32-3.52l-3.59,2.55c.15.21.29.41.44.62,0,0,0,0,0,0,0,.01.01.02.02.03,0,0,0,0,0,0,0,.01.01.02.02.03,0,0,0,0,0,0,0,0,.01.02.02.03,0,0,0,0,0,0,0,0,.01.02.02.03,0,0,0,0,0,0,0,0,.01.02.02.02,0,0,0,0,0,.01,0,0,0,.01.02.02,0,0,0,0,0,.01,0,0,0,.01.01.02,0,0,0,0,0,.01,0,0,0,.01,0,.01,0,0,0,.01.01.02,0,0,0,0,0,.01,0,0,.01.01.01.02,0,0,0,0,0,.01,0,0,.01.02.02.02,0,0,0,0,0,0,.01.02.02.03.03.05h0s.01.02.02.03h0s.01.02.02.03h0c.21.31.42.63.62.94l3.7-2.39c-.48-.74-.97-1.47-1.48-2.18h0Zm-2.57-3.35l-3.4,2.8c.16.19.31.39.47.58h0s.06.08.09.11h0s.02.02.02.03h0s.02.02.02.03c0,0,0,0,0,0,0,0,.02.02.02.03,0,0,0,0,0,0,.01.02.03.03.04.05h0s.02.02.02.03c0,0,0,0,0,0,0,0,.01.02.02.03,0,0,0,0,0,0,0,0,.01.02.02.03,0,0,0,0,0,0,0,0,.01.02.02.03,0,0,0,0,0,0,.02.03.04.05.06.08h0s.02.02.02.03h0s.02.02.02.03h0c.21.27.41.53.61.8l3.52-2.65c-.53-.7-1.07-1.4-1.63-2.07h0Zm-2.79-3.16l-3.2,3.03s0,0,0,0c0,0,.01.01.02.02,0,0,0,0,0,0,0,0,.01.02.02.02,0,0,0,0,0,0l.02.03h0c.25.27.5.54.75.81,0,0,0,0,0,0,0,0,.02.02.02.02,0,0,0,0,0,0,0,0,.01.02.02.02h0s.01.02.02.03c0,0,0,0,0,0,0,0,.01.01.02.02,0,0,0,0,.01.01,0,0,0,0,.01.01,0,0,.01.01.02.02,0,0,0,0,0,0,0,0,.01.02.02.02,0,0,0,0,0,0,.22.24.43.48.64.73l3.32-2.89c-.57-.66-1.17-1.32-1.77-1.95h0Zm-3.01-2.96l-2.98,3.24c.37.34.73.68,1.08,1.02h0s.01.02.02.03c0,0,0,0,0,0,0,0,.01.01.02.02,0,0,0,0,0,0,0,0,.01.01.02.02h0s.01.02.02.03c0,0,0,0,.01.01,0,0,0,0,.01.01,0,0,.01.01.02.02,0,0,0,0,.01.01,0,0,.01.01.02.02,0,0,0,0,.01.01,0,0,.02.02.02.02h0c.16.16.31.31.47.47l3.11-3.11c-.62-.62-1.26-1.23-1.9-1.83h0Zm-3.21-2.74l-2.74,3.44c.16.13.32.25.48.38,0,0,0,0,0,0,0,0,.02.02.03.02,0,0,0,0,0,0,0,0,.02.01.03.02,0,0,0,0,0,0,0,0,.02.02.03.02,0,0,0,0,0,0,0,0,.02.01.03.02,0,0,0,0,0,0,0,0,.02.01.02.02,0,0,0,0,0,0,0,0,.02.01.02.02h0s.01.02.02.02c0,0,0,0,0,0,0,0,.01.01.02.02,0,0,0,0,0,0,0,0,.01.01.02.02,0,0,0,0,.01,0,0,0,.01,0,.02.01,0,0,0,0,.01.01,0,0,.01,0,.02.01,0,0,0,0,.01.01,0,0,0,0,.01.01,0,0,0,0,.01.01,0,0,.01.01.02.01,0,0,0,0,.01.01,0,0,0,0,.01,0,0,0,.01.01.02.02,0,0,0,0,0,0l.02.02s0,0,0,0c0,0,.02.01.02.02,0,0,0,0,0,0,0,0,.02.01.02.02,0,0,0,0,0,0,0,0,.02.01.03.02,0,0,0,0,0,0,.02.01.03.03.05.04t0,0s.02.02.03.02h0s.02.02.03.03h0c.25.21.49.42.74.63l2.89-3.32c-.66-.57-1.34-1.14-2.03-1.69h0Zm-3.39-2.51l-2.49,3.63c.4.28.8.56,1.2.85,0,0,0,0,0,0,0,0,.02.01.03.02,0,0,0,0,0,0l.02.02s0,0,.01,0c0,0,0,0,.01,0,0,0,.01.01.02.02,0,0,0,0,0,0,0,0,.01.01.02.02,0,0,0,0,0,0,0,0,.02.01.02.02,0,0,0,0,0,0,0,0,.02.01.03.02,0,0,0,0,0,0,.19.14.39.29.58.43l2.65-3.52c-.7-.53-1.42-1.05-2.14-1.54h0Zm-3.56-2.27l-2.23,3.79c.15.09.29.17.44.26,0,0,0,0,0,0,.01,0,.02.01.03.02,0,0,0,0,0,0,0,0,.02.01.03.02,0,0,0,0,0,0,0,0,.02.01.02.01,0,0,0,0,.01,0,0,0,.01,0,.01,0,0,0,.01,0,.02.01,0,0,0,0,.01,0,0,0,.01,0,.02.01,0,0,0,0,0,0,0,0,.01,0,.02.01,0,0,0,0,.01,0,0,0,.01,0,.02.01,0,0,0,0,0,0,0,0,.02.01.03.02,0,0,0,0,0,0,0,0,.02.01.03.02,0,0,0,0,0,0,0,0,.02.01.03.02h0s.02.01.03.02c0,0,0,0,0,0,.02.01.04.03.06.04h0s.02.01.03.02c0,0,0,0,0,0,.35.21.69.43,1.03.65,0,0,0,0,0,0,.01,0,.02.01.03.02,0,0,0,0,0,0,0,0,.02.01.03.02,0,0,0,0,0,0,0,0,.02.01.03.02,0,0,0,0,0,0,0,0,.01,0,.02.01,0,0,0,0,0,0l2.4-3.69c-.73-.48-1.49-.94-2.25-1.39h0Zm-3.71-2.01l-1.96,3.94c.37.18.74.37,1.1.56h0s.02.01.03.02c0,0,0,0,0,0,0,0,.02.01.03.02,0,0,0,0,0,0,0,0,.02,0,.03.01,0,0,0,0,.01,0,0,0,.01,0,.02,0,0,0,.01,0,.02.01,0,0,.01,0,.02,0,0,0,0,0,.02,0,0,0,.01,0,.02,0,0,0,.01,0,.02,0,0,0,.01,0,.02,0,0,0,.01,0,.02,0,0,0,0,0,.01,0,0,0,.02,0,.02.01h.01s.02.01.02.02c0,0,0,0,0,0,0,0,.02,0,.03.01,0,0,0,0,0,0,0,0,.02,0,.03.01,0,0,0,0,0,0,0,0,.02.01.03.01,0,0,0,0,0,0,0,0,.02.01.03.02,0,0,0,0,0,0,.01,0,.02.01.03.02h0s.02.01.03.02c0,0,0,0,0,0,.18.1.36.19.53.29l2.13-3.85c-.77-.42-1.55-.84-2.34-1.23h0Zm-3.85-1.74l-1.67,4.07c.07.03.14.06.21.09,0,0,0,0,0,0,.01,0,.02,0,.03.01,0,0,0,0,0,0,0,0,.02,0,.03.01,0,0,0,0,0,0,0,0,.02,0,.03.01,0,0,0,0,0,0,0,0,.02,0,.03.01h.01s.02.01.03.01c0,0,0,0,.01,0,0,0,.01,0,.02,0h.02s0,.01.01.01c0,0,.02,0,.02.01,0,0,0,0,.01,0,0,0,.02,0,.03.01,0,0,0,0,.01,0,.03.01.06.03.09.04h0c.43.18.86.37,1.29.57h0s.02.01.04.02h0s.09.04.13.06h0s.02.01.03.02h0s.02.01.03.02h0s.04.02.06.03h0s.02,0,.02.01l1.85-3.99c-.8-.37-1.61-.72-2.42-1.06h0Zm-3.96-1.47l-1.38,4.18c.14.05.28.09.42.14h0s.02,0,.04.01c0,0,0,0,0,0,0,0,.01,0,.02,0,0,0,.01,0,.02,0,0,0,.01,0,.02,0,0,0,.01,0,.02,0,0,0,0,0,.01,0,0,0,.02,0,.02,0,0,0,0,0,0,0,.01,0,.02,0,.03.01,0,0,0,0,0,0,.01,0,.02,0,.03.01h0c.55.19,1.1.39,1.65.6l1.56-4.11c-.82-.31-1.66-.61-2.49-.88h0Zm-4.06-1.18l-1.08,4.27c.79.2,1.58.42,2.36.65l1.27-4.22c-.84-.25-1.7-.49-2.54-.7h0Zm-4.13-.89l-.78,4.33c.16.03.31.06.47.09,0,0,0,0,0,0,0,0,0,0,.01,0,0,0,0,0,0,0,0,0,0,0,.01,0,0,0,0,0,0,0,0,0,0,0,0,0h.01s0,0,0,0c0,0,0,0,.01,0,0,0,0,0,0,0,0,0,.01,0,.02,0h0s.04,0,.06.01h0s.01,0,.02,0h0c.38.07.76.15,1.14.23h0s.01,0,.02,0h0s.01,0,.02,0h0s.03,0,.04,0h0s.01,0,.02,0c0,0,0,0,0,0,0,0,.01,0,.02,0,0,0,0,0,0,0,0,0,0,0,.01,0,0,0,0,0,0,0,0,0,0,0,.01,0,0,0,0,0,0,0h.01s0,0,.01,0h0s.03,0,.05.01c0,0,0,0,0,0,0,0,0,0,.01,0h0s0,0,.01,0c0,0,0,0,0,0,0,0,0,0,.01,0,0,0,0,0,0,0,0,0,.01,0,.01,0,0,0,0,0,0,0,0,0,0,0,.01,0,0,0,0,0,0,0,.08.02.16.04.24.05l.97-4.29c-.85-.19-1.73-.37-2.59-.52h0Zm-4.18-.6l-.47,4.38s.08,0,.11.01h0s.01,0,.02,0c0,0,0,0,0,0,0,0,.01,0,.01,0,0,0,0,0,0,0,0,0,0,0,.01,0h.01s0,0,0,0c.68.07,1.35.16,2.02.26h0s.01,0,.02,0c0,0,0,0,0,0,0,0,0,0,.01,0,0,0,0,0,0,0h.01s0,0,0,0c0,0,0,0,.01,0,0,0,0,0,0,0,0,0,0,0,0,0,.04,0,.09.01.13.02l.66-4.35c-.87-.13-1.75-.24-2.62-.34h0Zm-4.21-.3l-.16,4.4c.31.01.63.03.94.04h0s.01,0,.02,0c0,0,0,0,0,0,0,0,.01,0,.02,0h0s.08,0,.11,0h0s.01,0,.02,0h0s.07,0,.11,0h0s.01,0,.02,0c0,0,0,0,0,0,0,0,.01,0,.02,0,0,0,0,0,0,0,.03,0,.06,0,.09,0,0,0,0,0,0,0,0,0,.01,0,.02,0,0,0,0,0,0,0,0,0,.01,0,.02,0h0s.06,0,.09,0h0s.01,0,.02,0c0,0,0,0,0,0,0,0,.01,0,.02,0,0,0,0,0,0,0,0,0,.01,0,.02,0,0,0,0,0,0,0,.02,0,.05,0,.07,0,0,0,0,0,0,0,0,0,.01,0,.02,0,0,0,0,0,0,0,0,0,.01,0,.01,0,0,0,0,0,0,0,0,0,0,0,.01,0,0,0,0,0,0,0,.02,0,.03,0,.05,0,0,0,0,0,0,0,0,0,.01,0,.01,0,0,0,0,0,0,0,0,0,0,0,.01,0,0,0,0,0,0,0,0,0,0,0,.01,0,0,0,0,0,0,0,0,0,0,0,.01,0s0,0,.01,0c0,0,0,0,0,0,0,0,0,0,.01,0,0,0,0,0,.01,0,0,0,.01,0,.02,0,0,0,0,0,0,0,0,0,0,0,.01,0,0,0,0,0,0,0,0,0,0,0,.01,0,0,0,0,0,0,0,0,0,0,0,.01,0,0,0,0,0,0,0,0,0,.01,0,.02,0,0,0,0,0,0,0,.02,0,.04,0,.06,0h0s.01,0,.02,0h.02s0,0,0,0c.12,0,.25.02.37.03l.35-4.39c-.87-.07-1.76-.12-2.63-.15h0Zm-2.23-.04v4.4h.07c.18,0,.35,0,.53,0L60.57,0c-.22,0-.43,0-.65,0h0Z" style="fill: #b48ad9; stroke-width: 0px;"/>
        <circle cx="59.92" cy="59.92" r="55.52" style="fill: none; stroke: #fff; stroke-miterlimit: 10; stroke-width: 6.85px;"/>
        <circle cx="59.92" cy="59.92" r="55.52" style="fill: #a66cd9; opacity: .68; stroke-width: 0px;"/>
      </g>
      <g>
        <path d="m36.27,30.37c.97.95,2.88,1.4,5.31,1.53-.43.41-.94,1.19-1.19,1.71-2.02-.25-3.58-.83-4.72-1.82-.68.79-2.18,1.49-5.2,1.84-.14-.34-.43-.79-.72-1.17h-4.77v-1.64h5.44v1.1c3.44-.36,3.89-1.17,3.89-1.84v-.27h-1.08c-.38.59-.81,1.13-1.26,1.55-.34-.32-1.13-.85-1.58-1.1.95-.79,1.69-1.98,2.11-3.2l1.87.41c-.09.27-.2.54-.31.79h5.11l.32-.09,1.46.45c-.47.99-1.08,2.12-1.66,2.84l-1.66-.61c.2-.29.43-.67.63-1.04h-2v.56Zm.49,10.59c1.66.61,3.42,1.33,4.48,1.85l-1.93,1.15c-1.03-.59-2.9-1.48-4.68-2.12l1.1-.88h-5.08l1.57.72c-1.48.94-3.8,1.84-5.62,2.34-.36-.41-1.12-1.21-1.58-1.57,1.73-.32,3.65-.86,4.92-1.49h-2.59v-7.31h12.05v7.31h-2.63Zm-6.75-11.34h-4.61v-1.57h4.61v1.57Zm-.59,6.09h7.8v-.77h-7.8v.77Zm0,1.98h7.8v-.77h-7.8v.77Zm0,2.02h7.8v-.81h-7.8v.81Z" style="fill: #fff; stroke-width: 0px;"/>
        <path d="m45.7,35.52c-.65-.5-2-1.3-2.92-1.85l1.21-1.53c.9.45,2.29,1.19,2.99,1.66l-1.28,1.73Zm1.57,2.47c-.68,1.93-1.51,4-2.32,5.78l-1.96-1.17c.76-1.4,1.76-3.67,2.54-5.78l1.75,1.17Zm-.72-7.24c-.63-.5-1.98-1.35-2.92-1.93l1.22-1.53c.92.5,2.3,1.28,3.01,1.75l-1.31,1.71Zm9.24,7.31v3.89c0,.92-.14,1.42-.77,1.71-.61.29-1.46.32-2.56.31-.09-.56-.32-1.31-.56-1.84.63.02,1.35.02,1.57.02s.29-.05.29-.25v-3.84h-2.84v-6.5h2.39c.18-.52.34-1.06.45-1.53h-3.48v3.04c0,3.19-.32,7.94-2.47,10.93-.38-.34-1.28-.92-1.8-1.15,2.02-2.77,2.2-6.86,2.2-9.78v-4.97h11.24v1.93h-5.26l2,.36c-.23.4-.47.79-.68,1.17h3.44v6.5h-3.15Zm-2.68,1.26c-.56,1.3-1.4,2.79-2.07,3.71-.4-.32-1.21-.79-1.67-1.03.68-.86,1.4-2.11,1.85-3.22l1.89.54Zm-.31-5.24h4.16v-.99h-4.16v.99Zm0,2.45h4.16v-1.01h-4.16v1.01Zm5.35,2.05c.58,1.08,1.37,2.54,1.75,3.42l-1.98.86c-.32-.94-1.04-2.45-1.62-3.58l1.85-.7Z" style="fill: #fff; stroke-width: 0px;"/>
        <path d="m76.94,27.76v16.2h-2.34v-.95h-10.82v.95h-2.23v-16.2h15.39Zm-2.34,13.25v-11.06h-10.82v11.06h10.82Zm-1.75-8.93v6.84h-7.35v-6.84h7.35Zm-2.16,1.87h-3.17v3.11h3.17v-3.11Z" style="fill: #fff; stroke-width: 0px;"/>
        <path d="m94.56,32.53c-.47,2.66-1.17,4.92-2.23,6.77.95,1.21,2.09,2.18,3.44,2.86-.47.38-1.13,1.19-1.46,1.76-1.24-.72-2.3-1.67-3.22-2.83-.95,1.19-2.14,2.16-3.57,2.95-.25-.45-.94-1.35-1.37-1.75,1.55-.76,2.75-1.75,3.73-3.02-.68-1.17-1.26-2.48-1.71-3.93-.29.47-.61.9-.94,1.3-.25-.41-.83-1.21-1.3-1.67v9.04h-2.12v-4.65c-2.86,1.01-3.46,1.33-3.85,1.66-.14-.52-.5-1.49-.83-1.96.34-.2.67-.54.67-1.28v-8.68h2.11v8.79l1.91-.58v-9.87h2.12v7.09c1.39-1.75,2.23-4.48,2.66-7.38l2.18.36c-.18,1.01-.38,2.02-.63,2.97h5.49v2.03h-1.08Zm-5.06,0c-.05.16-.13.32-.18.49.41,1.55.99,3.02,1.71,4.32.67-1.37,1.12-2.97,1.4-4.81h-2.93Z" style="fill: #fff; stroke-width: 0px;"/>
      </g>
      <g>
        <path d="m42.93,52.69h14.3c-1.21,1.31-2.37,2.36-2.57,5.48h-10.11c-.39.09-.83.45-.94.94-.03,3.62-.06,7.25-.08,10.87.16.48.69.95,1.28.95,1.43-.03,2.85.1,4.28.07v-4.01l6.77,6.76-6.85,6.94.08-4.03c-2.2.03-4.39.06-6.59.09-2.59-.38-4.27-2.27-4.54-4.54v-14.99s.9-4.54,4.97-4.54Z" style="fill: #fff; fill-rule: evenodd; stroke-width: 0px;"/>
        <path d="m80.48,57.65v14.3c-1.3-1.21-2.36-2.36-5.48-2.57v-10.11c-.1-.39-.45-.83-.94-.94-3.63-.03-7.25-.05-10.88-.08-.48.16-.95.69-.94,1.28.03,1.43-.1,2.86-.08,4.28h4.02l-6.76,6.77-6.94-6.85,4.03.08c-.03-2.19-.05-4.39-.08-6.59.38-2.59,2.27-4.27,4.53-4.54h14.98s4.54.9,4.54,4.97Z" style="fill: #fff; fill-rule: evenodd; stroke-width: 0px;"/>
        <path d="m75.52,94.94h-14.29c1.2-1.3,2.36-2.36,2.57-5.48h10.1c.39-.1.83-.46.95-.95.02-3.62.05-7.24.08-10.87-.16-.48-.69-.95-1.28-.94-1.43.02-2.86-.11-4.28-.08v4.01l-6.76-6.76,6.85-6.94-.09,4.03c2.2-.03,4.4-.06,6.59-.09,2.6.38,4.27,2.27,4.54,4.54v14.98s-.9,4.54-4.97,4.54Z" style="fill: #fff; fill-rule: evenodd; stroke-width: 0px;"/>
        <path d="m37.99,89.98v-14.29c1.3,1.21,2.36,2.37,5.48,2.57v10.1c.1.39.45.83.94.94,3.63.03,7.25.06,10.88.08.48-.16.95-.69.94-1.28-.03-1.43.1-2.85.08-4.27h-4.02l6.77-6.77,6.93,6.85-4.03-.08c.03,2.19.05,4.39.08,6.59-.38,2.59-2.26,4.27-4.53,4.54h-14.98s-4.54-.9-4.54-4.97Z" style="fill: #fff; fill-rule: evenodd; stroke-width: 0px;"/>
      </g>
    </g>
  </g>
</svg>