<?xml version="1.0" encoding="UTF-8"?>
<svg id="_圖層_2" data-name="圖層 2" xmlns="http://www.w3.org/2000/svg" width="158.75" height="172.04" viewBox="0 0 158.75 172.04">
  <g id="_圖層_7" data-name="圖層 7">
    <g id="air_balloon1">
      <line x1="67" y1="137.57" x2="74.85" y2="165.47" style="fill: none; stroke: #23bdd9; stroke-miterlimit: 10; stroke-width: 7.24px;"/>
      <line x1="89.13" y1="136.69" x2="79.28" y2="163.94" style="fill: none; stroke: #23bdd9; stroke-miterlimit: 10; stroke-width: 7.24px;"/>
      <path d="m92.07,154.54h-28.72c-1.01,0-1.79.65-1.79,1.4,0,.79.78,1.44,1.79,1.44h.28v8.86c0,3.19,2.68,5.81,6.03,5.81h16.09c3.35,0,6.03-2.62,6.03-5.81v-8.86h.28c1.01,0,1.79-.65,1.79-1.44,0-.74-.78-1.4-1.79-1.4Z" style="fill: #23bdd9; fill-rule: evenodd; stroke-width: 0px;"/>
      <g>
        <path d="m77.41,0c-1.06,0-2.13.02-3.18.07l.23,5.31c.32-.01.63-.03.95-.03h0s.02,0,.02,0h0s.02,0,.02,0h0s.04,0,.05,0h0s.02,0,.02,0h0s.01,0,.02,0c0,0,0,0,.01,0,0,0,.01,0,.01,0,0,0,0,0,.01,0,0,0,.01,0,.02,0,0,0,0,0,.01,0,0,0,.01,0,.02,0,.02,0,.03,0,.05,0,0,0,0,0,0,0,0,0,.01,0,.02,0,0,0,0,0,0,0,0,0,.01,0,.02,0,0,0,0,0,.01,0,0,0,.01,0,.02,0,0,0,0,0,0,0,.03,0,.06,0,.08,0h0s.01,0,.02,0h0s.01,0,.02,0c0,0,0,0,0,0,0,0,.01,0,.02,0,0,0,0,0,0,0,.03,0,.06,0,.08,0h0s.01,0,.02,0h0s.01,0,.02,0h0s.07,0,.11,0h0s.01,0,.02,0c0,0,0,0,0,0,0,0,.01,0,.02,0h0s.01,0,.02,0h0s.06,0,.09,0h0s.01,0,.02,0c0,0,0,0,0,0,0,0,.01,0,.02,0h0s.01,0,.02,0h0s.04,0,.07,0h0s.01,0,.02,0c0,0,0,0,0,0,0,0,.01,0,.02,0h0s.01,0,.02,0h0s.01,0,.02,0h0s.04,0,.06,0c0,0,0,0,0,0h.02s0,0,0,0h.02s0,0,0,0h.02s0,0,0,0h.02s0,0,0,0c.02,0,.04,0,.06,0h0s0,0,.01,0h.01s0,0,.01,0h.03s0,0,.01,0h.01s0,0,.01,0h.02s.01,0,.02,0h.02s0,0,.01,0h.02s.01,0,.02,0h.03s.01,0,.02,0h.04s.01,0,.02,0h.04s.01,0,.02,0h.09s0,0,0,0h.13V0h0Zm-5.09.18c-1.06.07-2.12.17-3.17.29l.6,5.28c.38-.04.76-.08,1.14-.12,0,0,0,0,0,0,0,0,.01,0,.01,0,0,0,0,0,.01,0,0,0,0,0,.01,0,0,0,0,0,.01,0,0,0,0,0,.01,0,0,0,.01,0,.02,0,0,0,0,0,0,0,.57-.05,1.14-.1,1.71-.14l-.37-5.3h0Zm-5.07.53c-1.05.15-2.11.32-3.15.51l.97,5.22c.44-.08.88-.16,1.32-.23h0s.02,0,.02,0h0s.01,0,.02,0h0s.01,0,.02,0h0s.02,0,.02,0h0s.05,0,.08-.01c0,0,0,0,0,0,0,0,.01,0,.02,0h0s.01,0,.02,0h0s.01,0,.02,0c0,0,0,0,0,0,0,0,.01,0,.02,0,0,0,0,0,0,0,.03,0,.05,0,.08-.01t0,0s.01,0,.02,0c0,0,0,0,0,0,0,0,.01,0,.02,0,0,0,0,0,0,0,0,0,.01,0,.02,0,0,0,0,0,0,0,0,0,.01,0,.02,0h0s.07-.01.1-.02h0s.02,0,.02,0h0s.02,0,.02,0h0c.32-.05.65-.1.97-.14l-.74-5.26h0Zm-5.02.89c-1.03.22-2.08.47-3.1.74l1.34,5.14c.95-.25,1.91-.47,2.87-.68l-1.11-5.2h0Zm-4.95,1.24c-1.02.29-2.04.61-3.04.95l1.7,5.03c.83-.28,1.67-.55,2.52-.8h0s.03-.01.05-.01c0,0,0,0,.01,0h.01s.01,0,.02,0c0,0,0,0,0,0,0,0,.01,0,.02,0,0,0,0,0,0,0,.06-.02.12-.03.18-.05l-1.48-5.11h0Zm-4.85,1.59c-.99.37-1.99.76-2.97,1.17l2.05,4.9c.54-.23,1.09-.45,1.64-.66h0s.03-.01.05-.02h0s.08-.03.12-.05c0,0,0,0,0,0,.01,0,.03-.01.04-.02,0,0,0,0,.01,0,.01,0,.02,0,.03-.01,0,0,.01,0,.01,0,0,0,.02,0,.03-.01,0,0,.01,0,.02,0,0,0,.01,0,.02,0,0,0,.02,0,.03-.01,0,0,.01,0,.02,0,.01,0,.02,0,.03-.01,0,0,0,0,.01,0,.01,0,.02,0,.03-.01h0s.02-.01.03-.02c0,0,0,0,0,0,.01,0,.03-.01.04-.01,0,0,0,0,0,0,.01,0,.03,0,.04-.02,0,0,0,0,0,0,.17-.06.35-.13.52-.19l-1.83-4.99h0Zm-4.72,1.93c-.96.43-1.93.9-2.88,1.37l2.4,4.74c.13-.06.26-.13.39-.19,0,0,0,0,0,0l.04-.02s0,0,0,0c.01,0,.02-.01.04-.02,0,0,0,0,0,0,.01,0,.03-.01.04-.02h0s.04-.02.07-.03c0,0,0,0,.01,0,.01,0,.02-.01.03-.02,0,0,0,0,.01,0,.01,0,.02-.01.03-.02,0,0,0,0,.01,0,0,0,.02,0,.03-.01,0,0,.01,0,.02,0,0,0,.01,0,.02,0,0,0,.02,0,.03-.01,0,0,.01,0,.02,0,0,0,.01,0,.02-.01s.02,0,.02-.01c0,0,.01,0,.02,0,0,0,.02,0,.02-.01,0,0,.01,0,.02,0,0,0,.01,0,.02-.01s.01,0,.02-.01c0,0,.01,0,.02,0,0,0,.02,0,.03-.01,0,0,.01,0,.02,0,0,0,.02,0,.03-.01,0,0,.01,0,.02,0,0,0,.01,0,.02-.01,0,0,.01,0,.02-.01,0,0,.01,0,.02,0,0,0,.01,0,.02-.01,0,0,.01,0,.02-.01,0,0,.01,0,.02,0,0,0,.02,0,.02-.01h.02s.02-.02.03-.02c0,0,.01,0,.02,0,0,0,.01,0,.02,0,0,0,.02,0,.02-.01,0,0,.01,0,.02,0,0,0,.02,0,.03-.01,0,0,.01,0,.01,0,0,0,.02,0,.03-.01,0,0,0,0,.02,0,0,0,.02,0,.03-.01,0,0,.01,0,.02,0,0,0,.01,0,.02,0,0,0,.01,0,.01,0,.01,0,.02,0,.03-.01,0,0,0,0,.01,0,.01,0,.02-.01.03-.02,0,0,0,0,.01,0,.01,0,.02-.01.04-.02,0,0,0,0,0,0,.01,0,.03-.01.04-.02h0s.04-.02.07-.03c0,0,0,0,0,0,.01,0,.03-.01.04-.02,0,0,0,0,0,0,.01,0,.02-.01.04-.02,0,0,0,0,0,0,.01,0,.03-.01.04-.02,0,0,0,0,0,0,.05-.02.11-.05.16-.07h0c.07-.03.14-.06.21-.1h0s.03-.01.04-.02h0c.05-.02.11-.05.16-.07h0s.03-.01.05-.02h0s.08-.04.12-.05h0s.03-.01.04-.02c0,0,0,0,0,0,0,0,.01,0,.02-.01l-2.18-4.84h0Zm-4.57,2.26c-.93.5-1.86,1.03-2.77,1.57l2.72,4.56c.21-.13.42-.25.63-.37h0s.02-.02.04-.02c0,0,0,0,0,0,.01,0,.02-.01.03-.02,0,0,0,0,0,0,0,0,.02-.01.03-.02,0,0,0,0,0,0,0,0,.02-.01.03-.02,0,0,.01,0,.02,0,0,0,.02,0,.02-.01,0,0,.01,0,.02,0,0,0,.02-.01.02-.01,0,0,.01,0,.02-.01,0,0,.01,0,.02-.01,0,0,.02,0,.03-.01,0,0,0,0,.01,0,.01,0,.02-.01.03-.02,0,0,0,0,0,0,.01,0,.03-.01.04-.02h0c.51-.3,1.03-.58,1.55-.86l-2.52-4.68h0Zm-4.4,2.57c-.89.57-1.79,1.16-2.65,1.76l3.04,4.36c.18-.12.35-.25.53-.37h0s.02-.02.04-.02c0,0,0,0,0,0,.01,0,.02-.02.03-.02,0,0,0,0,0,0,.01,0,.02-.01.03-.02,0,0,0,0,0,0,.01,0,.02-.01.03-.02,0,0,0,0,.01,0,0,0,.02-.01.02-.02,0,0,.01,0,.02-.01,0,0,.01,0,.02-.01,0,0,.01,0,.02-.01,0,0,.01,0,.02-.02,0,0,.01,0,.02-.01,0,0,.02-.01.02-.02,0,0,.01,0,.02-.01,0,0,0,0,.01,0,.01,0,.02-.01.03-.02,0,0,0,0,0,0,.01,0,.02-.02.04-.02h0s.03-.02.04-.03h0c.49-.33.98-.65,1.48-.97l-2.84-4.49h0Zm-4.21,2.88c-.85.63-1.7,1.28-2.52,1.95l3.34,4.14c.59-.48,1.19-.94,1.8-1.4h0s.02-.02.04-.03c0,0,0,0,0,0,.01,0,.02-.02.03-.02,0,0,0,0,0,0,.01,0,.02-.02.03-.02,0,0,0,0,0,0,0,0,.02-.01.03-.02,0,0,.01,0,.01-.01,0,0,.01,0,.02-.01,0,0,.02-.01.02-.02,0,0,.01,0,.02-.01,0,0,.01,0,.02-.01,0,0,.01-.01.02-.02,0,0,.01,0,.02-.01,0,0,.01,0,.02-.01s.01,0,.02-.01c0,0,0,0,.01-.01,0,0,.02-.01.02-.02,0,0,0,0,.01,0,0,0,.02-.01.03-.02,0,0,0,0,.01,0,.01,0,.02-.01.03-.02,0,0,0,0,0,0,.01,0,.02-.01.03-.02,0,0,0,0,0,0,.01,0,.02-.02.03-.02,0,0,0,0,0,0,.01,0,.02-.02.03-.02h0s-3.15-4.28-3.15-4.28h0Zm-3.99,3.17c-.8.69-1.61,1.4-2.38,2.12l3.62,3.89c.72-.67,1.46-1.32,2.21-1.96l-3.44-4.05h0Zm-3.76,3.44c-.75.74-1.5,1.51-2.23,2.28l3.88,3.63c.31-.34.63-.67.95-1,0,0,0,0,0,0,.01-.01.02-.02.03-.03,0,0,0,0,0,0,.01-.01.02-.02.03-.03,0,0,0,0,0,0,0,0,.02-.02.03-.03,0,0,0,0,0,0,0,0,.02-.02.03-.03,0,0,0,0,0,0,0,0,.02-.02.02-.02,0,0,0,0,0,0,0,0,.02-.02.02-.02,0,0,0,0,0,0,0,0,.02-.02.02-.02,0,0,0,0,.01-.01,0,0,.01-.01.02-.02,0,0,0,0,.01-.01,0,0,.01-.01.02-.02,0,0,0,0,.01-.01h.01s.01-.03.02-.03c0,0,0,0,.01-.01,0,0,.01-.01.02-.02,0,0,0,0,.01-.01l.02-.02s0,0,.01-.01l.02-.02h.01s.02-.03.02-.03h0s.02-.03.03-.03c0,0,0,0,0,0,0,0,.02-.02.03-.03,0,0,0,0,0,0l.03-.03h0s.02-.03.03-.04h0s.03-.04.05-.05c0,0,0,0,0,0,.01-.01.02-.02.03-.03h0s.02-.03.03-.03c0,0,0,0,0,0l.03-.03s0,0,0,0c0-.01.02-.02.03-.03,0,0,0,0,0,0l.05-.05s0,0,0,0c0,0,.02-.02.03-.03,0,0,0,0,.01-.01,0,0,.02-.02.02-.02,0,0,0,0,.01-.01,0,0,.01-.01.02-.02,0,0,0,0,.01-.01,0,0,.01-.01.02-.02,0,0,.01-.01.02-.02,0,0,0,0,.01-.01,0,0,.02-.02.02-.02,0,0,0,0,.01-.01,0,0,.02-.02.02-.02h0s.01-.02.02-.03c0,0,0,0,0,0l-3.72-3.8h0Zm-3.51,3.69c-.7.79-1.39,1.61-2.06,2.43l4.13,3.35c.48-.6.98-1.19,1.48-1.77,0,0,0,0,0,0,0-.01.02-.02.03-.03,0,0,0,0,0,0,0-.01.02-.02.03-.03,0,0,0,0,0,0,0,0,.02-.02.03-.03,0,0,0,0,0,0,0,0,.02-.02.02-.03,0,0,0,0,0,0,0,0,.01-.02.02-.02,0,0,0,0,.01-.01,0,0,.01-.02.02-.02,0,0,0-.01.01-.02,0,0,0,0,0,0,0-.01.02-.02.03-.03h0c.07-.08.13-.15.2-.23l-3.98-3.53h0Zm-3.25,3.93c-.64.84-1.28,1.7-1.89,2.57l4.35,3.05c.07-.1.14-.2.21-.3,0,0,0,0,0,0,0-.01.02-.02.03-.04h0s.02-.03.02-.04c0,0,0,0,0,0,0-.01.02-.02.02-.03,0,0,0,0,0,0,0-.01.02-.02.02-.03,0,0,0,0,0,0,0-.01.02-.02.02-.03,0,0,0,0,0,0,0-.01.01-.02.02-.03,0,0,0,0,0,0,0-.01.01-.02.02-.03,0,0,0,0,0,0,0,0,.01-.02.02-.03,0,0,0,0,0-.01,0-.01.01-.02.02-.03,0,0,0,0,0,0,0,0,.01-.02.02-.03,0,0,0,0,0-.01,0,0,.01-.02.02-.03,0,0,0,0,0,0,0,0,.01-.02.02-.03,0,0,0,0,0-.01,0,0,.01-.02.02-.03,0,0,0,0,0-.01,0,0,.01-.02.02-.03,0,0,0,0,0-.01,0,0,.01-.02.02-.03h0s.01-.03.02-.03c0,0,0-.01.01-.02,0,0,0-.01.02-.02,0,0,0,0,0-.01,0,0,.01-.02.02-.03,0,0,0,0,0-.01,0,0,.01-.02.02-.03,0,0,0,0,0-.01,0,0,.01-.02.02-.03h0s.01-.03.02-.04c0,0,0-.01.01-.02,0,0,0-.01.01-.02,0,0,0-.01.01-.02,0,0,.01-.01.01-.02h0s.01-.03.02-.04c0,0,0,0,0-.01,0,0,.01-.02.02-.02h0s.01-.03.02-.04c0,0,0,0,0-.01,0,0,.01-.02.02-.02,0,0,0,0,0-.01,0,0,.01-.02.02-.02,0,0,0,0,.01-.01,0,0,.01-.02.02-.02,0,0,0,0,0-.01,0,0,.01-.02.02-.03,0,0,0,0,0-.01,0-.01.01-.02.02-.03h0s.01-.03.02-.04c0,0,0,0,0-.01,0-.01.01-.02.02-.03,0,0,0,0,0,0,0,0,.01-.02.02-.03,0,0,0,0,0,0,0-.01.01-.02.02-.03,0,0,0,0,0,0,0,0,.02-.02.02-.03,0,0,0,0,0,0,0-.01.01-.02.02-.03,0,0,0,0,0,0,0-.01.01-.02.02-.03,0,0,0,0,0,0,0-.01.02-.02.02-.03,0,0,0,0,0,0,0-.01.01-.02.02-.03,0,0,0,0,0,0,0-.01.02-.02.02-.03,0,0,0,0,0,0,0-.01.01-.02.02-.03,0,0,0,0,0,0,0-.01.02-.02.02-.03,0,0,0,0,0,0,0-.01.01-.02.02-.03,0,0,0,0,0,0,0-.01.02-.02.02-.03,0,0,0,0,0,0,0-.01.02-.02.03-.03,0,0,0,0,0,0,0-.01.02-.02.03-.03,0,0,0,0,0,0,0-.01.02-.02.02-.03,0,0,0,0,0,0,0-.01.02-.02.02-.03,0,0,0,0,0,0,0-.01.02-.02.03-.03,0,0,0,0,0,0,0-.01.02-.02.03-.03,0,0,0,0,0,0,0-.01.02-.02.03-.03,0,0,0,0,0,0,0-.01.02-.02.03-.03,0,0,0,0,0,0,0-.01.02-.02.03-.03,0,0,0,0,0,0,0-.01.02-.02.03-.03,0,0,0,0,0,0,0-.01.02-.02.02-.03,0,0,0,0,0,0l-4.21-3.24h0Zm-2.96,4.15c-.58.88-1.16,1.79-1.7,2.69l4.56,2.74c.51-.84,1.03-1.68,1.58-2.5l-4.43-2.93h0Zm-2.66,4.35c-.52.92-1.03,1.87-1.51,2.81l4.74,2.41c.21-.41.42-.82.64-1.23,0,0,0,0,0,0,0-.01.01-.02.02-.04,0,0,0,0,0,0,0-.01.01-.02.02-.03,0,0,0,0,0-.01,0,0,.01-.02.02-.03,0,0,0,0,0-.01,0,0,0-.02.01-.02,0,0,0-.01.01-.02,0,0,0-.01.01-.02v-.02s.02-.01.02-.02c0-.01.01-.02.02-.03,0,0,0,0,0,0,.01-.02.02-.04.04-.07h0s.02-.03.02-.04h0c.18-.33.36-.66.55-.99l-4.63-2.62h0Zm-2.35,4.52c-.45.96-.89,1.93-1.3,2.91l4.9,2.07c.17-.4.34-.81.52-1.2h0s.01-.03.02-.04h0s.01-.03.02-.05h0s.03-.08.05-.11c0,0,0,0,0,0,0-.01.01-.02.02-.04,0,0,0,0,0,0,0-.01.01-.02.02-.03,0,0,0,0,0-.01,0-.01,0-.02.01-.03,0,0,0,0,0-.01,0,0,0-.01,0-.02,0,0,0-.01,0-.01,0-.01,0-.02.01-.03,0,0,0,0,0-.01,0-.01,0-.02.01-.03,0,0,0,0,0-.01,0-.01,0-.02.01-.03,0,0,0,0,0-.01,0-.01.01-.02.01-.03,0,0,0,0,0-.01.01-.02.02-.04.03-.07,0,0,0,0,0,0,0-.01.01-.02.02-.04,0,0,0,0,0,0,0-.01.01-.02.02-.04,0,0,0,0,0,0,.12-.26.24-.51.36-.77l-4.8-2.28h0Zm-2.03,4.68c-.39.99-.75,1.99-1.1,2.99l5.03,1.71c.03-.08.06-.16.08-.25h0s.03-.08.04-.12c0,0,0,0,0,0,0-.01,0-.02.01-.03,0,0,0-.01,0-.01,0,0,0-.02,0-.03,0,0,0-.01,0-.02,0,0,0-.01,0-.02,0,0,0-.02,0-.03,0,0,0-.01,0-.02,0-.01,0-.02.01-.03,0,0,0,0,0-.01,0,0,0-.02,0-.03h0s0-.03.01-.04c0,0,0,0,0-.01,0-.01,0-.02.01-.03,0,0,0,0,0-.01,0-.01,0-.02.01-.03,0,0,0,0,0,0,0-.01,0-.02.01-.04,0,0,0,0,0,0,0-.01,0-.03.01-.04,0,0,0,0,0,0,0-.01,0-.03.01-.04,0,0,0,0,0,0,0-.01,0-.03.01-.04,0,0,0,0,0,0,0-.01,0-.03.01-.04,0,0,0,0,0,0,0-.01,0-.03.01-.04,0,0,0,0,0,0,0-.01.01-.03.02-.04,0,0,0,0,0,0,.01-.03.02-.06.03-.08,0,0,0,0,0,0,0-.01,0-.03.01-.04,0,0,0,0,0,0,0-.01.01-.03.02-.04,0,0,0,0,0,0,.19-.52.38-1.04.59-1.55l-4.95-1.94h0Zm-1.69,4.81c-.31,1.01-.61,2.04-.88,3.06l5.14,1.35c.02-.08.04-.16.06-.23h0s0-.02,0-.02h0s0-.02,0-.02c0,0,0,0,0,0,0,0,0-.01,0-.02,0,0,0,0,0,0h0c.19-.73.4-1.44.61-2.14,0,0,0,0,0-.01,0,0,0,0,0,0,0,0,0-.01,0-.02,0,0,0,0,0,0,0,0,0-.01,0-.02h0s0-.02,0-.03h0c.03-.1.06-.2.09-.3l-5.07-1.58h0Zm-1.34,4.92c-.24,1.03-.46,2.08-.66,3.12l5.22.99c.18-.97.39-1.93.61-2.89l-5.17-1.22h0Zm-.99,5c-.17,1.04-.32,2.11-.44,3.16l5.28.61c.06-.49.12-.98.19-1.47h0s.01-.09.02-.13c0,0,0,0,0,0,0,0,0,0,0-.02,0,0,0,0,0,0,0,0,0,0,0-.01h0s0-.02,0-.02c0,0,0,0,0-.01,0,0,0,0,0-.01,0,0,0,0,0-.01,0,0,0,0,0-.01,0-.02,0-.03,0-.05,0,0,0,0,0,0,0,0,0-.01,0-.02h0s0-.02,0-.03h0s0-.02,0-.03h0c.03-.23.07-.45.1-.68h0s0-.02,0-.02h0s0-.02,0-.02h0s0-.02,0-.02c0,0,0,0,0,0v-.02s0,0,0,0c0-.02,0-.03,0-.05h0s0-.02,0-.02c0,0,0,0,0-.01,0,0,0,0,0,0v-.02s0,0,0,0v-.02s0,0,0,0c0-.05.02-.11.03-.16l-5.25-.85h0Zm-.63,5.06c-.09,1.05-.17,2.12-.22,3.18l5.31.24c.02-.37.04-.75.06-1.12h0s0-.02,0-.03h0s0-.02,0-.03h0s0-.07,0-.11h0s0-.02,0-.03h0s0-.02,0-.03h0s0-.02,0-.03h0s0-.04,0-.06c0,0,0,0,0,0,0,0,0-.01,0-.02,0,0,0,0,0,0,0,0,0-.01,0-.02,0,0,0,0,0,0,0,0,0-.01,0-.01,0,0,0,0,0-.01,0,0,0,0,0-.01,0,0,0-.01,0-.01,0,0,0,0,0-.01,0-.03,0-.05,0-.08h0s0-.02,0-.02c0,0,0,0,0,0,0,0,0-.01,0-.02,0,0,0,0,0,0,.03-.43.06-.86.1-1.28l-5.29-.48h0Zm-.28,5.09c0,.49-.01.98-.01,1.47,0,.57,0,1.14.02,1.71l5.31-.12c0-.13,0-.27,0-.4h0s0-.02,0-.02c0,0,0-.01,0-.02,0,0,0,0,0,0,0,0,0-.01,0-.02,0,0,0,0,0,0,0,0,0-.02,0-.02h0c0-.28,0-.56,0-.84h0v-.02s0,0,0,0v-.02h0v-.03h0v-.03h0s0-.02,0-.03h0v-.03h0v-.04h0v-.03h0v-.03h0v-.04h0v-.05h0v-.04h0s0-.03,0-.04h0v-.04h0s0-.03,0-.04h0v-.04s0-.01,0-.02v-.02s0-.01,0-.02v-.02s0-.02,0-.03h0s0-.06,0-.09h0c0-.3,0-.59.01-.88l-5.31-.11h0Zm5.38,4.83l-5.31.26c.05,1.06.13,2.13.23,3.18l5.29-.49c-.02-.17-.03-.33-.04-.5,0,0,0,0,0,0,0,0,0-.01,0-.02,0,0,0,0,0,0,0,0,0-.01,0-.02,0,0,0,0,0,0,0,0,0,0,0-.02h0s0-.02,0-.02c0,0,0,0,0-.01,0,0,0-.01,0-.02,0,0,0-.01,0-.02,0,0,0,0,0,0,0,0,0-.01,0-.02,0,0,0,0,0,0,0,0,0-.01,0-.02,0,0,0,0,0,0,0,0,0-.01,0-.02,0,0,0,0,0,0v-.02s0,0,0,0c0-.02,0-.03,0-.05h0s0-.02,0-.03h0s0-.02,0-.03h0s0-.02,0-.03h0c0-.05,0-.11-.01-.16h0s0-.09-.01-.13h0s0-.02,0-.03h0c0-.05,0-.11-.01-.16h0c0-.05,0-.11-.01-.16h0s0-.02,0-.03h0s0-.02,0-.02c0,0,0,0,0,0,0,0,0-.01,0-.02,0,0,0,0,0,0,0-.02,0-.03,0-.05,0,0,0,0,0,0,0,0,0-.01,0-.02,0,0,0,0,0-.01,0,0,0,0,0-.01,0,0,0,0,0-.01,0,0,0,0,0-.01,0,0,0,0,0-.01h0s0-.02,0-.03c0,0,0,0,0,0,0-.02,0-.04,0-.06h0c-.02-.37-.05-.74-.06-1.11h0Zm.4,4.71l-5.28.63c.13,1.05.28,2.11.45,3.16l5.24-.86c-.02-.12-.04-.25-.06-.37h0s0-.02,0-.02h0s0-.02,0-.03h0s0-.02,0-.03h0s0-.02,0-.03h0s0-.04,0-.05h0s0-.02,0-.02c0,0,0,0,0,0v-.02s0,0,0,0c0,0,0-.01,0-.02,0,0,0,0,0,0,0,0,0-.01,0-.01,0,0,0,0,0-.01,0,0,0,0,0-.01,0,0,0,0,0-.01,0,0,0,0,0-.01,0-.02,0-.03,0-.05,0,0,0,0,0,0,0,0,0-.01,0-.02,0,0,0,0,0,0,0,0,0-.01,0-.02,0,0,0,0,0,0,0,0,0-.01,0-.02,0,0,0,0,0,0,0,0,0-.01,0-.02,0,0,0,0,0,0-.11-.7-.2-1.4-.29-2.1h0Zm.73,4.67l-5.22,1c.2,1.04.43,2.09.67,3.12l5.17-1.23c-.21-.87-.4-1.74-.57-2.63h0s0-.02,0-.03h0s0-.02,0-.02h0s0-.02,0-.03h0s0-.01,0-.02c0,0,0-.02,0-.03,0,0,0,0,0,0v-.04s0,0,0,0c0-.03-.01-.06-.02-.09h0Zm1.06,4.6l-5.13,1.37c.27,1.02.57,2.05.89,3.06l5.07-1.6c-.23-.73-.45-1.46-.65-2.2h0s0-.02,0-.02c0,0,0,0,0,0,0,0,0-.01,0-.02,0,0,0,0,0,0,0,0,0-.01,0-.02,0,0,0,0,0,0,0,0,0-.01,0-.02,0,0,0,0,0,0,0,0,0,0,0-.01,0-.01,0-.02,0-.03,0,0,0,0,0,0,0,0,0-.01,0-.02,0,0,0,0,0,0,0,0,0-.01,0-.02,0,0,0,0,0,0-.04-.15-.08-.3-.12-.45h0Zm1.38,4.52l-5.02,1.73c.34,1,.72,2.01,1.11,2.99l4.94-1.95s0-.01,0-.02c0,0,0,0,0-.01v-.02s-.01-.01-.02-.02c0,0,0-.01,0-.02,0,0,0-.02-.01-.03,0,0,0-.01,0-.02,0,0,0-.02-.01-.03,0,0,0-.01,0-.02,0,0,0-.02,0-.03,0,0,0,0,0-.01,0-.01,0-.02-.01-.03,0,0,0,0,0-.01,0-.01,0-.02-.01-.03,0,0,0,0,0-.01,0-.01,0-.02-.01-.03,0,0,0,0,0,0,0-.01,0-.02-.01-.04,0,0,0,0,0,0-.01-.03-.02-.05-.03-.08,0,0,0,0,0,0,0-.01,0-.03-.02-.04,0,0,0,0,0,0,0-.01-.01-.03-.02-.04,0,0,0,0,0,0-.02-.04-.03-.08-.05-.13,0,0,0,0,0,0,0-.01-.01-.03-.02-.04,0,0,0,0,0,0,0-.01-.01-.03-.02-.04h0c-.02-.06-.04-.11-.07-.17,0,0,0,0,0,0-.03-.07-.05-.14-.08-.21,0,0,0,0,0,0,0-.01-.01-.03-.02-.04,0,0,0,0,0,0-.02-.04-.03-.08-.05-.13,0,0,0,0,0,0,0-.01,0-.03-.01-.04,0,0,0,0,0,0,0-.01-.01-.03-.01-.04,0,0,0,0,0,0,0-.01,0-.03-.01-.04,0,0,0,0,0,0,0-.01,0-.03-.01-.04h0s0-.03-.01-.04c0,0,0,0,0,0,0-.01,0-.02-.01-.04,0,0,0,0,0,0,0-.01,0-.02-.01-.04,0,0,0,0,0,0,0-.01,0-.02-.01-.04,0,0,0,0,0,0,0-.01,0-.02-.01-.03,0,0,0,0,0-.01,0-.01,0-.02-.01-.03,0,0,0,0,0-.01,0-.01,0-.02-.01-.03,0,0,0,0,0-.01,0-.01,0-.02-.01-.03,0,0,0,0,0-.01,0-.01,0-.02-.01-.03,0,0,0-.01,0-.02,0,0,0-.01,0-.02,0,0,0-.02,0-.02,0,0,0-.01,0-.02,0,0,0-.02,0-.02,0,0,0-.01,0-.02,0,0,0-.01,0-.02,0,0,0-.02,0-.02,0,0,0-.02,0-.02,0,0,0,0,0,0,0-.01,0-.02-.01-.04,0,0,0,0,0,0v-.04s-.02,0-.02,0c-.07-.19-.14-.39-.2-.58h0Zm1.7,4.41l-4.89,2.08c.41.97.86,1.95,1.31,2.9l4.79-2.3c-.07-.14-.13-.28-.2-.41,0,0,0,0,0,0,0-.01-.01-.03-.02-.04h0s-.01-.03-.02-.04c0,0,0,0,0,0,0-.01-.01-.02-.02-.04,0,0,0,0,0,0,0-.01,0-.02-.02-.03,0,0,0,0,0,0,0-.01,0-.02-.01-.03,0,0,0,0,0-.01,0,0,0-.02-.01-.03,0,0,0,0,0-.01,0,0,0-.02-.01-.03,0,0,0-.01,0-.02,0,0,0-.01-.01-.02,0,0,0-.02-.01-.02,0,0,0-.01,0-.02,0,0,0-.02-.01-.03,0,0,0,0,0-.01,0-.01-.01-.02-.02-.03,0,0,0,0,0-.01-.01-.02-.02-.04-.03-.07,0,0,0,0,0,0,0-.01-.01-.03-.02-.04h0s-.01-.03-.02-.05h0c-.25-.55-.5-1.11-.74-1.67h0Zm2,4.28l-4.73,2.42c.48.94.99,1.88,1.52,2.8l4.62-2.63c-.38-.67-.75-1.35-1.11-2.04,0,0,0,0,0-.01,0,0,0-.02-.01-.03,0,0,0-.01-.01-.02,0,0,0-.01,0-.02,0,0,0-.02-.01-.03h0s-.01-.03-.02-.04c0,0,0,0,0,0,0-.01-.01-.03-.02-.04h0c-.06-.12-.13-.25-.19-.37h0Zm2.3,4.12l-4.55,2.75c.55.9,1.12,1.81,1.71,2.69l4.42-2.95s0,0,0,0c0,0,0-.01-.02-.02,0,0,0-.01-.01-.02,0,0,0-.01-.01-.02,0,0,0-.01-.01-.02,0,0,0-.01-.01-.02,0,0,0-.01-.01-.02,0,0-.01-.02-.02-.02,0,0,0-.01-.01-.02,0,0-.01-.02-.02-.02,0,0,0-.01-.01-.02,0,0,0,0,0-.01,0,0-.01-.02-.02-.03,0,0,0,0,0-.01,0-.01-.01-.02-.02-.03,0,0,0,0,0,0,0-.01-.01-.02-.02-.03,0,0,0,0,0,0-.01-.02-.03-.04-.04-.06h0s-.02-.03-.03-.04c0,0,0,0,0,0,0-.01-.02-.02-.02-.04h0s-.02-.03-.02-.04c0,0,0,0,0,0-.42-.65-.84-1.3-1.24-1.97h0Zm2.59,3.95l-4.34,3.07c.61.86,1.25,1.72,1.89,2.56l4.2-3.25c-.18-.23-.36-.46-.53-.7,0,0,0,0,0,0,0-.01-.02-.02-.03-.04,0,0,0,0,0,0,0-.01-.02-.02-.03-.03,0,0,0,0,0,0,0-.01-.02-.02-.02-.03,0,0,0,0,0,0,0-.01-.02-.02-.02-.03,0,0,0,0,0,0,0,0-.02-.02-.02-.03,0,0,0,0,0-.01,0-.01-.01-.02-.02-.03h0s-.01-.03-.02-.04c0,0,0,0,0-.01,0,0,0-.01-.01-.02,0,0,0-.01-.01-.02,0,0,0-.01-.01-.02,0,0-.01-.02-.02-.02,0,0,0,0-.01-.01,0,0-.01-.02-.02-.03,0,0,0,0,0-.01,0-.01-.02-.03-.03-.04h0s0-.01-.01-.02c0,0,0,0,0,0,0-.01-.02-.02-.03-.04,0,0,0,0,0,0,0-.01-.02-.02-.02-.03,0,0,0,0,0,0,0-.01-.02-.02-.03-.03,0,0,0,0,0,0-.02-.03-.05-.07-.07-.1t0,0s-.02-.02-.03-.04c0,0,0,0,0,0,0-.01-.02-.02-.02-.03,0,0,0,0,0,0,0-.01-.02-.02-.02-.03,0,0,0,0,0,0,0,0-.01-.02-.02-.03,0,0,0,0-.01-.01,0,0,0-.01-.01-.02,0,0-.01-.02-.02-.02,0,0,0-.01-.01-.02,0,0,0-.01-.01-.02,0,0,0-.01-.01-.02v-.02s-.02-.01-.03-.02c0,0,0-.01-.01-.02,0,0,0-.01-.01-.02,0,0,0-.01-.02-.02,0,0,0,0,0-.01,0,0-.01-.02-.02-.03,0,0,0,0,0-.01,0-.01-.01-.02-.02-.03,0,0,0,0,0,0,0-.01-.01-.02-.02-.03,0,0,0,0,0,0,0-.01-.02-.02-.02-.03,0,0,0,0,0,0,0-.01-.02-.02-.03-.04,0,0,0,0,0,0,0-.01-.02-.03-.03-.04,0,0,0,0,0,0-.1-.14-.2-.27-.29-.41h0Zm2.86,3.76l-4.12,3.36c.67.82,1.36,1.63,2.07,2.42l3.96-3.54h-.01s0-.02,0-.02c0,0,0-.01-.01-.02,0,0-.01-.02-.02-.02,0,0,0,0-.01-.01,0,0-.02-.02-.02-.02h0s-.02-.03-.02-.04c0,0,0,0,0,0-.02-.02-.04-.04-.06-.07,0,0,0,0,0,0-.57-.64-1.13-1.3-1.67-1.97,0,0,0,0,0,0,0-.01-.02-.02-.03-.03,0,0,0,0,0,0,0,0-.02-.02-.03-.03,0,0,0,0,0,0h0Zm3.11,3.55l-3.87,3.64c.72.77,1.48,1.53,2.23,2.27l3.71-3.81c-.19-.19-.39-.38-.58-.57h0c-.51-.5-1-1.02-1.49-1.54h0Zm3.36,3.32l-3.61,3.9c.78.72,1.58,1.43,2.39,2.11l3.43-4.06s0,0,0,0c-.01,0-.02-.02-.03-.03,0,0,0,0,0,0,0,0-.02-.02-.03-.03,0,0,0,0,0,0,0,0-.02-.02-.03-.02,0,0,0,0,0,0,0,0-.02-.02-.03-.02,0,0,0,0,0,0,0,0-.02-.01-.02-.02,0,0,0,0-.01,0,0,0-.02-.01-.02-.02,0,0,0,0-.01,0,0,0-.02-.01-.02-.02,0,0,0,0-.01-.01l-.02-.02s-.01,0-.02-.01c0,0-.01-.01-.02-.02,0,0-.01,0-.02-.01,0,0,0,0-.01-.01,0,0-.02-.01-.02-.02,0,0,0,0,0,0,0,0-.02-.02-.03-.02,0,0,0,0,0,0-.01,0-.02-.02-.03-.03h0c-.48-.41-.95-.83-1.41-1.25h0s-.02-.02-.04-.03h0s-.02-.02-.03-.03h0s-.02-.02-.03-.03c0,0,0,0,0,0,0,0-.01-.01-.02-.01,0,0,0,0-.01-.01,0,0-.01-.01-.02-.02,0,0,0,0-.02-.01,0,0-.01-.01-.02-.02,0,0-.01-.01-.02-.02,0,0,0,0-.01-.01,0,0-.02-.01-.02-.02,0,0,0,0,0,0,0,0-.02-.02-.03-.03,0,0,0,0,0,0,0,0-.02-.02-.03-.03,0,0,0,0,0,0-.01,0-.02-.02-.03-.03h0Zm3.58,3.08l-3.32,4.15c.82.66,1.68,1.31,2.53,1.94l3.14-4.29c-.2-.15-.4-.3-.6-.45,0,0,0,0,0,0-.01,0-.02-.02-.03-.02,0,0,0,0,0,0,0,0-.02-.01-.03-.02,0,0,0,0-.01,0,0,0-.02-.01-.03-.02,0,0,0,0-.01-.01,0,0-.01-.01-.02-.02,0,0-.01,0-.02-.01,0,0-.01,0-.02-.01,0,0-.02-.01-.02-.02,0,0,0,0-.01-.01,0,0-.01-.01-.02-.02,0,0,0,0-.01-.01,0,0-.01-.01-.02-.02,0,0-.01,0-.02-.01,0,0-.01-.01-.02-.02h-.01s-.02-.02-.03-.03c0,0,0,0-.01,0,0,0-.02-.01-.03-.02,0,0,0,0-.01,0-.01,0-.02-.01-.03-.02,0,0,0,0,0,0,0,0-.02-.02-.03-.02,0,0,0,0,0,0-.01,0-.02-.02-.03-.02,0,0,0,0,0,0-.01,0-.02-.02-.03-.02,0,0,0,0,0,0-.01,0-.02-.02-.03-.02,0,0,0,0,0,0-.01,0-.02-.02-.03-.02,0,0,0,0,0,0-.01,0-.02-.02-.03-.03,0,0,0,0,0,0-.01,0-.02-.02-.03-.03h0c-.35-.27-.7-.55-1.05-.83h0Zm3.79,2.82l-3.02,4.37c.87.6,1.76,1.19,2.66,1.75l2.83-4.5s0,0,0,0c-.01,0-.02-.01-.03-.02,0,0,0,0,0,0-.01,0-.02-.01-.03-.02,0,0,0,0,0,0-.01,0-.02-.01-.03-.02,0,0,0,0,0,0-.79-.5-1.58-1.02-2.35-1.55h0Zm3.98,2.55l-2.71,4.57c.91.54,1.84,1.07,2.78,1.56l2.5-4.69c-.87-.46-1.73-.95-2.57-1.45h0Zm4.15,2.26l-2.38,4.75c.95.47,1.92.93,2.88,1.36l2.17-4.85c-.15-.07-.29-.13-.44-.2h0s-.03-.01-.04-.02c0,0,0,0,0,0l-.04-.02s0,0,0,0c0,0-.01,0-.02,0,0,0-.01,0-.02,0,0,0-.02,0-.02-.01,0,0-.01,0-.02,0,0,0-.02,0-.02-.01,0,0-.01,0-.02,0h-.02s-.02-.02-.02-.02c0,0,0,0-.01,0,0,0-.02,0-.03-.01,0,0,0,0-.01,0-.01,0-.02,0-.03-.01,0,0,0,0-.01,0,0,0-.02-.01-.03-.01,0,0,0,0,0,0,0,0-.02-.01-.03-.01,0,0,0,0,0,0,0,0-.02-.01-.03-.02,0,0,0,0,0,0-.01,0-.02-.01-.03-.02,0,0,0,0,0,0-.01,0-.02-.01-.03-.02,0,0,0,0,0,0-.01,0-.02-.01-.04-.02,0,0,0,0,0,0-.01,0-.03-.01-.04-.02,0,0,0,0,0,0-.01,0-.02-.01-.03-.02,0,0,0,0,0,0-.01,0-.02-.01-.04-.02,0,0,0,0,0,0-.01,0-.02-.01-.03-.02,0,0,0,0,0,0-.01,0-.02-.01-.03-.02,0,0,0,0,0,0-.01,0-.02-.01-.03-.02,0,0,0,0,0,0,0,0-.02,0-.03-.01,0,0,0,0-.01,0,0,0-.02,0-.03-.01,0,0,0,0,0,0,0,0-.02-.01-.03-.02,0,0,0,0-.01,0-.01,0-.02,0-.03-.01,0,0,0,0-.01,0,0,0-.02,0-.03-.01,0,0,0,0-.01,0,0,0-.02,0-.02-.01,0,0-.01,0-.02,0,0,0-.01,0-.02,0,0,0-.01,0-.02-.01,0,0-.01,0-.02,0,0,0-.01,0-.02,0,0,0-.02,0-.02-.01h-.02s0-.01-.01-.02c-.01,0-.02-.01-.03-.02,0,0,0,0,0,0-.01,0-.02-.01-.04-.02,0,0,0,0,0,0-.3-.14-.59-.29-.89-.44h0Zm4.3,1.96l-2.04,4.91c.98.41,1.98.79,2.97,1.16l1.82-4.99c-.08-.03-.17-.06-.26-.09,0,0,0,0,0,0h-.04s0-.02,0-.02c-.01,0-.02,0-.03-.01,0,0,0,0-.01,0,0,0-.02,0-.03,0,0,0-.01,0-.02,0,0,0-.01,0-.02,0,0,0-.02,0-.03-.01,0,0,0,0-.02,0-.01,0-.02,0-.03-.01,0,0,0,0-.01,0-.02,0-.05-.02-.07-.03h0c-.52-.19-1.03-.4-1.55-.6,0,0,0,0,0,0-.01,0-.03-.01-.04-.02,0,0,0,0,0,0-.01,0-.02,0-.03-.01,0,0,0,0-.01,0,0,0-.02,0-.03-.01,0,0-.01,0-.02,0h-.02s-.02-.02-.03-.02c0,0-.01,0-.02,0,0,0-.02,0-.03-.01,0,0-.01,0-.01,0-.01,0-.02,0-.03-.01h-.01s-.02-.01-.03-.02c0,0,0,0-.01,0-.01,0-.02,0-.03-.01,0,0,0,0-.01,0-.01,0-.02,0-.03-.01,0,0,0,0,0,0-.01,0-.02-.01-.04-.02,0,0,0,0,0,0-.03-.01-.05-.02-.08-.03,0,0,0,0,0,0-.01,0-.03-.01-.04-.02h0s-.03-.01-.04-.02h0Zm4.42,1.65l-1.68,5.04c1,.34,2.03.65,3.05.94l1.46-5.11c-.27-.08-.54-.16-.81-.24h0s-.1-.03-.15-.04h0s-.02,0-.02,0h0s-.01,0-.02,0h0s-.01,0-.02,0h0s-.01,0-.02,0h0s-.02,0-.02,0h0s-.05-.02-.07-.02h0s-.02,0-.02,0h0s-.01,0-.02,0h0s-.01,0-.02,0h0s-.01,0-.02,0h0s-.02,0-.02,0h0c-.52-.16-1.03-.32-1.54-.49h0Zm4.53,1.34l-1.32,5.15c1.02.26,2.07.51,3.1.72l1.09-5.2c-.17-.04-.35-.07-.52-.11,0,0,0,0,0,0,0,0-.01,0-.02,0,0,0,0,0,0,0,0,0-.01,0-.02,0,0,0,0,0,0,0,0,0-.01,0-.02,0h0s-.01,0-.02,0c0,0,0,0,0,0,0,0-.01,0-.01,0,0,0-.02,0-.02,0h0s-.01,0-.02,0c0,0,0,0,0,0,0,0-.01,0-.02,0h0s-.01,0-.02,0c0,0,0,0,0,0,0,0-.01,0-.02,0h0s-.01,0-.02,0h0c-.57-.13-1.13-.26-1.69-.4,0,0,0,0,0,0h-.02s0,0,0,0h-.01s0,0-.01,0h-.01s0,0-.01,0c0,0,0,0,0,0,0,0-.01,0-.02,0,0,0,0,0,0,0-.1-.02-.19-.05-.29-.07h0Zm4.61,1.01l-.95,5.23c1.04.19,2.1.36,3.15.5l.72-5.27c-.07-.01-.15-.02-.22-.03,0,0,0,0-.01,0,0,0,0,0,0,0,0,0-.01,0-.02,0,0,0,0,0,0,0,0,0-.01,0-.02,0h0s-.01,0-.02,0h0c-.87-.12-1.74-.26-2.6-.42h0Zm4.67.68l-.58,5.28c1.05.12,2.12.21,3.17.28l.35-5.3c-.1,0-.19-.01-.29-.02h-.05s0,0,0,0c0,0-.02,0-.03,0h0s-.01,0-.02,0c0,0-.01,0-.01,0h-.01s-.01,0-.01,0h0s-.01,0-.02,0c0,0,0,0,0,0,0,0-.01,0-.02,0,0,0,0,0,0,0-.22-.02-.43-.03-.64-.05,0,0,0,0,0,0,0,0-.01,0-.02,0,0,0,0,0,0,0-.04,0-.07,0-.11,0,0,0,0,0,0,0,0,0,0,0-.02,0,0,0,0,0,0,0,0,0-.01,0-.02,0,0,0,0,0,0,0,0,0,0,0-.01,0,0,0,0,0-.01,0,0,0,0,0-.01,0,0,0-.01,0-.02,0,0,0,0,0,0,0,0,0-.02,0-.02,0,0,0,0,0,0,0,0,0-.01,0-.02,0,0,0,0,0,0,0,0,0-.01,0-.02,0,0,0,0,0,0,0,0,0-.01,0-.02,0h0s-.01,0-.02,0h0s-.02,0-.02,0h0c-.47-.04-.94-.09-1.4-.14h0Zm4.71.35l-.21,5.31c.97.04,1.96.06,2.94.06h.25s-.02-5.31-.02-5.31c-.08,0-.15,0-.23,0h-.12s0,0,0,0h-.08s-.03,0-.04,0h0s-.03,0-.04,0h-.04s0,0,0,0h-.04s-.02,0-.04,0h0s-.03,0-.04,0h0s-.05,0-.08,0h0s-.06,0-.08,0h0s-.03,0-.04,0h0s-.06,0-.08,0h0c-.37,0-.74-.01-1.11-.02h0s-.06,0-.08,0h0s-.03,0-.04,0h0s-.03,0-.04,0c0,0,0,0,0,0-.01,0-.02,0-.04,0,0,0,0,0,0,0,0,0-.02,0-.03,0,0,0,0,0,0,0-.01,0-.02,0-.03,0,0,0,0,0-.01,0,0,0-.02,0-.03,0,0,0-.02,0-.02,0,0,0-.01,0-.02,0h-.02s-.01,0-.02,0c-.01,0-.02,0-.04,0,0,0,0,0,0,0-.13,0-.27,0-.4-.01h0Zm7.67-.13c-.35.03-.7.05-1.04.07h0s-.02,0-.02,0h0s-.05,0-.08,0c0,0,0,0,0,0,0,0,0,0-.01,0,0,0,0,0-.01,0,0,0,0,0-.01,0,0,0,0,0-.01,0,0,0,0,0,0,0,0,0,0,0-.02,0,0,0,0,0,0,0-.3.02-.61.03-.91.04,0,0,0,0,0,0,0,0-.01,0-.02,0,0,0,0,0-.01,0,0,0,0,0-.01,0,0,0,0,0-.01,0,0,0,0,0-.01,0,0,0-.01,0-.02,0,0,0,0,0,0,0-.02,0-.03,0-.05,0h0s-.02,0-.03,0h0s-.02,0-.02,0h0c-.2,0-.39.01-.59.02l.16,5.31c1.06-.03,2.13-.09,3.18-.16l-.39-5.3h0Zm4.7-.51c-.11.02-.21.03-.32.04,0,0,0,0,0,0,0,0,0,0-.01,0,0,0,0,0-.01,0,0,0,0,0-.01,0h-.02s0,0,0,0h-.02s0,0,0,0c-.84.12-1.68.22-2.53.3l.53,5.29c1.05-.1,2.12-.23,3.16-.39l-.76-5.26h0Zm4.65-.84c-.16.04-.33.07-.49.1h0s-.01,0-.02,0c0,0,0,0,0,0,0,0-.01,0-.01,0,0,0,0,0-.01,0,0,0,0,0-.01,0,0,0,0,0-.01,0,0,0,0,0-.01,0,0,0-.01,0-.02,0,0,0,0,0,0,0h-.02s0,0,0,0h-.02s0,0,0,0c0,0-.01,0-.02,0,0,0,0,0,0,0,0,0-.01,0-.02,0h0s-.02,0-.02,0h0c-.17.03-.34.07-.51.1h0s-.02,0-.03,0h0s-.02,0-.02,0h0s-.01,0-.02,0h0s-.02,0-.02,0h0s-.03,0-.05.01c0,0,0,0,0,0,0,0-.01,0-.02,0,0,0,0,0,0,0,0,0-.01,0-.02,0,0,0,0,0,0,0,0,0,0,0-.01,0,0,0,0,0-.01,0,0,0,0,0-.01,0s0,0-.01,0h-.01s0,0-.01,0c0,0,0,0,0,0-.45.09-.9.17-1.36.25l.9,5.24c1.04-.18,2.1-.38,3.13-.61l-1.13-5.19h0Zm4.58-1.17c-.16.05-.32.09-.49.14h0s-.01,0-.02,0c0,0,0,0,0,0,0,0-.01,0-.02,0,0,0,0,0-.01,0,0,0,0,0-.01,0,0,0-.01,0-.02,0,0,0,0,0,0,0-.59.17-1.18.33-1.77.48h-.02s0,0,0,0c0,0-.01,0-.02,0,0,0,0,0,0,0,0,0-.01,0-.02,0,0,0,0,0,0,0,0,0,0,0-.01,0-.14.03-.28.07-.42.1l1.27,5.16c1.03-.25,2.06-.53,3.08-.83l-1.49-5.1h0Zm4.48-1.49c-.92.34-1.85.66-2.79.97l1.63,5.06c1.01-.32,2.02-.68,3.01-1.04l-1.85-4.98h0Zm4.37-1.8c-.11.05-.22.1-.34.15,0,0,0,0,0,0-.01,0-.03.01-.04.02,0,0,0,0,0,0-.01,0-.03.01-.04.02,0,0,0,0,0,0-.03.01-.05.02-.08.04,0,0,0,0,0,0-.01,0-.02.01-.04.02,0,0,0,0,0,0-.01,0-.02.01-.03.02,0,0,0,0,0,0,0,0-.02.01-.03.01,0,0,0,0,0,0,0,0-.02,0-.03.01,0,0,0,0-.01,0,0,0-.02,0-.03.01,0,0,0,0,0,0,0,0-.02.01-.03.01h-.01s-.02.01-.03.02c0,0,0,0-.01,0,0,0-.02,0-.03.01,0,0,0,0-.01,0-.01,0-.02,0-.03.01,0,0,0,0,0,0,0,0-.02,0-.03.01,0,0,0,0-.01,0-.01,0-.02,0-.03.01,0,0,0,0-.01,0,0,0-.02,0-.03.01,0,0,0,0-.01,0-.01,0-.02,0-.03.01h-.01s-.02.01-.03.02c0,0,0,0,0,0,0,0-.02,0-.03.01,0,0,0,0,0,0-.01,0-.02,0-.03.01,0,0,0,0,0,0,0,0-.02.01-.03.01,0,0,0,0,0,0l-.04.02s0,0,0,0c-.01,0-.02.01-.04.02,0,0,0,0,0,0-.01,0-.02.01-.04.02,0,0,0,0,0,0l-.04.02s0,0,0,0c-.01,0-.02.01-.04.02,0,0,0,0,0,0-.01,0-.03.01-.04.02,0,0,0,0,0,0-.01,0-.03.01-.04.02,0,0,0,0,0,0-.06.02-.11.05-.17.07h0c-.28.12-.57.24-.85.35,0,0,0,0,0,0-.01,0-.03.01-.04.02,0,0,0,0,0,0-.01,0-.02,0-.04.01,0,0,0,0,0,0-.01,0-.02,0-.04.01,0,0,0,0,0,0-.01,0-.02,0-.03.01h0s1.98,4.93,1.98,4.93c.98-.39,1.97-.82,2.93-1.26l-2.2-4.84h0Zm4.23-2.11c-.27.15-.54.29-.81.43h0c-.05.03-.11.06-.16.08,0,0,0,0,0,0-.01,0-.02.01-.04.02,0,0,0,0,0,0-.01,0-.02.01-.04.02,0,0,0,0,0,0-.01,0-.03.01-.04.02,0,0,0,0,0,0-.01,0-.03.01-.04.02,0,0,0,0,0,0-.01,0-.03.01-.04.02,0,0,0,0,0,0-.01,0-.02.01-.04.02,0,0,0,0,0,0-.01,0-.02.01-.04.02,0,0,0,0,0,0-.01,0-.02.01-.04.02,0,0,0,0,0,0-.02.01-.05.03-.08.04,0,0,0,0,0,0-.01,0-.03.01-.04.02,0,0,0,0,0,0-.01,0-.02.01-.04.02,0,0,0,0,0,0-.01,0-.02.01-.04.02,0,0,0,0,0,0-.01,0-.03.01-.04.02,0,0,0,0,0,0-.03.01-.05.03-.08.04,0,0,0,0,0,0-.01,0-.02.01-.04.02,0,0,0,0,0,0-.01,0-.03.01-.04.02,0,0,0,0,0,0-.01,0-.03.01-.04.02,0,0,0,0,0,0-.04.02-.08.04-.12.06,0,0,0,0,0,0l-.04.02s0,0,0,0c-.01,0-.03.01-.04.02h0c-.22.11-.44.22-.66.33l2.33,4.78c.95-.46,1.9-.95,2.83-1.46l-2.54-4.67h0Zm4.07-2.4c-.83.53-1.67,1.04-2.52,1.53l2.66,4.6c.92-.53,1.83-1.09,2.72-1.66l-2.86-4.48h0Zm3.89-2.68l-.2.15s0,0,0,0c0,0-.02.01-.03.02,0,0-.01,0-.02.01,0,0-.01,0-.02.01,0,0-.02.01-.03.02h-.01s-.02.02-.03.03c0,0,0,0,0,0-.01,0-.02.02-.03.02,0,0,0,0,0,0-.31.23-.62.45-.93.67h0s-.02.02-.03.02c0,0,0,0,0,0-.01,0-.02.01-.03.02,0,0,0,0,0,0-.01,0-.02.01-.03.02,0,0,0,0,0,0-.01,0-.02.01-.03.02h-.01s-.01.02-.02.02c0,0-.01,0-.02.01,0,0-.01,0-.02.01,0,0-.01.01-.02.02,0,0-.01,0-.02.01,0,0-.02.01-.03.02,0,0,0,0-.01,0-.27.19-.54.37-.81.56l2.98,4.4c.88-.59,1.75-1.21,2.6-1.84l-3.17-4.27h0Zm3.69-2.95c-.12.1-.24.21-.36.31,0,0,0,0,0,0-.01,0-.02.02-.03.03,0,0,0,0,0,0,0,0-.02.01-.03.02,0,0,0,0-.01.01,0,0-.01.01-.02.02,0,0-.01,0-.02.02h-.01s-.02.02-.02.03c0,0,0,0-.01.01,0,0-.02.01-.03.02,0,0,0,0,0,0,0,0-.02.02-.03.02,0,0,0,0,0,0-.01,0-.02.02-.03.03,0,0,0,0,0,0-.01,0-.02.02-.03.03h0s-.02.02-.03.03c0,0,0,0,0,0-.52.43-1.05.86-1.58,1.28l3.28,4.18c.83-.65,1.66-1.33,2.46-2.02l-3.46-4.03h0Zm3.48-3.2c-.18.18-.36.35-.54.53h0s-.02.02-.03.03h0s-.02.02-.03.03c0,0,0,0,0,0-.01.01-.02.02-.03.03h0s-.02.02-.04.04h0s-.06.06-.09.09h0s-.02.02-.03.03h0c-.44.42-.88.83-1.33,1.24l3.56,3.94c.78-.71,1.56-1.44,2.32-2.19l-3.73-3.78h0Zm3.24-3.43s0,0,0,0c0,0-.02.02-.02.03,0,0,0,0,0,0,0,0-.02.02-.02.03,0,0,0,0,0,0,0,0-.02.02-.02.03,0,0,0,0,0,0,0,0-.02.02-.02.03,0,0,0,0,0,0,0,0-.02.02-.02.03,0,0,0,0,0,0,0,0-.01.02-.02.02,0,0,0,0,0,.01,0,0-.01.01-.02.02,0,0,0,0,0,.01,0,0-.01.02-.02.02,0,0,0,0-.01.01,0,0-.01.02-.02.02h-.01s-.01.03-.02.04h-.01s-.01.03-.02.03c0,0,0,0-.01.01,0,0-.01.01-.02.02,0,0,0,.01-.01.01,0,0-.01.01-.02.02,0,0,0,0-.01.01,0,0-.01.02-.02.02,0,0,0,0-.01.01,0,0-.01.02-.02.02,0,0,0,0-.01.01,0,0-.01.02-.02.02,0,0,0,0-.01.01,0,0-.01.01-.02.02,0,0,0,0-.01.01,0,0-.01.01-.02.02,0,0,0,0-.01.01,0,0-.01.02-.02.02h0s-.02.03-.02.03h0s-.02.03-.02.04c0,0,0,0,0,0,0,0-.02.02-.02.03,0,0,0,0,0,0,0,0-.02.02-.02.03h0s-.02.02-.02.03c0,0,0,0,0,0,0,0-.02.02-.02.03,0,0,0,0,0,0,0,0-.02.02-.03.03h0s-.02.03-.03.03c0,0,0,0,0,0,0,0-.02.02-.03.03h0s-.02.03-.03.03c0,0,0,0,0,0,0,0-.02.02-.03.03,0,0,0,0,0,0,0,0-.02.02-.03.03,0,0,0,0,0,0,0,0-.02.02-.03.03,0,0,0,0,0,0-.01.01-.02.02-.03.03,0,0,0,0,0,0,0,0-.02.02-.03.03,0,0,0,0,0,0,0,.01-.02.02-.03.03,0,0,0,0,0,0-.03.03-.06.07-.09.1h0s-.02.02-.03.03h0s-.02.02-.03.03h0c-.25.27-.51.54-.76.8l3.83,3.68c.73-.76,1.46-1.55,2.16-2.34l-3.99-3.51h0Zm3-3.65s0,0,0,0c0,0-.01.02-.02.03,0,0,0,0,0,0,0,0-.02.02-.02.03,0,0,0,0,0,0,0,.01-.02.02-.02.03,0,0,0,0,0,0,0,.01-.02.02-.02.03h0s-.02.03-.03.04c0,0,0,0,0,0,0,.01-.02.02-.03.03,0,0,0,0,0,0-.02.02-.04.05-.05.07,0,0,0,0,0,0l-.03.04s0,0,0,0c0,.01-.02.02-.03.03h0s-.02.03-.03.04c0,0,0,0,0,0-.04.05-.07.1-.11.14,0,0,0,0,0,0,0,.01-.02.02-.03.03,0,0,0,0,0,0,0,.01-.02.02-.03.03,0,0,0,0,0,0,0,.01-.02.02-.03.03,0,0,0,0,0,0-.02.02-.04.05-.05.07,0,0,0,0,0,0,0,0-.02.02-.03.03,0,0,0,0,0,0,0,0-.02.02-.02.03,0,0,0,0,0,0,0,0-.02.02-.02.03,0,0,0,0,0,0,0,.01-.02.02-.02.03,0,0,0,0,0,0,0,0-.01.02-.02.03,0,0,0,0,0,0,0,0-.01.02-.02.03,0,0,0,0,0,.01,0,0-.01.02-.02.03,0,0,0,0,0,.01,0,0-.01.02-.02.02,0,0,0,0-.01.01,0,0-.01.01-.02.02,0,0,0,0-.01.01,0,0,0,.01-.01.02,0,0-.01.01-.02.02,0,0,0,0,0,.01,0,0-.01.02-.02.03,0,0,0,0,0,.01,0,0-.02.02-.02.03,0,0,0,0,0,0-.03.03-.05.06-.08.1h0s-.04.05-.06.08h0c-.21.26-.42.52-.64.78,0,0,0,0,0,0,0,.01-.02.02-.02.03,0,0,0,0,0,0,0,0-.01.02-.02.03,0,0,0,0-.01.01,0,0-.01.01-.02.02,0,0-.01.01-.02.02,0,0,0,0-.01.01,0,0-.01.02-.02.03,0,0,0,0,0,0l4.08,3.41c.68-.81,1.35-1.65,1.99-2.49l-4.22-3.22h0Zm2.73-3.85c-.08.12-.16.24-.24.36,0,0,0,0,0,0,0,.01-.02.02-.02.03,0,0,0,0,0,0,0,.01-.02.02-.02.04,0,0,0,0,0,0,0,.01-.02.03-.03.04h0s0,.02-.01.02c0,0,0,0,0,.01,0,0-.01.02-.02.03,0,0,0,0,0,.01,0,0-.01.02-.02.03,0,0,0,.01,0,.01,0,0,0,.01-.01.02,0,0,0,.01-.01.02h0s-.01.03-.02.04c0,0,0,0,0,.01,0,.01-.01.02-.02.03,0,0,0,0,0,.01,0,0-.01.02-.02.03,0,0,0,0,0,0,0,.01-.01.02-.02.03,0,0,0,0,0,0,0,.01-.01.02-.02.03,0,0,0,0,0,0,0,.01-.02.02-.02.03,0,0,0,0,0,0,0,.01-.01.02-.02.03,0,0,0,0,0,0,0,.01-.02.02-.02.03,0,0,0,0,0,0,0,.01-.02.02-.02.03,0,0,0,0,0,0-.03.05-.07.1-.1.15,0,0,0,0,0,0,0,.01-.02.02-.03.04h0c-.1.14-.19.28-.29.42,0,0,0,0,0,0,0,.01-.02.03-.03.04,0,0,0,0,0,0,0,.01-.02.02-.03.04,0,0,0,0,0,0l-.05.07s0,0,0,0c0,.01-.02.02-.02.03,0,0,0,0,0,0,0,.01-.01.02-.02.03,0,0,0,0,0,.01,0,0-.01.02-.02.03,0,0,0,0,0,.01,0,0-.01.02-.02.02,0,0,0,.01-.01.02,0,0,0,.01-.01.02l-.02.02s0,0,0,.01c0,.01-.02.02-.03.04h0c-.1.14-.2.29-.3.43l4.31,3.11c.62-.86,1.23-1.74,1.81-2.62l-4.44-2.92h0Zm2.45-4.04c-.14.24-.27.48-.41.72,0,0,0,0,0,0l-.02.04s0,0,0,0c0,.01-.02.03-.02.04,0,0,0,0,0,0,0,.01-.01.03-.02.04,0,0,0,0,0,0,0,.01-.01.02-.02.04,0,0,0,0,0,0,0,.01-.01.02-.02.03,0,0,0,0,0,0,0,.01-.01.02-.02.03,0,0,0,0,0,.01,0,0-.01.02-.02.03,0,0,0,0,0,.01,0,0-.01.02-.02.03,0,0,0,0,0,.01,0,0-.01.02-.01.02,0,0,0,0,0,.01,0,0-.01.02-.01.02,0,0,0,0,0,.01,0,0-.01.02-.02.03,0,0,0,.01,0,.02,0,0-.01.02-.01.03,0,0,0,.01-.01.02,0,0,0,.01-.01.02,0,0,0,.01-.01.02v.02s-.02.02-.02.03c0,0,0,.01,0,.02,0,0-.01.02-.01.03,0,0,0,0,0,.02,0,0-.01.02-.02.03,0,0,0,.01,0,.01,0,0,0,.01-.01.02h0s-.01.03-.02.04c0,0,0,0,0,.01,0,.01-.01.02-.02.03,0,0,0,0,0,.01,0,.01-.01.02-.02.03,0,0,0,0,0,0,0,.01-.01.02-.02.04,0,0,0,0,0,0-.01.02-.03.04-.04.06h0l-.02.04s0,0,0,0c0,.01-.01.02-.02.04h0s-.02.03-.02.04h0c-.04.07-.08.13-.12.2h0c-.12.19-.23.38-.35.57l4.52,2.8c.56-.9,1.1-1.82,1.62-2.74l-4.64-2.6h0Zm2.16-4.2s-.03.07-.05.1c0,0,0,0,0,0,0,0,0,.02-.01.03,0,0,0,.01,0,.02,0,0,0,0,0,.01,0,0-.01.02-.01.03,0,0,0,0,0,.01,0,.01-.01.02-.02.03,0,0,0,0,0,0-.38.8-.78,1.6-1.2,2.39l4.7,2.48c.49-.94.97-1.9,1.42-2.85l-4.81-2.27h0Zm1.86-4.34c-.06.17-.13.33-.19.5h0s-.01.03-.02.05c0,0,0,0,0,0,0,.01,0,.02-.01.03,0,0,0,.01,0,.01,0,0,0,.01,0,.02,0,0,0,.01,0,.02,0,0,0,.02-.01.03,0,0,0,.01,0,.02,0,0,0,.02,0,.02s0,.01,0,.02c0,0,0,.01,0,.02,0,0,0,.02-.01.03h0s0,.03-.01.04h0s0,.03-.01.04c0,0,0,0,0,0,0,.01-.01.02-.01.04,0,0,0,0,0,0,0,.01-.01.03-.02.04,0,0,0,0,0,0,0,.01-.01.03-.02.04,0,0,0,0,0,0,0,.01-.01.03-.02.04,0,0,0,0,0,0-.23.57-.47,1.14-.72,1.7l4.87,2.14c.43-.97.83-1.96,1.22-2.95l-4.96-1.92h0Zm1.55-4.46c-.23.76-.48,1.51-.74,2.26,0,0,0,0,0,0,0,0,0,.01,0,.02,0,0,0,0,0,0,0,0,0,.01,0,.02,0,0,0,0,0,0,0,0,0,.01,0,.02,0,0,0,0,0,0,0,.01,0,.03-.01.04,0,0,0,.01,0,.02,0,0,0,0,0,0v.02s0,0,0,0c0,0,0,.01,0,.02h0c-.04.12-.08.24-.13.36l5.01,1.79c.36-1,.69-2.01,1-3.03l-5.08-1.56h0Zm1.23-4.56s-.02.09-.03.13h0s0,.02,0,.02c0,0,0,0,0,.01,0,0,0,0,0,0,0,0,0,.01,0,.02h0s0,.02,0,.03h0c-.11.46-.22.91-.33,1.36h0s0,.02,0,.02c0,0,0,0,0,0v.02s0,0,0,0c0,0,0,0,0,.01,0,0,0,0,0,.01,0,0,0,0,0,.01,0,0,0,.01,0,.01,0,0,0,0,0,0,0,0,0,0,0,.02,0,0,0,0,0,0-.1.39-.2.77-.31,1.15l5.12,1.43c.28-1.02.55-2.06.79-3.09l-5.18-1.2h0Zm.9-4.64c-.15.98-.33,1.94-.52,2.91l5.21,1.06c.21-1.04.4-2.09.57-3.14l-5.25-.83h0Zm.57-4.69c-.09.98-.19,1.96-.32,2.93l5.27.69c.14-1.05.25-2.11.34-3.17l-5.29-.46h0Zm.24-4.72c-.01.61-.03,1.22-.06,1.83h0s0,.02,0,.03h0s0,.02,0,.03h0s0,.02,0,.03h0s0,.04,0,.05c0,0,0,0,0,0,0,0,0,.01,0,.02,0,0,0,0,0,0v.02s0,0,0,0c0,0,0,.01,0,.02,0,0,0,0,0,.01,0,0,0,.01,0,.01,0,0,0,0,0,.01,0,0,0,0,0,.01,0,0,0,.02,0,.03,0,0,0,0,0,.01,0,0,0,0,0,.01,0,0,0,0,0,0,0,0,0,.01,0,.02,0,0,0,0,0,0,0,0,0,.01,0,.02,0,0,0,0,0,0,0,0,0,.01,0,.02h0c-.01.25-.03.49-.04.74l5.3.32c.06-1.05.1-2.12.12-3.18l-5.31-.09h0Zm5.22-5l-5.31.28c.05.98.08,1.96.09,2.95l5.31-.05c0-1.06-.04-2.13-.1-3.18h0Zm-.45-5.08l-5.27.65c.12.97.22,1.94.3,2.92h0s0,0,0,.01l5.3-.42c-.08-1.05-.19-2.12-.32-3.17h0Zm-.8-5.03l-5.22,1.02s0,0,0,0c0,0,0,0,0,.01,0,0,0,0,0,.01,0,0,0,0,0,0,0,0,0,.01,0,.02,0,0,0,0,0,0,0,0,0,.02,0,.02h0s0,.02,0,.02c0,0,0,0,0,0,0,0,0,.01,0,.02,0,0,0,0,0,0,0,0,0,.01,0,.02h0s0,.02,0,.03h0s0,.02,0,.03h0s.01.07.02.1h0s0,.02,0,.03h0s0,.02,0,.02h0s.02.09.02.13h0s0,.02,0,.02h0s0,.02,0,.03h0s0,.02,0,.02h0s0,.02,0,.03h0s0,.05.01.08c0,0,0,0,0,0,0,0,0,.01,0,.02,0,0,0,0,0,0,0,0,0,.01,0,.02,0,0,0,0,0,0,0,0,0,.01,0,.02,0,0,0,0,0,0,0,0,0,.01,0,.02,0,0,0,0,0,0,0,0,0,.01,0,.02,0,0,0,0,0,0v.02s0,.01,0,.02c0,0,0,0,0,.01,0,0,0,.01,0,.01,0,0,0,0,0,0,0,0,0,0,0,.02,0,0,0,0,0,0,0,0,0,.01,0,.02h0s0,.02,0,.02h0c.12.65.23,1.31.32,1.96l5.26-.79c-.16-1.05-.34-2.1-.54-3.14h0Zm-1.16-4.97l-5.13,1.39s0,0,0,0h0s0,.02,0,.02h0s0,.02,0,.02c0,0,0,0,0,0,0,0,0,.01,0,.02,0,0,0,0,0,0,0,0,0,0,0,.01s0,0,0,.01c0,0,0,0,0,0,.24.91.47,1.83.68,2.75l5.19-1.16c-.23-1.03-.49-2.07-.76-3.1h0Zm-1.51-4.87l-5.02,1.75s0,0,0,0c0,0,0,0,0,.02h0s.01.04.02.06c0,0,0,0,0,0,0,0,0,0,0,.01,0,0,0,0,0,.01,0,0,0,0,0,.01,0,0,0,0,0,.01,0,0,0,0,0,.01,0,0,0,0,0,.01,0,0,0,0,0,.01,0,0,0,0,0,.01,0,0,0,0,0,.01,0,0,0,0,0,.01,0,0,0,0,0,.01s0,0,0,.01c0,0,0,0,0,.01,0,.02.01.03.02.05h0s0,.02,0,.02h0s0,.02,0,.02h0s0,.02,0,.02h0s0,.02,0,.02h0s0,.02,0,.03h0c.02.06.04.11.06.17h0c.25.74.49,1.48.71,2.23l5.09-1.53c-.3-1.01-.63-2.03-.98-3.03h0Zm-1.85-4.75l-4.88,2.1c.1.23.19.45.29.68,0,0,0,0,0,0,0,.01.01.03.02.04h0s.01.03.02.04c0,0,0,0,0,0,0,.01,0,.02.01.04,0,0,0,0,0,0,0,.01,0,.02.01.03,0,0,0,0,0,.01,0,0,0,.02.01.03,0,0,0,0,0,.01,0,0,0,.02.01.03,0,0,0,.01,0,.02,0,0,0,.01,0,.02,0,0,0,.02.01.03,0,0,0,.01,0,.02,0,.01,0,.02.01.03,0,0,0,0,0,.01,0,.01.01.03.02.04,0,0,0,0,0,0,.21.51.41,1.03.61,1.54h0s0,.02,0,.02c0,0,0,.01,0,.01,0,0,0,.02.01.03,0,0,0,.01,0,.02,0,0,0,0,0,.01l4.97-1.88c-.37-.99-.78-1.98-1.2-2.96h0Zm-2.18-4.61l-4.72,2.44s0,0,0,.01c0,0,0,.01.01.02,0,0,0,.01,0,.02,0,0,0,.01,0,.02,0,0,0,.02.01.03,0,0,0,0,0,0,0,.01.01.03.02.04h0s.01.03.02.05h0c.22.42.43.84.64,1.27h0s.01.03.02.04c0,0,0,0,0,0,0,.01.01.02.02.03,0,0,0,0,0,.01,0,0,0,.02.01.03,0,0,0,.01,0,.02,0,0,0,.01,0,.02,0,0,0,.02.01.03,0,0,0,.01,0,.02,0,0,0,.02.01.03,0,0,0,0,0,.01,0,0,0,.02.01.03,0,0,0,0,0,.01,0,0,0,.02.01.03,0,0,0,0,0,0,0,.01.01.02.02.03,0,0,0,0,0,0,0,.01.01.02.02.03,0,0,0,0,0,0,0,.01.01.02.02.04,0,0,0,0,0,0,0,.01.01.03.02.04,0,0,0,0,0,0,.11.24.22.47.33.71l4.82-2.23c-.44-.96-.92-1.92-1.4-2.86h0Zm-2.5-4.44l-4.54,2.77c.31.51.62,1.03.92,1.55h0s.02.03.02.04c0,0,0,0,0,0,0,.01.01.03.02.04,0,0,0,0,0,0,0,.01.01.02.02.03,0,0,0,0,0,0,0,.01.01.02.02.03,0,0,0,0,0,.01,0,.01.01.02.02.03,0,0,0,0,0,.01,0,0,.01.02.02.03,0,0,0,0,0,.01,0,0,0,.01.01.02,0,0,0,.02.01.02,0,0,0,.01,0,.02l.02.03s0,0,0,.01c.12.22.25.44.37.66l4.65-2.57c-.51-.93-1.05-1.85-1.6-2.76h0Zm-2.81-4.25l-4.33,3.08c.05.08.11.15.16.23t0,0s.02.02.02.03c0,0,0,0,0,0,0,.01.01.02.02.03,0,0,0,0,0,0,0,0,.01.02.02.03,0,0,0,0,0,.01,0,0,.01.02.02.02,0,0,0,.01.01.02,0,0,0,.01.01.02,0,0,.01.02.02.03,0,0,0,0,0,.01,0,.01.02.02.02.04,0,0,0,0,0,0,.18.26.36.52.54.79,0,0,0,0,0,0,0,.01.02.02.02.03,0,0,0,0,0,0,0,0,.01.02.02.03,0,0,0,0,0,.01,0,0,.01.02.02.02,0,0,0,.01.01.02,0,0,0,.01.01.02,0,0,.01.02.02.02,0,0,0,.01.01.02,0,0,0,.01.01.02,0,0,0,.01.01.02,0,0,0,.01.01.02,0,0,0,.01.01.02,0,0,0,.01.01.02,0,0,0,0,0,.01,0,.01.01.02.02.03,0,0,0,0,0,.01,0,0,.01.02.02.03,0,0,0,0,0,0,0,.01.01.02.02.03,0,0,0,0,0,0,0,.01.02.02.02.03,0,0,0,0,0,0,.02.02.03.05.05.07h0s.02.03.02.04h0s.02.03.02.04h0c.13.19.25.39.38.58l4.46-2.89c-.57-.89-1.18-1.77-1.79-2.64h0Zm-3.1-4.05l-4.1,3.38s.03.04.05.06h0s.07.09.11.13c0,0,0,0,0,0,0,.01.02.02.03.03,0,0,0,0,0,0,0,.01.02.02.03.03,0,0,0,0,0,0,0,.01.02.02.03.03,0,0,0,0,0,0,.02.02.03.04.05.06,0,0,0,0,0,0,0,.01.02.02.03.03,0,0,0,0,0,0,0,.01.02.02.03.03,0,0,0,0,0,0,0,.01.02.02.03.03h0s.02.03.03.04h0c.48.59.94,1.19,1.4,1.8l4.25-3.19c-.64-.84-1.3-1.69-1.97-2.5h0Zm-3.37-3.82l-3.86,3.66c.1.11.21.22.32.34h0s.02.02.03.03h0s.06.07.09.1h0s.02.02.03.03c0,0,0,0,0,0,.01.01.02.02.03.03,0,0,0,0,0,0,0,0,.02.02.03.03,0,0,0,0,0,0,0,0,.02.02.03.03,0,0,0,0,0,0,0,0,.02.02.03.03,0,0,0,0,0,0,0,0,.02.02.02.03,0,0,0,0,0,0,0,0,.02.02.02.03h0s.02.03.02.03c0,0,0,0,0,0,0,0,.02.02.02.03,0,0,0,0,0,0,0,0,.02.02.02.02,0,0,0,0,.01.01,0,0,.01.01.02.02,0,0,0,0,.01.01,0,0,.01.01.02.02,0,0,0,0,.01.01,0,0,.01.01.02.02,0,0,0,0,.01.01,0,0,.01.02.02.02,0,0,0,0,.01.01,0,0,.02.02.02.02,0,0,0,0,.01.01,0,0,.01.01.02.02h.01s.01.03.02.03c0,0,.01.01.02.02,0,0,0,0,.01.02,0,0,.01.01.02.02,0,0,0,.01.01.02,0,0,.01.01.02.02,0,0,.01.01.02.02,0,0,0,0,.01.01,0,0,.01.02.02.02,0,0,0,0,.01.01,0,0,.01.01.02.02,0,0,0,.01.01.02,0,0,0,.01.01.02,0,0,.01.01.02.02,0,0,0,0,.01.01,0,0,.01.01.02.02,0,0,.01.01.02.02,0,0,0,0,.01.01,0,0,.01.02.02.02,0,0,0,0,.01.01,0,0,.01.02.02.02,0,0,0,0,.01.01,0,0,.01.02.02.02,0,0,0,0,0,.01,0,0,.01.01.02.02,0,0,0,0,0,0,0,0,.01.02.02.02h0s.02.03.02.04h0s.02.03.03.04c0,0,0,0,0,0,0,0,.02.02.03.03,0,0,0,0,0,0,0,.01.02.02.03.03,0,0,0,0,0,0,.16.18.32.37.49.55l4.01-3.48c-.69-.8-1.41-1.59-2.14-2.36h0Zm-3.63-3.57l-3.59,3.92h0s.07.06.1.09h0s.02.02.03.03c0,0,0,0,0,0,.01.01.02.02.03.03,0,0,0,0,0,0,.01.01.02.02.03.03,0,0,0,0,0,0,.02.02.04.04.07.06h0s.02.02.03.03c0,0,0,0,0,0,.01,0,.02.02.03.03,0,0,0,0,0,0,0,0,.02.02.03.03h0s.02.02.03.03c0,0,0,0,0,0,0,0,.02.02.03.03,0,0,0,0,0,0,0,0,.02.02.03.02,0,0,0,0,0,0,0,0,.02.02.03.02,0,0,0,0,0,0,0,0,.02.02.02.02,0,0,0,0,.01.01,0,0,.02.02.02.02,0,0,0,0,.01.01,0,0,.02.01.02.02,0,0,0,0,.01.01,0,0,.01.01.02.02,0,0,.01.01.02.02,0,0,0,0,.02.02,0,0,.01.01.02.02,0,0,0,0,.01.01,0,0,.01.01.02.02,0,0,.01,0,.02.01,0,0,.01.01.02.02,0,0,0,0,0,0,0,0,.02.02.03.03,0,0,0,0,0,0,.01,0,.02.02.03.03,0,0,0,0,0,0,.01.01.02.02.03.03h0s.02.03.03.04h0c.4.38.8.77,1.19,1.16h0s.02.02.03.03c0,0,0,0,0,0,0,0,0,0,.01.01l3.76-3.76c-.75-.75-1.52-1.49-2.3-2.2h0Zm-3.87-3.31l-3.31,4.16c.37.29.73.59,1.09.88h0s.02.02.04.03h0s.02.02.04.03h0s.02.02.04.03h0s.06.05.1.08h0s.02.02.04.03h0s.02.02.04.03h0c.3.25.6.51.89.76l3.49-4.01c-.8-.69-1.62-1.38-2.45-2.04h0Zm-4.1-3.03l-3.01,4.38s.09.06.13.09c0,0,0,0,0,0,0,0,.02.01.03.02,0,0,0,0,.01.01,0,0,.01,0,.01.01,0,0,.02.01.03.02h.01s.02.02.03.03c0,0,0,0,0,0,.01,0,.02.01.03.02,0,0,0,0,0,0,.01,0,.02.02.03.02h0c.39.27.78.55,1.16.83,0,0,0,0,0,0,.01,0,.02.02.03.03,0,0,0,0,0,0,.01,0,.02.02.03.02,0,0,0,0,0,0,.01,0,.02.01.03.02h0s.02.02.03.03c0,0,0,0,.01,0,0,0,.02.01.02.02,0,0,0,0,.01,0,0,0,.02.01.02.02,0,0,.01,0,.02.01,0,0,.01,0,.02.01,0,0,.01,0,.02.01,0,0,.02.01.02.01,0,0,.01,0,.02.01,0,0,0,0,.01,0,0,0,.02.01.03.02,0,0,0,0,0,0,.01,0,.02.02.03.02,0,0,0,0,0,0l.04.03h0c.15.11.31.23.46.34l3.2-4.24c-.84-.64-1.71-1.26-2.59-1.86h0Zm-4.3-2.74l-2.69,4.58s0,0,0,0c.01,0,.02.01.03.02,0,0,0,0,0,0,.01,0,.02.01.03.02,0,0,0,0,0,0,.01,0,.02.01.03.02,0,0,0,0,0,0,.01,0,.02.01.04.02,0,0,0,0,0,0,.01,0,.02.01.03.02,0,0,0,0,0,0,.01,0,.02.01.03.02,0,0,0,0,0,0,.01,0,.02.01.03.02,0,0,0,0,0,0,.01,0,.02.01.03.02,0,0,0,0,0,0,.01,0,.02.01.03.02,0,0,0,0,0,0,.01,0,.02.01.03.02,0,0,0,0,0,0,.01,0,.02.01.03.02h0s.02.02.03.02c0,0,0,0,0,0,.01,0,.02.01.03.02,0,0,0,0,0,0,.01,0,.02.01.04.02,0,0,0,0,0,0,.01,0,.02.01.03.02,0,0,0,0,0,0,.01,0,.02.01.03.02,0,0,0,0,0,0,.01,0,.02.01.03.02,0,0,0,0,0,0,.01,0,.02.01.03.02,0,0,0,0,0,0,.01,0,.02.01.03.02,0,0,0,0,0,0,.01,0,.02.01.03.02,0,0,0,0,0,0,.01,0,.02.01.03.02,0,0,0,0,0,0,.01,0,.02.01.03.02,0,0,0,0,0,0,.01,0,.02.01.03.02h0s.02.02.03.02c0,0,0,0,0,0,.01,0,.02.01.03.02,0,0,0,0,0,0,0,0,.02.01.03.02,0,0,0,0,0,0,0,0,.02.01.03.02,0,0,0,0,0,0,0,0,.02.01.03.02,0,0,0,0,.01,0,.01,0,.02.01.03.02,0,0,0,0,.01,0,0,0,.02.01.03.02,0,0,0,0,.01,0,.01,0,.02.01.03.02,0,0,0,0,.01,0,0,0,.02.01.02.01,0,0,.01,0,.01,0,0,0,.02,0,.02.01,0,0,0,0,.01,0,0,0,.02.01.03.02,0,0,0,0,.01,0,0,0,.02.01.03.02,0,0,0,0,.01,0,0,0,.02,0,.02.02,0,0,.01,0,.02,0,0,0,.01,0,.02.01,0,0,.01,0,.02.01,0,0,.01,0,.02.01,0,0,.01,0,.02.01,0,0,.01,0,.02.01,0,0,.01,0,.02,0,0,0,.02,0,.02.02,0,0,.01,0,.02.01,0,0,.02.01.02.01,0,0,.01,0,.02.01,0,0,0,0,.01,0,0,0,.02.01.03.02,0,0,0,0,.01,0,0,0,.02.01.03.02,0,0,0,0,.01,0,.01,0,.02.01.03.02,0,0,0,0,0,0,.01,0,.02.01.03.02,0,0,0,0,0,0,0,0,.01,0,.02.01,0,0,0,0,0,0,.01,0,.02.02.04.02,0,0,0,0,0,0,.01,0,.02.01.04.02,0,0,0,0,0,0,.01,0,.02.02.04.02,0,0,0,0,0,0,.19.12.37.24.56.36l2.89-4.46c-.89-.58-1.8-1.14-2.71-1.67h0Zm-4.48-2.43l-2.36,4.76c.26.13.52.26.78.4h0s.03.01.04.02c0,0,0,0,0,0,.01,0,.03.01.04.02,0,0,0,0,0,0,.03.01.05.03.08.04,0,0,0,0,0,0,.01,0,.03.01.04.02,0,0,0,0,0,0,.01,0,.02.01.04.02,0,0,0,0,0,0,.01,0,.02.01.04.02,0,0,0,0,0,0,.04.02.08.04.12.06,0,0,0,0,0,0,.01,0,.03.01.04.02,0,0,0,0,0,0,.01,0,.03.01.04.02,0,0,0,0,0,0,.01,0,.03.01.04.02,0,0,0,0,0,0,.05.03.11.06.16.09h0c.38.2.76.41,1.14.61l2.57-4.65c-.93-.51-1.88-1.01-2.82-1.48h0Zm-4.65-2.1l-2.02,4.92c.43.18.85.36,1.28.54,0,0,0,0,0,0,.01,0,.03.01.04.02,0,0,0,0,0,0,.01,0,.03.01.04.02,0,0,0,0,0,0,.01,0,.03.01.04.02,0,0,0,0,0,0,.01,0,.02.01.04.02,0,0,0,0,0,0,.01,0,.02.01.04.02,0,0,0,0,0,0,.01,0,.02.01.03.02,0,0,0,0,0,0,.01,0,.02,0,.03.01,0,0,0,0,0,0,0,0,.02.01.03.01,0,0,0,0,.01,0,0,0,.02,0,.03.01,0,0,0,0,.01,0,0,0,.02,0,.03.01,0,0,0,0,.01,0,0,0,.02,0,.03.01,0,0,0,0,.01,0,.01,0,.02,0,.03.01,0,0,0,0,.01,0,0,0,.02.01.03.01,0,0,0,0,.01,0,.01,0,.02,0,.03.01,0,0,0,0,.01,0,.01,0,.02,0,.03.01,0,0,0,0,0,0,.01,0,.02.01.03.02,0,0,0,0,0,0,.01,0,.02.01.03.02,0,0,0,0,0,0,.01,0,.02.01.04.02,0,0,0,0,0,0,.01,0,.03.01.04.02,0,0,0,0,0,0,.21.09.42.19.63.29l2.24-4.82c-.96-.45-1.94-.87-2.92-1.28h0Zm-4.78-1.77l-1.67,5.05s.01,0,.02,0h0s.03.01.04.01c0,0,0,0,0,0,0,0,.01,0,.02,0,0,0,.02,0,.03,0,0,0,.01,0,.02,0,0,0,.01,0,.02,0,0,0,.01,0,.02,0,0,0,.02,0,.02,0,0,0,.01,0,.02,0h.03s0,.01.01.01h.03s0,.01.01.02c.01,0,.02,0,.03.01,0,0,0,0,.01,0,.01,0,.02,0,.04.01,0,0,0,0,0,0,.01,0,.02,0,.04.01,0,0,0,0,0,0,.01,0,.03,0,.04.01,0,0,0,0,0,0,.01,0,.02,0,.04.01h0s.03.01.04.02c0,0,0,0,0,0,.01,0,.03,0,.04.01,0,0,0,0,0,0,.03,0,.05.02.08.03,0,0,0,0,0,0,.01,0,.02,0,.04.01h0s.03.01.04.02h0s.03.01.04.02c0,0,0,0,0,0,.01,0,.02,0,.04.01,0,0,0,0,0,0,.01,0,.03,0,.04.01,0,0,0,0,0,0,.01,0,.03,0,.04.01,0,0,0,0,0,0,.01,0,.02,0,.03.01h.01s.02.01.03.02c0,0,0,0,.01,0,.01,0,.02,0,.03.01,0,0,0,0,.01,0,.01,0,.02,0,.03,0,0,0,0,0,.01,0,.01,0,.02,0,.03.01,0,0,.01,0,.02,0,.01,0,.02,0,.03.01h.02s.02.01.02.01c0,0,.02,0,.02,0,0,0,.01,0,.02,0,.01,0,.02,0,.03.01,0,0,0,0,.01,0,.01,0,.02,0,.04.01,0,0,0,0,0,0,.02,0,.05.02.07.03h0s.03.01.04.02h0c.43.15.85.31,1.27.47l1.89-4.97c-.99-.38-2-.73-3-1.07h0Zm-4.9-1.43l-1.3,5.15c.23.06.46.12.69.18,0,0,0,0,0,0,0,0,.01,0,.02,0,0,0,0,0,0,0,0,0,.01,0,.02,0,0,0,0,0,0,0,0,0,0,0,.02,0,0,0,0,0,0,0,0,0,0,0,.01,0,0,0,0,0,.01,0,0,0,0,0,.01,0,0,0,.02,0,.02,0,0,0,0,0,0,0,0,0,.01,0,.02,0,0,0,0,0,0,0,0,0,.01,0,.02,0h0s.01,0,.02,0h0s.01,0,.02,0h0s.01,0,.02,0h0c.63.17,1.26.35,1.89.54l1.53-5.09c-1.01-.3-2.05-.59-3.07-.85h0Zm-4.98-1.08l-.94,5.23c.19.03.38.07.57.11,0,0,0,0,0,0,0,0,.01,0,.02,0,0,0,0,0,0,0,0,0,.01,0,.02,0,0,0,0,0,0,0,0,0,.01,0,.02,0,0,0,0,0,.01,0,0,0,0,0,.01,0,0,0,0,0,0,0,0,0,0,0,.01,0,0,0,.01,0,.02,0,0,0,0,0,.01,0,0,0,.01,0,.02,0,0,0,0,0,0,0,0,0,0,0,.02,0,0,0,0,0,0,0,0,0,.01,0,.02,0,0,0,0,0,0,0,0,0,.01,0,.02,0,0,0,0,0,0,0,0,0,.01,0,.02,0h0s.01,0,.02,0h0s.08.01.11.02c0,0,0,0,0,0,0,0,.01,0,.02,0,0,0,0,0,0,0,.32.06.65.13.97.2h0s.01,0,.02,0c0,0,0,0,0,0,.04,0,.09.02.13.03,0,0,0,0,0,0,0,0,.01,0,.02,0,0,0,0,0,0,0,0,0,.01,0,.02,0,0,0,0,0,0,0,0,0,.01,0,.02,0,0,0,0,0,0,0,0,0,.01,0,.02,0,0,0,0,0,0,0,.03,0,.06.01.09.02,0,0,0,0,0,0,0,0,.01,0,.02,0,0,0,0,0,0,0,0,0,.01,0,.02,0,0,0,0,0,0,0,0,0,.01,0,.02,0,0,0,0,0,0,0,0,0,.01,0,.02,0h0s.01,0,.02,0c0,0,0,0,0,0,.03,0,.06.01.08.02h0s0,0,.02,0c0,0,0,0,0,0,0,0,.01,0,.02,0,0,0,0,0,0,0,0,0,.01,0,.02,0,0,0,0,0,0,0,0,0,0,0,.02,0,0,0,0,0,0,0,0,0,.01,0,.01,0,0,0,0,0,0,0,.02,0,.04,0,.05.01h0s0,0,.01,0c0,0,0,0,.01,0,0,0,0,0,.01,0,0,0,0,0,0,0,0,0,.01,0,.01,0,0,0,0,0,0,0,0,0,.01,0,.01,0,0,0,0,0,0,0,0,0,0,0,.01,0h0s.01,0,.01,0c0,0,0,0,0,0,.01,0,.02,0,.04,0,0,0,0,0,0,0,0,0,0,0,.01,0,0,0,0,0,0,0l1.17-5.18c-1.03-.23-2.08-.44-3.12-.63h0Zm-5.05-.72l-.56,5.28c.23.02.47.05.7.08h0s.02,0,.02,0h0s.02,0,.02,0h0s.05,0,.08,0h0s.01,0,.02,0c0,0,0,0,0,0,0,0,.01,0,.02,0,0,0,0,0,0,0,0,0,.01,0,.02,0,0,0,0,0,.01,0,0,0,.01,0,.02,0,0,0,0,0,0,0,0,0,.01,0,.02,0,0,0,0,0,0,0,0,0,.02,0,.02,0,0,0,0,0,.01,0h.01s0,0,.01,0c0,0,0,0,.01,0,0,0,0,0,.01,0,0,0,0,0,.01,0,0,0,0,0,.01,0,0,0,0,0,.01,0,0,0,0,0,.01,0,0,0,0,0,.01,0,0,0,0,0,.01,0,0,0,0,0,.01,0,0,0,0,0,.01,0,0,0,0,0,0,0,.01,0,.02,0,.03,0,0,0,0,0,.01,0,0,0,0,0,.01,0,0,0,0,0,.01,0,0,0,0,0,.01,0,0,0,0,0,.01,0,0,0,0,0,.01,0,0,0,0,0,.01,0,0,0,0,0,.01,0,0,0,0,0,.01,0,0,0,0,0,.01,0,0,0,0,0,0,0,0,0,.02,0,.03,0,0,0,0,0,0,0,0,0,0,0,.01,0,0,0,.01,0,.01,0,0,0,0,0,.01,0,0,0,0,0,.01,0,0,0,0,0,.01,0,0,0,.01,0,.02,0,0,0,0,0,0,0,0,0,.01,0,.02,0,0,0,0,0,0,0,0,0,.01,0,.02,0,0,0,0,0,0,0,.02,0,.03,0,.05,0,0,0,0,0,0,0,0,0,.01,0,.02,0,0,0,0,0,0,0,0,0,.01,0,.02,0,0,0,0,0,0,0,0,0,.01,0,.02,0h0s.01,0,.02,0h0s.07,0,.1.01h0s.01,0,.02,0h0s.02,0,.02,0h0c.05,0,.1.01.16.02h0s.02,0,.02,0h0c.06,0,.12.02.18.03h0s.09.01.13.02h0s.02,0,.02,0h0s.01,0,.02,0h0s.01,0,.02,0h0s.05,0,.08.01c0,0,0,0,0,0,0,0,.01,0,.02,0,0,0,0,0,0,0,0,0,0,0,.01,0,0,0,0,0,.01,0,0,0,0,0,.01,0,0,0,0,0,.01,0,0,0,0,0,.01,0,0,0,.01,0,.01,0,0,0,0,0,0,0,.03,0,.06,0,.08.01h0c.09.01.18.03.27.04l.8-5.25c-1.04-.16-2.11-.3-3.16-.41h0Zm-5.08-.36l-.19,5.31c.27,0,.54.02.81.03h0s.01,0,.02,0c0,0,0,0,0,0,0,0,.01,0,.02,0h0s.06,0,.09,0c0,0,0,0,0,0,0,0,0,0,.02,0,0,0,0,0,0,0,0,0,0,0,.01,0,0,0,0,0,.01,0,0,0,0,0,.01,0,0,0,.01,0,.02,0,0,0,0,0,0,0,0,0,.01,0,.02,0h0s.05,0,.08,0h0s.02,0,.03,0h0c.59.03,1.19.07,1.78.12l.43-5.3c-1.05-.08-2.12-.15-3.18-.19h0Zm-2.69-.05v5.31h.08c.21,0,.43,0,.64,0l.06-5.31c-.26,0-.52,0-.78,0h0Z" style="fill: #41c2d9; stroke-width: 0px;"/>
        <circle cx="77.41" cy="72.33" r="67.02" style="fill: none; stroke: #fff; stroke-miterlimit: 10; stroke-width: 8.27px;"/>
        <circle cx="77.41" cy="72.33" r="67.02" style="fill: #23bdd9; opacity: .68; stroke-width: 0px;"/>
      </g>
      <g>
        <path d="m95.16,121.4c-2.28,0-3.46.91-4.5,1.72-.97.75-1.8,1.39-3.55,1.39s-2.58-.65-3.55-1.39c-1.04-.81-2.22-1.72-4.5-1.72s-3.46.91-4.5,1.72c-.97.75-1.8,1.39-3.55,1.39s-2.58-.65-3.55-1.39c-1.04-.81-2.22-1.72-4.5-1.72s-3.46.91-4.5,1.72c-.97.75-1.8,1.39-3.55,1.39v1.56c2.28,0,3.46-.91,4.5-1.72.97-.75,1.8-1.39,3.55-1.39s2.58.65,3.55,1.39c1.04.81,2.22,1.72,4.5,1.72s3.46-.91,4.5-1.72c.97-.75,1.8-1.39,3.55-1.39s2.58.65,3.55,1.39c1.04.81,2.22,1.72,4.5,1.72s3.46-.91,4.5-1.72c.97-.75,1.8-1.39,3.55-1.39s2.58.65,3.55,1.39c1.04.81,2.22,1.72,4.5,1.72v-1.56c-1.74,0-2.58-.65-3.55-1.39-1.04-.81-2.22-1.72-4.5-1.72h0Z" style="fill: #fff; stroke-width: 0px;"/>
        <path d="m95.16,118.28c-2.28,0-3.46.91-4.5,1.72-.97.75-1.8,1.39-3.55,1.39s-2.58-.65-3.55-1.39c-1.04-.81-2.22-1.72-4.5-1.72s-3.46.91-4.5,1.72c-.97.75-1.8,1.39-3.55,1.39s-2.58-.65-3.55-1.39c-1.04-.81-2.22-1.72-4.5-1.72s-3.46.91-4.5,1.72c-.97.75-1.8,1.39-3.55,1.39v1.56c2.28,0,3.46-.91,4.5-1.72.97-.75,1.8-1.39,3.55-1.39s2.58.65,3.55,1.39c1.04.81,2.22,1.72,4.5,1.72s3.46-.91,4.5-1.72c.97-.75,1.8-1.39,3.55-1.39s2.58.65,3.55,1.39c1.04.81,2.22,1.72,4.5,1.72s3.46-.91,4.5-1.72c.97-.75,1.8-1.39,3.55-1.39s2.58.65,3.55,1.39c1.04.81,2.22,1.72,4.5,1.72v-1.56c-1.74,0-2.58-.65-3.55-1.39-1.04-.81-2.22-1.72-4.5-1.72h0Z" style="fill: #fff; stroke-width: 0px;"/>
        <path d="m103.21,80.12c0-1.29-1.05-2.34-2.34-2.34s-2.34,1.05-2.34,2.34v.78h1.56v-.78c0-.43.35-.78.78-.78s.78.35.78.78c0,1.29-1.05,2.34-2.34,2.34h-14.8v1.56h14.8c2.15,0,3.89-1.75,3.89-3.89Z" style="fill: #fff; stroke-width: 0px;"/>
        <path d="m86.07,85.57h4.67v1.56h-4.67v-1.56Z" style="fill: #fff; stroke-width: 0px;"/>
        <path d="m92.3,85.57h1.56v1.56h-1.56v-1.56Z" style="fill: #fff; stroke-width: 0px;"/>
        <path d="m70.49,87.19v-7.07c0-.43-.35-.78-.78-.78s-.78.35-.78.78v7.07c.26-.04.51-.06.78-.06s.52.03.78.06Z" style="fill: #fff; stroke-width: 0px;"/>
        <path d="m64.66,94.6l-6.12,3.54c-.35.2-.47.64-.31,1,.03.04.05.09.08.13.23.31.66.42,1.01.22l6.12-3.54c-.32-.41-.59-.86-.78-1.35Z" style="fill: #fff; stroke-width: 0px;"/>
        <path d="m81.13,99.27s.05-.08.08-.13c.17-.36.04-.8-.31-1l-6.12-3.54c-.2.49-.46.94-.78,1.35l6.12,3.54c.35.2.78.09,1.01-.22h0Z" style="fill: #fff; stroke-width: 0px;"/>
        <path d="m69.72,96.48c2.15,0,3.89-1.75,3.89-3.89s-1.75-3.89-3.89-3.89-3.89,1.75-3.89,3.89,1.75,3.89,3.89,3.89Zm0-5.45c.86,0,1.56.7,1.56,1.56s-.7,1.56-1.56,1.56-1.56-.7-1.56-1.56.7-1.56,1.56-1.56Z" style="fill: #fff; stroke-width: 0px;"/>
        <path d="m72.05,87.66c1.84.88,3.12,2.75,3.12,4.92,0,.15-.01.29-.02.44l6.53,3.77c.17.1.32.22.45.35.52-1.42.83-2.96.83-4.56,0-6.53-4.76-11.96-10.98-13.03.05.18.08.37.08.57v7.54Z" style="fill: #fff; stroke-width: 0px;"/>
        <path d="m69.72,105.82c4.08,0,7.73-1.86,10.16-4.76-.18-.05-.36-.12-.54-.22l-6.53-3.77c-.88.61-1.94.97-3.09.97s-2.21-.36-3.09-.97l-6.53,3.77c-.17.1-.35.17-.54.22,2.43,2.91,6.08,4.76,10.16,4.76h0Z" style="fill: #fff; stroke-width: 0px;"/>
        <path d="m98.53,94.92v-3.89c0-.43-.35-.78-.78-.78h-10.13v4.67h1.56v-3.12h1.56v3.12h1.56v-3.12h1.56v3.12h1.56v-3.12h1.56v3.12h1.56Z" style="fill: #fff; stroke-width: 0px;"/>
        <path d="m57.76,96.79l6.53-3.77c-.01-.14-.02-.29-.02-.44,0-2.17,1.28-4.04,3.12-4.92v-7.54c0-.2.03-.39.08-.57-6.23,1.08-10.98,6.5-10.98,13.03,0,1.6.3,3.14.83,4.56.14-.13.28-.25.45-.35h0Z" style="fill: #fff; stroke-width: 0px;"/>
        <path d="m89.71,118.77c.66-.51,1.47-1.13,2.59-1.55v-16.07h-4.67v18.66c.86-.1,1.33-.46,2.08-1.04Z" style="fill: #fff; stroke-width: 0px;"/>
        <path d="m100.09,91.8v6.23h.78c.43,0,.78-.35.78-.78v-4.67c0-.43-.35-.78-.78-.78h-.78Z" style="fill: #fff; stroke-width: 0px;"/>
        <path d="m82.74,99.59h15.01c.43,0,.78-.35.78-.78v-2.34h-12.46v-6.23h-1.76c.12.76.2,1.54.2,2.34,0,2.54-.64,4.92-1.77,7.01Z" style="fill: #fff; stroke-width: 0px;"/>
        <path d="m72.05,117.51c0,.43-.35.78-.78.78s-.78-.35-.78-.78v-.78h-1.56v.78c0,1.29,1.05,2.34,2.34,2.34s2.34-1.05,2.34-2.34c0-2.15-1.75-3.89-3.89-3.89h-14.8v1.56h14.8c1.29,0,2.34,1.05,2.34,2.34Z" style="fill: #fff; stroke-width: 0px;"/>
        <path d="m82.96,108.16c0-1.29-1.05-2.34-2.34-2.34s-2.34,1.05-2.34,2.34v.78h1.56v-.78c0-.43.35-.78.78-.78s.78.35.78.78c0,1.29-1.05,2.34-2.34,2.34h-24.14v1.56h24.14c2.15,0,3.89-1.75,3.89-3.89Z" style="fill: #fff; stroke-width: 0px;"/>
      </g>
      <g>
        <g>
          <path d="m44.22,33.17c-.08,6.45-.1,12.53.66,12.53.15,0,.25-.98.28-2.3.31.54.72,1.18,1.07,1.56-.18,1.94-.52,2.87-1.54,2.87-2.38,0-2.38-5.86-2.38-12.84h-8.04v3.89c0,2.72-.26,6.59-2.07,9.01-.34-.33-1.15-.87-1.59-1.05,1.66-2.21,1.8-5.49,1.8-7.96v-5.71h11.81Zm-2.99,9.97c.67,1.13,1.31,2.64,1.53,3.64l-1.59.52c-.07-.31-.16-.71-.28-1.12-2.41.21-4.87.41-6.68.56l-.13-1.75c.9-.03,2.03-.1,3.28-.18v-1.71h-2.54v-4.76h2.54v-1.1h-2.61v-1.54h6.97v1.54h-2.67v1.1h2.66v4.76h-2.66v1.61l1.21-.08c-.16-.36-.34-.71-.52-1.02l1.49-.48Zm-3.87-1.51v-1.8h-1.07v1.8h1.07Zm1.69-1.8v1.8h1.07v-1.8h-1.07Z" style="fill: #fff; stroke-width: 0px;"/>
          <path d="m51.1,41.79c-.13-.41-.39-1-.67-1.59v7.61h-1.67v-6.3c-.33,1.13-.72,2.18-1.12,2.9-.15-.54-.51-1.43-.77-1.92.77-1.16,1.43-3.28,1.79-5.13h-1.35v-1.8h1.44v-3.05h1.67v3.05h1.12v1.8h-1.12v.72c.36.49,1.3,2.02,1.53,2.41l-.85,1.3Zm10.37,1.13c-.46.9-1.07,1.71-1.79,2.41.3.34.64.54,1.02.59.31.03.51-.56.62-1.71.28.38.92.85,1.23,1.03-.43,2.03-1.08,2.61-1.79,2.56-.97-.08-1.77-.57-2.41-1.39-.77.54-1.66,1-2.59,1.36-.21-.34-.67-.94-1-1.25,1.05-.36,2-.87,2.82-1.48-.34-.75-.61-1.62-.84-2.62h-2.23c-.02.11-.02.25-.03.36.67.54,1.61,1.3,2.08,1.76l-1.18,1.16c-.28-.33-.75-.75-1.23-1.2-.36,1.18-1.03,2.36-2.23,3.3-.25-.31-.94-.92-1.3-1.12,1.74-1.28,2.18-2.95,2.23-4.27h-.97v-1.49h4.58c-.28-1.67-.44-3.61-.56-5.74-.64,1.2-1.44,2.44-2.23,3.41l.92-.1c-.07-.26-.15-.52-.21-.74l1.13-.3c.28.75.54,1.76.64,2.36l-1.2.36c-.02-.16-.05-.34-.1-.56-1.97.28-2.35.39-2.58.51-.07-.26-.3-.97-.44-1.33.26-.07.52-.33.8-.74.15-.18.44-.61.79-1.18-.87.11-1.15.2-1.31.28-.08-.29-.3-.95-.46-1.31.2-.07.41-.26.59-.59.18-.29.79-1.48,1.08-2.62l1.41.38c-.38.94-.9,1.94-1.41,2.72l.74-.05c.16-.34.33-.69.46-1.02l1.36.44c-.03-.79-.07-1.64-.1-2.49h1.61c.07,3.21.28,6.07.69,8.3h1.51c-.28-.25-.59-.49-.85-.71l.74-.61c-.77.13-1.02.21-1.16.29-.07-.28-.3-.98-.44-1.34.26-.08.51-.34.8-.75.15-.16.44-.61.75-1.16-.85.11-1.12.2-1.28.28-.08-.29-.31-.93-.46-1.31.2-.05.38-.26.56-.56.15-.28.71-1.39.98-2.48l1.39.38c-.33.89-.8,1.79-1.28,2.53l.74-.05c.15-.33.3-.69.43-1.02l1.41.46c-.61,1.23-1.41,2.49-2.2,3.48l.92-.11c-.08-.23-.15-.48-.23-.67l1.12-.31c.3.75.62,1.79.75,2.38l-1.16.39c-.03-.18-.08-.41-.15-.66-.41.07-.75.11-1.03.16.44.33.97.72,1.25,1l-.43.39h1.31v1.49h-1.9l1.3.49Zm-3.07-.49c.13.54.28,1,.44,1.43.38-.44.71-.92.97-1.43h-1.41Z" style="fill: #fff; stroke-width: 0px;"/>
          <path d="m78.54,44.16c-.64.33-1.28.66-1.89.92.66.48,1.41.85,2.3,1.08-.39.36-.92,1.02-1.15,1.49-2.2-.74-3.61-2.26-4.46-4.36-.48.41-1,.77-1.59,1.12v1.41l2.31-.44c-.05.43-.07,1.07-.03,1.43-3.02.66-3.56.8-3.87,1-.08-.38-.39-1-.62-1.31.3-.13.66-.46.66-1.12v-.15c-.46.2-.9.34-1.34.49-.18-.28-.48-.64-.75-.95l.02.11c-1.51.44-3.12.85-4.45,1.21l-.33-1.77c.48-.1,1-.23,1.61-.38v-4.04h-1.28v-1.69h1.28v-3.05h-1.39v-1.71h4.45v1.71h-1.34v3.05h1.2v1.69h-1.2v3.62l1.23-.33.15,1.12c1.16-.31,2.38-.77,3.36-1.33h-1.89v-3.59h8.17v3.59h-2.74c.18.41.43.79.71,1.12.59-.34,1.21-.77,1.62-1.1l1.28,1.15Zm.05-5.33h-10.04v-1.54h10.04v1.54Zm-.52-2.07h-8.92v-3.72h8.92v3.72Zm-6.32-2.41h-1.03v1.1h1.03v-1.1Zm-.52,7.32h4.61v-.92h-4.61v.92Zm2.84-7.32h-1.03v1.1h1.03v-1.1Zm2.35,0h-1.08v1.1h1.08v-1.1Z" style="fill: #fff; stroke-width: 0px;"/>
          <path d="m86.17,36.76h-6.13v-1.54h2.62c-.23-.62-.64-1.44-.98-2.07l1.39-.71c.41.67.89,1.57,1.13,2.18l-1.02.59h2.99v1.54Zm-5.48,2.21v-1.48h4.79v1.48h-4.79Zm4.81,2.2h-4.81v-1.48h4.81v1.48Zm.02,5.76h-3.28v.69h-1.53v-5.66h4.81v4.97Zm-3.28-3.41v1.84h1.74v-1.84h-1.74Zm13.02-1.26h-3.61v5.58h-1.92v-5.58h-3.61v-1.85h3.61v-5.27h-3.05v-1.82h8.28v1.82h-3.31v5.27h3.61v1.85Zm-6.89-6.43c.38,1.2.69,2.74.75,3.76l-1.64.39c-.03-1.03-.33-2.61-.66-3.82l1.54-.33Zm3.77,3.76c.34-1.07.72-2.72.89-3.9l1.85.38c-.41,1.38-.87,2.9-1.25,3.89l-1.49-.36Z" style="fill: #fff; stroke-width: 0px;"/>
          <path d="m111.44,45.7v1.67h-14.93v-1.67h1.74v-3.72h11.5v3.72h1.69Zm-7.14-4.58h-7.41v-8.05h7.3v1.48h-2.59v.82h2.21v1.92c.98-1.15,1.67-2.94,2.05-4.76l1.69.34c-.15.69-.34,1.36-.57,2h4.31v1.64h-4.99c-.34.72-.74,1.36-1.15,1.89-.28-.26-.93-.75-1.34-1v1.36h-2.21v.9h2.71v1.46Zm-5.64-6.58v.82h1.38v-.82h-1.38Zm3.54,2.07h-3.54v.89h3.54v-.89Zm-3.54,3.05h1.38v-.9h-1.38v.9Zm1.38,6.04h1.41v-2.21h-1.41v2.21Zm3.18-2.21v2.21h1.43v-2.21h-1.43Zm2.05-2.87v-1.62h5.61v1.62h-5.61Zm1.15,2.87v2.21h1.43v-2.21h-1.43Z" style="fill: #fff; stroke-width: 0px;"/>
          <path d="m115.25,40c-.54-.51-1.66-1.16-2.56-1.57l1.07-1.43c.9.34,2.07.92,2.62,1.43l-1.13,1.57Zm1.41,2.4c-.54,1.76-1.26,3.64-1.94,5.25l-1.76-1c.61-1.26,1.48-3.35,2.12-5.27l1.57,1.02Zm-.8-6.66c-.52-.52-1.64-1.25-2.54-1.66l1.1-1.44c.89.38,2.03,1.03,2.59,1.53l-1.15,1.57Zm3.61,8.73c-.54,1.25-1.43,2.59-2.21,3.41-.36-.29-1.1-.77-1.53-1,.77-.74,1.53-1.84,1.97-2.9l1.77.49Zm2.72-.62h-4.95v-10.69h4.95v10.69Zm-1.71-9.01h-1.61v1.38h1.61v-1.38Zm0,2.94h-1.61v1.39h1.61v-1.39Zm0,2.97h-1.61v1.41h1.61v-1.41Zm.98,3.1c.61.75,1.38,1.82,1.72,2.51l-1.54.92c-.31-.69-1.05-1.79-1.66-2.61l1.48-.82Zm3.23-.2h-1.69v-9.48h1.69v9.48Zm2.79-11.12v13.11c0,1-.18,1.53-.75,1.8-.57.31-1.43.38-2.71.38-.07-.51-.31-1.33-.56-1.87.84.03,1.62.03,1.89.03.28-.02.36-.1.36-.34v-13.11h1.77Z" style="fill: #fff; stroke-width: 0px;"/>
          <path d="m28.72,56.61c-.72,4.43-2.49,7.74-4.79,9.46-.33-.46-1.1-1.23-1.57-1.51,1.89-1.28,3.3-3.53,4.02-6.4h-3.43v-1.97h4.13l.36-.07,1.28.48Zm8.15-.28c-1.21,1.21-2.64,2.58-3.81,3.51,1.25,1.89,2.92,3.43,4.99,4.33-.48.43-1.13,1.25-1.46,1.82-2.31-1.23-4.05-3.23-5.33-5.68v4.71c0,1.13-.21,1.71-.87,2.07-.64.34-1.62.44-2.95.44-.08-.61-.43-1.59-.72-2.18.9.03,1.77.03,2.08.03.28,0,.38-.1.38-.38v-12.81h2.08v4c.26.74.56,1.43.9,2.12,1.03-.98,2.17-2.23,2.9-3.25l1.8,1.26Z" style="fill: #fff; stroke-width: 0px;"/>
          <path d="m47.29,55.36v2.58l.33-.38c1.77.89,4.35,2.3,5.59,3.31l-1.44,1.79c-.95-.84-2.82-2.03-4.48-2.99v7.79h-2.1v-12.11h-5.92v-1.97h14.62v1.97h-6.59Z" style="fill: #fff; stroke-width: 0px;"/>
          <path d="m57.38,63.5v1.31h-1.54v-11.22h4.22v9.91h-2.67Zm0-8.02v6.15h1.13v-6.15h-1.13Zm6.81,8.87c-.87,1-2.13,2.1-3.15,2.81-.3-.34-.94-.97-1.33-1.25,1-.56,2.1-1.39,2.79-2.18l1.69.62Zm6.27-.74h-4.12v3.94h-1.85v-3.94h-3.95v-1.57h3.95v-1h-3.74v-3.85h4.33v3.81h.64v-3.81h4.48v3.85h-3.85v1h4.13l-.02,1.57Zm-6.91-5.12h-1.36v1.21h1.36v-1.21Zm5.08-1.89h-6.41v-3.81h6.41v3.81Zm-1.77-2.44h-2.99v1.08h2.99v-1.08Zm.92,9.45c1.02.59,2.39,1.49,3.05,2.15l-1.16,1.31c-.61-.67-1.94-1.64-2.97-2.31l1.08-1.15Zm-.57-3.9h1.43v-1.21h-1.43v1.21Z" style="fill: #fff; stroke-width: 0px;"/>
          <path d="m86.74,57.26v1.74h-14.71v-1.74h3.59c-.15-.56-.39-1.2-.66-1.71l1.59-.31h-3.61v-1.72h5.53c-.13-.41-.33-.84-.51-1.18l2.03-.33c.28.44.52,1.02.69,1.51h5.28v1.72h-3.4l1.51.33c-.28.61-.56,1.18-.82,1.69h3.48Zm-12.68,2.74h10.81v7.53h-2.05v-.56h-6.79v.57h-1.97v-7.55Zm1.97,1.62v1.08h6.79v-1.08h-6.79Zm6.79,3.74v-1.18h-6.79v1.18h6.79Zm-5.91-10.12c.39.62.72,1.43.84,2.02h3.38c.26-.61.56-1.38.74-2.02h-4.95Z" style="fill: #fff; stroke-width: 0px;"/>
          <path d="m102.7,58c-.64,2.54-1.74,4.51-3.22,6.04,1.15.75,2.48,1.31,4.02,1.67-.46.44-1.05,1.3-1.36,1.85-1.67-.49-3.08-1.18-4.28-2.13-1.39,1.03-3.05,1.76-4.87,2.3-.23-.56-.72-1.38-1.13-1.82,1.66-.39,3.18-1.03,4.48-1.94-1.12-1.28-1.97-2.84-2.66-4.64h-.25c-.38,2.67-1.38,5.66-4,7.94-.28-.51-.98-1.31-1.41-1.69,3.25-2.77,3.58-6.91,3.58-9.56v-1.25h-2.59v-1.9h10.37c-.26,1.51-.61,3.25-.94,4.61h2.48l.36-.08,1.43.61Zm-9.05-1.97c0,.46-.02.94-.03,1.44h2.64c.23-.82.46-1.77.67-2.71h-3.28v1.26Zm1.95,3.3c.54,1.28,1.3,2.43,2.26,3.38.93-.94,1.67-2.07,2.18-3.38h-4.45Z" style="fill: #fff; stroke-width: 0px;"/>
          <path d="m119.6,65.14v1.92h-14.75v-1.92h6.33v-3.3h-4.45v-1.89h4.45v-2.89h-3.4c-.48.9-.98,1.74-1.53,2.38-.39-.31-1.26-.9-1.76-1.17,1.28-1.38,2.35-3.64,2.9-5.87l2.02.44c-.23.79-.49,1.56-.77,2.31h2.53v-2.95h2.05v2.95h5.53v1.9h-5.53v2.89h4.9v1.89h-4.9v3.3h6.36Z" style="fill: #fff; stroke-width: 0px;"/>
          <path d="m121.07,66.23c.52-.79,1.02-1.97,1.26-2.99l1.67.66c-.3,1.05-.71,2.36-1.23,3.18l-1.71-.85Zm6.59-9.91c-.11-.23-.28-.51-.46-.8-4.49.43-5.15.52-5.56.72-.1-.36-.36-1.13-.54-1.54.28-.07.57-.23.89-.49.31-.23,1.33-1.1,1.97-2.05l1.72.52c-.52.64-1.16,1.25-1.8,1.79l2.48-.2c-.21-.28-.43-.56-.64-.8l1.31-.66c.74.84,1.62,2,2.03,2.76l-1.39.75Zm-4.15,4.61c-.16.82-.48,1.61-1.02,2.21-.28-.28-1.02-.8-1.38-.98.87-.97.94-2.23.94-3.28v-2.48h6.04v5.13c0,.71-.15,1.02-.62,1.25-.46.21-1.12.21-1.98.21-.08-.39-.31-.92-.49-1.26.51.03,1.03.03,1.18.02.18-.02.23-.07.23-.21v-.82c-.87.39-1.74.77-2.53,1.12l-.36-.9Zm.16-2.02c0,.48-.02.98-.08,1.51.59-.16,1.3-.38,2.07-.61-.48-.28-1.31-.67-1.98-.98v.08Zm0-1.17v.89l.59-.72c.67.26,1.62.66,2.13.92v-1.08h-2.72Zm6.61,7.94c.72,0,.85-.23.94-1.66.39.28,1.16.52,1.66.62-.21,2.07-.72,2.58-2.43,2.58h-3.05c-2.18,0-2.76-.48-2.76-2.02v-1.67h1.9v1.64c0,.44.16.51,1.03.51h2.71Zm-3.89-6.1v-.72l-.66.92.66-.2Zm2.39,2.85c.51.57,1.21,1.36,1.56,1.87l-1.41.97c-.33-.52-.98-1.39-1.49-2l1.34-.84Zm2.77-5.05c-1.8,0-2.26-.62-2.26-2.23v-2.85l1.8.02v.97h3.89v1.44h-3.89v.48c0,.46.07.64.52.64h2.31c.44,0,1.15-.05,1.48-.13.03.48.08,1.13.16,1.54-.33.1-.98.13-1.57.13h-2.44Zm.05,5.56c-1.87,0-2.31-.48-2.31-2.07v-3.23h1.79v1.05h3.95v1.43h-3.95v.75c0,.46.13.51.75.51h1.89c.46,0,.57-.11.64-.82.36.23,1.1.49,1.57.59-.2,1.39-.71,1.79-2.02,1.79h-2.31Zm3.05.26c.44.94.98,2.18,1.23,2.95l-1.79.56c-.21-.77-.69-2.07-1.12-3.02l1.67-.49Z" style="fill: #fff; stroke-width: 0px;"/>
        </g>
        <g>
          <path d="m44.22,33.17c-.08,6.45-.1,12.53.66,12.53.15,0,.25-.98.28-2.3.31.54.72,1.18,1.07,1.56-.18,1.94-.52,2.87-1.54,2.87-2.38,0-2.38-5.86-2.38-12.84h-8.04v3.89c0,2.72-.26,6.59-2.07,9.01-.34-.33-1.15-.87-1.59-1.05,1.66-2.21,1.8-5.49,1.8-7.96v-5.71h11.81Zm-2.99,9.97c.67,1.13,1.31,2.64,1.53,3.64l-1.59.52c-.07-.31-.16-.71-.28-1.12-2.41.21-4.87.41-6.68.56l-.13-1.75c.9-.03,2.03-.1,3.28-.18v-1.71h-2.54v-4.76h2.54v-1.1h-2.61v-1.54h6.97v1.54h-2.67v1.1h2.66v4.76h-2.66v1.61l1.21-.08c-.16-.36-.34-.71-.52-1.02l1.49-.48Zm-3.87-1.51v-1.8h-1.07v1.8h1.07Zm1.69-1.8v1.8h1.07v-1.8h-1.07Z" style="fill: #fff; stroke-width: 0px;"/>
          <path d="m51.1,41.79c-.13-.41-.39-1-.67-1.59v7.61h-1.67v-6.3c-.33,1.13-.72,2.18-1.12,2.9-.15-.54-.51-1.43-.77-1.92.77-1.16,1.43-3.28,1.79-5.13h-1.35v-1.8h1.44v-3.05h1.67v3.05h1.12v1.8h-1.12v.72c.36.49,1.3,2.02,1.53,2.41l-.85,1.3Zm10.37,1.13c-.46.9-1.07,1.71-1.79,2.41.3.34.64.54,1.02.59.31.03.51-.56.62-1.71.28.38.92.85,1.23,1.03-.43,2.03-1.08,2.61-1.79,2.56-.97-.08-1.77-.57-2.41-1.39-.77.54-1.66,1-2.59,1.36-.21-.34-.67-.94-1-1.25,1.05-.36,2-.87,2.82-1.48-.34-.75-.61-1.62-.84-2.62h-2.23c-.02.11-.02.25-.03.36.67.54,1.61,1.3,2.08,1.76l-1.18,1.16c-.28-.33-.75-.75-1.23-1.2-.36,1.18-1.03,2.36-2.23,3.3-.25-.31-.94-.92-1.3-1.12,1.74-1.28,2.18-2.95,2.23-4.27h-.97v-1.49h4.58c-.28-1.67-.44-3.61-.56-5.74-.64,1.2-1.44,2.44-2.23,3.41l.92-.1c-.07-.26-.15-.52-.21-.74l1.13-.3c.28.75.54,1.76.64,2.36l-1.2.36c-.02-.16-.05-.34-.1-.56-1.97.28-2.35.39-2.58.51-.07-.26-.3-.97-.44-1.33.26-.07.52-.33.8-.74.15-.18.44-.61.79-1.18-.87.11-1.15.2-1.31.28-.08-.29-.3-.95-.46-1.31.2-.07.41-.26.59-.59.18-.29.79-1.48,1.08-2.62l1.41.38c-.38.94-.9,1.94-1.41,2.72l.74-.05c.16-.34.33-.69.46-1.02l1.36.44c-.03-.79-.07-1.64-.1-2.49h1.61c.07,3.21.28,6.07.69,8.3h1.51c-.28-.25-.59-.49-.85-.71l.74-.61c-.77.13-1.02.21-1.16.29-.07-.28-.3-.98-.44-1.34.26-.08.51-.34.8-.75.15-.16.44-.61.75-1.16-.85.11-1.12.2-1.28.28-.08-.29-.31-.93-.46-1.31.2-.05.38-.26.56-.56.15-.28.71-1.39.98-2.48l1.39.38c-.33.89-.8,1.79-1.28,2.53l.74-.05c.15-.33.3-.69.43-1.02l1.41.46c-.61,1.23-1.41,2.49-2.2,3.48l.92-.11c-.08-.23-.15-.48-.23-.67l1.12-.31c.3.75.62,1.79.75,2.38l-1.16.39c-.03-.18-.08-.41-.15-.66-.41.07-.75.11-1.03.16.44.33.97.72,1.25,1l-.43.39h1.31v1.49h-1.9l1.3.49Zm-3.07-.49c.13.54.28,1,.44,1.43.38-.44.71-.92.97-1.43h-1.41Z" style="fill: #fff; stroke-width: 0px;"/>
          <path d="m78.54,44.16c-.64.33-1.28.66-1.89.92.66.48,1.41.85,2.3,1.08-.39.36-.92,1.02-1.15,1.49-2.2-.74-3.61-2.26-4.46-4.36-.48.41-1,.77-1.59,1.12v1.41l2.31-.44c-.05.43-.07,1.07-.03,1.43-3.02.66-3.56.8-3.87,1-.08-.38-.39-1-.62-1.31.3-.13.66-.46.66-1.12v-.15c-.46.2-.9.34-1.34.49-.18-.28-.48-.64-.75-.95l.02.11c-1.51.44-3.12.85-4.45,1.21l-.33-1.77c.48-.1,1-.23,1.61-.38v-4.04h-1.28v-1.69h1.28v-3.05h-1.39v-1.71h4.45v1.71h-1.34v3.05h1.2v1.69h-1.2v3.62l1.23-.33.15,1.12c1.16-.31,2.38-.77,3.36-1.33h-1.89v-3.59h8.17v3.59h-2.74c.18.41.43.79.71,1.12.59-.34,1.21-.77,1.62-1.1l1.28,1.15Zm.05-5.33h-10.04v-1.54h10.04v1.54Zm-.52-2.07h-8.92v-3.72h8.92v3.72Zm-6.32-2.41h-1.03v1.1h1.03v-1.1Zm-.52,7.32h4.61v-.92h-4.61v.92Zm2.84-7.32h-1.03v1.1h1.03v-1.1Zm2.35,0h-1.08v1.1h1.08v-1.1Z" style="fill: #fff; stroke-width: 0px;"/>
          <path d="m86.17,36.76h-6.13v-1.54h2.62c-.23-.62-.64-1.44-.98-2.07l1.39-.71c.41.67.89,1.57,1.13,2.18l-1.02.59h2.99v1.54Zm-5.48,2.21v-1.48h4.79v1.48h-4.79Zm4.81,2.2h-4.81v-1.48h4.81v1.48Zm.02,5.76h-3.28v.69h-1.53v-5.66h4.81v4.97Zm-3.28-3.41v1.84h1.74v-1.84h-1.74Zm13.02-1.26h-3.61v5.58h-1.92v-5.58h-3.61v-1.85h3.61v-5.27h-3.05v-1.82h8.28v1.82h-3.31v5.27h3.61v1.85Zm-6.89-6.43c.38,1.2.69,2.74.75,3.76l-1.64.39c-.03-1.03-.33-2.61-.66-3.82l1.54-.33Zm3.77,3.76c.34-1.07.72-2.72.89-3.9l1.85.38c-.41,1.38-.87,2.9-1.25,3.89l-1.49-.36Z" style="fill: #fff; stroke-width: 0px;"/>
          <path d="m111.44,45.7v1.67h-14.93v-1.67h1.74v-3.72h11.5v3.72h1.69Zm-7.14-4.58h-7.41v-8.05h7.3v1.48h-2.59v.82h2.21v1.92c.98-1.15,1.67-2.94,2.05-4.76l1.69.34c-.15.69-.34,1.36-.57,2h4.31v1.64h-4.99c-.34.72-.74,1.36-1.15,1.89-.28-.26-.93-.75-1.34-1v1.36h-2.21v.9h2.71v1.46Zm-5.64-6.58v.82h1.38v-.82h-1.38Zm3.54,2.07h-3.54v.89h3.54v-.89Zm-3.54,3.05h1.38v-.9h-1.38v.9Zm1.38,6.04h1.41v-2.21h-1.41v2.21Zm3.18-2.21v2.21h1.43v-2.21h-1.43Zm2.05-2.87v-1.62h5.61v1.62h-5.61Zm1.15,2.87v2.21h1.43v-2.21h-1.43Z" style="fill: #fff; stroke-width: 0px;"/>
          <path d="m115.25,40c-.54-.51-1.66-1.16-2.56-1.57l1.07-1.43c.9.34,2.07.92,2.62,1.43l-1.13,1.57Zm1.41,2.4c-.54,1.76-1.26,3.64-1.94,5.25l-1.76-1c.61-1.26,1.48-3.35,2.12-5.27l1.57,1.02Zm-.8-6.66c-.52-.52-1.64-1.25-2.54-1.66l1.1-1.44c.89.38,2.03,1.03,2.59,1.53l-1.15,1.57Zm3.61,8.73c-.54,1.25-1.43,2.59-2.21,3.41-.36-.29-1.1-.77-1.53-1,.77-.74,1.53-1.84,1.97-2.9l1.77.49Zm2.72-.62h-4.95v-10.69h4.95v10.69Zm-1.71-9.01h-1.61v1.38h1.61v-1.38Zm0,2.94h-1.61v1.39h1.61v-1.39Zm0,2.97h-1.61v1.41h1.61v-1.41Zm.98,3.1c.61.75,1.38,1.82,1.72,2.51l-1.54.92c-.31-.69-1.05-1.79-1.66-2.61l1.48-.82Zm3.23-.2h-1.69v-9.48h1.69v9.48Zm2.79-11.12v13.11c0,1-.18,1.53-.75,1.8-.57.31-1.43.38-2.71.38-.07-.51-.31-1.33-.56-1.87.84.03,1.62.03,1.89.03.28-.02.36-.1.36-.34v-13.11h1.77Z" style="fill: #fff; stroke-width: 0px;"/>
          <path d="m28.72,56.61c-.72,4.43-2.49,7.74-4.79,9.46-.33-.46-1.1-1.23-1.57-1.51,1.89-1.28,3.3-3.53,4.02-6.4h-3.43v-1.97h4.13l.36-.07,1.28.48Zm8.15-.28c-1.21,1.21-2.64,2.58-3.81,3.51,1.25,1.89,2.92,3.43,4.99,4.33-.48.43-1.13,1.25-1.46,1.82-2.31-1.23-4.05-3.23-5.33-5.68v4.71c0,1.13-.21,1.71-.87,2.07-.64.34-1.62.44-2.95.44-.08-.61-.43-1.59-.72-2.18.9.03,1.77.03,2.08.03.28,0,.38-.1.38-.38v-12.81h2.08v4c.26.74.56,1.43.9,2.12,1.03-.98,2.17-2.23,2.9-3.25l1.8,1.26Z" style="fill: #fff; stroke-width: 0px;"/>
          <path d="m47.29,55.36v2.58l.33-.38c1.77.89,4.35,2.3,5.59,3.31l-1.44,1.79c-.95-.84-2.82-2.03-4.48-2.99v7.79h-2.1v-12.11h-5.92v-1.97h14.62v1.97h-6.59Z" style="fill: #fff; stroke-width: 0px;"/>
          <path d="m57.38,63.5v1.31h-1.54v-11.22h4.22v9.91h-2.67Zm0-8.02v6.15h1.13v-6.15h-1.13Zm6.81,8.87c-.87,1-2.13,2.1-3.15,2.81-.3-.34-.94-.97-1.33-1.25,1-.56,2.1-1.39,2.79-2.18l1.69.62Zm6.27-.74h-4.12v3.94h-1.85v-3.94h-3.95v-1.57h3.95v-1h-3.74v-3.85h4.33v3.81h.64v-3.81h4.48v3.85h-3.85v1h4.13l-.02,1.57Zm-6.91-5.12h-1.36v1.21h1.36v-1.21Zm5.08-1.89h-6.41v-3.81h6.41v3.81Zm-1.77-2.44h-2.99v1.08h2.99v-1.08Zm.92,9.45c1.02.59,2.39,1.49,3.05,2.15l-1.16,1.31c-.61-.67-1.94-1.64-2.97-2.31l1.08-1.15Zm-.57-3.9h1.43v-1.21h-1.43v1.21Z" style="fill: #fff; stroke-width: 0px;"/>
          <path d="m86.74,57.26v1.74h-14.71v-1.74h3.59c-.15-.56-.39-1.2-.66-1.71l1.59-.31h-3.61v-1.72h5.53c-.13-.41-.33-.84-.51-1.18l2.03-.33c.28.44.52,1.02.69,1.51h5.28v1.72h-3.4l1.51.33c-.28.61-.56,1.18-.82,1.69h3.48Zm-12.68,2.74h10.81v7.53h-2.05v-.56h-6.79v.57h-1.97v-7.55Zm1.97,1.62v1.08h6.79v-1.08h-6.79Zm6.79,3.74v-1.18h-6.79v1.18h6.79Zm-5.91-10.12c.39.62.72,1.43.84,2.02h3.38c.26-.61.56-1.38.74-2.02h-4.95Z" style="fill: #fff; stroke-width: 0px;"/>
          <path d="m102.7,58c-.64,2.54-1.74,4.51-3.22,6.04,1.15.75,2.48,1.31,4.02,1.67-.46.44-1.05,1.3-1.36,1.85-1.67-.49-3.08-1.18-4.28-2.13-1.39,1.03-3.05,1.76-4.87,2.3-.23-.56-.72-1.38-1.13-1.82,1.66-.39,3.18-1.03,4.48-1.94-1.12-1.28-1.97-2.84-2.66-4.64h-.25c-.38,2.67-1.38,5.66-4,7.94-.28-.51-.98-1.31-1.41-1.69,3.25-2.77,3.58-6.91,3.58-9.56v-1.25h-2.59v-1.9h10.37c-.26,1.51-.61,3.25-.94,4.61h2.48l.36-.08,1.43.61Zm-9.05-1.97c0,.46-.02.94-.03,1.44h2.64c.23-.82.46-1.77.67-2.71h-3.28v1.26Zm1.95,3.3c.54,1.28,1.3,2.43,2.26,3.38.93-.94,1.67-2.07,2.18-3.38h-4.45Z" style="fill: #fff; stroke-width: 0px;"/>
          <path d="m119.6,65.14v1.92h-14.75v-1.92h6.33v-3.3h-4.45v-1.89h4.45v-2.89h-3.4c-.48.9-.98,1.74-1.53,2.38-.39-.31-1.26-.9-1.76-1.17,1.28-1.38,2.35-3.64,2.9-5.87l2.02.44c-.23.79-.49,1.56-.77,2.31h2.53v-2.95h2.05v2.95h5.53v1.9h-5.53v2.89h4.9v1.89h-4.9v3.3h6.36Z" style="fill: #fff; stroke-width: 0px;"/>
          <path d="m121.07,66.23c.52-.79,1.02-1.97,1.26-2.99l1.67.66c-.3,1.05-.71,2.36-1.23,3.18l-1.71-.85Zm6.59-9.91c-.11-.23-.28-.51-.46-.8-4.49.43-5.15.52-5.56.72-.1-.36-.36-1.13-.54-1.54.28-.07.57-.23.89-.49.31-.23,1.33-1.1,1.97-2.05l1.72.52c-.52.64-1.16,1.25-1.8,1.79l2.48-.2c-.21-.28-.43-.56-.64-.8l1.31-.66c.74.84,1.62,2,2.03,2.76l-1.39.75Zm-4.15,4.61c-.16.82-.48,1.61-1.02,2.21-.28-.28-1.02-.8-1.38-.98.87-.97.94-2.23.94-3.28v-2.48h6.04v5.13c0,.71-.15,1.02-.62,1.25-.46.21-1.12.21-1.98.21-.08-.39-.31-.92-.49-1.26.51.03,1.03.03,1.18.02.18-.02.23-.07.23-.21v-.82c-.87.39-1.74.77-2.53,1.12l-.36-.9Zm.16-2.02c0,.48-.02.98-.08,1.51.59-.16,1.3-.38,2.07-.61-.48-.28-1.31-.67-1.98-.98v.08Zm0-1.17v.89l.59-.72c.67.26,1.62.66,2.13.92v-1.08h-2.72Zm6.61,7.94c.72,0,.85-.23.94-1.66.39.28,1.16.52,1.66.62-.21,2.07-.72,2.58-2.43,2.58h-3.05c-2.18,0-2.76-.48-2.76-2.02v-1.67h1.9v1.64c0,.44.16.51,1.03.51h2.71Zm-3.89-6.1v-.72l-.66.92.66-.2Zm2.39,2.85c.51.57,1.21,1.36,1.56,1.87l-1.41.97c-.33-.52-.98-1.39-1.49-2l1.34-.84Zm2.77-5.05c-1.8,0-2.26-.62-2.26-2.23v-2.85l1.8.02v.97h3.89v1.44h-3.89v.48c0,.46.07.64.52.64h2.31c.44,0,1.15-.05,1.48-.13.03.48.08,1.13.16,1.54-.33.1-.98.13-1.57.13h-2.44Zm.05,5.56c-1.87,0-2.31-.48-2.31-2.07v-3.23h1.79v1.05h3.95v1.43h-3.95v.75c0,.46.13.51.75.51h1.89c.46,0,.57-.11.64-.82.36.23,1.1.49,1.57.59-.2,1.39-.71,1.79-2.02,1.79h-2.31Zm3.05.26c.44.94.98,2.18,1.23,2.95l-1.79.56c-.21-.77-.69-2.07-1.12-3.02l1.67-.49Z" style="fill: #fff; stroke-width: 0px;"/>
        </g>
      </g>
    </g>
  </g>
</svg>