<?xml version="1.0" encoding="UTF-8"?>
<svg id="_圖層_2" data-name="圖層 2" xmlns="http://www.w3.org/2000/svg" width="159.89" height="190.15" viewBox="0 0 159.89 190.15">
  <g id="_圖層_7" data-name="圖層 7">
    <g id="air_balloon2">
      <line x1="68.44" y1="152.05" x2="77.11" y2="182.88" style="fill: none; stroke: #67d23b; stroke-miterlimit: 10; stroke-width: 8.01px;"/>
      <line x1="92.9" y1="151.07" x2="82.01" y2="181.19" style="fill: none; stroke: #67d23b; stroke-miterlimit: 10; stroke-width: 8.01px;"/>
      <path d="m96.15,170.8h-31.74c-1.11,0-1.98.72-1.98,1.54,0,.87.86,1.59,1.98,1.59h.31v9.79c0,3.52,2.96,6.42,6.67,6.42h17.78c3.7,0,6.67-2.89,6.67-6.42v-9.79h.31c1.11,0,1.98-.72,1.98-1.59,0-.82-.86-1.54-1.98-1.54Z" style="fill: #8cd26f; fill-rule: evenodd; stroke-width: 0px;"/>
      <g>
        <path d="m79.95,0c-1.17,0-2.35.03-3.52.08l.25,5.87c.87-.04,1.74-.06,2.62-.07h0s.02,0,.02,0h0s.01,0,.02,0h.03s0,0,0,0c.02,0,.03,0,.04,0h.02s0,0,0,0h.03s.01,0,.02,0h.03s0,0,.01,0h.03s.02,0,.03,0h.04s0,0,.01,0h.04s0,0,.01,0h.09s.01,0,.02,0h.12V0h0Zm-5.63.2c-1.17.08-2.35.19-3.51.32l.66,5.84c.3-.03.6-.07.91-.1,0,0,0,0,0,0,0,0,.01,0,.02,0,0,0,0,0,0,0,0,0,.01,0,.02,0h.01s.01,0,.01,0c.03,0,.06,0,.08,0h0c.72-.07,1.45-.13,2.18-.18l-.41-5.86h0Zm-5.6.59c-1.16.16-2.33.35-3.48.57l1.07,5.77c.24-.04.48-.09.72-.13h0s.02,0,.02,0h0s.02,0,.03,0h0s.02,0,.03,0c0,0,0,0,0,0,0,0,.01,0,.02,0,0,0,.01,0,.02,0h0s.01,0,.02,0c0,0,0,0,0,0,0,0,.01,0,.02,0,0,0,0,0,0,0,0,0,.01,0,.02,0h0c.76-.13,1.52-.25,2.29-.36l-.82-5.82h0Zm-5.55.98c-1.14.24-2.3.52-3.43.81l1.48,5.68c1.05-.27,2.11-.52,3.18-.75l-1.23-5.74h0Zm-5.47,1.37c-1.12.32-2.25.68-3.36,1.05l1.88,5.56c1.03-.35,2.07-.67,3.11-.98l-1.63-5.64h0Zm-5.36,1.76c-1.1.4-2.2.84-3.28,1.29l2.27,5.42c.35-.15.7-.29,1.05-.43,0,0,0,0,0,0,.01,0,.03-.01.04-.02,0,0,0,0,.01,0h.04s.01-.02.01-.02c.01,0,.02,0,.03-.01,0,0,.01,0,.02,0,0,0,.01,0,.02,0,0,0,.02,0,.03-.01,0,0,.01,0,.02,0,0,0,.02,0,.03-.01,0,0,.01,0,.02,0,0,0,.02,0,.03-.01h.02s.02-.02.03-.02c0,0,0,0,.01,0,.01,0,.03,0,.04-.01,0,0,0,0,.01,0,.01,0,.02,0,.04-.01,0,0,0,0,.01,0,.01,0,.03-.01.04-.01,0,0,0,0,0,0,.01,0,.03-.01.04-.01,0,0,0,0,0,0,.01,0,.03-.01.04-.02,0,0,0,0,0,0,.02,0,.02,0,.04-.02,0,0,0,0,0,0,.01,0,.03-.01.04-.02,0,0,0,0,0,0,.02,0,.03-.01.04-.02,0,0,0,0,0,0,.03-.01.06-.02.09-.03,0,0,0,0,0,0,.02,0,.03-.01.04-.02,0,0,0,0,0,0,.01,0,.03-.01.04-.02,0,0,0,0,0,0,.02,0,.03-.01.04-.02,0,0,0,0,0,0,.03-.01.06-.02.09-.04t0,0s.03-.01.05-.02c0,0,0,0,0,0,.01,0,.03-.01.04-.02,0,0,0,0,0,0,.02,0,.03-.01.04-.02,0,0,0,0,0,0,.03-.01.06-.02.09-.04h0s.03-.01.04-.02c0,0,0,0,0,0,.01,0,.03-.01.04-.02,0,0,0,0,0,0,.02,0,.03-.01.04-.02,0,0,0,0,0,0,.01,0,.03-.01.04-.02,0,0,0,0,0,0,.01,0,.03,0,.04-.01,0,0,0,0,0,0,.01,0,.03,0,.04-.01h.01s.02-.01.04-.02c0,0,0,0,.01,0,.01,0,.02,0,.04-.01,0,0,0,0,.01,0,.01,0,.02,0,.03-.01h.02s.02-.01.02-.02c0,0,.02,0,.03-.01,0,0,.01,0,.02,0,0,0,.02,0,.02,0,0,0,.02,0,.03,0,0,0,.02,0,.02,0,0,0,0,0,.01,0l.04-.02s0,0,0,0c0,0,.02,0,.03,0l-2.03-5.51h0Zm-5.22,2.13c-1.07.48-2.13.99-3.18,1.52l2.65,5.24c.42-.21.85-.42,1.28-.63,0,0,0,0,0,0,.01,0,.03-.01.04-.02,0,0,0,0,0,0,.01,0,.03-.01.04-.02,0,0,0,0,.01,0,.01,0,.02-.01.04-.02,0,0,0,0,.01,0,0,0,.02,0,.03-.01,0,0,.02,0,.03-.01,0,0,.01,0,.02,0,.01,0,.02-.01.03-.02,0,0,0,0,.02,0,.46-.22.93-.44,1.4-.65l-2.41-5.35h0Zm-5.05,2.5c-1.03.55-2.06,1.14-3.06,1.74l3.01,5.04c.41-.24.82-.48,1.23-.72,0,0,0,0,0,0,.01,0,.03-.02.04-.02,0,0,0,0,0,0,.01,0,.03-.02.04-.02,0,0,0,0,0,0,.01,0,.03-.01.04-.02,0,0,0,0,0,0,.01,0,.02-.01.04-.02,0,0,0,0,.01,0,.01,0,.02-.01.03-.02,0,0,0,0,.01,0,.01,0,.02-.01.03-.02,0,0,.01,0,.02,0,0,0,.02,0,.03-.01,0,0,.01,0,.02-.01,0,0,.01,0,.02,0l.03-.02s0,0,.01,0c.01,0,.03-.01.04-.02,0,0,0,0,0,0,.39-.22.78-.44,1.18-.65l-2.79-5.17h0Zm-4.86,2.85c-.99.62-1.97,1.28-2.93,1.95l3.36,4.82c.16-.11.32-.22.47-.33,0,0,0,0,.01,0,.01,0,.02-.01.03-.02,0,0,.01,0,.02-.01l.02-.02s.01,0,.02-.01c0,0,.01,0,.02-.01,0,0,.02-.01.03-.02,0,0,0,0,.01,0,0,0,.02-.01.03-.02h.01s.02-.02.03-.03c0,0,0,0,.01,0,.01,0,.02-.01.03-.02,0,0,0,0,0,0,0,0,.02-.01.03-.02,0,0,0,0,0,0,.01,0,.02-.02.04-.02,0,0,0,0,0,0,.01,0,.02-.02.04-.02,0,0,0,0,0,0,.01,0,.02-.02.04-.02,0,0,0,0,0,0,.01,0,.02-.02.04-.02,0,0,0,0,0,0,.01,0,.03-.02.04-.02,0,0,0,0,0,0,.01,0,.02-.02.04-.02,0,0,0,0,0,0,.01,0,.02-.02.04-.02h0s.02-.02.03-.03c0,0,0,0,0,0,.01,0,.02-.02.03-.02,0,0,0,0,0,0,.01,0,.02-.02.03-.02h0s.02-.02.03-.03c0,0,0,0,0,0,0,0,.02-.01.03-.02,0,0,0,0,.01,0,0,0,.02-.01.03-.02h.01s.02-.02.03-.03c0,0,0,0,.01,0,0,0,.02-.01.03-.02,0,0,.01,0,.01-.01,0,0,.02-.01.03-.02,0,0,.01,0,.02-.01s.01,0,.02-.01c0,0,.02-.01.03-.02,0,0,.01,0,.02-.01,0,0,.02-.01.03-.02,0,0,.01,0,.02-.01l.03-.02s.01,0,.02-.01c0,0,.01,0,.02-.01,0,0,0,0,0,0,.01,0,.03-.02.04-.03,0,0,0,0,0,0,.01,0,.03-.02.04-.03h0s.03-.02.05-.03h0c.31-.2.61-.4.92-.59l-3.14-4.96h0Zm-4.65,3.18c-.94.69-1.88,1.42-2.79,2.15l3.69,4.57c.65-.53,1.31-1.04,1.98-1.55h0s.03-.02.04-.03h0s.03-.02.04-.03h0s.03-.02.04-.03h0s.03-.02.04-.03c0,0,0,0,0,0,.02-.02.04-.03.07-.05,0,0,0,0,0,0,.01,0,.03-.02.04-.03h0s.03-.02.04-.03c0,0,0,0,0,0,.01,0,.03-.02.04-.03,0,0,0,0,0,0,.02-.02.04-.03.07-.05h0s.03-.02.04-.03c0,0,0,0,0,0,.01,0,.02-.02.03-.03,0,0,0,0,0,0,.01,0,.02-.02.03-.02,0,0,0,0,0,0,0,0,.01,0,.02-.01l-3.48-4.73h0Zm-4.41,3.5c-.89.76-1.77,1.54-2.63,2.34l4,4.3c.8-.74,1.61-1.46,2.44-2.17l-3.81-4.47h0Zm-4.16,3.8c-.83.82-1.66,1.66-2.46,2.52l4.29,4.01c.74-.79,1.5-1.57,2.28-2.33l-4.11-4.19h0Zm-3.88,4.08c-.78.87-1.54,1.78-2.28,2.68l4.56,3.7c.18-.22.37-.45.55-.67,0,0,0,0,0,0,0-.01.02-.02.03-.03,0,0,0,0,0,0,0-.01.02-.02.03-.03,0,0,0,0,0,0,0-.01.02-.02.03-.03,0,0,0,0,0,0,0,0,.02-.02.03-.03h0s.01-.03.02-.03c0,0,0-.01.01-.02,0,0,.01-.01.02-.02,0,0,.01-.01.01-.02l.02-.02s0-.01.01-.02c0,0,.01-.01.02-.02,0,0,0-.01.01-.02,0,0,.01-.02.02-.02,0,0,.01-.01.01-.02,0,0,0,0,.01-.01l.02-.03s0,0,0-.01l.02-.03s0,0,0-.01c0,0,.02-.02.02-.03,0,0,0,0,0-.01,0-.01.02-.02.03-.03,0,0,0,0,0,0,.02-.02.04-.04.05-.06h0s.02-.03.03-.04c0,0,0,0,0,0,.01-.01.02-.02.03-.04h0s.02-.03.03-.04h0c.05-.06.11-.13.16-.19h0c.26-.3.52-.6.79-.9l-4.39-3.9h0Zm-3.59,4.34c-.71.93-1.41,1.88-2.08,2.84l4.81,3.37c.1-.14.2-.29.3-.43,0,0,0,0,0-.01,0,0,.01-.02.02-.03,0,0,0-.01.01-.02,0,0,.01-.01.02-.02,0,0,.01-.02.02-.02,0,0,0,0,0-.01,0,0,.02-.02.02-.03,0,0,0,0,0-.01,0-.01.02-.02.02-.03,0,0,0,0,0,0,0-.01.02-.02.02-.03,0,0,0,0,0,0,0-.01.02-.03.03-.04,0,0,0,0,0,0,.03-.04.06-.08.09-.12,0,0,0,0,0,0,.24-.33.48-.66.72-.99,0,0,0,0,0,0,0-.01.02-.03.03-.04,0,0,0,0,0,0,0-.01.02-.03.03-.04,0,0,0,0,0,0,.02-.03.04-.05.06-.08,0,0,0,0,0,0,0-.01.02-.02.03-.04,0,0,0,0,0,0,0-.01.02-.02.03-.03,0,0,0,0,0,0,0-.01.02-.02.02-.03,0,0,0,0,0,0,0,0,.02-.02.02-.03,0,0,0,0,0-.01,0-.01.01-.02.02-.03,0,0,0,0,0-.01,0,0,.02-.02.02-.03,0,0,0,0,.01-.01,0,0,.01-.02.02-.03,0,0,0,0,.01-.01,0,0,.01-.02.02-.03,0,0,0-.01.01-.01,0,0,.01-.02.02-.03,0,0,0-.01.01-.02,0,0,.01-.02.02-.03,0,0,0-.01.01-.02s0-.01.01-.02c0,0,.01-.02.02-.02,0,0,0-.01.01-.02,0,0,.01-.02.02-.03,0,0,0,0,.01-.01,0,0,.01-.02.02-.03,0,0,0-.01.01-.02,0,0,0-.01.01-.02,0,0,.01-.02.02-.02,0,0,.01-.01.02-.02,0,0,0,0,0-.01,0,0,0-.01.01-.02l-4.66-3.58h0Zm-3.27,4.58c-.65.97-1.28,1.98-1.88,2.98l5.03,3.02c.56-.93,1.14-1.85,1.74-2.76l-4.9-3.24h0Zm-2.94,4.8c-.58,1.02-1.14,2.06-1.67,3.1l5.24,2.66c.16-.32.33-.64.5-.96,0,0,0,0,0,0,0-.01.01-.02.02-.04,0,0,0,0,0-.01,0-.01.01-.02.02-.03,0,0,0-.01,0-.02,0,0,.01-.02.02-.03,0,0,0-.01.01-.02,0,0,0-.01,0-.02,0-.01.01-.02.02-.03,0,0,0-.01,0-.02,0-.01.01-.02.02-.03,0,0,0-.01,0-.01,0-.01.01-.02.02-.03,0,0,0,0,0-.01,0-.01.01-.02.02-.03,0,0,0,0,0-.01,0-.01.01-.02.02-.03,0,0,0,0,0,0,0-.01.01-.03.02-.04,0,0,0,0,0,0,0-.01.01-.03.02-.04,0,0,0,0,0,0,0-.01.01-.02.02-.04,0,0,0,0,0,0,0-.01.01-.03.02-.04h0s.03-.06.05-.09c0,0,0,0,0,0,.15-.27.29-.54.44-.8,0,0,0,0,0,0,0-.01.02-.03.02-.04,0,0,0,0,0,0,0-.02.02-.03.02-.04,0,0,0,0,0,0,.02-.03.03-.06.05-.09,0,0,0,0,0,0,0-.01.01-.03.02-.04,0,0,0,0,0,0,0-.01.01-.02.02-.04,0,0,0,0,0-.01,0-.01.01-.02.02-.03,0,0,0,0,0-.01,0-.01.01-.02.02-.03,0,0,0-.01.01-.02,0,0,0-.01.01-.02,0,0,0-.02.01-.02,0,0,0-.01.01-.02,0,0,0,0,0-.01l-5.11-2.89h0Zm-2.6,5c-.5,1.06-.99,2.14-1.44,3.21l5.41,2.28c.08-.19.16-.39.25-.58,0,0,0,0,0,0,0-.01.01-.03.02-.04,0,0,0,0,0-.01,0,0,0-.02.01-.03,0,0,0-.01,0-.02,0,0,0-.01,0-.02,0-.01,0-.02.01-.03,0,0,0-.01,0-.02,0-.01,0-.02.01-.03,0,0,0,0,0-.01,0-.01.01-.02.02-.04,0,0,0,0,0,0,0-.01.01-.03.02-.04,0,0,0,0,0,0,0-.01.01-.03.02-.04,0,0,0,0,0,0,0-.02.01-.03.02-.04,0,0,0,0,0,0,0-.01.01-.03.02-.04,0,0,0,0,0,0,.14-.31.28-.62.42-.93,0,0,0,0,0,0,0-.01.01-.03.02-.04,0,0,0,0,0,0l.02-.04s0,0,0,0c.01-.03.03-.06.04-.09h0s.01-.03.02-.05c0,0,0,0,0,0,0-.01.01-.02.02-.04,0,0,0,0,0-.01,0-.01.01-.02.02-.04,0,0,0,0,0-.01,0-.01,0-.02.01-.03,0,0,0-.01,0-.02,0,0,0-.02.01-.03v-.02s.02-.02.02-.02c0,0,0-.01,0-.02,0,0,0-.02.01-.03,0,0,0-.02.01-.02,0,0,0,0,0-.01l.02-.04s0,0,0,0c0-.01.01-.03.02-.04h0c.06-.13.12-.26.18-.39l-5.3-2.52h0Zm-2.24,5.17c-.43,1.09-.83,2.2-1.21,3.31l5.56,1.9s0-.01,0-.02c0,0,0-.01,0-.02.35-1.02.72-2.03,1.11-3.03l-5.47-2.14h0Zm-1.87,5.32c-.35,1.12-.67,2.26-.97,3.39l5.68,1.5c.06-.22.12-.45.18-.67h0s.01-.05.02-.08c0,0,0,0,0-.01,0-.01,0-.03.01-.04,0,0,0-.01,0-.02,0-.01,0-.02,0-.03,0,0,0-.02,0-.02,0,0,0-.01,0-.02,0,0,0-.02,0-.03,0,0,0-.01,0-.02,0-.01,0-.02.01-.04,0,0,0,0,0-.01,0-.01,0-.03.01-.04,0,0,0,0,0,0,0-.01,0-.03.01-.04,0,0,0,0,0,0,0-.01,0-.03.01-.04,0,0,0,0,0,0,0-.02,0-.03.01-.04,0,0,0,0,0,0,0-.01,0-.03.01-.05h0c.1-.36.21-.72.31-1.08,0,0,0,0,0,0,0-.01,0-.03.01-.04,0,0,0,0,0,0,0-.02,0-.03.01-.04,0,0,0,0,0,0,0-.02,0-.03.01-.04,0,0,0,0,0,0,0-.01,0-.03.01-.04,0,0,0,0,0-.01,0-.01,0-.03.01-.04,0,0,0,0,0-.01,0-.01,0-.02.01-.03,0,0,0-.01,0-.02,0,0,0-.02,0-.02,0,0,0-.02,0-.03,0,0,0-.01,0-.02,0-.01,0-.03.01-.04,0,0,0,0,0-.01.04-.14.08-.27.12-.41l-5.61-1.75h0Zm-1.48,5.44c-.27,1.14-.51,2.3-.73,3.45l5.77,1.09c.03-.16.06-.31.09-.47,0,0,0,0,0,0,0,0,0,0,0-.01,0,0,0-.01,0-.02,0,0,0,0,0,0,0,0,0-.01,0-.02h0s0-.02,0-.03h0c.15-.78.32-1.56.5-2.34,0,0,0,0,0,0,0,0,0-.01,0-.02,0,0,0,0,0-.01,0,0,0,0,0-.01,0,0,0-.01,0-.02,0,0,0,0,0,0,.02-.07.03-.15.05-.22l-5.72-1.34h0Zm-1.09,5.53c-.19,1.15-.35,2.33-.48,3.49l5.83.68c.06-.53.13-1.07.2-1.6h0s0-.02,0-.02c0,0,0,0,0,0,0,0,0-.02,0-.02,0,0,0,0,0,0,0-.04.01-.08.02-.12,0,0,0,0,0,0,0,0,0-.01,0-.02h0s0-.02,0-.02c0,0,0,0,0,0,0,0,0-.01,0-.02,0,0,0,0,0,0,0,0,0-.01,0-.02,0,0,0,0,0,0,0,0,0-.01,0-.02h0s0-.03,0-.04c0,0,0,0,0,0,0,0,0,0,0-.01,0,0,0,0,0-.01,0,0,0,0,0-.01s0-.01,0-.02c0,0,0,0,0-.01,0,0,0-.01,0-.02,0,0,0,0,0,0v-.02s0,0,0,0c0,0,0-.02,0-.02h0s0-.04,0-.06h0s0-.02,0-.03h0s0-.02,0-.03h0c.05-.34.1-.68.16-1.02l-5.8-.94h0Zm-.7,5.59c-.1,1.16-.18,2.34-.24,3.51l5.87.27c.01-.28.03-.56.04-.84,0,0,0,0,0,0,0,0,0-.01,0-.02,0,0,0,0,0,0,0,0,0-.01,0-.02,0,0,0,0,0-.01,0,0,0,0,0-.01,0,0,0-.01,0-.02,0,0,0,0,0-.01,0-.03,0-.06,0-.09h0s0-.02,0-.03h0s0-.02,0-.03h0c.01-.25.03-.49.05-.74h0s0-.02,0-.03h0s0-.06,0-.09h0s0-.02,0-.03c0,0,0,0,0,0,0,0,0-.01,0-.02,0,0,0,0,0-.01,0,0,0,0,0-.01,0,0,0,0,0-.01,0,0,0,0,0-.01,0,0,0,0,0-.02,0,0,0,0,0,0,0-.02,0-.05,0-.07,0,0,0,0,0,0,0,0,0-.02,0-.02h0c.03-.37.06-.73.09-1.09l-5.85-.53H.32Zm-.31,5.62c-.01.54-.02,1.08-.02,1.62,0,.63,0,1.27.02,1.9l5.87-.14c0-.12,0-.24,0-.36,0,0,0-.01,0-.02,0,0,0,0,0,0,0-.37-.01-.74-.01-1.1h0v-.03s0,0,0,0v-.02h0v-.03h0v-.03h0s0-.02,0-.03h0v-.03h0v-.03h0v-.03h0v-.04h0v-.04h0v-.05h0v-.04s0,0,0-.01v-.04h0v-.04s0,0,0-.01v-.05s0-.01,0-.02v-.04s0,0,0-.01v-.03h0s0-.04,0-.06h0c0-.33,0-.66.01-.98,0,0,0-.01,0-.02,0,0,0-.01,0-.02,0-.01,0-.03,0-.04h0s-5.87-.12-5.87-.12H.02Zm5.95,5.34l-5.87.29c.06,1.17.14,2.35.25,3.51l5.85-.55c-.03-.32-.06-.63-.08-.95h0s0-.02,0-.03h0s0-.02,0-.03c0,0,0,0,0,0,0,0,0-.01,0-.02,0,0,0,0,0-.01,0,0,0,0,0,0,0-.01,0-.03,0-.04,0,0,0,0,0,0,0,0,0-.01,0-.02,0,0,0,0,0,0-.06-.71-.1-1.42-.14-2.14h0Zm.44,5.2l-5.83.7c.14,1.16.31,2.33.5,3.49l5.8-.96c-.08-.47-.15-.95-.22-1.43,0,0,0,0,0,0,0,0,0-.01,0-.02,0,0,0,0,0,0,0,0,0-.01,0-.02,0,0,0,0,0,0,0,0,0-.01,0-.02,0,0,0,0,0-.01,0,0,0,0,0-.02,0,0,0,0,0-.01,0,0,0-.01,0-.02v-.03s0,0,0,0c0,0,0-.02,0-.02,0,0,0,0,0,0,0,0,0-.01,0-.02,0,0,0,0,0,0,0,0,0-.01,0-.02,0,0,0,0,0,0,0,0,0-.02,0-.02h0s0-.02,0-.03h0c-.05-.38-.1-.75-.15-1.13h0s0-.02,0-.03h0s0-.02,0-.03c0,0,0,0,0,0,0,0,0-.01,0-.02,0,0,0,0,0-.01v-.02s0,0,0,0c0,0,0-.01,0-.02,0,0,0-.02,0-.03,0,0,0,0,0,0,0,0,0-.01,0-.02h0s0-.02,0-.03h0c0-.05-.01-.1-.02-.15h0Zm.8,5.16l-5.77,1.11c.22,1.15.47,2.31.74,3.44l5.71-1.36h0s0-.01,0-.02h0s0-.02,0-.02c0,0,0,0,0,0,0,0,0-.01,0-.02,0,0,0,0,0,0,0,0,0-.01,0-.02,0,0,0,0,0-.01,0,0,0,0,0-.01,0,0,0-.01,0-.02,0,0,0,0,0,0,0-.04-.02-.07-.03-.11h0s0-.02,0-.03h0s0-.02,0-.03h0c-.22-.95-.43-1.91-.61-2.88h0Zm1.17,5.09l-5.67,1.52c.3,1.13.63,2.27.98,3.38l5.6-1.77c-.2-.65-.4-1.29-.58-1.95h0s0-.04-.01-.05c0,0,0,0,0,0,0-.01,0-.03-.01-.04,0,0,0,0,0,0,0-.02,0-.03-.01-.04h0s0-.03-.01-.05c0,0,0,0,0,0,0-.01,0-.03-.01-.04,0,0,0,0,0-.01,0-.01,0-.03-.01-.04,0,0,0,0,0-.01,0-.01,0-.03-.01-.04,0,0,0,0,0-.01,0,0,0-.02,0-.03,0,0,0,0,0-.01,0-.01,0-.02-.01-.04h0s0-.04-.01-.05c0,0,0,0,0-.01,0-.01,0-.03-.01-.04,0,0,0,0,0-.01,0-.01,0-.02-.01-.04h0s0-.03-.01-.05c0,0,0,0,0,0,0-.01,0-.03-.01-.04,0,0,0,0,0,0,0-.01,0-.03-.01-.04,0,0,0,0,0,0,0-.02,0-.03-.01-.04h0c-.04-.14-.07-.27-.11-.4h0Zm1.53,4.99l-5.55,1.91c.38,1.11.79,2.22,1.22,3.3l5.46-2.16c-.04-.11-.08-.21-.12-.32h0s0-.02-.01-.03c0,0,0-.02-.01-.03v-.02s-.02-.02-.02-.03h0s0-.04-.01-.05c0,0,0,0,0,0,0-.02-.01-.03-.02-.04,0,0,0,0,0,0,0-.02-.01-.03-.02-.04,0,0,0,0,0,0-.26-.67-.5-1.33-.74-2.01,0,0,0,0,0,0-.01-.03-.02-.06-.03-.09,0,0,0,0,0-.01,0-.01,0-.02-.01-.04,0,0,0-.01,0-.02,0,0,0-.02-.01-.03,0,0,0-.01,0-.02,0,0,0-.01,0-.02,0-.01,0-.02-.01-.04,0,0,0,0,0,0-.03-.07-.05-.14-.07-.22h0Zm1.88,4.87l-5.4,2.3c.46,1.08.95,2.15,1.45,3.21l5.3-2.54c-.33-.7-.66-1.4-.97-2.1h0s-.01-.03-.02-.05c0,0,0,0,0,0,0-.01-.01-.02-.02-.04,0,0,0,0,0-.01,0,0,0-.01,0-.02,0,0,0-.02-.01-.03,0,0,0-.01,0-.02,0,0,0-.02-.01-.03,0,0,0-.01,0-.02,0-.01,0-.02-.01-.03,0,0,0,0,0-.01,0-.01-.01-.02-.01-.03,0,0,0,0,0,0,0-.01-.01-.03-.02-.04,0,0,0,0,0,0,0-.01-.01-.03-.02-.04,0,0,0,0,0,0-.07-.16-.13-.31-.2-.47h0Zm2.22,4.73l-5.23,2.68c.53,1.04,1.1,2.08,1.68,3.1l5.1-2.91c-.36-.63-.71-1.27-1.06-1.92,0,0,0,0,0,0,0-.01-.02-.03-.02-.04h0s-.02-.03-.02-.05c0,0,0,0,0,0-.02-.03-.03-.06-.05-.09,0,0,0,0,0,0,0-.01-.01-.02-.02-.04,0,0,0,0,0,0,0-.01-.01-.02-.02-.04,0,0,0,0,0-.01,0-.01-.01-.03-.02-.04,0,0,0,0,0-.01,0-.01-.01-.02-.02-.04,0,0,0,0,0-.01,0,0-.01-.02-.02-.03,0,0,0-.01,0-.02,0-.01,0-.02-.02-.03,0,0,0,0,0-.01,0-.01-.01-.02-.02-.03,0,0,0,0,0-.01,0-.01-.01-.02-.02-.03,0,0,0-.01,0-.02,0-.01-.01-.02-.02-.03,0,0,0-.01,0-.02,0,0,0-.02-.01-.02v-.02s-.02-.01-.02-.02c0,0,0-.01-.01-.02,0,0,0-.02-.01-.02,0,0,0-.01,0-.02,0-.01,0-.02-.02-.03,0,0,0-.01,0-.02,0-.01,0-.02-.02-.03,0,0,0-.01,0-.02,0,0,0-.01-.01-.02,0,0,0-.02-.01-.02,0,0,0-.01-.01-.02v-.02s-.02-.02-.02-.02c0,0,0,0,0-.01h0Zm2.54,4.56l-5.02,3.04c.6,1,1.24,2,1.89,2.97l4.89-3.26c-.44-.65-.86-1.32-1.28-1.99,0,0,0,0,0,0,0-.01-.02-.03-.02-.04,0,0,0,0,0,0,0-.01-.02-.02-.02-.04,0,0,0,0,0-.01,0-.01-.01-.02-.02-.03,0,0,0-.01,0-.01,0,0,0-.01-.01-.02,0,0-.01-.02-.02-.03,0,0,0-.01-.01-.02,0-.01,0-.02-.02-.02v-.02s-.02-.02-.03-.02c0,0,0-.01-.01-.02,0,0-.01-.02-.02-.03,0,0,0-.01,0-.02,0-.01-.01-.02-.02-.03,0,0,0,0,0-.01,0-.01-.01-.02-.02-.03,0,0,0,0,0-.01,0-.01-.01-.02-.02-.03,0,0,0,0,0,0,0-.01-.02-.02-.02-.04,0,0,0,0,0,0-.02-.03-.03-.05-.05-.08,0,0,0,0,0,0,0-.02-.02-.03-.03-.04,0,0,0,0,0,0,0-.01-.02-.03-.03-.04h0s-.03-.06-.05-.09h0Zm2.86,4.37l-4.8,3.39c.67.95,1.38,1.91,2.09,2.83l4.64-3.6c-.44-.56-.87-1.14-1.29-1.71h0s-.02-.03-.03-.04c0,0,0,0,0,0,0-.01-.02-.03-.03-.04,0,0,0,0,0,0-.03-.04-.06-.08-.09-.12,0,0,0,0,0,0,0-.01-.02-.02-.03-.04,0,0,0,0,0,0,0-.01-.02-.02-.03-.04,0,0,0,0,0,0,0-.01-.02-.02-.03-.04,0,0,0,0,0,0,0-.01-.02-.03-.03-.04,0,0,0,0,0,0,0-.01-.02-.02-.02-.03,0,0,0,0,0,0,0-.01-.02-.02-.02-.03,0,0,0,0,0,0,0,0-.02-.02-.02-.03,0,0,0,0,0,0,0-.01-.01-.02-.02-.03,0,0,0,0,0-.01,0,0-.02-.02-.02-.03,0,0,0,0,0-.01,0-.01-.01-.02-.02-.03,0,0,0,0,0-.01,0,0-.01-.02-.02-.02,0,0,0-.01-.01-.02,0,0-.01-.02-.02-.03,0,0,0,0,0-.01,0,0-.01-.02-.02-.03,0,0,0-.01-.01-.02,0,0-.01-.02-.02-.03,0,0,0-.01-.01-.02,0,0,0-.01-.01-.02,0,0-.01-.02-.02-.02,0,0,0-.01-.01-.02,0,0-.01-.02-.02-.03,0,0,0,0,0-.01,0,0,0,0-.01-.01h0Zm3.16,4.16l-4.55,3.72c.74.9,1.51,1.81,2.29,2.68l4.38-3.91c-.29-.33-.59-.66-.87-1h0c-.06-.07-.11-.13-.17-.19h0s-.02-.03-.03-.04c0,0,0,0,0,0-.01-.01-.02-.02-.03-.04,0,0,0,0,0,0-.04-.05-.09-.1-.13-.15h0s-.02-.03-.03-.04c0,0,0,0,0,0-.01-.01-.02-.02-.03-.04h0s-.02-.03-.03-.04c0,0,0,0,0,0-.03-.04-.06-.08-.1-.12,0,0,0,0,0,0-.01-.01-.02-.02-.03-.04,0,0,0,0,0,0-.01-.01-.02-.02-.03-.04,0,0,0,0,0,0-.01-.01-.02-.02-.03-.04,0,0,0,0,0,0-.03-.04-.06-.08-.1-.12,0,0,0,0,0,0-.01-.01-.02-.03-.03-.04,0,0,0,0,0,0-.01-.01-.02-.03-.03-.04h0c-.14-.17-.28-.34-.42-.51h0Zm3.44,3.92l-4.28,4.03c.8.85,1.63,1.7,2.47,2.51l4.1-4.21c-.36-.36-.73-.71-1.08-1.08h0s-.02-.02-.03-.03h0s-.02-.02-.03-.03c0,0,0,0-.01-.01,0-.01-.02-.02-.03-.03,0,0,0,0-.01-.01,0,0-.02-.02-.02-.02,0,0-.01-.01-.02-.02,0,0,0,0-.01-.01,0,0-.02-.02-.03-.03,0,0,0,0,0,0-.01-.01-.02-.02-.03-.03h0c-.33-.34-.65-.67-.97-1.01h0Zm3.71,3.67l-3.98,4.32c.86.79,1.75,1.58,2.64,2.33l3.79-4.49c-.2-.17-.4-.34-.59-.51,0,0,0,0,0,0,0,0-.02-.02-.03-.03,0,0,0,0-.01-.01,0,0-.01-.01-.02-.02,0,0-.01-.01-.02-.02h-.01s-.02-.03-.03-.03c0,0,0,0-.01,0,0,0-.02-.02-.03-.02,0,0,0,0-.01,0-.01,0-.02-.02-.03-.03,0,0,0,0,0,0-.01-.01-.02-.02-.03-.03,0,0,0,0,0,0-.01-.01-.02-.02-.04-.03h0s-.02-.02-.04-.03c0,0,0,0,0,0-.01-.01-.02-.02-.04-.03,0,0,0,0,0,0-.01-.01-.02-.02-.04-.03,0,0,0,0,0,0-.01-.01-.03-.02-.04-.03,0,0,0,0,0,0-.2-.18-.41-.36-.61-.54,0,0,0,0,0,0-.01-.01-.02-.02-.04-.03,0,0,0,0,0,0-.01,0-.02-.02-.03-.03,0,0,0,0,0,0-.01-.01-.02-.02-.03-.03,0,0,0,0,0,0-.01,0-.02-.02-.03-.03,0,0,0,0,0,0-.01,0-.02-.02-.03-.02,0,0,0,0-.01,0,0,0-.02-.02-.03-.02,0,0,0,0-.01-.01,0,0-.02-.02-.03-.02,0,0,0,0-.01-.01,0,0-.02-.02-.02-.02,0,0-.01,0-.02-.01,0,0-.01,0-.02-.01,0,0-.02-.02-.03-.02,0,0,0,0,0,0-.01-.01-.02-.02-.04-.03h0c-.13-.12-.26-.24-.39-.36h0Zm3.96,3.4l-3.67,4.58c.91.73,1.85,1.45,2.79,2.14l3.47-4.74s-.01,0-.02-.01h0c-.74-.54-1.47-1.1-2.19-1.67h0c-.13-.1-.25-.2-.38-.3h0Zm4.19,3.12l-3.34,4.83c.96.67,1.95,1.32,2.94,1.94l3.13-4.97c-.12-.08-.24-.15-.36-.23h0s-.03-.02-.04-.03h0s-.03-.02-.04-.03c0,0,0,0,0,0-.01,0-.03-.02-.04-.03,0,0,0,0,0,0l-.04-.03h0s-.01-.01-.02-.02c0,0,0,0,0,0-.01,0-.03-.02-.04-.03,0,0,0,0,0,0-.01,0-.03-.02-.04-.03h0s-.03-.02-.04-.03h0s-.08-.05-.12-.08h0s-.03-.02-.04-.03h0s-.03-.02-.04-.03c0,0,0,0,0,0-.01,0-.03-.02-.04-.03h0c-.05-.04-.11-.07-.16-.11h0s-.03-.02-.04-.03h0s-.03-.02-.05-.03h0c-.05-.04-.11-.07-.16-.11h0s-.03-.02-.04-.03h0s-.03-.02-.04-.03h0s-.08-.05-.11-.08c0,0,0,0,0,0-.01,0-.02-.02-.04-.02,0,0,0,0-.01,0-.01,0-.02-.01-.03-.02,0,0,0,0-.01,0,0,0-.02-.01-.03-.02,0,0-.01,0-.02-.01h-.02s-.02-.02-.03-.03c0,0-.01,0-.02-.01,0,0-.02-.01-.03-.02h-.01s-.02-.02-.03-.03c0,0,0,0-.01,0,0,0-.02-.01-.03-.02,0,0,0,0,0,0-.01,0-.02-.02-.04-.02h0s-.03-.02-.04-.03c0,0,0,0,0,0-.01,0-.03-.02-.04-.03,0,0,0,0,0,0-.23-.15-.45-.31-.67-.46h0Zm4.39,2.82l-2.99,5.05c1.01.6,2.04,1.18,3.07,1.73l2.77-5.18c-.17-.09-.35-.19-.52-.28h0s-.03-.02-.04-.02c0,0,0,0,0,0,0,0-.02,0-.02-.01,0,0-.02,0-.03-.01,0,0-.01,0-.02-.01-.01,0-.02,0-.03-.01,0,0-.01,0-.02-.01,0,0-.02,0-.02-.01,0,0-.01,0-.02-.01,0,0-.02-.01-.03-.02h0s-.02-.02-.04-.03c0,0,0,0,0,0-.01,0-.02-.01-.04-.02,0,0,0,0,0,0-.01,0-.03-.01-.04-.02,0,0,0,0,0,0-.4-.22-.8-.45-1.2-.67,0,0,0,0,0,0-.01,0-.03-.02-.04-.02,0,0,0,0,0,0-.01,0-.03-.02-.04-.02,0,0,0,0,0,0-.01,0-.03-.02-.04-.02,0,0,0,0,0,0-.01,0-.02-.01-.04-.02,0,0,0,0,0,0-.01,0-.02-.01-.04-.02,0,0,0,0-.01,0-.01,0-.02-.01-.03-.02,0,0,0,0-.01,0-.01,0-.02-.01-.03-.02h-.01s-.02-.02-.03-.03c0,0,0,0-.01,0,0,0-.01,0-.02-.01,0,0-.02,0-.02-.01,0,0-.01,0-.02-.01,0,0-.02-.01-.03-.02,0,0-.01,0-.02-.01h-.02s-.02-.02-.02-.03c0,0-.02,0-.02-.01,0,0,0,0,0,0-.01,0-.03-.02-.04-.02,0,0,0,0,0,0-.01,0-.03-.02-.04-.03h0s-.07-.04-.11-.07h0Zm4.58,2.5l-2.63,5.25c1.05.52,2.12,1.03,3.18,1.51l2.4-5.36c-.99-.44-1.98-.91-2.95-1.4h0Zm4.75,2.17l-2.25,5.42c1.08.45,2.18.88,3.28,1.28l2.01-5.52c-1.02-.37-2.04-.77-3.04-1.18h0Zm4.89,1.83l-1.86,5.57c1.11.37,2.24.72,3.37,1.04l1.61-5.65c-1.02-.29-2.03-.6-3.04-.94h0s-.03-.01-.05-.02h0s-.01,0-.02,0h0Zm5.01,1.48l-1.46,5.69c1.13.29,2.29.56,3.43.8l1.21-5.75c-.64-.13-1.27-.28-1.9-.43h0s-.02,0-.02,0h0s-.01,0-.02,0h0s-.01,0-.02,0c0,0,0,0,0,0,0,0-.01,0-.02,0,0,0,0,0,0,0h-.02s-.04-.01-.06-.02c0,0,0,0,0,0,0,0-.02,0-.02,0,0,0,0,0,0,0,0,0-.02,0-.02,0,0,0,0,0,0,0-.35-.08-.69-.17-1.04-.26h0Zm5.1,1.12l-1.05,5.78c1.15.21,2.32.4,3.48.56l.8-5.82c-.29-.04-.58-.08-.86-.12h0s-.01,0-.02,0c0,0-.01,0-.01,0,0,0,0,0-.01,0,0,0-.01,0-.02,0,0,0,0,0,0,0,0,0-.01,0-.02,0,0,0,0,0,0,0-.74-.11-1.47-.23-2.21-.37h0s-.01,0-.02,0c0,0,0,0-.01,0,0,0,0,0-.01,0,0,0,0,0,0,0h0Zm5.17.76l-.64,5.84c1.16.13,2.34.23,3.51.31l.39-5.86c-1.09-.07-2.17-.17-3.25-.29h0Zm5.21.39l-.23,5.87c1.07.04,2.17.06,3.24.06h.27s-.02-5.87-.02-5.87c-.02,0-.04,0-.06,0h-.02c-.06,0-.12,0-.18,0h-.05s-.03,0-.04,0h-.05s-.03,0-.04,0h-.01s-.02,0-.04,0h0s-.03,0-.04,0c0,0,0,0-.01,0-.01,0-.02,0-.04,0h-.01s-.02,0-.03,0h-.01s-.02,0-.04,0h-.01s-.02,0-.03,0h-.01s-.02,0-.04,0c0,0-.01,0-.02,0,0,0-.02,0-.03,0,0,0-.02,0-.02,0-.01,0-.02,0-.03,0,0,0-.01,0-.02,0-.01,0-.01,0-.02,0,0,0-.02,0-.03,0,0,0-.01,0-.02,0,0,0-.01,0-.02,0,0,0-.02,0-.03,0,0,0-.02,0-.03,0,0,0-.01,0-.02,0-.01,0-.02,0-.04,0,0,0-.01,0-.02,0,0,0-.02,0-.02,0,0,0,0,0-.01,0-.01,0-.03,0-.04,0,0,0,0,0-.01,0,0,0-.02,0-.03,0,0,0,0,0-.01,0-.01,0-.03,0-.05,0,0,0,0,0,0,0-.03,0-.06,0-.08,0h0s-.06,0-.09,0h0c-.24,0-.48,0-.71-.01h0s-.06,0-.09,0h0s-.06,0-.08,0c0,0,0,0,0,0-.01,0-.03,0-.04,0,0,0,0,0-.01,0,0,0-.02,0-.02,0,0,0,0,0-.01,0h-.04s-.01,0-.02,0c0,0-.01,0-.02,0-.01,0-.02,0-.03,0,0,0-.01,0-.02,0,0,0-.02,0-.03,0,0,0,0,0-.01,0-.01,0-.03,0-.04,0,0,0,0,0-.01,0-.01,0-.03,0-.04,0,0,0,0,0,0,0-.01,0-.03,0-.04,0,0,0,0,0,0,0-.17,0-.34-.01-.51-.02h0Zm8.48-.14c-1.08.08-2.17.13-3.26.17l.17,5.87c1.17-.03,2.35-.09,3.51-.18l-.43-5.86h0Zm5.19-.56c-1.07.15-2.15.29-3.24.39l.58,5.84c1.16-.12,2.34-.26,3.5-.43l-.84-5.81h0Zm5.14-.93s-.07.02-.11.02h0s-.02,0-.02,0c0,0,0,0,0,0,0,0-.01,0-.02,0,0,0,0,0,0,0,0,0-.01,0-.02,0,0,0,0,0-.01,0,0,0,0,0-.01,0,0,0,0,0-.01,0,0,0,0,0,0,0-.39.08-.78.16-1.17.24,0,0,0,0,0,0,0,0-.02,0-.02,0,0,0,0,0,0,0,0,0-.01,0-.02,0,0,0,0,0,0,0,0,0-.01,0-.02,0,0,0,0,0,0,0,0,0-.01,0-.02,0,0,0,0,0,0,0-.01,0-.02,0-.04,0,0,0,0,0,0,0,0,0,0,0-.01,0,0,0,0,0-.01,0,0,0,0,0-.01,0,0,0-.01,0-.02,0,0,0,0,0,0,0,0,0-.01,0-.02,0,0,0,0,0,0,0,0,0-.01,0-.02,0,0,0,0,0,0,0,0,0-.01,0-.02,0h0c-.5.1-1.01.19-1.51.28l.99,5.79c1.15-.2,2.32-.42,3.46-.67l-1.25-5.74h0Zm5.06-1.29c-.41.12-.82.24-1.24.35h0s-.04.01-.05.02h0s-.05.02-.08.02h0s-.02,0-.02,0c0,0,0,0-.01,0,0,0-.01,0-.02,0,0,0,0,0-.01,0,0,0,0,0-.01,0,0,0,0,0-.01,0,0,0,0,0-.01,0,0,0,0,0-.01,0,0,0,0,0-.01,0,0,0,0,0-.02,0,0,0,0,0,0,0,0,0-.01,0-.02,0,0,0,0,0,0,0-.03,0-.06.02-.1.03,0,0,0,0,0,0,0,0-.02,0-.02,0,0,0,0,0,0,0-.49.13-.99.26-1.48.38l1.4,5.7c1.14-.28,2.28-.59,3.4-.92l-1.65-5.64h0Zm4.95-1.64s0,0-.01,0c0,0-.01,0-.02,0,0,0-.02,0-.03.01,0,0-.01,0-.02,0,0,0-.02,0-.03,0,0,0-.02,0-.02,0,0,0-.01,0-.02,0,0,0-.02,0-.03,0,0,0-.02,0-.03,0,0,0,0,0-.02,0-.01,0-.02,0-.04.01,0,0,0,0-.01,0-.01,0-.03,0-.04.01,0,0,0,0-.01,0l-.04.02s0,0,0,0c-.03,0-.05.02-.08.03,0,0,0,0,0,0-.02,0-.03.01-.05.02,0,0,0,0,0,0-.02,0-.03.01-.05.02h0c-.14.05-.28.1-.43.15h0c-.08.03-.16.06-.24.08h0s-.03.01-.05.02h0s-.09.03-.13.05h0s-.03.01-.05.02h0s-.03.01-.05.02h0s-.09.03-.13.05c0,0,0,0,0,0-.01,0-.03,0-.04.01,0,0,0,0,0,0-.01,0-.03,0-.04.01,0,0,0,0,0,0-.02,0-.03.01-.05.02,0,0,0,0,0,0,0,0-.02,0-.02,0,0,0-.01,0-.02,0-.01,0-.02,0-.04.01,0,0,0,0-.01,0-.01,0-.02,0-.04.01,0,0-.01,0-.02,0-.01,0-.02,0-.03.01,0,0-.01,0-.02,0,0,0-.01,0-.02,0,0,0-.02,0-.03.01,0,0-.01,0-.02,0,0,0-.02,0-.02,0,0,0-.02,0-.03,0,0,0-.01,0-.02,0,0,0-.02,0-.03,0,0,0-.01,0-.02,0,0,0-.02,0-.03,0,0,0-.02,0-.02,0,0,0-.01,0-.02,0,0,0-.02,0-.03.01,0,0-.01,0-.02,0-.01,0-.02,0-.03.01,0,0-.01,0-.02,0,0,0-.02,0-.03,0,0,0-.01,0-.02,0,0,0-.02,0-.03,0,0,0-.01,0-.02,0-.01,0-.02,0-.04.01,0,0-.01,0-.01,0-.01,0-.02,0-.04.01,0,0,0,0-.01,0-.01,0-.02,0-.04.01,0,0,0,0-.01,0-.01,0-.02,0-.03.01,0,0,0,0-.01,0-.01,0-.02,0-.03.01,0,0,0,0-.01,0-.01,0-.03,0-.04.01,0,0,0,0-.01,0-.01,0-.02,0-.04.01,0,0,0,0-.01,0-.01,0-.03,0-.04.01,0,0,0,0-.01,0-.01,0-.03,0-.04.01,0,0,0,0,0,0-.01,0-.03,0-.04.01h0s-.03.01-.04.02c0,0,0,0-.01,0-.01,0-.03,0-.04.01h-.01s-.03.01-.04.02c0,0,0,0,0,0l1.8,5.59c1.11-.36,2.23-.75,3.33-1.15l-2.05-5.51h0Zm4.83-1.99c-.27.12-.54.25-.82.37h0s-.03.01-.04.02c0,0,0,0,0,0,0,0-.02,0-.02.01,0,0-.02,0-.02.01,0,0-.02,0-.02.01,0,0-.02,0-.03.01,0,0-.01,0-.02,0,0,0-.02,0-.03.01,0,0,0,0-.01,0-.01,0-.02,0-.04.02,0,0,0,0-.01,0-.01,0-.03.01-.04.02,0,0,0,0,0,0-.01,0-.03.01-.04.02,0,0,0,0,0,0-.61.26-1.22.52-1.83.77l2.19,5.45c1.08-.44,2.17-.9,3.24-1.39l-2.43-5.35h0Zm4.67-2.33c-.19.1-.38.2-.57.3h0s-.05.03-.07.04h0s-.03.02-.04.02c0,0,0,0-.01,0-.01,0-.02.01-.03.02,0,0-.01,0-.02,0,0,0-.02,0-.03.01,0,0-.01,0-.02.01,0,0-.01,0-.02.01-.01,0-.02,0-.03.01,0,0-.01,0-.02,0,0,0-.02.01-.03.02,0,0-.01,0-.02,0-.01,0-.02.01-.03.02,0,0,0,0-.01,0-.01,0-.02.01-.03.02,0,0,0,0-.01,0-.01,0-.02.01-.03.02,0,0,0,0,0,0-.01,0-.02.01-.04.02,0,0,0,0-.01,0-.01,0-.02.01-.04.02,0,0,0,0,0,0-.01,0-.02.01-.04.02,0,0,0,0,0,0-.01,0-.03.01-.04.02,0,0,0,0,0,0-.01,0-.03.01-.04.02,0,0,0,0,0,0-.01,0-.03.01-.04.02,0,0,0,0,0,0-.01,0-.02.01-.04.02,0,0,0,0,0,0-.01,0-.03.01-.04.02,0,0,0,0,0,0-.01,0-.03.01-.04.02,0,0,0,0,0,0-.03.02-.06.03-.09.04h0s-.03.02-.04.02c0,0,0,0,0,0-.01,0-.03.01-.04.02h0s-.03.02-.04.02c0,0,0,0,0,0-.01,0-.03.01-.04.02,0,0,0,0,0,0-.03.01-.06.03-.09.04,0,0,0,0,0,0-.01,0-.03.01-.04.02h0s-.03.02-.04.02c0,0,0,0,0,0-.01,0-.03.01-.04.02,0,0,0,0,0,0-.03.02-.06.03-.09.05h0s-.03.02-.04.02h0s-.03.02-.04.02h0s-.03.02-.04.02c0,0,0,0,0,0-.01,0-.03.01-.04.02,0,0,0,0,0,0l-.04.02h0s-.03.01-.04.02h0s-.03.02-.04.02c0,0,0,0,0,0-.01,0-.03.01-.04.02,0,0,0,0,0,0-.01,0-.03.01-.04.02h0s-.03.02-.04.02c0,0,0,0,0,0-.01,0-.03.01-.04.02,0,0,0,0,0,0-.01,0-.03.01-.04.02,0,0,0,0,0,0-.01,0-.03.01-.04.02,0,0,0,0,0,0-.01,0-.03.01-.04.02,0,0,0,0,0,0-.01,0-.03.01-.04.02,0,0,0,0,0,0-.01,0-.02.01-.04.02,0,0,0,0,0,0-.01,0-.03.01-.04.02,0,0,0,0,0,0-.01,0-.03.01-.04.02,0,0,0,0,0,0-.01,0-.02.01-.04.02,0,0,0,0,0,0l2.57,5.28c1.05-.51,2.1-1.05,3.13-1.61l-2.8-5.16h0Zm4.5-2.65s-.09.05-.13.08h0c-.07.04-.14.09-.21.14,0,0,0,0,0,0-.01,0-.03.02-.04.03,0,0,0,0,0,0-.01,0-.03.02-.04.03,0,0,0,0,0,0-.01,0-.03.02-.04.03,0,0,0,0,0,0-.01,0-.03.02-.04.03,0,0,0,0,0,0-.02,0-.03.02-.04.03h0s-.03.02-.04.03c0,0,0,0,0,0-.01,0-.02.02-.04.02,0,0,0,0,0,0-.01,0-.03.02-.04.02,0,0,0,0,0,0-.01,0-.02.01-.04.02,0,0,0,0,0,0-.01,0-.03.02-.04.02,0,0,0,0,0,0-.01,0-.02.02-.04.02,0,0,0,0,0,0-.01,0-.02.01-.04.02,0,0,0,0-.01,0-.01,0-.02.01-.03.02,0,0,0,0-.01,0-.01,0-.02.01-.03.02,0,0,0,0-.01,0-.01,0-.02.01-.03.02h-.01s-.02.02-.03.02c0,0-.01,0-.02,0,0,0-.02.01-.03.02,0,0,0,0-.01,0-.01,0-.02.01-.03.02h-.01s-.02.02-.03.03c0,0,0,0-.01,0,0,0-.02.01-.03.02,0,0,0,0-.01,0,0,0-.02.01-.03.02,0,0-.01,0-.02,0,0,0-.02.01-.02.02h-.02s-.02.02-.03.03c0,0,0,0-.01,0,0,0-.02.01-.03.02,0,0-.01,0-.02,0,0,0-.02.01-.03.02,0,0-.01,0-.02,0-.01,0-.02.01-.03.02,0,0-.01,0-.01,0,0,0-.02.01-.03.02,0,0-.01,0-.02.01,0,0-.02,0-.02.01,0,0-.01,0-.02.01-.01,0-.02,0-.03.02,0,0,0,0-.01,0-.01,0-.02.01-.03.02,0,0,0,0-.01,0-.01,0-.02.01-.03.02,0,0,0,0-.01,0-.01,0-.02.01-.03.02,0,0,0,0-.01,0-.01,0-.02.01-.03.02,0,0,0,0,0,0-.01,0-.02.01-.03.02,0,0,0,0,0,0-.01,0-.02.01-.04.02,0,0,0,0,0,0-.01,0-.02.01-.04.02,0,0,0,0,0,0-.01,0-.03.02-.04.02h0s-.03.02-.04.03c0,0,0,0,0,0-.26.16-.53.31-.79.46l2.94,5.09c1.01-.58,2.02-1.2,3.01-1.83l-3.16-4.95h0Zm4.3-2.96c-.87.65-1.76,1.28-2.66,1.89l3.29,4.87c.97-.65,1.93-1.34,2.87-2.04l-3.5-4.72h0Zm4.08-3.26c-.82.71-1.67,1.4-2.52,2.07l3.62,4.62c.92-.72,1.84-1.47,2.72-2.23l-3.82-4.46h0Zm3.84-3.53s0,0,0,0c0,0-.02.02-.03.03,0,0,0,0,0,0,0,0-.02.02-.03.03,0,0,0,0-.01,0,0,0-.02.02-.03.03,0,0,0,0-.01.01,0,0-.02.02-.03.03,0,0,0,0-.01.01,0,0-.02.02-.02.02,0,0,0,0-.01.01,0,0-.01.01-.02.02,0,0-.01.01-.02.02,0,0-.01.01-.02.02,0,0-.01.01-.02.02,0,0-.01.01-.02.02l-.02.02s-.01.01-.02.02c0,0-.01.01-.02.02,0,0-.01.01-.02.02,0,0-.01.01-.02.02,0,0,0,0-.01.01,0,0-.02.02-.03.03,0,0,0,0,0,0-.01.01-.02.02-.03.03,0,0,0,0,0,0-.01.01-.02.02-.03.03,0,0,0,0,0,0-.05.04-.09.09-.14.13h0s-.03.03-.04.04h0c-.22.21-.44.42-.66.63h0s-.03.03-.04.04h0s-.07.06-.1.09c0,0,0,0,0,0l-.04.03s0,0,0,0c0,0-.02.02-.03.03,0,0,0,0-.01.01,0,0-.02.02-.02.02,0,0,0,0-.01.01,0,0-.01.01-.02.02,0,0-.01.01-.02.02,0,0,0,0-.01.01,0,0-.02.02-.02.02,0,0,0,0-.01.01,0,0-.02.02-.03.02,0,0,0,0-.01,0-.01,0-.02.02-.03.03,0,0,0,0,0,0,0,0-.02.02-.03.03h0s-.02.02-.03.03c0,0,0,0,0,0-.01.01-.02.02-.03.03,0,0,0,0,0,0-.01.01-.02.02-.04.03,0,0,0,0,0,0-.15.14-.3.28-.45.41l3.94,4.36c.87-.78,1.73-1.6,2.56-2.42l-4.13-4.18h0Zm3.58-3.79c-.04.05-.09.1-.13.15,0,0,0,0,0,0-.01.01-.02.02-.03.04,0,0,0,0,0,0-.01.01-.02.02-.03.03,0,0,0,0,0,0,0,.01-.02.02-.03.03,0,0,0,0,0,0,0,0-.02.02-.03.03h-.01s-.02.03-.02.04c0,0,0,0-.01.01,0,0-.01.02-.02.02,0,0-.01.01-.01.02,0,0,0,0-.01.01,0,0-.02.02-.03.03,0,0,0,0,0,0,0,.01-.02.02-.03.03,0,0,0,0,0,0-.01.01-.02.02-.03.04h0c-.57.64-1.15,1.27-1.75,1.88l4.23,4.07c.81-.84,1.61-1.71,2.38-2.59l-4.41-3.88h0Zm3.31-4.04c-.51.67-1.03,1.33-1.56,1.98h0s-.02.03-.03.04c0,0,0,0,0,0,0,0-.01.02-.02.03,0,0,0,.01-.01.02,0,0,0,.01-.01.02,0,0-.01.02-.02.02,0,0,0,.01-.01.02,0,0-.01.02-.02.02,0,0,0,0-.01.01,0,0-.01.02-.02.02,0,0,0,0-.01.01,0,0-.02.02-.02.03,0,0,0,0,0,0,0,.01-.02.02-.03.03,0,0,0,0,0,0-.01.01-.02.02-.03.03,0,0,0,0,0,0,0,.01-.02.02-.03.04,0,0,0,0,0,0-.05.06-.11.13-.16.19l4.51,3.76c.75-.9,1.49-1.82,2.2-2.75l-4.67-3.56h0Zm3.02-4.26s0,0,0,0c0,0-.01.02-.02.03,0,0,0,0,0,.01,0,0-.01.02-.02.03,0,0,0,0,0,.01,0,0-.01.02-.02.03,0,0,0,0,0,.01,0,0-.01.02-.02.03,0,0,0,.01-.01.02,0,0-.01.02-.02.03,0,0,0,0,0,.01,0,0-.01.02-.02.03h0s-.01.03-.02.04c0,0,0,0,0,.01,0,0-.01.02-.02.03,0,0,0,0,0,.01,0,0-.01.02-.02.03,0,0,0,0,0,.01,0,0-.01.02-.02.03,0,0,0,.01-.01.02,0,0-.01.02-.02.03,0,0,0,0,0,.01,0,0-.01.02-.02.03,0,0,0,.01-.01.02,0,0-.01.02-.02.03,0,0,0,.01-.01.02,0,0-.01.02-.02.03,0,0,0,.01-.01.02,0,0,0,.01-.01.02l-.02.02s0,.01-.01.02c0,0-.01.02-.02.03,0,0,0,.01-.01.02,0,0-.01.02-.02.02,0,0,0,.01-.01.02,0,0,0,.01-.01.02,0,0-.01.02-.02.03,0,0,0,.01-.01.02,0,0,0,0,0,.01,0,.01-.01.02-.02.03,0,0,0,0,0,.01,0,.01-.02.02-.02.04,0,0,0,0,0,0,0,.01-.02.03-.03.04,0,0,0,0,0,0-.4.58-.8,1.16-1.21,1.73l4.76,3.44c.68-.95,1.36-1.92,2-2.9l-4.91-3.23h0Zm2.71-4.46c-.23.41-.47.83-.71,1.24,0,0,0,0,0,0,0,.01-.02.03-.02.04,0,0,0,0,0,0,0,.01-.02.03-.02.04h0s-.01.03-.02.04h0s-.01.03-.02.04c0,0,0,0,0,0,0,.01-.01.03-.02.04,0,0,0,0,0,0,0,.01-.01.02-.02.04,0,0,0,0,0,0,0,.01-.01.02-.02.03,0,0,0,0,0,.01,0,.01-.01.02-.02.03,0,0,0,0,0,.01,0,.01-.01.02-.02.03,0,0,0,0,0,.01,0,0-.01.02-.01.02,0,0,0,.01-.01.02,0,0,0,.02-.01.02,0,0,0,.02-.01.02,0,0,0,.01-.01.02,0,0-.01.02-.02.03,0,0,0,.01-.01.02,0,0,0,.01-.01.02,0,0,0,0,0,.01,0,.01-.01.02-.02.04,0,0,0,0,0,0,0,.01-.02.03-.03.04h0c-.18.3-.36.6-.54.89l4.99,3.1c.62-.99,1.22-2.01,1.79-3.03l-5.12-2.87h0Zm2.39-4.64c-.05.11-.11.23-.16.34h0s-.01.03-.02.05h0s-.01.03-.02.05c0,0,0,0,0,0-.01.02-.02.05-.04.07,0,0,0,0,0,.01,0,.01-.01.02-.02.04,0,0,0,0,0,.02,0,.01-.01.02-.02.03,0,0,0,.01,0,.01l-.02.03s0,.01,0,.02c0,0,0,.02-.01.02,0,0,0,.02-.01.02,0,0,0,.01-.01.02,0,0,0,.02-.01.03,0,0,0,.01,0,.02,0,0,0,.01,0,.02,0,0,0,.02-.01.03,0,0,0,.01,0,.02v.03s-.02.02-.02.02c0,0,0,.01,0,.02,0,.01,0,.02-.01.03,0,0,0,.01,0,.02,0,.01-.01.02-.02.03,0,0,0,.01,0,.02l-.02.03s0,.01,0,.02c0,0,0,.02-.01.03,0,0,0,.01-.01.02v.02s-.02,0-.02.01c0,.01-.01.02-.02.03,0,0,0,0,0,.01,0,.01-.01.02-.02.03h0s-.01.04-.02.05c0,0,0,0,0,.01,0,.01-.01.02-.02.03h0s-.01.03-.02.04c0,0,0,0,0,0,0,.01-.01.02-.02.04,0,0,0,0,0,.01,0,.01-.01.02-.02.03,0,0,0,0,0,.01,0,.01-.01.02-.02.03,0,0,0,0,0,.01,0,.01-.01.02-.02.03,0,0,0,0,0,.01,0,.01-.01.02-.02.03,0,0,0,0,0,0,0,.01-.01.02-.02.03,0,0,0,0,0,0,0,.01-.01.02-.02.04,0,0,0,0,0,0,0,.01-.01.02-.02.04,0,0,0,0,0,0,0,.01-.01.03-.02.04,0,0,0,0,0,0,0,.01-.01.03-.02.04,0,0,0,0,0,0,0,.01-.01.02-.02.04,0,0,0,0,0,0,0,.01-.01.03-.02.04,0,0,0,0,0,0,0,.01-.01.02-.02.04,0,0,0,0,0,0,0,.01-.01.03-.02.04,0,0,0,0,0,0,0,.01-.01.03-.02.04,0,0,0,0,0,0,0,.01-.01.03-.02.04,0,0,0,0,0,0,0,.01-.01.02-.02.04,0,0,0,0,0,0,0,.01-.01.03-.02.04,0,0,0,0,0,0,0,.01-.01.02-.02.04,0,0,0,0,0,0,0,.01-.01.02-.02.04,0,0,0,0,0,0,0,.01-.01.03-.02.04,0,0,0,0,0,0,0,.01-.01.02-.02.04,0,0,0,0,0,0,0,.01-.01.03-.02.04,0,0,0,0,0,0,0,.01-.01.02-.02.04,0,0,0,0,0,.01,0,.01-.01.02-.02.04,0,0,0,0,0,.01,0,.01-.01.02-.02.04,0,0,0,0,0,.01,0,.01-.01.02-.02.03,0,0,0,0,0,.01,0,.01-.01.02-.02.03,0,0,0,0,0,.01,0,.01-.01.02-.02.03,0,0,0,0,0,.01,0,.01-.01.02-.02.03,0,0,0,.01,0,.02,0,.01-.01.02-.02.03,0,0,0,0,0,.01,0,0,0,.02-.01.03,0,0,0,.01-.01.02,0,0,0,.01-.01.02,0,0,0,.02-.01.02,0,0,0,.01-.01.02,0,0,0,0,0,.01l5.2,2.74c.54-1.03,1.07-2.1,1.57-3.15l-5.31-2.5h0Zm2.06-4.8c-.15.38-.3.76-.45,1.14,0,0,0,0,0,0,0,.02-.01.03-.02.05,0,0,0,0,0,0,0,.02-.01.03-.02.05,0,0,0,0,0,0,0,.02-.01.03-.02.05,0,0,0,0,0,0,0,.01-.01.03-.02.04,0,0,0,0,0,.01,0,.01-.01.03-.01.04,0,0,0,0,0,.01,0,.01,0,.02-.01.03,0,0,0,.01,0,.02,0,0,0,.02-.01.03,0,0,0,.02-.01.03,0,0,0,.01,0,.02,0,.01-.01.03-.02.04,0,0,0,0,0,0-.2.49-.41.98-.63,1.47l5.38,2.36c.47-1.07.92-2.17,1.34-3.26l-5.48-2.12h0Zm1.71-4.93c-.06.2-.12.39-.18.58,0,0,0,0,0,0,0,.01-.01.03-.01.05,0,0,0,0,0,0,0,.01,0,.03-.01.04,0,0,0,0,0,0,0,.01,0,.02-.01.03,0,0,0,.01,0,.02,0,0,0,.02,0,.03,0,0,0,.02,0,.03,0,0,0,.01,0,.02,0,0,0,.01,0,.02,0,0,0,.02,0,.03,0,0,0,.02,0,.03,0,0,0,0,0,0,0,.02-.01.03-.02.05h0c-.17.53-.35,1.06-.53,1.59,0,0,0,0,0,0l-.02.04s0,.01,0,.02c0,.01,0,.02-.01.03,0,0,0,.01,0,.02,0,0,0,.01,0,.02,0,.01,0,.02-.01.03,0,0,0,.01,0,.02,0,.01,0,.02-.01.04,0,0,0,0,0,0,0,.02,0,.03-.01.04,0,0,0,0,0,0-.03.1-.07.19-.1.29l5.53,1.97c.39-1.1.77-2.23,1.11-3.34l-5.61-1.73h0Zm1.36-5.04c-.25,1.06-.51,2.12-.81,3.16l5.66,1.58c.31-1.13.61-2.27.87-3.41l-5.72-1.32h0Zm1-5.12c-.02.14-.04.27-.07.41h0s0,.02,0,.03c0,0,0,0,0,.01,0,0,0,0,0,.01,0,0,0,.01,0,.02,0,0,0,0,0,0,0,0,0,.01,0,.02,0,0,0,0,0,0-.15.91-.32,1.81-.5,2.7l5.76,1.17c.23-1.14.44-2.31.63-3.47l-5.8-.92h0Zm.63-5.18c-.03.35-.06.71-.1,1.07,0,0,0,0,0,0,0,0,0,.01,0,.02,0,0,0,0,0,0,0,0,0,.01,0,.02,0,0,0,0,0,0,0,0,0,.01,0,.02,0,0,0,0,0,0,0,0,0,.01,0,.02,0,0,0,0,0,.01,0,0,0,.01,0,.02,0,0,0,.02,0,.02,0,0,0,0,0,0,0,0,0,.01,0,.02,0,0,0,0,0,0v.02s0,0,0,0c0,0,0,.02,0,.02h0s0,.02,0,.03h0c-.07.64-.14,1.27-.22,1.9l5.82.76c.15-1.16.28-2.33.38-3.5l-5.85-.51h0Zm.27-5.21c0,.32-.01.65-.02.97h0s0,.02,0,.03c0,0,0,0,0,0,0,0,0,.01,0,.02,0,0,0,0,0,0,0,.02,0,.05,0,.07,0,0,0,0,0,0,0,0,0,0,0,.02,0,0,0,0,0,.01,0,0,0,.01,0,.02,0,0,0,0,0,.01,0,0,0,0,0,.01,0,0,0,0,0,.01,0,0,0,0,0,.01v.02s0,0,0,0c0,0,0,.02,0,.03h0s0,.02,0,.03c0,0,0,0,0,0v.02s0,0,0,0c0,0,0,.01,0,.02,0,0,0,0,0,0,0,0,0,.01,0,.02,0,0,0,0,0,0,0,.03,0,.06,0,.09h0s0,.02,0,.03h0s0,.02,0,.03h0s0,.02,0,.03h0s0,.08,0,.12h0s0,.02,0,.03h0s0,.02,0,.03h0s0,.06,0,.09h0s0,.02,0,.03c0,0,0,0,0,0,0,0,0,.01,0,.02h0s0,.02,0,.03c0,0,0,0,0,0,0,0,0,.02,0,.02h0s0,.04,0,.06c0,0,0,0,0,0,0,0,0,.01,0,.02,0,0,0,0,0,0v.02s0,0,0,.01v.02s0,0,0,.01h0s0,.03,0,.03c0,0,0,0,0,.01,0,.01,0,.02,0,.03,0,0,0,0,0,0,0,0,0,.01,0,.02,0,0,0,0,0,0,0,0,0,.01,0,.02,0,0,0,0,0,.01,0,0,0,.01,0,.02,0,0,0,0,0,.01,0,0,0,.01,0,.02,0,0,0,0,0,0,0,.04,0,.08,0,.12h0s0,.02,0,.03h0c-.01.28-.03.56-.05.84l5.86.35c.07-1.16.12-2.35.13-3.52l-5.87-.1h0Zm5.77-5.53l-5.87.31c.02.37.04.74.05,1.12h0s0,.08,0,.13h0s0,.02,0,.02c0,0,0,0,0,0,0,.01,0,.01,0,.02h0s0,.09,0,.12h0s0,.02,0,.03c0,0,0,0,0,0,0,0,0,.02,0,.02,0,0,0,0,0,0,0,0,0,.01,0,.02h0s0,.07,0,.1h0s0,.02,0,.02c0,0,0,0,0,0,0,0,0,.02,0,.02,0,0,0,0,0,0,0,0,0,.02,0,.02h0s0,.07,0,.1h0s0,.02,0,.02h0s0,.02,0,.03h0s0,.09,0,.13h0s0,.02,0,.02h0s0,.02,0,.03h0s0,.02,0,.03h0s0,.07,0,.1h0s0,.02,0,.03c0,0,0,0,0,0,0,0,0,.01,0,.02h0s0,.02,0,.03c0,0,0,0,0,0,0,.02,0,.05,0,.07,0,0,0,0,0,0,0,0,0,.01,0,.02,0,0,0,0,0,0,0,0,0,.01,0,.02,0,0,0,0,0,.01,0,0,0,.01,0,.02,0,0,0,0,0,.01,0,0,0,0,0,.01,0,0,0,0,0,.01,0,0,0,0,0,.01,0,0,0,.02,0,.03,0,0,0,0,0,0,0,0,0,.01,0,.02,0,0,0,0,0,.01,0,0,0,.01,0,.02,0,0,0,0,0,.01,0,0,0,0,0,.01,0,0,0,0,0,.01,0,0,0,.01,0,.02,0,0,0,0,0,0,0,0,0,.02,0,.03h0s0,.04,0,.06h0s0,.02,0,.03h0s0,.02,0,.03h0c0,.18,0,.37,0,.55l5.87-.05c-.01-1.17-.05-2.35-.11-3.52h0Zm-.49-5.61l-5.83.72c.02.15.04.3.05.45,0,0,0,0,0,0,0,0,0,.01,0,.01,0,0,0,0,0,.01,0,0,0,0,0,.01,0,0,0,.01,0,.02,0,0,0,0,0,0,0,0,0,.01,0,.02,0,0,0,0,0,0v.02s0,0,0,0c.04.36.08.72.12,1.08h0s0,.02,0,.03h0s0,.02,0,.03h0s0,.02,0,.03c0,0,0,0,0,0,0,0,0,.02,0,.02h0s0,.02,0,.03c0,0,0,0,0,.01,0,0,0,.01,0,.02,0,0,0,0,0,.01,0,0,0,0,0,.01,0,0,0,.01,0,.02,0,0,0,0,0,0,0,0,0,.02,0,.02,0,0,0,0,0,0,0,0,0,.02,0,.02h0c.04.44.08.88.12,1.32l5.86-.46c-.09-1.17-.21-2.34-.35-3.5h0Zm-.89-5.56l-5.76,1.13c.04.19.08.39.11.58h0s0,.02,0,.03h0s0,.02,0,.02c0,0,0,0,0,.01,0,0,0,0,0,.01,0,0,0,.01,0,.01,0,0,0,0,0,0,.16.84.3,1.68.43,2.53l5.81-.87c-.17-1.16-.38-2.32-.6-3.47h0Zm-1.28-5.49l-5.67,1.54c.12.44.23.87.34,1.31,0,0,0,0,0,0,0,0,0,.01,0,.02,0,0,0,0,0,.01,0,0,0,0,0,.01,0,0,0,.01,0,.01,0,0,0,0,0,.01,0,0,0,.01,0,.02,0,0,0,0,0,0,.15.58.28,1.17.42,1.76l5.73-1.28c-.26-1.14-.54-2.29-.85-3.42h0Zm-1.67-5.39l-5.55,1.93c.14.39.27.78.4,1.17h0s.01.03.02.05h0s0,.04.01.05c0,0,0,0,0,.01,0,.02.01.03.01.05,0,0,0,0,0,0,0,0,0,.02,0,.03,0,0,0,0,0,0,0,.01,0,.03.01.04,0,0,0,0,0,.02,0,.01,0,.02.01.03,0,0,0,.01,0,.02,0,0,0,.02,0,.03,0,0,0,.02,0,.02,0,0,0,.01,0,.02,0,.01,0,.02.01.03,0,0,0,.01,0,.02,0,.01,0,.02.01.03,0,0,0,.01,0,.02,0,0,0,.02,0,.03,0,0,0,.01,0,.02,0,0,0,.02,0,.03,0,0,0,.01,0,.02,0,.01,0,.02.01.03,0,0,0,.01,0,.02,0,.01,0,.02.01.04,0,0,0,0,0,.01,0,.01,0,.03.01.04h0s0,.04.01.05c0,0,0,0,0,0,0,.01,0,.03.01.04,0,0,0,0,0,0,0,.01,0,.03.01.04,0,0,0,0,0,.01,0,.01,0,.03.01.04,0,0,0,0,0,0,0,.01,0,.03.01.04,0,0,0,0,0,0,0,.01,0,.03.01.04,0,0,0,0,0,0,0,.02,0,.03.01.04,0,0,0,0,0,0,0,.02,0,.03.01.04,0,0,0,0,0,0,0,.01,0,.03.01.04,0,0,0,0,0,0,0,.02,0,.03.01.04,0,0,0,0,0,0,0,.03.02.06.03.09,0,0,0,0,0,0,0,.02,0,.03.01.05,0,0,0,0,0,0,0,.01,0,.03.01.05,0,0,0,0,0,0,.01.05.03.1.04.14,0,0,0,0,0,0,0,.02,0,.03.01.05,0,0,0,0,0,0,0,.02,0,.03.01.05,0,0,0,0,0,0,.02.05.03.1.04.15h0s0,.03.01.05h0s.02.07.03.1l5.63-1.69c-.34-1.12-.7-2.25-1.09-3.35h0Zm-2.04-5.25l-5.4,2.32c.43,1,.84,2,1.22,3.03l5.49-2.08c-.41-1.09-.86-2.19-1.32-3.27h0Zm-2.41-5.09l-5.22,2.7s0,0,0,0c0,.01.01.03.02.04,0,0,0,0,0,0,0,.01.01.03.02.04,0,0,0,0,0,0,0,.01.01.03.02.04,0,0,0,0,0,0,0,.01.01.03.02.04h0s.01.03.02.04c0,0,0,0,0,0,0,.01.01.03.02.04,0,0,0,0,0,0,0,.01.01.03.02.04,0,0,0,0,0,0,0,.01.01.03.02.04,0,0,0,0,0,0,0,.01.01.03.02.04,0,0,0,0,0,0,0,.01.01.03.02.04,0,0,0,0,0,0,0,.01.01.03.02.04,0,0,0,0,0,0,0,.01.01.03.02.04,0,0,0,0,0,0,0,.01.01.03.02.04,0,0,0,0,0,0l.02.04s0,0,0,0c.01.03.03.06.04.09,0,0,0,0,0,0,0,.01.01.03.02.04,0,0,0,0,0,0,0,.01.01.03.02.04,0,0,0,0,0,0,0,.01.01.03.02.04,0,0,0,0,0,0,.02.05.04.09.07.13,0,0,0,0,0,0,0,.01.01.03.02.04,0,0,0,0,0,0,0,.01.01.03.02.04,0,0,0,0,0,0,.23.47.46.95.69,1.42,0,0,0,0,0,0,0,.01.01.03.02.04,0,0,0,0,0,0,0,.01.01.03.02.04,0,0,0,0,0,0,0,.01.01.03.02.04,0,0,0,0,0,0,0,.01.01.03.02.04,0,0,0,0,0,0,0,.01.01.03.02.04,0,0,0,0,0,.01,0,.01.01.02.02.04,0,0,0,0,0,.01,0,.01.01.02.02.03,0,0,0,.01,0,.02,0,0,0,.02.01.03,0,0,0,.02.01.02,0,0,0,.01,0,.02,0,0,0,.01,0,.02l5.33-2.46c-.49-1.06-1.01-2.13-1.55-3.16h0Zm-2.76-4.91l-5.01,3.06c.57.93,1.11,1.87,1.64,2.82l5.14-2.84c-.56-1.02-1.16-2.05-1.77-3.05h0Zm-3.1-4.7l-4.79,3.4s0,0,0,0c0,.01.02.02.03.04,0,0,0,0,0,0,0,.01.02.02.03.04,0,0,0,0,0,0,0,.01.02.02.02.03,0,0,0,0,0,0,0,.01.02.02.02.03,0,0,0,0,0,0,0,0,.02.02.02.03h0s.02.03.02.04c0,0,0,0,0,0,0,0,.02.02.02.03,0,0,0,0,0,.01,0,.01.01.02.02.03,0,0,0,0,0,.01,0,.01.01.02.02.03h0s.01.03.02.04c0,0,0,0,0,0,0,0,.01.02.02.03,0,0,0,0,0,.01,0,0,.01.02.02.03,0,0,0,0,0,.01,0,0,.02.02.02.03,0,0,0,0,0,.01,0,.01.01.02.02.03,0,0,0,0,0,.01,0,0,.02.02.02.03,0,0,0,0,0,0,0,.01.02.02.02.03,0,0,0,0,0,0,0,.01.02.02.02.03,0,0,0,0,0,0,0,.01.02.02.03.04,0,0,0,0,0,0,0,.01.02.02.03.04h0s.02.03.03.04h0s.02.03.03.04c0,0,0,0,0,0,.42.6.82,1.21,1.22,1.82l4.93-3.19c-.63-.98-1.3-1.96-1.98-2.91h0Zm-3.42-4.47l-4.54,3.73c.1.12.2.24.29.35h0s.02.03.03.04c0,0,0,0,0,0,.01.01.02.02.03.04,0,0,0,0,0,0,0,.01.02.03.03.04,0,0,0,0,0,0,0,.01.02.02.03.03h0s.02.03.03.04c0,0,0,0,0,0,0,0,.02.02.02.03,0,0,0,0,0,.01,0,.01.01.02.02.03,0,0,0,0,.01.01,0,0,.01.02.02.03,0,0,0,0,.01.01,0,0,.01.01.02.02l.02.02s0,.01.01.01c0,0,.02.02.02.03,0,0,0,0,0,.01,0,.01.02.02.03.03,0,0,0,0,0,0,.42.53.84,1.06,1.24,1.6,0,0,0,0,0,0,0,.01.02.02.03.04,0,0,0,0,0,.01l.02.03s0,.01.01.02c0,0,0,.01.01.02,0,0,.01.02.02.03,0,0,0,0,0,0l4.7-3.53c-.7-.93-1.43-1.86-2.18-2.77h0Zm-3.73-4.22l-4.26,4.04c.75.79,1.48,1.6,2.19,2.42l4.44-3.85c-.77-.88-1.56-1.76-2.36-2.61h0Zm-4.01-3.95l-3.97,4.33h0s.02.02.03.03c0,0,0,0,0,0,.01,0,.02.02.03.03,0,0,0,0,0,0,.01,0,.02.02.03.03,0,0,0,0,0,0,.01,0,.02.02.03.03h0s.02.03.03.04h0s.02.02.03.04c0,0,0,0,0,0,.02.02.05.04.07.07,0,0,0,0,0,0,.01,0,.02.02.03.03,0,0,0,0,0,0,.01.01.02.02.03.03,0,0,0,0,0,0,.01.01.02.02.04.03,0,0,0,0,0,0,.66.61,1.31,1.24,1.94,1.88l4.16-4.15c-.83-.83-1.68-1.65-2.54-2.44h0Zm-4.28-3.66l-3.66,4.6c.85.68,1.69,1.37,2.51,2.09l3.86-4.43c-.88-.77-1.79-1.52-2.71-2.25h0Zm-4.53-3.35l-3.33,4.84c.25.17.5.35.75.52,0,0,0,0,0,0,.01,0,.03.02.04.03,0,0,0,0,0,0,.01,0,.03.02.04.03,0,0,0,0,0,0,.04.03.08.06.12.09,0,0,0,0,0,0,.01,0,.03.02.04.03,0,0,0,0,0,0,.01,0,.03.02.04.03,0,0,0,0,0,0,.01,0,.02.02.04.03,0,0,0,0,0,0,.01,0,.03.02.04.03,0,0,0,0,0,0,.01,0,.03.02.04.03,0,0,0,0,0,0,.01,0,.03.02.04.03,0,0,0,0,0,0,.01,0,.02.02.04.03,0,0,0,0,0,0,.01,0,.03.02.04.03,0,0,0,0,0,0,.01,0,.02.02.04.03,0,0,0,0,0,0,.04.03.08.06.12.09,0,0,0,0,0,0,.01,0,.03.02.04.03,0,0,0,0,0,0,.01,0,.03.02.04.03,0,0,0,0,0,0,.37.27.74.54,1.11.82l3.54-4.69c-.93-.7-1.89-1.4-2.86-2.06h0Zm-4.75-3.02l-2.98,5.06c.94.55,1.86,1.12,2.78,1.72l3.2-4.93c-.98-.64-1.99-1.26-3-1.85h0Zm-4.96-2.68l-2.61,5.26c.11.05.21.1.32.16,0,0,0,0,0,0,.01,0,.02.01.04.02h0s.02.02.04.02c0,0,0,0,0,0,.01,0,.02.01.04.02,0,0,0,0,.01,0,.01,0,.02,0,.03.02,0,0,.01,0,.02,0,0,0,.02,0,.03.01,0,0,.01,0,.02.01,0,0,.02,0,.03.01,0,0,.01,0,.02,0,.01,0,.02,0,.03.01h.02s.02.02.03.02c0,0,.01,0,.02.01,0,0,0,0,.02,0,.01,0,.02.01.03.02,0,0,0,0,.01,0,.01,0,.02.01.04.02,0,0,0,0,.01,0l.04.02s0,0,0,0c.04.02.08.04.12.06h0s.03.02.05.03h0c.31.16.63.33.94.49h0s.03.02.04.02c0,0,0,0,0,0,.01,0,.03.01.04.02,0,0,0,0,0,0,.01,0,.02.01.04.02,0,0,0,0,.01,0,0,0,.01,0,.02.01,0,0,.02,0,.03.01,0,0,.01,0,.02.01,0,0,.01,0,.02.01,0,0,.02,0,.02.01,0,0,.02,0,.02.01,0,0,.01,0,.02.01,0,0,.02,0,.03.01,0,0,0,0,.01,0,.01,0,.02.01.03.02,0,0,0,0,.01,0,.01,0,.02.01.04.02,0,0,0,0,0,0,.01,0,.03.01.04.02,0,0,0,0,0,0,.01,0,.03.02.04.02h0c.14.07.27.15.4.22l2.84-5.14c-1.02-.57-2.07-1.12-3.12-1.64h0Zm-5.13-2.33l-2.23,5.43c.17.07.35.14.52.22,0,0,0,0,0,0,.02,0,.03.01.05.02,0,0,0,0,0,0,.02,0,.03.01.05.02,0,0,0,0,0,0,.01,0,.03.01.04.02,0,0,0,0,0,0,.01,0,.03.01.04.02,0,0,0,0,0,0,.01,0,.02.01.04.02,0,0,0,0,.01,0,.01,0,.02.01.03.01,0,0,0,0,.01,0,0,0,.02,0,.03.01,0,0,.01,0,.02,0,0,0,.02,0,.02.01,0,0,.01,0,.02,0,0,0,.02,0,.03.01,0,0,.01,0,.02,0,0,0,.02,0,.03.01,0,0,.01,0,.02,0,0,0,.02,0,.03.01h.02s.01.02.02.02c0,0,.02,0,.03.01,0,0,.01,0,.02,0,.01,0,.02,0,.03.01,0,0,.01,0,.02,0,0,0,.02,0,.02.01,0,0,.02,0,.02.01,0,0,.01,0,.02,0,0,0,.02,0,.03.01,0,0,.01,0,.02,0,0,0,.01,0,.02,0,0,0,.02,0,.03.01,0,0,.01,0,.02,0,0,0,.02,0,.03.01,0,0,.01,0,.02,0,0,0,.01,0,.02,0,.01,0,.02,0,.03.01,0,0,.01,0,.02,0,.01,0,.02,0,.03.01,0,0,.01,0,.02,0,.01,0,.02,0,.03.01,0,0,0,0,.01,0,.01,0,.02,0,.03.01,0,0,0,0,.01,0,.01,0,.02,0,.03.01,0,0,0,0,.01,0,.01,0,.02.01.04.02,0,0,0,0,.01,0,.01,0,.03.01.04.02,0,0,0,0,0,0,.01,0,.03.01.04.02,0,0,0,0,0,0,.03.01.06.03.09.04,0,0,0,0,0,0,.02,0,.03.01.05.02h0s.03.01.05.02t0,0c.34.15.68.31,1.02.46l2.47-5.33c-1.06-.49-2.15-.97-3.23-1.41h0Zm-5.29-1.96l-1.84,5.58c.46.15.92.31,1.37.47h0s.03.01.05.02c0,0,0,0,0,0,.01,0,.03.01.04.02,0,0,0,0,0,0,.01,0,.03,0,.04.01,0,0,0,0,.01,0,0,0,.02,0,.02,0,0,0,.02,0,.03.01,0,0,.01,0,.02,0,0,0,.01,0,.02,0,0,0,.02,0,.03,0,0,0,.02,0,.02,0,0,0,.02,0,.02,0h.03s.01.01.02.02c.01,0,.02,0,.03.01,0,0,0,0,.01,0,.01,0,.02,0,.04.01,0,0,0,0,.01,0,.01,0,.03,0,.04.01,0,0,0,0,.01,0,.01,0,.02,0,.04.01,0,0,0,0,.01,0,.01,0,.02,0,.04.01,0,0,0,0,0,0,.02,0,.02,0,.04.01,0,0,0,0,0,0,.01,0,.03.01.04.01,0,0,0,0,0,0,.01,0,.03.01.04.02h0s.03.01.04.02c0,0,0,0,0,0,.01,0,.03.01.04.02,0,0,0,0,0,0,.02,0,.03,0,.04.02,0,0,0,0,0,0,.01,0,.03,0,.04.01,0,0,0,0,.01,0,.01,0,.03,0,.04.01,0,0,0,0,0,0,.01,0,.02,0,.04.01,0,0,0,0,.01,0,.01,0,.02,0,.04.01,0,0,0,0,.01,0,.01,0,.02,0,.04.01,0,0,.01,0,.02,0,.01,0,.02,0,.03.01,0,0,.01,0,.02,0,0,0,.02,0,.03.01,0,0,.01,0,.02,0,0,0,.01,0,.02,0,0,0,.02,0,.03.01,0,0,.01,0,.02,0,.01,0,.03.01.04.02,0,0,0,0,0,0,.12.04.23.09.35.13l2.09-5.49c-1.09-.42-2.21-.81-3.32-1.18h0Zm-5.41-1.58l-1.44,5.69c1.02.26,2.03.54,3.03.84h0s.02,0,.03,0h0s.02,0,.02,0h0s.02,0,.02,0h0s.02,0,.02,0h0s0,0,0,0l1.69-5.62c-1.12-.34-2.26-.65-3.4-.94h0Zm-5.51-1.19l-1.03,5.78c.78.14,1.55.29,2.32.45,0,0,0,0,.01,0,0,0,0,0,.01,0,0,0,.01,0,.02,0,0,0,0,0,0,0,0,0,.01,0,.02,0h0s.02,0,.02,0h0c.26.06.52.11.78.17l1.29-5.73c-1.14-.26-2.3-.49-3.45-.7h0Zm-5.58-.8l-.62,5.84c.38.04.76.08,1.14.13h0s.01,0,.02,0h0s.01,0,.02,0c0,0,0,0,0,0,0,0,.01,0,.02,0,0,0,0,0,0,0,.03,0,.06,0,.09.01,0,0,0,0,0,0,0,0,.01,0,.02,0,0,0,0,0,0,0,0,0,.01,0,.02,0,0,0,0,0,0,0,0,0,.01,0,.02,0,0,0,0,0,0,0,0,0,.01,0,.02,0,0,0,0,0,0,0,0,0,.01,0,.02,0,0,0,0,0,0,0,.02,0,.05,0,.07,0,0,0,0,0,0,0,0,0,.01,0,.02,0h0s.01,0,.02,0c0,0,0,0,0,0,0,0,.02,0,.02,0,0,0,0,0,0,0,0,0,.01,0,.02,0,0,0,0,0,0,0,.05,0,.1.01.15.02h0c.49.06.97.13,1.46.21l.88-5.81c-1.15-.18-2.33-.33-3.49-.45h0Zm-5.62-.4l-.21,5.87c.56.02,1.12.05,1.68.08,0,0,0,0,0,0,.03,0,.06,0,.09,0h.01s0,0,.01,0c0,0,.01,0,.02,0,0,0,0,0,0,0h.02s0,0,0,0c.47.03.94.06,1.4.1l.47-5.85c-1.16-.09-2.34-.16-3.51-.21h0Zm-2.97-.05v5.87h.09c.24,0,.47,0,.71,0l.06-5.87c-.29,0-.57,0-.86,0h0Z" style="fill: #67d23b; stroke-width: 0px;"/>
        <circle cx="79.95" cy="79.95" r="74.07" style="fill: none; stroke: #fff; stroke-miterlimit: 10; stroke-width: 9.14px;"/>
        <circle cx="79.95" cy="79.95" r="74.07" style="fill: #67d23b; opacity: .68; stroke-width: 0px;"/>
      </g>
      <g>
        <g>
          <path d="m50.16,47.09v2.12h-16.42v-2.12h7v-6.31h-5.82v-2.14h5.82v-5.57h2.32v5.57h5.91v2.14h-5.91v6.31h7.11Z" style="fill: #fff; stroke-width: 0px;"/>
          <path d="m56.62,45.37c-1.56.62-3.21,1.23-4.59,1.76l-.53-2.01c.56-.16,1.21-.36,1.96-.6v-5.26h-1.67v-2.03h1.67v-3.93h1.74v3.93h1.4v2.03h-1.4v4.68l1.07-.38.34,1.81Zm11.44.85c-.63.45-1.34.83-1.99,1.14.74.45,1.6.76,2.61.94-.42.38-.92,1.12-1.16,1.6-2.56-.67-4.21-2.14-5.18-4.31-.49.4-1.03.74-1.63,1.09v1.12l2.48-.42c-.02.49.02,1.18.07,1.58-3.19.62-3.75.8-4.11,1-.09-.36-.42-1.05-.65-1.34.29-.16.62-.47.63-1.16-.91.42-1.89.73-2.81,1-.2-.36-.71-1.09-1.03-1.41,1.74-.38,3.61-.98,4.99-1.78h-3.52v-1.4h2.66v-.65h-1.79v-1.16h1.79v-.63h-2.25v-1.36h2.25v-.69h-1.9v-2.92h4.6v2.92h-.87v.69h2.61v-.65h-.89v-2.95h4.77v2.95h-2.01v.65h2.21v1.36h-2.21v.63h1.92v1.16h-1.92v.65h2.81v1.4h-1.76l1.29.96Zm.4-10.28h-11.89v-1.63h4.95c-.15-.36-.29-.73-.45-1.02l1.79-.54c.29.49.56,1.07.74,1.56h4.86v1.63Zm-9.44,2.41h1.5v-.89h-1.5v.89Zm2.23,3.7h2.61v-.63h-2.61v.63Zm0,1.81h2.61v-.65h-2.61v.65Zm2.74,1.4c.24.44.54.83.87,1.16.63-.33,1.34-.8,1.79-1.16h-2.66Zm.53-6.87h1.61v-.92h-1.61v.92Z" style="fill: #fff; stroke-width: 0px;"/>
          <path d="m85.82,39.46c-.71,2.81-1.92,4.99-3.55,6.67,1.27.83,2.74,1.45,4.44,1.85-.51.49-1.16,1.43-1.5,2.05-1.85-.54-3.41-1.31-4.73-2.36-1.54,1.14-3.37,1.94-5.38,2.54-.25-.62-.8-1.52-1.25-2.01,1.83-.44,3.52-1.14,4.95-2.14-1.23-1.41-2.18-3.14-2.94-5.13h-.27c-.42,2.95-1.52,6.25-4.42,8.77-.31-.56-1.09-1.45-1.56-1.87,3.59-3.06,3.95-7.63,3.95-10.57v-1.38h-2.86v-2.1h11.46c-.29,1.67-.67,3.59-1.03,5.09h2.74l.4-.09,1.58.67Zm-10.01-2.18c0,.51-.02,1.03-.04,1.6h2.92c.25-.91.51-1.96.74-2.99h-3.63v1.4Zm2.16,3.64c.6,1.41,1.43,2.68,2.5,3.73,1.03-1.03,1.85-2.28,2.41-3.73h-4.91Z" style="fill: #fff; stroke-width: 0px;"/>
          <path d="m93.62,42.56l.49,1.92c-1.89.92-3.92,1.9-5.57,2.65l-.87-2.18c.67-.24,1.47-.53,2.36-.89v-4.8h-1.96v-2.05h1.96v-3.93h1.99v3.93h1.69v2.05h-1.69v3.97l1.6-.67Zm8.08,5.15c.98,0,1.16-.42,1.32-2.27.47.33,1.29.67,1.89.78-.29,2.54-.91,3.41-3.03,3.41h-3.86c-2.45,0-3.15-.67-3.15-3.15v-4.68l-.98.42-.8-1.9,1.78-.76v-4.77h2.07v3.88l1.5-.63v-5h2.01v4.13l1.98-.85,1.63.53-.07.33c-.11,2.52-.36,5.82-.8,7.99l-1.76-.49c.2-1.47.34-3.77.42-5.91l-1.4.62v6.4h-2.01v-5.53l-1.5.65v5.6c0,1.05.16,1.21,1.27,1.21h3.5Z" style="fill: #fff; stroke-width: 0px;"/>
          <path d="m115.23,36.54v2.85l.36-.42c1.96.98,4.8,2.54,6.18,3.66l-1.6,1.98c-1.05-.92-3.12-2.25-4.95-3.3v8.61h-2.32v-13.38h-6.54v-2.18h16.15v2.18h-7.29Z" style="fill: #fff; stroke-width: 0px;"/>
          <path d="m58.45,59.67c-.8,4.89-2.76,8.56-5.29,10.46-.36-.51-1.21-1.36-1.74-1.67,2.08-1.41,3.64-3.9,4.44-7.07h-3.79v-2.18h4.57l.4-.07,1.41.53Zm9.01-.31c-1.34,1.34-2.92,2.85-4.21,3.88,1.38,2.08,3.23,3.79,5.51,4.79-.53.47-1.25,1.38-1.61,2.01-2.56-1.36-4.48-3.57-5.89-6.27v5.2c0,1.25-.24,1.89-.96,2.28-.71.38-1.79.49-3.26.49-.09-.67-.47-1.76-.8-2.41,1,.04,1.96.04,2.3.04.31,0,.42-.11.42-.42v-14.16h2.3v4.42c.29.82.62,1.58,1,2.34,1.14-1.09,2.39-2.47,3.21-3.59l1.99,1.4Z" style="fill: #fff; stroke-width: 0px;"/>
          <path d="m75.74,55.48c-.49,1.25-1.09,2.54-1.79,3.75v12.44h-2.05v-9.32c-.42.53-.85,1.02-1.27,1.47-.2-.53-.8-1.69-1.16-2.21,1.69-1.63,3.34-4.21,4.28-6.78l1.99.65Zm3.17,11.02c-.74,1.56-1.85,3.32-2.77,4.42-.38-.33-1.18-.91-1.67-1.16.91-1,1.89-2.5,2.5-3.84l1.94.58Zm2.92-1.14v6.36h-2.18v-6.36h-4.73v-1.96h4.73v-1.6h-3.55v-6.24h9.52v6.24h-3.79v1.6h4.69v1.96h-4.69Zm-3.68-5.46h5.31v-2.43h-5.31v2.43Zm5.89,6c1.03,1.2,2.14,2.76,2.66,3.82l-1.7,1.03c-.49-1.07-1.6-2.74-2.56-3.97l1.6-.89Z" style="fill: #fff; stroke-width: 0px;"/>
          <path d="m94.58,59.49h-6.74v-1.7h3.05c-.27-.69-.73-1.6-1.14-2.28l1.61-.78c.49.74,1.03,1.74,1.32,2.41l-1.18.65h3.08v1.7Zm9.52,7.21c-.6,1.09-1.43,1.96-2.48,2.7,1.02.29,2.16.49,3.35.6-.42.42-.94,1.21-1.18,1.7-1.6-.22-3.01-.62-4.22-1.2-1.4.58-2.97.98-4.64,1.23-.15-.47-.54-1.23-.89-1.67v.65h-3.7v.76h-1.76v-6.25h5.46v4.82c1.27-.15,2.54-.38,3.64-.73-.54-.44-1.02-.92-1.43-1.49l.69-.22h-1.98v-1.45h7.54l.33-.07,1.27.6Zm-7-9.43h-2.5v-1.6h2.5v-.89h1.89v3.34h-1.56l.44.13c-.11.27-.22.56-.34.82h1.6c-.09-.29-.18-.6-.27-.85l1.5-.36v-3.06h1.9v.87h2.39v1.6h-2.39v.87h-1.36c.13.31.24.63.33.94h2.97v1.29h-3.1v.62h2.61v1.07h-2.61v.62h2.61v1.07h-2.61v.65h3.46v1.25h-7.16v.27h-1.78v-3.7c-.2.24-.42.47-.63.69-.18-.36-.69-1.12-1.02-1.52v.56h-5.35v-1.63h5.35v.94c.92-.87,1.72-2.16,2.18-3.5l.96.29v-.76Zm-8.48,5.46h5.35v1.63h-5.35v-1.63Zm3.63,4.22h-1.9v2.03h1.9v-2.03Zm7.05-6.6h-1.9v.62h1.9v-.62Zm0,1.69h-1.9v.62h1.9v-.62Zm0,1.69h-1.9v.65h1.9v-.65Zm-1,3.9c.34.36.8.69,1.32.96.56-.27,1.05-.6,1.49-.96h-2.81Z" style="fill: #fff; stroke-width: 0px;"/>
        </g>
        <g>
          <path d="m50.16,47.09v2.12h-16.42v-2.12h7v-6.31h-5.82v-2.14h5.82v-5.57h2.32v5.57h5.91v2.14h-5.91v6.31h7.11Z" style="fill: #fff; stroke-width: 0px;"/>
          <path d="m56.62,45.37c-1.56.62-3.21,1.23-4.59,1.76l-.53-2.01c.56-.16,1.21-.36,1.96-.6v-5.26h-1.67v-2.03h1.67v-3.93h1.74v3.93h1.4v2.03h-1.4v4.68l1.07-.38.34,1.81Zm11.44.85c-.63.45-1.34.83-1.99,1.14.74.45,1.6.76,2.61.94-.42.38-.92,1.12-1.16,1.6-2.56-.67-4.21-2.14-5.18-4.31-.49.4-1.03.74-1.63,1.09v1.12l2.48-.42c-.02.49.02,1.18.07,1.58-3.19.62-3.75.8-4.11,1-.09-.36-.42-1.05-.65-1.34.29-.16.62-.47.63-1.16-.91.42-1.89.73-2.81,1-.2-.36-.71-1.09-1.03-1.41,1.74-.38,3.61-.98,4.99-1.78h-3.52v-1.4h2.66v-.65h-1.79v-1.16h1.79v-.63h-2.25v-1.36h2.25v-.69h-1.9v-2.92h4.6v2.92h-.87v.69h2.61v-.65h-.89v-2.95h4.77v2.95h-2.01v.65h2.21v1.36h-2.21v.63h1.92v1.16h-1.92v.65h2.81v1.4h-1.76l1.29.96Zm.4-10.28h-11.89v-1.63h4.95c-.15-.36-.29-.73-.45-1.02l1.79-.54c.29.49.56,1.07.74,1.56h4.86v1.63Zm-9.44,2.41h1.5v-.89h-1.5v.89Zm2.23,3.7h2.61v-.63h-2.61v.63Zm0,1.81h2.61v-.65h-2.61v.65Zm2.74,1.4c.24.44.54.83.87,1.16.63-.33,1.34-.8,1.79-1.16h-2.66Zm.53-6.87h1.61v-.92h-1.61v.92Z" style="fill: #fff; stroke-width: 0px;"/>
          <path d="m85.82,39.46c-.71,2.81-1.92,4.99-3.55,6.67,1.27.83,2.74,1.45,4.44,1.85-.51.49-1.16,1.43-1.5,2.05-1.85-.54-3.41-1.31-4.73-2.36-1.54,1.14-3.37,1.94-5.38,2.54-.25-.62-.8-1.52-1.25-2.01,1.83-.44,3.52-1.14,4.95-2.14-1.23-1.41-2.18-3.14-2.94-5.13h-.27c-.42,2.95-1.52,6.25-4.42,8.77-.31-.56-1.09-1.45-1.56-1.87,3.59-3.06,3.95-7.63,3.95-10.57v-1.38h-2.86v-2.1h11.46c-.29,1.67-.67,3.59-1.03,5.09h2.74l.4-.09,1.58.67Zm-10.01-2.18c0,.51-.02,1.03-.04,1.6h2.92c.25-.91.51-1.96.74-2.99h-3.63v1.4Zm2.16,3.64c.6,1.41,1.43,2.68,2.5,3.73,1.03-1.03,1.85-2.28,2.41-3.73h-4.91Z" style="fill: #fff; stroke-width: 0px;"/>
          <path d="m93.62,42.56l.49,1.92c-1.89.92-3.92,1.9-5.57,2.65l-.87-2.18c.67-.24,1.47-.53,2.36-.89v-4.8h-1.96v-2.05h1.96v-3.93h1.99v3.93h1.69v2.05h-1.69v3.97l1.6-.67Zm8.08,5.15c.98,0,1.16-.42,1.32-2.27.47.33,1.29.67,1.89.78-.29,2.54-.91,3.41-3.03,3.41h-3.86c-2.45,0-3.15-.67-3.15-3.15v-4.68l-.98.42-.8-1.9,1.78-.76v-4.77h2.07v3.88l1.5-.63v-5h2.01v4.13l1.98-.85,1.63.53-.07.33c-.11,2.52-.36,5.82-.8,7.99l-1.76-.49c.2-1.47.34-3.77.42-5.91l-1.4.62v6.4h-2.01v-5.53l-1.5.65v5.6c0,1.05.16,1.21,1.27,1.21h3.5Z" style="fill: #fff; stroke-width: 0px;"/>
          <path d="m115.23,36.54v2.85l.36-.42c1.96.98,4.8,2.54,6.18,3.66l-1.6,1.98c-1.05-.92-3.12-2.25-4.95-3.3v8.61h-2.32v-13.38h-6.54v-2.18h16.15v2.18h-7.29Z" style="fill: #fff; stroke-width: 0px;"/>
          <path d="m58.45,59.67c-.8,4.89-2.76,8.56-5.29,10.46-.36-.51-1.21-1.36-1.74-1.67,2.08-1.41,3.64-3.9,4.44-7.07h-3.79v-2.18h4.57l.4-.07,1.41.53Zm9.01-.31c-1.34,1.34-2.92,2.85-4.21,3.88,1.38,2.08,3.23,3.79,5.51,4.79-.53.47-1.25,1.38-1.61,2.01-2.56-1.36-4.48-3.57-5.89-6.27v5.2c0,1.25-.24,1.89-.96,2.28-.71.38-1.79.49-3.26.49-.09-.67-.47-1.76-.8-2.41,1,.04,1.96.04,2.3.04.31,0,.42-.11.42-.42v-14.16h2.3v4.42c.29.82.62,1.58,1,2.34,1.14-1.09,2.39-2.47,3.21-3.59l1.99,1.4Z" style="fill: #fff; stroke-width: 0px;"/>
          <path d="m75.74,55.48c-.49,1.25-1.09,2.54-1.79,3.75v12.44h-2.05v-9.32c-.42.53-.85,1.02-1.27,1.47-.2-.53-.8-1.69-1.16-2.21,1.69-1.63,3.34-4.21,4.28-6.78l1.99.65Zm3.17,11.02c-.74,1.56-1.85,3.32-2.77,4.42-.38-.33-1.18-.91-1.67-1.16.91-1,1.89-2.5,2.5-3.84l1.94.58Zm2.92-1.14v6.36h-2.18v-6.36h-4.73v-1.96h4.73v-1.6h-3.55v-6.24h9.52v6.24h-3.79v1.6h4.69v1.96h-4.69Zm-3.68-5.46h5.31v-2.43h-5.31v2.43Zm5.89,6c1.03,1.2,2.14,2.76,2.66,3.82l-1.7,1.03c-.49-1.07-1.6-2.74-2.56-3.97l1.6-.89Z" style="fill: #fff; stroke-width: 0px;"/>
          <path d="m94.58,59.49h-6.74v-1.7h3.05c-.27-.69-.73-1.6-1.14-2.28l1.61-.78c.49.74,1.03,1.74,1.32,2.41l-1.18.65h3.08v1.7Zm9.52,7.21c-.6,1.09-1.43,1.96-2.48,2.7,1.02.29,2.16.49,3.35.6-.42.42-.94,1.21-1.18,1.7-1.6-.22-3.01-.62-4.22-1.2-1.4.58-2.97.98-4.64,1.23-.15-.47-.54-1.23-.89-1.67v.65h-3.7v.76h-1.76v-6.25h5.46v4.82c1.27-.15,2.54-.38,3.64-.73-.54-.44-1.02-.92-1.43-1.49l.69-.22h-1.98v-1.45h7.54l.33-.07,1.27.6Zm-7-9.43h-2.5v-1.6h2.5v-.89h1.89v3.34h-1.56l.44.13c-.11.27-.22.56-.34.82h1.6c-.09-.29-.18-.6-.27-.85l1.5-.36v-3.06h1.9v.87h2.39v1.6h-2.39v.87h-1.36c.13.31.24.63.33.94h2.97v1.29h-3.1v.62h2.61v1.07h-2.61v.62h2.61v1.07h-2.61v.65h3.46v1.25h-7.16v.27h-1.78v-3.7c-.2.24-.42.47-.63.69-.18-.36-.69-1.12-1.02-1.52v.56h-5.35v-1.63h5.35v.94c.92-.87,1.72-2.16,2.18-3.5l.96.29v-.76Zm-8.48,5.46h5.35v1.63h-5.35v-1.63Zm3.63,4.22h-1.9v2.03h1.9v-2.03Zm7.05-6.6h-1.9v.62h1.9v-.62Zm0,1.69h-1.9v.62h1.9v-.62Zm0,1.69h-1.9v.65h1.9v-.65Zm-1,3.9c.34.36.8.69,1.32.96.56-.27,1.05-.6,1.49-.96h-2.81Z" style="fill: #fff; stroke-width: 0px;"/>
        </g>
      </g>
      <path id="Glyph" d="m60.75,108.1l3.16-6.1-.68-.91h-4.94l-1.03.86,1.58.79v5.36h1.9Zm-3.09-8.76h4.26l-1.75-3.5h-6.57v4.27l1.96.98,2.1-1.75Zm14.49-13.8c-.84-.15-6.43-.57-8.04,2.1-1.59-2.66-7.24-2.25-8.04-2.1-.48.1-.79.56-.7,1.04.01.06.03.11.05.16.06.15,1.61,3.73,4.02,5.04,1.32.72,2.65.67,3.78.28v3.78h-.88l1.75,3.5h3.84l1.17-3.5h-4.13v-3.79c1.14.35,2.59.39,3.79-.26,2.42-1.31,3.96-4.89,4.02-5.04.18-.45-.03-.97-.49-1.16-.05-.02-.11-.04-.16-.05h0Zm-6.73,15.56l3.12,7h2.22l1.07-4.85-3.59-2.15h-2.82Zm-11.82,7h3.5v-4.27l-1.3-.65-2.2,1.83v3.09Zm11.31-4.44l-2.12,4.44h3.86l-1.74-4.44Zm11.46-3.55v-4.27h-5.32l-1.41,4.04,3.27,1.96,3.46-1.73Zm-24.52,4.07l2.24-1.87-2.24-1.12v-5.36h-1.75v12.26h1.75v-3.91Zm33.27-19.73v22.77h21.01v-22.77h-21.01Zm10.51,21.01c-3.87,0-7-3.14-7-7,0-3.58,5.66-11.07,6.31-11.92.3-.38.86-.45,1.24-.15.05.04.1.09.15.15.65.84,6.31,8.34,6.31,11.92,0,3.87-3.14,7-7,7Zm-14.96-7.52c-.32-.36-.29-.91.07-1.24.36-.32.91-.29,1.24.07l1.39,1.56v-2.51h-5.25v5.36l-2.66,1.33,4.97,1.1,2.64-2.97-2.4-2.7Zm2.7,5.01l-1.34,1.51,1.34,1.01v-2.51Zm22.77-20.25h-21.01v-1.75c0-1.45,1.18-2.63,2.63-2.63h15.76c1.45,0,2.63,1.18,2.63,2.63v1.75Zm-21.01,26.27v5.25c0,1.45,1.18,2.63,2.63,2.63h15.76c1.45,0,2.63-1.18,2.63-2.63v-5.25h-21.01Zm12.26,4.38h-3.5c-.48,0-.88-.39-.88-.88s.39-.88.88-.88h3.5c.48,0,.88.39.88.88s-.39.88-.88.88Zm-.51-17.36l-3.72,3.72c-.77.75.42,2.07,1.24,1.24l3.72-3.72c.83-.82-.44-2.04-1.24-1.24Zm1.39,3.36c.48,0,.88.39.88.88s-.39.88-.88.88-.88-.39-.88-.88.39-.88.88-.88Zm-5.25-3.5c.48,0,.88.39.88.88s-.39.88-.88.88-.88-.39-.88-.88.39-.88.88-.88Zm10.51,22.77h-15.76c-2.42,0-4.38-1.96-4.38-4.38v-4.38h-33.27v19.26h.88c3.39,0,3.39,1.61,6.79,1.61s3.39-1.61,6.79-1.61,3.39,1.61,6.79,1.61,3.39-1.61,6.78-1.61,3.39,1.61,6.79,1.61,3.39-1.61,6.79-1.61,3.39,1.61,6.79,1.61,3.39-1.61,6.79-1.61h.88v-11.39c-.76.57-1.68.88-2.63.88Zm-51.66-2.92c0-1.64,1.92-2.92,4.38-2.92s4.38,1.28,4.38,2.92-1.92,2.92-4.38,2.92-4.38-1.28-4.38-2.92Zm7.88,10.8c-2.95,0-5.25-1.54-5.25-3.5s2.31-3.5,5.25-3.5,5.25,1.54,5.25,3.5-2.31,3.5-5.25,3.5Zm2.63-10.94c0-1.72,1.92-3.06,4.38-3.06s4.38,1.35,4.38,3.06-1.92,3.06-4.38,3.06-4.38-1.35-4.38-3.06Zm9.63,10.94c-2.45,0-4.38-1.35-4.38-3.06s1.92-3.06,4.38-3.06,4.38,1.35,4.38,3.06-1.92,3.06-4.38,3.06Zm5.25-7.88c-2.45,0-4.38-1.28-4.38-2.92s1.92-2.92,4.38-2.92,4.38,1.28,4.38,2.92-1.92,2.92-4.38,2.92Zm6.57,7.88c-2.7,0-4.82-1.41-4.82-3.21s2.12-3.21,4.82-3.21,4.82,1.41,4.82,3.21-2.12,3.21-4.82,3.21Zm12.7,0c-2.45,0-4.38-1.35-4.38-3.06s1.92-3.06,4.38-3.06,4.38,1.35,4.38,3.06-1.92,3.06-4.38,3.06Zm-13.13-18.83l-3-2.25-6.9-1.53-.9,4.22h10.8v-.44Zm15.1,26.71c-3.58,0-3.75-1.75-6.79-1.75s-3.17,1.75-6.79,1.75-3.75-1.75-6.79-1.75-3.17,1.75-6.79,1.75-3.75-1.75-6.79-1.75-3.17,1.75-6.79,1.75-3.75-1.75-6.79-1.75c-.48,0-.88-.39-.88-.88s.39-.88.88-.88c3.58,0,3.75,1.75,6.79,1.75s3.17-1.75,6.79-1.75,3.75,1.75,6.79,1.75,3.17-1.75,6.79-1.75,3.75,1.75,6.79,1.75,3.17-1.75,6.79-1.75,3.75,1.75,6.79,1.75,3.17-1.75,6.79-1.75c.48,0,.88.39.88.88s-.39.88-.88.88c-1.48,0-2.18.36-2.99.78-.88.46-1.89.97-3.79.97Z" style="fill: #fff; stroke-width: 0px;"/>
    </g>
  </g>
</svg>