<?xml version="1.0" encoding="utf-8"?>
<!-- Generator: Adobe Illustrator 27.3.1, SVG Export Plug-In . SVG Version: 6.00 Build 0)  -->
<svg version="1.1" id="_圖層_2" xmlns="http://www.w3.org/2000/svg" xmlns:xlink="http://www.w3.org/1999/xlink" x="0px" y="0px"
	 viewBox="0 0 1484.5 270" style="enable-background:new 0 0 1484.5 270;" xml:space="preserve">
<style type="text/css">
	.st0{clip-path:url(#SVGID_00000091726391006718213300000015201358926976457124_);}
	.st1{fill:#E8BB9C;}
	.st2{fill:#DDA480;}
	.st3{fill:#245140;}
	.st4{fill:#31752D;}
	.st5{fill:#348031;}
	.st6{fill:#245721;}
	.st7{fill:#3F722A;}
	.st8{fill:#77B625;}
	.st9{fill:#7D9974;}
	.st10{fill:#B2B2B2;}
	.st11{fill:#FFFFFF;}
	.st12{fill:#368031;}
	.st13{fill:#598D21;}
</style>
<g id="_第一cut">
	<g id="book_bottom">
		<g>
			<defs>
				<rect id="SVGID_1_" x="-1" width="1484.5" height="270"/>
			</defs>
			<clipPath id="SVGID_00000121985486791637010910000018256445451339088538_">
				<use xlink:href="#SVGID_1_"  style="overflow:visible;"/>
			</clipPath>
			<g style="clip-path:url(#SVGID_00000121985486791637010910000018256445451339088538_);">
				<g>
					<path class="st1" d="M1221.5,242.3c-2.6-0.2-5-0.4-7.3-0.7c-0.1,0-0.2,0-0.3,0c-38.2-4.1-102.5-12.4-144.5-3
						c-74.6,16.6-214.5,21.8-290,17.2c-14.4-0.9-28.7-3-42.9-5.8c-35.8-7.1-71.1-18.4-106.6-24.3c-22.1-3.6-104.2-5.2-126.7-2.4
						c-22,2.8-192.2,30.5-253,32.4c-54.3,1.7-123.9-15.9-120.8-40.2c2.6-20.4,21.1-33.7,44.1-44.1c0,0,0,0,0,0
						c34.3-15.6,78.7-24.8,95.1-42.3C307.1,87.8,450.6,60.6,503,59.9c59.5-0.9,175.4,34.9,234.9,35.5c51,0.5,101.2-25.1,152-20.2
						c48.8,4.7,239.3,65.3,287.8,73c18.8,3,41.9,8.6,59.5,16.5c11.7,5.2,43.4,10.1,66.2,21.9c11.7,6.1,21,14,23.9,24.8
						C1331.5,226.5,1305.7,249.1,1221.5,242.3L1221.5,242.3z"/>
					<g>
						<path class="st2" d="M582.2,216.2c21.4,2.1,36.1,5.5,47.6,9.4c-22.1-3.6-104.2-5.2-126.7-2.4c-22,2.8-192.2,30.5-253,32.4
							c-54.3,1.7-123.9-15.9-120.8-40.2c2.6-20.4,21.1-33.7,44.1-44.1c-24.4,13.9-40.1,43-21.1,53c19,10.1,59.2,24,109.6,15.9
							C312.5,232.1,525.5,210.7,582.2,216.2z"/>
						<path class="st2" d="M1213.9,241.6c-38.2-4.1-102.5-12.4-144.5-3c-74.6,16.6-214.5,21.8-290,17.2c-14.4-0.9-28.7-3-42.9-5.8
							c19.7-0.9,44.7-2.7,79.3-4.5c79.5-4,221.5-13.3,253.6-21.1C1098.9,217.2,1185.4,237.3,1213.9,241.6L1213.9,241.6z"/>
						<path class="st2" d="M1304.8,228c-29.9,16.1-60.3,15.2-83.3,14.3c90.9,10.5,106.2-14.2,105.8-24.7
							C1322,219.5,1311,224.7,1304.8,228L1304.8,228z"/>
					</g>
					<g>
						<path class="st3" d="M1314.1,139.4c-1.6-9.1-2.7-19.1-0.5-29.4c3.7-17.2,19.2-19.2,25.3-34.6c3.2-8.1,3.4-18.7,7.6-26.2
							c6.1-11.1,12.8-7.2,20.2-8.9c5.9-1.3,11.7-8,15.5-15.6s6.1-16,8.3-24.4c4.2,11.4,7.5,23.9,7.2,38.2c-0.3,12.9-6.8,24-12,35.6
							c-6.7,14.8-4,31.3-9.7,46.2c-5.7,14.9-17.4,14.8-26.4,20.9c-13.8,9.3-16.6,31-28.9,42.7
							C1324.6,180.2,1314.9,143.7,1314.1,139.4L1314.1,139.4z"/>
						<path class="st4" d="M1321.6,179.2c-0.4,0.5-0.3,1.5,0.3,1.6c1.1-0.3,1.4-1.6,1.8-2.6c3.4-8.2,5.8-16.9,6.9-25.7
							c1-7.1,0.7-14.3,1.8-21.4c0.9-7.2,3.6-14.6,9.2-19.5c2.7-2.5,5.7-4.6,8.3-6.9c5.6-4.5,8-11.2,9.6-18.1c1.5-7,4.1-14.2,9-19.6
							c4.6-5.5,10.3-9.9,14.6-15.7c4.2-5.6,7.8-12.4,7.1-19.6c1.1,7.2-2.4,14.3-6.3,20.1c-6.2,8.6-15.5,15-19.6,25
							c-4.1,10.2-3.6,21.6-13,29.2c-2.8,2.4-5.7,4.4-8.3,6.8c-5.3,4.7-7.8,11.5-8.8,18.4c-1.1,7-1.1,14.2-2.2,21.3
							c-1.4,8.9-4.1,17.5-7.9,25.6c-0.5,0.9-0.9,2.3-2.1,2.5C1321.2,180.8,1321.1,179.7,1321.6,179.2L1321.6,179.2L1321.6,179.2z"/>
						<path class="st5" d="M1378.2,90.1c10.7-14.8,28.6-27.8,46.8-26.1c24.7,2.2,35.8-3.3,52.4-15.3c-5.5,47.3-24.9,39.3-41.2,57.9
							c-4.8,5.4-9.1,11.2-12.4,17.4c-4.8,9.2-7.5,19.7-14.6,27.3c-11.4,12.2-30.1,13.1-45.4,19.8c-14.3,6.3-38.7,32.2-54.8,30.1
							c-11.5-1.5-2.5-14.3-0.8-22.2c4.6-22,13.5-26.9,26.2-37.7c9.2-7.8,26.1-7.4,31.7-16.3C1371.6,116.1,1371.4,99.5,1378.2,90.1
							L1378.2,90.1z"/>
						<path class="st6" d="M1305,200.6c9-18,19.1-37.5,37.4-47.6c10.7-5.9,23.5-7.6,34-13.7c3.5-2,6.6-4.6,9.1-7.7
							c5-6.4,7.2-14.5,11.3-21.6c2-3.6,4.4-7,7.1-10.1c10.7-12.4,26.3-20.7,42.6-22.1c-8.1,1-16,3.6-23.1,7.5
							c-10.7,5.8-19.7,14.6-25.6,25.3c-4,7.1-6.2,15.2-11.3,21.8c-2.6,3.3-5.8,6-9.4,8.1c-10.8,6.2-23.3,7.7-34.1,13.6
							C1324.8,163.9,1314.6,183,1305,200.6L1305,200.6L1305,200.6z"/>
						<path class="st7" d="M1290,120.3c-0.9-6.6,7.1-14.7,7.5-21.3c0.8-12.1-12.3-20.9-1.8-34.4c5.2-6.7,7.7-15.2,10.6-23.2
							c2.9-8,3.9-17.3-0.4-24.7c10.4,15.4,21.2,32.8,18.3,51.1c-0.6,3.6-1.7,7.2-1,10.8c1,5.1,5.2,8.7,8.5,12.6
							c6.5,7.8,9.5,20.1,3,27.9c-1.7,2.1-4,3.7-5.4,6c-4.4,7.7,3.2,16.4,5.3,25.1c3.5,14.4-8.1,26.4-16.2,36.7
							c-6.3,8-10.7,17.9-19.8,7.7c-6.7-7.6-10.3-21.8-9.6-31.6c0.5-7,3.8-13.5,4.1-20.6C1293.5,134.9,1290.9,127.7,1290,120.3
							L1290,120.3z"/>
						<path class="st6" d="M1308.5,196.9c0.8-10.4,2.3-25.8,3.3-36.3c0.5-6.1,1.5-12.1,0.5-18c-1-6-3.5-11.9-2.6-18.2
							c1.2-7.6,7.7-13.4,7.8-21.1c0-4.6-2.4-8.5-4.5-12.4c-3.1-5.3-4.6-11.6-3.9-17.8c0.7-6.1,3.3-12,7.6-16.3
							c-4,4.5-6.5,10.4-7,16.4c-0.6,6,1,12,4.1,17.2c2.2,3.9,4.8,8.2,4.8,12.9c0,7.9-6.5,13.9-7.7,21.4c-0.9,6,1.6,11.8,2.4,17.8
							c0.5,3.1,0.5,6.2,0.2,9.2C1312.4,165.8,1310.2,182.9,1308.5,196.9L1308.5,196.9L1308.5,196.9z"/>
						<path class="st5" d="M1281,200.7c-6.9,0.1-14-0.3-20.1-3.6c-6.6-3.6-6.4-11.1-8.3-17.4c-2.2-7.4-5.8-10.6-12.6-14.2
							c-16.6-8.8,3.4-26.5-6.8-39.4c-3.4-4.3-8.2-7.4-12.8-10.5c9.5-2,19.5-3.3,28.9-1s18.4,8.6,21.6,17.8c0.8,2.2,1.2,4.6,2.8,6.3
							c6.1,6.5,17.1,0.1,23.1,7.4c7.6,9.2-3.1,21.4,1.1,31.4c3.7,8.9,13.9,13.8,15.9,23.6C1313.1,197.2,1284.2,200.6,1281,200.7
							L1281,200.7z"/>
						<path class="st8" d="M1348.9,210.3c6.4,2.4,13.4,4.3,20.1,3.1c11.2-2,10.7-16.7,20.4-21.1c5.1-2.4,12.3-1.6,16.9-4.9
							c6.8-4.8,3.2-11.6,3.4-18.6c0.2-5.6,4-10.5,8.6-13.5s10.2-4.4,15.6-5.7c-8.3-5-17.3-9.4-27-10.4c-8.8-0.9-15.5,4.3-22.8,8.3
							c-9.2,5-20.8,1-30.3,5.1c-9.4,4.1-7.8,15.4-10.8,23.5c-4.6,12.4-19,13.1-25.4,23.9C1319.7,196.5,1345.8,209.2,1348.9,210.3
							L1348.9,210.3z"/>
						<path class="st6" d="M1295.8,194.6c0.2-1.9-0.7-3.8-1.9-5.1c-5.4-6-15.2-2.8-20.9-8.6c-4.6-4.4-1.4-11.4-3.2-16.7
							c-1.2-3.6-4.8-5.4-7.9-7.2c-6-3-8.6-7.3-9.7-13.8c-1.1-5.6-1.4-11.5-4.6-16.3c3.6,4.6,4.2,10.6,5.5,16.2
							c2.8,15.3,13.8,10.8,18,20.7c2.2,7.9-3.2,15.2,7.3,19.1c3.5,1.3,7.4,1.5,11,2.9C1293,187.1,1296.4,190.5,1295.8,194.6
							L1295.8,194.6L1295.8,194.6z"/>
						<path class="st4" d="M1320.7,199.4c-0.4,0.6-1.4-0.1-1.2-0.7c0.1-0.7,0.7-1.1,1.2-1.4c1.1-0.6,2.1-1.2,3.2-1.7
							c4.4-2.1,9.2-3.4,14.1-3.8c4.8-0.4,9.7,0.3,14.5-0.2c8.9-0.8,10.5-6.6,13.9-13.7c4.4-8.9,11.6-6.8,18.9-10.3
							c4.2-2.2,6.8-6.4,9.4-10.3c3.7-5.8,10.2-12.8,17.7-10.3c-7.6-1.8-13.2,5.2-16.7,11c-2.6,4.1-5.2,8.6-9.7,11.1
							c-6.6,3.5-14.3,1.7-18,9.7c-3.7,7.7-5.7,13.7-15.5,14.5c-4.9,0.4-9.7-0.4-14.6-0.2c-4.8,0.2-9.5,1.2-14,3
							c-1.1,0.6-5.8,1.9-4.2,3.4C1320.1,199.7,1320.5,199.7,1320.7,199.4L1320.7,199.4L1320.7,199.4z"/>
					</g>
					<g>
						<path class="st3" d="M179.7,144.6c0.3-9.3-0.1-19.2-3.8-29.2c-6.1-16.4-21.7-16.3-30-30.6c-4.4-7.6-6.1-18-11.2-24.8
							c-7.6-10.1-13.7-5.3-21.3-5.9c-6-0.5-12.7-6.2-17.6-13.2c-4.9-7-8.3-15-11.7-22.9c-2.5,11.9-4,24.8-1.6,38.8
							c2.2,12.7,10.1,22.8,17,33.5c8.7,13.7,8.4,30.4,16.2,44.3c7.7,13.9,19.4,12.1,29.1,16.9c15,7.3,20.9,28.3,34.7,38.1
							C175.2,186.5,179.6,149,179.7,144.6L179.7,144.6z"/>
						<path class="st4" d="M178,185.2c0.6,0.4,0.6,1.5-0.1,1.7c-1.2,0-1.8-1.4-2.4-2.2c-4.9-7.5-8.9-15.7-11.5-24.2
							c-2.1-6.8-3.2-14-5.3-20.8c-1.9-6.7-5.4-13.1-11.3-17c-2.9-2-6.1-3.5-9.2-5.5c-6.5-3.8-10.1-10.7-12.7-17.5
							c-2.5-6.7-5.7-12.9-11.1-17.7c-5.1-4.9-11.4-8.6-16.3-13.9C93.4,63,89,56.5,89,49.2c0.4,7.2,4.9,13.4,9.8,18.3
							c5,5.1,11.3,8.6,16.7,13.4c5.6,4.7,9.2,11.4,11.7,18.1c2.5,6.6,5.8,12.9,12.1,16.5c2.9,1.9,6.2,3.5,9.2,5.6
							c6.2,4.1,9.9,11,11.9,18c2.1,6.9,2.8,14,4.8,20.9c2.4,8.6,6,16.8,10.6,24.4c0.6,0.9,1.1,2.1,2.2,2.3
							C178.5,186.6,178.5,185.5,178,185.2L178,185.2L178,185.2z"/>
						<path class="st5" d="M109.2,105C96.5,92,76.9,81.6,59.2,85.9c-24.2,5.8-35.9,1.9-54-7.6c12.2,46,30.3,35.4,49.1,51.4
							c5.5,4.7,10.7,9.7,14.8,15.4c6.1,8.4,10.3,18.4,18.3,24.9c13,10.5,31.7,8.6,47.8,13.1c15,4.1,42.9,26.3,58.5,21.9
							c11.1-3.2,0.4-14.5-2.4-22.1c-7.7-21.1-17.2-24.7-31.3-33.5c-10.3-6.4-26.9-3.6-33.7-11.6C119.5,129.8,117.3,113.4,109.2,105z
							"/>
						<path class="st6" d="M197.5,203.9c-14.6-19.8-30.1-39.8-56-43.6c-11.8-2.2-25.3-3.3-34.4-12.1c-6-5.8-9.3-13.5-14.3-20
							c-2.4-3.2-5.2-6.2-8.2-8.9c-12.1-10.8-28.4-16.9-44.7-16.5c20.5-1.2,41.3,8.4,53.8,24.7c5,6.4,8.3,14.1,14.2,19.7
							c2.9,2.7,6.4,4.8,10.1,6.3c11.3,4.6,24.1,4.4,35.6,8.7C173.2,169.5,186,187.4,197.5,203.9L197.5,203.9L197.5,203.9z"/>
						<path class="st7" d="M200.9,122.3c-0.1-6.6-9.2-13.5-10.5-20c-2.5-11.9,9.1-22.5-3.2-34.2c-6.1-5.9-9.8-14-13.8-21.4
							c-4-7.5-6.4-16.6-3.2-24.5c-8.1,16.7-16.3,35.5-10.7,53.2c1.1,3.5,2.7,6.9,2.6,10.5c-0.2,5.1-3.9,9.3-6.6,13.7
							c-5.3,8.7-6.5,21.3,1.1,28.1c2,1.8,4.5,3.1,6.2,5.2c5.5,6.9-0.8,16.7-1.7,25.6c-1.4,14.8,11.8,24.9,21.3,34
							c7.4,7,13.2,16.2,20.7,4.7c5.6-8.5,7.1-23,5-32.7c-1.5-6.9-5.7-12.9-7-19.8C199.5,137.2,201,129.8,200.9,122.3L200.9,122.3z"
							/>
						<path class="st6" d="M193.5,200.8c-2.9-10.1-6.8-25-9.5-35.2c-1.5-5.9-3.4-11.9-3.3-18.1c0-6,1.7-12.1-0.1-17.9
							c-2.3-7.2-9.5-12.2-10.7-20c-0.7-4.7,1.3-9.3,2.9-13.5c2.4-5.6,3-11.7,1.6-17.6c-1.3-5.9-4.6-11.3-9.2-15.2
							c4.9,3.7,8.3,9.1,9.9,15.1c1.6,6,1,12.4-1.3,18.2c-1.5,4.2-3.4,8.5-2.7,13c1.3,7.7,8.5,12.4,10.8,19.8
							c1.9,6.1,0.2,12.3,0.1,18.4c-0.1,6,1.7,11.9,3.1,17.8C187.6,175.6,191.2,190.5,193.5,200.8L193.5,200.8L193.5,200.8z"/>
						<path class="st5" d="M221.3,200.6c6.8-0.8,13.9-2.3,19.3-6.4c6-4.5,4.7-11.9,5.7-18.4c1.1-7.6,4.3-11.3,10.4-15.8
							c15.1-11.1-7.2-25.8,1.1-40c2.8-4.8,7-8.6,11.2-12.2c-9.7-0.7-19.7-0.4-28.8,3.2c-9,3.6-17,11.2-18.8,20.7
							c-0.4,2.3-0.6,4.7-1.9,6.6c-5.1,7.4-16.9,2.6-21.8,10.6c-6.2,10.2,6.1,20.8,3.4,31.3c-2.4,9.3-11.8,15.6-12.4,25.6
							C189,201.7,218.1,201,221.3,200.6L221.3,200.6z"/>
						<path class="st8" d="M155.5,219.9c-6,3.3-12.6,6.2-19.5,6c-11.4-0.3-12.9-14.9-23.2-18c-5.4-1.6-12.4,0.2-17.4-2.4
							c-7.4-3.8-4.9-11-6.1-17.9c-0.9-5.5-5.4-9.8-10.5-12.1c-5.1-2.3-10.7-2.9-16.2-3.4c7.5-6.2,15.8-11.8,25.2-14.2
							c8.6-2.1,16,2,23.7,4.9c9.8,3.7,20.8-2,30.7,0.6c9.9,2.7,10,14.1,14.1,21.7c6.3,11.6,20.7,10.2,28.6,20
							C182.4,202,158.4,218.3,155.5,219.9L155.5,219.9z"/>
						<path class="st6" d="M205.8,196.6c-1.2-3.9,1.7-7.7,5-9.6c3.4-2,7.2-2.7,10.5-4.5c9.8-5.4,3.5-11.9,4.5-20
							c2.7-10.4,14.3-7.5,14.9-23.1c0.4-5.6,0.2-11.7,3.1-16.8c-2.5,5.3-2,11.2-2.2,16.8c-0.1,6.6-2.1,11.3-7.6,15.1
							c-2.9,2.2-6.2,4.5-6.8,8.2c-0.7,3.7,1,7.4,1,11.2c0.3,4.1-2.7,7.8-6.4,9.4c-3.5,1.8-7.4,2.4-10.7,4.2
							C207.8,189.2,204.9,192.8,205.8,196.6L205.8,196.6L205.8,196.6z"/>
						<path class="st4" d="M181.8,205c0.2,0.2,0.6,0.1,0.8-0.1c1.4-1.7-3.6-2.4-4.6-2.7c-4.7-1.1-9.5-1.4-14.3-0.9
							c-4.8,0.5-9.5,2-14.4,2.3c-9.8,0.6-12.7-5-17.4-12.1c-4.8-7.4-12.1-4.5-19.2-7c-4.8-1.8-8-5.9-11.2-9.6
							c-4.2-5.2-10.8-11.4-18.1-8.5c7.1-3.6,14.6,2.5,19,7.6c3.2,3.4,6.4,7.2,10.8,8.8c7.7,2.3,14.5-0.7,20.1,7.4
							c4.4,6.5,6.8,12.1,15.7,11.6c4.8-0.2,9.5-1.6,14.3-1.9c4.9-0.3,9.8,0.3,14.5,1.7c1.2,0.4,2.3,0.8,3.4,1.2
							c0.5,0.2,1.2,0.6,1.4,1.2C183.2,204.7,182.3,205.5,181.8,205L181.8,205L181.8,205z"/>
					</g>
					<rect x="735" y="161" class="st3" width="18.4" height="13.3"/>
					<polygon class="st3" points="1304,203.9 753.2,174.3 753.2,-557.8 1295.9,-594 1304,-587.8 					"/>
					<polygon class="st9" points="1295.9,198.4 744.1,168.4 744.1,-564.4 1295.9,-594 					"/>
					<path class="st10" d="M1234.5-587c0,0,4.6,3,10.4,4.5c5.8,1.4,13.6,2.3,13.6,2.3s6,1,11.2,2.4c5.1,1.4,12.3-0.6,12.9,1.2
						c0,0-2.9,629.3-2.2,650.6c0.6,21.2,0,107.5,0,107.5s-4.5,1.3-7.7,2.6c-3.2,1.3-7.7-0.8-12.2,0.5c-4.5,1.3-10.3,3.9-13.6,4
						c-3.2,0.1-11.7,2.8-11.7,2.8s-327.2-2.7-354.4-4.4C779.5,180.8,745,151,745,151l101-692.1c0,0,225.7-12.8,256.3-23.9
						C1132.7-576,1234.4-587,1234.5-587L1234.5-587z"/>
					<path class="st11" d="M744.1,157.4c0,0,13.9,10.3,65.9,18.6c51.2,8.3,259.6,6.2,282.8,7.1c23.1,0.9,140.7,1.2,140.7,1.2
						s1.2-332,0-377.9c-1.2-45.9,0-389.5,0-389.5s-259.7,14.4-320.5,14.7C851-568,774.7-569,744.1-556.9L744.1,157.4L744.1,157.4z"
						/>
					<polygon class="st3" points="184.1,203.9 735,174.3 735,-557.8 192.2,-594 184.1,-587.8 					"/>
					<polygon class="st9" points="192.2,198.4 744.1,168.4 744.1,-564.4 192.2,-594 					"/>
					<path class="st10" d="M253.7-587c0,0-4.6,3-10.4,4.5c-5.8,1.4-13.6,2.3-13.6,2.3s-6,1-11.1,2.4c-5.1,1.4-12.3-0.6-12.9,1.2
						c0,0,2.9,629.3,2.2,650.6c-0.6,21.2,0,107.5,0,107.5s4.5,1.3,7.7,2.6c3.2,1.3,7.7-0.8,12.2,0.5c4.5,1.3,10.3,3.9,13.6,4
						c3.2,0.1,11.7,2.8,11.7,2.8s327.2-2.7,354.4-4.4c101.2-6.1,135.7-36,135.7-36l-101-692.1c0,0-285.6-12.8-316.3-23.9
						C295.4-576,253.7-587,253.7-587L253.7-587z"/>
					<path class="st11" d="M746,157.4c0,0-13.9,10.3-65.9,18.6c-51.2,8.3-319.6,6.2-342.8,7.1c-23.1,0.9-80.7,1.2-80.7,1.2
						s-1.2-332,0-377.9c1.2-45.9,0-389.5,0-389.5s259.7,14.4,320.5,14.7c61.9,0.3,138.2-0.7,168.9,11.4l8.4,25.5l3.3,655.9
						L746,157.4L746,157.4z"/>
					<g>
						<path class="st12" d="M749.8,220.7c6.8-5.6,15.1-9.1,22-14.7c-3.8,8.2-6.2,17-9.1,25.5c-1.3,3.8-2.7,7.6-5.2,10.8
							c-4.8,6.1-13.6,9.2-21,10.4c2.7-5.3,2-9.3,2.7-14.8C740,231.1,744.6,225,749.8,220.7L749.8,220.7z"/>
						<path class="st13" d="M707.8,243.9c-2.6-3.3-5.9-6.4-10-7c10-3,21.6,0.2,28.7,7.9c0.5-13.8-4.7-27.7-14.2-37.7
							c9.5,0.6,18.6,5.1,24.8,12.3c6.2,7.2,9.3,16.9,8.5,26.3c2.6-9.4,10.7-16.4,19.6-20.2s18.8-4.9,28.4-6
							c-4.5,7.8-8.9,15.5-13.4,23.3c-2,3.4-4,6.9-7.1,9.4c-4.7,3.8-11.1,4.7-17.1,5.5c-10,1.2-18.6,1.1-28.4-1.2
							c-3.8-0.9-7.8-0.9-11.2-3C712.8,251.1,710.5,247.1,707.8,243.9L707.8,243.9z"/>
						<path class="st4" d="M745.7,253.5c3.1-1.5,6.2-2.9,9.1-4.7c9.2-4.8,12.1-17.5,22.6-20.3c-3.2,1.3-5.7,3.7-7.8,6.3
							c-2.1,2.6-4,5.5-6.2,8.2C759.2,248.7,752.3,251.6,745.7,253.5L745.7,253.5L745.7,253.5z"/>
						<path class="st4" d="M740.4,249.9c-3.3-1-4.5-4.8-4.6-8c-0.1-3.1-0.1-6.2-0.8-9.2c-1-6.2-4.8-11.3-9.3-15.6
							c7,5,10.8,11.4,11.3,20.1C737.3,241.5,736.1,247.1,740.4,249.9L740.4,249.9L740.4,249.9z"/>
					</g>
				</g>
			</g>
		</g>
	</g>
</g>
</svg>
