<?xml version="1.0" encoding="UTF-8"?>
<svg id="_圖層_2" data-name="圖層 2" xmlns="http://www.w3.org/2000/svg" width="1484.5" height="59" xmlns:xlink="http://www.w3.org/1999/xlink" viewBox="0 0 1484.5 59">
  <defs>
    <clipPath id="clippath">
      <rect width="1484.5" height="59" fill="none"/>
    </clipPath>
  </defs>
  <g id="_第一cut" data-name="第一cut">
    <g id="book_top">
      <g clip-path="url(#clippath)">
        <g>
          <polygon points="1304.1 809.92 753.26 780.31 753.26 48.19 1296.02 12 1304.1 18.24 1304.1 809.92" fill="#245140"/>
          <polygon points="1296.02 804.4 744.16 774.41 744.16 41.6 1296.02 12 1296.02 804.4" fill="#7d9974"/>
          <path d="m1233.55,19s4.56,3.05,10.39,4.45c5.82,1.4,13.6,2.28,13.6,2.28,0,0,6.01,1.01,11.15,2.38,5.13,1.37,12.27-.57,12.9,1.18,0,0-2.89,629.3-2.25,650.56.64,21.25,0,107.5,0,107.5,0,0-4.48,1.34-7.69,2.62-3.21,1.29-7.71-.83-12.21.51-4.51,1.34-10.32,3.9-13.55,4.03-3.23.14-11.66,2.81-11.66,2.81,0,0-327.24-2.69-354.43-4.35-101.24-6.15-135.67-35.97-135.67-35.97l101.01-692.09s225.65-12.78,256.29-23.9c30.36-11.02,132.1-22.02,132.1-22.02Z" fill="#b2b2b2"/>
          <path d="m744.16,763.44s13.91,10.26,65.91,18.64c51.23,8.26,259.57,6.2,282.81,7.08,23.08.88,140.68,1.22,140.68,1.22,0,0,1.19-331.97,0-377.86-1.19-45.91,0-389.51,0-389.51,0,0-259.72,14.39-320.53,14.7-61.91.31-138.23-.67-168.87,11.37v714.37Z" fill="#fff"/>
          <g opacity=".27">
            <path d="m1243.98,23.46c.67,245.58,1.86,526.23,0,771.14-1.86-244.71-.67-525.79,0-771.14h0Z" fill="#fff"/>
          </g>
          <g opacity=".27">
            <path d="m1272.75,33.65c.83,174.89,1.72,354.03,0,528.92-1.72-174.89-.83-354.02,0-528.92h0Z" fill="#fff"/>
          </g>
          <g opacity=".53">
            <path d="m1255.6,23.96c.67,245.26,1.86,525.55,0,770.15-1.87-244.4-.67-525.11,0-770.15h0Z" fill="#fff"/>
          </g>
          <polygon points="184.21 809.92 735.06 780.31 735.06 48.19 192.29 12 184.21 18.24 184.21 809.92" fill="#245140"/>
          <polygon points="192.29 804.4 744.16 774.41 744.16 41.6 192.29 12 192.29 804.4" fill="#7d9974"/>
          <path d="m254.76,19s-4.56,3.05-10.39,4.45c-5.82,1.4-13.6,2.28-13.6,2.28,0,0-6.01,1.01-11.15,2.38-5.13,1.37-12.27-.57-12.9,1.18,0,0,2.89,629.3,2.25,650.56-.64,21.25,0,107.5,0,107.5,0,0,4.48,1.34,7.69,2.62,3.21,1.29,7.71-.83,12.21.51,4.51,1.34,10.32,3.9,13.55,4.03,3.23.14,11.66,2.81,11.66,2.81,0,0,327.24-2.69,354.43-4.35,101.24-6.15,135.67-35.97,135.67-35.97l-101.01-692.09s-285.65-12.78-316.29-23.9c-30.36-11.02-72.1-22.02-72.1-22.02Z" fill="#b2b2b2"/>
          <path d="m746.11,763.44s-13.91,10.26-65.91,18.64c-51.23,8.26-319.57,6.2-342.81,7.08-23.08.88-80.68,1.22-80.68,1.22,0,0-1.19-331.97,0-377.86,1.19-45.91,0-389.51,0-389.51,0,0,259.72,14.39,320.53,14.7,61.91.31,138.23-.67,168.87,11.37l8.42,25.49,3.33,655.94-11.75,32.94Z" fill="#fff"/>
          <g opacity=".27">
            <path d="m244.33,23.46c.67,245.58,1.86,526.23,0,771.14-1.86-244.71-.67-525.79,0-771.14h0Z" fill="#fff"/>
          </g>
          <g opacity=".27">
            <path d="m215.56,33.65c.83,174.89,1.72,354.03,0,528.92-1.72-174.89-.83-354.02,0-528.92h0Z" fill="#fff"/>
          </g>
          <g opacity=".53">
            <path d="m232.71,23.96c.67,245.26,1.86,525.55,0,770.15-1.87-244.4-.67-525.11,0-770.15h0Z" fill="#fff"/>
          </g>
        </g>
      </g>
    </g>
  </g>
</svg>