<?xml version="1.0" encoding="UTF-8"?>
<svg id="uuid-18af9a2b-c869-4135-941a-4243f637283f" data-name="圖層 2" xmlns="http://www.w3.org/2000/svg" width="25.99" height="30" viewBox="0 0 25.99 30">
  <g id="uuid-a97ef974-3224-47ad-8ad3-f2ad8bb761ee" data-name="第一cut">
    <path id="uuid-a47df9aa-f692-42d1-b628-f21d881e3747" data-name="clear_list" d="m1.2,9.82c.46-.91,1.09-1.77,1.86-2.5,1.54-1.48,3.49-2.39,5.37-2.97.8-.25,1.6-.45,2.4-.61.29-.06.53-.34.53-.64V.33c.01-.3.22-.42.48-.27l10.21,5.75c.26.15.26.38,0,.53l-10.33,5.81c-.26.14-.47.02-.46-.27l.02-2.66c0-.29-.23-.54-.53-.55-.49-.01-.98,0-1.45.02-1.56.09-3.03.4-4.28,1.12-1.25.7-2.27,1.89-2.94,3.38-.68,1.49-.8,1.87-1,3.61-.04.31-.45.3-.63.28-.15-.02-.26-.14-.28-.28-.21-1.78-.27-2.29.09-4.18.18-.94.48-1.89.94-2.8Zm23.6,10.36c-.46.91-1.1,1.77-1.86,2.5-1.54,1.48-3.48,2.38-5.37,2.97-.8.25-1.6.45-2.4.61-.29.06-.53.34-.53.64v2.76c-.01.29-.22.42-.48.27l-10.21-5.75c-.26-.15-.26-.38,0-.52l10.33-5.81c.26-.14.46-.02.46.27l-.02,2.66c0,.29.23.54.53.55.49,0,.98,0,1.45-.02,1.56-.09,3.03-.4,4.28-1.12,1.25-.7,2.27-1.89,2.94-3.38.68-1.49.8-1.86,1-3.61.04-.31.45-.3.63-.28.15.02.26.14.28.28.2,1.78.27,2.29-.09,4.18-.18.94-.48,1.89-.94,2.8Z" style="fill: #fff;"/>
  </g>
</svg>