<?xml version="1.0" encoding="utf-8"?>
<!-- Generator: Adobe Illustrator 27.5.0, SVG Export Plug-In . SVG Version: 6.00 Build 0)  -->
<svg version="1.1" id="_圖層_2" xmlns="http://www.w3.org/2000/svg" xmlns:xlink="http://www.w3.org/1999/xlink" x="0px" y="0px"
	 width="391.2px" height="391.2px" viewBox="0 0 391.2 391.2" style="enable-background:new 0 0 391.2 391.2;" xml:space="preserve"
	>
<style type="text/css">
	.st0{fill:#0AA07D;}
	.st1{opacity:0.1;enable-background:new    ;}
	.st2{opacity:0.15;fill:#FFFFFF;enable-background:new    ;}
	.st3{clip-path:url(#SVGID_00000142160348025992490230000011166046018860806042_);}
	.st4{fill:#FFEFB1;}
	.st5{fill:#E8F4D3;}
	.st6{fill:#2EC27E;}
	.st7{fill:#26A269;}
	.st8{fill:#1C774D;}
	.st9{fill:#A3CB69;}
	.st10{fill:#D3EAAC;}
	.st11{fill:#62AA4B;}
	.st12{fill:#86C96D;}
	.st13{fill:#A9CE72;}
	.st14{fill:#60B141;}
	.st15{opacity:0.1;fill:#FFFFFF;enable-background:new    ;}
	.st16{opacity:0.2;fill:#A9CE72;enable-background:new    ;}
	.st17{fill:#986A44;}
	.st18{fill:#3F7C25;}
	.st19{fill:#124C03;}
	.st20{fill:#006600;}
	.st21{fill:#FF5F3A;}
	.st22{fill:#F4B58E;}
	.st23{fill:#FFC407;}
	.st24{fill:#E5A50A;}
	.st25{fill:#63452C;}
	.st26{fill:#4B8720;}
	.st27{fill:#F6D32D;}
	.st28{clip-path:url(#rect190294_00000127739495290124392780000012396829136160688539_);fill:#054205;}
	.st29{fill:#DEDDDA;}
	.st30{fill:#FFFFFF;}
	.st31{fill:#1B404E;}
	.st32{fill:#D7E8B1;}
	.st33{fill:none;stroke:#E5A50A;stroke-width:2.2647;stroke-miterlimit:10;}
	.st34{opacity:0.45;fill:#FCF7B0;}
</style>
<g>
	<g>
		<g>
			<path class="st0" d="M188.7,0C98.2,0,24.9,68.1,24.9,152v187.9h202.5c90.5,0,163.8-68.1,163.8-152V0H188.7z"/>
		</g>
	</g>
	<path class="st1" d="M24.9,335.2v4.6h202.5c90.5,0,163.8-68.1,163.8-152V68.5C327.2,154.6,205.7,283.5,24.9,335.2z"/>
	<path class="st2" d="M188.7,0C98.2,0,24.9,68.1,24.9,152v74C151.8,58.7,333.7,13.9,391.2,3.6V0H188.7z"/>
</g>
<g>
	<g>
		<rect x="1.8" y="116.2" class="st0" width="25.1" height="275"/>
	</g>
</g>
<g>
	<g>
		<g>
			<g>
				<defs>
					<path id="SVGID_1_" d="M177.6,304.7H52V167.2c0-69.1,56.5-125.6,125.6-125.6h56.1h125.6v137.6c0,69.1-56.5,125.6-125.6,125.6
						L177.6,304.7L177.6,304.7z"/>
				</defs>
				<clipPath id="SVGID_00000169540812316197480900000006445244543093346236_">
					<use xlink:href="#SVGID_1_"  style="overflow:visible;"/>
				</clipPath>
				<g id="Illustrasi_3" style="clip-path:url(#SVGID_00000169540812316197480900000006445244543093346236_);">
					<rect x="-48" y="-10.5" class="st4" width="471" height="386"/>
					<g>
						<path id="path177363" class="st5" d="M174.3,50.3c6.2-15.9,20.1,5.9,10.9,9c2.9-0.6,16,1.8,14.1,4.9
							c-1.6,2.6-9.5,1.6-12.2,1.6c0.1,5.7-8.9,5.1-10.9,1.1c-2.7,9.4-12.8,5.3-16.3,0c-3.9,2.2-12.9,2.4-15.8-1.9
							c-0.2-0.3,0.2-1.3,0.3-1.4c1.9-3.7,8.5-3.1,11.4-1.1c-5.2-4.2,2.5-15.1,6-8.2c0.6-1.6,0-3.3,0.3-4.9c0.3-1.6,1.6-3.2,2.7-4.3
							C169.5,40.4,172.3,46.4,174.3,50.3L174.3,50.3z"/>
						<g id="g446762">
							<path id="path172679" class="st5" d="M16.3,194.2c-0.4-0.7-0.1-1.5-0.2-2.3c-0.6-4.2-5.3-6.3-8-2.5c-4-7.9-11.6-3.9-11,3.8
								c-7.1-3.3-14.9,7.2-4,7.2c1.6,5.4,5.4,2.1,8,0.8c3.3,5.7,10.7,4,13.3-1.3c3.6,3.8,13-3.7,6.3-5.9
								C19.4,193.5,17.6,194.2,16.3,194.2L16.3,194.2z"/>
						</g>
						<g id="g446884">
							<path id="path177281" class="st5" d="M294,141.6c-5.7-14.5-18.3,5.4-9.9,8.2c-2.6-0.6-14.6,1.6-12.8,4.5
								c1.4,2.4,8.6,1.5,11.1,1.5c-0.1,5.2,8.1,4.6,9.9,1c2.5,8.6,11.6,4.8,14.8,0c3.5,2,11.7,2.2,14.3-1.8c0.2-0.2-0.2-1.1-0.3-1.2
								c-1.7-3.4-7.7-2.8-10.4-1c4.8-3.8-2.3-13.8-5.5-7.4c-0.6-1.4,0-3-0.3-4.4c-0.3-1.5-1.4-2.9-2.5-3.9
								C298.3,132.6,295.8,138.1,294,141.6L294,141.6z"/>
						</g>
						<g id="g446884_00000155121964812292573960000014573146658747329980_">
							<path id="path177281_00000152258158742122411690000017953580860859792306_" class="st5" d="M258,62.4
								c-2.5-6.3-7.9,2.4-4.3,3.6c-1.2-0.3-6.3,0.7-5.6,2c0.6,1,3.8,0.6,4.8,0.6c0,2.2,3.5,2,4.3,0.4c1.1,3.7,5.1,2.1,6.5,0
								c1.5,0.9,5.1,0.9,6.2-0.8c0.1-0.1-0.1-0.5-0.1-0.5c-0.7-1.5-3.4-1.2-4.5-0.4c2.1-1.7-1-6-2.4-3.2c-0.3-0.6,0-1.3-0.1-1.9
								c-0.1-0.6-0.6-1.3-1.1-1.7C259.8,58.5,258.7,60.9,258,62.4L258,62.4z"/>
						</g>
						<g id="g446884_00000005236678569488430490000009183664176552586665_">
							<path id="path177281_00000128486574853542555220000014149172413025352636_" class="st5" d="M49,106.9
								c-2.5-6.3-7.9,2.4-4.3,3.6c-1.2-0.3-6.3,0.7-5.6,2c0.6,1,3.8,0.6,4.8,0.6c0,2.2,3.5,2,4.3,0.4c1.1,3.7,5.1,2.1,6.5,0
								c1.5,0.9,5.1,0.9,6.2-0.8c0.1-0.1-0.1-0.5-0.1-0.5c-0.7-1.5-3.4-1.2-4.5-0.4c2.1-1.7-1-6-2.4-3.2c-0.3-0.6,0-1.3-0.1-1.9
								c-0.1-0.6-0.6-1.3-1.1-1.7C50.9,103,49.8,105.4,49,106.9L49,106.9z"/>
						</g>
						<g id="g446884_00000112622902371260075030000003503756041515734180_">
							<path id="path177281_00000115507239042756088690000001935334845633753014_" class="st5" d="M343.6,163.3
								c-2.5-6.3-7.9,2.4-4.3,3.6c-1.2-0.3-6.3,0.7-5.6,2c0.6,1,3.8,0.6,4.8,0.6c0,2.2,3.5,2,4.3,0.4c1.1,3.7,5.1,2.1,6.5,0
								c1.5,0.9,5.1,0.9,6.2-0.8c0.1-0.1-0.1-0.5-0.1-0.5c-0.7-1.5-3.4-1.2-4.5-0.4c2.1-1.7-1-6-2.4-3.2c-0.3-0.6,0-1.3-0.1-1.9
								c-0.1-0.6-0.6-1.3-1.1-1.7C345.5,159.3,344.4,161.7,343.6,163.3L343.6,163.3z"/>
						</g>
					</g>
					<g id="g6751" transform="translate(9.0907259,-25.757057)">
						<path id="path6747" class="st6" d="M233.6,262.6c7.7-5.9,2.4-17.8,9.5-24.7c5.3-5.2,12.3-2.1,19-4.8c5.6-2.2,7.5-13,13.3-16.6
							c5.9-3.7,10.8-0.9,16.7-2.3c5.7-1.3,8.3-7.7,13.7-9.9c3.7-1.5,7.9-0.3,11.9-0.7c3.3-0.3,9.1-2.4,10.5-2.7
							c-8,5.9-4.3,16.4-11.1,23c-3,3-7.6,3.2-10.8,5.2c-2,1.2-3.5,3.1-5.2,4.8c-5.3,5.2-4.9,14.3-11.3,19c-5.2,3.8-11.7,3.1-15,6.4
							c-1.5,1.5-2.6,4.7-3.9,6.4c-6,8-9.4,5.6-16.1,5c-4.5-0.4-16.7-7.4-20.5-6.5C233.6,264.3,233.7,263.2,233.6,262.6z"/>
						<path id="path6749" class="st7" d="M322.5,204.1c-6.8,5-13.7,9.8-20.7,14.5c0.8-3.2,2.8-7.3,5.1-10.1l-0.9-0.7
							c-2.8,3.3-5.1,8.1-5.6,11.7c-8,5.4-16.1,10.8-24.2,16.1c0.8-4.7,3.7-10.9,5.5-16.1l-1.1-0.4c-1.9,5.4-5.2,12.1-5.8,17.3
							c-9.9,6.5-19.8,13.1-29.6,19.9c0.9-4.6,4.1-11,7.4-15.1l-0.9-0.7c-3.6,4.5-7.2,11.6-7.8,16.7c-1.4,1-2.8,1.9-4.2,2.9
							c-5,3.5-12.3,4.2-17.6,7.5l0.6,1c4.9-3.1,12.2-3.7,17.6-7.5c1.3-0.9,2.5-1.7,3.8-2.6c8.4,3.9,18.1,1.9,26.1,2.6l0.1-1.1
							c-8-0.7-17.3,1-25.1-2.3c9.9-6.9,20-13.5,30.1-20.2c2.3,0.6,5.6,2,8.9,3c3.4,1,6.8,1.5,9.3-0.1l-0.6-1c-2,1.2-5.1,0.9-8.4-0.1
							c-2.8-0.8-5.7-2-8-2.7c7.9-5.2,15.9-10.5,23.8-15.8c0.1,0.1,0.2,0.1,0.2,0.1c2.6,0.6,5.3,0.2,7.9-0.2c2.6-0.4,5.1-0.9,7.3-0.8
							l0.1-1.1c-2.5-0.2-5.1,0.3-7.6,0.8c-2.3,0.4-4.5,0.7-6.6,0.4c7.2-4.9,14.4-9.9,21.4-15L322.5,204.1z"/>
					</g>
					<g id="g6745" transform="matrix(0.80558704,-0.30555239,0.3370225,0.73036383,164.05099,566.49446)">
						<path id="path1224" class="st6" d="M250.7-377.7c7-6.8,0.4-17.9,6.7-25.6c4.7-5.8,12-3.7,18.4-7.1c5.3-2.9,6-13.8,11.4-18.1
							c5.5-4.4,10.7-2.3,16.5-4.5c5.5-2.1,7.4-8.7,12.6-11.5c3.5-1.9,7.9-1.4,11.8-2.2c3.3-0.7,8.8-3.5,10.2-4
							c-7.3,6.8-2.5,16.7-8.5,24c-2.7,3.3-7.3,4.1-10.2,6.5c-1.9,1.5-3.2,3.5-4.7,5.4c-4.8,5.8-3.3,14.7-9.2,20.2
							c-4.8,4.5-11.3,4.6-14.3,8.3c-1.4,1.7-2.1,4.9-3.2,6.8c-5.1,8.7-8.8,6.7-15.5,7c-4.5,0.2-17.6-5.1-21.2-3.7
							C251-376.1,250.9-377.2,250.7-377.7z"/>
						<path id="path6539" class="st7" d="M333.1-446.9c-6.3,5.8-12.6,11.4-19.1,17c0.4-3.2,1.9-7.6,4-10.6l-0.9-0.6
							c-2.4,3.6-4.2,8.7-4.3,12.3c-7.4,6.4-14.9,12.7-22.4,19c0.3-4.7,2.5-11.2,3.7-16.5l-1.1-0.2c-1.3,5.5-3.8,12.6-3.8,17.8
							c-9.2,7.7-18.4,15.5-27.3,23.4c0.4-4.7,2.9-11.4,5.7-15.8l-1-0.6c-3.1,4.9-5.8,12.3-5.9,17.4c-1.3,1.1-2.6,2.2-3.8,3.4
							c-4.6,4.1-11.8,5.7-16.7,9.6l0.7,0.9c4.6-3.6,11.8-5.3,16.8-9.7c1.2-1,2.3-2,3.5-3.1c8.8,2.7,18.3-0.5,26.4-0.8l0-1.1
							c-8.1,0.3-17.2,3.2-25.3,1c9.1-8,18.5-15.9,27.8-23.8c2.4,0.3,5.9,1.3,9.2,1.8c3.5,0.5,7,0.6,9.3-1.3l-0.7-0.9
							c-1.9,1.5-5,1.5-8.4,1c-2.9-0.4-5.9-1.2-8.3-1.6c7.4-6.2,14.7-12.4,22-18.7c0.1,0,0.2,0.1,0.3,0.1c2.7,0.2,5.3-0.5,7.8-1.3
							c2.5-0.8,5-1.6,7.3-1.7l0-1.1c-2.5,0.1-5,1-7.5,1.7c-2.2,0.7-4.5,1.2-6.6,1.2c6.7-5.8,13.3-11.6,19.7-17.5L333.1-446.9z"/>
					</g>
					
						<g id="g6745_00000176034475965316716820000000823034233594393275_" transform="matrix(0.80558704,-0.30555239,0.3370225,0.73036383,164.05099,566.49446)">
						<path id="path1224_00000168113988012014554840000005032108177980083843_" class="st6" d="M102-441c-8.9-1.4-8-15-16.7-17.7
							c-6.5-2-11.9,4.3-18.9,5.3c-5.8,0.8-11.1-8.1-17.6-8.4c-6.6-0.3-10.2,4.7-16,6.4c-5.6,1.7-10.1-2.8-15.7-2
							c-3.9,0.6-7.4,3.7-11.1,5.4c-3.1,1.4-9.1,2.5-10.4,2.9c9.2,1.3,9.3,12.7,17.6,15.3c3.7,1.2,8-1,11.6-0.8
							c2.2,0.1,4.2,1,6.3,1.7c6.6,2,9.1,10.5,16.5,11.6c6,0.9,11.7-3.1,15.8-1.8c1.9,0.6,3.9,2.9,5.7,3.8c8.1,4.2,10.4,0.3,16.3-3.6
							c3.9-2.6,12.9-15.3,16.6-16.4C102.5-439.5,102.1-440.5,102-441z"/>
						<path id="path6539_00000098932254671949902390000006706784069347348372_" class="st7" d="M1.8-449.1
							c7.8,1.1,15.7,1.9,23.7,2.7c-1.7-2.5-4.9-5.3-7.9-6.6l0.5-1.1c3.6,1.5,7.3,4.8,9,7.8c9.1,0.9,18.2,1.6,27.3,2.4
							c-2.3-3.9-7-8.1-10.3-11.8l0.8-0.9c3.5,3.9,8.7,8.4,10.9,12.8c11.2,0.9,22.4,1.8,33.5,3c-2.4-3.7-7.4-7.9-11.7-10l0.6-1.1
							c4.8,2.3,10.3,6.9,12.6,11.2c1.6,0.2,3.2,0.3,4.7,0.5c5.7,0.7,12.6-2.4,18.5-2.1l-0.2,1.2c-5.5-0.3-12.4,2.9-18.5,2.1
							c-1.4-0.2-2.9-0.3-4.3-0.5c-6.4,7.8-15.9,11-22.9,15.7l-0.5-1c7.1-4.7,16.1-7.9,22.1-14.9c-11.3-1.2-22.7-2.2-34.1-3.1
							c-1.9,1.8-4.5,4.7-7.1,7.3c-2.8,2.6-5.7,4.8-8.5,4.7l0.2-1.2c2.2,0.1,5-1.8,7.7-4.4c2.3-2.2,4.5-4.7,6.4-6.6
							c-9-0.7-17.9-1.5-26.9-2.3c0,0.1-0.1,0.2-0.2,0.2c-2.2,1.9-4.8,2.9-7.3,3.8c-2.5,0.9-5,1.7-6.9,3.1l-0.5-1
							c2.2-1.5,4.7-2.3,7.2-3.2c2.2-0.8,4.3-1.7,6.2-3.1c-8.2-0.8-16.3-1.7-24.4-2.8L1.8-449.1z"/>
					</g>
					<g id="g374852" transform="rotate(-156.50106,1527.4411,398.37936)">
						<path id="path377888" class="st8" d="M3011.2,45.2c0.8-6.8-5.3-9.6-6.2-10c-0.2-0.2-0.3-0.3-0.4-0.5c-1-1-2-2-3-2.9
							c2,1,4.6,1.5,7.7,0.2c-3.6-5.2-8.1-5-11.4-3.2c-1.1-0.8-2-1.4-2.6-1.8c0,0,0,0,0,0c2.6,0.4,6,0.1,8.8-2.7
							c-5.7-3.5-10-2.1-12.6,0.6c-1.4-0.8-3.1-1.6-4.9-2.5c-0.3-0.1-0.6-0.3-0.9-0.4c2.9,0.3,8.2,0.1,11.5-5.2
							c-7-2.6-11.2,0.5-13.3,4.4c-3.2-1.4-6.1-2.4-8.3-3.1c-2.6-0.9-3.3-1-3.3-1l-0.6-0.1l0.1,0.2l0.3,0.7l0.3,0.7l-0.5,0
							c0,0,0.7,0.1,3.3,0.9c2.2,0.7,5.2,1.7,8.6,3.2c-1.9,3.9-1.9,9,4.1,13.2c2.5-5.8-0.5-10.3-2.4-12.5c0.2,0.1,0.4,0.2,0.5,0.2
							c1.9,0.9,3.6,1.7,5.1,2.6c-1.8,3.4-1.8,8,3.6,12.3c2.3-4.9-0.2-9.2-1.9-11.4c0.6,0.4,1.2,0.7,1.7,1c0.6,0.4,1.6,1,2.7,1.7
							c-1,3.5-0.2,7.8,5.4,10.2c0.8-3.5-0.5-6.1-1.9-7.8c1.2,0.9,2.4,1.8,3.5,2.9c0.2,0.2,0.3,0.3,0.5,0.5
							C3004.1,39.1,3005.3,43.3,3011.2,45.2L3011.2,45.2z"/>
						<g id="g374834" transform="matrix(0.18844432,-0.98208387,-0.98208387,-0.18844432,1595.0393,1919.9603)">
							<path id="path374828" class="st9" d="M2122.8-963.3c-28.6-15.5-31.9-39.4-23.1-64.4C2132.2-1014.9,2139-978.8,2122.8-963.3z"
								/>
							<path id="path374830" class="st10" d="M2101.7-1024.4c-0.3,0.1-0.4,0.5-0.3,0.8c0,0,3.4,7.7,7.5,18.2
								c-3.6-2.4-7.7-2.7-7.7-2.7c-0.3,0-0.6,0.2-0.7,0.6c0,0.3,0.2,0.6,0.6,0.7c0,0,5.2,0.5,8.6,3.6c0.9,2.4,1.9,4.9,2.9,7.5
								c0.5,1.4,1,2.8,1.5,4.3l-12.3-3c-0.3-0.1-0.7,0.1-0.7,0.4c-0.1,0.3,0.1,0.7,0.4,0.7l13.1,3.2c1.4,3.9,2.7,7.9,3.9,11.8
								c-1.8-0.4-4-1.7-5.7-3.1c-2-1.6-3.5-3.1-3.5-3.1c-0.1-0.1-0.3-0.2-0.4-0.2c-0.2,0-0.3,0.1-0.4,0.2c-0.2,0.2-0.2,0.6,0,0.9
								c0,0,1.6,1.6,3.7,3.2c2,1.6,4.5,3.2,6.9,3.5c2.7,9,4.7,17.2,4.6,22.4c0,0.3,0.3,0.6,0.6,0.6c0.3,0,0.6-0.3,0.6-0.6
								c0.1-5.5-1.9-14-4.7-23c5-7.5,6.5-12.4,6.5-12.4c0.1-0.3-0.1-0.7-0.4-0.8c0,0,0,0,0,0c-0.3-0.1-0.7,0.1-0.8,0.4c0,0,0,0,0,0
								c0,0-1.4,4.4-5.8,11.2c-1.2-3.8-2.5-7.7-3.9-11.5l7.3-11.4c0.2-0.3,0.1-0.7-0.2-0.8c0,0,0,0,0,0c-0.3-0.2-0.7-0.1-0.8,0.2
								c0,0,0,0,0,0l-6.8,10.6c-0.5-1.4-1-2.7-1.5-4c-0.9-2.3-1.7-4.6-2.6-6.8c0,0,0,0,0,0c2.4-5.1,3.4-8.4,3.8-10.5
								c0.2-1,0.3-1.8,0.3-2.2s0-0.8,0-0.8c-0.1-0.3-0.4-0.5-0.7-0.5c-0.3,0.1-0.5,0.4-0.5,0.7c0,0,0,0.1,0,0.5c0,0.4-0.1,1-0.3,2
								c-0.4,1.8-1.3,4.8-3.3,9.2c-4.3-11.1-8-19.5-8-19.5C2102.4-1024.4,2102-1024.6,2101.7-1024.4
								C2101.7-1024.4,2101.7-1024.4,2101.7-1024.4L2101.7-1024.4z"/>
						</g>
						<g id="g374842" transform="translate(47.199953,27.243211)">
							<path id="path374836" class="st9" d="M2903.1-6.9c-10.8-30.7,2.8-50.6,26.1-63.3C2944.7-38.8,2925.5-7.6,2903.1-6.9z"/>
							<path id="path374838" class="st10" d="M2928.5-66.4c-0.3-0.1-0.7,0.1-0.8,0.4c0,0-2.7,8-6.6,18.5c-1.1-4.2-3.9-7.2-3.9-7.2
								c-0.2-0.2-0.6-0.3-0.9,0c-0.2,0.2-0.3,0.6,0,0.9c0,0,3.5,3.8,4,8.5c-0.9,2.4-1.9,4.9-2.9,7.5c-0.6,1.4-1.1,2.8-1.7,4.2
								l-7.1-10.5c-0.2-0.3-0.6-0.3-0.8-0.2c-0.3,0.2-0.3,0.6-0.2,0.8l7.6,11.2c-1.6,3.8-3.3,7.7-5,11.4c-1-1.5-1.8-3.9-2.2-6.2
								c-0.4-2.5-0.5-4.7-0.5-4.7c0-0.2-0.1-0.3-0.2-0.4c-0.1-0.1-0.3-0.2-0.4-0.2c-0.3,0-0.6,0.3-0.6,0.6c0,0,0.1,2.2,0.5,4.8
								c0.4,2.5,1.2,5.4,2.7,7.2c-4,8.5-8.1,15.9-11.6,19.7c-0.2,0.2-0.2,0.6,0,0.9c0.2,0.2,0.6,0.2,0.9,0c3.8-4.1,7.9-11.7,12-20.3
								c8.7-2.2,13.1-4.8,13.1-4.8c0.3-0.2,0.4-0.5,0.2-0.8c0,0,0,0,0,0c-0.2-0.3-0.5-0.4-0.8-0.2c0,0,0,0,0,0c0,0-3.9,2.3-11.8,4.4
								c1.7-3.6,3.3-7.4,4.9-11.2l13.1-3.6c0.3-0.1,0.5-0.4,0.4-0.7c0,0,0,0,0,0c-0.1-0.3-0.4-0.5-0.7-0.4c0,0,0,0,0,0l-12.2,3.3
								c0.5-1.3,1.1-2.7,1.6-4c0.9-2.3,1.8-4.6,2.6-6.8c0,0,0,0,0,0c5.2-2.2,8.2-4,9.9-5.2c0.9-0.6,1.4-1.1,1.7-1.5
								c0.3-0.3,0.5-0.6,0.5-0.6c0.2-0.3,0.1-0.7-0.2-0.8c-0.3-0.2-0.7-0.1-0.8,0.2c0,0,0,0.1-0.3,0.4c-0.3,0.3-0.8,0.7-1.6,1.3
								c-1.5,1.1-4.2,2.7-8.6,4.6c4.2-11.1,7.1-19.8,7.1-19.8C2929-65.9,2928.8-66.3,2928.5-66.4
								C2928.5-66.4,2928.5-66.4,2928.5-66.4L2928.5-66.4z"/>
						</g>
						<g id="g374826" transform="matrix(-0.44234666,-0.89684414,-0.89684414,0.44234666,2641.3193,1632.4104)">
							<path id="path374820" class="st11" d="M1311.8-993.8c-28.6-15.5-31.9-39.4-23.1-64.4C1321.2-1045.4,1328-1009.4,1311.8-993.8
								z"/>
							<path id="path374822" class="st12" d="M1290.7-1054.9c-0.3,0.1-0.4,0.5-0.3,0.8c0,0,3.4,7.7,7.5,18.2
								c-3.6-2.4-7.7-2.7-7.7-2.7c-0.3,0-0.6,0.2-0.7,0.6c0,0.3,0.2,0.6,0.6,0.7c0,0,5.2,0.5,8.6,3.6c0.9,2.4,1.9,4.9,2.9,7.5
								c0.5,1.4,1,2.8,1.5,4.3l-12.3-3c-0.3-0.1-0.7,0.1-0.7,0.4c-0.1,0.3,0.1,0.7,0.4,0.7l13.1,3.2c1.4,3.9,2.7,7.9,3.9,11.8
								c-1.8-0.4-4-1.7-5.7-3.1c-2-1.6-3.5-3.1-3.5-3.1c-0.1-0.1-0.3-0.2-0.4-0.2c-0.2,0-0.3,0.1-0.4,0.2c-0.2,0.2-0.2,0.6,0,0.9
								c0,0,1.6,1.6,3.7,3.2c2,1.6,4.5,3.2,6.9,3.5c2.7,9,4.7,17.2,4.6,22.4c0,0.3,0.3,0.6,0.6,0.6c0.3,0,0.6-0.3,0.6-0.6
								c0.1-5.5-1.9-14-4.7-23c5-7.5,6.5-12.4,6.5-12.4c0.1-0.3-0.1-0.7-0.4-0.8c0,0,0,0,0,0c-0.3-0.1-0.7,0.1-0.8,0.4c0,0,0,0,0,0
								c0,0-1.4,4.4-5.8,11.2c-1.2-3.8-2.5-7.7-3.9-11.5l7.3-11.4c0.2-0.3,0.1-0.7-0.2-0.8c0,0,0,0,0,0c-0.3-0.2-0.7-0.1-0.8,0.2
								c0,0,0,0,0,0l-6.8,10.6c-0.5-1.4-1-2.7-1.5-4c-0.9-2.3-1.7-4.6-2.6-6.8c0,0,0,0,0,0c2.4-5.1,3.4-8.4,3.8-10.5
								c0.2-1,0.3-1.8,0.3-2.2c0-0.5,0-0.8,0-0.8c-0.1-0.3-0.4-0.5-0.7-0.5c-0.3,0.1-0.5,0.4-0.5,0.7c0,0,0,0.1,0,0.5
								c0,0.4-0.1,1-0.3,2c-0.4,1.8-1.3,4.8-3.3,9.2c-4.3-11.1-8-19.5-8-19.5C1291.3-1054.9,1291-1055.1,1290.7-1054.9
								C1290.7-1054.9,1290.7-1054.9,1290.7-1054.9L1290.7-1054.9z"/>
						</g>
						<path id="path383373" class="st8" d="M2971.1,88.2c5.3-4.2,3-10.6,2.7-11.4c0-0.2,0-0.4,0-0.7c0.1-1.4,0-2.8,0-4.2
							c0.7,2.1,2.2,4.3,5.3,5.6c1.1-6.2-2.2-9.3-5.8-10.3c-0.2-1.3-0.4-2.4-0.6-3.1c0,0,0,0,0,0c1.6,2.2,4.2,4.3,8.2,4.3
							c-1.5-6.5-5.6-8.5-9.3-8.5c-0.5-1.6-1-3.3-1.7-5.2c-0.1-0.3-0.2-0.6-0.3-0.9c1.8,2.3,5.8,5.9,11.8,4.5
							c-3.1-6.8-8.3-7.6-12.5-6.3c-1.3-3.3-2.6-6.1-3.6-8.1c-1.2-2.4-1.6-3.1-1.6-3.1l-0.3-0.5l-0.1,0.2l-0.3,0.7l-0.3,0.7l-0.4-0.3
							c0,0,0.4,0.6,1.7,3c1.1,2,2.5,4.9,3.8,8.3c-4.1,1.4-7.7,5.1-6.4,12.3c5.8-2.3,7-7.6,7.1-10.5c0.1,0.2,0.1,0.4,0.2,0.6
							c0.8,2,1.3,3.8,1.8,5.4c-3.6,1.1-7,4.4-6.2,11.2c5.1-1.8,6.4-6.6,6.7-9.4c0.2,0.7,0.3,1.3,0.5,1.9c0.2,0.7,0.4,1.8,0.7,3.1
							c-3.2,1.8-5.6,5.4-3.4,11.1c3-1.9,4-4.6,4.2-6.9c0.2,1.5,0.4,3,0.5,4.5c0,0.2,0,0.4,0,0.7
							C2970.4,78.9,2968.2,82.7,2971.1,88.2L2971.1,88.2z"/>
						<path id="path383375" class="st8" d="M2952.7-44c-6.2,2.7-5.6,9.4-5.5,10.3c-0.1,0.2-0.1,0.4-0.2,0.6c-0.4,1.3-0.8,2.7-1,4
							c-0.1-2.2-1-4.8-3.7-6.8c-2.7,5.7-0.2,9.5,2.9,11.5c-0.1,1.3-0.2,2.4-0.2,3.2c0,0,0,0,0,0c-1-2.5-2.9-5.3-6.8-6.3
							c-0.2,6.7,3.2,9.7,6.8,10.6c0,1.6,0.1,3.5,0.3,5.5c0,0.3,0.1,0.6,0.1,0.9c-1.2-2.7-4-7.2-10.2-7.4c1.3,7.3,6.1,9.5,10.4,9.4
							c0.4,3.5,1,6.5,1.4,8.7c0.6,2.7,0.8,3.4,0.8,3.4l0.2,0.6l0.1-0.2l0.4-0.6l0.4-0.6l0.3,0.4c0,0-0.2-0.7-0.8-3.3
							c-0.5-2.3-1.1-5.4-1.6-9c4.3-0.3,8.8-2.9,9.4-10.2c-6.2,0.7-8.7,5.6-9.6,8.3c0-0.2,0-0.4-0.1-0.6c-0.2-2.1-0.3-4-0.4-5.7
							c3.8-0.1,7.9-2.4,8.9-9.3c-5.4,0.4-7.9,4.8-8.9,7.3c0-0.7,0-1.4,0-2c0-0.8,0-1.9,0.1-3.2c3.5-0.9,6.8-3.7,6.1-9.8
							c-3.4,1.1-5,3.4-5.8,5.6c0.2-1.5,0.4-3,0.7-4.5c0.1-0.2,0.1-0.4,0.2-0.6C2950.9-34.8,2954-38,2952.7-44L2952.7-44z"/>
					</g>
					<g id="g190260" transform="matrix(0.83410976,0,0,0.83410976,296.1574,390.27164)">
						<path id="path190252" class="st13" d="M0.7-115.1c0-22.3-0.4-29.2-0.9-40.4c-0.6-11.2-1.3-11.2-1.8,0
							c-0.6,11.2-0.9,18-0.9,40.4h1.8H0.7z"/>
						<circle id="circle190254" class="st14" cx="-1.2" cy="-161.7" r="3.7"/>
						<path id="path190256" class="st13" d="M0.8-172c0,8.8-0.9,10.2-2,10.2c-1.1,0-2-1.4-2-10.2c0-8.8,0.9-21.5,2-21.5
							C-0.1-193.5,0.8-180.7,0.8-172z M-10.9-158.5c7.6-4.4,9.2-4.3,9.8-3.4c0.5,0.9-0.2,2.4-7.8,6.8c-7.6,4.4-19.1,10-19.6,9.1
							C-29.1-147-18.5-154.1-10.9-158.5z M6.6-155.1c-7.6-4.4-8.3-5.8-7.8-6.8c0.5-0.9,2.2-1,9.8,3.4c7.6,4.4,18.2,11.5,17.7,12.5
							C25.7-145.1,14.2-150.7,6.6-155.1z"/>
						<circle id="circle190258" class="st14" cx="-1.2" cy="-161.7" r="1.4"/>
					</g>
					<g id="g184579" transform="matrix(1.4810816,0,0,1.4810816,-816.73609,211.21542)">
						<path id="path182586" class="st13" d="M773.4,58.3c0-22.3-0.4-29.2-0.9-40.4c-0.6-11.2-1.3-11.2-1.8,0
							c-0.6,11.2-0.9,18-0.9,40.4h1.8H773.4z"/>
						
							<ellipse id="path183703" transform="matrix(0.1567 -0.9877 0.9877 0.1567 639.163 771.8151)" class="st14" cx="771.5" cy="11.6" rx="5.4" ry="5.4"/>
						<path id="path182789" class="st13" d="M773.5,1.4c0,8.8-0.9,10.2-2,10.2s-2-1.4-2-10.2c0-8.8,0.9-21.5,2-21.5
							S773.5-7.4,773.5,1.4z M761.8,14.9c7.6-4.4,9.2-4.3,9.8-3.4c0.5,0.9-0.2,2.4-7.8,6.8c-7.6,4.4-19.1,10-19.6,9.1
							C743.6,26.4,754.2,19.3,761.8,14.9L761.8,14.9z M779.3,18.3c-7.6-4.4-8.3-5.8-7.8-6.8c0.5-0.9,2.2-1,9.8,3.4
							c7.6,4.4,18.2,11.5,17.7,12.5C798.4,28.3,786.9,22.7,779.3,18.3z"/>
						<path id="circle184573" class="st14" d="M771.5,10.3c0.8,0,1.4,0.6,1.4,1.4c0,0.8-0.6,1.4-1.4,1.4s-1.4-0.6-1.4-1.4
							C770.1,10.9,770.8,10.3,771.5,10.3z"/>
					</g>
					<path id="path229932" class="st7" d="M337,304h-337c0,0,20.8-17.1,38.2-14.5c17.4,2.6,26.3-1.6,37.1-6.7
						c10.9-5.1,37.8-6,63.9-1.8c26.1,4.3,51.1,13.6,64.1,10.2c13-3.4,27.2-11.1,47.8-8.5c20.7,2.6,27.2,11.9,39.1,9.4
						C302.2,289.6,332.6,293,337,304L337,304z"/>
					<g id="g374590" transform="rotate(-18.231444,1535.7553,428.22016)">
						<path id="path383373_00000133520227627940583730000009540489449462793136_" class="st8" d="M391.9-341.7
							c-6.7,1.1-7.8,7.8-7.9,8.7c-0.1,0.2-0.2,0.4-0.4,0.6c-0.7,1.2-1.4,2.4-2,3.7c0.4-2.2,0.2-4.9-1.9-7.4c-4,4.9-2.5,9.2,0.1,11.8
							c-0.5,1.2-0.8,2.3-1,3c0,0,0,0,0,0c-0.3-2.7-1.6-5.8-5.1-7.7c-1.8,6.4,0.7,10.2,4,11.9c-0.3,1.6-0.7,3.4-1,5.4
							c0,0.3-0.1,0.6-0.1,0.9c-0.5-2.9-2.2-8-8.1-9.6c-0.6,7.4,3.6,10.7,7.9,11.6c-0.4,3.5-0.6,6.6-0.7,8.8
							c-0.1,2.7-0.1,3.5-0.1,3.5l0,0.6l0.2-0.1l0.6-0.5l0.6-0.5l0.2,0.5c0,0-0.1-0.7,0-3.4c0.1-2.3,0.2-5.5,0.7-9.1
							c4.3,0.7,9.2-0.7,11.6-7.6c-6.2-0.8-9.8,3.3-11.3,5.8c0-0.2,0.1-0.4,0.1-0.6c0.3-2.1,0.7-4,1-5.7c3.7,0.8,8.2-0.5,10.9-6.8
							c-5.4-0.9-8.8,2.7-10.4,5c0.2-0.7,0.3-1.3,0.5-1.9c0.2-0.7,0.5-1.8,0.9-3c3.6,0,7.5-2,8.3-8.1c-3.5,0.2-5.7,2.1-7,4
							c0.5-1.4,1.1-2.8,1.8-4.2c0.1-0.2,0.2-0.4,0.3-0.6C388-333.2,391.7-335.5,391.9-341.7L391.9-341.7z"/>
						<path id="path383373_00000071520689683845779490000004541187773973125255_" class="st8" d="M331.3-350.5
							c-2.9,6.2,1.9,10.8,2.6,11.4c0.1,0.2,0.2,0.4,0.3,0.6c0.6,1.3,1.2,2.5,1.9,3.7c-1.6-1.6-3.9-2.9-7.2-2.7
							c1.7,6.1,6.1,7.3,9.7,6.7c0.7,1.1,1.4,2,1.9,2.6c0,0,0,0,0,0c-2.4-1.2-5.7-2.1-9.2-0.3c4.2,5.2,8.8,5.2,12.1,3.5
							c1.1,1.2,2.4,2.5,3.8,3.9c0.2,0.2,0.5,0.4,0.7,0.6c-2.6-1.3-7.8-2.8-12.6,1.2c5.8,4.7,10.8,3.2,14,0.2c2.6,2.4,5,4.3,6.8,5.7
							c2.2,1.6,2.8,2.1,2.8,2.1l0.5,0.3l0-0.2l-0.1-0.7l-0.1-0.7l0.5,0.1c0,0-0.6-0.4-2.8-2c-1.9-1.4-4.4-3.3-7.1-5.8
							c3-3.1,4.7-8,0.4-13.8c-4.2,4.6-2.9,9.9-1.8,12.6c-0.1-0.1-0.3-0.3-0.4-0.4c-1.6-1.5-2.9-2.8-4-4.1c2.8-2.6,4.3-7,0.6-12.8
							c-3.8,3.9-2.8,8.8-1.9,11.4c-0.5-0.5-0.9-1-1.3-1.5c-0.5-0.6-1.2-1.5-2-2.5c2-3,2.7-7.3-1.8-11.4c-1.8,3-1.5,5.9-0.7,8
							c-0.8-1.2-1.7-2.5-2.4-3.8c-0.1-0.2-0.2-0.4-0.3-0.6C336-342.4,336.2-346.8,331.3-350.5L331.3-350.5z"/>
						<g id="g361557" transform="matrix(-0.19515372,-0.98077266,-0.98077266,0.19515372,2251.0003,1806.129)">
							<path id="path361553" class="st9" d="M2427,1423.8c-15-17.6-11.1-34.1,1.1-48.5C2446.3,1392.1,2441.6,1417.6,2427,1423.8z"/>
							<path id="path361555" class="st10" d="M2429.4,1378.2c-0.2,0-0.4,0.2-0.4,0.4c0,0,0.3,6,0.3,13.9c-1.8-2.5-4.4-3.7-4.4-3.7
								c-0.2-0.1-0.5,0-0.6,0.2c-0.1,0.2,0,0.5,0.2,0.6c0,0,3.3,1.6,4.8,4.6c0,1.8,0,3.7,0,5.7c0,1.1,0,2.1-0.1,3.2l-7.4-5.1
								c-0.2-0.1-0.5-0.1-0.6,0.1c-0.1,0.2-0.1,0.5,0.1,0.6l7.8,5.4c-0.1,3-0.2,5.9-0.4,8.8c-1.1-0.7-2.2-2.2-3-3.5
								c-0.9-1.6-1.5-3-1.5-3c0-0.1-0.1-0.2-0.2-0.2c-0.1,0-0.2,0-0.3,0c-0.2,0.1-0.3,0.3-0.2,0.6c0,0,0.6,1.4,1.6,3.1
								c0.9,1.6,2.2,3.3,3.7,4.1c-0.5,6.6-1.3,12.5-2.6,16c-0.1,0.2,0,0.5,0.2,0.6c0.2,0.1,0.5,0,0.6-0.2c1.5-3.7,2.3-9.7,2.7-16.4
								c5.2-3.7,7.4-6.5,7.4-6.5c0.1-0.2,0.1-0.5-0.1-0.6c0,0,0,0,0,0c-0.2-0.1-0.5-0.1-0.6,0.1c0,0,0,0,0,0c0,0-2,2.6-6.7,5.9
								c0.2-2.8,0.3-5.7,0.4-8.6l7.7-5.7c0.2-0.1,0.2-0.4,0.1-0.6c0,0,0,0,0,0c-0.1-0.2-0.4-0.2-0.6-0.1c0,0,0,0,0,0l-7.2,5.3
								c0-1,0-2,0.1-3c0-1.8,0-3.5,0-5.1c0,0,0,0,0,0c2.9-2.8,4.4-4.7,5.2-6c0.4-0.6,0.6-1.1,0.8-1.4c0.1-0.3,0.2-0.5,0.2-0.5
								c0-0.2-0.1-0.5-0.4-0.5c-0.2,0-0.5,0.1-0.5,0.4c0,0,0,0.1-0.1,0.3c-0.1,0.3-0.3,0.7-0.7,1.3c-0.7,1.1-2.1,2.8-4.5,5.2
								c0-8.4-0.3-14.9-0.3-14.9C2429.8,1378.4,2429.6,1378.2,2429.4,1378.2C2429.4,1378.2,2429.4,1378.2,2429.4,1378.2
								L2429.4,1378.2z"/>
						</g>
						<g id="g361471" transform="matrix(0.18844432,-0.98208387,-0.98208387,-0.18844432,1595.0393,1919.9603)">
							<path id="path361467" class="st9" d="M1935.4,1616.3c-15-17.6-11.1-34.1,1.1-48.5C1954.7,1584.6,1950,1610.1,1935.4,1616.3z"
								/>
							<path id="path361469" class="st10" d="M1937,1570.5c-0.2,0-0.4,0.2-0.4,0.4c0,0,0.3,6,0.3,13.9c-1.8-2.5-4.4-3.7-4.4-3.7
								c-0.2-0.1-0.5,0-0.6,0.2c-0.1,0.2,0,0.5,0.2,0.6c0,0,3.3,1.6,4.8,4.6c0,1.8,0,3.7,0,5.7c0,1.1,0,2.1-0.1,3.2l-7.4-5.1
								c-0.2-0.1-0.5-0.1-0.6,0.1c-0.1,0.2-0.1,0.5,0.1,0.6l7.8,5.4c-0.1,3-0.2,5.9-0.4,8.8c-1.1-0.7-2.2-2.2-3-3.5
								c-0.9-1.6-1.5-3-1.5-3c0-0.1-0.1-0.2-0.2-0.2c-0.1,0-0.2,0-0.3,0c-0.2,0.1-0.3,0.3-0.2,0.6c0,0,0.6,1.4,1.6,3.1
								c0.9,1.6,2.2,3.3,3.7,4.1c-0.5,6.6-1.3,12.5-2.6,16c-0.1,0.2,0,0.5,0.2,0.6c0.2,0.1,0.5,0,0.6-0.2c1.5-3.7,2.3-9.7,2.7-16.4
								c5.2-3.7,7.4-6.5,7.4-6.5c0.1-0.2,0.1-0.5-0.1-0.6c0,0,0,0,0,0c-0.2-0.1-0.5-0.1-0.6,0.1c0,0,0,0,0,0c0,0-2,2.6-6.7,5.9
								c0.2-2.8,0.3-5.7,0.4-8.6l7.7-5.7c0.2-0.1,0.2-0.4,0.1-0.6c0,0,0,0,0,0c-0.1-0.2-0.4-0.2-0.6-0.1c0,0,0,0,0,0l-7.2,5.3
								c0-1,0-2,0.1-3c0-1.8,0-3.5,0-5.1c0,0,0,0,0,0c2.9-2.8,4.4-4.7,5.2-6c0.4-0.6,0.6-1.1,0.8-1.4c0.1-0.3,0.2-0.5,0.2-0.5
								c0-0.2-0.1-0.5-0.4-0.5c-0.2,0-0.5,0.1-0.5,0.4c0,0,0,0.1-0.1,0.3c-0.1,0.3-0.3,0.7-0.7,1.3c-0.7,1.1-2.1,2.8-4.5,5.2
								c0-8.4-0.3-14.9-0.3-14.9C1937.4,1570.7,1937.2,1570.5,1937,1570.5C1937,1570.5,1937,1570.5,1937,1570.5L1937,1570.5z"/>
							<path id="path361922" class="st1" d="M1947.8,1599.4c-0.7,3.7-2.1,7.1-4.1,9.9c-1.5,0.9-3.1,1.5-4.7,1.9
								c-0.8,0.2-2-0.5-2.7-0.7c-4.1-0.8-4.3-2.9-4.5-6.8c-0.1-2.3,1-4.1,1.4-6.2c0.7-3.7,3.1-6.1,6-8.1c2.5-1.7,5.9-1.5,8.8-0.4
								C1948.6,1592.6,1948.5,1596.1,1947.8,1599.4z"/>
						</g>
						<g id="g361465" transform="translate(-8.3331652,-6.4392641)">
							<path id="path357431" class="st9" d="M364-293.3c-15-17.6-11.1-34.1,1.1-48.5C383.3-325,378.6-299.4,364-293.3z"/>
							<path id="path357499" class="st10" d="M365.6-339.1c-0.2,0-0.4,0.2-0.4,0.4c0,0,0.3,6,0.3,13.9c-1.8-2.5-4.4-3.7-4.4-3.7
								c-0.2-0.1-0.5,0-0.6,0.2c-0.1,0.2,0,0.5,0.2,0.6c0,0,3.3,1.6,4.8,4.6c0,1.8,0,3.7,0,5.7c0,1.1,0,2.1-0.1,3.2l-7.4-5.1
								c-0.2-0.1-0.5-0.1-0.6,0.1c-0.1,0.2-0.1,0.5,0.1,0.6l7.8,5.4c-0.1,3-0.2,5.9-0.4,8.8c-1.1-0.7-2.2-2.2-3-3.5
								c-0.9-1.6-1.5-3-1.5-3c0-0.1-0.1-0.2-0.2-0.2c-0.1,0-0.2,0-0.3,0c-0.2,0.1-0.3,0.3-0.2,0.6c0,0,0.6,1.4,1.6,3.1
								c0.9,1.6,2.2,3.3,3.7,4.1c-0.5,6.6-1.3,12.5-2.6,16c-0.1,0.2,0,0.5,0.2,0.6c0.2,0.1,0.5,0,0.6-0.2c1.5-3.7,2.3-9.7,2.7-16.4
								c5.2-3.7,7.4-6.5,7.4-6.5c0.1-0.2,0.1-0.5-0.1-0.6c0,0,0,0,0,0c-0.2-0.1-0.5-0.1-0.6,0.1c0,0,0,0,0,0c0,0-2,2.6-6.7,5.9
								c0.2-2.8,0.3-5.7,0.4-8.6l7.7-5.7c0.2-0.1,0.2-0.4,0.1-0.6c0,0,0,0,0,0c-0.1-0.2-0.4-0.2-0.6-0.1c0,0,0,0,0,0l-7.2,5.3
								c0-1,0-2,0.1-3c0-1.8,0-3.5,0-5.1c0,0,0,0,0,0c2.9-2.8,4.4-4.7,5.2-6c0.4-0.6,0.6-1.1,0.8-1.4c0.1-0.3,0.2-0.5,0.2-0.5
								c0-0.2-0.1-0.5-0.4-0.5c-0.2,0-0.5,0.1-0.5,0.4c0,0,0,0.1-0.1,0.3c-0.1,0.3-0.3,0.7-0.7,1.3c-0.7,1.1-2.1,2.8-4.5,5.2
								c0-8.4-0.3-14.9-0.3-14.9C366-338.9,365.8-339.1,365.6-339.1C365.6-339.1,365.6-339.1,365.6-339.1L365.6-339.1z"/>
						</g>
						<g id="g357396" transform="translate(11.742187,-7.1968245)">
							<path id="path344333" class="st11" d="M348.6-297.9c-1.2-8.4-3.4-25.7,7.2-25.4c12.9,0.5,4,15.6,8.5,18.5
								c1.1,0.7,2.1,0.7,3.3,0c2-1.3,3.5-4.7,4.9-6.8c2.9-4.5,9.2-6.3,12.4-2.9c7.7,8.3-7.1,15.6-8.5,19.5
								c-2.5,7.6,15.8,3.5,12,14.3C383.6-267.4,351.6-277,348.6-297.9z"/>
							<path id="path349942" class="st12" d="M354.6-318.1c-0.2,0-0.4,0.2-0.5,0.4c-0.4,5.2,0.3,10.1,1.1,15.1c0,0,0,0,0,0
								c0.1,0.4,0.1,0.7,0.2,1.1c0,0-0.1,0-0.1-0.1c-0.6-0.5-1.3-1.2-1.9-2.1c-0.6-0.8-1.2-1.7-1.7-2.5c-0.4-0.8-0.7-1.5-0.7-1.7
								c0-0.2-0.2-0.4-0.5-0.4c-0.2,0-0.4,0.2-0.4,0.5c0.1,0.6,0.4,1.2,0.8,2c0.5,0.8,1.1,1.8,1.8,2.6c0.7,0.9,1.4,1.7,2.1,2.2
								c0.3,0.3,0.7,0.5,1,0.6c0.5,1.3,1.1,2.6,1.3,3.9c0.4,2.6,1.5,5.6,2.5,7.6c0,0,0,0.1,0,0.1c-0.7,0.6-1.4,1.2-2.1,1.8
								c-1.3,1.1-3.2,2.9-5,4.4c-1.9,1.6-3.8,2.9-4.9,3.3c-0.2,0.1-0.3,0.3-0.3,0.5c0,0,0,0,0,0c0.1,0.2,0.3,0.3,0.5,0.3
								c0,0,0,0,0,0c1.4-0.5,3.3-1.9,5.2-3.5c1.9-1.6,3.8-3.3,5-4.4c0.7-0.6,1.4-1.3,2.2-1.9c0.1,0.1,0.2,0.1,0.4,0.2
								c0.4,0.2,0.9,0.5,1.2,0.6c1.9,1.1,4,2.2,6.1,3.2c0,0.2,0.1,0.4,0.2,0.5c0.3,0.8,1,1.6,1.8,2.3c0.8,0.8,1.7,1.5,2.6,2.2
								c1,0.7,2.5,0.9,3.4,1.2c0.2,0.1,0.5,0,0.5-0.3c0.1-0.2,0-0.5-0.3-0.5c0,0,0,0,0,0c-1-0.3-2.5-0.6-3.1-1.1
								c-0.8-0.6-1.8-1.4-2.5-2.1c-0.6-0.6-1.2-1.3-1.5-1.8c4.6,2,9.6,3.4,14.3,3.4c0.2,0,0.4-0.2,0.4-0.4c0-0.2-0.2-0.4-0.4-0.4
								c-4.7,0-9.8-1.4-14.5-3.5c0.1-0.1,0.1-0.2,0.3-0.3c0.5-0.3,1.7-0.4,3.7-0.2c0.2,0,0.4-0.1,0.5-0.4c0-0.2-0.1-0.4-0.4-0.5
								c0,0,0,0,0,0c-1-0.1-1.9-0.1-2.6-0.1c-0.7,0.1-1.2,0.2-1.6,0.4c-0.3,0.2-0.6,0.4-0.7,0.7c-2-0.9-4-2-5.8-3.1
								c-0.3-0.2-0.8-0.4-1.2-0.6c0,0-0.1,0-0.1-0.1c4.5-4.1,8.7-8.4,12.5-13c1.3-0.6,3.1-1.1,4.7-1.9c1.8-0.8,3.5-1.8,4.3-3.4
								c0.1-0.2,0-0.5-0.2-0.6c-0.2-0.1-0.5,0-0.6,0.2c0,0,0,0,0,0c-0.6,1.2-2.1,2.2-3.8,3c-1.1,0.5-2.2,0.9-3.3,1.3
								c2.1-2.6,4.1-5.3,5.9-8.1c0.1-0.2,0.1-0.5-0.1-0.6c0,0,0,0,0,0c-0.2-0.1-0.5-0.1-0.6,0.1c0,0,0,0,0,0c-2,3.1-4.2,6-6.5,8.9
								c-0.4-1.8,0.2-4.1,0.9-5.5c0.1-0.2,0-0.5-0.2-0.6c-0.1-0.1-0.2-0.1-0.3,0c-0.1,0-0.2,0.1-0.2,0.2c-0.8,1.7-1.7,4.4-0.9,6.7
								c-3.7,4.5-7.9,8.6-12.2,12.6c-0.9-1.9-1.9-4.8-2.3-7.2c-0.2-1.3-0.7-2.5-1.2-3.7c0.1,0,0.1,0,0.1-0.1c0.6-0.3,1-0.9,1.3-1.6
								c0.3-0.7,0.5-1.6,0.7-2.4c0.3-1.7,0.5-3.5,0.6-4.2c0.1-0.2-0.1-0.5-0.3-0.5c0,0,0,0,0,0c-0.2-0.1-0.5,0.1-0.5,0.3
								c0,0,0,0,0,0c-0.2,0.9-0.3,2.6-0.6,4.2c-0.2,0.8-0.4,1.6-0.6,2.2c-0.3,0.6-0.6,1.1-0.9,1.2c0,0,0,0-0.1,0
								c-0.2-0.6-0.4-1.1-0.5-1.7c-0.8-4.9-1.5-9.8-1.1-14.9C355.1-317.9,354.9-318.1,354.6-318.1
								C354.6-318.1,354.6-318.1,354.6-318.1L354.6-318.1z"/>
						</g>
						<path id="path374625" class="st1" d="M346.9-315.6c0,0,8.5-2.1,25.8,12.6c17.2,14.7,19.8,24.4,20,26.9
							c0.2,2.5-3.7,7.4-3.7,7.4L346.9-315.6z"/>
					</g>
					<g id="g172462" transform="translate(-29.997864)">
						<circle id="path153870" class="st13" cx="195.1" cy="193.3" r="104.4"/>
						<path id="path154003" class="st14" d="M195.1,88.9c-17.7,0.1-35.1,4.7-50.6,13.3c0.3,1.8,0.8,3.5,1.7,5.4
							c2.7,5.9,6.8,9.9,13,11.7c16.6,4.7,12-12.2,26.7-14.3c8.4-1.2,18.9,6.1,26.7,3.3c7.3-2.7,8.7-9.4,11.2-15.4
							C214.4,90.2,204.8,88.9,195.1,88.9L195.1,88.9z M257.9,109.9c-6.9,7.2-22.5,0.7-29.1,10.7c-5.3,7.9,7,14.9,4.6,22.1
							c-1.3,4-25.6,6.1-20.2,16.9c4.9,9.8,23.4-5,23.4,13.7c0,3.1,0.5,6.7-2,9.1c-6,6-16.9,2.6-22.8,8.5c-4.8,4.8,0.7,11.9-1.3,16.9
							c-1.8,4.5-7.4,7.2-10.4,11.1c-1,1.2-11.1,46.2-11.1,46.2c2.1,4.1,16.8-15.9,21.5-16.9c4.4-1,9.2,1.1,13.7,0.7
							c7.6-0.7,24.8-5,28-13c2.1-5.3-1.7-13.3,1.3-18.2c2.4-4,7.8-4.8,8.5-10.4c0.5-4.5,0.6-9.1,0.6-13.7c0-3.6-1-7,2.6-8.5
							c12.4-4.9,11.2,20.2,20.2,24.7c3.2,1.6,8.5-1.4,11.1-2.6c0.7-0.3,1.4-0.7,2-1c0.6-4.2,0.9-8.5,1-12.8
							C299.5,160.5,284.1,129.7,257.9,109.9L257.9,109.9z M111.1,131.3c-13.3,17.9-20.4,39.6-20.4,62c0,11.3,1.9,22.6,5.6,33.3
							c3.9,0.9,7.8,1.4,11.6,0.7c7.9-1.6,11-9,20.2-7.2c11,2.2,13.7,14.3,26.7,11.1c10.4-2.6-2.8-28.2-4.6-32.5
							c-4.5-11.2,11.8-16,8.5-26c-4-12.1-14.4-7.9-21.5-15c-4.2-4.2-1.2-11.6-5.9-16.3C125.1,135.3,109.6,144.9,111.1,131.3
							L111.1,131.3z"/>
						<path class="st14" d="M172.4,128.6c2.2-0.8,4.1-2.3,6.2-3.2c2.1-1,4.7-1.4,6.7-0.1c2.4,1.6,2.6,5.2,1.8,7.9
							c-0.7,2.4-2,4.6-3.9,6.3c-4.3,3.8-10.5,3.9-15.8,6.1c-1.8,0.7-3.5,1.7-5.5,1.8c-2.1,0.2-4.1-0.7-5.9-1.7
							c-1.4-0.8-2.7-1.8-3.4-3.2c-1.5-2.8-0.2-6.4,2.1-8.6c2.1-2,5.7-3.9,8.6-4.5C166.3,128.7,169.3,129.7,172.4,128.6z"/>
						<path class="st14" d="M127.6,252c1.3,1.1,2.9,1.9,4.6,2.2c3.2,0.5,6.7-1.5,7.9-4.6c1.2-3.1,0.1-6.8-2.5-8.8
							c-1.3-1-3-1.6-3.9-3.1c-0.8-1.3-0.7-3-1.6-4.3c-0.7-1.1-2-1.6-3.3-1.7c-4.4-0.2-9.2,4.2-8.4,8.7
							C121.1,244.4,124.4,249.5,127.6,252z"/>
						<path class="st14" d="M150.8,255.1c1.6,1.2,3.7,1.6,5.5,0.8c1.7-0.8,2.7-2.7,3.1-4.6c0.2-1,0.3-2.1-0.2-3
							c-0.6-1.3-2.1-1.9-3.5-2.4c-1.9-0.6-3.9-1.2-5.8-0.6C144.3,246.9,147.8,253,150.8,255.1z"/>
						<path class="st14" d="M167.5,229.4c0.7,0.5,1.7,0.7,2.5,0.4c0.8-0.4,1.2-1.2,1.4-2.1c0.1-0.4,0.1-0.9-0.1-1.3
							c-0.3-0.6-1-0.9-1.6-1.1c-0.8-0.3-1.8-0.5-2.6-0.3C164.6,225.7,166.2,228.4,167.5,229.4z"/>
						<path class="st14" d="M168.1,207.7c2.6,0.5,5.6-0.7,6.6-3.2c0.8-1.8,0.3-4-0.8-5.7c-1.1-1.7-2.7-2.9-4.4-4
							C159,188,158.6,205.8,168.1,207.7z"/>
						<path class="st14" d="M214.9,118.1c-0.2,1.3,0.5,2.8,1.8,3.2c0.9,0.3,2,0,2.8-0.5c0.8-0.6,1.4-1.4,1.9-2.3
							C224.5,113,215.7,113.3,214.9,118.1z"/>
						<path class="st14" d="M168.3,157.4c1.1-0.7,1.8-2.2,1.3-3.4c-0.4-0.9-1.2-1.5-2.2-1.8c-0.9-0.2-1.9-0.1-2.9,0
							C158.4,153.4,164.3,159.9,168.3,157.4z"/>
						<path class="st14" d="M206.3,170.1c-2,0.7-4.1,1.8-5.2,3.6c-0.9,1.6-0.9,3.4-1,5.2c0,0.8,0,1.7,0.4,2.4
							c0.4,0.8,1.3,1.3,2.1,1.7c5.7,2.6,12.8,1.9,18-1.7c0.6-0.4,1.1-0.8,1.5-1.4c0.5-0.7,0.6-1.6,0.7-2.4
							C223.5,166.7,213.4,167.5,206.3,170.1z"/>
						<path class="st14" d="M264.9,238.7c0.6,1.5,2.3,2.4,3.9,2.5c1.6,0.1,3.2-0.3,4.7-1c2.2-0.9,4.2-2.1,6-3.5
							c0.9-0.7,1.8-1.4,2.2-2.5c0.5-1,0.5-2.2,0.6-3.3c0-1.2,0.1-2.6-0.6-3.6c-0.6-1-1.8-1.6-2.9-2.1
							C270,221.7,260.6,228.8,264.9,238.7z"/>
						<path class="st14" d="M242.4,286.3c-14.2,7.2-30.3,11.3-47.3,11.3c-1.1,0-2.1,0-3.2-0.1c-0.4-0.2-0.8-0.4-1.2-0.7
							c-2.5-1.8-3.9-5.4-2.1-7.8c0.6-0.8,1.5-1.4,2.4-1.9c5-3,10-6.1,15.5-7.9c2.1-0.7,4.4-1.2,6.4-0.5c1.1,0.4,2.1,1.1,3.2,1.5
							c4.7,1.8,9.7-2,14.8-1.7C235,278.8,239.5,282.5,242.4,286.3z"/>
						<path id="path295752" class="st15" d="M183.1,95.9c-31.7,3.9-61.8,31.2-61.8,57.9s26,54,62.4,46.8
							c36.4-7.2,67.6-7.8,69.6-46.8C255.3,114.7,219.7,91.3,183.1,95.9L183.1,95.9z"/>
						<path class="st16" d="M299.5,193.2c0,40.6-23.2,75.8-57.1,93.1c-14.2,7.2-30.3,11.3-47.3,11.3c-1.1,0-2.1,0-3.2-0.1
							c-53.9-1.8-97.8-44.5-100.7-98.6c16.7,25.5,56.9,72,118.7,49.8c60.3-21.7,80.6-50.1,88.2-72.8
							C299,181.6,299.5,187.4,299.5,193.2z"/>
					</g>
					<g id="g411953">
						<path id="path411837" class="st17" d="M96.8,169.1c0,0,4.1,4.8,7.8,4.1c3.7-0.7,5.3-0.7,8-0.2s7.1-3.7,7.1-3.7
							s-3.7,0.2-6.9-1.6s-5.3-1.8-8-0.5C102.1,168.6,96.8,169.1,96.8,169.1L96.8,169.1z"/>
						<path id="path411988" class="st18" d="M107.8,167.5c1.4-8.2-5.9-8.4-10.3-13.8c-1-1.1-3-4-3-7.8c1.9,1.9,7.7,4.1,9.9,6.2
							c1.8,1.7,2.4,5.3,2.5,5.3c0,0,0-1.1,0-1.1c0.4-0.8,0.5-1.9,0.9-2.8c2.9-5.8-2.1-10.3,4.6-17c0.2-0.2,1.3-1.6,1.6-1.6
							c0,0-0.5,3-0.5,3.2c0,5.7,2.5,7.4-0.2,12.9c-0.7,1.4-2.8,2.8-3.7,3.7c-0.4,0.4-0.9,2.3-0.5,1.8c5-5,10.9-0.3,16.6-1.4
							c0.3-0.1,3-2.2,3.2-2.1c0.5,0.5-3.1,5-3.7,5.5c-3.8,3.8-12.7,2.4-13.3,3c-1.6,1.6-2.1,2.7-2.1,5.7c0,0.3,0.5,0.8,0.5,0.9
							C109.8,168.7,108.1,167.6,107.8,167.5L107.8,167.5z"/>
						<path id="path415356" class="st17" d="M189.1,219.2c0,0,4.1,4.8,7.8,4.1c3.7-0.7,5.3-0.7,8-0.2c2.8,0.5,7.1-3.7,7.1-3.7
							s-3.7,0.2-6.9-1.6c-3.2-1.8-5.3-1.8-8-0.5C194.4,218.7,189.1,219.2,189.1,219.2L189.1,219.2z"/>
						<path id="path415358" class="st18" d="M202.5,217.3c-1.4-8.2,5.9-8.4,10.3-13.8c1-1.1,3-4,3-7.8c-1.9,1.9-7.7,4.1-9.9,6.2
							c-1.8,1.7-2.4,5.3-2.5,5.3c0,0,0-1.1,0-1.1c-0.4-0.8-0.5-1.9-0.9-2.8c-2.9-5.8,2.1-10.3-4.6-17c-0.2-0.2-1.3-1.6-1.6-1.6
							c0,0,0.5,3,0.5,3.2c0,5.7-2.5,7.4,0.2,12.9c0.7,1.4,2.8,2.8,3.7,3.7c0.4,0.4,0.9,2.3,0.5,1.8c-5-5-10.9-0.3-16.6-1.4
							c-0.3-0.1-3-2.2-3.2-2.1c-0.5,0.5,3.1,5,3.7,5.5c3.8,3.8,12.7,2.4,13.3,3c1.6,1.6,2.1,2.7,2.1,5.7c0,0.3-0.5,0.8-0.5,0.9
							C200.5,218.6,202.2,217.5,202.5,217.3L202.5,217.3z"/>
					</g>
					<path id="path185802" class="st6" d="M-14.1,304H371c0,0-21.1-10.5-41-8.8c-19.9,1.7-31.1,3.9-43.5,0.6
						c-12.4-3.3-44.7-9.4-74.5-6.6c-29.8,2.8-58.4,8.8-73.3,6.6s-31.1-7.2-54.7-5.5c-23.6,1.7-31.1,7.7-44.7,6.1
						C25.7,294.6-9.1,296.8-14.1,304z"/>
					<g id="g185025" transform="matrix(-1,0,0,1,3196.4029,14.81424)">
						<path id="path50107-6" class="st19" d="M2887.2,178.6l-27.8,110.6h0.9l0.8-3.1h17.5l-0.8,3.1h0.9l27.8-110.5l-0.9,0h-17.5
							L2887.2,178.6z M2887.9,179.6h17.5l-4.2,16.7h-17.5L2887.9,179.6z M2883.4,197.4h17.5l-4.2,16.7h-17.5L2883.4,197.4z
							 M2879,215.1h17.5l-4.2,16.7h-17.5L2879,215.1z M2874.5,232.9h17.5l-4.2,16.7h-17.5L2874.5,232.9z M2870,250.6h17.5l-4.2,16.7
							h-17.5L2870,250.6z M2865.6,268.4h17.5l-4.2,16.7h-17.5L2865.6,268.4z"/>
						<path id="path185020" class="st19" d="M2949.7,178.6l27.8,110.6h-0.9l-0.8-3.1h-17.5l0.8,3.1h-0.9l-27.8-110.5l0.9,0h17.5
							L2949.7,178.6z M2949,179.6h-17.5l4.2,16.7h17.5L2949,179.6z M2953.5,197.4h-17.5l4.2,16.7h17.5L2953.5,197.4z M2957.9,215.1
							h-17.5l4.2,16.7h17.5L2957.9,215.1z M2962.4,232.9h-17.5l4.2,16.7h17.5L2962.4,232.9z M2966.9,250.6h-17.5l4.2,16.7h17.5
							L2966.9,250.6z M2971.3,268.4h-17.5l4.2,16.7h17.5L2971.3,268.4z"/>
						<path id="rect184603" class="st19" d="M2887.9,174.9h60.8c2.4,0,4.4,1.2,4.4,2.6l0,0c0,1.4-2,2.6-4.4,2.6h-60.8
							c-2.4,0-4.4-1.2-4.4-2.6l0,0C2883.5,176.1,2885.5,174.9,2887.9,174.9z"/>
					</g>
					<g id="g190270" transform="matrix(0.6350415,0,0,0.6350415,781.24064,462.84803)">
						<path id="path190262" class="st13" d="M-682-255.2c0-22.3-0.4-29.2-0.9-40.4c-0.6-11.2-1.3-11.2-1.8,0
							c-0.6,11.2-0.9,18-0.9,40.4h1.8H-682z"/>
						<path id="circle190264" class="st14" d="M-683.9-305.6c2,0,3.7,1.6,3.7,3.7c0,2-1.6,3.7-3.7,3.7c-2,0-3.7-1.6-3.7-3.7
							C-687.5-303.9-685.9-305.6-683.9-305.6z"/>
						<path id="path190266" class="st13" d="M-681.9-312.1c0,8.8-0.9,10.2-2,10.2c-1.1,0-2-1.4-2-10.2s0.9-21.5,2-21.5
							C-682.8-333.7-681.9-320.9-681.9-312.1z M-693.6-298.6c7.6-4.4,9.2-4.3,9.8-3.4c0.5,0.9-0.2,2.4-7.8,6.8
							c-7.6,4.4-19.1,10-19.6,9.1C-711.8-287.1-701.2-294.2-693.6-298.6z M-676.1-295.2c-7.6-4.4-8.3-5.8-7.8-6.8
							c0.5-0.9,2.2-1,9.8,3.4c7.6,4.4,18.2,11.5,17.7,12.5C-657-285.2-668.5-290.8-676.1-295.2z"/>
						<path id="circle190268" class="st14" d="M-683.9-303.3c0.8,0,1.4,0.6,1.4,1.4c0,0.8-0.6,1.4-1.4,1.4c-0.8,0-1.4-0.6-1.4-1.4
							C-685.2-302.6-684.6-303.3-683.9-303.3z"/>
					</g>
					<g id="g289195" transform="matrix(-1.3756729,0,0,1.3756729,361.35137,-442.449)">
						<path id="path342300" class="st20" d="M53.7,413.9c0,0-0.6,4.5-0.3,8.3c0.3,3.8,0.5,11.8,0.8,14.6c0.3,2.8-0.1,18.4-0.1,18.4
							s1.4,1.2,2.9,0.2c2.2-12,3.2-19,3.4-22c0.2-3,0-17.9,0-17.9L53.7,413.9z"/>
						<path id="path342302" class="st21" d="M53.5,448.5l5.6-0.4l-1.3,8.7l3.8,2.2c0,0-8.1,0.8-9.3,0.4
							C53.1,452.7,53.5,448.5,53.5,448.5L53.5,448.5z"/>
						<g id="g289165" transform="translate(1.6611736,-19.726436)">
						</g>
						<path id="path289173" class="st22" d="M62.7,380.7c0,0-0.5,2.3-0.9,3.8c-0.4,1.5-0.7,2.5-1.6,2.5c-0.7,0-1.7-0.3-2.9-1
							c-1.6-0.9-2.1-1.7-2.1-2.8c0-1.5,0.7-3.9,1.8-5c1.1-1.1,2.9-0.9,4.4,0C63,379.1,62.8,380.2,62.7,380.7L62.7,380.7z"/>
						<path id="path205352" class="st20" d="M49.3,413.9c0,0-1,4.5-0.8,8.3c0.2,3.8,0,11.8,0.2,14.7c0.2,2.8-1,18.3-1,18.3
							s1.7,1.3,3.5,0.4c3.2-11.8,4.9-18.8,5.2-21.7c0.3-3,0.9-17.8,0.9-17.8L49.3,413.9z"/>
						<path id="path217167" class="st22" d="M55.5,383.6l-2,5.1l4,1.6c0,0-0.3-3.1,0.6-4.5C56.9,384.9,55.5,383.6,55.5,383.6
							L55.5,383.6z"/>
						<path id="path289175" class="st23" d="M55.7,387.5c-2.6-0.1-3.3,1.3-4.6,6.7c-1.1,4.4-5.6,28.8-5.3,45.3
							c2.5,1.7,12,3.9,15.3,2.8c2.2-10.7,0.2-20.4-0.4-28.1c-0.6-6.9,0.2-12.3,1.8-14.2c2.6-3,0-5.6-2.1-8.1
							C58.7,390.3,57.5,387.6,55.7,387.5z"/>
						<path id="path213450" class="st21" d="M47.8,448.4h5.6l-1.7,8.6l3.7,2.5c0,0-8.1,0.2-9.3-0.2
							C47.2,452.5,47.8,448.4,47.8,448.4L47.8,448.4z"/>
						<g id="g313209">
							<path id="path310183" class="st24" d="M73.2,405.3c0,0,6.1-0.2,11.1,2.8c-0.5,4.4-2.4,11.5-3.2,13c-5.3-0.1-11-2.5-11-2.5
								S70.1,409.8,73.2,405.3L73.2,405.3z"/>
							<path id="path310251" class="st25" d="M74,405.7c0,0,3.8,3.5,9.3,2.4C80,406.1,74,405.7,74,405.7z"/>
							<path id="path310286" class="st26" d="M78,406.8c0,0,1.3-4.1,1.4-6.7c0.1-2.6,0.9-5.3,0.9-5.3l0.7,0.2c0,0-0.8,2-0.9,3.4
								c-0.1,1.4-0.4,3.7-0.5,4.6c-0.1,0.9-1.1,4.3-1.1,4.3L78,406.8z"/>
							<path id="path313048" class="st26" d="M79.6,400.7c-0.1-0.3-1-3.7-4.4-3.8C76,400.2,79.6,400.7,79.6,400.7z"/>
							<path id="path313050" class="st26" d="M80.1,397.9c0,0,2-3.1,4.7-2.7C84.2,397.8,80.1,397.9,80.1,397.9z"/>
							<path id="path313087" class="st23" d="M79.5,393.8c-0.7-0.4-0.9-1.4-0.8-2.2c0.3-1.5,1.7,0,2-0.1c0.3-0.1,0.7-0.7,1.1-0.4
								c0.3,0.2,0.4,0.9,0.7,1c0.5,0.3,1.1-0.6,1.6-0.1c0.1,0.1,0.2,0.5,0.2,0.7c0,1.4-1.2,1.8-2.2,2.2
								C81.1,395.2,80,394.2,79.5,393.8z"/>
							<path id="path313085" class="st26" d="M80.3,395.3c-0.2-0.6-0.8-0.8-1.1-1.4c-0.5-0.9,0.8-0.2,0.9-0.2
								c0.2-0.1,0.3-0.3,0.5-0.4c0.4-0.1,0.4,0.2,0.6,0.4c0.2,0.2,0.6-0.2,0.9-0.1c0.3,0.2,0.2,0.3,0.2,0.5c0,0.1,0.3,0.2,0.2,0.5
								C82.1,395.6,80.9,395.4,80.3,395.3L80.3,395.3z"/>
						</g>
						<path id="path221933" class="st22" d="M73.4,409.1c0,0,0.4,0.4,1.5,0.4c1.1,0,1.7-0.1,2.6,0.2c0.9,0.2,1.3,0.2,1.6,0.1
							c0.4-0.1,0.4,0.2,0.2,0.5c-0.2,0.2-0.7,0.5-1.1,0.3c-0.4-0.2-1-0.3-0.8,0c0.2,0.3,1.1,0.7,1.7,1.1c0.5,0.4,1.2,0.9,1.5,1.5
							c0.3,0.6-0.1,1.1-0.5,1.5s-1.6,0.2-2.5,0c-0.9-0.2-2.8-1.8-3.4-2.2c-0.5-0.4-1.7-1.6-1.7-1.6L73.4,409.1z"/>
						<path id="path305774" class="st23" d="M55.3,388c-3.5,1.2-1.9,6.2-0.4,9c1.4,2.7,5.4,7,6.6,8c1.2,1.1,9,5.6,11.3,6.5
							c0.7-0.4,1.5-1.9,1.5-1.9s-6.1-6.3-9.1-8.2C62.4,399.6,59.9,388.5,55.3,388z"/>
						<path id="path309027" class="st24" d="M53.5,389.8c-0.8,2.1,0.3,5.2,1.4,7.2c1.4,2.7,5.4,7,6.6,8c0.7,0.6,3.4,2.3,6.1,3.8
							c-1.8-1.4-5.1-4-7.5-6.3c-3.4-3.2-4.8-6.4-5.8-8.6C53.8,392.7,53.6,391,53.5,389.8L53.5,389.8z"/>
						<path id="path309657" class="st27" d="M55.3,388c-0.2,0.1-0.3,0.1-0.5,0.2c0.7,0.1,1.6,0.4,2.5,1.3c2.1,2.1,5.4,9.2,5.4,9.2
							s0.6,2.5,1.9,4.1c-0.3-0.8-0.4-1.7-0.4-2.4C61.8,397.2,59.4,388.5,55.3,388z"/>
						<path id="path313674" class="st25" d="M58.6,381.6c0,0-0.8-0.8-1.3,0.1c-0.4,0.9,0.3,1.5-0.2,2c-0.5,0.5-1.6,1.4-1.8,0.5
							c-0.3-0.9-0.2-3.3,0.4-4.9c0.6-1.6,1.7-2.3,2.7-2.3c1,0,2.1,0.3,3.2,0.8c1.1,0.4,1.9,1.3,1.7,2.3c-0.3,1.1-1.1,1.3-1.8,1.6
							C60.8,381.9,59.4,382.1,58.6,381.6z"/>
						<path id="path313807" class="st25" d="M57.4,377.5c0,0,0.1-4.4-4-4c-4.1,0.4-4.3,5.4-4,9.2c0.2,3.7-1.6,4.9-1.6,4.9
							s1.1,1,2.8-0.4c1.8-1.4,2.3-4,2.8-6.6c0.5-2.6,1.5-3.8,2.4-3.4c0.8,0.4,1.1,1,1.1,1L57.4,377.5z"/>
					</g>
					<g id="g431731" transform="matrix(1.3889241,0,0,1.3889241,-441.33432,-250.63943)">
						<path id="rect190294" class="st20" d="M471,355.3l-0.8,5.4l18.3,22l2-18.2l18.6,0.6l0.1,3c0.9-0.5,2.1-1,3.5-1.3
							c0.8-0.2,1.6-0.3,2.5-0.3c2.6,0,5.7,0.8,8.7,3.5c4.1,3.7,4.2,9.9,1.3,15c-2.6,4.7-7.8,8.6-14.7,9.2l0.3,5.5l-24-0.7l0.6-5.3
							c-4.4-6.1-18.4-28.5-19.5-30.4l-5.9-0.3L471,355.3z M515.7,368c-1,0-1.9,0.1-2.7,0.3c-1.7,0.4-3,1.1-3.8,1.5l1.1,22.4
							c6.3-0.5,10.9-4.1,13.3-8.3c2.6-4.6,2.4-9.8-1-12.9C520.2,368.8,517.8,368.1,515.7,368L515.7,368z"/>
						<g>
							<defs>
								<path id="rect190294_00000098179973261713704970000006803860541864113827_" d="M471,355.3l-0.8,5.4l18.3,22l2-18.2l18.6,0.6
									l0.1,3c0.9-0.5,2.1-1,3.5-1.3c0.8-0.2,1.6-0.3,2.5-0.3c2.6,0,5.7,0.8,8.7,3.5c4.1,3.7,4.2,9.9,1.3,15
									c-2.6,4.7-7.8,8.6-14.7,9.2l0.3,5.5l-24-0.7l0.6-5.3c-4.4-6.1-18.4-28.5-19.5-30.4l-5.9-0.3L471,355.3z M515.7,368
									c-1,0-1.9,0.1-2.7,0.3c-1.7,0.4-3,1.1-3.8,1.5l1.1,22.4c6.3-0.5,10.9-4.1,13.3-8.3c2.6-4.6,2.4-9.8-1-12.9
									C520.2,368.8,517.8,368.1,515.7,368L515.7,368z"/>
							</defs>
							<clipPath id="rect190294_00000174599826181039364010000009454593174671580801_">
								<use xlink:href="#rect190294_00000098179973261713704970000006803860541864113827_"  style="overflow:visible;"/>
							</clipPath>
							<path style="clip-path:url(#rect190294_00000174599826181039364010000009454593174671580801_);fill:#054205;" d="M459.8,358
								l8.3,3.7c0,0,14.8,24.4,17.4,25.1c2.6,0.6,3-4.2,3-4.2l-1.2,10.8l-30.1-29.2L459.8,358z"/>
							<polyline style="clip-path:url(#rect190294_00000174599826181039364010000009454593174671580801_);fill:#054205;" points="
								509.2,367.9 510.5,394 521.5,393.9 512.8,362.1 509.2,367.9 							"/>
						</g>
						<g id="g411645" transform="matrix(0.19580244,0,0,0.19580244,952.50063,541.90208)">
							<path id="path410800" class="st13" d="M-2324.2-837.9c3.8,0,6.9,4,9.9,8.2c1.2,1.7,2.6,4,3.9,6.1l-4.1,1.7l13.8,1l8.3-10.3
								l-5.2,2.2c-4-6-8.4-8.8-11.2-8.8H-2324.2z M-2335.6-788.3c-1.9-3.3,0-8,2.1-12.6c0.8-1.9,2.1-4.3,3.3-6.4l3.6,2.7l-6-12.5
								l-13.1-2l4.5,3.4c-3.2,6.4-3.5,11.7-2.1,14.1L-2335.6-788.3z M-2287-803.2c-1.9,3.3-7,4-12,4.5c-2,0.2-4.7,0.3-7.2,0.3
								l0.6-4.4l-7.8,11.4l4.8,12.3l0.7-5.6c7.2-0.4,11.8-2.8,13.2-5.2L-2287-803.2z"/>
							<path id="path409668" class="st13" d="M-2338.7-823.6l12.9,5.5c0,0,4.3-7.6,7.1-11.6c2.9-4.1,6.1-8.2,9.9-8.2h-15.4
								C-2327.8-837.9-2333.5-833-2338.7-823.6z M-2316.1-782.9l-1.7-13.9c0,0-8.8,0.1-13.6-0.4c-5-0.5-10.1-1.2-12-4.5l7.7,13.3
								C-2333.9-785.2-2326.8-782.7-2316.1-782.9z M-2292.1-822.9l-11.2,8.4c0,0,4.5,7.5,6.5,12c2.1,4.6,4,9.4,2.1,12.6l7.7-13.3
								C-2285.2-806.3-2286.5-813.6-2292.1-822.9z"/>
						</g>
					</g>
					<g id="g210272" transform="matrix(1.2697041,0,0,1.2697041,645.20333,194.86593)">
						<path id="path341727" class="st29" d="M-421.2-18.5c0.4-1.2,7.8-18.1,7.8-18.1s0.9,2.7,0.4,4.6c-0.5,1.9-3.3,7.7-3.3,7.7
							s-0.9-0.3-1.4,0.8c-0.5,1-2.8,5-2.8,5"/>
						<path id="path341811" class="st30" d="M-416.8-18.5c-0.4-1.2-7.8-18.1-7.8-18.1s-0.9,2.7-0.4,4.6c0.5,1.9,3.3,7.7,3.3,7.7
							s0.9-0.3,1.4,0.8c0.5,1,2.8,5,2.8,5"/>
						<path id="path330012" class="st22" d="M-400.4,2.3l-5.5-1.3c0,0-4.3-9.9-5.5-14.7c-1.3-2.2-3.8-4.8-4.9-4.4
							c-2.6,0.9-1.5,4-0.4,4.6c1.1,0.6,3.5-0.2,3.7,1.7c0.2,2,1.4,13.7,2,15.6c0.6,1.9,9.1,4.2,9.1,4.2L-400.4,2.3z"/>
						<path id="path325837" class="st22" d="M-387,77.1c0,0,0.2,1.9,1.4,2.8c1.3,0.9,5.8,2.3,6.3,3.4c0.5,1.1-1.8,0.9-3.4,1
							c-1.6,0.1-3.5-0.1-4.3,0c-0.7,0.1-2.7,0.5-3.1-0.5c-0.4-1,0.5-2.4,0.8-3.5c0.3-1.2-0.1-2.8-0.1-2.8L-387,77.1z"/>
						<path id="path325839" class="st31" d="M-384.4,80.5c1.8,0.8,4.8,1.9,5.2,2.7c0.5,1.1-1.8,0.9-3.4,1c-1.6,0.1-3.5-0.1-4.3,0
							c-0.7,0.1-2.7,0.5-3.1-0.5c-0.3-0.7,0.2-1.7,0.5-2.6c0.6,0.1,1.3,0.3,2,0.4C-386.1,81.7-385,81-384.4,80.5z"/>
						<path id="path341725" class="st21" d="M-421.2-20l-4,9.2l1.5,0.8l4.1-9.5L-421.2-20z"/>
						<path id="path212020" class="st22" d="M-413.2,2.9l-5.5-1.3c0,0-1.7-8.7-0.8-13.6c-0.3-2.5-2.2-6.1-3.3-6.1
							c-3.3-0.1-3,3-2.3,4c0.8,1,3.3,1.3,2.6,3.2c-0.6,1.9-1.9,13.5-1.3,15.4c0.6,1.9,9.1,4.2,9.1,4.2L-413.2,2.9z"/>
						<path id="path326502" class="st24" d="M-392.1,6.8c0,0,0.3-1.7-2.9-3.1c-3.2-1.4-9.1-2.4-9.1-2.4s-2.4,0.6-2,3.8
							C-400.4,7.9-392.1,6.8-392.1,6.8z"/>
						<path id="path210242" class="st22" d="M-396.9,4.5c0,0-1.2,0.4-1.6-0.1s-0.5-3-0.5-3l-3.8,0.1c0,0-0.2,2.8-0.6,3.1
							c-0.4,0.3-2,0.3-2,0.3s0.7,3.1,2.2,3.3c1.5,0.3,3.9,0.2,5-0.5C-397.2,6.9-396.9,4.5-396.9,4.5L-396.9,4.5z"/>
						<path id="path316062" class="st22" d="M-411.5,77.1c0,0-0.2,1.9-1.4,2.8c-1.3,0.9-5.8,2.3-6.3,3.4c-0.5,1.1,1.8,0.9,3.4,1
							c1.6,0.1,3.5-0.1,4.3,0c0.7,0.1,2.7,0.5,3.1-0.5c0.4-1-0.5-2.4-0.8-3.5s0.1-2.8,0.1-2.8L-411.5,77.1z"/>
						<path id="path214115" class="st21" d="M-389.9,30.7c0,0,1.3,11,1.5,16.6c0.3,5.7,1.9,30.3,1.9,30.3s-1.8,1.1-3.5,0
							c-1.3-4.4-3.7-17.5-4.3-20.5c-1.1-4.8-2.2-9-2.7-10.4c-1.2-3.2-2.5-2.6-3.5,0.3c-0.9,2.6-3.5,11.2-4.2,14.5
							c-1,4.2-2.3,11.1-4.3,16.9c-0.9,0-2.3,0-3-1c0.5-7.4,1.3-17.9,1.5-19.7c0.6-4.5,1.8-19.8,2.3-22c0.5-2.1,0.9-4.5,0.9-4.5
							L-389.9,30.7z"/>
						<path id="path210244" class="st23" d="M-407.7,32l-1.8-18.1c-0.3-3-1.2-3.8-2.8-4.3c-1.6-0.5-5-1.5-5-1.5
							c-1.9,0.1-1.2-6.7,0.2-6.3c0,0,5.2,1.1,6.7,1.4c1.5,0.3,4.3,0.9,5.7,1.2c0.4,1.3,1.2,1,4,1c2.8,0,3.1,0.1,3.6-0.8
							c4.8-0.3,5.9,0.1,6.6,12.9c0,1.8,1,11.3,1.1,13.8S-407.7,32-407.7,32L-407.7,32z"/>
						<path id="path210264" class="st22" d="M-397.4-3.6c0,0,0.2,2.5-0.4,4.2c-0.6,1.7-2.1,2.1-3.1,2.3c-0.9,0.1-2.4-0.3-2.8-1.2
							c-0.4-0.9-0.9-3.8-0.8-5.8c0.1-2,1.6-3,3.7-3.2C-398.9-7.4-397.5-5.9-397.4-3.6L-397.4-3.6z"/>
						<path id="path210240" class="st25" d="M-395.2-2.7c-0.4,1.6-1.2,2.9-2.5,4.5c-1.4,1.8-4.2,0.3-5.4-1.1
							c-0.5-0.6-0.4-1.1-0.6-1.8c-0.3-1,0-2.1-0.3-3.3c-0.3-1.2-0.6-1-0.7-1.9c0-0.3-0.2-2,0.3-3c0.5-0.9,1.1-1.6,2.5-2
							C-400.9-11.6-392.7-11.7-395.2-2.7L-395.2-2.7z"/>
						<path id="path316177" class="st31" d="M-414.1,80.5c-1.8,0.8-4.8,1.9-5.2,2.7c-0.5,1.1,1.8,0.9,3.4,1c1.6,0.1,3.5-0.1,4.3,0
							c0.7,0.1,2.7,0.5,3.1-0.5c0.3-0.7-0.2-1.7-0.5-2.6c-0.6,0.1-1.3,0.3-2,0.4C-412.4,81.7-413.5,81-414.1,80.5L-414.1,80.5z"/>
						<path id="path341809" class="st21" d="M-416.8-20l4,9.2l-1.5,0.8l-4.1-9.5L-416.8-20z"/>
					</g>
					<path id="path387431" class="st17" d="M203.4,151.8c0,0,1.3-3.6,4.7-4.9c3.4-1.3,4.9,1.5,6.2,1.8c1.3,0.3,3.1-0.8,5.2,1.1
						C221.6,151.8,213.4,156,203.4,151.8L203.4,151.8z"/>
					<path id="path387571" class="st18" d="M216.2,117c-3.2,6.8-1.8,9.6-3.5,13.3c-1.8,3.7-2.2,7.3-2.2,7.3s-1.5-4.4-2.7-6.3
						c-1.7-2.8-4.3-3.5-8.1-4.7c-0.3,8.3,8.7,10.4,10.3,13.8c1.5,3.4-0.3,8.8-0.3,8.8c2,1.3,3.4,0.1,3.4,0.2c0,0-0.8-4.2-1.1-6.8
						c0-0.1,0-0.1,0-0.2c1.3-0.1,4.2-0.4,6.6-1.3c3.1-1.2,5.9,1.6,5.9,1.6s-0.3-4.7-5.9-5.3c-3.9-0.4-5.8,1.5-6.7,2.6
						c0.1-1.6,0.4-3.2,1.3-5.1c1.4-2.8,2.5-2.5,4.5-5.3C218.6,128.2,220.9,122.7,216.2,117L216.2,117z"/>
					<path id="path435560" class="st5" d="M353.9,194.6c1.7,1.6,1,3.4,1,3.4s-3.2-3.2-7.3-1.4c2.3,1.1,6.5,4.9,6.5,4.9l-3.9,1.4
						c0,0,3,0.2,3.1,1.2s0.9,1.9,0.9,1.9l1.1-2.8c0,0,2.3-0.7,2.7-1.4c0.4-0.7,2.7-1.6,3.6-0.7c-0.7-1.6-3.2-2.2-3.8-1.5
						C358,197.5,357.1,195.1,353.9,194.6L353.9,194.6z M342.2,206.2c1.2,1.1,0.7,2.3,0.7,2.3s-2.1-2.2-5-1c1.6,0.8,4.4,3.3,4.4,3.3
						l-2.6,0.9c0,0,2.1,0.1,2.1,0.8c0.1,0.7,0.6,1.3,0.6,1.3l0.7-1.9c0,0,1.5-0.5,1.8-1c0.3-0.5,1.8-1.1,2.5-0.5
						c-0.5-1.1-2.2-1.5-2.6-1C345,208.1,344.4,206.5,342.2,206.2L342.2,206.2z M354.4,214.2c0,0-1.4-1.4-3.2-0.6
						c1,0.5,2.9,2.2,2.9,2.2l-1.7,0.6c0,0,1.3,0.1,1.4,0.5c0,0.4,0.4,0.9,0.4,0.9l0.5-1.2c0,0,1-0.3,1.2-0.6
						c0.2-0.3,1.2-0.7,1.6-0.3c-0.3-0.7-1.4-1-1.7-0.6c0.1-0.9-0.3-2-1.7-2.2C354.7,213.4,354.4,214.2,354.4,214.2z M339.8,216.1
						c0.8,0.7,0.4,1.5,0.4,1.5s-1.4-1.4-3.2-0.6c1,0.5,2.9,2.2,2.9,2.2l-1.7,0.6c0,0,1.3,0.1,1.4,0.5c0,0.4,0.4,0.9,0.4,0.9l0.5-1.2
						c0,0,1-0.3,1.2-0.6c0.2-0.3,1.2-0.7,1.6-0.3c-0.3-0.7-1.4-1-1.7-0.6C341.7,217.4,341.3,216.4,339.8,216.1L339.8,216.1z"/>
					<g id="g446640" transform="translate(-23.569751,-10.713523)">
						<path id="path408895" class="st5" d="M143.5,94.4c-0.6-1.3-0.1-2.7-0.3-4.2c-1-7.5-9.3-11.4-14.3-4.7
							c-6.9-14.2-20.5-7.2-19.7,6.6c-12.6-6.2-26.8,12.5-7.3,12.7c2.6,9.7,9.6,4,14.3,1.7c5.8,10.3,18.9,7.5,23.8-2
							c6.3,6.8,23.4-6.3,11.4-10.4C149,93.3,145.9,94.4,143.5,94.4z"/>
						<path id="path444008" class="st32" d="M154.4,95.8c-3.7,7.3-9.8,7.3-14.5,3.1c-0.3,4.2-6.9,9.8-14.3,9.8
							c-7.4,0-9.3-8.5-9.3-8.5s-4.2,4.5-8.2,5.3c-4,0.8-5-1.9,1.1-5.8c-7.4,2.7-13.2,0.4-16.6-1.8c-1.2,3.4,1,6.9,9.3,7
							c2.6,9.7,9.6,4,14.3,1.7c5.8,10.3,18.9,7.5,23.8-2C145.6,110.6,159.6,101,154.4,95.8z"/>
						<path class="st5" d="M114,126c-3.4,4.8-5.9,13.2-0.6,12.9C119.5,138.5,114,126,114,126z"/>
						<path class="st5" d="M142.2,118.5c-3.4,4.8-5.9,13.2-0.6,12.9C147.7,131,142.2,118.5,142.2,118.5z"/>
						<path class="st5" d="M125,115.8c-3.4,4.8-5.9,13.2-0.6,12.9C130.5,128.3,125,115.8,125,115.8z"/>
						<path class="st5" d="M128.9,135.3c-1.9,2.7-3.3,7.4-0.3,7.2C132,142.3,128.9,135.3,128.9,135.3z"/>
						<path class="st5" d="M152.5,107.9c-1.9,2.7-3.3,7.4-0.3,7.2C155.6,114.9,152.5,107.9,152.5,107.9z"/>
						<path class="st5" d="M103,114.9c-1.9,2.7-3.3,7.4-0.3,7.2C106.1,121.9,103,114.9,103,114.9z"/>
					</g>
					<g>
						<path id="path122481-9_00000107562022028613632590000013739102129838941082_" class="st27" d="M354.7,88.2
							c-2.7,5.6-7.5,9.6-13,11.5c-2.7,0.9-10.2,10.8-13.2,10.6s-5.9-0.9-8.7-2.3c-2.8-1.4-5.2-3.2-7.1-5.5
							c-1.9-2.2,1.2-14.2,0.3-16.9c-1.9-5.5-1.7-11.7,1.1-17.3c5.5-11.2,19-15.9,30.3-10.4C355.5,63.4,360.2,77,354.7,88.2z"/>
						<path class="st33" d="M313.2,106.7c7.3-6.4,12.9-14.6,16.3-23.6c0.6-1.6,1.1-3.3,1.4-5c0.1-0.6,0.2-1.3-0.1-1.8
							c-0.7-1.4-3-1-4.1,0.1c-2.2,2-2.6,5.6-1.2,8.3c1.5,2.6,4.6,4.1,7.6,3.8c3-0.3,5.7-2.3,7.1-4.9c0.3-0.6,0.5-1.2,0.3-1.8
							c-0.3-0.7-1.3-0.9-2.1-0.6c-0.7,0.3-1.3,0.9-1.7,1.6c-6.2,8.1-9.9,18-10.7,28.2"/>
						<path id="path123709-7_00000057131008693627618280000008386117198528142013_" class="st20" d="M316.8,115.4
							c3.4,1.7,5.3,4.9,4.3,7.1c-1,2.2-4.6,2.6-8,0.9c-3.4-1.7-5.3-4.9-4.3-7.1C309.8,114.1,313.4,113.7,316.8,115.4z"/>
						<g>
							<polygon class="st18" points="312.1,100.6 308.8,116.7 321.2,122.5 330.7,109.4 							"/>
							<path class="st20" d="M327,115.6l-17.4-8.2c-0.6-0.3-0.9-1-0.6-1.6l0.3-0.7c0.3-0.6,1-0.9,1.6-0.6l17.4,8.2
								c0.6,0.3,0.9,1,0.6,1.6l-0.3,0.7C328.4,115.6,327.6,115.9,327,115.6z"/>
							<path class="st20" d="M323.6,120.3l-15.4-7.3c-0.6-0.3-0.9-1-0.6-1.6l0.3-0.7c0.3-0.6,1-0.9,1.6-0.6l15.4,7.3
								c0.6,0.3,0.9,1,0.6,1.6l-0.3,0.7C324.9,120.4,324.2,120.6,323.6,120.3z"/>
						</g>
						<path class="st34" d="M330.4,60.4c2.5-0.2,5,0.5,7.4,1.3c0.4,0.2,0.9,0.3,1.1,0.7c0.3,0.6-0.2,1.3-0.7,1.8
							c-2.5,2.1-6,2.3-9,3.6c-1.1,0.5-2.1,1.1-3.2,1.4s-2.4,0.4-3.4-0.3c-0.3-0.2-0.5-0.4-0.6-0.7c-0.1-0.2,0-0.5,0-0.7
							C322.8,63.5,326.4,60.7,330.4,60.4z"/>
					</g>
				</g>
			</g>
		</g>
	</g>
</g>
</svg>
