<?xml version="1.0" encoding="UTF-8"?>
<svg id="_圖層_2" data-name="圖層 2" xmlns="http://www.w3.org/2000/svg" width="264.42" height="264.43" viewBox="0 0 264.42 264.43">
  <g id="_圖層_8" data-name="圖層 8">
    <g id="Competitive_discussions2">
      <g>
        <path d="m132.21,0c-1.93,0-3.89.04-5.82.13l.42,9.7c1.45-.06,2.9-.1,4.36-.11h0s.03,0,.05,0h0c.06,0,.13,0,.19,0h0s.03,0,.04,0h.01s.03,0,.04,0h0s.03,0,.05,0h0s.07,0,.1,0h0s.03,0,.04,0h.01s.02,0,.04,0h.05s0,0,.02,0h.04s.06,0,.1,0h.06s.02,0,.03,0h.16V0h0Zm-9.3.32c-1.93.13-3.88.31-5.8.53l1.1,9.65c.21-.02.42-.05.62-.07,0,0,0,0,0,0,.01,0,.02,0,.04,0,0,0,.01,0,.02,0,.01,0,.02,0,.03,0,.01,0,.03,0,.04,0h0s.03,0,.04,0h0s.03,0,.04,0h0s.03,0,.05,0h0c1.48-.16,2.98-.29,4.47-.39l-.67-9.69h0Zm-9.26.97c-1.92.27-3.85.59-5.75.94l1.78,9.55c.41-.08.82-.15,1.23-.22h0s.03,0,.04,0c0,0,0,0,0,0,.01,0,.03,0,.04,0,.01,0,.03,0,.04,0,0,0,0,0,0,0,1.31-.23,2.63-.44,3.96-.62l-1.35-9.62h0Zm-9.18,1.62c-1.89.4-3.8.86-5.67,1.34l2.45,9.4c.47-.12.94-.24,1.41-.36h0s.03,0,.04-.01h0s.03,0,.04-.01h0s.03,0,.04-.01c0,0,0,0,0,0,.02,0,.03,0,.04-.01,0,0,0,0,.01,0h.03s.02-.01.02-.01c0,0,.01,0,.02,0,.01,0,.02,0,.03,0,0,0,0,0,.01,0,.01,0,.02,0,.03,0,0,0,0,0,0,0,.01,0,.02,0,.04,0,0,0,0,0,0,0,.92-.23,1.85-.44,2.78-.64,0,0,.01,0,.02,0h.02s.01,0,.02-.01c0,0,.01,0,.02,0,0,0,.02,0,.03,0,0,0,0,0,.01,0,.01,0,.02,0,.04,0h0s.03,0,.04-.01h0c.15-.03.31-.07.46-.1l-2.03-9.5h0Zm-9.04,2.27c-1.86.54-3.73,1.12-5.56,1.74l3.11,9.2s.08-.03.12-.04h0s.05-.02.07-.03c0,0,.01,0,.02,0,.01,0,.02,0,.04-.01.02,0,.04-.01.05-.02,0,0,.02,0,.03,0,.02,0,.04-.01.06-.02,0,0,.01,0,.02,0,.02,0,.04-.01.06-.02,0,0,0,0,0,0,.02,0,.05-.02.07-.02,0,0,0,0,0,0,.03,0,.05-.02.08-.03h0c1.14-.38,2.29-.74,3.45-1.09,0,0,0,0,0,0,.03,0,.05-.01.07-.02,0,0,0,0,.01,0,.02,0,.04-.01.07-.02,0,0,.01,0,.02,0,.02,0,.03,0,.05-.01.02,0,.03,0,.05-.01.01,0,.02,0,.03,0,.25-.07.5-.15.75-.22l-2.7-9.33h0Zm-8.86,2.91c-1.81.67-3.64,1.39-5.42,2.13l3.75,8.96s.05-.02.08-.03h0c.1-.04.21-.09.31-.13,0,0,0,0,0,0,.02,0,.05-.02.07-.03,0,0,0,0,0,0,.03-.01.04-.02.07-.03h0s.05-.02.07-.03c0,0,0,0,0,0,.02,0,.05-.02.07-.03,0,0,0,0,0,0,.02,0,.05-.02.07-.03,0,0,0,0,.01,0,.02,0,.04-.02.07-.03,0,0,0,0,.01,0,.02,0,.04-.02.06-.03,0,0,.01,0,.02,0,.02,0,.05-.02.07-.03,0,0,0,0,0,0,.02,0,.04-.02.06-.03,0,0,0,0,.01,0,.02,0,.04-.02.06-.03h.02s.04-.02.06-.03c0,0,.01,0,.02,0,.02,0,.04-.02.06-.02,0,0,.01,0,.02,0,.02,0,.04-.01.06-.02,0,0,.01,0,.02,0,.01,0,.04-.02.05-.02,0,0,.01,0,.02,0,.02,0,.04-.01.06-.02,0,0,.02,0,.02,0,.02,0,.04-.02.06-.02,0,0,.02,0,.02,0,.02,0,.04-.02.06-.02,0,0,.02,0,.02,0,.02,0,.04-.01.05-.02h.02s.03-.02.05-.03c.01,0,.02,0,.03-.01.01,0,.03-.01.05-.02,0,0,.02,0,.03-.01.02,0,.04-.01.06-.02,0,0,.02,0,.03-.01.02,0,.04-.02.06-.02,0,0,.02,0,.02,0,.01,0,.04-.02.05-.02,0,0,.02,0,.03-.01.02,0,.03-.01.05-.02,0,0,.02,0,.02-.01.02,0,.03-.01.05-.02,0,0,.02,0,.02,0,.02,0,.04-.02.06-.02,0,0,.01,0,.02,0,.02,0,.04-.01.06-.02,0,0,.02,0,.02,0,.02,0,.04-.02.06-.02h.02s.03-.02.05-.03c0,0,.02,0,.02,0,.02,0,.04-.02.06-.02,0,0,.01,0,.02,0,.02,0,.04-.02.06-.02,0,0,.01,0,.02,0,.02,0,.04-.02.06-.02,0,0,.01,0,.02,0,.02,0,.04-.02.06-.03,0,0,0,0,.01,0,.02,0,.04-.02.07-.03,0,0,0,0,0,0,.03-.01.04-.02.07-.03,0,0,0,0,.01,0,.02,0,.05-.02.07-.03,0,0,0,0,.01,0,.02,0,.05-.02.07-.03,0,0,0,0,.01,0,.03,0,.05-.02.07-.03,0,0,0,0,0,0,.08-.03.16-.06.23-.09h0c.47-.18.95-.36,1.42-.53l-3.35-9.12h0Zm-8.63,3.53c-1.76.79-3.53,1.64-5.26,2.51l4.38,8.67c.51-.26,1.02-.51,1.54-.76h0s.05-.03.08-.04h0s.05-.03.08-.04h0c.1-.05.19-.09.29-.14h0c.95-.46,1.91-.9,2.87-1.34l-3.99-8.86h0Zm-8.36,4.13c-1.7.92-3.41,1.88-5.07,2.88l4.98,8.34c.59-.35,1.18-.7,1.77-1.04,0,0,0,0,.01,0,.02-.01.04-.02.06-.04,0,0,0,0,.02,0,.02-.01.04-.02.06-.03,0,0,.02,0,.02-.01.01,0,.02-.01.03-.02.01,0,.03-.02.04-.02.01,0,.02-.01.03-.02.02,0,.03-.02.05-.03,0,0,.02-.01.03-.02.01,0,.03-.02.04-.02.01,0,.02-.01.03-.02.01,0,.03-.02.05-.03,0,0,.01,0,.02-.01.02-.01.03-.02.05-.03,0,0,.01,0,.02-.01.02,0,.04-.02.06-.03,0,0,0,0,.01,0,.02-.01.04-.02.06-.03,0,0,0,0,.01,0,.02-.01.04-.02.06-.04,0,0,0,0,0,0,.07-.04.14-.08.22-.12,0,0,0,0,0,0,.02-.01.05-.03.07-.04,0,0,0,0,0,0,.29-.16.59-.33.88-.49t0,0s.05-.03.07-.04c0,0,0,0,0,0,.05-.03.1-.05.14-.08,0,0,0,0,0,0,.02-.01.04-.02.06-.03,0,0,0,0,.01,0,.02-.01.04-.02.06-.03,0,0,.02,0,.02-.01.02,0,.04-.02.05-.03,0,0,.02,0,.03-.01.01,0,.02-.01.04-.02.01,0,.03-.02.04-.02,0,0,.02-.01.03-.01.02-.01.04-.02.06-.03,0,0,0,0,.01,0,.11-.06.22-.12.33-.18l-4.61-8.55h0Zm-8.04,4.71c-1.63,1.03-3.26,2.12-4.85,3.22l5.55,7.97c.12-.09.24-.17.37-.25,0,0,.01,0,.02-.01.02-.01.03-.02.05-.03,0,0,.02-.01.03-.02.01-.01.03-.02.04-.03,0,0,.02-.01.03-.02l.03-.02s.03-.02.04-.03c0,0,.02-.01.02-.02.02-.01.03-.02.05-.03,0,0,.01,0,.02-.01.02-.01.04-.03.05-.04,0,0,.01,0,.02-.01.02-.01.04-.03.06-.04,0,0,0,0,.01,0,.02-.01.04-.03.06-.04,0,0,0,0,0,0,.02-.02.04-.03.06-.04,0,0,0,0,0,0,.02-.02.04-.03.06-.04,0,0,0,0,0,0,.02-.01.04-.03.06-.04,0,0,0,0,0,0,.02-.02.04-.03.06-.04,0,0,0,0,0,0,.12-.08.23-.16.35-.24h0c.11-.08.23-.16.35-.23,0,0,0,0,0,0,.02-.01.05-.03.07-.05,0,0,0,0,0,0,.09-.06.18-.12.28-.18,0,0,0,0,0,0,.02-.01.04-.03.06-.04,0,0,0,0,0,0,.02-.01.04-.03.06-.04,0,0,0,0,0,0,.02-.01.04-.03.06-.04,0,0,0,0,0,0,.02-.01.04-.03.07-.04h0s.04-.03.06-.04c0,0,0,0,0,0,.02-.01.04-.03.06-.04,0,0,0,0,.01,0,.02-.01.04-.03.06-.04,0,0,0,0,.01,0,.02-.01.04-.02.06-.04,0,0,.01,0,.02-.01.02-.01.04-.03.05-.04,0,0,.01,0,.02-.01.02-.01.03-.02.05-.03,0,0,.02-.01.03-.02.02-.01.03-.02.04-.03,0,0,.01,0,.02-.01l.05-.03s.02-.01.03-.02c.02-.01.03-.02.05-.03,0,0,.02-.01.03-.02.02-.01.03-.02.04-.03.01,0,.02-.01.03-.02,0,0,.02-.01.03-.02.02-.01.03-.02.05-.03,0,0,.02-.01.02-.01.02-.01.04-.02.06-.04,0,0,0,0,.02-.01.02-.01.04-.03.06-.04,0,0,0,0,0,0,.34-.22.68-.44,1.02-.65l-5.2-8.21h0Zm-7.69,5.26c-1.56,1.15-3.11,2.34-4.61,3.56l6.1,7.56c.24-.19.48-.39.72-.58,0,0,0,0,0,0,.02-.02.04-.03.06-.05,0,0,0,0,0,0,.02-.01.04-.03.06-.05,0,0,0,0,0,0,.02-.01.04-.03.06-.05,0,0,0,0,.01,0,.02-.01.04-.03.05-.04,0,0,0,0,.01,0,.01-.01.03-.03.05-.04,0,0,.01,0,.02-.01.02-.01.03-.03.05-.04,0,0,.01,0,.02-.01.01-.01.03-.03.05-.04,0,0,.01-.01.02-.02.02-.01.03-.02.05-.04,0,0,.01-.01.02-.02.01-.01.03-.02.04-.04,0,0,.02-.01.03-.02,0,0,.03-.02.03-.03.01,0,.02-.02.03-.03,0,0,.02-.02.03-.02.01-.01.03-.02.04-.03,0,0,.02-.02.03-.02.01,0,.02-.02.03-.02.01,0,.02-.02.04-.03.01,0,.02-.02.03-.03,0,0,.02-.01.02-.02.02-.01.03-.02.05-.04,0,0,.01,0,.02-.01.02-.01.04-.03.05-.04,0,0,0,0,.02-.01.02-.01.04-.03.06-.04,0,0,0,0,.01-.01.02-.02.04-.03.06-.05h0c.46-.36.92-.71,1.39-1.06h0s.05-.04.07-.05h0s.04-.04.06-.05c0,0,0,0,0,0,.02-.02.04-.03.06-.05,0,0,0,0,.01,0,.02-.01.04-.03.06-.04,0,0,.01,0,.02-.01.01,0,.02-.02.03-.03,0,0,0,0,.02-.01.02-.01.04-.03.06-.04,0,0,.01-.01.02-.01.02-.01.03-.02.05-.04,0,0,.01,0,.02-.02.01-.01.03-.02.04-.03,0,0,.02-.02.03-.02.01,0,.02-.02.03-.02.01,0,.03-.02.04-.03,0,0,.02-.01.02-.02.02-.01.03-.02.05-.03,0,0,.02-.01.02-.02.02-.01.03-.02.05-.04,0,0,.01,0,.02-.01.02-.01.04-.03.05-.04,0,0,0,0,.01,0,.02-.01.04-.03.06-.04,0,0,0,0,0,0,.02-.02.04-.03.06-.04,0,0,0,0,0,0l-5.76-7.82h0Zm-7.3,5.79c-1.47,1.25-2.93,2.55-4.35,3.87l6.61,7.11c1.32-1.23,2.66-2.42,4.03-3.59l-6.3-7.4h0Zm-6.88,6.28c-1.38,1.35-2.75,2.75-4.07,4.16l7.1,6.63c.46-.49.92-.98,1.39-1.47,0,0,0,0,0,0,.02-.02.04-.04.05-.06,0,0,0,0,0,0,.02-.02.03-.04.05-.05,0,0,0,0,0,0,.02-.02.04-.04.05-.05,0,0,0,0,0,0,.02-.02.03-.03.05-.05,0,0,0,0,0-.01.01-.01.03-.03.04-.05,0,0,0,0,.01-.01.01-.01.03-.03.04-.05,0,0,.01-.01.02-.02.01-.01.03-.03.04-.04,0,0,.01-.01.02-.02.01-.01.03-.03.04-.04,0,0,.01-.01.02-.02.01-.01.03-.03.04-.04,0,0,.02-.02.02-.03s.02-.02.03-.03l.03-.03s.02-.02.02-.03c.01-.01.02-.03.04-.04,0,0,.01-.01.02-.02.01-.01.03-.03.04-.04,0,0,.01-.01.02-.02.01-.01.02-.02.03-.03,0,0,0,0,0,0,.02-.02.04-.04.06-.06,0,0,0,0,0,0l.05-.05s0,0,0,0c.02-.02.04-.04.06-.06h0c.46-.48.93-.94,1.4-1.4l-6.8-6.94h0Zm-6.42,6.75c-1.28,1.45-2.55,2.94-3.77,4.44l7.54,6.12c.47-.58.94-1.15,1.42-1.71h0s.04-.05.06-.07c0,0,0,0,0,0,.02-.02.03-.04.05-.06,0,0,0,0,0-.01.02-.02.03-.04.05-.05,0,0,0,0,.01-.01.02-.02.03-.04.05-.06,0,0,0,0,0-.01.03-.03.06-.07.09-.1,0,0,0-.01.01-.01.01-.02.03-.04.04-.05,0,0,.01-.01.02-.02.01-.02.03-.03.04-.05,0,0,.01-.01.02-.02.01-.02.03-.03.04-.05,0,0,0-.01.02-.02.01-.01.02-.03.03-.04,0-.01.02-.02.03-.03,0,0,.02-.02.02-.03,0-.01.02-.03.03-.04l.02-.03s.02-.02.03-.04c0-.01.02-.02.03-.03,0,0,.02-.02.02-.03.01-.01.02-.03.03-.04.01-.01.02-.02.02-.03,0-.01.02-.02.03-.03,0-.01.02-.02.03-.03,0,0,.01-.02.02-.02.01-.01.02-.03.04-.04,0,0,.01-.01.02-.02.01-.01.02-.03.04-.04,0,0,.01-.01.02-.02.01-.01.03-.03.04-.04,0,0,.01-.01.02-.02.01-.01.02-.03.03-.04,0,0,.01-.02.02-.02,0-.01.03-.03.04-.04,0,0,0,0,.01-.01.02-.02.03-.03.04-.05,0,0,.01-.01.02-.02.01-.01.03-.03.04-.05,0,0,.01-.01.02-.02.02-.02.03-.03.04-.05,0,0,.01-.01.02-.02.01-.01.03-.03.04-.05,0,0,0,0,.01-.01.02-.02.03-.03.04-.05,0,0,0,0,.01-.01.02-.02.02-.03.04-.05,0,0,0,0,.01-.01.02-.02.03-.03.04-.05,0,0,0,0,.01-.01.02-.02.03-.03.04-.05,0,0,0,0,.01-.01.02-.02.03-.03.05-.05,0,0,0,0,.01-.01.02-.02.03-.03.05-.05,0,0,0,0,0-.01.02-.02.03-.04.05-.05,0,0,0,0,0,0,.02-.02.03-.04.05-.06,0,0,0,0,0,0,.02-.02.04-.04.05-.06,0,0,0,0,0,0,.02-.02.03-.04.05-.06,0,0,0,0,0,0,.02-.02.03-.04.05-.06,0,0,0,0,0,0,.02-.02.03-.04.05-.06,0,0,0,0,0,0,.02-.02.03-.04.05-.06t0,0l-7.27-6.44h0Zm-5.93,7.18c-1.18,1.53-2.34,3.11-3.45,4.69l7.95,5.58c.52-.74,1.04-1.47,1.57-2.19,0,0,0,0,0,0,.02-.02.03-.04.05-.06,0,0,0,0,0,0,.02-.02.03-.04.05-.06,0,0,0,0,0,0,.02-.02.03-.04.05-.06,0,0,0,0,0,0,.03-.04.06-.09.1-.13,0,0,0,0,0,0,.02-.02.03-.04.04-.06,0,0,0,0,0-.01.01-.02.03-.04.04-.06,0,0,0,0,0-.01.02-.02.03-.03.04-.06,0,0,0,0,0-.01.01-.02.03-.04.04-.06,0,0,0,0,0,0,.01-.02.03-.03.04-.05,0,0,0,0,0-.01.01-.02.03-.04.04-.05,0,0,0,0,.01-.01.01-.02.03-.04.04-.05,0,0,0-.01.01-.02.01-.02.03-.03.04-.05,0,0,0-.01.01-.02.01-.02.03-.04.04-.05,0,0,0-.01.01-.02.01-.02.02-.03.04-.05,0,0,0-.01.01-.02,0-.01.02-.03.03-.04,0,0,.01-.02.02-.02.01-.02.02-.03.03-.04,0,0,0-.01.01-.02.01-.02.03-.03.04-.05,0,0,.01-.01.02-.02.01-.02.02-.03.04-.05,0,0,.01-.01.02-.02.01-.02.02-.03.04-.05,0,0,.01-.01.02-.02.01-.02.02-.03.03-.04,0,0,.01-.01.02-.02,0-.01.02-.03.03-.04,0,0,.01-.01.02-.02.01-.02.02-.03.03-.04,0,0,.01-.01.02-.02.01-.02.03-.03.04-.05,0,0,.01-.01.02-.02.01-.02.02-.03.04-.05,0,0,0-.01.01-.02.01-.02.03-.04.04-.05,0,0,0,0,.01-.01.01-.02.03-.04.04-.05,0,0,0,0,0-.01.01-.02.03-.03.04-.05,0,0,0,0,0,0,.01-.02.03-.04.04-.06,0,0,0,0,0-.01.02-.02.03-.04.04-.06,0,0,0,0,0,0,.01-.02.03-.04.05-.06,0,0,0,0,0,0,.02-.02.03-.04.05-.06,0,0,0,0,0,0l-7.7-5.92h0Zm-5.41,7.58c-1.07,1.61-2.11,3.27-3.11,4.92l8.33,5c.82-1.37,1.68-2.73,2.55-4.07h0s.03-.04.04-.06c0,0,0-.01.01-.02.01-.02.02-.04.03-.05,0,0,.01-.02.02-.02,0-.01.02-.03.03-.05,0-.01.01-.02.02-.03,0,0,0-.01.01-.02.01-.02.03-.04.04-.06h0c.04-.06.08-.12.12-.18l-8.1-5.36h0Zm-4.87,7.94c-.95,1.68-1.88,3.41-2.75,5.13l8.66,4.4s.04-.08.06-.11h0s.02-.05.03-.07c0,0,0-.01,0-.02,0-.02.02-.03.02-.05,0-.01.01-.02.02-.03,0-.01.01-.02.02-.03,0-.02.02-.03.02-.05,0,0,0-.02.01-.03,0-.01.02-.03.02-.04l.02-.03s.02-.03.02-.04c0,0,0-.02.01-.03,0-.02.02-.03.03-.05,0,0,0-.01.01-.02,0-.02.02-.04.03-.06,0,0,0-.01,0-.02.01-.02.02-.04.03-.06,0,0,0-.01,0-.02,0-.02.02-.04.03-.06,0,0,0,0,0-.01.01-.02.02-.04.03-.06,0,0,0,0,0-.01.01-.02.02-.04.03-.06,0,0,0,0,0-.01.01-.02.02-.04.03-.06,0,0,0-.01,0-.02.01-.02.02-.04.03-.06v-.02s.03-.04.04-.06c0,0,0-.01,0-.02.01-.02.02-.04.03-.06,0,0,0-.01,0-.01,0-.02.02-.04.03-.06,0,0,0-.01,0-.02,0-.02.02-.04.03-.05v-.02s.03-.04.04-.06c0,0,0-.01.01-.02.01-.02.02-.03.03-.06,0,0,0-.01.01-.02,0-.02.02-.04.03-.06,0,0,0-.01.01-.02,0-.02.02-.03.02-.05,0-.01.01-.02.02-.03,0-.01.01-.03.02-.04,0-.01.01-.02.02-.04,0-.01.01-.02.02-.04l.02-.03s.02-.03.02-.05c0-.01.01-.02.02-.03,0-.01.02-.03.02-.05,0-.01.01-.02.02-.03,0-.01,0-.01.01-.02,0-.02.02-.04.03-.06,0,0,0-.01.01-.02l.03-.06s0-.01,0-.02c.01-.02.02-.04.03-.06,0,0,0-.01,0-.01.29-.54.58-1.08.88-1.62h0c.04-.07.07-.14.11-.2,0-.01,0-.02.02-.03,0-.02.02-.03.03-.04,0-.01.02-.03.02-.04,0,0,.01-.02.02-.03,0-.02.02-.03.03-.05,0,0,0-.01.01-.02.01-.02.02-.04.03-.06,0,0,0,0,0-.01.01-.02.02-.04.04-.06,0,0,0,0,0,0,.05-.1.11-.19.16-.29l-8.46-4.78h0Zm-4.3,8.27c-.83,1.75-1.63,3.53-2.38,5.32l8.95,3.78c.06-.15.13-.31.2-.47h0c.04-.1.09-.21.13-.31h0s.02-.05.03-.08c0,0,0,0,0,0,.04-.1.09-.2.13-.31,0,0,0,0,0,0,.01-.02.02-.05.03-.07,0,0,0,0,0,0,.54-1.24,1.1-2.46,1.68-3.68l-8.77-4.17h0Zm-3.7,8.55c-.71,1.8-1.38,3.64-2,5.47l9.19,3.13v-.03s.02-.02.02-.03c0-.01,0-.02.01-.03,0-.02.01-.03.02-.05,0-.01,0-.02.01-.03,0-.02.01-.04.02-.06,0,0,0-.02,0-.02,0-.02.01-.04.02-.05,0,0,0-.02,0-.02,0-.02.01-.03.02-.06,0,0,0-.01,0-.01,0-.02.02-.04.02-.07,0,0,0,0,0-.01,0-.02.02-.05.02-.07,0,0,0,0,0-.01,0-.02.02-.05.02-.07,0,0,0,0,0-.01,0-.02.02-.05.02-.07,0,0,0,0,0,0,0-.03.02-.05.03-.08h0s.02-.05.03-.08c0,0,0,0,0,0,0-.03.02-.05.03-.08,0,0,0,0,0,0,.04-.11.07-.21.11-.32h0s.02-.05.03-.08t0,0c.44-1.24.9-2.49,1.38-3.71l-9.05-3.54h0Zm-3.09,8.8c-.58,1.85-1.12,3.73-1.61,5.6l9.39,2.47c.18-.69.37-1.38.56-2.06,0,0,0,0,0-.01,0-.02.01-.05.02-.07,0,0,0-.01,0-.02,0-.02.01-.04.02-.06,0-.01,0-.02,0-.03,0-.01,0-.03.01-.04,0-.02,0-.03.01-.05,0-.01,0-.02.01-.03,0-.02,0-.03.01-.05,0-.01,0-.02,0-.03,0-.02,0-.03.01-.04,0-.01,0-.02,0-.03,0-.02,0-.03.01-.05,0,0,0-.01,0-.02,0-.02.01-.04.02-.06,0,0,0-.01,0-.02,0-.02.01-.04.02-.07,0,0,0-.01,0-.01,0-.02.01-.05.02-.07,0,0,0,0,0,0,.02-.08.05-.16.07-.24h0c.21-.7.42-1.4.63-2.1l-9.27-2.89h0Zm-2.45,8.99c-.44,1.88-.85,3.8-1.21,5.7l9.55,1.8c.17-.89.34-1.76.53-2.65,0,0,0,0,0,0,0-.01,0-.02,0-.03,0,0,0,0,0-.01,0,0,0-.02,0-.03,0,0,0-.01,0-.02,0,0,0-.01,0-.02v-.03s0,0,0-.01c0-.01,0-.03,0-.04h0c.17-.82.35-1.63.54-2.43l-9.46-2.22h0Zm-1.81,9.14c-.31,1.91-.58,3.85-.8,5.77l9.65,1.12c.21-1.79.46-3.58.74-5.35l-9.59-1.55h0Zm-1.16,9.24c-.17,1.92-.31,3.88-.39,5.81l9.7.45c.07-1.43.16-2.86.27-4.28h0c0-.07.01-.13.02-.19h0s0-.03,0-.05h0s0-.03,0-.05h0c0-.07.01-.13.02-.2h0s0-.03,0-.05h0s0-.03,0-.05h0s0-.04,0-.05h0c0-.08.01-.16.02-.24h0c0-.08.01-.15.02-.23l-9.67-.87h0ZM.03,129.53c-.02.89-.03,1.79-.03,2.68,0,1.04.01,2.1.04,3.13l9.71-.23h0c-.02-.7-.03-1.4-.03-2.09,0,0,0,0,0,0v-.04h0s0-.03,0-.04h0c0-.08,0-.15,0-.22h0v-.05s0-.02,0-.03v-.16s0-.01,0-.02v-.18h0v-.06h0v-.15h0v-.09s0-.04,0-.06v-.09s0-.04,0-.06v-.07s0-.02,0-.04v-.07s0-.04,0-.05v-.04s0-.03,0-.03v-.03s0-.04,0-.05v-.04s0-.02,0-.03c0-.02,0-.04,0-.06v-.02s0-.03,0-.04v-.02s0-.05,0-.07c0,0,0-.01,0-.02,0-.01,0-.03,0-.04v-.02s0-.05,0-.07c0,0,0-.02,0-.03,0-.02,0-.03,0-.05,0-.01,0-.03,0-.04s0-.02,0-.03v-.03s0-.02,0-.04c0-.02,0-.03,0-.05v-.02s0-.04,0-.06h0s0-.05,0-.07h0c0-.27,0-.53.01-.78l-9.71-.19H.03Zm9.84,8.83l-9.7.48c.1,1.93.23,3.89.41,5.81l9.67-.9c-.17-1.78-.29-3.58-.38-5.38h0Zm.73,8.6l-9.64,1.16c.23,1.92.51,3.86.82,5.77l9.58-1.58c-.28-1.68-.52-3.36-.73-5.06,0,0,0,0,0,0,0-.01,0-.02,0-.04,0,0,0,0,0-.01,0-.01,0-.02,0-.03,0,0,0,0,0-.02,0,0,0-.02,0-.03,0,0,0-.01,0-.02,0,0,0-.01,0-.02,0-.04,0-.08-.01-.11h0Zm1.33,8.53l-9.54,1.83c.37,1.9.78,3.82,1.23,5.7l9.45-2.26c-.12-.49-.23-.98-.34-1.47h0s0-.03,0-.04c0,0,0,0,0-.01,0,0,0-.02,0-.03,0,0,0,0,0-.01,0,0,0-.02,0-.03,0,0,0-.01,0-.02,0,0,0-.02,0-.02,0,0,0-.02,0-.03,0,0,0-.01,0-.02,0-.01,0-.03,0-.04h0s0-.03-.01-.05h0s0-.03,0-.04h0s0-.03,0-.05h0s0-.03,0-.05h0c-.16-.72-.31-1.43-.45-2.15h0s0-.03,0-.05h0s0-.03,0-.05h0s-.02-.1-.03-.14h0s0-.03,0-.04c0,0,0-.02,0-.02,0,0,0-.02,0-.02,0,0,0-.02,0-.02,0,0,0-.01,0-.02,0,0,0-.02,0-.03,0,0,0-.01,0-.02,0,0,0-.02,0-.03,0,0,0,0,0-.01,0-.01,0-.02,0-.03,0,0,0,0,0,0-.05-.25-.1-.49-.15-.75h0Zm1.93,8.41l-9.38,2.51c.5,1.87,1.05,3.75,1.63,5.6l9.26-2.92s0,0,0,0c0-.02-.01-.04-.02-.06,0,0,0,0,0-.01,0-.02-.01-.04-.02-.06,0,0,0-.02,0-.03,0-.02-.01-.04-.02-.05,0-.01,0-.02,0-.03,0-.01,0-.02-.01-.04l-.02-.05s0-.02,0-.02c0-.02-.01-.04-.02-.06,0,0,0-.01,0-.02,0-.03-.02-.05-.02-.08h0c-.48-1.54-.92-3.09-1.34-4.65h0Zm2.52,8.26l-9.18,3.17c.63,1.83,1.31,3.67,2.02,5.47l9.03-3.57c-.33-.83-.65-1.67-.96-2.52,0,0,0,0,0,0,0-.03-.02-.05-.03-.08,0,0,0,0,0,0-.03-.08-.06-.16-.09-.24,0,0,0,0,0,0,0-.03-.02-.05-.03-.08,0,0,0,0,0,0,0-.03-.02-.05-.03-.07,0,0,0,0,0,0,0-.03-.02-.05-.03-.07,0,0,0,0,0,0,0-.03-.02-.04-.03-.07,0,0,0,0,0,0,0-.02-.02-.05-.02-.07,0,0,0,0,0-.01,0-.02-.02-.05-.02-.07,0,0,0-.01,0-.02,0-.02-.01-.04-.02-.06,0,0,0-.01,0-.02,0-.02-.02-.04-.02-.06,0,0,0-.02,0-.02,0-.01-.01-.03-.02-.05,0-.01,0-.02-.01-.03,0-.01-.01-.03-.02-.04,0-.01,0-.02-.01-.04,0-.01,0-.03-.02-.04,0-.01,0-.02-.01-.04,0,0,0-.02,0-.02,0-.02-.02-.04-.02-.06,0,0,0,0,0,0,0-.03-.02-.05-.03-.08h0c-.14-.39-.27-.78-.41-1.16h0Zm3.1,8.06l-8.94,3.81c.76,1.78,1.57,3.56,2.4,5.31l8.76-4.2c-.57-1.18-1.11-2.37-1.64-3.57h0s-.02-.06-.04-.09h0s-.01-.03-.02-.04c0,0,0,0,0,0-.01-.02-.02-.05-.03-.07,0-.01,0-.02-.02-.04,0-.01-.01-.03-.02-.04,0-.02-.01-.03-.02-.05v-.03s-.03-.03-.03-.05c0,0,0-.01,0-.02,0-.02-.02-.04-.03-.06,0,0,0,0,0-.01,0-.02-.02-.05-.03-.07,0,0,0,0,0,0-.11-.26-.22-.52-.33-.77h0Zm3.67,7.82l-8.64,4.43c.88,1.72,1.81,3.44,2.77,5.12l8.44-4.81c-.06-.1-.11-.19-.16-.29,0,0,0,0,0,0-.01-.02-.02-.04-.04-.07,0,0,0,0,0,0-.01-.02-.02-.04-.04-.06,0,0,0,0,0-.01-.01-.02-.02-.04-.03-.06,0,0,0-.01,0-.02,0-.02-.02-.03-.03-.05,0,0,0-.02-.01-.02,0-.02-.02-.03-.03-.05,0,0-.01-.02-.02-.03,0-.01-.02-.03-.03-.05,0-.01-.01-.02-.02-.03,0-.02-.01-.03-.02-.04,0-.01-.01-.02-.02-.03,0-.01-.01-.02-.02-.03,0-.02-.02-.03-.03-.05,0,0-.01-.02-.01-.03-.01-.02-.02-.04-.03-.05,0-.01,0-.01-.01-.02-.01-.02-.02-.04-.04-.06,0,0,0,0,0-.01-.02-.04-.04-.08-.06-.12,0,0,0-.01,0-.02-.01-.02-.02-.04-.03-.06,0,0,0,0,0-.02-.01-.02-.02-.04-.03-.06,0,0,0-.01-.01-.02-.01-.02-.02-.04-.03-.06,0,0,0-.01-.01-.02l-.03-.05s-.01-.02-.02-.03l-.02-.03s-.02-.03-.02-.04c0-.01-.01-.02-.02-.04,0-.01-.01-.02-.02-.03,0-.02-.02-.03-.03-.05,0-.01,0-.02-.02-.03,0-.01-.02-.03-.02-.04,0-.01-.01-.03-.02-.04,0,0,0-.02-.01-.03,0-.02-.02-.03-.03-.05v-.02s-.03-.03-.04-.05v-.02s-.03-.04-.04-.06c0,0,0-.01,0-.02-.01-.02-.02-.04-.03-.06,0,0,0,0,0,0-.01-.02-.02-.05-.04-.07,0,0,0,0,0,0-.01-.02-.03-.05-.04-.07,0,0,0,0,0,0-.01-.02-.02-.04-.04-.07,0,0,0,0,0,0-.43-.79-.85-1.58-1.26-2.39h0Zm4.21,7.54l-8.31,5.03c1,1.65,2.05,3.31,3.12,4.91l8.08-5.39c-.23-.35-.47-.7-.7-1.05,0,0,0,0,0,0-.01-.02-.03-.04-.04-.07,0,0,0,0,0,0-.01-.02-.03-.04-.04-.07,0,0,0,0,0,0-.01-.02-.03-.04-.04-.07,0,0,0,0,0,0-.01-.02-.03-.04-.04-.07,0,0,0,0,0,0-.01-.02-.03-.04-.04-.06,0,0,0,0,0-.01-.01-.02-.03-.04-.04-.06,0,0,0-.01-.01-.02-.01-.02-.02-.03-.03-.05,0,0,0-.01-.01-.02-.01-.02-.02-.04-.03-.05,0,0,0-.01-.01-.02-.01-.02-.02-.02-.03-.04,0-.01-.01-.02-.02-.03,0-.01-.01-.02-.02-.04l-.02-.04s-.01-.02-.02-.03c0,0-.01-.02-.02-.03-.01-.02-.02-.03-.03-.04,0-.01-.01-.02-.02-.03,0-.01-.02-.03-.02-.04,0-.01-.02-.03-.02-.04,0,0,0-.01-.01-.02-.01-.02-.02-.04-.04-.06,0,0,0,0,0-.01l-.04-.06s0,0,0-.01l-.05-.07h0c-.39-.61-.77-1.22-1.15-1.84,0,0,0-.01-.01-.02-.01-.02-.02-.04-.03-.06,0-.01,0-.01-.02-.02,0-.02-.02-.03-.03-.05,0-.01-.01-.02-.02-.03,0-.01-.01-.02-.02-.04,0-.01-.02-.03-.02-.04,0,0,0-.01-.01-.02-.01-.02-.02-.04-.03-.05,0,0,0-.01-.01-.02-.01-.02-.02-.04-.04-.06,0,0,0,0,0-.01-.01-.02-.02-.04-.04-.06,0,0,0,0,0,0h0Zm4.73,7.22l-7.94,5.6c1.11,1.58,2.28,3.15,3.46,4.68l7.68-5.95s0,0,0,0c-.02-.02-.03-.04-.05-.06,0,0,0,0,0,0-.02-.02-.03-.04-.05-.06,0,0,0,0,0,0-.02-.02-.03-.04-.05-.06h0s-.07-.09-.1-.13c0,0,0,0,0,0-.02-.02-.03-.04-.05-.06,0,0,0,0,0,0-.01-.02-.03-.04-.04-.06,0,0,0,0,0,0-.02-.02-.03-.04-.04-.06,0,0,0,0-.01-.01-.01-.02-.03-.04-.04-.06h0s-.02-.04-.04-.06c0,0,0-.01-.01-.01-.01-.02-.03-.04-.04-.05,0,0,0,0-.01-.01-.01-.02-.03-.04-.04-.05,0,0-.01-.01-.02-.02-.01-.02-.02-.03-.04-.05l-.02-.02s-.02-.03-.04-.05c0,0-.01-.02-.02-.02,0-.01-.02-.03-.03-.04,0,0-.01-.02-.02-.03,0-.01-.02-.02-.03-.04,0-.01-.02-.02-.03-.03,0,0-.02-.02-.02-.03,0-.01-.02-.02-.02-.03,0-.01-.02-.02-.03-.04,0,0-.01-.02-.02-.03,0-.01-.02-.03-.03-.04,0,0-.01-.02-.02-.03-.01-.02-.02-.03-.03-.04,0,0-.01-.02-.02-.03,0,0-.01-.02-.02-.03-.01-.01-.02-.03-.03-.04,0,0-.01-.02-.02-.03-.01-.01-.02-.03-.03-.04,0,0-.01-.02-.02-.03l-.03-.04s-.01-.02-.02-.03c0-.01-.02-.02-.02-.03,0-.01-.02-.03-.03-.04,0-.01-.02-.02-.02-.03,0,0-.01-.01-.02-.02-.01-.02-.03-.03-.04-.05,0,0,0-.01-.01-.02-.01-.02-.03-.04-.04-.05,0,0,0,0-.01-.02l-.04-.06s0-.01-.01-.02c-.01-.02-.03-.04-.04-.06,0,0,0,0,0-.01-.04-.06-.09-.12-.13-.18,0,0,0,0,0,0-.02-.02-.03-.04-.05-.06,0,0,0,0,0-.01-.02-.02-.03-.04-.05-.06,0,0,0,0,0-.01-.02-.02-.03-.05-.05-.07h0s-.05-.08-.08-.11c0,0,0,0,0-.01-.01-.02-.03-.04-.04-.06,0,0,0-.01-.01-.01-.01-.02-.03-.04-.04-.06,0,0,0,0-.01-.01-.01-.02-.03-.04-.04-.06,0,0,0-.01-.01-.02-.01-.02-.02-.03-.04-.05,0,0,0-.01-.02-.02,0-.01-.02-.03-.03-.04,0,0-.02-.02-.02-.03l-.02-.03s-.01-.02-.02-.03c-.01-.02-.02-.03-.03-.05l-.02-.02s-.02-.03-.03-.05c0,0-.01-.02-.02-.03,0-.01-.02-.03-.03-.04,0,0-.02-.02-.02-.03,0-.01-.02-.02-.02-.03,0-.01-.02-.02-.03-.04,0,0-.01-.02-.02-.03,0-.01-.02-.03-.03-.04,0,0-.01-.02-.02-.02-.01-.02-.02-.03-.03-.05,0,0-.01-.01-.02-.02-.01-.02-.02-.03-.03-.05,0,0,0-.01-.02-.02,0-.01-.02-.03-.03-.04,0,0-.01-.01-.02-.02-.01-.02-.02-.03-.04-.05,0,0,0-.01-.01-.02-.01-.02-.03-.04-.04-.06,0,0,0,0-.01-.01-.01-.02-.03-.04-.04-.06,0,0,0,0,0-.01-.02-.02-.03-.04-.04-.06,0,0,0,0,0,0-.13-.18-.26-.36-.39-.54h0Zm5.22,6.87l-7.52,6.15c1.22,1.5,2.49,2.99,3.78,4.43l7.25-6.47c-1.2-1.34-2.37-2.71-3.5-4.1h0Zm5.69,6.49l-7.07,6.66c1.32,1.41,2.7,2.8,4.08,4.15l6.78-6.96s0,0,0,0c-.01-.01-.03-.03-.04-.04,0,0-.01-.01-.02-.02-.01-.01-.03-.03-.04-.04,0,0-.01-.01-.02-.02-.01-.01-.03-.03-.04-.04,0,0-.02-.01-.02-.02,0,0-.02-.02-.03-.03-.01-.01-.02-.02-.04-.04,0,0-.02-.02-.02-.02-.01-.01-.03-.02-.04-.04,0,0-.02-.01-.02-.02-.01-.01-.03-.03-.04-.04,0,0-.02-.02-.02-.02-.01-.01-.03-.03-.04-.04,0,0-.02-.02-.02-.02,0-.01-.02-.02-.03-.03,0,0-.01-.01-.02-.02-.02-.02-.03-.03-.05-.05l-.02-.02-.05-.05s-.01-.01-.02-.02c-.02-.02-.03-.03-.05-.05,0,0,0,0-.02-.01-.02-.02-.03-.03-.05-.05,0,0,0,0-.01-.01-.02-.02-.04-.03-.05-.05,0,0,0,0,0,0-.01-.01-.02-.02-.03-.03,0,0,0,0-.01-.01-.02-.02-.03-.03-.05-.05,0,0-.01-.01-.01-.01-.02-.02-.03-.03-.05-.05,0,0,0,0-.01-.01l-.05-.05s-.01-.01-.02-.02c-.01-.01-.03-.03-.04-.04,0,0-.01-.01-.02-.02-.01-.01-.02-.02-.04-.04,0,0-.02-.02-.03-.03,0,0-.02-.02-.03-.03-.01-.01-.02-.02-.03-.03,0,0-.02-.02-.03-.03l-.02-.02s-.02-.03-.04-.04c0,0-.01-.01-.02-.02-.01-.01-.03-.03-.04-.04,0,0-.02-.02-.02-.02-.01-.01-.02-.02-.04-.04,0,0-.02-.02-.03-.03,0,0-.02-.02-.02-.03-.01-.01-.02-.02-.04-.04,0,0-.02-.02-.02-.02-.01-.01-.03-.03-.04-.04,0,0-.01-.01-.02-.02-.01-.01-.02-.03-.04-.04,0,0-.02-.02-.02-.02-.01-.01-.02-.02-.04-.04,0,0-.01-.01-.02-.02-.01-.01-.03-.03-.04-.04,0,0-.01-.01-.02-.02-.02-.02-.03-.03-.04-.04,0,0-.01-.01-.02-.02-.01-.01-.03-.03-.04-.04,0,0-.01-.01-.02-.02-.02-.02-.03-.03-.05-.05,0,0,0,0-.01-.01-.02-.02-.03-.03-.05-.05,0,0,0,0-.01-.01-.02-.02-.04-.04-.05-.05,0,0,0,0,0,0-.02-.02-.04-.04-.05-.05h0s-.04-.04-.05-.06c0,0,0,0,0,0-.02-.02-.04-.04-.05-.06,0,0,0,0,0,0-.02-.02-.04-.04-.05-.06,0,0,0,0,0,0-.02-.02-.04-.04-.06-.06,0,0,0,0,0,0-.47-.48-.94-.97-1.4-1.46h0Zm6.13,6.08l-6.59,7.14c1.42,1.31,2.89,2.61,4.36,3.85l6.27-7.42c-.41-.34-.81-.69-1.21-1.04,0,0,0,0,0,0-.02-.02-.04-.03-.05-.05,0,0,0,0-.01-.01-.02-.02-.03-.03-.05-.04,0,0,0,0-.01-.01-.02-.02-.03-.03-.05-.04,0,0,0,0-.01-.01-.01-.01-.03-.03-.04-.04,0,0-.01-.01-.02-.02-.01-.01-.02-.02-.04-.03,0,0-.02-.02-.03-.02-.01-.01-.02-.02-.04-.03l-.02-.02s-.03-.02-.04-.04c0,0-.02-.01-.02-.02-.01-.01-.03-.03-.04-.04,0,0-.02-.02-.03-.02,0,0-.02-.01-.02-.02-.01-.01-.03-.02-.04-.04,0,0-.01-.01-.02-.02-.02-.01-.03-.03-.05-.04,0,0-.01-.01-.02-.02-.02-.01-.03-.03-.05-.04,0,0-.01,0-.02-.01l-.06-.05h0s-.07-.06-.1-.09c0,0,0,0,0,0-.02-.02-.04-.04-.06-.05,0,0,0,0-.01,0-.02-.02-.04-.03-.06-.05,0,0,0,0,0,0-.02-.02-.04-.04-.06-.05h0c-.08-.08-.16-.15-.24-.22h0s-.04-.04-.06-.06h0s-.04-.04-.06-.06h0c-.45-.4-.89-.81-1.33-1.22h0Zm6.54,5.63l-6.07,7.58c1.51,1.21,3.06,2.4,4.62,3.54l5.74-7.84c-.2-.14-.39-.29-.59-.43h0s-.07-.05-.1-.08c-.02-.01-.02-.02-.04-.03,0,0-.02-.01-.03-.02-.01,0-.03-.02-.04-.03l-.03-.02s-.03-.02-.04-.03c0,0,0,0-.01-.01-.02-.01-.04-.03-.06-.04,0,0,0,0-.01,0-.02-.02-.04-.03-.06-.04,0,0,0,0,0,0-.02-.01-.04-.03-.06-.05,0,0,0,0,0,0-1.06-.79-2.1-1.6-3.13-2.42,0,0,0,0,0,0-.02-.02-.04-.03-.06-.05h0Zm6.92,5.16l-5.53,7.99c1.59,1.1,3.22,2.18,4.86,3.21l5.17-8.22c-1.52-.96-3.03-1.95-4.5-2.97h0Zm7.27,4.66l-4.95,8.36c1.66.99,3.37,1.95,5.08,2.86l4.58-8.57c-.64-.34-1.29-.7-1.93-1.05h0c-.05-.03-.1-.05-.15-.08,0,0,0,0,0,0-.02-.01-.05-.03-.07-.04,0,0,0,0-.01,0-.02-.01-.04-.02-.06-.03,0,0,0,0-.01,0-.02-.01-.04-.02-.06-.03,0,0-.01,0-.02,0-.02,0-.04-.02-.06-.03,0,0-.01,0-.02-.01-.02,0-.04-.02-.05-.03,0,0-.01,0-.02-.01-.02,0-.03-.02-.05-.03,0,0-.01,0-.02-.01-.02,0-.03-.02-.05-.03,0,0-.02,0-.02-.01-.02,0-.03-.02-.05-.03,0,0-.02,0-.02-.01-.02,0-.03-.02-.05-.03,0,0-.02,0-.03-.01-.01,0-.03-.02-.04-.03-.01,0-.02-.01-.03-.02-.01,0-.02-.01-.04-.02-.01,0-.02-.01-.04-.02-.01,0-.03-.01-.04-.02-.01,0-.02-.01-.03-.02-.01,0-.03-.02-.04-.02l-.03-.02s-.03-.02-.05-.03c0,0-.02-.01-.03-.02-.02,0-.03-.02-.05-.03,0,0-.02,0-.02-.01-.01,0-.03-.02-.04-.02-.01,0-.02-.01-.03-.02-.01,0-.03-.02-.04-.02,0,0-.02,0-.02-.01-.02,0-.03-.02-.05-.03,0,0-.02,0-.02-.01-.02,0-.04-.02-.05-.03,0,0-.02,0-.02-.01-.02,0-.04-.02-.05-.03,0,0-.02,0-.02-.01-.02,0-.04-.02-.05-.03,0,0-.01,0-.02-.01-.02,0-.04-.02-.06-.03,0,0,0,0-.01,0-.02-.01-.04-.02-.06-.03,0,0,0,0-.01,0-.02-.01-.04-.02-.06-.04,0,0,0,0-.01,0-.02-.01-.04-.02-.06-.04,0,0,0,0,0,0-.02-.01-.04-.03-.07-.04,0,0,0,0,0,0-.24-.14-.49-.28-.72-.43h0Zm7.58,4.14l-4.35,8.69c1.73.87,3.5,1.7,5.27,2.49l3.96-8.87c-.46-.21-.92-.42-1.38-.63,0,0,0,0,0,0-.02-.01-.05-.02-.07-.03,0,0,0,0,0,0-.02-.01-.05-.02-.07-.03,0,0,0,0,0,0-.05-.02-.09-.04-.14-.07,0,0,0,0-.01,0-.02,0-.04-.02-.06-.03,0,0-.01,0-.02,0-.02,0-.04-.02-.06-.03,0,0-.01,0-.02,0-.02,0-.04-.02-.06-.03,0,0-.01,0-.02,0-.02,0-.03-.02-.05-.02,0,0-.02,0-.03-.01-.01,0-.03-.01-.04-.02-.01,0-.02-.01-.03-.02-.01,0-.03-.01-.04-.02-.01,0-.02,0-.03-.01-.02,0-.03-.01-.05-.02-.01,0-.02,0-.03-.01-.01,0-.03-.02-.05-.02-.01,0-.02-.01-.04-.02-.01,0-.01,0-.02-.01-.02,0-.04-.02-.06-.03,0,0-.01,0-.02,0-.02-.01-.04-.02-.06-.03,0,0,0,0-.02,0-.02-.01-.05-.02-.07-.03,0,0,0,0,0,0-.07-.03-.14-.07-.21-.1h0s-.06-.03-.08-.04h0c-.67-.32-1.34-.65-2-.98h0Zm7.85,3.59l-3.72,8.97c1.79.74,3.61,1.45,5.43,2.11l3.32-9.13s-.05-.02-.08-.03c0,0,0,0,0,0-.03,0-.05-.02-.07-.03,0,0,0,0,0,0-.02,0-.05-.02-.07-.03,0,0,0,0-.01,0-.02,0-.05-.02-.07-.02,0,0-.01,0-.02,0-.02,0-.04-.01-.06-.02h-.02s-.04-.02-.05-.03c0,0-.02,0-.02,0-.02,0-.04-.01-.06-.02,0,0-.02,0-.03-.01-.02,0-.03-.01-.05-.02h-.03s-.02-.02-.04-.03c-.02,0-.03-.01-.05-.02-.01,0-.02,0-.03-.01-.02,0-.03-.01-.05-.02-.01,0-.02,0-.03-.01-.02,0-.04-.01-.05-.02-.01,0-.02,0-.03-.01-.04-.02-.08-.03-.12-.05,0,0-.01,0-.02,0-.02,0-.05-.02-.07-.03,0,0,0,0-.02,0-.02,0-.05-.02-.07-.03h-.01s-.05-.02-.07-.03c0,0,0,0-.01,0-.04-.02-.08-.03-.13-.05,0,0,0,0-.01,0-.02,0-.05-.02-.07-.03,0,0,0,0-.02,0-.02,0-.04-.02-.07-.02,0,0-.01,0-.02,0-.02,0-.04-.02-.06-.02,0,0-.02,0-.02,0l-.06-.02s-.01,0-.02,0c-.01,0-.03,0-.04-.01,0,0-.01,0-.02,0l-.06-.02s-.02,0-.02,0c-.02,0-.04-.01-.06-.02,0,0-.02,0-.02,0-.02,0-.04-.01-.05-.02-.01,0-.02,0-.03-.01-.01,0-.02,0-.04-.01-.01,0-.03-.01-.05-.02-.01,0-.02,0-.04-.01-.01,0-.03-.01-.04-.02-.01,0-.03-.01-.04-.02-.01,0-.03,0-.04-.01-.01,0-.03-.01-.04-.02-.01,0-.02,0-.04-.01s-.03-.01-.04-.02c-.01,0-.03-.01-.04-.01-.01,0-.02,0-.03-.01-.02,0-.03-.01-.05-.02-.01,0-.02,0-.03-.01-.02,0-.03-.01-.05-.02,0,0-.02,0-.03-.01-.01,0-.03-.01-.04-.02-.01,0-.02,0-.04-.01-.01,0-.03-.01-.04-.02-.01,0-.02,0-.03-.01-.01,0-.03-.01-.05-.02,0,0-.02,0-.02,0-.02,0-.04-.01-.06-.02,0,0-.02,0-.02,0-.02,0-.04-.02-.06-.02,0,0-.02,0-.02,0-.01,0-.04-.01-.05-.02,0,0-.02,0-.03-.01-.01,0-.03-.01-.05-.02,0,0-.02,0-.03-.01-.01,0-.04-.01-.05-.02,0,0-.02,0-.02,0-.02,0-.04-.02-.06-.02,0,0-.02,0-.02,0-.02,0-.04-.02-.06-.02,0,0-.02,0-.03-.01-.01,0-.04-.01-.05-.02,0,0-.02,0-.03-.01-.01,0-.03-.01-.04-.02h-.04s-.03-.03-.04-.03c0,0-.02,0-.03-.01-.02,0-.03-.01-.05-.02-.01,0-.02,0-.03-.01-.01,0-.04-.01-.05-.02-.01,0-.02,0-.03-.01-.01,0-.02,0-.04-.02s-.03-.01-.04-.02c-.01,0-.02,0-.03-.01-.02,0-.03-.01-.05-.02-.01,0-.02,0-.03-.01-.02,0-.04-.02-.06-.02,0,0-.01,0-.02,0-.04-.02-.08-.03-.12-.05h0s-.05-.02-.08-.03h0c-.22-.09-.44-.18-.66-.27h0Zm8.09,3.02l-3.08,9.21c1.83.61,3.71,1.19,5.57,1.72l2.67-9.34c-.66-.19-1.32-.38-1.97-.58,0,0,0,0,0,0-.02,0-.05-.01-.07-.02,0,0-.01,0-.02,0-.02,0-.04-.01-.06-.02-.01,0-.02,0-.03,0-.01,0-.02,0-.03-.01-.02,0-.04-.01-.05-.02,0,0-.02,0-.03,0-.02,0-.04-.01-.06-.02,0,0-.02,0-.02,0-.02,0-.04-.01-.06-.02,0,0-.01,0-.02,0-.02,0-.04-.01-.06-.02,0,0,0,0-.01,0-.02,0-.05-.01-.07-.02h-.01s-.05-.02-.07-.03c0,0,0,0,0,0-.83-.26-1.66-.52-2.48-.8h0Zm8.28,2.44l-2.42,9.41c1.87.48,3.78.93,5.67,1.32l2-9.51c-.56-.12-1.11-.24-1.66-.36h0s-.03,0-.04,0h0s-.03,0-.04-.01h0s-.02,0-.04-.01c0,0,0,0,0,0-.01,0-.03,0-.04,0h0s-.09-.02-.14-.03h0s-.03,0-.04-.01c0,0,0,0,0,0-.01,0-.02,0-.04,0,0,0,0,0-.01,0-.01,0-.02,0-.04,0h0s-.03,0-.04-.01h0c-.06-.02-.12-.03-.18-.04h0s-.03,0-.04-.01h0s-.03,0-.04-.01h0c-.94-.22-1.87-.45-2.8-.68h0Zm8.43,1.85l-1.74,9.56c1.9.35,3.84.66,5.75.92l1.32-9.62c-1.79-.25-3.56-.53-5.33-.85h0Zm8.54,1.25l-1.06,9.66c1.92.21,3.87.38,5.8.51l.64-9.69c-.89-.06-1.77-.13-2.65-.2,0,0,0,0,0,0-.01,0-.02,0-.04,0,0,0,0,0-.01,0,0,0-.03,0-.03,0,0,0,0,0,0,0-.01,0-.02,0-.03,0,0,0,0,0-.01,0-.01,0-.02,0-.03,0,0,0,0,0,0,0-.02,0-.03,0-.05,0h-.02s-.01,0-.02,0c0,0-.02,0-.03,0,0,0-.01,0-.02,0-.01,0-.02,0-.03,0,0,0,0,0-.01,0-.01,0-.02,0-.04,0h0s-.03,0-.04,0h0c-.73-.07-1.45-.14-2.17-.22h-.1Zm8.61.65l-.39,9.71c1.78.07,3.58.11,5.37.11h.45s-.03-9.71-.03-9.71c-.05,0-.1,0-.14,0h-.04c-.08,0-.16,0-.24,0h-.17s-.04,0-.06,0h-.01s-.04,0-.07,0h-.08s0,0,0,0h-.07s-.01,0-.02,0c-.02,0-.05,0-.07,0h0s-.04,0-.07,0c0,0-.01,0-.02,0-.02,0-.04,0-.07,0h0s-.04,0-.07,0h0s-.05,0-.07,0h0s-.05,0-.07,0h0s-.05,0-.07,0h0s-.1,0-.15,0c0,0,0,0,0,0-.02,0-.05,0-.07,0h0c-.05,0-.1,0-.15,0h0c-1.19-.01-2.39-.04-3.57-.09h0Zm14.02-.23c-.43.03-.86.06-1.3.09h0s-.03,0-.04,0h0c-.05,0-.11,0-.16.01h0s-.03,0-.04,0c0,0,0,0,0,0h-.04s0,0,0,0c-.01,0-.02,0-.04,0h0s-.02,0-.03,0c0,0,0,0,0,0-.04,0-.07,0-.11,0,0,0,0,0,0,0-.01,0-.02,0-.03,0,0,0,0,0-.01,0,0,0-.02,0-.03,0,0,0-.01,0-.02,0,0,0-.02,0-.03,0,0,0-.01,0-.02,0-.01,0-.02,0-.03,0,0,0-.01,0-.02,0,0,0-.02,0-.03,0,0,0-.02,0-.02,0-.02,0-.03,0-.04,0,0,0-.01,0-.02,0-.01,0-.01,0-.03,0,0,0-.01,0-.02,0,0,0-.02,0-.02,0,0,0-.02,0-.02,0,0,0-.01,0-.02,0s-.02,0-.02,0-.01,0-.02,0-.02,0-.03,0c0,0-.02,0-.02,0-.01,0-.02,0-.03,0,0,0-.02,0-.03,0h-.03s-.02,0-.02,0c0,0-.02,0-.02,0,0,0-.01,0-.02,0,0,0-.02,0-.02,0,0,0-.01,0-.02,0,0,0-.02,0-.03,0,0,0-.01,0-.02,0,0,0-.02,0-.03,0,0,0-.01,0-.02,0-.01,0-.02,0-.03,0,0,0-.01,0-.02,0-.01,0-.03,0-.04,0,0,0,0,0-.01,0,0,0-.02,0-.03,0,0,0-.01,0-.02,0s-.02,0-.03,0c0,0-.01,0-.02,0,0,0-.02,0-.03,0,0,0-.01,0-.02,0,0,0-.02,0-.03,0,0,0-.01,0-.02,0-.01,0-.02,0-.03,0,0,0,0,0-.01,0h-.05s-.01,0-.01,0c-.01,0-.02,0-.03,0,0,0-.01,0-.02,0h-.03s-.01,0-.02,0h-.03s-.01,0-.02,0c0,0-.02,0-.03,0,0,0-.01,0-.02,0-.01,0-.02,0-.03,0,0,0,0,0-.01,0-.02,0-.03,0-.05,0,0,0,0,0-.01,0-.01,0-.02,0-.03,0,0,0-.02,0-.02,0,0,0-.02,0-.03,0,0,0,0,0-.02,0,0,0-.02,0-.03,0,0,0-.01,0-.02,0,0,0-.02,0-.02,0,0,0-.01,0-.02,0,0,0-.02,0-.02,0,0,0-.01,0-.02,0,0,0-.02,0-.02,0-.02,0-.02,0-.04,0,0,0-.02,0-.02,0,0,0-.02,0-.02,0,0,0-.02,0-.03,0,0,0-.01,0-.02,0,0,0-.02,0-.02,0,0,0-.02,0-.02,0,0,0-.01,0-.02,0,0,0-.02,0-.02,0,0,0-.01,0-.02,0-.04,0-.07,0-.11,0,0,0,0,0,0,0-.01,0-.02,0-.03,0,0,0,0,0-.01,0,0,0-.02,0-.03,0,0,0-.01,0-.02,0,0,0-.02,0-.03,0h-.02s-.02,0-.03,0c0,0,0,0,0,0-.43.02-.87.03-1.3.05l.28,9.71c1.93-.06,3.89-.16,5.81-.3l-.71-9.69h0Zm8.58-.93c-.09.01-.17.02-.26.04h0s-.03,0-.04,0c0,0,0,0-.02,0,0,0-.02,0-.03,0,0,0-.01,0-.02,0h-.02s-.02,0-.03,0c0,0,0,0-.01,0-.06,0-.13.02-.2.03,0,0,0,0,0,0-.01,0-.03,0-.04,0,0,0,0,0,0,0-.02,0-.02,0-.04,0,0,0,0,0,0,0-.32.04-.64.09-.96.13h0c-.08.01-.16.02-.25.03,0,0,0,0,0,0-.01,0-.02,0-.04,0,0,0,0,0-.01,0,0,0-.02,0-.03,0,0,0,0,0-.01,0-.01,0-.02,0-.03,0,0,0,0,0-.01,0-.01,0-.02,0-.03,0,0,0-.01,0-.02,0,0,0-.02,0-.03,0-.01,0-.03,0-.04,0,0,0-.01,0-.01,0-.01,0-.02,0-.03,0,0,0-.01,0-.02,0h-.03s0,0-.01,0c-.01,0-.02,0-.03,0,0,0,0,0-.01,0-.01,0-.03,0-.04,0h0s-.03,0-.04,0h0c-.98.12-1.96.23-2.95.33l.96,9.67c1.92-.19,3.87-.43,5.78-.7l-1.39-9.61h0Zm8.5-1.53c-1.11.24-2.23.47-3.35.68h0s-.02,0-.04,0c0,0,0,0-.02,0,0,0-.02,0-.03,0h-.02s-.01,0-.02,0c0,0-.02,0-.03,0,0,0,0,0-.01,0-.59.11-1.18.22-1.78.32l1.64,9.57c1.91-.33,3.83-.7,5.72-1.11l-2.06-9.49h0Zm8.37-2.13c-.81.24-1.63.47-2.46.69h0s-.05.02-.08.02c0,0,0,0-.02,0-.02,0-.05.01-.07.02,0,0-.02,0-.02,0-.02,0-.04,0-.05.01-.01,0-.02,0-.03,0-.01,0-.02,0-.03,0-.02,0-.04.01-.05.01,0,0-.02,0-.03,0-.02,0-.04,0-.05.01-.01,0-.02,0-.03,0-.02,0-.03,0-.05.01,0,0-.01,0-.02,0-.02,0-.04.01-.06.02,0,0-.01,0-.02,0-.02,0-.05.01-.07.02,0,0,0,0-.01,0-.02,0-.05.01-.07.02,0,0,0,0-.01,0-.65.17-1.31.34-1.96.5l2.31,9.43c1.88-.46,3.77-.97,5.63-1.51l-2.73-9.32h0Zm8.19-2.72c-1.68.62-3.38,1.22-5.1,1.77l2.98,9.25c1.84-.59,3.69-1.24,5.51-1.91l-3.38-9.1h0Zm7.98-3.29c-1.64.74-3.29,1.45-4.96,2.12l3.63,9.01c1.79-.72,3.6-1.49,5.36-2.29l-4.02-8.84h0Zm7.73-3.85c-.23.12-.46.25-.69.37,0,0-.01,0-.01,0-.02.01-.04.02-.06.03,0,0-.01,0-.02.01-.02,0-.03.02-.05.03-.01,0-.02.01-.03.02-.01,0-.02.01-.04.02-.01,0-.03.02-.05.02,0,0-.01,0-.02.01-.02.01-.04.02-.06.03,0,0-.01,0-.02.01-.02.01-.04.02-.06.03,0,0-.01,0-.02,0-.02.01-.04.02-.06.03,0,0,0,0-.01,0-.02.01-.04.02-.07.03h0s-.05.03-.07.04c0,0,0,0,0,0-.02.01-.04.02-.07.04,0,0,0,0,0,0-.02.01-.05.03-.07.04,0,0,0,0,0,0-.02.01-.05.02-.07.04,0,0,0,0,0,0-.08.04-.15.08-.22.12,0,0,0,0,0,0l-.07.04s0,0,0,0c-.02.01-.05.03-.07.04t0,0c-.1.05-.2.1-.3.15h0s-.05.02-.07.04h0s-.05.03-.07.04h0c-.08.04-.15.08-.22.12h0s-.05.03-.07.04c0,0,0,0,0,0-.02.01-.05.02-.07.04h0s-.05.03-.07.04c0,0,0,0,0,0-.05.02-.1.05-.15.07h0s-.05.03-.07.04c0,0,0,0,0,0-.02.01-.05.03-.07.04,0,0,0,0,0,0-.02.01-.05.02-.07.04h0c-.08.04-.15.08-.22.11h0s-.05.03-.07.04c0,0,0,0,0,0-.43.22-.85.43-1.29.64l4.26,8.73c1.74-.85,3.48-1.74,5.18-2.67l-4.64-8.54h0Zm7.44-4.39c-1.51.97-3.05,1.9-4.61,2.8l4.86,8.41c1.67-.97,3.35-1.98,4.98-3.02l-5.23-8.19h0Zm7.11-4.9c-.48.36-.97.71-1.46,1.06,0,0,0,0,0,0-.02.01-.04.03-.06.04,0,0,0,0-.02.01-.02.01-.04.03-.05.04,0,0-.01,0-.02.01-.01.01-.03.02-.04.03-.01,0-.02.01-.03.02,0,0-.02.01-.03.02-.02.01-.03.02-.04.03,0,0-.02.01-.03.02-.02.01-.03.02-.04.03l-.02.02s-.03.02-.04.03c0,0-.02.01-.02.02-.02.01-.03.02-.05.03,0,0,0,0-.01,0-.02.01-.04.03-.06.04,0,0,0,0-.01,0-.02.01-.04.03-.06.04,0,0,0,0-.01.01-.02.01-.04.03-.06.04,0,0,0,0-.01,0-.02.02-.04.03-.06.04,0,0,0,0,0,0-.07.05-.13.09-.2.14h0c-.64.45-1.29.9-1.94,1.34l5.44,8.05c1.6-1.08,3.2-2.21,4.75-3.37l-5.79-7.8h0Zm6.75-5.39c-.55.47-1.11.95-1.68,1.41,0,0,0,0,0,0-.02.02-.04.03-.06.05,0,0,0,0,0,0-.02.02-.04.03-.06.05,0,0,0,0,0,0-.02.01-.04.03-.06.05,0,0,0,0,0,0-.02.02-.04.03-.06.05,0,0,0,0,0,0-.02.01-.04.03-.05.04h-.01s-.03.04-.05.05c0,0-.01,0-.02.01-.02.01-.03.03-.05.04,0,0-.01.01-.02.02-.02.01-.03.03-.05.04,0,0-.01,0-.02.01-.01.01-.03.03-.05.04,0,0-.01,0-.02.01-.01.01-.03.02-.04.04,0,0-.01.01-.02.02-.02.01-.03.02-.04.03,0,0-.01,0-.02.01-.02.01-.03.03-.05.04,0,0-.01.01-.02.02-.02.01-.03.03-.05.04,0,0-.01.01-.02.02-.01.01-.03.03-.05.04,0,0-.01,0-.02.01-.01.01-.04.03-.05.04,0,0,0,0-.02.01-.01.01-.04.03-.05.04,0,0,0,0-.01,0-.02.01-.04.03-.05.04,0,0,0,0,0,0-.02.01-.04.03-.06.05,0,0,0,0,0,0-.02.02-.04.03-.06.05,0,0,0,0,0,0-.02.02-.04.03-.06.05h0c-.39.32-.79.64-1.19.94l5.99,7.65c1.52-1.19,3.03-2.43,4.5-3.69l-6.32-7.38h0Zm6.35-5.84c-1.28,1.26-2.59,2.5-3.92,3.71l6.51,7.21c1.43-1.3,2.86-2.64,4.23-4l-6.82-6.91h0Zm5.93-6.27c-.85.97-1.72,1.93-2.61,2.87h0s-.04.04-.06.06c0,0,0,0,0,0-.02.02-.04.04-.06.06h0s-.07.08-.11.12c0,0,0,0,0,0-.02.02-.03.03-.05.05,0,0,0,0-.01.01-.02.02-.03.03-.05.05,0,0,0,0-.01.01-.02.02-.03.03-.05.05,0,0,0,0-.01.01-.02.02-.03.03-.05.05,0,0,0,0-.01.01-.01.01-.02.03-.04.04,0,0-.01.01-.02.02-.01.01-.02.03-.04.04,0,0-.01.01-.02.02-.01.01-.03.03-.04.04,0,0-.01.01-.02.02-.01.01-.03.03-.04.04l-.02.02s-.03.03-.04.04l-.02.02s-.02.02-.03.03c-.01.01-.02.02-.04.04,0,0-.02.02-.02.02l-.04.04s-.01.01-.02.02c-.01.02-.03.03-.04.05,0,0-.01.01-.01.01-.03.03-.05.05-.08.08l7,6.73c1.34-1.39,2.67-2.83,3.94-4.28l-7.29-6.42h0Zm5.48-6.67c-.68.89-1.38,1.78-2.08,2.65t0,0s-.07.09-.11.13c0,0,0,0,0,0-.02.02-.04.04-.05.06,0,0,0,0,0,0-.02.02-.03.04-.05.06,0,0,0,0,0,.01-.01.02-.03.04-.04.05,0,0,0,0-.01.01-.01.02-.03.03-.04.05,0,0-.01.01-.02.02-.01.01-.03.03-.04.05,0,0-.01.01-.02.02,0,.01-.02.03-.03.04,0,.01-.02.02-.03.03,0,0-.01.02-.02.03-.01.01-.02.03-.03.04,0,0-.01.02-.02.02-.01.02-.03.03-.04.05,0,0-.01.01-.01.02-.24.29-.48.58-.71.86l7.46,6.23c1.24-1.48,2.46-3.01,3.63-4.55l-7.72-5.89h0Zm4.99-7.04c-.35.54-.72,1.08-1.08,1.61t0,0s-.03.04-.04.07c0,0,0,0,0,0-.01.02-.03.05-.04.07,0,0,0,0,0,0-.02.02-.03.05-.05.07,0,0,0,0,0,0-.05.07-.09.14-.14.21,0,0,0,0,0,0-.02.02-.03.04-.05.07,0,0,0,0,0,0-.02.02-.03.04-.04.07h0s-.03.05-.05.07c0,0,0,0,0,0-.05.07-.09.14-.14.21h0s-.03.05-.05.07c0,0,0,0,0,0-.02.02-.03.04-.05.07,0,0,0,0,0,0-.06.09-.13.18-.19.27,0,0,0,0,0,0-.02.02-.03.04-.05.07,0,0,0,0,0,0-.02.02-.03.04-.05.07,0,0,0,0,0,0-.02.02-.03.04-.05.07,0,0,0,0,0,0-.03.04-.06.09-.09.13,0,0,0,0,0,0-.01.02-.03.04-.04.06,0,0,0,0,0,.01-.01.02-.03.04-.04.06,0,0,0,.01-.01.02-.01.02-.03.04-.04.05,0,0,0,.01-.01.02-.01.02-.02.04-.04.05v.02s-.03.03-.04.04c0,0-.01.02-.02.03,0,0-.02.03-.03.04,0,.01-.02.02-.02.03,0,.01-.02.03-.03.04,0,0-.01.02-.02.03,0,.01-.02.03-.03.04,0,.01-.02.02-.02.03,0,0,0,.01-.01.02-.01.02-.03.04-.04.06h0c-.14.2-.28.4-.42.59l7.87,5.69c1.13-1.57,2.24-3.18,3.31-4.79l-8.12-5.34h0Zm4.49-7.38s-.01.03-.02.04c0,0,0,.01,0,.02,0,.01-.01.02-.02.04,0,0-.01.02-.01.02,0,.02-.02.03-.03.05,0,.01,0,.02-.02.03,0,.02-.02.03-.03.05,0,0-.01.02-.02.03,0,.02-.02.03-.03.05,0,.01-.01.02-.02.03,0,.01-.02.03-.02.04,0,.01-.01.02-.02.03,0,.01-.01.02-.02.03,0,.01-.02.03-.03.05,0,0-.01.02-.02.03,0,.01-.01.03-.02.04,0,.01-.01.03-.02.04,0,.01-.01.02-.02.03,0,.02-.02.03-.03.05,0,0-.01.02-.02.03,0,.02-.02.03-.03.05,0,.01-.01.02-.02.03l-.02.04s-.02.03-.02.04c0,.01-.01.02-.02.03,0,.01-.02.03-.02.04,0,.01-.01.02-.02.03,0,.01,0,.01-.01.02-.01.02-.02.04-.03.06v.02s-.03.04-.04.06c0,0,0,.01-.01.02-.01.02-.02.04-.04.07,0,0,0,0,0,0-.53.92-1.07,1.83-1.62,2.73,0,0,0,.01,0,.01-.01.02-.02.04-.03.06,0,0-.01.02-.02.03,0,.01-.02.03-.02.04,0,.01-.02.03-.02.04,0,0,0,.01-.01.02-.01.02-.02.04-.03.06,0,0,0,.01,0,.02-.01.02-.03.04-.04.06,0,0,0,0,0,0-.07.12-.15.24-.22.36l8.25,5.12c1.02-1.64,2.02-3.33,2.96-5.02l-8.47-4.75h0Zm3.95-7.67c-.77,1.63-1.57,3.24-2.41,4.83l8.59,4.53c.9-1.71,1.78-3.47,2.6-5.21l-8.79-4.14h0Zm3.4-7.93c-.12.31-.25.63-.37.94,0,0,0,0,0,0,0,.03-.02.05-.03.07,0,0,0,0,0,0,0,.02-.02.05-.03.07h0s-.02.06-.03.08c0,0,0,.01,0,.02,0,.02-.02.04-.02.05,0,0,0,.02-.01.03,0,.01-.01.03-.02.05,0,0,0,.02-.01.03,0,.02-.01.03-.02.05,0,0,0,.02-.01.03,0,.02-.01.03-.02.05,0,.01,0,.02-.01.03,0,.02-.01.03-.02.05,0,.01,0,.02-.01.03,0,.01,0,.02-.01.03,0,.02-.01.04-.02.05,0,0,0,.02-.01.03,0,.02-.02.04-.02.06v.02c-.04.07-.06.14-.09.21,0,0,0,0,0,0-.01.02-.02.05-.03.07,0,0,0,0,0,.01-.01.03-.02.05-.03.08h0c-.11.26-.21.52-.32.78h0c-.04.1-.08.2-.13.3h0s-.02.06-.03.08h0s-.02.06-.03.09h0s-.04.09-.05.13h0s-.02.06-.03.08c0,0,0,.01,0,.01,0,.02-.02.05-.03.07,0,0,0,0,0,.01,0,.02-.02.04-.03.07v.02s-.03.04-.03.06c0,0,0,.01,0,.02,0,.01-.01.03-.02.04,0,0,0,.02-.01.03l-.02.05s0,.02-.01.03c0,.02-.02.04-.02.05,0,0,0,.02-.01.03,0,.02-.01.03-.02.05,0,.01-.01.02-.01.03,0,.01-.01.02-.02.04,0,.02-.01.03-.02.04,0,.01,0,.02-.01.03,0,.01-.02.03-.02.05,0,.01,0,.02-.01.03,0,.01-.01.03-.02.04,0,.01-.01.02-.02.04,0,.01-.01.03-.02.04,0,.01,0,.02-.01.03,0,.02-.01.03-.02.04,0,0,0,.02-.01.02,0,.02-.02.04-.02.06,0,0,0,.02-.01.03,0,.02-.02.03-.02.06,0,0,0,.01,0,.02,0,.02-.02.04-.03.06,0,0,0,.01,0,.02,0,.02-.02.04-.02.05,0,0,0,.01,0,.02,0,.02-.02.04-.02.05,0,0,0,0,0,.01l8.89,3.91c.78-1.77,1.53-3.58,2.22-5.39l-9.06-3.51h0Zm2.83-8.16s-.03.08-.04.13h0s-.01.05-.02.08c0,0,0,.01,0,.02,0,.01,0,.02-.01.04,0,.01-.01.04-.02.05,0,0,0,.02,0,.03,0,.01-.01.04-.02.05,0,0,0,.02,0,.02,0,.02-.01.04-.02.06,0,0,0,.01,0,.02,0,.02-.01.05-.02.07,0,0,0,0,0,.01,0,.02-.02.05-.02.07,0,0,0,0,0,.01,0,.03-.02.05-.02.07,0,0,0,0,0,0-.46,1.48-.96,2.94-1.47,4.39l9.15,3.27c.65-1.82,1.27-3.68,1.84-5.53l-9.28-2.86h0Zm2.24-8.34c-.22.95-.45,1.89-.69,2.83h0s-.01.06-.02.09c0,0,0,0,0,.01-.01.04-.02.09-.03.13,0,.01,0,.02,0,.03,0,.02,0,.04-.01.05,0,.01,0,.02,0,.03,0,.02,0,.03-.01.05,0,.01,0,.03-.01.04,0,0,0,.02,0,.03,0,.02,0,.04-.01.06,0,0,0,.02,0,.03,0,.02-.01.04-.02.06,0,0,0,.01,0,.02,0,.02-.01.04-.02.07,0,0,0,0,0,0,0,.02-.01.05-.02.07,0,0,0,0,0,0,0,.02-.01.05-.02.08,0,0,0,0,0,0,0,.03-.01.05-.02.08,0,0,0,0,0,0-.13.49-.26.97-.4,1.46l9.36,2.61c.52-1.86,1-3.76,1.44-5.65l-9.46-2.19h0Zm1.65-8.47c-.08.49-.16.97-.24,1.46,0,0,0,0,0,0,0,.01,0,.02,0,.03,0,0,0,0,0,.01,0,0,0,.02,0,.03,0,0,0,0,0,.01,0,.01,0,.02,0,.03,0,0,0,.01,0,.02,0,0,0,.02,0,.03,0,0,0,.02,0,.03,0,0,0,.02,0,.02,0,.01,0,.03,0,.04,0,0,0,0,0,.01,0,.01,0,.02,0,.03,0,0,0,0,0,.01,0,.01,0,.02,0,.04,0,0,0,0,0,.01,0,.01,0,.02,0,.04h0s0,.04,0,.05h0s0,.03,0,.05h0c-.01.08-.03.16-.04.24h0s0,.03,0,.05h0c-.01.08-.03.16-.04.24h0s0,.03,0,.05h0s0,.03,0,.05h0s0,.03,0,.05h0c-.01.07-.02.13-.03.19,0,0,0,.01,0,.02,0,0,0,.02,0,.03,0,0,0,0,0,.02,0,0,0,.02,0,.03,0,0,0,0,0,.02,0,0,0,.02,0,.03,0,0,0,.01,0,.02,0,0,0,.02,0,.02,0,0,0,.02,0,.02,0,0,0,.01,0,.02,0,.05-.02.1-.03.15h0s0,.03,0,.04c0,0,0,0,0,0,0,.02,0,.02,0,.04,0,0,0,0,0,0-.13.69-.26,1.38-.4,2.06l9.52,1.94c.39-1.89.73-3.82,1.04-5.73l-9.59-1.52h0Zm1.05-8.57c-.16,1.8-.35,3.59-.58,5.36l9.63,1.26c.25-1.91.46-3.86.63-5.79l-9.68-.84h0Zm.44-8.62c0,.26,0,.53-.02.79h0s0,.07,0,.1h0s0,.03,0,.05c0,0,0,.01,0,.02,0,0,0,.02,0,.03,0,0,0,.01,0,.02,0,0,0,.01,0,.02,0,0,0,.02,0,.03,0,0,0,0,0,.01,0,.01,0,.02,0,.03,0,0,0,0,0,0-.04,1.44-.1,2.87-.18,4.29l9.7.58c.12-1.92.19-3.88.22-5.81l-9.71-.16h0Zm9.54-9.15l-9.7.51c.04.79.08,1.58.1,2.37h0s0,.03,0,.04h0s0,.03,0,.05c0,0,0,0,0,.01,0,.01,0,.02,0,.04,0,0,0,0,0,0,0,.02,0,.03,0,.05,0,0,0,.01,0,.01,0,.01,0,.02,0,.03,0,0,0,.02,0,.03,0,0,0,.01,0,.02,0,0,0,.02,0,.02,0,0,0,.02,0,.02,0,0,0,.02,0,.02,0,0,0,.01,0,.02,0,.01,0,.02,0,.03,0,0,0,0,0,.01,0,.05,0,.11,0,.16,0,0,0,0,0,0,0,.01,0,.03,0,.04h0s0,.03,0,.04c0,0,0,0,0,0,0,.08,0,.17,0,.25h0s0,.03,0,.04h0c0,.07,0,.14,0,.21h0s0,.03,0,.04h0s0,.03,0,.04h0s0,.03,0,.04h0s0,.08,0,.12h0s0,.02,0,.04c0,0,0,.01,0,.02,0,0,0,.02,0,.03,0,0,0,.01,0,.02,0,0,0,.01,0,.02s0,.02,0,.02c0,0,0,.01,0,.02,0,.01,0,.02,0,.03,0,0,0,.01,0,.01,0,.03,0,.06,0,.09h0s0,.03,0,.05h0s0,.03,0,.05h0c0,.41.01.81.02,1.21l9.71-.09c-.02-1.93-.08-3.89-.18-5.81h0Zm-.82-9.28l-9.64,1.19c.06.48.11.95.17,1.43h0s0,.03,0,.04c0,0,0,0,0,.02v.03s0,.01,0,.02c0,0,0,.02,0,.02s0,.01,0,.02c0,0,0,.01,0,.02.08.69.15,1.39.21,2.08h0s0,.03,0,.04c0,0,0,0,0,0,0,.01,0,.02,0,.04,0,0,0,0,0,0,0,.01,0,.02,0,.03,0,0,0,0,0,.01,0,0,0,.02,0,.03,0,0,0,.01,0,.02,0,.01,0,.02,0,.03v.04s0,0,0,.01c0,.01,0,.02,0,.04,0,0,0,0,0,.01,0,.01,0,.03,0,.04h0s0,.03,0,.05h0c.04.43.07.86.11,1.28l9.68-.77c-.15-1.93-.35-3.88-.59-5.79h0Zm-1.47-9.2l-9.53,1.87c.26,1.35.51,2.71.73,4.08h0s0,.03,0,.05h0s0,.03,0,.05h0s0,.03,0,.05t0,0s0,.03,0,.04h0s0,.03,0,.05c0,0,0,.01,0,.02,0,0,0,.02,0,.03,0,0,0,.02,0,.02,0,0,0,.01,0,.02,0,0,0,.02,0,.03,0,0,0,.01,0,.02,0,0,0,.02,0,.03,0,0,0,.01,0,.02,0,.01,0,.02,0,.03h0c.04.27.08.54.12.8l9.61-1.44c-.29-1.91-.62-3.84-.99-5.74h0Zm-2.12-9.08l-9.38,2.54c.06.23.12.46.18.69,0,0,0,0,0,0,0,.01,0,.02,0,.03h0s0,.03,0,.04c0,0,0,.01,0,.02,0,0,0,.01,0,.02,0,0,0,.02,0,.02,0,0,0,0,0,.02,0,.01,0,.02,0,.03h0c.25.97.49,1.93.72,2.9h0s0,.03,0,.05h0s0,.03,0,.04c0,0,0,0,0,0,0,.03.01.05.02.08,0,.02,0,.03.01.04,0,0,0,0,0,0,.1.41.19.82.28,1.24l9.48-2.12c-.42-1.89-.89-3.79-1.4-5.66h0Zm-2.75-8.91l-9.17,3.2c.14.41.28.82.42,1.23,0,0,0,0,0,.01,0,.02.02.05.02.07v.02s.02.04.03.06c0,0,0,.02,0,.03,0,.01,0,.02.01.04,0,.01.01.03.02.05,0,.01,0,.02.01.03,0,.01,0,.03.01.04,0,.01,0,.03.01.04,0,.01,0,.03.01.04,0,.01,0,.02.01.04,0,.02,0,.03.02.05,0,0,0,.01,0,.02,0,.02.01.04.02.06,0,0,0,.01,0,.02,0,.02.01.04.02.06,0,0,0,.01,0,.02,0,.02.01.04.02.07,0,0,0,0,0,.01,0,.02.01.04.02.07,0,0,0,0,0,0,0,.02.02.05.02.07,0,0,0,0,0,0,0,.03.01.05.02.07,0,0,0,0,0,.01,0,.02.02.05.02.07,0,0,0,0,0,0,.03.08.05.16.08.24,0,0,0,0,0,0,.17.53.34,1.07.51,1.6,0,0,0,0,0,0,0,.02.02.05.02.07,0,0,0,0,0,0,0,.02.02.05.02.07,0,0,0,0,0,0,0,.02.01.05.02.07,0,0,0,0,0,0,0,.02.01.04.02.07,0,0,0,.01,0,.02,0,.02.01.04.02.06,0,0,0,.02,0,.02,0,.02.01.04.02.06,0,0,0,.02,0,.03,0,.01,0,.03.01.05,0,.01,0,.03.01.04,0,0,0,.02,0,.03,0,.02.01.04.02.06,0,0,0,.02,0,.02.03.09.05.18.08.27l9.31-2.79c-.56-1.85-1.16-3.72-1.8-5.54h0Zm-3.38-8.69l-8.92,3.84c.08.19.16.38.24.57,0,0,0,0,0,.01,0,.02.02.04.03.06,0,0,0,.02.01.03,0,.01.01.02.02.04,0,.01.01.03.02.05,0,0,0,.02.01.03,0,.02.02.04.02.06,0,0,0,.01,0,.02,0,.02.02.04.03.06,0,0,0,0,0,.01,0,.02.02.05.03.07,0,0,0,0,0,0,.01.03.02.05.03.08,0,0,0,0,0,0,.01.03.02.05.03.08,0,0,0,0,0,0,.01.03.02.05.03.08h0c.52,1.25,1.02,2.5,1.5,3.76l9.08-3.44c-.69-1.81-1.42-3.63-2.18-5.4h0Zm-3.99-8.43l-8.63,4.46c.15.3.31.6.46.9h0s.02.05.04.08h0c.04.07.08.15.11.23h0s.02.05.04.07c0,0,0,0,0,0,.01.02.02.05.04.07,0,0,0,0,0,0,.01.02.02.05.04.07,0,0,0,0,0,0,.04.08.07.15.11.22,0,0,0,0,0,0,.01.02.02.05.04.07,0,0,0,0,0,0,.01.02.02.05.03.07,0,0,0,0,0,0,.01.02.02.05.03.07,0,0,0,0,0,0,.02.05.05.1.07.14,0,0,0,0,0,0,.01.02.02.04.03.07,0,0,0,0,0,.01.01.02.02.04.03.06,0,0,0,0,0,.01.01.02.02.04.03.06,0,0,0,0,0,.01.01.02.02.04.03.06,0,0,0,0,0,0,.01.02.02.04.03.06,0,0,0,0,0,0,.01.02.02.04.03.06,0,0,0,.01,0,.02.01.02.02.04.03.06,0,0,0,.01,0,.02,0,.02.02.04.03.06,0,0,0,.01,0,.02.01.02.02.04.03.06,0,0,0,0,0,.01,0,.02.02.04.03.06,0,0,0,0,0,.01.01.02.02.04.03.06v.02s.03.04.04.06h0s.02.06.03.08c0,0,0,.01,0,.02.01.02.02.04.03.06,0,0,0,0,0,.01.01.02.02.05.03.07,0,0,0,0,0,0,0,.02.02.04.03.06,0,0,0,0,0,0,0,.02.02.04.03.06,0,0,0,.01,0,.02,0,.02.02.04.03.06,0,0,0,0,0,.01,0,.02.02.04.03.06,0,0,0,.01,0,.02,0,.02.02.04.03.06,0,0,0,0,0,.01.01.02.02.04.03.06h0s.02.06.03.08c0,0,0,0,0,.01.01.02.02.04.03.07,0,0,0,0,0,.01,0,.02.02.04.03.07,0,0,0,0,0,.01.01.02.02.04.03.07,0,0,0,0,0,0,.02.05.05.1.07.15h0s.02.05.04.08c0,0,0,0,0,0,.01.02.02.05.03.07,0,0,0,0,0,0,.1.2.19.41.28.61l8.82-4.08c-.81-1.75-1.67-3.52-2.56-5.23h0Zm-4.57-8.12l-8.29,5.06c.17.27.33.55.5.82h0s.03.05.04.08h0s.03.05.04.08h0c.04.07.08.13.12.2,0,0,0,.01,0,.01.01.02.02.04.04.06,0,0,0,.01.01.02.01.02.02.04.03.05,0,.01,0,.02.02.03,0,.01.02.03.02.04,0,.01.02.03.02.04,0,0,.01.02.02.03,0,.01.02.03.03.05,0,0,.01.02.02.03,0,.02.02.03.03.05,0,0,0,.02.01.03,0,.01.02.03.03.04,0,0,.01.02.02.03,0,.01.02.03.03.04v.02s.03.03.04.05c0,0,0,.01.01.02,0,.02.02.04.03.06,0,0,0,.01,0,.02.01.02.02.04.04.06h0s.02.06.04.08c0,0,0,0,0,0,.03.05.05.09.08.14,0,0,0,0,0,0,.01.02.03.05.04.07,0,0,0,0,0,0,.01.02.03.05.04.07,0,0,0,0,0,0,.45.78.89,1.56,1.33,2.35l8.51-4.69c-.93-1.69-1.92-3.39-2.92-5.04h0Zm-5.13-7.78l-7.92,5.63c.23.32.45.64.68.96,0,0,0,0,0,0,.02.02.03.05.05.07,0,0,0,0,0,0,.02.02.03.05.05.07,0,0,0,0,0,0,.03.04.06.09.09.13h0s.03.05.04.07c0,0,0,0,0,.01.01.02.03.04.04.06h0s.02.05.04.07c0,0,0,0,0,.01.01.02.03.04.04.06,0,0,0,0,0,0,.01.02.02.04.04.05,0,0,0,0,0,.01.01.02.03.04.04.06,0,0,0,.01.01.02.01.02.03.04.04.05,0,0,0,.01.01.02.01.02.02.04.04.05,0,0,0,.01.01.02.01.02.03.04.04.06,0,0,0,.01.01.02.01.02.02.04.04.05,0,0,0,0,0,.01.01.02.02.03.03.05h.01s.02.05.04.07c0,0,0,.01.01.02.01.02.03.04.04.06,0,0,0,.01.01.02.01.02.02.04.04.06,0,0,0,.01.01.02.01.02.03.04.04.06,0,0,0,0,0,.01.01.02.03.04.04.06h0s.03.05.04.07c0,0,0,0,0,0,.01.02.03.04.04.06,0,0,0,0,0,.01.02.02.03.04.04.06,0,0,0,0,0,0,.01.02.03.04.04.06,0,0,0,0,0,.01.01.02.03.04.04.06,0,0,0,0,0,0,.02.02.03.04.04.07h0s.03.05.05.07c0,0,0,0,0,0,.02.03.03.04.05.07,0,0,0,0,0,0,.02.02.03.04.05.07,0,0,0,0,0,0,.02.02.03.05.05.07,0,0,0,0,0,0,.31.47.62.94.93,1.41l8.16-5.28c-1.05-1.62-2.15-3.24-3.27-4.82h0Zm-5.66-7.4l-7.5,6.17c.71.87,1.42,1.75,2.11,2.63,0,0,0,0,0,0,.02.02.03.04.05.06,0,0,0,0,0,0,.01.02.03.04.05.06,0,0,0,0,0,0,.01.02.03.03.04.05,0,0,0,.01.01.02.01.02.02.03.03.04,0,0,.02.02.02.03,0,.01.02.02.03.04,0,0,.01.02.02.03,0,.01.02.03.03.04,0,.01.02.02.03.03h0c.3.4.6.79.9,1.19l7.76-5.84c-1.16-1.54-2.37-3.08-3.6-4.58h0Zm-6.17-6.98l-7.05,6.68c.7.74,1.4,1.49,2.08,2.25h0s.04.04.06.06c0,0,0,0,0,.01.02.02.03.04.05.05,0,0,.01.01.02.02.01.01.02.03.04.04.01.01.01.02.02.03l.02.03s.02.03.04.04c0,0,.01.01.02.02.01.01.03.03.04.04,0,0,.01.01.02.02.01.01.03.03.04.05,0,0,0,0,.01.01.01.01.03.03.04.05,0,0,0,0,0,0,.02.02.03.04.05.06,0,0,0,0,0,0,.02.02.03.04.05.06,0,0,0,0,0,0,.02.02.04.04.05.06,0,0,0,0,0,0,.32.36.63.72.95,1.08l7.34-6.37c-1.27-1.46-2.58-2.91-3.91-4.31h0Zm-6.64-6.53l-6.57,7.16c.29.26.58.53.86.8,0,0,0,0,0,0,.02.02.04.04.06.05,0,0,0,0,0,0,.02.02.04.03.05.05h.01s.03.04.05.06c0,0,0,0,.01.01.02.02.03.03.05.05,0,0,0,0,.01.01.02.02.03.03.05.04,0,0,0,0,.01.01.01.01.03.03.04.04l.02.02s.03.03.04.04l.02.02s.03.03.04.04c0,0,.01.01.02.02.01.01.03.03.04.04,0,0,.02.01.02.02.01.01.02.02.04.04,0,0,.02.02.03.03,0,0,.02.01.02.02.01.01.03.03.04.04,0,0,.02.01.02.02.01.01.03.03.04.04,0,0,.01.01.02.02.01.01.03.03.04.04,0,0,.01.01.02.02.01,0,.02.02.03.03,0,0,0,0,.01.01.02.02.03.03.05.05,0,0,0,0,0,0,.02.02.04.04.06.05h0s.04.04.06.06h0c.61.58,1.21,1.17,1.8,1.76,0,0,0,0,0,0,.02.02.04.04.05.05h.01s.03.04.05.06c0,0,0,0,.02.02,0,0,.01.01.02.02l6.87-6.86c-1.37-1.37-2.78-2.72-4.2-4.03h0Zm-7.08-6.05l-6.05,7.6h.01s.03.03.04.04c0,0,.02.01.02.02.01,0,.03.02.04.03,0,0,.01.01.02.02.02.01.03.03.05.04,0,0,0,0,.01.01.02.01.04.03.05.04,0,0,0,0,.01.01.02.01.04.03.05.04,0,0,0,0,.01,0,.02.02.04.03.06.05,0,0,0,0,0,0,.02.01.04.03.06.05,0,0,0,0,0,0,.06.05.13.11.2.16,0,0,0,0,0,0,.41.33.83.67,1.24,1.01,0,0,0,0,0,0,.02.02.04.04.06.05h0c.06.06.13.11.19.16,0,0,0,0,0,0,.02.02.04.03.06.05,0,0,0,0,0,0,.02.01.04.03.06.05,0,0,0,0,0,0,.02.01.04.03.05.05,0,0,0,0,.01.01.02.01.04.03.05.05,0,0,0,0,0,0,.02.01.03.03.05.04,0,0,0,0,.01.01l.05.04s0,0,.01.01c.01.01.03.03.05.04,0,0,.01.01.02.02.01.01.03.03.05.04,0,0,.01.01.02.02.01.01.03.03.04.04,0,0,.01.01.02.02.01.01.03.02.04.03,0,0,.02.02.03.02.01,0,.02.02.03.03.01.01.03.02.04.03,0,0,.02.01.03.02.01.01.03.02.04.04,0,0,.01.01.02.02.02.02.04.03.06.05,0,0,0,0,.01,0,.01,0,.02.02.03.03h0s.05.04.07.06h0s.04.04.07.06h0c.31.27.62.53.93.8l6.38-7.33c-1.46-1.27-2.96-2.52-4.47-3.72h0Zm-7.49-5.54l-5.5,8.01s.02.01.03.02c0,0,.02.01.03.02l.03.02s.03.02.04.03c0,0,.02.01.02.02.01,0,.03.02.04.03,0,0,.02.01.02.02.02.01.03.02.04.03,0,0,.01,0,.02.01.02.01.04.02.05.04,0,0,0,0,.01,0,.02.01.04.03.06.04,0,0,0,0,0,0,.02.01.04.03.06.04,0,0,0,0,0,0,.02.02.04.03.06.04,0,0,0,0,0,0,1.29.9,2.57,1.82,3.82,2.77l5.85-7.76c-1.54-1.16-3.13-2.31-4.73-3.4h0Zm-7.86-5l-4.92,8.37c.68.4,1.35.81,2.02,1.22,0,0,0,0,0,0,.02.01.05.03.07.04,0,0,0,0,0,0,.02.01.05.03.07.04,0,0,0,0,0,0,.02.01.05.03.07.04,0,0,0,0,0,0,.02.01.05.03.07.04,0,0,0,0,0,0,.02.01.04.03.06.04,0,0,0,0,.01,0,.02.01.04.02.06.04,0,0,0,0,.02,0,.02.01.04.02.06.04,0,0,.01,0,.02.01.02.01.04.02.05.03,0,0,.01,0,.02.01.02.01.03.02.05.03,0,0,.02,0,.02.01.01,0,.03.02.04.03,0,0,.02.01.02.02.02.01.03.02.05.03,0,0,.02,0,.02.01.02.01.03.02.05.03,0,0,.02.01.03.02.01,0,.03.02.05.03,0,0,.02.01.03.02.02.01.03.02.04.03.01,0,.02.01.03.02,0,0,.02.02.03.02.01,0,.03.02.04.03,0,0,.02.01.03.02.01,0,.03.02.04.03,0,0,.02.01.03.02s.02.01.03.02c.01,0,.03.02.04.03.01,0,.02.01.03.02.01,0,.03.02.04.03,0,0,.02.01.03.02,0,0,.02.01.03.02.02,0,.03.02.05.03,0,0,.02.01.02.02.02.01.03.02.05.03,0,0,.02.01.02.02.02.01.03.02.05.03,0,0,.02.01.03.02.01,0,.02.01.03.02.01,0,.03.02.04.03.01,0,.02.01.03.02,0,0,.02.01.03.02.01,0,.03.02.04.03,0,0,.02.01.03.02l.05.03s.02.01.02.02c.02.01.03.02.05.03,0,0,.02.01.03.02l.04.03s.02.01.03.02c.01,0,.02.01.03.02.01,0,.03.02.04.03.01,0,.02.01.03.02.01,0,.02.02.04.02.01,0,.02.02.04.02,0,0,.02.01.03.02.02,0,.03.02.05.03,0,0,.02.01.03.02.01,0,.03.02.04.03,0,0,.02.01.03.02.01,0,.03.02.04.03.01,0,.02.01.04.02.01,0,.02.01.03.02.01,0,.03.02.04.03,0,0,0,0,.01,0l5.29-8.15c-1.62-1.05-3.29-2.08-4.95-3.06h0Zm-8.2-4.44l-4.32,8.7h.02s.02.02.04.03l.04.02s.02.01.04.02c.01,0,.02.01.03.02.01,0,.03.02.05.02.01,0,.02.01.03.02,0,0,.02.01.03.01.02,0,.03.02.05.03.01,0,.01,0,.02.01.02,0,.04.02.05.03h.02s.04.03.06.04c0,0,.01,0,.02.01.02.01.04.02.06.03,0,0,.01,0,.02,0,.04.02.08.04.12.06h.02s.04.03.06.04c0,0,.01,0,.02,0,.02.01.04.02.06.03,0,0,.01,0,.02,0,.02.01.04.02.06.03,0,0,.01,0,.02,0,.02,0,.04.02.06.03,0,0,.02,0,.02.01.01,0,.02.01.04.02,0,0,.01,0,.02,0l.06.03h.02s.04.03.06.04c0,0,.02,0,.02.01.02,0,.03.02.05.03.01,0,.02,0,.03.01.01,0,.03.01.04.02.01,0,.02.01.04.02.01,0,.02.01.03.02.01,0,.03.02.05.02.01,0,.02.01.03.02.01,0,.03.01.04.02.01,0,.02.01.03.02.01,0,.03.01.04.02.01,0,.02.01.04.02.01,0,.03.01.04.02.01,0,.02.01.03.02.01,0,.03.02.05.02,0,0,.02,0,.03.01.02,0,.04.02.05.03,0,0,.02,0,.02.01.02,0,.04.02.05.03,0,0,.01,0,.02.01.02,0,.04.02.06.03,0,0,0,0,.01,0,.02,0,.04.02.06.03,0,0,.01,0,.02,0,.02,0,.04.02.06.03h.01s.04.03.06.04c0,0,.01,0,.02,0,.02.01.04.02.06.03,0,0,0,0,.01,0,.02.01.04.02.06.03,0,0,0,0,0,0,.02.01.05.02.07.04h0c.77.41,1.54.82,2.3,1.24l4.7-8.5c-1.69-.94-3.43-1.85-5.16-2.71h0Zm-8.49-3.85l-3.69,8.98c.78.32,1.56.65,2.33.99,0,0,0,0,0,0,.02.01.05.02.07.03,0,0,0,0,0,0,.02,0,.05.02.07.03h0s.05.02.07.03c0,0,0,0,0,0,.02.01.04.02.07.03,0,0,0,0,0,0,.02,0,.04.02.07.03,0,0,0,0,.01,0,.02,0,.04.02.06.03,0,0,.01,0,.02,0,.02,0,.04.02.06.03,0,0,.01,0,.02,0,.02,0,.04.02.06.03h.02s.03.02.05.03c.01,0,.02,0,.03.01.01,0,.02.01.04.02.01,0,.03.01.04.02.01,0,.02.01.04.02.01,0,.02,0,.03.01.01,0,.03.01.05.02.01,0,.02.01.04.02,0,0,.02,0,.03.01l.06.02s.01,0,.02,0l.06.03s0,0,.01,0c.02.01.05.02.07.03,0,0,0,0,.01,0,.47.21.94.42,1.41.64l4.09-8.81c-1.75-.81-3.55-1.6-5.34-2.33h0Zm-8.74-3.24l-3.05,9.22c.29.1.58.19.88.29,0,0,0,0,0,0,.02,0,.05.02.07.02,0,0,.01,0,.02,0,.02,0,.04.01.06.02,0,0,.02,0,.02,0,.02,0,.04.01.06.02.01,0,.02,0,.03.01.01,0,.02,0,.04.01l.05.02s.02,0,.03.01c.02,0,.04.01.06.02,0,0,.01,0,.02,0,.04.01.09.03.13.04h0s.06.02.08.03h0c.69.24,1.38.49,2.07.74h0s.05.02.08.03c0,0,0,0,0,0,.01,0,.03.01.04.02,0,0,0,0,0,0,.02,0,.05.02.07.03.01,0,.02,0,.03.01.02,0,.03.01.05.02.01,0,.02,0,.03.01h.04s.03.02.05.03c0,0,.02,0,.02,0,.02,0,.04.01.06.02,0,0,.01,0,.02,0,.02,0,.04.02.06.02,0,0,0,0,.01,0,.02,0,.05.02.07.03,0,0,0,0,0,0,.26.1.53.2.78.3l3.45-9.08c-1.81-.69-3.66-1.34-5.49-1.95h0Zm-8.95-2.61l-2.38,9.42c.54.14,1.09.28,1.63.42h.01s.05.02.07.02c0,0,0,0,.01,0,.02,0,.05.01.07.02,0,0,.01,0,.02,0,.02,0,.04.01.07.02,0,0,0,0,.01,0,.02,0,.04.01.06.02,0,0,.01,0,.02,0,.02,0,.04.01.06.02,0,0,.02,0,.02,0,.02,0,.04,0,.06.02,0,0,.02,0,.03,0,.02,0,.03,0,.05.01.01,0,.02,0,.03,0,.02,0,.02,0,.04.01.02,0,.03,0,.04.01.01,0,.03,0,.04.01.01,0,.02,0,.04,0,.02,0,.03,0,.05.01.01,0,.02,0,.04.01.01,0,.02,0,.04.01.02,0,.03,0,.05.01.01,0,.01,0,.03,0,.02,0,.04.01.06.02,0,0,.02,0,.03,0,.02,0,.04.01.06.02.01,0,.01,0,.02,0,.02,0,.04.01.05.02.01,0,.02,0,.03,0,.01,0,.03,0,.04.01,0,0,.01,0,.02,0l.07.02s.01,0,.02,0c.02,0,.05.01.07.02,0,0,0,0,.02,0,.02,0,.05.01.07.02,0,0,.01,0,.02,0,.01,0,.03,0,.04.01,0,0,0,0,0,0,.03,0,.05.01.08.02,0,0,.01,0,.02,0,.02,0,.04.01.07.02,0,0,.02,0,.02,0,.02,0,.04.01.06.02,0,0,.01,0,.02,0,.02,0,.05.01.07.02,0,0,.02,0,.02,0,.01,0,.03,0,.04.01,0,0,.01,0,.02,0,.02,0,.05.01.07.02,0,0,.02,0,.02,0l.06.02s.02,0,.03,0c.02,0,.04.01.05.02.01,0,.02,0,.03,0,.01,0,.02,0,.04.01.02,0,.03,0,.05.01.01,0,.02,0,.04.01.02,0,.02,0,.04.01.01,0,.03,0,.04.01.01,0,.03,0,.04.01h.04s.03.02.04.02c.01,0,.02,0,.03,0,.02,0,.03.01.05.02,0,0,.02,0,.03,0,.02,0,.04.01.06.02,0,0,.02,0,.03,0,.02,0,.04.01.06.02,0,0,.01,0,.02,0,.02,0,.04.01.06.02,0,0,.01,0,.02,0,.02,0,.04.01.07.02,0,0,.01,0,.02,0,.02,0,.04.01.07.02,0,0,0,0,.01,0,.02,0,.05.01.07.02,0,0,0,0,0,0,.14.04.26.08.4.12l2.8-9.3c-1.85-.56-3.74-1.08-5.62-1.55h0Zm-9.11-1.97l-1.71,9.56c.93.17,1.86.34,2.78.53h0s.03,0,.04,0c0,0,0,0,.01,0,.01,0,.02,0,.03,0,0,0,0,0,.02,0,0,0,.02,0,.03,0,0,0,.01,0,.02,0,0,0,.01,0,.02,0,0,0,.02,0,.02,0,0,0,.01,0,.02,0,0,0,.02,0,.02,0,0,0,.01,0,.02,0,.05.01.1.02.15.03,0,0,0,0,0,0,.01,0,.02,0,.04,0,0,0,0,0,0,0,.01,0,.02,0,.04,0,0,0,0,0,0,0,.01,0,.03,0,.04,0h0c.66.14,1.32.28,1.97.43l2.13-9.48c-1.89-.42-3.81-.81-5.71-1.15h0Zm-9.22-1.32l-1.03,9.66c1.8.19,3.58.42,5.35.69l1.46-9.6c-1.91-.29-3.85-.54-5.77-.75h0Zm-9.29-.67l-.36,9.71c.11,0,.23,0,.34.01h0s.08,0,.12,0c0,0,0,0,0,0,0,0,.02,0,.02,0,0,0,.02,0,.03,0,0,0,.01,0,.02,0,.01,0,.02,0,.03,0,0,0,0,0,.01,0,.01,0,.02,0,.04,0h0c.8.03,1.6.07,2.39.12h0s.03,0,.05,0h0s.03,0,.05,0h0s.1,0,.14,0h0s.03,0,.04,0h.01s.03,0,.04,0h0s.03,0,.04,0h0s.1,0,.15,0h0s.03,0,.05,0h0s.03,0,.04,0h0s.03,0,.04,0h0c.56.04,1.13.08,1.69.12l.78-9.68c-1.92-.15-3.88-.27-5.81-.34h0Zm-4.92-.09v9.71h.16s.01,0,.02,0h.08s.04,0,.06,0h.02s.04,0,.06,0h.02s.04,0,.05,0h.03s.03,0,.04,0c.01,0,.02,0,.03,0,.02,0,.04,0,.06,0,.01,0,.02,0,.03,0h.04s.04,0,.05,0c.01,0,.02,0,.03,0,.02,0,.04,0,.06,0,0,0,.02,0,.03,0,.01,0,.03,0,.04,0,0,0,.01,0,.02,0,.03,0,.05,0,.08,0,0,0,.01,0,.01,0,.05,0,.09,0,.14,0h.01s.06,0,.08,0h.01s.02,0,.03,0l.1-9.71c-.48,0-.95,0-1.43,0h0Z" style="fill: #41c2d9; stroke-width: 0px;"/>
        <circle cx="132.21" cy="132.21" r="122.5" style="fill: none; stroke: #fff; stroke-miterlimit: 10; stroke-width: 15.11px;"/>
        <circle cx="132.21" cy="132.21" r="122.5" style="fill: #41c2d9; opacity: .39; stroke-width: 0px;"/>
      </g>
      <g>
        <rect x="87.29" y="79.73" width="41.51" height="14.56" style="fill: #e5955a; stroke-width: 0px;"/>
        <rect x="82.51" y="91.05" width="51.06" height="130.63" style="fill: #eec1ae; stroke-width: 0px;"/>
        <g>
          <rect x="96.33" y="100.76" width="22.96" height="10.12" style="fill: #8dd9f9; stroke-width: 0px;"/>
          <rect x="96.33" y="113.55" width="22.96" height="10.12" style="fill: #8dd9f9; stroke-width: 0px;"/>
          <rect x="96.33" y="126.33" width="22.96" height="10.12" style="fill: #8dd9f9; stroke-width: 0px;"/>
          <rect x="96.33" y="139.12" width="22.96" height="10.12" style="fill: #86bbff; stroke-width: 0px;"/>
          <rect x="96.33" y="151.9" width="22.96" height="10.12" style="fill: #8dd9f9; stroke-width: 0px;"/>
          <rect x="96.33" y="164.69" width="22.96" height="10.12" style="fill: #8dd9f9; stroke-width: 0px;"/>
          <rect x="96.33" y="177.47" width="22.96" height="10.12" style="fill: #8dd9f9; stroke-width: 0px;"/>
          <rect x="96.33" y="190.26" width="22.96" height="10.12" style="fill: #8dd9f9; stroke-width: 0px;"/>
          <rect x="96.33" y="203.04" width="22.96" height="10.12" style="fill: #8dd9f9; stroke-width: 0px;"/>
        </g>
        <g>
          <rect x="87.23" y="100.76" width="7.09" height="10.12" style="fill: #8dd9f9; stroke-width: 0px;"/>
          <rect x="87.23" y="113.55" width="7.09" height="10.12" style="fill: #86bbff; stroke-width: 0px;"/>
          <rect x="87.23" y="126.33" width="7.09" height="10.12" style="fill: #8dd9f9; stroke-width: 0px;"/>
          <rect x="87.23" y="139.12" width="7.09" height="10.12" style="fill: #8dd9f9; stroke-width: 0px;"/>
          <rect x="87.23" y="151.9" width="7.09" height="10.12" style="fill: #8dd9f9; stroke-width: 0px;"/>
          <rect x="87.23" y="164.69" width="7.09" height="10.12" style="fill: #8dd9f9; stroke-width: 0px;"/>
          <rect x="87.23" y="177.47" width="7.09" height="10.12" style="fill: #8dd9f9; stroke-width: 0px;"/>
          <rect x="87.23" y="190.26" width="7.09" height="10.12" style="fill: #86bbff; stroke-width: 0px;"/>
          <rect x="87.23" y="203.04" width="7.09" height="10.12" style="fill: #8dd9f9; stroke-width: 0px;"/>
        </g>
        <rect x="121.71" y="100.76" width="7.09" height="10.12" style="fill: #8dd9f9; stroke-width: 0px;"/>
        <rect x="121.71" y="113.55" width="7.09" height="10.12" style="fill: #8dd9f9; stroke-width: 0px;"/>
        <rect x="121.71" y="126.33" width="7.09" height="10.12" style="fill: #8dd9f9; stroke-width: 0px;"/>
        <rect x="121.71" y="139.12" width="7.09" height="10.12" style="fill: #8dd9f9; stroke-width: 0px;"/>
        <rect x="121.71" y="151.9" width="7.09" height="10.12" style="fill: #8dd9f9; stroke-width: 0px;"/>
        <rect x="121.71" y="164.69" width="7.09" height="10.12" style="fill: #8dd9f9; stroke-width: 0px;"/>
        <rect x="121.71" y="177.47" width="7.09" height="10.12" style="fill: #86bbff; stroke-width: 0px;"/>
        <rect x="121.71" y="190.26" width="7.09" height="10.12" style="fill: #8dd9f9; stroke-width: 0px;"/>
        <rect x="121.71" y="203.04" width="7.09" height="10.12" style="fill: #8dd9f9; stroke-width: 0px;"/>
      </g>
      <g>
        <polygon points="172.23 52.57 136.41 41.49 136.41 60.3 172.23 60.3 172.23 52.57" style="fill: #e5955a; stroke-width: 0px;"/>
        <rect x="129.43" y="55.29" width="50.69" height="166.39" style="fill: #febd83; stroke-width: 0px;"/>
        <rect x="132.74" y="60.25" width="6.61" height="14.88" style="fill: #ededed; stroke-width: 0px;"/>
        <rect x="142.11" y="60.25" width="6.61" height="14.88" style="fill: #fff; stroke-width: 0px;"/>
        <rect x="151.47" y="60.25" width="6.61" height="14.88" style="fill: #ededed; stroke-width: 0px;"/>
        <rect x="160.84" y="60.25" width="6.61" height="14.88" style="fill: #ededed; stroke-width: 0px;"/>
        <rect x="170.2" y="60.25" width="6.61" height="14.88" style="fill: #fff; stroke-width: 0px;"/>
        <rect x="132.74" y="77.52" width="6.61" height="14.88" style="fill: #ededed; stroke-width: 0px;"/>
        <rect x="142.11" y="77.52" width="6.61" height="14.88" style="fill: #ededed; stroke-width: 0px;"/>
        <rect x="151.47" y="77.52" width="6.61" height="14.88" style="fill: #fff; stroke-width: 0px;"/>
        <rect x="160.84" y="77.52" width="6.61" height="14.88" style="fill: #ededed; stroke-width: 0px;"/>
        <rect x="170.2" y="77.52" width="6.61" height="14.88" style="fill: #fff; stroke-width: 0px;"/>
        <rect x="132.74" y="94.78" width="6.61" height="14.88" style="fill: #fff; stroke-width: 0px;"/>
        <rect x="142.11" y="94.78" width="6.61" height="14.88" style="fill: #fff; stroke-width: 0px;"/>
        <rect x="151.47" y="94.78" width="6.61" height="14.88" style="fill: #ededed; stroke-width: 0px;"/>
        <rect x="160.84" y="94.78" width="6.61" height="14.88" style="fill: #ededed; stroke-width: 0px;"/>
        <rect x="170.2" y="94.78" width="6.61" height="14.88" style="fill: #ededed; stroke-width: 0px;"/>
        <rect x="132.74" y="112.05" width="6.61" height="14.88" style="fill: #ededed; stroke-width: 0px;"/>
        <rect x="142.11" y="112.05" width="6.61" height="14.88" style="fill: #ededed; stroke-width: 0px;"/>
        <rect x="151.47" y="112.05" width="6.61" height="14.88" style="fill: #fff; stroke-width: 0px;"/>
        <rect x="160.84" y="112.05" width="6.61" height="14.88" style="fill: #ededed; stroke-width: 0px;"/>
        <rect x="170.2" y="112.05" width="6.61" height="14.88" style="fill: #fff; stroke-width: 0px;"/>
        <rect x="132.74" y="129.31" width="6.61" height="14.88" style="fill: #ededed; stroke-width: 0px;"/>
        <rect x="142.11" y="129.31" width="6.61" height="14.88" style="fill: #ededed; stroke-width: 0px;"/>
        <rect x="151.47" y="129.31" width="6.61" height="14.88" style="fill: #ededed; stroke-width: 0px;"/>
        <rect x="160.84" y="129.31" width="6.61" height="14.88" style="fill: #ededed; stroke-width: 0px;"/>
        <rect x="170.2" y="129.31" width="6.61" height="14.88" style="fill: #ededed; stroke-width: 0px;"/>
        <rect x="132.74" y="146.58" width="6.61" height="14.88" style="fill: #ededed; stroke-width: 0px;"/>
        <rect x="142.11" y="146.58" width="6.61" height="14.88" style="fill: #ededed; stroke-width: 0px;"/>
        <rect x="151.47" y="146.58" width="6.61" height="14.88" style="fill: #ededed; stroke-width: 0px;"/>
        <rect x="160.84" y="146.58" width="6.61" height="14.88" style="fill: #fff; stroke-width: 0px;"/>
        <rect x="170.2" y="146.58" width="6.61" height="14.88" style="fill: #ededed; stroke-width: 0px;"/>
        <rect x="132.74" y="163.85" width="6.61" height="14.88" style="fill: #ededed; stroke-width: 0px;"/>
        <rect x="142.11" y="163.85" width="6.61" height="14.88" style="fill: #fff; stroke-width: 0px;"/>
        <rect x="151.47" y="163.85" width="6.61" height="14.88" style="fill: #ededed; stroke-width: 0px;"/>
        <rect x="160.84" y="163.85" width="6.61" height="14.88" style="fill: #ededed; stroke-width: 0px;"/>
        <rect x="170.2" y="163.85" width="6.61" height="14.88" style="fill: #ededed; stroke-width: 0px;"/>
        <rect x="132.74" y="181.11" width="6.61" height="14.88" style="fill: #ededed; stroke-width: 0px;"/>
        <rect x="142.11" y="181.11" width="6.61" height="14.88" style="fill: #ededed; stroke-width: 0px;"/>
        <rect x="151.47" y="181.11" width="6.61" height="14.88" style="fill: #ededed; stroke-width: 0px;"/>
        <rect x="160.84" y="181.11" width="6.61" height="14.88" style="fill: #ededed; stroke-width: 0px;"/>
        <rect x="170.2" y="181.11" width="6.61" height="14.88" style="fill: #fff; stroke-width: 0px;"/>
        <rect x="132.74" y="198.38" width="6.61" height="14.88" style="fill: #ededed; stroke-width: 0px;"/>
        <rect x="142.11" y="198.38" width="6.61" height="14.88" style="fill: #ededed; stroke-width: 0px;"/>
        <rect x="151.47" y="198.38" width="6.61" height="14.88" style="fill: #fff; stroke-width: 0px;"/>
        <rect x="160.84" y="198.38" width="6.61" height="14.88" style="fill: #ededed; stroke-width: 0px;"/>
        <rect x="170.2" y="198.38" width="6.61" height="14.88" style="fill: #ededed; stroke-width: 0px;"/>
      </g>
    </g>
  </g>
</svg>