<?xml version="1.0" encoding="utf-8"?>
<!-- Generator: Adobe Illustrator 27.5.0, SVG Export Plug-In . SVG Version: 6.00 Build 0)  -->
<svg version="1.1" id="_圖層_2" xmlns="http://www.w3.org/2000/svg" xmlns:xlink="http://www.w3.org/1999/xlink" x="0px" y="0px"
	 width="391.2px" height="391.2px" viewBox="0 0 391.2 391.2" style="enable-background:new 0 0 391.2 391.2;" xml:space="preserve"
	>
<style type="text/css">
	.st0{fill:#4FC32E;}
	.st1{opacity:0.1;enable-background:new    ;}
	.st2{opacity:0.15;fill:#FFFFFF;enable-background:new    ;}
	.st3{clip-path:url(#SVGID_00000048475681919842159520000001152739697907412391_);}
	.st4{fill:#ABE7FF;}
	.st5{fill:#FFFFFF;}
	.st6{fill:#589FEF;}
	.st7{fill:#EBEBEB;}
	.st8{fill:#F4F4F4;}
	.st9{fill:#82B6FF;}
	.st10{fill:#FFCE6D;}
	.st11{fill:#FFE76B;}
	.st12{fill:#FFA4C6;}
	.st13{fill:#FB86B6;}
	.st14{opacity:0.5;fill:#FFA4C6;enable-background:new    ;}
	.st15{fill:#17E5BB;}
	.st16{fill:#00CC9E;}
	.st17{fill:#7688EB;}
	.st18{opacity:0.5;fill:#17E5BB;enable-background:new    ;}
	.st19{fill:#00A6E7;}
	.st20{opacity:0.5;fill:#00A6E7;enable-background:new    ;}
	.st21{fill:#005E9D;}
	.st22{fill:#F19000;}
	.st23{fill:#FFCB43;}
	.st24{opacity:0.5;fill:#FFE76B;enable-background:new    ;}
	.st25{opacity:0.5;fill:#FFCB43;enable-background:new    ;}
	.st26{fill:#007FB7;}
	.st27{fill:#DFF6FF;}
	.st28{fill:none;}
	.st29{fill:#1C1C1B;}
</style>
<g>
	<g>
		<path class="st0" d="M391.3,1.9v180.8c0,80.8-73.3,146.2-163.8,146.2H25V148.1C25,67.4,98.3,1.9,188.8,1.9H391.3z"/>
	</g>
	<path class="st1" d="M391.3,67.8v114.8c0,80.8-73.3,146.2-163.8,146.2H25v-4.4C205.8,274.7,327.3,150.6,391.3,67.8z"/>
	<path class="st2" d="M391.3,1.9v3.4c-57.5,9.9-239.4,53-366.3,213.9v-71.1C25,67.4,98.3,1.9,188.8,1.9H391.3z"/>
</g>
<g>
	<g>
		<rect y="116.2" class="st0" width="25.5" height="275"/>
	</g>
</g>
<g>
	<g>
		<g>
			<defs>
				<path id="SVGID_1_" d="M181.6,299.8H56V162.3c0-69.1,56.5-125.6,125.6-125.6h56.1h125.6v137.6c0,69.1-56.5,125.6-125.6,125.6
					L181.6,299.8L181.6,299.8z"/>
			</defs>
			<clipPath id="SVGID_00000088832588654397097440000014847273999428448420_">
				<use xlink:href="#SVGID_1_"  style="overflow:visible;"/>
			</clipPath>
			<g style="clip-path:url(#SVGID_00000088832588654397097440000014847273999428448420_);">
				<rect x="32.8" y="18.1" class="st4" width="358.3" height="358.3"/>
				<path class="st5" d="M9.1,163.6c-2.5-9.5,1.8-20.5,10.4-25.1s20.8-1.5,25.5,7.1l0.5-0.7c1.3-1.6,3.6-2,5.4-1.1l3.7,2
					c1.8-11,15.7-16.4,26.5-13.5c10.8,3,18.9,11.5,26.5,19.8c0.7-7.7,11.1-11.2,18.1-8c7,3.2,11.1,10.5,14.5,17.5l20.5,5.6H-2.5
					L9.1,163.6z"/>
				<path class="st5" d="M417.2,49.7c-0.5-4.5-2.4-9.1-6.2-11.5c-3.8-2.4-9.5-2-12.1,1.7c-0.4-3.3-6.1-3.9-7.2-0.8
					c2.6-7.1-2.3-15.4-9.3-18.2s-15.2-1-21.5,3.1s-11.1,10.1-15.6,16.2l0,0c-1.1-2.3-3.8-3.6-6.2-2.7H339c1.5-3.4-2.2-7.3-5.9-7.4
					c-3.7-0.1-7,2.2-9.8,4.7c-4,3.5-7,10.1-10.3,14.3l-16,4.8h132.6L417.2,49.7z"/>
				<path class="st5" d="M382.7,231.4c-8.2,2.7-13.8,11.5-13,20.1c-7.3-5-17.1-5.8-25.2-2.2c-12.6,5.7-18.5,20.2-21,33.7
					c-7.2-3.4-16.9,2.8-16.8,10.7c-8.1-6.3-19.9-7.4-29-2.7c-9.1,4.7-15.1,14.9-14.7,25.1c-5.3-3.1-13-0.1-14.9,5.7
					c-5.2-6.8-14.1-10.5-22.6-9.3s-16.1,7.1-19.2,15c-2.7-3.6-8.4-4.2-11.8-1.4c-4.2-9.6-10.9-18.1-19.3-24.4c-4.4-3.3-9.5-6-15-6.3
					s-11.4,2.5-13.5,7.5c-1.5-4.4-6.4-7.3-11.1-6.6c-5.9-10.6-13-21.3-23.7-26.9c-10.8-5.6-26-4.2-32.6,6c-0.1-4.4-5.6-7.6-9.5-5.6
					c2.6-11.8-8.8-23.7-20.9-23.9s-23,9-27.6,20.2v114.2h383.8V239.7C400.7,232.3,390.9,228.7,382.7,231.4z"/>
				<g>
					<path class="st6" d="M343.6,87.1c0,0-5.6,2.6-9.3,5.7c0-1.4,3.3-7.5,3.3-7.5l4-1.2L343.6,87.1z"/>
					<g>
						<path class="st5" d="M314.1,86.8c0,0-0.7-5.9,3.7-7.7c4.4-1.8,27.7-7.5,27.7-7.5s-6.1,4.9-3.5,11.3
							c-1.1,0.9-27.9,7.6-27.9,7.6L314.1,86.8z"/>
					</g>
					<g>
						<path class="st7" d="M345.5,71.6c0,0,5.1-1.8,10.4,4.1l0.6,3.9c0,0-12.5-11.8-13.8,6.1c0,0-2.7-3.5-2.5-6.5
							C340.2,76.3,343,71.8,345.5,71.6z"/>
					</g>
					<g>
						<path class="st8" d="M341.5,81.6c0,0-3.6-8.8,7.9-17.8l-30.8,8.4c0,0-6.2,4.7-4.5,14.6L341.5,81.6z"/>
					</g>
					<path class="st7" d="M339.6,80.6c0,0,1.7-0.4,2.1,4c-1.6,0.7-6.8,3.3-5.9,18.7l-3.5,1C332.3,104.4,327.5,87.7,339.6,80.6z"/>
					<path class="st5" d="M339.6,80.6c0,0-17.6,1.7-30.4,8.4c0,0-10.9,9-7.4,24l30.4-8.6C332.3,104.4,329.7,86.1,339.6,80.6z"/>
					<path class="st9" d="M340.6,84.4c0,0-0.5-1.9,0.9-2.8c1.4-1,3,1.8,2.9,4C344.3,87.7,341.7,88.6,340.6,84.4z"/>
					<g>
						<g>
							<path class="st9" d="M327,101.3c-0.2,0-0.4-0.1-0.4-0.3c-1.2-12.1,4.3-16.9,4.5-17.1c0.2-0.1,0.4-0.1,0.5,0
								c0.1,0.2,0.1,0.4,0,0.5c-0.1,0-5.4,4.8-4.3,16.5C327.3,101.1,327.2,101.3,327,101.3L327,101.3z"/>
						</g>
						<g>
							<path class="st9" d="M321,102.9c-0.2,0-0.4-0.1-0.4-0.3c-1.2-12.1,4.3-16.9,4.5-17.1c0.2-0.1,0.4-0.1,0.5,0
								c0.1,0.2,0.1,0.4,0,0.5c-0.1,0-5.4,4.8-4.3,16.5C321.4,102.7,321.2,102.9,321,102.9L321,102.9z"/>
						</g>
						<g>
							<path class="st9" d="M315,104.5c-0.2,0-0.4-0.1-0.4-0.3c-1.2-12.1,4.3-16.9,4.5-17.1c0.2-0.1,0.4-0.1,0.5,0
								c0.1,0.2,0.1,0.4,0,0.5c-0.1,0-5.4,4.8-4.3,16.5C315.4,104.3,315.3,104.5,315,104.5C315.1,104.5,315,104.5,315,104.5z"/>
						</g>
						<g>
							<path class="st9" d="M309.1,106.1c-0.2,0-0.4-0.1-0.4-0.3c-1.2-12.1,4.3-16.9,4.5-17.1c0.2-0.1,0.4-0.1,0.5,0
								c0.1,0.2,0.1,0.4,0,0.5c-0.1,0-5.4,4.8-4.3,16.5C309.5,105.9,309.3,106.1,309.1,106.1L309.1,106.1z"/>
						</g>
					</g>
					<g>
						<path class="st9" d="M338.1,74.9L338.1,74.9c-0.3,0-0.4-0.2-0.4-0.5c0.7-3.5,4.3-7,4.5-7.2c0.1-0.1,0.4-0.1,0.5,0
							s0.1,0.4,0,0.5c0,0-3.6,3.5-4.2,6.8C338.4,74.7,338.3,74.9,338.1,74.9z"/>
					</g>
					<g>
						<path class="st9" d="M332.5,79.6c-0.2,0-0.4-0.2-0.4-0.4c-0.1-5.7,4.4-10.3,4.6-10.5c0.1-0.1,0.4-0.1,0.5,0s0.1,0.4,0,0.5
							c0,0-4.5,4.5-4.3,9.9C332.9,79.4,332.7,79.6,332.5,79.6L332.5,79.6z"/>
					</g>
					<g>
						<path class="st9" d="M327.6,80.8c-0.2,0-0.4-0.2-0.4-0.4c-0.1-5.7,4.4-10.3,4.6-10.5c0.1-0.1,0.4-0.1,0.5,0s0.1,0.4,0,0.5
							c0,0-4.5,4.5-4.3,9.9C327.9,80.6,327.8,80.7,327.6,80.8L327.6,80.8z"/>
					</g>
					<g>
						<path class="st9" d="M322.6,81.9c-0.2,0-0.4-0.2-0.4-0.4c-0.1-5.7,4.4-10.3,4.6-10.5c0.1-0.1,0.4-0.1,0.5,0s0.1,0.4,0,0.5
							c0,0-4.5,4.5-4.3,9.9C323,81.8,322.8,81.9,322.6,81.9L322.6,81.9z"/>
					</g>
					<g>
						<path class="st9" d="M317.7,83.1c-0.2,0-0.4-0.2-0.4-0.4c-0.1-5.7,4.4-10.3,4.6-10.5c0.1-0.1,0.4-0.1,0.5,0s0.1,0.4,0,0.5
							c0,0-4.5,4.5-4.3,9.9C318.1,83,317.9,83.1,317.7,83.1L317.7,83.1z"/>
					</g>
				</g>
				<g>
					<path class="st10" d="M56.7,221.3c0,0,5.9,2.8,9.7,6c0-1.5-3.5-7.9-3.5-7.9l-4.2-1.2L56.7,221.3z"/>
					<g>
						<path class="st5" d="M87.7,221c0,0,0.8-6.2-3.9-8c-4.6-1.9-29.1-7.9-29.1-7.9s6.4,5.2,3.6,11.9c1.2,0.9,29.2,8,29.2,8
							L87.7,221z"/>
					</g>
					<g>
						<path class="st7" d="M54.8,205.1c0,0-5.3-1.9-10.9,4.3l-0.6,4.1c0,0,13.1-12.4,14.5,6.4c0,0,2.8-3.6,2.6-6.8
							C60.3,209.9,57.4,205.3,54.8,205.1z"/>
					</g>
					<g>
						<path class="st8" d="M59,215.5c0,0,3.7-9.2-8.3-18.6l32.3,8.8c0,0,6.5,4.9,4.7,15.3L59,215.5z"/>
					</g>
					<path class="st7" d="M61,214.5c0,0-1.7-0.4-2.2,4.2c1.7,0.7,7.1,3.5,6.2,19.6l3.6,1.1C68.6,239.4,73.6,221.9,61,214.5z"/>
					<path class="st5" d="M61,214.5c0,0,18.4,1.8,31.8,8.8c0,0,11.4,9.4,7.7,25.1l-31.9-9C68.6,239.4,71.3,220.3,61,214.5z"/>
					<path class="st11" d="M59.9,218.5c0,0,0.5-1.9-0.9-3c-1.4-1-3.2,1.9-3.1,4.2C56,222,58.8,222.9,59.9,218.5z"/>
					<g>
						<g>
							<path class="st11" d="M74.2,236.2c0.2,0,0.4-0.2,0.4-0.4c1.2-12.7-4.5-17.8-4.7-18c-0.2-0.1-0.4-0.1-0.6,0
								c-0.1,0.2-0.1,0.4,0,0.6c0.1,0,5.7,5.1,4.5,17.3C73.8,236,74,236.2,74.2,236.2L74.2,236.2z"/>
						</g>
						<g>
							<path class="st11" d="M80.5,237.9c0.2,0,0.4-0.2,0.4-0.4c1.2-12.7-4.5-17.8-4.7-18c-0.2-0.1-0.4-0.1-0.6,0
								c-0.1,0.2-0.1,0.4,0,0.6c0.1,0,5.7,5.1,4.5,17.3C80,237.7,80.2,237.9,80.5,237.9C80.4,237.9,80.5,237.9,80.5,237.9z"/>
						</g>
						<g>
							<path class="st11" d="M86.7,239.6c0.2,0,0.4-0.2,0.4-0.4c1.2-12.7-4.5-17.8-4.7-18c-0.2-0.1-0.4-0.1-0.6,0
								c-0.1,0.2-0.1,0.4,0,0.6c0.1,0,5.7,5.1,4.5,17.3C86.3,239.4,86.5,239.6,86.7,239.6L86.7,239.6z"/>
						</g>
						<g>
							<path class="st11" d="M93,241.3c0.2,0,0.4-0.2,0.4-0.4c1.2-12.7-4.5-17.8-4.7-18c-0.2-0.1-0.4-0.1-0.6,0
								c-0.1,0.2-0.1,0.4,0,0.6c0.1,0,5.7,5.1,4.5,17.3C92.5,241,92.7,241.2,93,241.3C92.9,241.3,92.9,241.3,93,241.3z"/>
						</g>
					</g>
					<g>
						<path class="st11" d="M62.5,208.5C62.6,208.5,62.6,208.5,62.5,208.5c0.3-0.1,0.4-0.3,0.4-0.5c-0.7-3.7-4.5-7.4-4.7-7.5
							c-0.2-0.2-0.4-0.1-0.6,0c-0.2,0.2-0.1,0.4,0,0.6c0,0,3.8,3.7,4.4,7.1C62.2,208.4,62.3,208.5,62.5,208.5z"/>
					</g>
					<g>
						<path class="st11" d="M68.4,213.4c0.2,0,0.4-0.2,0.4-0.4c0.1-6-4.6-10.8-4.8-11c-0.2-0.2-0.4-0.2-0.6,0
							c-0.2,0.2-0.2,0.4,0,0.6c0,0,4.7,4.7,4.6,10.4C68,213.2,68.2,213.4,68.4,213.4L68.4,213.4z"/>
					</g>
					<g>
						<path class="st11" d="M73.6,214.7c0.2,0,0.4-0.2,0.4-0.4c0.1-6-4.6-10.8-4.8-11s-0.4-0.2-0.6,0s-0.2,0.4,0,0.6
							c0,0,4.7,4.7,4.6,10.4C73.2,214.5,73.3,214.7,73.6,214.7L73.6,214.7z"/>
					</g>
					<g>
						<path class="st11" d="M78.8,215.9c0.2,0,0.4-0.2,0.4-0.4c0.1-6-4.6-10.8-4.8-11c-0.2-0.2-0.4-0.2-0.6,0s-0.2,0.4,0,0.6
							c0,0,4.7,4.7,4.6,10.4C78.4,215.7,78.5,215.9,78.8,215.9C78.7,215.9,78.7,215.9,78.8,215.9z"/>
					</g>
					<g>
						<path class="st11" d="M83.9,217.2c0.2,0,0.4-0.2,0.4-0.4c0.1-6-4.6-10.8-4.8-11s-0.4-0.2-0.6,0s-0.2,0.4,0,0.6
							c0,0,4.7,4.7,4.6,10.4C83.5,217,83.7,217.2,83.9,217.2L83.9,217.2z"/>
					</g>
				</g>
				<g>
					<path class="st5" d="M364.6,189.9c0,0-2.1-7.2,1.8-21.2c0,0-15.5,12.3-26,30l12.1,5.9C352.5,204.5,359,194.5,364.6,189.9z"/>
					<path class="st7" d="M366.5,168.7l1.1,0.5c0,0-3.4,12.8-2.1,22.4l-2.3-2.2C363.1,189.3,363.5,173.4,366.5,168.7z"/>
					<path class="st8" d="M363.1,189.3c0,0-7.6-12.6-4.6-21.3c0,0-17,17-22.7,30.4l15.6,8.1L363.1,189.3z"/>
					<path class="st5" d="M362.6,191c0,0-7.9-6.2-10.6-21.7c-3.4,2.1-19.5,18.1-23.1,28.6l18.3,8.6L362.6,191z"/>
					<path class="st12" d="M309.9,209.8c0,0,17.1-1.5,30.5,4.9l19.1-21c0,0-12.7-10.8-24.7-8.6C334.8,185,313.7,203,309.9,209.8z"/>
					<path class="st8" d="M334.8,185l-0.5-1.8c0,0,14.7-1.5,25.3,9c0,0,0.5,0.9-0.1,1.5C359.5,193.6,346.7,183.5,334.8,185z"/>
					<path class="st5" d="M334.3,183.2c0,0-17,12.5-25.6,25.4l1.3,1.2c0,0,17.9-18.5,24.9-24.7L334.3,183.2z"/>
					<path class="st13" d="M340.5,214.7c0,0,0.6,2.5,3.7,1.9l20.5-22c0,0-4.5-1.5-5.1-0.9C359,194.2,340.5,214.7,340.5,214.7z"/>
					<path class="st11" d="M352.4,194.1c-2.2-1.8-7.8-5.6-15.5-5.7c-0.4,0-0.7,0.1-1,0.4l-3,3.1c-0.7,0.7-0.3,2,0.7,2.2
						c3.7,0.7,10.7,2.4,14.3,5.4c0.5,0.5,1.4,0.4,1.8-0.2l2.9-3.3C353.1,195.5,353,194.6,352.4,194.1z"/>
					<path class="st14" d="M356,197.5c-18.5,12.8-44.7,10.9-45.2,10.8c-0.4,0.5-0.7,1-0.9,1.4c0,0,17.1-1.5,30.5,4.9L356,197.5z"/>
					<path class="st12" d="M359.5,193.6c0,0,2.9,2.3,5.1,0.9c2.2-1.4,0-4.7,0-4.7s-2.5-1.3-3.9,0
						C359.3,191.3,359.5,193.6,359.5,193.6z"/>
				</g>
				<g>
					<path class="st5" d="M122.5,104c0,0,6.6-3.3,21.1-2c0,0-14.9-13-34.1-20.1L106,94.8C106,94.8,116.9,99.4,122.5,104z"/>
					<path class="st7" d="M143.6,102l-0.3,1.1c0,0-13.2-1-22.3,2l1.8-2.7C122.8,102.4,138.5,99.9,143.6,102z"/>
					<path class="st8" d="M122.8,102.4c0,0,10.9-9.7,20.1-8.3c0,0-19.7-13.6-33.9-16.7l-5.1,16.7L122.8,102.4z"/>
					<path class="st5" d="M121.1,102.2c0,0,4.7-8.9,19.4-14.4c-2.7-2.9-21.3-15.8-32.2-17.5l-5.1,19.5L121.1,102.2z"/>
					<path class="st15" d="M93.1,54c0,0,4.6,16.5,0.7,30.8l24.1,14.9c0,0,8.3-14.4,4-25.8C121.9,73.9,100.4,56.5,93.1,54z"/>
					<path class="st8" d="M121.9,73.9l1.7-0.8c0,0,4.2,14.2-4.2,26.5c0,0-0.8,0.6-1.5,0.2C117.9,99.7,125.6,85.3,121.9,73.9z"/>
					<path class="st5" d="M123.6,73.1c0,0-15.3-14.4-29.5-20.5l-1,1.5c0,0,21.4,14.2,28.8,19.9L123.6,73.1z"/>
					<path class="st16" d="M93.9,84.8c0,0-2.4,1.1-1.2,4l25.3,16.1c0,0,0.7-4.7,0-5.1C117.2,99.3,93.9,84.8,93.9,84.8z"/>
					<path class="st17" d="M104.1,84.7c1-2.6,2.9-9.1,0.7-16.5c-0.1-0.3-0.4-0.6-0.7-0.8l-3.8-1.9c-0.9-0.5-2,0.3-1.9,1.3
						c0.5,3.7,1,10.9-0.8,15.2c-0.3,0.6,0.1,1.4,0.7,1.7l4,1.7C103,85.7,103.8,85.4,104.1,84.7z"/>
					<path class="st15" d="M117.9,99.7c0,0-1.8,3.2,0,5.1s4.6-0.8,4.6-0.8s0.9-2.7-0.7-3.9C120.2,99,117.9,99.7,117.9,99.7z"/>
					<path class="st18" d="M97.5,87.1l20.4,12.6c0,0,7.1-12.3,4.7-23.2C114.6,88.2,103.8,88.3,97.5,87.1z"/>
				</g>
				<g>
					<g>
						<circle class="st5" cx="212" cy="177.9" r="110.7"/>
						<circle class="st19" cx="212" cy="177.9" r="101.2"/>
						<g>
							<path class="st15" d="M223.2,188c1.3,0.3,2.7,0.6,3.7,1.6c2.2,2.3,0.5,6.3,1.9,9.2c0.5,1.1,1.4,1.9,2.2,2.8
								c5.5,6.3,4.2,16.1,6.3,24c0.4,1.7,1.5,3.2,3,4.1c3.3,1.8,6.2-0.6,8.5-2.9c3.1-3,6.4-6.8,5.5-11c-0.3-1.4-1.1-2.7-1.2-4.2
								c-0.1-2.6,2.3-4.5,3.2-6.9c1.7-4.3-1-9.2,0.1-13.6c1.2-5,7.2-8.8,6.1-13.9c-0.4-1.9-1.7-3.5-1.8-5.4c-0.2-2.8,2.2-5,4.1-7
								c1.3-1.4,2.5-3.5,2.4-5.3c0-1.9,1.9-3.1,3.7-2.5c0.3,0.1,0.7,0.3,1,0.5c3.4,2,5.7,5.6,8,8.8s5.6,6,8.1,0.7
								c0.9-2,1.2-4.4,2.6-6.1c0.4-0.4,0.8-0.8,1.4-0.9c0.4,0,0.8,0.1,1.1,0.3c2.6,1.3,4.1,4.2,5.9,6.5s5,4.3,7.6,3
								c3.2-1.6,2.8-6.7,0.7-9.3c-0.8-0.9-1-2.2-0.6-3.4c0.5-1.4,1.7-1.3,2.8-1.5c0.4-0.1,0.8-0.2,1.1-0.3
								c-5.9-25.9-21.7-47.9-43.2-62.1c-0.1,0-0.2,0.1-0.3,0.1c-1.5,0.8-2.4,2.4-3.5,3.8c-2.4,3.3-5.5,6.1-9.3,7.5
								c-8,2.9-16.9-1-25.2,0.6c-6.3,1.3-12.1,6.7-11.8,13c0.1,1.5,0.4,3,0.4,4.4c-0.1,1.5-0.8,3.1-2.2,3.6
								c-0.9,0.3-3.4-4.8-6.4-2.2c-2.3,2-1.7,6.8,0,8.9c1.6,2.1,4.7,4,3.9,6.5c-0.5,1.8-2.9,3.5-1.6,5c0.3,0.4,0.8,0.6,1.3,0.7
								c3.3,0.4,6.8-0.8,9.1-3.2c0.9-1,1.7-2.2,3.1-2.6c0.7-0.2,1.5-0.1,2,0.4c1.4,1.2-0.4,3.2,0.9,4.3c0.3,0.3,0.7,0.4,1.1,0.4
								c3,0.2,5.8-1.6,9-1.1c1,0.2,1.9,0.6,2.6,1.4c2.1,2.5-0.4,5.7-3.1,6.3c-2.4,0.5-4.8-0.4-7.2-1.2c-5.6-1.9-12.3-3-17.2,0.4
								c-5.2,3.6-6.3,10.8-6.1,17.1c0.1,4.5,0.7,8.9,1.7,13.2c0.3,1.6,0.8,3.2,2.1,4.2c0.8,0.6,1.8,0.8,2.8,1
								C216.7,186.5,219.9,187.2,223.2,188z"/>
							<path class="st15" d="M177.5,269.8c-1-2.4-1.1-5.2-0.3-7.7c1-3.2,3.4-5.8,4.3-9c1.2-4.2-0.3-9.1,1.7-12.9
								c1.2-2.3,3.4-3.8,5.2-5.6c1.8-1.9,3.2-4.6,2.2-6.9c-0.5-1.1-1.5-2-1.8-3.2c-0.3-1.3,0.1-2.6,0.4-3.9
								c1.3-6.4-3.6-13.5-10.1-14.3c-3.8-0.4-8,1.1-11.4-0.7c-2.3-1.2-3.7-3.5-5.4-5.4s-4.4-3.6-6.8-2.7c-0.9,0.3-1.7,1-2.6,1.1
								c-1.7,0.3-3.1-1.2-4.7-1.8c-2.1-0.8-4.5-0.1-6.2,1.2c-1.8,1.3-3,3.2-4.2,5.1c-4.4,7-10.4,13.6-5.4,21.9
								c1,1.7,2.6,3.2,4.5,3.7c0.9,0.2,1.9,0.2,2.7,0.6c2.6,1.2,2.4,4.9,4.2,7.1c0.8,1,2.1,1.6,3.2,2.2c4.2,2.6,7.4,7.4,8,12.3
								c0.6,5,2.4,9.8,5.2,13.9c5.8,3.5,11.9,6.3,18.4,8.6C178.6,272.3,178,270.9,177.5,269.8z"/>
							<path class="st15" d="M295.3,186.6c-1.3-1.5-2.4-3.2-4-4.4c-1.8-1.3-4.7-0.8-4.4,1.5c0,0.2,0.1,0.5,0.3,0.8
								c1.2,2.6,4.2,4.1,6,6.2c0.9,1.1,1.6,2.3,2.3,3.5c1.7,2.8,2.8,6.2,6.3,7.1c2,0.5,4.5-0.5,4.9-2.5c0.3-1.5-0.7-3-1.8-4.2
								C302,191.6,298.1,189.7,295.3,186.6z"/>
							<path class="st15" d="M309.9,176.3c-1.1,1-1,2.6-1.4,4.1c-0.4,1.7-1.4,3-2.7,4.1c-2.2,1.9-1.6,4.1,0,6.2
								c1,1.3,2.1,2.4,3.3,3.4c0.4,0.3,0.9,0.7,1.4,0.9s0.9,0.3,1.3,0.4c1-5.6,1.5-11.5,1.5-17.4c0-0.8,0-1.6,0-2.4
								C311.9,175.4,310.5,175.6,309.9,176.3z"/>
							<path class="st15" d="M298.3,230.8c-0.8-0.8-1.6-1.6-1.8-2.7c-0.3-1.5,0.7-3.1,0.6-4.6c-0.1-1.3-1.1-2.4-2.1-3.3
								c-0.3-0.2-0.5-0.4-0.9-0.5c-0.4,0-0.8,0.2-1.2,0.5c-1.1,0.9-2,2.1-3.2,2.9c-1.2,0.9-2.7,1.4-4.1,0.8c-1.2-0.6-1.9-2-3.2-2.4
								c-1.8-0.6-3.5,0.8-4.9,2.1c-1.5,1.5-3,2.9-4.5,4.4c-3.3,3.2-8.7,3.1-8.7,8.9c0,2.4,0.8,4.7,0.5,7c-0.3,2.4-1.6,5-0.1,6.9
								c1,1.4,3,1.6,4.8,1.4c2.7-0.2,5.4-0.9,7.8-2c1.4-0.7,2.9-1.5,4.5-1.6c0.7,0,1.4,0.1,2.1,0.2
								C289.4,243.6,294.2,237.5,298.3,230.8z"/>
							<path class="st15" d="M112.9,157.3c1.4,2.4,2.9,4.8,4,7.3c1.8,3.7,3.5,7.6,6.4,10.5c1.8,1.8,4,3.2,6.1,4.5
								c1.4,0.9,2.9,1.8,4.6,1.9c1.7,0.1,3.5-1,3.7-2.6c0.2-1.4-0.8-2.6-1.8-3.7c-1.8-2-3.7-4.1-5.5-6.1c-1.2-1.3-2.5-3-2-4.8
								c0.5-1.6,2.4-2.5,4.1-2.5c1.7,0,3.4,0.6,5.1,0.8c5.3,0.5,10.2-3.1,13-7.7c1.4-2.3,2.5-4.9,4-7.2c3.7-5.6,9.9-8.9,15-13.3
								c1.3-1.1,2.6-2.5,2.8-4.1c0.3-2.4-1.9-4.6-4.2-5.1c-2.4-0.4-4.8,0.6-6.8,2c-1,0.7-2,1.6-3.2,2s-2.7,0.4-3.6-0.5
								c-1.4-1.5-0.3-4,1.2-5.4c1.2-1.2,2.6-2.1,4.1-2.8c2.3-1,5.1-1.5,6.3-3.7c1.4-2.5-0.5-5.9-3.2-7s-5.8-0.6-8.5,0.2
								c-1.4,0.4-2.9,0.9-4.4,0.7c-1.5-0.2-2.9-1.3-3-2.8c0-1.1,0.8-2.1,1.4-3.1c0.6-1,0.9-2.4,0.1-3.2c-0.4-0.4-1-0.6-1.6-0.6
								c-0.1,0-0.3,0-0.4,0C129.6,115.1,117.5,134.9,112.9,157.3z"/>
						</g>
						<path class="st20" d="M285.7,108.4c7.1,13.8,11.1,29.5,11.1,46.2c0,55.9-45.3,101.2-101.2,101.2c-29,0-55.2-12.2-73.6-31.8
							c16.8,32.7,50.8,55.1,90.1,55.1c55.9,0,101.2-45.3,101.2-101.2C313.3,151,302.8,126.5,285.7,108.4z"/>
						<path class="st21" d="M217.2,207.3c-1.2-1.2-2.9-2.3-5.2-2.3c-2.8,0-4.5,1.5-5.6,3c-1,1.4-1.5,3.1-1.5,4.9
							c0,3.5,0.8,10.7,7.3,10.7c6.1,0,7.2-6.2,7.3-9.9C219.7,211.3,218.9,209,217.2,207.3z"/>
						<path class="st12" d="M219.6,213.7c0-0.4,0-0.8,0-1.2c-3.2,0.3-10.5,1.5-13.5,6.7c1,2.4,2.8,4.5,6.3,4.5
							C218.3,223.6,219.4,217.3,219.6,213.7z"/>
					</g>
					<g>
						<path class="st8" d="M212,245.5c0,0,0.2-23.9,43.7-33.2c0,3.5,0,12.3,0,12.3s-30.5,10.8-42.5,22.1
							C212.7,246.3,212,245.5,212,245.5z"/>
						<path class="st8" d="M212,245.5c0,0,1.8-25.6-20-39.4c-1.1,5.5-7.1,25.6-7.1,25.6L212,245.5z"/>
						<path class="st5" d="M268,223.8l-9.4,1.8l8.3-3.2c-0.7-0.8-1.3-1.5-1.7-2c-42.2,7.7-53.2,25.1-53.2,25.1s6.9,7.7,10.8,5.9
							c20.8-11.9,49.3-22.6,49.3-22.6S270,226.2,268,223.8z"/>
						<path class="st5" d="M156,223.8l9.4,1.8l-8.3-3.2c0.7-0.8,1.3-1.5,1.7-2c42.1,7.7,53.2,25.1,53.2,25.1s-6.9,7.7-10.8,5.9
							c-20.8-11.9-49.3-22.6-49.3-22.6S154,226.2,156,223.8z"/>
						<path class="st22" d="M203,250c0,0,0.8-4.5,9-4.5c8.3,0,9,4.5,9,4.5S213.1,257.2,203,250z"/>
						<path class="st11" d="M221,250v67.4c22.6-18.9,55.9-22.8,55.9-22.8v-67.4C277,227.2,243.6,231.1,221,250z"/>
						<path class="st11" d="M203,250v67.4c-22.6-18.9-55.9-22.8-55.9-22.8v-67.4C147,227.2,180.4,231.1,203,250z"/>
						<path class="st23" d="M203,250v67.4c7.7,3.6,18.1,0,18.1,0V250C221,250,210.6,253.6,203,250z"/>
						<path class="st19" d="M265,241.5c-12.9,1.8-27.5,11-31.1,13.4c-0.5,0.3-0.8,0.9-0.8,1.5v11.5c0,1.5,2,2.4,3.4,1.5
							c5.9-3.6,18.3-10.5,29.2-11.8c1.1-0.1,1.8-0.9,1.8-1.8v-12.4C267.4,242.2,266.3,241.3,265,241.5z"/>
						<path class="st24" d="M203,265.6c-12.5,26.9-46.2,26-55.9,25.2v3.7c0,0,33.4,3.9,55.9,22.8V265.6z"/>
						<path class="st25" d="M221,317.4v-38c-2.1,4.3-6.6,12.6-18.1,13.9v24.2C210.6,321,221,317.4,221,317.4z"/>
						<path class="st24" d="M277,260.7c-5.9,14-20.7,36.1-55.9,36.4v20.3c22.6-18.9,55.9-22.8,55.9-22.8V260.7z"/>
					</g>
					<g>
						<g>
							<path class="st26" d="M282.3,268.7c-0.5,0-1-0.3-1.3-0.8c-0.3-0.7-0.1-1.6,0.7-1.9c21.2-10.4,33.2-22.3,35.5-35.5
								c2.6-14.8-8.1-26-8.2-26.1c-0.6-0.6-0.5-1.5,0-2c0.6-0.6,1.5-0.5,2,0s11.8,12.4,9,28.6c-2.5,14.2-14.9,26.8-37,37.6
								C282.7,268.6,282.5,268.7,282.3,268.7z"/>
						</g>
						<path class="st26" d="M284.3,264.6c0.7,0.5,1.2,1.2,1.3,2.1c0.3,2-0.4,6-7.6,9.3c-7.6,3.2-10.9-3.6-7.5-6.1
							c3.4-2.4,8.8-2.7,8.8-2.7s-1.9-1.6-2.3-3.3C276.5,262.4,281.2,262.6,284.3,264.6z"/>
					</g>
					<g>
						<g>
							<path class="st26" d="M141.8,268.7c-0.2,0-0.4,0-0.6-0.1c-22.1-10.8-34.6-23.4-37-37.6c-2.8-16.2,8.5-28.1,9-28.6
								c0.6-0.6,1.5-0.6,2,0c0.6,0.6,0.6,1.5,0,2c-0.2,0.2-10.8,11.5-8.2,26.1c2.3,13.2,14.3,25.1,35.5,35.5c0.7,0.3,1,1.2,0.7,1.9
								C142.8,268.4,142.3,268.7,141.8,268.7z"/>
						</g>
						<path class="st26" d="M139.7,264.6c-0.7,0.5-1.2,1.2-1.3,2.1c-0.3,2,0.4,6,7.6,9.3c7.6,3.2,10.9-3.6,7.5-6.1
							c-3.4-2.4-8.8-2.7-8.8-2.7s1.9-1.6,2.3-3.3C147.5,262.4,142.8,262.6,139.7,264.6z"/>
					</g>
				</g>
				<path class="st27" d="M390.1,315.9c-7.5-2.4-13.5-9-15.1-16.7c-3,1.5-6.6,1.4-9.5-0.2c-1.4,8.1-4.6,16.3-10.8,21.8
					c-6.1,5.5-15.5,8-23,4.4c-0.4,6.5-2.7,11.4-8.5,14.3c-1.6,0.8-17.5,3.3-17.1,2.4c-3.7,7.7-10.3,7.8-15.9,12.6
					c-4.1,3.6-6.4,9-11.2,12.4c-5.2,3.6-11.3,5.9-17.4,7.3c-13.9,3.4-58.7-1.4-68.5-15c-10.6,6.3-20.5,13.7-33.1,14.8
					c-11.6,1.1-23.6-1.9-33-8.7c-8.6-6.3-15.4-15.5-25.5-18.8c-5.6,6.1-15.7,6.4-23,2.6c-7.4-3.8-12.6-10.8-16.9-17.9
					c-4.4,2.6-10.9,0.4-12.9-4.3c-7,4.7-16.8,4.9-23.9,0.4c-1.3-0.8-2.5-1.8-3.5-2.8v55.9h383.8v-65.2
					C400.4,317.1,395,317.5,390.1,315.9z"/>
				<path class="st5" d="M329.5,149.3c1.9-6.2-2.2-12.3-8.1-14.9c-3.3-1.4-7.9-1-9.4,2.2c-0.5-2.1-3.8-2.5-4.8-0.7
					c-2.7-5.2-10-6.3-15.3-3.9c-5.3,2.4-9,7.3-12.5,11.9c-1.2-2.5-5.4-2.7-6.9-0.3c1-2.8-1.8-5.9-4.8-6.1c-3-0.2-5.8,1.8-7.7,4
					c-2,2.3-3.5,5.1-4.4,8.1l-10.5,3.2h90.8L329.5,149.3z"/>
				<rect x="32.8" y="18.1" class="st28" width="358.3" height="358.3"/>
			</g>
		</g>
	</g>
	<g>
		<g>
			
				<ellipse transform="matrix(0.3841 -0.9233 0.9233 0.3841 -32.6847 357.7456)" class="st29" cx="251.8" cy="203.4" rx="11" ry="11"/>
			<circle class="st5" cx="256" cy="198.1" r="3.4"/>
			<path class="st5" d="M261.7,203.3c0,0.8-0.7,1.5-1.5,1.5s-1.5-0.7-1.5-1.5s0.7-1.5,1.5-1.5C261,201.8,261.7,202.5,261.7,203.3z"
				/>
		</g>
		<g>
			<path class="st5" d="M251.8,164.1c-17,0-30.8,13.8-30.8,30.8s13.8,30.8,30.8,30.8s30.8-13.8,30.8-30.8S268.8,164.1,251.8,164.1z
				 M251.8,222.7c-15.3,0-27.8-12.5-27.8-27.8s12.5-27.8,27.8-27.8s27.8,12.5,27.8,27.8S267.2,222.7,251.8,222.7z"/>
		</g>
		<g>
			<ellipse class="st29" cx="172.2" cy="203.3" rx="11" ry="11"/>
			<circle class="st5" cx="176.4" cy="198.1" r="3.4"/>
			<path class="st5" d="M182.1,203.3c0,0.8-0.7,1.5-1.5,1.5s-1.5-0.7-1.5-1.5s0.7-1.5,1.5-1.5C181.4,201.8,182.1,202.5,182.1,203.3z
				"/>
		</g>
		<g>
			<path class="st5" d="M172.2,164.1c-17,0-30.8,13.8-30.8,30.8s13.8,30.8,30.8,30.8s30.8-13.8,30.8-30.8S189.2,164.1,172.2,164.1z
				 M172.2,222.7c-15.3,0-27.8-12.5-27.8-27.8s12.5-27.8,27.8-27.8s27.8,12.5,27.8,27.8C199.9,210.2,187.5,222.7,172.2,222.7z"/>
		</g>
		<g>
			<path class="st5" d="M222.4,196.2c-0.6,0-1.1-0.3-1.4-0.9c-0.1-0.3-2.9-6.3-9-6.3s-8.8,6-9,6.3c-0.3,0.8-1.2,1.1-2,0.8
				s-1.1-1.2-0.8-2c0.1-0.3,3.6-8.1,11.7-8.1c8.1,0,11.6,7.7,11.7,8.1c0.3,0.8,0,1.6-0.8,2C222.8,196.2,222.6,196.2,222.4,196.2z"/>
		</g>
		<g>
			<path class="st5" d="M281.1,194.4c-0.3,0-0.7-0.1-1-0.4c-0.6-0.5-0.6-1.4-0.1-2l32-35.1c0.5-0.6,1.4-0.6,2-0.1s0.6,1.4,0.1,2
				l-32,35.1C281.9,194.3,281.5,194.4,281.1,194.4z"/>
		</g>
		<g>
			<path class="st5" d="M142.9,194.4c-0.4,0-0.8-0.2-1.1-0.5l-32.1-35.1c-0.5-0.6-0.5-1.5,0.1-2c0.6-0.5,1.5-0.5,2,0.1l32.1,35.1
				c0.5,0.6,0.5,1.5-0.1,2C143.6,194.3,143.3,194.4,142.9,194.4z"/>
		</g>
	</g>
</g>
</svg>
