<?xml version="1.0" encoding="UTF-8"?>
<svg id="_圖層_2" data-name="圖層 2" xmlns="http://www.w3.org/2000/svg" width="176.69" height="210.52" viewBox="0 0 176.69 210.52">
  <g id="_第一cut" data-name="第一cut">
    <g>
      <g>
        <g>
          <path d="m69.72,132.96c-.74-.24-2.15-.27-2.74,0-.56.25-1.41.18-1.96.39-.52.22-.9,1.5-1.01,1.91-.1.38.04,1.01.65,1.17,1.22.31.85.42,1.94.46,1.77.07,2.94-.25,4.01-1.2l1.32-.67-.54-2.34s-.82.15-1.67.27Z" style="fill: #f68970;"/>
          <path d="m70.46,134.15c-.51-1.3.11-1.73.11-1.73,0,0,10.35-5.64,11.38-6.36,1.03-.72,8.07-14.09,8.07-14.09,0,0,2.37-5.14,5.35-5.32,2.92-.18,4.62,1.73,5.6,3.6,1.16,2.23-2.47,2.87-3.79,5.02-4.65,7.61-8.19,12.74-10.15,14.06-4.38,2.93-15.43,6.46-15.43,6.46,0,0-.75-.61-1.14-1.63Z" style="fill: #41566d;"/>
        </g>
        <g>
          <g>
            <path d="m19.02,141.48l.25,1.61s1.82,2.68-1.1,4.58c0,0-1.28.7-1.56-.28-.28-.98-.02-.63-.45-2-.43-1.37-.14-2.76.78-3.34l.63-.98,1.46.4Z" style="fill: #ff9c82;"/>
            <path d="m17.96,143.02c1.3.17,1.48.05,1.48.05,0,0,4-11.95,4.42-13.05.42-1.1,10.46-14.49,10.46-14.49l-5.2-11s-10.5,20.27-11.52,23.08c-1.68,4.66-1.34,14.71-1.34,14.71,0,0,.68.57,1.7.7Z" style="fill: #2790d9;"/>
            <path d="m16.09,143.24s-.24,1.3-.52,1.69c-.28.39-.54.72-.3.91.24.19,1.26-.83,1.3-1.03.04-.21-.48-1.57-.48-1.57Z" style="fill: #ff9c82;"/>
          </g>
          <g>
            <rect x="8.16" y="143.33" width="16.81" height="27.32" rx="4.39" ry="4.39" transform="translate(-141.19 151.25) rotate(-81.89)" style="fill: #5770a2;"/>
            <path d="m3.78,163.77l18.33,2.61c2.4.34,4.64-1.34,4.98-3.74l1.15-8.05c.34-2.4-1.34-4.64-3.74-4.98l-3.66-.52.24-1.72c.05-.38-.04-.77-.28-1.08-.23-.31-.57-.51-.96-.57l-5.48-.78c-.79-.11-1.53.44-1.64,1.23l-.24,1.72-6.31-.9c-2.4-.34-4.64,1.34-4.98,3.74L.04,158.78c-.34,2.4,1.34,4.64,3.74,4.98Zm16.16-14.81l-6.56-.93.24-1.72c.03-.24.22-.42.45-.46.05,0,.11,0,.16,0l5.48.78c.3.04.5.32.46.61l-.24,1.72Z" style="fill: #b0b5bc;"/>
          </g>
          <path d="m29.27,104.04s4.1,3.39,8.1.94c0,0,.52-2.4.23-4.06-.04-.2-.07-.4-.1-.59-.31-1.86-.44-2.91-.44-2.91,0,0,0,0,0,0-.21-.05-7.06-1.51-7.02-1.29,1.02,5-.77,7.91-.77,7.91Z" style="fill: #ff9c82;"/>
          <path d="m30.89,97.21c.82,1.03,3.34,2.87,6.6,3.12-.31-1.86-.44-2.91-.44-2.91,0,0,0,0,0,0-.19-.02-6.4-.51-6.16-.21Z" style="fill: #f68970;"/>
          <path d="m38.36,96.99s-6.86,2.99-8.66-1.32c-1.79-4.3-3.89-6.82.42-8.91,4.31-2.09,5.85-.8,6.8.49.95,1.29,3.18,8.85,1.44,9.74Z" style="fill: #ff9c82;"/>
          <path d="m30.16,96.85c-.09.08-1.54.83-5.52-4.46-.62-.83-1.3-2.75-.54-4.69.75-1.94,4.29-4,7.34-5.17,3.04-1.17,4.12.47,5.18,2.11,1.12,1.73,3.65,2.86,3.65,2.86-2.44,2.01-6.11.43-7.18,1-1.07.56-1.14,2.42-1.13,3.01.02.59-.03,1.09-1.54.83-1.52-.25-.28,2.14.04,2.58,0,0,.43,1.25-.29,1.93Z" style="fill: #41566d;"/>
          <g>
            <path d="m19.73,210.34h-4.41c-.93,0-1.95-.93-2.21-2.62-.26-1.7-2.16-2.62-2.57-4.01-.41-1.39,1.7-3.34,1.7-3.34l.35-.45.37-.47,3.5.82s.09.83.14,1.89c.04.77.06,1.65.01,2.43-.1,1.85.52,3.84,2.16,4.2,1.65.36.96,1.55.96,1.55Z" style="fill: #6575a4;"/>
            <path d="m50.45,210.34h-11.7c-.11-.02-.2-.05-.25-.07-.78-.39-.54-3.38-.44-4.3.02-.17.03-.27.03-.27,0,0,4.11-3.29,4.68-.77.02.08.04.16.06.23h0c.71,2.36,3.91,3.43,5.75,3.73,1.41.23,1.77,1.05,1.87,1.46Z" style="fill: #6575a4;"/>
            <path d="m48.09,142.89s-.62,7.79-1.36,17.16c-1,12.73-2.2,28.36-2.32,31.32-.21,5.14-1.03,13.37-1.03,13.37,0,0-1.95,1.95-5.86,1.13,0,0-3.48-11.74-4.48-24.17-.02-.2-.03-.41-.05-.61-.93-12.65-2.36-39.28-2.36-39.28l17.45,1.08Z" style="fill: #798394;"/>
            <path d="m48.09,142.89s-.62,7.79-1.36,17.16l-13.68,21.65c-.02-.2-.03-.41-.05-.61-.93-12.65-2.36-39.28-2.36-39.28l17.45,1.08Z" style="fill: #41566d;"/>
            <path d="m45.24,143.81s-11.26,28.23-18.66,41.49c-7.4,13.26-9.72,16.97-9.72,16.97,0,0-4.24-1.7-4.63-2.85,0,0,2.83-25.61,7.79-31.85,2.8-3.53,6.09-14.11,6.25-17.82.15-3.7,1-11.03,1-11.03l17.97,5.09Z" style="fill: #798394;"/>
          </g>
          <path d="m48.68,145.6c-.12.12-.27.2-.45.21-1.65.09-6.39,1.33-10.49,1.19-3.45-.1-6.56-.91-9.91-2.15-.45-.16-1.48-.63-1.49-1.11-.02-.53-.02-1.3-.02-2.28,0-3.38.01-9.19-.83-15.84-.16-1.24-.28-2.47-.36-3.68-.22-3.16-.22-6.21.03-8.96.47-5.11,1.78-9.19,4-11.1.29-.24,2.25.55,4.04,1.29,1.66.68,3.27.66,4.76.25l1.61,1.24c1.96,1.59,4.14,3.78,5.26,7.26.57,1.78,1.04,4.31,1.34,6.15.39,2.38.73,5.08,1.04,7.82.11,1.06.54,4.63,1.05,11.52.34,4.71.5,8.11.41,8.19Z" style="fill: #2db3fe;"/>
          <path d="m48.27,137.41c-10.4-3.58-14.8-19.23-14.8-19.23l14.05,10.58c.24,2.38.5,5.42.5,5.51.09,1.09.17,2.14.24,3.14Z" style="fill: #2790d9;"/>
          <g>
            <path d="m64.3,133c1.28-.39,2.51-.22,2.68-.04-.92.36-1.88.84-1.4.96.57.25,1-.28,1.94-.25.57.02,1.52.46,2.25.79.39.18-.03,2.14-1.74,2.39-1.75.25-3.25-.08-4.45-1.06l-1.36-.58.39-2.37s.96.4,1.68.17Z" style="fill: #ff9c82;"/>
            <path d="m63.64,134.23c.42-1.33-.22-1.72-.22-1.72,0,0-13.1-5.84-14.18-6.5-1.08-.65-8.5-13.46-8.5-13.46,0,0-2.76-5.24-6.13-5.06-2.92.16-4.5,2.02-5.36,3.95-1.02,2.3-.5,5,1.27,6.78,3.98,4.02,11.96,11.97,14.01,13.15,4.56,2.64,18.07,4.55,18.07,4.55,0,0,.7-.66,1.04-1.7Z" style="fill: #2db3fe;"/>
          </g>
        </g>
        <g>
          <path d="m100.37,104.46s-2.07.27-3.99.94c-4.2,1.31-4.16,2.68-6.04,7.23-1.13,3.59-1.56,11.2-.66,19.95,0,0,.96,5.27,5.49,3.9,5.57-1.68,5.2-32.03,5.2-32.03Z" style="fill: #798394;"/>
          <path d="m91.8,136.92s1.55,53.85-1.38,70.12c-.17.92-2.74,1.83-2.74,1.83l5.23,1.1,1.76-8.98s7.97-12.87,4.88-23.38c-.16-.55.46-3.37.55-3.93.47-2.79,2.92-9.41,3.7-13.93.94-5.44-11.99-22.82-11.99-22.82Z" style="fill: #ff9c82;"/>
          <path d="m96.83,105.68l1.65,1.2,5.23-.8c-.1-.42-.2-1.12-.27-2.27,0-.11-.01-.23-.02-.36-.04-.74-.07-1.64-.08-2.75,0-.04,0-.07,0-.11,0-.27,0-.56,0-.86,0-.05,0-.09,0-.14l-2.27.58-3.58.91-.07.02s.03.22.04.59h0c.02.5.02,1.28-.11,2.16-.09.61-.26,1.19-.51,1.84Z" style="fill: #ff9c82;"/>
          <path d="m96.16,92.06s1.08-9.19,12.89-5.13c2.68.92,1.94,9.11-4.79,11.92l-8.1-6.79Z" style="fill: #41566d;"/>
          <path d="m113.46,195.19c-.22,2.22-.26,4.14-.52,5.8,0,0-.02.06-.04.19-.52,3.38-1.29,5.69-1.64,7.65-.41,2.31-5.63.62-5.3.02,0,0,2.13-.91,3.32-3.75,1.85-4.42-1.53-21.27-3.66-29.27-.41-1.55-.78-2.78-1.03-3.51-.04-.15-.11-.3-.17-.5-.06-.19-.15-.43-.24-.69-.45-1.34-1.08-3.3-1.79-5.65-2.2-6.96-5.3-17.29-7.26-23.88-.02,0-.02-.02-.02-.04-.6-2.07-1.12-3.75-1.44-4.87-.13-.43-.24-.78-.3-1.01-.09-.28-.13-.41-.13-.41,1.14-.82,2.2-1.44,3.21-1.85.54-.24,1.06-.41,1.55-.54,2.74-.67,4.98.19,6.81,2.48.5.6.97,1.32,1.4,2.11.75,1.36,1.4,3.02,2,4.94.52,1.62,1.03,4.57,1.55,7.98v.02c1.01,6.83,1.67,15.47,2.42,19.11.13.63.41,1.07.62,1.51.84,1.78,1.22,3.82,1.44,6.32.37,4.44.02,10.15-.78,17.85Z" style="fill: #ff9c82;"/>
          <path d="m96.32,202.64c-.22-.56-1.65-1.65-1.65-1.65,0,0-2.04,7.46-2.89,7.68-2.04.51-4.09.2-4.09.2,0,0-1.48.72-1.07,1.45.16.29,6.07.27,6.25.06.5-.56,1.24-3.7,1.79-4.37l.05,4.41s.57.08.57,0c0-.07.03-3.67.35-5.85.44-.77.8-1.6.68-1.92Z" style="fill: #b1665e;"/>
          <path d="m114.6,202.64c-.22-.56-1.65-1.65-1.65-1.65,0,0-2.04,7.46-2.89,7.68-2.04.51-4.09.2-4.09.2,0,0-1.48.72-1.07,1.45.16.29,6.07.27,6.25.06.5-.56,1.24-3.7,1.79-4.37l.05,4.41s.57.08.57,0c0-.07.03-3.67.35-5.85.44-.77.8-1.6.68-1.92Z" style="fill: #b1665e;"/>
          <path d="m112.99,169.72s-.17.06-.47.17c-1.16.43-4.33,1.53-8.1,2.28-.45.11-.91.19-1.36.28-.88.15-1.79.28-2.69.39-.3.04-.58.06-.88.09-1.66.15-4.91-.41-7.29-.88-1.6-.32-2.78-.6-2.78-.6,0,0,2.88-27.54,1.91-35.12-.04-.37-.85-3.05-.91-3.31h.28l5.45-.17,2-.06,6.21-.19s.06.06.22.17c.6.52,2.44,2.2,4.05,5,.65,1.06,1.23,2.26,1.7,3.62.34.99.65,2.05.86,3.19,1.44,7.85,1.81,25.15,1.81,25.15Z" style="fill: #2db3fe;"/>
          <path d="m106.55,112.58c-.05.5-.11,1.03-.17,1.57-.2,1.78-.45,3.76-.69,5.79-.32,2.64-.63,5.37-.84,7.83,0,.06,0,.11-.01.17-.17,1.96-.28,3.75-.27,5.18,0,.83.04,1.54.13,2.1.05.29.1.55.18.75,0,0,0,0,0,0-.05.03-.62.37-1.62.74-.32.12-.69.24-1.11.35,0,0-.01,0-.02,0-.16.04-.33.09-.5.13-.75.18-1.61.32-2.57.39-1.76.12-3.87-.03-6.22-.74-.42-.13-.85-.27-1.28-.43-.03,0-.05-.02-.08-.03-.01,0-.03,0-.04-.02-.03-.01-.06-.02-.1-.04,0,0-.16-.65-.37-1.76,0-.06-.02-.11-.03-.17-.15-.81-.32-1.84-.48-3.03-.49-3.63-.86-8.78-.15-13.78.44-3.07,1.93-4.55,3.04-7.63.82-2.27,2.34-3.88,3.67-4.76,0,0-.46,2.49,6.54-.18h0s-.06.2-.04.21c.18.04.36.09.54.15,1.24.36,2.39.92,2.73,1.76.22.56.08,2.63-.22,5.44Z" style="fill: #2790d9;"/>
          <path d="m97.34,103.84c2.8.05,5.48-2.6,6-3.14.06-.06.09-.09.09-.09l-.09-.02-2.27-.42-3.58.91-.07.02s.03.22.04.59h0c.02.5.02,1.28-.11,2.16Z" style="fill: #f68970;"/>
          <path d="m96.32,101.44s6.92,1.73,7.94-2.59c1.01-4.33,2.59-7.02-1.79-8.31-4.38-1.29-5.63.16-6.32,1.52-.69,1.36-1.61,8.82.17,9.38Z" style="fill: #ff9c82;"/>
          <path d="m99.27,89.42s-2.09,2.38,1.41,4.82c3.5,2.43,3.01,6.95,1.99,8.18,0,0,7.51-6.66,4.38-10.99-3.13-4.33-7.77-2-7.77-2Z" style="fill: #41566d;"/>
          <path d="m98.68,90.35s-2.9.22-3.22,3.53c0,0-1.01-5.33,3.55-5.01,4.56.32-.33,1.47-.33,1.47Z" style="fill: #41566d;"/>
          <path d="m108.31,106.37c-1.93-1.35-4.76-1.36-4.76-1.36,0,0-7.78,8.62-8.43,12.98-.65,4.33.04,15.95,2.5,17.63.63.41,1.44.8,2.37,1.1,1.64.56,3.62.93,5.45,1.08,1.31.09,2.57.09,3.58-.09,0,0,.93-13.15,1.21-22.16,0,0,0,0,0-.01.9-4.31.79-7.28-1.92-9.17Z" style="fill: #798394;"/>
          <path d="m110.23,115.56c-.28,9.01-1.21,22.16-1.21,22.16-1.01.17-2.26.17-3.58.09-.02-.04-.06-.08-.06-.13,0-2.18,3.14-14.25-2.08-26.41.55-3.73,6.93,4.29,6.93,4.29Z" style="fill: #41566d;"/>
          <path d="m112.99,169.72s-.17.06-.47.17c-1.16.43-4.33,1.53-8.1,2.28-.45.11-.91.19-1.36.28.41-.24.78-.58,1.12-.97,3.36-3.75,4.89-13.36,5.58-20.74v-.02c.47-4.96.56-8.88.56-9.35.34.99.65,2.05.86,3.19,1.44,7.85,1.81,25.15,1.81,25.15Z" style="fill: #2790d9;"/>
        </g>
        <g>
          <g>
            <rect x="103.49" y="139.78" width="16.81" height="27.32" rx="4.39" ry="4.39" transform="translate(-55.8 242.57) rotate(-81.89)" style="fill: #798394;"/>
            <path d="m99.11,160.22l18.33,2.61c2.4.34,4.64-1.34,4.98-3.74l1.15-8.05c.34-2.4-1.34-4.64-3.74-4.98l-3.66-.52.24-1.72c.05-.38-.04-.77-.28-1.08-.23-.31-.57-.51-.96-.57l-5.48-.78c-.79-.11-1.53.44-1.64,1.23l-.24,1.72-6.31-.9c-2.4-.34-4.64,1.34-4.98,3.74l-1.15,8.05c-.34,2.4,1.34,4.64,3.74,4.98Zm16.16-14.81l-6.56-.93.24-1.72c.03-.24.22-.42.45-.46.05,0,.11,0,.16,0l5.48.78c.3.04.5.32.46.61l-.24,1.72Z" style="fill: #41566d;"/>
          </g>
          <path d="m111.93,139.79c-.75.7-1.44,1.86-1.21,2.08.15.08.4-.29.7-.47-.1.58-.18.86-.43,1.1-.02.48.66.61,1.4.73.39.06,1.39.36,1.92-.23.41-.45.61-1.67.45-2.73l-.22-1.54-2.08-.55s-.03,1.02-.54,1.6Z" style="fill: #ff9c82;"/>
          <path d="m112.94,139.56c-1.38-.2-1.45-.95-1.45-.95,0,0,.19-11.79.08-13.04-.12-1.25-4.44-8.34-7.51-12.92-3.73-5.57,1.78-9.05,5.19-5.57,2.85,2.91,7.55,13.98,7.66,15.68.41,6.04-1.98,16.61-1.98,16.61,0,0-.9.35-1.98.19Z" style="fill: #798394;"/>
        </g>
      </g>
      <path d="m155.92,0h-86.94c-11.42,0-20.77,9.35-20.77,20.77v32.89c0,5.22,1.96,10,5.17,13.66l-5.17,23.61,29.79-16.5h77.93c11.42,0,20.77-9.35,20.77-20.77V20.77c0-11.42-9.35-20.77-20.77-20.77Z" style="fill: #2db3fe;"/>
      <g>
        <text transform="translate(82.17 31.06)" style="fill: #fff; font-family: NotoSansTC-Bold, &apos;NotoSansTC Bold-90ms-RKSJ-H&apos;; font-size: 20.01px; font-weight: 700;"><tspan x="0" y="0">機關及</tspan><tspan x="-10.01" y="24.01">國際合作</tspan></text>
        <text transform="translate(82.17 31.06)" style="fill: #fff; font-family: NotoSansTC-Bold, &apos;NotoSansTC Bold-90ms-RKSJ-H&apos;; font-size: 20.01px; font-weight: 700;"><tspan x="0" y="0">機關及</tspan><tspan x="-10.01" y="24.01">國際合作</tspan></text>
      </g>
    </g>
  </g>
</svg>