<?xml version="1.0" encoding="UTF-8"?>
<svg id="_圖層_2" data-name="圖層 2" xmlns="http://www.w3.org/2000/svg" width="100.11" height="110.11" viewBox="0 0 100.11 110.11">
  <g id="_漂浮按鈕" data-name="漂浮按鈕">
    <g id="environmental_edu">
      <g>
        <path d="m100.11,50.06c0,27.65-22.41,50.06-50.06,50.06C22.41,100.11,0,77.7,0,50.06,0,22.41,22.41,0,50.06,0c27.65,0,50.06,22.41,50.06,50.06Z" style="fill: #8cd26f; stroke-width: 0px;"/>
        <polygon points="85.42 76.89 84.67 110.11 54.88 98.23 85.42 76.89" style="fill: #8cd26f; stroke-width: 0px;"/>
      </g>
      <g>
        <g>
          <path d="m30.04,39.47c-2.73.85-5.57,1.76-7.83,2.43l-.44-1.99c.97-.23,2.11-.56,3.37-.94v-8.24h-2.73v-1.94h2.73v-6.51h-3.02v-1.96h7.83v1.96h-2.87v6.51h2.55v1.94h-2.55v7.68l2.73-.85.23,1.91Zm18.15-1.38c-1.26.79-2.76,1.64-4.08,2.26,1.35,1.26,3.05,2.26,5.01,2.79-.47.38-1.06,1.14-1.32,1.67-4.02-1.32-6.86-4.34-8.3-8.24-1.03.91-2.26,1.79-3.58,2.55v3.37l4.9-1.11c-.06.47-.06,1.23,0,1.61-5.6,1.44-6.42,1.7-6.92,1.99-.12-.47-.5-1.23-.76-1.61.38-.21.97-.65.97-1.82v-1.47c-1.06.5-2.14.97-3.17,1.29-.26-.47-.82-1.14-1.26-1.5,2.55-.67,5.51-1.99,7.54-3.49h-4.37v-6.01h13.81v6.01h-5.37c.44,1,1.03,1.99,1.73,2.84,1.29-.73,2.76-1.73,3.67-2.43l1.5,1.29Zm.32-9.33h-17.63v-1.79h17.63v1.79Zm-1-3.26h-15.4v-6.16h15.4v6.16Zm-10.79-4.58h-2.79v2.99h2.79v-2.99Zm-1.88,13.84h9.74v-2.76h-9.74v2.76Zm6.28-13.84h-2.84v2.99h2.84v-2.99Zm4.52,0h-2.96v2.99h2.96v-2.99Z" style="fill: #fff; stroke-width: 0px;"/>
          <path d="m60.53,37.83c-2.93,1.2-6.1,2.43-8.56,3.37l-.7-2.2c1.03-.32,2.29-.76,3.67-1.26v-10.26h-3.2v-2.05h3.2v-6.77h2.11v6.77h2.84v2.05h-2.84v9.5l3.08-1.14.41,1.99Zm14.05,5.16c.41,0,.85-.03,1-.12.23-.06.44-.29.53-.62.06-.41.09-1.32.12-2.49.44.38,1.17.76,1.76.94-.06,1.14-.18,2.35-.35,2.85-.23.44-.56.76-1.08.91-.44.15-1.23.23-1.79.23h-1.96c-.67,0-1.55-.15-1.99-.5-.53-.35-.73-.82-.73-2.38v-4.34h-2.61c-.47,4.22-1.97,6.45-7.3,7.71-.21-.5-.76-1.32-1.14-1.7,4.75-.97,6.01-2.61,6.39-6.01h-3.05v-8.3h13.31v8.3h-3.55v4.55c0,.44.03.73.26.82.18.12.44.15.79.15h1.41Zm2.64-15.34h-16.28v-1.88h4.13c-.15-.79-.53-1.94-.91-2.82l1.79-.38c.38.91.88,2.14,1.06,2.9l-1.08.29h4.87c.44-.94.97-2.23,1.23-3.11l2.02.44c-.44.94-.91,1.88-1.29,2.67h4.46v1.88Zm-.76-5.34h-14.63v-1.85h6.33c-.23-.65-.56-1.32-.82-1.94l2.02-.38c.35.7.73,1.58,1,2.32h6.1v1.85Zm-12.08,10.26h9.21v-1.91h-9.21v1.91Zm0,3.4h9.21v-1.96h-9.21v1.96Z" style="fill: #fff; stroke-width: 0px;"/>
          <path d="m47.05,60.96c-.7,4.69-1.79,8.53-3.58,11.67,1.44,2.49,3.31,4.52,5.66,5.75-.53.44-1.2,1.23-1.52,1.85-2.23-1.32-4.02-3.2-5.45-5.54-1.73,2.32-3.96,4.19-6.83,5.69-.23-.53-.88-1.5-1.32-1.96,3.05-1.44,5.31-3.37,6.98-5.9-1.14-2.38-1.99-5.13-2.67-8.12-.56,1.29-1.26,2.43-1.96,3.46-.32-.35-1.03-1-1.58-1.38-1.2,1.41-2.87,2.82-4.43,3.87v1.17c1.88-.23,3.81-.5,5.75-.76l.03,1.91c-1.94.26-3.87.53-5.78.82v4.49c0,1.11-.23,1.64-1.06,1.96-.79.32-2.05.32-3.9.32-.12-.59-.41-1.32-.7-1.91,1.47.06,2.7.03,3.08.03.41-.03.5-.12.5-.44v-4.19c-2.17.29-4.16.59-5.84.79l-.26-1.99c1.67-.21,3.78-.47,6.1-.73v-2.02c1.11-.65,2.38-1.67,3.34-2.61h-4.58c-1.14.88-2.32,1.7-3.55,2.4-.32-.41-1.11-1.26-1.55-1.67,2.38-1.2,4.55-2.79,6.39-4.63h-6.19v-1.94h5.07v-2.9h-3.84v-1.88h3.84v-3.08h2.02v3.08h3.02v1.79c.79-1.32,1.5-2.7,2.08-4.16l2.02.59c-1,2.41-2.23,4.58-3.67,6.57h3.55v1.94h-5.1c-.67.73-1.35,1.47-2.08,2.14h4.28l.41-.12,1.03.76c2.23-3.05,3.72-7.71,4.58-12.58l2.17.35c-.32,1.76-.7,3.46-1.17,5.07h8.56v2.05h-1.85Zm-17.83.38h.88c.76-.91,1.44-1.91,2.08-2.9h-2.96v2.9Zm13.05,8.89c1.23-2.58,1.99-5.66,2.55-9.27h-5.13c.56,3.37,1.41,6.54,2.58,9.27Z" style="fill: #fff; stroke-width: 0px;"/>
          <path d="m77.63,58.3h-7.74c2.38,1.64,5.1,3.93,6.51,5.48l-1.85,1.26c-.53-.62-1.23-1.35-2.02-2.11-15.02.76-16.51.79-17.51,1.14-.12-.44-.41-1.47-.65-2.05.67-.12,1.44-.67,2.46-1.52.5-.35,1.44-1.17,2.55-2.2h-7.36v-1.96h9.33c.94-1,1.91-2.11,2.76-3.2l2.17.91c-.67.76-1.38,1.55-2.08,2.29h13.43v1.96Zm-3.05,19.44c0,1.32-.35,1.88-1.35,2.17-.97.29-2.7.26-5.25.26-.09-.59-.35-1.32-.62-1.88,1.82.06,3.78.06,4.22.03.53,0,.7-.18.7-.59v-3.75c-4.63.94-9.44,1.94-13.05,2.58l-.7-1.96c3.31-.5,8.65-1.35,13.75-2.26v-5.37h-14.55v3.43c0,3.08-.5,7.24-3.37,10.09-.32-.41-1.23-1.14-1.73-1.35,2.64-2.55,2.99-6.07,2.99-8.8v-5.22h18.95v12.61Zm-3.96-16.45c-.97-.76-1.96-1.55-2.93-2.2l1.23-.79h-6.69c-1.35,1.29-2.73,2.46-4.08,3.55l12.46-.56Zm-11.23,6.89c3.58.5,8.21,1.64,10.7,2.67l-.67,1.61c-2.43-1.06-7.07-2.32-10.73-2.87l.7-1.41Z" style="fill: #fff; stroke-width: 0px;"/>
        </g>
        <g>
          <path d="m30.04,39.47c-2.73.85-5.57,1.76-7.83,2.43l-.44-1.99c.97-.23,2.11-.56,3.37-.94v-8.24h-2.73v-1.94h2.73v-6.51h-3.02v-1.96h7.83v1.96h-2.87v6.51h2.55v1.94h-2.55v7.68l2.73-.85.23,1.91Zm18.15-1.38c-1.26.79-2.76,1.64-4.08,2.26,1.35,1.26,3.05,2.26,5.01,2.79-.47.38-1.06,1.14-1.32,1.67-4.02-1.32-6.86-4.34-8.3-8.24-1.03.91-2.26,1.79-3.58,2.55v3.37l4.9-1.11c-.06.47-.06,1.23,0,1.61-5.6,1.44-6.42,1.7-6.92,1.99-.12-.47-.5-1.23-.76-1.61.38-.21.97-.65.97-1.82v-1.47c-1.06.5-2.14.97-3.17,1.29-.26-.47-.82-1.14-1.26-1.5,2.55-.67,5.51-1.99,7.54-3.49h-4.37v-6.01h13.81v6.01h-5.37c.44,1,1.03,1.99,1.73,2.84,1.29-.73,2.76-1.73,3.67-2.43l1.5,1.29Zm.32-9.33h-17.63v-1.79h17.63v1.79Zm-1-3.26h-15.4v-6.16h15.4v6.16Zm-10.79-4.58h-2.79v2.99h2.79v-2.99Zm-1.88,13.84h9.74v-2.76h-9.74v2.76Zm6.28-13.84h-2.84v2.99h2.84v-2.99Zm4.52,0h-2.96v2.99h2.96v-2.99Z" style="fill: #fff; stroke-width: 0px;"/>
          <path d="m60.53,37.83c-2.93,1.2-6.1,2.43-8.56,3.37l-.7-2.2c1.03-.32,2.29-.76,3.67-1.26v-10.26h-3.2v-2.05h3.2v-6.77h2.11v6.77h2.84v2.05h-2.84v9.5l3.08-1.14.41,1.99Zm14.05,5.16c.41,0,.85-.03,1-.12.23-.06.44-.29.53-.62.06-.41.09-1.32.12-2.49.44.38,1.17.76,1.76.94-.06,1.14-.18,2.35-.35,2.85-.23.44-.56.76-1.08.91-.44.15-1.23.23-1.79.23h-1.96c-.67,0-1.55-.15-1.99-.5-.53-.35-.73-.82-.73-2.38v-4.34h-2.61c-.47,4.22-1.97,6.45-7.3,7.71-.21-.5-.76-1.32-1.14-1.7,4.75-.97,6.01-2.61,6.39-6.01h-3.05v-8.3h13.31v8.3h-3.55v4.55c0,.44.03.73.26.82.18.12.44.15.79.15h1.41Zm2.64-15.34h-16.28v-1.88h4.13c-.15-.79-.53-1.94-.91-2.82l1.79-.38c.38.91.88,2.14,1.06,2.9l-1.08.29h4.87c.44-.94.97-2.23,1.23-3.11l2.02.44c-.44.94-.91,1.88-1.29,2.67h4.46v1.88Zm-.76-5.34h-14.63v-1.85h6.33c-.23-.65-.56-1.32-.82-1.94l2.02-.38c.35.7.73,1.58,1,2.32h6.1v1.85Zm-12.08,10.26h9.21v-1.91h-9.21v1.91Zm0,3.4h9.21v-1.96h-9.21v1.96Z" style="fill: #fff; stroke-width: 0px;"/>
          <path d="m47.05,60.96c-.7,4.69-1.79,8.53-3.58,11.67,1.44,2.49,3.31,4.52,5.66,5.75-.53.44-1.2,1.23-1.52,1.85-2.23-1.32-4.02-3.2-5.45-5.54-1.73,2.32-3.96,4.19-6.83,5.69-.23-.53-.88-1.5-1.32-1.96,3.05-1.44,5.31-3.37,6.98-5.9-1.14-2.38-1.99-5.13-2.67-8.12-.56,1.29-1.26,2.43-1.96,3.46-.32-.35-1.03-1-1.58-1.38-1.2,1.41-2.87,2.82-4.43,3.87v1.17c1.88-.23,3.81-.5,5.75-.76l.03,1.91c-1.94.26-3.87.53-5.78.82v4.49c0,1.11-.23,1.64-1.06,1.96-.79.32-2.05.32-3.9.32-.12-.59-.41-1.32-.7-1.91,1.47.06,2.7.03,3.08.03.41-.03.5-.12.5-.44v-4.19c-2.17.29-4.16.59-5.84.79l-.26-1.99c1.67-.21,3.78-.47,6.1-.73v-2.02c1.11-.65,2.38-1.67,3.34-2.61h-4.58c-1.14.88-2.32,1.7-3.55,2.4-.32-.41-1.11-1.26-1.55-1.67,2.38-1.2,4.55-2.79,6.39-4.63h-6.19v-1.94h5.07v-2.9h-3.84v-1.88h3.84v-3.08h2.02v3.08h3.02v1.79c.79-1.32,1.5-2.7,2.08-4.16l2.02.59c-1,2.41-2.23,4.58-3.67,6.57h3.55v1.94h-5.1c-.67.73-1.35,1.47-2.08,2.14h4.28l.41-.12,1.03.76c2.23-3.05,3.72-7.71,4.58-12.58l2.17.35c-.32,1.76-.7,3.46-1.17,5.07h8.56v2.05h-1.85Zm-17.83.38h.88c.76-.91,1.44-1.91,2.08-2.9h-2.96v2.9Zm13.05,8.89c1.23-2.58,1.99-5.66,2.55-9.27h-5.13c.56,3.37,1.41,6.54,2.58,9.27Z" style="fill: #fff; stroke-width: 0px;"/>
          <path d="m77.63,58.3h-7.74c2.38,1.64,5.1,3.93,6.51,5.48l-1.85,1.26c-.53-.62-1.23-1.35-2.02-2.11-15.02.76-16.51.79-17.51,1.14-.12-.44-.41-1.47-.65-2.05.67-.12,1.44-.67,2.46-1.52.5-.35,1.44-1.17,2.55-2.2h-7.36v-1.96h9.33c.94-1,1.91-2.11,2.76-3.2l2.17.91c-.67.76-1.38,1.55-2.08,2.29h13.43v1.96Zm-3.05,19.44c0,1.32-.35,1.88-1.35,2.17-.97.29-2.7.26-5.25.26-.09-.59-.35-1.32-.62-1.88,1.82.06,3.78.06,4.22.03.53,0,.7-.18.7-.59v-3.75c-4.63.94-9.44,1.94-13.05,2.58l-.7-1.96c3.31-.5,8.65-1.35,13.75-2.26v-5.37h-14.55v3.43c0,3.08-.5,7.24-3.37,10.09-.32-.41-1.23-1.14-1.73-1.35,2.64-2.55,2.99-6.07,2.99-8.8v-5.22h18.95v12.61Zm-3.96-16.45c-.97-.76-1.96-1.55-2.93-2.2l1.23-.79h-6.69c-1.35,1.29-2.73,2.46-4.08,3.55l12.46-.56Zm-11.23,6.89c3.58.5,8.21,1.64,10.7,2.67l-.67,1.61c-2.43-1.06-7.07-2.32-10.73-2.87l.7-1.41Z" style="fill: #fff; stroke-width: 0px;"/>
        </g>
      </g>
    </g>
  </g>
</svg>