<?xml version="1.0" encoding="UTF-8"?>
<svg id="_圖層_2" data-name="圖層 2" xmlns="http://www.w3.org/2000/svg" width="264.42" height="264.43" xmlns:xlink="http://www.w3.org/1999/xlink" viewBox="0 0 264.42 264.43">
  <defs>
    <clipPath id="clippath">
      <circle cx="132.21" cy="132.21" r="122.5" style="fill: none; stroke-width: 0px;"/>
    </clipPath>
  </defs>
  <g id="_圖層_8" data-name="圖層 8">
    <g id="exploration4">
      <g>
        <path d="m132.21,0c-1.93,0-3.89.04-5.82.13l.42,9.7c1.45-.06,2.9-.1,4.36-.11h.05s0,0,0,0c.06,0,.13,0,.19,0,0,0,0,0,0,0,.01,0,.03,0,.04,0h.01s.03,0,.04,0h0s.03,0,.05,0h0s.07,0,.1,0h0s.03,0,.04,0h.01s.02,0,.04,0c0,0,0,0,.01,0,.01,0,.02,0,.03,0h.02s.02,0,.04,0h0s.06,0,.1,0h.01s.02,0,.03,0h.06s.02,0,.03,0h.11V0h0Zm-9.3.32c-1.93.13-3.88.31-5.8.53l1.1,9.65c.26-.03.52-.06.78-.09,0,0,0,0,.01,0,0,0,.01,0,.02,0,0,0,.02,0,.03,0h.02s.02,0,.03,0c0,0,0,0,.01,0,.01,0,.03,0,.04,0h0c1.47-.16,2.94-.29,4.43-.39l-.67-9.69h0Zm-9.26.97c-1.92.27-3.85.59-5.75.94l1.78,9.55c.93-.17,1.86-.33,2.79-.49h0s.03,0,.04,0h0s.02,0,.03,0c0,0,.01,0,.01,0,0,0,.02,0,.03,0,0,0,.02,0,.02,0,0,0,.02,0,.03,0,0,0,.02,0,.02,0,0,0,0,0,0,0,.77-.12,1.55-.24,2.33-.35l-1.35-9.62h0Zm-9.18,1.62c-1.89.4-3.8.86-5.67,1.34l2.45,9.4c1.74-.45,3.49-.87,5.25-1.24l-2.03-9.5h0Zm-9.04,2.27c-1.86.54-3.73,1.12-5.56,1.74l3.11,9.2s0,0,0,0c.03,0,.05-.02.08-.03h0s.05-.02.07-.02c0,0,0,0,.01,0,.02,0,.04-.01.07-.02,0,0,.01,0,.02,0,.02,0,.04-.01.06-.02,0,0,.02,0,.02,0,.01,0,.04-.01.05-.02h.03s.02-.02.04-.02c.02,0,.03-.01.05-.02.01,0,.02,0,.03-.01l.06-.02s.02,0,.03,0c.01,0,.03,0,.04-.01h.02s.04-.02.07-.03c0,0,0,0,.01,0l.08-.02h0c1.42-.47,2.86-.92,4.31-1.33l-2.7-9.33h0Zm-8.86,2.91c-1.81.67-3.64,1.38-5.42,2.13l3.75,8.96c.93-.39,1.87-.77,2.81-1.14,0,0,0,0,0,0l.08-.03s0,0,0,0c.03,0,.05-.02.08-.03,0,0,0,0,0,0,.05-.02.1-.04.15-.06,0,0,0,0,.01,0,.02,0,.04-.02.07-.03,0,0,.01,0,.02,0,.02,0,.04-.02.06-.02,0,0,.01,0,.02,0,.02,0,.04-.02.06-.02,0,0,.01,0,.02,0,.02,0,.03-.01.05-.02.01,0,.02,0,.04-.01.01,0,.03-.01.04-.01.01,0,.03-.01.04-.02.01,0,.02,0,.04-.01.01,0,.02,0,.04-.01,0,0,.02,0,.02,0,.02,0,.04-.02.06-.02,0,0,0,0,.01,0,.03,0,.05-.02.08-.03h0c.41-.16.82-.31,1.23-.46l-3.35-9.12h0Zm-8.63,3.53c-1.76.79-3.53,1.64-5.26,2.51l4.38,8.67s.1-.05.15-.08h0c.12-.06.25-.13.38-.19,0,0,0,0,0,0,.02-.01.05-.02.07-.04,0,0,0,0,0,0,.02-.01.05-.02.07-.04,0,0,0,0,0,0,.07-.04.15-.07.22-.11h0s.04-.03.07-.04c0,0,0,0,0,0,.02-.01.05-.02.07-.03,0,0,0,0,0,0,.02-.01.05-.02.07-.03,0,0,0,0,0,0,.02-.01.04-.02.07-.03h0s.04-.02.07-.04c0,0,0,0,.01,0,.02-.01.04-.02.07-.03,0,0,0,0,.01,0,.02-.01.04-.02.06-.03,0,0,0,0,.01,0,.02-.01.04-.02.06-.03,0,0,0,0,.01,0,.02-.01.05-.02.07-.03,0,0,0,0,0,0,.02-.01.04-.02.07-.03h0s.04-.03.07-.04c0,0,0,0,.01,0,.02-.01.04-.02.06-.03,0,0,.01,0,.02,0,.02-.01.04-.02.06-.03,0,0,0,0,.01,0,.02-.01.04-.02.07-.03,0,0,0,0,0,0,.02-.01.04-.02.07-.03h0s.05-.02.07-.03c0,0,0,0,.01,0,.02-.01.04-.02.06-.03,0,0,.01,0,.02,0,.02-.01.04-.02.06-.03h.02s.04-.03.06-.04c0,0,0,0,.01,0,.02-.01.04-.02.06-.03,0,0,0,0,.01,0,.02-.01.04-.02.06-.03h.01s.04-.03.06-.04c0,0,.01,0,.02,0,.02,0,.04-.02.06-.03,0,0,0,0,.01,0,.02,0,.04-.02.06-.03,0,0,0,0,.01,0,.02-.01.04-.02.07-.03,0,0,0,0,0,0,.02-.01.04-.02.06-.03,0,0,0,0,0,0,.02-.01.05-.02.07-.03h.01s.04-.03.06-.04c0,0,0,0,.01,0,.02,0,.04-.02.06-.03h.01s.05-.03.07-.04c0,0,0,0,0,0,.02-.01.05-.02.07-.03h0s.05-.02.07-.03c0,0,0,0,0,0,.02-.01.05-.02.07-.03h0s.05-.03.07-.04c0,0,0,0,0,0,.02-.01.05-.02.07-.03,0,0,0,0,0,0,.02-.01.05-.02.07-.03,0,0,0,0,0,0,.05-.02.1-.05.15-.07h0s.05-.02.07-.04c0,0,0,0,0,0,.02-.01.05-.02.07-.03,0,0,0,0,0,0,.31-.14.61-.28.92-.42l-3.99-8.86h0Zm-8.36,4.13c-1.7.92-3.41,1.88-5.07,2.88l4.98,8.34c.29-.17.58-.35.87-.51,0,0,0,0,0,0,.05-.03.09-.06.14-.08,0,0,0,0,0,0,.02-.01.05-.03.07-.04,0,0,0,0,0,0,.02-.01.04-.02.06-.04,0,0,.01,0,.02,0,.02-.01.04-.02.06-.03,0,0,.01,0,.02-.01.02,0,.04-.02.05-.03,0,0,.01,0,.02-.01.02,0,.03-.02.05-.03,0,0,.02-.01.03-.02.01,0,.03-.02.04-.02.01,0,.03-.01.04-.02.01,0,.02-.01.03-.02.01,0,.02-.01.03-.02.01,0,.03-.02.04-.02.01,0,.02-.01.03-.02,0,0,.02-.01.03-.02l.05-.03s.01,0,.02,0c.02-.01.04-.02.06-.04,0,0,0,0,.01,0,.02-.01.05-.03.07-.04h0c.65-.38,1.31-.75,1.97-1.11h0s.05-.03.07-.04c0,0,0,0,.01,0,.02-.01.04-.02.06-.03,0,0,.01,0,.02-.01.01,0,.03-.02.04-.02.01,0,.03-.01.04-.02.01,0,.02-.01.03-.02.01,0,.03-.02.05-.03,0,0,.02,0,.02-.01.02,0,.04-.02.05-.03h.02s.04-.03.06-.04c0,0,0,0,0,0,.02-.01.04-.02.07-.04,0,0,0,0,0,0,.02-.01.05-.03.07-.04,0,0,0,0,0,0,.07-.04.15-.08.22-.12l-4.61-8.55h0Zm-8.04,4.71c-1.63,1.03-3.26,2.12-4.85,3.22l5.55,7.97c.32-.22.65-.45.97-.67,0,0,0,0,0,0,.02-.02.04-.03.06-.04,0,0,0,0,.01,0,.02-.01.04-.03.06-.04,0,0,.01,0,.02-.01.02-.01.04-.03.06-.04,0,0,.01,0,.02-.01.02-.01.03-.02.05-.03l.02-.02s.03-.02.04-.03c0,0,.02-.01.03-.02.01,0,.03-.02.04-.03l.03-.02s.03-.02.04-.03c0,0,.02-.01.03-.02.01,0,.03-.02.04-.03.01,0,.02-.02.03-.02,0,0,.01,0,.02-.01.02-.01.04-.03.06-.04,0,0,0,0,.01,0,.02-.01.04-.03.07-.04h0s.05-.04.07-.05h0c.6-.4,1.2-.8,1.81-1.19,0,0,0,0,.01,0,.02-.01.04-.03.06-.04,0,0,.01,0,.02-.01.02-.01.03-.02.05-.03,0,0,.02-.01.03-.02.01,0,.03-.02.04-.02s.02-.02.04-.02c0,0,.02,0,.02-.01.02-.01.04-.02.05-.03h.02s.04-.04.06-.05c0,0,0,0,.01,0,.02-.01.04-.03.06-.04,0,0,0,0,0,0,.14-.09.28-.18.42-.27l-5.2-8.21h0Zm-7.69,5.26c-1.56,1.15-3.11,2.34-4.61,3.56l6.1,7.56c.05-.04.11-.09.16-.13h0s.04-.04.06-.05c0,0,.01,0,.02-.01.01-.01.03-.02.04-.04,0,0,.02-.02.03-.02,0,0,.02-.01.03-.02.01-.01.03-.02.05-.04,0,0,.01-.01.02-.02.02-.01.03-.03.05-.04,0,0,.01,0,.02-.01.02-.01.04-.03.05-.04,0,0,0,0,0,0,.85-.68,1.72-1.35,2.59-2.01,0,0,0,0,0,0,.02-.01.04-.03.06-.04,0,0,0,0,.01-.01.02-.01.04-.03.05-.04,0,0,.01,0,.02-.01.02-.01.03-.03.05-.04l.02-.02s.03-.02.04-.03l.03-.02s.02-.02.03-.02c.01-.01.03-.02.04-.03,0,0,.02-.01.03-.02.02-.01.03-.02.05-.04,0,0,.01-.01.02-.02.23-.17.46-.34.69-.52l-5.76-7.82h0Zm-7.3,5.79c-1.47,1.25-2.93,2.55-4.35,3.87l6.61,7.11s.1-.09.15-.14h0s.04-.04.06-.06c0,0,0,0,.01-.01.02-.02.03-.03.05-.05,0,0,.01,0,.02-.02.01-.01.03-.03.04-.04,0,0,.02-.02.03-.02,0,0,.02-.02.03-.03.01-.01.03-.02.04-.03,0,0,.02-.02.02-.02.01-.01.03-.02.04-.04,0,0,.02-.01.02-.02.01-.01.02-.02.03-.03,0,0,.02-.02.03-.03.01-.01.02-.02.03-.03,0,0,.02-.02.03-.03.01-.01.02-.02.03-.03l.02-.02s.03-.02.04-.04c0,0,.02-.01.02-.02.01-.01.03-.03.04-.04,0,0,.01-.01.02-.02.01-.01.03-.03.04-.04,0,0,.01-.01.02-.02.01-.01.03-.02.04-.03,0,0,.02-.02.03-.02.01-.01.02-.02.03-.03.01,0,.02-.02.03-.03.01-.01.02-.02.03-.03,0,0,.02-.01.02-.02.01-.01.02-.02.04-.04,0,0,.02-.01.02-.02.01-.01.03-.03.04-.04,0,0,.02-.02.03-.02,0,0,.02-.02.03-.03.01-.01.02-.02.04-.03,0,0,.01-.01.02-.02.01-.01.03-.03.04-.04,0,0,.01-.01.02-.02.02-.02.03-.03.05-.05,0,0,0,0,.01-.01.02-.02.04-.04.06-.06h0c.84-.76,1.7-1.51,2.56-2.24l-6.3-7.4h0Zm-6.88,6.28c-1.38,1.35-2.75,2.75-4.07,4.16l7.1,6.63c.18-.19.36-.39.54-.58,0,0,0,0,.01-.01.01-.02.03-.03.04-.05,0,0,.02-.02.02-.03l.02-.02s.03-.03.04-.04l.02-.02s.03-.03.05-.05c0,0,0,0,0,0,.02-.02.03-.04.05-.06,0,0,0,0,0,0,.97-1.02,1.96-2.02,2.96-3l-6.8-6.94h0Zm-6.42,6.75c-1.28,1.45-2.55,2.94-3.77,4.44l7.54,6.12c1.13-1.4,2.3-2.77,3.49-4.11l-7.27-6.44h0Zm-5.93,7.18c-1.18,1.53-2.34,3.11-3.45,4.69l7.95,5.58h0s.03-.04.04-.07c0,0,0,0,0,0,.02-.02.03-.04.05-.06,0,0,0,0,0,0,.02-.02.03-.04.05-.06,0,0,0,0,0,0,.02-.02.03-.04.05-.06,0,0,0,0,0,0,.86-1.22,1.74-2.42,2.64-3.6,0,0,0,0,0,0,.02-.02.03-.05.05-.07,0,0,0,0,0,0,.02-.02.03-.05.05-.07h0s.03-.04.05-.06c0,0,0,0,0,0,.01-.02.03-.04.04-.06,0,0,0,0,0-.01.01-.02.03-.04.04-.05,0,0,0-.01.01-.02.01-.02.02-.03.04-.05,0,0,.01-.02.02-.02,0-.01.02-.03.03-.04,0,0,0-.01.01-.02l-7.7-5.92h0Zm-5.41,7.58c-1.07,1.61-2.11,3.27-3.11,4.92l8.33,5c.51-.84,1.02-1.68,1.55-2.51,0,0,0,0,0,0,.01-.02.02-.04.04-.06,0,0,0-.01.01-.02.01-.02.02-.04.03-.05,0,0,0-.01.01-.02.01-.02.02-.04.03-.05,0,0,0-.01.01-.02,0-.01.02-.03.03-.04l.02-.04s.01-.02.02-.03c.01-.02.02-.03.03-.05,0,0,0-.01.02-.02.01-.02.02-.04.04-.06,0,0,0,0,.01-.02,0-.01.02-.02.02-.04h0s.03-.05.05-.08h0c.31-.49.63-.97.95-1.46l-8.1-5.36h0Zm-4.87,7.94c-.95,1.68-1.88,3.41-2.75,5.13l8.66,4.4c.07-.13.14-.27.2-.4,0,0,0-.01,0-.01.01-.02.02-.04.03-.06,0,0,0-.02.01-.02,0-.02.02-.04.03-.05,0-.01,0-.02.01-.03l.02-.04s.01-.03.02-.04c0,0,0-.02.01-.03,0-.01.02-.04.03-.05,0,0,0-.02.01-.03,0-.02.02-.04.03-.05,0,0,0-.01.01-.02,0-.02.02-.03.03-.05,0,0,0-.02.01-.02,0-.02.02-.04.03-.05,0,0,0,0,0-.01.01-.02.02-.04.03-.06,0,0,0-.01,0-.02.01-.02.02-.04.03-.06,0,0,0-.01,0-.02.01-.02.02-.04.03-.06,0,0,0-.01,0-.02.01-.02.02-.04.03-.06,0,0,0,0,0,0,.01-.02.02-.04.03-.07,0,0,0,0,0,0,.01-.02.02-.04.04-.07h0s.02-.05.03-.07c0,0,0,0,0-.01.01-.02.02-.05.04-.07,0,0,0,0,0,0,.01-.02.02-.05.04-.07,0,0,0,0,0,0,.03-.05.05-.1.08-.15,0,0,0,0,0,0,.01-.02.03-.05.04-.07,0,0,0,0,0,0,.01-.02.02-.04.04-.07,0,0,0,0,0,0,.01-.02.03-.05.04-.07,0,0,0,0,0,0,.01-.02.03-.05.04-.07,0,0,0,0,0,0,.03-.05.05-.09.08-.14,0,0,0,0,0,0,.01-.02.02-.04.04-.07,0,0,0,0,0,0,.01-.02.02-.05.04-.07,0,0,0,0,0-.01.01-.02.02-.04.03-.07,0,0,0,0,0,0,.01-.02.03-.05.04-.07,0,0,0,0,0,0,.01-.02.03-.05.04-.07,0,0,0,0,0,0,.01-.02.03-.05.04-.07,0,0,0,0,0-.01.01-.02.02-.04.04-.06,0,0,0,0,0-.01.01-.02.02-.04.04-.06,0,0,0,0,0-.01.01-.02.02-.04.04-.07,0,0,0,0,0,0,.01-.02.02-.05.04-.07,0,0,0,0,0,0,.01-.02.02-.04.04-.07,0,0,0,0,0,0,.01-.02.02-.04.04-.06,0,0,0,0,0-.01.01-.02.02-.04.03-.06,0,0,0,0,0-.01.01-.02.02-.04.03-.06h0s.02-.06.03-.08c0,0,0,0,0,0,.01-.02.02-.04.03-.06,0,0,0,0,0,0,.01-.02.02-.04.04-.07,0,0,0,0,0-.01.01-.02.02-.04.03-.06,0,0,0,0,0-.01.01-.02.02-.04.03-.06,0,0,0,0,0-.01.01-.02.02-.04.03-.06,0,0,0,0,0-.01.01-.02.02-.05.04-.07h0s.02-.05.04-.07c0,0,0,0,0,0,.01-.02.03-.05.04-.07,0,0,0,0,0,0,.01-.02.02-.04.04-.06,0,0,0,0,0-.01.01-.02.02-.04.04-.06,0,0,0,0,0,0,.01-.02.02-.04.04-.07,0,0,0,0,0,0,.03-.05.05-.1.08-.14,0,0,0,0,0,0,.01-.02.03-.05.04-.07,0,0,0,0,0,0,.02-.03.03-.05.04-.07,0,0,0,0,0,0,.05-.1.11-.2.16-.29l-8.46-4.78h0Zm-4.3,8.27c-.83,1.75-1.63,3.54-2.38,5.32l8.95,3.78c.47-1.12.96-2.22,1.46-3.32,0,0,0,0,0,0,.01-.02.02-.05.03-.08,0,0,0,0,0,0,.02-.05.04-.1.07-.15,0,0,0,0,0,0,0-.02.02-.04.03-.07,0,0,0-.01,0-.02,0-.02.02-.04.03-.06v-.02s.03-.04.04-.06c0,0,0-.01,0-.02,0-.02.02-.03.02-.05,0,0,0-.02.01-.03,0-.01.01-.03.02-.04,0-.01.01-.02.02-.04,0-.01.01-.03.02-.04,0-.01.01-.02.02-.03,0-.01.01-.03.02-.05,0-.01.01-.02.02-.03,0-.01.01-.03.02-.04,0-.01.01-.03.02-.04,0,0,0-.01.01-.02,0-.02.02-.04.03-.06,0,0,0,0,0-.01.01-.03.02-.05.04-.08h0c.09-.19.18-.38.27-.57l-8.77-4.17h0Zm-3.7,8.55c-.7,1.8-1.38,3.64-2,5.47l9.19,3.13c.05-.16.11-.32.16-.48,0,0,0,0,0,0,0-.02.02-.05.03-.07,0,0,0,0,0,0,0-.03.01-.04.02-.07,0,0,0-.01,0-.02,0-.02.01-.04.02-.06,0,0,0-.01,0-.02,0-.02.01-.03.02-.05v-.03s.02-.03.03-.05c0,0,0-.02.01-.03,0-.01.01-.04.02-.05,0-.01,0-.02.01-.03,0-.02,0-.03.02-.04,0-.01,0-.03.01-.04,0-.01,0-.02.01-.03,0-.02.01-.04.02-.06,0,0,0-.02,0-.02,0-.02.02-.05.02-.07,0,0,0,0,0-.01.04-.1.07-.2.11-.31h0c.42-1.18.86-2.35,1.31-3.51l-9.05-3.54h0Zm-3.09,8.8c-.57,1.85-1.12,3.73-1.61,5.6l9.39,2.47c.46-1.74.96-3.47,1.49-5.19l-9.27-2.89h0Zm-2.45,8.99c-.44,1.88-.85,3.8-1.21,5.7l9.54,1.8c.06-.32.12-.63.18-.95,0,0,0,0,0,0,0-.01,0-.03,0-.04h0s0-.03,0-.04c0,0,0,0,0-.01,0,0,0-.02,0-.03,0-.01,0-.03,0-.04h0s0-.03,0-.05h0s0-.03,0-.05h0c.27-1.36.57-2.72.88-4.06l-9.46-2.22h0Zm-1.81,9.14c-.31,1.91-.58,3.85-.8,5.77l9.65,1.12c.21-1.79.46-3.58.74-5.34l-9.59-1.55h0Zm-1.16,9.24c-.17,1.92-.31,3.88-.39,5.81l9.7.45c.07-1.6.18-3.19.31-4.77h0s0-.03,0-.05h0s0-.03,0-.05h0s0-.04,0-.05h0c0-.05,0-.1.01-.15h0s0-.03,0-.05h0s0-.03,0-.05h0s0-.03,0-.05h0s0-.03,0-.05c0,0,0,0,0,0,0-.04,0-.09.01-.13l-9.67-.87h0ZM.03,129.53c-.02.89-.03,1.79-.03,2.68,0,1.04.01,2.1.04,3.13l9.71-.23c-.02-.72-.03-1.45-.03-2.18h0c0-.08,0-.15,0-.23h0v-.04s0,0,0-.01v-.05s0-.02,0-.03v-.07s0-.01,0-.02v-.1s0-.02,0-.03v-.1h0v-.06h0v-.15h0s0-.05,0-.07v-.02s0-.04,0-.06v-.07s0-.01,0-.02v-.06s0-.02,0-.03c0-.02,0-.03,0-.05v-.04s0-.03,0-.04c0-.01,0-.02,0-.03,0-.01,0-.03,0-.05,0-.01,0-.03,0-.04v-.03s0-.02,0-.03c0-.02,0-.04,0-.05,0-.01,0-.02,0-.04v-.03s0-.04,0-.07v-.02s0-.03,0-.04v-.02s0-.05,0-.07v-.02s0-.03,0-.04c0,0,0-.01,0-.02,0-.02,0-.05,0-.07,0,0,0-.02,0-.02,0-.02,0-.04,0-.06,0,0,0-.02,0-.03,0-.01,0-.02,0-.04,0-.01,0-.02,0-.03,0-.01,0-.03,0-.04,0-.02,0-.03,0-.05,0,0,0-.02,0-.03,0-.02,0-.04,0-.06h0s0-.05,0-.07h0c0-.27,0-.53.01-.79l-9.71-.19H.03Zm9.84,8.83l-9.7.48c.1,1.93.23,3.89.41,5.81l9.67-.9c-.17-1.78-.29-3.58-.38-5.38h0Zm.73,8.6l-9.64,1.16c.23,1.92.51,3.86.82,5.77l9.58-1.58c-.2-1.23-.39-2.47-.56-3.72h0s0-.03,0-.05h0s0-.03,0-.05h0c-.01-.08-.02-.16-.03-.24h0s0-.03,0-.04c0,0,0,0,0-.01,0-.01,0-.02,0-.03,0,0,0,0,0-.01,0-.01,0-.02,0-.03,0,0,0-.01,0-.02,0-.01,0-.02,0-.03,0,0,0-.01,0-.01,0-.01,0-.02,0-.03,0-.01,0-.02,0-.04,0,0,0-.01,0-.02,0,0,0-.02,0-.03,0,0,0,0,0-.01,0-.01,0-.02,0-.03,0,0,0,0,0-.01,0-.01,0-.02,0-.03,0,0,0,0,0,0,0-.01,0-.03,0-.04,0,0,0,0,0,0-.04-.28-.07-.56-.1-.84h0Zm1.33,8.53l-9.54,1.83c.37,1.9.78,3.82,1.23,5.7l9.45-2.26c-.2-.85-.4-1.7-.58-2.56h0s0-.03,0-.05h0s0-.03,0-.04h0s0-.03,0-.04c0,0,0,0,0-.01,0-.01,0-.02,0-.03,0,0,0-.01,0-.02,0-.01,0-.02,0-.03,0,0,0,0,0-.01,0-.01,0-.03,0-.04,0,0,0-.02,0-.03,0,0,0-.01,0-.02,0-.01,0-.02,0-.03,0,0,0,0,0-.01,0-.01,0-.02,0-.03,0,0,0,0,0-.01,0-.01,0-.02,0-.03,0,0,0,0,0,0-.16-.76-.31-1.51-.46-2.27h0Zm1.93,8.41l-9.38,2.51c.5,1.87,1.05,3.75,1.63,5.6l9.26-2.92c-.03-.08-.05-.16-.07-.24,0,0,0,0,0,0,0-.03-.01-.05-.02-.07,0,0,0,0,0-.01,0-.02-.02-.05-.02-.07,0,0,0,0,0,0,0-.02-.01-.05-.02-.07,0,0,0,0,0-.01,0-.02-.01-.04-.02-.06,0,0,0-.01,0-.02,0-.02-.01-.04-.02-.06,0,0,0-.02,0-.03,0-.02-.01-.04-.02-.06,0,0,0-.02,0-.03,0-.01,0-.03-.01-.04,0-.01,0-.03-.01-.04,0-.01,0-.03-.01-.04v-.03s-.02-.03-.03-.05c0-.01,0-.02-.01-.03,0-.02-.01-.04-.02-.05,0-.01,0-.02-.01-.03,0-.01,0-.02-.01-.04,0-.02,0-.03-.01-.05,0-.01,0-.02-.01-.03,0-.02-.01-.03-.02-.05,0-.01,0-.02,0-.03,0-.01,0-.03-.01-.04,0-.01,0-.03-.01-.04,0-.01,0-.02-.01-.04,0-.02-.01-.03-.01-.05,0-.01,0-.02-.01-.03,0-.01,0-.02-.01-.04,0-.02,0-.03-.01-.05,0-.01,0-.02-.01-.03,0-.01,0-.03-.01-.04,0-.02,0-.03-.01-.04,0-.01,0-.02,0-.03,0-.02-.01-.04-.02-.05,0,0,0-.02,0-.03,0-.02-.01-.04-.02-.06,0,0,0-.02,0-.02,0-.02,0-.03-.01-.05,0-.01,0-.02-.01-.04,0-.02,0-.03-.01-.05,0,0,0-.02,0-.02,0-.02-.01-.04-.02-.06,0,0,0-.01,0-.02,0-.02-.01-.04-.02-.06,0,0,0-.01,0-.02,0-.02-.01-.04-.02-.07,0,0,0-.01,0-.02,0-.02-.01-.04-.02-.06,0,0,0,0,0-.01,0-.02-.01-.05-.02-.07,0,0,0,0,0-.01,0-.02-.01-.05-.02-.07,0,0,0,0,0-.01,0-.02-.01-.05-.02-.07,0,0,0,0,0-.01,0-.02-.01-.05-.02-.07,0,0,0,0,0,0,0-.02-.02-.06-.02-.08,0,0,0,0,0,0,0-.03-.01-.05-.02-.08,0,0,0,0,0,0,0-.03-.01-.05-.02-.08,0,0,0,0,0,0-.03-.11-.06-.22-.09-.32,0,0,0,0,0,0-.04-.14-.08-.27-.11-.41,0,0,0,0,0,0,0-.03-.02-.05-.02-.08h0c-.02-.08-.04-.16-.07-.24,0,0,0,0,0,0,0-.03-.01-.05-.02-.07,0,0,0,0,0-.01,0-.03-.01-.05-.02-.07,0,0,0,0,0-.01,0-.02-.01-.05-.02-.07,0,0,0-.01,0-.02,0-.02-.01-.04-.02-.06v-.02s-.02-.04-.02-.06c0,0,0-.02,0-.03,0-.02-.01-.04-.02-.06,0-.01,0-.02,0-.03,0-.01,0-.02,0-.04,0-.02-.01-.04-.01-.05,0,0,0-.01,0-.02,0-.02-.01-.05-.02-.07,0,0,0,0,0-.01-.05-.17-.09-.35-.14-.52h0Zm2.52,8.26l-9.18,3.17c.63,1.83,1.31,3.67,2.02,5.47l9.03-3.57c-.03-.09-.07-.17-.1-.26h0s-.02-.06-.03-.08c0,0,0-.01,0-.02,0-.02-.01-.04-.02-.06,0-.01,0-.02-.01-.03,0-.01,0-.02-.01-.03,0-.02-.01-.03-.02-.05,0,0,0-.02-.01-.03,0-.02-.01-.03-.02-.06,0,0,0-.01,0-.02,0-.02-.02-.04-.02-.06,0,0,0,0,0-.01-.02-.05-.04-.1-.06-.15,0,0,0,0,0,0,0-.03-.02-.05-.03-.08,0,0,0,0,0,0-.45-1.18-.89-2.37-1.31-3.56,0,0,0,0,0,0,0-.03-.02-.05-.03-.08h0s-.02-.05-.03-.08c0,0,0,0,0,0,0-.02-.02-.04-.02-.07v-.02s-.02-.03-.03-.05c0,0,0-.02,0-.02,0-.02-.01-.04-.02-.05,0-.01,0-.02-.01-.03,0-.01-.01-.03-.02-.05,0-.01,0-.03-.01-.04,0,0,0,0,0-.01,0-.01-.01-.03-.02-.04h0Zm3.1,8.06l-8.94,3.81c.76,1.78,1.57,3.56,2.4,5.31l8.76-4.2c-.46-.96-.91-1.93-1.35-2.9,0,0,0,0,0,0-.01-.02-.02-.05-.03-.07,0,0,0,0,0,0,0-.02-.02-.05-.03-.07,0,0,0,0,0-.01,0-.02-.02-.04-.03-.06,0,0,0-.01,0-.02,0-.02-.02-.04-.03-.06,0,0,0-.01,0-.02,0-.02-.02-.04-.02-.05,0,0,0-.02-.01-.03,0-.02-.01-.03-.02-.05l-.02-.03s0-.01-.01-.02c0-.02-.02-.04-.03-.06,0,0,0,0,0-.02-.01-.03-.02-.05-.03-.08h0c-.2-.45-.39-.9-.58-1.35h0Zm3.66,7.82l-8.64,4.43c.88,1.72,1.81,3.44,2.77,5.12l8.44-4.81c-.07-.13-.15-.26-.22-.39,0,0,0-.02-.01-.02-.01-.02-.02-.04-.03-.06,0,0-.01-.02-.01-.03,0-.02-.02-.03-.03-.05,0-.01-.01-.02-.02-.03,0-.01-.01-.02-.02-.04,0-.01-.02-.03-.02-.04,0,0,0-.02-.01-.03,0-.02-.02-.04-.03-.05,0,0,0-.01-.01-.02,0-.02-.02-.04-.03-.06,0,0,0-.01,0-.02-.01-.02-.02-.04-.03-.06,0,0,0,0,0,0-.01-.02-.02-.04-.04-.06,0,0,0,0,0,0-.01-.02-.03-.05-.04-.07,0,0,0,0,0,0-.01-.02-.02-.04-.04-.07h0s-.03-.06-.04-.08c0,0,0,0,0,0-.5-.91-1-1.82-1.48-2.74,0,0,0,0,0,0-.01-.02-.02-.04-.03-.07,0,0,0,0,0-.01-.01-.02-.02-.04-.03-.06,0,0,0-.01,0-.02,0-.02-.02-.04-.03-.06,0,0,0-.01-.01-.02,0-.01-.01-.03-.02-.04,0-.01-.01-.03-.02-.04l-.02-.03s-.02-.04-.03-.06c0,0,0-.02,0-.02-.07-.13-.14-.27-.21-.4h0Zm4.21,7.54l-8.31,5.03c1,1.65,2.05,3.31,3.13,4.91l8.08-5.39c-.22-.33-.43-.65-.65-.98,0,0,0,0,0,0-.01-.02-.03-.04-.04-.06,0,0,0,0,0-.01-.01-.02-.03-.04-.04-.06,0,0,0-.01-.01-.02-.01-.02-.03-.04-.04-.06,0,0,0-.01-.01-.02-.01-.02-.02-.04-.04-.05,0,0,0-.01-.01-.02,0-.01-.02-.03-.03-.05,0,0-.01-.02-.02-.02,0-.01-.02-.03-.03-.04,0,0-.01-.02-.02-.02-.01-.02-.02-.03-.03-.05l-.02-.03s-.02-.03-.03-.05c0,0-.01-.02-.02-.03,0-.01-.02-.02-.02-.04,0-.01-.02-.03-.02-.04,0,0-.01-.02-.02-.03-.01-.02-.02-.03-.03-.05,0,0-.01-.02-.02-.02-.01-.02-.02-.03-.03-.05,0,0,0-.02-.02-.02,0-.01-.02-.03-.03-.04,0,0-.02-.02-.02-.03,0-.01-.01-.02-.02-.03,0,0-.01-.02-.02-.03,0-.01-.02-.03-.03-.04,0,0,0-.01-.01-.02-.01-.02-.02-.04-.04-.06,0,0,0-.01-.01-.02-.01-.02-.02-.04-.04-.06,0,0,0-.01-.01-.02-.01-.02-.02-.04-.03-.05,0,0,0-.01-.01-.02-.01-.02-.03-.04-.04-.06,0,0,0-.01,0-.02,0-.01-.01-.02-.02-.04,0,0-.01-.02-.02-.03,0-.01-.02-.03-.03-.04,0,0-.01-.02-.02-.03,0-.01-.02-.03-.03-.04,0,0-.01-.02-.02-.03,0-.01-.02-.03-.03-.04,0,0-.01-.02-.02-.03,0-.01-.01-.02-.02-.03,0-.01-.02-.03-.03-.04,0,0-.01-.02-.02-.03-.01-.02-.02-.03-.03-.05,0,0-.01-.02-.02-.02-.01-.02-.02-.03-.03-.05,0,0,0-.01-.01-.02-.01-.02-.02-.04-.03-.05,0,0,0,0,0-.01-.01-.02-.03-.04-.04-.06,0,0,0,0,0,0-.01-.02-.03-.04-.04-.07,0,0,0,0,0,0-.01-.02-.03-.04-.04-.07,0,0,0,0,0,0-.3-.48-.59-.96-.88-1.44h0Zm4.73,7.22l-7.94,5.6c1.11,1.58,2.28,3.15,3.46,4.68l7.68-5.95c-.04-.05-.08-.1-.12-.16,0,0,0,0,0,0-.02-.02-.03-.04-.05-.06,0,0,0,0,0-.01-.01-.02-.03-.04-.04-.06,0,0,0,0-.01-.01-.01-.02-.03-.04-.04-.05,0,0-.01-.01-.01-.02-.01-.02-.02-.03-.04-.05,0,0-.01-.02-.02-.03,0-.01-.02-.02-.02-.03,0,0-.01-.02-.02-.02-.01-.02-.02-.03-.03-.05,0,0-.01-.02-.02-.03-.01-.01-.02-.03-.03-.04,0,0-.01-.02-.02-.03,0-.01-.02-.03-.03-.04,0,0-.02-.02-.02-.03,0,0-.01-.02-.02-.03-.01-.02-.02-.03-.03-.04,0,0-.01-.02-.02-.02-.01-.02-.02-.03-.03-.05,0,0-.01-.01-.02-.02-.01-.02-.03-.03-.04-.05,0,0,0-.01-.01-.02-.01-.02-.03-.03-.04-.05,0,0,0,0-.01-.01-.01-.02-.03-.04-.04-.05,0,0,0,0,0-.01-.01-.02-.03-.04-.04-.05,0,0,0,0,0-.01-.01-.02-.03-.04-.04-.06,0,0,0,0,0,0-.02-.02-.03-.04-.05-.06,0,0,0,0,0,0-.02-.02-.03-.04-.05-.06h0c-.74-.99-1.47-1.99-2.18-3h0Zm5.22,6.87l-7.52,6.15c1.22,1.5,2.49,2.99,3.78,4.43l7.25-6.47c-.11-.13-.22-.25-.33-.38,0,0,0,0,0,0-.02-.02-.03-.03-.05-.05,0,0,0,0-.01-.01-.02-.02-.03-.03-.04-.05,0,0-.01-.01-.02-.02-.01-.01-.03-.03-.04-.05,0,0-.01-.01-.02-.02-.01-.01-.02-.03-.03-.04,0-.01-.02-.02-.03-.03,0,0-.02-.02-.02-.03-.01-.01-.02-.03-.03-.04,0,0-.01-.01-.02-.02-.01-.02-.03-.03-.04-.05,0,0-.01-.01-.01-.01-.02-.02-.03-.04-.05-.06,0,0,0,0,0,0-.03-.03-.06-.07-.09-.1h0s-.04-.05-.06-.07h0s-.04-.05-.06-.07h0c-.09-.11-.18-.21-.27-.31h0c-.09-.1-.18-.21-.27-.31h0s-.04-.05-.06-.07c0,0,0,0,0,0-.02-.02-.03-.04-.05-.06,0,0,0,0,0,0-.02-.02-.03-.04-.05-.06,0,0,0-.01-.01-.01-.02-.02-.04-.04-.05-.06h0s-.02-.03-.03-.04c0,0,0,0,0,0-.02-.02-.03-.04-.05-.06,0,0-.01-.01-.02-.02-.01-.01-.03-.03-.04-.04,0,0-.01-.02-.02-.03-.01-.01-.02-.03-.03-.04,0,0-.02-.02-.02-.03l-.03-.04s-.02-.02-.03-.03c0,0-.01-.02-.02-.02-.01-.01-.02-.03-.04-.04,0,0-.01-.01-.02-.02-.01-.01-.03-.03-.04-.05,0,0-.01-.01-.02-.02-.01-.01-.03-.03-.04-.05,0,0-.01-.01-.02-.02-.01-.01-.03-.03-.04-.05,0,0,0,0-.01-.01-.01-.01-.03-.03-.04-.05,0,0,0,0-.01-.01-.01-.02-.03-.04-.04-.05,0,0,0,0-.01-.01-.01-.02-.03-.04-.04-.05,0,0,0,0-.01-.01-.01-.02-.03-.04-.05-.05,0,0,0,0,0-.01-.02-.02-.03-.04-.05-.06,0,0,0,0,0,0-.03-.04-.07-.08-.1-.12,0,0,0,0,0,0-.02-.02-.03-.04-.05-.06,0,0,0,0,0,0-.02-.02-.03-.04-.05-.06,0,0,0,0,0,0-.02-.02-.03-.04-.05-.06h0s-.04-.05-.05-.07c0,0,0,0,0,0-.05-.06-.11-.13-.16-.19,0,0,0,0,0,0-.02-.02-.04-.04-.05-.06,0,0,0,0,0,0-.02-.02-.03-.04-.05-.06,0,0,0,0,0,0-.02-.02-.04-.04-.05-.06h0s-.07-.09-.11-.13c0,0,0,0,0,0-.01-.02-.04-.04-.05-.06,0,0,0,0,0,0-.02-.02-.03-.04-.05-.06,0,0,0,0,0-.01-.01-.02-.03-.04-.04-.05,0,0,0,0-.01-.01-.01-.02-.03-.03-.04-.05,0,0,0,0,0,0h0Zm5.69,6.49l-7.07,6.66c1.32,1.41,2.7,2.8,4.08,4.15l6.78-6.96c-1.29-1.25-2.55-2.54-3.78-3.85h0Zm6.13,6.08l-6.59,7.14c1.42,1.31,2.89,2.61,4.36,3.85l6.27-7.42c-.31-.26-.61-.52-.91-.78h0s-.04-.04-.06-.06c0,0-.01-.01-.02-.02-.01-.01-.03-.03-.04-.04,0,0-.02-.02-.03-.02-.01,0-.02-.02-.03-.03-.01-.01-.02-.02-.03-.03,0,0-.02-.02-.03-.02-.01-.01-.03-.02-.04-.03,0,0-.01-.01-.02-.02-.01-.01-.03-.03-.05-.04,0,0-.01-.01-.02-.02-.02-.02-.03-.03-.05-.04,0,0-.01-.01-.02-.02-.01-.01-.03-.03-.05-.04,0,0,0,0-.01-.01-.02-.02-.03-.03-.05-.04,0,0,0,0-.01,0-.02-.02-.03-.03-.05-.04,0,0,0,0,0,0-.02-.02-.04-.03-.05-.05,0,0,0,0-.01,0-.02-.02-.03-.03-.05-.05,0,0,0,0,0,0-.02-.02-.04-.03-.06-.05,0,0,0,0,0,0-.02-.02-.04-.03-.06-.05,0,0,0,0,0,0-.04-.04-.08-.07-.12-.11h0s-.04-.04-.06-.05c0,0,0,0,0,0-.02-.02-.04-.04-.06-.05,0,0,0,0,0,0-.02-.02-.04-.04-.06-.05,0,0,0,0,0,0-.65-.58-1.3-1.16-1.94-1.75h0Zm6.54,5.63l-6.07,7.58c1.51,1.21,3.06,2.4,4.62,3.54l5.74-7.84c-.14-.1-.27-.2-.41-.3,0,0,0,0,0,0-.02-.02-.04-.03-.06-.05,0,0,0,0,0,0-.02-.01-.03-.03-.05-.04,0,0-.01,0-.02-.01-.02-.01-.03-.02-.05-.03,0,0-.02-.01-.03-.02-.01,0-.03-.02-.04-.03-.01,0-.02-.02-.03-.02,0,0-.01-.01-.02-.02-.02-.01-.04-.03-.05-.04,0,0,0,0,0,0-.02-.02-.05-.03-.07-.05h0c-.76-.57-1.52-1.14-2.27-1.73h0s-.04-.04-.07-.05c0,0,0,0-.01,0-.02-.02-.04-.03-.06-.05,0,0,0,0-.01-.01-.02-.01-.03-.03-.05-.04,0,0-.01-.01-.02-.02-.01,0-.02-.02-.03-.03,0,0-.03-.02-.04-.03,0,0-.02-.02-.03-.02-.01,0-.03-.02-.04-.03,0,0-.02-.01-.03-.02-.01,0-.02-.02-.04-.03-.01,0-.02-.02-.03-.03,0,0-.02-.02-.03-.02-.01,0-.02-.02-.03-.03-.01,0-.02-.02-.03-.03,0,0-.02-.02-.03-.02-.01,0-.03-.02-.04-.03,0,0-.02-.01-.02-.02-.01-.01-.03-.02-.04-.04,0,0-.02-.01-.02-.02-.02-.01-.03-.02-.05-.04,0,0-.01-.01-.02-.02-.01-.01-.03-.03-.05-.04,0,0-.01,0-.02-.01-.02-.01-.03-.02-.04-.03,0,0-.02-.01-.03-.02-.01,0-.03-.02-.04-.03,0,0-.02-.01-.02-.02-.01,0-.03-.02-.04-.03,0,0-.02-.01-.02-.02l-.04-.04s-.02-.01-.02-.02c-.01-.01-.03-.02-.04-.04,0,0,0,0-.01,0h0Zm6.92,5.16l-5.53,7.99c1.59,1.1,3.22,2.18,4.86,3.21l5.17-8.22c-.25-.16-.5-.32-.75-.48h0c-.12-.07-.23-.15-.35-.22h0s-.05-.03-.07-.05h0s-.05-.03-.07-.05h0s-.08-.05-.11-.08c0,0,0,0,0,0-.02-.01-.04-.03-.07-.04,0,0-.01,0-.02,0-.02-.01-.04-.02-.06-.04,0,0-.01,0-.02-.01-.02-.01-.03-.02-.05-.03,0,0-.01,0-.02-.01-.02-.01-.03-.02-.05-.03,0,0-.02-.01-.03-.02-.01,0-.02-.01-.03-.02-.01,0-.03-.02-.04-.03-.01,0-.02-.01-.03-.02-.02-.01-.02-.02-.04-.03-.01,0-.02-.01-.03-.02,0,0-.03-.02-.04-.02-.01,0-.02-.02-.03-.02-.01,0-.02-.02-.04-.02-.01,0-.02-.01-.03-.02-.01,0-.03-.02-.04-.03,0,0-.02-.01-.02-.02-.02-.01-.03-.02-.05-.03,0,0-.01,0-.02-.01-.02-.01-.03-.02-.05-.03h-.02s-.04-.04-.05-.05c0,0-.01,0-.02-.01-.02-.01-.03-.02-.05-.03,0,0-.01,0-.02-.01-.02-.01-.03-.02-.05-.03,0,0,0,0-.01,0-.02-.01-.04-.03-.06-.04,0,0,0,0-.01,0-.02-.01-.04-.03-.06-.04,0,0,0,0-.01,0-.02-.01-.04-.03-.06-.04,0,0,0,0,0,0-.02-.01-.04-.03-.07-.04,0,0,0,0,0,0-.07-.05-.14-.09-.21-.14h0s-.05-.03-.07-.05c0,0,0,0,0,0-.51-.34-1.02-.69-1.53-1.04h0Zm7.27,4.66l-4.95,8.36c1.66.99,3.37,1.95,5.08,2.86l4.58-8.57s0,0,0,0c-.02-.01-.04-.02-.07-.03,0,0,0,0,0,0-.02-.01-.04-.02-.07-.04,0,0,0,0,0,0-1.09-.59-2.17-1.18-3.24-1.8,0,0,0,0,0,0-.02-.01-.04-.02-.07-.04,0,0,0,0,0,0-.02-.01-.04-.02-.06-.04h-.02s-.04-.03-.06-.04c0,0,0,0-.01,0-.02,0-.04-.02-.05-.03,0,0-.01,0-.02-.01-.02,0-.03-.02-.05-.03,0,0-.02-.01-.03-.02-.01,0-.03-.02-.04-.03l-.03-.02s-.03-.02-.04-.03c-.01,0-.02-.01-.03-.02-.01,0-.03-.02-.04-.02-.01,0-.03-.02-.04-.02,0,0-.01,0-.01,0-.02-.01-.04-.03-.07-.04h0c-.21-.12-.41-.24-.62-.37h0Zm7.58,4.14l-4.35,8.69c1.73.87,3.5,1.7,5.27,2.49l3.96-8.87c-.27-.12-.54-.24-.81-.36h0s-.04-.02-.07-.03c0,0-.02,0-.02,0-.02,0-.03-.01-.05-.02-.01,0-.03-.01-.04-.02-.01,0-.02,0-.03-.01-.02,0-.03-.01-.05-.02,0,0-.02,0-.03-.01-.02,0-.04-.02-.05-.02,0,0-.01,0-.02,0-.02,0-.04-.02-.05-.02,0,0-.01,0-.02,0-.02,0-.04-.02-.06-.03,0,0,0,0-.01,0-.02-.01-.04-.02-.07-.03,0,0,0,0-.01,0-.02,0-.05-.02-.07-.03,0,0,0,0,0,0-.02-.01-.05-.02-.07-.03,0,0,0,0,0,0-1.12-.52-2.24-1.06-3.34-1.61h0Zm7.85,3.59l-3.72,8.97c1.79.74,3.61,1.45,5.43,2.11l3.32-9.13c-.42-.15-.84-.31-1.26-.47,0,0,0,0,0,0-.02,0-.05-.02-.07-.03,0,0-.01,0-.02,0-.02,0-.04-.02-.06-.02,0,0-.01,0-.02,0-.02,0-.04-.02-.06-.02,0,0-.01,0-.02,0-.02,0-.03-.01-.05-.02-.01,0-.02,0-.03-.01-.01,0-.03-.01-.04-.02-.01,0-.02,0-.03-.01-.01,0-.03-.01-.04-.02h-.03s-.03-.03-.05-.03c-.01,0-.02,0-.04-.01,0,0-.01,0-.02,0-.02,0-.04-.02-.06-.02,0,0,0,0-.02,0-.02,0-.05-.02-.07-.03,0,0,0,0-.01,0-.81-.31-1.62-.63-2.43-.96h0s-.06-.02-.09-.04h0s-.08-.03-.12-.05c0,0-.02,0-.02-.01-.02,0-.04-.01-.05-.02-.01,0-.02,0-.03-.01-.01,0-.03-.01-.04-.02-.01,0-.03-.01-.04-.02,0,0-.02,0-.02-.01-.02,0-.04-.02-.06-.02h-.02s-.04-.03-.06-.03c0,0,0,0,0,0h0Zm8.09,3.02l-3.08,9.21c1.83.61,3.71,1.19,5.57,1.72l2.67-9.34c-1.18-.34-2.34-.69-3.5-1.06h0s-.05-.02-.08-.03h0s-.05-.02-.07-.03c0,0-.01,0-.01,0-.02,0-.04-.01-.07-.02,0,0-.01,0-.02,0-.01,0-.02,0-.04-.01-.01,0-.03,0-.04-.01-.02,0-.03,0-.04-.01-.01,0-.03,0-.04-.01-.01,0-.03,0-.04-.01-.01,0-.03,0-.04-.01,0,0-.02,0-.03,0-.02,0-.04-.01-.06-.02,0,0-.01,0-.02,0-.02,0-.04-.01-.07-.02,0,0-.01,0-.01,0-.03,0-.04-.01-.07-.02,0,0,0,0,0,0-.29-.1-.58-.19-.87-.29h0Zm8.28,2.44l-2.42,9.41c1.87.48,3.78.93,5.67,1.32l2-9.51c-1.77-.37-3.52-.78-5.25-1.23h0Zm8.43,1.85l-1.74,9.56c1.9.35,3.84.66,5.75.92l1.32-9.62c-.95-.13-1.89-.27-2.84-.42,0,0,0,0,0,0-.01,0-.02,0-.04,0,0,0,0,0,0,0,0,0-.02,0-.03,0,0,0,0,0-.01,0,0,0-.02,0-.03,0,0,0-.01,0-.02,0,0,0-.02,0-.02,0,0,0-.02,0-.03,0,0,0-.01,0-.02,0-.03,0-.06,0-.09-.01h0s-.03,0-.04,0h0s-.03,0-.04,0h0s-.03,0-.04,0h0c-.69-.11-1.37-.23-2.05-.36h0Zm8.54,1.25l-1.07,9.66c1.92.21,3.87.38,5.8.51l.64-9.69c-.9-.06-1.8-.13-2.7-.21t0,0c-.08,0-.16-.01-.24-.02,0,0,0,0-.01,0,0,0-.02,0-.03,0,0,0-.01,0-.02,0h-.02s-.02,0-.03,0c0,0-.01,0-.02,0,0,0-.02,0-.03,0h-.02s-.02,0-.03,0c0,0,0,0-.01,0-.03,0-.06,0-.09,0,0,0,0,0,0,0-.01,0-.03,0-.04,0h0s-.03,0-.04,0h0s-.03,0-.05,0h0c-.6-.06-1.19-.12-1.78-.18h0s-.03,0-.04,0h0s-.02,0-.04,0c0,0,0,0-.01,0-.01,0-.02,0-.03,0,0,0,0,0-.01,0-.01,0-.03,0-.04,0h0s0,0,0,0h0Zm8.61.65l-.39,9.71c1.78.07,3.58.11,5.37.11h.45s-.03-9.71-.03-9.71c-.05,0-.1,0-.14,0,0,0-.02,0-.03,0h0c-.08,0-.16,0-.24,0h-.09s-.05,0-.07,0c0,0,0,0-.01,0-.02,0-.04,0-.06,0,0,0-.01,0-.01,0-.02,0-.04,0-.07,0,0,0-.01,0-.02,0-.02,0-.04,0-.06,0h0s-.05,0-.07,0c0,0-.01,0-.02,0-.02,0-.05,0-.07,0,0,0,0,0,0,0-.02,0-.04,0-.07,0,0,0-.01,0-.02,0-.02,0-.04,0-.07,0,0,0,0,0,0,0-.02,0-.04,0-.07,0,0,0,0,0,0,0-.02,0-.05,0-.07,0,0,0,0,0,0,0-.02,0-.05,0-.07,0h0s-.05,0-.07,0c0,0,0,0,0,0-.05,0-.1,0-.15,0,0,0,0,0,0,0-.02,0-.05,0-.07,0,0,0,0,0,0,0-.05,0-.1,0-.15,0h0c-1.19-.01-2.39-.04-3.57-.09h0Zm14.02-.23c-.11,0-.22.02-.33.02h0s-.03,0-.04,0h0c-.1,0-.19.01-.29.02,0,0,0,0,0,0-.01,0-.02,0-.04,0,0,0,0,0,0,0-.07,0-.14,0-.2.01h0s-.02,0-.04,0c0,0,0,0,0,0,0,0-.03,0-.03,0,0,0,0,0-.01,0-.01,0-.02,0-.03,0,0,0,0,0,0,0-.05,0-.11,0-.16.01,0,0,0,0,0,0-.01,0-.02,0-.03,0h-.01s-.02,0-.03,0c0,0,0,0-.01,0,0,0-.02,0-.03,0,0,0-.01,0-.02,0-.01,0-.02,0-.03,0,0,0,0,0,0,0-.04,0-.07,0-.11,0,0,0-.01,0-.02,0-.01,0-.02,0-.03,0,0,0-.01,0-.02,0,0,0-.02,0-.03,0,0,0-.01,0-.02,0,0,0-.02,0-.03,0,0,0-.01,0-.02,0-.01,0-.01,0-.03,0,0,0-.01,0-.02,0,0,0-.02,0-.03,0,0,0,0,0,0,0-.02,0-.04,0-.07,0,0,0-.01,0-.02,0,0,0-.02,0-.02,0,0,0-.01,0-.02,0,0,0-.02,0-.03,0,0,0-.01,0-.02,0,0,0-.02,0-.02,0,0,0-.01,0-.02,0,0,0-.02,0-.02,0,0,0-.02,0-.03,0,0,0-.01,0-.02,0-.01,0-.03,0-.04,0,0,0-.02,0-.02,0,0,0-.02,0-.03,0,0,0-.02,0-.02,0,0,0-.02,0-.02,0,0,0-.01,0-.02,0,0,0-.02,0-.03,0,0,0-.01,0-.02,0,0,0-.02,0-.03,0,0,0-.01,0-.02,0,0,0-.02,0-.03,0,0,0-.01,0-.02,0-.01,0-.03,0-.04,0,0,0-.01,0-.02,0-.01,0-.02,0-.03,0,0,0-.02,0-.02,0,0,0-.02,0-.03,0,0,0-.01,0-.02,0s-.02,0-.02,0c0,0-.01,0-.02,0,0,0-.02,0-.03,0,0,0-.01,0-.02,0,0,0-.02,0-.03,0,0,0-.01,0-.02,0-.01,0-.02,0-.03,0,0,0-.01,0-.02,0-.01,0-.03,0-.04,0,0,0-.01,0-.02,0,0,0-.02,0-.03,0,0,0-.01,0-.02,0,0,0-.02,0-.02,0,0,0-.01,0-.02,0h-.03s-.01,0-.02,0c0,0-.02,0-.03,0,0,0-.01,0-.02,0-.01,0-.02,0-.03,0,0,0,0,0-.01,0-.02,0-.03,0-.05,0,0,0-.01,0-.01,0-.01,0-.02,0-.03,0,0,0-.01,0-.02,0,0,0-.02,0-.03,0,0,0-.01,0-.02,0,0,0-.02,0-.03,0,0,0-.01,0-.02,0,0,0-.02,0-.03,0,0,0-.01,0-.02,0-.01,0-.02,0-.03,0,0,0,0,0-.01,0-.02,0-.03,0-.05,0,0,0,0,0-.01,0-.01,0-.02,0-.03,0,0,0-.02,0-.02,0,0,0-.02,0-.03,0,0,0-.01,0-.02,0,0,0-.02,0-.03,0,0,0-.01,0-.02,0,0,0-.02,0-.02,0,0,0-.01,0-.02,0,0,0-.01,0-.02,0,0,0-.02,0-.02,0,0,0,0,0,0,0-.02,0-.04,0-.06,0,0,0-.01,0-.02,0,0,0-.02,0-.02,0,0,0-.02,0-.02,0,0,0-.01,0-.02,0,0,0-.01,0-.02,0,0,0-.02,0-.02,0,0,0-.01,0-.02,0,0,0-.02,0-.03,0,0,0-.01,0-.02,0-.04,0-.08,0-.11,0,0,0,0,0,0,0-.01,0-.02,0-.03,0,0,0,0,0-.01,0-.01,0-.02,0-.03,0h-.01s-.02,0-.03,0c0,0,0,0-.01,0-.01,0-.02,0-.03,0,0,0,0,0,0,0-.44.02-.87.03-1.31.05l.28,9.71c1.93-.06,3.89-.16,5.81-.3l-.71-9.69h0Zm8.58-.93c-.21.03-.43.06-.64.09h0s-.03,0-.04,0h-.01s-.02,0-.04,0c0,0,0,0-.01,0-.01,0-.02,0-.03,0,0,0-.01,0-.01,0-.01,0-.03,0-.04,0h0s-.03,0-.04,0h-.02s-.01,0-.02,0c0,0-.02,0-.02,0,0,0-.01,0-.02,0,0,0-.02,0-.03,0,0,0-.01,0-.02,0,0,0-.02,0-.03,0h-.01s-.02,0-.03,0c0,0,0,0,0,0-.07,0-.13.02-.2.03,0,0,0,0,0,0-.01,0-.02,0-.04,0h0s-.02,0-.04,0c0,0,0,0,0,0-.07,0-.14.02-.21.03,0,0,0,0,0,0-.01,0-.03,0-.04,0,0,0,0,0,0,0-.01,0-.03,0-.04,0,0,0,0,0,0,0-.01,0-.02,0-.04,0,0,0,0,0,0,0-.07,0-.13.02-.2.03,0,0,0,0,0,0-.01,0-.02,0-.03,0,0,0,0,0-.01,0,0,0-.02,0-.03,0,0,0,0,0-.01,0-.01,0-.02,0-.03,0,0,0,0,0-.01,0-.01,0-.02,0-.03,0,0,0-.01,0-.02,0,0,0-.02,0-.03,0-.01,0-.03,0-.04,0,0,0-.01,0-.02,0h-.03s-.02,0-.02,0c0,0-.02,0-.03,0t-.02,0h-.03s0,0-.01,0c-.01,0-.02,0-.03,0h0s-.03,0-.04,0h0c-.98.12-1.96.23-2.95.33l.96,9.67c1.92-.19,3.87-.43,5.78-.7l-1.39-9.61h0Zm8.5-1.53c-.97.21-1.95.41-2.93.6h0s-.03,0-.04,0c0,0,0,0-.01,0-.01,0-.02,0-.03,0,0,0-.01,0-.02,0h-.02s-.01,0-.02,0c0,0-.01,0-.02,0-.01,0-.02,0-.03,0,0,0,0,0-.01,0-.72.14-1.43.27-2.15.39l1.64,9.57c1.91-.33,3.83-.7,5.72-1.11l-2.06-9.49h0Zm8.37-2.13c-.26.08-.51.15-.77.22h0c-.07.02-.15.04-.22.06h0s-.06.02-.08.02h0s-.05.02-.08.03c0,0,0,0,0,0-.04.01-.09.02-.13.04,0,0,0,0-.01,0-.02,0-.05.01-.07.02,0,0-.01,0-.02,0-.02,0-.04.01-.06.02,0,0-.02,0-.03,0-.02,0-.04,0-.05.01-.01,0-.02,0-.03,0h-.04s-.04.02-.05.02c-.01,0-.02,0-.03,0-.02,0-.03,0-.05.01-.01,0-.02,0-.03,0-.02,0-.03,0-.04.01-.01,0-.02,0-.03,0-.02,0-.03,0-.05.01,0,0-.02,0-.02,0-.02,0-.04.01-.06.02,0,0-.01,0-.02,0-.02,0-.04.01-.06.02,0,0-.01,0-.02,0-.02,0-.04.01-.07.02,0,0,0,0-.01,0-.02,0-.05.01-.07.02,0,0,0,0,0,0-.02,0-.05.01-.07.02,0,0,0,0,0,0-.03,0-.05.01-.08.02,0,0,0,0,0,0-.92.25-1.85.49-2.78.72l2.31,9.43c1.88-.46,3.77-.97,5.63-1.51l-2.73-9.32h0Zm8.19-2.72c-1.1.41-2.21.8-3.33,1.18,0,0,0,0,0,0-.02,0-.05.02-.07.02,0,0,0,0-.01,0-.02,0-.04.02-.07.02,0,0-.01,0-.02,0-.02,0-.04.01-.06.02,0,0-.01,0-.02,0-.02,0-.03.01-.05.02,0,0-.02,0-.03,0-.01,0-.03.01-.05.02-.01,0-.02,0-.03.01-.01,0-.03.01-.05.02-.01,0-.02,0-.04.01,0,0-.02,0-.03,0-.02,0-.04.01-.06.02,0,0,0,0-.02,0-.02,0-.05.02-.07.02h0c-.36.12-.72.24-1.08.36l2.98,9.25c1.84-.59,3.69-1.23,5.51-1.91l-3.38-9.1h0Zm7.98-3.29c-1.63.74-3.29,1.45-4.96,2.12l3.63,9.01c1.79-.72,3.6-1.49,5.36-2.29l-4.02-8.84h0Zm7.73-3.85s-.04.02-.07.04c0,0,0,0-.01,0-.02,0-.04.02-.06.03,0,0-.01,0-.02.01-.02,0-.03.02-.05.03,0,0-.02.01-.03.02-.01,0-.02.01-.04.02-.01,0-.03.02-.04.02,0,0-.01,0-.02.01-.02.01-.04.02-.06.03,0,0,0,0-.01,0-.02.01-.05.03-.07.04h0c-1.42.77-2.86,1.5-4.31,2.21l4.25,8.73c1.74-.85,3.48-1.74,5.18-2.67l-4.64-8.54h0Zm7.44-4.39s0,0,0,0c-.05.03-.09.06-.13.09,0,0,0,0,0,0-.02.01-.04.03-.07.04,0,0,0,0,0,0-.02.01-.04.03-.06.04,0,0,0,0,0,0-.02.01-.04.03-.07.04,0,0,0,0,0,0-1.21.77-2.43,1.51-3.67,2.24,0,0,0,0,0,0-.02.01-.05.03-.07.04,0,0,0,0,0,0-.02.01-.04.03-.07.04,0,0,0,0,0,0-.02.01-.04.02-.06.03,0,0,0,0-.01,0-.02.01-.03.02-.05.03,0,0-.02,0-.02.01-.02,0-.03.02-.05.03-.01,0-.02.01-.03.02-.01,0-.03.02-.04.02l-.04.02s0,0-.01,0c-.04.02-.08.04-.11.07l4.86,8.41c1.67-.97,3.35-1.98,4.98-3.02l-5.23-8.19h0Zm7.11-4.9s0,0,0,0c-.02.02-.04.03-.06.04h-.01s-.04.04-.06.05c0,0,0,0-.01,0-.02.02-.04.03-.06.04,0,0,0,0,0,0-.02.01-.04.03-.06.05,0,0,0,0,0,0-.02.01-.04.03-.06.05,0,0,0,0,0,0-.02.01-.04.03-.06.05h0s-.04.03-.06.05c0,0,0,0,0,0-.02.01-.04.03-.06.04h0s-.04.04-.06.05c0,0,0,0,0,0-1.13.83-2.28,1.64-3.44,2.43,0,0,0,0,0,0-.02.02-.04.03-.06.04,0,0,0,0-.01,0-.02.01-.03.02-.05.04,0,0-.01,0-.02.01-.02.01-.03.02-.05.03-.01,0-.02.01-.03.02,0,0-.01,0-.02.02-.02.01-.04.03-.06.04h0s-.02.02-.03.03l5.44,8.05c1.6-1.08,3.2-2.21,4.75-3.37l-5.79-7.8h0Zm6.75-5.38c-.4.34-.79.68-1.19,1.01h0c-.08.07-.16.14-.24.2,0,0-.01,0-.01.01-.02.01-.04.03-.05.04,0,0,0,0-.01.01-.02.01-.03.03-.05.04,0,0-.01.01-.02.02-.01.01-.03.02-.04.04,0,0-.02.01-.03.02,0,0-.02.02-.03.02-.01.01-.03.02-.04.03,0,0-.02.01-.02.02-.01.01-.03.02-.04.03,0,0-.02.01-.03.02-.01,0-.02.02-.03.03-.01,0-.02.02-.03.03-.01,0-.02.02-.03.03-.01,0-.02.02-.03.03,0,0-.02.02-.03.03-.01,0-.02.02-.03.03-.01,0-.03.02-.04.03,0,0-.02.01-.02.02-.01.01-.03.02-.04.04,0,0-.02.01-.02.02-.01.01-.03.02-.04.04,0,0-.02.01-.02.02-.01.01-.03.02-.04.03,0,0-.02.01-.02.02-.01.01-.02.02-.04.03,0,0-.02.01-.03.02-.01,0-.02.02-.04.03,0,0-.02.01-.03.02-.01,0-.03.02-.04.03,0,0-.02.01-.02.02-.01.01-.03.02-.04.04,0,0-.02.01-.03.02-.01.01-.03.02-.04.03,0,0-.02.01-.03.02-.01,0-.03.02-.04.03-.01,0-.02.02-.03.02,0,0-.02.02-.03.03-.01,0-.02.02-.03.03-.01,0-.02.02-.03.03-.01,0-.02.02-.03.03-.01,0-.02.02-.03.03,0,0-.02.01-.03.02-.01.01-.03.02-.04.03,0,0-.02.02-.03.02-.01,0-.03.02-.04.03-.01,0-.02.02-.03.02,0,0-.01.01-.02.02-.02.01-.03.03-.05.04,0,0-.01,0-.02.01-.02.02-.04.03-.06.04t-.01,0s-.04.03-.06.05c0,0,0,0,0,0-.32.25-.63.5-.95.75l5.99,7.65c1.52-1.19,3.04-2.43,4.5-3.69l-6.32-7.38h0Zm6.35-5.84s-.01.01-.02.02c0,0-.02.02-.03.03-.01,0-.02.02-.03.03-.01.01-.02.02-.03.03,0,0-.02.02-.02.02-.01.01-.03.02-.04.04l-.02.02s-.03.03-.04.04c0,0-.01.01-.02.02-.01.01-.03.02-.04.04,0,0-.02.02-.02.02-.01.01-.02.02-.03.03-.01,0-.02.02-.03.03-.01.01-.02.02-.03.03,0,0-.02.02-.03.03-.01.01-.02.02-.03.03,0,0-.02.02-.02.02-.01.01-.02.02-.04.04,0,0-.02.02-.02.02-.01.01-.03.03-.04.04,0,0-.02.02-.02.02-.01.01-.02.02-.03.03-.01.01-.02.02-.04.03,0,0-.01.01-.02.02-.01.01-.03.03-.04.04,0,0-.01.01-.02.02l-.05.05s-.01.01-.01.01c-.02.02-.04.04-.06.06h0s-.06.07-.1.1h0s-.04.04-.06.06h0s-.04.04-.06.06h0c-.89.86-1.79,1.7-2.71,2.53,0,0,0,0-.01,0-.01.01-.03.02-.04.04,0,0-.02.02-.03.03,0,0,0,0-.01.01l6.51,7.21c1.43-1.3,2.86-2.64,4.23-4l-6.82-6.91h0Zm5.93-6.27c-.23.26-.47.53-.7.79h0s-.04.04-.05.06c0,0,0,0,0,0-.01.02-.03.03-.04.05,0,0-.01.01-.02.02,0,.01-.02.02-.03.03,0,0-.02.02-.03.03-.01.01-.02.02-.03.03-.01.01-.02.02-.03.03,0,.01-.02.02-.03.03,0,0-.02.02-.03.03,0,0-.02.02-.03.03-.01.01-.02.02-.03.04,0,0-.01.01-.02.02-.02.02-.02.03-.04.04,0,0-.01.01-.02.02-.01.01-.03.03-.04.05,0,0,0,.01-.01.02-.02.02-.03.03-.04.05,0,0,0,0-.01.01-.02.02-.03.03-.05.05,0,0,0,0,0,0-.02.02-.03.04-.05.05,0,0,0,0,0,0-.02.02-.03.04-.05.05,0,0,0,0,0,0-.02.02-.03.04-.05.05,0,0,0,0,0,0-.02.02-.03.03-.05.05,0,0,0,0,0,0-.02.02-.03.04-.05.05,0,0,0,0,0,.01-.02.02-.03.03-.05.05,0,0,0,0,0,0-.02.02-.03.04-.05.06,0,0,0,0,0,0-.02.02-.04.04-.05.06,0,0,0,0,0,0-.02.02-.04.04-.05.06,0,0,0,0,0,0-.02.02-.03.03-.05.05,0,0,0,0,0,0-.02.02-.03.04-.05.05,0,0,0,0,0,0-.02.02-.03.03-.05.05,0,0,0,0,0,0-.02.02-.04.04-.05.06h0s-.04.04-.05.06c0,0,0,0,0,0-.02.02-.03.04-.05.05,0,0,0,0,0,0-.02.02-.03.03-.05.05,0,0,0,0-.01.01-.02.02-.03.03-.05.05,0,0,0,0-.01.01-.02.02-.03.03-.05.05,0,0,0,0,0,.01-.02.02-.03.04-.05.05,0,0,0,0,0,0-.02.02-.03.03-.05.05,0,0,0,0-.01.01-.02.02-.03.03-.04.05,0,0,0,.01-.01.02-.01.01-.03.03-.04.05,0,0-.01.01-.02.02-.02.02-.03.03-.04.05,0,0-.01.01-.02.02-.01.01-.03.03-.04.04,0,0-.01.01-.02.02-.01.01-.02.02-.03.04,0,0-.02.02-.03.03-.01.01-.02.02-.03.03,0,0-.02.02-.03.03-.01.01-.02.02-.03.03,0,0-.02.02-.02.03-.01.01-.02.02-.03.04,0,0-.02.02-.02.03-.01.01-.02.03-.03.04,0,0-.02.02-.03.03,0,0-.02.02-.02.02-.01.01-.03.03-.04.04,0,0-.01.01-.02.02-.01.02-.03.03-.04.05,0,0,0,0-.01.01-.02.02-.03.03-.05.05,0,0,0,0-.01.01-.02.02-.04.04-.05.06,0,0,0,0,0,0-.14.15-.28.3-.43.45l7,6.73c1.34-1.39,2.67-2.83,3.94-4.28l-7.29-6.42h0Zm5.48-6.67s0,0,0,0c-.02.02-.03.04-.05.06,0,0,0,0,0,0-.01.02-.03.04-.04.06,0,0,0,0-.01.01-.01.02-.03.03-.04.05,0,0,0,.01-.01.02-.01.02-.02.03-.04.05,0,0-.01.02-.02.02-.01.02-.02.03-.03.04,0,0-.01.02-.02.03,0,0-.02.02-.02.03-.01.01-.02.03-.03.04,0,0-.01.02-.02.02-.01.02-.02.03-.04.05,0,0,0,.01-.01.02-.01.02-.03.04-.05.06,0,0,0,0,0,0-.35.46-.71.92-1.07,1.37,0,0,0,0,0,.01-.02.02-.03.04-.05.06,0,0,0,0-.01.01-.01.02-.03.04-.04.05,0,0,0,0-.01.02-.01.02-.03.03-.04.05,0,0,0,.01-.02.02l-.03.03s-.02.02-.03.04c0,0-.01.02-.02.03,0,.01-.02.03-.03.04,0,0-.01.02-.02.02-.01.01-.02.03-.03.04,0,0-.01.01-.02.02-.01.01-.02.03-.03.04,0,0,0,.01-.01.02-.01.01-.03.03-.04.05,0,0,0,0,0,.01-.01.02-.03.04-.04.05,0,0,0,0,0,.01-.01.02-.03.04-.04.05,0,0,0,0,0,.01-.01.02-.03.04-.05.06,0,0,0,0,0,0-.02.02-.03.04-.05.06,0,0,0,0,0,0-.39.48-.78.96-1.18,1.43l7.46,6.23c1.24-1.48,2.46-3.01,3.63-4.55l-7.72-5.89h0Zm4.99-7.04c-.69,1.04-1.39,2.08-2.11,3.1h0s-.03.05-.05.07c0,0,0,0,0,.01-.01.02-.03.04-.04.06,0,0,0,.01-.01.02-.01.01-.02.03-.03.04,0,0-.01.02-.02.03,0,.01-.01.02-.02.03,0,.01-.02.03-.03.04,0,0-.01.02-.02.02-.01.02-.02.03-.03.05,0,0,0,.01-.01.02-.01.02-.03.04-.04.05,0,0,0,0,0,0-.02.02-.03.04-.04.06,0,0,0,0,0,0-.02.03-.03.04-.05.07,0,0,0,0,0,0-.18.25-.36.5-.54.75l7.87,5.69c1.13-1.57,2.24-3.18,3.31-4.79l-8.12-5.34h0Zm4.49-7.38s0,0,0,0c-.01.02-.02.04-.03.06,0,0,0,0,0,.01-.01.02-.02.04-.03.06,0,0,0,.01,0,.02-.01.02-.02.04-.03.06,0,0,0,.01,0,.02,0,.02-.02.03-.03.05,0,0,0,.02-.01.03,0,.02-.02.03-.03.05,0,0,0,.01-.01.02,0,.02-.02.03-.03.05v.03s-.03.03-.04.05c0,0,0,.02-.01.03,0,.02-.02.03-.03.05,0,.01-.01.02-.02.03,0,.01-.01.02-.02.03,0,.01-.02.03-.02.04,0,.01-.01.02-.02.03,0,.02-.02.03-.03.05,0,.01,0,.02-.02.03,0,.02-.02.03-.03.04,0,.01-.01.02-.02.03,0,.01-.01.02-.02.04,0,.01-.01.02-.02.03,0,.01-.02.03-.03.04,0,0,0,.02-.01.02-.01.02-.02.04-.03.06,0,0,0,.01-.01.02-.01.02-.02.04-.03.06,0,0,0,.01-.01.02-.01.02-.02.04-.04.06,0,0,0,0,0,.01-.01.02-.03.05-.04.07h0s-.05.08-.07.12c0,0,0,0,0,0-.01.02-.03.05-.04.07,0,0,0,0,0,.01-.01.02-.03.05-.04.07h0s-.03.06-.04.08h0s-.05.08-.07.12h0s-.03.05-.05.08h0s-.03.05-.04.08h0s-.03.06-.04.08h0s-.03.06-.04.08h0c-.04.07-.08.14-.12.2h0s-.03.05-.04.08h0s-.03.05-.04.08c0,0,0,0,0,.01-.04.06-.08.13-.11.19,0,0,0,0,0,.01-.01.02-.03.04-.04.06,0,0,0,0,0,.02-.01.02-.02.04-.04.06,0,0,0,0,0,.01-.01.02-.02.04-.04.06,0,0,0,.01,0,.01-.01.02-.03.04-.04.07,0,0,0,0,0,.01,0,.01-.01.02-.02.04,0,0,0,.01-.01.02-.01.02-.02.04-.03.05,0,0,0,.01-.01.02-.01.02-.02.04-.03.06,0,0,0,.01-.01.02-.01.02-.02.04-.03.06,0,0,0,.01-.01.02-.01.02-.02.03-.03.05,0,0-.01.02-.02.02,0,.01-.01.02-.02.03,0,.01-.02.03-.03.04,0,.01-.01.02-.02.03,0,0-.01.02-.02.03,0,.02-.02.03-.03.05,0,0-.01.02-.02.03,0,.02-.02.03-.03.05,0,0-.01.02-.02.03,0,.01-.02.03-.03.04,0,0-.01.02-.02.03,0,.01-.01.02-.02.03-.01.02-.02.03-.03.04,0,.01-.01.02-.02.03,0,.01-.02.03-.03.05,0,0-.01.02-.02.03,0,.01-.02.03-.02.04,0,.01-.01.02-.02.04,0,0-.01.02-.02.03,0,.01-.02.03-.02.04,0,0-.01.02-.02.03,0,.01-.02.03-.02.04,0,.01-.01.02-.02.04l-.02.03s-.02.03-.03.05c0,0-.01.02-.02.03-.01.02-.02.03-.03.05,0,0-.01.02-.02.03,0,.01-.02.03-.03.04,0,.01-.01.02-.02.03,0,.01-.01.02-.02.03,0,.01-.02.02-.02.04,0,0-.02.03-.02.04,0,.01-.01.02-.02.03,0,.01-.02.03-.02.04,0,0-.01.02-.02.03,0,.01-.02.03-.03.05,0,0,0,0,0,.01l8.25,5.12c1.02-1.64,2.02-3.33,2.96-5.02l-8.47-4.75h0Zm3.95-7.67c-.06.13-.13.27-.19.4,0,0,0,.02-.01.02,0,.02-.02.04-.03.05,0,.01-.01.02-.02.03l-.02.04s-.01.03-.02.04c0,.01-.01.02-.02.03,0,.02-.01.03-.02.05,0,0,0,.01,0,.02,0,.02-.02.04-.03.06,0,0,0,.01,0,.02-.01.02-.02.04-.03.06,0,0,0,0,0,.01-.01.02-.02.04-.03.07,0,0,0,0,0,0-.63,1.32-1.29,2.62-1.97,3.91l8.6,4.53c.9-1.71,1.78-3.47,2.6-5.21l-8.79-4.14h0Zm3.4-7.93c-.65,1.68-1.34,3.35-2.06,4.99l8.89,3.91c.78-1.77,1.53-3.58,2.22-5.39l-9.06-3.51h0Zm2.83-8.16c-.53,1.73-1.1,3.43-1.7,5.12l9.15,3.27c.65-1.82,1.27-3.68,1.84-5.53l-9.28-2.86h0Zm2.24-8.34c-.02.07-.03.14-.05.21h0c-.02.11-.05.22-.08.32h0s-.01.06-.02.09h0c-.02.08-.04.16-.05.23,0,0,0,0,0,.01,0,.03-.01.05-.02.08,0,0,0,0,0,.02,0,.02-.01.05-.02.07,0,0,0,.01,0,.02-.01.04-.02.09-.03.13,0,0,0,0,0,.01,0,.02-.01.05-.02.07,0,0,0,.01,0,.02,0,.02-.01.04-.02.07,0,0,0,.02,0,.02,0,.02,0,.04-.01.06,0,0,0,.02,0,.03,0,.01,0,.03,0,.04,0,.01,0,.02,0,.04,0,.02,0,.03-.01.05,0,.01,0,.01,0,.03,0,.02-.01.04-.02.06,0,0,0,.02,0,.03,0,.02,0,.04-.01.06,0,.01,0,.02,0,.03,0,.02,0,.03-.01.05,0,.01,0,.02,0,.03,0,.01,0,.03,0,.04,0,0,0,.02,0,.03,0,.02,0,.04-.01.06,0,.01,0,.02,0,.03,0,.02,0,.04-.01.06,0,.01,0,.02,0,.03,0,.02,0,.03-.01.05,0,.02,0,.02,0,.04,0,.01,0,.02,0,.04,0,.02,0,.03-.01.05,0,.01,0,.03,0,.04,0,.01,0,.02,0,.03,0,.02,0,.04-.01.05,0,0,0,.02,0,.03,0,.02,0,.03-.01.05,0,.01,0,.02,0,.03,0,.02,0,.03-.01.05,0,.01,0,.03-.01.04,0,.01,0,.03,0,.04,0,.01,0,.03,0,.04,0,.02,0,.03-.01.05,0,.01,0,.02,0,.03,0,.02,0,.04-.01.06,0,0,0,.02,0,.03,0,.02,0,.03-.01.05,0,.01,0,.02,0,.03,0,.01,0,.03,0,.04,0,.02,0,.03-.01.05,0,.01,0,.03,0,.04,0,.01,0,.02,0,.03,0,.02-.01.04-.01.06,0,0,0,.02,0,.03,0,.02-.01.04-.02.06,0,0,0,.02,0,.03,0,.02-.01.04-.02.07,0,0,0,.02,0,.02,0,.01,0,.03-.01.04,0,0,0,0,0,0,0,.03-.01.05-.02.08,0,0,0,.01,0,.02l-.02.07s0,0,0,.02c0,.03-.01.05-.02.08,0,0,0,0,0,0-.01.05-.02.09-.04.14h0s-.02.06-.02.09h0s-.02.06-.02.09h0c-.11.42-.23.84-.34,1.25l9.36,2.61c.52-1.86,1-3.76,1.44-5.65l-9.46-2.19h0Zm1.65-8.47c-.13.81-.26,1.62-.41,2.42,0,0,0,0,0,.01,0,.01,0,.02,0,.03,0,0,0,.01,0,.02,0,0,0,.02,0,.03,0,0,0,.01,0,.02,0,0,0,.01,0,.02,0,0,0,.02,0,.02,0,0,0,.01,0,.02,0,.01,0,.02,0,.03,0,0,0,0,0,0-.16.89-.33,1.79-.51,2.68l9.52,1.94c.39-1.89.73-3.82,1.04-5.73l-9.59-1.52h0Zm1.05-8.57c-.09,1.02-.19,2.05-.3,3.06,0,0,0,0,0,0,0,.01,0,.02,0,.03,0,0,0,0,0,.01,0,0,0,.02,0,.03,0,0,0,.01,0,.02,0,0,0,.01,0,.02,0,.01,0,.02,0,.03,0,0,0,0,0,0-.08.71-.17,1.42-.26,2.13l9.63,1.26c.25-1.91.46-3.86.63-5.79l-9.68-.84h0Zm.44-8.62c0,.23,0,.46-.01.69h0s0,.03,0,.05c0,0,0,0,0,.01,0,.01,0,.02,0,.03,0,0,0,.01,0,.02,0,0,0,.02,0,.03,0,0,0,.02,0,.02,0,0,0,0,0,.01,0,.02,0,.04,0,.07,0,0,0,0,0,0,0,.01,0,.02,0,.04h0s0,.03,0,.05c0,0,0,0,0,0-.04,1.47-.1,2.92-.19,4.37l9.7.58c.12-1.92.19-3.88.22-5.81l-9.71-.16h0Zm9.54-9.15l-9.7.51c.05.87.08,1.74.11,2.61h0s0,.03,0,.05h0s0,.04,0,.05h0s0,.03,0,.05c0,0,0,0,0,.01,0,.01,0,.02,0,.03,0,0,0,.01,0,.02,0,.01,0,.03,0,.04,0,0,0,.02,0,.02v.03s0,.02,0,.02v.02s0,.02,0,.02c0,0,0,.01,0,.02,0,0,0,.02,0,.03,0,0,0,.01,0,.02,0,0,0,.02,0,.03,0,0,0,.01,0,.02,0,.04,0,.08,0,.11h0s0,.02,0,.04c0,0,0,0,0,0,0,.01,0,.02,0,.03,0,0,0,0,0,.01,0,0,0,.02,0,.03,0,0,0,0,0,.01,0,.01,0,.02,0,.03,0,0,0,0,0,0,0,.05,0,.1,0,.15,0,0,0,0,0,.01,0,.01,0,.02,0,.03,0,0,0,0,0,.01,0,0,0,.02,0,.03,0,0,0,.01,0,.02,0,.01,0,.01,0,.03,0,0,0,.01,0,.02,0,0,0,.02,0,.03,0,0,0,.01,0,.02,0,.02,0,.03,0,.04,0,0,0,.02,0,.02,0,0,0,.02,0,.02,0,0,0,.02,0,.03,0,0,0,0,0,.02,0,.01,0,.02,0,.03,0,0,0,0,0,.02,0,.01,0,.02,0,.03,0,0,0,0,0,.01,0,.01,0,.03,0,.04h0c0,.07,0,.14,0,.2h0c0,.4.01.8.02,1.2l9.71-.09c-.02-1.93-.08-3.89-.18-5.81h0Zm-.82-9.28l-9.64,1.19c.06.49.12.98.17,1.48h0s0,.03,0,.05h0s0,.03,0,.04c0,0,0,0,0,.01,0,.01,0,.02,0,.03,0,0,0,0,0,.01,0,.01,0,.03,0,.04,0,0,0,.01,0,.02,0,0,0,.02,0,.02,0,0,0,.02,0,.03,0,0,0,.01,0,.02,0,.01,0,.02,0,.03,0,0,0,0,0,.01,0,0,0,.02,0,.03,0,0,0,0,0,0,.06.6.12,1.2.18,1.8,0,0,0,0,0,0,0,.01,0,.02,0,.03,0,0,0,0,0,.01,0,0,0,.02,0,.03,0,0,0,.01,0,.02,0,0,0,.02,0,.03,0,0,0,.01,0,.02,0,0,0,.02,0,.03,0,0,0,.02,0,.03,0,0,0,.01,0,.02,0,.05,0,.09.01.14h0c.04.46.08.92.12,1.38l9.68-.77c-.15-1.93-.35-3.88-.59-5.79h0Zm-1.47-9.2l-9.53,1.87c.26,1.35.51,2.71.73,4.08h0s0,.03,0,.05h0s0,.03,0,.05h0s0,.03,0,.05h0s.01.07.01.1h0s0,.03,0,.04c0,0,0,.01,0,.01v.03s0,.01,0,.02c0,0,0,.02,0,.03,0,0,0,0,0,.02v.03s0,0,0,.02c0,0,0,.02,0,.03,0,0,0,.02,0,.02,0,0,0,.01,0,.02,0,0,0,.01,0,.02,0,0,0,0,0,.01,0,.02,0,.04,0,.06,0,0,0,0,0,.01,0,.01,0,.02,0,.03,0,0,0,0,0,.01,0,.01,0,.02,0,.03,0,0,0,0,0,.01,0,0,0,.03,0,.03,0,0,0,0,0,.01,0,.01,0,.02,0,.03,0,0,0,0,0,0,.02.15.05.31.07.46l9.61-1.44c-.29-1.91-.62-3.84-.99-5.74h0Zm-2.12-9.08l-9.38,2.54c.04.13.07.27.11.4,0,0,0,0,0,0,0,.02.01.05.02.07,0,0,0,0,0,.01,0,.02.01.05.02.07,0,0,0,.01,0,.01,0,.02,0,.04.01.06,0,0,0,.02,0,.03,0,.02.01.04.01.05,0,0,0,.02,0,.03,0,.02.01.04.01.06v.03s.01.02.02.04c0,.02,0,.03.01.05,0,0,0,.01,0,.02,0,.02.01.05.02.07,0,0,0,0,0,.02.36,1.39.71,2.8,1.02,4.21l9.48-2.12c-.42-1.89-.89-3.79-1.4-5.66h0Zm-2.75-8.91l-9.17,3.2c.1.28.19.55.28.83,0,0,0,0,0,.01,0,.02.02.05.02.07,0,0,0,.01,0,.02l.02.05s0,.03.01.04c0,0,0,.02,0,.03,0,.02.01.04.02.06,0,0,0,.01,0,.02,0,.02.01.04.02.06,0,0,0,0,0,.01,0,.02.02.05.02.07,0,0,0,0,0,0,0,.03.02.05.03.08,0,0,0,0,0,0,0,.03.02.05.03.08h0c.34,1.01.66,2.02.97,3.04,0,0,0,0,0,.01,0,.02.01.04.02.06,0,0,0,.01,0,.02,0,.02.01.04.02.06,0,0,0,.02,0,.03,0,.01,0,.03.01.04,0,.02.01.03.02.05,0,0,0,.01,0,.02.04.12.07.24.11.36l9.31-2.79c-.55-1.85-1.16-3.72-1.8-5.54h0Zm-3.38-8.69l-8.92,3.84c.43.99.84,1.99,1.24,2.99h0s.02.05.03.08c0,0,0,.01,0,.02,0,.02.01.04.02.05,0,.01,0,.02.01.03,0,.01,0,.02.01.03,0,.02.01.03.02.05,0,0,0,.02.01.03,0,.02.02.04.02.06,0,0,0,.01,0,.02,0,.02.02.04.03.07,0,0,0,0,0,0,0,.02.02.05.03.07,0,0,0,0,0,0,.01.03.02.05.03.08,0,0,0,0,0,0,.19.47.37.94.55,1.42l9.08-3.44c-.68-1.81-1.42-3.63-2.18-5.4h0Zm-3.99-8.43l-8.63,4.46s0,0,0,0c.01.02.02.04.03.06,0,0,0,0,0,.01.01.02.02.05.04.07,0,0,0,0,0,0,.8,1.55,1.56,3.11,2.29,4.7l8.82-4.08c-.81-1.75-1.67-3.52-2.56-5.23h0Zm-4.57-8.12l-8.29,5.06c.08.13.16.26.23.39,0,0,0,0,0,.01.01.02.02.04.04.06,0,0,0,.01.01.02.01.02.02.03.03.05,0,0,.01.02.02.03,0,.01.01.02.02.03,0,.02.02.03.03.04,0,0,.01.02.02.03.01.02.02.03.03.05,0,0,0,.02.01.02.01.02.02.04.03.05,0,0,0,.01.01.02.01.02.02.04.03.05,0,0,0,.01,0,.02.01.02.02.04.03.06,0,0,0,0,0,.01.01.02.03.04.04.06,0,0,0,0,0,.01.01.02.03.04.04.06,0,0,0,0,0,.01.01.02.02.04.04.06,0,0,0,0,0,0,.04.07.09.14.13.21h0s.03.05.04.07h0c.09.15.17.29.26.44h0c.07.12.14.24.21.36,0,0,0,0,0,0,.01.02.03.05.04.07,0,0,0,0,0,0,.01.02.03.05.04.07,0,0,0,0,0,0,.04.07.08.14.12.22,0,0,0,0,0,0,.01.02.03.05.04.07h0s.03.05.04.07h0s.03.05.04.07c0,0,0,0,0,0l.04.07s0,0,0,0c.02.03.03.05.04.07,0,0,0,0,0,0,.01.02.03.05.04.07,0,0,0,0,0,0,.01.02.02.04.04.07,0,0,0,0,0,0,.01.02.03.04.04.06,0,0,0,0,0,0,.01.02.02.04.04.07,0,0,0,0,0,0l.08.14s0,0,0,0c.01.02.03.05.04.07,0,0,0,0,0,0,.01.02.02.04.04.07,0,0,0,0,0,0,.01.02.02.04.04.07,0,0,0,0,0,0,.05.09.11.2.16.29,0,0,0,0,0,0,.14.24.28.49.41.74l8.51-4.69c-.93-1.69-1.92-3.39-2.92-5.04h0Zm-5.13-7.78l-7.92,5.63c.29.4.57.81.85,1.21h0s.03.05.05.08h0s.05.07.08.11c0,0,0,.01.01.02.01.02.02.04.04.05,0,0,.01.02.02.03,0,.01.02.03.03.04,0,.01.01.02.02.03,0,.01.02.02.02.03,0,.01.02.02.03.04,0,0,.01.02.02.02.01.02.02.03.03.05,0,0,0,.01.01.02.01.02.02.03.04.05,0,0,0,.01.01.02.01.02.03.04.04.06,0,0,0,0,0,.01.01.02.03.04.04.06,0,0,0,0,0,0,.01.02.03.04.04.06,0,0,0,0,0,0,.01.02.03.04.04.06,0,0,0,0,0,0,.02.02.03.04.04.06,0,0,0,0,0,0,.01.02.03.05.04.06h0c.5.75,1,1.5,1.49,2.25l8.16-5.28c-1.05-1.62-2.15-3.24-3.27-4.82h0Zm-5.66-7.4l-7.5,6.17c.78.95,1.54,1.9,2.29,2.87h0c.07.08.13.17.2.25,0,0,0,0,0,0,.02.02.03.04.05.06,0,0,0,0,.01.01.01.02.03.04.04.05,0,0,0,.01.01.02.01.02.02.03.04.05,0,0,.01.01.02.02,0,.01.02.02.03.04,0,0,.02.02.03.03,0,.01.02.02.02.03,0,0,.01.02.02.03.01.01.02.03.03.04,0,0,.01.01.02.02.01.02.02.03.04.05,0,0,.01.02.02.02.01.02.02.03.04.05,0,0,.01.01.02.02l.04.05s.01.01.02.02c0,.01.02.02.03.03,0,.01.02.02.03.04,0,.01.02.02.02.03,0,.01.02.03.03.04,0,0,.01.02.02.03,0,0,.01.01.02.02.01.02.02.03.04.05,0,0,0,.01.01.02.01.02.03.03.04.05,0,0,0,.01.01.02.01.02.03.04.04.05,0,0,0,.01.01.02.02.03.04.06.07.09l7.76-5.84c-1.16-1.54-2.37-3.08-3.6-4.58h0Zm-6.17-6.98l-7.05,6.68c.15.15.29.31.43.46h0s.04.04.05.06c0,0,0,0,.01.01.01.01.03.03.04.04,0,0,.02.02.02.02,0,0,.02.02.03.03.01.01.03.03.04.04,0,0,.01.01.02.02.01.01.03.03.04.04,0,0,0,.01.01.02.02.02.03.03.05.05,0,0,0,0,0,0,.02.02.03.04.05.05,0,0,0,0,0,0,.02.02.03.04.05.06,0,0,0,0,0,0,.02.02.03.04.05.06,0,0,0,0,0,0,.57.61,1.14,1.24,1.7,1.87,0,0,0,0,0,0,.02.02.03.04.05.06,0,0,0,0,0,0,.02.02.03.03.05.05,0,0,0,0,.01.01.02.02.03.03.05.05,0,0,0,0,.01.01.01.01.03.03.04.04,0,0,.02.02.02.03.01.01.02.02.03.03.01.01.02.02.03.04.01.01.01.02.02.03.23.26.46.52.68.78l7.34-6.37c-1.27-1.46-2.58-2.91-3.91-4.31h0Zm-6.64-6.53l-6.57,7.16s.01.01.02.02c0,0,.02.01.02.02.01.01.02.02.03.03.01.01.02.02.04.03,0,0,.01,0,.02.01.02.02.03.03.05.05,0,0,0,0,.01.01.02.02.03.03.05.05,0,0,0,0,0,0,.02.02.04.04.06.05,0,0,0,0,0,0,.45.42.91.84,1.35,1.27,0,0,0,0,0,0,.02.02.04.04.06.05,0,0,0,0,0,0,.02.02.04.04.05.05,0,0,0,0,0,0,.02.02.03.03.05.05,0,0,0,0,.01.01.01.01.03.03.04.04,0,0,.01.01.02.02.01.01.02.02.04.03,0,0,.02.02.03.03.01.01.02.02.03.03.01,0,.02.02.03.03.01.01.02.02.03.03,0,0,.02.02.03.03.01.01.02.02.03.03.01.01.02.02.03.03,0,0,0,0,0,0,.02.02.04.04.06.06h0s.04.05.06.07h0c.54.52,1.07,1.04,1.59,1.57l6.87-6.86c-1.37-1.37-2.78-2.72-4.2-4.03h0Zm-7.08-6.05l-6.05,7.6c.82.66,1.64,1.32,2.44,2h0s.04.04.06.06h0s.04.04.06.06h0s.05.04.07.06h0s.02.02.03.03c0,0,0,0,.02.01.02.01.03.03.05.04,0,0,.01.01.02.02.01.01.03.02.04.04,0,0,.02.01.02.02.01.01.03.02.04.03l.03.02s.02.02.03.03c.01,0,.02.02.03.03,0,0,.02.01.03.02.01.01.03.02.04.04,0,0,.01.01.02.02.01.01.03.03.04.04,0,0,.01.01.02.02.01.01.03.03.05.04,0,0,.01,0,.02.01.01.01.03.03.05.04,0,0,0,0,.01,0,.02.01.04.03.05.05,0,0,0,0,0,0,.02.02.04.04.06.05,0,0,0,0,0,0,.02.02.04.03.06.05,0,0,0,0,0,0,.02.02.04.04.06.05h0c.22.18.42.37.64.55l6.38-7.33c-1.46-1.27-2.96-2.52-4.48-3.72h0Zm-7.49-5.54l-5.5,8.01c.19.13.39.27.58.4h0s.05.03.07.05c0,0,0,0,.01,0,.02.01.04.03.06.04,0,0,0,0,.02.01.02.01.04.03.06.04,0,0,.01,0,.02.01l.05.03s.02.01.02.02c.01,0,.02.01.03.02.01,0,.02.02.04.03.01,0,.02.02.03.02,0,0,.02.02.03.02.01,0,.03.02.04.03,0,0,.02.01.03.02.01,0,.03.02.04.03,0,0,.02.02.03.02,0,0,.02.01.03.02.02.01.03.02.04.03,0,0,.02.01.03.02.02.01.03.02.05.03,0,0,.02.01.02.02l.05.03s.02.01.02.02c.01,0,.03.02.04.03,0,0,.02.01.03.02.01,0,.03.02.04.03,0,0,.02.01.03.02.02.01.03.02.04.03,0,0,.01,0,.02.01.02.01.03.02.05.04,0,0,.01,0,.02.01.02.01.03.02.05.04,0,0,.01.01.02.02.02.01.03.02.05.04,0,0,.01,0,.02.01.02.01.03.02.05.03,0,0,.01.01.02.02.01,0,.03.02.04.03,0,0,.02.01.02.02.02.01.03.02.05.03,0,0,.01,0,.02.01.02.01.03.02.05.04,0,0,.01.01.02.01.02.01.03.02.05.04,0,0,.01.01.02.02.02.01.03.02.05.04,0,0,.01.01.02.02.02.01.03.02.04.03,0,0,.02.01.02.02.01,0,.03.02.04.03.01,0,.02.01.03.02.01,0,.03.02.04.03,0,0,.02.01.02.02.02.01.03.02.05.03,0,0,.02.01.03.02.01,0,.03.02.05.03,0,0,.02.01.02.02.02.01.03.02.04.03.01,0,.02.01.03.02,0,0,.02.02.03.02.01,0,.02.02.04.03,0,0,.02.01.03.02.01.01.03.02.04.03,0,0,.02.01.03.02,0,0,.02.01.03.02.02.01.03.02.04.03.01,0,.02.01.03.02.01,0,.03.02.04.03.01,0,.02.02.03.02,0,0,.01,0,.02.01.02.01.04.03.05.04,0,0,0,0,.02.01.02.01.04.03.06.04,0,0,0,0,.02.01l.06.04s0,0,0,0c.39.29.78.58,1.17.87l5.85-7.76c-1.54-1.16-3.13-2.31-4.73-3.4h0Zm-7.86-5l-4.92,8.37c.09.05.19.11.28.17,0,0,0,0,.01,0,.02,0,.04.02.06.03,0,0,.01,0,.02.01.02.01.03.02.05.03,0,0,.02,0,.02.01.02,0,.03.02.05.03,0,0,.02.01.03.02,0,0,.02.01.03.02.02,0,.03.02.05.03,0,0,.01,0,.02.01.02.01.04.02.06.03,0,0,0,0,.02,0,.02.01.05.03.07.04h0s.08.05.12.07h0s.05.03.07.05h0s.05.03.07.05h0c.12.07.24.14.35.21h0s.05.03.07.05h0s.04.03.07.05c0,0,0,0,.01,0,.04.02.08.05.11.07h0s.05.03.07.05c0,0,.01,0,.01,0,.02.01.04.02.06.03,0,0,.02.01.02.02l.05.03s.02,0,.03.02l.04.03s.02.01.03.02c0,0,.02.01.03.02.02.01.03.02.05.03,0,0,.02.01.03.02.02.01.03.02.05.03,0,0,.01,0,.02.01.02.01.03.02.05.03,0,0,.01,0,.02.01.02.01.03.02.05.03,0,0,0,0,.01,0,.02.01.04.02.06.04,0,0,0,0,.01,0,.02.01.04.02.06.04,0,0,0,0,0,0,.02.01.05.03.07.04,0,0,0,0,0,0,.02.01.05.03.07.04,0,0,0,0,0,0,.67.42,1.33.84,1.99,1.26l5.29-8.15c-1.62-1.05-3.29-2.08-4.95-3.06h0Zm-8.2-4.44l-4.32,8.7c1.41.7,2.8,1.43,4.18,2.18,0,0,0,0,0,0,.02.01.04.02.06.03h.02s.04.03.06.04c0,0,.02,0,.02.01.02,0,.03.02.05.03.01,0,.02.01.03.02,0,0,.01,0,.02,0,.02.01.04.02.07.04h0c.09.05.17.1.26.15l4.7-8.5c-1.69-.94-3.43-1.85-5.16-2.71h0Zm-8.49-3.85l-3.69,8.98c1.67.68,3.32,1.41,4.94,2.16h0s4.09-8.81,4.09-8.81c-1.75-.81-3.55-1.6-5.34-2.33h0Zm-8.74-3.24l-3.05,9.22c1.71.57,3.41,1.17,5.08,1.81l3.45-9.08c-1.81-.69-3.66-1.34-5.49-1.95h0Zm-8.95-2.61l-2.38,9.42c1.75.44,3.48.92,5.2,1.44l2.8-9.3c-1.85-.56-3.74-1.08-5.62-1.55h0Zm-9.11-1.97l-1.71,9.56c1.78.32,3.54.67,5.29,1.07l2.13-9.48c-1.89-.42-3.81-.81-5.71-1.15h0Zm-9.22-1.32l-1.03,9.66c1.8.19,3.58.42,5.35.69l1.46-9.6c-1.91-.29-3.85-.54-5.78-.75h0Zm-9.29-.66l-.36,9.71c.11,0,.23,0,.34.01h0c.05,0,.1,0,.15,0,0,0,.02,0,.02,0,0,0,.01,0,.02,0,0,0,.02,0,.03,0t.02,0s.02,0,.03,0h0c.78.03,1.57.07,2.34.12h0s.03,0,.05,0h0s.03,0,.04,0h0s.03,0,.04,0h0s.09,0,.14,0c0,0,0,0,.01,0,.01,0,.02,0,.03,0,0,0,.01,0,.01,0,.01,0,.02,0,.03,0h.01s.03,0,.04,0h0s.03,0,.04,0h0s.06,0,.1,0h0s.03,0,.04,0c0,0,0,0,.01,0,.01,0,.02,0,.04,0h0s.03,0,.04,0h0c.06,0,.13,0,.19.01h0s.03,0,.05,0h0c.48.03.96.07,1.45.11l.78-9.68c-1.92-.15-3.88-.27-5.81-.34h0Zm-4.92-.09v9.71h.09s.04,0,.07,0h.02s.04,0,.07,0h.02s.04,0,.06,0c0,0,.02,0,.02,0,.02,0,.04,0,.06,0,0,0,.02,0,.02,0,.02,0,.04,0,.05,0,.01,0,.02,0,.03,0,.01,0,.03,0,.05,0,.01,0,.02,0,.03,0,.02,0,.04,0,.06,0,.01,0,.02,0,.03,0,.01,0,.02,0,.04,0,.02,0,.03,0,.05,0,.01,0,.02,0,.03,0h.06s.02,0,.03,0c.01,0,.03,0,.04,0,0,0,.01,0,.02,0,.03,0,.05,0,.08,0,0,0,.01,0,.01,0,.05,0,.09,0,.14,0,0,0,0,0,.01,0,.03,0,.06,0,.08,0,0,0,0,0,.01,0,.01,0,.02,0,.03,0l.1-9.71c-.47,0-.95,0-1.43,0h0Z" style="fill: #41c2d9; stroke-width: 0px;"/>
        <circle cx="132.21" cy="132.21" r="122.5" style="fill: none; stroke: #fff; stroke-miterlimit: 10; stroke-width: 15.11px;"/>
        <circle cx="132.21" cy="132.21" r="122.5" style="fill: #41c2d9; opacity: .39; stroke-width: 0px;"/>
      </g>
      <g style="clip-path: url(#clippath);">
        <g>
          <path d="m98.93,217.91c15.62.38,25.95-.94,25.95-.94,0,0-.2,5.87.04,7.74.24,1.87.86,10.33,1.12,14.05.07.92-.63,6.25-1.22,13.88-1.48,19.38-2.94,38.41-4.31,57.41h-25.24c.27-19.75.46-39.32.71-59.84.02-1.29-.17-3.57-1.29-3.62-2.32.49-4.02,1.81-5.01,4.51-4.76,12.99-11.1,34.95-17.6,58.94h-27.5c3.01-19.25,5.66-38.56,7.38-58.11,1.1-12.55,3.64-25.85,8.08-37.8,14.31,2.38,28.74,3.43,38.9,3.75Z" style="fill: #595276; fill-rule: evenodd; stroke-width: 0px;"/>
          <path d="m98.93,217.91c15.62.38,25.95-.94,25.95-.94,0,0-.2,5.87.04,7.74.09.69.23,2.3.39,4.23-12.23,3.92-42.88,11.71-70.16,2,1.27-5.74,2.88-11.4,4.88-16.78,14.31,2.38,28.74,3.43,38.9,3.75Z" style="fill: #4c466a; fill-rule: evenodd; stroke-width: 0px;"/>
          <path d="m97.59,310.06c.44-32.12.73-60.25.64-61.11-.09-.9-.26-1.56-.41-2.03l3.81-.33c.32-.03.56-.32.53-.65-.03-.33-.31-.58-.63-.55l-4.57.4s-.06,0-.09,0l-1.48.13.58-3.37c1.31-.63,4.56-2.32,4.91-3.74.36-1.46,4.4-11.88,4.41-11.91.12-.31-.03-.65-.33-.78-.3-.12-.64.03-.76.34-.01.03-4.08,10.53-4.46,12.05-.2.79-2.18,1.91-3.53,2.59l2.49-14.47c.05-.33-.16-.64-.48-.69-.32-.06-.62.16-.68.49l-2.63,15.29c-.27.14-.39.48-.26.77.03.06.06.12.1.16l-.65,3.81c-.01.05-.02.11,0,.17.01.17.1.32.22.42h0s.03.03.03.03h0s0,0,0,0h0s0,0,0,0h0s0,0,0,0h.02s.02.02.02.02h0c.09.05.19.06.3.06l1.89-.17c.14.35.34,1,.45,2.05.09.84-.21,28.92-.65,60.98h1.17Zm-52.1,0h1.18c1.04-6.91,2.08-13.87,3.08-20.52,2.74-18.25,5.11-34.04,5.89-39.43.61-4.25,1.18-7.76,1.68-10.6,10.63,1.1,16.42-6.52,16.43-6.54.2-.26.16-.63-.09-.84-.25-.21-.62-.17-.82.09-.02.02-5.37,7.08-15.31,6.11,1.11-6.11,1.83-8.72,1.84-8.73.09-.32-.1-.65-.41-.74-.31-.09-.64.1-.72.42,0,.01-.74,2.68-1.88,8.95-.22.06-.4.25-.44.5-.03.23.07.45.25.58-.5,2.86-1.08,6.38-1.69,10.64-.75,5.23-3.13,21.08-5.88,39.42-1.01,6.7-2.06,13.73-3.11,20.7h0Zm72.97-84.42c.03-.33-.2-.63-.52-.66-.32-.04-.61.2-.64.53,0,.02-1.02,8.19,8.37,10.74.31.08.63-.11.72-.43.08-.32-.1-.65-.42-.73-8.4-2.28-7.5-9.43-7.5-9.45Z" style="fill: #4c466a; fill-rule: evenodd; stroke-width: 0px;"/>
          <path d="m57.55,221.04l-.45,1.05s-.68.76-.29,1.45c.39.69,16.1,10.92,24.57,14.46,8.47,3.54,12.81-6.12,16.17-12.05,3.36-5.93,8.72,1.62,8.72,1.62l5.61,5.06s1.56,1.38,3.02.6c1.47-.78,10.2-6.18,10.2-6.18,0,0,.81-.6.68-1.34-.13-.73-1.81-4.24-1.43-4.24s-66.83-.46-66.83-.46Z" style="fill: #fff; fill-rule: evenodd; stroke-width: 0px;"/>
          <g>
            <path d="m146.77,125.93c-.33,7.86-1.13,21.32,5.04,27.49,4.32,4.32,7.55.78,7.55.78,13.1,6.82,28.59-11.07,7.85-18.75l-.52-2.83-14.07-11.25-5.85,4.56Z" style="fill: #4c466a; fill-rule: evenodd; stroke-width: 0px;"/>
            <path d="m191.98,107.76c3.36,13.61,14.06,22.8,9.81,33.69-2.64,6.77-10.3,5.52-10.3,5.52-9.27,13.28-30.48-2.67-14.47-19.86l-.72-3.68,8.28-19.1,7.4,3.43Z" style="fill: #4c466a; fill-rule: evenodd; stroke-width: 0px;"/>
          </g>
          <g>
            <polygon points="220.16 88.87 221.29 97 221.28 97.6 222.22 103.61 231.68 102.6 232.03 96.52 231.53 94.08 229.89 87.29 220.16 88.87" style="fill: #fcd1c8; fill-rule: evenodd; stroke-width: 0px;"/>
            <path d="m220.8,93.45l.47,3.37c5.06.43,8.63-1.53,10.43-2.86l-.29-1.08c-2.48.14-7.25.4-10.61.58Z" style="fill: #f8a8a0; fill-rule: evenodd; stroke-width: 0px;"/>
            <path d="m230.58,90.2c-2.89,1.64-6.52,2.57-9.83,2.22-.12-.01-.24.03-.33.12-.09.09-.13.2-.11.33l.37,2.68c.03.19.18.33.37.34,3.62.23,7.4-.73,10.61-2.38.17-.09.25-.27.2-.46l-.71-2.61c-.03-.12-.11-.21-.23-.26-.12-.05-.24-.04-.35.02Z" style="fill: #9e6d82; fill-rule: evenodd; stroke-width: 0px;"/>
            <path d="m230.8,89.23c-.55.14-.71,1.38-.35,2.77.36,1.39,1.09,2.41,1.64,2.27.55-.14.71-1.38.35-2.78-.36-1.39-1.09-2.4-1.64-2.26Z" style="fill: #9e6d82; fill-rule: evenodd; stroke-width: 0px;"/>
            <path d="m231.26,90.12c-.23.1-.24.87,0,1.71.23.84.61,1.44.84,1.33.23-.1.24-.87,0-1.71-.23-.84-.61-1.44-.84-1.33Z" style="fill: #735974; fill-rule: evenodd; stroke-width: 0px;"/>
            <path d="m221.28,97.6c.2,1.91,2.57,35.06,2.68,36.9.67,11.44,18.97,9.43,17.08-2.71-1.27-8.13-8.09-30.67-9-35.26l-10.75,1.07Z" style="fill: #fcd1c8; fill-rule: evenodd; stroke-width: 0px;"/>
          </g>
          <path d="m221.34,130.05s-17.57,9.95-20.86,11.37c-3.28,1.42-5.75,1.94-5.75,1.94,0,0-3.5,3.63-1.86,13.48,1.64,9.85,9.55,12.62,9.55,12.62,0,0,1.42-3.71,8.68-8.38,7.26-4.67,23.08-15.64,27.31-19.27,4.24-3.63,7.26-8.81,5.45-14.6-1.81-5.79-3.37-10.2-3.54-14.26-.17-4.06-3.11-3.72-3.11-3.72l-1.84-4.91s-.39-1.25-1.58-.94l.38,1.39s-2.85,4.14-12.18,2.33l-.1-1.34s-.72.2-.74.85c-.02.65.04,6.01.04,6.01,0,0-1.77.52-1.94,2.59-.17,2.07,1.47,4.8,2.16,8.12.69,3.33-.46,2.98-.08,6.71Z" style="fill: #fff; fill-rule: evenodd; stroke-width: 0px;"/>
          <path d="m196.71,165.27c2.7,3.14,5.72,4.2,5.72,4.2,0,0,1.42-3.71,8.68-8.38,1.18-.76,2.58-1.68,4.12-2.71-.04.02-12.69,6.99-17.23,1.43,0,0-.56,2.38-1.29,5.47Z" style="fill: #e4d9e1; fill-rule: evenodd; stroke-width: 0px;"/>
          <path d="m133.13,129.77s3.74,2.84,5.38,5.43c1.64,2.59,17.46,28,17.46,28,0,0-18.47,13.18-18.47,11.45s-22.15-19.58-20.25-22.6c1.9-3.03,15.88-22.28,15.88-22.28Z" style="fill: #fff; fill-rule: evenodd; stroke-width: 0px;"/>
          <path d="m140.38,173.6c-1.73.99-2.88,1.49-2.88,1.06,0-1.04-8.01-7.91-13.99-13.88,1.04-3.77,3.09-7.72,3.09-7.72l6.22-1.65,9.45,11.01-1.9,11.18Z" style="fill: #e4d9e1; fill-rule: evenodd; stroke-width: 0px;"/>
          <path d="m157.44,151.2s-3.41.72-6.34,3.4c-2.94,2.68-28.48,25.19-28.48,25.19l.78,17.37,2.07,2.33,23.4-13.77s11.92-30.88,8.57-34.53Z" style="fill: #fff; fill-rule: evenodd; stroke-width: 0px;"/>
          <path d="m123.02,188.78l.38,8.39,2.07,2.33,23.4-13.77s3.15-8.17,5.76-16.6c-5.28,5.4-17.87,18.07-21.96,20.38-5.22,2.95-5.95-2.82-5.95-2.82l-2.47.21s-.46.7-1.23,1.88Z" style="fill: #e4d9e1; fill-rule: evenodd; stroke-width: 0px;"/>
          <path d="m151.27,255.98c-.17,6.56.03,13.55.92,20.37,1.48,11.37,2.67,23.48,3.56,33.71h21.29l4.98-49.54s.14-3.04.22-7.44l-30.97,2.91Z" style="fill: #fcd1c8; fill-rule: evenodd; stroke-width: 0px;"/>
          <path d="m151.27,255.98c-.17,6.56.03,13.55.92,20.37.57,4.39,1.1,8.9,1.59,13.36,1.99.53,10.31,2.6,22.18,1.41,0,0,.62-.17.72-.47.1-.3.13-.93.13-.93,0,0,.84-.04,2.28-.14l2.92-29.06s.14-3.04.22-7.44l-30.97,2.91Z" style="fill: #f8a8a0; fill-rule: evenodd; stroke-width: 0px;"/>
          <path d="m181.76,253.12c.07,2.04.11,3.98.09,5.75l5.14,51.19h19.8c2.35-22.02,6.64-40.65,5.26-59.78l-30.3,2.84Z" style="fill: #fcd1c8; fill-rule: evenodd; stroke-width: 0px;"/>
          <path d="m181.76,253.12c.07,2.04.11,3.98.09,5.75l3.04,30.25c6.87-.61,16.9-1.76,25.12-3.74,1.64-12.1,2.88-23.51,2.05-35.11l-30.3,2.84Z" style="fill: #f8a8a0; fill-rule: evenodd; stroke-width: 0px;"/>
          <path d="m157.1,215.01c-.96.09.22,6.59-.7,7.43-4.81,4.43-5.36,9.44-6.21,14.86-2.43,15.47-6.28,44.7-6.33,45.15-.08.58,4.11,2.65,6.19,2.76l-.18.88s.08.38.53.47c.45.09,9.3,2.86,22.63,1.53,0,0,.62-.17.72-.47.1-.3.13-.93.13-.93,0,0,21.83-1.09,35.87-5.03,0,0,1.22-.54,1.05-1.94,0,0,7.57-3.83,12.39-5.82,0,0,1.34-.77.7-2.83-5.21-16.86-15.2-47.13-23.32-53.64l-1.4-5.86s.14-.86-1.3-1.18c0,0-17.53,4.42-40.78,4.63Z" style="fill: #595276; fill-rule: evenodd; stroke-width: 0px;"/>
          <path d="m156.78,220.21c0,1.07-.07,1.96-.37,2.24-4.81,4.43-5.36,9.44-6.21,14.86l-.18,1.12c9.21,3.28,33.12,9.07,59.8-6.35-3.12-6.82-6.3-12.3-9.25-14.65l-1.4-5.86s.14-.86-1.3-1.19c0,0-12.77,3.22-30.97,4.3-3.69,1.68-7.14,3.52-10.13,5.53Z" style="fill: #4c466a; fill-rule: evenodd; stroke-width: 0px;"/>
          <path d="m149.55,285.18c-.02.27.19.51.46.53.27.02.51-.19.53-.46l3.79-51.61s.55-8.25,2.47-10.9c.16-.22.11-.53-.11-.69-.22-.16-.53-.11-.69.11-2.09,2.88-2.66,11.39-2.66,11.41l-3.79,51.61h0Zm60.77-5.34c.07.27.34.43.6.36.27-.07.43-.34.36-.6-.03-.11-9.51-37.6-12.61-49.75-.56-2.21-.99-3.87-1.68-5.45-.7-1.6-1.67-3.1-3.32-5-.18-.21-.49-.23-.7-.05-.21.18-.23.49-.05.7,1.57,1.8,2.49,3.23,3.15,4.74.67,1.52,1.08,3.14,1.63,5.3,3.1,12.16,12.58,49.65,12.61,49.76h0Zm-36.94,6.88c.02.27.25.48.53.47.27-.02.48-.25.47-.53,0-.16-3.38-56.39-3.57-59.43-.18-3.01-.12-4.23-.12-4.23.02-.28-.19-.51-.46-.53-.27-.02-.51.19-.53.46,0,0-.07,1.28.12,4.37.18,3.05,3.56,59.27,3.57,59.43Z" style="fill: #4c466a; fill-rule: evenodd; stroke-width: 0px;"/>
          <path d="m161.2,149.72l-3.77,1.48s-3.06,10.84-5.91,17.06c-2.85,6.22-11.24,19.27-1.04,26.19,0,0,1.47,7.78.6,14-.59,4.29-2.38,13.22-3.49,19.38l-.02.13c-.08.54-.28,2.58,1.46,3.44l-.56,3.02s-.26,1.57.87,2.16c3.59,1.64,10.7,2.72,20.51,2.72,14.69,0,33.01-10.02,37.51-14h0l.06-.1c.12-.21.36-.76-.03-1.43-.5-.87-1.23-2.05-1.23-2.05,0,0,1.74-1.76-.09-4.89-2.78-4.71-7.13-12.23-8.22-16.24-1.56-5.7,4.58-31.11,4.58-31.11,0,0-9.33-17.29-7.69-26.1l-6.6,1.27s-17.53,8.26-17.69,8.67c-.16.4-9.25-3.59-9.25-3.59Z" style="fill: #b17a89; fill-rule: evenodd; stroke-width: 0px;"/>
          <path d="m150.49,194.44s.52,2.76.76,6.3c3.07-2.47,7.27-5.85,7.26-6.37-.02-.82-.84-.57-.84-.57l-7.18.64h0Zm47.68,7.15c-.12-.36-.23-.7-.32-1.02-1.56-5.7,4.58-31.11,4.58-31.11,0,0-2.31-4.28-4.43-9.66h0s-1.94,8.32-3.37,13.96c-1.43,5.64-4.21,14.98-15.07,17.51,0,0-1.18.59-.17,1.39,1.01.8,3.91,1.05,9.55,2.74,5.64,1.68,9.22,6.2,9.22,6.2h0Z" style="fill: #735974; fill-rule: evenodd; stroke-width: 0px;"/>
          <path d="m187.05,145.15c-3.82,1.81-16.47,7.81-16.6,8.16-.12.31-5.36-1.91-7.9-3,.27,1.68.59,3.76.99,6.31,1.64,10.63,11.67,5.71,13.74,2.51,2.07-3.2,9.77-13.98,9.77-13.98h0Z" style="fill: #e4d9e1; fill-rule: evenodd; stroke-width: 0px;"/>
          <path d="m172.79,160.11l.2,2.22c-1.87.78-3.99,1.1-5.78.31l.36-2.53,2.92-3.37,2.29,3.37Z" style="fill: #595276; fill-rule: evenodd; stroke-width: 0px;"/>
          <g>
            <g>
              <path d="m30.28,69.72s-.19-4.65-.1-6.25c.09-1.61,3.15-2.05,4.79,2.27,1.64,4.31-4.69,3.99-4.69,3.99Z" style="fill: #f8a8a0; fill-rule: evenodd; stroke-width: 0px;"/>
              <path d="m35.71,86.18s-.86-4.04-1.24-4.85c-.39-.81-5.65-7.77-6.08-9.36-.43-1.59-.15-2.53,1.17-3.69,1.32-1.16,6.72-6.55,7.52-6.98.8-.42,2.31-.4,3.9,1.29,0,0,1.39-.64,2.02-.29.63.35,2.2,2.76,2.2,2.76,0,0,2.55.46,2.51,3.15,0,0,1.17.69,1.4,1.39.22.71.04,4.69-.11,5.5-.16.81-2.29,2.23-2.29,2.23,0,0,.46,1.58.48,2.61.01,1.04-.73,2.33-.29,4.66l-11.17,1.56Z" style="fill: #fcd1c8; fill-rule: evenodd; stroke-width: 0px;"/>
              <path d="m41.1,62.86c.14-.07.2-.24.13-.39-.07-.14-.24-.2-.38-.14,0,0-.8.38-1.56.98-.73.57-7.54,5.62-7.56,5.63-.13.1-.16.28-.06.4.09.13.28.16.4.06.02-.01,6.82-5.06,7.57-5.64.72-.56,1.46-.92,1.46-.92h0Zm6.52,5.63s-.24-.08-.75.24c-.61.39-5.72,4.68-5.73,4.69-.12.1-.3.09-.41-.03-.1-.12-.09-.31.03-.41.01-.01,5.16-4.33,5.79-4.74.74-.47,1.23-.31,1.23-.31.15.04.24.21.19.36-.04.15-.21.24-.36.19h0Zm-.68,3.89c-.01-.16-.15-.28-.31-.27-.16.01-.28.15-.26.31,0,0,.06.73-.27,1.6,0,.02-.02.04-.02.06-.31.79-.96,1.68-2.26,2.24-.15.06-.21.23-.15.38.06.15.23.21.38.15.8-.34,1.38-.79,1.8-1.28l.58,1.85c.05.15.21.24.36.19.15-.05.23-.21.19-.36l-.71-2.26c.13-.2.23-.41.31-.61.85-.33,1.58-1.12,1.58-1.12.11-.12.1-.3-.01-.41-.12-.11-.3-.1-.41.01,0,0-.39.43-.91.75.17-.71.12-1.23.12-1.24h0Zm-1.72-7.03s-.28,0-.83.34c-.61.38-7.21,4.77-7.23,4.78-.13.09-.31.05-.4-.08-.09-.13-.05-.31.08-.4.02-.01,6.64-4.42,7.25-4.79.67-.41,1.07-.43,1.07-.43.16-.02.3.1.32.26.02.16-.1.3-.26.32Z" style="fill: #f8a8a0; fill-rule: evenodd; stroke-width: 0px;"/>
            </g>
            <polygon points="46.32 78.62 47.35 87.58 47.54 88.2 48.19 94.86 37.86 96.38 35.81 90.02 35.67 87.29 35.54 79.62 46.32 78.62" style="fill: #fcd1c8; fill-rule: evenodd; stroke-width: 0px;"/>
            <path d="m46.9,83.67l.43,3.71c-5.26,1.85-9.59.76-11.88-.17l.02-1.23c2.68-.54,7.81-1.57,11.43-2.31Z" style="fill: #f8a8a0; fill-rule: evenodd; stroke-width: 0px;"/>
            <path d="m35.61,82.9c3.52.94,7.63.93,11.06-.35.13-.05.26-.04.38.04.12.07.19.18.21.32l.34,2.95c.02.21-.1.4-.3.47-3.78,1.24-8.06,1.26-11.93.39-.2-.05-.34-.22-.34-.43l.04-2.97c0-.14.06-.26.17-.34.11-.09.24-.11.38-.07Z" style="fill: #9e6d82; fill-rule: evenodd; stroke-width: 0px;"/>
            <path d="m35.1,81.93c.62,0,1.13,1.27,1.14,2.85,0,1.58-.5,2.86-1.12,2.86-.62,0-1.13-1.28-1.14-2.85,0-1.58.5-2.86,1.12-2.86Z" style="fill: #9e6d82; fill-rule: evenodd; stroke-width: 0px;"/>
            <path d="m34.86,83c.28.05.49.86.48,1.82-.01.96-.25,1.69-.53,1.65-.28-.05-.49-.86-.48-1.82.01-.96.25-1.7.53-1.65Z" style="fill: #735974; fill-rule: evenodd; stroke-width: 0px;"/>
            <path d="m47.54,88.2c.31,2.08,6.93,37.97,7.32,39.95,2.44,12.34-17.57,15.25-18.9,1.83-.89-8.99.14-34.82-.15-39.96l11.72-1.82Z" style="fill: #fcd1c8; fill-rule: evenodd; stroke-width: 0px;"/>
          </g>
          <path d="m35.72,104.45s6.71,2.04,14.23-2.87l-.35-1.9s1.25-.2,1.45.53c.19.74,1.58,7.15,1.58,7.15,0,0,3.11.3,3.33,2.87.22,2.57.13,5.42.13,5.42,0,0,2.33,1.9,2.59,6.39l.15,1.17s6.68-2.51,11.28-3.93c.68-.21,1.6-.48,2.67-.77,4.18,1.65,9.54,9.8,9.84,13.38.35,4.15-15.68,18.78-15.68,18.78,0,0-14.05,3.96-23.21-.02-9.16-3.97-12.1-12.44-11.93-18.84.17-6.4.18-14.34-.77-17.11-.95-2.76,2.16-3.8,2.16-3.8l.26-7.6s.02-1.34,2.31-1.41l-.04,2.55Z" style="fill: #fff; fill-rule: evenodd; stroke-width: 0px;"/>
          <path d="m119.45,121.69s9.01,4.02,13.68,8.08c0,0,3.28,14.87-4.67,40.62,0,0-2.25,8.3-2.25,10.37l2.84,33.52s.32,3.76-1.94,4.36h0c-.11,2.63.74,3.96-1.99,4.87-8.29,2.77-46,10.45-68.51-1.66,0,0-.98-1.83-.69-3.28.29-1.46.31-1.17.7-2.4,0,0-1.56-1.72-.48-4.92,1.08-3.2,11.05-32.36,11.05-32.36l-.27-28.21s9.88-17.16,4.26-31.71c5.56-1.61,19.04-4.94,19.04-4.94l29.23,7.65Z" style="fill: #fff; fill-rule: evenodd; stroke-width: 0px;"/>
          <path d="m119.45,121.69s1.38.62,3.34,1.61v24.75h-38.56v-32.5c3.39-.86,5.99-1.5,5.99-1.5l29.23,7.65Z" style="fill: #e4d9e1; fill-rule: evenodd; stroke-width: 0px;"/>
          <polygon points="106.9 133.57 104.61 158.46 111.79 164.25 114.72 161.92 115.85 159.67 112.22 133.57 109.19 130.2 106.9 133.57" style="fill: #595276; fill-rule: evenodd; stroke-width: 0px;"/>
          <path d="m166.47,235.02c-5.75,0-11.7-.95-17.55-3.35-.15-.06-.23-.24-.16-.39.06-.15.24-.23.39-.16,27.16,11.15,56.54-9.44,56.84-9.65.14-.1.32-.06.42.07.1.14.06.32-.07.42-.23.17-18.65,13.06-39.86,13.06Zm3.89-68.92c-.77,0-1.54-.1-2.3-.32-4.1-1.16-8.24-5.95-7.57-15.92.01-.17.15-.3.32-.28.17.01.29.15.28.32-.65,9.61,3.26,14.2,7.13,15.3,4.62,1.31,9.67-1.78,12.88-7.86,1.02-1.94,1.94-4.29,2.83-6.56.72-1.85,1.47-3.77,2.29-5.49.07-.15.25-.22.4-.14.15.07.21.25.14.4-.8,1.7-1.55,3.61-2.27,5.45-.89,2.29-1.82,4.66-2.86,6.62-2.83,5.36-7.07,8.48-11.28,8.48Z" style="fill: #735974; stroke-width: 0px;"/>
          <path d="m121.14,122.48c2.83,1.37,8.58,4.32,11.99,7.29,0,0,3.28,14.87-4.67,40.62,0,0-2.25,8.3-2.25,10.37l2.84,33.52s.32,3.76-1.94,4.36h0c-.11,2.63.74,3.96-1.99,4.87-8.29,2.77-46,10.45-68.51-1.66,0,0-.98-1.83-.69-3.28.29-1.46.31-1.17.7-2.4,0,0-1.56-1.72-.48-4.92,1.08-3.2,11.05-32.36,11.05-32.36l-1.86-25.05c-.11-1.58,1.6-2.14,1.6-1.83,0,.26.01,1.18.01,1.18,10.11-18.13,7.45-29.94,5.05-34.45,4.24-1.19,11.67-3.07,15.61-4.05,7.1,6.91,12.42,26.62,22.16,25.65,10.46-1.04,11.37-17.87,11.37-17.87Z" style="fill: #b17a89; fill-rule: evenodd; stroke-width: 0px;"/>
          <path d="m121.14,122.48c.48.23,1.04.51,1.66.82v24.75h-38.56v-32.5c1.26-.32,2.42-.61,3.37-.85,7.1,6.91,12.42,26.62,22.16,25.65,10.46-1.04,11.37-17.87,11.37-17.87Z" style="fill: #b17a89; fill-rule: evenodd; stroke-width: 0px;"/>
          <path d="m98.74,99.61l-2.07,3.13s-.66,5.81-3.55,9.57c-2.9,3.76,8.21,13.05,12.83,13.66,4.62.6,8.6-4.28,8.6-4.28l.26-.95s-.13-3.46.22-5.36c.35-1.9-16.29-15.77-16.29-15.77Z" style="fill: #f8a8a0; fill-rule: evenodd; stroke-width: 0px;"/>
          <path d="m103.66,127.65l3.24,5.92s2.81-1.04,5.32,0l2.16-5.32-5.18-4.84-5.53,4.24Z" style="fill: #595276; fill-rule: evenodd; stroke-width: 0px;"/>
          <polygon points="95.07 108.81 109.2 123.42 100.64 131.63 90.22 114.04 95.07 108.81" style="fill: #fff; fill-rule: evenodd; stroke-width: 0px;"/>
          <path d="m114.85,117.11l-5.65,6.31,7.6,8.73,2.55-9.71s.39-.95-.3-1.69c-.69-.73-4.2-3.64-4.2-3.64Z" style="fill: #fff; fill-rule: evenodd; stroke-width: 0px;"/>
          <g>
            <path d="m219.08,71.39l-.94-13.96s-.31-1.12.82-1.6c1.13-.48,2.5.05,2.68,2.73.19,2.68.9,13.2.9,13.2l.68.22,1.25-1.21c2.28-1.52,3.67.82,3.67,1.48,0,.06,0,.15-.01.25l.41-.22c.39-.26,2.01,0,2.41.69.39.69.16,2.28,0,2.92-.06.24-.15.46-.29.63.26.53.53,1.11.76,1.73.96,2.5.82,4.47.43,6.55-1.43,7.72-12.2,6.03-13.95,1.69-3.12-7.74-5.38-14.04-9.25-22.19-.97-2.05.39-3.22,1.05-3.26.66-.05,2.11.35,2.87,2.29.77,1.94,4.9,9.04,5.06,9.29.16.25,1.46-.4,1.43-1.22Z" style="fill: #fcd1c8; fill-rule: evenodd; stroke-width: 0px;"/>
            <path d="m228.08,85.78c-.11,0-.21-.06-.27-.16-1.35-2.61-4.32-4.01-4.35-4.03-.08-.04-.14-.11-.16-.19-.02-.08-.01-.17.04-.25.02-.03,2.07-3.2,2.03-4.79-.02-.81-.54-1.35-.85-1.59-.46-.36-.89-.46-.98-.44-.16.14-1.06,1.24-1.6,1.89-.21.25-.39.47-.51.61-.77.91-1.22,1.55-1.35,1.92-.07.2-.16.5-.28.9-.22.73-.52,1.72-.96,3.02-.05.16-.22.24-.38.19-.16-.05-.24-.23-.19-.38.44-1.28.74-2.27.96-2.99.12-.41.22-.72.29-.92.16-.45.62-1.12,1.46-2.11.12-.14.3-.36.5-.61.81-.98,1.49-1.81,1.72-2,.28-.23.78-.06,1.05.07.77.35,1.69,1.21,1.72,2.44.03.94-.55,2.29-1.11,3.37.65.25,1.17.26,1.56.03.18-.1.32-.25.43-.41,0,0,0-.02.02-.02.31-.47.36-1.06.36-1.07l.61-5.92c.02-.17.16-.28.33-.27.17.02.28.17.27.33l-.61,5.91s-.04.52-.28,1.03c.48.16.9.17,1.25.02.52-.21.73-.71.73-.71l.87-2.25c.06-.16.23-.23.39-.17.16.06.23.23.17.39l-.87,2.25s-.3.73-1.06,1.05c-.52.21-1.13.2-1.8-.06-.13.16-.29.3-.48.41-.57.33-1.29.33-2.16-.02-.22.4-.42.73-.55.95.83.44,3.13,1.83,4.33,4.14.08.15.02.33-.13.41-.04.02-.09.03-.14.03Z" style="fill: #f68b85; stroke-width: 0px;"/>
          </g>
          <path d="m165.02,146.09s1.61-1.32,1.96-4.34c.35-3.03-.61-8.25-.61-8.25l15.32-2.89s.29,6.54,1.69,9.51c1.4,2.97.44,4.44.44,4.44l-12.19,9.68-6.67-2.58.04-5.57Z" style="fill: #fcd1c8; fill-rule: evenodd; stroke-width: 0px;"/>
          <path d="m166.55,143.64c.19-.54.35-1.17.43-1.9.35-3.03-.61-8.25-.61-8.25l15.32-2.89s.14,3.11.68,6.01c-1.73,2.11-4.13,4.96-5.32,5.92-1.18.95-2.76,1.58-4.39,1.88-1.62.31-3.33.29-4.77-.16-.38-.12-.84-.33-1.35-.61Z" style="fill: #f8a8a0; fill-rule: evenodd; stroke-width: 0px;"/>
          <path d="m175.96,154.98l-3.18,5.12s-2.75-.9-5.21,0l-2.12-4.6,5.08-4.19,5.42,3.66Z" style="fill: #595276; fill-rule: evenodd; stroke-width: 0px;"/>
          <polygon points="183.38 140.11 170.54 151.32 178.93 158.42 188.14 144.63 183.38 140.11" style="fill: #fff; fill-rule: evenodd; stroke-width: 0px;"/>
          <path d="m165.02,146.09l5.52,5.23-7.45,7.55-2.88-8.07s-.38-.82.3-1.46c.68-.64,4.51-3.25,4.51-3.25Z" style="fill: #fff; fill-rule: evenodd; stroke-width: 0px;"/>
          <g>
            <path d="m186.19,112.82s1.28-2.04,2.4-2.15c1.12-.11,2.93,1.98,3.12,3.79.19,1.81-.7,8.38-4.77,6.73-4.06-1.65-.76-8.37-.76-8.37Z" style="fill: #fcd1c8; fill-rule: evenodd; stroke-width: 0px;"/>
            <path d="m185.2,115.08c-.1.15-.1.36,0,.48.1.11.24.1.35,0h0s2.03,5.28,2.67,4.27c.65-1.01,1.34-2,1.42-3.45.07-1.45-1.4-2.49-1.03-2.94.36-.43.92.03.97.07h0s0,0,0,0h0c.45.4.72.92.72.92.08.15.25.18.37.06.12-.11.16-.33.08-.48,0,0-1.03-1.96-2.54-1.6-1.44.34-3.02,2.65-3.02,2.66Z" style="fill: #f8a8a0; fill-rule: evenodd; stroke-width: 0px;"/>
            <path d="m154.44,118.83s-1.77-1.64-2.88-1.45c-1.11.19-2.32,2.67-2.03,4.47.29,1.79,2.85,7.91,6.35,5.26,3.49-2.65-1.44-8.28-1.44-8.28Z" style="fill: #fcd1c8; fill-rule: evenodd; stroke-width: 0px;"/>
            <path d="m155.98,120.75c.14.12.19.32.12.47-.07.13-.21.16-.34.08h0s-.59,5.63-1.47,4.82c-.89-.81-1.81-1.58-2.26-2.96-.45-1.38.71-2.77.23-3.1-.46-.32-.88.26-.92.32h0s0,0,0,0h0c-.33.5-.46,1.08-.46,1.08-.04.17-.19.24-.34.16-.15-.08-.24-.28-.2-.44,0,0,.48-2.16,2.04-2.21,1.48-.04,3.6,1.78,3.61,1.78Z" style="fill: #f8a8a0; fill-rule: evenodd; stroke-width: 0px;"/>
            <path d="m164.22,91.16c22.69-3.93,22.68,14.32,23.35,28.9.28,6.14-2.36,10.29-2.36,10.29,0,0-5.32,6.8-7.31,8.39-1.18.95-2.76,1.58-4.39,1.88-1.62.31-3.33.29-4.77-.16-2.42-.76-8.3-5.41-8.3-5.41,0,0-3.97-2.91-5.93-8.73-4.67-13.83-12.87-30.58,9.7-35.16Z" style="fill: #fcd1c8; fill-rule: evenodd; stroke-width: 0px;"/>
            <path d="m177.76,92.15c.32.15.63.32.93.49h.02c.19.12.38.23.56.35l.05.03c.18.12.35.24.52.36h.02c.45.35.88.7,1.27,1.08l.04.04c.15.14.3.29.44.44h.01c.15.17.29.33.43.5h0c.22.27.42.53.62.8h0c.12.18.25.36.36.54l.03.04c.11.17.22.34.33.51l.03.05c.17.29.34.58.49.88h0c.1.2.2.39.29.59l.04.08c.09.18.17.37.25.56l.02.04c.08.2.17.4.25.6l.02.05c.04.11.08.21.12.32.04.11.08.22.12.34l.11.32.03.08c.07.19.13.39.19.59l.03.1c.05.18.11.35.16.53l.05.17c.04.15.09.31.13.46l.06.23.08.31v.02s.09.36.09.36l.07.33.03.12c.04.18.08.37.12.55l.04.23.05.25.07.38v.05s.07.32.07.32h0s.06.39.06.39l.06.36.02.13c.03.19.06.38.09.57l.03.25.06.43.04.29.04.29.04.39v.05s.04.33.04.33h0s.04.41.04.41l.04.36v.14s.07.61.07.61v.14s.07.72.07.72h0c-.88.58-1.94.96-3.21,1.09-10.66,1.04-13.98-9.28-14.41-10.09-.43-.82-.98-.66-.98-.66,0,0-7.52.74-8.06.86-.54.12-.57.83-.57.83-.47,10.89-4.14,15.98-6.78,18.25-1.36-3.85-2.74-7.81-3.47-11.59l-.15-2.51s.05-3.61.41-7.4c1.31-3.7,4.4-6.75,10.37-8.68l.07-.02c.24-.08.48-.15.72-.22l.34-.1c.17-.05.35-.1.52-.14.17-.04.34-.09.52-.13l.38-.09c4.83.04,10.39.36,14.88.69h.01Z" style="fill: #f8a8a0; fill-rule: evenodd; stroke-width: 0px;"/>
            <path d="m155.72,102.36l.47,1.25s2.94-2.32,8.03-2.17c0,0,3.97-1.48,6.03-1.22,2.07.27-.43-1.67-3.79-1.38-3.36.29-7.78.04-8.1.54-.32.5-2.65,2.97-2.65,2.97Z" style="fill: #4c466a; fill-rule: evenodd; stroke-width: 0px;"/>
            <path d="m168.47,124.93c-.24-.16-.19-.99-.11-1.57.06-.43.14-.65.26-.65.11-.06.27.09.52.44.33.46.75,1.17.61,1.43-.18.34-.96.55-1.28.35Z" style="fill: #fcd1c8; fill-rule: evenodd; stroke-width: 0px;"/>
            <path d="m157.98,100.18c-.03-.22.12-.42.33-.45.22-.03.42.12.45.33,0,.04,2.48,15.36-6.64,20.95-.19.11-.43.06-.54-.13-.11-.19-.05-.43.13-.55,8.66-5.3,6.27-20.11,6.26-20.15Z" style="fill: #4c466a; fill-rule: evenodd; stroke-width: 0px;"/>
            <path d="m169.7,99.68c-.01-.22.15-.41.37-.42.22-.01.41.15.42.37,0,.03.66,11.15,9.97,11.48.22,0,.39.19.38.41,0,.22-.19.39-.41.38-10.04-.35-10.73-12.18-10.74-12.22Z" style="fill: #4c466a; fill-rule: evenodd; stroke-width: 0px;"/>
            <path d="m187.18,112.6c-14.46,1.73-13.96-11.98-19.02-13.24-1.58-.39-3.36.62-3.94,2.08,0,0-3.18-2.65-5.26-.74-2.09,1.91.29,21.13-12.19,25.24,0,0-2.02-15.23-.62-22.6,1.41-7.37,10.43-16.33,13.15-18.04,2.72-1.71,6.01-2.32,8.66-.5,0,0,18.8-8.66,24.02,22.97l-2.17,2.68-2.63,2.16Z" style="fill: #675d82; fill-rule: evenodd; stroke-width: 0px;"/>
            <path d="m161.37,84.26c2.21-.83,4.58-.85,6.59.53,0,0-1.57.81-1.82,1.75-.25.95-1.93,8.06-1.93,8.06,0,0,.89-8.06-2.84-10.35Z" style="fill: #4c466a; fill-rule: evenodd; stroke-width: 0px;"/>
            <path d="m187.18,112.6c-11.77,1.41-13.63-7.41-16.64-11.42,2.51,2.64,10.53,9.56,20.9,3.7.19.92.37,1.88.54,2.88l-2.17,2.68-2.63,2.16h0Zm-17.46-12.34h0s0,0,0,0h0Zm-11.39,2.01c-1.09,5.11-.71,20.1-11.56,23.67,0,0-.37-2.82-.69-6.61,3.93-.37,9.55-3.48,12.25-17.06h0Z" style="fill: #4c466a; fill-rule: evenodd; stroke-width: 0px;"/>
            <path d="m183.82,111.89l-.92.33s.89,5.04,4.56,5.2l-.12-2.51s-.15-2.6,1.99-4.07l-5.5,1.05Z" style="fill: #4c466a; fill-rule: evenodd; stroke-width: 0px;"/>
            <g>
              <path d="m172.71,112.69s-.46.22-.94.11c-.48-.11-1-.78-1.01-.95-.01-.17.28.05,1.05-.5.76-.54,3.66-2.06,6.21-.3.44.3.22.65-.27.59-.49-.06-2.65-.68-5.05,1.05Z" style="fill: #4c466a; fill-rule: evenodd; stroke-width: 0px;"/>
              <path d="m161.78,117.9s.5.08.93-.17c.43-.25.73-1.03.69-1.2-.04-.17-.26.13-1.15-.18-.88-.3-4.09-.93-6.04,1.5-.33.42-.02.69.43.49.45-.2,2.35-1.41,5.14-.44Z" style="fill: #4c466a; fill-rule: evenodd; stroke-width: 0px;"/>
              <path d="m167.35,119.2c.02-.21.21-.37.43-.35.21.02.37.21.35.43-.07.71-.51,4.75-.37,5.08.11.22.59.45.81.53.36.14.78.22,1.17.17.21-.03.41.13.43.34.03.21-.13.41-.34.43-.52.06-1.06-.03-1.54-.22-.41-.16-1.02-.51-1.23-.92-.23-.46.19-4.72.3-5.51Z" style="fill: #f68b85; fill-rule: evenodd; stroke-width: 0px;"/>
              <g>
                <path d="m170.07,130.54c-.19.02-.37-.13-.38-.32-.02-.19.13-.36.32-.38,0,0,1.03-.1,2.25-.61.18-.08.39,0,.46.19.07.18-.01.39-.19.46-1.31.55-2.45.66-2.46.66Z" style="fill: #f68b85; fill-rule: evenodd; stroke-width: 0px;"/>
                <path d="m166.89,129.25c-.2,0-.35-.18-.34-.38.01-.2.18-.35.38-.34.02,0,5.61.32,7.12-2.83.09-.18.3-.26.48-.17.18.09.26.3.17.48-1.72,3.59-7.79,3.24-7.81,3.24Z" style="fill: #f68b85; fill-rule: evenodd; stroke-width: 0px;"/>
                <path d="m173.61,126.07c-.2.04-.39-.09-.42-.29-.04-.2.1-.39.29-.42,0,0,1.45-.29,1.67,1.09.03.2-.1.38-.3.42-.2.03-.38-.1-.41-.3-.1-.64-.83-.49-.83-.49Z" style="fill: #f68b85; fill-rule: evenodd; stroke-width: 0px;"/>
              </g>
              <path d="m156.94,122.54s-.55.1-1.05-.22c-.5-.32-.18-1.59.34-2.47.52-.88,5.25-1.19,7.47.77l-.49.45s-4.59.1-6.27,1.47Z" style="fill: #f8a8a0; fill-rule: evenodd; stroke-width: 0px;"/>
              <path d="m174.23,117.67l-.95.74s-.85-2.34.19-3.95c1.03-1.62,3.36-2.06,5.28-1.3,1.92.76.76,3.5-.84,4.43-1.6.93-3.66.09-3.66.09Z" style="fill: #f8a8a0; fill-rule: evenodd; stroke-width: 0px;"/>
              <path d="m175.02,115.1h0c.48-.09.95-.03,1.37.15.24-.22.48-.55.45-1.02-.02-.22.16-.42.38-.43.23-.02.42.16.44.38.04.56-.15,1-.39,1.33.18-.05.35-.16.44-.38.09-.21.33-.31.54-.22.21.09.31.33.22.54-.21.5-.56.74-.93.84.11.21.2.43.24.67l.45,2.29c.25,1.26-.59,2.5-1.85,2.75h0c-1.27.25-2.5-.59-2.75-1.85l-.45-2.29c-.25-1.27.59-2.5,1.85-2.75Z" style="fill: #4c466a; fill-rule: evenodd; stroke-width: 0px;"/>
              <path d="m162.31,122.09s.5.06.93-.2c.42-.26.69-1.06.64-1.23-.05-.17-.25.14-1.16-.13-.75-.22-3.14-.6-4.97.75-.24-.09-.49-.26-.61-.58-.07-.17-.26-.26-.43-.2-.17.06-.26.26-.2.43.15.4.41.66.69.83l-.04.04c-.12,0-.25-.04-.36-.15-.14-.13-.35-.12-.48.02-.13.14-.12.35.02.48.11.1.23.18.35.23-.19.36.11.56.52.36.44-.22,2.29-1.51,5.11-.65Z" style="fill: #4c466a; fill-rule: evenodd; stroke-width: 0px;"/>
            </g>
          </g>
          <g>
            <path d="m128.09,94.85s2.37-1.81,3.72-1.46c1.34.36,2.55,3.56,1.99,5.74-.56,2.18-4.43,9.43-8.43,5.76-4.01-3.67,2.73-10.04,2.73-10.04Z" style="fill: #f8a8a0; fill-rule: evenodd; stroke-width: 0px;"/>
            <path d="m117.55,64.4c24.37,4.39,17.65,22.81,12.98,37.79-1.97,6.31-6.16,9.53-6.16,9.53,0,0-5.46,4.83-8.05,5.7-1.54.52-3.37.58-5.12.29-1.75-.28-3.47-.93-4.76-1.92-1.65-1.26-6.97-6.46-9.44-8.9-3.16-3.11-3.93-6.21-3.82-10.87.37-15.69-.1-35.3,24.39-31.63Z" style="fill: #fcd1c8; fill-rule: evenodd; stroke-width: 0px;"/>
            <path d="m133.46,92.36h0s-15.99.69-19.87-16.76l1.61-.98-.84-1.07-2.45,1.06s-.65,10.77-10.97,11.03c-10.32.27.04-13.89.61-14.07.57-.18,4.04-2.75,7.7-1.51,3.66,1.24,9.3,1.24,12.74,4.24,3.44,3,11.44,18.01,11.46,18.06Z" style="fill: #f8a8a0; fill-rule: evenodd; stroke-width: 0px;"/>
            <path d="m95.47,89.46s-1.66-2.48-3.05-2.57c-1.39-.1-3.56,2.55-3.73,4.8-.17,2.24,1.16,10.35,6.14,8.16,4.97-2.19.65-10.39.65-10.39Z" style="fill: #fcd1c8; fill-rule: evenodd; stroke-width: 0px;"/>
            <path d="m95.64,92.19c.27.45-.41,1.42-1,.37-.29-.51-.78-1.33-.98-1.33-.29,0-1.08,1.99-1.07,3.18,0,1.19.71,2.56.77,2.84.01.07.04.18.04.31-.37.68-.71,1.04-.91.68-.67-1.2-1.38-2.36-1.45-4.15-.07-1.78,1.46-3.16,1.08-3.69-.37-.5-.95.09-1,.15h0s0,0,0,0h0c-.47.52-.75,1.18-.75,1.19-.08.19-.26.24-.38.1-.13-.13-.16-.4-.08-.58,0,0,1.07-2.49,2.63-2.15,1.49.33,3.11,3.06,3.12,3.07Z" style="fill: #f8a8a0; fill-rule: evenodd; stroke-width: 0px;"/>
            <g>
              <path d="m110.41,94.35l.94-.45c-1.23-2.37-7.4-4.51-8.27-.91,0,0,4.97-1.49,7.33,1.36Z" style="fill: #f8a8a0; fill-rule: evenodd; stroke-width: 0px;"/>
              <path d="m125.04,93.16h0c1.26.31,2.04,1.59,1.73,2.85l-.56,2.28c-.31,1.26-1.59,2.04-2.85,1.73h0c-1.26-.31-2.04-1.59-1.73-2.85l.56-2.28c.31-1.26,1.59-2.04,2.85-1.73Z" style="fill: #735974; fill-rule: evenodd; stroke-width: 0px;"/>
              <path d="m111.14,91.2s.51.38,1.12.42c.61.04,1.37-.48,1.41-.66.05-.18-.35-.04-1.17-.86-.81-.81-4.01-3.33-7.47-2.34-.59.17-.4.6.21.7.61.09,3.35.17,5.9,2.74Z" style="fill: #735974; fill-rule: evenodd; stroke-width: 0px;"/>
              <path d="m123.45,90.41s-.53.07-.97-.2c-.44-.27-.73-1.11-.68-1.28.05-.18.26.14,1.21-.15.93-.28,4.32-.82,6.26,1.78.34.45,0,.72-.47.49-.47-.23-2.41-1.56-5.36-.64Z" style="fill: #735974; fill-rule: evenodd; stroke-width: 0px;"/>
              <path d="m119.29,95.25c-.02-.2-.2-.35-.4-.33-.2.02-.35.2-.33.4.07.67.45,4.48.32,4.79-.1.2-.56.42-.77.5-.35.13-.73.2-1.1.15-.2-.03-.38.12-.41.32-.02.2.12.39.32.41.49.06,1-.02,1.46-.19.39-.15.97-.47,1.16-.86.22-.43-.15-4.45-.25-5.2Z" style="fill: #f68b85; fill-rule: evenodd; stroke-width: 0px;"/>
              <path d="m109.67,95.14s.54.3,1.14.19c.6-.11,1.26-.89,1.29-1.1s-.35.04-1.26-.67c-.89-.7-4.34-2.72-7.56-.72-.55.35-.31.78.3.73.6-.05,3.28-.67,6.09,1.58Z" style="fill: #735974; fill-rule: evenodd; stroke-width: 0px;"/>
              <path d="m116.63,109.3c.22,0,.4-.17.41-.39,0-.22-.17-.4-.39-.41,0,0-1.17-.04-2.57-.53-.21-.07-.44.04-.51.25-.07.21.04.43.25.51,1.51.52,2.81.57,2.81.57Z" style="fill: #f68b85; fill-rule: evenodd; stroke-width: 0px;"/>
              <path d="m115.46,107.49h0c2.05.43,4.05-.89,4.48-2.94.06-.29-.03-.52-.21-.72h0s0,0,0,0h0s0,0,0,0c-.03-.03-.17-.16-.43-.11-.29.06-1.56.26-3.13-.22-1.58-.48-2.27-1.36-3.04-1.13-.3.1-.54.29-.61.63-.43,2.05.89,4.06,2.93,4.48Z" style="fill: #735974; fill-rule: evenodd; stroke-width: 0px;"/>
              <path d="m118.5,106.83c-.68-.67-1.55-1.17-2.56-1.38-1.03-.22-2.06-.1-2.96.27.52.88,1.4,1.55,2.49,1.78h0c1.1.23,2.2-.05,3.03-.67Z" style="fill: #ec797e; fill-rule: evenodd; stroke-width: 0px;"/>
              <path d="m113.13,102.38c-.07.65.37,1.27,1.02,1.41l3.98.83c.65.14,1.29-.24,1.49-.86-.07-.04-.18-.07-.33-.04-.29.06-1.56.26-3.13-.22-1.58-.48-2.27-1.36-3.04-1.13Z" style="fill: #fff; fill-rule: evenodd; stroke-width: 0px;"/>
            </g>
            <path d="m135.94,88.15l-.65,1.93-1.97,5-1.06,1.59s-.81-1.73-.26-4.08c0,0-1.32-1.65-.88-2.99.44-1.34,4.83-1.44,4.83-1.44Z" style="fill: #735974; fill-rule: evenodd; stroke-width: 0px;"/>
            <path d="m105.37,78.33s-.92,9.85-6.33,10.5c0,0,.23,3.74-1.97,5.39,0,0-.09-5.01-3.64-6.91,0,0-.84-.57-1.81-.23l.48-8.43,13.27-.32Z" style="fill: #735974; fill-rule: evenodd; stroke-width: 0px;"/>
            <path d="m106.99,59.02c11.47-13.81,40.46,4.11,36.85,20.49-3.94,17.92-24.1,11.87-30.25-3.91.05-.75-1.34-1.21-1.71.11-3.58,9.03-17.32,10.77-20.59,4.84-4.36-7.92,4.13-26.6,15.69-21.53Z" style="fill: #9e6d82; fill-rule: evenodd; stroke-width: 0px;"/>
            <path d="m106.99,59.02c1.64-1.97,3.63-3.29,5.84-4.07,2.57,4.1-1.88,9.02-1.88,9.02-1.08-3.7-3.96-4.95-3.96-4.95Z" style="fill: #735974; fill-rule: evenodd; stroke-width: 0px;"/>
            <path d="m110.52,76.75c.05-.17.24-.28.41-.22.18.05.28.24.22.41,0,.03-2.92,10.45-15.13,8.18-.18-.03-.3-.21-.27-.39.03-.18.21-.3.38-.27,11.62,2.16,14.37-7.69,14.38-7.72h0Zm-2.75-17.33c.13.13.13.34,0,.47-.13.13-.34.13-.47,0,0,0-2.7-2.65-6.5-2.14-.18.02-.35-.1-.37-.28-.02-.18.1-.35.28-.37,4.13-.56,7.04,2.31,7.05,2.32h0Zm7.2,18.18c-.04-.18.06-.36.24-.4.18-.04.36.06.4.24,0,.04,3.19,13.5,17.76,13.69.18,0,.33.15.33.34,0,.18-.15.33-.33.33-15.08-.2-18.38-14.15-18.39-14.19Z" style="fill: #9e6d82; fill-rule: evenodd; stroke-width: 0px;"/>
            <path d="m141.06,86.02c-8.96.3-16.07-9.95-17.57-19.47,8.66,9.57,15.7,8.81,20.17,6.39.57,2.17.67,4.38.19,6.58-.59,2.7-1.56,4.85-2.78,6.51Z" style="fill: #b17a89; fill-rule: evenodd; stroke-width: 0px;"/>
          </g>
          <path d="m59.54,132.99c-.15,0-.28-.11-.3-.26-.25-2.01-.7-9.17-.72-9.48-.01-.17.12-.31.28-.32.15-.02.31.12.32.28,0,.07.46,7.45.71,9.44.02.16-.1.31-.26.34-.01,0-.03,0-.04,0Zm-19.09-20.07c-2.25,0-4.73-.48-7.38-1.74-.15-.07-.21-.25-.14-.4.07-.15.25-.21.4-.14,11.03,5.21,19.01-3.39,19.09-3.47.11-.12.3-.13.42-.02.12.11.13.3.02.43-.06.07-4.96,5.35-12.4,5.35Z" style="fill: #e4d9e1; stroke-width: 0px;"/>
          <path d="m223.32,134.59c-.09,0-.17-.04-.23-.11-1.5-1.8-2.02-4.27-2.05-4.37-.03-.16.07-.32.23-.36.16-.03.32.07.36.23,0,.02.51,2.42,1.92,4.11.11.13.09.32-.04.42-.06.05-.12.07-.19.07Zm2.94-20.59c-1.65,0-3.4-.31-5.18-1.11-.15-.07-.22-.24-.15-.4.07-.15.24-.22.4-.15,8.16,3.63,15.61-3.26,15.68-3.34.12-.11.31-.11.43.01.11.12.11.31-.01.43-.06.06-4.91,4.55-11.16,4.55Z" style="fill: #e4d9e1; stroke-width: 0px;"/>
          <path d="m96.06,223.06c-23.13,0-39.32-6.52-39.54-6.61-.15-.06-.23-.24-.16-.39.06-.15.24-.22.39-.16.32.13,32.1,12.92,70.3,2.46.16-.04.33.05.37.21.04.16-.05.33-.21.37-11.12,3.05-21.71,4.13-31.14,4.13Z" style="fill: #735974; stroke-width: 0px;"/>
          <path d="m133.46,170.53c-.08,0-.17-.03-.23-.1-.11-.12-.1-.31.03-.42l17.64-15.63c.12-.11.31-.1.42.03.11.12.1.32-.03.43l-17.64,15.63c-.06.05-.13.08-.2.08Z" style="fill: #e4d9e1; stroke-width: 0px;"/>
          <path d="m112.22,133.87s-.08,0-.11-.02c-2.36-.98-5.07,0-5.1,0-.16.06-.33-.02-.39-.18-.06-.16.02-.33.18-.38.12-.04,2.95-1.07,5.53,0,.15.06.23.24.16.39-.05.12-.16.19-.28.19Z" style="fill: #4c466a; stroke-width: 0px;"/>
          <path d="m167.58,160.41c-.12,0-.24-.08-.28-.2-.06-.16.02-.33.18-.38,2.53-.92,5.29-.04,5.4,0,.16.05.24.22.19.38-.05.16-.22.24-.38.19-.03,0-2.69-.85-5.01,0-.03.01-.07.02-.1.02Z" style="fill: #4c466a; stroke-width: 0px;"/>
          <path d="m109.45,143.76c-6.05,0-11.23-4.89-16.06-15.04-3.57-7.5-6.36-11.38-8.07-13.32-.11-.12-.1-.31.03-.43.12-.11.31-.1.42.03,1.74,1.96,4.56,5.9,8.16,13.46,5.74,12.06,11.93,16.51,19.47,14.02,6.64-2.2,10.02-13.18,10.04-18.7,0-.16.14-.3.3-.3h0c.17,0,.3.14.3.3-.03,5.68-3.54,16.97-10.46,19.27-1.43.47-2.8.71-4.14.71Z" style="fill: #735974; stroke-width: 0px;"/>
        </g>
      </g>
    </g>
  </g>
</svg>