<?xml version="1.0" encoding="UTF-8"?>
<svg id="_圖層_2" data-name="圖層 2" xmlns="http://www.w3.org/2000/svg" width="19.91" height="24.09" viewBox="0 0 19.91 24.09">
  <g id="_圖層_8" data-name="圖層 8">
    <path d="m10.56,18.66c-.83-1.1-1.45-2.15-1.86-3.15-.95-1.91-1.13-3.4-1.13-3.4,0,0,.96,1.03,2.33,2.6.36.32.7.74,1.14,1.18.34.42.8.76,1.25,1.21s.91.79,1.35,1.24c.47.34.99.92,1.45,1.26s1.01.82,1.48,1.16c.18.16.47.34.65.5,2.87-2.93,3.63-7.63,1.33-11.22C14.27,3.37,10.69,7.34,2.01,0c0,0-4.92,10.08.63,19.62,2.56,4.33,8.09,5.75,12.52,3.22-.57-.37-1.14-.74-1.69-1.21-1.12-.84-2.18-1.9-2.91-2.97Z" style="fill: #fff; stroke-width: 0px;"/>
  </g>
</svg>