<?xml version="1.0" encoding="UTF-8"?>
<svg xmlns="http://www.w3.org/2000/svg" width="264.42" height="264.43" xmlns:xlink="http://www.w3.org/1999/xlink" viewBox="0 0 264.42 264.43">
  <defs>
    <filter id="luminosity-noclip" x="38.28" y="118.93" width="25.49" height="26.56" color-interpolation-filters="sRGB" filterUnits="userSpaceOnUse">
      <feFlood flood-color="#fff" result="bg"/>
      <feBlend in="SourceGraphic" in2="bg"/>
    </filter>
    <filter id="luminosity-noclip-2" x="38.28" y="-11014.12" width="25.49" height="32766" color-interpolation-filters="sRGB" filterUnits="userSpaceOnUse">
      <feFlood flood-color="#fff" result="bg"/>
      <feBlend in="SourceGraphic" in2="bg"/>
    </filter>
    <mask id="mask-1" x="38.28" y="-11014.12" width="25.49" height="32766" maskUnits="userSpaceOnUse"/>
    <radialGradient id="radial-gradient" cx="51.02" cy="132.21" fx="51.02" fy="132.21" r="13.02" gradientUnits="userSpaceOnUse">
      <stop offset="0" stop-color="#fafafa"/>
      <stop offset=".33" stop-color="#f7f7f7"/>
      <stop offset=".47" stop-color="#f0f0f0"/>
      <stop offset=".57" stop-color="#e4e4e4"/>
      <stop offset=".65" stop-color="#d2d2d2"/>
      <stop offset=".73" stop-color="#bcbcbc"/>
      <stop offset=".79" stop-color="#9f9f9f"/>
      <stop offset=".85" stop-color="#7e7e7e"/>
      <stop offset=".91" stop-color="#575757"/>
      <stop offset=".96" stop-color="#2c2c2c"/>
      <stop offset="1" stop-color="#000"/>
    </radialGradient>
    <mask id="mask" x="38.28" y="118.93" width="25.49" height="26.56" maskUnits="userSpaceOnUse">
      <g style="filter: url(#luminosity-noclip);">
        <g style="mask: url(#mask-1);">
          <path d="m63.76,132.83c0,5.64-3.36,10.49-8.18,12.67-11.89-4.35-17.31-11.92-17.31-18.4,0-.66,0-1.32.02-1.96,2.49-3.74,6.74-6.2,11.57-6.2,7.67,0,13.89,6.22,13.89,13.9Z" style="fill: url(#radial-gradient); mix-blend-mode: multiply; stroke-width: 0px;"/>
        </g>
      </g>
    </mask>
    <radialGradient id="radial-gradient-2" cx="51.02" cy="132.21" fx="51.02" fy="132.21" r="13.02" gradientUnits="userSpaceOnUse">
      <stop offset="0" stop-color="#f696b1"/>
      <stop offset=".4" stop-color="#f698b2"/>
      <stop offset=".57" stop-color="#f69fb7"/>
      <stop offset=".7" stop-color="#f7abc0"/>
      <stop offset=".8" stop-color="#f9bdcd"/>
      <stop offset=".89" stop-color="#fbd3de"/>
      <stop offset=".96" stop-color="#fdeff3"/>
      <stop offset="1" stop-color="#fff"/>
    </radialGradient>
    <filter id="luminosity-noclip-3" x="93.68" y="118.93" width="25.49" height="26.56" color-interpolation-filters="sRGB" filterUnits="userSpaceOnUse">
      <feFlood flood-color="#fff" result="bg"/>
      <feBlend in="SourceGraphic" in2="bg"/>
    </filter>
    <filter id="luminosity-noclip-4" x="93.68" y="-11014.12" width="25.49" height="32766" color-interpolation-filters="sRGB" filterUnits="userSpaceOnUse">
      <feFlood flood-color="#fff" result="bg"/>
      <feBlend in="SourceGraphic" in2="bg"/>
    </filter>
    <mask id="mask-3" x="93.68" y="-11014.12" width="25.49" height="32766" maskUnits="userSpaceOnUse"/>
    <radialGradient id="radial-gradient-3" cx="-11468.48" fx="-11468.48" r="13.02" gradientTransform="translate(-11362.06) rotate(-180) scale(1 -1)" xlink:href="#radial-gradient"/>
    <mask id="mask-2" x="93.68" y="118.93" width="25.49" height="26.56" maskUnits="userSpaceOnUse">
      <g style="filter: url(#luminosity-noclip-3);">
        <g style="mask: url(#mask-3);">
          <path d="m93.68,132.83c0,5.64,3.36,10.49,8.18,12.67,11.89-4.35,17.31-11.92,17.31-18.4,0-.66,0-1.32-.02-1.96-2.49-3.74-6.74-6.2-11.57-6.2-7.67,0-13.89,6.22-13.89,13.9Z" style="fill: url(#radial-gradient-3); mix-blend-mode: multiply; stroke-width: 0px;"/>
        </g>
      </g>
    </mask>
    <radialGradient id="radial-gradient-4" cx="-11468.48" fx="-11468.48" r="13.02" gradientTransform="translate(-11362.06) rotate(-180) scale(1 -1)" xlink:href="#radial-gradient-2"/>
    <filter id="luminosity-noclip-5" x="143.79" y="123.43" width="24.41" height="26.28" color-interpolation-filters="sRGB" filterUnits="userSpaceOnUse">
      <feFlood flood-color="#fff" result="bg"/>
      <feBlend in="SourceGraphic" in2="bg"/>
    </filter>
    <filter id="luminosity-noclip-6" x="143.79" y="-11014.12" width="24.41" height="32766" color-interpolation-filters="sRGB" filterUnits="userSpaceOnUse">
      <feFlood flood-color="#fff" result="bg"/>
      <feBlend in="SourceGraphic" in2="bg"/>
    </filter>
    <mask id="mask-5" x="143.79" y="-11014.12" width="24.41" height="32766" maskUnits="userSpaceOnUse"/>
    <radialGradient id="radial-gradient-5" cx="220" cy="253.23" fx="220" fy="253.23" r="12.68" gradientTransform="translate(-43.86 -133.08) rotate(4.45)" xlink:href="#radial-gradient"/>
    <mask id="mask-4" x="143.79" y="123.43" width="24.41" height="26.28" maskUnits="userSpaceOnUse">
      <g style="filter: url(#luminosity-noclip-5);">
        <g style="mask: url(#mask-5);">
          <path d="m168.16,138.03c-.43,5.48-4.05,9.94-8.9,11.69-11.23-5.12-15.92-12.9-15.43-19.19.05-.64.11-1.28.17-1.9,2.7-3.44,7.02-5.52,11.71-5.15,7.46.58,13.03,7.1,12.45,14.55Z" style="fill: url(#radial-gradient-5); mix-blend-mode: multiply; stroke-width: 0px;"/>
        </g>
      </g>
    </mask>
    <radialGradient id="radial-gradient-6" cx="220" cy="253.23" fx="220" fy="253.23" r="12.68" gradientTransform="translate(-43.86 -133.08) rotate(4.45)" xlink:href="#radial-gradient-2"/>
    <filter id="luminosity-noclip-7" x="197.19" y="127.8" width="25.37" height="25.42" color-interpolation-filters="sRGB" filterUnits="userSpaceOnUse">
      <feFlood flood-color="#fff" result="bg"/>
      <feBlend in="SourceGraphic" in2="bg"/>
    </filter>
    <filter id="luminosity-noclip-8" x="197.19" y="-11014.12" width="25.37" height="32766" color-interpolation-filters="sRGB" filterUnits="userSpaceOnUse">
      <feFlood flood-color="#fff" result="bg"/>
      <feBlend in="SourceGraphic" in2="bg"/>
    </filter>
    <mask id="mask-7" x="197.19" y="-11014.12" width="25.37" height="32766" maskUnits="userSpaceOnUse"/>
    <radialGradient id="radial-gradient-7" cx="-11636.22" cy="253.2" fx="-11636.22" fy="253.2" r="12.68" gradientTransform="translate(-11372.01 -1014.75) rotate(-175.55) scale(1 -1)" xlink:href="#radial-gradient"/>
    <mask id="mask-6" x="197.19" y="127.8" width="25.37" height="25.42" maskUnits="userSpaceOnUse">
      <g style="filter: url(#luminosity-noclip-7);">
        <g style="mask: url(#mask-7);">
          <path d="m197.23,140.29c-.43,5.48,2.47,10.45,6.99,12.93,11.89-3.32,17.72-10.28,18.21-16.57.05-.64.09-1.28.13-1.91-2.14-3.82-6.08-6.54-10.77-6.9-7.46-.58-13.97,4.99-14.55,12.45Z" style="fill: url(#radial-gradient-7); mix-blend-mode: multiply; stroke-width: 0px;"/>
        </g>
      </g>
    </mask>
    <radialGradient id="radial-gradient-8" cx="-11636.22" cy="253.2" fx="-11636.22" fy="253.2" r="12.68" gradientTransform="translate(-11372.01 -1014.75) rotate(-175.55) scale(1 -1)" xlink:href="#radial-gradient-2"/>
  </defs>
  <g style="isolation: isolate;">
    <g id="_圖層_2" data-name="圖層 2">
      <g id="_圖層_8" data-name="圖層 8">
        <g id="exploration1">
          <g>
            <path d="m132.21,0c-1.93,0-3.89.04-5.82.13l.42,9.7c1.43-.06,2.87-.1,4.31-.11h0s.03,0,.05,0h0s.03,0,.05,0h0c.06,0,.13,0,.19,0h0s.03,0,.04,0h.01s.03,0,.04,0h0s.03,0,.05,0h0s.07,0,.1,0h0s.03,0,.04,0h.01s.02,0,.04,0h.05s0,0,.02,0h.04s.06,0,.1,0h.06s.02,0,.03,0h.16V0h0Zm-9.3.32c-1.93.13-3.88.31-5.8.53l1.1,9.65c.52-.06,1.03-.11,1.55-.17,0,0,0,0,0,0,.01,0,.03,0,.04,0,0,0,0,0,0,0,.02,0,.02,0,.04,0,0,0,0,0,0,0,.02,0,.04,0,.06,0,0,0,.02,0,.02,0,0,0,.01,0,.02,0,0,0,.02,0,.03,0,0,0,.01,0,.02,0,.01,0,.02,0,.03,0,0,0,0,0,.01,0,.01,0,.02,0,.03,0,0,0,0,0,.01,0,.01,0,.03,0,.04,0h0c1.15-.11,2.3-.21,3.46-.29l-.67-9.69h0Zm-9.26.97c-1.92.27-3.85.59-5.75.94l1.78,9.55s0,0,0,0c.01,0,.02,0,.03,0,0,0,0,0,.01,0,.01,0,.02,0,.03,0,0,0,0,0,.01,0,0,0,.02,0,.03,0,0,0,.01,0,.02,0,0,0,.02,0,.03,0,0,0,.01,0,.02,0,0,0,.02,0,.02,0,0,0,.02,0,.03,0,0,0,.01,0,.02,0,.01,0,.03,0,.04,0h0s.03,0,.04,0h0s.03,0,.04,0c0,0,0,0,0,0,.01,0,.02,0,.04,0h0s.02,0,.04,0h0s.03,0,.04,0h0c1.59-.29,3.19-.55,4.8-.77l-1.35-9.62h0Zm-9.18,1.62c-1.89.4-3.8.86-5.67,1.34l2.45,9.4c1.03-.27,2.07-.52,3.12-.77h0s.03,0,.04-.01c0,0,0,0,.01,0,0,0,.02,0,.03,0,0,0,.01,0,.02,0,0,0,.02,0,.02,0s.01,0,.02,0c0,0,.01,0,.02,0,.01,0,.02,0,.03,0,0,0,0,0,0,0,.64-.15,1.29-.29,1.93-.43l-2.03-9.5h0Zm-9.04,2.27c-1.86.54-3.73,1.12-5.56,1.74l3.11,9.2s0,0,.01,0c.02,0,.04-.01.06-.02,0,0,0,0,0,0,.03,0,.05-.02.08-.03h0c1.27-.43,2.56-.84,3.85-1.22h.01s.04-.02.06-.02c0,0,.02,0,.02,0l.06-.02s.02,0,.03,0c.01,0,.02,0,.03,0,.02,0,.04-.01.06-.02,0,0,0,0,.01,0,.28-.08.56-.17.85-.25l-2.7-9.33h0Zm-8.86,2.91c-1.81.67-3.64,1.38-5.42,2.13l3.75,8.96c1.19-.5,2.39-.98,3.6-1.44,0,0,0,0,0,0,.02,0,.05-.02.08-.03,0,0,0,0,0,0,.03,0,.05-.02.07-.03,0,0,0,0,.01,0,.02,0,.05-.02.07-.03,0,0,0,0,.01,0,.02,0,.04-.01.06-.02h.02s.04-.02.06-.03c0,0,.02,0,.03-.01.01,0,.04-.01.05-.02.01,0,.02,0,.04-.01,0,0,.02,0,.03-.01.02,0,.04-.01.06-.02,0,0,0,0,.01,0,.03-.01.05-.02.08-.03h0c.25-.09.5-.19.75-.28l-3.35-9.12h0Zm-8.63,3.53c-1.76.79-3.53,1.64-5.26,2.51l4.38,8.67c.2-.1.4-.2.6-.3,0,0,0,0,0,0,.02-.01.05-.02.07-.04,0,0,0,0,0,0,.05-.02.1-.05.15-.07,0,0,0,0,0,0,.02-.01.05-.02.07-.03,0,0,0,0,.01,0,.02-.01.04-.02.06-.03,0,0,.01,0,.02,0,.02-.01.04-.02.06-.03,0,0,0,0,.01,0l.06-.03s.01,0,.01,0c.02,0,.04-.02.06-.03,0,0,.01,0,.02,0,.02,0,.04-.02.06-.03,0,0,.01,0,.02,0,.02-.01.04-.02.06-.03,0,0,.01,0,.02,0,.02-.01.04-.02.06-.03,0,0,.01,0,.02,0,.02,0,.04-.02.06-.03,0,0,0,0,.01,0,.02-.01.04-.02.06-.03,0,0,0,0,0,0,.02-.01.04-.02.06-.03,0,0,0,0,0,0,.02-.01.05-.02.07-.03,0,0,0,0,0,0,.02-.01.05-.02.07-.03,0,0,0,0,.01,0,.02-.01.05-.02.07-.03,0,0,0,0,0,0,.99-.48,1.98-.94,2.98-1.39l-3.99-8.86h0Zm-8.36,4.13c-1.7.92-3.41,1.88-5.07,2.88l4.98,8.34c.47-.28.94-.56,1.42-.83h0s.05-.03.08-.05h0s.05-.03.08-.05h0s.03-.02.04-.02h0s.05-.03.07-.04c.01,0,.01,0,.02-.01.02-.01.04-.02.05-.03,0,0,.02-.01.02-.01l.05-.03s.02,0,.03-.02c.01,0,.03-.02.04-.02.01,0,.02-.01.04-.02.01,0,.02-.01.03-.02.01,0,.03-.02.05-.03,0,0,.02-.01.03-.02.02,0,.03-.02.05-.03,0,0,.02-.01.03-.02.01,0,.02-.01.04-.02.01,0,.02-.01.04-.02.01,0,.03-.01.04-.02.01,0,.02-.01.03-.02.01,0,.03-.02.04-.02,0,0,.02,0,.03-.01.02,0,.03-.02.05-.03,0,0,.02,0,.02-.01.02,0,.03-.02.05-.03,0,0,.02,0,.03-.01.02,0,.03-.02.05-.03,0,0,.02,0,.02-.01.01,0,.03-.02.04-.02.01,0,.02-.01.03-.02.01,0,.03-.01.04-.02,0,0,.02-.01.03-.01.02,0,.03-.02.05-.03,0,0,.02-.01.03-.02.02,0,.03-.02.05-.03,0,0,.02-.01.03-.02.02,0,.03-.02.05-.03.01,0,.02-.01.03-.02.01,0,.02-.01.03-.02.01,0,.03-.02.04-.02.01,0,.02-.01.03-.02.02,0,.03-.02.05-.03.01,0,.02,0,.03-.02.02,0,.03-.02.05-.03,0,0,.02-.01.02-.01.04-.02.08-.04.12-.06h0s.05-.03.07-.04h0c.43-.24.87-.48,1.3-.71l-4.61-8.55h0Zm-8.04,4.71c-1.63,1.03-3.26,2.12-4.85,3.22l5.55,7.97s0,0,.01,0c.02-.01.04-.03.05-.04h.01s.04-.04.05-.05c0,0,0,0,.01,0,.02-.01.04-.03.06-.04,0,0,0,0,.01,0,.02-.01.04-.03.06-.04h.01s.04-.04.06-.05c0,0,0,0,.01,0,.02-.01.04-.03.06-.04,0,0,0,0,0,0,.02-.02.04-.03.06-.04,0,0,0,0,0,0,.02-.02.04-.03.06-.04h0s.04-.03.06-.05h.01s.04-.03.06-.05c0,0,0,0,.01,0,.02-.01.04-.03.06-.04,0,0,0,0,.01,0,.02-.01.04-.03.06-.04,0,0,0,0,0,0,.02-.01.04-.03.06-.04,0,0,0,0,0,0,.02-.01.04-.03.06-.04h.01s.04-.03.06-.05c0,0,0,0,.01,0,.02-.01.04-.03.06-.04,0,0,.01,0,.02-.01.02-.01.04-.03.06-.04,0,0,0,0,.01,0,.02-.01.04-.03.06-.04,0,0,0,0,.01,0,.02-.01.04-.03.06-.04,0,0,0,0,0,0,.02-.01.04-.03.06-.04,0,0,0,0,.01,0,.02-.01.04-.03.06-.04,0,0,0,0,.01,0,.02-.01.04-.03.06-.04,0,0,.01,0,.02-.01.02-.01.04-.03.06-.04,0,0,.01,0,.02-.01.02-.01.03-.02.05-.04,0,0,.01,0,.02-.01.02-.01.03-.02.05-.03h.01s.04-.03.06-.05c0,0,.01,0,.02-.01.02-.01.04-.02.05-.04,0,0,.01,0,.02-.01.02-.01.03-.02.05-.03,0,0,.01,0,.02-.01.02-.01.04-.02.05-.03,0,0,.01,0,.02-.01.02-.01.03-.02.05-.03,0,0,.01,0,.02-.01.02-.01.03-.02.05-.03,0,0,.01,0,.02-.01.02-.01.03-.02.05-.03,0,0,.02-.01.02-.02.02-.01.03-.02.05-.03,0,0,.01,0,.02-.01.02-.01.03-.02.05-.03,0,0,.01,0,.02-.01.02-.01.03-.02.05-.03,0,0,.01,0,.02-.01.02-.01.03-.02.04-.03,0,0,.02-.01.03-.02.01,0,.03-.02.04-.03,0,0,.01,0,.02-.01.02-.01.03-.02.05-.03,0,0,.01,0,.02-.01.02-.01.04-.02.05-.03,0,0,.01,0,.02-.01.02-.01.03-.02.05-.03,0,0,.01,0,.02-.01.02-.01.04-.02.05-.03,0,0,.01,0,.02-.01.02-.01.04-.02.05-.03,0,0,.01,0,.02-.01.02-.01.04-.02.05-.04,0,0,0,0,.01,0,.02-.01.04-.02.06-.04,0,0,.01,0,.02-.01.02-.01.04-.02.06-.04,0,0,0,0,.01,0,.02-.01.04-.03.06-.04,0,0,0,0,.01,0,.02-.01.04-.03.06-.04,0,0,0,0,0,0,.02-.01.04-.03.07-.04,0,0,0,0,0,0,.02-.01.05-.03.07-.04,0,0,0,0,0,0,.02-.01.05-.03.07-.04,0,0,0,0,0,0,.33-.21.66-.43.99-.64l-5.2-8.21h0Zm-7.69,5.26c-1.56,1.15-3.11,2.34-4.61,3.56l6.1,7.56c1.1-.89,2.22-1.76,3.35-2.61h0s.04-.04.06-.05c0,0,0,0,.01,0,.02-.01.04-.03.06-.04,0,0,.01,0,.02-.01.01,0,.03-.02.04-.03.01,0,.02-.02.03-.03,0,0,.02-.01.03-.02.01,0,.03-.02.04-.03,0,0,.02-.01.03-.02.01,0,.03-.02.04-.03,0,0,.02-.01.03-.02.01,0,.03-.02.04-.03l.03-.02s.03-.02.04-.03c0,0,.01,0,.02-.01.02-.01.04-.03.05-.04,0,0,0,0,.01-.01.02-.01.04-.03.05-.04,0,0,0,0,.01-.01.02-.01.04-.03.06-.04,0,0,0,0,0,0,.02-.02.04-.03.06-.05,0,0,0,0,0,0,.04-.03.09-.07.13-.1l-5.76-7.82h0Zm-7.3,5.79c-1.47,1.25-2.93,2.55-4.35,3.87l6.61,7.11c.07-.07.14-.13.21-.2h0s.04-.04.06-.06h0s.04-.04.06-.06c0,0,.01,0,.01-.01l.04-.04s.02-.02.03-.02c0,0,.02-.02.03-.03.01-.01.02-.02.04-.04,0,0,.02-.02.03-.02.01-.01.02-.02.03-.03,0,0,.02-.02.03-.03.01-.01.02-.02.04-.03,0,0,.02-.01.02-.02.01-.01.03-.02.04-.04,0,0,.01-.01.02-.01.01-.01.03-.03.05-.04,0,0,.01,0,.02-.01.02-.02.03-.03.05-.05,0,0,0,0,.01-.01.02-.02.03-.03.05-.05h.01s.04-.04.05-.06c0,0,0,0,0,0,.02-.02.04-.04.06-.05t0,0s.04-.04.06-.06h0s.04-.04.06-.06c0,0,0,0,0,0,.02-.02.04-.04.06-.05,0,0,0,0,0,0,.02-.02.04-.04.06-.06,0,0,0,0,0,0,.92-.83,1.85-1.64,2.79-2.45l-6.3-7.4h0Zm-6.88,6.28c-1.38,1.35-2.75,2.75-4.07,4.16l7.1,6.63c.25-.27.5-.53.75-.8h0s.04-.04.06-.06h0s.04-.04.06-.06c0,0,0,0,0,0,.02-.02.03-.04.05-.05,0,0,0,0,.01-.01.01-.01.03-.03.04-.05,0,0,0,0,.01-.01.01-.01.03-.03.04-.04,0,0,.01-.01.02-.02.01-.01.03-.03.04-.04,0,0,.01-.02.02-.02.01-.01.02-.02.04-.04,0,0,.02-.02.03-.03,0,0,.01-.01.02-.02.01-.02.03-.03.04-.05,0,0,0,0,.01-.01.02-.02.03-.04.05-.05h0c.81-.85,1.63-1.67,2.46-2.49l-6.8-6.94h0Zm-6.42,6.75c-1.28,1.45-2.55,2.94-3.77,4.44l7.54,6.12c1.02-1.25,2.06-2.49,3.12-3.7h0s.04-.05.06-.07h0s.04-.05.06-.07h0c.07-.08.14-.16.21-.24,0,0,0,0,0,0l.03-.03-7.27-6.44h0Zm-5.93,7.18c-1.18,1.53-2.34,3.11-3.45,4.69l7.95,5.58.02-.03s0,0,.01-.02c.01-.02.02-.03.04-.05,0,0,0-.01.02-.02l.02-.03s.02-.03.03-.04c0-.01.01-.02.02-.03,0-.01.02-.03.03-.04,0-.01.01-.02.02-.03,0-.01.02-.02.03-.04,0-.01.01-.02.02-.03,0-.01.02-.02.03-.04,0-.01.02-.02.02-.03,0-.01.02-.02.03-.04,0,0,.01-.02.02-.03.01-.02.02-.03.03-.04,0,0,.01-.02.02-.02.01-.02.02-.03.03-.05,0,0,.01-.01.02-.02.01-.02.02-.03.04-.05,0,0,0-.01.01-.02.01-.02.02-.03.04-.05,0,0,0-.01.01-.02.01-.02.02-.03.03-.05,0,0,.01-.01.02-.02.01-.02.02-.03.03-.04,0,0,0-.01.01-.02.01-.02.02-.03.04-.05,0,0,0-.01.01-.02.01-.02.02-.03.04-.05,0,0,.01-.01.02-.02.01-.02.02-.03.03-.05,0,0,.01-.02.02-.02.01-.02.02-.03.03-.04,0,0,.01-.02.02-.02,0-.01.02-.03.03-.04,0,0,.01-.02.02-.03.01-.02.02-.03.03-.04,0,0,.01-.01.02-.02.01-.02.02-.03.03-.05,0,0,.01-.02.02-.03.01-.02.02-.03.03-.05,0,0,.01-.02.02-.02.01-.02.02-.03.03-.04,0,0,.01-.02.02-.03,0-.01.02-.02.02-.03,0-.01.02-.02.03-.04,0,0,.01-.02.02-.03.01-.01.02-.03.03-.04,0,0,.01-.02.02-.03.01-.01.02-.03.03-.04,0-.01.01-.02.02-.03,0-.01.02-.02.02-.03,0-.01.02-.03.03-.04,0-.01.02-.02.02-.03,0,0,.01-.02.02-.02.01-.02.02-.03.04-.05,0,0,0-.01.01-.02.01-.02.03-.04.04-.06,0,0,0,0,.01-.01.01-.02.03-.04.04-.06,0,0,0,0,0-.01.02-.02.03-.04.05-.07h0c.54-.74,1.08-1.46,1.64-2.18l-7.7-5.92h0Zm-5.41,7.58c-1.07,1.61-2.11,3.27-3.11,4.92l8.33,5s.02-.03.02-.04c0,0,0,0,0-.01.02-.04.05-.08.07-.12h0s.03-.05.04-.08c0,0,0,0,0,0,.01-.02.03-.05.04-.07,0,0,0,0,0,0,.01-.02.03-.04.04-.07,0,0,0,0,0-.01.01-.02.03-.05.04-.07,0,0,0,0,0,0,0-.01.02-.03.02-.04h0s.03-.05.05-.08h0s.03-.05.04-.08c0,0,0,0,0-.01.01-.02.03-.04.04-.07,0,0,0,0,0-.01.01-.02.03-.04.04-.06,0,0,0-.01,0-.02.01-.02.03-.04.04-.07,0,0,0,0,0,0,0-.01.02-.03.02-.04,0,0,0-.01.01-.02.01-.02.02-.04.03-.06,0-.01,0-.01.01-.02.01-.02.02-.03.03-.05,0,0,.01-.02.02-.03,0-.01.02-.03.03-.05,0,0,.01-.02.02-.03,0-.01.02-.03.02-.04,0-.01.01-.02.02-.04,0,0,.01-.02.02-.03.01-.02.02-.03.03-.05,0,0,.01-.02.02-.03.01-.02.02-.03.03-.05,0,0,0-.01.01-.02.01-.02.02-.04.03-.05v-.02s.03-.03.04-.05c0,0,0-.01,0-.02.01-.02.02-.04.04-.06,0,0,0,0,0-.01.01-.02.02-.04.04-.06,0,0,0,0,0-.01.01-.02.03-.04.04-.06,0,0,0,0,0,0,.01-.02.03-.04.04-.07,0,0,0,0,0,0,.57-.91,1.14-1.8,1.73-2.69l-8.1-5.36h0Zm-4.87,7.94c-.95,1.68-1.88,3.41-2.75,5.13l8.66,4.4c.25-.5.51-1,.77-1.5,0,0,0,0,0,0,.01-.02.02-.05.04-.07,0,0,0,0,0,0,.01-.02.03-.05.04-.07,0,0,0,0,0,0,.01-.02.03-.05.04-.07,0,0,0,0,0,0,.01-.02.02-.04.04-.07,0,0,0,0,0,0,.01-.02.02-.04.03-.06,0,0,0,0,0-.01.01-.02.02-.04.03-.06,0,0,0-.01,0-.02.01-.02.02-.04.03-.06v-.02s.03-.04.04-.06c0,0,0-.01.01-.02,0-.02.02-.03.03-.05,0,0,0-.02.01-.03,0-.02.02-.03.02-.05,0,0,0-.02.01-.02,0-.02.02-.04.03-.05,0,0,0-.02.01-.02,0-.02.02-.03.03-.05,0,0,.01-.02.02-.03,0-.02.02-.03.03-.05,0,0,.01-.02.02-.03,0-.01.01-.03.02-.04,0-.01.02-.03.02-.04,0-.01,0-.02.02-.03,0-.01.02-.03.02-.04,0-.01.01-.02.02-.03,0-.01.02-.03.02-.05,0-.01.01-.02.02-.03,0-.01.01-.02.02-.03,0-.01.02-.03.02-.04,0-.01.01-.02.02-.04,0-.01,0-.02.01-.03,0-.02.02-.03.03-.05,0,0,0-.02.01-.02.01-.02.02-.04.03-.06,0,0,0-.01,0-.02.01-.02.02-.04.04-.06,0,0,0,0,0-.01.04-.07.07-.13.11-.2h0s.03-.06.04-.08h0s.03-.06.04-.08h0c.24-.43.47-.86.71-1.28l-8.46-4.78h0Zm-4.3,8.27c-.83,1.75-1.63,3.54-2.38,5.32l8.95,3.78c.03-.06.05-.13.08-.19h0s.02-.05.03-.08c0,0,0,0,0-.01,0-.02.02-.04.02-.06,0,0,0-.02.01-.03,0-.01,0-.02.01-.03,0-.02.01-.03.02-.05,0,0,0-.02.01-.03,0-.02.02-.04.02-.06,0,0,0-.01,0-.02,0-.02.02-.04.03-.06,0,0,0,0,0-.01.01-.02.02-.05.03-.07,0,0,0,0,0,0,.01-.03.02-.05.03-.07,0,0,0,0,0,0,.52-1.21,1.06-2.42,1.62-3.61,0,0,0,0,0,0,.01-.02.02-.04.03-.06,0,0,0-.01,0-.02,0-.02.02-.04.03-.06,0,0,0-.02.01-.02,0-.01.01-.03.02-.05,0-.01.01-.03.02-.04,0-.01,0-.02.01-.03,0-.02.02-.04.03-.06,0,0,0,0,0-.02.03-.06.06-.12.09-.18l-8.77-4.17h0Zm-3.7,8.55c-.7,1.8-1.38,3.64-2,5.47l9.19,3.13s.02-.05.03-.08h0s.02-.05.02-.08c0,0,0-.01,0-.02,0-.02.02-.05.02-.06,0,0,0-.01,0-.02,0-.02.01-.03.02-.05,0-.01,0-.02.01-.04,0-.01,0-.02.01-.04,0-.02.01-.03.02-.05,0-.01,0-.02.01-.03,0-.03.02-.05.03-.08h0c.53-1.52,1.08-3.03,1.67-4.53l-9.05-3.54h0Zm-3.09,8.8c-.57,1.85-1.12,3.73-1.61,5.6l9.39,2.47c.25-.97.52-1.93.8-2.89h0s.02-.06.03-.09h0c.21-.74.44-1.48.66-2.21l-9.27-2.89h0Zm-2.45,8.99c-.44,1.88-.85,3.8-1.21,5.7l9.54,1.8c.14-.75.29-1.49.44-2.24h0s0-.02,0-.03c0,0,0-.01,0-.02,0,0,0-.01,0-.02,0,0,0-.02,0-.03,0,0,0,0,0-.02,0,0,0-.02,0-.03,0,0,0,0,0-.02,0-.01,0-.02,0-.03,0,0,0,0,0,0,.2-.95.41-1.9.63-2.85l-9.46-2.22h0Zm-1.81,9.14c-.31,1.91-.58,3.85-.8,5.77l9.65,1.12c.21-1.79.46-3.58.74-5.34l-9.59-1.55h0Zm-1.16,9.24c-.17,1.92-.31,3.88-.39,5.81l9.7.45c.01-.27.03-.55.04-.82h0s0-.03,0-.05h0s0-.03,0-.05c0,0,0,0,0,0,0-.01,0-.02,0-.03,0,0,0,0,0-.01,0-.01,0-.03,0-.04,0,0,0-.01,0-.02,0,0,0-.01,0-.02,0-.01,0-.02,0-.03,0,0,0-.01,0-.02,0,0,0-.02,0-.03,0,0,0,0,0-.01,0,0,0-.02,0-.03,0,0,0,0,0,0,.04-.7.08-1.4.13-2.1h0s0-.03,0-.04c0,0,0,0,0,0,0-.01,0-.03,0-.04,0,0,0,0,0,0,0-.05,0-.1.01-.15,0,0,0,0,0-.01,0,0,0-.02,0-.03,0,0,0-.01,0-.02,0,0,0-.02,0-.03,0,0,0-.01,0-.02,0,0,0-.02,0-.02,0,0,0-.02,0-.02,0,0,0-.02,0-.02,0-.01,0-.03,0-.04h0s0-.1.01-.15h0c.04-.5.08-1,.12-1.49l-9.67-.87h0ZM.03,129.53c-.02.89-.03,1.79-.03,2.68,0,1.04.01,2.09.04,3.13l9.71-.23c-.02-.81-.03-1.63-.03-2.44,0,0,0,0,0-.01v-.05s0-.02,0-.03v-.07s0-.01,0-.02v-.1s0-.02,0-.03v-.1h0v-.06h0v-.15h0s0-.05,0-.07v-.02s0-.04,0-.06v-.07s0-.01,0-.02v-.06s0-.02,0-.03c0-.02,0-.03,0-.04v-.04s0-.03,0-.04c0-.01,0-.02,0-.03,0-.01,0-.03,0-.04,0-.01,0-.03,0-.04v-.03s0-.02,0-.04c0-.02,0-.03,0-.05,0-.01,0-.03,0-.04v-.02s0-.05,0-.07v-.02s0-.03,0-.04h0s0-.07,0-.09h0s0-.04,0-.06h0s0-.06,0-.09v-.02s0-.06,0-.09h0s0-.03,0-.04c0,0,0-.01,0-.02v-.06s0-.02,0-.03c0-.01,0-.02,0-.03,0-.02,0-.03,0-.05,0-.01,0-.02,0-.03,0-.01,0-.04,0-.05,0,0,0-.01,0-.02,0-.02,0-.04,0-.07,0,0,0,0,0,0,0-.02,0-.05,0-.07h0c0-.21,0-.41.01-.62l-9.71-.19H.03Zm9.84,8.83l-9.7.48c.1,1.93.23,3.89.41,5.81l9.67-.9c-.03-.31-.06-.62-.08-.93h0s0-.03,0-.05h0s0-.03,0-.05h0s0-.04,0-.05h0s0-.04,0-.05h0s0-.03,0-.05c0,0,0-.01,0-.02,0,0,0-.02,0-.03,0,0,0-.02,0-.02,0,0,0-.01,0-.02,0,0,0-.02,0-.03,0,0,0-.01,0-.02,0,0,0-.02,0-.03v-.02s0-.02,0-.03c0,0,0,0,0,0,0-.05,0-.11-.01-.16,0,0,0,0,0,0,0-.01,0-.03,0-.04,0,0,0,0,0,0,0-.01,0-.03,0-.04,0,0,0,0,0,0-.05-.6-.09-1.2-.13-1.81,0,0,0,0,0,0,0-.01,0-.03,0-.04,0,0,0,0,0,0,0-.01,0-.03,0-.04h0c0-.05,0-.11-.01-.16,0,0,0,0,0-.01,0,0,0-.02,0-.03,0,0,0-.01,0-.02,0,0,0-.02,0-.03v-.02s0-.02,0-.02c0,0,0-.01,0-.02,0,0,0-.02,0-.02v-.04s0,0,0,0c0-.02,0-.03,0-.05h0s0-.03,0-.05h0s0-.03,0-.05h0s0-.04,0-.05h0s0-.04,0-.05h0c-.02-.41-.05-.82-.07-1.24h0Zm.73,8.6l-9.64,1.16c.23,1.92.51,3.86.82,5.77l9.58-1.58c-.04-.23-.08-.47-.11-.7,0,0,0,0,0,0,0-.01,0-.02,0-.03,0,0,0,0,0-.01,0,0,0-.02,0-.03,0,0,0-.01,0-.02,0,0,0-.02,0-.02,0,0,0-.02,0-.03,0,0,0-.01,0-.02,0-.03,0-.06-.01-.09h0s0-.03,0-.05h0s0-.03,0-.04c0,0,0,0,0-.01,0-.01,0-.02,0-.04h0s0-.04,0-.05h0c-.22-1.39-.41-2.79-.58-4.2h0Zm1.33,8.53l-9.54,1.83c.37,1.9.78,3.82,1.23,5.7l9.45-2.26c-.09-.37-.17-.73-.26-1.1,0,0,0,0,0,0,0,0,0-.02,0-.03,0,0,0-.01,0-.02,0,0,0-.01,0-.02,0,0,0-.02,0-.02,0,0,0-.01,0-.02,0,0,0-.02,0-.03,0,0,0-.01,0-.02-.3-1.33-.58-2.67-.84-4.01h0Zm1.93,8.41l-9.38,2.51c.5,1.87,1.05,3.75,1.63,5.6l9.26-2.92c-.38-1.2-.74-2.42-1.08-3.63,0,0,0,0,0,0,0-.03-.02-.05-.02-.08h0c-.02-.08-.04-.16-.07-.24,0,0,0,0,0,0,0-.03-.01-.05-.02-.07,0,0,0,0,0-.01,0-.03-.01-.05-.02-.07,0,0,0,0,0-.01,0-.02-.01-.05-.02-.07,0,0,0,0,0-.01,0-.02-.01-.04-.02-.06,0,0,0-.01,0-.02,0-.02-.01-.04-.02-.06,0,0,0-.02,0-.02,0-.02-.01-.04-.02-.06,0,0,0-.02,0-.03,0-.02,0-.03-.01-.05,0-.01,0-.03-.01-.04,0-.01,0-.02,0-.03,0-.02-.01-.04-.02-.06,0,0,0-.01,0-.02,0-.03-.01-.05-.02-.08h0c-.04-.15-.08-.29-.12-.44h0Zm2.52,8.26l-9.18,3.17c.63,1.83,1.31,3.67,2.02,5.47l9.03-3.57c-.03-.08-.06-.16-.09-.23h0s-.02-.05-.03-.08c0,0,0,0,0,0,0-.02-.02-.05-.03-.07,0,0,0,0,0,0,0-.02-.02-.04-.03-.06,0,0,0-.01,0-.02,0-.02-.01-.04-.02-.06,0,0,0-.02-.01-.03,0-.02-.01-.03-.02-.05,0-.01,0-.02-.01-.03,0-.01,0-.02-.01-.03,0-.02-.01-.04-.02-.06,0,0,0-.01,0-.02l-.03-.07h0c-.48-1.26-.95-2.51-1.39-3.78,0,0,0-.01,0-.01,0-.02-.02-.05-.02-.07,0,0,0-.02,0-.02,0-.02-.01-.04-.02-.06,0,0,0-.02-.01-.03,0-.01,0-.03-.01-.04,0-.01-.01-.03-.02-.05,0,0,0-.02-.01-.03,0-.02-.01-.04-.02-.06,0,0,0-.02,0-.02,0-.02-.01-.04-.02-.06,0,0,0,0,0,0h0Zm3.1,8.06l-8.94,3.81c.76,1.78,1.57,3.56,2.4,5.31l8.76-4.2v-.02s-.02-.03-.03-.04l-.02-.03s-.01-.02-.02-.04c0-.01-.01-.03-.02-.04,0-.01,0-.02-.01-.03,0-.02-.02-.03-.02-.05,0-.01,0-.02-.01-.03,0-.01-.01-.03-.02-.04,0-.01-.01-.02-.02-.04,0-.01,0-.02-.01-.03,0-.01-.02-.04-.02-.05,0,0,0-.02-.01-.03,0-.02-.02-.03-.02-.05v-.03s-.03-.03-.03-.04c0-.01-.01-.03-.02-.04,0-.01,0-.02-.02-.03,0-.01-.01-.03-.02-.04,0-.01-.01-.03-.02-.04s0-.02-.01-.03c0-.02-.01-.03-.02-.05,0-.01,0-.02-.01-.03,0-.01-.02-.03-.02-.05,0-.01-.01-.02-.02-.03,0-.01-.01-.02-.02-.03,0-.02-.01-.03-.02-.05,0-.01,0-.02-.01-.03,0-.02-.01-.03-.02-.05,0-.01-.01-.02-.01-.03,0-.01-.01-.02-.02-.04,0-.01-.01-.03-.02-.04,0-.01-.01-.02-.02-.03,0-.01-.01-.03-.02-.04,0-.01-.01-.02-.02-.03,0-.01,0-.02-.01-.03,0-.02-.02-.04-.03-.05,0,0,0-.02-.01-.02,0-.02-.02-.04-.03-.06,0,0,0-.02-.01-.02,0-.02-.02-.04-.03-.06,0,0,0-.01,0-.02-.02-.04-.04-.08-.06-.12,0,0,0,0,0-.01-.01-.02-.02-.05-.03-.07,0,0,0-.01,0-.01-.01-.02-.02-.04-.03-.07,0,0,0,0,0-.02-.01-.02-.02-.05-.03-.07,0,0,0,0,0-.01-.03-.07-.06-.14-.09-.21h0s-.02-.06-.04-.08h0s-.02-.06-.04-.08h0c-.04-.1-.09-.2-.13-.3h0s-.02-.06-.04-.09h0c-.04-.1-.09-.2-.13-.29,0,0,0,0,0,0-.01-.02-.02-.05-.03-.07,0,0,0,0,0-.01,0-.02-.02-.04-.03-.07,0,0,0-.01,0-.02,0-.02-.02-.04-.03-.06,0,0,0-.02-.01-.02,0-.01-.01-.02-.02-.04,0-.01-.01-.02-.02-.03,0-.02-.01-.03-.02-.05,0-.01,0-.02-.01-.03,0-.02-.01-.03-.02-.05,0-.01,0-.02-.01-.03,0-.01-.01-.03-.02-.04,0-.01-.01-.03-.02-.04,0,0,0-.02-.01-.03,0-.02-.02-.03-.02-.05,0,0,0-.02-.01-.03,0-.02-.02-.03-.02-.06,0,0,0-.01,0-.02,0-.02-.02-.04-.03-.06,0,0,0,0,0-.01-.01-.02-.02-.04-.03-.07,0,0,0,0,0,0-.01-.02-.02-.05-.03-.07,0,0,0,0,0,0-.01-.02-.02-.05-.03-.08h0c-.12-.29-.25-.57-.37-.85h0Zm3.66,7.82l-8.64,4.43c.88,1.72,1.81,3.44,2.77,5.12l8.44-4.81s0-.01-.01-.02c0-.01-.01-.02-.02-.03l-.02-.04s-.01-.02-.02-.04c0-.01-.01-.02-.02-.03,0-.01-.02-.03-.03-.05v-.02s-.03-.04-.04-.05c0,0,0-.02-.01-.02,0-.02-.02-.04-.03-.05v-.02s-.03-.04-.04-.05v-.02s-.03-.03-.04-.05v-.02s-.03-.03-.04-.05c0,0,0-.01-.01-.02,0-.02-.02-.04-.03-.05,0,0,0-.01-.01-.02-.01-.02-.02-.03-.03-.05,0,0,0-.01-.01-.02,0-.02-.02-.04-.03-.05,0,0,0-.01-.01-.02,0-.02-.02-.03-.03-.05,0,0,0-.02-.01-.02,0-.01-.02-.03-.03-.05,0,0,0-.02-.01-.03,0-.01-.02-.03-.03-.05,0,0,0-.02-.01-.02,0-.02-.02-.03-.03-.05,0,0-.01-.02-.02-.03,0-.01-.02-.03-.03-.05,0-.01-.01-.02-.02-.03,0-.01-.01-.02-.02-.04,0-.01-.01-.03-.02-.04,0-.01-.01-.02-.02-.03,0-.02-.02-.03-.03-.05,0-.01,0-.02-.01-.03-.01-.02-.02-.04-.03-.05,0,0,0-.01-.01-.02-.01-.02-.02-.04-.03-.06,0,0,0-.01,0-.01,0-.01-.01-.03-.02-.04h0s-.03-.05-.04-.08h0c-.56-1.03-1.11-2.06-1.64-3.1h0Zm4.21,7.54l-8.31,5.03c1,1.65,2.05,3.31,3.12,4.91l8.08-5.39c-.04-.06-.08-.12-.12-.18h0s-.03-.05-.05-.08h0s-.02-.03-.02-.04c0-.01-.02-.03-.03-.04,0,0-.01-.02-.02-.03,0-.01-.01-.02-.02-.03,0-.01-.02-.03-.03-.04,0,0-.02-.03-.02-.04,0-.01-.01-.02-.02-.03,0-.01-.02-.03-.03-.04,0,0,0-.01-.01-.02-.01-.02-.02-.03-.04-.05,0,0,0-.01-.01-.02-.01-.02-.02-.04-.04-.06,0,0,0-.01-.01-.02-.01-.02-.02-.04-.04-.06,0,0,0,0,0-.01-.01-.02-.03-.04-.04-.06,0,0,0,0,0,0-.03-.04-.06-.09-.09-.13,0,0,0,0,0,0-.01-.02-.03-.04-.04-.07,0,0,0,0,0,0-.01-.02-.03-.05-.04-.06,0,0,0,0,0,0-.01-.02-.03-.04-.04-.07h0c-.32-.5-.64-.99-.95-1.49,0,0,0,0,0,0-.01-.02-.03-.05-.04-.07,0,0,0,0,0,0-.01-.02-.03-.05-.04-.07,0,0,0,0,0,0-.06-.09-.12-.19-.18-.28,0,0,0,0,0,0-.01-.02-.03-.04-.04-.07,0,0,0,0,0,0-.01-.02-.03-.04-.04-.07h0s-.03-.05-.04-.07c0,0,0,0,0,0-.01-.02-.03-.05-.04-.07,0,0,0,0,0,0-.01-.02-.03-.04-.04-.07,0,0,0,0,0,0-.01-.02-.02-.04-.04-.06,0,0,0,0,0-.01-.01-.02-.03-.04-.04-.06,0,0,0,0,0-.01-.01-.02-.02-.04-.04-.06,0,0,0,0,0-.01-.01-.02-.03-.05-.04-.06,0,0,0,0,0,0-.01-.02-.03-.04-.04-.07,0,0,0,0,0,0-.01-.02-.03-.04-.04-.06,0,0,0,0,0-.01-.01-.02-.02-.04-.04-.06,0,0,0-.01,0-.02-.01-.02-.02-.04-.04-.06,0,0,0,0,0-.01-.01-.02-.02-.04-.04-.06,0,0,0,0,0-.01-.01-.02-.02-.04-.04-.06,0,0,0,0,0-.01-.01-.02-.02-.04-.03-.06,0,0,0,0,0-.01-.01-.02-.02-.04-.04-.06h0s-.02-.05-.04-.07c0,0,0,0,0-.01-.01-.02-.02-.04-.04-.06,0,0,0,0,0-.01-.01-.02-.02-.04-.04-.06,0,0,0,0,0,0h0Zm4.73,7.22l-7.93,5.6c1.11,1.58,2.28,3.15,3.46,4.68l7.68-5.95c-.2-.26-.41-.54-.61-.8,0,0,0,0,0,0-.02-.02-.03-.04-.05-.07,0,0,0,0,0,0-.02-.02-.03-.04-.05-.07,0,0,0,0,0,0-.07-.09-.14-.18-.2-.27,0,0,0,0,0,0-.02-.02-.03-.05-.05-.07h0c-.63-.83-1.24-1.67-1.85-2.52,0,0,0,0,0,0-.05-.07-.1-.13-.15-.2,0,0,0,0,0,0-.02-.02-.03-.04-.04-.06h0s-.03-.05-.04-.07c0,0,0-.01-.01-.02-.01-.02-.03-.04-.04-.05,0,0,0-.01-.01-.02-.01-.02-.02-.03-.03-.04,0,0-.01-.02-.02-.03,0-.01-.02-.02-.03-.04v-.02h-.01Zm5.22,6.87l-7.52,6.15c1.22,1.5,2.49,2.99,3.78,4.43l7.25-6.47c-1.2-1.34-2.37-2.71-3.5-4.1h0Zm5.69,6.49l-7.07,6.66c1.32,1.41,2.7,2.8,4.08,4.15l6.78-6.96s-.01-.01-.02-.02c-.01-.01-.02-.02-.03-.03,0,0-.01-.01-.02-.02-.01-.01-.03-.03-.04-.04,0,0-.01,0-.02-.01-.02-.02-.03-.03-.05-.05,0,0,0,0,0,0-.02-.02-.04-.04-.05-.05,0,0,0,0,0,0-.8-.78-1.59-1.58-2.37-2.39h0s-.04-.04-.06-.06h0c-.06-.06-.12-.12-.17-.18h0s-.04-.04-.05-.06h0s-.03-.04-.05-.06c0,0,0,0,0,0-.02-.02-.04-.04-.05-.05,0,0,0,0,0,0-.02-.02-.03-.03-.05-.05,0,0,0,0,0,0-.02-.02-.04-.04-.05-.05,0,0,0,0,0,0-.02-.02-.03-.04-.05-.05,0,0,0,0,0,0-.02-.02-.03-.04-.05-.05,0,0,0,0,0-.01-.02-.02-.03-.03-.05-.05h-.01s-.03-.05-.05-.06h-.01s-.03-.05-.05-.06c0,0,0,0-.01-.01-.02-.02-.03-.03-.05-.05,0,0,0,0-.01-.01-.02-.02-.03-.03-.04-.04,0,0-.01-.01-.02-.02-.01-.01-.03-.03-.04-.05,0,0,0,0-.01-.01-.01-.01-.03-.03-.04-.05,0,0-.01-.01-.02-.02-.02-.02-.03-.03-.04-.05,0,0,0,0-.01-.01-.01-.01-.03-.03-.04-.05,0,0,0,0,0,0h0Zm6.13,6.08l-6.59,7.14c1.42,1.31,2.89,2.61,4.36,3.85l6.27-7.42s0,0-.01,0c-.01-.01-.03-.02-.04-.03,0,0-.02-.01-.02-.02-.01-.01-.03-.02-.04-.04,0,0-.02-.01-.03-.02-.01-.01-.03-.02-.04-.04,0,0-.02-.01-.03-.02-.01-.01-.02-.02-.03-.03-.01-.01-.02-.02-.04-.03,0,0-.02-.02-.03-.02-.01-.01-.02-.02-.04-.03,0,0-.02-.01-.03-.02-.01-.01-.03-.02-.04-.04,0,0-.02-.01-.02-.02-.02-.01-.03-.03-.05-.04,0,0-.01,0-.02-.01-.01,0-.02-.02-.03-.03,0,0-.01,0-.01-.01-.02-.02-.04-.03-.05-.05,0,0,0,0-.01-.01-.02-.02-.04-.03-.06-.05,0,0,0,0,0,0l-.06-.05h0c-1.12-.97-2.22-1.95-3.3-2.94h0Zm6.54,5.63l-6.07,7.58c1.51,1.21,3.06,2.4,4.62,3.54l5.74-7.84c-1.45-1.06-2.88-2.16-4.28-3.28h0Zm6.92,5.16l-5.53,7.99c1.59,1.1,3.22,2.18,4.86,3.21l5.17-8.22c-1.52-.96-3.03-1.95-4.5-2.97h0Zm7.27,4.66l-4.95,8.36c1.66.99,3.37,1.95,5.08,2.86l4.58-8.57c-.17-.09-.35-.19-.52-.28t0,0s-.05-.03-.07-.04c0,0,0,0,0,0-.1-.05-.19-.1-.29-.16,0,0,0,0,0,0-.02-.01-.04-.02-.07-.04,0,0,0,0,0,0-.02-.01-.04-.02-.07-.04,0,0,0,0-.01,0-.02-.01-.04-.02-.07-.04,0,0,0,0-.01,0-.02-.01-.04-.02-.06-.03,0,0,0,0-.01,0-.02-.01-.04-.02-.06-.03h-.01s-.04-.03-.06-.04c0,0-.01,0-.02,0-.02-.01-.04-.02-.06-.03,0,0-.01,0-.02-.01-.02-.01-.04-.02-.06-.03h-.02s-.04-.03-.05-.04c0,0-.01,0-.02-.01-.01,0-.03-.02-.04-.02-.01,0-.02-.01-.03-.02-.01,0-.03-.02-.04-.02,0,0-.02,0-.03-.01-.02,0-.03-.02-.05-.03,0,0-.02-.01-.03-.02-.01,0-.03-.02-.05-.03,0,0-.02-.01-.03-.02-.02,0-.03-.02-.05-.03l-.03-.02s-.02-.01-.03-.02c-.01,0-.03-.02-.04-.02-.01,0-.02-.01-.03-.02-.02,0-.03-.02-.05-.03-.01,0-.02,0-.03-.02-.02,0-.03-.02-.05-.03,0,0-.02-.01-.03-.01-.01,0-.02-.01-.04-.02-.01,0-.03-.02-.04-.02-.01,0-.02-.01-.04-.02,0,0-.01,0-.02,0-.02-.01-.04-.02-.06-.03,0,0,0,0-.02,0-.02-.01-.04-.02-.06-.03,0,0-.01,0-.02,0-.02-.01-.04-.02-.06-.04,0,0-.01,0-.01,0-.02-.01-.05-.03-.07-.04,0,0,0,0,0,0-.01,0-.03-.01-.04-.02,0,0,0,0-.01,0-.02-.01-.04-.02-.07-.04,0,0-.01,0-.01,0-.02-.01-.04-.02-.06-.04,0,0,0,0-.02,0-.02-.01-.04-.02-.06-.04,0,0,0,0-.01,0-.02-.01-.04-.02-.06-.04,0,0-.01,0-.02,0-.02-.01-.05-.03-.07-.04,0,0,0,0,0,0-.01,0-.02-.01-.04-.02,0,0-.01,0-.02-.01-.02-.01-.04-.02-.06-.03,0,0-.01,0-.02-.01-.02-.01-.04-.02-.05-.03,0,0-.02-.01-.03-.01-.02,0-.03-.02-.05-.03-.01,0-.02-.01-.03-.02-.01,0-.03-.02-.04-.02-.01,0-.02-.01-.03-.02-.01,0-.02-.01-.03-.02-.01,0-.03-.02-.04-.02-.01,0-.02-.01-.03-.02-.01,0-.02-.01-.04-.02-.01,0-.02-.01-.04-.02-.01,0-.03-.02-.04-.02-.01,0-.02-.01-.03-.02-.01,0-.03-.02-.04-.02,0,0-.02,0-.02-.01-.02,0-.03-.02-.05-.03,0,0-.01,0-.02-.01-.02,0-.04-.02-.06-.03,0,0-.01,0-.02-.01-.02-.01-.04-.02-.06-.03,0,0,0,0-.01,0-.02-.01-.04-.02-.06-.04,0,0,0,0,0,0-.05-.03-.09-.05-.14-.08,0,0,0,0,0,0-.17-.1-.34-.2-.51-.3h0Zm7.58,4.14l-4.35,8.69c1.73.87,3.5,1.7,5.27,2.49l3.96-8.87c-.59-.26-1.18-.53-1.76-.8,0,0,0,0,0,0-.02,0-.04-.02-.07-.03,0,0,0,0-.01,0l-.06-.03s-.01,0-.02,0c-.02,0-.04-.02-.06-.03h-.02s-.03-.03-.04-.03l-.04-.02s-.02-.01-.04-.02c-.01,0-.03-.01-.04-.02-.01,0-.02-.01-.03-.02-.01,0-.02-.01-.04-.02,0,0,0,0-.01,0-.02-.01-.05-.02-.07-.03h0s-.05-.03-.08-.04h0c-.83-.39-1.65-.79-2.46-1.2h0Zm7.85,3.59l-3.72,8.97c1.79.74,3.61,1.45,5.43,2.11l3.32-9.13c-.32-.11-.63-.23-.95-.35,0,0,0,0,0,0-.02,0-.05-.02-.07-.03,0,0,0,0,0,0-.03,0-.05-.02-.07-.03,0,0,0,0,0,0-.03,0-.05-.02-.07-.03,0,0,0,0,0,0-.02,0-.04-.02-.07-.03,0,0,0,0-.01,0-.02,0-.04-.02-.06-.02,0,0-.01,0-.02,0-.02,0-.04-.01-.06-.02,0,0-.01,0-.02,0-.02,0-.04-.02-.06-.02,0,0-.01,0-.02,0-.02,0-.04-.01-.06-.02,0,0-.01,0-.02,0-.02,0-.04-.01-.06-.02,0,0-.01,0-.02,0-.02,0-.04-.02-.06-.02,0,0-.01,0-.02,0-.02,0-.04-.01-.06-.02h-.02s-.04-.02-.06-.03c0,0-.01,0-.02,0-.02,0-.04-.01-.06-.02,0,0-.01,0-.02,0-.02,0-.04-.01-.05-.02,0,0-.01,0-.02,0-.02,0-.04-.02-.06-.02,0,0-.01,0-.02,0-.02,0-.04-.01-.06-.02,0,0-.01,0-.02,0-.02,0-.04-.02-.06-.02,0,0-.01,0-.02,0-.02,0-.04-.02-.06-.02,0,0,0,0-.01,0-.02,0-.04-.01-.06-.02,0,0,0,0-.01,0-.02,0-.04-.02-.06-.02,0,0-.01,0-.02,0-.02,0-.04-.02-.06-.02,0,0-.01,0-.02,0-.02,0-.04-.02-.06-.03h-.01s-.04-.02-.07-.03c0,0,0,0-.01,0-.02,0-.04-.02-.06-.02,0,0,0,0-.01,0-.02,0-.05-.02-.07-.03,0,0,0,0-.01,0-.02,0-.04-.02-.07-.03,0,0,0,0-.01,0-.02,0-.04-.02-.07-.03,0,0,0,0-.01,0-.02,0-.04-.02-.07-.03,0,0,0,0-.01,0-.02,0-.04-.02-.06-.02,0,0,0,0-.01,0-.02,0-.04-.02-.06-.03,0,0-.01,0-.02,0-.02,0-.04-.02-.06-.03,0,0-.01,0-.02,0-.02,0-.04-.02-.06-.02,0,0-.01,0-.02,0-.02,0-.04-.02-.06-.02,0,0-.01,0-.02,0-.01,0-.04-.01-.05-.02,0,0-.02,0-.03-.01-.02,0-.03-.01-.05-.02,0,0-.02,0-.02-.01-.02,0-.04-.01-.05-.02-.01,0-.02,0-.03-.01-.01,0-.03-.01-.05-.02-.01,0-.02,0-.03-.01-.01,0-.02,0-.03-.01-.02,0-.04-.01-.05-.02,0,0-.01,0-.02,0-.02,0-.04-.02-.06-.03,0,0-.01,0-.02,0-.32-.13-.64-.26-.96-.39h0Zm8.09,3.02l-3.08,9.21c1.83.61,3.71,1.19,5.57,1.72l2.67-9.34c-1.55-.44-3.09-.92-4.62-1.42,0,0,0,0-.01,0-.02,0-.05-.02-.07-.02,0,0-.02,0-.03,0-.02,0-.04-.01-.05-.02-.01,0-.02,0-.03-.01h-.03s-.04-.02-.06-.03c0,0-.01,0-.02,0-.02,0-.04-.01-.06-.02,0,0-.01,0-.02,0-.02,0-.05-.02-.07-.02h0s-.05-.02-.08-.03h0Zm8.28,2.44l-2.42,9.41c1.87.48,3.78.93,5.67,1.32l2-9.51c-1.77-.37-3.52-.78-5.25-1.23h0Zm8.43,1.85l-1.74,9.56c1.9.35,3.84.66,5.75.92l1.32-9.62c-1.19-.16-2.38-.34-3.56-.54h0s-.02,0-.04,0h-.01s-.02,0-.04,0c0,0,0,0-.01,0-.01,0-.02,0-.04,0,0,0,0,0,0,0-.01,0-.02,0-.04,0,0,0,0,0,0,0-.02,0-.03,0-.05,0h0s-.03,0-.04,0c0,0,0,0-.01,0-.01,0-.02,0-.03,0,0,0-.01,0-.02,0,0,0-.02,0-.03,0,0,0,0,0-.02,0,0,0-.02,0-.03,0,0,0-.01,0-.02,0-.01,0-.02,0-.03,0,0,0,0,0-.01,0-.01,0-.02,0-.03,0,0,0,0,0-.01,0-.01,0-.03,0-.04,0,0,0,0,0,0,0-.01,0-.03,0-.04,0,0,0,0,0-.01,0-.01,0-.02,0-.03,0,0,0-.01,0-.01,0-.01,0-.02,0-.03,0,0,0,0,0-.01,0h-.03s0,0-.01,0c-.01,0-.03,0-.04,0h0c-.32-.06-.64-.11-.96-.17h0Zm8.54,1.25l-1.07,9.66c1.92.21,3.87.38,5.8.51l.64-9.69c-.49-.03-.97-.07-1.46-.1h0c-.08,0-.16-.01-.24-.02h0s-.03,0-.04,0c0,0,0,0-.01,0-.01,0-.02,0-.03,0,0,0,0,0-.02,0-.01,0-.02,0-.03,0,0,0,0,0-.01,0-.01,0-.02,0-.03,0,0,0,0,0-.01,0-.02,0-.03,0-.04,0,0,0-.01,0-.01,0,0,0-.02,0-.03,0,0,0-.02,0-.02,0,0,0-.02,0-.02,0s-.01,0-.02,0c0,0-.02,0-.02,0,0,0-.02,0-.02,0,0,0-.01,0-.02,0,0,0-.02,0-.02,0,0,0-.01,0-.02,0,0,0-.02,0-.02,0,0,0-.01,0-.02,0-.03,0-.07,0-.1,0,0,0,0,0,0,0-.01,0-.02,0-.03,0,0,0,0,0-.01,0-.01,0-.02,0-.03,0,0,0,0,0-.01,0-.01,0-.02,0-.03,0,0,0,0,0,0,0-.01,0-.02,0-.04,0,0,0,0,0,0,0-.04,0-.08,0-.12-.01h0s-.02,0-.03,0c0,0,0,0,0,0-.01,0-.02,0-.03,0,0,0,0,0-.01,0h-.03s0,0,0,0c-.01,0-.02,0-.04,0,0,0,0,0,0,0-.06,0-.1,0-.16-.01,0,0,0,0,0,0-.01,0-.02,0-.03,0,0,0,0,0-.01,0,0,0-.02,0-.03,0,0,0-.01,0-.02,0,0,0-.02,0-.03,0,0,0-.01,0-.02,0-.01,0-.02,0-.03,0,0,0,0,0-.01,0-.03,0-.07,0-.1,0,0,0-.01,0-.02,0-.01,0-.01,0-.02,0,0,0-.02,0-.02,0,0,0-.01,0-.02,0,0,0-.02,0-.03,0,0,0-.01,0-.02,0,0,0-.02,0-.03,0,0,0-.01,0-.02,0-.01,0-.02,0-.03,0,0,0,0,0-.01,0-.03,0-.06,0-.09,0h0s-.03,0-.04,0h0s-.03,0-.04,0h0s-.03,0-.04,0h0c-.56-.05-1.13-.11-1.69-.17h0Zm8.61.65l-.39,9.71c1.78.07,3.58.11,5.37.11h.45s-.03-9.71-.03-9.71c-.05,0-.09,0-.14,0h-.04c-.08,0-.16,0-.24,0h-.17s-.04,0-.06,0h-.02s-.04,0-.07,0h-.08s0,0,0,0h-.07s-.01,0-.02,0c-.02,0-.05,0-.07,0h0s-.04,0-.07,0c0,0-.01,0-.02,0-.02,0-.04,0-.07,0h0s-.04,0-.07,0h0s-.05,0-.07,0h-.01s-.05,0-.07,0h0s-.05,0-.07,0h-.01s-.05,0-.07,0h0s-.05,0-.07,0c0,0,0,0,0,0-.02,0-.05,0-.07,0,0,0,0,0,0,0-.02,0-.04,0-.07,0h0s-.05,0-.07,0c0,0,0,0,0,0-.05,0-.1,0-.15,0h0c-.05,0-.1,0-.15,0h0c-.08,0-.15,0-.23,0h0s-.1,0-.15,0h0c-.13,0-.26,0-.39,0h0c-.31,0-.62-.01-.93-.02,0,0,0,0,0,0-.05,0-.1,0-.15,0,0,0,0,0,0,0-.02,0-.05,0-.07,0h0s-.05,0-.07,0c0,0,0,0,0,0-.02,0-.04,0-.07,0,0,0,0,0-.01,0-.02,0-.04,0-.06,0,0,0,0,0,0,0-.02,0-.05,0-.07,0,0,0-.01,0-.02,0-.02,0-.04,0-.06,0,0,0,0,0-.01,0-.02,0-.04,0-.06,0,0,0-.01,0-.02,0-.02,0-.04,0-.06,0h-.02s-.03,0-.04,0c0,0-.02,0-.03,0-.02,0-.04,0-.06,0-.01,0-.02,0-.03,0,0,0-.02,0-.03,0-.02,0-.04,0-.06,0,0,0-.02,0-.02,0-.01,0-.03,0-.04,0,0,0-.01,0-.02,0-.03,0-.05,0-.08,0,0,0,0,0-.01,0-.11,0-.23,0-.34-.01h0Zm14.02-.23c-1.79.13-3.58.22-5.39.28l.28,9.71c1.93-.06,3.89-.16,5.81-.3l-.71-9.69h0Zm8.58-.93c-.66.09-1.32.18-1.98.27h0s-.03,0-.04,0h0s-.03,0-.04,0h0s-.03,0-.04,0h0s-.03,0-.05,0h0s-.02,0-.04,0h-.02s-.02,0-.02,0c0,0-.01,0-.02,0,0,0-.01,0-.02,0,0,0-.02,0-.03,0h-.02s-.02,0-.03,0h-.01c-.99.12-1.98.23-2.97.33l.96,9.67c1.92-.19,3.87-.43,5.78-.7l-1.39-9.61h0Zm8.5-1.53c-1.22.27-2.45.51-3.68.74h0s-.02,0-.04,0c0,0,0,0-.01,0-.01,0-.02,0-.03,0,0,0,0,0-.02,0h-.03s-.01,0-.02,0-.02,0-.02,0c0,0-.02,0-.02,0,0,0-.01,0-.02,0-.47.09-.93.17-1.4.25l1.64,9.57c1.91-.33,3.83-.7,5.72-1.11l-2.06-9.49h0Zm8.37-2.13c-1.72.5-3.46.97-5.21,1.4l2.31,9.43c1.88-.46,3.77-.97,5.63-1.51l-2.73-9.32h0Zm8.19-2.72c-.31.12-.63.23-.95.35,0,0,0,0,0,0-.03,0-.05.02-.07.03,0,0,0,0,0,0-.02,0-.05.02-.07.02,0,0,0,0-.01,0-.02,0-.04.02-.07.02,0,0-.01,0-.02,0-.02,0-.04.01-.06.02h-.02s-.04.02-.05.03c0,0-.02,0-.03,0-.02,0-.04.01-.05.02-.01,0-.02,0-.03.01-.01,0-.04.01-.05.02-.01,0-.02,0-.04.01-.01,0-.02,0-.03,0-.02,0-.04.01-.06.02,0,0-.01,0-.02,0-.02,0-.05.02-.07.02,0,0,0,0-.01,0-.87.31-1.74.6-2.61.89,0,0-.01,0-.02,0-.02,0-.04.01-.06.02,0,0-.02,0-.03,0-.02,0-.03.01-.05.02-.01,0-.03,0-.04.01,0,0-.02,0-.03,0-.02,0-.04.01-.06.02h-.02s-.04.02-.06.03c0,0,0,0-.01,0-.13.04-.26.09-.39.13l2.98,9.25c1.84-.59,3.69-1.23,5.51-1.91l-3.39-9.1h0Zm7.98-3.29c-.84.38-1.69.76-2.54,1.12,0,0,0,0,0,0-.02.01-.05.02-.07.03,0,0,0,0,0,0-.02,0-.05.02-.07.03,0,0,0,0,0,0-.02.01-.05.02-.07.03,0,0,0,0,0,0-.05.02-.1.04-.15.06,0,0,0,0,0,0-.02,0-.05.02-.07.03,0,0,0,0,0,0-.02.01-.05.02-.07.03,0,0,0,0,0,0-.02.01-.05.02-.07.03,0,0,0,0,0,0-.08.03-.15.06-.23.1h0s-.05.02-.08.03h0c-.49.21-.99.41-1.48.61l3.63,9.01c1.79-.72,3.6-1.49,5.36-2.29l-4.02-8.84h0Zm7.73-3.85c-.29.16-.59.32-.89.48,0,0,0,0,0,0-.02.01-.05.03-.07.04,0,0,0,0,0,0-.02.01-.04.02-.06.03,0,0-.01,0-.02,0-.02.01-.04.02-.06.03,0,0-.01,0-.02,0-.02.01-.04.02-.06.03,0,0-.01,0-.02.01-.02,0-.03.02-.05.03h-.02s-.03.03-.05.04c0,0-.02,0-.02.01-.02,0-.03.02-.05.03,0,0-.02,0-.03.01-.01,0-.03.02-.05.03-.01,0-.02.01-.03.02-.01,0-.02.01-.03.02-.01,0-.03.02-.04.02-.01,0-.02,0-.03.01l-.05.03s-.02,0-.02.01c-.02.01-.04.02-.06.03,0,0-.01,0-.02,0-.02.01-.05.03-.07.04h0s-.03.02-.04.02h0s-.05.03-.08.04c0,0,0,0-.01,0-.02.01-.05.02-.07.04h0s-.05.03-.08.04h0c-.88.46-1.77.91-2.67,1.34l4.25,8.73c1.74-.85,3.48-1.74,5.18-2.67l-4.64-8.54h0Zm7.44-4.39c-1.51.97-3.05,1.9-4.61,2.8l4.86,8.41c1.67-.97,3.35-1.98,4.98-3.03l-5.23-8.19h0Zm7.11-4.9s-.09.07-.13.1c0,0,0,0,0,0-.09.07-.18.13-.27.2,0,0,0,0,0,0-.02.02-.04.03-.06.05,0,0,0,0,0,0-.02.01-.04.03-.06.04,0,0,0,0,0,0-.02.02-.04.03-.06.05,0,0,0,0,0,0-.02.02-.04.03-.06.05,0,0,0,0,0,0-.02.02-.04.03-.07.05,0,0,0,0,0,0-.02.01-.04.03-.06.05,0,0,0,0,0,0-.02.02-.04.03-.06.04,0,0,0,0-.01,0-.02.01-.04.03-.06.04,0,0,0,0-.01,0-.02.01-.04.03-.06.04,0,0,0,0-.01,0-.02.01-.04.03-.06.04,0,0,0,0,0,0-.02.01-.04.03-.06.04,0,0,0,0,0,0-.02.01-.04.03-.06.04,0,0,0,0-.01.01l-.06.04s0,0-.01,0c-.02.01-.04.03-.06.04,0,0,0,0-.02.01-.02.02-.03.03-.06.04h-.01s-.04.04-.06.05c0,0,0,0-.01,0-.02.01-.04.03-.06.04h0s-.04.03-.06.05c0,0-.01,0-.02.01-.02.01-.04.03-.06.04,0,0,0,0-.01,0-.02.01-.04.03-.06.04,0,0,0,0-.01,0-.02.01-.04.03-.06.04,0,0,0,0-.01,0-.02.01-.04.03-.06.04,0,0,0,0,0,0-.02.01-.04.03-.06.04,0,0,0,0,0,0-.02.01-.04.03-.06.04h0s-.04.03-.06.05c0,0,0,0-.01,0-.02.01-.04.03-.06.04,0,0,0,0,0,0-.02.02-.04.03-.06.04,0,0,0,0,0,0-.07.05-.13.09-.2.14h0c-.64.45-1.29.9-1.94,1.34l5.44,8.05c1.6-1.08,3.2-2.21,4.75-3.37l-5.79-7.8h0Zm6.75-5.38s0,0,0,0c-.02.02-.04.04-.06.05,0,0,0,0,0,0-.02.02-.04.04-.06.05,0,0,0,0,0,0-1.17,1-2.37,1.99-3.58,2.95,0,0,0,0,0,0-.02.02-.04.03-.06.05h0s-.04.04-.06.05c0,0,0,0,0,0-.02.02-.04.03-.06.05,0,0,0,0,0,0-.02.01-.04.03-.05.04,0,0,0,0-.01.01-.02.01-.03.03-.05.04,0,0-.01.01-.02.02-.02.01-.03.02-.05.04,0,0-.02.01-.03.02,0,0-.02.02-.03.03,0,0-.01.01-.02.02l5.99,7.65c1.52-1.19,3.04-2.43,4.5-3.69l-6.32-7.38h0Zm6.35-5.84h0s-.03.04-.05.05c0,0,0,0,0,0-.02.02-.03.03-.05.05,0,0,0,0-.01.01-.02.02-.03.03-.05.05,0,0,0,0,0,0-.02.02-.04.03-.05.05,0,0,0,0,0,0-.02.02-.04.04-.05.05,0,0,0,0,0,0-.02.02-.04.04-.06.05h0s-.04.04-.06.06c0,0,0,0,0,0-.02.02-.04.04-.05.05,0,0,0,0,0,0-.02.02-.03.03-.05.05,0,0,0,0,0,0-.02.02-.04.04-.05.05,0,0,0,0,0,0-.02.02-.03.03-.05.05,0,0,0,0,0,0-.02.02-.04.04-.06.05,0,0,0,0,0,0-.02.02-.04.03-.05.05,0,0,0,0,0,0-.02.02-.04.04-.05.05,0,0,0,0,0,0-.02.02-.04.03-.05.05,0,0,0,0-.01.01-.02.02-.03.03-.05.05,0,0,0,0-.01.01-.02.02-.04.03-.05.05,0,0,0,0,0,0-.02.02-.03.03-.05.05,0,0,0,0,0,0-.02.02-.04.03-.05.05,0,0,0,0,0,0-.02.02-.04.03-.05.05,0,0,0,0-.01.01-.02.02-.03.03-.05.05,0,0,0,0-.01.01-.02.02-.03.03-.05.05,0,0,0,0-.01.01-.02.02-.03.03-.05.05,0,0,0,0,0,0-.02.02-.04.03-.05.05,0,0,0,0,0,0-.02.02-.03.03-.05.05,0,0,0,0,0,0-.02.02-.04.03-.05.05,0,0,0,0-.01.01-.02.02-.03.03-.05.05,0,0,0,0-.01.01-.02.02-.03.03-.05.05,0,0-.01.01-.02.02-.01.01-.03.03-.05.04,0,0,0,0-.01.01-.02.02-.03.03-.05.04,0,0,0,0-.01.01-.01.01-.03.03-.04.04,0,0-.01.01-.02.02-.02.02-.03.02-.04.04,0,0-.01.01-.02.02-.01.01-.03.03-.04.04,0,0-.01.01-.02.02-.02.02-.03.03-.04.04,0,0-.01.01-.02.02-.01.01-.03.03-.04.04,0,0-.01.01-.02.02-.01.01-.03.02-.04.03,0,0-.02.02-.03.03-.01.01-.02.02-.03.03,0,0-.02.02-.03.03-.01.01-.02.02-.03.03,0,0-.01.01-.02.02-.01.01-.03.03-.04.04,0,0-.02.02-.02.02-.01.01-.03.03-.04.04,0,0-.02.02-.03.02-.01.01-.02.02-.04.03l-.03.03s-.02.02-.03.02c-.01.01-.03.02-.04.04,0,0-.02.01-.02.02-.01.01-.03.03-.04.04,0,0-.01.01-.02.02-.02.01-.03.03-.05.04,0,0-.01.01-.02.02-.03.03-.06.06-.1.09,0,0,0,0,0,0-.02.02-.04.03-.06.05,0,0,0,0,0,0-.02.02-.04.04-.06.05h0s-.04.04-.06.06h0c-.3.28-.6.55-.9.82l6.51,7.21c1.43-1.3,2.86-2.64,4.23-4l-6.82-6.91h0Zm5.93-6.27c-1.17,1.33-2.37,2.63-3.59,3.91,0,0,0,0,0,0-.02.02-.04.04-.05.05,0,0,0,0,0,0l7,6.73c1.34-1.39,2.67-2.83,3.94-4.28l-7.29-6.42h0Zm5.47-6.67c-.08.11-.17.23-.26.33h0s-.03.04-.05.07c0,0,0,0,0,0-.02.02-.03.04-.05.07h0s-.03.04-.05.06c0,0,0,0,0,.01-.01.02-.03.03-.04.05v.02s-.04.03-.05.05c0,0-.01.01-.02.02-.01.02-.02.03-.04.05,0,0-.01.01-.02.02,0,.01-.02.03-.03.04,0,0-.02.02-.02.03,0,0-.02.02-.02.03-.01.01-.02.03-.03.04,0,0-.01.02-.02.03-.01.02-.02.03-.04.05,0,0-.01.01-.02.02-.02.02-.03.04-.05.06,0,0,0,0,0,0,0,.01-.02.02-.03.03,0,0,0,0,0,0-.02.02-.03.04-.05.06,0,0,0,0,0,.01-.02.02-.03.04-.05.06,0,0,0,0-.01.01-.02.02-.03.04-.04.06,0,0,0,0,0,.01-.02.02-.03.04-.05.06,0,0,0,.01-.01.01-.05.06-.09.12-.14.18h0s-.04.05-.05.07h0s-.03.05-.05.07h0s-.04.05-.05.07h0c-.05.06-.09.12-.14.18,0,0,0,0,0,.01-.02.02-.03.04-.05.06h0s-.03.05-.05.07c0,0,0,0,0,.01-.02.02-.03.04-.05.06,0,0,0,0,0,.01-.01.02-.03.03-.04.05,0,0-.01.01-.01.02,0,.01-.02.02-.03.03,0,0-.01.01-.02.02-.01.01-.02.03-.04.04,0,0-.01.02-.02.02-.01.01-.02.03-.03.04,0,0-.01.02-.02.03-.01.01-.02.02-.03.04,0,.01-.02.02-.02.03,0,0-.01.02-.02.03,0,.01-.02.03-.03.04,0,0-.01.01-.02.02-.01.01-.02.03-.04.04,0,0-.01.01-.02.02-.01.02-.02.03-.04.05v.02s-.04.03-.05.05c0,0,0,.01-.01.01-.01.01-.03.04-.04.05h-.01s-.03.05-.04.06h-.01s-.03.05-.05.07c0,0,0,0,0,0-.02.02-.03.04-.05.06h0s-.03.05-.05.07c0,0,0,0,0,0-.02.02-.03.04-.05.06h0c-.28.35-.57.7-.86,1.04l7.46,6.23c1.24-1.48,2.46-3.01,3.63-4.55l-7.72-5.89h0Zm4.99-7.04c-.99,1.5-2.01,2.99-3.06,4.44l7.87,5.69c1.13-1.57,2.24-3.18,3.31-4.79l-8.12-5.34h0Zm4.49-7.38c-.38.69-.78,1.37-1.17,2.05,0,0,0,0,0,0-.01.02-.03.05-.04.07,0,0,0,0,0,0-.01.02-.03.05-.04.07,0,0,0,0,0,0-.01.02-.03.05-.04.07,0,0,0,0,0,0-.04.07-.08.14-.13.21,0,0,0,0,0,0-.01.02-.03.04-.04.07h0s-.03.05-.04.07c0,0,0,0,0,.01-.01.02-.02.04-.04.06,0,0,0,0,0,0-.01.02-.03.05-.04.07,0,0,0,0,0,0-.01.02-.03.04-.04.07,0,0,0,0,0,0-.01.02-.03.04-.04.06,0,0,0,0,0,.01-.01.02-.02.04-.04.06,0,0,0,0,0,.01-.01.02-.03.04-.04.06,0,0,0,0,0,0-.01.02-.03.04-.04.06,0,0,0,0,0,0-.01.02-.03.04-.04.07,0,0,0,0,0,0-.01.02-.03.04-.04.07,0,0,0,0,0,0-.01.02-.02.04-.04.06h0s-.03.05-.04.07c0,0,0,0,0,.01-.01.02-.02.04-.04.06h0s-.03.06-.04.08c0,0,0,0,0,0-.02.03-.03.04-.04.07,0,0,0,0,0,0-.01.02-.03.05-.04.07h0s-.03.05-.04.07c0,0,0,0,0,0-.01.02-.03.05-.04.07,0,0,0,0,0,0-.01.02-.03.05-.04.07,0,0,0,0,0,0-.15.24-.29.48-.44.72l8.25,5.12c1.02-1.64,2.02-3.33,2.96-5.02l-8.47-4.75h0Zm3.95-7.67c-.77,1.63-1.57,3.24-2.41,4.83l8.6,4.53c.9-1.71,1.78-3.47,2.6-5.21l-8.79-4.14h0Zm3.4-7.93s0,0,0,.01c0,.02-.02.04-.02.06,0,0,0,.01,0,.02,0,.02-.01.04-.02.05,0,0,0,.02,0,.02,0,.02-.01.03-.02.05,0,.01,0,.02-.01.03,0,.01-.01.03-.02.05,0,.01,0,.02-.01.04,0,.01,0,.02-.01.03l-.02.06s0,.01,0,.02c0,.02-.02.04-.03.07,0,0,0,0,0,.01-.59,1.5-1.21,2.99-1.86,4.47l8.89,3.91c.78-1.77,1.53-3.58,2.22-5.39l-9.06-3.51h0Zm2.83-8.16c-.14.46-.28.91-.43,1.37,0,0,0,0,0,0,0,.02-.02.06-.02.08h0s-.02.06-.02.08c0,0,0,0,0,0-.02.05-.03.1-.05.16,0,0,0,0,0,0,0,.03-.02.05-.02.07,0,0,0,0,0,0,0,.02-.02.05-.02.07,0,0,0,0,0,.01,0,.02-.02.05-.02.07,0,0,0,0,0,.01,0,.03-.01.04-.02.07,0,0,0,0,0,0,0,.02-.02.05-.02.07,0,0,0,0,0,.01,0,.03-.01.04-.02.07h0s-.01.06-.02.08c0,0,0,.01,0,.02,0,.02-.01.05-.02.07,0,0,0,0,0,.01,0,.02-.01.04-.02.07,0,0,0,0,0,0,0,.02-.02.05-.02.07,0,0,0,0,0,.01,0,.02-.01.05-.02.07,0,0,0,.01,0,.02,0,.02-.01.04-.02.07,0,0,0,0,0,.01,0,.02-.02.05-.02.07,0,0,0,0,0,0,0,.02-.02.05-.02.07h0s-.02.05-.02.08c0,0,0,0,0,.01,0,.03-.01.04-.02.07,0,0,0,0,0,.01,0,.02-.02.05-.02.07,0,0,0,0,0,0,0,.02-.02.05-.03.07h0c-.02.05-.04.1-.05.16,0,0,0,0,0,0,0,.03-.02.05-.03.07,0,0,0,0,0,0,0,.03-.02.05-.03.08h0c-.03.08-.05.16-.08.24h0c-.16.48-.33.96-.5,1.43l9.15,3.27c.65-1.82,1.27-3.68,1.84-5.53l-9.28-2.86h0Zm2.24-8.34c-.38,1.65-.8,3.28-1.24,4.9h0c-.02.05-.03.11-.04.16h0s-.01.05-.02.07c0,0,0,0,0,.01,0,.02-.01.04-.02.07,0,0,0,0,0,0l9.36,2.61c.52-1.86,1-3.76,1.44-5.65l-9.46-2.19h0Zm1.65-8.47c-.2,1.28-.43,2.56-.67,3.83t0,0s0,.02,0,.03c0,0,0,.01,0,.02,0,0,0,.02,0,.03,0,0,0,.01,0,.02,0,0,0,.02,0,.02,0,0,0,.01,0,.02,0,0,0,.02,0,.03,0,0,0,.01,0,.02,0,0,0,.01,0,.02,0,0,0,.02,0,.03h0s-.01.06-.01.08h0s0,.02,0,.04c0,0,0,0,0,0,0,.01,0,.03,0,.04,0,0,0,0,0,0,0,.01,0,.03,0,.04h0c-.07.34-.14.69-.21,1.03l9.52,1.94c.39-1.89.73-3.82,1.04-5.73l-9.59-1.52h0Zm1.05-8.57c-.16,1.8-.35,3.59-.58,5.36l9.63,1.26c.25-1.91.46-3.86.63-5.79l-9.68-.84h0Zm.44-8.62c-.01.82-.04,1.65-.07,2.47h0s0,.07,0,.1h0c0,.07,0,.13,0,.2h0s0,.03,0,.05h0s0,.03,0,.05h0c0,.07,0,.13,0,.2h0s0,.03,0,.05h0s0,.03,0,.05h0c0,.07,0,.13,0,.2h0s0,.03,0,.05h0s0,.03,0,.05c0,0,0,0,0,.01v.04s0,0,0,0c0,.03,0,.06,0,.1h0s0,.03,0,.05c0,0,0,0,0,.01,0,.01,0,.02,0,.04h0s0,.04,0,.05h0s0,.04,0,.05h0s0,.07,0,.1h0s0,.03,0,.05c0,0,0,0,0,.01,0,.01,0,.02,0,.03,0,0,0,0,0,.01,0,.01,0,.02,0,.03,0,0,0,0,0,.01,0,.01,0,.03,0,.04h0s0,.07,0,.1c0,0,0,0,0,0,0,.01,0,.02,0,.04,0,0,0,.01,0,.02v.03s0,0,0,.01c0,.01,0,.02,0,.03,0,0,0,.01,0,.01,0,.01,0,.03,0,.04h0s0,.07,0,.1c0,0,0,0,0,.01,0,.01,0,.02,0,.03,0,0,0,.01,0,.02,0,.01,0,.02,0,.03v.02s0,.02,0,.03c0,0,0,0,0,.02,0,.01,0,.02,0,.03,0,0,0,0,0,.01,0,.03,0,.06,0,.09,0,0,0,0,0,.01,0,.01,0,.02,0,.03,0,0,0,.01,0,.02,0,0,0,.02,0,.03,0,0,0,0,0,.02,0,.01,0,.02,0,.03t0,.02s0,.02,0,.03c0,0,0,.01,0,.02,0,0,0,.02,0,.03,0,0,0,.02,0,.03,0,.01,0,.02,0,.04,0,0,0,.01,0,.01v.03s0,.01,0,.02c0,0,0,.02,0,.02,0,0,0,.01,0,.02,0,0,0,.02,0,.02,0,0,0,.01,0,.02v.02s0,.01,0,.02c0,0,0,.01,0,.02,0,.02,0,.03,0,.05,0,0,0,.01,0,.02,0,0,0,.02,0,.02,0,0,0,.01,0,.02l9.7.58c.12-1.92.19-3.88.22-5.81l-9.71-.16h0Zm9.54-9.15l-9.7.51c.09,1.79.15,3.59.17,5.39l9.71-.09c-.02-1.93-.08-3.89-.18-5.81h0Zm-.82-9.28l-9.64,1.19c.11.92.22,1.84.31,2.76,0,0,0,0,0,0,0,.02,0,.02,0,.04h0s0,.03,0,.04c0,0,0,0,0,0,0,.06.01.11.02.16,0,0,0,0,0,0,0,.01,0,.02,0,.04,0,0,0,0,0,0,0,.01,0,.02,0,.03,0,0,0,0,0,.01,0,0,0,.02,0,.03,0,0,0,0,0,.01,0,.01,0,.02,0,.03,0,0,0,0,0,0,0,.05,0,.1.01.15,0,0,0,0,0,.01,0,.01,0,.02,0,.03,0,0,0,0,0,.01,0,0,0,.02,0,.03,0,0,0,0,0,.01,0,.01,0,.02,0,.03,0,0,0,0,0,.01,0,.01,0,.02,0,.03,0,0,0,0,0,.01,0,.04,0,.07.01.11,0,0,0,0,0,0,0,.01,0,.02,0,.03h0s0,.03,0,.05c0,0,0,0,0,.01,0,0,0,.02,0,.03,0,0,0,0,0,0,0,.01,0,.02,0,.04,0,0,0,0,0,0,0,.06,0,.11.01.16,0,0,0,0,0,0,0,.01,0,.02,0,.03,0,0,0,0,0,.01,0,.01,0,.02,0,.03,0,0,0,0,0,0,0,.01,0,.02,0,.04h0c.04.42.07.84.11,1.27l9.68-.77c-.15-1.93-.35-3.88-.59-5.79h0Zm-1.47-9.2l-9.53,1.87s0,.02,0,.03h0s0,.03,0,.05h0s0,.03,0,.04t0,0v.04s0,0,.01,0c0,.01,0,.02,0,.03,0,0,0,.02,0,.02,0,0,0,.01,0,.02,0,0,0,.02,0,.02,0,0,0,.01,0,.02,0,0,0,.02,0,.03,0,0,0,0,0,.01,0,.01,0,.02,0,.03,0,0,0,0,0,0,.31,1.63.6,3.29.85,4.94l9.61-1.44c-.29-1.91-.62-3.84-.99-5.74h0Zm-2.12-9.08l-9.38,2.54h0c.18.65.35,1.3.51,1.95,0,0,0,0,0,0,.02.07.03.13.05.2,0,0,0,0,0,0,0,.01,0,.02,0,.03,0,0,0,0,0,.01,0,0,0,.02,0,.03,0,0,0,.01,0,.02,0,0,0,.01,0,.02,0,0,0,.02,0,.03,0,0,0,0,0,.02,0,.01,0,.02,0,.03,0,0,0,0,0,.01,0,.01,0,.02,0,.03,0,0,0,0,0,0,.19.77.37,1.54.55,2.31h0s0,.03,0,.04c0,0,0,.01,0,.02,0,0,0,.02,0,.03,0,0,0,.02,0,.03,0,0,0,.01,0,.02,0,.01,0,.02,0,.03,0,0,0,0,0,.01,0,.01,0,.02,0,.03,0,0,0,0,0,0,.02.11.05.22.07.33l9.48-2.12c-.42-1.89-.89-3.79-1.4-5.66h0Zm-2.75-8.91l-9.17,3.2c.04.11.07.21.11.31,0,0,0,0,0,0,0,.03.02.05.02.07,0,0,0,0,0,.01,0,.02.02.05.02.07,0,0,0,0,0,.01,0,.02.01.04.02.06,0,0,0,.01,0,.02,0,.02.01.04.02.06,0,0,0,.02,0,.03,0,.02.01.03.02.05,0,.01,0,.02.01.03,0,.01,0,.02.01.04,0,.02.01.03.02.05,0,0,0,.02,0,.03,0,.02.01.04.02.06,0,0,0,.01,0,.02,0,.02.02.05.02.07,0,0,0,0,0,0,.28.81.54,1.63.8,2.45h0s.02.06.03.08c0,0,0,0,0,.02,0,.02.01.04.02.07,0,0,0,.01,0,.02,0,.02.01.04.02.06,0,.01,0,.02,0,.03,0,.01,0,.02.01.04,0,.01.01.03.02.05,0,.01,0,.02,0,.03,0,.02.01.04.02.05,0,0,0,.02,0,.02,0,.02,0,.03.02.05,0,0,0,.02,0,.02,0,.02.01.04.02.06v.02s.02.05.03.06c0,0,0,.01,0,.02,0,.02.01.04.02.07,0,0,0,0,0,.01,0,.03.01.05.02.07h0c.08.27.16.54.24.81l9.31-2.79c-.55-1.85-1.16-3.72-1.8-5.54h0Zm-3.38-8.69l-8.92,3.84c.07.16.14.33.21.49h0s.02.05.03.08c0,0,0,.02,0,.02,0,.02.02.04.02.05,0,.01,0,.02.01.03,0,0,0,.02.01.03,0,.02.02.04.02.05,0,0,0,.02.01.02,0,.02.02.04.02.06,0,0,0,.01,0,.02,0,.02.02.04.03.06,0,0,0,.01,0,.02,0,.02.02.04.03.07,0,0,0,0,0,0,0,.02.02.04.03.07,0,0,0,0,0,0,0,.02.02.05.03.07,0,0,0,0,0,0,.01.03.02.04.03.07,0,0,0,0,0,0,.01.03.02.05.03.07,0,0,0,0,0,0,.51,1.22.99,2.44,1.46,3.68l9.08-3.44c-.68-1.81-1.42-3.63-2.18-5.4h0Zm-3.99-8.43l-8.63,4.46c.33.63.65,1.27.97,1.91h0s.03.06.04.08h0c.05.1.1.19.14.29h0s.02.06.04.08h0s.02.06.04.08c0,0,0,0,0,0,.01.03.03.05.04.08h0s.01.03.02.04h0s.02.06.04.08c0,0,0,0,0,.01.01.02.02.04.03.07,0,0,0,.01,0,.02,0,.02.02.04.03.06,0,0,0,.01,0,.02.01.02.02.04.03.06,0,0,0,.01,0,.02.02.04.04.08.06.12,0,0,0,0,0,.01.01.02.02.05.03.07,0,0,0,0,0,.01.01.02.02.05.03.07,0,0,0,0,0,.01.01.03.03.05.04.08h0c.25.52.49,1.04.73,1.56l8.82-4.08c-.81-1.75-1.67-3.51-2.56-5.23h0Zm-4.57-8.12l-8.29,5.06c.23.38.47.77.7,1.15h0c.04.07.08.14.13.21,0,0,0,0,0,0,.01.02.02.04.04.06,0,0,0,0,0,.01.01.02.02.04.04.06,0,0,0,.01,0,.02,0,.02.02.04.03.06,0,0,0,.01.01.02,0,.02.02.03.03.05v.03s.03.03.04.04c0,.01.01.02.02.03,0,.01.01.02.02.04,0,.01.01.02.02.03,0,.02.01.03.02.04l.02.03s.02.03.02.04c0,.01.01.02.02.03,0,0,0,.01.01.02.01.02.02.04.03.06,0,0,0,0,0,.02.01.02.02.04.04.06,0,0,0,0,0,.01.29.5.58,1.01.87,1.52h0s.03.05.04.08c0,0,0,0,0,.01.01.02.02.04.03.06,0,0,0,.01.01.02l.03.05s.01.02.02.03c0,.01.01.02.02.03,0,.02.02.03.03.05,0,0,0,.02.01.02,0,.02.02.04.03.05,0,0,0,.01.01.02.01.02.02.04.03.06,0,0,0,0,0,.01.01.02.02.04.04.06,0,0,0,0,0,0,.08.14.17.3.25.44l8.51-4.69c-.93-1.69-1.92-3.39-2.92-5.04h0Zm-5.13-7.78l-7.92,5.63c.2.28.39.55.58.83h0s.03.04.04.06h0s.03.05.04.07c0,0,0,.01.01.02.01.02.03.04.04.05,0,0,0,.01.02.02,0,0,.02.03.02.04,0,.01.02.03.03.04,0,0,.01.02.02.02.01.02.02.03.03.05,0,0,0,.01.01.02.62.89,1.23,1.79,1.82,2.7,0,0,0,.01.01.02.01.02.02.03.03.05,0,0,.01.02.02.03,0,.01.02.02.02.03.01.02.02.03.03.05,0,0,0,.01,0,.02.01.02.03.04.04.06,0,0,0,0,0,.01.01.02.03.04.04.07,0,0,0,0,0,0,.05.07.09.14.14.21l8.16-5.28c-1.05-1.62-2.15-3.24-3.27-4.82h0Zm-5.66-7.4l-7.5,6.17c.22.27.44.54.66.81h0s.04.05.05.07c0,0,0,0,0,0,.01.02.03.04.04.05,0,0,0,.01.02.02,0,.01.02.02.02.03,0,.01.02.03.03.04,0,0,.02.02.02.03.01.01.02.03.03.04,0,0,.01.02.02.02,0,.01.02.03.03.04l.02.03s.02.03.03.04l.02.02s.03.03.04.05h.01s.03.05.04.07c0,0,0,0,.01.01.01.02.03.04.04.05,0,0,0,0,.01.01.01.02.03.04.04.06,0,0,0,0,0,0,.01.02.03.04.05.06h0s.07.09.1.13c0,0,0,0,0,0,.02.02.03.04.05.06,0,0,0,0,0,0,.01.02.03.04.05.06,0,0,0,0,0,0,.02.02.03.04.05.06,0,0,0,0,0,0,.01.02.03.04.05.06,0,0,0,0,0,0,.03.04.07.08.1.13,0,0,0,0,0,0,.02.02.03.04.05.06,0,0,0,0,0,0,.01.02.03.04.04.06,0,0,0,0,0,.01.01.02.03.04.04.06,0,0,0,0,0,.01.01.02.03.04.04.06,0,0,0,0,0,.01.01.02.03.04.04.05,0,0,0,0,0,0,.01.02.03.03.04.05,0,0,0,.01.01.02.01.02.03.04.04.05,0,0,0,.01.01.02.01.02.02.03.04.05,0,0,.01.01.02.02.01.02.02.03.04.05,0,0,.01.01.02.02,0,.01.02.03.03.04,0,0,.02.02.02.03,0,.01.02.02.02.03,0,.01.02.03.03.04,0,0,.01.02.02.03.01.02.02.03.04.05,0,0,.01.01.02.02.01.02.03.04.04.05,0,0,0,.01.01.01.31.41.62.81.93,1.22l7.76-5.84c-1.16-1.54-2.37-3.08-3.6-4.58h0Zm-6.17-6.98l-7.05,6.68c.77.81,1.54,1.64,2.28,2.48,0,0,0,0,0,0,.02.02.04.04.05.06h0s.04.04.05.06c0,0,0,0,0,0,.02.02.04.04.05.06,0,0,0,0,0,0,.04.04.07.08.11.12,0,0,0,0,0,0,.02.02.03.04.05.06,0,0,0,0,0,0,.02.02.03.04.05.05,0,0,0,0,.01.01.02.02.03.04.05.05,0,0,0,0,.01.01.02.02.03.04.05.05,0,0,0,0,0,.01.02.02.03.03.04.05,0,0,0,0,0,.01.01.01.03.03.04.05,0,0,0,0,.01.01.01.01.03.03.04.05,0,0,0,.01.01.02.02.02.03.03.04.05,0,0,.01.01.02.02.01.01.03.03.04.05l.02.02s.02.03.04.04c0,0,.01.02.02.02,0,.01.02.02.03.03,0,.01.02.02.03.03.01.01.02.02.03.03,0,0,.02.02.02.03,0,.01.02.03.03.04,0,0,.01.02.02.02.01.01.02.03.04.04,0,0,.02.02.02.03.01.01.02.03.03.04,0,0,.02.02.02.03,0,0,.02.02.02.03l.03.04s.01.01.02.02c.01.01.03.03.04.04,0,0,.01.02.02.02.01.01.03.03.04.05,0,0,0,.01.02.02,0,0,.01.01.02.02l7.34-6.37c-1.27-1.46-2.58-2.91-3.91-4.31h0Zm-6.64-6.53l-6.57,7.16c1.33,1.22,2.62,2.46,3.9,3.73l6.87-6.86c-1.37-1.37-2.78-2.72-4.2-4.03h0Zm-7.08-6.05l-6.05,7.6s.01,0,.02.01c.01,0,.02.02.03.03.01,0,.02.02.03.03.01,0,.02.02.03.02.01,0,.02.02.03.03,0,0,.02.02.03.03l.03.02s.02.02.04.03c0,0,.02.01.03.02.01,0,.03.03.04.03l.02.02s.03.02.04.03c0,0,.02.01.02.02.01,0,.02.02.04.03.01,0,.02.02.03.03.01,0,.02.01.03.02.01.01.03.02.04.03,0,0,.02.02.03.02.01,0,.02.02.04.03.01,0,.02.02.03.02,0,0,.02.02.03.02.01,0,.03.02.04.03l.03.02s.02.02.03.02c.01.01.03.02.04.04,0,0,.01.01.02.02.02.01.03.03.05.04h.02s.04.04.05.06c0,0,0,0,.02.01.02.01.04.03.06.04,0,0,0,0,.01.01.03.03.07.06.1.08,0,0,0,0,.01.01.02.02.04.03.06.05,0,0,0,0,0,0,.02.02.04.03.06.05,0,0,0,0,.01,0,.02.02.04.03.06.05,0,0,0,0,0,0,.02.02.04.03.06.05h0c.08.07.16.14.25.21h0s.05.04.07.06h0c.5.41.99.82,1.48,1.24h0s.04.04.06.06c0,0,0,0,.01,0,.02.02.04.03.05.05,0,0,.01.01.02.01.01.01.03.02.04.04,0,0,.02.02.03.02,0,0,.02.02.03.02.01,0,.03.02.04.03l.03.02s.03.02.04.03c0,0,.02.02.03.02.01.01.02.02.04.03,0,0,.02.01.03.02.01.01.03.02.04.04,0,0,0,0,.01.01.02.01.03.03.05.04,0,0,0,0,.01.01.02.02.03.03.05.05,0,0,0,0,0,0,.02.01.04.04.06.05,0,0,0,0,0,0,.08.07.17.15.25.22l6.38-7.33c-1.46-1.27-2.96-2.52-4.47-3.72h0Zm-7.49-5.54l-5.5,8.01c1.48,1.02,2.94,2.07,4.38,3.15l5.85-7.76c-1.54-1.16-3.13-2.31-4.73-3.4h0Zm-7.86-5l-4.92,8.37c.18.11.36.21.54.32h0s.05.03.07.04c0,0,0,0,.02,0,.02.01.04.02.05.03,0,0,.02.01.03.02l.04.02s.03.02.04.03c0,0,.02.01.03.02.02.01.03.02.05.03h.02s.04.04.05.05c0,0,.01,0,.02.01.02.01.04.02.06.03,0,0,0,0,.01,0,.02.01.04.02.06.04,0,0,0,0,0,0,.02.01.04.03.06.04,0,0,0,0,.01,0,.02.01.04.02.06.04,0,0,0,0,0,0,.02.01.05.03.07.04,0,0,0,0,0,0,.02.01.04.03.07.04,0,0,0,0,0,0,.07.04.14.08.21.13,0,0,0,0,0,0,.02.01.04.03.07.04,0,0,0,0,0,0,.02.01.04.03.07.04,0,0,0,0,0,0,.02.01.04.03.07.04,0,0,0,0,0,0,.05.03.09.06.14.08h0s.04.03.06.04c0,0,0,0,.01,0,.02.01.04.03.06.04,0,0,0,0,.01,0,.02.01.04.03.06.04,0,0,0,0,.01,0,.02.01.04.03.06.04,0,0,0,0,.01,0,.02.01.04.02.05.03h.02s.03.03.05.04c0,0,.01,0,.02.01.02.01.04.02.05.03,0,0,.02,0,.02.01.02.01.03.02.05.03,0,0,.02.01.03.02.02.01.03.02.04.03.01,0,.02.01.03.02,0,0,.02.01.03.02.02.01.03.02.05.03,0,0,.02.01.02.01.02.01.03.02.05.03,0,0,.01,0,.02.02.02.01.04.03.06.04,0,0,0,0,.01,0,.58.36,1.15.73,1.73,1.1l5.29-8.15c-1.62-1.05-3.29-2.08-4.95-3.06h0Zm-8.19-4.44l-4.32,8.7c1.16.58,2.31,1.17,3.44,1.78,0,0,0,0,0,0,.02.01.04.02.07.04h.01s.04.03.06.04c0,0,.01,0,.02,0,.02,0,.04.02.06.03,0,0,.01,0,.02.01.01,0,.03.02.04.02.01,0,.02.01.03.02.01,0,.03.01.04.02.02,0,.03.02.04.02.01,0,.02,0,.03.02.3.16.61.33.91.5l4.7-8.5c-1.69-.94-3.43-1.85-5.16-2.71h0Zm-8.49-3.85l-3.69,8.98c.58.24,1.16.48,1.74.73,0,0,0,0,.01,0,.02,0,.05.02.07.03,0,0,.01,0,.02,0,.02,0,.04.02.06.03,0,0,.01,0,.02,0,.02,0,.04.02.06.02,0,0,.02,0,.03.01.01,0,.02.01.04.02.01,0,.03.01.05.02.01,0,.02,0,.03.01.01,0,.02.01.04.02.01,0,.03.01.04.02.01,0,.02.01.04.02l.04.02s.03.01.04.02c0,0,.02,0,.02.01.02,0,.04.02.06.02,0,0,.02,0,.02.01.02,0,.04.02.06.03,0,0,.01,0,.02,0,.02,0,.04.02.06.03,0,0,.01,0,.02,0,.02,0,.04.02.06.03,0,0,0,0,.01,0,.02.01.04.02.07.03,0,0,0,0,0,0,.02.01.04.02.07.03,0,0,0,0,.01,0,.02,0,.05.02.07.03,0,0,0,0,0,0,.02.01.05.02.07.03,0,0,0,0,0,0,.67.3,1.33.6,1.99.9l4.09-8.81c-1.75-.81-3.55-1.6-5.34-2.33h0Zm-8.74-3.24l-3.05,9.22c.43.14.85.28,1.28.43,0,0,0,0,0,0,.03,0,.05.02.07.02,0,0,0,0,.01,0,.02,0,.04.02.07.02,0,0,.01,0,.02,0,.02,0,.04.01.06.02,0,0,.01,0,.02,0,.02,0,.03.01.05.02.01,0,.02,0,.03.01s.03.01.04.02c.01,0,.02,0,.03.01.02,0,.03.01.05.02.01,0,.02,0,.04.01.01,0,.03.01.05.02.01,0,.03,0,.04.01,0,0,.02,0,.02,0,.02,0,.04.02.07.02,0,0,0,0,.02,0,.03,0,.05.02.08.03h0c.5.18,1,.36,1.5.54h0s.06.02.08.03h0s.06.02.08.03h0s.08.03.13.05c0,0,.01,0,.02,0,.02,0,.04.02.06.02,0,0,.02,0,.03,0,.02,0,.03.01.05.02.01,0,.02,0,.04.01.01,0,.02,0,.03.01.02,0,.03.01.05.02,0,0,.02,0,.03.01.02,0,.03.01.06.02,0,0,.02,0,.02,0,.02,0,.04.02.06.02,0,0,.01,0,.02,0,.02,0,.04.02.07.02,0,0,0,0,0,0,.03,0,.05.02.07.03,0,0,0,0,0,0,.03,0,.05.02.08.03,0,0,0,0,0,0,.19.07.36.14.55.21l3.45-9.08c-1.81-.69-3.66-1.34-5.49-1.95h0Zm-8.95-2.61l-2.38,9.42c.09.02.18.05.27.07h.03s.03.02.05.02c.01,0,.03,0,.04.01.01,0,.02,0,.03,0,.02,0,.04,0,.06.01,0,0,.01,0,.02,0,.02,0,.04.01.07.02,0,0,.01,0,.02,0,.02,0,.05.01.07.02,0,0,0,0,.01,0,1.52.4,3.04.82,4.54,1.27l2.8-9.3c-1.85-.56-3.74-1.08-5.62-1.55h0Zm-9.11-1.97l-1.71,9.56c1.65.3,3.3.62,4.93.99,0,0,0,0,0,0,.01,0,.02,0,.03,0,0,0,.01,0,.02,0,0,0,.02,0,.02,0,0,0,.02,0,.03,0h.02s.02,0,.03.01c0,0,0,0,0,0,.07.01.13.03.2.04l2.13-9.48c-1.89-.42-3.81-.81-5.71-1.15h0Zm-9.22-1.32l-1.03,9.66s.02,0,.03,0h0c.06,0,.13.01.19.02h0s.03,0,.04,0h0s.02,0,.04,0h.01s.02,0,.04,0h0s.03,0,.04,0h0s.06,0,.09.01h0s.03,0,.04,0h0s.03,0,.04,0h0s.03,0,.04,0h0s.03,0,.04,0c0,0,0,0,0,0,.06,0,.12.01.19.02,0,0,0,0,.01,0,.01,0,.02,0,.04,0h0s.03,0,.04,0h0s.03,0,.04,0h0c.08,0,.16.02.24.03h0c1.36.16,2.72.34,4.07.55l1.46-9.6c-1.91-.29-3.85-.54-5.77-.75h0Zm-9.29-.67l-.36,9.71c.39.01.77.03,1.15.05h0s.03,0,.05,0h.05s0,0,0,0c.06,0,.13,0,.19,0,0,0,0,0,0,0,.01,0,.02,0,.04,0,0,0,0,0,.01,0,.01,0,.02,0,.03,0,0,0,0,0,.01,0,.01,0,.02,0,.03,0,0,0,0,0,.01,0h.04s0,0,0,0c.02,0,.03,0,.05,0,0,0,0,0,.01,0,.01,0,.02,0,.03,0,0,0,.02,0,.02,0,0,0,.02,0,.03,0,0,0,.01,0,.02,0,0,0,.02,0,.02,0,0,0,.01,0,.02,0,0,0,.02,0,.03,0,0,0,.02,0,.02,0h.03s.02,0,.02,0c0,0,.02,0,.03,0,0,0,.02,0,.03,0h.03s.02,0,.02,0c0,0,.02,0,.02,0s.02,0,.02,0c0,0,.01,0,.02,0,0,0,.02,0,.02,0,0,0,.02,0,.02,0,0,0,.01,0,.02,0s.02,0,.02,0c0,0,.02,0,.02,0,.01,0,.02,0,.03,0,0,0,.02,0,.02,0,.01,0,.02,0,.03,0,0,0,.01,0,.02,0,0,0,.02,0,.03,0,0,0,.01,0,.02,0,0,0,.02,0,.03,0,0,0,.01,0,.02,0,0,0,.02,0,.03,0,0,0,.01,0,.02,0,0,0,.02,0,.03,0,0,0,.02,0,.02,0,.01,0,.02,0,.03,0,0,0,.01,0,.02,0,.01,0,.03,0,.04,0,0,0,.01,0,.02,0,.01,0,.02,0,.03,0,0,0,.01,0,.02,0,0,0,.02,0,.03,0,0,0,0,0,.02,0,0,0,.02,0,.03,0h.02s.02,0,.03,0c0,0,.01,0,.02,0,.01,0,.02,0,.04,0,0,0,0,0,0,0,.02,0,.03,0,.05,0,0,0,.01,0,.02,0,.01,0,.02,0,.03,0h.02s.02,0,.03,0c0,0,0,0,.02,0,0,0,.02,0,.03,0,0,0,.01,0,.02,0h.03s.02,0,.02,0c.01,0,.02,0,.03,0h.01s.03,0,.05,0c0,0,0,0,0,0,.01,0,.02,0,.04,0,0,0,.01,0,.02,0,0,0,.02,0,.03,0,0,0,.01,0,.02,0,0,0,.02,0,.03,0,0,0,0,0,.02,0,.01,0,.02,0,.03,0,0,0,0,0,.01,0,.01,0,.02,0,.04,0,0,0,0,0,0,0h.05s0,0,0,0c.01,0,.03,0,.04,0,0,0,0,0,0,0,.01,0,.02,0,.04,0,0,0,.01,0,.01,0h.03s0,0,.01,0c.01,0,.02,0,.03,0,0,0,0,0,.01,0,.01,0,.03,0,.04,0h0s.06,0,.09,0h0s.03,0,.04,0c0,0,0,0,.01,0,.01,0,.02,0,.03,0,0,0,0,0,.01,0,.01,0,.02,0,.03,0,0,0,0,0,.01,0,.01,0,.03,0,.04,0h0s.06,0,.1,0h0s.03,0,.05,0h0s.03,0,.04,0h.01s.02,0,.04,0c0,0,0,0,.01,0,.01,0,.03,0,.04,0h0s.09,0,.14.01c0,0,0,0,0,0,.01,0,.02,0,.04,0h.01s.02,0,.04,0h.01s.02,0,.04,0c0,0,0,0,.01,0,.01,0,.03,0,.04,0h0s.06,0,.09,0c0,0,0,0,.01,0,.01,0,.02,0,.03,0,0,0,0,0,.02,0,0,0,.02,0,.03,0,0,0,0,0,.02,0,.01,0,.02,0,.03,0,0,0,0,0,.01,0h.04s0,0,0,0c.03,0,.06,0,.09,0h0s.02,0,.04,0c0,0,.01,0,.01,0,.01,0,.02,0,.03,0,0,0,0,0,.01,0,.01,0,.02,0,.03,0,0,0,0,0,.01,0,.01,0,.02,0,.03,0,0,0,.01,0,.02,0,.01,0,.03,0,.04,0h0s.03,0,.05,0h0s.02,0,.03,0l.78-9.68c-1.92-.15-3.88-.27-5.81-.34h0Zm-4.92-.09v9.71h.16s.01,0,.02,0h.08s.04,0,.06,0h.02s.04,0,.06,0h.03s.03,0,.05,0h.04s.02,0,.04,0,.02,0,.04,0c.02,0,.03,0,.05,0,.01,0,.03,0,.04,0h.02s.05,0,.08,0h.01c.18,0,.35,0,.53,0l.1-9.71c-.48,0-.95,0-1.43,0h0Z" style="fill: #41c2d9; stroke-width: 0px;"/>
            <circle cx="132.21" cy="132.21" r="122.5" style="fill: none; stroke: #fff; stroke-miterlimit: 10; stroke-width: 15.11px;"/>
            <circle cx="132.21" cy="132.21" r="122.5" style="fill: #41c2d9; opacity: .39; stroke-width: 0px;"/>
          </g>
          <g>
            <g>
              <polygon points="81.55 196.58 87.99 196.58 90.94 180.95 81.11 180.95 81.55 196.58" style="fill: #faead7; stroke-width: 0px;"/>
              <path d="m87.85,198.64h-6.62v-8.08s3.24.75,8.08,0c0,1.5-1.46,8.08-1.46,8.08Z" style="fill: #e2e2e4; stroke-width: 0px;"/>
              <path d="m91.69,201.68h-10.65c-.33,0-.6-.27-.6-.6v-.29c0-3.74,3.06-6.79,6.79-6.79h0c3.15,0,5.7,2.55,5.7,5.7v.74c0,.69-.56,1.24-1.24,1.24Z" style="fill: #594a42; stroke-width: 0px;"/>
              <g>
                <path d="m88.16,192.96s.07-.03.08-.07l.3-1.83s-.02-.09-.07-.09c-.04,0-.09.02-.09.07l-.3,1.83s.02.09.07.09c0,0,0,0,.01,0Z" style="fill: #fbfbf5; stroke-width: 0px;"/>
                <path d="m87.46,193.14s.07-.03.08-.07l.27-1.85s-.02-.09-.07-.09c-.04,0-.09.02-.09.07l-.27,1.85s.02.09.07.09c0,0,0,0,.01,0Z" style="fill: #fbfbf5; stroke-width: 0px;"/>
                <path d="m86.77,193.16s.08-.03.08-.07l.23-1.87s-.03-.09-.07-.09c-.04,0-.09.03-.09.07l-.23,1.87s.03.09.07.09c0,0,0,0,.01,0Z" style="fill: #fbfbf5; stroke-width: 0px;"/>
                <path d="m86.08,193.18s.08-.03.08-.07l.2-1.89s-.03-.08-.07-.09c-.04,0-.08.03-.09.07l-.2,1.89s.03.08.07.09c0,0,0,0,0,0Z" style="fill: #fbfbf5; stroke-width: 0px;"/>
                <path d="m85.38,193.2s.08-.03.08-.07l.17-1.91s-.03-.08-.07-.09c-.05,0-.08.03-.09.07l-.17,1.91s.03.08.07.09c0,0,0,0,0,0Z" style="fill: #fbfbf5; stroke-width: 0px;"/>
                <path d="m84.69,193.22s.08-.03.08-.08l.13-1.93s-.03-.08-.08-.09c-.05,0-.08.03-.09.08l-.13,1.93s.03.08.08.09c0,0,0,0,0,0Z" style="fill: #fbfbf5; stroke-width: 0px;"/>
                <path d="m84,193.24s.08-.03.08-.08l.1-1.95s-.03-.08-.08-.09c-.04,0-.08.03-.09.08l-.1,1.95s.03.08.08.09c0,0,0,0,0,0Z" style="fill: #fbfbf5; stroke-width: 0px;"/>
                <path d="m83.3,193.27s.08-.03.08-.08l.07-1.97s-.03-.08-.08-.08c-.04,0-.08.03-.08.08l-.07,1.97s.03.08.08.08c0,0,0,0,0,0Z" style="fill: #fbfbf5; stroke-width: 0px;"/>
                <path d="m82.61,193.29s.08-.04.08-.08l.03-1.99s-.04-.08-.08-.08c-.05,0-.08.04-.08.08l-.03,1.99s.04.08.08.08h0Z" style="fill: #fbfbf5; stroke-width: 0px;"/>
                <path d="m81.75,193.14s.08-.04.08-.08v-2.01s-.04-.08-.08-.08-.08.04-.08.08v2.01s.04.08.08.08Z" style="fill: #fbfbf5; stroke-width: 0px;"/>
              </g>
              <polygon points="77.06 196.58 70.63 196.58 67.68 180.95 77.51 180.95 77.06 196.58" style="fill: #faead7; stroke-width: 0px;"/>
              <path d="m70.77,198.64h6.62v-8.08s-3.24.75-8.08,0c0,1.5,1.46,8.08,1.46,8.08Z" style="fill: #e2e2e4; stroke-width: 0px;"/>
              <path d="m79.01,171.36h-17.09s-1.43,11.57-1.42,11.63c.17.82,4.31,1.46,9.25,1.46s9.09-.64,9.25-1.46c.01-.05,0-11.63,0-11.63Z" style="fill: #3fafdd; stroke-width: 0px;"/>
              <path d="m79.74,171.36h17.09s1.43,11.57,1.42,11.63c-.17.82-4.31,1.46-9.25,1.46s-9.09-.64-9.25-1.46c-.01-.05,0-11.63,0-11.63Z" style="fill: #3fafdd; stroke-width: 0px;"/>
              <path d="m66.92,201.68h10.65c.33,0,.6-.27.6-.6v-.29c0-3.74-3.06-6.79-6.79-6.79h0c-3.15,0-5.7,2.55-5.7,5.7v.74c0,.69.56,1.24,1.24,1.24Z" style="fill: #594a42; stroke-width: 0px;"/>
              <g>
                <path d="m70.46,192.96s-.07-.03-.08-.07l-.3-1.83s.02-.09.07-.09c.04,0,.09.02.09.07l.3,1.83s-.02.09-.07.09c0,0,0,0-.01,0Z" style="fill: #fbfbf5; stroke-width: 0px;"/>
                <path d="m71.15,193.14s-.07-.03-.08-.07l-.27-1.85s.02-.09.07-.09c.04,0,.09.02.09.07l.27,1.85s-.02.09-.07.09c0,0,0,0-.01,0Z" style="fill: #fbfbf5; stroke-width: 0px;"/>
                <path d="m71.85,193.16s-.08-.03-.08-.07l-.23-1.87s.03-.09.07-.09c.04,0,.09.03.09.07l.23,1.87s-.03.09-.07.09c0,0,0,0-.01,0Z" style="fill: #fbfbf5; stroke-width: 0px;"/>
                <path d="m72.54,193.18s-.08-.03-.08-.07l-.2-1.89s.03-.08.07-.09c.04,0,.08.03.09.07l.2,1.89s-.03.08-.07.09c0,0,0,0,0,0Z" style="fill: #fbfbf5; stroke-width: 0px;"/>
                <path d="m73.23,193.2s-.08-.03-.08-.07l-.17-1.91s.03-.08.07-.09c.05,0,.08.03.09.07l.17,1.91s-.03.08-.07.09c0,0,0,0,0,0Z" style="fill: #fbfbf5; stroke-width: 0px;"/>
                <path d="m73.93,193.22s-.08-.03-.08-.08l-.13-1.93s.03-.08.08-.09c.05,0,.08.03.09.08l.13,1.93s-.03.08-.08.09c0,0,0,0,0,0Z" style="fill: #fbfbf5; stroke-width: 0px;"/>
                <path d="m74.62,193.24s-.08-.03-.08-.08l-.1-1.95s.03-.08.08-.09c.04,0,.08.03.09.08l.1,1.95s-.03.08-.08.09c0,0,0,0,0,0Z" style="fill: #fbfbf5; stroke-width: 0px;"/>
                <path d="m75.32,193.27s-.08-.03-.08-.08l-.07-1.97s.03-.08.08-.08c.04,0,.08.03.08.08l.07,1.97s-.03.08-.08.08c0,0,0,0,0,0Z" style="fill: #fbfbf5; stroke-width: 0px;"/>
                <path d="m76.01,193.29s-.08-.04-.08-.08l-.03-1.99s.04-.08.08-.08c.05,0,.08.04.08.08l.03,1.99s-.04.08-.08.08h0Z" style="fill: #fbfbf5; stroke-width: 0px;"/>
                <path d="m76.87,193.14s-.08-.04-.08-.08v-2.01s.04-.08.08-.08.08.04.08.08v2.01s-.04.08-.08.08Z" style="fill: #fbfbf5; stroke-width: 0px;"/>
              </g>
            </g>
            <path d="m97.78,174.48c-.33,1.98-8.57,3.54-18.4,3.54s-18.08-1.56-18.4-3.54c-.02-.13,2.83-28.28,2.83-28.28h31.16s2.85,28.15,2.83,28.28Z" style="fill: #79d0ea; stroke-width: 0px;"/>
            <path d="m93.96,158.29c0-1.68-.85-3.04-1.91-3.04-.64,0-1.21.51-1.56,1.29-.35-.78-.91-1.29-1.56-1.29s-1.21.51-1.56,1.29c-.35-.78-.91-1.29-1.56-1.29-1.05,0-1.91,1.36-1.91,3.04,0,.08,0,.15,0,.23,0,.04,0,.07,0,.11,0,2.77,2.25,5.02,5.02,5.02s5.02-2.25,5.02-5.02c0-.04,0-.08,0-.11,0-.08,0-.15,0-.23Z" style="fill: #f38eba; stroke-width: 0px;"/>
            <path d="m112.98,140.71c.26.91,1.3,3.01,2.15,4.37.87,1.38,2.26,3.24,3.01,3.87-6.32,3.86-13.12,6.44-20.41,7.73-2.7.4-6.13-1.07-6.21-4.2h0c-.09-2.61,2.04-5.04,4.62-5.4,6.03-1.09,11.6-3.2,16.84-6.38Z" style="fill: #79d0ea; stroke-width: 0px;"/>
            <g>
              <path d="m49.53,176.76c-.46-4.28,1.33-8.93,7.8-6.5,2.75,1.04,4.05,1.89,4.38,4.42.64,4.78-2.54,5.24-3.06,4.39-.67,1.13-1.41,2.04-2.7,1.14-1.58.96-2.07-.33-2.56-.85-1.84.97-2.46-.96-2.46-.96,0,0-1.22.08-1.41-1.65Z" style="fill: #faead7; stroke-width: 0px;"/>
              <path d="m59.2,176.82c.16-.11.3-.24.43-.4.06-.08.12-.18.15-.31.01-.07.01-.15-.02-.23-.03-.08-.09-.14-.15-.18-.05-.04-.13-.08-.22-.08-.08,0-.16.01-.23.04-.13.06-.21.14-.28.23-.14.17-.23.35-.3.54-.15.37-.2.76-.19,1.15,0,.39.07.76.14,1.14.01.07.09.12.16.11.07-.01.12-.09.11-.16,0,0,0,0,0,0-.09-.35-.1-.71-.06-1.06.04-.35.11-.7.22-1.02.06-.16.13-.32.22-.44.05-.06.1-.11.14-.13.04-.02.04-.02.08,0,.04.03.04.02.04.07,0,.05-.04.12-.08.19-.08.14-.21.27-.33.39h0c-.05.05-.05.13,0,.17.04.04.11.05.15.01Z" style="fill: #fcd4c4; stroke-width: 0px;"/>
            </g>
            <path d="m60.74,171.96c-.87-.37-3.16-.88-4.76-1.06-1.62-.19-3.95-.27-4.9-.07.95-7.35,3.2-14.26,6.76-20.76,1.38-2.35,4.67-4.11,7.16-2.21h0c2.09,1.56,2.65,4.74,1.32,6.98-2.93,5.38-4.77,11.05-5.58,17.13Z" style="fill: #79d0ea; stroke-width: 0px;"/>
            <path d="m93.29,147.6c0,3.94-3.2,7.14-7.14,7.14-3.16,0-5.83-2.05-6.78-4.89-.94,2.84-3.62,4.89-6.78,4.89-3.94,0-7.14-3.2-7.14-7.14,0-.48.05-.95.14-1.41h27.56c.09.45.14.93.14,1.41Z" style="fill: #fff; stroke-width: 0px;"/>
            <g>
              <path d="m99.78,76.11c-1.25-.98-3.05-.3-4.06.71-.47.47-.77,1.03-.95,1.64-.27-.57-.6-1.11-.98-1.59-.47-.59-1.12-1.02-1.9-.96-.75.06-1.44.5-1.76,1.18-.59,1.27.08,2.78.99,3.72.86.89,2.08,1.44,3.32,1.39.02.04.06.07.1.1.05.4.56.36.83.29,1.74-.45,3.54-1.05,4.64-2.56.84-1.15,1.02-2.94-.22-3.91Z" style="fill: #7d5948; stroke-width: 0px;"/>
              <ellipse cx="38.68" cy="118.01" rx="7.38" ry="8.95" style="fill: #faead7; stroke-width: 0px;"/>
              <path d="m39.16,122.18c0-2.31,1.18-4.18,2.64-4.18.17,0,.33.03.49.07,0-.02,0-.04,0-.06,0-3.61-1.62-6.53-3.62-6.53s-3.62,2.92-3.62,6.53,1.62,6.53,3.62,6.53c.3,0,.59-.07.86-.19-.24-.63-.39-1.38-.39-2.18Z" style="fill: #fcd4c4; stroke-width: 0px;"/>
              <ellipse cx="120.06" cy="118.01" rx="7.38" ry="8.95" style="fill: #faead7; stroke-width: 0px;"/>
              <path d="m119.59,122.18c0-2.31-1.18-4.18-2.64-4.18-.17,0-.33.03-.49.07,0-.02,0-.04,0-.06,0-3.61,1.62-6.53,3.62-6.53s3.62,2.92,3.62,6.53-1.62,6.53-3.62,6.53c-.3,0-.59-.07-.86-.19.24-.63.39-1.38.39-2.18Z" style="fill: #fcd4c4; stroke-width: 0px;"/>
              <path d="m118.88,127.09c0,9.73-12.78,21.95-40.3,21.95-9.39,0-17.01-1.37-22.99-3.55-11.89-4.35-17.31-11.92-17.31-18.4,0-.66,0-1.32.02-1.96.13-5.28.89-9.85,4.29-12.67,0-.03,0-.07,0-.1,0-21.86,18.26-30.5,35.99-30.5s35.99,8.65,35.99,30.5c0,.03,0,.07,0,.1,3.82,3.16,4.31,8.54,4.31,14.63Z" style="fill: #faead7; stroke-width: 0px;"/>
              <g>
                <ellipse cx="95.28" cy="120.13" rx="4.53" ry="3.48" transform="translate(-25.54 214.55) rotate(-89.59)" style="fill: #334577; stroke-width: 0px;"/>
                <ellipse cx="62.73" cy="119.25" rx="4.53" ry="3.48" transform="translate(-56.97 181.13) rotate(-89.59)" style="fill: #334577; stroke-width: 0px;"/>
              </g>
              <path d="m87.71,131.16c0,2.19-.77,4.2-2.06,5.78-1.67,2.05-4.22,3.36-7.07,3.36s-5.4-1.31-7.07-3.36c-1.29-1.57-2.06-3.58-2.06-5.78,0-5.04,18.27-5.04,18.27,0Z" style="fill: #b52450; stroke-width: 0px;"/>
              <path d="m85.65,136.94c-1.67,2.05-4.22,3.36-7.07,3.36s-5.4-1.31-7.07-3.36c1.46-1.84,4.08-3.06,7.07-3.06s5.61,1.22,7.07,3.06Z" style="fill: #ef5ba1; stroke-width: 0px;"/>
              <path d="m91.85,107.62c.52-.85,1.6-1.36,2.53-1.6,1.02-.26,2.1-.19,3.09.16.5.18.51.86-.11.67-.78-.23-1.58-.24-2.36.01-.83.27-1.34.78-1.97,1.33-.31.27-1.46-.12-1.17-.58Z" style="fill: #6f5241; stroke-width: 0px;"/>
              <path d="m118.38,112.16s-.98-7.43-1.96-11.14c-.98-3.71-7.04-21.9-37.8-21.9s-35.91,16.62-37.29,23.56c-1.01,5.08-1.04,3.09,4.08.24.43.93.85,1.85,1.28,2.78.49,1.05,1.65,1.59,2.77,1.35,2.22-.5,4.45-.95,6.69-1.35,1.13-.21,1.98-1.16,2.03-2.32.04-1.56.09-3.11.15-4.67.51,1.47,1.02,2.94,1.52,4.42.38,1.09,1.47,1.75,2.62,1.62,2.25-.27,4.5-.5,6.76-.67,1.14-.09,2.08-.96,2.24-2.1.2-1.54.4-3.09.61-4.63.36,1.51.72,3.03,1.07,4.54.27,1.12,1.29,1.89,2.44,1.87,2.26-.05,4.52-.05,6.79,0,1.15.02,2.17-.75,2.44-1.87.35-1.52.7-3.03,1.07-4.54.21,1.54.41,3.08.61,4.63.16,1.14,1.1,2.01,2.24,2.1,2.26.18,4.51.4,6.76.67,1.14.13,2.23-.53,2.62-1.62.49-1.46.99-2.92,1.5-4.37,0,0,.01,0,.02.01.06,1.54.11,3.07.15,4.61.04,1.15.9,2.11,2.03,2.32,2.24.4,4.47.85,6.69,1.35.82.18,1.66-.06,2.24-.61,4.64,3.35,7.65,5.72,7.65,5.72Z" style="fill: #7d5948; stroke-width: 0px;"/>
              <g style="mask: url(#mask);">
                <path d="m63.76,132.83c0,5.64-3.36,10.49-8.18,12.67-11.89-4.35-17.31-11.92-17.31-18.4,0-.66,0-1.32.02-1.96,2.49-3.74,6.74-6.2,11.57-6.2,7.67,0,13.89,6.22,13.89,13.9Z" style="fill: url(#radial-gradient-2); mix-blend-mode: multiply; opacity: .5; stroke-width: 0px;"/>
              </g>
              <g style="mask: url(#mask-2);">
                <path d="m93.68,132.83c0,5.64,3.36,10.49,8.18,12.67,11.89-4.35,17.31-11.92,17.31-18.4,0-.66,0-1.32-.02-1.96-2.49-3.74-6.74-6.2-11.57-6.2-7.67,0-13.89,6.22-13.89,13.9Z" style="fill: url(#radial-gradient-4); mix-blend-mode: multiply; opacity: .5; stroke-width: 0px;"/>
              </g>
              <path d="m65.01,106.33c-.59-.79-1.72-1.21-2.67-1.36-1.04-.17-2.1,0-3.06.45-.48.22-.43.9.17.66.75-.31,1.55-.39,2.35-.2.85.19,1.41.65,2.09,1.14.33.24,1.44-.25,1.11-.69Z" style="fill: #6f5241; stroke-width: 0px;"/>
            </g>
            <g>
              <circle cx="79.37" cy="64.16" r="2.29" style="fill: #efb41d; stroke-width: 0px;"/>
              <path d="m118.46,95.85c0,3.77-.81,7.39-2.3,10.74-3.48-5.86-10.76-10.64-20.07-13.28-5.07-1.44-10.73-2.24-16.71-2.24s-11.65.8-16.71,2.24c-9.31,2.64-16.6,7.42-20.07,13.28-1.49-3.35-2.3-6.97-2.3-10.74,0-1.79.18-3.55.54-5.27.13-.64.28-1.26.46-1.89.13-.47.28-.95.44-1.41,4.41-12.77,18.44-22.28,35.35-23.07.76-.04,1.52-.05,2.29-.05s1.53.02,2.29.05c16.91.79,30.94,10.3,35.35,23.07.16.47.31.94.44,1.41.18.62.33,1.25.46,1.89.36,1.71.54,3.47.54,5.27Z" style="fill: #ffd150; stroke-width: 0px;"/>
              <path d="m63.23,87.28c.16-1.07.35-2.12.56-3.14.12-.58.25-1.14.39-1.7,2.37-9.57,7.18-16.53,12.93-18,.74-.19,1.5-.29,2.27-.29s1.53.1,2.27.29c5.74,1.47,10.56,8.43,12.93,18,.14.56.27,1.13.39,1.7.22,1.02.4,2.07.56,3.14" style="fill: none; stroke: #efb41d; stroke-miterlimit: 10; stroke-width: .83px;"/>
              <path d="m127.81,100.33c0,.28-.01.55-.05.82-.43,3.92-3.95,7.54-9.64,10.48-.34-1.75-1.01-3.44-1.96-5.05-3.48-5.86-10.76-10.64-20.07-13.28-5.07-1.44-10.73-2.24-16.71-2.24s-11.65.8-16.71,2.24c-9.31,2.64-16.6,7.42-20.07,13.28-.96,1.61-1.62,3.3-1.97,5.05-5.69-2.94-9.21-6.55-9.64-10.48-.03-.27-.05-.55-.05-.82,0-4.39,3.87-8.43,10.35-11.64.15-.07.29-.15.44-.22,5.78-2.77,13.54-4.89,22.44-6.03,4.78-.61,9.89-.95,15.2-.95s10.42.33,15.2.95c8.9,1.14,16.67,3.26,22.44,6.03.15.07.3.14.44.22,6.49,3.2,10.35,7.24,10.35,11.64Z" style="fill: #fcc853; stroke-width: 0px;"/>
              <path d="m127.81,101.99c0,4.19-3.52,8.06-9.47,11.19-.04-.52-.12-1.03-.22-1.54-.34-1.75-1.01-3.44-1.96-5.05-3.48-5.86-10.76-10.64-20.07-13.28-5.07-1.44-10.73-2.24-16.71-2.24s-11.65.8-16.71,2.24c-9.31,2.64-16.6,7.42-20.07,13.28-.96,1.61-1.62,3.3-1.97,5.05-.1.51-.17,1.02-.22,1.54-5.95-3.13-9.47-7-9.47-11.19,0-.28.01-.55.05-.83.44-3.97,4.04-7.62,9.84-10.57.3-.15.6-.3.91-.45,5.69-2.73,13.31-4.83,22.05-5.98,4.89-.65,10.13-1,15.59-1s10.7.35,15.59,1c8.74,1.15,16.36,3.25,22.06,5.98.31.15.61.3.91.45,5.8,2.96,9.4,6.61,9.84,10.57.03.28.05.55.05.83Z" style="fill: #efb41d; stroke-width: 0px;"/>
            </g>
            <g>
              <path d="m113.94,145.36s-1.85-1.12-1.06-5.96c.8-4.83,1.09-6.31,3.06-6.31,1.97,0,.69,4.6.69,4.6,0,0,2.7-2.58,3.78-5.69,1.08-3.11,2.57-2.62,2.94-.19.37,2.44-2.75,6.63-2.75,6.63,0,0,3.43-4.33,4.11-5.97.68-1.65,3.16-.09,2.16,2.85-1,2.93-3.25,5.09-3.25,5.09,0,0,3.46-2.63,3.94-4.76.47-2.13,3.72-.88,2.07,2.51-1.65,3.39-3.61,5.55-3.61,5.55,0,0,2.17-3.58,3.06-2.97,2.33,1.6-8.24,14.46-15.15,4.6Z" style="fill: #faead7; stroke-width: 0px;"/>
              <path d="m117.39,138.11c.19,0,.45.05.68.11.24.06.47.16.69.26.45.21.88.48,1.29.79.41.3.78.65,1.15,1.01l.52.56.49.59h0c.06.08.17.09.24.03.07-.06.08-.17.03-.24l-.49-.62-.52-.6c-.37-.38-.74-.76-1.16-1.09-.41-.34-.86-.64-1.35-.88-.24-.12-.49-.23-.76-.31-.27-.08-.52-.15-.85-.16-.15,0-.28.11-.28.26s.11.28.26.28c0,0,0,0,0,0h.03Z" style="fill: #fcd4c4; stroke-width: 0px;"/>
            </g>
          </g>
          <g>
            <polygon points="177.63 201.43 171.58 199.76 172.85 184.31 182.08 186.85 177.63 201.43" style="fill: #faead7; stroke-width: 0px;"/>
            <path d="m171.18,201.74l6.22,1.71,2.09-7.6s-3.24-.13-7.6-2.09c-.39,1.41-.72,7.97-.72,7.97Z" style="fill: #e2e2e4; stroke-width: 0px;"/>
            <path d="m166.78,203.6l10.01,2.75c.31.09.63-.1.72-.41l.07-.27c.97-3.51-1.12-7.17-4.63-8.14h0c-2.96-.81-6.02.93-6.83,3.88l-.19.69c-.18.65.2,1.31.85,1.49Z" style="fill: #594a42; stroke-width: 0px;"/>
            <g>
              <path d="m172.36,196.32s-.06-.05-.06-.09l.19-1.79s.04-.08.09-.07c.04,0,.08.04.07.09l-.19,1.79s-.04.08-.09.07c0,0,0,0-.01,0Z" style="fill: #fbfbf5; stroke-width: 0px;"/>
              <path d="m172.96,196.67s-.06-.05-.06-.09l.23-1.8s.05-.07.09-.07c.04,0,.07.05.07.09l-.23,1.8s-.05.07-.09.07c0,0,0,0-.01,0Z" style="fill: #fbfbf5; stroke-width: 0px;"/>
              <path d="m173.61,196.87s-.06-.05-.06-.09l.26-1.82s.05-.07.09-.07c.04,0,.07.05.07.09l-.26,1.82s-.05.07-.09.07c0,0,0,0,0,0Z" style="fill: #fbfbf5; stroke-width: 0px;"/>
              <path d="m174.25,197.07s-.06-.05-.06-.09l.3-1.83s.05-.07.09-.07c.04,0,.07.05.07.09l-.3,1.83s-.05.07-.09.07c0,0,0,0,0,0Z" style="fill: #fbfbf5; stroke-width: 0px;"/>
              <path d="m174.9,197.26s-.06-.05-.06-.09l.34-1.84s.05-.07.09-.06c.05,0,.07.05.06.09l-.34,1.84s-.05.07-.09.06c0,0,0,0,0,0Z" style="fill: #fbfbf5; stroke-width: 0px;"/>
              <path d="m175.55,197.46s-.07-.05-.06-.09l.37-1.85s.05-.07.09-.06c.04.01.07.05.06.09l-.37,1.85s-.05.07-.09.06c0,0,0,0,0,0Z" style="fill: #fbfbf5; stroke-width: 0px;"/>
              <path d="m176.19,197.66s-.07-.05-.06-.09l.41-1.86s.05-.07.09-.06c.04.01.07.05.06.09l-.41,1.86s-.05.07-.09.06c0,0,0,0,0,0Z" style="fill: #fbfbf5; stroke-width: 0px;"/>
              <path d="m176.84,197.86s-.07-.05-.06-.1l.45-1.87s.05-.07.1-.06c.04,0,.07.05.06.1l-.45,1.87s-.05.07-.1.06c0,0,0,0,0,0Z" style="fill: #fbfbf5; stroke-width: 0px;"/>
              <path d="m177.49,198.06s-.07-.05-.06-.1l.48-1.88s.05-.07.1-.06c.05.02.07.05.06.1l-.48,1.88s-.05.07-.1.06c0,0,0,0,0,0Z" style="fill: #fbfbf5; stroke-width: 0px;"/>
              <path d="m178.33,198.15s-.07-.06-.06-.1l.52-1.89s.06-.07.1-.06c.04.01.07.06.06.1l-.52,1.89s-.06.07-.1.06Z" style="fill: #fbfbf5; stroke-width: 0px;"/>
            </g>
            <polygon points="211.4 190.56 207 195.03 194.12 186.41 200.83 179.58 211.4 190.56" style="fill: #faead7; stroke-width: 0px;"/>
            <path d="m208.53,196.34l4.52-4.61-5.62-5.52s-1.69,2.76-5.52,5.62c1.04,1.02,6.62,4.5,6.62,4.5Z" style="fill: #e2e2e4; stroke-width: 0px;"/>
            <path d="m208.07,202.54l7.69-9.33c.23-.23.22-.6,0-.83l-.2-.2c-2.6-2.55-6.67-3.12-8.93-.31-.31.38-.85,2.32-.85,2.32-2.15,2.19-2.12,5.71.07,7.86l.51.5c.48.47,1.25.46,1.71-.02Z" style="fill: #594a42; stroke-width: 0px;"/>
            <g>
              <path d="m204.37,192.68s-.07.03-.1,0l-1.47-1.04s-.04-.07-.02-.11c.03-.04.07-.04.11-.02l1.47,1.04s.04.07.02.11c0,0,0,0,0,0Z" style="fill: #fbfbf5; stroke-width: 0px;"/>
              <path d="m204.97,192.32s-.07.03-.1,0l-1.47-1.08s-.04-.08-.02-.11c.03-.03.08-.04.11-.02l1.47,1.08s.04.08.02.11c0,0,0,0,0,0Z" style="fill: #fbfbf5; stroke-width: 0px;"/>
              <path d="m205.46,191.85s-.07.03-.1,0l-1.46-1.11s-.04-.08-.01-.11c.03-.04.08-.04.11-.01l1.46,1.11s.04.08.01.11c0,0,0,0,0,0Z" style="fill: #fbfbf5; stroke-width: 0px;"/>
              <path d="m205.95,191.38s-.07.03-.11,0l-1.45-1.15s-.04-.08-.01-.11c.03-.03.08-.04.11-.01l1.45,1.15s.04.08.01.11c0,0,0,0,0,0Z" style="fill: #fbfbf5; stroke-width: 0px;"/>
              <path d="m206.43,190.91s-.08.03-.11,0l-1.44-1.19s-.04-.08-.01-.11c.03-.04.08-.04.11-.01l1.44,1.19s.04.08.01.11c0,0,0,0,0,0Z" style="fill: #fbfbf5; stroke-width: 0px;"/>
              <path d="m206.92,190.45s-.08.03-.11,0l-1.43-1.23s-.04-.08,0-.11c.03-.03.08-.04.11,0l1.43,1.23s.04.08,0,.11c0,0,0,0,0,0Z" style="fill: #fbfbf5; stroke-width: 0px;"/>
              <path d="m207.41,189.98s-.08.03-.11,0l-1.42-1.26s-.04-.08,0-.11c.03-.03.08-.04.11,0l1.42,1.26s.04.08,0,.11c0,0,0,0,0,0Z" style="fill: #fbfbf5; stroke-width: 0px;"/>
              <path d="m207.9,189.51s-.08.03-.11,0l-1.42-1.3s-.03-.08,0-.11c.03-.03.08-.03.11,0l1.42,1.3s.03.08,0,.11c0,0,0,0,0,0Z" style="fill: #fbfbf5; stroke-width: 0px;"/>
              <path d="m208.39,189.04s-.08.03-.11,0l-1.41-1.34s-.03-.08,0-.11c.04-.03.08-.03.11,0l1.41,1.34s.03.08,0,.11c0,0,0,0,0,0Z" style="fill: #fbfbf5; stroke-width: 0px;"/>
              <path d="m208.87,188.35s-.08.03-.11,0l-1.4-1.37s-.03-.08,0-.11c.03-.03.08-.03.11,0l1.4,1.37s.03.08,0,.11Z" style="fill: #fbfbf5; stroke-width: 0px;"/>
            </g>
            <path d="m205.4,184.14c-.09,1.07-7.95,3.73-17.56,5.98-9.61,2.25-17.84,3.36-18.39,2.44-.04-.06-.55-14.79-.55-14.79l30.43-7.13s6.08,13.42,6.07,13.49Z" style="fill: #f9c0c6; stroke-width: 0px;"/>
            <path d="m202.76,176.17c-.32,1.93-9.56,7.25-19.15,7.25s-17.62-1.52-17.94-3.45c-.02-.13,2.75-27.56,2.75-27.56h30.37s3.99,23.63,3.97,23.76Z" style="fill: #f9cadb; stroke-width: 0px;"/>
            <path d="m196.12,164.06c0-1.64-.83-2.97-1.86-2.97-.63,0-1.18.5-1.52,1.25-.34-.76-.89-1.25-1.52-1.25s-1.18.5-1.52,1.25c-.34-.76-.89-1.25-1.52-1.25-1.03,0-1.86,1.33-1.86,2.97,0,.08,0,.15,0,.22,0,.04,0,.07,0,.11,0,2.7,2.19,4.89,4.89,4.89s4.89-2.19,4.89-4.89c0-.04,0-.07,0-.11,0-.07,0-.15,0-.22Z" style="fill: #f38eba; stroke-width: 0px;"/>
            <path d="m150.75,146.07c-.28.88-1.35,2.9-2.22,4.2-.88,1.32-2.3,3.1-3.05,3.68,6.05,3.94,12.6,6.65,19.67,8.12,2.62.47,6-.87,6.17-3.91h0c.17-2.54-1.84-4.97-4.34-5.39-5.84-1.23-11.21-3.45-16.23-6.7Z" style="fill: #f9cadb; stroke-width: 0px;"/>
            <path d="m195.46,153.64c0,3.84-3.12,6.96-6.96,6.96-3.08,0-5.68-2-6.6-4.76-.92,2.77-3.53,4.76-6.6,4.76-3.84,0-6.96-3.12-6.96-6.96,0-.47.05-.93.13-1.37h26.85c.09.44.14.9.14,1.37Z" style="fill: #fff; stroke-width: 0px;"/>
            <path d="m148.67,111.34s-12.36,19.81-7.49,33.33c.4,1.12,1.98,1.14,2.41.03l1.67-4.29s.21,2.89,1.42,5.69c.49,1.13,2.13,1,2.43-.19l1.29-5.09s-.07,2.91,1.07,5.74c.46,1.12,2.08,1.03,2.42-.13l1.54-5.22,2.27-29.16-9.05-.7Z" style="fill: #6f5241; stroke-width: 0px;"/>
            <path d="m220.8,116.95s8.97,21.09,2.43,33.74c-.61,1.18-2.37.95-2.66-.35l-.91-4.13s-.59,2.56-2.06,5.03c-.7,1.18-2.51.77-2.64-.6l-.45-4.83s-.34,2.6-1.72,5.11c-.66,1.2-2.48.85-2.66-.51l-.66-4.99,2.27-29.16,9.05.7Z" style="fill: #6f5241; stroke-width: 0px;"/>
            <ellipse cx="144.91" cy="121.74" rx="8.72" ry="7.2" transform="translate(12.3 256.77) rotate(-85.55)" style="fill: #faead7; stroke-width: 0px;"/>
            <path d="m145.06,125.82c.17-2.24,1.47-3.98,2.88-3.86.16.01.32.05.47.11,0-.02,0-.04,0-.05.27-3.51-1.08-6.47-3.02-6.62-1.94-.15-3.73,2.57-4.01,6.07-.27,3.51,1.08,6.47,3.02,6.62.29.02.58-.02.85-.12-.19-.63-.27-1.37-.21-2.15Z" style="fill: #fcd4c4; stroke-width: 0px;"/>
            <ellipse cx="223.99" cy="127.89" rx="8.72" ry="7.2" transform="translate(79.1 341.28) rotate(-85.55)" style="fill: #faead7; stroke-width: 0px;"/>
            <path d="m223.21,131.9c.17-2.24-.83-4.15-2.25-4.26-.16-.01-.33,0-.49.03,0-.02,0-.04,0-.05.27-3.51,2.07-6.22,4.01-6.07,1.94.15,3.29,3.11,3.02,6.62-.27,3.51-2.07,6.22-4.01,6.07-.29-.02-.57-.11-.83-.25.29-.6.48-1.31.54-2.09Z" style="fill: #fcd4c4; stroke-width: 0px;"/>
            <path d="m222.14,136.62c-.74,9.46-14.08,20.37-40.82,18.28-9.13-.71-16.43-2.62-22.07-5.19-11.23-5.12-15.92-12.9-15.43-19.19.05-.64.11-1.28.17-1.9.52-5.12,1.61-9.51,5.13-11.99,0-.03,0-.06,0-.1,1.65-21.24,20.05-28.26,37.27-26.92,17.23,1.34,34.31,11.12,32.66,32.36,0,.03,0,.07,0,.1,3.47,3.36,3.55,8.62,3.08,14.54Z" style="fill: #faead7; stroke-width: 0px;"/>
            <ellipse cx="160.68" cy="124.72" rx="3.39" ry="4.62" style="fill: #334577; stroke-width: 0px;"/>
            <path d="m183.97,137.98c-.17,2.13-1.07,4.03-2.44,5.46-1.78,1.86-4.36,2.94-7.13,2.73-2.77-.22-5.15-1.68-6.62-3.8-1.13-1.63-1.73-3.64-1.56-5.77.38-4.9,18.13-3.52,17.75,1.38Z" style="fill: #b52450; stroke-width: 0px;"/>
            <path d="m181.53,143.44c-1.78,1.86-4.36,2.94-7.13,2.73-2.77-.22-5.15-1.68-6.62-3.8,1.56-1.67,4.2-2.67,7.1-2.44,2.91.23,5.36,1.61,6.64,3.51Z" style="fill: #ef5ba1; stroke-width: 0px;"/>
            <path d="m189.77,115.42c.57-.78,1.66-1.2,2.58-1.36,1.01-.18,2.05-.02,2.99.39.47.21.43.87-.16.65-.74-.29-1.52-.35-2.29-.17-.82.2-1.36.66-2.02,1.15-.32.24-1.41-.23-1.1-.65Z" style="fill: #6f5241; stroke-width: 0px;"/>
            <path d="m149.79,117.21c-.74,4.03-1.23,8.14-1.69,12.24-.15,1.34-.53,5.2-1.14,5.25-.66.06-1.36-3.99-1.48-5.27-.42-4.31-.11-8.7.66-12.89.77-4.19,2.04-8.4,3.97-12.28.57-1.15,2.7-4.67,3.26-4.4.58.28-.46,4-.8,5.31-1.03,3.99-2.04,8-2.78,12.04Z" style="fill: #6f5241; stroke-width: 0px;"/>
            <path d="m219.09,121.18c.66,4.05,1.06,8.16,1.43,12.27.12,1.35.42,5.21,1.03,5.27.65.07,1.44-3.96,1.59-5.24.51-4.3.29-8.69-.39-12.9-.68-4.21-1.87-8.44-3.71-12.36-.55-1.16-2.6-4.72-3.17-4.46-.59.27.38,4.01.69,5.33.95,4.01,1.87,8.04,2.52,12.09Z" style="fill: #6f5241; stroke-width: 0px;"/>
            <path d="m205.42,102.19s-3.67,10.39-16.49,12.94c-12.81,2.55-10.93.41-10.93.41l4.71-4.03s-12.16,5.87-22.84,3.35l5.01-5.12s-12.77,6.84-21.13,6.19c0,0,3.02-2.25,4.89-8.89,1.86-6.64,8.13-22.4,38.01-20.07,29.89,2.33,34.4,20.45,35.07,24.13.67,3.68,1.06,10.98,1.06,10.98,0,0-13.09-8.66-17.37-19.89Z" style="fill: #7d5948; stroke-width: 0px;"/>
            <g style="mask: url(#mask-4);">
              <path d="m168.16,138.03c-.43,5.48-4.05,9.94-8.9,11.69-11.23-5.12-15.92-12.9-15.43-19.19.05-.64.11-1.28.17-1.9,2.7-3.44,7.02-5.52,11.71-5.15,7.46.58,13.03,7.1,12.45,14.55Z" style="fill: url(#radial-gradient-6); mix-blend-mode: multiply; opacity: .5; stroke-width: 0px;"/>
            </g>
            <g style="mask: url(#mask-6);">
              <path d="m197.23,140.29c-.43,5.48,2.47,10.45,6.99,12.93,11.89-3.32,17.72-10.28,18.21-16.57.05-.64.09-1.28.13-1.91-2.14-3.82-6.08-6.54-10.77-6.9-7.46-.58-13.97,4.99-14.55,12.45Z" style="fill: url(#radial-gradient-8); mix-blend-mode: multiply; opacity: .5; stroke-width: 0px;"/>
            </g>
            <path d="m163.79,112.13c-.52-.82-1.58-1.3-2.49-1.52-1-.24-2.04-.15-3.01.2-.48.18-.48.84.12.65.75-.24,1.54-.26,2.3-.02.81.25,1.32.74,1.94,1.27.31.26,1.42-.14,1.13-.58Z" style="fill: #6f5241; stroke-width: 0px;"/>
            <path d="m231.96,96.38c-2.52-4.8-4.76-7.96-6.44-9.98-2.49-3.79-7.23-5.71-11.82-4.4-5.65,1.61-8.93,7.5-7.32,13.16.81,2.85,2.71,5.09,5.12,6.41h0c11.65,18.24,31.92,6.06,31.92,6.06,0,0-6-.86-11.45-11.26Z" style="fill: #7d5948; stroke-width: 0px;"/>
            <g>
              <circle cx="189" cy="70.91" r="2.23" style="fill: #efb41d; stroke-width: 0px;"/>
              <path d="m224.58,104.66c-.29,3.66-1.35,7.11-3.05,10.26-2.93-5.96-9.65-11.15-18.5-14.42-4.81-1.78-10.26-2.99-16.07-3.44s-11.38-.1-16.41.92c-9.25,1.86-16.69,5.96-20.51,11.38-1.19-3.37-1.71-6.94-1.42-10.61.14-1.74.45-3.44.92-5.08.17-.61.37-1.21.59-1.8.17-.45.35-.9.54-1.34,5.25-12.07,19.6-20.26,36.1-19.75.74.02,1.48.06,2.23.12s1.49.13,2.22.23c16.37,2.05,29.29,12.35,32.61,25.09.12.47.23.93.32,1.4.13.62.23,1.24.31,1.87.22,1.69.26,3.42.13,5.16Z" style="fill: #ffd150; stroke-width: 0px;"/>
              <path d="m171.56,92.16c.23-1.03.5-2.03.78-3,.16-.55.33-1.09.51-1.63,3.02-9.12,8.23-15.52,13.92-16.51.74-.13,1.48-.17,2.23-.11s1.48.21,2.19.45c5.47,1.86,9.62,8.99,11.2,18.47.09.55.17,1.11.25,1.68.13,1.01.23,2.04.31,3.09" style="fill: none; stroke: #efb41d; stroke-miterlimit: 10; stroke-width: .83px;"/>
              <path d="m233.33,109.72c-.02.27-.06.53-.11.8-.72,3.78-4.41,7.02-10.16,9.45-.2-1.73-.72-3.42-1.53-5.05-2.93-5.96-9.65-11.15-18.5-14.42-4.81-1.78-10.26-2.99-16.07-3.44s-11.38-.1-16.41.92c-9.25,1.86-16.69,5.96-20.51,11.38-1.05,1.49-1.83,3.08-2.29,4.75-5.3-3.29-8.45-7.06-8.57-10.91,0-.27,0-.54.02-.8.33-4.27,4.39-7.9,10.94-10.52.15-.06.3-.12.45-.18,5.82-2.26,13.53-3.73,22.26-4.17,4.69-.24,9.68-.17,14.84.23,5.16.4,10.1,1.11,14.69,2.07,8.57,1.78,15.95,4.43,21.35,7.56.14.08.28.16.41.24,6.06,3.6,9.51,7.82,9.18,12.09Z" style="fill: #fcc853; stroke-width: 0px;"/>
              <path d="m233.2,111.33c-.32,4.07-4.03,7.57-10.05,10.16,0-.51-.04-1.01-.09-1.51-.2-1.73-.72-3.42-1.53-5.05-2.93-5.96-9.65-11.15-18.5-14.42-4.81-1.78-10.26-2.99-16.07-3.44s-11.38-.1-16.41.92c-9.25,1.86-16.69,5.96-20.51,11.38-1.05,1.49-1.83,3.08-2.29,4.75-.14.49-.24.98-.33,1.48-5.55-3.49-8.67-7.52-8.35-11.59.02-.27.06-.54.11-.8.73-3.82,4.5-7.09,10.36-9.53.3-.13.6-.25.91-.37,5.74-2.22,13.3-3.69,21.88-4.15,4.8-.26,9.92-.2,15.22.21,5.3.41,10.37,1.15,15.07,2.15,8.41,1.78,15.65,4.4,20.98,7.48.29.17.57.33.85.51,5.41,3.31,8.63,7.13,8.76,11.02,0,.27,0,.54-.02.81Z" style="fill: #efb41d; stroke-width: 0px;"/>
            </g>
            <g>
              <path d="m150.03,150.15s1.66-1.31.3-5.89c-1.36-4.58-1.82-5.97-3.73-5.73-1.91.24-.11,4.54-.11,4.54,0,0-2.92-2.17-4.35-5.04-1.43-2.87-2.8-2.23-2.86.18-.06,2.4,3.47,6.08,3.47,6.08,0,0-3.84-3.77-4.7-5.28-.86-1.51-3.07.3-1.74,3.02,1.32,2.72,3.76,4.53,3.76,4.53,0,0-3.67-2.12-4.38-4.13-.72-2.01-3.7-.4-1.7,2.68,2.01,3.08,4.17,4.93,4.17,4.93,0,0-2.53-3.2-3.32-2.5-2.06,1.83,9.73,12.98,15.2,2.61Z" style="fill: #faead7; stroke-width: 0px;"/>
              <path d="m145.81,143.56c-.18.02-.43.1-.64.19-.22.09-.43.21-.64.33-.41.26-.8.57-1.15.92-.36.34-.68.73-.99,1.12l-.44.61-.41.63h0c-.05.09-.15.11-.23.06-.08-.05-.1-.15-.05-.23l.39-.66.43-.64c.31-.41.62-.82.99-1.19.36-.37.75-.72,1.19-1.02.22-.15.45-.28.7-.39.25-.11.48-.21.8-.26.14-.02.28.08.3.22.02.14-.08.28-.22.3,0,0,0,0,0,0h-.03Z" style="fill: #fcd4c4; stroke-width: 0px;"/>
            </g>
            <path d="m211.66,140.49c.51.77,2.1,2.41,3.3,3.42,1.22,1.03,3.07,2.34,3.95,2.69-4.72,5.46-10.26,9.87-16.65,13.25-2.38,1.17-6,.83-7.01-2.05h0c-.86-2.39.39-5.28,2.68-6.38,5.27-2.8,9.82-6.42,13.74-10.93Z" style="fill: #f9cadb; stroke-width: 0px;"/>
            <g>
              <path d="m213.48,144.21s-1.95-.8-1.92-5.58c.04-4.78.1-6.24,2-6.54,1.9-.29,1.36,4.33,1.36,4.33,0,0,2.21-2.89,2.78-6.05.58-3.15,2.08-2.91,2.8-.62.72,2.29-1.65,6.8-1.65,6.8,0,0,2.65-4.68,3.05-6.37.4-1.69,3.03-.56,2.51,2.42-.52,2.98-2.36,5.4-2.36,5.4,0,0,2.94-3.05,3.07-5.18.13-2.13,3.45-1.41,2.37,2.11-1.07,3.52-2.64,5.89-2.64,5.89,0,0,1.55-3.78,2.5-3.32,2.48,1.19-5.75,15.17-13.89,6.72Z" style="fill: #faead7; stroke-width: 0px;"/>
              <path d="m215.71,136.7c.18-.03.44-.02.67,0,.24.03.47.08.71.14.47.13.92.33,1.36.56.44.23.85.51,1.26.8l.59.46.57.5h0c.07.07.18.06.24-.01.06-.07.05-.17-.01-.23l-.56-.53-.59-.5c-.41-.31-.83-.62-1.28-.87-.45-.26-.92-.49-1.43-.64-.25-.08-.51-.15-.78-.18-.27-.04-.52-.07-.84-.03-.15.02-.25.15-.23.3s.15.25.3.23c0,0,0,0,0,0h.03Z" style="fill: #fcd4c4; stroke-width: 0px;"/>
            </g>
            <path d="m196.95,128.33c-.07-.02-.17-.05-.25-.07-.09-.03-.18-.05-.27-.07-.18-.04-.37-.09-.55-.13-.37-.08-.74-.13-1.12-.17-.37-.03-.74-.05-1.11-.04-.37.01-.73.05-1.09.1-.72.12-1.4.34-2.07.64-.66.32-1.3.71-1.94,1.17h-.01c-.27.2-.65.14-.85-.14-.16-.22-.14-.51,0-.71.53-.71,1.21-1.32,1.99-1.8.78-.47,1.68-.8,2.59-.94.91-.14,1.85-.11,2.73.07.44.09.88.22,1.29.38.21.08.41.17.61.28.1.05.2.1.3.16.1.06.19.11.31.19.28.19.35.56.16.83-.14.21-.4.3-.63.25l-.1-.02Z" style="fill: #334577; stroke-width: 0px;"/>
            <g>
              <path d="m202.07,169.81l-4.09.47c-.77.09-1.46.38-2.04.81-8.06-2.84-15.37-7.58-21.53-13.59-2.31-2.25-2.57-2.28-4.51-4.85-1.07-1.42-6.37-1.58-5.48-.03,5.99,10.31,15.7,17.8,26.76,22.03,1.04.4,2.09.76,3.15,1.09l.38,3.34c.27,2.33,2.37,4,4.7,3.74l4.09-.47c2.33-.27,4-2.37,3.74-4.7l-.47-4.09c-.27-2.33-2.37-4-4.7-3.74Z" style="fill: #fcc853; stroke-width: 0px;"/>
              <path d="m194.32,175.73s1.86.6,2.53.52c0,0,.07,3.44,1.66,4.96,1.59,1.52-1.61,1.61-2.67-.04-1.06-1.65-1.52-5.44-1.52-5.44Z" style="fill: #efb41d; stroke-width: 0px;"/>
              <path d="m203.3,175.25c.05.44-.27.84-.71.89-.44.05-.84-.27-.89-.71-.05-.44.27-.84.71-.89.44-.05.84.27.89.71Z" style="fill: #efb41d; stroke-width: 0px;"/>
              <polygon points="202.83 178.04 198.28 176.88 198.41 176.37 202.73 177.48 205.91 175.18 206.21 175.6 202.83 178.04" style="fill: #efb41d; stroke-width: 0px;"/>
            </g>
          </g>
        </g>
      </g>
    </g>
  </g>
</svg>