<?xml version="1.0" encoding="UTF-8"?>
<svg id="_圖層_2" data-name="圖層 2" xmlns="http://www.w3.org/2000/svg" width="264.42" height="264.43" viewBox="0 0 264.42 264.43">
  <g id="_圖層_8" data-name="圖層 8">
    <g id="exploration5">
      <g>
        <path d="m132.21,0c-1.93,0-3.89.04-5.82.13l.42,9.7c1.43-.06,2.87-.1,4.31-.11h0s.03,0,.05,0h.05s0,0,0,0c.06,0,.13,0,.19,0,0,0,0,0,0,0,.01,0,.03,0,.04,0h.01s.03,0,.04,0h0s.03,0,.05,0h0s.07,0,.1,0h0s.03,0,.04,0h.05s0,0,.01,0c.01,0,.02,0,.03,0,0,0,0,0,.02,0,.01,0,.02,0,.04,0h0s.06,0,.1,0h.01s.02,0,.03,0c0,0,0,0,.02,0h.03s0,0,.02,0h.05s.02,0,.03,0h.06V0h0Zm-9.3.32c-1.93.13-3.88.31-5.8.53l1.1,9.65c.39-.04.77-.09,1.16-.13,0,0,0,0,.01,0,0,0,.02,0,.03,0,0,0,.01,0,.02,0,0,0,.02,0,.02,0h.02s.02,0,.02,0c.05,0,.09,0,.14-.01h0s.03,0,.04,0h0s.03,0,.04,0h0c1.28-.13,2.56-.24,3.85-.33l-.67-9.69h0Zm-9.26.97c-1.92.27-3.85.59-5.75.94l1.78,9.55c1.76-.33,3.54-.62,5.33-.87l-1.35-9.62h0Zm-9.18,1.62c-1.89.4-3.8.86-5.67,1.34l2.45,9.4c.29-.08.58-.15.88-.23,0,0,.01,0,.02,0h.02s.02,0,.03-.01h0s.03,0,.04-.01h0s.03,0,.04-.01h0c.93-.23,1.87-.46,2.81-.67,0,0,0,0,.01,0,.01,0,.02,0,.03,0,0,0,0,0,.01,0,.01,0,.02,0,.03,0,0,0,0,0,.02,0,0,0,.02,0,.02,0s.01,0,.02,0h.02s.02,0,.03-.01c0,0,0,0,0,0,.4-.09.79-.18,1.19-.26l-2.03-9.5h0Zm-9.04,2.27c-1.86.54-3.73,1.12-5.56,1.74l3.11,9.2c.41-.14.82-.28,1.24-.41h0s.05-.02.08-.03c0,0,0,0,.01,0,.01,0,.03,0,.04-.01.01,0,.03-.01.05-.01.01,0,.03,0,.04-.01,0,0,.02,0,.03-.01.02,0,.03-.01.05-.02.01,0,.02,0,.03-.01h.05s.03-.02.04-.03c0,0,.02,0,.03,0,.02,0,.04-.01.06-.02,0,0,.02,0,.02,0,.02,0,.04-.01.06-.02,0,0,.01,0,.02,0,.02,0,.04-.01.06-.02,0,0,.01,0,.02,0,.02,0,.04-.01.06-.02,0,0,0,0,0,0,.02,0,.05-.02.07-.02,0,0,0,0,0,0,.03,0,.05-.01.07-.02,0,0,0,0,0,0,.02,0,.05-.02.07-.02,0,0,0,0,0,0,.96-.3,1.93-.6,2.91-.88l-2.7-9.33h0Zm-8.86,2.91c-1.81.67-3.64,1.38-5.42,2.13l3.75,8.96c.97-.4,1.94-.8,2.92-1.18h0s.05-.02.08-.03c0,0,.01,0,.02,0,.02,0,.04-.02.06-.02,0,0,.02,0,.03,0,.02,0,.04-.01.05-.02.01,0,.02,0,.03-.01.01,0,.02,0,.03-.01.01,0,.04-.01.05-.02.01,0,.02,0,.03-.01.02,0,.04-.01.05-.02h.02s.03-.02.05-.03c0,0,.01,0,.02,0,.02,0,.04-.01.06-.02,0,0,.01,0,.02,0,.02,0,.04-.02.07-.03,0,0,0,0,.01,0,.02,0,.05-.02.07-.03,0,0,0,0,.01,0,.03,0,.05-.02.07-.03,0,0,0,0,0,0,.42-.16.84-.32,1.26-.47l-3.35-9.12h0Zm-8.63,3.53c-1.76.79-3.53,1.64-5.26,2.51l4.38,8.67c.41-.21.83-.42,1.25-.62h0s.05-.03.08-.04h0s.08-.04.12-.06h0s.05-.03.07-.04c0,0,.01,0,.02,0,.02,0,.04-.02.06-.03,0,0,.01,0,.02-.01.02,0,.04-.02.06-.03.01,0,.01,0,.03-.01.02,0,.04-.02.06-.03,0,0,.02,0,.02-.01.01,0,.03-.01.04-.02.01,0,.03-.01.04-.02.01,0,.03-.01.04-.02.01,0,.02,0,.03-.01.02,0,.03-.02.05-.02.01,0,.02,0,.03-.01.02,0,.03-.01.05-.02.01,0,.02,0,.03-.01.02,0,.03-.02.05-.02,0,0,.02,0,.03-.01.01,0,.02-.01.04-.02.01,0,.03-.01.04-.02.01,0,.03-.01.04-.02,0,0,.02,0,.02-.01.02,0,.04-.02.06-.03,0,0,.02,0,.02-.01l.06-.03s.01,0,.02-.01c.02,0,.04-.02.06-.03.01,0,.01,0,.02-.01.02,0,.04-.02.06-.03,0,0,.01,0,.02,0,.01,0,.03-.01.04-.02,0,0,.01,0,.02,0,.02,0,.04-.02.06-.03,0,0,.01,0,.02,0,.02,0,.04-.02.06-.03,0,0,.01,0,.02,0,.02-.01.04-.02.07-.03,0,0,0,0,.01,0,.07-.03.14-.06.21-.1h0s.05-.03.08-.04h0c.55-.26,1.1-.51,1.65-.76l-3.99-8.86h0Zm-8.36,4.13c-1.7.92-3.41,1.88-5.07,2.88l4.98,8.34s.01,0,.02,0c.02,0,.03-.02.05-.03,0,0,.01,0,.02-.01.02,0,.03-.02.05-.03,0,0,.01,0,.02-.01.02,0,.04-.02.05-.03,0,0,0,0,.01,0,.02-.01.04-.02.06-.04,0,0,.01,0,.01,0,.02-.01.04-.02.06-.04,0,0,0,0,.01,0,.02-.01.04-.03.06-.04,0,0,0,0,0,0,.02-.01.05-.03.07-.04,0,0,0,0,0,0,.02-.01.04-.03.07-.04,0,0,0,0,0,0,.02-.01.05-.03.07-.04,0,0,0,0,0,0,.02-.01.04-.03.07-.04,0,0,0,0,0,0,.02-.01.04-.03.07-.04,0,0,0,0,0,0,.02-.01.04-.03.07-.04,0,0,0,0,0,0,.07-.04.14-.08.21-.12,0,0,0,0,0,0,.02-.01.04-.03.07-.04,0,0,0,0,0,0,.02-.01.05-.03.07-.04h0s.04-.03.07-.04c0,0,0,0,0,0,.05-.03.09-.05.14-.08,0,0,0,0,0,0,.02-.01.05-.03.07-.04,0,0,0,0,.01,0,.02-.01.04-.03.06-.04,0,0,0,0,.01,0,.02-.01.04-.02.06-.04,0,0,0,0,.01,0,.02-.01.04-.03.06-.04,0,0,0,0,0,0,.02-.01.04-.02.06-.04,0,0,0,0,0,0,.02-.01.04-.02.06-.03,0,0,0,0,.01,0,.02,0,.04-.02.06-.03,0,0,.01,0,.02-.01.02-.01.04-.02.06-.03,0,0,.01,0,.02-.01.02,0,.04-.02.05-.03,0,0,.01,0,.02-.01.02,0,.03-.02.05-.03.01,0,.02-.01.03-.02.01,0,.03-.02.04-.02.01,0,.02-.01.03-.02.01,0,.03-.01.04-.02.01,0,.02-.01.03-.02.02,0,.03-.02.04-.03.01,0,.02-.01.03-.02.01,0,.03-.02.04-.03.01,0,.02-.01.03-.02.01,0,.02,0,.03-.01.02,0,.03-.02.05-.03,0,0,.01,0,.02-.01.02-.01.04-.02.06-.03,0,0,.01,0,.02,0,.02-.01.04-.02.06-.04,0,0,0,0,.01,0,.09-.05.19-.1.28-.16h0c.55-.31,1.11-.62,1.66-.92l-4.61-8.55h0Zm-8.04,4.71c-1.63,1.03-3.26,2.12-4.85,3.22l5.55,7.97c1.47-1.03,2.97-2.02,4.49-2.99l-5.2-8.21h0Zm-7.69,5.26c-1.56,1.15-3.11,2.34-4.61,3.56l6.1,7.56c.97-.78,1.95-1.55,2.95-2.3,0,0,0,0,.01,0l.06-.04s.01,0,.02-.01c.02-.01.03-.02.05-.04,0,0,.01-.01.02-.02,0,0,.02-.01.03-.02.02-.01.03-.02.04-.03l.03-.02s.03-.02.05-.03c0,0,.01-.01.02-.02.02-.01.03-.03.05-.04,0,0,.01,0,.02-.01.02-.01.03-.03.05-.04,0,0,0,0,.01,0,.02-.01.04-.03.06-.04,0,0,0,0,0,0,.02-.01.04-.03.06-.05,0,0,0,0,0,0,.02-.02.04-.03.06-.05,0,0,0,0,0,0,.02-.02.04-.03.07-.05,0,0,0,0,0,0,.2-.15.41-.3.61-.45l-5.76-7.82h0Zm-7.3,5.79c-1.47,1.25-2.93,2.55-4.35,3.87l6.61,7.11c.17-.16.34-.32.52-.48,0,0,0,0,0,0,.02-.02.04-.03.05-.05,0,0,.01,0,.02-.01.02-.01.03-.03.05-.04,0,0,.01-.01.02-.02.01-.01.03-.02.04-.04.01-.01.02-.01.03-.03,0,0,.02-.02.03-.02.01-.01.03-.02.04-.04,0,0,.02-.01.02-.02.01-.01.03-.03.04-.04,0,0,.01-.01.02-.02.01-.01.03-.03.05-.04,0,0,.01,0,.02-.01.01-.01.03-.03.04-.04,0,0,.01-.01.02-.02.01-.01.03-.03.05-.04,0,0,0,0,.01-.01.02-.02.03-.03.05-.05,0,0,0,0,.01-.01.02-.02.04-.03.05-.05,0,0,0,0,.01,0,.02-.02.04-.03.05-.05,0,0,0,0,0,0,.02-.02.04-.03.06-.05,0,0,0,0,0,0,.04-.04.08-.07.12-.11,0,0,0,0,0,0,.02-.02.04-.04.06-.05,0,0,0,0,0,0,.02-.02.04-.04.06-.05,0,0,0,0,0,0,.02-.02.04-.04.06-.05,0,0,0,0,0,0,.79-.71,1.6-1.42,2.41-2.11l-6.3-7.4h0Zm-6.88,6.28c-1.38,1.35-2.75,2.75-4.07,4.16l7.1,6.63c.14-.15.27-.28.4-.43,0,0,0,0,0,0,.02-.02.04-.04.05-.06,0,0,0,0,0,0,.02-.02.04-.04.05-.05,0,0,0,0,0,0,.02-.02.03-.03.05-.05,0,0,0,0,.01-.01.02-.02.03-.03.04-.04,0,0,.01-.01.02-.02.01-.01.03-.03.04-.04,0,0,.01-.02.02-.02.01-.01.03-.03.04-.04,0,0,.02-.02.03-.03,0,0,.02-.02.03-.03.01-.01.02-.03.04-.04,0,0,.01-.01.02-.02.01-.02.03-.03.04-.05,0,0,0,0,.01-.01.02-.02.04-.04.05-.06h0c.66-.69,1.32-1.37,1.99-2.04h0s.04-.04.06-.06c0,0,0,0,.01-.01.02-.02.03-.03.05-.05,0,0,.01-.01.02-.02.01-.01.02-.02.04-.04,0,0,.02-.02.03-.03,0,0,.02-.01.02-.02.01-.01.03-.03.04-.04,0,0,.01-.01.02-.02.02-.02.03-.03.04-.04,0,0,.01-.01.02-.02.02-.02.03-.03.05-.05,0,0,0,0,0,0,.14-.13.28-.27.41-.41l-6.8-6.94h0Zm-6.42,6.75c-1.28,1.45-2.55,2.94-3.77,4.44l7.54,6.12c1.13-1.4,2.3-2.77,3.49-4.11l-7.27-6.44h0Zm-5.93,7.18c-1.18,1.53-2.34,3.11-3.45,4.69l7.95,5.58c1.03-1.47,2.1-2.92,3.19-4.35l-7.7-5.92h0Zm-5.41,7.58c-1.07,1.61-2.11,3.27-3.11,4.92l8.33,5c.45-.75.91-1.5,1.38-2.25,0,0,0-.01.01-.02.01-.02.02-.04.03-.05,0,0,.01-.02.02-.03,0-.01.02-.03.03-.04,0-.01.01-.02.02-.03,0-.01.01-.02.02-.03,0-.01.02-.03.03-.04,0,0,0-.01.01-.02.01-.02.02-.04.03-.05,0,0,0-.01.01-.02.01-.02.02-.03.03-.05,0,0,0-.01,0-.02.01-.02.02-.04.04-.06,0,0,0,0,0,0,.39-.62.79-1.22,1.19-1.83l-8.1-5.36h0Zm-4.87,7.94c-.95,1.68-1.88,3.41-2.75,5.13l8.66,4.4c.11-.22.23-.45.35-.68,0,0,0,0,0,0,.01-.02.02-.05.04-.07,0,0,0,0,0,0,.01-.02.02-.05.04-.07,0,0,0,0,0,0,.01-.02.02-.05.04-.07,0,0,0,0,0,0,.01-.02.03-.05.04-.07,0,0,0,0,0,0,.01-.02.02-.05.03-.07,0,0,0,0,0-.01.01-.02.02-.04.03-.06,0,0,0,0,0-.01.01-.02.02-.04.03-.06,0,0,0-.01,0-.02.01-.02.02-.04.03-.06,0,0,0,0,0-.01,0-.02.02-.04.03-.06,0,0,0-.01,0-.02.01-.02.02-.04.03-.06,0,0,0-.01,0-.02,0-.02.02-.04.03-.06,0,0,0-.01.01-.02.01-.02.02-.04.03-.06,0,0,0-.01.01-.02,0-.02.02-.04.03-.06,0,0,0-.01,0-.02.01-.02.02-.04.03-.06,0,0,0-.01,0-.02,0-.02.02-.03.03-.05,0,0,0-.01.01-.02.01-.02.02-.03.03-.05,0,0,0-.01.01-.02,0-.02.02-.04.03-.06,0,0,0-.01.01-.02.01-.02.02-.04.03-.06,0,0,0-.01.01-.02,0-.02.02-.04.03-.06,0,0,0-.01.01-.02,0-.02.02-.03.03-.05v-.02s.03-.03.04-.05c0,0,0-.01.01-.02,0-.02.02-.04.03-.06,0,0,0-.01.01-.02.01-.02.02-.03.03-.06,0,0,0-.01.01-.02,0-.02.02-.04.03-.05,0,0,0-.01.01-.02.01-.02.02-.03.03-.05,0,0,0-.01.01-.02,0-.02.02-.03.03-.05,0,0,0-.01,0-.02.01-.02.02-.03.03-.05,0,0,0-.01.01-.02,0-.02.02-.04.03-.06,0,0,0-.01.01-.02.01-.02.02-.04.03-.06,0,0,0-.01.01-.02,0-.02.02-.04.03-.06,0,0,0-.01.01-.02,0-.02.02-.03.03-.05,0,0,0-.02.01-.03,0-.02.02-.03.02-.04,0,0,0-.02.01-.02,0-.02.02-.03.03-.05,0,0,0-.02.01-.03,0-.02.02-.03.03-.05,0,0,.01-.02.01-.03,0-.02.02-.03.03-.05,0,0,.01-.02.02-.03,0-.01.01-.02.02-.04,0-.01.01-.03.02-.04,0-.01.01-.02.02-.03,0-.02.02-.03.03-.05,0-.01.01-.02.02-.03,0-.02.02-.03.03-.05,0,0,.01-.02.01-.03,0-.01.01-.02.02-.04,0,0,0-.01.01-.02.01-.02.02-.04.03-.06,0,0,0,0,0-.01.01-.02.02-.04.04-.07,0,0,0,0,0-.01.01-.02.03-.05.04-.07h0c.17-.31.34-.62.51-.92l-8.46-4.78h0Zm-4.3,8.27c-.83,1.75-1.63,3.53-2.38,5.32l8.95,3.78c.14-.32.27-.64.41-.96h0s.02-.06.04-.08h0s.02-.06.04-.09h0c.03-.07.06-.14.09-.21h0s.02-.06.03-.08c0,0,0,0,0-.01.51-1.17,1.04-2.33,1.59-3.48l-8.77-4.17h0Zm-3.7,8.55c-.7,1.8-1.38,3.64-2,5.47l9.19,3.13c.16-.46.31-.9.47-1.36h0s.02-.05.03-.08c0,0,0,0,0,0,.03-.08.06-.16.08-.24,0,0,0,0,0,0,0-.03.02-.05.03-.07,0,0,0,0,0,0,0-.03.02-.05.03-.07,0,0,0,0,0,0,0-.02.02-.05.03-.07,0,0,0,0,0,0,0-.02.02-.05.03-.07,0,0,0,0,0,0,0-.02.02-.05.03-.07,0,0,0,0,0-.01,0-.02.02-.05.02-.07h0s.02-.06.02-.08c0,0,0,0,0-.01,0-.02.02-.05.03-.07,0,0,0,0,0,0,0-.02.02-.05.02-.07,0,0,0,0,0,0,0-.02.02-.05.03-.07,0,0,0,0,0-.01,0-.02.02-.04.02-.07,0,0,0-.01,0-.02,0-.02.02-.04.02-.07,0,0,0-.01,0-.02,0-.02.02-.04.02-.07,0,0,0,0,0-.01,0-.02.01-.04.02-.06,0,0,0,0,0-.01,0-.02.02-.04.02-.06,0,0,0-.01,0-.02,0-.02.02-.04.02-.06,0,0,0-.01,0-.02,0-.02.02-.04.02-.06,0,0,0-.01,0-.02,0-.02.01-.03.02-.06,0,0,0-.02,0-.02,0-.01.01-.03.02-.05,0,0,0-.02.01-.03,0-.01.01-.04.02-.05,0,0,0-.02,0-.02,0-.02.01-.04.02-.06,0,0,0-.02.01-.03,0-.02.01-.03.02-.05,0-.01,0-.02.01-.03,0-.01.01-.03.01-.04,0-.02.01-.03.02-.05,0,0,0-.02.01-.03,0-.02.01-.03.02-.05,0-.01,0-.02.01-.03,0-.02.01-.04.02-.06,0,0,0-.02,0-.02,0-.01.01-.03.02-.04,0,0,0,0,0,0,.01-.03.02-.05.03-.08h0s.02-.06.03-.09h0c.14-.39.29-.76.44-1.14l-9.05-3.54h0Zm-3.09,8.8c-.57,1.85-1.12,3.73-1.61,5.6l9.39,2.47c.22-.83.45-1.65.68-2.48h0s.02-.06.03-.09h0s.02-.06.02-.09h0s.03-.09.04-.14c0,0,0,0,0-.01,0-.02.01-.05.02-.07,0,0,0,0,0-.02,0-.02.01-.05.02-.07,0,0,0-.01,0-.02,0-.02.01-.04.02-.06,0,0,0-.01,0-.02,0-.01,0-.03.01-.04,0,0,0-.01,0-.02,0-.02.01-.04.02-.07,0,0,0-.01,0-.02,0-.02.01-.04.02-.07,0,0,0-.01,0-.02,0-.02.01-.04.02-.06,0-.01,0-.02,0-.03,0-.02.01-.04.02-.05,0-.01,0-.02,0-.03,0-.01,0-.03.01-.04,0,0,0-.02,0-.03l.02-.05s0-.02,0-.02c0-.02.01-.04.02-.06,0,0,0-.02,0-.03,0-.02.01-.04.02-.06,0,0,0-.02,0-.02.01-.04.03-.09.04-.13,0,0,0,0,0-.01,0-.03.02-.05.02-.08,0,0,0,0,0-.01,0-.03.02-.05.02-.08h0c.11-.37.22-.73.33-1.08l-9.27-2.89h0Zm-2.45,8.99c-.44,1.88-.85,3.8-1.21,5.7l9.54,1.8c.06-.32.12-.63.18-.95,0,0,0,0,0,0,0-.01,0-.02,0-.03,0,0,0,0,0-.01,0-.01,0-.02,0-.03,0,0,0-.01,0-.02,0,0,0-.02,0-.02.28-1.41.58-2.81.91-4.2l-9.46-2.22h0Zm-1.81,9.14c-.31,1.91-.58,3.85-.8,5.77l9.65,1.12c.21-1.79.46-3.58.74-5.35l-9.59-1.55h0Zm-1.16,9.24c-.17,1.92-.31,3.88-.39,5.81l9.7.45c.08-1.81.21-3.6.37-5.38l-9.67-.87h0ZM.03,129.53c-.02.89-.03,1.79-.03,2.68,0,1.04.01,2.1.04,3.13l9.71-.23c-.02-.72-.03-1.45-.03-2.18h0c0-.08,0-.15,0-.23h0v-.04s0,0,0-.01v-.05s0-.02,0-.03v-.07s0-.01,0-.02v-.1s0-.02,0-.03v-.1h0v-.06h0v-.15h0s0-.05,0-.07v-.02s0-.04,0-.06v-.07s0-.01,0-.02v-.06s0-.02,0-.03c0-.02,0-.03,0-.05v-.04s0-.03,0-.04c0-.01,0-.02,0-.03,0-.01,0-.03,0-.05,0-.01,0-.03,0-.04v-.03s0-.02,0-.03c0-.02,0-.04,0-.05,0-.01,0-.02,0-.04v-.03s0-.04,0-.07v-.02s0-.03,0-.04v-.02s0-.05,0-.07v-.02s0-.03,0-.04c0,0,0-.01,0-.02,0-.02,0-.05,0-.07,0,0,0-.01,0-.02,0-.02,0-.04,0-.06,0,0,0-.02,0-.03,0-.01,0-.02,0-.04,0-.01,0-.02,0-.03,0-.01,0-.03,0-.04,0-.02,0-.03,0-.04,0,0,0-.02,0-.03,0-.02,0-.04,0-.06v-.02s0-.04,0-.06v-.02s0-.05,0-.07h0c0-.23,0-.47.01-.7l-9.71-.19H.03Zm9.84,8.83l-9.7.48c.1,1.93.23,3.89.41,5.81l9.67-.9c-.17-1.78-.29-3.58-.38-5.38h0Zm.73,8.6l-9.64,1.16c.23,1.92.51,3.86.82,5.77l9.58-1.58c-.29-1.77-.55-3.55-.76-5.34h0Zm1.33,8.53l-9.54,1.83c.37,1.9.78,3.82,1.23,5.7l9.45-2.26c-.03-.12-.06-.24-.09-.36,0,0,0,0,0-.01,0,0,0-.02,0-.02,0,0,0-.01,0-.02,0,0,0-.01,0-.02,0,0,0-.02,0-.03,0,0,0,0,0-.01,0-.01,0-.02,0-.03h0c-.19-.84-.38-1.67-.56-2.51h0s0-.03,0-.04h0s0-.03,0-.05h0s-.01-.07-.02-.1c0,0,0,0,0,0,0-.01,0-.03,0-.04,0,0,0,0,0-.01,0-.01,0-.02,0-.03,0,0,0,0,0-.02,0,0,0-.02,0-.03,0,0,0-.01,0-.02,0,0,0-.02,0-.02,0,0,0-.01,0-.02,0,0,0-.01,0-.02,0,0,0-.02,0-.02,0,0,0-.01,0-.02,0-.04-.01-.07-.02-.11,0,0,0,0,0,0,0-.01,0-.02,0-.03,0,0,0-.01,0-.02,0-.01,0-.02,0-.03,0,0,0,0,0-.01,0-.01,0-.02,0-.03,0,0,0,0,0,0,0-.01,0-.02,0-.03,0,0,0,0,0,0,0-.01,0-.02,0-.03,0,0,0,0,0,0-.01-.05-.02-.1-.03-.15,0,0,0,0,0,0,0-.01,0-.02,0-.03,0,0,0,0,0-.01,0-.01,0-.02,0-.03,0,0,0,0,0-.01,0,0,0-.02,0-.03,0,0,0-.01,0-.02,0,0,0-.02,0-.03,0,0,0-.01,0-.02,0,0,0-.02,0-.02,0,0,0-.01,0-.02,0,0,0-.02,0-.02,0,0,0-.01,0-.02,0-.02,0-.03,0-.04,0,0,0-.02,0-.03,0,0,0-.01,0-.02,0,0,0-.02,0-.03,0,0,0-.01,0-.02,0,0,0-.02,0-.03,0,0,0,0,0-.02,0,0,0-.02,0-.03,0,0,0,0,0-.02,0-.01,0-.02,0-.03,0,0,0,0,0-.01,0-.01,0-.03,0-.04h0c-.05-.26-.1-.51-.15-.76h0Zm1.93,8.41l-9.39,2.51c.5,1.87,1.05,3.75,1.63,5.6l9.26-2.92s0-.03-.01-.04h0s-.02-.05-.02-.08c0,0,0-.01,0-.01,0-.02-.01-.04-.02-.06,0,0,0-.02-.01-.03,0-.01,0-.02-.01-.03,0-.02-.01-.03-.02-.05,0,0,0-.02,0-.03,0-.02-.01-.04-.02-.05,0,0,0-.01,0-.02,0-.02-.01-.04-.02-.06,0,0,0-.01,0-.02,0-.02-.01-.05-.02-.07,0,0,0,0,0-.01,0-.02-.01-.05-.02-.07,0,0,0,0,0-.01,0-.03-.01-.05-.02-.07,0,0,0,0,0,0-.45-1.47-.88-2.96-1.28-4.46h0Zm2.52,8.26l-9.18,3.17c.63,1.83,1.31,3.67,2.02,5.47l9.03-3.57c-.2-.51-.4-1.02-.59-1.53h0s-.02-.06-.03-.08c0,0,0,0,0-.01,0-.02-.02-.04-.02-.06,0,0,0-.02,0-.02,0-.01,0-.03-.01-.04,0-.01-.01-.03-.02-.05,0-.01,0-.02-.01-.03,0-.01-.01-.03-.02-.04,0-.01,0-.02-.01-.04,0-.01-.01-.03-.02-.05,0,0,0-.02-.01-.03,0-.02-.01-.04-.02-.05,0,0,0-.01,0-.02,0-.02-.02-.04-.02-.06,0,0,0-.01,0-.02,0-.02-.02-.05-.02-.07,0,0,0,0,0-.01,0-.03-.02-.05-.03-.07,0,0,0,0,0,0-.03-.08-.06-.16-.09-.23h0c-.19-.53-.39-1.05-.57-1.58,0,0,0,0,0,0,0-.02-.02-.05-.03-.07,0,0,0,0,0,0,0-.03-.02-.05-.03-.07,0,0,0,0,0,0,0-.03-.02-.04-.02-.07,0,0,0,0,0-.01,0-.02-.01-.04-.02-.06,0,0,0-.01,0-.02,0-.02-.01-.04-.02-.06,0,0,0-.02-.01-.03,0-.01-.01-.04-.02-.05,0-.01,0-.02-.01-.04,0-.01,0-.02-.01-.03,0-.02-.01-.04-.02-.06,0,0,0,0,0-.01-.04-.12-.08-.24-.12-.36h0Zm3.1,8.06l-8.94,3.81c.76,1.78,1.57,3.56,2.4,5.31l8.76-4.2c-.05-.1-.1-.2-.14-.3,0,0,0,0,0,0-.01-.02-.02-.04-.03-.07,0,0,0,0,0-.01-.01-.02-.02-.04-.03-.06,0,0,0-.01,0-.02,0-.02-.02-.04-.03-.06,0,0,0-.02-.01-.03,0-.01-.01-.03-.02-.04l-.02-.05s0-.02-.01-.03c0-.02-.02-.04-.03-.06,0,0,0-.01,0-.01-.36-.76-.7-1.51-1.05-2.28h0s-.02-.06-.04-.08h0s-.02-.06-.03-.08c0,0,0,0,0-.01-.02-.04-.04-.08-.06-.12h0s-.02-.06-.04-.08c0,0,0,0,0,0-.01-.02-.02-.05-.03-.07,0,0,0,0,0-.01-.01-.02-.02-.05-.03-.07,0,0,0-.01,0-.01-.03-.07-.06-.14-.09-.21h0s-.02-.06-.03-.08c0,0,0,0,0-.01-.01-.02-.02-.05-.03-.07h0s-.02-.06-.04-.09h0c-.13-.29-.25-.59-.38-.88h0Zm3.66,7.82l-8.64,4.43c.88,1.72,1.81,3.44,2.77,5.12l8.44-4.81s0,0,0,0c-.89-1.56-1.75-3.14-2.57-4.75h0Zm4.21,7.54l-8.31,5.03c1,1.65,2.05,3.31,3.13,4.91l8.08-5.39c-.08-.12-.17-.25-.25-.37,0,0,0,0,0,0-.01-.02-.03-.04-.04-.06,0,0,0-.01-.01-.02-.01-.02-.02-.04-.04-.05,0,0,0-.01-.01-.02-.01-.02-.02-.03-.03-.05,0,0-.01-.02-.02-.03l-.02-.03s-.02-.03-.03-.05c0,0-.01-.02-.02-.03-.01-.02-.02-.03-.03-.05,0,0-.01-.02-.02-.03,0-.01-.02-.03-.03-.04,0,0-.01-.02-.02-.03,0-.01-.02-.03-.03-.04,0,0-.01-.02-.02-.03-.01-.02-.02-.03-.03-.05,0,0,0-.01-.01-.02-.01-.02-.02-.04-.03-.05,0,0,0-.01-.01-.02-.01-.02-.02-.03-.03-.05,0,0,0-.01-.01-.02-.01-.02-.02-.04-.03-.05,0,0,0-.01-.01-.02-.01-.02-.02-.04-.04-.05,0,0,0-.01,0-.02-.01-.02-.02-.03-.03-.05,0,0,0-.01-.01-.02-.01-.02-.02-.03-.03-.05,0,0,0-.01-.01-.02-.01-.02-.02-.04-.03-.05,0,0,0-.01-.01-.02-.01-.02-.02-.03-.03-.05,0,0,0-.01-.01-.02-.01-.02-.02-.04-.03-.05,0,0,0-.01-.01-.02-.01-.02-.02-.03-.03-.05,0,0-.01-.02-.02-.02,0-.01-.02-.03-.03-.05,0,0,0-.01-.01-.02-.01-.02-.02-.03-.03-.05,0,0,0-.01-.01-.02-.01-.02-.02-.04-.03-.05,0,0,0-.01-.01-.02-.01-.02-.02-.04-.03-.05,0,0,0-.02-.01-.02-.01-.02-.02-.03-.03-.05,0,0,0-.02-.01-.02,0-.01-.02-.03-.03-.04,0-.01-.01-.02-.02-.03,0-.01-.02-.02-.02-.04,0-.01-.01-.02-.02-.03,0-.01-.02-.03-.02-.04,0,0-.01-.02-.02-.03,0-.01-.02-.03-.03-.04,0-.01-.01-.02-.02-.03,0-.01-.02-.03-.03-.04,0-.01-.01-.02-.02-.03,0-.01-.01-.02-.02-.03,0-.01-.02-.03-.03-.04,0,0-.01-.02-.02-.03-.01-.02-.02-.03-.03-.05,0,0-.01-.02-.02-.03-.01-.02-.02-.03-.03-.05,0,0-.01-.02-.02-.03-.01-.02-.02-.03-.03-.05,0,0-.01-.02-.02-.02,0-.01-.02-.02-.02-.04,0,0,0-.01,0-.01-.01-.02-.03-.04-.04-.06,0,0,0-.01-.01-.02-.01-.02-.02-.04-.04-.06,0,0,0-.01-.01-.02-.01-.02-.02-.04-.04-.06,0,0,0-.01-.01-.02-.01-.02-.03-.04-.04-.06,0,0,0-.01,0-.01-.02-.04-.05-.08-.07-.11h0s-.03-.05-.04-.08c0,0,0,0,0-.01-.01-.02-.03-.04-.04-.07,0,0,0,0,0-.01-.01-.02-.03-.04-.04-.06,0,0,0,0,0-.01-.01-.02-.03-.04-.04-.07,0,0,0,0,0,0-.01-.02-.03-.05-.04-.07h0s-.01-.03-.02-.04c0,0,0-.01-.01-.02-.01-.02-.02-.04-.04-.06,0,0,0-.01-.01-.02-.01-.02-.02-.03-.03-.05,0,0-.01-.02-.02-.03-.01-.02-.02-.03-.03-.05,0,0-.01-.02-.02-.03,0-.01-.01-.02-.02-.04,0,0-.02-.03-.02-.04,0-.01-.01-.02-.02-.03,0-.01-.02-.03-.03-.05,0,0-.01-.02-.02-.03-.01-.02-.02-.03-.03-.05,0,0,0-.02-.01-.02-.01-.02-.02-.03-.03-.05,0,0,0-.02-.01-.02-.01-.02-.02-.03-.03-.05,0,0,0-.01,0-.02-.01-.02-.02-.04-.04-.06,0,0,0,0,0-.01-.01-.02-.02-.04-.04-.06,0,0,0,0,0,0-.01-.02-.03-.05-.04-.07,0,0,0,0,0,0l-.04-.07h0Zm4.73,7.22l-7.93,5.6c1.11,1.58,2.28,3.15,3.46,4.68l7.68-5.95c-.11-.15-.23-.29-.34-.44,0,0,0,0,0-.01,0-.01-.02-.02-.03-.03,0,0-.01-.02-.02-.03l-.03-.04s-.02-.02-.03-.04c0,0-.01-.02-.02-.03-.01-.02-.02-.02-.03-.04,0,0-.01-.01-.02-.02-.01-.02-.03-.03-.04-.05,0,0,0,0,0-.01-.01-.02-.03-.04-.04-.06,0,0,0,0,0-.01-.01-.02-.03-.04-.04-.06,0,0,0,0,0,0-.02-.02-.03-.04-.05-.06,0,0,0,0,0,0-.6-.78-1.18-1.57-1.75-2.37,0,0,0,0,0,0-.02-.02-.03-.05-.05-.07,0,0,0,0,0,0-.03-.05-.06-.09-.1-.14,0,0,0,0,0,0-.01-.02-.03-.04-.04-.06,0,0,0,0,0,0-.02-.02-.03-.04-.04-.06,0,0,0,0-.01-.01-.01-.02-.03-.04-.04-.06,0,0,0-.01-.01-.02-.01-.02-.03-.04-.04-.05,0,0-.01-.01-.02-.02,0-.01-.02-.03-.03-.04,0,0-.01-.02-.02-.03,0-.01-.02-.02-.03-.04,0-.01-.02-.02-.03-.04,0,0-.02-.02-.02-.03,0-.01-.02-.02-.02-.03,0,0-.02-.02-.02-.03-.03-.04-.05-.07-.08-.11h0c-.04-.07-.09-.13-.13-.19h0Zm5.22,6.87l-7.52,6.15c1.22,1.5,2.49,2.99,3.78,4.43l7.25-6.47c-1.18-1.33-2.34-2.68-3.47-4.06,0,0-.01-.01-.01-.02,0-.01-.02-.02-.03-.03h0Zm5.69,6.49l-7.07,6.66c1.32,1.41,2.7,2.8,4.08,4.15l6.78-6.96c-.26-.25-.52-.51-.78-.77,0,0,0,0,0,0-.02-.02-.04-.04-.05-.05,0,0,0,0,0,0-.02-.02-.03-.03-.05-.05,0,0,0,0-.01-.01-.02-.02-.03-.03-.05-.05,0,0,0,0-.01-.01-.01-.01-.03-.03-.04-.04,0,0-.01-.01-.02-.02-.01-.01-.03-.03-.04-.04,0,0-.01-.01-.02-.02-.01-.01-.03-.03-.04-.04,0,0-.01-.01-.02-.02-.01-.01-.03-.03-.04-.04,0,0-.02-.02-.02-.02-.01-.01-.03-.03-.04-.04,0,0-.02-.02-.03-.03,0,0,0,0-.02-.02-.02-.02-.03-.03-.05-.05,0,0,0,0,0,0l-.06-.06h0c-.8-.81-1.59-1.62-2.37-2.45h0Zm6.13,6.08l-6.59,7.14c1.42,1.31,2.89,2.61,4.36,3.85l6.27-7.42c-.69-.58-1.37-1.17-2.04-1.76,0,0,0,0,0,0-.02-.02-.04-.04-.06-.05,0,0,0,0,0,0-.02-.02-.04-.04-.06-.05,0,0,0,0,0,0-.04-.04-.08-.07-.12-.11,0,0,0,0,0,0-.02-.02-.04-.04-.06-.05h0s-.04-.04-.05-.05c0,0,0,0-.01-.01-.02-.02-.03-.03-.05-.04,0,0-.01,0-.02-.01-.01-.01-.03-.03-.05-.04,0,0-.01-.01-.02-.02-.01-.01-.02-.02-.04-.03,0,0-.02-.02-.03-.02-.01-.01-.02-.02-.03-.03-.01,0-.02-.02-.03-.03,0,0-.02-.02-.03-.03-.01-.01-.02-.02-.03-.03,0,0-.02-.02-.03-.03-.42-.38-.84-.76-1.26-1.15h0Zm6.54,5.63l-6.07,7.58c1.51,1.21,3.06,2.4,4.62,3.54l5.74-7.84c-.59-.43-1.17-.87-1.75-1.31,0,0,0,0,0,0-.02-.02-.04-.03-.06-.05,0,0,0,0,0,0-.02-.01-.04-.03-.06-.04,0,0,0,0-.01,0-.02-.01-.04-.03-.06-.04,0,0,0,0-.01,0-.02-.01-.04-.03-.06-.04,0,0,0,0-.01,0-.02-.01-.03-.03-.05-.04,0,0,0,0-.01-.01-.02-.01-.03-.03-.05-.04,0,0-.01,0-.02-.01-.02-.01-.04-.03-.05-.04,0,0-.01,0-.02-.01-.02-.01-.03-.02-.05-.04,0,0-.01-.01-.02-.02-.02-.01-.03-.03-.05-.04,0,0-.01-.01-.02-.02-.02-.01-.02-.02-.04-.03-.01,0-.02-.02-.03-.02-.01,0-.02-.02-.03-.03-.01,0-.02-.02-.03-.02-.01,0-.02-.02-.03-.03-.01,0-.02-.02-.03-.02-.01,0-.03-.02-.04-.03-.01,0-.02-.02-.03-.02-.01,0-.02-.02-.04-.03-.01,0-.02-.02-.03-.03,0,0-.01-.01-.02-.02-.02-.01-.03-.02-.05-.04,0,0-.01-.01-.02-.02-.02-.01-.03-.03-.05-.04,0,0,0,0-.02-.01-.02-.01-.04-.03-.06-.04,0,0,0,0-.01,0-.45-.35-.9-.71-1.35-1.06h0Zm6.92,5.16l-5.53,7.99c1.59,1.1,3.22,2.18,4.86,3.21l5.17-8.22c-.81-.51-1.61-1.03-2.41-1.55,0,0,0,0,0,0-.02-.01-.04-.03-.06-.04,0,0,0,0-.01,0-.02-.01-.03-.02-.05-.04,0,0-.01,0-.02-.01-.02-.01-.03-.02-.05-.03,0,0-.02-.01-.02-.02-.01,0-.03-.02-.04-.03-.01,0-.02-.02-.04-.02,0,0-.02-.01-.03-.02-.02-.01-.03-.02-.05-.03,0,0-.01,0-.02-.01-.02-.01-.04-.03-.06-.04,0,0,0,0,0,0-.46-.31-.92-.62-1.37-.93h0s-.04-.03-.07-.05c0,0-.01,0-.02-.02-.02-.01-.03-.02-.05-.03-.01,0-.02-.01-.03-.02,0,0-.02-.01-.03-.02-.02-.01-.03-.02-.05-.03,0,0,0,0-.01,0h0Zm7.27,4.66l-4.95,8.36c1.66.99,3.37,1.95,5.08,2.86l4.58-8.57c-.32-.17-.64-.35-.96-.52,0,0,0,0,0,0-.02-.01-.05-.03-.07-.04,0,0,0,0,0,0-.02-.01-.04-.02-.07-.04,0,0,0,0-.01,0-.02,0-.04-.02-.06-.03,0,0-.02,0-.02-.01-.01,0-.03-.02-.04-.02,0,0-.02-.01-.03-.02-.01,0-.03-.02-.04-.02,0,0-.02-.01-.03-.02-.02,0-.03-.02-.05-.03-.01,0-.02-.01-.03-.02,0,0-.02-.01-.03-.01-.02,0-.04-.02-.05-.03,0,0,0,0-.01,0-.02-.01-.05-.03-.07-.04h0c-.93-.52-1.85-1.04-2.77-1.58,0,0,0,0,0,0-.02-.01-.04-.03-.07-.04,0,0-.01,0-.02-.01-.02,0-.03-.02-.05-.03-.01,0-.02-.01-.03-.02-.01,0-.02-.01-.03-.02-.02,0-.03-.02-.05-.03,0,0-.01,0-.02-.01-.02,0-.04-.02-.06-.03,0,0,0,0,0,0h0Zm7.58,4.14l-4.35,8.69c1.73.87,3.5,1.7,5.27,2.49l3.96-8.87c-.44-.19-.87-.39-1.3-.59,0,0,0,0,0,0-.02,0-.04-.02-.06-.03,0,0-.01,0-.02,0-.02,0-.04-.02-.06-.03,0,0-.02,0-.02-.01-.02,0-.03-.02-.05-.02-.01,0-.02,0-.03-.01-.01,0-.02-.01-.03-.02-.02,0-.03-.02-.05-.02,0,0-.02,0-.02-.01-.02-.01-.05-.02-.07-.03,0,0,0,0,0,0-1.05-.49-2.1-1-3.14-1.51h0Zm7.85,3.59l-3.72,8.97c1.79.74,3.61,1.45,5.43,2.11l3.32-9.13c-.09-.03-.18-.06-.27-.1h0s-.05-.02-.08-.03c0,0-.01,0-.02,0-.02,0-.04-.01-.06-.02h-.03s-.02-.02-.04-.02c-.02,0-.03-.01-.05-.02,0,0-.02,0-.03,0-.02,0-.04-.01-.06-.02,0,0-.02,0-.02,0-.02,0-.04-.02-.06-.02,0,0,0,0-.01,0-.02,0-.05-.02-.07-.03,0,0,0,0,0,0-.03,0-.05-.02-.08-.03,0,0,0,0,0,0-.03,0-.05-.02-.08-.03,0,0,0,0,0,0-1.37-.51-2.73-1.05-4.08-1.61h0Zm8.09,3.02l-3.08,9.21c1.83.61,3.71,1.19,5.57,1.72l2.67-9.34c-.46-.13-.92-.26-1.38-.4,0,0,0,0,0,0-.03,0-.05-.01-.07-.02,0,0,0,0,0,0-.02,0-.05-.01-.07-.02,0,0,0,0-.01,0-.02,0-.05-.01-.07-.02,0,0,0,0,0,0-.02,0-.05-.01-.07-.02,0,0,0,0,0,0-.02,0-.05-.01-.07-.02,0,0-.01,0-.02,0-.02,0-.04-.01-.07-.02,0,0-.01,0-.02,0-.02,0-.04-.01-.06-.02,0,0-.01,0-.02,0-.02,0-.04-.01-.07-.02,0,0,0,0,0,0-.02,0-.04-.01-.06-.02,0,0-.01,0-.02,0-.02,0-.04-.01-.06-.02,0,0-.01,0-.02,0-.02,0-.04-.01-.06-.02,0,0-.01,0-.02,0-.02,0-.04-.01-.06-.02,0,0-.01,0-.02,0-.02,0-.04-.01-.06-.02,0,0-.01,0-.02,0-.02,0-.04-.01-.06-.02,0,0-.01,0-.02,0-.02,0-.04-.01-.06-.02,0,0-.01,0-.02,0-.02,0-.04-.01-.06-.02,0,0-.01,0-.02,0-.02,0-.05-.01-.06-.02,0,0-.01,0-.02,0-.02,0-.04-.01-.06-.02,0,0-.01,0-.02,0-.02,0-.04-.01-.06-.02,0,0-.01,0-.02,0-.02,0-.04-.01-.06-.02,0,0-.01,0-.02,0-.02,0-.04-.01-.06-.02,0,0-.01,0-.02,0-.02,0-.04-.01-.06-.02,0,0-.01,0-.02,0-.02,0-.04-.01-.05-.02,0,0-.02,0-.02,0-.02,0-.04-.01-.06-.02,0,0-.01,0-.02,0-.02,0-.04-.01-.06-.02,0,0-.02,0-.02,0-.02,0-.04-.01-.06-.02,0,0-.01,0-.02,0-.02,0-.04-.01-.06-.02,0,0-.02,0-.03,0-.01,0-.03-.01-.05-.02,0,0-.02,0-.02,0-.02,0-.04-.01-.06-.02,0,0-.02,0-.03,0-.02,0-.04-.01-.06-.02,0,0-.02,0-.03,0-.02,0-.04-.01-.06-.02,0,0-.02,0-.03,0-.01,0-.03,0-.04-.01-.01,0-.02,0-.04-.01-.01,0-.03,0-.04-.01-.01,0-.02,0-.04-.01-.01,0-.03-.01-.05-.02,0,0-.02,0-.03,0-.01,0-.04-.01-.05-.02-.01,0-.02,0-.03-.01-.01,0-.03,0-.04-.01-.01,0-.03,0-.04-.01-.01,0-.02,0-.03-.01-.02,0-.03-.01-.05-.02-.01,0-.02,0-.03,0-.02,0-.04-.01-.06-.02,0,0-.02,0-.02,0-.04-.01-.09-.03-.13-.04h0s-.05-.02-.08-.03h0c-.15-.05-.29-.1-.44-.15h0Zm8.28,2.44l-2.42,9.41c1.87.48,3.78.93,5.67,1.32l2-9.51c-.66-.14-1.31-.28-1.96-.43,0,0-.01,0-.02,0,0,0-.02,0-.02,0,0,0-.02,0-.03,0,0,0-.01,0-.02,0-.01,0-.02,0-.03,0,0,0,0,0-.01,0-.01,0-.02,0-.03,0h0s-.03,0-.04-.01h0c-1.03-.24-2.06-.49-3.08-.75h0Zm8.43,1.85l-1.74,9.56c1.9.35,3.84.66,5.75.92l1.32-9.62c-1.42-.19-2.82-.41-4.22-.65h0s-.03,0-.04,0h0s-.02,0-.04,0c0,0,0,0-.01,0-.01,0-.02,0-.03,0,0,0,0,0-.01,0h-.03s-.01,0-.02,0c0,0-.02,0-.02,0-.05,0-.09-.02-.14-.02,0,0,0,0,0,0-.01,0-.03,0-.04,0h0c-.24-.04-.47-.08-.7-.13h0Zm8.54,1.25l-1.07,9.66c1.92.21,3.87.38,5.8.51l.64-9.69c-.08,0-.16-.01-.24-.02h0s-.1,0-.14,0c0,0,0,0,0,0-.01,0-.02,0-.03,0,0,0-.02,0-.02,0,0,0-.02,0-.03,0,0,0-.01,0-.02,0s-.02,0-.03,0c0,0-.01,0-.02,0,0,0-.01,0-.02,0-.01,0-.01,0-.03,0,0,0,0,0-.01,0-.05,0-.11,0-.16-.01h0c-1.27-.09-2.52-.2-3.78-.33,0,0,0,0,0,0-.01,0-.02,0-.03,0,0,0,0,0-.01,0,0,0-.02,0-.03,0s-.02,0-.02,0c0,0-.01,0-.02,0-.01,0-.02,0-.03,0,0,0,0,0,0,0-.23-.02-.45-.05-.67-.07h0Zm8.61.65l-.39,9.71c1.78.07,3.58.11,5.37.11h.45s-.03-9.71-.03-9.71c-.05,0-.09,0-.14,0,0,0-.02,0-.03,0h0c-.08,0-.16,0-.24,0h0s-.04,0-.07,0h-.02s-.05,0-.07,0c0,0,0,0-.01,0-.02,0-.04,0-.06,0,0,0,0,0-.01,0-.02,0-.04,0-.07,0,0,0-.01,0-.02,0-.02,0-.04,0-.06,0h0s-.05,0-.07,0c0,0-.01,0-.02,0-.02,0-.05,0-.07,0,0,0,0,0,0,0-.02,0-.04,0-.07,0,0,0-.01,0-.02,0-.02,0-.04,0-.07,0,0,0,0,0,0,0-.02,0-.04,0-.07,0,0,0,0,0,0,0-.02,0-.05,0-.07,0,0,0,0,0,0,0-.02,0-.05,0-.07,0h0s-.05,0-.07,0c0,0,0,0-.01,0-.05,0-.1,0-.15,0,0,0,0,0,0,0-.02,0-.05,0-.07,0,0,0,0,0,0,0-.02,0-.05,0-.07,0h0s-.05,0-.08,0c0,0,0,0,0,0-.05,0-.1,0-.15,0,0,0,0,0,0,0-.86-.01-1.71-.03-2.56-.06,0,0,0,0,0,0-.02,0-.05,0-.08,0,0,0,0,0,0,0-.02,0-.05,0-.07,0,0,0,0,0,0,0-.02,0-.05,0-.07,0,0,0,0,0-.01,0-.02,0-.04,0-.06,0h0s-.05,0-.07,0c0,0-.01,0-.02,0-.02,0-.04,0-.07,0h-.01s-.04,0-.05,0h-.02s-.04,0-.06,0c0,0-.02,0-.03,0-.02,0-.02,0-.04,0-.01,0-.02,0-.03,0-.02,0-.03,0-.05,0-.01,0-.03,0-.04,0,0,0-.01,0-.02,0-.01,0-.02,0-.03,0h0Zm14.02-.23c-1.79.13-3.58.22-5.39.28l.28,9.71c1.93-.06,3.89-.16,5.81-.3l-.71-9.69h0Zm8.58-.93c-.32.05-.63.09-.96.13,0,0,0,0,0,0-.01,0-.02,0-.04,0,0,0,0,0-.01,0,0,0-.02,0-.03,0,0,0,0,0,0,0-.01,0-.02,0-.03,0,0,0,0,0-.01,0,0,0-.02,0-.03,0,0,0-.01,0-.02,0-.01,0-.02,0-.03,0-.01,0-.02,0-.03,0,0,0-.01,0-.02,0,0,0-.02,0-.03,0,0,0-.01,0-.02,0-.01,0-.02,0-.03,0h-.01s-.02,0-.04,0h0s-.03,0-.04,0h0c-1.31.17-2.63.33-3.95.46l.96,9.67c1.92-.19,3.87-.43,5.78-.7l-1.39-9.61h0Zm8.5-1.53c-1.68.37-3.37.7-5.08.99h0s-.02,0-.03,0c0,0-.01,0-.02,0,0,0-.01,0-.02,0,0,0-.02,0-.02,0,0,0-.01,0-.02,0-.01,0-.02,0-.03,0,0,0,0,0,0,0-.02,0-.04,0-.05,0l1.64,9.57c1.91-.33,3.83-.7,5.72-1.11l-2.06-9.49h0Zm8.37-2.13c-.26.08-.51.15-.77.22h0s-.06.02-.08.03h0s-.04.01-.06.02c-.01,0-.02,0-.03,0-.01,0-.02,0-.04.01-.01,0-.02,0-.03,0h-.05s-.02.02-.04.02c-.01,0-.03,0-.04.01-.02,0-.03,0-.05.01,0,0-.02,0-.03,0-.02,0-.04.01-.06.02,0,0-.02,0-.02,0-.02,0-.04.01-.06.02,0,0-.01,0-.02,0-.02,0-.04.01-.06.02,0,0,0,0-.01,0-.02,0-.04.01-.07.02,0,0,0,0-.01,0-.02,0-.05.01-.07.02,0,0,0,0-.01,0-.02,0-.05.01-.07.02,0,0,0,0,0,0-.03,0-.05.01-.07.02,0,0,0,0,0,0-.05.01-.1.03-.16.04,0,0,0,0,0,0-.03,0-.05.01-.08.02,0,0,0,0,0,0-.62.17-1.25.34-1.87.5,0,0,0,0,0,0-.03,0-.05.01-.08.02,0,0,0,0,0,0-.08.02-.16.04-.24.06,0,0,0,0,0,0-.03,0-.05.01-.08.02,0,0,0,0,0,0-.03,0-.05.01-.08.02,0,0,0,0,0,0-.05.01-.1.03-.16.04,0,0,0,0,0,0-.03,0-.05.01-.08.02,0,0,0,0,0,0-.02,0-.05.01-.08.02,0,0,0,0,0,0-.03,0-.05.01-.08.02,0,0,0,0,0,0-.03,0-.05.01-.08.02,0,0,0,0,0,0-.03,0-.05.01-.08.02,0,0,0,0,0,0-.03,0-.05.01-.07.02,0,0,0,0-.01,0-.03,0-.05.01-.07.02,0,0,0,0,0,0-.02,0-.05.01-.08.02,0,0,0,0,0,0l2.31,9.43c1.88-.46,3.77-.97,5.63-1.51l-2.73-9.32h0Zm8.19-2.72c-1.68.63-3.38,1.22-5.1,1.77l2.98,9.25c1.84-.59,3.69-1.23,5.51-1.91l-3.38-9.1h0Zm7.98-3.29c-.27.12-.53.24-.8.36h0s-.05.02-.07.03c0,0-.01,0-.02,0-.02,0-.03.01-.05.02-.01,0-.02.01-.04.02,0,0-.02,0-.03.01l-.05.02s-.02,0-.02.01c-.02,0-.04.02-.06.03,0,0-.01,0-.02,0-.02,0-.04.02-.06.03,0,0,0,0-.01,0-.02,0-.04.02-.07.03,0,0,0,0,0,0-.02,0-.05.02-.07.03,0,0,0,0,0,0-.02.01-.05.02-.07.03,0,0,0,0,0,0-.02.01-.05.02-.07.03,0,0,0,0,0,0-.1.05-.2.09-.31.13h0c-.1.04-.21.09-.31.13h0s-.05.02-.08.03c0,0,0,0,0,0-.02.01-.05.02-.08.03,0,0,0,0,0,0-.02.01-.05.02-.07.03,0,0,0,0,0,0-.05.02-.1.04-.15.06,0,0,0,0,0,0-.02,0-.05.02-.07.03,0,0,0,0-.01,0-.02,0-.04.02-.06.03,0,0-.01,0-.02,0-.02,0-.04.02-.06.03,0,0-.01,0-.02,0-.02,0-.03.01-.05.02,0,0-.02,0-.03.01-.01,0-.03.01-.05.02-.01,0-.02,0-.03.01-.01,0-.03.01-.05.02,0,0-.02,0-.03.01-.01,0-.03.01-.05.02-.01,0-.02.01-.04.02,0,0-.02,0-.02.01-.02,0-.04.02-.06.03,0,0-.01,0-.01,0-.02.01-.05.02-.07.03h0c-.56.24-1.12.47-1.68.69l3.63,9.01c1.79-.72,3.6-1.49,5.36-2.29l-4.02-8.84h0Zm7.73-3.85c-.59.32-1.18.64-1.78.95,0,0,0,0,0,0-.02.01-.05.03-.07.04,0,0,0,0,0,0-.02.01-.05.02-.07.04,0,0,0,0,0,0-.08.04-.15.08-.22.11,0,0,0,0,0,0-.02.01-.05.02-.07.04,0,0,0,0,0,0-.02.01-.05.02-.07.04,0,0,0,0,0,0-.02.01-.04.02-.07.03,0,0,0,0,0,0-.02.01-.05.02-.07.04,0,0,0,0,0,0-.02.01-.04.02-.07.03,0,0,0,0,0,0-.02.01-.05.02-.07.03h-.01s-.04.03-.06.04c0,0-.01,0-.02,0-.02.01-.04.02-.06.03,0,0-.01,0-.02,0-.02.01-.04.02-.06.03,0,0,0,0-.01,0-.02,0-.04.02-.06.03,0,0-.01,0-.02,0-.02,0-.04.02-.05.03,0,0-.01,0-.02.01-.02,0-.04.02-.05.03,0,0-.02,0-.02.01-.02.01-.03.02-.05.03,0,0-.02,0-.03.01-.02,0-.03.02-.05.03,0,0-.02,0-.03.01-.01,0-.03.01-.04.02-.01,0-.03.01-.04.02-.01,0-.02.01-.03.02-.02,0-.03.02-.05.02-.01,0-.02,0-.03.01-.02,0-.03.02-.05.02-.01,0-.02,0-.03.01-.01,0-.03.01-.04.02,0,0,0,0,0,0-.02.01-.05.02-.07.04,0,0,0,0-.01,0-.02.01-.05.02-.07.04h0s-.05.03-.08.04h0c-.34.17-.68.34-1.02.5l4.25,8.73c1.74-.85,3.48-1.74,5.18-2.67l-4.64-8.54h0Zm7.44-4.39c-1.51.97-3.05,1.9-4.61,2.8l4.86,8.41c1.67-.97,3.35-1.98,4.98-3.02l-5.23-8.19h0Zm7.11-4.9c-.08.06-.15.11-.23.17h0s-.05.04-.07.06h0s-.05.04-.07.06h0c-1.28.95-2.59,1.87-3.91,2.76,0,0,0,0,0,0-.02.01-.04.03-.06.04,0,0,0,0-.01,0l-.03.02,5.44,8.05c1.6-1.08,3.2-2.21,4.75-3.37l-5.79-7.8h0Zm6.75-5.38c-1.36,1.17-2.76,2.31-4.17,3.42l5.99,7.65c1.52-1.19,3.04-2.43,4.5-3.69l-6.32-7.38h0Zm6.35-5.84c-.23.22-.46.45-.68.67,0,0-.01,0-.02.02-.01.01-.03.03-.04.04,0,0-.02.02-.02.02,0,0-.02.02-.03.03-.01.01-.03.03-.04.04,0,0-.01.01-.02.02-.01.01-.03.03-.05.05,0,0,0,0-.01.01-.02.02-.03.03-.05.05,0,0,0,0,0,0-.97.94-1.95,1.86-2.95,2.76l6.51,7.21c1.43-1.3,2.86-2.64,4.23-4l-6.82-6.91h0Zm5.93-6.27c-.75.85-1.51,1.69-2.28,2.52,0,0,0,0-.01.01-.02.02-.03.03-.05.05,0,0,0,.01-.02.02-.01.02-.03.03-.04.05,0,0-.01.01-.02.02-.01.01-.03.03-.04.04,0,0-.01.01-.02.02-.01.01-.02.02-.03.03-.01.01-.02.02-.03.03,0,0-.02.02-.02.02-.01.01-.03.03-.04.04,0,0-.01.02-.02.02-.01.01-.03.03-.04.04,0,0-.01.01-.02.02-.01.01-.03.03-.04.04,0,0-.01.02-.02.02-.01.01-.03.03-.04.04,0,0,0,0-.01.01-.02.02-.03.03-.05.05,0,0,0,0-.01.01-.02.02-.03.04-.05.05,0,0,0,0,0,0-.02.02-.03.04-.05.05,0,0,0,0,0,0-.02.02-.03.04-.05.06,0,0,0,0,0,0-.21.23-.42.45-.64.67l7,6.73c1.34-1.39,2.67-2.83,3.94-4.28l-7.29-6.42h0Zm5.48-6.67s0,0,0,0c-.01.02-.03.04-.04.06,0,0,0,0,0,0-.01.02-.03.03-.04.05,0,0,0,.01-.01.02-.01.02-.03.03-.04.05,0,0-.01.01-.02.02-.01.02-.02.03-.04.05,0,0-.01.02-.02.03-.01.02-.02.02-.03.04,0,.01-.02.02-.02.03,0,0-.01.01-.02.02-.01.02-.03.03-.04.05,0,0,0,0-.01.02-.02.02-.03.04-.04.06,0,0,0,0,0,0-.5.64-1,1.28-1.5,1.91h0s-.03.05-.05.07c0,0,0,0,0,.01-.01.02-.03.04-.04.06,0,0-.01.01-.01.02-.01.02-.03.03-.04.05,0,0,0,.01-.01.02,0,.01-.02.02-.03.03,0,.01-.02.03-.03.04,0,0-.01.02-.02.03,0,.01-.02.02-.03.03,0,.01-.02.02-.03.03,0,.01-.02.02-.03.04,0,0-.02.02-.02.03,0,.01-.02.02-.03.04,0,0-.01.02-.02.02-.01.02-.02.03-.04.05,0,0,0,.01-.01.02-.01.02-.03.03-.04.05,0,0,0,0-.01.01-.01.02-.03.04-.04.05,0,0,0,0,0,0-.02.02-.03.04-.05.06,0,0,0,0,0,0-.28.35-.57.69-.86,1.04l7.46,6.23c1.24-1.48,2.46-3.01,3.63-4.55l-7.72-5.89h0Zm4.99-7.04c-.52.79-1.04,1.57-1.58,2.34h0s-.03.05-.05.07c0,0,0,0,0,0-.01.02-.03.04-.04.06,0,0,0,.01-.01.01,0,.01-.02.02-.02.04,0,0,0,0,0,0-.01.02-.03.04-.04.06,0,0-.01.01-.01.02-.01.02-.02.03-.03.05,0,0-.01.02-.02.03-.01.01-.02.03-.03.04,0,0-.01.02-.02.03,0,.01-.02.02-.03.04,0,.01-.02.02-.03.04,0,0-.01.02-.02.02-.01.02-.02.03-.03.05,0,0-.01.01-.02.02-.01.02-.02.03-.04.05,0,0,0,.01-.01.02-.01.02-.02.04-.04.05,0,0,0,0,0,.01-.01.02-.03.04-.04.06,0,0,0,0,0,0-.02.02-.03.04-.04.06,0,0,0,0,0,0-.01.02-.03.04-.04.06,0,0,0,0,0,0-.02.02-.03.04-.05.06,0,0,0,0,0,0-.26.37-.52.73-.78,1.09l7.87,5.69c1.13-1.57,2.24-3.18,3.31-4.79l-8.12-5.34h0Zm4.49-7.38c-.21.38-.43.76-.64,1.13,0,0,0,0,0,.01-.01.02-.02.04-.04.06,0,0,0,.01-.01.02,0,.01-.02.03-.02.04,0,.01-.02.03-.02.04,0,.01-.01.02-.02.03,0,.01-.02.03-.03.05,0,0,0,.02-.01.03,0,.02-.02.04-.03.05,0,0,0,.01,0,.02,0,.02-.02.04-.03.06,0,0,0,0,0,0-.01.02-.02.04-.04.06,0,0,0,0,0,0-.01.02-.03.04-.04.07h0s-.03.05-.04.07c0,0,0,0,0,0-.57.97-1.14,1.93-1.74,2.89l8.25,5.12c1.02-1.64,2.02-3.33,2.96-5.02l-8.47-4.75h0Zm3.95-7.67c-.65,1.37-1.32,2.74-2.02,4.08,0,0,0,0,0,0-.01.02-.02.05-.04.07,0,0,0,0,0,0-.01.02-.02.04-.04.07,0,0,0,0,0,0-.02.05-.05.09-.07.14,0,0,0,0,0,.01-.01.02-.02.04-.03.06,0,0,0,.01,0,.02-.01.02-.02.04-.03.06v.02s-.03.04-.04.06c0,0,0,.01,0,.02,0,.02-.02.03-.03.05,0,0-.01.02-.02.03,0,.01-.01.03-.02.04,0,.01-.01.02-.02.03,0,.01-.01.03-.02.04,0,0,0,.01,0,.02l8.6,4.53c.9-1.71,1.78-3.47,2.6-5.21l-8.79-4.14h0Zm3.4-7.93c-.12.31-.24.63-.37.94,0,0,0,0,0,0,0,.02-.02.04-.03.07,0,0,0,.01,0,.02,0,.02-.02.04-.02.06,0,0,0,.01,0,.02,0,.02-.02.04-.02.06,0,0,0,.02-.01.03,0,.01-.01.03-.02.04,0,.01-.01.03-.02.04,0,.01,0,.02-.01.03,0,.02-.01.03-.02.05,0,.01,0,.02-.01.03,0,.02-.01.04-.02.05,0,0,0,.02-.01.03,0,.01-.01.03-.02.04,0,0,0,0,0,.01,0,.02-.02.05-.03.07,0,0,0,0,0,0,0,.03-.02.05-.03.08h0s-.02.06-.03.09h0c-.04.1-.08.2-.12.3h0c-.12.29-.24.57-.35.86h0s-.02.06-.03.09h0s-.04.09-.05.13h0s-.02.05-.03.08c0,0,0,.01,0,.02,0,.02-.02.04-.02.06,0,0,0,.02-.01.03,0,.02-.01.03-.02.05,0,.01-.01.03-.02.04,0,.01,0,.02-.01.03,0,.02-.01.03-.02.05,0,0,0,.02-.01.03,0,.02-.02.04-.02.05,0,0,0,.02-.01.02,0,.01-.02.04-.02.05,0,0,0,.02-.01.02,0,.02-.01.03-.02.05,0,0,0,.01,0,.02,0,.02-.02.04-.03.07,0,0,0,0,0,.01,0,.02-.02.05-.03.07,0,0,0,0,0,.01,0,.02-.02.05-.03.07,0,0,0,0,0,0-.14.34-.29.67-.43,1l8.89,3.91c.78-1.77,1.53-3.58,2.22-5.39l-9.06-3.51h0Zm2.83-8.16c-.1.32-.2.65-.3.97,0,0,0,0,0,0,0,.02-.02.05-.02.08,0,0,0,0,0,0,0,.03-.02.05-.02.08,0,0,0,0,0,0,0,.03-.02.05-.02.07,0,0,0,0,0,0,0,.02-.02.05-.02.07,0,0,0,0,0,.01,0,.02-.01.04-.02.07,0,0,0,.01,0,.02,0,.02-.01.04-.02.06,0,0,0,.01,0,.02,0,.02-.01.04-.02.06,0,0,0,.01,0,.02,0,.02-.01.04-.02.05,0,0,0,.02,0,.03,0,.02-.01.03-.02.05,0,0,0,.01,0,.02,0,.02-.01.04-.02.06,0,0,0,.02,0,.02,0,.02-.01.04-.02.06,0,0,0,.02,0,.02,0,.02-.01.04-.02.06,0,0,0,.02,0,.03,0,.02,0,.03-.02.05,0,0,0,.02,0,.03,0,.02-.01.03-.02.05,0,0,0,.02,0,.02,0,.02-.01.04-.02.06,0,0,0,.01,0,.02,0,.02-.01.04-.02.06,0,0,0,.02,0,.02,0,.02-.01.04-.02.06,0,0,0,.01,0,.02,0,.02-.01.04-.02.06,0,0,0,.01,0,.02,0,.02-.01.04-.02.07,0,0,0,0,0,.01,0,.02-.01.04-.02.07,0,0,0,.01,0,.02l-.02.07s0,0,0,.01c0,.02-.02.05-.02.07,0,0,0,0,0,0-.02.05-.03.1-.05.15h0s-.02.06-.03.08c0,0,0,0,0,0-.24.72-.49,1.43-.74,2.15l9.15,3.27c.65-1.82,1.27-3.68,1.84-5.53l-9.28-2.86h0Zm2.24-8.34c-.29,1.23-.59,2.46-.91,3.68,0,0,0,0,0,0,0,.02-.01.05-.02.07,0,0,0,0,0,.01,0,.02-.01.05-.02.07,0,0,0,0,0,.01,0,.02-.01.04-.02.06v.02s-.02.04-.02.06c0,0,0,.02,0,.02,0,.02-.01.04-.02.06,0,0,0,.02,0,.03,0,.02,0,.03-.01.05,0,.01,0,.02,0,.03,0,.01,0,.02,0,.03,0,.02-.01.04-.02.06,0,0,0,.01,0,.02,0,.03-.01.05-.02.08,0,0,0,0,0,0-.08.28-.15.56-.23.84l9.36,2.61c.52-1.86,1-3.76,1.44-5.65l-9.46-2.19h0Zm1.65-8.47c-.06.36-.12.72-.18,1.08h0s0,.03,0,.04c0,0,0,0,0,0,0,.01,0,.02,0,.03,0,0,0,0,0,.01,0,.01,0,.02,0,.03,0,0,0,0,0,.01,0,.01,0,.02,0,.03,0,0,0,0,0,.01,0,.03,0,.06-.01.09,0,0,0,.02,0,.03,0,0,0,.01,0,.02v.03s0,.01,0,.02c0,0,0,.02,0,.03,0,0,0,0,0,.02,0,.01,0,.02,0,.03,0,0,0,0,0,.01,0,.01,0,.02,0,.04h0s0,.04,0,.05h0c-.21,1.24-.44,2.47-.69,3.69l9.52,1.94c.39-1.89.73-3.82,1.04-5.73l-9.59-1.52h0Zm1.05-8.57c-.03.39-.07.79-.11,1.18,0,0,0,0,0,0,0,.01,0,.02,0,.04,0,0,0,0,0,0,0,.01,0,.02,0,.04,0,0,0,0,0,0,0,.04,0,.06,0,.1,0,0,0,.02,0,.02,0,0,0,.02,0,.02,0,0,0,.02,0,.02,0,0,0,.02,0,.02,0,0,0,.02,0,.02,0,0,0,.01,0,.02v.03s0,0,0,.02c0,.01,0,.02,0,.03,0,0,0,0,0,.01,0,.01,0,.03,0,.04h0s0,.07,0,.1h0s0,.03,0,.05h0s0,.03,0,.05h0c-.1,1.03-.22,2.06-.35,3.08h0s0,.03,0,.05c0,0,0,.01,0,.01,0,0,0,.02,0,.03,0,0,0,.01,0,.02,0,0,0,.01,0,.02,0,0,0,.02,0,.03,0,0,0,0,0,.01,0,.01,0,.02,0,.03,0,0,0,0,0,0-.01.08-.02.16-.03.25l9.63,1.26c.25-1.91.46-3.86.63-5.79l-9.68-.84h0Zm.44-8.62c0,.43-.02.86-.03,1.29h0s0,.07,0,.1h0s0,.07,0,.1h0s0,.03,0,.05c0,0,0,0,0,.01,0,.01,0,.02,0,.03,0,0,0,0,0,.02,0,0,0,.02,0,.03,0,0,0,.01,0,.02,0,0,0,.02,0,.03,0,0,0,.01,0,.02,0,0,0,.02,0,.03,0,0,0,.02,0,.02,0,.01,0,.02,0,.03,0,.01,0,.03,0,.04,0,0,0,.01,0,.02,0,.01,0,.02,0,.03,0,0,0,0,0,.01,0,.01,0,.02,0,.03,0,0,0,0,0,0,0,.01,0,.02,0,.03,0,0,0,0,0,0,0,.01,0,.02,0,.04h0c-.04,1.14-.09,2.28-.16,3.41l9.7.58c.12-1.92.19-3.88.22-5.81l-9.71-.16h0Zm9.54-9.15l-9.7.51c.09,1.79.15,3.59.17,5.39l9.71-.09c-.02-1.93-.08-3.89-.18-5.81h0Zm-.82-9.28l-9.64,1.19c0,.05.01.1.02.15,0,0,0,.01,0,.02,0,0,0,.01,0,.02,0,0,0,.02,0,.03,0,0,0,.01,0,.02,0,.01,0,.02,0,.03h0c.2,1.69.37,3.39.51,5.1l9.68-.77c-.15-1.93-.35-3.88-.59-5.79h0Zm-1.47-9.2l-9.53,1.87c.06.3.12.6.17.9,0,0,0,0,0,.01,0,0,0,.02,0,.02,0,0,0,.01,0,.02,0,0,0,.01,0,.02,0,0,0,.02,0,.02,0,0,0,.01,0,.02,0,0,0,.02,0,.02,0,0,0,.01,0,.02,0,0,0,.02,0,.03,0,0,0,.01,0,.01,0,.05.02.09.03.14h0s0,.03,0,.05h0s0,.03,0,.05h0s0,.03,0,.05h0c.01.08.03.16.04.24h0s0,.03,0,.05h0c.02.11.04.22.06.33h0s0,.03,0,.05h0s0,.03,0,.05h0c.02.09.03.19.05.28h0s0,.03,0,.05h0c.01.08.03.16.04.24h0s0,.03,0,.05h0s0,.03,0,.04h0s0,.04,0,.05h0s0,.04,0,.05h0s.01.06.02.1h0s0,.03,0,.05h0s0,.03,0,.04c0,0,0,0,0,.01,0,.01,0,.02,0,.03,0,0,0,0,0,.01,0,.01,0,.02,0,.03,0,0,0,0,0,.01,0,.01,0,.02,0,.04,0,0,0,0,0,0,0,.05.02.09.02.14,0,0,0,0,0,0,0,.01,0,.02,0,.04,0,0,0,0,0,.01,0,.01,0,.02,0,.03,0,0,0,0,0,.01,0,.01,0,.02,0,.03,0,0,0,0,0,.01,0,.01,0,.02,0,.03,0,0,0,0,0,.01.01.06.02.12.03.18h0s0,.03,0,.05h0s0,.03,0,.05h0c.08.51.16,1.02.24,1.52l9.61-1.44c-.29-1.91-.62-3.84-.99-5.74h0Zm-2.12-9.08l-9.38,2.54s.02.07.03.1h0s0,.03.01.05h0s0,.03.01.04h0s.02.06.02.09c0,0,0,.01,0,.02,0,0,0,.02,0,.03,0,0,0,.02,0,.02,0,0,0,.01,0,.02,0,.01,0,.02,0,.03,0,0,0,0,0,.01,0,0,0,.02,0,.03,0,0,0,0,0,.01,0,.01,0,.02,0,.03,0,0,0,0,0,0,.13.47.25.95.37,1.42,0,0,0,0,0,0,0,.01,0,.03,0,.04,0,0,0,0,0,0,0,.01,0,.02,0,.03,0,0,0,0,0,0,.01.05.03.1.04.16,0,0,0,0,0,0,0,.01,0,.02,0,.03,0,0,0,0,0,0,0,.01,0,.02,0,.03,0,0,0,.01,0,.02,0,0,0,.02,0,.02,0,0,0,.02,0,.02,0,0,0,.01,0,.02,0,0,0,.02,0,.02,0,0,0,.01,0,.02,0,0,0,.02,0,.03,0,0,0,.01,0,.02,0,.03.01.06.02.09h0s0,.03.01.04h0s0,.03,0,.04h0s0,.03,0,.05h0s0,.03.01.05h0c.11.46.22.92.33,1.38h0s0,.03,0,.04h0s0,.03,0,.04c0,0,0,0,0,.01,0,.01,0,.02,0,.03,0,0,0,0,0,.01,0,.01,0,.02,0,.03,0,0,0,.01,0,.02,0,0,0,.02,0,.03,0,.03.02.07.02.1,0,0,0,0,0,0,0,.02,0,.02,0,.04,0,0,0,0,0,0,.06.27.13.55.19.82l9.48-2.12c-.42-1.89-.89-3.79-1.4-5.66h0Zm-2.75-8.91l-9.17,3.2c.14.41.28.82.42,1.23h0s.02.06.03.09h0s.02.06.03.09h0s.03.09.04.14h0s.02.06.03.09h0s.02.06.03.09c0,0,0,0,0,.01,0,.03.02.05.03.08h0s.03.09.04.14h0s.02.06.03.09h0s.02.06.03.09h0c.29.88.57,1.76.83,2.65h0s.02.06.02.09c0,0,0,0,0,0,0,.02.01.05.02.07,0,0,0,.02,0,.02,0,.01,0,.03.01.04,0,.02,0,.03.01.05,0,.01,0,.02.01.03,0,.02,0,.03.01.04,0,0,0,.01,0,.02l9.31-2.79c-.56-1.85-1.16-3.72-1.8-5.54h0Zm-3.38-8.69l-8.92,3.84c.4.93.79,1.86,1.16,2.8,0,0,0,0,0,0,0,.02.02.05.03.07,0,0,0,0,0,0,0,.03.02.05.03.07,0,0,0,0,0,0,.01.03.02.05.03.07,0,0,0,0,0,0,.01.03.02.04.03.07,0,0,0,0,0,.01,0,.02.02.04.03.06,0,0,0,.01,0,.02,0,.02.02.04.02.06,0,0,0,.01,0,.02,0,.02.02.04.02.06v.02s.02.03.03.05c0,.01,0,.02.01.03,0,.01.01.03.02.04,0,.01,0,.02.01.04,0,.01.01.03.02.04,0,.01,0,.02.01.03,0,.01.01.03.02.05,0,.01.01.03.02.04,0,0,0,0,0,.01,0,.03.02.05.03.08h0s.02.06.03.09h0c.15.38.29.76.44,1.14l9.08-3.44c-.68-1.81-1.42-3.63-2.18-5.4h0Zm-3.99-8.43l-8.63,4.46c.25.48.5.97.74,1.45,0,0,0,.01,0,.02.01.02.02.04.03.06,0,0,0,.02.01.02,0,.02.02.03.02.05,0,.01.01.02.02.03,0,.01.01.02.02.03,0,.02.02.03.03.05,0,0,0,.02.01.03,0,.02.02.04.03.05,0,0,0,.02.01.02,0,.02.02.04.03.06,0,0,0,.01,0,.02,0,.02.02.04.03.05,0,0,0,.01,0,.02,0,.02.02.04.03.06,0,0,0,0,0,.01.01.02.02.04.03.06,0,0,0,.01,0,.02.01.02.02.04.03.06,0,0,0,0,0,.01.01.02.02.04.03.06,0,0,0,0,0,.01.01.02.02.05.03.07,0,0,0,0,0,0,.02.05.05.1.07.15,0,0,0,0,0,0,.01.02.02.05.04.07,0,0,0,0,0,0,.01.02.02.05.04.07,0,0,0,0,0,0,.18.38.37.76.55,1.14,0,0,0,0,0,0,.01.03.02.05.04.07,0,0,0,0,0,0,.01.02.02.05.04.07,0,0,0,0,0,0,.02.05.05.1.07.15,0,0,0,0,0,0,.01.02.02.05.03.07,0,0,0,0,0,0,.01.02.02.04.03.07,0,0,0,0,0,.01.01.02.02.04.03.06,0,0,0,0,0,.01,0,.02.02.04.03.06,0,0,0,0,0,.01.01.02.02.04.03.06,0,0,0,.01,0,.02,0,.02.01.03.02.05v.03s.03.04.04.05c0,0,0,.02.01.03,0,.01.02.04.02.05,0,.01,0,.02.01.03,0,.01.01.02.02.04,0,.02.01.03.02.05,0,0,0,.02.01.02,0,.01,0,.02.01.03l8.82-4.08c-.81-1.75-1.67-3.52-2.56-5.23h0Zm-4.57-8.12l-8.29,5.06c.17.27.33.55.5.82h0s.03.05.04.07c0,0,0,0,0,.01.01.02.02.04.04.06v.02s.03.03.04.04c0,0,.02.03.02.04,0,.01.01.02.02.03,0,.02.02.03.03.05,0,0,0,.02.01.03.01.02.02.03.03.05,0,0,0,.01.01.02,0,.02.02.04.03.05,0,0,0,0,0,.01.01.02.02.04.04.06,0,0,0,0,0,0,.01.02.03.04.04.07,0,0,0,0,0,0,.01.02.03.05.04.07,0,0,0,0,0,0,.49.82.96,1.65,1.43,2.48,0,0,0,0,0,0,.01.02.03.05.04.07h0s.02.05.04.07c0,0,0,0,0,0,.01.02.02.04.03.06,0,0,0,0,0,.01.01.02.02.04.03.06,0,0,0,.01.01.02,0,.02.02.03.03.05,0,0,.01.02.02.03,0,.01.02.03.02.04,0,.01.01.02.02.04,0,0,0,.01,0,.02.01.02.02.04.04.07h0s.04.08.06.12l8.51-4.69c-.93-1.69-1.92-3.39-2.92-5.04h0Zm-5.13-7.78l-7.92,5.63c.25.35.5.7.74,1.06,0,0,0,0,0,.01.01.02.03.04.04.06,0,0,.01.02.02.02,0,.01.02.03.03.04,0,0,.02.02.02.03,0,0,.01.02.02.02.01.02.02.03.03.05,0,0,.01.02.02.02.01.02.02.03.03.05,0,0,0,.01.01.02.01.02.02.04.04.05,0,0,0,.01.01.02.01.02.03.04.04.06,0,0,0,0,0,0,.01.02.03.04.04.06,0,0,0,0,0,0,.01.02.03.04.04.06,0,0,0,0,0,0,.02.02.03.04.04.06,0,0,0,0,0,0,.01.02.03.05.04.06,0,0,0,0,0,0,.44.65.88,1.3,1.31,1.96,0,0,0,0,0,0,.01.02.03.04.04.07,0,0,0,0,0,0,.01.02.03.04.04.07,0,0,0,0,0,0,.04.07.09.14.13.21,0,0,0,0,0,0,.01.02.03.04.04.07,0,0,0,0,0,0,.01.02.03.04.04.06,0,0,0,0,0,0,.01.02.03.04.04.06,0,0,0,0,0,0,.01.02.03.05.04.07,0,0,0,0,0,0,.01.02.03.04.04.07,0,0,0,0,0,0l8.16-5.28c-1.05-1.62-2.15-3.24-3.27-4.82h0Zm-5.66-7.4l-7.5,6.17c.26.32.52.64.78.96h0s.06.07.09.11c0,0,0,0,0,0,.02.02.03.04.05.06,0,0,0,.01.02.02.01.02.03.03.04.05,0,0,.01.02.02.02.01.01.02.03.03.04,0,0,.02.02.02.03,0,.01.02.02.03.03,0,.01.02.02.03.04,0,0,.01.02.02.02.01.01.02.03.04.04,0,0,.01.01.02.02.01.01.03.03.04.05,0,0,0,.01.01.02.01.02.03.03.04.05,0,0,0,0,.01.01.01.01.03.04.04.05,0,0,0,0,0,0,.02.02.03.04.05.06,0,0,0,0,0,0,.01.02.03.04.05.06,0,0,0,0,0,0,.01.02.03.04.05.06,0,0,0,0,0,0,.02.02.03.04.05.06,0,0,0,0,0,0,.61.77,1.21,1.55,1.8,2.34l7.76-5.84c-1.16-1.54-2.37-3.08-3.6-4.58h0Zm-6.17-6.98l-7.05,6.68c1.24,1.31,2.45,2.64,3.62,4l7.34-6.37c-1.27-1.46-2.58-2.91-3.91-4.31h0Zm-6.64-6.53l-6.57,7.16c.21.19.41.38.62.57,0,0,0,0,0,0,.12.11.24.23.37.34,0,0,0,0,0,0,.02.02.04.04.06.06,0,0,0,0,0,0,.96.9,1.91,1.82,2.84,2.76l6.87-6.86c-1.37-1.37-2.78-2.72-4.2-4.03h0Zm-7.08-6.05l-6.05,7.6c.99.79,1.97,1.59,2.93,2.41,0,0,0,0,0,0,.02.02.04.03.06.05,0,0,0,0,0,0,.02.01.04.03.05.05,0,0,0,0,.01.01.02.01.03.03.05.04,0,0,.01,0,.02.01.02.01.03.03.05.04,0,0,.01,0,.02.01.01.01.02.02.04.03,0,0,.02.02.03.02.01,0,.02.02.04.03,0,0,.02.02.03.02.01,0,.02.02.04.03,0,0,.02.01.03.02.01,0,.03.02.04.03,0,0,.02.02.03.03,0,0,.01.01.02.02.02.01.03.03.05.04,0,0,.01,0,.01.01.02.02.04.03.06.05,0,0,0,0,0,0,.02.02.04.04.06.05h0c.16.14.32.28.47.41l6.38-7.33c-1.46-1.27-2.96-2.52-4.48-3.72h0Zm-7.49-5.54l-5.5,8.01c1.48,1.02,2.95,2.07,4.38,3.15l5.85-7.76c-1.54-1.16-3.13-2.31-4.73-3.4h0Zm-7.86-5l-4.92,8.37c.39.23.77.46,1.16.69h0s.05.03.07.04c0,0,0,0,0,0,.02.01.04.03.07.04,0,0,0,0,0,0,.02.01.04.03.07.04,0,0,0,0,0,0,.05.03.1.06.14.09,0,0,0,0,0,0,.02.01.04.03.07.04,0,0,0,0,0,0,.02.01.04.03.06.04,0,0,0,0,0,0,.02.01.04.02.06.04,0,0,0,0,.01,0,.02.01.04.03.06.04,0,0,0,0,0,0,.02.01.04.03.07.04,0,0,0,0,0,0,.02.01.04.03.07.04,0,0,0,0,0,0,.02.01.04.03.06.04,0,0,0,0,.01,0,.02.01.04.03.06.04,0,0,0,0,.01,0,.02.01.04.02.06.04,0,0,0,0,0,0,.02.01.05.03.06.04,0,0,0,0,0,0,.02.01.04.03.06.04,0,0,0,0,0,0,.02.01.04.03.06.04,0,0,0,0,0,0,.02.01.04.02.06.04,0,0,0,0,.01,0,.02.01.04.03.06.04,0,0,0,0,.01,0,.02.01.04.02.06.04h.01s.04.03.06.05c0,0,0,0,0,0,.02.01.04.03.06.04,0,0,0,0,0,0l.06.04s0,0,.01,0c.02.01.04.02.06.04,0,0,.01,0,.02,0,.02.01.04.02.06.04,0,0,.01,0,.02,0,.02.01.04.02.06.04,0,0,0,0,.02,0,.02.01.04.02.06.04h.01s.03.03.05.04c0,0,.01,0,.02.01.02.01.03.02.05.03,0,0,.01,0,.02.01.02.01.04.02.05.03,0,0,.02.01.02.02.02.01.03.02.05.03,0,0,.02.01.03.02.01,0,.03.02.04.02.01,0,.02.02.04.02,0,0,.02.01.03.02.02.01.03.02.05.03,0,0,.01,0,.02.01.02.01.04.03.06.04,0,0,0,0,.01,0,.32.2.63.4.94.61l5.29-8.15c-1.62-1.05-3.29-2.08-4.95-3.06h0Zm-8.2-4.44l-4.32,8.7c.07.03.14.07.2.1h0s.03.02.04.02c.01,0,.03.02.04.02,0,0,.02,0,.03.01.02,0,.03.02.05.03,0,0,.01,0,.02,0,.02,0,.04.02.06.03,0,0,0,0,0,0,.02.01.04.02.07.03,0,0,0,0,0,0,.02.01.05.02.07.04,0,0,0,0,0,0,1.41.71,2.8,1.44,4.17,2.2l4.7-8.5c-1.69-.94-3.43-1.85-5.16-2.71h0Zm-8.49-3.85l-3.69,8.98s.01,0,.02,0,.01,0,.02,0c.02,0,.04.02.06.02.01,0,.02,0,.03.01.02,0,.03.01.05.02.01,0,.02,0,.03.01.01,0,.03.01.04.02.01,0,.03.01.04.02.01,0,.02,0,.03.01.02,0,.03.01.05.02,0,0,.02,0,.03.01.02,0,.04.02.05.02,0,0,.02,0,.02.01.01,0,.04.02.05.02,0,0,.02,0,.03.01.01,0,.03.01.04.02.01,0,.02,0,.03.01.01,0,.03.01.05.02,0,0,.02,0,.03.01.02,0,.04.02.06.02,0,0,.02,0,.02.01.02,0,.04.02.06.02,0,0,.02,0,.02.01.02,0,.04.01.05.02,0,0,.02,0,.03.01.01,0,.03.01.05.02.01,0,.02,0,.03.01.02,0,.03.01.05.02,0,0,.02,0,.03.01.02,0,.04.02.05.02h.03s.04.03.05.03c.01,0,.02,0,.03.01.01,0,.03.01.04.02.01,0,.03.01.04.02.01,0,.02,0,.03.01.02,0,.03.01.05.02.01,0,.02,0,.03.01.02,0,.04.02.05.02,0,0,.02,0,.02.01.04.02.08.03.12.05,0,0,0,0,.01,0,.02.01.05.02.07.03,0,0,0,0,.01,0,.02.01.05.02.07.03h0c1.04.45,2.08.92,3.11,1.39l4.09-8.81c-1.75-.81-3.55-1.6-5.34-2.33h0Zm-8.74-3.24l-3.05,9.22c.56.19,1.12.37,1.68.57h0s.05.02.07.03c0,0,0,0,.01,0,.02,0,.05.02.07.02,0,0,0,0,.01,0,.02,0,.05.02.07.02,0,0,0,0,.01,0,.02,0,.04.02.06.02,0,0,0,0,.01,0,.02,0,.04.01.06.02,0,0,.01,0,.02,0,.02,0,.04.01.06.02,0,0,.02,0,.02,0,.02,0,.04.01.06.02,0,0,.02,0,.03,0,.02,0,.04.01.06.02,0,0,.02,0,.03,0,.02,0,.03.01.04.02.01,0,.03,0,.04.01.01,0,.03.01.04.01.01,0,.02,0,.03.01.02,0,.03.01.05.02.01,0,.02,0,.03.01.01,0,.04.01.05.02.01,0,.02,0,.03.01.01,0,.03,0,.04.01.01,0,.03,0,.04.01.01,0,.03,0,.04.01.01,0,.03.01.04.02.01,0,.03,0,.04.01.01,0,.02,0,.03.01.02,0,.03.01.05.02,0,0,.02,0,.03.01.02,0,.04.01.05.02.01,0,.02,0,.03.01.01,0,.03.01.05.02.01,0,.02,0,.04.01.01,0,.03,0,.04.01h.04s.03.02.05.03c0,0,.02,0,.02,0,.02,0,.04.01.06.02,0,0,.01,0,.02,0,.02,0,.04.01.06.02,0,0,.01,0,.02,0,.02,0,.04.02.06.02,0,0,0,0,.01,0,.02,0,.04.02.07.02,0,0,0,0,0,0,.03,0,.05.02.07.03,0,0,0,0,0,0,.03,0,.05.02.07.03h0s.05.02.07.03h0c.42.16.84.31,1.26.47l3.45-9.08c-1.81-.69-3.66-1.34-5.49-1.95h0Zm-8.95-2.61l-2.38,9.42c.26.07.52.13.78.2h0s.05.02.08.02h.01s.08.03.13.04c.02,0,.02,0,.04,0,.02,0,.03,0,.05.01.01,0,.03,0,.04.01.01,0,.03,0,.04.01.02,0,.03,0,.05.01,0,0,.02,0,.02,0,.02,0,.04.01.06.02,0,0,.02,0,.02,0,.02,0,.04.01.06.02,0,0,.01,0,.02,0,.02,0,.05.01.07.02,0,0,0,0,.01,0,.02,0,.05.01.07.02,0,0,0,0,0,0,.02,0,.05.01.07.02,0,0,0,0,0,0,.03,0,.05.01.07.02,0,0,0,0,0,0,.03,0,.05.01.08.02,0,0,0,0,0,0,1.14.31,2.27.63,3.4.97l2.8-9.3c-1.85-.56-3.74-1.08-5.62-1.55h0Zm-9.11-1.97l-1.71,9.56c1.54.27,3.07.58,4.58.91,0,0,0,0,.01,0,0,0,.01,0,.02,0,0,0,.02,0,.02,0s0,0,.02,0c.01,0,.02,0,.03,0,0,0,0,0,.01,0,.01,0,.03,0,.04,0h0c.18.04.36.08.55.12l2.13-9.48c-1.89-.42-3.81-.81-5.71-1.15h0Zm-9.22-1.32l-1.03,9.66c1.79.19,3.58.42,5.35.69l1.46-9.6c-1.91-.29-3.85-.54-5.77-.75h0Zm-9.29-.66l-.35,9.71s.01,0,.02,0c0,0,0,0,.01,0,.01,0,.02,0,.03,0,0,0,.01,0,.02,0,0,0,.02,0,.03,0,.05,0,.1,0,.15,0h0c1.72.07,3.43.17,5.13.31l.78-9.68c-1.92-.15-3.88-.27-5.81-.34h0Zm-4.92-.09v9.71h.07s.01,0,.02,0c.02,0,.04,0,.07,0h.02s.04,0,.06,0h.02s.04,0,.06,0c0,0,.02,0,.02,0,.02,0,.04,0,.06,0,0,0,.02,0,.03,0,.02,0,.03,0,.05,0h.04s.03,0,.04,0c.01,0,.02,0,.03,0,.02,0,.04,0,.05,0,.01,0,.03,0,.04,0s.02,0,.03,0c.02,0,.04,0,.06,0,0,0,.02,0,.02,0,.05,0,.09,0,.14,0h0c.13,0,.25,0,.38,0l.1-9.71c-.48,0-.95,0-1.43,0h0Z" style="fill: #41c2d9; stroke-width: 0px;"/>
        <circle cx="132.21" cy="132.21" r="122.5" style="fill: none; stroke: #fff; stroke-miterlimit: 10; stroke-width: 15.11px;"/>
        <circle cx="132.21" cy="132.21" r="122.5" style="fill: #41c2d9; opacity: .39; stroke-width: 0px;"/>
      </g>
      <g>
        <g>
          <g>
            <polygon points="203.57 142.1 100.82 139.72 67.7 143.75 67.7 160.39 133.2 175.14 203.54 155.19 203.57 154.83 203.57 142.1" style="fill: #fff; stroke-width: 0px;"/>
            <path d="m136.64,161.04v13.41l-67.9-13.83s-3.71-14.07,1.25-16.39c4.96-2.32,66.65,16.81,66.65,16.81Z" style="fill: #c6d2db; stroke-width: 0px;"/>
            <polygon points="204.54 139.12 191.91 142.07 140.99 132.23 82.16 143.7 68.75 140.92 68.75 146.32 136.64 161.04 204.54 144.52 204.54 139.12" style="fill: #2a95f5; stroke-width: 0px;"/>
            <polygon points="204.54 139.12 136.64 155.64 68.75 140.92 140.99 126.83 204.54 139.12" style="fill: #45c0ff; stroke-width: 0px;"/>
            <path d="m199.44,155.76s-62.66,16.69-63.59,16.69c-.84,0-54.91-10.93-65.36-12.92-2.09-5.03.2-13.22.2-13.22l-.68-2.08h-.01c1.34-1.94-1.25-3.31-1.25-3.31,0,0-1.8-.59-3,4.65-.4,1.73-.53,4.09-.53,6.48,0,.1.14,8.12,1.45,10.06l68.78,16.03,69.63-19.89v-3.96l-5.63,1.47Z" style="fill: #2a95f5; stroke-width: 0px;"/>
            <path d="m74.23,153.35s-1.66,15.06-.85,14.9c.81-.16,4.57-3.36,4.57-3.36,0,0,4.85,6.61,4.85,5.79s1.79-15.09,1.79-15.09l-10.35-2.24Z" style="fill: #f54f91; stroke-width: 0px;"/>
          </g>
          <path d="m102.68,136.6c.94.34,38.6-7.12,38.6-7.12l32.95,6.13-71.55.99Z" style="fill: #2a95f5; stroke-width: 0px;"/>
          <polygon points="95.34 143.75 137.51 150.23 176.49 141.83 95.34 143.75" style="fill: #2a95f5; stroke-width: 0px;"/>
        </g>
        <g>
          <g>
            <polygon points="62.99 122.66 165.74 120.28 198.87 124.31 198.87 140.95 133.37 155.7 63.02 135.75 62.99 135.39 62.99 122.66" style="fill: #c6d2db; stroke-width: 0px;"/>
            <path d="m129.92,141.6v13.41l67.9-13.83s3.71-14.07-1.25-16.39c-4.96-2.32-66.65,16.81-66.65,16.81Z" style="fill: #fff; stroke-width: 0px;"/>
            <polygon points="62.02 119.68 74.66 122.63 125.57 112.79 184.41 124.26 197.82 121.48 197.82 126.87 129.92 141.6 62.02 125.08 62.02 119.68" style="fill: #d71d5c; stroke-width: 0px;"/>
            <polygon points="62.02 119.68 129.92 136.2 197.82 121.48 125.57 107.39 62.02 119.68" style="fill: #f75392; stroke-width: 0px;"/>
            <path d="m67.12,136.32s62.66,16.69,63.59,16.69c.84,0,54.91-10.93,65.36-12.92,2.09-5.03-.2-13.22-.2-13.22l.68-2.08h.01c-1.34-1.94,1.25-3.31,1.25-3.31,0,0,1.8-.59,3,4.65.4,1.73.53,4.09.53,6.48,0,.1-.14,8.12-1.45,10.06l-68.78,16.03-69.63-19.89v-3.96l5.63,1.47Z" style="fill: #d71d5c; stroke-width: 0px;"/>
          </g>
          <polygon points="157.86 118.17 114.25 127.63 129.92 131.44 175.38 121.58 157.86 118.17" style="fill: #fe84ab; stroke-width: 0px;"/>
        </g>
        <g>
          <path d="m135.85,79.81l-50.32,6.02v32.21s14,9.78,50.32,9.78,50.32-9.78,50.32-9.78v-32.21l-50.32-6.02Z" style="fill: #1d4a69; stroke-width: 0px;"/>
          <path d="m169.44,83.82h0c0,19.34-14.7,35.54-33.95,37.34-4.86.45-10.3.73-16.37.73-14.06,0-24.76-1.47-32.61-3.26,3.71,2.11,18.44,9.19,49.36,9.19,36.32,0,50.32-9.78,50.32-9.78v-32.21l-16.74-2Z" style="fill: #1a3e57; stroke-width: 0px;"/>
          <polygon points="135.85 59.02 54.59 79.81 54.59 82.47 135.85 103.25 217.11 82.47 217.11 79.81 135.85 59.02" style="fill: #1c5f8c; stroke-width: 0px;"/>
          <polygon points="135.85 59.02 54.59 79.81 135.85 100.59 217.11 79.81 135.85 59.02" style="fill: #2271a9; stroke-width: 0px;"/>
          <polygon points="111.04 94.25 143.38 60.95 135.85 59.02 54.59 79.81 111.04 94.25" style="fill: #2880b5; stroke-width: 0px;"/>
          <path d="m196.99,123.21l-.84-.03s.11-3.56,0-9.22c-.03-1.82-.09-2.61-.14-3.31-.11-1.47-.18-2.43.11-11.69.02-.54.05-1.11.08-1.7.19-3.6.44-8.08-2.27-10.4-2.07-1.77-5.01-1.84-7.85-1.9-1.12-.03-2.18-.05-3.18-.17-5.17-.64-10.43-1.2-15.52-1.75l-3.78-.41c-12.45-1.35-23.13-2.4-23.23-2.41l.08-.84c.11.01,10.79,1.07,23.24,2.42l3.78.41c5.09.55,10.36,1.11,15.54,1.75.96.12,2,.14,3.1.17,2.99.07,6.08.14,8.38,2.11,3.02,2.58,2.76,7.3,2.56,11.08-.03.59-.06,1.15-.08,1.68-.28,9.21-.22,10.17-.11,11.61.05.71.11,1.51.14,3.35.11,5.68,0,9.22,0,9.26Z" style="fill: #ffc501; stroke-width: 0px;"/>
          <path d="m141.31,79.81c0,1.33-2.44,2.41-5.46,2.41s-5.46-1.08-5.46-2.41,2.44-2.41,5.46-2.41,5.46,1.08,5.46,2.41Z" style="fill: #1d4a69; stroke-width: 0px;"/>
          <g>
            <path d="m199.27,119.71c0,1.52-1.23,2.76-2.76,2.76s-2.76-1.23-2.76-2.76,1.23-2.76,2.76-2.76,2.76,1.23,2.76,2.76Z" style="fill: #ffc501; stroke-width: 0px;"/>
            <path d="m196.51,121.17c-2.16,0-2.58-.4-2.58-.4v2.23h5.16v-2.23s-.42.4-2.57.4Z" style="fill: #fd8703; stroke-width: 0px;"/>
            <g>
              <path d="m200.28,123.77c-.87-1.16-2.25-1.88-3.71-1.88-1.62,0-3.16.88-4,2.29-2.04,3.44-.43,8.59,1.81,11.55.13.18.26.36.39.54.03.04.06.09.09.13.1.15.19.29.28.44.02.04.04.08.07.11.1.16.19.32.28.48.01.02.02.04.03.06.1.18.2.37.29.55.35.7.63,1.38.85,1.96,1.3-1.13,2.21-2.59,3.04-4.08.88-1.56,1.65-3.19,1.94-4.98.78-4.74-1.34-7.19-1.34-7.18Z" style="fill: #ffc501; stroke-width: 0px;"/>
              <path d="m195.12,122.8s-.14.14-.35.42c-.22.27-.5.68-.78,1.2-.15.25-.27.55-.42.85-.06.15-.11.32-.17.49-.06.17-.12.33-.16.51-.04.18-.09.36-.13.54-.02.19-.05.37-.08.56l-.04.28v.29s-.01.58-.01.58c.03.39.06.77.12,1.15.1.37.15.74.27,1.09.13.34.24.68.35,1,.14.31.29.59.41.86.06.13.13.26.19.38.07.12.13.23.2.33.12.21.23.39.32.54.18.3.28.48.28.48,0,0-.13-.16-.34-.43-.11-.14-.24-.31-.39-.5-.07-.1-.15-.2-.24-.31-.07-.12-.14-.24-.22-.37-.15-.26-.32-.54-.49-.85-.14-.32-.28-.66-.43-1.01-.13-.36-.21-.75-.31-1.13-.07-.39-.11-.8-.14-1.21l.02-.61v-.3s.06-.3.06-.3c.03-.2.06-.4.1-.59.05-.19.11-.38.16-.56.05-.19.11-.36.19-.53.07-.17.14-.34.22-.49.17-.31.31-.6.49-.85.16-.26.34-.47.49-.66.16-.18.3-.34.43-.47.25-.25.41-.37.41-.37Z" style="fill: #ff8c03; stroke-width: 0px;"/>
              <path d="m196.04,122.8s-.04.21-.12.57c-.04.18-.08.4-.12.65-.04.25-.09.54-.14.85-.1.62-.19,1.35-.26,2.13-.04.39-.06.79-.09,1.2-.03.41-.02.83-.03,1.24,0,.42.02.83.03,1.24.05.41.07.81.12,1.19.08.38.11.76.2,1.1.09.34.17.67.26.97.11.29.21.56.29.8.08.24.21.43.28.6.16.33.26.52.26.52,0,0-.12-.17-.33-.48-.09-.16-.25-.33-.35-.57-.11-.23-.24-.5-.38-.79-.11-.3-.21-.63-.33-.98-.11-.35-.18-.73-.26-1.12-.07-.39-.11-.8-.16-1.22-.02-.42-.05-.84-.05-1.27.01-.43,0-.85.05-1.27.02-.42.07-.83.12-1.22.04-.4.12-.77.18-1.13.07-.36.15-.69.21-1,.15-.62.31-1.12.42-1.47.11-.35.19-.55.19-.55Z" style="fill: #ff8c03; stroke-width: 0px;"/>
              <path d="m196.72,124.29s.07.19.17.54c.09.35.23.84.34,1.44.06.3.11.63.18.97.05.35.12.71.15,1.1.09.76.15,1.58.18,2.4.02.41,0,.82.01,1.22,0,.4-.03.8-.04,1.18,0,.38-.06.75-.09,1.1-.03.35-.08.68-.12.98-.07.61-.19,1.11-.26,1.46-.08.35-.12.55-.12.55,0,0,.01-.2.04-.56.02-.18.03-.39.05-.64.01-.25.03-.53.05-.83.02-.3.04-.63.05-.98,0-.35.03-.72.03-1.1,0-.38.01-.77,0-1.17,0-.4,0-.8-.03-1.21-.02-.81-.07-1.62-.13-2.38-.06-.76-.12-1.47-.2-2.07-.07-.6-.14-1.11-.19-1.46-.05-.35-.09-.55-.09-.55Z" style="fill: #ff8c03; stroke-width: 0px;"/>
              <path d="m197.14,122.64s.11.16.26.46c.15.3.38.73.59,1.27.22.54.44,1.17.64,1.87.08.35.19.71.25,1.09.07.37.14.75.19,1.14.06.38.09.77.11,1.15.04.38.02.76.02,1.12,0,.36-.03.71-.06,1.04-.02.17-.03.33-.05.48-.03.15-.05.3-.07.45-.05.29-.09.55-.14.78-.06.23-.12.42-.16.59-.09.32-.15.51-.15.51,0,0,.02-.19.07-.52.02-.17.05-.37.09-.6.02-.23.04-.49.06-.78.01-.14.03-.29.04-.44,0-.15,0-.31,0-.48,0-.33.02-.67,0-1.02,0-.36-.02-.72-.06-1.09-.02-.37-.06-.75-.12-1.12-.04-.38-.11-.75-.17-1.12-.06-.37-.15-.73-.21-1.07-.09-.34-.16-.68-.25-1-.09-.32-.17-.61-.26-.89-.17-.54-.32-1-.44-1.31-.12-.31-.19-.49-.19-.49Z" style="fill: #ff8c03; stroke-width: 0px;"/>
              <path d="m199.27,124.29s.35.71.67,1.85c.07.29.16.59.23.93.08.33.15.68.2,1.05.06.37.09.75.13,1.14.02.39.03.79.04,1.18-.03.4-.02.8-.08,1.18-.05.39-.09.77-.19,1.13-.08.36-.16.72-.29,1.03-.12.32-.21.63-.35.89-.13.27-.26.51-.37.72-.13.2-.25.37-.35.52-.2.28-.31.44-.31.44,0,0,.09-.18.24-.48.08-.15.18-.33.28-.55.08-.22.18-.47.29-.74.12-.26.18-.58.28-.89.1-.32.15-.66.22-1.02.08-.35.1-.73.15-1.1.05-.38.04-.76.06-1.15,0-.39,0-.77-.02-1.15-.04-.38-.04-.76-.09-1.12-.04-.36-.08-.71-.13-1.04-.04-.33-.11-.64-.16-.93-.12-.57-.22-1.05-.31-1.38-.08-.33-.14-.52-.14-.52Z" style="fill: #ff8c03; stroke-width: 0px;"/>
            </g>
          </g>
        </g>
        <g>
          <g>
            <path d="m177.95,211.91s-10.67-2.44-16.21-9.4c-5.53-6.96-13.29-9.6-13.29-9.6l4.14-1.87c.88-.4,3.71.93,4.51,1.24,4.61,1.8,8.06,5.64,12.68,7.53,3.41,1.39,8.42,3.52,12.18,2.44,0,0,.97,6.86-4.02,9.67Z" style="fill: #ce4538; stroke-width: 0px;"/>
            <path d="m159.23,210.03s-.07-8.6-4.48-14.01c-4.4-5.42-5.12-11.81-5.12-11.81l-2.13,2.86c-.45.61.09,3,.19,3.67.6,3.84,2.97,7.13,3.63,10.99.49,2.85,1.28,7.05-.18,9.75,0,0,5.1,1.9,8.09-1.45Z" style="fill: #ce4538; stroke-width: 0px;"/>
          </g>
          <g>
            <path d="m90.22,193.98s2.64,8.3,10.83,19.44c-.15-.43,15.39-8,16.54-8.59,9.07-4.63,18.31-8.52,28.12-11.2,3.44-.94,6.9-1.78,10.34-2.75,3.38-.96,6.77-1.91,10.18-2.76,8.84-2.19,23.57-2.9,23.57-2.9l-5.56-4.1-74.36,9.99-8.44-10.97-11.22,13.82Z" style="fill: #dbdbdb; stroke-width: 0px;"/>
            <path d="m186.36,167.49c-1.99-1.17-3.86-1.34-3.86-1.34,0,0-33.16,4.86-46.12,6.48-12.96,1.62-42.23,3.62-42.23,3.62l6.78,28.91c3.09-1.6,37.64-11.72,48.02-14.88,10.38-3.16,37.97-8.67,37.97-8.67.72-.52,1.27-1.19,1.67-1.93,2.35-4.28,1.9-9.77-2.22-12.2Z" style="fill: #f4f4f4; stroke-width: 0px;"/>
            <path d="m189.91,175.7c-.3.36-.65.69-1.04.98,0,0-28.95,5.71-39.84,8.99-10.09,3.04-41.94,12.28-49.15,14.96l1.06,4.54c3.09-1.6,37.64-11.72,48.02-14.88,10.38-3.16,37.97-8.67,37.97-8.67.72-.52,1.27-1.19,1.67-1.93.69-1.26,1.14-2.62,1.32-3.98Z" style="fill: #ededed; stroke-width: 0px;"/>
            <path d="m100.66,205.24c-2.9.79-8.89-4.86-10.89-12.83-2-7.98.74-15.26,3.65-16.05,2.9-.79,6.88,5.04,8.88,13.01,2,7.98,1.27,15.08-1.63,15.87Z" style="fill: #c5c9c9; stroke-width: 0px;"/>
            <g>
              <path d="m103.19,194.23c-.12.03-.24.06-.38.06-2,.02-3.66-6-3.66-6l1.88-2.99c-.69-1.86-1.47-3.51-2.3-4.87h-.06s-3.1.98-3.62,6.05c-.09.85-.06,1.69.06,2.49h0s.31,2.87,1.84,5.57h0c2.44,4.87,5.18,5.06,6.41,4.84.11-1.52.05-3.27-.17-5.14Z" style="fill: #babdbd; stroke-width: 0px;"/>
              <path d="m102.81,194.29c.14,0,.26-.02.38-.06-.18-1.55-.48-3.19-.9-4.86-.36-1.44-.79-2.8-1.26-4.07l-1.88,2.99s1.66,6.02,3.66,6Z" style="fill: #a8abab; stroke-width: 0px;"/>
            </g>
            <path d="m148.64,170.8c-3.12-.5-6.22,1.04-6.22,1.04,0,0,11,7.12,6.03,21.07,3.11.27,6.44-1.7,6.44-1.7,4.97-13.95-6.25-20.41-6.25-20.41Z" style="fill: #e54c3c; stroke-width: 0px;"/>
          </g>
        </g>
      </g>
    </g>
  </g>
</svg>