<?xml version="1.0" encoding="UTF-8"?>
<svg id="_圖層_2" data-name="圖層 2" xmlns="http://www.w3.org/2000/svg" width="264.42" height="264.43" viewBox="0 0 264.42 264.43">
  <g id="_圖層_8" data-name="圖層 8">
    <g id="exploration2">
      <g>
        <path d="m132.21,0c-1.93,0-3.89.04-5.82.13l.42,9.7c1.43-.06,2.87-.1,4.31-.11h0s.03,0,.05,0h0s.03,0,.05,0h0c.06,0,.13,0,.19,0,0,0,0,0,.01,0,.01,0,.02,0,.04,0h.01s.03,0,.04,0h0s.03,0,.05,0h0s.07,0,.1,0h0s.03,0,.04,0h.01s.02,0,.04,0c0,0,0,0,.01,0,.01,0,.02,0,.03,0h.02s.02,0,.04,0h0s.06,0,.1,0h.01s.02,0,.03,0h.06s.02,0,.03,0h.11V0h0Zm-9.3.32c-1.93.13-3.88.31-5.8.53l1.1,9.65c.39-.04.77-.09,1.16-.13,0,0,0,0,.01,0,0,0,.02,0,.03,0,0,0,.01,0,.02,0,0,0,.02,0,.02,0,0,0,.02,0,.02,0,0,0,.02,0,.02,0,.05,0,.09,0,.14-.01h0s.03,0,.04,0h0s.03,0,.04,0h0c1.28-.13,2.56-.24,3.85-.33l-.67-9.69h0Zm-9.26.97c-1.92.27-3.85.59-5.75.94l1.78,9.55c1.76-.33,3.54-.62,5.33-.87l-1.35-9.62h0Zm-9.18,1.62c-1.89.4-3.8.86-5.67,1.34l2.45,9.4c.29-.08.58-.15.88-.23,0,0,.01,0,.02,0,0,0,.01,0,.02,0,.01,0,.02,0,.03,0h0s.03,0,.04-.01h0s.03,0,.04-.01h0c.93-.23,1.87-.46,2.81-.67,0,0,0,0,.01,0,.01,0,.02,0,.03,0,0,0,0,0,.01,0,.01,0,.02,0,.03,0,0,0,0,0,.02,0,0,0,.02,0,.02,0,0,0,.01,0,.02,0,0,0,.01,0,.02,0,.01,0,.02,0,.03,0,0,0,0,0,0,0,.4-.09.79-.18,1.19-.26l-2.03-9.5h0Zm-9.04,2.27c-1.86.54-3.73,1.12-5.56,1.74l3.11,9.2c.41-.14.82-.28,1.24-.41h0s.05-.02.08-.03c0,0,0,0,.01,0,.01,0,.03,0,.04-.01.01,0,.03-.01.05-.01.01,0,.03,0,.04-.01,0,0,.02,0,.03-.01.02,0,.03-.01.05-.02.01,0,.02,0,.03-.01h.05s.03-.02.04-.03c0,0,.02,0,.03,0,.02,0,.04-.01.06-.02,0,0,.02,0,.02,0,.02,0,.04-.01.06-.02,0,0,.01,0,.02,0,.02,0,.04-.01.06-.02,0,0,.01,0,.02,0,.02,0,.04-.01.06-.02,0,0,0,0,0,0,.02,0,.05-.02.07-.02,0,0,0,0,0,0,.03,0,.05-.01.07-.02,0,0,0,0,0,0,.02,0,.05-.02.07-.02,0,0,0,0,0,0,.96-.3,1.93-.6,2.91-.88l-2.7-9.33h0Zm-8.86,2.91c-1.81.67-3.64,1.38-5.42,2.13l3.75,8.96c.97-.4,1.94-.8,2.92-1.18h0s.05-.02.08-.03c0,0,.01,0,.02,0,.02,0,.04-.02.06-.02,0,0,.02,0,.03,0,.02,0,.04-.01.05-.02.01,0,.02,0,.03-.01.01,0,.02,0,.03-.01.01,0,.04-.01.05-.02.01,0,.02,0,.03-.01.02,0,.04-.01.05-.02,0,0,.02,0,.02,0,.02,0,.03-.01.05-.02,0,0,.01,0,.02,0,.02,0,.04-.01.06-.02h.02s.04-.02.07-.03c0,0,0,0,.01,0,.02,0,.05-.02.07-.03,0,0,0,0,.01,0,.03,0,.05-.02.07-.03,0,0,0,0,0,0,.42-.16.84-.32,1.26-.47l-3.35-9.12h0Zm-8.63,3.53c-1.76.79-3.53,1.64-5.26,2.51l4.38,8.67c.41-.21.83-.42,1.25-.62h0s.05-.03.08-.04h0s.08-.04.12-.06h0s.05-.03.07-.04c0,0,.01,0,.02,0,.02,0,.04-.02.06-.03,0,0,.01,0,.02-.01.02,0,.04-.02.06-.03.01,0,.01,0,.03-.01.02,0,.04-.02.06-.03,0,0,.02,0,.02-.01.01,0,.03-.01.04-.02.01,0,.03-.01.04-.02.01,0,.03-.01.04-.02.01,0,.02,0,.03-.01.02,0,.03-.02.05-.02.01,0,.02,0,.03-.01.02,0,.03-.01.05-.02.01,0,.02,0,.03-.01.02,0,.03-.02.05-.02,0,0,.02,0,.03-.01l.04-.02s.03-.01.04-.02c.01,0,.03-.01.04-.02,0,0,.02,0,.02-.01.02,0,.04-.02.06-.03,0,0,.02,0,.02-.01.02,0,.04-.02.06-.03,0,0,.01,0,.02-.01.02,0,.04-.02.06-.03.01,0,.01,0,.02-.01.02,0,.04-.02.06-.03,0,0,.01,0,.02,0,.01,0,.03-.01.04-.02,0,0,.01,0,.02,0,.02,0,.04-.02.06-.03,0,0,.01,0,.02,0,.02,0,.04-.02.06-.03,0,0,.01,0,.02,0,.02-.01.04-.02.07-.03,0,0,0,0,.01,0,.07-.03.14-.06.21-.1h0s.05-.03.08-.04h0c.55-.26,1.1-.51,1.65-.76l-3.99-8.86h0Zm-8.36,4.13c-1.7.92-3.41,1.88-5.07,2.88l4.98,8.34s.01,0,.02,0c.02,0,.03-.02.05-.03,0,0,.01,0,.02-.01.02,0,.03-.02.05-.03,0,0,.01,0,.02-.01.02,0,.04-.02.05-.03,0,0,0,0,.01,0,.02-.01.04-.02.06-.04,0,0,.01,0,.01,0,.02-.01.04-.02.06-.04,0,0,0,0,.01,0,.02-.01.04-.03.06-.04,0,0,0,0,0,0,.02-.01.05-.03.07-.04,0,0,0,0,0,0,.02-.01.04-.03.07-.04,0,0,0,0,0,0,.02-.01.05-.03.07-.04,0,0,0,0,0,0,.02-.01.04-.03.07-.04,0,0,0,0,0,0,.02-.01.04-.03.07-.04,0,0,0,0,0,0,.02-.01.04-.03.07-.04,0,0,0,0,0,0,.07-.04.14-.08.21-.12,0,0,0,0,0,0,.02-.01.04-.03.07-.04,0,0,0,0,0,0,.02-.01.05-.03.07-.04,0,0,0,0,0,0,.02-.01.04-.03.07-.04,0,0,0,0,0,0,.05-.03.09-.05.14-.08,0,0,0,0,0,0,.02-.01.05-.03.07-.04,0,0,0,0,.01,0,.02-.01.04-.03.06-.04,0,0,0,0,.01,0,.02-.01.04-.02.06-.04,0,0,0,0,.01,0,.02-.01.04-.03.06-.04h0s.04-.03.06-.04c0,0,0,0,0,0,.02-.01.04-.02.06-.03,0,0,0,0,.01,0,.02,0,.04-.02.06-.03,0,0,.01,0,.02-.01.02-.01.04-.02.06-.03,0,0,.01,0,.02-.01.02,0,.04-.02.05-.03,0,0,.01,0,.02-.01.02,0,.03-.02.05-.03.01,0,.02-.01.03-.02.01,0,.03-.02.04-.02.01,0,.02-.01.03-.02.01,0,.03-.01.04-.02.01,0,.02-.01.03-.02.02,0,.03-.02.04-.03.01,0,.02-.01.03-.02.01,0,.03-.02.04-.03.01,0,.02-.01.03-.02.01,0,.02,0,.03-.01l.05-.03s.01,0,.02-.01c.02-.01.04-.02.06-.03,0,0,.01,0,.02,0,.02-.01.04-.02.06-.04,0,0,0,0,.01,0,.09-.05.19-.1.28-.16h0c.55-.31,1.11-.62,1.66-.92l-4.61-8.55h0Zm-8.04,4.71c-1.63,1.03-3.26,2.12-4.85,3.22l5.55,7.97c1.47-1.03,2.97-2.02,4.49-2.99l-5.2-8.21h0Zm-7.69,5.26c-1.56,1.15-3.11,2.34-4.61,3.56l6.1,7.56c.97-.78,1.95-1.55,2.95-2.3,0,0,0,0,.01,0,.02-.01.04-.03.06-.04,0,0,.01,0,.02-.01.02-.01.03-.02.05-.04,0,0,.01-.01.02-.02,0,0,.02-.01.03-.02.02-.01.03-.02.04-.03,0,0,.02-.01.03-.02.02-.01.03-.02.05-.03,0,0,.01-.01.02-.02.02-.01.03-.03.05-.04,0,0,.01,0,.02-.01.02-.01.03-.03.05-.04,0,0,0,0,.01,0,.02-.01.04-.03.06-.04,0,0,0,0,0,0,.02-.01.04-.03.06-.05,0,0,0,0,0,0,.02-.02.04-.03.06-.05,0,0,0,0,0,0,.02-.02.04-.03.07-.05h0c.2-.15.41-.3.61-.45l-5.76-7.82h0Zm-7.3,5.79c-1.47,1.25-2.93,2.55-4.35,3.87l6.61,7.11c.17-.16.34-.32.52-.48,0,0,0,0,0,0,.02-.02.04-.03.05-.05,0,0,.01,0,.02-.01.02-.01.03-.03.05-.04,0,0,.01-.01.02-.02.01-.01.03-.02.04-.04.01-.01.02-.01.03-.03,0,0,.02-.02.03-.02.01-.01.03-.02.04-.04,0,0,.02-.01.02-.02.01-.01.03-.03.04-.04,0,0,.01-.01.02-.02.01-.01.03-.03.05-.04,0,0,.01,0,.02-.01.01-.01.03-.03.04-.04,0,0,.01-.01.02-.02.01-.01.03-.03.05-.04,0,0,0,0,.01-.01.02-.02.03-.03.05-.05,0,0,0,0,.01-.01.02-.02.04-.03.05-.05,0,0,0,0,.01,0,.02-.02.04-.03.05-.05,0,0,0,0,0,0,.02-.02.04-.03.06-.05,0,0,0,0,0,0,.04-.04.08-.07.12-.11,0,0,0,0,0,0,.02-.02.04-.04.06-.05,0,0,0,0,0,0,.02-.02.04-.04.06-.05,0,0,0,0,0,0,.02-.02.04-.04.06-.05,0,0,0,0,0,0,.79-.71,1.6-1.42,2.41-2.11l-6.3-7.4h0Zm-6.88,6.28c-1.38,1.35-2.75,2.75-4.07,4.16l7.1,6.63c.14-.15.27-.28.4-.43,0,0,0,0,0,0,.02-.02.04-.04.05-.06,0,0,0,0,0,0,.02-.02.04-.04.05-.05,0,0,0,0,0,0,.02-.02.03-.03.05-.05,0,0,0,0,.01-.01.02-.02.03-.03.04-.04,0,0,.01-.01.02-.02.01-.01.03-.03.04-.04,0,0,.01-.02.02-.02.01-.01.03-.03.04-.04,0,0,.02-.02.03-.03,0,0,.02-.02.03-.03.01-.01.02-.03.04-.04,0,0,.01-.01.02-.02.01-.02.03-.03.04-.05,0,0,0,0,.01-.01.02-.02.04-.04.05-.06h0c.66-.69,1.32-1.37,1.99-2.04h0s.04-.04.06-.06c0,0,0,0,.01-.01.02-.02.03-.03.05-.05,0,0,.01-.01.02-.02.01-.01.02-.02.04-.04,0,0,.02-.02.03-.03l.02-.02s.03-.03.04-.04l.02-.02s.03-.03.04-.04c0,0,.01-.01.02-.02.02-.02.03-.03.05-.05,0,0,0,0,0,0,.14-.13.28-.27.41-.41l-6.8-6.94h0Zm-6.42,6.75c-1.28,1.45-2.55,2.94-3.77,4.44l7.54,6.12c1.13-1.4,2.3-2.77,3.49-4.11l-7.27-6.44h0Zm-5.93,7.18c-1.18,1.53-2.34,3.11-3.45,4.69l7.95,5.58c1.03-1.47,2.1-2.92,3.19-4.35l-7.7-5.92h0Zm-5.41,7.58c-1.07,1.61-2.11,3.27-3.11,4.92l8.33,5c.45-.75.91-1.5,1.38-2.25,0,0,0-.01.01-.02.01-.02.02-.04.03-.05,0,0,.01-.02.02-.03,0-.01.02-.03.03-.04,0-.01.01-.02.02-.03,0-.01.01-.02.02-.03,0-.01.02-.03.03-.04,0,0,0-.01.01-.02.01-.02.02-.04.03-.05,0,0,0-.01.01-.02.01-.02.02-.03.03-.05,0,0,0-.01,0-.02.01-.02.02-.04.04-.06,0,0,0,0,0,0,.39-.62.79-1.22,1.19-1.83l-8.1-5.36h0Zm-4.87,7.94c-.95,1.68-1.88,3.41-2.75,5.13l8.66,4.4c.11-.22.23-.45.35-.68,0,0,0,0,0,0,.01-.02.02-.05.04-.07,0,0,0,0,0,0,.01-.02.02-.05.04-.07,0,0,0,0,0,0,.01-.02.02-.05.04-.07,0,0,0,0,0,0,.01-.02.03-.05.04-.07,0,0,0,0,0,0,.01-.02.02-.05.03-.07,0,0,0,0,0-.01.01-.02.02-.04.03-.06,0,0,0-.01,0-.02.01-.02.02-.04.03-.06v-.02s.03-.04.04-.06c0,0,0,0,0-.01,0-.02.02-.04.03-.06,0,0,0-.01,0-.02.01-.02.02-.04.03-.06,0,0,0-.01,0-.02,0-.02.02-.04.03-.06,0,0,0-.01.01-.02.01-.02.02-.04.03-.06,0,0,0-.01.01-.02,0-.02.02-.04.03-.06,0,0,0-.01,0-.02.01-.02.02-.04.03-.06,0,0,0-.01,0-.02,0-.02.02-.03.03-.05,0,0,0-.01.01-.02.01-.02.02-.03.03-.05,0,0,0-.01.01-.02,0-.02.02-.04.03-.06,0,0,0-.01.01-.02.01-.02.02-.04.03-.06,0,0,0-.01.01-.02,0-.02.02-.04.03-.06,0,0,0-.01.01-.02,0-.02.02-.03.03-.05,0,0,0-.02.01-.02,0-.02.02-.03.03-.05,0,0,0-.01.01-.02,0-.02.02-.04.03-.06,0,0,0-.01.01-.02.01-.02.02-.03.03-.06,0,0,0-.02.01-.02,0-.02.02-.04.03-.05,0,0,0-.01.01-.02.01-.02.02-.03.03-.05,0,0,0-.01.01-.02,0-.02.02-.03.03-.05,0,0,0-.01,0-.02.01-.02.02-.03.03-.05,0,0,0-.01.01-.02,0-.02.02-.04.03-.06,0,0,0-.01.01-.02.01-.02.02-.04.03-.06,0,0,0-.01.01-.02,0-.02.02-.04.03-.06,0,0,0-.01.01-.02,0-.02.02-.03.03-.05,0,0,0-.02.01-.03,0-.02.02-.03.02-.04,0,0,0-.02.01-.02,0-.02.02-.03.03-.05,0,0,0-.02.01-.03,0-.02.02-.03.03-.05,0,0,.01-.02.01-.03,0-.02.02-.03.03-.05,0,0,.01-.02.02-.03,0-.01.01-.02.02-.04,0-.01.01-.03.02-.04,0-.01.01-.02.02-.03,0-.02.02-.03.03-.05,0-.01.01-.02.02-.03,0-.02.02-.03.03-.05,0,0,.01-.02.01-.03,0-.01.01-.02.02-.04,0,0,0-.01.01-.02.01-.02.02-.04.03-.06,0,0,0,0,0-.01.01-.02.02-.04.04-.07,0,0,0,0,0-.01l.04-.07h0c.17-.31.34-.62.51-.92l-8.46-4.78h0Zm-4.3,8.27c-.83,1.75-1.63,3.54-2.38,5.32l8.95,3.78c.14-.32.27-.64.41-.96h0s.02-.06.04-.08h0s.02-.06.04-.09h0c.03-.07.06-.14.09-.21h0s.02-.06.03-.08c0,0,0,0,0-.01.51-1.17,1.04-2.33,1.59-3.48l-8.77-4.17h0Zm-3.7,8.55c-.7,1.8-1.38,3.64-2,5.47l9.19,3.13c.16-.46.31-.9.47-1.36h0s.02-.05.03-.08c0,0,0,0,0,0,.03-.08.06-.16.08-.24,0,0,0,0,0,0,0-.03.02-.05.03-.07,0,0,0,0,0,0,0-.03.02-.05.03-.07,0,0,0,0,0,0,0-.02.02-.05.03-.07,0,0,0,0,0,0,0-.02.02-.05.03-.07,0,0,0,0,0,0,0-.02.02-.05.03-.07,0,0,0,0,0-.01,0-.02.02-.05.02-.07,0,0,0,0,0-.01,0-.02.02-.05.02-.07,0,0,0,0,0-.01,0-.02.02-.05.03-.07,0,0,0,0,0,0,0-.02.02-.05.02-.07,0,0,0,0,0,0,0-.02.02-.05.03-.07,0,0,0,0,0-.01,0-.02.02-.04.02-.07,0,0,0-.01,0-.02,0-.02.02-.04.02-.07,0,0,0-.01,0-.02,0-.02.02-.04.02-.07,0,0,0,0,0-.01,0-.02.01-.04.02-.06,0,0,0,0,0-.01,0-.02.02-.04.02-.06,0,0,0-.01,0-.02,0-.02.02-.04.02-.06,0,0,0-.01,0-.02,0-.02.02-.04.02-.06,0,0,0-.01,0-.02,0-.02.01-.03.02-.06,0,0,0-.02,0-.02,0-.01.01-.03.02-.05,0,0,0-.02.01-.03,0-.01.01-.04.02-.05,0,0,0-.02,0-.02,0-.02.01-.04.02-.06,0,0,0-.02.01-.03,0-.02.01-.03.02-.05,0-.01,0-.02.01-.03,0-.01.01-.03.01-.04,0-.02.01-.03.02-.05,0,0,0-.02.01-.03,0-.02.01-.03.02-.05,0-.01,0-.02.01-.03,0-.02.01-.04.02-.06,0,0,0-.02,0-.02,0-.01.01-.03.02-.04,0,0,0,0,0,0,.01-.03.02-.05.03-.08h0s.02-.06.03-.09h0c.14-.39.29-.76.44-1.14l-9.05-3.54h0Zm-3.09,8.8c-.57,1.85-1.12,3.73-1.61,5.6l9.39,2.47c.22-.83.45-1.65.68-2.48h0s.02-.06.03-.09h0s.02-.06.02-.09h0s.03-.09.04-.14c0,0,0,0,0-.01,0-.02.01-.05.02-.07,0,0,0,0,0-.02,0-.02.01-.05.02-.07,0,0,0-.01,0-.02,0-.02.01-.04.02-.06,0,0,0-.01,0-.02,0-.01,0-.03.01-.04,0,0,0-.01,0-.02,0-.02.01-.04.02-.07,0,0,0-.01,0-.02,0-.02.01-.04.02-.07,0,0,0-.01,0-.02,0-.02.01-.04.02-.06,0-.01,0-.02,0-.03,0-.02.01-.04.02-.05,0-.01,0-.02,0-.03,0-.01,0-.03.01-.04,0,0,0-.02,0-.03l.02-.05s0-.02,0-.02l.02-.06s0-.02,0-.03c0-.02.01-.04.02-.06,0,0,0-.02,0-.02.01-.04.03-.09.04-.13,0,0,0,0,0-.01,0-.03.02-.05.02-.08,0,0,0,0,0-.01,0-.03.02-.05.02-.08h0c.11-.37.22-.73.33-1.08l-9.27-2.89h0Zm-2.45,8.99c-.44,1.88-.85,3.8-1.21,5.7l9.54,1.8c.06-.32.12-.63.18-.95,0,0,0,0,0,0,0-.01,0-.02,0-.03,0,0,0,0,0-.01,0-.01,0-.02,0-.03,0,0,0-.01,0-.02,0,0,0-.02,0-.02.28-1.41.58-2.81.91-4.2l-9.46-2.22h0Zm-1.81,9.14c-.31,1.91-.58,3.85-.8,5.77l9.65,1.12c.21-1.79.46-3.58.74-5.34l-9.59-1.55h0Zm-1.16,9.24c-.17,1.92-.31,3.88-.39,5.81l9.7.45c.08-1.81.21-3.6.37-5.38l-9.67-.87h0ZM.03,129.53c-.02.89-.03,1.79-.03,2.68,0,1.04.01,2.1.04,3.13l9.71-.23c-.02-.72-.03-1.45-.03-2.18h0c0-.08,0-.15,0-.23h0v-.04s0,0,0-.01v-.05s0-.02,0-.03v-.07s0-.01,0-.02v-.1s0-.02,0-.03v-.1h0v-.06h0v-.15h0s0-.05,0-.07v-.02s0-.04,0-.06v-.07s0-.01,0-.02v-.06s0-.02,0-.03c0-.02,0-.03,0-.05v-.04s0-.03,0-.04c0-.01,0-.02,0-.03,0-.01,0-.03,0-.05,0-.01,0-.03,0-.04v-.03s0-.02,0-.03c0-.02,0-.04,0-.05,0-.01,0-.02,0-.04v-.03s0-.04,0-.07v-.02s0-.03,0-.04v-.02s0-.05,0-.07v-.02s0-.03,0-.04c0,0,0-.01,0-.02v-.07s0-.01,0-.02c0-.02,0-.04,0-.06,0,0,0-.02,0-.03,0-.01,0-.02,0-.04,0-.01,0-.02,0-.03,0-.01,0-.03,0-.04,0-.02,0-.03,0-.04,0,0,0-.02,0-.03,0-.02,0-.04,0-.06v-.02s0-.04,0-.06v-.02s0-.05,0-.07h0c0-.23,0-.47.01-.7l-9.71-.19H.03Zm9.84,8.83l-9.7.48c.1,1.93.23,3.89.41,5.81l9.67-.9c-.17-1.78-.29-3.58-.38-5.38h0Zm.73,8.6l-9.64,1.16c.23,1.92.51,3.86.82,5.77l9.58-1.58c-.29-1.77-.55-3.55-.76-5.34h0Zm1.33,8.53l-9.54,1.83c.37,1.9.78,3.82,1.23,5.7l9.45-2.26c-.05-.23-.11-.45-.16-.68,0,0,0-.01,0-.02,0,0,0-.02,0-.02,0,0,0-.02,0-.03,0,0,0-.01,0-.02v-.03s0,0-.01-.01c0-.01,0-.02,0-.03h0s0-.03,0-.04c0,0,0,0,0-.01,0-.01,0-.03,0-.04h0c-.11-.48-.22-.96-.32-1.44h0c-.01-.05-.02-.1-.03-.14h0s0-.03,0-.04c0,0,0,0,0-.01v-.03s0,0,0-.01c0-.01,0-.02,0-.03,0,0,0,0,0-.01,0,0,0-.02,0-.03,0,0,0-.01,0-.02,0,0,0-.02,0-.02,0,0,0-.02,0-.02,0,0,0-.01,0-.02,0-.03-.02-.07-.02-.11,0,0,0,0,0,0,0-.01,0-.02,0-.04,0,0,0,0,0,0,0-.01,0-.02,0-.03,0,0,0,0,0,0,0-.01,0-.02,0-.03,0,0,0,0,0,0,0-.01,0-.03,0-.04,0,0,0,0,0,0-.11-.54-.22-1.07-.33-1.61h0s0-.02,0-.03c0,0,0-.01,0-.02,0,0,0-.01,0-.02,0,0,0-.02,0-.03,0,0,0,0,0-.01,0-.01,0-.02,0-.03,0,0,0,0,0-.01,0-.01,0-.03,0-.04h0c-.03-.15-.06-.29-.08-.43h0Zm1.93,8.41l-9.39,2.51c.5,1.87,1.05,3.75,1.63,5.6l9.26-2.92s0,0,0-.01c0-.02-.01-.04-.02-.05,0,0,0-.02,0-.03,0-.02-.01-.03-.01-.05v-.03s-.02-.03-.03-.05c0-.01,0-.03-.01-.04,0,0,0-.01,0-.02,0-.02-.01-.05-.02-.07,0,0,0,0,0-.01,0-.03-.02-.05-.02-.08h0c-.19-.62-.38-1.23-.56-1.85h0s-.02-.06-.02-.08c0,0,0-.01,0-.01,0-.02-.01-.04-.02-.07,0,0,0-.01,0-.02,0-.01,0-.03-.01-.04,0-.02,0-.03-.01-.05,0-.01,0-.02,0-.03,0-.02,0-.03-.01-.05,0-.01,0-.02,0-.03,0-.02,0-.03-.01-.05,0,0,0-.02,0-.03,0-.02-.01-.04-.02-.06,0,0,0-.01,0-.02,0-.02-.01-.04-.02-.07,0,0,0,0,0-.01,0-.03-.01-.05-.02-.07,0,0,0,0,0,0-.21-.73-.41-1.46-.61-2.19h0Zm2.52,8.26l-9.18,3.17c.63,1.83,1.31,3.67,2.02,5.47l9.03-3.57c-.65-1.65-1.27-3.32-1.85-5.01,0,0,0,0,0-.01,0-.01-.01-.03-.02-.04h0Zm3.1,8.06l-8.94,3.81c.76,1.78,1.57,3.56,2.4,5.31l8.76-4.2c-.13-.28-.27-.56-.4-.84h0s-.02-.05-.03-.07h0s-.02-.06-.03-.08c0,0,0,0,0,0,0-.02-.02-.04-.03-.06,0,0,0,0,0-.01-.01-.02-.02-.04-.03-.06,0,0,0-.01,0-.02,0-.02-.02-.04-.03-.06,0,0,0-.02-.01-.03,0-.02-.02-.03-.02-.05,0,0,0-.02-.01-.03,0-.01-.01-.02-.02-.04,0-.01-.01-.03-.02-.05,0-.01,0-.02-.01-.03,0-.02-.02-.04-.02-.05,0,0,0-.02-.01-.02,0-.02-.02-.04-.03-.06,0,0,0-.01,0-.02-.02-.04-.04-.08-.06-.12h0s-.02-.06-.04-.08h0s-.02-.06-.03-.08h0c-.17-.39-.35-.77-.52-1.15h0s-.02-.06-.04-.08h0s-.02-.06-.03-.08h0c-.03-.08-.06-.15-.09-.22h0s-.02-.06-.03-.08c0,0,0,0,0-.01-.01-.02-.02-.05-.03-.07,0,0,0,0,0-.01-.01-.03-.02-.05-.04-.08h0s-.04-.08-.05-.13c0,0,0,0,0-.01,0-.02-.02-.05-.03-.07,0,0,0-.01,0-.02,0-.02-.02-.04-.03-.06,0,0,0-.01,0-.02,0-.02-.02-.04-.03-.06,0,0,0-.02,0-.02-.01-.03-.02-.05-.03-.08h0s-.01-.03-.02-.04c0,0,0-.01,0-.02,0-.02-.02-.04-.03-.07,0,0,0,0,0-.01,0-.02-.02-.05-.03-.07,0,0,0,0,0-.02-.01-.02-.02-.05-.03-.07,0,0,0-.01,0-.01-.01-.03-.02-.05-.03-.08,0,0,0,0,0,0l-.02-.04s0,0,0-.01c-.01-.02-.02-.05-.03-.07,0,0,0,0,0,0-.01-.03-.02-.05-.03-.08h0s-.02-.06-.03-.09h0s-.03-.07-.05-.11h0Zm3.66,7.82l-8.64,4.43c.88,1.72,1.81,3.44,2.77,5.12l8.44-4.81c-.14-.24-.28-.49-.41-.73,0,0,0,0,0,0-.01-.02-.03-.05-.04-.07,0,0,0,0,0,0-.01-.02-.03-.05-.04-.07,0,0,0,0,0,0-.01-.02-.03-.05-.04-.07h0s-.03-.05-.04-.07c0,0,0,0,0-.01-.01-.02-.02-.04-.03-.06,0,0,0-.01,0-.02-.01-.02-.02-.04-.03-.06,0,0,0-.01-.01-.02,0-.02-.02-.04-.03-.06v-.02s-.03-.04-.04-.05v-.02s-.03-.04-.04-.05c0,0,0-.01,0-.02,0-.02-.02-.04-.03-.06,0,0,0-.01-.01-.02-.01-.02-.02-.04-.03-.06,0,0,0-.01-.01-.02-.01-.02-.02-.04-.03-.06,0,0,0-.01,0-.02-.01-.02-.02-.04-.03-.06,0,0,0-.01,0-.02,0-.02-.02-.04-.03-.05,0,0,0-.01,0-.02-.01-.02-.02-.04-.03-.06,0,0,0,0,0-.01-.01-.02-.02-.04-.03-.06,0,0,0-.01,0-.02-.01-.02-.02-.04-.03-.06,0,0,0,0,0-.01-.01-.02-.02-.04-.03-.06,0,0,0,0,0,0-.05-.09-.11-.2-.16-.29h0c-.43-.79-.85-1.59-1.26-2.39h0Zm4.21,7.54l-8.31,5.03c1,1.65,2.05,3.31,3.13,4.91l8.08-5.39s-.06-.09-.09-.14c0,0,0,0,0,0-.01-.02-.03-.04-.04-.06,0,0,0,0,0,0-.01-.02-.03-.04-.04-.06,0,0,0-.01-.01-.02-.01-.02-.02-.04-.04-.05,0,0,0-.01-.01-.02-.01-.02-.02-.03-.03-.05,0,0-.01-.02-.02-.03,0-.01-.02-.02-.02-.04,0-.01-.02-.02-.02-.04,0,0-.01-.02-.02-.03-.01-.02-.02-.03-.03-.05,0,0-.01-.02-.02-.03,0-.01-.02-.02-.02-.04,0-.01-.01-.02-.02-.04,0-.01-.02-.02-.02-.04,0,0,0,0,0,0-.02-.02-.03-.05-.05-.07,0,0,0,0,0,0-.02-.02-.03-.05-.05-.07h0s-.03-.05-.05-.08h0c-.34-.52-.67-1.03-1-1.55h0s-.03-.05-.04-.08c0,0,0,0,0-.01-.01-.02-.03-.04-.04-.06,0,0,0,0,0-.01-.01-.02-.03-.04-.04-.06,0,0,0,0,0-.01,0-.01-.02-.02-.02-.04,0,0-.01-.02-.01-.02-.01-.02-.02-.03-.03-.05,0,0-.01-.02-.02-.03,0-.01-.02-.03-.03-.04,0,0-.01-.02-.02-.03,0-.01-.01-.02-.02-.03-.01-.02-.02-.02-.03-.04,0,0,0-.01-.01-.02-.01-.02-.02-.04-.03-.05,0,0,0-.01-.01-.02-.01-.02-.02-.04-.03-.06v-.02s-.04-.04-.05-.06c0,0,0,0,0-.01-.01-.02-.03-.04-.04-.06,0,0,0,0,0,0-.01-.02-.03-.04-.04-.06,0,0,0,0,0,0-.01-.02-.03-.05-.04-.07,0,0,0,0,0,0-.01-.02-.03-.05-.04-.07,0,0,0,0,0,0-.21-.34-.41-.67-.62-1.01h0Zm4.73,7.22l-7.93,5.6c1.11,1.58,2.28,3.15,3.46,4.68l7.68-5.95s0,0,0,0c-.01-.02-.03-.04-.04-.06,0,0,0,0,0,0-.02-.02-.03-.04-.05-.06,0,0,0,0,0,0-.01-.02-.03-.04-.05-.06,0,0,0,0,0,0-.02-.02-.03-.04-.05-.06,0,0,0,0,0,0-.02-.02-.03-.04-.05-.06,0,0,0,0,0,0-.02-.02-.03-.04-.05-.06,0,0,0,0,0,0-.02-.02-.03-.04-.05-.06,0,0,0,0,0,0-.02-.02-.03-.04-.05-.06,0,0,0,0,0,0-.07-.09-.14-.18-.2-.26,0,0,0,0,0,0-.02-.02-.03-.04-.05-.07h0c-.87-1.14-1.71-2.3-2.54-3.47h0Zm5.22,6.87l-7.52,6.15c1.22,1.5,2.49,2.99,3.78,4.43l7.25-6.47c-.08-.09-.16-.18-.25-.28,0,0,0-.01-.01-.02l-.04-.04s-.01-.02-.02-.02c0-.01-.02-.02-.03-.03-.01-.01-.02-.03-.03-.04,0,0-.01-.01-.02-.02-.01-.01-.03-.03-.04-.05,0,0-.01-.01-.02-.02-.02-.02-.03-.03-.04-.05h0s-.03-.05-.05-.07c0,0,0,0,0,0-.52-.59-1.03-1.18-1.54-1.78,0,0,0,0,0,0-.02-.02-.04-.04-.05-.06,0,0,0,0,0,0-.02-.02-.03-.04-.05-.06,0,0,0,0,0,0-.03-.04-.07-.09-.11-.13,0,0,0,0,0,0-.02-.02-.03-.04-.05-.06,0,0,0,0,0,0-.02-.02-.03-.04-.05-.06,0,0,0,0,0,0-.01-.02-.03-.04-.05-.06,0,0,0,0,0,0-.02-.02-.03-.04-.05-.06,0,0,0,0,0,0-.03-.04-.07-.08-.11-.13,0,0,0,0,0,0-.02-.02-.03-.04-.05-.06,0,0,0,0,0,0-.02-.02-.03-.04-.05-.06,0,0,0,0,0,0-.02-.02-.03-.04-.05-.06,0,0,0,0,0,0-.23-.28-.47-.56-.7-.84h0Zm5.69,6.49l-7.07,6.66c1.32,1.41,2.7,2.8,4.08,4.15l6.78-6.96c-.64-.63-1.28-1.26-1.91-1.9,0,0,0,0,0,0-.02-.02-.04-.04-.06-.06h0s-.04-.04-.06-.06c0,0,0,0,0,0-.04-.04-.07-.08-.11-.11,0,0,0,0,0,0-.02-.02-.03-.04-.05-.05,0,0,0,0-.01-.01-.02-.02-.03-.03-.05-.05,0,0,0,0-.01-.01-.02-.02-.03-.03-.04-.05,0,0-.01-.01-.02-.02-.01-.01-.03-.03-.04-.04,0,0-.01-.01-.02-.02-.01-.01-.02-.02-.03-.03,0,0-.02-.02-.03-.03-.01-.01-.02-.02-.03-.03-.01-.01-.02-.02-.03-.03,0,0-.02-.02-.03-.03,0-.01-.02-.02-.03-.03-.01-.01-.02-.02-.03-.03,0,0-.02-.02-.03-.03-.01-.01-.02-.02-.03-.03l-.03-.03s-.01-.01-.02-.02c-.01-.02-.03-.03-.04-.05,0,0,0,0-.01-.01-.02-.02-.03-.04-.05-.05h0s-.04-.05-.06-.07h0c-.07-.08-.15-.16-.22-.23h0s-.04-.04-.06-.07h0s-.04-.05-.06-.07h0c-.18-.19-.36-.38-.55-.58h0Zm6.13,6.08l-6.59,7.14c1.42,1.31,2.89,2.61,4.36,3.85l6.27-7.42c-.26-.22-.51-.43-.76-.65,0,0,0,0,0,0-.02-.01-.04-.03-.05-.05,0,0,0,0-.01-.01-.02-.02-.03-.03-.05-.04,0,0-.01-.01-.02-.02-.01-.01-.03-.03-.04-.04,0,0-.02-.01-.02-.02-.01-.01-.02-.02-.03-.03-.01-.01-.03-.02-.04-.03,0,0-.01-.01-.02-.02-.02-.01-.03-.03-.05-.04,0,0-.01-.01-.02-.02-.02-.02-.04-.03-.06-.05,0,0,0,0,0,0-.96-.84-1.91-1.69-2.85-2.55h0Zm6.54,5.63l-6.07,7.58c1.51,1.21,3.06,2.4,4.62,3.54l5.74-7.84c-.69-.51-1.38-1.02-2.06-1.54h0s-.05-.04-.07-.06h0s-.05-.03-.07-.05c0,0,0,0,0,0-.03-.03-.07-.05-.1-.08,0,0-.01-.01-.02-.02-.02-.01-.03-.02-.05-.04,0,0-.01-.01-.02-.02-.01-.01-.03-.02-.04-.03-.01,0-.02-.01-.03-.02-.01,0-.02-.02-.03-.03-.01,0-.02-.02-.03-.03,0,0-.02-.01-.03-.02-.02-.01-.03-.02-.05-.03,0,0-.01-.01-.02-.02-.02-.01-.03-.02-.05-.04l-.02-.02s-.03-.03-.05-.04c0,0-.01,0-.02-.01-.02-.01-.03-.03-.05-.04,0,0-.01,0-.02-.01-.02-.01-.03-.02-.05-.04,0,0,0,0-.01,0-.02-.01-.04-.03-.05-.04,0,0,0,0-.01-.01-.02-.01-.04-.03-.05-.04,0,0,0,0-.01,0-.02-.01-.04-.03-.06-.04,0,0,0,0-.01,0-.02-.02-.04-.03-.06-.05,0,0,0,0,0,0-.02-.02-.04-.03-.06-.05h0s-.04-.03-.06-.05c0,0,0,0,0,0-.02-.01-.04-.03-.06-.05h0s-.04-.04-.06-.05c0,0,0,0,0,0-.02-.02-.04-.03-.06-.05,0,0,0,0,0,0-.02-.02-.04-.03-.06-.05h0s-.09-.07-.13-.1h0s-.04-.03-.06-.05c0,0,0,0,0,0-.02-.02-.04-.03-.06-.05,0,0,0,0,0,0-.02-.01-.04-.03-.06-.05,0,0,0,0-.01,0-.02-.02-.04-.03-.06-.05,0,0,0,0,0,0-.02-.02-.04-.03-.06-.05,0,0,0,0,0,0-.02-.01-.03-.03-.05-.04,0,0,0,0-.01,0-.02-.01-.03-.03-.05-.04h-.02s-.03-.04-.05-.05c0,0-.01-.01-.02-.02-.01-.01-.03-.02-.05-.04,0,0,0,0-.01,0h0Zm6.92,5.16l-5.53,7.99c1.59,1.1,3.22,2.18,4.86,3.21l5.17-8.22c-1.52-.96-3.03-1.95-4.5-2.97h0Zm7.27,4.66l-4.95,8.36c1.66.99,3.37,1.95,5.08,2.86l4.58-8.57c-.59-.32-1.19-.64-1.78-.97,0,0,0,0,0,0-.02-.01-.05-.03-.07-.04,0,0,0,0,0,0-.02-.01-.05-.03-.07-.04,0,0,0,0,0,0-.02-.01-.05-.03-.07-.04,0,0,0,0,0,0-.02-.01-.05-.03-.07-.04,0,0,0,0,0,0-.02-.01-.04-.02-.06-.03,0,0,0,0-.01,0-.02,0-.04-.02-.06-.03,0,0-.01,0-.02-.01-.02-.01-.04-.02-.06-.03,0,0-.01,0-.02-.01-.02,0-.04-.02-.05-.03,0,0-.01,0-.02-.01-.02,0-.03-.02-.04-.03-.01,0-.02-.01-.03-.02l-.04-.02-.03-.02s-.03-.02-.04-.02c0,0-.02-.01-.03-.02-.02,0-.03-.02-.05-.03,0,0-.02-.01-.03-.02-.02,0-.03-.02-.05-.03,0,0-.02-.01-.03-.02-.01,0-.02-.01-.04-.02-.01,0-.03-.02-.04-.02-.01,0-.02-.01-.03-.02-.02,0-.03-.02-.04-.03-.01,0-.02-.01-.03-.02-.01,0-.03-.02-.04-.02-.01,0-.02-.01-.03-.02-.01,0-.02-.01-.03-.02-.01,0-.03-.02-.05-.03-.01,0-.02-.01-.03-.02-.02,0-.03-.02-.05-.03,0,0-.02-.01-.03-.02-.01,0-.02-.01-.03-.02-.01,0-.03-.02-.04-.02-.01,0-.02-.01-.04-.02l-.03-.02s-.03-.02-.04-.02c0,0-.02-.01-.03-.02-.02,0-.03-.02-.05-.03,0,0-.02,0-.03-.01-.02,0-.03-.02-.05-.03,0,0-.02-.01-.03-.02l-.05-.03s-.01,0-.02-.01c-.02,0-.03-.02-.05-.03,0,0-.01,0-.02-.01-.02,0-.03-.02-.05-.03,0,0-.01,0-.02,0-.02-.01-.04-.02-.06-.03,0,0-.01,0-.02,0-.02-.01-.04-.02-.06-.03,0,0,0,0-.01,0-.02-.01-.04-.03-.06-.04,0,0,0,0,0,0-.02-.01-.04-.03-.07-.04,0,0,0,0,0,0-.22-.13-.44-.26-.65-.38h0Zm7.58,4.14l-4.35,8.69c1.73.87,3.5,1.7,5.27,2.49l3.96-8.87c-.33-.15-.67-.3-1-.45,0,0,0,0,0,0-.02-.01-.05-.02-.07-.03,0,0,0,0,0,0-.02,0-.05-.02-.07-.03,0,0,0,0,0,0-.02,0-.05-.02-.07-.03,0,0,0,0,0,0-.02,0-.04-.02-.07-.03,0,0-.01,0-.01,0-.02,0-.04-.02-.06-.03,0,0-.01,0-.02,0-.02,0-.04-.02-.06-.03,0,0-.01,0-.02-.01-.02,0-.04-.02-.06-.03,0,0-.02,0-.02-.01-.01,0-.03-.01-.04-.02l-.04-.02s-.03-.01-.04-.02c-.01,0-.03-.01-.04-.02-.01,0-.02-.01-.04-.02-.01,0-.02-.01-.03-.02-.01,0-.03-.01-.05-.02-.01,0-.02-.01-.04-.02,0,0-.02-.01-.03-.01-.02,0-.04-.02-.05-.02,0,0-.01,0-.02,0-.02-.01-.04-.02-.06-.03,0,0,0,0-.01,0l-.07-.03h0c-.93-.44-1.84-.88-2.76-1.34h0Zm7.85,3.59l-3.72,8.97c1.79.74,3.61,1.45,5.43,2.11l3.32-9.13s-.02,0-.03-.01c0,0-.02,0-.03,0-.01,0-.02,0-.04-.01-.02,0-.03-.01-.05-.02,0,0-.02,0-.02,0-.02,0-.04-.01-.06-.02,0,0-.01,0-.02,0-.02,0-.05-.02-.07-.02,0,0,0,0,0,0-1.59-.58-3.15-1.19-4.71-1.84h0Zm8.09,3.02l-3.08,9.21c1.83.61,3.71,1.19,5.57,1.72l2.67-9.34c-.35-.1-.7-.2-1.05-.31,0,0,0,0,0,0-.02,0-.05-.02-.07-.02,0,0,0,0,0,0-.02,0-.05-.02-.07-.02,0,0,0,0,0,0-.02,0-.05-.01-.07-.02,0,0,0,0,0,0-.02,0-.04-.01-.07-.02,0,0-.01,0-.02,0-.02,0-.04-.01-.06-.02,0,0-.01,0-.02,0-.02,0-.04-.01-.06-.02h-.02s-.04-.02-.05-.02c-.01,0-.02,0-.03,0-.01,0-.03,0-.04-.01-.01,0-.02,0-.04-.01-.02,0-.03,0-.04-.01-.01,0-.02,0-.03,0-.02,0-.03-.01-.05-.02-.01,0-.02,0-.03,0-.02,0-.03-.01-.05-.02-.01,0-.02,0-.03,0-.01,0-.03,0-.04-.01-.01,0-.03,0-.04-.01-.02,0-.02,0-.04-.01-.01,0-.03,0-.04-.01-.01,0-.02,0-.04-.01-.01,0-.02,0-.03,0-.01,0-.04-.01-.05-.02-.01,0-.02,0-.03-.01-.02,0-.03,0-.05-.02-.01,0-.02,0-.03-.01-.01,0-.03,0-.04-.01-.01,0-.03,0-.04-.01-.01,0-.02,0-.04-.01h-.03s-.03-.02-.05-.03h-.03s-.04-.02-.06-.03c0,0-.02,0-.03,0-.02,0-.04-.01-.06-.02,0,0-.02,0-.02,0-.02,0-.03-.01-.05-.02,0,0-.02,0-.03,0-.02,0-.03-.01-.05-.02,0,0-.02,0-.02,0-.02,0-.04-.01-.06-.02,0,0-.01,0-.02,0-.02,0-.04-.01-.06-.02,0,0-.01,0-.02,0-.02,0-.04-.01-.06-.02,0,0-.01,0-.01,0-.02,0-.04-.01-.06-.02,0,0-.01,0-.02,0-.02,0-.04-.01-.06-.02h-.02s-.04-.02-.07-.03c0,0-.01,0-.02,0-.02,0-.04-.01-.07-.02h-.01s-.05-.02-.07-.03c0,0,0,0-.01,0-.02,0-.04-.01-.07-.02,0,0,0,0,0,0-.02,0-.05-.02-.07-.02,0,0,0,0-.01,0-.02,0-.05-.02-.07-.02,0,0,0,0-.01,0-.03,0-.04-.01-.07-.02,0,0,0,0-.01,0-.02,0-.05-.02-.07-.02,0,0,0,0,0,0-.03,0-.05-.02-.07-.02,0,0,0,0,0,0-.02,0-.05-.02-.07-.02,0,0,0,0,0,0-.02,0-.05-.02-.07-.02,0,0,0,0-.01,0-.03,0-.05-.01-.07-.02,0,0,0,0,0,0-.05-.02-.1-.03-.15-.05,0,0,0,0,0,0-.03,0-.04-.01-.07-.02,0,0-.01,0-.02,0-.02,0-.04-.01-.07-.02,0,0-.01,0-.02,0-.02,0-.04-.01-.06-.02,0,0-.01,0-.02,0-.02,0-.04-.01-.06-.02,0,0-.01,0-.02,0-.02,0-.04-.01-.05-.02,0,0-.02,0-.02,0-.02,0-.04-.01-.06-.02h-.03s-.03-.02-.05-.03c-.01,0-.02,0-.03-.01-.01,0-.02,0-.03,0-.02,0-.04-.01-.06-.02,0,0-.01,0-.02,0-.01,0-.02,0-.03-.01h0Zm8.28,2.44l-2.42,9.41c1.87.48,3.78.93,5.67,1.32l2-9.51c-.59-.12-1.18-.25-1.77-.39,0,0,0,0,0,0-.01,0-.03,0-.04,0h0s-.02,0-.04,0c0,0,0,0,0,0-.02,0-.04,0-.05-.01,0,0-.02,0-.02,0h-.01s-.02,0-.03-.01c0,0,0,0,0,0-.01,0-.02,0-.04,0h0s-.03,0-.04-.01h0c-1.06-.24-2.12-.5-3.17-.77h0Zm8.43,1.85l-1.74,9.56c1.9.35,3.84.66,5.75.92l1.32-9.62c-1.32-.18-2.63-.38-3.94-.61h0s-.03,0-.05,0h0s-.03,0-.04,0h0s-.03,0-.05,0h0s-.03,0-.05,0c0,0,0,0,0,0-.01,0-.02,0-.03,0,0,0-.02,0-.02,0,0,0-.02,0-.02,0,0,0-.02,0-.02,0,0,0-.01,0-.02,0,0,0-.02,0-.03,0,0,0,0,0-.01,0,0,0-.02,0-.03,0,0,0,0,0-.01,0-.01,0-.02,0-.03,0t0,0c-.32-.06-.63-.11-.95-.17h0Zm8.54,1.25l-1.07,9.66c1.92.21,3.87.38,5.8.51l.64-9.69c-.06,0-.13,0-.19-.01h0s-.03,0-.04,0h0s-.03,0-.04,0h0s-.06,0-.09,0c0,0-.01,0-.02,0,0,0-.02,0-.03,0,0,0-.02,0-.02,0,0,0-.01,0-.02,0,0,0-.02,0-.02,0,0,0-.01,0-.02,0,0,0-.02,0-.03,0,0,0,0,0-.01,0-.01,0-.02,0-.03,0h0c-1.33-.1-2.66-.21-3.98-.35h0s-.03,0-.03,0c0,0-.01,0-.02,0,0,0-.02,0-.03,0,0,0-.02,0-.02,0,0,0-.01,0-.02,0-.22-.02-.45-.05-.67-.07h0Zm8.61.65l-.39,9.71c1.78.07,3.58.11,5.37.11h.45s-.03-9.71-.03-9.71c-.05,0-.09,0-.14,0,0,0-.02,0-.03,0h0c-.08,0-.16,0-.24,0h-.09s-.05,0-.07,0h-.01s-.04,0-.06,0h-.01s-.04,0-.07,0h-.02s-.04,0-.06,0h0s-.05,0-.07,0h-.02s-.05,0-.07,0h0s-.04,0-.07,0c0,0-.01,0-.02,0-.02,0-.04,0-.07,0h0s-.04,0-.07,0h0s-.05,0-.07,0c0,0,0,0,0,0-.02,0-.05,0-.07,0h0s-.05,0-.07,0c0,0,0,0-.01,0-.05,0-.1,0-.15,0h0s-.05,0-.07,0h0s-.05,0-.07,0h0s-.05,0-.08,0h0s-.1,0-.15,0h0c-.86-.01-1.71-.03-2.56-.06,0,0,0,0,0,0-.02,0-.05,0-.08,0h0s-.05,0-.07,0c0,0,0,0,0,0-.02,0-.05,0-.07,0,0,0,0,0-.01,0-.02,0-.04,0-.06,0,0,0,0,0,0,0-.02,0-.05,0-.07,0,0,0-.01,0-.02,0-.02,0-.04,0-.07,0,0,0,0,0-.01,0-.02,0-.04,0-.05,0,0,0-.02,0-.02,0-.02,0-.04,0-.06,0,0,0-.02,0-.03,0-.02,0-.02,0-.04,0-.01,0-.02,0-.03,0-.02,0-.03,0-.05,0-.01,0-.03,0-.04,0,0,0-.01,0-.02,0-.01,0-.02,0-.03,0h0Zm14.02-.23c-1.79.13-3.58.22-5.39.28l.28,9.71c1.93-.06,3.89-.16,5.81-.3l-.71-9.69h0Zm8.58-.93c-.53.08-1.05.15-1.58.22h0s-.02,0-.04,0c0,0,0,0,0,0,0,0-.02,0-.03,0,0,0-.01,0-.02,0,0,0-.02,0-.03,0,0,0-.01,0-.02,0-.01,0-.02,0-.03,0,0,0,0,0-.01,0,0,0-.02,0-.03,0,0,0,0,0,0,0-.02,0-.04,0-.06,0,0,0-.02,0-.02,0,0,0-.02,0-.02,0,0,0-.02,0-.03,0,0,0-.01,0-.02,0,0,0-.02,0-.03,0,0,0,0,0-.01,0-.01,0-.02,0-.03,0t-.02,0s-.02,0-.03,0c0,0,0,0-.01,0-.05,0-.09.01-.14.02h0s-.03,0-.04,0h0s-.03,0-.04,0h0c-.32.04-.64.08-.96.12h0s-.06,0-.09.01h0c-.06,0-.13.01-.19.02,0,0,0,0-.01,0-.01,0-.02,0-.04,0h0s-.03,0-.04,0h0s-.03,0-.04,0h0s-.03,0-.04,0h0s-.06,0-.09.01h0s-.03,0-.04,0c0,0,0,0-.01,0-.01,0-.02,0-.03,0,0,0-.01,0-.02,0,0,0-.02,0-.03,0,0,0,0,0-.02,0h-.03s-.01,0-.02,0c0,0-.02,0-.03,0,0,0-.01,0-.02,0h-.03s-.03,0-.04,0c0,0-.02,0-.02,0,0,0-.02,0-.02,0,0,0-.01,0-.02,0,0,0-.02,0-.03,0,0,0-.01,0-.02,0,0,0-.02,0-.03,0,0,0,0,0-.01,0-.01,0-.02,0-.03,0,0,0,0,0-.01,0-.01,0-.02,0-.03,0,0,0,0,0,0,0-.06,0-.11.01-.17.02,0,0,0,0,0,0-.01,0-.03,0-.04,0,0,0,0,0,0,0-.02,0-.02,0-.04,0,0,0,0,0,0,0-.01,0-.03,0-.04,0,0,0,0,0,0,0-.22.02-.45.05-.67.07l.96,9.67c1.92-.19,3.87-.43,5.78-.7l-1.39-9.61h0Zm8.5-1.53c-.86.19-1.72.36-2.59.53,0,0,0,0-.01,0,0,0-.01,0-.02,0,0,0-.02,0-.02,0,0,0-.01,0-.02,0,0,0-.02,0-.03,0t-.02,0s-.02,0-.03,0c0,0,0,0-.01,0-.01,0-.02,0-.04,0h0c-.78.15-1.56.3-2.35.43h0s-.03,0-.04,0c0,0,0,0-.01,0-.01,0-.02,0-.03,0,0,0,0,0-.01,0-.01,0-.02,0-.03,0,0,0,0,0-.01,0,0,0,0,0,0,0l1.64,9.57c1.91-.33,3.83-.7,5.72-1.11l-2.06-9.49h0Zm8.37-2.13c-.95.28-1.91.55-2.87.8h0s-.05.02-.08.02h-.02s-.05.02-.07.02c0,0-.01,0-.02,0-.02,0-.04.01-.06.02,0,0-.02,0-.03,0-.01,0-.02,0-.04,0-.01,0-.03,0-.04.01-.02,0-.03,0-.05.01-.01,0-.02,0-.03,0-.02,0-.03,0-.05.01s-.02,0-.04.01c-.01,0-.02,0-.03,0-.02,0-.04,0-.05.01,0,0-.02,0-.03,0-.02,0-.04,0-.06.02,0,0-.02,0-.02,0-.02,0-.04.01-.06.02,0,0-.01,0-.02,0-.02,0-.04.01-.06.02,0,0-.01,0-.02,0-.02,0-.05.01-.07.02,0,0,0,0-.01,0-.02,0-.05.01-.07.02,0,0-.01,0-.01,0-.02,0-.05.01-.07.02h-.01s-.05.02-.07.02c0,0,0,0,0,0-.05.01-.11.03-.16.04,0,0,0,0,0,0-.03,0-.05.01-.08.02,0,0,0,0,0,0-.03,0-.05.01-.08.02h0c-.27.07-.55.14-.82.2l2.31,9.43c1.88-.46,3.77-.97,5.63-1.51l-2.73-9.32h0Zm8.19-2.72c-.14.05-.29.11-.43.16h0s-.05.02-.08.03c0,0,0,0-.01,0-.02,0-.04.02-.06.02,0,0-.02,0-.03,0-.01,0-.02,0-.04.01-.01,0-.03.01-.05.02-.01,0-.02,0-.03.01-.01,0-.03.01-.05.02-.01,0-.02,0-.03.01-.02,0-.03.01-.05.02,0,0-.02,0-.02,0-.02,0-.04.01-.06.02,0,0-.01,0-.02,0-.02,0-.05.02-.06.02h-.02s-.04.02-.07.03c0,0,0,0-.01,0-.02,0-.05.02-.07.03,0,0,0,0,0,0-.05.02-.1.04-.16.06,0,0,0,0,0,0-.03,0-.05.02-.08.03,0,0,0,0,0,0-.5.18-1,.36-1.51.53,0,0,0,0,0,0-.02,0-.05.02-.07.02h0s-.04.02-.07.03c0,0,0,0-.01,0-.02,0-.05.02-.07.02,0,0,0,0,0,0-.02,0-.04.01-.07.02,0,0,0,0-.01,0-.02,0-.04.01-.07.02,0,0-.01,0-.02,0-.02,0-.04.01-.06.02h-.02s-.04.02-.06.03c0,0-.02,0-.03,0-.01,0-.03.01-.05.02-.01,0-.02,0-.04.01-.01,0-.02,0-.04.01-.02,0-.03.01-.05.02-.01,0-.02,0-.03.01-.02,0-.05.02-.07.02,0,0,0,0,0,0-.01,0-.03,0-.04.01,0,0,0,0,0,0-.03,0-.05.02-.08.03h0c-.39.13-.78.26-1.17.38l2.98,9.25c1.84-.59,3.69-1.23,5.51-1.91l-3.39-9.1h0Zm7.98-3.29c-1.63.74-3.29,1.45-4.96,2.12l3.63,9.01c1.79-.72,3.6-1.49,5.36-2.29l-4.02-8.84h0Zm7.73-3.85c-1.26.68-2.53,1.34-3.81,1.98,0,0,0,0,0,0-.02.01-.05.02-.07.03,0,0,0,0,0,0-.02.01-.05.02-.07.03,0,0,0,0-.01,0-.02.01-.04.02-.06.03,0,0-.01,0-.02,0-.02,0-.04.02-.05.03,0,0-.02,0-.03.01-.01,0-.03.01-.04.02-.01,0-.03.01-.04.02-.01,0-.02.01-.03.02-.02,0-.03.02-.05.03,0,0-.02,0-.02.01-.16.08-.32.16-.48.23l4.26,8.73c1.74-.85,3.48-1.74,5.18-2.67l-4.64-8.54h0Zm7.44-4.39s-.02.01-.03.02c0,0,0,0-.01,0-.02.01-.04.03-.06.04,0,0,0,0-.01,0l-.06.04s0,0-.01,0c-.06.04-.13.08-.19.12,0,0-.01,0-.01,0-.02.01-.04.03-.06.04,0,0,0,0-.01,0-.02.01-.04.03-.07.04,0,0,0,0,0,0-.02.02-.05.03-.07.05h0c-.06.04-.13.08-.19.12h0s-.05.03-.07.05h0s-.05.03-.07.05h0c-1.04.65-2.09,1.29-3.16,1.91,0,0-.01,0-.01,0-.02.01-.04.02-.06.03,0,0-.02,0-.02.01-.02.01-.04.02-.05.03-.01,0-.01,0-.02.01-.02,0-.03.02-.05.03-.01,0-.02.01-.03.02-.01,0-.02.01-.03.02-.01,0-.03.02-.05.03,0,0-.02.01-.03.02-.02,0-.03.02-.05.03,0,0-.01,0-.02.01-.02,0-.03.02-.05.03,0,0,0,0-.01,0l4.86,8.41c1.67-.97,3.35-1.98,4.98-3.03l-5.23-8.19h0Zm7.11-4.9c-1.44,1.07-2.91,2.11-4.4,3.12l5.44,8.05c1.6-1.08,3.2-2.21,4.75-3.37l-5.79-7.8h0Zm6.75-5.38s0,0,0,0c-.01.01-.03.03-.05.04,0,0,0,0-.01,0-.02.01-.04.03-.06.05,0,0,0,0,0,0-.02.02-.04.03-.06.05,0,0,0,0,0,0-.02.02-.04.03-.06.05,0,0,0,0,0,0-1.22,1.04-2.46,2.05-3.71,3.04,0,0,0,0,0,0-.02.01-.04.03-.06.05,0,0,0,0-.01,0-.02.01-.04.03-.05.04,0,0-.01,0-.02.01-.02.01-.03.03-.05.04,0,0,0,0-.01,0l5.99,7.65c1.52-1.19,3.03-2.43,4.5-3.69l-6.32-7.38h0Zm6.35-5.84c-1.28,1.26-2.59,2.5-3.92,3.7l6.51,7.21c1.43-1.3,2.86-2.64,4.23-4l-6.82-6.91h0Zm5.93-6.27c-.19.22-.38.43-.58.65,0,0-.01.01-.02.02-.01.01-.03.03-.04.04,0,0-.01.02-.02.02-.01.01-.02.02-.03.04-.01.01-.02.02-.03.03,0,0-.02.02-.03.03-.01.01-.02.03-.03.04,0,0-.01.01-.02.02-.01.01-.03.03-.04.05,0,0-.01.01-.02.02-.02.02-.03.03-.04.05,0,0-.01.01-.02.02-.01.01-.03.03-.04.05,0,0,0,0-.01.01-.02.02-.03.04-.05.05,0,0,0,0,0,0-.02.02-.03.04-.05.05,0,0,0,0,0,0-.02.02-.04.04-.05.06,0,0,0,0,0,0-.02.02-.03.04-.05.06,0,0,0,0,0,0-.02.02-.04.04-.05.06,0,0,0,0,0,0-.07.08-.15.16-.22.25h0s-.04.04-.06.06c0,0,0,0,0,0-.02.02-.04.04-.05.06,0,0,0,0,0,0-.02.02-.04.04-.05.06t0,0c-.06.06-.11.12-.17.18,0,0,0,0,0,0-.02.02-.04.04-.05.06,0,0,0,0,0,0-.02.02-.04.04-.05.06,0,0,0,0,0,0-.02.02-.04.04-.05.06,0,0,0,0,0,0-.04.04-.07.08-.11.12,0,0,0,0,0,0-.02.02-.04.04-.05.06,0,0,0,0,0,0-.02.02-.03.03-.05.05,0,0,0,0,0,0-.02.02-.03.04-.05.05,0,0,0,0-.01.01-.02.02-.03.03-.05.05,0,0,0,0,0,0-.02.02-.03.04-.05.05h0s-.03.04-.04.06c0,0,0,0-.01.01-.02.02-.03.03-.04.05,0,0-.01.01-.02.02-.01.01-.03.03-.04.05,0,0-.01.01-.02.02-.02.02-.03.03-.04.04,0,0-.01.01-.02.02-.01.01-.03.03-.04.04,0,0-.01.01-.02.02,0,0-.02.02-.03.03-.01.01-.02.02-.03.04,0,0-.02.02-.02.03-.01.01-.02.02-.03.04,0,0-.02.02-.02.03-.01.01-.03.03-.04.04,0,0-.02.02-.02.02-.03.03-.06.06-.09.1h0s-.04.04-.06.06c0,0,0,0,0,0-.02.02-.04.04-.06.06h0s-.04.05-.06.07h0c-.16.17-.33.34-.49.52l7,6.73c1.34-1.39,2.67-2.83,3.94-4.28l-7.29-6.42h0Zm5.47-6.67c-.4.52-.8,1.04-1.21,1.56h0s-.03.05-.05.07c0,0,0,0,0,.01-.01.02-.03.04-.04.06,0,0,0,.01-.01.02-.01.02-.03.03-.04.05,0,0,0,.01-.02.02,0,.01-.02.02-.02.03,0,.01-.02.03-.03.04,0,.01-.02.02-.02.03,0,.01-.02.03-.03.04,0,0-.01.02-.02.03,0,.01-.02.03-.03.04,0,.01-.02.02-.02.03,0,.01-.02.02-.03.03,0,.01-.02.02-.02.03,0,.01-.02.02-.03.04,0,0-.01.02-.02.03,0,.01-.02.03-.03.04,0,0-.01.01-.02.02-.01.02-.03.03-.04.05,0,0-.01.01-.01.02-.01.02-.03.03-.04.05,0,0,0,.01-.01.02-.01.02-.03.03-.04.05,0,0,0,0-.01.01-.01.02-.03.04-.04.05,0,0,0,0,0,0-.02.02-.03.04-.04.06,0,0,0,0,0,0-.01.02-.03.04-.05.06,0,0,0,0,0,.01-.01.02-.03.04-.04.05,0,0,0,0-.01.01-.01.02-.03.04-.04.06,0,0,0,0,0,0-.01.02-.03.04-.05.06,0,0,0,0,0,0-.02.02-.03.04-.05.06,0,0,0,0,0,0-.02.02-.03.04-.05.06,0,0,0,0,0,0-.01.02-.03.04-.05.06,0,0,0,0,0,.01-.01.02-.03.04-.05.06,0,0,0,0,0,.01-.01.02-.03.04-.05.06,0,0,0,0,0,0-.01.02-.03.04-.05.06,0,0,0,0,0,.01-.02.02-.03.04-.05.06,0,0,0,0,0,0-.02.02-.03.04-.05.06,0,0,0,0,0,0-.01.02-.03.04-.05.06,0,0,0,0,0,.01-.01.02-.03.04-.04.05,0,0,0,.01-.01.02-.01.02-.03.03-.04.05,0,0,0,0-.01.01-.01.02-.03.03-.04.05,0,0,0,.01-.01.02-.01.01-.03.03-.04.05,0,0,0,.01-.01.02l-.04.04s-.01.01-.02.02c-.01.01-.02.03-.04.04,0,0-.01.02-.02.02-.01.01-.02.03-.04.04,0,0-.01.02-.02.02-.01.01-.02.03-.03.04,0,0-.02.02-.02.03,0,0-.01.01-.02.02-.01.02-.03.03-.04.05,0,0,0,0-.01.02l-.05.06s0,0,0,0c-.04.05-.09.1-.13.16l7.46,6.23c1.24-1.48,2.46-3.01,3.63-4.55l-7.72-5.89h0Zm4.99-7.04s0,0,0,0c-.01.02-.03.05-.05.07,0,0,0,0,0,0-.01.02-.03.05-.05.07,0,0,0,0,0,0-.71,1.08-1.44,2.15-2.19,3.2,0,0,0,0,0,0-.1.14-.19.27-.29.41h0c-.08.12-.16.23-.24.34,0,0,0,0,0,0-.02.02-.03.05-.05.07,0,0,0,0,0,0-.02.02-.03.04-.05.07,0,0,0,0,0,0-.05.07-.1.14-.15.2t0,0l7.87,5.69c1.13-1.57,2.24-3.18,3.31-4.79l-8.12-5.34h0Zm4.49-7.38c-.36.65-.73,1.29-1.11,1.94h0s-.03.06-.04.08h0s-.03.05-.04.08h0s-.05.08-.07.12h0s-.03.05-.04.08c0,0,0,0,0,.01-.01.02-.03.04-.04.07,0,0,0,0,0,.01-.01.02-.02.04-.04.06v.02s-.04.04-.05.06c0,0,0,0,0,.01,0,.01-.01.02-.02.04,0,0,0,.01,0,.01-.01.02-.02.04-.04.06,0,0,0,.01-.01.02-.01.02-.02.04-.03.05,0,0,0,.02-.01.02-.01.02-.02.04-.03.05,0,0,0,.02-.01.02-.01.02-.02.03-.03.05,0,0,0,.01-.01.02,0,.02-.02.03-.03.05,0,0-.01.02-.02.03,0,.01-.01.02-.02.03,0,.01-.02.03-.03.04,0,.01-.01.02-.02.03,0,0-.01.02-.02.03,0,.02-.02.03-.03.05,0,0-.01.02-.01.02-.01.02-.02.03-.03.05,0,0,0,.02-.02.03,0,.01-.02.03-.03.04,0,.01-.01.02-.02.03l-.02.03s-.02.03-.03.04c0,.01-.01.02-.02.03,0,.01-.01.02-.02.03,0,.01-.02.03-.02.04,0,0-.01.02-.02.03,0,.01-.02.03-.02.04,0,.01-.01.02-.02.03,0,.01-.02.03-.02.04,0,0-.02.03-.02.04,0,0-.01.02-.02.03-.01.02-.02.03-.03.04,0,.01-.01.02-.02.03,0,.01-.02.03-.03.04,0,.01-.01.02-.02.03,0,.01-.01.02-.02.03l-.02.04s-.01.02-.02.03c0,.01-.02.03-.03.04,0,0-.01.02-.02.03,0,.02-.02.03-.03.05,0,0-.01.02-.02.03l-.02.03s-.02.03-.03.04c0,.01-.01.02-.02.03,0,.01-.02.03-.03.04,0,0-.01.02-.02.03,0,0-.01.02-.02.03,0,.02-.02.03-.03.05,0,0-.01.02-.02.02-.01.02-.02.03-.03.05,0,0,0,.01-.01.02-.01.02-.02.03-.03.05,0,0,0,.01-.01.02,0,.01-.02.03-.02.04,0,0-.02.03-.02.03,0,0,0,.01-.01.02l8.25,5.12c1.02-1.64,2.02-3.33,2.96-5.02l-8.47-4.75h0Zm3.95-7.67c-.52,1.09-1.05,2.18-1.59,3.26,0,0,0,0,0,0-.01.02-.02.05-.04.07,0,0,0,0,0,0-.01.02-.02.05-.04.07,0,0,0,0,0,0-.02.05-.05.1-.07.14,0,0,0,0,0,0-.01.02-.02.04-.03.07,0,0,0,0,0,.01-.01.02-.02.04-.03.06,0,0,0,.01,0,.02,0,.02-.02.04-.03.06,0,0,0,.01,0,.02-.01.02-.02.03-.03.06,0,0,0,.01-.01.02,0,.01-.02.03-.02.04,0,.01-.01.02-.02.03,0,.01-.01.03-.02.04,0,0-.01.02-.01.03,0,.01-.02.03-.02.05,0,.01-.01.02-.02.03,0,0,0,.02-.01.02-.01.02-.02.04-.03.06,0,0,0,0,0,0-.01.03-.03.05-.04.08h0c-.1.19-.2.38-.29.57l8.59,4.53c.9-1.71,1.78-3.47,2.6-5.21l-8.79-4.14h0Zm3.4-7.93c-.03.08-.06.16-.09.23,0,0,0,0,0,0-.01.03-.02.05-.03.07,0,0,0,0,0,0-.01.03-.02.05-.03.07,0,0,0,0,0,0,0,.03-.02.05-.03.07,0,0,0,0,0,0-.01.03-.02.04-.03.07,0,0,0,0,0,.01,0,.02-.02.04-.03.07,0,0,0,.01,0,.02,0,.02-.02.04-.02.06,0,0,0,.01,0,.02,0,.02-.02.04-.02.06,0,0,0,.01,0,.02,0,.02-.01.04-.02.05v.02s-.02.03-.03.05c0,0,0,.02-.01.03,0,.02-.01.03-.02.05,0,0,0,.02-.01.03,0,.02-.01.04-.02.05,0,0,0,.02-.01.03,0,.02-.01.03-.02.05,0,.01,0,.02-.01.03,0,.01,0,.02-.01.03,0,.02-.01.03-.02.05,0,.01,0,.02-.01.03l-.02.05s-.01.03-.01.04c0,.01,0,.02-.01.03,0,.01-.01.03-.02.05,0,.01,0,.02-.01.03,0,.01-.01.03-.02.04,0,.01-.01.03-.02.04,0,.01,0,.02-.01.03,0,.02-.01.04-.02.05,0,0,0,.02-.01.03,0,.02-.01.04-.02.05,0,.01,0,.02-.01.03,0,.02-.02.04-.02.06,0,0,0,.02,0,.02,0,.01-.01.03-.02.04,0,.01,0,.02-.01.03,0,.02-.01.03-.02.05,0,.01,0,.02-.01.03,0,.02-.01.04-.02.05,0,.01,0,.02-.01.03,0,.02-.01.04-.02.05,0,.01,0,.01-.01.03,0,.02-.01.04-.02.06,0,0,0,.02-.01.03,0,.01-.01.02-.02.04,0,.01-.01.03-.02.04,0,.01-.01.03-.02.04,0,.01,0,.02-.01.03,0,.02-.02.04-.02.05,0,0,0,.02,0,.02,0,.02-.02.04-.02.06,0,0,0,.02,0,.02,0,.02-.01.04-.02.05,0,.01,0,.02-.01.03,0,.01,0,.02-.01.04,0,.01-.01.03-.02.05,0,.01,0,.02-.01.03,0,.01,0,.02-.02.04,0,.01-.01.03-.02.04,0,.01,0,.02-.01.03,0,.02-.01.03-.02.05,0,.01-.01.02-.01.04,0,.01-.01.03-.02.04,0,.01-.01.03-.02.04,0,.01,0,.02-.01.03,0,.01-.02.04-.02.05,0,.01,0,.02-.01.03,0,.02-.01.03-.02.05,0,0,0,.02-.01.03,0,.01-.01.03-.02.05,0,0,0,.02-.01.03,0,.01-.01.03-.02.05,0,0,0,.01,0,.02,0,.02-.02.04-.02.06,0,0,0,.02,0,.02,0,.02-.02.04-.02.06,0,0,0,.02,0,.02,0,.02-.02.04-.02.06,0,0,0,.01,0,.02,0,.02-.01.03-.02.06,0,0,0,.01,0,.02,0,.01-.02.04-.02.05,0,0,0,.01,0,.02,0,.02-.02.04-.03.06,0,0,0,.01,0,.02,0,.02-.02.04-.03.06,0,0,0,.01,0,.02,0,.02-.02.04-.03.06,0,0,0,.01,0,.02,0,.02-.02.04-.03.06,0,0,0,0,0,.01,0,.02-.02.04-.03.06,0,0,0,0,0,0,0,.02-.02.05-.03.07,0,0,0,0,0,.01-.01.02-.02.04-.03.07,0,0,0,0,0,.01,0,.02-.02.04-.03.07,0,0,0,0,0,.01,0,.02-.02.05-.03.07,0,0,0,0,0,0-.02.05-.04.1-.06.15,0,0,0,0,0,0-.01.02-.02.05-.03.07,0,0,0,0,0,0,0,.02-.02.05-.03.07,0,0,0,0,0,0-.01.02-.02.05-.03.07,0,0,0,0,0,0-.02.05-.05.1-.07.15,0,0,0,0,0,0l8.89,3.91c.78-1.77,1.53-3.58,2.22-5.39l-9.06-3.51h0Zm2.83-8.16c-.06.19-.12.37-.17.56,0,0,0,0,0,0,0,.02-.02.05-.02.07,0,0,0,0,0,.01,0,.03-.01.04-.02.07,0,0,0,0,0,.01,0,.02-.01.04-.02.07,0,0,0,.01,0,.02,0,.02-.01.04-.02.06,0,0,0,.01,0,.02,0,.02-.01.04-.02.06,0,0,0,.02,0,.03,0,.02-.01.04-.02.06,0,0,0,.02,0,.03,0,.02-.01.04-.02.05,0,.01,0,.02-.01.03,0,.01,0,.03-.01.04,0,.02-.01.03-.02.05,0,.01,0,.02-.01.03,0,.02-.01.03-.02.05,0,.01,0,.02-.01.03,0,.01,0,.02-.01.04,0,.01-.01.03-.02.05,0,.01,0,.03-.01.04,0,0,0,.02,0,.03,0,.02-.01.04-.02.06,0,0,0,.01,0,.02,0,.02-.01.04-.02.06,0,0,0,.01,0,.02,0,.02-.01.04-.02.06,0,0,0,.01,0,.02,0,.01,0,.03-.01.04,0,.01,0,.02-.01.03,0,.02-.01.04-.02.06,0,0,0,.01,0,.02,0,.02-.02.05-.02.07,0,0,0,.01,0,.02,0,.02-.01.05-.02.07,0,0,0,.01,0,.02,0,.02-.01.05-.02.07,0,0,0,.02,0,.02,0,.01,0,.03-.01.04h0s-.02.06-.03.08c0,0,0,.02,0,.02,0,.02-.01.04-.02.07,0,0,0,.01,0,.02,0,.02-.01.04-.02.06,0,0,0,.02,0,.02,0,.02-.01.04-.02.05,0,0,0,.02-.01.03v.04s-.02.02-.02.03c0,.02-.01.04-.02.05,0,.01,0,.02-.01.03,0,.02-.01.04-.02.05,0,.01,0,.02-.01.03,0,.02-.01.03-.02.05,0,.01,0,.03-.01.04,0,.01,0,.02-.01.03,0,.02-.01.03-.02.05,0,.01,0,.02-.01.03,0,.02-.01.04-.02.05,0,0,0,.02,0,.03,0,.01-.01.03-.02.05,0,.01,0,.02-.01.03,0,.01-.01.03-.02.05,0,0,0,.02,0,.03,0,.02-.01.04-.02.06,0,0,0,.02,0,.02,0,.02-.01.04-.02.06,0,0,0,.01,0,.02,0,.02-.01.04-.02.06,0,0,0,.01,0,.02,0,.02-.01.04-.02.06,0,0,0,0,0,.01,0,.02-.01.04-.02.06,0,0,0,0,0,.01,0,.02-.02.05-.02.07,0,0,0,0,0,.01,0,.02-.02.05-.02.07,0,0,0,0,0,.01,0,.03-.02.04-.02.07h0c-.03.09-.05.16-.08.24h0s-.02.05-.03.08c0,0,0,0,0,0-.11.32-.22.64-.34.95l9.15,3.27c.65-1.82,1.27-3.68,1.84-5.53l-9.28-2.86h0Zm2.24-8.34s0,0,0,0c0,.02-.01.05-.02.08,0,0,0,0,0,0,0,.02-.01.05-.02.08,0,0,0,0,0,0,0,.03-.01.05-.02.08,0,0,0,0,0,0,0,.02-.01.05-.02.08,0,0,0,0,0,0,0,.02-.01.05-.02.08,0,0,0,0,0,0,0,.03-.01.05-.02.08,0,0,0,0,0,0-.01.05-.03.11-.04.16,0,0,0,0,0,0,0,.03-.01.05-.02.08,0,0,0,0,0,0,0,.03-.01.05-.02.08,0,0,0,0,0,0-.02.08-.04.16-.06.24,0,0,0,0,0,0,0,.03-.01.05-.02.08,0,0,0,0,0,0,0,.03-.01.05-.02.08,0,0,0,0,0,0-.02.08-.04.16-.06.24,0,0,0,0,0,0,0,.03-.01.05-.02.08,0,0,0,0,0,0,0,.03-.01.05-.02.08,0,0,0,0,0,0-.01.05-.03.11-.04.16,0,0,0,0,0,0,0,.03-.01.05-.02.08,0,0,0,0,0,0,0,.03-.01.05-.02.08,0,0,0,0,0,0-.01.05-.03.11-.04.16,0,0,0,0,0,0,0,.03-.01.05-.02.08,0,0,0,0,0,0,0,.02-.01.05-.02.07,0,0,0,0,0,.01,0,.02-.01.05-.02.07,0,0,0,0,0,0,0,.03-.01.05-.02.08,0,0,0,0,0,0,0,.02-.01.05-.02.08h0s-.01.06-.02.08c0,0,0,0,0,.01,0,.02-.01.05-.02.07,0,0,0,0,0,.01,0,.02-.01.05-.02.07,0,0,0,0,0,0,0,.02-.01.05-.02.07,0,0,0,0,0,0,0,.02-.01.05-.02.07,0,0,0,.01,0,.02,0,.02-.01.04-.02.07,0,0,0,.01,0,.02,0,.02-.01.04-.02.07,0,0,0,.01,0,.02,0,.02-.01.04-.02.06,0,0,0,.01,0,.02,0,.02-.01.04-.02.06,0,0,0,.01,0,.02,0,.02-.01.04-.02.06,0,0,0,.02,0,.02,0,.02-.01.04-.02.06,0,0,0,.02,0,.03,0,.02,0,.04-.01.05,0,.01,0,.02,0,.03,0,.02,0,.03-.01.05,0,.01,0,.02,0,.03,0,.02,0,.03-.01.05v.03s-.02.04-.02.05c0,.01,0,.02,0,.03,0,.01,0,.02,0,.03,0,.02,0,.04-.01.05,0,0,0,.02,0,.03,0,.02-.01.04-.02.06,0,0,0,.02,0,.02,0,.02-.01.05-.02.07,0,0,0,.01,0,.01l-.04.13h0s-.01.06-.02.09h0c-.08.32-.17.63-.25.93l9.36,2.61c.52-1.86,1-3.76,1.44-5.65l-9.46-2.19h0Zm1.65-8.47s0,0,0,0c0,0,0,.01,0,.02,0,0,0,.02,0,.03,0,0,0,.01,0,.02,0,0,0,.02,0,.02,0,0,0,.01,0,.02,0,0,0,.01,0,.02v.02s0,.02,0,.02c0,0,0,.02,0,.02,0,0,0,.02,0,.02,0,0,0,.01,0,.02,0,.01,0,.03,0,.04,0,0,0,0,0,.01,0,.01,0,.02,0,.03,0,0,0,.02,0,.02v.02s0,.01,0,.02v.02s0,.02,0,.02c0,0,0,.01,0,.02,0,0,0,.01,0,.02,0,0,0,.02,0,.02,0,0,0,.01,0,.02,0,0,0,.01,0,.02,0,0,0,.01,0,.02,0,.01,0,.02,0,.03,0,0,0,.02,0,.02,0,.01,0,.02,0,.04,0,0,0,.01,0,.02,0,0,0,.02,0,.03,0,0,0,.01,0,.02,0,0,0,.02,0,.02,0,0,0,.01,0,.02,0,0,0,.02,0,.03,0,0,0,.01,0,.02,0,0,0,.02,0,.02,0,0,0,.01,0,.02,0,0,0,.01,0,.02,0,0,0,.02,0,.02,0,0,0,.02,0,.03,0,0,0,.01,0,.02,0,.02,0,.03,0,.05h0s0,.03,0,.05c0,0,0,0,0,.01,0,.01,0,.02,0,.03,0,0,0,.01,0,.01,0,.01,0,.02,0,.03,0,0,0,0,0,.01,0,.01,0,.02,0,.04,0,0,0,0,0,.01,0,.01,0,.03,0,.04h0c-.01.07-.02.13-.03.19h0s0,.03,0,.05h0s0,.03,0,.05h0c-.22,1.27-.45,2.53-.71,3.79l9.52,1.94c.39-1.89.73-3.82,1.04-5.73l-9.59-1.52h0Zm1.05-8.57c-.03.31-.05.62-.08.93,0,0,0,0,0,0,0,.05,0,.1-.01.15,0,0,0,.01,0,.02,0,0,0,.02,0,.03,0,0,0,.01,0,.02,0,0,0,.01,0,.02,0,0,0,.02,0,.03,0,0,0,0,0,.02,0,.01,0,.02,0,.03,0,0,0,0,0,.01-.12,1.24-.26,2.47-.41,3.7,0,0,0,0,0,.01,0,0,0,.02,0,.03,0,0,0,.02,0,.02,0,0,0,.01,0,.02,0,0,0,.02,0,.03,0,0,0,0,0,0-.01.1-.02.19-.04.29l9.63,1.26c.25-1.91.46-3.86.63-5.79l-9.68-.84h0Zm.44-8.62c0,.43-.02.86-.03,1.29h0s0,.07,0,.1h0s0,.07,0,.1h0s0,.03,0,.05c0,0,0,0,0,.01,0,.01,0,.02,0,.03,0,0,0,.01,0,.02,0,0,0,.02,0,.03,0,0,0,.01,0,.02,0,0,0,.02,0,.02,0,0,0,.01,0,.02,0,0,0,.02,0,.03,0,0,0,.02,0,.02,0,.01,0,.02,0,.03,0,.01,0,.03,0,.04,0,0,0,0,0,.01,0,.01,0,.02,0,.03,0,0,0,0,0,.01,0,.01,0,.02,0,.03,0,0,0,0,0,0,0,.01,0,.02,0,.04,0,0,0,0,0,0,0,.01,0,.02,0,.04,0,0,0,0,0,0-.04,1.14-.09,2.27-.16,3.4l9.7.58c.12-1.92.19-3.88.22-5.81l-9.71-.16h0Zm9.54-9.15l-9.7.51c.09,1.79.15,3.59.17,5.39l9.71-.09c-.02-1.93-.08-3.89-.18-5.81h0Zm-.82-9.28l-9.64,1.19c0,.05.01.11.02.16h0s0,.03,0,.04c0,0,0,.01,0,.02,0,0,0,.02,0,.03v.02s0,.01,0,.02c0,.01,0,.02,0,.03,0,0,0,0,0,.01.2,1.67.37,3.35.5,5.04l9.68-.77c-.15-1.93-.35-3.88-.59-5.79h0Zm-1.47-9.2l-9.53,1.87c.27,1.36.51,2.73.73,4.1,0,0,0,0,0,0,0,.01,0,.02,0,.04h0s0,.03,0,.04c0,0,0,0,0,0,0,.04.01.06.02.1,0,0,0,.02,0,.03,0,0,0,0,0,.01,0,.01,0,.02,0,.03,0,0,0,0,0,.01,0,.01,0,.02,0,.04h0s0,.03,0,.05h0c.04.29.09.57.13.86l9.61-1.44c-.29-1.91-.62-3.84-.99-5.74h0Zm-2.12-9.08l-9.38,2.54c.06.22.12.45.18.68,0,0,0,.01,0,.02,0,0,0,.01,0,.02,0,0,0,.01,0,.02,0,0,0,.01,0,.02,0,0,0,.02,0,.03,0,0,0,0,0,.01v.03s.01,0,.01,0c.28,1.07.55,2.14.8,3.21,0,0,0,0,0,0,0,.01,0,.02,0,.03,0,0,0,0,0,.01,0,0,0,.02,0,.03,0,0,0,.01,0,.02,0,0,0,.01,0,.02,0,0,0,.02,0,.02,0,0,0,0,0,.01,0,.01,0,.02,0,.03,0,0,0,0,0,0,.08.33.15.66.23.99l9.48-2.12c-.42-1.89-.89-3.79-1.4-5.66h0Zm-2.75-8.91l-9.17,3.2s0,0,0,0c.39,1.11.76,2.23,1.11,3.35,0,0,0,0,0,0,0,.02.02.05.02.08,0,0,0,0,0,0,0,.03.02.05.02.07h0s.02.06.02.08h0s.01.05.02.07c0,0,0,0,0,.01,0,.02.01.04.02.07,0,0,0,.01,0,.02,0,.02.01.04.02.06,0,0,0,.01,0,.02,0,.02.01.04.02.06,0,0,0,.01,0,.02,0,.02.01.04.02.06,0,0,0,.02,0,.02,0,.02.01.04.02.05,0,0,0,.02,0,.02,0,.02.01.04.02.06,0,0,0,.02,0,.03,0,.02.01.04.02.05,0,0,0,.02,0,.03,0,.02,0,.03.01.05,0,.01,0,.03.01.04,0,.02,0,.02.01.04,0,.01,0,.03.01.04,0,.01,0,.03.01.04,0,.01,0,.03.01.04,0,.02,0,.03.01.05,0,.01,0,.02,0,.03,0,.02.01.04.02.05,0,.01,0,.02,0,.03,0,.02,0,.03.01.04,0,.01,0,.03.01.04,0,.02,0,.02.01.04,0,.02,0,.03.01.05,0,.01,0,.03.01.04,0,.01,0,.02,0,.03,0,.02.01.03.02.05,0,.01,0,.02,0,.03,0,.02.01.04.02.05,0,0,0,.02,0,.03,0,.02,0,.03.01.05,0,0,0,.01,0,.02l9.31-2.79c-.55-1.85-1.16-3.72-1.8-5.54h0Zm-3.38-8.69l-8.92,3.84c.56,1.29,1.09,2.59,1.6,3.9h0s.02.05.03.07c0,0,0,0,0,.01,0,.02.02.04.02.06,0,0,0,.01,0,.02,0,.02.02.04.02.06,0,0,0,.02,0,.03,0,.01.01.03.02.04l.02.05s0,.02,0,.02c0,.02.02.05.03.07h0c.08.22.17.45.25.67l9.08-3.44c-.68-1.81-1.42-3.63-2.18-5.4h0Zm-3.99-8.43l-8.63,4.46c.08.15.15.3.23.45,0,0,0,0,0,0,.01.02.03.05.04.07,0,0,0,0,0,0,.01.02.02.05.04.07,0,0,0,0,0,0,.04.08.07.14.11.22,0,0,0,0,0,0,.01.02.02.04.03.07,0,0,0,0,0,0,.01.02.02.05.03.07,0,0,0,0,0,.01.01.02.02.04.03.07,0,0,0,0,0,0,.01.02.02.04.03.07,0,0,0,0,0,0,.01.02.02.04.03.06,0,0,0,0,0,.01.01.02.02.04.03.06,0,0,0,.01,0,.02.01.02.02.04.03.06,0,0,0,.01,0,.02,0,.02.02.04.03.06,0,0,0,.01,0,.02.01.02.02.04.03.06,0,0,0,.01.01.02,0,.01.02.04.02.05,0,0,0,.01.01.02.01.02.02.03.03.05,0,0,0,.02.01.02,0,.02.02.04.03.05,0,0,0,.02.01.02,0,.02.02.04.03.05,0,0,0,.02.01.03,0,.01.02.03.02.05,0,.01.01.02.02.03,0,.01.01.03.02.04,0,.01.01.03.02.04,0,.01.01.02.02.03,0,.02.01.03.02.05,0,.01.01.02.02.03,0,.01.01.02.02.04,0,.01.01.03.02.04,0,.01.01.03.02.04,0,0,0,.01,0,.02.01.02.02.04.03.06,0,0,0,.01,0,.02.01.02.02.04.03.07,0,0,0,0,0,.01.01.02.02.05.03.07,0,0,0,0,0,0,.05.1.09.19.14.29h0c.27.56.54,1.12.8,1.68h0s.03.06.04.09h0l.1.21s0,0,0,0c.01.02.02.05.03.07,0,0,0,0,0,.02,0,.01.01.02.02.03l8.82-4.08c-.81-1.75-1.67-3.52-2.56-5.23h0Zm-4.57-8.12l-8.29,5.06c.28.46.55.91.82,1.37h0s.03.05.04.07c0,0,0,0,0,0,.01.02.03.05.04.07,0,0,0,0,0,0,.01.02.02.04.04.07,0,0,0,0,0,0,.01.02.03.05.04.06,0,0,0,0,0,0,.01.02.02.04.03.06,0,0,0,0,0,.01.01.02.02.04.03.06,0,0,0,.01,0,.02,0,.02.02.04.03.06,0,0,0,.01.01.02.01.02.02.03.03.05,0,0,0,.01.01.02,0,.02.02.04.03.05,0,0,0,.02.01.02,0,.02.02.03.03.04,0,0,.01.02.02.03,0,.01.02.03.02.04,0,.01.01.02.02.03,0,.01.01.03.02.04,0,0,.01.02.02.03,0,.01.02.03.03.04,0,.01.01.02.02.03,0,.01.02.03.02.04,0,.01.01.02.02.03,0,0,.01.02.02.03,0,.02.02.03.03.05,0,0,.01.02.01.02.01.02.02.03.03.05,0,.01,0,.01.01.02,0,.02.02.03.03.05,0,.01,0,.02.02.03,0,.01.01.02.02.03,0,.01.02.03.03.04,0,.01.01.02.02.03,0,.01.01.02.02.03,0,.02.02.03.03.05,0,0,0,.02.01.02.01.02.02.04.03.05,0,0,0,.02.01.02,0,.02.02.03.03.05,0,.01,0,.02.02.03,0,.01.02.03.02.04,0,.01.01.03.02.04,0,.01.01.02.02.03,0,.01.02.03.03.04,0,.01.01.02.02.03,0,.01.01.03.02.04l.02.04s.02.03.02.04c0,.01.01.02.02.04,0,.01.02.03.02.04,0,0,0,.02.01.03,0,.02.02.03.03.05,0,0,0,.02.01.02,0,.02.02.04.03.05,0,0,0,.01.01.02.01.02.02.04.03.06,0,0,0,0,0,.01.01.02.02.04.04.06,0,0,0,0,0,0,.18.32.36.64.53.95l8.51-4.69c-.93-1.69-1.92-3.39-2.92-5.04h0Zm-5.13-7.78l-7.92,5.63c.88,1.24,1.73,2.49,2.57,3.76,0,0,0,0,0,0,.01.02.03.04.04.07,0,0,0,0,0,0,.01.02.03.04.04.07h0c.04.07.09.15.14.21,0,0,0,0,0,0,.01.02.03.04.04.07,0,0,0,0,0,0,.01.02.03.04.04.06,0,0,0,0,0,0,.01.02.03.04.04.06,0,0,0,0,0,0,.01.02.03.05.04.07,0,0,0,0,0,0,.01.02.03.04.04.07,0,0,0,0,0,0l8.16-5.28c-1.05-1.62-2.15-3.24-3.27-4.82h0Zm-5.66-7.4l-7.5,6.17c.97,1.18,1.92,2.38,2.85,3.6,0,0,0,0,0,.01.01.02.03.04.04.06,0,0,0,0,.01.02.01.02.02.03.04.05,0,0,.01.02.02.03l.02.03s.02.03.03.05c0,0,.01.01.02.02.01.02.03.03.04.05,0,0,0,0,0,.01.01.02.03.04.04.06,0,0,0,0,0,0,.07.09.13.18.2.26l7.76-5.84c-1.16-1.54-2.37-3.08-3.6-4.58h0Zm-6.17-6.98l-7.05,6.68c.82.86,1.63,1.74,2.42,2.63h0s.04.04.05.06c0,0,0,0,.01.01.01.02.03.03.04.05,0,0,.01.01.02.02.01.01.02.03.04.04,0,0,.02.02.02.03,0,0,.02.02.02.03.01.01.02.03.04.04l.02.02.04.04s.01.01.02.02c.01.01.03.03.04.05,0,0,0,.01.01.02.01.01.03.03.04.04,0,0,0,0,.01.01.01.01.03.03.04.05,0,0,0,0,.01.01.02.02.03.04.05.05,0,0,0,0,0,.01.02.02.03.04.05.05,0,0,0,0,0,0,.02.02.03.04.05.06,0,0,0,0,0,0,.02.02.03.04.05.06,0,0,0,0,0,0,.17.19.33.38.5.57l7.34-6.37c-1.27-1.46-2.58-2.91-3.91-4.31h0Zm-6.64-6.53l-6.57,7.16c.16.15.33.3.49.45,0,0,0,0,0,0,.02.02.04.04.06.05,0,0,0,0,0,0,.02.02.04.03.05.05,0,0,0,0,.01.01.02.02.03.03.05.05,0,0,0,0,.01.01.02.02.03.03.05.05,0,0,.01,0,.02.01.01.01.03.03.04.04,0,0,.01.01.02.02.01.01.02.02.04.03,0,0,.02.02.03.03.01.01.02.02.03.03,0,0,.02.01.02.02.01.01.03.02.04.04,0,0,.02.02.03.03.01.01.02.02.03.03.01.01.02.02.03.03,0,0,.01.01.02.02.02.01.03.03.05.04,0,0,0,0,.01.01.02.02.04.03.05.05,0,0,0,0,.01,0,.02.02.04.04.06.06h0c.89.84,1.76,1.69,2.62,2.55l6.87-6.86c-1.37-1.37-2.78-2.72-4.2-4.03h0Zm-7.08-6.05l-6.05,7.6c.29.23.59.47.88.71,0,0,0,0,.01,0,.02.01.04.03.05.04,0,0,.01,0,.02.01l.04.03s.02.02.03.03c0,0,.02.01.03.02.01.01.03.02.04.04,0,0,.01.01.02.02.01.01.03.03.05.04,0,0,.01,0,.02.01.02.01.03.03.05.04,0,0,0,0,.01,0,.02.02.03.03.06.05,0,0,0,0,0,0,.02.02.04.03.06.05h0s.04.04.06.05c0,0,0,0,0,0,.02.02.04.03.06.05,0,0,0,0,0,0,.02.02.04.04.06.05,0,0,0,0,0,0,.35.28.69.57,1.04.86,0,0,0,0,0,0,.02.02.04.04.06.05,0,0,0,0,0,0,.02.02.04.03.06.05,0,0,0,0,0,0,.02.02.04.03.06.05,0,0,0,0,0,0,.04.03.08.07.12.1h0s.04.04.05.05c0,0,0,0,.01.01.02.01.03.03.05.04,0,0,.01,0,.02.01.02.01.03.03.05.04,0,0,.01.01.02.02.01.01.03.03.05.04,0,0,.01.01.02.02.01,0,.02.02.04.03.01,0,.02.02.03.03.01,0,.02.02.03.03.01,0,.02.02.03.03.01.01.02.02.03.03,0,0,.02.02.03.02.01.01.03.02.04.03,0,0,.02.02.03.03,0,0,.01.01.02.02.02.01.03.03.05.04,0,0,0,0,.01.01.02.02.04.03.06.05h0s.04.04.06.06h0c.16.14.32.28.47.41l6.38-7.33c-1.46-1.27-2.96-2.52-4.48-3.72h0Zm-7.49-5.54l-5.5,8.01c1.48,1.02,2.94,2.07,4.38,3.15l5.85-7.76c-1.54-1.16-3.13-2.31-4.73-3.4h0Zm-7.86-5l-4.92,8.37c.5.29.99.59,1.48.89h0s.04.03.07.04c0,0,0,0,.01,0,.02.01.05.03.07.04,0,0,0,0,0,0,.01,0,.02.01.04.02,0,0,.02.01.02.01.02.01.03.02.05.03,0,0,.02.01.03.02l.04.02s.03.02.04.02c.01,0,.02.01.03.02.02.01.03.02.04.03,0,0,.01,0,.02.01.02.01.04.02.05.03,0,0,.01,0,.02.01.02.01.04.02.06.04,0,0,0,0,.01,0,.02.01.04.03.06.04,0,0,0,0,0,0,.81.5,1.62,1.01,2.42,1.53l5.29-8.15c-1.62-1.05-3.29-2.08-4.95-3.06h0Zm-8.2-4.44l-4.32,8.7c1.37.68,2.73,1.39,4.07,2.12h0s.05.03.07.04h.01s.04.03.06.04c0,0,.01,0,.02.01.01,0,.03.02.04.02.01,0,.03.01.04.02l.03.02s.04.02.05.03c0,0,.02,0,.02.01.02,0,.04.02.05.03,0,0,.01,0,.02,0,.02.01.04.02.06.03,0,0,0,0,0,0,.07.04.15.08.22.12l4.7-8.5c-1.69-.94-3.43-1.85-5.16-2.71h0Zm-8.49-3.85l-3.69,8.98s.01,0,.02,0c0,0,0,0,.01,0,.02,0,.05.02.07.03,0,0,0,0,.02,0,.02,0,.05.02.07.03,0,0,0,0,.01,0,.02.01.05.02.07.03,0,0,0,0,0,0,.07.03.14.06.21.09h0s.05.02.08.04h0s.06.02.08.04h0c.07.03.14.06.21.09,0,0,0,0,0,0,.02.01.05.02.07.03,0,0,0,0,.02,0,.02,0,.04.02.07.03,0,0,.01,0,.02,0,.02,0,.04.02.06.03.01,0,.01,0,.02.01l.04.02s.03.01.04.02c.01,0,.03.01.04.02,0,0,.02,0,.03.01.02,0,.04.02.05.02.01,0,.02,0,.03.01.02,0,.03.01.05.02.01,0,.02,0,.03.01.01,0,.03.01.04.02.01,0,.03.01.04.02.01,0,.02,0,.03.01.02,0,.03.01.05.02h.03s.04.03.05.04c0,0,.02,0,.02.01.02,0,.04.02.05.02,0,0,.01,0,.02,0,.02,0,.04.02.05.02,0,0,.01,0,.02,0,.02,0,.04.02.06.03,0,0,.01,0,.02,0,.02,0,.04.02.06.03,0,0,0,0,.01,0,.02,0,.05.02.07.03,0,0,0,0,0,0,.02.01.05.02.07.03,0,0,0,0,0,0,.93.4,1.85.82,2.77,1.24l4.09-8.81c-1.75-.81-3.55-1.6-5.34-2.33h0Zm-8.74-3.24l-3.05,9.22c.08.03.16.05.24.08h0s.05.02.08.03c0,0,0,0,0,0,.03,0,.05.02.08.03,0,0,0,0,0,0,.02,0,.05.02.07.02,0,0,.01,0,.02,0,.02,0,.04.01.06.02,0,0,.02,0,.03,0,.02,0,.04.01.05.02.01,0,.02,0,.03.01.01,0,.02,0,.03.01.02,0,.04.01.05.02,0,0,.01,0,.02,0,.02,0,.05.02.07.02,0,0,.01,0,.01,0,.87.3,1.74.6,2.6.91,0,0,0,0,0,0,.02,0,.05.02.07.03,0,0,.02,0,.02,0,.02,0,.04.01.05.02.01,0,.02,0,.04.01,0,0,.02,0,.03.01.02,0,.04.01.06.02,0,0,.02,0,.03,0,.02,0,.04.01.06.02,0,0,.01,0,.02,0,.02,0,.04.02.06.02,0,0,0,0,.01,0,.4.15.78.29,1.18.44l3.45-9.08c-1.81-.69-3.66-1.34-5.49-1.95h0Zm-8.95-2.61l-2.38,9.42c.65.17,1.31.34,1.96.51,0,0,0,0,0,0,.03,0,.05.01.08.02,0,0,0,0,0,0,.02,0,.05.01.07.02,0,0,0,0,.01,0,.02,0,.05.01.07.02,0,0,0,0,.01,0,.02,0,.04.01.07.02,0,0,0,0,.01,0,.02,0,.04.01.06.02,0,0,.01,0,.02,0,.02,0,.04.01.06.02,0,0,.02,0,.02,0,.02,0,.04.01.06.02,0,0,.02,0,.03,0,.02,0,.03,0,.05.01.01,0,.02,0,.03,0,.02,0,.03,0,.04.01.01,0,.02,0,.03,0,.02,0,.03,0,.05.01.01,0,.02,0,.03,0,.02,0,.04.01.05.02.01,0,.02,0,.03,0,.02,0,.03,0,.04.01.02,0,.03,0,.05.01.01,0,.02,0,.03,0,.02,0,.03,0,.05.01.01,0,.02,0,.03,0,.02,0,.04.01.05.02.01,0,.02,0,.03,0,.01,0,.02,0,.04.01.02,0,.03,0,.05.01.01,0,.03,0,.04.01.01,0,.02,0,.03,0,.02,0,.04.01.05.02,0,0,.02,0,.03,0,.02,0,.04.01.06.02.01,0,.01,0,.03,0,.02,0,.04.01.06.02,0,0,.02,0,.03,0,.01,0,.03,0,.04.01,0,0,.01,0,.02,0,.02,0,.04.01.06.02.01,0,.01,0,.02,0,.02,0,.04.01.06.02,0,0,.02,0,.03,0,.02,0,.04.01.06.02.01,0,.02,0,.03,0,.01,0,.03,0,.04.01.02,0,.03,0,.05.01.01,0,.03,0,.04.01.01,0,.02,0,.03,0,.02,0,.03,0,.05.01.01,0,.02,0,.03,0,.02,0,.03,0,.05.01.01,0,.02,0,.03,0,.02,0,.03,0,.05.01.02,0,.03,0,.04.01.01,0,.02,0,.03,0,.01,0,.04.01.05.02.01,0,.02,0,.03,0,.02,0,.03,0,.05.01.01,0,.02,0,.03.01.02,0,.03,0,.04.01.01,0,.02,0,.03,0,.02,0,.04.01.05.02,0,0,.02,0,.02,0,.02,0,.04.01.06.02,0,0,.01,0,.02,0,.02,0,.04.01.06.02,0,0,.01,0,.02,0,.02,0,.05.01.07.02,0,0,0,0,0,0,.02,0,.05.01.07.02h0s.05.02.07.02c0,0,0,0,0,0,.02,0,.05.02.08.02,0,0,0,0,0,0,.03,0,.05.02.08.02l2.8-9.3c-1.85-.56-3.74-1.08-5.62-1.55h0Zm-9.11-1.97l-1.71,9.56c1.17.21,2.35.44,3.51.68,0,0,0,0,.01,0,.01,0,.01,0,.03,0,0,0,.01,0,.02,0,0,0,.01,0,.02,0,0,0,.02,0,.03,0,0,0,0,0,.01,0h.03s0,0,.01,0c.01,0,.02,0,.04,0,0,0,0,0,0,0,.52.11,1.05.22,1.57.34l2.13-9.48c-1.89-.42-3.81-.81-5.71-1.15h0Zm-9.22-1.32l-1.03,9.66c1.79.19,3.58.42,5.35.69l1.46-9.6c-1.91-.29-3.85-.54-5.78-.75h0Zm-9.29-.66l-.36,9.71s.01,0,.02,0c0,0,0,0,.01,0,.01,0,.02,0,.03,0,0,0,.01,0,.02,0,0,0,.02,0,.03,0,.04,0,.1,0,.15,0h0c1.72.07,3.43.17,5.13.31l.78-9.68c-1.92-.15-3.88-.27-5.81-.34h0Zm-4.92-.09v9.71h.09s.04,0,.07,0h.02s.04,0,.06,0h.02s.04,0,.06,0c0,0,.02,0,.02,0,.02,0,.04,0,.06,0,0,0,.02,0,.03,0,.02,0,.03,0,.05,0,.01,0,.03,0,.04,0,.01,0,.03,0,.04,0,.01,0,.02,0,.03,0,.02,0,.04,0,.05,0,.01,0,.03,0,.04,0,.01,0,.02,0,.03,0,.02,0,.04,0,.06,0,0,0,.02,0,.02,0,.05,0,.09,0,.14,0h0c.13,0,.25,0,.38,0l.1-9.71c-.47,0-.95,0-1.43,0h0Z" style="fill: #44d9a2; stroke-width: 0px;"/>
        <circle cx="132.21" cy="132.21" r="122.5" style="fill: none; stroke: #fff; stroke-miterlimit: 10; stroke-width: 15.11px;"/>
        <circle cx="132.21" cy="132.21" r="122.5" style="fill: #41d9a1; opacity: .39; stroke-width: 0px;"/>
      </g>
      <g id="boy_namaste_pose" data-name="boy namaste pose">
        <ellipse cx="183.55" cy="208.43" rx="17.6" ry="3.53" style="fill: #dbcbbf; stroke-width: 0px;"/>
        <g>
          <g>
            <path d="m185.44,184.23c-.22,4.59,1.38,15.91,2.01,21.37,1.84.22,2.41.2,4.29-.25,1.26-5.33,3.28-17.28,2.77-22.53-.65-6.63-8.96-1-9.07,1.42Z" style="fill: #f4ccb5; stroke-width: 0px;"/>
            <polygon points="186.94 203.37 192.27 203.37 191.94 207.69 187.58 207.69 186.94 203.37" style="fill: #e6f1fc; stroke-width: 0px;"/>
            <path d="m191.79,206.36c.65,0,1.23.99,1.23,1.99s-.25,2.04-.65,2.04h-4.98c-.45,0-.83-.41-.68-1.85.15-1.44.14-2.18,1.11-2.18h3.97Z" style="fill: #1a1a1a; stroke-width: 0px;"/>
          </g>
          <g>
            <path d="m180.98,184.23c.22,4.59-1.38,15.91-2.01,21.37-1.84.22-2.41.2-4.29-.25-1.26-5.33-3.28-17.28-2.77-22.53.65-6.63,8.96-1,9.07,1.42Z" style="fill: #f4ccb5; stroke-width: 0px;"/>
            <polygon points="179.48 203.37 174.15 203.37 174.48 207.69 178.84 207.69 179.48 203.37" style="fill: #e6f1fc; stroke-width: 0px;"/>
            <path d="m174.63,206.36c-.65,0-1.23.99-1.23,1.99s.25,2.04.65,2.04h4.98c.45,0,.83-.41.68-1.85-.15-1.44-.14-2.18-1.11-2.18h-3.97Z" style="fill: #1a1a1a; stroke-width: 0px;"/>
          </g>
          <path d="m171.43,170.04s13.89,1.24,22.23-.45c0,0,2.95,5.21,2.95,10.07s-2.34,14.94-2.34,14.94c0,0-5.04,1.33-9.94.38,0,0-.25-11.47-.21-12.3.03-.83-2.13-.22-2.13-.22l-.48,12.41s-8.62.45-9.49-.72c0,0-2.77-11.65-1.86-18.09.69-4.88,1.27-6.02,1.27-6.02Z" style="fill: #0759b1; stroke-width: 0px;"/>
          <path d="m186.47,180.6c.11-.46-1.74.96-3.44,1.19-1.62.22-3.59-.74-3.44-.39.33.77,1.32,1.4,1.32,2.4.09,3.58.17,7.57-.14,11.09.46-.02.74-.03.74-.03l.48-12.41s2.16-.61,2.13.22c-.03.83.21,12.3.21,12.3.34.07.68.12,1.02.17-.73-11.38.87-13.51,1.11-14.54Z" style="fill: #064e9c; stroke-width: 0px;"/>
          <g>
            <path d="m171.43,170.04s-.58,1.14-1.27,6.02c-.09.64-.14,1.32-.17,2.04,0,0,1.01-2.07,3.37-3.17,4.54-2.12,18.21-2.12,22.81,2.07.05.05.13.05.19.07-.71-3.95-2.7-7.48-2.7-7.48-8.34,1.69-22.23.45-22.23.45Z" style="fill: #064e9c; stroke-width: 0px;"/>
            <g>
              <path d="m171.32,179.12c1.89.05,3.7-.96,4.66-2.59.26-.44.45-.92.57-1.41.05-.19-.24-.27-.29-.08-.42,1.71-1.74,3.1-3.44,3.59-.49.14-.99.2-1.5.19-.19,0-.19.3,0,.3h0Z" style="fill: #064e9c; stroke-width: 0px;"/>
              <path d="m189.29,175.49c.45,2.08,2.1,3.75,4.17,4.22.6.14,1.23.17,1.84.1.19-.02.19-.32,0-.3-1.04.12-2.1-.07-3.03-.55-.88-.46-1.61-1.16-2.11-2.02-.28-.48-.47-.99-.59-1.53-.04-.19-.33-.11-.29.08h0Z" style="fill: #064e9c; stroke-width: 0px;"/>
            </g>
          </g>
          <g>
            <rect x="174.44" y="140.79" width="15.49" height="10.96" style="fill: #e6967a; stroke-width: 0px;"/>
            <path d="m169.84,170.74c0-4.48.24-14.61.06-17.09-.02-3.88-.87-4.44,4.76-5.65,0,0,2.17,1.48,7.17,1.48,5.64,0,8.11-1.77,8.11-1.77,0,0,4.79,1.14,4.99,2.82.28,2.44.28,7.52.33,8.62.14,2.88,1.03,11.92,0,12.79-1.47,1.24-25.41,1.4-25.41-1.19Z" style="fill: #ebf4fd; stroke-width: 0px;"/>
            <path d="m194.59,171.1c-1.23,1.04-20.44,2.82-23.75-.93-1.38-1.56.94-14.94-.92-16.02.13,3.13-.08,12.36-.08,16.59,0,2.59,23.94,2.44,25.41,1.19,1.03-.87.14-9.91,0-12.79-.03-.65-.04-2.73-.1-4.81-.04.26.63,15.77-.55,16.77Z" style="fill: #cde3f9; stroke-width: 0px;"/>
            <g>
              <path d="m189.99,147.45s.31.59.79,1.19c.48.6-6.52,7.13-6.52,7.13,0,0,2.14-4.57-2.61-6.29,0,0,3.69-.3,5.53-.83,1.37-.39,2.81-1.19,2.81-1.19Z" style="fill: #cde3f9; stroke-width: 0px;"/>
              <path d="m174.39,147.61s-.24.59-.7,1.19c-.46.6,5.84,6.96,5.84,6.96,0,0-2.04-5.26,2.48-6.29,0,0-3.82-.4-5.25-.83-1.3-.39-2.38-1.03-2.38-1.03Z" style="fill: #cde3f9; stroke-width: 0px;"/>
            </g>
          </g>
          <g>
            <g>
              <g>
                <path d="m213.91,122.57c1.08-1.37,3.05-1.99,4.9-1.74,1.85.24,3.55,1.26,4.79,2.6,2.16,2.33,2.97,5.67,2.07,8.54-.89,2.87-3.46,5.16-6.57,5.86-1.66.38-3.49.3-5.07-.4-1.58-.7-2.89-2.08-3.23-3.67l3.11-11.19Z" style="fill: #f4ccb5; stroke-width: 0px;"/>
                <path d="m218.98,131.9c-.16-.17,0-.54.12-1.05.14-.51.24-1.19.1-1.88-.15-.69-.53-1.3-.86-1.74-.33-.44-.63-.74-.55-.95.04-.1.18-.16.4-.16.23,0,.54.08.88.25.35.17.73.46,1.06.86.33.39.6.91.73,1.49.12.58.07,1.14-.07,1.61-.15.47-.39.84-.64,1.11-.25.27-.51.43-.73.49-.21.07-.36.05-.44-.03Z" style="fill: #e6967a; stroke-width: 0px;"/>
              </g>
              <g>
                <path d="m155.24,115.29c-.41-1.7-1.95-3.08-3.73-3.63-1.78-.55-3.75-.33-5.44.37-2.93,1.22-5.06,3.92-5.44,6.89-.38,2.98,1,6.14,3.52,8.07,1.35,1.03,3.04,1.73,4.77,1.75,1.73.02,3.49-.68,4.47-1.99l1.84-11.47Z" style="fill: #f4ccb5; stroke-width: 0px;"/>
                <path d="m146.75,121.66c.22-.09.23-.49.33-1.01.09-.52.27-1.18.7-1.75.42-.57,1.02-.96,1.51-1.22.49-.26.88-.41.89-.64,0-.11-.09-.22-.3-.31-.21-.09-.52-.15-.91-.14-.39.01-.85.11-1.32.34-.46.22-.93.57-1.29,1.05-.35.48-.54,1.01-.6,1.49-.06.49,0,.93.12,1.28.12.35.29.6.45.75.16.15.31.2.42.16Z" style="fill: #e6967a; stroke-width: 0px;"/>
              </g>
            </g>
            <path d="m194.93,147.98c4.78-1.65,9.9-4.08,14.05-7.38,3.61-2.88,5.98-6.12,8-9.45,1.48-3.24,10.68-29.56,2.62-35.27-6.93-4.85-10.27-5.52-25.82-8.89-15.63-3.51-23.23-2.97-33.15,1.39-10.73,4.72-11.13,29.95-10.51,34.11.67,4.36,1.83,8.75,4.48,12.87,3.06,4.73,7.54,8.36,11.87,10.8,4.36,2.46,8.98,3.73,13.92,3.98,4.94.25,9.75-.52,14.55-2.16Z" style="fill: #f4ccb5; stroke-width: 0px;"/>
            <path d="m219.6,95.87c-6.93-4.85-10.27-5.52-25.82-8.89-15.63-3.51-23.23-2.97-33.15,1.39-7,3.08-9.6,14.88-10.39,23.87,5.51.07,10.98-2.69,15.71-5.54,3.67-2.17,7.29-8.77,9-12.58.07,12.89,30.65,26.34,46.29,23.31,1.97-8.51,2.93-18.33-1.63-21.56Z" style="fill: #e0a089; stroke-width: 0px;"/>
            <g>
              <g>
                <ellipse cx="201.19" cy="126.61" rx="7.75" ry="9.03" transform="translate(60.75 318.4) rotate(-85.97)" style="fill: #e88f6d; stroke-width: 0px;"/>
                <ellipse cx="163.95" cy="123.73" rx="7.75" ry="9.32" transform="translate(29.01 278.58) rotate(-85.97)" style="fill: #e88f6d; stroke-width: 0px;"/>
              </g>
              <g>
                <ellipse cx="168.53" cy="112.04" rx="8.23" ry="6.94" transform="translate(43.87 271.45) rotate(-85.59)" style="fill: #fff; stroke-width: 0px;"/>
                <g>
                  <ellipse cx="168.64" cy="112.52" rx="7.09" ry="6.19" transform="translate(43.49 272.02) rotate(-85.59)" style="fill: #7e4f37; stroke-width: 0px;"/>
                  <path d="m166.67,110.69c-.07-.23-.31-.37-.68-.34-.36.03-.82.25-1.21.67-.39.42-.61.94-.65,1.35-.05.41.07.7.26.79.2.09.44,0,.69-.16.25-.17.5-.4.76-.68.26-.28.48-.56.64-.83.16-.27.25-.55.18-.78Z" style="fill: #fff; stroke-width: 0px;"/>
                </g>
              </g>
              <g>
                <ellipse cx="198.62" cy="114.04" rx="8.23" ry="6.94" transform="translate(69.65 303.31) rotate(-85.59)" style="fill: #fff; stroke-width: 0px;"/>
                <g>
                  <ellipse cx="198.58" cy="114.52" rx="7.09" ry="6.19" transform="translate(69.14 303.71) rotate(-85.59)" style="fill: #7e4f37; stroke-width: 0px;"/>
                  <path d="m200.81,113.01c.1-.22.37-.32.72-.24.35.08.77.37,1.09.84.32.47.45,1.02.44,1.43-.02.41-.17.68-.38.74-.21.06-.44-.07-.66-.27-.22-.2-.44-.47-.65-.79-.21-.32-.39-.63-.5-.92-.11-.29-.17-.58-.06-.8Z" style="fill: #fff; stroke-width: 0px;"/>
                </g>
              </g>
              <path d="m185.81,120.57c.15.15.19.4.12.6-.02.06-.05.13-.08.2-.04.07-.08.14-.14.21-.12.15-.28.28-.46.39-.09.06-.2.11-.31.16-.11.05-.23.08-.36.12-2.13.49-4-1.59-3.28-3.65.05-.12.1-.24.16-.35.06-.11.12-.21.19-.29.13-.16.27-.3.44-.41.08-.05.15-.09.22-.12.07-.03.14-.05.21-.06.78-.15.79.79.97,1.31.01.04.03.1.05.14.02.05.04.09.05.14.07.16.15.32.25.44.04.05.08.09.1.12.03.03.07.07.11.12.11.11.27.21.41.3.04.02.09.05.13.07.04.02.09.05.13.06.35.18.79.23,1.08.51Z" style="fill: #f1775b; stroke-width: 0px;"/>
              <path d="m173.54,126.1c4.58,2.94,10.54,3.14,15.27.42,1.26-.72,2.41-1.62,3.4-2.68.4-.43-.19-1.13-.6-.7-3.43,3.64-8.64,5.23-13.51,3.97-1.44-.37-2.8-.97-4.05-1.77-.5-.32-1.02.44-.52.76h0Z" style="fill: #b83e3e; stroke-width: 0px;"/>
              <path d="m195.76,102.6c3.02.09,5.98,1.26,8.21,3.32.42.39,1.1-.19.68-.58-2.4-2.21-5.54-3.53-8.82-3.63-.57-.02-.65.87-.07.89h0Z" style="fill: #935c33; stroke-width: 0px;"/>
              <path d="m164.91,102.79c2.71-1.34,5.87-1.7,8.8-.94.55.14.88-.69.32-.83-3.16-.82-6.55-.5-9.49.96-.51.25-.16,1.08.36.82h0Z" style="fill: #935c33; stroke-width: 0px;"/>
            </g>
            <g>
              <g>
                <path d="m221.51,89.02c-.71-1.29-1.5-2.54-2.38-3.74-1.19-1.62-2.55-3.14-4.06-4.5-3.75-8.54-13.57-13.19-23.07-14.49-12.51-1.71-23.44,2.04-33.9,8.57-7.81,4.87-10.83,9.47-15.51,19.47-8.21,24.61,7.92,30.38,7.92,30.38,0,0,.14-5.09,1.39-11.7,4.39-.69,10.23-4.21,13.11-7.69,3.6-4.36,8.43-12.67,10.46-17.95.21,6.59,3.11,15.68,9.43,18.23-.93-2.71-1.21-5.65-.82-8.49,3.01,5.85,8.35,10.46,14.57,12.59,3.83,1.31,7.96,1.68,11.97,1.12,3.13,1.21,6.52,2.33,10.19,3.31l-.99,10.05s5.74-12.95,5.9-18.81c.17-6.11-1.2-10.97-4.18-16.37Z" style="fill: #be7b55; stroke-width: 0px;"/>
                <path d="m222.68,81.15c-.19.05-.41,0-.55-.16-2.15-2.3-5.73-3.22-8.72-2.25-.29.1-.61-.06-.7-.36-.1-.29.06-.61.36-.7,3.44-1.12,7.41-.1,9.88,2.54.21.22.2.58-.03.79-.07.06-.15.11-.23.13Z" style="fill: #a86838; stroke-width: 0px;"/>
                <path d="m211.35,76.6c-.14.04-.29.02-.43-.05-.27-.15-.36-.49-.2-.76,1.43-2.48,4.21-4.14,7.08-4.23.31,0,.56.23.57.54,0,.31-.23.56-.54.57-2.49.07-4.9,1.52-6.15,3.67-.08.13-.2.22-.33.26Z" style="fill: #a86838; stroke-width: 0px;"/>
              </g>
              <g>
                <path d="m219.67,114.21c-.07.02-.14.02-.21.01-7.04-1.1-13.34-6.07-16.04-12.67-.1-.26.02-.55.27-.65.26-.1.55.02.65.27,2.57,6.28,8.56,11.01,15.27,12.06.27.04.46.3.42.57-.03.2-.18.35-.36.41Z" style="fill: #a86838; stroke-width: 0px;"/>
                <path d="m199.86,110.67c-.09.03-.19.02-.29,0-5.23-1.73-9.92-5.02-13.56-9.51-3.64-4.49-5.89-9.76-6.5-15.23-.03-.27.17-.52.44-.55.27-.03.52.17.55.44.59,5.28,2.76,10.37,6.29,14.71,3.52,4.34,8.05,7.52,13.1,9.19.26.09.4.37.32.63-.05.16-.19.28-.34.33Z" style="fill: #a86838; stroke-width: 0px;"/>
                <path d="m180.62,102.52c-.18.05-.39,0-.52-.16-3.78-4.6-4.61-10.98-5.28-16.1-.04-.27.16-.52.43-.56.27-.04.52.16.56.43.65,5,1.46,11.22,5.06,15.6.18.21.14.53-.07.7-.06.05-.12.08-.18.1Z" style="fill: #a86838; stroke-width: 0px;"/>
                <path d="m152.84,113.28c-.11.03-.23.06-.34.09-.27.07-.54-.09-.61-.36-.07-.27.09-.54.35-.61,0,0,0,0,0,0,4.05-1.06,7.89-3.19,11.08-6.16,3.19-2.97,5.59-6.64,6.94-10.61.09-.26.37-.4.63-.31.26.09.4.37.31.63-1.4,4.13-3.9,7.94-7.21,11.02-3.22,3-7.08,5.17-11.17,6.3Z" style="fill: #a86838; stroke-width: 0px;"/>
                <path d="m146.19,104.57c-.09.02-.18.02-.27,0-.26-.08-.42-.36-.34-.62,2.02-6.81,5.87-13.15,11.14-18.33,5.27-5.18,11.67-8.93,18.52-10.83,0,0,0,0,0,0,.27-.07.54.08.62.35.07.27-.08.54-.35.62-13.59,3.78-24.96,14.96-28.97,28.48-.05.17-.19.3-.35.34Z" style="fill: #a86838; stroke-width: 0px;"/>
                <path d="m217.52,99.11s-.01,0-.02,0c-.27.06-.54-.1-.6-.37-2.75-11.39-11.73-21.06-22.89-24.65-.26-.08-.41-.37-.32-.63.08-.26.37-.41.63-.32,11.48,3.69,20.73,13.64,23.56,25.36.06.26-.09.53-.35.6Z" style="fill: #a86838; stroke-width: 0px;"/>
                <path d="m204.64,100.36c1.16,1.55,2.49,2.96,3.95,4.22,1.43,1.24,3,2.32,4.67,3.21.97.52,1.97.99,3,1.39.29.11.67-.04.77-.35.1-.31-.04-.65-.35-.77-.88-.34-1.73-.73-2.57-1.16-.05-.03-.1-.05-.15-.08-.03-.01-.1-.05.03.01-.02-.01-.05-.03-.07-.04-.11-.06-.22-.12-.33-.18-.2-.11-.4-.22-.59-.34-.4-.24-.8-.49-1.19-.75-.78-.52-1.52-1.08-2.24-1.68-.18-.15-.36-.3-.53-.46-.08-.07-.17-.15-.25-.22-.04-.04-.08-.07-.12-.11-.02-.02-.04-.04-.06-.06.12.12.01.01,0,0-.34-.32-.68-.65-1-.99-.73-.76-1.41-1.56-2.03-2.41-.19-.25-.61-.29-.85-.08-.25.23-.28.58-.08.85h0Z" style="fill: #a86838; stroke-width: 0px;"/>
              </g>
              <path d="m209.57,72.95c-5.08-3.84-11.18-6.07-17.46-6.91-6.46-.86-13.08-.33-19.38,1.34-6.27,1.66-12.31,4.47-17.36,8.57-5.12,4.15-9.19,9.57-11.87,15.58-2.65,5.96-3.96,12.54-3.56,19.07.05.8.13,1.6.22,2.4.07.58.99.58.92,0-.8-6.36.07-12.84,2.32-18.83,2.27-6.03,5.95-11.53,10.69-15.9,4.71-4.35,10.48-7.4,16.57-9.32,6.08-1.92,12.54-2.74,18.91-2.24,6.17.48,12.29,2.26,17.51,5.63.63.41,1.25.84,1.85,1.29.47.35,1.11-.3.64-.66h0Z" style="fill: #a86838; stroke-width: 0px;"/>
              <g>
                <path d="m172.55,74.1c-4.6-.82-8.53-4.58-9.54-9.14,7.27,2.57,15.17,3.34,22.8,2.2l-13.26,6.94Z" style="fill: #be7b55; stroke-width: 0px;"/>
                <path d="m177.84,67.41c-1.95.1-3.9,0-5.83-.27-1.95-.28-3.86-.75-5.72-1.4-1.03-.36-2.04-.78-3.03-1.25-.24-.12-.5.08-.44.34.61,2.83,2.21,5.43,4.42,7.29.63.53,1.31,1,2.02,1.4.34.19.64-.34.3-.53-2.42-1.35-4.36-3.53-5.45-6.09-.22-.53-.41-1.07-.56-1.62,1.62.73,3.29,1.33,5.01,1.78,1.94.5,3.92.82,5.92.94,1.12.07,2.24.07,3.36.02.39-.02.39-.62,0-.61Z" style="fill: #a86838; stroke-width: 0px;"/>
              </g>
            </g>
            <path d="m214.74,81.11c2.1,1.96,3.96,4.16,5.52,6.57,1.61,2.48,2.9,5.16,3.77,7.98.83,2.71,1.27,5.53,1.25,8.37-.02,2.6-.44,5.18-1.14,7.68-.77,2.74-1.87,5.37-3.13,7.92-.17.34-.34.68-.51,1.02-.11.22-.05.51.18.64.21.12.52.05.64-.18,1.35-2.64,2.56-5.37,3.44-8.21.8-2.57,1.32-5.23,1.43-7.92.12-2.85-.21-5.72-.94-8.47-.78-2.95-2.03-5.78-3.61-8.39-1.53-2.52-3.38-4.86-5.47-6.93-.25-.25-.51-.5-.77-.74-.44-.41-1.09.26-.65.67h0Z" style="fill: #a86838; stroke-width: 0px;"/>
          </g>
          <g>
            <g>
              <g>
                <path d="m182.36,162.42s.18-4.73.16-5.08c-.02-.35-.72-.07-.79.59-.06.66.1,4.11.63,4.49Z" style="fill: #e6967a; stroke-width: 0px;"/>
                <path d="m182.02,161.36s.31-5.25.54-6.36c.27-1.26-.76-1.9-.86-.88-.1,1.01-.9,6.82-.92,7.09-.02.27.89,1,1.24.15Z" style="fill: #e6967a; stroke-width: 0px;"/>
                <path d="m181.65,161.72s.07-5.7.43-6.83c.23-.72-.32-1.64-.67-.6-.18.56-.96,4.28-1.42,6.27-.36,1.55.74,3.3.73,3.45,0,0,.63-1.41.93-2.3Z" style="fill: #e8c2ac; stroke-width: 0px;"/>
                <path d="m181.43,165.16c-1.06.32-1.54-.05-1.55-1.27,0-1.22,1.81-7.6,1.82-8.4,0-.8.69-.02.65.69-.04.7-.33,3.46-.13,4.4.2.94.38,4.23-.79,4.59Z" style="fill: #f4ccb5; stroke-width: 0px;"/>
              </g>
              <g>
                <path d="m182.58,162.42s-.18-4.73-.16-5.08c.02-.35.72-.07.79.59.06.66-.1,4.11-.63,4.49Z" style="fill: #e6967a; stroke-width: 0px;"/>
                <path d="m182.92,161.36s-.31-5.25-.54-6.36c-.27-1.26.76-1.9.86-.88.1,1.01.9,6.82.92,7.09.02.27-.89,1-1.24.15Z" style="fill: #e6967a; stroke-width: 0px;"/>
                <path d="m183.29,161.72s-.07-5.7-.43-6.83c-.23-.72.32-1.64.67-.6.18.56.96,4.28,1.42,6.27.36,1.55-.74,3.3-.73,3.45,0,0-.63-1.41-.93-2.3Z" style="fill: #e8c2ac; stroke-width: 0px;"/>
                <path d="m183.51,165.16c1.06.32,1.54-.05,1.55-1.27,0-1.22-1.81-7.6-1.82-8.4,0-.8-.69-.02-.65.69.04.7.33,3.46.13,4.4-.2.94-.38,4.23.79,4.59Z" style="fill: #f4ccb5; stroke-width: 0px;"/>
              </g>
            </g>
            <g>
              <path d="m194.95,150.49c.98,1.88,2.03,8.45,2.34,10.52.41,2.78-2.42,4.39-4.21,4.68-2.86.45-7.76.55-8.07.24-.31-.31-.38-3.8-.38-4.55s.55-.86,1.23-1c.61-.13,3.49.14,5.82-.42.39-1.2.84-5.65,1.04-7.07.15-1.14,1.65-3.51,2.24-2.38Z" style="fill: #ebf4fd; stroke-width: 0px;"/>
              <path d="m184.63,161.37c0,.74.07,4.23.38,4.55.2.2,2.23.23,4.42.11-1.24-.04-2.76-.08-3.79-.53-1.01-.44-1.01-4.52-1.01-4.13Z" style="fill: #cde3f9; stroke-width: 0px;"/>
              <path d="m197.29,161c-.09-.63-.26-1.69-.47-2.9.12,2.76.84,5.26-1.81,6.63-.71.37-3.05,1.03-3.88,1.18.69-.06,1.36-.14,1.94-.23,1.79-.28,4.62-1.9,4.21-4.68Z" style="fill: #cde3f9; stroke-width: 0px;"/>
              <path d="m192.76,160.33c.11.3-.4-4.8.17-8.19-.11.26-.18.52-.21.73-.19,1.43-.64,5.88-1.04,7.07-.47.11-.97.19-1.46.25.26.14.42.05,1.01-.02.6-.08,1.42-.14,1.52.16Z" style="fill: #cde3f9; stroke-width: 0px;"/>
            </g>
            <g>
              <path d="m169.99,150.49c-.98,1.88-2.03,8.45-2.34,10.52-.41,2.78,2.42,4.39,4.21,4.68,2.86.45,7.76.55,8.07.24.31-.31.38-3.8.38-4.55s-.55-.86-1.23-1c-.61-.13-3.49.14-5.82-.42-.39-1.2-.84-5.65-1.04-7.07-.15-1.14-1.65-3.51-2.24-2.38Z" style="fill: #ebf4fd; stroke-width: 0px;"/>
              <path d="m180.31,161.37c0,.74-.07,4.23-.38,4.55-.2.2-2.23.23-4.42.11,1.24-.04,2.76-.08,3.79-.53,1.01-.44,1.01-4.52,1.01-4.13Z" style="fill: #cde3f9; stroke-width: 0px;"/>
              <path d="m167.65,161c.09-.63.26-1.69.47-2.9-.12,2.76-1.16,4.69,1.81,6.63.67.44,3.05,1.03,3.88,1.18-.69-.06-1.36-.14-1.94-.23-1.79-.28-4.62-1.9-4.21-4.68Z" style="fill: #cde3f9; stroke-width: 0px;"/>
              <path d="m172.53,160.34c-.11.3.05-4.82-.52-8.2.11.26.18.52.21.73.19,1.43.64,5.88,1.04,7.07.47.11.97.19,1.46.25-.26.14-.42.05-1.01-.02-.6-.08-1.07-.13-1.17.17Z" style="fill: #cde3f9; stroke-width: 0px;"/>
            </g>
          </g>
        </g>
      </g>
      <g id="girl_namaste_pose" data-name="girl namaste pose">
        <ellipse cx="89.87" cy="208.93" rx="17.2" ry="3.02" style="fill: #dbcbbf; stroke-width: 0px;"/>
        <g>
          <rect x="80.56" y="143.56" width="15.49" height="12.97" style="fill: #e6967a; stroke-width: 0px;"/>
          <g>
            <path d="m87.44,183.51c1.51,5.95,1.34,16.04,1.18,22.13l-4.59-.26c-1.66-4.92-3.63-14.27-6.24-18.89l9.65-2.98Z" style="fill: #f4ccb5; stroke-width: 0px;"/>
            <polygon points="83.37 204.04 88.81 203.88 88.98 207.61 84.1 207.61 83.37 204.04" style="fill: #e6f1fc; stroke-width: 0px;"/>
            <path d="m84.28,206.38c-.65,0-1.23.99-1.23,1.99s.44,2.04.84,2.04h4.3c.32,0,1.17-.4,1.17-1.85s-.14-2.18-1.11-2.18h-3.97Z" style="fill: #1a1a1a; stroke-width: 0px;"/>
          </g>
          <g>
            <path d="m89.66,183.58c-.74,5.02.09,16.8.17,21.87,1.79.56,2.57.49,4.46.39,1.76-5.09,4.93-16.66,4.95-22,.02-6.75-9.22-2.66-9.57-.26Z" style="fill: #f4ccb5; stroke-width: 0px;"/>
            <polygon points="89.63 203.88 95.29 203.88 94.88 207.61 89.87 207.61 89.63 203.88" style="fill: #e6f1fc; stroke-width: 0px;"/>
            <path d="m94.71,206.38c.65,0,1.23.99,1.23,1.99s-.44,2.04-.84,2.04h-4.3c-.32,0-1.17-.4-1.17-1.85s.14-2.18,1.11-2.18h3.97Z" style="fill: #1a1a1a; stroke-width: 0px;"/>
          </g>
          <path d="m79.23,181.48c-1.01-4.63-3.03-19.77-3.22-22.7-.02-4.59-.87-5.25,4.76-6.69,0,0,2.54,1.75,7.54,1.75s7.74-2.1,7.74-2.1c0,0,4.79,1.35,4.99,3.34.28,2.89-1.67,10.49-1.62,11.79.14,3.41-.04,11.45-.04,13.95,0,0-19.49,3.66-20.15.66Z" style="fill: #ebf4fd; stroke-width: 0px;"/>
          <path d="m100.41,161.06c-1.02.42-2.26.16-2.55,1.23-.73,2.69-.63,7.81-1.8,8.98-.88.88-14.37,1.03-15.49.33-.62-.39-1.96-11.51-2.17-12.06-.21-.55-.09-.96-2.39-1.52,0,.24,0,.49,0,.75.19,2.94,2.21,18.07,3.22,22.7.66,3,20.15-.66,20.15-.66,0-2.5.18-10.54.04-13.95-.03-.69.52-3.2.99-5.81Z" style="fill: #cde3f9; stroke-width: 0px;"/>
          <g>
            <path d="m70.44,155.81c.93-2.93-1.08-7.26-3.92-8.39,2.06-1.88,3.51-4.34,3.5-6.37-.02-1.97-.27-3.5-1.15-4.58,0,0,.47-15.7-1.19-21.98-1.66-6.28-16.31-6.28-16.31-6.28-3.76,4.28-6.08,11.39-5.94,17.09.11,4.36,1.73,8.71,4.57,11.99-.35.49-.63,1.03-.8,1.61-.49,1.69-.18,3.53.53,5.13,1.35,3.05,4.25,5.3,7.47,6.07-.37,2.58.37,5.33,2.11,7.21-.15,5.12-1.41,10.21-3.67,14.8,1.28-.06,2.57.02,3.84.25-.09.57-.17,1.13-.27,1.7,5.7.13,11.41-.3,17.02-1.29.01-6.08-2.08-12.14-5.8-16.94Z" style="fill: #be7b55; stroke-width: 0px;"/>
            <path d="m46.11,117.93c-.68,1.55-1.15,3.19-1.38,4.87-.23,1.7-.22,3.41.02,5.11.22,1.58.68,3.12,1.31,4.59.61,1.4,1.4,2.7,2.34,3.91.93,1.19,2,2.26,3.2,3.19.15.12.31.24.47.35.2.14.52.04.63-.16.13-.24.04-.48-.16-.63-.07-.05-.14-.1-.21-.16-.04-.03-.07-.05-.11-.08,0,0-.12-.09-.05-.04-.15-.12-.3-.24-.45-.36-.28-.23-.56-.48-.82-.73-.53-.5-1.04-1.04-1.5-1.61-.26-.31-.39-.49-.63-.81-.22-.3-.42-.6-.62-.91-.39-.61-.73-1.24-1.04-1.89-.08-.16-.15-.32-.22-.48-.02-.04-.04-.08-.05-.12,0,0-.06-.14-.02-.05-.04-.09-.08-.19-.12-.29-.14-.34-.26-.69-.38-1.03-.24-.75-.44-1.51-.58-2.28-.14-.76-.22-1.49-.25-2.31-.03-.82,0-1.64.07-2.45.05-.47.09-.81.18-1.29.08-.45.18-.9.29-1.34.12-.44.25-.88.4-1.31.07-.22.15-.43.24-.64.04-.11.08-.21.13-.32.04-.09.05-.13.11-.25.1-.22.07-.5-.16-.63-.2-.11-.53-.07-.63.16h0Z" style="fill: #a86838; stroke-width: 0px;"/>
            <path d="m48.9,139.35c-.11,1.4.03,2.84.49,4.18.43,1.26,1.11,2.4,1.95,3.43.86,1.04,1.87,1.98,3.01,2.72,1.21.79,2.56,1.37,3.95,1.77,1.54.44,3.16.66,4.76.6.24-.01.47-.2.46-.46-.01-.24-.2-.47-.46-.46-.68.03-1.37,0-2.04-.07-.08,0-.16-.02-.24-.03-.04,0-.07,0-.11-.01.1.01-.04,0-.05,0-.18-.03-.36-.06-.54-.09-.34-.06-.68-.13-1.02-.22-.69-.17-1.37-.39-2.03-.66-.03-.01-.05-.02-.08-.03,0,0-.14-.06-.05-.02-.08-.03-.16-.07-.24-.11-.16-.07-.32-.15-.48-.22-.31-.15-.62-.32-.92-.5-.3-.18-.58-.36-.86-.56-.06-.04-.11-.08-.17-.13-.03-.03-.07-.05-.1-.08-.11-.08.07.05-.04-.03-.13-.1-.26-.21-.39-.32-.49-.42-.95-.88-1.38-1.37-.1-.11-.19-.22-.28-.33-.05-.06-.1-.12-.15-.18-.02-.03-.05-.06-.07-.09.05.06,0,0-.02-.03-.19-.25-.37-.51-.54-.77-.17-.26-.32-.54-.47-.81-.07-.13-.13-.26-.19-.39-.03-.07-.06-.14-.1-.22.04.1,0-.02-.01-.04-.01-.04-.03-.07-.04-.11-.26-.66-.45-1.36-.55-2.06,0-.01-.02-.15,0-.04,0-.06-.01-.11-.02-.17-.01-.1-.02-.2-.03-.3-.02-.19-.03-.37-.03-.56-.01-.41,0-.81.03-1.21.02-.24-.22-.47-.46-.46-.27.01-.44.2-.46.46h0Z" style="fill: #a86838; stroke-width: 0px;"/>
            <path d="m63.17,149.23c2.04-.39,3.95-1.56,5.25-3.18,1.42-1.77,2.11-4.03,1.92-6.3-.11-1.31-.49-2.58-1.14-3.72-.12-.21-.42-.3-.63-.16-.21.14-.29.4-.16.63.14.24.26.48.37.73,0,.01.07.17.04.1.03.06.05.13.08.19.05.13.1.27.14.41.08.25.15.51.21.77.03.13.05.25.08.38.01.07.02.13.03.2,0,.03,0,.06.01.09,0,.02,0,.05,0,.07,0-.04,0-.04,0,0,.06.53.08,1.07.05,1.61,0,.13-.02.26-.03.39,0,.07-.01.14-.02.2,0-.02.01-.08,0,.01,0,.04-.01.09-.02.13-.04.26-.1.52-.16.78-.07.26-.15.51-.24.76-.02.06-.05.13-.07.19-.01.04-.03.07-.04.11,0,.01-.03.08,0,.02-.05.12-.11.24-.16.35-.22.44-.48.87-.77,1.27-.02.02-.1.14-.05.07-.03.04-.07.09-.1.13-.08.1-.17.2-.25.3-.16.18-.33.35-.5.52-.18.17-.37.33-.56.49-.01.01-.14.11-.07.06-.05.04-.1.07-.15.11-.11.08-.21.15-.32.22-.23.15-.47.29-.71.42-.12.06-.24.13-.37.19-.06.03-.12.06-.19.09-.03.01-.05.02-.08.03-.09.04.06-.02-.04.02-.51.21-1.04.37-1.58.47-.24.05-.39.34-.32.56.08.25.31.37.56.32h0Z" style="fill: #a86838; stroke-width: 0px;"/>
            <path d="m57.19,152.36c.04,1.53.51,3.05,1.36,4.32.83,1.25,2.01,2.26,3.39,2.87.8.36,1.63.59,2.5.69.24.03.47-.23.46-.46-.01-.27-.2-.43-.46-.46-.04,0-.09-.01-.13-.02.1.01-.05,0-.05,0-.08-.01-.16-.03-.24-.04-.18-.03-.35-.07-.52-.12-.33-.09-.66-.2-.97-.33-.08-.03.1.04-.03-.01-.04-.02-.08-.04-.12-.05-.08-.04-.16-.08-.24-.12-.16-.08-.32-.16-.47-.25-.14-.08-.28-.17-.42-.26-.06-.04-.12-.08-.18-.13-.04-.03-.07-.05-.11-.08-.02-.02-.05-.04-.07-.05.03.03.03.02-.01-.01-.27-.21-.52-.44-.76-.69-.12-.12-.23-.24-.33-.37-.05-.06-.1-.12-.14-.18.05.07-.04-.05-.04-.05-.04-.05-.07-.1-.11-.15-.2-.29-.39-.59-.55-.9-.08-.15-.15-.3-.22-.45,0,0-.06-.14-.03-.06-.01-.03-.02-.06-.03-.08-.04-.1-.08-.2-.11-.3-.13-.37-.24-.76-.31-1.15-.02-.09-.03-.18-.05-.27,0,0-.02-.15,0-.06,0-.06-.01-.12-.02-.18-.02-.2-.03-.39-.04-.59,0-.24-.21-.47-.46-.46-.24.01-.47.2-.46.46h0Z" style="fill: #a86838; stroke-width: 0px;"/>
            <path d="m60.74,147.53c-1.35-1.44-3.02-2.55-4.86-3.26-.22-.09-.51.1-.56.32-.06.26.08.47.32.56.12.04.23.09.35.14-.07-.03.07.03.08.04.05.02.1.04.15.07.21.1.42.2.63.31.41.21.8.45,1.18.71.74.5,1.41,1.07,2.06,1.76.16.18.49.18.65,0,.17-.19.18-.46,0-.65h0Z" style="fill: #a86838; stroke-width: 0px;"/>
            <path d="m65.38,157.88c-.01-.06-.02-.11-.03-.17,0-.05,0-.06,0,0,0-.03,0-.06-.01-.09-.01-.1-.02-.2-.02-.3-.01-.22,0-.43,0-.65,0-.06,0-.11.01-.17,0-.02.02-.19,0-.09.01-.1.03-.2.05-.3.04-.21.1-.42.16-.63.03-.1.06-.19.1-.29.02-.05.04-.11.06-.16-.03.08.03-.07.04-.09.09-.2.19-.39.3-.57.05-.09.11-.17.16-.25.03-.05.07-.09.1-.14.02-.02.03-.05.05-.07-.03.04-.03.03,0,0,.14-.17.28-.33.43-.48.17-.17.18-.48,0-.65-.19-.17-.47-.18-.65,0-1.41,1.37-2.03,3.42-1.68,5.34.04.24.34.39.56.32.25-.08.37-.31.32-.56h0Z" style="fill: #a86838; stroke-width: 0px;"/>
            <path d="m69.69,157.7c1.49-2.26,1.54-5.29.33-7.68-.34-.66-.78-1.27-1.3-1.8-.17-.17-.48-.18-.65,0-.17.18-.18.47,0,.65.11.11.22.23.32.34.04.05.08.1.13.15.02.03.05.06.07.09-.07-.08.04.05.05.06.18.25.35.5.49.77.07.13.14.27.2.4.03.06.06.13.09.2.03.07-.04-.1,0,.02.02.05.04.1.06.15.11.29.21.59.28.9.03.14.06.28.09.42.01.08.03.15.04.23,0,.03,0,.05.01.08-.02-.12,0,.05,0,.07.04.31.05.63.05.94,0,.3-.02.6-.06.9.02-.11,0,.02,0,.03,0,.04-.01.08-.02.12-.01.07-.03.14-.04.21-.03.16-.07.32-.11.48-.04.16-.1.32-.15.48-.03.09-.06.17-.1.26,0,.02-.02.05-.03.07.04-.1-.02.05-.03.07-.14.32-.32.63-.51.92-.13.2-.05.52.16.63.23.12.49.05.63-.16h0Z" style="fill: #a86838; stroke-width: 0px;"/>
            <path d="m59.71,173.73c1.07-2.99,1.72-6.13,1.94-9.3.06-.89.09-1.79.08-2.68,0-.24-.21-.47-.46-.46-.25.01-.46.2-.46.46.02,3.15-.37,6.19-1.2,9.23-.23.85-.49,1.68-.79,2.51-.08.23.09.51.32.56.26.06.48-.08.56-.32h0Z" style="fill: #a86838; stroke-width: 0px;"/>
            <path d="m55.99,172.08c1.4-3.15,2.47-6.44,3.18-9.81.2-.95.37-1.9.51-2.86.04-.24-.06-.51-.32-.56-.22-.05-.53.07-.56.32-.5,3.37-1.36,6.68-2.55,9.87-.16.44-.33.87-.51,1.3-.18.45-.34.82-.54,1.27-.1.22-.07.5.16.63.2.11.52.07.63-.16h0Z" style="fill: #a86838; stroke-width: 0px;"/>
            <path d="m71.36,157.89c.9,1.83,1.64,3.65,2.29,5.6.64,1.93,1.15,3.9,1.52,5.9.21,1.15.37,2.21.49,3.34.03.24.19.47.46.46.23-.01.49-.2.46-.46-.22-2.08-.58-4.14-1.09-6.17-.5-2-1.13-3.96-1.89-5.87-.44-1.1-.92-2.19-1.44-3.26-.11-.22-.43-.29-.63-.16-.22.14-.28.4-.16.63h0Z" style="fill: #a86838; stroke-width: 0px;"/>
            <path d="m73.2,172.74c.21-2.9-.32-5.82-1.47-8.48-.32-.74-.69-1.46-1.12-2.15-.12-.21-.42-.3-.63-.16-.21.13-.3.41-.16.63.75,1.22,1.29,2.43,1.71,3.77.42,1.34.67,2.67.76,4.02.05.79.05,1.59,0,2.38-.02.24.22.47.46.46.26-.01.44-.2.46-.46h0Z" style="fill: #a86838; stroke-width: 0px;"/>
            <path d="m69.05,164.04c.36.89.65,1.8.88,2.74.11.46.21.93.29,1.39.08.49.13.85.18,1.34.05.54.09,1.08.1,1.63,0,.24.21.47.46.46.24-.01.46-.2.46-.46-.04-1.96-.35-3.91-.93-5.78-.16-.53-.35-1.05-.55-1.56-.09-.22-.31-.4-.56-.32-.22.07-.42.33-.32.56h0Z" style="fill: #a86838; stroke-width: 0px;"/>
          </g>
          <g>
            <path d="m99,191.16c3.96-1.98,9.26-3.92,10.12-4.18-1.62-5.94-5.09-11.44-9.9-15.56-6.84,1.7-14.03,2.17-21.06,1.39-4.08,4.38-6.32,9.29-8.6,18.42,4.83,4.22,12.19,4.9,18.62,3.57,3.76-.78,7.42-1.93,10.83-3.63Z" style="fill: #0759b1; stroke-width: 0px;"/>
            <path d="m79.45,172.93c-.43-.04-.86-.08-1.29-.13-4.08,4.38-6.32,9.29-8.6,18.42,1.59,1.39,3.46,2.4,5.48,3.07-1.49-7.28.33-15.09,4.41-21.36Z" style="fill: #064e9c; stroke-width: 0px;"/>
            <path d="m100.13,172.23c3.24,4.65,5.42,10.22,5.93,15.87,1.53-.59,2.69-1.01,3.06-1.12-1.51-5.56-4.65-10.73-8.99-14.75Z" style="fill: #064e9c; stroke-width: 0px;"/>
            <path d="m78.81,152.58s.5,19.66.21,20.93l.86-.04s-.78-19.83-.62-20.97c.02-.18-.45.08-.45.08Z" style="fill: #0759b1; stroke-width: 0px;"/>
            <path d="m98.06,152.36s-.49,19.79-.83,21.04h.86s.19-19.69.4-20.82c.03-.18-.43-.22-.43-.22Z" style="fill: #0759b1; stroke-width: 0px;"/>
          </g>
          <g>
            <g>
              <path d="m82.5,163.21c1.09.16,3.01.58,3.93.79.21.05.41-.12.36-.32-.04-.18-.06-.37-.07-.54-.19-3.09.34-6.28,1.35-9.25-1.45-.11-3.02.52-4.02,1.36-1.18,1-1.79,2.35-2.2,3.69-.37,1.22-.61,2.48-1.09,3.67-.07.18.06.38.27.41.49.05.98.12,1.47.19Z" style="fill: #0759b1; stroke-width: 0px;"/>
              <path d="m95.03,162.24c-1.04.3-2.83.97-3.71,1.3-.22.08-.45-.07-.45-.28,0-.18-.02-.35-.04-.52-.47-3.01-1.52-5.94-3.11-8.66-.04-.07,0-.16.09-.18,1.36-.24,2.86.09,3.98.75,1.39.82,2.28,2.06,2.97,3.32.6,1.1,1.09,2.25,1.78,3.32.15.23.02.54-.27.61-.42.11-.83.22-1.24.34Z" style="fill: #0759b1; stroke-width: 0px;"/>
            </g>
            <path d="m96.11,151.44s.39-.21.79.55c1.24,2.34-6.52,7.23-6.52,7.23,0,0-.13-4.58-2.61-5.39,0,0,3.4-.38,5.53-.98,1.39-.39,2.81-1.41,2.81-1.41Z" style="fill: #cde3f9; stroke-width: 0px;"/>
            <path d="m80.56,151.64s-.46-.24-.75.55c-.95,2.61,5.84,7.04,5.84,7.04,0,0,.08-4.69,2.48-5.39,0,0-3.81-.4-5.25-.98-1.28-.51-2.32-1.21-2.32-1.21Z" style="fill: #cde3f9; stroke-width: 0px;"/>
          </g>
          <g>
            <g>
              <g>
                <path d="m118.65,127.57c1.09-1.36,3.07-1.96,4.91-1.7,1.84.26,3.54,1.29,4.76,2.64,2.14,2.35,2.92,5.69,2,8.55-.92,2.86-3.51,5.13-6.62,5.81-1.66.36-3.49.27-5.07-.44-1.58-.71-2.87-2.1-3.2-3.7l3.21-11.16Z" style="fill: #f4ccb5; stroke-width: 0px;"/>
                <path d="m123.63,136.94c-.16-.18,0-.54.13-1.05.14-.51.25-1.19.11-1.88-.14-.69-.52-1.31-.85-1.74-.33-.44-.62-.75-.54-.96.04-.1.18-.16.4-.15.23,0,.53.08.88.26.35.18.72.47,1.05.86.33.4.6.91.72,1.5.12.58.06,1.14-.09,1.61-.15.47-.39.84-.65,1.1-.26.26-.52.42-.73.49-.21.07-.36.05-.44-.04Z" style="fill: #e6967a; stroke-width: 0px;"/>
              </g>
              <g>
                <path d="m60.05,119.78c-.4-1.7-1.92-3.09-3.69-3.66-1.77-.56-3.75-.36-5.44.32-2.94,1.19-5.09,3.87-5.5,6.85s.94,6.15,3.45,8.1c1.34,1.05,3.03,1.76,4.76,1.79,1.73.04,3.49-.65,4.49-1.95l1.94-11.45Z" style="fill: #f4ccb5; stroke-width: 0px;"/>
                <path d="m51.5,126.08c.22-.09.24-.49.34-1,.09-.52.29-1.18.71-1.74.43-.56,1.03-.95,1.52-1.2.49-.26.88-.4.9-.63,0-.11-.09-.22-.3-.31-.2-.09-.52-.16-.91-.15-.39.01-.85.11-1.32.33-.47.22-.93.56-1.29,1.04-.36.48-.55,1-.62,1.49-.07.49,0,.93.11,1.28.12.35.28.61.45.76.16.15.31.2.41.16Z" style="fill: #e6967a; stroke-width: 0px;"/>
              </g>
            </g>
            <path d="m99.45,152.81c4.79-1.61,9.93-3.99,14.11-7.26,3.63-2.85,6.03-6.07,8.08-9.38,1.51-3.23,10.94-29.46,2.93-35.25-6.89-4.91-10.22-5.61-25.75-9.11-15.6-3.65-23.21-3.17-33.16,1.11-10.77,4.63-11.38,29.86-10.81,34.02.63,4.37,1.75,8.77,4.37,12.91,3.02,4.76,7.47,8.42,11.78,10.91,4.34,2.49,8.95,3.8,13.88,4.1,4.94.29,9.75-.44,14.56-2.04Z" style="fill: #f4ccb5; stroke-width: 0px;"/>
            <path d="m124.56,100.92c-6.89-4.91-10.22-5.61-25.75-9.11-15.6-3.65-23.21-3.17-33.16,1.11-6.94,2.98-9.66,14.52-10.57,23.46,10.57-1.89,20.71-12.39,26.97-21.26,3.87,7.6,12.04,16.22,19.28,20.5.92.44,16.25,9.23,23.8,10.23,2.52-9.07,4.57-21.22-.57-24.93Z" style="fill: #e0a089; stroke-width: 0px;"/>
            <g>
              <path d="m126.53,94.08c-.7-1.3-1.48-2.55-2.35-3.76-1.17-1.64-2.53-3.16-4.02-4.54-3.68-8.57-13.46-13.3-22.95-14.69-12.5-1.82-23.46,1.84-33.98,8.28-7.86,4.81-10.91,9.37-15.67,19.34-5.39,14.28-1.76,32.27-1.76,32.27,0,0,20.53-23.52,35.67-41.66,0,0,10.39,20.48,44.12,29.87l-1.08,10.05s5.85-12.9,6.06-18.76c.22-6.11-1.1-10.98-4.04-16.4Z" style="fill: #be7b55; stroke-width: 0px;"/>
              <path d="m127.77,86.22c-.19.05-.41,0-.55-.16-2.13-2.31-5.71-3.27-8.7-2.32-.29.09-.6-.07-.7-.36-.09-.29.07-.6.36-.7,3.45-1.09,7.41-.04,9.86,2.63.21.23.19.58-.03.79-.07.06-.15.11-.23.13Z" style="fill: #a86838; stroke-width: 0px;"/>
              <path d="m116.49,81.57c-.14.04-.29.02-.43-.06-.26-.16-.35-.5-.2-.76,1.45-2.47,4.25-4.11,7.11-4.17.31,0,.56.24.57.54,0,.31-.24.56-.54.57-2.49.05-4.92,1.47-6.18,3.62-.08.13-.2.22-.34.26Z" style="fill: #a86838; stroke-width: 0px;"/>
              <path d="m81.09,88.31c1.53,2.65,3.29,5.17,5.23,7.54,2,2.45,4.19,4.76,6.52,6.9,2.38,2.19,4.92,4.21,7.58,6.04,2.63,1.82,5.4,3.45,8.27,4.87,2.83,1.39,5.77,2.58,8.79,3.49.36.11.73.21,1.09.32.58.16.82-.73.25-.89-2.96-.82-5.85-1.91-8.63-3.22-2.88-1.35-5.66-2.93-8.31-4.7-2.65-1.76-5.17-3.7-7.54-5.81-2.35-2.09-4.57-4.34-6.6-6.74-1.95-2.3-3.73-4.75-5.29-7.34-.18-.3-.36-.61-.54-.92-.3-.52-1.1-.05-.8.47h0Z" style="fill: #a86838; stroke-width: 0px;"/>
              <path d="m81.04,88.19c1.05,3.42,2.7,6.63,4.73,9.57,2.18,3.16,4.79,6.02,7.66,8.55,3,2.64,6.29,4.94,9.79,6.85,3.56,1.95,7.35,3.51,11.27,4.57,3.88,1.06,7.92,1.64,11.95,1.61.48,0,.96-.02,1.44-.04.25-.01.47-.2.47-.46,0-.24-.21-.48-.46-.47-3.95.17-7.9-.25-11.74-1.17-3.87-.93-7.62-2.35-11.17-4.16-3.51-1.8-6.83-3.98-9.86-6.5-2.89-2.41-5.55-5.15-7.77-8.16-1.08-1.46-2.07-2.99-2.94-4.59-.83-1.53-1.52-3.05-2.09-4.66-.14-.39-.27-.78-.39-1.18-.17-.57-1.07-.33-.9.24h0Z" style="fill: #a86838; stroke-width: 0px;"/>
              <path d="m81.04,89.08c-1.75,2.6-3.63,5.13-5.66,7.52-1.78,2.09-3.67,4.07-5.68,5.94-.94.87-1.9,1.71-2.88,2.53-.96.8-1.92,1.56-2.87,2.29-1.99,1.51-4.03,2.94-6.1,4.35-2.16,1.47-4.35,2.91-6.51,4.37-.28.19-.57.38-.85.57-.22.15-.32.43-.18.67.13.22.45.33.67.18,2.21-1.5,4.43-2.97,6.65-4.46,2.08-1.41,4.15-2.84,6.16-4.34,2.04-1.53,4.03-3.13,5.92-4.84,2.02-1.83,3.93-3.77,5.73-5.82,2.06-2.36,3.97-4.84,5.75-7.42.24-.35.48-.7.71-1.05.15-.22.04-.55-.18-.67-.24-.14-.52-.04-.67.18h0Z" style="fill: #a86838; stroke-width: 0px;"/>
              <path d="m85.69,88.29c2.58,3.16,5.53,6,8.78,8.47,3.13,2.38,6.53,4.39,10.11,6.01,3.6,1.63,7.37,2.88,11.22,3.76,3.93.9,7.94,1.42,11.96,1.62,1.12.06,2.26.12,3.39.06,1.19-.07,2.41-.34,3.38-1.07.85-.65,1.5-1.61,1.5-2.71,0-.91-.44-1.81-1.23-2.29-.39-.24-.85-.34-1.31-.33-.63.02-.64,1.01,0,.99.74-.03,1.28.42,1.48,1.08.1.35.11.69.01,1.06-.12.44-.38.82-.7,1.13-.76.75-1.82,1.05-2.87,1.14-1.1.09-2.21.03-3.31-.02-3.87-.17-7.72-.65-11.51-1.48-3.7-.81-7.34-1.95-10.8-3.46-3.48-1.52-6.81-3.4-9.88-5.63-3.14-2.28-6.01-4.94-8.55-7.88-.32-.37-.64-.75-.96-1.14-.17-.21-.52-.17-.7,0-.2.21-.17.49,0,.7h0Z" style="fill: #a86838; stroke-width: 0px;"/>
              <path d="m77.99,82.78c-1.13,3.21-2.7,6.26-4.62,9.07-1.92,2.81-4.21,5.37-6.77,7.62-2.55,2.24-5.37,4.17-8.38,5.73-3.01,1.55-6.22,2.72-9.53,3.45-3.59.78-7.43,1.05-10.99.02-.43-.12-.86-.27-1.27-.43-.25-.1-.54.11-.61.34-.08.28.1.51.34.61,3.6,1.41,7.65,1.35,11.41.69,3.45-.61,6.8-1.73,9.96-3.23,3.15-1.5,6.1-3.41,8.79-5.63,2.69-2.23,5.09-4.79,7.16-7.6,2.06-2.81,3.76-5.89,5.02-9.14.16-.4.31-.81.45-1.22.09-.25-.1-.54-.34-.61-.27-.07-.52.09-.61.34h0Z" style="fill: #a86838; stroke-width: 0px;"/>
            </g>
            <path d="m119.83,86.12c2.08,1.98,3.92,4.19,5.46,6.61,1.59,2.49,2.86,5.18,3.7,8.01.81,2.72,1.22,5.54,1.18,8.38-.04,2.6-.48,5.17-1.21,7.67-.8,2.73-1.92,5.35-3.19,7.9-.17.34-.34.68-.52,1.01-.12.22-.05.51.17.64.21.12.52.05.64-.17,1.37-2.63,2.6-5.35,3.51-8.18.82-2.56,1.36-5.22,1.5-7.9.15-2.85-.16-5.72-.87-8.48-.76-2.96-1.98-5.8-3.53-8.42-1.51-2.53-3.34-4.88-5.41-6.98-.25-.25-.51-.5-.77-.75-.43-.41-1.09.25-.66.66h0Z" style="fill: #a86838; stroke-width: 0px;"/>
            <path d="m114.73,77.91c-5.05-3.88-11.12-6.17-17.4-7.06-6.45-.92-13.08-.45-19.39,1.17-6.28,1.61-12.35,4.36-17.44,8.42-5.15,4.1-9.27,9.49-12,15.48-2.7,5.94-4.07,12.51-3.73,19.03.04.8.11,1.6.2,2.4.07.58.99.59.92,0-.74-6.36.18-12.84,2.49-18.81,2.32-6.01,6.05-11.48,10.82-15.81,4.75-4.31,10.54-7.31,16.65-9.18,6.1-1.87,12.56-2.63,18.92-2.08,6.16.53,12.27,2.36,17.46,5.78.63.41,1.24.85,1.84,1.3.46.36,1.12-.29.65-.65h0Z" style="fill: #a86838; stroke-width: 0px;"/>
            <g>
              <g>
                <ellipse cx="105.7" cy="131.97" rx="7.75" ry="9.03" transform="translate(-36.37 223.65) rotate(-84.14)" style="fill: #e88f6d; stroke-width: 0px;"/>
                <ellipse cx="68.58" cy="127.91" rx="7.75" ry="9.32" transform="translate(-65.66 183.07) rotate(-84.14)" style="fill: #e88f6d; stroke-width: 0px;"/>
              </g>
              <g>
                <ellipse cx="74.09" cy="116.34" rx="8.23" ry="6.94" transform="translate(-49.61 177.35) rotate(-83.76)" style="fill: #fff; stroke-width: 0px;"/>
                <g>
                  <ellipse cx="74.19" cy="116.83" rx="7.09" ry="6.19" transform="translate(-50.01 177.89) rotate(-83.76)" style="fill: #7e4f37; stroke-width: 0px;"/>
                  <path d="m72.28,114.94c-.06-.23-.3-.38-.66-.37-.36.02-.83.22-1.23.63-.4.41-.64.92-.69,1.32-.06.41.04.7.24.8.2.1.44.01.7-.14.25-.16.52-.38.78-.66.27-.27.5-.54.66-.81.16-.27.27-.54.21-.77Z" style="fill: #fff; stroke-width: 0px;"/>
                </g>
              </g>
              <g>
                <ellipse cx="102.89" cy="119.49" rx="8.23" ry="6.94" transform="translate(-27.07 208.79) rotate(-83.76)" style="fill: #fff; stroke-width: 0px;"/>
                <g>
                  <ellipse cx="102.84" cy="119.96" rx="7.09" ry="6.19" transform="translate(-27.58 209.16) rotate(-83.76)" style="fill: #7e4f37; stroke-width: 0px;"/>
                  <path d="m105.12,118.52c.11-.21.38-.31.73-.21.35.09.76.39,1.07.88.3.48.42,1.03.39,1.44-.03.41-.19.68-.4.73-.21.06-.44-.08-.65-.29-.21-.21-.42-.49-.62-.81-.2-.32-.37-.64-.47-.94-.1-.3-.15-.58-.03-.8Z" style="fill: #fff; stroke-width: 0px;"/>
                </g>
              </g>
              <path d="m90.53,125.44c.15.16.17.4.1.61-.02.06-.05.13-.09.2-.04.07-.09.13-.15.2-.13.15-.29.27-.47.38-.1.06-.2.1-.32.15-.11.04-.24.08-.37.11-2.15.42-3.94-1.72-3.16-3.76.05-.12.11-.24.17-.34.07-.1.13-.2.2-.29.13-.16.28-.3.45-.4.08-.05.15-.08.22-.11.08-.03.15-.04.21-.05.79-.12.76.82.93,1.34,0,.05.03.1.04.14.01.05.03.09.05.14.06.16.14.33.23.45.04.05.07.09.1.13.03.03.06.07.11.12.11.12.26.22.41.31.04.02.08.05.13.07.04.02.09.05.13.07.34.19.78.26,1.06.54Z" style="fill: #f1775b; stroke-width: 0px;"/>
              <path d="m78.46,130.49c4.49,3.09,10.44,3.48,15.25.91,1.28-.68,2.46-1.54,3.49-2.57.42-.41-.16-1.13-.58-.72-3.54,3.53-8.81,4.95-13.62,3.53-1.42-.42-2.77-1.05-3.99-1.9-.49-.34-1.04.4-.55.74h0Z" style="fill: #b83e3e; stroke-width: 0px;"/>
              <path d="m100.39,107.96c3.02.19,5.93,1.45,8.1,3.58.41.4,1.11-.16.7-.56-2.33-2.29-5.43-3.7-8.7-3.91-.57-.04-.67.85-.1.89h0Z" style="fill: #935c33; stroke-width: 0px;"/>
              <path d="m70.77,106.98c2.75-1.26,5.92-1.51,8.83-.66.55.16.9-.66.35-.82-3.14-.92-6.53-.71-9.51.65-.52.24-.19,1.07.33.83h0Z" style="fill: #935c33; stroke-width: 0px;"/>
            </g>
          </g>
          <g>
            <g>
              <g>
                <path d="m88.34,165.88s.17-4.64.15-4.98-.71-.07-.77.58c-.06.65.1,4.03.62,4.4Z" style="fill: #e6967a; stroke-width: 0px;"/>
                <path d="m88.01,164.85s.3-5.14.53-6.23c.26-1.23-.74-1.86-.84-.87-.1.99-.89,6.69-.9,6.95-.02.26.87.98,1.21.15Z" style="fill: #e6967a; stroke-width: 0px;"/>
                <path d="m87.64,165.21s.07-5.58.42-6.69c.22-.7-.32-1.61-.66-.59-.18.54-.94,4.19-1.4,6.14-.35,1.52.73,3.23.72,3.38,0,0,.61-1.38.91-2.25Z" style="fill: #e8c2ac; stroke-width: 0px;"/>
                <path d="m87.43,168.57c-1.04.32-1.51-.05-1.52-1.25,0-1.19,1.77-7.45,1.78-8.24,0-.79.67-.02.63.67-.04.69-.32,3.39-.13,4.32.19.93.37,4.15-.77,4.49Z" style="fill: #f4ccb5; stroke-width: 0px;"/>
              </g>
              <g>
                <path d="m88.56,165.88s-.17-4.64-.15-4.98.71-.07.77.58-.1,4.03-.62,4.4Z" style="fill: #e6967a; stroke-width: 0px;"/>
                <path d="m88.88,164.85s-.3-5.14-.53-6.23c-.26-1.23.74-1.86.84-.87.1.99.89,6.69.9,6.95s-.87.98-1.21.15Z" style="fill: #e6967a; stroke-width: 0px;"/>
                <path d="m89.25,165.21s-.07-5.58-.42-6.69c-.22-.7.32-1.61.66-.59.18.54.94,4.19,1.4,6.14.35,1.52-.73,3.23-.72,3.38,0,0-.61-1.38-.91-2.25Z" style="fill: #e8c2ac; stroke-width: 0px;"/>
                <path d="m89.47,168.57c1.04.32,1.51-.05,1.52-1.25,0-1.19-1.77-7.45-1.78-8.24,0-.79-.67-.02-.63.67.04.69.32,3.39.13,4.32-.19.93-.37,4.15.77,4.49Z" style="fill: #f4ccb5; stroke-width: 0px;"/>
              </g>
            </g>
            <g>
              <path d="m100.68,154.19c.96,1.84,1.99,8.28,2.29,10.31.41,2.72-2.37,4.31-4.13,4.58-2.8.44-7.6.54-7.91.23-.31-.31-.37-3.73-.37-4.46s.54-.84,1.21-.98c.6-.12,3.42.14,5.7-.42.38-1.17.83-5.53,1.01-6.93.15-1.11,1.62-3.44,2.19-2.34Z" style="fill: #ebf4fd; stroke-width: 0px;"/>
              <path d="m90.56,164.86c0,.73.06,4.15.37,4.46.19.19,2.19.23,4.33.11-1.21-.04-2.7-.08-3.72-.52-.99-.43-.99-4.43-.99-4.05Z" style="fill: #cde3f9; stroke-width: 0px;"/>
              <path d="m102.97,164.5c-.09-.62-.25-1.65-.46-2.84.12,2.7.83,5.15-1.77,6.5-.7.36-2.99,1.01-3.8,1.16.68-.06,1.33-.14,1.9-.23,1.76-.28,4.53-1.86,4.13-4.58Z" style="fill: #cde3f9; stroke-width: 0px;"/>
              <path d="m97.93,163.82c.1.3-.11,2.15.16,2.15s.05-6.85.61-10.16c-.1.26-.18.51-.21.71-.19,1.4-.63,5.76-1.01,6.93-.46.11-.95.19-1.43.25.25.14.41.05.99-.02.59-.07.79-.15.89.14Z" style="fill: #cde3f9; stroke-width: 0px;"/>
            </g>
            <g>
              <path d="m76.21,154.19c-.96,1.84-1.99,8.28-2.29,10.31-.41,2.72,2.37,4.31,4.13,4.58,2.8.44,7.6.54,7.91.23.31-.31.37-3.73.37-4.46s-.54-.84-1.21-.98c-.6-.12-3.42.14-5.7-.42-.38-1.17-.83-5.53-1.01-6.93-.15-1.11-1.62-3.44-2.19-2.34Z" style="fill: #ebf4fd; stroke-width: 0px;"/>
              <path d="m86.33,164.86c0,.73-.06,4.15-.37,4.46-.19.19-2.19.23-4.33.11,1.21-.04,2.7-.08,3.72-.52.99-.43.99-4.43.99-4.05Z" style="fill: #cde3f9; stroke-width: 0px;"/>
              <path d="m73.92,164.5c.09-.62.25-1.65.46-2.84-.12,2.7-1.14,4.6,1.77,6.5.66.43,2.99,1.01,3.8,1.16-.68-.06-1.33-.14-1.9-.23-1.76-.28-4.53-1.86-4.13-4.58Z" style="fill: #cde3f9; stroke-width: 0px;"/>
              <path d="m78.97,163.82c-.1.3.11,2.15-.16,2.15s-.05-6.85-.61-10.16c.1.26.18.51.21.71.19,1.4.63,5.76,1.01,6.93.46.11.95.19,1.43.25-.25.14-.41.05-.99-.02-.59-.07-.79-.15-.89.14Z" style="fill: #cde3f9; stroke-width: 0px;"/>
            </g>
          </g>
        </g>
      </g>
    </g>
  </g>
</svg>