<?xml version="1.0" encoding="UTF-8"?>
<svg id="_圖層_2" data-name="圖層 2" xmlns="http://www.w3.org/2000/svg" width="84.3" height="84.3" viewBox="0 0 84.3 84.3">
  <g id="_第一cut" data-name="第一cut">
    <g id="game_btn">
      <circle cx="42.15" cy="42.15" r="41.59" style="fill: #fa735f; stroke: #fff; stroke-miterlimit: 10; stroke-width: 1.13px;"/>
      <g>
        <path d="m17.71,26.25c-.04.16-.18.24-.45.24-.59,2.63-1.8,6.34-3.67,8.63-.32-.22-.91-.57-1.28-.73,1.86-2.19,3.02-5.73,3.53-8.51l1.87.37Zm3.55-5.19l1.86.1c-.02.16-.14.26-.43.28v16.17c0,1.05-.28,1.48-.97,1.72-.73.22-1.99.26-3.89.26-.1-.41-.34-1.05-.59-1.44.91.02,1.78.04,2.43.04,1.42,0,1.58,0,1.58-.57v-16.58Zm8.92,14.41c-.51-2.43-2.17-6.28-3.97-9.22l1.3-.51c1.82,2.9,3.59,6.67,4.11,9.12l-1.44.61Z" style="fill: #fff;"/>
        <path d="m36.58,35.55c1.03,1.56,2.94,2.29,5.45,2.39.71.02,1.64.04,2.7.04,2.37,0,5.25-.06,6.95-.16-.16.3-.37.91-.45,1.3-1.42.04-3.69.08-5.78.08-1.3,0-2.51,0-3.4-.04-2.78-.1-4.72-.85-6.04-2.47-.85.91-1.72,1.8-2.45,2.49.02.18-.02.24-.16.32l-.77-1.38c.79-.65,1.76-1.54,2.66-2.43v-5.53h-2.47v-1.3h3.77v6.69Zm-.81-9.99c-.49-1.05-1.7-2.57-2.84-3.63l1.07-.69c1.15,1.05,2.39,2.51,2.9,3.57l-1.13.75Zm4.78,3.06c-.24,3.3-.81,6.16-2.39,8.06-.2-.28-.61-.65-.91-.83,1.9-2.25,2.17-6.26,2.23-10.94h-2.01v-1.17h2.9v-2.98l1.68.1c-.02.14-.14.24-.41.26v2.61h2.94v1.11c.57-1.22,1.03-2.72,1.36-4.15l1.56.43c-.04.12-.16.2-.41.2-.14.57-.3,1.13-.49,1.7h4.8v1.18h-5.23c-.28.69-.59,1.36-.91,1.92h4.9l.2-.08.93.63c-.04.08-.16.14-.28.14-.57.89-1.54,2.01-2.39,2.82v.95h2.86v1.22h-2.86v3.67c0,.63-.1.97-.59,1.16-.47.2-1.2.2-2.35.2-.06-.32-.24-.79-.43-1.11.43.02.81.02,1.13.02s.57,0,.69-.02c.22,0,.28-.06.28-.26v-3.65h-2.88v-1.22h2.88v-1.84l.63.04c.45-.47.89-1.03,1.26-1.56h-3.99v-1.09c-.16.28-.32.55-.49.77-.2-.2-.67-.57-.95-.73.24-.34.49-.79.71-1.26h-3.83c-.02.85-.06,1.7-.1,2.53h2.63l.65.02c-.02.12-.02.28-.02.45-.14,5.8-.26,7.64-.71,8.25-.28.36-.57.49-1.03.55-.2.02-.47.02-.75.02s-.61,0-.93-.02c-.02-.34-.14-.83-.32-1.13.65.06,1.24.06,1.5.06.24,0,.38-.04.51-.24.26-.38.43-2.05.55-6.77h-2.13Z" style="fill: #fff;"/>
        <path d="m67.48,27.69c.16,2.17.4,4.15.73,5.84.89-1.5,1.64-3.16,2.19-4.92l1.6.47c-.06.14-.22.2-.47.2-.73,2.19-1.72,4.19-2.94,5.96.51,1.9,1.16,3.08,1.92,3.08.47,0,.71-1.11.79-3.63.26.28.69.61,1.01.73-.24,3.22-.65,4.17-1.95,4.19-1.2,0-2.09-1.2-2.74-3.14-.97,1.17-2.05,2.19-3.24,3-.18-.26-.61-.73-.87-.95l.43-.28c-2.92.43-5.94.83-7.84,1.05-.02.14-.12.24-.26.28l-.51-1.32c1.34-.14,3.16-.34,5.15-.59.26-.65.59-1.66.75-2.31l1.38.32c-.04.12-.18.2-.39.2-.16.45-.38,1.09-.63,1.66.89-.12,1.8-.22,2.7-.34l.04.75c1.05-.81,2.03-1.82,2.88-2.96-.47-1.99-.79-4.44-.97-7.13l-2.25.3-.14-.89-1.03-.26c.16-.49.34-1.13.47-1.78h-8.08v4.78c0,2.69-.2,6.65-1.46,9.28-.2-.22-.71-.61-.97-.73,1.16-2.51,1.26-6.02,1.26-8.55v-5.8h4.01v-3.46l1.68.12c-.02.12-.14.22-.41.26v.93h4.76v.99h-4.76v1.16h4.72l.63.04c0,.26-.45,1.99-.69,2.67l2.19-.28c-.1-1.9-.16-3.87-.18-5.84l1.72.1c-.02.16-.14.24-.43.28,0,1.78.04,3.57.14,5.29l4.3-.57.16,1.22-4.4.57Zm-11.83,3.55v-.95h8.65v.95h-8.65Zm2.29-6l1.42.1c-.02.14-.12.22-.37.24v1.01l3.4-.34c.04.12.04.26.1.85l-3.51.34v.71c0,.41.12.47.75.47h2.29c.47,0,.55-.1.59-.89.24.16.63.26.91.32-.1,1.11-.42,1.42-1.34,1.42h-2.53c-1.72,0-1.72-.36-1.72-1.9l-2.11.2-.1-.85,2.21-.22v-1.46Zm5.59,6.89v3.14h-7.11v-3.14h7.11Zm-5.31,3.38c.32.59.59,1.4.67,1.9l-1.05.24c-.06-.53-.3-1.32-.59-1.92l.97-.22Zm4.17-1.07v-1.48h-4.88v1.48h4.88Zm6.85-13.29c.97,1.01,2.01,2.43,2.41,3.38-.22.12-.47.26-1.03.63-.43-.97-1.44-2.41-2.39-3.46l1.01-.55Z" style="fill: #fff;"/>
        <path d="m17.29,49.02v-.91c-1.32.59-2.76,1.13-4.2,1.56-.14-.32-.45-.79-.67-1.05,3.44-.93,6.93-2.57,8.69-4.21l1.92.06c-.02.14-.18.22-.39.24,2.09,1.6,5.67,3,8.69,3.65-.26.3-.59.81-.75,1.15-1.26-.32-2.65-.79-3.99-1.36v.87h-9.32Zm5.27,8.88v1.24h8.63v1.03h-8.63v1.62c0,.75-.2,1.07-.79,1.26-.61.18-1.62.2-3.32.18-.08-.32-.28-.77-.47-1.09.75.02,1.48.04,2.01.04,1.09,0,1.21,0,1.21-.41v-1.6h-8.61v-1.03h8.61v-1.24h-7.07v-1.01h7.07v-1.3c-2.07.12-4.23.2-6.24.24-.02-.26-.14-.67-.26-.91,4.48-.1,9.95-.45,12.77-.99l1.12.87c-.06.04-.12.06-.22.06-.04,0-.1,0-.16-.02-1.48.26-3.46.49-5.63.65v1.4h7.25v1.01h-7.25Zm-6.71-4.54v-3.32h12.12v3.32h-12.12Zm1.28-2.37v1.44h9.5v-1.44h-9.5Zm9.32-2.9c-1.78-.75-3.47-1.68-4.68-2.63-1.07.89-2.66,1.82-4.44,2.63h9.12Z" style="fill: #fff;"/>
        <path d="m38.44,50.94c.93,1.3,1.9,3.06,2.25,4.19l-1.09.53c-.1-.36-.26-.77-.47-1.22-.61.04-1.22.06-1.8.1v8.67h-1.21v-8.61c-1.13.04-2.15.08-2.96.12-.02.14-.14.22-.28.26l-.37-1.52h1.42c.45-.55.91-1.18,1.4-1.86-.63-.93-1.68-2.13-2.61-3l.71-.87c.2.18.43.39.65.61.69-1.18,1.48-2.8,1.92-3.95l1.44.61c-.06.12-.2.18-.43.18-.53,1.13-1.42,2.8-2.19,3.93.47.49.89.99,1.21,1.44.87-1.32,1.68-2.69,2.27-3.85l1.42.67c-.06.1-.22.18-.45.18-1.03,1.72-2.65,4.13-4.07,5.9l3.42-.06c-.36-.69-.77-1.4-1.2-2.01l1.01-.45Zm-3.12,5.51c-.06.12-.18.2-.41.2-.28,1.72-.75,3.67-1.36,4.86-.28-.18-.73-.38-1.01-.53.59-1.13,1.01-3.08,1.28-4.92l1.5.39Zm3.79-.41c.59,1.2,1.16,2.74,1.36,3.77-.24.08-.49.18-1.13.39-.16-1.03-.71-2.61-1.28-3.83l1.05-.32Zm.49,4.9c1.16-.67,2.88-1.76,4.56-2.86l.43,1.05c-1.46,1.05-2.96,2.13-3.97,2.8.02.14-.04.28-.16.36l-.85-1.36Zm6.73-7.94c.24,1.18.59,2.41,1.13,3.59.95-.79,2.05-1.82,2.71-2.61l1.24.97c-.1.12-.26.14-.43.1-.75.75-1.99,1.8-3,2.53.87,1.46,2.09,2.74,3.81,3.55-.28.24-.69.79-.87,1.16-2.39-1.32-3.79-3.51-4.62-5.65v5.15c0,1.42-.71,1.48-3.12,1.48-.04-.34-.22-.85-.38-1.2.45.02.87.02,1.22.02.93,0,1.03,0,1.03-.32v-8.75h-4.92v-1.22h7.15c.1-.51.22-1.05.34-1.6h-4.78l-.2.73-1.32-.22c.55-1.64,1.24-4.34,1.66-6.3l1.66.2c-.04.16-.16.24-.45.24l-.28,1.2h4.76l.28-.04.77.22c-.02.1-.06.22-.1.3-.22,1.28-.65,3.45-1.05,5.27h3.04v1.22h-5.29Zm-4.68,1.16c.91.77,1.97,1.88,2.43,2.67l-.99.83c-.45-.79-1.46-1.97-2.37-2.78l.93-.73Zm2.01-7.01c-.16.65-.32,1.32-.51,1.95h4.7c.12-.69.26-1.36.36-1.95h-4.56Z" style="fill: #fff;"/>
        <path d="m55.24,59.17c-.18,1.52-.47,3.12-1.28,4.05l-.95-.53c.75-.85,1.09-2.35,1.24-3.79l.99.26Zm7.09-1.8c-3.16.26-6.48.53-8.55.67-.04.16-.16.24-.3.26l-.45-1.48c1.09-.04,2.49-.12,4.03-.2v-1.7h-3.46v-1.11h3.46v-1.52h-3.28v-7.11h8v7.11h-3.49v1.52h3.67v1.11h-3.67v1.62l4.03-.22v1.05Zm-7.46-11.17v5.05h2.33v-5.05h-2.33Zm.99,4.21c-.04-.87-.3-2.17-.65-3.18l.73-.18c.36.99.63,2.31.69,3.14l-.77.22Zm.61,12.16c0-.97-.22-2.43-.53-3.59l.93-.12c.32,1.13.55,2.61.57,3.57l-.97.14Zm2.47-.38c-.12-.91-.57-2.29-1.03-3.32.53-.14.71-.16.89-.2.49,1.03.93,2.41,1.09,3.3l-.95.22Zm1.7-10.94v-5.05h-2.47v5.05h2.47Zm-.12-3.87c-.04.1-.18.16-.38.16-.22.87-.63,2.21-.97,3.02l-.63-.26c.3-.87.73-2.35.91-3.3l1.07.39Zm1.07,14.31c-.28-.85-1.03-2.17-1.74-3.12l.85-.34c.77.93,1.52,2.21,1.84,3.04l-.95.43Zm10.25-11.47h-4.48v3.95h3.65v8.96h-1.32v-.79h-5.43v.87h-1.28v-9.04h3.04v-9.73l1.72.1c-.02.14-.12.24-.38.28v4.11h4.48v1.28Zm-2.15,10.86v-5.63h-5.43v5.63h5.43Z" style="fill: #fff;"/>
      </g>
    </g>
  </g>
</svg>