<?xml version="1.0" encoding="UTF-8"?><svg xmlns="http://www.w3.org/2000/svg" xmlns:xlink="http://www.w3.org/1999/xlink" viewBox="0 0 315 321.44"><defs><style>.cls-1{fill:#eabeca;}.cls-2{fill:#2a3333;}.cls-3,.cls-4{fill:#e54567;}.cls-5{fill:#f4f4f4;}.cls-6{fill:#efaf3f;}.cls-7{fill:#fff;}.cls-8,.cls-9,.cls-10,.cls-11,.cls-12,.cls-13,.cls-14,.cls-15,.cls-16,.cls-17,.cls-18,.cls-19{fill:none;}.cls-8,.cls-9,.cls-10,.cls-11,.cls-13,.cls-15,.cls-17,.cls-18{stroke-linecap:round;stroke-linejoin:round;}.cls-8,.cls-10,.cls-11,.cls-13,.cls-15,.cls-17,.cls-18{stroke-width:1.09px;}.cls-8,.cls-11,.cls-15,.cls-18{stroke:#e494a6;}.cls-8,.cls-15{opacity:.4;}.cls-9{stroke:#776469;}.cls-9,.cls-20,.cls-21,.cls-22,.cls-15{mix-blend-mode:multiply;}.cls-9,.cls-21,.cls-22{opacity:.8;}.cls-9,.cls-16{stroke-width:.55px;}.cls-23{fill:#ffe18d;}.cls-20{opacity:.19;}.cls-20,.cls-24{fill:#e28a2b;}.cls-25,.cls-22{fill:#528077;}.cls-26{fill:#9cc895;}.cls-27{fill:#e494a6;}.cls-10{stroke:#e54567;}.cls-10,.cls-4{opacity:.6;}.cls-28{fill:#ffefd2;}.cls-11{opacity:.7;}.cls-29{isolation:isolate;}.cls-30{fill:#4b4ba9;}.cls-31{fill:#f6d1be;}.cls-12{stroke-width:1.72px;}.cls-12,.cls-13,.cls-16,.cls-17{stroke:#4b4ba9;}.cls-12,.cls-16,.cls-19{stroke-miterlimit:10;}.cls-13{stroke-dasharray:0 0 3.28 3.28;}.cls-32{fill:#034;}.cls-33{clip-path:url(#clippath);}.cls-34{fill:#9dcccf;}.cls-35{fill:#ffc200;}.cls-36{fill:#e2b48f;}.cls-37{fill:#f35c59;}.cls-19{stroke:#2a3333;stroke-width:2.19px;}.cls-38{fill:#fff5e6;}</style><clipPath id="clippath"><circle class="cls-14" cx="158.17" cy="163.2" r="89.75"/></clipPath></defs><g class="cls-29"><g id="_圖層_2"><g id="_第一cut"><g id="global_action1"><path class="cls-20" d="m172.05,286.1c64.59,0,116.95-52.36,116.95-116.96,0-59.62-44.62-108.79-102.29-116.01v-5.82c0-.28-.06-.55-.08-.83,5.07-4.2,8.31-10.54,8.31-17.64,0-12.64-10.25-22.89-22.89-22.89s-22.89,10.25-22.89,22.89c0,5.02,1.63,9.65,4.37,13.42-.04.09-.08.17-.12.26,1.16,1.55,2.53,2.93,4.03,4.15-.01.22-.07.42-.07.65v5.82c-57.66,7.22-102.29,56.39-102.29,116.01,0,64.59,52.36,116.96,116.96,116.96Zm0-274.34c9.43,0,17.08,7.65,17.08,17.08,0,2.95-.75,5.72-2.06,8.14-.07-.06-.13-.12-.19-.17-.74,1.41-1.68,2.69-2.77,3.83-1.82-2.01-4.43-3.29-7.36-3.29h-9.4c-3,0-5.66,1.35-7.49,3.45-3.02-3.08-4.89-7.3-4.89-11.96,0-9.43,7.65-17.08,17.08-17.08Z"/><path class="cls-28" d="m158.17,61.83c-55.99,0-101.37,45.39-101.37,101.37s45.39,101.37,101.37,101.37,101.37-45.39,101.37-101.37-45.39-101.37-101.37-101.37Z"/><path class="cls-6" d="m158.17,46.24c-64.59,0-116.96,52.36-116.96,116.96s52.36,116.96,116.96,116.96,116.96-52.36,116.96-116.96-52.36-116.96-116.96-116.96Zm0,216.01c-54.71,0-99.06-44.35-99.06-99.06s44.35-99.06,99.06-99.06,99.06,44.35,99.06,99.06-44.35,99.06-99.06,99.06Z"/><path class="cls-24" d="m158.17,55.14c-59.68,0-108.06,48.38-108.06,108.06s48.38,108.06,108.06,108.06,108.06-48.38,108.06-108.06-48.38-108.06-108.06-108.06Zm0,207.12c-54.71,0-99.06-44.35-99.06-99.06s44.35-99.06,99.06-99.06,99.06,44.35,99.06,99.06-44.35,99.06-99.06,99.06Z"/><g class="cls-33"><rect class="cls-23" x="21.58" y="39.78" width="273.66" height="273.66"/><circle class="cls-31" cx="94.66" cy="194.95" r="5.59"/><circle class="cls-31" cx="139.41" cy="200.92" r="5.59" transform="translate(-105.14 201.48) rotate(-55.38)"/><circle class="cls-31" cx="117.31" cy="199.52" r="24.76"/><circle class="cls-12" cx="107.42" cy="196.74" r="8.36" transform="translate(-116.67 191.49) rotate(-60.02)"/><circle class="cls-12" cx="126.84" cy="198.96" r="8.36" transform="translate(-107.99 221.87) rotate(-63.05)"/><line class="cls-12" x1="115.68" y1="198.06" x2="118.49" y2="198.48"/><path class="cls-2" d="m104.37,174.93s-11.24,7.17-1.99,10.45c9.36,3.32,12.29-4.6,12.29-4.6,0,0-3.09,7.28,2.78,7.45,5.87.17,6.44-6.4,6.44-6.4,0,0-.16,5,8.04,5.58,8.2.58,6.58-5.96,4.91-8.15-1.67-2.19-7.09-7.04-17.75-7.86-8.86-.68-14.71,3.53-14.71,3.53Z"/><path class="cls-8" d="m113.59,207.46s.65-2.91,2.75-2.75c2.1.16,2.4,3.35,2.4,3.35"/><line class="cls-12" x1="95.02" y1="188.09" x2="100" y2="192.89"/><line class="cls-12" x1="134.76" y1="196.28" x2="142.97" y2="195.4"/><path class="cls-27" d="m102.54,196.91c1.36-4.92,9.21-3.55,8.29,1.66-.04.19-.33.18-.36,0-.83-3.76-5.33-4.38-7.61-1.5-.11.16-.38.04-.32-.15h0Z"/><path class="cls-27" d="m130.27,200.24c-1.07-2.27-3.88-3.49-6.08-2.16-.67.41-1.24,1.12-1.68,1.91-.08.16-.35.09-.34-.09.3-5.28,8.25-4.82,8.45.27,0,.2-.28.26-.35.07h0Z"/><path class="cls-18" d="m109.65,210.73s-.88,4.95,4.95,6.17c5.83,1.22,7.93-4.19,7.93-4.19"/><path class="cls-30" d="m127.43,160.78c11.4-4.48,17.21-11.92,17.21-11.92-.31-4.43-1.65-10.41-4.2-16.3l-2.6-5.2c-5.99-10.44-16.19-18.94-31.56-15.45-26.1,5.92-24.69,45.48-24.69,45.48,28.12,10.08,45.84,3.38,45.84,3.38Z"/><path class="cls-14" d="m140.44,132.56c-.45,1.96-2.16,3.41-4.2,3.5.01.42.01.84,0,1.26,0,.15,0,.31-.01.46-.31,7.52-4.14,14.04-9.76,17.9l.97,5.1c11.4-4.48,17.21-11.92,17.21-11.92-.31-4.43-1.65-10.41-4.2-16.3Z"/><path class="cls-32" d="m105.46,115.51c-.57.24-1.12.49-1.65.75.53-.28,1.09-.53,1.65-.75Z"/><path class="cls-32" d="m107.25,114.88c-.61.19-1.19.39-1.76.61.58-.23,1.16-.43,1.76-.61Z"/><path class="cls-3" d="m108.06,114.64s-.04.01-.05.02c-.2.05-.39.11-.58.17-.06.01-.11.03-.18.05-.61.19-1.19.39-1.76.61,0,0-.02.02-.04.02-.57.24-1.12.49-1.65.75-.21.11-.42.22-.63.32,0,0-.01.02-.02.02-.2.11-.4.23-.6.34-.41.24-.79.48-1.16.74-.72.49-1.39,1.02-2.01,1.58-.21.19-.42.37-.62.57-.2.19-.39.38-.58.58-.18.19-.36.38-.54.58-.3.33-.58.66-.84,1-4.73,5.88-5.8,13.11-6.03,15.42.63-.33,1.36-.52,2.12-.51.05,0,.11,0,.16,0,.32.01.62.06.91.14.01-.1.03-.2.05-.31.19-1.21.62-3.19,1.45-5.46.08-.24.18-.49.28-.75.12-.31.26-.64.4-.96,2.19-4.98,6.4-10.73,14.39-13.01,8.68-2.47,15.67,1.82,20.1,6,.22.22.45.43.66.64.67.66,1.27,1.31,1.8,1.93.66.76,1.21,1.46,1.64,2.04.19-.06.38-.1.58-.13.14-.02.27-.04.41-.05-2.86-5.68-11.52-16.73-27.66-12.34Z"/><path class="cls-1" d="m126.59,156.36c5.62-3.86,9.32-11.06,9.63-18.58,0-.15.01-.31.01-.46,0-.42.01-.84,0-1.26,2.04-.1,3.75-1.54,4.2-3.5.07-.28.1-.56.11-.85.08-1.92-1.05-3.62-2.71-4.35-.5-.22-1.06-.36-1.64-.39-.16,0-.32,0-.48,0-.14.01-.27.03-.41.05-.2.03-.39.07-.58.13-.16.05-.33.11-.49.18-.45.18-.88.45-1.24.78-1.52-.9-3-2.38-3.95-3.43-8.34,5.25-16.77,7.63-29.53,6.91-2.07,5.57-4.25,5.68-5.49,5.14-.03.11-.04.22-.05.31-.29-.08-.6-.13-.91-.14-.05,0-.11,0-.16,0-.76,0-1.49.18-2.12.51-1.39.72-2.38,2.16-2.45,3.84-.1,2.51,1.84,4.63,4.36,4.74.67.03,1.31-.09,1.9-.33,3.15,7.78,10.39,13.38,19.05,13.74.03,0,.05,0,.08,0,0,0,5.21,1.04,12.88-3.04Z"/><path class="cls-11" d="m114.08,145.3s-.21-2.75,1.69-3.17c1.9-.42,3.02,2.32,3.02,2.32"/><path class="cls-2" d="m108.23,139.71c-.2-1.09-1.24-1.81-2.33-1.61-1.09.2-1.81,1.24-1.61,2.33.2,1.09,1.24,1.81,2.33,1.61,1.09-.2,1.81-1.24,1.61-2.33Z"/><path class="cls-2" d="m125.7,136.5c-.2-1.09-1.24-1.81-2.33-1.61-1.09.2-1.81,1.24-1.61,2.33.2,1.09,1.24,1.81,2.33,1.61,1.09-.2,1.81-1.24,1.61-2.33Z"/><path class="cls-3" d="m111.97,150.68c.93,2.8,3.78,4.18,6.61,3.46,2.84-.39,5.17-2.6,4.95-5.57-.03-.2.12-.39.32-.39.17,0,.32.11.35.27,1.18,5.39-5.87,8.66-10.15,6.27-1.47-.84-2.4-2.31-2.74-3.89-.04-.18.08-.36.26-.4.18-.04.35.08.4.25h0Z"/><path class="cls-36" d="m204.4,133.92c0,12.92-10.48,23.4-23.4,23.4s-23.4-10.47-23.4-23.4c0-3.45.75-6.73,2.09-9.69,3.68-8.09,11.84-13.71,21.3-13.71,11.66,0,21.33,8.54,23.11,19.7.19,1.2.29,2.44.29,3.7Z"/><path class="cls-36" d="m162.46,133.56c0,2.68-2.17,4.85-4.85,4.85-2.68,0-4.85-2.17-4.85-4.85s2.17-4.85,4.85-4.85,4.85,2.17,4.85,4.85Z"/><circle class="cls-36" cx="203.38" cy="135.69" r="4.85"/><path class="cls-3" d="m204.11,130.23c-10.41,4.41-11.48-10.27-11.48-10.27,0,0,.05,8.4-10.73,7.91-10.45-.47-9.25-7.77-9.12-8.45-.17.63-2.22,6.71-7.67,7.09-2.47.17-4.22-.95-5.4-2.27,3.68-8.09,11.84-13.71,21.3-13.71,11.66,0,21.33,8.54,23.11,19.7Z"/><path class="cls-10" d="m177.91,142.34s.23-2.57,2.04-2.67c1.82-.1,2.43,2.6,2.43,2.6"/><path class="cls-30" d="m192.36,136.84c-1.61-2.74-5.53-2.74-6.7.37-.05.16-.3.13-.31-.04-.15-4.57,6.73-4.8,7.3-.42.02.17-.22.24-.29.09h0Z"/><path class="cls-30" d="m173.83,134.97c0-1.35-1.09-2.44-2.44-2.44-1.35,0-2.44,1.09-2.44,2.44,0,1.35,1.09,2.44,2.44,2.44,1.35,0,2.44-1.09,2.44-2.44Z"/><path class="cls-2" d="m182.05,149.8c-.41.95-1.17,1.78-2.53,1.78-1.01,0-1.68-.45-2.14-1.08-.99-1.37-.9-3.57-.9-3.57l6.07.16s.04,1.45-.5,2.7Z"/><path class="cls-4" d="m164.4,141.63c0,.39-.32.71-.71.71-.39,0-.71-.32-.71-.71s.32-.71.71-.71.71.32.71.71Z"/><circle class="cls-4" cx="167.15" cy="140.21" r=".71"/><path class="cls-4" d="m167.86,144.45c0,.39-.32.71-.71.71-.39,0-.71-.32-.71-.71s.32-.71.71-.71.71.32.71.71Z"/><path class="cls-4" d="m172.11,141.26c0,.39-.32.71-.71.71s-.71-.32-.71-.71.32-.71.71-.71c.39,0,.71.32.71.71Z"/><path class="cls-4" d="m187.86,142.34c0,.39-.32.71-.71.71-.39,0-.71-.32-.71-.71,0-.39.32-.71.71-.71s.71.32.71.71Z"/><path class="cls-4" d="m194.63,142.34c0,.39-.32.71-.71.71-.39,0-.71-.32-.71-.71s.32-.71.71-.71.71.32.71.71Z"/><path class="cls-4" d="m190.95,140.55c0,.39-.32.71-.71.71s-.71-.32-.71-.71.32-.71.71-.71c.39,0,.71.32.71.71Z"/><circle class="cls-35" cx="164.85" cy="184.83" r="10.37" transform="translate(-54.3 300.19) rotate(-76.03)"/><path class="cls-35" d="m178.28,173.71c.27,4.98-3.55,9.24-8.53,9.51-4.98.27-9.24-3.55-9.51-8.53s3.55-9.24,8.53-9.51c4.98-.27,9.24,3.55,9.51,8.53Z"/><path class="cls-35" d="m180.32,167.9c.21,3.84-2.73,7.11-6.57,7.32-3.84.21-7.11-2.73-7.32-6.57-.21-3.84,2.73-7.11,6.57-7.32,3.84-.21,7.11,2.73,7.32,6.57Z"/><path class="cls-35" d="m183.28,172.92c.35,6.41,5.83,11.33,12.24,10.98,6.41-.35,11.33-5.83,10.98-12.24-.35-6.41-5.83-11.33-12.24-10.98-6.41.35-11.33,5.83-10.98,12.24Z"/><circle class="cls-35" cx="201.04" cy="210.59" r="12.68"/><circle class="cls-35" cx="207.6" cy="192.03" r="12.55" transform="translate(-50.99 306.5) rotate(-66.65)"/><path class="cls-35" d="m215.15,179.67c.31,5.81-4.14,10.77-9.94,11.08-5.81.31-10.77-4.14-11.08-9.94-.31-5.81,4.14-10.77,9.94-11.08,5.81-.31,10.77,4.14,11.08,9.94Z"/><circle class="cls-35" cx="179.39" cy="208.39" r="16.63" transform="translate(-89.99 153.24) rotate(-37.71)"/><path class="cls-35" d="m171.59,193.09c.29,5.41-3.85,10.03-9.26,10.32s-10.03-3.85-10.32-9.26c-.29-5.41,3.85-10.03,9.26-10.32,5.41-.29,10.03,3.85,10.32,9.26Z"/><path class="cls-35" d="m174.57,204.9c.36,6.59-4.7,12.23-11.29,12.59-6.59.36-12.23-4.7-12.59-11.29-.36-6.59,4.7-12.23,11.29-12.59,6.59-.36,12.23,4.7,12.59,11.29Z"/><circle class="cls-35" cx="184.72" cy="185.87" r="26.07" transform="translate(-17.9 19.7) rotate(-5.82)"/><path class="cls-36" d="m208.2,185.32c.21,2.29.08,4.54-.35,6.68-1.96,9.92-10.26,17.78-20.83,18.74-11.35,1.03-21.53-6.22-24.58-16.77-.41-1.41-.69-2.89-.83-4.41-.16-1.77-.12-3.52.11-5.21.09-.72.22-1.44.39-2.14.19-.85.43-1.67.72-2.48,2.93-8.39,10.55-14.73,19.98-15.58,10.73-.97,20.43,5.47,24.03,15.1.29.79.55,1.6.76,2.43.06.22.11.44.16.67.22.97.38,1.97.47,2.98Z"/><path class="cls-36" d="m166.4,188.75c.24,2.67-1.73,5.03-4.4,5.27-2.67.24-5.03-1.73-5.27-4.4-.24-2.67,1.73-5.03,4.4-5.27,2.67-.24,5.03,1.73,5.27,4.4Z"/><path class="cls-36" d="m212.18,186.74c.24,2.67-1.73,5.03-4.4,5.27-2.67.24-5.03-1.73-5.27-4.4-.24-2.67,1.73-5.03,4.4-5.27,2.67-.24,5.03,1.73,5.27,4.4Z"/><path class="cls-15" d="m181.75,194.3s0-3.29,2.29-3.63c2.3-.34,3.39,3.02,3.39,3.02"/><g class="cls-21"><path class="cls-25" d="m196.58,186.52c-1.85-2.58-5.76-2.23-6.64.97-.03.17-.29.16-.31,0-.57-4.54,6.27-5.39,7.23-1.08.04.17-.2.26-.29.12h0Z"/></g><path class="cls-22" d="m178.09,187.31c-.16-1.44-1.46-2.47-2.89-2.3-1.44.16-2.47,1.46-2.3,2.89.16,1.44,1.46,2.47,2.89,2.3,1.44-.16,2.47-1.46,2.3-2.89Z"/><path class="cls-9" d="m180.75,199.86s.9,4.97,5.28,4.74c4.38-.24,4.32-5.65,4.32-5.65"/><path class="cls-35" d="m161.06,179.83s11.23-.56,16.25-7.09c0,0,10.91-1.19,12.75-9.01,0,0-16.8-10.57-29,16.1Z"/><path class="cls-35" d="m184.05,165.91s12.88,16.64,22.76,13.33c0,0-3.42-15.69-18.36-16.3-14.95-.61-4.4,2.97-4.4,2.97Z"/><polygon class="cls-7" points="267.79 143.52 270.56 131.88 232.59 118.95 232.49 119.36 267.79 143.52"/><polygon class="cls-35" points="270.56 131.88 270.66 131.45 267.75 127.32 232.59 118.95 270.56 131.88"/><polygon class="cls-7" points="275.09 112.87 272.32 124.51 232.59 118.95 232.69 118.53 275.09 112.87"/><polygon class="cls-35" points="272.32 124.51 272.22 124.94 267.75 127.32 232.59 118.95 272.32 124.51"/><path class="cls-13" d="m275.27,129.87s11.61,3.23,7.85,19.01c-3.76,15.78-16.9,13.11-16.9,13.11"/><path class="cls-35" d="m65.25,110.4c-2.28-.86-4.83.3-5.69,2.58l-1.09,2.89-2.89-1.09c-2.28-.86-4.83.3-5.69,2.58h0c-.86,2.29.3,4.83,2.58,5.69l11.16,4.2,3.11-8.27,1.09-2.89c.86-2.28-.3-4.83-2.58-5.69Z"/><path class="cls-34" d="m249.09,231.09c1.45-1.96,4.22-2.38,6.18-.93l2.48,1.83,1.83-2.48c1.45-1.96,4.22-2.38,6.18-.93h0c1.96,1.45,2.38,4.22.93,6.18l-7.09,9.59-7.11-5.26-2.48-1.84c-1.96-1.45-2.38-4.22-.93-6.18Z"/><rect class="cls-7" x="205.89" y="73.47" width="35.99" height="35.46" rx="5.52" ry="5.52" transform="translate(-16.3 63.75) rotate(-15.64)"/><path class="cls-37" d="m237.92,74.59l1.19,4.24-34.65,9.7-1.19-4.24c-.82-2.93.89-5.98,3.83-6.8l24.02-6.73c2.93-.82,5.98.89,6.8,3.83Z"/><rect class="cls-35" x="209.06" y="90.69" width="4.3" height="4.3" transform="translate(-17.21 60.4) rotate(-15.64)"/><rect class="cls-35" x="215.16" y="88.98" width="4.3" height="4.3" transform="translate(-16.53 61.98) rotate(-15.64)"/><rect class="cls-35" x="221.26" y="87.27" width="4.3" height="4.3" transform="translate(-15.84 63.56) rotate(-15.64)"/><rect class="cls-35" x="227.36" y="85.57" width="4.3" height="4.3" transform="translate(-15.15 65.14) rotate(-15.65)"/><rect class="cls-35" x="233.45" y="83.86" width="4.3" height="4.3" transform="translate(-14.47 66.73) rotate(-15.65)"/><rect class="cls-35" x="210.79" y="96.84" width="4.3" height="4.3" transform="translate(-18.81 61.09) rotate(-15.64)"/><rect class="cls-35" x="216.88" y="95.13" width="4.3" height="4.3" transform="translate(-18.12 62.67) rotate(-15.64)"/><rect class="cls-35" x="222.98" y="93.43" width="4.3" height="4.3" transform="translate(-17.43 64.25) rotate(-15.64)"/><rect class="cls-35" x="229.08" y="91.72" width="4.3" height="4.3" transform="translate(-16.75 65.83) rotate(-15.64)"/><rect class="cls-35" x="235.18" y="90.01" width="4.3" height="4.3" transform="translate(-16.06 67.42) rotate(-15.64)"/><rect class="cls-35" x="212.51" y="103" width="4.3" height="4.3" transform="translate(-20.4 61.78) rotate(-15.64)"/><rect class="cls-35" x="218.61" y="101.29" width="4.3" height="4.3" transform="translate(-19.72 63.37) rotate(-15.64)"/><path class="cls-35" d="m209.42,73.72h0c-1.06.3-1.67,1.39-1.38,2.45l1.17,4.19c.3,1.06,1.39,1.67,2.45,1.38h0c1.06-.3,1.67-1.39,1.38-2.45l-1.17-4.19c-.3-1.06-1.39-1.67-2.45-1.38Z"/><path class="cls-35" d="m227.57,68.64h0c-1.06.3-1.67,1.39-1.38,2.45l1.17,4.19c.3,1.06,1.39,1.67,2.45,1.38h0c1.06-.3,1.67-1.39,1.38-2.45l-1.17-4.19c-.3-1.06-1.39-1.67-2.45-1.38Z"/><path class="cls-26" d="m248.39,97.94c-1.23-4.39-5.78-6.95-10.17-5.72-4.39,1.23-6.95,5.78-5.72,10.17,1.23,4.39,5.78,6.95,10.17,5.72,4.39-1.23,6.95-5.78,5.72-10.17Z"/><polyline class="cls-19" points="243.86 96.16 239.59 103.76 235.87 101.67"/><path class="cls-7" d="m82.55,207.05c-15.63-11.42-14.24-34.59-14.24-34.59l-30.52,2.65s-2.2,35.54,23.45,39.63l17.2-1.49,4.11-6.2Z"/><line class="cls-17" x1="42.86" y1="181.85" x2="64.47" y2="179.97"/><line class="cls-17" x1="43.75" y1="186.58" x2="65.36" y2="184.7"/><line class="cls-17" x1="45.11" y1="191.26" x2="66.72" y2="189.38"/><line class="cls-17" x1="46.48" y1="195.94" x2="68.09" y2="194.07"/><line class="cls-17" x1="48.8" y1="200.54" x2="70.41" y2="198.67"/><line class="cls-17" x1="51.6" y1="205.1" x2="73.21" y2="203.23"/><line class="cls-17" x1="56.3" y1="209.5" x2="75.33" y2="207.85"/><polygon class="cls-34" points="78.44 213.25 77.61 213.32 74.58 206.11 81.81 206.49 82.55 207.05 78.44 213.25"/><path class="cls-5" d="m42.81,161.41l22.31,6.24c1.92.54,3.65-1.31,2.99-3.19l-5.85-16.76,2.68-9.59h0c.87.24,1.76-.26,2.01-1.13l.09-.32c.24-.87-.26-1.76-1.13-2.01l-6.67-1.87c-.87-.24-1.76.26-2.01,1.13l-.09.32c-.24.87.26,1.76,1.13,2.01h0l-2.68,9.59-13.69,11.29c-1.54,1.27-1.01,3.74.91,4.28Z"/><path class="cls-26" d="m61.63,143.49l-1.33,4.76c-.08.27-.07.57.03.83l5.26,15.08c.15.43-.07.73-.18.84-.1.11-.39.35-.82.23l-20.08-5.61c-.43-.12-.55-.48-.58-.62-.03-.15-.07-.52.28-.81l12.32-10.16c.22-.18.38-.43.46-.7l1.33-4.76,3.32.93Z"/><line class="cls-17" x1="59.99" y1="136.72" x2="63.61" y2="137.74"/><path class="cls-5" d="m56.27,153.04c-.16.56-.73.88-1.29.73s-.88-.73-.73-1.29c.16-.56.73-.88,1.29-.73.56.16.88.73.73,1.29Z"/><path class="cls-5" d="m58.71,157.38c-.25.88-1.15,1.39-2.03,1.14s-1.39-1.15-1.14-2.03c.25-.88,1.15-1.39,2.03-1.14.88.25,1.39,1.15,1.14,2.03Z"/><path class="cls-5" d="m59.19,151.62c-.1.34-.45.54-.79.45-.34-.1-.54-.45-.45-.79.1-.34.45-.54.79-.45s.54.45.45.79Z"/><path class="cls-5" d="m53.71,156.17c-.1.34-.45.54-.79.45s-.54-.45-.45-.79c.1-.34.45-.54.79-.45.34.1.54.45.45.79Z"/><path class="cls-3" d="m140.68,237.8v8.66c7.7,0,13.94,6.24,13.94,13.94s-5.63,13.31-12.8,13.89h16.69c2.99-3.83,4.77-8.65,4.77-13.89,0-12.48-10.12-22.6-22.6-22.6Z"/><path class="cls-35" d="m132.08,265.02h0c.69.26,1.45-.08,1.72-.76l.84-2.2-2.48-.95-.84,2.2c-.26.68.08,1.45.76,1.72Z"/><rect class="cls-30" x="130.13" y="259.57" width="6.89" height="3.07" transform="translate(164.84 552.73) rotate(-159.03)"/><polygon class="cls-34" points="142.56 223.83 151.38 227.21 138.35 261.85 129.53 258.47 142.56 223.83"/><rect class="cls-3" x="144.07" y="222.55" width="6.89" height="3.07" transform="translate(205.06 486.13) rotate(-159.03)"/><rect class="cls-30" x="140.67" y="225.42" width="11.51" height="3.07" transform="translate(201.91 491.28) rotate(-159.03)"/><rect class="cls-30" x="130.35" y="252.98" width="11.51" height="3.07" transform="translate(172.1 540.87) rotate(-159.03)"/><circle class="cls-30" cx="144.98" cy="246.11" r="4.06" transform="translate(-131.56 174.6) rotate(-45)"/><path class="cls-35" d="m146.4,246.11c0-.78-.63-1.42-1.42-1.42s-1.42.63-1.42,1.42.63,1.42,1.42,1.42,1.42-.63,1.42-1.42Z"/><path class="cls-30" d="m117.4,278.28h43.21c1.1,0,1.99-.89,1.99-1.99h0c0-1.1-.89-1.99-1.99-1.99h-43.21c-1.1,0-1.99.89-1.99,1.99h0c0,1.1.89,1.99,1.99,1.99Z"/><rect class="cls-34" x="119.7" y="278.28" width="39.03" height="2.32"/><rect class="cls-35" x="124.71" y="271.97" width="14.29" height="2.32"/><rect class="cls-34" x="122.68" y="269.65" width="18.35" height="2.32"/><path class="cls-17" d="m173.04,92.46l-6.94-2.73c-.05-.06-.25-.34-.47-1.31-.14-.61-.58-1.54-1.33-2.13-.49-.38-1.8-1.09-3.24.58l-.88,1.14c-1.26,1.82-.25,2.9.25,3.28.76.59,1.76.77,2.39.76,1-.03,1.32.1,1.38.13l4.39,6.03"/><path class="cls-34" d="m179.4,94.05l-7.26,9.38.85.65,7.26-9.38-.85-.65Z"/><rect class="cls-34" x="167.47" y="93.9" width="11.86" height="6" transform="translate(-9.36 174.73) rotate(-52.27)"/><path class="cls-30" d="m273.97,219.98l-31.26-4.14c-2.57-.34-4.38-2.7-4.04-5.27l4.97-37.54c.34-2.57,2.7-4.38,5.27-4.04l31.26,4.14-6.2,46.85Z"/><path class="cls-5" d="m246.93,204.79l28.55,3.78-1.12,8.47-28.55-3.78c-2.34-.31-3.98-2.46-3.67-4.79h0c.31-2.34,2.46-3.98,4.79-3.67Z"/><path class="cls-26" d="m248.86,207.59l-.93,7.05-1.07-1.13c-.07-.07-.16-.12-.25-.13s-.19,0-.27.06l-1.33.81.93-7.05,2.92.39Z"/><rect class="cls-35" x="249.55" y="176.74" width="23.63" height="9.93" transform="translate(26.11 -32.73) rotate(7.54)"/><rect class="cls-34" x="58.74" y="71.26" width="67.27" height="11.44" transform="translate(197.81 134.81) rotate(168.94)"/><line class="cls-16" x1="118.68" y1="77.67" x2="118.01" y2="74.27"/><line class="cls-16" x1="117.21" y1="77.96" x2="116.87" y2="76.17"/><line class="cls-16" x1="115.59" y1="78.27" x2="115.25" y2="76.49"/><line class="cls-16" x1="113.97" y1="78.59" x2="113.63" y2="76.81"/><line class="cls-16" x1="112.35" y1="78.9" x2="112.01" y2="77.12"/><line class="cls-16" x1="108.89" y1="79.58" x2="108.54" y2="77.8"/><line class="cls-16" x1="107.27" y1="79.9" x2="106.92" y2="78.12"/><line class="cls-16" x1="105.65" y1="80.22" x2="105.3" y2="78.43"/><line class="cls-16" x1="104.03" y1="80.53" x2="103.68" y2="78.75"/><line class="cls-16" x1="100.56" y1="81.21" x2="100.22" y2="79.43"/><line class="cls-16" x1="98.94" y1="81.53" x2="98.6" y2="79.74"/><line class="cls-16" x1="97.32" y1="81.84" x2="96.98" y2="80.06"/><line class="cls-16" x1="95.7" y1="82.16" x2="95.36" y2="80.38"/><line class="cls-16" x1="92.56" y1="82.77" x2="92.21" y2="80.99"/><line class="cls-16" x1="90.94" y1="83.09" x2="90.59" y2="81.31"/><line class="cls-16" x1="89.32" y1="83.41" x2="88.97" y2="81.63"/><line class="cls-16" x1="87.7" y1="83.72" x2="87.35" y2="81.94"/><line class="cls-16" x1="84.56" y1="84.34" x2="84.21" y2="82.56"/><line class="cls-16" x1="82.94" y1="84.65" x2="82.59" y2="82.87"/><line class="cls-16" x1="81.32" y1="84.97" x2="80.97" y2="83.19"/><line class="cls-16" x1="79.7" y1="85.29" x2="79.35" y2="83.51"/><line class="cls-16" x1="76.39" y1="85.93" x2="76.05" y2="84.15"/><line class="cls-16" x1="74.77" y1="86.25" x2="74.43" y2="84.47"/><line class="cls-16" x1="73.15" y1="86.57" x2="72.81" y2="84.79"/><line class="cls-16" x1="71.53" y1="86.88" x2="71.19" y2="85.1"/><line class="cls-16" x1="67.91" y1="87.59" x2="67.56" y2="85.81"/><line class="cls-16" x1="66.29" y1="87.91" x2="65.94" y2="86.13"/><line class="cls-16" x1="64.67" y1="88.23" x2="64.32" y2="86.44"/><line class="cls-16" x1="63.05" y1="88.54" x2="62.7" y2="86.76"/><line class="cls-16" x1="110.53" y1="79.26" x2="109.87" y2="75.86"/><line class="cls-16" x1="102.39" y1="80.85" x2="101.72" y2="77.45"/><line class="cls-16" x1="94.24" y1="82.45" x2="93.58" y2="79.04"/><line class="cls-16" x1="86.09" y1="84.04" x2="85.43" y2="80.64"/><line class="cls-16" x1="77.95" y1="85.63" x2="77.28" y2="82.23"/><line class="cls-16" x1="69.8" y1="87.22" x2="69.14" y2="83.82"/><path class="cls-23" d="m119.99,71.58c-.15-.75.34-1.47,1.09-1.61.75-.15,1.47.34,1.61,1.09.15.75-.34,1.47-1.09,1.61-.75.15-1.47-.34-1.61-1.09Z"/><polygon class="cls-35" points="134.38 104.55 118.23 108.8 112.81 88.21 133.4 82.79 137.65 98.94 134.38 104.55"/><polygon class="cls-37" points="133.21 100.11 137.65 98.94 134.38 104.55 133.21 100.11"/><polygon class="cls-5" points="66.48 262.48 63.34 264.17 47.01 233.81 44.43 235.2 44.37 235.11 43.57 223.65 52.68 230.64 52.73 230.73 50.15 232.12 66.48 262.48"/><rect class="cls-2" x="54.96" y="230.91" width="3.57" height="34.48" transform="translate(-110.76 56.47) rotate(-28.27)"/><polygon class="cls-37" points="70.69 264.11 62.38 268.58 44.43 235.2 47.01 233.81 63.34 264.17 66.48 262.48 50.15 232.12 52.73 230.73 70.69 264.11"/><rect class="cls-14" x="54.96" y="230.91" width="3.57" height="34.48" transform="translate(-110.78 56.49) rotate(-28.27)"/><polygon class="cls-2" points="46.77 226.1 43.85 227.67 43.57 223.65 46.77 226.1"/><line class="cls-14" x1="60.76" y1="265.56" x2="69.07" y2="261.09"/><rect class="cls-35" x="61.01" y="263.12" width="9.43" height="3.43" transform="translate(-117.62 62.73) rotate(-28.28)"/></g><path class="cls-6" d="m158.17,0c-12.64,0-22.89,10.25-22.89,22.89s10.25,22.89,22.89,22.89,22.89-10.25,22.89-22.89S170.82,0,158.17,0Zm0,39.97c-9.43,0-17.08-7.65-17.08-17.08s7.65-17.08,17.08-17.08,17.08,7.65,17.08,17.08-7.65,17.08-17.08,17.08Z"/><path class="cls-24" d="m173,30.86c-2.86,5.42-8.55,9.11-15.11,9.11s-11.87-3.46-14.82-8.59c-1.56,1.41-2.78,3.19-3.54,5.19,4.17,5.59,10.84,9.21,18.36,9.21s14.8-3.97,18.92-10.01c-.87-1.93-2.18-3.61-3.81-4.92Z"/><path class="cls-6" d="m153.47,31.39h9.4c5.5,0,9.97,4.47,9.97,9.97v10.48h-29.34v-10.48c0-5.5,4.47-9.97,9.97-9.97Z"/><circle class="cls-6" cx="18.22" cy="163.2" r="18.22"/><path class="cls-38" d="m33.93,156.59c-2.35.33-2.7.64-3.61,3.38-1.06,3.2-3.7,11.59-5.59,17.72h-1.27c-1.73-5.14-3.91-11.32-5.68-16.28-1.9,5.62-3.82,11.19-5.53,16.28h-1.25c-1.61-5.56-3.56-11.93-5.37-17.79-.86-2.68-1.25-3.08-3.4-3.31v-.99h8.58v.99c-2.48.26-2.55.65-2.08,2.34,1.27,4.39,2.57,8.74,3.9,13.26,1.81-5.21,3.75-10.88,5.42-16.31h1.2c1.87,5.58,3.74,10.8,5.66,16.34,1.37-4.29,3.22-10.18,3.91-12.9.5-1.94.22-2.41-2.63-2.72v-.99h7.74v.99Z"/><circle class="cls-6" cx="158.31" cy="22.97" r="18.22"/><path class="cls-38" d="m170.27,13.12c-2.12.24-2.81.59-2.91,2.12-.05,1.11-.12,2.47-.12,5.54v13.38h-1.38l-14.24-17.34v8.21c0,2.99.09,4.46.17,5.43.08,1.66.89,2.21,3.31,2.4v.99h-8.15v-.99c2.04-.17,2.85-.67,3-2.29.11-1.09.17-2.54.17-5.56v-8.41c0-.97-.07-1.54-.67-2.3-.63-.84-1.35-1.02-2.94-1.18v-.99h5.28l13.91,16.45v-7.8c0-3.07-.06-4.45-.16-5.49-.1-1.49-.83-2-3.52-2.17v-.99h8.25v.99Z"/><circle class="cls-6" cx="296.78" cy="163.06" r="18.22"/><path class="cls-38" d="m306.38,170.18c-.19.88-1.1,4.39-1.43,5.38h-16.44v-.98c3.1-.25,3.32-.52,3.32-3.27v-13.12c0-2.95-.37-3.12-2.84-3.35v-.99h10.34c3.21,0,4.49-.03,4.9-.07.03.79.17,3.34.31,5.17l-1.06.17c-.3-1.14-.68-1.96-1.08-2.64-.55-1.02-1.25-1.25-3.21-1.25h-2.99c-1.08,0-1.16.09-1.16,1.09v7.31h3.63c2.39,0,2.59-.5,3.01-2.79h1.08v6.99h-1.08c-.45-2.42-.72-2.76-3.04-2.76h-3.6v6.49c0,2.33.61,2.62,2.36,2.66h2.98c2.01,0,2.37-.29,3.11-1.16.67-.75,1.37-2.1,1.85-3.12l1.04.27Z"/><circle class="cls-6" cx="159.12" cy="300.72" r="18.22"/><path class="cls-38" d="m163.23,296.5c-.51-1.91-1.32-3.84-4.04-3.84-2.16,0-3,1.57-3,3.1,0,1.93,1.24,2.94,3.68,4.19,3.42,1.75,5.01,3.12,5.01,5.9,0,3.12-2.68,5.47-6.5,5.47-1.76,0-3.3-.49-4.52-.95-.22-.79-.6-2.95-.8-4.48l.94-.24c.58,1.92,1.92,4.57,4.91,4.57,2.03,0,3.27-1.39,3.27-3.27,0-2.14-1.16-3.05-3.7-4.43-3.04-1.65-4.8-3.05-4.8-5.81s2.19-5.1,6.12-5.1c1.69,0,3.28.44,3.89.55.12,1.05.25,2.27.48,4.15l-.94.19Z"/></g></g></g></g></svg>