<?xml version="1.0" encoding="UTF-8"?><svg xmlns="http://www.w3.org/2000/svg" xmlns:xlink="http://www.w3.org/1999/xlink" viewBox="0 0 250 338.41"><defs><style>.cls-1{fill:#00427a;}.cls-2{fill:url(#_未命名漸層_11);}.cls-3{fill:#f7c453;}.cls-4{fill:url(#_未命名漸層_3-2);}.cls-5,.cls-6{fill:#efaf3f;}.cls-7,.cls-8{fill:#fff;}.cls-9,.cls-10,.cls-11,.cls-12,.cls-13,.cls-14{fill-rule:evenodd;}.cls-9,.cls-15{fill:#ffe6ca;}.cls-10,.cls-16{fill:#1cadbd;}.cls-11{fill:#0e7f8a;}.cls-17{fill:#d17700;}.cls-6{mix-blend-mode:multiply;opacity:.21;}.cls-18{fill:#004680;}.cls-19{fill:#e28a2b;}.cls-20{fill:#1991a3;}.cls-12{fill:#d6f5ff;}.cls-21{fill:url(#_未命名漸層_5-2);}.cls-22{fill:#faeecd;}.cls-23{fill:url(#_未命名漸層_3);}.cls-24{fill:#ff8b70;}.cls-8{opacity:.3;}.cls-25{fill:#575756;}.cls-26{fill:url(#_未命名漸層_10);}.cls-27{clip-path:url(#clippath-2);}.cls-28{fill:#b2b2b2;}.cls-29{isolation:isolate;}.cls-30{fill:url(#_未命名漸層_26);}.cls-31{fill:url(#_未命名漸層_27-2);}.cls-32{fill:url(#_未命名漸層_23-5);}.cls-33{fill:url(#_未命名漸層_5-3);}.cls-34{fill:url(#_未命名漸層_28-3);}.cls-35{fill:#009fe3;}.cls-36{fill:#66a347;}.cls-37{fill:url(#_未命名漸層_17);}.cls-38{fill:#79d9d6;}.cls-39{fill:#ab9d90;}.cls-40{fill:#ffe499;}.cls-41{clip-path:url(#clippath-4);}.cls-42{fill:#84c457;}.cls-43{fill:#9d9d9c;}.cls-44{fill:#fae5aa;}.cls-45{fill:#ffd780;}.cls-46{fill:url(#_未命名漸層_27);}.cls-47{fill:#ffc792;}.cls-48{fill:#52873d;}.cls-49{fill:#ffd0a4;}.cls-50{fill:url(#_未命名漸層_26-3);}.cls-51{fill:#dadada;}.cls-52{fill:#94e6ff;}.cls-53{fill:url(#_未命名漸層_23);}.cls-54{fill:url(#_未命名漸層_5);}.cls-55{fill:#b2e866;}.cls-56{fill:#d9cdc8;}.cls-57{fill:#735d5a;}.cls-58{fill:#3c3c3b;}.cls-59{fill:#8f8378;}.cls-60{fill:#706f6f;}.cls-61{clip-path:url(#clippath-3);}.cls-61,.cls-62,.cls-63{fill:none;}.cls-64{fill:#ffdc8f;}.cls-65{fill:#878787;}.cls-66{fill:#81bf55;}.cls-67{clip-path:url(#clippath);}.cls-68{fill:url(#_未命名漸層_26-2);}.cls-69{fill:url(#_未命名漸層_26-5);}.cls-70{fill:#f2a900;}.cls-71{fill:#0c6c75;}.cls-72{fill:#baf1f4;}.cls-73{fill:url(#_未命名漸層_28-2);}.cls-74{fill:url(#_未命名漸層_28);}.cls-13{fill:#f2f2f2;}.cls-14{fill:#fac825;}.cls-75{fill:#1d71b8;}.cls-76{fill:url(#_未命名漸層_23-2);}.cls-77{fill:#9e9185;}.cls-78{fill:url(#_未命名漸層_23-3);}.cls-79{fill:url(#_未命名漸層_9);}.cls-80{mask:url(#mask);}.cls-63{clip-path:url(#clippath-1);}.cls-81{fill:#168594;}.cls-82{fill:url(#_未命名漸層_25);}.cls-83{fill:#d9cac4;}.cls-84{fill:url(#_未命名漸層_23-4);}.cls-85{fill:#5accc8;}.cls-86{fill:#c6c6c6;}.cls-87{fill:#fc8e74;}.cls-88{fill:#fec955;}.cls-89{fill:#8ae6e0;}.cls-90{fill:url(#_未命名漸層_26-4);}.cls-91{fill:url(#_未命名漸層_6);}.cls-92{fill:#ffd2a8;}.cls-93{fill:#ededed;}</style><clipPath id="clippath"><circle class="cls-62" cx="125" cy="125" r="92.41"/></clipPath><linearGradient id="_未命名漸層_6" x1="150.54" y1="2226.16" x2="150.54" y2="2388.46" gradientTransform="translate(0 2359.37) scale(1 -1)" gradientUnits="userSpaceOnUse"><stop offset="0" stop-color="#1991a3"/><stop offset=".2" stop-color="#1ba6b3"/><stop offset=".47" stop-color="#1dbac4"/><stop offset=".74" stop-color="#1ec7ce"/><stop offset="1" stop-color="#1ecbd1"/></linearGradient><linearGradient id="_未命名漸層_5" x1="192.15" y1="2278.66" x2="192.15" y2="2384.82" gradientTransform="translate(0 2359.37) scale(1 -1)" gradientUnits="userSpaceOnUse"><stop offset="0" stop-color="#268399"/><stop offset=".17" stop-color="#2394a6"/><stop offset=".46" stop-color="#1fa8b5"/><stop offset=".73" stop-color="#1db5bf"/><stop offset="1" stop-color="#1cb9c2"/></linearGradient><linearGradient id="_未命名漸層_5-2" x1="71.8" y1="2279.68" x2="71.8" y2="2344.19" xlink:href="#_未命名漸層_5"/><linearGradient id="_未命名漸層_5-3" x1="-21.39" y1="2272.98" x2="-21.39" y2="2327.98" xlink:href="#_未命名漸層_5"/><linearGradient id="_未命名漸層_3" x1="203.65" y1="2249.01" x2="224.5" y2="2249.01" gradientTransform="translate(0 2359.37) scale(1 -1)" gradientUnits="userSpaceOnUse"><stop offset="0" stop-color="#eb816f"/><stop offset="1" stop-color="#d45944"/></linearGradient><linearGradient id="_未命名漸層_23" x1="33.82" y1="2182" x2="33.82" y2="2204.28" gradientTransform="translate(0 2359.37) scale(1 -1)" gradientUnits="userSpaceOnUse"><stop offset="0" stop-color="#f2a178"/><stop offset="1" stop-color="#ffd0a4"/></linearGradient><clipPath id="clippath-1"><polygon class="cls-62" points="-62.18 -74.88 -61.18 -74.88 -62.18 -73.88 -62.18 -74.88"/></clipPath><clipPath id="clippath-2"><polygon class="cls-63" points="-64.18 -76.88 -65.18 -76.88 -64.18 -77.88 -64.18 -76.88"/></clipPath><clipPath id="clippath-3"><polygon class="cls-62" points="-62.18 -74.88 -61.18 -74.88 -62.18 -73.88 -62.18 -74.88"/></clipPath><clipPath id="clippath-4"><polygon class="cls-61" points="-64.18 -76.88 -65.18 -76.88 -64.18 -77.88 -64.18 -76.88"/></clipPath><linearGradient id="_未命名漸層_9" x1="20.62" y1="2176.62" x2="20.62" y2="2144.5" gradientTransform="translate(0 2359.37) scale(1 -1)" gradientUnits="userSpaceOnUse"><stop offset="0" stop-color="#fff"/><stop offset="1" stop-color="#fff"/><stop offset="1" stop-color="#000"/></linearGradient><mask id="mask" x="-65.18" y="-77.88" width="94.8" height="274.49" maskUnits="userSpaceOnUse"><g class="cls-41"><path class="cls-79" d="m29.42,183.72c-.2-.5-.7-1.2-1.1-1.5-.7-.6-3.3-3-4-3.6-.6-.6-1.7-1.1-2-1.9-.3-.6-.3-1.8-1.1-2.2-.6-.3-1.5-.2-2.2-.3-2-.1-3.6-.3-5.4-1.1-.4-.2-1.1-.8-1.6-.5-.4.3-.4,1.9-.4,2.3.1,1.8,1.5,3,2.8,4,2.7,2.2,5.8,4.9,9.2,6-.5,1.1-2.4,1.8-3.2,2.7-1.1,1.3-2,2.7-3,4-.6.7-2.6,2.1-2.7,3.1,0,.6,1,1.4,1.4,1.6.7.4,1.4.3,2.2.2.8-.2.5-.2,1-.9.5-.6,1.1-1,1.7-1.5,1.1-.9,2.1-2.1,3-3.3,1-1.3,2.6-1.9,3.6-3.1.5-.6,1.1-1.2,1.5-1.9.6-.6.6-1.2.3-2.1Z"/></g></mask><linearGradient id="_未命名漸層_10" x1="20.62" y1="2176.62" x2="20.62" y2="2144.5" gradientTransform="translate(0 2359.37) scale(1 -1)" gradientUnits="userSpaceOnUse"><stop offset="0" stop-color="#0064b8"/><stop offset="1" stop-color="#00427a"/><stop offset="1" stop-color="#0071c4"/></linearGradient><linearGradient id="_未命名漸層_11" x1="25.33" y1="2185.35" x2="25.33" y2="2202.18" gradientTransform="translate(0 2359.37) scale(1 -1)" gradientUnits="userSpaceOnUse"><stop offset="0" stop-color="#f6f6f6"/><stop offset="1" stop-color="#c6c6c6"/></linearGradient><linearGradient id="_未命名漸層_26" x1="32.82" y1="2170.11" x2="32.82" y2="2193.23" gradientTransform="translate(0 2359.37) scale(1 -1)" gradientUnits="userSpaceOnUse"><stop offset="0" stop-color="#f2a178"/><stop offset="1" stop-color="#ffd5af"/></linearGradient><linearGradient id="_未命名漸層_23-2" x1="31.75" y1="2203.69" x2="31.75" y2="2207.69" xlink:href="#_未命名漸層_23"/><linearGradient id="_未命名漸層_27" x1="203.2" y1="2162.41" x2="239.81" y2="2162.41" gradientTransform="translate(0 2359.37) scale(1 -1)" gradientUnits="userSpaceOnUse"><stop offset="0" stop-color="#d45944"/><stop offset="1" stop-color="#eb816f"/></linearGradient><linearGradient id="_未命名漸層_26-2" x1="9103.71" y1="2202.32" x2="9103.71" y2="2191.94" gradientTransform="translate(9323.76 2359.37) rotate(-180)" xlink:href="#_未命名漸層_26"/><linearGradient id="_未命名漸層_28" x1="-11367.29" y1="2178.82" x2="-11364.78" y2="2185.69" gradientTransform="translate(11582.84 2359.37) scale(1 -1)" gradientUnits="userSpaceOnUse"><stop offset="0" stop-color="#f6f6f6"/><stop offset="1" stop-color="#c6c6c6"/></linearGradient><linearGradient id="_未命名漸層_17" x1="9101.67" y1="2191.29" x2="9106.67" y2="2194.12" gradientTransform="translate(9323.76 2359.37) rotate(-180)" gradientUnits="userSpaceOnUse"><stop offset="0" stop-color="#f2a178"/><stop offset="1" stop-color="#ffd5af"/></linearGradient><linearGradient id="_未命名漸層_23-3" x1="137.2" y1="2159.96" x2="137.2" y2="2184.44" xlink:href="#_未命名漸層_23"/><linearGradient id="_未命名漸層_3-2" x1="132.55" y1="2184.07" x2="142.15" y2="2176.85" xlink:href="#_未命名漸層_3"/><linearGradient id="_未命名漸層_26-3" x1="121.95" y1="2168.64" x2="137.08" y2="2168.64" xlink:href="#_未命名漸層_26"/><linearGradient id="_未命名漸層_23-4" x1="134.66" y1="2203.95" x2="134.66" y2="2208.46" xlink:href="#_未命名漸層_23"/><linearGradient id="_未命名漸層_28-2" x1="128.74" y1="2187.19" x2="132.84" y2="2198.76" gradientTransform="translate(0 2359.37) scale(1 -1)" xlink:href="#_未命名漸層_28"/><linearGradient id="_未命名漸層_23-5" x1="142.94" y1="2183.14" x2="142.94" y2="2205.8" xlink:href="#_未命名漸層_23"/><linearGradient id="_未命名漸層_26-4" x1="140.42" y1="2173.9" x2="140.42" y2="2195.46" xlink:href="#_未命名漸層_26"/><linearGradient id="_未命名漸層_25" x1="78.72" y1="2176.46" x2="88.93" y2="2176.46" gradientTransform="translate(0 2359.37) scale(1 -1)" gradientUnits="userSpaceOnUse"><stop offset="0" stop-color="#f2a57e"/><stop offset="1" stop-color="#ffd2a8"/></linearGradient><linearGradient id="_未命名漸層_26-5" x1="77.89" y1="2199.23" x2="78.42" y2="2189.34" xlink:href="#_未命名漸層_26"/><linearGradient id="_未命名漸層_27-2" x1="62.49" y1="2162.35" x2="106.25" y2="2162.35" xlink:href="#_未命名漸層_27"/><linearGradient id="_未命名漸層_28-3" x1="77.04" y1="2172.48" x2="77.04" y2="2185.01" gradientTransform="translate(0 2359.37) scale(1 -1)" xlink:href="#_未命名漸層_28"/></defs><g class="cls-29"><g id="_圖層_2"><g id="_第一cut"><g id="global_action3"><path class="cls-5" d="m250,125c0,69.04-125,202.6-125,202.6,0,0-125-133.56-125-202.6S55.96,0,125,0s125,55.96,125,125Z"/><circle class="cls-19" cx="125" cy="125" r="101.2"/><path class="cls-6" d="m198.25,331.62c0,3.75-33.69,6.79-75.25,6.79s-75.25-3.04-75.25-6.79,33.69-6.79,75.25-6.79,75.25,3.04,75.25,6.79Z"/><path class="cls-72" d="m218.32,125c0,51.54-41.78,93.32-93.32,93.32S31.68,176.54,31.68,125,73.46,31.68,125,31.68s93.32,41.78,93.32,93.32Z"/><g class="cls-67"><rect class="cls-38" x="-121.48" y="-87.08" width="519.2" height="344.1"/><path class="cls-91" d="m263.02,13.52c-14.9,0-20.2,32.9-37.2,32.9-18,0-43.4-75.5-68.3-75.5S117.12,44.02,92.42,44.02c-14.3,0-31.2-38.6-50-38.6S9.32,57.52-14.48,57.52c-10.9,0-15.6-9.9-26.8-9.9-15.5,0-26.2,21.5-37.7,54.8-8.2,23.5,6.8,30.8,29.8,30.8,29.8,0,315.7-1.1,376.4-1.1,38.3,0,57.3-8.2,54.9-21.8-2.3-13.1-10.9-28.6-15.8-37-14-23.8-20.9-33-30.7-33-10.7,0-14.3,14.9-26.8,14.9-16.4,0-29.8-41.7-45.8-41.7Z"/><path class="cls-71" d="m323.42,102.12c-.3,4.2-13.4,2.8-23.1,4.2-7.4,1.1-27.3,7.3-37.5,6.7-21-1.4-34-8.5-32.4-12.4,2.8-6.7,15.1,2.8,30.1.6,6.3-.9,8.8-4.2,12.1-4.9,4.8-1,8.6,1.4,13.8,0,2.9-.8,8.9-4.9,11.6-4.6,7,.9,6.2,5.8,14.1,5,9.1-1,11.5,2.5,11.3,5.4Z"/><path class="cls-12" d="m236.02,63.82c2.1-1,6.7-2.7,7.3-2.9.6-.2,2,.2,2.9.2l1-.3v-.1c0-.9.7-1.6,1.6-1.6h.1l3.1-11.4c.1-.2.2-.3.4-.2.2.1.3.3.3.6-.2,2.3-1,7.1-1.2,7.8-.2.6-1.2,1.7-1.6,2.4l-.3,1c.5.3.8.8.8,1.4,0,.3-.1.6-.2.8l8.3,8.3c.1.1.1.4,0,.5s-.4.1-.7-.1c-1.9-1.4-5.7-4.4-6.2-4.9-.4-.4-.9-1.8-1.3-2.6l-.7-.7c-.1,0-.2.1-.3.1l1,51.5h-3.1l1-51.5c-.3-.1-.6-.4-.8-.7l-11.4,3.1c-.2.1-.4-.1-.4-.2-.1-.1,0-.3.4-.5Z"/><polygon class="cls-81" points="221.52 80.32 218.32 98.52 224.62 98.52 221.52 80.32"/><polygon class="cls-81" points="224.92 83.22 221.52 102.92 228.32 102.92 224.92 83.22"/><polygon class="cls-81" points="241.82 86.92 238.52 106.62 245.12 106.62 241.82 86.92"/><rect class="cls-7" x="-121.48" y="136.72" width="519.2" height="120.3"/><path class="cls-54" d="m225.82,46.42c-18,0-43.4-75.5-68.3-75.5-12.1,0,1.9,11.3,13.3,19.6,4.8,3.5,4.4,8.8-2.4,11.1-8.9,2.9-6.7,9.2,3.4,15.6,11.5,7.4,22.1,13.5,21.3,19.7-.9,6.1-7.5,4.5-7.9,9.8-.4,4.8,14.3,9.4,18.9,24,3,9.5,11.7,7.4,12.2,0,.3-4.8,1.4-9.1,8.1-12.8,7.6-4.2,10.4-11.5,1.4-11.5Z"/><path class="cls-71" d="m191.32,79.82c-.8,3.3-10.2-.3-22,1-11.7,1.3-18.7,6.4-29,9-11.8,3-25.5,4.7-25.8,1.5-.4-3.7,4.4-3,7.6-4.4,2.4-1.1,1.7-5,4.6-5.5,3.5-.6,8.9,1.3,11.6-.5,2.5-1.7,3.4-7.5,6.5-9.2,5.9-3.1,10.5.3,14.3.4,6.1.2,11-2.4,16.1-1.3,2.9.6,4.5,3.3,6.9,3.9,1.6.4,3.7-.4,5.7.2,2.3.6,3.9,3,3.5,4.9Z"/><polygon class="cls-7" points="161.12 83.82 149.22 83.82 149.22 61.12 155.12 53.62 161.12 61.12 161.12 83.82"/><rect class="cls-52" x="161.12" y="61.12" width="14.9" height="22.6"/><polygon class="cls-24" points="155.12 53.62 170.12 53.62 176.02 61.12 161.12 61.12 155.12 53.62"/><rect class="cls-16" x="163.92" y="65.82" width="2.2" height="7.9"/><rect class="cls-16" x="168.62" y="65.82" width="2.2" height="7.9"/><path class="cls-71" d="m-9.88,111.22c-16.1,4.1-37.7.8-51.9.8-30.6,0-56.1,21.7-59.7,18.6v-17.1c.5-1.3,1.3-2.5,2.2-3.6,1.9-2.2,6.9-2,9.7-3.7,4.1-2.7,5.7-7.7,10.8-10.6,8.9-5,14.2,1,22.7,1,3.5,0,7.6-4.4,12.1-5.7,7.4-2.1,14.5,4.7,20.7,5.1,8,.6,9.1-.6,15.7-3.1,8-3,17.1,4.1,26.5,1.6,18.3-4.9,23.7-16.2,27.3-12.2,3.2,3.4-15.4,23.7-36.1,28.9Z"/><path class="cls-55" d="m377.62,142.02c6.7,4.9-5.8,7.4-24.4,7.4-77.2,0-347.4-2.6-418.4-2.6-14.5,0-55.6.2-55.6-11.9,0-10.4,32.8-39.6,72.1-30.5,45.7,10.6,54-6.8,77-24.3,7.9-6,20-18,49.8,2.9,12,8.4,27.4,8.2,33.7,8.2,26.5,0,42.4-14.7,65-14.7,18.2,0,45.5,21.5,62.7,28.4,25.8,10.4,46.8-3.8,72.5-3.8,20.8,0,63.1,13.4,85.8,24.7v12.7c-14.5-1.8-32.5-5.4-20.2,3.5Z"/><path class="cls-21" d="m92.42,44.02c-14.3,0-31.2-38.6-50-38.6-3.9,0-2.6,3.8,3.3,7.3,7.7,4.5,13.9,11.6,4.5,11.6-7.4,0-5.4,5.4-2.1,7.4,7.8,4.7,19.8,7.5,18.8,11.5-.8,3.1-13.2,4.4-2.9,14.2,10,9.5,32.8,19.5,30.4,5.8-2.3-13.1,22.7-19.2-2-19.2Z"/><path class="cls-33" d="m-10.88,74.42c-9.5-1.6-11.7-7.5-17.7-15.1-7.6-9.7-20.3-6.6-15-11.6.7-.1,1.5-.2,2.2-.2,11.2,0,15.9,9.9,26.8,9.9,4.5,0,8.6-1.8,12.5-4.8h0c4.7,1.3-10,9.5-2.3,11.1,13.4,2.8,3.2,12.3-6.5,10.7Z"/><path class="cls-7" d="m165.52,143.52c0,.3-13.7.6-33.8.8-16,.2-36.7-.1-53.1-.1-36.9,0-66.9-.5-66.9-1.1s30.1-.5,67-.5,86.8.3,86.8.9Z"/><path class="cls-66" d="m377.62,142.02c6.7,4.9-5.8,7.4-24.4,7.4-77.2,0-347.4-2.6-418.4-2.6-14.5,0-55.6.2-55.6-11.9,0-10.4,35.3-40.5,73.2-26.7,52.3,19,58.2-1.1,79.1-21.1,7.2-6.8,19.3-22.1,47.1-1.6,16.2,11.9,27.8,13.3,41.4,12.2,26.4-2.1,34.5-18.1,57.1-19,25.8-1,47.8,23.8,64.7,31.5,33.9,15.5,45-1.2,80.3-3.2,20.5-1.2,55.6,10.5,75.7,20.1v11.4c-14.5-1.8-32.5-5.4-20.2,3.5Z"/><polygon class="cls-62" points="47.92 121.92 77.02 121.92 65.92 112.82 59.12 131.02 47.92 121.92"/><path class="cls-55" d="m375.72,140.62h-5.2c-8.5,0-15.2-3-22.2-6.1-7.7-3.5-15.7-7-27-7H89.22c-15.4,0-22.3-4.5-29.8-9.3-8-5.2-16.3-10.5-37-10.5H-8.88v-3h31.4c21.6,0,30.6,5.8,38.6,11,7,4.5,13.7,8.8,28.1,8.8h232.1c12,0,20.6,3.9,28.2,7.3,6.7,3,13.1,5.9,21,5.9h3c0,.6.7,1.5,2.2,2.9Z"/><path class="cls-22" d="m206.12,86.82c-4.2-2.3-8.3-4.3-12.3-6l-.1.1c8.5,3.9,11.1,8.5,10.5,11-.5,2.4-3.6,4-7.5,4h-47.5c-8.7,0-13.1,2.2-17.4,4.3-4.5,2.2-9.2,4.5-19.7,4.5H-47.58c8.8,2,16.2,2.9,22.6,3H112.22c11.2,0,16.2-2.4,21-4.8,4.1-2,8-3.9,16.1-3.9h47.5c5.4,0,9.7-2.5,10.4-6.4.2-1.7.1-3.6-1.1-5.8Z"/><path class="cls-36" d="m97.62,108.12c-1.1-1.7-1.2-3.5-.7-5.3.9-3.2,1.1-6.3-2.1-9.5-1.6-1.6-4.4-3.2-5.7-1-.8,1.4.4,4.9.3,7.4,0,2.3-1.8,4.2-2.9,5.5-4.1,4.6-4,15.3,4.7,16.7,5.5,1,11.6-5.6,6.4-13.8Z"/><path class="cls-48" d="m97.62,108.12c-1.1-1.7-1.2-3.5-.7-5.3.9-3.2,1.1-6.3-2.1-9.5-1.4-1.4-3.5-2.7-5-1.8,2.8.6,4.4,4,5.1,7.3.5,2.4-1.9,5.3-2.9,8.1-1.2,3.6,2.7,7.7-2.3,9.3-1.5.5-2.4,2.2-2.5,4.1,1,.8,2.3,1.4,3.9,1.6,5.6,1,11.7-5.6,6.5-13.8Z"/><path class="cls-36" d="m111.62,92.12c.7-6-5.6-11.1-7.5-10.4-2.7,1-2.6,4.6-2.3,8.4.1,1.9.5,3.6-.3,5.4-.7,1.6-2,3-2,4.9,0,1.7,1.9,3.4,1.1,5-.7,1.3-2.2,3.3-2.9,4.7-1.2,2.6-1.6,5.6.7,8,4.4,4.5,15.7,6.6,16.7-1,.5-4.2-1.3-8.6-3.5-12.3-1-1.7-2.3-3.6-2.1-5.6.1-2.4,1.8-4.9,2.1-7.1Z"/><path class="cls-48" d="m111.52,104.72c-1-1.7-2.3-3.6-2.1-5.6.2-2.3,1.9-4.8,2.2-7,.7-5.9-5.6-11-7.5-10.4,1.6.6,6.2,3.5,4.3,8.2-.7,1.8-1.8,2.9-2.5,6.2-.8,4.5,5.2,9.9,3.2,14.6-2.4,5.8-11.8,3.1-10.8,7.3,4.4,4.5,15.7,6.6,16.7-1,.6-4.3-1.3-8.6-3.5-12.3Z"/><path class="cls-45" d="m65.52,136.72c-13.8-14.5-43.5-24.4-77.9-24.4s-64.1,10-77.9,24.4H65.52Z"/><path class="cls-88" d="m65.52,136.72c-13.3-13.1-41.7-22.2-74.7-22.2s-61.4,9.1-74.7,22.3H65.52v-.1Z"/><path class="cls-40" d="m25.22,136.72h-2.2c-1.8-4.9-5-9.7-7.9-13.8-2.8-4-6.3-7.5-10.5-9.8,1.6.2,3.1.3,4.6.5h0c2.6,2,4.9,4.4,6.9,7.1,2,2.7,3.7,5.6,5.4,8.5,1.4,2.5,2.7,4.9,3.7,7.5Z"/><path class="cls-40" d="m33.42,136.72h-2.2c-1.6-4.5-3.8-8.5-6.5-12.5-2.7-3.9-6-7.5-10.1-9.8,1.7.3,3.4.6,5,.9h0c2.3,1.9,4.4,4.1,6,6.5,3.2,4.8,6,9.4,7.8,14.9Z"/><path class="cls-40" d="m42.62,136.72h-2.3c-3-8-8.7-14.9-15.3-20.2,1.6.4,3.1.8,4.6,1.2,5.8,5.3,10.5,11.7,13,19Z"/><path class="cls-40" d="m51.82,136.72h-2.3c-1.4-3.3-3-6.4-5-9.3-1.3-1.8-3.2-3.1-4.6-4.9-.8-1-1.8-1.8-2.8-2.5,1.8.6,3.5,1.3,5.2,2,1.2,1.2,2.6,2.3,3.7,3.7,2.4,3.4,4.3,7.2,5.8,11Z"/><path class="cls-40" d="m60.12,136.72h-2.4c-1.2-2.2-2.7-4.3-4.2-6.4-1.5-2-3-3.9-4.9-5.5,2,1,3.9,2,5.7,3.1h0c.2.2.4.5.6.7,2,2.7,3.8,5.3,5.2,8.1Z"/><path class="cls-40" d="m6.62,136.72h-2.3c-3.9-9.5-9.3-18.6-17.9-24.4h3.6c7.8,6.2,12.9,15.2,16.6,24.4Z"/><path class="cls-40" d="m15.82,136.72h-2.3c-1.9-4.3-3.9-8.7-6.3-12.7-2.6-4.5-6.3-8-10.1-11.5,1.1.1,2.3.1,3.4.2,3.1,2.9,6,5.9,8.2,9.5,2.8,4.6,4.9,9.6,7.1,14.5Z"/><path class="cls-36" d="m.52,92.72c-1.1-2.7-1.3-5.5-1-8.2.6-4.9.5-9.7-2.6-14.6-1.6-2.5-4.2-4.9-5.2-1.6-.6,2.1.7,7.5.9,11.4.1,3.5-1.3,6.5-2.2,8.5-3.3,7.1-2.4,23.6,5.5,25.8,5,1.5,10-8.7,4.6-21.3Z"/><path class="cls-48" d="m.52,92.72c-1.1-2.7-1.3-5.5-1-8.2.6-4.9.5-9.7-2.6-14.6-1.3-2.1-3.4-4.1-4.6-2.8,2.6,1,4.3,6.2,5.1,11.3.6,3.7-1.3,8.1-2,12.6-.8,5.6,3,11.8-1.4,14.3-1.3.8-2,3.4-1.9,6.3,1,1.2,2.2,2.1,3.6,2.5,5.2,1.4,10.2-8.8,4.8-21.4Z"/><path class="cls-45" d="m257.12,124.42c-11.1-11.6-41.8-21.5-69.3-21.5s-44.4,10-55.5,21.5h124.8Z"/><path class="cls-3" d="m257.12,124.42c-10.4-10.9-39.2-20.2-65-20.2s-41.7,9.4-52.1,20.2h117.1Z"/><path class="cls-44" d="m182.32,103.02c-3,2.4-5.2,5.6-6.8,8.2-2.4,4.1-4.1,8.7-5.6,13.2h-1.1c2.6-7.3,5.8-15.9,11.5-21.3.7,0,1.3-.1,2-.1Z"/><path class="cls-44" d="m174.32,103.72c-2.3,2.3-4.3,5.2-6,8.2-2.3,3.9-4.2,8.1-5.4,12.5h-1.2c1.4-4.9,3.5-9.5,6.2-13.9,1.3-2.2,2.9-4.5,4.8-6.6h0c.5,0,1.1-.1,1.6-.2Z"/><path class="cls-44" d="m166.42,105.22c-2.1,2.5-3.8,5.5-5.2,7.8l-.3.4c-2,3.5-3.8,7.2-5.1,11h-1.2c1.4-4,3.2-7.9,5.4-11.6l.2-.3c1.3-2.1,2.7-4.7,4.5-6.9.6-.2,1.1-.3,1.7-.4Z"/><path class="cls-44" d="m157.82,107.72c-3.8,5.2-6.7,10.8-8.8,16.7h-1.2c1.9-5.6,4.7-11,8.1-16h0c.7-.3,1.3-.5,1.9-.7Z"/><path class="cls-44" d="m139.12,118.12c-1.3,2-2.4,4.1-3.4,6.3h-1.2c.7-1.4,1.4-2.8,2.1-4.2h0c.8-.7,1.6-1.4,2.5-2.1Z"/><path class="cls-44" d="m149.32,111.52c-2.3,4.1-4.6,8.4-6.5,13h-1.2c1.8-4.2,3.9-8.3,5.9-12,.6-.4,1.2-.7,1.8-1Z"/><path class="cls-44" d="m189.92,102.92c-5.3,5.6-9.3,12.6-12.5,21.5h-1.2c3.1-8.9,7-15.8,12.2-21.5h1.5Z"/><path class="cls-44" d="m195.92,103.12c-2.8,3.4-5.2,7-7.1,10.7-1.7,3.5-3,7.1-4,10.5h-1.2c1.2-4,2.7-8.3,4.9-12.4,1.7-3.1,3.7-6.1,6-9,.5.2,1,.2,1.4.2Z"/><path class="cls-44" d="m201.92,103.72c-2.8,2.9-4.9,6.5-6.7,9.8-1.8,3.5-3.3,7.2-4.5,10.9h-1.2c1.3-4.5,3.2-8.8,5.4-12.9,1.5-2.6,3.2-5.5,5.5-8,.6.1,1.1.1,1.5.2Z"/><path class="cls-44" d="m207.52,104.42c-2.5,2.6-4.7,5.9-6.7,10-1,2.2-2,4.5-3.1,7.4-.1.2-.2.5-.4,1-.2.4-.4,1-.6,1.6h-1q0-.1.1-.2c1-2.9,2.2-6.3,3.8-9.6,2-4.2,4.2-7.6,6.8-10.4h0c.3.1.7.2,1.1.2Z"/><path class="cls-44" d="m212.92,105.42c-1.9,2.4-3.5,5.3-5,8.8-.5,1.1-1.1,2.2-1.7,3.3-.7,1.2-1.4,2.5-1.9,3.8-.4.9-.7,2-1,3.1h-1.2c.3-1.2.6-2.4,1-3.4.6-1.4,1.3-2.8,2-4.2.7-1.2,1.3-2.5,1.9-3.8,1.2-2.9,2.7-5.6,4.5-7.9.6.1,1,.2,1.4.3Z"/><path class="cls-44" d="m218.82,106.62c-2.1,2.7-4,5.6-5.5,8.6-1,2.1-2,4.2-2.9,6.2v.1c-.4.9-.8,1.9-1.2,2.9h-1.2c1.2-3,2.5-5.8,3.5-8.1,1.7-3.5,3.7-6.8,6.1-10,.4.1.8.2,1.2.3Z"/><path class="cls-44" d="m225.22,108.32c-3.7,4.8-7.2,10.1-8.9,16.1h-1.2c1.7-6,5.1-11.4,8.9-16.4.5.1.8.2,1.2.3Z"/><path class="cls-44" d="m230.22,109.82c-1.4,2-2.6,4.2-3.7,6.1l-.5.9c-1.5,2.6-2.7,5.2-3.6,7.6h-1.2c1-2.8,2.4-5.6,4-8.5l.4-.7c1-1.8,2.2-3.8,3.5-5.6h0c.4,0,.7.1,1.1.2Z"/><path class="cls-44" d="m236.12,112.02c-.3.5-.5,1-.8,1.5-.4.8-.8,1.6-1.3,2.3-.5.8-1,1.6-1.6,2.4-1.3,2-2.7,4-3.5,6.2h-1.1c.8-2.3,2.2-4.5,3.8-6.9,1-1.5,1.8-3,2.6-4.5.3-.5.5-1,.8-1.4.5.1.8.2,1.1.4Z"/><path class="cls-44" d="m240.82,113.92c-.5.8-.9,1.7-1.3,2.5-.3.7-.6,1.3-.9,1.8-1,1.8-2.1,3.9-3.1,6.1h-1.2c1.2-2.8,2.6-5.5,4.1-8.1.3-.5.5-1,.8-1.5.2-.5.5-.9.7-1.4.3.4.6.5.9.6Z"/><path class="cls-44" d="m245.62,116.32c-.2.3-.4.6-.5.9l-.4.6c-1.6,2.5-2.7,4.7-3.4,6.7h-1.2c.6-2,1.6-4.1,3.1-6.4l.4-.6c.3-.5.7-1.1,1-1.6.4,0,.7.2,1,.4Z"/><path class="cls-44" d="m250.32,119.02c-.1.1-.2.2-.3.4l-.1.1c-.9,1.3-2.2,3.2-3,5h-1.1c.7-1.6,1.7-3.1,2.5-4.4l.1-.1c.3-.5.6-1,1-1.5.3.1.6.3.9.5Z"/><path class="cls-64" d="m180.32,104.92c-2,2.1-3.6,4.4-4.7,6.3-2.4,4.1-4.1,8.7-5.6,13.2h-1.2c2.3-6.5,5-13.9,9.6-19.3h0c.6,0,1.2-.1,1.9-.2Z"/><path class="cls-64" d="m172.02,106.32c-1.4,1.7-2.6,3.7-3.7,5.6-2.3,3.9-4.2,8.1-5.4,12.5h-1.2c1.4-4.9,3.5-9.5,6.2-13.9.8-1.2,1.6-2.5,2.5-3.8h0c.5-.1,1.1-.2,1.6-.4Z"/><path class="cls-64" d="m163.72,108.82c-1,1.5-1.8,2.9-2.5,4.2l-.3.4c-2,3.5-3.8,7.2-5.1,11h-1.2c1.4-4,3.2-7.9,5.4-11.6l.2-.3c.6-1,1.2-2,1.8-3.1.6-.2,1.2-.4,1.7-.6Z"/><path class="cls-64" d="m154.22,113.22c-2.1,3.6-3.8,7.3-5.2,11.2h-1.2c1.2-3.5,2.7-6.8,4.5-10.1.7-.4,1.3-.7,1.9-1.1Z"/><path class="cls-64" d="m144.92,119.72c-.7,1.5-1.5,3.1-2.1,4.7h-1.2c.4-1,.8-1.9,1.3-2.9.6-.6,1.3-1.2,2-1.8Z"/><path class="cls-64" d="m188.62,104.22c-4.7,5.4-8.3,11.9-11.2,20.2h-1.2c2.8-8.2,6.4-14.7,10.9-20.1h0c.6,0,1,0,1.5-.1Z"/><path class="cls-64" d="m195.02,104.22c-2.4,3-4.5,6.3-6.2,9.6-1.7,3.5-3,7.1-4,10.5h-1.2c1.2-4,2.7-8.3,4.9-12.4,1.5-2.7,3.2-5.3,5.1-7.8h0c.5.1,1,.1,1.4.1Z"/><path class="cls-64" d="m201.12,104.62c-2.4,2.7-4.3,5.9-5.8,8.9-1.8,3.5-3.3,7.2-4.5,10.9h-1.2c1.3-4.5,3.2-8.8,5.4-12.9,1.3-2.3,2.8-4.8,4.7-7.1h0c.5.1,1,.1,1.4.2Z"/><path class="cls-64" d="m206.92,105.12c-2.2,2.5-4.2,5.5-6,9.3-1,2.2-2,4.5-3.1,7.4-.1.2-.2.5-.4,1-.2.4-.4,1-.6,1.6h-1q0-.1.1-.2c1-2.9,2.2-6.3,3.8-9.6,1.8-3.8,3.8-7,6.1-9.6.2,0,.6.1,1.1.1Z"/><path class="cls-64" d="m212.42,106.02c-1.7,2.3-3.2,4.9-4.6,8.2-.5,1.1-1.1,2.2-1.7,3.3-.7,1.2-1.4,2.5-1.9,3.8-.4.9-.7,2-1,3.1h-1.2c.3-1.2.6-2.4,1-3.4.6-1.4,1.3-2.8,2-4.2.7-1.2,1.3-2.5,1.9-3.8,1.1-2.7,2.5-5.1,4.1-7.3.6.1,1,.2,1.4.3Z"/><path class="cls-64" d="m218.42,107.12c-2,2.6-3.7,5.3-5.1,8.1-1,2.1-2,4.2-2.9,6.2v.1c-.4.9-.8,1.9-1.2,2.9h-1.2c1.2-3,2.5-5.8,3.5-8.1,1.6-3.3,3.5-6.5,5.8-9.5.4.1.7.2,1.1.3Z"/><path class="cls-64" d="m224.92,108.72c-3.6,4.7-6.9,9.9-8.6,15.8h-1.2c1.6-5.8,4.9-11.1,8.6-16,.5,0,.8.1,1.2.2Z"/><path class="cls-64" d="m230.02,110.12c-1.3,1.9-2.5,4-3.5,5.8l-.5.9c-1.5,2.6-2.7,5.2-3.6,7.6h-1.2c1-2.8,2.4-5.6,4-8.5l.4-.7c1-1.7,2-3.6,3.2-5.3.5,0,.8.1,1.2.2Z"/><path class="cls-64" d="m236.02,112.22c-.2.4-.4.9-.7,1.3-.4.8-.8,1.6-1.3,2.3-.5.8-1,1.6-1.6,2.4-1.3,2-2.7,4-3.5,6.2h-1.1c.8-2.3,2.2-4.5,3.8-6.9,1-1.5,1.8-3,2.6-4.5.2-.4.4-.8.7-1.2.4.1.8.3,1.1.4Z"/><path class="cls-64" d="m240.72,114.12c-.4.8-.8,1.6-1.2,2.4-.3.7-.6,1.3-.9,1.8-1,1.8-2.1,3.9-3.1,6.1h-1.2c1.2-2.8,2.6-5.5,4.1-8.1.3-.5.5-1,.8-1.5.2-.4.4-.8.6-1.2.3.2.6.4.9.5Z"/><path class="cls-64" d="m245.52,116.42c-.2.3-.3.5-.5.8l-.4.6c-1.6,2.5-2.7,4.7-3.4,6.7h-1.2c.6-2,1.6-4.1,3.1-6.4l.4-.6c.3-.5.6-1,.9-1.5.5,0,.8.2,1.1.4Z"/><path class="cls-64" d="m250.22,119.02c-.1.1-.1.2-.2.3l-.1.1c-.9,1.3-2.2,3.2-3,5h-1.1c.7-1.6,1.7-3.1,2.5-4.4l.1-.1c.3-.5.6-.9.9-1.4.3.2.6.3.9.5Z"/><polygon class="cls-52" points="218.52 136.72 230.42 136.72 230.42 114.12 224.52 106.62 218.52 114.12 218.52 136.72"/><rect class="cls-7" x="203.7" y="114.14" width="14.9" height="22.6"/><polygon class="cls-23" points="224.52 106.62 209.62 106.62 203.62 114.12 218.52 114.12 224.52 106.62"/><rect class="cls-16" x="212.33" y="118.74" width="2.2" height="8.7"/><rect class="cls-16" x="207.67" y="118.74" width="2.2" height="8.7"/><rect class="cls-52" x="197.22" y="120.92" width="7.7" height="15.8"/><rect class="cls-7" x="179.02" y="120.92" width="18.2" height="15.8"/><rect class="cls-20" x="207.72" y="118.72" width="2.2" height="1.5"/><rect class="cls-20" x="212.32" y="118.72" width="2.2" height="1.5"/><path class="cls-59" d="m215.22,136.72c.9-1.6,3.1-3.2,5.5-3.2s4.3,1.6,5,3.2h-10.5Z"/><path class="cls-36" d="m237.82,120.72c-1.1-1.5-1.5-3.1-.8-4.5,1.9-3.9-4.8-9.7-8.4-5-1.9,2.4,1.8,6.1-1,8.5-3.8,3.2-4.3,12.1,5.1,12.8,5.1.3,10.2-4.9,5.1-11.8Z"/><path class="cls-48" d="m237.82,120.72c-1.1-1.5-1.5-3.1-.8-4.5,1.5-3-2.2-7.2-5.6-6.8,1.3.7,3.2,1.6,3.8,3.1,1.3,3.1-1.8,4.1-1.7,6.7.1,3.9,3.4,4.6,2.1,7.6-1,2.3-6.3,3.4-7.3,4.5,1.1.6,2.6,1.1,4.4,1.2,5.1.3,10.2-4.9,5.1-11.8Z"/><path class="cls-7" d="m353.12,149.42c0,9.2-40.7,10.8-93.5,17.3-42.2,5.1-94,1.9-137.2,1.9-97.2,0-187.6-7.7-187.6-21.7,0-7,45.5-10.1,109.3-10.1h180c71-.1,129,4.5,129,12.6Z"/><path class="cls-89" d="m302.42,173.72c0,3.1-28.6,5.8-70.5,8.4-33.5,2.1-76.8-.5-111-.1-77.1.9-139.7-2.9-139.8-8.5-.1-5.6,62.7-5.7,139.9-6.6,77.1-.8,181.3,1.3,181.4,6.8Z"/><path class="cls-89" d="m353.12,149.42c0,9.2-40.7,10.8-93.5,17.3-42.2,5.1-94,1.9-137.2,1.9-97.2,0-187.6-7.7-187.6-21.7,0-7,45.5-5.3,109.3-5.3h180c71,0,129-.3,129,7.8Z"/><path class="cls-77" d="m294.42,189.62c-.2-3-6.7-13-24.2-6.4-9.4,3.6-7.6-4.1-13.9-7-5.6-2.5-17.1,5.6-24.4,13.3h62.5v.1Z"/><path class="cls-39" d="m200.82,189.62c.2-3.8-2.4-7.7-8.1-7.7s-12.6,3.9-16.7,7.7h24.8Z"/><path class="cls-7" d="m345.12,163.82c0,.6-22.5,1.1-55.5,1.5-26.3.3-60.4-.3-87.3-.3-60.7,0-109.8-.9-109.8-2s49.4-1,110-1,142.6.7,142.6,1.8Z"/><path class="cls-7" d="m137.52,158.22c0,.5-19.8.8-48.8,1.1-23.1.3-53.1-.2-76.7-.2-53.3,0-96.6-.7-96.6-1.5s43.4-.7,96.7-.7,125.4.4,125.4,1.3Z"/><path class="cls-85" d="m369.92,155.42c0,.5-18.6.9-45.8,1.2-21.7.3-49.8-.2-72-.2-50,0-90.6-.7-90.6-1.7s40.7-.8,90.7-.8,117.7.6,117.7,1.5Z"/><path class="cls-42" d="m4.22,165.42c-4-2.3-11.4-4.7-18-4.7s-10.5,2.4-11.2,4.7H4.22Z"/><path class="cls-59" d="m210.62,136.72c-.3-2.9-2.7-5.8-6.8-5.8s-8.7,2.9-11.3,5.8h18.1Z"/><path class="cls-36" d="m187.02,136.72c0-.6-1.2-3.7-5.2-4.4-3.8-.7-7.3,1.8-10.9-.1-4.3-2.2-9-6.7-20.7-2.3-10,3.8-8.1-4.4-14.8-7.4-6-2.7-18.2,6-26.1,14.2h77.7Z"/><path class="cls-10" d="m.02,30.62v2.8c0,.3-.3.6-.6.6h-3.9c-.3,0-.6-.3-.6-.6v-2.8H.02Z"/><path class="cls-10" d="m-5.08,29.02H.02c.2,0,.3.2.3.3v.9c0,.2-.2.3-.3.3h-5.1c-.2,0-.3-.2-.3-.3v-.9c0-.1.1-.3.3-.3h0Z"/><path class="cls-11" d="m.02,29.02h-1.9c.2,0,.3.2.3.3v.9c0,.2-.2.3-.3.3H.02c.2,0,.3-.2.3-.3v-.9c.1-.1-.1-.3-.3-.3H.02Z"/><path class="cls-11" d="m-.58,34.02c.3,0,.6-.3.6-.6v-2.8h-5.1v.7H-1.48v2c0,.3-.3.6-.6.6H-.58v.1Z"/><path class="cls-10" d="m-6.18,25.22H1.12v1.2c0,.2-.2.3-.3.3h-6.6c-.2,0-.3-.2-.3-.3v-1.2h-.1Z"/><path class="cls-11" d="m1.12,25.22H-1.68v1.2c0,.2-.2.3-.3.3H.82c.2,0,.3-.2.3-.3v-1.2h0Z"/><path class="cls-14" d="m-2.08,3.92h-.8c-5.8.2-10.3,4.9-10.3,10.6,0,4.6,3.9,8.7,7,10.7H1.02c3.1-1.9,7-6.1,7-10.7.1-5.7-4.4-10.4-10.1-10.6Z"/><path class="cls-13" d="m-2.08,3.92h-1c-4.9.3-8.7,4.9-8.7,10.6,0,4.6,3.4,8.7,6.1,10.7H.72c2.7-1.9,6.1-6.1,6.1-10.7-.1-5.7-4-10.3-8.9-10.6Z"/><path class="cls-14" d="m-2.48,3.92c-3.5,0-6.4,4.8-6.4,10.7,0,4.6,2.3,8.7,4.2,10.7H-.28c1.9-1.9,4.2-6.1,4.2-10.7C3.92,8.72,1.02,3.92-2.48,3.92Z"/><path class="cls-13" d="m-2.48,3.92c-1.4,0-2.6,4.8-2.6,10.7,0,4.6.9,8.7,1.7,10.7h1.8C-.88,23.42.12,19.22.12,14.62.02,8.72-1.08,3.92-2.48,3.92Z"/><path class="cls-83" d="m56.12,213.12c0,.5-12,1-26.9,1s-26.9.3-26.9-1c0-.4,5.1-.4,12.8-.6,4.1-.1,11.1-1.1,16.3-1.1,14.8,0,24.7,1.2,24.7,1.7Z"/><path class="cls-53" d="m43.82,175.62c-.1-1.1-.8-1.7-1.7-1.8-1.4-.2-2.3-.3-3.3-1.2-1.9-1.6-2.8-4-4.5-5.8-.4-.4-.9-.6-1.3-.9-.4-.4-.9-1.8-1.2-2.3-.3-.5-1.1-1.7-1.3-2.3-.6-2.3-1.3-5.5-4.1-6.1-2-.4-2.6,1.3-2.6,3.1.1,1.9,1.2,3.8,2.4,5.3,1.3,1.8,3.6,3,4.8,4.9,1.4,2.1,6.9,5.9,7.6,6.3.3.2.8,1,1.1,1.1,0,0,2.4-1.2,1.7,0-.2.4-1,.1-1,.7,0,.3.9.8,1.2.9.5-.1,2.3-1.1,2.2-1.9Z"/><path class="cls-93" d="m30.62,160.62c-.7-1.8-1.4-3.9-2.9-5.2-1-.8-2.8-1.3-3.7,0-.8,1.2-.8,3-.2,4.3.5,1.2,2.4,3.7,2.6,3.6.6-.4,1.1-1,1.7-1.4.7-.5,1.5-.7,2.3-1,0,0,.3-.2.2-.3Z"/><path class="cls-43" d="m7.02,203.42c-1.4,0-2.5-1.1-2.5-2.5s1.1-2.5,2.5-2.5,2.5,1.1,2.5,2.5-1.1,2.5-2.5,2.5Z"/><path class="cls-18" d="m31.12,183.42c-.3-.7-3.4-3.6-4.1-4.5s-1.4-1.7-2.2-2.5c-.6-.6-1.8-2-2.6-2.1-.5-.1-1.4.2-1.5.7-.2.7,1,2.4,1.4,3,1.4,1.9,3.5,3,5.1,4.7.7.8.9,1.2.5,2.2-.5,1-1.3,1.8-1.8,2.8s-.5,2.1-.5,3.2c-.1,1.3-.5,5.7-.6,6.7-.1.7-.7,1.4-.2,2,.3.4,1,.3,1.5.3.4,0,1.9,0,2.2-.1.6-.3.2-.8.2-1.4,0-1.4,1.3-5.8,1.6-7.2.2-1.3.4-2.7.9-3.9.2-.5.3-.9.4-1.5.1-1.1,0-1.6-.3-2.4Z"/><path class="cls-35" d="m33.32,203.02c-1.1-.6-2.2-.9-3.3-1.5-.5-.3-.9-.9-1.1-1.4-.1-.4-.1-.8-.5-1-.5-.2-.3,1.1-1,1.5-1.3.7-1.9-1.2-2.8-1-.8.2-1.2,2.4-.9,3,.6,1,2.5,1.1,3.5,1.2,1.4.3,2.7.5,4.1.7.5.1,1.2.2,1.7,0,.7-.4,1-1.1.3-1.5Z"/><path class="cls-49" d="m34.72,151.22c-.2-.4-.9-.8-1-1.3-.1-.7.2-1-.1-1.8-.5-1.4-1.2-2.1-2.9-2.4-1.4-.2-3,0-4,1.1-1.2,1.3-.6,2.9-.2,4.4.2.7.4,1.4.1,2.2-.3.7-1,1.2-1,2.1,0,.8.6,1.6,1.4,2,.9.4,1.6,0,2.4-.4.8-.5,1.3-1,2-1.6.2-.2.4-.4.6-.4.4-.1.8.1,1.2-.1.9-.3.8-1.1.8-1.9,0-.3-.1-.9,0-1.1s.8-.3.7-.8Z"/><path class="cls-57" d="m27.02,145.32c-1.8,1.1-2.5,2.9-1.8,4.9.2.6,1.8,4.1,2.4,1.9.2-.7-1.2-2.2-.3-2.7,1.3-.7,1.7,2.7,2.5.5.4-1.2.6-2.3,2.2-2.8,1-.3,1.8-1,.9-2.2-1.2-1.4-4.5-.5-5.9.4Z"/><path class="cls-65" d="m7.02,213.42c-6.9,0-12.4-5.6-12.4-12.4s5.6-12.4,12.4-12.4,12.4,5.6,12.4,12.4c.1,6.8-5.5,12.4-12.4,12.4Zm0-23.2c-5.9,0-10.8,4.8-10.8,10.8s4.8,10.8,10.8,10.8,10.8-4.8,10.8-10.8-4.8-10.8-10.8-10.8Z"/><path class="cls-65" d="m46.52,213.42c-6.9,0-12.4-5.6-12.4-12.4s5.6-12.4,12.4-12.4,12.4,5.6,12.4,12.4-5.6,12.4-12.4,12.4Zm0-23.2c-5.9,0-10.8,4.8-10.8,10.8s4.8,10.8,10.8,10.8,10.8-4.8,10.8-10.8-4.9-10.8-10.8-10.8Z"/><path class="cls-43" d="m14.92,178.32c-.1-1-1.2-1.6-2-1.7-.7-.1-1.9-.3-2,.5-.1.3-.1.8.2,1.1.7.8,2.3.5,3.2.4h.4c.1,0,.2-.1.2-.2t0-.1Z"/><path class="cls-43" d="m23.62,206.92c-2,0-3.7-1.6-3.7-3.7s1.6-3.7,3.7-3.7,3.7,1.6,3.7,3.7-1.7,3.7-3.7,3.7Z"/><path class="cls-25" d="m46.92,200.82l-2.8-8c-.6-1.6-1.2-3.3-1.7-4.9-.1-.3-.4-.8-.4-1.1s.2-.4.2-.8c-.1-.8-.5-1.6-.7-2.4-.3-.8-.5-1.6-.8-2.4-.1-.1-.1-.3-.2-.5-.2-.4-.6-.1-.8-.6-.1-.2-.4-.7-.3-1s.3-.3.6-.4c.8-.3,1.5-.6,2.2-.9,1-.5.5-1.3-.6-.9-.7.2-1.4.5-2.1.8-.3.1-1,.2-1.3.5-.5.6.3,1.7.4,2.3,0,.5,0,.2-.3.6-.1.3,0,.4-.2.6-.2.1-.6.2-.8.2-1.4.3-2.9.6-4.3.8-3.7.7-7.5,1.4-11.2,2.2-.6.1-2,.7-2.7.5-.4-.1-.4-.5-.5-.8-.3-.9-.5-1.8-.8-2.7-.1-.5-.2-1.2-.6-1.5-.7-.4-.9,0-.8.6.2.9.5,1.7.8,2.5.2.6.7,1.5.7,2.2,0,.6-.7,1.2-1.1,1.6-1.1,1.3-2.2,2.7-3.3,4-1.3,1.6-2.5,3.1-3.8,4.7-.8,1-1.8,2-2.6,3.1-.1.2-.8.9-1,1.2-.2.2-.3.4-.3.7h0c0,.3.2.7.4.9,0,0,.2.2.3.2s.2-.1.3-.2c.1-.2-.1-.4-.1-.6,0-.1.1-.3.1-.3.1,0,.3.1.4.1.2.1.3.3.4.4.2.2.4.3.7.3,0,0,8.5,1,12.7,1.5.9.1,2.5.6,3.4,0,1.1-.9,2.1-2.4,3-3.6l10.1-11.8c.5-.6,1-1.1,1.5-1.7.3-.3.4-.7.8-.3.4.5.1.9.6,1.1.3.1.4,0,.5.3.3.5.6,1.2.8,1.7,1,2.8,2,5.6,3,8.4l1.1,3.2c0,.1,0,.5.1.6.3.7,1.2.1,1-.4Zm-38.1.1c-.5-.1-.7-.7-.8-1-.1-.1-.2-.3-.1-.6,0-.3,1.2-1.8,1.7-2.3,2.1-2.4,4.2-4.7,6.3-7.1.6-.7,1.3-1.6,2-2.2.4-.4.5-.4.7.2,1,2.4,1.5,5,2.3,7.5.7,2.3,1.4,4.7,2.2,7-4.9-.5-9.8-.9-14.3-1.5Zm28.9-16.4l-7.1,8.6c-1.6,1.9-3.1,3.8-4.7,5.7-.3.3-1.8,2.7-2.3,2.6-.3-.1-.4-1.1-.5-1.3-.3-1-.6-2-.9-3.1-.7-2.5-1.5-5-2.2-7.5-.2-.7-.6-1.5-.7-2.2,0-.4-.1-.4.3-.6.5-.2,1.4-.2,1.9-.3,1.1-.2,2.2-.4,3.3-.6l8.6-1.6c1-.2,2-.4,2.9-.5.6-.1,2.3-.3,1.4.8Z"/><g id="SVGID"><g class="cls-27"><g class="cls-80"><path class="cls-79" d="m29.42,183.72c-.2-.5-.7-1.2-1.1-1.5-.7-.6-3.3-3-4-3.6-.6-.6-1.7-1.1-2-1.9-.3-.6-.3-1.8-1.1-2.2-.6-.3-1.5-.2-2.2-.3-2-.1-3.6-.3-5.4-1.1-.4-.2-1.1-.8-1.6-.5-.4.3-.4,1.9-.4,2.3.1,1.8,1.5,3,2.8,4,2.7,2.2,5.8,4.9,9.2,6-.5,1.1-2.4,1.8-3.2,2.7-1.1,1.3-2,2.7-3,4-.6.7-2.6,2.1-2.7,3.1,0,.6,1,1.4,1.4,1.6.7.4,1.4.3,2.2.2.8-.2.5-.2,1-.9.5-.6,1.1-1,1.7-1.5,1.1-.9,2.1-2.1,3-3.3,1-1.3,2.6-1.9,3.6-3.1.5-.6,1.1-1.2,1.5-1.9.6-.6.6-1.2.3-2.1Z"/></g></g></g><path class="cls-26" d="m29.42,183.72c-.2-.5-.7-1.2-1.1-1.5-.7-.6-3.3-3-4-3.6-.6-.6-1.7-1.1-2-1.9-.3-.6-.3-1.8-1.1-2.2-.6-.3-1.5-.2-2.2-.3-2-.1-3.6-.3-5.4-1.1-.4-.2-1.1-.8-1.6-.5-.4.3-.4,1.9-.4,2.3.1,1.8,1.5,3,2.8,4,2.7,2.2,5.8,4.9,9.2,6-.5,1.1-2.4,1.8-3.2,2.7-1.1,1.3-2,2.7-3,4-.6.7-2.6,2.1-2.7,3.1,0,.6,1,1.4,1.4,1.6.7.4,1.4.3,2.2.2.8-.2.5-.2,1-.9.5-.6,1.1-1,1.7-1.5,1.1-.9,2.1-2.1,3-3.3,1-1.3,2.6-1.9,3.6-3.1.5-.6,1.1-1.2,1.5-1.9.6-.6.6-1.2.3-2.1Z"/><path class="cls-35" d="m21.62,202.42c.1-1.3-1.5-1.9-2-3-.2-.5-.5-1.2-.5-1.8,0-.3.3-.9.2-1.1-.6-1.1-1.5.1-2,.3-.6.3-2,.2-2.5-.2-.3-.3-.4-1.1-.9-1.2-.3,0-.9.8-1,1-1.1,1.4-.1,1.9,1.2,2.6,1.4.8,2.5,1.9,3.9,2.7.3.2,3.6,1.6,3.6.7Z"/><path class="cls-7" d="m28.92,157.82c-.5-1.5-1.6-3.4-3.4-3.4-1.6,0-2.8,1.2-3.6,2.6-1,1.7-1.1,2.7-2.1,4.4s-2.8,4-4,5.5c-1.2,1.4-2.3,2.9-2.9,4.6-.3,1-.2,1,.7,1.5,1,.5,2,.9,3,1.2,1.6.4,4.4,1,5.6-.3,1-1.1,1.6-2.6,2.3-4,.9-1.7,3.1-3.3,4-5,1.1-2.4,1.2-4.7.4-7.1Z"/><path class="cls-2" d="m28.92,157.82c-.5-1.5-3.7.3-5.1,1.4-2,1.5,1.7,5.3.2,6.7-1.5,1.3-.1,2.6-1.9,4.9-1.7,2.2-.6,3.9.1,3.1,1-1.1,1.6-2.6,2.3-4,.9-1.7,3.1-3.3,4-5,1.1-2.4,1.2-4.7.4-7.1Z"/><path class="cls-30" d="m42.32,175.72c-.1-1.1-.8-1.7-1.6-1.8-1.4-.3-2.3-.4-3.3-1.4-1.8-1.7-2.6-4.2-4.2-6-.4-.4-.9-.6-1.3-1s-.9-1.8-1.1-2.3c-.3-.5-1.1-1.7-1.2-2.4-.5-2.3-.8-5.8-3.5-6.5-2-.5-2.8,1.5-2.8,3.3,0,1.9,1.1,3.4,2.2,5,1.3,1.8,3.4,2.9,4.5,5.2,1,2.3,6.6,6.3,7.2,6.7.3.2.7,1.1,1,1.1,0,0,2.5-1.1,1.7,0-.3.4-1,0-1,.7,0,.3.9.9,1.1.9.6.3,2.3-.7,2.3-1.5Z"/><path class="cls-25" d="m39.82,175.32c-.6-1.1-2.2.3-1,1.1.7.5,1.4-.4,1-1.1Z"/><path class="cls-7" d="m30.02,160.62c-.5-1.9-1-4-2.4-5.4-.9-.9-2.6-1.6-3.7-.3-.9,1.1-1.1,2.9-.6,4.3.4,1.3,2,3.9,2.2,3.8.7-.4,1.2-.9,1.8-1.3.7-.4,1.6-.6,2.4-.7,0-.1.3-.3.3-.4Z"/><path class="cls-76" d="m33.92,154.32c-.1.3-.3.5-.7.7-.4.1-.8,0-1.2.1-.2,0-.4.2-.6.4-.1.1-.2.2-.2.2-1.1-.6-1.8-2.4-1.6-2.8.2-.3.9,1.6,2.3,1.8,1,.1,1.5.1,2-.4Z"/><path class="cls-83" d="m206.42,213.52c0,.4,8.3.6,18.4.6s18.4.2,18.4-.6c0-.2-3.5-.3-8.8-.4-2.8-.1-7.6-.7-11.1-.7-10.1,0-16.9.7-16.9,1.1Z"/><path class="cls-25" d="m236.12,213.42c-4.5,0-8.1-3.6-8.1-8.1s3.6-8.1,8.1-8.1,8.1,3.6,8.1,8.1-3.6,8.1-8.1,8.1Zm0-14.8c-3.7,0-6.7,3-6.7,6.7s3,6.7,6.7,6.7,6.7-3,6.7-6.7-3-6.7-6.7-6.7Z"/><path class="cls-86" d="m226.42,205.92c-.3,0-.4-.2-.5-.5-.7-5.8,2.9-11.2,10.4-10.6.8.1,1.2.2,1.3.8,0,.2-.8.3-1,.3-6,0-9.7,4.4-9.7,9.5,0,.3-.2.5-.5.5Z"/><path class="cls-17" d="m222.52,185.72c-1.5-1.1-3.1-2.8-4.9-3.4-.3-.1-1.7-.4-1.9,0-.3.4.3,1.6.5,2,.6,1.5,2.5,2.7,2.8,4.3.2,1.4-1.7,2.6-2.6,3.5-.6.6-1.1,1.3-1.6,1.9s-.5,1,.2,1.6c.5.4,1.7.9,2.3.5.4-.2.6-1,.9-1.4,1.3-1.4,2.8-2.6,4-4.2,1.2-1.7,2.3-3.2.3-4.8Z"/><path class="cls-1" d="m219.62,199.12c-.8-1.2-1.1-3.9-2.9-3.3-.9.3-1.1.5-1.8-.2-.7-.8-.5-.8-1.2.2-.6.8-1.4,1.6-.3,2.4.9.6,2,.9,3,1.5.8.4,1.8,1.3,2.7,1.1,1-.2,1-1,.5-1.7Z"/><path class="cls-7" d="m213.32,186.82c0-.4-.4-.9-.7-1.1-.4-.3-.9-.5-1.4-.5h0c-.6,0-1.7.2-1.1,1,.3.4.6.7,1,.9.6.1,1.3.1,2,.1.1,0,.2-.1.2-.2v-.2Z"/><path class="cls-25" d="m206.72,213.42c-4.5,0-8.1-3.6-8.1-8.1s3.6-8.1,8.1-8.1,8.1,3.6,8.1,8.1c.1,4.4-3.6,8.1-8.1,8.1Zm0-14.8c-3.7,0-6.7,3-6.7,6.7s3,6.7,6.7,6.7,6.7-3,6.7-6.7-3-6.7-6.7-6.7Z"/><path class="cls-43" d="m219.32,207.02c-1.6,0-2.9-1.3-2.9-2.9s1.3-2.9,2.9-2.9,2.9,1.3,2.9,2.9-1.3,2.9-2.9,2.9Z"/><path class="cls-43" d="m206.92,206.82c-.8,0-1.5-.7-1.5-1.5s.7-1.5,1.5-1.5,1.5.7,1.5,1.5-.7,1.5-1.5,1.5Z"/><path class="cls-43" d="m235.12,203.82c-1-2.8-3-9.1-3-9.1l-2.2-6.8c.8-.3,1.9-.8,1.9-1.6-.1-1.1-1.5-2.5-2.3-2.9-.5-.3-1.2,0-1.9.2-.1,0-.3.1-.4.1-.2,0-.3.2-.2.4,0,.2.2.3.4.2.1,0,.3-.1.4-.1.6-.2,1.2-.3,1.4-.2.7.4,1.8,1.6,1.9,2.4,0,.2-.6.8-2.4,1.3-.2,0-.3.2-.2.4,0,.1.2.2.3.2h.3l2.2,6.8,3.5,10.3c.2.7,1,.1,1.3.1.7,0,.8.5,1.1.2.7-.8-1.9-1.1-2.1-1.9Z"/><path class="cls-86" d="m197.42,203.12h-.1c-.2-.1-.4-.3-.3-.6,1.3-4.3,4-7.9,10.1-7.9,4.5,0,9.1,3.3,9.4,7.8,0,.3,0,.5-.3.6-.2.1-.5-.1-.6-.3-1.2-3.9-4.8-6.6-8.9-6.6s-7.7,2.7-8.9,6.6c-.1.3-.2.4-.4.4Z"/><path class="cls-46" d="m230.92,190.02c-.1-.4-1.6.2-1.5.5,0,0,.2.6.3,1.2.1.3-.1.7-.3.9l-6.3,4.5c-.1.1-.2.1-.4.2l-3.4,1c-.6.2-1.2-.2-1.3-.8-.7-2.3-2.6-9.2-2.6-9.2,0-.1-.6-.1-.7-.1s-.2.1-.1.3l1.7,6-1.3,1.5s-1.8-1.6-2.3-2.1c-.2-.2-.8-.6-1.3-.6-2.7,0-11,.2-11,.2-.3,0-.4.2-.4.4s.2.4.3.4h10.5c.3,0,.5.1.8.2l2.8,2.2-7.6,8.3c-.1.1-.1.4-.1.5s.1.2.3.2c3-.3,8.8-1.2,11.8-1.7.4-.1,4.3-4.6,4.3-4.6.2-.2.4-.4.6-.5l6.4-4.2c.2-.1.5-.1.6.1s.1.3.2.5c.2.5,1.7,0,1.6-.4-.4-1.6-1.6-4.9-1.6-4.9Zm-23,14.4l8.5-9.1s1.1,4.2,1.5,5.8c.1.4.2.8.2,1.1.1.5-.1.9-.5.9l-9.5,1.7c-.3.1-.4-.2-.2-.4Z"/><path class="cls-35" d="m227.42,203.82c-.4-.7-1.3-.4-2.2-.4-.6,0-1.2,0-1.8-.1-.5-.1-1.2-.6-1.6-.5-.9.2-1.5,1.3-2.4,1.5-1.3.3-1.7-.6-1.6,1.3.1,1-.2,1.6,1.1,1.8,1.2.2,2.4-.6,3.5-.8,1.3-.2,2.4-.4,3.6-1.1.2-.2,1.7-1,1.4-1.7Z"/><path class="cls-70" d="m221.82,191.02c-1.4-2-2.5-4.1-3.8-6.2-.3-.5-.7-1-1-1.5-.1-.3-.2-.7-.4-.9-.5-.6-2.4-.8-3.2-.9-.6-.1-1.1,0-1.7.1-.4,0-1.7,0-2,.1-.5.3-.5,1.6-.3,2.1.2,1,1,1.6,1.8,2.2.9.7,1.6,1.4,2.4,2.2.7.7,1.2,1.4,1.8,2.2.6.8,1.4,1.1,2,1.8,1.4,1.4.7,4.6.6,6.3,0,.7,0,1.4.1,2.1,0,.4.1.5-.1.9-.2.5-.5.7-.4,1.3,0,.5.2,1.3.5,1.5.8.5,1.9-.1,2.6-.5,2.6-1.4.6-3.5.6-5.7,0-1.2.2-2.3.6-3.4.4-.9.5-2.8-.1-3.7Z"/><path class="cls-25" d="m227.72,183.52c-.3-.2-.8-.3-1,0v.1c-.1.2-.2.5,0,.7.3.4.7.5,1.1.2.1-.2.1-.8-.1-1Z"/><path class="cls-93" d="m220.72,177.22c-.2-.5-.8-1.8-1.5-1.6-.9.2-.3,1.6-.1,2.1.6,1.6,1.1,2.9,2.2,4.3.4.6,2,1.6,2.9,1.2.7-.3-2.6-3.8-3.5-6Z"/><path class="cls-68" d="m223.82,164.92c-.1-.3-.4-.7-.4-1s.2-.6.3-1c0-.7-.2-1.5-.5-2.1-.5-.9-1.5-1.5-2.5-1.8-2.9-.8-5.2,1.4-4.2,4.3.2.5.5,1,.6,1.6.1.8-.1,1.4-.1,2.2-.2,1.6,1.1,2.8,2.5,1.6.3-.3.7-1.2,1.1-1.3.5-.2,1.2.4,1.8.1s.5-1,.7-1.5c.1-.3.1-.4.3-.6,0-.2.5-.2.4-.5Z"/><path class="cls-58" d="m223.52,159.92c-1.4-1.7-4.7-2.1-6.6-1-1.2.7-1.5,1.9-1.4,3.2.1.7.3,1.1.7,1.7.3.4.5,1.1.9,1.4.2.2,1.1.2,1.4,0,.4-.4,0-1-.1-1.4-.1-.6.3-1.1.9-1.1.5,0,.5.8.8.9.5.2.7-.2.9-.6.2-.6.2-.9.8-1.2.4-.4,2.5-1,1.7-1.9Z"/><path class="cls-7" d="m220.22,169.72c-.2-1.5-1.9-2.4-3.2-3-.8-.4-.8,0-1.4.7s-1.4,1.3-1.9,2.1c-1.1,1.5-1.7,3.2-2.3,4.9-.6,2-.8,4.1-1.4,6.1-.1.3-.4.8-.3,1.1.2.3,1.1.5,1.4.6.9.3,1.8.4,2.7.3,1-.1,1.9-.2,2.9-.2.7,0,.9.1,1.1-.7.6-1.9,1.1-3.8,1.6-5.7.7-2,1.1-4.2.8-6.2Z"/><path class="cls-1" d="m223.92,158.82c-.1,0-.2,0-.2.1-.4.6-.8,1.4-1.7,1.9-1.5.8-3,.3-4.5.6-1.2.2-1.2,1.8-2.7,1.5-.3-.1-.4.2-.1.4.6.5,1.3.9,2.1.6.5-.2.7-.6,1-.9.7-.7,1.2-.8,2.6-.7.8.1,1.4-.4,2-.9.4-.3.8-.7,1.3-.9.5-.1,1-.2,1.5-.3.1,0,.2-.1.2-.1.2-.4-1.1-1.2-1.5-1.3Z"/><path class="cls-87" d="m223.82,158.62c-1.4-.9-2.8-1.5-4.5-1.7-1-.1-2.4.4-3.4,1-1.4.8-1.5.9-1.8,2.7-.2,1.3-.4,2.7,1.2,2.6,1.2-.1,1.2-1.3,2.1-1.7.6-.2,1.3-.1,1.9-.1.7,0,1.3.1,1.9-.1.4-.1,3.3-2.2,2.6-2.7Z"/><path class="cls-47" d="m228.82,184.32c-.3.5-.7.6-1.2.8-.1,0-.2,0-.2-.1-.1-.1-.1-.2,0-.3.3-.2.5-.6.3-1-.1-.3-.5-.3-.8-.1-.2.1-.2.3-.3.4-.2.3-.4.6-.8.5-.8-.2-.3-1.5.2-1.9l.1-.1c.4-.1.8-.2,1.1-.3.3-.1.5-.2.8-.2.4,0,1,.5,1.1.9.3.4-.1,1-.3,1.4Z"/><path class="cls-74" d="m219.62,171.62c-.9-1.3-2.4-1.9-2.9-1.4-1.4,1.5,1.4,4.6.9,5.9-.8,2.2.5,3-.5,4.3-.5.6.6,1.9.8,1.1.6-1.9,1.1-3.8,1.6-5.7.6-1.9.7-3.4.1-4.2Z"/><path class="cls-7" d="m226.42,182.32c-.3-.3-.6-.3-.9-.7-.2-.3-1.4-2.5-1.9-3.5-.8-1.8-1.7-2.6-2.2-4-.3-.9-.6-1.9-.8-2.8-.1-.7-.1-1.4-.6-2.1-.7-1-2.8-1.1-3.4.1-.7,1.4.7,3.3,1.4,4.5,1.1,1.6,2,3.2,2.8,4.9.8,1.6,2,3.3,3.3,4.6.3.3,1,1.2,1.4,1.1.4-.2,1.3-1.9.9-2.1Z"/><path class="cls-37" d="m219.92,167.92c.2-.3.4-.5.6-.5.5-.2,1.2.4,1.8.1.1-.1.2-.1.3-.2-.5.3-.9,0-1.6-.1-.9-.2-1-1.4-1.3-1.5-.3-.2-.3,1.5.2,2.2Z"/><path class="cls-60" d="m221.32,162.22c0-.3-.8-.1-.7.1.2,1.7.4,3.4,0,5.2-.1.3.6.3.6,0,.3-1.6.3-3.4.1-5.3Z"/><path class="cls-56" d="m174.42,213.02c0,.6-15.7,1-35,1s-35,.3-35-1c0-.4,6.7-.5,16.6-.6,5.3-.1,14.4-1.2,21.2-1.2,19.4,0,32.2,1.2,32.2,1.8Z"/><path class="cls-60" d="m161.12,213.42c-6.4,0-11.5-5.2-11.5-11.5s5.2-11.5,11.5-11.5,11.5,5.2,11.5,11.5-5.1,11.5-11.5,11.5Zm0-21.9c-5.7,0-10.3,4.6-10.3,10.3s4.6,10.3,10.3,10.3,10.3-4.6,10.3-10.3-4.6-10.3-10.3-10.3Z"/><path class="cls-60" d="m118.32,213.42c-6.4,0-11.5-5.2-11.5-11.5s5.2-11.5,11.5-11.5,11.5,5.2,11.5,11.5-5.1,11.5-11.5,11.5Zm0-21.9c-5.7,0-10.3,4.6-10.3,10.3s4.6,10.3,10.3,10.3,10.3-4.6,10.3-10.3-4.6-10.3-10.3-10.3Z"/><path class="cls-78" d="m146.72,196.92c-.6-.5-1.4-.5-2.2-.5-1.2,0-2.2-.2-3.2-1-.5-.4-.6-.5-.5-1.1.1-.5.2-1.1.4-1.6.4-1.1.9-2.1,1.4-3.1s.5-1.9.8-2.9.6-2,1.1-2.8c.6-1.2,1.5-3,.6-4.3-.7-1-2.2-1.5-3.4-1.8-1.9-.5-3.7-1.1-5.6-1.6-1.2-.3-2.4-.6-3.6-.9-1-.2-2.2-.6-3.1-.3-1.8.5-2.4,2.7-1.7,4.3,2.3,5.3,8.9,2.6,13.1,2.8-.6,1.1-1.3,2.1-1.7,3.3-.4,1.3-.4,2.7-.5,4.1s-.2,2.9-.4,4.3c-.2,1.3-1.2,2.4-1.4,3.7-.2,1,.4,1.9,1.4,1.9.7,0,2.1-1.2,2.6-1.3,1.2-.4,2.5-.1,3.8-.4.7-.2.9,0,1.6,0,.5,0,1.1-.4.5-.8Z"/><path class="cls-18" d="m143.62,195.72c-.6-.2-1.4-1-2.1-1-.5,0-.6.4-.9.8-.9,1.2-2.2,1-3.5,1.2-.5,0-.6.1-.6.6,0,.3,0,.7.1,1.1.2,1.2,1,1.2,2,.9,1.2-.4,2.1-1.1,3.4-1.3,1.3-.1,2.7.2,4,0,.8-.1,1.6-.9.6-1.4-.9-.4-2.1-.5-3-.9Z"/><path class="cls-60" d="m151.32,174.92c-.1-.2-.3-.5-.6-.5h-.1c-.3,0-.5.2-.5.5,0,.1.1.2.2.4.1.1.1.3.1.4l-.1,3.4v.1c0,.2-.3.3-.4.4-.1,0-.2.1-.3.1l-.3-.6-.7.4,1.9,4.2.7-.4-1.3-2.9c.3-.1.5-.2.8-.4.2-.2.4-.4.4-.7q0-.1.1-.2v-.1l.1-3.3c0-.2.1-.5,0-.8Z"/><path class="cls-65" d="m135.82,206.02c-2,0-3.6-1.6-3.6-3.6s1.6-3.6,3.6-3.6,3.6,1.6,3.6,3.6-1.6,3.6-3.6,3.6Zm0-6.6c-1.7,0-3,1.3-3,3s1.3,3,3,3,3-1.3,3-3-1.3-3-3-3Z"/><path class="cls-28" d="m148.12,204.92c-.2-.7-.5-2.7-.5-3.8,0-7.4,4.4-13.8,13.6-12.7.2,0,1.4.7,0,.6-7.1-.2-12.8,5.7-12.8,12.8,0,1,.1,2.1.3,3,0,.2-.5.6-.6.1Z"/><path class="cls-28" d="m131.72,201.82h-.6c0-7.1-5.7-12.8-12.8-12.8-3.1,0-6.2,1.2-8.4,3.2-.4.3-.8.1-.4-.5,1.3-1.7,4.8-3.6,8.8-3.6,8.7.1,13.4,6.4,13.4,13.7Z"/><path class="cls-65" d="m118.32,203.52c-.9,0-1.7-.8-1.7-1.7s.8-1.7,1.7-1.7,1.7.8,1.7,1.7c0,1-.7,1.7-1.7,1.7Z"/><path class="cls-75" d="m162.02,201.72c-.2-1.3-1.5-1.1-3-2.6-.4-.4-.9-.9-1.2-1.4-.5-.8-.8-1.8-1.2-2.7-1.5-3.4-2.8-6.6-4.3-10-.2-.4-.6-1.3-.8-1.8-.2-.3-.5-.1-.9.1-.2.1-.3.3-.2.6.4.8.9,1.9.9,2.2.1.4-.9,1-1.3,1.3-.7.6-8.7,7.2-12,9.9-.9.7-1.7,1.4-2.6,2.1l-1.9-6.6c-.8.3-1.1.1-.9.9.3,1,.6,2,.9,2.9.5,1.7,1,3.3,1.4,4.7.1.4-1.4.3-1.8.3-1.5,0-2.9-.1-4.4-.1-1.6,0-3.2-.1-4.8-.1-1.4,0-2.8.1-4.1-.3l9.1-10.2-.6-.5c-2.7,3.1-5.4,6.2-8.1,9.4-.2.3-.7,1.1-1,1.2-.7.2-.7-.8-.8-1.1-.5-2.4-.9-4.7-1.4-7.1l-.9-4.9c-.1-.5.2-.7.7-.7l10.6.4c.4,0,.4-.8-.3-.8-.4,0-4.9-.2-7.4-.2-1.6-.1-5-.2-6.7-.3-.4,0-.7.7-.1.7,1.1.1,1.8,0,2.2.4.3.2.4,1.1.4,1.4.5,2.6,1,5.1,1.6,7.7.2,1.1.4,2.2.7,3.3.1.3.2.6.2.8,0,.4-.4.8-.3,1.2.1,1,1.2.5,1.8.5.8-.1,1.8.1,2.6.1,2.7.1,5.4.2,8.2.3,1.1,0,2.2.1,3.3.1.4,0,1.1,0,1.5.2.2.1.3.4.7.5.5.1,1-.1,1.3-.5.2-.3.2-.8,0-1.1-.2-.5-.7-.4-.9-.7-.3-.5.1-.6.4-.9,1.6-1.3,3.3-2.6,4.9-3.9,0,0,7.7-6,10.3-8,.4-.3.9-.2,1.1.3.9,2,3.7,8.1,3.7,8.1.7,1.4.9,1.7,2.8,3.4.3.3,1.4,1.3,1.5,1.5.2.3-.1.6.4.7,0-.1.8-.3.7-.7Z"/><path class="cls-4" d="m144.32,178.52c-1.7-.9-3.4-1.4-5.3-1.8-1.9-.4-7.3-2.1-8.4-2-.7.1-.3.5-.2,1.2.6,2.3,8.1,6.9,8.9,7.8,1.3,1.5,1.2,3.8,2,3.7,1.4-.1,2.3-2.7,2.6-3.7.2-.6,1.7-4.5.4-5.2Z"/><path class="cls-50" d="m143.02,186.22c-.1-.4-1-1-1.4-1.3-.6-.6-1.3-1.2-2-1.8-1.3-1.2-2.8-2.2-4.2-3.2-1.4-1-2.6-2.1-3.8-3.3-1.1-1.1-2-1.8-3.6-1.7-.7,0-1.5.2-2.2.2-.9,0-1.7-.4-2.6-.4-.8,0-.9.1-1.1.8-.2.7-.2,1.4-.1,2.2.5,3.1,3.8,4.1,6.4,4.8,2,.5,3.5,1.3,5.1,2.6,1.4,1.2,3,2.3,4.8,2.8-1.6,1-3,2.2-4.2,3.6-1.2,1.6-2,3.5-3.2,5.1-1.1,1.4-2.9,1.9-4,3.2-1.4,1.6,1,2.9,2.1,3.5.7.4,1.5.8,2,1.4s.8,1.5,1.5,1.9c.6.3,1.1.1,1-.6-.1-.3-.3-.5-.5-.8-.2-.4-.3-.9-.5-1.3-.5-1.5-1.9-2.9-.8-4.5.9-1.4,2.7-2.4,4-3.4,1.7-1.4,3.6-2.5,5.2-4,.8-.8,1.7-1.7,2.3-2.6.7-1.3.1-2.1-.2-3.2Z"/><path class="cls-24" d="m143.32,186.22c-.4-.7-3.8-3.8-5.9-5.2-2.5-1.7-6.1-4.3-6.7-5.8-.2-.6,0-.6-.5-.6-.4,0-1.1.3-1.6.4-1.3.2-2.7.1-4-.1-.6-.1-1.2-.2-1.8-.3q-.7-.2-.9.4c-.4,1-.5,2.3-.3,3.3.4,2.5,2.7,3.9,3.8,6,1.2,2.2,1.7,4.7,2.2,7.1.2,1.1.3,3.7,2.2,3.7.8,0,1.4,0,2.2-.1,2.6-.4,5.4-1.4,7.6-2.9,1.1-.8,2.2-1.7,3.1-2.7.2-.3,1.3-1.9.6-3.2Z"/><path class="cls-49" d="m137.82,147.42c-.7-1.6-3.1-2.3-4.2-2.3-1.5-.1-3,1.2-3.5,2.7-.6,1.6.5,2.9.8,4.4.1.8-.1,1.5-.4,2.3-.3.6-.7,1.4-.3,2.1.4.6,1.2.5,1.8.4.7-.2,1-.7,1.4-1.4.3-.5.5-1.1,1.1-1.2.6,0,1.1.6,1.7,0,.3-.4.5-1.5.9-1.9.3-.3.6,0,.8-.3.1-.2-.1-.5-.1-.7-.2-.9.2-.9.5-1.6.1-.9-.2-1.7-.5-2.5Z"/><path class="cls-7" d="m135.42,159.82c-.2-1.8-1.5-3.4-3.1-4.2-1.8-.9-3.7,0-4.9,1.6-1,1.5-1.2,3.3-1.8,5-.7,2.1-1.9,4-2.4,6.1-.2.8-.1,1.7-.4,2.6-.3.9-.9,1.7-1,2.7-.2,1.8,2.3,1.8,3.5,1.8,1.1,0,2.2-.2,3.3-.3.9,0,1.8.1,2.3-.8.4-.7.1-1.5.1-2.3,0-.9.1-1.9.2-2.9.1-.8.3-1.7.7-2.4.5-.8,1.3-1,2-1.6.7-.5.9-1.2,1-2.1.4-1,.6-2.1.5-3.2Z"/><path class="cls-57" d="m134.32,144.12c-1.2-.5-2.6-.3-3.7.5-1.5,1.2-.9,3.3-2.1,4.7-.6.7-2.4.7-3.3,1.1-1.2.5-1.8,1.3-2.1,2.5-.2.9-.3,1.9-.9,2.7-.8,1-1.6,1.1-2.8,1.4-3.7,1.2-.2,11.8,5.2,7.3,1.4-1.2,1.9-3.4,2.5-5.1.4-1.1.7-2.3,1.3-3.4.6-1,2.8-2.3,3.5-3.3s.6-1.7.5-2.3c-.1-.8.7-1.3,1.2-.8.2.2.4.4.9.4.4-.1,1.5-1.5,3.1-1,.9.3,1.1-.6.8-1.6-.3-.9-.8-1.7-2.2-2.3-.7-.3-1.3-.5-1.9-.8Z"/><path class="cls-84" d="m136.22,154.12c0,.1-.1.2-.2.3-.5.6-1,0-1.7,0-.4,0-.6.3-.8.6-.5-.5-.5-1.6-.3-1.6.3-.2.8.7,1.7,1.1.7.1,1.1-.1,1.3-.4Z"/><path class="cls-73" d="m130.62,158.52c-1.8,1.8,2.9,4.7.1,7.1-1.3,1.2-.2,3.2-.3,5-.2,2.1.6,2.2.6,1.5,0-.9.1-1.9.2-2.9.1-.8.3-1.7.7-2.4.5-.8,1.3-1,2-1.6.7-.5.9-1.2,1-2.1.4-1.1-3-5.9-4.3-4.6Z"/><path class="cls-32" d="m150.02,172.42c-.3-.4-.7-.7-1.1-1-.3-.2-.7-.3-.9-.6-.1-.2-.3-.4-.4-.6-.3-.3-.5-.3-.9-.5-1.5-1-2.3-1.8-3.8-3.3-.7-.7-1.1-1.3-2-1.7s-2.4-1.2-3.4-2.3c-.6-.6-1.4-1.8-1.6-1.8-.9-.1.3,2,.5,2.3,1,1.5,2.5,2.5,3.9,3.5,1.5.9,2.3,2.6,3.8,3.4.7.4,1.6.8,2.2,1.4.7.7.7,1.6,1.3,2.3,1,1.2,3.5.3,2.4-1.1Z"/><path class="cls-90" d="m150.82,174.32c-.9-.8-2-.5-3-.8s-1.8-1.6-2.5-2.4c-.8-.9-1.5-1.9-2.2-2.9-.6-.9-1.2-1.9-2.2-2.5-.8-.5-1.7-.7-2.4-1.5-1-1-1.7-1.8-2.4-3-.8-1.6-1.7-4.2-3.4-5.2-1.8-1.1-3,.1-2.8,2,.3,2.4,2.6,4.5,4.3,6s3.3,3.2,4.9,4.9c.7.8,1.8,1.3,2.7,1.9,1.2.7,2.3,1.6,3.3,2.5.6.5,1.2,1.1,1.8,1.7.1.1.4.5.5.5.4.1.6-.6,1.1-.4.9.4-.2.6-.3.9-.4.6,1.1,1.4,1.7,1.2.7-.4,1.3-2.6.9-2.9Z"/><path class="cls-25" d="m149.32,175.02c-.1-.3-.5-.4-.8-.3-.3.1-.7.2-.8.2-.4.1-.6.7-.4,1,.2.3.6.5,1,.3,0,0,.4-.2.8-.4.3-.1.4-.4.2-.8Z"/><path class="cls-18" d="m133.72,205.12c-.6-1.1-.6-2.6-1.5-3.6-.3-.4-.4-.3-.6-.1-.4.4-.8.6-1.4.4-1.2-.3-1.8-1.9-2.4-2.8-.4-.5-.5-.4-1,0-.4.4-1.2.5-1,1,.6,1.9,3.6,3.3,4.9,4.3.8.6,1.2,1.6,1.9,2.3,1.5,1.4,1.7,0,1.1-1.5Z"/><path class="cls-83" d="m63.52,213.52c0,.3,7.8.6,17.5.6s17.5.2,17.5-.6c0-.2-3.3-.3-8.3-.4-2.7-.1-7.2-.7-10.6-.7-9.6,0-16.1.7-16.1,1.1Z"/><path class="cls-25" d="m89.02,185.82c-.2-.2-.3-.4-.4-.6,0-.5-.1-1-.5-1.2-.4-.3-.9-.3-1.2.1-.3.2-.4.5-.3.8.1.5.2,1,.4,1.5-.4.2-.7.4-1.1.6-.1.1-.1.2,0,.3.1.3.2.6.3.9s.2.6.3.9c0,.1.2.1.2.1q.1,0,.2-.1c.7-.9,1.4-1.9,2-2.9h0l.1-.1c.1-.1.1-.2,0-.3Z"/><path class="cls-51" d="m75.52,200.72c-.3,0-.6,0-.9.1h0l-12.2,1.8h0c-1.1.2-1.9,1.1-1.9,2.3,0,1.3,1,2.3,2.3,2.3h0l12.3.7h.3c2,0,3.6-1.6,3.6-3.6.1-2-1.5-3.6-3.5-3.6Z"/><path class="cls-17" d="m79.72,192.32c-1.6-1.3-3.3-2.5-5-3.5-1.2-.7-2.9-1.2-3.9.1-1,1.4.2,2.6,1.3,3.3,1.7,1.1,3.7,2,5.6,3-.9.5-1.8,1.1-2.6,1.7-.9.5-2.3,1.2-2.9,2-.4.6,0,1.5.6,1.9.8.6,1.8-.5,2.5-1,1-.6,2-1.2,3-1.7.9-.5,1.9-.9,2.6-1.6.7-.7.8-1.1.5-2-.4-.9-1-1.6-1.7-2.2Z"/><path class="cls-82" d="m85.92,185.22c-.2-.1-1.5-.7-.9-1,.2-.1.6.4.8.3.5-.1-.2-.6-.4-.7-.9-.6-2-1.2-2.9-1.8-.8-.5-1.5-1.6-2.4-1.8-.7-.1-1.6.6-1.2,1.4.3.7,1.6,1.4,2.2,1.9.8.6,2,1.3,2.9,1.6.5.2.5.1,1,.3.1,0,.9.2.9.2.1-.1.2-.3,0-.4Z"/><path class="cls-69" d="m81.42,165.62c-1.2-1.3-3.1-2.2-4.8-1.3s-1.8,2.4-1.4,4.1c.3,1.3-.3,2-.4,3.2-.1.9.4,1.8,1.4,1.7.8-.1,1.4-.9,1.9-1.5.8.7,1.4.7,2-.2.2-.2.3-.7.5-.9.3-.3.5,0,.6-.4.2-.4-.3-.9-.1-1.2s.5-.3.7-.8c.3-.9.2-2-.4-2.7Z"/><path class="cls-57" d="m76.12,163.12c-2,1-2.8,4-1,5.8.5.5,2.1,1.4,1.8,0-.1-.4-.4-1-.2-1.4.2-.5.9-.6,1.3-.3.5.4.2.8.7.6.5-.1,1.3-.7,1.8-.9.8-.3,2-.5,1.6-1.5-.8-2.1-4.1-3.3-6-2.3Z"/><path class="cls-7" d="m78.02,173.12c-1-.8-1.2-2.1-2.7-2.5-.5-.1-.6.1-.8.4-.6.7-.2,1,.4,1.3.9.4,2.2.8,2.9,1.6.2.2.4.9.6.7.4-.3.4-.9-.4-1.5Z"/><path class="cls-7" d="m79.02,176.12c0-1.3-1-2.5-2-3.2-.5-.4-1.1-.7-1.7-.9-.8-.3-1.1-.6-1.7,0-1.2,1.1-1.7,2.6-2.2,4.1-.6,1.7-1.4,3.5-1.9,5.3-.5,1.7-.7,3.5-1,5.3-.1.5-.5,1.9-.3,2.4s1.2.5,1.8.5c1.5,0,3.3-.3,4.7-.9.6-.2,1.2-.6,1.8-.9.4-.2,1.6-.1,1.7-.5.1-.2-.3-.7-.3-.9-.2-.5-.1-.9,0-1.5.2-.9.7-1.7,1-2.6.7-2,0-4.1.1-6.2Z"/><path class="cls-92" d="m89.22,184.02c-.5-.9-1-1.4-2.1-1-.6.3-.8.4-1.3,0s-.9-.9-1.4-1.4c-.4-.4-1.4-1.3-2-1.6-.3-.1-.7-.2-1,.1-.8.7-.8.9-.3,1.4.2.2,1,.9,1.3,1.1,1,.7,2.2,1.1,3.2,1.8.3.3.6.8.9,1,.7.4.2-.2.2-.6,0-.6.8-.9,1.3-.6.4.2.3.6.3,1.1s-.1.7.3.3c.2-.2,1-1.4.6-1.6Z"/><path class="cls-57" d="m73.42,166.12c-.2-.2-.7.1-1,.1-.5.1-1,0-1.5,0-.9,0-1.9-.2-2.8.3-.6.4-.8,1-1.2,1.6-.5.7-1,.9-1.8,1-1.7.2-3.2.3-3,2.4.1,1.4.7,2.7,1.6,3.7s2.5,2,3.8,1-.1-3.1,1.1-4c.6-.4,1.4-.2,2-.7.8-.6.7-1.5.9-2.4.3-1,.9-.8,1.6-1.4.8-.2,1-1.1.3-1.6Z"/><path class="cls-25" d="m62.82,213.42c-4.7,0-8.5-3.8-8.5-8.5s3.8-8.5,8.5-8.5,8.5,3.8,8.5,8.5-3.8,8.5-8.5,8.5Zm0-15.4c-3.8,0-6.9,3.1-6.9,6.9s3.1,6.9,6.9,6.9,6.9-3.1,6.9-6.9-3.1-6.9-6.9-6.9Z"/><path class="cls-25" d="m93.72,213.42c-4.7,0-8.5-3.8-8.5-8.5s3.8-8.5,8.5-8.5,8.5,3.8,8.5,8.5-3.8,8.5-8.5,8.5Zm0-15.4c-3.8,0-6.9,3.1-6.9,6.9s3.1,6.9,6.9,6.9,6.9-3.1,6.9-6.9-3.1-6.9-6.9-6.9Z"/><path class="cls-93" d="m75.52,204.42c-.1,0-.2-.1-.2-.2s0-.2.2-.2l5-1.2c.1,0,.2,0,.2.2,0,.1,0,.2-.2.2l-5,1.2c.1,0,0,0,0,0Z"/><path class="cls-31" d="m89.32,193.92c-.6-1.6-1.1-3.1-1.7-4.7,0-.1-.1-.5-.2-.6-.1,0-1.1.3-1.1.4-.5.4.4,1,.3,1.5-.1.2-.8.5-1,.6-.7.4-1.5.8-2.2,1.3-1.9,1.1-3.8,2.2-5.7,3.3-1.2.7-2.4,1.4-3.6,2.1l-2.1-5.5c-.9.4-.9.3-.6,1.2.4,1.1.8,2.1,1.2,3.2.1.3.7,1.4.6,1.6-.1.3-1.1.7-1.3.8-1.9,1.1-3.8,2.3-5.7,3.4,0,0-3.4,2.1-3.5,2.2-.7,1.1,2.6.6,3,.6,2.3-.1,4.6-.3,6.9-.4.9,0,2.5.2,3.4-.3.4-.2.9-1,1.2-1.3.8-.8,1.5-1.7,2.3-2.5,1.2-1.3,2.3-2.9,3.7-4,1.2-1,2.8-1.7,4.2-2.4.3-.2.6,0,.8.2,1.5,3,3.1,5.9,4.6,8.9.1.3.5,1.5.8,1.6.6.2.3-.4.2-.6-.6-1.9-1.6-3.7-2.3-5.5-.8-1.8-1.5-3.5-2.2-5.1Zm-15,4.5c1.5-.8,3-1.6,4.5-2.4.4-.2.9-.6,1.3-.6.5,0,1.1.4,1.7.7.3.2.3.5.1.8l-6.3,6.5-1.3-5Zm.8,5.2l-10.5.9c-.2,0-.3-.3-.1-.4l9-5.3,1.6,4.8Zm7.2-7.9l-1.1-.5c-.2-.1-.2-.4,0-.5l5.4-2.8c.2-.1.4,0,.5.2s.1.4,0,.7c-.3.4-1.1.8-1.5,1.1l-2.4,1.8c-.3,0-.6.1-.9,0Z"/><path class="cls-75" d="m82.92,202.02c0-1.3-1.4-1.2-2.2-1.6-.7-.4-1-1.3-1.9-1.6-.9-.3-1.7.7-2.5.4-.6-.2-.3-1.5-1.2-1.1-.7.3-.6,1.9-.6,2.4,0,.2-.2,1,0,1.2.2.3,1.1.3,1.4.4.7.1,7.1.9,7-.1Z"/><path class="cls-25" d="m74.12,191.72c-.2-1.2-1.5-1.2-2.5-1.2-1.1,0-4-.3-4,1.2,0,.8.5.6,1.3.7.9.1,1.5.6,2.3.8.8.2,1.3,0,1.8-.5.3-.1,1.2-.7,1.1-1Z"/><path class="cls-70" d="m84.52,189.52c-.2-.3-1.2-.5-1.5-.6-.6-.2-1.2-.4-1.8-.6-1.1-.3-2.4-.8-3.6-.9-1,0-2,.8-2.9,1.1-1.2.4-2.6.5-3.9.7-.7.1-2.1-.2-1.7.6.4,1,2.2,1.3,3,1.6,2.7.7,5.6.6,8.3.6-.5.9-1.3,1.5-1.9,2.3-.5.6-1.6,2-2,2.5-.3.5.4,1.3,1,1.4.5,0,1.5.6,1.8.4.8-.7,3.1-3.8,3.8-4.7.5-.6,1.4-1.5,1.7-2.2.6-.7.2-1.5-.3-2.2Z"/><path class="cls-34" d="m78.42,176.32c-.7-1.5-3.1-2.6-3.4-1.4-1,3.9,1.8,5.1,1.3,6.5-.6,1.7.2,2.4.4,2.9s-.9,2.1.5,2.5c.4.1.8-.2.7-.4-.2-.5-.1-.9,0-1.5.2-.9.7-1.7,1-2.6.7-2,.3-4.4-.5-6Z"/><path class="cls-7" d="m82.72,179.62c.1-.5-.8-.7-1.1-.9-.5-.4-.6-.9-.9-1.3-.4-.4-.8-.4-1.2-.9-.3-.4-.5-.9-.7-1.3-.5-.9-1.4-1.9-2.6-1.5-.8.2-1.3,1.2-1.1,1.9.4,1.6,1.5,3.3,2.5,4.4.3.3.9.6,1.3.9.4.3,1.1,1.3,1.6,1.4.4,0,2.6-2.3,2.2-2.7Z"/><path class="cls-35" d="m74.42,167.72c-.2-.6.2-1.8-.3-2.2-.5-.3-1.2.1-1.3.6s.3,1.2.6,1.6c.1.4,1.1.5,1,0Z"/><path class="cls-7" d="m123.42,134.32l-19.2-3.1s1.7-8.7,5.4-16.1c3.4-6.9,9.1-14.6,9.1-14.6l4.7,33.8Z"/><polygon class="cls-71" points="127.52 136.72 110.32 136.72 107.22 134.52 116.22 134.52 127.02 135.22 127.52 136.72"/><path class="cls-93" d="m123.42,134.32s-3.9-17.3-5.2-22c-.9-3.2.5-11.7.5-11.7l4.7,33.7Z"/></g><path class="cls-8" d="m175.47,64.51c9.65,13.15,15.35,29.37,15.35,46.92,0,43.85-35.54,79.39-79.39,79.39-17.56,0-33.78-5.7-46.92-15.35,14.45,19.68,37.75,32.47,64.04,32.47,43.85,0,79.39-35.54,79.39-79.39,0-26.29-12.78-49.59-32.47-64.04Z"/><path class="cls-8" d="m74.62,133.93c-5.16-7.03-8.21-15.7-8.21-25.09,0-23.44,19-42.44,42.44-42.44,9.39,0,18.06,3.05,25.08,8.21-7.72-10.52-20.18-17.35-34.23-17.35-23.44,0-42.44,19-42.44,42.44,0,14.05,6.83,26.51,17.36,34.23Z"/><path class="cls-9" d="m99.77,18.32s-40.2,8.19-61.71,42.74c-.87,1.39-2.7,1.82-4.09.95-1.39-.87-1.82-2.7-.95-4.09C55.87,21.21,98.58,12.49,98.58,12.49c1.61-.33,3.18.71,3.51,2.32.32,1.61-.71,3.18-2.32,3.51Z"/><ellipse class="cls-15" cx="109.49" cy="13.02" rx="3.67" ry="3.52" transform="translate(-.74 10.43) rotate(-5.43)"/><path class="cls-9" d="m63.65,229.33l37.87,49.21c1.02,1.49.65,3.53-.84,4.55-1.49,1.02-3.53.64-4.55-.84l-37.88-49.22c-1.02-1.49-.64-3.53.84-4.55,1.49-1.02,3.53-.65,4.55.84Z"/></g></g></g></g></svg>