<?xml version="1.0" encoding="UTF-8"?><svg id="_圖層_2" xmlns="http://www.w3.org/2000/svg" xmlns:xlink="http://www.w3.org/1999/xlink" viewBox="0 0 354.06 247.64"><defs><style>.cls-1{fill:#fff;}.cls-2{fill:#59242e;}.cls-3,.cls-4,.cls-5,.cls-6{fill-rule:evenodd;}.cls-3,.cls-7{fill:#ffe6ca;}.cls-8{fill:#e9a760;}.cls-9{fill:#cf5f4c;}.cls-4,.cls-10{fill:#e28a2b;}.cls-11{fill:#f59e73;}.cls-12{fill:#ffeed4;}.cls-13{fill:#471b17;}.cls-14{fill:#9c593d;}.cls-15{clip-path:url(#clippath-1);}.cls-16{fill:#ffc04f;}.cls-17{fill:#d1d5e3;}.cls-18{fill:#eb8b65;}.cls-19{fill:#fae7dc;}.cls-20{clip-path:url(#clippath);}.cls-21{fill:#36593f;}.cls-22{fill:#63311c;}.cls-23{fill:#c45547;}.cls-24{fill:#1a0504;}.cls-10{clip-rule:evenodd;}.cls-25{fill:#66281b;}.cls-26{fill:#964939;}.cls-5{fill:#efaf3f;}.cls-27{fill:#2e0c12;}.cls-6{fill:rgba(226,138,43,.5);opacity:.5;}</style><clipPath id="clippath"><path class="cls-10" d="m192.6,109.38l12.39,42.27L25.76,209.14C.06,198.04-4.63,180.85,10.7,157.77l181.9-48.4Z"/></clipPath><clipPath id="clippath-1"><circle class="cls-1" cx="233.85" cy="120.27" r="97.92" transform="translate(-16.55 200.58) rotate(-45)"/></clipPath></defs><g id="_第一cut"><g id="global_action2"><path class="cls-6" d="m23.79,216.29c-25.68-11.04-30.37-28.24-15.04-51.32l103.32-27.51c-4.72-55.76,30.23-109.06,85.98-125.41,63.66-18.67,130.51,17.86,149.17,81.52,18.68,63.67-17.85,130.51-81.53,149.18-55.75,16.36-113.95-9.64-140.08-59.11l-101.82,32.64Zm123.45-39.58c22.13,38.03,68.09,57.6,112.18,44.67,51.87-15.2,81.63-69.65,66.41-121.52-15.2-51.86-69.65-81.62-121.52-66.41-44.09,12.93-72.21,54.22-70.29,98.18l13.22,45.08Z"/><path class="cls-4" d="m192.6,109.38l12.39,42.27L25.76,209.14C.06,198.04-4.63,180.85,10.7,157.77l181.9-48.4Z"/><g class="cls-20"><rect class="cls-8" x="-25.4" y="136.64" width="73.43" height="97.74" transform="translate(-51.74 10.68) rotate(-16.34)"/><path class="cls-3" d="m23.73,166.63s-3.34,1.67-5.57,4.32c-1.08,1.29-2,2.84-1.39,4.61.53,1.56-.31,3.24-1.86,3.77-1.55.53-3.24-.3-3.77-1.86-1.33-3.9.08-7.49,2.47-10.34,2.98-3.55,7.45-5.81,7.45-5.81,1.46-.73,3.25-.14,3.99,1.32.74,1.47.15,3.26-1.32,3.99Z"/></g><path class="cls-3" d="m98.16,147.84l-32.64,9.84c-1.57.47-3.23-.42-3.71-1.99-.47-1.57.42-3.23,1.99-3.7l32.64-9.84c1.57-.47,3.23.42,3.7,1.99.47,1.57-.42,3.23-1.99,3.7Z"/><circle class="cls-12" cx="234.64" cy="121.42" r="113.71"/><circle class="cls-1" cx="233.85" cy="120.27" r="97.92" transform="translate(-16.55 200.58) rotate(-45)"/><g class="cls-15"><path class="cls-26" d="m286.78,119.41c-.28-1.19.33-2.84-1.06-2.73-2.81.22-8.36-.34-9.52,0-1.13.33-1.49,1.41-1.8,2.47-.46,1.56-1.16,3.94-.91,5.58.24,1.55,1.82,1.39,3.05,1.53,2.59.29,5.57.42,8.09.29,1.15-.06,2.03-.18,2.47-1.51.49-1.47.02-4.12-.34-5.62Z"/><path class="cls-26" d="m347.38,145.97c-.94-1-5.31-4.98-6.17-5.96-2.58-2.94-11.48,1.86-9.69,5.07,1.63,2.92,4.88,5.89,8.02,7.03,4.47,1.63,6.97,2.79,10.14-3.34.12-.24-1.19-1.62-2.29-2.8Z"/><path class="cls-26" d="m279.13,116.6c-2.28,0-4.95.07-6.43-.48-4.54-1.71-9.9-8.49-12.77-10.85-.32-.27-.77.11-.61.42-.88,1.5-3.63,2.21-4.33,3.8-.29.66,11.53,14.49,17.04,16,.73.2,3.88.82,4.51.78.82-.05,1.38-3.6,1.83-4.57.71-1.54,2.48-5.09.75-5.09Z"/><path class="cls-26" d="m260.37,104.45c-.02-.11-.03-.22-.05-.34-.01-1.37-.05-2.77-.41-4.05-.01-.04-.03-.08-.04-.12-.4-1.69-1.31-3.48-2.2-4.8-.62-.91-1.44-.94-1.83-.09-.65-.99-1.29-1.98-2.16-2.8-.48-.45-1.41-1.18-1.87-.31-.47.89,1.18,2.48,1.58,3.09.43.65.86,1.35,1.25,2.04.26.45.48.92.75,1.35.11.17.17.42.03.57-.04.04-.1.08-.15.07-.19-.02-.53-.85-.63-1.03-.25-.41-.51-.81-.79-1.21-.54-.77-1.13-1.5-1.77-2.19-.59-.64-2.46-2.86-3.56-1.93-.93.79.3,1.81.83,2.33,1.03,1.03,1.9,2.17,2.61,3.4.02.04-.03.07-.06.04-.9-1.24-2.03-2.18-3.32-2.01-.13.02-.28.14-.32.27-.25.96.88,1.52,1.46,2.14.79.85,1.28,2.06,1.87,3.04-1.16-1.11-2.64-1.87-2.82-.78-.14.87,1.32,1.64,1.81,2.13.91.92,1.6,2.11,2.25,3.22.46.78.96,1.53,1.49,2.25.38.52,1.52,2.36,1.73,2.42,1.1.31,5.99-3.89,5.94-3.96-.77-.98-1.33-1.74-1.62-2.74Z"/><path class="cls-26" d="m315.76,116.94c-1.36-.9-1.45-2.08-1.49-3.58-.12-3.86.23-6.63.38-10.49.18-.28-.04-.78-.47-.68-1.64.35-3.16,1.24-4.54,2.17-1.26.86-2.44,2.32-3.84,2.94-.03,0-.05.02-.08.03-.12.05-.23.1-.35.14-.5.15-.33.89.13.86.07,2.17.34,6.08-1.47,7.07-1.91,1.04-5.03.7-7.14.69-.51,0-.55.71-.15.85-.01.06-.02.13,0,.21.85,3.2,2.09,6.26,3.79,9.09,1.3,2.17,3.22,5.49,5.7,6.43,2.67,1.02,5.15-1.55,7.12-2.98,3.31-2.4,6.62-4.79,9.93-7.19.1-.07.15-.17.17-.27.12-.19-5.65-3.94-7.7-5.29Z"/><path class="cls-19" d="m341.84,140.43c.18-.4.11-.86-.18-1.19-1.51-1.67-6.2-6.86-7.31-8.39-2.31-3.19-4.89-6.57-8.4-9-.15-.11-1.46,5.85-2.1,8.52-.59,2.43-.7,4.79-.81,7.29-.06,1.39-.24,2.79-.57,4.14-.17.68-.29,1.27-.23,1.99.06.81.13,3.54,1.26,3.62.32.03.87.6,1.11.78.82.59,1.64,1.18,2.47,1.75,1.15.79,3.08,2.3,4.88,2.83.09.03.18,0,.26-.04,2.17-1.44,4.07-3.27,5.66-5.33.79-1.02,1.5-2.1,2.14-3.22.32-.57.62-1.15.9-1.75.1-.21.6-1.27.93-1.99Z"/><path class="cls-19" d="m294.54,115c-5.98-.09-11.54.06-15.63.36-.19.01-.34.18-.37.37-.53,3.31-.73,11,1.08,16.66.21.65.18.6,1.72.94,3.03.68,11.42,1.88,11.42,1.67,0-4.09.29-5.72,1.1-9.72.61-2.99.95-10.28.68-10.28Z"/><path class="cls-21" d="m329.37,244.13c-.51-5.34-1.03-10.68-1.57-16.02-1.01-10.07-3.42-46.78-4.78-56.75.26-.86-.49-1.82-.7-2.53.01-.3.02-.6.03-.9.02-.42-.41-.6-.81-.57-2.03-2.54-6.95-3.8-10.73-3.91-4.32-.12-21.7,2.06-21.76,2.61-1.63,16.72-6.41,33.15-8.93,49.79-2.27,15.02-3.51,30.13-3.8,45.26,0,.2.16.39.4.45,3.57.92,7.09,1.42,10.99,1.44,3.94.02,9.26.08,13.01-1.31.07-7.06,1.01-14.09,1.55-21.14.7,3.65,1.44,7.3,2.2,10.95.39,1.88,1.45,8.63,2.41,9.67,1.8,1.96,18.96.66,22.81.34,1.31-.11,0-13.89-.33-17.37Z"/><path class="cls-26" d="m315.75,94.98c-.34-2.78-2.98-4.38-5.69-4.34-3,.05-7.08,1.79-8.57,4.49-1.48,2.68-.71,6.18-.46,9.05.17,1.95-.09,4.63,1.83,5.8,2.03,1.23,4.63.28,6.59-.61,1.86-.85,4.63-1.94,5.04-4.19.38-2.1.75-4.21.73-6.33.48-1.22.69-2.53.53-3.88Z"/><path class="cls-19" d="m329.14,125.13c-.58-1.54-2.9-3.14-4.2-3.96-2.2-1.39-4.49-2.56-6.8-3.74-.39-.2-.79-.4-1.23-.44-.9-.08-2.04.98-2.87,1.3-1.18.46-2.45.72-3.72.75-2.28.06-5.74-.33-6.53-2.88-.02-.07-.06-.12-.1-.16.05-.16,0-.35-.16-.45-.16-.26-5.03-.36-6.42-.49-3.28-.3-6.56.31-9.72,1.14-.51.13-.5.38-.3.78.83,1.62,1.53,3.29,2.15,4.98.22.59-.14,1.89-.19,2.53-.07,1-.14,2-.2,2.99-.12,1.92.19,3.91-.33,5.76-1.55,5.43-2.54,39.69-.96,40.13.37.1.77.08,1.15.07,6.23-.22,14.05,1.84,20.05,3.24,2.93.68,5.96,1.43,9,1.16,1.48-.13,2.93-.53,4.2-1.31.69-.43,1.21-.8,1.46-1.54.7-2.1.43-5.01.58-7.24.19-2.68.36-5.37.54-8.05.35-5.48.69-10.97.98-16.45,0-.16-.02-.38.03-.53.86-2.48,1.6-5.01,2.37-7.52.78-2.54,2.18-7.54,1.23-10.05Z"/><path class="cls-26" d="m352.59,124.54c-1.43,4.32-3.41,8.45-5.88,12.26-1.76,2.71-3.69,4.98-5.47,7.68-.67,1.01-3.6,5.39-3.12,6.59.21.52,2.29,2.14,7.67,1.83,4.16-.24,12.38-23.33,13.48-29.41.04-.21-6.61.82-6.69,1.05Z"/><path class="cls-26" d="m361.15,110.31c-.76-1.49-2.62-.67-3.74.02-.84.28-1.78.19-2.62.53-.62.25-1.01.7-1.31,1.23-.31.22-.63.43-.96.62-.63.37-1.37.67-1.78,1.3-.49.75-.43,1.79-.26,2.75.01.08.01.16,0,.25-.18.8-.32,1.66-.21,2.39.13.88.81,1.19,1.62,1.33.07.01.16,0,.23-.01-.07,0,.23,2.17.25,2.36.1.88.09,1.76-.15,2.62-.12.58.06.51.46.54.94.06,1.92.21,2.87.16.84-.05,1.64-.37,2.43-.65.18.16.73.15.83-.16,1.27-4.23,1.66-8.53,2.36-12.88.12-.77.37-1.68,0-2.42Z"/><path class="cls-24" d="m310.87,98.96c-.36-.45-.93-.12-1.19.28-.34.53-.35,1.16-.11,1.74.23.55.75.63,1.17.22.48-.47.5-1.36.29-1.95-.04-.12-.1-.22-.16-.29Z"/><path class="cls-24" d="m303.34,99c-.36-.45-.93-.12-1.19.28-.34.53-.35,1.16-.11,1.74.23.55.75.63,1.16.22.48-.47.5-1.36.29-1.95-.04-.12-.1-.22-.16-.29Z"/><path class="cls-25" d="m312.73,105.76c-1.02,2.92-3.69,3.98-6.47,4.69-.29.07-.17.52.12.44,2.97-.75,5.71-1.92,6.79-5.01.1-.28-.35-.4-.44-.12h0Z"/><path class="cls-25" d="m305.06,99.87c-.35.42-.73.94-.68,1.52.05.58.54.95,1.01,1.22.26.15.49-.25.23-.4-.35-.2-.77-.47-.78-.91-.01-.41.3-.8.55-1.1.19-.23-.14-.55-.33-.33h0Z"/><path class="cls-13" d="m311.87,96.25c-.06-.03-.12-.06-.17-.08-.96-.38-2.16-.27-2.98.39-.71.57-.66,1.52.28,1.79.42.12.87,0,1.29-.03.75-.06,1.73.08,2.39-.37.88-.6-.16-1.39-.8-1.7Z"/><path class="cls-13" d="m304.8,97.05c-.26-.71-1.34-1.03-1.93-.99-.54.04-1.04.3-1.44.66-.31.28-.96.91-.72,1.37.19.37.79.39,1.14.33.34-.06.62-.17.97-.18.32,0,.64.05.96.04.64-.03,1.28-.51,1.02-1.24Z"/><path class="cls-25" d="m306.12,101.91c.24-.01.46.02.68.12.27.13.5-.27.23-.4-.29-.14-.59-.2-.91-.19-.29.02-.3.48,0,.46h0Z"/><path class="cls-13" d="m315.28,89.91c-1.42-.15-1.22-2.48-2.5-3.28-1.36-.84-2.96-.71-4.31.08-.33.2-.66.65-.97.83-1.51.88-1.81.44-3.1.31-1.02-.11-2.03.02-2.99.41-.72.29-2.8,1.55-2.99,2.61-1.36.86-2.15,2.06-2.26,3.74-.07,1.08.15,2.42,1.09,3.08.29.2.62.32.95.44.49.18.99.36,1.51.43,1.13.15,2.04-.39,2.72-1.24.42-.54.61-1.2.9-1.81.31-.64.77-1.15,1.18-1.73.17-.24.44-.38.73-.39,1.27-.03,2.37.79,3.66.89.93.07,1.78-.2,2.58-.63.33-.17.71-.31,1.06-.19,1.09.38,1.62,2.69,1.84,3.67.33,1.43.41,2.91.43,4.37,0,.35.46.56.72.29,1.54-1.6,2.49-4.32,2.64-6.49.16-2.42-.75-5.19-2.88-5.42Z"/><path class="cls-26" d="m316.15,98.59c-1.05.41-1.6,1.5-1.97,2.58-.17.03-.33.15-.35.37-.07.84-.38,3.5,1.36,2.88,1.32-.47,1.94-2.07,2.24-3.31.24-.96.39-3.16-1.28-2.51Z"/><path class="cls-25" d="m308.6,104.02c-1.28.34-2.98,1.14-4.26.53-.34-.17-.65.35-.3.52,1.5.72,3.23-.06,4.72-.47.37-.1.21-.68-.16-.58Z"/><path class="cls-25" d="m316.58,99.42c-1.2.43-1.59,1.97-1.76,3.08-.04.29.4.42.44.12.14-.92.42-2.4,1.44-2.76.28-.1.16-.54-.12-.44h0Z"/><path class="cls-25" d="m351.62,116.68c-.02.98.11,1.92.41,2.85.09.28.54.16.44-.12-.29-.89-.42-1.8-.4-2.73,0-.3-.45-.3-.46,0h0Z"/><path class="cls-25" d="m256.08,96.68c.76,1.73,1.28,3.07,1.33,4.97.03,1.08.14,2.06.79,2.96.17.24.57,0,.4-.23-.95-1.3-.6-2.8-.79-4.29-.16-1.28-.82-2.47-1.33-3.64-.12-.27-.52-.04-.4.23h0Z"/><path class="cls-25" d="m251.93,99.07c.3.42.52.87.66,1.36.08.29.53.16.44-.12-.15-.53-.38-1.02-.71-1.47-.17-.24-.57,0-.4.23h0Z"/><path class="cls-25" d="m342.49,142.39c-.86,1.53-1.67,3.09-2.42,4.68-.13.27.27.5.4.23.76-1.58,1.57-3.14,2.42-4.68.15-.26-.25-.49-.4-.23h0Z"/><path class="cls-27" d="m287.03,124.34c.76,3.85,1.37,7.72,1.84,11.62.03.29.5.29.46,0-.47-3.94-1.09-7.85-1.85-11.74-.06-.29-.5-.17-.44.12h0Z"/><path class="cls-27" d="m326.43,135.32c-1.75,4.44-2.91,9.06-3.48,13.8-.04.29.43.29.46,0,.56-4.7,1.72-9.28,3.46-13.68.11-.28-.34-.4-.44-.12h0Z"/><path class="cls-27" d="m298.14,183.68c1.75.9,2.69,1.72,3.05,3.74.29,1.65.31,3.36.37,5.03.15,4.26.13,8.53.17,12.8.09,10.76.19,21.51.28,32.27,0,.3.46.3.46,0-.1-11.57-.2-23.13-.3-34.7-.04-4.25,0-8.52-.25-12.76-.09-1.44-.13-3.03-.72-4.37-.55-1.25-1.65-1.8-2.82-2.39-.26-.13-.5.26-.23.4h0Z"/><path class="cls-26" d="m162.92,93.67c-.81-1.16-1.92-2.14-3.23-2.8-3.73-1.88-9.43-.87-12.64,1.63-2.34,1.82-3,4.58-3.37,7.29-.45,3.28-.99,6.93-2.93,9.75-1.08,1.56-2.65,2.99-3.15,4.85-.55,2.04-.07,4.16-.98,6.16-.51,1.12-1.17,2.19-1.24,3.44-.1,1.61.66,4.79,2.7,4.98.05,0,.08,0,.12-.01.74-.14,1.41-.02,2.21-.25,1.06-.31,2.12-.59,3.22-.71,4.41-.46,8.47,4.29,12.73,1.62,2.4-1.5,3.77-3.85,3.97-6.54.16-2.17,3.83-1.17,4.76-3.13,1.27-2.69,1.39-9.97,0-12.84-.69-1.42-.5-3.4-.59-4.92-.09-1.51.09-3.02-.07-4.52-.15-1.43-.68-2.82-1.51-4.01Z"/><path class="cls-11" d="m155.12,120.85c1.91-.46,3.82-1.13,5.22-2.61.48-.52.86-1.09,1.24-1.67-1.07-.13-2.44-.54-2.82-1.73-.22-.69-.09-1.68-.1-2.39-.03-1.82-.03-3.65,0-5.47,0-.16-.05-.29-.12-.39-.88-2.17-2.09-4.13-3.63-5.78-1.09-1.17-2.62-2.74-4.21-1.62-.01.01-.02.02-.04.03-.39-.11-.85.09-.81.65.32,3.66.66,7.32.72,11,.04,2.54.25,4.91-1.21,7.16-.63.98-1.58,1.85-2.45,2.68,2.68.75,5.47.83,8.21.16Z"/><path class="cls-19" d="m179.5,264.56c-1.3-2.45.64-22.74.67-23.48.2-4.81-3.51-3.31-7.42-3.78-.13-.02-.24,0-.33.04-.42-.15-.95.04-.93.6.44,9.03.44,18.07-.02,27.1,0,.04.01.08.02.12-.04.4-.08.8-.09,1.19-.03.85.16,1.54,1,1.93,1.18.54,2.81.31,4.07.3,1.44-.01,3.06.1,4.4-.48.28-.12.38-.34.36-.56.81.09-1.35-2.22-1.75-2.97Z"/><path class="cls-11" d="m211.73,108.25c-.02-.08-.04-.16-.08-.24-.8-1.71-2.34-3.02-4.19-3.46-.4-.1-.74.03-.98.25-.2.05-.4.17-.56.38-2.56,3.39-5.98,8.76-10.49,9.31-4.69.58-9.51.51-14.22.32-.36-.02-.64.13-.82.35-.76-.1-1.59.58-1.08,1.4,1.49,2.41,1.06,6.64,1.24,9.39.04.59,11.85-.39,13.7-.81,1.87-.42,4.17-.71,5.83-1.7.48-.29.92-.66,1.34-1.03,1.86-1.62,3.58-3.38,5.25-5.19,2.11-2.29,3.83-4.91,5.29-7.65.27-.51.1-1.01-.23-1.33Z"/><path class="cls-19" d="m146.13,267.06c1.28.02,2.53.12,3.43-.85.48-.51.58-.97.54-1.47-1.23-2.24-.97-5.2-.61-7.72.5-3.52,3.34-15.2,3.05-17.14-.13-.87-.72-.8-1.52-1.11-.29-.11-.52-.01-.66.17-2.1-1.26-4.78-1.06-6.67.63-.27.24-.26.55-.11.79-.29,3.91-.58,7.82-.86,11.73-.21,2.89-.65,5.75-1.11,8.6-.09.56-.38,2.59-.61,4.18-.07.52.16,1.05.63,1.3,1.36.71,3.16.86,4.53.88Z"/><path class="cls-9" d="m179.84,174.71c-.12-.58-.63-.76-1.08-.66-1.28-3.22-3.68-6.41-7.54-6.12-3.43.26-5.63,4.05-6.34,7.04-2.69,11.4-.07,22.29.87,33.65.49,5.95.31,11.11-.12,17.03-.44,6.12-.68,12.26-.87,18.39-.07,2.19-.61,7.55-.16,8.42.55,1.05,7.14,1.84,9.72,1.76,2.23-.07,9.76.22,11.4-1.33.21-.2.26-.51.19-.81,1.39-25.94-.65-51.96-6.08-77.37Z"/><path class="cls-9" d="m165.88,199.31c-.04-8.86-.64-17.75-1-26.6-.02-.48-.33-.77-.7-.88-3.72-3.14-8.61-6.65-13.64-4.33-4.98,2.3-6.64,6.9-7.12,11.77-.72,7.29-.16,16.83-.38,24.16-.51,16.58-5.93,32.54-6.14,49.15-.01.88,10.98,3,20.46-.15.56-.19.82-.71,1.07-1.24,3.39-7.18,7.49-43.24,7.44-51.87Z"/><path class="cls-27" d="m169.06,178.83c-1.02,2.18-2.68,4.13-3.22,6.52-.47,2.1-.27,4.41-.25,6.55.04,4.68.17,9.38-.17,14.05-.02.3.44.29.46,0,.33-4.39.22-8.81.18-13.21-.02-2.04-.15-4.16.06-6.19.29-2.84,2.17-4.98,3.34-7.49.12-.27-.27-.5-.4-.23h0Z"/><path class="cls-27" d="m143.51,212.29c.14,4.26.13,8.51-.02,12.77-.01.3.45.3.46,0,.15-4.26.16-8.51.02-12.77,0-.3-.47-.3-.46,0h0Z"/><path class="cls-27" d="m172.73,197.9c-1.63,10.95-3.01,21.95-4.12,32.96-.03.29.43.29.46,0,1.11-10.98,2.47-21.93,4.1-32.84.04-.29-.4-.42-.44-.12h0Z"/><path class="cls-19" d="m190.62,114.88c-.23-.43-11.99-1.13-13.89-1.16-2.97-.04-7.25.31-10.18.73-.36.05,3.06,8.28,4.6,12.01,1.27,3.06,2.39,8.06,5.01,10.2.28.23,1.73,2.69,1.98,2.53,3.97-.17,12.2-5.35,13.89-7.71.7-.98-.38-14.38-1.41-16.6Z"/><path class="cls-11" d="m156.77,93.16c-.07-.07-.17-.13-.28-.17-3.54-1.24-8.46.26-9.83,3.75-.84,2.14.02,4.47,1.47,6.18,1.32,1.55,1.94,2.99,2.69,4.82.27.67.51,1.74,1.04,2.29.98,1.03,3.07.89,4.41.99,1.74.12,3.66.04,4.8-1.4,1.2-1.52.91-2.92,1.01-4.7.25-4.77.27-10.11-5.3-11.75Z"/><path class="cls-19" d="m184.74,188.9c-.07-.48-.13-.95-.18-1.42-1.13-10.41-1.47-21.12-2.86-31.51-.64-4.81-1.08-9.71-1.93-14.49-.86-4.85-2.28-9.58-3.22-14.41-.7-3.58-.49-12.57-6.78-12.63-3.23-.03-6.98.11-10.12.6-.06.01-.33.28-.38.72-.27,2.33-4.32,2.41-5.99,2.33-1.54-.08-3.01-.47-4.46-.98-1.1-.39-11.44,2.57-14.39,7.76-1.22,2.14,2.96,6.99,3.47,9.25,1,4.47-.03,5.92.93,10.39.19.88.36,1.75.53,2.64.59,3.07,1.37,23.83,1.28,29.21-.05,2.98.06,5.96.11,8.94.06,3.47-.8,10.14-.72,10.84.17,1.54,1.37,2.92,7.63,2.73,5.8-.17,11.74-.53,17.53-1.52,6.26-1.07,12.5-1.37,18.82-1.75.31-.02.57-.18.67-.48.67-1.94.35-4.14.06-6.21Z"/><path class="cls-11" d="m140.13,164.21c-2.96-1.16-7.03-5.64-9.01-9.41-.75-1.44-.62-1.54.21-3.04.55-.98,2.14-4.43,2.66-5.21-.69-1.27-1.39-2.53-2.16-3.75-1.15-1.82-2.43-3.63-3.6-5.49-1.39,2.27-2.83,4.96-4.24,7.77-1.3,2.59-2.77,6.4-2.61,8.09.22,2.25,2.9,5.33,4.77,7.47,1.09,1.25,2.21,2.48,3.36,3.68,1.11,1.16,5.43,5.43,6.36,5.88.88.43,1.7.24,2.61-.18,1.85-.85,3.44-5.13,1.66-5.82Z"/><path class="cls-19" d="m137.93,121.48c-5.55,3.56-12.75,18.88-13.52,20.94-.36.95,3.4,9.01,9.78,12.39,6.72,3.56,11.99-15.61,11.55-23.35-.16-2.77-7.32-10.3-7.81-9.99Z"/><path class="cls-27" d="m180.76,183.19c-10.32,3.61-21.06,5.84-31.96,6.65-.29.02-.3.48,0,.46,10.94-.81,21.73-3.05,32.09-6.67.28-.1.16-.54-.12-.44h0Z"/><path class="cls-27" d="m167.85,142.18c-1.9,13.52-4.7,26.9-8.41,40.04-.08.29.36.41.44.12,3.7-13.14,6.51-26.52,8.41-40.04.04-.29-.4-.42-.44-.12h0Z"/><path class="cls-26" d="m162.2,98.02c-.49-.4-1.27-.63-1.69-.54-.45.1-1.1.47-1.21,1.06-.11.58.31.91.76.85.56-.07,1.09-.23,1.64-.05.25.08.57.17.76-.09.36-.46.15-.9-.26-1.24Z"/><path class="cls-26" d="m155.21,97.26c-.57-.03-1.14.08-1.65.34-.38.19-.94.53-1.17.91-.16.27-.17.7.02.96.24.33.69.29,1.02.16.74-.3,1.29-.38,2.07-.3.42.05.91.15,1.13-.35.39-.94-.7-1.68-1.42-1.71Z"/><path class="cls-11" d="m152.21,161.96c-1.46.08-3.55-.18-4.9.44-1.28.58-1.82,1.49-3.7,2.13-1.24.42-.31,2.46.86,1.86.32-.17.64-.34.95-.53.25.15.56.2.9.05,1.19-.5,2.52-1.28,5.2-2.04,1.09-.31,1.6-1.95.68-1.9Z"/><path class="cls-11" d="m157.18,170.77c-.89-1.02-2.68-2.91-3.96-3.43-.64-.26-1.31-.44-1.99-.6-.62-.14-1.53-.15-2.08-.47.03-.12.16-.27.28-.33.43-.21,1.3-.25,1.76-.22,1.53.1,2.3.53,3.46,1.49.59.49,2.15-.08,1.56-.67-1.37-1.38-2.38-2.26-3.95-2.63-1.35-.32-2.79-.23-4.16-.11-1.72.16-3.41.61-5.13.77-1.58.14-3.04-.25-4.34-1.16,0,0-3.83,5.94-3.69,6.05,1.62,1.31,3.28,2.68,5.22,3.4,2.57.96,4.84,1.01,5.78,1.35.67.25,1.05.62,1.46,1.19.48.68,1.21,1.61,2.03,1.87.69.23,1.35-.17,1.05-.95-.12-.31-.34-.61-.49-.87-.43-.78-.86-1.56-1.35-2.3-.17-.26-.37-.48-.57-.71-.07-.08-.3-.24-.32-.35-.03-.18.18-.41.35-.38.69.14,1.45.14,2.1.44,1.06.48,1.8,1.13,2.68,1.9.71.62,2.53.27,1.42-1.21-.74-.98-2.4-2.25-3.39-2.96-.58-.41-1.24-.63-1.91-.82-.03,0-.07-.02-.09-.05-.02-.03-.02-.06-.01-.09,0-.12-.04-.4.16-.37,1.59.3,3.18.52,4.48,1.53.51.4,1.74,1.39,2.38,1.56.63.17,1.92-.17,1.29-.89Z"/><path class="cls-23" d="m151.18,163.33c-1.18.03-2.36.15-3.53.34-.29.05-.17.49.12.44,1.13-.18,2.26-.29,3.4-.32.3,0,.3-.47,0-.46h0Z"/><path class="cls-27" d="m161.79,116.51c-.62,3.03-3.31,4.66-5.8,6.08-.26.15-.03.55.23.4,2.6-1.48,5.37-3.21,6.01-6.36.06-.29-.38-.41-.44-.12h0Z"/><path class="cls-11" d="m220.92,93.35c.18-.51-.37-.96-.84-.84-2.6.64-4.71,2.95-6.18,5.23-.06-.09-.11-.18-.18-.27.86-1.74,1.49-3.77,2.72-5.13.82-.91,2.73-2.13,2.55-3.52-.07-.52-.53-.85-1.03-.59-1.54.79-2.8,2-3.81,3.4-.51.71-.96,1.46-1.38,2.22-.21.39-.42.78-.61,1.17-.11.23-.21.71-.55.61-.42-.12-.06-.86.02-1.15.28-1.01.69-1.98,1.24-2.87.72-1.16,1.31-2.2,1.28-3.59-.01-.41-.4-.75-.81-.66-.26.05-.47.23-.66.41-1.86,1.72-2.93,4.39-3.85,6.7-.23.57-.61,1.94-.86,2.7-.02.07-.12.05-.13-.02-.35-2.66-1.05-3.46-1.72-3.28-1.14.3-.72,2.71-.74,3.89-.05,2.42.05,4.85.1,7.27-.26.68-.55,1.31-.91,1.93-.23.41,5.02,6.55,5.1,6.46,1-1.17,1.8-2.5,2.52-3.85.67-1.24,3.03-5.76,3.69-6.89.36-.62.84-1.17,1.42-1.59.92-.67,2.06-.9,3-1.53.63-.42.37-1.38-.39-1.44-1.42-.1-2.66.41-3.77,1.19-.06.05-.15-.03-.1-.1.6-.86,1.27-1.67,2.01-2.45,1.01-1.06,2.35-1.96,2.85-3.38Z"/><path class="cls-23" d="m208.19,98.38c.76,2.13,1,4.31.69,6.55-.04.29.4.42.44.12.32-2.33.1-4.58-.69-6.79-.1-.28-.54-.16-.44.12h0Z"/><path class="cls-23" d="m149.86,105.56c.59,1.16.68,2.3,1.52,3.36.46.58,1,1.11,1.66,1.45,1.38.72,3.28,1.08,4.82.91.29-.03.29-.49,0-.46-1.47.16-3.27-.17-4.59-.85-1.94-1-2.15-2.92-3.02-4.65-.13-.27-.53-.03-.4.23h0Z"/><path class="cls-26" d="m163.05,102.26c.08-.48.05-.85-.07-1.21-.33-3.52-1.98-8.8-5.44-9.88-.1-.16-.38.07-.53.11-2.21-.61-5.12-.22-7.2.71-2.08.92-3.2,2.63-4.01,4.72-1.02,2.63.65,4.51.63,7.16-.02,2.52-.83,4.87.53,7.19.05.08.12.13.19.15,0,.06-.02.11-.02.17-.02.49.32,2.99.43,2.51.57-2.49,3.42-3.9,4.25-5.93.96-2.34-.72-7.04,1.15-9.09,1.37-1.5,3.65-1.87,4.47-3.91.04-.11.09-.23.16-.32.38-.44,1.52-.13,1.96.08.65.32,1.09.9,1.28,1.59.28,1.03,1.12,3.96,1.43,5.05.03.34.04.64.05.91,0,.42.66.54.75.1,0-.04,0-.07.01-.11Z"/><path class="cls-24" d="m160.87,99.88c-.26,0-.53.22-.66.49-.21.43-.16,1.02-.03,1.47.13.47.58.9,1.02.64.68-.4.65-2.63-.34-2.6Z"/><path class="cls-24" d="m154.67,99.88c-.29,0-.59.23-.73.49-.23.43-.18,1.02-.04,1.47.15.47.64.9,1.13.64.75-.4.73-2.63-.36-2.6Z"/><path class="cls-23" d="m159.05,101.75c.34.26.8.59.82,1.07.02.44-.32.97-.73,1.12-.28.1-.16.54.12.44.56-.2.97-.77,1.05-1.35.1-.71-.43-1.21-.94-1.6-.23-.18-.56.14-.33.33h0Z"/><path class="cls-23" d="m157.54,103.89c.31-.21.67-.2,1.03-.18.3.01.3-.45,0-.46-.44-.02-.89,0-1.27.25-.25.16-.01.56.23.4h0Z"/><path class="cls-11" d="m149.4,101.02c-.15-.19-.31-.36-.51-.48-.45-.28-1.01-.2-1.25.31-.25.52-.04,1.2.29,1.64.21.28.54.83.99,1.06.48-.65.48-1.59.48-2.53Z"/><path class="cls-25" d="m162.3,108.49c.66,1.42.58,2.98-.18,4.33-.15.26.25.49.4.23.85-1.51.91-3.23.18-4.8-.12-.27-.52-.04-.4.23h0Z"/><path class="cls-25" d="m155.78,91.49c-2.03.47-4.21,1.18-5.43,2.99-1.23,1.82-1.26,4.34-.91,6.43.05.29.49.17.44-.12-.33-1.97-.29-4.35.87-6.07,1.14-1.7,3.27-2.34,5.16-2.78.29-.07.17-.51-.12-.44h0Z"/><path class="cls-25" d="m149.2,108.84c-.58,1-1.43,2.06-1.69,3.2-.35,1.55.24,2.72-.84,4.16-.18.24.22.47.4.23.66-.88.88-1.71.88-2.79,0-1.84.75-3.02,1.65-4.57.15-.26-.25-.49-.4-.23h0Z"/><path class="cls-25" d="m154.4,97.46c-.71.44-1.34.99-1.88,1.63-.19.23.14.55.33.33.51-.62,1.11-1.14,1.79-1.56.25-.16.02-.55-.23-.4h0Z"/><path class="cls-1" d="m160.08,105.85c-.02-.21-.18-.41-.53-.41-.54,0-1.08,0-1.62,0-.43,0-.9,0-1.24.15-.13.06-.2.19-.15.28.32.53,1.63.86,2.44.67.91-.21,1.12-.56,1.1-.69Z"/><path class="cls-27" d="m176.59,125.62c.86,3.77,1.15,7.6.89,11.45-.02.3.44.29.46,0,.27-3.9-.04-7.77-.9-11.58-.07-.29-.51-.17-.44.12h0Z"/><path class="cls-27" d="m145.52,135.96c-.58,5.49-2.31,10.74-5.1,15.5-.15.26.25.49.4.23,2.83-4.83,4.58-10.16,5.16-15.73.03-.29-.43-.29-.46,0h0Z"/><path class="cls-11" d="m232.95,120.05c-.06-.16-.22-.21-.37-.2-.41.02-.76.22-1.06.53.19-.67.4-1.33.6-2.01.2-.69.78-1.84.28-2.49-.07-.09-.21-.16-.33-.13-.34.09-.58.13-.85.53.23-.66.41-1.32.4-2.02,0-.27-.56-.53-.8-.3-.58.57-.82,1.25-1.21,1.95-.21.39-.37.8-.52,1.21-.08.21-.15.41-.24.62-.06.14-.15.49-.29.56-.31-.27.09-1.13.19-1.42.07-.19.18-.5.04-.68-.12-.17-.4-.2-.58-.12-1.14.56-1.76,2.24-2.16,3.73-.04.01-.07.04-.11.06-1,.33-1.24,1.96-1.38,2.82-.2,1.2-.22,2.43.01,3.63.23,1.21.62,2.37.32,3.61-.02.06-.01.12,0,.17-.31,1.41-.76,2.77-1.35,4.1,0,.02,0,.03-.01.05-.11.21-.03.5.26.5,1.15-.02,2.1.39,2.97,1.12.44.37.79.87,1.27,1.18.1.06.24.08.35.02.67-.37.8-1.62,1.01-2.27.36-1.13,1.04-2.7,1.01-3.93.54-1.34,1.02-2.71,1.38-4.11.17-.66.33-1.29.25-1.94.18-.84.4-1.67.65-2.51.22-.72.53-1.52.25-2.26Z"/><path class="cls-2" d="m246.62,124.67c.05-.84-.22-1.29-1.16-1.42-1.65-.23-13.96-.26-15.36.35-.15.07-.17.19-.13.3-.01.04-.02.09,0,.14.44,2.04.45,4.2,1.31,6.15.43.97,1.03,1.55,1.82,2.26,1.16,1.03,1.43,1.74,3.15,1.98,1.64.23,3.37.47,5,.11,1.28-.29,1.94-1.27,2.6-2.25.72-1.07,1.7-1.49,2.02-2.8.38-1.54.56-3.11.79-4.68,0-.06,0-.1-.02-.15Z"/><path class="cls-16" d="m271.8,79.8c-.37-4.56-1.57-9-3.66-12.98-1.81-3.43-4.22-6.56-7.12-9.14-8.43-7.5-21.38-10.45-32.15-6.84-11.69,3.91-20.49,14.81-22.67,26.73-2.51,13.7,1.54,29.91,14.42,37.45.18.11.36.21.54.31.89.49,2.11.92,2.83,1.66.76.77,1.13,2.05,1.63,3.03.9,1.75,1.98,3.99,3.88,4.84.42.19,1.12.37,2.01.53,3.34.58,9.33.84,13,.33,1.15-.16,2.08-.41,2.62-.74,1.14-.69,2.89-2.6,3.6-6.06.13-.64.56-1.17,1.15-1.45,13.55-6.37,21.15-22.72,19.93-37.67Z"/><path class="cls-27" d="m231.81,127.9c4.29,1.25,8.68,1.55,12.92-.04.28-.1.16-.55-.12-.44-4.17,1.55-8.46,1.26-12.67.04-.29-.08-.41.36-.12.44h0Z"/><path class="cls-27" d="m234.4,132.38c2.48.78,5.01.83,7.52.14.29-.08.16-.52-.12-.44-2.44.67-4.86.62-7.27-.14-.28-.09-.4.36-.12.44h0Z"/><path class="cls-1" d="m235.91,115.8c-.46-8.72-1.28-17.45-2.27-26.13-.42-3.67-.79-7.42-1.65-11.02-.49-2.06-1.4-4.87-3.48-5.84-1.83-.85-3.2.89-3.73,2.45-2.08,6.1-.09,13.98,2.72,19.53,1.19,2.34,2.9,4.56,5.36,5.65,2.73,1.21,5.94,1,8.81.52,4.93-.83,7.11-6.72,8.75-10.85,1.25-3.16,2.08-6.52,2.11-9.93.02-2.03,0-5.86-2.13-6.99-2.45-1.3-4.51,2.1-5.21,3.9-1.44,3.71-1.88,7.81-2.37,11.74-1.12,8.97-1.72,18-2.74,26.98-.03.29.43.29.46,0,.75-6.59,1.28-13.2,1.94-19.79.34-3.36.7-6.72,1.18-10.06.42-2.93.88-5.98,1.97-8.75.61-1.53,2.14-4.36,4.23-3.75,1.76.51,2,3.41,2.13,4.87.28,3.08-.23,6.19-1.13,9.13-.78,2.53-1.89,4.94-3.1,7.28-1.05,2.04-2.38,4.52-4.64,5.39-2.49.95-6.01,1-8.58.37-2.97-.72-5.02-2.95-6.43-5.55-2.94-5.45-4.49-12.56-3.13-18.67.3-1.37,1.17-3.61,2.99-3.2,1.91.43,2.91,3.25,3.37,4.87.3,1.04.49,2.12.68,3.19.61,3.55,1.02,7.14,1.41,10.72.86,7.95,1.6,15.94,2.03,23.93.02.3.48.3.46,0h0Z"/><path class="cls-27" d="m244.47,125.62c-.12,0-.22-.09-.23-.21l-.05-.57c-.22-2.29-.46-4.89-1.19-7.34-.22-.72-1.82-1.3-3.99-1.43-2.65-.16-4.96.39-5.35,1.29-.41.94-1.17,4.4-1.63,6.46-.12.55-.22,1.01-.3,1.34-.03.12-.15.2-.28.17-.12-.03-.2-.15-.17-.28.07-.32.18-.78.3-1.33.49-2.22,1.22-5.57,1.66-6.55.56-1.29,3.41-1.71,5.8-1.57,1.91.12,4.07.64,4.4,1.76.75,2.5.99,5.12,1.21,7.43l.05.57c.01.13-.08.24-.21.25,0,0-.01,0-.02,0Z"/><path class="cls-16" d="m212.03,35.69c2.04,3.94,3.79,8.02,5.22,12.22.13.37.72.21.59-.16-1.45-4.25-3.22-8.38-5.28-12.36-.18-.35-.71-.04-.53.31h0Z"/><path class="cls-16" d="m254.62,33.5c-1.9,3.43-3.64,6.94-5.2,10.54-.16.36.37.67.53.31,1.56-3.6,3.29-7.11,5.2-10.54.19-.35-.34-.66-.53-.31h0Z"/><path class="cls-16" d="m190.3,62.07c2.94,2.12,6.09,3.9,9.07,5.96.33.23.63-.31.31-.53-2.97-2.06-6.13-3.84-9.07-5.96-.32-.23-.63.3-.31.53h0Z"/><path class="cls-16" d="m281.39,58.82c-2.77,2.32-5.71,4.41-8.81,6.27-.34.2-.03.73.31.53,3.15-1.88,6.12-4.01,8.93-6.36.3-.25-.13-.69-.43-.43h0Z"/><path class="cls-11" d="m301.93,151.81c-7.34-1.64-7.3-3.62-7.85-8.63-.36-3.33-.42-6.71-.46-10.05,0-.12-.03-.22-.08-.3.45-.64-.46-1.49-1.05-.87-1.51,1.58-3.33,2.77-5.1,4.05-1.07.78-2.8,1.7-2.72,3.18.01.25.14.42.31.53.13,2.31.37,4.64.37,6.95,0,3.17-3.01,4.58-5.62,5.81-.06.03-.09.07-.14.1-.57.11-.9.91-.26,1.24,6.67,3.33,15.56,3.29,22.21-.25.19-.1.29-.25.33-.4.62-.09.83-1.18.06-1.35Z"/><path class="cls-1" d="m302.44,154.81c-.19-.13-.39-.14-.55-.08-.05-.28-.25-.51-.63-.46-7.78,1.04-15.5.56-23.08-1.46-.15-.04-.27-.02-.39.02-.34-.11-.75,0-.87.44-.18.62-.45,1.18-.83,1.7-.15.21-.11.5.03.71-2.59,5.53-3.35,11.68-2.8,17.73.27,3.03,1.18,12.74,1.95,15.68.48,1.82,1.16,6.98,3.04,7.84.61.28,1.3.29,1.96.3,4.3.04,8.61.2,12.89-.08,2.61-.17,6,.14,8.29-1.38.3.05.29-6.8.35-7.2v-.09c.19-.21.21-.45.11-.65,1.01-6.98,2.02-13.96,3.02-20.94.62-4.28,1.64-9.29-2.49-12.1Z"/><path class="cls-18" d="m256.37,116.75c.41-1.69-.29-3.74-.6-5.4-.06-.34-.31-.48-.57-.49-.04-.4-.09-.8-.22-1.18-.1-.3-.27-.77-.65-.78-.42-.02-.75.35-.82.74-.02.09-.03.18-.07.26-.16.31-.46.06-.63-.1-.18-.16-.41-.41-.68-.32-.39.13-.68.51-.83.88-.41,1.02-1,6.55-1.88,6.65-1.2.14-.92-4.61-2.25-3.97-1.08.51-.99,2.19-1.1,3.17-.16,1.33-.27,2.66-.34,4-.04.69-.06,1.38-.08,2.08-.08,3.35,3.6,12.87,4.23,12.78.25.06.52-.01.69-.18,1.97-.63,3.53-2.06,4.39-3.95.37-.06.68-.36.51-.81-.7-1.86-2.54-6.47-2.6-6.91-.07-.47.16-.76.37-1.21.12-.25,2.74-3.61,3.14-5.27Z"/><path class="cls-9" d="m303.18,195.14c-.04-.34-.27-.53-.53-.6.03-.36-.18-.73-.65-.69-4.33.41-8.64,1.05-12.98,1.24-2.2.1-4.41.08-6.6-.14-.92-.09-1.96-.31-2.92-.5-.92-.19-2.51-.79-3.44-.55-1.25.32-.92,2.26-1.04,3.27-.17,1.43-.29,2.87-.34,4.31-1.61,7.81-3.85,14.15-4.41,22.09-.58,8.16-.73,18.35-.65,26.53.08,7.9,1.65,31.92,1.94,35.72.15,1.9.29,3.8.4,5.7.06.97-.11,4.91.39,5.2,1.73.99,6.93.06,10-.34,1.46-.19,3.95.18,5-1.2.35-.46.31-3.59.32-5.28.04-9.28.28-18.55.7-27.81.01-.28.03-.56.04-.84.35-7.62,1.08-15.03,2.67-22.76.41-2.02.35-4.84,1.75-6.36,3.61-3.95,7.4-7.82,9.49-12.75,3.11-7.33,1.69-16.58.87-24.24Z"/><path class="cls-9" d="m308.24,204.34c-.52-4-2.97-6.75-4.16-10.62-.36-1.16-2.12-.76-2.09.29-.33,0-.65.15-.86.5-1.94,3.16-3.59,5.74-6.64,8.07-1.95,1.49-3.95,2.94-5.61,4.74-2.9,3.15-4.81,7.28-3.72,11.51.66,2.56,2.32,4.72,3.52,7.05,1.66,3.23,2.08,5.23,2.47,8.76.76,6.91,1.05,14.84,1.37,21.78.6,12.95,2.43,24.83,2.61,37.79.01,1.15.89,1.53,2.09,1.8,2.44.54,7.66-.23,10.1-.48,2.27-.23,4.11-.37,4.15-2.3.49-28.36,2.49-68.14-3.24-88.9Z"/><path class="cls-27" d="m278.57,198.09c4.27.75,8.58.9,12.89.43.29-.03.29-.49,0-.46-4.27.46-8.54.33-12.77-.42-.29-.05-.41.39-.12.44h0Z"/><path class="cls-11" d="m293.17,135.57c-.51.34-.95,1.59-1.27,2.12-.45.74-.91,1.48-1.44,2.16-.93,1.2-2.46,2.74-4.09,2.64-1.89-.13-5.58.37-6.63-1.5-.25-.44-.17-1.79,0-3.17.05-.46.13-.92.19-1.36.03-.19.06-.37.09-.55.03-.15-.07-.31-.22-.35-.64-.18-1.28-.36-1.38-.99-.1-.57.28-.94.68-1.26.47-.39.95-.77,1.44-1.14.27-.21.47-2.31.6-2.77.24-.85.62-1.68,1.25-2.33,1.66-1.73,4.58-2.22,6.83-2.49.04,0,.07,0,.11,0,.11-.08.24-.13.41-.11,2.89.33,5.56,2.2,6.33,5.18.72,2.79-.9,4.54-2.91,5.89Z"/><path class="cls-17" d="m277.74,148.51c-9.87.68-13.24-2.58-15.43-5.19-3.93-4.7-5.4-11.17-7.64-16.54-.79-1.9-3.64.46-4.5,1.15-1.34,1.06-2.69,2.13-3.83,3.41-.55.62-1.25,1.4-1.53,2.19-.45,1.25.24,3.02.52,4.29.29,1.32.64,2.64,1.01,3.94,1.07,3.69,2.43,7.3,4.01,10.8.3.67.61,1.34.93,2.01,3.02,6.29,13.56,12.97,19.56,12.83.82-.02,4.14-10.25,4.79-12.8.07-.28,2.15-6.1,2.1-6.1Z"/><path class="cls-17" d="m315.39,156.66c-.89-1.58-2.46-2.46-4.01-3.26-3.55-1.83-8.4-3.23-12.21-4.37-1.09-.46-1.55.26-1.79.94-2.14,6.08-2.37,13.97-2.26,20.35.12,7.04.32,14.46,3.22,21.06.62,1.42,1.29,2.83,2.13,4.13.45.7.94,1.37,1.5,1.99.51.56,1.08.81,1.59,1.25.14.12.2.33.14.51-.12.38-.11.78-.1,1.18.1,3.71-.43,15.66-.17,18.45.27,2.81,5.26-.76,6.95-1.8,2.59-1.6,4.35-4.37,6.23-6.69,1.65-2.04,1.04-5.57.97-8.08-.08-3.01-.24-6.03-.44-9.03-.39-5.96-.94-11.91-1.5-17.86-.27-2.9-.99-6.12-.75-9.04.23-2.73,1.91-7.2.5-9.72Z"/><path class="cls-17" d="m275.6,223.58c.87,0,1.59-.7,1.62-1.57.09-2.33.18-4.67.28-7,.33-7.37,1.21-17.03,1.72-24.39.45-6.62.94-13.24,1.58-19.84.66-6.85.07-16.34,3.69-22.4.19-.31.37-.43-.23-.43-4.78,0-12.26,1.66-12.75,2.39-1.28,1.9-3.46,6.43-3.66,8.63-.26,2.88-1.88,3.45-1.36,9.68.74,8.89-5.29,46.7-4.34,52.41.08.5.35,1.19.72,1.52,1.67,1.48,10.78.99,12.73,1Z"/><path class="cls-2" d="m277.34,175.63c-.29-.54-1.09-.85-1.68-.46-.84.55-1.23,1.31-1.16,2.33.06.94.77,1.84,1.8,1.41,1.17-.48,1.57-2.31,1.04-3.28Z"/><path class="cls-2" d="m275.8,188.59c-.29-.54-1.09-.85-1.68-.46-.84.55-1.23,1.31-1.16,2.33.06.94.77,1.84,1.8,1.41,1.17-.48,1.57-2.31,1.04-3.28Z"/><path class="cls-11" d="m307.31,193.22c-.56.55-.9,1.14-1.4,1.72-.07.08-.15.14-.25.17-.64.23-1.47.38-2.1.57-2.31.5-6.13.63-7.11,2.98-.04.09-.03.24.03.32.33.41,1.03.46,1.71.43-.54.74-1.05,1.51-1.49,2.29-.28.5-.99,1.84-.29,2.31.66.44,1.42-.85,1.71-1.24.4-.54.76-1.15,1.15-1.69.16-.23.35-.43.56-.62.15-.14.38-.4.6-.41.23-.01.27.13.11.32-.23.26-.47.51-.66.8-.54.83-1.03,1.76-1.39,2.68-.2.51-.47,1.28-.11,1.78.56.8,1.32-.25,1.63-.71.33-.47.58-1,.88-1.49.2-.32.42-.62.67-.9.21-.24.45-.53.74-.67.43-.2.55-.07.34.05-.38.21-.93.86-1.21,1.21-.38.5-1.25,1.64-.96,2.34.26.63.87.25,1.2-.07.3-.29.59-.58.89-.86-.12.28-.14.57.05.8.39.49,1.05.07,1.43-.2.83-.61,1.64-1.24,2.5-1.8,1.38-.9,3.22-1.3,4.32-2.6.85-1,1.38-1.9,1.82-3.4.09-.32-5.39-4.25-5.35-4.1Z"/><path class="cls-17" d="m326.65,174.66c-3.35-6.13-9.75-18.45-14.2-20.68-.34-.17-6.25,17.43-4.42,20.05,2.74,3.93,10.33,10.92,11.54,12.88.02.03,3.64,6.52,4.26,5.49,3.96-6.62,6.75-10.56,2.82-17.75Z"/><path class="cls-17" d="m315.61,178.16c-.49.11-.74.47-.79.86-1.65,2.35-3.15,4.77-4.46,7.33-.97,1.89-3.74,6.3-4.69,7.83-.51.82,8.2,9.45,10.7,7.27,6.14-5.37,10.57-13.49,11.81-19.44.08-.38-8.59-4.74-12.57-3.85Z"/><path class="cls-26" d="m304.4,124.45c-.26-.81-1.16-1.22-2.06-1.32-2.45-.28-4.3,1.41-4.47,3.39-.04.05-.07.1-.08.17-.15,1.77.03,4.5,2.7,4.72.94.08,1.84-.26,2.39-.93.93-1.13-.14-2.24.49-3.34.51-.89,1.39-1.58,1.03-2.69Z"/><path class="cls-26" d="m299.88,128.24c-1.54-3.87-7.83-5.24-11.35-4.8-1.83.23-4.19.69-5.01,2.57-.17.39.31.18.59.13,1.41-.29,3.59-.19,4.89.54,1.58.89,1.53,2.5,1.28,4.12-.12.76-.27,1.69.11,2.41.29.55.83.85,1.25,1.28-.15,1.95,1.36,6.86,1.44,6.63,1.96-.35,4.66-1.2,5.5-3.28.49-1.2,2.16-7.44,1.31-9.6Z"/><path class="cls-11" d="m292.98,132.27c-1.29-.79-2.65.69-2.81,1.91-.01.1-.03.19-.04.29-.03.25-.07.5-.09.75-.06.69.01,1.41.54,1.92,1.04,1,2.08-.94,2.43-1.61.49-.93,1.18-2.52-.03-3.26Z"/><path class="cls-24" d="m283.44,131.41c-.08-.35-.28-.6-.72-.47-.53.16-.63.98-.56,1.44.16.99,1.11,1.11,1.28.02.04-.25.07-.66,0-.99Z"/><path class="cls-26" d="m284.78,128.92c-.87-.59-2.28-.74-3,.17-.12.15-.19.34-.16.53.03.21.2.38.39.47.37.17.76.06,1.14.11.46.06.9.2,1.37.24.45.04.89-.11.86-.64-.02-.36-.26-.66-.59-.88Z"/><path class="cls-23" d="m281.86,136.49c-.65.06-1.28.06-1.92-.01-.07.43-.14.89-.19,1.36.48,0,.96-.1,1.4-.28.31-.13.65-.29.88-.53.17-.16.19-.57-.17-.53Z"/><path class="cls-23" d="m292.05,133.02c-.62.5-1.04,1.2-1.17,1.99-.05.29.39.41.44.12.12-.72.49-1.33,1.06-1.79.23-.19-.1-.51-.33-.33h0Z"/><path class="cls-23" d="m290.29,138.09c-.39,1.13-.81,2.38-1.83,3.1-.88.62-2.11.77-3.14,1.03-.29.07-.17.52.12.44,1.15-.3,2.51-.45,3.45-1.22.99-.81,1.43-2.05,1.84-3.23.1-.28-.35-.4-.44-.12h0Z"/><path class="cls-23" d="m304.96,202.27c-.71.6-1.36,1.26-1.96,1.98-.19.23.13.55.33.33.6-.71,1.25-1.37,1.96-1.98.23-.19-.1-.52-.33-.33h0Z"/><path class="cls-23" d="m253.14,110.75c.25,3.33-.58,6.34-2.23,9.22-.15.26.25.49.4.23,1.69-2.95,2.55-6.04,2.29-9.45-.02-.29-.48-.3-.46,0h0Z"/><path class="cls-2" d="m285.45,146.25c-.04-.23-.31-.25-.5-.2-1.63.37-3.66.85-5.42,1.71-1.49.74-3.42,2.01-4.53,3.6-.28.4,1.17.61,2.4,1.46.15.1.13.38-.04.45-1.99.69-3.74,1.34-3.25,2.17,1.23,2.09,2.5,4.15,3.64,6.28,1.1,2.06,2.18,4.92,3.15,6.86.2.39.87-8.47,1.47-12.01.54-3.14,1.35-6.2,3.17-8.85.11-.16,0-.91-.09-1.46Z"/><path class="cls-2" d="m294.48,146.8c1.15,3.01.69,7.59.48,10.77-.24,3.58.08,13.46.13,13.02.37-3.18,1.6-5.19,3.16-6.93,1.61-1.81,3.33-3.51,5.02-5.25.67-.69-.89-1.74-2.65-2.88-.15-.1-.11-.38.06-.44,1.4-.54,2.8-.38,2.67-.86-.45-1.73-1.72-3.28-2.86-4.61-.93-1.08-1.86-2.19-3.03-3.01-.55-.39-1.1-.69-1.75-.83-.17-.04-1.29-.38-1.39-.14-.23.51.1.98.16,1.16Z"/><path class="cls-27" d="m283.99,215.26c1.81,2.05,3.91,3.95,4.53,6.72.58,2.6.91,5.2,1.67,7.77.08.28.53.16.44-.12-.45-1.52-.84-3.05-1.13-4.61-.26-1.37-.36-2.8-.8-4.13-.77-2.35-2.8-4.15-4.39-5.95-.2-.22-.52.1-.33.33h0Z"/><path class="cls-27" d="m317.45,177.7c-2.77,1.29-4.56,3.7-6.03,6.3-1.77,3.12-3.37,6.33-4.93,9.56-.13.27.27.5.4.23,1.4-2.89,2.85-5.75,4.38-8.57,1.57-2.88,3.34-5.7,6.41-7.13.27-.13.03-.52-.23-.4h0Z"/><path class="cls-27" d="m312.3,200.68c1.3.78,2.88,1.53,4.23.44.23-.19-.1-.51-.33-.33-1.17.93-2.59.13-3.67-.52-.25-.15-.49.24-.23.4h0Z"/><path class="cls-25" d="m298.36,130.07c-.37.99-.84,1.93-1.45,2.8-.64.91-1.61,2.24-2.81,2.4-.29.04-.29.5,0,.46,1.2-.16,2.02-1.11,2.74-2.01.85-1.06,1.49-2.25,1.96-3.52.1-.28-.34-.4-.44-.12h0Z"/><path class="cls-25" d="m297.37,128.97c-1.2.43-2.43.71-3.71.83-.29.03-.3.49,0,.46,1.31-.13,2.58-.41,3.83-.85.28-.1.16-.54-.12-.44h0Z"/><path class="cls-25" d="m297.98,126.49c-.47,1.58.27,3.3,1.75,4.04.26.13.5-.27.23-.4-1.3-.65-1.95-2.13-1.54-3.52.08-.28-.36-.41-.44-.12h0Z"/><path class="cls-27" d="m284.24,178.91c1.36,4.16,3.23,8.1,5.6,11.78.16.25.56.02.4-.23-2.35-3.65-4.2-7.55-5.55-11.67-.09-.28-.54-.16-.44.12h0Z"/><path class="cls-27" d="m257.03,140.35c.65,2.93,1.54,5.78,2.66,8.56.11.27.56.15.44-.12-1.12-2.78-2.01-5.63-2.66-8.56-.06-.29-.51-.17-.44.12h0Z"/><path class="cls-27" d="m308.91,173.97c1.07,2.7,2.49,5.2,4.27,7.5.18.23.58,0,.4-.23-1.75-2.27-3.16-4.73-4.22-7.39-.11-.27-.55-.15-.44.12h0Z"/><path class="cls-27" d="m264.55,158.44c.52,3.66,1.34,7.25,2.48,10.77.09.28.54.16.44-.12-1.13-3.52-1.96-7.11-2.48-10.77-.04-.29-.49-.17-.44.12h0Z"/><path class="cls-23" d="m279.63,134.99c.23.06.43.15.62.27.25.16.48-.24.23-.4-.23-.15-.47-.25-.73-.32-.29-.07-.41.37-.12.44h0Z"/><path class="cls-23" d="m226.43,124.53c.76,1.11,1.07,2.38.84,3.71-.05.29.4.41.44.12.24-1.45-.06-2.86-.89-4.07-.17-.24-.57-.01-.4.23h0Z"/><path class="cls-17" d="m196.73,190.05c.07-.05-.8-.31-.8-.42-.07-.92-.14-1.85-.21-2.77-.03-.42-.73-.43-.7,0,0,.01,0,.03,0,.04-3.35,1.23-6.64,2.61-9.83,4.17-2.45,1.2-5.56,2.16-5.92,5.08-.46,3.71-.36,7.58-.43,11.31-.07,3.93-.07,7.86.02,11.79.17,7.75.65,15.5,1.43,23.22.78,7.77,1.24,15.41,1.13,23.22-.09,6.37-.65,12.74-.27,19.1.25,4.2-.7,7.68.84,7.95,1.13.19,12.74-1.04,14.6-2.45,1.2-.9,2.44-32.81,2.85-43.13.88-22.42-1.86-50.56-2.7-57.12Z"/><path class="cls-11" d="m185.49,140.02c-1.02.22-3.64.68-4.57.08-.57-.36-.39-8.17-.21-10.96.02-.38-.2-.6-.49-.68-.92-1.99-2.34-3.46-4.41-4.41-1.72-.79-4.03-1.99-5.6-.36-.09.1-.15.2-.18.31-.26.15.14.34.22.71.84,4.07,1.49,8.18,1.79,12.33.28,3.96-1.56,6.95-4.72,9.16-.8.56.72,1.51,1.31.75.05-.07.11-.14.16-.2.12.14.31.24.55.25,3.65.13,7.09-.66,10.58-1.64,2.57-.72,4.52-1.6,5.92-3.89.01,0,.03,0,.04,0,.96-.21.55-1.65-.4-1.44Z"/><path class="cls-11" d="m184.37,126.73c.12-.13.28-.23.46-.36.32-.25.56-.65.45-1.06-.09-.37-.45-.39-.75-.52-.4-.16-.77-.38-1.11-.65-.17-.13-.37-.23-.44-.44-1.12-3.19-3.04-6.12-7.09-6.47-4.78-.41-8.61,2.39-9.2,6.68-.2,1.49,0,3.14.97,4.39.48.63,1.12,1.12,1.88,1.44.42.18,2.62.31,2.74.46.51.64,1.02,1.29,1.52,1.93.74.94,1.41,2.24,2.75,2.52.02,0,.04,0,.07,0,.11.12.29.19.53.18,1.89-.11,5.74-.18,7.14-1.81.77-.9.49-1.78.3-3.11-.07-.45-.16-.9-.25-1.32-.04-.18-.08-.36-.13-.53-.07-.3-.07-.69,0-1,.03-.16.1-.27.18-.36Z"/><path class="cls-13" d="m182.74,119.04c-.21-.69-1.12-.73-.95-1.47.38-1.57-.36-3.16-2.08-3.59-1.46-.36-2.84.34-4.17.85-1.84.7-3.91.67-5.69,1.47-2.26,1.02-5.47,2.89-4.8,5.67,0,.02.08.21.06.23-.9.98-1.42,2.23-1.32,3.58.15,2.08,1.75,3.22,3.65,3.86.18.06.31.2.36.37.33,1.24.81,2.48,1.75,3.4.81.79,2.21,1.65,2.87.23.88-1.89.63-4.57.59-6.63,0-.17.08-.32.21-.43,1.02-.91,1.29-2.89,2.12-4.13.59-.88,1.6-1.11,2.6-1.25.84-.11,1.54-.3,2.34-.56.43-.14.73-.03,1.14.08.9.23,1.52-.95,1.3-1.67Z"/><path class="cls-11" d="m174.29,127.71c-.12-.16-.23-.31-.33-.45-.5-.76-1.35-1.67-2.41-1.22-1.39.58-.63,2.38.11,3.17.7.73,2.64,1.83,3.26.43.31-.7-.19-1.34-.63-1.93Z"/><path class="cls-23" d="m174.77,132.38c.6.71,1.23,1.42,2.09,1.82.84.4,1.79.46,2.7.52.3.02.29-.44,0-.46-.94-.06-1.9-.12-2.74-.59-.7-.39-1.22-1.01-1.73-1.61-.19-.23-.52.1-.33.33h0Z"/><path class="cls-24" d="m181.88,124.23c-.1-.32-.28-.6-.48-.69-.36-.15-.8.05-.89.43-.07.29.03.6.16.87.14.29.55.82.94.67.4-.15.42-.77.26-1.28Z"/><path class="cls-1" d="m184.56,129.93c-.47.12-1,.15-1.19.13-.36-.04-.94-.16-1.04-.56-.03-.11,0-.28.1-.35.52-.41,1.29-.28,1.89-.54.1.42.18.88.25,1.32Z"/><path class="cls-17" d="m180.25,187.86c-3.47.49-6.6,3.02-9.12,5.18-1.56,1.33-2.99,2.78-4.3,4.33-.22.27-.47.54-.69.83-.1.03-.18.09-.2.22,0,.04-.01.07-.02.11-.24.4-1.15.77-1.03,1.22-2.18,11.11-1.5,22.48-2.35,33.72-.46,6.1-1.21,12.16-2.54,18.15-1.34,6.03-2.84,12.01-3.86,18.11-1.11,6.7-2.3,14.15-2.67,20.19-.08,1.28,9.93,4.98,13.87,4.15.96-.2,4.49-11.73,5.18-14.75,1.3-5.72,3.26-11.31,4.19-17.48,2.04-13.46,4.11-22.48,5.87-34.21.85-5.66,1.56-11.34,2.2-17.03.35-.7.7-1.4,1.05-2.1,1.11-2.22,2.65-4.52,2.92-7,.01-.1-.02-.17-.07-.22.79-5.38-1.04-14.44-8.43-13.41Z"/><path class="cls-13" d="m180.23,121.57c-.66.15-1.25.57-1.65,1.11-.31.42-.32.85.18,1.12.34.19.73.1,1.04-.1.18-.12.35-.26.54-.35.47-.23,1.55-.15,1.62-.83.1-.91-1.09-1.1-1.74-.95Z"/><path class="cls-23" d="m172.08,127.37c.61.22,1.13.61,1.52,1.14.17.24.57,0,.4-.23-.46-.63-1.06-1.08-1.8-1.35-.28-.1-.4.34-.12.44h0Z"/><path class="cls-19" d="m196.55,190.3c-.13-1.08-.11-1.96-1.36-2.65-1.37-.76-3.77.67-5.01,1.08-2.73.91-5.44,1.84-8.15,2.78-3.84-.16-8.49,2.26-11.88,3.71-2,.85-6.15,1.75-6.27,4.37,0,.16.04.28.11.38-.52,2.91-.87,5.76-.01,8.63.08.27.39.53.68.51,4.6-.31,14.19-1.64,15.77-3.21.57-.57,1.87-8.09,2.38-11.79,1.19,2.58,2.39,5.17,3.58,7.75.64,1.38.76,2.58,2.23,2.85.82.15,6.15-1.32,7.26-1.94,1.03-.57,3.49-1.31,3.18-2.4-1.01-3.45-2.04-6.4-2.5-10.07Z"/><path class="cls-2" d="m198.8,153.11c.15-.78.32-1.56.5-2.32.78-3.19,1.68-2.99,2.02-6.27.05-.44-4.52-9.04-7.57-8.83-4.9.33-10.41,2.37-12.18,3.27-1.56.78-1.33,2.21-3.1,3.33-2.15,1.37-4.3,1.01-6.54.21-.08-.14-.24-.21-.41-.14-.18-.04-.3.07-.35.22-.15.5-1.74,1.11-2.15,1.35-1.57.9-3.16,1.78-4.72,2.69-2.6,1.52-5.07,3.37-6.7,5.93-1.78,2.8-2.51,6.21-3.28,9.37-.05.22.14.39.32.42.61,1.28,2.54,1.16,3.6,2.1.88.78,1.86,3.13,2.74,3.9.08.07.13.17.14.28.02.33.05.66.08,1,0,.11.08.2.15.27.04.04.07.09.08.16.72,4.04.99,8.13,1.26,12.22.14,2.15.3,4.3.54,6.45.4,3.48.18,6.69.12,10.22,0,.2.03,2.16.04,3,0,.23.18.41.41.42,3.72.17,13.72-2.27,17.93-3.84,4.14-1.54,11.25-3.57,15.18-5.69.86-.46-.13-6.81.14-8.82.71-5.23.9-10.51.87-15.77-.02-2.43-.36-4.98-.15-7.4.22-2.53.54-5.17,1.03-7.72Z"/><path class="cls-23" d="m184.08,125.85c-.21.13-.41.28-.59.44-.23.19.1.52.33.33.16-.14.32-.26.5-.37.25-.16.02-.56-.23-.4h0Z"/><path class="cls-11" d="m156.99,219.38c.06-.42.21-.83.55-1.07.15.31.09.67.06,1.01-.08.92.09,1.86.48,2.7.33.71,1.27.81,1.5.45.46-.73.12-2.44.14-3.26.03-1.11.07-2.38-.37-3.43-1.12-2.66-2.91-5.2-2.97-8.15-.07-3.58.36-7.3.85-10.85.02-.17-.03-.3-.12-.39,0-.02,0-.03,0-.04-.1-1.18-.3-2.88-1.87-3.02-1.26-.11-2.49.52-3.38,1.34-.32-.16-.82-.05-.86.41-.46,4.41-.76,8.84-.74,13.28.02,4.26.56,8.46.82,12.69.13,2.03.55,4.2,2.66,4.69.03,0,.06,0,.1,0,.44.29.97.51,1.62.62.03,0,.05,0,.08,0,.33.13.7.22,1.13.23.4.51.87.93,1.43,1.22.47.25,1.11-.14.85-.68-1.12-2.25-2.15-4.91-2-7.43,0-.1.02-.2.03-.31Z"/><path class="cls-1" d="m183.3,140.37c-.41-.4-1.39-1.48-2.04-1.85-.3-.17-.67-.07-.84.23-.57,1.02-1.52,2.78-2.37,3.32-1.59.99-5.08-1.22-6.23-2.24-.17-.15-1.43,1.65-2.07,3.82-.3,1.05,6.36,5.64,6.7,4.74.57-1.47.97-2.97,1.24-4.51.02-.12.17-.16.26-.07.51.59,1.02,1.18,1.54,1.77.47.54.97,1.34,1.59,1.78.21.15.53.12.7-.07,2.18-2.42,1.68-6.77,1.52-6.92Z"/><path class="cls-2" d="m166.83,159.42c-.65-3.66-8.55-7.89-9.49-6.41-2.25,4.26-2,5.15-3.02,8.91-1.42,5.23-2.84,10.72-4.05,16-1.7,7.37-2.41,14.87-2.88,22.81,4.01.44,8.1-2.57,11.86-4.31.23-2.32.52-4.45.88-5.74,1.05-3.73,2.67-7.23,3.55-11.03,1.46-6.27,4.3-13.74,3.14-20.23Z"/><path class="cls-1" d="m159.06,194.48c-3.72-.75-7.52.07-11.52.29-.17,0-.3.06-.41.14-.24.09-.43.29-.45.61-.14,2.27-.43,8.47.23,8.48,3.04.08,8.63-.65,11.43-1.84.99-.42,1.22-5.14,1.47-6.71.08-.51-.35-.95-.75-.96Z"/><path class="cls-2" d="m167.42,165.82c-.74,3.85-1.59,7.69-2.56,11.49-.32,1.26-.66,2.54-1.44,3.58l4-15.07Z"/><path class="cls-2" d="m167.13,165.73c-.5,2.6-1.05,5.19-1.65,7.77-.56,2.39-.91,5.16-2.32,7.23-.22.33.31.64.53.31,1.34-1.98,1.71-4.52,2.24-6.8.65-2.77,1.25-5.55,1.79-8.34.07-.39-.52-.55-.59-.16h0Z"/><path class="cls-27" d="m166.83,162.02c-.21,6.31-1.55,12.48-3.95,18.32-.11.27.33.39.44.12,2.42-5.88,3.76-12.09,3.97-18.44,0-.3-.45-.3-.46,0h0Z"/><path class="cls-27" d="m194.63,185.78c-7.56,6.2-17.37,8.26-26.72,10.16-.29.06-.17.5.12.44,9.44-1.91,19.28-4.02,26.92-10.28.23-.19-.1-.51-.33-.33h0Z"/><path class="cls-27" d="m189.6,172.33c-1.48,6.37-4.7,12.14-9.34,16.76-.21.21.12.54.33.33,4.69-4.66,7.97-10.51,9.46-16.96.07-.29-.38-.41-.44-.12h0Z"/><path class="cls-27" d="m188.16,208.85c-1.64,1.98-3.74,3.97-4.92,6.28-1.22,2.4-.74,5.65-.86,8.26-.3,6.47-1.01,12.91-1.97,19.31-.04.29.4.42.44.12.86-5.68,1.52-11.38,1.87-17.11.09-1.46.16-2.93.21-4.39.05-1.58-.1-3.34.31-4.87.4-1.49,1.42-2.64,2.39-3.81.95-1.16,1.91-2.31,2.87-3.47.19-.23-.14-.55-.33-.33h0Z"/><path class="cls-18" d="m223.11,108.71c-.18.65-.34,2.04-.83,2.41-1.24.93-1.12-1.24-1.12-1.96,0-1.55.35-3.42.93-4.85.26-.65,2-2.55.88-2.98-1.11-.42-1.79.86-2.31,1.66-.29.45-.55.92-.8,1.39.27-1.28.68-2.54,1.23-3.77.36-.8-.71-.91-1.18-.64-.24.14-.35.4-.48.62-.43.09-.76.26-1.04.66-.11.16-.21.34-.31.51-.33-.02-.65.03-.91.28-.38.37-.62.9-.89,1.35-.82,1.37-1.86,2.84-1.96,4.5-.08,1.36.16,2.58.45,3.9.19.9.48,1.87.27,2.79-.23.98-3.09,7.32-4.18,9.46-.23.44.06.87.41,1-.08.3.02.64.4.74.75.2,1.49-.23,2.21.12.68.34,1.14.92,1.43,1.62.18.43.61.43.9.22.16-.02.31-.11.41-.31,1.2-2.29,3.19-9.55,3.5-10.34,2.76-2.35,4.39-4.64,4.72-8.94.07-.9-1.48-.36-1.73.53Z"/><path class="cls-2" d="m211.05,120.99c-.43-.01-.43,1.47-.45,1.79-1.72,3.85-4.18,6.2-6.58,9.67-1.35,1.94-4.7,1.99-5.49,2.11-.91.14-1.81.28-2.72.43-1.85.31-5.11.99-6.92,1.47-.16.04,2.84,11.04,4.1,16.06.11.43.49.55.83.46.19.13.44.16.69,0,.31-.2.61-.41.91-.61.02,0,3.83-1.37,3.84-1.39.81-1.83,2.85-2.78,6.17-4.86,2.49-1.55,5.28-2.97,7.24-5.19-1.13,1.28,1.82-1.14,4.47-7.51,1.03-2.49,2.99-6.53,3.07-9.25.07-2.66-6.38-3.1-9.16-3.18Z"/><path class="cls-27" d="m199.74,143.44c-1.3,4.36-2.48,8.74-3.54,13.16-.07.29.38.41.44.12,1.06-4.42,2.24-8.81,3.54-13.16.09-.28-.36-.41-.44-.12h0Z"/><path class="cls-19" d="m221.05,123.36c-2.29-2.49-5.09-4.31-8.3-5.45-.39-.14-.68.08-.79.37-.08.05-.16.11-.22.2-1.16,1.52-2.01,3.21-2.54,5.03-.08.27.01.48.17.63-.07.26,0,.54.33.7,2.91,1.34,5.47,3.08,7.91,5.13.11.09.23.13.35.15.24.48.91.47,1.31-.1,1.83-2.59,2.1-6.31,1.79-6.66Z"/><path class="cls-27" d="m203.64,134.4c1.47-.37,2.94-.73,4.41-1.1.29-.07.17-.52-.12-.44-1.47.37-2.94.73-4.41,1.1-.29.07-.17.52.12.44h0Z"/><path class="cls-23" d="m218.98,101.52c-.67,1.5-1.01,3.07-1.01,4.71,0,.3.46.3.46,0,0-1.56.31-3.06.95-4.48.12-.27-.28-.5-.4-.23h0Z"/><path class="cls-23" d="m217.51,102.32c-.48.71-.79,1.48-1.06,2.29-.26.78-.52,1.51-.25,2.32.09.28.54.16.44-.12-.41-1.26.57-3.22,1.26-4.25.17-.25-.23-.48-.4-.23h0Z"/><path class="cls-23" d="m219.8,104.52c-.25.6-.36,1.23-.33,1.88.01.3.47.3.46,0-.03-.61.08-1.19.32-1.76.11-.27-.33-.39-.44-.12h0Z"/><path class="cls-23" d="m154.69,221.31c.09,1.62.26,3.29,1.51,4.46.22.2.54-.12.33-.33-1.16-1.09-1.29-2.63-1.38-4.13-.02-.29-.48-.3-.46,0h0Z"/><path class="cls-23" d="m152.95,220.98c.14,1.72.65,3.32,1.55,4.8.15.25.55.02.4-.23-.86-1.4-1.36-2.92-1.49-4.56-.02-.29-.48-.3-.46,0h0Z"/><path class="cls-27" d="m167.33,121.66c-.64.88-.28,2.04.48,2.72.77.68,1.83.9,2.81.63.38-.11.22-.7-.16-.59-.68.19-1.39.1-1.98-.3-.7-.47-1.18-1.39-.62-2.15.23-.32-.3-.63-.53-.31h0Z"/><path class="cls-27" d="m172.74,119c2.29-1.22,4.76-.92,7.16-.21.38.11.54-.48.16-.59-2.57-.75-5.2-1.02-7.63.27-.35.19-.04.72.31.53h0Z"/><path class="cls-27" d="m170.09,128.44c-.22.56-1.33.59-1.81.58-.4-.01-.4.6,0,.61.84.03,2.04-.15,2.4-1.03.15-.37-.45-.53-.59-.16h0Z"/><path class="cls-27" d="m162.93,242.83c-.34,1.74-.67,3.48-1.01,5.22-.06.29.39.41.44.12.34-1.74.67-3.48,1.01-5.22.06-.29-.39-.41-.44-.12h0Z"/><path class="cls-23" d="m244.85,116.86c-.25.65-.56,1.27-.93,1.86-.16.25.24.48.4.23.39-.63.71-1.28.98-1.97.11-.28-.34-.4-.44-.12h0Z"/><path class="cls-21" d="m230.19,134.04c-1.1-1.32-3.42-3.46-5.29-3.46-1.19,0-1.89,3.04-2.28,3.93-1.29.99-2.57,2.02-3.5,3.33-1.57,2.23-1.13,4.82-2.38,7.12-1.24,2.29-4.17,3.66-6.06,5.46-1.58,1.5-2.99,3.2-4.18,5.03-2.26,3.48-2.82,6.89-.39,10.47,1.87,2.75,5.25,6.03,8.71,6.5.1.41.56.75,1.03.46,5.39-3.32,4.6-9.72,6.94-14.85,1.5-3.29,4.55-5.76,5.18-9.45.38-2.27.52-4.57.75-6.85.12-1.17-.05-2.92.37-4.03.33-.86.65-1.73.98-2.59.27-.24.4-.7.1-1.06Z"/><path class="cls-11" d="m218.13,150.54s.06-.09.09-.13c.24-.33-.25-.64-.53-.4-2.82-.69-5.74-.69-8.63-.77,0-.46-.69-.46-.68-.02,0,.01,0,.03,0,.04-.22.11-.23.47,0,.6-.02,4.04-.44,8.03-1.29,11.99-.04.2.1.45.33.43,2.93-.17,5.8-.62,8.63-1.37.19-.05.26-.22.23-.37.13-.03.25-.14.25-.31.08-3.15-.31-6.87,1.54-9.6.02-.03.04-.05.05-.08Z"/><path class="cls-18" d="m243.98,115.93c.1-.33-.14.26-.05-.07.23-.85.92-3.12.01-3.91-.34-.3-.79-.21-1.08.13-.27.31-.24.98-.3,1.33-.14.78-.4,1.49-.75,2.16.23-1.15.4-2.32.48-3.5.06-.85.4-3.47-.73-3.94-1.72-.71-1.02,5.91-2.19,7.79.18-1.26.28-2.54.24-3.8-.02-.74-.07-3.28-1.12-3.53-.86-.21-.89.99-.93,1.52-.12,1.73-.04,3.49-.31,5.21-.17,1.09-.78,5.06-2.45,3.58-.75-.66-1.05-2.07-1.73-2.82-.33-.35-2.2-1.24-2.04,0,.21,1.63,1.36,2.98,1.97,4.48.54,1.34,1.29,3.42,2.09,4.2.21.21.37.46.39.76.24,2.54.37,5.08.38,7.64,0,.12.06.21.14.25.09.12.27.21.86.04,1.67-.48,3.45.33,4.14,1.94.21.49.39.59.55.59,0,.02,0,.05,0,.07.02.43.68.4.66-.03-.08-1.98-.17-3.96-.25-5.93-.07-1.54-.05-3.07-.2-4.61-.01-.12-.02-.24-.02-.37.04-.68.49-1.49.73-2.12.27-.72.55-1.45.85-2.16.37-.89,1.87-3.49,1.59-4.54-.2-.76-.7-.96-.94-.36Z"/><path class="cls-19" d="m239.61,237.87c-.35-9.53-1.01-19.05-2.1-28.52-.73-6.36-1.01-11.93-5.42-16.85-.4-.45-.6-1.03-.62-1.63-.06-1.73-.6-4.65-.79-6.37-.08-.74-1.1-.85-1.32-.31-3.3.35-6.58.79-9.85,1.36-3.6.63-13.5,2.69-13.35,2.97.45.85.41,4.16.43,6.02.03,2.39-1.15,4.22-2.14,6.41-1.8,3.98-3,8.2-4.23,12.38-2.96,10.11-4.55,19.79-6.89,30.05-1.65,7.21-4.32,14.22-7.17,21.03-2.95,7.05-5.53,14.14-6.85,21.7-.25,1.42.14,1.11.99,1.43,1.12.43,2.3.25,3.64.22,2.92-.06,5.82.16,8.71.57,5.68.82,9.35,1.99,14.93,3.28,6.51,1.5,13.08,2.81,19.72,3.59,3.18.37,6.54.84,9.75.72,1.08-.04,1.94-.94,1.98-2.02.08-2.01.16-4.02.24-6.02.53-14.12.86-28.25.57-42.38-.05-2.54-.12-5.09-.22-7.63Z"/><path class="cls-11" d="m220.64,144.68c.62-.79,1.22-2.52.87-3.45-.2-.54-.98-.26-1.88-.54-.2-.06-.37-.21-.45-.4-1.22-2.79-3.08-5.12-6.32-5.39-.02,0-.04-.02-.06-.02-.04,0-.08,0-.11,0-.02,0-.03,0-.05,0-.01,0-.02,0-.03,0-3.86-.11-8.49,3-8.87,7.09-.29,3.12,1.88,5.18,4.53,5.83.65.95,1.42,1.82,2.22,2.66.99,1.05,3.9,2.74,4.39,2.62,4.41-1.11,8.01-2.6,6.03-7.43-.13-.31-.17-.65-.26-.98Z"/><path class="cls-21" d="m244.26,137.33c-.05-1.75-.74-3.35-1.5-4.9-.05-.09-.11-.14-.19-.16.05-1.04,0-2.07-.14-3.1-.03-.19-.17-.26-.31-.24-.01-.12-.08-.24-.24-.27-.97-.24-3.39-.13-4.39-.08-.66.03-1.61.05-2.17.42-.37.25-.43.59-.5,1.01-.16,1.06-.2,2.14-.3,3.21-1.19,1.58-1.88,3.02-1.92,5.02-.06,2.82.52,5.53-1.13,7.95-.36.54-.74,1.06-1.12,1.59-2.05,2.87-3.02,5.95-7.12,7.19-.16.05,1.32,1.23,1.43,1.3,0,.01,0,.02.01.04,2.24,4.05,8.05,11.57,9.85,15.83.16.39,9.15-12.43,8.68-27.32-.06-1.96,1.11-5.51,1.05-7.5Z"/><path class="cls-21" d="m233.36,164.86c-.58-3.25-1.15-7.43-3.74-9.66-1.05-.9-2.21-.88-3.52-.71-2.17.27-4.33.79-6.45,1.35-.06-.02-.13-.04-.21-.02-2.66.56-5.35,1.13-8.09,1.1-2.21-.03-4.51-.8-6.71-.29-4.92,1.14-5.73,6.72-5.41,10.94.33,4.33,1.48,8.67,2.59,12.85.46,1.74.92,3.48,1.4,5.21.41,1.49.61,3.24,1.56,4.51.64.84,1.59,1.4,2.6,1.73,4.47,1.47,9.43.31,13.7-1.25,3.26-1.19,6.8-1.6,10.25-1.16,6.88.87,2.65-21.18,2.06-24.48,0-.04-.01-.08-.02-.12Z"/><path class="cls-21" d="m220.13,157.16c-.06-1.06.25-2.96-1.2-3.12-1.88-.21-3.98.12-5.87.18-.05,0-.08.02-.13.03-1.25-.32-2.25-.28-2.68,1.23-.33,1.16-.53,2.54-.65,3.75-.07.72-.03,1.39.63,1.83,1.39.94,4.47-.29,5.86-.64,1.62-.41,3.08-1.03,3.5-2.63.3-.04.56-.25.54-.64Z"/><path class="cls-14" d="m219.29,167.66c-1.71-2.14-3.99-3.89-4.5-6.67-.19-1.06-.25-2.13-.31-3.2-.03-.61.13-1.21.45-1.73.76-1.22,1.33-2.53,1.44-3.98.09-1.21-.54-2.23-.53-3.39,0-2.38,1.44-3.26,2.51-4.99,2.55-4.14-1.14-8.08-5.01-9.35-3.77-1.23-8.5,1.12-10.87,4.42-2.4,3.35-2.07,5.8-.39,9.07.64,1.25.36,2.77-.72,3.68-1.79,1.5-4.19,2.61-5.31,4.63-1.89,3.42,2.96,7.88-.3,10.62-1.23,1.03-2.87,1.41-4.15,2.38-1.07.82-1.97,1.88-2.51,3.12-.99,2.28-.54,4.92,1.21,6.65.72,1.77,3.05,2.39,4.75,2.84,2.35.61,4.92.81,7.26.02,3.15-1.06,4.95-4.21,8.64-3.49,2.46.48,4.62,1.88,7.13.78,3.42-1.5,3.91-5.44,2.81-8.64-.36-1.04-.94-1.93-1.61-2.77Z"/><path class="cls-22" d="m198,159.45c.27.91.83,1.79.86,2.75.04,1.12-.58,2.1-1.52,2.66-.34.2-.03.74.31.53.92-.56,1.58-1.42,1.77-2.5.23-1.32-.47-2.39-.83-3.61-.11-.38-.7-.22-.59.16h0Z"/><path class="cls-22" d="m210.49,153.14c-2.52,3-4.78,6.28-3.43,10.35,1.11,3.35,8.26,9.68,3.18,12.74-.34.2-.03.74.31.53,3.56-2.15,1.57-6.45-.29-9.02-1.51-2.08-3.03-4.21-3.03-6.9,0-2.84,1.97-5.21,3.7-7.26.25-.3-.18-.74-.43-.43h0Z"/><path class="cls-22" d="m204.27,149.43c2.02.75,4.52,1.49,6.7,1.24,1.65-.18,2.66-1.47,3.57-2.74.23-.32-.3-.63-.53-.31-1.25,1.74-2.46,2.62-4.72,2.38-1.67-.18-3.28-.58-4.86-1.17-.37-.14-.53.46-.16.59h0Z"/><path class="cls-22" d="m205.51,152.3c-1.35,3.46-1.66,7.1-.95,10.74.08.39.67.22.59-.16-.68-3.53-.35-7.07.95-10.42.14-.37-.45-.53-.59-.16h0Z"/><path class="cls-22" d="m214.74,138.02c1.06,2.53.32,5.23-1.96,6.77-.33.22-.02.75.31.53,2.5-1.68,3.42-4.68,2.25-7.47-.15-.36-.75-.2-.59.16h0Z"/><path class="cls-27" d="m210.87,196.35c5.81-.21,11.55-1.05,17.17-2.51.29-.07.17-.52-.12-.44-5.58,1.45-11.28,2.29-17.05,2.5-.3.01-.3.47,0,.46h0Z"/><path class="cls-27" d="m196.72,245.92c-1.61,4.94-3.48,9.79-5.63,14.52-.12.27.28.5.4.23,2.16-4.77,4.06-9.65,5.68-14.63.09-.28-.35-.4-.44-.12h0Z"/><path class="cls-27" d="m236.94,228.93c-.41,13.51-2.37,26.93-5.84,39.99-.08.29.37.41.44.12,3.48-13.1,5.44-26.56,5.85-40.11,0-.3-.45-.3-.46,0h0Z"/><path class="cls-27" d="m236,163.99c-1.25,3.91-2.5,7.81-3.75,11.72-.09.28.35.4.44.12,1.25-3.91,2.5-7.81,3.75-11.72.09-.28-.35-.4-.44-.12h0Z"/><path class="cls-27" d="m215.51,156.78c1.25-.5,2.55-.64,3.88-.41.29.05.41-.39.12-.44-1.41-.25-2.8-.12-4.13.41-.27.11-.15.55.12.44h0Z"/><path class="cls-27" d="m236.51,139.98c-1.34,2.16-2.68,4.32-4.02,6.48-.16.25.24.48.4.23,1.34-2.16,2.68-4.32,4.02-6.48.16-.25-.24-.48-.4-.23h0Z"/><path class="cls-27" d="m225.39,153.35c-1.3.28-2.73.76-4.06.84-1.39.09-2.39-.7-3.74-.57-.29.03-.3.49,0,.46,1.25-.12,2.08.81,3.28.67,1.55-.18,3.12-.62,4.65-.96.29-.06.17-.51-.12-.44h0Z"/></g><path class="cls-5" d="m267.66,235.59c-63.66,18.67-130.51-17.86-149.18-81.53C99.81,90.39,136.34,23.55,200.01,4.88c63.66-18.67,130.51,17.86,149.18,81.53,18.67,63.67-17.86,130.51-81.53,149.18Zm-4.27-15.72c-55.25,16.2-113.25-15.5-129.44-70.74-16.2-55.24,15.5-113.25,70.74-129.44,55.24-16.2,113.25,15.5,129.44,70.74,16.2,55.24-15.5,113.25-70.74,129.44Z"/><path class="cls-3" d="m237.01,10.51s-40.94-2.66-70.78,25.02c-1.2,1.11-3.09,1.04-4.2-.16-1.11-1.21-1.04-3.09.16-4.2C193.9,1.76,237.39,4.58,237.39,4.58c1.64.1,2.88,1.52,2.77,3.16-.11,1.64-1.52,2.88-3.16,2.77Z"/><ellipse class="cls-7" cx="247.78" cy="7.96" rx="3.52" ry="3.67" transform="translate(197.74 250.76) rotate(-80.19)"/></g></g></svg>