<?xml version="1.0" encoding="UTF-8"?>
<svg id="_圖層_2" data-name="圖層 2" xmlns="http://www.w3.org/2000/svg" width="114.27" height="102.18" viewBox="0 0 114.27 102.18">
  <g id="_漂浮按鈕" data-name="漂浮按鈕">
    <g id="green_ch">
      <g>
        <path d="m114.27,48.84c0,26.97-21.86,48.84-48.84,48.84-26.97,0-48.84-21.86-48.84-48.84,0-26.97,21.86-48.84,48.84-48.84,26.97,0,48.84,21.86,48.84,48.84Z" style="fill: #1c8bb7; stroke-width: 0px;"/>
        <polygon points="36.14 84.99 0 78.59 17.97 48.07 36.14 84.99" style="fill: #1c8bb7; stroke-width: 0px;"/>
      </g>
      <g>
        <g>
          <path d="m39.55,37.68c-.32,2.15-.85,4.64-1.3,6.23-.34-.13-1.11-.34-1.51-.45.5-1.64.95-4.03,1.25-6.1l1.56.32Zm5.27-1.48c-.08-.4-.21-.85-.34-1.33-5.62.87-6.41,1.06-6.89,1.35-.11-.4-.4-1.27-.61-1.78.53-.11,1.14-.77,1.93-1.78.42-.45,1.27-1.59,2.23-3.05-2.78.34-3.37.45-3.74.64-.11-.4-.4-1.27-.61-1.78.42-.11.9-.66,1.4-1.46.56-.77,2.33-3.74,3.37-6.57l1.78.72c-1.11,2.46-2.52,5.01-3.95,7l2.84-.27c.74-1.14,1.43-2.41,2.04-3.6l1.59.93c-1.7,3.1-3.82,6.25-5.96,8.72l4.11-.53c-.29-.88-.61-1.78-.9-2.54l1.38-.42c.66,1.7,1.46,3.92,1.8,5.19l-1.46.56Zm-2.73,1.06c.34,1.7.64,3.92.72,5.41l-1.51.37c-.08-1.51-.34-3.76-.66-5.51l1.46-.27Zm9.36,1.99c-1.59,1.11-3.29,2.28-4.72,3.18l-.82-1.11-1.17.42c-.21-1.27-.85-3.23-1.35-4.72l1.33-.45c.53,1.35,1.09,3.05,1.38,4.29,1.27-.8,3.02-1.94,4.72-3.07l.64,1.46Zm9.57-9.04v1.75h-6.71v10.6c0,1.01-.19,1.48-.87,1.78-.69.26-1.72.32-3.29.29-.08-.5-.34-1.22-.61-1.72,1.14.05,2.2.03,2.52.03.34-.03.42-.11.42-.4v-10.58h-6.55v-1.75h8.83c.16-.66.29-1.35.45-2.07h-7.95c.69-1.99,1.51-5.27,2.04-7.71l1.83.19c-.13.64-.29,1.3-.45,1.96h5.78l.32-.11,1.35.21c-.37,2.2-.95,5.12-1.54,7.53h4.43Zm-11.24,7.1c-.61-.98-1.91-2.54-3.02-3.63l1.33-.93c1.11,1.06,2.46,2.54,3.1,3.5l-1.4,1.06Zm5.78-10.73c.16-.87.34-1.7.48-2.44h-5.72c-.24.85-.48,1.7-.69,2.44h5.94Zm.56,11.13c1.62,1.06,3.79,2.6,4.82,3.6l-1.06,1.4c-1.03-1.06-3.15-2.68-4.82-3.79l1.06-1.22Zm4.21-3.98c-1.11,1.22-2.54,2.49-3.66,3.37l-1.19-.9c1.06-.9,2.57-2.41,3.42-3.5l1.43,1.03Z" style="fill: #fff; stroke-width: 0px;"/>
          <path d="m82.47,42.37c2.62,0,3.02-.74,3.34-4.21.5.32,1.3.61,1.88.72-.45,4.11-1.25,5.3-5.22,5.3h-10.18c-4.16,0-5.46-.74-5.46-3.79v-11.29c-.77.69-1.56,1.27-2.36,1.83-.16-.45-.74-1.4-1.06-1.85,3.21-1.96,6.44-5.2,8.27-8.75l1.75.66c-.32.58-.64,1.14-.98,1.72h6.97l.4-.11,1.3.93c-.93,1.4-2.15,2.92-3.39,4.19h7.29v9.49h-1.93v-1.17h-14.34v4.37c0,1.56.56,1.96,3.42,1.96h10.31Zm-11.26-17.89c-.85,1.14-1.86,2.23-2.86,3.23h7c.98-.9,2.01-2.12,2.78-3.23h-6.92Zm-2.47,9.67h6.1v-4.61h-6.1v4.61Zm14.34-4.61h-6.33v4.61h6.33v-4.61Z" style="fill: #fff; stroke-width: 0px;"/>
          <path d="m45.89,52.93c-.77,1.72-1.64,3.42-2.65,5.01v18.5h-1.91v-15.69c-1.14,1.51-2.36,2.89-3.58,4.03-.21-.48-.77-1.48-1.11-1.96,2.89-2.49,5.72-6.44,7.42-10.5l1.83.61Zm11.18,20.81c1.48,0,1.7-1.17,1.91-5.7.5.4,1.27.77,1.83.9-.32,4.9-.85,6.6-3.63,6.6h-5.04c-2.62,0-3.45-.77-3.45-3.58v-19.32h1.91v7.21h9.41v1.91h-9.41v10.26c0,1.4.29,1.72,1.67,1.72h4.8Z" style="fill: #fff; stroke-width: 0px;"/>
          <path d="m87.32,71.27h-10.6v3.05c0,1.03-.21,1.48-1.03,1.78-.85.29-2.17.27-4.27.27-.11-.5-.42-1.17-.69-1.67,1.64.05,3.13.05,3.53.05.45-.03.56-.11.56-.48v-3h-11.05v-1.67h11.05v-1.14c1.4-.5,2.94-1.25,4.21-2.01h-10.36v-1.48h12.46l.4-.11,1.19.98c-1.64,1.25-3.9,2.44-5.99,3.29v.48h10.6v1.67Zm-21.1-4.82h-1.88v-4.8h2.12l-.53-7.87c1.54-.27,3.82-.9,5.12-1.3l.87,1.22c-1.14.42-2.7.77-4.08,1.03l.11,1.3h3.84v1.35h-3.76l.11,1.43h3.76v1.35h-3.68l.11,1.48h14.52c.05-.48.11-.95.16-1.48h-3.84v-1.35h3.95l.13-1.43h-3.92v-1.35h4l.08-1.43h-4.21v-1.35h6.12c-.13,2.62-.37,6.04-.58,8.4h2.07v4.8h-1.93v-3.29h-18.63v3.29Zm11.34-5.01c-.45-.48-1.14-.98-1.91-1.54-.87.69-1.78,1.25-2.65,1.72-.19-.26-.74-.77-1.09-1.03.87-.4,1.72-.9,2.52-1.46-.64-.4-1.3-.74-1.91-1.03l.98-.87c.66.29,1.35.69,2.04,1.06.48-.42.95-.9,1.33-1.4l1.38.45c-.45.58-.95,1.14-1.54,1.7.74.48,1.43.98,1.91,1.46l-1.06.95Zm-.05-4.72c-.42-.4-1.11-.9-1.83-1.35-.82.61-1.64,1.17-2.47,1.59-.21-.24-.77-.72-1.11-.95.82-.37,1.62-.85,2.36-1.35-.61-.37-1.27-.69-1.86-.95l.95-.87c.64.27,1.3.61,1.99.98.48-.42.9-.87,1.25-1.3l1.38.37c-.42.56-.9,1.09-1.46,1.62.72.45,1.35.87,1.83,1.25l-1.03.98Z" style="fill: #fff; stroke-width: 0px;"/>
        </g>
        <g>
          <path d="m39.55,37.68c-.32,2.15-.85,4.64-1.3,6.23-.34-.13-1.11-.34-1.51-.45.5-1.64.95-4.03,1.25-6.1l1.56.32Zm5.27-1.48c-.08-.4-.21-.85-.34-1.33-5.62.87-6.41,1.06-6.89,1.35-.11-.4-.4-1.27-.61-1.78.53-.11,1.14-.77,1.93-1.78.42-.45,1.27-1.59,2.23-3.05-2.78.34-3.37.45-3.74.64-.11-.4-.4-1.27-.61-1.78.42-.11.9-.66,1.4-1.46.56-.77,2.33-3.74,3.37-6.57l1.78.72c-1.11,2.46-2.52,5.01-3.95,7l2.84-.27c.74-1.14,1.43-2.41,2.04-3.6l1.59.93c-1.7,3.1-3.82,6.25-5.96,8.72l4.11-.53c-.29-.88-.61-1.78-.9-2.54l1.38-.42c.66,1.7,1.46,3.92,1.8,5.19l-1.46.56Zm-2.73,1.06c.34,1.7.64,3.92.72,5.41l-1.51.37c-.08-1.51-.34-3.76-.66-5.51l1.46-.27Zm9.36,1.99c-1.59,1.11-3.29,2.28-4.72,3.18l-.82-1.11-1.17.42c-.21-1.27-.85-3.23-1.35-4.72l1.33-.45c.53,1.35,1.09,3.05,1.38,4.29,1.27-.8,3.02-1.94,4.72-3.07l.64,1.46Zm9.57-9.04v1.75h-6.71v10.6c0,1.01-.19,1.48-.87,1.78-.69.26-1.72.32-3.29.29-.08-.5-.34-1.22-.61-1.72,1.14.05,2.2.03,2.52.03.34-.03.42-.11.42-.4v-10.58h-6.55v-1.75h8.83c.16-.66.29-1.35.45-2.07h-7.95c.69-1.99,1.51-5.27,2.04-7.71l1.83.19c-.13.64-.29,1.3-.45,1.96h5.78l.32-.11,1.35.21c-.37,2.2-.95,5.12-1.54,7.53h4.43Zm-11.24,7.1c-.61-.98-1.91-2.54-3.02-3.63l1.33-.93c1.11,1.06,2.46,2.54,3.1,3.5l-1.4,1.06Zm5.78-10.73c.16-.87.34-1.7.48-2.44h-5.72c-.24.85-.48,1.7-.69,2.44h5.94Zm.56,11.13c1.62,1.06,3.79,2.6,4.82,3.6l-1.06,1.4c-1.03-1.06-3.15-2.68-4.82-3.79l1.06-1.22Zm4.21-3.98c-1.11,1.22-2.54,2.49-3.66,3.37l-1.19-.9c1.06-.9,2.57-2.41,3.42-3.5l1.43,1.03Z" style="fill: #fff; stroke-width: 0px;"/>
          <path d="m82.47,42.37c2.62,0,3.02-.74,3.34-4.21.5.32,1.3.61,1.88.72-.45,4.11-1.25,5.3-5.22,5.3h-10.18c-4.16,0-5.46-.74-5.46-3.79v-11.29c-.77.69-1.56,1.27-2.36,1.83-.16-.45-.74-1.4-1.06-1.85,3.21-1.96,6.44-5.2,8.27-8.75l1.75.66c-.32.58-.64,1.14-.98,1.72h6.97l.4-.11,1.3.93c-.93,1.4-2.15,2.92-3.39,4.19h7.29v9.49h-1.93v-1.17h-14.34v4.37c0,1.56.56,1.96,3.42,1.96h10.31Zm-11.26-17.89c-.85,1.14-1.86,2.23-2.86,3.23h7c.98-.9,2.01-2.12,2.78-3.23h-6.92Zm-2.47,9.67h6.1v-4.61h-6.1v4.61Zm14.34-4.61h-6.33v4.61h6.33v-4.61Z" style="fill: #fff; stroke-width: 0px;"/>
          <path d="m45.89,52.93c-.77,1.72-1.64,3.42-2.65,5.01v18.5h-1.91v-15.69c-1.14,1.51-2.36,2.89-3.58,4.03-.21-.48-.77-1.48-1.11-1.96,2.89-2.49,5.72-6.44,7.42-10.5l1.83.61Zm11.18,20.81c1.48,0,1.7-1.17,1.91-5.7.5.4,1.27.77,1.83.9-.32,4.9-.85,6.6-3.63,6.6h-5.04c-2.62,0-3.45-.77-3.45-3.58v-19.32h1.91v7.21h9.41v1.91h-9.41v10.26c0,1.4.29,1.72,1.67,1.72h4.8Z" style="fill: #fff; stroke-width: 0px;"/>
          <path d="m87.32,71.27h-10.6v3.05c0,1.03-.21,1.48-1.03,1.78-.85.29-2.17.27-4.27.27-.11-.5-.42-1.17-.69-1.67,1.64.05,3.13.05,3.53.05.45-.03.56-.11.56-.48v-3h-11.05v-1.67h11.05v-1.14c1.4-.5,2.94-1.25,4.21-2.01h-10.36v-1.48h12.46l.4-.11,1.19.98c-1.64,1.25-3.9,2.44-5.99,3.29v.48h10.6v1.67Zm-21.1-4.82h-1.88v-4.8h2.12l-.53-7.87c1.54-.27,3.82-.9,5.12-1.3l.87,1.22c-1.14.42-2.7.77-4.08,1.03l.11,1.3h3.84v1.35h-3.76l.11,1.43h3.76v1.35h-3.68l.11,1.48h14.52c.05-.48.11-.95.16-1.48h-3.84v-1.35h3.95l.13-1.43h-3.92v-1.35h4l.08-1.43h-4.21v-1.35h6.12c-.13,2.62-.37,6.04-.58,8.4h2.07v4.8h-1.93v-3.29h-18.63v3.29Zm11.34-5.01c-.45-.48-1.14-.98-1.91-1.54-.87.69-1.78,1.25-2.65,1.72-.19-.26-.74-.77-1.09-1.03.87-.4,1.72-.9,2.52-1.46-.64-.4-1.3-.74-1.91-1.03l.98-.87c.66.29,1.35.69,2.04,1.06.48-.42.95-.9,1.33-1.4l1.38.45c-.45.58-.95,1.14-1.54,1.7.74.48,1.43.98,1.91,1.46l-1.06.95Zm-.05-4.72c-.42-.4-1.11-.9-1.83-1.35-.82.61-1.64,1.17-2.47,1.59-.21-.24-.77-.72-1.11-.95.82-.37,1.62-.85,2.36-1.35-.61-.37-1.27-.69-1.86-.95l.95-.87c.64.27,1.3.61,1.99.98.48-.42.9-.87,1.25-1.3l1.38.37c-.42.56-.9,1.09-1.46,1.62.72.45,1.35.87,1.83,1.25l-1.03.98Z" style="fill: #fff; stroke-width: 0px;"/>
        </g>
      </g>
    </g>
  </g>
</svg>