<?xml version="1.0" encoding="UTF-8"?>
<svg id="_圖層_2" data-name="圖層 2" xmlns="http://www.w3.org/2000/svg" width="120" height="117.43" viewBox="0 0 120 117.43">
  <g id="_漂浮按鈕" data-name="漂浮按鈕">
    <g id="green_life">
      <rect width="120" height="82" rx="11.39" ry="11.39" style="fill: #1c8bb7; opacity: .63; stroke-width: 0px;"/>
      <g>
        <g>
          <path d="m47.11,14.84c2.24,3.35,6.38,6.58,10.19,8.17-.36.36-.96,1.11-1.2,1.57-3.64-1.71-7.45-4.82-9.93-8.02-2.48,3.06-6.58,6.38-9.95,8.19-.22-.46-.7-1.06-1.11-1.45,2.99-1.4,6.58-4.12,8.96-6.77h-4.29v-1.69h7.32Zm-.1,19.06h9.4v1.64h-20.36v-1.64h9.13v-4h-6.75v-1.59h6.75v-3.69h-5.71v-1.61h13.44v1.61h-5.9v3.69h6.84v1.59h-6.84v4Z" style="fill: #fff; stroke-width: 0px;"/>
          <path d="m72.02,27.73c1.25,3.83,3.47,6.46,5.61,6.43.72-.02.99-.99,1.13-3.52.41.36,1.06.7,1.57.84-.29,3.52-1.01,4.43-2.77,4.43-3.25.02-6-3.4-7.4-8.19h-7.25v5.95l6.51-1.83c.02.51.12,1.28.22,1.66-7.23,2.14-8.17,2.41-8.77,2.82-.14-.48-.55-1.28-.84-1.64.43-.22,1.06-.77,1.06-1.76V15.44h17.03v6.96h-7.06c.07,1.28.27,2.48.53,3.64h8.31v1.69h-7.88Zm-9.11-10.6v3.59h13.42v-3.59h-13.42Zm6.82,8.91c-.22-1.16-.41-2.36-.48-3.64h-6.34v3.64h6.82Z" style="fill: #fff; stroke-width: 0px;"/>
          <path d="m25.52,58.81c-.29,1.95-.77,4.22-1.18,5.66-.31-.12-1.01-.31-1.37-.41.46-1.49.87-3.66,1.13-5.54l1.42.29Zm4.79-1.35c-.07-.36-.19-.77-.31-1.2-5.11.79-5.83.96-6.26,1.23-.1-.36-.36-1.16-.55-1.61.48-.1,1.04-.7,1.76-1.61.39-.41,1.16-1.45,2.02-2.77-2.53.31-3.06.41-3.4.58-.1-.36-.36-1.16-.55-1.61.39-.1.82-.6,1.28-1.33.51-.7,2.12-3.4,3.06-5.98l1.61.65c-1.01,2.24-2.29,4.55-3.59,6.36l2.58-.24c.67-1.04,1.3-2.19,1.85-3.28l1.45.84c-1.54,2.82-3.47,5.69-5.42,7.93l3.73-.48c-.27-.79-.55-1.61-.82-2.31l1.25-.39c.6,1.54,1.33,3.57,1.64,4.72l-1.32.51Zm-2.48.96c.31,1.54.58,3.57.65,4.92l-1.37.34c-.07-1.37-.31-3.42-.6-5.01l1.33-.24Zm8.51,1.81c-1.45,1.01-2.99,2.07-4.29,2.89l-.75-1.01-1.06.39c-.19-1.16-.77-2.94-1.23-4.29l1.2-.41c.48,1.23.99,2.77,1.25,3.9,1.16-.72,2.75-1.76,4.29-2.79l.58,1.33Zm8.7-8.22v1.59h-6.1v9.64c0,.92-.17,1.35-.8,1.61-.63.24-1.57.29-2.99.26-.07-.46-.31-1.11-.55-1.57,1.04.05,2,.02,2.29.02.31-.02.39-.1.39-.36v-9.61h-5.95v-1.59h8.02c.15-.6.27-1.23.41-1.88h-7.23c.63-1.81,1.37-4.79,1.86-7.01l1.66.17c-.12.58-.26,1.18-.41,1.78h5.25l.29-.1,1.23.19c-.34,2-.87,4.65-1.4,6.84h4.02Zm-10.22,6.46c-.55-.89-1.73-2.31-2.75-3.3l1.2-.84c1.01.96,2.24,2.31,2.82,3.18l-1.28.96Zm5.25-9.76c.14-.79.31-1.54.43-2.22h-5.2c-.22.77-.43,1.54-.63,2.22h5.4Zm.51,10.12c1.47.96,3.45,2.36,4.39,3.28l-.96,1.28c-.94-.96-2.87-2.43-4.39-3.45l.96-1.11Zm3.83-3.61c-1.01,1.11-2.31,2.27-3.33,3.06l-1.08-.82c.96-.82,2.34-2.19,3.11-3.18l1.3.94Z" style="fill: #fff; stroke-width: 0px;"/>
          <path d="m68.94,62.62v1.73h-21.35v-1.73h9.76v-6.12h-7.16v-1.73h7.16v-5.25h-5.66c-.77,1.52-1.61,2.84-2.51,3.93-.36-.29-1.16-.82-1.64-1.06,1.98-2.12,3.52-5.45,4.46-8.87l1.81.39c-.39,1.33-.82,2.63-1.35,3.85h4.89v-4.63h1.83v4.63h8.63v1.76h-8.63v5.25h7.73v1.73h-7.73v6.12h9.76Z" style="fill: #fff; stroke-width: 0px;"/>
          <path d="m75.78,53.87c-.99-.67-2.96-1.83-4.43-2.6l.99-1.3c1.4.7,3.4,1.76,4.46,2.43l-1.01,1.47Zm-3.85,9.71c1.3-1.81,3.16-4.99,4.55-7.71l1.3,1.18c-1.25,2.53-2.94,5.52-4.36,7.73l-1.49-1.21Zm5.06-16.24c-.99-.7-2.99-1.86-4.46-2.65l.99-1.28c1.47.7,3.49,1.81,4.51,2.48l-1.04,1.45Zm9.64,4.51v3.95h5.04v9.18h-1.71v-.89h-8.55v1.01h-1.66v-9.3h5.18v-3.95h-6.94v-1.73h6.94v-3.9c-1.76.26-3.57.48-5.28.65-.1-.43-.34-1.11-.51-1.52,4.14-.43,8.99-1.18,11.66-2.14l1.4,1.4c-1.57.53-3.49.99-5.57,1.35v4.17h6.6v1.73h-6.6Zm3.33,5.61h-8.55v4.96h8.55v-4.96Z" style="fill: #fff; stroke-width: 0px;"/>
        </g>
        <g>
          <path d="m47.11,14.84c2.24,3.35,6.38,6.58,10.19,8.17-.36.36-.96,1.11-1.2,1.57-3.64-1.71-7.45-4.82-9.93-8.02-2.48,3.06-6.58,6.38-9.95,8.19-.22-.46-.7-1.06-1.11-1.45,2.99-1.4,6.58-4.12,8.96-6.77h-4.29v-1.69h7.32Zm-.1,19.06h9.4v1.64h-20.36v-1.64h9.13v-4h-6.75v-1.59h6.75v-3.69h-5.71v-1.61h13.44v1.61h-5.9v3.69h6.84v1.59h-6.84v4Z" style="fill: #fff; stroke-width: 0px;"/>
          <path d="m72.02,27.73c1.25,3.83,3.47,6.46,5.61,6.43.72-.02.99-.99,1.13-3.52.41.36,1.06.7,1.57.84-.29,3.52-1.01,4.43-2.77,4.43-3.25.02-6-3.4-7.4-8.19h-7.25v5.95l6.51-1.83c.02.51.12,1.28.22,1.66-7.23,2.14-8.17,2.41-8.77,2.82-.14-.48-.55-1.28-.84-1.64.43-.22,1.06-.77,1.06-1.76V15.44h17.03v6.96h-7.06c.07,1.28.27,2.48.53,3.64h8.31v1.69h-7.88Zm-9.11-10.6v3.59h13.42v-3.59h-13.42Zm6.82,8.91c-.22-1.16-.41-2.36-.48-3.64h-6.34v3.64h6.82Z" style="fill: #fff; stroke-width: 0px;"/>
          <path d="m25.52,58.81c-.29,1.95-.77,4.22-1.18,5.66-.31-.12-1.01-.31-1.37-.41.46-1.49.87-3.66,1.13-5.54l1.42.29Zm4.79-1.35c-.07-.36-.19-.77-.31-1.2-5.11.79-5.83.96-6.26,1.23-.1-.36-.36-1.16-.55-1.61.48-.1,1.04-.7,1.76-1.61.39-.41,1.16-1.45,2.02-2.77-2.53.31-3.06.41-3.4.58-.1-.36-.36-1.16-.55-1.61.39-.1.82-.6,1.28-1.33.51-.7,2.12-3.4,3.06-5.98l1.61.65c-1.01,2.24-2.29,4.55-3.59,6.36l2.58-.24c.67-1.04,1.3-2.19,1.85-3.28l1.45.84c-1.54,2.82-3.47,5.69-5.42,7.93l3.73-.48c-.27-.79-.55-1.61-.82-2.31l1.25-.39c.6,1.54,1.33,3.57,1.64,4.72l-1.32.51Zm-2.48.96c.31,1.54.58,3.57.65,4.92l-1.37.34c-.07-1.37-.31-3.42-.6-5.01l1.33-.24Zm8.51,1.81c-1.45,1.01-2.99,2.07-4.29,2.89l-.75-1.01-1.06.39c-.19-1.16-.77-2.94-1.23-4.29l1.2-.41c.48,1.23.99,2.77,1.25,3.9,1.16-.72,2.75-1.76,4.29-2.79l.58,1.33Zm8.7-8.22v1.59h-6.1v9.64c0,.92-.17,1.35-.8,1.61-.63.24-1.57.29-2.99.26-.07-.46-.31-1.11-.55-1.57,1.04.05,2,.02,2.29.02.31-.02.39-.1.39-.36v-9.61h-5.95v-1.59h8.02c.15-.6.27-1.23.41-1.88h-7.23c.63-1.81,1.37-4.79,1.86-7.01l1.66.17c-.12.58-.26,1.18-.41,1.78h5.25l.29-.1,1.23.19c-.34,2-.87,4.65-1.4,6.84h4.02Zm-10.22,6.46c-.55-.89-1.73-2.31-2.75-3.3l1.2-.84c1.01.96,2.24,2.31,2.82,3.18l-1.28.96Zm5.25-9.76c.14-.79.31-1.54.43-2.22h-5.2c-.22.77-.43,1.54-.63,2.22h5.4Zm.51,10.12c1.47.96,3.45,2.36,4.39,3.28l-.96,1.28c-.94-.96-2.87-2.43-4.39-3.45l.96-1.11Zm3.83-3.61c-1.01,1.11-2.31,2.27-3.33,3.06l-1.08-.82c.96-.82,2.34-2.19,3.11-3.18l1.3.94Z" style="fill: #fff; stroke-width: 0px;"/>
          <path d="m68.94,62.62v1.73h-21.35v-1.73h9.76v-6.12h-7.16v-1.73h7.16v-5.25h-5.66c-.77,1.52-1.61,2.84-2.51,3.93-.36-.29-1.16-.82-1.64-1.06,1.98-2.12,3.52-5.45,4.46-8.87l1.81.39c-.39,1.33-.82,2.63-1.35,3.85h4.89v-4.63h1.83v4.63h8.63v1.76h-8.63v5.25h7.73v1.73h-7.73v6.12h9.76Z" style="fill: #fff; stroke-width: 0px;"/>
          <path d="m75.78,53.87c-.99-.67-2.96-1.83-4.43-2.6l.99-1.3c1.4.7,3.4,1.76,4.46,2.43l-1.01,1.47Zm-3.85,9.71c1.3-1.81,3.16-4.99,4.55-7.71l1.3,1.18c-1.25,2.53-2.94,5.52-4.36,7.73l-1.49-1.21Zm5.06-16.24c-.99-.7-2.99-1.86-4.46-2.65l.99-1.28c1.47.7,3.49,1.81,4.51,2.48l-1.04,1.45Zm9.64,4.51v3.95h5.04v9.18h-1.71v-.89h-8.55v1.01h-1.66v-9.3h5.18v-3.95h-6.94v-1.73h6.94v-3.9c-1.76.26-3.57.48-5.28.65-.1-.43-.34-1.11-.51-1.52,4.14-.43,8.99-1.18,11.66-2.14l1.4,1.4c-1.57.53-3.49.99-5.57,1.35v4.17h6.6v1.73h-6.6Zm3.33,5.61h-8.55v4.96h8.55v-4.96Z" style="fill: #fff; stroke-width: 0px;"/>
        </g>
      </g>
    </g>
  </g>
</svg>