<?xml version="1.0" encoding="UTF-8"?>
<svg id="uuid-7c8b56ec-a35b-4534-87dd-a2df1547c7eb" data-name="圖層 2" xmlns="http://www.w3.org/2000/svg" width="100.03" height="85.52" viewBox="0 0 100.03 85.52">
  <g id="uuid-0e48c784-b3d9-4e33-829f-cca6dbcd14c1" data-name="圖層 6">
    <g id="uuid-63350432-6877-4a0a-91dd-dd230cdc07c2" data-name="Kinmen">
      <g>
        <text transform="translate(23.31 76.52)" style="fill: #fff; font-family: NotoSansTC-Bold, &apos;NotoSansTC Bold-90ms-RKSJ-H&apos;; font-size: 18px; font-weight: 700;"><tspan x="0" y="0">金門縣</tspan></text>
        <text transform="translate(23.31 76.52)" style="fill: #696969; font-family: NotoSansTC-Bold, &apos;NotoSansTC Bold-90ms-RKSJ-H&apos;; font-size: 18px; font-weight: 700;"><tspan x="0" y="0">金門縣</tspan></text>
      </g>
      <g>
        <path d="m63.24,39.27l2.98,2.35,1.02,1.65,2.95,1.66,5.05-.66v-.76l3.83-1.41v-2.83s-.17-1.51,0-2.76-.17-2.94,0-3.59-.83-3.65-.83-3.65l-1-2-1-2-2-2-1-1-4-1h-1.31l-1.7,1.26-2.98.57v1.32l-1,3.85s1,2.15,0,2.57l-1,.43h-3l-1-2-2-2-1.5-.96-1.5-1.04s-.65-.94-1.32-.47-3.68.47-3.68.47l-1,2s-1,0-1,1v2.01s1,1.17,0,2.08l-1,.91-2-2-1.5-1.18-.5-.82h-2l-2,1-1,1s-.42,1.66-1.71,1.83-2.29,1.17-2.29,1.17l-2,4v2.21l2,1.79,6-1,3.5-.98,1.5.98c1,1,1,2,1,2l1,1,1,2,1,1,1,1h2c1-1,4.5-1.93,4.5-1.93,0,0-1.5-1.75,0-1.41s1.5-1.66,1.5-1.66l1-1s1-1,3-1,4-1,4-1v-1Z" style="fill: #b3b3b3;"/>
        <g>
          <path d="m59.01,36.01l2.98,2.35,1.02,1.65,2.95,1.66,5.05-.66v-.76l3.83-1.41v-2.83s-.17-1.51,0-2.76-.17-2.94,0-3.59-.83-3.65-.83-3.65l-1-2-1-2-2-2-1-1-4-1h-1.31l-1.7,1.26-2.98.57v1.32l-1,3.85s1,2.15,0,2.57l-1,.43h-3l-1-2-2-2-1.5-.96-1.5-1.04s-.65-.94-1.32-.47-3.68.47-3.68.47l-1,2s-1,0-1,1v2.01s1,1.17,0,2.08l-1,.91-2-2-1.5-1.18-.5-.82h-2l-2,1-1,1s-.42,1.66-1.71,1.83-2.29,1.17-2.29,1.17l-2,4v2.21l2,1.79,6-1,3.5-.98,1.5.98c1,1,1,2,1,2l1,1,1,2,1,1,1,1h2c1-1,4.5-1.93,4.5-1.93,0,0-1.5-1.75,0-1.41s1.5-1.66,1.5-1.66l1-1s1-1,3-1,4-1,4-1v-1Z" style="fill: #bfc971;"/>
          <g style="opacity: .85;">
            <g style="opacity: .85;">
              <path d="m57.65,35.68s-.1.1-.15.14c-.33.12-.66.21-.98.29-.2.17-.4.33-.61.49-.25.08-.55.15-.79.19-.35.09-1.13.04-2.02.32-.9.36-1.5.8-1.88,1.26-.21.25-.31.38-.44.57.15.01,0,.22-.29.54l-.24.26.02.27c.02.24-.12.76-.26.87-.07.05-.06.05-.17.05-.02,0-.06-.01-.09-.01-.03,0-.06,0-.17-.03-.09-.01-.17-.03-.27-.04-.12,0-.23,0-.36.02-.06.14-.1.28-.1.4-.14.01-.38.29-.36.35-.04.11-.02.13,0,.2.03.11.08.21.14.32.09.15.2.31.33.47l.1.13s.12.1.02.1c-.12.03-.24.06-.39.09-.22.2-.53.38-.89.55-.55.25-1.01.46-1.52.69-.18.11-.3.21-.43.3-.24.11-.48.23-.68.37l-.15.11-.2-.02c-.2.02-.32.04-.39.07-.3.1.03.26-.15.37-.44-.03-.89-.06-1.36-.09-.21-.24-.43-.5-.67-.76-.08-.15-.15-.27-.23-.42.12-.02.28-.02.39-.06l.64.33c.06.06.12.12.18.17.59-.02.81-.07.74-.11.14-.09.07-.14-.09-.16-.16-.02-.32-.03-.53-.03-.2-.2-.41-.4-.55-.56,0-.06-.02-.15-.01-.21l.7.43.06-.02c.27-.04.5-.13.68-.18.06-.02.12-.03.21-.04.08-.02.2.03.29-.09.05-.05.13-.08.21-.13.01-.07.07-.18.08-.25.08-.07.31-.2.46-.29.16-.09.33-.18.51-.28.08-.02.16-.05.24-.07.05-.01.09-.02.13-.03-.03.09,0,.16-.12.29-.05.04-.15.11-.35.23-.11.06-.22.12-.36.19-.13.06-.27.14-.44.22.28.13.13.45-.12.83-.05.08-.1.2-.19.2.1.05.16-.02.23-.07.24-.18.45-.41.93-.6.21-.11.44-.22.67-.32.19-.09.4-.17.6-.25-.07-.16-.09-.2-.11-.25.08-.03.17-.06.25-.09.27-.09.56-.17.85-.22.12-.05.23-.09.33-.13.04-.02.12-.03.13-.06l-.11-.13c-.13-.17-.25-.32-.35-.48-.03-.04-.05-.09-.08-.13-.06-.05-.11-.11-.15-.18-.03-.08-.08-.09.04-.4.15-.24.45-.46.6-.5.09-.04.19-.06.28-.08.09-.02.12-.01.18-.02.1,0,.22,0,.3,0,.06,0,.12.02.17.02.07,0,.18,0,.22,0l.05-.03s0-.13.04.08c.02.18.09.15-.1-.02-.05-.05-.1-.07-.17-.13,0-.01,0,0,0-.02,0-.03,0-.07,0-.12,0-.09.02-.3,0-.36l-.09-.45.51-.56c.29-.31.52-.56.91-.95.14-.14.29-.28.46-.4.18-.06,1.01-.53,1.72-.67.8-.4,1.54-.48,1.32-.65-.26,0-.46.02-.65.04-1.03.15-2.22.6-3.06,1.39l-.02.02c-.12.12-.24.26-.37.39-.11.12-.22.24-.32.35l-.16.29-.75,1.3.25-.11s.08.13.11.19c-.04.06-.09.13-.12.15h0s.09.05.12.07c.08.04.17.11.23.15.05.03.12.1.15.14.02.02.06.08.07.08.03.07-.09-.15,0-.74,0-.09.05-.04-.01-.06l-.19-.04c-.14-.02-.21-.05-.45-.05-.22,0-.33-.03-.75.1-.09.03-.17.06-.26.1-.08.04-.16.07-.29.16-.23.16-.44.39-.57.6-.17.43-.14.35-.15.42,0,.05,0,.09,0,.13l.02.09s-.08-.1-.11-.15c-.05-.08-.1-.16-.1-.26l.07-.22c.04-.09,0-.12.2-.37.15-.2.35-.37.55-.51.2-.13.3-.16.46-.23.15-.06.31-.1.47-.13l.26-.02c.15,0,.4,0,.47.01l.32.05h.08s.04.02.04.02h0s0,0,0,0h0c.04-.18-.05.25-.04.2h0s0,.02,0,.02l-.04.14c-.02.09-.03.19-.03.3,0,.1-.01.13,0,.21.02.27.11.31-.02.15-.07-.08-.22-.21-.43-.31-.11-.06-.23-.13-.36-.17-.1-.05-.02-.02-.04-.03.02-.02.06-.21.06-.19l.57-1.38c.34-.31.66-.61.98-.91l.05-.04c.72-.74,1.85-1.26,2.79-1.47.5-.11.97-.18,1.4-.2h.16s.09-.02.09-.02l.16-.02c.11-.02.21-.03.31-.05.41-.08.78-.16,1.1-.15.36-.07.64-.13.97-.22l.03.14Z" style="fill: #fff;"/>
              <path d="m53.09,36.98c-.7.15-1.54.61-1.72.67-.17.12-.32.25-.46.4-.39.39-.62.64-.91.95l-.51.56.09.45c.01.06,0,.27,0,.36,0,.05,0,.09,0,.12,0,.02,0,.01,0,.02.06.05.11.07.17.13.19.17.12.2.1.02-.03-.21,0-.07-.04-.08l-.05.03s-.15,0-.22,0c-.05,0-.11-.01-.17-.02-.08,0-.19,0-.3,0-.06,0-.09,0-.18.02-.09.02-.19.05-.28.08-.15.03-.45.26-.6.5-.12.31-.07.32-.04.4.04.07.09.13.15.18.02.05.05.09.08.13.1.17.21.32.35.48l.11.13s-.08.04-.13.06c-.1.04-.21.08-.33.13-.29.05-.58.13-.85.22-.09.03-.17.06-.25.09.02.04.04.09.11.25-.2.08-.41.16-.6.25-.23.1-.46.21-.67.32-.48.19-.68.42-.93.6-.07.05-.13.12-.23.07.09,0,.14-.12.19-.2.25-.39.4-.7.12-.83.17-.09.31-.16.44-.22.13-.07.25-.14.36-.19.19-.12.3-.19.35-.23.12-.13.09-.2.12-.29l.54-.19.31-.1c.15-.04.29-.09.43-.13.13-.05.38-.05.18-.2-.08-.05-.2-.2-.3-.38-.04-.06-.07-.13-.09-.19-.02-.07-.05-.06.05-.37.01-.03,0-.04.03-.09l.11-.16c.08-.1.15-.18.22-.25.08-.07.16-.14.25-.23.08-.05-.27.01-.72.6.12-.2.34-.44.57-.6.13-.09.21-.13.29-.16.08-.04.17-.07.26-.1.43-.13.53-.09.75-.1.24,0,.3.03.45.05l.19.04c.06.02.02-.03.01.06-.1.59.03.81,0,.74,0,0-.04-.07-.07-.08-.03-.03-.1-.1-.15-.14-.06-.04-.15-.12-.23-.15-.03-.01-.11-.06-.12-.06h0s.08-.09.12-.15c-.03-.07-.06-.21-.11-.19l-.25.11.75-1.3.16-.29c.1-.11.21-.23.32-.35.13-.14.25-.27.37-.39l.02-.02c.84-.8,2.03-1.24,3.06-1.39.2-.02.39-.03.65-.04.22.17-.52.26-1.32.65Z" style="fill: #fff;"/>
              <path d="m47.37,40.84c.45-.59.79-.64.72-.6-.1.09-.18.16-.25.23-.07.07-.15.15-.22.25l-.11.16s-.02.06-.03.09c-.1.31-.07.3-.05.37.02.06.05.13.09.19.1.17.23.32.3.38.2.16-.05.16-.18.2-.14.04-.28.08-.43.13l-.31.1-.54.19s-.08.02-.13.03c-.08.02-.16.05-.24.07-.18.1-.35.19-.51.28-.15.09-.39.22-.46.29-.01.07-.07.18-.08.25-.08.05-.16.08-.21.13-.09.11-.21.07-.29.09-.08,0-.15.02-.21.04-.18.05-.41.14-.68.18l-.06.02-.7-.43c0,.06.01.15.01.21.14.15.35.36.55.56.21,0,.38,0,.53.03.16.02.23.07.09.16.07.04-.15.09-.74.11-.05-.05-.11-.11-.18-.17l-.64-.33c-.11.04-.27.03-.39.06-.38-.35-.75-.68-1.12-1.01-.13-.22-.25-.45-.39-.69l-.2-.41c-.17-.27-.34-.55-.49-.79v-.06c-.09-.2-.16-.4-.25-.6-.36-.45-.43-.37-.64-.45l-.04-.1c-.04-.07-.09-.19-.15-.41-.1-.55-.38-1.08-.76-1.53h.01s-.45-.34-.45-.34c-.41-.25-.74-.48-1.01-.69h0c-1.28.25-1.98.12-3.56.69-.04.01-.09.02-.13.03-.7.07-1.39.13-2.12.2-.92.21-1.85.41-2.77.62l-.83.13-.72-.65c.09.02-.02-.11-.08-.2-.09-.08-.17-.14-.24-.19-.03-.01-.26-.2-.3-.21-.15-.09-.32-.17-.54-.32-.04-.3-.06-.73-.02-1.41,0-.22.02-.44.03-.67l.23-.4c.35-.72.7-1.44,1.04-2.15.2-.39.39-.77.58-1.15.07-.2.24-.33.41-.46.17-.13.34-.24.52-.35.12-.07.25-.14.42-.21.51-.19.6-.11.62-.06.02.06-.01.13.24.12.14-.01.49-.06.77-.22.29-.15.54-.36.73-.58.38-.43.58-.84.74-.94.06-.15.12-.28.17-.48l-.19.33c.31-.29.63-.59.94-.88.08-.04.16-.07.24-.11.28-.16.63-.38.82-.51.19-.13.38-.25.64-.37.07,0,.15,0,.24.01.47,0,.88,0,1.35.01h.26s-.56-.31-.56-.31l.12.2c.17.1.35.36.52.64.23.18.45.38.6.53.31.23.63.47.94.71.12.11.23.22.34.33-.05.2.97,1.01,1.19,1.46.1.12.21.23.3.34l.46.52.6-.49c.32-.27.64-.52.95-.78.14-.11.43-.38.59-.66.18-.29.27-.65.28-.99-.06-.78-.41-1.22-.79-1.61l.18.48c-.12-.7-.21-1.19.01-1.21.01-.18.02-.36.02-.55,0-.09,0-.18,0-.27,0-.05,0-.08,0-.11,0-.05,0-.05.04-.09.02-.03.17-.07.2-.07l.41.06.24-.46c.11-.21.23-.42.36-.63.24-.44.48-.88.73-1.33l-.73.45c.49.01.96.02,1.43.01.47-.07,1.03-.16,1.53-.29.18-.03.37-.07.55-.14.16-.09.34-.2.53-.16.43.06.61.5.94.65h.01c.28.14.76.41,1.07.62.33.21.55.38.5.47l.38.25c.09,0,.21.03.34.09.11.05.22.12.33.18.13.13.24.23.32.25.16.07.83.75.98,1.06.1.1.2.2.33.33l.25.24c.18.34.36.68.54,1.02.2.15.39.5.53.83l.12.26h.33c.19.02.36.04.5.05l2.51-.03h.1c.34-.15.69-.31,1.05-.46.21-.08.52-.32.62-.58.13-.26.15-.49.15-.71-.1-.06-.15-.58-.29-1.09-.05-.18-.1-.38-.15-.6-.06-.1.04-.21.07-.31.05-.09.09-.19.14-.29l.1-.18c.07-.27.16-.59.23-.87.01-.29.02-.55.03-.81.08-.31.19-.71.29-1.08.1-.35.05-.66.13-.76v-.33s0-.12,0-.12v-.06s.06-.01.06-.01l.23-.04c.59-.25.75-.12,1.17-.21.04,0,.12-.02.2-.04v-.31c.32-.17.61-.22.92-.24.28-.15.63-.29.91-.48.19-.11.25-.2.35-.31-.04-.13.16-.29.43-.45.37.03.82.1,1.22.08.17.03.33.05.47.03.69.17.26.37,1.52.58.28-.12,1.1.08,1.93.32.47.52,1.01,1.11,1.39,1.53.3.18.62.37.9.53.25.31.49.58.72.81.43.9.93,1.65,1.44,2.44.26.4.52.81.8,1.31.24.54.4,1.09.56,1.77.06.52.21,1.03.31,1.57.02.14.04.27.03.43-.02.13-.03.25-.04.37-.01.24-.02.49-.05.73.27.24.44,1.47.26,2.73-.14,1.14-.04,2.29.26,2.4v.12s.02.13.02.13c0,1.06-.05,2.21-.01,3.19-.26.11-.49.21-.69.32-.83.08-.93.09-1.14.17-.45.23-.15.24-.18.35-.52.17-1,.33-1.53.5.31-.28-.4-.04-.78.03l.28-.4c0,.06-.02.11-.03.15.05.2.08.41.09.62l.02.4-.45.08c-1,.18-2.15-.05-3.47.15-.97.19-.81.5-1.76.64-.21-.11-.48-.29-.84-.54-1.03-.33-1.05-.35-2.37-1.2l-.07-.08c-.18-.56-.58-1.28-.85-1.86-.11-.11-.23-.23-.36-.36.02-.08,0-.18.03-.26-.15-.17-.32-.36-.48-.55-.22-.51-.22-.77-.84-1.41.1-.02.24,0,.33-.02.86.63,1.13.72,1.44.97.13.23.41.6.58.86l.08.06c.18.25.37.51.57.77.14.18.28.36.42.53l.11.19,1,.58c.27.05.59.12.81.15.11.04.2.08.31.12.15.11.3.22.45.33.35,0,.66,0,1.08-.01.39.03.76.05,1.17.08,0,.07-.01.12-.02.23.83-.09,1.71-.18,2.54-.27l-.36.41v-.04c0-.25.02-.49.02-.72v-.28s.26-.08.26-.08c.46-.15.91-.3,1.39-.46.18,0,.42-.02.67-.05.21-.13.4-.27.54-.38.4-.18.78-.21,1.08-.34,0-.08-.02-.16-.04-.26-.21.23-.11-.72-.16-2.02,0-.09.02-.17.03-.25v-.1s0-.1,0-.1c0-.16,0-.32,0-.49-.14-.89-.22-.71-.29-1.04-.02-.42-.02-.88.01-1.3-.19.24-.1-.49-.18-.9.04-.55-.04-.92-.1-1.3-.03-.19-.07-.39-.08-.64,0-.13,0-.26.01-.44,0-.09.02-.18.05-.31v-.05s.02-.02.02-.02h0s0-.02,0-.02h0s0,0,0,0c-.55-.14.75.19.62.15-.09-.03-.18-.05-.27-.07-.09-.02-.18-.03-.28-.03h-.07s0,.02,0,0c-.06-.26-.2.05-.25-.28-.03-.17-.05-.29-.08-.42.05-.14.09-.27.12-.46-.05-.18-.1-.42-.49-1.29.06-.1.12-.2.21-.26-.08-.25-.09-.4-.19-.58-.1-.21-.19-.42-.29-.64-.1-.14-.19-.27-.3-.43l-1.26-2.46c.09,0,.09-.08.05-.19-.17-.24-1.2-.99-.85-1.07l-.32-.32c-.25.1.02.45-.29.42-.29-.31-.6-.65-.89-.97.07-.05.14-.11.21-.17-.5-.72-.53-.49-.71-.51-.08.02-.18.03-.36-.02-.17-.07-.34-.13-.51-.2-.22-.08-.44-.16-.67-.24-.12-.09-.42-.16-.66-.22-.46-.07-.26.09-.35.14l-1.06-.27s-.03,0-.04,0c-.57.06-.26.24-.59.26-.09-.04-.17-.08-.21-.12-.38.09-.58.1-.95.12-.2.26-.5.59-.74.88l-.13.06c-.21.08-.51.14-.83.2-.1.02-.21.03-.32.05-.08.02-.17.03-.25.05-.18-.07-.51-.1-.47-.28-.16,0-.36.03-.56.05l-.15.11s.03.18.04.25c.02.07.04.14.05.21-.03.31.05.63-.11.91-.14.58-.28,1.17-.42,1.76-.1.32-.21.64-.31.96-.03.18-.18.38-.12.55.03.08.05.16.08.23.05.1.09.2.13.3.08.2.19.54.24.86.04.33.09.72-.14,1.24-.11.24-.35.5-.6.63-.16.09-.19.1-.25.13l-.18.09-.86.4-.54.02c-.87-.04-1.75-.08-2.65-.12l-.55-.03-.19-.43c-.1-.22-.21-.46-.31-.7-.07-.13-.13-.27-.22-.45-.04,0-.08.02-.13.03-.15-.21-.3-.42-.45-.64l-.03-.02c-.12-.1-.24-.19-.35-.29l-.46-.41c-.3-.3-.63-.64-.96-.97l-.05-.05-.62-.4c-.84-.71-1.02-.74-1.32-1-.25-.15-.34-.17-.4-.16-.06,0-.11.02-.21-.01l-.06-.02c-.19-.1-.31-.33-.49-.44-.2-.22-.47-.23-.64-.12-.19.08-.39.11-.57.14-.5.08-1.03.15-1.59.16-.47.02-.92.04-1.4.04l.94-.58-.05.11c-.05.27-.11.54-.14.77l-.37,1.22s-.03.07-.05.1l-1.33.82h.04c-.06-1.73-.02-.48-.03-.86h0s0,.01,0,.01v.02s0,.03,0,.03v.07s.02.26.02.26l.02.19v.1s-.01-.09-.01-.09c-.03-.11-.1-.23-.14-.29-.11-.13-.05,0,.24.04.05,0,.15.03.23.03h.13c.07.02.01.05.03.07l-.04.29-.07.59c-.02.36-.04.72-.06,1.06l-.33-.88c.35.47.48.78.62,1.25.06.33.05.62,0,.9.04.64-.32,1.42-.71,1.81-.31.33-.63.67-.95,1l-.9.95-1.15-1c-.1-.08-.19-.16-.28-.24-.03-.03-.1-.11-.17-.18-.06-.19-.16-.42-.26-.65-.11-.11-.21-.21-.35-.36-.43-.19-.13.14-.23.15l-.39-.28c-.08-.08-.14-.15-.21-.21-.03-.04-.06-.08-.09-.11-.08-.08-.19-.21-.26-.3-.07-.09-.11-.17-.16-.25-.05-.08-.12-.16-.24-.27-.12-.11-.38-.31-.74-.56-.05-.01-.1-.03-.13-.03-.11-.07-.2-.13-.28-.15l-.48-.8,1.33.74h-.46s-.39-.03-.39-.03h-.2s-.13-.03-.13-.03c-.17-.02-.33-.04-.48-.06-.07.03-.14.05-.2.07-.47.2-.92.4-1.35.59-.2.18-.39.35-.57.52-.56.79.57-.36.51-.05-.43.67-.34.61-.21.52.46-.38.35-.46.53-.64.02,0,.04-.02.06-.03.03,0,.09-.01.14-.02.04.09.09.19.13.29-.03.05-.06.09-.07.13-.02.05-.02.1-.03.15,0,.02-.03.07-.05.11-.21.19-.4.37-.6.56l.6-1.06c-.11.4-.19.56-.31.83-.11.25-.25.49-.42.74.02-.12-.12.09-.32.28-.36.41-.62.68-.92.93-.28.23-.65.48-1.19.62l-.29.04c-.09,0-.07,0-.11,0-.05,0-.11,0-.17,0-.11,0-.23.02-.35.04-.48.15-.45.43-.61.78-.09.18-.17.32-.26.51-.2.35-.39.69-.58,1.04-.16.35-.34.74-.53,1.15,0,.15,0,.31,0,.46v.28s-.09-.06-.09-.06l-.04-.03h-.02s0-.02,0-.02c0,0-.02-.01,0,0l.1.09.33.29h-.01s-.03-.03-.03-.03l-.05-.04s-.01-.01-.01-.01c.6.53.36.32.4.36-.01,0-.02,0-.03,0-.02,0-.05,0-.06.01.23.02.49.03.72-.12.09,0,.62-.08,1.02-.15.42-.08.84-.15,1.25-.23.41-.07.79-.14,1.14-.19.17-.02.33-.04.49-.06h.21s.1,0,.1,0c.04,0,.08,0,.12.02.79-.34,2.2-.69,3.25-1.06l.72-.26.98.52c.15.08.29.15.44.23.36.27.7.53,1.03.78l.28.22.05.05c.29.32.54.66.75,1.03.2.29.38.63.53,1,.07.19.13.39.19.6.02.11.05.22.07.34.02.15.03.19.04.48l-.59-1.42c.43.42.86.83,1.25,1.21.18.33.38.7.51.92.12.19.23.35.33.48.14.35.14.4.2.57.08.11.1.16.24.33.14.14.28.29.42.42.09.08.17.15.25.19.08.09.15.18.22.26-.03,0-.05.02-.07.03.1,0,.22.02.31.04.23.05.39.1.46.18,0,0,0,0,.01-.01.06-.06.11-.12.21-.2.11-.07.61-.33.9-.45.05-.02.16-.07.26-.11.26-.13.26-.15.38-.22.09-.05.18-.11.28-.16l.05-.02.31-.1c.12-.05.22-.1.32-.14l.12-.04.06-.02s-.02-.03-.03-.05c-.06-.07-.12-.14-.18-.22l-.02-.09s-.01-.08,0-.13c0-.07-.02.02.15-.42Z" style="fill: #fff;"/>
              <path d="m38.03,38.92c-.12-.16-.28-.34-.44-.48l.1.08c-.06-.04-.11-.07-.16-.1-.4-.29-.77-.55-1.18-.84l-.13-.08.45.07-.53.14c-.87.16-1.68.3-2.58.47-.1.03-.15.04-.24.07l-.23.08-2.18.47c-.3.05-.65.1-.94.15-.14-.08-.29-.17-.48-.25-.78.12-1.62.26-2.39.33l-.1.06c-.13-.03-.26-.07-.41-.12-.08-.07-.17-.15-.26-.22-.07-.07-.15-.14-.22-.21-.18-.17-.37-.35-.55-.51-.12-.11-.29-.26-.44-.38-.15-.12-.28-.2-.39-.24-.03-.01-.05-.02-.06-.02-.03-.06-.06-.04-.08.04.04.08.2.26.41.46.08.08.17.16.26.24.1.09.21.18.3.27.23.19.39.32.5.44-.11-.09.03.04.04.06.04.05.07.09.09.12.1.15.13.26.29.45-.19-.12-.36-.24-.54-.37-.03-.02-.14-.1-.1-.06l.07.07s-.02,0-.02-.01l-.07-.05c-.1-.07-.21-.15-.32-.22-.09-.09-.19-.18-.3-.29-.06-.05-.11-.11-.17-.16-.12-.11.05.04,0,0-.26-.23-.56-.49-.85-.75-.02-1.59-.04-3.1.24-2.43v-.32c.47-.96.85-1.69,1.39-2.63-.08,0-.19.04-.27.03-.27.35-.88,1.75-.84,1.15l1.38-2.7c.09-.12.16-.26.26-.37.12-.1.24-.19.36-.27.24-.17.49-.31.74-.43-.18.22.36-.05.59-.02.38-.22.91-.39,1.27-.47.26-.08.41-.24.59-.48.18-.5.08-.52.1-.95h0s0,0,0,0h0c.13-.22-.28.5.28-.5h0s0,0,0,0h0s.02-.02.02-.02l.03-.03.06-.06.13-.12.25-.25.63-.62.27-.13c1.52-.57.16.32.44.43.15-.04.3-.09.5-.14.43-.24.86-.47,1.32-.72.68-.02,1.39-.05,2.11-.07h.27s.17.25.17.25c.08.13.17.26.26.39.08.08.16.18.25.29.37.24.89.69,1.45,1.13.51.51.87.84,1.08.83.33.33.71.72,1.07,1.08l-1.08-.02c.3-.29.58-.57.77-.81.16-.28.08-.32.04-.35,0-.05-.18.06-.33.17-.32.24-.73.6-.83.58.1-.21.32-.43.52-.64.18-.18.46-.45.34-.44.1.09.25.19.29.19.02,0,0,0-.17,0-.05,0-.26.04-.22.03l-.02-.04s-.1-.15-.06-.09l-.38-1.03c-.01-.46-.03-.99-.04-1.48,0-.1,0-.15,0-.25,0-.08,0-.15,0-.23,0-.07,0-.15,0-.23,0-.1.01-.2.04-.33.05-.51.38-1.21.91-1.61.26-.21.53-.35.79-.44.13-.05.26-.09.39-.11.15-.03.22-.05.48-.06l-1.55.96c.07-.18.15-.36.22-.55.1-.24.19-.43.28-.66.18-.27.34-.52.52-.79l.69-1.06.84.11.21.03c.55-.07,1.08-.08,1.57-.1.24,0,.49-.02.7-.04.38-.13.77-.19,1.12-.27-.08.09-.26.19-.51.3-.23.1-.61.3-.78.33-.46.13-1.1.19-1.71.16,0,.1-.27.14-.61.15h-.72s-.3.63-.3.63c-.25.52-.66,1.22-.78,1.62.14.33.77-.8,1.23-1.39l.31-.4.25.05c.37.07.61.16.42.33-.13.04-.28.07-.42.1l-.16.03-.03.09c-.32,1.01-.95,2.13-.59,2.04-.02.05-.04.1-.06.14l-.04.09h-.13c-.43.06-.74.22-.87.56-.11.34-.1.8-.07,1.42l.22.05c0-.45-.01-.99.02-1.36.04-.33.36-.5.69-.51h.2s.09-.18.09-.18c.36-.68.72-1.35,1.05-1.98l-.34.21c1,0,1.92-.04,2.75-.22-.65-.11,0-.2.54-.37.29-.08.51-.3.65-.34.14-.03.09-.15-.23-.08-.5.25-1.1.29-1.67.34.62-.25,1.26-.35,1.72-.54.3-.25.77-.19,1.06-.05.15.09.29.19.4.3.13.1.28.18.41.27.29.18.56.35.84.53.27.18.57.36.93.57.03-.07.17-.03.36.06.1.05.21.11.33.18.15.09.3.18.46.28.41.4.69.69.91.85.21.16.3.15.16-.21-.02-.22.17-.04.43.25.13.15.28.33.43.49.19.21.38.41.54.56h0c0,.08.03.22.11.4.07.18.19.42.27.59.19.38.42.81.57,1.15l.06.07-1.04-.64c.31-.08.92-.13.68-.28-.59.01-.61-.06-.68-.12l1.39.86c.02-.08.01-.19-.26-.69.21.2.15-.6.6.52l-1.74-1.07s.06,0,.09,0c-.29-.24.24-.32.95-.38.36-.02.74-.05,1.1-.08.21-.03.28-.06.35-.12.01-.01.02-.03.02-.04.04-.06.09-.12.15-.17.02-.01.02-.02.05-.04l.16-.08.04-.02h.02s.01-.02.01-.02h0s0,0,0,0h0s.75,1.77.75,1.77h0s0,.03.02.05c0,.01.03.04.04.05,0-.01-.02-.02-.02-.02-.04-.08-.64-.31-1.59-.24l-.37.03c-.09,0-.02,0-.04,0,0,0,0-.03,0-.04,0-.05,0-.07-.09-.32-.03-.25-.06-.49-.09-.73-.04-.13-.08-.26-.12-.38-.1-.31-.12-.72-.18-1.15.15-.8.3-1.61.46-2.48l.03-.14v-.07s.16-.05.13-.1l.06-.53.03-.27c.02-.09-.06-.22-.09-.33v-.61c-.01-.78-.03-1.57-.05-2.36.28-.13.85-.22,1.3-.33l-.06-.22c.11-.02.33-.06.43-.08,1.43-.2,2.3-.33,3-.43.01-.12,0-.23-.02-.35,0-.04-.01-.07-.02-.11-.02-.06-.04-.13-.09-.18l-.05.04-.02.02.07-.05.7-.52,1.34-.98h.18c1.23.15.8.26-.07.34-.34.32-.76.68-1.21,1.07-.21.18-.41.36-.61.54l-.06.07h.02s.03.04.03.04c.04,0-.02.06-.03.09l-.09.09c.18.04-.62.27-.97.41-.9.31-4.19.76-3.19.91-.05.02-.09.04-.12.05-.02.98.03,1.58.08,2.07.02.23.04.47.06.7,0,.11.11.26.1.36,0,.11,0,.22-.01.33.02.38.11.15.22-.26-.05-.25,0-.53.03-.8.03-.28.03-.53.04-.75-.03-.46-.05-.87-.05-1.23.11-.05.15-.13.31-.16.15-.03.29-.05.43-.08.26-.04.51-.08.77-.11.44-.05.88-.1,1.28-.15.39-.04.8-.1,1.19-.18.12-.03.25-.08.37-.18l.02-.04.17-.07c.05-.02.02.01.33-.21.45-.32.92-.65,1.38-.98.43,0,.85.01,1.26.02.35.01.68.02,1,.03.29.09.62.18.78.25.15.06.28.12.37.18.52.27.95.4,1.02.59.3.06.6.1.96.15.47.08.99.17,1.52.27.25.23.51.47.77.74.12.13.25.26.38.41.06.07.12.14.19.21.04.05.09.11.13.17.41.52-.03.56,1.23,1.76.22.1.46.22.71.33l.02.02c.18.32.37.71.46.91.09.2.15.37.17.49.05.24-.02.28-.26-.03-.07-.13-.13-.27-.23-.46-.11-.23-.24-.48-.39-.73-.03-.02-.06-.05-.1-.08l.07.1c.07.27.15.55.23.81.29.68.66,1.29,1.05,1.92.2.31.4.63.58.94l.14.24c.06.11.12.22.18.32.09.23.17.48.22.64-.16.07-.06.7.2,1.73.14.32.32.78.38,1.46,0,.11,0,.18,0,.31,0,.08-.02.16-.03.24l-.02.11h0s0,.02,0,.02c.06.02-.52-.13-.27-.07h0s.01,0,.01,0l.05.02.11.03.09.02h0s0,0,0,0c0,0,0,.02,0,.03,0,.02-.01.04-.02.08-.03.12-.06.28-.1.36.08.75.24,1.59.23,2.56.04.39.15.32.23.42-.11.68-.08,1.5,0,2.36v.15s.02.15.02.15c.02,1.32.04,2.66.02,3.86-1.32.46-2.52.82-3.4.94-.36.13-.44.19-.49.24-.04.05,0,.09,0,.13.04.08.02.16-.69.38-.11.04-.21.06-.29.08l1.01-1.45c-.09.72-.37.11-.47.76l-.16,1.09-.77-.02c-.22,0-.6.03-1.23.14-.02.19-.02.23-.02.28-.45.05-1.3.2-1.44.09-1.74.26-.17.48-2.62.64l-.19.07c-.28-.07-.58-.16-1.16-.4-.7-.38-1.39-.76-2.03-1.11.15-.02.34-.01.47-.04-.29-.24-.59-.5-.87-.74l-.03-.07c-.18-.32-.44-.73-.68-1.12-.07-.12-.14-.23-.21-.34-.05-.09-.09-.17-.12-.25-.06-.06-.09-.12-.08-.16-.01-.21,0-.42-.06-.67-.27-.32-.51-.6-.76-.9l-.41-.62c-.24-.19-.51-.41-.75-.6.01-.01.03-.02.04-.03.1-.02.24,0,.37.01.32.11-.33-.43-.21-.46.31.07.61.14.9.21.46.68.59.88.91,1.35-.03.02-.05.04-.07.06.17.19.33.38.48.55-.03.09,0,.19-.03.26.12.13.24.24.36.36.27.59.68,1.31.85,1.86l.07.08c1.32.85,1.33.87,2.37,1.2.35.25.63.42.84.54.95-.14.79-.45,1.76-.64,1.32-.19,2.47.03,3.47-.15l.45-.08-.02-.4c-.01-.21-.04-.41-.09-.62.01-.04.02-.09.03-.15l-.28.4c.38-.07,1.09-.31.78-.03.53-.17,1.01-.33,1.53-.5.02-.11-.27-.12.18-.35.21-.09.31-.09,1.14-.17.2-.11.43-.21.69-.32-.04-.98.01-2.13.01-3.19v-.13s-.02-.12-.02-.12c-.3-.11-.4-1.27-.26-2.4.18-1.26.01-2.49-.26-2.73.03-.24.03-.49.05-.73.01-.12.03-.25.04-.37.01-.16,0-.3-.03-.43-.09-.54-.25-1.05-.31-1.57-.16-.68-.32-1.23-.56-1.77-.28-.49-.54-.9-.8-1.31-.51-.79-1.01-1.54-1.44-2.44-.23-.24-.46-.5-.72-.81-.28-.17-.6-.35-.9-.53-.38-.42-.91-1.01-1.39-1.53-.83-.24-1.65-.44-1.93-.32-1.27-.21-.84-.41-1.52-.58-.15.02-.3,0-.47-.03-.41.02-.85-.05-1.22-.08-.27.17-.47.32-.43.45-.1.11-.16.2-.35.31-.28.18-.63.33-.91.48-.31.02-.6.06-.92.24v.31c-.08.01-.16.03-.2.04-.43.09-.58-.04-1.17.21l-.23.04h-.06s0,.07,0,.07v.12s0,.33,0,.33c-.08.09-.03.41-.13.76-.1.36-.21.76-.29,1.08-.01.26-.02.52-.03.81-.07.27-.16.59-.23.87l-.1.18c-.05.1-.1.19-.14.29-.03.1-.13.21-.07.31.06.22.11.42.15.6.14.5.19,1.02.29,1.09,0,.21-.02.45-.15.71-.1.26-.41.49-.62.58-.35.15-.7.31-1.05.46h-.1s-2.51.03-2.51.03c-.13-.01-.31-.03-.5-.04h-.33s-.12-.27-.12-.27c-.15-.33-.34-.67-.53-.83-.18-.34-.36-.68-.54-1.02l-.25-.24c-.13-.13-.23-.23-.33-.33-.15-.31-.82-.99-.98-1.06-.08-.02-.19-.13-.32-.25-.11-.06-.22-.13-.33-.18-.13-.06-.24-.1-.34-.09l-.38-.25c.06-.09-.17-.27-.5-.47-.31-.2-.79-.48-1.07-.61h-.01c-.34-.16-.51-.6-.94-.66-.19-.04-.36.07-.53.16-.18.07-.37.11-.55.14-.49.13-1.06.22-1.53.29-.47,0-.94,0-1.43-.01l.73-.45c-.24.45-.49.89-.73,1.33-.13.21-.25.42-.36.63l-.24.46-.41-.06s-.19.04-.2.07c-.03.03-.03.03-.04.09,0,.03,0,.06,0,.11,0,.09,0,.18,0,.27,0,.19,0,.37-.02.55-.22.02-.13.51-.01,1.21l-.18-.48c.37.39.72.83.79,1.61,0,.34-.11.7-.28.99-.16.27-.45.55-.59.66-.31.26-.63.51-.95.78l-.6.49-.46-.52c-.1-.11-.2-.22-.3-.34-.21-.44-1.23-1.25-1.19-1.46-.11-.11-.22-.22-.34-.33-.31-.23-.63-.48-.94-.71-.16-.15-.38-.35-.6-.53-.17-.28-.36-.54-.52-.64l-.12-.2.56.32h-.26c-.46,0-.88,0-1.35-.01-.09,0-.17-.01-.24-.01-.26.12-.44.24-.64.37-.19.13-.54.35-.82.51-.08.04-.16.07-.24.11-.31.29-.63.59-.94.88l.19-.33c-.06.2-.11.33-.17.48-.16.1-.36.51-.74.94-.19.21-.43.43-.73.58-.28.15-.63.21-.77.22-.26,0-.22-.06-.24-.12-.02-.05-.11-.13-.62.06-.17.07-.3.14-.42.21-.18.11-.36.22-.52.35-.16.13-.34.25-.41.46-.19.38-.39.76-.58,1.15-.35.71-.7,1.43-1.04,2.15l-.23.4c0,.22-.02.45-.03.67-.04.68-.02,1.11.02,1.41.22.15.38.24.54.32.04.01.27.19.3.21.08.05.16.12.24.19.07.1.18.22.08.2l.72.65.83-.13c.92-.2,1.85-.41,2.77-.62.73-.07,1.42-.14,2.12-.2.05-.01.09-.02.13-.03,1.59-.57,2.29-.44,3.56-.69h0c.27.21.6.44,1.01.69l.45.35h-.01c.38.44.66.98.76,1.52-.02,0-.03,0-.05,0-.17-.26-.41-.51-.64-.68Z" style="fill: #fff;"/>
              <path d="m33.24,29.08s.04-.09.05-.11c0-.05.01-.09.03-.15.01-.04.04-.08.07-.13-.05-.1-.09-.19-.13-.29-.06,0-.11.02-.14.02-.02.01-.04.02-.06.03-.17.19-.07.26-.53.64-.13.09-.22.15.21-.52.06-.31-1.07.84-.51.05.19-.17.38-.34.57-.52.43-.19.88-.38,1.35-.59.06-.02.13-.05.2-.07.16.02.32.04.48.06h.13s.2.03.2.03l.39.03h.46s-1.33-.74-1.33-.74l.48.8c.08.02.17.08.28.15.04,0,.08.01.13.03.35.25.62.46.74.56.12.11.19.19.24.27.05.08.09.15.16.25.07.09.18.22.26.3.03.03.06.07.09.11.06.06.13.13.21.21l.39.28c.1,0-.19-.34.23-.15.14.14.25.25.35.36.14.26.29.55.43.83.09.08.19.16.28.24l1.15,1,.9-.95c.31-.33.64-.68.95-1,.39-.39.75-1.17.71-1.81.04-.28.05-.57,0-.9-.13-.47-.27-.79-.62-1.25l.33.88c.02-.33.04-.7.06-1.06l.07-.59.04-.29s.04-.05-.03-.07h-.13c-.08,0-.19-.02-.23-.02-.3-.04-.35-.17-.24-.04.04.05.11.18.14.29l.03.09v-.1s-.03-.19-.03-.19l-.02-.26v-.07s0-.03,0-.03v-.02s0,0,0,0h0c.01.38-.03-.87.03.86h-.04l1.33-.82s.03-.07.05-.1l.37-1.22c.03-.23.09-.5.14-.77l.05-.11-.94.58c.48,0,.93-.01,1.4-.04.56,0,1.09-.07,1.59-.16.18-.03.38-.06.57-.14.17-.12.44-.11.64.12.18.11.3.34.49.44l.06.02c.1.03.15.02.21.01.06,0,.15.01.4.16.31.26.48.3,1.32,1l.62.4.05.05c.33.33.66.67.96.97l.46.41c.12.1.23.19.35.29l.03.02c.15.22.3.42.45.64.05-.01.09-.02.13-.03.09.18.16.32.22.45.11.24.21.48.31.7l.19.43.55.03c.91.04,1.78.08,2.65.12l.54-.02.86-.4.18-.09c.06-.03.09-.04.25-.13.25-.14.49-.39.6-.63.24-.52.18-.91.14-1.24-.05-.32-.15-.66-.24-.86-.04-.1-.09-.2-.13-.3-.02-.08-.05-.15-.08-.23-.06-.17.09-.37.12-.55.1-.32.21-.65.31-.96.14-.59.28-1.18.42-1.76.16-.27.08-.6.11-.91-.02-.07-.03-.13-.05-.21,0-.07-.08-.21-.04-.25l.15-.11c.2-.03.4-.04.56-.05-.04.18.28.2.47.28.08-.02.16-.03.25-.05.11-.02.21-.04.32-.05.32-.06.62-.12.83-.2l.13-.06c.24-.29.55-.62.74-.88.07-.05.1-.07.16-.12.14.04.27.09.4.15.08-.04.24-.09.39-.13.08.03.15.07.21.1.33-.01.02-.2.59-.26.01,0,.03,0,.04,0l1.06.27c.08-.06-.11-.21.35-.14.24.06.54.13.66.22.23.08.45.17.67.24.17.07.34.13.51.2.18.05.28.04.36.02.17.02.21-.22.71.51-.07.06-.15.12-.21.17.29.31.6.65.89.97.31.03.03-.31.29-.42l.32.32c-.35.08.68.83.85,1.07.04.11.03.18-.05.19l1.26,2.46c.11.16.21.29.3.43.1.22.2.43.29.64.09.18.11.33.19.58.16.85.17.99.18,1.14.31.92,0,.42-.02.88.02.13.05.25.08.42.05.33.19.02.25.28,0,0,0,0,0,0h0s.07,0,.07,0c.09,0,.19.01.28.03.09.02.18.04.27.07.14.03-1.17-.29-.62-.15h0s0,0,0,0h0s0,.02,0,.02v.02s-.02.05-.02.05c-.03.13-.04.23-.05.31-.02.18-.02.32-.01.44.01.25.05.45.08.64.07.38.15.75.1,1.3.09.4,0,1.14.18.9-.03.42-.03.88-.01,1.3.07.33.15.15.29,1.04,0,.17,0,.33,0,.49v.1s0,.1,0,.1c0,.08-.02.17-.03.25.05,1.3-.05,2.25.16,2.02.02.09.03.18.04.26-.3.14-.68.16-1.08.34-.14.11-.34.25-.54.38-.25.03-.48.04-.67.05-.48.16-.93.31-1.39.46l-.25.08v.28c-.02.24-.02.48-.03.72v.04s.36-.41.36-.41c-.83.09-1.71.18-2.54.27,0-.1.01-.16.02-.23-.42-.03-.78-.05-1.17-.08.06-.09.17-.2.22-.3.35-.06.65-.1,1-.16.77-.14,1.58-.28,2.35-.42l-1.17,1.33c0-.09,0-.17-.01-.25l-.08-.02c0-.17,0-.33.01-.49l.02-1.03.91-.31c.5-.17.98-.33,1.49-.5,0-.09.03-.2.03-.29.3-.07.6-.15.87-.22.23-.13-.03-.15-.03-.23l.2-.07v-.06c0-.11,0-.24,0-.37.04.02.06.04.09.06.08.05.18.11.27.17.02.16.04.34.06.51-.04.02-.09.04-.13.07l.37.11h.14c-.08-.84-.12-1.48-.19-1.95v-.08s-.03-.08-.03-.08c-.08-.41-.15-.74-.23-.93-.05-.44-.06-.94-.02-1.47.02-.26.06-.57.07-.69.01-.17.02-.36.02-.55-.01-.77-.11-1.54-.23-1.96-.01.85.01,1.05.02,1.25-.1.15-.18.06-.25-.24-.03-.15-.06-.35-.08-.62-.01-.28-.04-.57.03-1.18-.11.21-.19.1-.2-.23v-.13s0-.06,0-.06v-.02s0,0,0,0h0s0,0,0,0l1.65.42h0s-.06-.02-.06-.02c-.16-.05-.31-.07-.44-.07-.23,0-.52,0-.47,0-.27-.01-.52,0-.77,0-.11,0-.02.03-.04,0,0-.03,0-.05,0-.07,0-.06-.01-.14-.02-.2-.03-.14-.08-.27-.13-.4-.11-.26-.24-.53-.37-1.05l-.23.02c-.07-.13-.14-.26-.23-.44l-.1-.37-.21-.45c-.19-.4-.37-.79-.55-1.18l-.9-1.84-.38-.39c-.29-.31-.58-.64-.87-.96l-.42-.46-.22-.26-.24-.31-.17-.08c-.1-.05-.16-.08-.27-.11-.17-.05-.31-.09-.43-.11-.23-.05-.37-.06-.48-.05-.22.01-.33.07-.89-.08-.19-.06-.39-.12-.58-.18-.12-.04-.13-.04-.17-.06l-.11-.05c-.23-.02-.21-.05-.25-.08l-.04.02c-.08.04-.15.08-.21.11-.06.03-.08.04-.17.1-.44.31-.81.57-1.12.8-.75.13-1.21.18-1.35.1-.16.08-.11.1-.18.13-.04.03-.09.04-.13.05-.09.02-.17.04-.17.09l-.04.02v.1c0,.16.01.32.02.48l-.13.46c-.1.36-.19.72-.29,1.09-.05.18-.09.37-.14.55l-.06.25c-.01.09-.05.18-.04.27v.02c.05.09.09.17.13.27.02.06.02.05.05.16l.08.31c.05.21.09.46.11.72l.02.45c0,.18-.02.36-.05.54-.05.23-.1.44-.19.68-.12.27-.23.5-.44.76-.29.37-.73.7-1.18.9-.13.05-.26.11-.4.17-.22.02-.44.05-.72.11-.14.06-.27.11-.35.14-.55,0-.91,0-1.18.02-.22.02-.31.04-.43.06-.51.03-1.14.03-1.83.03h-1.42s-.61-1.26-.61-1.26c-.26-.54-.55-1.12-.82-1.68-.29-.29-.56-.57-.81-.82-.07,0-.19-.06-.29-.11-.11-.13-.22-.26-.33-.38-.12-.14-.1-.14-.17-.23-.01-.01-.03-.03-.05-.05-.34-.22-.73-.48-1.07-.7-.24-.11-.48-.23-.73-.34l-.35-.17c-.13-.07-.13-.04-.2-.06l-.04-.03c-.12-.05-.19-.17-.31-.23-.01-.08,0-.15-.03-.23-.2,0-.32.19-.46.2-.03.01-.07.02-.1.02l-.22.03c-.23.03-.43.04-.63.05-.81.03-1.47,0-2.35.03l2.09-1.29c-.09.19-.17.4-.26.62.01-.37-.52.65-.62,1.01-.07.12-.13.22-.19.33l-2.02,1.25h.05s0,0,0,0h0s-.05-1.64-.05-1.64h0s0,.03,0,.03v.06s.01.23.01.23l.02.21.02.16s0,0-.01-.05c-.03-.1-.1-.26-.17-.34-.08-.09-.04,0,.27.06.05,0,.18.03.27.03h.07s.02,0,.02,0h0c.68,0,.19,0,.34,0h0s0,0,0,0h0s0,.03,0,.03v.08s-.02.33-.02.33c-.02.44-.03.87-.05,1.29,0,.1,0,.19,0,.27l-.43-1.15c.22.27.29.4.42.6.11.19.2.39.28.61.16.44.25.98.15,1.57-.02.75-.47,1.52-.86,1.95-.17.26-.35.51-.52.77.23-.12.43-.22.65-.34-.28.34-.53.61-.77.85l-1.65,1.63-1.85-1.71c-.23-.21-.42-.41-.61-.59-.14-.16-.29-.33-.45-.53l-.48-.39c-.14-.11-.38-.32-.4-.3v-.02s-.21-.24-.32-.36l-1.39-1.04c-.26-.4-.51-.8-.77-1.2l2.21,1.24-.95.03c-.11-.01-.14-.03-.17-.04l-.1-.05-.21-.09h-.22s-.97.48-.97.48l-.15.15Z" style="fill: #fff;"/>
              <path d="m38.53,29c-.95-1.43.54,0,.51.2l-.51-.2Z" style="fill: #fff;"/>
              <path d="m57.35,36.3c-.47.13-.99.24-1.45.3.21-.16.42-.32.61-.49.33-.08.66-.18.98-.29.18.03.39.01.61,0-.22.17-.51.33-.76.48Z" style="fill: #fff;"/>
              <path d="m45.67,44.82c-.01.06-.17.2-.39.39l-.14.14c-.06.03-.13.03-.2.05-.14.03-.28.05-.42.08h-.04c-.33.07-.7.12-1.14.17-.18-.01-.37-.03-.57-.04-.13-.15-.26-.31-.38-.45-.27-.23-.57-.49-.83-.73-.12-.2-.17-.33-.22-.47.23.16.43.31.63.45.1.06.2.12.26.13.23.26.46.52.67.76.47.03.91.06,1.36.09.18-.12-.15-.27.15-.37.07-.03.2-.05.39-.07l.2.02.15-.11c.21-.15.44-.26.68-.37-.02.1-.09.22-.17.34Z" style="fill: #fff;"/>
              <path d="m38.93,41.66c-.07-.12-.13-.2-.28-.36-.15-.15-.31-.31-.47-.45l-.35-.84c0,.07-.03-.08-.05-.13-.03-.08-.05-.15-.08-.21-.05-.14-.09-.26-.08-.37.04-.02.09-.04.12-.05.21.2.4.58.48.76l.22.55h.02s.12.1.12.1c.27.25.54.51.81.75l.03.03.05.11c.01.22-.03.23-.08.25-.1-.05-.21-.09-.31-.12l-.15-.02Z" style="fill: #fff;"/>
              <path d="m35.87,38.73c-.1-.13-.18-.24-.24-.34l1.32.2h-.08s.04-.06.06-.08l-1.25-.19c.1,0,.17-.02.28-.02.27.14.57.3.86.46.14.17.28.35.38.5l-.24-.19v.04s-.03.04-.07.03l.26.21c-.23-.03-.91-.47-1.28-.62Z" style="fill: #fff;"/>
              <path d="m36.11,37.81l-.06-.05.7.11c-.36.07-.71.13-1.09.2-.72.33-1.21.41-1.64.54-.26.08-.53.16-.82.24-.36.07-.75.14-1.14.21-.5.08-.94.15-1.44.23-.4.05-.79.09-1.19.14-.12.02-.28.04-.47.07-.22.04-.47.08-.73.13-.52.09-1.07.17-1.46.19-.13-.13-.23-.25-.3-.35-.15-.19-.18-.3-.29-.45-.03-.04-.06-.08-.09-.12-.01-.02-.15-.16-.04-.06-.12-.12-.27-.25-.5-.44-.09-.08-.2-.17-.3-.27-.09-.08-.17-.17-.26-.24-.21-.2-.37-.38-.41-.46.02-.08.05-.1.08-.04,0,0,.03,0,.06.02.1.04.24.12.39.24.15.12.33.27.44.38.18.16.37.34.55.51.08.07.15.14.22.21.09.08.18.15.26.22.15.05.28.09.41.12l.1-.06c.77-.07,1.6-.21,2.39-.33.19.07.34.16.48.25.3-.05.64-.1.94-.15l2.18-.47.23-.08c.1-.03.15-.04.24-.07.89-.16,1.71-.31,2.58-.47l.53-.14-.45-.07.13.08c-.1.1-.16.16-.23.23Z" style="fill: #fff;"/>
              <path d="m31.94,41.35s-.15,0-.25,0c0-.13.01-.28.02-.41.4-.09.65-.24,1.19-.28.1.04.2.08.29.12.08.04.3.06.44.09h.23c-.08.04-.16.05-.22.07-.14.02-.27.05-.39.07l-.2.05c-.12.04-.23.08-.34.12-.22.08-.44.15-.79.19Z" style="fill: #fff;"/>
              <path d="m34.41,29.5c.19.14.39.28.59.42l.34.22c.19.12.54.36.52.31h.03s.08.09.14.15c0,0-.02.02-.04.03-.07-.02-.13-.03-.2-.04-.03.02-.06.04-.09.07-.01,0-.02.01-.03.01.05.1-.31-.16-.55-.36-.16-.14-.71-.61-.79-.76.07-.03.09-.04.1-.04Z" style="fill: #fff;"/>
              <path d="m42.09,30.84c.12-.11.2-.19.28-.29.15-.17.24-.3.32-.43.15-.28.22-.49.33-.89.09-.22.14-.33.2-.57.1-.59,0-1.13-.15-1.57-.08-.22-.17-.42-.28-.61-.12-.21-.19-.33-.42-.6l.43,1.15c0-.08,0-.18,0-.27.02-.42.03-.86.05-1.29v-.33s.02-.08.02-.08v-.02s0,0,0,0h0s0,0,0,0c-.15,0,.34,0-.34,0h0s-.02,0-.02,0h-.07c-.08,0-.21-.02-.27-.02-.31-.05-.34-.15-.27-.06.07.08.14.24.17.34-.03-.14-.14-.33-.18-.36-.05-.05,0,.02.18.06.07.02.11.02.2.03.04,0,.09.01.13.01h.98s0,.3,0,.3v.6c-.13.46-.08.76-.04,1.1l-.56-1.51c.25.29.33.41.48.65.31.6.45,1.14.5,1.58.05.44.03.74.02.96-.05.42-.02.57-.32,1.18-.18.31-.37.58-.57.77-.08.09-.24.24-.26.26-.04.04-.09.08-.13.12-.23.12-.43.22-.65.34.11-.2.18-.37.26-.53Z" style="fill: #fff;"/>
              <path d="m47.3,25.8c-.18-.04-.37-.08-.59-.14-.05-.02-.14-.08-.15-.07h-.02s-.02,0-.03,0c0-.02.06-.14.06-.31.02.03.04.05.07.07l.66.47Z" style="fill: #fff;"/>
              <path d="m50.69,28.95l.27.58.85,1.81,2.2.08,1.3.04s.15,0,.25,0h2.15s1.23-.51,1.23-.51l.35-.14.07-.03c.13-.06.27-.13.4-.2.27-.16.52-.32.75-.53.23-.21.45-.46.63-.71.15-.23.29-.47.4-.72.13-.27.16-.43.23-.65.06-.22.1-.42.12-.57.1-.72.04-1.14,0-1.58-.03-.19-.06-.4-.1-.56l-.07-.31h0s.03-.05.02-.08c0-.03.03-.05.09-.06h.02s0,0,0,0c.04.02.06.03.08.04.03,0,.04.02.05.02.01.04,0,0,.04.12l.09.34c.05.25.1.51.13.83.02.62.14,1.46-.51,2.85-.09.17-.18.34-.29.5-.13.18-.27.35-.42.52-.31.34-.64.6-1.02.82-.16.1-.43.23-.52.27l-.09.04-.2.09c-.44.21-.9.42-1.41.66-.09,0-.18.01-.27.02-.32,0-.59-.02-.84-.04-.22-.02-.53-.05-.59-.08-.23-.06-.46-.11-.84-.12l-1.22.07h-.03s-2.03.16-2.03.16l-1.32-2.23c-.56-.94-.22-.78-.21-1.13.08.13.17.26.24.39Z" style="fill: #fff;"/>
              <path d="m51.18,29.34l.04.07.84,1.71h1.95s1.37.02,1.37.02c.26-.04.47-.08.73-.12.63.02,1.12.04,1.52.06.56-.22.95-.37,1.26-.49.1-.03.19-.07.27-.09-.07.04.51-.21.8-.42.85-.6,1.33-1.56,1.46-2.14.17-.67.15-1.09.13-1.53-.03-.31-.07-.59-.12-.84l-.09-.35c-.04-.15-.03-.1-.05-.16l-.07-.14s0-.1,0-.15v-.09s.04-.04.04-.04c.02-.06.04-.12.06-.17.04-.12.08-.23.11-.33.07-.21.12-.38.16-.52.08-.28.09-.42.04-.42l.12-.42c-.12-.06-.07-.22-.04-.31,0-.01.01-.05.01-.04h-.07s0,0,0,0l.31-.06c.43-.08.85-.16,1.26-.25.07-.05.13-.1.19-.14.36-.26.72-.53,1.08-.79,0,0,.02-.02.03-.02.05.06.11.11.18.15,0-.02.02-.04.04-.06-.06-.01-.13-.01-.19-.02h-.04s.03,0,.03,0l.06-.02s.04-.01.06-.02c.04,0,.08.02.09.02.68.18,1.41.36,2.09.54.14.04.24.06.35.09l.17.07c.08.09.16.19.24.29l.03.16s.1.19.15.28c-.13-.02-.28-.07-.36-.04l-.28-.29c-.85-.21-1.7-.42-2.56-.63h-.04s-.04-.01-.03-.02h.23s.08,0,.13,0c-.02.02-.06.05-.02.02-.46.34-.92.69-1.38,1.03-.15.03-.32.06-.48.09l-1,.21-.22.05h.03s.07,0,.07,0c.1,0,.2-.01.3-.02.05,0,.19-.05.15-.02,0,.04,0,.08-.03.11.03.02.05.03.06.04,0,.07-.03.19-.05.28-.05.19-.12.36-.19.55-.14.32-.38.97-.28.84h-.02c-.06,0-.09.03-.09.06,0,.02,0,.05-.02.07h0s.07.31.07.31c.04.16.07.37.1.56.05.44.11.86,0,1.58-.02.15-.05.35-.12.57-.07.23-.1.38-.23.65-.11.25-.25.49-.4.72-.19.25-.4.5-.63.71-.23.22-.48.38-.75.53-.13.07-.28.15-.4.2l-.07.03-.35.14-1.23.52h-2.15c-.1-.01-.2-.01-.25-.01l-1.3-.04-2.2-.08-.85-1.81-.27-.58c.18.16.33.27.49.38Z" style="fill: #fff;"/>
              <path d="m62.2,23.02c-.1,0-.2.01-.3.02h-.07s-.03,0-.03,0l.22-.05,1-.21v.14s-1.02.17-1.02.17l-.13.02h-.06s0,0,0,0h.04s.07-.03.07-.03c.09-.03.18-.05.28-.08Z" style="fill: #fff;"/>
              <path d="m64.76,21.63h-.23s.02,0,.03,0h.04c-.03.08-.04.12-.05.13-.01.01-.02,0-.03-.01.07-.02.17-.04.26-.04l-.03-.08Z" style="fill: #fff;"/>
              <path d="m70.69,27.39s.05-.02.1.05c.25.76.51,1.64.59,2.09,0,.06-.02.07-.03.07.32-.03.64-.05.95-.08.28-.04.55-.06.83-.06-.3,0-.59.02-.88.06l-.54.04-.45.04s-.02,0-.05-.03c-.03-.05-.07-.12-.11-.2-.08-.16-.16-.34-.23-.54-.08-.2-.15-.41-.22-.66-.03-.13-.07-.26-.11-.4-.03-.14-.1-.36-.06-.31l.21-.07Z" style="fill: #fff;"/>
              <path d="m58.38,36.05c-.61.28-.85.31-1.03.25.25-.15.53-.31.76-.48.09-.03.17-.05.27-.08l-.78,1.26s0-.08,0-.13c.04.05.08.1.11.13l.71-1.15c-.01.06-.05.13-.05.19Z" style="fill: #fff;"/>
              <path d="m43.34,45.65c-.18.04-.39.08-.63.1-.52-.39-1.19-1.08-1.47-1.44.07,0,.19.06.32.12.27.23.57.49.83.73.12.14.25.3.38.45.19.01.39.03.57.04Z" style="fill: #fff;"/>
              <path d="m31.94,41.35c-.61.38-1.65.5-2.14.52l-.22-.08c-.09-.02-.12-.06-.32-.06.2-.05.41-.11.64-.16.22-.05.45-.1.67-.14.45-.08.89-.12,1.13-.09.1,0,.2,0,.25,0Z" style="fill: #fff;"/>
              <path d="m63.02,22.78c.16-.03.33-.06.48-.09.47-.35.93-.69,1.38-1.03-.05.03,0,0,.02-.02-.05,0-.09,0-.13,0l.03.08c.04.1.11.15.19.18.01.04,0,.04.03.08-.01.01.04-.04.04-.06,0-.01,0-.03.01-.04-.04.02-.07.02-.18.1-.2.12-.4.24-.6.37-.2.12-.42.27-.72.48-.16.03-.34.06-.55.1v-.14Z" style="fill: #fff;"/>
              <path d="m67.8,22.61c.21.22.46.47.67.68.18.21.35.41.52.61.12.13.11.13.11.15v.05s0,.04,0,.04l-.12.07h-.01s-.02-.02-.04-.02h-.02s-.08-.07-.12-.1c-.2-.17-.38-.34-.55-.49-.34-.32-.65-.67-.8-1.04.07-.03.23.02.36.04Z" style="fill: #fff;"/>
              <path d="m70.24,26.46c.1.2.2.42.31.64l.08.17.04.08h0s0,.03.01.04l-.21.07.02-.02s-.08-.2-.12-.3c-.09-.22-.18-.44-.27-.65l.14-.04Z" style="fill: #fff;"/>
              <path d="m57.61,36.88s0,.09,0,.13l.78-1.26c-.1.03-.18.05-.27.08-.21,0-.43.02-.61,0,.05-.05.1-.1.15-.14.2-.07.44-.18.58-.24l-.97,1.57v-.66c.25-.8.34-.28.36.53Z" style="fill: #fff;"/>
              <path d="m46.95,41.95l-.31.1-.05.02c-.09.06-.18.11-.28.16-.12.07-.12.09-.38.22-.11.05-.21.09-.26.11-.29.12-.78.38-.9.45-.1.08-.15.14-.21.2,0,0-.01.01-.01.01-.06-.08-.23-.13-.46-.18-.09-.02-.21-.03-.31-.04.02,0,.04-.02.07-.03-.07-.08-.14-.17-.22-.26-.08-.04-.16-.11-.25-.19-.14-.14-.28-.28-.42-.42-.14-.17-.16-.22-.24-.33-.06-.17-.05-.22-.2-.57,0-.05-.01-.15-.02-.25l.26.48.12.21.2.18.42.4s.09-.08.14-.12l.4.38h-.16s-.08,0-.08,0h-.04s.04,0,.04,0c.06.03.12.06.19.08.09,0,.23.11.32.02.08-.05.16-.08.39-.2.41-.22.87-.42,1.19-.54l.43-.15.08-.03c.33-.09.33.07.84.16-.1.04-.2.09-.32.14Z" style="fill: #fff;"/>
              <path d="m41.24,44.31c-.11-.11-.22-.22-.36-.37-.18-.08-.38-.23-.59-.4-.38-.62-.68-1.33-.89-1.73.04-.02.09-.03.08-.25.25.41.51.82.74,1.2.16.19.29.33.42.46l.03.06.68.69c.05.15.1.27.22.47-.12-.06-.24-.12-.32-.12Z" style="fill: #fff;"/>
              <path d="m39.57,41.09c-.25-.28-.51-.58-.77-.87l-.09-.1v-.11c0-.11-.01-.28-.04-.41.02,0,.03,0,.05,0,.07.22.11.34.15.41l.04.1c.21.08.28,0,.64.45.08.21.16.4.24.6v.06s-.02-.03-.03-.03c-.08-.05-.15-.09-.19-.1Z" style="fill: #fff;"/>
              <path d="m37.32,38.61c-.23-.13-.44-.25-.66-.38-.17-.13-.35-.27-.55-.42.07-.07.13-.13.23-.23.41.29.78.55,1.18.84-.09.09-.14.14-.2.19Z" style="fill: #fff;"/>
              <path d="m27.64,37.67c-.23.18-.18.26-.32.29-.01-.01-.03-.03-.05-.05-.26-.17-.24-.25-.22-.35.12,0,.2-.08.24-.06.03.06.07.12.11.18.08,0,.16,0,.24,0Z" style="fill: #fff;"/>
              <path d="m26.59,36.61c.64.34.48.17.54.19.02,0,.02,0,.01.02.01.02-.04-.02.03.04.09.09.19.18.3.29l-.02.04c-.04.05-.1.12-.15.2-.76-.72.07-.02-.71-.77Z" style="fill: #fff;"/>
              <path d="m26.39,36.2c-.2.12-.31-.13-.25-.81.03.06.06,0,.08-.1.03-.05.07-.11.09-.17.1-.16.16-.28.21-.39.06-.13.1-.26.14-.39.08-.25.16-.52.44-1.05-.26.05.05-.49.31-.99.18-.29.27-.7.59-.87.23-.2.49-.38.78-.51.09.05.19.12.24.2.1-.03.21-.04.34-.06.1-.03.58-.08,1.03-.33.43-.23.76-.55,1-.87.65-.72.4-.23,0,.29-.2.26-.48.49-.57.59-.1.09.07.09.55-.27-.11.11-.31.32-.62.53-.29.21-.78.42-1.05.46-.32.08-.43.12-.46-.05-.15.03-.3.08-.42.12-.48.36-.25.36-.28.44-.15.11-.26.23-.31.36-.07.12-.13.22-.19.32-.18.31-.4.67-.66,1.14-.12-.01-.29.21-.49.56-.09.17-.18.34-.29.54-.07.14-.14.29-.22.44,0,.34.01.68-.01.86Z" style="fill: #fff;"/>
              <path d="m30.09,31.98c.54-.14.91-.39,1.19-.62.3-.24.56-.52.92-.93.19-.19.33-.4.32-.28.17-.25.3-.5.42-.74.12-.27.2-.44.31-.83l-.6,1.06c.2-.18.4-.37.6-.56.02.04-.07.18-.15.31-.09.13-.19.26-.31.4l.66-1.16c-.11.45-.18.65-.32.96-.13.29-.29.57-.48.85-.38.55-.95,1.06-1.46,1.33-.22.13-.44.24-.57.28-.18.08-.4.16-.52.19-.15.04-.33.08-.31.08-.06.02-.11.05-.16.08-.07.02-.12.04-.17.06-.17.01-.37.05-.56.14-.11.25-.19.17-.34.23.16-.35.14-.63.61-.78.12-.02.24-.04.35-.04.06,0,.11,0,.17,0,.04,0,.02.01.11,0l.29-.04Z" style="fill: #fff;"/>
              <path d="m43.45,29.87c.25-.73.33-1.46.28-2.07-.05-.62-.2-1.15-.47-1.64-.15-.24-.22-.36-.48-.65l.56,1.51c-.04-.33-.09-.64.04-1.1l.22.8v.3s-.62-1.67-.62-1.67c.15.19.18.23.26.34.31.44.57.91.74,1.56.14.72-.02,1.9-.52,2.62Z" style="fill: #fff;"/>
              <path d="m69.1,24.14h.05s.11.16.16.22c.12.17.24.35.35.52.16.32.29.59.42.86.05.23.11.49.16.72l-.14.04c-.37-.75-.75-1.53-1.12-2.28l.12-.07Z" style="fill: #fff;"/>
              <path d="m71.92,27.78l.23-.02c.13.52.26.79.37,1.05.06.13.1.25.13.4.01.06.02.14.02.2,0,.02,0,.05,0,.07.03.02-.07,0,.04,0,.25-.02.51-.02.77,0-.06,0,.24.01.47,0,.13,0,.29.03.44.07l.06.02h0s-1.65-.41-1.65-.41h0s0,0,0,0h0s0,.02,0,.02v.06s0,.13,0,.13c0,.32.09.44.2.23-.08.6-.05.89-.03,1.18.02.27.05.47.08.62.07.3.15.38.25.24,0-.21-.03-.4-.02-1.25.12.42.21,1.2.23,1.96,0,.19,0,.38-.02.55,0,.12-.05.43-.07.69-.03.53-.02,1.03.02,1.47.08.19.15.53.23.93l.02.08v.08c.07.46.12,1.11.2,1.94h-.14s-.37-.1-.37-.1c.04-.02.08-.04.13-.07-.02-.17-.04-.35-.06-.51-.09-.06-.19-.12-.27-.17-.03-.02-.06-.03-.09-.06,0,.13,0,.27,0,.37v.06s-.2.07-.2.07c0,.08.26.1.03.23-.27.07-.57.14-.87.22,0,.09-.02.2-.03.29-.51.17-.99.33-1.49.5l-.91.31-.02,1.03c0,.16,0,.33-.01.49l.08.02c0,.08,0,.16.01.25l1.17-1.33c-.78.14-1.58.28-2.35.42-.35.06-.65.1-1,.16-.06.1-.17.21-.22.3-.43.01-.73.01-1.08.01-.15-.11-.3-.22-.45-.33-.11-.04-.2-.08-.31-.12-.22-.03-.54-.11-.81-.15l-1-.58-.11-.19c-.13-.17-.28-.35-.42-.53-.19-.26-.38-.52-.57-.77l-.08-.06c-.16-.26-.45-.63-.58-.86.13-.03.26-.05.45-.03-.31-.27-.62-.53-.92-.79-.03-.1-.06-.2-.06-.27l-.6-.72c.25.09.51.18.76.27.01-.2.03-.4.04-.6.16.13.35.28.55.44.16.28.31.55.46.83l-.46-.19.29.34c.36.3.69.58,1.03.87.1.17.21.35.31.54-.04.01.03.18.11.37.04.09.05.15.07.23,0,.05,0,.09,0,.13.12.11.23.21.33.31l.02.04.43.25c.07-.02.23,0,.37.03.14.02.27.03.4.04.09.05.17.1.22.13l.15-.17c.13.08.29.17.42.24.02.08.08.14.17.18.13-.03.33-.11.54-.23.63-.08,1.21-.15,1.84-.23.5-.06,1-.12,1.44-.18.45-.11.17-.2.27-.3.04-.02.1-.04.18-.06l-2.26,2.57v-.08s-.04-.69-.04-.69l-.07-1.71,1.8-.77c.3-.13.6-.26.91-.39.2-.08.4-.15.6-.23.13-.05.26-.11.39-.16l.14-.04c.02-.21.04-.42.05-.63,0-.05.02-.11.02-.16v-.04s0-.04,0-.04c0-.27-.02-.53-.03-.8.04-.17.08-.35.12-.5.01-.46.05-.94.1-1.45.04-.05.08-.1.12-.19.05-.08.1-.23.16-.27-.04-.24-.12-.57-.21-.93-.17.34-.29-.72-.47-.53-.01-.05-.04-.16-.06-.21,0-.37,0-.67.02-1.27.02-.16.05-.36.11-.62l.05-.22.03-.11h0s0-.02,0-.02l2.28.58h0s0,0,0,0h0s-.04-.02-.04-.02l-.09-.02c-.26-.07-.44-.05-.77-.05-.36-.02-.72-.01-1.08.03l-.27.03s0,0-.02,0v-.02s.03-.08.03-.15c-.03-.39-.15-.99-.29-1.57Z" style="fill: #fff;"/>
              <path d="m61.85,36.98c-.31-.25-.58-.35-1.44-.97-.85-.76-.14-.39-.1-.49.36.21.68.33,1.08.64.3.26.61.53.92.79-.19-.02-.33,0-.45.03Z" style="fill: #fff;"/>
              <path d="m40.21,42.75c-.23-.38-.49-.79-.74-1.2l-.05-.11-.03-.03c.06-.11.11-.24.19-.33.05.02.11.05.19.1,0,0,.02.02.03.03.15.25.33.53.49.79l.2.41.14.79c-.14-.13-.26-.26-.42-.46Z" style="fill: #fff;"/>
              <path d="m43.52,42.22c-.14-.12-.29-.25-.44-.37l-.23-.16c-.09-.13-.13-.15-.32-.48,0-.05-.01-.15-.02-.25l-.59-1.32-.61-.66c-.28-.16-.47-.31-.71-.55l.66,1.59c0-.23-.01-.26-.03-.37l-.04-.24c-.03-.15-.06-.29-.09-.43-.07-.26-.15-.5-.24-.7-.29-.71-.71-1.33-1.23-1.89l-.11-.11-.27-.19c-.07-.05-.16-.11-.24-.17-.28-.14-.55-.29-.86-.46-.13-.13-.25-.25-.37-.38l-.38-.38-1.52.09c-.05,0-.1,0-.16,0-.39.09-.78.19-1.16.28-.54.13-1.12.27-1.65.4.09-.08.19-.18.23-.25.47-.08.92-.16,1.41-.25-.16-.23-.88.03-1.42.15,0-.05,0-.1,0-.13.63-.24,1.24-.47,1.83-.69.26-.05.51-.09.75-.14l1.58-.29.84.66c.25.2.49.38.72.57l.71.51.33.24.13.14c.58.62,1.1,1.37,1.42,2.28-.27-.45-.59-.83-.86-1.09.15.29.33.67.47,1.08.1.24.19.48.26.74.04.13.07.26.1.41l.04.23c.01.11.02.13.03.37l-.72-1.74c.15.13.31.27.47.42.04,0,.09.01.15.03.07.02.17.08.25.13l.57.6c.22.48.45.95.67,1.43l.19.44.07.18.15.19.22.24c.07.08.16.18.17.19-.05.04-.09.08-.14.12Z" style="fill: #fff;"/>
              <path d="m41.23,38.68c-.16-.14-.32-.28-.47-.42l.72,1.74c0-.23-.02-.26-.03-.37l-.04-.23c-.03-.15-.06-.28-.1-.41-.07-.26-.16-.5-.26-.74-.14-.41-.32-.79-.47-1.08.28.26.6.64.86,1.09.07.22.14.46.19.72.03.13.05.26.07.41l.02.23c0,.11.01.13.01.38l-.8-1.93c.23.26.46.51.68.76-.08-.05-.18-.1-.25-.13-.06-.01-.11-.03-.15-.03Z" style="fill: #fff;"/>
              <path d="m34.56,34.98c-.49.09-.94.16-1.41.25-.05.07-.14.16-.23.25l-.44.12-.92.15c-.74.12-1.44.23-2.18.35-.22,0-.44,0-.63,0-.1,0-.2,0-.29.01-.03,0-.06,0-.09,0-.13.04-.25.07-.41.11l-.14.03.18.18.05.04h.01s.09.09-.13-.1l-.36-.32h.01s.1.11.1.11l.1.1.03.02s.04.04-.02-.02l-.19-.17-.19-.17-.1-.09h0s.03.03.03.03l.24.22c0-.07-.01-.06-.02-.36,0-.04,0-.07,0-.09h0c.07-.08.13-.13.18-.18.04-.04.07-.06.16-.22.14-.24.24-.44.38-.7l-.11-.09.2-.4c.23-.37.39-.64.52-.85.09-.12.11-.1.16-.11-.13-.29.14-.44.28-.48.03-.05.06-.1.1-.15.05-.02.1-.04.17-.06.05-.03.1-.06.16-.08-.02,0,.16-.05.31-.08.12-.02.35-.11.52-.19.13-.04.35-.15.57-.28.53-.23.92-.45,1.31-.76-.08.1-.2.28-.38.45-.34.32-.79.63-1.3.84-.26.11-.55.2-.71.22l-.24.05h-.04c.01.07.02.13.04.19-.11.06-.2.15-.26.24-.05,0-.08.02-.12.02-.02.01-.03.02-.05.04-.04.11-.03.2-.06.26.01-.01-.08.17-.13.27-.06.11-.12.21-.17.3-.22.37-.42.64-.63,1.07l-.38.78v.19c0,.07.01-.01.01-.01-.13.02-.17.04-.18.04-.08-.07-.14-.14-.21-.23l-.11-.13v-.02s.15.15.15.15l.35.3c.09.08.05.05.05.05h-.01s-.03-.04-.03-.04l-.18-.18s-.38-.35.4.34c-.12-.11-.24-.22-.35-.33h.01c.1-.05.19-.08.28-.09.11-.02.06,0,.55-.06.74-.08,1.49-.16,2.31-.3l1.31-.21.75-.2s0,.09,0,.13c.53-.12,1.26-.38,1.42-.15Z" style="fill: #fff;"/>
              <path d="m35.02,28.82c.01-.07.03-.12.04-.19l.95-.03-2.21-1.24c.25.4.51.8.77,1.2l1.39,1.04c.12.13.33.33.32.36v.02s0,.08,0,.08l.08.16c.05.1.1.21.13.3.39.35.76.68,1.1.99l.43.48,1.68,1.86,2.18-1.77c.33-.27.66-.54,1-.81,0-.02.16-.19.28-.35.13-.15.26-.34.4-.56.26-.42.47-.99.55-1.49.13-1.04-.13-1.67-.16-1.61-.17-.65-.43-1.12-.74-1.56-.08-.11-.11-.16-.26-.34l.62,1.67v-.3c.05-.4.1-.8.14-1.17-.02-.14-.03-.31-.03-.48v-.03s0-.02,0-.02h0s-1.18,0-1.18,0h-.01s-.12,0-.12,0c-.07,0-.18-.02-.22-.02-.13-.02-.21-.05-.26-.08-.09-.05,0-.01.08.15.04.08.08.19.09.24,0,.01.01.06,0-.02l-.02-.18-.02-.23v-.19s0-.05,0-.05h0c.14,4.1.04,1.13.07,2.05h0s-.01,0-.01,0h-.05s2.39-1.48,2.39-1.48c.04-.1.08-.2.11-.28.22-.34.43-.65.65-.99.15-.24.25-.47.34-.68l-2.49,1.54c.41-.02.71-.06,1.06.04.45-.02.9-.04,1.38-.09.24-.02.49-.05.77-.1.08-.01.12-.02.18-.03.1-.06.21-.18.34-.14.03.04.06.09.09.13.05.04.11.07.17.09l.09.04.04.02.11.07.45.27c.23.2.51.42.75.61.38.19.85.44.89.41l.08.04.02.05.08.11.18.23.36.47c.17.13.35.27.53.42l.23.17.11.16c.09.16.18.32.26.48.18.33.37.65.55.91l1.05,1.57,1.23-.16h.05c.21-.06,1.88-.09,1.7.05.06.01.14.03.24.03.11,0,.16.01.37.01.38,0,.79,0,1.19,0,.46-.2.89-.38,1.16-.47.24-.07.26-.03.19.1-.61.27-1.06.48-1.31.61-.38.03-.53.06-.71.08-.09.01-.18.02-.31.03-.07,0-.14,0-.23,0-.07,0-.15,0-.24,0-1.01-.07-1.65-.09-2.11-.08l-1.75.04-.87-1.66c-.15-.28-.27-.47-.39-.65-.14-.21-.28-.43-.41-.64-.1-.15-.11-.1-.17-.15h0c-.03-.07.02-.07-.08-.21l-.43-.57-.49-.51-.13-.12c-.05-.05-.08-.07-.08-.07-.02-.02-.05-.04-.07-.05-.03-.01-.07-.02-.1-.02-.11-.05-.22-.1-.35-.15.09.08.24.19.29.25l.04.08.02.09c.04.06.15.19.22.29l.48.62c-.33-.08-.37-.06-.41-.03-.15-.16-.29-.32-.43-.48l-.1-.12s-.01-.02-.02-.03v-.03s-.03-.02-.03-.02c0,0,0,0-.1-.07l-.45-.31c-.3-.2-.6-.4-.89-.61l-.66-.47s-.05-.05-.07-.07c-.03-.04-.08-.07-.13-.05-.02,0-.05,0-.07,0,0,0-.04,0-.03,0l-.42.05c-.07,0-.2.02-.26.03-1,.18-1.71.24-2.65.24l3.16-1.96c-.29.57-.64,1.19-1.09,1.96l-3.07,1.9h.08s.02,0,.02,0h0s-.09-2.82-.09-2.82h0s0,.02,0,.02v.05s.01.21.01.21l.02.22.02.17s0,.03,0,0c-.02-.06-.06-.18-.1-.26-.12-.21-.2-.15.07-.07.09.03.12.02.25.04.05,0,.11,0,.16,0h1.93s0,.04,0,.04v.36c-.03.48-.05.97-.07,1.46l-.21-1.25c-.05.3-.1.62-.15.92,0,.17,0,.33.02.47l-.71-1.92.24.29.16.21c.1.14.19.28.28.42.17.29.33.6.45.97.13.36.21.82.22,1.32,0,.51-.1,1.1-.35,1.65-.15.4-.39.81-.66,1.16l-.54.62c-.22.25-.47.51-.74.77l-2.25,2.18-2.42-2.28c-.63-.6-1.26-1.27-1.65-1.78-.06-.08-.12-.17-.1-.16v-.04s-.02-.05-.02-.05c0-.02-.08-.09-.11-.13l-.25-.27c-.22-.18-.9-.7-1.31-1.08-.08-.16-.16-.32-.22-.46-.18-.28-.36-.56-.54-.84l2.57,1.44-.54.02c-.2,0-.35,0-.5,0,.02-.11.04-.17.05-.22Z" style="fill: #fff;"/>
              <path d="m60.99,27.38c.11-.63.07-1.02.04-1.4-.02-.17-.05-.36-.08-.51l-.06-.32v-.07c0-.06,0-.11.01-.15,0-.02,0-.04.02-.06-.01-.06-.03-.11-.05-.16h0c.18-.66.35-1.28.52-1.94-.15-.05.06-.29-.05-.46,0-.1,0-.15.03-.18.04-.09.15.07.18.05-.06-.12-.08-.16-.1-.21.04,0,.07,0,.11-.01.45-.08.93-.17,1.46-.27h.03c.23-.23.43-.41.6-.57.21-.18.37-.32.51-.44.05-.06.1-.08.15-.07.05.03.11.07.14.12.04-.02.09-.05.13-.07-.01.01-.03.02-.04.02-.01,0,.11,0,.15,0,.3.04.56.07.85.11l1.6.41c.2.08.22.11.26.14l.11.1c.06-.02.11-.04.16-.05.11.03.22.06.34.1.03.07.07.15.11.24l.05.12s.08.12.12.18c.21.22.46.47.85.86.15.09.28.16.43.25l.38.39.9,1.84c-.07.22-.13.49-.18.75-.16-.37-.33-.73-.48-1.09-.1-.29-.19-.53-.27-.72-.05-.1-.09-.19-.12-.27-.04-.08-.08-.16-.08-.16-.05-.06-.1-.08-.15-.08h-.03c-.1-.04-.09-.04-.28-.27-.13-.18-.22-.34-.3-.52-.3-.26-.61-.53-.93-.81-.1-.12-.1-.14-.14-.19l-.1-.15c-.07-.1-.14-.2-.2-.3l-.03-.02c-.2.02-.17.1-.85,0-.91-.27-1.15-.33-1.91-.35-.02,0-.06-.01-.09-.02-.02.01-.04.02-.06.02l-.06.02h-.03s.04,0,.04,0c.06,0,.13,0,.19.02-.02.02-.03.04-.04.06-.07-.04-.13-.09-.18-.15,0,0-.02.02-.03.02-.36.26-.72.53-1.08.79-.06.05-.12.09-.19.14-.42.08-.84.16-1.26.25l-.31.06h.02s.06,0,.06,0c0,0,0,.02-.01.04-.03.09-.08.25.04.31l-.12.42c.05,0,.04.14-.04.42-.04.13-.09.3-.16.52-.03.1-.07.21-.11.33-.02.05-.04.11-.06.17l-.03.04v.09c-.01.05-.04.11-.02.15l.07.14c.02.06.01.01.05.16l.09.35c.05.24.1.53.12.84-.06-.03-.13-.05-.18-.07,0,.19,0,.4-.01.6-.03.26-.05.45-.12.74-.13.53-.43,1.29-1.17,1.93.2-.22.37-.45.51-.67.11-.2.19-.41.26-.61.12-.38.13-.67.14-.94Z" style="fill: #fff;"/>
              <path d="m71.7,27.35c0,.32,0,.6-.01.91-.31-.33-.49-.58-.43-.19.11.69.27.35.35.99.03.19.04.34.04.45-.09,0-.18,0-.27.01-.08-.45-.34-1.33-.59-2.09-.02-.13.03-.08.03-.13l.02-.04s-.04-.14-.06-.21c-.1-.3-.2-.61-.3-.91.07-.02.12-.03.18-.04-.16-.37-.33-.73-.48-1.09.21.1.43.19.66.34.18.38.37.78.55,1.18l.21.45.1.37Z" style="fill: #fff;"/>
              <path d="m71.92,27.78c.14.57.26,1.18.29,1.57-.16-.3-.31-.61-.48-.93-.01-.04-.03-.13-.05-.17,0-.31.02-.59.01-.91.09.18.16.31.23.44Z" style="fill: #fff;"/>
              <path d="m72.03,31.44c.18-.19.3.86.47.53.09.36.16.69.21.93-.05.04-.11.18-.16.27-.05.08-.09.14-.12.19-.06.51-.09.99-.1,1.45-.04.15-.08.32-.12.5-.07-.36-.14-.79-.18-1.18,0-.25,0-.51.03-.78l.04-.41v-.15c0-.21,0-.52-.04-.87,0-.14-.01-.28-.02-.46Z" style="fill: #fff;"/>
              <path d="m70.5,38.5c.43.22-.63.43-1.48.59-.05-.04-.14-.08-.24-.11-.63.08-1.21.15-1.84.23-.21.12-.41.2-.54.23-.09-.05-.15-.1-.17-.18-.13-.08-.29-.17-.42-.24l-.15.17s-.13-.08-.22-.13c-.23-.16-.58-.4-.61-.46.05-.06.09-.11.14-.18l.11.02c.06.02.16.06.25.1.19.09.38.18.57.27l.14.07.06.03.12.06.25.13h.03c.16-.08.3-.16.43-.23.63-.02,1.24-.03,1.87-.05.55-.1,1.15-.2,1.7-.29Z" style="fill: #fff;"/>
              <path d="m69.94,39.28c-.41.18-1.1.22-1.65.3,0-.1.02-.18.02-.28.25-.03.45-.06.7-.09.32.02.64.04.93.06Z" style="fill: #fff;"/>
              <path d="m64.23,38.68c-.1-.1-.22-.2-.33-.31,0-.04,0-.08,0-.13-.02-.08-.04-.13-.07-.23-.08-.19-.14-.36-.11-.37-.11-.18-.21-.36-.31-.54-.34-.29-.68-.57-1.03-.87l-.29-.34.46.19c-.16-.28-.31-.55-.46-.83.34.25.68.5,1.02.75.11.2.22.4.37.64l.23.18.75,1.24c0,.13,0,.28,0,.43-.07.05-.14.11-.21.17Z" style="fill: #fff;"/>
              <path d="m41.97,44.41c-.2-.15-.4-.29-.63-.45l-.68-.69-.03-.06-.14-.79c.13.23.26.46.39.69.37.34.74.67,1.12,1.01.08.15.15.27.23.42-.06-.01-.16-.07-.26-.13Z" style="fill: #fff;"/>
              <path d="m38.58,40.66l-.12-.09h-.02s-.22-.56-.22-.56c-.07-.19-.27-.56-.48-.76-.09-.21-.21-.41-.37-.6l.15.12-.2-.15c.05-.05.11-.11.2-.19.05.03.1.06.16.1l-.1-.08c.16.15.32.32.44.48.24.17.47.42.64.68.03.13.05.3.04.41v.11s.09.1.09.1c.26.29.52.59.77.87-.08.09-.13.21-.19.33-.27-.25-.54-.5-.81-.75Z" style="fill: #fff;"/>
              <path d="m29.37,36.08c-.15.09-.39.14-.67.19-.15.02-.32.05-.5.08-.13.04-.28.07-.44.09l.15.11.04.03h0s0,.01,0,.01l-.2-.18c-.41-.37-.22-.2-.25-.23l.09.07.09.07.02.02-.31-.28-.18-.16h.01s.03.03.03.03c.07.06.13.12.2.18-.01-.06-.05-.11-.12-.18-.06-.38.16-.06.23-.32h0s.61-1.19.61-1.19l.11.09c-.17.28-.33.55-.49.82l-.21.27-.02.09c0,.3.01.29.02.36l-.24-.22-.03-.03h0s.1.08.1.08l.19.17.19.17c.06.05,0,0,.02.02l-.03-.02-.1-.1-.1-.1h-.01s.36.31.36.31c.22.19.11.1.13.12h-.01s-.05-.05-.05-.05l-.18-.18.14-.03c.15-.03.27-.07.41-.11.03,0,.06,0,.09,0,.09,0,.18,0,.29-.01.19,0,.41,0,.63,0Z" style="fill: #fff;"/>
              <path d="m28.29,33.33c.09-.18.17-.33.26-.51.15-.06.23.02.34-.23.19-.09.39-.13.56-.14-.04.06-.07.11-.1.15-.29.22-.22.38-.28.48-.05.01-.07-.02-.16.11-.13.21-.29.47-.52.85-.06-.24-.45.14-.09-.71Z" style="fill: #fff;"/>
              <path d="m33.24,29.08s.04-.09.05-.11l.08-.07.17-.07.08-.03.19-.09.38-.18.18-.07h.22s.21.08.21.08l.1.05s.06.03.17.04c-.01.07-.03.12-.04.19-.11,0-.23,0-.34,0l-1,.5c-.21.21-.41.41-.62.62l-.06.06.74-1.3c-.1.35-.15.46-.23.67-.08.18-.16.36-.26.54-.19.36-.42.72-.75,1.1-.4.32-.78.54-1.31.76.51-.27,1.08-.78,1.46-1.33.19-.28.35-.56.48-.85.14-.31.21-.51.32-.96l-.66,1.16c.12-.14.22-.27.31-.4.08-.13.17-.27.15-.31Z" style="fill: #fff;"/>
              <path d="m37.17,30.68c.17.19.32.37.45.53.19.19.38.38.61.59l1.85,1.71,1.65-1.63c.24-.23.49-.51.77-.85.05-.04.09-.08.13-.12.02-.02.18-.18.26-.26.19-.19.39-.46.57-.77.5-.72.65-1.9.52-2.62.02-.06.29.57.16,1.61-.07.51-.28,1.07-.55,1.49-.13.22-.27.41-.4.56-.12.16-.28.33-.28.35-.34.27-.67.54-1,.81l-2.18,1.77-1.68-1.86-.43-.48c-.34-.3-.71-.64-1.1-.99-.03-.09-.08-.19-.13-.3l-.08-.16v-.08s.25.19.39.3l.48.39Z" style="fill: #fff;"/>
              <path d="m43.37,25.92v-.6s0-.3,0-.3h-.98s-.09,0-.13-.01c-.1-.02-.13-.01-.2-.03-.18-.04-.23-.11-.18-.06.05.04.15.22.18.36.01.05.02.07.01.05l-.02-.16-.02-.21v-.23s-.01-.06-.01-.06v-.03s0,0,0,0l.05,1.64h0s0,0,0,0h-.05s2.02-1.25,2.02-1.25c.06-.11.13-.22.19-.33.1-.36.63-1.38.62-1.01.08-.22.17-.42.26-.62l-2.09,1.29c.88-.04,1.54,0,2.35-.03.2,0,.41-.02.63-.05l.22-.03s.07-.01.1-.02c.14-.01.26-.21.46-.2.02.07.01.15.03.23.11.06.18.17.31.23l.04.03s.09,0,.14,0c.1.04.2.08.28.11.19.08.35.15.43.17.13.09.25.18.43.29.34.22.73.48,1.07.7.02.02.03.03.05.05.07.09.05.09.17.23.11.13.21.25.33.38.1.05.21.1.29.11.25.25.52.53.81.82.27.56.56,1.14.82,1.68l.61,1.25h1.42c.69,0,1.32,0,1.83-.03.13-.02.21-.04.43-.06.27-.02.63-.03,1.18-.02.08-.03.21-.09.35-.14.28-.06.5-.09.72-.11.13-.06.27-.11.4-.17.45-.2.9-.52,1.18-.9.21-.26.32-.49.44-.76.09-.24.14-.45.19-.68.02-.18.04-.37.05-.54l-.02-.45c-.03-.27-.07-.51-.11-.72l-.08-.31c-.03-.11-.03-.1-.05-.16-.04-.1-.08-.19-.12-.27v-.02c-.03-.09.01-.18.03-.27l.06-.25c.05-.19.1-.37.14-.55.1-.37.2-.73.29-1.09l.13-.46c0-.16,0-.32-.01-.48v-.1s.04-.02.04-.02c0-.05.08-.06.17-.09.04-.01.09-.03.13-.05.07-.03.02-.05.18-.13.13.08.59.03,1.35-.1.32-.22.69-.49,1.12-.8.09-.06.11-.06.17-.1.07-.03.14-.07.21-.11l.04-.02s.02.06.25.08l.11.05s.05.02.17.06c.19.06.38.12.58.18.56.15.67.09.89.08.11,0,.24,0,.48.05.12.02.26.06.43.11.11.03.17.06.27.11l.17.08.24.31.22.26.42.46c.29.32.58.64.87.96-.15-.09-.28-.16-.43-.25-.39-.39-.63-.64-.85-.86-.04-.06-.09-.14-.12-.18l-.05-.12c-.04-.08-.07-.16-.11-.24-.13-.04-.23-.07-.34-.1-.05.02-.1.04-.16.05l-.11-.1s-.06-.07-.26-.14l-1.6-.41c-.29-.04-.55-.07-.85-.11-.04,0-.17.01-.15,0,.01,0,.03,0,.04-.02-.04.02-.08.04-.13.07-.03-.04-.09-.09-.14-.12-.05-.02-.09,0-.15.07-.14.12-.31.27-.51.44-.17.16-.37.35-.6.56h-.03c-.53.11-1.02.2-1.46.28-.04,0-.08.01-.11.01.02.04.04.08.1.21-.03.02-.15-.15-.18-.05-.02.03-.03.08-.03.18.12.17-.1.41.05.46-.18.66-.35,1.28-.52,1.94h0c.02.05.04.1.05.16-.02.02-.02.04-.02.06,0,.05,0,.1-.02.15v.07s.07.32.07.32c.03.15.05.34.08.51.03.39.07.78-.04,1.4,0,.27-.02.56-.14.94-.07.2-.15.4-.26.61-.13.22-.3.45-.51.67-.28.26-.68.48-.96.61l-.21.09c.07-.13.05-.17-.19-.1-.27.09-.7.27-1.16.47-.4,0-.81,0-1.19,0-.22,0-.27,0-.37-.01-.09,0-.17-.02-.24-.03.18-.15-1.48-.11-1.7-.06h-.05s-1.23.16-1.23.16l-1.05-1.57c-.18-.27-.36-.58-.55-.91-.09-.16-.17-.32-.26-.48l-.11-.16-.23-.17c-.18-.15-.35-.3-.53-.42l-.36-.47-.18-.23-.08-.11-.02-.05-.08-.04s-.51-.22-.89-.41c-.24-.19-.53-.41-.75-.61l-.45-.27-.11-.07-.04-.02-.09-.04c-.06-.02-.12-.05-.17-.09-.03-.04-.05-.09-.09-.13-.13-.05-.24.08-.34.14-.06.01-.1.02-.18.03-.28.04-.52.07-.77.1-.48.05-.93.07-1.38.09-.35-.09-.65-.06-1.06-.04l2.49-1.54c-.09.21-.19.44-.34.68-.22.33-.43.65-.65.99-.03.09-.07.18-.11.28l-2.39,1.48h.05s.01,0,.01,0h0c-.03-.92.07,2.05-.07-2.05h0s0,.05,0,.05v.19s.02.23.02.23l.02.18c.01.08,0,.03,0,.02-.01-.05-.05-.16-.09-.24-.08-.17-.18-.2-.08-.15.05.03.13.05.26.08.04,0,.15.02.22.02h.12s.01,0,.01,0h1.18s0,0,0,0v.02s0,.03,0,.03c0,.17.01.34.03.48-.04.38-.09.77-.14,1.17l-.22-.8Z" style="fill: #fff;"/>
              <path d="m45.66,23.27l.35-.05.19-.03c.12-.03.25-.06.36-.12-.02.11-.03.24-.05.35-.05.02-.08.03-.13.05-.08.01-.17.03-.26.03l-.22.02c-.09,0-.18.02-.27.02.02-.12.02-.2.03-.28Z" style="fill: #fff;"/>
              <path d="m47.28,23.44c.07.17.17.25.23.33.1.12.14.19.07.2l-.13-.09c-.19-.1-.27-.31-.46-.45.1-.03.19-.03.29.01Z" style="fill: #fff;"/>
              <path d="m55.46,29.67c.19-.06.43-.08.69-.08.35,0,.73,0,1.08,0h.1s1.11-.46,1.11-.46c.11.04.17.09.27.13-.43.19-.89.39-1.33.59-.32,0-.63,0-.93.01-.33,0-.42-.03-.58-.06-.14-.03-.27-.08-.41-.12Z" style="fill: #fff;"/>
              <path d="m59.92,28.17c.4-.81.33-1.36.31-1.79-.02-.22-.06-.41-.1-.6l-.07-.26-.05-.16-.09-.22c0-.07-.02-.12-.02-.15.04-.21.15-.2.2-.19-.01.06-.06.12-.02.18.04.11.08.22.12.33l.05.16.07.28c.04.19.08.4.1.63.02.46.1,1.08-.41,2-.04-.1-.06-.15-.08-.21Z" style="fill: #fff;"/>
              <path d="m68.32,20.45c.06.21.1.41.14.59l-.38-.38-.46-.12c-.31-.21.16-.27.62-.17l.08.08Z" style="fill: #fff;"/>
              <path d="m69.77,22.17c.23.26.46.52.69.77-.04.04-.1.05-.16.03-.06-.01-.11-.04-.25-.17-.23-.22-.47-.52-.54-.76.1.06.19.11.26.13Z" style="fill: #fff;"/>
              <path d="m72.48,26.85c.14.41-.07.15-.11.24-.12-.27-.22-.49-.33-.74-.14-.34-.23-.64-.25-.79.05-.22.18.03.34.4.07.17.16.38.24.57.04.12.08.23.11.31Z" style="fill: #fff;"/>
              <path d="m73.67,38.25c-.07.18-.59.32-.78.46-.63.19-1.07.28-.96.06.26-.14.52-.28.77-.41l.97-.11Z" style="fill: #fff;"/>
              <path d="m28.06,36.01l.03.03h.01s.03.04-.05-.03l-.35-.3-.17-.15v.02s.12.13.12.13c.07.09.13.16.21.23,0,0,.05-.02.18-.04-.01-.01-.02-.02-.04-.03l-.3-.23-.15-.11.55.51-.06-.04Z" style="fill: #fff;"/>
              <path d="m29.85,32.76h.04s.18-.04.18-.04l.3-.06c.13-.04.28-.09.41-.14.55-.21,1.02-.53,1.39-.86.88-.85,1.08-1.44,1.28-1.87.18-.46.22-.66.31-1.09l-.74,1.31.05-.07c.2-.2.41-.41.62-.62l1-.5c.12,0,.23,0,.34,0-.02.07-.03.14-.05.22.15,0,.3,0,.5,0-.01.06-.03.11-.04.18-.15.01-.29.02-.42.03-.13.01-.08.02-.12.03-.04.01-.07.03-.1.04-.09.07-.06.04-.22.07l-.62.31-.62.62.86-1.52c-.07.27-.1.35-.15.5l-.15.38c-.11.25-.22.49-.37.74-.28.49-.66,1.01-1.23,1.51-.29.25-.62.48-1.01.67-.35.19-.88.36-1.11.39l-.27.06-.07.02c-.08.09-.14-.03-.25-.08.06-.09.16-.18.26-.24Z" style="fill: #fff;"/>
              <path d="m29.81,32.57h.04s.24-.06.24-.06c.16-.02.45-.11.71-.22.51-.22.96-.52,1.3-.84.18-.17.31-.35.38-.45.33-.38.56-.74.75-1.1.1-.18.18-.35.26-.54.08-.21.13-.32.23-.67l-.74,1.3.06-.06-.05.07.74-1.31c-.09.43-.14.63-.31,1.09-.2.43-.4,1.02-1.28,1.87-.37.33-.85.64-1.39.86-.14.05-.28.1-.41.14l-.3.06-.18.04h-.04c-.01-.06-.02-.11-.04-.18Z" style="fill: #fff;"/>
              <path d="m35.47,29.05l.54-.02-2.57-1.44c.18.28.36.56.54.84.06.15.13.3.22.46.41.38,1.09.9,1.31,1.08l.25.27s.11.11.11.13v.05s.02.04.02.04h-.03s-.32-.2-.52-.32l-.34-.22c-.2-.14-.4-.28-.59-.42-.15-.14-.31-.27-.46-.4l-.42-.79-.2-.38-.1-.22,2.79,1.57c-.19-.02-.38-.04-.58-.06.01-.06.03-.12.04-.18Z" style="fill: #fff;"/>
              <path d="m44.24,29.96c.25-.55.35-1.14.35-1.65,0-.5-.09-.96-.22-1.32-.12-.38-.28-.68-.45-.97-.09-.14-.18-.28-.28-.42l-.16-.21-.24-.29.71,1.92c-.01-.14-.02-.3-.02-.47.05-.3.1-.62.15-.92l.21,1.25s0,.09,0,.14l-.79-2.14c.15.18.17.22.23.31l.15.23c.09.15.18.3.25.47.16.32.29.67.39,1.09.21.79.2,1.97-.29,2.98Z" style="fill: #fff;"/>
              <path d="m48.68,26.17c.13.06.24.11.35.15.03,0,.07,0,.1.02.03.01.05.03.07.05,0,0,.03.02.08.07l.13.12.49.51.43.57c.1.14.05.14.08.21h0c.05.05.06,0,.17.15.14.21.28.43.41.64.12.17.24.37.39.65l.87,1.66,1.75-.04c.46,0,1.1.01,2.11.08-.26.04-.47.08-.73.12h-1.37s-1.95-.02-1.95-.02l-.84-1.71-.04-.07c-.16-.11-.31-.23-.49-.38-.07-.13-.16-.26-.24-.39l-.12-.26c-.03-.07-.1-.22-.08-.2l-.02-.09-.03-.04c-.15-.15-.32-.33-.47-.48l-.48-.62c-.07-.09-.18-.23-.22-.29l-.02-.09-.04-.08c-.05-.06-.2-.17-.29-.25Z" style="fill: #fff;"/>
              <path d="m61.26,24.67l.03-.04c.02-.06.04-.12.06-.17.04-.12.08-.23.11-.33.07-.21.12-.38.16-.52.08-.28.09-.42.04-.42.05,0,.04.14-.04.42-.04.13-.09.3-.16.52-.03.1-.07.21-.11.33-.02.05-.04.11-.06.17l-.03.04Z" style="fill: #fff;"/>
              <path d="m64.69,21.17s-.04.02-.06.02l-.06.02h-.03s.04,0,.04,0c.06,0,.13,0,.19.02-.02.02-.03.04-.04.06-.07-.04-.13-.09-.18-.15.05.06.11.11.18.15,0-.02.02-.04.04-.06-.06-.01-.13-.01-.19-.02h-.04s.03,0,.03,0l.06-.02s.04-.01.06-.02Z" style="fill: #fff;"/>
              <path d="m69.52,23.79h.03s.1,0,.15.07c0,0,.04.08.08.16.04.08.08.17.12.27.08.2.17.44.27.72-.27-.53-.65-1.26-.64-1.21h-.01Z" style="fill: #fff;"/>
              <path d="m71.73,28.43c.02.22.04.42.06.62.08.2.14.42.18.48h0s0,.02,0,.02h.22c.27-.05.53-.07.8-.08.25-.01.57.02.77.01.18-.01.37,0,.55.05l.14.04h0s0,0,0,0c-4.76-1.2-1.32-.33-2.38-.6h0s0,.01,0,.01v.02s-.01.04-.01.04l-.03.17c-.02.12-.03.23-.04.3-.01.17-.02.32-.01.44-.03.6-.02.9-.02,1.27.02.05.05.16.06.21,0,.18.02.32.02.46-.07.41-.17.75-.28.91l-.06.53c-.03.83,0,1.49.06,2.15-.02.11-.05.17-.08.28,0,.12,0,.24-.01.37v.02s-.03.02-.03.02c-.04.05-.08.08-.12.11-.09-.05-.13-.07-.15-.11h0s0-.03,0-.03c-.04-.37-.08-.72-.12-1.09-.02-.43-.02-.89,0-1.38.01-.25.03-.5.06-.78.02-.19.01-.13.01-.18v-.1c0-.12.01-.28,0-.44.05-.06.09-.14.14-.17.02-.24.03-.56.04-.88-.09-.23-.16-.42-.25-.66,0-.21-.02-.47,0-.86l.03-.33c.02-.16.05-.31.09-.47v-.03s0,0,0,0h0s0,0,0,0l3.07.78h0s-.02,0-.02,0l-.08-.02-.15-.04c-.1-.02-.21-.03-.31-.03-.16.02-.5-.01-.78,0-.28,0-.55.02-.83.06-.31.03-.63.05-.95.08.02,0,.03,0,.03-.07.09,0,.18,0,.27-.01,0-.11-.01-.26-.04-.45-.08-.65-.24-.3-.35-.99-.06-.4.12-.14.43.19.01.04.03.13.05.17Z" style="fill: #fff;"/>
              <path d="m71.52,31.15c-.01.32-.02.64-.04.88-.05.03-.09.11-.14.17-.02-.55-.05-1.15-.07-1.71.09.24.16.43.25.66Z" style="fill: #fff;"/>
              <path d="m72.05,31.9c.08.25.1.55.09.79,0,.04-.12.88-.11,1.42.04.39.11.82.18,1.18,0,.28.02.54.03.8v.04s0,.04,0,.04c0,.05-.02.1-.02.16-.02.21-.04.42-.05.63l-.14.04c-.07-.1-.15-.2-.24-.3l-.17-.14c-.02-.1-.05-.18-.08-.26.04-.03.08-.06.12-.11v-.02s.03-.02.03-.02c0-.13,0-.25.01-.37.03-.11.06-.17.08-.28-.06-.66-.09-1.32-.06-2.15l.06-.53c.12-.16.22-.5.28-.91Z" style="fill: #fff;"/>
              <path d="m71.61,36.55l.17.14c.09.1.17.2.24.3-.13.05-.26.11-.39.16-.2.08-.4.15-.6.23-.31.13-.61.26-.91.39l-1.8.77.07,1.71.03.69s0,.05-.01.08l2.28-2.6c-.3,0-.58-.02-.86-.02-.44,0-.18-.21-.22-.33.31-.13.66-.17.95-.21h.04s-2.77,3.16-2.77,3.16c.06-.25.12-.5.18-.76l.61-2.66,1.36-.17c.27-.03.55-.07.83-.1.16-.21.47-.46.38-.56.14-.06.28-.12.42-.18v-.03Z" style="fill: #fff;"/>
              <path d="m70.81,37.32c-.28.04-.56.07-.83.1l-1.36.17-.61,2.66c-.06.26-.12.51-.18.76l2.77-3.16h-.04s.04,0,.04,0l-2.78,3.17v-.76s-.02-2.21-.02-2.21l2.11-.8,1.28-.48c.09.1-.22.36-.38.56Z" style="fill: #fff;"/>
              <path d="m70.5,38.5c-.55.1-1.15.2-1.7.29-.63.02-1.24.03-1.87.05.33-.19.66-.38.98-.57.55-.07,1.15-.14,1.69-.21.04.12-.23.34.22.33.28,0,.55.02.86.02l-2.28,2.6s0-.05.01-.08v.08s2.27-2.57,2.27-2.57c-.07.02-.14.04-.18.06Z" style="fill: #fff;"/>
              <path d="m64.68,38.97l-.43-.25-.02-.04c.07-.06.15-.12.21-.17h0c.13.03.25.05.38.07.03.06.38.3.61.46-.13-.01-.26-.03-.4-.04-.14-.02-.3-.05-.37-.03Z" style="fill: #fff;"/>
              <path d="m66.93,38.84c-.08.1-.18.09-.33.17-.04.02-.08.05-.1.06h-.03s-.38-.11-.38-.11l-.11-.04-.24-.11c-.16-.08-.32-.15-.48-.23-.12-.07-.21-.12-.3-.17-.05.07-.1.12-.14.18-.13-.02-.25-.04-.38-.06h0c0-.16,0-.31,0-.44.06.01.12.03.17.02l-.05-.25c-.04-.13-.21-.47-.35-.75-.09-.14-.19-.3-.3-.45-.28-.21-.57-.43-.83-.62-.34-.25-.67-.5-1.02-.75-.2-.16-.39-.31-.55-.44-.57-.73-.24-.63-.23-.76.52.27,1.42,1.18,1.67,1.11l1.37,1.09.79,1.31.08.15.32.19c.39.18.64.3.84.39.05.02.09.04.13.06l.09.05.25-.02,1.07-.13c-.33.19-.66.38-.98.57Z" style="fill: #fff;"/>
              <path d="m64.44,38.08l-.75-1.24-.23-.18c-.15-.24-.26-.44-.37-.64.26.19.55.41.83.62.1.16.2.31.3.45.14.29.3.62.35.75l.05.25s-.11,0-.17-.02Z" style="fill: #fff;"/>
              <path d="m68.47,23.29c.05-.27.36-.03.68.26.07.07.15.14.22.2l.05.04s.07.03.1,0h.01s.37.69.64,1.22c.16.36.32.72.48,1.09-.06.01-.11.03-.18.04.1.3.2.6.3.91.02.07.05.16.06.21l-.02.04c0,.05-.05,0-.03.13-.05-.07-.07-.05-.1-.05,0-.01,0-.02-.01-.03h0s-.04-.09-.04-.09l-.08-.17c-.11-.22-.21-.43-.31-.64-.05-.23-.11-.49-.16-.72-.13-.27-.26-.54-.42-.86-.12-.17-.23-.34-.35-.52-.05-.07-.14-.22-.16-.21h-.05s0-.05,0-.05v-.05s0-.02-.12-.15c-.17-.2-.34-.4-.52-.61Z" style="fill: #fff;"/>
              <path d="m42.54,41.2c-.11-.13-.22-.29-.33-.48-.13-.22-.34-.59-.51-.92-.4-.38-.82-.8-1.25-1.21l.59,1.42c0-.29-.02-.33-.04-.48-.02-.12-.04-.23-.07-.34-.05-.21-.11-.41-.19-.6-.14-.38-.33-.71-.53-1-.21-.37-.46-.7-.75-1.03l-.05-.05-.28-.22c-.33-.25-.67-.51-1.03-.78-.15-.08-.29-.15-.44-.23l-.98-.52-.72.26c-1.05.37-2.46.72-3.25,1.06-.04,0-.08-.01-.12-.02h-.1s-.21,0-.21,0c-.16.02-.32.04-.49.06-.35.05-.74.12-1.14.19-.41.07-.83.15-1.25.23-.4.07-.92.15-1.02.15-.22.16-.49.15-.72.12.02-.01.04-.02.06-.01.01,0,.02,0,.03,0-.04-.04.2.17-.4-.36,0,0,0,0,.01.01l.05.04.03.02h.01s-.33-.28-.33-.28l-.1-.09s0,0,0,0h0s.02.02.02.02l.04.03.08.06v-.28c.01-.16.02-.31.02-.46.19-.41.37-.8.53-1.15.2-.35.39-.69.58-1.04-.36.85.03.46.09.71l-.2.4-.61,1.18h0s0,.06,0,.1c0,.29-.02.28-.05.39l-.26-.18h-.02s0-.02,0-.02c0,0,0,0,.04.04l.38.35c.09.08.06.06.06.06h-.01s-.03-.03-.03-.03l-.1-.07-.09-.06c.66.59.41.37.44.4l-.04-.03s-.09-.07-.14-.1c.16-.02.31-.06.44-.1.13-.03.17-.05.35-.1l.82-.17c.74-.12,1.44-.23,2.18-.35l.92-.15.44-.12c.53-.13,1.11-.27,1.65-.4.38-.09.78-.18,1.16-.28.05,0,.11,0,.16,0l1.52-.09.38.38c.13.13.24.25.37.38.31.17.59.32.86.46.09.06.17.12.24.17l.27.19.11.11c.52.55.94,1.17,1.23,1.89.09.19.17.43.24.7.03.13.07.27.09.43l.04.24c.01.11.02.14.03.37l-.66-1.59c.24.23.44.39.71.55l.61.66.59,1.32c0,.1.02.19.02.25Z" style="fill: #fff;"/>
              <path d="m41.23,38.68c0,.07,0,.14.09.29-.08-.15-.08-.22-.09-.29Z" style="fill: #fff;"/>
              <path d="m32.5,31c-.08.1-.2.28-.38.45.18-.17.31-.35.38-.45Z" style="fill: #fff;"/>
              <path d="m68.78,38.97c.1.04.19.07.24.11-.05-.04-.14-.08-.24-.11Z" style="fill: #fff;"/>
              <path d="m44.09,25.63c-.02-.21-.04-.41-.05-.6v-.02s-1.55,0-1.55,0h-.06s-.13,0-.13,0c-.1-.02-.14-.02-.2-.03l-.14-.04-.08-.03c-.06-.04.03.01.11.18.04.08.07.18.08.23,0,0,0,.05,0-.03l-.02-.18-.02-.23v-.19s0-.05,0-.05h0c.15,4.67.04,1.29.07,2.33h0s-.02,0-.02,0h-.06s2.65-1.64,2.65-1.64c.36-.71.68-1.35,1.01-1.99l-2.66,1.64c.38,0,.69-.02,1.04-.06.33.02.72.03,1.07.02.24,0,.48-.03.73-.05l.4-.05c.05,0,.05,0,.08,0,0,.06-.05.13,0,.18-.12.08-.26.16-.4.24-.07,0-.2.02-.26.03-.94.04-1.68,0-2.52-.05h-.13l2.9-1.79-.59,1.16c-.2.33-.3.59-.39.85l-2.92,1.8h.07s.02,0,.02,0h0s0,0,0,0l-.09-2.64h0s0,.06,0,.06v.2s.03.23.03.23l.02.17c.01.06,0,.03,0,0-.01-.06-.05-.17-.1-.25-.14-.27-.22-.14.19-.06.09.01.24.04.35.02h0s1.67,0,1.67,0h0s0,0,0,0h0s0,0,0,0h0s0,.04,0,.04v.05s-.02.1-.02.1c-.02.14-.04.27-.06.41Z" style="fill: #fff;"/>
              <path d="m56.12,31.02c.09,0,.17,0,.24,0,.09,0,.16,0,.23,0,.13,0,.22-.02.31-.03.18-.02.33-.06.71-.08.25-.13.7-.34,1.31-.61l.21-.09c.28-.13.68-.35.96-.61.74-.64,1.03-1.4,1.17-1.93.07-.29.09-.48.12-.74.01-.2.02-.41.01-.6.06.02.13.04.18.07.02.44.05.86-.13,1.53-.13.59-.61,1.55-1.46,2.14-.29.21-.87.47-.8.42-.08.03-.17.06-.27.09-.31.12-.7.27-1.26.49-.4-.02-.89-.03-1.52-.06Z" style="fill: #fff;"/>
              <path d="m64.78,21.19c.76.01,1,.08,1.91.35.68.1.65.02.85,0l.03.02c.07.1.13.2.2.3l.1.15c.04.05.04.07.14.19.32.28.62.54.93.81.09.18.17.34.3.52.19.24.18.24.28.28-.04.03-.07.02-.1,0l-.05-.04c-.07-.07-.14-.13-.22-.2-.31-.29-.63-.52-.68-.26-.21-.21-.46-.46-.67-.68-.04-.09-.16-.25-.15-.28l-.03-.16c-.08-.1-.16-.19-.24-.29l-.17-.07c-.1-.03-.21-.05-.35-.09-.68-.18-1.41-.36-2.09-.54Z" style="fill: #fff;"/>
              <path d="m64.69,21.17s.08.02.09.02c-.02,0-.06-.01-.09-.02Z" style="fill: #fff;"/>
              <path d="m71.73,28.43c.16.32.32.62.48.93,0,.07,0,.13-.02.15v.02s-.03,0,0,0l.27-.03c.36-.04.72-.05,1.08-.03.33,0,.51-.02.77.05l.09.02h.04s0,.02,0,.02h0s0,0,0,0l-2.28-.58h0s0,.02,0,.02l-.03.11-.05.22c-.05.25-.08.45-.11.62,0-.11,0-.26.01-.44,0-.07.02-.18.04-.3l.03-.17v-.04s.01-.02.01-.02h0s0-.01,0-.01c1.06.27-2.38-.6,2.38.6h0s0,0,0,0l-.14-.04c-.18-.05-.37-.06-.55-.05-.19,0-.52-.02-.77-.01-.27,0-.53.03-.8.07h-.22s0,0,0,0h0c-.03-.06-.1-.28-.18-.49-.02-.2-.04-.4-.06-.62Z" style="fill: #fff;"/>
              <path d="m71.69,28.26s.03.13.05.17c-.01-.04-.03-.13-.05-.17Z" style="fill: #fff;"/>
              <path d="m68.41,40.93v.08s2.27-2.57,2.27-2.57c-.07.02-.14.04-.18.06.04-.02.1-.04.18-.06l-2.26,2.57v-.08Z" style="fill: #fff;"/>
            </g>
          </g>
        </g>
        <path d="m59.01,36.01l2.98,2.35,1.02,1.65,2.95,1.66,5.05-.66v-.76l3.83-1.41v-2.83s-.17-1.51,0-2.76-.17-2.94,0-3.59-.83-3.65-.83-3.65l-1-2-1-2-2-2-1-1-4-1h-1.31l-1.7,1.26-2.98.57v1.32l-1,3.85s1,2.15,0,2.57l-1,.43h-3l-1-2-2-2-1.5-.96-1.5-1.04s-.65-.94-1.32-.47-3.68.47-3.68.47l-1,2s-1,0-1,1v2.01s1,1.17,0,2.08l-1,.91-2-2-1.5-1.18-.5-.82h-2l-2,1-1,1s-.42,1.66-1.71,1.83-2.29,1.17-2.29,1.17l-2,4v2.21l2,1.79,6-1,3.5-.98,1.5.98c1,1,1,2,1,2l1,1,1,2,1,1,1,1h2c1-1,4.5-1.93,4.5-1.93,0,0-1.5-1.75,0-1.41s1.5-1.66,1.5-1.66l1-1s1-1,3-1,4-1,4-1v-1Z" style="fill: #bfc971;"/>
      </g>
      <rect x=".51" y=".51" width="99" height="84.5" rx="5.14" ry="5.14" style="fill: none; stroke: gray; stroke-dasharray: 0 0 3.08 5.14; stroke-miterlimit: 10; stroke-width: 1.03px;"/>
    </g>
  </g>
</svg>