<?xml version="1.0" encoding="utf-8"?>
<!-- Generator: Adobe Illustrator 25.4.1, SVG Export Plug-In . SVG Version: 6.00 Build 0)  -->
<svg version="1.1" id="圖層_1" xmlns="http://www.w3.org/2000/svg" xmlns:xlink="http://www.w3.org/1999/xlink" x="0px" y="0px"
	 viewBox="0 0 703.8 656.7" style="enable-background:new 0 0 703.8 656.7;" xml:space="preserve">
<style type="text/css">
	.st0{fill:#FFFFE6;}
	.st1{fill:#00CCFA;}
	.st2{fill:#00AC94;}
	.st3{fill:#008581;}
	.st4{fill:#003C6C;}
	.st5{fill:#FF7A1F;}
	.st6{display:none;}
	.st7{display:inline;}
	.st8{fill:#DFB45F;}
	.st9{fill:#F26370;}
	.st10{fill:#059DD9;}
	.st11{fill:#E13373;}
	.st12{fill:#00BCAA;}
	.st13{fill:#FFFFFF;}
	.st14{font-family:'GenYoGothicTW-B';}
	.st15{font-size:39px;}
	.st16{fill:#C3DC57;}
	.st17{display:inline;opacity:0.22;}
	.st18{fill:url(#SVGID_1_);}
	.st19{opacity:0.6;fill:url(#SVGID_00000139287972990809376700000008669790217958018691_);enable-background:new    ;}
	.st20{clip-path:url(#SVGID_00000068645640102182625460000014564663844110640037_);}
	.st21{opacity:0.6;fill:#747474;enable-background:new    ;}
	.st22{opacity:0.4;fill:#161615;enable-background:new    ;}
	.st23{fill:url(#SVGID_00000055670378692861196080000002339522821787954364_);}
	.st24{fill:url(#SVGID_00000038373177685316933870000001990397179990469273_);}
	.st25{fill:url(#SVGID_00000170267157709241738820000012423459227472353696_);}
	.st26{fill:url(#SVGID_00000099646838533239342740000015031153155569361078_);}
	.st27{opacity:0.5;fill:url(#SVGID_00000015336864232221537480000012436725820466400643_);enable-background:new    ;}
	.st28{opacity:0.7;fill:url(#SVGID_00000129898628508735399910000010832061149244240770_);enable-background:new    ;}
	.st29{fill:url(#SVGID_00000150791613350133941560000009636907491636625024_);}
	.st30{fill:url(#SVGID_00000082342856363908802180000012220989985147399089_);}
</style>
<g transform="matrix(0.995, 0.105, -0.105, 0.995, 375.48, 181.656)">
	<circle class="st0" cx="100.4" cy="201.4" r="141"/>
	<path class="st0" d="M-10.2,90.8c7.5-7.5,15.7-14.2,24.5-20c17-11.2,36.1-19,56.2-22.9c29.8-5.8,60.6-2.8,88.7,8.6
		c9.5,3.9,18.6,8.7,27.2,14.3c17.7,11.7,32.9,26.9,44.6,44.6c11.2,17,19,36.1,22.9,56.2c5.8,29.8,2.8,60.6-8.6,88.7
		c-3.9,9.5-8.7,18.6-14.3,27.2c-11.7,17.7-26.9,32.9-44.6,44.6c-17,11.2-36.1,19-56.2,22.9c-29.8,5.8-60.6,2.8-88.7-8.6
		c-9.5-3.9-18.6-8.7-27.2-14.3c-17.7-11.7-32.9-26.9-44.6-44.6c-11.2-17-19-36.1-22.9-56.2c-5.8-29.8-2.8-60.6,8.6-88.7
		c3.9-9.5,8.7-18.6,14.3-27.2C-24.4,106.5-17.7,98.3-10.2,90.8z M210.3,311.3c60.6-60.6,60.6-159.2,0-219.7S51.1,31-9.5,91.5
		s-60.6,159.2,0,219.7S149.7,371.9,210.3,311.3z"/>
	<g transform="matrix(0.966, 0.259, -0.259, 0.966, 86.533, -11.488)">
		<circle class="st1" cx="68.5" cy="202.1" r="133.9"/>
		<g transform="translate(55.463 61.622)">
			<path class="st2" d="M-114.8,147.8c2.9,3.7,11,9.8,11,9.8l11,4.1v-5.3l25.8-17.2l9.4-0.8l10.6,5.3c0,0,11.5,4.9,14.3,4.1
				c2.9-0.8-0.4-10.2-0.4-10.2l-13.9-13.1l4.5-7.4c0,0,6.6-4.1,18.8-4.9s28.2-2.9,28.2-2.9l3.3-16c0,0-2.9-19.2-7-25.8
				s-23.7-14.3-23.7-14.3l-34-1.6c0,0-8.9-9.1-14.6-15.1c-31.4,25.4-49.6,63.6-49.6,104c0,1.7,0,3.3,0.1,4.9
				C-118.5,145.5-116.1,146.1-114.8,147.8z"/>
			<path class="st2" d="M41.1,51.6l-9.4,19.6l-3.3,8.6l-0.8,16.8l5.3,15.5l6.5,4.1l9,11l-14.7,4.1l-12.3,4.9L9.1,151.4v28.2
				l14.3,13.9l14.7,8.2l-4.5,27.8l4.9,13.9l15.5,3.3l9.8-7.4l10.6-12.7l2.5-22.1l12.7-7c0,0,9.4,7.8,7.8-13.1s7.8-6.1-1.6-20.9
				s-7-13.5-7-13.5l-18.4-11.5l-9.4-20L59.9,106l-5.7-6.1l17.6-3.3l16,3.7l8.2,5.3l11.9-2c0,0,1.6-12.7,10.2-11s2.5-3.3,8.6,1.6
				l6.1,4.9l7.6-0.2c-13.5-41.1-45.9-73.1-87.1-86.2l-0.8,27.8L41.1,51.6z"/>
			<path class="st2" d="M143.5,110.2l-16.5-0.5l-9,13.1l-22.1,2.5l-2,12.7l13.9,18.4c0,0,10.6,5.7,10.2,14.3s-7,14.7-7,14.7
				l-4.1,13.5l3.7,17.6l6.9,7.7c19.1-23.7,29.5-53.3,29.4-83.7C146.9,130.3,145.8,120.1,143.5,110.2z"/>
			<path class="st2" d="M14.1,262.7l-16.4-4.5l-0.4-12.7l-4.5-20.9l-9-9.4l-7-11l7.4-12.3l-9.8-21.7l-36.4-7l-14.7,6.5l-16.8,11.9
				l-23.9-11.2c14,60.7,68.1,103.8,130.5,103.8c9.1,0,18.3-0.9,27.2-2.8l-15.6-11.3L14.1,262.7z"/>
		</g>
		<path class="st2" d="M131.3,167.8l-6.2,0.8l1.1,13.2l3.4,14.6l7.9,2.8l3.9-6.2l-4.2-9.5l0.3-4.8v-5.9L131.3,167.8z"/>
		<path class="st2" d="M36.5,179c-2,0-12.9,2.5-12.9,2.5l-2.5,6.7l7,8.1l2.5,9.3l5.6,1.1l8.1-8.7l1.7-8.1l-3.4-10.7L36.5,179z"/>
		<path class="st2" d="M45.2,252.4c-0.8,1.7-3.6,13.5-3.6,13.5l4.8,8.1l8.4,9.5l2,11.8l2.5,10.7l7-3.9l1.1-13.5l-7.3-11.5l-2.8-6.7
			l-1.1-7.8l-3.7-9L45.2,252.4z"/>
		<g transform="translate(74.168 92.849)">
			<g transform="translate(166.42 0)">
				<path class="st3" d="M-108.5,26.6l-6.9-12.8l-4.9,11.5l-0.9-0.4l5.7-13.4l7.9,14.5L-108.5,26.6z"/>
			</g>
			<g transform="translate(190.448 12.756)">
				<path class="st3" d="M-108.5,26.6l-6.9-12.8l-4.9,11.5l-0.9-0.4l5.7-13.4l7.9,14.5L-108.5,26.6z"/>
			</g>
			<g transform="translate(187.185 34.411)">
				<path class="st3" d="M-108.5,26.6l-6.9-12.8l-4.9,11.5l-0.9-0.4l5.7-13.4l7.9,14.5L-108.5,26.6z"/>
			</g>
			<g transform="translate(141.501 32.335)">
				<path class="st3" d="M-108.5,26.6l-6.9-12.8l-4.9,11.5l-0.9-0.4l5.7-13.4l7.9,14.5L-108.5,26.6z"/>
			</g>
			<g transform="translate(145.654 55.77)">
				<path class="st3" d="M-108.5,26.6l-6.9-12.8l-4.9,11.5l-0.9-0.4l5.7-13.4l7.9,14.5L-108.5,26.6z"/>
			</g>
			<g transform="translate(155.444 94.631)">
				<path class="st3" d="M-108.5,26.6l-6.9-12.8l-4.9,11.5l-0.9-0.4l5.7-13.4l7.9,14.5L-108.5,26.6z"/>
			</g>
			<g transform="translate(207.06 88.698)">
				<path class="st3" d="M-108.5,26.6l-6.9-12.8l-4.9,11.5l-0.9-0.4l5.7-13.4l7.9,14.5L-108.5,26.6z"/>
			</g>
			<g transform="translate(228.122 107.09)">
				<path class="st3" d="M-108.5,26.6l-6.9-12.8l-4.9,11.5l-0.9-0.4l5.7-13.4l7.9,14.5L-108.5,26.6z"/>
			</g>
			<g transform="translate(224.563 80.095)">
				<path class="st3" d="M-108.5,26.6l-6.9-12.8l-4.9,11.5l-0.9-0.4l5.7-13.4l7.9,14.5L-108.5,26.6z"/>
			</g>
			<g transform="translate(221.596 136.562)">
				<path class="st3" d="M-111.4,23.4l-5.3-9.8l-3.8,8.9l-0.7-0.3l4.4-10.3l6.1,11.1L-111.4,23.4z"/>
			</g>
			<g transform="translate(153.96 124.592)">
				<path class="st3" d="M-108.5,26.6l-6.9-12.8l-4.9,11.5l-0.9-0.4l5.7-13.4l7.9,14.5L-108.5,26.6z"/>
			</g>
			<g transform="translate(50.43 37.674)">
				<path class="st3" d="M-108.5,26.6l-6.9-12.8l-4.9,11.5l-0.9-0.4l5.7-13.4l7.9,14.5L-108.5,26.6z"/>
			</g>
			<g transform="translate(7.416 84.248)">
				<path class="st3" d="M-108.5,26.6l-6.9-12.8l-4.9,11.5l-0.9-0.4l5.7-13.4l7.9,14.5L-108.5,26.6z"/>
			</g>
			<g transform="translate(30.851 58.143)">
				<path class="st3" d="M-108.5,26.6l-6.9-12.8l-4.9,11.5l-0.9-0.4l5.7-13.4l7.9,14.5L-108.5,26.6z"/>
			</g>
			<g transform="translate(57.846 141.501)">
				<path class="st3" d="M-108.5,26.6l-6.9-12.8l-4.9,11.5l-0.9-0.4l5.7-13.4l7.9,14.5L-108.5,26.6z"/>
			</g>
			<g transform="translate(61.109 191.338)">
				<path class="st3" d="M-108.5,26.6l-6.9-12.8l-4.9,11.5l-0.9-0.4l5.7-13.4l7.9,14.5L-108.5,26.6z"/>
			</g>
			<g transform="translate(32.928 177.692)">
				<path class="st3" d="M-108.5,26.6l-6.9-12.8l-4.9,11.5l-0.9-0.4l5.7-13.4l7.9,14.5L-108.5,26.6z"/>
			</g>
			<g transform="translate(24.918 144.171)">
				<path class="st3" d="M-108.5,26.6l-6.9-12.8l-4.9,11.5l-0.9-0.4l5.7-13.4l7.9,14.5L-108.5,26.6z"/>
			</g>
			<g transform="translate(37.674 127.855)">
				<path class="st3" d="M-108.5,26.6l-6.9-12.8l-4.9,11.5l-0.9-0.4l5.7-13.4l7.9,14.5L-108.5,26.6z"/>
			</g>
			<g transform="translate(48.057 164.046)">
				<path class="st3" d="M-108.5,26.6l-6.9-12.8l-4.9,11.5l-0.9-0.4l5.7-13.4l7.9,14.5L-108.5,26.6z"/>
			</g>
			<g transform="translate(30.258 19.282)">
				<path class="st3" d="M-108.5,26.6l-6.9-12.8l-4.9,11.5l-0.9-0.4l5.7-13.4l7.9,14.5L-108.5,26.6z"/>
			</g>
			<g transform="translate(17.502 31.148)">
				<path class="st3" d="M-108.5,26.6l-6.9-12.8l-4.9,11.5l-0.9-0.4l5.7-13.4l7.9,14.5L-108.5,26.6z"/>
			</g>
			<g transform="translate(0 55.77)">
				<path class="st3" d="M-108.5,26.6l-6.9-12.8l-4.9,11.5l-0.9-0.4l5.7-13.4l7.9,14.5L-108.5,26.6z"/>
			</g>
			<g transform="translate(76.535 25.215)">
				<path class="st3" d="M-108.5,26.6l-6.9-12.8l-4.9,11.5l-0.9-0.4l5.7-13.4l7.9,14.5L-108.5,26.6z"/>
			</g>
			<g transform="translate(155.74 150.697)">
				<path class="st3" d="M-108.5,26.6l-6.9-12.8l-4.9,11.5l-0.9-0.4l5.7-13.4l7.9,14.5L-108.5,26.6z"/>
			</g>
			<g transform="translate(150.697 172.056)">
				<path class="st3" d="M-108.5,26.6l-6.9-12.8l-4.9,11.5l-0.9-0.4l5.7-13.4l7.9,14.5L-108.5,26.6z"/>
			</g>
			<g transform="translate(172.056 118.956)">
				<path class="st3" d="M-108.5,26.6l-6.9-12.8l-4.9,11.5l-0.9-0.4l5.7-13.4l7.9,14.5L-108.5,26.6z"/>
			</g>
			<g transform="translate(132.008 123.109)">
				<path class="st3" d="M-108.5,26.6l-6.9-12.8l-4.9,11.5l-0.9-0.4l5.7-13.4l7.9,14.5L-108.5,26.6z"/>
			</g>
			<g transform="translate(124.295 101.157)">
				<path class="st3" d="M-108.5,26.6l-6.9-12.8l-4.9,11.5l-0.9-0.4l5.7-13.4l7.9,14.5L-108.5,26.6z"/>
			</g>
		</g>
		<g transform="translate(71.861 104.534)">
			<path class="st0" d="M-9.4,19c-0.2,0-0.4,0-0.6,0l0.1-1c1.5,0.1,2.9-0.5,3.9-1.5c1-1.1,1.8-2.5,2.3-3.9l0.4-1.1l0.5,1.1
				c0.6,1.6,2.1,2.8,3.9,3.1c1.7,0.2,3.3-1,3.6-2.7l0.2-1.6l0.8,1.4c1.3,2.3,4,3.4,6.6,2.6l0.3,0.9c-1.4,0.5-3,0.4-4.4-0.2
				c-1.1-0.4-2-1.1-2.7-2C5,14.8,4.5,15.3,4,15.7c-0.9,0.6-1.9,1-3,0.9c-1.7-0.2-3.3-1.2-4.2-2.8c-0.5,1.2-1.2,2.3-2.1,3.3
				C-6.4,18.3-7.8,18.9-9.4,19z"/>
			<path class="st0" d="M3.9,34.1c-0.6,0-1.2-0.1-1.8-0.3c-1.1-0.4-2-1.2-2.5-2.2c-0.3,0.7-0.8,1.2-1.5,1.6c-1.1,0.8-2.4,1-3.7,0.6
				l0.3-0.9c1,0.3,2,0.1,2.8-0.5c0.8-0.5,1.4-1.4,1.5-2.4l0.2-4.2L0,29.9c0.3,1.3,1.2,2.5,2.5,3c1.3,0.5,2.7,0.3,3.8-0.5l0.6,0.8
				C6.1,33.7,5,34.1,3.9,34.1z"/>
			<path class="st0" d="M11.3,70.7c-0.9,0-1.8-0.2-2.7-0.6c-0.9-0.5-1.7-1.1-2.3-2c-0.2,0.4-0.5,0.8-0.9,1.2c-0.7,0.6-1.5,1-2.5,1
				c-1.1,0-2.1-0.5-2.9-1.4c-0.5-0.5-0.9-1.1-1.2-1.8c-0.5,0.8-1.2,1.5-2.1,2c-1.1,0.7-2.5,1-3.8,0.8l0.1-1c2.3,0.3,4.4-1,5.3-3.1
				l0.5-1.2l0.4,1.2C0,67.5,1.3,69.3,3,69.3c1.4-0.1,2.5-1.1,2.7-2.5l0.2-2l0.7,1.9c1,2.3,3.5,3.6,5.9,2.9l0.3,0.9
				C12.3,70.6,11.8,70.7,11.3,70.7z"/>
			<path class="st0" d="M-11.4,86.4c-1.6,0.1-3.2-0.6-4.2-1.9l0.8-0.6c1.2,1.6,3.6,1.8,5.4,1.2c1.9-0.9,3.6-2.2,5-3.8l0.7-0.7l0.1,1
				c0.2,1.8,1.7,3.2,3.5,3.5c1.8,0.1,3.5-1.1,4-2.8l0.2-0.7l0.6,0.5c1.4,1.2,3.3,1.7,5.2,1.4c1.8-0.4,3.4-1.6,4.3-3.2l0.9,0.4
				c-1,1.9-2.8,3.3-5,3.7c-1.9,0.3-3.9-0.1-5.5-1.2c-0.9,1.9-2.8,3-4.8,2.9c-1.1-0.1-2.2-0.6-2.9-1.4c-0.6-0.6-1-1.2-1.2-2
				c-1.3,1.4-2.9,2.6-4.7,3.4C-9.8,86.3-10.6,86.4-11.4,86.4z"/>
			<path class="st0" d="M-44.3,113.6c-0.4,0-0.8,0-1.2-0.1c-0.9-0.2-1.7-0.8-2.2-1.6l0.9-0.5c0.3,0.6,0.9,1,1.6,1.1
				c1.1,0.3,2.3,0.1,3.3-0.6c1.2-0.9,2.2-2,3.1-3.2c0.3-0.4,0.7-0.9,1-1.3l0.6-0.8l0.2,1c0.5,1.7,1.9,3.1,3.7,3.4
				c1.8,0.2,3.6-0.6,4.5-2.2l0.3-0.5l0.4,0.5c1.2,1.2,2.9,1.8,4.6,1.6c1.7-0.1,3.3-0.9,4.3-2.3l0.8,0.6c-1.2,1.6-3,2.5-5,2.7
				c-1.8,0.2-3.5-0.4-4.9-1.5c-1.2,1.6-3.2,2.4-5.1,2.1c-1.8-0.3-3.4-1.5-4.2-3.2c-0.1,0.2-0.3,0.4-0.4,0.6c-0.9,1.4-2,2.5-3.3,3.5
				C-42.3,113.3-43.3,113.6-44.3,113.6z"/>
			<path class="st0" d="M-89.7,112.3c-0.9,0-1.7-0.2-2.5-0.6l0.4-0.9c1.4,0.7,3,0.6,4.4-0.1c1.3-0.7,2.2-2.1,2.4-3.6l0.2-1.5
				l0.7,1.3c0.8,1.6,2.3,2.8,4.1,3.1c1,0.1,1.9-0.2,2.7-0.8c0.6-0.4,1-1.1,1.1-1.8l0.3-2.5l0.7,2.4c0.4,1.2,1.5,2.1,2.8,2.3
				c1.4,0.2,2.7,0,4-0.6l0.4,0.9c-1.4,0.6-3,0.9-4.5,0.6c-1.2-0.2-2.3-0.9-3-1.9c-0.3,0.5-0.6,0.9-1,1.2c-1,0.8-2.2,1.1-3.4,1
				c-1.7-0.3-3.2-1.2-4.2-2.6c-0.5,1.4-1.4,2.5-2.7,3.2C-87.8,112-88.7,112.3-89.7,112.3z"/>
			<path class="st0" d="M-23.3,126.5c-0.2,0-0.5,0-0.7-0.1c-1.4-0.4-2.5-1.3-3.1-2.6c-0.4,0.6-0.9,1.1-1.5,1.6c-0.9,0.7-2,1-3.2,0.9
				l0.1-1c1.9,0.1,3.5-1.1,4.1-2.8l0.4-1.6l0.5,1.6c0.4,1.4,1.4,2.6,2.8,3c0.7,0.1,1.5-0.1,2.1-0.5c0.4-0.3,0.7-0.8,0.7-1.4l0-2.3
				l1,2.1c0.8,1.6,2.7,2.3,4.3,1.6l0.4,0.9c-1,0.4-2.2,0.4-3.2,0c-0.7-0.2-1.2-0.6-1.7-1.2c-0.2,0.4-0.5,0.7-0.8,1
				C-21.7,126.2-22.5,126.5-23.3,126.5z"/>
			<path class="st0" d="M10.4,163.5c-0.5,0-1,0-1.5-0.2c-1.2-0.2-2.3-1-3-2c-0.9,1.1-2.3,1.7-3.7,1.5c-1.4-0.2-2.6-1.1-3.1-2.4
				c-1,1.2-2.7,2.7-4.8,2.2l0.3-0.9c1.9,0.5,3.7-1.6,4.3-2.6l0.7-1.1l0.2,1.3c0.2,1.3,1.2,2.4,2.6,2.6c1.3,0.1,2.6-0.6,3.2-1.8
				l0.5-1.3l0.4,1.4c0.4,1.2,1.4,2,2.7,2.2c1.3,0.2,2.6,0.1,3.9-0.3l0.2,0.9C12.4,163.4,11.4,163.5,10.4,163.5z"/>
			<path class="st0" d="M3.1,175.6c-0.9,0-1.8-0.3-2.5-0.8l0.6-0.8c1,0.7,2.3,0.8,3.4,0.3c1.1-0.6,1.8-1.7,1.9-2.9l0-1.5l0.8,1.2
				c0.6,1,1.5,1.9,2.5,2.6c1,0.6,2.2,0.7,3.2,0.2l0.5,0.9c-1.3,0.6-2.9,0.6-4.1-0.2c-0.8-0.5-1.6-1.2-2.1-1.9
				c-0.4,1.1-1.1,2-2.2,2.5C4.4,175.4,3.7,175.6,3.1,175.6z"/>
			<path class="st0" d="M16.5,208.9c-0.2,0-0.3,0-0.5,0c-1.6-0.2-2.9-1.2-3.6-2.6c-1,1.3-2.7,1.9-4.4,1.7c-1.5-0.3-2.8-1.4-3.3-2.8
				c-0.9,1.4-2.2,2.4-3.8,2.8c-2,0.5-4.2,0-5.8-1.3l0.6-0.7c1.4,1.1,3.2,1.6,5,1.1c1.7-0.5,3.1-1.8,3.8-3.4l0.8-2.2l0.1,2.4
				c0.1,1.6,1.3,2.9,2.9,3.3c1.6,0.3,3.2-0.6,3.9-2l0.6-1.3L13,205c0.4,1.5,1.6,2.6,3.1,2.8c1.5,0.2,3-0.7,3.7-2l0.3-0.6l0.5,0.5
				c1.7,1.6,4.3,1.7,6.2,0.3l0.6,0.7c-1.1,0.9-2.4,1.3-3.8,1.2c-1.2,0-2.3-0.5-3.2-1.2C19.5,208.1,18.1,208.8,16.5,208.9z"/>
			<path class="st0" d="M48.8,206.2c-0.5,0-1-0.2-1.4-0.6l0.7-0.7c0.5,0.6,1.7,0.1,2.3-0.3c2-1.3,3.7-3.1,4.9-5.1l0.6-1l0.3,1.1
				c0.4,1.5,1.8,2.4,3.3,2.4c1.5-0.1,2.7-1.3,3-2.8l0.2-1.1l0.7,0.8c1.7,1.8,4.5,2.1,6.5,0.6l0.6,0.8c-1.2,0.9-2.6,1.3-4.1,1.1
				c-1.2-0.1-2.3-0.6-3.2-1.3c-0.6,1.5-2,2.6-3.7,2.7c-1.6,0.1-3.1-0.8-3.9-2.2c-1.2,1.9-2.8,3.4-4.7,4.7
				C50.3,205.9,49.6,206.1,48.8,206.2z"/>
			<path class="st0" d="M65.3,186.2c-0.2,0-0.4,0-0.5,0l0.1-1c2.6,0.2,4.9-1.4,5.7-3.9L71,180l0.5,1.4c0.4,1.3,1.5,2.4,2.8,2.8
				c0.7,0.1,1.4-0.1,2-0.5c0.4-0.3,0.7-0.8,0.8-1.3l0.1-2.1l0.8,1.9c0.5,1.1,1.5,1.9,2.7,2c1.2,0.1,2.4-0.4,3.2-1.3l0.8,0.6
				c-1,1.2-2.5,1.8-4,1.7c-1.1-0.2-2.2-0.7-2.9-1.6c-0.2,0.4-0.5,0.7-0.8,0.9c-0.8,0.6-1.8,0.9-2.8,0.7c-1.3-0.3-2.4-1.2-3-2.3
				C69.9,184.9,67.7,186.2,65.3,186.2z"/>
			<path class="st0" d="M70.3,168.3l-0.2-1c1.9-0.3,3.5-1.6,4.3-3.3l0.4-0.9l0.5,0.8c0.6,1.2,1.7,2.2,3,2.6c1.2,0.4,2.5-0.2,3.1-1.4
				l0.3-0.9l0.6,0.7c0.7,0.9,1.8,1.5,3,1.7l-0.1,1c-1.2-0.1-2.3-0.7-3.1-1.5c-0.3,0.5-0.8,0.9-1.4,1.1c-0.8,0.3-1.7,0.4-2.5,0.2
				c-1.3-0.4-2.4-1.2-3.1-2.4c-0.4,0.7-1,1.3-1.6,1.8C72.4,167.6,71.4,168.1,70.3,168.3z"/>
			<path class="st0" d="M-119.7,125.4c-0.5,0-0.9-0.1-1.4-0.3l0.4-0.9c1,0.3,2.2,0.2,3.1-0.4c1-0.7,1.8-1.5,2.5-2.4l0.7-0.8l0.2,1
				c0.3,1.5,2,2.4,3.6,2.4c0.7,0.1,1.3-0.1,1.9-0.4c0.5-0.3,0.9-0.8,0.9-1.4l-0.2-2.2l1.1,1.9c0.6,1,1.6,1.7,2.7,2
				c1.1,0.3,2.3,0.2,3.3-0.4l0.5,0.8c-1.2,0.7-2.7,0.8-4.1,0.5c-1-0.3-1.9-0.8-2.6-1.5c-0.2,0.5-0.6,0.9-1.1,1.2
				c-0.8,0.4-1.6,0.6-2.5,0.5c-1.7,0-3.3-0.9-4.2-2.4c-0.6,0.8-1.4,1.4-2.2,2C-117.9,125.1-118.8,125.4-119.7,125.4z"/>
			<path class="st0" d="M75.8,73.1c-0.8,0-1.7-0.1-2.5-0.4l0.3-0.9c1.8,0.6,3.8,0.5,5.5-0.5c1.7-0.9,2.9-2.5,3.4-4.4l0.2-1.1
				l0.7,0.9c1.6,2.2,3.1,3.2,4.6,3.1c2.1-0.1,3.5-2.3,4.6-4.4l0.6-1.2l0.3,1.3c0.4,1.5,1.6,2.6,3.1,2.8c1.5,0.1,2.9-0.7,3.6-2.1
				l0.2-0.4l0.4,0.1l1.4,0.4l1.4,0.4l-0.2,0.9l-1.4-0.4l-1-0.3c-0.9,1.5-2.6,2.4-4.4,2.3C95,69,93.7,68,93,66.7
				c-0.4,0.8-1,1.6-1.6,2.3c-0.8,1-2,1.6-3.3,1.7c-1.1,0-2.2-0.4-3.1-1.1c-0.6-0.5-1.2-1-1.7-1.6c-0.7,1.8-1.9,3.2-3.6,4.1
				C78.5,72.7,77.2,73.1,75.8,73.1z"/>
		</g>
	</g>
</g>
<g id="表2" transform="matrix(0.995, 0.105, -0.105, 0.995, 502.919, 347.798)">
	<g transform="translate(15.794 0)">
		<path class="st4" d="M-92,2.8c0.8,7.7-4.8,14.7-12.5,15.5s-14.7-4.8-15.5-12.5c-0.8-7.7,4.8-14.7,12.5-15.5c0,0,0,0,0,0
			C-99.7-10.5-92.8-4.9-92,2.8C-92,2.8-92,2.8-92,2.8z"/>
		<path class="st4" d="M-4.8-6.4C-4,1.3-9.6,8.2-17.3,9.1S-32,4.3-32.8-3.5c-0.8-7.7,4.8-14.7,12.5-15.5c0,0,0,0,0,0
			C-12.6-19.8-5.6-14.2-4.8-6.4C-4.8-6.4-4.8-6.4-4.8-6.4z"/>
	</g>
	<g transform="translate(52.611 28.21)">
		<path class="st5" d="M-101.4,2.8c-4.5-0.8-9.2-0.4-13.6,1c4,5.3,10.1,9.4,18.3,8.7c3.3-0.3,6.5-1.2,9.3-2.9
			C-91.3,6.1-96.2,3.7-101.4,2.8z"/>
		<path class="st4" d="M-77.5-18.9c-6.4-1.4-12.7,13.1-19.4,13.9s-16.1-13.6-21.5-9.4c-3.1,2.4-1.7,11.3,3.5,18.2
			c4.4-1.4,9-1.7,13.6-1c5.2,0.9,10.1,3.3,14,6.8C-74,2-72.2-17.7-77.5-18.9z"/>
	</g>
	<g transform="translate(0 32.192)">
		<ellipse transform="matrix(-0.9944 0.106 -0.106 -0.9944 37.5956 -19.2742)" class="st5" cx="19.3" cy="-8.6" rx="14.1" ry="9"/>
		<path class="st5" d="M-120,6.2c0.5,4.9,7.2,8.2,14.9,7.4s13.6-5.5,13-10.4C-92.5-1.7-99.2-5-107-4.2S-120.5,1.3-120,6.2z"/>
	</g>
</g>
<g id="表情1" transform="matrix(0.995, 0.105, -0.105, 0.995, 502.919, 347.798)" class="st6">
	<g transform="translate(15.794 0)" class="st7">
		<path class="st4" d="M-91,12.3c-1.4,0.1-2.6-0.9-2.8-2.2c-0.8-6.7-6.8-11.4-13.5-10.6c-6.5,0.8-11.3,6.6-10.7,13.2
			c0.1,1.4-0.9,2.6-2.2,2.8s-2.6-0.9-2.8-2.2c-0.5-4.5,0.9-9,3.7-12.5c6-7.4,16.9-8.5,24.2-2.5c1.7,1.4,3.1,3,4.1,4.9
			c1.1,2,1.8,4.2,2,6.5C-88.6,11-89.6,12.2-91,12.3z"/>
		<path class="st4" d="M-3.8,3.2c-1.4,0.1-2.6-0.9-2.8-2.2c-0.8-6.7-6.8-11.4-13.5-10.6c-6.5,0.8-11.3,6.6-10.7,13.2
			c0.1,1.4-0.9,2.6-2.2,2.8s-2.6-0.9-2.8-2.2c-0.5-4.5,0.9-9,3.7-12.5c6-7.4,16.9-8.5,24.2-2.5c1.7,1.4,3.1,3,4.1,4.9
			c1.1,2,1.8,4.2,2,6.5C-1.5,1.8-2.5,3-3.8,3.2z"/>
		<path class="st4" d="M-84,22.9c1.4-0.1,2.6,0.9,2.8,2.2c0.3,3.3,2.7,6.3,6.7,8.4c9.9,4.6,21.5,3.3,30.2-3.2
			c3.4-2.9,5.1-6.3,4.8-9.6c-0.1-1.4,0.9-2.6,2.2-2.8c1.4-0.1,2.6,0.9,2.8,2.2c0.3,2.6-0.2,5.3-1.4,7.6c-1.2,2.4-3,4.6-5.1,6.3
			c-10.3,7.8-24.1,9.3-35.8,3.8c-2.4-1.2-4.6-3-6.3-5.1c-1.7-2.1-2.7-4.5-3-7.2C-86.3,24.3-85.3,23.1-84,22.9z"/>
	</g>
	<g transform="translate(0 32.192)" class="st7">
		<ellipse transform="matrix(-0.9944 0.106 -0.106 -0.9944 37.5956 -19.2742)" class="st5" cx="19.3" cy="-8.6" rx="14.1" ry="9"/>
		<path class="st5" d="M-120,6.2c0.5,4.9,7.2,8.2,14.9,7.4s13.6-5.5,13-10.4C-92.5-1.7-99.2-5-107-4.2S-120.5,1.3-120,6.2z"/>
	</g>
</g>
<g transform="translate(-37 -32.199)">
	<g transform="translate(361 208.976)">
		<g transform="translate(0 0)">
			<path class="st8" d="M132.8,464.7c-57.1,0-115.1-19.5-157.7-58.2l62.9-74.1c47,38.7,117.8,43.3,169.5,11.2
				c18.2,30.7,36.5,56.6,51.3,85.1C221.7,452.8,177.1,464.7,132.8,464.7z"/>
			<path class="st9" d="M265.2,421.9c-20.1-22.7-33-53.4-52.4-81.7c51.3-33.5,76.7-98.2,62.2-157.7c19.2-4.6,50.9-12.8,69.9-17.3
				c6.4-0.3,23.3-8.7,27.4-4.2C399,257.7,352.1,372.1,265.2,421.9z"/>
			<path class="st10" d="M-29.5,404.5c-80.9-62.8-110.3-182.7-70.1-276.4l91.5,36.8c-21.7,56.7-4.5,124.4,41.8,163.8
				C18.9,346.5-14.4,386.4-29.5,404.5L-29.5,404.5L-29.5,404.5z"/>
			<path class="st11" d="M273.3,176c-17.1-59.5-69.4-102.2-131.2-107c1.6-32.3,3.1-64.7,4.7-97.2C249.6-27.1,344.1,51.2,369.6,150
				C337.6,158.8,305.5,167.5,273.3,176L273.3,176z"/>
			<path class="st12" d="M-6.1,160c-28.7-11.2-57.6-22.4-86.9-33.5c-5.7-2.1-5.7-4.8-3.4-9.9C-70.9,56.9-21.1,7.9,39.9-15
				c30.2-12.6,62.6-15.8,95-16.4c10-1.2,4.1,13.7,4.9,19.4c-1.7,26.7-3,54-4.4,80.7C73.8,66.6,17.4,103-6.1,160L-6.1,160z"/>
		</g>
		<text transform="matrix(0.829 -0.5592 0.5592 0.829 0.531 91.1011)" class="st13 st14 st15">國小</text>
		<text transform="matrix(0.829 -0.5592 0.5592 0.829 6.123 99.3911)" class="st13 st14 st15">    </text>
		<text transform="matrix(0.7314 0.682 -0.682 0.7314 194.4127 32.6249)" class="st13 st14 st15">幼兒園</text>
		<text transform="matrix(-0.2419 -0.9703 0.9703 -0.2419 -29.617 318.9249)" class="st13 st14 st15">國高中</text>
		<text transform="matrix(-0.5 0.866 -0.866 -0.5 341.4319 211.1229)" class="st13 st14 st15">一般民眾</text>
		<text transform="matrix(-0.9877 -0.1564 0.1564 -0.9877 193.9309 405.6788)" class="st13 st14 st15">大專院校</text>
	</g>
</g>
<g>
	<g>
		<g>
			<path d="M352.3,414.5c-0.2-0.8,0.1-1.7,0.8-2.1l0.8-0.5c0.5-0.3,1.1-0.4,1.7-0.3c0.6,0.2,1,0.6,1.3,1.2
				c0.1,0.4,15.1,35.4,45.8,27.2c0.6-0.2,1.2,0,1.6,0.3c0.5,0.3,0.8,0.9,0.9,1.4l0.1,1c0.1,1-0.5,1.9-1.5,2.1
				c-34.9,9.3-51.3-29.6-51.5-30C352.3,414.7,352.3,414.6,352.3,414.5z"/>
		</g>
	</g>
	<path class="st16" d="M423.8,451.6c3.4-1.6,4.4-5,4-8.5c0.2-0.3,0.4-0.6,0.5-1c0.6-2.8,0.1-5.5-2.8-6.4c0-0.2,0.1-0.4,0.1-0.6
		c0.3-1.7-1-3.8-2.3-4.8c-0.9-0.8-2-0.9-3.2-1.1c-7.4-0.9-19.8,4.1-17,13.3c0,4.9,2.7,9.4,8.1,9c0,0,0.1,0,0.1,0
		c1.9,1.3,4.4,1,6.4,0C419.3,452.7,422.1,452.4,423.8,451.6z"/>
	<g>
		<g>
			<g id="XMLID_24_">
				<g>
					<path class="st16" d="M423.8,451.6c-1.7,0.8-4.6,1.2-6.1-0.2c0,0,0,0,0,0c0.4-0.2,0-0.8-0.4-0.6c-0.1,0-0.1,0-0.2,0.1
						c-0.1-0.1-0.2-0.3-0.3-0.5c0.2,0,0.5,0,0.7-0.1c1.2,2.1,4.9,1.2,6.6,0.3c2.5-1.3,3.1-4.2,3-6.8c0.2-0.2,0.4-0.5,0.6-0.7
						C428.2,446.6,427.3,450,423.8,451.6z"/>
					<path class="st16" d="M417.7,451.4c-2,1-4.5,1.3-6.4,0c0.3-0.1,0.3-0.7-0.1-0.6c-0.2,0-0.4,0-0.6,0c-0.1-0.1-0.3-0.3-0.4-0.4
						c-0.3-0.3,0.3-0.7,0.6-0.4c1.5,2,4.4,1.8,6.5,0.9C417.4,451.1,417.5,451.3,417.7,451.4z"/>
					<path class="st16" d="M417.8,451.4C417.7,451.4,417.7,451.4,417.8,451.4c-0.2-0.1-0.4-0.3-0.5-0.5c0.1,0,0.1,0,0.2-0.1
						C417.8,450.6,418.1,451.2,417.8,451.4z"/>
					<path class="st16" d="M419.8,449.5c-0.6,0.4-1.4,0.7-2.2,0.8c-0.1-0.1-0.1-0.3-0.2-0.5c0-0.1-0.1-0.1-0.1-0.2
						c0.5-0.1,1-0.2,1.5-0.4c1.4-0.5,1.1-2.1,0.5-3.2c-0.6-1.1-1.1-2.4-1.5-3.6c-0.4-1.2-0.4-3.8-1.5-4.5c-0.2-0.1-0.3-0.2-0.5-0.3
						l0,0c0.2,0.1,0.5,0,0.5-0.3c0-0.1,0-0.1,0-0.2c0.7,0.4,1.1,0.9,1.2,1.9c0.2,1.2,0.5,2.5,1,3.7c0,0,0,0-0.1,0
						c-0.4,0.1-0.2,0.7,0.2,0.7c0,0,0.1,0,0.1,0c0.3,0.9,0.8,1.8,1.2,2.6c0.1,0.2,0.2,0.3,0.3,0.5c-0.1,0-0.1,0-0.2,0
						c-0.4,0-0.4,0.7,0,0.7c0.1,0,0.3,0,0.4,0C420.9,448,420.8,448.8,419.8,449.5z"/>
					<path class="st16" d="M417.7,450.3c-0.2,0-0.5,0.1-0.7,0.1c-0.1-0.1-0.1-0.2-0.1-0.4c0-0.1,0-0.2,0.1-0.3c0.2,0,0.3,0,0.5-0.1
						c0.1,0,0.1,0.1,0.1,0.2C417.5,450,417.6,450.2,417.7,450.3z"/>
					<path class="st16" d="M416.8,450c0,0.1,0.1,0.3,0.1,0.4c-0.8,0-1.7-0.1-2.4-0.3c-1.3-0.4-2.6-1.4-3.6-2.6
						c0.1,0,0.2-0.1,0.4-0.2c0.1-0.1,0.2-0.2,0.2-0.3c1.2,1.5,3,2.6,4.7,2.7c0.2,0,0.4,0,0.6,0C416.8,449.8,416.8,449.9,416.8,450z"
						/>
					<path class="st16" d="M411.3,451.5c0,0-0.1,0-0.1,0c-5.3,0.5-8.1-4.1-8.1-9c0,0,0,0,0,0c0.1,0.4,0.6,0.3,0.7,0
						c0,4.3,2.2,8.4,6.8,8.3C410.8,451.1,411.1,451.3,411.3,451.5z"/>
					<path class="st16" d="M411.2,450.8c0.4,0,0.4,0.5,0.1,0.6c-0.2-0.2-0.5-0.4-0.7-0.6C410.8,450.8,411,450.8,411.2,450.8z"/>
					<path class="st16" d="M417.3,449.7c-0.1,0-0.3,0.1-0.5,0.1C417,449.6,417.2,449.6,417.3,449.7z"/>
					<path class="st16" d="M425.3,445.4c-1.4,1-3,1.8-4.7,1.8c-0.1-0.2-0.2-0.5-0.3-0.7c2.5,0.1,5-1.7,6.7-3.5
						c0.1-0.1,0.1-0.1,0.2-0.2c0,0.3,0.1,0.7,0.1,1C426.6,444.4,425.9,444.9,425.3,445.4z"/>
					<path class="st16" d="M420.6,447.2c-0.1,0-0.3,0-0.4,0c-0.4,0-0.5-0.7,0-0.7c0.1,0,0.1,0,0.2,0
						C420.4,446.7,420.5,446.9,420.6,447.2z"/>
					<path class="st16" d="M411.1,447.5c-0.8,0.3-1.9,0.5-2.5-0.1c-0.3-0.3,0.2-0.8,0.5-0.5c0.4,0.4,1.1,0.2,1.6,0.1
						C410.8,447.1,410.9,447.3,411.1,447.5z"/>
					<path class="st16" d="M411.4,447.3c-0.1,0-0.2,0.1-0.4,0.2c-0.1-0.2-0.3-0.4-0.4-0.6c0.2,0,0.3-0.1,0.4-0.2c0.1,0,0.2,0,0.3,0
						c0.1,0.1,0.1,0.2,0.2,0.3C411.6,447.2,411.5,447.3,411.4,447.3z"/>
					<path class="st16" d="M427.3,443.8c0-0.3,0-0.7-0.1-1c0.1-0.1,0.2-0.2,0.3-0.4c0.2,0,0.4,0.1,0.4,0.3c0,0.1,0,0.2,0,0.4
						C427.7,443.3,427.5,443.6,427.3,443.8z"/>
					<path class="st16" d="M427.9,443.1c0-0.1,0-0.2,0-0.4c0-0.2-0.2-0.3-0.4-0.3c1.3-2.1,0.2-5.4-2.1-6.1c0.1-0.2,0.1-0.4,0.2-0.7
						c2.9,0.9,3.5,3.6,2.8,6.4C428.3,442.4,428.1,442.8,427.9,443.1z"/>
					<path class="st16" d="M411.4,446.8c0.1,0.1,0.2,0.2,0.2,0.3C411.5,447,411.4,446.9,411.4,446.8z"/>
					<path class="st16" d="M411.1,446.8c-0.1,0.1-0.3,0.1-0.4,0.2c-0.5-0.8-0.9-1.7-1-2.7c0.3,0.1,0.6-0.4,0.2-0.6
						c-0.1-0.1-0.2-0.1-0.2-0.2c0-0.3,0.1-0.6,0.2-1c0.1-0.4,0.8-0.3,0.7,0.2c-0.5,1.4,0,2.9,0.9,4.1
						C411.3,446.7,411.2,446.7,411.1,446.8z"/>
					<path class="st16" d="M427.2,442.8C427.2,442.8,427.2,442.7,427.2,442.8c0-0.3,0.1-0.4,0.3-0.4
						C427.4,442.6,427.3,442.7,427.2,442.8z"/>
					<path class="st16" d="M418.8,443.3c0,0-0.1,0-0.1,0c-0.4,0.1-0.6-0.6-0.2-0.7c0,0,0,0,0.1,0
						C418.6,442.9,418.7,443.1,418.8,443.3z"/>
					<path class="st16" d="M425.3,436.3c-0.9,3.1-3.5,6.3-6.5,7.1c-0.1-0.2-0.2-0.4-0.2-0.6c3.3-0.8,5.4-4.3,6.3-7.4
						c0.5-1.8-1.1-4.1-2.6-5c-0.8-0.5-2-0.5-2.9-0.6c-3.7-0.3-8.8,0.9-12.3,3.5c-2.8,2.1-4.5,5.2-3.3,9c-0.1-0.3-0.7-0.3-0.7,0.1
						c0,0,0,0,0,0.1c-2.8-9.3,9.6-14.3,17-13.3c1.2,0.2,2.3,0.3,3.2,1.1c1.3,1,2.5,3.1,2.3,4.8c0,0.2-0.1,0.4-0.1,0.6
						c0,0-0.1,0-0.1,0c-0.4-0.1-0.6,0.5-0.2,0.7C425.2,436.2,425.3,436.3,425.3,436.3z"/>
					<path class="st16" d="M409.9,443.6c0.3,0.2,0.1,0.7-0.2,0.6c0-0.3,0-0.5,0-0.8C409.7,443.5,409.8,443.6,409.9,443.6z"/>
					<path class="st16" d="M409.6,444.3c0,0-0.1,0-0.1,0c-0.8-0.5-1.5-1.1-1.9-1.9c-0.2-0.4,0.4-0.8,0.6-0.4
						c0.3,0.6,0.8,1.2,1.4,1.5C409.6,443.7,409.6,444,409.6,444.3z"/>
					<path class="st16" d="M403.8,442.5c-0.1,0.3-0.6,0.4-0.7,0c0,0,0,0,0,0c0,0,0,0,0-0.1c0-0.4,0.6-0.5,0.7-0.1
						C403.8,442.4,403.8,442.4,403.8,442.5C403.8,442.5,403.8,442.5,403.8,442.5z"/>
					<path class="st16" d="M425.3,436.3c0,0-0.1,0-0.1,0c-0.4-0.1-0.3-0.8,0.2-0.7c0,0,0.1,0,0.1,0
						C425.5,435.8,425.4,436.1,425.3,436.3z"/>
					<path class="st16" d="M416.3,437.3c0,0.3-0.3,0.4-0.5,0.3c-0.1,0-0.2-0.1-0.2-0.3c0-0.1,0-0.3,0.1-0.4c0,0,0,0,0,0
						c0.2,0.1,0.4,0.2,0.6,0.3C416.4,437.2,416.3,437.3,416.3,437.3z"/>
					<path class="st16" d="M415.8,437.6L415.8,437.6c-0.7-0.3-1.6-0.5-2.4-0.6c-1.6-0.3-3.2-0.4-4.9-0.5c-0.4,0-0.5-0.6-0.1-0.7
						c0,0,0.1,0,0.1,0c2.4,0.1,4.9,0.2,7.2,1c0,0.1-0.1,0.3-0.1,0.4C415.6,437.5,415.7,437.6,415.8,437.6z"/>
					<path class="st16" d="M416.4,437.2c-0.2-0.1-0.4-0.2-0.6-0.3c0,0,0,0,0,0c0.1-0.2,0.1-0.4,0.2-0.6c0,0,0.1,0.1,0.1,0.1
						c0.3,0.3,0.8-0.2,0.5-0.5c-0.1-0.1-0.1-0.1-0.1-0.2c0.7-0.8,1.8-1.4,2.7-1.9c0.4-0.2,0.7,0.4,0.4,0.6c-0.5,0.2-0.9,0.5-1.3,0.8
						C417.5,435.6,416.5,436.3,416.4,437.2z"/>
					<path class="st16" d="M416.5,435.9c0.3,0.3-0.2,0.8-0.5,0.5c0,0-0.1-0.1-0.1-0.1c0.1-0.2,0.3-0.4,0.4-0.6
						C416.4,435.8,416.5,435.8,416.5,435.9z"/>
					<path class="st16" d="M416.4,435.7c-0.2,0.2-0.3,0.4-0.4,0.6c-0.4-0.5-0.3-1.3,0-1.9c0.2-0.4,0.8,0,0.6,0.3
						C416.4,435,416.3,435.4,416.4,435.7z"/>
				</g>
			</g>
		</g>
	</g>
</g>
<g>
	<g>
		<g>
			<path d="M548.9,460.9c0.8-0.2,1.4-0.9,1.5-1.8l0.1-0.9c0.1-0.6-0.2-1.2-0.6-1.6c-0.4-0.4-1-0.6-1.6-0.6
				c-0.4,0-38.3,4.1-46.1-26.7c-0.1-0.6-0.5-1-1.1-1.3c-0.5-0.3-1.1-0.3-1.7,0l-0.9,0.4c-0.9,0.4-1.4,1.4-1.2,2.3
				c8.9,35,50.9,30.3,51.3,30.2C548.8,461,548.9,461,548.9,460.9z"/>
		</g>
	</g>
	<path class="st16" d="M481.6,416.6c-0.3-3.8,2.3-6.3,5.5-7.7c0.2-0.3,0.4-0.6,0.7-0.9c2.1-1.9,4.8-2.8,7-0.7
		c0.1-0.1,0.3-0.3,0.4-0.4c1.3-1,3.8-1,5.3-0.3c1.1,0.5,1.8,1.3,2.5,2.3c4.4,6,6.1,19.3-3.3,21.3c-4.2,2.4-9.6,2.2-11.8-2.7
		c0,0,0-0.1,0-0.1c-2-1-3-3.4-3.1-5.6C482.9,421.1,481.8,418.5,481.6,416.6z"/>
	<g>
		<g>
			<g id="XMLID_1_">
				<g>
					<path class="st16" d="M481.6,416.6c0.1,1.9,1.2,4.6,3.1,5.3c0,0,0,0,0,0c0-0.4,0.7-0.4,0.7,0c0,0.1,0,0.1,0,0.2
						c0.2,0,0.4,0,0.6,0c-0.1-0.2-0.2-0.4-0.3-0.7c-2.4,0-3.5-3.7-3.5-5.6c0-2.8,2.2-4.7,4.5-5.9c0.1-0.3,0.2-0.6,0.3-0.9
						C483.9,410.3,481.4,412.8,481.6,416.6z"/>
					<path class="st16" d="M484.8,421.9c0.1,2.2,1.1,4.6,3.1,5.6c0-0.3,0.5-0.6,0.6-0.2c0.1,0.2,0.2,0.4,0.3,0.5
						c0.2,0.1,0.4,0.1,0.6,0.1c0.4,0.1,0.5-0.6,0-0.7c-2.5-0.4-3.7-2.9-3.9-5.2C485.2,422,485,421.9,484.8,421.9z"/>
					<path class="st16" d="M484.8,421.8C484.8,421.8,484.8,421.8,484.8,421.8c0.2,0.1,0.5,0.2,0.7,0.2c0-0.1,0-0.1,0-0.2
						C485.4,421.4,484.7,421.4,484.8,421.8z"/>
					<path class="st16" d="M485.4,419c-0.1,0.7,0,1.5,0.3,2.3c0.2,0,0.3,0,0.5-0.1c0.1,0,0.2,0,0.2,0c-0.2-0.5-0.3-1-0.4-1.5
						c-0.2-1.4,1.3-2,2.6-2c1.3,0,2.6-0.2,3.9-0.5c1.2-0.2,3.5-1.5,4.6-0.9c0.2,0.1,0.3,0.2,0.5,0.3l0,0c-0.2-0.1-0.2-0.4,0-0.6
						c0,0,0.1-0.1,0.1-0.1c-0.7-0.5-1.3-0.5-2.2-0.2c-1.2,0.4-2.4,0.7-3.7,0.9c0,0,0,0,0,0.1c0.1,0.4-0.5,0.6-0.7,0.1
						c0,0,0-0.1,0-0.1c-1,0.1-1.9,0.2-2.9,0.2c-0.2,0-0.4,0-0.6,0c0,0,0,0.1,0.1,0.1c0.2,0.4-0.4,0.7-0.6,0.3
						c-0.1-0.1-0.2-0.2-0.2-0.4C486.2,417.4,485.6,417.9,485.4,419z"/>
					<path class="st16" d="M485.8,421.3c0.1,0.2,0.2,0.5,0.3,0.7c0.1,0,0.3,0,0.4-0.1c0.1,0,0.2-0.1,0.2-0.2
						c-0.1-0.1-0.1-0.3-0.2-0.4c-0.1,0-0.1,0-0.2,0C486.1,421.3,485.9,421.3,485.8,421.3z"/>
					<path class="st16" d="M486.4,421.9c-0.1,0-0.3,0.1-0.4,0.1c0.4,0.7,0.9,1.4,1.4,1.9c1,0.9,2.5,1.6,4,1.8c0-0.1,0-0.3,0-0.4
						c0-0.2,0.1-0.2,0.2-0.3c-1.9-0.3-3.7-1.4-4.6-2.8c-0.1-0.2-0.2-0.4-0.3-0.5C486.6,421.8,486.6,421.9,486.4,421.9z"/>
					<path class="st16" d="M487.9,427.4c0,0,0,0.1,0,0.1c2.2,4.9,7.5,5.1,11.8,2.7c0,0,0,0,0,0c-0.4,0.1-0.5-0.4-0.3-0.6
						c-3.7,2.1-8.4,2.2-10.6-1.9C488.5,427.7,488.2,427.6,487.9,427.4z"/>
					<path class="st16" d="M488.5,427.2c-0.2-0.4-0.7-0.1-0.6,0.2c0.3,0.1,0.6,0.3,0.9,0.3C488.7,427.6,488.6,427.4,488.5,427.2z"/>
					<path class="st16" d="M486.5,421.3c0,0.1,0.1,0.3,0.2,0.4C486.7,421.6,486.6,421.4,486.5,421.3z"/>
					<path class="st16" d="M486.4,412.3c-0.2,1.7-0.1,3.5,0.7,5c0.2,0,0.5-0.1,0.7-0.1c-1.3-2.2-1-5.2-0.2-7.5
						c0-0.1,0.1-0.2,0.1-0.3c-0.3,0.1-0.6,0.3-0.9,0.4C486.5,410.6,486.5,411.6,486.4,412.3z"/>
					<path class="st16" d="M487.1,417.3c0.1,0.1,0.1,0.3,0.2,0.4c0.2,0.4,0.8,0.1,0.6-0.3c0,0-0.1-0.1-0.1-0.1
						C487.6,417.2,487.3,417.2,487.1,417.3z"/>
					<path class="st16" d="M491.5,425.7c0.1,0.9,0.5,1.9,1.3,2.1c0.4,0.1,0.6-0.5,0.2-0.7c-0.5-0.1-0.7-0.8-0.8-1.4
						C491.9,425.8,491.7,425.8,491.5,425.7z"/>
					<path class="st16" d="M491.4,425.4c0,0.1,0,0.3,0,0.4c0.2,0,0.5,0.1,0.7,0.1c0-0.2,0-0.3-0.1-0.4c0-0.1-0.1-0.2-0.2-0.3
						c-0.1,0-0.2,0-0.4,0C491.5,425.1,491.4,425.2,491.4,425.4z"/>
					<path class="st16" d="M486.8,409.8c0.3-0.1,0.6-0.3,0.9-0.4c0-0.1,0.1-0.3,0.2-0.4c-0.1-0.2-0.3-0.3-0.5-0.2
						c-0.1,0.1-0.2,0.1-0.3,0.1C487,409.2,486.9,409.5,486.8,409.8z"/>
					<path class="st16" d="M487.1,408.9c0.1,0,0.2-0.1,0.3-0.1c0.2-0.1,0.4,0,0.5,0.2c1.2-2.1,4.6-2.8,6.4-1.2
						c0.2-0.2,0.3-0.3,0.5-0.5c-2.2-2.1-4.9-1.3-7,0.7C487.5,408.3,487.3,408.6,487.1,408.9z"/>
					<path class="st16" d="M491.9,425.1c-0.1-0.1-0.3-0.1-0.4,0C491.7,425.1,491.8,425.1,491.9,425.1z"/>
					<path class="st16" d="M492.1,425.4c0,0.1,0,0.3,0.1,0.4c1,0.1,2,0,2.8-0.4c-0.2-0.2,0.1-0.7,0.4-0.5c0.1,0,0.2,0.1,0.3,0.1
						c0.3-0.2,0.5-0.4,0.7-0.6c0.3-0.3-0.2-0.8-0.5-0.5c-1,1.1-2.5,1.4-4,1.2C492,425.2,492.1,425.3,492.1,425.4z"/>
					<path class="st16" d="M487.7,409.4C487.7,409.4,487.7,409.4,487.7,409.4c0.2-0.1,0.3-0.3,0.2-0.4
						C487.8,409.1,487.8,409.2,487.7,409.4z"/>
					<path class="st16" d="M491.3,417c0,0,0,0.1,0,0.1c0.1,0.4,0.8,0.3,0.7-0.1c0,0,0,0,0-0.1C491.7,416.9,491.5,416.9,491.3,417z"
						/>
					<path class="st16" d="M494.3,407.8c-2.2,2.3-3.8,6.1-3,9.1c0.2,0,0.4-0.1,0.7-0.1c-0.9-3.3,1.1-6.8,3.4-9.1
						c1.3-1.3,4.1-1.1,5.6-0.2c0.8,0.5,1.4,1.5,1.9,2.2c2.1,3.1,3.5,8.2,2.9,12.4c-0.5,3.5-2.3,6.5-6.3,7.3c0.3-0.1,0.6,0.4,0.2,0.6
						c0,0,0,0,0,0c9.5-2.1,7.8-15.4,3.3-21.3c-0.7-1-1.4-1.8-2.5-2.3c-1.5-0.6-4-0.7-5.3,0.3c-0.1,0.1-0.3,0.2-0.4,0.4
						c0,0,0.1,0.1,0.1,0.1C495.2,407.7,494.7,408.2,494.3,407.8C494.3,407.9,494.3,407.8,494.3,407.8z"/>
					<path class="st16" d="M495.4,424.9c-0.3-0.2-0.7,0.3-0.4,0.5c0.2-0.1,0.5-0.2,0.7-0.4C495.6,425,495.5,424.9,495.4,424.9z"/>
					<path class="st16" d="M495,425.4C495,425.4,495,425.5,495,425.4c0.9,0.5,1.8,0.8,2.7,0.8c0.4,0,0.5-0.7,0-0.7
						c-0.7,0-1.4-0.2-2-0.5C495.5,425.2,495.2,425.3,495,425.4z"/>
					<path class="st16" d="M499.3,429.6c-0.2,0.2-0.1,0.7,0.3,0.6c0,0,0,0,0,0c0,0,0,0,0,0c0.4-0.2,0.1-0.7-0.2-0.6
						C499.4,429.6,499.4,429.6,499.3,429.6C499.4,429.6,499.3,429.6,499.3,429.6z"/>
					<path class="st16" d="M494.3,407.8C494.3,407.8,494.3,407.9,494.3,407.8c0.4,0.4,0.9-0.1,0.6-0.4c0,0-0.1-0.1-0.1-0.1
						C494.6,407.5,494.4,407.6,494.3,407.8z"/>
					<path class="st16" d="M497.8,416.2c-0.2,0.2-0.2,0.5,0,0.6c0.1,0.1,0.2,0.1,0.3,0c0.1-0.1,0.2-0.2,0.3-0.3c0,0,0,0,0,0
						c-0.2-0.2-0.4-0.3-0.5-0.4C497.9,416.1,497.8,416.1,497.8,416.2z"/>
					<path class="st16" d="M497.8,416.8L497.8,416.8c0.7,0.5,1.2,1.2,1.7,1.8c1,1.2,1.9,2.6,2.8,4c0.2,0.3,0.7,0.1,0.6-0.2
						c0,0,0-0.1,0-0.1c-1.2-2-2.6-4.1-4.4-5.8c-0.1,0.1-0.2,0.2-0.3,0.3C498,416.8,497.8,416.8,497.8,416.8z"/>
					<path class="st16" d="M497.9,416.1c0.2,0.1,0.3,0.2,0.5,0.4c0,0,0,0,0,0c0.2-0.1,0.3-0.3,0.4-0.5c0,0-0.1,0-0.1,0
						c-0.4-0.1-0.2-0.8,0.2-0.6c0.1,0,0.2,0,0.2,0c0.4-1,0.4-2.3,0.3-3.2c0-0.4-0.7-0.5-0.7,0c0,0.5,0,1,0,1.5
						C498.7,414.4,498.5,415.5,497.9,416.1z"/>
					<path class="st16" d="M498.9,415.3c-0.4-0.1-0.6,0.5-0.2,0.6c0,0,0.1,0,0.1,0c0.1-0.2,0.2-0.4,0.3-0.7
						C499.1,415.3,499,415.3,498.9,415.3z"/>
					<path class="st16" d="M499.1,415.3c-0.1,0.2-0.2,0.5-0.3,0.7c0.7,0.1,1.3-0.3,1.7-0.9c0.2-0.4-0.4-0.7-0.6-0.4
						C499.7,415,499.5,415.3,499.1,415.3z"/>
				</g>
			</g>
		</g>
	</g>
</g>
<g transform="translate(1027.587 325.051) rotate(137)" class="st6">
	<g class="st17">
		<path d="M675.3,751L675.3,751c-1.9,0-3.9-0.4-5.7-1.1c-0.7-0.3-1.3-0.7-1.8-1.1L560.7,535.4h0c-0.1-0.1-0.1-0.2-0.2-0.3
			c-0.4-0.8,0.3-2.2,2.1-3.8L545.2,498c-0.3,0.9-0.5,1.5-0.5,1.5s0,0,0-0.1c0-0.2,0.1-0.8,0.3-1.7l-0.2-0.3c0,0-0.1,0-0.1,0
			c-0.1,0.4-0.3,0.8-0.4,1.2l0,0c0,0,0,0,0-0.1c0-0.2,0.1-0.6,0.2-1.1c-0.8-0.2-1.5-0.5-2.3-0.7c-0.5-0.2-1-0.4-1.5-0.6
			c-0.4,1.3-0.7,2.3-0.8,2.6l0,0c0,0,0,0,0-0.1c0.1-0.3,0.2-1.3,0.5-2.7l0,0l0,0c0,0-0.1,0-0.1-0.1c0,0.1-0.1,0.2-0.1,0.3
			c0,0.1-0.1,0.2-0.1,0.3c-0.3,0.8-0.5,1.3-0.5,1.3c0,0,0,0,0-0.1c0-0.2,0.1-0.6,0.2-1.3c0-0.1,0-0.2,0.1-0.4l0,0
			c0-0.1,0-0.2,0.1-0.3c-0.2-0.1-0.3-0.2-0.5-0.3l0,0l0,0L539,495c-0.8-0.5-1.4-0.9-1.4-0.9l0,0h0c0.4,0.1,0.8,0.1,1.3,0.2l-0.1,0
			c-0.1-0.1-0.2-0.1-0.3-0.2c-0.5-0.3-0.9-0.6-1.3-1c0,0,0,0,0,0h0c0.1,0,0.2,0,0.4,0c-0.4-0.4-0.8-0.9-1.2-1.4l-0.1,0.2l0-0.3
			c-0.1-0.2-0.3-0.4-0.4-0.6l0,0l0,0v0v0c-0.1-0.2-0.2-0.3-0.3-0.5l-1.6-2.9l-0.2-0.1l0.1,0l-0.3-0.5c-8.9,3.3-18,5.9-27.3,7.6
			c-9.1,1.6-18.4,2.5-27.7,2.5c-27.7,0-54.9-7.3-78.8-21.2c-11.9-6.9-22.9-15.5-32.5-25.4c-9.9-10.2-18.2-21.7-24.8-34.2
			c-3.6-6.8-6.6-13.8-9-21.1c-5.1-14.8-7.7-30.4-7.7-46.1c0-15.3,2.5-30.6,7.5-45.1c4.9-14.6,12.2-28.3,21.5-40.6
			c9.6-12.7,21.2-23.8,34.3-32.8c6.4-4.5,13.2-8.4,20.2-11.8c10.8-5.3,22.1-9.3,33.8-11.9c11.4-2.6,23-3.9,34.6-3.9
			c27.7,0,54.9,7.3,78.8,21.2c11.9,6.9,22.9,15.5,32.5,25.4c9.9,10.2,18.2,21.7,24.8,34.2c8.7,16.4,14.1,34.4,15.9,52.9
			c0.9,8.9,0.9,17.9,0,26.8c-0.8,8.8-2.5,17.6-4.9,26.1c-10.2,35.4-33.4,65.6-64.9,84.6l1.3,2.3c0,0,0,0,0.1,0l-0.1,0l0.4,0.7
			c0.9,1.5,1.3,3.2,1.4,5c0.1,0,0.2,0.1,0.3,0.1l0,0l0.1,0c0.1,0,0.1,0.1,0.2,0.1c0.7,0.3,1.2,0.6,1.2,0.6l0,0c0,0,0,0-0.1,0
			c-0.2,0-0.6-0.2-1.2-0.3l-0.4-0.1c0,0.1,0,0.2,0,0.3v0c0,0,0,0.1,0,0.1c1.3,0.6,2.2,1,2.2,1l0,0c0,0-0.1,0-0.1,0
			c-0.3-0.1-1-0.3-2.1-0.6c-0.2,1.2-0.6,2.4-1.2,3.4c0.3,0.2,0.7,0.3,1,0.5c0.9,0.4,1.4,0.7,1.4,0.7l0,0c0,0,0,0-0.1,0
			c-0.2-0.1-0.7-0.2-1.4-0.4l-0.3-0.1l-0.1,0c-0.2-0.1-0.5-0.2-0.8-0.2l-0.1,0.1l0,0c0,0.1-0.1,0.1-0.1,0.2c1.9,0.8,3.1,1.4,3.3,1.5
			h0l0,0c0,0,0,0-0.1,0c-1-0.3-2.1-0.6-3.1-1l18.4,35c0.7-0.1,1.5-0.2,2.2-0.2c1.2,0,2,0.3,2.2,0.8v0c0,0.1,0.1,0.2,0.1,0.3v0
			l114.9,209.6c0.1,1.6-0.2,3.3-1,4.8c-0.9,1.8-2.1,3.3-3.5,4.6c-2.3,2-4.8,3.7-7.5,5C683.4,749.7,679.4,750.8,675.3,751z
			 M460.1,212.9c-71.1,0-129,57.6-129,128.5s57.9,128.5,129,128.5c71.1,0,129-57.6,129-128.5C589.1,270.5,531.3,212.9,460.1,212.9z"
			/>
		<path d="M675.3,751.5L675.3,751.5c-2,0-4-0.4-5.9-1.2c-0.7-0.3-1.4-0.7-1.9-1.2l-0.1-0.1l0-0.1L560.3,535.6
			c-0.1-0.1-0.1-0.2-0.2-0.3c-0.5-1,0.2-2.4,2-4.1l-16.7-31.9c-0.1,0.2-0.1,0.3-0.1,0.3l-0.5,2l-0.4-1.7l-0.1,0.3l-0.4-1.6
			c0-0.1,0-0.2,0-0.3l0-0.1c0-0.1,0-0.4,0.1-0.6c-0.6-0.2-1.3-0.4-1.9-0.6h0c-0.3-0.1-0.7-0.3-1-0.4c-0.2,0.7-0.5,1.4-0.7,2.1v0
			l-0.6,1.6l-0.3-1.4l0,0l-0.4-1.2c0-0.1,0-0.2,0-0.3c0.1-0.5,0.1-1,0.2-1.3v0c0-0.1,0-0.2,0.1-0.3l0,0l-0.2-0.1l-0.1,0l-0.2-0.1
			l0,0c-0.5-0.3-1-0.6-1.4-0.9l-0.7-0.5l0.5-0.3c-0.2-0.1-0.3-0.2-0.3-0.3l-0.3-0.3l0.2-0.3c0,0-0.1-0.1-0.1-0.1l-1.3,4l0.1-1.1
			v-4.6c-0.1-0.1-0.2-0.3-0.3-0.4l-1.5-2.7l-0.4-0.2c-8.7,3.2-17.6,5.7-26.8,7.3c-9.2,1.6-18.5,2.5-27.8,2.5c-27.8,0-55-7.3-79-21.2
			c-12-7-22.9-15.5-32.6-25.4c-9.9-10.2-18.3-21.8-24.9-34.3c-3.6-6.8-6.6-13.9-9.1-21.2c-5.1-14.9-7.8-30.5-7.7-46.3
			c0-15.4,2.6-30.7,7.5-45.2c5-14.7,12.2-28.4,21.5-40.8c9.6-12.8,21.3-23.9,34.4-32.9c6.4-4.5,13.2-8.4,20.2-11.9
			c10.8-5.3,22.2-9.3,33.9-12c11.4-2.6,23-3.9,34.7-3.9c27.8,0,55,7.3,79.1,21.2c12,7,23,15.5,32.6,25.4
			c9.9,10.2,18.3,21.8,24.9,34.4c8.7,16.5,14.1,34.5,15.9,53.1c0.9,8.9,0.9,17.9,0,26.9c-0.8,8.9-2.5,17.6-4.9,26.2
			c-10.2,35.3-33.3,65.5-64.7,84.7l1,1.7l2.6,1.3l-2-0.3c0.8,1.4,1.2,3,1.3,4.7l0.1,0c0.1,0,0.1,0.1,0.2,0.1
			c0.7,0.4,1.2,0.6,1.2,0.6l1.6,0.9h-1.2l0.1,0l1.6,0.9h-1.9c-0.1,0-0.2,0-0.3-0.1c-0.5-0.1-1-0.3-1.5-0.5c-0.2,0.9-0.5,1.8-0.9,2.6
			l0.6,0.3c0.8,0.4,1.4,0.7,1.5,0.7l1.4,0.9h-1.1l0,0l0,0l1.9,0.9h-2.1c-0.1,0-0.2,0-0.3-0.1c-0.6-0.2-1.3-0.4-2-0.6l17.6,33.6
			c0.6-0.1,1.3-0.2,2-0.2c1.4,0,2.3,0.4,2.7,1.1l0.1,0.1v0c0,0.1,0.1,0.1,0.1,0.2l0,0l114.9,209.6l0,0.1c0.1,1.7-0.2,3.5-1.1,5
			c-0.9,1.8-2.1,3.4-3.6,4.8c-2.3,2.1-4.9,3.8-7.7,5.1C683.6,750.2,679.5,751.3,675.3,751.5z M668.3,748.4c0.5,0.4,1,0.7,1.6,1
			c1.7,0.8,3.6,1.1,5.4,1.1l0,0c4-0.2,8-1.2,11.5-3.1c2.7-1.3,5.2-2.9,7.4-4.9c1.4-1.3,2.6-2.8,3.4-4.5c0.7-1.3,1-2.9,1-4.4
			L583.8,524v-0.1c0-0.1,0-0.1-0.1-0.2c-0.2-0.3-0.8-0.5-1.8-0.5c-0.7,0-1.4,0.1-2.1,0.2l-0.4,0.1l-0.2-0.3l-18.6-35.5l-0.1-0.1
			l0.1-0.1l-0.3-0.5l0.5,0.2l0-0.1c0-0.1,0.1-0.1,0.1-0.2l0,0l0,0l0,0l0.1-0.2l0.1-0.2c0.6-1,1-2.1,1.2-3.3l0-0.2l0-0.1
			c0,0,0-0.1,0-0.1v0c0-0.1,0-0.2,0-0.2v-0.4c0-1.7-0.5-3.3-1.3-4.7l-0.8-1.5l0,0l-1-1.9l0.4-0.2c31.4-19,54.4-49.1,64.6-84.4
			c2.4-8.5,4.1-17.2,4.9-26c0.8-8.9,0.8-17.8,0-26.7c-1.8-18.4-7.2-36.3-15.8-52.7c-6.6-12.5-14.9-24-24.7-34.1
			c-9.6-9.9-20.5-18.4-32.4-25.3c-23.9-13.8-51-21.1-78.6-21.1c-11.6,0-23.2,1.3-34.5,3.9c-11.6,2.7-22.9,6.6-33.7,11.9
			c-7,3.4-13.7,7.4-20.1,11.8c-13.1,9-24.7,20-34.2,32.6c-9.3,12.3-16.5,25.9-21.4,40.5c-4.9,14.5-7.4,29.6-7.4,44.9
			c0,15.6,2.6,31.2,7.7,45.9c2.4,7.2,5.5,14.3,9,21c6.6,12.5,14.9,24,24.7,34.1c9.6,9.9,20.5,18.4,32.4,25.3
			c23.9,13.8,51,21.1,78.5,21.1c9.3,0,18.5-0.8,27.6-2.5c8.8-1.6,17.4-3.9,25.7-7l-2.1-1.1l3,0.7l0.6-0.2l0.4-0.2l0.5,0.9l1.6,2.9
			c0,0,0,0.1,0.1,0.1l0.2,0.3l0.1,0.1l0.1,0.1v0c0.1,0.2,0.2,0.4,0.4,0.5l0.1,0.2l0,0c0.3,0.4,0.7,0.9,1,1.2l0.9,0.9
			c0.1,0,0.1,0.1,0.2,0.1l0.1,0.1l2.6,1.5l-1.4-0.3l0,0l0.5,0.2l0,0l0,0c0.6,0.2,1,0.5,1.5,0.6c0.6,0.2,1.3,0.5,2,0.7l0-0.1l0.4,0.2
			l0.1,0l0.1,0l0-0.2l18.2,34.7l-0.3,0.3c-1.8,1.7-2.3,2.7-2,3.2l0,0c0,0,0,0,0.1,0.1l0,0l0.1,0.1L668.3,748.4z M460.1,470.4
			c-71.4,0-129.5-57.9-129.5-129s58.1-129,129.5-129c71.4,0,129.5,57.9,129.5,129C589.6,412.5,531.5,470.4,460.1,470.4z
			 M460.1,213.4c-70.9,0-128.5,57.4-128.5,128s57.6,128,128.5,128c70.9,0,128.5-57.4,128.5-128C588.6,270.8,531,213.4,460.1,213.4z"
			/>
	</g>
	<g transform="translate(258.029 94.976)" class="st7">
		<g transform="translate(191.101 254.615)">
			
				<linearGradient id="SVGID_1_" gradientUnits="userSpaceOnUse" x1="492.0859" y1="-52.0608" x2="492.9189" y2="-52.0608" gradientTransform="matrix(-24.4917 -22.2378 -22.8388 23.8472 13580.9043 12303.4932)">
				<stop  offset="0" style="stop-color:#464646"/>
				<stop  offset="5.200000e-02" style="stop-color:#767676"/>
				<stop  offset="0.104" style="stop-color:#9F9F9F"/>
				<stop  offset="0.146" style="stop-color:#B9B9B9"/>
				<stop  offset="0.17" style="stop-color:#C3C3C3"/>
				<stop  offset="0.252" style="stop-color:#777777"/>
				<stop  offset="0.348" style="stop-color:#232323"/>
				<stop  offset="0.426" style="stop-color:#1F1F1F"/>
				<stop  offset="0.45" style="stop-color:#1D1D1D"/>
				<stop  offset="0.471" style="stop-color:#232323"/>
				<stop  offset="0.501" style="stop-color:#363636"/>
				<stop  offset="0.536" style="stop-color:#555555"/>
				<stop  offset="0.576" style="stop-color:#7F7F7F"/>
				<stop  offset="0.616" style="stop-color:#B3B3B3"/>
				<stop  offset="0.745" style="stop-color:#FFFFFF"/>
				<stop  offset="0.779" style="stop-color:#C9C9C9"/>
				<stop  offset="0.812" style="stop-color:#9C9C9C"/>
				<stop  offset="0.842" style="stop-color:#7C7C7C"/>
				<stop  offset="0.867" style="stop-color:#686868"/>
				<stop  offset="0.884" style="stop-color:#616161"/>
				<stop  offset="0.912" style="stop-color:#666666"/>
				<stop  offset="0.949" style="stop-color:#777777"/>
				<stop  offset="0.992" style="stop-color:#929292"/>
				<stop  offset="1" style="stop-color:#999999"/>
			</linearGradient>
			<path class="st18" d="M84.9,132.8c8.4-4.4,10.5-10,7.4-15.8l-7.5-14.2c-1.4,3.6-4.7,7.1-10.4,10.1c-5.7,3-10.5,3.8-14.2,2.9
				l7.5,14.2C70.7,135.8,76.5,137.2,84.9,132.8z"/>
			
				<radialGradient id="SVGID_00000132051580878944689890000016172653045172816002_" cx="549.2051" cy="2.3185" r="1.041" gradientTransform="matrix(-23.0311 -23.0741 -23.0794 23.0228 12813.79 12758.1885)" gradientUnits="userSpaceOnUse">
				<stop  offset="0.511" style="stop-color:#FFFFFF"/>
				<stop  offset="0.547" style="stop-color:#F6F6F6"/>
				<stop  offset="0.604" style="stop-color:#DEDEDE"/>
				<stop  offset="0.676" style="stop-color:#B8B8B8"/>
				<stop  offset="0.759" style="stop-color:#838383"/>
				<stop  offset="0.851" style="stop-color:#404040"/>
				<stop  offset="0.886" style="stop-color:#252525"/>
			</radialGradient>
			<path style="opacity:0.6;fill:url(#SVGID_00000132051580878944689890000016172653045172816002_);enable-background:new    ;" d="
				M84.9,132.8c8.4-4.4,10.5-10,7.4-15.8l-7.5-14.2c-1.4,3.6-4.7,7.1-10.4,10.1c-5.7,3-10.5,3.8-14.2,2.9l7.5,14.2
				C70.7,135.8,76.5,137.2,84.9,132.8z"/>
			<g>
				<defs>
					<path id="SVGID_00000076594017289442858020000006438382720994330754_" d="M84.9,132.8c8.4-4.4,10.5-10,7.4-15.8l-7.5-14.2
						c-1.4,3.6-4.7,7.1-10.4,10.1c-5.7,3-10.5,3.8-14.2,2.9l7.5,14.2C70.7,135.8,76.5,137.2,84.9,132.8z"/>
				</defs>
				<clipPath id="SVGID_00000148641960490244082240000017558815004888419727_">
					<use xlink:href="#SVGID_00000076594017289442858020000006438382720994330754_"  style="overflow:visible;"/>
				</clipPath>
				<g style="clip-path:url(#SVGID_00000148641960490244082240000017558815004888419727_);">
					<g transform="translate(1.172 1.938)">
						<path class="st21" d="M87.7,108.9c-0.5-0.1-1-0.2-1.5-0.3c-1.1-0.3-2.2-0.6-3.3-1c-1.1-0.4-2.1-0.9-3.1-1.5
							c-0.5-0.3-0.9-0.5-1.3-0.9c0,0,0.6,0.1,1.5,0.3c1.1,0.3,2.2,0.6,3.2,1c1.1,0.4,2.1,0.9,3.1,1.5
							C86.8,108.3,87.3,108.6,87.7,108.9z"/>
						<path class="st21" d="M91.2,115.3c0,0-1.2-0.3-3-0.9c-1.8-0.6-4.1-1.4-6.5-2.3c-2.3-0.9-4.6-1.9-6.3-2.7s-2.8-1.4-2.8-1.4
							s1.2,0.3,3,0.9s4.1,1.4,6.5,2.3s4.6,1.9,6.3,2.7C90.1,114.7,91.2,115.3,91.2,115.3z"/>
						<path class="st21" d="M94.5,121.7c0,0-1.8-0.5-4.3-1.4c-1.3-0.5-2.8-1-4.4-1.6s-3.3-1.2-5-1.9c-1.7-0.7-3.4-1.3-4.9-2
							c-1.6-0.7-3-1.3-4.3-1.9c-2.5-1.1-4.1-1.9-4.1-1.9s1.8,0.5,4.3,1.4c1.3,0.5,2.8,1,4.4,1.5c1.6,0.6,3.3,1.2,5,1.9
							c1.7,0.7,3.4,1.3,4.9,2s3,1.3,4.3,1.9C92.8,120.8,94.5,121.7,94.5,121.7z"/>
						<path class="st21" d="M93.9,126.5c0,0-2.1-0.6-5.1-1.7c-1.5-0.6-3.3-1.2-5.2-1.9c-1.9-0.7-3.9-1.5-5.9-2.3
							c-2-0.8-4-1.6-5.9-2.4c-1.9-0.8-3.6-1.6-5.1-2.2c-3-1.3-4.9-2.3-4.9-2.3s2.1,0.6,5.1,1.7c1.5,0.5,3.3,1.2,5.2,1.9
							c1.9,0.7,3.9,1.5,5.9,2.3c2,0.8,4,1.6,5.9,2.4s3.6,1.6,5.1,2.2C92,125.6,93.9,126.5,93.9,126.5z"/>
						<path class="st21" d="M88.6,129.5c0,0-1.8-0.5-4.3-1.4c-1.3-0.5-2.8-1-4.4-1.5s-3.3-1.2-5-1.9c-1.7-0.7-3.4-1.3-4.9-2
							c-1.6-0.7-3-1.3-4.3-1.9c-2.5-1.1-4.1-1.9-4.1-1.9s1.8,0.5,4.3,1.4c1.3,0.5,2.8,1,4.4,1.5s3.3,1.2,5,1.9
							c1.7,0.7,3.4,1.4,4.9,2s3,1.3,4.3,1.9C86.9,128.6,88.6,129.5,88.6,129.5z"/>
						<path class="st21" d="M83.3,132.5c0,0-1.2-0.3-3-0.9s-4.1-1.4-6.4-2.3s-4.6-1.9-6.3-2.7s-2.8-1.4-2.8-1.4s1.2,0.3,3,0.9
							s4.1,1.4,6.4,2.3c2.3,0.9,4.6,1.9,6.3,2.7C82.2,131.8,83.3,132.5,83.3,132.5z"/>
						<path class="st21" d="M77.5,135.2c-0.5-0.1-1-0.2-1.5-0.3c-2.2-0.5-4.3-1.4-6.3-2.5c-0.5-0.3-0.9-0.5-1.3-0.9
							c0.5,0.1,1,0.2,1.5,0.3c2.2,0.5,4.3,1.4,6.3,2.5C77,134.8,77.5,135.2,77.5,135.2z"/>
						<path class="st21" d="M60.3,117.8c-0.1-0.3-0.1-0.5-0.1-0.8c0-0.5,0-1.1,0.2-1.6c0.1-0.5,0.3-1,0.6-1.5
							c0.1-0.2,0.3-0.4,0.5-0.6c0.1,0.3,0.1,0.5,0.1,0.8c0,0.5,0,1.1-0.2,1.6c-0.1,0.5-0.3,1-0.6,1.5
							C60.6,117.4,60.4,117.6,60.3,117.8z"/>
						<path class="st21" d="M63.8,123.3c0,0,0-0.8,0.1-1.9c0.2-1.4,0.4-2.8,0.8-4.1c0.3-1.4,0.7-2.7,1.2-4c0.4-1.1,0.7-1.8,0.7-1.8
							s0,0.8-0.1,1.9c-0.2,1.4-0.4,2.8-0.8,4.1c-0.3,1.4-0.7,2.7-1.2,4C64.1,122.6,63.8,123.3,63.8,123.3z"/>
						<path class="st21" d="M67.1,129.6c0,0,0.2-1.4,0.5-3.4c0.2-1,0.4-2.2,0.6-3.4s0.6-2.6,0.9-3.9c0.3-1.3,0.6-2.6,1-3.9
							c0.3-1.2,0.7-2.4,1-3.4c0.6-2,1.1-3.2,1.1-3.2s-0.1,1.4-0.5,3.4c-0.2,1-0.4,2.2-0.7,3.4c-0.3,1.2-0.6,2.6-0.9,3.9
							c-0.3,1.3-0.7,2.6-1,3.9s-0.7,2.4-1,3.3C67.6,128.3,67.1,129.6,67.1,129.6z"/>
						<path class="st21" d="M70.5,135.9c0,0,0.3-1.9,0.8-4.8c0.3-1.4,0.6-3.1,1-4.9s0.8-3.7,1.3-5.6c0.5-1.9,0.9-3.8,1.4-5.5
							c0.5-1.8,0.9-3.4,1.3-4.8c0.8-2.8,1.4-4.7,1.4-4.7s-0.3,1.9-0.8,4.8c-0.3,1.4-0.6,3.1-1,4.9c-0.4,1.8-0.8,3.7-1.3,5.6
							c-0.5,1.9-0.9,3.8-1.4,5.5c-0.5,1.8-0.9,3.4-1.3,4.8C71.1,134,70.5,135.9,70.5,135.9z"/>
						<path class="st21" d="M75.1,136.8c0,0,0.3-2.2,1-5.4c0.3-1.6,0.7-3.5,1.1-5.5s0.9-4.1,1.4-6.3c0.5-2.1,1-4.3,1.6-6.2
							c0.5-2,1-3.8,1.5-5.4c0.9-3.2,1.6-5.2,1.6-5.2s-0.3,2.2-1,5.4c-0.3,1.6-0.7,3.5-1.2,5.5c-0.4,2-0.9,4.1-1.4,6.3
							s-1,4.3-1.6,6.2c-0.5,2-1,3.8-1.5,5.4C75.7,134.8,75.1,136.8,75.1,136.8z"/>
						<path class="st21" d="M80.7,133.6c0,0,0.2-1.7,0.7-4.2c0.3-1.2,0.5-2.7,0.8-4.2s0.7-3.2,1.1-4.8s0.8-3.3,1.2-4.8
							c0.4-1.5,0.8-2.9,1.2-4.1c0.7-2.4,1.3-4,1.3-4s-0.2,1.7-0.7,4.2c-0.2,1.2-0.5,2.7-0.8,4.2s-0.7,3.2-1.1,4.8
							c-0.4,1.6-0.8,3.3-1.2,4.8c-0.4,1.5-0.8,2.9-1.2,4.1C81.2,132,80.7,133.6,80.7,133.6z"/>
						<path class="st21" d="M86.2,131c0,0,0.1-1.1,0.3-2.8c0.2-1.6,0.7-3.8,1.2-5.9s1.1-4.3,1.6-5.8c0.5-1.6,1-2.6,1-2.6
							s-0.1,1.1-0.3,2.7s-0.7,3.8-1.2,5.9s-1.1,4.3-1.6,5.8C86.6,129.9,86.2,131,86.2,131z"/>
					</g>
					<g transform="translate(0.632 0.984)">
						<path class="st22" d="M87.8,108.9c-0.5,0-1.1-0.1-1.6-0.2c-1.1-0.2-2.2-0.5-3.3-1c-1.1-0.4-2.1-0.9-3-1.5
							c-0.5-0.3-0.9-0.6-1.3-0.9c0.5,0,1.1,0.1,1.6,0.2c1.1,0.2,2.2,0.5,3.3,1c1.1,0.4,2.1,0.9,3.1,1.5
							C87,108.2,87.4,108.5,87.8,108.9z"/>
						<path class="st22" d="M91.4,115.3c0,0-1.2-0.2-3.1-0.8c-1.8-0.5-4.2-1.3-6.5-2.2s-4.6-1.9-6.3-2.8s-2.7-1.5-2.7-1.5
							s1.2,0.2,3,0.8s4.2,1.3,6.5,2.2c2.3,0.9,4.6,1.9,6.3,2.8C90.3,114.7,91.4,115.3,91.4,115.3z"/>
						<path class="st22" d="M94.6,121.7c0,0-0.4-0.1-1.2-0.3c-0.8-0.2-1.9-0.5-3.2-1c-2.6-0.8-6-2.1-9.4-3.4s-6.7-2.8-9.2-3.9
							c-1.2-0.6-2.2-1.1-3-1.5s-1.1-0.6-1.1-0.6s0.4,0.1,1.2,0.3s1.9,0.5,3.2,0.9c2.6,0.8,6,2,9.4,3.4c3.4,1.3,6.7,2.8,9.2,4
							c1.2,0.6,2.2,1.1,3,1.5C94.2,121.4,94.6,121.7,94.6,121.7z"/>
						<path class="st22" d="M94.1,126.5c0,0-0.5-0.1-1.4-0.4c-0.9-0.3-2.2-0.7-3.8-1.2c-3.1-1-7.1-2.5-11.2-4.1c-4-1.6-8-3.3-11-4.6
							c-1.5-0.7-2.7-1.3-3.5-1.7c-0.9-0.4-1.3-0.7-1.3-0.7s0.5,0.1,1.4,0.4c0.9,0.3,2.2,0.7,3.7,1.2c3.1,1,7.2,2.5,11.2,4.1
							s8,3.3,11,4.7c1.5,0.7,2.7,1.3,3.6,1.7C93.6,126.3,94.1,126.5,94.1,126.5z"/>
						<path class="st22" d="M88.7,129.5c0,0-0.4-0.1-1.2-0.3s-1.9-0.5-3.2-1c-2.6-0.8-6-2-9.4-3.4c-3.4-1.3-6.7-2.8-9.2-3.9
							c-1.2-0.6-2.2-1.1-3-1.5c-0.7-0.4-1.1-0.6-1.1-0.6s0.4,0.1,1.2,0.3s1.9,0.5,3.2,0.9c2.6,0.8,6,2.1,9.4,3.4
							c3.4,1.3,6.7,2.8,9.2,3.9c1.2,0.6,2.2,1.1,3,1.5C88.3,129.2,88.7,129.5,88.7,129.5z"/>
						<path class="st22" d="M83.4,132.4c0,0-1.2-0.2-3-0.8c-1.8-0.5-4.2-1.3-6.5-2.2s-4.6-1.9-6.2-2.8s-2.7-1.5-2.7-1.5
							s1.2,0.2,3,0.8c1.8,0.5,4.1,1.3,6.5,2.2c2.3,0.9,4.6,1.9,6.2,2.8C82.3,131.8,83.4,132.4,83.4,132.4z"/>
						<path class="st22" d="M77.6,135.2c-0.5,0-1.1-0.1-1.6-0.2c-2.2-0.4-4.4-1.3-6.3-2.5c-0.4-0.3-0.9-0.6-1.3-0.9
							c0.5,0,1.1,0.1,1.6,0.2c1.1,0.2,2.2,0.5,3.3,1c1,0.4,2.1,0.9,3,1.5C76.8,134.6,77.2,134.9,77.6,135.2z"/>
						<path class="st22" d="M60.4,117.9c-0.1-0.3-0.2-0.5-0.2-0.8c-0.1-0.6,0-1.1,0.1-1.7c0.1-0.6,0.4-1.1,0.7-1.5
							c0.2-0.2,0.4-0.5,0.6-0.6c0.1,0.3,0.2,0.5,0.2,0.8c0.1,0.6,0,1.1-0.1,1.7c-0.1,0.6-0.4,1.1-0.7,1.6
							C60.8,117.5,60.6,117.7,60.4,117.9z"/>
						<path class="st22" d="M63.9,123.3c0-0.6,0-1.3,0-1.9c0.2-2.8,0.9-5.5,1.9-8.1c0.2-0.6,0.5-1.2,0.8-1.7c0,0.6,0,1.3,0,1.9
							c-0.1,1.4-0.3,2.8-0.7,4.1c-0.3,1.4-0.8,2.7-1.3,4C64.6,122.1,64.3,122.7,63.9,123.3z"/>
						<path class="st22" d="M67.3,129.6c0,0,0-0.3,0.1-0.9s0.2-1.4,0.3-2.5c0.3-2,0.8-4.7,1.5-7.4s1.4-5.3,2-7.2
							c0.3-1,0.6-1.8,0.8-2.3s0.4-0.9,0.4-0.9s0,0.3-0.1,0.9c-0.1,0.6-0.1,1.4-0.3,2.5c-0.3,2-0.8,4.7-1.5,7.4s-1.4,5.3-2,7.2
							c-0.3,1-0.6,1.8-0.8,2.3S67.3,129.6,67.3,129.6z"/>
						<path class="st22" d="M70.6,135.9c0,0,0.1-0.5,0.2-1.3s0.3-2.1,0.6-3.5c0.5-2.9,1.3-6.7,2.2-10.5c0.9-3.8,1.9-7.5,2.8-10.3
							c0.4-1.4,0.8-2.6,1.1-3.4s0.4-1.3,0.4-1.3s0,0.5-0.2,1.3s-0.3,2.1-0.6,3.5c-0.5,2.9-1.3,6.7-2.2,10.5
							c-0.9,3.8-1.9,7.5-2.8,10.3c-0.4,1.4-0.8,2.6-1.1,3.4S70.6,135.9,70.6,135.9z"/>
						<path class="st22" d="M75.2,136.8c0,0,0.1-0.5,0.2-1.5c0.2-0.9,0.4-2.3,0.7-3.9c0.6-3.2,1.5-7.5,2.5-11.8s2.2-8.5,3.1-11.6
							c0.5-1.6,0.9-2.9,1.2-3.8s0.5-1.4,0.5-1.4s-0.1,0.6-0.2,1.5s-0.4,2.3-0.7,3.9c-0.6,3.2-1.5,7.5-2.5,11.8s-2.2,8.5-3.1,11.6
							c-0.5,1.6-0.9,2.9-1.2,3.8S75.2,136.8,75.2,136.8z"/>
						<path class="st22" d="M80.8,133.6c0,0,0-0.4,0.1-1.2s0.2-1.8,0.4-3c0.4-2.5,1.1-5.8,1.8-9s1.7-6.5,2.5-8.9
							c0.4-1.2,0.7-2.2,1-2.9c0.2-0.7,0.4-1.1,0.4-1.1s0,0.4-0.1,1.2s-0.2,1.8-0.4,3c-0.4,2.5-1.1,5.8-1.8,9s-1.7,6.5-2.4,8.9
							c-0.4,1.2-0.7,2.2-1,2.9S80.8,133.6,80.8,133.6z"/>
						<path class="st22" d="M86.3,131c0-0.9,0.1-1.8,0.2-2.8c0.3-2,0.6-4,1.1-6c0.5-2,1-3.9,1.7-5.8c0.3-0.9,0.6-1.7,1-2.6
							c0,0.9-0.1,1.9-0.2,2.8c-0.2,1.6-0.6,3.8-1.1,6c-0.5,2-1,3.9-1.7,5.8C87,129.3,86.7,130.1,86.3,131z"/>
					</g>
				</g>
			</g>
		</g>
		
			<image style="overflow:visible;enable-background:new    ;" width="91" height="158" xlink:href="924EDEF2.png"  transform="matrix(1.8228 0 0 1.8228 256.7482 367.0696)">
		</image>
		
			<linearGradient id="SVGID_00000080189984437139228670000005906906118143420052_" gradientUnits="userSpaceOnUse" x1="740.4783" y1="258.7703" x2="739.7793" y2="258.0713" gradientTransform="matrix(-191.4044 -178.4895 -178.4871 191.4069 188434.8281 83196.4844)">
			<stop  offset="0" style="stop-color:#1E1E1E"/>
			<stop  offset="4.100000e-02" style="stop-color:#5E5E5E"/>
			<stop  offset="7.900000e-02" style="stop-color:#919191"/>
			<stop  offset="0.112" style="stop-color:#B6B6B6"/>
			<stop  offset="0.138" style="stop-color:#CDCDCD"/>
			<stop  offset="0.155" style="stop-color:#D6D6D6"/>
			<stop  offset="0.208" style="stop-color:#A0A0A0"/>
			<stop  offset="0.291" style="stop-color:#525252"/>
			<stop  offset="0.33" style="stop-color:#343434"/>
			<stop  offset="0.371" style="stop-color:#3B3B3B"/>
			<stop  offset="0.431" style="stop-color:#4F4F4F"/>
			<stop  offset="0.504" style="stop-color:#6F6F6F"/>
			<stop  offset="0.586" style="stop-color:#9D9D9D"/>
			<stop  offset="0.675" style="stop-color:#D6D6D6"/>
			<stop  offset="0.693" style="stop-color:#E3E3E3"/>
			<stop  offset="0.707" style="stop-color:#CBCBCB"/>
			<stop  offset="0.738" style="stop-color:#9D9D9D"/>
			<stop  offset="0.769" style="stop-color:#767676"/>
			<stop  offset="0.799" style="stop-color:#585858"/>
			<stop  offset="0.829" style="stop-color:#434343"/>
			<stop  offset="0.858" style="stop-color:#363636"/>
			<stop  offset="0.885" style="stop-color:#323232"/>
			<stop  offset="0.914" style="stop-color:#363636"/>
			<stop  offset="0.995" style="stop-color:#404040"/>
		</linearGradient>
		<path style="fill:url(#SVGID_00000080189984437139228670000005906906118143420052_);" d="M262.4,361.1c-63,31.9-140,6.7-172-56.3
			c-31.9-63-6.7-140,56.3-172s140-6.7,172,56.3c0,0,0,0,0,0C350.6,252.2,325.4,329.2,262.4,361.1z M145.4,130.3
			C81,162.9,55.2,241.6,87.8,306.1c32.7,64.5,111.4,90.2,175.8,57.6s90.2-111.4,57.6-175.8c0,0,0,0,0,0
			C288.6,123.4,209.9,97.6,145.4,130.3C145.4,130.3,145.4,130.3,145.4,130.3z"/>
		
			<radialGradient id="SVGID_00000098917028450050319810000007082593213948797349_" cx="742.4005" cy="258.4272" r="1.078" gradientTransform="matrix(-277.0325 -80.1041 -80.1049 277.0299 226374.2812 -11957.6182)" gradientUnits="userSpaceOnUse">
			<stop  offset="0" style="stop-color:#848484"/>
			<stop  offset="6.000000e-03" style="stop-color:#878787"/>
			<stop  offset="7.200000e-02" style="stop-color:#A9A9A9"/>
			<stop  offset="0.135" style="stop-color:#C2C2C2"/>
			<stop  offset="0.192" style="stop-color:#D0D0D0"/>
			<stop  offset="0.24" style="stop-color:#D6D6D6"/>
			<stop  offset="0.246" style="stop-color:#CDCDCD"/>
			<stop  offset="0.303" style="stop-color:#7F7F7F"/>
			<stop  offset="0.33" style="stop-color:#616161"/>
			<stop  offset="0.362" style="stop-color:#595959"/>
			<stop  offset="0.398" style="stop-color:#4B4B4B"/>
			<stop  offset="0.422" style="stop-color:#5B5B5B"/>
			<stop  offset="0.467" style="stop-color:#878787"/>
			<stop  offset="0.531" style="stop-color:#CDCDCD"/>
			<stop  offset="0.549" style="stop-color:#E3E3E3"/>
			<stop  offset="0.633" style="stop-color:#F5F5F5"/>
			<stop  offset="0.698" style="stop-color:#FFFFFF"/>
			<stop  offset="0.713" style="stop-color:#D4D4D4"/>
			<stop  offset="0.735" style="stop-color:#9B9B9B"/>
			<stop  offset="0.755" style="stop-color:#6D6D6D"/>
			<stop  offset="0.773" style="stop-color:#4D4D4D"/>
			<stop  offset="0.788" style="stop-color:#393939"/>
			<stop  offset="0.798" style="stop-color:#323232"/>
			<stop  offset="0.81" style="stop-color:#393939"/>
			<stop  offset="0.828" style="stop-color:#4F4F4F"/>
			<stop  offset="0.85" style="stop-color:#727272"/>
			<stop  offset="0.874" style="stop-color:#A3A3A3"/>
			<stop  offset="0.883" style="stop-color:#B5B5B5"/>
			<stop  offset="0.897" style="stop-color:#BABABA"/>
			<stop  offset="0.915" style="stop-color:#CBCBCB"/>
			<stop  offset="0.936" style="stop-color:#E6E6E6"/>
			<stop  offset="0.949" style="stop-color:#FBFBFB"/>
			<stop  offset="0.959" style="stop-color:#D8D8D8"/>
			<stop  offset="0.97" style="stop-color:#BABABA"/>
			<stop  offset="0.98" style="stop-color:#A5A5A5"/>
			<stop  offset="0.99" style="stop-color:#989898"/>
			<stop  offset="1" style="stop-color:#949494"/>
		</radialGradient>
		<path style="fill:url(#SVGID_00000098917028450050319810000007082593213948797349_);" d="M139.4,118.4
			c-71,36-99.4,122.7-63.4,193.8s122.7,99.4,193.8,63.4c71-36,99.4-122.7,63.5-193.7C297.2,110.8,210.4,82.4,139.4,118.4z
			 M263.6,363.7c-64.5,32.7-143.2,6.9-175.8-57.6s-6.9-143.2,57.6-175.8s143.2-6.9,175.8,57.6c0,0,0,0,0,0
			C353.9,252.3,328.1,331,263.6,363.7C263.7,363.7,263.7,363.7,263.6,363.7z"/>
		
			<radialGradient id="SVGID_00000168087387029289514980000004512963140249650877_" cx="742.561" cy="258.8341" r="1.025" gradientTransform="matrix(-277.0294 -80.1041 -79.9682 277.0298 226324.375 -12015.0039)" gradientUnits="userSpaceOnUse">
			<stop  offset="0" style="stop-color:#FFFFFF"/>
			<stop  offset="4.600000e-02" style="stop-color:#DBDBDB"/>
			<stop  offset="0.11" style="stop-color:#AFAFAF"/>
			<stop  offset="0.172" style="stop-color:#8D8D8D"/>
			<stop  offset="0.231" style="stop-color:#747474"/>
			<stop  offset="0.285" style="stop-color:#666666"/>
			<stop  offset="0.33" style="stop-color:#616161"/>
			<stop  offset="0.362" style="stop-color:#595959"/>
			<stop  offset="0.398" style="stop-color:#4B4B4B"/>
			<stop  offset="0.425" style="stop-color:#5B5B5B"/>
			<stop  offset="0.477" style="stop-color:#878787"/>
			<stop  offset="0.549" style="stop-color:#CDCDCD"/>
			<stop  offset="0.577" style="stop-color:#C2C2C2"/>
			<stop  offset="0.652" style="stop-color:#AAAAAA"/>
			<stop  offset="0.698" style="stop-color:#A1A1A1"/>
			<stop  offset="0.702" style="stop-color:#9A9A9A"/>
			<stop  offset="0.733" style="stop-color:#6D6D6D"/>
			<stop  offset="0.76" style="stop-color:#4D4D4D"/>
			<stop  offset="0.783" style="stop-color:#393939"/>
			<stop  offset="0.798" style="stop-color:#323232"/>
			<stop  offset="0.81" style="stop-color:#393939"/>
			<stop  offset="0.828" style="stop-color:#4F4F4F"/>
			<stop  offset="0.85" style="stop-color:#727272"/>
			<stop  offset="0.874" style="stop-color:#A3A3A3"/>
			<stop  offset="0.883" style="stop-color:#B5B5B5"/>
			<stop  offset="0.897" style="stop-color:#BABABA"/>
			<stop  offset="0.915" style="stop-color:#CBCBCB"/>
			<stop  offset="0.936" style="stop-color:#E6E6E6"/>
			<stop  offset="0.949" style="stop-color:#FBFBFB"/>
			<stop  offset="0.959" style="stop-color:#D8D8D8"/>
			<stop  offset="0.97" style="stop-color:#BABABA"/>
			<stop  offset="0.98" style="stop-color:#A5A5A5"/>
			<stop  offset="0.99" style="stop-color:#989898"/>
			<stop  offset="1" style="stop-color:#949494"/>
		</radialGradient>
		<path style="fill:url(#SVGID_00000168087387029289514980000004512963140249650877_);" d="M139.4,118.4
			c-71,36-99.4,122.7-63.4,193.8s122.7,99.4,193.8,63.4c71-36,99.4-122.7,63.5-193.7C297.2,110.8,210.4,82.4,139.4,118.4z
			 M267.8,374.1c-70.5,35.7-156.5,7.5-192.2-63s-7.5-156.5,63-192.2s156.5-7.5,192.2,63c0,0,0,0,0,0
			C366.5,252.4,338.3,338.4,267.8,374.1C267.8,374.1,267.8,374.1,267.8,374.1z"/>
		
			<linearGradient id="SVGID_00000172417073259663489880000016417143913809228193_" gradientUnits="userSpaceOnUse" x1="740.4947" y1="258.7841" x2="739.7337" y2="258.0221" gradientTransform="matrix(-198.9067 -185.4816 -185.4832 198.905 195816.6406 86444.6797)">
			<stop  offset="0" style="stop-color:#1E1E1E"/>
			<stop  offset="4.100000e-02" style="stop-color:#5E5E5E"/>
			<stop  offset="7.900000e-02" style="stop-color:#919191"/>
			<stop  offset="0.112" style="stop-color:#B6B6B6"/>
			<stop  offset="0.138" style="stop-color:#CDCDCD"/>
			<stop  offset="0.155" style="stop-color:#D6D6D6"/>
			<stop  offset="0.208" style="stop-color:#A0A0A0"/>
			<stop  offset="0.291" style="stop-color:#525252"/>
			<stop  offset="0.33" style="stop-color:#343434"/>
			<stop  offset="0.371" style="stop-color:#3B3B3B"/>
			<stop  offset="0.431" style="stop-color:#4F4F4F"/>
			<stop  offset="0.504" style="stop-color:#6F6F6F"/>
			<stop  offset="0.586" style="stop-color:#9D9D9D"/>
			<stop  offset="0.675" style="stop-color:#D6D6D6"/>
			<stop  offset="0.693" style="stop-color:#E3E3E3"/>
			<stop  offset="0.707" style="stop-color:#CBCBCB"/>
			<stop  offset="0.738" style="stop-color:#9D9D9D"/>
			<stop  offset="0.769" style="stop-color:#767676"/>
			<stop  offset="0.799" style="stop-color:#585858"/>
			<stop  offset="0.829" style="stop-color:#434343"/>
			<stop  offset="0.858" style="stop-color:#363636"/>
			<stop  offset="0.885" style="stop-color:#323232"/>
			<stop  offset="0.914" style="stop-color:#363636"/>
			<stop  offset="0.995" style="stop-color:#404040"/>
		</linearGradient>
		<path style="fill:url(#SVGID_00000172417073259663489880000016417143913809228193_);" d="M143.1,125.7
			c-67,33.9-93.8,115.7-59.8,182.7S199,402.2,266,368.3c67-33.9,93.8-115.7,59.8-182.7C291.9,118.6,210.1,91.8,143.1,125.7z
			 M263.6,363.7c-64.5,32.7-143.2,6.9-175.8-57.6c-32.7-64.5-6.9-143.2,57.6-175.8s143.2-6.9,175.8,57.6c0,0,0,0,0,0
			C353.9,252.3,328.1,331,263.6,363.7C263.7,363.7,263.7,363.7,263.6,363.7z"/>
		
			<linearGradient id="SVGID_00000063631842361664009240000012564577351826549410_" gradientUnits="userSpaceOnUse" x1="740.4947" y1="258.7841" x2="739.7337" y2="258.0221" gradientTransform="matrix(-198.9067 -185.4816 -185.4832 198.905 195816.6406 86444.6797)">
			<stop  offset="0" style="stop-color:#1E1E1E"/>
			<stop  offset="1.800000e-02" style="stop-color:#333333"/>
			<stop  offset="6.300000e-02" style="stop-color:#666666"/>
			<stop  offset="0.103" style="stop-color:#8C8C8C"/>
			<stop  offset="0.134" style="stop-color:#A2A2A2"/>
			<stop  offset="0.155" style="stop-color:#ABABAB"/>
			<stop  offset="0.169" style="stop-color:#A0A0A0"/>
			<stop  offset="0.279" style="stop-color:#525252"/>
			<stop  offset="0.33" style="stop-color:#343434"/>
			<stop  offset="0.414" style="stop-color:#3B3B3B"/>
			<stop  offset="0.538" style="stop-color:#4F4F4F"/>
			<stop  offset="0.687" style="stop-color:#6F6F6F"/>
			<stop  offset="0.693" style="stop-color:#717171"/>
			<stop  offset="0.737" style="stop-color:#585858"/>
			<stop  offset="0.789" style="stop-color:#434343"/>
			<stop  offset="0.839" style="stop-color:#363636"/>
			<stop  offset="0.885" style="stop-color:#323232"/>
			<stop  offset="0.914" style="stop-color:#363636"/>
			<stop  offset="0.995" style="stop-color:#404040"/>
		</linearGradient>
		<path style="opacity:0.5;fill:url(#SVGID_00000063631842361664009240000012564577351826549410_);enable-background:new    ;" d="
			M143.1,125.7c-67,33.9-93.8,115.7-59.8,182.7S199,402.2,266,368.3c67-33.9,93.8-115.7,59.8-182.7
			C291.9,118.6,210.1,91.8,143.1,125.7z M263.6,363.7c-64.5,32.7-143.2,6.9-175.8-57.6c-32.7-64.5-6.9-143.2,57.6-175.8
			s143.2-6.9,175.8,57.6c0,0,0,0,0,0C353.9,252.3,328.1,331,263.6,363.7C263.7,363.7,263.7,363.7,263.6,363.7z"/>
		
			<linearGradient id="SVGID_00000174596414803822743940000005198041802509296001_" gradientUnits="userSpaceOnUse" x1="740.4568" y1="258.7757" x2="739.6968" y2="258.0147" gradientTransform="matrix(-193.3414 -180.2944 -180.2934 193.3424 190340.7188 84034.9531)">
			<stop  offset="0" style="stop-color:#1E1E1E"/>
			<stop  offset="4.100000e-02" style="stop-color:#5E5E5E"/>
			<stop  offset="7.900000e-02" style="stop-color:#919191"/>
			<stop  offset="0.112" style="stop-color:#B6B6B6"/>
			<stop  offset="0.138" style="stop-color:#CDCDCD"/>
			<stop  offset="0.155" style="stop-color:#D6D6D6"/>
			<stop  offset="0.208" style="stop-color:#A0A0A0"/>
			<stop  offset="0.291" style="stop-color:#525252"/>
			<stop  offset="0.33" style="stop-color:#343434"/>
			<stop  offset="0.371" style="stop-color:#3B3B3B"/>
			<stop  offset="0.431" style="stop-color:#4F4F4F"/>
			<stop  offset="0.504" style="stop-color:#6F6F6F"/>
			<stop  offset="0.586" style="stop-color:#9D9D9D"/>
			<stop  offset="0.675" style="stop-color:#D6D6D6"/>
			<stop  offset="0.693" style="stop-color:#E3E3E3"/>
			<stop  offset="0.707" style="stop-color:#CBCBCB"/>
			<stop  offset="0.738" style="stop-color:#9D9D9D"/>
			<stop  offset="0.769" style="stop-color:#767676"/>
			<stop  offset="0.799" style="stop-color:#585858"/>
			<stop  offset="0.829" style="stop-color:#434343"/>
			<stop  offset="0.858" style="stop-color:#363636"/>
			<stop  offset="0.885" style="stop-color:#323232"/>
			<stop  offset="0.914" style="stop-color:#363636"/>
			<stop  offset="0.995" style="stop-color:#404040"/>
		</linearGradient>
		<path style="opacity:0.7;fill:url(#SVGID_00000174596414803822743940000005198041802509296001_);enable-background:new    ;" d="
			M144.8,129.1c-65.1,33-91.1,112.5-58.2,177.6s112.5,91.1,177.6,58.2c65.1-33,91.1-112.5,58.2-177.6
			C289.4,122.1,209.9,96.1,144.8,129.1C144.8,129.1,144.8,129.1,144.8,129.1z M263.6,363.7c-64.5,32.7-143.2,6.9-175.8-57.6
			c-32.7-64.5-6.9-143.2,57.6-175.8s143.2-6.9,175.8,57.6c0,0,0,0,0,0C353.9,252.3,328.1,331,263.6,363.7
			C263.7,363.7,263.6,363.7,263.6,363.7L263.6,363.7z"/>
		
			<image style="overflow:visible;opacity:0.6;enable-background:new    ;" width="142" height="238" xlink:href="924EDEF6.png"  transform="matrix(1.0267 0 0 1.0267 176.6438 124.7516)">
		</image>
		
			<image style="overflow:visible;enable-background:new    ;" width="64" height="65" xlink:href="924EDEF1.png"  transform="matrix(1.0267 0 0 1.0267 95.5318 289.0288)">
		</image>
		
			<image style="overflow:visible;enable-background:new    ;" width="136" height="139" xlink:href="924EDEF3.png"  transform="matrix(1.0267 0 0 1.0267 86.2909 132.9656)">
		</image>
		
			<radialGradient id="SVGID_00000055686154790467181630000001334255045893234311_" cx="741.8973" cy="258.7289" r="0.567" gradientTransform="matrix(-186.0716 -53.8168 -53.8596 186.1184 151874.75 -7947.5156)" gradientUnits="userSpaceOnUse">
			<stop  offset="0.395" style="stop-color:#FFFFFF"/>
			<stop  offset="0.463" style="stop-color:#EEEEEE"/>
			<stop  offset="0.597" style="stop-color:#C3C3C3"/>
			<stop  offset="0.784" style="stop-color:#7D7D7D"/>
			<stop  offset="1" style="stop-color:#252525"/>
		</radialGradient>
		<path style="fill:url(#SVGID_00000055686154790467181630000001334255045893234311_);" d="M139.4,118.4l-2.2,1.3
			c-0.7,0.4-1.6,0.9-2.6,1.5c-1,0.6-2.2,1.3-3.5,2.2s-2.7,1.8-4.2,2.8c-1.5,1.1-3.1,2.3-4.9,3.5c-1.7,1.3-3.5,2.7-5.3,4.2
			c-1.9,1.5-3.7,3.2-5.7,4.9c-1.9,1.8-3.9,3.7-5.9,5.7c-1,1-2,2.1-3,3.1c-0.5,0.5-1,1.1-1.5,1.6c-0.5,0.6-1,1.1-1.5,1.7
			c-1,1.1-2,2.3-3,3.5c-1,1.2-1.9,2.4-2.9,3.7c-1,1.2-1.9,2.5-2.8,3.8s-1.9,2.6-2.8,4c-7.7,11.4-13.7,23.7-17.9,36.8
			c-4.3,13-6.7,26.6-7.2,40.3c0,1.6-0.1,3.3-0.1,4.9c0,0.8,0,1.6,0,2.4s0,1.6,0.1,2.4c0,3.2,0.3,6.2,0.5,9.2c0.1,1.5,0.3,3,0.5,4.4
			c0.2,1.4,0.3,2.9,0.5,4.3c0.2,1.4,0.5,2.8,0.7,4.1c0.2,1.3,0.4,2.7,0.7,4c1,5.2,2.2,9.8,3.4,13.9c0.6,2,1.2,4,1.8,5.7
			c0.6,1.7,1.2,3.3,1.7,4.8c0.3,0.7,0.5,1.4,0.7,2c0.3,0.6,0.5,1.2,0.7,1.8c0.5,1.1,0.8,2,1.2,2.8c0.6,1.5,1,2.3,1,2.3
			s-0.4-0.8-1.1-2.3c-0.3-0.7-0.8-1.7-1.3-2.8c-0.3-0.5-0.5-1.1-0.8-1.8c-0.3-0.6-0.5-1.3-0.8-2c-0.6-1.4-1.2-3-1.9-4.7
			c-0.6-1.8-1.3-3.7-2-5.7c-1.5-4.6-2.8-9.2-3.8-13.9c-0.3-1.3-0.6-2.6-0.8-4s-0.5-2.7-0.8-4.1c-0.3-1.4-0.4-2.8-0.6-4.3
			c-0.2-1.5-0.4-2.9-0.6-4.5c-0.3-3-0.6-6.1-0.7-9.3c-0.2-3.2-0.1-6.5-0.1-9.8c0.4-13.9,2.8-27.6,7.1-40.8
			c4.3-13.2,10.5-25.7,18.4-37.2c0.9-1.4,1.9-2.7,2.9-4c0.5-0.7,1-1.3,1.4-2s1-1.3,1.5-1.9c1-1.2,2-2.5,3-3.7c1-1.2,2.1-2.3,3.1-3.4
			c0.5-0.6,1-1.1,1.5-1.7c0.5-0.5,1-1.1,1.6-1.6c1-1,2.1-2.1,3-3.1c2.1-2,4.1-3.8,6.1-5.6c2-1.7,3.9-3.4,5.9-4.8
			c1.9-1.4,3.7-2.9,5.5-4.1c1.8-1.2,3.4-2.3,5-3.4c1.6-1,3-1.9,4.4-2.7c0.7-0.4,1.3-0.8,1.9-1.1s1.2-0.6,1.7-0.9
			c1.1-0.6,2-1,2.7-1.4L139.4,118.4z"/>
		
			<radialGradient id="SVGID_00000031206112978170551410000005330264461051684246_" cx="741.9544" cy="258.8056" r="0.376" gradientTransform="matrix(-175.5021 -50.7552 -50.7467 175.5303 143459.8594 -7472.3623)" gradientUnits="userSpaceOnUse">
			<stop  offset="0.395" style="stop-color:#FFFFFF"/>
			<stop  offset="0.463" style="stop-color:#EEEEEE"/>
			<stop  offset="0.597" style="stop-color:#C3C3C3"/>
			<stop  offset="0.784" style="stop-color:#7D7D7D"/>
			<stop  offset="1" style="stop-color:#252525"/>
		</radialGradient>
		<path style="fill:url(#SVGID_00000031206112978170551410000005330264461051684246_);" d="M268.2,368.2c0,0,0.7-0.4,2.1-1.2
			c0.7-0.4,1.5-0.9,2.5-1.4c0.5-0.3,1-0.6,1.6-0.9c0.5-0.4,1.1-0.7,1.8-1.1c1.2-0.8,2.6-1.7,4.1-2.6c1.4-1,3-2.1,4.6-3.3
			c3.3-2.4,6.8-5.3,10.6-8.6c1.9-1.6,3.7-3.5,5.7-5.3c0.9-1,1.9-2,2.8-3c1-1,1.9-2,2.8-3.1c0.9-1.1,1.9-2.2,2.8-3.3
			c0.9-1.1,1.8-2.3,2.7-3.5c1.9-2.3,3.6-4.9,5.4-7.4c3.5-5.3,6.7-10.8,9.6-16.5c5.8-11.8,10-24.4,12.2-37.4c1.1-6.3,1.7-12.6,2-19
			c0-3.1,0.1-6.1,0-9.1c-0.1-1.5-0.1-3-0.2-4.4c-0.1-1.5-0.2-2.9-0.3-4.3s-0.3-2.8-0.5-4.2s-0.4-2.7-0.5-4.1
			c-0.5-2.6-0.9-5.2-1.4-7.6c-1.1-4.9-2.3-9.3-3.5-13.1c-0.6-1.9-1.2-3.7-1.8-5.4c-0.6-1.6-1.2-3.1-1.8-4.5
			c-0.3-0.7-0.5-1.3-0.7-1.9c-0.3-0.6-0.5-1.2-0.7-1.7c-0.5-1-0.8-1.9-1.2-2.6c-0.6-1.4-1-2.2-1-2.2s0.4,0.7,1.1,2.1
			c0.4,0.7,0.8,1.6,1.3,2.6c0.3,0.5,0.5,1.1,0.8,1.6c0.3,0.6,0.5,1.2,0.8,1.9c0.6,1.3,1.2,2.8,1.9,4.4c0.6,1.6,1.3,3.4,2,5.3
			s1.3,4,2.1,6.2c0.4,1.1,0.7,2.2,1,3.4s0.6,2.4,0.9,3.6c0.6,2.4,1.1,5,1.6,7.7c0.2,1.3,0.4,2.7,0.6,4.1s0.4,2.8,0.6,4.2
			c0.2,1.4,0.3,2.9,0.5,4.4c0.1,1.5,0.2,3,0.3,4.5c0,0.8,0.1,1.5,0.1,2.3c0,0.8,0,1.5,0,2.3c0,1.5,0,3.1,0,4.7
			c-0.2,6.5-0.8,13-1.8,19.4c-1.2,6.6-2.8,13.1-4.8,19.5c-2.1,6.4-4.7,12.6-7.7,18.6c-3,5.8-6.3,11.4-10,16.7
			c-0.9,1.3-1.9,2.5-2.8,3.8c-0.5,0.6-0.9,1.3-1.4,1.8c-0.5,0.6-1,1.2-1.5,1.8c-1,1.2-1.9,2.3-2.9,3.5c-1,1.1-2,2.2-3,3.2
			c-1,1.1-2,2.1-3,3.1c-1,1-2,2-2.9,2.9c-2,1.8-3.9,3.6-5.9,5.2c-1,0.8-1.9,1.6-2.9,2.3c-0.9,0.8-1.8,1.5-2.8,2.2
			c-1.9,1.3-3.6,2.7-5.3,3.8s-3.3,2.1-4.8,3.1c-1.5,0.9-2.9,1.7-4.2,2.4c-0.6,0.4-1.2,0.7-1.8,1c-0.6,0.3-1.1,0.6-1.6,0.8
			c-1,0.5-1.9,1-2.6,1.3C268.9,367.8,268.2,368.2,268.2,368.2z"/>
	</g>
</g>
</svg>
