<svg xmlns="http://www.w3.org/2000/svg" width="59.37" height="27.37" viewBox="0 0 59.37 27.37">
  <g id="圖層_2" data-name="圖層 2">
    <g id="版頭版尾">
      <g>
        <path d="M46.2,5.41c3.32,0,6.66-.14,10,.08,1.12.08,2.75.84,3.09,1.7a4.11,4.11,0,0,1-.9,3.51,91.4,91.4,0,0,1-9.54,9.44,5.28,5.28,0,0,1-5,0,94.52,94.52,0,0,1-9.58-9.41c-.77-.84-1.4-2.54-1.05-3.45s2-1.71,3.1-1.79C39.55,5.27,42.88,5.42,46.2,5.41Z" style="fill: #fff"/>
        <path d="M13.27,22.07a92,92,0,0,1,10,.12c1.27.14,2.39,1.65,3.58,2.54-1.08.86-2.13,2.41-3.24,2.45-6.82.24-13.64.27-20.45,0C2.05,27.15,1,25.28,0,24.25c1.1-.73,2.15-2,3.3-2.1,3.3-.28,6.64-.1,10-.1Z" style="fill: #fff"/>
        <path d="M13.27,5.1c-3.49,0-7,.2-10.45-.12C1.81,4.88,1,3.28,0,2.37.92,1.6,1.8.19,2.72.16c7-.19,14-.23,20.92,0,1.09,0,2.13,1.53,3.2,2.36-1,.86-2,2.38-3.12,2.48C20.27,5.31,16.76,5.1,13.27,5.1Z" style="fill: #fff"/>
        <path d="M13.23,16.2a87.17,87.17,0,0,1-10-.13C2.09,15.93,1.09,14.28,0,13.32c1.07-.77,2.12-2.18,3.22-2.21,6.64-.22,13.3-.25,19.94,0,1.25.05,2.43,1.62,3.64,2.48-1.2.87-2.34,2.35-3.63,2.5A97.24,97.24,0,0,1,13.23,16.2Z" style="fill: #fff"/>
      </g>
    </g>
  </g>
</svg>
