<?xml version="1.0" encoding="UTF-8"?>
<svg id="_圖層_2" data-name="圖層 2" xmlns="http://www.w3.org/2000/svg" width="332.83" height="236.02" xmlns:xlink="http://www.w3.org/1999/xlink" viewBox="0 0 332.83 236.02">
  <defs>
    <clipPath id="clippath">
      <circle cx="215.83" cy="117.17" r="99" style="fill: none; stroke-width: 0px;"/>
    </clipPath>
  </defs>
  <g id="_第一cut" data-name="第一cut">
    <g id="local_practice4">
      <g>
        <g>
          <path d="m48.17,26.13l-9.14,1.39C17.12,29.64,0,48.1,0,70.56c0,10.73,3.91,20.54,10.37,28.1l-.06.16.7.57c2.76,3.08,8.23,8.79,12.23,11.61C3.58,60.27,33.21,35.12,48.17,26.13Z" style="fill: #f6ce66; stroke-width: 0px;"/>
          <path d="m48.06,132.68l26.89-110.62-26.78,4.07c-14.96,8.99-44.59,34.14-24.92,84.87.46.32.9.62,1.32.86l23.49,20.82Z" style="fill: #f4b732; stroke-width: 0px;"/>
        </g>
        <g>
          <path d="m94.77,16.86l-19.02,2.89c-30.83,2.99-54.93,28.97-54.93,60.58,0,15.1,5.5,28.91,14.6,39.55l.9,1.03c3.71,4.14,10.91,11.67,16.46,15.79C25.85,64.22,73.92,28.47,94.77,16.86Z" style="fill: #f3c254; stroke-width: 0px;"/>
          <path d="m88.46,167.76L126.31,12.06l-31.54,4.79c-20.85,11.61-68.92,47.36-41.99,119.84.92.68,1.8,1.29,2.61,1.75l33.07,29.31Z" style="fill: #f0ac1e; stroke-width: 0px;"/>
        </g>
        <g>
          <path d="m156.29,7.49l-29.93,4.55c-43.1,4.18-76.79,40.5-76.79,84.7,0,21.11,7.69,40.42,20.42,55.3l1.26,1.44c5.63,6.29,12.2,11.73,19.46,16.13C57.35,69.05,123.25,23.44,156.29,7.49Z" style="fill: #f1ab1e; stroke-width: 0px;"/>
          <path d="m147.64,215.48L197.05,1.3l-40.76,6.19c-33.04,15.95-98.94,61.56-65.58,162.11.53.32,1.06.65,1.6.96l55.34,44.91Z" style="fill: #e99e1d; stroke-width: 0px;"/>
        </g>
        <g>
          <path d="m214.81,226.22c-28.9,0-56.08-11.26-76.52-31.69-20.44-20.44-31.69-47.61-31.69-76.52s11.26-56.08,31.69-76.52c20.44-20.44,47.61-31.69,76.52-31.69s56.08,11.26,76.52,31.69c20.44,20.44,31.69,47.61,31.69,76.52s-11.26,56.08-31.69,76.52c-20.44,20.44-47.61,31.69-76.52,31.69Zm0-205.69c-53.75,0-97.47,43.73-97.47,97.48s43.73,97.48,97.47,97.48,97.48-43.73,97.48-97.48-43.73-97.48-97.48-97.48Z" style="fill: #c6881b; stroke-width: 0px;"/>
          <path d="m214.81,236.02c-31.52,0-61.16-12.28-83.45-34.56-22.29-22.29-34.57-51.93-34.57-83.45s12.28-61.16,34.57-83.45C153.66,12.27,183.29,0,214.81,0s61.16,12.27,83.45,34.56c22.29,22.29,34.56,51.93,34.56,83.45s-12.28,61.16-34.56,83.45c-22.29,22.29-51.93,34.56-83.45,34.56Zm0-224.32c-58.61,0-106.3,47.69-106.3,106.3s47.69,106.31,106.3,106.31,106.31-47.69,106.31-106.31S273.43,11.71,214.81,11.71Z" style="fill: #eda61d; stroke-width: 0px;"/>
        </g>
        <path d="m248.99,39.12s105.77,59.31,18.56,151.95c.62-2.83,54.43-81.91-18.56-151.95Z" style="fill: #bcabff; opacity: .7; stroke-width: 0px;"/>
      </g>
      <g style="clip-path: url(#clippath);">
        <g>
          <rect x="-110.99" y="-4.61" width="474.82" height="267.09" style="fill: #ffcb40; stroke-width: 0px;"/>
          <path d="m363.83,185.43h0c-151.16,67.11-323.66,67.11-474.82,0h0V-4.61h474.82v190.04Z" style="fill: #ffeed0; stroke-width: 0px;"/>
        </g>
        <g>
          <g>
            <g>
              <g>
                <g>
                  <g>
                    <path d="m153.84,63.95c-.37.38-3.34,3.28-6.75,8.1-1.69,2.42-3.46,5.32-5.03,8.57-1.57,3.25-2.92,6.85-3.92,10.54-1.01,3.68-1.68,7.45-2,11.01-.33,3.56-.33,6.9-.19,9.75.13,2.86.48,5.22.67,6.88.25,1.65.36,2.61.24,2.64-.11.03-.45-.88-.92-2.5-.42-1.64-.98-4-1.33-6.9-.36-2.9-.55-6.32-.4-10,.14-3.68.66-7.61,1.56-11.48.89-3.87,2.17-7.68,3.69-11.14,1.53-3.46,3.3-6.57,5-9.16,3.44-5.17,6.5-8.31,6.89-8.71.39-.4.8-.76,1.21-1.04.41-.28.82-.49,1.19-.63.75-.28,1.36-.28,1.68.08.32.35.29.97,0,1.69-.15.36-.36.74-.64,1.12-.27.39-.58.79-.96,1.18Z" style="fill: #ffa258; stroke-width: 0px;"/>
                    <path d="m153.45,62.92c-.17-.24-.74-.02-1.25.36-.52.38-.95.93-1.38,1.43-2.33,2.82-4.42,5.83-6.23,8.99-.2.36-.41.79-.37,1.03.04.24.33.14.58-.1.25-.25.47-.6.69-.93,1.92-2.93,4.08-5.7,6.45-8.26.41-.43.8-.89,1.13-1.34.32-.46.52-.97.36-1.18Z" style="fill: #fff; stroke-width: 0px;"/>
                  </g>
                  <path d="m143.41,76.41c-.12-.01-.3.13-.45.32-.15.19-.29.42-.42.65-.34.59-.62,1.21-.9,1.83-.1.23-.2.47-.25.69-.05.22-.04.43.06.48.11.05.29-.09.45-.3.15-.2.28-.45.41-.69.24-.45.46-.92.71-1.36.18-.31.36-.64.46-.96.1-.32.1-.64-.07-.66Z" style="fill: #fff; stroke-width: 0px;"/>
                </g>
                <g>
                  <path d="m162.84,56.55c-.96.66-1.9,1.15-2.74,1.34-.81.21-1.48.16-1.81-.25-.33-.4-.25-1.08.17-1.85.44-.74,1.19-1.61,2.21-2.32.51-.35,1.02-.64,1.52-.87.5-.22.98-.35,1.41-.42.86-.14,1.52,0,1.79.45.27.45.1,1.11-.36,1.81-.23.35-.55.7-.91,1.06-.36.37-.79.72-1.27,1.05Z" style="fill: #ffa258; stroke-width: 0px;"/>
                  <path d="m163.92,55.13c-.64.44-1.31.57-1.51.29-.2-.28.17-.87.82-1.32.67-.43,1.36-.53,1.54-.24.18.29-.2.86-.85,1.28Z" style="fill: #fff; stroke-width: 0px;"/>
                </g>
              </g>
              <g>
                <g>
                  <g>
                    <path d="m124.29,143.33c.03.2.18,1.07.41,2.45.13.68.31,1.49.5,2.4.1.45.2.94.3,1.44.13.5.26,1.02.4,1.56,1.08,4.34,2.92,9.89,5.36,15.14,2.39,5.28,5.43,10.18,7.89,13.72.63.87,1.2,1.67,1.72,2.39.5.72.99,1.3,1.36,1.81.75,1.01,1.16,1.61,1.09,1.67s-.6-.43-1.49-1.33c-.44-.46-.99-.99-1.57-1.67-.58-.68-1.22-1.44-1.92-2.27-2.74-3.39-6.08-8.23-8.73-13.52-2.7-5.26-4.78-10.89-6.02-15.33-.16-.55-.31-1.09-.46-1.6-.12-.52-.24-1.01-.35-1.47-.22-.93-.42-1.76-.57-2.46-.27-1.41-.43-2.31-.47-2.51-.07-.41-.11-.81-.1-1.18.02-.37.07-.71.15-.99.16-.58.44-.95.79-1,.35-.05.72.24,1.02.74.15.25.29.55.4.89.12.34.23.71.3,1.11Z" style="fill: #ffa258; stroke-width: 0px;"/>
                    <path d="m123.49,143.11c-.22,0-.34.44-.33.91,0,.48.11.99.22,1.48.13.67.32,1.34.49,2l.52,1.99c.38,1.32.79,2.63,1.19,3.93.1.29.24.63.39.73.15.1.25-.11.23-.38-.01-.27-.11-.57-.17-.86-.31-1.29-.67-2.57-.94-3.86l-.4-1.95c-.14-.65-.27-1.3-.36-1.95-.07-.44-.14-.9-.28-1.3-.14-.4-.36-.75-.56-.75Z" style="fill: #fff; stroke-width: 0px;"/>
                  </g>
                  <path d="m126.48,155.47c-.07.06-.08.23-.06.42.02.18.08.38.13.56.14.49.33.97.52,1.44.07.18.15.36.24.5.09.15.21.25.29.22.09-.03.1-.21.08-.4-.03-.19-.1-.39-.17-.58-.12-.37-.26-.73-.37-1.1-.08-.26-.16-.53-.28-.76-.12-.23-.29-.39-.39-.3Z" style="fill: #fff; stroke-width: 0px;"/>
                </g>
                <g>
                  <path d="m123.5,134.5c.11,1.76-.37,3.25-1.16,3.33-.77.08-1.56-1.34-1.67-3.17-.07-1.84.51-3.33,1.29-3.34.78,0,1.47,1.42,1.54,3.18Z" style="fill: #ffa258; stroke-width: 0px;"/>
                  <path d="m123.03,133.24c.02.59-.17,1.07-.43,1.09-.26.01-.49-.46-.51-1.05-.02-.6.17-1.08.43-1.09.26,0,.49.46.51,1.05Z" style="fill: #fff; stroke-width: 0px;"/>
                </g>
              </g>
              <g>
                <g>
                  <g>
                    <path d="m303.07,151.87c.15-.22.81-1.18,1.84-2.7.49-.77,1.03-1.71,1.67-2.76.31-.53.64-1.08.99-1.66.31-.6.64-1.23.98-1.88.34-.65.7-1.33,1.06-2.03.36-.7.67-1.46,1.02-2.21.34-.76.69-1.54,1.05-2.33.34-.8.63-1.64.96-2.48.31-.85.67-1.69.97-2.57.28-.88.56-1.77.85-2.67.62-1.78,1.02-3.65,1.51-5.49,1.85-7.42,2.38-15.04,2.32-20.72-.05-1.42-.09-2.72-.12-3.88,0-.58-.05-1.12-.1-1.62-.04-.5-.07-.95-.1-1.37-.12-1.66-.13-2.62-.01-2.64.12-.02.36.9.7,2.55.08.42.17.87.27,1.37.1.5.21,1.04.26,1.62.13,1.17.28,2.49.44,3.92.47,5.76.3,13.59-1.29,21.29-.43,1.91-.77,3.86-1.34,5.72-.26.94-.52,1.87-.78,2.79-.28.92-.61,1.8-.91,2.69-.31.88-.59,1.76-.91,2.6-.34.83-.68,1.65-1.01,2.45-.34.79-.63,1.59-.99,2.32-.36.74-.7,1.45-1.04,2.14-.34.69-.66,1.35-.97,1.98-.34.62-.67,1.2-.98,1.76-.63,1.11-1.17,2.1-1.66,2.92-1.04,1.6-1.7,2.62-1.86,2.85-.31.46-.64.88-.99,1.23-.36.33-.73.61-1.07.8-.69.4-1.3.49-1.67.2s-.45-.9-.27-1.64c.09-.37.24-.78.45-1.2.2-.43.43-.89.73-1.33Z" style="fill: #ffa258; stroke-width: 0px;"/>
                    <path d="m303.63,152.82c.21.2.72-.1,1.15-.57.43-.46.79-1.05,1.14-1.62.5-.76.9-1.58,1.34-2.37l1.29-2.4c.81-1.63,1.54-3.28,2.3-4.92.15-.38.31-.83.24-1.06-.07-.23-.34-.11-.56.17-.22.27-.38.66-.58,1l-1.22,2.32c-.42.77-.79,1.56-1.26,2.29l-1.36,2.24-.68,1.12c-.23.37-.49.72-.74,1.08-.34.48-.68.98-.92,1.49-.24.51-.34,1.05-.15,1.23Z" style="fill: #fff; stroke-width: 0px;"/>
                  </g>
                  <path d="m311.72,138.13c.12,0,.29-.16.42-.36.14-.2.25-.44.36-.68.3-.61.5-1.26.71-1.9.08-.24.15-.49.18-.71.03-.23,0-.43-.1-.47-.11-.04-.28.12-.41.33-.13.22-.23.48-.33.73-.19.47-.35.96-.57,1.43-.15.33-.3.67-.38,1-.07.33-.04.64.13.64Z" style="fill: #fff; stroke-width: 0px;"/>
                </g>
                <g>
                  <path d="m295.61,160.81c.42-.4.81-.8,1.21-1.12.4-.32.8-.57,1.18-.75.76-.36,1.43-.42,1.83-.09.4.33.44,1,.18,1.82-.13.41-.34.86-.61,1.32-.28.46-.61.95-1.04,1.37-1.72,1.75-3.68,2.56-4.39,1.81-.71-.75.03-2.71,1.65-4.36Z" style="fill: #ffa258; stroke-width: 0px;"/>
                  <path d="m294.83,162.4c.54-.55,1.18-.81,1.43-.58.25.23,0,.88-.55,1.44-.55.56-1.19.82-1.43.58-.24-.24,0-.89.55-1.44Z" style="fill: #fff; stroke-width: 0px;"/>
                </g>
              </g>
              <g>
                <g>
                  <g>
                    <path d="m304.64,87.12c-.04-.21-.19-1.13-.43-2.57-.14-.72-.35-1.56-.56-2.51-.11-.48-.22-.98-.34-1.51-.15-.52-.31-1.06-.47-1.63-.16-.57-.33-1.15-.5-1.76-.18-.6-.41-1.21-.63-1.84-.22-.63-.44-1.27-.67-1.93-.25-.65-.53-1.3-.81-1.97-.28-.66-.54-1.35-.85-2.02-.32-.67-.65-1.34-.97-2.01-.62-1.37-1.41-2.68-2.13-4.02-2.99-5.31-6.85-10.04-9.98-13.32-.8-.8-1.53-1.54-2.19-2.2-.32-.34-.64-.62-.94-.89-.29-.27-.56-.52-.81-.74-.97-.91-1.5-1.46-1.45-1.53.06-.08.7.33,1.79,1.11.28.2.58.41.9.65.33.24.68.49,1.03.8.72.61,1.52,1.3,2.39,2.04,3.41,3.1,7.59,7.74,10.89,13.08.8,1.34,1.67,2.66,2.36,4.05.36.69.72,1.37,1.08,2.04.34.68.64,1.38.95,2.05.3.68.62,1.34.9,2.01.26.67.51,1.33.76,1.97.24.65.5,1.27.71,1.89.2.62.39,1.23.58,1.81.19.58.36,1.14.53,1.68.14.54.27,1.06.4,1.56.25.99.48,1.86.65,2.6.28,1.5.46,2.45.5,2.67.07.44.12.86.11,1.25-.02.39-.08.75-.17,1.05-.18.61-.48,1-.85,1.04-.37.04-.75-.27-1.06-.79-.15-.26-.29-.58-.4-.94-.12-.36-.24-.75-.31-1.17Z" style="fill: #ffa258; stroke-width: 0px;"/>
                    <path d="m305.49,87.36c.23,0,.36-.46.35-.96,0-.5-.12-1.04-.23-1.56-.13-.71-.35-1.41-.53-2.11l-.58-2.09c-.43-1.38-.92-2.75-1.38-4.11-.12-.3-.28-.65-.45-.75-.17-.1-.25.13-.23.4.02.28.14.59.22.9l.57,2.01c.18.67.4,1.33.53,2.02l.45,2.04.22,1.02c.07.34.11.69.17,1.03.07.46.15.94.3,1.37.15.42.38.79.59.79Z" style="fill: #fff; stroke-width: 0px;"/>
                  </g>
                  <path d="m302.07,74.42c.07-.07.08-.25.05-.44-.03-.19-.1-.39-.17-.59-.16-.52-.4-1-.63-1.49-.09-.18-.18-.36-.29-.51-.11-.15-.24-.25-.32-.22-.09.04-.1.22-.06.42.04.2.13.4.21.6.15.38.32.75.45,1.14.09.27.19.55.33.79.14.23.33.39.43.3Z" style="fill: #fff; stroke-width: 0px;"/>
                </g>
                <g>
                  <path d="m305.28,96.39c.02-.46.02-.91.08-1.31.05-.41.14-.77.26-1.09.24-.63.59-1.03,1-1.06.41-.03.8.33,1.11.95.15.31.28.68.38,1.1.1.42.17.88.16,1.37-.02,1.96-.7,3.51-1.52,3.47-.82-.04-1.48-1.57-1.46-3.42Z" style="fill: #ffa258; stroke-width: 0px;"/>
                  <path d="m305.71,97.74c0-.62.23-1.12.5-1.12.27,0,.49.5.48,1.13,0,.63-.23,1.13-.5,1.12-.27,0-.49-.51-.48-1.13Z" style="fill: #fff; stroke-width: 0px;"/>
                </g>
              </g>
            </g>
            <path d="m146.42,176.12c.06.14.46,1.22,1.19,2.71.72,1.49,1.82,3.36,3.13,5.08,1.29,1.73,2.79,3.29,3.96,4.42,1.17,1.12,2.01,1.84,1.9,2-.09.14-1.12-.29-2.53-1.2-1.41-.92-3.18-2.34-4.74-4.02-.79-.83-1.51-1.73-2.17-2.6-.64-.88-1.22-1.74-1.66-2.52-.91-1.55-1.41-2.71-1.48-2.86-.24-.61.11-1.31.79-1.56.68-.25,1.4,0,1.62.56Z" style="fill: #ffa258; stroke-width: 0px;"/>
            <path d="m128.72,111.73c0-.15-.11-1.31-.08-2.96.03-1.65.23-3.79.69-5.85.44-2.07,1.14-4.04,1.79-5.45.65-1.41,1.23-2.26,1.38-2.2.16.07-.13,1.05-.49,2.51-.36,1.46-.79,3.42-.99,5.41-.23,1.99-.25,4.01-.15,5.54.08,1.54.25,2.6.26,2.74.07.55-.41,1.07-1.07,1.17-.66.1-1.25-.31-1.33-.92Z" style="fill: #ffa258; stroke-width: 0px;"/>
            <path d="m206.7,36.91c.28-.04,2.44-.39,5.54-.65,3.1-.28,7.14-.43,11.13-.27,3.99.14,7.91.62,10.8,1.17,2.89.56,4.76,1.16,4.71,1.46-.05.32-1.99.32-4.88.32-2.89,0-6.74.02-10.59.3-3.85.25-7.71.73-10.65,1.22-2.94.48-4.98.93-5.24.98-1.06.2-2.12-.65-2.38-1.89-.26-1.25.44-2.43,1.56-2.64Z" style="fill: #ffa258; stroke-width: 0px;"/>
            <path d="m231,31.06c.51.09,14.56,3.18,14.46,3.77-.11.58-14.34-1.56-14.85-1.65-.51-.09-.83-.64-.72-1.23.11-.58.61-.98,1.11-.89Z" style="fill: #ffa258; stroke-width: 0px;"/>
            <path d="m185.82,37.84c.18-.09,1.6-.76,3.67-1.58,2.07-.82,4.8-1.76,7.57-2.48,2.76-.74,5.54-1.24,7.64-1.48,2.1-.24,3.5-.23,3.53-.01.04.23-1.29.65-3.27,1.27-1.98.62-4.61,1.45-7.19,2.45-2.59.98-5.14,2.11-7.06,3.05-1.92.93-3.23,1.66-3.41,1.74-.69.35-1.59-.01-2.02-.82-.43-.8-.19-1.76.54-2.13Z" style="fill: #ffa258; stroke-width: 0px;"/>
            <path d="m314.81,159.96c-.14.23-1.23,1.98-2.91,4.4-1.67,2.42-3.96,5.48-6.4,8.37-2.42,2.9-5,5.61-7.04,7.53-2.04,1.91-3.52,3.04-3.73,2.84-.22-.21.83-1.73,2.45-3.96,1.62-2.24,3.79-5.2,5.84-8.27,2.07-3.06,4.03-6.22,5.47-8.68,1.44-2.46,2.39-4.22,2.53-4.44.52-.89,1.79-1.14,2.84-.54,1.05.6,1.47,1.83.94,2.76Z" style="fill: #ffa258; stroke-width: 0px;"/>
            <path d="m143.06,167.83c.45,1.38.33,2.66-.27,2.86-.6.19-1.45-.77-1.9-2.15-.45-1.38-.33-2.66.27-2.86.6-.19,1.45.77,1.9,2.15Z" style="fill: #ffa258; stroke-width: 0px;"/>
            <path d="m132.14,119.09c.62,1.57.56,3.07-.12,3.34-.68.27-1.74-.79-2.35-2.37-.62-1.57-.56-3.07.12-3.34.68-.27,1.74.79,2.35,2.37Z" style="fill: #ffa258; stroke-width: 0px;"/>
            <path d="m222.73,32.67c-1.57.05-2.86-.47-2.88-1.15-.02-.68,1.24-1.27,2.81-1.32,1.57-.05,2.86.47,2.88,1.15.02.68-1.24,1.27-2.81,1.32Z" style="fill: #ffa258; stroke-width: 0px;"/>
            <path d="m179.34,44.31c-1.26.93-2.61,1.24-3.01.7-.4-.55.29-1.74,1.55-2.68,1.26-.93,2.61-1.24,3.01-.7.4.55-.29,1.74-1.55,2.68Z" style="fill: #ffa258; stroke-width: 0px;"/>
            <path d="m316.85,147.21c.55-1.13,1.12-2.12,1.71-2.88.59-.75,1.21-1.26,1.85-1.2.63.06,1.16.75,1.35,1.89.19,1.13-.01,2.71-.76,4.23-.75,1.52-1.87,2.65-2.88,3.19-1.02.55-1.88.55-2.32.09-.44-.47-.42-1.27-.19-2.2.24-.93.68-1.99,1.23-3.12Z" style="fill: #ffa258; stroke-width: 0px;"/>
            <path d="m273.64,155.89c1.54-2.05,3.5-3.17,4.39-2.5.89.67.36,2.86-1.17,4.91-1.54,2.05-3.5,3.17-4.39,2.5-.89-.67-.36-2.86,1.17-4.91Z" style="fill: #ffa258; stroke-width: 0px;"/>
          </g>
          <g>
            <path d="m210.51,62.24c-2.89-3.98-6.36-6.31-11.37-7.49-5-1.18-11.04,0-15.28,3.72-4.24,3.73-5.66,9.72-4.81,15.21l31.45-11.45Z" style="fill: #66a662; stroke-width: 0px;"/>
            <path d="m197.99,75.71c4.11-2.65,8.02-5.65,11.64-8.96,1.96-1.8,1.7-4.71-.5-5.61-2.32-.95-4.69-1.78-7.18-2.31-4.07-.87-8.54-.92-12.75.62-4.21,1.54-8.09,4.83-9.64,8.95s-.32,8.92,3.3,10.73c2.23,1.12,5.06,1.05,7.69.28s5.09-2.18,7.45-3.7Z" style="fill: #aca827; stroke-width: 0px;"/>
            <path d="m181.65,76.73c-1.71-2.02-2.14-5.28-1.08-8.1,1.33-3.54,4.73-6.68,8.88-8.2,3.58-1.31,7.77-1.51,12.12-.57,2.12.46,4.35,1.18,7.02,2.26.32.13.59.32.79.57.68.81.7,2.27-.44,3.32-3.56,3.26-7.42,6.23-11.46,8.82-2.07,1.33-4.53,2.79-7.12,3.55-2.64.77-5.09.69-6.91-.22-.69-.35-1.29-.83-1.8-1.43h0Z" style="fill: #e6d325; stroke-width: 0px;"/>
            <g>
              <path d="m185.56,70.56c.37-1.14,1.23-2.14,2.26-2.84,1.03-.7,2.22-1.11,3.4-1.32,2.34-.43,4.7-.09,6.65.9-.48-.94-1.44-1.63-2.51-1.92-1.43-.39-3.04-.19-4.58.17-1.6.38-3.24.96-4.55,2.05s-2.24,2.76-2.02,4.28c.17,1.17.99,2.06,2.05,2.57-.06-.07-.11-.14-.16-.22-.69-1.02-.95-2.38-.53-3.66Z" style="fill: #993918; stroke-width: 0px;"/>
              <path d="m192.01,74.39c1.5-.42,3.01-1.02,4.23-2.06,1.22-1.04,2.09-2.59,1.93-4.03-.04-.37-.15-.71-.31-1.02-1.95-.99-4.31-1.33-6.65-.9-1.18.22-2.37.63-3.4,1.32-1.03.7-1.89,1.71-2.26,2.84-.42,1.29-.17,2.65.53,3.66.05.07.11.14.16.22.32.15.65.27.99.35,1.51.34,3.17.06,4.76-.39Z" style="fill: #b55230; stroke-width: 0px;"/>
            </g>
          </g>
          <g>
            <path d="m251.63,77.81c-.43-.39-1.03-.31-1.35.17-.86,1.29-1.58,2.64-2.19,4.02-.33.69-.63,1.39-.9,2.1-.27.7-.48,1.41-.73,2.12.09-.77.12-1.53.22-2.29.08-.76.25-1.54.36-2.31.22-1.53.66-3.09,1.04-4.63.15-.55-.15-1.16-.67-1.35-.51-.18-1.05.12-1.2.67-.32,1.11-.52,2.2-.77,3.3-.25,1.1-.4,2.18-.56,3.27-.47-1.04-1.09-2.01-1.73-2.91-.67-.9-1.47-1.7-2.28-2.42-.38-.34-.98-.28-1.34.11-.36.39-.35.95.03,1.28.43.36.84.75,1.23,1.16.38.42.71.87,1.04,1.33.33.47.63.95.92,1.45.25.51.49,1.03.7,1.57-.5-.56-.99-1.09-1.55-1.57-.57-.48-1.16-.92-1.76-1.31-1.17-.8-2.53-1.41-3.88-1.84-.48-.15-1.04.09-1.26.51-.22.42-.02.87.46,1.03,3.86,1.29,7.2,4.25,8.97,8.21,0,.44,0,.88.02,1.32-.04.51-.06,1.02-.16,1.52-.1.5-.21,1-.35,1.49-.14.5.17,1.02.68,1.17.08.02.15.03.23.04.43.02.84-.25.95-.7l.1-.4s.08.02.12.02h.06c.5.02.94-.37.98-.9l.04-.39c.17-.23.26-.53.17-.83l-.05-.18c.11-1.07.35-2.14.63-3.19.24-1.06.58-2.11.99-3.15.72-2.06,1.8-4.1,3-5.93.32-.47.22-1.19-.21-1.58Z" style="fill: #66a662; stroke-width: 0px;"/>
            <g>
              <path d="m238.47,100.48c-.05.52-.1,1.08-.15,1.65,3.52.36,7.05.64,10.6.83-3.48-.86-6.96-1.69-10.45-2.47Z" style="fill: #ff5341; stroke-width: 0px;"/>
              <path d="m238.74,94.93c-.04.19-.07.39-.09.59-.02.17-.03.41-.04.7,1.88-.03,3.76-.09,5.65-.17-1.84-.41-3.68-.78-5.52-1.13Z" style="fill: #ff5341; stroke-width: 0px;"/>
              <path d="m248.35,107.72c.16-.41.32-.81.48-1.21-1.76-.07-3.5-.16-5.25-.29l4.76,1.5Z" style="fill: #ff5341; stroke-width: 0px;"/>
              <path d="m250.74,99.96c.13-.55.24-1.06.3-1.52-1.88.2-3.77.36-5.67.48l5.38,1.04Z" style="fill: #ff5341; stroke-width: 0px;"/>
              <path d="m240.38,120.51c.34-.39.7-.79,1.06-1.2l-2.78-1.07c.58.74,1.16,1.49,1.72,2.26Z" style="fill: #ff5341; stroke-width: 0px;"/>
              <path d="m243.59,106.22c1.74.13,3.49.23,5.25.29.47-1.21.8-2.4,1.15-3.5.33-1.1.54-2.14.75-3.05l-5.38-1.04c1.91-.12,3.79-.28,5.67-.48.14-.91.23-1.61.27-2.02.11-.98-.09-1.93-.37-2.78-.31-.85-.73-1.61-1.34-2.22-1.19-1.23-2.8-1.88-4.55-1.79-1.63.09-3.1.77-4.19,1.72-.27.24-.52.5-.75.77-.24.27-.45.56-.64.86-.37.6-.61,1.25-.72,1.94,1.84.35,3.68.72,5.52,1.13-1.88.08-3.77.13-5.65.17-.02.46,0,1.07-.03,1.79-.04.72-.08,1.55-.11,2.47,3.49.79,6.97,1.61,10.45,2.47-3.55-.19-7.09-.47-10.6-.83-.04.43-.06.88-.12,1.34-.06.45-.12.92-.19,1.39-.07.47-.11.96-.19,1.44-.09.48-.18.97-.27,1.46l5.35,2.2c-1.85-.36-3.7-.74-5.53-1.16-.7,3.58-1.81,7.18-2.69,10-.23.7-.4,1.38-.57,1.98-.18.59-.32,1.13-.4,1.61-.16.95-.1,1.64.26,1.94.43.35,1.26.14,2.4-.51,1.17-.63,2.51-1.81,3.99-3.3-.56-.77-1.14-1.53-1.72-2.26l2.78,1.07c.41-.5.88-.99,1.27-1.55.4-.56.81-1.13,1.22-1.71l-4.46-2.47c1.82.37,3.62.68,5.44.95.64-1.09,1.33-2.2,1.87-3.36.28-.58.56-1.16.84-1.73.27-.57.49-1.16.73-1.74l-4.76-1.5Z" style="fill: #ff7149; stroke-width: 0px;"/>
              <path d="m243.93,116.05c.17-.25.34-.49.51-.74l.47-.77c-1.82-.27-3.62-.58-5.44-.95l4.46,2.47Z" style="fill: #ff5341; stroke-width: 0px;"/>
              <path d="m237.56,107.76l-.18,1.04c1.83.41,3.68.8,5.53,1.16l-5.35-2.2Z" style="fill: #ff5341; stroke-width: 0px;"/>
            </g>
          </g>
          <g>
            <path d="m160.55,136.91c-.56.45-1.1.92-1.64,1.4,1.13,3.96,3.37,8.52,5.12,11.26-2.73-2.52-5.14-6.43-6.82-9.65-.61.61-1.2,1.24-1.77,1.89,2.2,3.78,4.92,7.26,8.06,10.3-3.74-2.04-7.3-4.4-10.63-7.04-1.02,1.44-1.96,2.94-2.77,4.5,4.09.72,7.98,2.57,11.07,5.35-4.25-1.22-8.77-1.44-13.12-.65-.56,1.61-1,3.26-1.3,4.92,2.89-1.89,6.37-2.85,9.82-2.71,3.45.14,6.84,1.39,9.57,3.51,3.2-.53,6.35-3.24,6.56-6.48-5.88-3.8-10.46-9.8-12.15-16.6Z" style="fill: #a6bf48; stroke-width: 0px;"/>
            <g>
              <path d="m141.22,157.87c2.72-.18,4.82-2.46,5.39-5.12.97.97,2.6,1.21,3.8.55,1.2-.66,1.8-2.29,1.49-3.63,1.2.1,2.43-.62,2.93-1.71.51-1.09-.06-2.85-.91-3.71,2.62-1.41,3.66-5.13,2.16-7.7-1.5-2.57-5.48-3.51-8-1.92-.97-1.74-2.82-2.96-4.8-3.19-.17.09-.35.19-.51.31-2.02,1.42-2.95,5.05-2,7.33-1.55-1.04-3.74-1.03-5.28.02s-2.36,3.08-1.96,4.9c.39,1.83,1.97,3.34,3.81,3.66-1.09.49-1.92,2.06-1.68,3.23.25,1.17,1.38,2.09,2.57,2.1-.49,1.49-.24,3.13.51,4.5.79.29,1.63.42,2.48.37Z" style="fill: #66a662; stroke-width: 0px;"/>
              <path d="m162.73,132.06c-1.78-1.86-5.17-1.77-6.85.17-.41-1.32-1.73-2.3-3.11-2.31-1.38,0-2.71.95-3.14,2.27-1.68-1.53-4.35-1.81-6.34-.74,1.98.23,3.83,1.45,4.8,3.19,2.51-1.59,6.49-.65,8,1.92,1.5,2.57.46,6.29-2.16,7.7.85.85,1.42,2.61.91,3.71-.51,1.09-1.73,1.81-2.93,1.71.31,1.34-.29,2.97-1.49,3.63-1.2.66-2.83.43-3.8-.55-.57,2.66-2.68,4.95-5.39,5.12-.84.05-1.69-.08-2.48-.37.8,1.46,2.15,2.62,3.79,2.97,3.17.67,6.64-1.86,6.96-5.09,1.62,1.12,3.99.98,5.47-.31,1.48-1.3,1.92-3.63,1.02-5.38,1.26.12,2.57-.47,3.32-1.49.75-1.02.92-2.45.43-3.62,1.39.17,3.3-.7,3.78-2.01.48-1.31-.07-2.92-1.24-3.68,2.01-1.6,2.24-4.98.46-6.84Z" style="fill: #008c84; stroke-width: 0px;"/>
            </g>
            <g>
              <path d="m143.85,150.56c.4-.25.02-.87-.38-.63-.4.25-.02.87.38.63h0Z" style="fill: #00736a; stroke-width: 0px;"/>
              <path d="m145.92,151.66c.4-.25.02-.87-.38-.63-.4.25-.02.87.38.63h0Z" style="fill: #00736a; stroke-width: 0px;"/>
              <path d="m145.8,148.83c.4-.25.02-.87-.38-.63-.4.25-.02.87.38.63h0Z" style="fill: #00736a; stroke-width: 0px;"/>
              <path d="m145.23,150.36c.4-.25.02-.87-.38-.63-.4.25-.02.87.38.63h0Z" style="fill: #00736a; stroke-width: 0px;"/>
              <path d="m143.45,141.33c.4-.25.02-.87-.38-.63-.4.25-.02.87.38.63h0Z" style="fill: #00736a; stroke-width: 0px;"/>
              <path d="m145.32,142.44c.4-.25.02-.87-.38-.63-.4.25-.02.87.38.63h0Z" style="fill: #00736a; stroke-width: 0px;"/>
              <path d="m146.9,141.15c.4-.25.02-.87-.38-.63-.4.25-.02.87.38.63h0Z" style="fill: #00736a; stroke-width: 0px;"/>
              <path d="m145.36,139.18c.4-.25.02-.87-.38-.63-.4.25-.02.87.38.63h0Z" style="fill: #00736a; stroke-width: 0px;"/>
              <path d="m144.97,140.82c.4-.25.02-.87-.38-.63-.4.25-.02.87.38.63h0Z" style="fill: #00736a; stroke-width: 0px;"/>
              <path d="m138.3,142.77c.4-.25.02-.87-.38-.63-.4.25-.02.87.38.63h0Z" style="fill: #00736a; stroke-width: 0px;"/>
              <path d="m139.02,146.74c.4-.25.02-.87-.38-.63-.4.25-.02.87.38.63h0Z" style="fill: #00736a; stroke-width: 0px;"/>
              <path d="m140.09,146.2c.4-.25.02-.87-.38-.63-.4.25-.02.87.38.63h0Z" style="fill: #00736a; stroke-width: 0px;"/>
              <path d="m138.72,144.67c.4-.25.02-.87-.38-.63-.4.25-.02.87.38.63h0Z" style="fill: #00736a; stroke-width: 0px;"/>
              <path d="m154.96,137.27c.4-.25.02-.87-.38-.63-.4.25-.02.87.38.63h0Z" style="fill: #00736a; stroke-width: 0px;"/>
              <path d="m155.85,139.42c.4-.25.02-.87-.38-.63-.4.25-.02.87.38.63h0Z" style="fill: #00736a; stroke-width: 0px;"/>
              <path d="m157.59,139.1c.4-.25.02-.87-.38-.63-.4.25-.02.87.38.63h0Z" style="fill: #00736a; stroke-width: 0px;"/>
              <path d="m157.65,136.91c.4-.25.02-.87-.38-.63-.4.25-.02.87.38.63h0Z" style="fill: #00736a; stroke-width: 0px;"/>
              <path d="m156.18,138.03c.4-.25.02-.87-.38-.63-.4.25-.02.87.38.63h0Z" style="fill: #00736a; stroke-width: 0px;"/>
              <path d="m152.33,143.52c.4-.25.02-.87-.38-.63-.4.25-.02.87.38.63h0Z" style="fill: #00736a; stroke-width: 0px;"/>
              <path d="m152.21,145.42c.4-.25.02-.87-.38-.63-.4.25-.02.87.38.63h0Z" style="fill: #00736a; stroke-width: 0px;"/>
              <path d="m153.71,145.58c.4-.25.02-.87-.38-.63-.4.25-.02.87.38.63h0Z" style="fill: #00736a; stroke-width: 0px;"/>
              <path d="m153.58,143.61c.4-.25.02-.87-.38-.63-.4.25-.02.87.38.63h0Z" style="fill: #00736a; stroke-width: 0px;"/>
              <path d="m149.67,137.08c.4-.25.02-.87-.38-.63-.4.25-.02.87.38.63h0Z" style="fill: #00736a; stroke-width: 0px;"/>
              <path d="m151.59,137.4c.4-.25.02-.87-.38-.63-.4.25-.02.87.38.63h0Z" style="fill: #00736a; stroke-width: 0px;"/>
              <path d="m150.01,134.82c.4-.25.02-.87-.38-.63-.4.25-.02.87.38.63h0Z" style="fill: #00736a; stroke-width: 0px;"/>
              <path d="m141.65,155.58c.4-.25.02-.87-.38-.63-.4.25-.02.87.38.63h0Z" style="fill: #00736a; stroke-width: 0px;"/>
              <path d="m142.56,157.06c.4-.25.02-.87-.38-.63-.4.25-.02.87.38.63h0Z" style="fill: #00736a; stroke-width: 0px;"/>
              <path d="m143.79,156.09c.4-.25.02-.87-.38-.63-.4.25-.02.87.38.63h0Z" style="fill: #00736a; stroke-width: 0px;"/>
              <path d="m144.63,133.6c.4-.25.02-.87-.38-.63-.4.25-.02.87.38.63h0Z" style="fill: #00736a; stroke-width: 0px;"/>
              <path d="m146.15,135.03c.4-.25.02-.87-.38-.63-.4.25-.02.87.38.63h0Z" style="fill: #00736a; stroke-width: 0px;"/>
              <path d="m147.67,132.59c.4-.25.02-.87-.38-.63-.4.25-.02.87.38.63h0Z" style="fill: #00736a; stroke-width: 0px;"/>
            </g>
          </g>
          <g>
            <path d="m259.04,75.43c.7-.21,1.41-.39,2.12-.56,2.65,3.24,5.15,7.75,6.43,10.8-.52-3.74-2.38-8.01-4.1-11.28.86-.15,1.73-.28,2.6-.38,1.88,4.03,3.2,8.31,3.92,12.7.47-4.3.56-8.64.29-12.96,1.8-.02,3.59.08,5.36.3-1.77,3.83-2.49,8.15-1.95,12.34,1.44-4.25,3.89-8.15,7.06-11.33,1.67.46,3.3,1.05,4.86,1.77-3.25,1.32-6.07,3.67-7.95,6.63-1.88,2.96-2.81,6.51-2.62,10.02-2.3,2.37-6.39,3.42-9.21,1.72.24-7.11-2.11-14.41-6.81-19.76Z" style="fill: #a6bf48; stroke-width: 0px;"/>
            <g>
              <path d="m287.74,71.46c-1.72,2.17-4.85,2.6-7.4,1.53.25,1.37-.5,2.87-1.75,3.49-1.25.62-2.96.17-3.9-.86-.62,1.06-1.92,1.67-3.13,1.46-1.21-.21-2.35-1.7-2.56-2.91-2.7,1.36-6.4.08-7.68-2.66-1.27-2.74.25-6.61,3.04-7.79-.89-1.82-.84-4.07.12-5.86.18-.09.36-.18.55-.25,2.36-.87,5.92.47,7.28,2.58.04-1.9,1.31-3.72,3.08-4.4,1.77-.68,3.94-.18,5.23,1.2,1.3,1.39,1.65,3.58.85,5.3,1.04-.63,2.84-.41,3.67.47.83.88.95,2.36.26,3.36,1.53.46,2.75,1.62,3.46,3.04-.22.83-.59,1.61-1.13,2.28Z" style="fill: #66a662; stroke-width: 0px;"/>
              <path d="m253.72,74.44c-.52-2.56,1.51-5.34,4.11-5.62-.87-1.1-.92-2.77-.13-3.93.79-1.16,2.37-1.71,3.71-1.3-.3-2.29,1.01-4.68,3.06-5.72-.96,1.79-1.01,4.04-.12,5.86-2.78,1.18-4.31,5.04-3.04,7.79,1.27,2.74,4.98,4.03,7.68,2.66.22,1.21,1.36,2.7,2.56,2.91,1.21.21,2.51-.4,3.13-1.46.94,1.03,2.65,1.48,3.9.86,1.25-.62,2-2.11,1.75-3.49,2.55,1.06,5.68.63,7.4-1.53.53-.67.91-1.45,1.13-2.28.76,1.51.94,3.32.28,4.88-1.28,3.04-5.4,4.46-8.28,2.86,0,2-1.49,3.9-3.43,4.38-1.94.48-4.14-.51-5.08-2.27-.63,1.12-1.88,1.88-3.17,1.91-1.29.03-2.58-.65-3.27-1.74-.66,1.26-2.5,2.35-3.87,1.99-1.37-.36-2.4-1.75-2.35-3.17-2.5.75-5.46-1.02-5.98-3.58Z" style="fill: #008c84; stroke-width: 0px;"/>
            </g>
            <g>
              <path d="m280.12,69.41c-.44.19-.74-.49-.3-.68.44-.19.74.49.3.68h0Z" style="fill: #00736a; stroke-width: 0px;"/>
              <path d="m279.83,71.77c-.44.19-.74-.49-.3-.68.44-.19.74.49.3.68h0Z" style="fill: #00736a; stroke-width: 0px;"/>
              <path d="m277.54,70.03c-.44.19-.74-.49-.3-.68.44-.19.74.49.3.68h0Z" style="fill: #00736a; stroke-width: 0px;"/>
              <path d="m279.14,70.44c-.44.19-.74-.49-.3-.68.44-.19.74.49.3.68h0Z" style="fill: #00736a; stroke-width: 0px;"/>
              <path d="m272.64,63.72c-.44.19-.74-.49-.3-.68.44-.19.74.49.3.68h0Z" style="fill: #00736a; stroke-width: 0px;"/>
              <path d="m272.48,65.93c-.44.19-.74-.49-.3-.68.44-.19.74.49.3.68h0Z" style="fill: #00736a; stroke-width: 0px;"/>
              <path d="m270.49,66.5c-.44.19-.74-.49-.3-.68.44-.19.74.49.3.68h0Z" style="fill: #00736a; stroke-width: 0px;"/>
              <path d="m269.74,64.08c-.44.19-.74-.49-.3-.68.44-.19.74.49.3.68h0Z" style="fill: #00736a; stroke-width: 0px;"/>
              <path d="m271.34,64.7c-.44.19-.74-.49-.3-.68.44-.19.74.49.3.68h0Z" style="fill: #00736a; stroke-width: 0px;"/>
              <path d="m276.82,60.26c-.44.19-.74-.49-.3-.68.44-.19.74.49.3.68h0Z" style="fill: #00736a; stroke-width: 0px;"/>
              <path d="m279.72,63.17c-.44.19-.74-.49-.3-.68.44-.19.74.49.3.68h0Z" style="fill: #00736a; stroke-width: 0px;"/>
              <path d="m278.65,63.74c-.44.19-.74-.49-.3-.68.44-.19.74.49.3.68h0Z" style="fill: #00736a; stroke-width: 0px;"/>
              <path d="m278.17,61.71c-.44.19-.74-.49-.3-.68.44-.19.74.49.3.68h0Z" style="fill: #00736a; stroke-width: 0px;"/>
              <path d="m262.58,70.98c-.44.19-.74-.49-.3-.68.44-.19.74.49.3.68h0Z" style="fill: #00736a; stroke-width: 0px;"/>
              <path d="m263.86,72.96c-.44.19-.74-.49-.3-.68.44-.19.74.49.3.68h0Z" style="fill: #00736a; stroke-width: 0px;"/>
              <path d="m262.58,74.23c-.44.19-.74-.49-.3-.68.44-.19.74.49.3.68h0Z" style="fill: #00736a; stroke-width: 0px;"/>
              <path d="m260.72,73.01c-.44.19-.74-.49-.3-.68.44-.19.74.49.3.68h0Z" style="fill: #00736a; stroke-width: 0px;"/>
              <path d="m262.51,72.43c-.44.19-.74-.49-.3-.68.44-.19.74.49.3.68h0Z" style="fill: #00736a; stroke-width: 0px;"/>
              <path d="m269.31,72.41c-.44.19-.74-.49-.3-.68.44-.19.74.49.3.68h0Z" style="fill: #00736a; stroke-width: 0px;"/>
              <path d="m270.97,73.41c-.44.19-.74-.49-.3-.68.44-.19.74.49.3.68h0Z" style="fill: #00736a; stroke-width: 0px;"/>
              <path d="m270.24,74.75c-.44.19-.74-.49-.3-.68.44-.19.74.49.3.68h0Z" style="fill: #00736a; stroke-width: 0px;"/>
              <path d="m268.67,73.5c-.44.19-.74-.49-.3-.68.44-.19.74.49.3.68h0Z" style="fill: #00736a; stroke-width: 0px;"/>
              <path d="m265.48,66.45c-.44.19-.74-.49-.3-.68.44-.19.74.49.3.68h0Z" style="fill: #00736a; stroke-width: 0px;"/>
              <path d="m264.64,68.24c-.44.19-.74-.49-.3-.68.44-.19.74.49.3.68h0Z" style="fill: #00736a; stroke-width: 0px;"/>
              <path d="m263.41,65.42c-.44.19-.74-.49-.3-.68.44-.19.74.49.3.68h0Z" style="fill: #00736a; stroke-width: 0px;"/>
              <path d="m285.57,70.48c-.44.19-.74-.49-.3-.68.44-.19.74.49.3.68h0Z" style="fill: #00736a; stroke-width: 0px;"/>
              <path d="m286.28,72.1c-.44.19-.74-.49-.3-.68.44-.19.74.49.3.68h0Z" style="fill: #00736a; stroke-width: 0px;"/>
              <path d="m284.76,72.57c-.44.19-.74-.49-.3-.68.44-.19.74.49.3.68h0Z" style="fill: #00736a; stroke-width: 0px;"/>
              <path d="m265.51,60.23c-.44.19-.74-.49-.3-.68.44-.19.74.49.3.68h0Z" style="fill: #00736a; stroke-width: 0px;"/>
              <path d="m265.82,62.33c-.44.19-.74-.49-.3-.68.44-.19.74.49.3.68h0Z" style="fill: #00736a; stroke-width: 0px;"/>
              <path d="m262.9,62.18c-.44.19-.74-.49-.3-.68.44-.19.74.49.3.68h0Z" style="fill: #00736a; stroke-width: 0px;"/>
            </g>
          </g>
          <ellipse cx="225.84" cy="223.27" rx="52.16" ry="11.69" style="fill: #ff9e3a; stroke-width: 0px;"/>
          <g>
            <path d="m208.08,218.21l1.33,5.76c.37,1.62,1.76,2.8,3.41,2.91,6.41.45,13.72-.07,22.02-1.98,8.3-1.91,15.1-4.64,20.67-7.85,1.44-.83,2.17-2.5,1.8-4.11l-1.33-5.76-47.89,11.03Z" style="fill: #95a4b1; stroke-width: 0px;"/>
            <g>
              <path d="m187.44,207.97c26.19,1.48,52.76-4.42,75.86-16.85,3.63-1.95,7.21-4.09,10.2-6.92,1.77-1.67,3.32-3.62,4.47-5.76.1-2.2-.07-4.08-.39-5.46-2.09-9.06-23.95,2.37-52.64,8.97-28.69,6.61-53.35,5.89-51.27,14.95,1.79,7.76,14.51,26.98,44.03,26.36-11.33-1.85-22.14-7.21-30.27-15.29Z" style="fill: #c3d2d7; stroke-width: 0px;"/>
              <path d="m273.51,184.19c-2.99,2.83-6.57,4.97-10.2,6.92-23.1,12.43-49.67,18.34-75.86,16.85,8.13,8.07,18.94,13.44,30.27,15.29,4.94-.1,10.35-.76,16.26-2.12,34.91-8.04,43.47-30.51,44.01-42.71-1.14,2.14-2.7,4.09-4.47,5.76Z" style="fill: #fff; stroke-width: 0px;"/>
            </g>
            <g>
              <ellipse cx="225.63" cy="184.93" rx="53.31" ry="16.83" transform="translate(-35.74 55.34) rotate(-12.97)" style="fill: #fff; stroke-width: 0px;"/>
              <g>
                <path d="m272.88,174.05c-.77-3.35-6.56-5.78-15.48-6.49-9.71-.77-22.13.43-34.98,3.39-12.85,2.96-24.55,7.31-32.94,12.25-7.71,4.54-11.86,9.25-11.09,12.6.73,3.16,5.9,5.49,13.95,6.35,1.32-2.04,4.01-4.33,7.81-6.57,6.56-3.86,15.7-7.26,25.74-9.57,10.04-2.31,19.75-3.25,27.34-2.65,4.4.35,7.81,1.23,9.89,2.49,6.86-4.29,10.5-8.65,9.77-11.81Z" style="fill: #c3d2d7; stroke-width: 0px;"/>
                <path d="m253.22,183.37c-7.59-.6-17.3.34-27.34,2.65-10.04,2.31-19.18,5.71-25.74,9.57-3.8,2.24-6.49,4.53-7.81,6.57.5.05,1.01.1,1.53.14,9.71.77,22.13-.43,34.98-3.39,12.85-2.96,24.55-7.31,32.94-12.25.45-.27.89-.53,1.32-.8-2.08-1.26-5.5-2.14-9.89-2.49Z" style="fill: #95a4b1; stroke-width: 0px;"/>
              </g>
            </g>
          </g>
          <g>
            <g>
              <path d="m164.5,126.99c-1.68-1.12-3.23-2.63-5.23-2.91-2.14-.31-4.21.89-6.36,1.06-5.34.42-7.12-4.48-7.78-8.8-1.3-8.56-.46-17.43,2.44-25.58,1.03-2.9,2.4-5.78,4.28-8.19-2.77,2.68-4.62,6.36-5.94,10.05-2.9,8.15-3.75,17.03-2.44,25.58.66,4.33,2.44,9.22,7.78,8.8,2.16-.17,4.22-1.37,6.36-1.06,2,.28,3.55,1.8,5.23,2.91,2.08,1.39,4.7,1.66,6.72.59.87-.47,1.63-1.19,2.19-2.18,0,0,0,0,0-.01-.18.12-.36.24-.54.34-2.02,1.08-4.64.8-6.72-.59Z" style="fill: #ffdfbf; stroke-width: 0px;"/>
              <path d="m171.6,117.6c-1.72-4.05-4.63-7.72-5.08-12.09-.41-3.88,1.18-7.64,2.33-11.36,1.15-3.72,1.82-8-.2-11.33-2.69-4.42-9.31-5.08-13.8-2.52-1.1.63-2.09,1.39-2.98,2.26-1.88,2.41-3.25,5.3-4.28,8.19-2.9,8.15-3.75,17.03-2.44,25.58.66,4.33,2.44,9.22,7.78,8.8,2.16-.17,4.22-1.37,6.36-1.06,2,.28,3.55,1.8,5.23,2.91,2.09,1.39,4.7,1.66,6.72.59.19-.1.37-.21.54-.34,1.61-2.88,1.07-6.74-.17-9.64Z" style="fill: #fff; stroke-width: 0px;"/>
            </g>
            <g>
              <path d="m156.14,112.01c-1.26-1.76-1.88-3.91-2.15-6.05-.29-2.28-.19-4.67.7-6.79.75-1.8,2.14-3.38,3.91-4.17-.54-.02-1.07.03-1.59.16-2.23.57-4,2.4-4.89,4.52-.89,2.12-.98,4.51-.7,6.79.27,2.15.88,4.3,2.15,6.05,1.26,1.76,3.24,3.08,5.4,3.2.88.05,1.77-.14,2.58-.51,0,0,0,0,0,0-2.16-.12-4.14-1.44-5.4-3.2Z" style="fill: #ffa429; stroke-width: 0px;"/>
              <path d="m164.11,112.53c.82-2.33-.42-4.84-.62-7.3-.21-2.6.71-5.41-.52-7.7-.84-1.56-2.59-2.45-4.36-2.53-1.76.79-3.15,2.37-3.91,4.17-.89,2.12-.98,4.51-.7,6.79.27,2.15.88,4.3,2.15,6.05,1.26,1.76,3.24,3.08,5.4,3.2,0,0,0,0,0,0,1.17-.54,2.14-1.47,2.57-2.68Z" style="fill: #ffd239; stroke-width: 0px;"/>
            </g>
            <path d="m162.3,100.88c0-.75-.03-1.53-.39-2.18-.36-.65-1.2-1.1-1.88-.79-.57.27-.81.95-.87,1.57-.09.89.06,1.8.44,2.61.28.6.79,1.2,1.45,1.16.5-.03.9-.44,1.08-.91.18-.46.18-.97.17-1.47Z" style="fill: #fff; stroke-width: 0px;"/>
          </g>
          <g>
            <g>
              <path d="m252.95,46.01c-.54,1.39-1.39,2.75-1.28,4.24.12,1.6,1.31,2.9,1.78,4.43,1.15,3.79-2.1,5.86-5.13,7.02-5.97,2.3-12.52,3.1-18.88,2.3-2.26-.28-4.56-.82-6.6-1.79,2.38,1.57,5.33,2.33,8.2,2.69,6.35.8,12.9,0,18.88-2.3,3.02-1.16,6.28-3.23,5.13-7.02-.46-1.53-1.66-2.83-1.78-4.43-.11-1.49.73-2.85,1.28-4.24.67-1.73.46-3.66-.64-4.95-.48-.56-1.12-.99-1.92-1.24,0,0,0,0,0,0,.12.11.23.22.33.34,1.1,1.29,1.31,3.22.64,4.95Z" style="fill: #ffdfbf; stroke-width: 0px;"/>
              <path d="m245.03,42.37c-2.65,1.89-4.84,4.57-7.93,5.59-2.74.91-5.71.36-8.58.12-2.87-.24-6.07-.05-8.15,1.95-2.77,2.65-2.19,7.53.37,10.37.63.69,1.34,1.29,2.11,1.8,2.04.98,4.34,1.51,6.6,1.79,6.35.8,12.9,0,18.88-2.3,3.02-1.16,6.28-3.23,5.13-7.02-.46-1.53-1.66-2.83-1.78-4.43-.11-1.49.74-2.85,1.28-4.24.67-1.73.46-3.66-.64-4.95-.1-.12-.21-.23-.33-.34-2.33-.7-5.04.3-6.94,1.65Z" style="fill: #fff; stroke-width: 0px;"/>
            </g>
            <g>
              <path d="m243.45,54.43c-1.07,1.19-2.52,1.98-4.03,2.51-1.6.57-3.34.88-5.02.57-1.42-.26-2.78-1.01-3.63-2.16.07.39.19.77.37,1.12.77,1.52,2.37,2.51,4.04,2.82,1.67.31,3.41,0,5.02-.57,1.51-.54,2.96-1.32,4.03-2.51,1.07-1.19,1.71-2.83,1.45-4.41-.1-.64-.38-1.26-.77-1.78,0,0,0,0,0,0,.26,1.58-.38,3.22-1.45,4.41Z" style="fill: #ffa429; stroke-width: 0px;"/>
              <path d="m242.56,48.59c-1.81-.22-3.43,1.07-5.17,1.61-1.84.56-4.02.34-5.48,1.6-.99.85-1.36,2.26-1.13,3.55.85,1.15,2.22,1.9,3.63,2.16,1.67.31,3.41,0,5.02-.57,1.51-.54,2.96-1.32,4.03-2.51,1.07-1.19,1.71-2.83,1.45-4.41,0,0,0,0,0,0-.57-.76-1.4-1.31-2.35-1.43Z" style="fill: #ffd239; stroke-width: 0px;"/>
            </g>
            <path d="m234.43,51.74c-.54.12-1.1.26-1.51.63-.41.37-.61,1.04-.27,1.48.28.37.81.43,1.28.38.66-.08,1.29-.33,1.82-.73.39-.3.74-.76.61-1.23-.1-.35-.46-.58-.83-.64-.36-.06-.73.03-1.09.11Z" style="fill: #fff; stroke-width: 0px;"/>
          </g>
          <g>
            <path d="m301.46,129.47c-.04-.29-.03-.61.05-.92.29-1.15,1.31-1.89,2.28-1.65.04.01.08.03.12.04.52-2.2.91-4.42,1.17-6.64l-.66-2.13-.62,1.74c-.73-.56-1.08-1.64-.81-2.73.32-1.27,1.36-2.12,2.44-2.05.02-1.36,0-2.72-.09-4.06l-.66-2.13-.38,2.01c-3.69-.45-7.39-.9-11.08-1.35-.03.25-.06.5-.13.75-.64,2.54-3,4.14-5.29,3.57-2.2-.55-3.52-2.91-3.04-5.35l-.66-2.13-.22,2.03c-2.22-.27-4.44-.54-6.66-.81-.05,2.31-.31,4.66-.75,7l-1.05-.26.66,2.13c.05,0,.1.02.15.03,1.47.37,2.29,2.13,1.84,3.95-.45,1.81-2.01,2.99-3.48,2.62-.17-.04-.34-.11-.49-.19-.14.35-.28.7-.42,1.05l-1.5-.21.68,2.1s0,.02-.01.03c0,0,.02,0,.03,0,.93.23,1.46,1.32,1.19,2.43-.28,1.11-1.26,1.82-2.19,1.58-.33-.08-.61-.28-.82-.54-.62,1.09-1.29,2.14-1.99,3.15l-1.87-.47.66,2.13c1.77,1.44,3.75,2.97,5.86,4.48,0-.45.04-.91.16-1.37.61-2.44,2.77-4.01,4.83-3.49,2.06.51,3.23,2.91,2.62,5.36l-2.94.98.66,2.13c1.37.87,2.76,1.71,4.15,2.5.79-2.55,3.11-4.15,5.32-3.6,1.82.46,3.02,2.23,3.11,4.3l-1.36.92.66,2.13c.79.31,1.58.61,2.35.85,1.74-2.26,3.31-4.66,4.71-7.18l-.66-2.13-.76.45c-.12-.48-.13-1.01,0-1.55.38-1.5,1.71-2.47,2.98-2.15.34.08.63.25.88.48.89-2.03,1.67-4.1,2.34-6.21l-.68-2.14-.63.53Zm-17.67.69c-1.41-.35-2.22-1.99-1.8-3.67.42-1.67,1.9-2.75,3.31-2.39,1.41.35,2.22,1.99,1.8,3.67-.42,1.67-1.9,2.75-3.31,2.39Zm9.37.28c-2.65-.66-4.16-3.75-3.38-6.9.79-3.15,3.57-5.16,6.23-4.5,2.65.66,4.16,3.75,3.38,6.9-.79,3.15-3.57,5.16-6.23,4.5Z" style="fill: #ffa429; stroke-width: 0px;"/>
            <path d="m302.09,128.94c-.97-.24-1.53-1.38-1.24-2.53.29-1.15,1.31-1.89,2.28-1.65.04.01.08.03.12.04.52-2.2.91-4.42,1.17-6.64-.19.01-.39,0-.58-.04-1.18-.3-1.86-1.68-1.51-3.08.32-1.27,1.36-2.12,2.44-2.05.02-1.36,0-2.72-.09-4.06-4.04-.49-8.08-.99-12.12-1.48-.03.25-.06.5-.13.75-.64,2.54-3,4.14-5.29,3.57-2.2-.55-3.52-2.91-3.05-5.35-2.51-.31-5.02-.61-7.54-.92-.06,2.93-.45,5.92-1.14,8.87.05,0,.1.02.15.03,1.47.37,2.29,2.13,1.84,3.95-.45,1.81-2.01,2.99-3.48,2.62-.17-.04-.34-.11-.49-.19-.39,1.01-.81,2-1.26,2.97,0,0,.02,0,.03,0,.93.23,1.46,1.32,1.19,2.43-.28,1.11-1.26,1.82-2.19,1.58-.33-.08-.61-.28-.82-.54-.97,1.7-2.04,3.32-3.2,4.81,1.77,1.44,3.75,2.97,5.86,4.48,0-.45.04-.91.16-1.37.61-2.44,2.77-4.01,4.83-3.49,2.06.51,3.23,2.91,2.62,5.36-.35,1.41-1.22,2.52-2.28,3.11,1.37.87,2.76,1.71,4.15,2.5.79-2.55,3.11-4.15,5.32-3.6,2.31.58,3.62,3.26,2.94,6-.12.49-.3.94-.52,1.36.79.31,1.58.61,2.35.85,1.74-2.26,3.31-4.66,4.71-7.18-1.14-.41-1.77-1.81-1.42-3.24.38-1.5,1.71-2.47,2.98-2.15.34.08.63.25.88.48.89-2.03,1.67-4.1,2.34-6.21,0,0-.01,0-.02,0Zm-18.96-.92c-1.41-.35-2.22-1.99-1.8-3.67s1.9-2.75,3.31-2.39c1.41.35,2.22,1.99,1.8,3.67s-1.9,2.75-3.31,2.39Zm9.37.28c-2.65-.66-4.16-3.75-3.38-6.9.79-3.15,3.57-5.16,6.23-4.5,2.65.66,4.16,3.75,3.38,6.9-.79,3.15-3.57,5.16-6.23,4.5Z" style="fill: #ffd239; stroke-width: 0px;"/>
          </g>
          <g>
            <path d="m261.09,140.96h0s-.01-.02-.01-.02c-.15-.32-.31-.64-.48-.95l-3.18-6.31v2.48c-2.99-2.44-7.07-3.53-10.87-2.81-4.38.83-8.24,4.04-9.85,8.2-2.57,6.63.18,15.18-4.54,20.5-2.41,2.72-6.13,3.74-9.48,5.14-2.54,1.06-5.16,2.66-6.51,4.94h-3.13l2.87,6.18h0c.99,2.05,2.93,3.73,5.11,4.5,3.44,1.21,7.25.63,10.75-.39,11.05-3.21,20.76-10.76,26.6-20.67,2.21-3.76,3.9-7.91,4.2-12.26.2-2.9-.27-5.9-1.49-8.53Z" style="fill: #94282f; stroke-width: 0px;"/>
            <path d="m256.24,132.19c-3.02-3.28-7.79-4.85-12.17-4.02-4.38.83-8.24,4.04-9.85,8.2-2.57,6.63.18,15.18-4.54,20.5-2.41,2.72-6.13,3.74-9.48,5.14-3.35,1.4-6.84,3.74-7.39,7.33-.56,3.6,2.3,7.08,5.73,8.29,3.44,1.21,7.25.63,10.75-.39,11.05-3.21,20.76-10.76,26.6-20.67,2.21-3.76,3.9-7.91,4.2-12.26.3-4.35-.9-8.92-3.86-12.12Z" style="fill: #ffb78c; stroke-width: 0px;"/>
            <path d="m222.78,176.13c-1.28,0-2.46-.19-3.51-.56-2.38-.84-4.7-3.33-4.3-5.89.45-2.9,3.99-4.78,6.07-5.64.62-.26,1.25-.5,1.88-.75,2.99-1.16,6.09-2.36,8.4-4.96,3.27-3.69,3.5-8.4,3.72-12.96.14-2.97.28-5.78,1.22-8.2,1.34-3.47,4.57-6.15,8.22-6.84.63-.12,1.29-.18,1.95-.18,3.1,0,6.16,1.32,8.21,3.54,2.37,2.57,3.57,6.39,3.28,10.49-.25,3.51-1.56,7.32-3.91,11.31-5.56,9.45-14.8,16.62-25.33,19.68-2.27.66-4.2.98-5.9.98h0Z" style="fill: #bb373f; stroke-width: 0px;"/>
            <g>
              <path d="m239.8,146.22c1.46-.98,2.3-2.66,2.8-4.34.5-1.68.73-3.44,1.29-5.11.39-1.17.95-2.28,1.65-3.3.32-.47-.08-1.11-.64-1.01,0,0,0,0-.01,0-2.93.56-5.51,2.71-6.59,5.49-.81,2.09-.94,4.73-1.08,7.52-.01.25-.02.5-.04.76-.02.41.34.73.75.68.66-.08,1.32-.32,1.87-.69Z" style="fill: #f04c54; stroke-width: 0px;"/>
              <path d="m225.64,166.54c-.03-.95-1.03-1.57-1.92-1.22,0,0-.01,0-.02,0l-.08.03c-.59.23-1.17.45-1.74.69-2.73,1.14-4.55,2.65-4.75,3.96-.21,1.35,1.34,2.96,2.87,3.5.62.22,1.31.36,2.07.41.46.03.9-.16,1.19-.51.62-.73,1.15-1.54,1.54-2.42.62-1.39.9-2.92.85-4.44Z" style="fill: #f04c54; stroke-width: 0px;"/>
              <path d="m234.83,164.99c2.46.61,5.18.02,7.17-1.56.7-.56,1.32-1.25,1.66-2.08.34-.83.37-1.81-.05-2.6-.61-1.13-1.99-1.63-3.27-1.71-1.29-.07-2.57.18-3.86.09-.08,0-.17-.01-.25-.02-.79-.09-1.55.29-1.98.95-.38.58-.8,1.15-1.29,1.71-.28.31-.56.61-.86.88-.96.91-.85,2.51.26,3.24.76.5,1.6.87,2.48,1.09Z" style="fill: #f04c54; stroke-width: 0px;"/>
              <path d="m235.19,166.71c-1.91-.4-3.73-1.46-4.91-2.99-.46-.6-1.28-.77-1.94-.41-.29.16-.59.3-.88.45-.61.3-.95.95-.84,1.63.36,2.22.16,4.53-.57,6.65-.25.73.4,1.45,1.14,1.26.29-.07.59-.16.89-.24,4.09-1.19,7.98-3.04,11.5-5.42.4-.27.15-.89-.32-.83-1.36.19-2.73.19-4.07-.09Z" style="fill: #f04c54; stroke-width: 0px;"/>
              <path d="m253.03,135.15c-.89-.97-2.03-1.72-3.28-2.2-.83-.32-1.76-.06-2.32.63-2.17,2.66-3.12,6.35-2.29,9.7.83,3.36,3.39,6.18,6.56,7.52,1.08.46,2.32-.08,2.74-1.18.75-1.96,1.19-3.84,1.31-5.61.24-3.5-.74-6.72-2.71-8.85Z" style="fill: #f04c54; stroke-width: 0px;"/>
              <path d="m246.63,149.31c-.84-1.02-1.63-2.26-2.92-2.56-1.43-.33-2.8.65-4,1.49-.65.46-1.42.89-2.19,1.08-.33.08-.58.35-.62.69-.19,1.58-.49,3.17-1.02,4.71-.15.44.08.91.52,1.04.55.17,1.14.23,1.71.21,1.29-.05,2.56-.41,3.85-.36,1.29.05,2.69.67,3.1,1.89.22.66.12,1.37.04,2.06-.08.69-.12,1.43.21,2.04,0,0,0,0,0,0,.25.46.9.5,1.26.13,2.13-2.24,4-4.71,5.57-7.37.05-.09.1-.17.15-.26.25-.43.04-.97-.43-1.14-2.02-.73-3.86-1.99-5.22-3.65Z" style="fill: #f04c54; stroke-width: 0px;"/>
            </g>
          </g>
          <g>
            <g>
              <path d="m210.43,115.13c-4.68-3.59-9.97-6.37-14.5-10.15-4.28-3.58-7.96-8.38-8.65-13.88-.58.34-1.16.7-1.72,1.07.35,5.89,4.21,11.05,8.74,14.83s9.82,6.56,14.5,10.15c4.25,3.26,8.12,7.47,9.61,12.55.19.64,1.04.8,1.44.26.19-.25.37-.51.55-.77-1.1-5.77-5.31-10.49-9.98-14.07Z" style="fill: #eb8524; stroke-width: 0px;"/>
              <path d="m225.3,101.1c-.79-2.15-1.84-4.2-2.46-6.4-.62-2.2-.76-4.65.25-6.7-10.98-5.6-25.68-4.73-35.9,2.16.02.32.05.64.09.96.69,5.49,4.36,10.3,8.65,13.88,4.53,3.79,9.82,6.56,14.5,10.15,4.67,3.58,8.88,8.3,9.98,14.07,0,.02.01.04.01.06,6.52-7.48,8.3-18.86,4.88-28.17Z" style="fill: #ffb033; stroke-width: 0px;"/>
            </g>
            <g>
              <path d="m197.72,100.35c-2.61-.52-4.46-2.25-4.14-3.85h0s-.19.97-.19.97c-.32,1.61,1.53,3.33,4.14,3.85,2.61.52,4.98-.36,5.31-1.96l.19-.97c-.32,1.61-2.7,2.48-5.31,1.96Z" style="fill: #bb373f; stroke-width: 0px;"/>
              <path d="m198.88,94.53c-2.61-.52-4.98.36-5.31,1.96h0c-.32,1.61,1.53,3.33,4.14,3.85,2.61.52,4.98-.36,5.31-1.96,0,0,0,0,0,0,.32-1.61-1.53-3.33-4.14-3.85Zm3.06,3.64c-.17.86-1.92,1.52-4.01,1.1-2.09-.42-3.45-1.69-3.28-2.56.17-.86,1.92-1.52,4.01-1.1,2.09.42,3.45,1.69,3.28,2.56Z" style="fill: #f04c54; stroke-width: 0px;"/>
              <path d="m198.67,95.61c-2.09-.42-3.84.24-4.01,1.1-.17.86,1.19,2.14,3.28,2.56,2.09.42,3.84-.24,4.01-1.1.17-.86-1.19-2.14-3.28-2.56Z" style="fill: #bb373f; stroke-width: 0px;"/>
            </g>
            <g>
              <path d="m214.7,98.92c-2.66-.03-4.8-1.38-4.79-3.02v.99c-.03,1.64,2.11,2.99,4.77,3.02,2.66.03,4.83-1.28,4.85-2.91v-.99c0,1.64-2.18,2.94-4.84,2.91Z" style="fill: #bb373f; stroke-width: 0px;"/>
              <path d="m214.7,98.92c2.66.03,4.83-1.28,4.85-2.91.02-1.64-2.12-2.99-4.79-3.02-2.66-.03-4.83,1.28-4.85,2.91-.02,1.64,2.12,2.99,4.79,3.02Zm.01-1.1c-2.13-.02-3.71-1.02-3.7-1.9,0-.88,1.61-1.85,3.74-1.82,2.13.02,3.71,1.02,3.7,1.9,0,.88-1.61,1.85-3.74,1.82Z" style="fill: #f04c54; stroke-width: 0px;"/>
              <path d="m214.75,94.09c-2.13-.02-3.73.94-3.74,1.82,0,.88,1.57,1.88,3.7,1.9,2.13.02,3.73-.94,3.74-1.82,0-.88-1.57-1.88-3.7-1.9Z" style="fill: #bb373f; stroke-width: 0px;"/>
            </g>
            <g>
              <path d="m210.16,106.88c-2.33-.03-4.21-1.21-4.19-2.64v.87c-.02,1.43,1.85,2.62,4.18,2.64,2.33.03,4.23-1.12,4.25-2.55v-.87c0,1.43-1.91,2.58-4.24,2.55Z" style="fill: #bb373f; stroke-width: 0px;"/>
              <path d="m210.16,106.88c2.33.03,4.23-1.12,4.25-2.55.02-1.43-1.86-2.62-4.19-2.64-2.33-.03-4.23,1.12-4.25,2.55-.02,1.43,1.86,2.62,4.19,2.64Zm.01-.96c-1.86-.02-3.25-.9-3.24-1.67,0-.77,1.41-1.62,3.27-1.6,1.86.02,3.25.9,3.24,1.67,0,.77-1.41,1.62-3.27,1.6Z" style="fill: #f04c54; stroke-width: 0px;"/>
              <path d="m210.21,102.66c-1.86-.02-3.26.83-3.27,1.6,0,.77,1.37,1.65,3.24,1.67,1.86.02,3.26-.83,3.27-1.6,0-.77-1.37-1.65-3.24-1.67Z" style="fill: #bb373f; stroke-width: 0px;"/>
            </g>
            <g>
              <path d="m219.8,112.48c-2.32-1.18-3.62-3.3-2.89-4.73h0s-.44.87-.44.87c-.73,1.43.57,3.55,2.89,4.73,2.32,1.18,4.8.98,5.53-.45l.44-.87c-.73,1.43-3.2,1.63-5.53.45Z" style="fill: #bb373f; stroke-width: 0px;"/>
              <path d="m222.44,107.3c-2.32-1.18-4.8-.98-5.53.45h0c-.73,1.43.57,3.55,2.89,4.73,2.32,1.18,4.8.98,5.53-.45h0c.73-1.43-.57-3.55-2.89-4.73Zm1.93,4.24c-.39.77-2.22.92-4.07-.03-1.86-.95-2.81-2.51-2.42-3.28.39-.77,2.22-.92,4.07.03,1.86.95,2.81,2.51,2.42,3.28Z" style="fill: #f04c54; stroke-width: 0px;"/>
              <path d="m221.95,108.27c-1.86-.95-3.68-.79-4.07-.03-.39.77.56,2.33,2.42,3.28,1.86.95,3.68.79,4.07.03.39-.77-.56-2.33-2.42-3.28Z" style="fill: #bb373f; stroke-width: 0px;"/>
            </g>
            <g>
              <path d="m218.4,120.22c-1.81-1.47-2.55-3.56-1.64-4.68l-.55.68c-.9,1.11-.17,3.21,1.64,4.68,1.81,1.47,4.01,1.76,4.91.64l.55-.68c-.9,1.11-3.1.83-4.91-.64Z" style="fill: #bb373f; stroke-width: 0px;"/>
              <path d="m221.68,116.18c-1.81-1.47-4.01-1.76-4.91-.64-.9,1.11-.17,3.21,1.64,4.68,1.81,1.47,4.01,1.76,4.91.64.9-1.11.17-3.21-1.64-4.68Zm.89,4.07c-.49.6-2.11.39-3.56-.78-1.45-1.17-1.99-2.72-1.5-3.32.49-.6,2.11-.39,3.56.78,1.45,1.17,1.99,2.72,1.5,3.32Z" style="fill: #f04c54; stroke-width: 0px;"/>
              <path d="m221.07,116.93c-1.45-1.17-3.07-1.38-3.56-.78-.49.6.05,2.14,1.5,3.32,1.45,1.17,3.07,1.38,3.56.78.49-.6-.05-2.14-1.5-3.32Z" style="fill: #bb373f; stroke-width: 0px;"/>
            </g>
            <g>
              <path d="m222.84,87.32c-11.89-6.06-28.11-5.24-39.16,2.2-1.34.9-1.54,2.82-.7,4.21,5-3.2,10.75-5.21,16.66-5.82,6.34-.66,12.85.31,18.73,2.78,1.02.43,2.07.91,3.17.88,1.19-.03,2.34-.71,2.95-1.74-.06-1.03-.65-2.01-1.64-2.51Z" style="fill: #ffcc5e; stroke-width: 0px;"/>
              <path d="m221.53,91.57c-1.11.03-2.15-.45-3.17-.88-5.88-2.47-12.38-3.44-18.73-2.78-5.9.61-11.66,2.63-16.66,5.82.03.04.05.09.07.14.93,1.39,2.82,1.76,4.2.82,9.31-6.27,22.82-7.08,32.84-1.97.5.25,1.03.36,1.55.33,1.04-.06,2.01-.66,2.52-1.65.25-.5.35-1.04.31-1.56-.61,1.02-1.76,1.7-2.95,1.74Z" style="fill: #fd9842; stroke-width: 0px;"/>
            </g>
            <path d="m188.73,91.9c.11,1.75-1.23,3.26-2.98,3.36-1.75.11-3.26-1.23-3.36-2.98-.11-1.75,1.23-3.26,2.98-3.36s3.26,1.23,3.36,2.98Z" style="fill: #eb8524; stroke-width: 0px;"/>
            <g>
              <path d="m217.9,102.49c-.18.35-.04.81.3,1.01.4.24,1,.26,1.4.25.21,0,.35-.23.26-.42-.17-.37-.47-.9-.88-1.15-.38-.23-.88-.1-1.08.31Z" style="fill: #66a662; stroke-width: 0px;"/>
              <path d="m203.4,102.62c.09.27.39.42.66.35.32-.08.63-.37.82-.58.1-.11.06-.29-.08-.34-.27-.1-.68-.21-1.01-.13-.3.07-.48.39-.38.7Z" style="fill: #66a662; stroke-width: 0px;"/>
              <path d="m204.69,93.83c-.17.32-.05.73.26.92.36.22.9.26,1.26.25.19,0,.32-.2.25-.38-.15-.34-.41-.82-.78-1.06-.34-.22-.8-.1-.99.26Z" style="fill: #66a662; stroke-width: 0px;"/>
              <path d="m208.39,92.43c.04.29.32.51.61.48.34-.03.71-.26.95-.44.13-.09.12-.29-.02-.36-.26-.15-.66-.34-1.01-.32-.33.02-.57.31-.53.64Z" style="fill: #66a662; stroke-width: 0px;"/>
              <path d="m212.34,110.93c-.05.22.09.45.3.52.26.08.59,0,.81-.05.12-.03.16-.17.09-.27-.14-.18-.38-.43-.64-.51-.24-.08-.5.07-.56.32Z" style="fill: #66a662; stroke-width: 0px;"/>
              <path d="m206.08,109.17c-.1.3.05.64.34.76.34.14.81.1,1.12.05.17-.03.25-.21.16-.36-.17-.27-.46-.65-.81-.8-.32-.14-.69.02-.81.35Z" style="fill: #66a662; stroke-width: 0px;"/>
              <path d="m200.12,103.46c-.19.21-.17.54.02.73.23.23.62.36.9.42.14.03.28-.09.25-.24-.05-.28-.15-.69-.38-.93-.21-.22-.57-.22-.78.01Z" style="fill: #66a662; stroke-width: 0px;"/>
              <path d="m194.94,93.32c.15.36.57.54.94.41.43-.15.82-.57,1.06-.88.13-.16.05-.4-.15-.46-.38-.11-.96-.22-1.4-.07-.41.13-.62.59-.46,1Z" style="fill: #66a662; stroke-width: 0px;"/>
              <path d="m201.24,91.74c-.2.24-.17.61.06.82.27.25.72.37,1.03.42.16.03.31-.11.27-.28-.07-.31-.21-.76-.48-1.02-.25-.24-.65-.22-.88.06Z" style="fill: #66a662; stroke-width: 0px;"/>
              <path d="m223.48,105.01c-.08.24.05.52.28.61.28.11.66.08.91.03.13-.02.2-.18.13-.29-.14-.22-.38-.53-.66-.65-.26-.11-.57.02-.66.29Z" style="fill: #66a662; stroke-width: 0px;"/>
              <path d="m221.23,96.94c-.33-.02-.63.24-.67.57-.05.39.13.85.27,1.15.08.16.29.19.41.06.22-.25.53-.66.59-1.05.05-.37-.22-.7-.59-.73Z" style="fill: #66a662; stroke-width: 0px;"/>
              <path d="m212.07,100.57c-.13.23-.05.54.17.69.26.17.66.21.93.21.14,0,.24-.14.19-.27-.1-.25-.29-.62-.55-.8-.25-.17-.59-.09-.74.17Z" style="fill: #66a662; stroke-width: 0px;"/>
              <path d="m215.24,113.48c-.29.05-.49.34-.45.63.04.34.3.7.49.93.1.12.29.1.36-.04.14-.26.31-.68.27-1.03-.04-.33-.34-.55-.67-.49Z" style="fill: #66a662; stroke-width: 0px;"/>
              <path d="m223.55,115.69c-.13.25-.04.57.2.71.28.17.7.19.98.19.15,0,.25-.16.19-.29-.12-.26-.32-.64-.61-.81-.26-.17-.62-.07-.77.21Z" style="fill: #66a662; stroke-width: 0px;"/>
            </g>
          </g>
          <g>
            <path d="m187.7,112.25c-.57-.12-1.17.24-1.33.81-.43,1.55-.65,3.16-.66,4.79.02,1.61.21,3.26.65,4.83-1.61-2.94-2.52-6.22-2.56-9.55,0-.59-.5-1.04-1.1-1.02-.6.03-1.09.53-1.08,1.12.03,2.44.49,4.87,1.31,7.19-1.03-.77-2.08-1.5-3.21-2.15-1.12-.66-2.26-1.26-3.47-1.78-.56-.24-1.22,0-1.46.57-.24.56.04,1.22.61,1.47,1.26.56,2.48,1.2,3.65,1.91.58.36,1.15.73,1.7,1.13.56.39,1.11.79,1.64,1.22-.82-.29-1.66-.55-2.5-.79-.83-.24-1.68-.46-2.54-.64-1.73-.36-3.46-.63-5.23-.77-.62-.05-1.14.42-1.15,1.05-.01.63.49,1.19,1.1,1.23,5.14.36,10.12,1.83,14.56,4.16.32.4.66.79,1,1.17.71.96,1.38,1.95,1.98,2.98.31.53.98.72,1.5.41.08-.04.15-.1.21-.16.36-.35.45-.9.19-1.35l-.24-.4s.08-.05.11-.08l.05-.05c.42-.4.47-1.05.1-1.49l-.26-.33c-.03-.31-.2-.6-.48-.79l-.17-.11c-2.61-3.88-3.43-8.88-2.19-13.34.16-.57-.18-1.13-.75-1.25Z" style="fill: #a6bf48; stroke-width: 0px;"/>
            <g>
              <path d="m192.2,141.45c.57.42,1.16.87,1.78,1.33,2.32-3.32,4.66-6.62,7.04-9.89l-8.83,8.56Z" style="fill: #ff5341; stroke-width: 0px;"/>
              <path d="m186.52,136.49c.17.21.35.41.54.61.16.17.4.39.7.66l4.02-5.05c-1.74,1.27-3.5,2.53-5.26,3.78Z" style="fill: #ff5341; stroke-width: 0px;"/>
              <path d="m204.99,135.62c-.29-.33-.58-.65-.86-.97-1.02,1.71-2.03,3.42-3.03,5.15l3.89-4.18Z" style="fill: #ff5341; stroke-width: 0px;"/>
              <path d="m199.73,129.58c-.37-.42-.7-.8-.99-1.14-1.23,1.78-2.44,3.58-3.63,5.38l4.62-4.23Z" style="fill: #ff5341; stroke-width: 0px;"/>
              <path d="m215.41,147.1c-.36-.41-.74-.83-1.12-1.26l-1.55,3.02,2.67-1.76Z" style="fill: #ff5341; stroke-width: 0px;"/>
              <path d="m201.1,139.8c1-1.73,2.01-3.44,3.03-5.15-1.7-1.93-3.22-3.7-4.4-5.08l-4.62,4.23c1.19-1.8,2.41-3.59,3.63-5.38-.58-.69-1.04-1.19-1.32-1.48-.68-.67-1.43-1.2-2.27-1.55-.83-.35-1.75-.53-2.65-.56-1.81-.06-3.7.55-5.2,1.88-1.4,1.24-2.19,2.9-2.34,4.66-.16,1.77.39,3.57,1.56,5.1,1.76-1.25,3.52-2.51,5.26-3.78l-4.02,5.05c.92.86,2.49,2.16,4.43,3.69l8.83-8.56c-2.38,3.27-4.72,6.56-7.04,9.89.93.7,1.93,1.4,2.98,2.1,1.04.72,2.13,1.42,3.25,2.11l4.48-4.86c-1.12,1.85-2.22,3.71-3.31,5.58,4.07,2.46,8.38,4.57,11.81,5.78.86.3,1.65.56,2.38.75.73.18,1.39.31,1.96.37,1.13.12,1.9-.02,2.19-.48.68-1.09-1.36-3.72-4.3-7.02l-2.67,1.76,1.55-3.02c-.91-1-1.88-2.05-2.88-3.14l-3.84,4.39c.84-1.92,1.71-3.84,2.59-5.75-.87-.97-1.77-1.91-2.63-2.88-.87-.96-1.73-1.9-2.54-2.84l-3.89,4.18Z" style="fill: #ff7149; stroke-width: 0px;"/>
              <path d="m211.41,142.7c-.42-.44-.84-.9-1.25-1.36-.88,1.91-1.75,3.83-2.59,5.75l3.84-4.39Z" style="fill: #ff5341; stroke-width: 0px;"/>
              <path d="m200.21,146.99c.39.24.78.48,1.17.73,1.09-1.87,2.2-3.73,3.31-5.58l-4.48,4.86Z" style="fill: #ff5341; stroke-width: 0px;"/>
            </g>
          </g>
          <g>
            <path d="m182.07,139.01c-2.79-1.33-5.14-3.41-6.7-5.91.04,0,.08-.01.12-.02.92-.2,1.82-.54,2.64-1,.32-.18.43-.58.25-.89-.18-.32-.58-.43-.89-.25-1.98,1.1-4.38,1.37-6.58.72-.35-.1-.71.1-.82.45-.1.35.1.71.45.82,1.02.3,2.08.43,3.13.4-1.04,3.58-.44,7.57,1.66,10.67.1.15.29.22.46.18.05-.01.1-.03.15-.07.2-.14.25-.41.12-.61-1.98-2.92-2.54-6.68-1.52-10.04,1.65,2.7,4.16,4.94,7.15,6.37.22.1.48.01.58-.21.1-.22.01-.48-.21-.58Z" style="fill: #66a662; stroke-width: 0px;"/>
            <g>
              <path d="m184.99,144.45c-2.3.66-4.7-.68-5.36-2.98-.17-.61-.21-1.23-.12-1.82-.49.95-.64,2.08-.32,3.19.66,2.3,3.05,3.64,5.36,2.98,1.69-.48,2.86-1.9,3.1-3.53-.53,1.02-1.46,1.83-2.66,2.17Z" style="fill: #f93b3e; stroke-width: 0px;"/>
              <path d="m184.99,144.45c1.19-.34,2.13-1.15,2.66-2.17.09-.59.06-1.21-.12-1.82-.66-2.3-3.05-3.64-5.36-2.98-1.19.34-2.13,1.15-2.66,2.17-.09.59-.06,1.21.12,1.82.66,2.3,3.05,3.64,5.36,2.98Z" style="fill: #ff4d4d; stroke-width: 0px;"/>
            </g>
            <g>
              <path d="m177.88,147.91c-2.3.66-4.7-.68-5.36-2.98-.17-.61-.21-1.23-.12-1.82-.49.95-.64,2.08-.32,3.19.66,2.3,3.05,3.64,5.36,2.98,1.69-.48,2.86-1.9,3.1-3.53-.53,1.02-1.46,1.83-2.66,2.17Z" style="fill: #f93b3e; stroke-width: 0px;"/>
              <path d="m177.88,147.91c1.19-.34,2.13-1.15,2.66-2.17.09-.59.06-1.21-.12-1.82-.66-2.3-3.05-3.64-5.36-2.98-1.19.34-2.13,1.15-2.66,2.17-.09.59-.06,1.21.12,1.82.66,2.3,3.05,3.64,5.36,2.98Z" style="fill: #ff4d4d; stroke-width: 0px;"/>
            </g>
          </g>
          <g>
            <path d="m258.64,114.8c2.98-.85,5.63-2.51,7.59-4.71-.04-.02-.08-.03-.12-.04-.88-.35-1.7-.83-2.44-1.43-.28-.23-.33-.64-.1-.92.23-.28.64-.33.92-.1,1.77,1.42,4.09,2.08,6.37,1.8.36-.04.69.21.73.58.04.36-.21.69-.58.73-1.06.13-2.12.08-3.15-.13.43,3.7-.83,7.54-3.42,10.24-.13.13-.32.17-.48.1-.05-.02-.1-.05-.14-.09-.17-.17-.18-.45-.01-.62,2.44-2.54,3.61-6.17,3.17-9.65-2.08,2.39-4.92,4.18-8.11,5.09-.23.07-.48-.07-.54-.3-.07-.23.07-.48.3-.54Z" style="fill: #66a662; stroke-width: 0px;"/>
            <g>
              <path d="m254.85,119.68c2.16,1.03,4.75.11,5.78-2.05.27-.58.41-1.18.42-1.78.33,1.02.29,2.16-.21,3.2-1.03,2.16-3.62,3.08-5.78,2.05-1.58-.76-2.5-2.35-2.47-4,.35,1.09,1.14,2.05,2.26,2.58Z" style="fill: #f93b3e; stroke-width: 0px;"/>
              <path d="m254.85,119.68c-1.12-.53-1.9-1.49-2.26-2.58.01-.6.15-1.2.42-1.78,1.03-2.16,3.62-3.08,5.78-2.05,1.12.53,1.9,1.49,2.26,2.58-.01.6-.15,1.2-.42,1.78-1.03,2.16-3.62,3.08-5.78,2.05Z" style="fill: #ff4d4d; stroke-width: 0px;"/>
            </g>
            <g>
              <path d="m261.28,124.27c2.16,1.03,4.75.11,5.78-2.05.27-.58.41-1.18.42-1.78.33,1.02.29,2.16-.21,3.2-1.03,2.16-3.62,3.08-5.78,2.05-1.59-.76-2.5-2.35-2.47-4,.35,1.09,1.14,2.05,2.26,2.58Z" style="fill: #f93b3e; stroke-width: 0px;"/>
              <path d="m261.28,124.27c-1.12-.53-1.9-1.49-2.26-2.58.01-.6.15-1.2.42-1.78,1.03-2.16,3.62-3.08,5.78-2.05,1.12.53,1.9,1.49,2.26,2.58-.01.6-.15,1.2-.42,1.78-1.03,2.16-3.62,3.08-5.78,2.05Z" style="fill: #ff4d4d; stroke-width: 0px;"/>
            </g>
          </g>
          <g>
            <g>
              <path d="m220.82,65.72h0c-1.45,2.19-.85,5.14,1.34,6.59h0c1.45-2.19.85-5.14-1.34-6.59Z" style="fill: #66a662; stroke-width: 0px;"/>
              <path d="m227.95,70.44h0c-1.45,2.19-4.4,2.79-6.59,1.34h0c1.45-2.19,4.4-2.79,6.59-1.34Z" style="fill: #66a662; stroke-width: 0px;"/>
              <path d="m225.72,66.07h0c-2.93.6-4.83,3.46-4.23,6.39h0c2.93-.6,4.83-3.46,4.23-6.39Z" style="fill: #a6bf48; stroke-width: 0px;"/>
            </g>
            <path d="m225.76,76.97c-1.86,2.82-7.24,5.98-10.06,4.12-2.82-1.86-2.01-8.05-.15-10.87,1.86-2.82,4.55-1.92,7.37-.06,2.82,1.86,4.7,3.99,2.83,6.81Z" style="fill: #f04c54; stroke-width: 0px;"/>
            <g>
              <path d="m217.14,72.16c-.13-.04-.27.04-.32.16-.05.15-.03.35,0,.48.02.07.1.1.16.06.11-.08.27-.21.33-.36.05-.14-.02-.3-.17-.34Z" style="fill: #94282f; stroke-width: 0px;"/>
              <path d="m219.11,73.58c-.12-.05-.26,0-.32.12-.07.13-.06.32-.05.45,0,.07.08.11.14.07.11-.06.28-.17.35-.31.07-.13.01-.28-.12-.34Z" style="fill: #94282f; stroke-width: 0px;"/>
              <path d="m221.5,73.58c-.13-.06-.29,0-.35.11-.08.14-.08.36-.08.5,0,.08.08.12.15.09.13-.06.31-.17.4-.32.08-.14.03-.31-.12-.38Z" style="fill: #94282f; stroke-width: 0px;"/>
              <path d="m221.89,75.91c-.09-.1-.25-.1-.35-.02-.12.1-.19.28-.23.41-.02.07.03.13.1.13.13-.01.33-.05.45-.15.11-.09.13-.26.02-.37Z" style="fill: #94282f; stroke-width: 0px;"/>
              <path d="m224.42,76.14c-.09-.1-.26-.11-.36-.03-.13.1-.21.29-.25.42-.02.07.03.14.1.14.14,0,.35-.04.48-.14.12-.09.14-.27.03-.39Z" style="fill: #94282f; stroke-width: 0px;"/>
              <path d="m218.87,70.95c-.13-.04-.26.04-.31.16-.05.15-.02.34,0,.46.02.07.1.1.15.06.11-.08.26-.21.31-.36.05-.14-.03-.29-.17-.33Z" style="fill: #94282f; stroke-width: 0px;"/>
              <path d="m215.33,74.47c-.13,0-.23.11-.23.24,0,.15.08.32.15.42.03.06.12.06.16,0,.08-.1.18-.27.18-.42,0-.14-.11-.26-.25-.25Z" style="fill: #94282f; stroke-width: 0px;"/>
              <path d="m216.89,75.81c-.15-.04-.31.04-.36.18-.06.17-.03.4,0,.55.02.08.11.12.18.07.13-.09.31-.24.37-.41.06-.16-.02-.34-.19-.39Z" style="fill: #94282f; stroke-width: 0px;"/>
              <path d="m219.6,75.86c-.13-.08-.32-.05-.41.08-.11.15-.14.39-.15.55,0,.09.08.15.16.12.15-.05.37-.16.49-.31.11-.14.07-.35-.08-.44Z" style="fill: #94282f; stroke-width: 0px;"/>
              <path d="m217.84,78.21c-.1-.05-.22,0-.27.09-.06.11-.07.27-.06.38,0,.06.06.09.11.07.1-.05.24-.13.31-.24.06-.1.02-.24-.09-.29Z" style="fill: #94282f; stroke-width: 0px;"/>
              <path d="m220.87,78.28c-.1-.11-.27-.12-.38-.03-.13.11-.22.3-.26.44-.02.07.03.15.11.14.15-.01.36-.04.5-.15.13-.1.14-.28.03-.4Z" style="fill: #94282f; stroke-width: 0px;"/>
              <path d="m223.19,78.36c-.14-.06-.29-.04-.37.04-.09.1-.16.27-.25.39-.04.06-.02.16.07.17.16.03.43,0,.59-.16.15-.15.11-.37-.05-.44Z" style="fill: #94282f; stroke-width: 0px;"/>
              <path d="m216.79,70.25c-.12-.02-.24.05-.27.17-.04.13,0,.31.04.42.02.06.09.08.14.04.09-.08.22-.21.26-.34.04-.13-.04-.26-.17-.29Z" style="fill: #94282f; stroke-width: 0px;"/>
              <path d="m215.51,78.07c-.13.03-.22.17-.19.3.03.16.15.32.25.42.05.05.14.04.17-.03.06-.13.13-.32.1-.48-.02-.15-.17-.25-.32-.21Z" style="fill: #94282f; stroke-width: 0px;"/>
              <path d="m218.62,80.02c-.07-.14-.25-.2-.39-.14-.17.07-.31.25-.4.38-.05.07,0,.16.07.18.15.03.39.06.56-.01.16-.07.23-.26.15-.41Z" style="fill: #94282f; stroke-width: 0px;"/>
              <path d="m223.53,73.88c-.15-.05-.32.04-.37.19-.07.17-.04.41,0,.56.02.08.11.12.18.07.13-.09.32-.24.39-.42.06-.16-.02-.35-.19-.4Z" style="fill: #94282f; stroke-width: 0px;"/>
              <path d="m220.97,70.73c-.14-.05-.31.02-.37.16-.07.16-.06.39-.03.54.01.08.1.12.17.08.13-.08.32-.22.4-.38.07-.15,0-.34-.16-.4Z" style="fill: #94282f; stroke-width: 0px;"/>
              <path d="m223.05,72.01c-.08-.05-.2-.03-.26.05-.07.09-.09.24-.09.34,0,.05.05.09.1.07.09-.03.23-.1.3-.19.06-.09.04-.21-.05-.27Z" style="fill: #94282f; stroke-width: 0px;"/>
            </g>
          </g>
          <g>
            <g>
              <path d="m159.24,62.21h0c1.03,2.42,3.83,3.54,6.24,2.51h0c-1.03-2.42-3.83-3.54-6.24-2.51Z" style="fill: #66a662; stroke-width: 0px;"/>
              <path d="m167.11,58.85h0c1.03,2.42-.09,5.21-2.51,6.24h0c-1.03-2.42.09-5.21,2.51-6.24Z" style="fill: #66a662; stroke-width: 0px;"/>
              <path d="m162.23,58.31h0c-1.12,2.78.23,5.93,3.01,7.05h0c1.12-2.78-.23-5.93-3.01-7.05Z" style="fill: #a6bf48; stroke-width: 0px;"/>
            </g>
            <path d="m171.36,64.28c1.33,3.11,1.01,9.34-2.1,10.66-3.11,1.33-7.83-2.75-9.15-5.86-1.33-3.11.9-4.86,4.01-6.19,3.11-1.33,5.92-1.73,7.24,1.38Z" style="fill: #f04c54; stroke-width: 0px;"/>
            <g>
              <path d="m162.6,68.82c-.1.09-.12.25-.04.35.09.13.28.21.4.26.07.03.14-.02.14-.1,0-.14-.03-.34-.12-.47-.09-.12-.26-.14-.38-.05Z" style="fill: #94282f; stroke-width: 0px;"/>
              <path d="m164.86,67.96c-.11.07-.14.22-.07.33.08.13.24.23.35.29.06.03.13,0,.14-.08.01-.13,0-.32-.06-.46-.07-.12-.23-.16-.35-.08Z" style="fill: #94282f; stroke-width: 0px;"/>
              <path d="m166.18,65.96c-.12.07-.16.23-.1.36.08.15.25.27.37.34.07.04.15,0,.16-.08.02-.14.03-.36-.05-.51-.07-.14-.25-.19-.38-.11Z" style="fill: #94282f; stroke-width: 0px;"/>
              <path d="m168.34,66.92c-.13.02-.22.15-.2.28.02.15.13.32.22.42.04.05.13.05.16-.02.06-.12.14-.3.12-.46-.02-.15-.15-.25-.3-.22Z" style="fill: #94282f; stroke-width: 0px;"/>
              <path d="m169.92,64.94c-.14.02-.24.15-.22.29.01.16.13.33.21.44.05.06.13.05.17-.01.07-.12.16-.31.15-.48-.01-.15-.15-.27-.3-.24Z" style="fill: #94282f; stroke-width: 0px;"/>
              <path d="m162.54,66.71c-.1.09-.11.24-.03.34.09.12.27.2.39.25.07.02.13-.03.13-.1,0-.13-.03-.33-.12-.46-.09-.12-.25-.14-.37-.04Z" style="fill: #94282f; stroke-width: 0px;"/>
              <path d="m163.52,71.6c-.07.11-.03.25.07.33.12.08.31.11.43.11.07,0,.12-.06.09-.13-.04-.12-.13-.29-.25-.38-.11-.08-.27-.05-.35.07Z" style="fill: #94282f; stroke-width: 0px;"/>
              <path d="m165.5,71.04c-.12.1-.14.28-.05.4.11.15.31.24.46.3.08.03.16-.03.16-.11,0-.16-.03-.39-.14-.54-.1-.14-.3-.17-.43-.05Z" style="fill: #94282f; stroke-width: 0px;"/>
              <path d="m167.04,68.8c-.15.07-.21.24-.16.39.07.18.25.33.38.43.07.05.17.02.19-.07.04-.16.08-.4.01-.58-.06-.17-.25-.25-.42-.17Z" style="fill: #94282f; stroke-width: 0px;"/>
              <path d="m168.02,71.57c-.09.05-.13.18-.08.27.06.11.19.21.28.26.05.03.11,0,.12-.06.01-.11.02-.27-.03-.39-.05-.11-.19-.15-.29-.09Z" style="fill: #94282f; stroke-width: 0px;"/>
              <path d="m169.75,69.08c-.14.02-.25.16-.23.3.02.17.13.35.22.46.05.06.14.05.18-.01.07-.13.16-.33.15-.5-.01-.16-.16-.28-.32-.25Z" style="fill: #94282f; stroke-width: 0px;"/>
              <path d="m171.1,67.19c-.13.08-.19.22-.17.33.03.13.14.29.19.42.03.07.12.1.18.04.11-.11.24-.36.19-.59-.04-.21-.25-.3-.4-.21Z" style="fill: #94282f; stroke-width: 0px;"/>
              <path d="m160.8,68.06c-.08.08-.09.23,0,.31.09.1.26.17.37.2.06.02.12-.03.11-.1-.01-.12-.05-.3-.14-.4-.09-.1-.24-.11-.33-.01Z" style="fill: #94282f; stroke-width: 0px;"/>
              <path d="m166.63,73.43c-.05.13.02.28.15.33.15.06.35.05.48.02.07-.01.11-.09.07-.15-.07-.12-.2-.28-.35-.35-.14-.06-.3,0-.35.15Z" style="fill: #94282f; stroke-width: 0px;"/>
              <path d="m169.97,71.91c-.15-.02-.3.1-.33.25-.03.18.04.4.1.55.03.08.13.1.19.04.11-.11.26-.3.3-.48.03-.17-.08-.33-.26-.36Z" style="fill: #94282f; stroke-width: 0px;"/>
              <path d="m167.54,64.44c-.12.1-.14.29-.05.42.11.15.32.25.47.31.08.03.16-.03.16-.11,0-.16-.03-.4-.14-.56-.1-.14-.3-.17-.44-.06Z" style="fill: #94282f; stroke-width: 0px;"/>
              <path d="m163.51,64.84c-.12.09-.15.27-.07.39.1.15.29.26.43.33.07.03.16-.02.16-.1,0-.15,0-.39-.1-.54-.09-.14-.28-.18-.42-.08Z" style="fill: #94282f; stroke-width: 0px;"/>
              <path d="m165.72,63.8c-.09.04-.13.15-.1.24.04.11.15.2.23.26.04.03.1,0,.12-.04.02-.1.05-.25,0-.36-.04-.1-.16-.15-.26-.11Z" style="fill: #94282f; stroke-width: 0px;"/>
            </g>
          </g>
          <g>
            <g>
              <path d="m292.88,88.99h0c-1.53,2.14-1.04,5.11,1.1,6.64h0c1.53-2.14,1.04-5.11-1.1-6.64Z" style="fill: #66a662; stroke-width: 0px;"/>
              <path d="m299.84,93.97h0c-1.53,2.14-4.5,2.63-6.64,1.1h0c1.53-2.14,4.5-2.63,6.64-1.1Z" style="fill: #66a662; stroke-width: 0px;"/>
              <path d="m297.77,89.52h0c-2.95.49-4.95,3.28-4.46,6.23h0c2.95-.49,4.95-3.28,4.46-6.23Z" style="fill: #a6bf48; stroke-width: 0px;"/>
            </g>
            <path d="m297.4,100.42c-1.97,2.75-7.46,5.71-10.2,3.74-2.75-1.97-1.71-8.12.26-10.86,1.97-2.75,4.62-1.75,7.37.22,2.75,1.97,4.55,4.16,2.58,6.91Z" style="fill: #f04c54; stroke-width: 0px;"/>
            <g>
              <path d="m288.97,95.29c-.13-.04-.27.03-.32.15-.06.15-.04.35-.01.48.01.07.09.11.15.07.11-.07.28-.2.34-.35.06-.14-.01-.3-.16-.35Z" style="fill: #94282f; stroke-width: 0px;"/>
              <path d="m290.89,96.78c-.12-.05-.26,0-.32.11-.07.13-.07.32-.06.45,0,.07.08.11.14.08.12-.06.28-.16.36-.29.07-.12.02-.28-.11-.34Z" style="fill: #94282f; stroke-width: 0px;"/>
              <path d="m293.28,96.87c-.12-.07-.29-.02-.36.1-.09.14-.1.35-.09.49,0,.08.08.13.15.09.13-.06.32-.16.41-.3.08-.13.04-.31-.1-.38Z" style="fill: #94282f; stroke-width: 0px;"/>
              <path d="m293.57,99.22c-.09-.1-.24-.11-.35-.03-.12.1-.2.28-.24.4-.02.07.03.14.1.13.13,0,.33-.04.46-.13.12-.09.13-.26.04-.37Z" style="fill: #94282f; stroke-width: 0px;"/>
              <path d="m296.09,99.53c-.09-.11-.25-.12-.36-.04-.13.1-.22.28-.27.41-.03.07.02.14.1.14.14,0,.35-.03.48-.12.12-.09.15-.27.05-.39Z" style="fill: #94282f; stroke-width: 0px;"/>
              <path d="m290.75,94.14c-.12-.04-.26.03-.31.15-.06.14-.03.34,0,.47.01.07.09.1.15.06.11-.07.27-.2.33-.34.06-.13-.01-.29-.16-.33Z" style="fill: #94282f; stroke-width: 0px;"/>
              <path d="m287.07,97.52c-.13,0-.23.1-.24.23,0,.15.07.32.13.43.03.06.11.07.16.01.08-.1.19-.26.2-.41.01-.14-.1-.26-.24-.26Z" style="fill: #94282f; stroke-width: 0px;"/>
              <path d="m288.58,98.93c-.14-.05-.31.03-.37.17-.07.17-.05.4-.02.55.01.08.11.12.17.08.13-.08.32-.23.39-.4.07-.16-.01-.34-.18-.4Z" style="fill: #94282f; stroke-width: 0px;"/>
              <path d="m291.29,99.08c-.13-.09-.32-.06-.42.07-.11.15-.16.38-.17.54,0,.08.07.15.15.13.15-.05.38-.14.5-.29.11-.14.08-.34-.07-.45Z" style="fill: #94282f; stroke-width: 0px;"/>
              <path d="m289.44,101.35c-.09-.05-.22-.02-.28.08-.07.11-.08.27-.08.38,0,.06.06.1.11.07.1-.04.25-.12.32-.23.06-.1.03-.24-.08-.3Z" style="fill: #94282f; stroke-width: 0px;"/>
              <path d="m292.47,101.54c-.09-.11-.26-.13-.38-.04-.14.1-.23.29-.28.43-.03.07.03.15.1.15.15,0,.36-.03.5-.13.13-.09.15-.28.05-.4Z" style="fill: #94282f; stroke-width: 0px;"/>
              <path d="m294.79,101.71c-.14-.07-.29-.05-.37.02-.09.09-.17.27-.26.39-.04.06-.02.16.06.18.15.04.43.02.6-.14.16-.15.12-.37-.03-.45Z" style="fill: #94282f; stroke-width: 0px;"/>
              <path d="m288.7,93.36c-.11-.03-.24.04-.27.16-.04.13,0,.31.02.42.02.06.09.09.14.05.09-.07.23-.2.27-.33.04-.13-.03-.26-.16-.29Z" style="fill: #94282f; stroke-width: 0px;"/>
              <path d="m287.12,101.13c-.13.03-.22.16-.2.3.02.16.14.32.23.42.05.05.14.05.17-.02.06-.12.14-.32.12-.48-.02-.15-.16-.25-.31-.22Z" style="fill: #94282f; stroke-width: 0px;"/>
              <path d="m290.16,103.2c-.06-.14-.24-.21-.38-.15-.17.07-.32.24-.41.37-.05.07-.02.16.07.18.15.04.39.07.56,0,.16-.06.24-.25.17-.41Z" style="fill: #94282f; stroke-width: 0px;"/>
              <path d="m295.29,97.24c-.15-.05-.32.03-.38.17-.07.17-.05.41-.02.56.01.08.11.13.18.08.14-.09.33-.23.4-.41.07-.16,0-.35-.18-.41Z" style="fill: #94282f; stroke-width: 0px;"/>
              <path d="m292.85,94c-.14-.06-.31,0-.38.14-.08.16-.07.39-.06.54,0,.08.1.13.17.09.13-.07.33-.2.41-.37.08-.15.01-.34-.15-.4Z" style="fill: #94282f; stroke-width: 0px;"/>
              <path d="m294.88,95.36c-.08-.05-.2-.03-.26.04-.07.09-.09.24-.1.34,0,.05.05.09.1.08.09-.03.23-.09.31-.18.07-.09.05-.21-.04-.28Z" style="fill: #94282f; stroke-width: 0px;"/>
            </g>
          </g>
          <g>
            <g>
              <path d="m197.2,181.95c-2.57-2.52-6.68-5.03-11.6-6.84-4.92-1.81-9.67-2.57-13.26-2.32l-4.41-1.62-1.72,4.68c-1.41,3.83,4.98,9.72,14.28,13.14,9.3,3.42,17.98,3.09,19.39-.74l1.72-4.68-4.41-1.62Z" style="fill: #ffb033; stroke-width: 0px;"/>
              <path d="m201.61,183.57c-1.41,3.83-10.09,4.16-19.39.74-9.3-3.42-15.69-9.31-14.28-13.14,1.41-3.83,10.09-4.16,19.39-.74,9.3,3.42,15.69,9.31,14.28,13.14Z" style="fill: #eb8524; stroke-width: 0px;"/>
            </g>
            <g>
              <path d="m203.08,171.9c-2.45-3.11-9.41-5.45-17.66-5.63-8.25-.18-15.3,1.87-17.88,4.87l-1-.02-.05,2.49c-.09,4.27,8.24,7.92,18.61,8.14,10.37.22,18.84-3.07,18.93-7.34l.05-2.49-1-.02Z" style="fill: #94282f; stroke-width: 0px;"/>
              <path d="m204.08,171.92c-.09,4.27-8.57,7.56-18.93,7.34-10.37-.22-18.7-3.86-18.61-8.14.09-4.27,8.57-7.56,18.93-7.34,10.37.22,18.7,3.86,18.61,8.14Z" style="fill: #bb373f; stroke-width: 0px;"/>
            </g>
            <g>
              <path d="m168.82,166.8c.63.81,1.7,1.25,2.71,1.12,1.03-.12,2.02-.78,3.02-.5,1.45.4,1.95,2.5,3.43,2.81,1.35.28,2.46-1.14,3.82-1.39,1.78-.32,3.31,1.4,5.11,1.57,2.22.21,3.95-1.92,6.11-2.45,2.51-.62,5.43.96,7.63-.4.63-.39,1.1-.97,1.6-1.51.42-.46.9-.9,1.47-1.15-.07-.63.41-1.27.54-1.93.3-1.43-1.2-2.73-2.65-2.76-1.46-.03-2.78.82-3.92,1.71-1.15.9-2.27,1.91-3.67,2.31-1.84.53-3.8-.1-5.54-.89-1.74-.8-3.44-1.78-5.34-2.04-4.59-.61-8.72,3.19-13.35,3.28-.51.01-1.06,0-1.58.05-.08.76.14,1.56.61,2.16Z" style="fill: #008c84; stroke-width: 0px;"/>
              <path d="m206.23,166.64c-.68-.69-2.07-.57-2.44-1.47-.04-.09-.06-.18-.07-.27-.57.25-1.04.69-1.47,1.15-.5.54-.97,1.13-1.6,1.51-2.2,1.36-5.11-.22-7.63.4-2.16.53-3.89,2.66-6.11,2.45-1.8-.17-3.33-1.89-5.11-1.57-1.36.25-2.47,1.66-3.82,1.39-1.48-.3-1.97-2.41-3.43-2.81-1-.27-2,.38-3.02.5-1.01.12-2.08-.32-2.71-1.12-.47-.61-.69-1.4-.61-2.16-.71.07-1.37.27-1.76.85-.61.89-.16,2.08.29,3.05.67,1.43,1.71,3.1,3.29,2.97,1.11-.09,2.27-1.07,3.19-.44.96.66.52,2.51,1.58,3,1.39.63,2.5-2.11,3.96-1.69,1.12.32,1.18,2.22,2.33,2.45,1.05.21,1.87-1.24,2.93-1.08.87.14,1.21,1.26,1.99,1.67.85.46,1.94-.09,2.5-.87s.8-1.75,1.25-2.61c.45-.86,1.25-1.66,2.21-1.62,1.14.06,1.85,1.21,2.46,2.18.6.97,1.61,2,2.7,1.66,1.34-.42,1.31-2.38,2.25-3.43.72-.8,1.91-.95,2.98-.95,1.08,0,2.22.06,3.16-.46.94-.52,1.47-1.93.72-2.69Z" style="fill: #66a662; stroke-width: 0px;"/>
            </g>
            <g>
              <path d="m205.2,160.26c-.05,4.27-8.5,7.64-18.87,7.51-10.37-.13-18.73-3.69-18.68-7.97.05-4.27,8.54-10.72,18.9-10.6,10.37.13,18.69,6.78,18.64,11.05Z" style="fill: #ffb033; stroke-width: 0px;"/>
              <g>
                <path d="m174.86,155.65c-.17-.1-.4-.04-.51.13-.13.2-.15.49-.15.69,0,.11.1.18.2.14.19-.08.46-.21.59-.41.12-.18.07-.43-.13-.54Z" style="fill: #ffd598; stroke-width: 0px;"/>
                <path d="m177.08,157.32c-.26-.02-.49.18-.53.44-.04.3.1.66.21.9.06.12.23.15.32.05.18-.2.42-.51.46-.82.04-.29-.17-.55-.46-.57Z" style="fill: #ffd598; stroke-width: 0px;"/>
                <path d="m180.62,158.41c-.21.07-.33.3-.27.51.06.25.29.49.45.64.09.08.22.05.26-.06.08-.21.16-.53.1-.78-.06-.24-.3-.38-.54-.3Z" style="fill: #ffd598; stroke-width: 0px;"/>
                <path d="m184.83,156.28c-.23.17-.29.51-.13.76.19.29.57.5.83.62.14.06.3-.03.31-.19,0-.29-.01-.74-.2-1.03-.17-.27-.54-.35-.81-.15Z" style="fill: #ffd598; stroke-width: 0px;"/>
                <path d="m181.42,152.61c-.23-.08-.5.04-.6.27-.11.27-.08.64-.03.88.02.13.17.2.28.13.21-.14.51-.37.63-.64.11-.25-.02-.55-.28-.64Z" style="fill: #ffd598; stroke-width: 0px;"/>
                <path d="m182.22,155.91c-.21-.04-.42.1-.48.3-.06.24.01.55.08.76.04.11.17.15.26.07.16-.14.39-.37.46-.62.06-.23-.08-.47-.32-.51Z" style="fill: #ffd598; stroke-width: 0px;"/>
                <path d="m189.89,158.52c-.2.1-.28.35-.2.55.1.24.36.44.54.57.1.07.23.01.25-.1.04-.22.08-.55-.02-.79-.09-.23-.36-.33-.58-.22Z" style="fill: #ffd598; stroke-width: 0px;"/>
                <path d="m193.15,157.89c-.16.18-.15.47.02.64.2.2.54.31.78.36.13.03.24-.08.22-.21-.04-.24-.14-.6-.34-.8-.19-.19-.5-.19-.68.01Z" style="fill: #ffd598; stroke-width: 0px;"/>
                <path d="m190.29,153.47c-.18.24-.14.59.09.79.27.23.7.33,1,.37.16.02.29-.12.25-.28-.08-.29-.23-.73-.49-.97-.25-.22-.64-.19-.84.08Z" style="fill: #ffd598; stroke-width: 0px;"/>
                <path d="m186.45,152.83c-.23-.04-.45.11-.5.34-.06.26.02.59.1.81.04.12.18.16.27.07.17-.15.41-.41.48-.67.06-.25-.1-.5-.35-.54Z" style="fill: #ffd598; stroke-width: 0px;"/>
                <path d="m179.47,154.73c-.18-.2-.5-.23-.71-.07-.25.19-.42.56-.51.81-.05.14.05.28.2.27.27-.01.68-.07.94-.26.24-.18.28-.53.08-.76Z" style="fill: #ffd598; stroke-width: 0px;"/>
                <path d="m177.26,152.7c-.11-.31-.47-.47-.78-.38-.37.11-.71.46-.92.71-.11.13-.06.34.11.39.32.1.8.21,1.18.1.35-.1.54-.48.41-.83Z" style="fill: #ffd598; stroke-width: 0px;"/>
                <path d="m184.74,150.73c-.22-.05-.44,0-.53.12-.11.14-.19.4-.31.58-.06.09-.03.24.1.27.24.06.68-.02.9-.31.22-.27.09-.61-.16-.66Z" style="fill: #ffd598; stroke-width: 0px;"/>
                <path d="m188.58,151.17c-.19.16-.22.46-.07.65.18.23.51.39.74.47.12.05.26-.05.25-.18-.01-.25-.06-.63-.23-.87-.16-.22-.48-.26-.7-.08Z" style="fill: #ffd598; stroke-width: 0px;"/>
                <path d="m195.09,152.23c-.17.12-.21.36-.11.53.13.21.39.36.57.45.1.05.21-.02.22-.13.01-.21,0-.52-.12-.73-.12-.2-.38-.25-.57-.12Z" style="fill: #ffd598; stroke-width: 0px;"/>
                <path d="m195.37,155.69c-.11.19-.06.44.12.56.21.15.53.19.75.2.12,0,.2-.11.16-.22-.08-.21-.22-.51-.43-.66-.2-.14-.47-.09-.6.12Z" style="fill: #ffd598; stroke-width: 0px;"/>
                <path d="m199.06,155.19c-.12.2-.06.47.13.6.23.15.57.19.8.2.12,0,.21-.12.17-.23-.08-.22-.24-.54-.46-.7-.21-.15-.51-.09-.64.13Z" style="fill: #ffd598; stroke-width: 0px;"/>
                <path d="m187.73,156.4c-.17,0-.31.16-.31.33,0,.2.11.43.2.57.05.08.16.08.21,0,.1-.14.23-.36.24-.57,0-.19-.15-.35-.34-.34Z" style="fill: #ffd598; stroke-width: 0px;"/>
                <path d="m184.29,159.4c-.21.11-.3.38-.2.6.12.26.4.48.6.61.11.07.25.01.28-.12.04-.24.08-.61-.03-.87-.11-.25-.4-.35-.64-.23Z" style="fill: #ffd598; stroke-width: 0px;"/>
              </g>
            </g>
          </g>
        </g>
      </g>
    </g>
  </g>
</svg>