<?xml version="1.0" encoding="UTF-8"?>
<svg id="_圖層_2" data-name="圖層 2" xmlns="http://www.w3.org/2000/svg" width="354.06" height="247.64" xmlns:xlink="http://www.w3.org/1999/xlink" viewBox="0 0 354.06 247.64">
  <defs>
    <clipPath id="clippath">
      <path d="m192.6,109.38l12.39,42.27L25.76,209.14C.06,198.04-4.63,180.85,10.7,157.77l181.9-48.4Z" style="clip-rule: evenodd; fill: #e28a2b; stroke-width: 0px;"/>
    </clipPath>
    <clipPath id="clippath-1">
      <circle cx="233.85" cy="120.27" r="97.92" transform="translate(-16.55 200.58) rotate(-45)" style="fill: #fff; stroke-width: 0px;"/>
    </clipPath>
  </defs>
  <g id="_第一cut" data-name="第一cut">
    <g id="local_practice2">
      <path d="m23.79,216.29c-25.68-11.04-30.37-28.24-15.04-51.32l103.32-27.51c-4.72-55.76,30.23-109.06,85.98-125.41,63.66-18.67,130.51,17.86,149.17,81.52,18.68,63.67-17.85,130.51-81.53,149.18-55.75,16.36-113.95-9.64-140.08-59.11l-101.82,32.64Zm123.45-39.58c22.13,38.03,68.09,57.6,112.18,44.67,51.87-15.2,81.63-69.65,66.41-121.52-15.2-51.86-69.65-81.62-121.52-66.41-44.09,12.93-72.21,54.22-70.29,98.18l13.22,45.08Z" style="fill: rgba(226, 138, 43, .5); fill-rule: evenodd; opacity: .5; stroke-width: 0px;"/>
      <g>
        <g>
          <path d="m192.6,109.38l12.39,42.27L25.76,209.14C.06,198.04-4.63,180.85,10.7,157.77l181.9-48.4Z" style="fill: #e28a2b; fill-rule: evenodd;"/>
          <g style="clip-path: url(#clippath);">
            <g>
              <rect x="-25.4" y="136.64" width="73.43" height="97.74" transform="translate(-51.74 10.68) rotate(-16.34)" style="fill: #e9a760; stroke-width: 0px;"/>
              <path d="m23.73,166.63s-3.34,1.67-5.57,4.32c-1.08,1.29-2,2.84-1.39,4.61.53,1.56-.31,3.24-1.86,3.77-1.55.53-3.24-.3-3.77-1.86-1.33-3.9.08-7.49,2.47-10.34,2.98-3.55,7.45-5.81,7.45-5.81,1.46-.73,3.25-.14,3.99,1.32.74,1.47.15,3.26-1.32,3.99Z" style="fill: #ffe6ca; fill-rule: evenodd; stroke-width: 0px;"/>
            </g>
          </g>
        </g>
        <path d="m98.16,147.84l-32.64,9.84c-1.57.47-3.23-.42-3.71-1.99-.47-1.57.42-3.23,1.99-3.7l32.64-9.84c1.57-.47,3.23.42,3.7,1.99.47,1.57-.42,3.23-1.99,3.7Z" style="fill: #ffe6ca; fill-rule: evenodd; stroke-width: 0px;"/>
        <circle cx="234.64" cy="121.42" r="113.71" style="fill: #ffeed4; stroke-width: 0px;"/>
        <g>
          <circle cx="233.85" cy="120.27" r="97.92" transform="translate(-16.55 200.58) rotate(-45)" style="fill: #fff;"/>
          <g style="clip-path: url(#clippath-1);">
            <g>
              <rect x="92.7" y="8.02" width="263.05" height="221.09" style="fill: #bff4f5; stroke-width: 0px;"/>
              <g>
                <path d="m332.75,148.42c0,6.46-.56,12.67-1.78,18.8-.24,1.45-.56,2.82-.89,4.2-1.37,5.89-3.23,11.54-5.65,16.94-.24.56-.48,1.13-.73,1.69l-.08.24c-.24.56-.56,1.13-.81,1.69-.32.65-.56,1.21-.89,1.86-.32.56-.56,1.13-.89,1.69-.24.48-.56,1.05-.89,1.53-.08.16-.16.32-.24.48-.24.48-.56.97-.81,1.45-.32.56-.65,1.13-1.05,1.69-.89,1.53-1.86,2.99-2.9,4.44-.24.32-.48.73-.73,1.05h0c-.24.4-.56.73-.81,1.13-.56.81-1.21,1.61-1.86,2.42-.24.32-.48.56-.73.89-.32.4-.73.89-1.05,1.29s-.65.73-.97,1.13c-.56.65-1.05,1.29-1.61,1.86-.89.97-1.78,1.94-2.74,2.9-1.45,1.53-2.99,2.99-4.52,4.36-.48.4-.89.81-1.37,1.21l-.24.24h0c-3.23,2.82-6.7,5.49-10.33,7.91-1.78,1.21-3.63,2.34-5.57,3.47-4.12,2.34-8.39,4.44-12.91,6.21-4.36,1.69-8.88,3.15-13.48,4.28-.97.24-2.02.48-2.99.65-2.1.48-4.28.81-6.46,1.13-2.42.32-4.84.56-7.34.73-1.69.08-3.31.16-5,.24h-1.78c-1.37,0-2.74,0-4.12-.08-7.58-.32-15.01-1.45-22.03-3.39-8.47-2.26-16.54-5.65-23.96-10.01-.73-.4-1.45-.89-2.18-1.29h0c-.65-.4-1.29-.81-1.94-1.21h0c-4.03-2.58-7.91-5.57-11.54-8.71h0c-1.78-1.53-3.55-3.23-5.24-4.92-2.58-2.58-5-5.33-7.34-8.23-1.69-2.1-3.31-4.36-4.84-6.62-.65-1.05-1.37-2.02-2.02-3.07h0c-5.49-8.8-9.6-18.56-12.1-28.89-1.86-7.58-2.82-15.49-2.82-23.56,0-2.26.08-4.52.24-6.78,0-.4.08-.81.08-1.21h0c.24-2.66.48-5.24.97-7.83h0c.16-1.13.4-2.18.56-3.31.48-2.5,1.05-4.92,1.69-7.34,4.44-16.22,12.91-30.82,24.21-42.6.97-.97,1.86-1.94,2.82-2.9.08-.08.24-.16.32-.32l.4-.4.4-.4c2.18-2.02,4.36-3.95,6.7-5.73.65-.56,1.37-1.05,2.02-1.53,3.55-2.66,7.34-5.08,11.3-7.26.65-.32,1.21-.65,1.86-.97.4-.16.73-.4,1.13-.56.48-.24,1.05-.56,1.61-.81,1.61-.81,3.23-1.53,4.84-2.18,7.75-3.23,15.98-5.57,24.53-6.78h0c4.44-.65,9.04-.97,13.72-1.05h3.15c.48,0,.97,0,1.37.08.4,0,.81,0,1.21.08,4.6.24,9.12.81,13.56,1.61,8.71,1.69,17.03,4.44,24.77,8.23,3.07,1.45,6.05,3.15,8.96,4.92h0c1.37.89,2.74,1.78,4.12,2.74.08,0,.08.08.16.08.4.32.81.56,1.21.89h0c.24.16.48.32.73.48.32.24.65.48.97.73,1.61,1.21,3.15,2.42,4.68,3.71.24.24.48.4.73.65,2.82,2.42,5.49,5,7.99,7.67,0,0,0,.08.08.08.16.24.4.4.56.65.16.16.32.4.48.56h0c.65.73,1.29,1.45,1.94,2.26,1.45,1.69,2.82,3.39,4.12,5.16,3.15,4.2,5.97,8.71,8.39,13.39,1.05,1.94,2.02,3.95,2.9,5.97v.08h0c4.36,9.92,7.1,20.74,7.99,32.03h0v.08c0,.48.08.89.08,1.37,0,.32.08.65.08.97h0c.48,1.86.56,3.71.56,5.65Z" style="fill: #75e6ea; stroke-width: 0px;"/>
                <g>
                  <path d="m282,91.05s.56,10.81.56,11.94c0,1.05,7.91,22.27,10.01,22.67,2.9,0,8.8-20.25,9.44-23,.73-2.74,0-13.48,0-13.48,0,0-18.72,2.9-20.01,1.86Z" style="fill: #ffae91; stroke-width: 0px;"/>
                  <path d="m344.37,161.98c-2.99,8.71-8.55,9.6-10.81,9.6h0c-.56,0-.89-.08-.89-.08l-.56-1.61-1.05-2.82-5.24-14.2-.56-1.45v2.02l-.32,15.82v.56l-.4,18.56c-4.28,9.76-10.09,18.8-17.11,26.63-9.28.32-31.95.08-33.57-.24-3.47-.73-13.15-18.24-13.15-18.24l-.81-39.13-.08-5.89-.16.4-7.26,19.61s-7.99,1.45-11.78-9.6c-3.79-11.05,3.23-36.15,11.38-46.64,7.18-9.28,24.29-13.31,28-14.12.48-.08.73-.16.73-.16l.48-1.78.73-2.74s.16,0,.32.08c1.05.24,4.2.97,6.46,2.26,2.66,1.61,2.99,7.02,2.99,7.02v.48l-.08,1.94.73,14.2.08,1.29.24-3.23.81-12.26-.08-1.94v-.48s.32-5.49,2.99-7.02c2.1-1.21,4.92-1.94,6.13-2.26.4-.08.56-.16.56-.16l.73,2.74.48,1.78s.24.08.73.16c2.02.4,7.99,1.86,14.2,4.52,1.78.73,3.47,1.61,5.16,2.58h.08c.32.16.56.32.89.48,2.99,1.78,5.73,3.95,7.75,6.54,7.99,10.65,15.09,35.83,11.3,46.8Z" style="fill: #ff941b; stroke-width: 0px;"/>
                  <g>
                    <path d="m269.97,87.26c-6.94-5.24-6.86-13.64-3.71-15.82,6.29-4.28,21.3-4.84,31.87-4.44,10.57.48,18.96.65,21.71,6.13,2.74,5.49-1.05,13.64-10.01,17.35-12.1,5-32.92,2.02-39.86-3.23Z" style="fill: #ff941b; stroke-width: 0px;"/>
                    <path d="m269.97,87.26c-6.94-5.24-6.86-13.64-3.71-15.82,6.29-4.28,21.3-4.84,31.87-4.44,10.57.48,18.96.65,21.71,6.13,2.74,5.49-1.05,13.64-10.01,17.35-12.1,5-32.92,2.02-39.86-3.23Z" style="fill: #e4cec3; stroke-width: 0px;"/>
                    <g>
                      <g>
                        <g>
                          <path d="m307.66,77.42c-.16,1.78-.48,3.63-.97,5.41-1.61,6.21-4.92,11.86-9.76,13.72-6.21,2.42-13.56-.4-17.35-6.78-.97-1.61-1.61-4.12-1.94-6.94-1.05-7.99-.08-18.32-.08-18.32,2.02-2.42,29.37-.81,29.37-.81,0,0,1.53,5.57.73,13.72Z" style="fill: #ffae91; stroke-width: 0px;"/>
                          <g>
                            <path d="m278.28,79.76s-2.02-4.6-3.95-4.44-2.02,4.44-.32,6.86c1.61,2.42,5.08,3.23,5.49,2.74s-1.21-5.16-1.21-5.16Z" style="fill: #ffae91; stroke-width: 0px;"/>
                            <path d="m306.04,79.76s2.02-4.6,3.95-4.44c2.02.16,2.02,4.44.32,6.86-1.61,2.42-5.08,3.23-5.49,2.74-.4-.56,1.21-5.16,1.21-5.16Z" style="fill: #ffae91; stroke-width: 0px;"/>
                          </g>
                          <path d="m306.69,82.74c-1.61,6.21-4.92,11.86-9.76,13.72-6.21,2.42-13.56-.4-17.35-6.78-.97-1.61-1.61-4.12-1.94-6.94,2.42-1.21,10.33-4.92,14.85-4.6,4.44.4,11.46,2.66,14.2,4.6Z" style="fill: #fff; stroke-width: 0px;"/>
                          <path d="m279.49,84.6c1.13-.56,2.18-1.13,3.39-1.61.56-.24,1.13-.4,1.69-.65.24-.08.56-.16.81-.24.24-.08.56-.08.65-.4,0-.08,0-.16-.08-.24-.24-.16-.48,0-.73.08-.32.08-.65.24-.97.32-.56.24-1.13.4-1.69.65-1.13.48-2.34.97-3.47,1.45-.24.24.08.81.4.65h0Z" style="fill: #a3cdda; stroke-width: 0px;"/>
                          <path d="m279.98,88.39c.81.32,1.53.73,2.34,1.05.4.16.81.32,1.21.4.16.08.4.16.65.16.16.08.4.08.56,0,.08-.08.08-.16.08-.24-.08-.16-.24-.24-.48-.24-.16-.08-.4-.16-.56-.24-.4-.16-.81-.32-1.13-.48-.73-.32-1.45-.65-2.26-.97-.16-.08-.32-.08-.48.16-.08.08-.08.32.08.4h0Z" style="fill: #a3cdda; stroke-width: 0px;"/>
                          <path d="m279.9,86.53c.4-.08.89-.16,1.29-.24.24,0,.56-.08.81-.08.16-.08.4-.16.56-.24.08-.08.08-.32-.08-.24h-.56c-.24,0-.48.08-.81.08-.4.08-.89.08-1.37.24-.32.08-.16.56.16.48h0Z" style="fill: #a3cdda; stroke-width: 0px;"/>
                          <path d="m304.43,84.03c-1.13-.48-2.26-.97-3.47-1.45-.56-.24-1.13-.48-1.69-.65-.32-.08-.65-.24-.97-.32-.24-.08-.48-.24-.73-.08-.08.08-.08.16-.08.24.08.24.4.32.65.4s.56.16.81.24c.56.16,1.13.4,1.69.65,1.13.48,2.26.97,3.39,1.61.4.08.73-.48.4-.65h0Z" style="fill: #a3cdda; stroke-width: 0px;"/>
                          <path d="m303.22,87.82c-.73.32-1.53.65-2.26.97-.4.16-.73.32-1.13.48-.16.08-.4.16-.56.24s-.32.08-.48.24c-.08.08,0,.16.08.24.16.08.32.08.56,0,.24-.08.4-.08.65-.16.4-.16.81-.24,1.29-.4.81-.32,1.53-.65,2.34-1.05.16-.08.24-.32.16-.48-.24-.16-.48-.16-.65-.08h0Z" style="fill: #a3cdda; stroke-width: 0px;"/>
                          <path d="m303.86,86.05c-.4-.16-.89-.16-1.37-.24-.24,0-.48-.08-.73-.08h-.65c-.16,0-.16.24-.08.24.16.08.32.16.56.24.08,0,.24.08.4.08s.24,0,.4.08c.4.08.89.08,1.29.24.32,0,.48-.48.16-.56h0Z" style="fill: #a3cdda; stroke-width: 0px;"/>
                          <path d="m277.15,77.82s4.03-9.68,2.82-12.1-3.47-2.34-3.47-2.34c0,0-1.53,10.41.65,14.44Z" style="fill: #a0572f; stroke-width: 0px;"/>
                          <path d="m307.57,77.82s-2.26-6.13-2.42-9.52c-.24-3.39.16-4.6.97-5.41s2.82.73,2.9,3.71c.08,7.75-1.45,11.22-1.45,11.22Z" style="fill: #a0572f; stroke-width: 0px;"/>
                          <path d="m286.11,75.24c-.32-.56-.81-.97-1.53-.89-.65.08-1.21.65-1.37,1.21-.24.97,0,2.34,1.13,2.58.97.24,1.69-.32,1.94-1.13.24-.48.16-1.21-.16-1.78Z" style="fill: #463c39; stroke-width: 0px;"/>
                          <path d="m297.65,75.32c.32-.56.81-.97,1.53-.89.65.08,1.21.65,1.37,1.21.24.97,0,2.34-1.13,2.58-.97.24-1.69-.32-1.94-1.13-.24-.48-.16-1.21.16-1.78Z" style="fill: #463c39; stroke-width: 0px;"/>
                        </g>
                        <path d="m275.94,76.12c.56,1.21,1.05,2.5,1.45,3.79.4,1.13.81,2.26.89,3.55,0,.56.81.56.89,0,.08-.65-.16-1.29-.32-1.86-.24-.65-.48-1.21-.65-1.86-.48-1.37-.89-2.74-1.69-3.87-.24-.4-.73-.08-.56.24h0Z" style="fill: #fff; stroke-width: 0px;"/>
                        <path d="m307.98,75.88c-.24.24-.48.48-.65.81-.16.24-.32.56-.48.89-.32.56-.56,1.21-.73,1.86-.24.65-.4,1.21-.56,1.86-.08.32-.16.65-.24.97-.08.32-.16.65.08.81.08.08.16.08.24,0,.24-.08.32-.4.4-.65.08-.32.16-.65.24-.89.16-.56.32-1.21.56-1.78.24-.56.48-1.13.73-1.69.16-.32.32-.56.4-.89.16-.32.24-.65.4-.89.16-.32-.16-.65-.4-.4h0Z" style="fill: #fff; stroke-width: 0px;"/>
                      </g>
                      <path d="m286.6,71.85c-.81-.32-1.86-.48-2.66-.24-.48.16-.89.32-1.21.65-.16.16-.32.32-.48.48s-.32.4-.4.65c0,.16.08.24.24.24s.4-.08.56-.08c.16-.08.4-.08.56-.16.08,0,.16-.08.24-.08,0,0,.24-.08.16-.08s.08,0,.08,0c.08,0,.16-.08.24-.08s.08,0,0,0c.08,0,.16-.08.24-.08.16-.08.32-.08.48-.16.08,0,.16-.08.24-.08h.16c-.08,0,.08,0,.08,0,.4,0,.81,0,1.13.08.65.08.89-.81.32-1.05h0Z" style="fill: #a0572f; stroke-width: 0px;"/>
                      <path d="m297.65,72.57c-.08,0,.08,0,0,0,.08,0,.16-.08.16-.08.08,0,.16,0,.24-.08h1.13c.24,0,.4,0,.56.08.4.08.81.24,1.21.32.16.08.4.08.56.16h.16c.08,0,.16.08.24.08s.16-.08.16-.16c.08-.4-.32-.89-.65-1.05-.4-.24-.97-.4-1.45-.48-.97-.16-2.02-.16-2.9.32-.24.08-.32.4-.16.65.24.32.56.32.73.24h0Z" style="fill: #a0572f; stroke-width: 0px;"/>
                    </g>
                    <path d="m273.69,67.65s1.53-17.27,14.44-18.88,20.49,6.94,21.71,11.3.97,8.63.97,8.63c0,0-31.07-3.79-37.12-1.05Z" style="fill: #ff941b; stroke-width: 0px;"/>
                    <path d="m289.5,67.33s.16-10.73.24-12.99c.08-2.26-.32-5.97.24-6.29.65-.32,4.84-.16,5.49.48.65.65.24,18.16.08,18.8-.08.48-6.05,0-6.05,0Z" style="fill: #ff941b; stroke-width: 0px;"/>
                    <path d="m289.74,65.31v-4.68c.08-3.15.08-6.29.24-9.44,0-.97.08-1.94.16-2.9,0-.08,0-.24-.16-.24-.32.48-.48,1.29-.56,1.86-.08.81-.08,1.69-.08,2.5,0,.89,0,1.69-.08,2.58-.08,3.07,0,6.21-.08,9.28v1.05c.24-.08.4,0,.56,0Z" style="fill: #a0572f; stroke-width: 0px;"/>
                    <path d="m295.79,55.63c.08,2.99.08,5.97.08,8.96,0,.32-.08.73-.08,1.13.16-.16.4-.32.65-.4v-4.28c0-3.15-.16-6.21-.16-9.36-.08-2.99-.73-3.15-.73-3.15.32,2.18.16,4.76.24,7.1Z" style="fill: #a0572f; stroke-width: 0px;"/>
                    <path d="m298.38,60.07c-.08-.32-.24-.65-.48-.97-1.37-2.26-4.68-3.95-7.34-3.15-.97.32-1.69.97-2.34,1.69-1.69,2.18-1.86,5.73.4,7.67,1.94,1.61,5.24,1.94,7.34.65,2.18-1.29,3.15-3.71,2.42-5.89Z" style="fill: #a0572f; stroke-width: 0px;"/>
                    <path d="m297.73,60.07c-.08-.32-.24-.56-.4-.89-1.21-1.94-4.12-3.47-6.37-2.74-.81.24-1.53.81-2.02,1.45-1.53,1.94-1.61,5,.4,6.7,1.69,1.37,4.6,1.69,6.46.56,1.69-1.05,2.58-3.15,1.94-5.08Z" style="fill: #ffedb0; stroke-width: 0px;"/>
                    <path d="m264.24,76.85s0-3.71,5.73-6.13c5.73-2.42,17.11-2.34,25.17-2.5s18.96,2.02,21.87,4.03c3.31,2.34,3.55,7.02,3.55,7.02,0,0,2.74-7.67-5.97-10.81-8.63-3.15-34.45-2.9-42.36-1.13-3.31.73-5.65,2.02-6.54,3.15-2.66,3.39-1.45,6.37-1.45,6.37Z" style="fill: #ffc500; stroke-width: 0px;"/>
                    <path d="m292.89,57.24c-.89-.08-1.86.08-2.66.65-.4.32-.81.65-.97,1.13-.16.32-.24.56-.24.89s.16.81.48.97l-.16-.16c0,.08.08.08.08.16.16.24.56.16.73-.08v-.08l-.16.16c.16-.08.24-.16.32-.24-.16.16.08-.08.08-.08l.08-.08c0-.08.08-.16.08-.24q-.08.16-.08.08c.08-.16.16-.24.16-.4v-.08c-.08.24-.08.08,0,0,0-.08.08-.16.16-.24l.08-.08c-.16.24-.08.08,0,0s.08-.16.16-.16l.08-.08c.08-.08.24-.16,0,0,.32-.16.65-.4.97-.48.08-.08-.16.08,0,0,0,0,.08,0,.08-.08.08,0,.16-.08.24-.08s.16,0,.24-.08c.16,0-.16,0,0,0h.16c.32,0,.73-.32.65-.65.08-.32-.24-.56-.56-.65h0Z" style="fill: #fff; stroke-width: 0px;"/>
                    <path d="m294.99,64.67h.24c.08,0,.16-.08.24-.08h.08c.08,0,.08-.08.16-.08l.08-.08q.08-.08.08-.16v-.08h0v-.4c0-.08-.08-.16-.08-.24l-.16-.16c-.08-.08-.16-.08-.32-.08h-.32c-.08,0-.16.08-.24.08.08,0,.08-.08.16-.08-.08,0-.16.08-.24.08.08,0,.08-.08.16-.08-.08,0-.16.08-.24.08h.16-.08c-.16,0-.24,0-.32.08-.08,0-.08.08-.16.08-.08.08-.16.16-.16.32v.24c0,.08,0,.16.08.24.08.08.08.16.16.16.08.08.16.08.24.16.24,0,.4,0,.48,0h0Z" style="fill: #fff; stroke-width: 0px;"/>
                  </g>
                  <path d="m304.91,101.22c-.4.65-.89,1.21-1.29,1.69-1.05,1.13-2.26,2.18-3.55,2.99-1.29.89-2.66,1.53-4.2,1.94-.73.24-1.45.4-2.26.48h-.48l-.08-1.94c.08,0,.24,0,.32-.08.65-.16,1.29-.32,1.86-.56,1.29-.48,2.42-1.13,3.55-1.94,1.13-.73,2.1-1.69,2.99-2.66.56-.56,1.05-1.37,1.69-1.94l.48,1.78c.24.08.56.16.97.24Z" style="fill: #ffd442; stroke-width: 0px;"/>
                  <path d="m279.9,101.22c.4.65.89,1.21,1.29,1.69,1.05,1.13,2.26,2.18,3.55,2.99,1.29.89,2.66,1.53,4.2,1.94.73.24,1.45.4,2.26.48h.48l.08-1.94c-.08,0-.24,0-.32-.08-.65-.16-1.29-.32-1.86-.56-1.29-.48-2.42-1.13-3.55-1.94-1.13-.73-2.1-1.69-2.99-2.66-.56-.56-1.05-1.37-1.69-1.94l-.48,1.78c-.24.08-.48.16-.97.24Z" style="fill: #ffd442; stroke-width: 0px;"/>
                  <path d="m325.08,158.02s-12.83,2.02-34.45,2.42c-17.67.32-30.9-3.15-30.9-3.15l-.24-7.26-.24-7.02-.32-9.04c.4,0,21.95,3.79,37.92,3.23,15.98-.56,27.35-3.79,27.35-3.79l.32,9.04.24,7.67.32,7.91Z" style="fill: #ffd442; stroke-width: 0px;"/>
                  <path d="m324.76,150.2c-5.49,1.05-15.9,3.15-31.95,3.15-15.01,0-26.79-2.26-33.32-3.39l-.24-7.02c5.73,1.05,18.4,3.07,34.62,2.9,14.44-.16,25.09-2.18,30.74-3.47l.16,7.83Z" style="fill: #fff; stroke-width: 0px;"/>
                  <path d="m292.32,120.99c-.24,6.62-.08,13.31-.08,19.93v9.84c0,3.39-.16,6.78.16,10.17,0,.32.48.32.56,0,.32-3.39.16-6.78.16-10.17v-9.84c0-6.62.16-13.31-.08-19.93-.08-.48-.73-.48-.73,0h0Z" style="fill: #a0572f; stroke-width: 0px;"/>
                  <g>
                    <path d="m289.18,150.44s44.54-67.13,46.72-68.42c2.18-1.29,3.15.4.81,4.76s-39.94,69.8-42.12,70.2c-2.18.32-7.58-2.58-5.41-6.54Z" style="fill: #4b423f; stroke-width: 0px;"/>
                    <path d="m334.36,74.11s-6.13-3.63-6.54-2.82-1.45,5.41-1.61,8.15.24,4.76.24,4.76c0,0,5.57,2.34,9.12,4.84,3.55,2.58,9.36,10.73,10.17,11.38s4.03-5.97,7.99-9.6,5.81-5.16,6.13-5.57c.24-.4-10.97-4.44-16.94-7.18-5.97-2.74-8.55-3.95-8.55-3.95Z" style="fill: #c7c4c4; stroke-width: 0px;"/>
                    <path d="m353.97,82.58c-.08.08-.16.08-.24.16-5,3.07-10.41,5.24-15.82,7.5-.16.08-.4.16-.56.24,3.47,3.39,7.75,9.28,8.39,9.84.81.65,4.03-5.97,7.99-9.6s5.81-5.16,6.13-5.57c.16-.08-2.5-1.21-5.89-2.58Z" style="fill: #f63904; stroke-width: 0px;"/>
                  </g>
                  <path d="m319.76,131.48s-9.84-11.05-13.64-11.14c-3.79-.08-6.13,5.24-7.34,8.47s.73,5.57,3.15,7.5c2.42,1.94,4.6,3.95,4.6,3.95,0,0,2.18,5,2.74,6.05.56,1.05,6.62-5.08,9.2-8.07s1.29-6.78,1.29-6.78Z" style="fill: #a0572f; stroke-width: 0px;"/>
                  <path d="m307.33,143.9s5.81-2.58,9.36-7.02,3.55-6.13,3.55-6.13c0,0,7.99,4.76,13.8,11.22,5.81,6.54,8.23,10.01,8.8,11.38.56,1.37.73,18.16-10.09,18.24-8.39.08-16.06-8.23-19.45-14.44-3.47-6.21-5.97-13.23-5.97-13.23Z" style="fill: #ff941b; stroke-width: 0px;"/>
                  <path d="m314.68,159.48c1.21-.32,2.5-.81,3.63-1.37,3.87-1.86,7.34-4.68,10.09-7.99,2.18-2.66,3.87-5.73,4.76-9.12-3.23-3.39-6.94-6.21-9.52-8.07-.24.65-.56,1.21-.97,1.86-1.78,3.15-4.44,5.73-7.34,7.83-2.18,1.53-4.52,2.82-7.02,3.79,1.05,2.58,2.82,6.86,5,10.73.32.81.81,1.61,1.37,2.34Z" style="fill: #ffd442; stroke-width: 0px;"/>
                  <path d="m317.58,153.51c4.03-1.86,7.42-5,10.01-8.63,1.29-1.78,2.34-3.63,3.23-5.65.08-.08.08-.24.16-.32-.97-.89-1.94-1.78-2.9-2.5-.56,1.05-1.13,2.1-1.78,3.15-2.18,3.39-4.92,6.37-8.23,8.63-1.61,1.05-3.31,2.02-5.08,2.74-.73.32-1.53.56-2.34.73.48,1.05,1.05,2.18,1.61,3.31,1.78-.16,3.63-.65,5.33-1.45Z" style="fill: #fff; stroke-width: 0px;"/>
                  <path d="m319.84,131.8c4.2,1.94,7.75,5,11.05,8.23,1.61,1.53,3.15,3.15,4.6,4.84.81.89,1.69,1.78,2.42,2.66.89.97,1.61,2.18,2.58,2.99.16.16.56,0,.48-.24-.48-1.13-1.45-2.1-2.26-3.07s-1.61-1.86-2.5-2.74c-1.61-1.69-3.23-3.47-4.92-5.08-3.39-3.23-7.02-6.13-11.38-7.91-.16-.16-.32.24-.08.32h0Z" style="fill: #a0572f; stroke-width: 0px;"/>
                  <path d="m307.25,143.98c1.69,5.41,3.71,10.81,6.86,15.49,1.45,2.18,3.15,4.44,5,6.21.81.81,1.69,1.45,2.58,2.1.97.73,1.94,1.45,2.99,1.94.24.08.48-.16.32-.4-1.69-1.45-3.71-2.66-5.33-4.2-1.94-1.86-3.55-4.12-5.08-6.37-1.53-2.34-2.99-4.84-4.12-7.42-1.05-2.5-1.78-5.16-2.99-7.58-.08-.08-.32,0-.24.24h0Z" style="fill: #a0572f; stroke-width: 0px;"/>
                </g>
                <g>
                  <path d="m124.17,130.11s.24,28.4,1.45,34.13c1.21,5.65,4.03,8.23,7.42,8.07,7.58-.24,9.44-5.97,10.65-7.18s-3.23-12.43-3.23-12.43c0,0-2.42,2.26-2.82,2.42s-6.21-20.01-6.46-21.46c-.24-1.45-6.37-5.16-7.02-3.55Z" style="fill: #ffae91; stroke-width: 0px;"/>
                  <path d="m168.71,92.83s-2.1.81-3.95,2.99c-.89,1.05-1.78,2.26-1.78,2.26,0,0-12.18,2.26-17.27,8.63-5.16,6.37-11.22,38.49-11.22,38.49,0,0,5.65,23.08,6.37,23.32.65.24,10.65-10.65,15.82-17.03,5.16-6.37,48.33-4.2,50.35-3.95s21.46-2.02,21.06-5-10.25-32.76-19.85-38.09c-9.6-5.24-15.25-6.46-15.25-6.46,0,0-.81-3.95-6.46-5.08-5.65-.97-17.83-.08-17.83-.08Z" style="fill: #f6f5f5; stroke-width: 0px;"/>
                  <path d="m145.55,118.97c.16,2.26.48,4.44.89,6.62.56,3.31.97,6.54,1.29,9.84.32,3.15.65,6.37.81,9.52.08,1.61.16,3.15.24,4.76.08,1.53,0,3.23.4,4.68.08.24.4.24.4,0,.4-1.53.24-3.31.24-4.84-.08-1.61-.16-3.23-.32-4.76-.24-3.23-.56-6.37-.97-9.52-.4-3.07-.81-6.21-1.37-9.28-.4-2.34-.73-4.84-1.29-7.1.08-.24-.32-.16-.32.08h0Z" style="fill: #cdcaca; stroke-width: 0px;"/>
                  <g>
                    <g>
                      <path d="m167.9,87.34s.24,12.75.24,13.8,8.8,15.57,10.09,15.82c2.9,0,9.28-13.88,10.01-16.62.73-2.66-.4-14.77-.4-14.77,0,0-18.64,2.9-19.93,1.78Z" style="fill: #ffae91; stroke-width: 0px;"/>
                      <path d="m193.48,73.78c-.16,1.78-.48,3.63-.97,5.33-1.61,6.21-4.92,11.78-9.68,13.64-6.21,2.42-13.48-.4-17.27-6.78-.97-1.61-1.61-4.12-1.94-6.86-1.05-7.91-.08-18.24-.08-18.24,11.78-10.97,29.29-.81,29.29-.81,0,0,1.45,5.65.65,13.72Z" style="fill: #ffae91; stroke-width: 0px;"/>
                      <g>
                        <path d="m164.19,76.12s-2.02-4.6-3.95-4.44c-2.02.16-2.02,4.44-.32,6.86,1.61,2.42,5,3.23,5.49,2.66.4-.48-1.21-5.08-1.21-5.08Z" style="fill: #ffae91; stroke-width: 0px;"/>
                        <path d="m191.87,76.12s2.02-4.6,3.95-4.44c2.02.16,2.02,4.44.32,6.86-1.61,2.42-5,3.23-5.49,2.66s1.21-5.08,1.21-5.08Z" style="fill: #ffae91; stroke-width: 0px;"/>
                      </g>
                      <path d="m192.51,79.19c-1.61,6.21-4.92,11.78-9.68,13.64-6.21,2.42-13.48-.4-17.27-6.78-.97-1.61-1.61-4.12-1.94-6.86,2.42-1.21,10.33-4.92,14.77-4.6s11.46,2.58,14.12,4.6Z" style="fill: #fff; stroke-width: 0px;"/>
                      <path d="m165.4,80.97c1.13-.56,2.18-1.13,3.39-1.61.56-.24,1.13-.4,1.69-.65.24-.08.56-.16.81-.24.24-.08.56-.08.65-.32,0-.08,0-.16-.08-.24-.24-.16-.48,0-.73.08-.32.08-.65.24-.89.32-.56.24-1.13.4-1.69.65-1.13.48-2.26.97-3.47,1.45-.32.16,0,.73.32.56h0Z" style="fill: #a3cdda; stroke-width: 0px;"/>
                      <path d="m165.97,84.76c.81.32,1.53.73,2.34,1.05.4.16.81.32,1.21.4.16.08.4.16.56.16.16.08.4.08.56,0,.08-.08.08-.16.08-.24-.08-.16-.24-.16-.48-.24-.16-.08-.4-.16-.56-.16-.4-.16-.81-.32-1.13-.48-.73-.32-1.45-.65-2.26-.97-.16-.08-.32-.08-.48.08-.08.08,0,.32.16.4h0Z" style="fill: #a3cdda; stroke-width: 0px;"/>
                      <path d="m165.8,82.9c.4-.08.89-.16,1.29-.24.24,0,.56-.08.81-.08.16-.08.4-.16.56-.24.08-.08.08-.32-.08-.24h-.56c-.24,0-.48.08-.81.08-.4.08-.89.08-1.29.24-.32.08-.24.56.08.48h0Z" style="fill: #a3cdda; stroke-width: 0px;"/>
                      <path d="m190.25,80.4c-1.13-.48-2.26-.97-3.47-1.45-.56-.24-1.13-.48-1.69-.65-.32-.08-.65-.24-.89-.32s-.48-.24-.73-.08c-.08.08-.08.16-.08.24.08.24.4.32.65.32.24.08.56.16.81.24.56.16,1.13.4,1.69.65,1.13.48,2.26.97,3.39,1.61.32.16.65-.4.32-.56h0Z" style="fill: #a3cdda; stroke-width: 0px;"/>
                      <path d="m189.12,84.19c-.73.32-1.45.65-2.26.97-.4.16-.73.32-1.13.48-.16.08-.4.16-.56.16-.16.08-.32.08-.48.24-.08.08,0,.16.08.24.16.08.32.08.56,0s.4-.08.56-.16c.4-.16.81-.24,1.21-.4.81-.32,1.53-.65,2.34-1.05.16-.08.24-.32.08-.48-.08-.08-.24-.08-.4,0h0Z" style="fill: #a3cdda; stroke-width: 0px;"/>
                      <path d="m189.69,82.42c-.4-.16-.89-.16-1.29-.24-.24,0-.48-.08-.73-.08h-.65c-.16,0-.16.16-.08.24.16.08.32.16.56.24.08,0,.24.08.4.08s.24,0,.4.08c.4.08.89.08,1.29.24.24,0,.4-.48.08-.56h0Z" style="fill: #a3cdda; stroke-width: 0px;"/>
                      <path d="m163.14,74.19s4.03-9.68,2.82-12.1-3.47-2.26-3.47-2.26c0,0-1.53,10.41.65,14.36Z" style="fill: #a0572f; stroke-width: 0px;"/>
                      <path d="m193.4,74.19s-2.26-6.05-2.42-9.44c-.24-3.39.16-4.6.97-5.41s2.82.73,2.9,3.71c.08,7.67-1.45,11.14-1.45,11.14Z" style="fill: #a0572f; stroke-width: 0px;"/>
                      <path d="m172.02,71.61c-.32-.56-.81-.97-1.53-.89-.65.08-1.21.65-1.37,1.21-.24.97,0,2.34,1.13,2.58.97.24,1.69-.32,1.94-1.13.24-.48.16-1.21-.16-1.78Z" style="fill: #463c39; stroke-width: 0px;"/>
                      <path d="m173.31,68.06c-.48-.32-1.69-.4-2.26-.32-.65,0-1.29.16-1.86.4s-1.53.89-1.69,1.53c-.08.56.16.4.56.32.56-.24,1.05-.32,1.69-.32,1.05,0,2.1.08,3.15-.08.81-.16,1.05-.97.4-1.53Z" style="fill: #a0572f; stroke-width: 0px;"/>
                      <path d="m183.48,71.69c.32-.56.81-.97,1.53-.89.65.08,1.21.65,1.37,1.21.24.97,0,2.34-1.13,2.58-.97.24-1.69-.32-1.94-1.13-.24-.48-.16-1.13.16-1.78Z" style="fill: #463c39; stroke-width: 0px;"/>
                      <path d="m182.43,68.06c.48-.32,1.69-.4,2.26-.32.65,0,1.29.16,1.86.4s1.53.89,1.69,1.53c.08.56-.16.4-.56.32-.56-.16-1.05-.32-1.69-.32-1.05,0-2.1.08-3.15-.08-.89-.24-1.13-1.05-.4-1.53Z" style="fill: #a0572f; stroke-width: 0px;"/>
                    </g>
                    <path d="m161.61,68.22s-.16-14.77,6.21-20.09c6.37-5.33,18.64-4.52,23.32,2.66,4.68,7.18,3.95,12.26,3.95,13.64s-.16,3.07-.16,3.07c0,0-.24-5.08-10.41-8.39-13.64-4.36-22.92,9.12-22.92,9.12Z" style="fill: #463c39; stroke-width: 0px;"/>
                    <path d="m160.96,69.27c.32.73,1.45-1.21,5.16-4.12,3.63-2.9,7.42-5.24,14.04-5.24,5,0,11.14,4.36,12.67,6.54,1.61,2.26,2.34,3.39,2.99,2.82.73-.65-1.69-6.21-7.5-9.6-6.46-3.79-11.94-3.07-15.57-1.45-7.75,3.55-12.35,9.76-11.78,11.05Z" style="fill: #007399; stroke-width: 0px;"/>
                  </g>
                  <path d="m162.9,98.39c-.81,2.02-1.05,4.28-1.13,6.37-.08,1.53-.08,3.07.08,4.6.08.97.08,2.1,1.05,2.66.89.56,2.26.56,3.23.65,1.69.16,3.39,0,5,.48,1.21.32,2.26,1.05,3.31,1.78,1.05.81,1.86,1.78,2.9,2.58.24.16.65-.08.48-.4-.48-.89-1.53-1.69-2.34-2.34-.89-.73-1.86-1.37-2.9-1.86-2.58-1.21-5.33-.65-7.99-1.05-.48-.08-1.21-.16-1.53-.65-.48-.48-.4-1.37-.4-2.02-.16-1.45-.16-2.9-.08-4.36.08-2.1.24-4.36.89-6.46-.08-.16-.48-.24-.56,0h0Z" style="fill: #cdcaca; stroke-width: 0px;"/>
                  <path d="m192.83,98.23c.65,2.02.73,4.2.89,6.29.08,1.45.08,2.9-.08,4.36-.08.65,0,1.61-.4,2.18-.32.4-1.05.48-1.53.65-2.66.4-5.41-.16-7.91.97-1.05.48-2.02,1.13-2.9,1.86-.81.65-1.94,1.45-2.42,2.42-.16.32.24.56.48.4,1.05-.81,1.86-1.78,2.9-2.58.97-.73,2.1-1.45,3.31-1.78,1.61-.48,3.31-.4,5-.48,1.05-.08,2.34-.08,3.23-.65s.97-1.69,1.05-2.66c.16-1.53.16-3.07.08-4.6-.16-2.1-.4-4.36-1.13-6.37-.32-.32-.65-.24-.56,0h0Z" style="fill: #cdcaca; stroke-width: 0px;"/>
                  <path d="m166.85,97.1c-.56.65-.56,1.53-.32,2.34.32,1.13.81,2.26,1.29,3.31.65,1.37,1.37,2.74,2.34,3.95,1.05,1.29,2.02,2.66,2.99,4.03,1.05,1.45,2.18,2.82,3.23,4.2.65.89,1.13,1.86,1.86,2.66.08.08.16,0,.16-.08-.16-.73-.89-1.45-1.29-2.1-.89-1.29-1.69-2.66-2.58-3.95-1.61-2.26-3.23-4.6-4.68-6.94-.73-1.13-1.29-2.26-1.78-3.47-.4-.97-1.53-2.74-.81-3.71.08-.16-.24-.4-.4-.24h0Z" style="fill: #cdcaca; stroke-width: 0px;"/>
                  <path d="m189.04,96.38c.97,2.02-.56,4.6-1.45,6.46-.56,1.13-1.29,2.26-1.94,3.39-.97,1.61-1.86,3.23-2.82,4.84-.56.97-1.45,2.18-1.69,3.39,0,.16.16.24.24.16.65-.65,1.05-1.61,1.53-2.42.73-1.37,1.53-2.74,2.34-4.12,1.21-2.18,2.34-4.44,3.55-6.7.81-1.53,2.02-3.71.56-5.33-.16-.16-.48.08-.32.32h0Z" style="fill: #cdcaca; stroke-width: 0px;"/>
                  <path d="m211.31,229.92l-.08-2.26v-3.55l-.16-10.97-.16-7.58-.48-26.71v-1.05l-.08-5.24h0v-1.05l-.16-7.5v-2.58l-.08-3.23h0l-.16-9.76s-.08-.32-.4-.89c-.4-.81-1.21-2.18-2.5-4.03-.08-.08-.08-.16-.16-.24-.08-.08-.16-.24-.24-.32-.08-.08-.16-.16-.16-.24l-.08-.08c-.56-.73-1.13-1.53-1.69-2.42h0c-1.13-1.69-2.34-3.47-3.15-4.68-.24-.4-.48-.73-.65-.97s-.24-.4-.24-.4c0,0-1.61-.81-7.75-1.78h0c-.81-.08-1.69-.24-2.66-.4-.08,0-.24,0-.32-.08h-.08c-.48-.08-1.13-.08-1.69-.16-1.37-.08-2.99-.08-4.68-.08h-3.87c-1.13.08-2.18.16-3.31.24-3.95.32-7.99.73-11.3,1.13h0c-.4.08-.81.08-1.21.16h0c-3.23.4-5.57.81-6.54,1.05-.4.08-.89.48-1.29.97-2.02,2.18-4.36,7.5-5.97,11.46h0c-.32.81-.65,1.61-.89,2.26h0c-.48,1.29-.81,2.18-.81,2.18,0,0,.4,4.2.81,9.52.56,6.62,1.21,14.93,1.45,18.72.16,2.9.08,8.23-.16,13.48-.16,4.03-.32,8.07-.48,11.05,1.53,2.26,3.15,4.44,4.84,6.62,2.26,2.9,4.76,5.65,7.34,8.23,0,.08.08.16.08.16,2.02.89,3.79,2.34,5.49,3.71,1.69,1.45,3.23,2.99,4.6,4.68,1.21,1.45,2.34,2.99,3.31,4.68,1.05.16,2.18.24,3.31.32h0c5.73.48,12.43.56,18.32.48h0c3.63,0,6.86-.16,9.36-.24,3.15-.16,5.16-.24,5.16-.24l-.4-2.34Z" style="fill: #463c39; stroke-width: 0px;"/>
                  <path d="m158.22,98.64c-.81-.16-5.57,1.21-5.57,3.63s2.9,35.26,3.79,38.97c.97,3.79,2.9,6.54,6.37,3.87,3.55-2.66-3.79-46.4-4.6-46.48Z" style="fill: #4f4643; stroke-width: 0px;"/>
                  <path d="m159.03,139.95c.24-.32.56-.65.97-.81.16-.08.32-.08.48-.08.24,0,.32,0,.56.08.32.08.65.24.89.48.16.16.16.24.32.4q.08.08.08.24v.16s0,.16,0,.08c.08.4-.08.81-.24,1.21-.08.08-.08.16-.16.24.08-.08,0,0-.08.08,0,.08-.08.08-.16.16l-.08.08c-.08.08.08,0,0,0l-.08.08c-.08.08-.16.08-.24.16-.08,0,0,0,0,0h-.08q-.08,0-.16.08c-.08,0-.16.08-.24.08s.08,0,0,0h-.65s.08,0,0,0h-.16c-.08,0-.16,0-.24-.08-.08,0-.16,0-.24-.08h-.16c-.08,0,.08,0,0,0-.08-.08-.16-.08-.24-.16-.08-.08-.16-.08-.16-.16-.16-.08-.32-.24-.32-.32-.08-.16-.08-.32-.08-.48,0-.24.08-.4.08-.65,0-.08-.16-.16-.24-.08-.4.24-.32.81-.24,1.21,0,.08.08.16.08.24-.08-.08,0-.08,0,0v.24c.08.24.24.4.4.56.32.32.73.56,1.21.65s.97.08,1.45-.08c1.05-.32,1.69-1.37,1.69-2.5,0-1.05-.65-1.94-1.61-2.34-1.21-.4-2.42.08-3.07,1.13-.08.24.48.56.73.16h0Z" style="fill: #87807e; stroke-width: 0px;"/>
                  <path d="m197.6,99.12c.81-.16,5.97.65,5.97,3.07s-2.9,35.26-3.79,38.97c-.97,3.79-2.9,6.54-6.37,3.87-3.55-2.58,3.39-45.75,4.2-45.91Z" style="fill: #4f4643; stroke-width: 0px;"/>
                  <path d="m197.84,139.63c-.56-.97-1.61-1.45-2.74-1.21-.97.16-1.78.97-1.94,2.02s.32,2.26,1.37,2.74c.89.4,1.94.4,2.66-.16.24-.16.4-.32.56-.56.08-.08.08-.24.16-.32v-.16c0,.08,0,0,.08-.08.16-.4.24-1.05-.16-1.37-.08-.08-.24,0-.24.08-.08.32.16.65.08.97v.08s-.08.08,0,.08l-.16.16c-.16.16-.24.16-.4.32-.08.08-.16.08-.24.08h-.08q-.08,0-.16.08c-.16.08-.32.08-.48.08h-.16c-.08,0,.08,0,0,0h-.48s-.16,0-.08,0c-.08,0-.16,0-.24-.08h-.08s-.16-.08-.08,0c-.08,0-.16-.08-.24-.16,0,0-.16-.08-.08,0l-.08-.08-.16-.16c-.24-.32-.4-.73-.4-1.13s.08-.65.32-1.05c0,0,.08-.08,0,0l.08-.08.08-.08.16-.16s.16-.08.24-.16l.08-.08q.08,0,.08-.08c.4-.16.81-.16,1.13-.08.4.08.81.4,1.05.81.16.48.81.16.56-.24h0Z" style="fill: #87807e; stroke-width: 0px;"/>
                  <g>
                    <path d="m100.77,90.73c-2.99-2.18-6.37-5.73-7.67-9.28-.24-.73-.56-1.61,0-2.34s1.69-.56,2.5-.65c.89-.08,1.78,0,2.58-.48.89-.56,1.29-1.53,2.02-2.26,1.21-1.05,2.9-.56,4.36-.97,2.02-.56,2.66-2.9,4.92-2.9,1.05,0,1.86.24,2.74-.32.97-.56,1.37-1.45,2.02-2.34,1.45-2.02,2.9-.89,4.92-.56,2.5.4,2.82-3.15,5.08-3.15,1.78,0,2.9,1.53,4.68.24.81-.56,1.37-1.61,2.42-1.86s1.69.56,2.58.73c1.69.4,3.23-2.18,4.84-2.74,4.44-1.37,3.07,6.78,2.66,8.8-.4,2.18-.4,4.44-1.61,6.37-1.21,1.86-3.95,2.66-5.97,3.47-5.89,2.34-12.02,3.87-18.16,5.57-4.2,1.13-8.31,3.39-12.59,3.79-.73.08-1.45-.08-2.02.4l-.32.48Z" style="fill: #ffc500; stroke-width: 0px;"/>
                    <path d="m135.79,68.3c.08,1.37.08,2.74.08,4.2v2.1c0,.65,0,1.37.24,2.02.08.16.24.16.32,0,.24-.65.24-1.29.24-2.02v-2.1c0-1.37-.08-2.74-.24-4.2-.08-.4-.73-.4-.65,0h0Z" style="fill: #4f4643; stroke-width: 0px;"/>
                    <path d="m97.78,82.74c.73.81,1.37,1.53,2.02,2.34s1.37,1.53,2.26,2.1c.08.08.24-.08.16-.16-.65-.81-1.29-1.53-2.02-2.34-.73-.73-1.37-1.53-2.1-2.26-.16-.24-.48.08-.32.32h0Z" style="fill: #4f4643; stroke-width: 0px;"/>
                    <path d="m105.21,79.84c.48,1.05.97,2.02,1.61,3.07.32.48.56.97.89,1.45.32.4.56.97,1.05,1.21.16.08.32-.08.32-.24-.08-.56-.48-.97-.81-1.45s-.65-.97-.89-1.37c-.65-.97-1.21-1.94-1.69-2.9-.24-.24-.65,0-.48.24h0Z" style="fill: #4f4643; stroke-width: 0px;"/>
                    <path d="m119.81,74.19c.24,1.21.73,2.26,1.13,3.39.24.56.4,1.13.65,1.69.08.24.16.56.24.81.08.24.16.48.4.65.08.08.24,0,.32-.16.08-.24,0-.56-.08-.81s-.16-.48-.24-.81c-.24-.56-.4-1.13-.65-1.61-.48-1.13-.89-2.18-1.21-3.31-.16-.24-.65-.08-.56.16h0Z" style="fill: #4f4643; stroke-width: 0px;"/>
                    <path d="m127.64,71.04c.16,1.29.24,2.58.48,3.87.16,1.21.24,2.58.89,3.71.08.16.32.08.32-.08.08-.65-.08-1.29-.16-1.94s-.24-1.21-.32-1.86c-.16-1.29-.48-2.5-.73-3.79-.08-.16-.48-.08-.48.08h0Z" style="fill: #4f4643; stroke-width: 0px;"/>
                    <path d="m111.82,75.96c.48,1.37,1.13,2.58,1.94,3.79.4.56.73,1.13,1.13,1.69s.73,1.29,1.29,1.69c.08.08.32,0,.24-.16-.16-.65-.65-1.21-.97-1.69-.4-.56-.81-1.13-1.13-1.69-.73-1.21-1.45-2.42-1.86-3.79-.16-.4-.81-.24-.65.16h0Z" style="fill: #4f4643; stroke-width: 0px;"/>
                    <path d="m149.59,204.02c1.53,2.26,3.15,4.44,4.84,6.62l-4.28-17.67-6.54-26.71h0l-.16-.65-3.15-12.67-3.95-16.3h0l-1.21-4.84-.65-2.5-.48-1.86-2.18-9.04h0l-6.78-27.6-.16-.73-.89-3.63-.56-2.26-.24-.97h0l-1.69,1.45h0l-2.26,1.94,1.21,4.92.4,1.53h0l6.78,27.51,3.07,12.51h0l.81,3.31h0l.65,2.74.65,2.5,7.02,28.24h0l7.75,30.98h0l2.02,3.15Z" style="fill: #a0572f; stroke-width: 0px;"/>
                    <path d="m121.26,92.67c1.21-.81,2.5-1.53,3.87-2.02l-1.86-7.58-3.95,3.39,1.61,6.37c.08.08.24,0,.32-.16Z" style="fill: #4f4643; stroke-width: 0px;"/>
                    <path d="m141.68,73.22c-.16-.4-6.62,1.78-13.56,4.12v-.08s-30.82,10.73-30.58,11.54,3.71,7.1,7.1,7.34c1.78.16,9.28-2.34,15.82-4.68,7.26-2.5,18.72-6.54,20.33-8.07,2.5-2.34,1.21-9.36.89-10.17Z" style="fill: #a0572f; stroke-width: 0px;"/>
                  </g>
                  <path d="m124.41,138.26s-.89-7.91-.81-11.54,7.99-11.05,11.38-7.58c.89.89.08,2.1.08,2.1,0,0,1.29-.08,1.37,1.05.16,1.13-.32,1.45-.32,1.45,0,0,1.13.08,1.21,1.45s-.48,1.61-.48,1.61c0,0,1.78.73,1.21,2.42s-4.36,2.99-5.41,4.6-1.13,4.03-1.13,4.03c0,0-6.7,1.05-7.1.4Z" style="fill: #ffae91; stroke-width: 0px;"/>
                  <path d="m162.33,72.9c.48,1.13,1.05,2.26,1.37,3.47.16.56.32,1.21.4,1.86.08.32.08.65.08.97s0,.65.16.89c.16.24.56.24.73,0,.24-.56.08-1.37,0-1.94-.08-.65-.24-1.37-.4-2.02-.4-1.29-.81-2.58-1.61-3.63-.32-.48-.97-.08-.73.4h0Z" style="fill: #fff; stroke-width: 0px;"/>
                  <path d="m193.72,72.33c-1.37,1.69-1.94,3.87-2.26,5.89,0,.24-.08.48-.08.73s-.08.56,0,.73c.08.08.24.16.32.16.24-.08.24-.4.32-.56.24-1.05.4-2.1.73-3.15.32-1.13.73-2.34,1.53-3.23.24-.4-.24-.97-.56-.56h0Z" style="fill: #fff; stroke-width: 0px;"/>
                </g>
                <g>
                  <path d="m269.25,232.5c-.08-.97-.08-1.94-.16-2.9-.16-2.26-.24-4.6-.4-7.02s-.32-4.92-.48-7.42h0v-.89c-.16-2.02-.24-4.12-.4-6.21-.16-1.86-.24-3.71-.4-5.57-.16-2.34-.32-4.6-.48-6.86-.32-4.92-.65-9.36-.97-13.15-.16-2.02-.32-3.87-.48-5.41h0c-.32-3.07-.56-5.16-.81-5.73-.16-.32-.65-.48-1.37-.48-.81,0-1.86.08-3.15.32-.4.08-.73.16-1.13.16-.56.08-1.13.24-1.78.32-.65.16-1.37.24-2.02.4-.24.08-.48.08-.73.16-.56.08-1.05.24-1.61.32-.81.16-1.61.32-2.42.48h-.08c-.24.08-.48.08-.73.16-.48.08-.97.16-1.45.24-3.47.56-7.26,1.13-11.05,1.45-.48.08-.97.08-1.37.08-.32,0-.73.08-1.05.08-1.69.08-3.31.08-4.84,0-4.44-.16-8.47-.81-11.86-1.53-.16,0-.32-.08-.4-.08-.32-.08-.56-.16-.81-.16-2.58-.56-4.68-1.29-6.13-1.78-.16-.08-.32-.08-.48-.16h0c-1.37-.48-2.1-.81-2.1-.81,0,0-.08,2.02-.24,5.33h0c0,.65-.08,1.37-.08,2.1-.24,6.54-.65,16.7-.89,27.51-.08,2.42-.08,4.92-.16,7.34-.08,3.39-.08,6.7-.16,9.92v9.92c.08,4.68.16,8.88.32,12.18,7.1,1.94,14.44,3.07,22.03,3.39,1.37.08,2.74.08,4.12.08h1.78c.48-7.83,1.29-18.32,1.78-18.88.48-.48,2.1,10.57,3.23,18.64l7.34-.73c2.18-.32,4.36-.65,6.46-1.13.97-.24,2.02-.4,2.99-.65,4.6-1.13,9.12-2.58,13.48-4.28-.48-2.58-.65-5.49-.81-8.8Z" style="fill: #463c39; stroke-width: 0px;"/>
                  <path d="m226.56,94.93s-23.32,4.76-24.37,6.7c-1.05,1.94,5.49,76.82,5.49,76.82,0,0,17.35,2.26,36.96,1.21,7.75-.4,20.82-2.66,20.82-2.66,0,0,6.54-69.63,4.92-72.22-1.61-2.66-22.11-9.04-27.76-10.09-5.57-.97-16.06.24-16.06.24Z" style="fill: #007399; stroke-width: 0px;"/>
                  <path d="m234.15,113.48c-.32,2.02,0,3.95.08,5.97.08,2.18.08,4.36.16,6.46.08,4.36.24,8.71.32,12.99.08,4.44.4,8.88.4,13.31s-.32,8.88-.4,13.31c-.08,2.34,0,4.76.16,7.1.16,2.34.08,4.84.48,7.18.08.56.89.32.89-.16.24-2.1-.08-4.36-.24-6.46s-.24-4.2-.24-6.29c0-4.36.32-8.71.32-13.07s-.4-8.71-.4-13.15-.16-8.55-.24-12.83c0-2.42-.08-4.84-.16-7.26,0-2.34-.4-4.68-.4-7.02-.08-.4-.65-.48-.73-.08h0Z" style="fill: #463c39; stroke-width: 0px;"/>
                  <path d="m207.04,114.37s5.97,26.63,6.46,27.03c.56.4,31.39,12.18,30.9,13.64-.56,1.45-7.67,5.16-23.56,8.23-17.35,3.31-23.88-3.55-27.19-10.89-3.31-7.26-4.6-23.32-3.71-26.47.97-3.23,16.06-12.35,17.11-11.54Z" style="fill: #ffae91; stroke-width: 0px;"/>
                  <path d="m280.54,140.03c0,5.41-3.47,16.7-11.94,19.61s-27.03.89-38.17-3.71c-11.14-4.6-17.59-15.09-17.59-15.09,0,0,7.02-3.15,16.7-3.55,12.35-.48,26.06,3.15,26.06,3.15h0c0-.08.08-.48.16-1.05.48-3.23,1.94-12.83,2.34-13.88.56-1.29,21.22,2.42,21.22,2.42,0,0,1.21,6.7,1.21,12.1Z" style="fill: #ffae91; stroke-width: 0px;"/>
                  <g>
                    <path d="m224.47,87.5s.56,10.57.56,11.62,7.58,12.67,9.68,13.07c2.82,0,8.71-10.65,9.44-13.31s0-13.15,0-13.15c0,0-18.48,2.82-19.69,1.78Z" style="fill: #ffae91; stroke-width: 0px;"/>
                    <path d="m249.56,74.19c-.16,1.78-.48,3.55-.97,5.24-1.61,6.05-4.76,11.54-9.52,13.39-6.05,2.42-13.23-.4-16.94-6.62-.97-1.61-1.53-4.03-1.94-6.78-1.05-7.75-.08-17.91-.08-17.91,2.02-2.42,28.73-.81,28.73-.81,0,0,1.53,5.57.73,13.48Z" style="fill: #ffae91; stroke-width: 0px;"/>
                    <g>
                      <path d="m220.83,76.53s-1.94-4.52-3.87-4.36c-1.94.16-1.94,4.36-.32,6.7,1.61,2.42,4.92,3.15,5.41,2.66.32-.56-1.21-5-1.21-5Z" style="fill: #ffae91; stroke-width: 0px;"/>
                      <path d="m248.03,76.53s1.94-4.52,3.87-4.36,1.94,4.36.32,6.7-4.92,3.15-5.41,2.66c-.4-.56,1.21-5,1.21-5Z" style="fill: #ffae91; stroke-width: 0px;"/>
                    </g>
                    <path d="m248.67,79.43c-1.61,6.05-4.76,11.54-9.52,13.39-6.05,2.42-13.23-.4-16.94-6.62-.97-1.61-1.53-4.03-1.94-6.78,2.34-1.13,10.09-4.76,14.52-4.52,4.28.4,11.22,2.58,13.88,4.52Z" style="fill: #fff; stroke-width: 0px;"/>
                    <path d="m222.04,81.21c1.05-.56,2.18-1.13,3.31-1.53.56-.24,1.13-.4,1.69-.65.24-.08.56-.16.81-.24.24-.08.56-.08.65-.32,0-.08,0-.16-.08-.24-.24-.16-.48,0-.73.08-.32.08-.65.24-.89.32-.56.24-1.13.4-1.69.65-1.13.48-2.26.97-3.39,1.45-.32.16,0,.65.32.48h0Z" style="fill: #a3cdda; stroke-width: 0px;"/>
                    <path d="m222.53,84.92c.73.32,1.53.73,2.26.97.4.16.81.32,1.21.4.16.08.4.08.56.16.16.08.4.08.56,0,.08-.08.08-.16.08-.24-.08-.16-.24-.16-.48-.24-.16-.08-.4-.16-.56-.16-.4-.16-.73-.32-1.13-.48-.73-.32-1.45-.65-2.18-.97-.16-.08-.32-.08-.48.08-.08.24,0,.48.16.48h0Z" style="fill: #a3cdda; stroke-width: 0px;"/>
                    <path d="m222.45,83.14c.4-.08.89-.16,1.29-.16.24,0,.48,0,.73-.08.16-.08.4-.16.56-.24.08-.08.08-.24-.08-.24h-.56c-.24,0-.48.08-.73.08-.4.08-.89.08-1.29.24-.4,0-.24.48.08.4h0Z" style="fill: #a3cdda; stroke-width: 0px;"/>
                    <path d="m246.41,80.72c-1.13-.48-2.26-.97-3.39-1.45-.56-.24-1.13-.48-1.69-.65-.32-.08-.56-.24-.89-.32-.24-.08-.48-.24-.73-.08-.08.08-.08.16-.08.24.08.24.4.24.65.32s.56.16.81.24c.56.16,1.13.4,1.69.65,1.13.4,2.26.97,3.31,1.53.32.16.65-.32.32-.48h0Z" style="fill: #a3cdda; stroke-width: 0px;"/>
                    <path d="m245.28,84.35c-.73.32-1.45.65-2.18.97-.4.16-.73.32-1.13.48-.16.08-.4.16-.56.16-.16.08-.32.08-.48.24-.08.08,0,.16.08.24.16.08.32.08.56,0,.16-.08.4-.08.56-.16.4-.16.81-.24,1.21-.4.81-.32,1.53-.65,2.26-.97.16-.08.16-.32.08-.48-.08-.08-.24-.16-.4-.08h0Z" style="fill: #a3cdda; stroke-width: 0px;"/>
                    <path d="m245.85,82.66c-.4-.16-.89-.16-1.29-.24-.24,0-.48-.08-.73-.08h-.65c-.16,0-.16.16-.08.24l.48.24c.08,0,.24.08.32.08.16,0,.24,0,.4.08.4.08.89.08,1.29.16.4.08.56-.4.24-.48h0Z" style="fill: #a3cdda; stroke-width: 0px;"/>
                    <path d="m219.79,74.59s3.95-9.44,2.74-11.86-3.39-2.26-3.39-2.26c0,0-1.53,10.25.65,14.12Z" style="fill: #564d4b; stroke-width: 0px;"/>
                    <path d="m249.48,74.59s-2.18-5.97-2.42-9.28c-.16-3.31.16-4.52.89-5.33.81-.81,2.82.73,2.82,3.63.24,7.58-1.29,10.97-1.29,10.97Z" style="fill: #564d4b; stroke-width: 0px;"/>
                    <path d="m228.5,72.09c-.32-.56-.81-.97-1.53-.81-.65.08-1.21.56-1.29,1.21-.24.97,0,2.26,1.13,2.5.89.24,1.69-.32,1.94-1.13.16-.48.08-1.21-.24-1.78Z" style="fill: #463c39; stroke-width: 0px;"/>
                    <path d="m229.71,68.62c-.48-.32-1.61-.4-2.26-.32-.56,0-1.21.16-1.78.4s-1.53.89-1.61,1.53c-.08.48.16.4.56.32.56-.16,1.05-.32,1.61-.32.97,0,2.1.08,3.07-.08.89-.24,1.13-1.05.4-1.53Z" style="fill: #463c39; stroke-width: 0px;"/>
                    <path d="m239.8,72.17c.32-.56.81-.97,1.53-.81.65.08,1.21.56,1.29,1.21.24.97,0,2.26-1.13,2.5-.89.24-1.69-.32-1.94-1.13-.16-.48-.08-1.21.24-1.78Z" style="fill: #463c39; stroke-width: 0px;"/>
                    <path d="m238.67,68.54c.48-.32,1.61-.4,2.26-.32.56,0,1.21.16,1.78.4s1.53.89,1.61,1.53c.08.48-.16.4-.56.32-.56-.16-1.05-.32-1.61-.32-.97,0-2.1.08-3.07-.08-.81-.24-1.05-1.05-.4-1.53Z" style="fill: #463c39; stroke-width: 0px;"/>
                    <path d="m218.25,60.96s-5.08-2.99-5.24-4.12c-.16-1.37,4.36-4.36,6.37-9.28.89-.16,7.18-1.29,10.57-3.39,3.39-2.02,4.28-3.95,5.89-3.55,1.61.48,4.6,3.79,8.23,5.24,3.55,1.45,6.13,1.45,6.21,1.78.16.32,1.69,3.63,3.31,5.81,1.69,2.18,2.34,2.18,2.42,3.23s-5.65,6.37-6.29,6.94-29.37,1.61-29.77.32c-.56-1.13-1.69-2.99-1.69-2.99Z" style="fill: #007399; stroke-width: 0px;"/>
                    <path d="m218.01,61.12s.32,4.44.48,4.76c.16.32,32.6-.24,32.6-.24,0,0,.16-3.39.08-3.63-.16-.24-4.28-5-6.86-5.81-2.18-.65-8.31-2.99-8.96-2.9-2.99.16-10.97,2.5-11.7,2.9-.81.4-5.57,4.6-5.65,4.92Z" style="fill: #463c39; stroke-width: 0px;"/>
                    <path d="m218.17,65.47v1.61s12.43.08,18.8.16,14.28-.81,14.28-.81l.08-1.21s-8.96-2.74-17.11-2.5c-8.23.24-16.06,2.74-16.06,2.74Z" style="fill: #9b9694; stroke-width: 0px;"/>
                    <path d="m220.27,49.98c.08.4.16.73.4,1.05.32.56.65,1.21,1.05,1.78.73,1.21,1.45,2.5,2.26,3.63.24.32.73,1.13,1.29.81.16-.08.24-.24.16-.4,0-.08,0,.08,0,.08,0-.08,0-.16-.08-.24-.08-.08-.08-.16-.16-.24-.16-.16-.24-.32-.4-.48,0,0-.08-.16-.16-.24-.08-.16-.16-.24-.24-.4-.16-.24-.4-.56-.56-.81-.89-1.13-1.61-2.34-2.34-3.55-.16-.24-.24-.48-.48-.73-.08-.08-.16-.16-.16-.24,0,0-.16-.16-.08-.08-.16-.16-.48-.16-.48.08h0Z" style="fill: #463c39; stroke-width: 0px;"/>
                    <path d="m248.11,50.87c.08-.08,0,0,0,0-.08.16-.16.16-.24.24-.16.16-.24.4-.4.56-.32.56-.65,1.05-1.05,1.61-.73,1.21-1.53,2.34-2.42,3.47-.08.08-.24.32-.4.48-.08.08-.16.16-.24.24,0,.08-.08.08-.08.16-.08.24,0,0,0,.08-.08.16,0,.32.16.4.4.32.89-.24,1.13-.56.4-.48.81-1.05,1.13-1.61.73-1.29,1.53-2.5,2.26-3.79.24-.4.4-.81.48-1.21.08-.24-.24-.24-.32-.08h0Z" style="fill: #463c39; stroke-width: 0px;"/>
                    <path d="m237.62,48.04c-1.37-1.61-3.95-1.94-5.41.24-1.05,1.53-1.21,3.47-.97,5.24.24,1.61,1.37,3.55,3.07,3.79,4.52.73,5.65-6.62,3.31-9.28Z" style="fill: #ffc500; stroke-width: 0px;"/>
                    <path d="m233.1,54.98c.24.32.4.73.81.89s.89.24,1.29.16c.89-.08,1.53-.73,1.86-1.53.32-.81.48-1.78.48-2.66s-.08-1.94-.4-2.74-1.21-1.53-2.18-1.29c-.24.08-.24.4,0,.48.4.16.81.08,1.21.4.32.24.48.65.65,1.05.32.89.32,1.94.24,2.9-.08.89-.32,1.86-.89,2.58-.4.48-.97.65-1.53.56-.65-.08-.89-.48-1.21-.97-.16-.16-.4,0-.32.16h0Z" style="fill: #bab7b6; stroke-width: 0px;"/>
                  </g>
                  <path d="m244.4,93.55s-.81,5-3.71,10.09c-2.42,4.28-5.41,8.07-5.41,8.07l6.78,5.65s6.13-7.58,6.94-13.31-4.6-10.49-4.6-10.49Z" style="fill: #007399; stroke-width: 0px;"/>
                  <g>
                    <path d="m254.08,117.6c-.24-.08-.48-.16-.81-.24-2.42-.4-8.39-1.37-8.63,2.5,0,.24,0,.56.08.81.24,1.45.89,3.15,1.61,4.44.48.81,1.05,1.86,1.94,2.34,2.66,1.45,4.84-1.69,5.89-3.71.89-1.86,2.26-5.16-.08-6.13Z" style="fill: #ffc500; stroke-width: 0px;"/>
                    <path d="m250.04,126.64c1.29-.73,2.34-1.78,3.07-3.07.32-.65.65-1.29.89-2.02.08-.32.16-.73.24-1.05.08-.32.08-.65-.08-.97-.08-.08-.16-.08-.24,0-.24.24-.16.56-.24.89-.08.32-.16.65-.24.97-.16.65-.4,1.37-.73,2.02-.65,1.21-1.61,2.34-2.74,3.15-.16-.08-.08.08.08.08h0Z" style="fill: #bab7b6; stroke-width: 0px;"/>
                    <path d="m248.83,117.84c-.73-.08-1.53.24-2.1.73-.24.24-.48.56-.65.89-.08.16-.16.32-.16.56s-.08.48.08.65c.08.08.24.08.32,0,.16-.16.08-.32.16-.56,0,.08,0-.08,0-.08v-.24c.16-.32.32-.48.56-.73.48-.4,1.05-.65,1.69-.56.16,0,.32-.16.32-.32.08-.16-.08-.24-.24-.32h0Z" style="fill: #bab7b6; stroke-width: 0px;"/>
                  </g>
                  <path d="m238.5,158.43c-.48-.16-.89-.24-1.37-.4-1.86-.56-3.79-1.21-5.65-1.86-4.52-1.69-12.51-7.67-16.78-11.54-.24-.16-.48.16-.24.32,4.28,4.92,11.94,10.41,16.54,12.26,1.86.73,3.79,1.37,5.65,1.94h.08l1.78-.73Z" style="fill: #d8baaa; stroke-width: 0px;"/>
                  <path d="m263.84,143.98c-.65,0-1.21-.48-1.78-.81-.73-.4-1.45-.73-2.18-1.05-1.37-.65-2.82-1.13-4.28-1.69,0-.08.08-.48.16-1.05,1.53.56,3.15,1.13,4.6,1.78.81.32,1.53.73,2.34,1.13.48.32,1.21.65,1.37,1.29.08.16,0,.4-.24.4Z" style="fill: #d8baaa; stroke-width: 0px;"/>
                  <path d="m213.65,97.91s-12.99.81-15.49,3.95c-2.5,3.15-7.67,11.54-9.44,22.51-1.69,10.97,0,14.28,0,14.28,0,0,3.87-3.07,11.38-3.15,7.58-.16,12.18,1.45,12.18,1.45,0,0,0-16.46-.81-24.21-.73-7.83,2.18-14.85,2.18-14.85Z" style="fill: #007399; stroke-width: 0px;"/>
                  <path d="m255.29,98.31s13.8,3.71,16.3,6.86,7.5,8.23,9.2,19.2c1.69,10.97,0,14.28,0,14.28,0,0-3.87-3.07-11.38-3.15-7.58-.16-13.72,1.21-13.72,1.21,0,0,1.53-16.14,2.34-23.96.73-7.83-2.74-14.44-2.74-14.44Z" style="fill: #007399; stroke-width: 0px;"/>
                  <path d="m206.39,114.29c.56,3.79,1.45,7.58,2.26,11.38.73,3.23.65,6.94,2.1,9.92.16.4.81.08.65-.24-.48-1.69-.89-3.39-1.13-5.08-.24-1.69-.48-3.31-.81-4.92-.81-3.71-1.53-7.42-2.5-11.14-.16-.4-.65-.24-.56.08h0Z" style="fill: #463c39; stroke-width: 0px;"/>
                  <path d="m260.61,114.53c-1.37,3.39-1.94,6.94-2.5,10.49-.32,1.69-.56,3.39-.89,5.16-.32,1.61-.97,3.47-.89,5.16,0,.16.24.24.4.08.81-1.45.97-3.47,1.21-5,.32-1.69.56-3.39.81-5.16.56-3.55,1.37-7.1,2.42-10.49.24-.48-.4-.65-.56-.24h0Z" style="fill: #463c39; stroke-width: 0px;"/>
                  <path d="m227.21,124.62c-2.02-.16-4.03-.16-6.05-.08-1.86.08-3.71.16-5.57.48-.81.16-1.53.32-2.34.48-.32.08-.73.16-.97.32-.56.48-.32,1.53-.32,2.18,0,.16.16.32.32.4,1.21.24,2.34.08,3.55,0,1.37-.08,2.82-.08,4.2-.08,2.99,0,6.05-.16,9.04-.24.48,0,.48-.73,0-.73-2.9,0-5.81.08-8.71.08-1.37,0-2.66-.08-4.03,0-1.29.08-2.58.4-3.87.16.08.16.16.24.32.4,0-.4-.08-.89,0-1.29.08-.32.08-.24.4-.32,1.29-.32,2.66-.56,4.03-.73,3.31-.4,6.7-.16,10.01-.4.4-.08.4-.65,0-.65h0Z" style="fill: #463c39; stroke-width: 0px;"/>
                  <path d="m235.36,112.19c1.21.97,2.26,2.1,3.39,3.15.65.56,1.29,1.13,1.94,1.69.32.24.65.65,1.05.73.97.16,1.61-1.21,2.1-1.86.97-1.29,1.86-2.66,2.66-4.12,1.37-2.42,2.99-5.08,3.23-7.99.16-1.61-.08-3.15-.56-4.68-.48-1.37-.97-2.58-2.26-3.39-.24-.16-.48.16-.32.32.73,1.37,1.86,2.74,2.26,4.28.48,1.78.08,3.55-.48,5.24-.48,1.53-1.21,2.99-2.02,4.44-.89,1.53-1.69,3.15-2.74,4.6-.32.48-.65.97-1.05,1.37-.08.16-.24.48-.4.56-.32.24-.24.16-.65-.16-.65-.56-1.29-1.13-1.86-1.69-.81-.73-1.61-1.37-2.42-2.02-.48-.4-.97-.81-1.61-.97-.24,0-.48.32-.24.48h0Z" style="fill: #463c39; stroke-width: 0px;"/>
                  <path d="m223.74,95.49c-1.61.24-11.22.16-19.77,2.58-4.28,1.21-6.62,2.5-4.76,3.47,1.53.81,16.86-1.86,21.79-2.74.73-1.37,1.94-2.42,2.74-3.31Z" style="fill: #463c39; stroke-width: 0px;"/>
                  <path d="m246.9,95.81c1.53.4,11.05,1.61,19.2,5.16,4.12,1.78,6.21,3.39,4.28,4.03-1.61.56-16.46-4.12-21.22-5.57-.56-1.37-1.53-2.58-2.26-3.63Z" style="fill: #463c39; stroke-width: 0px;"/>
                  <path d="m222.45,95.89c-1.94,1.94-3.07,4.36-2.82,7.18.32,3.07,1.78,6.05,3.15,8.71.48.97,1.05,2.02,1.61,2.99.48.89,1.05,1.86,1.86,2.5,1.29.97,2.58-.32,3.63-1.13.89-.73,1.86-1.37,2.66-2.18.56-.48,1.45-1.05,1.78-1.78.16-.32-.16-.65-.48-.48-.65.4-1.21.97-1.78,1.53-.89.81-1.86,1.61-2.82,2.34-.48.4-1.29,1.21-1.94,1.29-.97.16-1.86-1.86-2.26-2.5-1.53-2.74-3.07-5.57-4.12-8.55-.56-1.53-.89-3.23-.65-4.92.32-1.78,1.37-3.31,2.66-4.52.32-.24-.16-.81-.48-.48h0Z" style="fill: #463c39; stroke-width: 0px;"/>
                  <path d="m218.82,73.7c.56.97,1.05,1.94,1.53,2.9.24.48.4.97.65,1.45.08.24.24.48.32.73.08.24.24.48.4.73.24.24.56.08.56-.24,0-.24-.08-.56-.16-.81-.08-.24-.16-.56-.32-.81-.24-.48-.48-.97-.73-1.45-.48-.97-1.13-1.86-1.69-2.82-.24-.48-.81-.08-.56.32h0Z" style="fill: #fff; stroke-width: 0px;"/>
                  <path d="m249.72,72.65c-.73.97-1.29,2.02-1.78,3.15-.24.56-.4,1.13-.56,1.69-.08.32-.16.56-.24.89-.08.24-.16.56-.16.89s.48.48.65.16c.16-.24.16-.56.24-.81s.16-.56.24-.81c.16-.56.4-1.13.56-1.69.4-1.05.97-2.1,1.61-3.07.24-.32-.32-.73-.56-.4h0Z" style="fill: #fff; stroke-width: 0px;"/>
                </g>
                <g>
                  <path d="m264.73,148.99s7.18-1.86,15.65-1.61c5.49.16,10.57,1.69,10.57,1.69,0,0-3.47,11.14-3.39,11.38.08.16-28-1.21-27.76-1.61.08-.48,4.92-9.84,4.92-9.84Z" style="fill: #eeeded; stroke-width: 0px;"/>
                  <path d="m268.52,149.39s-5.41,1.94-9.28,11.62c-3.95,9.68-5.41,70.52-5.41,70.52,0,0,25.09,2.18,29.69.56,4.68-1.61,7.02-14.28,7.02-14.28,0,0,3.07-65.68.32-67.13-2.66-1.45-16.62-2.9-22.35-1.29Z" style="fill: #00d1d8; stroke-width: 0px;"/>
                  <path d="m288.21,227.82v3.87c-1.78,1.21-3.63,2.34-5.57,3.47-4.12,2.34-8.39,4.44-12.91,6.21-4.36,1.69-8.88,3.15-13.48,4.28-.97.24-2.02.48-2.99.65l-1.45-18.48c.16-.08.89.08,2.1.32h0c.48.08,1.05.24,1.69.32,3.15.56,7.91,1.29,13.48,1.21.56,0,1.13,0,1.78-.08,4.68-.24,8.63-.65,11.7-.97,2.18-.24,3.79-.48,4.76-.65h0c.56-.16.89-.16.89-.16Z" style="fill: #007399; stroke-width: 0px;"/>
                  <g>
                    <path d="m304.59,217.9c-1.45,1.53-2.99,2.99-4.52,4.36-.48.4-.89.81-1.37,1.21l-.24.24c-3.23,2.82-6.7,5.49-10.33,7.91-1.78,1.21-3.63,2.34-5.57,3.47,0-.89,0-1.86-.08-2.74h0c0-1.21-.08-2.5-.08-3.71,0-.97-.08-1.94-.08-2.9v-1.53h0c-.08-3.07-.16-6.05-.24-9.12-.08-1.53-.08-2.99-.08-4.52v-.4h0v-.48h0c0-1.21,0-2.34-.08-3.55h0v-4.6h0c0-2.02,0-3.95.08-5.97h0c.08-3.95.16-7.83.32-11.78.24-6.78.56-13.64,1.53-20.33.16-.97.32-1.94.48-2.9v-.08h0c.48-2.42,1.13-4.76,2.1-7.02.08-.24.16-.48.32-.65.08-.24.24-.48.32-.81h0c.16-.48.4-.97.56-1.45h0c.08-.16.16-.4.24-.56h0q0-.08.08-.16h0c.08-.24.16-.4.24-.56.08-.08.08-.24.16-.32.08-.08.08-.16.16-.24h0c.65.08,1.29.24,1.86.4.32.08.56.16.89.24h0c.32.08.73.16,1.05.24.24.08.56.16.81.24,2.02.56,3.79,1.21,5.49,1.94.89.4,1.69.81,2.5,1.21.16.08.32.24.4.56.48,1.05.97,3.47,1.29,6.86,1.37,12.83,1.69,39.21,1.86,55.03-.08.65-.08,1.61-.08,2.5Z" style="fill: #f6f5f5; stroke-width: 0px;"/>
                    <path d="m269.01,148.26c-.16.16-.4.4-.65.65h0c-.08.08-.16.16-.24.24h0c-.08.08-.16.16-.24.24-.16.16-.24.32-.4.48h0c-.08.08-.16.24-.32.4-.24.32-.48.56-.73.89-1.21,1.69-2.58,3.87-3.79,6.78-.16.32-.32.73-.48,1.05h0c-.24.56-.48,1.21-.73,1.86-.56,1.53-1.05,3.31-1.53,5.16h0c0,.08-.08.24-.08.32-.16.48-.24,1.05-.32,1.53-.24,1.13-.4,2.26-.65,3.47-.16.81-.24,1.61-.32,2.5-.16,1.37-.32,2.82-.48,4.28-.56,5.24-.97,11.14-1.37,17.19v.24h0v.65c-.32,5.16-.56,10.33-.73,15.25h0c-.08,2.1-.16,4.03-.24,5.97v.81h0v.97h0c-.08,3.31-.16,6.46-.16,9.12v3.23c0,2.58.08,4.68.16,5.97.24,2.5.4,5.33.48,7.91-.97.24-2.02.48-2.99.65-2.1.48-4.28.81-6.46,1.13-.24-5.65-.65-14.69-.73-24.61v-3.71c.16-5.49.56-13.07,1.29-21.14,0-.24,0-.48.08-.73h0c0-.24.08-.48.08-.65h0c.08-.81.16-1.53.24-2.34v-.48c.08-.56.08-1.21.16-1.86.4-4.2.89-8.47,1.37-12.59.24-2.1.56-4.2.81-6.21h0c.08-.56.16-1.05.24-1.53.16-.97.32-1.94.4-2.9.08-.73.24-1.37.32-2.1.32-2.1.73-4.12,1.05-5.81.89-4.36,1.86-7.42,2.74-8.39h0c.08-.08.24-.24.32-.24,1.21-.81,2.66-1.37,4.2-1.86.08-.08.24-.08.4-.08,1.61-.48,3.23-.89,4.84-1.13h.24c.81-.16,1.53-.24,2.26-.4.24,0,.48-.08.73-.08h.16c.48,0,.73,0,1.05-.08Z" style="fill: #f6f5f5; stroke-width: 0px;"/>
                  </g>
                  <path d="m259.16,150.6s-8.07,2.26-14.77,10.33-9.92,21.38-12.1,29.77c-2.18,8.47-1.86,22.43,6.86,26.95,8.71,4.6,22.03-.97,30.5-3.23,8.47-2.26,15.73-5.89,15.73-5.89,0,0-2.58-4.84-2.02-8.47s1.21-4.68,1.21-4.68c0,0-22.27.4-27.11.56s-7.91.4-7.91.4c0,0,3.79-30.58,5.41-34.78,1.45-4.2,4.2-10.97,4.2-10.97Z" style="fill: #f6f5f5; stroke-width: 0px;"/>
                  <path d="m304.35,154.72c-9.28-6.7-13.48-5.73-13.48-5.73l-2.66,4.76c.32,1.13.48,2.34.73,3.55.4,2.1,1.05,4.2,1.69,6.29.73,2.42,1.29,4.92,1.94,7.42.97,4.28,1.86,8.63,2.18,13.07.32,4.2.4,8.8-1.45,12.59-.73,1.61-1.86,2.99-3.31,3.95-2.26,1.37-4.92,1.45-7.5,1.53-2.02.08-4.12,0-6.13.08-2.18,0-4.28.16-6.46.24-2.99.16-5.89.24-8.88.32l-8.55,15.17s7.5,4.03,23.64,5.65c16.14,1.61,24.53,1.05,30.74-3.79s9.36-16.22,9.92-32.36c.48-16.14-3.15-26.06-12.43-32.76Z" style="fill: #f6f5f5; stroke-width: 0px;"/>
                  <path d="m287.48,149.31c3.15,2.82,6.21,6.13,8.31,9.76.48.89.97,1.78,1.29,2.74s.48,1.86-.73,2.1c-1.53.32-3.15.48-4.52,1.21-3.55,1.86.48,6.62,1.45,8.8.4.89.65,1.86.56,2.82-.08,1.13-.81,2.02-1.45,2.9-1.37,1.78-2.9,3.39-4.03,5.33-1.37,2.34-2.5,4.92-3.39,7.58-.81,2.5-1.61,5.33-1.21,7.99.08.56.89.4.97-.16.32-2.58.65-5.08,1.45-7.58s1.86-4.92,3.15-7.18c.65-1.13,1.21-2.26,1.94-3.23.65-.89,1.45-1.61,2.1-2.5,1.13-1.53,1.78-2.99,1.29-4.92-.48-1.86-1.78-3.39-2.58-5.08-.4-.81-.89-1.86-.81-2.82.08-1.05,1.13-1.37,1.94-1.61s1.61-.48,2.42-.73c.65-.24,1.37-.24,1.86-.73,1.21-.97.16-3.07-.32-4.12-2.02-4.36-5.65-7.99-9.2-11.05-.32-.16-.73.24-.48.48h0Z" style="fill: #cdcaca; stroke-width: 0px;"/>
                  <path d="m267.23,149.39c-3.79,2.5-7.67,5.08-10.57,8.63-.24.32-.48.65-.73.97-.4.48-.81,1.05-1.13,1.53-.56.73-1.13,1.61-1.37,2.5-.24.97.08,1.69.56,2.34.4.56.97,1.05,1.45,1.61,2.1,2.58-.81,5.81-1.94,8.15-1.05,2.1-2.02,4.28-1.61,6.7.32,2.1,1.37,4.03,2.1,6.05.81,2.02,1.21,4.03,1.45,6.21.08.65.08,1.29.08,1.94h-.89c0-.97-.08-1.86-.16-2.82-.24-2.66-1.21-4.92-2.18-7.42-.4-.97-.81-2.02-.97-3.07-.24-.97-.32-2.02-.16-3.07.16-1.21.56-2.34,1.13-3.47.32-.73.73-1.45,1.13-2.1.89-1.53,2.34-3.39,2.34-5.16,0-1.21-.97-2.02-1.86-2.9-.24-.24-.48-.48-.65-.81-.89-1.37-.24-2.9.56-4.12.89-1.37,1.78-2.74,2.9-4.03.16-.24.4-.48.56-.65,2.82-3.07,6.29-5.33,9.68-7.58.24-.24.56.32.24.56Z" style="fill: #cdcaca; stroke-width: 0px;"/>
                  <path d="m282.64,209.42c1.21-.48,2.34-.97,3.47-1.45,1.61-.65,3.87-1.29,4.76-2.9.24-.48.24-1.05.32-1.61s.24-1.21.32-1.78c.24-1.21.56-2.34.89-3.47.4-1.45.81-2.99,1.13-4.44-1.69.4-3.55,1.37-3.95,1.61-.56.32-5.49-.08-5.49-.08-3.07.89-2.66,12.1-1.69,13.88.16.08.16.16.24.24Z" style="fill: #ffbea7; stroke-width: 0px;"/>
                  <path d="m256.82,195.46c-.08.32-.08.24-.08.56-2.1.16-8.39,1.13-9.44,1.29-2.18.32-4.44.73-6.54,1.37-.32.08-.48-.4-.16-.56,1.94-.65,3.87-1.05,5.81-1.37.32-.08.65-.08.97-.16,1.13-.16,2.26-.4,3.39-.56,2.02-.24,4.03-.4,6.05-.56Z" style="fill: #c6c2c2; stroke-width: 0px;"/>
                  <path d="m246.41,219.83c4.6-.65,9.12-1.37,13.64-2.34,2.5-.56,4.92-1.29,7.42-2.1,6.05-1.94,12.18-3.87,18.07-6.29,1.29-.48,2.5-1.05,3.71-1.69.73-.4,1.37-.81,1.78-1.45.24-.4-.4-.73-.56-.32.08-.16,0,0-.08.08-.16.08-.24.16-.4.32-.32.24-.65.4-.97.65-.97.56-2.02,1.05-3.07,1.45-2.99,1.29-5.97,2.34-9.04,3.39-2.99,1.05-5.89,2.02-8.88,2.99-2.18.73-4.44,1.45-6.7,2.02-4.92,1.21-10.01,2.02-15.01,2.74-.65-.08-.4.65.08.56h0Z" style="fill: #cdcaca; stroke-width: 0px;"/>
                  <path d="m296.84,171.9c-.08.73-.24,1.45-.32,2.18-.08,1.05-.08,2.02-.16,3.07-.08,1.29-.48,2.58-.73,3.79-.32,1.37-.48,2.74-.81,4.12-1.05,5.33-2.02,10.65-3.15,15.9-.24,1.05-.48,2.1-.73,3.07-.16.65-.32,1.29-.4,1.94,0,.24.4.48.56.24.89-1.13,1.05-2.82,1.37-4.2.56-2.42,1.05-4.84,1.45-7.26,1.05-5.57,1.86-11.14,2.58-16.7.16-1.21.65-2.34.81-3.63.08-.81.16-1.69.16-2.5.16-.56-.56-.48-.65,0h0Z" style="fill: #cdcaca; stroke-width: 0px;"/>
                  <path d="m250.69,166.74c-1.45,5.73-1.94,11.7-2.34,17.59-.16,2.99-.32,5.97-.56,8.88-.08,1.29-.16,2.58-.24,3.87.32-.16.65-.32.97-.4h.08c.08-1.05.08-2.1.16-3.07.16-2.99.24-5.97.4-8.88.32-5.97.89-11.86,2.02-17.75.16-.48-.4-.56-.48-.24Z" style="fill: #c6c2c2; stroke-width: 0px;"/>
                  <path d="m278.2,197.48c-.97.56-1.13,2.02-1.21,2.99-.16,1.21-.08,2.42,0,3.63.08,1.29.24,2.66.56,3.95.16.73.4,1.37.65,2.02.16.4.48,1.13.97,1.21.16,0,.32,0,.32-.16.08-.4-.24-1.05-.4-1.45-.24-.56-.4-1.13-.56-1.78-.32-1.21-.48-2.42-.65-3.71-.08-1.05-.08-2.1-.08-3.15.08-1.21.32-2.18.73-3.23.16-.24-.16-.4-.32-.32h0Z" style="fill: #c6c2c2; stroke-width: 0px;"/>
                  <path d="m304.91,221.12c0,.16-.08.24-.16.32l-.08.08c-.48.32-1.13.56-1.78.81-.24.08-.56.16-.81.24-.89.32-1.78.65-2.74.89-1.78.56-3.63.97-5.41,1.29-1.78.24-3.63.4-5.41.24h-.24c-.97-.08-1.94-.16-2.99-.24-.97-.08-1.94-.08-2.9-.16h0c-.24,0-.32-.4-.08-.48h.24c1.78-.4,3.71-.08,5.49,0h.89c1.69.08,3.31-.08,5-.32,1.86-.32,3.79-.73,5.57-1.29.89-.24,1.69-.56,2.58-.89.81-.32,1.53-.73,2.34-.81h.32c.08,0,.16.16.16.32Z" style="fill: #cdcaca; stroke-width: 0px;"/>
                  <path d="m283.45,146.97c.73.97,1.61,1.78,2.34,2.74.81,1.05,1.29,2.26,1.78,3.47,1.05,2.5,1.69,5.41,1.94,8.15.24,2.74.32,5.57.32,8.39s-.08,5.49-.4,8.23c-.4,3.07-1.29,7.99-1.69,10.49-.08.4.97.4,1.21,0,.4-.81.89-3.47,1.13-4.68.24-1.53.56-2.99.81-4.52.4-2.9.56-5.81.48-8.71,0-2.9-.08-5.81-.32-8.71-.24-2.82-.81-5.81-1.86-8.39-.56-1.37-1.29-2.74-2.1-3.87-.81-1.13-1.86-2.02-2.74-3.07-.56-.73-1.21,0-.89.48h0Z" style="fill: #463c39; stroke-width: 0px;"/>
                  <path d="m289.9,186.99c-.16-.16-.4-.32-.56-.48-.16-.08-.24-.16-.4-.24h0c-.32-.16-.56-.24-.89-.24h-.56c-1.29.08-2.58.81-3.07,2.02-.56,1.29-.24,2.99.81,3.95l.08.08c.32.24.65.48.97.56h0c.89.32,1.94.32,2.74-.16.89-.48,1.61-1.37,1.86-2.34.32-1.13-.16-2.34-.97-3.15Z" style="fill: #706967; stroke-width: 0px;"/>
                  <g>
                    <path d="m254.4,191.43h0s0,.08,0,0h0s.08,0,0,0h0Z" style="fill: #463c39; stroke-width: 0px;"/>
                    <path d="m253.35,193.45h0c-.08-.08-.08,0,0,0Z" style="fill: #463c39; stroke-width: 0px;"/>
                  </g>
                  <path d="m267.96,148.42c-3.71,1.29-6.29,4.52-8.07,7.91-.89,1.78-1.61,3.63-2.18,5.57-.24.89-.48,1.78-.73,2.66-.16.65-.48,1.69-.48,2.58h.08c.24-.16.56-.24.89-.24h0v-.24c.08-.56.24-1.21.4-1.78.16-.89.4-1.69.65-2.5.56-1.78,1.21-3.47,2.02-5.16,1.61-3.31,4.03-6.37,7.58-7.83.48-.4.32-1.13-.16-.97Z" style="fill: #463c39; stroke-width: 0px;"/>
                  <g>
                    <path d="m261.9,127.12s-1.29-2.34-2.74-1.61c-1.53.73-.65,5.73,1.45,6.78,2.1,1.05,3.47-.16,3.47-.16l-2.18-5Z" style="fill: #ffbea7; stroke-width: 0px;"/>
                    <path d="m266.91,141.97s.56,8.96.16,10.17-2.99,2.58-2.02,4.44,7.67,2.18,14.12.56,6.7-2.99,6.7-6.05-.65-16.22-.65-16.22c0,0-16.94,4.2-18.32,7.1Z" style="fill: #ffbea7; stroke-width: 0px;"/>
                    <path d="m261.1,118.41s-.16,19.12,3.95,24.45c3.15,4.12,9.76,4.92,14.2,1.86s6.7-6.78,8.15-10.17c1.45-3.39,2.1-13.23,1.86-17.27-.16-4.03-.08-11.38-6.46-12.59-6.37-1.29-20.74,8.96-21.71,13.72Z" style="fill: #ffbea7; stroke-width: 0px;"/>
                    <path d="m287.56,125.83s3.63-3.23,5.16-1.05-.08,6.05-2.74,7.18c-1.86.73-4.03-1.05-4.03-1.05l1.61-5.08Z" style="fill: #ffbea7; stroke-width: 0px;"/>
                    <path d="m260.61,125.59l.97,1.78s-1.21-7.42,2.82-10.57c4.03-3.15,8.88-2.9,13.23-4.52,3.79-1.37,5.97-3.15,5.97-3.15,0,0,.08,4.44,1.13,9.12s2.99,7.1,3.47,7.5c.56.48,3.79-6.94,4.6-10.33.97-3.79,1.94-8.31-1.53-9.84-3.55-1.53-6.37-.81-6.37-.81,0,0-2.82-8.31-12.99-5.57-8.88,2.34-8.31,7.02-10.01,7.75-1.69.81-5.24,2.66-4.68,8.15.81,5.49,3.39,10.49,3.39,10.49Z" style="fill: #463c39; stroke-width: 0px;"/>
                    <path d="m268.04,123.09c-.32-.56-.81-.97-1.53-.89-.65.08-1.21.65-1.37,1.21-.24.97,0,2.26,1.13,2.58.97.24,1.69-.32,1.94-1.13.24-.48.16-1.21-.16-1.78Z" style="fill: #463c39; stroke-width: 0px;"/>
                    <path d="m281.59,122.76c-.32-.65-.89-1.05-1.69-.97-.73.08-1.29.65-1.45,1.29-.24,1.05-.08,2.5,1.29,2.82,1.05.24,1.86-.4,2.1-1.21.16-.48.08-1.29-.24-1.94Z" style="fill: #463c39; stroke-width: 0px;"/>
                    <path d="m269.73,119.54c-.48-.32-1.69-.4-2.26-.32-.65,0-1.29.16-1.86.4s-1.53.89-1.69,1.53c-.08.56.16.4.56.32.56-.16,1.05-.32,1.61-.32,1.05,0,2.1.08,3.07-.08,1.05-.24,1.21-1.05.56-1.53Z" style="fill: #463c39; stroke-width: 0px;"/>
                    <path d="m276.99,119.13c.48-.4,1.61-.48,2.26-.48s1.29.08,1.86.32c.56.16,1.53.81,1.69,1.45.16.48-.16.4-.48.32-.56-.16-1.05-.24-1.69-.24-1.05,0-2.1.16-3.07.08s-1.21-.89-.56-1.45Z" style="fill: #463c39; stroke-width: 0px;"/>
                    <path d="m284.09,130.99c.16-.16.4-.32.56-.48.24-.24.4-.48.65-.81.4-.56.81-1.13,1.21-1.61.81-1.13,1.69-2.18,2.74-3.07.24-.16.48-.32.73-.48.24-.16.65-.32.56-.65-.16-.73-1.21,0-1.53.24-1.13.81-2.02,1.86-2.9,2.9-.48.65-.97,1.29-1.45,1.94-.24.32-.4.56-.65.89-.16.24-.24.56-.4.81-.16.32.24.56.48.32h0Z" style="fill: #fff; stroke-width: 0px;"/>
                    <path d="m261.82,130.27s4.28-3.87,10.57-4.12c6.21-.16,12.26,3.31,12.43,3.63.16.32.73,9.36.48,9.84-.24.48-5.33,7.26-12.91,7.18-11.14-.08-10.57-16.54-10.57-16.54Z" style="fill: #fff; stroke-width: 0px;"/>
                    <path d="m262.07,128.81c-.16-.4-.4-.89-.48-1.37,0-.08-.08-.24-.08-.32l-.89-1.61s-.16-.4-.48-1.05c-.08.08-.08.16-.08.32.16,1.05.32,2.02.65,2.99.16.48.32.89.56,1.37.24.48.4.97.81,1.21.32.24.56-.16.56-.4-.08-.24-.32-.73-.56-1.13Z" style="fill: #fff; stroke-width: 0px;"/>
                    <path d="m288.37,132.04c-.32,1.13-.89,2.18-1.45,3.23-.4.73-.81,1.45-1.21,2.1-.48.65-.97,1.29-1.45,1.94-.24.32.16.56.48.48.73-.32,1.29-1.13,1.69-1.78.48-.73.89-1.53,1.29-2.34.32-.73.73-1.45,1.05-2.18.16-.4.4-.89.48-1.29-.32-.08-.56-.08-.89-.16Z" style="fill: #fff; stroke-width: 0px;"/>
                    <path d="m285.06,132.28c-.97,0-1.94-.24-2.9-.4-.48-.08-.97-.16-1.45-.16-.4,0-.97-.08-1.37.16-.16.08-.16.24,0,.32.4.24.97.24,1.37.32.48.08.97.16,1.45.24.97.08,1.94.16,2.9.16.4,0,.4-.65,0-.65h0Z" style="fill: #a3cdda; stroke-width: 0px;"/>
                    <path d="m284.98,135.43c-.16.24-.32.48-.56.73-.24.24-.4.48-.65.73-.24.24-.4.4-.65.65-.08.16-.24.24-.32.4-.08.08-.16.24-.24.32-.16.16,0,.48.24.4.16-.08.32-.16.4-.16s.16-.08.24-.08c.08-.08.16-.08.16-.16.32-.24.56-.48.73-.73.24-.24.4-.56.56-.81.16-.32.32-.56.48-.89.24-.48-.24-.73-.4-.4h0Z" style="fill: #a3cdda; stroke-width: 0px;"/>
                    <path d="m262.31,135.11c.24-.16.48-.32.65-.48.16-.08.24-.16.4-.32l.16-.16c.08-.08.08-.16.16-.24,0-.16,0-.24-.16-.32-.08,0-.16-.08-.32,0-.08,0-.16.08-.24.08-.16.08-.24.16-.32.24-.24.16-.4.32-.65.48-.16.08-.24.4-.16.56.08.16.32.24.48.16h0Z" style="fill: #a3cdda; stroke-width: 0px;"/>
                    <path d="m262.71,139.63c.24.08.48.16.73.24.08,0,.24.08.32.08h.4c.16,0,.24-.16.08-.24-.08,0-.08-.08-.16-.08q-.08-.08-.16-.08c-.16-.08-.24-.08-.4-.16-.08,0-.24-.08-.32-.08s-.08,0-.16-.08h-.08s-.08,0-.08-.08c-.16-.08-.32,0-.4.08.08.16.08.32.24.4h0Z" style="fill: #a3cdda; stroke-width: 0px;"/>
                  </g>
                  <g>
                    <path d="m265.94,181.5c.08-2.34.08-4.68-.24-7.02,0-.16-.08-.32-.08-.4-.4-2.34-1.37-4.52-3.15-6.13-.73-.65-1.53-1.13-2.5-1.37h-.08c-.32-.08-.65-.16-.97-.24h0v-.48c-.08-.48-.24-.89-.65-1.21h0c-.08-.08-.16-.08-.24-.16-.32-.08-.65-.16-.97-.08h0c-.08,0-.24.08-.32.08-.48.16-.97.48-1.21.97-.08.16-.16.24-.16.4v.08c0,.08-.08.24-.08.32-.08,0-.16,0-.32.08h-.16c-.16.08-.32.08-.56.16h-.08c-.16.08-.32.08-.48.16-1.05.4-1.94,1.05-2.74,1.78l-.16.16c-.24.24-.48.56-.73.89h0c-.4.56-.81,1.13-1.13,1.69-.4.73-.73,1.45-.97,2.26-.73,1.94-1.13,4.12-1.37,6.05-.08.73-.16,1.45-.24,2.1-.16,1.86-.24,3.71-.24,5.57,0,1.69.16,3.47.81,5,.24.56.48,1.05.89,1.45h0c.24.32.56.48.97.65.16.08.4.16.65.16h.24c.89.08,1.69-.24,2.58-.32.4-.08.81-.08,1.13-.08.48,0,.48-.73,0-.73h-1.21c-.65.08-1.21.16-1.86.24h-.56c-.4-.08-.73-.16-.97-.32-.4-.32-.65-.81-.81-1.45q0-.08-.08-.16h0c-.65-2.66-.4-5.57-.24-8.23.08-1.37.24-2.66.48-4.03.24-1.13.48-2.34.89-3.47h0c.08-.4.24-.73.4-1.13.24-.56.4-1.13.73-1.69h0c0-.08.08-.16.16-.24h0c.24-.4.4-.81.65-1.21.56-.97,1.29-1.86,2.26-2.58,0,0,.08,0,.08-.08.24-.16.56-.4.89-.56.4-.24.81-.4,1.29-.48.16-.08.32-.08.48-.16.56-.16,1.21-.16,1.78-.16h0c.65,0,1.21.16,1.86.4.16.08.32.08.48.16.32.16.73.32,1.05.48.97.56,1.61,1.37,2.18,2.26.48.89.81,1.86.97,2.9.24,1.13.24,2.26.32,3.39,0,1.05,0,2.1.08,3.15.08,1.61.16,3.23.08,4.76-.08,2.1,0,4.2-.56,6.21-.16.48-.32,1.45-.89,1.69-.32.16-.97.08-1.29.08h-1.69c-.81,0-.73,1.13,0,1.21h.56c1.53.16,3.31.24,4.12-1.37.89-1.78.89-4.03,1.05-6.05.08-1.05,0-2.02-.08-3.07v-1.45c0-.16,0-.48,0-.81Z" style="fill: #706967; stroke-width: 0px;"/>
                    <path d="m258.92,166.17c-.4-.08-.81-.08-1.21-.08h-1.53c-.4,0-.81.08-1.21.16.08,0,.16,0,.32-.08,0-.16,0-.24.08-.4.24,0,.48-.08.73-.08.48-.08,1.05-.08,1.53-.08.4,0,.81,0,1.29.08h0v.48Z" style="fill: #463c39; stroke-width: 0px;"/>
                    <path d="m252.38,195.22c0,.08.08.16.08.24.24.4.56.81,1.05.89.4.08.73-.24,1.05-.56.08-.16.16-.24.16-.4.4-.81.65-2.34.16-3.23-.24-.4-.65-.56-1.05-.73-.32-.08-.65-.08-.89.08-.73.4-.73,1.45-.73,2.18,0,.56.08,1.05.16,1.53Z" style="fill: #463c39; stroke-width: 0px;"/>
                    <path d="m258.19,195.06c0,.08.08.16.08.24.24.4.56.81,1.05.89.4.08.73-.24,1.05-.56.08-.16.16-.24.16-.4.4-.81.65-2.34.16-3.23-.24-.4-.65-.56-1.05-.73-.32-.08-.65-.08-.89.08-.73.4-.73,1.45-.73,2.18,0,.56,0,1.05.16,1.53Z" style="fill: #463c39; stroke-width: 0px;"/>
                  </g>
                  <path d="m286.76,187.72c-.32.16-.56.32-.81.65-.16.24-.24.56-.24.89,0,.65.32,1.21.81,1.61.16.08.24.24.4.32s.4.16.56.16c.32,0,.65,0,.97-.16.65-.32,1.05-1.05,1.05-1.69,0-.4-.08-.89-.32-1.21-.16-.32-.56-.73-.97-.65-.08,0-.08.08-.08.16.08.16.24.16.32.32.16.08.24.24.32.32.16.24.32.56.32.89.08.56-.24,1.21-.73,1.45-.24.16-.48.24-.73.24s-.56-.08-.81-.24c-.48-.24-.73-.73-.81-1.21-.08-.65.32-1.21.81-1.53.16-.16.08-.4-.08-.32h0Z" style="fill: #463c39; stroke-width: 0px;"/>
                </g>
                <g>
                  <path d="m235.2,192.24s4.12,8.63,5.08,15.17c.97,6.54.97,15.73-9.2,18.48-10.17,2.74-16.54-2.02-16.54-2.02l1.13-29.69,19.53-1.94Z" style="fill: #ffae91; stroke-width: 0px;"/>
                  <g>
                    <path d="m197.43,112.19s6.37-3.79,11.05-.48c4.68,3.39,2.18,9.6,5.41,14.6,3.23,5,10.33,12.43,7.18,22.11-3.07,9.68-17.99,12.26-28.4,14.04-10.41,1.86-21.62-.73-26.95-8.31-5.33-7.58-4.12-19.53,2.66-26.06,6.78-6.54,7.26-11.78,11.22-15.98,4.68-4.92,11.3-4.6,14.12-2.82,2.66,1.53,3.71,2.9,3.71,2.9Z" style="fill: #a0572f; stroke-width: 0px;"/>
                    <path d="m203.73,156.01s13.39,3.79,19.61,9.36c6.21,5.57,15.41,32.36,15.41,32.36,0,0-7.18,1.61-10.89,3.79-3.63,2.18-4.92,2.99-4.92,2.99l-19.2-48.49Z" style="fill: #00d1d8; stroke-width: 0px;"/>
                    <path d="m228.58,197.72c-2.5.81-4.92,1.86-6.94,3.47l1.37,3.39s1.29-.81,4.92-2.99,10.89-3.79,10.89-3.79c0,0-.32-1.05-.97-2.66-3.15.56-6.21,1.61-9.28,2.58Z" style="fill: #b5f2f4; stroke-width: 0px;"/>
                    <path d="m228.58,248.31c-7.58-.32-15.01-1.45-22.03-3.39-8.47-2.26-16.54-5.65-23.96-10.01-.73-.4-1.45-.89-2.18-1.29h0c-.65-.4-1.29-.81-1.94-1.21h0c-4.03-2.58-7.91-5.57-11.54-8.71h0c-1.21-4.44-2.18-8.96-2.99-13.15-.4-2.02-.73-3.87-.97-5.65h0c-.08-.81-.24-1.53-.32-2.34-.4-2.9-.73-5.24-.97-6.94-1.37-10.65-.16-25.5-.16-25.5,0,0,1.21-1.69,3.23-3.79h0c1.78-1.86,4.2-3.95,6.86-5.33.48-.24,1.05-.48,1.53-.81,1.37-.65,2.82-1.29,4.2-1.86h0c.24-.08.48-.24.81-.32.08,0,.16-.08.24-.08.4-.16.73-.24,1.13-.4.16-.08.4-.16.56-.16.65-.24,1.21-.4,1.78-.65.4-.16.81-.24,1.21-.4.24-.08.48-.16.65-.16h.16q.08,0,.16-.08c.08,0,.24-.08.32-.08s.16-.08.24-.08c.16-.08.4-.08.56-.16.16-.08.32-.08.48-.16.16-.08.32-.08.48-.08s.32-.08.4-.08.16,0,.24-.08h.24c.16,0,.4-.08.65-.08.32-.08.65-.08,1.05-.16.16,0,.4-.08.56-.08.81-.08,1.69-.24,2.74-.24h4.2c.32,0,.56,0,.89.08h.16c.16,0,.4,0,.56.08.32,0,.65.08.97.08.24,0,.56.08.81.08.16,0,.32.08.48.08.08,0,.24,0,.32.08.48.08.97.16,1.45.32h0c.16.08.32.08.56.16.16.08.4.08.56.16.16.08.32.08.56.16.16.08.4.08.56.16.08,0,.08.08.16.08s.08,0,.16.08h.08c.4.16.89.48,1.37.81.65.48,1.37,1.13,2.1,1.86.65.73,1.37,1.53,2.1,2.5.24.24.4.56.65.81.4.56.89,1.21,1.29,1.86,1.53,2.26,3.15,4.84,4.6,7.5h0c.24.4.4.81.65,1.13h0c.16.24.32.56.48.81.65,1.21,1.29,2.42,1.86,3.55.4.89.81,1.69,1.21,2.5,1.53,3.39,2.74,6.37,3.39,8.47.4,1.29.65,2.99.97,5.08.24,1.69.4,3.55.56,5.65.08,1.29.24,2.58.32,3.95h0c.08.89.16,1.78.16,2.74h0c0,.24,0,.48.08.81h0c0,.32,0,.56.08.89h0c.32,6.37.56,13.31.73,19.37h0v.32c.24,7.75.48,14.04.81,15.9.16,1.53.4,3.47.65,5.41Z" style="fill: #00d1d8; stroke-width: 0px;"/>
                    <path d="m217.2,170.53c-1.29,1.53-.65,4.03-.08,5.73.32,1.13.73,2.18,1.13,3.31.16.48.32.89.56,1.37.16.32.24.73.56.97.08.08.24,0,.24-.08.08-.32-.08-.65-.16-.97-.16-.4-.32-.81-.48-1.21-.4-.97-.73-2.02-1.05-3.07-.24-1.05-.48-2.1-.56-3.15-.08-.81,0-1.69.4-2.5,0-.32-.32-.65-.56-.4h0Z" style="fill: #82bacd; stroke-width: 0px;"/>
                    <path d="m212.2,159.07c-1.61,3.87-8.23,16.22-11.86,15.98-4.03-.24-22.51-14.6-23-16.62,4.12-1.61,7.99-2.74,9.68-2.99,2.5-.4,9.6-1.61,17.03.73.08,0,.08.08.16.08,1.29.32,4.44,1.29,7.99,2.82Z" style="fill: #b5f2f4; stroke-width: 0px;"/>
                    <path d="m207.36,158.83c-.08.56-.24,1.13-.48,1.78-.97,2.5-5.65,10.09-6.46,10.49-.73.32-.4.24-4.76-2.34-3.63-2.18-10.81-8.39-13.23-10.49,1.53-1.21,1.61-2.42,1.86-4.68.24-2.58.24-9.52.24-9.52l17.43,2.74s-.81,6.46.08,9.28c.73,2.02,3.55,2.42,5.33,2.74Z" style="fill: #ffae91; stroke-width: 0px;"/>
                    <path d="m179.52,124.13s.16,17.51,5.41,21.79c5.16,4.28,14.93,4.92,19.85-.24,4.92-5.16,3.47-17.67,2.5-21.54-.97-3.79-2.99-5.81-5.89-7.91-2.99-2.18-7.99-3.31-7.99-3.31,0,0-12.91,8.55-13.88,11.22Z" style="fill: #ffae91; stroke-width: 0px;"/>
                    <path d="m181.3,133.17s-1.94-3.95-4.28-2.18c-2.34,1.69-1.45,5.73,1.61,6.46s4.28-.16,4.28-.16l-1.61-4.12Z" style="fill: #ffae91; stroke-width: 0px;"/>
                    <path d="m180.65,133.33s.89-3.47,2.9-6.86c2.34-4.03,5.24-4.92,8.88-6.78,4.44-2.26,5.73-4.84,6.37-6.21.65-1.37-4.84-2.58-8.88-2.26-4.03.24-13.15,5.33-14.12,12.59-.48,3.87,4.84,9.52,4.84,9.52Z" style="fill: #a0572f; stroke-width: 0px;"/>
                    <path d="m191.95,127.68c-.32-.65-.89-1.05-1.69-.97-.73.08-1.29.65-1.45,1.37-.24,1.05-.08,2.58,1.29,2.82,1.05.24,1.86-.4,2.18-1.29.16-.48.08-1.29-.32-1.94Z" style="fill: #463c39; stroke-width: 0px;"/>
                    <path d="m204.86,127.68c-.32-.56-.81-.97-1.53-.89-.65.08-1.21.65-1.37,1.21-.24.97,0,2.34,1.13,2.66.97.24,1.69-.32,1.94-1.21.24-.48.16-1.21-.16-1.78Z" style="fill: #463c39; stroke-width: 0px;"/>
                    <path d="m188.15,125.67l.08-.08c.08-.08,0,0,0,0l.16-.16c.08-.08.16-.08.16-.16,0,0,.08-.08,0,0,0,0,.08,0,.16-.08.32-.08.65-.24.97-.32.08,0,.16,0,.24-.08,0,0,.16,0,.08,0s0,0,.08,0h.24s.16,0,.08,0,0,0,.08,0h.81s-.16,0-.08,0h.32c.08,0,.24-.16.24-.24s0-.24-.08-.32c0,0-.08-.16-.08-.08h0c0-.08-.08-.08-.16-.16-.16-.16-.4-.24-.56-.24-.48-.08-.89-.08-1.37.08-.24.08-.48.16-.65.24s-.4.24-.56.4l-.08.08c-.08.08.08,0-.08,0l-.24.24-.4.4c-.16.16-.08.4.08.56.24.08.4.08.56-.08h0Z" style="fill: #a0572f; stroke-width: 0px;"/>
                    <path d="m205.18,125.75l-.08-.08c-.08-.08,0,0,0,0l-.16-.16c-.08-.08-.16-.08-.16-.16,0,0-.08-.08,0,0,0,0-.08,0-.16-.08-.32-.08-.65-.24-.97-.32-.08,0-.16,0-.24-.08,0,0-.16,0-.08,0s0,0-.08,0h-.24s-.16,0-.08,0,0,0-.08,0h-.81s.16,0,.08,0h-.32c-.08,0-.24-.16-.24-.24,0-.16,0-.24.08-.32,0,0,.08-.16.08-.08h0c0-.08.08-.08.16-.16.16-.16.4-.24.56-.24.48-.08.89-.08,1.37.08.24.08.48.16.65.24s.4.24.56.4l.08.08c.08.08-.08,0,.08,0l.24.24.4.4c.16.16.08.4-.08.56-.16.08-.4.08-.56-.08h0Z" style="fill: #a0572f; stroke-width: 0px;"/>
                    <path d="m226,176.74s-36.96,2.02-37.2,3.71c-.24,1.61-1.78,47.93-.4,48.17,1.37.24,34.78-1.21,36.15-2.5,1.37-1.21,2.82-48.82,1.45-49.38Z" style="fill: #007399; stroke-width: 0px;"/>
                    <path d="m184.12,133.9s.24,4.68,0,6.78-.81,3.79-.81,3.79c0,0,3.15,5.73,12.59,5.57,9.12-.16,10.97-5.57,11.86-9.2.89-3.63.73-5.73.73-5.73,0,0-4.76-4.44-10.49-4.36-5.73,0-13.88,3.15-13.88,3.15Z" style="fill: #fff; stroke-width: 0px;"/>
                    <path d="m185.25,135.27c.08-.4-.16-.73-.32-1.05-.16-.32-.4-.65-.56-.97-.4-.73-.89-1.37-1.45-1.94s-1.21-1.05-1.94-1.45-1.61-.73-2.34-.32c-.24.16-.24.56,0,.73-.16-.32-.24-.32-.16-.16,0,.08.08.08.16.16s.16.08.24.08c.16.08.32.08.48.16.32.08.65.16.97.24.65.32,1.21.73,1.78,1.21s1.05,1.05,1.45,1.69c.24.32.4.56.56.89.16.32.32.73.56.89.16.16.48.08.56-.16h0Z" style="fill: #fff; stroke-width: 0px;"/>
                    <path d="m184.6,144.63c-.32-.65-.89-1.13-1.37-1.61-.48-.56-.89-1.13-1.29-1.69-.4-.56-.73-1.21-.97-1.78s-.32-1.21-.48-1.78c-.24,0-.48,0-.73-.08-.16,1.45.65,2.99,1.37,4.12.4.65.89,1.29,1.37,1.86.48.56.97,1.29,1.61,1.61.24.16.65-.24.48-.65Z" style="fill: #fff; stroke-width: 0px;"/>
                    <path d="m185.41,137.45c1.05-.16,2.18-.24,3.31-.24,1.05,0,2.18.08,3.15-.08.16,0,.16-.24,0-.24-.56-.16-1.13-.16-1.69-.16s-1.05-.08-1.61-.08c-1.13,0-2.26.08-3.31.24-.4,0-.24.65.16.56h0Z" style="fill: #a3cdda; stroke-width: 0px;"/>
                    <path d="m185.09,141.24c.56.4,1.13.89,1.69,1.29.24.24.56.4.89.56.16.08.32.16.48.24.16.08.4.08.56.08.24,0,.32-.32.16-.48-.16-.08-.24-.16-.4-.24s-.32-.16-.48-.24c-.32-.16-.56-.32-.89-.56-.56-.4-1.13-.81-1.69-1.21-.4-.24-.73.32-.32.56h0Z" style="fill: #a3cdda; stroke-width: 0px;"/>
                    <path d="m207.92,138.66c-.32-.16-.56-.32-.89-.4-.16-.08-.32-.08-.48-.16-.16-.08-.32-.08-.56-.08-.16,0-.4,0-.56.16-.08.08-.08.16-.08.24,0,.16.08.24.24.32.16.08.32.16.48.24.16,0,.32.08.48.08s.32.08.48.08c.08,0,.16.08.24.08s.08,0,.16.08h.08s.08,0,0,0c.16.08.4.08.48-.16.16-.16.08-.32-.08-.48h0Z" style="fill: #a3cdda; stroke-width: 0px;"/>
                    <path d="m206.55,142.69c-.24.08-.56.08-.81.16-.16.08-.32.08-.4.16-.08,0-.16.08-.16.08-.08,0-.08.08-.16.16-.16.08,0,.24.08.32.08,0,.16.08.24.08h.24c.16,0,.32,0,.48-.08.24-.08.56-.16.81-.24.16-.08.32-.24.24-.4-.16-.24-.32-.32-.56-.24h0Z" style="fill: #a3cdda; stroke-width: 0px;"/>
                  </g>
                  <path d="m225.59,224.11s-.24.08-.65.32h0c-.81.4-2.18,1.05-4.12,1.86h0c-.16.08-.32.16-.4.16h-.08c-.32.16-.73.32-1.13.48s-.81.32-1.21.48c-2.02.81-4.28,1.61-6.7,2.42-1.69.56-3.39,1.05-5.08,1.45-1.29.32-2.66.56-3.95.81-1.78.32-3.63.56-5.41.81h0c-5.57.73-11.22,1.13-16.38.73h0c-.4,0-.81-.08-1.21-.16-3.15-.4-6.13-1.13-8.88-2.34-.48-.24-.89-.48-1.29-.73-2.58-1.69-4.52-4.68-5.89-7.91-.48-1.05-.81-2.1-1.21-3.15-.08-.16-.16-.4-.16-.56-.65-2.02-1.13-3.95-1.45-5.57-.48-2.5-.65-4.2-.65-4.2-.16-.73-.16-1.37,0-2.1h0c.32-1.61,1.45-3.07,2.99-4.36,5.49-4.52,16.38-6.54,16.7-4.36.08.48.16,1.05.32,1.78.16.81.4,1.86.65,2.82.65,2.5,1.37,5.33,1.86,7.18q0,.08.08.16c.32,1.13.48,1.86.48,1.86h.65c.81,0,2.42.08,4.44.08h0c4.76.16,12.1.4,18.48.65,1.61.08,3.23.16,4.68.24,1.45.08,2.74.16,3.87.32,1.78.16,3.07.32,3.71.56,3.15.97,5.49,6.29,6.46,8.8h0c.32.89.48,1.45.48,1.45Z" style="fill: #ffae91; stroke-width: 0px;"/>
                  <path d="m232.45,225.64c-5.33,2.34-10.81,1.29-12.91.73h0c-.08,0-.16-.08-.24-.08s-.16-.08-.24-.08-.08,0-.16-.08c-.08,0-.16,0-.16-.08h-.08c-.73-.08-8.23-1.29-15.57-2.5s-14.52-2.42-14.85-2.74c-.24-.16-1.45-1.21-2.74-2.58-.65-.65-1.29-1.37-1.86-2.18-1.61-2.1-2.66-4.36-1.21-5.81h0c.16-.16.4-.32.56-.48,3.87-2.66,15.41-4.28,25.09-4.28,10.25,0,23.64,2.74,23.64,2.74,0,0,5.08,2.34,5.33,3.71.16,1.37,2.26,10.65-4.6,13.72Z" style="fill: #ffae91; stroke-width: 0px;"/>
                  <path d="m165.08,166.17s-5,3.15-8.8,14.44c-3.71,11.3-.16,25.42.97,27.92,1.13,2.58,2.34,5.24,2.34,5.24,0,0,5.89-4.76,11.62-7.58,5.16-2.5,10.01-3.55,10.01-3.55,0,0-.81-8.96-5-19.12-4.2-10.25-11.14-17.35-11.14-17.35Z" style="fill: #00d1d8; stroke-width: 0px;"/>
                  <path d="m175.49,176.99c1.05,4.28,1.94,8.55,2.82,12.83.4,2.1.81,4.2,1.29,6.29.24,1.05.48,2.18.73,3.23.24,1.05.48,2.18.89,3.15.08.24.48.16.48-.16-.16-1.05-.56-2.1-.81-3.15s-.48-2.02-.73-3.07c-.48-2.18-.89-4.28-1.29-6.46-.81-4.36-1.61-8.63-2.82-12.83-.16-.32-.65-.16-.56.16h0Z" style="fill: #82bacd; stroke-width: 0px;"/>
                  <path d="m180.97,201.68c-.16-.56-.32-1.21-.4-1.78-.56.08-1.13.16-1.69.24-7.5,1.13-15.73,3.47-21.54,8.71,1.05,2.5,2.26,5,2.26,5,0,0,5.89-4.76,11.62-7.58,5.16-2.5,10.01-3.55,10.01-3.55v-.16c-.08-.4-.16-.65-.24-.89Z" style="fill: #b5f2f4; stroke-width: 0px;"/>
                  <path d="m220.35,226.53c-.73.32-1.53.65-2.34.97-.73-.16-1.45-.32-2.18-.48-4.28-1.13-8.55-2.26-12.83-3.47-2.18-.65-4.36-1.29-6.54-1.86-2.66-.81-5.33-1.53-7.99-2.42-.73-.24-2.1-.65-3.15-.97-.73-.24-1.21-.4-1.29-.48-.32-.48-.48-1.05-.65-1.69-.08-.32-.16-.56-.24-.89-.16-.73-.4-1.37-.56-2.1-.08-.4-.32-1.78-.4-2.82.16-.16.4-.32.56-.48.08.4.24.81.32,1.21.08.4.16.73.24,1.13.08.24.16.56.16.81.4,1.37.73,2.74,1.13,4.12,1.69.4,3.31.89,5,1.29,6.05,1.69,12.1,3.39,18.16,4.92,3.15.81,6.21,1.61,9.36,2.34.32.08.81.24,1.29.4h.08c.08,0,.16,0,.16.08q.08,0,.16.08c.08,0,.16.08.24.08s.16.08.24.08h0c.48,0,.81.08,1.05.16Z" style="fill: #d8baaa; stroke-width: 0px;"/>
                  <path d="m232.45,208.54c-1.29-.73-2.74-1.21-4.12-1.69-.73-.24-1.37-.4-2.18-.48,0,0,0,.81.08.89.65.16,1.29.32,1.94.48,1.37.4,2.66.97,4.12,1.37.24.08.48-.4.16-.56Z" style="fill: #d8baaa; stroke-width: 0px;"/>
                </g>
              </g>
            </g>
          </g>
        </g>
        <path d="m267.66,235.59c-63.66,18.67-130.51-17.86-149.18-81.53C99.81,90.39,136.34,23.55,200.01,4.88c63.66-18.67,130.51,17.86,149.18,81.53,18.67,63.67-17.86,130.51-81.53,149.18Zm-4.27-15.72c-55.25,16.2-113.25-15.5-129.44-70.74-16.2-55.24,15.5-113.25,70.74-129.44,55.24-16.2,113.25,15.5,129.44,70.74,16.2,55.24-15.5,113.25-70.74,129.44Z" style="fill: #efaf3f; fill-rule: evenodd; stroke-width: 0px;"/>
        <path d="m237.01,10.51s-40.94-2.66-70.78,25.02c-1.2,1.11-3.09,1.04-4.2-.16-1.11-1.21-1.04-3.09.16-4.2C193.9,1.76,237.39,4.58,237.39,4.58c1.64.1,2.88,1.52,2.77,3.16-.11,1.64-1.52,2.88-3.16,2.77Z" style="fill: #ffe6ca; fill-rule: evenodd; stroke-width: 0px;"/>
        <ellipse cx="247.78" cy="7.96" rx="3.52" ry="3.67" transform="translate(197.74 250.76) rotate(-80.19)" style="fill: #ffe6ca; stroke-width: 0px;"/>
      </g>
    </g>
  </g>
</svg>