<?xml version="1.0" encoding="UTF-8"?>
<svg id="_圖層_2" data-name="圖層 2" xmlns="http://www.w3.org/2000/svg" width="366.4" height="303.5" viewBox="0 0 366.4 303.5">
  <g id="_圖層_2-2" data-name=" 圖層 2">
    <g id="_圖層_8" data-name=" 圖層 8">
      <g id="local_practice" data-name="local practice">
        <g>
          <g>
            <ellipse cx="172.6" cy="203.9" rx="172.6" ry="99.6" style="fill: #cda86a; stroke-width: 0px;"/>
            <ellipse cx="172.6" cy="192.8" rx="172.6" ry="99.6" style="fill: #f9d79c; stroke-width: 0px;"/>
          </g>
          <g>
            <g>
              <g>
                <polygon points="197.4 122.3 302.7 183.1 302.7 185.2 158.9 268.2 148.5 268.2 43.2 207.4 43.2 205.3 187 122.3 197.4 122.3" style="fill: #693121; stroke-width: 0px;"/>
                <polygon points="197.4 116.3 302.7 177.1 302.7 183.1 158.9 266.1 148.5 266.1 43.2 205.3 43.2 199.3 187 116.3 197.4 116.3" style="fill: #944e39; stroke-width: 0px;"/>
              </g>
              <polygon points="297.5 178.2 156.7 259.5 55 200.9 195.9 119.5 297.5 178.2" style="fill: #d8d1c7; stroke-width: 0px;"/>
              <polygon points="297.5 177.3 156.7 258.7 55 200 195.9 118.7 297.5 177.3" style="fill: #fff; stroke-width: 0px;"/>
              <polygon points="297.5 176.5 156.7 257.8 55 199.1 195.9 117.8 297.5 176.5" style="fill: #d8d1c7; stroke-width: 0px;"/>
              <g>
                <polygon points="297.5 175.5 163.1 253.1 156.6 251.2 150.3 253.1 55 198.1 195.9 116.8 297.5 175.5" style="fill: #fff; stroke-width: 0px;"/>
                <g>
                  <g>
                    <path d="m176.3,200l-22.6-13v-18.4l22.6-13h31.9l22.5,13v18.4l-22.5,13h-31.9Zm-20.2-13.6l21.2,12.2h30l21.2-12.2v-17.3l-21.2-12.2h-29.9l-21.2,12.2v17.3h-.1Z" style="fill: #685750; stroke-width: 0px;"/>
                    <path d="m140.4,214.3l-11.3-6.5v-9.2l24-13.9,27.3,15.8-24,13.9-16-.1h0Zm-9-7.1l9.9,5.7h14.1l21.7-12.5-24-13.8-21.7,12.5v8.1h0Z" style="fill: #685750; stroke-width: 0px;"/>
                    <polygon points="157.5 188.4 185.5 165.5 187.4 166.3 159.4 189.1 157.5 188.4" style="fill: #685750; stroke-width: 0px;"/>
                    <polygon points="173.2 197.4 171.8 196.3 204.9 181.2 206.4 182.3 173.2 197.4" style="fill: #685750; stroke-width: 0px;"/>
                    <polygon points="188.3 178.9 189.4 173.9 183.7 174.3 183.6 167.3 185.9 167.3 186 172.8 192.2 172.4 191.1 176.9 200.1 175.1 198.3 180 203.1 178.8 204.3 182.8 202 183 201.3 180.7 195.1 182.4 197 177.1 188.3 178.9" style="fill: #685750; stroke-width: 0px;"/>
                    <polygon points="169.3 205.9 143.6 191.1 145.3 190.1 170.9 204.9 169.3 205.9" style="fill: #685750; stroke-width: 0px;"/>
                    <polygon points="160.5 210.9 134.9 196.1 136.6 195.2 162.2 210 160.5 210.9" style="fill: #685750; stroke-width: 0px;"/>
                  </g>
                  <g>
                    <path d="m116.6,219.2h-3.4l-6.7-3.9,12-6.9,6.7,3.9v2l-3,1.7h-2.2v1.3l-3.4,1.9h0Zm-.9-1.3l2-1.1v-.9l-4.4-2.6-3.5,2,4.4,2.5,1.5.1h0Zm5.6-3.3l1.6-.9v-.9l-4.4-2.5-3.6,2.1,3.9,2.2h2.5Z" style="fill: #685750; stroke-width: 0px;"/>
                    <path d="m133,222.2h-3.4l-1.8-1.1-2.4,5.1-1.7-1,2.4-5.1-2.1-1.1-5.6,3.2-1.6-.9,12-6.9,7.2,4.1v2l-3,1.7h0Zm-1-1.3l1.6-.9v-1l-4.9-2.8-3.1,1.8,4.9,2.8,1.5.1h0Z" style="fill: #685750; stroke-width: 0px;"/>
                    <path d="m137.8,233.4l-1.7-1,2.1-2.6-4.6-2.6-4.6,1.2-1.7-1,16.4-4.4,1.8,1-7.7,9.4h0Zm1.4-4.9l2.9-3.6-6.3,1.7,3.4,1.9h0Z" style="fill: #685750; stroke-width: 0px;"/>
                    <path d="m147.6,239.1l-1.6-.9,3.7-7.9-8.7,5-1.6-.9,12-6.9,1.6.9-3.7,8,8.8-5.1,1.6.9-12.1,6.9h0Z" style="fill: #685750; stroke-width: 0px;"/>
                    <path d="m159.9,244.2h-3.4l-6.7-3.9,12-6.9,6.7,3.9v2l-8.6,4.9h0Zm-.9-1.3l7.2-4.2v-.9l-4.4-2.5-8.8,5.1,4.4,2.5h1.6Z" style="fill: #685750; stroke-width: 0px;"/>
                  </g>
                  <g>
                    <polygon points="136.1 172 123.9 165.2 122.4 166.1 134.5 173 136.1 172" style="fill: #685750; stroke-width: 0px;"/>
                    <polygon points="145.1 185.1 146.7 184.2 119.2 168.7 117.7 169.6 145.1 185.1" style="fill: #685750; stroke-width: 0px;"/>
                    <polygon points="112.9 172.3 129.8 182.3 131.4 181.4 114.4 171.5 112.9 172.3" style="fill: #685750; stroke-width: 0px;"/>
                  </g>
                  <g>
                    <polygon points="106.8 207.5 108.2 206.5 78.8 191.4 77.4 192.3 106.8 207.5" style="fill: #685750; stroke-width: 0px;"/>
                    <polygon points="94.5 207.1 72.6 195 71 196 92.9 208 94.5 207.1" style="fill: #685750; stroke-width: 0px;"/>
                  </g>
                  <g>
                    <polygon points="178.6 223.2 175.2 221.2 184.1 216.1 200.5 219.6 206.5 212.9 191.8 208.3 194 205.9 212.9 211.7 202.8 223 185.4 219.3 178.6 223.2" style="fill: #fa5c52; stroke-width: 0px;"/>
                    <polygon points="170.1 228.1 166.7 226.1 171.5 223.4 174.9 225.3 170.1 228.1" style="fill: #fa5c52; stroke-width: 0px;"/>
                  </g>
                  <g>
                    <polygon points="171.4 147.4 168.3 145.6 176.5 140.9 191.4 144.1 196.8 138 183.4 133.8 185.5 131.6 202.6 136.9 193.5 147.2 177.6 143.8 171.4 147.4" style="fill: #fa5c52; stroke-width: 0px;"/>
                    <polygon points="163.7 151.8 160.6 150 165 147.5 168.1 149.3 163.7 151.8" style="fill: #fa5c52; stroke-width: 0px;"/>
                  </g>
                  <g>
                    <polygon points="243.9 174.2 241.6 172.9 247.7 169.4 258.8 171.8 262.9 167.2 252.9 164.1 254.4 162.4 267.2 166.4 260.4 174.1 248.5 171.5 243.9 174.2" style="fill: #fa5c52; stroke-width: 0px;"/>
                    <polygon points="238.1 177.5 235.8 176.2 239.1 174.3 241.4 175.7 238.1 177.5" style="fill: #fa5c52; stroke-width: 0px;"/>
                  </g>
                </g>
                <polygon points="150.3 253.1 156.7 247.3 163.1 253.1 156.7 251.9 150.3 253.1" style="fill: #d8d1c7; stroke-width: 0px;"/>
                <polygon points="163.1 253.1 150.3 253.1 156.6 249.3 163.1 253.1" style="fill: #fff; stroke-width: 0px;"/>
              </g>
              <g>
                <polygon points="245 136.7 267.6 149.7 267.6 156.8 263.3 154.3 259.7 156.4 249.3 156.4 226.7 143.4 226.7 141.3 234.6 136.7 245 136.7" style="fill: #a39c95; stroke-width: 0px;"/>
                <polygon points="245 130.7 267.6 143.6 267.6 149.7 259.6 154.3 249.3 154.3 226.7 141.3 226.7 135.3 234.6 130.7 245 130.7" style="fill: #f4efe9; stroke-width: 0px;"/>
              </g>
            </g>
            <g>
              <polygon points="82.8 158.3 77.7 155.4 70.4 155.4 59.5 161.7 59.5 165.9 64.6 168.9 71.9 168.9 82.8 162.6 82.8 158.3" style="isolation: isolate; opacity: .3; stroke-width: 0px;"/>
              <polygon points="66.9 165.6 67.7 165.7 67.7 166 67.6 167.8 64.6 167.9 62.8 166.2 62.1 163 62.1 162.7 62.9 163 66.9 165.6" style="fill: #0a0808; stroke-width: 0px;"/>
              <polygon points="75.4 157.4 79.6 158.4 82.1 159.5 82.1 159.8 78.9 160 75 158.8 72.3 159 70.4 158.7 70.4 158.3 72 156.7 75.4 157.4" style="fill: #0a0808; stroke-width: 0px;"/>
              <polygon points="66.1 160.5 66.6 162.9 67.7 165.7 67.6 167.5 64.6 167.6 62.8 165.8 62.1 162.7 62.2 160.9 62.4 159.6 66.1 160.5" style="fill: #6b4414; stroke-width: 0px;"/>
              <polygon points="76 155 78.9 156.4 82.1 157.6 82.1 159.5 78.9 159.6 75 158.5 72.3 158.7 70.4 158.3 70.7 155.3 73 154.4 76 155" style="fill: #6b4414; stroke-width: 0px;"/>
              <polygon points="79.3 120.2 79.1 130.7 77.5 141.2 76.3 144.4 76.1 155 73.2 156.3 70.6 155.3 70.8 143.5 71.7 140.9 71.5 137 70.2 123.5 74.8 119 79.3 120.2" style="fill: #0a0808; stroke-width: 0px;"/>
              <polygon points="81.8 103.1 83.4 105.4 83.8 107.3 81.2 117.1 80.5 119.8 79.3 120.2 78.2 118.7 79.4 104.2 81.8 103.1" style="fill: #f0c6b4; stroke-width: 0px;"/>
              <polygon points="80.3 106.8 82.9 106 80.3 107.4 80.3 106.8" style="fill: #c7a495; stroke-width: 0px;"/>
              <polygon points="65.4 121.7 64.1 125.1 64.1 142.7 62.2 147.8 62.1 160.1 65 161.5 67.1 160.1 68.7 147 70 143.1 73.1 130.6 77.3 126.3 79.3 120.2 65.4 121.7" style="fill: #362c29; stroke-width: 0px;"/>
              <polygon points="79.3 120.2 79.2 121.8 78.4 123.2 78.5 123.9 79.3 123.8 81.7 122.2 81.2 117.1 79.3 120.2" style="fill: #f0c6b4; stroke-width: 0px;"/>
              <polygon points="78.6 98.2 79.9 99.2 82 103 81.2 105.9 79 106.1 76 100.6 78.6 98.2" style="fill: #fff; stroke-width: 0px;"/>
              <polygon points="81.2 105.9 79.4 101.9 79.1 102.5 79.5 105.2 80.5 106 81.2 105.9" style="fill: #d1d1d1; stroke-width: 0px;"/>
              <polygon points="70.4 97.8 69.9 99.5 70.9 102.3 75.5 105.9 78.4 104.8 77.4 101.7 71.6 97.1 70.4 97.8" style="fill: #c7a495; stroke-width: 0px;"/>
              <polygon points="65.8 119.8 65.4 121.7 67.9 123.5 76.8 122.8 79.3 120.2 79.3 118.7 65.8 119.8" style="fill: #693121; stroke-width: 0px;"/>
              <polygon points="64.6 103.9 69.3 99.9 70.1 99.9 71.1 102.2 74.6 103.5 75.1 104.8 76.8 105.9 77.3 103.8 77 102.5 78 99.6 79.4 101.9 80.5 106 80.3 111.2 79.4 116.2 79.8 118.3 76.9 121.2 67.8 122 65.4 120 66.7 116 64.8 106.9 64.6 103.9" style="fill: #fff; stroke-width: 0px;"/>
              <g>
                <polygon points="76.2 105.6 76.7 112.1 76.3 128.9 77.6 130.5 78.9 127.3 77.9 111.4 76.7 105.3 76.4 104.9 76.2 105.6" style="fill: #c84030; stroke-width: 0px;"/>
                <polygon points="75.4 104.8 76.8 104 76.7 105.3 76.2 105.6 75.4 104.8" style="fill: #fa5c52; stroke-width: 0px;"/>
              </g>
              <polygon points="78.6 103.6 77.3 103.8 77 102.5 77.7 100.5 78.6 103.6" style="isolation: isolate; opacity: .3; stroke-width: 0px;"/>
              <polygon points="77 102.4 78.4 103.5 77.7 101.4 76.5 100.8 77 102.4" style="fill: #fff; stroke-width: 0px;"/>
              <polygon points="74.6 103.5 75.1 104.8 73.9 106.1 69.9 102.7 69.3 99.9 70.1 100.1 71.6 102.6 74.6 103.5" style="isolation: isolate; opacity: .3; stroke-width: 0px;"/>
              <polygon points="68.4 107.3 71.1 113 70.1 114 67.3 109.6 68.4 107.3" style="fill: #d1d1d1; stroke-width: 0px;"/>
              <polygon points="65 115.6 68 115.5 70.2 112.7 68.4 111.3 65 113 65 115.6" style="fill: #a39c95; stroke-width: 0px;"/>
              <polygon points="65.2 115.4 67.1 120.8 70.9 116.8 70.2 113.2 70.1 112.7 68 111.7 65.6 113.1 65.2 115.4" style="fill: #f0c6b4; stroke-width: 0px;"/>
              <polygon points="70.2 113.2 68.1 115.8 68.3 116.7 69.7 116 70.2 113.2" style="fill: #c7a495; stroke-width: 0px;"/>
              <polygon points="80.4 96.3 79.5 98.3 79.2 98.7 79.2 99.4 77.7 102.8 76 103.7 72.1 100.5 71.9 99.3 71.1 98.5 70.5 97 70.5 95.2 72.9 93.9 79.1 94.1 80.4 96.3" style="fill: #f0c6b4; stroke-width: 0px;"/>
              <polygon points="71.1 98.5 71.1 96.7 72.1 96.7 72.9 97.8 72.9 98.5 73.6 97.6 76.1 97.3 76.5 96.4 78 97.1 79.7 96.9 80.8 95.9 80.2 93.5 78.1 90.9 76.3 89.9 73.8 89.9 72.7 90.8 71.2 91.5 70.3 93.1 69.7 95.2 70 97.3 71.1 98.5" style="fill: #995d43; stroke-width: 0px;"/>
              <polygon points="73.1 91.4 76 95.2 73.1 92.2 73.1 91.4" style="fill: #87523b; stroke-width: 0px;"/>
              <polygon points="78.7 99.5 79 101.3 78.6 101.7 77.3 101.5 77.2 99.7 78.7 99.5" style="fill: #f0c6b4; stroke-width: 0px;"/>
              <polygon points="64.6 103.9 62.8 105.5 62.5 108.6 63.2 111.2 65 115.6 66.7 113.6 70.2 112.7 68.4 107.3 66.8 104.9 64.6 103.9" style="fill: #fff; stroke-width: 0px;"/>
              <polygon points="68.5 116.2 73.7 107.3 75.6 109.6 71.7 120.1 67.1 120.8 68.5 116.2" style="fill: #f0c6b4; stroke-width: 0px;"/>
              <polygon points="73.7 107.3 75.2 103.9 77.2 103.4 78.5 104.4 79.4 106.4 79.2 107 78.4 107 76.4 109.3 75.6 109.6 74 108.8 73.7 107.3" style="fill: #f0c6b4; stroke-width: 0px;"/>
              <polygon points="70.3 98 71.4 101.3 74.6 103.5 73.7 105.2 70.2 102.4 69.2 99.5 70.3 98" style="fill: #fff; stroke-width: 0px;"/>
            </g>
            <g>
              <g>
                <path d="m194,167.6l9.3-5.4v-7.6l-9.3-5.4h-13.2l-9.3,5.4v7.6l9.3,5.4h13.2Z" style="isolation: isolate; opacity: .3; stroke-width: 0px;"/>
                <g>
                  <g>
                    <path d="m191.7,140.1l6-3.5v-4.9l-6-3.5h-8.5l-6,3.5v4.9l6,3.5h8.5Z" style="fill: #b5a794; stroke-width: 0px;"/>
                    <polygon points="183.1 140.1 177.1 136.6 177.1 147 183.1 150.5 183.6 140.7 183.1 140.1" style="fill: #836e69; stroke-width: 0px;"/>
                    <polygon points="191.7 140.1 183.1 140.1 183.1 150.5 191.7 150.5 192.4 140.6 191.7 140.1" style="fill: #685750; stroke-width: 0px;"/>
                    <polygon points="197.7 136.6 191.7 140.1 191.7 150.5 197.7 147 197.7 136.6" style="fill: #403531; stroke-width: 0px;"/>
                  </g>
                  <g>
                    <path d="m193.9,137.8l9.2-5.3v-7.5l-9.2-5.3h-13l-9.2,5.3v7.5l9.2,5.3h13Z" style="fill: #b5a794; stroke-width: 0px;"/>
                    <polygon points="180.9 137.8 171.8 132.5 171.8 138.4 180.9 143.7 181.7 138.8 180.9 137.8" style="fill: #a39685; stroke-width: 0px;"/>
                    <polygon points="193.9 137.8 180.9 137.8 180.9 143.7 193.9 143.7 194.9 138.5 193.9 137.8" style="fill: #736656; stroke-width: 0px;"/>
                    <polygon points="203.1 132.5 193.9 137.8 193.9 143.7 203 138.4 203.1 132.5" style="fill: #5e4439; stroke-width: 0px;"/>
                  </g>
                  <g>
                    <path d="m194.8,134.2l10.4-6v-8.5l-10.4-6h-14.8l-10.4,6v8.5l10.4,6h14.8Z" style="fill: #b5a794; stroke-width: 0px;"/>
                    <polygon points="180 134.2 169.6 128.2 169.6 134.9 180 140.9 180.9 135.4 180 134.2" style="fill: #a39685; stroke-width: 0px;"/>
                    <polygon points="194.8 134.2 180 134.2 180 140.9 194.8 140.9 196 135.1 194.8 134.2" style="fill: #736656; stroke-width: 0px;"/>
                    <polygon points="205.2 128.2 194.8 134.2 194.8 140.9 205.2 134.9 205.2 128.2" style="fill: #5e4439; stroke-width: 0px;"/>
                  </g>
                  <g>
                    <path d="m193.9,126.2l9.2-5.3v-7.5l-9.2-5.3h-13l-9.2,5.3v7.5l9.2,5.3h13Z" style="fill: #b5a794; stroke-width: 0px;"/>
                    <polygon points="180.9 126.2 171.8 120.9 171.8 126.8 180.9 132.1 181.7 127.2 180.9 126.2" style="fill: #a39685; stroke-width: 0px;"/>
                    <polygon points="193.9 126.2 180.9 126.2 180.9 132.1 193.9 132.1 194.9 127 193.9 126.2" style="fill: #736656; stroke-width: 0px;"/>
                    <polygon points="203.1 120.9 193.9 126.2 193.9 132.1 203 126.8 203.1 120.9" style="fill: #5e4439; stroke-width: 0px;"/>
                  </g>
                  <g>
                    <path d="m194.8,122.6l10.4-6v-8.5l-10.4-6h-14.8l-10.4,6v8.5l10.4,6h14.8Z" style="fill: #b5a794; stroke-width: 0px;"/>
                    <polygon points="180 122.6 169.6 116.6 169.6 123.3 180 129.4 180.9 123.8 180 122.6" style="fill: #a39685; stroke-width: 0px;"/>
                    <polygon points="194.8 122.6 180 122.6 180 129.4 194.8 129.4 196 123.5 194.8 122.6" style="fill: #736656; stroke-width: 0px;"/>
                    <polygon points="205.2 116.6 194.8 122.6 194.8 129.4 205.2 123.3 205.2 116.6" style="fill: #5e4439; stroke-width: 0px;"/>
                  </g>
                  <g>
                    <path d="m193.9,114.9l9.2-5.3v-7.5l-9.2-5.3h-13l-9.2,5.3v7.5l9.2,5.3h13Z" style="fill: #b5a794; stroke-width: 0px;"/>
                    <polygon points="180.9 114.9 171.8 109.6 171.8 115.5 180.9 120.8 181.7 115.9 180.9 114.9" style="fill: #a39685; stroke-width: 0px;"/>
                    <polygon points="193.9 114.9 180.9 114.9 180.9 120.8 193.9 120.8 194.9 115.7 193.9 114.9" style="fill: #736656; stroke-width: 0px;"/>
                    <polygon points="203.1 109.6 193.9 114.9 193.9 120.8 203 115.5 203.1 109.6" style="fill: #5e4439; stroke-width: 0px;"/>
                  </g>
                  <g>
                    <path d="m194.8,111.3l10.4-6v-8.5l-10.4-6h-14.8l-10.4,6v8.5l10.4,6h14.8Z" style="fill: #b5a794; stroke-width: 0px;"/>
                    <polygon points="180 111.3 169.6 105.3 169.6 112 180 118.1 180.9 112.5 180 111.3" style="fill: #a39685; stroke-width: 0px;"/>
                    <polygon points="194.8 111.3 180 111.3 180 118.1 194.8 118.1 196 112.2 194.8 111.3" style="fill: #736656; stroke-width: 0px;"/>
                    <polygon points="205.2 105.3 194.8 111.3 194.8 118.1 205.2 112 205.2 105.3" style="fill: #5e4439; stroke-width: 0px;"/>
                  </g>
                </g>
                <g>
                  <polygon points="180 111.3 169.6 105.3 154.7 80.4 178.4 86.8 180 111.3" style="fill: #e09d38; stroke-width: 0px;"/>
                  <polygon points="194.8 111.3 205.2 105.3 220.1 80.4 196.4 86.8 194.8 111.3" style="fill: #e09d38; stroke-width: 0px;"/>
                  <path d="m194,53l9.3-5.4v-7.6l-9.3-5.4h-13.2l-9.3,5.4v7.6l9.3,5.4h13.2Z" style="fill: #fff3ab; stroke-width: 0px;"/>
                  <polygon points="194.8 111.3 180 111.3 173.8 91.5 201 91.5 194.8 111.3" style="fill: #ffc654; stroke-width: 0px;"/>
                  <polygon points="201 91.5 173.8 91.5 176.4 71.8 198.4 71.8 201 91.5" style="fill: #fbe979; stroke-width: 0px;"/>
                  <polygon points="220.1 80.4 201 91.5 198.4 71.8 213.9 62.8 220.1 80.4" style="fill: #ffc654; stroke-width: 0px;"/>
                  <polygon points="154.7 80.4 173.8 91.5 176.4 71.8 160.9 62.8 154.7 80.4" style="fill: #ffc654; stroke-width: 0px;"/>
                  <polygon points="220.1 64.7 220.1 80.4 213.9 62.8 213.9 50.1 220.1 64.7" style="fill: #e09d38; stroke-width: 0px;"/>
                  <polygon points="213.9 50.1 213.9 62.8 203.3 47.6 203.3 40 213.9 50.1" style="fill: #ffc654; stroke-width: 0px;"/>
                  <polygon points="160.9 50.1 160.9 62.8 171.5 47.6 171.5 40 160.9 50.1" style="fill: #ffc654; stroke-width: 0px;"/>
                  <polygon points="154.7 64.7 154.7 80.4 160.9 62.8 160.9 50.1 154.7 64.7" style="fill: #e09d38; stroke-width: 0px;"/>
                  <polygon points="198.4 71.8 176.4 71.8 180.8 53 194 53 198.4 71.8" style="fill: #fff094; stroke-width: 0px;"/>
                  <polygon points="213.9 62.8 198.4 71.8 194 53 203.3 47.6 213.9 62.8" style="fill: #fbe979; stroke-width: 0px;"/>
                  <polygon points="160.9 62.8 176.4 71.8 180.8 53 171.5 47.6 160.9 62.8" style="fill: #fbe979; stroke-width: 0px;"/>
                </g>
              </g>
              <g>
                <polygon points="138.6 157.7 147.9 157.7 154.5 161.5 154.5 166.9 147.9 170.7 138.6 170.7 132 166.9 132 161.5 138.6 157.7" style="isolation: isolate; opacity: .3; stroke-width: 0px;"/>
                <polygon points="129.8 126.7 128.2 126.5 126.9 125.6 126.6 124.1 127.7 123.6 130.5 125.1 129.8 126.7" style="fill: #211a1a; stroke-width: 0px;"/>
                <polygon points="126.4 125 125.2 125.5 123.6 127 123.8 127.9 122.3 130.8 123.2 132 126.1 131.7 127.7 129.4 128.8 126.9 128.8 125.6 127 124.5 126.4 125" style="fill: #f0c6b4; stroke-width: 0px;"/>
                <polygon points="130.1 125.4 128.8 126.9 128.3 126.1 127.1 125.2 126.4 125 127.7 123.2 129 123.3 130.5 124.5 130.1 125.4" style="fill: #e8f3ff; stroke-width: 0px;"/>
                <polygon points="139 102.5 136.9 102.7 134.9 104.8 132.9 116.2 126.6 124.1 127.9 124.2 129.2 125.2 129.8 126.7 136.4 119.8 140.4 104.2 139 102.5" style="fill: #b5afa7; stroke-width: 0px;"/>
                <polygon points="134.8 121.4 135 110.9 136.7 105.9 136.1 120 135.3 120.9 134.8 121.4" style="fill: #827c77; stroke-width: 0px;"/>
                <polygon points="138.5 159.1 136.8 161 133 163.7 133 164.1 133.4 165.3 134.7 165.8 136.9 165 139.4 163.4 141.7 162.8 143 161.8 143 161.5 140.8 158.4 138.5 159.1" style="fill: #f7edd4; stroke-width: 0px;"/>
                <polygon points="150.2 164.2 148.4 165.7 148.4 166 148.6 167.2 149.5 167.9 151.6 167.4 152.9 165.8 152.9 165.4 151.6 164.7 150.2 164.2" style="fill: #f7edd4; stroke-width: 0px;"/>
                <polygon points="138.5 158.8 136.8 160.7 133.5 162.6 133 163.7 133.4 165 134.7 165.4 136.9 164.7 139.4 163.1 141.7 162.4 143 161.5 143 159.6 140.8 158.1 138.5 158.8" style="fill: #a87c49; stroke-width: 0px;"/>
                <polygon points="144.9 131.7 142.8 144.8 143.6 148.8 143.1 159.5 141.5 160.4 139.2 160.2 138.1 158.7 137.5 144.5 136.4 136.4 136.4 129.5 141.3 127.9 144.9 131.7" style="fill: #17435c; stroke-width: 0px;"/>
                <polygon points="149.3 160.9 148.9 163.4 148.4 165.7 148.6 166.9 149.5 167.5 151.6 167.1 152.9 165.4 152.9 161.4 152.6 160.5 149.3 160.9" style="fill: #a87c49; stroke-width: 0px;"/>
                <polygon points="151.8 131.1 151.8 144.2 152.9 147.8 153.1 160.8 151.8 162.1 149.8 162.1 148.7 160.9 147 146.6 146.2 143.5 144.2 133.5 140.6 131.8 136.9 128.8 136.9 126.4 150.1 127.4 151.8 131.1" style="fill: #275c78; stroke-width: 0px;"/>
                <polygon points="146.6 101.1 146.6 102.5 146.9 103.4 147.2 104.7 146.6 107.2 145.1 108.5 142.8 108.5 141.9 108.3 140.5 107 140.4 105.8 140.6 103.3 143.1 100.8 145.8 100.5 146.6 101.1" style="fill: #c7a495; stroke-width: 0px;"/>
                <polygon points="142.6 128.6 139.8 127.7 138.8 126.9 138.6 125 143.8 126 143.9 127.5 142.6 128.6" style="fill: #211a1a; stroke-width: 0px;"/>
                <polygon points="146.3 106.5 144.1 107.8 142.1 107.9 141.1 106.8 141.2 104.5 140.2 104.5 137.8 110 138.6 125.1 140 126.1 142.6 126.8 144.7 126.8 147.9 107.4 147.3 106.7 146.3 106.5" style="fill: #e8f3ff; stroke-width: 0px;"/>
                <polygon points="141.9 104.5 140.6 106.9 139.6 110.6 139.2 115 139.2 121.7 139.2 130.3 138.5 131.1 136.5 129.9 135.3 128.2 135.3 110.8 136.7 105.9 139.2 103.4 141.9 104.5" style="fill: #b5afa7; stroke-width: 0px;"/>
                <polygon points="142.1 107.9 138.9 106.7 139.7 104.8 140.8 105.3 141.1 106.8 142.1 107.9" style="isolation: isolate; opacity: .3; stroke-width: 0px;"/>
                <polygon points="140.2 105.7 139 106.6 139.8 104.8 140.9 104.7 140.9 105.7 140.2 105.7" style="fill: #b4ced6; stroke-width: 0px;"/>
                <polygon points="141.6 105 141.1 106.8 140.2 105.7 140.9 104.2 141.6 105" style="fill: #e8f3ff; stroke-width: 0px;"/>
                <polygon points="152.2 106.6 146.9 103.4 146.3 105.5 144.1 108.6 143.1 111.7 142.6 115.9 142.6 123.3 142.6 131.4 143.4 132.7 145.8 133.5 148.3 133.5 150.3 133 152.1 131.5 151.5 123.5 152.1 115.4 154.3 111.4 152.2 106.6" style="fill: #b5afa7; stroke-width: 0px;"/>
                <polygon points="150.3 111.8 153.8 112.4 153.2 113.4 150.3 111.8" style="fill: #827c77; stroke-width: 0px;"/>
                <polygon points="140.2 94.6 138.8 96.4 138.3 98.8 138.5 99.2 138.4 99.3 138.5 101.3 138.8 104.4 139.8 105.2 141.5 105.3 144.1 104 145 102.9 145.3 102.1 146.5 101.4 146.8 100.6 147.4 98.8 146.4 95.6 142.9 93.7 140.2 94.6" style="fill: #f0c6b4; stroke-width: 0px;"/>
                <polygon points="146.9 99.4 146.4 99.1 145.5 99.4 145.3 100.4 144.6 100.8 144.7 99.6 143.9 99 143.9 98.1 143.6 97.3 142.5 97.2 142.4 98 140.9 97.6 139.4 96.2 139.4 94.8 141.4 93.1 143.6 92.7 146 93.5 147.4 95.1 147.9 97.2 147.6 99.2 146.8 100.6 146.9 99.4" style="fill: #544540; stroke-width: 0px;"/>
                <polygon points="169.9 103.8 170.7 104 172.1 105.7 172.4 106.8 170.8 106.9 169.3 104.4 169.9 103.8" style="fill: #211a1a; stroke-width: 0px;"/>
                <polygon points="171.2 102.9 172.5 100.6 173.4 99.9 174 100 177.2 99.3 177.8 101 176.8 103.5 173.7 105.5 172.9 105.6 171.8 105.7 170.4 104 171.2 102.9" style="fill: #f0c6b4; stroke-width: 0px;"/>
                <polygon points="169.6 104.2 171.2 102.9 171 104 172.1 105.5 172.9 105.6 171.4 106.9 170.2 106.5 169.1 104.9 169.6 104.2" style="fill: #e8f3ff; stroke-width: 0px;"/>
                <polygon points="148.2 108.6 150 107.2 152.2 106.6 163.1 108 169.9 103.8 170 105.2 171.1 106.4 172.4 106.8 166.1 112.3 163.6 113.1 153.7 112.6 150.3 111.8 148.6 110.4 148.2 108.6" style="fill: #b5afa7; stroke-width: 0px;"/>
                <polygon points="143.9 107.1 142.1 107.9 144.1 107.9 144.7 107.5 143.9 107.1" style="fill: #b4ced6; stroke-width: 0px;"/>
                <polygon points="142.1 107.9 145.1 108.8 146.8 106.4 147.2 103.6 145.5 106.5 143.9 107.1 142.1 107.9" style="isolation: isolate; opacity: .3; stroke-width: 0px;"/>
                <polygon points="145.1 108.6 143.9 107.1 145.9 105 146.7 102.9 147.2 103.6 146.7 106.1 145.1 108.6" style="fill: #e8f3ff; stroke-width: 0px;"/>
              </g>
            </g>
            <g>
              <polygon points="233.4 138.6 232.7 137.9 229.5 137.5 229.8 138.3 233 139.2 233.4 138.6" style="fill: #573711; stroke-width: 0px;"/>
              <polygon points="233.6 137.2 232.3 136.1 230.8 136.1 230.8 136.9 233 137.6 233.6 137.2" style="fill: #d1d1d1; stroke-width: 0px;"/>
              <polygon points="233.6 137.2 235.1 137.5 237.8 136.8 237.4 136.2 235.7 136.1 236.7 134.8 237.5 134.6 238.5 134.6 238.7 134.1 236.8 133.3 234.9 133.3 231.7 135 231 136.3 231 137 233 137.7 233.6 137.2" style="fill: #f0c6b4; stroke-width: 0px;"/>
              <polygon points="239.3 133.4 239.2 136.7 241.1 136.8 244.6 135.5 244.2 133.1 240.2 132.8 239.3 133.4" style="fill: #f0c6b4; stroke-width: 0px;"/>
              <polygon points="239.1 127.6 238.2 127.7 238.6 128.9 239.2 128.5 239.1 127.6" style="fill: #c7a495; stroke-width: 0px;"/>
              <polygon points="240.1 126.4 238.6 127.7 238.6 129 238.2 129.2 237.5 131.8 239.5 133.9 240.2 133.7 241 134.4 242.3 133.8 243.5 128.1 240.1 126.4" style="fill: #f0c6b4; stroke-width: 0px;"/>
              <polygon points="233.1 139.3 233.6 137.2 232.7 137.1 231.4 136.6 230.8 136.1 229.9 138.3 233.1 139.3" style="fill: #fff; stroke-width: 0px;"/>
              <path d="m229.1,198.5l5.8,3.4h8.2l5.8-3.4v-4.7l-5.8-3.4h-8.2l-5.8,3.4v4.7h0Z" style="isolation: isolate; opacity: .3; stroke-width: 0px;"/>
              <polygon points="246.8 196.3 246.8 196.6 245 196.9 243.5 195 243.2 194 241.7 192.9 241.8 189.9 246.8 196.3" style="fill: #a39685; stroke-width: 0px;"/>
              <polygon points="231.2 197.2 231.2 197.5 232.6 198.7 236.8 199.2 240.7 200 241.7 199.2 241.7 198.9 231.2 197.2" style="fill: #a39685; stroke-width: 0px;"/>
              <polygon points="247 193.7 246.8 196.3 245 196.6 243.5 194.7 243.2 193.7 241.7 192.6 241.8 189.6 244.8 190.1 247 193.7" style="fill: #0a0808; stroke-width: 0px;"/>
              <polygon points="236.3 194.7 231.2 195.7 231.2 197.2 232.6 198.4 236.8 198.9 240.7 199.8 241.7 198.9 241.7 196.8 238.9 194.7 236.3 194.7" style="fill: #0a0808; stroke-width: 0px;"/>
              <polygon points="248.3 162.7 247.8 176.6 248.6 181.5 247.5 193.9 244.6 193.9 242.9 192.3 242.3 190.7 242.6 178.9 241.3 172.9 241 162.3 247.2 160.9 248.3 162.7" style="fill: #573711; stroke-width: 0px;"/>
              <polygon points="247 163.3 242.9 165.3 242 179.8 242.8 182.9 242 196.9 239.5 197.4 237 196.7 236.2 194.7 236.2 178.2 233.7 163.3 236.5 155.8 247.5 156.9 247 163.3" style="fill: #7b4a19; stroke-width: 0px;"/>
              <polygon points="232.3 151.1 231.1 148.7 231.7 147 234 147.4 234.2 150.4 232.3 151.1" style="fill: #d1d1d1; stroke-width: 0px;"/>
              <rect x="232.1" y="147.4" width="1.5" height="2.7" style="fill: #c7a495; stroke-width: 0px;"/>
              <polygon points="230.4 150.5 232.6 150.7 232.9 149.9 232.6 147.8 228.7 147.8 229.1 149.4 230.4 150.5" style="fill: #f0c6b4; stroke-width: 0px;"/>
              <polygon points="232.9 148 233.1 149.3 232.3 151.1 234.2 151.4 235 148.7 234.3 147.4 232.9 148" style="fill: #fff; stroke-width: 0px;"/>
              <polygon points="245.3 135.5 249.3 135.2 250.9 137.7 250.1 140.8 248.1 141.9 244.5 139 245.3 135.5" style="fill: #944e39; stroke-width: 0px;"/>
              <polygon points="235.5 140.6 239 137.7 239.5 137.2 244.5 135.8 245.3 135.5 248.3 136.1 250.1 140.8 248.4 152.1 249.1 163.1 246.1 165.1 244.8 158.9 244.7 165.6 241.4 166.2 236.4 165.6 233.3 162.9 233.9 153.1 233.6 146.4 235.5 140.6" style="fill: #b57355; stroke-width: 0px;"/>
              <polygon points="245.3 135.5 244.8 134.4 243.5 135.5 240.6 136.2 238.7 135.8 238.5 137.7 240.7 137.7 244 137.1 245.3 135.5" style="fill: #fff; stroke-width: 0px;"/>
              <polygon points="242.3 124.8 240.4 125.6 239.6 127.4 240.1 127.1 240.2 128.1 239.6 129.3 240 130.1 239.8 131.3 240 131.5 240.8 131.5 241.3 132.3 241.4 133.4 241 134.4 241.7 135 242.8 135.4 244.1 135.1 245.2 134.6 247.4 132.7 248.1 130.1 247.5 127.1 247.3 127.7 246.1 125.7 245.9 126.1 244 124.8 242.3 124.8" style="fill: #211a1a; stroke-width: 0px;"/>
              <polygon points="239 144.4 238.2 141.3 235.5 140.6 232.6 142.5 233.4 138.6 232.2 138.5 230.5 138 229.5 137.5 227.5 147.1 229.5 149 236.7 147.4 239 144.4" style="fill: #944e39; stroke-width: 0px;"/>
              <polygon points="232.6 142.5 229.1 145.4 229.8 143.9 232.6 142.5" style="fill: #693121; stroke-width: 0px;"/>
              <polygon points="230.2 149.5 229.9 148.3 228.5 146.4 226.8 147.1 227.5 149 230.4 150.4 230.2 149.5" style="fill: #f0c6b4; stroke-width: 0px;"/>
            </g>
            <g>
              <g>
                <path d="m91,194.9l6.5,3.8h9.2l6.5-3.8v-5.3l-6.5-3.8h-9.2l-6.5,3.8v5.3Z" style="isolation: isolate; opacity: .3; stroke-width: 0px;"/>
                <polygon points="98.1 186.1 100.3 186.8 100.3 187.3 99.4 188.9 97.6 190.1 96.1 192.6 94.1 192.5 93.9 191.7 93.9 191.2 98.1 186.1" style="fill: #0a0808; stroke-width: 0px;"/>
                <polygon points="98.1 185.7 100.1 185.8 100.3 186.8 99.4 188.4 97.6 189.7 96.1 192.2 94.1 192 93.9 191.2 94.2 189.2 98.1 185.7" style="fill: #362c29; stroke-width: 0px;"/>
                <polygon points="101.3 165.1 99.7 172.5 98.8 174.9 98.3 187.1 97.7 188.9 95.9 189.8 93.9 189.4 93.2 176.5 94.3 172.3 93.5 158.6 95.5 154.8 101.3 159.1 101.3 165.1" style="fill: #17435c; stroke-width: 0px;"/>
                <polygon points="111.9 194.2 111.9 194.5 109.4 196.2 105.7 196.4 102 197.1 100.9 196 100.9 195.6 111.9 194.2" style="fill: #0a0808; stroke-width: 0px;"/>
                <polygon points="106.7 191.8 111.5 192.7 111.9 194.2 109.4 195.9 105.7 196.1 102 196.7 100.9 195.6 101.4 193.2 103.9 192.1 106.7 191.8" style="fill: #362c29; stroke-width: 0px;"/>
                <polygon points="108.6 161 107.1 175.2 106.9 191.7 106.1 193.5 103.2 194.4 101.2 193.1 100.6 180.9 101.5 177.1 99.4 161.5 95.5 159.6 96.3 153.5 106.3 155.9 108.6 161" style="fill: #29617d; stroke-width: 0px;"/>
                <polygon points="100.2 131.1 100.3 134.5 98.4 134.6 94.8 133.3 95.2 130.8 99.3 130.5 100.2 131.1" style="fill: #f0c6b4; stroke-width: 0px;"/>
                <polygon points="92.6 147.9 93.1 148.4 95.1 148.3 95.1 146.4 92.8 146 92.6 147.9" style="fill: #f0c6b4; stroke-width: 0px;"/>
                <polygon points="90.4 146.9 92.4 148.2 93.5 147.9 94.2 146.6 94.1 145.7 92.4 144.5 90.4 146.9" style="fill: #fff; stroke-width: 0px;"/>
                <polygon points="93.4 132.9 89.7 132.4 81.3 139.2 81.9 142.5 90.8 148.3 92.2 147.9 93.2 146.1 93.1 144.8 87.6 140.9 91.3 138.5 93.4 132.9" style="fill: #29617d; stroke-width: 0px;"/>
                <polygon points="94.2 133 96 134.3 99.2 135.1 101.2 135 107.1 139.8 106.8 146.1 108.5 153 108.8 160.7 107.1 162.5 102.6 163.3 98.3 161.5 98 155.5 96.7 160.7 93.7 159.2 93.2 157.6 94.9 148.7 90.2 139.6 89.9 135.2 91.6 133.4 93.4 132.9 94.2 133" style="fill: #4290b8; stroke-width: 0px;"/>
                <polygon points="95.7 149.3 100.5 151.3 100.3 152.1 95.7 149.3" style="fill: #29617d; stroke-width: 0px;"/>
                <polygon points="100.4 125.2 101.4 125.4 101 126.6 100.3 126.2 100.4 125.2" style="fill: #c7a495; stroke-width: 0px;"/>
                <polygon points="99.5 124 101 125.4 101 126.7 101.4 126.9 102.1 129.6 100.1 131.7 99.4 131.5 98.6 132.1 97.2 131.6 96 125.8 99.5 124" style="fill: #f0c6b4; stroke-width: 0px;"/>
                <polygon points="101.4 135.2 101.1 133.6 99.1 133.9 96.1 133.2 94.4 132.1 94 133.4 95.8 134.7 99.1 135.3 101.4 135.2" style="fill: #fff; stroke-width: 0px;"/>
                <polygon points="97.2 122.4 99.2 123.2 99.9 125.1 99.4 124.7 99.3 125.7 99.9 127 99.5 127.8 99.8 129 99.5 129.3 98.8 129.3 98.2 130.1 98.2 131.2 98.6 132.1 97.8 132.8 96.7 133.2 95.4 132.9 94.2 132.4 92 130.4 91.3 127.8 91.8 124.7 92.1 125.3 93.3 123.3 93.5 123.7 95.5 122.4 97.2 122.4" style="fill: #a16739; stroke-width: 0px;"/>
                <polygon points="106 155.1 104.3 154.5 103.2 152.2 103.3 150.7 104.4 150.2 107.1 153 106 155.1" style="fill: #17435c; stroke-width: 0px;"/>
                <polygon points="101.1 139.3 103.6 138.2 105.6 139.7 109.1 152 108.7 154.2 106 155.1 104.1 153 100.2 142.1 101.1 139.3" style="fill: #29617d; stroke-width: 0px;"/>
                <polygon points="87.6 140.9 86 141.5 83.3 141.5 86.1 141.9 87.6 140.9" style="fill: #17435c; stroke-width: 0px;"/>
              </g>
              <g>
                <polygon points="110.9 201.9 125 193.8 122 192 107.9 200.1 110.9 201.9" style="isolation: isolate; opacity: .3; stroke-width: 0px;"/>
                <polygon points="111.1 201.4 124.4 193.7 124.4 186.7 109.9 193.7 111.1 201.4" style="fill: #573711; stroke-width: 0px;"/>
                <polygon points="111.1 197.9 124.4 190.2 124.4 186.7 111.1 194.4 111.1 197.9" style="isolation: isolate; opacity: .3; stroke-width: 0px;"/>
                <polygon points="111.3 191.4 124.6 182.7 123.8 181.2 109.2 188.2 111.3 191.4" style="fill: #a16739; stroke-width: 0px;"/>
                <polygon points="111.3 197.5 124.6 189.8 124.6 182.7 111.3 190.4 110.8 193.3 111.3 197.5" style="fill: #573711; stroke-width: 0px;"/>
                <path d="m108.5,188.9v11l.8.7,1.1.6.8.2v-11l-.8-1.3-1.1-.6-.8.4h0Z" style="fill: #7b4a19; stroke-width: 0px;"/>
                <polygon points="111.1 197.3 109.9 192 109.2 189.6 109.2 189.1 108.5 188.9 109.2 188.2 110.4 188.9 111.3 190.4 111.3 197.5 111.1 197.3" style="fill: #7b4a19; stroke-width: 0px;"/>
                <polygon points="110.4 188.9 123.8 181.2 122.5 180.5 109.2 188.2 110.4 188.9" style="fill: #b87139; stroke-width: 0px;"/>
                <g>
                  <g>
                    <polygon points="121.6 189.8 121.6 191.7 123.1 190.9 123.1 188.9 121.6 189.8" style="fill: #bfa69d; stroke-width: 0px;"/>
                    <polygon points="121.4 189.7 121.4 191.6 121.6 191.7 121.6 189.8 121.4 189.7" style="fill: #e2d5c5; stroke-width: 0px;"/>
                    <polygon points="121.4 189.7 122.9 188.8 123.1 188.9 121.6 189.8 121.4 189.7" style="fill: #f7f2e8; stroke-width: 0px;"/>
                  </g>
                  <g>
                    <polygon points="121.9 190.3 122.1 190.6 122.1 190.4 122.3 190.1 122 190.1 121.9 190.3" style="fill: #e6e1dd; stroke-width: 0px;"/>
                    <polygon points="121.9 190.6 122.1 190.8 122.1 190.6 122.1 190.4 121.9 190.3 121.9 190.6" style="fill: #e2d5c5; stroke-width: 0px;"/>
                    <path d="m122.1,190.4v.3l.2.1.7-.4.2-.3v-.3l-.2-.1-.7.4-.2.3Z" style="fill: #bfa69d; stroke-width: 0px;"/>
                    <polygon points="122.2 190.2 122.9 189.8 122.7 189.7 122 190.1 122.2 190.2" style="fill: #f7f2e8; stroke-width: 0px;"/>
                  </g>
                </g>
                <g>
                  <g>
                    <polygon points="113.2 194.6 113.2 196.6 114.7 195.7 114.7 193.8 113.2 194.6" style="fill: #bfa69d; stroke-width: 0px;"/>
                    <polygon points="113 194.5 113 196.5 113.2 196.6 113.2 194.6 113 194.5" style="fill: #e2d5c5; stroke-width: 0px;"/>
                    <polygon points="113 194.5 114.5 193.7 114.7 193.8 113.2 194.6 113 194.5" style="fill: #f7f2e8; stroke-width: 0px;"/>
                  </g>
                  <g>
                    <polygon points="113.5 195.2 113.7 195.4 113.8 195.2 113.9 195 113.6 194.9 113.5 195.2" style="fill: #e6e1dd; stroke-width: 0px;"/>
                    <polygon points="113.5 195.5 113.7 195.6 113.7 195.4 113.7 195.3 113.5 195.2 113.5 195.5" style="fill: #e2d5c5; stroke-width: 0px;"/>
                    <path d="m113.7,195.3v.3l.2.1.7-.4.2-.3v-.3l-.2-.1-.7.4-.2.3h0Z" style="fill: #bfa69d; stroke-width: 0px;"/>
                    <polygon points="113.8 195 114.5 194.6 114.3 194.5 113.6 194.9 113.8 195" style="fill: #f7f2e8; stroke-width: 0px;"/>
                  </g>
                </g>
                <g>
                  <g>
                    <polygon points="118.8 183.2 119.2 183.2 119.4 183 119.4 182.8 119.2 182.7 118.8 182.7 118.6 182.8 118.6 183 118.8 183.2" style="fill: #e6e1dd; stroke-width: 0px;"/>
                    <polygon points="119.2 183.2 119.4 183 119.4 183.3 119.2 183.5 119.1 183.2 119.2 183.2" style="fill: #a39c95; stroke-width: 0px;"/>
                    <polygon points="118.8 183.2 119.2 183.2 119.2 183.5 118.8 183.5 118.8 183.2" style="fill: #bfb8af; stroke-width: 0px;"/>
                    <polygon points="118.6 183 118.8 183.2 118.8 183.5 118.6 183.3 118.6 183" style="fill: #d8d1c7; stroke-width: 0px;"/>
                  </g>
                  <g>
                    <polygon points="118.9 181.5 119.1 181.5 119.2 181.5 119.2 181.3 119.1 181.3 118.9 181.3 118.8 181.3 118.8 181.5 118.9 181.5" style="fill: #785b56; stroke-width: 0px;"/>
                    <polygon points="119.1 181.5 119.2 181.5 119.2 183 119.1 183 119.1 181.5" style="fill: #574943; stroke-width: 0px;"/>
                    <polygon points="118.9 181.5 119.1 181.5 119.1 183 118.9 183 118.9 181.5" style="fill: #362c29; stroke-width: 0px;"/>
                    <polygon points="118.8 181.5 118.9 181.5 118.9 183 118.8 183 118.8 181.5" style="fill: #0a0808; stroke-width: 0px;"/>
                  </g>
                  <g>
                    <polygon points="113.7 186.1 114.1 186.1 114.3 186 114.3 185.8 114.1 185.6 113.7 185.6 113.5 185.8 113.5 186 113.7 186.1" style="fill: #e6e1dd; stroke-width: 0px;"/>
                    <polygon points="114.1 186.1 114.3 186 114.3 186.3 114.1 186.4 114 186.1 114.1 186.1" style="fill: #a39c95; stroke-width: 0px;"/>
                    <polygon points="113.7 186.1 114.1 186.1 114.1 186.4 113.7 186.4 113.7 186.1" style="fill: #bfb8af; stroke-width: 0px;"/>
                    <polygon points="113.5 186 113.7 186.1 113.7 186.4 113.5 186.3 113.5 186" style="fill: #d8d1c7; stroke-width: 0px;"/>
                  </g>
                  <g>
                    <polygon points="113.8 184.5 114 184.5 114.1 184.4 114.1 184.3 114 184.2 113.8 184.2 113.6 184.3 113.6 184.4 113.8 184.5" style="fill: #785b56; stroke-width: 0px;"/>
                    <polygon points="114 184.5 114.1 184.4 114.1 185.9 114 186 114 184.5" style="fill: #574943; stroke-width: 0px;"/>
                    <polygon points="113.8 184.5 114 184.5 114 186 113.8 186 113.8 184.5" style="fill: #362c29; stroke-width: 0px;"/>
                    <polygon points="113.6 184.4 113.8 184.5 113.8 186 113.6 185.9 113.6 184.4" style="fill: #0a0808; stroke-width: 0px;"/>
                  </g>
                  <g>
                    <polygon points="119.2 181 119 180.6 118.6 180.3 118.3 180.5 118.3 180.9 118.6 181.4 119 181.6 119.2 181.5 119.2 181" style="fill: #bfb8af; stroke-width: 0px;"/>
                    <polygon points="119 180.6 118.6 180.3 119 180.1 119.4 180.3 119 180.6" style="fill: #e6e1dd; stroke-width: 0px;"/>
                    <polygon points="119.2 181 119 180.6 119.4 180.3 119.7 180.8 119.3 181.1 119.2 181" style="fill: #d8d1c7; stroke-width: 0px;"/>
                    <polygon points="119.2 181.5 119.2 181 119.7 180.8 119.7 181.2 119.2 181.5" style="fill: #a39c95; stroke-width: 0px;"/>
                  </g>
                  <g>
                    <polygon points="114.4 183.8 114.2 183.4 113.9 183.2 113.7 183.4 113.7 183.7 113.9 184 114.2 184.2 114.4 184.1 114.4 183.8" style="fill: #785b56; stroke-width: 0px;"/>
                    <polygon points="114.2 183.4 113.9 183.2 118.6 180.5 118.9 180.7 114.2 183.4" style="fill: #836e69; stroke-width: 0px;"/>
                    <polygon points="114.4 183.8 114.2 183.4 118.9 180.7 119.1 181 114.4 183.8" style="fill: #685750; stroke-width: 0px;"/>
                    <polygon points="114.4 184.1 114.4 183.8 119.1 181 119.1 181.4 114.4 184.1" style="fill: #403531; stroke-width: 0px;"/>
                  </g>
                  <g>
                    <polygon points="114.1 184 113.9 183.5 113.5 183.3 113.2 183.5 113.2 183.9 113.5 184.4 113.9 184.6 114.1 184.4 114.1 184" style="fill: #bfb8af; stroke-width: 0px;"/>
                    <polygon points="113.9 183.5 113.5 183.3 113.9 183 114.3 183.3 113.9 183.5" style="fill: #e6e1dd; stroke-width: 0px;"/>
                    <polygon points="114.1 184 113.9 183.5 114.3 183.3 114.6 183.7 114.2 184 114.1 184" style="fill: #d8d1c7; stroke-width: 0px;"/>
                    <polygon points="114.1 184.4 114.1 184 114.6 183.7 114.6 184.2 114.1 184.4" style="fill: #a39c95; stroke-width: 0px;"/>
                  </g>
                </g>
              </g>
            </g>
            <g>
              <polygon points="242.8 227.3 188.4 258.7 186.8 259.5 186.9 259.8 184.2 261.4 182.8 262.2 183.5 263.8 185.9 265.2 188.6 265.6 190.1 264.8 192.8 263.2 193.2 263.2 194.7 262.4 249.2 231 257.8 222.4 242.8 227.3" style="isolation: isolate; opacity: .3; stroke-width: 0px;"/>
              <g>
                <polygon points="254.4 220.9 253.7 220.1 257.8 219 254.4 220.9" style="fill: #836e69; stroke-width: 0px;"/>
                <polygon points="254.8 222 254.5 221.1 257.8 219 254.8 222" style="fill: #403531; stroke-width: 0px;"/>
                <polygon points="254.8 221.3 254.5 221.3 254.4 220.5 257.8 219 254.8 221.3" style="fill: #685750; stroke-width: 0px;"/>
                <polygon points="247.8 229 244.2 226.3 244.1 222.6 248 222 254.4 220.5 254.8 221.3 250 225.6 247.8 229" style="fill: #efc58b; stroke-width: 0px;"/>
                <polygon points="247.8 229 247.8 226.5 254.8 221.3 254.8 222 247.8 229" style="fill: #c79d5c; stroke-width: 0px;"/>
                <polygon points="246.3 223.9 244.1 222.6 253.7 220.1 254.4 220.5 246.3 223.9" style="fill: #f7e6bb; stroke-width: 0px;"/>
              </g>
              <g>
                <polygon points="202.5 252.7 201 250 198.8 248.8 197.3 249.7 197.3 252.2 198.8 254.8 201 256.1 202.5 255.2 202.5 252.7" style="fill: #785b56; stroke-width: 0px;"/>
                <polygon points="201 250 198.8 248.8 244.1 222.6 246.3 223.9 201.3 250.1 201 250" style="fill: #a4837e; stroke-width: 0px;"/>
                <polygon points="202.5 252.7 201 250 246.3 223.9 247.8 226.5 202.8 252.8 202.5 252.7" style="fill: #7d5551; stroke-width: 0px;"/>
                <polygon points="202.5 255.2 202.5 252.7 247.8 226.5 247.8 229 202.5 255.2" style="fill: #573b38; stroke-width: 0px;"/>
              </g>
              <g>
                <polygon points="193.5 257.9 192 255.3 189.8 254 188.3 254.9 188.3 257.4 189.8 260 192 261.3 193.5 260.4 193.5 257.9" style="fill: #d8d1c7; stroke-width: 0px;"/>
                <polygon points="192 255.3 189.8 254 198.8 248.8 201 250 192.2 255.3 192 255.3" style="fill: #e6e1dd; stroke-width: 0px;"/>
                <polygon points="193.5 257.9 192 255.3 201 250 202.5 252.7 193.8 258 193.5 257.9" style="fill: #d1d1d1; stroke-width: 0px;"/>
                <polygon points="193.5 260.4 193.5 257.9 202.5 252.7 202.5 255.2 193.5 260.4" style="fill: #a39c95; stroke-width: 0px;"/>
              </g>
              <g>
                <polygon points="188.9 260.4 187.5 258 185.5 256.8 184.1 257.6 184.1 259.9 185.5 262.4 187.5 263.5 188.9 262.7 188.9 260.4" style="fill: #a6495d; stroke-width: 0px;"/>
                <polygon points="187.5 258 185.5 256.8 189.7 254.4 191.7 255.6 187.8 258 187.5 258" style="fill: #fca48f; stroke-width: 0px;"/>
                <polygon points="188.9 260.4 187.5 258 191.7 255.6 193.1 258 189.2 260.5 188.9 260.4" style="fill: #d57a70; stroke-width: 0px;"/>
                <polygon points="188.9 262.7 188.9 260.4 193.1 258 193.1 260.3 188.9 262.7" style="fill: #c26a5e; stroke-width: 0px;"/>
              </g>
              <g>
                <polygon points="208.8 245.5 206.6 244.3 209.9 242.4 212.1 243.6 209.1 245.6 208.8 245.5" style="fill: #fbe979; stroke-width: 0px;"/>
                <polygon points="210.3 248.2 208.8 245.5 212.1 243.6 213.6 246.3 210.6 248.3 210.3 248.2" style="fill: #e3bd5e; stroke-width: 0px;"/>
                <polygon points="210.3 250.7 210.3 248.2 213.6 246.3 213.6 248.8 210.3 250.7" style="fill: #cc934c; stroke-width: 0px;"/>
              </g>
            </g>
            <g>
              <polygon points="220.6 256 222.7 254.8 253.8 236.9 254.6 237 255.4 236.5 290.2 216.5 290.7 216.5 302 212.8 302.5 212.9 308.2 210.4 303.9 213.7 304.1 214 297.6 220.5 297.7 220.8 263 240.8 263 240.8 262.1 241.3 262.4 241.8 231.2 259.8 231.2 259.8 229.2 261 217.8 264.5 216.2 264.3 214.8 263.5 214.4 262.6 220.6 256" style="isolation: isolate; opacity: .3; stroke-width: 0px;"/>
              <g>
                <polygon points="302.5 210.1 302 209.5 308.1 207 302.5 210.1" style="fill: #836e69; stroke-width: 0px;"/>
                <polygon points="302.9 211.1 302.6 210.3 308.1 207 302.9 211.1" style="fill: #403531; stroke-width: 0px;"/>
                <polygon points="302.9 210.5 302.6 210.5 302.5 209.8 308.1 207 302.9 210.5" style="fill: #685750; stroke-width: 0px;"/>
                <polygon points="295.7 219 291.7 215.9 291.5 211.8 295.8 211.1 303 209.4 303.6 210.3 298.1 215.1 295.7 219" style="fill: #d1d1d1; stroke-width: 0px;"/>
                <polygon points="295.7 219 295.7 216.2 303.6 210.3 303.6 211.1 295.7 219" style="fill: #adadad; stroke-width: 0px;"/>
                <polygon points="294 213.2 291.5 211.8 302.3 209 303 209.4 294 213.2" style="fill: #e6e1dd; stroke-width: 0px;"/>
              </g>
              <g>
                <polygon points="258.9 237.5 257.1 234.4 254.6 233 252.7 234 252.7 236.9 254.6 240 257.1 241.5 258.9 240.5 258.9 237.5" style="fill: #785b56; stroke-width: 0px;"/>
                <polygon points="257.1 234.4 254.6 233 291.7 211.5 294.3 212.9 276.8 224.6 257.1 234.4" style="fill: #fa5c52; stroke-width: 0px;"/>
                <polygon points="258.9 237.5 257.1 234.4 294.3 212.9 296.1 216.1 278.1 227.9 258.9 237.5" style="fill: #c84030; stroke-width: 0px;"/>
                <polygon points="258.9 240.5 258.9 237.5 296.1 216.1 296.1 219 258.9 240.5" style="fill: #991f16; stroke-width: 0px;"/>
                <polygon points="258.4 240.7 258.4 237.8 256.6 234.7 254.1 233.2 257 231.6 259.5 233 261.3 236.1 261.3 239.1 258.4 240.7" style="isolation: isolate; opacity: .3; stroke-width: 0px;"/>
              </g>
              <g>
                <polygon points="229.4 254.9 227.3 251.3 224.4 249.7 222.4 250.8 222.4 254.2 224.4 257.8 227.3 259.4 229.4 258.2 229.4 254.9" style="fill: #d1d1d1; stroke-width: 0px;"/>
                <polygon points="227.3 251.3 224.4 249.7 255.5 231.7 258.4 233.4 227.7 251.4 227.3 251.3" style="fill: #fa5c52; stroke-width: 0px;"/>
                <polygon points="229.4 254.9 227.3 251.3 258.4 233.4 260.5 236.9 229.7 255 229.4 254.9" style="fill: #c84030; stroke-width: 0px;"/>
                <polygon points="229.4 258.2 229.4 254.9 260.5 236.9 260.5 240.3 229.4 258.2" style="fill: #991f16; stroke-width: 0px;"/>
              </g>
              <g>
                <polygon points="224.4 249.7 222.4 250.8 215.1 258.6 215.9 259.9 225.5 253.9 224.4 249.7" style="fill: #d1d1d1; stroke-width: 0px;"/>
                <polygon points="229.4 258.2 227.3 259.4 217 261.9 216.2 260.5 226.2 255.2 229.4 258.2" style="fill: gray; stroke-width: 0px;"/>
                <polygon points="216.7 259.5 215.9 258.1 224.4 249.7 227.3 251.3 223.4 255.3 216.7 259.5" style="fill: #e6e1dd; stroke-width: 0px;"/>
                <polygon points="216.5 260.6 217 258.8 227.3 251.3 229.4 254.9 224.4 258.1 216.5 260.6" style="fill: #d1d1d1; stroke-width: 0px;"/>
                <polygon points="217.8 261.4 216.5 260.6 217.8 260.1 229.4 254.9 229.4 258.2 217.8 261.4" style="fill: #adadad; stroke-width: 0px;"/>
                <polygon points="217.8 260.1 217 258.8 215.9 258.1 215.1 258.6 215.1 259.9 215.9 261.2 217 261.9 217.8 261.4 217.8 260.1" style="fill: #f4efe9; stroke-width: 0px;"/>
              </g>
              <g>
                <polygon points="237.7 245.3 234.8 243.6 235.6 243.2 238.5 244.9 238.1 245.4 237.7 245.3" style="fill: #fbe979; stroke-width: 0px;"/>
                <polygon points="239.8 248.9 237.7 245.3 238.5 244.9 240.5 248.4 240.2 249 239.8 248.9" style="fill: #e3bd5e; stroke-width: 0px;"/>
                <polygon points="239.8 252.2 239.8 248.9 240.5 248.4 240.5 251.8 239.8 252.2" style="fill: #cc934c; stroke-width: 0px;"/>
              </g>
              <g>
                <polygon points="263.9 228.2 261.7 226.9 228.1 246.3 230.3 248 263.9 228.2" style="fill: #d1d1d1; stroke-width: 0px;"/>
                <polygon points="230.6 248.7 230.4 247.6 228.1 246.3 228.1 248 230.4 249.3 230.7 248.7 230.6 248.7" style="fill: #f4efe9; stroke-width: 0px;"/>
                <polygon points="263.9 228.2 230.4 247.6 230.4 249.3 230.8 249.1 230.8 247.9 264 228.7 263.9 228.2" style="fill: #adadad; stroke-width: 0px;"/>
              </g>
            </g>
          </g>
        </g>
        <g>
          <path d="m366.4,59.7c0,33-26.8,59.7-59.7,59.7s-59.7-26.7-59.7-59.7S273.8,0,306.7,0s59.7,26.8,59.7,59.7Z" style="fill: #d1b06f; stroke-width: 0px;"/>
          <polygon points="309 113.7 273.8 131.8 269.3 93.8 309 113.7" style="fill: #d1b06f; stroke-width: 0px;"/>
          <g>
            <g>
              <path d="m304.3,29.7v2.5h-19.1c-1.2,2.5-2.6,4.9-4.2,7.1v16.7h-2.5v-13.6c-1.2,1.3-2.6,2.5-4.1,3.5-.2-.7-.9-1.8-1.3-2.3,4-2.8,7.1-7,9.2-11.4h-8.4v-2.5h9.5c.7-1.8,1.4-3.6,1.9-5.4l2.7.7c-.5,1.6-1.1,3.2-1.7,4.8h18v-.1Zm-9.2,23.2h9.2v2.5h-21v-2.5h9.2v-9.8h-7.8v-2.5h7.8v-6.6h2.6v6.7h7.9v2.5h-7.9v9.7h0Z" style="fill: #fff; stroke-width: 0px;"/>
              <path d="m315.2,44.9c1.3-.6,2.6-1.1,3.9-1.6l.5,2.3c-3.7,1.7-7.6,3.5-10.6,4.8l-1-2.6c1.3-.5,3-1.2,4.8-1.9v-10.8h-4.2v-2.5h4.2v-7.9h2.5v7.9h3.7v2.5h-3.7v9.8h-.1Zm20.1,8.2c2,0,2.4-.9,2.6-5,.6.5,1.6.9,2.3,1-.4,4.8-1.2,6.3-4.9,6.3h-8.6c-4,0-5.1-.9-5.1-4.7v-11l-2.8,1.2-1-2.3,3.8-1.6v-9.5h2.5v8.4l4.7-2v-9.7h2.5v8.7l5.3-2.2,2,.7-.1.4c-.4,4.9-1,11.4-1.8,15.3l-2.1-.6c.6-3.2,1.1-8.4,1.3-12.8l-4.5,1.9v12.8h-2.5v-11.8l-4.7,2v12.1c0,1.9.5,2.3,2.7,2.3l8.4.1h0Z" style="fill: #fff; stroke-width: 0px;"/>
              <path d="m304.9,76v2h-5.9l-.3,3h-20.2l.4-3h-5.6v-2h5.8l.4-2.9h19.8l-.2,2.9h5.8Zm-12.1,17.4c4,1,8.2,2.3,10.9,3.2l-1.7,1.7c-2.5-.9-6.6-2.3-10.6-3.4l1.3-1.5h-7.7l2.1,1.4c-2.9,1.5-7.6,2.9-11.4,3.5-.3-.5-1-1.3-1.4-1.8,3.7-.6,8.4-1.8,10.6-3h-6.7v-11h22.2v10.9h-7.6Zm-15.8-18.6h-2.4v-5.6h13.4c-.4-.9-1-1.8-1.5-2.6l2.2-.7c.8.9,1.6,2.2,2.1,3.3h12.9v5.6h-2.5v-3.4h-24.2s0,3.4,0,3.4Zm3.6,10.8h17.1v-1.6h-17.1v1.6Zm0,3.1h17.1v-1.6h-17.1v1.6Zm0,3.1h17.1v-1.6h-17.1v1.6Zm.5-12.3h6.5c.1-.6.1-1.1.2-1.7h-6.5l-.2,1.7Zm.6-4.9l-.2,1.6h6.5l.1-1.6h-6.4Zm14.8,4.9l.1-1.7h-6.5c-.1.6-.1,1.2-.2,1.7h6.6Zm.4-4.9h-6.5l-.1,1.6h6.5c-.1,0,.1-1.6.1-1.6Z" style="fill: #fff; stroke-width: 0px;"/>
              <path d="m321,92.8c-4.4,1.2-9.1,2.3-12.5,3.2l-.5-2.4,1.6-.3v-11.6h2.1v11.1l2.2-.5v-13.9h-4.3v-10.7h10.3v10.7h-3.7v4.9h4.4v2.3h-4.4v6.1l4.6-1.1.2,2.2h0Zm-9.1-16.6h5.8v-6.2h-5.8v6.2Zm25.7,12.5c-1.4,1.8-3.3,3.5-5.5,4.8,1.4,1.4,3.1,2.2,4.9,2.3.8,0,1.2-1,1.5-3.3.5.4,1.4,1,1.9,1.2-.6,3.4-1.6,4.6-3.1,4.6-3-.1-5.4-1.4-7.4-3.5-2.9,1.5-6.2,2.6-9.5,3.5-.3-.5-.9-1.6-1.4-2.1,3.3-.7,6.6-1.7,9.4-3.1-1-1.4-1.8-3.1-2.4-4.9l-5.5.4-.2-2.1,5-.3c-.5-1.6-.8-3.2-1-5h2.4c.2,1.7.6,3.3,1.1,4.8l12.1-.8.2,2.1-11.5.8c.6,1.5,1.3,2.8,2.1,3.9,1.9-1.2,3.6-2.5,4.7-4l2.2.7h0Zm-.4-14.7c-1.3,1.3-3,2.5-4.9,3.5,1.4,1.2,2.9,2,4.6,2,.7,0,1.1-.9,1.3-2.9.5.5,1.3,1,1.9,1.2-.6,3.1-1.5,4.2-3,4.2-2.8-.1-5.1-1.3-7-3.4-2.7,1.2-5.6,2.1-8.3,2.8-.2-.5-.9-1.5-1.3-2,2.8-.6,5.7-1.4,8.3-2.4-.7-1.1-1.4-2.3-1.9-3.7l-5.9.4-.2-2.1,5.3-.4c-.5-1.6-.9-3.2-1.2-5h2.4c.3,1.7.7,3.4,1.2,4.8l10.9-.8.2,2.1-10.2.8c.5,1.1,1.1,2,1.7,2.9,1.6-.8,3.1-1.8,4.2-2.8l1.9.8h0Zm-2.8,11.1c-1.2-.9-3.4-2.2-5.1-2.9l1.5-1.3c1.8.7,4.1,1.9,5.2,2.8l-1.6,1.4h0Zm.8-14.8c-1.2-.9-3.4-2.1-5.1-2.8l1.6-1.3c1.8.7,3.9,1.8,5.1,2.6l-1.6,1.5Z" style="fill: #fff; stroke-width: 0px;"/>
            </g>
            <g>
              <path d="m304.3,29.7v2.5h-19.1c-1.2,2.5-2.6,4.9-4.2,7.1v16.7h-2.5v-13.6c-1.2,1.3-2.6,2.5-4.1,3.5-.2-.7-.9-1.8-1.3-2.3,4-2.8,7.1-7,9.2-11.4h-8.4v-2.5h9.5c.7-1.8,1.4-3.6,1.9-5.4l2.7.7c-.5,1.6-1.1,3.2-1.7,4.8h18v-.1Zm-9.2,23.2h9.2v2.5h-21v-2.5h9.2v-9.8h-7.8v-2.5h7.8v-6.6h2.6v6.7h7.9v2.5h-7.9v9.7h0Z" style="fill: #fff; stroke-width: 0px;"/>
              <path d="m315.2,44.9c1.3-.6,2.6-1.1,3.9-1.6l.5,2.3c-3.7,1.7-7.6,3.5-10.6,4.8l-1-2.6c1.3-.5,3-1.2,4.8-1.9v-10.8h-4.2v-2.5h4.2v-7.9h2.5v7.9h3.7v2.5h-3.7v9.8h-.1Zm20.1,8.2c2,0,2.4-.9,2.6-5,.6.5,1.6.9,2.3,1-.4,4.8-1.2,6.3-4.9,6.3h-8.6c-4,0-5.1-.9-5.1-4.7v-11l-2.8,1.2-1-2.3,3.8-1.6v-9.5h2.5v8.4l4.7-2v-9.7h2.5v8.7l5.3-2.2,2,.7-.1.4c-.4,4.9-1,11.4-1.8,15.3l-2.1-.6c.6-3.2,1.1-8.4,1.3-12.8l-4.5,1.9v12.8h-2.5v-11.8l-4.7,2v12.1c0,1.9.5,2.3,2.7,2.3l8.4.1h0Z" style="fill: #fff; stroke-width: 0px;"/>
              <path d="m304.9,76v2h-5.9l-.3,3h-20.2l.4-3h-5.6v-2h5.8l.4-2.9h19.8l-.2,2.9h5.8Zm-12.1,17.4c4,1,8.2,2.3,10.9,3.2l-1.7,1.7c-2.5-.9-6.6-2.3-10.6-3.4l1.3-1.5h-7.7l2.1,1.4c-2.9,1.5-7.6,2.9-11.4,3.5-.3-.5-1-1.3-1.4-1.8,3.7-.6,8.4-1.8,10.6-3h-6.7v-11h22.2v10.9h-7.6Zm-15.8-18.6h-2.4v-5.6h13.4c-.4-.9-1-1.8-1.5-2.6l2.2-.7c.8.9,1.6,2.2,2.1,3.3h12.9v5.6h-2.5v-3.4h-24.2s0,3.4,0,3.4Zm3.6,10.8h17.1v-1.6h-17.1v1.6Zm0,3.1h17.1v-1.6h-17.1v1.6Zm0,3.1h17.1v-1.6h-17.1v1.6Zm.5-12.3h6.5c.1-.6.1-1.1.2-1.7h-6.5l-.2,1.7Zm.6-4.9l-.2,1.6h6.5l.1-1.6h-6.4Zm14.8,4.9l.1-1.7h-6.5c-.1.6-.1,1.2-.2,1.7h6.6Zm.4-4.9h-6.5l-.1,1.6h6.5c-.1,0,.1-1.6.1-1.6Z" style="fill: #fff; stroke-width: 0px;"/>
              <path d="m321,92.8c-4.4,1.2-9.1,2.3-12.5,3.2l-.5-2.4,1.6-.3v-11.6h2.1v11.1l2.2-.5v-13.9h-4.3v-10.7h10.3v10.7h-3.7v4.9h4.4v2.3h-4.4v6.1l4.6-1.1.2,2.2h0Zm-9.1-16.6h5.8v-6.2h-5.8v6.2Zm25.7,12.5c-1.4,1.8-3.3,3.5-5.5,4.8,1.4,1.4,3.1,2.2,4.9,2.3.8,0,1.2-1,1.5-3.3.5.4,1.4,1,1.9,1.2-.6,3.4-1.6,4.6-3.1,4.6-3-.1-5.4-1.4-7.4-3.5-2.9,1.5-6.2,2.6-9.5,3.5-.3-.5-.9-1.6-1.4-2.1,3.3-.7,6.6-1.7,9.4-3.1-1-1.4-1.8-3.1-2.4-4.9l-5.5.4-.2-2.1,5-.3c-.5-1.6-.8-3.2-1-5h2.4c.2,1.7.6,3.3,1.1,4.8l12.1-.8.2,2.1-11.5.8c.6,1.5,1.3,2.8,2.1,3.9,1.9-1.2,3.6-2.5,4.7-4l2.2.7h0Zm-.4-14.7c-1.3,1.3-3,2.5-4.9,3.5,1.4,1.2,2.9,2,4.6,2,.7,0,1.1-.9,1.3-2.9.5.5,1.3,1,1.9,1.2-.6,3.1-1.5,4.2-3,4.2-2.8-.1-5.1-1.3-7-3.4-2.7,1.2-5.6,2.1-8.3,2.8-.2-.5-.9-1.5-1.3-2,2.8-.6,5.7-1.4,8.3-2.4-.7-1.1-1.4-2.3-1.9-3.7l-5.9.4-.2-2.1,5.3-.4c-.5-1.6-.9-3.2-1.2-5h2.4c.3,1.7.7,3.4,1.2,4.8l10.9-.8.2,2.1-10.2.8c.5,1.1,1.1,2,1.7,2.9,1.6-.8,3.1-1.8,4.2-2.8l1.9.8h0Zm-2.8,11.1c-1.2-.9-3.4-2.2-5.1-2.9l1.5-1.3c1.8.7,4.1,1.9,5.2,2.8l-1.6,1.4h0Zm.8-14.8c-1.2-.9-3.4-2.1-5.1-2.8l1.6-1.3c1.8.7,3.9,1.8,5.1,2.6l-1.6,1.5Z" style="fill: #fff; stroke-width: 0px;"/>
            </g>
          </g>
        </g>
      </g>
    </g>
  </g>
</svg>