<?xml version="1.0" encoding="UTF-8"?>
<svg xmlns="http://www.w3.org/2000/svg" width="250" height="338.41" xmlns:xlink="http://www.w3.org/1999/xlink" viewBox="0 0 250 338.41">
  <defs>
    <clipPath id="clippath">
      <circle cx="125" cy="125" r="92.41" style="fill: none; stroke-width: 0px;"/>
    </clipPath>
    <clipPath id="clippath-1">
      <path d="m98.2,287.73H-27.4v-137.5c0-69.1,56.5-125.6,125.6-125.6h181.7v137.6c0,69.1-56.5,125.6-125.6,125.6l-56.1-.1h0Z" style="fill: none; stroke-width: 0px;"/>
    </clipPath>
  </defs>
  <g style="isolation: isolate;">
    <g id="_圖層_2" data-name="圖層 2">
      <g id="_第一cut" data-name="第一cut">
        <g id="local_practice3">
          <path d="m250,125c0,69.04-125,202.6-125,202.6,0,0-125-133.56-125-202.6S55.96,0,125,0s125,55.96,125,125Z" style="fill: #efaf3f; stroke-width: 0px;"/>
          <circle cx="125" cy="125" r="101.2" style="fill: #e28a2b; stroke-width: 0px;"/>
          <path d="m198.25,331.62c0,3.75-33.69,6.79-75.25,6.79s-75.25-3.04-75.25-6.79,33.69-6.79,75.25-6.79,75.25,3.04,75.25,6.79Z" style="fill: #efaf3f; mix-blend-mode: multiply; opacity: .21; stroke-width: 0px;"/>
          <g>
            <path d="m218.32,125c0,51.54-41.78,93.32-93.32,93.32S31.68,176.54,31.68,125,73.46,31.68,125,31.68s93.32,41.78,93.32,93.32Z" style="fill: #baf1f4; stroke-width: 0px;"/>
            <g style="clip-path: url(#clippath);">
              <g>
                <g style="clip-path: url(#clippath-1);">
                  <rect x="-39.4" y="18.03" width="326" height="274" style="fill: #bff4f5; stroke-width: 0px;"/>
                </g>
                <g>
                  <path d="m212.3,150.51c0,5.69-.5,11.18-1.57,16.59-.21,1.28-.5,2.49-.78,3.7-1.21,5.2-2.85,10.18-4.98,14.95-.21.5-.43,1-.64,1.49l-.07.21c-.21.5-.5,1-.71,1.49-.28.57-.5,1.07-.78,1.64-.28.5-.5,1-.78,1.49-.21.43-.5.93-.78,1.35-.07.14-.14.28-.21.43-.21.43-.5.85-.71,1.28-.28.5-.57,1-.93,1.49-.78,1.35-1.64,2.63-2.56,3.92-.21.28-.43.64-.64.93h0c-.21.36-.5.64-.71,1-.5.71-1.07,1.42-1.64,2.14-.21.28-.43.5-.64.78-.28.36-.64.78-.93,1.14s-.57.64-.85,1c-.5.57-.93,1.14-1.42,1.64-.78.85-1.57,1.71-2.42,2.56-1.28,1.35-2.63,2.63-3.99,3.84-.43.36-.78.71-1.21,1.07l-.21.21h0c-2.85,2.49-5.91,4.84-9.11,6.98-1.57,1.07-3.2,2.06-4.91,3.06-3.63,2.06-7.4,3.92-11.39,5.48-3.84,1.49-7.83,2.78-11.89,3.77-.85.21-1.78.43-2.63.57-1.85.43-3.77.71-5.69,1-2.14.28-4.27.5-6.48.64-1.49.07-2.92.14-4.41.21h-1.57c-1.21,0-2.42,0-3.63-.07-6.69-.28-13.24-1.28-19.43-2.99-7.47-1.99-14.59-4.98-21.14-8.83-.64-.36-1.28-.78-1.92-1.14h0c-.57-.36-1.14-.71-1.71-1.07h0c-3.56-2.28-6.98-4.91-10.18-7.69h0c-1.57-1.35-3.13-2.85-4.63-4.34-2.28-2.28-4.41-4.7-6.48-7.26-1.49-1.85-2.92-3.84-4.27-5.84-.57-.93-1.21-1.78-1.78-2.7h0c-4.84-7.76-8.47-16.37-10.68-25.48-1.64-6.69-2.49-13.67-2.49-20.79,0-1.99.07-3.99.21-5.98,0-.36.07-.71.07-1.07h0c.21-2.35.43-4.63.85-6.9h0c.14-1,.36-1.92.5-2.92.43-2.21.93-4.34,1.49-6.48,3.92-14.31,11.39-27.19,21.35-37.58.85-.85,1.64-1.71,2.49-2.56.07-.07.21-.14.28-.28l.36-.36.36-.36c1.92-1.78,3.84-3.49,5.91-5.05.57-.5,1.21-.93,1.78-1.35,3.13-2.35,6.48-4.48,9.97-6.41.57-.28,1.07-.57,1.64-.85.36-.14.64-.36,1-.5.43-.21.93-.5,1.42-.71,1.42-.71,2.85-1.35,4.27-1.92,6.83-2.85,14.09-4.91,21.64-5.98h0c3.92-.57,7.97-.85,12.1-.93h2.78c.43,0,.85,0,1.21.07.36,0,.71,0,1.07.07,4.06.21,8.04.71,11.96,1.42,7.69,1.49,15.02,3.92,21.85,7.26,2.7,1.28,5.34,2.78,7.9,4.34h0c1.21.78,2.42,1.57,3.63,2.42.07,0,.07.07.14.07.36.28.71.5,1.07.78h0c.21.14.43.28.64.43.28.21.57.43.85.64,1.42,1.07,2.78,2.14,4.13,3.27.21.21.43.36.64.57,2.49,2.14,4.84,4.41,7.05,6.76,0,0,0,.07.07.07.14.21.36.36.5.57.14.14.28.36.43.5h0c.57.64,1.14,1.28,1.71,1.99,1.28,1.49,2.49,2.99,3.63,4.56,2.78,3.7,5.27,7.69,7.4,11.82.93,1.71,1.78,3.49,2.56,5.27v.07h0c3.84,8.76,6.26,18.29,7.05,28.26h0v.07c0,.43.07.78.07,1.21,0,.28.07.57.07.85h0c.43,1.64.5,3.27.5,4.98Z" style="fill: #75e6ea; stroke-width: 0px;"/>
                  <path d="m167.53,99.9s.5,9.54.5,10.53c0,.93,6.98,19.65,8.83,20,2.56,0,7.76-17.87,8.33-20.29.64-2.42,0-11.89,0-11.89,0,0-16.51,2.56-17.65,1.64Z" style="fill: #ffae91; stroke-width: 0px;"/>
                  <path d="m222.55,162.47c-2.63,7.69-7.55,8.47-9.54,8.47h0c-.5,0-.78-.07-.78-.07l-.5-1.42-.93-2.49-4.63-12.53-.5-1.28v1.78l-.28,13.95v.5l-.36,16.37c-3.77,8.61-8.9,16.59-15.09,23.49-8.19.28-28.19.07-29.61-.21-3.06-.64-11.6-16.09-11.6-16.09l-.71-34.52-.07-5.2-.14.36-6.41,17.3s-7.05,1.28-10.39-8.47c-3.35-9.75,2.85-31.89,10.04-41.14,6.34-8.19,21.43-11.75,24.7-12.46.43-.07.64-.14.64-.14l.43-1.57.64-2.42s.14,0,.28.07c.93.21,3.7.85,5.69,1.99,2.35,1.42,2.63,6.19,2.63,6.19v.43l-.07,1.71.64,12.53.07,1.14.21-2.85.71-10.82-.07-1.71v-.43s.28-4.84,2.63-6.19c1.85-1.07,4.34-1.71,5.41-1.99.36-.07.5-.14.5-.14l.64,2.42.43,1.57s.21.07.64.14c1.78.36,7.05,1.64,12.53,3.99,1.57.64,3.06,1.42,4.56,2.28h.07c.28.14.5.28.78.43,2.63,1.57,5.05,3.49,6.83,5.77,7.05,9.4,13.31,31.6,9.97,41.29Z" style="fill: #ff941b; stroke-width: 0px;"/>
                  <g>
                    <path d="m156.92,96.55c-6.12-4.63-6.05-12.03-3.27-13.95,5.55-3.77,18.79-4.27,28.12-3.92,9.32.43,16.73.57,19.15,5.41,2.42,4.84-.93,12.03-8.83,15.3-10.68,4.41-29.04,1.78-35.16-2.85Z" style="fill: #ff941b; stroke-width: 0px;"/>
                    <path d="m156.92,96.55c-6.12-4.63-6.05-12.03-3.27-13.95,5.55-3.77,18.79-4.27,28.12-3.92,9.32.43,16.73.57,19.15,5.41,2.42,4.84-.93,12.03-8.83,15.3-10.68,4.41-29.04,1.78-35.16-2.85Z" style="fill: #e4cec3; stroke-width: 0px;"/>
                    <g>
                      <g>
                        <g>
                          <path d="m190.16,87.87c-.14,1.57-.43,3.2-.85,4.77-1.42,5.48-4.34,10.46-8.61,12.1-5.48,2.14-11.96-.36-15.3-5.98-.85-1.42-1.42-3.63-1.71-6.12-.93-7.05-.07-16.16-.07-16.16,1.78-2.14,25.91-.71,25.91-.71,0,0,1.35,4.91.64,12.1Z" style="fill: #ffae91; stroke-width: 0px;"/>
                          <g>
                            <path d="m164.25,89.93s-1.78-4.06-3.49-3.92-1.78,3.92-.28,6.05c1.42,2.14,4.48,2.85,4.84,2.42s-1.07-4.56-1.07-4.56Z" style="fill: #ffae91; stroke-width: 0px;"/>
                            <path d="m188.74,89.93s1.78-4.06,3.49-3.92c1.78.14,1.78,3.92.28,6.05-1.42,2.14-4.48,2.85-4.84,2.42-.36-.5,1.07-4.56,1.07-4.56Z" style="fill: #ffae91; stroke-width: 0px;"/>
                          </g>
                          <path d="m189.31,92.57c-1.42,5.48-4.34,10.46-8.61,12.1-5.48,2.14-11.96-.36-15.3-5.98-.85-1.42-1.42-3.63-1.71-6.12,2.14-1.07,9.11-4.34,13.1-4.06,3.92.36,10.11,2.35,12.53,4.06Z" style="fill: #fff; stroke-width: 0px;"/>
                          <path d="m165.32,94.2c1-.5,1.92-1,2.99-1.42.5-.21,1-.36,1.49-.57.21-.07.5-.14.71-.21.21-.07.5-.07.57-.36,0-.07,0-.14-.07-.21-.21-.14-.43,0-.64.07-.28.07-.57.21-.85.28-.5.21-1,.36-1.49.57-1,.43-2.06.85-3.06,1.28-.21.21.07.71.36.57h0Z" style="fill: #a3cdda; stroke-width: 0px;"/>
                          <path d="m165.75,97.55c.71.28,1.35.64,2.06.93.36.14.71.28,1.07.36.14.07.36.14.57.14.14.07.36.07.5,0,.07-.07.07-.14.07-.21-.07-.14-.21-.21-.43-.21-.14-.07-.36-.14-.5-.21-.36-.14-.71-.28-1-.43-.64-.28-1.28-.57-1.99-.85-.14-.07-.28-.07-.43.14-.07.07-.07.28.07.36h0Z" style="fill: #a3cdda; stroke-width: 0px;"/>
                          <path d="m165.68,95.91c.36-.07.78-.14,1.14-.21.21,0,.5-.07.71-.07.14-.07.36-.14.5-.21.07-.07.07-.28-.07-.21h-.5c-.21,0-.43.07-.71.07-.36.07-.78.07-1.21.21-.28.07-.14.5.14.43h0Z" style="fill: #a3cdda; stroke-width: 0px;"/>
                          <path d="m187.32,93.71c-1-.43-1.99-.85-3.06-1.28-.5-.21-1-.43-1.49-.57-.28-.07-.57-.21-.85-.28-.21-.07-.43-.21-.64-.07-.07.07-.07.14-.07.21.07.21.36.28.57.36s.5.14.71.21c.5.14,1,.36,1.49.57,1,.43,1.99.85,2.99,1.42.36.07.64-.43.36-.57h0Z" style="fill: #a3cdda; stroke-width: 0px;"/>
                          <path d="m186.25,97.05c-.64.28-1.35.57-1.99.85-.36.14-.64.28-1,.43-.14.07-.36.14-.5.21s-.28.07-.43.21c-.07.07,0,.14.07.21.14.07.28.07.5,0,.21-.07.36-.07.57-.14.36-.14.71-.21,1.14-.36.71-.28,1.35-.57,2.06-.93.14-.07.21-.28.14-.43-.21-.14-.43-.14-.57-.07h0Z" style="fill: #a3cdda; stroke-width: 0px;"/>
                          <path d="m186.82,95.49c-.36-.14-.78-.14-1.21-.21-.21,0-.43-.07-.64-.07h-.57c-.14,0-.14.21-.07.21.14.07.28.14.5.21.07,0,.21.07.36.07s.21,0,.36.07c.36.07.78.07,1.14.21.28,0,.43-.43.14-.5h0Z" style="fill: #a3cdda; stroke-width: 0px;"/>
                          <path d="m163.26,88.22s3.56-8.54,2.49-10.68c-1.07-2.14-3.06-2.06-3.06-2.06,0,0-1.35,9.18.57,12.74Z" style="fill: #a0572f; stroke-width: 0px;"/>
                          <path d="m190.09,88.22s-1.99-5.41-2.14-8.4c-.21-2.99.14-4.06.85-4.77s2.49.64,2.56,3.27c.07,6.83-1.28,9.89-1.28,9.89Z" style="fill: #a0572f; stroke-width: 0px;"/>
                          <path d="m171.16,85.95c-.28-.5-.71-.85-1.35-.78-.57.07-1.07.57-1.21,1.07-.21.85,0,2.06,1,2.28.85.21,1.49-.28,1.71-1,.21-.43.14-1.07-.14-1.57Z" style="fill: #463c39; stroke-width: 0px;"/>
                          <path d="m181.34,86.02c.28-.5.71-.85,1.35-.78.57.07,1.07.57,1.21,1.07.21.85,0,2.06-1,2.28-.85.21-1.49-.28-1.71-1-.21-.43-.14-1.07.14-1.57Z" style="fill: #463c39; stroke-width: 0px;"/>
                        </g>
                        <path d="m162.19,86.73c.5,1.07.93,2.21,1.28,3.35.36,1,.71,1.99.78,3.13,0,.5.71.5.78,0,.07-.57-.14-1.14-.28-1.64-.21-.57-.43-1.07-.57-1.64-.43-1.21-.78-2.42-1.49-3.42-.21-.36-.64-.07-.5.21h0Z" style="fill: #fff; stroke-width: 0px;"/>
                        <path d="m190.45,86.52c-.21.21-.43.43-.57.71-.14.21-.28.5-.43.78-.28.5-.5,1.07-.64,1.64-.21.57-.36,1.07-.5,1.64-.07.28-.14.57-.21.85-.07.28-.14.57.07.71.07.07.14.07.21,0,.21-.07.28-.36.36-.57.07-.28.14-.57.21-.78.14-.5.28-1.07.5-1.57.21-.5.43-1,.64-1.49.14-.28.28-.5.36-.78.14-.28.21-.57.36-.78.14-.28-.14-.57-.36-.36h0Z" style="fill: #fff; stroke-width: 0px;"/>
                      </g>
                      <path d="m171.58,82.96c-.71-.28-1.64-.43-2.35-.21-.43.14-.78.28-1.07.57-.14.14-.28.28-.43.43s-.28.36-.36.57c0,.14.07.21.21.21s.36-.07.5-.07c.14-.07.36-.07.5-.14.07,0,.14-.07.21-.07,0,0,.21-.07.14-.07s.07,0,.07,0c.07,0,.14-.07.21-.07s.07,0,0,0c.07,0,.14-.07.21-.07.14-.07.28-.07.43-.14.07,0,.14-.07.21-.07h.14c-.07,0,.07,0,.07,0,.36,0,.71,0,1,.07.57.07.78-.71.28-.93h0Z" style="fill: #a0572f; stroke-width: 0px;"/>
                      <path d="m181.34,83.6c-.07,0,.07,0,0,0,.07,0,.14-.07.14-.07.07,0,.14,0,.21-.07h1c.21,0,.36,0,.5.07.36.07.71.21,1.07.28.14.07.36.07.5.14h.14c.07,0,.14.07.21.07s.14-.07.14-.14c.07-.36-.28-.78-.57-.93-.36-.21-.85-.36-1.28-.43-.85-.14-1.78-.14-2.56.28-.21.07-.28.36-.14.57.21.28.5.28.64.21h0Z" style="fill: #a0572f; stroke-width: 0px;"/>
                    </g>
                    <path d="m160.2,79.26s1.35-15.23,12.74-16.66c11.39-1.42,18.08,6.12,19.15,9.97,1.07,3.84.85,7.62.85,7.62,0,0-27.41-3.35-32.74-.93Z" style="fill: #ff941b; stroke-width: 0px;"/>
                    <path d="m174.15,78.97s.14-9.47.21-11.46c.07-1.99-.28-5.27.21-5.55.57-.28,4.27-.14,4.84.43.57.57.21,16.02.07,16.59-.07.43-5.34,0-5.34,0Z" style="fill: #ff941b; stroke-width: 0px;"/>
                    <path d="m174.36,77.19v-4.13c.07-2.78.07-5.55.21-8.33,0-.85.07-1.71.14-2.56,0-.07,0-.21-.14-.21-.28.43-.43,1.14-.5,1.64-.07.71-.07,1.49-.07,2.21,0,.78,0,1.49-.07,2.28-.07,2.7,0,5.48-.07,8.19v.93c.21-.07.36,0,.5,0Z" style="fill: #a0572f; stroke-width: 0px;"/>
                    <path d="m179.7,68.65c.07,2.63.07,5.27.07,7.9,0,.28-.07.64-.07,1,.14-.14.36-.28.57-.36v-3.77c0-2.78-.14-5.48-.14-8.26-.07-2.63-.64-2.78-.64-2.78.28,1.92.14,4.2.21,6.26Z" style="fill: #a0572f; stroke-width: 0px;"/>
                    <path d="m181.98,72.56c-.07-.28-.21-.57-.43-.85-1.21-1.99-4.13-3.49-6.48-2.78-.85.28-1.49.85-2.06,1.49-1.49,1.92-1.64,5.05.36,6.76,1.71,1.42,4.63,1.71,6.48.57,1.92-1.14,2.78-3.27,2.14-5.2Z" style="fill: #a0572f; stroke-width: 0px;"/>
                    <path d="m181.41,72.56c-.07-.28-.21-.5-.36-.78-1.07-1.71-3.63-3.06-5.62-2.42-.71.21-1.35.71-1.78,1.28-1.35,1.71-1.42,4.41.36,5.91,1.49,1.21,4.06,1.49,5.69.5,1.49-.93,2.28-2.78,1.71-4.48Z" style="fill: #ffedb0; stroke-width: 0px;"/>
                    <path d="m151.87,87.37s0-3.27,5.05-5.41,15.09-2.06,22.21-2.21,16.73,1.78,19.29,3.56c2.92,2.06,3.13,6.19,3.13,6.19,0,0,2.42-6.76-5.27-9.54-7.62-2.78-30.39-2.56-37.37-1-2.92.64-4.98,1.78-5.77,2.78-2.35,2.99-1.28,5.62-1.28,5.62Z" style="fill: #ffc500; stroke-width: 0px;"/>
                    <path d="m177.14,70.07c-.78-.07-1.64.07-2.35.57-.36.28-.71.57-.85,1-.14.28-.21.5-.21.78s.14.71.43.85l-.14-.14c0,.07.07.07.07.14.14.21.5.14.64-.07v-.07l-.14.14c.14-.07.21-.14.28-.21-.14.14.07-.07.07-.07l.07-.07c0-.07.07-.14.07-.21q-.07.14-.07.07c.07-.14.14-.21.14-.36v-.07c-.07.21-.07.07,0,0,0-.07.07-.14.14-.21l.07-.07c-.14.21-.07.07,0,0s.07-.14.14-.14l.07-.07c.07-.07.21-.14,0,0,.28-.14.57-.36.85-.43.07-.07-.14.07,0,0,0,0,.07,0,.07-.07.07,0,.14-.07.21-.07s.14,0,.21-.07c.14,0-.14,0,0,0h.14c.28,0,.64-.28.57-.57.07-.28-.21-.5-.5-.57h0Z" style="fill: #fff; stroke-width: 0px;"/>
                    <path d="m178.99,76.62h.21c.07,0,.14-.07.21-.07h.07c.07,0,.07-.07.14-.07l.07-.07q.07-.07.07-.14v-.07h0v-.36c0-.07-.07-.14-.07-.21l-.14-.14c-.07-.07-.14-.07-.28-.07h-.28c-.07,0-.14.07-.21.07.07,0,.07-.07.14-.07-.07,0-.14.07-.21.07.07,0,.07-.07.14-.07-.07,0-.14.07-.21.07h.14-.07c-.14,0-.21,0-.28.07-.07,0-.07.07-.14.07-.07.07-.14.14-.14.28v.21c0,.07,0,.14.07.21.07.07.07.14.14.14.07.07.14.07.21.14.21,0,.36,0,.43,0h0Z" style="fill: #fff; stroke-width: 0px;"/>
                  </g>
                  <path d="m187.74,108.87c-.36.57-.78,1.07-1.14,1.49-.93,1-1.99,1.92-3.13,2.63-1.14.78-2.35,1.35-3.7,1.71-.64.21-1.28.36-1.99.43h-.43l-.07-1.71c.07,0,.21,0,.28-.07.57-.14,1.14-.28,1.64-.5,1.14-.43,2.14-1,3.13-1.71,1-.64,1.85-1.49,2.63-2.35.5-.5.93-1.21,1.49-1.71l.43,1.57c.21.07.5.14.85.21Z" style="fill: #ffd442; stroke-width: 0px;"/>
                  <path d="m165.68,108.87c.36.57.78,1.07,1.14,1.49.93,1,1.99,1.92,3.13,2.63,1.14.78,2.35,1.35,3.7,1.71.64.21,1.28.36,1.99.43h.43l.07-1.71c-.07,0-.21,0-.28-.07-.57-.14-1.14-.28-1.64-.5-1.14-.43-2.14-1-3.13-1.71-1-.64-1.85-1.49-2.63-2.35-.5-.5-.93-1.21-1.49-1.71l-.43,1.57c-.21.07-.43.14-.85.21Z" style="fill: #ffd442; stroke-width: 0px;"/>
                  <path d="m205.54,158.98s-11.32,1.78-30.39,2.14c-15.59.28-27.26-2.78-27.26-2.78l-.21-6.41-.21-6.19-.28-7.97c.36,0,19.36,3.35,33.46,2.85,14.09-.5,24.13-3.35,24.13-3.35l.28,7.97.21,6.76.28,6.98Z" style="fill: #ffd442; stroke-width: 0px;"/>
                  <path d="m205.25,152.07c-4.84.93-14.02,2.78-28.19,2.78-13.24,0-23.63-1.99-29.4-2.99l-.21-6.19c5.05.93,16.23,2.7,30.54,2.56,12.74-.14,22.14-1.92,27.12-3.06l.14,6.9Z" style="fill: #fff; stroke-width: 0px;"/>
                  <path d="m176.64,126.31c-.21,5.84-.07,11.75-.07,17.58v8.68c0,2.99-.14,5.98.14,8.97,0,.28.43.28.5,0,.28-2.99.14-5.98.14-8.97v-8.68c0-5.84.14-11.75-.07-17.58-.07-.43-.64-.43-.64,0h0Z" style="fill: #a0572f; stroke-width: 0px;"/>
                  <g>
                    <path d="m173.86,152.29s39.29-59.22,41.21-60.36c1.92-1.14,2.78.36.71,4.2-2.06,3.84-35.24,61.57-37.16,61.93-1.92.28-6.69-2.28-4.77-5.77Z" style="fill: #4b423f; stroke-width: 0px;"/>
                    <path d="m213.72,84.95s-5.41-3.2-5.77-2.49-1.28,4.77-1.42,7.19.21,4.2.21,4.2c0,0,4.91,2.06,8.04,4.27,3.13,2.28,8.26,9.47,8.97,10.04s3.56-5.27,7.05-8.47c3.49-3.2,5.13-4.56,5.41-4.91.21-.36-9.68-3.92-14.95-6.34-5.27-2.42-7.55-3.49-7.55-3.49Z" style="fill: #c7c4c4; stroke-width: 0px;"/>
                    <path d="m231.02,92.42c-.07.07-.14.07-.21.14-4.41,2.7-9.18,4.63-13.95,6.62-.14.07-.36.14-.5.21,3.06,2.99,6.83,8.19,7.4,8.68.71.57,3.56-5.27,7.05-8.47,3.49-3.2,5.13-4.56,5.41-4.91.14-.07-2.21-1.07-5.2-2.28Z" style="fill: #f63904; stroke-width: 0px;"/>
                  </g>
                  <path d="m200.84,135.56s-8.68-9.75-12.03-9.82c-3.35-.07-5.41,4.63-6.48,7.47-1.07,2.85.64,4.91,2.78,6.62,2.14,1.71,4.06,3.49,4.06,3.49,0,0,1.92,4.41,2.42,5.34.5.93,5.84-4.48,8.11-7.12,2.28-2.63,1.14-5.98,1.14-5.98Z" style="fill: #a0572f; stroke-width: 0px;"/>
                  <path d="m189.88,146.52s5.13-2.28,8.26-6.19,3.13-5.41,3.13-5.41c0,0,7.05,4.2,12.17,9.89,5.13,5.77,7.26,8.83,7.76,10.04.5,1.21.64,16.02-8.9,16.09-7.4.07-14.17-7.26-17.15-12.74-3.06-5.48-5.27-11.67-5.27-11.67Z" style="fill: #ff941b; stroke-width: 0px;"/>
                  <path d="m196.36,160.26c1.07-.28,2.21-.71,3.2-1.21,3.42-1.64,6.48-4.13,8.9-7.05,1.92-2.35,3.42-5.05,4.2-8.04-2.85-2.99-6.12-5.48-8.4-7.12-.21.57-.5,1.07-.85,1.64-1.57,2.78-3.92,5.05-6.48,6.9-1.92,1.35-3.99,2.49-6.19,3.35.93,2.28,2.49,6.05,4.41,9.47.28.71.71,1.42,1.21,2.06Z" style="fill: #ffd442; stroke-width: 0px;"/>
                  <path d="m198.92,154.99c3.56-1.64,6.55-4.41,8.83-7.62,1.14-1.57,2.06-3.2,2.85-4.98.07-.07.07-.21.14-.28-.85-.78-1.71-1.57-2.56-2.21-.5.93-1,1.85-1.57,2.78-1.92,2.99-4.34,5.62-7.26,7.62-1.42.93-2.92,1.78-4.48,2.42-.64.28-1.35.5-2.06.64.43.93.93,1.92,1.42,2.92,1.57-.14,3.2-.57,4.7-1.28Z" style="fill: #fff; stroke-width: 0px;"/>
                  <path d="m200.91,135.85c3.7,1.71,6.83,4.41,9.75,7.26,1.42,1.35,2.78,2.78,4.06,4.27.71.78,1.49,1.57,2.14,2.35.78.85,1.42,1.92,2.28,2.63.14.14.5,0,.43-.21-.43-1-1.28-1.85-1.99-2.7s-1.42-1.64-2.21-2.42c-1.42-1.49-2.85-3.06-4.34-4.48-2.99-2.85-6.19-5.41-10.04-6.98-.14-.14-.28.21-.07.28h0Z" style="fill: #a0572f; stroke-width: 0px;"/>
                  <path d="m189.81,146.59c1.49,4.77,3.27,9.54,6.05,13.67,1.28,1.92,2.78,3.92,4.41,5.48.71.71,1.49,1.28,2.28,1.85.85.64,1.71,1.28,2.63,1.71.21.07.43-.14.28-.36-1.49-1.28-3.27-2.35-4.7-3.7-1.71-1.64-3.13-3.63-4.48-5.62-1.35-2.06-2.63-4.27-3.63-6.55-.93-2.21-1.57-4.56-2.63-6.69-.07-.07-.28,0-.21.21h0Z" style="fill: #a0572f; stroke-width: 0px;"/>
                  <path d="m28.3,134.35s.21,25.06,1.28,30.11c1.07,4.98,3.56,7.26,6.55,7.12,6.69-.21,8.33-5.27,9.4-6.34,1.07-1.07-2.85-10.96-2.85-10.96,0,0-2.14,1.99-2.49,2.14s-5.48-17.65-5.69-18.93c-.21-1.28-5.62-4.56-6.19-3.13Z" style="fill: #ffae91; stroke-width: 0px;"/>
                  <path d="m67.59,101.46s-1.85.71-3.49,2.63c-.78.93-1.57,1.99-1.57,1.99,0,0-10.75,1.99-15.23,7.62-4.56,5.62-9.89,33.95-9.89,33.95,0,0,4.98,20.36,5.62,20.57.57.21,9.4-9.4,13.95-15.02,4.56-5.62,42.64-3.7,44.42-3.49s18.93-1.78,18.58-4.41c-.36-2.63-9.04-28.9-17.51-33.6-8.47-4.63-13.45-5.69-13.45-5.69,0,0-.71-3.49-5.69-4.48-4.98-.85-15.73-.07-15.73-.07Z" style="fill: #f6f5f5; stroke-width: 0px;"/>
                  <path d="m47.16,124.53c.14,1.99.43,3.92.78,5.84.5,2.92.85,5.77,1.14,8.68.28,2.78.57,5.62.71,8.4.07,1.42.14,2.78.21,4.2.07,1.35,0,2.85.36,4.13.07.21.36.21.36,0,.36-1.35.21-2.92.21-4.27-.07-1.42-.14-2.85-.28-4.2-.21-2.85-.5-5.62-.85-8.4-.36-2.7-.71-5.48-1.21-8.19-.36-2.06-.64-4.27-1.14-6.26.07-.21-.28-.14-.28.07h0Z" style="fill: #cdcaca; stroke-width: 0px;"/>
                  <g>
                    <g>
                      <path d="m66.88,96.62s.21,11.25.21,12.17,7.76,13.74,8.9,13.95c2.56,0,8.19-12.24,8.83-14.66.64-2.35-.36-13.03-.36-13.03,0,0-16.44,2.56-17.58,1.57Z" style="fill: #ffae91; stroke-width: 0px;"/>
                      <path d="m89.44,84.67c-.14,1.57-.43,3.2-.85,4.7-1.42,5.48-4.34,10.39-8.54,12.03-5.48,2.14-11.89-.36-15.23-5.98-.85-1.42-1.42-3.63-1.71-6.05-.93-6.98-.07-16.09-.07-16.09,10.39-9.68,25.84-.71,25.84-.71,0,0,1.28,4.98.57,12.1Z" style="fill: #ffae91; stroke-width: 0px;"/>
                      <g>
                        <path d="m63.6,86.73s-1.78-4.06-3.49-3.92c-1.78.14-1.78,3.92-.28,6.05,1.42,2.14,4.41,2.85,4.84,2.35.36-.43-1.07-4.48-1.07-4.48Z" style="fill: #ffae91; stroke-width: 0px;"/>
                        <path d="m88.02,86.73s1.78-4.06,3.49-3.92c1.78.14,1.78,3.92.28,6.05-1.42,2.14-4.41,2.85-4.84,2.35s1.07-4.48,1.07-4.48Z" style="fill: #ffae91; stroke-width: 0px;"/>
                      </g>
                      <path d="m88.59,89.43c-1.42,5.48-4.34,10.39-8.54,12.03-5.48,2.14-11.89-.36-15.23-5.98-.85-1.42-1.42-3.63-1.71-6.05,2.14-1.07,9.11-4.34,13.03-4.06s10.11,2.28,12.46,4.06Z" style="fill: #fff; stroke-width: 0px;"/>
                      <path d="m64.67,91c1-.5,1.92-1,2.99-1.42.5-.21,1-.36,1.49-.57.21-.07.5-.14.71-.21.21-.07.5-.07.57-.28,0-.07,0-.14-.07-.21-.21-.14-.43,0-.64.07-.28.07-.57.21-.78.28-.5.21-1,.36-1.49.57-1,.43-1.99.85-3.06,1.28-.28.14,0,.64.28.5h0Z" style="fill: #a3cdda; stroke-width: 0px;"/>
                      <path d="m65.17,94.35c.71.28,1.35.64,2.06.93.36.14.71.28,1.07.36.14.07.36.14.5.14.14.07.36.07.5,0,.07-.07.07-.14.07-.21-.07-.14-.21-.14-.43-.21-.14-.07-.36-.14-.5-.14-.36-.14-.71-.28-1-.43-.64-.28-1.28-.57-1.99-.85-.14-.07-.28-.07-.43.07-.07.07,0,.28.14.36h0Z" style="fill: #a3cdda; stroke-width: 0px;"/>
                      <path d="m65.03,92.71c.36-.07.78-.14,1.14-.21.21,0,.5-.07.71-.07.14-.07.36-.14.5-.21.07-.07.07-.28-.07-.21h-.5c-.21,0-.43.07-.71.07-.36.07-.78.07-1.14.21-.28.07-.21.5.07.43h0Z" style="fill: #a3cdda; stroke-width: 0px;"/>
                      <path d="m86.59,90.5c-1-.43-1.99-.85-3.06-1.28-.5-.21-1-.43-1.49-.57-.28-.07-.57-.21-.78-.28s-.43-.21-.64-.07c-.07.07-.07.14-.07.21.07.21.36.28.57.28.21.07.5.14.71.21.5.14,1,.36,1.49.57,1,.43,1.99.85,2.99,1.42.28.14.57-.36.28-.5h0Z" style="fill: #a3cdda; stroke-width: 0px;"/>
                      <path d="m85.6,93.85c-.64.28-1.28.57-1.99.85-.36.14-.64.28-1,.43-.14.07-.36.14-.5.14-.14.07-.28.07-.43.21-.07.07,0,.14.07.21.14.07.28.07.5,0s.36-.07.5-.14c.36-.14.71-.21,1.07-.36.71-.28,1.35-.57,2.06-.93.14-.07.21-.28.07-.43-.07-.07-.21-.07-.36,0h0Z" style="fill: #a3cdda; stroke-width: 0px;"/>
                      <path d="m86.1,92.28c-.36-.14-.78-.14-1.14-.21-.21,0-.43-.07-.64-.07h-.57c-.14,0-.14.14-.07.21.14.07.28.14.5.21.07,0,.21.07.36.07s.21,0,.36.07c.36.07.78.07,1.14.21.21,0,.36-.43.07-.5h0Z" style="fill: #a3cdda; stroke-width: 0px;"/>
                      <path d="m62.68,85.02s3.56-8.54,2.49-10.68c-1.07-2.14-3.06-1.99-3.06-1.99,0,0-1.35,9.18.57,12.67Z" style="fill: #a0572f; stroke-width: 0px;"/>
                      <path d="m89.37,85.02s-1.99-5.34-2.14-8.33c-.21-2.99.14-4.06.85-4.77s2.49.64,2.56,3.27c.07,6.76-1.28,9.82-1.28,9.82Z" style="fill: #a0572f; stroke-width: 0px;"/>
                      <path d="m70.51,82.74c-.28-.5-.71-.85-1.35-.78-.57.07-1.07.57-1.21,1.07-.21.85,0,2.06,1,2.28.85.21,1.49-.28,1.71-1,.21-.43.14-1.07-.14-1.57Z" style="fill: #463c39; stroke-width: 0px;"/>
                      <path d="m71.65,79.61c-.43-.28-1.49-.36-1.99-.28-.57,0-1.14.14-1.64.36s-1.35.78-1.49,1.35c-.07.5.14.36.5.28.5-.21.93-.28,1.49-.28.93,0,1.85.07,2.78-.07.71-.14.93-.85.36-1.35Z" style="fill: #a0572f; stroke-width: 0px;"/>
                      <path d="m80.61,82.81c.28-.5.71-.85,1.35-.78.57.07,1.07.57,1.21,1.07.21.85,0,2.06-1,2.28-.85.21-1.49-.28-1.71-1-.21-.43-.14-1,.14-1.57Z" style="fill: #463c39; stroke-width: 0px;"/>
                      <path d="m79.69,79.61c.43-.28,1.49-.36,1.99-.28.57,0,1.14.14,1.64.36s1.35.78,1.49,1.35c.07.5-.14.36-.5.28-.5-.14-.93-.28-1.49-.28-.93,0-1.85.07-2.78-.07-.78-.21-1-.93-.36-1.35Z" style="fill: #a0572f; stroke-width: 0px;"/>
                    </g>
                    <path d="m61.32,79.75s-.14-13.03,5.48-17.72c5.62-4.7,16.44-3.99,20.57,2.35,4.13,6.34,3.49,10.82,3.49,12.03s-.14,2.7-.14,2.7c0,0-.21-4.48-9.18-7.4-12.03-3.84-20.22,8.04-20.22,8.04Z" style="fill: #463c39; stroke-width: 0px;"/>
                    <path d="m60.75,80.68c.28.64,1.28-1.07,4.56-3.63,3.2-2.56,6.55-4.63,12.39-4.63,4.41,0,9.82,3.84,11.18,5.77,1.42,1.99,2.06,2.99,2.63,2.49.64-.57-1.49-5.48-6.62-8.47-5.69-3.35-10.53-2.7-13.74-1.28-6.83,3.13-10.89,8.61-10.39,9.75Z" style="fill: #007399; stroke-width: 0px;"/>
                  </g>
                  <path d="m62.46,106.38c-.71,1.78-.93,3.77-1,5.62-.07,1.35-.07,2.7.07,4.06.07.85.07,1.85.93,2.35.78.5,1.99.5,2.85.57,1.49.14,2.99,0,4.41.43,1.07.28,1.99.93,2.92,1.57.93.71,1.64,1.57,2.56,2.28.21.14.57-.07.43-.36-.43-.78-1.35-1.49-2.06-2.06-.78-.64-1.64-1.21-2.56-1.64-2.28-1.07-4.7-.57-7.05-.93-.43-.07-1.07-.14-1.35-.57-.43-.43-.36-1.21-.36-1.78-.14-1.28-.14-2.56-.07-3.84.07-1.85.21-3.84.78-5.69-.07-.14-.43-.21-.5,0h0Z" style="fill: #cdcaca; stroke-width: 0px;"/>
                  <path d="m88.87,106.23c.57,1.78.64,3.7.78,5.55.07,1.28.07,2.56-.07,3.84-.07.57,0,1.42-.36,1.92-.28.36-.93.43-1.35.57-2.35.36-4.77-.14-6.98.85-.93.43-1.78,1-2.56,1.64-.71.57-1.71,1.28-2.14,2.14-.14.28.21.5.43.36.93-.71,1.64-1.57,2.56-2.28.85-.64,1.85-1.28,2.92-1.57,1.42-.43,2.92-.36,4.41-.43.93-.07,2.06-.07,2.85-.57s.85-1.49.93-2.35c.14-1.35.14-2.7.07-4.06-.14-1.85-.36-3.84-1-5.62-.28-.28-.57-.21-.5,0h0Z" style="fill: #cdcaca; stroke-width: 0px;"/>
                  <path d="m65.95,105.24c-.5.57-.5,1.35-.28,2.06.28,1,.71,1.99,1.14,2.92.57,1.21,1.21,2.42,2.06,3.49.93,1.14,1.78,2.35,2.63,3.56.93,1.28,1.92,2.49,2.85,3.7.57.78,1,1.64,1.64,2.35.07.07.14,0,.14-.07-.14-.64-.78-1.28-1.14-1.85-.78-1.14-1.49-2.35-2.28-3.49-1.42-1.99-2.85-4.06-4.13-6.12-.64-1-1.14-1.99-1.57-3.06-.36-.85-1.35-2.42-.71-3.27.07-.14-.21-.36-.36-.21h0Z" style="fill: #cdcaca; stroke-width: 0px;"/>
                  <path d="m85.53,104.6c.85,1.78-.5,4.06-1.28,5.69-.5,1-1.14,1.99-1.71,2.99-.85,1.42-1.64,2.85-2.49,4.27-.5.85-1.28,1.92-1.49,2.99,0,.14.14.21.21.14.57-.57.93-1.42,1.35-2.14.64-1.21,1.35-2.42,2.06-3.63,1.07-1.92,2.06-3.92,3.13-5.91.71-1.35,1.78-3.27.5-4.7-.14-.14-.43.07-.28.28h0Z" style="fill: #cdcaca; stroke-width: 0px;"/>
                  <path d="m105.17,222.4l-.07-1.99v-3.13l-.14-9.68-.14-6.69-.43-23.56v-.93l-.07-4.63h0v-.93l-.14-6.62v-2.28l-.07-2.85h0l-.14-8.61s-.07-.28-.36-.78c-.36-.71-1.07-1.92-2.21-3.56-.07-.07-.07-.14-.14-.21-.07-.07-.14-.21-.21-.28-.07-.07-.14-.14-.14-.21l-.07-.07c-.5-.64-1-1.35-1.49-2.14h0c-1-1.49-2.06-3.06-2.78-4.13-.21-.36-.43-.64-.57-.85s-.21-.36-.21-.36c0,0-1.42-.71-6.83-1.57h0c-.71-.07-1.49-.21-2.35-.36-.07,0-.21,0-.28-.07h-.07c-.43-.07-1-.07-1.49-.14-1.21-.07-2.63-.07-4.13-.07h-3.42c-1,.07-1.92.14-2.92.21-3.49.28-7.05.64-9.97,1h0c-.36.07-.71.07-1.07.14h0c-2.85.36-4.91.71-5.77.93-.36.07-.78.43-1.14.85-1.78,1.92-3.84,6.62-5.27,10.11h0c-.28.71-.57,1.42-.78,1.99h0c-.43,1.14-.71,1.92-.71,1.92,0,0,.36,3.7.71,8.4.5,5.84,1.07,13.17,1.28,16.51.14,2.56.07,7.26-.14,11.89-.14,3.56-.28,7.12-.43,9.75,1.35,1.99,2.78,3.92,4.27,5.84,1.99,2.56,4.2,4.98,6.48,7.26,0,.07.07.14.07.14,1.78.78,3.35,2.06,4.84,3.27,1.49,1.28,2.85,2.63,4.06,4.13,1.07,1.28,2.06,2.63,2.92,4.13.93.14,1.92.21,2.92.28h0c5.05.43,10.96.5,16.16.43h0c3.2,0,6.05-.14,8.26-.21,2.78-.14,4.56-.21,4.56-.21l-.36-2.06Z" style="fill: #463c39; stroke-width: 0px;"/>
                  <path d="m58.33,106.59c-.71-.14-4.91,1.07-4.91,3.2s2.56,31.11,3.35,34.38c.85,3.35,2.56,5.77,5.62,3.42,3.13-2.35-3.35-40.93-4.06-41Z" style="fill: #4f4643; stroke-width: 0px;"/>
                  <path d="m59.05,143.03c.21-.28.5-.57.85-.71.14-.07.28-.07.43-.07.21,0,.28,0,.5.07.28.07.57.21.78.43.14.14.14.21.28.36q.07.07.07.21v.14s0,.14,0,.07c.07.36-.07.71-.21,1.07-.07.07-.07.14-.14.21.07-.07,0,0-.07.07,0,.07-.07.07-.14.14l-.07.07c-.07.07.07,0,0,0l-.07.07c-.07.07-.14.07-.21.14-.07,0,0,0,0,0h-.07q-.07,0-.14.07c-.07,0-.14.07-.21.07s.07,0,0,0h-.57s.07,0,0,0h-.14c-.07,0-.14,0-.21-.07-.07,0-.14,0-.21-.07h-.14c-.07,0,.07,0,0,0-.07-.07-.14-.07-.21-.14-.07-.07-.14-.07-.14-.14-.14-.07-.28-.21-.28-.28-.07-.14-.07-.28-.07-.43,0-.21.07-.36.07-.57,0-.07-.14-.14-.21-.07-.36.21-.28.71-.21,1.07,0,.07.07.14.07.21-.07-.07,0-.07,0,0v.21c.07.21.21.36.36.5.28.28.64.5,1.07.57s.85.07,1.28-.07c.93-.28,1.49-1.21,1.49-2.21,0-.93-.57-1.71-1.42-2.06-1.07-.36-2.14.07-2.7,1-.07.21.43.5.64.14h0Z" style="fill: #87807e; stroke-width: 0px;"/>
                  <path d="m93.07,107.02c.71-.14,5.27.57,5.27,2.7s-2.56,31.11-3.35,34.38c-.85,3.35-2.56,5.77-5.62,3.42-3.13-2.28,2.99-40.36,3.7-40.5Z" style="fill: #4f4643; stroke-width: 0px;"/>
                  <path d="m93.28,142.75c-.5-.85-1.42-1.28-2.42-1.07-.85.14-1.57.85-1.71,1.78s.28,1.99,1.21,2.42c.78.36,1.71.36,2.35-.14.21-.14.36-.28.5-.5.07-.07.07-.21.14-.28v-.14c0,.07,0,0,.07-.07.14-.36.21-.93-.14-1.21-.07-.07-.21,0-.21.07-.07.28.14.57.07.85v.07s-.07.07,0,.07l-.14.14c-.14.14-.21.14-.36.28-.07.07-.14.07-.21.07h-.07q-.07,0-.14.07c-.14.07-.28.07-.43.07h-.14c-.07,0,.07,0,0,0h-.43s-.14,0-.07,0c-.07,0-.14,0-.21-.07h-.07s-.14-.07-.07,0c-.07,0-.14-.07-.21-.14,0,0-.14-.07-.07,0l-.07-.07-.14-.14c-.21-.28-.36-.64-.36-1s.07-.57.28-.93c0,0,.07-.07,0,0l.07-.07.07-.07.14-.14s.14-.07.21-.14l.07-.07q.07,0,.07-.07c.36-.14.71-.14,1-.07.36.07.71.36.93.71.14.43.71.14.5-.21h0Z" style="fill: #87807e; stroke-width: 0px;"/>
                  <g>
                    <path d="m7.65,99.61c-2.63-1.92-5.62-5.05-6.76-8.19-.21-.64-.5-1.42,0-2.06s1.49-.5,2.21-.57c.78-.07,1.57,0,2.28-.43.78-.5,1.14-1.35,1.78-1.99,1.07-.93,2.56-.5,3.84-.85,1.78-.5,2.35-2.56,4.34-2.56.93,0,1.64.21,2.42-.28.85-.5,1.21-1.28,1.78-2.06,1.28-1.78,2.56-.78,4.34-.5,2.21.36,2.49-2.78,4.48-2.78,1.57,0,2.56,1.35,4.13.21.71-.5,1.21-1.42,2.14-1.64s1.49.5,2.28.64c1.49.36,2.85-1.92,4.27-2.42,3.92-1.21,2.7,5.98,2.35,7.76-.36,1.92-.36,3.92-1.42,5.62-1.07,1.64-3.49,2.35-5.27,3.06-5.2,2.06-10.61,3.42-16.02,4.91-3.7,1-7.33,2.99-11.1,3.35-.64.07-1.28-.07-1.78.36l-.28.43Z" style="fill: #ffc500; stroke-width: 0px;"/>
                    <path d="m38.55,79.83c.07,1.21.07,2.42.07,3.7v1.85c0,.57,0,1.21.21,1.78.07.14.21.14.28,0,.21-.57.21-1.14.21-1.78v-1.85c0-1.21-.07-2.42-.21-3.7-.07-.36-.64-.36-.57,0h0Z" style="fill: #4f4643; stroke-width: 0px;"/>
                    <path d="m5.02,92.57c.64.71,1.21,1.35,1.78,2.06s1.21,1.35,1.99,1.85c.07.07.21-.07.14-.14-.57-.71-1.14-1.35-1.78-2.06-.64-.64-1.21-1.35-1.85-1.99-.14-.21-.43.07-.28.28h0Z" style="fill: #4f4643; stroke-width: 0px;"/>
                    <path d="m11.57,90c.43.93.85,1.78,1.42,2.7.28.43.5.85.78,1.28.28.36.5.85.93,1.07.14.07.28-.07.28-.21-.07-.5-.43-.85-.71-1.28s-.57-.85-.78-1.21c-.57-.85-1.07-1.71-1.49-2.56-.21-.21-.57,0-.43.21h0Z" style="fill: #4f4643; stroke-width: 0px;"/>
                    <path d="m24.45,85.02c.21,1.07.64,1.99,1,2.99.21.5.36,1,.57,1.49.07.21.14.5.21.71.07.21.14.43.36.57.07.07.21,0,.28-.14.07-.21,0-.5-.07-.71s-.14-.43-.21-.71c-.21-.5-.36-1-.57-1.42-.43-1-.78-1.92-1.07-2.92-.14-.21-.57-.07-.5.14h0Z" style="fill: #4f4643; stroke-width: 0px;"/>
                    <path d="m31.36,82.25c.14,1.14.21,2.28.43,3.42.14,1.07.21,2.28.78,3.27.07.14.28.07.28-.07.07-.57-.07-1.14-.14-1.71s-.21-1.07-.28-1.64c-.14-1.14-.43-2.21-.64-3.35-.07-.14-.43-.07-.43.07h0Z" style="fill: #4f4643; stroke-width: 0px;"/>
                    <path d="m17.4,86.59c.43,1.21,1,2.28,1.71,3.35.36.5.64,1,1,1.49s.64,1.14,1.14,1.49c.07.07.28,0,.21-.14-.14-.57-.57-1.07-.85-1.49-.36-.5-.71-1-1-1.49-.64-1.07-1.28-2.14-1.64-3.35-.14-.36-.71-.21-.57.14h0Z" style="fill: #4f4643; stroke-width: 0px;"/>
                    <path d="m50.72,199.55c1.35,1.99,2.78,3.92,4.27,5.84l-3.77-15.59-5.77-23.56h0l-.14-.57-2.78-11.18-3.49-14.38h0l-1.07-4.27-.57-2.21-.43-1.64-1.92-7.97h0l-5.98-24.34-.14-.64-.78-3.2-.5-1.99-.21-.85h0l-1.49,1.28h0l-1.99,1.71,1.07,4.34.36,1.35h0l5.98,24.27,2.7,11.03h0l.71,2.92h0l.57,2.42.57,2.21,6.19,24.91h0l6.83,27.33h0l1.78,2.78Z" style="fill: #a0572f; stroke-width: 0px;"/>
                    <path d="m25.73,101.32c1.07-.71,2.21-1.35,3.42-1.78l-1.64-6.69-3.49,2.99,1.42,5.62c.07.07.21,0,.28-.14Z" style="fill: #4f4643; stroke-width: 0px;"/>
                    <path d="m43.74,84.17c-.14-.36-5.84,1.57-11.96,3.63v-.07s-27.19,9.47-26.98,10.18,3.27,6.26,6.26,6.48c1.57.14,8.19-2.06,13.95-4.13,6.41-2.21,16.51-5.77,17.94-7.12,2.21-2.06,1.07-8.26.78-8.97Z" style="fill: #a0572f; stroke-width: 0px;"/>
                  </g>
                  <path d="m28.51,141.54s-.78-6.98-.71-10.18,7.05-9.75,10.04-6.69c.78.78.07,1.85.07,1.85,0,0,1.14-.07,1.21.93.14,1-.28,1.28-.28,1.28,0,0,1,.07,1.07,1.28s-.43,1.42-.43,1.42c0,0,1.57.64,1.07,2.14s-3.84,2.63-4.77,4.06c-.93,1.42-1,3.56-1,3.56,0,0-5.91.93-6.26.36Z" style="fill: #ffae91; stroke-width: 0px;"/>
                  <path d="m61.96,83.88c.43,1,.93,1.99,1.21,3.06.14.5.28,1.07.36,1.64.07.28.07.57.07.85s0,.57.14.78c.14.21.5.21.64,0,.21-.5.07-1.21,0-1.71-.07-.57-.21-1.21-.36-1.78-.36-1.14-.71-2.28-1.42-3.2-.28-.43-.85-.07-.64.36h0Z" style="fill: #fff; stroke-width: 0px;"/>
                  <path d="m89.65,83.38c-1.21,1.49-1.71,3.42-1.99,5.2,0,.21-.07.43-.07.64s-.07.5,0,.64c.07.07.21.14.28.14.21-.07.21-.36.28-.5.21-.93.36-1.85.64-2.78.28-1,.64-2.06,1.35-2.85.21-.36-.21-.85-.5-.5h0Z" style="fill: #fff; stroke-width: 0px;"/>
                  <path d="m156.28,224.68c-.07-.85-.07-1.71-.14-2.56-.14-1.99-.21-4.06-.36-6.19-.14-2.14-.28-4.34-.43-6.55h0v-.78c-.14-1.78-.21-3.63-.36-5.48-.14-1.64-.21-3.27-.36-4.91-.14-2.06-.28-4.06-.43-6.05-.28-4.34-.57-8.26-.85-11.6-.14-1.78-.28-3.42-.43-4.77h0c-.28-2.7-.5-4.56-.71-5.05-.14-.28-.57-.43-1.21-.43-.71,0-1.64.07-2.78.28-.36.07-.64.14-1,.14-.5.07-1,.21-1.57.28-.57.14-1.21.21-1.78.36-.21.07-.43.07-.64.14-.5.07-.93.21-1.42.28-.71.14-1.42.28-2.14.43h-.07c-.21.07-.43.07-.64.14-.43.07-.85.14-1.28.21-3.06.5-6.41,1-9.75,1.28-.43.07-.85.07-1.21.07-.28,0-.64.07-.93.07-1.49.07-2.92.07-4.27,0-3.92-.14-7.47-.71-10.46-1.35-.14,0-.28-.07-.36-.07-.28-.07-.5-.14-.71-.14-2.28-.5-4.13-1.14-5.41-1.57-.14-.07-.28-.07-.43-.14h0c-1.21-.43-1.85-.71-1.85-.71,0,0-.07,1.78-.21,4.7h0c0,.57-.07,1.21-.07,1.85-.21,5.77-.57,14.73-.78,24.27-.07,2.14-.07,4.34-.14,6.48-.07,2.99-.07,5.91-.14,8.76v8.76c.07,4.13.14,7.83.28,10.75,6.26,1.71,12.74,2.7,19.43,2.99,1.21.07,2.42.07,3.63.07h1.57c.43-6.9,1.14-16.16,1.57-16.66.43-.43,1.85,9.32,2.85,16.44l6.48-.64c1.92-.28,3.84-.57,5.69-1,.85-.21,1.78-.36,2.63-.57,4.06-1,8.04-2.28,11.89-3.77-.43-2.28-.57-4.84-.71-7.76Z" style="fill: #463c39; stroke-width: 0px;"/>
                  <path d="m118.63,103.32s-20.57,4.2-21.5,5.91c-.93,1.71,4.84,67.77,4.84,67.77,0,0,15.3,1.99,32.6,1.07,6.83-.36,18.36-2.35,18.36-2.35,0,0,5.77-61.43,4.34-63.71-1.42-2.35-19.5-7.97-24.49-8.9-4.91-.85-14.17.21-14.17.21Z" style="fill: #007399; stroke-width: 0px;"/>
                  <path d="m125.32,119.69c-.28,1.78,0,3.49.07,5.27.07,1.92.07,3.84.14,5.69.07,3.84.21,7.69.28,11.46.07,3.92.36,7.83.36,11.75s-.28,7.83-.36,11.75c-.07,2.06,0,4.2.14,6.26.14,2.06.07,4.27.43,6.34.07.5.78.28.78-.14.21-1.85-.07-3.84-.21-5.69-.14-1.85-.21-3.7-.21-5.55,0-3.84.28-7.69.28-11.53s-.36-7.69-.36-11.6-.14-7.55-.21-11.32c0-2.14-.07-4.27-.14-6.41,0-2.06-.36-4.13-.36-6.19-.07-.36-.57-.43-.64-.07h0Z" style="fill: #463c39; stroke-width: 0px;"/>
                  <path d="m101.4,120.47s5.27,23.49,5.69,23.85c.5.36,27.69,10.75,27.26,12.03-.5,1.28-6.76,4.56-20.79,7.26-15.3,2.92-21.07-3.13-23.99-9.61-2.92-6.41-4.06-20.57-3.27-23.35.85-2.85,14.17-10.89,15.09-10.18Z" style="fill: #ffae91; stroke-width: 0px;"/>
                  <path d="m166.25,143.11c0,4.77-3.06,14.73-10.53,17.3-7.47,2.56-23.85.78-33.67-3.27-9.82-4.06-15.52-13.31-15.52-13.31,0,0,6.19-2.78,14.73-3.13,10.89-.43,22.99,2.78,22.99,2.78h0c0-.07.07-.43.14-.93.43-2.85,1.71-11.32,2.06-12.24.5-1.14,18.72,2.14,18.72,2.14,0,0,1.07,5.91,1.07,10.68Z" style="fill: #ffae91; stroke-width: 0px;"/>
                  <g>
                    <path d="m116.77,96.77s.5,9.32.5,10.25,6.69,11.18,8.54,11.53c2.49,0,7.69-9.4,8.33-11.75.64-2.35,0-11.6,0-11.6,0,0-16.3,2.49-17.37,1.57Z" style="fill: #ffae91; stroke-width: 0px;"/>
                    <path d="m138.91,85.02c-.14,1.57-.43,3.13-.85,4.63-1.42,5.34-4.2,10.18-8.4,11.82-5.34,2.14-11.67-.36-14.95-5.84-.85-1.42-1.35-3.56-1.71-5.98-.93-6.83-.07-15.8-.07-15.8,1.78-2.14,25.34-.71,25.34-.71,0,0,1.35,4.91.64,11.89Z" style="fill: #ffae91; stroke-width: 0px;"/>
                    <g>
                      <path d="m113.57,87.09s-1.71-3.99-3.42-3.84c-1.71.14-1.71,3.84-.28,5.91,1.42,2.14,4.34,2.78,4.77,2.35.28-.5-1.07-4.41-1.07-4.41Z" style="fill: #ffae91; stroke-width: 0px;"/>
                      <path d="m137.56,87.09s1.71-3.99,3.42-3.84,1.71,3.84.28,5.91-4.34,2.78-4.77,2.35c-.36-.5,1.07-4.41,1.07-4.41Z" style="fill: #ffae91; stroke-width: 0px;"/>
                    </g>
                    <path d="m138.13,89.65c-1.42,5.34-4.2,10.18-8.4,11.82-5.34,2.14-11.67-.36-14.95-5.84-.85-1.42-1.35-3.56-1.71-5.98,2.06-1,8.9-4.2,12.81-3.99,3.77.36,9.89,2.28,12.24,3.99Z" style="fill: #fff; stroke-width: 0px;"/>
                    <path d="m114.64,91.21c.93-.5,1.92-1,2.92-1.35.5-.21,1-.36,1.49-.57.21-.07.5-.14.71-.21.21-.07.5-.07.57-.28,0-.07,0-.14-.07-.21-.21-.14-.43,0-.64.07-.28.07-.57.21-.78.28-.5.21-1,.36-1.49.57-1,.43-1.99.85-2.99,1.28-.28.14,0,.57.28.43h0Z" style="fill: #a3cdda; stroke-width: 0px;"/>
                    <path d="m115.07,94.49c.64.28,1.35.64,1.99.85.36.14.71.28,1.07.36.14.07.36.07.5.14.14.07.36.07.5,0,.07-.07.07-.14.07-.21-.07-.14-.21-.14-.43-.21-.14-.07-.36-.14-.5-.14-.36-.14-.64-.28-1-.43-.64-.28-1.28-.57-1.92-.85-.14-.07-.28-.07-.43.07-.07.21,0,.43.14.43h0Z" style="fill: #a3cdda; stroke-width: 0px;"/>
                    <path d="m115,92.92c.36-.07.78-.14,1.14-.14.21,0,.43,0,.64-.07.14-.07.36-.14.5-.21.07-.07.07-.21-.07-.21h-.5c-.21,0-.43.07-.64.07-.36.07-.78.07-1.14.21-.36,0-.21.43.07.36h0Z" style="fill: #a3cdda; stroke-width: 0px;"/>
                    <path d="m136.14,90.79c-1-.43-1.99-.85-2.99-1.28-.5-.21-1-.43-1.49-.57-.28-.07-.5-.21-.78-.28-.21-.07-.43-.21-.64-.07-.07.07-.07.14-.07.21.07.21.36.21.57.28s.5.14.71.21c.5.14,1,.36,1.49.57,1,.36,1.99.85,2.92,1.35.28.14.57-.28.28-.43h0Z" style="fill: #a3cdda; stroke-width: 0px;"/>
                    <path d="m135.14,93.99c-.64.28-1.28.57-1.92.85-.36.14-.64.28-1,.43-.14.07-.36.14-.5.14-.14.07-.28.07-.43.21-.07.07,0,.14.07.21.14.07.28.07.5,0,.14-.07.36-.07.5-.14.36-.14.71-.21,1.07-.36.71-.28,1.35-.57,1.99-.85.14-.07.14-.28.07-.43-.07-.07-.21-.14-.36-.07h0Z" style="fill: #a3cdda; stroke-width: 0px;"/>
                    <path d="m135.64,92.5c-.36-.14-.78-.14-1.14-.21-.21,0-.43-.07-.64-.07h-.57c-.14,0-.14.14-.07.21l.43.21c.07,0,.21.07.28.07.14,0,.21,0,.36.07.36.07.78.07,1.14.14.36.07.5-.36.21-.43h0Z" style="fill: #a3cdda; stroke-width: 0px;"/>
                    <path d="m112.65,85.38s3.49-8.33,2.42-10.46c-1.07-2.14-2.99-1.99-2.99-1.99,0,0-1.35,9.04.57,12.46Z" style="fill: #564d4b; stroke-width: 0px;"/>
                    <path d="m138.84,85.38s-1.92-5.27-2.14-8.19c-.14-2.92.14-3.99.78-4.7.71-.71,2.49.64,2.49,3.2.21,6.69-1.14,9.68-1.14,9.68Z" style="fill: #564d4b; stroke-width: 0px;"/>
                    <path d="m120.33,83.17c-.28-.5-.71-.85-1.35-.71-.57.07-1.07.5-1.14,1.07-.21.85,0,1.99,1,2.21.78.21,1.49-.28,1.71-1,.14-.43.07-1.07-.21-1.57Z" style="fill: #463c39; stroke-width: 0px;"/>
                    <path d="m121.4,80.11c-.43-.28-1.42-.36-1.99-.28-.5,0-1.07.14-1.57.36s-1.35.78-1.42,1.35c-.07.43.14.36.5.28.5-.14.93-.28,1.42-.28.85,0,1.85.07,2.7-.07.78-.21,1-.93.36-1.35Z" style="fill: #463c39; stroke-width: 0px;"/>
                    <path d="m130.3,83.24c.28-.5.71-.85,1.35-.71.57.07,1.07.5,1.14,1.07.21.85,0,1.99-1,2.21-.78.21-1.49-.28-1.71-1-.14-.43-.07-1.07.21-1.57Z" style="fill: #463c39; stroke-width: 0px;"/>
                    <path d="m129.3,80.04c.43-.28,1.42-.36,1.99-.28.5,0,1.07.14,1.57.36s1.35.78,1.42,1.35c.07.43-.14.36-.5.28-.5-.14-.93-.28-1.42-.28-.85,0-1.85.07-2.7-.07-.71-.21-.93-.93-.36-1.35Z" style="fill: #463c39; stroke-width: 0px;"/>
                    <path d="m111.29,73.35s-4.48-2.63-4.63-3.63c-.14-1.21,3.84-3.84,5.62-8.19.78-.14,6.34-1.14,9.32-2.99,2.99-1.78,3.77-3.49,5.2-3.13,1.42.43,4.06,3.35,7.26,4.63,3.13,1.28,5.41,1.28,5.48,1.57.14.28,1.49,3.2,2.92,5.13,1.49,1.92,2.06,1.92,2.14,2.85s-4.98,5.62-5.55,6.12-25.91,1.42-26.27.28c-.5-1-1.49-2.63-1.49-2.63Z" style="fill: #007399; stroke-width: 0px;"/>
                    <path d="m111.08,73.49s.28,3.92.43,4.2c.14.28,28.76-.21,28.76-.21,0,0,.14-2.99.07-3.2-.14-.21-3.77-4.41-6.05-5.13-1.92-.57-7.33-2.63-7.9-2.56-2.63.14-9.68,2.21-10.32,2.56-.71.36-4.91,4.06-4.98,4.34Z" style="fill: #463c39; stroke-width: 0px;"/>
                    <path d="m111.22,77.33v1.42s10.96.07,16.59.14,12.6-.71,12.6-.71l.07-1.07s-7.9-2.42-15.09-2.21c-7.26.21-14.17,2.42-14.17,2.42Z" style="fill: #9b9694; stroke-width: 0px;"/>
                    <path d="m113.07,63.67c.07.36.14.64.36.93.28.5.57,1.07.93,1.57.64,1.07,1.28,2.21,1.99,3.2.21.28.64,1,1.14.71.14-.07.21-.21.14-.36,0-.07,0,.07,0,.07,0-.07,0-.14-.07-.21-.07-.07-.07-.14-.14-.21-.14-.14-.21-.28-.36-.43,0,0-.07-.14-.14-.21-.07-.14-.14-.21-.21-.36-.14-.21-.36-.5-.5-.71-.78-1-1.42-2.06-2.06-3.13-.14-.21-.21-.43-.43-.64-.07-.07-.14-.14-.14-.21,0,0-.14-.14-.07-.07-.14-.14-.43-.14-.43.07h0Z" style="fill: #463c39; stroke-width: 0px;"/>
                    <path d="m137.63,64.45c.07-.07,0,0,0,0-.07.14-.14.14-.21.21-.14.14-.21.36-.36.5-.28.5-.57.93-.93,1.42-.64,1.07-1.35,2.06-2.14,3.06-.07.07-.21.28-.36.43-.07.07-.14.14-.21.21,0,.07-.07.07-.07.14-.07.21,0,0,0,.07-.07.14,0,.28.14.36.36.28.78-.21,1-.5.36-.43.71-.93,1-1.42.64-1.14,1.35-2.21,1.99-3.35.21-.36.36-.71.43-1.07.07-.21-.21-.21-.28-.07h0Z" style="fill: #463c39; stroke-width: 0px;"/>
                    <path d="m128.38,61.96c-1.21-1.42-3.49-1.71-4.77.21-.93,1.35-1.07,3.06-.85,4.63.21,1.42,1.21,3.13,2.7,3.35,3.99.64,4.98-5.84,2.92-8.19Z" style="fill: #ffc500; stroke-width: 0px;"/>
                    <path d="m124.39,68.08c.21.28.36.64.71.78s.78.21,1.14.14c.78-.07,1.35-.64,1.64-1.35.28-.71.43-1.57.43-2.35s-.07-1.71-.36-2.42-1.07-1.35-1.92-1.14c-.21.07-.21.36,0,.43.36.14.71.07,1.07.36.28.21.43.57.57.93.28.78.28,1.71.21,2.56-.07.78-.28,1.64-.78,2.28-.36.43-.85.57-1.35.5-.57-.07-.78-.43-1.07-.85-.14-.14-.36,0-.28.14h0Z" style="fill: #bab7b6; stroke-width: 0px;"/>
                  </g>
                  <path d="m134.36,102.11s-.71,4.41-3.27,8.9c-2.14,3.77-4.77,7.12-4.77,7.12l5.98,4.98s5.41-6.69,6.12-11.75-4.06-9.25-4.06-9.25Z" style="fill: #007399; stroke-width: 0px;"/>
                  <g>
                    <path d="m142.9,123.32c-.21-.07-.43-.14-.71-.21-2.14-.36-7.4-1.21-7.62,2.21,0,.21,0,.5.07.71.21,1.28.78,2.78,1.42,3.92.43.71.93,1.64,1.71,2.06,2.35,1.28,4.27-1.49,5.2-3.27.78-1.64,1.99-4.56-.07-5.41Z" style="fill: #ffc500; stroke-width: 0px;"/>
                    <path d="m139.34,131.29c1.14-.64,2.06-1.57,2.7-2.7.28-.57.57-1.14.78-1.78.07-.28.14-.64.21-.93.07-.28.07-.57-.07-.85-.07-.07-.14-.07-.21,0-.21.21-.14.5-.21.78-.07.28-.14.57-.21.85-.14.57-.36,1.21-.64,1.78-.57,1.07-1.42,2.06-2.42,2.78-.14-.07-.07.07.07.07h0Z" style="fill: #bab7b6; stroke-width: 0px;"/>
                    <path d="m138.27,123.53c-.64-.07-1.35.21-1.85.64-.21.21-.43.5-.57.78-.07.14-.14.28-.14.5s-.07.43.07.57c.07.07.21.07.28,0,.14-.14.07-.28.14-.5,0,.07,0-.07,0-.07v-.21c.14-.28.28-.43.5-.64.43-.36.93-.57,1.49-.5.14,0,.28-.14.28-.28.07-.14-.07-.21-.21-.28h0Z" style="fill: #bab7b6; stroke-width: 0px;"/>
                  </g>
                  <path d="m129.16,159.34c-.43-.14-.78-.21-1.21-.36-1.64-.5-3.35-1.07-4.98-1.64-3.99-1.49-11.03-6.76-14.81-10.18-.21-.14-.43.14-.21.28,3.77,4.34,10.53,9.18,14.59,10.82,1.64.64,3.35,1.21,4.98,1.71h.07l1.57-.64Z" style="fill: #d8baaa; stroke-width: 0px;"/>
                  <path d="m151.51,146.59c-.57,0-1.07-.43-1.57-.71-.64-.36-1.28-.64-1.92-.93-1.21-.57-2.49-1-3.77-1.49,0-.07.07-.43.14-.93,1.35.5,2.78,1,4.06,1.57.71.28,1.35.64,2.06,1,.43.28,1.07.57,1.21,1.14.07.14,0,.36-.21.36Z" style="fill: #d8baaa; stroke-width: 0px;"/>
                  <path d="m107.24,105.95s-11.46.71-13.67,3.49c-2.21,2.78-6.76,10.18-8.33,19.86-1.49,9.68,0,12.6,0,12.6,0,0,3.42-2.7,10.04-2.78,6.69-.14,10.75,1.28,10.75,1.28,0,0,0-14.52-.71-21.35-.64-6.9,1.92-13.1,1.92-13.1Z" style="fill: #007399; stroke-width: 0px;"/>
                  <path d="m143.97,106.3s12.17,3.27,14.38,6.05,6.62,7.26,8.11,16.94,0,12.6,0,12.6c0,0-3.42-2.7-10.04-2.78-6.69-.14-12.1,1.07-12.1,1.07,0,0,1.35-14.24,2.06-21.14.64-6.9-2.42-12.74-2.42-12.74Z" style="fill: #007399; stroke-width: 0px;"/>
                  <path d="m100.83,120.4c.5,3.35,1.28,6.69,1.99,10.04.64,2.85.57,6.12,1.85,8.76.14.36.71.07.57-.21-.43-1.49-.78-2.99-1-4.48-.21-1.49-.43-2.92-.71-4.34-.71-3.27-1.35-6.55-2.21-9.82-.14-.36-.57-.21-.5.07h0Z" style="fill: #463c39; stroke-width: 0px;"/>
                  <path d="m148.66,120.61c-1.21,2.99-1.71,6.12-2.21,9.25-.28,1.49-.5,2.99-.78,4.56-.28,1.42-.85,3.06-.78,4.56,0,.14.21.21.36.07.71-1.28.85-3.06,1.07-4.41.28-1.49.5-2.99.71-4.56.5-3.13,1.21-6.26,2.14-9.25.21-.43-.36-.57-.5-.21h0Z" style="fill: #463c39; stroke-width: 0px;"/>
                  <path d="m119.2,129.51c-1.78-.14-3.56-.14-5.34-.07-1.64.07-3.27.14-4.91.43-.71.14-1.35.28-2.06.43-.28.07-.64.14-.85.28-.5.43-.28,1.35-.28,1.92,0,.14.14.28.28.36,1.07.21,2.06.07,3.13,0,1.21-.07,2.49-.07,3.7-.07,2.63,0,5.34-.14,7.97-.21.43,0,.43-.64,0-.64-2.56,0-5.13.07-7.69.07-1.21,0-2.35-.07-3.56,0-1.14.07-2.28.36-3.42.14.07.14.14.21.28.36,0-.36-.07-.78,0-1.14.07-.28.07-.21.36-.28,1.14-.28,2.35-.5,3.56-.64,2.92-.36,5.91-.14,8.83-.36.36-.07.36-.57,0-.57h0Z" style="fill: #463c39; stroke-width: 0px;"/>
                  <path d="m126.38,118.55c1.07.85,1.99,1.85,2.99,2.78.57.5,1.14,1,1.71,1.49.28.21.57.57.93.64.85.14,1.42-1.07,1.85-1.64.85-1.14,1.64-2.35,2.35-3.63,1.21-2.14,2.63-4.48,2.85-7.05.14-1.42-.07-2.78-.5-4.13-.43-1.21-.85-2.28-1.99-2.99-.21-.14-.43.14-.28.28.64,1.21,1.64,2.42,1.99,3.77.43,1.57.07,3.13-.43,4.63-.43,1.35-1.07,2.63-1.78,3.92-.78,1.35-1.49,2.78-2.42,4.06-.28.43-.57.85-.93,1.21-.07.14-.21.43-.36.5-.28.21-.21.14-.57-.14-.57-.5-1.14-1-1.64-1.49-.71-.64-1.42-1.21-2.14-1.78-.43-.36-.85-.71-1.42-.85-.21,0-.43.28-.21.43h0Z" style="fill: #463c39; stroke-width: 0px;"/>
                  <path d="m116.13,103.81c-1.42.21-9.89.14-17.44,2.28-3.77,1.07-5.84,2.21-4.2,3.06,1.35.71,14.88-1.64,19.22-2.42.64-1.21,1.71-2.14,2.42-2.92Z" style="fill: #463c39; stroke-width: 0px;"/>
                  <path d="m136.56,104.1c1.35.36,9.75,1.42,16.94,4.56,3.63,1.57,5.48,2.99,3.77,3.56-1.42.5-14.52-3.63-18.72-4.91-.5-1.21-1.35-2.28-1.99-3.2Z" style="fill: #463c39; stroke-width: 0px;"/>
                  <path d="m115,104.17c-1.71,1.71-2.7,3.84-2.49,6.34.28,2.7,1.57,5.34,2.78,7.69.43.85.93,1.78,1.42,2.63.43.78.93,1.64,1.64,2.21,1.14.85,2.28-.28,3.2-1,.78-.64,1.64-1.21,2.35-1.92.5-.43,1.28-.93,1.57-1.57.14-.28-.14-.57-.43-.43-.57.36-1.07.85-1.57,1.35-.78.71-1.64,1.42-2.49,2.06-.43.36-1.14,1.07-1.71,1.14-.85.14-1.64-1.64-1.99-2.21-1.35-2.42-2.7-4.91-3.63-7.55-.5-1.35-.78-2.85-.57-4.34.28-1.57,1.21-2.92,2.35-3.99.28-.21-.14-.71-.43-.43h0Z" style="fill: #463c39; stroke-width: 0px;"/>
                  <path d="m111.79,84.59c.5.85.93,1.71,1.35,2.56.21.43.36.85.57,1.28.07.21.21.43.28.64.07.21.21.43.36.64.21.21.5.07.5-.21,0-.21-.07-.5-.14-.71-.07-.21-.14-.5-.28-.71-.21-.43-.43-.85-.64-1.28-.43-.85-1-1.64-1.49-2.49-.21-.43-.71-.07-.5.28h0Z" style="fill: #fff; stroke-width: 0px;"/>
                  <path d="m139.05,83.67c-.64.85-1.14,1.78-1.57,2.78-.21.5-.36,1-.5,1.49-.07.28-.14.5-.21.78-.07.21-.14.5-.14.78s.43.43.57.14c.14-.21.14-.5.21-.71s.14-.5.21-.71c.14-.5.36-1,.5-1.49.36-.93.85-1.85,1.42-2.7.21-.28-.28-.64-.5-.36h0Z" style="fill: #fff; stroke-width: 0px;"/>
                  <path d="m152.29,151.01s6.34-1.64,13.81-1.42c4.84.14,9.32,1.49,9.32,1.49,0,0-3.06,9.82-2.99,10.04.07.14-24.7-1.07-24.49-1.42.07-.43,4.34-8.68,4.34-8.68Z" style="fill: #eeeded; stroke-width: 0px;"/>
                  <path d="m155.64,151.36s-4.77,1.71-8.19,10.25c-3.49,8.54-4.77,62.21-4.77,62.21,0,0,22.14,1.92,26.19.5,4.13-1.42,6.19-12.6,6.19-12.6,0,0,2.7-57.94.28-59.22-2.35-1.28-14.66-2.56-19.72-1.14Z" style="fill: #00d1d8; stroke-width: 0px;"/>
                  <path d="m173.01,220.55v3.42c-1.57,1.07-3.2,2.06-4.91,3.06-3.63,2.06-7.4,3.92-11.39,5.48-3.84,1.49-7.83,2.78-11.89,3.77-.85.21-1.78.43-2.63.57l-1.28-16.3c.14-.07.78.07,1.85.28h0c.43.07.93.21,1.49.28,2.78.5,6.98,1.14,11.89,1.07.5,0,1,0,1.57-.07,4.13-.21,7.62-.57,10.32-.85,1.92-.21,3.35-.43,4.2-.57h0c.5-.14.78-.14.78-.14Z" style="fill: #007399; stroke-width: 0px;"/>
                  <g>
                    <path d="m187.46,211.8c-1.28,1.35-2.63,2.63-3.99,3.84-.43.36-.78.71-1.21,1.07l-.21.21c-2.85,2.49-5.91,4.84-9.11,6.98-1.57,1.07-3.2,2.06-4.91,3.06,0-.78,0-1.64-.07-2.42h0c0-1.07-.07-2.21-.07-3.27,0-.85-.07-1.71-.07-2.56v-1.35h0c-.07-2.7-.14-5.34-.21-8.04-.07-1.35-.07-2.63-.07-3.99v-.36h0v-.43h0c0-1.07,0-2.06-.07-3.13h0v-4.06h0c0-1.78,0-3.49.07-5.27h0c.07-3.49.14-6.9.28-10.39.21-5.98.5-12.03,1.35-17.94.14-.85.28-1.71.43-2.56v-.07h0c.43-2.14,1-4.2,1.85-6.19.07-.21.14-.43.28-.57.07-.21.21-.43.28-.71h0c.14-.43.36-.85.5-1.28h0c.07-.14.14-.36.21-.5h0q0-.07.07-.14h0c.07-.21.14-.36.21-.5.07-.07.07-.21.14-.28.07-.07.07-.14.14-.21h0c.57.07,1.14.21,1.64.36.28.07.5.14.78.21h0c.28.07.64.14.93.21.21.07.5.14.71.21,1.78.5,3.35,1.07,4.84,1.71.78.36,1.49.71,2.21,1.07.14.07.28.21.36.5.43.93.85,3.06,1.14,6.05,1.21,11.32,1.49,34.59,1.64,48.55-.07.57-.07,1.42-.07,2.21Z" style="fill: #f6f5f5; stroke-width: 0px;"/>
                    <path d="m156.07,150.37c-.14.14-.36.36-.57.57h0c-.07.07-.14.14-.21.21h0c-.07.07-.14.14-.21.21-.14.14-.21.28-.36.43h0c-.07.07-.14.21-.28.36-.21.28-.43.5-.64.78-1.07,1.49-2.28,3.42-3.35,5.98-.14.28-.28.64-.43.93h0c-.21.5-.43,1.07-.64,1.64-.5,1.35-.93,2.92-1.35,4.56h0c0,.07-.07.21-.07.28-.14.43-.21.93-.28,1.35-.21,1-.36,1.99-.57,3.06-.14.71-.21,1.42-.28,2.21-.14,1.21-.28,2.49-.43,3.77-.5,4.63-.85,9.82-1.21,15.16v.21h0v.57c-.28,4.56-.5,9.11-.64,13.45h0c-.07,1.85-.14,3.56-.21,5.27v.71h0v.85h0c-.07,2.92-.14,5.69-.14,8.04v2.85c0,2.28.07,4.13.14,5.27.21,2.21.36,4.7.43,6.98-.85.21-1.78.43-2.63.57-1.85.43-3.77.71-5.69,1-.21-4.98-.57-12.96-.64-21.71v-3.27c.14-4.84.5-11.53,1.14-18.65,0-.21,0-.43.07-.64h0c0-.21.07-.43.07-.57h0c.07-.71.14-1.35.21-2.06v-.43c.07-.5.07-1.07.14-1.64.36-3.7.78-7.47,1.21-11.1.21-1.85.5-3.7.71-5.48h0c.07-.5.14-.93.21-1.35.14-.85.28-1.71.36-2.56.07-.64.21-1.21.28-1.85.28-1.85.64-3.63.93-5.13.78-3.84,1.64-6.55,2.42-7.4h0c.07-.07.21-.21.28-.21,1.07-.71,2.35-1.21,3.7-1.64.07-.07.21-.07.36-.07,1.42-.43,2.85-.78,4.27-1h.21c.71-.14,1.35-.21,1.99-.36.21,0,.43-.07.64-.07h.14c.43,0,.64,0,.93-.07Z" style="fill: #f6f5f5; stroke-width: 0px;"/>
                  </g>
                  <path d="m147.38,152.43s-7.12,1.99-13.03,9.11-8.76,18.86-10.68,26.27c-1.92,7.47-1.64,19.79,6.05,23.77,7.69,4.06,19.43-.85,26.91-2.85,7.47-1.99,13.88-5.2,13.88-5.2,0,0-2.28-4.27-1.78-7.47s1.07-4.13,1.07-4.13c0,0-19.65.36-23.92.5s-6.98.36-6.98.36c0,0,3.35-26.98,4.77-30.68,1.28-3.7,3.7-9.68,3.7-9.68Z" style="fill: #f6f5f5; stroke-width: 0px;"/>
                  <path d="m187.24,156.06c-8.19-5.91-11.89-5.05-11.89-5.05l-2.35,4.2c.28,1,.43,2.06.64,3.13.36,1.85.93,3.7,1.49,5.55.64,2.14,1.14,4.34,1.71,6.55.85,3.77,1.64,7.62,1.92,11.53.28,3.7.36,7.76-1.28,11.1-.64,1.42-1.64,2.63-2.92,3.49-1.99,1.21-4.34,1.28-6.62,1.35-1.78.07-3.63,0-5.41.07-1.92,0-3.77.14-5.69.21-2.63.14-5.2.21-7.83.28l-7.55,13.38s6.62,3.56,20.86,4.98c14.24,1.42,21.64.93,27.12-3.35s8.26-14.31,8.76-28.54c.43-14.24-2.78-22.99-10.96-28.9Z" style="fill: #f6f5f5; stroke-width: 0px;"/>
                  <path d="m172.37,151.29c2.78,2.49,5.48,5.41,7.33,8.61.43.78.85,1.57,1.14,2.42s.43,1.64-.64,1.85c-1.35.28-2.78.43-3.99,1.07-3.13,1.64.43,5.84,1.28,7.76.36.78.57,1.64.5,2.49-.07,1-.71,1.78-1.28,2.56-1.21,1.57-2.56,2.99-3.56,4.7-1.21,2.06-2.21,4.34-2.99,6.69-.71,2.21-1.42,4.7-1.07,7.05.07.5.78.36.85-.14.28-2.28.57-4.48,1.28-6.69s1.64-4.34,2.78-6.34c.57-1,1.07-1.99,1.71-2.85.57-.78,1.28-1.42,1.85-2.21,1-1.35,1.57-2.63,1.14-4.34-.43-1.64-1.57-2.99-2.28-4.48-.36-.71-.78-1.64-.71-2.49.07-.93,1-1.21,1.71-1.42s1.42-.43,2.14-.64c.57-.21,1.21-.21,1.64-.64,1.07-.85.14-2.7-.28-3.63-1.78-3.84-4.98-7.05-8.11-9.75-.28-.14-.64.21-.43.43h0Z" style="fill: #cdcaca; stroke-width: 0px;"/>
                  <path d="m154.5,151.36c-3.35,2.21-6.76,4.48-9.32,7.62-.21.28-.43.57-.64.85-.36.43-.71.93-1,1.35-.5.64-1,1.42-1.21,2.21-.21.85.07,1.49.5,2.06.36.5.85.93,1.28,1.42,1.85,2.28-.71,5.13-1.71,7.19-.93,1.85-1.78,3.77-1.42,5.91.28,1.85,1.21,3.56,1.85,5.34.71,1.78,1.07,3.56,1.28,5.48.07.57.07,1.14.07,1.71h-.78c0-.85-.07-1.64-.14-2.49-.21-2.35-1.07-4.34-1.92-6.55-.36-.85-.71-1.78-.85-2.7-.21-.85-.28-1.78-.14-2.7.14-1.07.5-2.06,1-3.06.28-.64.64-1.28,1-1.85.78-1.35,2.06-2.99,2.06-4.56,0-1.07-.85-1.78-1.64-2.56-.21-.21-.43-.43-.57-.71-.78-1.21-.21-2.56.5-3.63.78-1.21,1.57-2.42,2.56-3.56.14-.21.36-.43.5-.57,2.49-2.7,5.55-4.7,8.54-6.69.21-.21.5.28.21.5Z" style="fill: #cdcaca; stroke-width: 0px;"/>
                  <path d="m168.1,204.32c1.07-.43,2.06-.85,3.06-1.28,1.42-.57,3.42-1.14,4.2-2.56.21-.43.21-.93.28-1.42s.21-1.07.28-1.57c.21-1.07.5-2.06.78-3.06.36-1.28.71-2.63,1-3.92-1.49.36-3.13,1.21-3.49,1.42-.5.28-4.84-.07-4.84-.07-2.7.78-2.35,10.68-1.49,12.24.14.07.14.14.21.21Z" style="fill: #ffbea7; stroke-width: 0px;"/>
                  <path d="m145.32,192.01c-.07.28-.07.21-.07.5-1.85.14-7.4,1-8.33,1.14-1.92.28-3.92.64-5.77,1.21-.28.07-.43-.36-.14-.5,1.71-.57,3.42-.93,5.13-1.21.28-.07.57-.07.85-.14,1-.14,1.99-.36,2.99-.5,1.78-.21,3.56-.36,5.34-.5Z" style="fill: #c6c2c2; stroke-width: 0px;"/>
                  <path d="m136.14,213.5c4.06-.57,8.04-1.21,12.03-2.06,2.21-.5,4.34-1.14,6.55-1.85,5.34-1.71,10.75-3.42,15.94-5.55,1.14-.43,2.21-.93,3.27-1.49.64-.36,1.21-.71,1.57-1.28.21-.36-.36-.64-.5-.28.07-.14,0,0-.07.07-.14.07-.21.14-.36.28-.28.21-.57.36-.85.57-.85.5-1.78.93-2.7,1.28-2.63,1.14-5.27,2.06-7.97,2.99-2.63.93-5.2,1.78-7.83,2.63-1.92.64-3.92,1.28-5.91,1.78-4.34,1.07-8.83,1.78-13.24,2.42-.57-.07-.36.57.07.5h0Z" style="fill: #cdcaca; stroke-width: 0px;"/>
                  <path d="m180.62,171.22c-.07.64-.21,1.28-.28,1.92-.07.93-.07,1.78-.14,2.7-.07,1.14-.43,2.28-.64,3.35-.28,1.21-.43,2.42-.71,3.63-.93,4.7-1.78,9.4-2.78,14.02-.21.93-.43,1.85-.64,2.7-.14.57-.28,1.14-.36,1.71,0,.21.36.43.5.21.78-1,.93-2.49,1.21-3.7.5-2.14.93-4.27,1.28-6.41.93-4.91,1.64-9.82,2.28-14.73.14-1.07.57-2.06.71-3.2.07-.71.14-1.49.14-2.21.14-.5-.5-.43-.57,0h0Z" style="fill: #cdcaca; stroke-width: 0px;"/>
                  <path d="m139.91,166.67c-1.28,5.05-1.71,10.32-2.06,15.52-.14,2.63-.28,5.27-.5,7.83-.07,1.14-.14,2.28-.21,3.42.28-.14.57-.28.85-.36h.07c.07-.93.07-1.85.14-2.7.14-2.63.21-5.27.36-7.83.28-5.27.78-10.46,1.78-15.66.14-.43-.36-.5-.43-.21Z" style="fill: #c6c2c2; stroke-width: 0px;"/>
                  <path d="m164.18,193.79c-.85.5-1,1.78-1.07,2.63-.14,1.07-.07,2.14,0,3.2.07,1.14.21,2.35.5,3.49.14.64.36,1.21.57,1.78.14.36.43,1,.85,1.07.14,0,.28,0,.28-.14.07-.36-.21-.93-.36-1.28-.21-.5-.36-1-.5-1.57-.28-1.07-.43-2.14-.57-3.27-.07-.93-.07-1.85-.07-2.78.07-1.07.28-1.92.64-2.85.14-.21-.14-.36-.28-.28h0Z" style="fill: #c6c2c2; stroke-width: 0px;"/>
                  <path d="m187.74,214.64c0,.14-.07.21-.14.28l-.07.07c-.43.28-1,.5-1.57.71-.21.07-.5.14-.71.21-.78.28-1.57.57-2.42.78-1.57.5-3.2.85-4.77,1.14-1.57.21-3.2.36-4.77.21h-.21c-.85-.07-1.71-.14-2.63-.21-.85-.07-1.71-.07-2.56-.14h0c-.21,0-.28-.36-.07-.43h.21c1.57-.36,3.27-.07,4.84,0h.78c1.49.07,2.92-.07,4.41-.28,1.64-.28,3.35-.64,4.91-1.14.78-.21,1.49-.5,2.28-.78.71-.28,1.35-.64,2.06-.71h.28c.07,0,.14.14.14.28Z" style="fill: #cdcaca; stroke-width: 0px;"/>
                  <path d="m168.81,149.23c.64.85,1.42,1.57,2.06,2.42.71.93,1.14,1.99,1.57,3.06.93,2.21,1.49,4.77,1.71,7.19.21,2.42.28,4.91.28,7.4s-.07,4.84-.36,7.26c-.36,2.7-1.14,7.05-1.49,9.25-.07.36.85.36,1.07,0,.36-.71.78-3.06,1-4.13.21-1.35.5-2.63.71-3.99.36-2.56.5-5.13.43-7.69,0-2.56-.07-5.13-.28-7.69-.21-2.49-.71-5.13-1.64-7.4-.5-1.21-1.14-2.42-1.85-3.42-.71-1-1.64-1.78-2.42-2.7-.5-.64-1.07,0-.78.43h0Z" style="fill: #463c39; stroke-width: 0px;"/>
                  <path d="m174.5,184.53c-.14-.14-.36-.28-.5-.43-.14-.07-.21-.14-.36-.21h0c-.28-.14-.5-.21-.78-.21h-.5c-1.14.07-2.28.71-2.7,1.78-.5,1.14-.21,2.63.71,3.49l.07.07c.28.21.57.43.85.5h0c.78.28,1.71.28,2.42-.14.78-.43,1.42-1.21,1.64-2.06.28-1-.14-2.06-.85-2.78Z" style="fill: #706967; stroke-width: 0px;"/>
                  <g>
                    <path d="m143.18,188.45h0s0,.07,0,0h0s.07,0,0,0h0Z" style="fill: #463c39; stroke-width: 0px;"/>
                    <path d="m142.26,190.23h0c-.07-.07-.07,0,0,0Z" style="fill: #463c39; stroke-width: 0px;"/>
                  </g>
                  <path d="m155.14,150.51c-3.27,1.14-5.55,3.99-7.12,6.98-.78,1.57-1.42,3.2-1.92,4.91-.21.78-.43,1.57-.64,2.35-.14.57-.43,1.49-.43,2.28h.07c.21-.14.5-.21.78-.21h0v-.21c.07-.5.21-1.07.36-1.57.14-.78.36-1.49.57-2.21.5-1.57,1.07-3.06,1.78-4.56,1.42-2.92,3.56-5.62,6.69-6.9.43-.36.28-1-.14-.85Z" style="fill: #463c39; stroke-width: 0px;"/>
                  <g>
                    <path d="m149.8,131.72s-1.14-2.06-2.42-1.42c-1.35.64-.57,5.05,1.28,5.98,1.85.93,3.06-.14,3.06-.14l-1.92-4.41Z" style="fill: #ffbea7; stroke-width: 0px;"/>
                    <path d="m154.22,144.81s.5,7.9.14,8.97c-.36,1.07-2.63,2.28-1.78,3.92s6.76,1.92,12.46.5,5.91-2.63,5.91-5.34-.57-14.31-.57-14.31c0,0-14.95,3.7-16.16,6.26Z" style="fill: #ffbea7; stroke-width: 0px;"/>
                    <path d="m149.09,124.03s-.14,16.87,3.49,21.57c2.78,3.63,8.61,4.34,12.53,1.64,3.92-2.7,5.91-5.98,7.19-8.97,1.28-2.99,1.85-11.67,1.64-15.23-.14-3.56-.07-10.04-5.69-11.1-5.62-1.14-18.29,7.9-19.15,12.1Z" style="fill: #ffbea7; stroke-width: 0px;"/>
                    <path d="m172.44,130.58s3.2-2.85,4.56-.93-.07,5.34-2.42,6.34c-1.64.64-3.56-.93-3.56-.93l1.42-4.48Z" style="fill: #ffbea7; stroke-width: 0px;"/>
                    <path d="m148.66,130.36l.85,1.57s-1.07-6.55,2.49-9.32c3.56-2.78,7.83-2.56,11.67-3.99,3.35-1.21,5.27-2.78,5.27-2.78,0,0,.07,3.92,1,8.04.93,4.13,2.63,6.26,3.06,6.62.5.43,3.35-6.12,4.06-9.11.85-3.35,1.71-7.33-1.35-8.68-3.13-1.35-5.62-.71-5.62-.71,0,0-2.49-7.33-11.46-4.91-7.83,2.06-7.33,6.19-8.83,6.83-1.49.71-4.63,2.35-4.13,7.19.71,4.84,2.99,9.25,2.99,9.25Z" style="fill: #463c39; stroke-width: 0px;"/>
                    <path d="m155.21,128.16c-.28-.5-.71-.85-1.35-.78-.57.07-1.07.57-1.21,1.07-.21.85,0,1.99,1,2.28.85.21,1.49-.28,1.71-1,.21-.43.14-1.07-.14-1.57Z" style="fill: #463c39; stroke-width: 0px;"/>
                    <path d="m167.17,127.87c-.28-.57-.78-.93-1.49-.85-.64.07-1.14.57-1.28,1.14-.21.93-.07,2.21,1.14,2.49.93.21,1.64-.36,1.85-1.07.14-.43.07-1.14-.21-1.71Z" style="fill: #463c39; stroke-width: 0px;"/>
                    <path d="m156.71,125.03c-.43-.28-1.49-.36-1.99-.28-.57,0-1.14.14-1.64.36s-1.35.78-1.49,1.35c-.07.5.14.36.5.28.5-.14.93-.28,1.42-.28.93,0,1.85.07,2.7-.07.93-.21,1.07-.93.5-1.35Z" style="fill: #463c39; stroke-width: 0px;"/>
                    <path d="m163.11,124.67c.43-.36,1.42-.43,1.99-.43s1.14.07,1.64.28c.5.14,1.35.71,1.49,1.28.14.43-.14.36-.43.28-.5-.14-.93-.21-1.49-.21-.93,0-1.85.14-2.7.07s-1.07-.78-.5-1.28Z" style="fill: #463c39; stroke-width: 0px;"/>
                    <path d="m169.38,135.13c.14-.14.36-.28.5-.43.21-.21.36-.43.57-.71.36-.5.71-1,1.07-1.42.71-1,1.49-1.92,2.42-2.7.21-.14.43-.28.64-.43.21-.14.57-.28.5-.57-.14-.64-1.07,0-1.35.21-1,.71-1.78,1.64-2.56,2.56-.43.57-.85,1.14-1.28,1.71-.21.28-.36.5-.57.78-.14.21-.21.5-.36.71-.14.28.21.5.43.28h0Z" style="fill: #fff; stroke-width: 0px;"/>
                    <path d="m149.73,134.49s3.77-3.42,9.32-3.63c5.48-.14,10.82,2.92,10.96,3.2.14.28.64,8.26.43,8.68-.21.43-4.7,6.41-11.39,6.34-9.82-.07-9.32-14.59-9.32-14.59Z" style="fill: #fff; stroke-width: 0px;"/>
                    <path d="m149.95,133.21c-.14-.36-.36-.78-.43-1.21,0-.07-.07-.21-.07-.28l-.78-1.42s-.14-.36-.43-.93c-.07.07-.07.14-.07.28.14.93.28,1.78.57,2.63.14.43.28.78.5,1.21.21.43.36.85.71,1.07.28.21.5-.14.5-.36-.07-.21-.28-.64-.5-1Z" style="fill: #fff; stroke-width: 0px;"/>
                    <path d="m173.15,136.06c-.28,1-.78,1.92-1.28,2.85-.36.64-.71,1.28-1.07,1.85-.43.57-.85,1.14-1.28,1.71-.21.28.14.5.43.43.64-.28,1.14-1,1.49-1.57.43-.64.78-1.35,1.14-2.06.28-.64.64-1.28.93-1.92.14-.36.36-.78.43-1.14-.28-.07-.5-.07-.78-.14Z" style="fill: #fff; stroke-width: 0px;"/>
                    <path d="m170.23,136.27c-.85,0-1.71-.21-2.56-.36-.43-.07-.85-.14-1.28-.14-.36,0-.85-.07-1.21.14-.14.07-.14.21,0,.28.36.21.85.21,1.21.28.43.07.85.14,1.28.21.85.07,1.71.14,2.56.14.36,0,.36-.57,0-.57h0Z" style="fill: #a3cdda; stroke-width: 0px;"/>
                    <path d="m170.16,139.05c-.14.21-.28.43-.5.64-.21.21-.36.43-.57.64-.21.21-.36.36-.57.57-.07.14-.21.21-.28.36-.07.07-.14.21-.21.28-.14.14,0,.43.21.36.14-.07.28-.14.36-.14s.14-.07.21-.07c.07-.07.14-.07.14-.14.28-.21.5-.43.64-.64.21-.21.36-.5.5-.71.14-.28.28-.5.43-.78.21-.43-.21-.64-.36-.36h0Z" style="fill: #a3cdda; stroke-width: 0px;"/>
                    <path d="m150.16,138.76c.21-.14.43-.28.57-.43.14-.07.21-.14.36-.28l.14-.14c.07-.07.07-.14.14-.21,0-.14,0-.21-.14-.28-.07,0-.14-.07-.28,0-.07,0-.14.07-.21.07-.14.07-.21.14-.28.21-.21.14-.36.28-.57.43-.14.07-.21.36-.14.5.07.14.28.21.43.14h0Z" style="fill: #a3cdda; stroke-width: 0px;"/>
                    <path d="m150.52,142.75c.21.07.43.14.64.21.07,0,.21.07.28.07h.36c.14,0,.21-.14.07-.21-.07,0-.07-.07-.14-.07q-.07-.07-.14-.07c-.14-.07-.21-.07-.36-.14-.07,0-.21-.07-.28-.07s-.07,0-.14-.07h-.07s-.07,0-.07-.07c-.14-.07-.28,0-.36.07.07.14.07.28.21.36h0Z" style="fill: #a3cdda; stroke-width: 0px;"/>
                  </g>
                  <g>
                    <path d="m153.36,179.69c.07-2.06.07-4.13-.21-6.19,0-.14-.07-.28-.07-.36-.36-2.06-1.21-3.99-2.78-5.41-.64-.57-1.35-1-2.21-1.21h-.07c-.28-.07-.57-.14-.85-.21h0v-.43c-.07-.43-.21-.78-.57-1.07h0c-.07-.07-.14-.07-.21-.14-.28-.07-.57-.14-.85-.07h0c-.07,0-.21.07-.28.07-.43.14-.85.43-1.07.85-.07.14-.14.21-.14.36v.07c0,.07-.07.21-.07.28-.07,0-.14,0-.28.07h-.14c-.14.07-.28.07-.5.14h-.07c-.14.07-.28.07-.43.14-.93.36-1.71.93-2.42,1.57l-.14.14c-.21.21-.43.5-.64.78h0c-.36.5-.71,1-1,1.49-.36.64-.64,1.28-.85,1.99-.64,1.71-1,3.63-1.21,5.34-.07.64-.14,1.28-.21,1.85-.14,1.64-.21,3.27-.21,4.91,0,1.49.14,3.06.71,4.41.21.5.43.93.78,1.28h0c.21.28.5.43.85.57.14.07.36.14.57.14h.21c.78.07,1.49-.21,2.28-.28.36-.07.71-.07,1-.07.43,0,.43-.64,0-.64h-1.07c-.57.07-1.07.14-1.64.21h-.5c-.36-.07-.64-.14-.85-.28-.36-.28-.57-.71-.71-1.28q0-.07-.07-.14h0c-.57-2.35-.36-4.91-.21-7.26.07-1.21.21-2.35.43-3.56.21-1,.43-2.06.78-3.06h0c.07-.36.21-.64.36-1,.21-.5.36-1,.64-1.49h0c0-.07.07-.14.14-.21h0c.21-.36.36-.71.57-1.07.5-.85,1.14-1.64,1.99-2.28,0,0,.07,0,.07-.07.21-.14.5-.36.78-.5.36-.21.71-.36,1.14-.43.14-.07.28-.07.43-.14.5-.14,1.07-.14,1.57-.14h0c.57,0,1.07.14,1.64.36.14.07.28.07.43.14.28.14.64.28.93.43.85.5,1.42,1.21,1.92,1.99.43.78.71,1.64.85,2.56.21,1,.21,1.99.28,2.99,0,.93,0,1.85.07,2.78.07,1.42.14,2.85.07,4.2-.07,1.85,0,3.7-.5,5.48-.14.43-.28,1.28-.78,1.49-.28.14-.85.07-1.14.07h-1.49c-.71,0-.64,1,0,1.07h.5c1.35.14,2.92.21,3.63-1.21.78-1.57.78-3.56.93-5.34.07-.93,0-1.78-.07-2.7v-1.28c0-.14,0-.43,0-.71Z" style="fill: #706967; stroke-width: 0px;"/>
                    <path d="m147.17,166.17c-.36-.07-.71-.07-1.07-.07h-1.35c-.36,0-.71.07-1.07.14.07,0,.14,0,.28-.07,0-.14,0-.21.07-.36.21,0,.43-.07.64-.07.43-.07.93-.07,1.35-.07.36,0,.71,0,1.14.07h0v.43Z" style="fill: #463c39; stroke-width: 0px;"/>
                    <path d="m141.4,191.79c0,.07.07.14.07.21.21.36.5.71.93.78.36.07.64-.21.93-.5.07-.14.14-.21.14-.36.36-.71.57-2.06.14-2.85-.21-.36-.57-.5-.93-.64-.28-.07-.57-.07-.78.07-.64.36-.64,1.28-.64,1.92,0,.5.07.93.14,1.35Z" style="fill: #463c39; stroke-width: 0px;"/>
                    <path d="m146.53,191.65c0,.07.07.14.07.21.21.36.5.71.93.78.36.07.64-.21.93-.5.07-.14.14-.21.14-.36.36-.71.57-2.06.14-2.85-.21-.36-.57-.5-.93-.64-.28-.07-.57-.07-.78.07-.64.36-.64,1.28-.64,1.92,0,.5,0,.93.14,1.35Z" style="fill: #463c39; stroke-width: 0px;"/>
                  </g>
                  <path d="m171.73,185.17c-.28.14-.5.28-.71.57-.14.21-.21.5-.21.78,0,.57.28,1.07.71,1.42.14.07.21.21.36.28s.36.14.5.14c.28,0,.57,0,.85-.14.57-.28.93-.93.93-1.49,0-.36-.07-.78-.28-1.07-.14-.28-.5-.64-.85-.57-.07,0-.07.07-.07.14.07.14.21.14.28.28.14.07.21.21.28.28.14.21.28.5.28.78.07.5-.21,1.07-.64,1.28-.21.14-.43.21-.64.21s-.5-.07-.71-.21c-.43-.21-.64-.64-.71-1.07-.07-.57.28-1.07.71-1.35.14-.14.07-.36-.07-.28h0Z" style="fill: #463c39; stroke-width: 0px;"/>
                  <path d="m126.24,189.16s3.63,7.62,4.48,13.38c.85,5.77.85,13.88-8.11,16.3-8.97,2.42-14.59-1.78-14.59-1.78l1-26.19,17.23-1.71Z" style="fill: #ffae91; stroke-width: 0px;"/>
                  <g>
                    <path d="m92.93,118.55s5.62-3.35,9.75-.43c4.13,2.99,1.92,8.47,4.77,12.88,2.85,4.41,9.11,10.96,6.34,19.5-2.7,8.54-15.87,10.82-25.06,12.39-9.18,1.64-19.08-.64-23.77-7.33-4.7-6.69-3.63-17.23,2.35-22.99,5.98-5.77,6.41-10.39,9.89-14.09,4.13-4.34,9.97-4.06,12.46-2.49,2.35,1.35,3.27,2.56,3.27,2.56Z" style="fill: #a0572f; stroke-width: 0px;"/>
                    <path d="m98.48,157.2s11.82,3.35,17.3,8.26c5.48,4.91,13.6,28.54,13.6,28.54,0,0-6.34,1.42-9.61,3.35-3.2,1.92-4.34,2.63-4.34,2.63l-16.94-42.78Z" style="fill: #00d1d8; stroke-width: 0px;"/>
                    <path d="m120.41,194c-2.21.71-4.34,1.64-6.12,3.06l1.21,2.99s1.14-.71,4.34-2.63c3.2-1.92,9.61-3.35,9.61-3.35,0,0-.28-.93-.85-2.35-2.78.5-5.48,1.42-8.19,2.28Z" style="fill: #b5f2f4; stroke-width: 0px;"/>
                    <path d="m120.41,238.63c-6.69-.28-13.24-1.28-19.43-2.99-7.47-1.99-14.59-4.98-21.14-8.83-.64-.36-1.28-.78-1.92-1.14h0c-.57-.36-1.14-.71-1.71-1.07h0c-3.56-2.28-6.98-4.91-10.18-7.69h0c-1.07-3.92-1.92-7.9-2.63-11.6-.36-1.78-.64-3.42-.85-4.98h0c-.07-.71-.21-1.35-.28-2.06-.36-2.56-.64-4.63-.85-6.12-1.21-9.4-.14-22.49-.14-22.49,0,0,1.07-1.49,2.85-3.35h0c1.57-1.64,3.7-3.49,6.05-4.7.43-.21.93-.43,1.35-.71,1.21-.57,2.49-1.14,3.7-1.64h0c.21-.07.43-.21.71-.28.07,0,.14-.07.21-.07.36-.14.64-.21,1-.36.14-.07.36-.14.5-.14.57-.21,1.07-.36,1.57-.57.36-.14.71-.21,1.07-.36.21-.07.43-.14.57-.14h.14q.07,0,.14-.07c.07,0,.21-.07.28-.07s.14-.07.21-.07c.14-.07.36-.07.5-.14.14-.07.28-.07.43-.14.14-.07.28-.07.43-.07s.28-.07.36-.07.14,0,.21-.07h.21c.14,0,.36-.07.57-.07.28-.07.57-.07.93-.14.14,0,.36-.07.5-.07.71-.07,1.49-.21,2.42-.21h3.7c.28,0,.5,0,.78.07h.14c.14,0,.36,0,.5.07.28,0,.57.07.85.07.21,0,.5.07.71.07.14,0,.28.07.43.07.07,0,.21,0,.28.07.43.07.85.14,1.28.28h0c.14.07.28.07.5.14.14.07.36.07.5.14.14.07.28.07.5.14.14.07.36.07.5.14.07,0,.07.07.14.07s.07,0,.14.07h.07c.36.14.78.43,1.21.71.57.43,1.21,1,1.85,1.64.57.64,1.21,1.35,1.85,2.21.21.21.36.5.57.71.36.5.78,1.07,1.14,1.64,1.35,1.99,2.78,4.27,4.06,6.62h0c.21.36.36.71.57,1h0c.14.21.28.5.43.71.57,1.07,1.14,2.14,1.64,3.13.36.78.71,1.49,1.07,2.21,1.35,2.99,2.42,5.62,2.99,7.47.36,1.14.57,2.63.85,4.48.21,1.49.36,3.13.5,4.98.07,1.14.21,2.28.28,3.49h0c.07.78.14,1.57.14,2.42h0c0,.21,0,.43.07.71h0c0,.28,0,.5.07.78h0c.28,5.62.5,11.75.64,17.08h0v.28c.21,6.83.43,12.39.71,14.02.14,1.35.36,3.06.57,4.77Z" style="fill: #00d1d8; stroke-width: 0px;"/>
                    <path d="m110.37,170.01c-1.14,1.35-.57,3.56-.07,5.05.28,1,.64,1.92,1,2.92.14.43.28.78.5,1.21.14.28.21.64.5.85.07.07.21,0,.21-.07.07-.28-.07-.57-.14-.85-.14-.36-.28-.71-.43-1.07-.36-.85-.64-1.78-.93-2.7-.21-.93-.43-1.85-.5-2.78-.07-.71,0-1.49.36-2.21,0-.28-.28-.57-.5-.36h0Z" style="fill: #82bacd; stroke-width: 0px;"/>
                    <path d="m105.96,159.9c-1.42,3.42-7.26,14.31-10.46,14.09-3.56-.21-19.86-12.88-20.29-14.66,3.63-1.42,7.05-2.42,8.54-2.63,2.21-.36,8.47-1.42,15.02.64.07,0,.07.07.14.07,1.14.28,3.91,1.14,7.05,2.49Z" style="fill: #b5f2f4; stroke-width: 0px;"/>
                    <path d="m101.68,159.69c-.07.5-.21,1-.43,1.57-.85,2.21-4.98,8.9-5.69,9.25-.64.28-.36.21-4.2-2.06-3.2-1.92-9.54-7.4-11.67-9.25,1.35-1.07,1.42-2.14,1.64-4.13.21-2.28.21-8.4.21-8.4l15.38,2.42s-.71,5.69.07,8.19c.64,1.78,3.13,2.14,4.7,2.42Z" style="fill: #ffae91; stroke-width: 0px;"/>
                    <path d="m77.13,129.08s.14,15.45,4.77,19.22c4.56,3.77,13.17,4.34,17.51-.21,4.34-4.56,3.06-15.59,2.21-19.01-.85-3.35-2.63-5.13-5.2-6.98-2.63-1.92-7.05-2.92-7.05-2.92,0,0-11.39,7.55-12.24,9.89Z" style="fill: #ffae91; stroke-width: 0px;"/>
                    <path d="m78.69,137.06s-1.71-3.49-3.77-1.92c-2.06,1.49-1.28,5.05,1.42,5.69,2.7.64,3.77-.14,3.77-.14l-1.42-3.63Z" style="fill: #ffae91; stroke-width: 0px;"/>
                    <path d="m78.12,137.2s.78-3.06,2.56-6.05c2.06-3.56,4.63-4.34,7.83-5.98,3.92-1.99,5.05-4.27,5.62-5.48.57-1.21-4.27-2.28-7.83-1.99-3.56.21-11.6,4.7-12.46,11.1-.43,3.42,4.27,8.4,4.27,8.4Z" style="fill: #a0572f; stroke-width: 0px;"/>
                    <path d="m88.09,132.22c-.28-.57-.78-.93-1.49-.85-.64.07-1.14.57-1.28,1.21-.21.93-.07,2.28,1.14,2.49.93.21,1.64-.36,1.92-1.14.14-.43.07-1.14-.28-1.71Z" style="fill: #463c39; stroke-width: 0px;"/>
                    <path d="m99.48,132.22c-.28-.5-.71-.85-1.35-.78-.57.07-1.07.57-1.21,1.07-.21.85,0,2.06,1,2.35.85.21,1.49-.28,1.71-1.07.21-.43.14-1.07-.14-1.57Z" style="fill: #463c39; stroke-width: 0px;"/>
                    <path d="m84.74,130.44l.07-.07c.07-.07,0,0,0,0l.14-.14c.07-.07.14-.07.14-.14,0,0,.07-.07,0,0,0,0,.07,0,.14-.07.28-.07.57-.21.85-.28.07,0,.14,0,.21-.07,0,0,.14,0,.07,0s0,0,.07,0h.21s.14,0,.07,0,0,0,.07,0h.71s-.14,0-.07,0h.28c.07,0,.21-.14.21-.21s0-.21-.07-.28c0,0-.07-.14-.07-.07h0c0-.07-.07-.07-.14-.14-.14-.14-.36-.21-.5-.21-.43-.07-.78-.07-1.21.07-.21.07-.43.14-.57.21s-.36.21-.5.36l-.07.07c-.07.07.07,0-.07,0l-.21.21-.36.36c-.14.14-.07.36.07.5.21.07.36.07.5-.07h0Z" style="fill: #a0572f; stroke-width: 0px;"/>
                    <path d="m99.76,130.51l-.07-.07c-.07-.07,0,0,0,0l-.14-.14c-.07-.07-.14-.07-.14-.14,0,0-.07-.07,0,0,0,0-.07,0-.14-.07-.28-.07-.57-.21-.85-.28-.07,0-.14,0-.21-.07,0,0-.14,0-.07,0s0,0-.07,0h-.21s-.14,0-.07,0,0,0-.07,0h-.71s.14,0,.07,0h-.28c-.07,0-.21-.14-.21-.21,0-.14,0-.21.07-.28,0,0,.07-.14.07-.07h0c0-.07.07-.07.14-.14.14-.14.36-.21.5-.21.43-.07.78-.07,1.21.07.21.07.43.14.57.21s.36.21.5.36l.07.07c.07.07-.07,0,.07,0l.21.21.36.36c.14.14.07.36-.07.5-.14.07-.36.07-.5-.07h0Z" style="fill: #a0572f; stroke-width: 0px;"/>
                    <path d="m118.13,175.49s-32.6,1.78-32.81,3.27c-.21,1.42-1.57,42.28-.36,42.5,1.21.21,30.68-1.07,31.89-2.21,1.21-1.07,2.49-43.07,1.28-43.56Z" style="fill: #007399; stroke-width: 0px;"/>
                    <path d="m81.18,137.7s.21,4.13,0,5.98c-.21,1.85-.71,3.35-.71,3.35,0,0,2.78,5.05,11.1,4.91,8.04-.14,9.68-4.91,10.46-8.11.78-3.2.64-5.05.64-5.05,0,0-4.2-3.92-9.25-3.84-5.05,0-12.24,2.78-12.24,2.78Z" style="fill: #fff; stroke-width: 0px;"/>
                    <path d="m82.18,138.91c.07-.36-.14-.64-.28-.93-.14-.28-.36-.57-.5-.85-.36-.64-.78-1.21-1.28-1.71s-1.07-.93-1.71-1.28-1.42-.64-2.06-.28c-.21.14-.21.5,0,.64-.14-.28-.21-.28-.14-.14,0,.07.07.07.14.14s.14.07.21.07c.14.07.28.07.43.14.28.07.57.14.85.21.57.28,1.07.64,1.57,1.07s.93.93,1.28,1.49c.21.28.36.5.5.78.14.28.28.64.5.78.14.14.43.07.5-.14h0Z" style="fill: #fff; stroke-width: 0px;"/>
                    <path d="m81.61,147.16c-.28-.57-.78-1-1.21-1.42-.43-.5-.78-1-1.14-1.49-.36-.5-.64-1.07-.85-1.57s-.28-1.07-.43-1.57c-.21,0-.43,0-.64-.07-.14,1.28.57,2.63,1.21,3.63.36.57.78,1.14,1.21,1.64.43.5.85,1.14,1.42,1.42.21.14.57-.21.43-.57Z" style="fill: #fff; stroke-width: 0px;"/>
                    <path d="m82.32,140.83c.93-.14,1.92-.21,2.92-.21.93,0,1.92.07,2.78-.07.14,0,.14-.21,0-.21-.5-.14-1-.14-1.49-.14s-.93-.07-1.42-.07c-1,0-1.99.07-2.92.21-.36,0-.21.57.14.5h0Z" style="fill: #a3cdda; stroke-width: 0px;"/>
                    <path d="m82.04,144.17c.5.36,1,.78,1.49,1.14.21.21.5.36.78.5.14.07.28.14.43.21.14.07.36.07.5.07.21,0,.28-.28.14-.43-.14-.07-.21-.14-.36-.21s-.28-.14-.43-.21c-.28-.14-.5-.28-.78-.5-.5-.36-1-.71-1.49-1.07-.36-.21-.64.28-.28.5h0Z" style="fill: #a3cdda; stroke-width: 0px;"/>
                    <path d="m102.18,141.9c-.28-.14-.5-.28-.78-.36-.14-.07-.28-.07-.43-.14-.14-.07-.28-.07-.5-.07-.14,0-.36,0-.5.14-.07.07-.07.14-.07.21,0,.14.07.21.21.28.14.07.28.14.43.21.14,0,.28.07.43.07s.28.07.43.07c.07,0,.14.07.21.07s.07,0,.14.07h.07s.07,0,0,0c.14.07.36.07.43-.14.14-.14.07-.28-.07-.43h0Z" style="fill: #a3cdda; stroke-width: 0px;"/>
                    <path d="m100.97,145.45c-.21.07-.5.07-.71.14-.14.07-.28.07-.36.14-.07,0-.14.07-.14.07-.07,0-.07.07-.14.14-.14.07,0,.21.07.28.07,0,.14.07.21.07h.21c.14,0,.28,0,.43-.07.21-.07.5-.14.71-.21.14-.07.28-.21.21-.36-.14-.21-.28-.28-.5-.21h0Z" style="fill: #a3cdda; stroke-width: 0px;"/>
                  </g>
                  <path d="m117.77,217.28s-.21.07-.57.28h0c-.71.36-1.92.93-3.63,1.64h0c-.14.07-.28.14-.36.14h-.07c-.28.14-.64.28-1,.43s-.71.28-1.07.43c-1.78.71-3.77,1.42-5.91,2.14-1.49.5-2.99.93-4.48,1.28-1.14.28-2.35.5-3.49.71-1.57.28-3.2.5-4.77.71h0c-4.91.64-9.89,1-14.45.64h0c-.36,0-.71-.07-1.07-.14-2.78-.36-5.41-1-7.83-2.06-.43-.21-.78-.43-1.14-.64-2.28-1.49-3.99-4.13-5.2-6.98-.43-.93-.71-1.85-1.07-2.78-.07-.14-.14-.36-.14-.5-.57-1.78-1-3.49-1.28-4.91-.43-2.21-.57-3.7-.57-3.7-.14-.64-.14-1.21,0-1.85h0c.28-1.42,1.28-2.7,2.63-3.84,4.84-3.99,14.45-5.77,14.73-3.84.07.43.14.93.28,1.57.14.71.36,1.64.57,2.49.57,2.21,1.21,4.7,1.64,6.34q0,.07.07.14c.28,1,.43,1.64.43,1.64h.57c.71,0,2.14.07,3.92.07h0c4.2.14,10.68.36,16.3.57,1.42.07,2.85.14,4.13.21,1.28.07,2.42.14,3.42.28,1.57.14,2.7.28,3.27.5,2.78.85,4.84,5.55,5.69,7.76h0c.28.78.43,1.28.43,1.28Z" style="fill: #ffae91; stroke-width: 0px;"/>
                  <path d="m123.82,218.63c-4.7,2.06-9.54,1.14-11.39.64h0c-.07,0-.14-.07-.21-.07s-.14-.07-.21-.07-.07,0-.14-.07c-.07,0-.14,0-.14-.07h-.07c-.64-.07-7.26-1.14-13.74-2.21-6.48-1.07-12.81-2.14-13.1-2.42-.21-.14-1.28-1.07-2.42-2.28-.57-.57-1.14-1.21-1.64-1.92-1.42-1.85-2.35-3.84-1.07-5.13h0c.14-.14.36-.28.5-.43,3.42-2.35,13.6-3.77,22.14-3.77,9.04,0,20.86,2.42,20.86,2.42,0,0,4.48,2.06,4.7,3.27.14,1.21,1.99,9.4-4.06,12.1Z" style="fill: #ffae91; stroke-width: 0px;"/>
                  <path d="m64.38,166.17s-4.41,2.78-7.76,12.74c-3.27,9.97-.14,22.42.85,24.63,1,2.28,2.06,4.63,2.06,4.63,0,0,5.2-4.2,10.25-6.69,4.56-2.21,8.83-3.13,8.83-3.13,0,0-.71-7.9-4.41-16.87-3.7-9.04-9.82-15.3-9.82-15.3Z" style="fill: #00d1d8; stroke-width: 0px;"/>
                  <path d="m73.57,175.71c.93,3.77,1.71,7.55,2.49,11.32.36,1.85.71,3.7,1.14,5.55.21.93.43,1.92.64,2.85.21.93.43,1.92.78,2.78.07.21.43.14.43-.14-.14-.93-.5-1.85-.71-2.78s-.43-1.78-.64-2.7c-.43-1.92-.78-3.77-1.14-5.69-.71-3.84-1.42-7.62-2.49-11.32-.14-.28-.57-.14-.5.14h0Z" style="fill: #82bacd; stroke-width: 0px;"/>
                  <path d="m78.41,197.49c-.14-.5-.28-1.07-.36-1.57-.5.07-1,.14-1.49.21-6.62,1-13.88,3.06-19.01,7.69.93,2.21,1.99,4.41,1.99,4.41,0,0,5.2-4.2,10.25-6.69,4.56-2.21,8.83-3.13,8.83-3.13v-.14c-.07-.36-.14-.57-.21-.78Z" style="fill: #b5f2f4; stroke-width: 0px;"/>
                  <path d="m113.14,219.41c-.64.28-1.35.57-2.06.85-.64-.14-1.28-.28-1.92-.43-3.77-1-7.55-1.99-11.32-3.06-1.92-.57-3.84-1.14-5.77-1.64-2.35-.71-4.7-1.35-7.05-2.14-.64-.21-1.85-.57-2.78-.85-.64-.21-1.07-.36-1.14-.43-.28-.43-.43-.93-.57-1.49-.07-.28-.14-.5-.21-.78-.14-.64-.36-1.21-.5-1.85-.07-.36-.28-1.57-.36-2.49.14-.14.36-.28.5-.43.07.36.21.71.28,1.07.07.36.14.64.21,1,.07.21.14.5.14.71.36,1.21.64,2.42,1,3.63,1.49.36,2.92.78,4.41,1.14,5.34,1.49,10.68,2.99,16.02,4.34,2.78.71,5.48,1.42,8.26,2.06.28.07.71.21,1.14.36h.07c.07,0,.14,0,.14.07q.07,0,.14.07c.07,0,.14.07.21.07s.14.07.21.07h0c.43,0,.71.07.93.14Z" style="fill: #d8baaa; stroke-width: 0px;"/>
                  <path d="m123.82,203.54c-1.14-.64-2.42-1.07-3.63-1.49-.64-.21-1.21-.36-1.92-.43,0,0,0,.71.07.78.57.14,1.14.28,1.71.43,1.21.36,2.35.85,3.63,1.21.21.07.43-.36.14-.5Z" style="fill: #d8baaa; stroke-width: 0px;"/>
                </g>
              </g>
              <g>
                <rect x="4.88" y="18.22" width="238.73" height="222.21" style="fill: #faf5e4; stroke-width: 0px;"/>
                <path d="m61.08,152.8s1.24,9.21,24.81,7.22c-3.56-9.83-24.81-7.22-24.81-7.22Z" style="stroke-width: 0px;"/>
                <path d="m185.24,152.8s-8.02,10.51-24.81,7.22c10.28-13.2,24.81-7.22,24.81-7.22Z" style="stroke-width: 0px;"/>
                <path d="m70.85,151.2s-11.1,17.42-11.3,22.29c5.45,2.18,19.86-5.11,22.62-12.24l2.76-7.13-14.08-2.92Z" style="fill: #cc9a56; stroke-width: 0px;"/>
                <path d="m177.65,151.2s11.1,17.42,11.3,22.29c-5.45,2.18-19.86-5.11-22.62-12.24l-2.76-7.13,14.08-2.92Z" style="fill: #cc9a56; stroke-width: 0px;"/>
                <path d="m152.85,148.57s7.78,38.65,15.62,54.33h-90.63c7.84-15.68,15.62-54.33,15.62-54.33l-7.58,11.45s-12.37-6.47-24.81-7.22c2.21-2.21,5.41-5.59,8.91-9.36,5.84-6.28,12.49-13.6,16.66-18.21,2.63-2.9,6.36-4.56,10.27-4.56h52.49c3.91,0,7.64,1.66,10.27,4.56,3.84,4.25,9.79,10.79,15.27,16.71h0c4.04,4.36,7.82,8.37,10.31,10.86-12.45.75-24.81,7.22-24.81,7.22l-7.58-11.45Z" style="fill: #125b50; stroke-width: 0px;"/>
                <path d="m152.85,148.57s7.78,38.65,15.62,54.33h-90.63c7.84-15.68,15.62-54.33,15.62-54.33l-7.58,11.45s-12.37-6.47-24.81-7.22c2.21-2.21,5.41-5.59,8.91-9.36,8.34-.53,9.46,14.46,16.47,9.8,7.01-4.67,5.69-6.09,9.28-5.6,3.59.48-11.41,40.39,27.86,40.52,39.28.12,33.95-5.25,30.28-22.35-3.66-17.11-2.42-19.66-1.58-19.84.85-.19,4.58,13.43,14.96,9.34,10.38-4.1,9.09-6.91,7.66-13.35,4.04,4.35,7.82,8.36,10.31,10.86-12.45.75-24.81,7.22-24.81,7.22l-7.58-11.45Z" style="fill: #0a4432; stroke-width: 0px;"/>
                <path d="m134.87,120.68s-.96,4.96-3.86,8.65c-1.72,2.19-4.12,3.95-7.42,3.95-8.84,0-12.16-12.6-12.16-12.6l2.29-.26,1.39-.16c2.43-.28,4.27-2.33,4.27-4.78v-9.39h8.4v9.45c0,2.42,1.8,4.47,4.2,4.77l2.87.37Z" style="fill: #e0b480; stroke-width: 0px;"/>
                <path d="m131.02,129.33c-1.72,2.19-4.12,3.95-7.42,3.95-1.28,0-2.45-.27-3.5-.72-1.24-.53-2.34-1.33-3.29-2.25-3.82-3.73-5.37-9.63-5.37-9.63l2.29-.26c.33,4.75,3.39,7.49,4.78,7.57,1.39.08,1.36-7.57,5.21-7.31,3.2.21,4.62,2,5.53,5.16.45,1.54,1.03,2.71,1.76,3.5Z" style="fill: #cc9a56; stroke-width: 0px;"/>
                <path d="m126.11,111.36h1.21v34.75c0,.33-.27.6-.6.6h0c-.33,0-.6-.27-.6-.6v-34.75h0Z" transform="translate(43.61 -31.59) rotate(17.13)" style="fill: #db8012; stroke-width: 0px;"/>
                <path d="m126.11,112.4h1.21v34.75c0,.33-.27.6-.6.6h0c-.33,0-.6-.27-.6-.6v-34.75h0Z" transform="translate(82.02 -45.93) rotate(30)" style="fill: #db8012; stroke-width: 0px;"/>
                <path d="m160.33,186.86c0,1.07-2.78,2.06-7.46,2.85-6.57,1.11-16.87,1.82-28.45,1.82h-1.33c-19.22-.1-34.58-2.15-34.58-4.67s16.08-4.67,35.91-4.67c6.19,0,12.01.2,17.09.56,11.21.79,18.82,2.33,18.82,4.1Z" style="fill: #efe4d0; stroke-width: 0px;"/>
                <path d="m141.51,214.27c0,1.22-7.65,2.22-17.08,2.22s-17.09-.99-17.09-2.22c0-.31.5-.61,1.41-.88.46-.14,1.04-.27,1.7-.4,1.01-.19,2.23-.35,3.62-.49,2.87-.29,6.46-.45,10.35-.45s7.48.17,10.35.45c1.39.14,2.61.3,3.62.49.67.12,1.24.26,1.7.4.91.27,1.41.57,1.41.88Z" style="fill: #ddcab8; stroke-width: 0px;"/>
                <path d="m141.51,212.5c0,.31-.5.61-1.41.88-1.18.35-3.04.66-5.36.88-2.86.28-6.44.45-10.31.45s-7.45-.17-10.32-.45c-2.33-.23-4.19-.53-5.36-.88-.91-.27-1.41-.57-1.41-.88,0-.08.03-.15.09-.23.87-1.12,8.15-2,17-2s16.13.88,17,2c.06.08.09.15.09.23Z" style="fill: #ddcab8; stroke-width: 0px;"/>
                <rect x="107.33" y="212.5" width="34.17" height="1.77" style="fill: #ddcab8; stroke-width: 0px;"/>
                <path d="m120.1,132.56c-1.24-.53-2.34-1.33-3.29-2.25,1.74-1.59,3.58-.28,4.42,0,.34.11-.25,1.2-1.13,2.25Z" style="fill: #c1844d; stroke-width: 0px;"/>
                <path d="m129.84,137.28c-.45-3.19,2.32-5.35,1.18-6.68s-2.34,2.07-2.43,4.07,1.24,2.61,1.24,2.61Z" style="fill: #cc9a56; stroke-width: 0px;"/>
                <path d="m119.04,137.28c.45-3.19-2.32-5.35-1.18-6.68s2.34,2.07,2.43,4.07-1.24,2.61-1.24,2.61Z" style="fill: #cc9a56; stroke-width: 0px;"/>
                <path d="m189.41,176.39c0,2.81-1.74,5.48-4.6,6.47-.74.26-1.5.38-2.26.38-1.43,0-2.85-.45-4.04-1.32-2.33-1.71-5.82-4.23-9.87-7.16-15.07-10.89-38.09-27.41-39.88-28.84-.76-.61-1.58-2.31-2.31-4.56-1.01-3.07-1.86-7.15-2.21-10.81-.21-2.23-.24-4.31,0-5.9.08-.52.18-.98.32-1.38,1.74-5.23,4.48,3.61,4.48,9.21s1.53,5.65,2.68,6.22l49.37,26.64c3.29,1.84,5.94,4.64,7.61,8.02.48.98.71,2.01.71,3.02Z" style="fill: #e0b480; stroke-width: 0px;"/>
                <path d="m124.25,130.56c-.33,3.45-1.1,7.27-2.03,10.27-.78,2.51-1.66,4.44-2.48,5.1-1.77,1.41-24.39,17.65-39.46,28.53-4.23,3.06-7.87,5.69-10.29,7.46-1.19.87-2.61,1.32-4.04,1.32-.76,0-1.52-.13-2.26-.38-2.86-1-4.6-3.66-4.6-6.47,0-1.01.23-2.04.71-3.02,1.66-3.38,4.32-6.18,7.61-8.02l49.37-26.64c1.14-.58,2.68-.62,2.68-6.22s2.74-14.44,4.48-9.21c.13.4.24.87.32,1.38.24,1.6.21,3.67,0,5.9Z" style="fill: #e0b480; stroke-width: 0px;"/>
                <path d="m127.8,106.09v7c-2.59.13-5.53-.07-8.4-.5v-6.5h8.4Z" style="fill: #cc9a56; stroke-width: 0px;"/>
                <path d="m164.88,124.49c-.02-.05-.04-.11-.07-.18.03.07.05.13.07.18Z" style="fill: #04301e; stroke-width: 0px;"/>
                <path d="m164.88,124.5s.03.08.04.11c-.01-.03-.03-.06-.04-.11Z" style="fill: #04301e; stroke-width: 0px;"/>
                <path d="m177.77,106.11c.18.08,5.89,2.78,8.83,4.74-2.24,1.74-5.48,5.1-5.6,5.97-3.02-1.2-4.64-2.41-4.74-2.48.06.07.93,1.16,1.68,2.21.52.72.97,1.43,1.07,1.77-3.86,3.36-7.97,6.47-8.09,8.59-3.35-3.47-8.19-9-9.01-12.74.81,4.48,2.24,8.45,2.8,9.91-1.16-2.92-6.34-15.78-9.18-20.23.41-1.11.88-2.04,1.38-2.8,2.5-3.82,5.76-3.67,5.76-3.67,5.02,5.02,20.53,9.05,26.28,8.72-4.02,1.26-10.96.06-11.17.02Z" style="fill: #04301e; stroke-width: 0px;"/>
                <path d="m91.75,187.68c15.93.81,14.1-.81,22.32-1.89,8.23-1.07,15.48.57,19.54,1.07s11.08,1.59,14.56,1.36,6.31.43,6.97,1.26-30.79,10.21-43.57,6.89c-12.78-3.32-19.83-8.7-19.83-8.7Z" style="fill: #f8b400; stroke-width: 0px;"/>
                <path d="m86.35,124.6s.02-.06.04-.11c-.02.04-.03.08-.04.11Z" style="fill: #04301e; stroke-width: 0px;"/>
                <path d="m86.39,124.49s.04-.11.07-.18c-.03.07-.05.13-.07.18Z" style="fill: #04301e; stroke-width: 0px;"/>
                <path d="m95.74,103.84c-.17.27-.36.58-.55.91-2.92,5.09-7.55,16.58-8.64,19.32.56-1.46,1.99-5.43,2.8-9.91-.82,3.74-5.66,9.28-9.01,12.74-.12-2.12-4.23-5.23-8.09-8.59.08-.26.36-.73.71-1.26.8-1.18,1.97-2.63,2.04-2.72-.1.07-1.73,1.28-4.74,2.48-.13-.87-3.36-4.23-5.6-5.97,2.94-1.96,8.66-4.66,8.83-4.74-.21.04-7.15,1.24-11.17-.02,5.6.33,20.43-3.48,25.85-8.31.15-.13.3-.27.43-.4,0,0,3.52-.15,6.05,4.14.39.67.76,1.44,1.09,2.33Z" style="fill: #04301e; stroke-width: 0px;"/>
                <path d="m160.22,82.99c-.54,5.64-2.75,10.1-5.79,13.62-9.38,10.88-26.62,12.79-26.62,12.79h-8.4s-13.17-1.52-22.47-10.84c-3.89-3.89-7.1-9.14-8.41-16.22-4.48-24.33,12.72-40.02,38.19-39.27,25.48.74,35.93,14.56,33.5,39.91Z" style="fill: #04301e; stroke-width: 0px;"/>
                <path d="m154.43,96.61c-9.38,10.88-26.62,12.79-26.62,12.79h-8.4s-13.17-1.52-22.47-10.84c-.01-.34-.02-.68-.01-1.02,6.95-8.91,36.78-13.45,56.97-1.28.19.11.37.23.54.35Z" style="fill: #01190c; stroke-width: 0px;"/>
                <path d="m153.88,66.59v12.86c0,2.21-.24,4.36-.69,6.43-2.94,13.45-14.93,23.53-29.26,23.53-10.76,0-20.2-5.68-25.48-14.2-2.84-4.58-4.47-9.97-4.47-15.75v-5.65c0-9.52,7.72-17.23,17.23-17.23h32.66c5.04,0,9.2,3.72,9.91,8.56.07.48.1.96.1,1.45Z" style="fill: #e0b480; stroke-width: 0px;"/>
                <path d="m96.92,97.55c-.89,1.43-1.6,2.73-2.27,3.97-.44.82-.86,1.6-1.3,2.38-2.13-1.57-4.89-4.86-5.18-6.12-.01-.06-.02-.11-.02-.15-.08-1.49,2.49-3.65,4.55-4.36,0,0,2.52,2.31,4.22,4.28Z" style="fill: #f2555d; stroke-width: 0px;"/>
                <path d="m157.95,102.62c-.35-.52-.69-1.04-1.04-1.58-.97-1.51-1.94-3.1-3.02-4.78,1.06-1.59,2.41-3.35,3.23-3.42,1.5-.13,5.39,2.78,5.55,4.52.11,1.18-2.55,3.73-4.72,5.25Z" style="fill: #f2555d; stroke-width: 0px;"/>
                <path d="m131.37,100.22c-1.67,1.16-4.19,1.97-7.79,1.88-3.23-.08-5.67-.97-7.36-2.18-2.99-2.13-3.65-5.26-2.16-6.71.14-.14.3-.26.47-.36,1.81-1.07,16.51-1.11,19.03.86.14.11.24.22.3.34.72,1.44.23,4.28-2.49,6.17Z" style="fill: #f2555d; stroke-width: 0px;"/>
                <path d="m131.37,100.22c-1.67,1.16-4.19,1.97-7.79,1.88-3.23-.08-5.67-.97-7.36-2.18.81-1.4,3.86-2.44,7.51-2.44,3.91,0,7.13,1.2,7.65,2.75Z" style="fill: #ff6363; stroke-width: 0px;"/>
                <path d="m133.56,93.71c-4.9,2.22-15.85,1.64-19.5-.5.14-.14.3-.26.47-.36,1.81-1.07,16.51-1.11,19.03.86Z" style="fill: #faf5e4; stroke-width: 0px;"/>
                <path d="m153.88,66.59v12.86c0,2.21-.24,4.36-.69,6.43-3.09-1.74-8.54-1.47-8.54-1.47,0,0-.71-10-4.7-15.13.24,3.02-2.49,7.84-6.88,12.82.21-2.86-1.96-10.46-4.07-16.18-4.23.37-12.48,12.45-12.48,12.45,0,0-1.46-1.62-1.21-8.43-1.87,1.53-6.97,9.43-6.97,12.16,0,2.74-4.11,3.36-8.84,3.36s-4.18,2.88-1.05,9.74c-2.84-4.58-4.47-9.97-4.47-15.75v-3.19c2.72-1.45,6.55-3.79,10.88-9.6,8.71-11.7,27.38-10.96,41.82-6.85,3.23.92,5.52,2.87,7.1,5.31.07.48.1.96.1,1.45Z" style="fill: #cc9a56; stroke-width: 0px;"/>
                <path d="m102.84,55.47c-9.46,8.34-12.45,24.18-12.07,27.53s13.69-.39,16.43.61c-1.49-5.97,9.34-17.3,9.34-17.3,0,0-1.24,9.09,0,12.07,2.74-6.85,9.58-15.19,12.7-15.56,3.24,7.22,4.23,16.68,3.86,19.29,5.73-8.71,6.72-15.06,6.72-17.05,5.35,7.34,5.1,16.45,4.85,19.36,5.73-2.06,9.86-1.19,12.09-.57s3.72-21.04-6.36-28.38" style="fill: #04301e; stroke-width: 0px;"/>
                <path d="m130.69,83.46c3.38-4.16,10.42-6.9,14.87-2.85,0,0-.07.14-.07.14-.71-.05-1.36-.2-2.01-.28-1.9-.2-3.76-.47-5.68-.23-2.53.37-4.98,1.6-7.01,3.33,0,0-.12-.1-.12-.1h0Z" style="stroke-width: 0px;"/>
                <path d="m117.41,83.56c-2.03-1.73-4.48-2.95-7.01-3.33-1.92-.25-3.77.03-5.68.23-.65.08-1.29.23-2.01.28l-.07-.14c3.28-3.09,8.36-2.17,11.82.12,1.14.78,2.2,1.67,3.05,2.74l-.12.1h0Z" style="stroke-width: 0px;"/>
                <path d="m86.35,124.6s.02-.06.04-.11c-.02.04-.03.08-.04.11Z" style="fill: #cc9a56; stroke-width: 0px;"/>
                <path d="m86.39,124.49s.04-.11.07-.18c-.03.07-.05.13-.07.18Z" style="fill: #cc9a56; stroke-width: 0px;"/>
                <path d="m98.45,100c-.15,1.3-1.43,4.68-3.25,4.76h-.01c-.45.02-1.11-.32-1.84-.86.44-.78.86-1.56,1.3-2.38.67-1.23,1.38-2.53,2.27-3.97.91,1.05,1.59,2,1.54,2.45Z" style="fill: #e24462; stroke-width: 0px;"/>
                <path d="m86.61,123.94c.59-1.57,1.96-5.42,2.74-9.76-.82,3.74-5.66,9.28-9.01,12.74-.12-2.12-4.23-5.23-8.09-8.59.08-.26.36-.73.71-1.26,3.61-1,9.29-.74,13.84-4.92,3.36-3.09,5.04-5.6,6.54-8.25.73.54,1.39.88,1.84.86-2.87,5-7.39,16.2-8.58,19.18Z" style="fill: #01190c; stroke-width: 0px;"/>
                <path d="m164.88,124.49c-.02-.05-.04-.11-.07-.18.03.07.05.13.07.18Z" style="fill: #01190c; stroke-width: 0px;"/>
                <path d="m164.88,124.5s.03.08.04.11c-.01-.03-.03-.06-.04-.11Z" style="fill: #01190c; stroke-width: 0px;"/>
                <path d="m157.95,102.62c-1.04.73-1.96,1.22-2.42,1.22-1.41,0-2.82-2.65-3.22-5.04,0,0,.69-1.21,1.58-2.54,1.09,1.68,2.05,3.26,3.02,4.78.34.54.69,1.06,1.04,1.58Z" style="fill: #e24462; stroke-width: 0px;"/>
                <path d="m179.01,118.33c-3.86,3.36-7.97,6.47-8.09,8.59-3.35-3.47-8.19-9-9.01-12.74.81,4.48,2.24,8.45,2.8,9.91-1.16-2.92-6.34-15.78-9.18-20.23.46,0,1.38-.49,2.42-1.22,2.39,3.54,5.06,6.67,9.77,9.52,3.8,2.3,7.22,3.43,10.22,4.41.52.72.97,1.43,1.07,1.77Z" style="fill: #01190c; stroke-width: 0px;"/>
                <path d="m122.22,140.83c-.78,2.51-1.66,4.44-2.48,5.1-1.77,1.41-24.39,17.65-39.46,28.53,9.14-10.08,33.88-24.44,41.95-33.63Z" style="fill: #cc9a56; stroke-width: 0px;"/>
                <path d="m168.64,174.77c-15.07-10.89-38.09-27.41-39.88-28.84-.76-.61-1.58-2.31-2.31-4.56,2.43,3.34,37.01,27.34,42.19,33.39Z" style="fill: #cc9a56; stroke-width: 0px;"/>
                <path d="m160.33,186.86c0,7.32-2.97,13.95-7.77,18.75-3.07,3.07-6.88,5.38-11.14,6.66-.27.08-.53.16-.8.23-.73.19-1.47.36-2.22.49-1.49.26-3.02.4-4.58.4h-18.78c-1.56,0-3.09-.13-4.58-.4-.75-.13-1.49-.29-2.22-.49-.27-.07-.54-.15-.8-.23-2.2-.66-4.28-1.59-6.2-2.77-7.62-4.66-12.71-13.06-12.71-22.64,11.4,3,22.93,4.57,34.58,4.66h1.13s.2,0,.2,0c9.45-.01,18.98-1,28.6-2.98,2.43-.5,4.87-1.06,7.31-1.69Z" style="fill: #faf5e4; stroke-width: 0px;"/>
                <path d="m152.56,205.62c-3.07,3.07-6.88,5.38-11.14,6.66.06.08.09.15.09.23v1.77c0,1.22-7.65,2.22-17.08,2.22s-17.09-.99-17.09-2.22v-1.77c0-.08.03-.15.09-.23-2.2-.66-4.28-1.59-6.2-2.77,47.98,4.89,51.01-14.39,51.65-19.79.04-.32.07-.59.1-.81.02-.12.03-.24.05-.35,2.43-.5,4.87-1.06,7.31-1.69,0,7.32-2.97,13.95-7.77,18.75Z" style="opacity: .1; stroke-width: 0px;"/>
              </g>
            </g>
          </g>
          <path d="m99.77,18.32s-40.2,8.19-61.71,42.74c-.87,1.39-2.7,1.82-4.09.95-1.39-.87-1.82-2.7-.95-4.09C55.87,21.21,98.58,12.49,98.58,12.49c1.61-.33,3.18.71,3.51,2.32.32,1.61-.71,3.18-2.32,3.51Z" style="fill: #ffe6ca; fill-rule: evenodd; stroke-width: 0px;"/>
          <ellipse cx="109.49" cy="13.02" rx="3.67" ry="3.52" transform="translate(-.74 10.43) rotate(-5.43)" style="fill: #ffe6ca; stroke-width: 0px;"/>
          <path d="m63.65,229.33l37.87,49.21c1.02,1.49.65,3.53-.84,4.55-1.49,1.02-3.53.64-4.55-.84l-37.88-49.22c-1.02-1.49-.64-3.53.84-4.55,1.49-1.02,3.53-.65,4.55.84Z" style="fill: #ffe6ca; fill-rule: evenodd; stroke-width: 0px;"/>
        </g>
      </g>
    </g>
  </g>
</svg>