<?xml version="1.0" encoding="UTF-8"?>
<svg xmlns="http://www.w3.org/2000/svg" width="391.44" height="184.34" viewBox="0 0 391.44 184.34">
  <g style="isolation: isolate;">
    <g id="_圖層_2" data-name="圖層 2">
      <g id="_第一cut" data-name="第一cut">
        <g id="map_bg2" style="opacity: .5;">
          <g style="mix-blend-mode: multiply; opacity: .2;">
            <path d="m78.66,20.87c.55-.29,1.14-.58,1.76-.53.94.07,1.63.88,2.25,1.59,4.91,5.64,12.26,9.09,19.73,9.25,1.45-4.48,3.73-8.69,6.7-12.35.92-1.14,2.01-2.28,3.45-2.54,2.44-.44,4.5,1.87,5.56,4.11,1.06,2.25,1.84,4.86,3.93,6.2,1.52.97,3.5,1.08,4.94,2.17,1.42,1.07,2.07,2.89,3.34,4.13,3.64,3.56,10.46,1.04,14.33,4.35,2.07-8.33,8.37-15.5,16.37-18.61-.07,4.59,6.13,5.79,10.3,7.7,4.55,2.09,7.39,6.28,10.56,9.95,3.17,3.67,6.09,4.64,9.86,7.25,6.48,4.46,9.54,13.17,17.48,15.66,1.74.55,4.17,1.96,3.1,3.43-.15.21-.37.37-.58.52-10.25,7.36-24.06,6.5-36.63,5.32-6.63-.62-12.78-4.81-19.61-3.09-3.2.81-14.49,4.14-15,7.3-.5,3.19,4.6,4,4.84,6.96.26,3.22-4.51,5.78-6.92,6.82-5.96,2.55-12.7,3.28-19.07,2.05,1.04-3.08,6.04-3.61,6.59-6.81.34-1.98-1.46-3.82-3.42-4.26-2.35-.53-4.17.69-6.38.82-2.58.15-5.44-.57-8-.86-5.27-.6-10.53-1.2-15.8-1.8,1.17-4.1,8.07-2.64,10.73-5.98.29-.36.52-.79.54-1.25.12-2.52-33.06-5.47-32.64-6.32.81-1.64,2.19-2.99,3.85-3.75-7.38,3.38-12.84-3.62-19.3-5.39-3.63-1-21.64,1.79-23.06-1.94-.54-1.43.59-3.02,1.98-3.64,1.39-.63,2.97-.6,4.48-.8,9.82-1.33,15.11-6.28,21.89-12.79,5.3-5.08,11.31-9.42,17.81-12.84Z" style="fill: #eecc8d; stroke-width: 0px;"/>
          </g>
          <g style="mix-blend-mode: multiply; opacity: .2;">
            <path d="m150.13,28.78c1.04-.58,2.13-1.13,2.89-2.05,1.3-1.58,2.04-4.4,4.06-4.09.35,3.52-1.38,6.91-1.68,10.44-.5,6.07,3.41,11.82,8.45,15.24,5.04,3.41,11.09,4.94,17,6.4-3.53,2.35-7.68,3.64-11.88,4.22-9.64,1.35-17.61-2.52-23.4-10.19-1.72-2.28-5.1-6.68-5.41-9.46-.49-4.23,6.78-8.73,9.97-10.53Z" style="fill: #eecc8d; stroke-width: 0px;"/>
          </g>
          <g style="mix-blend-mode: multiply; opacity: .2;">
            <path d="m88.05,45.46c-1.34,1.28-2.7,2.6-3.58,4.22-1.48,2.72-1.65,6.27-4.02,8.26,5.43,1.7,11.37-1.68,16.92-.41,2.46.56,4.61,1.98,6.95,2.93,3.83,1.55,8.05,1.79,12.18,2,5.95.31,12.88.2,16.58-4.48-4.19-2.98-9.51-4.34-14.62-3.74.17-2.47-1.63-4.67-3.67-6.07-2.04-1.4-4.41-2.31-6.33-3.87-4.5-3.63-5.65-10.48-5.27-15.98.03-.39.06-.8-.09-1.16-.16-.36-.57-.65-.94-.51-.19.07-.32.23-.45.38-2.49,3.01-4.63,6.3-6.4,9.78-1.8,3.56-4.37,5.87-7.26,8.64Z" style="fill: #eecc8d; stroke-width: 0px;"/>
          </g>
          <g style="mix-blend-mode: multiply; opacity: .2;">
            <path d="m86.5,160.73c1.06-.51,2.09-1.06,3.12-1.62,8.07-4.36,16.37-10.74,25.86-10.74,2.71-.06,5.42-.13,8.13-.19,5.69-.13,11.45-.25,16.97,1.11.73.18,1.51.42,1.97,1.01,1.11,1.43-.37,3.42-1.84,4.47-10.71,7.67-24.61,6.9-36.95,9.5-13.36,2.81-26.38,7.92-39.68,11.24-9.57,2.39-19.68,3.71-29.25,1.32,5.1-1.56,10.31-3.66,14.97-6.25,4.15-2.3,7.55-6.11,12.29-7.48,6.49-1.89,13.6.82,20.17-.78,1.47-.36,2.88-.93,4.25-1.58Z" style="fill: #eecc8d; stroke-width: 0px;"/>
          </g>
          <g style="mix-blend-mode: multiply; opacity: .2;">
            <path d="m141.56,153.77c2.65-.7,5.44-1.49,7.31-3.49.92-.98,1.54-2.2,2.15-3.39,4.2-8.2,9.16-14.35,15.17-21.25,5.26-6.03,8.69-13.67,14.82-18.81,7.15-6,16.39-5.07,24.81-7.65,8.73-2.67,15.92-7.51,24.16-11.05,7.24-3.11,15.18-5.49,22.65-8.16-10.89,4.04-18.87,13.61-29.41,18.48-16.98,7.86-39.03,4.52-48.46,23.97-2.47,5.09-3.94,10.74-7.42,15.2-1.91,2.45-4.39,4.47-5.89,7.19-2.77,4.98-.81,13.39-4.82,17.46-3.48,3.53-12.92,6.07-17.67,6.94-4.79.88-9.74.51-14.56,1.28-5.32.86-10.33,3.1-15.6,4.21-8.87,1.86-18.06.45-27.01-.97-1.62-.26-3.35-.57-4.51-1.73,1.08,1.09,11.38-2.23,13.05-2.64,4.54-1.11,8.82-2.62,13.16-4.17,12.42-4.44,25.34-8.05,38.08-11.42Z" style="fill: #eecc8d; stroke-width: 0px;"/>
          </g>
          <path d="m349.41,164.57c-1.24.12-2.41-.06-3.54-.61-1.05-.51-2.12-1.06-3.12-1.68-.8-.5-1.59-1.01-2.42-1.47.73.14,1.47.28,2.21.4.59.1,1.2.23,1.74.48.49.22.93.28,1.46.31,1.06.07,2.07.05,3.13-.05,1.13-.11,2.4-.12,3.39-.63-.06-.1-.13-.2-.2-.28-.84-.89-2.91-.62-4.02-.85-1.87-.39-3.71-1.04-5.38-1.97-.57-.32-1.11-.7-1.62-1.1-.58-.45-1.04-1-1.57-1.49-1.09-1-2.06-2.15-3.19-3.11-1.15-.98-2.12-2.18-3.16-3.28-2.14-2.25-4.33-4.5-6.6-6.61-1.12-1.04-2.26-2.05-3.42-3.03-1.08-.92-2.14-1.71-3-2.84-.59-.77-1.1-1.59-1.65-2.38-.09-.37-.18-.74-.28-1.11-.23-.84-.5-1.67-1.09-2.33-1.08-1.2-2.64-1.71-3.95-2.6-.68-.46-1.31-1-1.87-1.6-.55-.6-.98-1.32-1.58-1.87-.55-.51-1.25-.74-2-.71-.09,0-.18.02-.28.03-.6-.29-1.25-.41-1.87-.03-.48.29-.76.83-1.02,1.31-.41.74-.8,1.48-1.17,2.24-1.86,3.8-5.76,6.6-8.89,9.42-.68.62-1.37,1.28-1.94,2.01-.35.44-.69.71-1.18,1.01-.36.22-.71.44-1.04.69-1.11.86-2.38,3.29-4.09,2.56-.06-.02-.11-.02-.16,0-.12-.13-.24-.25-.36-.37-.43-.43-.86-.85-1.3-1.27-.43-.55-.85-1.11-1.29-1.65-.62-.76-1.32-1.62-2.25-2.01-.28-.12-.56-.17-.82-.16-.83-.24-1.61.2-2.38.73-1.93,1.35-3.37,3.36-4.79,5.2-.77.99-1.5,2-2.22,3.03-.72,1.04-1.36,2.09-2,3.19-1.23,2.1-2.53,4.17-3.8,6.24-.68.77-1.34,1.55-2,2.34-.95,1.13-1.96,2.16-2.96,3.24-.37.41-.69.83-1.11,1.19-.05.03-.11.05-.16.07-.94.39-1.87.65-2.89.74-2.18.19-4.41.03-6.59-.1-.3-.02-.35.44-.05.47,1.19.1,2.38.19,3.57.35,1.03.14,2.06.36,3.11.38-.14.06-.27.13-.4.19-.68.31-1.33.67-2.01.98-.13.06-.05.25.09.21.74-.25,1.49-.47,2.24-.72.1-.03.2-.07.3-.1,0,0,0,0,.02,0,1,0,1.99.08,2.98.05.4-.02.81-.05,1.2-.14.49-.11.86-.33,1.19-.73.56-.67.63-1.59.89-2.39.13-.39.26-.78.45-1.14.11-.21.24-.4.35-.61.11-.21.19-.43.31-.63.07-.13.07-.25.03-.35.24-.41.48-.83.73-1.24.09-.15.18-.3.26-.44.51-.77,1.01-1.53,1.49-2.32.04-.07.03-.13,0-.17.7-1.14,1.43-2.25,2.24-3.29.73-.94,1.52-1.83,2.27-2.75.8-.97,1.53-1.99,2.31-2.96,1.45-1.81,2.78-3.78,4.45-5.4.16-.15.32-.3.48-.45.08-.05.16-.1.24-.14.66-.37,1.77-1.01,2.44-.44.66.55,1.19,1.29,1.71,1.98.03.04.06.08.1.13-.09.04-.18.09-.27.12-.06.02-.13.02-.19.03-.2.04-.39.1-.6.09-.8-.03-1.55-.2-2.29-.52-.14-.06-.21.15-.08.22.75.38,1.54.65,2.35.85.21.05.4.14.61.2.07.02.16.03.23.05.14.05.2.11.36.13.27.05.55.05.81,0,.11.14.22.27.33.41-.38.17-.75.3-1.17.28-.23,0-.47-.04-.71-.07-.24-.03-.51-.11-.75-.03-.17,0-.34-.01-.52-.07-.2-.07-.39-.18-.58-.29-.18-.1-.37-.21-.55-.31-.01,0-.02-.02-.04-.03-.02-.02-.05-.03-.08-.04-.18-.1-.36-.2-.54-.3-.13-.07-.34.09-.21.22.33.31.66.63,1.03.9.89.88,1.89,1.64,3.16,1.88.7.13,1.47-.12,2.17-.22.28-.04.57-.07.85-.05.13.08.25.16.38.24.85.48,1.69.89,2.44,1.43.33.54.63,1.09.92,1.67.51,1.05,1.19,2.03,1.83,3.01.62.95,1.28,1.85,2.11,2.63.77.72,1.66,1.28,2.54,1.87.96.63,1.92,1.26,2.57,2.22.7,1.04,1.07,2.25,1.77,3.29.22.33.47.65.73.95.53,1.14,1.27,2.14,2.49,2.76,1.01.51,2.27.66,3.38.78,1.29.14,2.59-.17,3.88-.29.15-.02.17-.24.03-.29-1.05-.39-2.1-.96-3.21-1.19-1.06-.22-2.15-.22-3.21-.4-.18-.03-.36-.06-.53-.09-1.21-.75-2.24-1.73-2.91-3.09-.52-1.05-.66-2.25-1.18-3.29-.5-.99-1.28-1.86-2.17-2.51-.85-.62-1.77-1.16-2.58-1.84-.31-.27-.6-.56-.87-.88.34-.3.57-.73.74-1.2.12-.33.22-.64.32-.95.19-.29.39-.58.6-.86.59-.75,1.25-1.47,1.73-2.3.03.62.07,1.24-.03,1.86-.16.97-.72,2.06-1.5,2.66-.09.07,0,.24.11.18.81-.47,1.37-1.07,1.73-1.93.39-.93.8-1.9,1.09-2.87.65-2.12.67-4.26,1.55-6.32,1.04-2.4,2.64-4.53,4.13-6.67.06-.08-.06-.17-.12-.09-.66.85-1.3,1.71-2.02,2.51-.73.81-1.43,1.66-2.23,2.39-.13.12-.25.24-.37.36,1.68-3.93,3.68-7.74,5.45-11.64.22-.5.41-1.01.62-1.52.37-.38.82-.63,1.35-.64.85-.02,1.4.19,1.89.9.53.77,1.08,1.47,1.76,2.12.44.42.92.81,1.41,1.16-.83-.22-1.66-.5-2.39-.95-1.11-.69-2.82-2.08-3.98-.68-.09.1.08.26.18.16.69-.65,1.7-.37,2.43.06.74.44,1.45.95,2.19,1.39.72.43,1.48.77,2.29,1.02.4.12.81.21,1.22.28.11.02.23.04.35.06,0,0,0,.01.01.02-.08.02-.16.04-.23.07-.48.16-.9.34-1.41.39-.49.05-.98-.02-1.45-.17-1.01-.31-1.89-.87-2.55-1.7-.06-.08-.17.01-.12.09,1,1.55,2.73,2.45,4.55,2.56.5.03.97-.02,1.47-.07.36-.04.59.11.78.34.06.1.13.2.19.29-.6-.06-1.21.08-1.77.29-.45.17-.88.37-1.33.56-.2.09-.41.17-.61.26-.25.11-.41.28-.69.33-1.02.18-1.99-.63-2.75-1.2-.08-.06-.16.06-.09.12.64.54,1.3,1.02,2.06,1.38.37.17.75.27,1.15.37.25.07.44.13.71.09.22-.03.45-.08.67-.15.77-.25,1.47-.65,2.28-.72.45-.04.85.02,1.24.17.35.67.68,1.36,1.01,2.05-.12-.05-.25-.08-.38-.11-.32-.06-.66-.06-.99-.03-.44.04-.86.06-1.29.14-.43.08-.79.22-1.15.46-.33.22-.63.58-1.02.69-.81.22-1.71-.6-2.28-1.08-.11-.09-.28.09-.18.19.5.48,1.02.97,1.67,1.23.69.27,1.47.33,2.17.12.38-.12.73-.34,1.01-.61.29-.28.65-.63,1.02-.78.51-.2,1.09-.13,1.58.12.08.17.16.34.25.51.32.64.68,1.27,1.16,1.81.52.57,1.11,1.08,1.71,1.55,1.17.93,2.39,1.8,3.57,2.73,2.44,1.92,4.82,3.9,7.03,6.08,1.2,1.19,2.54,2.39,3.54,3.75,1.03,1.4,1.97,2.81,3.3,3.96,1.12.96,2.63,1.63,3.96,2.24,1.01.47,2.06.82,3.14,1.09-.29,0-.58.02-.88.1-.59.16-1.2.18-1.81.14-1.03-.06-2.05-.18-3.07-.31-.98-.47-1.99-.85-3.04-1.15-.29-.08-.44.31-.17.43,1.15.53,2.13,1.36,3.1,2.16.98.81,2.01,1.56,3.11,2.2.54.32,1.1.66,1.7.85.59.19,1.2.29,1.81.37,1.14.13,2.4.06,3.46-.41.15-.07.08-.29-.08-.27Zm-55.94-23.55c.44-.52.89-1.03,1.36-1.52.36-.29.73-.58,1.11-.85.17-.12.34-.23.51-.34-.25.27-.48.56-.67.86-.41.65-.77,1.27-1.27,1.86-.91,1.06-1.74,2.36-2.9,3.16-.7.48-1.52.69-2.33.91.53-.32,1.04-.69,1.51-1.08,1.05-.87,1.8-1.98,2.68-3Zm-6.21,3.52c-.13-.09-.26-.17-.39-.26-.06-.06-.11-.12-.17-.18.43.06.86-.03,1.27-.25.78-.41,1.22-1.15,1.74-1.83.62-.81,1.54-1.52,2.46-1.97.35-.17.73-.27,1.1-.42-.1.1-.2.2-.31.29-.96.91-2.03,1.71-3.04,2.57-.5.43-.99.85-1.53,1.23-.34.25-.8.51-1.16.81Zm1.94,1.34s-.1-.07-.15-.11c.93-.21,1.88-.34,2.7-.86,1.16-.73,1.93-2.01,2.8-3.03.52-.63,1.05-1.19,1.77-1.59-.48.71-.95,1.45-1.42,2.17-.67,1.01-1.44,1.93-2.34,2.74-.77.7-1.57,1.3-2.55,1.5-.24-.29-.5-.57-.8-.82Zm1.48,1.81c-.08-.13-.15-.26-.23-.38.59-.03,1.19-.15,1.75-.34-.51.24-1.04.45-1.51.73Zm3.06,1.39c-.36.52-.89.97-1.43,1.36-.3-.45-.59-.91-.9-1.35.82-.15,1.64-.6,2.3-.99.42-.25.79-.54,1.14-.87-.34.63-.7,1.25-1.11,1.84Zm3.84-7.74c-.15.3-.25.63-.32.96-.43.9-.97,1.75-1.69,2.44-.46.45-.99.8-1.52,1.13.64-.52,1.19-1.14,1.7-1.8.72-.93,1.31-1.95,1.96-2.94-.04.06-.09.13-.12.2Z" style="fill: #522101; stroke-width: 0px;"/>
          <path d="m317.16,139.26c-.53-.17-1.12-.12-1.64.04-.27.09-.53.22-.78.35-.28.13-.5.1-.8.06-.28-.03-.56-.06-.83-.12-.32-.07-.61-.24-.89-.41-.54-.31-1.04-.67-1.5-1.08-.14-.12-.35.1-.22.24.43.47.91.9,1.42,1.27.26.19.56.35.81.54.25.2.49.42.75.6.65.43,1.5.48,2.07-.12.21-.22.38-.47.62-.66.28-.23.63-.35.97-.44.12-.03.18-.22.03-.27Z" style="fill: #522101; stroke-width: 0px;"/>
          <path d="m320.18,141.23c-.6-.22-1.16-.27-1.78-.09-.64.18-1.2.5-1.73.89-.25.19-.5.4-.76.57-.25.16-.58.25-.86.32-.68.17-1.46-.19-2.05-.49-.15-.08-.27.16-.14.26.57.39,1.16.85,1.8,1.1.33.13.67.28,1.03.24.38-.04.79-.21,1.08-.45.55-.46.7-1.2,1.28-1.62.56-.41,1.39-.57,2.08-.52.12,0,.17-.17.05-.21Z" style="fill: #522101; stroke-width: 0px;"/>
          <path d="m322.07,144.67c-1.07-.68-2.52-.03-3.43.66-.23.17-.46.34-.7.49-.25.16-.58.37-.87.41-.33.05-.76-.11-1.07-.21-.36-.11-.69-.27-1.02-.44-.13-.07-.24.15-.12.23.57.39,1.14.84,1.81,1.05.31.1.62.24.95.29.35.05.75-.02,1.08-.16.62-.26,1.11-.78,1.54-1.28.41-.48,1-.92,1.66-.7.2.07.37-.21.18-.34Z" style="fill: #522101; stroke-width: 0px;"/>
          <path d="m325.34,148.3c-1.05-.65-2.49-.16-3.55.25-.58.22-1.13.47-1.73.64-.74.21-1.57-.14-2.32-.2-.21-.01-.24.29-.03.32.77.11,1.45.47,2.22.62.62.11,1.21.03,1.83-.13.61-.16,1.16-.46,1.73-.7.57-.24,1.14-.33,1.75-.36.21,0,.27-.32.1-.43Z" style="fill: #522101; stroke-width: 0px;"/>
          <path d="m327.45,150.89c-.67-.03-1.36.25-2.03.34-.7.09-1.4.09-2.1.19-.69.11-1.36.34-2.05.47-.7.13-1.43.17-2.15.2-.21,0-.19.33,0,.36.72.09,1.44.14,2.16.2.74.06,1.49.16,2.23.06.71-.1,1.4-.38,2.07-.62.63-.23,1.45-.4,1.96-.85.12-.1.07-.34-.1-.35Z" style="fill: #522101; stroke-width: 0px;"/>
          <path d="m332.48,155.63c-.37.09-.66.37-1,.53-.36.17-.74.29-1.13.36-.85.17-1.7.06-2.55-.07-.63-.1-1.29-.21-1.94-.28.36-.18.72-.39,1.05-.62.39-.27.97-.65.85-1.19-.03-.15-.12-.23-.25-.27-.03-.1-.11-.18-.23-.19-.19-.01-.39-.07-.58-.06-.19.01-.39.04-.58.06-.38.04-.78.11-1.15.2-.2.05-.36.12-.56.15-.19.03-.38.05-.57.07-.4.07-.79.02-1.18-.05-.14-.02-.2.21-.06.25.39.12.8.2,1.19.34.21.07.43.11.64.15.19.03.38.1.57.13.24.03.5.03.75,0-.14.11-.29.21-.44.31-.33.22-.63.48-.97.68-.28.02-.56.04-.83.08-.47.06-.87.25-1.33.33-.17.03-.18.3,0,.31.49.02,1.05.22,1.54.33.52.12,1.02.27,1.55.35,1.03.14,2.02.25,3.05.12.84-.11,1.67-.28,2.46-.57.6-.22,1.63-.62,1.89-1.26.04-.1-.06-.24-.17-.21Z" style="fill: #522101; stroke-width: 0px;"/>
          <path d="m286.16,147.37c-.2-.13-.45-.1-.69-.14-.24-.05-.47-.1-.71-.14-.48-.1-1.06-.11-1.54-.03-1,.18-2.07-.07-3.01-.43-.13-.05-.25.15-.12.22.47.25.95.47,1.44.68.5.22,1.02.39,1.52.59.52.21,1.18.28,1.73.13.28-.07.54-.18.8-.28.22-.09.45-.12.61-.31.07-.08.04-.23-.05-.28Z" style="fill: #522101; stroke-width: 0px;"/>
          <path d="m286.58,149.59c-.16-.05-.3-.03-.46-.03-.12,0-.24-.01-.36,0-.27.01-.53.06-.79.08-.26.03-.52.03-.77.1-.14.04-.23.07-.39.09-.06.01-.11.02-.16.03-.42-.06-.79-.23-1.13-.5-.16-.13-.39.12-.25.26.35.35.78.6,1.23.78.15.17.43.26.59.33.32.13.66.13,1,.09.31-.04.63-.1.91-.23.23-.11.6-.32.72-.54.09-.17.06-.39-.14-.46Z" style="fill: #522101; stroke-width: 0px;"/>
          <path d="m297.61,159.76c-1.04-.24-1.87-.52-2.71-1.2-.38-.3-.65-.73-1.07-1-.45-.29-.96-.37-1.49-.31-1.03.11-1.9.71-2.96.55-1.13-.17-2.18-.93-3.08-1.58-.15-.11-.31.12-.17.23,1.68,1.3,3.67,2.83,5.91,2.43.24-.04.52-.13.76-.07.23.06.4.26.59.4.4.3.87.57,1.35.73.92.31,2,.45,2.93.15.18-.06.1-.3-.05-.33Z" style="fill: #522101; stroke-width: 0px;"/>
          <path d="m298.54,164.11c-.75-.7-1.7-1.24-2.71-1.51-1.01-.71-2.31-1.12-3.47-1.25-1.02-.11-2.05-.11-3.06.09-1.2.24-2.44.22-3.66.2-.18,0-.22.27-.03.29,1.13.09,2.29.18,3.39.48.93.26,1.82.4,2.78.46.02,0,.04,0,.06,0-.53.18-1.08.38-1.58.62-.7.33-1.47.49-2.23.66-1.46.32-2.94.53-4.43.32-.12-.02-.14.17-.02.19,1.29.23,2.6.17,3.89-.05.68-.12,1.35-.28,2.03-.42.64-.14,1.34-.15,1.99-.18,1.14-.05,2.28-.11,3.42-.11,1.21,0,2.34-.03,3.49.45.15.07.23-.14.13-.24Z" style="fill: #522101; stroke-width: 0px;"/>
          <path d="m305.35,167.34c-1.47-.02-2.95-.23-4.36-.65-.7-.21-1.32-.53-1.97-.84-.66-.31-1.38-.54-2.09-.75-.66-.2-1.36-.39-2.06-.42-.34-.02-.7.01-1.03.09-.1.02-.2.05-.29.09-1.09.09-2.19.46-3.14.88-.36.16-.73.29-1.09.42-.14,0-.27,0-.41,0-.1,0-.12.11-.05.16-.54.16-1.09.27-1.66.33-1.25.14-2.51.11-3.76.07-.12,0-.14.17-.02.18,1.12.12,2.25.25,3.39.27,1.11.02,2.17-.11,3.27-.24,1.07-.13,2.09-.37,3.13-.62.24-.05.47-.12.7-.18.24.05.49.08.72.12.72.13,1.41.28,2.1.51.68.22,1.33.49,2.03.65.71.16,1.46.27,2.19.36,1.48.19,2.97.09,4.42-.23.1-.02.12-.2,0-.2Z" style="fill: #522101; stroke-width: 0px;"/>
          <path d="m309.17,168.75c-1.13.27-2.24.48-3.4.53-.97.05-1.95-.02-2.92-.11-.59-.33-1.38-.4-2.04-.45-.78-.06-1.54-.02-2.31.11-.81.14-1.47.39-2.2.75-.73.37-1.64.52-2.43.74-1.57.44-3.14.85-4.77,1.01-1.68.17-3.39.17-5.07.05-.1,0-.11.14-.02.15,3.13.47,6.39.24,9.46-.52.75-.18,1.5-.39,2.25-.58.78-.2,1.6-.1,2.39-.24.29-.05.58-.09.87-.14.18.03.36.07.53.1,1.08.18,2.17.38,3.27.46,2.26.17,4.38-.93,6.44-1.7.09-.03.05-.2-.05-.17Z" style="fill: #522101; stroke-width: 0px;"/>
          <path d="m323.65,168.61c-1.26-.44-2.73-.25-4.04-.16-.73.05-1.47.09-2.2.08-.79-.01-1.56-.19-2.35-.24-1.39-.08-2.53.32-3.66,1.12-1.03.73-2.16,1.44-3.45,1.49-.16,0-.15.28,0,.28,1.13.05,2.23-.29,3.3-.61,1.21-.36,2.46-.63,3.73-.53,1.54.11,2.91-.03,4.4-.44,1.42-.39,2.76-.66,4.24-.72.15,0,.16-.23.03-.27Z" style="fill: #522101; stroke-width: 0px;"/>
          <path d="m336.06,165.94c-1.35-.47-2.79-.31-4.18-.15-1.54.17-3.06.53-4.61.51-1.57-.02-3.19-.03-4.75.22-1.61.25-3.19.61-4.79.91-.04,0-.03.06,0,.06,1.63-.18,3.27-.3,4.91-.25.75.02,1.52.02,2.26.13.82.11,1.6.31,2.43.33,1.49.03,2.92-.24,4.34-.63,1.44-.4,2.86-.65,4.35-.76.19-.01.21-.3.04-.36Z" style="fill: #522101; stroke-width: 0px;"/>
          <path d="m329.04,158.63c-.7.11-1.43.13-2.13.09-.69-.04-1.37-.14-2.06,0-.34.07-.65.2-.99.21-.36,0-.71-.03-1.06-.08-.74-.1-1.45-.25-2.16-.48-.18-.06-.28.2-.1.28.69.31,1.4.58,2.13.77.37.1.74.17,1.11.26.35.09.65.26,1,.36,1.46.37,3.07-.42,4.37-1,.22-.1.12-.44-.12-.4Z" style="fill: #522101; stroke-width: 0px;"/>
          <path d="m313.3,163.79c-.77-.66-1.71-1.07-2.63-1.5-.95-.44-1.88-.95-2.9-1.21-1.01-.25-2.04-.39-3.05-.63-1.06-.24-1.93-.84-2.17-1.95-.03-.16-.26-.12-.25.04.07.88.58,1.65,1.14,2.31.75.87,1.84,1.22,2.92,1.46,1.13.24,2.27.33,3.41.55,1.18.24,2.25.83,3.38,1.21.18.06.29-.17.15-.28Z" style="fill: #522101; stroke-width: 0px;"/>
          <path d="m321.2,161.4c-1.19-.16-2.34.15-3.51.26-1.31.12-2.5-.13-3.76-.46-1.19-.31-2.35-.73-3.55-1.02-.66-.16-1.29-.46-1.94-.66-.66-.21-1.33-.4-1.98-.64-.2-.07-.3.21-.12.3.67.32,1.29.7,1.94,1.06.6.33,1.23.6,1.8.97,1.11.71,2.24,1.28,3.53,1.61,1.24.32,2.5.18,3.72-.16,1.28-.35,2.54-.71,3.86-.88.22-.03.2-.34,0-.37Z" style="fill: #522101; stroke-width: 0px;"/>
          <path d="m336.91,169.44c-1.28.01-2.56-.03-3.85,0-1.36.03-2.73-.09-4.05.37-.65.22-1.29.5-1.96.66-.65.16-1.3.29-1.95.42-1.35.26-2.67.58-4,.93-.1.03-.08.18.02.16,1.31-.21,2.63-.42,3.94-.65,1.36-.23,2.67-.33,4.05-.28,1.28.05,2.52-.28,3.76-.6.65-.17,1.33-.26,1.99-.38.69-.12,1.37-.3,2.06-.39.13-.02.13-.24,0-.24Z" style="fill: #522101; stroke-width: 0px;"/>
          <path d="m340.08,130.56c-.74-.19-1.5-.15-2.27-.16-.77,0-1.56.02-2.33-.05-.39-.04-.78-.13-1.16-.22.67.03,1.35.08,2.02.09.5,0,.99.03,1.48.06.48.03.94.1,1.42-.02.16-.04.16-.22.03-.29-.44-.23-.9-.27-1.38-.32-.51-.05-1.02-.09-1.53-.12-1-.06-1.99.07-2.97.18-.02,0-.04.01-.06.02.05-.22.02-.47,0-.69-.03-.21-.08-.42-.12-.63-.02-.1-.04-.2-.06-.3,0-.05-.02-.1-.05-.15.9.05,1.83-.3,2.61-.75.21-.06.41-.13.6-.24.01,0,.24-.15.12-.07.08-.05.15-.09.22-.16.12-.11.23-.24.32-.37.02-.04.04-.08.06-.12h0c.31-.29.75-.69.55-1.16-.09-.21-.29-.26-.42-.42-.16-.18-.03-.43.04-.63.16-.48.31-.93.32-1.45,0-.92-.35-1.95-1.14-2.48-.43-.29-.82-.2-1.3-.13-.29.05-.58.08-.88.11-.08-.05-.14-.1-.24-.15-.18-.09-.35-.14-.55-.18-.36-.07-.71-.11-1.08-.11-.68,0-1.38.11-2,.41-.52.25-1,.61-1.35,1.08-.25.34-.38.74-.4,1.15-.19.32-.35.65-.5.97-.38.83-.6,1.91.02,2.68.2.25.45.42.73.56.16.08.41.12.55.23.17.13.16.35.23.56.09.24.24.47.44.63.49.42,1.33.46,1.99.2,0,.02,0,.05,0,.06,0,.1,0,.2,0,.3,0,.24-.01.49,0,.73,0,.1.02.2.02.31.02.14.05.26.11.37-.06,0-.12,0-.18,0-.48.02-.81.12-1.11.52-.12.16-.1.39.02.54.3.4.65.49,1.13.5.41.02.83,0,1.24-.02.23-.02.45-.06.68-.1.07.06.13.11.2.16.04.04.08.08.15.11.04.02.07.04.11.05.09.04.18.08.27.12.2.07.42.15.63.18.22.04.46.05.67.03.27-.02.52-.11.65-.35.05-.06.09-.13.07-.22-.01-.07-.05-.13-.11-.17-.16-.2-.4-.23-.63-.24-.1,0-.2,0-.31-.01.7-.06,1.42-.04,2.13-.05.77,0,1.55.05,2.3-.15.12-.03.18-.23.03-.27Zm-7.99-3.77c-.18.09-.21.26-.17.4-.37,0-.76-.02-.94-.27-.03-.05-.05-.22-.07-.32-.05-.23-.11-.44-.25-.64-.25-.36-.62-.55-1.02-.71-.24-.1-.42-.16-.49-.43-.07-.27-.01-.58.05-.84.16-.69.51-1.43.94-1.99.55-.72,1.45-.85,2.28-1.03.29-.06.59-.14.88-.21.04,0,.08,0,.12,0,.32,0,.56-.11.82-.14.07-.01.12-.05.15-.09.08-.01.16-.03.24-.05.28-.05.66-.17.95-.06.37.13.6.6.76.94.19.39.29.82.27,1.26,0,.16-.04.31-.08.46-.23.06-.45.22-.59.38-.26.3-.41.64-.37,1.04.04.37.25.73.25,1.1,0-.01-.01.1-.02.13,0,.01,0,.02,0,.03,0,0,0,.01-.01.04,0,.02-.02.04-.03.06,0,0,0,0,0,.01,0,0-.02.02-.03.04-.11.05-.21.11-.33.15-.43.17-.88.31-1.34.4-.02,0-.04,0-.06,0-.66,0-1.32,0-1.92.3Z" style="fill: #522101; stroke-width: 0px;"/>
          <path d="m270.07,170.67c-1.2,0-2.41.22-3.61.31-1.19.09-2.36.21-3.53.41-1.24.21-2.48.17-3.73.1-1.27-.07-2.53-.13-3.79-.31-.09-.01-.1.12-.01.13,1.25.22,2.5.45,3.77.54,1.26.09,2.53.1,3.79.23,1.24.13,2.43.07,3.67-.14,1.18-.2,2.42-.41,3.52-.89.18-.08.16-.39-.06-.39Z" style="fill: #522101; stroke-width: 0px;"/>
          <path d="m356.26,155.88c-.86-.22-1.74-.17-2.62-.18-.89,0-1.8.02-2.69-.06-.46-.04-.9-.16-1.34-.26.78.04,1.55.09,2.33.1.57.01,1.14.03,1.71.07.56.03,1.09.11,1.64-.02.18-.04.19-.25.03-.33-.5-.27-1.04-.31-1.59-.36-.59-.06-1.18-.11-1.77-.14-1.15-.06-2.29.08-3.43.21-.03,0-.05.01-.07.02.06-.25.03-.55,0-.79-.03-.24-.09-.49-.14-.73-.02-.12-.05-.23-.07-.35,0-.06-.03-.11-.06-.17,1.04.06,2.12-.35,3.01-.87.24-.07.47-.15.69-.28.02,0,.27-.17.14-.09.1-.06.17-.1.25-.18.14-.13.27-.27.36-.43.03-.05.05-.09.07-.14h0c.35-.34.87-.8.63-1.34-.11-.24-.33-.31-.49-.49-.18-.21-.03-.5.05-.73.19-.55.36-1.08.36-1.67,0-1.06-.4-2.25-1.32-2.87-.49-.33-.95-.23-1.5-.14-.34.05-.67.09-1.01.13-.09-.06-.16-.11-.28-.18-.2-.11-.4-.16-.63-.2-.41-.08-.82-.13-1.24-.12-.79,0-1.59.13-2.3.48-.61.29-1.15.71-1.56,1.25-.29.39-.44.85-.47,1.33-.22.37-.41.75-.58,1.12-.44.96-.69,2.21.03,3.1.23.28.52.48.84.65.19.09.47.14.63.26.2.16.18.4.26.65.1.28.28.54.5.73.57.48,1.54.53,2.3.23,0,.03,0,.05,0,.06-.01.12,0,.23-.01.35,0,.28-.02.56,0,.84,0,.12.02.24.03.36.02.17.06.3.13.43-.07,0-.14,0-.21,0-.55.02-.93.14-1.28.6-.14.18-.12.45.02.63.35.45.75.56,1.3.58.47.02.96,0,1.43-.02.27-.02.53-.06.79-.12.07.06.15.13.23.19.05.05.1.09.17.13.04.02.09.04.13.06.1.05.21.09.31.13.24.09.49.17.73.21.25.04.52.06.77.04.31-.02.6-.12.75-.4.06-.07.1-.15.08-.25-.01-.09-.06-.15-.12-.2-.18-.22-.46-.27-.73-.27-.12,0-.23-.01-.35-.02.81-.07,1.64-.04,2.45-.05.89,0,1.79.05,2.65-.17.14-.04.21-.27.03-.31Zm-9.22-4.35c-.21.1-.25.3-.19.46-.43-.01-.88-.03-1.08-.31-.04-.06-.06-.26-.08-.37-.05-.27-.13-.51-.29-.74-.28-.42-.71-.63-1.17-.82-.28-.11-.48-.18-.57-.49-.08-.31-.02-.67.06-.97.18-.79.59-1.65,1.09-2.29.64-.82,1.67-.97,2.63-1.18.34-.07.68-.16,1.01-.24.05,0,.09,0,.14,0,.36,0,.65-.13.95-.17.08-.01.14-.05.17-.1.09-.02.18-.03.27-.05.33-.06.76-.19,1.09-.07.43.15.69.69.88,1.08.22.45.33.95.31,1.45,0,.18-.05.35-.09.53-.26.07-.51.26-.68.44-.31.34-.47.74-.43,1.21.04.43.29.84.29,1.27,0-.01-.01.12-.02.15,0,.01,0,.02,0,.04,0,0,0,.01-.02.05,0,.02-.02.05-.03.07,0,0,0,0,0,.01,0,0-.02.03-.03.05-.13.06-.25.13-.37.18-.5.2-1.02.36-1.55.47-.02,0-.04,0-.06.01-.76,0-1.52,0-2.22.35Z" style="fill: #522101; stroke-width: 0px;"/>
          <g>
            <g>
              <path d="m368.86,137.84c.02-.65-.36-1.33-1.16-1.45-.8-.12-1.59-.06-2.4-.03-.71.02-1.41.04-2.12.06-.48.01-.95.1-1.42.17-1.74-.12-3.49-.12-5.23-.07-.01,0-.02,0-.03,0,0-.13.01-.26-.01-.38-.05-.22-.1-.45-.13-.67-.02-.14-.03-.29-.04-.43.12-.06.22-.14.3-.24.51-.03,1.03-.28,1.39-.65.45-.47.87-1.13,1.16-1.71.34-.67.82-1.32.99-2.07.51-2.34.2-4.7-.4-6.98.2,1.55.18,3.1.03,4-.18,1.16-.65,2.82-1.73,3.43-.35.2-.79.36-.9.74-.1.33.08.71-.1,1-.2.31-.7.25-.94-.02-.47-.53-.47-1.32-.45-1.97.02-.59.01-1.23-.27-1.76-.93-1.75-1.47-3-1.55-4.72-.02-.53,0-1.1.06-1.74.15-1.47,1.86-4.77,3.85-3.6.36.21.66.55.92.97-.26-.81-.62-1.61-1.27-1.95-1.17-.62-2.63.29-3.54,1-2.21,1.7-3.4,5.01-2.65,7.72.1.36.25.66.46.96.34.47.52.8.59,1.37.13,1.01.11,2.03,0,3.04-.1.93.09,1.83.9,2.39.52.36,1.24.63,1.93.77,0,.18.01.37.03.55.02.23.06.45.11.68,0,.01.01.03.01.05-.08.01-.17.03-.25.05-.3.08-.58.32-.87.37-.24.04-.4.17-.47.33-.14.02-.28.05-.41.06-.83.06-1.69-.03-2.52-.03-.79,0-1.59.05-2.38.09-.17,0-.16.28,0,.29.83.08,1.67.19,2.5.22l1.26.05c.28.01.57,0,.86.02.19.03.39.06.57.11.16.04.33.08.5.12.04.01.07.03.11.04v.02c.07.01.15,0,.23,0,.11.02.22.03.33.05.02.05.04.1.07.15-.07.04-.14.08-.21.13-.03.02-.05.03-.08.04-.33.18-.4.74.02.87.12.04.29.11.47.15.06.01.12.03.18.04.05.01.2.05.24.05.35.03.7.02,1.05,0,.29,0,.59-.02.88-.05.15-.01.29-.02.44-.04.2-.02.38-.08.53-.18.03-.01.05-.03.08-.05,1.23.29,2.46.55,3.71.72.96.13,1.92.26,2.88.39.44.06.89.12,1.33.18.6.08,1.15.02,1.75-.09,1.31-.23,1.62-1.77.81-2.59Zm-13.98-5.28c-.81.06-1.12-1.99-1.29-2.57-.18-.63-.17-1.3-.35-1.92-.17-.58-.59-.95-.81-1.49-.22-.55-.14-1.2-.09-1.77.02-.27.06-.53.1-.78,0,.6.02,1.4.39,1.84.09.11.24.14.32.24.09.1.13.28.18.4.13.3.27.6.44.88.46.75,1.5,1.39,1.49,2.34,0,.13-.55,2.86-.37,2.84Z" style="fill: #522101; stroke-width: 0px;"/>
              <path d="m359.75,123.4c-.17-1.37-.52-2.73-1.09-3.67.17.53.3,1.07.44,1.49.24.72.46,1.45.66,2.18Z" style="fill: #522101; stroke-width: 0px;"/>
            </g>
            <path d="m361.93,138.68c-.11-.1-.22-.21-.33-.31-.24-.17-.52-.27-.81-.31-.35-.08-.74-.04-1.1-.04-.5,0-.99.02-1.49.06-.48.04-.91.07-1.37.25-.43.16-.89.39-1.15.78-.2.13-.36.29-.39.55-.02.24.08.54.3.67l.09.05s.03.07.05.1c.16.21.38.32.61.44.16.08.31.16.47.22.41.16.83.2,1.26.24,0,0,0,0,0,.01,0,.15.12.28.27.3.25.02.5.06.74.06.28,0,.63.04.85-.17.03-.03.03-.07.05-.1.31,0,.61,0,.88-.06.43-.1.87-.3,1.12-.69.2-.31.31-.65.3-1.03,0-.36-.12-.75-.36-1.03Z" style="fill: #522101; stroke-width: 0px;"/>
            <path d="m371.17,136.86c-.15,0-.31,0-.46,0-.19,0-.39-.03-.57,0-.16.03-.32.06-.48.09-.23.04-.4.24-.39.47,0,.24.18.41.41.45.16.03.32.06.48.09.15.03.31,0,.46,0,.15,0,.31,0,.46,0,.14,0,.3-.01.43-.07.19-.09.32-.28.32-.49,0-.35-.35-.53-.66-.54Z" style="fill: #522101; stroke-width: 0px;"/>
          </g>
          <g>
            <g>
              <path d="m377.99,165.14c.02-.43-.24-.88-.76-.95-.52-.08-1.05-.04-1.58-.02-.46.01-.93.03-1.39.04-.32,0-.62.06-.93.11-1.15-.08-2.29-.08-3.44-.05,0,0-.01,0-.02,0,0-.08,0-.17,0-.25-.03-.15-.07-.29-.09-.44-.02-.09-.02-.19-.03-.28.08-.04.14-.09.2-.16.33-.02.68-.18.91-.43.29-.31.57-.75.76-1.12.22-.44.54-.87.65-1.36.34-1.54.13-3.09-.26-4.59.13,1.02.12,2.04.02,2.63-.12.76-.43,1.85-1.14,2.26-.23.13-.52.24-.59.49-.06.21.05.47-.07.66-.13.2-.46.16-.62-.02-.31-.35-.31-.87-.3-1.3.01-.39,0-.81-.18-1.16-.62-1.15-.97-1.98-1.02-3.1-.01-.35,0-.72.04-1.15.1-.97,1.23-3.14,2.53-2.37.24.14.43.36.6.64-.17-.53-.4-1.06-.84-1.28-.77-.41-1.73.19-2.33.66-1.45,1.12-2.24,3.3-1.74,5.08.06.24.16.43.31.63.22.31.34.52.39.9.09.66.07,1.34,0,2-.07.61.06,1.21.59,1.57.34.24.82.41,1.27.5,0,.12,0,.24.02.36.02.15.04.3.07.45,0,0,0,.02,0,.03-.06,0-.11.02-.17.04-.2.05-.38.21-.58.24-.16.03-.26.11-.31.22-.09.01-.18.03-.27.03-.55.04-1.11-.02-1.66-.02-.52,0-1.04.04-1.57.06-.11,0-.1.18,0,.2.55.05,1.1.12,1.65.14l.83.03c.18,0,.38,0,.57.01.13.02.25.04.38.07.11.03.22.05.33.08.03,0,.05.02.07.03h0s.1.02.15.02c.07.01.14.02.22.03.01.03.03.07.05.1-.05.02-.09.05-.14.09-.02,0-.04.02-.05.02-.22.12-.26.49.02.58.07.02.19.07.31.1.04,0,.08.02.12.03.03,0,.13.03.16.03.23.02.46.01.69,0,.2,0,.39-.02.58-.03.1,0,.19-.02.29-.02.13-.01.25-.05.35-.12.02-.01.03-.02.05-.03.81.19,1.62.36,2.44.47.63.09,1.26.17,1.9.25.29.04.58.08.88.12.4.05.76.01,1.15-.06.86-.15,1.07-1.16.53-1.7Zm-9.2-3.47c-.53.04-.73-1.31-.84-1.69-.12-.41-.11-.85-.23-1.26-.11-.38-.39-.63-.53-.98-.14-.36-.1-.79-.06-1.16.02-.17.04-.35.07-.52,0,.39.01.92.25,1.21.06.07.16.09.21.15.06.07.08.19.12.27.09.2.18.39.29.58.3.5.99.92.98,1.54,0,.09-.36,1.88-.25,1.87Z" style="fill: #522101; stroke-width: 0px;"/>
              <path d="m371.99,155.63c-.11-.9-.34-1.8-.72-2.42.11.35.2.71.29.98.16.47.3.95.43,1.44Z" style="fill: #522101; stroke-width: 0px;"/>
            </g>
            <path d="m373.43,165.69c-.07-.07-.14-.14-.22-.21-.16-.11-.34-.18-.53-.2-.23-.05-.49-.03-.72-.03-.33,0-.65.01-.98.04-.31.03-.6.05-.9.16-.28.11-.59.25-.75.51-.14.09-.24.19-.25.37-.02.16.05.36.2.44l.06.04s.02.04.03.06c.1.14.25.21.4.29.1.05.2.1.31.14.27.11.54.13.82.16,0,0,0,0,0,.01,0,.1.08.18.18.19.16.02.33.04.49.04.19,0,.41.02.56-.11.02-.02.02-.05.03-.07.2,0,.4,0,.58-.04.28-.07.57-.2.74-.45.13-.21.2-.43.2-.67,0-.24-.08-.49-.24-.67Z" style="fill: #522101; stroke-width: 0px;"/>
            <path d="m379.5,164.49c-.1,0-.2,0-.3,0-.12,0-.25-.02-.37,0-.1.02-.21.04-.32.06-.15.03-.26.16-.26.31,0,.16.12.27.27.3.1.02.21.04.32.06.1.02.2,0,.3,0,.1,0,.2,0,.3,0,.09,0,.2,0,.28-.05.13-.06.21-.18.21-.32,0-.24-.23-.35-.44-.35Z" style="fill: #522101; stroke-width: 0px;"/>
          </g>
          <g>
            <g>
              <path d="m373.68,129.36c.02-.36-.2-.75-.65-.81-.45-.07-.89-.03-1.34-.02-.4.01-.8.02-1.19.03-.27,0-.53.06-.8.1-.98-.07-1.96-.07-2.94-.04,0,0-.01,0-.02,0,0-.07,0-.15,0-.21-.03-.13-.06-.25-.07-.38-.01-.08-.02-.16-.02-.24.07-.03.12-.08.17-.14.28-.02.58-.16.78-.37.25-.26.49-.63.65-.96.19-.38.46-.74.55-1.16.29-1.31.12-2.64-.22-3.92.11.87.1,1.74.02,2.25-.1.65-.36,1.58-.97,1.93-.2.11-.44.2-.51.42-.06.18.05.4-.06.56-.11.17-.39.14-.53-.01-.26-.3-.26-.74-.25-1.11.01-.33,0-.69-.15-.99-.52-.98-.83-1.69-.87-2.65-.01-.3,0-.62.03-.98.09-.82,1.05-2.68,2.16-2.02.2.12.37.31.51.54-.14-.45-.35-.9-.71-1.09-.66-.35-1.48.17-1.99.56-1.24.96-1.91,2.81-1.49,4.34.06.2.14.37.26.54.19.26.29.45.33.77.07.56.06,1.14,0,1.71-.06.52.05,1.03.51,1.34.29.2.7.35,1.09.43,0,.1,0,.21.02.31.01.13.03.26.06.38,0,0,0,.02,0,.03-.05,0-.09.02-.14.03-.17.04-.32.18-.49.21-.14.02-.22.1-.27.19-.08.02-.16.03-.23.03-.47.04-.95-.01-1.42-.02-.44,0-.89.03-1.33.05-.1,0-.09.16,0,.17.47.05.94.1,1.41.12l.71.03c.15,0,.32,0,.48.01.11.02.21.03.32.06.09.02.18.05.28.07.02,0,.04.02.06.02h0s.09.01.13.02c.06.01.12.02.18.03.01.03.02.06.04.09-.04.02-.08.05-.12.07-.01,0-.03.02-.04.02-.19.1-.22.42.01.49.07.02.17.06.26.08.03,0,.07.02.1.02.03,0,.11.03.13.03.2.02.39,0,.59,0,.17,0,.33-.01.49-.03.08,0,.17-.01.25-.02.11,0,.21-.04.3-.1.01,0,.03-.02.04-.03.69.16,1.38.31,2.08.4.54.07,1.08.15,1.62.22.25.03.5.07.75.1.34.04.65,0,.98-.05.73-.13.91-1,.45-1.45Zm-7.85-2.96c-.46.04-.63-1.12-.72-1.45-.1-.35-.1-.73-.2-1.08-.09-.33-.33-.53-.46-.84-.12-.31-.08-.67-.05-1,.01-.15.03-.29.05-.44,0,.34.01.78.22,1.04.05.06.13.08.18.13.05.06.07.16.1.23.07.17.15.33.25.49.26.42.84.78.84,1.31,0,.07-.31,1.6-.21,1.6Z" style="fill: #522101; stroke-width: 0px;"/>
              <path d="m368.57,121.25c-.1-.77-.29-1.53-.61-2.06.1.3.17.6.25.84.13.4.26.81.37,1.23Z" style="fill: #522101; stroke-width: 0px;"/>
            </g>
            <path d="m369.8,129.83c-.06-.06-.12-.12-.19-.17-.14-.1-.29-.16-.45-.17-.2-.05-.41-.02-.62-.02-.28,0-.56,0-.84.04-.27.03-.51.04-.77.14-.24.09-.5.22-.65.44-.12.07-.2.17-.22.31-.02.14.05.3.17.38l.05.03s.02.04.03.06c.09.12.21.18.34.25.09.04.17.09.26.12.23.09.47.11.7.13,0,0,0,0,0,0,0,.08.07.16.15.17.14.01.28.04.41.03.16,0,.36.02.48-.1.02-.02.02-.04.02-.06.17,0,.34,0,.5-.03.24-.06.49-.17.63-.39.11-.18.18-.36.17-.58,0-.2-.06-.42-.2-.58Z" style="fill: #522101; stroke-width: 0px;"/>
            <path d="m374.98,128.81c-.09,0-.17,0-.26,0-.11,0-.22-.01-.32,0-.09.02-.18.03-.27.05-.13.02-.22.13-.22.26,0,.14.1.23.23.25.09.02.18.03.27.05.08.02.17,0,.26,0,.09,0,.17,0,.26,0,.08,0,.17,0,.24-.04.11-.05.18-.16.18-.27,0-.2-.2-.3-.37-.3Z" style="fill: #522101; stroke-width: 0px;"/>
          </g>
          <g>
            <g>
              <path d="m389.18,131.24c.02-.49-.28-1.01-.88-1.1-.61-.09-1.21-.04-1.82-.03-.54.02-1.07.03-1.61.05-.36.01-.72.07-1.07.13-1.32-.09-2.65-.09-3.97-.06,0,0-.01,0-.02,0,0-.1.01-.2,0-.28-.04-.17-.07-.34-.1-.51-.01-.11-.02-.22-.03-.33.09-.04.17-.1.23-.18.38-.03.78-.21,1.05-.5.34-.36.66-.86.88-1.3.26-.51.62-1,.75-1.56.39-1.77.16-3.56-.3-5.29.15,1.18.14,2.35.03,3.03-.14.88-.49,2.13-1.31,2.6-.26.15-.6.27-.69.56-.07.25.06.54-.08.76-.15.23-.53.19-.71-.02-.36-.4-.36-1-.34-1.49.01-.44.01-.93-.2-1.33-.71-1.33-1.12-2.28-1.18-3.58-.02-.4,0-.83.05-1.32.11-1.11,1.41-3.62,2.92-2.73.27.16.5.42.69.74-.2-.61-.47-1.22-.96-1.48-.89-.47-1.99.22-2.68.76-1.67,1.29-2.58,3.8-2.01,5.85.07.27.19.5.35.73.25.35.39.6.44,1.04.1.76.08,1.54,0,2.31-.08.7.07,1.39.69,1.81.4.27.94.47,1.46.58,0,.14,0,.28.02.42.02.17.04.35.08.51,0,.01,0,.03,0,.04-.06.01-.13.02-.19.04-.23.06-.44.24-.66.28-.18.03-.3.13-.36.25-.1.02-.21.03-.31.04-.63.05-1.28-.02-1.91-.03-.6,0-1.2.04-1.8.07-.13,0-.12.21,0,.22.63.06,1.26.14,1.9.17l.95.04c.21,0,.44,0,.65.02.15.02.29.05.44.09.12.03.25.06.38.09.03.01.05.03.09.03v.02c.05,0,.11,0,.17,0,.08.02.17.03.25.04.01.04.03.08.06.11-.06.03-.11.06-.16.1-.02.01-.04.02-.06.03-.26.13-.3.56.02.66.09.03.22.08.35.12.05.01.09.02.14.03.04,0,.15.04.18.04.26.03.53.01.8,0,.22,0,.44-.02.67-.04.11,0,.22-.02.33-.03.16-.01.29-.06.4-.14.02,0,.04-.02.06-.03.93.22,1.87.42,2.81.55.73.1,1.46.2,2.18.29.34.05.67.09,1.01.14.45.06.87.01,1.33-.07.99-.17,1.23-1.34.61-1.96Zm-10.59-4c-.62.05-.85-1.51-.97-1.95-.14-.48-.13-.98-.27-1.46-.13-.44-.45-.72-.61-1.13-.17-.41-.11-.91-.07-1.34.02-.2.04-.4.08-.59,0,.46.02,1.06.29,1.4.07.08.18.1.24.18.07.08.09.22.14.31.1.23.21.45.34.67.35.57,1.14,1.06,1.13,1.77,0,.1-.42,2.16-.29,2.15Z" style="fill: #522101; stroke-width: 0px;"/>
              <path d="m382.28,120.29c-.13-1.04-.39-2.07-.83-2.78.13.4.22.81.33,1.13.18.54.35,1.1.5,1.66Z" style="fill: #522101; stroke-width: 0px;"/>
            </g>
            <path d="m383.94,131.87c-.09-.08-.17-.16-.25-.24-.18-.13-.39-.21-.61-.23-.27-.06-.56-.03-.83-.03-.38,0-.75.01-1.13.05-.36.03-.69.06-1.04.19-.32.12-.68.29-.87.59-.16.1-.27.22-.29.42-.02.18.06.41.23.51l.07.04s.02.05.04.07c.12.16.29.25.46.33.12.06.23.12.35.17.31.12.63.15.95.18,0,0,0,0,0,.01,0,.11.09.21.21.22.19.02.38.05.56.05.22,0,.48.03.65-.13.03-.03.03-.05.04-.08.23,0,.46,0,.67-.05.33-.08.66-.23.85-.52.15-.24.24-.49.23-.78,0-.27-.09-.57-.27-.78Z" style="fill: #522101; stroke-width: 0px;"/>
            <path d="m390.94,130.49c-.12,0-.23,0-.35,0-.14,0-.29-.02-.43,0-.12.02-.24.04-.36.07-.17.03-.3.18-.29.36,0,.18.14.31.31.34.12.02.24.05.36.07.11.02.24,0,.35,0,.11,0,.23,0,.35,0,.11,0,.22-.01.32-.06.15-.06.25-.21.24-.37,0-.27-.27-.4-.51-.41Z" style="fill: #522101; stroke-width: 0px;"/>
          </g>
          <path d="m121.98,34.36c-.06-.13-.17-.34-.2-.42-.05-.13-.06-.26-.13-.38-.08-.14-.16-.27-.25-.4-.46-.73-.98-1.42-1.62-1.99-.58-.52-1.46-1.04-2.27-.92-.17.03-.28.1-.41.17.01,0,.02-.01-.02,0-.07.02-.15.07-.21.12-.08.06-.09.09-.19.18.01,0,.07-.08,0-.02-.08.07-.18.16-.24.25-.09.12-.22.31-.24.47,0,0,0,.07,0,.11,0,.02-.01.04-.01.04-.02.08-.05.15-.07.23-.17.71-.06,1.46.11,2.16.03.14.24.11.22-.03-.08-.63-.19-1.5.31-1.99.06-.01.13-.03.2-.06.02,0,.03,0,.05,0,.02,0,.05-.01.07-.02.02,0,.03,0,.04,0,.03.01.07.02.11.02.11.05.23.08.35.1.03,0,.11.03.11.02.03,0,.05.02.08.03.11.04.22.09.33.14,0,0,0,0,.02,0,.06.04.12.07.18.11.11.07.21.15.31.23.04.04.09.07.13.11,0,0,0,0,.01,0,0,0,.02.02.03.03.19.2.37.41.55.62.39.46.72.98,1.14,1.41.03.03.12.15.19.24.09.12.17.23.25.35.18.27.35.51.61.7.29.21.75.02.77-.35.02-.46-.14-.87-.32-1.28Z" style="fill: #522101; stroke-width: 0px;"/>
          <path d="m148.59,56.08c-1.03-1.01-2.04-1.93-2.69-3.24-.33-.66-.72-1.27-1.07-1.92-.38-.71-.73-1.44-1.2-2.1-.78-1.11-1.9-1.78-2.91-2.65-.99-.84-2.04-1.6-3.07-2.39-1.17-.9-2.28-1.87-3.08-3.13-.09-.13-.32,0-.25.15,1.28,2.28,3.41,3.76,5.37,5.4,1.05.88,1.79,1.91,2.39,3.14.34.71.68,1.42,1.03,2.13.34.69.68,1.48,1.22,2.03,1.11,1.14,2.48,2.37,3.99,2.93.2.08.43-.19.26-.36Z" style="fill: #522101; stroke-width: 0px;"/>
          <path d="m147.28,58.46c-.39-.52-.83-.98-1.33-1.39-.53-.44-1.2-.69-1.82-.98-.4-.19-.89-.35-1.22-.65-.36-.34-.54-.8-.72-1.25-.64-1.62-.95-3.99-2.96-4.44-.29-.07-.4.42-.12.51,2.17.67,1.53,3.58,2.04,5.24.35,1.15,1.03,1.99,2.1,2.54.57.3,1.14.63,1.77.78.65.16,1.29.22,1.96.21.29,0,.5-.31.3-.56Z" style="fill: #522101; stroke-width: 0px;"/>
          <path d="m144.47,61.49c-.32-.16-.64-.31-.9-.45-.06-.03-.12-.06-.18-.09.07.03.07.03.02,0-.12-.07-.24-.13-.36-.19-.02,0-.13-.06-.17-.08-.04-.02-.14-.08-.16-.09-.6-.36-1.12-.85-1.67-1.28-.25-.2-.49-.4-.66-.66-.19-.29-.42-.57-.52-.9-.22-.69-.21-1.48-.06-2.18.04-.18-.27-.25-.32-.07-.21.77-.21,1.54-.07,2.32.07.41.07.81.2,1.2.12.38.21.75.35,1.12.32.85.97,1.49,1.73,1.96.21.13.44.25.66.36.12.06.25.1.39.13.1.02.11.02.03,0,.1.02.2.05.3.07.44.07.84.08,1.28-.03.58-.16.66-.86.12-1.13Z" style="fill: #522101; stroke-width: 0px;"/>
          <path d="m141.49,64.16c.02-.27-.15-.55-.35-.7-.23-.18-.52-.27-.79-.39-.05-.02-.09-.05-.14-.07,0,0,0,0-.01,0,0,0,0,0,0,0-.11-.06-.21-.13-.32-.2-.19-.13-.39-.25-.58-.39-.19-.14-.36-.33-.55-.45,0,0,0,0,0,0,0,0,0,0-.01-.01-.04-.05-.08-.09-.13-.14-.07-.09-.14-.18-.22-.27-.14-.18-.29-.37-.42-.57-.22-.34-.4-.8-.45-1.25-.04-.31-.52-.3-.55.01-.04.52-.03,1.07.06,1.58.05.3.13.58.24.86.05.12.1.23.16.34.03.05.06.11.09.16.05.07.09.14.13.22-.04-.07-.05-.08-.03-.03-.02.03.25.4.29.47.07.1.15.2.24.29.21.23.44.47.7.65.54.37,1.26.76,1.93.69.27-.03.48-.22.61-.44.02-.03.03-.05.05-.08h0s0,0,0,0c.04-.09.06-.18.05-.27Z" style="fill: #522101; stroke-width: 0px;"/>
          <path d="m135.5,63.27s0,0,0,0c0-.02-.01-.03-.02-.04-.01-.03-.03-.05-.04-.08-.03-.06-.05-.12-.08-.18,0-.01,0-.02,0-.03,0-.03-.01-.05-.02-.08-.02-.11-.06-.2-.1-.3-.06-.12-.12-.24-.16-.37,0-.01,0-.02,0-.03,0-.03-.02-.07-.02-.1-.01-.07-.02-.13-.04-.19,0-.06-.02-.12-.02-.18v-.08s0-.08.01-.11c.02-.22-.31-.37-.43-.16-.09.15-.16.31-.21.47-.02.04-.04.09-.05.14,0,.04-.01.08-.02.11-.01.07-.02.15-.02.23,0,.21,0,.43.07.64.12.35.43.61.75.78.14.07.29.08.4-.04.11-.12.1-.27.02-.4Z" style="fill: #522101; stroke-width: 0px;"/>
          <path d="m171.31,63.96c-1.04-.17-2.1-.19-3.15-.26-.99-.06-1.97-.13-2.96-.2-.99-.07-1.96-.18-2.94-.29-.87-.1-1.67-.33-2.52-.51-3.26-.67-6.68-.66-9.71-2.18-.14-.07-.28.14-.18.24,2.52,2.49,6,3.68,9.51,3.59.88-.02,1.75-.21,2.63-.22,1.05-.02,2.09-.05,3.14-.02,1.05.03,2.11.05,3.17.08,1,.03,2.01.1,3.01.03.16-.01.13-.24,0-.26Z" style="fill: #522101; stroke-width: 0px;"/>
          <path d="m168.46,65.91c-3.44,0-6.87.02-10.3-.25-1.63-.13-3.24-.41-4.85-.67-.59-.09-1.18-.17-1.77-.26-.4-.07-.98-.19-1.41-.05-.58-.19-1.12-.52-1.47-1.02-.12-.17-.36,0-.3.18.28.74.71,1.28,1.31,1.75.2.52.97.84,1.43.96.63.17,1.32.25,1.97.22,1.6-.06,3.19-.36,4.79-.44,3.53-.17,7.05-.17,10.58-.27.09,0,.08-.15,0-.15Z" style="fill: #522101; stroke-width: 0px;"/>
          <path d="m290.86,124.3c-1.74-.8-3.57-1.36-5.39-1.96-1.79-.58-3.57-1.19-5.35-1.79-1.65-.56-3.29-1.14-4.94-1.71-1.65-.57-3.28-1.18-4.9-1.84-3.13-1.29-6.24-2.64-9.08-4.49-2.77-1.8-5.38-3.89-8.47-5.13-3.31-1.33-6.94-1.31-10.38-2.11-3.23-.75-6.38-2.07-9.13-3.93-1.46-.99-3.14-2.08-4.93-1.18-.79.39-1.39,1.01-2.02,1.61-.65.63-1.29,1.27-1.92,1.91-2.54,2.59-5,5.26-7.35,8.02-2.23,2.61-4.27,5.41-6.27,8.2-.88,1.23-1.76,2.45-2.74,3.6-.94,1.1-1.95,2.18-3.14,3-.63.44-1.36.74-2.08,1-.1.03-.05.21.05.18,2.73-.78,5.21-2.42,7.16-4.46,2.25-2.35,4.23-4.95,6.39-7.38,2.36-2.64,4.72-5.28,7.19-7.81,3.99-4.08,6.13-5.49,11.46-2.9,1.53.74,3.11,1.34,4.73,1.84,1.67.51,3.39.88,5.12,1.14,1.69.25,3.42.42,5.08.85,3.17.83,5.77,2.74,8.41,4.59,2.81,1.97,5.78,3.64,8.96,4.92,3.2,1.29,6.61,2.14,9.93,3.03,1.75.47,3.53.85,5.29,1.31,1.86.49,3.71,1,5.57,1.48.87.23,1.73.39,2.62.52.31.05.38-.39.12-.51Z" style="fill: #522101; stroke-width: 0px;"/>
          <path d="m244.94,109.14c-.27-.07-.48-.19-.77-.22-.27-.03-.55-.06-.83-.08-.56-.06-1.11-.12-1.67-.18-1.12-.13-2.2-.33-3.31-.54-1.08-.2-2.1-.37-3.14-.73-.52-.18-1.06-.33-1.57-.56-.56-.25-1.09-.6-1.61-.93-.11-.07-.22-.02-.27.06-.48-.17-.98-.26-1.5-.24-.85.04-1.69.55-2.11,1.3-.13.22.16.44.33.24.57-.69,1.64-.73,2.47-.53,1.05.24,1.91.98,2.81,1.52.78.47,1.64.78,2.53.95.51.27,1.04.51,1.56.7,1.1.39,2.36.61,3.53.68.62.04,1.22.03,1.83-.03.27-.03.55-.07.82-.12.36-.06.59-.2.92-.35.36-.17.42-.81-.03-.93Z" style="fill: #522101; stroke-width: 0px;"/>
          <path d="m244.5,111.61c-.29-.21-.65-.16-.99-.18-.33-.01-.65.04-.99.06-.65.05-1.31.15-1.96.14-1.37-.03-2.68-.2-3.96-.73-.2-.08-.38.23-.18.34,1.23.69,2.56,1.27,3.95,1.53.72.14,1.44.26,2.17.21.37-.02.76-.04,1.11-.17.33-.12.77-.24.95-.55.13-.22.12-.5-.11-.66Z" style="fill: #522101; stroke-width: 0px;"/>
          <g>
            <path d="m243.64,117.1s.01,0,.02,0c-.02,0-.02,0-.02,0Z" style="fill: #522101; stroke-width: 0px;"/>
            <path d="m247.9,121.15c-.4-.05-.78-.07-1.2-.07-.41,0-.82-.02-1.22-.05-.79-.07-1.58-.13-2.36-.31-.71-.16-1.39-.4-2.06-.66.39,0,.78-.02,1.16-.06.8-.08,1.59-.23,2.33-.55.73-.32,1.35-.82,1.98-1.3.25-.19,0-.52-.26-.44-.48.16-.97.22-1.47.29.08-.17,0-.39-.19-.48-.17-.09-.35-.17-.53-.24-.04-.02-.09-.03-.13-.04,0,0-.06-.02-.08-.03-.03-.02-.23-.12-.22-.12-.04-.02-.07-.03-.11-.04-.09-.03-.17-.07-.26-.11t0,0c-.07-.04-.14-.08-.21-.12-.2-.11-.41-.19-.62-.28-.09-.04-.17-.08-.26-.12-.02-.01-.05-.02-.07-.03,0,0-.02-.01-.03-.02.09-.02.18-.05.27-.09.7-.27,1.4-.63,2.01-1.06.19-.14-.01-.48-.22-.36-.58.34-1.17.55-1.84.58-.28.01-.57.06-.84-.02-.17-.05-.35-.06-.52-.08-.07-.01-.15-.02-.22-.04-.03,0-.06-.01-.09-.02-.09-.07-.17-.12-.29-.16-.34-.12-.78-.02-.98.3-.2.3-.22.74.03,1.02.57.63,1.23,1.17,1.99,1.55.3.16.62.29.94.37-.1,0-.21.02-.31.03-.69.04-1.37,0-2.06-.04-.37-.02-.73-.05-1.1-.06-.35-.01-.69-.08-1.02.07-.27.13-.3.42-.16.65.21.34.61.46.95.62.12.06.25.1.38.14.42.4.86.79,1.34,1.06.78.43,1.64.73,2.49.95.83.21,1.7.39,2.56.39.45,0,.91-.02,1.36-.07.21-.02.4-.05.6-.1.27-.06.42-.15.66-.26.27-.13.21-.54-.09-.58Z" style="fill: #522101; stroke-width: 0px;"/>
          </g>
          <path d="m248.72,123.58c-.39-.07-.73.03-1.11.14-.7.2-1.42.32-2.13.5-.36.09-.69.2-1.06.25-.37.05-.74.06-1.11.07-.74.02-1.44-.04-2.17-.19-.18-.04-.25.26-.08.32.66.22,1.35.42,2.03.58.71.16,1.44.21,2.15.32.73.11,1.5.02,2.21-.14.63-.14,1.78-.34,1.85-1.15.03-.37-.24-.64-.59-.7Z" style="fill: #522101; stroke-width: 0px;"/>
          <path d="m269.89,131.89c-1.03-.55-2.15-.88-3.31-.91-1.23-.03-2.48.22-3.68.48-.49.11-.98.21-1.47.31.49-.26.97-.55,1.45-.87.38-.26.06-.85-.35-.79-1.32.2-2.64.31-3.96.48-1.31.16-2.65.22-3.97.25-1.33.03-2.7-.02-4.03-.13-.21-.02-.43-.04-.64-.07.74-.16,1.46-.4,2.14-.75,1.48-.74,3.12-2.17,2.6-3.99-.1-.34-.44-.64-.81-.45-.44.22-.92.24-1.39.34-.5.11-.99.27-1.49.36-.99.18-2,.29-3.01.34-2.09.11-4.16-.28-6.21-.66-.32-.06-.45.46-.13.56,2.11.64,4.27,1.24,6.46,1.56,1.07.15,2.18.17,3.25-.03.5-.09,1.05-.21,1.53-.42-.48.53-1.15.91-1.79,1.18-.78.32-1.6.6-2.42.82-.41.11-.83.2-1.26.26-.44.07-.94.1-1.34.3-.32.16-.26.59.02.7,0,0,0,0,0,0,.2.1.44.14.68.16.22.11.44.25.57.33.3.17.56.39.86.57.61.36,1.35.59,2.03.79,1.43.42,2.83.64,4.31.67.56.01,1.11-.02,1.65-.07.94.27,1.89.54,2.86.65,1.23.14,2.46.01,3.68-.14,1.17-.15,2.32-.35,3.49-.46,1.14-.11,2.24-.27,3.37-.04.34.07.67-.22.74-.53.09-.36-.11-.64-.42-.8Z" style="fill: #522101; stroke-width: 0px;"/>
          <path d="m212.4,125.2c-2.92.38-5.14,2.42-7.87,3.32-.71.24-1.38.45-2.11.61-.84.19-1.71.24-2.56.39-1.85.32-3.7.56-5.58.67-.26.01-.24.43.01.45,1.92.1,3.82.32,5.7.67,1.65.31,3.67.21,5.19-.53,1.35-.66,2.48-1.72,3.66-2.64,1.18-.91,2.32-1.85,3.71-2.42.29-.12.16-.57-.15-.53Z" style="fill: #522101; stroke-width: 0px;"/>
          <path d="m212.56,128.69c-.34-.17-.69.02-.97.21-.46.31-.91.62-1.37.93-.44.29-.84.64-1.3.9-.55.31-1.08.55-1.69.7-.62.16-1.27.24-1.92.26-.33.01-.32.57.02.59,1.11.06,2.16-.11,3.25-.32.56-.11,1.09-.23,1.63-.42.57-.2,1.05-.46,1.55-.81.25-.18.45-.38.65-.61.19-.23.4-.46.46-.77.05-.26-.05-.53-.29-.66Z" style="fill: #522101; stroke-width: 0px;"/>
          <path d="m296.55,126.99c-.68-.24-1.45-.2-2.16-.36-.75-.17-1.52-.21-2.28-.29-.74-.07-1.48-.06-2.22-.08-.74-.02-1.48.11-2.23.1-1.44-.04-2.9-.1-4.33-.26-1.52-.17-3.05-.79-4.38-1.52-.19-.1-.4.16-.21.29,1.3.81,2.68,1.33,4.11,1.86,1.45.54,2.86.93,4.4,1.13.36.05.73.09,1.09.14.4.05.78.17,1.17.2.81.06,1.66.06,2.47,0,.79-.06,1.59-.1,2.37-.28.72-.17,1.5-.13,2.21-.34.27-.08.23-.5-.01-.58Z" style="fill: #522101; stroke-width: 0px;"/>
          <g>
            <g>
              <path d="m351.75,113.49c.02-.57-.32-1.18-1.02-1.28-.71-.1-1.41-.05-2.12-.03-.62.02-1.25.03-1.87.05-.42.01-.84.09-1.25.15-1.54-.1-3.08-.1-4.63-.07-.01,0-.02,0-.03,0,0-.11,0-.23-.01-.33-.04-.2-.09-.4-.11-.6-.02-.13-.03-.25-.03-.38.1-.05.19-.12.26-.21.45-.03.91-.25,1.23-.58.39-.41.77-1,1.02-1.51.3-.59.73-1.16.88-1.83.45-2.07.18-4.15-.35-6.17.18,1.37.16,2.74.03,3.54-.16,1.03-.57,2.49-1.53,3.03-.31.18-.7.32-.8.66-.09.29.07.63-.09.88-.17.27-.62.22-.83-.02-.42-.47-.42-1.17-.4-1.74.02-.52.01-1.09-.24-1.56-.83-1.55-1.3-2.66-1.37-4.17-.02-.47,0-.97.05-1.54.13-1.3,1.65-4.22,3.4-3.19.32.19.58.49.81.86-.23-.71-.55-1.42-1.12-1.73-1.03-.54-2.33.26-3.13.88-1.95,1.51-3.01,4.43-2.34,6.83.09.32.22.58.41.85.3.41.45.71.52,1.22.12.89.09,1.8,0,2.69-.09.82.08,1.62.8,2.11.46.32,1.1.55,1.71.68,0,.17.01.33.03.49.02.2.05.4.1.6,0,.01,0,.03.01.04-.07.01-.15.03-.23.05-.26.07-.51.28-.77.32-.22.03-.35.15-.42.29-.12.02-.24.04-.36.05-.73.05-1.5-.02-2.23-.03-.7,0-1.4.05-2.1.08-.15,0-.14.25,0,.26.74.07,1.47.17,2.21.2l1.11.05c.24,0,.5,0,.76.02.17.02.34.05.51.1.14.04.29.07.44.1.03.01.06.03.1.03v.02c.06.01.13,0,.2,0,.1.02.19.03.29.04.02.05.04.09.07.13-.06.03-.13.07-.18.11-.02.01-.05.03-.07.04-.3.16-.35.65.02.77.1.03.26.1.41.13.05.01.11.03.16.04.04.01.18.04.21.05.31.03.62.01.93,0,.26,0,.52-.02.78-.05.13-.01.26-.02.39-.03.18-.02.33-.07.47-.16.02-.01.04-.03.06-.04,1.09.25,2.18.48,3.28.64.85.12,1.7.23,2.55.34.39.05.79.11,1.18.16.53.07,1.02.01,1.55-.08,1.15-.2,1.43-1.57.71-2.29Zm-12.36-4.66c-.72.05-.99-1.76-1.14-2.28-.16-.55-.15-1.14-.31-1.7-.15-.52-.53-.84-.72-1.32-.19-.48-.13-1.06-.08-1.57.02-.23.05-.46.09-.69,0,.53.02,1.23.34,1.63.08.1.21.12.28.21.08.09.11.25.16.36.12.27.24.52.39.77.41.67,1.33,1.23,1.32,2.07,0,.12-.48,2.53-.33,2.52Z" style="fill: #522101; stroke-width: 0px;"/>
              <path d="m343.7,100.71c-.16-1.21-.46-2.42-.97-3.25.15.47.26.95.39,1.32.21.63.41,1.28.58,1.93Z" style="fill: #522101; stroke-width: 0px;"/>
            </g>
            <path d="m345.63,114.23c-.1-.09-.2-.18-.29-.28-.21-.15-.45-.24-.71-.27-.31-.07-.65-.03-.97-.03-.44,0-.88.01-1.32.06-.42.04-.81.07-1.21.22-.38.14-.79.34-1.02.69-.18.11-.32.26-.34.49-.02.21.07.48.27.59l.08.05s.03.06.05.09c.14.19.34.29.54.39.14.07.27.14.41.2.36.14.73.18,1.11.21,0,0,0,0,0,.01,0,.13.1.25.24.26.21.02.44.06.65.05.25,0,.56.03.76-.15.03-.03.03-.06.04-.09.27,0,.54,0,.78-.06.38-.09.77-.27.99-.61.18-.28.27-.57.27-.91,0-.32-.1-.66-.32-.91Z" style="fill: #522101; stroke-width: 0px;"/>
            <path d="m353.8,112.62c-.13,0-.27,0-.4,0-.17,0-.34-.02-.5,0-.14.02-.28.05-.42.08-.2.04-.35.21-.35.42,0,.21.16.36.37.4.14.03.28.05.43.08.13.02.27,0,.4,0,.13,0,.27,0,.41,0,.13,0,.26-.01.38-.06.17-.07.29-.24.28-.43,0-.31-.31-.47-.59-.48Z" style="fill: #522101; stroke-width: 0px;"/>
          </g>
          <g>
            <g>
              <path d="m368.98,98.41c.02-.44-.25-.89-.78-.97-.53-.08-1.07-.04-1.61-.02-.47.01-.95.03-1.42.04-.32.01-.64.07-.95.12-1.17-.08-2.34-.08-3.51-.05,0,0-.01,0-.02,0,0-.09,0-.17,0-.25-.03-.15-.07-.3-.09-.45-.01-.1-.02-.19-.03-.29.08-.04.15-.09.2-.16.34-.02.69-.19.93-.44.3-.32.58-.76.78-1.15.23-.45.55-.88.66-1.38.34-1.57.14-3.15-.27-4.68.13,1.04.12,2.08.02,2.68-.12.78-.44,1.89-1.16,2.3-.24.13-.53.24-.61.5-.06.22.06.48-.07.67-.13.2-.47.17-.63-.02-.31-.36-.32-.89-.3-1.32.01-.39,0-.83-.18-1.18-.63-1.17-.99-2.01-1.04-3.16-.02-.35,0-.74.04-1.17.1-.98,1.25-3.2,2.58-2.41.24.14.44.37.61.65-.17-.54-.41-1.08-.85-1.31-.78-.41-1.76.2-2.37.67-1.48,1.14-2.28,3.36-1.77,5.18.07.24.17.44.31.64.23.31.35.54.4.92.09.67.07,1.36,0,2.04-.07.62.06,1.23.6,1.6.35.24.83.42,1.3.51,0,.13,0,.25.02.37.02.15.04.31.07.46,0,.01,0,.02,0,.03-.06.01-.11.02-.17.03-.2.05-.39.21-.58.25-.16.03-.26.12-.32.22-.09.02-.18.03-.27.04-.56.04-1.13-.02-1.69-.02-.53,0-1.06.04-1.6.06-.11,0-.1.19,0,.2.56.06,1.12.13,1.68.15l.84.03c.18,0,.38,0,.58.01.13.02.26.04.39.08.11.03.22.05.33.08.03,0,.05.02.08.03v.02s.1,0,.16,0c.07.01.15.02.22.03.01.03.03.07.05.1-.05.02-.09.05-.14.09-.02,0-.03.02-.05.03-.23.12-.27.5.01.59.08.03.2.07.31.1.04,0,.08.02.12.03.03,0,.13.03.16.04.23.02.47,0,.7,0,.2,0,.4-.02.59-.03.1,0,.2-.02.29-.02.14-.01.25-.05.35-.12.02,0,.03-.02.05-.03.82.19,1.65.37,2.49.48.64.09,1.29.17,1.93.26.3.04.59.08.89.12.4.05.77.01,1.17-.06.88-.15,1.09-1.19.54-1.73Zm-9.37-3.54c-.55.04-.75-1.33-.86-1.73-.12-.42-.11-.87-.24-1.29-.11-.39-.4-.64-.54-1-.15-.37-.1-.8-.06-1.19.02-.18.04-.35.07-.53,0,.4.02.94.26,1.24.06.07.16.09.21.16.06.07.08.19.12.27.09.2.18.4.3.59.31.51,1,.94,1,1.57,0,.09-.37,1.91-.25,1.91Z" style="fill: #522101; stroke-width: 0px;"/>
              <path d="m362.87,88.72c-.12-.92-.35-1.83-.73-2.46.12.36.2.72.29,1,.16.48.31.97.44,1.46Z" style="fill: #522101; stroke-width: 0px;"/>
            </g>
            <path d="m364.33,98.97c-.07-.07-.15-.14-.22-.21-.16-.12-.34-.18-.54-.21-.23-.05-.5-.03-.74-.03-.33,0-.66.01-1,.04-.32.03-.61.05-.92.17-.29.11-.6.26-.77.52-.14.09-.24.2-.26.37-.02.16.06.36.2.45l.06.04s.02.04.03.06c.11.14.26.22.41.3.1.05.21.1.31.15.28.11.55.13.84.16,0,0,0,0,0,0,0,.1.08.19.18.2.17.02.33.04.5.04.19,0,.42.03.57-.12.02-.02.02-.05.03-.07.2,0,.41,0,.59-.04.29-.07.58-.2.75-.46.14-.21.21-.43.2-.69,0-.24-.08-.5-.24-.69Z" style="fill: #522101; stroke-width: 0px;"/>
            <path d="m370.53,97.75c-.1,0-.21,0-.31,0-.12,0-.26-.02-.38,0-.11.02-.21.04-.32.06-.15.03-.27.16-.26.32,0,.16.12.28.28.3.11.02.22.04.32.06.1.02.21,0,.31,0,.1,0,.21,0,.31,0,.1,0,.2,0,.29-.05.13-.06.22-.18.21-.32,0-.24-.24-.36-.45-.36Z" style="fill: #522101; stroke-width: 0px;"/>
          </g>
          <path d="m244.95,64.22c-.92.06-1.82.21-2.74.17-.86-.03-1.72-.13-2.56-.3-.92-.18-1.85-.35-2.78-.51-.41-.07-.81-.14-1.22-.22-3.82-.77-7.56-1.61-11.46-2.13-.43-.06-.83-.13-1.23-.21-.51-.15-1.01-.33-1.51-.53-1.01-.42-1.99-.89-2.91-1.48-.88-.56-1.69-1.26-2.47-1.95-1.59-1.41-2.98-3.02-4.89-4.03-5.15-2.72-10.37-3.81-14.98-7.62-.86-.71-1.7-1.52-2.63-2.14-.86-.58-1.87-1.32-2.92-.75-1.44.79-2.6,2.17-3.52,3.51-.91,1.34-1.74,2.72-2.62,4.08-.85,1.31-1.86,2.64-2.95,3.56-.38.32-.8.57-1.18.88-.32.26-.65.51-1.01.73-.82.5-1.75.97-2.68,1.21-1.95.5-4,.66-5.99.94-.27.04-.26.46.01.47,1.85.12,3.69.11,5.53-.12,1.83-.23,3.58-.48,5.32-1.14.85-.32,1.65-1.02,2.29-1.65.63-.62,1.2-1.27,1.65-2.03.89-1.49,1.6-3.08,2.41-4.63.76-1.46,1.75-3.03,3.13-4,.18.02.29.14.44.3.4.42.77.85,1.2,1.25.78.73,1.57,1.45,2.36,2.18.78.73,1.58,1.44,2.38,2.15.4.35.8.71,1.2,1.06.2.18.39.36.6.53.23.19.49.31.76.44.62,1.06,1.2,2.15,1.84,3.13.8,1.22,1.75,2.35,2.94,3.19.22.25.45.5.69.75.44.44.89.87,1.34,1.3.4.37.75.79,1.15,1.17.69.67,1.42,1.33,2.26,1.79-.61-.08-1.21-.17-1.82-.27-2.95-.49-6.38-.41-8.26-3.06-.07-.1-.24,0-.19.12,1.12,2.14,3.46,4.64,5.91,5.11,3.99.78,7.97-.86,11.98-.31.13.02.19-.19.06-.23-.2-.06-.4-.11-.61-.16.07.01.14.02.22.03,6.23,1.28,12.56-.36,18.76.43,1.46.18,2.89.39,4.37.41,1.52.03,3.23-.03,4.55-.88.26-.17.03-.52-.22-.51Zm-38.64-6.96c-.7-.41-1.31-.93-1.88-1.5-.15-.26-.28-.54-.38-.83-.07-.18-.12-.37-.17-.56.34.24.68.48,1,.74.28.21.56.4.85.58.45.6.88,1.21,1.33,1.82.06.09.12.17.17.26-.31-.16-.62-.33-.92-.51Zm.5-3.45c-.49-.15-1.01-.22-1.48-.42-.45-.19-.88-.39-1.29-.66-.47-.31-.92-.64-1.36-.99,0-.01-.01-.02-.02-.02.2.16.41.31.62.46.87.61,1.85,1.15,2.88,1.42,1.12.29,2.28.45,3.41.71,2.13.5,3.82,1.94,5.56,3.18.28.2.58.39.87.58-1.93-1.14-3.85-2.37-6.16-3.32-.97-.4-2.03-.63-3.04-.93Zm3.66,4.29c.42.26.81.57,1.19.88.06.09.13.17.19.25.44.59.98,1.1,1.52,1.6.18.17.36.32.55.47-.16-.03-.32-.05-.48-.07-.1-.01-.19-.02-.26-.02,0,0,0,0,0,0-.32-.21-.63-.44-.92-.69-.51-.44-1.06-1.04-1.59-1.58-.59-.59-1.21-1.15-1.84-1.69.57.26,1.14.52,1.66.85Z" style="fill: #522101; stroke-width: 0px;"/>
          <g>
            <g>
              <path d="m317.48,101.35c-.43-.12-.94-.04-1.38-.01-.26.02-.51.03-.77.02-.25,0-.49-.05-.74-.05-.36,0-.71,0-1.07,0-.05,0-.11,0-.16,0,0-.01-.02-.03-.03-.04.01-.03.03-.07.03-.1.01-.12.01-.27-.01-.39-.04-.18-.08-.36-.11-.54-.02-.11-.02-.23-.03-.34.1-.05.17-.11.24-.19.4-.03.82-.22,1.11-.52.36-.37.69-.9.92-1.36.27-.54.66-1.05.79-1.65.41-1.86.16-3.74-.32-5.57.16,1.24.14,2.47.03,3.19-.15.92-.52,2.24-1.38,2.73-.28.16-.63.29-.72.59-.08.26.06.57-.08.8-.16.24-.56.2-.75-.02-.37-.42-.37-1.05-.36-1.57.01-.47.01-.98-.21-1.4-.74-1.39-1.17-2.39-1.24-3.76-.02-.42,0-.88.05-1.39.12-1.17,1.49-3.8,3.07-2.87.28.17.52.44.73.78-.21-.65-.49-1.28-1.01-1.56-.93-.49-2.1.23-2.82.79-1.76,1.36-2.71,3.99-2.11,6.15.08.28.2.52.37.76.27.37.41.64.47,1.09.1.8.09,1.62,0,2.43-.08.74.07,1.46.72,1.9.42.29.99.5,1.54.61,0,.15.01.29.02.44.02.18.05.36.09.54,0,.01,0,.03,0,.04-.07.01-.13.03-.2.04-.24.06-.46.25-.7.29-.19.03-.31.14-.38.27-.11.02-.22.04-.33.04-.66.05-1.35-.02-2.01-.03-.63,0-1.26.04-1.9.07-.14,0-.12.22,0,.24.66.06,1.33.15,1.99.18l1,.04c.22,0,.46,0,.69.02.15.02.31.05.46.09.13.03.26.07.4.09.03.01.06.03.09.03,0,0,0,.01,0,.02.06,0,.12,0,.19,0,.09.01.17.02.26.04.02.04.03.08.06.12-.06.03-.12.06-.17.1-.02.01-.04.02-.06.03-.27.14-.32.59.02.7.09.03.23.09.37.12.05.01.1.02.15.03.04,0,.16.04.19.04.28.03.56.01.84,0,.24,0,.47-.02.7-.04.12-.01.23-.02.35-.03.16-.01.3-.06.42-.14.12-.05.24-.13.34-.21.14-.11.21-.3.18-.47-.03-.17-.13-.29-.27-.37.37-.06.73-.13,1.11-.18.45-.06.99-.12,1.38-.36.12-.07.08-.28-.05-.32Zm-6.72-12.23c.12-.23.26-.47.41-.7-.18.34-.33.69-.45.99-.11.28-.27.53-.4.78.11-.37.25-.73.43-1.08Zm1.31,8.79c-.65.05-.89-1.59-1.02-2.05-.14-.5-.14-1.03-.28-1.53-.13-.46-.47-.75-.65-1.19-.17-.44-.12-.96-.07-1.41.02-.21.05-.42.08-.63,0,.48.02,1.11.31,1.47.07.09.19.11.25.19.07.08.1.23.14.32.1.24.22.47.35.7.37.6,1.19,1.11,1.19,1.86,0,.1-.44,2.28-.3,2.27Z" style="fill: #522101; stroke-width: 0px;"/>
              <path d="m315.95,90.6c-.14-1.09-.41-2.18-.87-2.93.13.43.24.85.35,1.19.19.57.37,1.15.52,1.74Z" style="fill: #522101; stroke-width: 0px;"/>
            </g>
            <path d="m317.17,103.9c-.16-.07-.3-.13-.47-.16-.17-.02-.34-.05-.51-.06-.34-.03-.69-.03-1.02-.03-.33,0-.66.02-.99.04-.34.02-.71,0-.97.25-.11.11-.11.27.01.36.28.22.64.17.98.16.33,0,.66,0,.99,0,.34,0,.68-.01,1.02-.03.17,0,.34-.03.51-.04.17-.01.31-.07.47-.13.17-.06.13-.29,0-.36Z" style="fill: #522101; stroke-width: 0px;"/>
            <path d="m316.09,104.79c-.17-.16-.42-.13-.63-.13-.21,0-.43.03-.64.05-.12.01-.21.13-.2.25,0,.12.09.22.21.24.2.02.4.05.59.05.23,0,.5.03.68-.14.1-.1.09-.22,0-.31Z" style="fill: #522101; stroke-width: 0px;"/>
          </g>
          <path d="m321.3,118.96c-.46-.19-.86-.36-1.34-.47-.46-.09-.91-.18-1.37-.24-.23-.03-.46-.04-.69-.03-.37.01-.57.1-.9.25-.35.16-.76.12-1.14.11-.89-.01-1.79-.04-2.69-.03-.88,0-1.77.11-2.66.15-.24.01-.22.4.01.42.92.08,1.83.25,2.75.33.85.08,1.71.17,2.56.28.41.06.76.12,1.1.35.43.29.89.38,1.41.43.46.04.92.05,1.39.06.49,0,.93-.07,1.41-.14.78-.12.85-1.18.16-1.47Z" style="fill: #522101; stroke-width: 0px;"/>
          <path d="m260.6,164.84c-.75-.4-1.7-.42-2.53-.54-.93-.13-1.86-.08-2.8-.05-.06,0-.11,0-.17.01.02-.06.03-.13.03-.2,0-.63,0-1.27-.05-1.9,0-.05-.01-.09-.01-.14.04-.05.07-.09.09-.14.06-.16.09-.33.11-.51.2.03.42-.02.59-.16.66-.52.88-1.31,1.11-2.09.23-.75.5-1.48.7-2.24.21-.78.43-1.59.5-2.4.07-.84.04-1.7-.06-2.55-.22-1.78-.63-3.55-.96-5.31-.16-.85-.31-1.7-.46-2.55-.13-.72-.31-1.46-.66-2.1-.1-.18-.21-.35-.34-.51,0,0,0-.01,0-.02,0,0,0,0,0,0-.63-.78-1.59-1.33-2.61-1.13-.62.12-1.07.59-1.4,1.1-.42.66-.86,1.31-1.26,1.98-.78,1.34-1.45,2.62-1.81,4.14-.2.83-.29,1.68-.25,2.53.03.88.19,1.73.28,2.6.18,1.77.52,3.78,1.48,5.31.48.77,1.11,1.34,1.93,1.73.16.07.32.13.48.17.13.13.3.22.51.24.09,0,.18,0,.28-.03.05.02.1.02.15.02-.01.02-.03.03-.03.04-.1.17-.17.31-.19.51,0,.07,0,.15-.01.23,0,.13-.01.26-.02.39-.01.25-.02.5-.03.75,0,.05-.01.09-.01.13-.05.55-.04,1.11-.04,1.67,0,.19.02.37.1.54,0,.01,0,.02.01.03.02.03.04.06.06.1-.24.05-.48.11-.73.17-.9.22-1.8.4-2.71.58-.03,0-.05.01-.07.03-1.03.05-2.06.16-3.08.32-.44.07-.33.7.1.67,1.39-.11,2.77-.05,4.17.09.67.07,1.34.14,2.01.24.33.05.67.09,1,.14.37.06.65.03,1.02-.02.29-.04.4-.46.15-.62-.06-.04-.13-.08-.19-.12.09,0,.17,0,.26,0,.9-.02,1.8.01,2.7-.08.83-.08,1.84-.04,2.61-.38.26-.11.36-.55.07-.71Zm-4.27-13.49c.01.22.03.44.03.66.02.74-.11,1.47-.31,2.17.1-.94.18-1.89.28-2.83Zm-2.98,3.71c-.2.87-.6,1.69-.87,2.55-.26-.26-.5-.55-.68-.85-.72-1.17-1.02-2.5-1.49-3.77-.53-1.42-.83-2.9-.91-4.42-.08-1.47.32-2.88.92-4.21.28-.63.65-1.21,1.03-1.78.38-.57.81-1.27,1.5-1.5.99-.33,1.79.3,2.28,1.1-.22.62-.47,1.22-.56,1.88-.12.88-.05,1.77.19,2.63.01.05.1.04.09-.01-.22-.8-.29-1.62-.19-2.44.07-.61.22-1.34.55-1.92.08.14.15.29.2.44.11,1.16.24,2.3.16,3.49-.11,1.57-.43,3.12-.66,4.68-.04.24-.07.49-.11.73-.1-.25-.2-.51-.32-.74-.09-.17-.36-.15-.38.06-.04.36-.03.71-.1,1.07-.06.35-.13.69-.22,1.03-.17.66-.28,1.33-.43,1.99Z" style="fill: #522101; stroke-width: 0px;"/>
          <path d="m284.52,122.43c-.37-.13-.84-.06-1.22-.02-.44.03-.88.07-1.33.12-.86.09-1.73.12-2.6.1-.46-.01-.54.67-.08.71.9.08,1.81.11,2.71.07.45-.01.88-.05,1.32-.13.41-.07.93-.14,1.26-.42.15-.12.12-.37-.07-.43Z" style="fill: #522101; stroke-width: 0px;"/>
          <path d="m299.16,115.95c-.2-.14-.41-.2-.65-.24-.08-.01-.16-.02-.24-.04-.03,0-.35-.05-.19-.02-.26-.05-.51-.07-.78-.05-.13,0-.27.03-.4.05-.46-.48-1.08-.59-1.71-.72-.54-.1-1.1-.13-1.65-.14.07-.06.14-.14.18-.22.13-.24.15-.45.12-.72-.01-.16-.02-.33-.05-.49-.03-.25-.07-.51-.1-.77.35-.28.66-.62.92-.98.14-.12.29-.24.44-.36.24-.19.47-.36.69-.6.31-.32.47-.69.63-1.1.54-1.37.64-2.88.56-4.35-.04-.65-.19-1.39-.44-2-.15-.37-.41-.69-.73-.92-.25-.18-.57-.28-.76-.54-.35-.48-.35-1.22-.48-1.78-.15-.66-.41-1.31-.86-1.83-.85-.99-2.26-1.33-3.38-.58-.56.38-.82.9-.88,1.56-.03.39-.19.52-.49.77-.31.25-.61.51-.91.77-1.08.96-2.05,2.15-2.05,3.67,0,.62.17,1.22.55,1.71.39.5,1.24.92,1.21,1.63-.03.7-.45,1.26-.54,1.93-.09.69-.04,1.48.41,2.05.61.77,1.59.93,2.51.81.42-.05.58-.1.95-.05,0,0,.07.03.15.07,0,.02.01.03.02.05.14.45.57.62.99.56.01.16.03.32.06.48.03.19.08.38.13.56.04.16.08.3.18.43.06.07.15.15.23.21-.49.02-.99.08-1.46.2-.64.15-1.25.39-1.89.56-.18.05-.23.21-.18.34-.07,0-.15,0-.23,0-.29,0-.58-.03-.86-.02-.62,0-1.24.08-1.86.13-.51.04-.49.86.02.9.59.04,1.19.11,1.79.12.31,0,.63-.02.94-.03.07,0,.14,0,.22,0-.25.17-.18.66.18.69.53.04,1.04.14,1.57.22.5.08,1.01.1,1.52.12.53,0,1.06.02,1.59,0,.45-.01,1.01,0,1.43-.23.15-.04.28-.09.42-.18.06-.04.09-.1.12-.16.27,0,.54.02.81,0,.4-.02.83-.01,1.21-.15.36-.13.78-.22,1.07-.49.24-.22.28-.63-.03-.84Zm-6.51-6.15c-.24-.26-.14-.75,0-1.06.28-.67.59-1.36.7-2.07.11-.71.34-1.39.42-2.11.07-.62.18-1.47-.22-2.01-.06-.08-.19-.05-.22.04-.15.36-.11.78-.11,1.16,0,.41-.03.81-.09,1.22-.07.45-.15.89-.37,1.29-.21.37-.47.75-.73,1.09-.26.35-.5.64-.65,1.06-.13.37-.21.78-.13,1.17.06.28.17.53.32.75-.42-.12-.89-.15-1.34-.11-.29.03-.64.13-.94.1-.06,0-.13-.01-.18-.03.07.02-.13-.09-.09-.06-.05-.03-.04-.06-.07-.18-.06-.28,0-.56-.05-.84-.05-.27-.13-.47-.15-.74-.02-.25-.08-.49-.16-.74-.18-.56-.41-1.02-.84-1.43-.43-.41-.81-.79-.92-1.39-.13-.67.06-1.38.4-1.95.35-.6.85-1.1,1.36-1.55.49-.43,1.13-.82,1.46-1.41.25-.46.23-1.03.64-1.41.42-.39,1.06-.43,1.54-.16,1.15.64.92,1.96,1.07,3.06.08.59.29,1.17.71,1.6.2.2.61.38.75.61.11.19.03.43,0,.63-.04.23-.07.46-.1.7-.48-.07-1.02.36-.77.95.42.97.44,2.03.04,2.98-.05.11-.1.22-.15.33-.01.03-.03.07-.04.08-.04.06-.07.12-.11.18-.09.15-.19.29-.3.43-.08-.16-.28-.27-.45-.26-.09,0-.18.04-.25.08Zm.11,6.78c-.55,0-1.09.02-1.63.1-.4.06-.78.13-1.17.18.04-.02.08-.05.11-.08.24-.18.2-.54-.02-.71-.03-.02-.06-.03-.08-.05.18,0,.36,0,.55.03.31.05.61.08.92.11.57.06,1.16.1,1.73.12.34.01.69.04,1.03.07-.06.06-.1.14-.13.22-.44,0-.87,0-1.31,0Z" style="fill: #522101; stroke-width: 0px;"/>
          <path d="m315.04,116.97c-.04-.07-.08-.13-.12-.2-.07-.1-.19-.18-.29-.25-.04-.03-.09-.06-.13-.09-.1-.07-.23-.13-.35-.18-.2-.11-.4-.21-.6-.32-.11-.05-.23-.06-.35-.05-.11,0-.22.02-.33.06-.12-.16-.25-.31-.4-.44-.09-.08-.17-.14-.27-.2-.06-.04-.13-.07-.19-.11-.09-.39-.24-.76-.45-1.11-.64-1.05-1.97-1.61-3.17-1.3-.44.11-.91.37-1.22.74h0c-.07-.39-.18-.75-.41-1.08-.56-.77-1.35-1.04-2.18-1.05.01-.21.03-.42.04-.63.05-1.27-.03-2.54-.21-3.8-.16-1.18-.35-2.43-.78-3.55-.19-.49-.47-.96-.85-1.3,0-.01-.01-.03-.02-.04-.03-.08-.12-.13-.2-.13-.33-.24-.72-.38-1.17-.38-1.08,0-1.84.87-2.32,1.75-.52.95-.78,2.03-1.05,3.07-.29,1.16-.51,2.34-.5,3.54.02,1.4.41,2.74,1.18,3.91.04.06.09.11.13.17-.16,0-.32.02-.47.05-.79.17-1.19.78-1.25,1.56-.03.47-.1.77-.36,1.18-.2.31-.39.62-.46,1-.03.22-.03.44.02.64-.15-.05-.31-.1-.47-.14.1.08.05.06-.16-.07-.07-.02-.15-.03-.22-.05-.1-.02-.21-.02-.31-.03-.37-.05-.74-.09-1.11-.13-.44-.05-.95-.09-1.37.06-.54.19-.6,1-.14,1.31.37.24.89.32,1.33.37.37.05.74.09,1.11.13.09.01.18.02.26.03.09.01.18.01.27,0,.22-.09.28-.1.17-.03.17-.01.35-.02.52-.03.34,0,.71.03,1.07.04.34.02.65-.2.68-.55,0-.1,0-.18-.03-.26.14.01.29.02.43.03.4.03.81,0,1.21-.03.1.32.36.6.76.67.04.04.1.06.17.04.02,0,.04-.01.06-.02.38.03.8-.02,1.17-.04.12,0,.25-.02.37-.02-.03.03-.06.06-.07.11-.03.07-.04.15-.02.22v.07s.02.04.02.04c0,0,0,.01,0,.02,0,.01,0,.03.01.04-1.6.21-3.17.54-4.77.78-.06.01-.11.04-.14.08-.43.05-.87.07-1.3.11-.54.04-.51.9.02.95.49.04,1,.05,1.49.13.46.07.92.16,1.38.18.5.03,1.01.06,1.51.03.4-.03,1.03-.15,1.22-.55.6.05,1.21.08,1.82.09.95.01,1.9-.02,2.86-.04-.44.07-.87.14-1.31.2-.97.12-1.95.25-2.92.21-.5-.02-.59.73-.08.79,1.01.11,2.01.26,3.04.27.53,0,1.07.01,1.59-.04.25-.02.51-.04.76-.09.35-.06.53-.25.75-.5.17-.2.11-.6-.12-.74-.1-.05-.18-.1-.27-.14.62-.03,1.24-.12,1.78-.37.62-.29.61-1.2-.04-1.45-.93-.36-2.04-.24-3.02-.2h-.08c-.01-.12-.07-.26-.18-.32-.13-.07-.24-.13-.39-.14-.11,0-.21,0-.32,0-.17,0-.35.01-.52.02-.34.01-.68.02-1.03.04-.1,0-.24.1-.29.18-.06.08-.08.17-.08.27,0,.03.01.07.02.11-.06,0-.12,0-.18.01,0-.02-.01-.05-.02-.07-.04-.1-.1-.17-.19-.23-.05-.04-.09-.08-.14-.12,0,0,0,0,0,0,0,0-.01,0-.02-.01.03,0,.07,0,.1-.01.46-.06.9-.13,1.35-.25-.14.04.11-.02.13-.02.09-.02.19-.03.28-.04.16-.02.31-.06.45-.13.21.04.41.07.62.1.5.07,1.07.12,1.52-.12.68.16,1.34.37,1.95.65.25.12.57-.09.61-.35.04,0,.08.01.13.01.21,0,.44.04.65.03.03,0,.06,0,.1,0-.14-.04-.08-.03.2.04.15,0,.31,0,.46-.02.4-.02.81,0,1.2-.05.1-.01.2-.04.29-.06.11-.03.22-.06.33-.1-.02,0-.03,0-.05,0,.17-.06.35-.08.51-.18.05-.03.09-.06.12-.09.08-.04.14-.09.21-.14.1-.06.2-.14.3-.21.15-.11.2-.36.11-.53.05-.01.09-.02.14-.05.07-.03.14-.07.2-.13.12-.09.2-.21.26-.35.04-.1.04-.14.05-.22.02-.15,0-.29-.07-.43Zm-15.05.54c-.56.07-1.16.11-1.69.26-.35.1-.71.19-1.07.27.13-.29.39-.59.5-.76.36-.55.43-1.01.49-1.64.06-.62.59-.58,1.09-.52.3.04.61.09.91.14.22.18.43.38.66.56.18.14.36.24.52.38,0,.1-.01.21-.02.31-.01.29,0,.58.02.87,0,0,0,.02,0,.03-.47.02-.95.05-1.42.11Zm2.52-8.33c-.02.15-.05.3-.07.46-.03,0-.06,0-.07.03-.19.67-.37,1.35-.59,2.01-.1.31-.23.6-.32.91-.17.31-.37.61-.57.9-.53-.72-.99-1.44-1.24-2.31-.55-1.92-.37-4.06.1-5.98.19-.77.47-1.75,1.15-2.23.67-.47,1.19.06,1.49.65.06.67.14,1.34.19,2.01.08,1.18.09,2.37-.07,3.55Zm.4,8.24s0-.04,0-.05c.01-.13.02-.25.02-.38.08-.11.16-.23.23-.35.02.27.08.54.15.81-.14,0-.27-.02-.41-.02Zm2-4.47c.27.09.43.21.52.37-.09,0-.18,0-.28.02-.08-.14-.17-.27-.27-.4,0,0,.02,0,.03,0Zm-.04,4.55c-.19-.57-.44-1.3.02-1.73.14-.14.21-.21.3-.09.1.13.1.4.12.56.08.55.15,1.06.42,1.52-.29-.08-.58-.17-.86-.26Zm5.74-2.31c-.17.1-.29.2-.39.37-.02.04-.04.08-.06.12,0,.01-.02.02-.02.03-.03.04-.08.14-.1.2,0,.01,0,.02,0,.02-.01.02-.02.05-.04.07,0,0,0,0,0,.01-.06.02-.13.06-.18.1-.08.04-.17.09-.25.13-.24.14-.43.39-.37.68.05.27.27.52.56.53.07,0,.15,0,.22.02,0,0,.02,0,.04,0,.05.01.09.02.14.03.09.02.18.04.28.06.01,0,.02.01.04.02-.15.02-.3.04-.45.07-.03,0-.07.01-.1.02-.02,0-.04-.01-.07-.01-.05,0-.1,0-.14,0-.09.01-.17.05-.24.1-.01,0-.02,0-.04,0-.04.01-.08.03-.12.04-.1-.16-.2-.3-.33-.43-.05-.05-.11-.1-.16-.14.06-.8-.25-1.71-.65-2.31.06-.1.11-.21.18-.31.41-.6,1.46-.2,1.95.19.13.1.23.23.31.37,0,0-.01,0-.01,0Z" style="fill: #522101; stroke-width: 0px;"/>
          <g>
            <path d="m184.01,117.13c0,.25.01.5.03.75,0-.25,0-.5-.03-.75Z" style="fill: #522101; stroke-width: 0px;"/>
            <path d="m193.34,150.37c-.21-.13-.42-.3-.64-.39-.27-.11-.59-.13-.88-.17-.56-.06-1.11-.06-1.67.02-1.07.15-2.11.42-3.16.64-.17.03-.33.06-.5.1.01-.13.03-.25.04-.38.03-.06.07-.11.09-.17.15-.32.21-.68.19-1.03.03,0,.05.01.08.02-.09-.8-.17-1.6-.26-2.4.26,2.41,5.5,1.45,6.86,2.07-1.83-.83-3.38-2.28-4.33-4.05.92.61,2.12.76,3.17.42-1.76-.88-3.23-2.32-4.14-4.05,1.38.92,3.09,1.35,4.74,1.18-1.73-.54-3.09-2.09-3.41-3.86,1.35.58,2.87.76,4.32.51-2.41-1.2-4.49-3.05-5.95-5.31,1.15.53,2.44.77,3.71.68-2.66-.84-4.83-3.09-5.59-5.78,1.06.58,2.38.63,3.49.15-1.75-1.1-3.15-2.76-3.94-4.67.11,0,.23.02.34.03.63.05,1.25.1,1.88.15-2.12-1.34-3.54-3.72-3.75-6.22.01,2.82-1.27,5.63-3.44,7.44.83-.15,1.63-.49,2.31-.99-.92,1.84-2.29,3.63-4.3,4.29,1.29.25,2.68-.05,3.75-.82-.5,1.33-1.42,2.5-2.61,3.28,1.04.18,2.15-.18,2.89-.94-.65,2.13-1.66,3.47-3.69,4.38.97-.43,1.94-.86,2.91-1.3-.65,2.07-2.48,3.72-4.6,4.16,1.72.49,3.6.4,5.27-.24-.83,2.77-3.24,5-6.06,5.61,1.68.18,3.28-.11,4.89-.58-1.46,2.7-2.77,4.68-5.79,5.96,2.11,0,4.22-.73,5.88-2.03-.48,1.09-1.27,2.04-2.26,2.7,1.8.16,3.63-1,4.27-2.69-.01,1.16.07,2.33.26,3.48.06-.06.12-.12.17-.18-.03.47-.07.99-.04,1.48-1.02.04-2.05-.04-3.09-.27-.8-.18-1.11,1.16-.33,1.39.28.09.56.16.84.23-.68.11-1.36.23-2.03.36-.63.12-.48,1.07.15.98,2.26-.33,4.53-.52,6.82-.64,1.11-.05,2.22-.09,3.34-.1.58,0,1.17.01,1.75-.02.53-.03,1.18.01,1.64-.26.29-.17.42-.59.09-.81-.03-.02-.06-.03-.09-.05.04,0,.07-.02.11-.03.57-.13.9-.96.31-1.31Z" style="fill: #522101; stroke-width: 0px;"/>
          </g>
          <path d="m202.14,154.49c.52.04,1.04.07,1.56-.01.22-.03.47-.09.6-.27.13-.17.12-.4.11-.61-.05-.97-.13-1.94-.23-2.9-.03-.3-.08-.62-.3-.82-.3-.28-.78-.19-1.17-.09-2.07.53-4.15,1.05-6.22,1.57.07-.48.53-.87,1.01-.88-.17-.11-.27-.32-.25-.52-.71-.03-1.27.55-1.85.97-1.9,1.39-4.47,1.27-6.81,1.09.05.83.1,1.67.16,2.5,2.62.16,5.2-.24,7.85-.18.92.02,1.83.05,2.75.07.46.01.92,0,1.38,0,.48,0,.95.04,1.42.08Z" style="fill: #522101; stroke-width: 0px;"/>
          <g>
            <path d="m230.61,134.68c0,.25,0,.5.03.74,0-.25,0-.5-.03-.74Z" style="fill: #522101; stroke-width: 0px;"/>
            <path d="m239.93,167.92c-.21-.13-.41-.3-.64-.39-.27-.11-.59-.14-.88-.17-.56-.06-1.11-.06-1.67.02-1.07.15-2.11.42-3.16.65-.17.03-.33.06-.5.09.02-.13.03-.25.05-.38.03-.06.07-.11.1-.18.15-.32.21-.68.19-1.02.03,0,.05.01.08.02-.09-.8-.17-1.6-.26-2.4.26,2.41,5.49,1.45,6.86,2.07-1.83-.83-3.37-2.28-4.33-4.05.92.61,2.13.77,3.17.42-1.76-.88-3.23-2.32-4.14-4.05,1.38.92,3.08,1.35,4.74,1.18-1.72-.54-3.09-2.09-3.41-3.86,1.35.58,2.87.76,4.32.51-2.41-1.2-4.48-3.05-5.95-5.3,1.15.53,2.44.77,3.71.68-2.66-.84-4.84-3.09-5.59-5.78,1.06.58,2.38.63,3.49.15-1.75-1.1-3.15-2.76-3.94-4.67.11.01.23.02.35.03.63.05,1.25.1,1.88.15-2.13-1.34-3.54-3.72-3.75-6.22.01,2.82-1.27,5.64-3.44,7.45.83-.15,1.63-.49,2.31-.99-.91,1.84-2.29,3.63-4.3,4.29,1.29.25,2.69-.05,3.75-.82-.49,1.33-1.42,2.5-2.61,3.27,1.04.18,2.16-.18,2.89-.94-.65,2.13-1.66,3.47-3.69,4.38.97-.44,1.94-.87,2.92-1.3-.65,2.07-2.48,3.72-4.6,4.16,1.72.49,3.6.4,5.27-.24-.83,2.77-3.24,5-6.06,5.62,1.68.18,3.28-.12,4.88-.59-1.46,2.7-2.77,4.68-5.79,5.96,2.11,0,4.22-.73,5.88-2.03-.48,1.09-1.27,2.03-2.26,2.7,1.8.15,3.63-1,4.27-2.69-.01,1.17.07,2.33.26,3.48.06-.06.12-.12.17-.18-.03.47-.07.99-.04,1.48-1.03.04-2.05-.04-3.1-.27-.8-.18-1.11,1.15-.33,1.39.28.08.56.16.84.23-.68.11-1.36.23-2.03.36-.63.12-.48,1.07.15.98,2.26-.33,4.53-.52,6.82-.64,1.11-.05,2.22-.09,3.34-.1.58,0,1.17.01,1.75-.02.53-.03,1.18.01,1.64-.26.29-.17.41-.6.09-.81-.03-.02-.06-.03-.09-.05.04,0,.07-.02.11-.03.56-.13.9-.96.31-1.31Z" style="fill: #522101; stroke-width: 0px;"/>
          </g>
          <path d="m239.67,171.43c-.4-.3-.95-.37-1.44-.45-.45-.08-.9-.14-1.36-.17-.96-.08-1.91-.08-2.87-.06-1.94.05-3.85.25-5.76.57-.88.15-.66,1.41.21,1.35,1.85-.11,3.72-.13,5.58-.09.91.02,1.83.05,2.74.07.46.01.92,0,1.38,0,.46,0,.98.02,1.4-.18.42-.2.48-.76.11-1.04Z" style="fill: #522101; stroke-width: 0px;"/>
          <path d="m226.15,169.75c-.22-.04-.44-.08-.66-.11-.09-.01-.22-.02-.28-.03-.13-.02-.24-.09-.37-.1-.25-.03-.53.02-.78.04-.22.02-.44.05-.66.08-.91.14-1.8.38-2.67.69-.69.24-.36,1.42.36,1.24.84-.21,1.69-.34,2.55-.39.07,0,.14,0,.21-.01-.18.06-.36.12-.55.17-.18.06-.26.29-.21.46.05.18.23.3.42.27.29-.04.59-.08.88-.12.34-.05.75-.05,1.01-.29.12-.11.18-.24.16-.41-.01-.08-.05-.16-.11-.22.03,0,.06,0,.09,0,.22-.02.44-.03.66-.04.31-.01.54-.35.52-.63-.01-.32-.24-.54-.55-.6Z" style="fill: #522101; stroke-width: 0px;"/>
          <g>
            <path d="m221.61,142.19c0,.21,0,.42.02.63,0-.21,0-.42-.02-.63Z" style="fill: #522101; stroke-width: 0px;"/>
            <path d="m229.49,170.31c-.17-.1-.35-.25-.54-.33-.23-.09-.5-.12-.75-.14-.47-.05-.94-.05-1.42.01-.9.13-1.78.36-2.67.55-.14.03-.28.05-.42.08.01-.1.03-.21.03-.32.03-.05.06-.1.08-.15.12-.27.18-.57.16-.87.02,0,.05.01.07.02-.07-.68-.15-1.35-.22-2.03.22,2.04,4.65,1.23,5.81,1.75-1.55-.7-2.86-1.93-3.66-3.42.78.51,1.79.65,2.68.35-1.49-.74-2.73-1.96-3.5-3.43,1.17.78,2.61,1.14,4.01,1-1.46-.45-2.62-1.76-2.89-3.27,1.14.49,2.43.65,3.66.43-2.04-1.01-3.79-2.58-5.04-4.49.97.45,2.06.65,3.13.58-2.25-.71-4.09-2.61-4.73-4.89.89.49,2.02.54,2.95.13-1.48-.93-2.66-2.33-3.33-3.95.1,0,.2.02.29.02.53.04,1.06.08,1.59.13-1.8-1.13-2.99-3.15-3.17-5.26,0,2.39-1.08,4.77-2.91,6.3.7-.13,1.38-.41,1.95-.84-.77,1.56-1.94,3.07-3.64,3.62,1.09.21,2.27-.04,3.18-.69-.42,1.13-1.2,2.11-2.21,2.77.88.15,1.83-.15,2.45-.79-.55,1.8-1.41,2.94-3.13,3.7.82-.37,1.64-.73,2.47-1.1-.55,1.75-2.1,3.15-3.9,3.52,1.46.41,3.04.34,4.46-.2-.7,2.34-2.74,4.23-5.12,4.75,1.42.15,2.77-.1,4.13-.5-1.24,2.28-2.34,3.96-4.89,5.04,1.79,0,3.57-.62,4.97-1.72-.41.92-1.08,1.72-1.91,2.28,1.52.13,3.07-.85,3.61-2.28-.01.99.06,1.97.22,2.95.05-.05.1-.1.15-.15-.02.4-.06.84-.04,1.26-.87.03-1.74-.03-2.62-.23-.67-.15-.94.98-.28,1.18.23.07.47.14.71.2-.57.1-1.15.2-1.72.31-.53.1-.41.91.13.83,1.91-.28,3.84-.44,5.77-.54.94-.05,1.88-.07,2.82-.09.49,0,.99.01,1.48-.01.44-.02,1,.01,1.39-.22.25-.14.35-.51.07-.69-.02-.02-.05-.03-.08-.04.03,0,.06-.02.09-.02.48-.1.76-.81.27-1.11Z" style="fill: #522101; stroke-width: 0px;"/>
          </g>
          <g>
            <path d="m41.71,115.94c0,.25,0,.5.03.74,0-.25-.01-.5-.03-.74Z" style="fill: #522101; stroke-width: 0px;"/>
            <path d="m51.04,149.19c-.21-.12-.41-.3-.64-.39-.27-.11-.59-.14-.88-.17-.56-.06-1.11-.06-1.67.02-1.07.15-2.11.42-3.16.64-.17.04-.33.06-.5.1.02-.13.03-.25.05-.38.03-.05.07-.11.1-.17.15-.32.21-.68.19-1.03.03,0,.05.02.08.02-.09-.8-.17-1.6-.26-2.4.26,2.41,5.5,1.45,6.87,2.07-1.83-.83-3.38-2.28-4.33-4.05.92.61,2.12.77,3.17.42-1.76-.88-3.23-2.32-4.14-4.05,1.38.92,3.08,1.35,4.74,1.18-1.72-.54-3.09-2.09-3.41-3.87,1.35.59,2.87.76,4.32.51-2.41-1.2-4.48-3.05-5.95-5.31,1.15.53,2.44.77,3.71.68-2.66-.84-4.83-3.09-5.59-5.77,1.06.58,2.38.63,3.49.15-1.75-1.1-3.15-2.76-3.94-4.67.12,0,.23.02.35.03.63.05,1.25.1,1.88.15-2.13-1.34-3.54-3.73-3.75-6.22,0,2.82-1.27,5.64-3.45,7.45.83-.15,1.63-.49,2.31-.99-.91,1.84-2.29,3.63-4.3,4.29,1.29.25,2.68-.05,3.75-.82-.49,1.33-1.42,2.5-2.61,3.27,1.04.18,2.16-.18,2.89-.94-.65,2.13-1.66,3.47-3.69,4.38.97-.43,1.94-.87,2.91-1.3-.65,2.07-2.48,3.72-4.6,4.16,1.72.49,3.6.4,5.27-.24-.83,2.77-3.24,5-6.06,5.62,1.68.18,3.28-.12,4.89-.59-1.46,2.7-2.77,4.68-5.79,5.96,2.11,0,4.22-.73,5.88-2.03-.48,1.09-1.27,2.03-2.26,2.7,1.8.15,3.63-1,4.27-2.69-.01,1.17.07,2.33.26,3.48.06-.06.12-.12.17-.18-.03.47-.07.99-.04,1.48-1.03.03-2.06-.04-3.1-.27-.8-.18-1.11,1.16-.33,1.39.28.08.56.16.84.23-.68.11-1.36.23-2.03.36-.63.12-.48,1.07.15.98,2.26-.33,4.53-.53,6.82-.64,1.11-.05,2.22-.09,3.34-.1.58,0,1.17.01,1.75-.02.52-.03,1.18.01,1.64-.26.29-.17.41-.6.09-.81-.03-.02-.06-.03-.09-.05.03,0,.07-.02.11-.03.56-.13.9-.96.31-1.31Z" style="fill: #522101; stroke-width: 0px;"/>
          </g>
          <path d="m217.72,183.1c-.4-.3-.95-.37-1.43-.46-.45-.08-.9-.14-1.36-.17-.96-.08-1.91-.08-2.86-.06-1.94.05-3.85.25-5.76.57-.88.15-.66,1.41.21,1.35,1.85-.11,3.72-.13,5.58-.09.92.02,1.83.05,2.75.07.46.01.92,0,1.38,0,.46,0,.98.02,1.4-.18.42-.2.49-.77.11-1.04Z" style="fill: #522101; stroke-width: 0px;"/>
          <g>
            <path d="m205.56,155.67c0,.19,0,.38.02.56,0-.19,0-.38-.02-.56Z" style="fill: #522101; stroke-width: 0px;"/>
            <path d="m199.15,179.2c1.6,0,3.2-.55,4.46-1.54-.37.83-.97,1.54-1.72,2.05,1.37.11,2.75-.76,3.24-2.04,0,.88.06,1.77.2,2.64.05-.04.09-.09.13-.14-.02.36-.05.75-.03,1.12-.78.03-1.56-.03-2.35-.2-.6-.13-.84.88-.25,1.06.07.02.14.04.22.06,3.12-.07,6.24-.17,9.35-.31.43-.1.68-.73.24-1-.16-.09-.32-.23-.48-.29-.21-.08-.45-.1-.67-.13-.43-.05-.84-.05-1.27.01-.81.11-1.6.32-2.4.49-.13.03-.25.05-.38.07.01-.1.03-.19.03-.29.02-.04.05-.09.07-.13.11-.24.16-.51.14-.78.02,0,.04.01.06.01-.06-.61-.13-1.21-.2-1.82.2,1.83,4.17,1.1,5.21,1.57-1.39-.63-2.56-1.73-3.28-3.07.7.46,1.61.58,2.41.32-1.33-.66-2.45-1.76-3.14-3.07,1.05.7,2.34,1.02,3.59.9-1.31-.41-2.35-1.58-2.59-2.93,1.03.44,2.18.58,3.28.39-1.83-.91-3.4-2.32-4.52-4.03.87.4,1.85.58,2.81.52-2.02-.64-3.67-2.34-4.24-4.38.8.44,1.81.48,2.64.11-1.33-.84-2.39-2.09-2.99-3.54.09,0,.17.01.26.02.48.04.95.07,1.43.11-1.61-1.02-2.69-2.83-2.84-4.72,0,2.14-.97,4.28-2.61,5.65.63-.11,1.23-.37,1.75-.75-.7,1.4-1.74,2.76-3.27,3.25.98.19,2.04-.04,2.85-.62-.37,1.01-1.08,1.89-1.98,2.48.79.14,1.64-.14,2.2-.71-.49,1.62-1.26,2.64-2.8,3.32.74-.33,1.47-.66,2.21-.99-.49,1.57-1.88,2.83-3.49,3.16,1.3.37,2.73.31,4-.18-.63,2.1-2.46,3.8-4.6,4.26,1.27.14,2.49-.09,3.71-.44-1.11,2.05-2.1,3.56-4.39,4.53Z" style="fill: #522101; stroke-width: 0px;"/>
            <path d="m190.67,180.24s.09,0,.14.01l-.53,2.17c3.56-.05,7.13-.1,10.69-.17-.39-.17-.78-.32-1.19-.44-.65-.2-1.31-.34-1.97-.46-.98-1.92-1.8-3.9-2.2-6.01-.13-.69-.72-1.22-1.44-1.19-.04,0-.08.01-.12.02-.03-.2-.06-.4-.1-.6.01,0,.02-.01.03-.02.31-.12.26-.55-.02-.67-.22-.1-.46-.12-.69-.04-.06.01-.11.04-.16.07-.02,0-.03,0-.06.02-.1.06-.2.12-.28.2-.58.5-.65,1.15-.65,1.86,0,.14-.01.28-.03.41-.09.11-.16.24-.2.38l-.18.74c-.39.73-1,1.36-1.58,1.94-.29.29-.45.65-.32,1.06.11.36.45.72.85.72Z" style="fill: #522101; stroke-width: 0px;"/>
          </g>
          <path d="m30.65,142.29c-.25-6.56.33-13.18-.09-19.66.3-.92.6-1.84.89-2.75.12-.38.25-.78.17-1.17-.08-.39-.45-.75-.84-.67.45-.58,1.08-1.01,1.78-1.22-.59.24-1.06-.73-.68-1.25.38-.52,1.1-.61,1.74-.65-.8.33-1.43-.98-.92-1.68.51-.7,1.48-.82,2.33-.89-.87-.31-1.75-.63-2.62-.94.83-.82,1.96-1.33,3.13-1.42-1-.23-2.01-.46-3.01-.68-.28-.07-.58-.14-.77-.35-.32-.36-.18-.97.17-1.3.35-.33.84-.46,1.31-.58-.72-.25-1.37-.71-1.85-1.3.47-.25.95-.5,1.43-.75-.79-.14-1.49-.7-1.8-1.43.74-.19,1.47-.39,2.21-.58-1.73.26-3.15-1.5-3.5-3.21-.36-1.71-.08-3.52-.51-5.22-.35,1.81-.7,3.62-1.05,5.42-.16.82-.4,1.65-1.17,2.07-.23.13-1.99.35-2.08.16.21.43.55.79.96,1.04-.43-.02-.86.06-1.25.23.68.27,1.36.55,2.05.83-1.55-.05-3.11.16-4.59.61,1.08.63,2.23,1.16,3.42,1.57-2.17.03-4.33.32-6.42.86,2.73,1.84,6.29,1.68,9.57,1.44-1.4,1.56-4.54.15-5.8,1.83.9.25,1.83.41,2.76.49-1.64.38-3.27.75-4.91,1.13,1.39.49,2.85.78,4.33.87-.24.28-.47.56-.71.85.26.36.71.56,1.15.5-.23.29-.47.59-.7.88.95.21,1.91.43,2.86.65-.72.38-1.36.92-1.83,1.58l1.57.69c-.8.16-1.5.73-1.84,1.46.79.06,1.81.36,1.8,1.15,0,.21-.09.43-.05.64.14.6,1.18.55,1.38,1.14.09.24-.01.51-.08.76-.43,1.64.62,3.09.63,4.69.02,1.73-.43,3.68-.55,5.43-.29,4.2-.58,8.41-.86,12.61.03-.32.07-.64.1-.96.51.76,1.8.5,2.32-.25.52-.75.5-1.74.47-2.66Z" style="fill: #522101; stroke-width: 0px;"/>
          <path d="m27.8,144.06c-.17-4.62.23-9.28-.06-13.84.21-.65.42-1.29.63-1.94.09-.27.18-.55.12-.82-.06-.27-.32-.53-.59-.47.32-.4.76-.71,1.25-.86-.41.17-.75-.52-.48-.88.27-.36.77-.43,1.22-.46-.56.23-1.01-.69-.65-1.18.36-.49,1.04-.58,1.64-.63-.61-.22-1.23-.44-1.84-.66.59-.58,1.38-.94,2.2-1-.71-.16-1.41-.32-2.12-.48-.2-.05-.41-.1-.55-.25-.23-.25-.13-.68.12-.91.25-.24.59-.33.92-.41-.51-.18-.97-.5-1.3-.92.33-.18.67-.35,1.01-.53-.56-.1-1.05-.49-1.27-1.01.52-.13,1.04-.27,1.56-.41-1.22.19-2.21-1.05-2.47-2.26-.25-1.21-.06-2.48-.36-3.67-.25,1.27-.49,2.54-.74,3.82-.11.58-.28,1.16-.82,1.46-.17.09-1.4.24-1.47.12.15.3.39.56.67.73-.3-.02-.61.04-.88.16.48.19.96.39,1.44.58-1.09-.03-2.18.11-3.23.43.76.45,1.57.82,2.41,1.11-1.52.02-3.05.22-4.52.61,1.92,1.3,4.43,1.18,6.74,1.02-.99,1.1-3.2.1-4.08,1.29.63.17,1.29.29,1.94.34-1.15.26-2.3.53-3.46.8.98.35,2.01.55,3.05.61-.17.2-.33.4-.5.6.18.25.5.39.81.35-.17.21-.33.41-.5.62.67.15,1.34.31,2.02.46-.51.27-.96.65-1.29,1.11.37.16.74.32,1.11.48-.56.12-1.06.51-1.3,1.03.55.04,1.27.25,1.27.81,0,.15-.07.3-.03.45.1.43.82.39.97.8.06.17,0,.36-.06.54-.31,1.16.43,2.18.44,3.3.01,1.22-.3,2.59-.38,3.83-.2,2.96-.41,5.92-.61,8.88.02-.22.05-.45.07-.68.36.54,1.27.35,1.63-.18.37-.53.35-1.22.33-1.87Z" style="fill: #522101; stroke-width: 0px;"/>
          <g>
            <path d="m32.58,103.76c0,.25,0,.5.03.75,0-.25,0-.5-.03-.75Z" style="fill: #522101; stroke-width: 0px;"/>
            <path d="m41.9,137c-.21-.12-.42-.3-.64-.39-.27-.11-.59-.14-.88-.17-.56-.06-1.11-.06-1.67.02-1.07.15-2.11.42-3.16.64-.17.03-.33.06-.5.1.02-.13.03-.25.04-.38.03-.06.07-.11.1-.17.15-.32.21-.68.19-1.03.03,0,.05.01.08.02-.09-.8-.17-1.6-.26-2.4.26,2.41,5.5,1.45,6.86,2.07-1.83-.83-3.38-2.28-4.33-4.05.92.61,2.13.76,3.17.42-1.76-.88-3.23-2.32-4.14-4.05,1.38.92,3.09,1.35,4.74,1.18-1.72-.54-3.09-2.08-3.41-3.86,1.35.58,2.87.76,4.32.51-2.41-1.2-4.48-3.05-5.95-5.31,1.15.53,2.44.77,3.71.68-2.66-.84-4.84-3.09-5.59-5.77,1.06.58,2.38.63,3.49.15-1.75-1.1-3.15-2.76-3.94-4.67.11,0,.23.02.34.03.63.05,1.25.1,1.88.15-2.13-1.34-3.54-3.72-3.75-6.22.01,2.82-1.27,5.63-3.44,7.44.83-.15,1.63-.49,2.31-.99-.91,1.84-2.29,3.63-4.3,4.29,1.29.25,2.68-.05,3.75-.82-.5,1.33-1.42,2.5-2.61,3.28,1.04.18,2.15-.18,2.89-.94-.65,2.13-1.66,3.47-3.69,4.38.97-.43,1.94-.86,2.92-1.3-.65,2.07-2.48,3.72-4.61,4.16,1.72.49,3.6.4,5.27-.24-.83,2.77-3.24,5-6.06,5.62,1.68.18,3.28-.11,4.89-.58-1.46,2.7-2.77,4.68-5.79,5.96,2.11,0,4.22-.73,5.88-2.03-.48,1.09-1.27,2.04-2.26,2.7,1.8.15,3.63-1,4.27-2.69-.01,1.16.07,2.33.26,3.48.06-.06.12-.12.17-.18-.03.47-.07.99-.04,1.48-1.03.04-2.05-.04-3.1-.27-.8-.18-1.11,1.16-.33,1.39.28.09.56.16.84.23-.68.11-1.36.23-2.03.36-.63.12-.48,1.07.15.98,2.26-.33,4.53-.52,6.82-.64,1.11-.05,2.22-.09,3.34-.1.58,0,1.17.01,1.75-.02.53-.03,1.18.01,1.64-.26.29-.17.42-.6.09-.81-.03-.02-.06-.03-.09-.05.04,0,.07-.02.11-.03.57-.12.9-.96.31-1.31Z" style="fill: #522101; stroke-width: 0px;"/>
          </g>
          <g>
            <path d="m327.69,106.63c-.74-.56-.99-1.52-1.09-2.37-.13-1.1-.06-2.22-.11-3.36-.05-1.19-.17-2.39-.63-3.5-.12-.28-.26-.54-.42-.8-.14-.23-.38-.51-.36-.79.02-.37.26-.75.33-1.12.07-.45.19-.88.33-1.31.65-1.95,1.35-3.88,2.05-5.81.09-.25-.08-.61-.38-.61-3.74-.04-6.33-3.26-9.44-4.87-.77-.4-1.57-.71-2.41-.89-1.07-.23-2.14-.16-3.21-.01-1.32.18-2.57.28-3.89.08-1.26-.19-2.49-.56-3.72-.88-2.13-.56-4.24-.81-6.44-.86-2.06-.05-4.14.03-6.19-.21-5.08-.59-6.05-5.36-11.17-5.2-1.4.04-2.8.09-4.2.13-.25,0-.52.01-.74-.11-2.37-1.26,4.46-6.59,5.16-7.07,3.43-2.32,7.04-4.71,11.16-5.12,5.28-.52,7.62,1.08,12.22,2.9,2.95,1.17,6.54.39,9.63.73,3.56.39,7.04.06,10.65-.18-4.39-1.04-8.91-1.51-13.42-1.42-3.9.08-6.61.57-9.17-2.81,3.57-1.75,8.09-2.38,12.09-2.61-3.03.1-5.95-.68-9.01-.36-3.38.35-6.58,1.7-9.97,1.95-2.1.16-4.23.01-6.32.23-8.07.84-13.02,7.27-19.41,11.33-1.38.88-2.93,1.57-4.56,1.66,1.8-7.49,7.3-10.13,13.1-14.34,5.44-3.95,10.69-8.18,15.31-13.07,3.36-3.55,5.46-7.57,7.83-11.75,2.41-4.26,6.03-7.7,9.54-11.05,3.3-3.14,6.6-6.28,9.9-9.43,2.89-2.75,5.82-5.53,9.35-7.37-2.05.57-4.43-1.31-6.23-.18-.72.45-1.1,1.26-1.51,2-1.26,2.28-3.06,4.21-4.83,6.11-4.13,4.43-8.26,8.86-12.39,13.29-1.23,1.32-2.62,2.72-4.41,2.96-.31-3.36,1.31-5.74,2.5-8.74.82-2.06,1.67-4.1,2.47-6.16,1.14-2.91,2.31-5.87,4.31-8.27,2-2.4,5.01-4.18,8.13-3.89-2.5-2.03-5.64-3.27-8.86-3.5-.58,5.99-2.56,11.83-5.72,16.95-1.17,1.89-2.51,3.71-3.31,5.79-2.47,6.44-.71,13.65-5.14,19.42-2.87,3.73-6.41,7.05-9.96,10.12-3.46,3-7.11,5.91-11.07,8.23-1.85,1.09-3.73,2.13-5.67,3.07-1.6.77-3.1,1.67-4.02,3.26-.99,1.71-.68,3.91-1.86,5.5-1.31,1.77-3.75,2.49-5.7,3.28-6.64,2.67-12.59,6.22-19.12,9.19-7.28,3.31-14.31,7.13-21.66,10.29-4.55,1.96-9.22,3.55-14.15,4.2-7.76,1.03-15.75.8-21.3,7.23-2.63,3.05-4.41,6.7-6.83,9.9-.01.01-.02.03-.03.04,0,0,0,0-.01,0-.2.19-.46.3-.65.5-.2.2-.38.41-.59.6-.39.35-.8.67-1.26.94-.97.58-2.04.92-3.12,1.22-2.79.78-5.75.51-8.56,1.2-.33.08-.26.6.08.53,1.59-.32,3.25-.4,4.87-.32,1.41.07,2.94.14,4.35-.1.35-.06.7-.14,1.05-.23-.38.38-.76.75-1.15,1.12-.17.06-.35.11-.54.16-1.54.39-3.11.36-4.68.47-1.83.12-3.66.36-5.49.37-1.54.01-3.28-.44-4.39-1.57-.18-.18-.47.05-.31.25,1.67,2.18,4.72,2.37,7.25,2.52,1.68.1,3.35.19,5.03.13.18,0,.37-.02.55-.03-.21.18-.42.36-.63.54-5.67,4.78-11.95,9.58-14.75,16.7-1.71,4.33-3.05,6.51-7.37,8.91-3.89,2.17-8.35,3.21-12.73,3.82-6.79.96-13.8,1.06-20.22,3.46-4.65,1.74-8.8,4.63-13.42,6.45-10.02,3.95-21.23,1.07-30.98,5.16,1.77.08,3.55.16,5.32.24.49.02,1.18.39.89.8-5.12-.13-10.27.73-15.07,2.5-1.38.51-2.75,1.09-4.2,1.26.45-1.99,3.99-1.69,4.61-3.64-4.98,1.12-9.11,4.08-14.33,4.47-3.39.25-6.77-.48-10.16-.56-3.15-.07-6.28.42-9.37,1.02-8.1,1.58-16.06,3.93-23.72,7l54.75-.8c2.45-.04,4.93-.07,7.31-.66,2.85-.7,5.44-2.16,8.18-3.23,10.59-4.13,22.95-2.26,33.18-7.22,3.04-1.47,5.77-3.5,8.76-5.07,10.36-5.44,22.87-4.96,33.73-9.34,1.5-.61,3-1.32,4.16-2.46,2.82-2.75,3.76-7.43,5.13-10.98,1.66-4.27,4.39-7.87,7.51-11.23,4.54-4.89,10.94-9.97,14.52-15.55,2.89-4.49,3.89-9.36,9.12-12.1,3.66-1.91,7.9-2.26,11.94-2.66,4.42-.44,8.69-1.07,12.93-2.47,7.48-2.47,14.58-5.9,21.74-9.15,5.65-2.57,10.62-5.51,16.59-7.15,3.96-1.09,8.08-2.74,12.13-3.35,5.9-.89,11.66-1.69,17.58-2.3,1.09-.12,2.19-.29,3.28-.11,1.02.17,1.71.89,2.49,1.52,1.58,1.26,3.54,1.85,5.52,2.12,4.1.56,8.3-.11,12.36.73,2.45.51,4.82,1.49,7.36,1.45,1.29-.02,2.56-.35,3.85-.31.9.02,1.77.26,2.6.61,3.38,1.46,6.17,4.76,9.97,5.12-.73,1.59-1.48,3.18-2.23,4.75-.2.41-.39.82-.66,1.2-.29.41-.53.81-.67,1.31-.3,1.03.06,1.76.56,2.63,1.16,2.04.48,4.67,1.03,6.96.16.65.36,1.37.8,1.89.43.51,1.02.9,1.63,1.15.66.27,1.11-.66.57-1.07Z" style="fill: #522101; stroke-width: 0px;"/>
            <path d="m314.32,58.58c.21,0,.41-.02.62-.03-.2.01-.41.02-.62.03Z" style="fill: #522101; stroke-width: 0px;"/>
          </g>
          <path d="m208.15,67.97c-1.52-1.24-3.02-1.06-4.86-1.35-.68-.11-1.54-.11-2.17-.27-1.29-.33-2.13-2.26-2.38-3.39-.07-.32-.54-.25-.5.08.13.97.42,1.84.96,2.66.45.67,1.34,1.92,1.93,2.46.73.67,1.87.89,2.84.88,1.37,0,2.7-1.08,4.07-.77.17.04.23-.21.11-.3Z" style="fill: #522101; stroke-width: 0px;"/>
          <path d="m198.89,69.27c-.32.11-.72.02-1.04-.04-.17-.03-.36,0-.55.09-.27-.23-.48-.5-.57-.86-.17-.68-1.22-.54-1.08.16.14.69.49,1.24,1.01,1.69.02.06.05.11.07.16.08.32.36.61.65.73.78.34,1.57.31,2.35,0,1.28-.49.42-2.36-.85-1.93Z" style="fill: #522101; stroke-width: 0px;"/>
          <path d="m156.57,149.86c-2.33,1.62-3.25,4.79-5.26,6.77-1.38,1.35-3.78,2.09-5.56,2.71-2.04.72-4.12,1.33-6.22,1.85-.16.04-.13.3.04.26,4.3-.91,8.39-2.48,12.66-3.5,1.47-.35,2.55-1,3.16-2.48.74-1.78.36-3.63,1.45-5.37.11-.18-.1-.37-.27-.25Z" style="fill: #522101; stroke-width: 0px;"/>
          <g>
            <path d="m132.18,127.61c-.3-.52-.65-.99-1.02-1.45-.17-.47-.36-.9-.55-1.28-.4-.83-.82-1.75-1.41-2.45-.13-.15-.26-.28-.4-.39-.03-.22-.16-.42-.31-.56-.28-.26-.6-.24-.95-.33-.42-.1-.85-.09-1.28-.15-.7-.1-1.37-.23-2.02-.5-1.45-.61-2.9-1.7-4.43-.59-.13.09-.27.2-.38.33.04-.02.08-.01.08.07,0,0-.05,0-.12-.02-.17.19-.11.07-.02,0-.24-.05-.72-.16-.75-.17-.84-.17-1.74.18-2.07,1.08-.13.34-.15.68-.34,1-.22.37-.49.7-.73,1.05-.52.76-.99,1.57-1.51,2.33-.12.16-.06.33.05.41-.02.02-.03.04-.05.06-.34.33-.12.98.37.9.98-.16,1.62-.67,2.27-1.46.51-.62,1.03-1.46,1.65-1.79.6-.32,1.32-.31,2.02-.23-.06.06-.12.11-.17.17-.14.04-.29.09-.42.17-.45.26-.85.56-1.21.95-.39.42-.71.86-.96,1.39-.1.22-.19.44-.25.67-.03.1-.04.2-.04.3-.16.25-.3.51-.39.8-.05.16-.09.32-.12.48-.6.02-1.2-.06-1.78-.38-.27-.15-.48.31-.24.48.69.54,1.44.76,2.21.91.11.09.25.12.38.07.49.08.99.14,1.5.24.72.13,1.39.29,2.07.55.76.29,1.47.66,2.22.97,1.52.63,3.03.85,4.63.74.26.19.53.36.84.48,1.13.44,2.29.5,3.41-.02.43-.2.63-.61.66-1.07.05-.13.09-.27.13-.41.1-.07.12-.21.07-.32.16-1.03-.11-2.11-.64-3.03Z" style="fill: #522101; stroke-width: 0px;"/>
            <path d="m119.41,120.24h0s-.04.02-.06.04c0,0,.01,0,.02,0,.01-.01.03-.03.04-.05Z" style="fill: #522101; stroke-width: 0px;"/>
          </g>
          <path d="m155.45,125.38c-.77-.15-1.57-.32-2.29-.65-.69-.32-1.32-1.07-1.85-1.64-1.16-1.25-2.21-2.65-3.46-3.82-.33-.31-.72-.47-1.1-.71-.34-.22-.65-.5-1-.71-.73-.45-1.49-.83-2.3-1.08-1.53-.47-3.13-.5-4.66-.92-.71-.19-1.39-.43-2.01-.87-.7-.5-1.26-1.21-2.07-1.5-2.03-.73-3.67,1.4-5.49,1.9-1.92.52-3.93.1-5.85-.2-.92-.14-1.85-.19-2.79-.15-.82.03-1.9.4-2.45,1.08-.2.25-.36.53-.54.8-.18.07-.36.15-.54.22-1.28.55-2.55,1.16-3.7,1.99-1.08.78-2.04,1.7-3.03,2.6-.66.6-1.34,1.19-2.11,1.62-1.29.14-2.59.11-3.85-.29-.29-.09-.45.34-.17.47.84.39,1.65.77,2.54,1.02.8.22,1.59.45,2.41.55.47.26,1.07.23,1.57.05.03,0,.05-.03.07-.04,0,.18.23.3.35.13.2-.31.42-.61.64-.92.09-.12.18-.24.26-.36.76-1.02,1.6-1.99,2.43-2.93.48-.55.98-1.09,1.5-1.59.43-.32.87-.64,1.32-.94.33-.22.66-.42,1-.62.02,0,.03,0,.04,0,.41-.06.79-.05,1.19-.17.39-.12.77-.29,1.15-.44.34-.13.66-.32,1.01-.41.49-.12,1.02-.15,1.52-.15.95,0,1.9.18,2.86.22.92.04,1.84-.03,2.76-.1.9-.07,1.79-.17,2.69-.22.49-.03.94-.16,1.4-.34.24-.1.63-.34.91-.32.27.02.54.39.76.54.37.26.79.47,1.2.64.74.29,1.55.47,2.33.6,1.52.24,3.08.31,4.57.7.73.2,1.43.48,2.05.94.3.22.69.47.91.77.25.33.4.7.69,1,1.33,1.39,2.47,2.96,4.08,4.02.79.52,1.66.85,2.52,1.17.91.34,1.73.42,2.65.12.54-.18.3-.96-.15-1.05Z" style="fill: #522101; stroke-width: 0px;"/>
          <path d="m155.53,128.3c-3.12-.8-7.4-.98-9.4-3.81-.59-.84-1.21-1.69-2.09-2.22-.18-.11-.37.16-.19.28,1.75,1.21,2.24,3.64,3.86,4.99.21.18.44.3.67.4-.09,0-.18,0-.27,0-1.6,0-4.09-.34-5.48-1.17-1.04-.62-1.86-1.77-1.92-3.04-.37,1.72-.04,3.59.87,5.05-1.95-.34-3.47-1.38-5.1-2.5-.76-.53-1.56-1-2.33-1.51-.09-.06-.17-.06-.23-.02-.02-.02-.05-.04-.07-.06-.09-.07-.18.07-.1.14.02.01.03.03.04.04-.04.1-.03.22.07.32.51.51,1.01,1.04,1.52,1.55.23.35.45.72.63,1.11.54,1.17.63,2.45,1.04,3.67.76,2.26,4.02,3.89,6.11,4.15,1.43.18,2.88.02,4.31-.14-2.29-.6-4.87-1.44-5.86-3.72,2.7.96,5.64,1.16,8.43.57-1.37.18-2.8-.7-3.33-2.05,3.53.66,7.27.03,10.43-1.77-.55-.04-1.09-.14-1.61-.27Z" style="fill: #522101; stroke-width: 0px;"/>
          <path d="m208.53,40.46c-.93-.4-1.95-.54-2.96-.42-.04,0-.09.01-.14.02,0-.32-.02-.64-.09-.94.12-.02.25-.05.38-.1.61-.23,1.1-.7,1.31-1.32.09-.25.14-.51.2-.76.02-.09.04-.19.06-.28,0,0,0,0,0,0,.12-.13.23-.26.35-.4,1.57-.9.88-3.07.43-4.43-.32-.96-.67-1.89-1.03-2.84-.31-.82-.64-1.74-1.13-2.48-.92-1.37-2.85-1.33-3.41.3-.3.86-.4,1.77-.61,2.66-.23.99-.58,1.94-.87,2.9-.14.47-.21.9-.21,1.33-.05.07-.09.16-.09.27-.07.92.26,1.77.84,2.48.28.35.62.66.97.94.19.15.39.3.59.43.1.06.24.13.37.21.04.07.12.13.2.17.08.16.18.31.29.44,0,.03-.02.06-.02.09,0,0-.01.02-.01.03h0c-.25.51-.4,1.12-.29,1.63-.33.08-.66.18-.95.33-.14.07-.26.16-.35.27-.84.13-1.65.41-2.11,1.18-.29.49-.09,1.27.58,1.3.33.01.58-.07.89-.12.28-.04.59-.02.87-.03.58-.02,1.16-.04,1.74-.06.55-.02,1.17-.03,1.71.1.29.07.55.21.85.24.32.03.67-.01.99-.02.77-.03.81-1.11.24-1.43.02,0,.03,0,.05-.01.72.02,1.35-1.23.34-1.66Zm-5.66-4.46c-.35-.5-.65-1.05-.85-1.61-.3-.84-.21-1.71-.01-2.55.23-.98.48-1.95.83-2.89.17-.46.32-.91.47-1.37.09-.3.2-.79.52-.93.36-.15.77.26.94.55.21.35.29.76.38,1.15.06.3.14.6.21.9.02.84-.08,1.68-.22,2.49-.19,1.06-.42,2.11-.71,3.14-.17.62-.42,1.22-.64,1.83-.11-.08-.22-.16-.3-.21-.22-.15-.44-.32-.64-.5Zm1.91.63s0,0,0,0c.01-.01.01-.01.03-.03-.01.01-.03.02-.04.03,0,0,0,0,0,0-.01,0-.02,0-.04.01.2-.64.36-1.31.53-1.92.29-1.06.54-2.15.72-3.23.33,1.15.73,2.31.95,3.49-.45.13-.84.48-1.19.81-.26.25-.54.46-.82.69-.05.06-.09.1-.13.14Z" style="fill: #522101; stroke-width: 0px;"/>
          <path d="m141.92,26.01c-.76-.33-1.59-.44-2.41-.34-.03,0-.07.01-.11.02,0-.26-.02-.52-.07-.77.1-.02.21-.04.31-.08.5-.19.89-.57,1.07-1.08.07-.2.11-.41.16-.62.02-.08.03-.15.05-.23,0,0,0,0,0,0,.09-.11.19-.21.28-.32,1.28-.73.72-2.5.35-3.61-.26-.78-.55-1.54-.84-2.31-.25-.67-.52-1.42-.92-2.02-.74-1.12-2.32-1.09-2.78.24-.24.7-.33,1.45-.49,2.17-.18.81-.47,1.58-.71,2.37-.11.38-.18.73-.17,1.09-.04.06-.07.13-.07.22-.06.75.21,1.44.69,2.02.23.28.51.54.79.77.16.12.32.24.48.35.08.05.2.11.3.17.04.06.1.11.17.14.06.13.14.25.24.35,0,.02-.01.05-.02.07,0,0,0,.02-.01.02h0c-.2.42-.33.91-.24,1.33-.27.07-.54.15-.77.27-.12.06-.21.13-.29.22-.68.1-1.34.33-1.72.96-.24.4-.07,1.04.48,1.06.27.01.47-.06.73-.09.23-.03.48-.02.71-.02.47-.01.95-.03,1.42-.05.44-.01.96-.02,1.39.09.23.06.45.17.69.2.26.02.55-.01.81-.02.63-.02.66-.9.2-1.16.01,0,.02,0,.04-.01.59.01,1.1-1,.28-1.35Zm-4.61-3.64c-.28-.41-.53-.86-.69-1.31-.24-.68-.17-1.39-.01-2.08.19-.8.39-1.59.68-2.36.14-.37.27-.74.39-1.12.08-.25.16-.64.43-.75.3-.12.63.22.77.45.17.29.24.62.31.94.05.25.11.49.17.73.02.68-.06,1.37-.18,2.03-.15.86-.34,1.72-.58,2.56-.14.5-.34.99-.52,1.49-.09-.07-.18-.13-.24-.18-.18-.12-.35-.26-.52-.4Zm1.56.51s0,0,0,0c.01,0,.01-.01.02-.02-.01.01-.02.02-.04.03h0s-.02,0-.03.01c.16-.52.29-1.07.43-1.57.24-.87.44-1.75.59-2.64.27.94.6,1.88.77,2.85-.37.11-.69.39-.97.66-.21.2-.44.37-.67.56-.05.05-.08.08-.1.11Z" style="fill: #522101; stroke-width: 0px;"/>
          <path d="m197.53,36.94c-.56-.31-1.3-.43-1.92-.59-3.47-.9-6.16-.84-9.35-2.98-3.12-2.09-5.87-4.82-8.34-7.64-2.77-3.17-6.26-5.53-9.74-7.83-.88-.58-1.8-1.06-2.68-1.62-.45-.29-.89-.56-1.41-.71-.48-.15-1.13-.23-1.51-.27-.27-.03-.69-.16-1.08-.13-.22.01-.43.05-.65.1-.7.18-1.29.45-1.86.9-.39.31-.74.67-1.08,1.02-.24.25-.48.51-.71.76-.26.28-.13.14-.07.08-.2.21-.39.43-.58.65-.76.9-1.48,1.8-2.17,2.75-.67.92-1.08,2.03-1.79,2.92-1.45,1.8-3.11,3.47-4.67,5.18-1.62,1.77-3.21,3.58-4.94,5.25-.77.74-1.59,1.44-2.43,2.1-.28.21-.56.43-.84.65-2.49-2.58-5.52-4.53-8.29-6.94-3.97-3.46-7.57-7.51-10.53-11.94-1.34-2-2.43-4.45-4.73-5.53-2.47-1.16-5.14-1.07-7.06,1.05-3.77,4.14-7.39,8.76-9.82,13.81-.42.86-.83,1.72-1.24,2.58-.14.21-.28.41-.41.61-.02-.02-.04-.04-.05-.06-.21-.25-.49-.43-.79-.54-.51-.19-1.07-.29-1.59-.44-.88-.26-1.77-.56-2.58-1-1.83-.99-3.26-2.66-4.86-3.98-1.7-1.4-3.46-2.71-5.23-4.02-.92-.68-1.9-1.28-3.06-1.43-1.01-.13-2.04.11-2.97.51-.11.05-.21.1-.31.15-.23.03-.46.07-.68.13-3.31.84-4.57,4.6-7.02,6.56-2.86,2.29-6.52,3.18-9.28,5.77-.72.68-1.39,1.41-2.08,2.12-.72.74-1.3,1.57-1.96,2.36-.6.73-1.08,1.56-1.66,2.3-2.55,3.3-7.8,4.29-11.18,6.48-.81.53-1.57,1.14-2.41,1.62-1.61.91-3.52,1.3-5.36,1.08,1.44,1.42,3.96,1.56,5.55.32.8-.63,1.35-1.52,2.06-2.26,3.34-3.47,7.76-.52,11.14-2.88.4-.28.73-.64,1.07-1,3.19-3.45,4.34-8.32,8.19-11.21.67-.54,1.43-1.16,2.24-1.46.79-.3,1.6-.55,2.39-.87,1.62-.67,3.22-1.44,4.59-2.54,1.29-1.04,2.25-2.37,3.36-3.38.48-.44.99-.91,1.5-1.06.82-.25,1.72.14,2.47.48.89.4,1.72,1.04,2.55,1.57.93.59,1.86,1.18,2.76,1.81,1.61,1.1,3.11,2.33,4.67,3.5.61.52,1.25,1.01,1.94,1.4.02.01.05.03.07.04.71.49,1.42.98,2.14,1.46.5.33.98.69,1.5,1,.27.16.56.29.85.41-1.2,1.64-2.51,3.21-4.01,4.57-.5.45-1,.91-1.52,1.33-.55.45-1.03.97-1.61,1.39-.61.45-1.23.86-1.8,1.36-.49.43-.94.92-1.39,1.39-1.49,1.58-2.41,3.59-3.38,5.5-1.09,2.14-2.34,4.39-4.61,5.45-.34.16-.11.68.23.53,4.14-1.87,5.06-6.92,7.66-10.22.38-.47.77-.92,1.27-1.27.6-.43,1.25-.76,1.9-1.11.66-.36,1.33-.72,2.03-.98.69-.26,1.31-.69,1.92-1.1,2.29-1.56,4.26-3.77,5.89-5.99,1.11-1.52,2.13-3.16,3.12-4.84.05-.04.1-.09.16-.13.86-.66,1.81-1.3,2.86-1.6.44-.13.52.06.74.47.28.5.54,1.01.79,1.53.51,1.07.82,2.17,1.05,3.32.03.18.21.22.33.14-.44.76-.86,1.52-1.27,2.29-.86,1.61-1.6,3.3-2.32,4.97-.06.14.14.21.21.08,1.63-3.15,3.43-6.26,5.35-9.24.37-.57.82-1.13,1.55-1.18-.06,0,.31.08.33.08.18.04.22.04.37.14.27.18.47.45.67.7.47.62.91,1.25,1.24,1.95.16.33.31.66.42,1.01.13.39.18.8.34,1.18.1.26.53.26.62-.02.2-.65.12-1.4.06-2.07-.07-.73-.27-1.49-.55-2.17-.29-.7-.74-1.38-1.31-1.88-.53-.47-1.41-.93-2.13-.66-.59.22-1.03.57-1.39,1.09-.38.57-.7,1.2-1.05,1.78-.35.57-.68,1.15-1.02,1.73.25-1.32.14-2.72-.22-4.01-.3-1.09-1.18-3.3-2.68-2.79-.58.19-1.07.7-1.52,1.09-.22.18-.43.35-.65.53,1.18-2.04,2.36-4.1,3.65-6.03,1.07-1.6,2.95-5.1,4.81-5.84,2.31-.93,4.16,1.2,5.83,2.66,1.2,1.05,2.4,2.12,3.59,3.18,1.05,1.44,2.16,2.84,3.34,4.18-.39.43-.7.97-.71,1.55,0,.09-.02.17,0,.26,0-.05.06.22.05.14.01.07.06.16.07.22,0,.04-.02.14-.02.19,0,.3.07.63.12.93.1.63.39,1.22.81,1.7.06.06.17-.02.11-.09-.4-.45-.65-1.01-.75-1.6-.05-.31,0-.58.07-.88,0-.04.01-.15.02-.16.01-.02.14-.15.17-.17-.07.09,0,.03.05-.01.07-.06.11-.14.17-.2.31-.32.5-.56.8-.81,1.4,1.53,2.87,2.99,4.42,4.38,1.74,1.57,3.57,3.05,5.49,4.4.09.12.18.24.28.36.8,1,1.69,1.98,2.61,2.88,3.11,3.03,7.09,6.46,9.05,10.37.5.99.9,2.05,1.69,2.82.52.51,1.16.86,1.69,1.35.95.9,1.42,2.18,2.17,3.25,1.26,1.8,3.42,1.77,5.41,2.1,3.96.66,7.95,1.23,11.95,1.7,2.27.27,4.56.47,6.84.67,2.28.21,4.59.4,6.88.41.31,0,.36-.43.05-.49-3.87-.73-7.79-1.21-11.66-1.94-3.89-.73-7.69-1.77-11.49-2.71-3.05-.75-6.68-.84-8.57-3.81-2.89-4.55-6.31-8.77-9.3-13.25-.33-.5-.69-.97-1.06-1.42.07-.04.14-.09.21-.13.82-.51,1.54-1.14,2.22-1.82,1.44-1.41,2.7-2.99,4.05-4.49,1.55-1.73,3.09-3.49,4.7-5.16.77-.8,1.51-1.75,2.46-2.32.99-.6,1.89-1.3,2.79-2.03,1.66-1.34,2.98-3.04,4.7-4.29.29-.21.08-.04.02-.01.12-.06.25-.11.37-.17.06-.03.24-.13.35-.2.02,0,.11-.02.12-.04.02,0,.05,0,.09.01.11.01.22.01.33.02.28.03.55.09.82.13.44.07.8.12,1.2.32.44.22.87.47,1.29.72,1.1.67,2.21,1.35,3.3,2.05,0,0-.02,0-.03,0-.91-.08-1.83-.09-2.74-.14-1.74-.1-3.49-.1-5.23.02-.1,0-.1.18,0,.18,1.73,0,3.46.12,5.17.4.87.14,1.7.38,2.54.62.7.2,1.62.57,2.34.31.8.57,1.57,1.16,2.33,1.78-.03,0-.06,0-.08,0-.53.02-.99.2-1.5.33-.51.12-1.04.18-1.57.18-1.1,0-2.12-.34-3.19-.53-2.26-.41-4.4.09-6.59.63-.11.03-.09.2.03.18,1.2-.22,2.4-.43,3.62-.43.59,0,1.19.04,1.77.15.61.13,1.17.39,1.75.62,1.03.41,2.06.71,3.17.66,1.05-.05,2.24-.26,2.94-1.1.09-.1.1-.21.08-.32.65.56,1.29,1.15,1.88,1.77.12.12.24.25.35.38-.46.02-.93.13-1.3.25-1,.32-1.95.81-3.01.9-1.05.09-2.08-.25-3.09-.47-1.02-.21-2.07-.36-3.11-.19-.26.05-.2.44.06.41,2.04-.22,4.01.86,6,1.18.97.16,1.88-.02,2.8-.35.47-.17.93-.33,1.41-.43.22-.05.46-.1.68-.12.21-.02.41.01.61,0,.51.58,1.02,1.15,1.56,1.7-.44.1-.86.26-1.22.44-.64.31-1.25.7-1.89,1.01-.73.36-1.46.41-2.27.32-2.67-.3-5.49-1.49-8.04-.09-.18.1-.06.39.13.29,1.23-.63,2.58-.66,3.92-.44,1.41.23,2.66.82,4.03,1.16,1.36.34,2.6.03,3.83-.58.57-.29,1.15-.61,1.76-.8.34-.1.67-.15,1.01-.17.2.16.41.32.62.46.59.94,1.28,1.79,2.06,2.56-.59.22-1.13.52-1.68.86-.62.39-1.27.9-2.01,1.05-.89.18-1.84-.1-2.72-.19-.96-.1-1.91-.2-2.88-.22-1.83-.03-3.64.18-5.46.32-.17.01-.13.26.04.26,1.91-.07,3.83-.04,5.74.11.92.07,1.85.17,2.74.42.87.24,1.73.56,2.65.54,1.67-.05,2.81-1.33,4.33-1.82.18-.06.37-.11.56-.15.5.4,1.03.79,1.58,1.14.62.4,1.29.76,1.97,1.07-.37.11-.73.24-1.07.41-.74.36-1.42.84-2.15,1.24-.73.4-1.48.73-2.27.97-1.73.51-3.51.66-5.3.41-.25-.03-.27.33-.04.37,1.75.36,3.63.39,5.38-.02,1.68-.39,3.17-1.24,4.8-1.8.88-.3,1.67-.35,2.58-.23.92.12,1.82.34,2.74.45,1.42.16,3.24-.21,3.94-1.6,0-.01,0-.02.01-.03.16,0,.32-.01.47-.05.25-.07.44-.46.15-.62Z" style="fill: #522101; stroke-width: 0px;"/>
          <path d="m197.45,41.39c-.54.01-1.04.27-1.6.25-.53-.02-1.07-.11-1.58-.28-1.14-.37-2.24-.97-3.45-1.09-2.27-.22-3.69,1.79-5.73,2.33-.16.04-.13.28.04.25,2.23-.48,3.98-2.66,6.4-1.83,1.18.4,2.19,1.18,3.38,1.56.92.29,2.47.36,2.97-.67.14-.3-.17-.54-.43-.53Z" style="fill: #522101; stroke-width: 0px;"/>
          <path d="m180.22,74.65c-2.02.1-4.05.34-6.06.5-2.06.17-4.11.2-6.17.21-1.02,0-2.04,0-3.06.03-.93.03-1.9.08-2.82-.04-.91-.12-1.73-.64-2.61-.88-.86-.24-1.75-.3-2.64-.34-2.29-.08-4.59-.08-6.88-.12-.29,0-.34.44-.05.45,2.08.09,4.16.18,6.24.27.97.04,1.95.09,2.89.39.91.29,1.63.88,2.42,1.39.86.56,1.8.68,2.81.67,1.02,0,2.04-.04,3.05-.12,2.08-.17,4.14-.46,6.2-.75,2.27-.31,4.58-.66,6.78-1.33.22-.06.09-.36-.1-.35Z" style="fill: #522101; stroke-width: 0px;"/>
          <path d="m210.35,76.6c-2.51.06-5.01.18-7.53.18s-4.87-.14-7.31-.13c-2.47.02-4.92.18-7.38.35-2.45.17-4.83.78-7.27,1.06-2.75.32-5.51.5-8.26.81-.21.02-.15.33.05.32,2.44-.13,4.87-.3,7.31-.44,1.29-.08,2.59-.1,3.87,0,.56.04,1.12,0,1.68.04.63.05,1.26.07,1.9.05,1.26-.04,2.52-.14,3.78-.21,1.19-.07,2.38-.11,3.57-.26,1.22-.16,2.43-.32,3.64-.47,1.21-.16,2.44-.22,3.65-.44,2.73-.49,5.56-.5,8.32-.72.09,0,.06-.13-.02-.13Z" style="fill: #522101; stroke-width: 0px;"/>
          <path d="m221.12,79.82c-.43-.04-.85-.01-1.28,0-.43,0-.86-.05-1.29-.07-.88-.03-1.75-.09-2.62-.12-1.73-.05-3.43-.3-5.15-.52-1.66-.22-3.27-.44-4.94-.24-.91.11-1.81.31-2.72.42-.91.12-1.82.23-2.74.34-.21.03-.16.35.05.33.92-.09,1.83-.17,2.75-.26.92-.09,1.84-.1,2.75-.18.94-.09,1.89-.17,2.78.17.77.3,1.49.67,2.28.92,1.63.52,3.41.76,5.12.78.88.01,1.78-.1,2.65-.27.8-.16,1.71-.37,2.44-.72.26-.13.22-.54-.09-.57Z" style="fill: #522101; stroke-width: 0px;"/>
          <path d="m140.43,71.27c-.28-.11-.54-.05-.83-.05-.32,0-.65-.02-.97-.05-.59-.06-1.17-.16-1.75-.3-1.18-.3-2.35-.73-3.48-1.17-1.12-.44-2.28-.77-3.31-1.42-1.05-.67-1.96-1.67-2.78-2.6-.16-.19-.54,0-.4.24.7,1.18,1.6,2.06,2.59,2.99.99.93,1.96,1.87,3.2,2.44,1.25.59,2.55.87,3.93.93.65.03,1.31.01,1.96-.03.59-.04,1.45-.02,1.95-.36.23-.16.14-.52-.1-.61Z" style="fill: #522101; stroke-width: 0px;"/>
          <path d="m133.31,73.38c-1.08-.4-2.15-.82-3.21-1.29-1.07-.47-2.02-1.15-3.02-1.74-.98-.59-1.98-1.27-2.78-2.08-.86-.87-1.5-1.9-1.98-3.02-.13-.29-.56-.1-.45.2.86,2.37,2.29,4.68,4.18,6.36.96.86,2.2,1.39,3.42,1.79,1.23.39,2.52.52,3.8.29.26-.05.31-.42.05-.51Z" style="fill: #522101; stroke-width: 0px;"/>
          <path d="m125.76,72.82c-.33-.13-.67-.16-.98-.31-.3-.14-.62-.27-.82-.39-.15-.09-.29-.19-.42-.3-.07-.06-.15-.12-.22-.18,0,0-.11-.1-.11-.1-.06-.06-.12-.12-.18-.17t0,0c-.06-.07-.13-.13-.19-.2-.06-.06-.11-.13-.17-.19-.13-.14-.26-.19-.41-.25-.04-.03-.09-.06-.14-.08-.13-.14-.23-.36-.32-.52-.13-.23-.24-.46-.36-.69-.25-.44-.43-.91-.6-1.38-.06-.16-.34-.09-.3.09.13.51.26,1.02.38,1.53.06.25.14.49.23.73.08.22.2.44.27.66,0,.07,0,.14.02.21-.01.14-.01.28.05.43.05.13.16.26.24.38.12.18.25.35.4.5.34.34.7.62,1.13.85.4.21.84.39,1.3.39.48,0,.92-.02,1.33-.32.24-.18.16-.57-.11-.67Z" style="fill: #522101; stroke-width: 0px;"/>
          <g>
            <g>
              <path d="m162.78,99.34c.02-.4-.22-.81-.71-.88-.49-.07-.97-.04-1.47-.02-.43.01-.87.03-1.3.04-.29,0-.58.06-.87.11-1.07-.07-2.14-.07-3.21-.05,0,0-.01,0-.02,0,0-.08,0-.16,0-.23-.03-.14-.06-.27-.08-.41-.01-.09-.02-.18-.02-.27.07-.03.13-.09.18-.15.31-.02.63-.17.85-.4.27-.29.53-.7.71-1.05.21-.41.51-.81.6-1.26.32-1.43.13-2.88-.24-4.28.12.95.11,1.9.02,2.45-.11.71-.4,1.72-1.06,2.1-.21.12-.48.22-.55.46-.06.2.05.44-.06.61-.12.19-.43.15-.57-.01-.29-.33-.29-.81-.28-1.21.01-.36,0-.75-.16-1.08-.57-1.07-.9-1.84-.95-2.89-.01-.32,0-.67.04-1.07.09-.9,1.14-2.92,2.36-2.21.22.13.4.34.56.6-.16-.5-.38-.99-.78-1.2-.72-.38-1.61.18-2.17.61-1.35,1.04-2.08,3.07-1.62,4.73.06.22.15.4.28.59.21.28.32.49.36.84.08.62.06,1.25,0,1.87-.06.57.05,1.12.55,1.46.32.22.76.38,1.18.47,0,.12,0,.23.02.34.02.14.04.28.07.42,0,0,0,.02,0,.03-.05,0-.1.02-.16.03-.18.05-.36.2-.54.22-.15.03-.24.11-.29.21-.09.01-.17.03-.25.03-.51.04-1.04-.02-1.55-.02-.48,0-.97.03-1.46.06-.1,0-.09.17,0,.18.51.05,1.02.11,1.53.13l.77.03c.17,0,.35,0,.53.01.12.02.24.04.35.07.1.02.2.05.31.07.02,0,.04.02.07.02h0s.1.02.14.02c.06.01.13.02.2.03.01.03.02.06.05.09-.05.02-.09.05-.13.08-.02,0-.03.02-.05.03-.21.11-.25.45.01.53.07.02.18.07.28.09.04,0,.08.02.11.03.03,0,.12.03.15.03.21.02.43,0,.64,0,.18,0,.36-.02.54-.03.09,0,.18-.01.27-.02.13-.01.23-.05.33-.11.02,0,.03-.02.05-.03.75.18,1.51.34,2.28.44.59.08,1.18.16,1.77.24.27.04.54.07.81.11.37.05.71.01,1.07-.06.8-.14.99-1.08.5-1.58Zm-8.57-3.23c-.5.04-.69-1.22-.79-1.58-.11-.38-.11-.79-.21-1.18-.1-.36-.37-.58-.5-.92s-.09-.73-.06-1.08c.01-.16.03-.32.06-.48,0,.37.01.85.24,1.13.05.07.14.08.2.14.06.06.08.18.11.25.08.18.17.36.27.54.28.46.92.86.92,1.43,0,.08-.34,1.75-.23,1.74Z" style="fill: #522101; stroke-width: 0px;"/>
              <path d="m157.2,90.49c-.11-.84-.32-1.67-.67-2.25.11.33.18.66.27.92.15.44.28.89.4,1.34Z" style="fill: #522101; stroke-width: 0px;"/>
            </g>
            <path d="m158.54,99.86c-.07-.06-.13-.13-.2-.19-.15-.11-.31-.17-.5-.19-.21-.05-.45-.02-.67-.02-.31,0-.61,0-.91.04-.29.03-.56.05-.84.15-.26.1-.55.24-.7.48-.13.08-.22.18-.24.34-.02.15.05.33.19.41l.05.03s.02.04.03.06c.1.13.24.2.37.27.09.05.19.1.29.13.25.1.51.12.77.14,0,0,0,0,0,0,0,.09.07.17.17.18.15.02.3.04.45.04.17,0,.39.02.52-.11.02-.02.02-.04.03-.07.19,0,.37,0,.54-.04.26-.06.53-.18.69-.42.13-.19.19-.4.18-.63,0-.22-.07-.46-.22-.63Z" style="fill: #522101; stroke-width: 0px;"/>
            <path d="m164.2,98.74c-.09,0-.19,0-.28,0-.12,0-.24-.01-.35,0-.1.02-.19.03-.29.05-.14.03-.24.15-.24.29,0,.15.11.25.25.28.1.02.2.04.3.05.09.02.19,0,.28,0,.09,0,.19,0,.28,0,.09,0,.18,0,.26-.04.12-.05.2-.17.2-.3,0-.22-.21-.32-.41-.33Z" style="fill: #522101; stroke-width: 0px;"/>
          </g>
          <path d="m264.35,120.5c-1.3-.17-2.58-.58-3.67-1.32-1.02-.69-1.96-1.48-3.03-2.08-.97-.54-2.26-.98-3.38-.9-1.02.08-2.14.58-2.91,1.24-.19.16.04.42.24.29.51-.33,1.09-.54,1.7-.49.51.05,1.02.22,1.53.32,1.07.19,2.13.67,3.11,1.14,1.05.51,2.1,1,3.17,1.46,1.03.45,2.14.78,3.27.62.17-.03.16-.28,0-.3Z" style="fill: #522101; stroke-width: 0px;"/>
          <path d="m266.23,122.3c-.5-.07-1.01-.02-1.52-.07-.52-.05-1.04-.12-1.56-.19-1.06-.13-2.12-.38-3.09-.84-1.64-.77-3.23-2.22-5.18-1.81-.23.05-.18.38.05.36,1.11-.12,2.01.47,2.83,1.15.8.66,1.6,1.32,2.52,1.82.93.5,1.98.83,3.05.85.95.02,2.27-.24,3.02-.85.16-.13.07-.37-.12-.4Z" style="fill: #522101; stroke-width: 0px;"/>
          <path d="m270,127.44c-.44-.21-.94-.25-1.4-.4-.47-.15-.9-.36-1.38-.51-.98-.3-1.99-.51-2.99-.76-.06-.02-.12-.03-.18-.05,1.2-.14,2.35-.5,3.42-1.14.21-.13.22-.51-.08-.52-1.64-.06-3.27.03-4.92.1-1.69.07-3.31.24-4.98-.09-.35-.07-.48.5-.14.61.19.06.38.11.57.17.01.02.03.05.07.07.44.27.82.62,1.25.91.44.29.9.55,1.38.77.95.44,2.03.71,3.04.95,1.02.24,2.05.46,3.1.5.52.02,1.03-.03,1.55-.08.54-.05,1.11.01,1.63-.13.2-.05.24-.3.04-.39Z" style="fill: #522101; stroke-width: 0px;"/>
        </g>
      </g>
    </g>
  </g>
</svg>