<?xml version="1.0" encoding="UTF-8"?>
<svg id="_圖層_2" data-name="圖層 2" xmlns="http://www.w3.org/2000/svg" width="22.82" height="24" viewBox="0 0 22.82 24">
  <g id="_圖層_5" data-name="圖層 5">
    <g>
      <path d="m11.35,20.37H3.39c-1.05,0-1.64-.35-1.87-1.17-.23-.7,0-1.4.82-1.99,2.11-1.64,1.76-.94,1.76-3.74,0-1.52-.12-3.04.12-4.56.35-2.93,1.87-4.91,4.68-5.97.47-.23.59-.47.59-1.05C9.48.71,10.3-.11,11.35.01c1.05,0,1.76.82,1.76,1.99,0,.47.12.7.59.94,2.93,1.05,4.8,3.63,4.8,6.79v5.27c0,.59.23,1.05.7,1.4.47.23.82.59,1.17.94.7.59.94,1.29.7,1.99-.23.7-.82,1.17-1.76,1.17h-4.1c-1.17-.12-2.57-.12-3.86-.12Zm-.12-1.29h7.96c.23,0,.47-.23.7-.35-.12-.23-.12-.47-.35-.59-.35-.35-.7-.59-1.05-.82-.94-.59-1.29-1.4-1.29-2.57v-5.27c0-3.16-2.46-5.62-5.62-5.85-2.93-.23-5.73,2.11-6.08,5.03-.23,1.64-.23,3.28-.12,4.8.12,1.99-.35,3.51-2.11,4.56-.23.12-.35.47-.47.7.35.12.59.35.94.35h7.49Zm.82-16.85c-.12-.35-.23-.7-.35-.94-.12-.12-.47-.12-.47,0-.35.35-.35.59-.59.94h1.4Z" style="fill: #fff; fill-rule: evenodd;"/>
      <path d="m0,9.61C.47,6.45,1.76,3.99,4.1,2.12c.35-.23.82-.35.94,0,.12.23,0,.7-.23.94-1.99,1.76-3.16,3.86-3.51,6.55,0,.23-.47.59-.7.59s-.47-.47-.59-.59Z" style="fill: #fff; fill-rule: evenodd;"/>
      <path d="m22.82,9.61c-.23.23-.47.59-.7.59s-.59-.35-.7-.59c-.35-2.69-1.52-4.91-3.63-6.67-.35-.23-.47-.59-.12-.94.35-.35.7-.23,1.05.12,1.99,1.76,3.28,3.86,3.86,6.44.12.35.12.59.12.94l.12.12Z" style="fill: #fff; fill-rule: evenodd;"/>
      <path d="m13.69,21.54c0,1.29-.94,2.34-2.22,2.46-1.4,0-2.46-.94-2.46-2.46h4.68Z" style="fill: #fff; fill-rule: evenodd;"/>
    </g>
  </g>
</svg>