<svg xmlns="http://www.w3.org/2000/svg" width="24.475" height="23.28" viewBox="0 0 24.475 23.28">
  <path id="menu1_img" d="M0,16.44a2.2,2.2,0,0,1,.13-.55,3.319,3.319,0,0,1,1.61-2.07C3,13.1,4.26,12.37,5.5,11.64a1.44,1.44,0,0,0,.38-.32c.54-.68,1.08-1.36,1.61-2.04l4.52-5.84a1.409,1.409,0,0,1,1.98-.29,1.491,1.491,0,0,1,.39.44c.56.93,1.09,1.87,1.63,2.81a.341.341,0,0,0,.38.23c.46-.05.92-.05,1.38-.09a.661.661,0,0,1,.75.38,11.99,11.99,0,0,0,.69,1.2.843.843,0,0,1,0,1.13c-.25.35-.47.75-.75,1.07a.3.3,0,0,0,0,.38c.5.85,1.01,1.71,1.51,2.58a1.407,1.407,0,0,1-.53,1.92,1.376,1.376,0,0,1-.4.15l-2.26.43L9.85,17.14l-.24.06c.19.33.38.65.55.96a.542.542,0,0,1-.22.83l-1.13.66c.18.3.35.59.51.88.32.56.66,1.12.96,1.7a1.905,1.905,0,0,1-.75,2.58,1.584,1.584,0,0,1-.5.18,1.908,1.908,0,0,1-2.05-.93c-.54-.94-1.08-1.9-1.61-2.84-.23-.4-.46-.75-.68-1.18a.208.208,0,0,0-.3-.11A3.332,3.332,0,0,1,.17,17.84h0c-.04-.14-.08-.27-.11-.41a1.251,1.251,0,0,0-.08-.32v-.63ZM11.99,5.03l-.2.24L8.63,9.34c-.62.8-1.24,1.59-1.87,2.39a.261.261,0,0,0,0,.35c.75,1.35,1.57,2.71,2.35,4.07a.234.234,0,0,0,.29.13l7.23-1.42.94-.2L12.01,5.02ZM5.88,12.5c-1.33.75-2.64,1.51-3.92,2.26a2.3,2.3,0,0,0-.94,2.58,2.4,2.4,0,0,0,2.96,1.68,2.865,2.865,0,0,0,.57-.24c1.11-.62,2.21-1.27,3.31-1.9l.41-.25L5.87,12.5Zm13.35,1.38a2.029,2.029,0,0,0-.11-.26L16.41,8.88q-1.35-2.37-2.72-4.71a1.644,1.644,0,0,0-.14-.22.481.481,0,0,0-.65-.07c-.26.19-.3.36-.15.61l2.72,4.76,2.92,5.06a.224.224,0,0,0,.14.16.581.581,0,0,0,.69-.44h0v-.14h.01Zm-13.8,5.5a.8.8,0,0,0,.05.11c.81,1.4,1.6,2.81,2.42,4.2a.956.956,0,0,0,1.34.18h0a.746.746,0,0,0,.17-.14,1.1,1.1,0,0,0,0-1.23c-.75-1.26-1.51-2.54-2.21-3.82l-.14-.22-1.63.92ZM17.87,9.59c.2-.33.39-.62.56-.92V8.5c-.17-.3-.34-.59-.51-.89,0-.05-.1-.14-.15-.14a6.052,6.052,0,0,0-1.02.06l1.11,2.06ZM9.24,18.32l-.49-.85-.85.49.49.85.85-.49ZM19.22,1.76a.646.646,0,0,0-.41.53,2.992,2.992,0,0,1-.08.32c-.11.43-.23.86-.34,1.29a.455.455,0,0,0,.25.6h0a.5.5,0,0,0,.63-.37l.44-1.63c.11-.42.08-.53-.3-.75h-.19Zm2.41,4.35,2.52-1.4a.48.48,0,0,0,.28-.6V4.04a.5.5,0,0,0-.66-.17l-.05.04c-.5.28-1,.55-1.51.84-.36.2-.75.39-1.08.6a.44.44,0,0,0-.21.55.46.46,0,0,0,.49.31.917.917,0,0,0,.23-.09h-.02ZM21.06,8.7a.533.533,0,0,0,.35.55l1.79.48a.454.454,0,0,0,.59-.26h0a.506.506,0,0,0-.33-.63h-.04l-1.3-.35-.53-.14a.482.482,0,0,0-.54.4V8.7ZM4.01,17.97c.28-.14.56-.3.83-.47a.467.467,0,0,0,.24-.61h0v-.04a.462.462,0,0,0-.62-.19H4.4l-.75.41a.507.507,0,0,1-.7-.1v-.05a.466.466,0,0,0-.8.48l.06.08a1.492,1.492,0,0,0,1.29.62,3.18,3.18,0,0,0,.53-.14h0Zm2.76-1.84a.457.457,0,0,0-.44-.47h0a.468.468,0,0,0-.48.45h0a.457.457,0,0,0,.44.47h0a.448.448,0,0,0,.45-.45h.03Z" transform="translate(0.02 -1.75)" fill="#fff"/>
</svg>
