<svg xmlns="http://www.w3.org/2000/svg" width="26.353" height="26.453" viewBox="0 0 26.353 26.453">
  <path id="menu6_img" d="M566.64,26.45c-.5-.14-1-.24-1.51-.4a46.6,46.6,0,0,1-5.42-2.26c-1.62-.75-3.22-1.51-4.82-2.31l-.16-.08c-.32-.16-.42-.38-.3-.6s.34-.26.65-.11l1.84.91c2.46,1.2,4.94,2.38,7.53,3.34.56.2,1.14.37,1.71.55a2.47,2.47,0,0,0,1.61-.08,21.807,21.807,0,0,0,3.59-1.78l.44-.26c-.62-.17-1.2-.28-1.75-.47a10.868,10.868,0,0,0-4.81-.32c-.65.06-1.29.17-1.94.26-.32.05-.53-.08-.57-.32s.14-.41.45-.47a22.084,22.084,0,0,1,5.07-.35,8.29,8.29,0,0,1,1.63.34c.81.2,1.6.42,2.42.6a1,1,0,0,0,1.11-.37,1.073,1.073,0,0,0,0-1.19,1.822,1.822,0,0,0-.43-.56,3.858,3.858,0,0,0-1.29-.81,13.674,13.674,0,0,0-3.16-.66c-.84-.09-1.68-.15-2.51-.28a2.451,2.451,0,0,1-.87-.35,16.37,16.37,0,0,0-4.85-1.96,13.664,13.664,0,0,0-4.08-.38,10.38,10.38,0,0,0-1.24.22c-.3.07-.5,0-.58-.25s.05-.42.34-.51a6.92,6.92,0,0,1,2.21-.28,16.98,16.98,0,0,1,8.09,2.21l.75.42c-.05-.44-.1-.82-.15-1.2a40.6,40.6,0,0,0-1.44-6.54c-.08-.28-.17-.56-.27-.83a.317.317,0,0,0-.19-.15,2.425,2.425,0,0,1-1.78-.85,4.864,4.864,0,0,1-1.1-2.39,13.549,13.549,0,0,1-.23-3.05V.48a.571.571,0,0,1,.22-.43.487.487,0,0,1,.44,0,2.6,2.6,0,0,1,.62.53A27.02,27.02,0,0,1,565,4.72a3.845,3.845,0,0,1,.48,2.79,2.246,2.246,0,0,1-.69,1.2.393.393,0,0,0-.11.28c.38,1.39.76,2.77,1.14,4.16.58,2.08,0,.06.05.12.22-.27.42-.51.61-.75v-.25a5.358,5.358,0,0,1-.56-1.78,2.993,2.993,0,0,1,.47-1.97,4.334,4.334,0,0,1,.59-.75,9.159,9.159,0,0,1,4.43-2.51,27.624,27.624,0,0,1,5.27-.8,9.272,9.272,0,0,1,1.39.09.534.534,0,0,1,.52.43c.05.26-.15.38-.29.56a7.285,7.285,0,0,0-.84,1.16,43.472,43.472,0,0,1-3.26,5.5,5.331,5.331,0,0,1-3.24,2.13,3.989,3.989,0,0,1-3.85-1.1l-.1-.07a2.564,2.564,0,0,0-.81,2.02c.14.91.27,1.83.41,2.74a.322.322,0,0,0,.2.21c.69.08,1.36.15,2.05.21a.815.815,0,0,0,.41-.08c.94-.49,1.87-1.01,2.82-1.51a9.242,9.242,0,0,1,1.25-.54,1.427,1.427,0,0,1,1.68.35l1.22-.71a4.575,4.575,0,0,1,2.06-.68,3.8,3.8,0,0,1,1.85.35,1.147,1.147,0,0,1,.58.66v.35a4.333,4.333,0,0,0-.27.71,1.8,1.8,0,0,1-.5,1.02,20.636,20.636,0,0,1-2.36,2.13c-1.4,1.06-2.85,2.06-4.31,3.01a26.812,26.812,0,0,1-4.52,2.48c-.55.23-1.13.38-1.69.56h-.44Zm.96-13.95a2.584,2.584,0,0,0,1.43.97,3.821,3.821,0,0,0,3.63-.84,7.246,7.246,0,0,0,1.28-1.43c.7-1.07,1.33-2.2,1.97-3.31.46-.75.9-1.58,1.34-2.37.05-.09.12-.18.21-.31h-.33a26.484,26.484,0,0,0-4.78.6,9.517,9.517,0,0,0-3.71,1.56,6.093,6.093,0,0,0-1.46,1.36,2.642,2.642,0,0,0,0,3.1c.08-.06.14-.12.21-.17.39-.29.75-.6,1.17-.87a.379.379,0,0,1,.53.05.323.323,0,0,1,.08.21.654.654,0,0,1-.23.41c-.44.35-.9.69-1.36,1.04h.02Zm-3.27-4.52.1.04a3.728,3.728,0,0,0,.31-.71,2.947,2.947,0,0,0-.38-2.15,27.451,27.451,0,0,0-2.75-3.76l-.16-.11V2.37a11.232,11.232,0,0,0,.47,4.31,2.675,2.675,0,0,0,1.13,1.51,3.173,3.173,0,0,0,.51.2,5.188,5.188,0,0,0-.28-.87.413.413,0,0,1,.13-.55h.07c.22-.08.41,0,.53.27s.21.47.32.73h0Zm10.04,13.74.29-.18c.71-.53,1.42-1.05,2.12-1.58.58-.44,1.15-.9,1.7-1.38a12.275,12.275,0,0,0,1.02-1.02,1.8,1.8,0,0,0,.17-.51,2.937,2.937,0,0,0-.51-.05,7.429,7.429,0,0,0-2.74,1.14c-.87.55-1.75,1.08-2.63,1.62l-.19.12a2.738,2.738,0,0,1,.75,1.84h.02Zm-2.2-2.71a4.155,4.155,0,0,1,.47.24.36.36,0,0,0,.44,0c.96-.59,1.92-1.15,2.88-1.75a8.854,8.854,0,0,1,2.66-1.19,11.083,11.083,0,0,1,1.14-.14v-.06c-.36-.08-.72-.15-1.08-.2a3.669,3.669,0,0,0-2.16.63,39.3,39.3,0,0,1-4.3,2.4l-.05.06Zm-1.68-.53v.11a1.565,1.565,0,0,0,.61,0c.75-.33,1.51-.69,2.26-1.05.35-.18.69-.4,1.02-.6v-.12a2.381,2.381,0,0,0-.7.11c-.75.33-1.45.68-2.18,1.04-.33.17-.64.35-.96.53h-.05Z" transform="translate(-554.377 0.003)" fill="#fff"/>
</svg>
