<svg xmlns="http://www.w3.org/2000/svg" width="26.21" height="21.7" viewBox="0 0 26.21 21.7">
  <path id="menu2_img" d="M109.31,5.73l1.39-.3,1.68-.32V2.53h1.42a15.8,15.8,0,0,1,6.53,1.68c.69.35,1.33.75,1.99,1.17a.655.655,0,0,0,.54.1,24.846,24.846,0,0,1,5.96-.63,26.732,26.732,0,0,1,6.48.85l.22.07V24.2c-.59-.14-1.16-.28-1.74-.41a24.675,24.675,0,0,0-6.53-.51,26.1,26.1,0,0,0-4.65.69.772.772,0,0,1-.37,0,24.942,24.942,0,0,0-12.92.26V5.73Zm13.87,16.56a26.249,26.249,0,0,1,10.81,0V7.17c0-.17,0-.24-.22-.27-1.03-.14-2.06-.35-3.11-.45a23.654,23.654,0,0,0-7.22.44c-.23.05-.29.14-.29.36V21.99l.02.31Zm-1.51-.45V6.99a.4.4,0,0,0-.2-.38,14.9,14.9,0,0,0-6.38-2.46c-.38-.05-.75-.08-1.17-.11v15.4a16.465,16.465,0,0,1,4,.71,15.726,15.726,0,0,1,3.76,1.7h-.02Zm-10.83.45a28.061,28.061,0,0,1,7.02-.55,14.208,14.208,0,0,0-5.48-.81V6.63c-.43.08-.83.17-1.23.23-.26,0-.32.14-.32.39V22.3ZM126.29,9.55l6.78,4.46-6.78,4.47V9.54Zm4.04,4.47-2.51-1.66v3.31l2.51-1.66Z" transform="translate(-109.31 -2.53)" fill="#fff"/>
</svg>
