<svg xmlns="http://www.w3.org/2000/svg" width="22.24" height="22.39" viewBox="0 0 22.24 22.39">
  <path id="menu3_img" d="M242.78,23V13.75h1.55V24.58h-20.8V3.68H234.3V5.27h-9.2V23.04Zm-.53-20.59c-1.03,1.03-2.07,2.06-3.1,3.1l-6.35,6.41a.518.518,0,0,0-.14.35v3.15h3.08a.657.657,0,0,0,.48-.2l7.53-7.63,1.85-1.85c.07-.06.12-.13.17-.17l-3.38-3.38a1.84,1.84,0,0,1-.17.22h.05ZM234.22,12.8a.563.563,0,0,1,.17-.26c1.33-1.34,2.67-2.67,4.01-4.01l3.84-3.89a1.135,1.135,0,0,0,.15-.23l1.17,1.18a1.444,1.444,0,0,1-.15.16l-1.9,1.9-5.95,6.02a.569.569,0,0,1-.47.2h-.87c0-.41-.01-.76,0-1.09Zm1.22,6.57h-7.93v1.51h7.93Z" transform="translate(-223.53 -2.19)" fill="#fff"/>
</svg>
