<?xml version="1.0" encoding="UTF-8"?>
<svg id="_圖層_2" data-name="圖層 2" xmlns="http://www.w3.org/2000/svg" width="88.21" height="97.02" viewBox="0 0 88.21 97.02">
  <g id="_漂浮按鈕" data-name="漂浮按鈕">
    <g id="net_zero">
      <g>
        <circle cx="44.11" cy="44.11" r="44.11" style="fill: #ff8a00; stroke-width: 0px;"/>
        <polygon points="12.95 67.75 13.61 97.02 39.86 86.56 12.95 67.75" style="fill: #ff8a00; stroke-width: 0px;"/>
      </g>
      <g>
        <g>
          <path d="m24.1,27.32c-.98-.88-2.92-2.07-4.52-2.76l.9-1.45c1.6.65,3.56,1.73,4.6,2.63l-.98,1.58Zm-3.98,10.41c1.27-1.89,3.13-5.17,4.52-7.96l1.27,1.24c-1.27,2.64-2.92,5.68-4.31,8.01l-1.47-1.29Zm5.22-17.23c-.93-.96-2.84-2.22-4.44-3.02l.96-1.4c1.6.75,3.56,1.94,4.52,2.87l-1.03,1.55Zm18.03,8.89h-2.09v3.95h-6.07v3.59c0,1.14-.23,1.63-1.01,1.91-.75.31-2.04.31-3.98.31-.1-.52-.34-1.24-.62-1.76,1.52.05,2.89.03,3.28.03.41-.03.52-.13.52-.52v-3.56h-5.86v-1.6h5.86v-2.35h-7.31v-1.68h7.31v-2.3h-5.73v-1.6h13.61v3.9h2.09v1.68Zm-1.99-12.09c-3.67,1.03-9.35,1.71-14.13,2.04-.05-.44-.28-1.09-.47-1.47,4.68-.39,10.23-1.08,13.28-1.94l1.32,1.37Zm-12.27,6.35c-.18-.9-.77-2.25-1.4-3.25l1.37-.54c.67.96,1.24,2.27,1.47,3.15l-1.45.65Zm4.86-.31c-.18-.96-.7-2.43-1.27-3.56l1.45-.44c.59,1.08,1.14,2.56,1.32,3.49l-1.5.52Zm1.24,4.37h4.37v-2.3h-4.37v2.3Zm4.37,1.68h-4.37v2.35h4.37v-2.35Zm-1.99-6.64c.7-1.06,1.6-2.82,2.04-4.03l1.76.57c-.72,1.42-1.55,2.94-2.25,3.95l-1.55-.49Z" style="fill: #fff; stroke-width: 0px;"/>
          <path d="m59.21,25.85c-.21.15-.39.31-.57.46,2.33,1.32,6.72,2.74,10.72,3.36-.39.41-.9,1.11-1.14,1.58-1.86-.36-3.77-.9-5.55-1.55v1.03h-10.41v-1.11c-1.73.7-3.49,1.32-5.11,1.78-.36-.39-1.06-1.06-1.52-1.37,4.26-1.01,8.94-2.76,11.75-4.91h-.88v-4.06h-8.19v3.15h-1.76v-4.5h9.95v-1.45h-8.45v-1.47h18.75v1.47h-8.45v1.45h9.97v4.5h-1.81v-3.15h-8.16v4.06h-.59l1.45.72Zm-10.59-.67c1.71-.28,4.11-.88,6.56-1.4l.13,1.19c-2.14.59-4.29,1.19-6.07,1.65l-.62-1.45Zm15.16,6.64l1.21.8c-1.24,1.58-3.41,3.26-5.27,4.39.83.41,1.58.78,2.14,1.06l-.8,1.42c-1.89-1.06-5.63-2.79-8.42-3.95l.8-1.19c1.34.54,2.92,1.19,4.44,1.86,1.34-.72,2.95-1.81,4.13-2.82h-13.15v-1.47h14.6l.31-.1Zm-13.72-10.41c1.65.28,3.85.83,5.01,1.21l-.52,1.19c-1.19-.41-3.38-1.01-5.01-1.34l.52-1.06Zm12.01,8.06c-1.89-.72-3.54-1.55-4.75-2.33-1.42.85-3.02,1.63-4.68,2.33h9.43Zm-2.07-5.81l.28.05-.65-.98c1.5-.26,3.75-.93,5.04-1.37l.83,1.11c-1.47.57-3.64,1.01-5.14,1.27,1.99.36,4.55,1.08,5.97,1.63l-.49,1.24c-1.47-.59-4.24-1.4-6.33-1.83l.49-1.11Z" style="fill: #fff; stroke-width: 0px;"/>
          <path d="m24.85,60.37v7.78c0,1.03-.23,1.58-.88,1.89-.62.28-1.6.36-3.2.34-.08-.44-.31-1.24-.57-1.76,1.11.03,2.12.03,2.43,0,.31,0,.44-.08.44-.46v-7.21l-3.07,1.01-.49-1.86c.98-.26,2.22-.65,3.56-1.06v-5.3h-3.23v-1.76h3.23v-5.17h1.78v5.17h2.76v1.76h-2.76v4.75c.85-.26,1.71-.54,2.56-.83l.26,1.78-2.82.93Zm7.36-13.59h1.7v10.82c0,5.14-.57,9.66-5.24,12.79-.28-.36-.93-.98-1.34-1.29,2.4-1.58,3.64-3.51,4.29-5.73-1.45.54-2.89,1.06-4.16,1.52l-.75-1.68c1.42-.36,3.31-.96,5.27-1.6.16-1.06.21-2.17.23-3.33h-4.06v-1.73h4.06v-3.62h-4.24v-1.76h4.24v-4.39Zm11.16,17.1h-4.93v6.46h-1.83v-23.56h1.83v4.39h4.49v1.76h-4.49v3.62h4.24v1.73h-4.24v3.85h4.93v1.76Z" style="fill: #fff; stroke-width: 0px;"/>
          <path d="m55.98,56.18s0,.62-.03.88c-.18,8.45-.36,11.29-1.01,12.19-.41.54-.85.75-1.52.83-.65.08-1.68.08-2.76,0-.05-.52-.23-1.27-.52-1.78,1.06.1,2.01.13,2.43.13.34,0,.57-.08.75-.36.44-.57.62-3.05.77-10.13h-3.49v.18c0,4.24-.52,8.6-3.93,12.25-.34-.41-.96-.93-1.42-1.24,3.13-3.33,3.51-7.39,3.51-11.03v-5.35h-3.05v-1.78h11.39v1.78h-6.51v3.44h5.37Zm-4.75-5.42c-.23-.96-.83-2.43-1.32-3.51l1.65-.49c.54,1.08,1.14,2.51,1.4,3.44l-1.73.57Zm16.15,2.61c-.65,4.16-1.71,7.54-3.31,10.33,1.4,2.2,3.15,3.93,5.43,4.99-.44.39-1.03,1.11-1.34,1.65-2.17-1.14-3.9-2.82-5.24-4.91-1.55,2.04-3.56,3.69-6.12,5.01-.18-.44-.75-1.27-1.11-1.68,2.69-1.24,4.7-2.95,6.2-5.12-1.06-2.09-1.86-4.52-2.51-7.18-.54,1.19-1.19,2.25-1.86,3.2-.31-.39-1.06-1.11-1.5-1.45,2.09-2.71,3.51-7.03,4.31-11.44l1.94.31c-.31,1.52-.65,3.05-1.06,4.5h8.06v1.78h-1.89Zm-6.74,0c-.05.08-.08.18-.1.26.54,3.02,1.32,5.79,2.45,8.14,1.21-2.32,1.99-5.09,2.48-8.4h-4.83Z" style="fill: #fff; stroke-width: 0px;"/>
        </g>
        <g>
          <path d="m24.1,27.32c-.98-.88-2.92-2.07-4.52-2.76l.9-1.45c1.6.65,3.56,1.73,4.6,2.63l-.98,1.58Zm-3.98,10.41c1.27-1.89,3.13-5.17,4.52-7.96l1.27,1.24c-1.27,2.64-2.92,5.68-4.31,8.01l-1.47-1.29Zm5.22-17.23c-.93-.96-2.84-2.22-4.44-3.02l.96-1.4c1.6.75,3.56,1.94,4.52,2.87l-1.03,1.55Zm18.03,8.89h-2.09v3.95h-6.07v3.59c0,1.14-.23,1.63-1.01,1.91-.75.31-2.04.31-3.98.31-.1-.52-.34-1.24-.62-1.76,1.52.05,2.89.03,3.28.03.41-.03.52-.13.52-.52v-3.56h-5.86v-1.6h5.86v-2.35h-7.31v-1.68h7.31v-2.3h-5.73v-1.6h13.61v3.9h2.09v1.68Zm-1.99-12.09c-3.67,1.03-9.35,1.71-14.13,2.04-.05-.44-.28-1.09-.47-1.47,4.68-.39,10.23-1.08,13.28-1.94l1.32,1.37Zm-12.27,6.35c-.18-.9-.77-2.25-1.4-3.25l1.37-.54c.67.96,1.24,2.27,1.47,3.15l-1.45.65Zm4.86-.31c-.18-.96-.7-2.43-1.27-3.56l1.45-.44c.59,1.08,1.14,2.56,1.32,3.49l-1.5.52Zm1.24,4.37h4.37v-2.3h-4.37v2.3Zm4.37,1.68h-4.37v2.35h4.37v-2.35Zm-1.99-6.64c.7-1.06,1.6-2.82,2.04-4.03l1.76.57c-.72,1.42-1.55,2.94-2.25,3.95l-1.55-.49Z" style="fill: #fff; stroke-width: 0px;"/>
          <path d="m59.21,25.85c-.21.15-.39.31-.57.46,2.33,1.32,6.72,2.74,10.72,3.36-.39.41-.9,1.11-1.14,1.58-1.86-.36-3.77-.9-5.55-1.55v1.03h-10.41v-1.11c-1.73.7-3.49,1.32-5.11,1.78-.36-.39-1.06-1.06-1.52-1.37,4.26-1.01,8.94-2.76,11.75-4.91h-.88v-4.06h-8.19v3.15h-1.76v-4.5h9.95v-1.45h-8.45v-1.47h18.75v1.47h-8.45v1.45h9.97v4.5h-1.81v-3.15h-8.16v4.06h-.59l1.45.72Zm-10.59-.67c1.71-.28,4.11-.88,6.56-1.4l.13,1.19c-2.14.59-4.29,1.19-6.07,1.65l-.62-1.45Zm15.16,6.64l1.21.8c-1.24,1.58-3.41,3.26-5.27,4.39.83.41,1.58.78,2.14,1.06l-.8,1.42c-1.89-1.06-5.63-2.79-8.42-3.95l.8-1.19c1.34.54,2.92,1.19,4.44,1.86,1.34-.72,2.95-1.81,4.13-2.82h-13.15v-1.47h14.6l.31-.1Zm-13.72-10.41c1.65.28,3.85.83,5.01,1.21l-.52,1.19c-1.19-.41-3.38-1.01-5.01-1.34l.52-1.06Zm12.01,8.06c-1.89-.72-3.54-1.55-4.75-2.33-1.42.85-3.02,1.63-4.68,2.33h9.43Zm-2.07-5.81l.28.05-.65-.98c1.5-.26,3.75-.93,5.04-1.37l.83,1.11c-1.47.57-3.64,1.01-5.14,1.27,1.99.36,4.55,1.08,5.97,1.63l-.49,1.24c-1.47-.59-4.24-1.4-6.33-1.83l.49-1.11Z" style="fill: #fff; stroke-width: 0px;"/>
          <path d="m24.85,60.37v7.78c0,1.03-.23,1.58-.88,1.89-.62.28-1.6.36-3.2.34-.08-.44-.31-1.24-.57-1.76,1.11.03,2.12.03,2.43,0,.31,0,.44-.08.44-.46v-7.21l-3.07,1.01-.49-1.86c.98-.26,2.22-.65,3.56-1.06v-5.3h-3.23v-1.76h3.23v-5.17h1.78v5.17h2.76v1.76h-2.76v4.75c.85-.26,1.71-.54,2.56-.83l.26,1.78-2.82.93Zm7.36-13.59h1.7v10.82c0,5.14-.57,9.66-5.24,12.79-.28-.36-.93-.98-1.34-1.29,2.4-1.58,3.64-3.51,4.29-5.73-1.45.54-2.89,1.06-4.16,1.52l-.75-1.68c1.42-.36,3.31-.96,5.27-1.6.16-1.06.21-2.17.23-3.33h-4.06v-1.73h4.06v-3.62h-4.24v-1.76h4.24v-4.39Zm11.16,17.1h-4.93v6.46h-1.83v-23.56h1.83v4.39h4.49v1.76h-4.49v3.62h4.24v1.73h-4.24v3.85h4.93v1.76Z" style="fill: #fff; stroke-width: 0px;"/>
          <path d="m55.98,56.18s0,.62-.03.88c-.18,8.45-.36,11.29-1.01,12.19-.41.54-.85.75-1.52.83-.65.08-1.68.08-2.76,0-.05-.52-.23-1.27-.52-1.78,1.06.1,2.01.13,2.43.13.34,0,.57-.08.75-.36.44-.57.62-3.05.77-10.13h-3.49v.18c0,4.24-.52,8.6-3.93,12.25-.34-.41-.96-.93-1.42-1.24,3.13-3.33,3.51-7.39,3.51-11.03v-5.35h-3.05v-1.78h11.39v1.78h-6.51v3.44h5.37Zm-4.75-5.42c-.23-.96-.83-2.43-1.32-3.51l1.65-.49c.54,1.08,1.14,2.51,1.4,3.44l-1.73.57Zm16.15,2.61c-.65,4.16-1.71,7.54-3.31,10.33,1.4,2.2,3.15,3.93,5.43,4.99-.44.39-1.03,1.11-1.34,1.65-2.17-1.14-3.9-2.82-5.24-4.91-1.55,2.04-3.56,3.69-6.12,5.01-.18-.44-.75-1.27-1.11-1.68,2.69-1.24,4.7-2.95,6.2-5.12-1.06-2.09-1.86-4.52-2.51-7.18-.54,1.19-1.19,2.25-1.86,3.2-.31-.39-1.06-1.11-1.5-1.45,2.09-2.71,3.51-7.03,4.31-11.44l1.94.31c-.31,1.52-.65,3.05-1.06,4.5h8.06v1.78h-1.89Zm-6.74,0c-.05.08-.08.18-.1.26.54,3.02,1.32,5.79,2.45,8.14,1.21-2.32,1.99-5.09,2.48-8.4h-4.83Z" style="fill: #fff; stroke-width: 0px;"/>
        </g>
      </g>
    </g>
  </g>
</svg>