<?xml version="1.0" encoding="UTF-8"?>
<svg xmlns="http://www.w3.org/2000/svg" width="128.25" height="49.62" xmlns:xlink="http://www.w3.org/1999/xlink" viewBox="0 0 128.25 49.62">
  <defs>
    <clipPath id="clippath">
      <path d="m113.3,13.82s-.33-4.07-3.37-4.51c-2.98-.43-5.21.24-6.19,2.9-.98,2.66-.18,4.21.61,4.7s7.67,0,7.67,0c0,0,1.53.93,1.28-3.09Z" style="fill: #ce3c09;"/>
    </clipPath>
    <clipPath id="clippath-1">
      <path d="m42.8,11.4c-.77,0-2.64-.09-3.37.94s-1.11,4.57-.9,5.19c.21.63.85.63,1.62.58.77-.04,1.75-.74,1.75-.74l5.03-3.01s-1.02-2.61-1.96-2.83-2.17-.13-2.17-.13Z" style="fill: #ce3c09;"/>
    </clipPath>
  </defs>
  <g style="isolation: isolate;">
    <g id="_圖層_2" data-name="圖層 2">
      <g id="_第一cut" data-name="第一cut">
        <g>
          <ellipse id="floor" cx="63.23" cy="47.22" rx="63.23" ry="2.39" style="fill: #b589b6; mix-blend-mode: multiply; opacity: .2;"/>
          <g id="earth">
            <g>
              <circle cx="69.71" cy="23.06" r="23.06" transform="translate(35.68 88.12) rotate(-80.69)" style="fill: #dcebed;"/>
              <path d="m84.23,10.75c.64.31.9.75,1.12.02.02.38-.19.53.2.69-.62.69.28,1.06.73,2.22-.18-.33.42.53.33.76-.11-.08-.26-.52-.17-.16-.14-.11.02.14-.03.2-.1,0-.08-.15-.13-.18.02.46-.28-.14-.24.49-.04.18-.14.04-.17,0-.26-.37.18.42-.16.26.01.5-.17.01-.44,0,.77-.47.09-.95-.39-.32.34.13.78,1.02.5,1.06-.27-.4-.68-.57-.69-1,.06-.17.36-1.03.91-.71-.55-1.03.65-.58-.55-1.99.19.1.34.26.07-.07,0,.04-.03.06-.12.02,0,0-.66-.33-.29-.54-.27-.15-.26-.55-.49-.75Zm-23.61-7.59s.58-.29.59-.24c0,.02,0,.06-.16.15.02.04.32-.04.37-.04.06-.13-.07-.16-.15-.21-.05,0,.86,0,.73-.24-.56-.02-.7.11-.99.26-.02-.15-.24-.1-.34.01.03-.09-.08.03-.06.05.07-.02.23-.06.34-.02-.5.2-.54.17-.33.26Zm-5.49,2.05c1.91-1.15,1.96-1.2,3.66-2.16.08-.03.18-.09,0-.03.4-.17,2.06-.79.64-.37.08-.18.79-.13.55-.37-.96.18-2.49,1.18-3.88,2.16-.54.39-1.06.81-1.56,1.25.2-.19,1.08-.88.59-.48Zm29.12,5.29c.06-.09-1.27-1.02-.56-.8-.42-.64-1.41-.88-1.89-1.54-1.09-.63,1.45,1.41,1.7,1.84,1.05,1.07-.04-.05.76.5Zm-20.79-6.4c1.29.54-.43-.54,1.99-.87-.19-.36-2.13.4-1.99.87Zm20.7,10.28s0,0,0,.01c0,0,0-.01,0-.01Zm-30.58-6.08s-.61.36-.43.57c.09,0,.24-.12.09,0,.62-.23.36.09.75-.32.14-.17-.03-.12-.1-.13.19-.18.34-.61.37-.85.1-.1.93-.71.28-.43q.29-.22.37-.3c-.17.17-.67.44-.51.25.09-.07.34-.34.05-.11-.33.32-.3.24-.09.13-.17.18-.18.21,0,.09,0,0-.34.29-.36.31,0,0,.2-.11.27-.17-.04.05-.53.42-.28.25-.11.11-.18.25.11-.02-.29.37-.05.43-.51.72Zm31.85,1.99s-.03-.11-.05-.12c-.01.04,0,.13.05.12Zm-1.25,4.12s0,0,0-.01c0,0,0,0,0,.01Zm-29.75-8.61s.09-.08.11-.1c-.05.04-.09.08-.11.1Zm13.3-3.04c.07-.04.16-.03.3-.05-.5.1.79.43.59.13-.17-.13-.7-.35-.97-.14.34.05-.12-.02.07.07Zm5.83.62c.17-.01.74.19.97.1-.16-.04-1.32-.41-.97-.1Zm-4.72-.36c.26,0,.39-.05.5-.1-.13-.21-.83-.15-.5.1Zm6.42.44c-.18-.17-.46-.2-.69-.11.14.01.63.25.69.11Zm9.8,6.05s-.08-.12-.11-.13c0,.02.07.13.11.13Zm.19.37s-.02-.02-.04-.03c0,.03.03.04.04.03Zm.17.6s-.06,0-.05.06c-.01-.03-.01,0,.05.12.03-.02.06-.06,0-.18Zm-.11-.49s-.03-.05-.03-.05c0,0,.02.04.03.05Zm-21.06-7.31c.44.02.28.04.93-.11-.08.08,0,.09.04.02.06-.12-.24,0-.11-.1-.31.05-.07.09-.49.15-.13.05.15-.07-.13-.05.08-.05.24.02.3-.04-.03-.02-.2-.06-.21-.06-.11.12-.34.12-.51.15,0,.1.25.03.19.05Zm20.87,6.95c-.03-.05-.04-.02,0,.05,0-.01,0-.03,0-.05Zm-1.9,31.83c-.49.28.22-.13-.05-.04-.61.47-1.96.96-2.37,1.34.21.04,1.95-.96,2.42-1.3Zm-.22.17c.71-.36,1.15-.73,1.64-1.19.02,0-1.65,1.22-1.64,1.19Zm2.15-1.7c-.19.16-.36.34-.55.5.03,0,.61-.53.55-.5Zm-2.96-34.58s0,0,0,0c0,0,0,0,0,0Zm0,0s0,0,0,0c0,0,0,0,0,0Zm-29.42,3.47s.04-.02.07-.03c.05.01.93-.71.88-.97-.21-.03-1.3,1.11-.95,1.01Zm28.8,31.39s0,0,0,0c0,0,0,0,0,0Zm4.74-2.87s.02-.03.04-.04c-.01.01-.02.03-.04.04Zm-1.65,3.07s-.07.06-.1.1c.05-.04.08-.07.1-.1Zm-3.48,1.08c-.41-.1-.85.38-1.17.64.3.01,1-.58,1.17-.64Zm-19.58-24.24c.07.01.09,0,.09,0,0-.03-.09-.03-.09,0Zm-5.55-3.67s0,0,0,0c0,0,0,0,0,0Zm-3.32-1.36c-.02.12-.3.82-.15.73.07-.03.53-.72.39-.78.01-.04-.26.17-.23.06Zm-2.56.72s0,0,0,0c0,0,0,0,0,0Zm2.77-.85s.33-.5.29-.57c-.14.1-.28.36-.27.37-.05.1-.05.15-.02.2Zm31.6,11.95c-.01-.89-.35.55-.54.61-.49.76.59-.18.54-.61Zm1.3,3.77c-.29-.31-1.61.03-1.54.79-.75.94-.64,3.19.09.84.15.06-.11.96.26.73-.22.62.25.12.21-.18-.21.14-.15-.69-.23-.93.21.27.33-.37.59-.44-.28-.05-.56.11-.84-.02-.2-.25.58-.55.86-.42.41.08.5-.22.6-.38Zm-.71-4.32s0,0,0,0c0,0,0,0,0,0Zm.1,5.14s-.01,0-.02,0c0,0,.01,0,.02,0Zm-.14-4.55c.05.12.27-.08.27-.08.22-.14-.24-.45-.23-.51,0,.14-.09.49-.04.59Zm-.69,7.42c.14.03.11.06-.02.08.14.08.45-.01.47-.12-.4.04-.82-.05-1.2.02-.32.09-.56.21-.67.08-.26.07-.24-.08-.36-.12-.12.04-.04.14.08.3.57-.04,1.19-.02,1.7-.23Zm-2.61-.41s0,0,0,0c0,0,0,0,0,0Zm-1.06.2s.05,0,.05,0c0,0-.12-.02-.05,0Zm4.64.19c-.49-.1-1.08.67-1.13.79.21-.03,1.06-.61,1.13-.79Zm-2.4-1.71c.23-.09-.02.28.2-.07.02-.67.71-1.12.71-1.75.57.4,0-.84-.13-1.05.15.02.23-.12.16-.31.17.13.22-.11.17-.21.41-.49.26-.42-.15-.42.13-.63-.53-.56-.7.54,0-.08-.02-.1-.07-.15-.14.29-.09.44-.32.13-.13.37-.74.88-.83.75-.19,1.09-.75-.39-.76.96.02-.02.21,1.96.6,1.25.04.23.55.26.7.18-.08.33.27.2.42.13Zm-.81-10.53s-.02.03,0,0c0,0,0,0,0,0Zm1.84-.8c.36-.86-.03.62.06.82-.24-.24-.32-.36-.06-.82Zm-.03.71s-.05-.05-.04-.03c0,0,.03.03.04.03Zm0-.01s-.01-.01-.02-.01h.02Zm.16.21s-.06-.08-.07-.09c.01.03.03.06.07.09Zm-4.29,8.46s0,0,0,0c0,0,0,0,0,0Zm-2.73-6.14c-.26-.1-.46.33-.56.04-.16-.21-.2-.53-.22-.68-.15-.79-.84-1.27-1.19-1.96-.3-.05-.17.33-.33.41-.09-.31-.58.25-.64-.15-2.2,2.46-1.94,1.97-2.56,5.23-.86,1.86-3.01-4-2.6-5.3-.06.11-.09.64-.53.59-.39-.06-.32-.52-.59-.67.27-.03.3-.11.34-.19-.4.19-1.41-.85-1.32-1.01-.87-.47-1.87.3-2.73-.27-.44-.46-1.06-.17-1.58-.36-.6-.26-.68-1.79-1.5-.92.3.06.72,1.53.94,1.83,1.59,1.07,1.6-1.69,1.88.21,1.59.73.64,1.58-1.04,3.13-4.17,3.99-3.77-1.47-5.26-4.06-.24-.72-.21-1.55-.39-.42-.54-1.38-.85-.48-.13.83.39.19.96,3.9,1.94,4.55.37.29,1.09.79.45,1.17q1.08.41,1.35.33c2.32-1.07,1.82.48-.57,3.98-2.59,4.21-.15,3.62-.15,5.97.04.68-.73.8-.92,1.33-.24.68.6,1.09.45,1.75-.75.89.51.6-.15,2.16-1.28,2.96-5.23-3.97-5.77-4.47-.39-.74-.27-1.62-.63-2.37,0-.01-.83-1.4-.66-1.74-.54-.27-1.62-1.58-1.2-2.32-.5-.41.09-2.13-.92-1.64-1.33-1.86-1.84.99-2.55-.68-1.43-2.38-.06-9.43,1.68-11.18.66-1.12.48-.22,1.33-.82.93-.53.23-.28,1.63-.44.62-.03-.28.92-.25,1.25.09.6,1.51,1.72,1.77.86.12-.4.27-.48.38-.48,1.08.34,1.13.81,2.41.45.39.57,1.04-.5,1.18-.83,1.06-1.94-.96-.63-1.7-1.1-.05-.13-.26-.26-.08-.59-.26-.28.11-.53.07-.8-.17-.17-.69-.17-.52.19-.25-.01-.19.2-.32-.08-.06.43.36,1.01-.19.89,0,.79-.71.34-.27-.14-.32.08-.23-.74-.2-.76.11-.52-.46-.99-.24-1.49-.25-.28-.68.17-.57.58-.03.4,1.04,1.24.14,1.03.12.2-.34,1.04-.81.98-.16-.28.36-.28.5-.47.42-.59-.2-1.65-.21-1.66-.93-.39-1.36.31-2.31,1.56-.63,1.32-1.66,1.02-1.03-.01.72-1.52.73-1.51,1.35-1.49.36,0,1.1-1,.83-1.55.14-.12.27-.11.48-.2.31-.47,2.18-1.71,2.27-1.51.24-.31.63-1.04.99-1.01-.1.17-.54.54-.38.52-.18.31-.34-.02-.23.35.12,0,.39-.1.38.11,1.25.22,1.53-1.28,1.98-.9.66-.5.02-.68,1.41-.7-.02-.11-.1-.15-.18-.22-.77.13-.8.16-.91.07.2-.36.31-.37,1.14-1.08-.4-.25-.41.07-.53.18-1.28.51-1.06.81-1.16,1.06-1.29,1.1-1.49,1.31-1.6,1.05-.49.49-.37.35-.21.02.33.07.66-.75.68-.98-.33.3-.85.55-.57,0,.65-.91,2.07-1.24,2.81-1.94-.46-.04,1.02-.38,1.28-.39.08-.19.6-.28.23-.04.18-.08.41-.13.45-.12-.17.01.37.06-.06.15.43.08,1.05.26,1.13.42-.05.66-.82.3-1.14.25.15.64.19.67.34.58-.11-.48,1.35-.29,1.22-.87-.08-.24.47-.16.33.08-1.15.62,1.61-.57.99-.09.89-.13,1.27,0,.75-.39,1.75.44,1.18.6,1.1-.12.69-1.25,1.25.68.58.89.66-.05.53-.31.54-.45.27-.13.42.15.63.21-.31-.31-1.2-.53-.74-1,.12.04.06.22.11.3.03.07.74.11.13-.13.12.06.19-.07.08-.09.16.11,1.19.13.29-.15,1.25,0,.19-.44,1.36-.4.42-.21.37.13.99-.28,1.03-.15,2.47,1.22,3.19.64.89.54,1.56.3,2.42.4-.28-.08.03-.09.14-.06-.04-.05-.32-.08-.21-.18,1.04-.08,1.08-.03,1.38.21,1.13.4,2.71.05,3.54.49-.36-.16-.46-.2-.4-.26,1.32,0,3.29.65,3.7,1.21-.48.26-.83-.3-1.18-.35.17.31,1.68.88.99.76.42.92.11.43-.43.57.58.78.92.51,1.72,1.43,0,.23.07.17.33.46-.08.12.52.88.26.72-.34-.94-2.06-1.3-2.34-2.15-.32-.98-1.45-1.27-.65-.79-.06.53-.59-.43-.8-.09,0,.16.08.17.63.68-.19.29-.62.05-.42-.03-.06-.02-.13-.02-.19-.02-.38.09-.84-.26-1.18.05-.71.78,1.23,2.02.46,1.04.04.02.82.76.53.22,1.45.12,2.97,2.99,2.44,3.59-.15.07-.37-.16-.44-.16.16.35.03.96.25,1.46.47.45,1.38.87.87,1.58-.49.22-.84-1.03-.62-.84-.03-.35-.53-.32-.8-.46.05-.25-.29-.52-.57-.56-.22,0-.17.55-.46.34-.14-.24-.03-.71-.45-.66-1.25.96.4,1.05,1.08,1.21-1.07.97,2.01,2.61.61,1.92-.06-.07.56.37.38.68.99.23.05,1.08.4,1.83h0c.14.43-1.13,1.47-1.45,1.05.1.2.11.23-.12.53,0,0-.55-.43-.66.53.44.23.17,1.11-.33,1.04.23-.45.07-1.09.26-1.03,0-.11,0-.37-.16-.44-.09-.04-1.09.05-1.02.61.13,1.05,1.26,1.56,1.41,2.61.05.37-.1,1.65-.65,1.24.13.35-.79,1.28-.52.61-.2-.82-1.12-1.08-1.42-1.83-1.02,1.13-.3,1.98.37,2.72.49.66.22,1.61.69,2.23-1.13.63-1-3.13-1.81-2.56-.09-.33-.12-.46-.05-1.04.12-1.59-.52-3.51-.87-2.54Zm-15.88-10.44q.06.03.14,0c-.49.45.5.87.58,1.24-1.07.52.14,1.65.95,1.18.33-1.68-1.18-2.53-.61-2.63q-.07-.16.42-.26c-.08-.06-.09-.08-.05-.24.03-.75-.9.03-1.19.18-.17-.12-.24.35-.24.54Zm-2.68-.74c-.09.15.09.18.55.26.04-.11.11-.28.23-.24.02-.11-.15-.09-.12-.2,1.04-.29-.67-.1-.66.18Zm.52,1.76c1.61-.25.13-1.69-1.08-1.35q-.02-.08.29-.35c-.27-.2-.48-.13-.7-.14-.23.22-.66,1.05-.97,1.27.14.06.21.39.35.44.99-.24,1.12-.4,2.1.12Zm13.38,12.61c-.06,0-.04.13-.02.11-.01-.03.07-.08.02-.11Zm7.4,2.95s0,0,0,0c0,0,0,0,0,0Zm-7.45-2.86c.07.56-.03,1.52-.46.97-.23-.38.25-1.28-.05-1.5.04-.19.65.24.51.53Zm-.33-.44c-.04-.06-.07-.03-.07-.03-.01.02.03.04.07.03Zm15.02,4.91s0,0,.01,0c0,0,0,0-.01,0Zm.93,3c-.41.37-1.45,3.4-1.85,1.85q-.01-.22.65-1.45s-.04.04-.17.16c.08-.44.1.18-.63-.43-.42.9-.8.29-1.11,1.43-.28-.03-.4-.16-.57-.45-.17.22-1.1.89-1.17,1.23.09-.5-.07-.35-.54.17-.06.29-2.78,1.69-2.46,1.25-.74.39-.74,1.11-.96,1.51-.38.29-.47,1.74-1.32,2.25,0,.73,5.25-2.23,3.5.14,1.03-.73,1.13-.57.05.07.13-.02.17-.05.52-.3-.08.06-.79.78-.89,1.11,1.4.39,5.27-3.41,5.16-3.56.8-1.04,1.35-3.95,1.77-4.99Zm-3.63-11.65s0,0,0,0c0,0,0,0,0,0Zm.81,4.76s-.03.03-.04.04c.02-.02.03-.03.04-.04Zm.97.04c.01.23.02.24.06.28.05-.25.21-.89-.14-1.45.04-.04.04-.01.02-.28-.09.32-.14.29-.17-.31.3.09.09-.71-.21-.54q-.14-.49-.2-.5c-.04.11-.38-.33-.43,0-.08-.9.3-1.69-.71-1.95,0,.33-.09,2.11.25,1.63.28.25-.3.49.27.92.16-.19-.03-.4-.15-.51.12-.07.25,0,.31.12.09-.24.22.11.38.21-.03-.13-.09-.17-.11-.18,0-.34.37.21.38.27-.08.1-.03.14.17.45-.15.1-.06-.03-.11-.11-.17.2.07.66.26.96-.19.74-.77.12-.85.98.11-.14.14-.21.15-.24.11.14.39-.11.39.08-.18.59.26.9.42.21Zm-.87-.97c.17-.02.36-.7.15-.71-.11.09-.24.71-.15.71Zm.14-1.12c.1-.47.26-.16.22.13-.06-.16-.16-.16-.25-.06,0-.03,0-.13.02-.07Zm.02,0s0,0,0-.01h0Zm-1.08-2.71s0,0,0,0c0,0,0,0,0,0Zm-11.95,4.26s-.05-.17-.03-.06c.01.02.02.04.03.06Zm-9.62,8.9c-.1-.13-.08-.17-.09.32-.36-.24.24,3.28-.6,3.22-.86,0-.73-2.48-.82-2.75.76-.71,1.08-2.93,1.51-.8Zm-.04-.09s-.01-.03-.02-.05c0,.02.01.03.02.05Zm21.62-13.05v-.02s0,.01,0,.02Z" style="fill: #fff;"/>
              <path d="m48.48,25.62c0-12.74,10.33-23.06,23.06-23.06,7.16,0,13.56,3.26,17.79,8.39-4.06-6.57-11.33-10.95-19.63-10.95-12.74,0-23.06,10.32-23.06,23.06,0,5.57,1.98,10.69,5.27,14.67-2.18-3.52-3.43-7.67-3.43-12.11Z" style="fill: #fff; opacity: .31;"/>
              <path d="m90.27,12.61c.56,1.99.86,4.08.86,6.25,0,12.74-10.32,23.06-23.06,23.06-8.97,0-16.75-5.12-20.56-12.61,2.72,9.7,11.63,16.81,22.2,16.81,12.74,0,23.06-10.32,23.06-23.06,0-3.76-.9-7.32-2.5-10.45Z" style="fill: #cadbde;"/>
            </g>
          </g>
          <g id="s">
            <g>
              <path d="m99.34,15.12l.52-.12-.45-.47c.18-1.14.58-1.93.58-1.93,1.25,1.61,1.77,3.02,1.93,4.17-.32.12-.66.26-.66.26l.71.24c.1,1.71-.59,2.73-.56,2.78-1.85-1.52-2.18-3.42-2.06-4.93Z" style="fill: #4c797f;"/>
              <path d="m102.5,22.01s-.03,0-.04-.02c-.83-.98-1.5-2.86-2.01-5.59-.38-2.03-.51-3.79-.51-3.81,0-.03.02-.05.05-.06.03,0,.05.02.06.05,0,.02.14,1.77.51,3.8.5,2.67,1.18,4.58,1.98,5.54.02.02.02.05,0,.07,0,0-.02.01-.03.01Z" style="fill: #10171b;"/>
            </g>
            <g>
              <path d="m98.12,17.23l.25-.33c-.14-.16-.27-.3-.41-.43l-.35.29s.09-.2.19-.43c-.53-.45-.99-.66-1.01-.64-.24,3.64,2.66,4.03,2.66,4.03,0-1.03-.37-1.86-.82-2.49h-.51Z" style="fill: #9abbc0;"/>
              <path d="m101.98,20.93s-.01,0-.02,0l-1.41-.53c-.88-.33-1.63-.96-2.1-1.77l-1.7-2.91s0-.06.02-.07c.02-.01.06,0,.07.02l1.7,2.91c.46.79,1.19,1.41,2.05,1.73l1.41.53s.04.04.03.07c0,.02-.03.03-.05.03Z" style="fill: #10171b;"/>
            </g>
            <g>
              <g>
                <path d="m121.72,27.5s-2.39,1.02-2.58,2.89c0-.1,4.64-3.03,6.7-1.83-.09-.06-2-1.97-4.12-1.06Z" style="fill: #10171b;"/>
                <path d="m127.58,29.13c-.63-1.07-1.75-1.66-2.97-1.91-1.63-.33-2.88.29-2.88.29,1.44.35,2.7,1.13,3.72,1.96.35-.04.68-.12.68-.12l-.3.43c1.44,1.27,2.3,2.54,2.36,2.55.24-1.29-.11-2.39-.59-3.21Z" style="fill: #4c797f;"/>
                <path d="m116.78,36.36s0,0-.01,0c-.03,0-.05-.03-.04-.06.76-3.18,1.84-5.16,2.61-6.27.84-1.2,1.5-1.64,1.52-1.66.02-.02.06,0,.07.01.02.02,0,.06-.01.07,0,0-.67.45-1.5,1.64-.77,1.1-1.84,3.07-2.59,6.23,0,.02-.03.04-.05.04Z" style="fill: #10171b;"/>
                <path d="m128.17,32.39s-.05-.02-.05-.04c-.44-2.05-1.66-3.35-2.61-4.07-1.03-.79-1.97-1.09-1.98-1.09-.03,0-.04-.04-.03-.06,0-.03.04-.04.06-.03,0,0,.96.31,2.01,1.1.61.47,1.14,1.01,1.56,1.61.53.75.89,1.6,1.09,2.52,0,.03-.01.06-.04.06,0,0,0,0-.01,0Z" style="fill: #10171b;"/>
              </g>
              <g>
                <path d="m122.76,32.6l.21.44c.24-.06.46-.12.66-.2l-.11-.52s.16.2.34.43c.75-.31,1.21-.67,1.2-.7-3.64-2.2-5.59.59-5.59.59,1.07.54,2.12.62,3.01.49l.27-.53Z" style="fill: #9abbc0;"/>
                <path d="m116.92,34.69s-.03,0-.04-.02c-.02-.02-.02-.05,0-.07l1.31-1.18c.81-.73,1.86-1.17,2.96-1.22l3.92-.19s.05.02.05.05c0,.03-.02.05-.05.05l-3.92.19c-1.07.05-2.1.48-2.89,1.2l-1.31,1.18s-.02.01-.03.01Z" style="fill: #10171b;"/>
              </g>
            </g>
            <path d="m95.87,38.21l7.75-1.39c.65,2.19,2.32,3.29,5.01,3.29,2.1,0,3.14-.56,3.14-1.67,0-.58-.24-1.04-.73-1.36-.48-.32-1.35-.61-2.6-.86-4.77-.91-7.83-2.1-9.18-3.57-1.35-1.47-2.03-3.2-2.03-5.2,0-2.56.97-4.69,2.92-6.39,1.94-1.7,4.74-2.55,8.39-2.55,5.54,0,9.19,2.22,10.97,6.65l-6.89,2.09c-.72-1.81-2.18-2.71-4.39-2.71-1.83,0-2.74.56-2.74,1.69,0,.5.21.89.62,1.17.41.28,1.21.54,2.39.79,3.25.68,5.57,1.29,6.94,1.81,1.37.53,2.51,1.43,3.42,2.71s1.37,2.79,1.37,4.53c0,2.75-1.11,4.97-3.34,6.68-2.23,1.7-5.15,2.56-8.77,2.56-6.62,0-10.7-2.76-12.26-8.28Z" style="fill: #9abbc0;"/>
          </g>
          <g id="w">
            <g>
              <g>
                <path d="m95.37,45.29s.12.24.23.49c.86-.06,1.45-.26,1.43-.29-1.85-3.16-6.01-1.42-6.01-1.42,1.22,1.45,2.94,1.75,4.23,1.73l.12-.5Z" style="fill: #9abbc0;"/>
                <path d="m97.03,45.53s-.01,0-.02,0c-.01,0-1.2-.5-2.71-.93-1.56-.44-3.17-.58-4.79-.43l-7.9.73s-.05-.02-.06-.05c0-.03.02-.05.05-.06l7.9-.73c1.63-.15,3.25,0,4.82.44,1.52.43,2.71.92,2.72.93.03.01.04.04.03.07,0,.02-.03.03-.05.03Z" style="fill: #10171b;"/>
              </g>
              <g>
                <path d="m94.54,34.51l.85.59-.09-.68c1.09.01,2.51.64,4.36,2.31-.12-.1-5.21-1.65-7.83,2,0,0,.45-3.58,2.72-4.22Z" style="fill: #10171b;"/>
                <path d="m87.32,46.13s-.02,0-.02,0c-.03-.01-.04-.04-.02-.07.62-1.24,1.57-2.85,2.8-4.77,1.04-1.62,1.92-2.88,1.93-2.89.02-.02.05-.03.07-.01.02.02.03.05.01.07,0,.01-.88,1.27-1.92,2.89-1.23,1.92-2.18,3.52-2.8,4.76,0,.02-.03.03-.05.03Z" style="fill: #10171b;"/>
                <path d="m91.82,38.72s4.58-3.26,9.03-.77c-.09-.07-4.22-5.91-9.03.77Z" style="fill: #4c797f;"/>
              </g>
              <g>
                <path d="m95.87,38.65l.3.57.41-.67c1.4-.15,2.45.06,2.45.06-1.49,1.97-2.98,3.03-4.28,3.58-.24-.33-.52-.69-.52-.69l-.06.91c-1.98.65-3.39.17-3.44.22,1.2-2.65,3.33-3.64,5.13-3.98Z" style="fill: #4c797f;"/>
                <path d="m88.84,44.57s-.02,0-.03,0c-.02-.02-.03-.05-.01-.07.49-.7,1.33-1.45,2.51-2.23.94-.62,2.08-1.25,3.41-1.89,2.26-1.08,4.28-1.8,4.3-1.81.03,0,.06,0,.07.03,0,.03,0,.06-.03.07-.02,0-2.04.72-4.29,1.8-2.98,1.43-5.01,2.84-5.88,4.08-.01.01-.03.02-.04.02Z" style="fill: #10171b;"/>
              </g>
            </g>
            <path d="m96.05,18.92l-7.18,27.15h-7l-3.81-14.98-3.6,14.98h-7.3l-7.2-27.15h7.84l3.8,15.57,3.71-15.57h6.56l4,15.6,3.8-15.6h6.38Z" style="fill: #4c797f;"/>
          </g>
          <g id="e">
            <g>
              <g>
                <path d="m59.88,33.7l-.52-.1.43-.49c-.23-1.13-.65-1.91-.65-1.91-1.19,1.65-1.65,3.08-1.77,4.24.32.11.67.24.67.24l-.7.27c-.03,1.72.69,2.71.66,2.76,1.79-1.59,2.05-3.5,1.88-5Z" style="fill: #4c797f;"/>
                <path d="m56.98,40.7s-.02,0-.03-.01c-.02-.02-.03-.05,0-.07.77-.98,1.38-2.92,1.78-5.61.3-2.03.37-3.79.37-3.81,0-.03.03-.05.05-.05.03,0,.05.03.05.05,0,.02-.07,1.78-.37,3.82-.4,2.74-1.01,4.65-1.8,5.66-.01.01-.03.02-.04.02Z" style="fill: #10171b;"/>
              </g>
              <g>
                <path d="m61.73,35.82l.71.54-.06-.6c.95.06,2.15.65,3.69,2.18-.1-.09-4.46-1.64-6.88,1.43,0,0,.53-3.09,2.53-3.55Z" style="fill: #10171b;"/>
                <path d="m54.74,46.13s-.02,0-.02,0c-.03-.01-.04-.04-.02-.07.85-1.64,2.45-3.94,3.64-5.57.6-.83,1.03-1.39,1.04-1.39.02-.02.05-.03.07,0,.02.02.03.05,0,.07,0,0-.43.57-1.03,1.39-1.19,1.63-2.79,3.92-3.63,5.56,0,.02-.03.03-.05.03Z" style="fill: #10171b;"/>
                <path d="m59.2,39.37s4.1-2.65,7.87-.31c-.07-.06-3.43-5.3-7.87.31Z" style="fill: #9abbc0;"/>
              </g>
            </g>
            <path d="m58.75,39.6v6.48h-20.43v-27.15h20.43v6.27h-12.27v3.91h9.94v6.03h-9.94v4.46h12.27Z" style="fill: #f9ca62;"/>
          </g>
          <g id="n">
            <g>
              <path d="m7.76,40.56s2.1,1.52,1.87,3.39c.02-.1-3.85-3.98-6.12-3.27.1-.04,2.39-1.48,4.25-.12Z" style="fill: #10171b;"/>
              <path d="m1.69,40.85c.85-.91,2.08-1.23,3.32-1.21,1.66.04,2.75.92,2.75.92-1.48.03-2.89.5-4.06,1.09-.34-.12-.64-.26-.64-.26l.2.49c-1.68.91-2.81,1.97-2.86,1.97.05-1.31.64-2.3,1.29-3Z" style="fill: #4c797f;"/>
              <path d="m10.19,45.97s-.05-.02-.05-.04c-.15-.71-.34-1.38-.57-1.99-.59-1.59-1.23-2.27-1.23-2.28-.02-.02-.02-.05,0-.07.02-.02.05-.02.07,0,.03.03.66.7,1.26,2.32.23.61.42,1.29.57,2,0,.03-.01.06-.04.06,0,0,0,0-.01,0Z" style="fill: #10171b;"/>
              <path d="m.4,43.89s-.01,0-.02,0c-.03-.01-.04-.04-.03-.07.39-.85.94-1.6,1.62-2.22.55-.49,1.18-.91,1.88-1.22,1.2-.54,2.2-.63,2.21-.63.03,0,.05.02.06.05,0,.03-.02.05-.05.06,0,0-.99.09-2.17.62-1.09.49-2.57,1.48-3.45,3.39,0,.02-.03.03-.05.03Z" style="fill: #10171b;"/>
            </g>
            <g>
              <path d="m7.61,31.45l-.99.3.3-.62c-1.04-.32-2.59-.15-4.85.89.14-.06,5.47,0,6.86,4.27,0,0,.65-3.55-1.32-4.84Z" style="fill: #10171b;"/>
              <path d="m11,45.77h0s-.05-.02-.05-.05c.03-2.81-2.17-9.71-2.19-9.78,0-.03,0-.06.03-.07.03,0,.06,0,.07.03.02.07,2.23,6.98,2.2,9.81,0,.03-.02.05-.05.05Z" style="fill: #10171b;"/>
              <path d="m8.93,36.29s-3.39-4.49-8.38-3.46c.1-.04,5.81-4.36,8.38,3.46Z" style="fill: #9abbc0;"/>
            </g>
            <g>
              <path d="m6.36,36.02l-.49.42-.14-.78c-1.25-.65-2.31-.84-2.31-.84.67,2.38,1.67,3.91,2.68,4.9.35-.22.73-.46.73-.46l-.28.87c1.6,1.33,3.09,1.4,3.12,1.46-.15-2.91-1.77-4.61-3.32-5.58Z" style="fill: #9abbc0;"/>
              <path d="m10.76,44.1s-.04-.02-.05-.04c-.35-1.48-1.73-3.53-3.98-5.95-1.7-1.83-3.32-3.23-3.34-3.25-.02-.02-.02-.05,0-.07.02-.02.05-.02.07,0,.02.01,1.64,1.42,3.35,3.25,1,1.08,1.84,2.09,2.49,3.01.81,1.15,1.32,2.16,1.52,2.99,0,.03-.01.06-.04.06,0,0,0,0-.01,0Z" style="fill: #10171b;"/>
            </g>
            <g>
              <g>
                <path d="m35.59,33.37l.84.3-.23-.55c.92-.23,2.25-.03,4.17.97-.12-.05-4.75-.23-6.13,3.42,0,0-.42-3.11,1.35-4.15Z" style="fill: #10171b;"/>
                <path d="m31.88,46.13s0,0,0,0c-.03,0-.05-.03-.05-.06.13-1.59,1-4.49,1.71-6.65.42-1.28.77-2.22.77-2.23,0-.03.04-.04.07-.03.03,0,.04.04.03.07,0,0-.34.95-.77,2.23-.71,2.15-1.58,5.04-1.71,6.62,0,.03-.02.05-.05.05Z" style="fill: #10171b;"/>
                <path d="m34.24,37.52s3.12-3.75,7.42-2.66c-.09-.04-4.86-4.03-7.42,2.66Z" style="fill: #4c797f;"/>
              </g>
              <path d="m6.6,43.5s0,0,0,0c0,0,0,0,0,0Z" style="fill: #799161;"/>
              <g>
                <path d="m37.28,40.14l.51.35c.23-.21.43-.43.61-.64l-.45-.51s.31.12.66.25c.64-.82.91-1.52.88-1.55-5.44-.11-5.81,4.24-5.81,4.24,1.54-.09,2.74-.68,3.65-1.39l-.04-.76Z" style="fill: #9abbc0;"/>
                <path d="m32.13,46.13s-.01,0-.02,0c-.03,0-.04-.04-.03-.07l.67-2.08c.18-.57.45-1.12.8-1.61.45-.65,1.02-1.2,1.69-1.63l4.22-2.73s.06,0,.07.02c.02.02,0,.06-.02.07l-4.22,2.73c-.66.42-1.21.96-1.66,1.6-.34.49-.6,1.02-.78,1.58l-.67,2.08s-.03.04-.05.04Z" style="fill: #10171b;"/>
              </g>
            </g>
            <path d="m33.6,46.08h-6.79l-7.47-11.98c-.96-1.54-1.91-3.41-2.86-5.63.44,1.75.66,3.24.66,4.46v13.15h-6.75v-27.15h7.85l6.34,9.95c1.26,1.98,2.22,3.71,2.87,5.21-.42-2.32-.64-4.69-.64-7.12v-8.04h6.79v27.15Z" style="fill: #4c797f;"/>
          </g>
          <g id="person_4" data-name="person 4">
            <g>
              <path d="m106.08,19.86h6v-4.05h-7.54l-.16,2.03c0,1.28.63,2.03,1.71,2.03Z" style="fill: #a89182;"/>
              <path d="m113.04,26.35s.29-9.21-1.7-9.34c-2.63-.17-2.2,1.54-2.21,2.01-.02,1-.15,7.16-.15,7.16,0,0,2.95.06,4.05.17Z" style="fill: #d3beac;"/>
              <path d="m109.12,26.2s.24-7.68-.16-8.6c-.37-.87-2.88-1.24-3.36.11-.48,1.36-.51,8.68-.51,8.68l4.04-.19Z" style="fill: #d3beac;"/>
              <g>
                <path d="m109.15,26.17c0-.09-.26-.19-.35-.23-.97-.42-2.24-.4-3.27.05-.12.05-.25.11-.39.22-.1.07-.07.19-.01.24.1.09.3.09.42.08,1.02-.04,2.04-.07,3.06-.11.12,0,.22-.02.33-.06.13-.04.21-.14.21-.19Z" style="fill: #774f43;"/>
                <path d="m106.3,26.51c-.01-.24.05-.41.09-.46.03-.03.51-.12.79-.1.13,0,.25.06.36.1.07.03.23.16.26.22.05.08.04.09.04.18-.22,0-.51-.11-.73-.1-.22,0-.6.11-.82.15Z" style="fill: #ffae88;"/>
                <path d="m106.74,26.11c.1-.05.22-.06.33-.08.21-.04.44.09.6.25.07.07.18.15.21.23l.35.81c.04.09.07.19.02.27-.05.08-.17.09-.27.09-.78,0-1.41.03-2.19.03-.09-.25-.04-.54.13-.74.17-.2.33-.41.51-.61.14-.15.13-.15.3-.25Z" style="fill: #ce3c09;"/>
                <path d="m108.24,27.91c-.02.07-.08.13-.16.13-.28,0-.9.02-1.16.02-.24,0-.75-.05-1-.07-.08,0-.14-.07-.14-.15v-.32s.82-.02.91-.02c.38-.02.53-.08.97-.06.14,0,.62.07.62.14,0,.06-.02.21-.04.33Z" style="fill: #1c1e33;"/>
                <path d="m107.53,26.56s.01,0,.01,0c0,0,0-.02,0-.03-.24-.19-.6-.21-.86-.05,0,0-.01.02,0,.03,0,0,.02.01.03,0,.25-.15.59-.13.82.05,0,0,0,0,.01,0Z" style="fill: #1c1e33;"/>
                <path d="m107.43,26.81s.01,0,.02-.01c0,0,0-.02-.01-.02-.26-.09-.54-.09-.8,0,0,0-.01.01-.01.02,0,0,.01.01.02.01.25-.09.53-.08.78,0,0,0,0,0,0,0Z" style="fill: #1c1e33;"/>
                <path d="m107.09,26.36s-.02-.32,0-.41c.03-.08.1-.15.18-.16.09-.01.18.04.2.12.02.07-.02.13-.04.18-.04.07-.29.26-.32.28l-.03.02v-.03Zm.35-.43c-.01-.06-.09-.11-.16-.1-.06.01-.12.06-.15.13-.02.06-.02.25,0,.36.09-.07.26-.2.28-.25.02-.04.05-.1.04-.15Z" style="fill: #1c1e33;"/>
                <path d="m107.07,26.37s-.3-.16-.4-.26c-.06-.06-.08-.12-.07-.17.01-.04.05-.08.11-.09.12-.03.26.03.35.15h0c.04.05.04.1.05.15,0,.02,0,.04,0,.06.02.08-.02.15-.03.16v.02s-.03,0-.03,0Zm-.04-.36c-.07-.11-.2-.16-.31-.13-.04.01-.08.04-.08.07-.01.04,0,.08.06.13.08.09.31.21.37.25,0-.02.02-.07.01-.12,0-.02,0-.04,0-.06,0-.05-.01-.09-.04-.14h0Z" style="fill: #1c1e33;"/>
              </g>
              <g>
                <path d="m108.97,26.17c0-.09.26-.19.35-.23.97-.42,2.24-.4,3.27.05.12.05.25.11.39.22.1.07.07.19.01.24-.1.09-.3.09-.42.08-1.02-.04-2.04-.07-3.06-.11-.12,0-.22-.02-.33-.06-.13-.04-.21-.14-.21-.19Z" style="fill: #774f43;"/>
                <path d="m111.82,26.51c.01-.24-.05-.41-.09-.46-.03-.03-.51-.12-.79-.1-.13,0-.25.06-.36.1-.07.03-.23.16-.26.22-.05.08-.04.09-.04.18.22,0,.51-.11.73-.1.22,0,.6.11.82.15Z" style="fill: #ffae88;"/>
                <path d="m111.39,26.11c-.1-.05-.22-.06-.33-.08-.21-.04-.44.09-.6.25-.07.07-.18.15-.21.23l-.35.81c-.04.09-.07.19-.02.27.05.08.17.09.27.09.78,0,1.41.03,2.19.03.09-.25.04-.54-.13-.74-.17-.2-.33-.41-.51-.61-.14-.15-.13-.15-.3-.25Z" style="fill: #ce3c09;"/>
                <path d="m109.89,27.91c.02.07.08.13.16.13.28,0,.9.02,1.16.02.24,0,.75-.05,1-.07.08,0,.14-.07.14-.15v-.32s-.82-.02-.91-.02c-.38-.02-.53-.08-.97-.06-.14,0-.62.07-.62.14,0,.06.02.21.04.33Z" style="fill: #1c1e33;"/>
                <path d="m110.6,26.56s-.01,0-.01,0c0,0,0-.02,0-.03.24-.19.6-.21.86-.05,0,0,.01.02,0,.03,0,0-.02.01-.03,0-.25-.15-.59-.13-.82.05,0,0,0,0-.01,0Z" style="fill: #1c1e33;"/>
                <path d="m110.7,26.81s-.01,0-.02-.01c0,0,0-.02.01-.02.26-.09.54-.09.8,0,0,0,.01.01.01.02,0,0-.01.01-.02.01-.25-.09-.53-.08-.78,0,0,0,0,0,0,0Z" style="fill: #1c1e33;"/>
                <path d="m111.03,26.39l-.03-.02s-.28-.21-.32-.28c-.03-.04-.06-.11-.04-.18.02-.08.11-.14.2-.12.08.01.15.07.18.16.03.08.01.39,0,.41v.03Zm-.31-.32s.19.18.28.25c0-.1.01-.3,0-.36-.03-.07-.09-.12-.15-.13-.07-.01-.14.03-.16.1-.01.05.02.11.04.15Z" style="fill: #1c1e33;"/>
                <path d="m111.03,26.38v-.02s-.05-.08-.03-.16c0-.02,0-.04,0-.06,0-.05.01-.1.05-.15h0c.08-.12.23-.18.35-.15.06.02.1.05.11.09.01.05,0,.11-.07.17-.1.11-.39.26-.4.26h-.02Zm.05-.36s-.03.09-.04.14c0,.02,0,.04,0,.06,0,.05,0,.09.01.12.06-.03.29-.16.37-.25.05-.05.07-.09.06-.13,0-.03-.04-.06-.08-.07-.11-.03-.23.03-.31.13h0Z" style="fill: #1c1e33;"/>
              </g>
            </g>
            <g>
              <g>
                <path d="m113.3,13.82s-.33-4.07-3.37-4.51c-2.98-.43-5.21.24-6.19,2.9-.98,2.66-.18,4.21.61,4.7s7.67,0,7.67,0c0,0,1.53.93,1.28-3.09Z" style="fill: #ce3c09;"/>
                <g style="clip-path: url(#clippath);">
                  <g>
                    <path d="m113.35,10.15h-10.07s-.02,0-.02-.02,0-.02.02-.02h10.07s.02,0,.02.02,0,.02-.02.02Z" style="fill: #fff;"/>
                    <path d="m113.35,11.01h-10.07s-.02,0-.02-.02,0-.02.02-.02h10.07s.02,0,.02.02,0,.02-.02.02Z" style="fill: #fff;"/>
                    <path d="m113.35,11.86h-10.07s-.02,0-.02-.02,0-.02.02-.02h10.07s.02,0,.02.02,0,.02-.02.02Z" style="fill: #fff;"/>
                    <path d="m113.35,12.72h-10.07s-.02,0-.02-.02,0-.02.02-.02h10.07s.02,0,.02.02,0,.02-.02.02Z" style="fill: #fff;"/>
                    <path d="m113.35,13.57h-10.07s-.02,0-.02-.02,0-.02.02-.02h10.07s.02,0,.02.02,0,.02-.02.02Z" style="fill: #fff;"/>
                    <path d="m113.35,14.42h-10.07s-.02,0-.02-.02,0-.02.02-.02h10.07s.02,0,.02.02,0,.02-.02.02Z" style="fill: #fff;"/>
                    <path d="m113.35,15.28h-10.07s-.02,0-.02-.02,0-.02.02-.02h10.07s.02,0,.02.02,0,.02-.02.02Z" style="fill: #fff;"/>
                    <path d="m113.35,16.13h-10.07s-.02,0-.02-.02,0-.02.02-.02h10.07s.02,0,.02.02,0,.02-.02.02Z" style="fill: #fff;"/>
                    <path d="m113.35,16.99h-10.07s-.02,0-.02-.02,0-.02.02-.02h10.07s.02,0,.02.02,0,.02-.02.02Z" style="fill: #fff;"/>
                  </g>
                </g>
              </g>
              <polygon points="105.71 11.53 106.05 14.1 105.59 14.1 105.71 11.53" style="fill: #6a3623;"/>
              <polygon points="111.08 11.53 111.41 14.1 110.96 14.1 111.08 11.53" style="fill: #6a3623;"/>
            </g>
            <g>
              <rect x="105.4" y="12.86" width="7.14" height="4.28" rx=".24" ry=".24" transform="translate(217.94 30) rotate(180)" style="fill: #fff;"/>
              <circle cx="108.97" cy="15" r=".45" style="fill: #adadad; opacity: .5;"/>
            </g>
            <polygon points="109.07 26.08 109.12 22.55 108.78 25.94 109.07 26.08" style="fill: #b7a08f;"/>
            <g>
              <path d="m107.56,8.59v-.91h1.66v.89c0,.29.2.55.49.6.34.07.56.16.56.27,0,.21-.82.37-1.82.37s-1.82-.17-1.82-.37c0-.09.17-.18.45-.25.28-.07.49-.31.49-.6Z" style="fill: #ffae88;"/>
              <ellipse cx="108.71" cy="7.6" rx="1.25" ry="1.45" style="opacity: .54;"/>
              <ellipse cx="108.46" cy="7.44" rx="1.31" ry="1.45" style="fill: #ffae88;"/>
              <path d="m108.09,7.23c-.11.03-.22.05-.33.08-.14.04-.29.1-.37.23-.2.29.19.43.2.7,0,.14-.12.25-.13.39-.02.17.14.31.18.48.03.14-.03.29-.13.39-.1.1-.23.16-.37.21-.3.09-.58.11-.86,0-.24-.1-.39-.24-.4-.5-.01-.33.32-.35.46-.43.21-.12.36-.25.44-.49.08-.23.07-.49.06-.74-.02-.25-.04-.5,0-.74.08-.43.4-.8.8-.97.18-.08.41-.13.6-.13.11,0,.22.02.32.08.02.01.08.03.05.04.18-.09.53.1.71.2.18.1.31.27.41.44.16.28.25.59.26.91,0,.24-.03.48-.03.72s.04.49.18.69c.12.16.3.29.37.47.1.25-.04.57-.29.68-.25.12-.56.05-.76-.14,0-.04-.16-.2-.18-.26-.05-.1-.07-.21-.08-.33-.02-.25-.05-.3.05-.54.04-.11.19-.32.24-.43.06-.14.12-.28.17-.42.04-.12.09-.24.07-.36-.02-.18-.15-.22-.3-.24-.36-.07-.63-.36-.72-.7-.18.24-.19.52-.51.66-.03.01-.06.03-.1.04Z" style="fill: #1c1e33;"/>
              <path d="m108.55,8.53c-.09,0-.18-.02-.26-.07-.01,0-.01-.02,0-.03,0-.01.02-.01.03,0,.15.1.37.08.51-.03,0,0,.02,0,.03,0,0,0,0,.02,0,.03-.09.07-.2.1-.31.1Z" style="fill: #774f43;"/>
              <circle cx="108.41" cy="5.35" r=".49" style="fill: #1c1e33;"/>
              <path d="m108.45,7.66h-.68s-.06-.03-.06-.06.02-.06.06-.06h.68s.06.03.06.06-.02.06-.06.06Z"/>
              <path d="m109.38,7.66h-.54s-.06-.03-.06-.06.02-.06.06-.06h.54s.06.03.06.06-.02.06-.06.06Z"/>
              <path d="m108.12,7.86c-.06,0-.13-.01-.2-.04-.01,0-.02-.02-.01-.03,0-.01.02-.02.03-.01.16.07.31.03.39,0,.01,0,.02,0,.03.01,0,.01,0,.02-.01.03-.05.02-.13.04-.22.04Z" style="fill: #774f43;"/>
              <path d="m109.06,7.88c-.07,0-.14-.02-.19-.07,0,0,0-.02,0-.03,0,0,.02,0,.03,0,.09.09.25.07.35,0,0,0,.02,0,.03,0,0,0,0,.02,0,.03-.06.04-.14.07-.21.07Z" style="fill: #774f43;"/>
              <path d="m108.6,8.29h0s-.06-.02-.09-.03c-.03-.01-.05-.02-.08-.03-.01,0-.02-.02-.02-.03,0-.01.02-.02.03-.02.03,0,.06.02.09.03.03.01.05.02.08.03.06,0,.1-.02.14-.05h.02s.02-.01.03,0c0,.01,0,.02,0,.03h-.02c-.05.04-.1.07-.17.07Z" style="fill: #774f43;"/>
              <circle cx="107.91" cy="8.16" r=".22" style="fill: #ff5d40; opacity: .44;"/>
              <circle cx="109.2" cy="8.21" r=".22" style="fill: #ff5d40; opacity: .44;"/>
            </g>
          </g>
          <g id="person_3" data-name="person 3">
            <g>
              <g>
                <path d="m74.14,46.24c0-.2.06-1.04.03-1.07-.03-.03-.5-.17-.74-.15-.11,0-.62-.12-.73-.08-.06.02.07.45.07.9,0,.08-.04.43-.04.51.19,0,.51-.24.7-.23.19,0,.52.1.71.13Z" style="fill: #ffa185;"/>
                <path d="m73.77,45.89c-.09-.04-.19-.05-.29-.07-.19-.03-.38.08-.52.22-.06.06-.15.13-.18.2l-.3.7c-.03.07-.06.16-.02.23.05.07.15.07.23.07.67,0,1.22.02,1.89.02.08-.22.04-.46-.11-.64-.15-.17-.29-.36-.44-.53-.12-.13-.11-.13-.26-.21Z" style="fill: #f9ca62;"/>
                <path d="m72.47,47.45c.01.06.07.11.14.11.24,0,.78.02,1.01.02.21,0,.65-.04.86-.06.07,0,.12-.06.12-.13v-.27s-.71-.02-.79-.02c-.32-.02-.46-.07-.84-.05-.12,0-.53.06-.53.12,0,.05.01.18.04.28Z" style="fill: #fff;"/>
                <path d="m73.08,46.28s0,0-.01,0c0,0,0-.02,0-.02.21-.16.52-.18.74-.04,0,0,0,.01,0,.02,0,0-.01,0-.02,0-.21-.13-.51-.12-.71.04,0,0,0,0,0,0Z" style="fill: #1c1e33;"/>
                <path d="m73.17,46.5s-.01,0-.02-.01c0,0,0-.02,0-.02.22-.08.47-.08.69,0,0,0,.01.01,0,.02,0,0-.01.01-.02,0-.22-.07-.46-.07-.67,0,0,0,0,0,0,0Z" style="fill: #1c1e33;"/>
                <path d="m73.46,46.13l-.02-.02s-.24-.18-.28-.24c-.02-.04-.05-.1-.04-.15.02-.07.1-.12.17-.11.07.01.13.06.16.14.03.07,0,.34,0,.35v.03Zm-.27-.27s.17.15.24.21c0-.09.01-.26,0-.31-.02-.06-.08-.11-.13-.12-.06-.01-.12.03-.14.08-.01.05.01.1.03.13Z" style="fill: #1c1e33;"/>
                <path d="m73.46,46.12h0s-.03-.08-.02-.15c0-.02,0-.04,0-.05,0-.05.01-.09.04-.13h0c.07-.1.2-.16.3-.13.05.01.09.04.1.08.01.04,0,.09-.06.14-.09.09-.33.22-.34.23h-.01Zm.05-.31s-.03.07-.04.12c0,.02,0,.04,0,.05,0,.04,0,.08.01.1.06-.03.25-.14.32-.21.04-.04.06-.08.05-.11,0-.03-.04-.05-.07-.06-.09-.02-.2.02-.27.11h0Z" style="fill: #1c1e33;"/>
                <polygon points="74.17 45.67 73.12 45.18 74.17 45.16 74.17 45.67"/>
              </g>
              <g>
                <path d="m65.97,46.22c0-.21.07-.6.07-.65.02-.61.31-.86.55-.84.11,0,.72.25.82.29.06.02.02.46,0,.73,0,.08-.07.34-.07.42-.19,0-.45-.1-.64-.09-.19,0-.53.1-.72.14Z" style="fill: #ffa185;"/>
                <path d="m66.35,45.86c.09-.04.19-.05.29-.07.19-.03.39.08.53.22.06.06.16.13.19.21l.31.72c.03.08.06.17.02.24-.05.07-.15.08-.24.08-.68,0-1.25.02-1.93.02-.08-.22-.04-.47.11-.66.15-.18.29-.36.45-.54.12-.13.12-.13.27-.22Z" style="fill: #f9ca62;"/>
                <path d="m67.67,47.45c-.01.07-.07.11-.14.11-.24,0-.79.02-1.02.02-.21,0-.66-.04-.88-.06-.07,0-.12-.07-.12-.14v-.28s.72-.02.8-.02c.33-.02.47-.07.86-.05.12,0,.54.06.54.12,0,.05-.01.18-.04.29Z" style="fill: #fff;"/>
                <path d="m67.05,46.26s0,0,.01,0c0,0,0-.02,0-.02-.21-.17-.53-.19-.76-.04,0,0,0,.01,0,.02,0,0,.01,0,.02,0,.22-.14.52-.12.72.04,0,0,0,0,.01,0Z" style="fill: #1c1e33;"/>
                <path d="m66.96,46.48s.01,0,.02-.01c0,0,0-.02,0-.02-.23-.08-.48-.08-.71,0,0,0-.01.01-.01.02,0,0,.01.01.02.01.22-.08.46-.07.68,0,0,0,0,0,0,0Z" style="fill: #1c1e33;"/>
                <path d="m66.67,46.08s-.02-.28,0-.36c.03-.07.09-.13.16-.14.08-.01.16.04.18.11.01.06-.01.12-.04.16-.03.06-.26.23-.28.24l-.02.02v-.03Zm.31-.38c-.01-.05-.08-.09-.14-.08-.06,0-.11.06-.13.12-.02.05-.01.22,0,.31.08-.06.23-.17.25-.22.02-.03.04-.09.03-.13Z" style="fill: #1c1e33;"/>
                <path d="m66.65,46.09s-.26-.14-.35-.23c-.05-.05-.07-.1-.06-.15.01-.04.05-.07.1-.08.11-.03.23.02.31.13h0s.04.09.04.13c0,.02,0,.03,0,.05.01.07-.02.14-.02.14h0s-.01,0-.01,0Zm-.03-.31c-.07-.09-.18-.14-.27-.12-.04.01-.07.03-.07.06,0,.03,0,.07.05.12.07.08.27.19.33.22,0-.02.02-.06.01-.1,0-.02,0-.04,0-.06,0-.04,0-.08-.04-.12h0Z" style="fill: #1c1e33;"/>
                <polygon points="67.42 45.6 66.12 45.12 67.45 45.12 67.42 45.6"/>
              </g>
              <g>
                <path d="m76,33.21c-.25,2.41-1.14,11.8-1.14,11.8-1.27.45-3.17,0-3.17,0l.51-8.56-3.74,8.66s-1.76.26-2.67-.13c.13-1.19,4.19-16.57,4.19-16.57l5.97-.65c.03.1.05.2.07.3.04.2.07.41.1.63.13,1.15.08,2.67-.12,4.52Z" style="fill: #1c1e33;"/>
                <polygon points="73.98 31.12 72.2 36.44 71.95 40.68 73.98 31.12"/>
                <path d="m66.4,44.17l-.06-.02c1.7-4.61,2.45-9.13,3.43-14.02v-.04s.04,0,.04,0c.59.12,1.22-.29,1.36-.88l.07.02c-.14.6-.79,1.03-1.4.93-.85,4.85-1.82,9.44-3.43,14Z" style="fill: #fff;"/>
                <path d="m73.25,44.6c-.4,0-.8-.09-1.15-.28l.03-.06c.62.32,1.37.36,2.02.1l.03.06c-.29.12-.61.17-.92.17Z" style="fill: #fff;"/>
                <path d="m67.48,44.38c-.48,0-.97-.1-1.41-.29l.03-.06c.73.32,1.58.37,2.35.15l.02.07c-.32.09-.65.14-.98.14Z" style="fill: #fff;"/>
                <path d="m76.12,28.69l-3.5-.27,3.4-.36c.04.2.07.41.1.63Z" style="fill: #181e2d;"/>
              </g>
            </g>
            <g>
              <path d="m77.64,25.58s-.32,1.29-.86,1.99c-.16.21-.35.37-.55.43-.16.04-.26-.03-.32-.17-.25-.65.38-2.77.38-2.77,0,0,1.35-.22,1.35.52Z" style="fill: #ffa185;"/>
              <path d="m76.78,27.57c-.16.21-.35.37-.55.43-.16.04-.26-.03-.32-.17l.38-2.2s.11,1.49.49,1.94Z" style="fill: #893f3e; opacity: .6;"/>
              <path d="m76.25,23.69s.16,3.16-.06,4.52c0,.03-.01.06-.02.1-.02.1-.04.18-.06.25,0,0,0,.01,0,.02,0,.01,0,.02-.01.04,0,.02-.02.05-.03.07-.02.05-.05.08-.07.1-1.65,1.48-5.67.81-5.96.68-.29-.13-.23-.36-.23-.36v-.04s.01-.02.01-.02l.17-.83v-.05s.78-2.93.78-2.93l-.68.03c-.68.03-1.81.58-1.81.58.01-.13.02-.25.03-.37,0-.02,0-.04,0-.06.01-.12.03-.24.04-.36,0-.02,0-.04,0-.05.44-3.36,1.6-3.96,2.36-4.4.04-.03.09-.05.15-.08.01,0,.03-.01.04-.02.09-.04.18-.07.29-.1.02,0,.03,0,.05-.01.6-.18,1.44-.32,2.13-.42.16-.02.32-.04.45-.06.02,0,.04,0,.06,0,.09-.01.17-.02.24-.03.02,0,.04,0,.06,0,.21-.02.34-.03.38-.03.05,0,.11,0,.16,0,2.56.11,2.74,3.05,2.74,3.05l-1.18.79Z" style="fill: #f9ca62;"/>
              <g>
                <path d="m73.87,19.92s-.04,0-.06,0c.15.14.24.31.24.48,0,.48-.63.87-1.41.87s-1.41-.39-1.41-.87h0s-.03,0-.05,0c0,.5.66.91,1.46.91s1.46-.41,1.46-.92c0-.18-.08-.35-.23-.49Z" style="fill: #fff;"/>
                <path d="m74.16,19.88s-.04,0-.06,0c.18.17.28.37.28.58,0,.59-.78,1.08-1.75,1.08s-1.7-.46-1.74-1.03c-.02,0-.03.01-.04.02.05.59.84,1.06,1.79,1.06s1.79-.5,1.79-1.12c0-.22-.1-.42-.27-.59Z" style="fill: #fff;"/>
                <rect x="70.93" y="23.83" width="4.16" height=".05" transform="translate(-2.88 12.04) rotate(-9.24)" style="fill: #fff;"/>
                <rect x="70.96" y="24.27" width="4.12" height=".05" transform="translate(-2.98 12.2) rotate(-9.36)" style="fill: #fff;"/>
                <rect x="70.98" y="24.7" width="4.11" height=".05" transform="translate(-3.08 12.42) rotate(-9.52)" style="fill: #fff;"/>
                <rect x="71.02" y="25.12" width="4.06" height=".05" transform="translate(-3.08 12) rotate(-9.2)" style="fill: #fff;"/>
                <path d="m76.08,28.62s-.02.05-.03.07c-1.14.56-2.4.86-3.67.86-.37,0-.73-.02-1.1-.07-.4-.05-1.05-.22-1.47-.47v-.05c.42.25,1.08.42,1.47.47,1.63.22,3.32-.06,4.79-.8Z" style="fill: #fff;"/>
                <path d="m76.1,28.56s0,.01,0,.02v-.02s0,0,0,0Z" style="fill: #fff;"/>
                <path d="m76.18,28.21s-.01.06-.02.09c-1.16.6-2.47.91-3.78.91-.37,0-.73-.02-1.1-.07-.38-.05-1.01-.21-1.41-.43v-.05c.41.23,1.04.38,1.42.44,1.64.22,3.34-.06,4.81-.81v-.04s.08-.03.08-.03Z" style="fill: #fff;"/>
                <path d="m70.96,25.11s-.02.02-.03.02c-.84-.26-1.89-.11-2.65.35,0-.02,0-.04,0-.06.77-.45,1.82-.59,2.66-.34.01,0,.02.02.02.03Z" style="fill: #fff;"/>
                <path d="m70.96,24.81s-.02.02-.03.02c-.88-.27-1.88-.06-2.6.24,0-.02,0-.03,0-.05.72-.3,1.73-.5,2.61-.23.01,0,.02.02.02.03Z" style="fill: #fff;"/>
              </g>
              <path d="m71.04,25.5c.04.3-.51.63-1.29.73s-1.44-.05-1.48-.35.59-.52,1.36-.65c.92-.14,1.37-.03,1.41.27Z" style="fill: #1c1e33;"/>
              <path d="m72.45,27.96c-.33,1-2.06,1.23-2.64,1.1v-.02s.17-.83.17-.83v-.05c.94-.43,2.76-1.09,2.47-.21Z" style="fill: #15192d; opacity: .72;"/>
              <g>
                <path d="m74.83,21.02l-.41,4.39c-.01.14.1.25.23.25l3.07-.12c.11,0,.21-.09.22-.2l.43-4.46c.01-.14-.1-.25-.24-.25l-3.04.14c-.14,0-.26.12-.27.26Z" style="fill: #eaeaea;"/>
                <circle cx="76.65" cy="23.06" r=".31" style="fill: #adadad; opacity: .5;"/>
              </g>
              <path d="m74.69,19.86c-.22.44-1.08.9-1.08.9l-.26-.78c.62-.09,1.12-.13,1.18-.13.05,0,.11,0,.16,0Z" style="fill: #15192d; opacity: .72;"/>
              <g>
                <path d="m73.88,19.23h0s.29.12.71-.58c.07-.12.13-.26.18-.4.04-.12.07-.24.09-.37.13-.65.09-1.38-.03-1.71-.17-.48-1.86-.18-2.27,0-.38.16-.16.97-.12,1.09-.02-.02-.07-.06-.17-.14-.24-.19-.54.27-.44.62.1.35.34.38.34.38l-.62,2.2c-.06.18.02.38.18.48l.05.02c.6.28,1.3.26,1.89-.05h0c.09-.07.12-.2.12-.31l.08-1.21Z" style="fill: #ffa185;"/>
                <path d="m72.65,16.59c-.07.14-.09.43-.1.61,0,.01,0,.03,0,.04,0,.08,0,.13,0,.13,0,0-.05-.07-.12-.15-.02-.01-.03-.03-.05-.04-.08-.06-.18-.11-.28-.09-.07-.26-.06-.5-.06-.88l.63.39Z" style="fill: #3c4059;"/>
                <path d="m73.78,17.28s0,0,0,0l-.55-.02s-.06-.02-.05-.05c0-.03.03-.07.06-.07h.55s.06.07.06.09c0,.03-.03.05-.06.05Z" style="fill: #1c1e33;"/>
                <path d="m74.82,17.28s0,0,0,0l-.47.03s-.06-.02-.06-.04c0-.03.08-.1.11-.1h.41s.07.03.07.06c0,.03-.02.05-.05.05Z" style="fill: #1c1e33;"/>
                <path d="m73.91,18.12s-.02-.01-.02-.02c0-.01.01-.02.02-.02h.14s.08-.03.08-.07l.03-.52s.01-.02.02-.02c.01,0,.02.01.02.02l-.03.53c0,.06-.05.11-.11.11h-.15s0,0,0,0Z" style="fill: #893f3e; opacity: .6;"/>
                <path d="m72.38,17.56s-.03-.03-.03-.05c0-.06,0-.09-.06-.13-.05-.04-.1-.05-.16-.01-.01,0-.04,0-.05-.02,0-.01,0-.04.01-.05.07-.04.17-.04.24,0,.07.05.12.15.09.22,0,.01-.02.04-.04.03Z" style="fill: #893f3e; opacity: .6;"/>
                <circle cx="73.24" cy="17.92" r=".26" style="fill: #cc4c46; opacity: .32;"/>
                <path d="m74.4,18.02c0,.14.12.26.26.26.04,0,.08-.01.12-.03.04-.12.07-.24.09-.37-.05-.07-.12-.12-.21-.12-.14,0-.26.11-.26.26Z" style="fill: #cc4c46; opacity: .32;"/>
                <path d="m73.85,19.81c-.15-.04-.39-.19-.5-.29-.09-.07-.4-.38-.46-.48-.08-.14.15.02.31.1.19.09.43.16.69.18l-.03.49Z" style="fill: #893f3e; opacity: .6;"/>
                <path d="m73.56,17.59c-.09,0-.18-.02-.24-.05-.01,0-.02-.02-.01-.04,0-.01.02-.02.04-.01.09.05.28.07.36.01.01,0,.03,0,.04,0,0,.01,0,.03,0,.04-.05.03-.11.04-.18.04Z" style="fill: #1c1e33;"/>
                <path d="m74.52,17.6c-.06,0-.12-.01-.16-.03-.01,0-.02-.02-.01-.04,0-.01.02-.02.04-.01.1.04.24.03.29-.02.01-.01.03,0,.04,0,.01.01,0,.03,0,.04-.04.04-.12.06-.19.06Z" style="fill: #1c1e33;"/>
                <path d="m73.93,18.68c-.06,0-.11-.02-.16-.05-.01,0-.02-.02-.01-.04,0-.01.02-.02.04-.01.09.05.23.06.29.01.01,0,.03,0,.04,0,0,.01,0,.03,0,.04-.05.04-.12.05-.19.04Z" style="fill: #893f3e; opacity: .86;"/>
                <path d="m73.91,18.52c-.08,0-.16-.03-.22-.06-.02,0-.03-.03-.02-.04,0-.01.03-.02.05,0,.13.06.32.07.41.03.02,0,.04,0,.05,0,.01.01.01.03,0,.04-.07.04-.17.04-.27.03Z" style="fill: #893f3e; opacity: .86;"/>
                <g>
                  <path d="m72.12,15.83c.07-.15.19-.25.45-.27.36-.33.88-.47,1.35-.37.23.05.59.08.79.21.16.1.22.23.28.36.05.09.14.13.19.21.07.1.08.28.06.4-.02.13-.1.26-.22.32-.15.07-.23-.01-.37-.02-.13,0-.26.09-.38.12-.14.03-.33-.02-.35-.17-.19.19-.53.19-.73.02.01.16-.21.22-.36.17s-.26-.18-.41-.22c-.08-.02-.16-.01-.24-.02-.08-.01-.13.03-.17-.04-.05-.09.01-.25.02-.33.02-.14.05-.27.09-.37Z"/>
                  <g>
                    <path d="m73.31,16.28h-.04c.02-.12-.02-.25-.1-.35-.08-.1-.2-.16-.31-.17v-.04c.13,0,.26.07.35.18.09.11.13.25.11.37Z" style="fill: #3c4059;"/>
                    <path d="m74.35,16.62v-.04c.09-.03.14-.15.13-.25,0-.09-.05-.18-.13-.29-.23-.29-.58-.49-.95-.53v-.04c.39.05.74.25.98.55.09.11.14.21.14.31,0,.11-.05.25-.17.29Z" style="fill: #3c4059;"/>
                    <path d="m74.79,16.46l-.03-.02c.05-.08.06-.18.03-.27s-.1-.17-.18-.21l.02-.04c.09.04.17.13.2.23.03.11.02.22-.03.31Z" style="fill: #3c4059;"/>
                  </g>
                  <path d="m74.57,18.6s-.08,0-.09-.03c-.01-.12-.05-.25-.21-.32-.13-.05-.25-.07-.37-.07-.09,0-.23.02-.32.05-.13.05-.28.17-.36.29-.03.04-.08.04-.11.01-.2-.2-.32-.43-.41-.71-.09-.28-.13-.32-.17-.52-.03.06-.01.5,0,.57,0,.11.03.29.05.4.04.29.08.5.24.73.29.4.95.62,1.36.38.28-.16.36-.55.49-.86-.03.03-.06.07-.1.1Zm-.42.26s-.1.03-.15.02c-.05-.01-.05-.07-.04-.12-.02,0-.05,0-.07,0,.03.04-.05.11-.1.13s-.1.01-.15,0c-.06-.01-.1-.03-.15-.05-.1-.04-.15-.17-.09-.26.05-.09.11-.16.18-.19.12-.05.25-.06.38-.06.11,0,.22,0,.31.06.07.04.12.19.12.31,0,.03-.02.07-.05.08-.06.03-.12.06-.18.08Z" style="fill: #3c4059;"/>
                </g>
                <path d="m73.5,17.86c-.25,0-.44-.15-.44-.32s.2-.32.44-.32.44.15.44.32-.2.32-.44.32Zm1.15.04c-.21,0-.39-.15-.39-.32s.17-.32.39-.32.39.15.39.32-.17.32-.39.32Zm0-.69c-.2,0-.36.12-.41.27-.05-.03-.14-.04-.2-.03-.03,0-.05,0-.06.02-.04-.17-.24-.31-.48-.31-.14,0-.27.05-.36.12l-.59-.09-.18-.03s.04.03.05.04l.13.02.55.08c-.06.06-.09.13-.09.21,0,.2.22.36.48.36s.48-.16.48-.36c0,0,0,0,0-.01,0-.01.03-.02.06-.02.07,0,.16,0,.19.03,0,.02,0,.03,0,.05,0,.2.19.36.42.36s.42-.16.42-.36-.19-.36-.42-.36Z" style="fill: #e8efe4;"/>
              </g>
              <g>
                <path d="m78.17,22.84s.59.17.44-.27c0,0,.22-.16.04-.37,0,0,.31-.27-.1-.49,0,0,.32-.33-.17-.47,0,0-.31-.14-.34.15,0,0-.04.17.12.24,0,0-.24.18-.06.35,0,0-.25.18-.02.38,0,0-.22.21.07.38v.1Z" style="fill: #ffa185;"/>
                <g>
                  <path d="m78.1,22.36s0,0,0,0c0,0,0,0,0,0,.09.02.18.03.27.07.1.04.18.08.24.15,0,0,0,0,0,.01,0,0,0,0-.01,0-.06-.06-.14-.11-.23-.14-.09-.03-.18-.05-.27-.06,0,0,0,0,0,0Z" style="fill: #845b4d;"/>
                  <path d="m78.12,21.98s0,0,0,0c0,0,0,0,0,0,.19.03.37.11.53.21,0,0,0,0,0,.01,0,0,0,0-.01,0-.16-.11-.33-.18-.52-.21,0,0,0,0,0,0Z" style="fill: #845b4d;"/>
                  <path d="m78.17,21.63s0,0,0,0c.13,0,.23.01.35.06,0,0,0,0,0,.01,0,0,0,0-.01,0-.12-.05-.21-.06-.34-.06,0,0,0,0,0,0h0Z" style="fill: #845b4d;"/>
                </g>
              </g>
              <g>
                <path d="m75.64,23.51c-.07-.04-.16-.15-.35-.08.14.09.28.24.4.36.09.09.18.2.24.32.03.06.06.12.07.18.01.08.04.15,0,.23-.02.07-.08.12-.15.14.02.07.02.15-.01.21-.03.05-.1.1-.17.09-.04.11-.21.13-.32.05-.17-.12-.5-.26-.84-.22-.28.23-.51.68-.97,1.47-.45.79-1.09,2.55-2.72,2.45-1.11-.07-1.72-1.48-2-2.38-.13-.43-.19-.74-.19-.74,0,0,.71-.38,1.7-.35.11,0,.23.01.35.03.12.02.22.1.26.22l.16.56s2.34-2.47,2.68-2.87c.34-.39.97-1.15.95-1.01-.02.14-.06.7-.06.7,0,0,.53-.05.76,0,.24.05.66.44.68.63.02.16.02.25-.48,0Z" style="fill: #ffa185;"/>
                <g>
                  <path d="m75.83,24.67c-.18-.46-.57-.78-.99-.82v-.03c.43.04.83.37,1.02.84h-.03Z" style="fill: #845b4d;"/>
                  <path d="m75.64,24.97c-.11-.35-.53-.58-.87-.62v-.03c.36.04.79.28.9.64h-.03Z" style="fill: #845b4d;"/>
                  <path d="m75.27,23.45c-.07-.03-.16-.06-.3-.07v-.03c.15.01.25.04.32.07v.03Z" style="fill: #845b4d;"/>
                </g>
                <path d="m70.32,25.25c-1.01.12-1.39.8-1.51,1.09-.13-.43-.19-.74-.19-.74,0,0,.71-.38,1.7-.35Z" style="fill: #893f3e; opacity: .6;"/>
              </g>
              <path d="m71.01,25.56s0-.03,0-.04l-.13-1.86s0-.02.02-.02c.01,0,.02,0,.02.02l.13,1.86s0,.04-.02.04c0,0-.02,0-.02,0Z" style="fill: #34437a;"/>
            </g>
          </g>
          <g id="person_2" data-name="person 2">
            <g>
              <polygon points="50.76 19.94 51.62 21.33 52.52 21.84 53.03 21.26 52.29 19.83 50.76 19.94" style="fill: #ff938a;"/>
              <path d="m51.15,22.41s-.53.59-.36.84c.17.25,1.3.32,1.65.35.35.02.2-.62.37-.59s.37.59.5.59c.12,0,1.17.04,1.4,0,.45-.08,1.1-.56,1.2-.85.1-.3-.12-.6-.12-.6,0,0-3.87.32-4.07.3-.2-.02-.57-.04-.57-.04Z" style="fill: #fff;"/>
              <path d="m51.15,22.41s.22.04.52.09c.24.05.54.08.83.07.35-.01.72.03,1.09.08.34.04.68.09,1.01.09.68,0,1.19-.2,1.19-.3v-.3s-.86-.15-1.24-.28c-.38-.12-1.32-.97-1.57-1-.25-.02-.23.55-.61.58-.23.02-.5-.16-.68-.29-.1-.08-.24-.04-.29.08-.11.28-.27.75-.26,1.17Z" style="fill: #ce3c09;"/>
              <path d="m53.18,21.53s-.02,0-.03-.02c0-.02,0-.03.01-.04.16-.08.26-.15.3-.29,0-.02.02-.03.04-.02.02,0,.03.02.02.04-.04.16-.15.24-.33.33,0,0,0,0-.01,0Z" style="fill: #1c1e33;"/>
              <path d="m53.48,21.73s-.03-.01-.03-.03c0-.02.01-.03.03-.03.16-.02.31-.14.38-.32,0-.02.02-.02.04-.02.02,0,.02.02.02.04-.07.21-.24.34-.43.36,0,0,0,0,0,0Z" style="fill: #1c1e33;"/>
              <path d="m53.79,21.97s-.03-.01-.03-.03c0-.02.01-.03.03-.03.18-.02.34-.14.4-.31,0-.02.02-.02.04-.02.02,0,.02.02.02.04-.07.19-.25.33-.45.35,0,0,0,0,0,0Z" style="fill: #1c1e33;"/>
              <path d="m51.61,22c.05.09.12.19.11.29,0,.07-.05.14-.04.21.24.05.54.08.83.07.35-.01.72.03,1.09.08-.14-.21-.73-.57-.82-.62-.24-.13-.48-.25-.73-.37-.08-.04-.17-.08-.26-.09-.09,0-.19.03-.23.12-.05.1,0,.21.05.3Z" style="fill: #513a31; opacity: .55;"/>
            </g>
            <path d="m52.44,19.01h-2.57l-.45-2.26h3.02c.59,0,1.02.51,1.02,1.13h0c0,.62-.51,1.13-1.02,1.13Z" style="fill: #f4eddf;"/>
            <path d="m53.07,20.41h-2.81l-2.3-3.62s-2.11,2.29-4.48,3.2c-2.6,1-3.28-.26-3.83-.86-.18-.2-.27-.38-.31-.54,0,0,0,0,0,0,0-.01,0-.02,0-.03-.05-.26.02-.43.02-.44,0,0,0,0,0,0,0,0,.92.2,1.88-.34.24-.14.49-.28.75-.43,2.19-1.28,4.92-3,5.34-3.23.68-.38,1.39-.43,2,.26.72.81,3.75,6.05,3.75,6.05Z" style="fill: #d3beac;"/>
            <path d="m42.8,11.4c-.77,0-2.64-.09-3.37.94s-1.11,4.57-.9,5.19c.21.63.85.63,1.62.58.77-.04,1.75-.74,1.75-.74l2.61-1.55,2.4-1.48s-1.01-2.58-1.95-2.81-2.17-.13-2.17-.13Z" style="fill: #94c7b4;"/>
            <g>
              <path d="m42.8,11.4c-.77,0-2.64-.09-3.37.94s-1.11,4.57-.9,5.19c.21.63.85.63,1.62.58.77-.04,1.75-.74,1.75-.74l5.03-3.01s-1.02-2.61-1.96-2.83-2.17-.13-2.17-.13Z" style="fill: #ce3c09;"/>
              <g style="clip-path: url(#clippath-1);">
                <g>
                  <path d="m40.34,19.12s-.07-.01-.1-.04c-.05-.05-.05-.14,0-.2.24-.24.61-.33.93-.22.07.02.11.1.09.18-.02.07-.1.11-.18.09-.22-.07-.48-.01-.64.15-.03.03-.06.04-.1.04Z" style="fill: #fff9e9;"/>
                  <path d="m44.54,20.33c-.31,0-.62-.17-.78-.44-.04-.07-.02-.15.05-.19.07-.04.15-.02.19.05.12.2.36.32.59.3.08,0,.14.05.15.13,0,.08-.05.14-.13.15-.02,0-.05,0-.07,0Z" style="fill: #fff9e9;"/>
                  <path d="m42.86,17.87c-.05,0-.1-.03-.13-.08-.13-.31-.08-.69.14-.95.05-.06.14-.07.19-.02.06.05.07.14.02.19-.15.18-.19.45-.09.66.03.07,0,.15-.07.18-.02,0-.04.01-.05.01Z" style="fill: #fff9e9;"/>
                  <path d="m43.49,13.36s-.07-.01-.1-.04c-.05-.05-.05-.14,0-.2.24-.24.61-.33.93-.22.07.02.11.1.09.18-.02.07-.1.11-.18.09-.22-.07-.48-.01-.64.15-.03.03-.06.04-.1.04Z" style="fill: #fff9e9;"/>
                  <path d="m39.61,16.73c-.31,0-.62-.17-.78-.44-.04-.07-.02-.15.05-.19.07-.04.15-.02.19.05.12.2.36.32.59.3.08,0,.14.05.15.13,0,.08-.05.14-.13.15-.02,0-.05,0-.07,0Z" style="fill: #fff9e9;"/>
                  <path d="m40.07,14.06c-.05,0-.1-.03-.13-.08-.13-.31-.08-.69.14-.95.05-.06.14-.07.19-.02.06.05.07.14.02.19-.15.18-.19.45-.09.66.03.07,0,.15-.07.18-.02,0-.04.01-.05.01Z" style="fill: #fff9e9;"/>
                  <path d="m45.99,18.6s-.07-.01-.1-.04c-.05-.05-.05-.14,0-.2.24-.24.61-.33.93-.22.07.02.11.1.09.18-.02.07-.1.11-.18.09-.22-.07-.48-.01-.64.15-.03.03-.06.04-.1.04Z" style="fill: #fff9e9;"/>
                  <path d="m49.94,19.2c-.31,0-.62-.17-.78-.44-.04-.07-.02-.15.05-.19.07-.04.15-.02.19.05.12.2.36.32.59.3.08,0,.14.05.15.13,0,.08-.05.14-.13.15-.02,0-.05,0-.07,0Z" style="fill: #fff9e9;"/>
                  <path d="m44.55,11.66c-.31,0-.62-.17-.78-.44-.04-.07-.02-.15.05-.19.07-.04.15-.02.19.05.12.2.36.32.59.3.08,0,.14.05.15.13,0,.08-.05.14-.13.15-.02,0-.05,0-.07,0Z" style="fill: #fff9e9;"/>
                  <path d="m48.99,16.56c-.05,0-.1-.03-.13-.08-.13-.31-.08-.69.14-.95.05-.06.14-.07.19-.02.06.05.07.14.02.19-.15.18-.19.45-.09.66.03.07,0,.15-.07.18-.02,0-.04.01-.05.01Z" style="fill: #fff9e9;"/>
                  <path d="m41.47,14.32s-.04-.06-.03-.1c0-.08.07-.13.15-.13.34.02.65.24.78.55.03.07,0,.15-.07.18-.07.03-.15,0-.18-.07-.09-.21-.31-.37-.54-.38-.04,0-.07-.02-.1-.05Z" style="fill: #fff9e9;"/>
                  <path d="m45.98,13.52s-.07-.01-.1-.04c-.05-.05-.05-.14,0-.2.24-.24.61-.33.93-.22.07.02.11.1.09.18-.02.07-.1.11-.18.09-.22-.07-.48-.01-.64.15-.03.03-.06.04-.1.04Z" style="fill: #fff9e9;"/>
                  <path d="m45.86,15.15c-.31,0-.62-.17-.78-.44-.04-.07-.02-.15.05-.19.07-.04.15-.02.19.05.12.2.36.32.59.3.08,0,.14.05.15.13,0,.08-.05.14-.13.15-.02,0-.05,0-.07,0Z" style="fill: #fff9e9;"/>
                  <path d="m41.46,17.34c-.05,0-.1-.03-.13-.08-.13-.31-.08-.69.14-.95.05-.06.14-.07.19-.02.06.05.07.14.02.19-.15.18-.19.45-.09.66.03.07,0,.15-.07.18-.02,0-.04.01-.05.01Z" style="fill: #fff9e9;"/>
                </g>
              </g>
            </g>
            <g>
              <polygon points="46.92 17.47 45.16 17.5 44.8 18.52 45.38 18.95 47.14 18.92 46.92 17.47" style="fill: #ff938a;"/>
              <path d="m44.14,17.26s-.6-.46-.83-.27c-.22.19-.21,1.26-.2,1.59,0,.33.61.14.59.31s-.53.4-.52.52c.01.12.06,1.11.11,1.33.11.42.62,1,.91,1.07.29.07.56-.17.56-.17,0,0-.62-3.65-.61-3.84,0-.19,0-.54,0-.54Z" style="fill: #fff;"/>
              <path d="m44.14,17.26s-.02.21-.05.5c-.02.23-.04.52,0,.79.04.33.03.68,0,1.04-.01.33-.03.66,0,.97.05.65.28,1.11.38,1.11l.28-.02s.08-.83.16-1.2c.09-.37.82-1.33.82-1.57,0-.24-.54-.17-.59-.53-.05-.36.36-.85.36-.85,0,0-.75-.31-1.37-.23Z" style="fill: #ce3c09;"/>
              <path d="m45.14,19.12s0-.02.01-.03c.01,0,.03,0,.04,0,.09.14.16.23.3.26.02,0,.03.02.02.03,0,.02-.02.03-.03.02-.15-.03-.24-.13-.34-.29,0,0,0,0,0-.01Z" style="fill: #1c1e33;"/>
              <path d="m44.98,19.42s0-.03.02-.03c.02,0,.03,0,.03.02.03.15.16.28.34.33.02,0,.02.02.02.04,0,.02-.02.02-.04.02-.2-.05-.35-.2-.38-.38,0,0,0,0,0,0Z" style="fill: #1c1e33;"/>
              <path d="m44.77,19.73s0-.03.02-.03c.02,0,.03,0,.03.02.03.17.16.31.33.35.02,0,.02.02.02.04,0,.02-.02.02-.04.02-.19-.05-.33-.21-.37-.4,0,0,0,0,0,0Z" style="fill: #1c1e33;"/>
              <path d="m44.57,17.66c-.08.06-.17.13-.27.13-.07,0-.14-.03-.21-.02-.02.23-.04.52,0,.79.04.33.03.68,0,1.04.19-.15.48-.73.52-.83.11-.24.2-.48.29-.72.03-.08.06-.17.06-.25,0-.09-.05-.18-.13-.21-.09-.04-.2.02-.28.08Z" style="fill: #513a31; opacity: .55;"/>
            </g>
            <g>
              <path d="m50.13,12.27s-.51,2.17-.62,2.32c-.07-.1-.14-.18-.19-.24-.61-.68-1.32-.64-2-.26-.26.15-1.44.88-2.81,1.72v-.07c0-.15.08-.29.21-.36l1.11-.65.69-2.47h3.62Z" style="fill: #d7d7d7;"/>
              <path d="m48.16,13.84c-.07,0-.12-.03-.16-.07-.04-.05-.06-.12-.05-.2.03-.15.16-.27.3-.27.07,0,.12.03.16.07.04.05.06.12.05.2-.03.15-.16.27-.3.27Z" style="fill: #fff;"/>
            </g>
            <path d="m42.11,15.07s1.66-.6,2.13-.55c.47.04.81.43.81.55s-.3.04-.47,0c-.17-.04-.17,0-.17,0,0,0,.26.6-.04.72-.3.13-1.15.17-1.15.17l-1.11.55v-1.45Z" style="fill: #ff938a;"/>
            <g>
              <path d="m44.53,8.56c.04.31-.11.58-.32.6-.21.03-.41-.2-.45-.51s.11-.58.32-.6c.21-.03.41.2.45.51Z" style="fill: #1b1414;"/>
              <ellipse cx="42.15" cy="8.71" rx=".39" ry=".56" transform="translate(-.73 5.04) rotate(-6.78)" style="fill: #1b1414;"/>
              <path d="m44.32,8.61c.05.39.02.75-.04,1.07-.03.15-.07.28-.11.4-.1.27-.23.47-.35.57-.29.24-.51.25-.51.25,0,0,0,0,0,0,0,.04.02.19.05.35,0,0,0,0,0,0,.04.13.28.11.43.15.02,0,.04.03.03.05-.23.5-1.63.67-2.35.58-.49-.06-.47-.41-.33-.49.42-.24.83-1.8.83-1.8-.16,0-.27-.19-.2-.51.07-.32.46-.21.46-.21.18-.89.68-.88.68-.88,0,0,1.31-.32,1.4.45Z" style="fill: #ff938a;"/>
              <path d="m43.17,9.64c.01.11-.07.22-.18.23s-.22-.07-.23-.18c-.01-.11.07-.22.18-.23s.22.07.23.18Z" style="fill: #e86a64;"/>
              <path d="m44.28,9.68c-.03.15-.07.28-.11.4-.08-.02-.15-.09-.16-.18-.01-.11.07-.22.18-.23.03,0,.06,0,.09,0Z" style="fill: #e86a64;"/>
              <path d="m43.62,9.2c0,.05-.02.02-.02.02l-.46-.05s-.05-.02-.05-.05c0-.03.02-.05.05-.05h.45s.05.02.05.05c0,.03,0,.07-.02.08Z" style="fill: #1b1414;"/>
              <path d="m44.31,9.24s0,0,0,0h-.33s-.05-.03-.05-.06c0-.03,0-.07.04-.07l.35.03s.05.02.05.05c0,.03-.02.05-.04.05Z" style="fill: #1b1414;"/>
              <path d="m43.42,9.42c-.01.07-.05.13-.07.12s-.03-.07-.02-.14.05-.13.07-.12c.03,0,.03.07.02.14Z" style="fill: #1b1414;"/>
              <path d="m44.14,9.48c-.01.07-.05.13-.07.12-.03,0-.03-.07-.02-.14.01-.07.05-.13.07-.12s.03.07.02.14Z" style="fill: #1b1414;"/>
              <g>
                <path d="m43.66,9.91s-.01,0-.02-.01c0,0,0-.02,0-.02l.23-.09s0-.04,0-.06c0-.03,0-.05,0-.08,0,0,0-.02.02-.02,0,0,.02,0,.02.02,0,.02,0,.04,0,.07,0,.03,0,.05,0,.08h0s-.25.11-.25.11c0,0,0,0,0,0Z" style="fill: #6a3623;"/>
                <path d="m43.64,10.22c-.14.02-.28-.04-.37-.15-.01-.01,0-.04,0-.05.01-.01.04,0,.05,0,.08.11.24.15.37.11.02,0,.04,0,.04.02,0,.02,0,.04-.02.04-.02,0-.05.01-.07.02Z" style="fill: #6a3623;"/>
                <path d="m44.43,9.16c-.04-.1-.11-.16-.19-.18-.15-.02-.29.13-.35.35-.07-.04-.17-.04-.24,0,0-.23-.11-.41-.27-.44-.17-.03-.33.13-.4.36l-.57-.23-.03.06.59.23s0,.02,0,.03c-.02.13,0,.26.04.37.05.11.13.17.22.19.02,0,.04,0,.07,0,.07,0,.14-.05.2-.12.08-.08.13-.2.15-.34h0s0-.04,0-.07h0c.06-.05.16-.05.22,0,0,0,0,.02,0,.03-.04.27.06.49.22.52.02,0,.03,0,.05,0,.06,0,.13-.05.18-.11.07-.08.11-.19.13-.32.02-.12,0-.25-.03-.34Zm-.84.28h0c-.02.12-.07.23-.14.31-.07.07-.15.11-.22.1-.08-.01-.14-.07-.18-.16-.04-.1-.06-.22-.04-.34.03-.22.17-.39.31-.41.02,0,.03,0,.05,0,.16.02.26.25.22.5Zm.82.05c-.02.12-.06.22-.12.29-.06.07-.12.1-.19.09-.13-.02-.21-.23-.18-.46.03-.21.15-.37.27-.39.01,0,.03,0,.04,0,.06,0,.12.06.15.15.04.09.05.2.03.32Z" style="fill: #f9f9f9;"/>
                <path d="m42.24,9.32s-.03,0-.03-.02c-.02-.04-.06-.06-.1-.07-.04,0-.08.01-.11.04-.01.01-.03.02-.05,0-.01-.01-.02-.03,0-.05.04-.05.1-.07.17-.07.06,0,.12.05.15.1,0,.02,0,.04-.01.05,0,0,0,0-.01,0Z" style="fill: #6a3623;"/>
              </g>
              <path d="m43.36,11.27c-.16-.03-.6-.17-.81-.71,0,0,.32.34.76.35,0,.04.02.19.05.35,0,0,0,0,0,0Z" style="opacity: .54;"/>
              <path d="m45.1,8.2c-.05-.12-.16-.21-.28-.24-.08-.09-.19-.15-.31-.17-.05,0-.1,0-.15,0,.03-.05.05-.1.06-.16.02-.13-.01-.25-.09-.34h-.02c.07.1.11.22.09.34,0,.06-.03.11-.06.16-.01,0-.02,0-.03,0,0,0,0-.01,0-.02-.07-.27-.32-.49-.63-.55-.31-.06-.57-.04-.83.06-.12.05-.28.17-.37.27-.03.03-.08.09-.13.16-.04.05-.09.09-.12.15,0-.16.04-.33.13-.47h-.02c-.09.14-.14.32-.13.49-.07-.15-.2-.26-.36-.28v.02c.14.03.26.12.33.25-.14-.07-.3-.05-.42.04-.16.13-.2.37-.09.57.03.05.07.1.11.13,0,.04.02.07.04.11.04.09.11.16.2.19s.2,0,.25-.08c-.05.19-.05.37,0,.56.01.06.11.13.17.14.06,0,.1-.07.12-.12.03-.12.05-.24.04-.36.02,0,.05,0,.07,0,.04,0,.07,0,.11-.02.09-.04.17-.12.19-.22.06.12.17.21.3.23.14.03.29-.02.39-.12.06.07.15.12.24.15.1.04.2.06.3.06.16,0,.32-.04.45-.1.18-.08.32-.2.41-.33.1-.16.12-.36.06-.51Zm-3.42.28c-.1-.19-.07-.42.09-.54.12-.1.27-.11.42-.03,0,0,0,0,0,0-.01.02-.02.03-.03.05-.15.04-.29.16-.35.3-.05.1-.06.21-.04.32-.03-.03-.06-.07-.08-.11Zm1.07.54c-.06.02-.12.02-.18,0,0-.08-.03-.16-.06-.24.13.12.28.13.42.01-.02.1-.09.18-.18.21Zm.44-1.7c-.28.02-.55.14-.76.32.02-.03.04-.05.06-.08.09-.09.24-.21.36-.26.25-.1.51-.12.81-.06.3.06.55.27.61.53-.05-.04-.1-.11-.14-.15-.26-.22-.61-.33-.94-.3Zm1.84,1.39c-.08.13-.22.24-.4.32-.2.09-.39.11-.54.09.06,0,.11,0,.17-.02.23-.04.45-.17.58-.36.13-.19.17-.46.06-.67-.01-.03-.03-.05-.05-.08.1.03.19.11.23.21.07.15.04.34-.05.49Z" style="fill: #1b1414;"/>
            </g>
            <polygon points="49.41 19.07 46.46 19.06 45.76 16.95 48.02 16.89 49.41 19.07" style="fill: #baa898;"/>
            <g>
              <polygon points="47.85 16.58 49.42 19.07 48.97 19.07 47.92 16.9 47.98 16.9 47.85 16.58" style="fill: #1b1414;"/>
              <polygon points="40.53 15.48 40.67 13.94 40.99 15.38 40.53 15.48" style="fill: #1b1414;"/>
              <rect x="39.71" y="15.4" width="2.25" height=".02" transform="translate(-2.36 9.13) rotate(-12.4)" style="fill: #1b1414;"/>
              <rect x="40.11" y="14" width="1.06" height=".02" transform="translate(25.12 54.1) rotate(-87.86)" style="fill: #1b1414;"/>
              <rect x="45.43" y="12.94" width=".02" height="1.89" transform="translate(-2.05 15.39) rotate(-18.81)" style="fill: #1b1414;"/>
              <rect x="42.09" y="15.08" width=".02" height="2.19" style="fill: #1b1414;"/>
              <polygon points="43.18 15.97 42.11 16.8 42.11 16.52 43.18 15.97" style="fill: #1b1414;"/>
              <rect x="46.53" y="16.9" width="1.38" height=".02" transform="translate(-.46 1.35) rotate(-1.63)" style="fill: #1b1414;"/>
              <polygon points="51.2 20.65 52.56 20.41 51.05 20.41 51.2 20.65" style="fill: #1b1414;"/>
              <polygon points="45.93 17.47 45.97 18.94 46.42 18.93 45.93 17.47" style="fill: #1b1414;"/>
              <path d="m41.97,17.34c-.79.88-2.59,1.42-2.64,1.25,0,0,0,0,0,0,0-.01,0-.02,0-.03-.03-.17.02-.43.02-.44,0,0,0,0,0,0,0,0,.92.2,1.88-.34.24-.14.49-.28.75-.43Z" style="fill: #1b1414;"/>
            </g>
          </g>
          <g id="person_1" data-name="person 1">
            <g>
              <path d="m15.97,47.15c-.02-.15-.23-1.1-.5-1.35-.26-.25-.34.36-.67.35-.33-.02-.99-.56-.99-.56,0,0-.28.69-.9.82-.63.12-1.48.45-1.48.75,0,.13,4.55,0,4.55,0Z" style="fill: #1c1e33;"/>
              <polygon points="11.42 47.56 15.97 47.59 15.97 47.01 11.42 47.15 11.42 47.56" style="fill: #fff;"/>
            </g>
            <g>
              <path d="m20.07,45.7c-.1-.05-.25-.1-.36-.12-.26-.04-.48.19-.65.4-.13.32-.26.65-.39.97-.04.09-.07.2-.02.28.05.08.17.09.27.09.77,0,1.54-.02,2.31-.03.08-.26-.1-.52-.27-.74-.17-.21-.18-.31-.36-.51-.14-.15-.36-.25-.52-.34Z" style="fill: #1c1e33;"/>
              <path d="m18.6,47.57l2.62.02s.02-.42.02-.42c0,.02-1.1-.18-1.19-.18-.37-.02-.75.01-1.11.09-.14.03-.28.03-.34.16-.03.08,0,.25,0,.34Z" style="fill: #fff;"/>
            </g>
            <g>
              <path d="m20.82,45.85c-.28.13-1.28-.31-1.71-.11-.23.11-.33.11-.33.11l-3.04-10.21s.3,6.43.17,6.86c-.13.43-.17,1.04-.04,1.42.13.39,0,2.05,0,2.05l-2.28-.1s-.72-13.89-.74-15.02c-.02-1.6.3-2.16.3-2.16l5.65.86s0,.07.02.19c.02.14.04.35.07.61,0,.08.02.17.03.26.3,2.55.97,8.38,1.18,9.1.15.53.39,2.09.31,2.35l.41,2.45c0,.51.28,1.2,0,1.33Z" style="fill: #ce3c09;"/>
              <path d="m18.9,30.36c-.18,0-.42,0-.51,0-1.18.06-4.13,0-4.94-.6-.36-.27,4.99-.03,5.38-.01.02.14.04.35.07.61Z" style="fill: #191309; opacity: .68;"/>
              <polygon points="15.74 35.64 15.05 32.42 15.93 40.43 15.74 35.64" style="fill: #191309; opacity: .68;"/>
            </g>
            <g id="guy_right" data-name="guy right">
              <path d="m15.83,20.67c-.9.25-1.79.12-2.23.7-.26.35-.34.9-.43,1.32-.16.67-.29,1.34-.44,2.01-.1.43-.19.88-.35,1.3-.09.24-.26.4-.34.65-.12.41-.16.84-.09,1.26.03.23.1.47.26.63.11.11.42.14.51.26.11.14.09.16.12.33.03.17-.08.43.01.57.19.29.6.28.9.29.31.02.62.03.93.04.72.03,1.43.05,2.15.04.38,0,.76-.01,1.14-.05.17-.02.76-.02.88-.15,0,0,.03-.38.04-.51.74-.19.09-2.01.14-2.53.02-.3,0,0,0,0,0,0,.11.91,1.34.76,1.03-.13,1.49-2.12,1.17-3.37-.32-1.25-.6-3.01-1.46-3.28-.86-.27-2.55-.21-2.55-.21l-1.71-.07Z" style="fill: #d3beac;"/>
              <path d="m18.75,20.18c.17.1.36.24.36.43,0,.23-.23.38-.43.47-.83.37-3.47,1.04-3.58-.39-.11-1.4,2.85-.96,3.65-.52Z" style="fill: #d3beac;"/>
              <g>
                <ellipse cx="15.08" cy="16.97" rx=".78" ry=".6" transform="translate(-3.09 30.59) rotate(-85.22)" style="fill: #5c3021;"/>
                <path d="m17.45,18.72s-.07-.17-.06-.17c.29-.04.32-.16.36-.64.04-.48-.6-.24-.6-.24l-.13-.76-2.12-.31s-.23,1.27,0,2.02c.21.69.58.72.67.72h0s.02,0,.02,0l.13.69h0s.09.5.09.5c0,0-.03.92,1.21.7.97-.17.99-.84.87-1.18-.12-.35-.44-1.34-.44-1.34Z" style="fill: #fc876d;"/>
                <path d="m15.44,15.19c.17.01.32.07.45.16.14-.07.3-.1.47-.08.27.02.51.16.66.36.08-.02.16-.02.24-.02.39.03.69.34.72.72h0s0,.07,0,.13c0,0,0,0,0,.01,0,.02,0,.03,0,.04-.05.4-.27,1.24-.27,1.24-.14-.28-.56-.05-.56-.05-.15-.16-.34-.47-.46-.68-.15.07-.31.11-.49.09-.17-.01-.32-.07-.45-.16-.14.07-.3.1-.47.08-.51-.04-.89-.49-.84-1,.04-.51.49-.89,1-.84Z" style="fill: #975030;"/>
                <path d="m15.28,15.19c-.11.14-.18.31-.2.5-.04.51.34.96.84,1,.17.01.33-.02.47-.08.13.09.28.15.45.16.17.01.34-.02.49-.09.12.22.3.52.46.68,0,0,.01,0,.03-.02-.05.23-.1.4-.1.4-.14-.28-.56-.05-.56-.05-.15-.16-.34-.47-.46-.68-.15.07-.31.11-.49.09-.17-.01-.32-.07-.45-.16-.14.07-.3.1-.47.08-.51-.04-.89-.49-.84-1,.04-.45.39-.8.83-.84Z" style="fill: #5c3021;"/>
                <path d="m15.57,19.34s.02,0,.02,0l.13.69.72-1.12c-.05.06-.38.31-.86.43Z" style="fill: #893f3e; opacity: .6;"/>
                <path d="m17.56,18.2s.04-.01.04-.03c0-.02.04-.17.03-.24,0-.09-.07-.16-.15-.19-.09-.03-.18,0-.23.08-.01.02,0,.04.01.05.02.01.04,0,.05-.01.03-.04.09-.06.14-.05.05.02.09.07.1.12,0,.05-.02.17-.03.22,0,.02,0,.04.03.05,0,0,0,0,0,0Z" style="fill: #893f3e; opacity: .6;"/>
                <path d="m15.6,17.37s0,0,0,0l.7.04s.04-.02.04-.04c0-.02-.02-.04-.04-.04l-.71-.09s-.04.07-.04.09c0,.02.01.04.04.04Z" style="fill: #5c3021;"/>
                <path d="m14.85,17.32s0,0,0,0l.37.02s.04-.01.04-.04c0-.02-.02-.1-.04-.1l-.37.03s-.04.01-.04.04c0,.02.01.04.04.04Z" style="fill: #5c3021;"/>
                <path d="m15.39,18.25v-.03c-.12-.05-.27-.12-.28-.14.01-.04.18-.65.18-.65h-.04s-.17.6-.18.65c0,.04.1.1.31.18Z" style="fill: #893f3e; opacity: .6;"/>
                <path d="m15.76,17.66c.02.07.09.12.14.1s.08-.09.05-.16c-.02-.07-.09-.12-.14-.1-.05.02-.08.09-.05.16Z" style="fill: #6b3913;"/>
                <path d="m14.92,17.58c.01.08.06.13.12.12.06,0,.09-.07.08-.15-.01-.08-.06-.13-.12-.12-.06,0-.09.07-.08.15Z" style="fill: #6b3913;"/>
                <circle cx="16.22" cy="18.16" r=".35" style="fill: #c55c56; opacity: .2;"/>
                <path d="m15.12,18.35c0,.18.17.35.36.35.11,0,.45-.19.27-.3-.06-.03-.63.08-.63-.06Z" style="fill: #fafcfc;"/>
              </g>
              <path d="m13.45,28.54c-.43-.51-.75-.13-.65-.75.02-.11.04-.23.05-.35l.63-4.74h.07s-.63,4.75-.63,4.75c-.02.12-.03.24-.05.35-.1.63.22.21.64.69l-.05.05Z" style="fill: #1c1e33;"/>
              <polygon points="11.21 22.75 14.1 23.25 17.25 22.95 17.65 28.98 14.44 29.32 11.83 28.68 11.21 22.75" style="fill: #fff;"/>
              <polygon points="14.05 23.25 14.41 29.28 11.88 28.68 11.16 22.77 14.05 23.25" style="fill: #adadad; opacity: .5;"/>
              <g>
                <path d="m18.97,25.46s-.93-.72-1.48-.61c-.55.11-.52.43-.52.43,0,0-.26.2-.13.46,0,0-.15.12-.04.36,0,0-.17.08-.12.19.05.11.59.04.65.06s.59.29,1,.31c.41.02.74-.02.74-.02l-.1-1.19Z" style="fill: #fc876d;"/>
                <g>
                  <path d="m17.63,25.22s0,0,0,0c0,0,0,0,0,0,0,0,0,0,0,0-.08.01-.16.01-.24.02-.14,0-.29,0-.41.06,0,0,0,0,0,.01,0,0,0,0,.01,0,.12-.05.26-.05.41-.06.08,0,.16,0,.24-.01Z" style="fill: #230918;"/>
                  <path d="m16.84,25.75s0,0,0,0c.2-.11.44-.11.66-.12,0,0,0,0,0,0,0,0,0,0,0,0-.22,0-.47,0-.67.12,0,0,0,0,0,.01,0,0,0,0,0,0Z" style="fill: #230918;"/>
                  <path d="m16.8,26.12s0,0,0,0c.15-.06.31-.07.48-.09.09,0,.19-.02.28-.03,0,0,0,0,0,0,0,0,0,0,0,0-.09.02-.19.02-.28.03-.16.01-.33.03-.48.09,0,0,0,0,0,.01,0,0,0,0,0,0Z" style="fill: #230918;"/>
                </g>
              </g>
              <path d="m20.57,26.26c-.04-.33-.22-.65-.5-.85-.27-.2-.63-.28-.96-.22v-.07c.34-.07.72.02,1,.23.29.21.48.55.52.9h-.07Z" style="fill: #1c1e33;"/>
              <polygon points="20.01 24.94 19.94 24.94 19.88 22.91 19.96 22.91 20.01 24.94" style="fill: #1c1e33;"/>
              <rect x="16.86" y="28.39" width=".07" height="2.21" transform="translate(-12.66 46.29) rotate(-89.79)" style="fill: #1c1e33;"/>
              <path d="m21.04,25.76c-.06-.24-.22-.46-.45-.6-.23-.14-.5-.19-.74-.12l-.02-.07c.26-.07.55-.02.8.13.25.15.43.39.49.65l-.07.02Z" style="fill: #1c1e33;"/>
              <path d="m17.28,21.82s-.08,0-.11,0v-.07c.65-.02,1.31-.29,1.79-.73l.05.05c-.47.43-1.09.7-1.72.75Z" style="fill: #1c1e33;"/>
              <rect x="15.44" y="20.71" width=".07" height=".81" transform="translate(-10.7 20.57) rotate(-52.57)" style="fill: #1c1e33;"/>
            </g>
            <g>
              <path d="m11.52,25.88s-.68.19-.51-.31c0,0-.25-.18-.05-.43,0,0-.35-.3.11-.56,0,0-.37-.38.19-.54,0,0,.35-.16.38.18,0,0,.05.19-.14.28,0,0,.27.21.07.4,0,0,.28.2.03.44,0,0,.25.24-.08.43v.12Z" style="fill: #fc876d;"/>
              <g>
                <path d="m11.6,25.33s0,0,0,0c0,0,0,0-.01,0-.1.02-.21.04-.31.07-.11.04-.21.1-.27.17,0,0,0,0,0,.01,0,0,0,0,.01,0,.07-.07.15-.12.27-.16.1-.04.21-.05.31-.07,0,0,0,0,0,0Z" style="fill: #230918;"/>
                <path d="m11.58,24.89s0,0,0,0c0,0,0,0-.01,0-.21.04-.42.12-.6.24,0,0,0,0,0,.01,0,0,0,0,.01,0,.18-.12.38-.2.59-.24,0,0,0,0,0,0Z" style="fill: #230918;"/>
                <path d="m11.52,24.5s0,0,0,0c-.15,0-.26.01-.4.07,0,0,0,0,0,.01,0,0,0,0,.01,0,.14-.05.24-.07.39-.07,0,0,0,0,0,0h0Z" style="fill: #230918;"/>
              </g>
            </g>
          </g>
          <g id="bubble_chats" data-name="bubble chats">
            <g>
              <path d="m15.12,11.77s0-.08,0-.12c0-1.44-1.17-2.61-2.61-2.61s-2.61,1.17-2.61,2.61,1.17,2.61,2.61,2.61c.78,0,1.48-.34,1.96-.88l.65.88v-2.49Z" style="fill: #f9ca62;"/>
              <g>
                <circle cx="11.28" cy="11.65" r=".33" style="fill: #fff;"/>
                <circle cx="12.55" cy="11.65" r=".33" style="fill: #fff;"/>
                <circle cx="13.81" cy="11.65" r=".33" style="fill: #fff;"/>
              </g>
            </g>
            <g>
              <path d="m48.24,8.5s0-.1,0-.14c0-1.77,1.43-3.2,3.2-3.2s3.2,1.43,3.2,3.2-1.43,3.2-3.2,3.2c-.96,0-1.81-.42-2.4-1.08l-.8,1.08v-3.06Z" style="fill: #4c797f;"/>
              <g>
                <path d="m53.5,9.56h-4.12v-2.68h4.12v2.68Zm-4.02-.1h3.91v-2.47h-3.91v2.47Z" style="fill: #fff;"/>
                <polygon points="51.44 8.6 49.4 6.97 49.46 6.89 51.47 8.5 51.44 8.6" style="fill: #fff;"/>
                <polygon points="51.44 8.6 51.41 8.5 53.41 6.89 53.48 6.97 51.44 8.6" style="fill: #fff;"/>
                <rect x="49.15" y="8.75" width="2.03" height=".1" transform="translate(7.91 37.24) rotate(-43.89)" style="fill: #fff;"/>
                <rect x="52.67" y="7.79" width=".1" height="2.03" transform="translate(9.7 40.53) rotate(-45.89)" style="fill: #fff;"/>
              </g>
            </g>
            <g>
              <path d="m77.05,16.96s0-.08,0-.13c0-1.55,1.26-2.8,2.8-2.8s2.8,1.26,2.8,2.8-1.26,2.8-2.8,2.8c-.84,0-1.59-.37-2.1-.95l-.7.95v-2.68Z" style="fill: #ce3c09;"/>
              <rect x="77.69" y="16.31" width="3.95" height=".1" style="fill: #fff;"/>
              <rect x="77.69" y="16.94" width="4.33" height=".1" style="fill: #fff;"/>
              <rect x="77.69" y="17.57" width="2.99" height=".1" style="fill: #fff;"/>
            </g>
            <g>
              <path d="m105.64,8.81s0-.07,0-.11c0-1.3-1.05-2.36-2.36-2.36s-2.36,1.05-2.36,2.36,1.05,2.36,2.36,2.36c.7,0,1.33-.31,1.77-.8l.59.8v-2.25Z" style="fill: #9abbc0;"/>
              <path d="m103.28,10.04s-.02,0-.03,0l-.03-.02c-.23-.14-.58-.43-.8-.69-.18-.21-.41-.52-.38-.89.03-.41.36-.72.77-.7.22.01.39.15.49.26.1-.11.27-.24.49-.25.01,0,.02,0,.04,0,.39,0,.7.3.72.71h0c.02.37-.22.68-.39.88-.23.26-.58.54-.81.68l-.03.02s-.02,0-.03,0Zm-.52-2.2c-.33,0-.6.26-.62.6-.02.33.19.62.36.82.22.26.56.53.78.67h0s0,0,0,0c.22-.14.56-.41.79-.66.17-.19.39-.48.37-.81h0c-.02-.35-.28-.61-.62-.61-.01,0-.02,0-.03,0-.21,0-.38.17-.46.26,0,.01-.02.02-.04.02-.02,0-.03,0-.04-.02-.08-.09-.24-.26-.45-.27-.01,0-.03,0-.04,0Z" style="fill: #fff;"/>
            </g>
          </g>
        </g>
      </g>
    </g>
  </g>
</svg>