<?xml version="1.0" encoding="UTF-8"?>
<svg id="_圖層_2" data-name="圖層 2" xmlns="http://www.w3.org/2000/svg" width="173.05" height="164.06" viewBox="0 0 173.05 164.06">
  <g id="_第一cut" data-name="第一cut">
    <g id="owl">
      <path d="m87.35,138.99l1.76,10.48s-9.14,5.63-8.09,8.09c1.06,2.46,8.79-2.46,8.79-2.46,0,0-2.81,8.44,0,8.44s4.57-8.44,4.57-8.44c0,0,4.22,6.68,7.39,3.17,3.16-3.52-8.09-9.14-8.09-9.14l-1.41-10.13s-3.16-4.22-4.92,0Z" style="fill: #f8c447;"/>
      <path d="m93.68,149.11l-1.41-10.13s-3.16-4.22-4.92,0l.78,4.63c1.17.12,2.26.39,3.18.99-.19-.93-.46-1.87-.93-2.8.47.93.74,1.87.93,2.8.28.18.54.39.79.63-.25-.24-.51-.45-.79-.63.42,2.05.43,4.1,1.11,6.15,3.73,1.32,7.54,3.92,9.28,7.58.03-.03.05-.05.08-.08,3.16-3.52-8.09-9.14-8.09-9.14Z" style="fill: #e29b2d;"/>
      <path d="m87.35,138.99l1.76,10.48s-9.14,5.63-8.09,8.09c1.06,2.46,8.79-2.46,8.79-2.46,0,0-2.81,8.44,0,8.44s4.57-8.44,4.57-8.44c0,0,4.22,6.68,7.39,3.17,3.16-3.52-8.09-9.14-8.09-9.14l-1.41-10.13s-3.16-4.22-4.92,0Z" style="fill: none; stroke: #231815; stroke-linecap: round; stroke-linejoin: round; stroke-width: 1.05px;"/>
      <path d="m141.86,104.88s13.64-1.76,15.4,1.05c1.76,2.81-.35,4.57-.35,4.57,0,0-13.99-2.11-15.4-1.76-1.41.35.35-3.87.35-3.87Z" style="fill: #e29b2d;"/>
      <path d="m141.86,104.88s13.64-1.76,15.4,1.05c1.76,2.81-.35,4.57-.35,4.57,0,0-13.99-2.11-15.4-1.76-1.41.35.35-3.87.35-3.87Z" style="fill: none; stroke: #231815; stroke-linecap: round; stroke-linejoin: round; stroke-width: 1.05px;"/>
      <path d="m156.55,111.91c-.75-.75-5.28-6.68-4.22-14.07,1.05-7.39,4.92-4.92,7.03,4.92-.35-1.76,2.81-15.47,5.63-12.66,2.81,2.81-1.41,12.31-1.41,12.31,0,0,7.03-7.74,8.79-3.87,1.76,3.87-12.31,16.88-15.82,13.36Z" style="fill: #f8c447;"/>
      <path d="m156.55,111.91c-.75-.75-5.28-6.68-4.22-14.07,1.05-7.39,4.92-4.92,7.03,4.92-.35-1.76,2.81-15.47,5.63-12.66,2.81,2.81-1.41,12.31-1.41,12.31,0,0,7.03-7.74,8.79-3.87,1.76,3.87-12.31,16.88-15.82,13.36Z" style="fill: none; stroke: #231815; stroke-linecap: round; stroke-linejoin: round; stroke-width: 1.05px;"/>
      <path d="m130.25,44.04s2.11-7.74,2.11-16.18-2.11-21.1-2.11-21.1c0,0-.35-11.61,6.68-3.16,7.03,8.44,6.68,16.88,6.68,16.88,0,0,3.87-13.01,7.74-8.44,3.87,4.57,2.81,16.88-.7,21.8-1.06.7,8.79-8.79,8.09,4.22-1.05,11.25-21.1,27.78-19.34,26.37,2.11-.35,10.55,39.74-1.41,53.1-11.96,13.36-40.44,30.24-68.22,17.93-18.4-9.01-24.62-30.24-24.62-30.24,0,0-21.87.83-36.23-7.06-7.29-5.14-4.72-11.57,5.57-9.43C2.49,80.6-.57,72.88.84,69.36c2.81-3.87,11.08,1.37,11.08,1.37,0,0-9-17.15.86-18.86,3.87,2.81,3.82,14.04,24.01,30.87,0,0-4.72-15-4.65-25.69-.7,2.46-10.2-16.18-6.33-22.51,2.11,1.05,10.9,9.5,19.34,7.74,1.76,0,17.93-17.23,52.75-20.05,2.81.35,7.03-10.2,6.33-16.18,4.57-2.11,13.71,8.09,14.42,22.51.7.7,8.44,8.44,11.61,15.47Z" style="fill: #bd8943;"/>
      <path d="m82.78,76.75s2.88,14.57,10.6,11.57c3.77-1.47,1.29-12.43,0-14.58-1.29-2.14-11.34-5.56-10.6,3.01Z" style="fill: #ad8962;"/>
      <path d="m150.77,33.64c-.04.06-.08.14-.13.2-.14.1-.08,0,.13-.2,3.41-5.04,4.4-17.09.58-21.6-2.29-2.7-4.58.74-6.06,4.01-.23,1.62-.48,3.24-.78,4.85,1.43-1.19,3-2.02,4.17-.85,4.5,5.15,2.25,11.26-.24,16.89,12.68-.5-4.76,20.02-11.6,26.7,5.03,17.64,4.88,40.35-10.45,52.44-9.43,7.72-19.72,14.58-31.72,15.43-21.81,2.52-39.52-13.85-48.3-32.23-12.48,1.96-30.03,0-38.47-10.6-4.35,1.29-4.29,5.73,1.03,9.48,14.35,7.89,36.23,7.06,36.23,7.06,0,0,6.21,21.24,24.62,30.24,27.78,12.31,56.27-4.57,68.22-17.93,11.96-13.36,3.52-53.45,1.41-53.1-1.76,1.41,18.29-15.12,19.34-26.37.61-11.24-6.66-5.69-7.96-4.42Z" style="fill: #ad8962;"/>
      <path d="m80.32,101.01c-12.29,12.54-7.06,28.99-3.3,37.02,25.36,6.83,50.06-8.29,60.98-20.49.97-1.09,1.8-2.37,2.51-3.77-1.35-4.08-3.45-8.69-6.73-13.11-12.66-16.18-36.92-16.53-53.45.35Z" style="fill: #fce9bc;"/>
      <path d="m135.89,103.79c-2.13,4.7-5.22,8.91-9.5,12.29-9.43,7.72-19.72,14.58-31.72,15.43-7.61.88-14.72-.54-21.12-3.55.88,3.96,2.25,7.45,3.47,10.06,25.36,6.83,50.06-8.29,60.98-20.49.97-1.09,1.8-2.37,2.51-3.77-1.03-3.13-2.51-6.56-4.62-9.98Z" style="fill: #edd2a3;"/>
      <path d="m7.22,68.53c-2.37-.77-5.02-1.05-6.38.83-1.37,3.41,1.48,10.79,12.63,18.67,2.84.38,5.66,1.1,8.31,1.47-6.37-4.78-17.16-11.77-14.56-20.98Z" style="fill: #ad8962;"/>
      <path d="m130.25,44.04s2.11-7.74,2.11-16.18-2.11-21.1-2.11-21.1c0,0-.35-11.61,6.68-3.16,7.03,8.44,6.68,16.88,6.68,16.88,0,0,3.87-13.01,7.74-8.44,3.87,4.57,2.81,16.88-.7,21.8-1.06.7,8.79-8.79,8.09,4.22-1.05,11.25-21.1,27.78-19.34,26.37,2.11-.35,10.55,39.74-1.41,53.1-11.96,13.36-40.44,30.24-68.22,17.93-18.4-9.01-24.62-30.24-24.62-30.24,0,0-21.87.83-36.23-7.06-7.29-5.14-4.72-11.57,5.57-9.43C2.49,80.6-.57,72.88.84,69.36c2.81-3.87,11.08,1.37,11.08,1.37,0,0-9-17.15.86-18.86,3.87,2.81,3.82,14.04,24.01,30.87,0,0-4.72-15-4.65-25.69-.7,2.46-10.2-16.18-6.33-22.51,2.11,1.05,10.9,9.5,19.34,7.74,1.76,0,17.93-17.23,52.75-20.05,2.81.35,7.03-10.2,6.33-16.18,4.57-2.11,13.71,8.09,14.42,22.51.7.7,8.44,8.44,11.61,15.47Z" style="fill: none; stroke: #231815; stroke-linecap: round; stroke-linejoin: round; stroke-width: 1.05px;"/>
      <path d="m100.96,103.83c-.41-1.02-1.29-3.63-2.71-3.55-.02,0-.03.01-.02.03.32,1.61,1.32,3.3,1.89,4.85.57,1.56,1.01,3.23,2.18,4.46.18.19.45,0,.42-.23-.27-1.95-1.02-3.75-1.75-5.56Z" style="fill: #9f7247;"/>
      <path d="m106,116.17c-.31-.85-.56-2.12-1.31-2.69-.13-.1-.28,0-.33.12-.41.92.2,2.37.47,3.26.42,1.37.84,2.76,1.97,3.71.25.21.6.04.55-.3-.24-1.44-.85-2.73-1.35-4.1Z" style="fill: #9f7247;"/>
      <path d="m110.68,126.77c-.26-.62-1.07-.16-1,.4.18,1.55.59,3.53,1.69,4.67.18.19.48.1.56-.13.59-1.66-.61-3.43-1.25-4.93Z" style="fill: #9f7247;"/>
      <path d="m111.71,103.49c-.61-1.38-1.42-2.99-2.75-3.8-.25-.15-.5.08-.46.34.17,1.35.91,2.62,1.44,3.86.61,1.44,1.15,2.81,2.09,4.07.22.3.66.05.68-.26.1-1.55-.38-2.82-1-4.21Z" style="fill: #9f7247;"/>
      <path d="m116.72,115.77c-.41-.98-.76-2.05-1.37-2.93-.11-.15-.41-.19-.45.05-.36,1.82.46,5.04,2.14,6.02.24.14.59-.02.58-.32-.01-1-.53-1.92-.91-2.83Z" style="fill: #9f7247;"/>
      <path d="m120.16,125.08c-.09-.64-.19-1.17-.43-1.77-.15-.39-.67-.22-.79.08-.46,1.14-.54,2.69.04,3.81.34.67,1.46.4,1.43-.36-.02-.6-.17-1.18-.25-1.77Z" style="fill: #9f7247;"/>
      <path d="m123.58,104.06c-.37-.88-1.14-2.19-2.23-2.23-.21,0-.39.24-.27.44,1.07,1.73.93,4.1,2.24,5.67.15.18.42.11.55-.06.83-1.12.19-2.67-.29-3.81Z" style="fill: #9f7247;"/>
      <path d="m126.05,113.66s-.05-.03-.05,0c-.12,1.49,0,2.9.24,4.38.23,1.42.27,2.93.83,4.26.15.35.64.22.75-.08.97-2.65-.85-6.11-1.77-8.56Z" style="fill: #9f7247;"/>
      <path d="m92.29,113.6c-.77-1.72-1.28-3.49-1.88-5.26-.09-.26-.47-.24-.49.05-.18,2.73.92,6.65,2.81,8.69.19.21.62.08.6-.23-.08-1.17-.56-2.18-1.04-3.25Z" style="fill: #9f7247;"/>
      <path d="m96.95,123.18c-.5-.88-1.34-2.17-1.49-3.19,0-.03-.05-.02-.05,0-.05.6-.22,1.06-.2,1.69.02.71.21,1.34.45,2.01.32.87,1.11,2.38,2.23,2.29.25-.02.39-.2.36-.44-.1-.82-.89-1.65-1.3-2.36Z" style="fill: #9f7247;"/>
      <path d="m102.61,131.51c-.53-.78-1-1.55-1.67-2.22-.23-.23-.57-.01-.53.29.15.97.48,1.79.9,2.66.37.76.91,1.87,1.85,1.92.19,0,.38-.13.43-.31.22-.85-.52-1.66-.98-2.33Z" style="fill: #9f7247;"/>
      <path d="m84.88,122.73c-.3-.8-.92-1.44-1.37-2.16-.56-.91-.97-1.91-1.58-2.79-.12-.17-.45-.15-.44.11.08,1.82,1.13,4.53,2.94,5.27.24.1.55-.18.45-.43Z" style="fill: #9f7247;"/>
      <path d="m91.15,131.14c-.76-.97-1.56-2.04-1.97-3.21-.13-.38-.76-.61-.97-.15-.57,1.25.25,2.67.94,3.7.73,1.11,1.66,2.61,2.99,3.05.28.09.64-.14.62-.45-.06-1.13-.94-2.08-1.6-2.94Z" style="fill: #9f7247;"/>
      <path d="m77.85,51.78s1.76,1.05,2.81-2.81c1.05-3.87,3.17-15.47,21.8-18.29,0,0,17.94-1.41,23.91,16.88,5.63,17.58-1.76,23.56-8.09,27.78-6.33,4.22-22.15,2.11-26.73-2.46-4.57-3.16-9.14-1.41-10.55,5.98-1.41,7.38-8.09,13.01-18.99,15.12-10.9,2.11-20.4-6.68-23.21-19.69-2.81-13.01,9.85-37.98,39.03-22.51Z" style="fill: #fdecb9;"/>
      <path d="m77.85,51.78s1.76,1.05,2.81-2.81c1.05-3.87,3.17-15.47,21.8-18.29,0,0,17.94-1.41,23.91,16.88,5.63,17.58-1.76,23.56-8.09,27.78-6.33,4.22-22.15,2.11-26.73-2.46-4.57-3.16-9.14-1.41-10.55,5.98-1.41,7.38-8.09,13.01-18.99,15.12-10.9,2.11-20.4-6.68-23.21-19.69-2.81-13.01,9.85-37.98,39.03-22.51Z" style="fill: none; stroke: #231815; stroke-linecap: round; stroke-linejoin: round; stroke-width: 1.05px;"/>
      <path d="m76.64,70.22c0,7.38-5.98,13.36-13.36,13.36s-13.36-5.98-13.36-13.36,5.98-13.36,13.36-13.36,13.36,5.98,13.36,13.36Z" style="fill: #fff;"/>
      <path d="m76.64,70.22c0,7.38-5.98,13.36-13.36,13.36s-13.36-5.98-13.36-13.36,5.98-13.36,13.36-13.36,13.36,5.98,13.36,13.36Z" style="fill: none; stroke: #231815; stroke-linecap: round; stroke-linejoin: round; stroke-width: 1.05px;"/>
      <path d="m117.08,55.1c0,7.38-5.98,13.36-13.36,13.36s-13.36-5.98-13.36-13.36,5.98-13.36,13.36-13.36,13.36,5.98,13.36,13.36Z" style="fill: #fff;"/>
      <path d="m117.08,55.1c0,7.38-5.98,13.36-13.36,13.36s-13.36-5.98-13.36-13.36,5.98-13.36,13.36-13.36,13.36,5.98,13.36,13.36Z" style="fill: none; stroke: #231815; stroke-linecap: round; stroke-linejoin: round; stroke-width: 1.05px;"/>
      <path d="m82.78,76.75s4.57,10.9,9.14,9.14c4.22-2.11-.35-13.01-.35-13.01,0,0-7.74-6.33-8.79,3.87Z" style="fill: #e29b2d;"/>
      <path d="m82.78,76.75s4.57,10.9,9.14,9.14c4.22-2.11-.35-13.01-.35-13.01,0,0-7.74-6.33-8.79,3.87Z" style="fill: none; stroke: #231815; stroke-linecap: round; stroke-linejoin: round; stroke-width: 1.05px;"/>
      <path d="m84.37,75.45s.43-4.29,3.43-3c3,1.29,5.14,8.15,3.86,9.86-1.29,1.71-4.72-.86-7.29-6.86Z" style="fill: #f8c447;"/>
      <path d="m84.37,75.45s0-3.43,1.72-2.14c1.71,1.29,2.57,6.86,2.57,6.86,0,0-3,1.29-4.29-4.72Z" style="fill: #fbe1a7;"/>
      <path d="m26.07,39.44s5.57,9,10.29,9.43c.86.86-2.14,6.43-2.14,6.43,0,0-5.85,2.17-8.15-15.86Z" style="fill: #9f7247;"/>
      <path d="m18.36,65.16s7.72,8.57,9,10.72c1.29,2.14-6.86,5.57-9-10.72Z" style="fill: #e1c291;"/>
      <path d="m134.96,29.15c-1.33-.24-4.72,17.15-2.14,18.01,2.57.86,6.86-17.15,2.14-18.01Z" style="fill: #e1c291;"/>
      <path d="m136.06,69.36c1.05,2.12-.51,5.03-3.48,6.5-2.97,1.47-6.23.94-7.28-1.19-1.05-2.12.51-5.03,3.49-6.5,2.97-1.47,6.23-.94,7.28,1.19Z" style="fill: #b7766d;"/>
      <path d="m61.03,97.23c1.05,2.12-.51,5.03-3.49,6.5-2.97,1.47-6.23.94-7.28-1.19-1.05-2.12.51-5.03,3.49-6.5,2.97-1.47,6.23-.94,7.28,1.19Z" style="fill: #b7766d;"/>
      <path d="m120.22,39.57c-1.58.75-2.79,2.19-3.99,3.42-.37.37.07.88.52.69,1.61-.7,3.17-2.02,3.94-3.63.15-.31-.13-.63-.46-.48Z" style="fill: #edc58c;"/>
      <path d="m123.22,48.18c-.07-.18-.29-.26-.47-.27-.8-.05-1.59.16-2.37.31-.2.04-1.25-.13-1.32.21-.23,1.12,1.38,1.01,2.07.92.6-.08,2.49-.18,2.08-1.17Z" style="fill: #edc58c;"/>
      <path d="m122.65,58.21c-.35-.2-.68-.42-.99-.68-.22-.18-.59-.38-.75-.6-.06-.09-.23-.02-.22.08.01.13-.03.32-.05.46-.01.16.11.36.17.5.16.38.51.67.83.92.33.25.67.5,1.04.69.39.2.77.51,1.22.36.14-.05.29-.18.27-.34-.07-.73-.95-1.07-1.53-1.38Z" style="fill: #edc58c;"/>
      <path d="m45.28,69.79c-.14-.37-.37-.62-.71-.73-.12-.06-.25-.11-.39-.13-.28-.07-.56-.11-.84-.15-.61-.08-1.21-.05-1.82.02-.82.09-.84,1.19-.01,1.29,1.06.12,2.12.22,3.18.32.2.02.45-.12.54-.3,0-.02.02-.03.03-.05.02-.04.1-.23.04-.27Z" style="fill: #edc58c;"/>
      <path d="m46.66,74.71c-.48.01-.96.25-1.42.38-.64.18-1.35.15-2.01.18-.78.04-.8,1.18-.01,1.22,1.13.06,3.57.11,3.75-1.46.02-.17-.15-.33-.31-.32Z" style="fill: #edc58c;"/>
      <path d="m49.1,80.09c-.08-.25-.42-.34-.57-.09.15-.25-.15.07-.19.14-.13.19-.27.37-.38.57-.25.46-.52.9-.75,1.37-.19.39-1.21,2.31-.13,2.33.8.02,1.28-1.63,1.54-2.21.32-.7.7-1.49.48-2.11Z" style="fill: #edc58c;"/>
      <path d="m68.72,42.68c-1.46-1.94-4.58-3.88-7.06-3.99-.39-.02-.41.49-.1.63,1.19.52,2.33,1.05,3.45,1.72,1.15.69,2.19,1.56,3.42,2.1.29.13.43-.27.28-.46Z" style="fill: #e1c291;"/>
      <path d="m73.37,40.17c-1.56-1.95-2.55-4.51-4.35-6.24-.05-.05-.14-.09-.21-.06-.12.04-.18-.08-.3-.02-.02.01,0,.05.02.04-.08.04,1.68,3.31,1.81,3.55.6,1.05,1.53,2.86,2.89,3.05.18.02.23-.2.14-.32Z" style="fill: #e1c291;"/>
      <g>
        <path d="m71.99,66.56c2.09,4.82-.13,10.42-4.95,12.51-4.82,2.09-10.42-.13-12.51-4.95-2.09-4.82.13-10.42,4.95-12.51,4.82-2.09,10.42.13,12.51,4.95Z" style="fill: #231815;"/>
        <path d="m60.09,68.53c.48,1.11-.03,2.4-1.14,2.89s-2.4-.03-2.89-1.14.03-2.4,1.14-2.89,2.4.03,2.89,1.14Z" style="fill: #fff;"/>
        <path d="m112.71,51.34c2.09,4.82-.13,10.42-4.95,12.51s-10.42-.13-12.51-4.95c-2.09-4.82.13-10.42,4.95-12.51,4.82-2.09,10.42.13,12.51,4.95Z" style="fill: #231815;"/>
        <path d="m100.8,53.31c.48,1.11-.03,2.4-1.14,2.89s-2.4-.03-2.89-1.14c-.48-1.11.03-2.4,1.14-2.89s2.4.03,2.89,1.14Z" style="fill: #fff;"/>
        <g>
          <g>
            <path d="m123.42,84.38l-5.9,6.15c-.72-.69-1.32-1.51-1.76-2.42-.06-.11-.11-.23-.16-.34-1.87-4.31.13-9.35,4.44-11.22,4.31-1.87,9.35.13,11.21,4.44.25.58.44,1.26.55,1.87l-8.38,1.52Z" style="fill: #4880bd; fill-rule: evenodd;"/>
            <path d="m124.15,82.74l4.35,2.41,3.28-2.33c.74,3.88-1.37,7.84-5,9.42-3.43,1.48-7.51.53-9.9-2.31l6.42-2.57.86-4.62Z" style="fill: #9eca4f; fill-rule: evenodd;"/>
            <path d="m115.77,88.16l2.66-1.17c.36-1.99.72-3.98,1.08-5.98.1-.26.23-.35.41-.36l1.19.51-1.27,5.9-3.81,1.64-.26-.55Z" style="fill: #fff; fill-rule: evenodd;"/>
            <polygon points="116.64 89.62 121.8 87.38 123.17 80.02 129.6 84.01 131.77 83.06 131.79 83.42 129.26 84.52 123.59 80.98 122.29 87.63 116.88 89.93 116.64 89.62" style="fill: #9eca4f; fill-rule: evenodd;"/>
            <polygon points="117.06 90.14 116.88 89.93 122.24 87.57 123.59 80.97 129.29 84.51 131.88 83.39 131.91 84.08 128.36 85.62 124.39 83.2 123.7 87.54 117.24 90.34 117.06 90.14" style="fill: #fff; fill-rule: evenodd;"/>
            <path d="m116.64,89.62l-.18-.26-.17-.31,4.05-1.73,1.62-8.96c.07-.14.11-.24.34-.32.12-.03.23-.05.46.05l7.83,4.87,1.15-.5.1.58-2.24.96-6.43-3.9-1.33,7.31-5.2,2.22Z" style="fill: #fff; fill-rule: evenodd;"/>
          </g>
          <circle cx="123.42" cy="84.39" r="8.49" style="fill: none; stroke: #231815; stroke-miterlimit: 10; stroke-width: .88px;"/>
        </g>
      </g>
    </g>
  </g>
</svg>