<?xml version="1.0" encoding="UTF-8"?>
<svg xmlns="http://www.w3.org/2000/svg" width="264.42" height="264.43" xmlns:xlink="http://www.w3.org/1999/xlink" viewBox="0 0 264.42 264.43">
  <defs>
    <clipPath id="clippath">
      <circle cx="132.21" cy="132.21" r="122.5" style="fill: none; stroke-width: 0px;"/>
    </clipPath>
  </defs>
  <g style="isolation: isolate;">
    <g id="_圖層_2" data-name="圖層 2">
      <g id="_圖層_8" data-name="圖層 8">
        <g id="Participate_activities1">
          <g>
            <path d="m132.21,0c-1.93,0-3.89.04-5.82.13l.42,9.7c1.45-.06,2.9-.1,4.36-.11h0s.03,0,.05,0h0c.06,0,.13,0,.19,0h0s.03,0,.04,0h.01s.03,0,.04,0h0s.03,0,.05,0h0s.07,0,.1,0h0s.03,0,.04,0h.01s.02,0,.04,0h.05s0,0,.02,0h.04s.06,0,.1,0h.06s.02,0,.03,0h.16V0h0Zm-9.3.32c-1.93.13-3.88.31-5.8.53l1.1,9.65c.21-.02.42-.05.62-.07,0,0,0,0,0,0,.01,0,.02,0,.04,0,0,0,.01,0,.02,0,.01,0,.02,0,.03,0,.01,0,.03,0,.04,0h0s.03,0,.04,0h0s.03,0,.04,0h0s.03,0,.05,0h0c1.48-.16,2.98-.29,4.47-.39l-.67-9.69h0Zm-9.26.97c-1.92.27-3.85.59-5.75.94l1.78,9.55c.41-.08.82-.15,1.23-.22h0s.03,0,.04,0c0,0,0,0,0,0,.01,0,.03,0,.04,0,.01,0,.03,0,.04,0,0,0,0,0,0,0,1.31-.23,2.63-.44,3.96-.62l-1.35-9.62h0Zm-9.18,1.62c-1.89.4-3.8.86-5.67,1.34l2.45,9.4c.47-.12.94-.24,1.41-.36h0s.03,0,.04-.01h0s.03,0,.04-.01h0s.03,0,.04-.01c0,0,0,0,0,0,.02,0,.03,0,.04-.01,0,0,0,0,.01,0h.03s.02-.01.02-.01c0,0,.01,0,.02,0,.01,0,.02,0,.03,0,0,0,0,0,.01,0,.01,0,.02,0,.03,0,0,0,0,0,0,0,.01,0,.02,0,.04,0,0,0,0,0,0,0,.92-.23,1.85-.44,2.78-.64,0,0,.01,0,.02,0h.02s.01,0,.02-.01c0,0,.01,0,.02,0,0,0,.02,0,.03,0,0,0,0,0,.01,0,.01,0,.02,0,.04,0h0s.03,0,.04-.01h0c.15-.03.31-.07.46-.1l-2.03-9.5h0Zm-9.04,2.27c-1.86.54-3.73,1.12-5.56,1.74l3.11,9.2s.08-.03.12-.04h0s.05-.02.07-.03c0,0,.01,0,.02,0,.01,0,.02,0,.04-.01.02,0,.04-.01.05-.02,0,0,.02,0,.03,0,.02,0,.04-.01.06-.02,0,0,.01,0,.02,0,.02,0,.04-.01.06-.02,0,0,0,0,0,0,.02,0,.05-.02.07-.02,0,0,0,0,0,0,.03,0,.05-.02.08-.03h0c1.14-.38,2.29-.74,3.45-1.09,0,0,0,0,0,0,.03,0,.05-.01.07-.02,0,0,0,0,.01,0,.02,0,.04-.01.07-.02,0,0,.01,0,.02,0,.02,0,.03,0,.05-.01.02,0,.03,0,.05-.01.01,0,.02,0,.03,0,.25-.07.5-.15.75-.22l-2.7-9.33h0Zm-8.86,2.91c-1.81.67-3.64,1.39-5.42,2.13l3.75,8.96s.05-.02.08-.03h0c.1-.04.21-.09.31-.13,0,0,0,0,0,0,.02,0,.05-.02.07-.03,0,0,0,0,0,0,.03-.01.04-.02.07-.03h0s.05-.02.07-.03c0,0,0,0,0,0,.02,0,.05-.02.07-.03,0,0,0,0,0,0,.02,0,.05-.02.07-.03,0,0,0,0,.01,0,.02,0,.04-.02.07-.03,0,0,0,0,.01,0,.02,0,.04-.02.06-.03,0,0,.01,0,.02,0,.02,0,.05-.02.07-.03,0,0,0,0,0,0,.02,0,.04-.02.06-.03,0,0,0,0,.01,0,.02,0,.04-.02.06-.03h.02s.04-.02.06-.03c0,0,.01,0,.02,0,.02,0,.04-.02.06-.02,0,0,.01,0,.02,0,.02,0,.04-.01.06-.02,0,0,.01,0,.02,0,.01,0,.04-.02.05-.02,0,0,.01,0,.02,0,.02,0,.04-.01.06-.02,0,0,.02,0,.02,0,.02,0,.04-.02.06-.02,0,0,.02,0,.02,0,.02,0,.04-.02.06-.02,0,0,.02,0,.02,0,.02,0,.04-.01.05-.02h.02s.03-.02.05-.03c.01,0,.02,0,.03-.01.01,0,.03-.01.05-.02,0,0,.02,0,.03-.01.02,0,.04-.01.06-.02,0,0,.02,0,.03-.01.02,0,.04-.02.06-.02,0,0,.02,0,.02,0,.01,0,.04-.02.05-.02,0,0,.02,0,.03-.01.02,0,.03-.01.05-.02,0,0,.02,0,.02-.01.02,0,.03-.01.05-.02,0,0,.02,0,.02,0,.02,0,.04-.02.06-.02,0,0,.01,0,.02,0,.02,0,.04-.01.06-.02,0,0,.02,0,.02,0,.02,0,.04-.02.06-.02h.02s.03-.02.05-.03c0,0,.02,0,.02,0,.02,0,.04-.02.06-.02,0,0,.01,0,.02,0,.02,0,.04-.02.06-.02,0,0,.01,0,.02,0,.02,0,.04-.02.06-.02,0,0,.01,0,.02,0,.02,0,.04-.02.06-.03,0,0,0,0,.01,0,.02,0,.04-.02.07-.03,0,0,0,0,0,0,.03-.01.04-.02.07-.03,0,0,0,0,.01,0,.02,0,.05-.02.07-.03,0,0,0,0,.01,0,.02,0,.05-.02.07-.03,0,0,0,0,.01,0,.03,0,.05-.02.07-.03,0,0,0,0,0,0,.08-.03.16-.06.23-.09h0c.47-.18.95-.36,1.42-.53l-3.35-9.12h0Zm-8.63,3.53c-1.76.79-3.53,1.64-5.26,2.51l4.38,8.67c.51-.26,1.02-.51,1.54-.76h0s.05-.03.08-.04h0s.05-.03.08-.04h0c.1-.05.19-.09.29-.14h0c.95-.46,1.91-.9,2.87-1.34l-3.99-8.86h0Zm-8.36,4.13c-1.7.92-3.41,1.88-5.07,2.88l4.98,8.34c.59-.35,1.18-.7,1.77-1.04,0,0,0,0,.01,0,.02-.01.04-.02.06-.04,0,0,0,0,.02,0,.02-.01.04-.02.06-.03,0,0,.02,0,.02-.01.01,0,.02-.01.03-.02.01,0,.03-.02.04-.02.01,0,.02-.01.03-.02.02,0,.03-.02.05-.03,0,0,.02-.01.03-.02.01,0,.03-.02.04-.02.01,0,.02-.01.03-.02.01,0,.03-.02.05-.03,0,0,.01,0,.02-.01.02-.01.03-.02.05-.03,0,0,.01,0,.02-.01.02,0,.04-.02.06-.03,0,0,0,0,.01,0,.02-.01.04-.02.06-.03,0,0,0,0,.01,0,.02-.01.04-.02.06-.04,0,0,0,0,0,0,.07-.04.14-.08.22-.12,0,0,0,0,0,0,.02-.01.05-.03.07-.04,0,0,0,0,0,0,.29-.16.59-.33.88-.49t0,0s.05-.03.07-.04c0,0,0,0,0,0,.05-.03.1-.05.14-.08,0,0,0,0,0,0,.02-.01.04-.02.06-.03,0,0,0,0,.01,0,.02-.01.04-.02.06-.03,0,0,.02,0,.02-.01.02,0,.04-.02.05-.03,0,0,.02,0,.03-.01.01,0,.02-.01.04-.02.01,0,.03-.02.04-.02,0,0,.02-.01.03-.01.02-.01.04-.02.06-.03,0,0,0,0,.01,0,.11-.06.22-.12.33-.18l-4.61-8.55h0Zm-8.04,4.71c-1.63,1.03-3.26,2.12-4.85,3.22l5.55,7.97c.12-.09.24-.17.37-.25,0,0,.01,0,.02-.01.02-.01.03-.02.05-.03,0,0,.02-.01.03-.02.01-.01.03-.02.04-.03,0,0,.02-.01.03-.02l.03-.02s.03-.02.04-.03c0,0,.02-.01.02-.02.02-.01.03-.02.05-.03,0,0,.01,0,.02-.01.02-.01.04-.03.05-.04,0,0,.01,0,.02-.01.02-.01.04-.03.06-.04,0,0,0,0,.01,0,.02-.01.04-.03.06-.04,0,0,0,0,0,0,.02-.02.04-.03.06-.04,0,0,0,0,0,0,.02-.02.04-.03.06-.04,0,0,0,0,0,0,.02-.01.04-.03.06-.04,0,0,0,0,0,0,.02-.02.04-.03.06-.04,0,0,0,0,0,0,.12-.08.23-.16.35-.24h0c.11-.08.23-.16.35-.23,0,0,0,0,0,0,.02-.01.05-.03.07-.05,0,0,0,0,0,0,.09-.06.18-.12.28-.18,0,0,0,0,0,0,.02-.01.04-.03.06-.04,0,0,0,0,0,0,.02-.01.04-.03.06-.04,0,0,0,0,0,0,.02-.01.04-.03.06-.04,0,0,0,0,0,0,.02-.01.04-.03.07-.04h0s.04-.03.06-.04c0,0,0,0,0,0,.02-.01.04-.03.06-.04,0,0,0,0,.01,0,.02-.01.04-.03.06-.04,0,0,0,0,.01,0,.02-.01.04-.02.06-.04,0,0,.01,0,.02-.01.02-.01.04-.03.05-.04,0,0,.01,0,.02-.01.02-.01.03-.02.05-.03,0,0,.02-.01.03-.02.02-.01.03-.02.04-.03,0,0,.01,0,.02-.01l.05-.03s.02-.01.03-.02c.02-.01.03-.02.05-.03,0,0,.02-.01.03-.02.02-.01.03-.02.04-.03.01,0,.02-.01.03-.02,0,0,.02-.01.03-.02.02-.01.03-.02.05-.03,0,0,.02-.01.02-.01.02-.01.04-.02.06-.04,0,0,0,0,.02-.01.02-.01.04-.03.06-.04,0,0,0,0,0,0,.34-.22.68-.44,1.02-.65l-5.2-8.21h0Zm-7.69,5.26c-1.56,1.15-3.11,2.34-4.61,3.56l6.1,7.56c.24-.19.48-.39.72-.58,0,0,0,0,0,0,.02-.02.04-.03.06-.05,0,0,0,0,0,0,.02-.01.04-.03.06-.05,0,0,0,0,0,0,.02-.01.04-.03.06-.05,0,0,0,0,.01,0,.02-.01.04-.03.05-.04,0,0,0,0,.01,0,.01-.01.03-.03.05-.04,0,0,.01,0,.02-.01.02-.01.03-.03.05-.04,0,0,.01,0,.02-.01.01-.01.03-.03.05-.04,0,0,.01-.01.02-.02.02-.01.03-.02.05-.04,0,0,.01-.01.02-.02.01-.01.03-.02.04-.04,0,0,.02-.01.03-.02,0,0,.03-.02.03-.03.01,0,.02-.02.03-.03,0,0,.02-.02.03-.02.01-.01.03-.02.04-.03,0,0,.02-.02.03-.02.01,0,.02-.02.03-.02.01,0,.02-.02.04-.03.01,0,.02-.02.03-.03,0,0,.02-.01.02-.02.02-.01.03-.02.05-.04,0,0,.01,0,.02-.01.02-.01.04-.03.05-.04,0,0,0,0,.02-.01.02-.01.04-.03.06-.04,0,0,0,0,.01-.01.02-.02.04-.03.06-.05h0c.46-.36.92-.71,1.39-1.06h0s.05-.04.07-.05h0s.04-.04.06-.05c0,0,0,0,0,0,.02-.02.04-.03.06-.05,0,0,0,0,.01,0,.02-.01.04-.03.06-.04,0,0,.01,0,.02-.01.01,0,.02-.02.03-.03,0,0,0,0,.02-.01.02-.01.04-.03.06-.04,0,0,.01-.01.02-.01.02-.01.03-.02.05-.04,0,0,.01,0,.02-.02.01-.01.03-.02.04-.03,0,0,.02-.02.03-.02.01,0,.02-.02.03-.02.01,0,.03-.02.04-.03,0,0,.02-.01.02-.02.02-.01.03-.02.05-.03,0,0,.02-.01.02-.02.02-.01.03-.02.05-.04,0,0,.01,0,.02-.01.02-.01.04-.03.05-.04,0,0,0,0,.01,0,.02-.01.04-.03.06-.04,0,0,0,0,0,0,.02-.02.04-.03.06-.04,0,0,0,0,0,0l-5.76-7.82h0Zm-7.3,5.79c-1.47,1.25-2.93,2.55-4.35,3.87l6.61,7.11c1.32-1.23,2.66-2.42,4.03-3.59l-6.3-7.4h0Zm-6.88,6.28c-1.38,1.35-2.75,2.75-4.07,4.16l7.1,6.63c.46-.49.92-.98,1.39-1.47,0,0,0,0,0,0,.02-.02.04-.04.05-.06,0,0,0,0,0,0,.02-.02.03-.04.05-.05,0,0,0,0,0,0,.02-.02.04-.04.05-.05,0,0,0,0,0,0,.02-.02.03-.03.05-.05,0,0,0,0,0-.01.01-.01.03-.03.04-.05,0,0,0,0,.01-.01.01-.01.03-.03.04-.05,0,0,.01-.01.02-.02.01-.01.03-.03.04-.04,0,0,.01-.01.02-.02.01-.01.03-.03.04-.04,0,0,.01-.01.02-.02.01-.01.03-.03.04-.04,0,0,.02-.02.02-.03s.02-.02.03-.03l.03-.03s.02-.02.02-.03c.01-.01.02-.03.04-.04,0,0,.01-.01.02-.02.01-.01.03-.03.04-.04,0,0,.01-.01.02-.02.01-.01.02-.02.03-.03,0,0,0,0,0,0,.02-.02.04-.04.06-.06,0,0,0,0,0,0l.05-.05s0,0,0,0c.02-.02.04-.04.06-.06h0c.46-.48.93-.94,1.4-1.4l-6.8-6.94h0Zm-6.42,6.75c-1.28,1.45-2.55,2.94-3.77,4.44l7.54,6.12c.47-.58.94-1.15,1.42-1.71h0s.04-.05.06-.07c0,0,0,0,0,0,.02-.02.03-.04.05-.06,0,0,0,0,0-.01.02-.02.03-.04.05-.05,0,0,0,0,.01-.01.02-.02.03-.04.05-.06,0,0,0,0,0-.01.03-.03.06-.07.09-.1,0,0,0-.01.01-.01.01-.02.03-.04.04-.05,0,0,.01-.01.02-.02.01-.02.03-.03.04-.05,0,0,.01-.01.02-.02.01-.02.03-.03.04-.05,0,0,0-.01.02-.02.01-.01.02-.03.03-.04,0-.01.02-.02.03-.03,0,0,.02-.02.02-.03,0-.01.02-.03.03-.04l.02-.03s.02-.02.03-.04c0-.01.02-.02.03-.03,0,0,.02-.02.02-.03.01-.01.02-.03.03-.04.01-.01.02-.02.02-.03,0-.01.02-.02.03-.03,0-.01.02-.02.03-.03,0,0,.01-.02.02-.02.01-.01.02-.03.04-.04,0,0,.01-.01.02-.02.01-.01.02-.03.04-.04,0,0,.01-.01.02-.02.01-.01.03-.03.04-.04,0,0,.01-.01.02-.02.01-.01.02-.03.03-.04,0,0,.01-.02.02-.02,0-.01.03-.03.04-.04,0,0,0,0,.01-.01.02-.02.03-.03.04-.05,0,0,.01-.01.02-.02.01-.01.03-.03.04-.05,0,0,.01-.01.02-.02.02-.02.03-.03.04-.05,0,0,.01-.01.02-.02.01-.01.03-.03.04-.05,0,0,0,0,.01-.01.02-.02.03-.03.04-.05,0,0,0,0,.01-.01.02-.02.02-.03.04-.05,0,0,0,0,.01-.01.02-.02.03-.03.04-.05,0,0,0,0,.01-.01.02-.02.03-.03.04-.05,0,0,0,0,.01-.01.02-.02.03-.03.05-.05,0,0,0,0,.01-.01.02-.02.03-.03.05-.05,0,0,0,0,0-.01.02-.02.03-.04.05-.05,0,0,0,0,0,0,.02-.02.03-.04.05-.06,0,0,0,0,0,0,.02-.02.04-.04.05-.06,0,0,0,0,0,0,.02-.02.03-.04.05-.06,0,0,0,0,0,0,.02-.02.03-.04.05-.06,0,0,0,0,0,0,.02-.02.03-.04.05-.06,0,0,0,0,0,0,.02-.02.03-.04.05-.06t0,0l-7.27-6.44h0Zm-5.93,7.18c-1.18,1.53-2.34,3.11-3.45,4.69l7.95,5.58c.52-.74,1.04-1.47,1.57-2.19,0,0,0,0,0,0,.02-.02.03-.04.05-.06,0,0,0,0,0,0,.02-.02.03-.04.05-.06,0,0,0,0,0,0,.02-.02.03-.04.05-.06,0,0,0,0,0,0,.03-.04.06-.09.1-.13,0,0,0,0,0,0,.02-.02.03-.04.04-.06,0,0,0,0,0-.01.01-.02.03-.04.04-.06,0,0,0,0,0-.01.02-.02.03-.03.04-.06,0,0,0,0,0-.01.01-.02.03-.04.04-.06,0,0,0,0,0,0,.01-.02.03-.03.04-.05,0,0,0,0,0-.01.01-.02.03-.04.04-.05,0,0,0,0,.01-.01.01-.02.03-.04.04-.05,0,0,0-.01.01-.02.01-.02.03-.03.04-.05,0,0,0-.01.01-.02.01-.02.03-.04.04-.05,0,0,0-.01.01-.02.01-.02.02-.03.04-.05,0,0,0-.01.01-.02,0-.01.02-.03.03-.04,0,0,.01-.02.02-.02.01-.02.02-.03.03-.04,0,0,0-.01.01-.02.01-.02.03-.03.04-.05,0,0,.01-.01.02-.02.01-.02.02-.03.04-.05,0,0,.01-.01.02-.02.01-.02.02-.03.04-.05,0,0,.01-.01.02-.02.01-.02.02-.03.03-.04,0,0,.01-.01.02-.02,0-.01.02-.03.03-.04,0,0,.01-.01.02-.02.01-.02.02-.03.03-.04,0,0,.01-.01.02-.02.01-.02.03-.03.04-.05,0,0,.01-.01.02-.02.01-.02.02-.03.04-.05,0,0,0-.01.01-.02.01-.02.03-.04.04-.05,0,0,0,0,.01-.01.01-.02.03-.04.04-.05,0,0,0,0,0-.01.01-.02.03-.03.04-.05,0,0,0,0,0,0,.01-.02.03-.04.04-.06,0,0,0,0,0-.01.02-.02.03-.04.04-.06,0,0,0,0,0,0,.01-.02.03-.04.05-.06,0,0,0,0,0,0,.02-.02.03-.04.05-.06,0,0,0,0,0,0l-7.7-5.92h0Zm-5.41,7.58c-1.07,1.61-2.11,3.27-3.11,4.92l8.33,5c.82-1.37,1.68-2.73,2.55-4.07h0s.03-.04.04-.06c0,0,0-.01.01-.02.01-.02.02-.04.03-.05,0,0,.01-.02.02-.02,0-.01.02-.03.03-.05,0-.01.01-.02.02-.03,0,0,0-.01.01-.02.01-.02.03-.04.04-.06h0c.04-.06.08-.12.12-.18l-8.1-5.36h0Zm-4.87,7.94c-.95,1.68-1.88,3.41-2.75,5.13l8.66,4.4s.04-.08.06-.11h0s.02-.05.03-.07c0,0,0-.01,0-.02,0-.02.02-.03.02-.05,0-.01.01-.02.02-.03,0-.01.01-.02.02-.03,0-.02.02-.03.02-.05,0,0,0-.02.01-.03,0-.01.02-.03.02-.04l.02-.03s.02-.03.02-.04c0,0,0-.02.01-.03,0-.02.02-.03.03-.05,0,0,0-.01.01-.02,0-.02.02-.04.03-.06,0,0,0-.01,0-.02.01-.02.02-.04.03-.06,0,0,0-.01,0-.02,0-.02.02-.04.03-.06,0,0,0,0,0-.01.01-.02.02-.04.03-.06,0,0,0,0,0-.01.01-.02.02-.04.03-.06,0,0,0,0,0-.01.01-.02.02-.04.03-.06,0,0,0-.01,0-.02.01-.02.02-.04.03-.06v-.02s.03-.04.04-.06c0,0,0-.01,0-.02.01-.02.02-.04.03-.06,0,0,0-.01,0-.01,0-.02.02-.04.03-.06,0,0,0-.01,0-.02,0-.02.02-.04.03-.05v-.02s.03-.04.04-.06c0,0,0-.01.01-.02.01-.02.02-.03.03-.06,0,0,0-.01.01-.02,0-.02.02-.04.03-.06,0,0,0-.01.01-.02,0-.02.02-.03.02-.05,0-.01.01-.02.02-.03,0-.01.01-.03.02-.04,0-.01.01-.02.02-.04,0-.01.01-.02.02-.04l.02-.03s.02-.03.02-.05c0-.01.01-.02.02-.03,0-.01.02-.03.02-.05,0-.01.01-.02.02-.03,0-.01,0-.01.01-.02,0-.02.02-.04.03-.06,0,0,0-.01.01-.02l.03-.06s0-.01,0-.02c.01-.02.02-.04.03-.06,0,0,0-.01,0-.01.29-.54.58-1.08.88-1.62h0c.04-.07.07-.14.11-.2,0-.01,0-.02.02-.03,0-.02.02-.03.03-.04,0-.01.02-.03.02-.04,0,0,.01-.02.02-.03,0-.02.02-.03.03-.05,0,0,0-.01.01-.02.01-.02.02-.04.03-.06,0,0,0,0,0-.01.01-.02.02-.04.04-.06,0,0,0,0,0,0,.05-.1.11-.19.16-.29l-8.46-4.78h0Zm-4.3,8.27c-.83,1.75-1.63,3.53-2.38,5.32l8.95,3.78c.06-.15.13-.31.2-.47h0c.04-.1.09-.21.13-.31h0s.02-.05.03-.08c0,0,0,0,0,0,.04-.1.09-.2.13-.31,0,0,0,0,0,0,.01-.02.02-.05.03-.07,0,0,0,0,0,0,.54-1.24,1.1-2.46,1.68-3.68l-8.77-4.17h0Zm-3.7,8.55c-.71,1.8-1.38,3.64-2,5.47l9.19,3.13v-.03s.02-.02.02-.03c0-.01,0-.02.01-.03,0-.02.01-.03.02-.05,0-.01,0-.02.01-.03,0-.02.01-.04.02-.06,0,0,0-.02,0-.02,0-.02.01-.04.02-.05,0,0,0-.02,0-.02,0-.02.01-.03.02-.06,0,0,0-.01,0-.01,0-.02.02-.04.02-.07,0,0,0,0,0-.01,0-.02.02-.05.02-.07,0,0,0,0,0-.01,0-.02.02-.05.02-.07,0,0,0,0,0-.01,0-.02.02-.05.02-.07,0,0,0,0,0,0,0-.03.02-.05.03-.08h0s.02-.05.03-.08c0,0,0,0,0,0,0-.03.02-.05.03-.08,0,0,0,0,0,0,.04-.11.07-.21.11-.32h0s.02-.05.03-.08t0,0c.44-1.24.9-2.49,1.38-3.71l-9.05-3.54h0Zm-3.09,8.8c-.58,1.85-1.12,3.73-1.61,5.6l9.39,2.47c.18-.69.37-1.38.56-2.06,0,0,0,0,0-.01,0-.02.01-.05.02-.07,0,0,0-.01,0-.02,0-.02.01-.04.02-.06,0-.01,0-.02,0-.03,0-.01,0-.03.01-.04,0-.02,0-.03.01-.05,0-.01,0-.02.01-.03,0-.02,0-.03.01-.05,0-.01,0-.02,0-.03,0-.02,0-.03.01-.04,0-.01,0-.02,0-.03,0-.02,0-.03.01-.05,0,0,0-.01,0-.02,0-.02.01-.04.02-.06,0,0,0-.01,0-.02,0-.02.01-.04.02-.07,0,0,0-.01,0-.01,0-.02.01-.05.02-.07,0,0,0,0,0,0,.02-.08.05-.16.07-.24h0c.21-.7.42-1.4.63-2.1l-9.27-2.89h0Zm-2.45,8.99c-.44,1.88-.85,3.8-1.21,5.7l9.55,1.8c.17-.89.34-1.76.53-2.65,0,0,0,0,0,0,0-.01,0-.02,0-.03,0,0,0,0,0-.01,0,0,0-.02,0-.03,0,0,0-.01,0-.02,0,0,0-.01,0-.02v-.03s0,0,0-.01c0-.01,0-.03,0-.04h0c.17-.82.35-1.63.54-2.43l-9.46-2.22h0Zm-1.81,9.14c-.31,1.91-.58,3.85-.8,5.77l9.65,1.12c.21-1.79.46-3.58.74-5.35l-9.59-1.55h0Zm-1.16,9.24c-.17,1.92-.31,3.88-.39,5.81l9.7.45c.07-1.43.16-2.86.27-4.28h0c0-.07.01-.13.02-.19h0s0-.03,0-.05h0s0-.03,0-.05h0c0-.07.01-.13.02-.2h0s0-.03,0-.05h0s0-.03,0-.05h0s0-.04,0-.05h0c0-.08.01-.16.02-.24h0c0-.08.01-.15.02-.23l-9.67-.87h0ZM.03,129.53c-.02.89-.03,1.79-.03,2.68,0,1.04.01,2.1.04,3.13l9.71-.23h0c-.02-.7-.03-1.4-.03-2.09,0,0,0,0,0,0v-.04h0s0-.03,0-.04h0c0-.08,0-.15,0-.22h0v-.05s0-.02,0-.03v-.16s0-.01,0-.02v-.18h0v-.06h0v-.15h0v-.09s0-.04,0-.06v-.09s0-.04,0-.06v-.07s0-.02,0-.04v-.07s0-.04,0-.05v-.04s0-.03,0-.03v-.03s0-.04,0-.05v-.04s0-.02,0-.03c0-.02,0-.04,0-.06v-.02s0-.03,0-.04v-.02s0-.05,0-.07c0,0,0-.01,0-.02,0-.01,0-.03,0-.04v-.02s0-.05,0-.07c0,0,0-.02,0-.03,0-.02,0-.03,0-.05,0-.01,0-.03,0-.04s0-.02,0-.03v-.03s0-.02,0-.04c0-.02,0-.03,0-.05v-.02s0-.04,0-.06h0s0-.05,0-.07h0c0-.27,0-.53.01-.78l-9.71-.19H.03Zm9.84,8.83l-9.7.48c.1,1.93.23,3.89.41,5.81l9.67-.9c-.17-1.78-.29-3.58-.38-5.38h0Zm.73,8.6l-9.64,1.16c.23,1.92.51,3.86.82,5.77l9.58-1.58c-.28-1.68-.52-3.36-.73-5.06,0,0,0,0,0,0,0-.01,0-.02,0-.04,0,0,0,0,0-.01,0-.01,0-.02,0-.03,0,0,0,0,0-.02,0,0,0-.02,0-.03,0,0,0-.01,0-.02,0,0,0-.01,0-.02,0-.04,0-.08-.01-.11h0Zm1.33,8.53l-9.54,1.83c.37,1.9.78,3.82,1.23,5.7l9.45-2.26c-.12-.49-.23-.98-.34-1.47h0s0-.03,0-.04c0,0,0,0,0-.01,0,0,0-.02,0-.03,0,0,0,0,0-.01,0,0,0-.02,0-.03,0,0,0-.01,0-.02,0,0,0-.02,0-.02,0,0,0-.02,0-.03,0,0,0-.01,0-.02,0-.01,0-.03,0-.04h0s0-.03-.01-.05h0s0-.03,0-.04h0s0-.03,0-.05h0s0-.03,0-.05h0c-.16-.72-.31-1.43-.45-2.15h0s0-.03,0-.05h0s0-.03,0-.05h0s-.02-.1-.03-.14h0s0-.03,0-.04c0,0,0-.02,0-.02,0,0,0-.02,0-.02,0,0,0-.02,0-.02,0,0,0-.01,0-.02,0,0,0-.02,0-.03,0,0,0-.01,0-.02,0,0,0-.02,0-.03,0,0,0,0,0-.01,0-.01,0-.02,0-.03,0,0,0,0,0,0-.05-.25-.1-.49-.15-.75h0Zm1.93,8.41l-9.38,2.51c.5,1.87,1.05,3.75,1.63,5.6l9.26-2.92s0,0,0,0c0-.02-.01-.04-.02-.06,0,0,0,0,0-.01,0-.02-.01-.04-.02-.06,0,0,0-.02,0-.03,0-.02-.01-.04-.02-.05,0-.01,0-.02,0-.03,0-.01,0-.02-.01-.04l-.02-.05s0-.02,0-.02c0-.02-.01-.04-.02-.06,0,0,0-.01,0-.02,0-.03-.02-.05-.02-.08h0c-.48-1.54-.92-3.09-1.34-4.65h0Zm2.52,8.26l-9.18,3.17c.63,1.83,1.31,3.67,2.02,5.47l9.03-3.57c-.33-.83-.65-1.67-.96-2.52,0,0,0,0,0,0,0-.03-.02-.05-.03-.08,0,0,0,0,0,0-.03-.08-.06-.16-.09-.24,0,0,0,0,0,0,0-.03-.02-.05-.03-.08,0,0,0,0,0,0,0-.03-.02-.05-.03-.07,0,0,0,0,0,0,0-.03-.02-.05-.03-.07,0,0,0,0,0,0,0-.03-.02-.04-.03-.07,0,0,0,0,0,0,0-.02-.02-.05-.02-.07,0,0,0,0,0-.01,0-.02-.02-.05-.02-.07,0,0,0-.01,0-.02,0-.02-.01-.04-.02-.06,0,0,0-.01,0-.02,0-.02-.02-.04-.02-.06,0,0,0-.02,0-.02,0-.01-.01-.03-.02-.05,0-.01,0-.02-.01-.03,0-.01-.01-.03-.02-.04,0-.01,0-.02-.01-.04,0-.01,0-.03-.02-.04,0-.01,0-.02-.01-.04,0,0,0-.02,0-.02,0-.02-.02-.04-.02-.06,0,0,0,0,0,0,0-.03-.02-.05-.03-.08h0c-.14-.39-.27-.78-.41-1.16h0Zm3.1,8.06l-8.94,3.81c.76,1.78,1.57,3.56,2.4,5.31l8.76-4.2c-.57-1.18-1.11-2.37-1.64-3.57h0s-.02-.06-.04-.09h0s-.01-.03-.02-.04c0,0,0,0,0,0-.01-.02-.02-.05-.03-.07,0-.01,0-.02-.02-.04,0-.01-.01-.03-.02-.04,0-.02-.01-.03-.02-.05v-.03s-.03-.03-.03-.05c0,0,0-.01,0-.02,0-.02-.02-.04-.03-.06,0,0,0,0,0-.01,0-.02-.02-.05-.03-.07,0,0,0,0,0,0-.11-.26-.22-.52-.33-.77h0Zm3.67,7.82l-8.64,4.43c.88,1.72,1.81,3.44,2.77,5.12l8.44-4.81c-.06-.1-.11-.19-.16-.29,0,0,0,0,0,0-.01-.02-.02-.04-.04-.07,0,0,0,0,0,0-.01-.02-.02-.04-.04-.06,0,0,0,0,0-.01-.01-.02-.02-.04-.03-.06,0,0,0-.01,0-.02,0-.02-.02-.03-.03-.05,0,0,0-.02-.01-.02,0-.02-.02-.03-.03-.05,0,0-.01-.02-.02-.03,0-.01-.02-.03-.03-.05,0-.01-.01-.02-.02-.03,0-.02-.01-.03-.02-.04,0-.01-.01-.02-.02-.03,0-.01-.01-.02-.02-.03,0-.02-.02-.03-.03-.05,0,0-.01-.02-.01-.03-.01-.02-.02-.04-.03-.05,0-.01,0-.01-.01-.02-.01-.02-.02-.04-.04-.06,0,0,0,0,0-.01-.02-.04-.04-.08-.06-.12,0,0,0-.01,0-.02-.01-.02-.02-.04-.03-.06,0,0,0,0,0-.02-.01-.02-.02-.04-.03-.06,0,0,0-.01-.01-.02-.01-.02-.02-.04-.03-.06,0,0,0-.01-.01-.02l-.03-.05s-.01-.02-.02-.03l-.02-.03s-.02-.03-.02-.04c0-.01-.01-.02-.02-.04,0-.01-.01-.02-.02-.03,0-.02-.02-.03-.03-.05,0-.01,0-.02-.02-.03,0-.01-.02-.03-.02-.04,0-.01-.01-.03-.02-.04,0,0,0-.02-.01-.03,0-.02-.02-.03-.03-.05v-.02s-.03-.03-.04-.05v-.02s-.03-.04-.04-.06c0,0,0-.01,0-.02-.01-.02-.02-.04-.03-.06,0,0,0,0,0,0-.01-.02-.02-.05-.04-.07,0,0,0,0,0,0-.01-.02-.03-.05-.04-.07,0,0,0,0,0,0-.01-.02-.02-.04-.04-.07,0,0,0,0,0,0-.43-.79-.85-1.58-1.26-2.39h0Zm4.21,7.54l-8.31,5.03c1,1.65,2.05,3.31,3.12,4.91l8.08-5.39c-.23-.35-.47-.7-.7-1.05,0,0,0,0,0,0-.01-.02-.03-.04-.04-.07,0,0,0,0,0,0-.01-.02-.03-.04-.04-.07,0,0,0,0,0,0-.01-.02-.03-.04-.04-.07,0,0,0,0,0,0-.01-.02-.03-.04-.04-.07,0,0,0,0,0,0-.01-.02-.03-.04-.04-.06,0,0,0,0,0-.01-.01-.02-.03-.04-.04-.06,0,0,0-.01-.01-.02-.01-.02-.02-.03-.03-.05,0,0,0-.01-.01-.02-.01-.02-.02-.04-.03-.05,0,0,0-.01-.01-.02-.01-.02-.02-.02-.03-.04,0-.01-.01-.02-.02-.03,0-.01-.01-.02-.02-.04l-.02-.04s-.01-.02-.02-.03c0,0-.01-.02-.02-.03-.01-.02-.02-.03-.03-.04,0-.01-.01-.02-.02-.03,0-.01-.02-.03-.02-.04,0-.01-.02-.03-.02-.04,0,0,0-.01-.01-.02-.01-.02-.02-.04-.04-.06,0,0,0,0,0-.01l-.04-.06s0,0,0-.01l-.05-.07h0c-.39-.61-.77-1.22-1.15-1.84,0,0,0-.01-.01-.02-.01-.02-.02-.04-.03-.06,0-.01,0-.01-.02-.02,0-.02-.02-.03-.03-.05,0-.01-.01-.02-.02-.03,0-.01-.01-.02-.02-.04,0-.01-.02-.03-.02-.04,0,0,0-.01-.01-.02-.01-.02-.02-.04-.03-.05,0,0,0-.01-.01-.02-.01-.02-.02-.04-.04-.06,0,0,0,0,0-.01-.01-.02-.02-.04-.04-.06,0,0,0,0,0,0h0Zm4.73,7.22l-7.94,5.6c1.11,1.58,2.28,3.15,3.46,4.68l7.68-5.95s0,0,0,0c-.02-.02-.03-.04-.05-.06,0,0,0,0,0,0-.02-.02-.03-.04-.05-.06,0,0,0,0,0,0-.02-.02-.03-.04-.05-.06h0s-.07-.09-.1-.13c0,0,0,0,0,0-.02-.02-.03-.04-.05-.06,0,0,0,0,0,0-.01-.02-.03-.04-.04-.06,0,0,0,0,0,0-.02-.02-.03-.04-.04-.06,0,0,0,0-.01-.01-.01-.02-.03-.04-.04-.06h0s-.02-.04-.04-.06c0,0,0-.01-.01-.01-.01-.02-.03-.04-.04-.05,0,0,0,0-.01-.01-.01-.02-.03-.04-.04-.05,0,0-.01-.01-.02-.02-.01-.02-.02-.03-.04-.05l-.02-.02s-.02-.03-.04-.05c0,0-.01-.02-.02-.02,0-.01-.02-.03-.03-.04,0,0-.01-.02-.02-.03,0-.01-.02-.02-.03-.04,0-.01-.02-.02-.03-.03,0,0-.02-.02-.02-.03,0-.01-.02-.02-.02-.03,0-.01-.02-.02-.03-.04,0,0-.01-.02-.02-.03,0-.01-.02-.03-.03-.04,0,0-.01-.02-.02-.03-.01-.02-.02-.03-.03-.04,0,0-.01-.02-.02-.03,0,0-.01-.02-.02-.03-.01-.01-.02-.03-.03-.04,0,0-.01-.02-.02-.03-.01-.01-.02-.03-.03-.04,0,0-.01-.02-.02-.03l-.03-.04s-.01-.02-.02-.03c0-.01-.02-.02-.02-.03,0-.01-.02-.03-.03-.04,0-.01-.02-.02-.02-.03,0,0-.01-.01-.02-.02-.01-.02-.03-.03-.04-.05,0,0,0-.01-.01-.02-.01-.02-.03-.04-.04-.05,0,0,0,0-.01-.02l-.04-.06s0-.01-.01-.02c-.01-.02-.03-.04-.04-.06,0,0,0,0,0-.01-.04-.06-.09-.12-.13-.18,0,0,0,0,0,0-.02-.02-.03-.04-.05-.06,0,0,0,0,0-.01-.02-.02-.03-.04-.05-.06,0,0,0,0,0-.01-.02-.02-.03-.05-.05-.07h0s-.05-.08-.08-.11c0,0,0,0,0-.01-.01-.02-.03-.04-.04-.06,0,0,0-.01-.01-.01-.01-.02-.03-.04-.04-.06,0,0,0,0-.01-.01-.01-.02-.03-.04-.04-.06,0,0,0-.01-.01-.02-.01-.02-.02-.03-.04-.05,0,0,0-.01-.02-.02,0-.01-.02-.03-.03-.04,0,0-.02-.02-.02-.03l-.02-.03s-.01-.02-.02-.03c-.01-.02-.02-.03-.03-.05l-.02-.02s-.02-.03-.03-.05c0,0-.01-.02-.02-.03,0-.01-.02-.03-.03-.04,0,0-.02-.02-.02-.03,0-.01-.02-.02-.02-.03,0-.01-.02-.02-.03-.04,0,0-.01-.02-.02-.03,0-.01-.02-.03-.03-.04,0,0-.01-.02-.02-.02-.01-.02-.02-.03-.03-.05,0,0-.01-.01-.02-.02-.01-.02-.02-.03-.03-.05,0,0,0-.01-.02-.02,0-.01-.02-.03-.03-.04,0,0-.01-.01-.02-.02-.01-.02-.02-.03-.04-.05,0,0,0-.01-.01-.02-.01-.02-.03-.04-.04-.06,0,0,0,0-.01-.01-.01-.02-.03-.04-.04-.06,0,0,0,0,0-.01-.02-.02-.03-.04-.04-.06,0,0,0,0,0,0-.13-.18-.26-.36-.39-.54h0Zm5.22,6.87l-7.52,6.15c1.22,1.5,2.49,2.99,3.78,4.43l7.25-6.47c-1.2-1.34-2.37-2.71-3.5-4.1h0Zm5.69,6.49l-7.07,6.66c1.32,1.41,2.7,2.8,4.08,4.15l6.78-6.96s0,0,0,0c-.01-.01-.03-.03-.04-.04,0,0-.01-.01-.02-.02-.01-.01-.03-.03-.04-.04,0,0-.01-.01-.02-.02-.01-.01-.03-.03-.04-.04,0,0-.02-.01-.02-.02,0,0-.02-.02-.03-.03-.01-.01-.02-.02-.04-.04,0,0-.02-.02-.02-.02-.01-.01-.03-.02-.04-.04,0,0-.02-.01-.02-.02-.01-.01-.03-.03-.04-.04,0,0-.02-.02-.02-.02-.01-.01-.03-.03-.04-.04,0,0-.02-.02-.02-.02,0-.01-.02-.02-.03-.03,0,0-.01-.01-.02-.02-.02-.02-.03-.03-.05-.05l-.02-.02-.05-.05s-.01-.01-.02-.02c-.02-.02-.03-.03-.05-.05,0,0,0,0-.02-.01-.02-.02-.03-.03-.05-.05,0,0,0,0-.01-.01-.02-.02-.04-.03-.05-.05,0,0,0,0,0,0-.01-.01-.02-.02-.03-.03,0,0,0,0-.01-.01-.02-.02-.03-.03-.05-.05,0,0-.01-.01-.01-.01-.02-.02-.03-.03-.05-.05,0,0,0,0-.01-.01l-.05-.05s-.01-.01-.02-.02c-.01-.01-.03-.03-.04-.04,0,0-.01-.01-.02-.02-.01-.01-.02-.02-.04-.04,0,0-.02-.02-.03-.03,0,0-.02-.02-.03-.03-.01-.01-.02-.02-.03-.03,0,0-.02-.02-.03-.03l-.02-.02s-.02-.03-.04-.04c0,0-.01-.01-.02-.02-.01-.01-.03-.03-.04-.04,0,0-.02-.02-.02-.02-.01-.01-.02-.02-.04-.04,0,0-.02-.02-.03-.03,0,0-.02-.02-.02-.03-.01-.01-.02-.02-.04-.04,0,0-.02-.02-.02-.02-.01-.01-.03-.03-.04-.04,0,0-.01-.01-.02-.02-.01-.01-.02-.03-.04-.04,0,0-.02-.02-.02-.02-.01-.01-.02-.02-.04-.04,0,0-.01-.01-.02-.02-.01-.01-.03-.03-.04-.04,0,0-.01-.01-.02-.02-.02-.02-.03-.03-.04-.04,0,0-.01-.01-.02-.02-.01-.01-.03-.03-.04-.04,0,0-.01-.01-.02-.02-.02-.02-.03-.03-.05-.05,0,0,0,0-.01-.01-.02-.02-.03-.03-.05-.05,0,0,0,0-.01-.01-.02-.02-.04-.04-.05-.05,0,0,0,0,0,0-.02-.02-.04-.04-.05-.05h0s-.04-.04-.05-.06c0,0,0,0,0,0-.02-.02-.04-.04-.05-.06,0,0,0,0,0,0-.02-.02-.04-.04-.05-.06,0,0,0,0,0,0-.02-.02-.04-.04-.06-.06,0,0,0,0,0,0-.47-.48-.94-.97-1.4-1.46h0Zm6.13,6.08l-6.59,7.14c1.42,1.31,2.89,2.61,4.36,3.85l6.27-7.42c-.41-.34-.81-.69-1.21-1.04,0,0,0,0,0,0-.02-.02-.04-.03-.05-.05,0,0,0,0-.01-.01-.02-.02-.03-.03-.05-.04,0,0,0,0-.01-.01-.02-.02-.03-.03-.05-.04,0,0,0,0-.01-.01-.01-.01-.03-.03-.04-.04,0,0-.01-.01-.02-.02-.01-.01-.02-.02-.04-.03,0,0-.02-.02-.03-.02-.01-.01-.02-.02-.04-.03l-.02-.02s-.03-.02-.04-.04c0,0-.02-.01-.02-.02-.01-.01-.03-.03-.04-.04,0,0-.02-.02-.03-.02,0,0-.02-.01-.02-.02-.01-.01-.03-.02-.04-.04,0,0-.01-.01-.02-.02-.02-.01-.03-.03-.05-.04,0,0-.01-.01-.02-.02-.02-.01-.03-.03-.05-.04,0,0-.01,0-.02-.01l-.06-.05h0s-.07-.06-.1-.09c0,0,0,0,0,0-.02-.02-.04-.04-.06-.05,0,0,0,0-.01,0-.02-.02-.04-.03-.06-.05,0,0,0,0,0,0-.02-.02-.04-.04-.06-.05h0c-.08-.08-.16-.15-.24-.22h0s-.04-.04-.06-.06h0s-.04-.04-.06-.06h0c-.45-.4-.89-.81-1.33-1.22h0Zm6.54,5.63l-6.07,7.58c1.51,1.21,3.06,2.4,4.62,3.54l5.74-7.84c-.2-.14-.39-.29-.59-.43h0s-.07-.05-.1-.08c-.02-.01-.02-.02-.04-.03,0,0-.02-.01-.03-.02-.01,0-.03-.02-.04-.03l-.03-.02s-.03-.02-.04-.03c0,0,0,0-.01-.01-.02-.01-.04-.03-.06-.04,0,0,0,0-.01,0-.02-.02-.04-.03-.06-.04,0,0,0,0,0,0-.02-.01-.04-.03-.06-.05,0,0,0,0,0,0-1.06-.79-2.1-1.6-3.13-2.42,0,0,0,0,0,0-.02-.02-.04-.03-.06-.05h0Zm6.92,5.16l-5.53,7.99c1.59,1.1,3.22,2.18,4.86,3.21l5.17-8.22c-1.52-.96-3.03-1.95-4.5-2.97h0Zm7.27,4.66l-4.95,8.36c1.66.99,3.37,1.95,5.08,2.86l4.58-8.57c-.64-.34-1.29-.7-1.93-1.05h0c-.05-.03-.1-.05-.15-.08,0,0,0,0,0,0-.02-.01-.05-.03-.07-.04,0,0,0,0-.01,0-.02-.01-.04-.02-.06-.03,0,0,0,0-.01,0-.02-.01-.04-.02-.06-.03,0,0-.01,0-.02,0-.02,0-.04-.02-.06-.03,0,0-.01,0-.02-.01-.02,0-.04-.02-.05-.03,0,0-.01,0-.02-.01-.02,0-.03-.02-.05-.03,0,0-.01,0-.02-.01-.02,0-.03-.02-.05-.03,0,0-.02,0-.02-.01-.02,0-.03-.02-.05-.03,0,0-.02,0-.02-.01-.02,0-.03-.02-.05-.03,0,0-.02,0-.03-.01-.01,0-.03-.02-.04-.03-.01,0-.02-.01-.03-.02-.01,0-.02-.01-.04-.02-.01,0-.02-.01-.04-.02-.01,0-.03-.01-.04-.02-.01,0-.02-.01-.03-.02-.01,0-.03-.02-.04-.02l-.03-.02s-.03-.02-.05-.03c0,0-.02-.01-.03-.02-.02,0-.03-.02-.05-.03,0,0-.02,0-.02-.01-.01,0-.03-.02-.04-.02-.01,0-.02-.01-.03-.02-.01,0-.03-.02-.04-.02,0,0-.02,0-.02-.01-.02,0-.03-.02-.05-.03,0,0-.02,0-.02-.01-.02,0-.04-.02-.05-.03,0,0-.02,0-.02-.01-.02,0-.04-.02-.05-.03,0,0-.02,0-.02-.01-.02,0-.04-.02-.05-.03,0,0-.01,0-.02-.01-.02,0-.04-.02-.06-.03,0,0,0,0-.01,0-.02-.01-.04-.02-.06-.03,0,0,0,0-.01,0-.02-.01-.04-.02-.06-.04,0,0,0,0-.01,0-.02-.01-.04-.02-.06-.04,0,0,0,0,0,0-.02-.01-.04-.03-.07-.04,0,0,0,0,0,0-.24-.14-.49-.28-.72-.43h0Zm7.58,4.14l-4.35,8.69c1.73.87,3.5,1.7,5.27,2.49l3.96-8.87c-.46-.21-.92-.42-1.38-.63,0,0,0,0,0,0-.02-.01-.05-.02-.07-.03,0,0,0,0,0,0-.02-.01-.05-.02-.07-.03,0,0,0,0,0,0-.05-.02-.09-.04-.14-.07,0,0,0,0-.01,0-.02,0-.04-.02-.06-.03,0,0-.01,0-.02,0-.02,0-.04-.02-.06-.03,0,0-.01,0-.02,0-.02,0-.04-.02-.06-.03,0,0-.01,0-.02,0-.02,0-.03-.02-.05-.02,0,0-.02,0-.03-.01-.01,0-.03-.01-.04-.02-.01,0-.02-.01-.03-.02-.01,0-.03-.01-.04-.02-.01,0-.02,0-.03-.01-.02,0-.03-.01-.05-.02-.01,0-.02,0-.03-.01-.01,0-.03-.02-.05-.02-.01,0-.02-.01-.04-.02-.01,0-.01,0-.02-.01-.02,0-.04-.02-.06-.03,0,0-.01,0-.02,0-.02-.01-.04-.02-.06-.03,0,0,0,0-.02,0-.02-.01-.05-.02-.07-.03,0,0,0,0,0,0-.07-.03-.14-.07-.21-.1h0s-.06-.03-.08-.04h0c-.67-.32-1.34-.65-2-.98h0Zm7.85,3.59l-3.72,8.97c1.79.74,3.61,1.45,5.43,2.11l3.32-9.13s-.05-.02-.08-.03c0,0,0,0,0,0-.03,0-.05-.02-.07-.03,0,0,0,0,0,0-.02,0-.05-.02-.07-.03,0,0,0,0-.01,0-.02,0-.05-.02-.07-.02,0,0-.01,0-.02,0-.02,0-.04-.01-.06-.02h-.02s-.04-.02-.05-.03c0,0-.02,0-.02,0-.02,0-.04-.01-.06-.02,0,0-.02,0-.03-.01-.02,0-.03-.01-.05-.02h-.03s-.02-.02-.04-.03c-.02,0-.03-.01-.05-.02-.01,0-.02,0-.03-.01-.02,0-.03-.01-.05-.02-.01,0-.02,0-.03-.01-.02,0-.04-.01-.05-.02-.01,0-.02,0-.03-.01-.04-.02-.08-.03-.12-.05,0,0-.01,0-.02,0-.02,0-.05-.02-.07-.03,0,0,0,0-.02,0-.02,0-.05-.02-.07-.03h-.01s-.05-.02-.07-.03c0,0,0,0-.01,0-.04-.02-.08-.03-.13-.05,0,0,0,0-.01,0-.02,0-.05-.02-.07-.03,0,0,0,0-.02,0-.02,0-.04-.02-.07-.02,0,0-.01,0-.02,0-.02,0-.04-.02-.06-.02,0,0-.02,0-.02,0l-.06-.02s-.01,0-.02,0c-.01,0-.03,0-.04-.01,0,0-.01,0-.02,0l-.06-.02s-.02,0-.02,0c-.02,0-.04-.01-.06-.02,0,0-.02,0-.02,0-.02,0-.04-.01-.05-.02-.01,0-.02,0-.03-.01-.01,0-.02,0-.04-.01-.01,0-.03-.01-.05-.02-.01,0-.02,0-.04-.01-.01,0-.03-.01-.04-.02-.01,0-.03-.01-.04-.02-.01,0-.03,0-.04-.01-.01,0-.03-.01-.04-.02-.01,0-.02,0-.04-.01s-.03-.01-.04-.02c-.01,0-.03-.01-.04-.01-.01,0-.02,0-.03-.01-.02,0-.03-.01-.05-.02-.01,0-.02,0-.03-.01-.02,0-.03-.01-.05-.02,0,0-.02,0-.03-.01-.01,0-.03-.01-.04-.02-.01,0-.02,0-.04-.01-.01,0-.03-.01-.04-.02-.01,0-.02,0-.03-.01-.01,0-.03-.01-.05-.02,0,0-.02,0-.02,0-.02,0-.04-.01-.06-.02,0,0-.02,0-.02,0-.02,0-.04-.02-.06-.02,0,0-.02,0-.02,0-.01,0-.04-.01-.05-.02,0,0-.02,0-.03-.01-.01,0-.03-.01-.05-.02,0,0-.02,0-.03-.01-.01,0-.04-.01-.05-.02,0,0-.02,0-.02,0-.02,0-.04-.02-.06-.02,0,0-.02,0-.02,0-.02,0-.04-.02-.06-.02,0,0-.02,0-.03-.01-.01,0-.04-.01-.05-.02,0,0-.02,0-.03-.01-.01,0-.03-.01-.04-.02h-.04s-.03-.03-.04-.03c0,0-.02,0-.03-.01-.02,0-.03-.01-.05-.02-.01,0-.02,0-.03-.01-.01,0-.04-.01-.05-.02-.01,0-.02,0-.03-.01-.01,0-.02,0-.04-.02s-.03-.01-.04-.02c-.01,0-.02,0-.03-.01-.02,0-.03-.01-.05-.02-.01,0-.02,0-.03-.01-.02,0-.04-.02-.06-.02,0,0-.01,0-.02,0-.04-.02-.08-.03-.12-.05h0s-.05-.02-.08-.03h0c-.22-.09-.44-.18-.66-.27h0Zm8.09,3.02l-3.08,9.21c1.83.61,3.71,1.19,5.57,1.72l2.67-9.34c-.66-.19-1.32-.38-1.97-.58,0,0,0,0,0,0-.02,0-.05-.01-.07-.02,0,0-.01,0-.02,0-.02,0-.04-.01-.06-.02-.01,0-.02,0-.03,0-.01,0-.02,0-.03-.01-.02,0-.04-.01-.05-.02,0,0-.02,0-.03,0-.02,0-.04-.01-.06-.02,0,0-.02,0-.02,0-.02,0-.04-.01-.06-.02,0,0-.01,0-.02,0-.02,0-.04-.01-.06-.02,0,0,0,0-.01,0-.02,0-.05-.01-.07-.02h-.01s-.05-.02-.07-.03c0,0,0,0,0,0-.83-.26-1.66-.52-2.48-.8h0Zm8.28,2.44l-2.42,9.41c1.87.48,3.78.93,5.67,1.32l2-9.51c-.56-.12-1.11-.24-1.66-.36h0s-.03,0-.04,0h0s-.03,0-.04-.01h0s-.02,0-.04-.01c0,0,0,0,0,0-.01,0-.03,0-.04,0h0s-.09-.02-.14-.03h0s-.03,0-.04-.01c0,0,0,0,0,0-.01,0-.02,0-.04,0,0,0,0,0-.01,0-.01,0-.02,0-.04,0h0s-.03,0-.04-.01h0c-.06-.02-.12-.03-.18-.04h0s-.03,0-.04-.01h0s-.03,0-.04-.01h0c-.94-.22-1.87-.45-2.8-.68h0Zm8.43,1.85l-1.74,9.56c1.9.35,3.84.66,5.75.92l1.32-9.62c-1.79-.25-3.56-.53-5.33-.85h0Zm8.54,1.25l-1.06,9.66c1.92.21,3.87.38,5.8.51l.64-9.69c-.89-.06-1.77-.13-2.65-.2,0,0,0,0,0,0-.01,0-.02,0-.04,0,0,0,0,0-.01,0,0,0-.03,0-.03,0,0,0,0,0,0,0-.01,0-.02,0-.03,0,0,0,0,0-.01,0-.01,0-.02,0-.03,0,0,0,0,0,0,0-.02,0-.03,0-.05,0h-.02s-.01,0-.02,0c0,0-.02,0-.03,0,0,0-.01,0-.02,0-.01,0-.02,0-.03,0,0,0,0,0-.01,0-.01,0-.02,0-.04,0h0s-.03,0-.04,0h0c-.73-.07-1.45-.14-2.17-.22h-.1Zm8.61.65l-.39,9.71c1.78.07,3.58.11,5.37.11h.45s-.03-9.71-.03-9.71c-.05,0-.1,0-.14,0h-.04c-.08,0-.16,0-.24,0h-.17s-.04,0-.06,0h-.01s-.04,0-.07,0h-.08s0,0,0,0h-.07s-.01,0-.02,0c-.02,0-.05,0-.07,0h0s-.04,0-.07,0c0,0-.01,0-.02,0-.02,0-.04,0-.07,0h0s-.04,0-.07,0h0s-.05,0-.07,0h0s-.05,0-.07,0h0s-.05,0-.07,0h0s-.1,0-.15,0c0,0,0,0,0,0-.02,0-.05,0-.07,0h0c-.05,0-.1,0-.15,0h0c-1.19-.01-2.39-.04-3.57-.09h0Zm14.02-.23c-.43.03-.86.06-1.3.09h0s-.03,0-.04,0h0c-.05,0-.11,0-.16.01h0s-.03,0-.04,0c0,0,0,0,0,0h-.04s0,0,0,0c-.01,0-.02,0-.04,0h0s-.02,0-.03,0c0,0,0,0,0,0-.04,0-.07,0-.11,0,0,0,0,0,0,0-.01,0-.02,0-.03,0,0,0,0,0-.01,0,0,0-.02,0-.03,0,0,0-.01,0-.02,0,0,0-.02,0-.03,0,0,0-.01,0-.02,0-.01,0-.02,0-.03,0,0,0-.01,0-.02,0,0,0-.02,0-.03,0,0,0-.02,0-.02,0-.02,0-.03,0-.04,0,0,0-.01,0-.02,0-.01,0-.01,0-.03,0,0,0-.01,0-.02,0,0,0-.02,0-.02,0,0,0-.02,0-.02,0,0,0-.01,0-.02,0s-.02,0-.02,0-.01,0-.02,0-.02,0-.03,0c0,0-.02,0-.02,0-.01,0-.02,0-.03,0,0,0-.02,0-.03,0h-.03s-.02,0-.02,0c0,0-.02,0-.02,0,0,0-.01,0-.02,0,0,0-.02,0-.02,0,0,0-.01,0-.02,0,0,0-.02,0-.03,0,0,0-.01,0-.02,0,0,0-.02,0-.03,0,0,0-.01,0-.02,0-.01,0-.02,0-.03,0,0,0-.01,0-.02,0-.01,0-.03,0-.04,0,0,0,0,0-.01,0,0,0-.02,0-.03,0,0,0-.01,0-.02,0s-.02,0-.03,0c0,0-.01,0-.02,0,0,0-.02,0-.03,0,0,0-.01,0-.02,0,0,0-.02,0-.03,0,0,0-.01,0-.02,0-.01,0-.02,0-.03,0,0,0,0,0-.01,0h-.05s-.01,0-.01,0c-.01,0-.02,0-.03,0,0,0-.01,0-.02,0h-.03s-.01,0-.02,0h-.03s-.01,0-.02,0c0,0-.02,0-.03,0,0,0-.01,0-.02,0-.01,0-.02,0-.03,0,0,0,0,0-.01,0-.02,0-.03,0-.05,0,0,0,0,0-.01,0-.01,0-.02,0-.03,0,0,0-.02,0-.02,0,0,0-.02,0-.03,0,0,0,0,0-.02,0,0,0-.02,0-.03,0,0,0-.01,0-.02,0,0,0-.02,0-.02,0,0,0-.01,0-.02,0,0,0-.02,0-.02,0,0,0-.01,0-.02,0,0,0-.02,0-.02,0-.02,0-.02,0-.04,0,0,0-.02,0-.02,0,0,0-.02,0-.02,0,0,0-.02,0-.03,0,0,0-.01,0-.02,0,0,0-.02,0-.02,0,0,0-.02,0-.02,0,0,0-.01,0-.02,0,0,0-.02,0-.02,0,0,0-.01,0-.02,0-.04,0-.07,0-.11,0,0,0,0,0,0,0-.01,0-.02,0-.03,0,0,0,0,0-.01,0,0,0-.02,0-.03,0,0,0-.01,0-.02,0,0,0-.02,0-.03,0h-.02s-.02,0-.03,0c0,0,0,0,0,0-.43.02-.87.03-1.3.05l.28,9.71c1.93-.06,3.89-.16,5.81-.3l-.71-9.69h0Zm8.58-.93c-.09.01-.17.02-.26.04h0s-.03,0-.04,0c0,0,0,0-.02,0,0,0-.02,0-.03,0,0,0-.01,0-.02,0h-.02s-.02,0-.03,0c0,0,0,0-.01,0-.06,0-.13.02-.2.03,0,0,0,0,0,0-.01,0-.03,0-.04,0,0,0,0,0,0,0-.02,0-.02,0-.04,0,0,0,0,0,0,0-.32.04-.64.09-.96.13h0c-.08.01-.16.02-.25.03,0,0,0,0,0,0-.01,0-.02,0-.04,0,0,0,0,0-.01,0,0,0-.02,0-.03,0,0,0,0,0-.01,0-.01,0-.02,0-.03,0,0,0,0,0-.01,0-.01,0-.02,0-.03,0,0,0-.01,0-.02,0,0,0-.02,0-.03,0-.01,0-.03,0-.04,0,0,0-.01,0-.01,0-.01,0-.02,0-.03,0,0,0-.01,0-.02,0h-.03s0,0-.01,0c-.01,0-.02,0-.03,0,0,0,0,0-.01,0-.01,0-.03,0-.04,0h0s-.03,0-.04,0h0c-.98.12-1.96.23-2.95.33l.96,9.67c1.92-.19,3.87-.43,5.78-.7l-1.39-9.61h0Zm8.5-1.53c-1.11.24-2.23.47-3.35.68h0s-.02,0-.04,0c0,0,0,0-.02,0,0,0-.02,0-.03,0h-.02s-.01,0-.02,0c0,0-.02,0-.03,0,0,0,0,0-.01,0-.59.11-1.18.22-1.78.32l1.64,9.57c1.91-.33,3.83-.7,5.72-1.11l-2.06-9.49h0Zm8.37-2.13c-.81.24-1.63.47-2.46.69h0s-.05.02-.08.02c0,0,0,0-.02,0-.02,0-.05.01-.07.02,0,0-.02,0-.02,0-.02,0-.04,0-.05.01-.01,0-.02,0-.03,0-.01,0-.02,0-.03,0-.02,0-.04.01-.05.01,0,0-.02,0-.03,0-.02,0-.04,0-.05.01-.01,0-.02,0-.03,0-.02,0-.03,0-.05.01,0,0-.01,0-.02,0-.02,0-.04.01-.06.02,0,0-.01,0-.02,0-.02,0-.05.01-.07.02,0,0,0,0-.01,0-.02,0-.05.01-.07.02,0,0,0,0-.01,0-.65.17-1.31.34-1.96.5l2.31,9.43c1.88-.46,3.77-.97,5.63-1.51l-2.73-9.32h0Zm8.19-2.72c-1.68.62-3.38,1.22-5.1,1.77l2.98,9.25c1.84-.59,3.69-1.24,5.51-1.91l-3.38-9.1h0Zm7.98-3.29c-1.64.74-3.29,1.45-4.96,2.12l3.63,9.01c1.79-.72,3.6-1.49,5.36-2.29l-4.02-8.84h0Zm7.73-3.85c-.23.12-.46.25-.69.37,0,0-.01,0-.01,0-.02.01-.04.02-.06.03,0,0-.01,0-.02.01-.02,0-.03.02-.05.03-.01,0-.02.01-.03.02-.01,0-.02.01-.04.02-.01,0-.03.02-.05.02,0,0-.01,0-.02.01-.02.01-.04.02-.06.03,0,0-.01,0-.02.01-.02.01-.04.02-.06.03,0,0-.01,0-.02,0-.02.01-.04.02-.06.03,0,0,0,0-.01,0-.02.01-.04.02-.07.03h0s-.05.03-.07.04c0,0,0,0,0,0-.02.01-.04.02-.07.04,0,0,0,0,0,0-.02.01-.05.03-.07.04,0,0,0,0,0,0-.02.01-.05.02-.07.04,0,0,0,0,0,0-.08.04-.15.08-.22.12,0,0,0,0,0,0l-.07.04s0,0,0,0c-.02.01-.05.03-.07.04t0,0c-.1.05-.2.1-.3.15h0s-.05.02-.07.04h0s-.05.03-.07.04h0c-.08.04-.15.08-.22.12h0s-.05.03-.07.04c0,0,0,0,0,0-.02.01-.05.02-.07.04h0s-.05.03-.07.04c0,0,0,0,0,0-.05.02-.1.05-.15.07h0s-.05.03-.07.04c0,0,0,0,0,0-.02.01-.05.03-.07.04,0,0,0,0,0,0-.02.01-.05.02-.07.04h0c-.08.04-.15.08-.22.11h0s-.05.03-.07.04c0,0,0,0,0,0-.43.22-.85.43-1.29.64l4.26,8.73c1.74-.85,3.48-1.74,5.18-2.67l-4.64-8.54h0Zm7.44-4.39c-1.51.97-3.05,1.9-4.61,2.8l4.86,8.41c1.67-.97,3.35-1.98,4.98-3.02l-5.23-8.19h0Zm7.11-4.9c-.48.36-.97.71-1.46,1.06,0,0,0,0,0,0-.02.01-.04.03-.06.04,0,0,0,0-.02.01-.02.01-.04.03-.05.04,0,0-.01,0-.02.01-.01.01-.03.02-.04.03-.01,0-.02.01-.03.02,0,0-.02.01-.03.02-.02.01-.03.02-.04.03,0,0-.02.01-.03.02-.02.01-.03.02-.04.03l-.02.02s-.03.02-.04.03c0,0-.02.01-.02.02-.02.01-.03.02-.05.03,0,0,0,0-.01,0-.02.01-.04.03-.06.04,0,0,0,0-.01,0-.02.01-.04.03-.06.04,0,0,0,0-.01.01-.02.01-.04.03-.06.04,0,0,0,0-.01,0-.02.02-.04.03-.06.04,0,0,0,0,0,0-.07.05-.13.09-.2.14h0c-.64.45-1.29.9-1.94,1.34l5.44,8.05c1.6-1.08,3.2-2.21,4.75-3.37l-5.79-7.8h0Zm6.75-5.39c-.55.47-1.11.95-1.68,1.41,0,0,0,0,0,0-.02.02-.04.03-.06.05,0,0,0,0,0,0-.02.02-.04.03-.06.05,0,0,0,0,0,0-.02.01-.04.03-.06.05,0,0,0,0,0,0-.02.02-.04.03-.06.05,0,0,0,0,0,0-.02.01-.04.03-.05.04h-.01s-.03.04-.05.05c0,0-.01,0-.02.01-.02.01-.03.03-.05.04,0,0-.01.01-.02.02-.02.01-.03.03-.05.04,0,0-.01,0-.02.01-.01.01-.03.03-.05.04,0,0-.01,0-.02.01-.01.01-.03.02-.04.04,0,0-.01.01-.02.02-.02.01-.03.02-.04.03,0,0-.01,0-.02.01-.02.01-.03.03-.05.04,0,0-.01.01-.02.02-.02.01-.03.03-.05.04,0,0-.01.01-.02.02-.01.01-.03.03-.05.04,0,0-.01,0-.02.01-.01.01-.04.03-.05.04,0,0,0,0-.02.01-.01.01-.04.03-.05.04,0,0,0,0-.01,0-.02.01-.04.03-.05.04,0,0,0,0,0,0-.02.01-.04.03-.06.05,0,0,0,0,0,0-.02.02-.04.03-.06.05,0,0,0,0,0,0-.02.02-.04.03-.06.05h0c-.39.32-.79.64-1.19.94l5.99,7.65c1.52-1.19,3.03-2.43,4.5-3.69l-6.32-7.38h0Zm6.35-5.84c-1.28,1.26-2.59,2.5-3.92,3.71l6.51,7.21c1.43-1.3,2.86-2.64,4.23-4l-6.82-6.91h0Zm5.93-6.27c-.85.97-1.72,1.93-2.61,2.87h0s-.04.04-.06.06c0,0,0,0,0,0-.02.02-.04.04-.06.06h0s-.07.08-.11.12c0,0,0,0,0,0-.02.02-.03.03-.05.05,0,0,0,0-.01.01-.02.02-.03.03-.05.05,0,0,0,0-.01.01-.02.02-.03.03-.05.05,0,0,0,0-.01.01-.02.02-.03.03-.05.05,0,0,0,0-.01.01-.01.01-.02.03-.04.04,0,0-.01.01-.02.02-.01.01-.02.03-.04.04,0,0-.01.01-.02.02-.01.01-.03.03-.04.04,0,0-.01.01-.02.02-.01.01-.03.03-.04.04l-.02.02s-.03.03-.04.04l-.02.02s-.02.02-.03.03c-.01.01-.02.02-.04.04,0,0-.02.02-.02.02l-.04.04s-.01.01-.02.02c-.01.02-.03.03-.04.05,0,0-.01.01-.01.01-.03.03-.05.05-.08.08l7,6.73c1.34-1.39,2.67-2.83,3.94-4.28l-7.29-6.42h0Zm5.48-6.67c-.68.89-1.38,1.78-2.08,2.65t0,0s-.07.09-.11.13c0,0,0,0,0,0-.02.02-.04.04-.05.06,0,0,0,0,0,0-.02.02-.03.04-.05.06,0,0,0,0,0,.01-.01.02-.03.04-.04.05,0,0,0,0-.01.01-.01.02-.03.03-.04.05,0,0-.01.01-.02.02-.01.01-.03.03-.04.05,0,0-.01.01-.02.02,0,.01-.02.03-.03.04,0,.01-.02.02-.03.03,0,0-.01.02-.02.03-.01.01-.02.03-.03.04,0,0-.01.02-.02.02-.01.02-.03.03-.04.05,0,0-.01.01-.01.02-.24.29-.48.58-.71.86l7.46,6.23c1.24-1.48,2.46-3.01,3.63-4.55l-7.72-5.89h0Zm4.99-7.04c-.35.54-.72,1.08-1.08,1.61t0,0s-.03.04-.04.07c0,0,0,0,0,0-.01.02-.03.05-.04.07,0,0,0,0,0,0-.02.02-.03.05-.05.07,0,0,0,0,0,0-.05.07-.09.14-.14.21,0,0,0,0,0,0-.02.02-.03.04-.05.07,0,0,0,0,0,0-.02.02-.03.04-.04.07h0s-.03.05-.05.07c0,0,0,0,0,0-.05.07-.09.14-.14.21h0s-.03.05-.05.07c0,0,0,0,0,0-.02.02-.03.04-.05.07,0,0,0,0,0,0-.06.09-.13.18-.19.27,0,0,0,0,0,0-.02.02-.03.04-.05.07,0,0,0,0,0,0-.02.02-.03.04-.05.07,0,0,0,0,0,0-.02.02-.03.04-.05.07,0,0,0,0,0,0-.03.04-.06.09-.09.13,0,0,0,0,0,0-.01.02-.03.04-.04.06,0,0,0,0,0,.01-.01.02-.03.04-.04.06,0,0,0,.01-.01.02-.01.02-.03.04-.04.05,0,0,0,.01-.01.02-.01.02-.02.04-.04.05v.02s-.03.03-.04.04c0,0-.01.02-.02.03,0,0-.02.03-.03.04,0,.01-.02.02-.02.03,0,.01-.02.03-.03.04,0,0-.01.02-.02.03,0,.01-.02.03-.03.04,0,.01-.02.02-.02.03,0,0,0,.01-.01.02-.01.02-.03.04-.04.06h0c-.14.2-.28.4-.42.59l7.87,5.69c1.13-1.57,2.24-3.18,3.31-4.79l-8.12-5.34h0Zm4.49-7.38s-.01.03-.02.04c0,0,0,.01,0,.02,0,.01-.01.02-.02.04,0,0-.01.02-.01.02,0,.02-.02.03-.03.05,0,.01,0,.02-.02.03,0,.02-.02.03-.03.05,0,0-.01.02-.02.03,0,.02-.02.03-.03.05,0,.01-.01.02-.02.03,0,.01-.02.03-.02.04,0,.01-.01.02-.02.03,0,.01-.01.02-.02.03,0,.01-.02.03-.03.05,0,0-.01.02-.02.03,0,.01-.01.03-.02.04,0,.01-.01.03-.02.04,0,.01-.01.02-.02.03,0,.02-.02.03-.03.05,0,0-.01.02-.02.03,0,.02-.02.03-.03.05,0,.01-.01.02-.02.03l-.02.04s-.02.03-.02.04c0,.01-.01.02-.02.03,0,.01-.02.03-.02.04,0,.01-.01.02-.02.03,0,.01,0,.01-.01.02-.01.02-.02.04-.03.06v.02s-.03.04-.04.06c0,0,0,.01-.01.02-.01.02-.02.04-.04.07,0,0,0,0,0,0-.53.92-1.07,1.83-1.62,2.73,0,0,0,.01,0,.01-.01.02-.02.04-.03.06,0,0-.01.02-.02.03,0,.01-.02.03-.02.04,0,.01-.02.03-.02.04,0,0,0,.01-.01.02-.01.02-.02.04-.03.06,0,0,0,.01,0,.02-.01.02-.03.04-.04.06,0,0,0,0,0,0-.07.12-.15.24-.22.36l8.25,5.12c1.02-1.64,2.02-3.33,2.96-5.02l-8.47-4.75h0Zm3.95-7.67c-.77,1.63-1.57,3.24-2.41,4.83l8.59,4.53c.9-1.71,1.78-3.47,2.6-5.21l-8.79-4.14h0Zm3.4-7.93c-.12.31-.25.63-.37.94,0,0,0,0,0,0,0,.03-.02.05-.03.07,0,0,0,0,0,0,0,.02-.02.05-.03.07h0s-.02.06-.03.08c0,0,0,.01,0,.02,0,.02-.02.04-.02.05,0,0,0,.02-.01.03,0,.01-.01.03-.02.05,0,0,0,.02-.01.03,0,.02-.01.03-.02.05,0,0,0,.02-.01.03,0,.02-.01.03-.02.05,0,.01,0,.02-.01.03,0,.02-.01.03-.02.05,0,.01,0,.02-.01.03,0,.01,0,.02-.01.03,0,.02-.01.04-.02.05,0,0,0,.02-.01.03,0,.02-.02.04-.02.06v.02c-.04.07-.06.14-.09.21,0,0,0,0,0,0-.01.02-.02.05-.03.07,0,0,0,0,0,.01-.01.03-.02.05-.03.08h0c-.11.26-.21.52-.32.78h0c-.04.1-.08.2-.13.3h0s-.02.06-.03.08h0s-.02.06-.03.09h0s-.04.09-.05.13h0s-.02.06-.03.08c0,0,0,.01,0,.01,0,.02-.02.05-.03.07,0,0,0,0,0,.01,0,.02-.02.04-.03.07v.02s-.03.04-.03.06c0,0,0,.01,0,.02,0,.01-.01.03-.02.04,0,0,0,.02-.01.03l-.02.05s0,.02-.01.03c0,.02-.02.04-.02.05,0,0,0,.02-.01.03,0,.02-.01.03-.02.05,0,.01-.01.02-.01.03,0,.01-.01.02-.02.04,0,.02-.01.03-.02.04,0,.01,0,.02-.01.03,0,.01-.02.03-.02.05,0,.01,0,.02-.01.03,0,.01-.01.03-.02.04,0,.01-.01.02-.02.04,0,.01-.01.03-.02.04,0,.01,0,.02-.01.03,0,.02-.01.03-.02.04,0,0,0,.02-.01.02,0,.02-.02.04-.02.06,0,0,0,.02-.01.03,0,.02-.02.03-.02.06,0,0,0,.01,0,.02,0,.02-.02.04-.03.06,0,0,0,.01,0,.02,0,.02-.02.04-.02.05,0,0,0,.01,0,.02,0,.02-.02.04-.02.05,0,0,0,0,0,.01l8.89,3.91c.78-1.77,1.53-3.58,2.22-5.39l-9.06-3.51h0Zm2.83-8.16s-.03.08-.04.13h0s-.01.05-.02.08c0,0,0,.01,0,.02,0,.01,0,.02-.01.04,0,.01-.01.04-.02.05,0,0,0,.02,0,.03,0,.01-.01.04-.02.05,0,0,0,.02,0,.02,0,.02-.01.04-.02.06,0,0,0,.01,0,.02,0,.02-.01.05-.02.07,0,0,0,0,0,.01,0,.02-.02.05-.02.07,0,0,0,0,0,.01,0,.03-.02.05-.02.07,0,0,0,0,0,0-.46,1.48-.96,2.94-1.47,4.39l9.15,3.27c.65-1.82,1.27-3.68,1.84-5.53l-9.28-2.86h0Zm2.24-8.34c-.22.95-.45,1.89-.69,2.83h0s-.01.06-.02.09c0,0,0,0,0,.01-.01.04-.02.09-.03.13,0,.01,0,.02,0,.03,0,.02,0,.04-.01.05,0,.01,0,.02,0,.03,0,.02,0,.03-.01.05,0,.01,0,.03-.01.04,0,0,0,.02,0,.03,0,.02,0,.04-.01.06,0,0,0,.02,0,.03,0,.02-.01.04-.02.06,0,0,0,.01,0,.02,0,.02-.01.04-.02.07,0,0,0,0,0,0,0,.02-.01.05-.02.07,0,0,0,0,0,0,0,.02-.01.05-.02.08,0,0,0,0,0,0,0,.03-.01.05-.02.08,0,0,0,0,0,0-.13.49-.26.97-.4,1.46l9.36,2.61c.52-1.86,1-3.76,1.44-5.65l-9.46-2.19h0Zm1.65-8.47c-.08.49-.16.97-.24,1.46,0,0,0,0,0,0,0,.01,0,.02,0,.03,0,0,0,0,0,.01,0,0,0,.02,0,.03,0,0,0,0,0,.01,0,.01,0,.02,0,.03,0,0,0,.01,0,.02,0,0,0,.02,0,.03,0,0,0,.02,0,.03,0,0,0,.02,0,.02,0,.01,0,.03,0,.04,0,0,0,0,0,.01,0,.01,0,.02,0,.03,0,0,0,0,0,.01,0,.01,0,.02,0,.04,0,0,0,0,0,.01,0,.01,0,.02,0,.04h0s0,.04,0,.05h0s0,.03,0,.05h0c-.01.08-.03.16-.04.24h0s0,.03,0,.05h0c-.01.08-.03.16-.04.24h0s0,.03,0,.05h0s0,.03,0,.05h0s0,.03,0,.05h0c-.01.07-.02.13-.03.19,0,0,0,.01,0,.02,0,0,0,.02,0,.03,0,0,0,0,0,.02,0,0,0,.02,0,.03,0,0,0,0,0,.02,0,0,0,.02,0,.03,0,0,0,.01,0,.02,0,0,0,.02,0,.02,0,0,0,.02,0,.02,0,0,0,.01,0,.02,0,.05-.02.1-.03.15h0s0,.03,0,.04c0,0,0,0,0,0,0,.02,0,.02,0,.04,0,0,0,0,0,0-.13.69-.26,1.38-.4,2.06l9.52,1.94c.39-1.89.73-3.82,1.04-5.73l-9.59-1.52h0Zm1.05-8.57c-.16,1.8-.35,3.59-.58,5.36l9.63,1.26c.25-1.91.46-3.86.63-5.79l-9.68-.84h0Zm.44-8.62c0,.26,0,.53-.02.79h0s0,.07,0,.1h0s0,.03,0,.05c0,0,0,.01,0,.02,0,0,0,.02,0,.03,0,0,0,.01,0,.02,0,0,0,.01,0,.02,0,0,0,.02,0,.03,0,0,0,0,0,.01,0,.01,0,.02,0,.03,0,0,0,0,0,0-.04,1.44-.1,2.87-.18,4.29l9.7.58c.12-1.92.19-3.88.22-5.81l-9.71-.16h0Zm9.54-9.15l-9.7.51c.04.79.08,1.58.1,2.37h0s0,.03,0,.04h0s0,.03,0,.05c0,0,0,0,0,.01,0,.01,0,.02,0,.04,0,0,0,0,0,0,0,.02,0,.03,0,.05,0,0,0,.01,0,.01,0,.01,0,.02,0,.03,0,0,0,.02,0,.03,0,0,0,.01,0,.02,0,0,0,.02,0,.02,0,0,0,.02,0,.02,0,0,0,.02,0,.02,0,0,0,.01,0,.02,0,.01,0,.02,0,.03,0,0,0,0,0,.01,0,.05,0,.11,0,.16,0,0,0,0,0,0,0,.01,0,.03,0,.04h0s0,.03,0,.04c0,0,0,0,0,0,0,.08,0,.17,0,.25h0s0,.03,0,.04h0c0,.07,0,.14,0,.21h0s0,.03,0,.04h0s0,.03,0,.04h0s0,.03,0,.04h0s0,.08,0,.12h0s0,.02,0,.04c0,0,0,.01,0,.02,0,0,0,.02,0,.03,0,0,0,.01,0,.02,0,0,0,.01,0,.02s0,.02,0,.02c0,0,0,.01,0,.02,0,.01,0,.02,0,.03,0,0,0,.01,0,.01,0,.03,0,.06,0,.09h0s0,.03,0,.05h0s0,.03,0,.05h0c0,.41.01.81.02,1.21l9.71-.09c-.02-1.93-.08-3.89-.18-5.81h0Zm-.82-9.28l-9.64,1.19c.06.48.11.95.17,1.43h0s0,.03,0,.04c0,0,0,0,0,.02v.03s0,.01,0,.02c0,0,0,.02,0,.02s0,.01,0,.02c0,0,0,.01,0,.02.08.69.15,1.39.21,2.08h0s0,.03,0,.04c0,0,0,0,0,0,0,.01,0,.02,0,.04,0,0,0,0,0,0,0,.01,0,.02,0,.03,0,0,0,0,0,.01,0,0,0,.02,0,.03,0,0,0,.01,0,.02,0,.01,0,.02,0,.03v.04s0,0,0,.01c0,.01,0,.02,0,.04,0,0,0,0,0,.01,0,.01,0,.03,0,.04h0s0,.03,0,.05h0c.04.43.07.86.11,1.28l9.68-.77c-.15-1.93-.35-3.88-.59-5.79h0Zm-1.47-9.2l-9.53,1.87c.26,1.35.51,2.71.73,4.08h0s0,.03,0,.05h0s0,.03,0,.05h0s0,.03,0,.05t0,0s0,.03,0,.04h0s0,.03,0,.05c0,0,0,.01,0,.02,0,0,0,.02,0,.03,0,0,0,.02,0,.02,0,0,0,.01,0,.02,0,0,0,.02,0,.03,0,0,0,.01,0,.02,0,0,0,.02,0,.03,0,0,0,.01,0,.02,0,.01,0,.02,0,.03h0c.04.27.08.54.12.8l9.61-1.44c-.29-1.91-.62-3.84-.99-5.74h0Zm-2.12-9.08l-9.38,2.54c.06.23.12.46.18.69,0,0,0,0,0,0,0,.01,0,.02,0,.03h0s0,.03,0,.04c0,0,0,.01,0,.02,0,0,0,.01,0,.02,0,0,0,.02,0,.02,0,0,0,0,0,.02,0,.01,0,.02,0,.03h0c.25.97.49,1.93.72,2.9h0s0,.03,0,.05h0s0,.03,0,.04c0,0,0,0,0,0,0,.03.01.05.02.08,0,.02,0,.03.01.04,0,0,0,0,0,0,.1.41.19.82.28,1.24l9.48-2.12c-.42-1.89-.89-3.79-1.4-5.66h0Zm-2.75-8.91l-9.17,3.2c.14.41.28.82.42,1.23,0,0,0,0,0,.01,0,.02.02.05.02.07v.02s.02.04.03.06c0,0,0,.02,0,.03,0,.01,0,.02.01.04,0,.01.01.03.02.05,0,.01,0,.02.01.03,0,.01,0,.03.01.04,0,.01,0,.03.01.04,0,.01,0,.03.01.04,0,.01,0,.02.01.04,0,.02,0,.03.02.05,0,0,0,.01,0,.02,0,.02.01.04.02.06,0,0,0,.01,0,.02,0,.02.01.04.02.06,0,0,0,.01,0,.02,0,.02.01.04.02.07,0,0,0,0,0,.01,0,.02.01.04.02.07,0,0,0,0,0,0,0,.02.02.05.02.07,0,0,0,0,0,0,0,.03.01.05.02.07,0,0,0,0,0,.01,0,.02.02.05.02.07,0,0,0,0,0,0,.03.08.05.16.08.24,0,0,0,0,0,0,.17.53.34,1.07.51,1.6,0,0,0,0,0,0,0,.02.02.05.02.07,0,0,0,0,0,0,0,.02.02.05.02.07,0,0,0,0,0,0,0,.02.01.05.02.07,0,0,0,0,0,0,0,.02.01.04.02.07,0,0,0,.01,0,.02,0,.02.01.04.02.06,0,0,0,.02,0,.02,0,.02.01.04.02.06,0,0,0,.02,0,.03,0,.01,0,.03.01.05,0,.01,0,.03.01.04,0,0,0,.02,0,.03,0,.02.01.04.02.06,0,0,0,.02,0,.02.03.09.05.18.08.27l9.31-2.79c-.56-1.85-1.16-3.72-1.8-5.54h0Zm-3.38-8.69l-8.92,3.84c.08.19.16.38.24.57,0,0,0,0,0,.01,0,.02.02.04.03.06,0,0,0,.02.01.03,0,.01.01.02.02.04,0,.01.01.03.02.05,0,0,0,.02.01.03,0,.02.02.04.02.06,0,0,0,.01,0,.02,0,.02.02.04.03.06,0,0,0,0,0,.01,0,.02.02.05.03.07,0,0,0,0,0,0,.01.03.02.05.03.08,0,0,0,0,0,0,.01.03.02.05.03.08,0,0,0,0,0,0,.01.03.02.05.03.08h0c.52,1.25,1.02,2.5,1.5,3.76l9.08-3.44c-.69-1.81-1.42-3.63-2.18-5.4h0Zm-3.99-8.43l-8.63,4.46c.15.3.31.6.46.9h0s.02.05.04.08h0c.04.07.08.15.11.23h0s.02.05.04.07c0,0,0,0,0,0,.01.02.02.05.04.07,0,0,0,0,0,0,.01.02.02.05.04.07,0,0,0,0,0,0,.04.08.07.15.11.22,0,0,0,0,0,0,.01.02.02.05.04.07,0,0,0,0,0,0,.01.02.02.05.03.07,0,0,0,0,0,0,.01.02.02.05.03.07,0,0,0,0,0,0,.02.05.05.1.07.14,0,0,0,0,0,0,.01.02.02.04.03.07,0,0,0,0,0,.01.01.02.02.04.03.06,0,0,0,0,0,.01.01.02.02.04.03.06,0,0,0,0,0,.01.01.02.02.04.03.06,0,0,0,0,0,0,.01.02.02.04.03.06,0,0,0,0,0,0,.01.02.02.04.03.06,0,0,0,.01,0,.02.01.02.02.04.03.06,0,0,0,.01,0,.02,0,.02.02.04.03.06,0,0,0,.01,0,.02.01.02.02.04.03.06,0,0,0,0,0,.01,0,.02.02.04.03.06,0,0,0,0,0,.01.01.02.02.04.03.06v.02s.03.04.04.06h0s.02.06.03.08c0,0,0,.01,0,.02.01.02.02.04.03.06,0,0,0,0,0,.01.01.02.02.05.03.07,0,0,0,0,0,0,0,.02.02.04.03.06,0,0,0,0,0,0,0,.02.02.04.03.06,0,0,0,.01,0,.02,0,.02.02.04.03.06,0,0,0,0,0,.01,0,.02.02.04.03.06,0,0,0,.01,0,.02,0,.02.02.04.03.06,0,0,0,0,0,.01.01.02.02.04.03.06h0s.02.06.03.08c0,0,0,0,0,.01.01.02.02.04.03.07,0,0,0,0,0,.01,0,.02.02.04.03.07,0,0,0,0,0,.01.01.02.02.04.03.07,0,0,0,0,0,0,.02.05.05.1.07.15h0s.02.05.04.08c0,0,0,0,0,0,.01.02.02.05.03.07,0,0,0,0,0,0,.1.2.19.41.28.61l8.82-4.08c-.81-1.75-1.67-3.52-2.56-5.23h0Zm-4.57-8.12l-8.29,5.06c.17.27.33.55.5.82h0s.03.05.04.08h0s.03.05.04.08h0c.04.07.08.13.12.2,0,0,0,.01,0,.01.01.02.02.04.04.06,0,0,0,.01.01.02.01.02.02.04.03.05,0,.01,0,.02.02.03,0,.01.02.03.02.04,0,.01.02.03.02.04,0,0,.01.02.02.03,0,.01.02.03.03.05,0,0,.01.02.02.03,0,.02.02.03.03.05,0,0,0,.02.01.03,0,.01.02.03.03.04,0,0,.01.02.02.03,0,.01.02.03.03.04v.02s.03.03.04.05c0,0,0,.01.01.02,0,.02.02.04.03.06,0,0,0,.01,0,.02.01.02.02.04.04.06h0s.02.06.04.08c0,0,0,0,0,0,.03.05.05.09.08.14,0,0,0,0,0,0,.01.02.03.05.04.07,0,0,0,0,0,0,.01.02.03.05.04.07,0,0,0,0,0,0,.45.78.89,1.56,1.33,2.35l8.51-4.69c-.93-1.69-1.92-3.39-2.92-5.04h0Zm-5.13-7.78l-7.92,5.63c.23.32.45.64.68.96,0,0,0,0,0,0,.02.02.03.05.05.07,0,0,0,0,0,0,.02.02.03.05.05.07,0,0,0,0,0,0,.03.04.06.09.09.13h0s.03.05.04.07c0,0,0,0,0,.01.01.02.03.04.04.06h0s.02.05.04.07c0,0,0,0,0,.01.01.02.03.04.04.06,0,0,0,0,0,0,.01.02.02.04.04.05,0,0,0,0,0,.01.01.02.03.04.04.06,0,0,0,.01.01.02.01.02.03.04.04.05,0,0,0,.01.01.02.01.02.02.04.04.05,0,0,0,.01.01.02.01.02.03.04.04.06,0,0,0,.01.01.02.01.02.02.04.04.05,0,0,0,0,0,.01.01.02.02.03.03.05h.01s.02.05.04.07c0,0,0,.01.01.02.01.02.03.04.04.06,0,0,0,.01.01.02.01.02.02.04.04.06,0,0,0,.01.01.02.01.02.03.04.04.06,0,0,0,0,0,.01.01.02.03.04.04.06h0s.03.05.04.07c0,0,0,0,0,0,.01.02.03.04.04.06,0,0,0,0,0,.01.02.02.03.04.04.06,0,0,0,0,0,0,.01.02.03.04.04.06,0,0,0,0,0,.01.01.02.03.04.04.06,0,0,0,0,0,0,.02.02.03.04.04.07h0s.03.05.05.07c0,0,0,0,0,0,.02.03.03.04.05.07,0,0,0,0,0,0,.02.02.03.04.05.07,0,0,0,0,0,0,.02.02.03.05.05.07,0,0,0,0,0,0,.31.47.62.94.93,1.41l8.16-5.28c-1.05-1.62-2.15-3.24-3.27-4.82h0Zm-5.66-7.4l-7.5,6.17c.71.87,1.42,1.75,2.11,2.63,0,0,0,0,0,0,.02.02.03.04.05.06,0,0,0,0,0,0,.01.02.03.04.05.06,0,0,0,0,0,0,.01.02.03.03.04.05,0,0,0,.01.01.02.01.02.02.03.03.04,0,0,.02.02.02.03,0,.01.02.02.03.04,0,0,.01.02.02.03,0,.01.02.03.03.04,0,.01.02.02.03.03h0c.3.4.6.79.9,1.19l7.76-5.84c-1.16-1.54-2.37-3.08-3.6-4.58h0Zm-6.17-6.98l-7.05,6.68c.7.74,1.4,1.49,2.08,2.25h0s.04.04.06.06c0,0,0,0,0,.01.02.02.03.04.05.05,0,0,.01.01.02.02.01.01.02.03.04.04.01.01.01.02.02.03l.02.03s.02.03.04.04c0,0,.01.01.02.02.01.01.03.03.04.04,0,0,.01.01.02.02.01.01.03.03.04.05,0,0,0,0,.01.01.01.01.03.03.04.05,0,0,0,0,0,0,.02.02.03.04.05.06,0,0,0,0,0,0,.02.02.03.04.05.06,0,0,0,0,0,0,.02.02.04.04.05.06,0,0,0,0,0,0,.32.36.63.72.95,1.08l7.34-6.37c-1.27-1.46-2.58-2.91-3.91-4.31h0Zm-6.64-6.53l-6.57,7.16c.29.26.58.53.86.8,0,0,0,0,0,0,.02.02.04.04.06.05,0,0,0,0,0,0,.02.02.04.03.05.05h.01s.03.04.05.06c0,0,0,0,.01.01.02.02.03.03.05.05,0,0,0,0,.01.01.02.02.03.03.05.04,0,0,0,0,.01.01.01.01.03.03.04.04l.02.02s.03.03.04.04l.02.02s.03.03.04.04c0,0,.01.01.02.02.01.01.03.03.04.04,0,0,.02.01.02.02.01.01.02.02.04.04,0,0,.02.02.03.03,0,0,.02.01.02.02.01.01.03.03.04.04,0,0,.02.01.02.02.01.01.03.03.04.04,0,0,.01.01.02.02.01.01.03.03.04.04,0,0,.01.01.02.02.01,0,.02.02.03.03,0,0,0,0,.01.01.02.02.03.03.05.05,0,0,0,0,0,0,.02.02.04.04.06.05h0s.04.04.06.06h0c.61.58,1.21,1.17,1.8,1.76,0,0,0,0,0,0,.02.02.04.04.05.05h.01s.03.04.05.06c0,0,0,0,.02.02,0,0,.01.01.02.02l6.87-6.86c-1.37-1.37-2.78-2.72-4.2-4.03h0Zm-7.08-6.05l-6.05,7.6h.01s.03.03.04.04c0,0,.02.01.02.02.01,0,.03.02.04.03,0,0,.01.01.02.02.02.01.03.03.05.04,0,0,0,0,.01.01.02.01.04.03.05.04,0,0,0,0,.01.01.02.01.04.03.05.04,0,0,0,0,.01,0,.02.02.04.03.06.05,0,0,0,0,0,0,.02.01.04.03.06.05,0,0,0,0,0,0,.06.05.13.11.2.16,0,0,0,0,0,0,.41.33.83.67,1.24,1.01,0,0,0,0,0,0,.02.02.04.04.06.05h0c.06.06.13.11.19.16,0,0,0,0,0,0,.02.02.04.03.06.05,0,0,0,0,0,0,.02.01.04.03.06.05,0,0,0,0,0,0,.02.01.04.03.05.05,0,0,0,0,.01.01.02.01.04.03.05.05,0,0,0,0,0,0,.02.01.03.03.05.04,0,0,0,0,.01.01l.05.04s0,0,.01.01c.01.01.03.03.05.04,0,0,.01.01.02.02.01.01.03.03.05.04,0,0,.01.01.02.02.01.01.03.03.04.04,0,0,.01.01.02.02.01.01.03.02.04.03,0,0,.02.02.03.02.01,0,.02.02.03.03.01.01.03.02.04.03,0,0,.02.01.03.02.01.01.03.02.04.04,0,0,.01.01.02.02.02.02.04.03.06.05,0,0,0,0,.01,0,.01,0,.02.02.03.03h0s.05.04.07.06h0s.04.04.07.06h0c.31.27.62.53.93.8l6.38-7.33c-1.46-1.27-2.96-2.52-4.47-3.72h0Zm-7.49-5.54l-5.5,8.01s.02.01.03.02c0,0,.02.01.03.02l.03.02s.03.02.04.03c0,0,.02.01.02.02.01,0,.03.02.04.03,0,0,.02.01.02.02.02.01.03.02.04.03,0,0,.01,0,.02.01.02.01.04.02.05.04,0,0,0,0,.01,0,.02.01.04.03.06.04,0,0,0,0,0,0,.02.01.04.03.06.04,0,0,0,0,0,0,.02.02.04.03.06.04,0,0,0,0,0,0,1.29.9,2.57,1.82,3.82,2.77l5.85-7.76c-1.54-1.16-3.13-2.31-4.73-3.4h0Zm-7.86-5l-4.92,8.37c.68.4,1.35.81,2.02,1.22,0,0,0,0,0,0,.02.01.05.03.07.04,0,0,0,0,0,0,.02.01.05.03.07.04,0,0,0,0,0,0,.02.01.05.03.07.04,0,0,0,0,0,0,.02.01.05.03.07.04,0,0,0,0,0,0,.02.01.04.03.06.04,0,0,0,0,.01,0,.02.01.04.02.06.04,0,0,0,0,.02,0,.02.01.04.02.06.04,0,0,.01,0,.02.01.02.01.04.02.05.03,0,0,.01,0,.02.01.02.01.03.02.05.03,0,0,.02,0,.02.01.01,0,.03.02.04.03,0,0,.02.01.02.02.02.01.03.02.05.03,0,0,.02,0,.02.01.02.01.03.02.05.03,0,0,.02.01.03.02.01,0,.03.02.05.03,0,0,.02.01.03.02.02.01.03.02.04.03.01,0,.02.01.03.02,0,0,.02.02.03.02.01,0,.03.02.04.03,0,0,.02.01.03.02.01,0,.03.02.04.03,0,0,.02.01.03.02s.02.01.03.02c.01,0,.03.02.04.03.01,0,.02.01.03.02.01,0,.03.02.04.03,0,0,.02.01.03.02,0,0,.02.01.03.02.02,0,.03.02.05.03,0,0,.02.01.02.02.02.01.03.02.05.03,0,0,.02.01.02.02.02.01.03.02.05.03,0,0,.02.01.03.02.01,0,.02.01.03.02.01,0,.03.02.04.03.01,0,.02.01.03.02,0,0,.02.01.03.02.01,0,.03.02.04.03,0,0,.02.01.03.02l.05.03s.02.01.02.02c.02.01.03.02.05.03,0,0,.02.01.03.02l.04.03s.02.01.03.02c.01,0,.02.01.03.02.01,0,.03.02.04.03.01,0,.02.01.03.02.01,0,.02.02.04.02.01,0,.02.02.04.02,0,0,.02.01.03.02.02,0,.03.02.05.03,0,0,.02.01.03.02.01,0,.03.02.04.03,0,0,.02.01.03.02.01,0,.03.02.04.03.01,0,.02.01.04.02.01,0,.02.01.03.02.01,0,.03.02.04.03,0,0,0,0,.01,0l5.29-8.15c-1.62-1.05-3.29-2.08-4.95-3.06h0Zm-8.2-4.44l-4.32,8.7h.02s.02.02.04.03l.04.02s.02.01.04.02c.01,0,.02.01.03.02.01,0,.03.02.05.02.01,0,.02.01.03.02,0,0,.02.01.03.01.02,0,.03.02.05.03.01,0,.01,0,.02.01.02,0,.04.02.05.03h.02s.04.03.06.04c0,0,.01,0,.02.01.02.01.04.02.06.03,0,0,.01,0,.02,0,.04.02.08.04.12.06h.02s.04.03.06.04c0,0,.01,0,.02,0,.02.01.04.02.06.03,0,0,.01,0,.02,0,.02.01.04.02.06.03,0,0,.01,0,.02,0,.02,0,.04.02.06.03,0,0,.02,0,.02.01.01,0,.02.01.04.02,0,0,.01,0,.02,0l.06.03h.02s.04.03.06.04c0,0,.02,0,.02.01.02,0,.03.02.05.03.01,0,.02,0,.03.01.01,0,.03.01.04.02.01,0,.02.01.04.02.01,0,.02.01.03.02.01,0,.03.02.05.02.01,0,.02.01.03.02.01,0,.03.01.04.02.01,0,.02.01.03.02.01,0,.03.01.04.02.01,0,.02.01.04.02.01,0,.03.01.04.02.01,0,.02.01.03.02.01,0,.03.02.05.02,0,0,.02,0,.03.01.02,0,.04.02.05.03,0,0,.02,0,.02.01.02,0,.04.02.05.03,0,0,.01,0,.02.01.02,0,.04.02.06.03,0,0,0,0,.01,0,.02,0,.04.02.06.03,0,0,.01,0,.02,0,.02,0,.04.02.06.03h.01s.04.03.06.04c0,0,.01,0,.02,0,.02.01.04.02.06.03,0,0,0,0,.01,0,.02.01.04.02.06.03,0,0,0,0,0,0,.02.01.05.02.07.04h0c.77.41,1.54.82,2.3,1.24l4.7-8.5c-1.69-.94-3.43-1.85-5.16-2.71h0Zm-8.49-3.85l-3.69,8.98c.78.32,1.56.65,2.33.99,0,0,0,0,0,0,.02.01.05.02.07.03,0,0,0,0,0,0,.02,0,.05.02.07.03h0s.05.02.07.03c0,0,0,0,0,0,.02.01.04.02.07.03,0,0,0,0,0,0,.02,0,.04.02.07.03,0,0,0,0,.01,0,.02,0,.04.02.06.03,0,0,.01,0,.02,0,.02,0,.04.02.06.03,0,0,.01,0,.02,0,.02,0,.04.02.06.03h.02s.03.02.05.03c.01,0,.02,0,.03.01.01,0,.02.01.04.02.01,0,.03.01.04.02.01,0,.02.01.04.02.01,0,.02,0,.03.01.01,0,.03.01.05.02.01,0,.02.01.04.02,0,0,.02,0,.03.01l.06.02s.01,0,.02,0l.06.03s0,0,.01,0c.02.01.05.02.07.03,0,0,0,0,.01,0,.47.21.94.42,1.41.64l4.09-8.81c-1.75-.81-3.55-1.6-5.34-2.33h0Zm-8.74-3.24l-3.05,9.22c.29.1.58.19.88.29,0,0,0,0,0,0,.02,0,.05.02.07.02,0,0,.01,0,.02,0,.02,0,.04.01.06.02,0,0,.02,0,.02,0,.02,0,.04.01.06.02.01,0,.02,0,.03.01.01,0,.02,0,.04.01l.05.02s.02,0,.03.01c.02,0,.04.01.06.02,0,0,.01,0,.02,0,.04.01.09.03.13.04h0s.06.02.08.03h0c.69.24,1.38.49,2.07.74h0s.05.02.08.03c0,0,0,0,0,0,.01,0,.03.01.04.02,0,0,0,0,0,0,.02,0,.05.02.07.03.01,0,.02,0,.03.01.02,0,.03.01.05.02.01,0,.02,0,.03.01h.04s.03.02.05.03c0,0,.02,0,.02,0,.02,0,.04.01.06.02,0,0,.01,0,.02,0,.02,0,.04.02.06.02,0,0,0,0,.01,0,.02,0,.05.02.07.03,0,0,0,0,0,0,.26.1.53.2.78.3l3.45-9.08c-1.81-.69-3.66-1.34-5.49-1.95h0Zm-8.95-2.61l-2.38,9.42c.54.14,1.09.28,1.63.42h.01s.05.02.07.02c0,0,0,0,.01,0,.02,0,.05.01.07.02,0,0,.01,0,.02,0,.02,0,.04.01.07.02,0,0,0,0,.01,0,.02,0,.04.01.06.02,0,0,.01,0,.02,0,.02,0,.04.01.06.02,0,0,.02,0,.02,0,.02,0,.04,0,.06.02,0,0,.02,0,.03,0,.02,0,.03,0,.05.01.01,0,.02,0,.03,0,.02,0,.02,0,.04.01.02,0,.03,0,.04.01.01,0,.03,0,.04.01.01,0,.02,0,.04,0,.02,0,.03,0,.05.01.01,0,.02,0,.04.01.01,0,.02,0,.04.01.02,0,.03,0,.05.01.01,0,.01,0,.03,0,.02,0,.04.01.06.02,0,0,.02,0,.03,0,.02,0,.04.01.06.02.01,0,.01,0,.02,0,.02,0,.04.01.05.02.01,0,.02,0,.03,0,.01,0,.03,0,.04.01,0,0,.01,0,.02,0l.07.02s.01,0,.02,0c.02,0,.05.01.07.02,0,0,0,0,.02,0,.02,0,.05.01.07.02,0,0,.01,0,.02,0,.01,0,.03,0,.04.01,0,0,0,0,0,0,.03,0,.05.01.08.02,0,0,.01,0,.02,0,.02,0,.04.01.07.02,0,0,.02,0,.02,0,.02,0,.04.01.06.02,0,0,.01,0,.02,0,.02,0,.05.01.07.02,0,0,.02,0,.02,0,.01,0,.03,0,.04.01,0,0,.01,0,.02,0,.02,0,.05.01.07.02,0,0,.02,0,.02,0l.06.02s.02,0,.03,0c.02,0,.04.01.05.02.01,0,.02,0,.03,0,.01,0,.02,0,.04.01.02,0,.03,0,.05.01.01,0,.02,0,.04.01.02,0,.02,0,.04.01.01,0,.03,0,.04.01.01,0,.03,0,.04.01h.04s.03.02.04.02c.01,0,.02,0,.03,0,.02,0,.03.01.05.02,0,0,.02,0,.03,0,.02,0,.04.01.06.02,0,0,.02,0,.03,0,.02,0,.04.01.06.02,0,0,.01,0,.02,0,.02,0,.04.01.06.02,0,0,.01,0,.02,0,.02,0,.04.01.07.02,0,0,.01,0,.02,0,.02,0,.04.01.07.02,0,0,0,0,.01,0,.02,0,.05.01.07.02,0,0,0,0,0,0,.14.04.26.08.4.12l2.8-9.3c-1.85-.56-3.74-1.08-5.62-1.55h0Zm-9.11-1.97l-1.71,9.56c.93.17,1.86.34,2.78.53h0s.03,0,.04,0c0,0,0,0,.01,0,.01,0,.02,0,.03,0,0,0,0,0,.02,0,0,0,.02,0,.03,0,0,0,.01,0,.02,0,0,0,.01,0,.02,0,0,0,.02,0,.02,0,0,0,.01,0,.02,0,0,0,.02,0,.02,0,0,0,.01,0,.02,0,.05.01.1.02.15.03,0,0,0,0,0,0,.01,0,.02,0,.04,0,0,0,0,0,0,0,.01,0,.02,0,.04,0,0,0,0,0,0,0,.01,0,.03,0,.04,0h0c.66.14,1.32.28,1.97.43l2.13-9.48c-1.89-.42-3.81-.81-5.71-1.15h0Zm-9.22-1.32l-1.03,9.66c1.8.19,3.58.42,5.35.69l1.46-9.6c-1.91-.29-3.85-.54-5.77-.75h0Zm-9.29-.67l-.36,9.71c.11,0,.23,0,.34.01h0s.08,0,.12,0c0,0,0,0,0,0,0,0,.02,0,.02,0,0,0,.02,0,.03,0,0,0,.01,0,.02,0,.01,0,.02,0,.03,0,0,0,0,0,.01,0,.01,0,.02,0,.04,0h0c.8.03,1.6.07,2.39.12h0s.03,0,.05,0h0s.03,0,.05,0h0s.1,0,.14,0h0s.03,0,.04,0h.01s.03,0,.04,0h0s.03,0,.04,0h0s.1,0,.15,0h0s.03,0,.05,0h0s.03,0,.04,0h0s.03,0,.04,0h0c.56.04,1.13.08,1.69.12l.78-9.68c-1.92-.15-3.88-.27-5.81-.34h0Zm-4.92-.09v9.71h.16s.01,0,.02,0h.08s.04,0,.06,0h.02s.04,0,.06,0h.02s.04,0,.05,0h.03s.03,0,.04,0c.01,0,.02,0,.03,0,.02,0,.04,0,.06,0,.01,0,.02,0,.03,0h.04s.04,0,.05,0c.01,0,.02,0,.03,0,.02,0,.04,0,.06,0,0,0,.02,0,.03,0,.01,0,.03,0,.04,0,0,0,.01,0,.02,0,.03,0,.05,0,.08,0,0,0,.01,0,.01,0,.05,0,.09,0,.14,0h.01s.06,0,.08,0h.01s.02,0,.03,0l.1-9.71c-.48,0-.95,0-1.43,0h0Z" style="fill: #41c2d9; stroke-width: 0px;"/>
            <circle cx="132.21" cy="132.21" r="122.5" style="fill: none; stroke: #fff; stroke-miterlimit: 10; stroke-width: 15.11px;"/>
            <circle cx="132.21" cy="132.21" r="122.5" style="fill: #41c2d9; opacity: .39; stroke-width: 0px;"/>
          </g>
          <g style="clip-path: url(#clippath);">
            <g>
              <g>
                <polygon points="197.9 42.6 184.2 43.71 186.28 63.86 200.86 62.21 197.9 42.6" style="fill: #f0f1f1; stroke-width: 0px;"/>
                <g>
                  <path d="m206.35,70.05c-.18.47-.69.73-1.19.58l-20.07-5.95c-.49-.15-.78-.64-.68-1.14l21.93,6.51Z" style="fill: #fff; stroke-width: 0px;"/>
                  <path d="m210.33,56.64l-3.98,13.41-21.93-6.51,3.98-13.41c.08-.26.35-.4.61-.33l21,6.23c.26.08.41.35.33.61Z" style="fill: #1c75bb; stroke-width: 0px;"/>
                  <rect x="200.07" y="60.48" width="8.34" height="3.04" transform="translate(86.7 240.17) rotate(-73.47)" style="fill: #faaf40; stroke-width: 0px;"/>
                  <polygon points="183.07 61.76 183.43 62.35 182.79 62.69 184.52 63.2 184.8 62.27 183.07 61.76" style="fill: #ef8b46; stroke-width: 0px;"/>
                </g>
              </g>
              <path d="m229.79,168.83s-2.31,13.43-9.42,20.29l14.42-5.15s10.53-12.83,7.78-17.92c-9.52,2.46-12.78,2.77-12.78,2.77Z" style="fill: #fff; stroke-width: 0px;"/>
              <path d="m178.89,81.66s9.72,8.43,19.02,9.18l-13.61,4.87s-15.37-3.07-16.41-8.43c8.42-3.9,10.99-5.62,10.99-5.62Z" style="fill: #fff; stroke-width: 0px;"/>
              <path d="m61.73,99.1s4.31,12.12,12.02,17.36l-14.24-2.47s-11.86-10.24-10.12-15.42c9.25.76,12.34.53,12.34.53Z" style="fill: #fff; stroke-width: 0px;"/>
              <g>
                <path d="m151.38,155.2l-9.38,17.01,13.06,7.2,9.38-17.01-13.06-7.2Zm1.83,21.11c.22-.4.73-.55,1.13-.33.4.22.55.73.33,1.13-.22.4-.73.55-1.13.33-.4-.22-.55-.73-.33-1.13Zm1.46-2.65c.22-.4.73-.55,1.13-.33.4.22.55.73.33,1.13-.22.4-.73.55-1.13.33-.4-.22-.55-.73-.33-1.13Zm1.46-2.65c.22-.4.73-.55,1.13-.33.4.22.55.73.33,1.13-.22.4-.73.55-1.13.33-.4-.22-.55-.73-.33-1.13Zm1.46-2.65c.22-.4.73-.55,1.13-.33.4.22.55.73.33,1.13-.22.4-.73.55-1.13.33-.4-.22-.55-.73-.33-1.13Zm1.46-2.65c.22-.4.73-.55,1.13-.33.4.22.55.73.33,1.13-.22.4-.73.55-1.13.33-.4-.22-.55-.73-.33-1.13Zm1.46-2.65c.22-.4.73-.55,1.13-.33.4.22.55.73.33,1.13-.22.4-.73.55-1.13.33-.4-.22-.55-.73-.33-1.13Z" style="fill: #fff; stroke-width: 0px;"/>
                <g>
                  <path d="m145.77,151.91c-.49-.12-1,.15-1.17.64l-6.69,19.97c-.16.49.08,1.02.55,1.21l7.31-21.83Z" style="fill: #5d0d0e; stroke-width: 0px;"/>
                  <path d="m159.12,156.38l-13.35-4.47-7.31,21.83,13.35,4.47c.26.09.53-.05.62-.31l7-20.9c.09-.26-.05-.54-.31-.62Z" style="fill: #fc7e96; stroke-width: 0px;"/>
                  <rect x="149.65" y="154.1" width="3.06" height="8.39" transform="translate(-46.94 251.36) rotate(-71.48)" style="fill: #5d0d0e; stroke-width: 0px;"/>
                  <polygon points="139.15 175.88 138.88 175.24 138.23 175.57 138.8 173.85 139.73 174.16 139.15 175.88" style="fill: #faaf40; stroke-width: 0px;"/>
                </g>
              </g>
              <g>
                <path d="m98.95,94.64l-9.59-14.67-11.26,7.36,9.59,14.67,11.26-7.36Zm-17.6-7.48c.23.35.13.81-.22,1.04-.35.23-.81.13-1.04-.22-.23-.35-.13-.81.22-1.04.35-.23.81-.13,1.04.22Zm1.49,2.29c.23.35.13.81-.22,1.04-.35.23-.81.13-1.04-.22-.23-.35-.13-.81.22-1.04.35-.23.81-.13,1.04.22Zm1.49,2.29c.23.35.13.81-.22,1.04-.35.23-.81.13-1.04-.22-.23-.35-.13-.81.22-1.04.35-.23.81-.13,1.04.22Zm1.49,2.29c.23.35.13.81-.22,1.04-.35.23-.81.13-1.04-.22-.23-.35-.13-.81.22-1.04.35-.23.81-.13,1.04.22Zm1.49,2.29c.23.35.13.81-.22,1.04-.35.23-.81.13-1.04-.22-.23-.35-.13-.81.22-1.04.35-.23.81-.13,1.04.22Zm1.49,2.29c.23.35.13.81-.22,1.04-.35.23-.81.13-1.04-.22-.23-.35-.13-.81.22-1.04.35-.23.81-.13,1.04.22Z" style="fill: #fff; stroke-width: 0px;"/>
                <g>
                  <path d="m73.56,98.23c-.16.44.04.94.47,1.13l17.67,8.07c.43.2.94.03,1.17-.38l-19.31-8.82Z" style="fill: #f05a29; stroke-width: 0px;"/>
                  <path d="m78.95,86.42l-5.39,11.81,19.32,8.82,5.39-11.81c.1-.23,0-.5-.22-.6l-18.49-8.44c-.23-.1-.5,0-.6.22Z" style="fill: #faaf40; stroke-width: 0px;"/>
                  <rect x="76.07" y="92.47" width="7.74" height="2.83" transform="translate(-38.67 127.61) rotate(-65.46)" style="fill: #fff; stroke-width: 0px;"/>
                  <polygon points="94.9 106.62 94.29 106.81 94.53 107.44 93.01 106.74 93.38 105.93 94.9 106.62" style="fill: #ee4136; stroke-width: 0px;"/>
                </g>
              </g>
              <path d="m107.99,183.89c1.79,4.16,10.42,21.8,10.59,17.69.15-3.78,14.24-7.13,14.24-7.13l-11.25-18.7s-15.14,4.49-13.58,8.13Zm20.34,9.61c-.25-.42-.11-.96.3-1.21.42-.25.96-.11,1.21.3.25.42.11.96-.3,1.21s-.96.11-1.21-.3Zm-1.65-2.76c-.25-.42-.11-.96.3-1.21.42-.25.96-.11,1.21.3.25.42.11.96-.3,1.21-.42.25-.96.11-1.21-.3Zm-1.65-2.76c-.25-.42-.11-.96.3-1.21.42-.25.96-.11,1.21.3.25.42.11.96-.3,1.21-.42.25-.96.11-1.21-.3Zm-1.65-2.76c-.25-.42-.11-.96.3-1.21.42-.25.96-.11,1.21.3.25.42.11.96-.3,1.21-.42.25-.96.11-1.21-.3Zm-1.65-2.76c-.25-.42-.11-.96.3-1.21.42-.25.96-.11,1.21.3.25.42.11.96-.3,1.21-.42.25-.96.11-1.21-.3Zm-1.65-2.76c-.25-.42-.11-.96.3-1.21.42-.25.96-.11,1.21.3.25.42.11.96-.3,1.21-.42.25-.96.11-1.21-.3Z" style="fill: #fff; stroke-width: 0px;"/>
              <g>
                <polygon points="88.68 40.57 99.09 52.42 81.27 68.08 72.03 57.57 88.68 40.57" style="fill: #1f4987; stroke-width: 0px;"/>
                <polygon points="85.17 40.24 96.41 50.05 81.7 68.67 69.22 57.88 85.17 40.24" style="fill: #f2f2f2; stroke-width: 0px;"/>
                <polygon points="90.42 42.15 99.72 53.83 81.89 69.49 71.57 56.63 90.42 42.15" style="fill: #fff; stroke-width: 0px;"/>
                <rect x="79.08" y="45.13" width="16.48" height="23.73" transform="translate(106.35 159.51) rotate(-133.65)" style="fill: #fc7e96; stroke-width: 0px;"/>
                <path d="m78.95,57.1c-.5.56-.57,1.32-.53,1.91.04.52.29,1.05.7,1.48l2.17,2.26,2.17,2.26c.41.43.93.7,1.45.76.59.07,1.36.02,1.93-.45,1.09-.89,1.85-.57,1.85-.57,0,0-.29-.78.65-1.83.5-.56.57-1.32.53-1.91-.04-.52-.29-1.05-.7-1.48l-2.17-2.26-2.17-2.26c-.41-.43-.93-.7-1.45-.76-.59-.07-1.36-.02-1.93.45-1.09.89-1.85.57-1.85.57,0,0,.29.78-.65,1.83Z" style="fill: #1c75bb; stroke-width: 0px;"/>
              </g>
              <g>
                <path d="m179.1,111c-1.53-.64-3.24-.51-4.88.47-2.81,1.7-4.21,5.42-3.22,8.55.29.9.75,1.74,1.05,2.64.56,1.68.48,3.53-.12,5.19-.49,1.36-2.16,3.46.13,3.98,1.47.33,4.48-.48,5.53-1.56,1.49-1.54,1.14-4.02,1.63-6.1.49-2.07,1.94-3.89,3.86-4.82,1.04-.51,3.88-1.36,2.31-2.96-.34-.35-.79-.57-1.2-.84-1.21-.8-2.04-2.04-3.03-3.1-.63-.67-1.33-1.16-2.07-1.48Z" style="fill: #0e2e66; stroke-width: 0px;"/>
                <circle cx="184.64" cy="118.05" r="2.8" style="fill: #faaf40; stroke-width: 0px;"/>
                <path d="m199.36,126.49c-.08-1.42-.43-2.82-.91-4.15-.42-1.18-.98-2.94-1.94-3.78-2.06-1.81-5.92-1.86-8.27-.78-2.01.93-3.56,2.85-4.02,5.02-.48,2.26.96,4.75,1.88,6.78,1.92,3.01,5.3,6.29,9.12,4.77,3.08-1.22,4.32-4.75,4.14-7.86Z" style="fill: #ffd9cc; stroke-width: 0px;"/>
                <path d="m190.62,187.67s-4.05,3.85-5.2,4.76c-1.14.91-7.54,1.98-10.17,2.21-2.63.22-10.21.74-10.21.74,0,0-2.37-3.36-1.44-4.2.93-.83,9.23-4.37,11.56-4.59,2.33-.22,5.21.65,5.8.92.59.28,2.13-4.67,3.39-6.46,1.26-1.79,3.36-.1,3.36-.1l4.59,4.32-1.68,2.39Z" style="fill: #ffd9cc; stroke-width: 0px;"/>
                <path d="m164.1,198.18c.05-1.76,0-3.48-.87-5.08-.52-.97-1.19-1.8-2.39-1.74-1.08.05-1.93.59-2.46,1.53-.69,1.24-.82,2.67-.7,4.06.21,2.5.37,4.78,1.63,7.01.48.84.99,1.55,1.66,2.12.69.58,1.77.41,2.23-.37,1.2-2.02.84-5.62.89-7.54Z" style="fill: #e96567; stroke-width: 0px;"/>
                <path d="m161.42,202.85c-1.92-1.63-1.94-5.76-1.67-7.82.17-1.25.76-2.05,1.73-2.76,1.32-.05,2.01,1.71,2.18,2.79.2,1.25.89,10.44-2.24,7.78Z" style="fill: #ffd9cc; stroke-width: 0px;"/>
                <path d="m165.91,195.65s-.56.75-1.36,1.06c-.79.32-3-3.89-2.87-5.4.83-.43,1.81-.49,2.14-.47.33.03-.5,1.73,2.08,4.8Z" style="fill: #5d0d0e; stroke-width: 0px;"/>
                <path d="m201.94,196.4c-1.09.98-6.4,4.46-8.78,5.58-2.39,1.12-9.33,4.23-9.33,4.23,0,0-3.39-2.34-2.8-3.44.58-1.1,7.15-7.29,9.27-8.3,2.11-1.01,5.11-1.19,5.76-1.14.65.05.38-5.12.95-7.24.57-2.12,3.12-1.26,3.12-1.26l6.85-2.35s-.7,10.02-5.03,13.91Z" style="fill: #ffd9cc; stroke-width: 0px;"/>
                <path d="m184.41,211.44c-.27-.76-.47-1.54-.72-2.3-.56-1.67-1.2-3.26-2.57-4.47-.93-.83-1.97-1.41-3.28-.57-.77.49-1.26,1.33-1.37,2.23-.16,1.34.2,2.66.77,3.88,1.06,2.27,2,4.36,3.95,6.02.73.62,1.45,1.11,2.28,1.41.87.32,1.85-.25,1.99-1.17.25-1.64-.56-3.66-1.05-5.03Z" style="fill: #e96567; stroke-width: 0px;"/>
                <path d="m182.68,213.95c-2.06-.74-3.19-4.4-3.51-6.32-.19-1.17.09-2.09.71-3.08,1.1-.53,2.16.78,2.59,1.67.51,1.04,3.56,8.93.2,7.73Z" style="fill: #ffd9cc; stroke-width: 0px;"/>
                <path d="m184.5,206.14s-.27.9-.91,1.47c-.64.57-4.16-2.62-4.55-4.08.63-.69,1.53-1.09,1.85-1.18s.13,1.8,3.61,3.78Z" style="fill: #5d0d0e; stroke-width: 0px;"/>
                <path d="m210.51,166.83s4.38,13.91,8.45,22.22c0,0-4.27,3.59-10.79,1.2-6.52-2.39-9.02-.83-14.13,0-5.11.83-13.76-2.12-16.99-7.77-3.22-5.65-3.56-7.68-3.56-7.68,0,0,11.84-5.26,15.93-8.82,4.09-3.56,19.08-1.36,21.09.85Z" style="fill: #0e2e66; stroke-width: 0px;"/>
                <path d="m209.02,149.7c-5.18-5.53-1.11-15.92-.94-16.39l2.32-.9c-.04.11-4.23,11.26.11,15.9l-1.49,1.39Z" style="fill: #d14e54; stroke-width: 0px;"/>
                <path d="m211.28,147.58c.46,3.22.45,9.16,3.96,10.79,1.83.85,3,1.97,4.95,1.73,2.56-.31,3.78-3.5,3.23-5.51-.59-2.18-.52-4.17-2.03-5.98-1.55-.65-2.77-.66-4.41-.84-.45-.05-5.74-.47-5.7-.19Z" style="fill: #b7484e; stroke-width: 0px;"/>
                <path d="m195.81,132.67c-.17.02-.32.05-.48.07-.01-.04-.03-.08-.04-.12-3.65.45-3.29,1.25-3.29,1.25,0,0,.09,2.88-.48,5.46.18-.01.36-.03.54-.04,0,.03-.01.06-.02.09,7.45-.49,7.4-2.35,7.4-2.35,0,0-3.36-2.93-3.63-4.36Z" style="fill: #ffd9cc; stroke-width: 0px;"/>
                <path d="m193.49,137.85s-5.75.46-10.97,1.58c-5.22,1.12-3.17.13-6.18.27-3.01.14-10.33,1.49-12.21,2.05-6.27,1.88-14.57-4.59-20.2.36,2.13.25,4.27.5,6.4.75.6.07,1.34.27,1.44.86.22,1.25-2.41,1.07-2.66,2.32,9.08-2.82,18.58.58,27.75-1.18,1.53-.29,2.89-.31,2.89-.31,0,0,11.18,2.19,12.88,1.76,1.06-3.04.86-8.47.86-8.47Z" style="fill: #ffd9cc; stroke-width: 0px;"/>
                <path d="m199.27,136.8s5.16-2.12,10.16-3.43c5-1.31,2.78-1.28,5.44-2.48,2.66-1.2,9.59-3.24,11.45-3.56,1.86-.32,10.98-7.18,10.98-7.18,0,0,4.75-2.75,6.5-1.39-1.28.98-2.61,1.9-3.99,2.75-.88.54-2.16.85-1.94,2.1.14.81,2.17.48,2.79.6.55.11-3.96,1.87-5.21,2.06-1.25.19-1.54.01-4.84,2.35-3.3,2.34-12.36,6.65-13.81,7.06-1.45.42-2.62,1-2.62,1,0,0-8.6,6.87-10.25,7.24-2.32-2.23-4.66-7.13-4.66-7.13Z" style="fill: #ffd9cc; stroke-width: 0px;"/>
                <path d="m214.52,167.07c-4.33-4.48-8.28-14.45-8.66-16.8-.39-2.47-.01-7.29-1.08-9.96-1.07-2.67-2.7-5.14-2.7-5.14,0,0-3.42,0-4.24.33,1.79,2.48-1.54,2.54-2.03,2.64-2.31.49-4.5-.95-4.5-.95,0,0-4.06,1.06-3.99,1.39.07.33,3.23.55,3.55,3.85.31,3.29-2.16,3.95-2.16,3.95,0,0,1.25,3.77,2.03,6.85.77,3.08-1.54,7.74-3.04,9.67-1.5,1.94-4.06,4.22-3.92,4.88.14.67,1.23,1.59,3.57,3.07,2.34,1.47,3.9,1.03,6.26.76,2.36-.26,3.18-.56,6.97-.66,3.79-.1,4.9.36,6.67.91,1.77.55,4.03.42,4.99-1.05.8-1.23,1.45-1.46,2.32-2.45.33-.37.31-.94-.03-1.29Z" style="fill: #faaf40; stroke-width: 0px;"/>
                <path d="m196.63,130.25c-.45.21-.79.41-1.13.57-.34.16-.64.27-.94.33-.3.06-.62.09-.99.08-.37,0-.76-.07-1.25-.1.19.45.55.79.99,1.02.44.22.99.3,1.5.19.52-.11.98-.4,1.29-.78.31-.37.51-.82.54-1.3Z" style="fill: #ef9170; stroke-width: 0px;"/>
                <path d="m208.78,149.3c.46,3.22.45,9.16,3.96,10.79,1.83.85,4.72.41,6.67.18,2.56-.31,2.06-1.95,1.51-3.96-.6-2.18-.52-4.17-2.03-5.98-1.55-.65-2.77-.66-4.41-.84-.45-.05-5.74-.47-5.7-.19Z" style="fill: #5d0d0e; stroke-width: 0px;"/>
                <path d="m211.37,147.15c-.9.55-2.08,1.3-2.82,2.12-1.2,1.34.69,6,1.89,6.49,1.28.53,8.73,1.28,9.53-1.29.36-1.16-.31-1.92-.64-2.97-.47-1.49,1.02-1.91,1.61-3.02.97-1.84-2.94-1.8-3.96-1.82-1.82-.05-3.28.21-5.05.37-.29.03-.55.11-.55.11Z" style="fill: #8e2b30; stroke-width: 0px;"/>
                <path d="m220.39,151.88c-1.91-11.4-12.23-18.5-12.31-18.56l2.32-.9c.36.29,9.62,6.93,11.65,19.09l-1.67.37Z" style="fill: #e96567; stroke-width: 0px;"/>
                <path d="m222.29,151.59c.09.43-.19.85-.62.94l-.35.07c-.43.09-.85-.19-.94-.62h0c-.09-.43.19-.85.62-.94l.35-.07c.43-.09.85.19.94.62h0Z" style="fill: #5d0d0e; stroke-width: 0px;"/>
                <path d="m193.15,124.77c.28.56.65,1.07,1.05,1.54.2.23.42.45.65.65.23.2.49.37.74.52h0s.02.02.02.02c.21.17.31.47.26.71-.04.25-.16.44-.3.61-.29.32-.71.51-1.11.48-.01,0-.02-.01-.02-.02,0,0,0-.02.01-.02.36-.14.63-.39.81-.67.09-.14.15-.29.16-.43,0-.14-.01-.24-.1-.33l.03.02c-1.06-.78-1.82-1.87-2.25-3.05,0-.01,0-.02.01-.03.01,0,.02,0,.03.01Z" style="fill: #ef9170; stroke-width: 0px;"/>
                <path d="m187.08,124.82c.1-.17.24-.32.41-.44,1.64-1.09,3.52-2.01,5.46-2.51,2.05-.52,3.81-.3,5.83.2,0,0-.1-2.77-1.1-3.98-.99-1.2-4.19-4.08-9.16-2.46s-6.33,5.97-5.65,8.38c.68,2.41,2.46,5.47,3.98,6.24,1.52.77.84-1.32.31-2.63-.31-.78-.54-2.02-.08-2.8Z" style="fill: #0e2e66; stroke-width: 0px;"/>
                <path d="m187.14,129.45c-.32-.73-.91-1.34-1.64-1.65-.55-.24-1.15-.32-1.37.27-.44,1.18,1.37,3.79,3,3.25.48-.31.34-1.12,0-1.87Z" style="fill: #ffd9cc; stroke-width: 0px;"/>
                <g>
                  <path d="m189.81,149.88c.32,1.07.65,2.25.93,3.34.05.21.09.44.12.67.09,0,.17,0,.26,0,3.35,0,9.86-.35,14.95-2.75-.1-.35-.17-.65-.2-.88-.14-.9-.18-2.11-.23-3.41-5.08,3.1-13.49,3.09-15.82,3.02Z" style="fill: #ef9014; stroke-width: 0px;"/>
                  <path d="m206.85,153.48c-5.2,2.14-12.34,2.49-16.09,2.5-.23,1.35-.73,2.75-1.32,3.99.33,0,.71.01,1.14.01,4,0,11.82-.35,17.81-2.82-.6-1.32-1.12-2.59-1.53-3.68Z" style="fill: #ef9014; stroke-width: 0px;"/>
                </g>
              </g>
              <g>
                <path d="m146.78,99.4c-.17-1.2-.34-2.39-.51-3.59-.3-2.12-1.67-3.1-3.44-3.45-1.24-.25-2.1-1.38-2.09-2.65.03-2.9-.15-7.48-1.41-9.01-1.37-1.66-6.58-1.64-9.37-1.51-1.08.05-2.01.77-2.35,1.79-.83,2.52-1.67,5.03-2.5,7.55-.33,1-1.23,1.71-2.29,1.79-1.6.11-3.59.42-4.09,1.45-.64,1.3-3.61,8.65,1.13,11.42,3.74,2.19,9.18,2.28,13.38,2.36,3.2.06,10.58.66,12.95-2.05.94-1.08.8-2.7.6-4.12Z" style="fill: #1c75bb; stroke-width: 0px;"/>
                <path d="m122.61,120.25l-4.22,4.48-1.05,1.11c-.18.16-.35.35-.51.56-.15.21-.28.43-.39.67l-.04.09s-.02.05-.05.12l-.12.37-.23.73-3.72,11.74c-.43,1.36-1.89,2.12-3.25,1.69-1.22-.39-1.96-1.6-1.78-2.83l1.73-12.2.11-.76.05-.38c0-.05.03-.16.04-.25l.06-.28c.16-.75.39-1.48.7-2.19.31-.71.69-1.39,1.14-2.02l.86-1.29,3.42-5.12c1.42-2.13,4.31-2.7,6.44-1.28,2.13,1.42,2.7,4.31,1.28,6.44-.14.21-.31.42-.48.6Z" style="fill: #ffd9cc; stroke-width: 0px;"/>
                <path d="m113.85,141.26c.51,1.29-.17,2.88-.75,4.02-1.17,2.31-3.02,4.35-5.15,5.82-1.82,1.25-5.26,2.63-6.58-.03-1.22-2.46.93-5.06,2.54-6.72,1.63-1.68,3.42-3.2,5.52-4.27,1.48-.75,3.68-.7,4.43,1.18Z" style="fill: #1b4c47; stroke-width: 0px;"/>
                <path d="m112.03,141.49c.34.85-.11,1.9-.49,2.65-.77,1.52-1.99,2.88-3.4,3.85-1.2.83-3.47,1.74-4.34-.01-.81-1.62.61-3.34,1.67-4.44,1.07-1.11,2.26-2.12,3.64-2.82.97-.5,2.43-.46,2.93.78Z" style="fill: #f8fdf7; stroke-width: 0px;"/>
                <path d="m121.07,74.56l-6.92-10.09-.45-.65c-.26-.37-.48-.77-.65-1.19-.33-.84-.45-1.75-.35-2.63.01-.11.03-.22.05-.33l.04-.2.08-.37.15-.75.31-1.5,1.23-5.99,3.47.49-.49,6.1-.12,1.52-.06.76-.03.38v.18s-.01.03,0,.05c.02.14.08.26.15.35.04.05.08.09.13.12l.49.56,8.1,9.17-5.13,4Z" style="fill: #ffd9cc; stroke-width: 0px;"/>
                <path d="m114.52,40.67c.2.28.36.66.44,1,.16.68.47,1.56.68,2.22,0,0,.02-1.76-.02-3.59-.05-1.85.69-1.66,1-.99.27.58.6,4.23.6,4.23l.88-4.05c.18-.65,1.24-1.14,1.01.04-.24,1.29-.23,4.72-.23,4.72,0,0,.66-1.75,1.16-3.05.5-1.31,1.11-.91,1.04-.36-.07.55-.44,2.3-.68,4.33-.1.82-.44,2.11-.44,2.11,0,0,1.3-.69,1.71-.91.42-.23,1.38-.24,1.91.37.53.61-.28.79-1.08,1.04-.8.25-1.82,1.08-1.82,1.08-.25.26-.34.64-.52.95-.22.37-.54.73-.91.96-.58.36-1.05.52-1.28.91,0,0-2.39.24-3.46-.64,0-.56-.07-1.37-.29-1.86-.65-1.82.3-3.57.05-5.4-.12-.93-.24-1.87-.28-2.8-.02-.44.17-.77.5-.3Z" style="fill: #ffd9cc; stroke-width: 0px;"/>
                <path d="m146.98,74.68l11.78-3.32.71-.2c.06,0,.12-.02.17-.04.12-.04.23-.11.32-.22.01-.01.02-.03.03-.04l.09-.16.18-.34.36-.67.72-1.35,2.89-5.39,3.19,1.46-2.21,5.7-.55,1.43-.28.71-.14.36-.07.19c-.05.1-.09.2-.14.3-.39.79-.99,1.49-1.72,2.02-.37.26-.76.48-1.19.65l-.73.3-11.28,4.74-2.15-6.15Z" style="fill: #ffd9cc; stroke-width: 0px;"/>
                <path d="m107.11,138.3c-.61.16-1.19,2.9-.73,3.55.88,1.22,5.5.73,6.44.34.05-.08.57-3.25.68-2.94-.41-1.6-4.63-1.41-6.4-.95Z" style="fill: #56110e; stroke-width: 0px;"/>
                <path d="m150.61,107.31c1.37-.2,2.76.83,3.74,1.65,1.98,1.67,3.54,3.94,4.48,6.35.8,2.06,1.36,5.72-1.54,6.4-2.68.63-4.72-2.06-5.96-4.01-1.26-1.97-2.33-4.07-2.89-6.35-.39-1.61.16-3.75,2.17-4.04Z" style="fill: #1b4c47; stroke-width: 0px;"/>
                <path d="m150.42,109.13c.9-.13,1.82.54,2.47,1.09,1.31,1.1,2.35,2.6,2.97,4.19.53,1.36.9,3.77-1.01,4.22-1.77.42-3.11-1.36-3.94-2.64-.84-1.3-1.54-2.68-1.92-4.19-.26-1.06.1-2.47,1.43-2.67Z" style="fill: #f8fdf7; stroke-width: 0px;"/>
                <path d="m133.74,122.58s2.09,6.6,3.78,7.2c1.69.59,5.89,2.07,9.44-3.92,3.56-5.99,4.49-9.06,4.49-9.06v-1.38s-1.68-4.1-3.06-3.4c-1.06.54-4.4,5.64-4.4,5.64l-1.39-1.7-8.86,6.63Z" style="fill: #ffd9cc; stroke-width: 0px;"/>
                <path d="m147.48,111.6c.2-.82,1.89-1.72,1.98-1.69,1.53.4,3.37,2.27,3.67,3.16.3.92-1.49,4.49-1.67,3.73-.24-.99-1.58-5.06-3.91-4.55-.32.07-.23.02-.06-.65Z" style="fill: #56110e; stroke-width: 0px;"/>
                <path d="m140.7,102.41l-4.47.72c-3.99.64-8.06.57-12.03-.22l-3.53-.7-8.76,16.15,8.52,5.57,7.81-7.86c.26.13.54.2.85.2.23,0,.46-.04.67-.12.66,1.36,1.83,3.85,2.9,6.55,3.23,1.28,8.43-2.86,11.32-5.04.36-4.96-3.29-15.24-3.29-15.24Z" style="fill: #1b4c47; stroke-width: 0px;"/>
                <path d="m150.28,72.67s0,0,0,0l-11.53,1.85c-1.17.19-2.27.66-3.47.66-.99,0-1.99-.25-2.85-.75-.89-.51-1.45-1.41-2.14-2.14-.86-.91-1.81-1.73-2.7-2.62-1.1-1.1-2.21-2.2-3.31-3.3-.13-.13-.27-.27-.4-.4l-7.19,5.28s0,0,0,0l4.54,7.08s0,.01.02.02c.12.15,1.58,2.06,1.51,4.53-.08,2.97-3.76,17.65-5.17,19.32,1.45.76,4.15,2.42,7.71,1.97,4.02-.51,5.38-.14,10.47.58,4.96.73,6.66-.21,9.06-3.76-1.48-1.35-1.74-5.89-2.42-9.38-.63-3.22.88-6.48,3.74-8.09l4.5-2.53s0,0,0,0c1.91-3.66-.36-8.31-.37-8.34Z" style="fill: #66b7fb; stroke-width: 0px;"/>
                <path d="m133.71,78.45l-.98,5.9c-.36,1.95-.74,3.94-1.52,5.81.17-2.01.39-3.98.73-5.95.36-1.96.83-3.96,1.77-5.76Z" style="fill: #35a0db; stroke-width: 0px;"/>
                <path d="m135.9,80.73c0,.46-.36.84-.83.85-.46,0-.84-.36-.85-.82,0-.46.36-.84.83-.85.46,0,.84.36.85.83Z" style="fill: #35a0db; stroke-width: 0px;"/>
                <path d="m135.12,84.56c0,.46-.36.84-.83.85-.46,0-.84-.36-.85-.82,0-.46.36-.84.83-.85.46,0,.84.36.85.83Z" style="fill: #35a0db; stroke-width: 0px;"/>
                <path d="m134.34,88.33c0,.46-.36.84-.83.85-.46,0-.84-.36-.85-.82,0-.46.36-.84.83-.85.46,0,.84.36.85.83Z" style="fill: #35a0db; stroke-width: 0px;"/>
                <path d="m137.94,74.63s-.57-.9-.28-3.5c-2.74-.4-4.45-.85-4.45-.85,0,0-.85,1.66-2.17,3.36-.42.56-.33,3.8,2.72,4.07,4.74.49,4.19-3.08,4.19-3.08Z" style="fill: #ffd9cc; stroke-width: 0px;"/>
                <path d="m172.98,55.88c-.32.13-.66.37-.91.6-.5.48-1.24,1.06-1.78,1.5,0,0,.94-1.49,1.97-3.01,1.04-1.53.32-1.77-.3-1.37-.54.34-2.79,3.23-2.79,3.23l1.45-3.88c.2-.64-.42-1.63-.87-.51-.49,1.21-2.36,4.09-2.36,4.09,0,0,.39-1.82.67-3.2.28-1.37-.44-1.36-.68-.87-.24.5-.87,2.17-1.77,4.01-.36.74-.78,2.01-.78,2.01,0,0-.72-1.28-.95-1.69-.23-.42-1.03-.95-1.81-.73-.78.23-.19.81.35,1.46.53.65.95,1.89.95,1.89.07.35-.06.72-.08,1.08-.02.43.05.91.24,1.3.29.62.52,1.11.5,1.56,0,0,1.99,1.34,3.36,1.18.3-.47.78-1.06,1.23-1.35,1.54-1.18,1.68-3.16,2.88-4.57.61-.71,1.21-1.44,1.75-2.2.25-.36.27-.74-.26-.53Z" style="fill: #ffd9cc; stroke-width: 0px;"/>
                <path d="m139.66,75.37l-1.7-1.71s-2.02,2.99-4.4,3.81c.37.47,1.33.82,2.72.62,1.39-.19,3.39-2.72,3.39-2.72Z" style="fill: #35a0db; stroke-width: 0px;"/>
                <path d="m129.33,73.21l2.25-.88s.64,3.55,2.49,5.26c-.53.28-1.55.21-2.74-.53s-2-3.86-2-3.86Z" style="fill: #35a0db; stroke-width: 0px;"/>
                <path d="m142.76,93.61l-.48-3.45c.61-.23.76-.39,1.02-1.04,1.21-3.07-1.22-10.55-3.19-14.69-.14-.29.01-.64.32-.74l1.87-.61c.26-.08.54.03.65.28,1.13,2.34,5.41,11.79,3.37,16.96-.59,1.51-2.09,2.76-3.56,3.3Z" style="fill: #8e2b30; stroke-width: 0px;"/>
                <path d="m121.4,90.16c-1.68-1.64-3.21-3.83-3.06-6.57.35-6.05,7.32-12.37,9.41-14.14.31-.26.78-.21,1.03.11l1.11,1.44c.24.3.19.74-.11.99-2.27,1.88-4.44,3.97-6.06,6.44-1.2,1.85-3.53,6.2-1.53,8.14l-.8,3.59Z" style="fill: #8e2b30; stroke-width: 0px;"/>
                <path d="m133.21,70.28s-.2.39-.56.98c.43.5,1.17,1.06,2.41,1.35.89.21,1.76.14,2.52-.06,0-.4.02-.87.08-1.42-2.74-.4-4.45-.85-4.45-.85Z" style="fill: #ffd9cc; mix-blend-mode: multiply; stroke-width: 0px;"/>
                <path d="m147.39,65c-.25.24-.54.41-.75.69-.21.28-.32.63-.66.79-1.03.47-1.55-.63-1.26-1.44.35-1,.39-2.89,1.64-3.29.99-.31,1.74.81,1.69,1.68-.02.49-.3,1.22-.66,1.57Z" style="fill: #ffd9cc; stroke-width: 0px;"/>
                <path d="m126.87,61.75c.16.31.39.55.5.89.11.33.11.7.39.95.84.76,1.67-.12,1.65-.98-.02-1.06.52-2.87-.55-3.63-.84-.6-1.9.23-2.13,1.07-.13.48-.1,1.25.14,1.7Z" style="fill: #ffd9cc; stroke-width: 0px;"/>
                <path d="m145.23,63.72c-.83,5.24-5.04,8.93-9.4,8.24-4.36-.69-7.23-5.5-6.4-10.73.83-5.24,3.13-9.23,9.4-8.24,6.01.95,7.23,5.49,6.4,10.73Z" style="fill: #ffd9cc; stroke-width: 0px;"/>
                <path d="m133.39,66.92c.6.26,1.07.52,1.53.72.45.2.86.33,1.27.41.41.07.83.1,1.31.07.49-.02,1.01-.11,1.66-.18-.24.61-.7,1.07-1.28,1.38-.58.31-1.3.43-1.99.3-.69-.13-1.31-.51-1.74-.99-.42-.49-.7-1.07-.75-1.72Z" style="fill: #ef9170; stroke-width: 0px;"/>
                <path d="m149.24,51.52c0-1.61-2.39-.77-2.39-.77,0,0,2.63-1.62,1.2-2.65-.99-.71-2.72.4-3.65.75-1.93.72-4,.47-6.01.45-2.43-.03-4.7.84-6.58,2.35-2.17,1.73-2.67,4.94-2.85,7.6,0,0-.11,2.3.42,2.41.46-1.84.9-3.59,1.79-4.91.98-.81,2.76-1.92,4.33-.93,1.87,1.19,5.78,1.81,8.24,1.21,1.47,1.64,1.66,3.9,1.52,6.48.39-.03.82-1.8.9-1.91.58-1.55.48-4.03.66-5.85.02-.21.01-.42-.01-.62,1.34-1.17,2.42-2.44,2.42-3.6Z" style="fill: #0e2e66; stroke-width: 0px;"/>
                <path d="m137.65,61.7c.04.53.1,1.04.22,1.52.05.24.11.48.19.71.07.24.2.45.33.66l.08.13-.09.09c-.32.33-.7.61-1.13.77-.43.16-.9.18-1.33.07-.01,0-.02-.02-.02-.03,0-.01.01-.02.03-.02.43.05.87-.03,1.24-.22.37-.19.7-.47.95-.79v.22c-.35-.43-.64-.94-.72-1.5-.08-.55-.03-1.12.2-1.62,0-.01.02-.02.03-.01,0,0,.01.01.01.02Z" style="fill: #ef9170; stroke-width: 0px;"/>
              </g>
              <g>
                <path d="m73.1,125.05c3.95.92,7.01,3.84,8.44,7,1.49,3.3.18,6.77-.58,10.08-.19.81-.37,1.63-.43,2.46-.06.91.04,1.82.24,2.71.85,3.82,3.48,5.73,5.89,8.53,1.45,1.68,2.55,3.65,3.32,5.74,3.05,8.3-14.62,18.31-22.86,7.65-5.45-7.05-9.08-16.88-9.44-26-.15-3.94.59-7.94,2.35-11.43.96-1.89,2.26-3.71,3.87-5.03,2.17-1.78,6.1-2.43,9.2-1.71Z" style="fill: #0e2e66; stroke-width: 0px;"/>
                <path d="m72.65,163.9s2.49-2.46,4.87,0c2.39,2.46,2.37,7.72,3.08,8.24.71.53,6.81,1.58,8.37,5.26,1.56,3.68-7.8,13.14-15.01,6.84-7.21-6.31-3.7-19.26-1.32-20.34Z" style="fill: #1c75bb; stroke-width: 0px;"/>
                <path d="m88.97,177.41c-1.28-3.03-5.63-4.28-7.53-4.92-1.13.45-2.53,1.19-2.6,2.1-.11,1.52,2.52,6.08,4.42,7.89.64.61,1.41,1.16,2.25,1.55,2.6-2.04,4.18-4.93,3.46-6.61Z" style="fill: #fc7e96; stroke-width: 0px;"/>
                <path d="m76.44,164.32s-.24-2.88-.81-6.09l.87-.16c.58,3.25.82,6.14.82,6.17l-.88.07Z" style="fill: #1c75bb; stroke-width: 0px;"/>
                <path d="m77.14,190.61c1.12-.66,2.45-.22,3.43.49,2.25,1.62,3.07,4.55,3.52,7.14.42,2.37.6,6.17-1.76,7.68-2.62,1.67-4.32-3.02-5.01-4.7-1.14-2.79-3.87-8.44-.19-10.6Z" style="fill: #e2475d; stroke-width: 0px;"/>
                <path d="m77.58,192.58c.96-.06,1.85.57,2.42,1.3.99,1.28,1.92,3.49,1.92,5.1,0,1.14-.57,2-1.3,2.82-.96.01-1.82-1.43-2.37-2.09-.92-1.12-1.64-2.49-2.1-3.86-.19-.57-.54-1.48-.32-2.01.28-.66,1.04-1.22,1.75-1.26Z" style="fill: #f2ffff; stroke-width: 0px;"/>
                <path d="m62.63,190.32l2.97,10.7s.84,1.67,2.55-.31c1.47-1.7,5.81-6.37,6.61-6.75.8-.38,4.79,1.81,4.03,5.2-.76,3.39-12.8,17.31-12.8,17.31,0,0-3.23,3-6.93-.47-5.16-4.83-7.84-21.97-7.84-21.97,0,0,7.85-.54,11.41-3.71Z" style="fill: #1c75bb; stroke-width: 0px;"/>
                <path d="m87.07,180.79c.91-.92,2.31-.84,3.44-.41,2.59.99,4.13,3.61,5.24,6,1.01,2.18,2.16,5.81.27,7.87-2.1,2.29-4.95-1.81-6.05-3.26-1.81-2.4-5.91-7.16-2.91-10.2Z" style="fill: #e2475d; stroke-width: 0px;"/>
                <path d="m88,182.58c.92-.3,1.94.07,2.67.63,1.29.98,2.75,2.87,3.17,4.44.3,1.1-.04,2.08-.53,3.06-.92.26-2.12-.91-2.83-1.42-1.18-.85-2.22-1.99-3.02-3.19-.33-.5-.9-1.3-.82-1.86.1-.71.69-1.45,1.36-1.67Z" style="fill: #f2ffff; stroke-width: 0px;"/>
                <path d="m72.97,184.24l5.62,9.58s1.3,2.1,2.39-.96c.75-2.12,3.98-7.65,4.65-8.22.68-.57,5.1.52,5.23,3.99.14,3.47-7.92,20.01-7.92,20.01,0,0-2.35,3.73-6.82,1.33-6.23-3.34-13.22-19.22-13.22-19.22,0,0,7.44-2.54,10.07-6.52Z" style="fill: #298acc; stroke-width: 0px;"/>
                <path d="m62.44,145.58s-1.17,4.64-2.71,5.57c2.52,4.29,7.69,1.36,7.69,1.36l.95-2.02s-.61-1.73.31-3.85c.93-2.13-6.24-1.05-6.24-1.05Z" style="fill: #ffd9cc; stroke-width: 0px;"/>
                <path d="m68.26,150.08c-.12-.63-.24-1.94.42-3.44.06-.15.09-.28.08-.39-1.29-.77-5.31-.36-6.44-.22-.15.53-.44,1.48-.83,2.43.24.34.36.77.75,1,1.86,1.1,4.12,1.04,6.03.63Z" style="fill: #ffd9cc; mix-blend-mode: multiply; stroke-width: 0px;"/>
                <path d="m59.31,149.34s-6.84-2.99-8.15-4.08c-1.31-1.09-4.85-11.39-5.75-14.12-.9-2.73-2.11-6.74-2.11-6.74,0,0,.25-3.06-.48-4.37-.73-1.32-1.04-.92-1.11-.09-.07.83-.18,2.22-.18,2.22,0,0-1.54-1.66-2.87-2.47-1.33-.81-2.95-1.5-5.3-.15-.44.24-.34,2.49,1.51,3.76,1.85,1.27,5.29,2.58,6.25,6.3.96,3.71,1.29,9.28,1.92,11.85.63,2.57,1.25,5.28,3.29,7.68,2.04,2.4,8.79,11.95,9.77,12.03.97.08,3.98-2.24,3.98-2.24,0,0,.62-4.14.46-5.69-.15-1.55-1.22-3.88-1.22-3.88Z" style="fill: #ffd9cc; stroke-width: 0px;"/>
                <path d="m70.42,150.24s7.38-1.9,8.85-2.76c1.47-.86,6.48-10.39,7.81-12.94,1.33-2.55,3.17-6.31,3.17-6.31,0,0,.25-3.06,1.18-4.24.94-1.18,1.18-.74,1.11.09-.07.83-.18,2.22-.18,2.22,0,0,1.79-1.39,3.24-1.97,1.45-.58,3.16-1,5.25.71.39.31-.06,2.51-2.1,3.46-2.04.95-5.59,1.95-7.13,5.46-1.54,3.51-2.83,8.69-3.87,11.12-1.04,2.43-2.09,5.01-4.49,7.05-2.4,2.04-11.03,11.05-12.01,10.97-.97-.08-3.14-3.54-3.14-3.54,0,0,.06-4.19.46-5.69.4-1.51,1.83-3.63,1.83-3.63Z" style="fill: #ffd9cc; stroke-width: 0px;"/>
                <path d="m58.73,149.08s-4.48,4.8-5.32,8.23c-.84,3.43.22,9.25.12,12.31-.11,3.07-3.48,16.92-8,22.7-.23.3,3.31,2.83,3.74,2.95,2.28.64,4.94.77,7.21.08,1.92-.59,3.66-1.16,5.7-1.39,4.23-.49,5.2-.28,7.86-.34,2.66-.06,4.46.22,6.87-1.96,2.42-2.18,3.5-3.49,3.57-4.32.07-.83-3.1-3.19-5.02-5.3-1.92-2.11-5.13-7.41-4.67-11.29.46-3.88.48-7.65.48-7.65,0,0-1.98-1.42-2.07-5.48-.09-4.06,1.95-7.16,1.7-7.5-.08-.11-2.63-.04-2.63-.04,0,0-2.51,3.34-5.15,3.13-.56-.05-3.68-.6-2.01-3.91-.99.11-2.38-.22-2.38-.22Z" style="fill: #fc7e96; stroke-width: 0px;"/>
                <path d="m70.78,170.75c.12-1.06.22-2.1.28-3.07,0,0-.02,0-.03,0-2.3-.37-3.77.62-4.65,1.22-.69.47-.74.46-1.02.42-.29-.05-.33-.05-.84-.72-.65-.84-1.73-2.25-4.03-2.62-2.3-.37-3.77.62-4.65,1.22-.69.47-.73.46-1.02.42-.29-.05-.33-.05-.84-.72-.17-.22-.36-.47-.59-.73.1,1.31.18,2.52.14,3.46-.02.58-.16,1.53-.39,2.74.27.09.56.16.88.21,2.3.37,3.77-.62,4.65-1.22.69-.47.73-.46,1.02-.41.29.05.33.05.84.72.65.84,1.73,2.25,4.03,2.62,2.3.37,3.77-.62,4.65-1.22.69-.47.73-.46,1.03-.42.25.04.32.05.65.47-.15-.82-.2-1.62-.11-2.37Z" style="fill: #e2475d; stroke-width: 0px;"/>
                <path d="m72.99,129.04c-.35-.08-.7-.15-1.05-.19-1.86-.23-3.8.1-5.47.95-1.61.82-2.68,2.39-3.53,3.92-.91,1.63-2.04,3.36-2.49,5.19-.85,3.45-.19,7.66,3.01,9.67,2.13,1.34,4.64,1.07,6.81-.02,1.1-.55,2.1-1.28,3.02-2.09,1.03-.91,1.57-2.03,2.4-3.1,1.11-1.44,2.21-2.74,2.68-4.53.32-1.25.44-2.57.34-3.85-.27-3.21-2.76-5.25-5.71-5.95Z" style="fill: #ffd9cc; stroke-width: 0px;"/>
                <path d="m62.73,143.69c.46.32.8.63,1.16.87.34.25.66.43.99.57.33.13.68.23,1.09.29.41.07.87.08,1.42.14-.31.47-.78.77-1.32.94-.54.16-1.17.14-1.72-.1-.56-.23-1.01-.66-1.28-1.14-.27-.48-.4-1.02-.33-1.57Z" style="fill: #ef9170; stroke-width: 0px;"/>
                <path d="m74.74,142.89s2.09-1.58,2.94-.23c.85,1.36-1.97,3.42-2.94,3.38-.97-.05-1.75-1.4,0-3.15Z" style="fill: #ffd9cc; stroke-width: 0px;"/>
                <path d="m80.49,133.02s-4.11-5.77-5.68-6.26c-1.57-.49-8.96,0-8.96,0l-.25,1.14c-2.11-.66-6.01,5.07-3.88,5.92,1.64.65,3.94-.76,5.03-1.55,1.23,2.33,3.53,5.28,7.74,7.18.07,1.52.08,4.47-.8,6.15,0,0,3.54-2.91,4.56-4.5.21-.33.29-.66.29-.98,2.69-2.77,1.94-7.09,1.94-7.09Z" style="fill: #0e2e66; stroke-width: 0px;"/>
                <path d="m67.4,138.37c-.39.32-.76.66-1.13,1-.37.34-.73.69-1.06,1.05-.32.37-.64.77-.74,1.16-.05.2-.04.4.08.58.11.19.3.35.51.49.01,0,.01.02,0,.03,0,0-.01.01-.02.01-.26-.03-.52-.14-.72-.35-.21-.2-.3-.54-.26-.84.03-.3.21-.55.37-.75.17-.2.35-.39.54-.56.75-.7,1.56-1.3,2.4-1.86,0,0,.02,0,.03,0,0,0,0,.02,0,.03Z" style="fill: #ef9170; stroke-width: 0px;"/>
                <path d="m63.43,130.73c1.14-1.81,2.98-3.29,5.23-3.86,1.12-.28,2.34-.29,3.49.04,1.13.32,2.15.88,3.07,1.55,1.81,1.35,3.27,3.2,3.98,5.37.17.54.3,1.1.34,1.68.04.57.02,1.15-.08,1.71-.12.56-.32,1.1-.59,1.58-.28.48-.64.9-1.04,1.26.26-.47.48-.95.62-1.44.13-.49.21-.99.21-1.49,0-.99-.26-1.95-.67-2.84-.82-1.79-2.18-3.33-3.76-4.51-.79-.59-1.65-1.07-2.54-1.38-.88-.3-1.83-.37-2.8-.26-1.94.24-3.82,1.24-5.47,2.6Z" style="fill: #fc7e96; stroke-width: 0px;"/>
                <path d="m73.72,169.81c-6.42-4.44-7.65-11.79-6.02-17.1.83-2.72,2.33-4.41,3.9-4.43.62,0,1.65.38,1.94,1.13l-.85.31c-.36-.37-.71-.55-1.07-.55h-.01c-1.14.01-2.37,1.54-3.06,3.8-1.15,3.74-1.24,11.34,5.68,16.12l-.5.73Z" style="fill: #1c75bb; stroke-width: 0px;"/>
                <path d="m53.53,169.48c-5.05-6.02-4.25-11.76-2.41-15.29,2.29-4.38,6.54-7.36,7.63-7.26,1.55.14,2.15,1.57,2.24,2.31l-.88.12c0-.06-.22-1.43-1.44-1.54h0c-.72,0-4.89,2.8-7.01,7.29-1.51,3.18-2.43,7.17,1.86,13.14v1.24Z" style="fill: #1c75bb; stroke-width: 0px;"/>
              </g>
              <path d="m189.6,210.06c-.09,0-.17-.04-.22-.12-.07-.12-.04-.28.08-.35.05-.03,4.7-2.88,11.26-5.26,6.84-2.62,8.56-9.67,8.58-9.74.03-.14.17-.22.3-.19.14.03.22.17.19.3-.02.07-1.8,7.39-8.89,10.1-6.51,2.36-11.12,5.19-11.17,5.22-.04.03-.09.04-.13.04Z" style="fill: #cafcf2; stroke-width: 0px;"/>
              <path d="m193.58,210.89c-.06,0-.12-.02-.17-.07-.1-.09-.11-.26-.02-.36.1-.11,2.48-2.65,6.69-3.45,4.05-.77,6.61-3.72,6.63-3.75.09-.11.25-.12.36-.03.11.09.12.25.03.36-.11.13-2.7,3.12-6.92,3.92-4.04.77-6.39,3.27-6.41,3.3-.05.05-.12.08-.19.08Z" style="fill: #cafcf2; stroke-width: 0px;"/>
              <path d="m166.36,189.78c-.09,0-.18-.05-.22-.13-.07-.12-.02-.28.1-.34.31-.17,7.65-4.17,11.15-3.19.13.04.21.18.18.31-.04.14-.18.21-.31.18-3.3-.93-10.69,3.1-10.77,3.14-.04.02-.08.03-.12.03Z" style="fill: #cafcf2; stroke-width: 0px;"/>
              <path d="m185.75,147.73s-.04,0-.06,0c-3.45-.93-6.77-.64-10.3-.34-1.88.16-3.82.33-5.76.29-2.74-.05-5.4-.25-7.92-.58-.13-.02-.23-.14-.21-.27.02-.13.14-.23.27-.21,2.5.33,5.15.52,7.87.57,1.92.04,3.84-.13,5.71-.29,3.41-.29,6.94-.6,10.47.35.13.04.21.17.17.3-.03.11-.13.18-.24.18Z" style="fill: #cafcf2; stroke-width: 0px;"/>
              <path d="m175.07,172.41c-.11,0-.21-.07-.24-.18-.04-.13.03-.28.17-.32.22-.07.6-.17,1.07-.29,1.55-.41,6.26-1.64,6.27-2.55,0-.14-.04-.28-.08-.43-.03-.11-.06-.23-.08-.35-.15-1.01,1.23-2.17,2.44-3.2.5-.42.97-.82,1.21-1.11.73-.88,1.45-1.86,2.2-2.98.08-.12.24-.15.35-.07.12.08.15.24.07.35-.76,1.14-1.5,2.12-2.23,3.02-.27.33-.74.72-1.27,1.17-1,.85-2.38,2.01-2.27,2.73.02.1.04.2.07.29.05.18.1.36.1.57,0,1.08-2.55,1.97-6.64,3.04-.47.12-.84.22-1.05.29-.03,0-.05.01-.08.01Z" style="fill: #cafcf2; stroke-width: 0px;"/>
              <g>
                <path d="m86.67,151.2s-.03,0-.05,0c-.13,0-.24-.12-.24-.25,0-.14.12-.24.25-.24,1.84.06,4.49-5.96,5.67-11.39,1.13-5.23,5.22-8.01,5.4-8.13.11-.07.26-.05.34.07.08.11.04.26-.07.34-.04.03-4.1,2.8-5.19,7.83-1.03,4.77-3.68,11.77-6.12,11.77Z" style="fill: #cafcf2; stroke-width: 0px;"/>
                <path d="m79.08,213.86c-2.76,0-4.92-1.82-5.02-1.91-.1-.09-.11-.24-.03-.34.09-.1.24-.11.34-.03.03.02,2.89,2.43,6.06,1.63,2.44-.62,4.44-2.92,5.96-6.85,2.04-6.78,2.51-8.14,2.51-8.15.04-.13.18-.2.31-.15.13.04.2.18.15.31,0,.01-.47,1.37-2.51,8.15-1.59,4.11-3.71,6.51-6.31,7.17-.5.13-1,.18-1.47.18Z" style="fill: #cafcf2; stroke-width: 0px;"/>
                <path d="m43.57,151.2c-.08,0-.16-.04-.2-.11-3.52-5.4-4-11.75-4.35-16.39-.03-.46-.07-.9-.1-1.32-.37-4.47-3.1-5.96-3.13-5.98-.12-.06-.17-.21-.1-.33.06-.12.21-.17.33-.1.12.06,3,1.61,3.39,6.37.03.42.07.86.1,1.32.34,4.59.81,10.87,4.27,16.16.07.11.04.26-.07.34-.04.03-.09.04-.13.04Z" style="fill: #cafcf2; stroke-width: 0px;"/>
                <path d="m58.53,219.01s-.08,0-.12-.03c-5.97-3.28-9.56-19.35-9.71-20.03-.03-.13.05-.26.19-.29.13-.03.26.05.29.19.04.16,3.69,16.54,9.47,19.71.12.06.16.21.1.33-.04.08-.13.13-.21.13Z" style="fill: #cafcf2; stroke-width: 0px;"/>
                <path d="m49.71,209.08c-.09,0-.18-.05-.22-.15-1.7-3.86-3.66-12.49-3.68-12.57-.03-.13.05-.26.18-.29.13-.03.26.05.29.18.02.09,1.97,8.67,3.65,12.48.05.12,0,.27-.13.32-.03.01-.07.02-.1.02Z" style="fill: #cafcf2; stroke-width: 0px;"/>
              </g>
              <g>
                <path d="m116.16,135.41s-.06,0-.08-.01c-.13-.05-.19-.19-.15-.31l2.16-6.03c.37-1.04.95-1.97,1.72-2.77l7.46-7.77c.09-.1.25-.1.35,0,.1.09.1.25,0,.35l-7.46,7.77c-.72.75-1.26,1.62-1.61,2.6l-2.16,6.03c-.04.1-.13.16-.23.16Z" style="fill: #cafcf2; stroke-width: 0px;"/>
                <path d="m119.32,133.6s-.05,0-.07-.01c-.13-.04-.2-.17-.17-.3l1.01-3.43c.23-.79.65-1.53,1.21-2.14l4.27-4.62c.09-.1.25-.11.35-.01.1.09.11.25.01.35l-4.27,4.62c-.51.55-.89,1.22-1.1,1.94l-1.01,3.43c-.03.11-.13.18-.23.18Z" style="fill: #cafcf2; stroke-width: 0px;"/>
                <path d="m141.22,132.93c-8.21,0-9.37-8.06-9.38-8.14-.02-.13.08-.26.21-.27.13-.02.26.08.27.21.05.35,1.25,8.58,10.26,7.65,3.2-.38,6.1-5.77,6.13-5.82.06-.12.21-.17.33-.1.12.06.16.21.1.33-.12.23-3.05,5.67-6.5,6.08-.49.05-.96.08-1.41.08Z" style="fill: #cafcf2; stroke-width: 0px;"/>
                <path d="m148.05,90.41s-.03,0-.05,0c-.13-.03-.22-.16-.19-.29l.06-.32c.61-3,1.41-6.15,2.75-6.7,1.47-.6,10.88-4.83,10.97-4.87.12-.06.27,0,.32.12.06.12,0,.27-.12.32-.1.04-9.51,4.28-10.99,4.88-1.27.52-2.13,4.75-2.45,6.34l-.06.32c-.02.12-.13.2-.24.2Z" style="fill: #cafcf2; stroke-width: 0px;"/>
                <path d="m117.22,78.39c-.08,0-.16-.04-.21-.11l-3.41-5.35c-.4-.63-.36-1.44.09-2.03l.39-.51c.32-.42.35-1.01.07-1.47l-3.99-6.34c-.07-.11-.04-.27.08-.34.11-.07.27-.04.34.08l3.99,6.34c.39.62.36,1.44-.09,2.02l-.39.51c-.33.43-.35,1.02-.06,1.47l3.41,5.35c.07.11.04.27-.07.34-.04.03-.09.04-.13.04Z" style="fill: #cafcf2; stroke-width: 0px;"/>
                <path d="m150.25,88.58s-.05,0-.08-.01c-.13-.05-.19-.18-.15-.31l.39-1.09c.55-1.55,1.76-2.73,3.32-3.25l2.48-.82c.13-.04.27.03.31.16.04.13-.03.27-.16.31l-2.48.82c-1.42.47-2.51,1.54-3.01,2.95l-.39,1.09c-.04.1-.13.16-.23.16Z" style="fill: #cafcf2; stroke-width: 0px;"/>
              </g>
            </g>
          </g>
        </g>
      </g>
    </g>
  </g>
</svg>