<?xml version="1.0" encoding="utf-8"?>
<!-- Generator: Adobe Illustrator 27.5.0, SVG Export Plug-In . SVG Version: 6.00 Build 0)  -->
<svg version="1.1" xmlns="http://www.w3.org/2000/svg" xmlns:xlink="http://www.w3.org/1999/xlink" x="0px" y="0px" width="391.2px"
	 height="391.2px" viewBox="0 0 391.2 391.2" style="enable-background:new 0 0 391.2 391.2;" xml:space="preserve">
<style type="text/css">
	.st0{fill:#A6D11F;}
	.st1{opacity:0.1;enable-background:new    ;}
	.st2{opacity:0.15;fill:#FFFFFF;enable-background:new    ;}
	.st3{clip-path:url(#SVGID_00000145773462763104317860000003383928555572051133_);}
	.st4{fill:#C2E9FF;}
	.st5{fill:#FFFFFF;}
	.st6{fill:#005983;}
	.st7{fill:#0C6B9A;}
	.st8{fill:#D4F2FF;}
	.st9{fill:#0068B3;}
	.st10{fill:#31AE4A;}
	.st11{fill:#78CA5A;}
	.st12{fill:#90E463;}
	.st13{fill:#0C86BD;}
	.st14{fill:#00466A;}
	.st15{fill:#83C5FF;}
	.st16{fill:#9DDBFF;}
	.st17{fill:#002E60;}
	.st18{fill:#A4D6EF;}
	.st19{fill:#123E65;}
	.st20{fill:#004D77;}
</style>
<g id="_圖層_2">
	<g id="_第一cut">
		<g>
			<g>
				<path class="st0" d="M0,0v176.6c0,78.9,73.3,142.8,163.8,142.8h202.5V142.8C366.3,64,292.9,0,202.5,0H0z"/>
				<path class="st1" d="M0,64.4v112.2c0,78.9,73.3,142.8,163.8,142.8h202.5v-4.3C185.5,266.4,64,145.2,0,64.4z"/>
				<path class="st2" d="M0,0v3.4c57.5,9.7,239.4,51.8,366.3,208.9v-69.5C366.3,64,292.9,0,202.5,0H0z"/>
			</g>
			<rect x="365.7" y="116.2" class="st0" width="25.5" height="275"/>
		</g>
	</g>
	<g>
		<g>
			<g>
				<path class="st0" d="M0.1,0.1v180.3c0,80.5,78.1,145.8,174.4,145.8h215.6V145.9C390.1,65.4,312,0.1,215.7,0.1H0.1z"/>
			</g>
		</g>
		<path class="st1" d="M0.1,65.9v114.5c0,80.5,78.1,145.8,174.4,145.8h215.6v-4.4C197.6,272.1,68.2,148.4,0.1,65.9z"/>
		<path class="st2" d="M0.1,0.1v3.4C61.4,13.4,255,56.4,390.2,216.9V146c0-80.5-78.1-145.8-174.4-145.8L0.1,0.1L0.1,0.1z"/>
	</g>
	<g>
		<g>
			<rect x="365" y="116.2" class="st0" width="25.5" height="275"/>
		</g>
	</g>
</g>
<g id="圖層_2">
	<g>
		<defs>
			<path id="SVGID_1_" d="M224.2,292.8H166c-71.8,0-130.5-55.1-130.5-122.5V36.1H166h58.2c71.8,0,130.5,55.1,130.5,122.5v134.1
				L224.2,292.8L224.2,292.8z"/>
		</defs>
		<clipPath id="SVGID_00000041991799617851767100000005572717678946154659_">
			<use xlink:href="#SVGID_1_"  style="overflow:visible;"/>
		</clipPath>
		<g style="clip-path:url(#SVGID_00000041991799617851767100000005572717678946154659_);">
			<path class="st4" d="M174.4-30.6C58.8-30.6-34.9,63.1-34.9,178.7v49.9h418.6v-49.9C383.8,63.1,290-30.6,174.4-30.6z"/>
			<g>
				<path class="st5" d="M4.8,203.5c0-20.8,16-27.8,28.1-26.8c12,1,12.2-13.6,23.6-20.6c11.9-7.3,26.8-2.5,38.7-8.8
					c10.2-5.4,13.6-18.4,21.7-26.5c6.2-6.2,15.1-9.3,23.8-9.1c8.7,0.2,17.2,3.5,24.3,8.6c2.7,1.9,5.2,4.2,7,7
					c1.6,2.5,2.5,5.4,3.2,8.3c2.8,10.3,4.5,20.9,5.1,31.6c0.5,8.7,0.1,17.8-4.1,25.3c-8.1,14.6-25.9,10.9-40,11c-16,0-32.1,0-48.1,0
					c-27.2,0-54.5,0-81.7,0.1C5.8,203.5,5.3,203.5,4.8,203.5z"/>
				<path class="st5" d="M262.4,157.8l0-0.2c1.5-10.2,11.8-18.9,21.7-20.3c11-1.6,22.6,4.6,27.4,14.6c3.7,7.8,3.8,17.6,10,23.6
					c3.9,3.7,9.5,5,13.5,8.5c3.8,3.3,5.8,8.2,6.6,13.1c0.8,4.9,0.4,10,0,15c-12.6,0.1-26.8-1.6-39.1,0.8
					c-12.7,2.4-25.8,1.2-38.7,0.2c-0.3-12.1-0.6-24.2-0.9-36.3C262.7,170.7,261.6,163.7,262.4,157.8z"/>
				<path class="st5" d="M135.7,79.6l-69.1,0c2.9-3.9,5.8-7.5,11.2-7.4c1.8,0,3.7,0.5,5.3-0.2c1.1-0.4,1.9-1.3,2.7-2.2
					c7.7-8.2,17.6-19.5,28.8-8.6c2.1,2,3.6,5,6.4,5.9c0.9,0.3,1.9,0.4,2.9,0.5C129.9,68.5,134.8,73.8,135.7,79.6z"/>
				<path class="st5" d="M147.8,52.7c1.1-3,4.1-5.3,7.3-5.4c0.6,0,1.2,0,1.8-0.2c0.8-0.3,1.3-1.1,1.8-1.8c1.7-2.5,4-4.7,6.9-5.5
					c2.9-0.9,6.4,0,8,2.5c1.1,1.6,1.5,4,3.4,4.7c0.4,0.2,0.9,0.2,1.3,0.3c2.1,0.6,4.7,3.3,4,5.4H147.8z"/>
				<path class="st5" d="M265.8,107.9c1.3-3.7,5-6.4,9-6.6c0.7,0,1.5,0,2.2-0.2c1-0.4,1.6-1.4,2.2-2.2c2.1-3,4.9-5.7,8.4-6.8
					c3.5-1,7.8,0,9.8,3c1.3,2,1.9,4.9,4.1,5.8c0.5,0.2,1.1,0.3,1.6,0.4c2.6,0.8,5.8,4,4.9,6.6H265.8z"/>
				<path class="st5" d="M32.3,121.8c1.1-3.2,4.3-5.5,7.7-5.6c0.6,0,1.3,0,1.9-0.2c0.9-0.3,1.4-1.2,1.9-1.9c1.8-2.6,4.2-4.9,7.2-5.8
					c3-0.9,6.7,0,8.5,2.6c1.2,1.7,1.6,4.2,3.5,5c0.4,0.2,0.9,0.2,1.4,0.4c2.2,0.6,5,3.5,4.2,5.7H32.3z"/>
			</g>
			<path class="st6" d="M122.7,146.8H91.1c-5.8,0-11.4,2.3-15.5,6.4L19,209.8h91.5L122.7,146.8z"/>
			<path class="st6" d="M228.4,146.8h31.6c5.8,0,11.4,2.3,15.5,6.4l56.6,56.6h-91.5L228.4,146.8z"/>
			<path class="st7" d="M295.4,203.6H61.9l67.2-67.2c3.8-3.8,9-6,14.5-6h2.9c5.4,0,10.6-2.2,14.5-6l16.8-16.8c0.3-0.3,0.6-0.6,1-0.9
				c1.7-1.5,3.6-2.7,5.7-3.5c2.3-1,4.9-1.5,7.4-1.6c0.1,0,0.3,0,0.4,0c5.4,0,10.6,2.2,14.5,6l47.5,47.5L295.4,203.6z"/>
			<path class="st6" d="M191.7,101.6v102H82.6l96-96.9c1.7-1.5,3.6-2.7,5.7-3.5C186.7,102.2,189.2,101.7,191.7,101.6z"/>
			<g>
				<path class="st8" d="M251.7,121.2h-2.6l-0.3,15.6c1-1.1,2.1-2.2,3.1-3.4L251.7,121.2z"/>
				<path class="st5" d="M248.8,136.8l-0.7,36.5h4.5l-0.7-39.9C250.9,134.6,249.9,135.7,248.8,136.8z"/>
				<path class="st5" d="M255.6,134.2c-0.7-5.1-2.6-9.6-5.3-13.1l3.8,27.1C255.7,144.1,256.3,139.3,255.6,134.2z"/>
				<path class="st5" d="M259,110c-4,3.1-7,7.1-8.7,11.2l21.6-16.8C267.5,104.9,263,106.8,259,110z"/>
				<path class="st5" d="M236.3,119.2c4.7,1.9,9.6,2.5,14,1.9l-25.4-10.3C227.7,114.3,231.6,117.3,236.3,119.2z"/>
				<path class="st5" d="M250.1,123.5c-1.3-0.1-2.3-1.3-2.1-2.6c0.1-1.3,1.3-2.3,2.6-2.1c1.3,0.1,2.3,1.3,2.1,2.6
					C252.5,122.6,251.4,123.6,250.1,123.5z"/>
				<path class="st9" d="M250.2,122.3c-0.6-0.1-1.1-0.6-1-1.2c0.1-0.6,0.6-1.1,1.2-1c0.6,0.1,1.1,0.6,1,1.2
					C251.4,121.8,250.8,122.3,250.2,122.3z"/>
				<path class="st5" d="M252,94.9c7.6,0.5,14.5,4.3,19.1,10.1l0.6-0.4c-4.7-6-11.8-9.9-19.6-10.4L252,94.9z"/>
				<path class="st5" d="M246.7,95.1c0.9-0.1,1.8-0.2,2.7-0.2l0-0.7c-0.9,0-1.9,0.1-2.8,0.2L246.7,95.1z"/>
				<path class="st5" d="M229.1,136.6c-2-2.8-3.5-6-4.4-9.6c-0.2-0.8-0.3-1.5-0.4-2.3c-0.6-4.6,0-9.1,1.5-13.1l-0.7-0.3
					c-1.6,4.1-2.2,8.8-1.6,13.5c0.1,0.8,0.3,1.6,0.4,2.4c0.8,3.6,2.4,7,4.5,9.8L229.1,136.6z"/>
				<path class="st5" d="M231.9,139.9c-0.6-0.5-1.1-1.1-1.6-1.7l-0.5,0.5c0.5,0.6,1.1,1.2,1.6,1.8L231.9,139.9z"/>
				<path class="st5" d="M272.5,135.1c-3.6,5.7-9.4,10-16.3,11.6c-0.8,0.2-1.5,0.3-2.3,0.4l0.1,0.7c0.8-0.1,1.6-0.3,2.4-0.4
					c7.1-1.6,13.1-6.1,16.8-11.9L272.5,135.1z"/>
				<path class="st5" d="M274.7,130.9c-0.3,0.8-0.6,1.5-1,2.2l0.6,0.3c0.4-0.7,0.7-1.5,1-2.3L274.7,130.9z"/>
			</g>
			<g>
				<path class="st10" d="M185.3,163.4c-16.7,10.6-31.8,24.2-44.6,40.1h-20C137.2,184.1,159.7,169.8,185.3,163.4z"/>
				<path class="st10" d="M239.7,162c-19.1,10-36.1,24.2-50,41.5h-24.5c14.6-18.2,32.4-33.1,52.4-43.8h0
					C225.1,159.8,232.5,160.6,239.7,162z"/>
				<path class="st10" d="M272.2,173.3c-12.6,8-24,18.2-33.6,30.2h-24.5c12.1-15,26.7-27.5,43-36.7
					C262.3,168.7,267.3,170.9,272.2,173.3z"/>
				<path class="st10" d="M298.6,191.5c-3.9,3.7-7.7,7.7-11.1,12H263c6.7-8.3,14.4-15.8,22.8-22.1
					C290.3,184.5,294.5,187.9,298.6,191.5z"/>
				<path class="st11" d="M217.5,159.7c-20,10.7-37.7,25.6-52.4,43.8h-24.5c12.8-15.9,27.8-29.5,44.6-40.1h0
					c9.7-2.4,19.8-3.7,30.2-3.7C216.2,159.7,216.9,159.7,217.5,159.7z"/>
				<path class="st11" d="M257.1,166.9c-16.3,9.1-30.9,21.6-43,36.7h-24.5c13.9-17.3,30.9-31.5,50-41.5h0
					C245.7,163.2,251.5,164.8,257.1,166.9z"/>
				<path class="st11" d="M285.8,181.4c-8.4,6.3-16,13.7-22.8,22.1h-24.5c9.6-12,21-22.2,33.6-30.2
					C276.9,175.7,281.4,178.5,285.8,181.4z"/>
				<path class="st11" d="M310.3,203.5h-22.8c3.4-4.3,7.2-8.3,11.1-12C302.7,195.2,306.6,199.3,310.3,203.5z"/>
			</g>
			<path class="st10" d="M178.2,203.5H42.8c16.3-19.1,40.6-31.3,67.7-31.3C137.6,172.2,161.9,184.4,178.2,203.5z"/>
			<path class="st12" d="M385.9,373.9H-31.8c-26.4,0-47.8-34.8-47.8-77.8v-6.5c0-43,21.4-77.8,47.8-77.8h417.7
				c26.4,0,47.8,34.8,47.8,77.8v6.5C433.7,339,412.3,373.9,385.9,373.9z"/>
			<path class="st11" d="M6.3,217.4c0,2.5-6.6,4.5-14.7,4.5c-8.1,0-14.7-2-14.7-4.5c0-2.5,6.6-4.5,14.7-4.5
				C-0.3,212.9,6.3,215,6.3,217.4z"/>
			<g>
				<path class="st5" d="M291.8,176.1c0,0,1,10.9,3.3,14.8c2.3,3.8,2.2,20.8,2.2,20.8h7.4c0,0-3.8-12.5-3.3-19.7
					c0.5-7.2,6.9-22.8,6.9-22.8l-3.6,0.4l-6.5,19.7c0,0-2.9-4.3-3.1-9.5c-0.2-5.3,0-6.7,0-6.7L291.8,176.1z"/>
				<path class="st11" d="M310.4,173.1c-11.9,4.8-25.9,4.6-37.1-0.4c3.2,4,8.8,6.4,13.3,7.7c7.1,2.2,14.7,1.9,21.8,0.7
					c2.6-0.5,5.2-1.1,7.6-2.2c4.8-2.3,8.5-7,9.8-12.3c0.8-3.1,0.7-6.5-0.2-9.6C323,164.4,317.7,170.6,310.4,173.1z"/>
				<path class="st12" d="M310.4,173.1c7.4-2.5,12.6-8.7,15.2-16.2c-0.6-2.2-1.5-4.2-2.8-6.1c-2-2.8-4.9-5.1-6.4-8.3
					c-3.2-6.6-4.9-13.1-12.1-16.3c-4.9-2.2-10-0.7-14.1,2.8c-4.1,3.5-6.8,8.7-7.3,14.2c-0.1,1.4-0.1,2.9-0.6,4.3
					c-0.7,2.3-2.7,4-4.4,5.6c-4,3.8-7.8,9.1-6.8,14.7c0.3,1.9,1.1,3.5,2.3,5C284.5,177.7,298.5,177.9,310.4,173.1z"/>
			</g>
			<ellipse class="st11" cx="9.2" cy="208.3" rx="9.8" ry="3"/>
			<path class="st11" d="M376.1,234.3c0,2.5-6.6,4.5-14.7,4.5s-14.7-2-14.7-4.5c0-2.5,6.6-4.5,14.7-4.5S376.1,231.8,376.1,234.3z"/>
			<path class="st11" d="M348.5,219c0,1.6-4.2,2.9-9.4,2.9c-5.2,0-9.4-1.3-9.4-2.9c0-1.6,4.2-2.9,9.4-2.9
				C344.3,216.1,348.5,217.4,348.5,219z"/>
			<path class="st11" d="M339.4,239.3h-50.7c-2.5,0-4.5-2-4.5-4.5v-0.4c0-2.5,2-4.5,4.5-4.5h50.7c2.5,0,4.5,2,4.5,4.5v0.4
				C343.9,237.2,341.9,239.3,339.4,239.3z"/>
			<path class="st7" d="M333,249.4c0,2-0.8,3.9-2,5.3c-1.5,1.7-3.6,2.7-6,2.7h-0.4c-2.2,0-4.2,0.9-5.7,2.4c-1.5,1.5-2.4,3.5-2.4,5.7
				c0,4.4-3.6,8-8,8H188.3c-2.2,0-4.2-0.9-5.7-2.4c-1.5-1.5-2.4-3.5-2.4-5.7c0-4.4-3.6-8-8-8h-30.4c-2.2,0-4.2-0.9-5.7-2.3
				c-0.1-0.1-0.2-0.3-0.4-0.4c-1.2-1.4-2-3.3-2-5.3c0-4.4,3.6-8,8-8h13.5c2.2,0,4.2-0.9,5.7-2.4c1.4-1.5,2.3-3.5,2.3-5.7
				c0-4.4,3.6-8,8-8h102.1c2.2,0,4.2,0.9,5.7,2.4c1.4,1.5,2.3,3.5,2.3,5.7c0,4.4,3.6,8,8,8H325C329.4,241.4,333,245,333,249.4z"/>
			<path class="st13" d="M331,254.7c-1.5,1.7-3.6,2.7-6,2.7h-0.4c-2.2,0-4.2,0.9-5.7,2.4c-1.5,1.5-2.4,3.5-2.4,5.7c0,4.4-3.6,8-8,8
				H188.3c-2.2,0-4.2-0.9-5.7-2.4c-1.5-1.5-2.4-3.5-2.4-5.7c0-4.4-3.6-8-8-8h-30.4c-2.2,0-4.2-0.9-5.7-2.3c-0.1-0.1-0.2-0.3-0.4-0.4
				c1.5-1.7,3.6-2.7,6-2.7h13.5c2.2,0,4.2-0.9,5.7-2.4c1.4-1.5,2.3-3.5,2.3-5.7c0-4.4,3.6-8,8-8h102.1c2.2,0,4.2,0.9,5.7,2.4
				c1.4,1.5,2.3,3.5,2.3,5.7c0,4.4,3.6,8,8,8H325C327.4,252,329.6,253,331,254.7z"/>
			<path class="st5" d="M276.8,237.5h-0.5c0,0.1,0,0.2-0.2,0.4c-0.2,0.3-0.8,0.6-1.6,1c-2.4,1-7,1.6-12.2,1.6c-4,0-7.5-0.4-10.1-1
				c-1.3-0.3-2.3-0.7-3-1.1c-0.3-0.2-0.6-0.4-0.7-0.5c-0.1-0.2-0.2-0.3-0.2-0.4c0-0.1,0-0.2,0.2-0.4c0.2-0.3,0.8-0.6,1.6-1
				c2.4-1,7-1.6,12.2-1.6c4,0,7.5,0.4,10.1,1c1.3,0.3,2.3,0.7,3,1.1c0.3,0.2,0.6,0.4,0.7,0.5c0.1,0.2,0.2,0.3,0.2,0.4H276.8h0.5
				c0-0.4-0.2-0.7-0.4-1c-0.4-0.5-1.1-0.9-2-1.2c-2.6-1-7.3-1.7-12.5-1.7c-4,0-7.7,0.4-10.3,1c-1.3,0.3-2.4,0.7-3.2,1.2
				c-0.4,0.2-0.7,0.5-1,0.8c-0.2,0.3-0.4,0.6-0.4,1c0,0.4,0.2,0.7,0.4,1c0.4,0.5,1.1,0.9,2,1.2c2.6,1,7.3,1.7,12.5,1.7
				c4,0,7.7-0.4,10.3-1c1.3-0.3,2.4-0.7,3.2-1.2c0.4-0.2,0.7-0.5,1-0.8c0.2-0.3,0.4-0.6,0.4-1H276.8z"/>
			<path class="st5" d="M283,241.3c-5.2,1.2-12.5,1.9-20.7,1.9c-8,0-15.2-0.7-20.4-1.8c-2.6-0.6-4.7-1.2-6.1-1.9
				c-0.7-0.4-1.2-0.7-1.6-1.1c-0.3-0.3-0.5-0.6-0.5-0.9c0-0.3,0.1-0.6,0.5-0.9c0.6-0.6,1.8-1.3,3.4-1.8c5-1.8,14.1-3,24.6-3
				c6,0,11.5,0.4,16.1,1.1c0.3,0,0.5-0.1,0.6-0.4c0-0.3-0.1-0.5-0.4-0.6c-4.7-0.7-10.3-1.1-16.3-1.1c-8,0-15.3,0.7-20.6,1.8
				c-2.6,0.6-4.8,1.2-6.3,2c-0.8,0.4-1.4,0.8-1.8,1.3c-0.4,0.5-0.7,1-0.7,1.6c0,0.6,0.3,1.1,0.7,1.6c0.8,0.8,2.1,1.5,3.8,2.1
				c5.2,1.8,14.4,3,24.9,3c8.2,0,15.6-0.7,20.9-1.9c0.3-0.1,0.4-0.3,0.4-0.6C283.6,241.5,283.3,241.3,283,241.3z"/>
			<path class="st5" d="M245.3,246c-9-0.6-16.8-1.8-22.3-3.3c-2.7-0.8-4.9-1.7-6.4-2.6c-0.7-0.5-1.3-0.9-1.6-1.4
				c-0.3-0.4-0.5-0.9-0.5-1.3c0-0.4,0.1-0.8,0.4-1.2c0.5-0.7,1.6-1.5,3.2-2.2c4.7-2.2,13.5-4,24.4-4.9c0.3,0,0.5-0.3,0.5-0.5
				c0-0.3-0.3-0.5-0.5-0.5c-8.3,0.7-15.5,1.9-20.6,3.4c-2.5,0.8-4.6,1.6-6,2.6c-0.7,0.5-1.3,1-1.7,1.5c-0.4,0.5-0.6,1.1-0.6,1.8
				c0,0.7,0.3,1.3,0.7,1.9c0.8,1,2.1,1.9,3.9,2.7c5.4,2.4,15.2,4.2,27,4.9c0.3,0,0.5-0.2,0.5-0.5C245.8,246.2,245.6,246,245.3,246z"
				/>
			<path class="st6" d="M276.8,267.1h25.7c0-12.2-8.9-13.1-13.7-12.4C284.1,255.3,276.8,261.9,276.8,267.1z"/>
			<path class="st14" d="M292.7,268.8h15.4c0-7.3-5.3-7.8-8.2-7.4C297,261.7,292.7,265.6,292.7,268.8z"/>
			<path class="st5" d="M170.8,247h23.4c0.3,0,0.5-0.2,0.5-0.5c0-0.3-0.2-0.5-0.5-0.5h-23.4c-0.3,0-0.5,0.2-0.5,0.5
				C170.3,246.8,170.5,247,170.8,247"/>
			<path class="st5" d="M198.4,247h7c0.3,0,0.5-0.2,0.5-0.5c0-0.3-0.2-0.5-0.5-0.5h-7c-0.3,0-0.5,0.2-0.5,0.5
				C197.9,246.7,198.1,247,198.4,247"/>
			<path class="st5" d="M215.7,259.2h29.6c0.3,0,0.5-0.2,0.5-0.5c0-0.3-0.2-0.5-0.5-0.5h-29.6c-0.3,0-0.5,0.2-0.5,0.5
				C215.2,259,215.4,259.2,215.7,259.2"/>
			<path class="st5" d="M248.8,259.2h4.8c0.3,0,0.5-0.2,0.5-0.5c0-0.3-0.2-0.5-0.5-0.5h-4.8c-0.3,0-0.5,0.2-0.5,0.5
				C248.3,259,248.6,259.2,248.8,259.2"/>
			<path class="st5" d="M219.7,264.1h-14.3c-0.3,0-0.5,0.2-0.5,0.5c0,0.3,0.2,0.5,0.5,0.5h14.3c0.3,0,0.5-0.2,0.5-0.5
				C220.2,264.3,220,264.1,219.7,264.1"/>
			<path class="st5" d="M292.8,249.9c0.3,0,15.1,0,15.1,0c0.3,0,0.5-0.2,0.5-0.5s-0.2-0.5-0.5-0.5c0,0-14.8,0-15.1,0
				c-0.3,0-0.5,0.2-0.5,0.5S292.6,249.9,292.8,249.9z"/>
			<path class="st10" d="M374.6,258h-37.9c0.2-2.5,0.9-4.8,2-6.9l8.2,3.7l-7.3-5.3c1.5-2.3,3.4-4.3,5.7-5.7l5.3,7.3l-3.7-8.2
				c2.4-1.2,5-2,7.8-2.1l0.9,8.9l0.9-8.9c2.8,0.1,5.5,0.9,7.8,2.1l-3.7,8.2l5.3-7.3c2.3,1.5,4.3,3.4,5.7,5.7l-7.3,5.3l8.2-3.7
				C373.6,253.2,374.3,255.5,374.6,258z"/>
			<g>
				<path class="st8" d="M223.5,99.7h-3.6l-0.4,22c1.5-1.6,2.9-3.2,4.4-4.7L223.5,99.7z"/>
				<path class="st5" d="M219.5,121.7l-1,51.2h6.3l-1-56C222.4,118.6,220.9,120.1,219.5,121.7z"/>
				<path class="st5" d="M241.1,96.5c-7.1-0.6-13.9,0.6-19.6,3.2l38.3,3.4C254.7,99.5,248.3,97.1,241.1,96.5z"/>
				<path class="st5" d="M209,84.3c3,6.5,7.5,11.8,12.5,15.4l-16.2-34.8C204.8,71,206,77.8,209,84.3z"/>
				<path class="st5" d="M214.5,118.2c4.1-5.9,6.4-12.3,7-18.5l-22.1,31.5C205.1,128.4,210.4,124.1,214.5,118.2z"/>
				<path class="st5" d="M221.3,102.9c-1.8-0.2-3.2-1.8-3-3.6c0.2-1.8,1.8-3.2,3.6-3c1.8,0.2,3.2,1.8,3,3.6
					C224.7,101.8,223.1,103.1,221.3,102.9z"/>
				<path class="st9" d="M221.4,101.2c-0.9-0.1-1.5-0.9-1.5-1.7c0.1-0.9,0.9-1.5,1.7-1.5c0.9,0.1,1.5,0.9,1.5,1.7
					C223.1,100.7,222.3,101.3,221.4,101.2z"/>
				<path class="st5" d="M186.2,89.1c3-10.3,10.4-18.5,19.8-22.9l-0.4-0.9c-9.7,4.5-17.2,13-20.3,23.5L186.2,89.1z"/>
				<path class="st5" d="M184.8,96.4c0.1-1.3,0.3-2.6,0.5-3.8l-1-0.2c-0.2,1.3-0.4,2.6-0.5,3.9L184.8,96.4z"/>
				<path class="st5" d="M236.1,133.6c-4.5,1.9-9.4,3-14.4,3c-1.1,0-2.2,0-3.3-0.1c-6.5-0.6-12.4-2.8-17.5-6.2l-0.6,0.8
					c5.2,3.5,11.3,5.8,17.9,6.4c1.1,0.1,2.3,0.1,3.4,0.1c5.2,0,10.3-1.1,14.8-3L236.1,133.6z"/>
				<path class="st5" d="M241.5,130.7c-0.9,0.6-1.9,1.1-2.8,1.7l0.5,0.9c1-0.5,2-1.1,2.9-1.7L241.5,130.7L241.5,130.7z"/>
				<path class="st5" d="M247.7,73.6c6.7,6.7,10.7,16,10.7,26c0,1.1,0,2.2-0.1,3.3l1,0.1c0.1-1.1,0.1-2.3,0.1-3.4
					c0-10.3-4.2-19.8-11-26.7L247.7,73.6z"/>
				<path class="st5" d="M242.6,69.3c0.9,0.7,1.8,1.3,2.7,2.1l0.6-0.8c-0.9-0.8-1.8-1.5-2.8-2.1L242.6,69.3z"/>
			</g>
			<g>
				<path class="st12" d="M8.8,139.6c0,0-19,61.4,0,61.4C27.8,201,8.8,139.6,8.8,139.6z"/>
				<rect x="8.1" y="153.5" class="st5" width="1.4" height="55.1"/>
			</g>
			<polyline class="st11" points="330.5,132.3 333.5,134.6 336.5,137 333.1,135.9 330.5,135.1 			"/>
			<g>
				<path class="st11" d="M339.1,207.8c-11.7,0-14-15.1-12.5-33.3l8.2,1.1l-7.9-3.6c1.2-12.1,3.8-25.3,6.4-36.1l3.3,1l-3-2.4
					c2.9-12.1,5.6-20.9,5.6-20.9s5.8,18.8,9.6,39.6l-5.8,2.9h6.3c1.3,7.4,2.3,14.9,2.6,21.9l-7.6,4.5l7.8-0.9
					C352.2,196.5,349.2,207.8,339.1,207.8z"/>
				<path class="st5" d="M338,136.2v83.3h2.2v-83.3c0-0.6-0.5-1.1-1.1-1.1C338.5,135.1,338,135.6,338,136.2z"/>
			</g>
			<g>
				<path class="st12" d="M266.7,145.7c0,0-14.5,47.1,0,47.1C281.2,192.8,266.7,145.7,266.7,145.7z"/>
				<rect x="266.1" y="156.4" class="st5" width="1.1" height="42.2"/>
			</g>
			<g>
				<path class="st12" d="M194.2,139.6c0,0-14.5,47.1,0,47.1C208.7,186.6,194.2,139.6,194.2,139.6z"/>
				<rect x="193.6" y="150.3" class="st5" width="1.1" height="42.2"/>
			</g>
			<g>
				<path class="st12" d="M184.6,135.7c0,0-10.5,34.1,0,34.1C195.1,169.8,184.6,135.7,184.6,135.7z"/>
				<rect x="184.2" y="143.5" class="st5" width="0.8" height="30.6"/>
			</g>
			<g>
				<path class="st10" d="M373.9,191.5l6.4-1.3c-0.5,17.2-5.1,29.8-17.5,29.8c-10.9,0-15.8-9.8-17.1-23.9l10.1,2.2l-10.4-6
					c-0.5-9.1,0.3-19.7,1.8-30.5l13,2.9l-12.4-7.1c1.9-12.8,4.7-25.7,7.3-36.5l6.3,0.4l-5.5-3.3c3.7-15.1,7-25.7,7-25.7
					s6.8,22.1,12,48v0c-3.7,2.3-7.8,4.9-7.8,4.9l8.5-1.2c1.9,10.1,3.5,20.7,4.3,30.6l-9.4,6.6l9.7-1.9c0.1,2.6,0.2,5.2,0.2,7.6
					L373.9,191.5z"/>
				<path class="st5" d="M361.3,123v112.9h2.9V123c0-0.8-0.7-1.5-1.5-1.5C362,121.5,361.3,122.2,361.3,123z"/>
			</g>
			<g>
				<path class="st10" d="M-7.4,206.9c-0.4,0-0.7,0.1-1.1,0.1s-0.7,0-1.1-0.1c-7.6-0.6-10.9-8-11.9-18.4l8.2,0.8l-8.4-4.2
					c-0.3-8.7,0.8-19.2,2.5-29.4l7.4,4l-7.1-6c3.9-22.2,10.3-43,10.3-43s8.1,26.1,11.6,51.1l-6.6,10.4l7.4-4.2
					C6.1,188,4.6,205.8-7.4,206.9z"/>
				<path class="st5" d="M-9.6,133.7v85.2h2.2v-85.2c0-0.6-0.5-1.1-1.1-1.1C-9.1,132.6-9.6,133.1-9.6,133.7z"/>
			</g>
			<g>
				<path class="st15" d="M329.7,235.2c-0.2,1-0.4,1.6-0.4,1.6h-3.1c0,0,0.1-0.6,0.4-1.6c0.9-3.9,3.3-13.9,3-15.3
					c-0.2-0.9-3.1-4.1-6-7.2c-3-3.1-5.9-6-5.9-6l9.8-2.9c-1,2.6,4,9.9,5.3,11.4C333.9,216.4,330.8,230.4,329.7,235.2z"/>
				<path class="st15" d="M333.8,193.2c0.7,4.4,4.7,5.7,5.1,8.3c0.4,2.6-1.2,2.9-4.8,0.6c-3.6-2.3-2.2-8.4-2.2-8.4L333.8,193.2z"/>
				<polygon class="st15" points="294.1,207.8 293.9,209 289.1,235.2 288.9,236.7 286.9,236.7 287,235.2 287.7,212.4 287.9,207.8 
									"/>
				<path class="st6" d="M261.3,238.5h0.5c1.3,0,2.5-0.6,3.4-1.5c-1.3-0.1-2.7-0.1-3.9-0.4V238.5z"/>
				<path class="st16" d="M334.1,195.3c0,2.7-3.5,5.5-6.5,8.4c-2.2,2.2-4.1,4.4-4.1,6.7c0,0.8,0.1,1.5,0.2,2.2
					c0.5,3.8,2.3,5.6,2.3,7.3c0,1.5-4.8,11.2-6.9,15.3c-0.6,1.2-1,1.9-1,1.9h-3.6c0,0,0.4-0.7,1-1.9c2.2-4,7.1-13,7.2-13.7
					c0.1-1-6.8-13.1-6.8-13.1h-15.7V237H298l-0.2-1.9l-3.5-26.4l-0.4,0.2l-6.1,3.4l-7.4,4.1l-14.9,20.1c-0.1,0.1-0.2,0.2-0.3,0.3
					c-0.3,0-0.6,0-0.9-0.1c-1-0.1-2.1-0.1-3-0.3V225l-1.8-5.8c0,0,3.6,0.4,3.6,3c0,0,17.3-28.7,19.2-31.9c1.9-3.2,6.4-4,12.6-4.9
					c6.8-1,26.2-1.2,30.5-1C329.7,184.6,334.1,190.7,334.1,195.3z"/>
				<path class="st15" d="M316,208.3c-1.6-2.6,2.2-9,2.2-9h-17.9l0,9H316z"/>
				<path class="st15" d="M294.3,208.8l-13.9,7.7l-14.9,20.1c-0.1,0.1-0.2,0.2-0.3,0.3c-0.3,0-0.6,0-0.9-0.1c4.1-6.9,15-25,15-25.5
					c0-0.6,13.9-10.4,13.9-10.4L294.3,208.8z"/>
				<circle class="st6" cx="263.4" cy="228.4" r="0.7"/>
				<path class="st6" d="M264.5,222.7L264.5,222.7c-0.1-0.9-0.4-1.9-0.9-2.8c-0.7-1.4-1.7-2.8-2.9-3.9c-0.4-0.4-0.7-0.7-1.1-1
					c-0.1-0.8-0.3-1.7-0.6-2.5c-1-2.9-2.8-5.7-2.8-5.7c-0.3-0.4-0.9-0.6-1.3-0.3c-0.4,0.3-0.6,0.9-0.3,1.3l0,0
					c0.1,0.1,0.8,1.3,1.6,2.9c0.4,0.8,0.7,1.6,1,2.5c0.1,0.2,0.1,0.3,0.1,0.5c-0.2-0.1-0.4-0.2-0.6-0.2c-1-0.4-2.2-0.5-3.4-0.6
					c-0.5-0.9-1.2-1.6-1.8-2c-0.7-0.6-1.3-0.8-1.3-0.9c-0.5-0.2-1,0-1.3,0.4c-0.2,0.5,0,1,0.4,1.3c0,0,0.5,0.2,1,0.7
					c0.2,0.2,0.4,0.3,0.6,0.6c-0.6,0.1-1.3,0.2-1.8,0.3c-0.5,0.1-1,0.3-1.4,0.5c-0.4,0.2-0.8,0.4-1.1,0.7c-0.4,0.4-0.4,1,0,1.3
					s1,0.4,1.3,0c0.1-0.1,0.2-0.2,0.5-0.3c0.4-0.2,1-0.4,1.8-0.5c0.7-0.1,1.5-0.2,2.3-0.2c1.2,0,2.5,0.2,3.5,0.5
					c1.4,0.5,3,1.7,4.2,3.2c0.6,0.7,1.1,1.5,1.5,2.3c0.4,0.8,0.6,1.6,0.7,2.2c0.1,0.5,0.5,0.9,1.1,0.8
					C264.2,223.7,264.6,223.2,264.5,222.7z"/>
				<polygon class="st6" points="287,235.2 289.1,235.2 288.9,236.7 286.9,236.7 				"/>
				<polygon class="st6" points="297.7,235.2 300.2,235.2 300.2,237 298,237 				"/>
				<path class="st6" d="M315.6,235.2h3.5c-0.6,1.2-1,1.9-1,1.9h-3.6C314.5,237,315,236.3,315.6,235.2z"/>
				<path class="st6" d="M329.7,235.2c-0.2,1-0.4,1.6-0.4,1.6h-3.1c0,0,0.1-0.6,0.4-1.6H329.7z"/>
			</g>
			<g>
				<path class="st10" d="M183.5,185.5c12.9,8.2,24.6,18.7,34.4,31h15.5C220.6,201.5,203.3,190.4,183.5,185.5z"/>
				<path class="st10" d="M141.4,184.4c14.8,7.7,27.9,18.7,38.7,32.1H199c-11.3-14.1-25.1-25.6-40.5-33.8h0
					C152.7,182.7,147,183.4,141.4,184.4z"/>
				<path class="st10" d="M116.3,193.2c9.8,6.2,18.5,14.1,26,23.3h18.9c-9.4-11.6-20.6-21.3-33.3-28.3
					C123.9,189.6,120.1,191.3,116.3,193.2z"/>
				<path class="st10" d="M95.9,207.2c3,2.8,5.9,5.9,8.6,9.3h18.9c-5.2-6.4-11.1-12.2-17.6-17.1C102.3,201.8,99,204.4,95.9,207.2z"
					/>
				<path class="st11" d="M158.5,182.6c15.4,8.2,29.2,19.8,40.5,33.8h18.9c-9.9-12.3-21.5-22.8-34.4-31h0
					c-7.5-1.9-15.3-2.9-23.3-2.9C159.6,182.6,159.1,182.6,158.5,182.6z"/>
				<path class="st11" d="M127.9,188.2c12.6,7.1,23.9,16.7,33.3,28.3h18.9c-10.8-13.4-23.9-24.3-38.7-32.1h0
					C136.8,185.4,132.3,186.6,127.9,188.2z"/>
				<path class="st11" d="M105.8,199.4c6.5,4.9,12.4,10.6,17.6,17.1h18.9c-7.5-9.3-16.2-17.1-26-23.3
					C112.7,195,109.2,197.1,105.8,199.4z"/>
				<path class="st11" d="M86.9,216.5h17.6c-2.7-3.3-5.5-6.4-8.6-9.3C92.7,210.1,89.7,213.2,86.9,216.5z"/>
			</g>
			<g>
				<path class="st12" d="M133.1,131.1c0,0-20.5,66.4,0,66.4C153.6,197.5,133.1,131.1,133.1,131.1z"/>
				<rect x="132.3" y="146.2" class="st5" width="1.5" height="59.6"/>
			</g>
			<g>
				<path class="st5" d="M95.6,156.2c0.4,5.8-0.9,11.7-3.8,16.8c-2.8,4.8-6.8,8.8-9.8,13.5c-4.5,7-6.4,15.6-5.4,23.9
					c-2.9,0.1-5.7,0.1-8.6,0.2c3.1-13.4,6-27.4,2.7-40.8c0.9,0,1.8,0,2.7,0c1,5.2,1.5,10.4,1.5,15.7c7.2-3.2,12.7-10,14.4-17.6
					c0.1-0.7-0.2-1.7-0.8-1.4L95.6,156.2z"/>
				<path class="st12" d="M55.9,171.3c15.6,3.1,32.3,3.1,46.9-3.1c4.9-2.5,9.1-6.1,11.6-10.4c-2.3-3-6.4-4-9.2-6.6
					c-5.5-5.1-5.3-13.6-11.4-18.3c-5.2-3.9-12.3-4.5-18.3-2.8c-6.9,1.9-11.4,6.5-15.5,12.1c-3.7,5.1-9.5,6.7-13.4,11.3
					c-2.2,2.6-3,6.1-2.6,9.5C46.7,167.1,51.7,170.2,55.9,171.3z"/>
				<path class="st11" d="M114.3,157.7c-2.4,4.3-6.6,8-11.6,10.4c-14.6,6.2-31.2,6.2-46.9,3.1c-4.2-1.1-9.2-4.2-12.1-8.3
					c0.2,1.5,0.6,3,1.3,4.4c2.2,4.4,6.4,7.5,11,9.2c7,2.6,15.6,2.9,23,3.2c8.2,0.4,16.5-0.2,24.2-2.9c4-1.4,8-3.6,10.5-7.1
					C116.4,166.3,117,161.2,114.3,157.7L114.3,157.7z"/>
			</g>
			<path class="st5" d="M217.5,217.8h-24.3c0.2-1.6,0.6-3.1,1.3-4.4l5.3,2.4l-4.7-3.4c0.9-1.5,2.2-2.7,3.7-3.7l3.4,4.7l-2.4-5.2
				c1.5-0.8,3.2-1.3,5-1.3l0.6,5.7l0.6-5.7c1.8,0.1,3.5,0.6,5,1.3l-2.4,5.2l3.4-4.7c1.5,0.9,2.7,2.2,3.7,3.7l-4.7,3.4l5.2-2.4
				C216.9,214.7,217.4,216.2,217.5,217.8z"/>
			<path class="st11" d="M238.7,219.9H208c0.2-2,0.8-3.9,1.6-5.5l6.6,3l-5.9-4.3c1.2-1.9,2.8-3.4,4.6-4.6l4.3,5.9l-3-6.6
				c1.9-1,4.1-1.6,6.3-1.7l0.7,7.2l0.7-7.2c2.3,0.1,4.4,0.7,6.3,1.7l-3,6.6l4.3-5.9c1.9,1.2,3.4,2.8,4.6,4.6l-5.9,4.3l6.6-3
				C237.9,216,238.5,217.9,238.7,219.9z"/>
			<path class="st10" d="M11.9,268.2h-30.7c0.2-2,0.8-3.9,1.6-5.5l6.6,3l-5.9-4.3c1.2-1.9,2.8-3.4,4.6-4.6l4.3,5.9l-3-6.6
				c1.9-1,4.1-1.6,6.3-1.7l0.7,7.2l0.7-7.2c2.3,0.1,4.4,0.7,6.3,1.7l-3,6.6l4.3-5.9c1.9,1.2,3.4,2.8,4.6,4.6l-5.9,4.3l6.6-3
				C11.1,264.3,11.7,266.2,11.9,268.2z"/>
			<path class="st11" d="M65.8,207.9H36.5c0.2-1.9,0.7-3.7,1.6-5.3l6.3,2.8l-5.6-4.1c1.1-1.8,2.7-3.3,4.4-4.4l4.1,5.6l-2.8-6.3
				c1.8-0.9,3.9-1.5,6-1.6l0.7,6.9l0.7-6.9c2.2,0.1,4.2,0.7,6,1.6l-2.8,6.3l4.1-5.6c1.8,1.1,3.3,2.7,4.4,4.4l-5.6,4.1l6.3-2.8
				C65,204.2,65.6,206,65.8,207.9z"/>
			<path class="st11" d="M115.1,231.6h-2.8c-0.7,0-1.2-0.6-1.2-1.2v-0.1c0-0.7,0.6-1.2,1.2-1.2h2.8c0.7,0,1.2,0.6,1.2,1.2v0.1
				C116.3,231.1,115.8,231.6,115.1,231.6z"/>
			<path class="st11" d="M142.3,231.6h-21.4c-0.7,0-1.2-0.6-1.2-1.2v-0.1c0-0.7,0.6-1.2,1.2-1.2h21.4c0.7,0,1.2,0.6,1.2,1.2v0.1
				C143.6,231.1,143,231.6,142.3,231.6z"/>
			<path class="st11" d="M39.6,269.9h-2.8c-0.7,0-1.2-0.6-1.2-1.2v-0.1c0-0.7,0.6-1.2,1.2-1.2h2.8c0.7,0,1.2,0.6,1.2,1.2v0.1
				C40.9,269.4,40.3,269.9,39.6,269.9z"/>
			<path class="st11" d="M66.9,269.9H45.5c-0.7,0-1.2-0.6-1.2-1.2v-0.1c0-0.7,0.6-1.2,1.2-1.2h21.4c0.7,0,1.2,0.6,1.2,1.2v0.1
				C68.1,269.4,67.6,269.9,66.9,269.9z"/>
			<path class="st11" d="M331.7,269.9h-2.8c-0.7,0-1.2-0.6-1.2-1.2v-0.1c0-0.7,0.6-1.2,1.2-1.2h2.8c0.7,0,1.2,0.6,1.2,1.2v0.1
				C332.9,269.4,332.4,269.9,331.7,269.9z"/>
			<path class="st11" d="M358.9,269.9h-21.4c-0.7,0-1.2-0.6-1.2-1.2v-0.1c0-0.7,0.6-1.2,1.2-1.2h21.4c0.7,0,1.2,0.6,1.2,1.2v0.1
				C360.2,269.4,359.6,269.9,358.9,269.9z"/>
			<path class="st11" d="M170.8,273.5H111c0.4-3.9,1.5-7.5,3.2-10.8l12.9,5.8l-11.5-8.3c2.3-3.6,5.4-6.7,9-9l8.3,11.5l-5.8-12.9
				c3.7-1.9,7.9-3.1,12.3-3.3l1.4,14.1l1.4-14.1c4.4,0.2,8.6,1.4,12.3,3.3l-5.8,12.9l8.3-11.5c3.6,2.3,6.7,5.4,9,9l-11.5,8.3
				l12.9-5.8C169.3,266,170.4,269.6,170.8,273.5z"/>
			<path class="st10" d="M133.8,277.3H95.4c0.2-2.5,1-4.8,2.1-6.9l8.3,3.7l-7.4-5.3c1.5-2.3,3.5-4.3,5.8-5.8l5.3,7.4l-3.7-8.3
				c2.4-1.2,5.1-2,7.9-2.1l0.9,9.1l0.9-9.1c2.8,0.1,5.5,0.9,7.9,2.1l-3.7,8.3l5.3-7.4c2.3,1.5,4.3,3.5,5.8,5.8l-7.4,5.3l8.3-3.7
				C132.9,272.5,133.6,274.9,133.8,277.3z"/>
			<g>
				<polygon class="st11" points="83.9,207.8 38.9,207.8 44.6,216.7 89.6,216.7 				"/>
				<g>
					<path class="st5" d="M65.4,212.7L65.4,212.7c-0.7,0-1.2-0.5-1.2-1.1V199h2.3v12.6C66.5,212.2,66,212.7,65.4,212.7z"/>
					<polygon class="st17" points="48.8,203.4 85.9,203.4 77.9,188.1 40.8,188.1 					"/>
					<polygon class="st7" points="48.8,203.4 85.9,203.4 77.9,188.1 40.8,188.1 					"/>
					<polyline class="st18" points="79.6,191.3 42.4,191.3 42.3,191 79.4,191 					"/>
					<polyline class="st18" points="81.2,194.4 44.1,194.4 43.9,194.1 81,194.1 					"/>
					<polyline class="st18" points="82.8,197.4 45.7,197.4 45.5,197.1 82.6,197.1 					"/>
					<polyline class="st18" points="84.4,200.5 47.3,200.5 47.1,200.2 84.2,200.2 					"/>
					<polyline class="st18" points="70.7,188.1 78.7,203.4 78.3,203.4 70.3,188.1 					"/>
					<polyline class="st18" points="63.3,188.1 71.3,203.4 70.9,203.4 62.9,188.1 					"/>
					<polyline class="st18" points="55.9,188.1 63.9,203.4 63.5,203.4 55.5,188.1 					"/>
					<polyline class="st18" points="48.5,188.1 56.5,203.4 56.1,203.4 48.1,188.1 					"/>
					<polyline class="st19" points="74.4,188.1 82.4,203.4 82,203.4 74,188.1 					"/>
					<polyline class="st19" points="67,188.1 75,203.4 74.6,203.4 66.6,188.1 					"/>
					<polyline class="st19" points="59.6,188.1 67.6,203.4 67.2,203.4 59.2,188.1 					"/>
					<polyline class="st19" points="52.2,188.1 60.2,203.4 59.8,203.4 51.8,188.1 					"/>
					<polyline class="st19" points="44.8,188.1 52.8,203.4 52.4,203.4 44.4,188.1 					"/>
					<polygon class="st20" points="85.9,203.4 84.7,205 47.6,205 48.8,203.4 					"/>
					<polygon class="st19" points="47.6,205 48.8,203.4 40.8,188.1 39.6,189.7 					"/>
				</g>
			</g>
			<g>
				<polygon class="st11" points="132.1,207.8 87.2,207.8 92.9,216.7 137.9,216.7 				"/>
				<g>
					<path class="st5" d="M113.6,212.7L113.6,212.7c-0.7,0-1.2-0.5-1.2-1.1V199h2.3v12.6C114.7,212.2,114.2,212.7,113.6,212.7z"/>
					<polygon class="st17" points="97,203.4 134.2,203.4 126.1,188.1 89,188.1 					"/>
					<polygon class="st7" points="97,203.4 134.2,203.4 126.1,188.1 89,188.1 					"/>
					<polyline class="st18" points="127.8,191.3 90.7,191.3 90.5,191 127.7,191 					"/>
					<polyline class="st18" points="129.4,194.4 92.3,194.4 92.1,194.1 129.3,194.1 					"/>
					<polyline class="st18" points="131,197.4 93.9,197.4 93.7,197.1 130.9,197.1 					"/>
					<polyline class="st18" points="132.6,200.5 95.5,200.5 95.3,200.2 132.5,200.2 					"/>
					<polyline class="st18" points="118.9,188.1 126.9,203.4 126.6,203.4 118.6,188.1 					"/>
					<polyline class="st18" points="111.5,188.1 119.5,203.4 119.2,203.4 111.2,188.1 					"/>
					<polyline class="st18" points="104.1,188.1 112.1,203.4 111.8,203.4 103.8,188.1 					"/>
					<polyline class="st18" points="96.7,188.1 104.7,203.4 104.4,203.4 96.4,188.1 					"/>
					<polyline class="st19" points="122.6,188.1 130.6,203.4 130.3,203.4 122.3,188.1 					"/>
					<polyline class="st19" points="115.2,188.1 123.2,203.4 122.9,203.4 114.9,188.1 					"/>
					<polyline class="st19" points="107.8,188.1 115.8,203.4 115.5,203.4 107.5,188.1 					"/>
					<polyline class="st19" points="100.4,188.1 108.4,203.4 108.1,203.4 100.1,188.1 					"/>
					<polyline class="st19" points="93,188.1 101,203.4 100.7,203.4 92.7,188.1 					"/>
					<polygon class="st20" points="134.2,203.4 132.9,205 95.8,205 97,203.4 					"/>
					<polygon class="st19" points="95.8,205 97,203.4 89,188.1 87.8,189.7 					"/>
				</g>
			</g>
			<g>
				<polygon class="st11" points="126.8,228.3 81.8,228.3 87.6,237.1 132.5,237.1 				"/>
				<g>
					<path class="st5" d="M108.3,233.2L108.3,233.2c-0.7,0-1.2-0.5-1.2-1.1v-12.6h2.3V232C109.4,232.7,108.9,233.2,108.3,233.2z"/>
					<polygon class="st17" points="91.7,223.8 128.8,223.8 120.8,208.6 83.7,208.6 					"/>
					<polygon class="st7" points="91.7,223.8 128.8,223.8 120.8,208.6 83.7,208.6 					"/>
					<polyline class="st18" points="122.5,211.8 85.4,211.8 85.2,211.5 122.3,211.5 					"/>
					<polyline class="st18" points="124.1,214.8 87,214.8 86.8,214.5 123.9,214.5 					"/>
					<polyline class="st18" points="125.7,217.9 88.6,217.9 88.4,217.6 125.5,217.6 					"/>
					<polyline class="st18" points="127.3,220.9 90.2,220.9 90,220.6 127.1,220.6 					"/>
					<polyline class="st18" points="113.6,208.6 121.6,223.8 121.2,223.8 113.2,208.6 					"/>
					<polyline class="st18" points="106.2,208.6 114.2,223.8 113.8,223.8 105.8,208.6 					"/>
					<polyline class="st18" points="98.8,208.6 106.8,223.8 106.4,223.8 98.4,208.6 					"/>
					<polyline class="st18" points="91.4,208.6 99.4,223.8 99,223.8 91,208.6 					"/>
					<polyline class="st19" points="117.3,208.6 125.3,223.8 124.9,223.8 116.9,208.6 					"/>
					<polyline class="st19" points="109.9,208.6 117.9,223.8 117.5,223.8 109.5,208.6 					"/>
					<polyline class="st19" points="102.5,208.6 110.5,223.8 110.1,223.8 102.1,208.6 					"/>
					<polyline class="st19" points="95.1,208.6 103.1,223.8 102.7,223.8 94.7,208.6 					"/>
					<polyline class="st19" points="87.7,208.6 95.7,223.8 95.3,223.8 87.3,208.6 					"/>
					<polygon class="st20" points="128.8,223.8 127.6,225.5 90.5,225.5 91.7,223.8 					"/>
					<polygon class="st19" points="90.5,225.5 91.7,223.8 83.7,208.6 82.5,210.2 					"/>
				</g>
			</g>
			<g>
				<polygon class="st11" points="175,228.3 130.1,228.3 135.8,237.1 180.8,237.1 				"/>
				<g>
					<path class="st5" d="M156.5,233.2L156.5,233.2c-0.7,0-1.2-0.5-1.2-1.1v-12.6h2.3V232C157.6,232.7,157.1,233.2,156.5,233.2z"/>
					<polygon class="st17" points="139.9,223.8 177.1,223.8 169,208.6 131.9,208.6 					"/>
					<polygon class="st7" points="139.9,223.8 177.1,223.8 169,208.6 131.9,208.6 					"/>
					<polyline class="st18" points="170.7,211.8 133.6,211.8 133.4,211.5 170.6,211.5 					"/>
					<polyline class="st18" points="172.3,214.8 135.2,214.8 135,214.5 172.2,214.5 					"/>
					<polyline class="st18" points="173.9,217.9 136.8,217.9 136.6,217.6 173.8,217.6 					"/>
					<polyline class="st18" points="175.5,220.9 138.4,220.9 138.2,220.6 175.4,220.6 					"/>
					<polyline class="st18" points="161.8,208.6 169.8,223.8 169.5,223.8 161.5,208.6 					"/>
					<polyline class="st18" points="154.4,208.6 162.4,223.8 162.1,223.8 154.1,208.6 					"/>
					<polyline class="st18" points="147,208.6 155,223.8 154.7,223.8 146.7,208.6 					"/>
					<polyline class="st18" points="139.6,208.6 147.6,223.8 147.3,223.8 139.3,208.6 					"/>
					<polyline class="st19" points="165.5,208.6 173.5,223.8 173.2,223.8 165.2,208.6 					"/>
					<polyline class="st19" points="158.1,208.6 166.1,223.8 165.8,223.8 157.8,208.6 					"/>
					<polyline class="st19" points="150.7,208.6 158.7,223.8 158.4,223.8 150.4,208.6 					"/>
					<polyline class="st19" points="143.3,208.6 151.3,223.8 151,223.8 143,208.6 					"/>
					<polyline class="st19" points="135.9,208.6 143.9,223.8 143.6,223.8 135.6,208.6 					"/>
					<polygon class="st20" points="177.1,223.8 175.8,225.5 138.7,225.5 139.9,223.8 					"/>
					<polygon class="st19" points="138.7,225.5 139.9,223.8 131.9,208.6 130.7,210.2 					"/>
				</g>
			</g>
		</g>
	</g>
</g>
</svg>
