<?xml version="1.0" encoding="utf-8"?>
<!-- Generator: Adobe Illustrator 27.5.0, SVG Export Plug-In . SVG Version: 6.00 Build 0)  -->
<svg version="1.1" id="_圖層_2" xmlns="http://www.w3.org/2000/svg" xmlns:xlink="http://www.w3.org/1999/xlink" x="0px" y="0px"
	 width="391.2px" height="391.2px" viewBox="0 0 391.2 391.2" style="enable-background:new 0 0 391.2 391.2;" xml:space="preserve"
	>
<style type="text/css">
	.st0{fill:#0AA07D;}
	.st1{opacity:0.1;enable-background:new    ;}
	.st2{opacity:0.15;fill:#FFFFFF;enable-background:new    ;}
	.st3{clip-path:url(#SVGID_00000031201983188459989470000009801619628201927093_);}
	.st4{fill:#79D9D6;}
	.st5{fill:url(#SVGID_00000169535305574521556410000008524519604508775063_);}
	.st6{fill:url(#SVGID_00000000907464491462038340000014002934114870203802_);}
	.st7{fill:#0C6C75;}
	.st8{fill-rule:evenodd;clip-rule:evenodd;fill:#D6F5FF;}
	.st9{fill:#168594;}
	.st10{fill:#FFFFFF;}
	.st11{fill:url(#SVGID_00000134238678360568338020000003642905104810325143_);}
	.st12{fill:#94E6FF;}
	.st13{fill:#FF8B70;}
	.st14{fill:#1CADBD;}
	.st15{fill:#B2E866;}
	.st16{fill:url(#SVGID_00000047757171466954964280000007120107222507432852_);}
	.st17{fill:url(#SVGID_00000013882177348480967260000003544096709543646346_);}
	.st18{fill:#81BF55;}
	.st19{fill:none;}
	.st20{fill:#FAEECD;}
	.st21{fill:#66A347;}
	.st22{fill:#52873D;}
	.st23{fill:#FFD780;}
	.st24{fill:#FEC955;}
	.st25{fill:#D6F5FF;}
	.st26{fill:#FFE499;}
	.st27{fill:#F7C453;}
	.st28{fill:#FAE5AA;}
	.st29{fill:#FFDC8F;}
	.st30{fill:url(#SVGID_00000117645367147585725450000017290332112987707071_);}
	.st31{fill:#1991A3;}
	.st32{fill:#8F8378;}
	.st33{fill:#8AE6E0;}
	.st34{fill:#9E9185;}
	.st35{fill:#AB9D90;}
	.st36{fill:#5ACCC8;}
	.st37{fill:#84C457;}
	.st38{fill:url(#SVGID_00000027598300981064332860000015149340645215442826_);}
	.st39{fill-rule:evenodd;clip-rule:evenodd;fill:#1CADBD;}
	.st40{fill-rule:evenodd;clip-rule:evenodd;fill:#0E7F8A;}
	.st41{fill-rule:evenodd;clip-rule:evenodd;fill:#FAC825;}
	.st42{fill-rule:evenodd;clip-rule:evenodd;fill:#F2F2F2;}
	.st43{fill-rule:evenodd;clip-rule:evenodd;fill:#FFE180;}
	.st44{fill-rule:evenodd;clip-rule:evenodd;fill:#FFFFFF;}
	.st45{fill-rule:evenodd;clip-rule:evenodd;fill:#FFDA26;}
	.st46{fill:#D9CAC4;}
	.st47{fill:url(#SVGID_00000159469401518249794440000012272844707376333729_);}
	.st48{fill:#EDEDED;}
	.st49{fill:#9D9D9C;}
	.st50{fill:#004680;}
	.st51{fill:#009FE3;}
	.st52{fill:#FFD0A4;}
	.st53{fill:#735D5A;}
	.st54{fill:#878787;}
	.st55{fill:#575756;}
	.st56{filter:url(#Adobe_OpacityMaskFilter);}
	.st57{filter:url(#Adobe_OpacityMaskFilter_00000077316108383095396050000009973311503536983442_);}
	
		.st58{mask:url(#SVGID_00000118377725775070137940000012413707613588521116_);fill:url(#SVGID_00000016073597539895835040000011843868308315159712_);}
	.st59{fill:url(#SVGID_00000100358454926471359560000017470161142799379370_);}
	.st60{fill:url(#SVGID_00000083785325889248894780000003227797770914381208_);}
	.st61{fill:url(#SVGID_00000010273688181826422980000008294877615809021853_);}
	.st62{fill:url(#SVGID_00000145017926071675574980000013236284520729593518_);}
	.st63{fill:#C6C6C6;}
	.st64{fill:#D17700;}
	.st65{fill:#00427A;}
	.st66{fill:url(#SVGID_00000114043642154093181800000010969447980926824893_);}
	.st67{fill:#F2A900;}
	.st68{fill:url(#SVGID_00000150061766271941991310000008120892520708222875_);}
	.st69{fill:#3C3C3B;}
	.st70{fill:#FC8E74;}
	.st71{fill:#FFC792;}
	.st72{fill:url(#SVGID_00000047749119511695789380000005810939095575615144_);}
	.st73{fill:url(#SVGID_00000171711909912066878280000009005768809312504490_);}
	.st74{fill:#706F6F;}
	.st75{fill:#D9CDC8;}
	.st76{fill:url(#SVGID_00000097487072160778857700000016707191665503055496_);}
	.st77{fill:#B2B2B2;}
	.st78{fill:#1D71B8;}
	.st79{fill:url(#SVGID_00000168816421085917563010000009365411198065767823_);}
	.st80{fill:url(#SVGID_00000091700545962298233800000018042978545484180357_);}
	.st81{fill:url(#SVGID_00000140709648261013266560000007593688357204734893_);}
	.st82{fill:url(#SVGID_00000119825682866413610020000003383611417814262663_);}
	.st83{fill:url(#SVGID_00000073708230445820034730000014594964661394960782_);}
	.st84{fill:url(#SVGID_00000133511847484108913460000015984564484824074673_);}
	.st85{fill:#DADADA;}
	.st86{fill:url(#SVGID_00000176736727297284071690000008070311076341810826_);}
	.st87{fill:url(#SVGID_00000103243600267731229950000016990926583800647607_);}
	.st88{fill:#FFD2A8;}
	.st89{fill:url(#SVGID_00000098192980076011518530000006833791327762426015_);}
	.st90{fill:url(#SVGID_00000074401413042126039530000000021156977025958831_);}
</style>
<g>
	<g>
		<g>
			<path class="st0" d="M188.7,0C98.2,0,24.9,68.1,24.9,152v187.9h202.5c90.5,0,163.8-68.1,163.8-152V0H188.7z"/>
		</g>
	</g>
	<path class="st1" d="M24.9,335.2v4.6h202.5c90.5,0,163.8-68.1,163.8-152V68.5C327.2,154.6,205.7,283.5,24.9,335.2z"/>
	<path class="st2" d="M188.7,0C98.2,0,24.9,68.1,24.9,152v74C151.8,58.7,333.7,13.9,391.2,3.6V0H188.7z"/>
</g>
<g>
	<g>
		<rect x="1.8" y="116.2" class="st0" width="25.1" height="275"/>
	</g>
</g>
<g>
	<g>
		<g>
			<g>
				<g>
					<defs>
						<path id="SVGID_1_" d="M177.6,304.7H52V167.2c0-69.1,56.5-125.6,125.6-125.6h56.1h125.6v137.6c0,69.1-56.5,125.6-125.6,125.6
							L177.6,304.7L177.6,304.7z"/>
					</defs>
					<clipPath id="SVGID_00000005964969188747595520000003293307351360743848_">
						<use xlink:href="#SVGID_1_"  style="overflow:visible;"/>
					</clipPath>
					<g style="clip-path:url(#SVGID_00000005964969188747595520000003293307351360743848_);">
						<rect x="-58.3" y="-11.2" class="st4" width="519.2" height="344.1"/>
						
							<linearGradient id="SVGID_00000090985736775786054260000016990188464791827106_" gradientUnits="userSpaceOnUse" x1="213.685" y1="209.0859" x2="213.685" y2="46.7844">
							<stop  offset="0" style="stop-color:#1991A3"/>
							<stop  offset="0.2041" style="stop-color:#1BA6B3"/>
							<stop  offset="0.4747" style="stop-color:#1DBAC4"/>
							<stop  offset="0.742" style="stop-color:#1EC7CE"/>
							<stop  offset="1" style="stop-color:#1ECBD1"/>
						</linearGradient>
						<path style="fill:url(#SVGID_00000090985736775786054260000016990188464791827106_);" d="M326.2,89.4
							c-14.9,0-20.2,32.9-37.2,32.9c-18,0-43.4-75.5-68.3-75.5c-25.9,0-40.4,73.1-65.1,73.1c-14.3,0-31.2-38.6-50-38.6
							c-19,0-33.1,52.1-56.9,52.1c-10.9,0-15.6-9.9-26.8-9.9c-15.5,0-26.2,21.5-37.7,54.8C-24,201.8-9,209.1,14,209.1
							c29.8,0,315.7-1.1,376.4-1.1c38.3,0,57.3-8.2,54.9-21.8c-2.3-13.1-10.9-28.6-15.8-37c-14-23.8-20.9-33-30.7-33
							c-10.7,0-14.3,14.9-26.8,14.9C355.6,131.1,342.2,89.4,326.2,89.4z"/>
						
							<linearGradient id="SVGID_00000174578320398025498840000001526593230639681683_" gradientUnits="userSpaceOnUse" x1="349.6317" y1="159.1753" x2="349.6317" y2="95.6313">
							<stop  offset="0" style="stop-color:#268399"/>
							<stop  offset="0.1743" style="stop-color:#2394A6"/>
							<stop  offset="0.4551" style="stop-color:#1FA8B5"/>
							<stop  offset="0.7323" style="stop-color:#1DB5BF"/>
							<stop  offset="1" style="stop-color:#1CB9C2"/>
						</linearGradient>
						<path style="fill:url(#SVGID_00000174578320398025498840000001526593230639681683_);" d="M326.2,89.4c-6.7,0-2,8.7,6.6,14.9
							c14,10.2,19.6,20.3,10.2,19.7c-14.1-0.8-0.2,14.4,11.6,23c13.5,9.9,16.3,6.1,14.7-3.1c-0.8-4.7,3.3-7.1,5.6-8.8
							c2.2-1.6,2-4-2.9-4C355.6,131.1,342.2,89.4,326.2,89.4z"/>
						<path class="st7" d="M386.6,178c-0.3,4.2-13.4,2.8-23.1,4.2c-7.4,1.1-27.3,7.3-37.5,6.7c-21-1.4-34-8.5-32.4-12.4
							c2.8-6.7,15.1,2.8,30.1,0.6c6.3-0.9,8.8-4.2,12.1-4.9c4.8-1,8.6,1.4,13.8,0c2.9-0.8,8.9-4.9,11.6-4.6c7,0.9,6.2,5.8,14.1,5
							C384.4,171.6,386.8,175.1,386.6,178z"/>
						<path class="st8" d="M299.2,139.7c2.1-1,6.7-2.7,7.3-2.9c0.6-0.2,2,0.2,2.9,0.2l1-0.3c0,0,0,0,0-0.1c0-0.9,0.7-1.6,1.6-1.6
							c0,0,0,0,0.1,0l3.1-11.4c0.1-0.2,0.2-0.3,0.4-0.2c0.2,0.1,0.3,0.3,0.3,0.6c-0.2,2.3-1,7.1-1.2,7.8c-0.2,0.6-1.2,1.7-1.6,2.4
							l-0.3,1c0.5,0.3,0.8,0.8,0.8,1.4c0,0.3-0.1,0.6-0.2,0.8l8.3,8.3c0.1,0.1,0.1,0.4,0,0.5c-0.1,0.1-0.4,0.1-0.7-0.1
							c-1.9-1.4-5.7-4.4-6.2-4.9c-0.4-0.4-0.9-1.8-1.3-2.6l-0.7-0.7c-0.1,0-0.2,0.1-0.3,0.1l1,51.5h-3.1l1-51.5
							c-0.3-0.1-0.6-0.4-0.8-0.7l-11.4,3.1c-0.2,0.1-0.4-0.1-0.4-0.2C298.7,140.1,298.8,139.9,299.2,139.7z"/>
						<path class="st8" d="M324.5,140.9c2.1-0.3,6.5-0.8,7.1-0.8c0.6,0,1.7,0.6,2.5,0.9h0.9c0.1-0.6,0.7-1.1,1.4-1.1
							c0.1,0,0.3,0,0.4,0.1l5.4-9.3c0.1-0.2,0.3-0.2,0.4-0.1c0.2,0.1,0.2,0.3,0.1,0.6c-0.7,2-2.5,6-2.8,6.6c-0.3,0.5-1.4,1.2-2,1.7
							l-0.4,0.8c0.3,0.3,0.5,0.6,0.5,1c0,0.4-0.2,0.8-0.5,1l5.4,9.3c0.1,0.2,0,0.3-0.1,0.4c-0.2,0.1-0.4,0-0.6-0.3
							c-1.4-1.6-4-5.2-4.3-5.8c-0.3-0.5-0.3-1.8-0.5-2.6l-0.3-0.6l0.9,47.8H335l0.9-48c-0.4-0.2-0.8-0.5-0.9-1h-10.7
							c-0.2,0-0.3-0.1-0.3-0.3C324,141.1,324.2,141,324.5,140.9z"/>
						<path class="st8" d="M347.5,144.8c0-0.2,0.2-0.2,0.5-0.2c1.8,0.2,5.6,0.8,6.1,0.9c0.5,0.1,1.3,0.9,1.9,1.3l0.8,0.2
							c0.2-0.4,0.6-0.7,1.1-0.7c0.2,0,0.5,0.1,0.7,0.2l6.5-6.6c0.1-0.1,0.3-0.1,0.4,0c0.1,0.1,0.1,0.3-0.1,0.5
							c-1.1,1.5-3.5,4.5-3.8,4.9c-0.3,0.3-1.4,0.7-2.1,1l-0.5,0.5c0.1,0.2,0.2,0.4,0.2,0.7c0,0.5-0.3,0.9-0.7,1.1l2.4,8.9
							c0,0.1,0,0.3-0.2,0.3c-0.2,0-0.3-0.1-0.4-0.3c-0.5-1.1-1.3-3.2-1.8-4.5l0.7,38.9h-2.4l0.8-43.3c-0.5-0.2-0.8-0.6-0.8-1.1
							c0,0,0,0,0,0l-8.9-2.4C347.6,145.1,347.5,144.9,347.5,144.8z"/>
						<polygon class="st9" points="446.5,171.5 442.8,193.8 450.3,193.8 						"/>
						<polygon class="st9" points="419.7,171.6 416.3,191.3 423.2,191.3 						"/>
						<polygon class="st9" points="452.7,178.8 449,201.1 456.4,201.1 						"/>
						<polygon class="st9" points="461,190.3 461,199.4 455.7,199.4 459.1,179.7 						"/>
						<polygon class="st9" points="424.2,167.6 419.7,192.4 428.7,192.4 						"/>
						<polygon class="st9" points="429.7,174.6 426.3,194.3 433.1,194.3 						"/>
						<polygon class="st9" points="284.7,156.2 281.5,174.4 287.8,174.4 						"/>
						<polygon class="st9" points="288.1,159.1 284.7,178.8 291.5,178.8 						"/>
						<polygon class="st9" points="391.1,161.8 387.7,181.5 394.5,181.5 						"/>
						<polygon class="st9" points="396.5,165.8 393,185.5 399.9,185.5 						"/>
						<path class="st7" d="M461,188.6v14.2c-3.9-0.2-10.9-3-22.4-7.5c-13.5-5.2-35.5-8.5-34-13.7c1-3.4,7-6,17.3-2.4
							c4.5,1.6,7.9,0.4,10.9,0.7c3.2,0.4,5.6,4.1,7.5,5.3c3.8,2.3,6.3-0.8,8.8,0c2.4,0.7,3.2,3.3,4.9,3.9
							C456.4,190.1,458.7,187.7,461,188.6z"/>
						<polygon class="st9" points="305,162.8 301.7,182.5 308.3,182.5 						"/>
						<polygon class="st9" points="403.1,162.5 399.6,182.2 406.5,182.2 						"/>
						<polygon class="st9" points="412.9,167.6 409.5,187.3 416.3,187.3 						"/>
						<rect x="-58.3" y="212.6" class="st10" width="519.2" height="120.3"/>
						
							<linearGradient id="SVGID_00000072243009528024045110000008260801958258845574_" gradientUnits="userSpaceOnUse" x1="255.3294" y1="156.5978" x2="255.3294" y2="50.4053">
							<stop  offset="0" style="stop-color:#268399"/>
							<stop  offset="0.1743" style="stop-color:#2394A6"/>
							<stop  offset="0.4551" style="stop-color:#1FA8B5"/>
							<stop  offset="0.7323" style="stop-color:#1DB5BF"/>
							<stop  offset="1" style="stop-color:#1CB9C2"/>
						</linearGradient>
						<path style="fill:url(#SVGID_00000072243009528024045110000008260801958258845574_);" d="M289,122.3
							c-18,0-43.4-75.5-68.3-75.5c-12.1,0,1.9,11.3,13.3,19.6c4.8,3.5,4.4,8.8-2.4,11.1c-8.9,2.9-6.7,9.2,3.4,15.6
							c11.5,7.4,22.1,13.5,21.3,19.7c-0.9,6.1-7.5,4.5-7.9,9.8c-0.4,4.8,14.3,9.4,18.9,24c3,9.5,11.7,7.4,12.2,0
							c0.3-4.8,1.4-9.1,8.1-12.8C295.2,129.6,298,122.3,289,122.3z"/>
						<path class="st7" d="M254.5,155.7c-0.8,3.3-10.2-0.3-22,1c-11.7,1.3-18.7,6.4-29,9c-11.8,3-25.5,4.7-25.8,1.5
							c-0.4-3.7,4.4-3,7.6-4.4c2.4-1.1,1.7-5,4.6-5.5c3.5-0.6,8.9,1.3,11.6-0.5c2.5-1.7,3.4-7.5,6.5-9.2c5.9-3.1,10.5,0.3,14.3,0.4
							c6.1,0.2,11-2.4,16.1-1.3c2.9,0.6,4.5,3.3,6.9,3.9c1.6,0.4,3.7-0.4,5.7,0.2C253.3,151.4,254.9,153.8,254.5,155.7z"/>
						<g>
							<polygon class="st10" points="224.3,159.7 212.4,159.7 212.4,137 218.3,129.5 224.3,137 							"/>
							<rect x="224.3" y="137" class="st12" width="14.9" height="22.6"/>
							<polygon class="st13" points="218.3,129.5 233.3,129.5 239.2,137 224.3,137 							"/>
							<rect x="227.1" y="141.7" class="st14" width="2.2" height="7.9"/>
							<rect x="231.8" y="141.7" class="st14" width="2.2" height="7.9"/>
						</g>
						<path class="st7" d="M53.3,187.1c-16.1,4.1-37.7,0.8-51.9,0.8c-30.6,0-56.1,21.7-59.7,18.6v-17.1c0.5-1.3,1.3-2.5,2.2-3.6
							c1.9-2.2,6.9-2,9.7-3.7c4.1-2.7,5.7-7.7,10.8-10.6c8.9-5,14.2,1,22.7,1c3.5,0,7.6-4.4,12.1-5.7c7.4-2.1,14.5,4.7,20.7,5.1
							c8,0.6,9.1-0.6,15.7-3.1c8-3,17.1,4.1,26.5,1.6c18.3-4.9,23.7-16.2,27.3-12.2C92.6,161.6,74,181.9,53.3,187.1z"/>
						<path class="st15" d="M440.8,217.9c6.7,4.9-5.8,7.4-24.4,7.4c-77.2,0-347.4-2.6-418.4-2.6c-14.5,0-55.6,0.2-55.6-11.9
							c0-10.4,32.8-39.6,72.1-30.5c45.7,10.6,54-6.8,77-24.3c7.9-6,20-18,49.8,2.9c12,8.4,27.4,8.2,33.7,8.2
							c26.5,0,42.4-14.7,65-14.7c18.2,0,45.5,21.5,62.7,28.4c25.8,10.4,46.8-3.8,72.5-3.8c20.8,0,63.1,13.4,85.8,24.7v12.7
							C446.5,212.6,428.5,209,440.8,217.9z"/>
						
							<linearGradient id="SVGID_00000085244681917008294010000010995582522956199566_" gradientUnits="userSpaceOnUse" x1="134.9573" y1="155.5752" x2="134.9573" y2="91.0865">
							<stop  offset="0" style="stop-color:#268399"/>
							<stop  offset="0.1743" style="stop-color:#2394A6"/>
							<stop  offset="0.4551" style="stop-color:#1FA8B5"/>
							<stop  offset="0.7323" style="stop-color:#1DB5BF"/>
							<stop  offset="1" style="stop-color:#1CB9C2"/>
						</linearGradient>
						<path style="fill:url(#SVGID_00000085244681917008294010000010995582522956199566_);" d="M155.6,119.9
							c-14.3,0-31.2-38.6-50-38.6c-3.9,0-2.6,3.8,3.3,7.3c7.7,4.5,13.9,11.6,4.5,11.6c-7.4,0-5.4,5.4-2.1,7.4
							c7.8,4.7,19.8,7.5,18.8,11.5c-0.8,3.1-13.2,4.4-2.9,14.2c10,9.5,32.8,19.5,30.4,5.8C155.3,126,180.3,119.9,155.6,119.9z"/>
						
							<linearGradient id="SVGID_00000009557200008116938390000017296113495386517394_" gradientUnits="userSpaceOnUse" x1="41.8099" y1="162.2721" x2="41.8099" y2="107.2795">
							<stop  offset="0" style="stop-color:#268399"/>
							<stop  offset="0.1743" style="stop-color:#2394A6"/>
							<stop  offset="0.4551" style="stop-color:#1FA8B5"/>
							<stop  offset="0.7323" style="stop-color:#1DB5BF"/>
							<stop  offset="1" style="stop-color:#1CB9C2"/>
						</linearGradient>
						<path style="fill:url(#SVGID_00000009557200008116938390000017296113495386517394_);" d="M52.3,150.3
							c-9.5-1.6-11.7-7.5-17.7-15.1c-7.6-9.7-20.3-6.6-15-11.6c0.7-0.1,1.5-0.2,2.2-0.2c11.2,0,15.9,9.9,26.8,9.9
							c4.5,0,8.6-1.8,12.5-4.8c0,0,0,0,0,0c4.7,1.3-10,9.5-2.3,11.1C72.2,142.4,62,151.9,52.3,150.3z"/>
						<path class="st10" d="M228.7,219.4c0,0.3-13.7,0.6-33.8,0.8c-16,0.2-36.7-0.1-53.1-0.1c-36.9,0-66.9-0.5-66.9-1.1
							c0-0.6,30.1-0.5,67-0.5S228.7,218.8,228.7,219.4z"/>
						<path class="st18" d="M440.8,217.9c6.7,4.9-5.8,7.4-24.4,7.4c-77.2,0-347.4-2.6-418.4-2.6c-14.5,0-55.6,0.2-55.6-11.9
							c0-10.4,35.3-40.5,73.2-26.7c52.3,19,58.2-1.1,79.1-21.1c7.2-6.8,19.3-22.1,47.1-1.6c16.2,11.9,27.8,13.3,41.4,12.2
							c26.4-2.1,34.5-18.1,57.1-19c25.8-1,47.8,23.8,64.7,31.5c33.9,15.5,45-1.2,80.3-3.2c20.5-1.2,55.6,10.5,75.7,20.1v11.4
							C446.5,212.6,428.5,209,440.8,217.9z"/>
						<polygon class="st19" points="111.1,197.8 140.2,197.8 129.1,188.7 122.3,206.9 						"/>
						<g>
							<path class="st15" d="M438.9,216.5h-5.2c-8.5,0-15.2-3-22.2-6.1c-7.7-3.5-15.7-7-27-7c-49.8,0-232.1,0-232.1,0
								c-15.4,0-22.3-4.5-29.8-9.3c-8-5.2-16.3-10.5-37-10.5H54.3v-3h31.4c21.6,0,30.6,5.8,38.6,11c7,4.5,13.7,8.8,28.1,8.8
								c0,0,182.2,0,232.1,0c12,0,20.6,3.9,28.2,7.3c6.7,3,13.1,5.9,21,5.9h3C436.7,214.2,437.4,215.1,438.9,216.5z"/>
						</g>
						<path class="st20" d="M269.3,162.7c-4.2-2.3-8.3-4.3-12.3-6l-0.1,0.1c8.5,3.9,11.1,8.5,10.5,11c-0.5,2.4-3.6,4-7.5,4h-47.5
							c-8.7,0-13.1,2.2-17.4,4.3c-4.5,2.2-9.2,4.5-19.7,4.5h-0.3c-3.7,0-44.6,0-84.6,0c-12.1,0-24.1,0-35,0H35.9
							c-7.4,0-13.5,0-17.8,0c-0.3,0-1.2,0-2.5,0c8.8,2,16.2,2.9,22.6,3c39.2,0,101.3,0,136.9,0h0.3c11.2,0,16.2-2.4,21-4.8
							c4.1-2,8-3.9,16.1-3.9h47.5c5.4,0,9.7-2.5,10.4-6.4C270.6,166.8,270.5,164.9,269.3,162.7z"/>
						<g>
							<path class="st21" d="M160.8,184c-1.1-1.7-1.2-3.5-0.7-5.3c0.9-3.2,1.1-6.3-2.1-9.5c-1.6-1.6-4.4-3.2-5.7-1
								c-0.8,1.4,0.4,4.9,0.3,7.4c0,2.3-1.8,4.2-2.9,5.5c-4.1,4.6-4,15.3,4.7,16.7C159.9,198.8,166,192.2,160.8,184z"/>
							<path class="st22" d="M160.8,184c-1.1-1.7-1.2-3.5-0.7-5.3c0.9-3.2,1.1-6.3-2.1-9.5c-1.4-1.4-3.5-2.7-5-1.8
								c2.8,0.6,4.4,4,5.1,7.3c0.5,2.4-1.9,5.3-2.9,8.1c-1.2,3.6,2.7,7.7-2.3,9.3c-1.5,0.5-2.4,2.2-2.5,4.1c1,0.8,2.3,1.4,3.9,1.6
								C159.9,198.8,166,192.2,160.8,184z"/>
						</g>
						<g>
							<path class="st21" d="M174.8,168c0.7-6-5.6-11.1-7.5-10.4c-2.7,1-2.6,4.6-2.3,8.4c0.1,1.9,0.5,3.6-0.3,5.4
								c-0.7,1.6-2,3-2,4.9c0,1.7,1.9,3.4,1.1,5c-0.7,1.3-2.2,3.3-2.9,4.7c-1.2,2.6-1.6,5.6,0.7,8c4.4,4.5,15.7,6.6,16.7-1
								c0.5-4.2-1.3-8.6-3.5-12.3c-1-1.7-2.3-3.6-2.1-5.6C172.8,172.7,174.5,170.2,174.8,168z"/>
							<path class="st22" d="M174.7,180.6c-1-1.7-2.3-3.6-2.1-5.6c0.2-2.3,1.9-4.8,2.2-7c0.7-5.9-5.6-11-7.5-10.4
								c1.6,0.6,6.2,3.5,4.3,8.2c-0.7,1.8-1.8,2.9-2.5,6.2c-0.8,4.5,5.2,9.9,3.2,14.6c-2.4,5.8-11.8,3.1-10.8,7.3
								c4.4,4.5,15.7,6.6,16.7-1C178.8,188.6,176.9,184.3,174.7,180.6z"/>
						</g>
						<path class="st23" d="M128.7,212.6c-13.8-14.5-43.5-24.4-77.9-24.4c-34.4,0-64.1,10-77.9,24.4H128.7z"/>
						<g>
							<path class="st21" d="M20.1,170.3c-2.8-4.9-6.3-10-10.9-7C6.5,165,8.3,171,5.5,175c-3.8,5.5-1.9,15.4,7.9,15.4
								C26.6,190.4,22.5,174.4,20.1,170.3z"/>
							<path class="st22" d="M20.1,170.3c-2.7-4.6-6-9.5-10.3-7.4c0,0,0,0,0,0.1c1.1,1.7,4,1.5,6.7,5.8c1.2,1.9,1.8,3.2,0.2,6.4
								c-2.2,4.1,1.1,6.8-0.4,9c-2.5,3.5-9.1,3.7-7.6,5.3c1.3,0.6,2.8,0.9,4.7,0.9C26.6,190.4,22.5,174.4,20.1,170.3z"/>
						</g>
						<path class="st24" d="M128.7,212.6C115.4,199.5,87,190.4,54,190.4c-33,0-61.4,9.1-74.7,22.3H128.7z"/>
						<path class="st10" d="M299.3,64.3c-2.2-2.8-7-7.1-13.1-6.9c-5,0.2-6.3,2.3-9,2.1c-3.7-0.3-5.5-10.6-14.5-2.9
							c-5.1,4.4-5.8-4.8-10.4-8.4c-7-5.6-12.7,6.8-15.6,16.2H299.3z"/>
						<path class="st25" d="M299.3,64.3c-2.2-1.8-7-4.7-13.1-4.5c-5,0.1-6.3,1.5-9,1.4c-3.7-0.2-5.5-7-14.5-1.9
							c-5.1,2.9-5.8-1.3-10.4-3.7c-7-3.7-12.7,2.6-15.6,8.8H299.3z"/>
						<path class="st10" d="M182.9,64.3c-8-11.8-17.5-1.1-22.7-6.7c-11.2-12.1-14.7-9.9-19.7-6.1c-9.7,7.4-7.3-12.1-14.4-14
							c-5.6-1.4-8.6,11.6-13.2,14.7c-6,4-7.2-8.1-12.7-5.9c-4.2,1.6-7.8,14.4-9.6,18H182.9z"/>
						<path class="st10" d="M81.4,64.3c-0.3-2.8-4.6-12.3-14-6c-5,3.4-4.5-3.9-8.2-6.6c-3.3-2.4-9.2,5.3-12.7,12.6H81.4z"/>
						<path class="st25" d="M182.9,64.3c-8-8.6-17.5-0.8-22.7-4.9c-11.2-8.8-14.6-7-19.7-4.4c-7.5,3.8-7.3-6.9-14.4-8.2
							c-5.6-1.1-8.6,6.5-13.2,8.8c-6,2.9-7.2-5.8-12.7-4.3c-4.2,1.2-7.8,10.5-9.6,13.1H182.9z"/>
						<path class="st25" d="M81.4,64.3c-0.3-2.1-4.6-9.2-14-4.5c-5,2.5-4.5-1.7-8.2-3.7c-3.3-1.8-9.2,2.7-12.7,8.2H81.4z"/>
						<path class="st10" d="M43.2,64.3c-0.4-2.8-2.4-5.6-5.6-5.6c-3.3,0-6.9,2.8-8.8,5.6H43.2z"/>
						<path class="st25" d="M43.2,64.3c-0.4-1.8-2.4-3.7-5.6-3.7c-3.3,0-6.9,1.9-8.8,3.7H43.2z"/>
						<path class="st10" d="M322.2,64.3c-1.2-2.4-4.2-4.9-7.7-4.9c-3.5,0-6.4,2.5-7.6,4.9H322.2z"/>
						<path class="st25" d="M322.2,64.3c-1-1.6-3.7-3.3-7.1-3.3s-6.7,1.6-8.2,3.3H322.2z"/>
						<g>
							<path class="st26" d="M88.4,212.6h-2.2c-1.8-4.9-5-9.7-7.9-13.8c-2.8-4-6.3-7.5-10.5-9.8c1.6,0.2,3.1,0.3,4.6,0.5h0
								c2.6,2,4.9,4.4,6.9,7.1c2,2.7,3.7,5.6,5.4,8.5C86.1,207.6,87.4,210,88.4,212.6z"/>
							<path class="st26" d="M96.6,212.6h-2.2c-1.6-4.5-3.8-8.5-6.5-12.5c-2.7-3.9-6-7.5-10.1-9.8c1.7,0.3,3.4,0.6,5,0.9h0
								c2.3,1.9,4.4,4.1,6,6.5C92,202.5,94.8,207.1,96.6,212.6z"/>
							<path class="st26" d="M105.8,212.6h-2.3c-3-8-8.7-14.9-15.3-20.2c1.6,0.4,3.1,0.8,4.6,1.2
								C98.6,198.9,103.3,205.3,105.8,212.6z"/>
							<path class="st26" d="M115,212.6h-2.3c-1.4-3.3-3-6.4-5-9.3c-1.3-1.8-3.2-3.1-4.6-4.9c-0.8-1-1.8-1.8-2.8-2.5
								c1.8,0.6,3.5,1.3,5.2,2c1.2,1.2,2.6,2.3,3.7,3.7C111.6,205,113.5,208.8,115,212.6z"/>
							<path class="st26" d="M123.3,212.6h-2.4c-1.2-2.2-2.7-4.3-4.2-6.4c-1.5-2-3-3.9-4.9-5.5c2,1,3.9,2,5.7,3.1c0,0,0,0,0,0
								c0.2,0.2,0.4,0.5,0.6,0.7C120.1,207.2,121.9,209.8,123.3,212.6z"/>
							<path class="st26" d="M69.8,212.6h-2.3c-3.9-9.5-9.3-18.6-17.9-24.4c0.4,0,0.8,0,1.1,0c0.8,0,1.6,0,2.5,0h0
								C61,194.4,66.1,203.4,69.8,212.6z"/>
							<path class="st26" d="M60.4,212.6h-2.2c-1.4-4.7-3.9-8.9-6.7-13c-2.6-3.8-5.4-8.4-9.3-11.3c1-0.1,2.1-0.1,3.1-0.1
								c3,2.8,5.3,6.5,7.6,9.7C56.2,202.5,58.9,207.3,60.4,212.6z"/>
							<path class="st26" d="M51.2,212.6h-2.1c-0.6-4.5-3.1-9.1-5.3-12.8c-2.4-4.1-5.4-8.4-9.5-10.9c1.1-0.1,2.2-0.2,3.3-0.3
								c3.3,2.7,5.9,6.5,8.1,10.1C48,202.8,50.7,207.8,51.2,212.6z"/>
							<path class="st26" d="M36.1,212.6h-2.2c-1.5-4.2-3.3-8.2-5.5-12c-2.2-3.7-4.7-7.2-8.3-9.6c0.9-0.2,1.9-0.3,2.8-0.5
								c2.8,2.3,5,5.3,6.9,8.5C32.4,203.3,34.4,207.9,36.1,212.6z"/>
							<path class="st26" d="M28,212.6h-2.2c-1.4-4-2.6-8-4.9-11.6c-2-3.3-4.3-6.2-7-8.7c0.8-0.2,1.7-0.4,2.5-0.6
								c2.5,2.4,4.5,5.2,6.4,8.2C25.2,203.9,26.5,208.3,28,212.6z"/>
							<path class="st26" d="M20.2,212.6H18c-1.1-3.3-2.5-6.6-4.3-9.7c-1.7-3-3.8-6.7-6.7-8.9c0.8-0.2,1.6-0.5,2.5-0.7h0
								c2.3,2.2,4.1,5.1,5.7,7.8C17.3,204.8,19,208.6,20.2,212.6z"/>
							<path class="st26" d="M13.7,212.6h-2.2c-2.1-6.1-5.2-12.5-9.8-16.8c0.7-0.3,1.5-0.5,2.2-0.7h0
								C8.5,199.8,11.6,206.4,13.7,212.6z"/>
							<path class="st26" d="M6.4,212.6H4.1c-2.2-5-4.6-10.5-8.2-14.7c0.7-0.3,1.4-0.6,2.1-0.8C1.7,201.6,4.1,207.5,6.4,212.6z"/>
							<path class="st26" d="M-0.1,212.6h-2.2c-1.5-4.6-4-8.7-7.5-12.1c0.7-0.3,1.4-0.7,2-1C-4.1,203.2-1.5,207.7-0.1,212.6z"/>
							<path class="st26" d="M-7.7,212.6H-10c-1.2-3.4-2.5-6.7-4.7-9.5c0.6-0.4,1.2-0.7,1.9-1.1C-10.4,205.2-9,208.9-7.7,212.6z"/>
							<path class="st26" d="M43.5,212.6h-2.3c-1.7-4.4-3.3-9-5.7-12.9c-2.3-3.6-4.8-7.5-8.3-10c1-0.1,1.9-0.3,2.9-0.4
								c2.7,2.4,4.8,5.6,6.8,8.6C39.9,202.5,41.6,207.7,43.5,212.6z"/>
							<path class="st26" d="M79,212.6h-2.3c-1.9-4.3-3.9-8.7-6.3-12.7c-2.6-4.5-6.3-8-10.1-11.5c1.1,0.1,2.3,0.1,3.4,0.2
								c3.1,2.9,6,5.9,8.2,9.5C74.7,202.7,76.8,207.7,79,212.6z"/>
						</g>
						<g>
							<path class="st21" d="M63.7,168.6c-1.1-2.7-1.3-5.5-1-8.2c0.6-4.9,0.5-9.7-2.6-14.6c-1.6-2.5-4.2-4.9-5.2-1.6
								c-0.6,2.1,0.7,7.5,0.9,11.4c0.1,3.5-1.3,6.5-2.2,8.5c-3.3,7.1-2.4,23.6,5.5,25.8C64.1,191.4,69.1,181.2,63.7,168.6z"/>
							<path class="st22" d="M63.7,168.6c-1.1-2.7-1.3-5.5-1-8.2c0.6-4.9,0.5-9.7-2.6-14.6c-1.3-2.1-3.4-4.1-4.6-2.8
								c2.6,1,4.3,6.2,5.1,11.3c0.6,3.7-1.3,8.1-2,12.6c-0.8,5.6,3,11.8-1.4,14.3c-1.3,0.8-2,3.4-1.9,6.3c1,1.2,2.2,2.1,3.6,2.5
								C64.1,191.4,69.1,181.2,63.7,168.6z"/>
						</g>
						<path class="st22" d="M24.5,212.6h-82.8v-13.2c3.7,0,7.5,5.9,9.1,3.6c4-5.4,5.9-6.6,9.9-8.8c9.4-5.2,1.4,8.2,10.8,5.9
							c6.2-1.5,11.1-4.9,15.9-4.9c11.7,0.1-2.6,14.7,11.4,10.3C16.5,200,36.2,209.5,24.5,212.6z"/>
						<path class="st22" d="M47.6,212.6c-0.5-2.3-2.6-4.6-5.7-4.6c-3.1,0-6.4,2.3-8.1,4.6H47.6z"/>
						<g>
							<path class="st21" d="M51.5,173.7c-1.1-1.5-1.5-3.1-0.8-4.5c1.9-3.9-4.8-9.7-8.4-5c-1.9,2.4,1.8,6.1-1,8.5
								c-3.8,3.2-4.3,12.1,5.1,12.8C51.4,185.8,56.6,180.7,51.5,173.7z"/>
							<path class="st22" d="M51.5,173.7c-1.1-1.5-1.5-3.1-0.8-4.5c1.5-3-2.2-7.2-5.6-6.8c1.3,0.7,3.2,1.6,3.8,3.1
								c1.3,3.1-1.8,4.1-1.7,6.7c0.1,3.9,3.4,4.6,2.1,7.6c-1,2.3-6.3,3.4-7.3,4.5c1.1,0.6,2.6,1.1,4.4,1.2
								C51.4,185.8,56.6,180.7,51.5,173.7z"/>
						</g>
						<path class="st23" d="M320.3,200.3c-11.1-11.6-41.8-21.5-69.3-21.5c-27.6,0-44.4,10-55.5,21.5H320.3z"/>
						<path class="st27" d="M320.3,200.3c-10.4-10.9-39.2-20.2-65-20.2c-25.8,0-41.7,9.4-52.1,20.2H320.3z"/>
						<g>
							<path class="st28" d="M245.5,178.9c-3,2.4-5.2,5.6-6.8,8.2c-2.4,4.1-4.1,8.7-5.6,13.2H232c2.6-7.3,5.8-15.9,11.5-21.3
								C244.2,179,244.8,178.9,245.5,178.9z"/>
							<path class="st28" d="M237.5,179.6c-2.3,2.3-4.3,5.2-6,8.2c-2.3,3.9-4.2,8.1-5.4,12.5h-1.2c1.4-4.9,3.5-9.5,6.2-13.9
								c1.3-2.2,2.9-4.5,4.8-6.6v0h0C236.4,179.8,237,179.7,237.5,179.6z"/>
							<path class="st28" d="M229.6,181.1c-2.1,2.5-3.8,5.5-5.2,7.8l-0.3,0.4c-2,3.5-3.8,7.2-5.1,11h-1.2c1.4-4,3.2-7.9,5.4-11.6
								l0.2-0.3c1.3-2.1,2.7-4.7,4.5-6.9C228.5,181.3,229,181.2,229.6,181.1z"/>
							<path class="st28" d="M221,183.6c-3.8,5.2-6.7,10.8-8.8,16.7h-1.2c1.9-5.6,4.7-11,8.1-16h0C219.8,184,220.4,183.8,221,183.6z
								"/>
							<path class="st28" d="M202.3,194c-1.3,2-2.4,4.1-3.4,6.3h-1.2c0.7-1.4,1.4-2.8,2.1-4.2l0,0
								C200.6,195.4,201.4,194.7,202.3,194z"/>
							<path class="st28" d="M212.5,187.4c-2.3,4.1-4.6,8.4-6.5,13h-1.2c1.8-4.2,3.9-8.3,5.9-12C211.3,188,211.9,187.7,212.5,187.4z
								"/>
							<path class="st28" d="M253.1,178.8c-5.3,5.6-9.3,12.6-12.5,21.5h-1.2c3.1-8.9,7-15.8,12.2-21.5
								C252.1,178.8,252.6,178.8,253.1,178.8z"/>
							<path class="st28" d="M259.1,179c-2.8,3.4-5.2,7-7.1,10.7c-1.7,3.5-3,7.1-4,10.5h-1.2c1.2-4,2.7-8.3,4.9-12.4
								c1.7-3.1,3.7-6.1,6-9C258.2,179,258.7,179,259.1,179z"/>
							<path class="st28" d="M265.1,179.6c-2.8,2.9-4.9,6.5-6.7,9.8c-1.8,3.5-3.3,7.2-4.5,10.9h-1.2c1.3-4.5,3.2-8.8,5.4-12.9
								c1.5-2.6,3.2-5.5,5.5-8C264.2,179.5,264.7,179.5,265.1,179.6z"/>
							<path class="st28" d="M270.7,180.3c-2.5,2.6-4.7,5.9-6.7,10c-1,2.2-2,4.5-3.1,7.4c-0.1,0.2-0.2,0.5-0.4,1
								c-0.2,0.4-0.4,1-0.6,1.6h-1c0-0.1,0-0.1,0.1-0.2c1-2.9,2.2-6.3,3.8-9.6c2-4.2,4.2-7.6,6.8-10.4h0
								C269.9,180.2,270.3,180.3,270.7,180.3z"/>
							<path class="st28" d="M276.1,181.3c-1.9,2.4-3.5,5.3-5,8.8c-0.5,1.1-1.1,2.2-1.7,3.3c-0.7,1.2-1.4,2.5-1.9,3.8
								c-0.4,0.9-0.7,2-1,3.1h-1.2c0.3-1.2,0.6-2.4,1-3.4c0.6-1.4,1.3-2.8,2-4.2c0.7-1.2,1.3-2.5,1.9-3.8c1.2-2.9,2.7-5.6,4.5-7.9
								C275.3,181.1,275.7,181.2,276.1,181.3z"/>
							<path class="st28" d="M282,182.5c-2.1,2.7-4,5.6-5.5,8.6c-1,2.1-2,4.2-2.9,6.2l0,0.1c-0.4,0.9-0.8,1.9-1.2,2.9h-1.2
								c1.2-3,2.5-5.8,3.5-8.1c1.7-3.5,3.7-6.8,6.1-10C281.2,182.3,281.6,182.4,282,182.5z"/>
							<path class="st28" d="M288.4,184.2c-3.7,4.8-7.2,10.1-8.9,16.1h-1.2c1.7-6,5.1-11.4,8.9-16.4
								C287.7,184,288,184.1,288.4,184.2z"/>
							<path class="st28" d="M293.4,185.7c-1.4,2-2.6,4.2-3.7,6.1l-0.5,0.9c-1.5,2.6-2.7,5.2-3.6,7.6h-1.2c1-2.8,2.4-5.6,4-8.5
								l0.4-0.7c1-1.8,2.2-3.8,3.5-5.6h0C292.7,185.5,293,185.6,293.4,185.7z"/>
							<path class="st28" d="M299.3,187.9c-0.3,0.5-0.5,1-0.8,1.5c-0.4,0.8-0.8,1.6-1.3,2.3c-0.5,0.8-1,1.6-1.6,2.4
								c-1.3,2-2.7,4-3.5,6.2h-1.1c0.8-2.3,2.2-4.5,3.8-6.9c1-1.5,1.8-3,2.6-4.5c0.3-0.5,0.5-1,0.8-1.4
								C298.7,187.6,299,187.7,299.3,187.9z"/>
							<path class="st28" d="M304,189.8c-0.5,0.8-0.9,1.7-1.3,2.5c-0.3,0.7-0.6,1.3-0.9,1.8c-1,1.8-2.1,3.9-3.1,6.1h-1.2
								c1.2-2.8,2.6-5.5,4.1-8.1c0.3-0.5,0.5-1,0.8-1.5c0.2-0.5,0.5-0.9,0.7-1.4C303.4,189.6,303.7,189.7,304,189.8z"/>
							<path class="st28" d="M308.8,192.2c-0.2,0.3-0.4,0.6-0.5,0.9l-0.4,0.6c-1.6,2.5-2.7,4.7-3.4,6.7h-1.2c0.6-2,1.6-4.1,3.1-6.4
								l0.4-0.6c0.3-0.5,0.7-1.1,1-1.6C308.2,191.8,308.5,192,308.8,192.2z"/>
							<path class="st28" d="M313.5,194.9c-0.1,0.1-0.2,0.2-0.3,0.4l-0.1,0.1c-0.9,1.3-2.2,3.2-3,5H309c0.7-1.6,1.7-3.1,2.5-4.4
								l0.1-0.1c0.3-0.5,0.6-1,1-1.5C312.9,194.5,313.2,194.7,313.5,194.9z"/>
							<path class="st28" d="M318.2,198.4c-0.4,0.6-0.9,1.2-1.2,1.9h-1.4c0.4-0.7,0.8-1.3,1.2-1.9c0.2-0.3,0.4-0.5,0.6-0.7
								C317.7,197.9,318,198.2,318.2,198.4z"/>
						</g>
						<g>
							<path class="st29" d="M243.5,180.8c-2,2.1-3.6,4.4-4.7,6.3c-2.4,4.1-4.1,8.7-5.6,13.2H232c2.3-6.5,5-13.9,9.6-19.3h0
								C242.2,181,242.8,180.9,243.5,180.8z"/>
							<path class="st29" d="M235.2,182.2c-1.4,1.7-2.6,3.7-3.7,5.6c-2.3,3.9-4.2,8.1-5.4,12.5h-1.2c1.4-4.9,3.5-9.5,6.2-13.9
								c0.8-1.2,1.6-2.5,2.5-3.8h0C234.1,182.5,234.7,182.4,235.2,182.2z"/>
							<path class="st29" d="M226.9,184.7c-1,1.5-1.8,2.9-2.5,4.2l-0.3,0.4c-2,3.5-3.8,7.2-5.1,11h-1.2c1.4-4,3.2-7.9,5.4-11.6
								l0.2-0.3c0.6-1,1.2-2,1.8-3.1C225.8,185.1,226.4,184.9,226.9,184.7z"/>
							<path class="st29" d="M217.4,189.1c-2.1,3.6-3.8,7.3-5.2,11.2h-1.2c1.2-3.5,2.7-6.8,4.5-10.1
								C216.2,189.8,216.8,189.5,217.4,189.1z"/>
							<path class="st29" d="M208.1,195.6c-0.7,1.5-1.5,3.1-2.1,4.7h-1.2c0.4-1,0.8-1.9,1.3-2.9
								C206.7,196.8,207.4,196.2,208.1,195.6z"/>
							<path class="st29" d="M251.8,180.1c-4.7,5.4-8.3,11.9-11.2,20.2h-1.2c2.8-8.2,6.4-14.7,10.9-20.1h0
								C250.9,180.2,251.3,180.2,251.8,180.1z"/>
							<path class="st29" d="M258.2,180.1c-2.4,3-4.5,6.3-6.2,9.6c-1.7,3.5-3,7.1-4,10.5h-1.2c1.2-4,2.7-8.3,4.9-12.4
								c1.5-2.7,3.2-5.3,5.1-7.8h0C257.3,180.1,257.8,180.1,258.2,180.1z"/>
							<path class="st29" d="M264.3,180.5c-2.4,2.7-4.3,5.9-5.8,8.9c-1.8,3.5-3.3,7.2-4.5,10.9h-1.2c1.3-4.5,3.2-8.8,5.4-12.9
								c1.3-2.3,2.8-4.8,4.7-7.1h0C263.4,180.4,263.9,180.4,264.3,180.5z"/>
							<path class="st29" d="M270.1,181c-2.2,2.5-4.2,5.5-6,9.3c-1,2.2-2,4.5-3.1,7.4c-0.1,0.2-0.2,0.5-0.4,1
								c-0.2,0.4-0.4,1-0.6,1.6h-1c0-0.1,0-0.1,0.1-0.2c1-2.9,2.2-6.3,3.8-9.6c1.8-3.8,3.8-7,6.1-9.6
								C269.2,180.9,269.6,181,270.1,181z"/>
							<path class="st29" d="M275.6,181.9c-1.7,2.3-3.2,4.9-4.6,8.2c-0.5,1.1-1.1,2.2-1.7,3.3c-0.7,1.2-1.4,2.5-1.9,3.8
								c-0.4,0.9-0.7,2-1,3.1h-1.2c0.3-1.2,0.6-2.4,1-3.4c0.6-1.4,1.3-2.8,2-4.2c0.7-1.2,1.3-2.5,1.9-3.8c1.1-2.7,2.5-5.1,4.1-7.3
								C274.8,181.7,275.2,181.8,275.6,181.9z"/>
							<path class="st29" d="M281.6,183c-2,2.6-3.7,5.3-5.1,8.1c-1,2.1-2,4.2-2.9,6.2l0,0.1c-0.4,0.9-0.8,1.9-1.2,2.9h-1.2
								c1.2-3,2.5-5.8,3.5-8.1c1.6-3.3,3.5-6.5,5.8-9.5C280.9,182.8,281.2,182.9,281.6,183z"/>
							<path class="st29" d="M288.1,184.6c-3.6,4.7-6.9,9.9-8.6,15.8h-1.2c1.6-5.8,4.9-11.1,8.6-16
								C287.4,184.4,287.7,184.5,288.1,184.6z"/>
							<path class="st29" d="M293.2,186c-1.3,1.9-2.5,4-3.5,5.8l-0.5,0.9c-1.5,2.6-2.7,5.2-3.6,7.6h-1.2c1-2.8,2.4-5.6,4-8.5
								l0.4-0.7c1-1.7,2-3.6,3.2-5.3C292.5,185.8,292.8,185.9,293.2,186z"/>
							<path class="st29" d="M299.2,188.1c-0.2,0.4-0.4,0.9-0.7,1.3c-0.4,0.8-0.8,1.6-1.3,2.3c-0.5,0.8-1,1.6-1.6,2.4
								c-1.3,2-2.7,4-3.5,6.2h-1.1c0.8-2.3,2.2-4.5,3.8-6.9c1-1.5,1.8-3,2.6-4.5c0.2-0.4,0.4-0.8,0.7-1.2
								C298.5,187.8,298.9,188,299.2,188.1z"/>
							<path class="st29" d="M303.9,190c-0.4,0.8-0.8,1.6-1.2,2.4c-0.3,0.7-0.6,1.3-0.9,1.8c-1,1.8-2.1,3.9-3.1,6.1h-1.2
								c1.2-2.8,2.6-5.5,4.1-8.1c0.3-0.5,0.5-1,0.8-1.5c0.2-0.4,0.4-0.8,0.6-1.2C303.3,189.7,303.6,189.9,303.9,190z"/>
							<path class="st29" d="M308.7,192.3c-0.2,0.3-0.3,0.5-0.5,0.8l-0.4,0.6c-1.6,2.5-2.7,4.7-3.4,6.7h-1.2c0.6-2,1.6-4.1,3.1-6.4
								l0.4-0.6c0.3-0.5,0.6-1,0.9-1.5C308.1,191.9,308.4,192.1,308.7,192.3z"/>
							<path class="st29" d="M313.4,194.9c-0.1,0.1-0.1,0.2-0.2,0.3l-0.1,0.1c-0.9,1.3-2.2,3.2-3,5H309c0.7-1.6,1.7-3.1,2.5-4.4
								l0.1-0.1c0.3-0.5,0.6-0.9,0.9-1.4C312.8,194.6,313.1,194.7,313.4,194.9z"/>
							<path class="st29" d="M318.2,198.4c-0.4,0.6-0.9,1.2-1.2,1.9h-1.4c0.4-0.7,0.8-1.3,1.2-1.9c0.2-0.3,0.4-0.5,0.6-0.7
								C317.7,197.9,318,198.2,318.2,198.4z"/>
						</g>
						<g>
							<g>
								<polygon class="st12" points="281.7,212.6 293.6,212.6 293.6,190 287.7,182.5 281.7,190 								"/>
								
									<rect x="266.8" y="190" transform="matrix(-1 -1.224647e-16 1.224647e-16 -1 548.5809 402.625)" class="st10" width="14.9" height="22.6"/>
								
									<linearGradient id="SVGID_00000043438068914721796630000014626570945048412050_" gradientUnits="userSpaceOnUse" x1="266.8321" y1="186.2395" x2="287.6843" y2="186.2395">
									<stop  offset="0" style="stop-color:#EB816F"/>
									<stop  offset="1" style="stop-color:#D45944"/>
								</linearGradient>
								<polygon style="fill:url(#SVGID_00000043438068914721796630000014626570945048412050_);" points="287.7,182.5 272.8,182.5 
									266.8,190 281.7,190 								"/>
								
									<rect x="275.5" y="194.6" transform="matrix(-1 -1.224647e-16 1.224647e-16 -1 553.2067 397.9242)" class="st14" width="2.2" height="8.7"/>
								
									<rect x="270.9" y="194.6" transform="matrix(-1 -1.224647e-16 1.224647e-16 -1 543.9551 397.9242)" class="st14" width="2.2" height="8.7"/>
							</g>
							<rect x="260.4" y="196.8" class="st12" width="7.7" height="15.8"/>
							<rect x="242.2" y="196.8" class="st10" width="18.2" height="15.8"/>
							<rect x="270.9" y="194.6" class="st31" width="2.2" height="1.5"/>
							<rect x="275.5" y="194.6" class="st31" width="2.2" height="1.5"/>
						</g>
						<path class="st32" d="M278.4,212.6c0.9-1.6,3.1-3.2,5.5-3.2c2.4,0,4.3,1.6,5,3.2H278.4z"/>
						<g>
							<path class="st21" d="M301,196.6c-1.1-1.5-1.5-3.1-0.8-4.5c1.9-3.9-4.8-9.7-8.4-5c-1.9,2.4,1.8,6.1-1,8.5
								c-3.8,3.2-4.3,12.1,5.1,12.8C301,208.7,306.1,203.5,301,196.6z"/>
							<path class="st22" d="M301,196.6c-1.1-1.5-1.5-3.1-0.8-4.5c1.5-3-2.2-7.2-5.6-6.8c1.3,0.7,3.2,1.6,3.8,3.1
								c1.3,3.1-1.8,4.1-1.7,6.7c0.1,3.9,3.4,4.6,2.1,7.6c-1,2.3-6.3,3.4-7.3,4.5c1.1,0.6,2.6,1.1,4.4,1.2
								C301,208.7,306.1,203.5,301,196.6z"/>
						</g>
						<path class="st10" d="M416.3,225.3c0,9.2-40.7,10.8-93.5,17.3c-42.2,5.1-94,1.9-137.2,1.9c-97.2,0-187.6-7.7-187.6-21.7
							c0-7,45.5-10.1,109.3-10.1c24.4,0,142.7,0,180,0C358.3,212.6,416.3,217.2,416.3,225.3z"/>
						<path class="st33" d="M365.6,249.6c0,3.1-28.6,5.8-70.5,8.4c-33.5,2.1-76.8-0.5-111-0.1c-77.1,0.9-139.7-2.9-139.8-8.5
							c-0.1-5.6,62.7-5.7,139.9-6.6C261.3,242,365.5,244.1,365.6,249.6z"/>
						<path class="st33" d="M416.3,225.3c0,9.2-40.7,10.8-93.5,17.3c-42.2,5.1-94,1.9-137.2,1.9c-97.2,0-187.6-7.7-187.6-21.7
							c0-7,45.5-5.3,109.3-5.3c24.4,0,142.7,0,180,0C358.3,217.5,416.3,217.2,416.3,225.3z"/>
						<path class="st34" d="M357.6,265.5c-0.2-3-6.7-13-24.2-6.4c-9.4,3.6-7.6-4.1-13.9-7c-5.6-2.5-17.1,5.6-24.4,13.3H357.6z"/>
						<path class="st35" d="M264,265.5c0.2-3.8-2.4-7.7-8.1-7.7c-5.6,0-12.6,3.9-16.7,7.7H264z"/>
						<path class="st10" d="M408.3,239.7c0,0.6-22.5,1.1-55.5,1.5c-26.3,0.3-60.4-0.3-87.3-0.3c-60.7,0-109.8-0.9-109.8-2
							c0-1.1,49.4-1,110-1S408.3,238.6,408.3,239.7z"/>
						<path class="st35" d="M48.8,265.5c-1.4-2.8-4.8-5.6-8.8-5.6c-4,0-7.4,2.8-8.8,5.6H48.8z"/>
						<path class="st10" d="M200.7,234.1c0,0.5-19.8,0.8-48.8,1.1c-23.1,0.3-53.1-0.2-76.7-0.2c-53.3,0-96.6-0.7-96.6-1.5
							c0-0.8,43.4-0.7,96.7-0.7S200.7,233.2,200.7,234.1z"/>
						<path class="st36" d="M433.1,231.3c0,0.5-18.6,0.9-45.8,1.2c-21.7,0.3-49.8-0.2-72-0.2c-50,0-90.6-0.7-90.6-1.7
							s40.7-0.8,90.7-0.8S433.1,230.4,433.1,231.3z"/>
						<path class="st35" d="M408.5,241.3c-1.4-3.7-17.6-9.9-29.5-9.9c-11.9,0-15.6,5-19.8,9.9H408.5z"/>
						<path class="st37" d="M34,241.3c0-0.5-1-3.1-4.3-3.7c-3.2-0.6-6.1,1.5-9.1,0c-3.6-1.8-7.5-5.6-17.2-1.9
							C-5,238.8-3.4,232-9,229.5c-5-2.2-15.1,5-21.6,11.8H34z"/>
						<path class="st37" d="M67.4,241.3c-4-2.3-11.4-4.7-18-4.7c-6.6,0-10.5,2.4-11.2,4.7H67.4z"/>
						<g>
							<polygon class="st10" points="351.7,200.3 339.8,200.3 339.8,182.6 345.7,175.1 351.7,182.6 							"/>
							<rect x="351.7" y="182.6" class="st12" width="14.9" height="17.7"/>
							
								<linearGradient id="SVGID_00000104663943714452731770000009426932238040394886_" gradientUnits="userSpaceOnUse" x1="375.0728" y1="178.8687" x2="344.7063" y2="178.8687">
								<stop  offset="0" style="stop-color:#EB816F"/>
								<stop  offset="1" style="stop-color:#D45944"/>
							</linearGradient>
							<polygon style="fill:url(#SVGID_00000104663943714452731770000009426932238040394886_);" points="345.7,175.1 360.6,175.1 
								366.6,182.6 351.7,182.6 							"/>
							<rect x="354.5" y="189.3" class="st14" width="2.2" height="11.1"/>
							<rect x="359.1" y="186.7" class="st10" width="13.1" height="13.6"/>
							
								<rect x="372.2" y="186.7" transform="matrix(-1 -1.224647e-16 1.224647e-16 -1 759.6752 386.9675)" class="st12" width="15.3" height="13.6"/>
							<rect x="342.5" y="189.3" class="st14" width="2.2" height="7.5"/>
							<rect x="359.1" y="189.3" class="st14" width="7.4" height="11.1"/>
							<rect x="342.5" y="189.3" class="st31" width="2.2" height="1.5"/>
							<rect x="354.5" y="189.3" class="st31" width="2.2" height="1.5"/>
							<rect x="359.1" y="189.3" class="st31" width="7.4" height="1.5"/>
						</g>
						<path class="st32" d="M273.8,212.6c-0.3-2.9-2.7-5.8-6.8-5.8c-4.1,0-8.7,2.9-11.3,5.8H273.8z"/>
						<path class="st21" d="M348,212.6c0-0.3-3.6-6-10-3.7c-5.4,2-4.4-2.4-8-4c-3.2-1.5-9.8,3.2-14,7.7H348z"/>
						<path class="st21" d="M250.2,212.6c0-0.6-1.2-3.7-5.2-4.4c-3.8-0.7-7.3,1.8-10.9-0.1c-4.3-2.2-9-6.7-20.7-2.3
							c-10,3.8-8.1-4.4-14.8-7.4c-6-2.7-18.2,6-26.1,14.2H250.2z"/>
						<g>
							<path class="st39" d="M63.2,106.5v2.8c0,0.3-0.3,0.6-0.6,0.6h-3.9c-0.3,0-0.6-0.3-0.6-0.6v-2.8H63.2L63.2,106.5z"/>
							<path class="st39" d="M58.1,104.9h5.1c0.2,0,0.3,0.2,0.3,0.3v0.9c0,0.2-0.2,0.3-0.3,0.3h-5.1c-0.2,0-0.3-0.2-0.3-0.3v-0.9
								C57.8,105.1,57.9,104.9,58.1,104.9L58.1,104.9z"/>
							<path class="st40" d="M63.2,104.9h-1.9c0.2,0,0.3,0.2,0.3,0.3v0.9c0,0.2-0.2,0.3-0.3,0.3h1.9c0.2,0,0.3-0.2,0.3-0.3v-0.9
								C63.6,105.1,63.4,104.9,63.2,104.9L63.2,104.9z"/>
							<path class="st40" d="M62.6,109.9c0.3,0,0.6-0.3,0.6-0.6v-2.8h-5.1v0.7h3.6v2c0,0.3-0.3,0.6-0.6,0.6H62.6z"/>
							<path class="st39" d="M57,101.1h7.3v1.2c0,0.2-0.2,0.3-0.3,0.3h-6.6c-0.2,0-0.3-0.2-0.3-0.3V101.1L57,101.1z"/>
							<path class="st40" d="M64.3,101.1h-2.8v1.2c0,0.2-0.2,0.3-0.3,0.3H64c0.2,0,0.3-0.2,0.3-0.3V101.1L64.3,101.1z"/>
							<path class="st41" d="M61.1,79.8c-0.1,0-0.3,0-0.4,0c-0.1,0-0.3,0-0.4,0C54.5,80,50,84.7,50,90.4c0,4.6,3.9,8.7,7,10.7h3.6
								h3.6c3.1-1.9,7-6.1,7-10.7C71.3,84.7,66.8,80,61.1,79.8z"/>
							<path class="st42" d="M61.1,79.8c-0.2,0-0.3,0-0.5,0s-0.3,0-0.5,0c-4.9,0.3-8.7,4.9-8.7,10.6c0,4.6,3.4,8.7,6.1,10.7h3.2h3.2
								c2.7-1.9,6.1-6.1,6.1-10.7C69.9,84.7,66,80.1,61.1,79.8z"/>
							<path class="st41" d="M60.7,79.8c-3.5,0-6.4,4.8-6.4,10.7c0,4.6,2.3,8.7,4.2,10.7h2.2h2.2c1.9-1.9,4.2-6.1,4.2-10.7
								C67.1,84.6,64.2,79.8,60.7,79.8z"/>
							<path class="st42" d="M60.7,79.8c-1.4,0-2.6,4.8-2.6,10.7c0,4.6,0.9,8.7,1.7,10.7h0.9h0.9c0.7-1.9,1.7-6.1,1.7-10.7
								C63.2,84.6,62.1,79.8,60.7,79.8z"/>
							<path class="st43" d="M60.8,89.2c-1.3,2.8-4.4,4.1-6.8,2.9c-2.5-1.2-3.4-4.3-2.1-7.1c1.3-2.8,4.4-4.1,6.8-2.9
								C61.2,83.2,62.1,86.4,60.8,89.2z"/>
							<path class="st44" d="M60.8,89.2c-1.3,2.8-4.4,4.1-6.8,2.9c-1.2-0.6-2.1-1.6-2.5-2.9c0.3-3,1.7-5.6,3.6-7.3
								c1.2-0.4,2.4-0.4,3.5,0.1C61.2,83.2,62.1,86.4,60.8,89.2z"/>
							<path class="st44" d="M60.8,89.2c-1.3,2.8-4.4,4.1-6.8,2.9c-1.2-0.6-2.1-1.6-2.5-2.9c0.3-3,1.7-5.6,3.6-7.3
								c1.2-0.4,2.4-0.4,3.5,0.1C61.2,83.2,62.1,86.4,60.8,89.2z"/>
							<path class="st45" d="M60.8,89.2c-1.2,2.6-4,3.9-6.4,3.1c-0.1-0.6-0.1-1.2-0.1-1.8c0-3.7,1.1-6.9,2.8-8.8
								c0.6,0,1.1,0.2,1.6,0.4C61.2,83.2,62.1,86.4,60.8,89.2z"/>
							<path class="st43" d="M60.8,89.2c-1.2,2.6-4,3.9-6.4,3.1c-0.1-0.6-0.1-1.2-0.1-1.8c0-3.7,1.1-6.9,2.8-8.8
								c0.6,0,1.1,0.2,1.6,0.4C61.2,83.2,62.1,86.4,60.8,89.2z"/>
							<path class="st44" d="M60.8,89.2c-0.6,1.3-1.6,2.2-2.7,2.8c0-0.5,0-1,0-1.5c0-3.3,0.4-6.3,0.9-8.2
								C61.2,83.5,62,86.5,60.8,89.2z"/>
							<path class="st44" d="M60.8,89.2c-0.6,1.3-1.6,2.2-2.7,2.8c0-0.5,0-1,0-1.5c0-3.3,0.4-6.3,0.9-8.2
								C61.2,83.5,62,86.5,60.8,89.2z"/>
						</g>
						<g>
							<path class="st46" d="M119.3,289c0,0.5-12,1-26.9,1c-14.9,0-26.9,0.3-26.9-1c0-0.4,5.1-0.4,12.8-0.6
								c4.1-0.1,11.1-1.1,16.3-1.1C109.4,287.3,119.3,288.5,119.3,289z"/>
							<g>
								
									<linearGradient id="SVGID_00000031178995969915354160000001192219910158494625_" gradientUnits="userSpaceOnUse" x1="96.968" y1="253.2516" x2="96.968" y2="230.978">
									<stop  offset="0" style="stop-color:#F2A178"/>
									<stop  offset="0.996" style="stop-color:#FFD0A4"/>
								</linearGradient>
								<path style="fill:url(#SVGID_00000031178995969915354160000001192219910158494625_);" d="M107,251.5
									c-0.1-1.1-0.8-1.7-1.7-1.8c-1.4-0.2-2.3-0.3-3.3-1.2c-1.9-1.6-2.8-4-4.5-5.8c-0.4-0.4-0.9-0.6-1.3-0.9
									c-0.4-0.4-0.9-1.8-1.2-2.3c-0.3-0.5-1.1-1.7-1.3-2.3c-0.6-2.3-1.3-5.5-4.1-6.1c-2-0.4-2.6,1.3-2.6,3.1
									c0.1,1.9,1.2,3.8,2.4,5.3c1.3,1.8,3.6,3,4.8,4.9c1.4,2.1,6.9,5.9,7.6,6.3c0.3,0.2,0.8,1,1.1,1.1c0,0,2.4-1.2,1.7,0
									c-0.2,0.4-1,0.1-1,0.7c0,0.3,0.9,0.8,1.2,0.9C105.3,253.3,107.1,252.3,107,251.5z"/>
								<path class="st48" d="M93.8,236.5c-0.7-1.8-1.4-3.9-2.9-5.2c-1-0.8-2.8-1.3-3.7,0c-0.8,1.2-0.8,3-0.2,4.3
									c0.5,1.2,2.4,3.7,2.6,3.6c0.6-0.4,1.1-1,1.7-1.4c0.7-0.5,1.5-0.7,2.3-1C93.6,236.8,93.9,236.6,93.8,236.5z"/>
								<g>
									<path class="st49" d="M70.2,279.3c-1.4,0-2.5-1.1-2.5-2.5c0-1.4,1.1-2.5,2.5-2.5c1.4,0,2.5,1.1,2.5,2.5
										C72.7,278.2,71.6,279.3,70.2,279.3z"/>
								</g>
								<path class="st50" d="M94.3,259.3c-0.3-0.7-3.4-3.6-4.1-4.5c-0.7-0.9-1.4-1.7-2.2-2.5c-0.6-0.6-1.8-2-2.6-2.1
									c-0.5-0.1-1.4,0.2-1.5,0.7c-0.2,0.7,1,2.4,1.4,3c1.4,1.9,3.5,3,5.1,4.7c0.7,0.8,0.9,1.2,0.5,2.2c-0.5,1-1.3,1.8-1.8,2.8
									c-0.5,1-0.5,2.1-0.5,3.2c-0.1,1.3-0.5,5.7-0.6,6.7c-0.1,0.7-0.7,1.4-0.2,2c0.3,0.4,1,0.3,1.5,0.3c0.4,0,1.9,0,2.2-0.1
									c0.6-0.3,0.2-0.8,0.2-1.4c0-1.4,1.3-5.8,1.6-7.2c0.2-1.3,0.4-2.7,0.9-3.9c0.2-0.5,0.3-0.9,0.4-1.5
									C94.7,260.6,94.6,260.1,94.3,259.3z"/>
								<path class="st51" d="M96.5,278.9c-1.1-0.6-2.2-0.9-3.3-1.5c-0.5-0.3-0.9-0.9-1.1-1.4c-0.1-0.4-0.1-0.8-0.5-1
									c-0.5-0.2-0.3,1.1-1,1.5c-1.3,0.7-1.9-1.2-2.8-1c-0.8,0.2-1.2,2.4-0.9,3c0.6,1,2.5,1.1,3.5,1.2c1.4,0.3,2.7,0.5,4.1,0.7
									c0.5,0.1,1.2,0.2,1.7,0C96.9,280,97.2,279.3,96.5,278.9z"/>
								<path class="st52" d="M97.9,227.1c-0.2-0.4-0.9-0.8-1-1.3c-0.1-0.7,0.2-1-0.1-1.8c-0.5-1.4-1.2-2.1-2.9-2.4
									c-1.4-0.2-3,0-4,1.1c-1.2,1.3-0.6,2.9-0.2,4.4c0.2,0.7,0.4,1.4,0.1,2.2c-0.3,0.7-1,1.2-1,2.1c0,0.8,0.6,1.6,1.4,2
									c0.9,0.4,1.6,0,2.4-0.4c0.8-0.5,1.3-1,2-1.6c0.2-0.2,0.4-0.4,0.6-0.4c0.4-0.1,0.8,0.1,1.2-0.1c0.9-0.3,0.8-1.1,0.8-1.9
									c0-0.3-0.1-0.9,0-1.1C97.3,227.7,98,227.6,97.9,227.1z"/>
								<path class="st53" d="M90.2,221.2c-1.8,1.1-2.5,2.9-1.8,4.9c0.2,0.6,1.8,4.1,2.4,1.9c0.2-0.7-1.2-2.2-0.3-2.7
									c1.3-0.7,1.7,2.7,2.5,0.5c0.4-1.2,0.6-2.3,2.2-2.8c1-0.3,1.8-1,0.9-2.2C94.9,219.4,91.6,220.3,90.2,221.2z"/>
								<g>
									<path class="st54" d="M70.2,289.3c-6.9,0-12.4-5.6-12.4-12.4c0-6.9,5.6-12.4,12.4-12.4c6.9,0,12.4,5.6,12.4,12.4
										C82.7,283.7,77.1,289.3,70.2,289.3z M70.2,266.1c-5.9,0-10.8,4.8-10.8,10.8c0,5.9,4.8,10.8,10.8,10.8
										c5.9,0,10.8-4.8,10.8-10.8C81,270.9,76.2,266.1,70.2,266.1z"/>
								</g>
								<g>
									<path class="st54" d="M109.7,289.3c-6.9,0-12.4-5.6-12.4-12.4c0-6.9,5.6-12.4,12.4-12.4c6.9,0,12.4,5.6,12.4,12.4
										C122.1,283.7,116.5,289.3,109.7,289.3z M109.7,266.1c-5.9,0-10.8,4.8-10.8,10.8c0,5.9,4.8,10.8,10.8,10.8
										c5.9,0,10.8-4.8,10.8-10.8C120.5,270.9,115.6,266.1,109.7,266.1z"/>
								</g>
								<path class="st49" d="M78.1,254.2c-0.1-1-1.2-1.6-2-1.7c-0.7-0.1-1.9-0.3-2,0.5c-0.1,0.3-0.1,0.8,0.2,1.1
									c0.7,0.8,2.3,0.5,3.2,0.4c0,0,0,0,0,0c0.1,0,0.3,0,0.4,0c0.1,0,0.2-0.1,0.2-0.2C78.1,254.3,78.1,254.3,78.1,254.2z"/>
								<g>
									<path class="st49" d="M86.8,282.8c-2,0-3.7-1.6-3.7-3.7c0-2,1.6-3.7,3.7-3.7s3.7,1.6,3.7,3.7
										C90.5,281.1,88.8,282.8,86.8,282.8z"/>
								</g>
								<path class="st55" d="M110.1,276.7l-2.8-8c-0.6-1.6-1.2-3.3-1.7-4.9c-0.1-0.3-0.4-0.8-0.4-1.1c0-0.3,0.2-0.4,0.2-0.8
									c-0.1-0.8-0.5-1.6-0.7-2.4c-0.3-0.8-0.5-1.6-0.8-2.4c-0.1-0.1-0.1-0.3-0.2-0.5c-0.2-0.4-0.6-0.1-0.8-0.6
									c-0.1-0.2-0.4-0.7-0.3-1c0.1-0.3,0.3-0.3,0.6-0.4c0.8-0.3,1.5-0.6,2.2-0.9c1-0.5,0.5-1.3-0.6-0.9c-0.7,0.2-1.4,0.5-2.1,0.8
									c-0.3,0.1-1,0.2-1.3,0.5c-0.5,0.6,0.3,1.7,0.4,2.3c0,0.5,0,0.2-0.3,0.6c-0.1,0.3,0,0.4-0.2,0.6c-0.2,0.1-0.6,0.2-0.8,0.2
									c-1.4,0.3-2.9,0.6-4.3,0.8c-3.7,0.7-7.5,1.4-11.2,2.2c-0.6,0.1-2,0.7-2.7,0.5c-0.4-0.1-0.4-0.5-0.5-0.8
									c-0.3-0.9-0.5-1.8-0.8-2.7c-0.1-0.5-0.2-1.2-0.6-1.5c-0.7-0.4-0.9,0-0.8,0.6c0.2,0.9,0.5,1.7,0.8,2.5
									c0.2,0.6,0.7,1.5,0.7,2.2c0,0.6-0.7,1.2-1.1,1.6c-1.1,1.3-2.2,2.7-3.3,4c-1.3,1.6-2.5,3.1-3.8,4.7c-0.8,1-1.8,2-2.6,3.1
									c-0.1,0.2-0.8,0.9-1,1.2c-0.2,0.2-0.3,0.4-0.3,0.7c0,0,0,0,0,0c0,0.3,0.2,0.7,0.4,0.9c0,0,0.2,0.2,0.3,0.2
									c0.1,0,0.2-0.1,0.3-0.2c0.1-0.2-0.1-0.4-0.1-0.6c0-0.1,0.1-0.3,0.1-0.3c0.1,0,0.3,0.1,0.4,0.1c0.2,0.1,0.3,0.3,0.4,0.4
									c0.2,0.2,0.4,0.3,0.7,0.3c0,0,8.5,1,12.7,1.5c0.9,0.1,2.5,0.6,3.4,0c1.1-0.9,2.1-2.4,3-3.6l10.1-11.8c0.5-0.6,1-1.1,1.5-1.7
									c0.3-0.3,0.4-0.7,0.8-0.3c0.4,0.5,0.1,0.9,0.6,1.1c0.3,0.1,0.4,0,0.5,0.3c0.3,0.5,0.6,1.2,0.8,1.7c1,2.8,2,5.6,3,8.4
									l1.1,3.2c0,0.1,0,0.5,0.1,0.6C109.4,277.8,110.3,277.2,110.1,276.7z M72,276.8c-0.5-0.1-0.7-0.7-0.8-1
									c-0.1-0.1-0.2-0.3-0.1-0.6c0-0.3,1.2-1.8,1.7-2.3c2.1-2.4,4.2-4.7,6.3-7.1c0.6-0.7,1.3-1.6,2-2.2c0.4-0.4,0.5-0.4,0.7,0.2
									c1,2.4,1.5,5,2.3,7.5c0.7,2.3,1.4,4.7,2.2,7C81.4,277.8,76.5,277.4,72,276.8z M100.9,260.4l-7.1,8.6
									c-1.6,1.9-3.1,3.8-4.7,5.7c-0.3,0.3-1.8,2.7-2.3,2.6c-0.3-0.1-0.4-1.1-0.5-1.3c-0.3-1-0.6-2-0.9-3.1c-0.7-2.5-1.5-5-2.2-7.5
									c-0.2-0.7-0.6-1.5-0.7-2.2c0-0.4-0.1-0.4,0.3-0.6c0.5-0.2,1.4-0.2,1.9-0.3c1.1-0.2,2.2-0.4,3.3-0.6l8.6-1.6
									c1-0.2,2-0.4,2.9-0.5C100.1,259.5,101.8,259.3,100.9,260.4z"/>
								<defs>
									<filter id="Adobe_OpacityMaskFilter" filterUnits="userSpaceOnUse" x="74.9" y="248.5" width="17.9" height="24.2">
										<feFlood  style="flood-color:white;flood-opacity:1" result="back"/>
										<feBlend  in="SourceGraphic" in2="back" mode="normal"/>
									</filter>
								</defs>
								
									<mask maskUnits="userSpaceOnUse" x="74.9" y="248.5" width="17.9" height="24.2" id="SVGID_00000147183268813317932470000011240609055588457367_">
									<g class="st56">
										<defs>
											
												<filter id="Adobe_OpacityMaskFilter_00000075880925661459753450000005049578138477362306_" filterUnits="userSpaceOnUse" x="74.9" y="248.5" width="17.9" height="24.2">
												<feFlood  style="flood-color:white;flood-opacity:1" result="back"/>
												<feBlend  in="SourceGraphic" in2="back" mode="normal"/>
											</filter>
										</defs>
										
											<mask maskUnits="userSpaceOnUse" x="74.9" y="248.5" width="17.9" height="24.2" id="SVGID_00000147183268813317932470000011240609055588457367_">
											<g style="filter:url(#Adobe_OpacityMaskFilter_00000075880925661459753450000005049578138477362306_);">
											</g>
										</mask>
										
											<linearGradient id="SVGID_00000130632070141305066600000012874416991608780701_" gradientUnits="userSpaceOnUse" x1="83.8576" y1="258.6328" x2="83.8576" y2="290.7565">
											<stop  offset="7.936510e-03" style="stop-color:#FFFFFF"/>
											<stop  offset="1" style="stop-color:#FFFFFF"/>
											<stop  offset="1" style="stop-color:#000000"/>
										</linearGradient>
										
											<path style="mask:url(#SVGID_00000147183268813317932470000011240609055588457367_);fill:url(#SVGID_00000130632070141305066600000012874416991608780701_);" d="
											M92.6,259.6c-0.2-0.5-0.7-1.2-1.1-1.5c-0.7-0.6-3.3-3-4-3.6c-0.6-0.6-1.7-1.1-2-1.9c-0.3-0.6-0.3-1.8-1.1-2.2
											c-0.6-0.3-1.5-0.2-2.2-0.3c-2-0.1-3.6-0.3-5.4-1.1c-0.4-0.2-1.1-0.8-1.6-0.5c-0.4,0.3-0.4,1.9-0.4,2.3
											c0.1,1.8,1.5,3,2.8,4c2.7,2.2,5.8,4.9,9.2,6c-0.5,1.1-2.4,1.8-3.2,2.7c-1.1,1.3-2,2.7-3,4c-0.6,0.7-2.6,2.1-2.7,3.1
											c0,0.6,1,1.4,1.4,1.6c0.7,0.4,1.4,0.3,2.2,0.2c0.8-0.2,0.5-0.2,1-0.9c0.5-0.6,1.1-1,1.7-1.5c1.1-0.9,2.1-2.1,3-3.3
											c1-1.3,2.6-1.9,3.6-3.1c0.5-0.6,1.1-1.2,1.5-1.9C92.9,261.1,92.9,260.5,92.6,259.6z"/>
									</g>
								</mask>
								
									<linearGradient id="SVGID_00000148639037594947891490000013866868675501415861_" gradientUnits="userSpaceOnUse" x1="83.8576" y1="258.6328" x2="83.8576" y2="290.7565">
									<stop  offset="7.936510e-03" style="stop-color:#0064B8"/>
									<stop  offset="1" style="stop-color:#00427A"/>
									<stop  offset="1" style="stop-color:#0071C4"/>
								</linearGradient>
								<path style="fill:url(#SVGID_00000148639037594947891490000013866868675501415861_);" d="M92.6,259.6
									c-0.2-0.5-0.7-1.2-1.1-1.5c-0.7-0.6-3.3-3-4-3.6c-0.6-0.6-1.7-1.1-2-1.9c-0.3-0.6-0.3-1.8-1.1-2.2c-0.6-0.3-1.5-0.2-2.2-0.3
									c-2-0.1-3.6-0.3-5.4-1.1c-0.4-0.2-1.1-0.8-1.6-0.5c-0.4,0.3-0.4,1.9-0.4,2.3c0.1,1.8,1.5,3,2.8,4c2.7,2.2,5.8,4.9,9.2,6
									c-0.5,1.1-2.4,1.8-3.2,2.7c-1.1,1.3-2,2.7-3,4c-0.6,0.7-2.6,2.1-2.7,3.1c0,0.6,1,1.4,1.4,1.6c0.7,0.4,1.4,0.3,2.2,0.2
									c0.8-0.2,0.5-0.2,1-0.9c0.5-0.6,1.1-1,1.7-1.5c1.1-0.9,2.1-2.1,3-3.3c1-1.3,2.6-1.9,3.6-3.1c0.5-0.6,1.1-1.2,1.5-1.9
									C92.9,261.1,92.9,260.5,92.6,259.6z"/>
								<path class="st51" d="M84.8,278.3c0.1-1.3-1.5-1.9-2-3c-0.2-0.5-0.5-1.2-0.5-1.8c0-0.3,0.3-0.9,0.2-1.1
									c-0.6-1.1-1.5,0.1-2,0.3c-0.6,0.3-2,0.2-2.5-0.2c-0.3-0.3-0.4-1.1-0.9-1.2c-0.3,0-0.9,0.8-1,1c-1.1,1.4-0.1,1.9,1.2,2.6
									c1.4,0.8,2.5,1.9,3.9,2.7C81.5,277.8,84.8,279.2,84.8,278.3z"/>
								<path class="st10" d="M92.1,233.7c-0.5-1.5-1.6-3.4-3.4-3.4c-1.6,0-2.8,1.2-3.6,2.6c-1,1.7-1.1,2.7-2.1,4.4
									c-1,1.7-2.8,4-4,5.5c-1.2,1.4-2.3,2.9-2.9,4.6c-0.3,1-0.2,1,0.7,1.5c1,0.5,2,0.9,3,1.2c1.6,0.4,4.4,1,5.6-0.3
									c1-1.1,1.6-2.6,2.3-4c0.9-1.7,3.1-3.3,4-5C92.8,238.4,92.9,236.1,92.1,233.7z"/>
								
									<linearGradient id="SVGID_00000108309258361068705980000015866697417423219332_" gradientUnits="userSpaceOnUse" x1="88.4656" y1="249.9043" x2="88.4656" y2="233.0782">
									<stop  offset="0" style="stop-color:#F6F6F6"/>
									<stop  offset="0.996" style="stop-color:#C6C6C6"/>
								</linearGradient>
								<path style="fill:url(#SVGID_00000108309258361068705980000015866697417423219332_);" d="M92.1,233.7
									c-0.5-1.5-3.7,0.3-5.1,1.4c-2,1.5,1.7,5.3,0.2,6.7c-1.5,1.3-0.1,2.6-1.9,4.9c-1.7,2.2-0.6,3.9,0.1,3.1c1-1.1,1.6-2.6,2.3-4
									c0.9-1.7,3.1-3.3,4-5C92.8,238.4,92.9,236.1,92.1,233.7z"/>
								
									<linearGradient id="SVGID_00000084521769174496769330000015385220858558326930_" gradientUnits="userSpaceOnUse" x1="95.9436" y1="265.1502" x2="95.9436" y2="242.0294">
									<stop  offset="0" style="stop-color:#F2A178"/>
									<stop  offset="0.996" style="stop-color:#FFD5AF"/>
								</linearGradient>
								<path style="fill:url(#SVGID_00000084521769174496769330000015385220858558326930_);" d="M105.5,251.6
									c-0.1-1.1-0.8-1.7-1.6-1.8c-1.4-0.3-2.3-0.4-3.3-1.4c-1.8-1.7-2.6-4.2-4.2-6c-0.4-0.4-0.9-0.6-1.3-1
									c-0.4-0.4-0.9-1.8-1.1-2.3c-0.3-0.5-1.1-1.7-1.2-2.4c-0.5-2.3-0.8-5.8-3.5-6.5c-2-0.5-2.8,1.5-2.8,3.3c0,1.9,1.1,3.4,2.2,5
									c1.3,1.8,3.4,2.9,4.5,5.2c1,2.3,6.6,6.3,7.2,6.7c0.3,0.2,0.7,1.1,1,1.1c0,0,2.5-1.1,1.7,0c-0.3,0.4-1,0-1,0.7
									c0,0.3,0.9,0.9,1.1,0.9C103.8,253.4,105.5,252.4,105.5,251.6z"/>
								<path class="st55" d="M103,251.2c-0.6-1.1-2.2,0.3-1,1.1C102.7,252.8,103.4,251.9,103,251.2z"/>
								<path class="st10" d="M93.2,236.5c-0.5-1.9-1-4-2.4-5.4c-0.9-0.9-2.6-1.6-3.7-0.3c-0.9,1.1-1.1,2.9-0.6,4.3
									c0.4,1.3,2,3.9,2.2,3.8c0.7-0.4,1.2-0.9,1.8-1.3c0.7-0.4,1.6-0.6,2.4-0.7C92.9,236.8,93.2,236.6,93.2,236.5z"/>
								
									<linearGradient id="SVGID_00000116932592832440918990000012228239913980868761_" gradientUnits="userSpaceOnUse" x1="94.9128" y1="231.5686" x2="94.9128" y2="227.5641">
									<stop  offset="0" style="stop-color:#F2A178"/>
									<stop  offset="0.996" style="stop-color:#FFD0A4"/>
								</linearGradient>
								<path style="fill:url(#SVGID_00000116932592832440918990000012228239913980868761_);" d="M97.1,230.2
									c-0.1,0.3-0.3,0.5-0.7,0.7c-0.4,0.1-0.8,0-1.2,0.1c-0.2,0-0.4,0.2-0.6,0.4c-0.1,0.1-0.2,0.2-0.2,0.2
									c-1.1-0.6-1.8-2.4-1.6-2.8c0.2-0.3,0.9,1.6,2.3,1.8C96.1,230.7,96.6,230.7,97.1,230.2z"/>
							</g>
						</g>
						<g>
							<path class="st46" d="M269.6,289.4c0,0.4,8.3,0.6,18.4,0.6c10.2,0,18.4,0.2,18.4-0.6c0-0.2-3.5-0.3-8.8-0.4
								c-2.8-0.1-7.6-0.7-11.1-0.7C276.4,288.3,269.6,289,269.6,289.4z"/>
							<g>
								<g>
									<path class="st55" d="M299.3,289.3c-4.5,0-8.1-3.6-8.1-8.1c0-4.5,3.6-8.1,8.1-8.1s8.1,3.6,8.1,8.1
										C307.4,285.6,303.8,289.3,299.3,289.3z M299.3,274.5c-3.7,0-6.7,3-6.7,6.7c0,3.7,3,6.7,6.7,6.7c3.7,0,6.7-3,6.7-6.7
										C306,277.5,303,274.5,299.3,274.5z"/>
								</g>
								<g>
									<path class="st63" d="M289.6,281.8c-0.3,0-0.4-0.2-0.5-0.5c-0.7-5.8,2.9-11.2,10.4-10.6c0.8,0.1,1.2,0.2,1.3,0.8
										c0,0.2-0.8,0.3-1,0.3c-6,0-9.7,4.4-9.7,9.5C290.1,281.6,289.9,281.8,289.6,281.8z"/>
								</g>
								<path class="st64" d="M285.7,261.6c-1.5-1.1-3.1-2.8-4.9-3.4c-0.3-0.1-1.7-0.4-1.9,0c-0.3,0.4,0.3,1.6,0.5,2
									c0.6,1.5,2.5,2.7,2.8,4.3c0.2,1.4-1.7,2.6-2.6,3.5c-0.6,0.6-1.1,1.3-1.6,1.9c-0.5,0.6-0.5,1,0.2,1.6
									c0.5,0.4,1.7,0.9,2.3,0.5c0.4-0.2,0.6-1,0.9-1.4c1.3-1.4,2.8-2.6,4-4.2C286.6,264.7,287.7,263.2,285.7,261.6z"/>
								<path class="st65" d="M282.8,275c-0.8-1.2-1.1-3.9-2.9-3.3c-0.9,0.3-1.1,0.5-1.8-0.2c-0.7-0.8-0.5-0.8-1.2,0.2
									c-0.6,0.8-1.4,1.6-0.3,2.4c0.9,0.6,2,0.9,3,1.5c0.8,0.4,1.8,1.3,2.7,1.1C283.3,276.5,283.3,275.7,282.8,275z"/>
								<path class="st10" d="M276.5,262.7c0-0.4-0.4-0.9-0.7-1.1c-0.4-0.3-0.9-0.5-1.4-0.5l0,0c0,0,0,0,0,0c-0.6,0-1.7,0.2-1.1,1
									c0.3,0.4,0.6,0.7,1,0.9c0.6,0.1,1.3,0.1,2,0.1c0.1,0,0.2-0.1,0.2-0.2C276.5,262.8,276.5,262.8,276.5,262.7z"/>
								<g>
									<path class="st55" d="M269.9,289.3c-4.5,0-8.1-3.6-8.1-8.1c0-4.5,3.6-8.1,8.1-8.1s8.1,3.6,8.1,8.1
										C278.1,285.6,274.4,289.3,269.9,289.3z M269.9,274.5c-3.7,0-6.7,3-6.7,6.7c0,3.7,3,6.7,6.7,6.7c3.7,0,6.7-3,6.7-6.7
										C276.6,277.5,273.6,274.5,269.9,274.5z"/>
								</g>
								<g>
									<path class="st49" d="M282.5,282.9c-1.6,0-2.9-1.3-2.9-2.9c0-1.6,1.3-2.9,2.9-2.9c1.6,0,2.9,1.3,2.9,2.9
										C285.4,281.6,284.1,282.9,282.5,282.9z"/>
								</g>
								<g>
									<path class="st49" d="M270.1,282.7c-0.8,0-1.5-0.7-1.5-1.5c0-0.8,0.7-1.5,1.5-1.5c0.8,0,1.5,0.7,1.5,1.5
										C271.6,282,270.9,282.7,270.1,282.7z"/>
								</g>
								<path class="st49" d="M298.3,279.7c-1-2.8-3-9.1-3-9.1l-2.2-6.8c0.8-0.3,1.9-0.8,1.9-1.6c-0.1-1.1-1.5-2.5-2.3-2.9
									c-0.5-0.3-1.2,0-1.9,0.2c-0.1,0-0.3,0.1-0.4,0.1c-0.2,0-0.3,0.2-0.2,0.4c0,0.2,0.2,0.3,0.4,0.2c0.1,0,0.3-0.1,0.4-0.1
									c0.6-0.2,1.2-0.3,1.4-0.2c0.7,0.4,1.8,1.6,1.9,2.4c0,0.2-0.6,0.8-2.4,1.3c-0.2,0-0.3,0.2-0.2,0.4c0,0.1,0.2,0.2,0.3,0.2
									c0,0,0.2,0,0.3,0l2.2,6.8c0,0,3.5,10.3,3.5,10.3c0.2,0.7,1,0.1,1.3,0.1c0.7,0,0.8,0.5,1.1,0.2
									C301.1,280.8,298.5,280.5,298.3,279.7z"/>
								<g>
									<path class="st63" d="M260.6,279c0,0-0.1,0-0.1,0c-0.2-0.1-0.4-0.3-0.3-0.6c1.3-4.3,4-7.9,10.1-7.9c4.5,0,9.1,3.3,9.4,7.8
										c0,0.3,0,0.5-0.3,0.6c-0.2,0.1-0.5-0.1-0.6-0.3c-1.2-3.9-4.8-6.6-8.9-6.6c-4.1,0-7.7,2.7-8.9,6.6
										C260.9,278.9,260.8,279,260.6,279z"/>
								</g>
								
									<linearGradient id="SVGID_00000183931119638929846360000011844478543450184888_" gradientUnits="userSpaceOnUse" x1="266.3776" y1="272.6653" x2="302.9929" y2="272.6653">
									<stop  offset="0" style="stop-color:#D45944"/>
									<stop  offset="1" style="stop-color:#EB816F"/>
								</linearGradient>
								<path style="fill:url(#SVGID_00000183931119638929846360000011844478543450184888_);" d="M294.1,265.9
									c-0.1-0.4-1.6,0.2-1.5,0.5c0,0,0.2,0.6,0.3,1.2c0.1,0.3-0.1,0.7-0.3,0.9l-6.3,4.5c-0.1,0.1-0.2,0.1-0.4,0.2l-3.4,1
									c-0.6,0.2-1.2-0.2-1.3-0.8c-0.7-2.3-2.6-9.2-2.6-9.2c0-0.1-0.6-0.1-0.7-0.1c-0.1,0-0.2,0.1-0.1,0.3l1.7,6l-1.3,1.5
									c0,0-1.8-1.6-2.3-2.1c-0.2-0.2-0.8-0.6-1.3-0.6c-2.7,0-11,0.2-11,0.2c-0.3,0-0.4,0.2-0.4,0.4c0,0.2,0.2,0.4,0.3,0.4h10.5
									c0.3,0,0.5,0.1,0.8,0.2l2.8,2.2l-7.6,8.3c-0.1,0.1-0.1,0.4-0.1,0.5c0,0.1,0.1,0.2,0.3,0.2c3-0.3,8.8-1.2,11.8-1.7
									c0.4-0.1,4.3-4.6,4.3-4.6c0.2-0.2,0.4-0.4,0.6-0.5l6.4-4.2c0.2-0.1,0.5-0.1,0.6,0.1c0.1,0.2,0.1,0.3,0.2,0.5
									c0.2,0.5,1.7,0,1.6-0.4C295.3,269.2,294.1,265.9,294.1,265.9z M271.1,280.3l8.5-9.1c0,0,1.1,4.2,1.5,5.8
									c0.1,0.4,0.2,0.8,0.2,1.1c0.1,0.5-0.1,0.9-0.5,0.9l-9.5,1.7C271,280.8,270.9,280.5,271.1,280.3z"/>
								<path class="st51" d="M290.6,279.7c-0.4-0.7-1.3-0.4-2.2-0.4c-0.6,0-1.2,0-1.8-0.1c-0.5-0.1-1.2-0.6-1.6-0.5
									c-0.9,0.2-1.5,1.3-2.4,1.5c-1.3,0.3-1.7-0.6-1.6,1.3c0.1,1-0.2,1.6,1.1,1.8c1.2,0.2,2.4-0.6,3.5-0.8
									c1.3-0.2,2.4-0.4,3.6-1.1C289.4,281.2,290.9,280.4,290.6,279.7z"/>
								<path class="st67" d="M285,266.9c-1.4-2-2.5-4.1-3.8-6.2c-0.3-0.5-0.7-1-1-1.5c-0.1-0.3-0.2-0.7-0.4-0.9
									c-0.5-0.6-2.4-0.8-3.2-0.9c-0.6-0.1-1.1,0-1.7,0.1c-0.4,0-1.7,0-2,0.1c-0.5,0.3-0.5,1.6-0.3,2.1c0.2,1,1,1.6,1.8,2.2
									c0.9,0.7,1.6,1.4,2.4,2.2c0.7,0.7,1.2,1.4,1.8,2.2c0.6,0.8,1.4,1.1,2,1.8c1.4,1.4,0.7,4.6,0.6,6.3c0,0.7,0,1.4,0.1,2.1
									c0,0.4,0.1,0.5-0.1,0.9c-0.2,0.5-0.5,0.7-0.4,1.3c0,0.5,0.2,1.3,0.5,1.5c0.8,0.5,1.9-0.1,2.6-0.5c2.6-1.4,0.6-3.5,0.6-5.7
									c0-1.2,0.2-2.3,0.6-3.4C285.5,269.7,285.6,267.8,285,266.9z"/>
								<path class="st55" d="M290.9,259.4c-0.3-0.2-0.8-0.3-1,0c0,0,0,0.1,0,0.1c-0.1,0.2-0.2,0.5,0,0.7c0.3,0.4,0.7,0.5,1.1,0.2
									C291.1,260.2,291.1,259.6,290.9,259.4z"/>
								<path class="st48" d="M283.9,253.1c-0.2-0.5-0.8-1.8-1.5-1.6c-0.9,0.2-0.3,1.6-0.1,2.1c0.6,1.6,1.1,2.9,2.2,4.3
									c0.4,0.6,2,1.6,2.9,1.2C288.1,258.8,284.8,255.3,283.9,253.1z"/>
								
									<linearGradient id="SVGID_00000066479486417943483190000005438520545841314445_" gradientUnits="userSpaceOnUse" x1="5201.3799" y1="232.9395" x2="5201.3799" y2="243.3145" gradientTransform="matrix(-1 0 0 1 5484.5366 0)">
									<stop  offset="0" style="stop-color:#F2A178"/>
									<stop  offset="0.996" style="stop-color:#FFD5AF"/>
								</linearGradient>
								<path style="fill:url(#SVGID_00000066479486417943483190000005438520545841314445_);" d="M287,240.8c-0.1-0.3-0.4-0.7-0.4-1
									c0-0.3,0.2-0.6,0.3-1c0-0.7-0.2-1.5-0.5-2.1c-0.5-0.9-1.5-1.5-2.5-1.8c-2.9-0.8-5.2,1.4-4.2,4.3c0.2,0.5,0.5,1,0.6,1.6
									c0.1,0.8-0.1,1.4-0.1,2.2c-0.2,1.6,1.1,2.8,2.5,1.6c0.3-0.3,0.7-1.2,1.1-1.3c0.5-0.2,1.2,0.4,1.8,0.1c0.6-0.3,0.5-1,0.7-1.5
									c0.1-0.3,0.1-0.4,0.3-0.6C286.6,241.1,287.1,241.1,287,240.8z"/>
								<path class="st69" d="M286.7,235.8c-1.4-1.7-4.7-2.1-6.6-1c-1.2,0.7-1.5,1.9-1.4,3.2c0.1,0.7,0.3,1.1,0.7,1.7
									c0.3,0.4,0.5,1.1,0.9,1.4c0.2,0.2,1.1,0.2,1.4,0c0.4-0.4,0-1-0.1-1.4c-0.1-0.6,0.3-1.1,0.9-1.1c0.5,0,0.5,0.8,0.8,0.9
									c0.5,0.2,0.7-0.2,0.9-0.6c0.2-0.6,0.2-0.9,0.8-1.2C285.4,237.3,287.5,236.7,286.7,235.8z"/>
								<path class="st10" d="M283.4,245.6c-0.2-1.5-1.9-2.4-3.2-3c-0.8-0.4-0.8,0-1.4,0.7c-0.6,0.7-1.4,1.3-1.9,2.1
									c-1.1,1.5-1.7,3.2-2.3,4.9c-0.6,2-0.8,4.1-1.4,6.1c-0.1,0.3-0.4,0.8-0.3,1.1c0.2,0.3,1.1,0.5,1.4,0.6
									c0.9,0.3,1.8,0.4,2.7,0.3c1-0.1,1.9-0.2,2.9-0.2c0.7,0,0.9,0.1,1.1-0.7c0.6-1.9,1.1-3.8,1.6-5.7
									C283.3,249.8,283.7,247.6,283.4,245.6z"/>
								<path class="st65" d="M287.1,234.7c-0.1,0-0.2,0-0.2,0.1c-0.4,0.6-0.8,1.4-1.7,1.9c-1.5,0.8-3,0.3-4.5,0.6
									c-1.2,0.2-1.2,1.8-2.7,1.5c-0.3-0.1-0.4,0.2-0.1,0.4c0.6,0.5,1.3,0.9,2.1,0.6c0.5-0.2,0.7-0.6,1-0.9
									c0.7-0.7,1.2-0.8,2.6-0.7c0.8,0.1,1.4-0.4,2-0.9c0.4-0.3,0.8-0.7,1.3-0.9c0.5-0.1,1-0.2,1.5-0.3c0.1,0,0.2-0.1,0.2-0.1
									C288.8,235.6,287.5,234.8,287.1,234.7z"/>
								<path class="st70" d="M287,234.5c-1.4-0.9-2.8-1.5-4.5-1.7c-1-0.1-2.4,0.4-3.4,1c-1.4,0.8-1.5,0.9-1.8,2.7
									c-0.2,1.3-0.4,2.7,1.2,2.6c1.2-0.1,1.2-1.3,2.1-1.7c0.6-0.2,1.3-0.1,1.9-0.1c0.7,0,1.3,0.1,1.9-0.1
									C284.8,237.1,287.7,235,287,234.5z"/>
								<path class="st71" d="M292,260.2c-0.3,0.5-0.7,0.6-1.2,0.8c-0.1,0-0.2,0-0.2-0.1c-0.1-0.1-0.1-0.2,0-0.3
									c0.3-0.2,0.5-0.6,0.3-1c-0.1-0.3-0.5-0.3-0.8-0.1c-0.2,0.1-0.2,0.3-0.3,0.4c-0.2,0.3-0.4,0.6-0.8,0.5
									c-0.8-0.2-0.3-1.5,0.2-1.9c0,0,0.1-0.1,0.1-0.1c0.4-0.1,0.8-0.2,1.1-0.3c0.3-0.1,0.5-0.2,0.8-0.2c0.4,0,1,0.5,1.1,0.9
									C292.6,259.2,292.2,259.8,292,260.2z"/>
								
									<linearGradient id="SVGID_00000009587954502997625970000000535926900213484964_" gradientUnits="userSpaceOnUse" x1="-11304.0615" y1="256.4498" x2="-11301.5508" y2="249.5826" gradientTransform="matrix(1 0 0 1 11582.8359 0)">
									<stop  offset="0" style="stop-color:#F6F6F6"/>
									<stop  offset="1" style="stop-color:#C6C6C6"/>
								</linearGradient>
								<path style="fill:url(#SVGID_00000009587954502997625970000000535926900213484964_);" d="M282.8,247.5
									c-0.9-1.3-2.4-1.9-2.9-1.4c-1.4,1.5,1.4,4.6,0.9,5.9c-0.8,2.2,0.5,3-0.5,4.3c-0.5,0.6,0.6,1.9,0.8,1.1
									c0.6-1.9,1.1-3.8,1.6-5.7C283.3,249.8,283.4,248.3,282.8,247.5z"/>
								<path class="st10" d="M289.6,258.2c-0.3-0.3-0.6-0.3-0.9-0.7c-0.2-0.3-1.4-2.5-1.9-3.5c-0.8-1.8-1.7-2.6-2.2-4
									c-0.3-0.9-0.6-1.9-0.8-2.8c-0.1-0.7-0.1-1.4-0.6-2.1c-0.7-1-2.8-1.1-3.4,0.1c-0.7,1.4,0.7,3.3,1.4,4.5
									c1.1,1.6,2,3.2,2.8,4.9c0.8,1.6,2,3.3,3.3,4.6c0.3,0.3,1,1.2,1.4,1.1C289.1,260.1,290,258.4,289.6,258.2z"/>
								
									<linearGradient id="SVGID_00000101099619422733096440000010336523934768646075_" gradientUnits="userSpaceOnUse" x1="5199.2524" y1="243.9608" x2="5204.2593" y2="241.1292" gradientTransform="matrix(-1 0 0 1 5484.5366 0)">
									<stop  offset="0" style="stop-color:#F2A178"/>
									<stop  offset="1" style="stop-color:#FFD5AF"/>
								</linearGradient>
								<path style="fill:url(#SVGID_00000101099619422733096440000010336523934768646075_);" d="M283.1,243.8
									c0.2-0.3,0.4-0.5,0.6-0.5c0.5-0.2,1.2,0.4,1.8,0.1c0.1-0.1,0.2-0.1,0.3-0.2c-0.5,0.3-0.9,0-1.6-0.1c-0.9-0.2-1-1.4-1.3-1.5
									C282.6,241.4,282.6,243.1,283.1,243.8z"/>
								<path class="st74" d="M284.5,238.1c0-0.3-0.8-0.1-0.7,0.1c0.2,1.7,0.4,3.4,0,5.2c-0.1,0.3,0.6,0.3,0.6,0
									C284.7,241.8,284.7,240,284.5,238.1z"/>
							</g>
						</g>
						<g>
							<path class="st75" d="M237.6,288.9c0,0.6-15.7,1-35,1s-35,0.3-35-1c0-0.4,6.7-0.5,16.6-0.6c5.3-0.1,14.4-1.2,21.2-1.2
								C224.8,287.1,237.6,288.3,237.6,288.9z"/>
							<g>
								<g>
									<path class="st74" d="M224.3,289.3c-6.4,0-11.5-5.2-11.5-11.5c0-6.4,5.2-11.5,11.5-11.5c6.4,0,11.5,5.2,11.5,11.5
										C235.8,284.1,230.7,289.3,224.3,289.3z M224.3,267.4c-5.7,0-10.3,4.6-10.3,10.3c0,5.7,4.6,10.3,10.3,10.3
										c5.7,0,10.3-4.6,10.3-10.3C234.6,272.1,230,267.4,224.3,267.4z"/>
								</g>
								<g>
									<path class="st74" d="M181.5,289.3c-6.4,0-11.5-5.2-11.5-11.5c0-6.4,5.2-11.5,11.5-11.5c6.4,0,11.5,5.2,11.5,11.5
										C193,284.1,187.9,289.3,181.5,289.3z M181.5,267.4c-5.7,0-10.3,4.6-10.3,10.3c0,5.7,4.6,10.3,10.3,10.3
										c5.7,0,10.3-4.6,10.3-10.3C191.8,272.1,187.2,267.4,181.5,267.4z"/>
								</g>
								
									<linearGradient id="SVGID_00000111191364457640421940000000129406573762901393_" gradientUnits="userSpaceOnUse" x1="200.4113" y1="275.2973" x2="200.4113" y2="250.8163">
									<stop  offset="0" style="stop-color:#F2A178"/>
									<stop  offset="0.996" style="stop-color:#FFD0A4"/>
								</linearGradient>
								<path style="fill:url(#SVGID_00000111191364457640421940000000129406573762901393_);" d="M209.9,272.8
									c-0.6-0.5-1.4-0.5-2.2-0.5c-1.2,0-2.2-0.2-3.2-1c-0.5-0.4-0.6-0.5-0.5-1.1c0.1-0.5,0.2-1.1,0.4-1.6c0.4-1.1,0.9-2.1,1.4-3.1
									c0.5-1,0.5-1.9,0.8-2.9c0.3-1,0.6-2,1.1-2.8c0.6-1.2,1.5-3,0.6-4.3c-0.7-1-2.2-1.5-3.4-1.8c-1.9-0.5-3.7-1.1-5.6-1.6
									c-1.2-0.3-2.4-0.6-3.6-0.9c-1-0.2-2.2-0.6-3.1-0.3c-1.8,0.5-2.4,2.7-1.7,4.3c2.3,5.3,8.9,2.6,13.1,2.8
									c-0.6,1.1-1.3,2.1-1.7,3.3c-0.4,1.3-0.4,2.7-0.5,4.1c-0.1,1.4-0.2,2.9-0.4,4.3c-0.2,1.3-1.2,2.4-1.4,3.7
									c-0.2,1,0.4,1.9,1.4,1.9c0.7,0,2.1-1.2,2.6-1.3c1.2-0.4,2.5-0.1,3.8-0.4c0.7-0.2,0.9,0,1.6,0
									C209.9,273.6,210.5,273.2,209.9,272.8z"/>
								<path class="st50" d="M206.8,271.6c-0.6-0.2-1.4-1-2.1-1c-0.5,0-0.6,0.4-0.9,0.8c-0.9,1.2-2.2,1-3.5,1.2
									c-0.5,0-0.6,0.1-0.6,0.6c0,0.3,0,0.7,0.1,1.1c0.2,1.2,1,1.2,2,0.9c1.2-0.4,2.1-1.1,3.4-1.3c1.3-0.1,2.7,0.2,4,0
									c0.8-0.1,1.6-0.9,0.6-1.4C208.9,272.1,207.7,272,206.8,271.6z"/>
								<path class="st74" d="M214.5,250.8c-0.1-0.2-0.3-0.5-0.6-0.5c0,0-0.1,0-0.1,0c-0.3,0-0.5,0.2-0.5,0.5c0,0.1,0.1,0.2,0.2,0.4
									c0.1,0.1,0.1,0.3,0.1,0.4l-0.1,3.4c0,0,0,0.1,0,0.1c0,0.2-0.3,0.3-0.4,0.4c-0.1,0-0.2,0.1-0.3,0.1l-0.3-0.6l-0.7,0.4
									l1.9,4.2l0.7-0.4l-1.3-2.9c0.3-0.1,0.5-0.2,0.8-0.4c0.2-0.2,0.4-0.4,0.4-0.7c0-0.1,0-0.1,0.1-0.2c0,0,0-0.1,0-0.1l0.1-3.3
									C214.5,251.4,214.6,251.1,214.5,250.8z"/>
								<g>
									<path class="st54" d="M199,281.9c-2,0-3.6-1.6-3.6-3.6c0-2,1.6-3.6,3.6-3.6c2,0,3.6,1.6,3.6,3.6
										C202.6,280.3,201,281.9,199,281.9z M199,275.3c-1.7,0-3,1.3-3,3c0,1.7,1.3,3,3,3s3-1.3,3-3
										C202,276.6,200.7,275.3,199,275.3z"/>
								</g>
								<g>
									<path class="st77" d="M211.3,280.8c-0.2-0.7-0.5-2.7-0.5-3.8c0-7.4,4.4-13.8,13.6-12.7c0.2,0,1.4,0.7,0,0.6
										c-7.1-0.2-12.8,5.7-12.8,12.8c0,1,0.1,2.1,0.3,3C211.9,280.9,211.4,281.3,211.3,280.8z"/>
								</g>
								<g>
									<path class="st77" d="M194.9,277.7h-0.6c0-7.1-5.7-12.8-12.8-12.8c-3.1,0-6.2,1.2-8.4,3.2c-0.4,0.3-0.8,0.1-0.4-0.5
										c1.3-1.7,4.8-3.6,8.8-3.6C190.2,264.1,194.9,270.4,194.9,277.7z"/>
								</g>
								<g>
									<path class="st54" d="M181.5,279.4c-0.9,0-1.7-0.8-1.7-1.7c0-0.9,0.8-1.7,1.7-1.7s1.7,0.8,1.7,1.7
										C183.2,278.7,182.5,279.4,181.5,279.4z"/>
								</g>
								<path class="st78" d="M225.2,277.6c-0.2-1.3-1.5-1.1-3-2.6c-0.4-0.4-0.9-0.9-1.2-1.4c-0.5-0.8-0.8-1.8-1.2-2.7
									c-1.5-3.4-2.8-6.6-4.3-10c-0.2-0.4-0.6-1.3-0.8-1.8c-0.2-0.3-0.5-0.1-0.9,0.1c-0.2,0.1-0.3,0.3-0.2,0.6
									c0.4,0.8,0.9,1.9,0.9,2.2c0.1,0.4-0.9,1-1.3,1.3c-0.7,0.6-8.7,7.2-12,9.9c-0.9,0.7-1.7,1.4-2.6,2.1l-1.9-6.6
									c-0.8,0.3-1.1,0.1-0.9,0.9c0.3,1,0.6,2,0.9,2.9c0.5,1.7,1,3.3,1.4,4.7c0.1,0.4-1.4,0.3-1.8,0.3c-1.5,0-2.9-0.1-4.4-0.1
									c-1.6,0-3.2-0.1-4.8-0.1c-1.4,0-2.8,0.1-4.1-0.3l9.1-10.2l-0.6-0.5c-2.7,3.1-5.4,6.2-8.1,9.4c-0.2,0.3-0.7,1.1-1,1.2
									c-0.7,0.2-0.7-0.8-0.8-1.1c-0.5-2.4-0.9-4.7-1.4-7.1l-0.9-4.9c-0.1-0.5,0.2-0.7,0.7-0.7c0,0,10.6,0.4,10.6,0.4
									c0.4,0,0.4-0.8-0.3-0.8c-0.4,0-4.9-0.2-7.4-0.2c-1.6-0.1-5-0.2-6.7-0.3c-0.4,0-0.7,0.7-0.1,0.7c1.1,0.1,1.8,0,2.2,0.4
									c0.3,0.2,0.4,1.1,0.4,1.4c0.5,2.6,1,5.1,1.6,7.7c0.2,1.1,0.4,2.2,0.7,3.3c0.1,0.3,0.2,0.6,0.2,0.8c0,0.4-0.4,0.8-0.3,1.2
									c0.1,1,1.2,0.5,1.8,0.5c0.8-0.1,1.8,0.1,2.6,0.1c2.7,0.1,5.4,0.2,8.2,0.3c1.1,0,2.2,0.1,3.3,0.1c0.4,0,1.1,0,1.5,0.2
									c0.2,0.1,0.3,0.4,0.7,0.5c0.5,0.1,1-0.1,1.3-0.5c0.2-0.3,0.2-0.8,0-1.1c-0.2-0.5-0.7-0.4-0.9-0.7c-0.3-0.5,0.1-0.6,0.4-0.9
									c1.6-1.3,3.3-2.6,4.9-3.9c0,0,7.7-6,10.3-8c0.4-0.3,0.9-0.2,1.1,0.3c0.9,2,3.7,8.1,3.7,8.1c0.7,1.4,0.9,1.7,2.8,3.4
									c0.3,0.3,1.4,1.3,1.5,1.5c0.2,0.3-0.1,0.6,0.4,0.7C224.5,278.2,225.3,278,225.2,277.6z"/>
								
									<linearGradient id="SVGID_00000054234394885010346650000009720700038147393949_" gradientUnits="userSpaceOnUse" x1="195.7198" y1="251.2019" x2="205.325" y2="258.4234">
									<stop  offset="0" style="stop-color:#EB816F"/>
									<stop  offset="1" style="stop-color:#D45944"/>
								</linearGradient>
								<path style="fill:url(#SVGID_00000054234394885010346650000009720700038147393949_);" d="M207.5,254.4
									c-1.7-0.9-3.4-1.4-5.3-1.8c-1.9-0.4-7.3-2.1-8.4-2c-0.7,0.1-0.3,0.5-0.2,1.2c0.6,2.3,8.1,6.9,8.9,7.8c1.3,1.5,1.2,3.8,2,3.7
									c1.4-0.1,2.3-2.7,2.6-3.7C207.3,259,208.8,255.1,207.5,254.4z"/>
								
									<linearGradient id="SVGID_00000160154209331599637540000001837705871714643594_" gradientUnits="userSpaceOnUse" x1="185.1458" y1="266.4936" x2="200.2684" y2="266.4936">
									<stop  offset="0" style="stop-color:#F2A178"/>
									<stop  offset="0.996" style="stop-color:#FFD5AF"/>
								</linearGradient>
								<path style="fill:url(#SVGID_00000160154209331599637540000001837705871714643594_);" d="M206.2,262.1c-0.1-0.4-1-1-1.4-1.3
									c-0.6-0.6-1.3-1.2-2-1.8c-1.3-1.2-2.8-2.2-4.2-3.2c-1.4-1-2.6-2.1-3.8-3.3c-1.1-1.1-2-1.8-3.6-1.7c-0.7,0-1.5,0.2-2.2,0.2
									c-0.9,0-1.7-0.4-2.6-0.4c-0.8,0-0.9,0.1-1.1,0.8c-0.2,0.7-0.2,1.4-0.1,2.2c0.5,3.1,3.8,4.1,6.4,4.8c2,0.5,3.5,1.3,5.1,2.6
									c1.4,1.2,3,2.3,4.8,2.8c-1.6,1-3,2.2-4.2,3.6c-1.2,1.6-2,3.5-3.2,5.1c-1.1,1.4-2.9,1.9-4,3.2c-1.4,1.6,1,2.9,2.1,3.5
									c0.7,0.4,1.5,0.8,2,1.4c0.5,0.6,0.8,1.5,1.5,1.9c0.6,0.3,1.1,0.1,1-0.6c-0.1-0.3-0.3-0.5-0.5-0.8c-0.2-0.4-0.3-0.9-0.5-1.3
									c-0.5-1.5-1.9-2.9-0.8-4.5c0.9-1.4,2.7-2.4,4-3.4c1.7-1.4,3.6-2.5,5.2-4c0.8-0.8,1.7-1.7,2.3-2.6
									C207.1,264,206.5,263.2,206.2,262.1z"/>
								<path class="st13" d="M206.5,262.1c-0.4-0.7-3.8-3.8-5.9-5.2c-2.5-1.7-6.1-4.3-6.7-5.8c-0.2-0.6,0-0.6-0.5-0.6
									c-0.4,0-1.1,0.3-1.6,0.4c-1.3,0.2-2.7,0.1-4-0.1c-0.6-0.1-1.2-0.2-1.8-0.3c-0.7-0.2-0.7-0.2-0.9,0.4c-0.4,1-0.5,2.3-0.3,3.3
									c0.4,2.5,2.7,3.9,3.8,6c1.2,2.2,1.7,4.7,2.2,7.1c0.2,1.1,0.3,3.7,2.2,3.7c0.8,0,1.4,0,2.2-0.1c2.6-0.4,5.4-1.4,7.6-2.9
									c1.1-0.8,2.2-1.7,3.1-2.7C206.1,265,207.2,263.4,206.5,262.1z"/>
								<path class="st52" d="M201,223.3c-0.7-1.6-3.1-2.3-4.2-2.3c-1.5-0.1-3,1.2-3.5,2.7c-0.6,1.6,0.5,2.9,0.8,4.4
									c0.1,0.8-0.1,1.5-0.4,2.3c-0.3,0.6-0.7,1.4-0.3,2.1c0.4,0.6,1.2,0.5,1.8,0.4c0.7-0.2,1-0.7,1.4-1.4c0.3-0.5,0.5-1.1,1.1-1.2
									c0.6,0,1.1,0.6,1.7,0c0.3-0.4,0.5-1.5,0.9-1.9c0.3-0.3,0.6,0,0.8-0.3c0.1-0.2-0.1-0.5-0.1-0.7c-0.2-0.9,0.2-0.9,0.5-1.6
									C201.6,224.9,201.3,224.1,201,223.3z"/>
								<path class="st10" d="M198.6,235.7c-0.2-1.8-1.5-3.4-3.1-4.2c-1.8-0.9-3.7,0-4.9,1.6c-1,1.5-1.2,3.3-1.8,5
									c-0.7,2.1-1.9,4-2.4,6.1c-0.2,0.8-0.1,1.7-0.4,2.6c-0.3,0.9-0.9,1.7-1,2.7c-0.2,1.8,2.3,1.8,3.5,1.8c1.1,0,2.2-0.2,3.3-0.3
									c0.9,0,1.8,0.1,2.3-0.8c0.4-0.7,0.1-1.5,0.1-2.3c0-0.9,0.1-1.9,0.2-2.9c0.1-0.8,0.3-1.7,0.7-2.4c0.5-0.8,1.3-1,2-1.6
									c0.7-0.5,0.9-1.2,1-2.1C198.5,237.9,198.7,236.8,198.6,235.7z"/>
								<path class="st53" d="M197.5,220c-1.2-0.5-2.6-0.3-3.7,0.5c-1.5,1.2-0.9,3.3-2.1,4.7c-0.6,0.7-2.4,0.7-3.3,1.1
									c-1.2,0.5-1.8,1.3-2.1,2.5c-0.2,0.9-0.3,1.9-0.9,2.7c-0.8,1-1.6,1.1-2.8,1.4c-3.7,1.2-0.2,11.8,5.2,7.3
									c1.4-1.2,1.9-3.4,2.5-5.1c0.4-1.1,0.7-2.3,1.3-3.4c0.6-1,2.8-2.3,3.5-3.3c0.7-1,0.6-1.7,0.5-2.3c-0.1-0.8,0.7-1.3,1.2-0.8
									c0.2,0.2,0.4,0.4,0.9,0.4c0.4-0.1,1.5-1.5,3.1-1c0.9,0.3,1.1-0.6,0.8-1.6c-0.3-0.9-0.8-1.7-2.2-2.3
									C198.7,220.5,198.1,220.3,197.5,220z"/>
								
									<linearGradient id="SVGID_00000096771122001227059650000004684906647397727934_" gradientUnits="userSpaceOnUse" x1="197.9052" y1="231.3036" x2="197.9052" y2="226.7967">
									<stop  offset="0" style="stop-color:#F2A178"/>
									<stop  offset="0.996" style="stop-color:#FFD0A4"/>
								</linearGradient>
								<path style="fill:url(#SVGID_00000096771122001227059650000004684906647397727934_);" d="M199.4,230c0,0.1-0.1,0.2-0.2,0.3
									c-0.5,0.6-1,0-1.7,0c-0.4,0-0.6,0.3-0.8,0.6c-0.5-0.5-0.5-1.6-0.3-1.6c0.3-0.2,0.8,0.7,1.7,1.1
									C198.8,230.5,199.2,230.3,199.4,230z"/>
								
									<linearGradient id="SVGID_00000021109415318472787510000004376832952248045220_" gradientUnits="userSpaceOnUse" x1="192.0101" y1="248.0967" x2="196.1116" y2="236.5283">
									<stop  offset="0" style="stop-color:#F6F6F6"/>
									<stop  offset="1" style="stop-color:#C6C6C6"/>
								</linearGradient>
								<path style="fill:url(#SVGID_00000021109415318472787510000004376832952248045220_);" d="M193.8,234.4
									c-1.8,1.8,2.9,4.7,0.1,7.1c-1.3,1.2-0.2,3.2-0.3,5c-0.2,2.1,0.6,2.2,0.6,1.5c0-0.9,0.1-1.9,0.2-2.9c0.1-0.8,0.3-1.7,0.7-2.4
									c0.5-0.8,1.3-1,2-1.6c0.7-0.5,0.9-1.2,1-2.1C198.5,237.9,195.1,233.1,193.8,234.4z"/>
								
									<linearGradient id="SVGID_00000118355774621244066580000001825048487378652345_" gradientUnits="userSpaceOnUse" x1="206.1309" y1="252.1181" x2="206.1309" y2="229.4511">
									<stop  offset="0" style="stop-color:#F2A178"/>
									<stop  offset="0.996" style="stop-color:#FFD0A4"/>
								</linearGradient>
								<path style="fill:url(#SVGID_00000118355774621244066580000001825048487378652345_);" d="M213.2,248.3
									c-0.3-0.4-0.7-0.7-1.1-1c-0.3-0.2-0.7-0.3-0.9-0.6c-0.1-0.2-0.3-0.4-0.4-0.6c-0.3-0.3-0.5-0.3-0.9-0.5
									c-1.5-1-2.3-1.8-3.8-3.3c-0.7-0.7-1.1-1.3-2-1.7c-0.9-0.4-2.4-1.2-3.4-2.3c-0.6-0.6-1.4-1.8-1.6-1.8c-0.9-0.1,0.3,2,0.5,2.3
									c1,1.5,2.5,2.5,3.9,3.5c1.5,0.9,2.3,2.6,3.8,3.4c0.7,0.4,1.6,0.8,2.2,1.4c0.7,0.7,0.7,1.6,1.3,2.3
									C211.8,250.6,214.3,249.7,213.2,248.3z"/>
								
									<linearGradient id="SVGID_00000124867570338600118510000006829460665761154182_" gradientUnits="userSpaceOnUse" x1="203.7173" y1="261.3592" x2="203.7173" y2="239.8004">
									<stop  offset="0" style="stop-color:#F2A178"/>
									<stop  offset="0.996" style="stop-color:#FFD5AF"/>
								</linearGradient>
								<path style="fill:url(#SVGID_00000124867570338600118510000006829460665761154182_);" d="M214,250.2c-0.9-0.8-2-0.5-3-0.8
									c-1-0.3-1.8-1.6-2.5-2.4c-0.8-0.9-1.5-1.9-2.2-2.9c-0.6-0.9-1.2-1.9-2.2-2.5c-0.8-0.5-1.7-0.7-2.4-1.5c-1-1-1.7-1.8-2.4-3
									c-0.8-1.6-1.7-4.2-3.4-5.2c-1.8-1.1-3,0.1-2.8,2c0.3,2.4,2.6,4.5,4.3,6c1.7,1.5,3.3,3.2,4.9,4.9c0.7,0.8,1.8,1.3,2.7,1.9
									c1.2,0.7,2.3,1.6,3.3,2.5c0.6,0.5,1.2,1.1,1.8,1.7c0.1,0.1,0.4,0.5,0.5,0.5c0.4,0.1,0.6-0.6,1.1-0.4
									c0.9,0.4-0.2,0.6-0.3,0.9c-0.4,0.6,1.1,1.4,1.7,1.2C213.8,252.7,214.4,250.5,214,250.2z"/>
								<path class="st55" d="M212.5,250.9c-0.1-0.3-0.5-0.4-0.8-0.3c-0.3,0.1-0.7,0.2-0.8,0.2c-0.4,0.1-0.6,0.7-0.4,1
									c0.2,0.3,0.6,0.5,1,0.3c0,0,0.4-0.2,0.8-0.4C212.6,251.6,212.7,251.3,212.5,250.9z"/>
								<path class="st50" d="M196.9,281c-0.6-1.1-0.6-2.6-1.5-3.6c-0.3-0.4-0.4-0.3-0.6-0.1c-0.4,0.4-0.8,0.6-1.4,0.4
									c-1.2-0.3-1.8-1.9-2.4-2.8c-0.4-0.5-0.5-0.4-1,0c-0.4,0.4-1.2,0.5-1,1c0.6,1.9,3.6,3.3,4.9,4.3c0.8,0.6,1.2,1.6,1.9,2.3
									C197.3,283.9,197.5,282.5,196.9,281z"/>
							</g>
						</g>
						<g>
							<path class="st46" d="M126.7,289.4c0,0.3,7.8,0.6,17.5,0.6s17.5,0.2,17.5-0.6c0-0.2-3.3-0.3-8.3-0.4
								c-2.7-0.1-7.2-0.7-10.6-0.7C133.2,288.3,126.7,289,126.7,289.4z"/>
							<g>
								<path class="st55" d="M152.2,261.7c-0.2-0.2-0.3-0.4-0.4-0.6c0-0.5-0.1-1-0.5-1.2c-0.4-0.3-0.9-0.3-1.2,0.1
									c-0.3,0.2-0.4,0.5-0.3,0.8c0.1,0.5,0.2,1,0.4,1.5c-0.4,0.2-0.7,0.4-1.1,0.6c-0.1,0.1-0.1,0.2,0,0.3c0.1,0.3,0.2,0.6,0.3,0.9
									c0.1,0.3,0.2,0.6,0.3,0.9c0,0.1,0.2,0.1,0.2,0.1c0.1,0,0.1,0,0.2-0.1c0.7-0.9,1.4-1.9,2-2.9c0,0,0,0,0,0c0,0,0,0,0,0l0,0
									c0,0,0.1-0.1,0.1-0.1C152.3,261.9,152.3,261.8,152.2,261.7z"/>
								<path class="st85" d="M138.7,276.6c-0.3,0-0.6,0-0.9,0.1l0,0l-12.2,1.8l0,0c-1.1,0.2-1.9,1.1-1.9,2.3c0,1.3,1,2.3,2.3,2.3v0
									l12.3,0.7c0.1,0,0.2,0,0.3,0l0,0l0,0c0,0,0,0,0,0c2,0,3.6-1.6,3.6-3.6C142.3,278.2,140.7,276.6,138.7,276.6z"/>
								<path class="st64" d="M142.9,268.2c-1.6-1.3-3.3-2.5-5-3.5c-1.2-0.7-2.9-1.2-3.9,0.1c-1,1.4,0.2,2.6,1.3,3.3
									c1.7,1.1,3.7,2,5.6,3c-0.9,0.5-1.8,1.1-2.6,1.7c-0.9,0.5-2.3,1.2-2.9,2c-0.4,0.6,0,1.5,0.6,1.9c0.8,0.6,1.8-0.5,2.5-1
									c1-0.6,2-1.2,3-1.7c0.9-0.5,1.9-0.9,2.6-1.6c0.7-0.7,0.8-1.1,0.5-2C144.2,269.5,143.6,268.8,142.9,268.2z"/>
								
									<linearGradient id="SVGID_00000060748613771989545660000016389582044293686167_" gradientUnits="userSpaceOnUse" x1="141.9018" y1="258.7706" x2="152.1165" y2="258.7706">
									<stop  offset="0" style="stop-color:#F2A57E"/>
									<stop  offset="1" style="stop-color:#FFD2A8"/>
								</linearGradient>
								<path style="fill:url(#SVGID_00000060748613771989545660000016389582044293686167_);" d="M149.1,261.1
									c-0.2-0.1-1.5-0.7-0.9-1c0.2-0.1,0.6,0.4,0.8,0.3c0.5-0.1-0.2-0.6-0.4-0.7c-0.9-0.6-2-1.2-2.9-1.8c-0.8-0.5-1.5-1.6-2.4-1.8
									c-0.7-0.1-1.6,0.6-1.2,1.4c0.3,0.7,1.6,1.4,2.2,1.9c0.8,0.6,2,1.3,2.9,1.6c0.5,0.2,0.5,0.1,1,0.3c0.1,0,0.9,0.2,0.9,0.2
									C149.2,261.4,149.3,261.2,149.1,261.1z"/>
								
									<linearGradient id="SVGID_00000028304777147963426300000005251208942977830029_" gradientUnits="userSpaceOnUse" x1="141.0911" y1="236.0261" x2="141.6169" y2="245.9117">
									<stop  offset="0" style="stop-color:#F2A178"/>
									<stop  offset="0.996" style="stop-color:#FFD5AF"/>
								</linearGradient>
								<path style="fill:url(#SVGID_00000028304777147963426300000005251208942977830029_);" d="M144.6,241.5
									c-1.2-1.3-3.1-2.2-4.8-1.3c-1.7,0.9-1.8,2.4-1.4,4.1c0.3,1.3-0.3,2-0.4,3.2c-0.1,0.9,0.4,1.8,1.4,1.7
									c0.8-0.1,1.4-0.9,1.9-1.5c0.8,0.7,1.4,0.7,2-0.2c0.2-0.2,0.3-0.7,0.5-0.9c0.3-0.3,0.5,0,0.6-0.4c0.2-0.4-0.3-0.9-0.1-1.2
									c0.2-0.3,0.5-0.3,0.7-0.8C145.3,243.3,145.2,242.2,144.6,241.5z"/>
								<path class="st53" d="M139.3,239c-2,1-2.8,4-1,5.8c0.5,0.5,2.1,1.4,1.8,0c-0.1-0.4-0.4-1-0.2-1.4c0.2-0.5,0.9-0.6,1.3-0.3
									c0.5,0.4,0.2,0.8,0.7,0.6c0.5-0.1,1.3-0.7,1.8-0.9c0.8-0.3,2-0.5,1.6-1.5C144.5,239.2,141.2,238,139.3,239z"/>
								<path class="st10" d="M141.2,249c-1-0.8-1.2-2.1-2.7-2.5c-0.5-0.1-0.6,0.1-0.8,0.4c-0.6,0.7-0.2,1,0.4,1.3
									c0.9,0.4,2.2,0.8,2.9,1.6c0.2,0.2,0.4,0.9,0.6,0.7C142,250.2,142,249.6,141.2,249z"/>
								<path class="st10" d="M142.2,252c0-1.3-1-2.5-2-3.2c-0.5-0.4-1.1-0.7-1.7-0.9c-0.8-0.3-1.1-0.6-1.7,0
									c-1.2,1.1-1.7,2.6-2.2,4.1c-0.6,1.7-1.4,3.5-1.9,5.3c-0.5,1.7-0.7,3.5-1,5.3c-0.1,0.5-0.5,1.9-0.3,2.4
									c0.2,0.5,1.2,0.5,1.8,0.5c1.5,0,3.3-0.3,4.7-0.9c0.6-0.2,1.2-0.6,1.8-0.9c0.4-0.2,1.6-0.1,1.7-0.5c0.1-0.2-0.3-0.7-0.3-0.9
									c-0.2-0.5-0.1-0.9,0-1.5c0.2-0.9,0.7-1.7,1-2.6C142.8,256.2,142.1,254.1,142.2,252z"/>
								<path class="st88" d="M152.4,259.9c-0.5-0.9-1-1.4-2.1-1c-0.6,0.3-0.8,0.4-1.3,0c-0.5-0.4-0.9-0.9-1.4-1.4
									c-0.4-0.4-1.4-1.3-2-1.6c-0.3-0.1-0.7-0.2-1,0.1c-0.8,0.7-0.8,0.9-0.3,1.4c0.2,0.2,1,0.9,1.3,1.1c1,0.7,2.2,1.1,3.2,1.8
									c0.3,0.3,0.6,0.8,0.9,1c0.7,0.4,0.2-0.2,0.2-0.6c0-0.6,0.8-0.9,1.3-0.6c0.4,0.2,0.3,0.6,0.3,1.1c0,0.5-0.1,0.7,0.3,0.3
									C152,261.3,152.8,260.1,152.4,259.9z"/>
								<path class="st53" d="M136.6,242c-0.2-0.2-0.7,0.1-1,0.1c-0.5,0.1-1,0-1.5,0c-0.9,0-1.9-0.2-2.8,0.3c-0.6,0.4-0.8,1-1.2,1.6
									c-0.5,0.7-1,0.9-1.8,1c-1.7,0.2-3.2,0.3-3,2.4c0.1,1.4,0.7,2.7,1.6,3.7c0.9,1,2.5,2,3.8,1c1.3-1-0.1-3.1,1.1-4
									c0.6-0.4,1.4-0.2,2-0.7c0.8-0.6,0.7-1.5,0.9-2.4c0.3-1,0.9-0.8,1.6-1.4C137.1,243.4,137.3,242.5,136.6,242z"/>
								<g>
									<path class="st55" d="M126,289.3c-4.7,0-8.5-3.8-8.5-8.5s3.8-8.5,8.5-8.5c4.7,0,8.5,3.8,8.5,8.5S130.7,289.3,126,289.3z
										 M126,273.9c-3.8,0-6.9,3.1-6.9,6.9s3.1,6.9,6.9,6.9s6.9-3.1,6.9-6.9S129.8,273.9,126,273.9z"/>
								</g>
								<g>
									<path class="st55" d="M156.9,289.3c-4.7,0-8.5-3.8-8.5-8.5s3.8-8.5,8.5-8.5c4.7,0,8.5,3.8,8.5,8.5S161.6,289.3,156.9,289.3
										z M156.9,273.9c-3.8,0-6.9,3.1-6.9,6.9s3.1,6.9,6.9,6.9c3.8,0,6.9-3.1,6.9-6.9S160.7,273.9,156.9,273.9z"/>
								</g>
								<g>
									<path class="st48" d="M138.7,280.3c-0.1,0-0.2-0.1-0.2-0.2c0-0.1,0-0.2,0.2-0.2l5-1.2c0.1,0,0.2,0,0.2,0.2
										c0,0.1,0,0.2-0.2,0.2L138.7,280.3C138.8,280.3,138.7,280.3,138.7,280.3z"/>
								</g>
								
									<linearGradient id="SVGID_00000114055122960035739680000013780911042327697288_" gradientUnits="userSpaceOnUse" x1="125.6708" y1="272.8266" x2="169.4318" y2="272.8266">
									<stop  offset="0" style="stop-color:#D45944"/>
									<stop  offset="1" style="stop-color:#EB816F"/>
								</linearGradient>
								<path style="fill:url(#SVGID_00000114055122960035739680000013780911042327697288_);" d="M152.5,269.8
									c-0.6-1.6-1.1-3.1-1.7-4.7c0-0.1-0.1-0.5-0.2-0.6c-0.1,0-1.1,0.3-1.1,0.4c-0.5,0.4,0.4,1,0.3,1.5c-0.1,0.2-0.8,0.5-1,0.6
									c-0.7,0.4-1.5,0.8-2.2,1.3c-1.9,1.1-3.8,2.2-5.7,3.3c-1.2,0.7-2.4,1.4-3.6,2.1l-2.1-5.5c-0.9,0.4-0.9,0.3-0.6,1.2
									c0.4,1.1,0.8,2.1,1.2,3.2c0.1,0.3,0.7,1.4,0.6,1.6c-0.1,0.3-1.1,0.7-1.3,0.8c-1.9,1.1-3.8,2.3-5.7,3.4c0,0-3.4,2.1-3.5,2.2
									c-0.7,1.1,2.6,0.6,3,0.6c2.3-0.1,4.6-0.3,6.9-0.4c0.9,0,2.5,0.2,3.4-0.3c0.4-0.2,0.9-1,1.2-1.3c0.8-0.8,1.5-1.7,2.3-2.5
									c1.2-1.3,2.3-2.9,3.7-4c1.2-1,2.8-1.7,4.2-2.4c0.3-0.2,0.6,0,0.8,0.2c1.5,3,3.1,5.9,4.6,8.9c0.1,0.3,0.5,1.5,0.8,1.6
									c0.6,0.2,0.3-0.4,0.2-0.6c-0.6-1.9-1.6-3.7-2.3-5.5C153.9,273.1,153.2,271.4,152.5,269.8z M137.5,274.3
									c1.5-0.8,3-1.6,4.5-2.4c0.4-0.2,0.9-0.6,1.3-0.6c0.5,0,1.1,0.4,1.7,0.7c0.3,0.2,0.3,0.5,0.1,0.8l-6.3,6.5L137.5,274.3z
									 M138.3,279.5l-10.5,0.9c-0.2,0-0.3-0.3-0.1-0.4l9-5.3L138.3,279.5z M145.5,271.6l-1.1-0.5c-0.2-0.1-0.2-0.4,0-0.5l5.4-2.8
									c0.2-0.1,0.4,0,0.5,0.2c0.1,0.2,0.1,0.4,0,0.7c-0.3,0.4-1.1,0.8-1.5,1.1l-2.4,1.8C146.1,271.6,145.8,271.7,145.5,271.6z"/>
								<path class="st78" d="M146.1,277.9c0-1.3-1.4-1.2-2.2-1.6c-0.7-0.4-1-1.3-1.9-1.6c-0.9-0.3-1.7,0.7-2.5,0.4
									c-0.6-0.2-0.3-1.5-1.2-1.1c-0.7,0.3-0.6,1.9-0.6,2.4c0,0.2-0.2,1,0,1.2c0.2,0.3,1.1,0.3,1.4,0.4
									C139.8,278.1,146.2,278.9,146.1,277.9z"/>
								<path class="st55" d="M137.3,267.6c-0.2-1.2-1.5-1.2-2.5-1.2c-1.1,0-4-0.3-4,1.2c0,0.8,0.5,0.6,1.3,0.7
									c0.9,0.1,1.5,0.6,2.3,0.8c0.8,0.2,1.3,0,1.8-0.5C136.5,268.5,137.4,267.9,137.3,267.6z"/>
								<path class="st67" d="M147.7,265.4c-0.2-0.3-1.2-0.5-1.5-0.6c-0.6-0.2-1.2-0.4-1.8-0.6c-1.1-0.3-2.4-0.8-3.6-0.9
									c-1,0-2,0.8-2.9,1.1c-1.2,0.4-2.6,0.5-3.9,0.7c-0.7,0.1-2.1-0.2-1.7,0.6c0.4,1,2.2,1.3,3,1.6c2.7,0.7,5.6,0.6,8.3,0.6
									c-0.5,0.9-1.3,1.5-1.9,2.3c-0.5,0.6-1.6,2-2,2.5c-0.3,0.5,0.4,1.3,1,1.4c0.5,0,1.5,0.6,1.8,0.4c0.8-0.7,3.1-3.8,3.8-4.7
									c0.5-0.6,1.4-1.5,1.7-2.2C148.6,266.9,148.2,266.1,147.7,265.4z"/>
								
									<linearGradient id="SVGID_00000131341105108543808700000010718435673557011626_" gradientUnits="userSpaceOnUse" x1="140.1934" y1="262.7794" x2="140.1934" y2="250.2413">
									<stop  offset="0" style="stop-color:#F6F6F6"/>
									<stop  offset="1" style="stop-color:#C6C6C6"/>
								</linearGradient>
								<path style="fill:url(#SVGID_00000131341105108543808700000010718435673557011626_);" d="M141.6,252.2
									c-0.7-1.5-3.1-2.6-3.4-1.4c-1,3.9,1.8,5.1,1.3,6.5c-0.6,1.7,0.2,2.4,0.4,2.9c0.2,0.5-0.9,2.1,0.5,2.5
									c0.4,0.1,0.8-0.2,0.7-0.4c-0.2-0.5-0.1-0.9,0-1.5c0.2-0.9,0.7-1.7,1-2.6C142.8,256.2,142.4,253.8,141.6,252.2z"/>
								<path class="st10" d="M145.9,255.5c0.1-0.5-0.8-0.7-1.1-0.9c-0.5-0.4-0.6-0.9-0.9-1.3c-0.4-0.4-0.8-0.4-1.2-0.9
									c-0.3-0.4-0.5-0.9-0.7-1.3c-0.5-0.9-1.4-1.9-2.6-1.5c-0.8,0.2-1.3,1.2-1.1,1.9c0.4,1.6,1.5,3.3,2.5,4.4
									c0.3,0.3,0.9,0.6,1.3,0.9c0.4,0.3,1.1,1.3,1.6,1.4C144.1,258.2,146.3,255.9,145.9,255.5z"/>
								<path class="st51" d="M137.6,243.6c-0.2-0.6,0.2-1.8-0.3-2.2c-0.5-0.3-1.2,0.1-1.3,0.6c-0.1,0.5,0.3,1.2,0.6,1.6
									C136.7,244,137.7,244.1,137.6,243.6z"/>
							</g>
						</g>
						<g>
							<g>
								<path class="st10" d="M186.6,210.2l-19.2-3.1c0,0,1.7-8.7,5.4-16.1c3.4-6.9,9.1-14.6,9.1-14.6L186.6,210.2z"/>
								<polygon class="st7" points="190.7,212.6 173.5,212.6 170.4,210.4 179.4,210.4 190.2,211.1 								"/>
							</g>
							<path class="st48" d="M186.6,210.2c0,0-3.9-17.3-5.2-22c-0.9-3.2,0.5-11.7,0.5-11.7L186.6,210.2z"/>
						</g>
					</g>
				</g>
			</g>
		</g>
	</g>
</g>
</svg>
