<?xml version="1.0" encoding="UTF-8"?>
<svg id="_圖層_2" data-name="圖層 2" xmlns="http://www.w3.org/2000/svg" width="284" height="326.71" viewBox="0 0 284 326.71">
  <g id="_第一cut" data-name="第一cut">
    <g>
      <g>
        <circle cx="190.13" cy="45.34" r="45.34" style="fill: #e76542;"/>
        <polygon points="179.84 84.67 150.84 92.73 153.32 63.79 179.84 84.67" style="fill: #e76542;"/>
      </g>
      <g>
        <g>
          <path d="m188.9,52.99h-10.26v1.66c0,.6-.14,1.07-.41,1.42-.27.35-.62.58-1.04.71s-1.22.19-2.38.19c-.54,0-1.15-.02-1.84-.05l-.77-2.17c.61.02,1.78.03,3.52.03.32,0,.48-.15.48-.44v-1.34h-10.58v-1.89h10.58v-1.15c1.32-.27,2.55-.62,3.69-1.04h-9.92v-1.71h14.23v1.71c-1.45.69-3.31,1.37-5.56,2.04v.16h10.26v1.89Zm-.41-3.93h-2.24v-3.04h-17.88v3.01h-2.38v-4.89h1.66l-.48-9.59c1.73-.08,3.47-.42,5.21-1.02l1.1,1.85c-1.25.39-2.56.67-3.96.82l.08,1.42h3.49v1.74h-3.39l.05,1.51h3.34v1.72h-3.24l.08,1.54h14.72l.05-1.54h-3.6v-1.72h3.69l.08-1.51h-3.77v-1.74h3.82l.08-1.42h-4.08v-1.87h6.41l-.43,9.8h1.6v4.92Zm-8.12-14.75c-.42.56-1,1.11-1.74,1.66.43.38.83.77,1.2,1.17l-1.42,1.25c-.44-.53-.89-.97-1.33-1.33-.92.55-1.82,1-2.7,1.36l-1.12-1.5c.77-.27,1.53-.63,2.27-1.07-.24-.23-.74-.59-1.47-1.1l1.29-1.31,1.79,1.28c.58-.43,1.04-.84,1.38-1.25l1.85.83Zm.13,8.42l-1.42,1.23c-.67-.74-1.27-1.31-1.81-1.71-.93.59-1.84,1.09-2.73,1.5l-1.1-1.48c.64-.28,1.41-.69,2.3-1.23-.45-.4-1.04-.8-1.76-1.2l1.29-1.32c.47.28,1.16.75,2.08,1.42.73-.62,1.23-1.09,1.5-1.42l1.63.97c-.51.57-1.07,1.09-1.66,1.58.6.52,1.16,1.07,1.68,1.66Z" style="fill: #fff;"/>
          <path d="m201.24,45.56l-1.68,1.63c-.31-.94-.71-1.81-1.2-2.6v12.4h-2.35v-11.43c-.79,2.12-1.67,3.69-2.65,4.7l-1.23-2.48c1.64-1.95,2.91-4.34,3.82-7.17h-3.48v-2.25h3.54v-4.62h2.35v4.62h2.38v2.25h-2.38v.56c1.24,1.49,2.2,2.95,2.88,4.39Zm14.43,9.51l-1.33,1.94c-2.34-1.02-4.35-2.29-6.02-3.81-1.73,1.5-3.9,2.74-6.5,3.73l-1.28-2.02c2.64-.91,4.7-2.04,6.2-3.39-1.26-1.59-2.34-3.68-3.24-6.27l2.09-.82c.76,2.26,1.65,4.05,2.67,5.36,1.04-1.31,1.88-3.13,2.53-5.47l2.09.85c-.71,2.52-1.71,4.64-2.99,6.34,1.4,1.29,3.32,2.47,5.77,3.55Zm-8.5-14.94c-1.2,1.98-2.77,3.68-4.71,5.1l-1.59-1.68c1.5-1.05,2.99-2.6,4.49-4.65l1.81,1.23Zm7.78-1.76h-13.44v-2.27h5.67c-.22-.45-.63-1.12-1.23-2.01l2.48-.61c.56.77,1.05,1.64,1.47,2.62h5.05v2.27Zm.61,5.43l-1.79,1.46c-.8-1.52-2.14-3.17-4.01-4.95l1.76-1.36c1.7,1.54,3.04,3.15,4.03,4.84Z" style="fill: #fff;"/>
        </g>
        <g>
          <path d="m188.9,52.99h-10.26v1.66c0,.6-.14,1.07-.41,1.42-.27.35-.62.58-1.04.71s-1.22.19-2.38.19c-.54,0-1.15-.02-1.84-.05l-.77-2.17c.61.02,1.78.03,3.52.03.32,0,.48-.15.48-.44v-1.34h-10.58v-1.89h10.58v-1.15c1.32-.27,2.55-.62,3.69-1.04h-9.92v-1.71h14.23v1.71c-1.45.69-3.31,1.37-5.56,2.04v.16h10.26v1.89Zm-.41-3.93h-2.24v-3.04h-17.88v3.01h-2.38v-4.89h1.66l-.48-9.59c1.73-.08,3.47-.42,5.21-1.02l1.1,1.85c-1.25.39-2.56.67-3.96.82l.08,1.42h3.49v1.74h-3.39l.05,1.51h3.34v1.72h-3.24l.08,1.54h14.72l.05-1.54h-3.6v-1.72h3.69l.08-1.51h-3.77v-1.74h3.82l.08-1.42h-4.08v-1.87h6.41l-.43,9.8h1.6v4.92Zm-8.12-14.75c-.42.56-1,1.11-1.74,1.66.43.38.83.77,1.2,1.17l-1.42,1.25c-.44-.53-.89-.97-1.33-1.33-.92.55-1.82,1-2.7,1.36l-1.12-1.5c.77-.27,1.53-.63,2.27-1.07-.24-.23-.74-.59-1.47-1.1l1.29-1.31,1.79,1.28c.58-.43,1.04-.84,1.38-1.25l1.85.83Zm.13,8.42l-1.42,1.23c-.67-.74-1.27-1.31-1.81-1.71-.93.59-1.84,1.09-2.73,1.5l-1.1-1.48c.64-.28,1.41-.69,2.3-1.23-.45-.4-1.04-.8-1.76-1.2l1.29-1.32c.47.28,1.16.75,2.08,1.42.73-.62,1.23-1.09,1.5-1.42l1.63.97c-.51.57-1.07,1.09-1.66,1.58.6.52,1.16,1.07,1.68,1.66Z" style="fill: #fff;"/>
          <path d="m201.24,45.56l-1.68,1.63c-.31-.94-.71-1.81-1.2-2.6v12.4h-2.35v-11.43c-.79,2.12-1.67,3.69-2.65,4.7l-1.23-2.48c1.64-1.95,2.91-4.34,3.82-7.17h-3.48v-2.25h3.54v-4.62h2.35v4.62h2.38v2.25h-2.38v.56c1.24,1.49,2.2,2.95,2.88,4.39Zm14.43,9.51l-1.33,1.94c-2.34-1.02-4.35-2.29-6.02-3.81-1.73,1.5-3.9,2.74-6.5,3.73l-1.28-2.02c2.64-.91,4.7-2.04,6.2-3.39-1.26-1.59-2.34-3.68-3.24-6.27l2.09-.82c.76,2.26,1.65,4.05,2.67,5.36,1.04-1.31,1.88-3.13,2.53-5.47l2.09.85c-.71,2.52-1.71,4.64-2.99,6.34,1.4,1.29,3.32,2.47,5.77,3.55Zm-8.5-14.94c-1.2,1.98-2.77,3.68-4.71,5.1l-1.59-1.68c1.5-1.05,2.99-2.6,4.49-4.65l1.81,1.23Zm7.78-1.76h-13.44v-2.27h5.67c-.22-.45-.63-1.12-1.23-2.01l2.48-.61c.56.77,1.05,1.64,1.47,2.62h5.05v2.27Zm.61,5.43l-1.79,1.46c-.8-1.52-2.14-3.17-4.01-4.95l1.76-1.36c1.7,1.54,3.04,3.15,4.03,4.84Z" style="fill: #fff;"/>
        </g>
      </g>
      <g>
        <g>
          <rect x="255.81" y="247.25" width="5.65" height="71.84" style="fill: #b6712c;"/>
          <g>
            <ellipse cx="258.06" cy="232.56" rx="18.69" ry="47.6" style="fill: #8daf38;"/>
            <path d="m263.49,196.06c3.17,0,6.15,2.02,8.77,5.56-3.43-10.19-8.52-16.66-14.2-16.66-10.32,0-18.69,21.31-18.69,47.6,0,18.22,4.02,34.04,9.92,42.04-2.8-8.32-4.5-19.13-4.5-30.94,0-26.29,8.37-47.6,18.69-47.6Z" style="fill: #7da032;"/>
          </g>
        </g>
        <g>
          <rect x="269.05" y="269.34" width="4.03" height="51.29" style="fill: #b6712c;"/>
          <g>
            <ellipse cx="270.65" cy="258.85" rx="13.35" ry="33.98" style="fill: #8daf38;"/>
            <path d="m274.53,232.79c2.26,0,4.39,1.44,6.26,3.97-2.45-7.28-6.08-11.89-10.14-11.89-7.37,0-13.35,15.22-13.35,33.98,0,13.01,2.87,24.3,7.09,30.01-2-5.94-3.21-13.65-3.21-22.09,0-18.77,5.98-33.98,13.35-33.98Z" style="fill: #7da032;"/>
          </g>
        </g>
        <rect x="6.68" y="195" width="221.82" height="58.4" style="fill: #d15d42;"/>
        <rect y="250.53" width="236.16" height="64.95" style="fill: #e76542;"/>
        <rect x="83.16" y="175.29" width="68.33" height="140.19" style="fill: #d15d42;"/>
        <rect x="49.85" y="133.46" width="135.28" height="61.55" style="fill: #e76542;"/>
        <rect x="6.67" y="185.9" width="221.83" height="9.1" style="fill: #ba5345;"/>
        <rect x="68.12" y="250.53" width="98.54" height="7.08" style="fill: #c6553e;"/>
        <rect x="72.09" y="257.61" width="90.77" height="3.56" style="fill: #b54e3a;"/>
        <rect x="87.22" y="261.17" width="59.8" height="54.31" style="fill: #a84e3f;"/>
        <rect y="313.21" width="236.16" height="2.27" style="fill: #a84e3f;"/>
        <rect x="169.47" y="312.07" width="15.67" height="3.41" style="fill: #ffe1c7;"/>
        <polygon points="38.88 133.46 193.07 133.46 182.96 123.07 48.07 123.07 38.88 133.46" style="fill: #b54e3a;"/>
        <rect x="70.06" y="96.68" width="90.5" height="19.36" style="fill: #e5c8b3;"/>
        <g>
          <g>
            <path d="m93.25,102.54l-.76.9c-.76-.65-1.45-.93-2.28-.93-1,0-1.8.5-1.8,1.53,0,.9.39,1.34,2.19,1.93,1.6.53,2.97,1.2,2.97,3.25,0,1.87-1.32,3.17-3.58,3.17-1.44,0-2.57-.51-3.4-1.38l.77-.92c.74.67,1.53,1.09,2.62,1.09,1.18,0,2.15-.62,2.15-1.91,0-1.04-.47-1.51-2.17-2.07-1.95-.64-2.97-1.43-2.97-3.1s1.31-2.8,3.16-2.8c1.38,0,2.25.44,3.1,1.25Z" style="fill: #7a4d39;"/>
            <path d="m89.99,112.59c-1.44,0-2.63-.49-3.55-1.45l-.12-.13,1.02-1.21.15.14c.81.73,1.55,1.04,2.48,1.04s1.95-.45,1.95-1.71c0-.85-.28-1.3-2.03-1.88-1.86-.61-3.1-1.4-3.1-3.29,0-1.77,1.38-3,3.35-3,1.34,0,2.27.38,3.23,1.3l.14.13-1.01,1.2-.15-.13c-.72-.62-1.36-.89-2.15-.89-.38,0-1.6.1-1.6,1.33,0,.72.2,1.13,2.06,1.74,1.57.52,3.1,1.21,3.1,3.44,0,2.05-1.48,3.37-3.78,3.37Zm-3.13-1.6c.82.79,1.87,1.2,3.13,1.2,2.08,0,3.38-1.14,3.38-2.97,0-1.96-1.34-2.57-2.83-3.06-1.81-.59-2.33-1.07-2.33-2.12s.79-1.73,2-1.73c.83,0,1.53.26,2.26.85l.51-.6c-.83-.75-1.66-1.06-2.82-1.06-1.74,0-2.96,1.07-2.96,2.6,0,1.44.77,2.23,2.83,2.91,1.77.58,2.3,1.11,2.3,2.26,0,1.28-.92,2.11-2.35,2.11-.97,0-1.78-.31-2.59-1l-.52.62Z" style="fill: #7a4d39;"/>
          </g>
          <g>
            <path d="m102.76,102.35l-.76.95c-.63-.54-1.24-.79-1.93-.79-1.51,0-2.78,1.09-2.78,4.33s1.21,4.31,2.76,4.31c.95,0,1.56-.45,2.12-.9l.7.95c-.54.61-1.51,1.2-2.86,1.2-2.43,0-4.19-1.95-4.19-5.56s1.89-5.54,4.16-5.54c1.26,0,1.98.37,2.78,1.06Z" style="fill: #7a4d39;"/>
            <path d="m100.01,112.59c-2.71,0-4.39-2.21-4.39-5.76,0-3.97,2.19-5.74,4.36-5.74,1.35,0,2.11.42,2.91,1.11l.15.12-1.01,1.26-.16-.14c-.58-.51-1.16-.74-1.8-.74-1.69,0-2.58,1.43-2.58,4.13s.91,4.11,2.56,4.11c.85,0,1.41-.39,2-.86l.16-.13.92,1.25-.11.12c-.34.38-1.31,1.27-3.01,1.27Zm-.03-11.1c-1.97,0-3.96,1.65-3.96,5.34,0,3.3,1.53,5.36,3.99,5.36,1.39,0,2.23-.64,2.6-1.01l-.48-.65c-.58.44-1.19.82-2.08.82-1.11,0-2.96-.59-2.96-4.51s1.87-4.53,2.98-4.53c.69,0,1.3.23,1.9.71l.51-.64c-.69-.56-1.35-.89-2.5-.89Z" style="fill: #7a4d39;"/>
          </g>
          <g>
            <path d="m111.09,107.17h-4.22v5.03h-1.38v-10.72h1.38v4.48h4.22v-4.48h1.38v10.72h-1.38v-5.03Z" style="fill: #7a4d39;"/>
            <path d="m112.67,112.4h-1.78v-5.03h-3.82v5.03h-1.78v-11.12h1.78v4.48h3.82v-4.48h1.78v11.12Zm-1.38-.4h.98v-10.32h-.98v4.48h-4.62v-4.48h-.98v10.32h.98v-5.03h4.62v5.03Z" style="fill: #7a4d39;"/>
          </g>
          <g>
            <path d="m124.06,106.85c0,3.55-1.72,5.54-4.23,5.54s-4.23-1.93-4.23-5.53,1.73-5.57,4.23-5.57,4.23,1.95,4.23,5.56Zm-6.99.01c0,3.1,1.13,4.31,2.76,4.31s2.76-1.21,2.76-4.33-1.05-4.34-2.76-4.34-2.76,1.26-2.76,4.36Z" style="fill: #7a4d39;"/>
            <path d="m119.83,112.59c-2.73,0-4.43-2.19-4.43-5.73s1.74-5.77,4.43-5.77,4.43,2.21,4.43,5.76-1.7,5.74-4.43,5.74Zm0-11.1c-2.49,0-4.03,2.06-4.03,5.37s1.51,5.33,4.03,5.33,4.03-2.05,4.03-5.34-1.51-5.36-4.03-5.36Zm0,9.88c-1.35,0-2.96-.78-2.96-4.51s1.61-4.56,2.96-4.56c1.97,0,2.96,1.53,2.96,4.54s-1,4.53-2.96,4.53Zm0-8.67c-1.7,0-2.56,1.4-2.56,4.16s.86,4.11,2.56,4.11,2.56-1.35,2.56-4.13-.84-4.14-2.56-4.14Z" style="fill: #7a4d39;"/>
          </g>
          <g>
            <path d="m134.99,106.85c0,3.55-1.72,5.54-4.23,5.54s-4.23-1.93-4.23-5.53,1.73-5.57,4.23-5.57,4.23,1.95,4.23,5.56Zm-6.99.01c0,3.1,1.13,4.31,2.76,4.31s2.76-1.21,2.76-4.33-1.05-4.34-2.76-4.34-2.76,1.26-2.76,4.36Z" style="fill: #7a4d39;"/>
            <path d="m130.76,112.59c-2.73,0-4.43-2.19-4.43-5.73s1.74-5.77,4.43-5.77,4.43,2.21,4.43,5.76-1.7,5.74-4.43,5.74Zm0-11.1c-2.49,0-4.03,2.06-4.03,5.37s1.51,5.33,4.03,5.33,4.03-2.05,4.03-5.34-1.51-5.36-4.03-5.36Zm0,9.88c-1.35,0-2.96-.78-2.96-4.51s1.61-4.56,2.96-4.56c1.97,0,2.96,1.53,2.96,4.54s-1,4.53-2.96,4.53Zm0-8.67c-1.7,0-2.56,1.4-2.56,4.16s.86,4.11,2.56,4.11,2.56-1.35,2.56-4.13-.84-4.14-2.56-4.14Z" style="fill: #7a4d39;"/>
          </g>
          <g>
            <path d="m139.5,110.91h4.11l-.16,1.29h-5.34v-10.72h1.38v9.43Z" style="fill: #7a4d39;"/>
            <path d="m143.63,112.4h-5.71v-11.12h1.78v9.43h4.14l-.21,1.69Zm-5.31-.4h4.96l.11-.89h-4.09v-9.43h-.98v10.32Z" style="fill: #7a4d39;"/>
          </g>
        </g>
        <rect x="70.06" y="96.68" width="90.5" height="1.61" style="fill: #ceb4a3;"/>
        <rect x="70.06" y="96.68" width="1.38" height="19.36" style="fill: #ceb4a3;"/>
        <rect x="70.06" y="114.08" width="90.5" height="1.96" style="fill: #ceb4a3;"/>
        <rect x="159.18" y="96.68" width="1.39" height="18.38" style="fill: #ceb4a3;"/>
        <rect x="78.64" y="116.04" width="2" height="9.63" style="fill: #ceb4a3;"/>
        <rect x="147.59" y="116.04" width="2" height="9.63" style="fill: #ceb4a3;"/>
        <rect x="49.85" y="133.46" width="135.11" height="4.8" style="fill: #d35c40;"/>
        <rect x="48.07" y="123.07" width="134.89" height="6.22" style="fill: #b54e3a;"/>
        <polygon points="48.07 123.07 182.96 123.07 188.02 128.26 117.59 128.26 43.47 128.26 48.07 123.07" style="fill: #9b3e32;"/>
        <rect x="6.67" y="185.9" width="221.83" height="4.55" style="fill: #9b3e32;"/>
        <rect x="49.85" y="182.82" width="135.11" height="3.08" style="fill: #d35c40;"/>
        <rect x="6.68" y="246.63" width="221.82" height="3.9" style="fill: #c1503a;"/>
        <rect x="94.9" y="268.96" width="44.76" height="46.52" style="fill: #e76542;"/>
        <rect x="103.82" y="271.21" width="27.58" height="44.49" style="fill: #e5c8b3;"/>
        <rect x="105.55" y="291.22" width="2" height="4.48" style="fill: #ceb4a3;"/>
        <rect x="52.4" y="139.7" width="17.67" height="4.13" style="fill: #d35c40;"/>
        <rect x="55.17" y="146.49" width="17.67" height="4.13" style="fill: #d35c40;"/>
        <rect x="51.3" y="152.88" width="17.67" height="4.13" style="fill: #d35c40;"/>
        <rect x="53.57" y="159.28" width="17.67" height="4.13" style="fill: #d35c40;"/>
        <rect x="50.37" y="165.67" width="17.67" height="4.13" style="fill: #d35c40;"/>
        <rect x="53.57" y="170.47" width="17.67" height="4.13" style="fill: #d35c40;"/>
        <rect x="71.81" y="139.7" width="17.67" height="4.13" style="fill: #d35c40;"/>
        <rect x="91.26" y="139.7" width="17.67" height="4.13" style="fill: #d35c40;"/>
        <rect x="94.46" y="146.1" width="17.67" height="4.13" style="fill: #d35c40;"/>
        <rect x="92.86" y="152.49" width="17.67" height="4.13" style="fill: #d35c40;"/>
        <rect x="94.46" y="158.88" width="17.67" height="4.13" style="fill: #d35c40;"/>
        <rect x="94.46" y="165.28" width="17.67" height="4.13" style="fill: #d35c40;"/>
        <rect x="92.68" y="171.94" width="17.67" height="4.13" style="fill: #d35c40;"/>
        <rect x="52.4" y="176.6" width="17.67" height="4.13" style="fill: #d35c40;"/>
        <rect x="71.58" y="176.6" width="17.67" height="4.13" style="fill: #d35c40;"/>
        <rect x="90.77" y="176.6" width="17.67" height="4.13" style="fill: #d35c40;"/>
        <rect x="109.95" y="176.6" width="17.67" height="4.13" style="fill: #d35c40;"/>
        <rect x="129.13" y="176.6" width="17.67" height="4.13" style="fill: #d35c40;"/>
        <rect x="148.32" y="176.6" width="17.67" height="4.13" style="fill: #d35c40;"/>
        <rect x="165.9" y="176.6" width="17.67" height="4.13" style="fill: #d35c40;"/>
        <g>
          <rect x="64" y="148.55" width="25.42" height="24.17" style="fill: #39828f;"/>
          <polygon points="84.08 148.55 64 158.86 64 169.53 89.43 157.57 89.43 148.55 84.08 148.55 84.08 148.55" style="fill: #619ba5;"/>
          <polygon points="64 170.88 89.43 159.04 89.43 161.19 64 172.72 64 170.88" style="fill: #619ba5;"/>
          <rect x="75.52" y="148.55" width="2.08" height="24.17" style="fill: #dfc2c2;"/>
          <rect x="64" y="159.71" width="25.42" height="1.96" style="fill: #dfc2c2;"/>
          <rect x="64" y="146.37" width="25.42" height="2.18" style="fill: #fff;"/>
          <rect x="61.7" y="146.37" width="2.31" height="26.34" style="fill: #fff;"/>
          <rect x="89.43" y="146.37" width="2.46" height="26.34" style="fill: #fff;"/>
          <rect x="61.7" y="172.72" width="30.19" height="2.57" style="fill: #fff;"/>
        </g>
        <rect x="110.98" y="139.7" width="17.67" height="4.13" style="fill: #d35c40;"/>
        <rect x="114.18" y="146.1" width="17.67" height="4.13" style="fill: #d35c40;"/>
        <rect x="112.58" y="152.49" width="17.67" height="4.13" style="fill: #d35c40;"/>
        <rect x="114.18" y="158.88" width="17.67" height="4.13" style="fill: #d35c40;"/>
        <rect x="114.18" y="165.28" width="17.67" height="4.13" style="fill: #d35c40;"/>
        <rect x="112.4" y="171.94" width="17.67" height="4.13" style="fill: #d35c40;"/>
        <rect x="131.73" y="139.7" width="17.67" height="4.13" style="fill: #d35c40;"/>
        <rect x="134.93" y="146.1" width="17.67" height="4.13" style="fill: #d35c40;"/>
        <rect x="133.33" y="152.49" width="17.67" height="4.13" style="fill: #d35c40;"/>
        <rect x="134.93" y="158.88" width="17.67" height="4.13" style="fill: #d35c40;"/>
        <rect x="134.93" y="165.28" width="17.67" height="4.13" style="fill: #d35c40;"/>
        <rect x="133.14" y="171.94" width="17.67" height="4.13" style="fill: #d35c40;"/>
        <rect x="153.39" y="139.7" width="17.67" height="4.13" style="fill: #d35c40;"/>
        <rect x="156.59" y="146.1" width="17.67" height="4.13" style="fill: #d35c40;"/>
        <rect x="154.99" y="152.49" width="17.67" height="4.13" style="fill: #d35c40;"/>
        <rect x="156.59" y="158.88" width="17.67" height="4.13" style="fill: #d35c40;"/>
        <rect x="156.59" y="165.28" width="17.67" height="4.13" style="fill: #d35c40;"/>
        <rect x="154.81" y="171.94" width="17.67" height="4.13" style="fill: #d35c40;"/>
        <rect x="174.53" y="139.7" width="10.61" height="4.13" style="fill: #d35c40;"/>
        <rect x="176.16" y="146.1" width="8.8" height="4.13" style="fill: #d35c40;"/>
        <rect x="175.35" y="152.49" width="9.62" height="4.13" style="fill: #d35c40;"/>
        <rect x="176.16" y="158.88" width="9.02" height="4.13" style="fill: #d35c40;"/>
        <rect x="176.16" y="165.28" width="9.02" height="4.13" style="fill: #d35c40;"/>
        <rect x="175.25" y="170.34" width="9.02" height="4.13" style="fill: #d35c40;"/>
        <g>
          <rect x="144.47" y="148.55" width="25.42" height="24.17" style="fill: #39828f;"/>
          <polygon points="164.54 148.55 144.47 158.86 144.47 169.53 169.89 157.57 169.89 148.55 164.54 148.55 164.54 148.55" style="fill: #619ba5;"/>
          <polygon points="144.47 170.88 169.89 159.04 169.89 161.19 144.47 172.72 144.47 170.88" style="fill: #619ba5;"/>
          <rect x="155.98" y="148.55" width="2.08" height="24.17" style="fill: #dfc2c2;"/>
          <rect x="144.47" y="159.71" width="25.42" height="1.96" style="fill: #dfc2c2;"/>
          <rect x="144.47" y="146.37" width="25.42" height="2.18" style="fill: #fff;"/>
          <rect x="142.16" y="146.37" width="2.31" height="26.34" style="fill: #fff;"/>
          <rect x="169.89" y="146.37" width="2.46" height="26.34" style="fill: #fff;"/>
          <rect x="142.16" y="172.72" width="30.19" height="2.57" style="fill: #fff;"/>
        </g>
        <g>
          <rect x="103.81" y="148.55" width="25.42" height="24.17" style="fill: #39828f;"/>
          <polygon points="123.89 148.55 103.81 158.86 103.81 169.53 129.24 157.57 129.24 148.55 123.89 148.55 123.89 148.55" style="fill: #619ba5;"/>
          <polygon points="103.81 170.88 129.24 159.04 129.24 161.19 103.81 172.72 103.81 170.88" style="fill: #619ba5;"/>
          <rect x="115.33" y="148.55" width="2.08" height="24.17" style="fill: #dfc2c2;"/>
          <rect x="103.81" y="159.71" width="25.42" height="1.96" style="fill: #dfc2c2;"/>
          <rect x="103.81" y="146.37" width="25.42" height="2.18" style="fill: #fff;"/>
          <rect x="101.51" y="146.37" width="2.31" height="26.34" style="fill: #fff;"/>
          <rect x="129.24" y="146.37" width="2.46" height="26.34" style="fill: #fff;"/>
          <rect x="101.51" y="172.72" width="30.19" height="2.57" style="fill: #fff;"/>
        </g>
        <g>
          <rect x="8.77" y="196.46" width="16.79" height="4.61" style="fill: #bc513c;"/>
          <rect x="10.37" y="202.85" width="16.79" height="4.61" style="fill: #bc513c;"/>
          <rect x="8.77" y="209.25" width="16.79" height="4.61" style="fill: #bc513c;"/>
          <rect x="13.56" y="215.64" width="16.79" height="4.61" style="fill: #bc513c;"/>
          <rect x="8.77" y="222.03" width="16.79" height="4.61" style="fill: #bc513c;"/>
          <rect x="8.77" y="228.43" width="16.79" height="4.61" style="fill: #bc513c;"/>
          <rect x="11.96" y="234.82" width="16.79" height="4.61" style="fill: #bc513c;"/>
          <rect x="8.77" y="241.22" width="16.79" height="4.61" style="fill: #bc513c;"/>
        </g>
        <g>
          <rect x="29.09" y="196.26" width="16.79" height="4.61" style="fill: #bc513c;"/>
          <rect x="30.68" y="202.66" width="16.79" height="4.61" style="fill: #bc513c;"/>
          <rect x="29.09" y="209.05" width="16.79" height="4.61" style="fill: #bc513c;"/>
          <rect x="33.88" y="215.45" width="16.79" height="4.61" style="fill: #bc513c;"/>
          <rect x="29.09" y="221.84" width="16.79" height="4.61" style="fill: #bc513c;"/>
          <rect x="29.09" y="228.24" width="16.79" height="4.61" style="fill: #bc513c;"/>
          <rect x="32.28" y="234.63" width="16.79" height="4.61" style="fill: #bc513c;"/>
          <rect x="29.09" y="241.03" width="16.79" height="4.61" style="fill: #bc513c;"/>
        </g>
        <g>
          <rect x="48.41" y="196.4" width="16.79" height="4.61" style="fill: #bc513c;"/>
          <rect x="50.01" y="202.79" width="16.79" height="4.61" style="fill: #bc513c;"/>
          <rect x="48.41" y="209.19" width="16.79" height="4.61" style="fill: #bc513c;"/>
          <rect x="53.21" y="215.58" width="16.79" height="4.61" style="fill: #bc513c;"/>
          <rect x="48.41" y="221.98" width="16.79" height="4.61" style="fill: #bc513c;"/>
          <rect x="48.41" y="228.37" width="16.79" height="4.61" style="fill: #bc513c;"/>
          <rect x="51.61" y="234.77" width="16.79" height="4.61" style="fill: #bc513c;"/>
          <rect x="48.41" y="241.16" width="16.79" height="4.61" style="fill: #bc513c;"/>
        </g>
        <g>
          <rect x="67.41" y="196.26" width="16.79" height="4.61" style="fill: #bc513c;"/>
          <rect x="69.01" y="202.66" width="16.79" height="4.61" style="fill: #bc513c;"/>
          <rect x="67.41" y="209.05" width="16.79" height="4.61" style="fill: #bc513c;"/>
          <rect x="72.21" y="215.45" width="16.79" height="4.61" style="fill: #bc513c;"/>
          <rect x="67.41" y="221.84" width="16.79" height="4.61" style="fill: #bc513c;"/>
          <rect x="67.41" y="228.24" width="16.79" height="4.61" style="fill: #bc513c;"/>
          <rect x="70.61" y="234.63" width="16.79" height="4.61" style="fill: #bc513c;"/>
          <rect x="67.41" y="241.03" width="16.79" height="4.61" style="fill: #bc513c;"/>
        </g>
        <g>
          <rect x="86.23" y="196.4" width="16.79" height="4.61" style="fill: #bc513c;"/>
          <rect x="87.83" y="202.79" width="16.79" height="4.61" style="fill: #bc513c;"/>
          <rect x="86.23" y="209.19" width="16.79" height="4.61" style="fill: #bc513c;"/>
          <rect x="91.03" y="215.58" width="16.79" height="4.61" style="fill: #bc513c;"/>
          <rect x="86.23" y="221.98" width="16.79" height="4.61" style="fill: #bc513c;"/>
          <rect x="86.23" y="228.37" width="16.79" height="4.61" style="fill: #bc513c;"/>
          <rect x="89.43" y="234.77" width="16.79" height="4.61" style="fill: #bc513c;"/>
          <rect x="86.23" y="241.16" width="16.79" height="4.61" style="fill: #bc513c;"/>
        </g>
        <g>
          <rect x="104.54" y="196.26" width="16.79" height="4.61" style="fill: #bc513c;"/>
          <rect x="106.14" y="202.66" width="16.79" height="4.61" style="fill: #bc513c;"/>
          <rect x="104.54" y="209.05" width="16.79" height="4.61" style="fill: #bc513c;"/>
          <rect x="109.34" y="215.45" width="16.79" height="4.61" style="fill: #bc513c;"/>
          <rect x="104.54" y="221.84" width="16.79" height="4.61" style="fill: #bc513c;"/>
          <rect x="104.54" y="228.24" width="16.79" height="4.61" style="fill: #bc513c;"/>
          <rect x="107.74" y="234.63" width="16.79" height="4.61" style="fill: #bc513c;"/>
          <rect x="104.54" y="241.03" width="16.79" height="4.61" style="fill: #bc513c;"/>
        </g>
        <g>
          <rect x="124.13" y="196.26" width="16.79" height="4.61" style="fill: #bc513c;"/>
          <rect x="125.73" y="202.66" width="16.79" height="4.61" style="fill: #bc513c;"/>
          <rect x="124.13" y="209.05" width="16.79" height="4.61" style="fill: #bc513c;"/>
          <rect x="128.93" y="215.45" width="16.79" height="4.61" style="fill: #bc513c;"/>
          <rect x="124.13" y="221.84" width="16.79" height="4.61" style="fill: #bc513c;"/>
          <rect x="124.13" y="228.24" width="16.79" height="4.61" style="fill: #bc513c;"/>
          <rect x="127.33" y="234.63" width="16.79" height="4.61" style="fill: #bc513c;"/>
          <rect x="124.13" y="241.03" width="16.79" height="4.61" style="fill: #bc513c;"/>
        </g>
        <g>
          <rect x="142.52" y="196.2" width="16.79" height="4.61" style="fill: #bc513c;"/>
          <rect x="144.12" y="202.6" width="16.79" height="4.61" style="fill: #bc513c;"/>
          <rect x="142.52" y="208.99" width="16.79" height="4.61" style="fill: #bc513c;"/>
          <rect x="147.32" y="215.39" width="16.79" height="4.61" style="fill: #bc513c;"/>
          <rect x="142.52" y="221.78" width="16.79" height="4.61" style="fill: #bc513c;"/>
          <rect x="142.52" y="228.18" width="16.79" height="4.61" style="fill: #bc513c;"/>
          <rect x="145.72" y="234.57" width="16.79" height="4.61" style="fill: #bc513c;"/>
          <rect x="142.52" y="240.97" width="16.79" height="4.61" style="fill: #bc513c;"/>
        </g>
        <g>
          <rect x="161.86" y="196.4" width="16.79" height="4.61" style="fill: #bc513c;"/>
          <rect x="163.46" y="202.79" width="16.79" height="4.61" style="fill: #bc513c;"/>
          <rect x="161.86" y="209.19" width="16.79" height="4.61" style="fill: #bc513c;"/>
          <rect x="166.66" y="215.58" width="16.79" height="4.61" style="fill: #bc513c;"/>
          <rect x="161.86" y="221.98" width="16.79" height="4.61" style="fill: #bc513c;"/>
          <rect x="161.86" y="228.37" width="16.79" height="4.61" style="fill: #bc513c;"/>
          <rect x="165.06" y="234.77" width="16.79" height="4.61" style="fill: #bc513c;"/>
          <rect x="161.86" y="241.16" width="16.79" height="4.61" style="fill: #bc513c;"/>
        </g>
        <g>
          <path d="m30.09,202.25c-7.07,0-12.8,7.19-12.8,16.06v21.6h25.61v-21.6c0-8.87-5.73-16.06-12.8-16.06Z" style="fill: #39828f;"/>
          <polygon points="40.59 209.5 17.49 222.02 17.49 233.21 42.59 220.67 42.59 211.22 40.59 209.5 40.59 209.5" style="fill: #619ba5;"/>
          <polygon points="17.49 234.62 42.59 222.21 42.59 224.46 17.49 236.55 17.49 234.62" style="fill: #619ba5;"/>
          <path d="m43.88,241.1H15.89v-22.79c0-9.51,6.28-17.25,13.99-17.25s13.99,7.74,13.99,17.25v22.79Zm-25.61-2.38h23.23v-20.42c0-8.2-5.21-14.87-11.62-14.87s-11.62,6.67-11.62,14.87v20.42Z" style="fill: #fff;"/>
        </g>
        <g>
          <rect x="85.51" y="208.81" width="25.42" height="24.17" style="fill: #39828f;"/>
          <polygon points="105.58 208.81 85.51 219.11 85.51 229.78 110.93 217.82 110.93 208.81 105.58 208.81 105.58 208.81" style="fill: #619ba5;"/>
          <polygon points="85.51 231.13 110.93 219.29 110.93 221.44 85.51 232.97 85.51 231.13" style="fill: #619ba5;"/>
          <rect x="97.02" y="208.81" width="2.08" height="24.17" style="fill: #dfc2c2;"/>
          <rect x="85.51" y="219.97" width="25.42" height="1.96" style="fill: #dfc2c2;"/>
          <rect x="85.51" y="206.63" width="25.42" height="2.18" style="fill: #fff;"/>
          <rect x="83.2" y="206.63" width="2.31" height="26.34" style="fill: #fff;"/>
          <rect x="110.93" y="206.63" width="2.46" height="26.34" style="fill: #fff;"/>
          <rect x="83.2" y="232.97" width="30.19" height="2.57" style="fill: #fff;"/>
        </g>
        <g>
          <rect x="123.72" y="208.81" width="25.42" height="24.17" style="fill: #39828f;"/>
          <polygon points="143.8 208.81 123.72 219.11 123.72 229.78 149.15 217.82 149.15 208.81 143.8 208.81 143.8 208.81" style="fill: #619ba5;"/>
          <polygon points="123.72 231.13 149.15 219.29 149.15 221.44 123.72 232.97 123.72 231.13" style="fill: #619ba5;"/>
          <rect x="135.24" y="208.81" width="2.08" height="24.17" style="fill: #dfc2c2;"/>
          <rect x="123.72" y="219.97" width="25.42" height="1.96" style="fill: #dfc2c2;"/>
          <rect x="123.72" y="206.63" width="25.42" height="2.18" style="fill: #fff;"/>
          <rect x="121.41" y="206.63" width="2.31" height="26.34" style="fill: #fff;"/>
          <rect x="149.15" y="206.63" width="2.46" height="26.34" style="fill: #fff;"/>
          <rect x="121.41" y="232.97" width="30.19" height="2.57" style="fill: #fff;"/>
        </g>
        <g>
          <rect x="2.77" y="252.79" width="16.79" height="5.34" style="fill: #d35c40;"/>
          <rect x="4.37" y="260.2" width="16.79" height="5.34" style="fill: #d35c40;"/>
          <rect x="2.77" y="267.6" width="16.79" height="5.34" style="fill: #d35c40;"/>
          <rect x="7.57" y="275" width="16.79" height="5.34" style="fill: #d35c40;"/>
          <rect x="2.77" y="282.41" width="16.79" height="5.34" style="fill: #d35c40;"/>
          <rect x="2.77" y="289.81" width="16.79" height="5.34" style="fill: #d35c40;"/>
          <rect x="5.97" y="297.22" width="16.79" height="5.34" style="fill: #d35c40;"/>
          <rect x="2.77" y="304.62" width="16.79" height="5.34" style="fill: #d35c40;"/>
        </g>
        <g>
          <rect x="21.96" y="252.79" width="16.79" height="5.34" style="fill: #d35c40;"/>
          <rect x="23.55" y="260.2" width="16.79" height="5.34" style="fill: #d35c40;"/>
          <rect x="21.96" y="267.6" width="16.79" height="5.34" style="fill: #d35c40;"/>
          <rect x="26.75" y="275" width="16.79" height="5.34" style="fill: #d35c40;"/>
          <rect x="21.96" y="282.41" width="16.79" height="5.34" style="fill: #d35c40;"/>
          <rect x="21.96" y="289.81" width="16.79" height="5.34" style="fill: #d35c40;"/>
          <rect x="25.15" y="297.22" width="16.79" height="5.34" style="fill: #d35c40;"/>
          <rect x="21.96" y="304.62" width="16.79" height="5.34" style="fill: #d35c40;"/>
        </g>
        <g>
          <rect x="41.14" y="252.79" width="16.79" height="5.34" style="fill: #d35c40;"/>
          <rect x="42.74" y="260.2" width="16.79" height="5.34" style="fill: #d35c40;"/>
          <rect x="41.14" y="267.6" width="16.79" height="5.34" style="fill: #d35c40;"/>
          <rect x="45.94" y="275" width="16.79" height="5.34" style="fill: #d35c40;"/>
          <rect x="41.14" y="282.41" width="16.79" height="5.34" style="fill: #d35c40;"/>
          <rect x="41.14" y="289.81" width="16.79" height="5.34" style="fill: #d35c40;"/>
          <rect x="44.34" y="297.22" width="16.79" height="5.34" style="fill: #d35c40;"/>
          <rect x="41.14" y="304.62" width="16.79" height="5.34" style="fill: #d35c40;"/>
        </g>
        <g>
          <path d="m27.07,261.71c-7.07,0-12.8,7.19-12.8,16.06v21.6h25.61v-21.6c0-8.87-5.73-16.06-12.8-16.06Z" style="fill: #39828f;"/>
          <polygon points="37.57 268.96 14.47 281.48 14.47 292.66 39.57 280.13 39.57 270.68 37.57 268.96 37.57 268.96" style="fill: #619ba5;"/>
          <polygon points="14.47 294.08 39.57 281.67 39.57 283.92 14.47 296.01 14.47 294.08" style="fill: #619ba5;"/>
          <path d="m40.86,300.56H12.87v-22.79c0-9.51,6.28-17.25,13.99-17.25s13.99,7.74,13.99,17.25v22.79Zm-25.61-2.38h23.23v-20.42c0-8.2-5.21-14.87-11.62-14.87s-11.62,6.67-11.62,14.87v20.42Z" style="fill: #fff;"/>
        </g>
        <g>
          <rect x="174.22" y="254.59" width="16.79" height="5.34" style="fill: #d35c40;"/>
          <rect x="175.82" y="262" width="16.79" height="5.34" style="fill: #d35c40;"/>
          <rect x="174.22" y="269.4" width="16.79" height="5.34" style="fill: #d35c40;"/>
          <rect x="179.01" y="276.8" width="16.79" height="5.34" style="fill: #d35c40;"/>
          <rect x="174.22" y="284.21" width="16.79" height="5.34" style="fill: #d35c40;"/>
          <rect x="174.22" y="291.61" width="16.79" height="5.34" style="fill: #d35c40;"/>
          <rect x="177.42" y="299.02" width="16.79" height="5.34" style="fill: #d35c40;"/>
          <rect x="174.22" y="306.42" width="16.79" height="5.34" style="fill: #d35c40;"/>
        </g>
        <g>
          <rect x="193.4" y="254.59" width="16.79" height="5.34" style="fill: #d35c40;"/>
          <rect x="195" y="262" width="16.79" height="5.34" style="fill: #d35c40;"/>
          <rect x="193.4" y="269.4" width="16.79" height="5.34" style="fill: #d35c40;"/>
          <rect x="198.2" y="276.8" width="16.79" height="5.34" style="fill: #d35c40;"/>
          <rect x="193.4" y="284.21" width="16.79" height="5.34" style="fill: #d35c40;"/>
          <rect x="193.4" y="291.61" width="16.79" height="5.34" style="fill: #d35c40;"/>
          <rect x="196.6" y="299.02" width="16.79" height="5.34" style="fill: #d35c40;"/>
          <rect x="193.4" y="306.42" width="16.79" height="5.34" style="fill: #d35c40;"/>
        </g>
        <g>
          <rect x="212.59" y="254.59" width="16.79" height="5.34" style="fill: #d35c40;"/>
          <rect x="214.19" y="262" width="16.79" height="5.34" style="fill: #d35c40;"/>
          <rect x="212.59" y="269.4" width="16.79" height="5.34" style="fill: #d35c40;"/>
          <rect x="217.38" y="276.8" width="16.79" height="5.34" style="fill: #d35c40;"/>
          <rect x="212.59" y="284.21" width="16.79" height="5.34" style="fill: #d35c40;"/>
          <rect x="212.59" y="291.61" width="16.79" height="5.34" style="fill: #d35c40;"/>
          <rect x="215.78" y="299.02" width="16.79" height="5.34" style="fill: #d35c40;"/>
          <rect x="212.59" y="306.42" width="16.79" height="5.34" style="fill: #d35c40;"/>
        </g>
        <path d="m209,262.16c-7.07,0-12.8,7.19-12.8,16.06v21.6h25.61v-21.6c0-8.87-5.73-16.06-12.8-16.06Z" style="fill: #39828f;"/>
        <polygon points="219.49 269.41 196.4 281.93 196.4 293.11 221.49 280.58 221.49 271.13 219.49 269.41 219.49 269.41" style="fill: #619ba5;"/>
        <polygon points="196.4 294.53 221.49 282.12 221.49 284.37 196.4 296.46 196.4 294.53" style="fill: #619ba5;"/>
        <path d="m222.78,301.01h-27.98v-22.79c0-9.51,6.28-17.25,13.99-17.25s13.99,7.74,13.99,17.25v22.79Zm-25.61-2.38h23.23v-20.42c0-8.2-5.21-14.87-11.62-14.87s-11.62,6.67-11.62,14.87v20.42Z" style="fill: #fff;"/>
        <rect x="106.55" y="273.59" width="21.92" height="40.18" style="fill: #39828f;"/>
        <polygon points="128.47 275.86 106.55 290.21 106.55 301.4 128.47 288.86 128.47 279.41 128.47 275.86 128.47 275.86" style="fill: #619ba5;"/>
        <polygon points="106.55 302.81 128.47 290.41 128.47 292.66 106.55 304.74 106.55 302.81" style="fill: #619ba5;"/>
        <rect x="68.12" y="255.46" width="98.54" height="2.14" style="fill: #e76542;"/>
        <g>
          <rect x="181.61" y="196.4" width="16.79" height="4.61" style="fill: #bc513c;"/>
          <rect x="183.21" y="202.79" width="16.79" height="4.61" style="fill: #bc513c;"/>
          <rect x="181.61" y="209.19" width="16.79" height="4.61" style="fill: #bc513c;"/>
          <rect x="186.41" y="215.58" width="16.79" height="4.61" style="fill: #bc513c;"/>
          <rect x="181.61" y="221.98" width="16.79" height="4.61" style="fill: #bc513c;"/>
          <rect x="181.61" y="228.37" width="16.79" height="4.61" style="fill: #bc513c;"/>
          <rect x="184.81" y="234.77" width="16.79" height="4.61" style="fill: #bc513c;"/>
          <rect x="181.61" y="241.16" width="16.79" height="4.61" style="fill: #bc513c;"/>
        </g>
        <g>
          <rect x="201.8" y="196.26" width="20.21" height="4.61" style="fill: #bc513c;"/>
          <rect x="203.72" y="202.66" width="20.21" height="4.61" style="fill: #bc513c;"/>
          <rect x="201.8" y="209.05" width="20.21" height="4.61" style="fill: #bc513c;"/>
          <rect x="207.57" y="215.45" width="20.21" height="4.61" style="fill: #bc513c;"/>
          <rect x="201.8" y="221.84" width="20.21" height="4.61" style="fill: #bc513c;"/>
          <rect x="201.8" y="228.24" width="20.21" height="4.61" style="fill: #bc513c;"/>
          <rect x="205.64" y="234.63" width="20.21" height="4.61" style="fill: #bc513c;"/>
          <rect x="201.8" y="241.03" width="20.21" height="4.61" style="fill: #bc513c;"/>
        </g>
        <g>
          <rect x="169.29" y="194.92" width="15.67" height="3.07" style="fill: #ffe1c7;"/>
          <rect x="172.64" y="197.99" width="8.97" height="117.29" style="fill: #ffe1c7;"/>
          <rect x="177.13" y="197.99" width="4.89" height="114.08" style="fill: #e5c8b3;"/>
        </g>
        <g>
          <path d="m204.19,202.25c-7.07,0-12.8,7.19-12.8,16.06v21.6h25.61v-21.6c0-8.87-5.73-16.06-12.8-16.06Z" style="fill: #39828f;"/>
          <polygon points="214.69 209.5 191.59 222.02 191.59 233.21 216.69 220.67 216.69 211.22 214.69 209.5 214.69 209.5" style="fill: #619ba5;"/>
          <polygon points="191.59 234.62 216.69 222.21 216.69 224.46 191.59 236.55 191.59 234.62" style="fill: #619ba5;"/>
          <path d="m217.98,241.1h-27.98v-22.79c0-9.51,6.28-17.25,13.99-17.25s13.99,7.74,13.99,17.25v22.79Zm-25.61-2.38h23.23v-20.42c0-8.2-5.21-14.87-11.62-14.87s-11.62,6.67-11.62,14.87v20.42Z" style="fill: #fff;"/>
        </g>
        <polygon points="182.02 197.99 181.85 250.53 201.8 250.53 182.02 197.99" style="opacity: .14;"/>
        <polygon points="201.8 250.53 227.77 313.96 181.61 315.28 181.85 250.53 201.8 250.53" style="opacity: .14;"/>
        <path d="m214.54,310.71c0-5.71-4.63-10.34-10.34-10.34-1.22,0-2.39.22-3.48.61-1-2.09-3.11-3.55-5.58-3.55-1.73,0-3.28.71-4.41,1.84-1.32-1.15-3.04-1.84-4.93-1.84-4.16,0-7.53,3.37-7.53,7.53,0,.01,0,.03,0,.04-5.61.43-10.03,5.11-10.03,10.83,0,6,4.87,10.87,10.87,10.87,2.87,0,5.48-1.12,7.42-2.94,1.62,1.68,3.75,2.7,6.08,2.7,1.62,0,3.14-.49,4.46-1.35,1.21.99,2.88,1.6,4.73,1.6,3.69,0,6.69-2.43,6.69-5.44,0-.38-.05-.74-.14-1.1,3.63-1.6,6.17-5.23,6.17-9.46Z" style="fill: #78912a;"/>
        <polygon points="62.84 195.42 62.66 249.92 82.94 249.92 62.84 195.42" style="opacity: .14;"/>
        <polygon points="82.94 249.92 109.34 315.7 62.17 315.28 62.66 249.92 82.94 249.92" style="opacity: .14;"/>
        <g>
          <rect x="50.03" y="312.07" width="15.67" height="3.41" style="fill: #ffe1c7;"/>
          <rect x="49.85" y="194.92" width="15.67" height="3.07" style="fill: #ffe1c7;"/>
          <rect x="53.2" y="197.99" width="8.97" height="117.29" style="fill: #ffe1c7;"/>
          <rect x="57.69" y="197.99" width="4.89" height="114.08" style="fill: #e5c8b3;"/>
        </g>
        <path d="m69.98,307.55c0-5.71-4.63-10.34-10.34-10.34-1.22,0-2.39.22-3.48.61-1-2.09-3.11-3.55-5.58-3.55-1.73,0-3.28.71-4.41,1.84-1.32-1.15-3.04-1.84-4.93-1.84-4.16,0-7.53,3.37-7.53,7.53,0,.01,0,.03,0,.04-5.61.43-10.03,5.11-10.03,10.83,0,6,4.87,10.87,10.87,10.87,2.87,0,5.48-1.12,7.42-2.94,1.62,1.68,3.75,2.7,6.08,2.7,1.62,0,3.14-.49,4.46-1.35,1.21.99,2.88,1.6,4.73,1.6,3.69,0,6.69-2.43,6.69-5.44,0-.38-.05-.74-.14-1.1,3.63-1.6,6.17-5.23,6.17-9.46Z" style="fill: #78912a;"/>
      </g>
    </g>
  </g>
</svg>