<?xml version="1.0" encoding="UTF-8"?>
<svg id="_圖層_2" data-name="圖層 2" xmlns="http://www.w3.org/2000/svg" width="50.04" height="50.03" viewBox="0 0 50.04 50.03">
  <g id="_圖層_6" data-name="圖層 6">
    <g>
      <path d="m28.37,14.03c-1.83-1.83-4.25-2.83-6.84-2.83s-5.01,1.01-6.84,2.83c-3.77,3.77-3.77,9.91,0,13.68,1.83,1.83,4.25,2.83,6.84,2.83s5.01-1.01,6.84-2.83c3.77-3.77,3.77-9.91,0-13.68Zm-1.02,3.82c-.24.27-.58.4-.91.4-.3,0-.6-.11-.84-.33-3.56-3.26-7.37-1.56-7.41-1.54-.62.29-1.36.02-1.65-.61-.29-.62-.02-1.36.61-1.65.22-.1,5.36-2.4,10.12,1.96.5.46.54,1.25.08,1.75Z" style="fill: #fff;"/>
      <path d="m25.02,0C11.2,0,0,11.2,0,25.02s11.2,25.02,25.02,25.02,25.02-11.2,25.02-25.02S38.83,0,25.02,0Zm15.27,39.63c-.24.24-.56.36-.88.36s-.63-.12-.88-.36l-9.34-9.34c-2.16,1.77-4.84,2.73-7.67,2.73-3.25,0-6.3-1.26-8.59-3.56-4.74-4.74-4.74-12.45,0-17.18,2.29-2.29,5.35-3.56,8.59-3.56s6.3,1.26,8.59,3.56c4.44,4.44,4.72,11.49.83,16.26l9.34,9.34c.48.48.48,1.27,0,1.75Z" style="fill: #fff;"/>
    </g>
  </g>
</svg>