<?xml version="1.0" encoding="UTF-8"?>
<svg id="_圖層_2" data-name="圖層 2" xmlns="http://www.w3.org/2000/svg" width="69.32" height="23.27" xmlns:xlink="http://www.w3.org/1999/xlink" viewBox="0 0 69.32 23.27">
  <defs>
    <linearGradient id="linear-gradient" x1="14.92" y1="31.37" x2="54.4" y2="-8.1" gradientUnits="userSpaceOnUse">
      <stop offset="0" stop-color="#1977f3"/>
      <stop offset="1" stop-color="#4792f5"/>
    </linearGradient>
    <linearGradient id="linear-gradient-2" x1="8.27" y1="11.63" x2="14.51" y2="11.63" xlink:href="#linear-gradient"/>
  </defs>
  <g id="_第一cut" data-name="第一cut">
    <g id="facebook">
      <g>
        <rect id="frame" x="0" y="0" width="69.32" height="23.27" rx="11.63" ry="11.63" style="fill: url(#linear-gradient);"/>
        <g>
          <circle id="white_circle" data-name="white circle" cx="11.39" cy="11.63" r="9.72" style="fill: #fff;"/>
          <path id="logo" d="m13.53,7.34h.97v-1.82s0,0,0,0c-.59-.08-1.22-.14-1.81-.13-.41,0-.81.1-1.17.29-.72.37-1.23,1.08-1.36,1.88-.02.14-.03.28-.03.43v1.82h-1.85v2.11h1.85v5.95h2.27v-5.95h1.79l.29-2.11h-2.08v-1.34c0-.63.51-1.14,1.14-1.14Z" style="fill: url(#linear-gradient-2);"/>
        </g>
        <g>
          <path d="m25.48,15.21l1.02-1.22c.64.59,1.47.98,2.25.98.92,0,1.42-.4,1.42-1.02,0-.66-.54-.86-1.33-1.2l-1.19-.5c-.9-.37-1.8-1.09-1.8-2.39,0-1.45,1.27-2.57,3.07-2.57,1.03,0,2.06.41,2.78,1.14l-.9,1.12c-.56-.47-1.15-.73-1.88-.73-.78,0-1.27.35-1.27.94,0,.64.62.86,1.38,1.16l1.16.49c1.08.44,1.79,1.13,1.79,2.41,0,1.45-1.21,2.69-3.26,2.69-1.19,0-2.38-.47-3.24-1.29Z" style="fill: #fff;"/>
          <path d="m33.42,6.77h1.76v2.41l-.08,1.26c.54-.5,1.2-.98,2.11-.98,1.45,0,2.08,1.01,2.08,2.7v4.19h-1.76v-3.97c0-1.04-.29-1.4-.95-1.4-.55,0-.9.26-1.39.76v4.62h-1.76V6.77Z" style="fill: #fff;"/>
          <path d="m40.76,14.51c0-1.44,1.16-2.19,3.87-2.48-.04-.66-.32-1.16-1.15-1.16-.62,0-1.22.28-1.85.64l-.64-1.16c.79-.49,1.75-.89,2.81-.89,1.7,0,2.58,1.02,2.58,2.96v3.92h-1.44l-.12-.72h-.05c-.59.5-1.26.89-2.03.89-1.2,0-1.99-.85-1.99-1.99Zm3.87-.05v-1.36c-1.64.2-2.19.66-2.19,1.26,0,.53.37.76.89.76s.88-.24,1.31-.66Z" style="fill: #fff;"/>
          <path d="m48.19,9.62h1.44l.13,1.19h.04c.49-.88,1.21-1.35,1.91-1.35.37,0,.59.06.79.14l-.3,1.52c-.24-.07-.43-.11-.71-.11-.53,0-1.16.35-1.54,1.32v4.01h-1.76v-6.72Z" style="fill: #fff;"/>
          <path d="m52.85,12.98c0-2.17,1.54-3.53,3.13-3.53,1.85,0,2.81,1.35,2.81,3.2,0,.34-.04.66-.08.82h-4.14c.14,1.1.86,1.68,1.86,1.68.55,0,1.03-.17,1.51-.47l.6,1.08c-.66.46-1.51.74-2.34.74-1.88,0-3.35-1.31-3.35-3.53Zm4.43-.68c0-.9-.41-1.47-1.27-1.47-.71,0-1.33.5-1.46,1.47h2.73Z" style="fill: #fff;"/>
        </g>
      </g>
    </g>
  </g>
</svg>