<?xml version="1.0" encoding="utf-8"?>
<!-- Generator: Adobe Illustrator 27.5.0, SVG Export Plug-In . SVG Version: 6.00 Build 0)  -->
<svg version="1.1" id="_圖層_2" xmlns="http://www.w3.org/2000/svg" xmlns:xlink="http://www.w3.org/1999/xlink" x="0px" y="0px"
	 width="391.2px" height="391.2px" viewBox="0 0 391.2 391.2" style="enable-background:new 0 0 391.2 391.2;" xml:space="preserve"
	>
<style type="text/css">
	.st0{fill:#0AA07D;}
	.st1{opacity:0.1;enable-background:new    ;}
	.st2{opacity:0.15;fill:#FFFFFF;enable-background:new    ;}
	.st3{clip-path:url(#SVGID_00000016765650969900004110000014606516017965405341_);}
	.st4{fill:#ABE7FF;}
	.st5{fill:#FFFFFF;}
	.st6{fill:#589FEF;}
	.st7{fill:#EBEBEB;}
	.st8{fill:#F4F4F4;}
	.st9{fill:#82B6FF;}
	.st10{fill:#FFCE6D;}
	.st11{fill:#FFE76B;}
	.st12{fill:#FFA4C6;}
	.st13{fill:#FB86B6;}
	.st14{opacity:0.5;fill:#FFA4C6;enable-background:new    ;}
	.st15{fill:#17E5BB;}
	.st16{fill:#00CC9E;}
	.st17{fill:#7688EB;}
	.st18{opacity:0.5;fill:#17E5BB;enable-background:new    ;}
	.st19{fill:#00A6E7;}
	.st20{opacity:0.5;fill:#00A6E7;enable-background:new    ;}
	.st21{fill:#005E9D;}
	.st22{fill:#F19000;}
	.st23{fill:#FFCB43;}
	.st24{opacity:0.5;fill:#FFE76B;enable-background:new    ;}
	.st25{opacity:0.5;fill:#FFCB43;enable-background:new    ;}
	.st26{fill:#007FB7;}
	.st27{fill:#DFF6FF;}
	.st28{fill:none;}
	.st29{fill:#1C1C1B;}
</style>
<g>
	<g>
		<g>
			<path class="st0" d="M1.8,0v187.9c0,83.9,73.3,152,163.8,152h202.5V152c0-83.9-73.3-152-163.8-152H1.8z"/>
		</g>
	</g>
	<path class="st1" d="M1.8,68.5v119.3c0,83.9,73.3,152,163.8,152h202.5v-4.6C187.3,283.5,65.8,154.6,1.8,68.5z"/>
	<path class="st2" d="M1.8,0v3.6C59.3,13.9,241.2,58.7,368.1,226v-74c0-83.9-73.3-152-163.8-152H1.8z"/>
</g>
<g>
	<g>
		<rect x="366.1" y="116.2" class="st0" width="25.1" height="275"/>
	</g>
</g>
<g>
	<g>
		<g>
			<defs>
				<path id="SVGID_1_" d="M215.4,304.8h-56.1c-69.1,0-125.6-56.5-125.6-125.6V41.6h125.6h56.1c69.1,0,125.6,56.5,125.6,125.6v137.5
					L215.4,304.8L215.4,304.8z"/>
			</defs>
			<clipPath id="SVGID_00000106865471980854725700000012960244774476978612_">
				<use xlink:href="#SVGID_1_"  style="overflow:visible;"/>
			</clipPath>
			<g style="clip-path:url(#SVGID_00000106865471980854725700000012960244774476978612_);">
				<rect x="14.9" y="23" class="st4" width="358.3" height="358.3"/>
				<path class="st5" d="M-8.8,168.5C-11.3,159-7,148,1.6,143.4s20.8-1.5,25.5,7.1l0.5-0.7c1.3-1.6,3.6-2,5.4-1.1l3.7,2
					c1.8-11,15.7-16.4,26.5-13.5c10.8,3,18.9,11.5,26.5,19.8c0.7-7.7,11.1-11.2,18.1-8c7,3.2,11.1,10.5,14.5,17.5l20.5,5.6H-20.4
					L-8.8,168.5z"/>
				<path class="st5" d="M399.2,54.6c-0.5-4.5-2.4-9.1-6.2-11.5c-3.8-2.4-9.5-2-12.1,1.7c-0.4-3.3-6.1-3.9-7.2-0.8
					c2.6-7.1-2.3-15.4-9.3-18.2s-15.2-1-21.5,3.1S331.8,39,327.3,45.1l0,0c-1.1-2.3-3.8-3.6-6.2-2.7H321c1.5-3.4-2.2-7.3-5.9-7.4
					c-3.7-0.1-7,2.2-9.8,4.7c-4,3.5-7,10.1-10.3,14.3l-16,4.8h132.6L399.2,54.6z"/>
				<path class="st5" d="M364.8,236.3c-8.2,2.7-13.8,11.5-13,20.1c-7.3-5-17.1-5.8-25.2-2.2c-12.6,5.7-18.5,20.2-21,33.7
					c-7.2-3.4-16.9,2.8-16.8,10.7c-8.1-6.3-19.9-7.4-29-2.7c-9.1,4.7-15.1,14.9-14.7,25.1c-5.3-3.1-13-0.1-14.9,5.7
					c-5.2-6.8-14.1-10.5-22.6-9.3s-16.1,7.1-19.2,15c-2.7-3.6-8.4-4.2-11.8-1.4c-4.2-9.6-10.9-18.1-19.3-24.4c-4.4-3.3-9.5-6-15-6.3
					s-11.4,2.5-13.5,7.5c-1.5-4.4-6.4-7.3-11.1-6.6c-5.9-10.6-13-21.3-23.7-26.9c-10.8-5.6-26-4.2-32.6,6c-0.1-4.4-5.6-7.6-9.5-5.6
					c2.6-11.8-8.8-23.7-20.9-23.9s-23,9-27.6,20.2v114.2h383.8V244.6C382.8,237.2,373,233.6,364.8,236.3z"/>
				<g>
					<path class="st6" d="M325.7,92c0,0-5.6,2.6-9.3,5.7c0-1.4,3.3-7.5,3.3-7.5l4-1.2L325.7,92z"/>
					<g>
						<path class="st5" d="M296.2,91.7c0,0-0.7-5.9,3.7-7.7c4.4-1.8,27.7-7.5,27.7-7.5s-6.1,4.9-3.5,11.3
							c-1.1,0.9-27.9,7.6-27.9,7.6V91.7z"/>
					</g>
					<g>
						<path class="st7" d="M327.5,76.5c0,0,5.1-1.8,10.4,4.1l0.6,3.9c0,0-12.5-11.8-13.8,6.1c0,0-2.7-3.5-2.5-6.5
							C322.2,81.2,325,76.7,327.5,76.5z"/>
					</g>
					<g>
						<path class="st8" d="M323.5,86.5c0,0-3.6-8.8,7.9-17.8l-30.8,8.4c0,0-6.2,4.7-4.5,14.6L323.5,86.5z"/>
					</g>
					<path class="st7" d="M321.7,85.5c0,0,1.7-0.4,2.1,4c-1.6,0.7-6.8,3.3-5.9,18.7l-3.5,1C314.3,109.3,309.5,92.6,321.7,85.5z"/>
					<path class="st5" d="M321.7,85.5c0,0-17.6,1.7-30.4,8.4c0,0-10.9,9-7.4,24l30.4-8.6C314.3,109.3,311.8,91,321.7,85.5z"/>
					<path class="st9" d="M322.7,89.3c0,0-0.5-1.9,0.9-2.8c1.4-1,3,1.8,2.9,4C326.3,92.6,323.8,93.5,322.7,89.3z"/>
					<g>
						<g>
							<path class="st9" d="M309,106.2c-0.2,0-0.4-0.1-0.4-0.3c-1.2-12.1,4.3-16.9,4.5-17.1c0.2-0.1,0.4-0.1,0.5,0
								c0.1,0.2,0.1,0.4,0,0.5c-0.1,0-5.4,4.8-4.3,16.5C309.3,106,309.2,106.2,309,106.2L309,106.2z"/>
						</g>
						<g>
							<path class="st9" d="M303,107.8c-0.2,0-0.4-0.1-0.4-0.3c-1.2-12.1,4.3-16.9,4.5-17.1c0.2-0.1,0.4-0.1,0.5,0
								c0.1,0.2,0.1,0.4,0,0.5c-0.1,0-5.4,4.8-4.3,16.5C303.5,107.6,303.2,107.8,303,107.8L303,107.8z"/>
						</g>
						<g>
							<path class="st9" d="M297,109.4c-0.2,0-0.4-0.1-0.4-0.3C295.5,97,301,92.2,301.2,92c0.2-0.1,0.4-0.1,0.5,0
								c0.1,0.2,0.1,0.4,0,0.5c-0.1,0-5.4,4.8-4.3,16.5C297.5,109.2,297.3,109.4,297,109.4C297.2,109.4,297,109.4,297,109.4z"/>
						</g>
						<g>
							<path class="st9" d="M291.2,111c-0.2,0-0.4-0.1-0.4-0.3c-1.2-12.1,4.3-16.9,4.5-17.1c0.2-0.1,0.4-0.1,0.5,0
								c0.1,0.2,0.1,0.4,0,0.5c-0.1,0-5.4,4.8-4.3,16.5C291.5,110.8,291.3,111,291.2,111L291.2,111z"/>
						</g>
					</g>
					<g>
						<path class="st9" d="M320.2,79.8L320.2,79.8c-0.3,0-0.4-0.2-0.4-0.5c0.7-3.5,4.3-7,4.5-7.2c0.1-0.1,0.4-0.1,0.5,0
							c0.1,0.1,0.1,0.4,0,0.5c0,0-3.6,3.5-4.2,6.8C320.5,79.6,320.3,79.8,320.2,79.8z"/>
					</g>
					<g>
						<path class="st9" d="M314.5,84.5c-0.2,0-0.4-0.2-0.4-0.4c-0.1-5.7,4.4-10.3,4.6-10.5c0.1-0.1,0.4-0.1,0.5,0
							c0.1,0.1,0.1,0.4,0,0.5c0,0-4.5,4.5-4.3,9.9C315,84.3,314.8,84.5,314.5,84.5L314.5,84.5z"/>
					</g>
					<g>
						<path class="st9" d="M309.7,85.7c-0.2,0-0.4-0.2-0.4-0.4c-0.1-5.7,4.4-10.3,4.6-10.5c0.1-0.1,0.4-0.1,0.5,0
							c0.1,0.1,0.1,0.4,0,0.5c0,0-4.5,4.5-4.3,9.9C310,85.5,309.8,85.6,309.7,85.7L309.7,85.7z"/>
					</g>
					<g>
						<path class="st9" d="M304.7,86.8c-0.2,0-0.4-0.2-0.4-0.4c-0.1-5.7,4.4-10.3,4.6-10.5c0.1-0.1,0.4-0.1,0.5,0
							c0.1,0.1,0.1,0.4,0,0.5c0,0-4.5,4.5-4.3,9.9C305,86.7,304.8,86.8,304.7,86.8L304.7,86.8z"/>
					</g>
					<g>
						<path class="st9" d="M299.8,88c-0.2,0-0.4-0.2-0.4-0.4c-0.1-5.7,4.4-10.3,4.6-10.5c0.1-0.1,0.4-0.1,0.5,0
							c0.1,0.1,0.1,0.4,0,0.5c0,0-4.5,4.5-4.3,9.9C300.2,87.9,300,88,299.8,88L299.8,88z"/>
					</g>
				</g>
				<g>
					<path class="st10" d="M38.8,226.2c0,0,5.9,2.8,9.7,6c0-1.5-3.5-7.9-3.5-7.9l-4.2-1.2L38.8,226.2z"/>
					<g>
						<path class="st5" d="M69.8,225.9c0,0,0.8-6.2-3.9-8c-4.6-1.9-29.1-7.9-29.1-7.9s6.4,5.2,3.6,11.9c1.2,0.9,29.2,8,29.2,8
							L69.8,225.9z"/>
					</g>
					<g>
						<path class="st7" d="M36.9,210c0,0-5.3-1.9-10.9,4.3l-0.6,4.1c0,0,13.1-12.4,14.5,6.4c0,0,2.8-3.6,2.6-6.8
							C42.4,214.8,39.5,210.2,36.9,210z"/>
					</g>
					<g>
						<path class="st8" d="M41.1,220.4c0,0,3.7-9.2-8.3-18.6l32.3,8.8c0,0,6.5,4.9,4.7,15.3L41.1,220.4z"/>
					</g>
					<path class="st7" d="M43.1,219.4c0,0-1.7-0.4-2.2,4.2c1.7,0.7,7.1,3.5,6.2,19.6l3.6,1.1C50.7,244.3,55.7,226.8,43.1,219.4z"/>
					<path class="st5" d="M43.1,219.4c0,0,18.4,1.8,31.8,8.8c0,0,11.4,9.4,7.7,25.1l-31.9-9C50.7,244.3,53.4,225.2,43.1,219.4z"/>
					<path class="st11" d="M42,223.4c0,0,0.5-1.9-0.9-3c-1.4-1-3.2,1.9-3.1,4.2C38.1,226.9,40.9,227.8,42,223.4z"/>
					<g>
						<g>
							<path class="st11" d="M56.2,241.1c0.2,0,0.4-0.2,0.4-0.4c1.2-12.7-4.5-17.8-4.7-18c-0.2-0.1-0.4-0.1-0.6,0
								c-0.1,0.2-0.1,0.4,0,0.6c0.1,0,5.7,5.1,4.5,17.3C55.9,240.9,56.1,241.1,56.2,241.1L56.2,241.1z"/>
						</g>
						<g>
							<path class="st11" d="M62.6,242.8c0.2,0,0.4-0.2,0.4-0.4c1.2-12.7-4.5-17.8-4.7-18c-0.2-0.1-0.4-0.1-0.6,0
								c-0.1,0.2-0.1,0.4,0,0.6c0.1,0,5.7,5.1,4.5,17.3C62.1,242.6,62.2,242.8,62.6,242.8C62.5,242.8,62.6,242.8,62.6,242.8z"/>
						</g>
						<g>
							<path class="st11" d="M68.8,244.5c0.2,0,0.4-0.2,0.4-0.4c1.2-12.7-4.5-17.8-4.7-18c-0.2-0.1-0.4-0.1-0.6,0
								c-0.1,0.2-0.1,0.4,0,0.6c0.1,0,5.7,5.1,4.5,17.3C68.4,244.3,68.6,244.5,68.8,244.5L68.8,244.5z"/>
						</g>
						<g>
							<path class="st11" d="M75.1,246.2c0.2,0,0.4-0.2,0.4-0.4c1.2-12.7-4.5-17.8-4.7-18c-0.2-0.1-0.4-0.1-0.6,0
								c-0.1,0.2-0.1,0.4,0,0.6c0.1,0,5.7,5.1,4.5,17.3C74.6,245.9,74.8,246.1,75.1,246.2C75,246.2,75,246.2,75.1,246.2z"/>
						</g>
					</g>
					<g>
						<path class="st11" d="M44.6,213.4C44.7,213.4,44.7,213.4,44.6,213.4c0.3-0.1,0.4-0.3,0.4-0.5c-0.7-3.7-4.5-7.4-4.7-7.5
							c-0.2-0.2-0.4-0.1-0.6,0c-0.2,0.2-0.1,0.4,0,0.6c0,0,3.8,3.7,4.4,7.1C44.3,213.3,44.4,213.4,44.6,213.4z"/>
					</g>
					<g>
						<path class="st11" d="M50.5,218.3c0.2,0,0.4-0.2,0.4-0.4c0.1-6-4.6-10.8-4.8-11s-0.4-0.2-0.6,0c-0.2,0.2-0.2,0.4,0,0.6
							c0,0,4.7,4.7,4.6,10.4C50.1,218.1,50.2,218.3,50.5,218.3L50.5,218.3z"/>
					</g>
					<g>
						<path class="st11" d="M55.7,219.6c0.2,0,0.4-0.2,0.4-0.4c0.1-6-4.6-10.8-4.8-11c-0.2-0.2-0.4-0.2-0.6,0s-0.2,0.4,0,0.6
							c0,0,4.7,4.7,4.6,10.4C55.2,219.4,55.4,219.6,55.7,219.6L55.7,219.6z"/>
					</g>
					<g>
						<path class="st11" d="M60.9,220.8c0.2,0,0.4-0.2,0.4-0.4c0.1-6-4.6-10.8-4.8-11c-0.2-0.2-0.4-0.2-0.6,0s-0.2,0.4,0,0.6
							c0,0,4.7,4.7,4.6,10.4C60.5,220.6,60.6,220.8,60.9,220.8C60.8,220.8,60.8,220.8,60.9,220.8z"/>
					</g>
					<g>
						<path class="st11" d="M66,222.1c0.2,0,0.4-0.2,0.4-0.4c0.1-6-4.6-10.8-4.8-11c-0.2-0.2-0.4-0.2-0.6,0s-0.2,0.4,0,0.6
							c0,0,4.7,4.7,4.6,10.4C65.6,221.9,65.8,222.1,66,222.1L66,222.1z"/>
					</g>
				</g>
				<g>
					<path class="st5" d="M346.7,194.8c0,0-2.1-7.2,1.8-21.2c0,0-15.5,12.3-26,30l12.1,5.9C334.5,209.4,341,199.4,346.7,194.8z"/>
					<path class="st7" d="M348.5,173.6l1.1,0.5c0,0-3.4,12.8-2.1,22.4l-2.3-2.2C345.2,194.2,345.5,178.3,348.5,173.6z"/>
					<path class="st8" d="M345.2,194.2c0,0-7.6-12.6-4.6-21.3c0,0-17,17-22.7,30.4l15.6,8.1L345.2,194.2z"/>
					<path class="st5" d="M344.7,195.9c0,0-7.9-6.2-10.6-21.7c-3.4,2.1-19.5,18.1-23.1,28.6l18.3,8.6L344.7,195.9z"/>
					<path class="st12" d="M292,214.7c0,0,17.1-1.5,30.5,4.9l19.1-21c0,0-12.7-10.8-24.7-8.6C316.8,189.9,295.8,207.9,292,214.7z"/>
					<path class="st8" d="M316.8,189.9l-0.5-1.8c0,0,14.7-1.5,25.3,9c0,0,0.5,0.9-0.1,1.5C341.5,198.5,328.8,188.4,316.8,189.9z"/>
					<path class="st5" d="M316.3,188.1c0,0-17,12.5-25.6,25.4l1.3,1.2c0,0,17.9-18.5,24.9-24.7L316.3,188.1z"/>
					<path class="st13" d="M322.5,219.6c0,0,0.6,2.5,3.7,1.9l20.5-22c0,0-4.5-1.5-5.1-0.9C341,199.1,322.5,219.6,322.5,219.6z"/>
					<path class="st11" d="M334.5,199c-2.2-1.8-7.8-5.6-15.5-5.7c-0.4,0-0.7,0.1-1,0.4l-3,3.1c-0.7,0.7-0.3,2,0.7,2.2
						c3.7,0.7,10.7,2.4,14.3,5.4c0.5,0.5,1.4,0.4,1.8-0.2l2.9-3.3C335.2,200.4,335,199.5,334.5,199z"/>
					<path class="st14" d="M338,202.4c-18.5,12.8-44.7,10.9-45.2,10.8c-0.4,0.5-0.7,1-0.9,1.4c0,0,17.1-1.5,30.5,4.9L338,202.4z"/>
					<path class="st12" d="M341.5,198.5c0,0,2.9,2.3,5.1,0.9c2.2-1.4,0-4.7,0-4.7s-2.5-1.3-3.9,0
						C341.3,196.2,341.5,198.5,341.5,198.5z"/>
				</g>
				<g>
					<path class="st5" d="M104.6,108.9c0,0,6.6-3.3,21.1-2c0,0-14.9-13-34.1-20.1l-3.5,12.9C88.1,99.7,99,104.3,104.6,108.9z"/>
					<path class="st7" d="M125.7,106.9l-0.3,1.1c0,0-13.2-1-22.3,2l1.8-2.7C104.9,107.3,120.6,104.8,125.7,106.9z"/>
					<path class="st8" d="M104.9,107.3c0,0,10.9-9.7,20.1-8.3c0,0-19.7-13.6-33.9-16.7L86,99L104.9,107.3z"/>
					<path class="st5" d="M103.2,107.1c0,0,4.7-8.9,19.4-14.4c-2.7-2.9-21.3-15.8-32.2-17.5l-5.1,19.5L103.2,107.1z"/>
					<path class="st15" d="M75.2,58.9c0,0,4.6,16.5,0.7,30.8l24.1,14.9c0,0,8.3-14.4,4-25.8C104,78.8,82.5,61.4,75.2,58.9z"/>
					<path class="st8" d="M104,78.8l1.7-0.8c0,0,4.2,14.2-4.2,26.5c0,0-0.8,0.6-1.5,0.2C100,104.6,107.7,90.2,104,78.8z"/>
					<path class="st5" d="M105.7,78c0,0-15.3-14.4-29.5-20.5l-1,1.5c0,0,21.4,14.2,28.8,19.9L105.7,78z"/>
					<path class="st16" d="M76,89.7c0,0-2.4,1.1-1.2,4l25.3,16.1c0,0,0.7-4.7,0-5.1C99.2,104.2,76,89.7,76,89.7z"/>
					<path class="st17" d="M86.2,89.6c1-2.6,2.9-9.1,0.7-16.5c-0.1-0.3-0.4-0.6-0.7-0.8l-3.8-1.9c-0.9-0.5-2,0.3-1.9,1.3
						c0.5,3.7,1,10.9-0.8,15.2c-0.3,0.6,0.1,1.4,0.7,1.7l4,1.7C85.1,90.6,85.9,90.3,86.2,89.6z"/>
					<path class="st15" d="M100,104.6c0,0-1.8,3.2,0,5.1s4.6-0.8,4.6-0.8s0.9-2.7-0.7-3.9C102.2,103.9,100,104.6,100,104.6z"/>
					<path class="st18" d="M79.6,92l20.4,12.6c0,0,7.1-12.3,4.7-23.2C96.7,93.1,85.9,93.2,79.6,92z"/>
				</g>
				<g>
					<g>
						<circle class="st5" cx="194.1" cy="182.8" r="110.7"/>
						<circle class="st19" cx="194.1" cy="182.8" r="101.2"/>
						<g>
							<path class="st15" d="M205.2,192.9c1.3,0.3,2.7,0.6,3.7,1.6c2.2,2.3,0.5,6.3,1.9,9.2c0.5,1.1,1.4,1.9,2.2,2.8
								c5.5,6.3,4.2,16.1,6.3,24c0.4,1.7,1.5,3.2,3,4.1c3.3,1.8,6.2-0.6,8.5-2.9c3.1-3,6.4-6.8,5.5-11c-0.3-1.4-1.1-2.7-1.2-4.2
								c-0.1-2.6,2.3-4.5,3.2-6.9c1.7-4.3-1-9.2,0.1-13.6c1.2-5,7.2-8.8,6.1-13.9c-0.4-1.9-1.7-3.5-1.8-5.4c-0.2-2.8,2.2-5,4.1-7
								c1.3-1.4,2.5-3.5,2.4-5.3c0-1.9,1.9-3.1,3.7-2.5c0.3,0.1,0.7,0.3,1,0.5c3.4,2,5.7,5.6,8,8.8s5.6,6,8.1,0.7
								c0.9-2,1.2-4.4,2.6-6.1c0.4-0.4,0.8-0.8,1.4-0.9c0.4,0,0.8,0.1,1.1,0.3c2.6,1.3,4.1,4.2,5.9,6.5s5,4.3,7.6,3
								c3.2-1.6,2.8-6.7,0.7-9.3c-0.8-0.9-1-2.2-0.6-3.4c0.5-1.4,1.7-1.3,2.8-1.5c0.4-0.1,0.8-0.2,1.1-0.3
								c-5.9-25.9-21.7-47.9-43.2-62.1c-0.1,0-0.2,0.1-0.3,0.1c-1.5,0.8-2.4,2.4-3.5,3.8c-2.4,3.3-5.5,6.1-9.3,7.5
								c-8,2.9-16.9-1-25.2,0.6c-6.3,1.3-12.1,6.7-11.8,13c0.1,1.5,0.4,3,0.4,4.4c-0.1,1.5-0.8,3.1-2.2,3.6
								c-0.9,0.3-3.4-4.8-6.4-2.2c-2.3,2-1.7,6.8,0,8.9c1.6,2.1,4.7,4,3.9,6.5c-0.5,1.8-2.9,3.5-1.6,5c0.3,0.4,0.8,0.6,1.3,0.7
								c3.3,0.4,6.8-0.8,9.1-3.2c0.9-1,1.7-2.2,3.1-2.6c0.7-0.2,1.5-0.1,2,0.4c1.4,1.2-0.4,3.2,0.9,4.3c0.3,0.3,0.7,0.4,1.1,0.4
								c3,0.2,5.8-1.6,9-1.1c1,0.2,1.9,0.6,2.6,1.4c2.1,2.5-0.4,5.7-3.1,6.3c-2.4,0.5-4.8-0.4-7.2-1.2c-5.6-1.9-12.3-3-17.2,0.4
								c-5.2,3.6-6.3,10.8-6.1,17.1c0.1,4.5,0.7,8.9,1.7,13.2c0.3,1.6,0.8,3.2,2.1,4.2c0.8,0.6,1.8,0.8,2.8,1
								C198.8,191.4,201.9,192.1,205.2,192.9z"/>
							<path class="st15" d="M159.6,274.7c-1-2.4-1.1-5.2-0.3-7.7c1-3.2,3.4-5.8,4.3-9c1.2-4.2-0.3-9.1,1.7-12.9
								c1.2-2.3,3.4-3.8,5.2-5.6c1.8-1.9,3.2-4.6,2.2-6.9c-0.5-1.1-1.5-2-1.8-3.2c-0.3-1.3,0.1-2.6,0.4-3.9
								c1.3-6.4-3.6-13.5-10.1-14.3c-3.8-0.4-8,1.1-11.4-0.7c-2.3-1.2-3.7-3.5-5.4-5.4s-4.4-3.6-6.8-2.7c-0.9,0.3-1.7,1-2.6,1.1
								c-1.7,0.3-3.1-1.2-4.7-1.8c-2.1-0.8-4.5-0.1-6.2,1.2c-1.8,1.3-3,3.2-4.2,5.1c-4.4,7-10.4,13.6-5.4,21.9
								c1,1.7,2.6,3.2,4.5,3.7c0.9,0.2,1.9,0.2,2.7,0.6c2.6,1.2,2.4,4.9,4.2,7.1c0.8,1,2.1,1.6,3.2,2.2c4.2,2.6,7.4,7.4,8,12.3
								c0.6,5,2.4,9.8,5.2,13.9c5.8,3.5,11.9,6.3,18.4,8.6C160.7,277.2,160.1,275.8,159.6,274.7z"/>
							<path class="st15" d="M277.3,191.5c-1.3-1.5-2.4-3.2-4-4.4c-1.8-1.3-4.7-0.8-4.4,1.5c0,0.2,0.1,0.5,0.3,0.8
								c1.2,2.6,4.2,4.1,6,6.2c0.9,1.1,1.6,2.3,2.3,3.5c1.7,2.8,2.8,6.2,6.3,7.1c2,0.5,4.5-0.5,4.9-2.5c0.3-1.5-0.7-3-1.8-4.2
								C284,196.5,280.2,194.6,277.3,191.5z"/>
							<path class="st15" d="M292,181.2c-1.1,1-1,2.6-1.4,4.1c-0.4,1.7-1.4,3-2.7,4.1c-2.2,1.9-1.6,4.1,0,6.2c1,1.3,2.1,2.4,3.3,3.4
								c0.4,0.3,0.9,0.7,1.4,0.9s0.9,0.3,1.3,0.4c1-5.6,1.5-11.5,1.5-17.4c0-0.8,0-1.6,0-2.4C294,180.3,292.5,180.5,292,181.2z"/>
							<path class="st15" d="M280.3,235.7c-0.8-0.8-1.6-1.6-1.8-2.7c-0.3-1.5,0.7-3.1,0.6-4.6c-0.1-1.3-1.1-2.4-2.1-3.3
								c-0.3-0.2-0.5-0.4-0.9-0.5c-0.4,0-0.8,0.2-1.2,0.5c-1.1,0.9-2,2.1-3.2,2.9c-1.2,0.9-2.7,1.4-4.1,0.8c-1.2-0.6-1.9-2-3.2-2.4
								c-1.8-0.6-3.5,0.8-4.9,2.1c-1.5,1.5-3,2.9-4.5,4.4c-3.3,3.2-8.7,3.1-8.7,8.9c0,2.4,0.8,4.7,0.5,7c-0.3,2.4-1.6,5-0.1,6.9
								c1,1.4,3,1.6,4.8,1.4c2.7-0.2,5.4-0.9,7.8-2c1.4-0.7,2.9-1.5,4.5-1.6c0.7,0,1.4,0.1,2.1,0.2
								C271.5,248.5,276.2,242.4,280.3,235.7z"/>
							<path class="st15" d="M95,162.2c1.4,2.4,2.9,4.8,4,7.3c1.8,3.7,3.5,7.6,6.4,10.5c1.8,1.8,4,3.2,6.1,4.5
								c1.4,0.9,2.9,1.8,4.6,1.9c1.7,0.1,3.5-1,3.7-2.6c0.2-1.4-0.8-2.6-1.8-3.7c-1.8-2-3.7-4.1-5.5-6.1c-1.2-1.3-2.5-3-2-4.8
								c0.5-1.6,2.4-2.5,4.1-2.5c1.7,0,3.4,0.6,5.1,0.8c5.3,0.5,10.2-3.1,13-7.7c1.4-2.3,2.5-4.9,4-7.2c3.7-5.6,9.9-8.9,15-13.3
								c1.3-1.1,2.6-2.5,2.8-4.1c0.3-2.4-1.9-4.6-4.2-5.1c-2.4-0.4-4.8,0.6-6.8,2c-1,0.7-2,1.6-3.2,2s-2.7,0.4-3.6-0.5
								c-1.4-1.5-0.3-4,1.2-5.4c1.2-1.2,2.6-2.1,4.1-2.8c2.3-1,5.1-1.5,6.3-3.7c1.4-2.5-0.5-5.9-3.2-7s-5.8-0.6-8.5,0.2
								c-1.4,0.4-2.9,0.9-4.4,0.7c-1.5-0.2-2.9-1.3-3-2.8c0-1.1,0.8-2.1,1.4-3.1c0.6-1,0.9-2.4,0.1-3.2c-0.4-0.4-1-0.6-1.6-0.6
								c-0.1,0-0.3,0-0.4,0C111.7,120,99.6,139.8,95,162.2z"/>
						</g>
						<path class="st20" d="M267.8,113.3c7.1,13.8,11.1,29.5,11.1,46.2c0,55.9-45.3,101.2-101.2,101.2c-29,0-55.2-12.2-73.6-31.8
							c16.8,32.7,50.8,55.1,90.1,55.1c55.9,0,101.2-45.3,101.2-101.2C295.3,155.9,284.8,131.4,267.8,113.3z"/>
						<path class="st21" d="M199.2,212.2c-1.2-1.2-2.9-2.3-5.2-2.3c-2.8,0-4.5,1.5-5.6,3c-1,1.4-1.5,3.1-1.5,4.9
							c0,3.5,0.8,10.7,7.3,10.7c6.1,0,7.2-6.2,7.3-9.9C201.8,216.2,200.9,213.9,199.2,212.2z"/>
						<path class="st12" d="M201.7,218.6c0-0.4,0-0.8,0-1.2c-3.2,0.3-10.5,1.5-13.5,6.7c1,2.4,2.8,4.5,6.3,4.5
							C200.4,228.5,201.4,222.2,201.7,218.6z"/>
					</g>
					<g>
						<path class="st8" d="M194.1,250.4c0,0,0.2-23.9,43.7-33.2c0,3.5,0,12.3,0,12.3s-30.5,10.8-42.5,22.1
							C194.8,251.2,194.1,250.4,194.1,250.4z"/>
						<path class="st8" d="M194.1,250.4c0,0,1.8-25.6-20-39.4c-1.1,5.5-7.1,25.6-7.1,25.6L194.1,250.4z"/>
						<path class="st5" d="M250.1,228.7l-9.4,1.8l8.3-3.2c-0.7-0.8-1.3-1.5-1.7-2c-42.2,7.7-53.2,25.1-53.2,25.1s6.9,7.7,10.8,5.9
							c20.8-11.9,49.3-22.6,49.3-22.6S252.1,231.1,250.1,228.7z"/>
						<path class="st5" d="M138.1,228.7l9.4,1.8l-8.3-3.2c0.7-0.8,1.3-1.5,1.7-2c42.1,7.7,53.2,25.1,53.2,25.1s-6.9,7.7-10.8,5.9
							c-20.8-11.9-49.3-22.6-49.3-22.6S136.1,231.1,138.1,228.7z"/>
						<path class="st22" d="M185.1,254.9c0,0,0.8-4.5,9-4.5c8.3,0,9,4.5,9,4.5S195.2,262.1,185.1,254.9z"/>
						<path class="st11" d="M203.1,254.9v67.4c22.6-18.9,55.9-22.8,55.9-22.8v-67.4C259,232.1,225.7,236,203.1,254.9z"/>
						<path class="st11" d="M185.1,254.9v67.4c-22.6-18.9-55.9-22.8-55.9-22.8v-67.4C129.1,232.1,162.4,236,185.1,254.9z"/>
						<path class="st23" d="M185.1,254.9v67.4c7.7,3.6,18.1,0,18.1,0v-67.4C203.1,254.9,192.7,258.5,185.1,254.9z"/>
						<path class="st19" d="M247.1,246.4c-12.9,1.8-27.5,11-31.1,13.4c-0.5,0.3-0.8,0.9-0.8,1.5v11.5c0,1.5,2,2.4,3.4,1.5
							c5.9-3.6,18.3-10.5,29.2-11.8c1.1-0.1,1.8-0.9,1.8-1.8v-12.4C249.4,247.1,248.3,246.2,247.1,246.4z"/>
						<path class="st24" d="M185.1,270.5c-12.5,26.9-46.2,26-55.9,25.2v3.7c0,0,33.4,3.9,55.9,22.8V270.5z"/>
						<path class="st25" d="M203.1,322.3v-38c-2.1,4.3-6.6,12.6-18.1,13.9v24.2C192.7,325.9,203.1,322.3,203.1,322.3z"/>
						<path class="st24" d="M259,265.6c-5.9,14-20.7,36.1-55.9,36.4v20.3c22.6-18.9,55.9-22.8,55.9-22.8V265.6z"/>
					</g>
					<g>
						<g>
							<path class="st26" d="M264.3,273.6c-0.5,0-1-0.3-1.3-0.8c-0.3-0.7-0.1-1.6,0.7-1.9c21.2-10.4,33.2-22.3,35.5-35.5
								c2.6-14.8-8.1-26-8.2-26.1c-0.6-0.6-0.5-1.5,0-2c0.6-0.6,1.5-0.5,2,0s11.8,12.4,9,28.6c-2.5,14.2-14.9,26.8-37,37.6
								C264.8,273.5,264.5,273.6,264.3,273.6z"/>
						</g>
						<path class="st26" d="M266.3,269.5c0.7,0.5,1.2,1.2,1.3,2.1c0.3,2-0.4,6-7.6,9.3c-7.6,3.2-10.9-3.6-7.5-6.1
							c3.4-2.4,8.8-2.7,8.8-2.7s-1.9-1.6-2.3-3.3C258.5,267.3,263.2,267.5,266.3,269.5z"/>
					</g>
					<g>
						<g>
							<path class="st26" d="M123.9,273.6c-0.2,0-0.4,0-0.6-0.1c-22.1-10.8-34.6-23.4-37-37.6c-2.8-16.2,8.5-28.1,9-28.6
								c0.6-0.6,1.5-0.6,2,0c0.6,0.6,0.6,1.5,0,2c-0.2,0.2-10.8,11.5-8.2,26.1c2.3,13.2,14.3,25.1,35.5,35.5c0.7,0.3,1,1.2,0.7,1.9
								C124.9,273.3,124.4,273.6,123.9,273.6z"/>
						</g>
						<path class="st26" d="M121.8,269.5c-0.7,0.5-1.2,1.2-1.3,2.1c-0.3,2,0.4,6,7.6,9.3c7.6,3.2,10.9-3.6,7.5-6.1
							c-3.4-2.4-8.8-2.7-8.8-2.7s1.9-1.6,2.3-3.3C129.6,267.3,124.9,267.5,121.8,269.5z"/>
					</g>
				</g>
				<path class="st27" d="M372.2,320.8c-7.5-2.4-13.5-9-15.1-16.7c-3,1.5-6.6,1.4-9.5-0.2c-1.4,8.1-4.6,16.3-10.8,21.8
					c-6.1,5.5-15.5,8-23,4.4c-0.4,6.5-2.7,11.4-8.5,14.3c-1.6,0.8-17.5,3.3-17.1,2.4c-3.7,7.7-10.3,7.8-15.9,12.6
					c-4.1,3.6-6.4,9-11.2,12.4c-5.2,3.6-11.3,5.9-17.4,7.3c-13.9,3.4-58.7-1.4-68.5-15c-10.6,6.3-20.5,13.7-33.1,14.8
					c-11.6,1.1-23.6-1.9-33-8.7c-8.6-6.3-15.4-15.5-25.5-18.8c-5.6,6.1-15.7,6.4-23,2.6c-7.4-3.8-12.6-10.8-16.9-17.9
					c-4.4,2.6-10.9,0.4-12.9-4.3c-7,4.7-16.8,4.9-23.9,0.4c-1.3-0.8-2.5-1.8-3.5-2.8v55.9h383.8v-65.2
					C382.5,322,377,322.4,372.2,320.8z"/>
				<path class="st5" d="M311.5,154.2c1.9-6.2-2.2-12.3-8.1-14.9c-3.3-1.4-7.9-1-9.4,2.2c-0.5-2.1-3.8-2.5-4.8-0.7
					c-2.7-5.2-10-6.3-15.3-3.9c-5.3,2.4-9,7.3-12.5,11.9c-1.2-2.5-5.4-2.7-6.9-0.3c1-2.8-1.8-5.9-4.8-6.1c-3-0.2-5.8,1.8-7.7,4
					c-2,2.3-3.5,5.1-4.4,8.1l-10.5,3.2H318L311.5,154.2z"/>
				<rect x="14.9" y="23" class="st28" width="358.3" height="358.3"/>
			</g>
			<g style="clip-path:url(#SVGID_00000106865471980854725700000012960244774476978612_);">
				<g>
					
						<ellipse transform="matrix(0.3841 -0.9233 0.9233 0.3841 -48.2632 344.1906)" class="st29" cx="233.9" cy="208.3" rx="11" ry="11"/>
					<circle class="st5" cx="238.1" cy="203" r="3.4"/>
					<path class="st5" d="M243.8,208.2c0,0.8-0.7,1.5-1.5,1.5s-1.5-0.7-1.5-1.5s0.7-1.5,1.5-1.5
						C243.1,206.7,243.8,207.4,243.8,208.2z"/>
				</g>
				<g>
					<path class="st5" d="M233.9,169c-17,0-30.8,13.8-30.8,30.8s13.8,30.8,30.8,30.8s30.8-13.8,30.8-30.8S250.8,169,233.9,169z
						 M233.9,227.6c-15.3,0-27.8-12.5-27.8-27.8s12.5-27.8,27.8-27.8s27.8,12.5,27.8,27.8S249.3,227.6,233.9,227.6z"/>
				</g>
				<g>
					<ellipse class="st29" cx="154.2" cy="208.2" rx="11" ry="11"/>
					<circle class="st5" cx="158.4" cy="203" r="3.4"/>
					<path class="st5" d="M164.2,208.2c0,0.8-0.7,1.5-1.5,1.5s-1.5-0.7-1.5-1.5s0.7-1.5,1.5-1.5
						C163.4,206.7,164.2,207.4,164.2,208.2z"/>
				</g>
				<g>
					<path class="st5" d="M154.2,169c-17,0-30.8,13.8-30.8,30.8s13.8,30.8,30.8,30.8s30.8-13.8,30.8-30.8S171.2,169,154.2,169z
						 M154.2,227.6c-15.3,0-27.8-12.5-27.8-27.8s12.5-27.8,27.8-27.8s27.8,12.5,27.8,27.8C181.9,215.1,169.6,227.6,154.2,227.6z"/>
				</g>
				<g>
					<path class="st5" d="M204.4,201.1c-0.6,0-1.1-0.3-1.4-0.9c-0.1-0.3-2.9-6.3-9-6.3s-8.8,6-9,6.3c-0.3,0.8-1.2,1.1-2,0.8
						s-1.1-1.2-0.8-2c0.1-0.3,3.6-8.1,11.7-8.1c8.1,0,11.6,7.7,11.7,8.1c0.3,0.8,0,1.6-0.8,2C204.9,201.1,204.7,201.1,204.4,201.1z"
						/>
				</g>
				<g>
					<path class="st5" d="M263.2,199.3c-0.3,0-0.7-0.1-1-0.4c-0.6-0.5-0.6-1.4-0.1-2l32-35.1c0.5-0.6,1.4-0.6,2-0.1
						c0.6,0.5,0.6,1.4,0.1,2l-32,35.1C264,199.2,263.5,199.3,263.2,199.3z"/>
				</g>
				<g>
					<path class="st5" d="M124.9,199.3c-0.4,0-0.8-0.2-1.1-0.5l-32.1-35.1c-0.5-0.6-0.5-1.5,0.1-2s1.5-0.5,2,0.1l32.1,35.1
						c0.5,0.6,0.5,1.5-0.1,2C125.7,199.2,125.4,199.3,124.9,199.3z"/>
				</g>
			</g>
		</g>
	</g>
</g>
</svg>
