<?xml version="1.0" encoding="UTF-8"?>
<svg id="_圖層_2" data-name="圖層 2" xmlns="http://www.w3.org/2000/svg" width="162.13" height="218.41" viewBox="0 0 162.13 218.41">
  <g id="_第一cut" data-name="第一cut">
    <g>
      <g>
        <g>
          <path d="m75.88,92.4c-1.18-.39-2.47-.2-3.35.03.18-.28.62-.46.62-.46-.57.03-1.69.83-1.69.83-8.27-1.41-7.2,10.14-6.51,12.73.69,2.59-3.31,10.11-6.06,13.78-7.74,10.29,4.63,21.01,4.63,21.01,10.03,8.42,5.47-7.91,5.47-7.91-.62-2.08,6.91-15.26,11.35-19.64.87-2.08.66-5.41.65-5.67.3,2.61.15,4.13-.08,5.02,3.52-4.85-1.89-18.7-5.02-19.73Z" style="fill: #5e1d6d;"/>
          <path d="m96.47,130.35c0,1.12-.56,2.54-1.36,4.02-2,3.67-5.48,7.6-5.48,7.6l-2.02-2.88s1.23-3.05,2.04-5.56c.49-1.51.83-2.83.66-3.18-.44-.92-9.2-11.28-9.2-11.28l-2.38-8.01s5.82.31,8.3,3.94c2.48,3.63,9.43,12.35,9.43,15.35Z" style="fill: #f85b41;"/>
          <path d="m95.11,134.37c-2,3.67-5.48,7.6-5.48,7.6l-2.02-2.88s1.23-3.05,2.04-5.56c.98.58,2.68,1.13,5.46.84Z" style="fill: #ffbd8f;"/>
          <polygon points="70.91 202.56 73 211.38 76.14 211.37 76.26 202.56 70.91 202.56" style="fill: #ffbd8f;"/>
          <polygon points="97.3 202.94 103.27 211.38 105.59 208.4 102 201.78 97.3 202.94" style="fill: #ffbd8f;"/>
          <path d="m79.15,113.64s-2.52,1.33-4.43.81c-1.8-.49-2.97-2.82-2.95-2.83.76-.15.98-1.2.97-5.7l.34.07,5.79,1.15s-.13,1.82-.14,3.54c0,1.44.08,2.81.41,2.96Z" style="fill: #ffbd8f;"/>
          <path d="m69.86,95.54s2.2-3.55,6.29-1.43c0,0-2.12.06-6.29,1.43Z" style="fill: #17c7d3;"/>
          <path d="m78.87,107.14s-.13,1.82-.14,3.54c-3.24-.09-4.95-3.05-5.65-4.69l5.79,1.15Z" style="fill: #ffaa78;"/>
          <path d="m71.89,106.2s-2.19-2.29-3.05-4.46c-.61-1.55-.99-7.66,5.16-8.01,0,0,1.77-.18,3.63.59,1.48.62,3.73,2.13,2.68,7.75l-.19,1.86-8.23,2.27Z" style="fill: #5e1d6d;"/>
          <path d="m105.03,206.47s-1.54.27-2.8.36c-.28.02-.55.03-.78.03-.61,0-1.7-.23-2.44-.4h-.06c-.32-.09-.57-.15-.66-.18h-.04s-7.68-8.55-11.98-22.25c-.1-.32-.21-.64-.32-.97-2.36-6.87-7.24-15.49-9.81-23.3-.41-1.24-.78-2.41-1.11-3.52-.11-.35-.21-.7-.31-1.05-1.9-6.59-2.45-10.92-2.95-15.54l15.48,3.94s6.5,28.17,17.78,62.87Z" style="fill: #4dc2d6;"/>
          <path d="m79.89,108.06s-7.49,1.64-8.44-3.04c-.95-4.68-2.55-7.62,2.19-8.87,4.74-1.24,6.04.35,6.73,1.84.7,1.49,1.44,9.52-.48,10.07Z" style="fill: #ffbd8f;"/>
          <path d="m77.04,95.35s-.95,5.91-3.95,7.36c-2.99,1.45-4.53.88-4.53.88,0,0,2.03-2.41,1.86-5.87,0,0,4.54-4.66,6.62-2.36Z" style="fill: #5e1d6d;"/>
          <path d="m76.62,95.9s1.78.92,2.4,2.03c.62,1.12,1.28,3.54,1.98,3.31,0,0,.8-4.05-1.37-5.81-2.3-1.87-3.01.46-3.01.46Z" style="fill: #5e1d6d;"/>
          <path d="m72.9,210.89s.25,1.75-.4,3.62c0,0-.51,2.34,1.79,2.38,2.3.04,2.87-.17,2.61-1.61-.26-1.44-.76-3.92-.76-3.92l-3.24-.48Z" style="fill: #ffbd8f;"/>
          <path d="m72.5,214.51s-.51,2.46-.25,3.63c0,0,.78.27,2.45.27,1.59,0,2.52-.27,2.52-.27,0,0-.06-2.67-.48-3.69,0,0-1.63,2.45-4.24.06Z" style="fill: #525caa;"/>
          <path d="m111.14,215.52s-4.25-4.72-5.55-7.12l-3.16,1.62,7.06,6.63,1.65-.22v-.92Z" style="fill: #ffbd8f;"/>
          <path d="m113.84,218.28s-4.57,0-5.35-.09c-.78-.09-1.41-1.22-2.26-2.91-.35-.69-1.13-1.08-1.92-1.29l.02,4.15h-1.26l-1.11-4.39c-.75-1.38-.06-2.64.47-3.73.62,0,2.27.42,5.41,3.96,1.03,1.16,2.17,1.58,3.3,1.54.02.01.03.02.05.02,2.61,1.17,2.65,2.74,2.65,2.74Z" style="fill: #525caa;"/>
          <path d="m102.23,206.83c-.28.02-.55.03-.78.03-.61,0-1.7-.23-2.44-.4h-.06s-.66-.18-.66-.18h-.04s-7.68-8.55-11.98-22.25c-.1-.32-.21-.64-.32-.97-2.36-6.87-7.24-15.49-9.81-23.3-.41-1.24-.78-2.41-1.11-3.52-.11-.35-.21-.7-.31-1.05l2.74-2.08s8.22,13.31,10.76,25.83c2.11,10.38,11.19,23.84,14,27.87Z" style="fill: #32afc6;"/>
          <path d="m77.75,180.13c.05,6.09-.26,20.09-1.05,25.89,0,0-.75.67-2.62.67-1.91,0-2.76-.7-2.76-.7-1.99-10.08-3.41-18.42-4.44-25.6-.85-5.9-1.6-10.95-2.17-15.3-.51-3.86-.89-7.16-1.07-10.01-.02-.39-.05-.77-.06-1.13-.02-.49-.04-.96-.05-1.42,0-.46-.01-.91,0-1.35h.07s3.84-.38,3.84-.38l12.15-1.18c-.2,10.67-1.85,26.99-1.83,30.53Z" style="fill: #4dc2d6;"/>
          <path d="m74.08,206.69c-1.62.09-2.76-.7-2.76-.7-1.99-10.08-3.41-18.42-4.44-25.6-.85-5.9-1.6-10.95-2.17-15.3-.51-3.86-.89-7.16-1.07-10.01-.02-1.4-.04-2.75-.05-3.91-.02-1.18-.04-2.18-.07-2.88l3.91,2.5,4.12,2.63s-5.84,5.31-4.41,15.36c1.43,10.05,4.94,36.49,6.94,37.91Z" style="fill: #32afc6;"/>
          <path d="m89.38,152.33c-4.66,1.21-26.41,3.6-26.59-1.84-.05-1.33,0-2.93.11-4.67.32-5.38,1.21-12.03,1.63-15.69.19-1.68-.45-9.19.04-13.28.07-.61.17-1.14.3-1.56.94-3.09,5.16-3.93,7.33-4l6.54-.22s6.75,7.54,7.69,9.86c.94,2.32,1.25,10.25,1.98,14.09.73,3.84,3.25,16.73.98,17.32Z" style="fill: #f85b41;"/>
          <path d="m76.54,133.92s-3.63,11.16-13.65,11.89c.32-5.38,1.21-12.03,1.63-15.69.19-1.68-.45-9.19.04-13.28.13.03.25.1.38.13,11.02,2.13,12.59,14.62,11.59,16.95Z" style="fill: #af3524;"/>
          <g>
            <rect x="72.83" y="121.99" width="11.68" height="17.77" transform="translate(14.3 -7.6) rotate(6.08)" style="fill: #fbbe18;"/>
            <polygon points="73.8 121.42 73.06 121.36 71.31 139.02 71.92 139.09 73.8 121.42" style="fill: #fa7f18;"/>
          </g>
          <g>
            <path d="m64.01,129.24s8.19,2.5,16.02,3.62c0,0,2.58,1.12,1.37,1.42-.31.08-15.99,3.5-18.31,1.28l.92-6.32Z" style="fill: #ffbd8f;"/>
            <path d="m72.2,111.28s-4.31.02-6.15,2.12c-3.36,3.83-4.02,20.12-2.96,22.16.46.88,3.95.95,5.42-3.31.76-2.21,4.1-16.96,3.68-20.98Z" style="fill: #f85b41;"/>
          </g>
          <path d="m79.26,132.75s.96-.09,1.15-.4c.37-.62.94-.61,1.42-.69.48-.08,1.02-.61,1.12-.5.1.11-.36.69-.61.9,0,0,.52.03.86-.13s1.38-1.51,1.55-.94c.43,1.49-.02,2.92-1.21,3.04-1.29.13-4.49.74-4.49.74l.21-2.02Z" style="fill: #ffbd8f;"/>
        </g>
        <g>
          <g>
            <path d="m119.51,139.67c-6.12-1.56-12.85-11.05-12.85-11.05l1.72-1.49c1.78,2.1,9.2,5.72,9.2,5.72-.04-1.92.01-3.68.13-5.28.82-10.86,4.92-14.48,6.03-15.27.18-.13.28-.18.28-.18,0,0,0,.08.01.23.02.32.05.97.08,1.86.23,6.65.5,26.76-4.61,25.46Z" style="fill: #f5a26e;"/>
            <path d="m108.39,127.12c-.03-.26-.2-3.99-.94-4.7-.74-.71-2.2-1.68-2.62-1.6-.42.08-1.85,2.45-1.17,4.09.67,1.64,3.02,3.7,3.02,3.7l1.72-1.49Z" style="fill: #f5a26e;"/>
            <g>
              <rect x="105.46" y="119.47" width="4.52" height="8.18" rx=".24" ry=".24" transform="translate(-5.07 4.61) rotate(-2.39)" style="fill: #fbbe18;"/>
              <rect x="104.6" y="119.51" width="4.52" height="8.18" rx=".43" ry=".43" transform="translate(-5.07 4.57) rotate(-2.4)" style="fill: #fa7f18;"/>
            </g>
            <path d="m104.52,121.11s1.1-1.23,2.2-.29c1.1.94-.07,2.94-1.03,3.49-.95.55-1.26.83-1.26.83l.09-4.03Z" style="fill: #f5a26e;"/>
          </g>
          <path d="m132.83,202.8c-.37,1.48-.78,2.89-1.2,4.21-.09.28-.18.56-.27.83-.04.13-.09.27-.13.4-.09.26-.17.52-.26.76-.11.32-.23.64-.34.95-.08.23-.16.45-.24.67-1.24,3.33-2.28,5.44-2.28,5.44l-2.47-.17s.93-4.42,1.11-10.74c0-.23.01-.45.02-.68,0-.49.02-.99.02-1.5,0-.21,0-.42,0-.63-.05-5.45-.72-11.88-2.88-18.03-1.75-5-3.02-9.67-3.94-13.9-2.96-13.64-2.27-22.6-2.27-22.6l13.91,1.63.65.08c.06,6.39.22,15.06.37,21.84.02,1.18.05,2.3.07,3.34.1,4.35.17,7.33.17,7.33,2.67,5.76,1.7,13.89-.03,20.79Z" style="fill: #ed9155;"/>
          <path d="m128.85,100.04s3.29,2.8.27,6.03c0,0,2.51.25,3.36-.45,0,0-.17.34-.32.49,0,0,2.81.1,3.97-.78,1.16-.88.41-15.26-7.39-13.65,0,0-6.61-.5-6,7.15.62,7.65-1.88,7.65-1.88,7.65,0,0,.69.34,1.03.34,0,0,.49-.19.59-.46,0,0-.1.43-.22.56,0,0,2.69.26,4.04-.76,1.35-1.02,2.93-4.55,2.54-6.13Z" style="fill: #5e1d6d;"/>
          <path d="m139.47,146.23c-2.63-5.89-3.89-7.56-3.93-9.42-.03-1.47.69-3.05,2.09-6.93.33-.91.56-1.85.7-2.81,1.11-7.48-3.21-15.57-5.9-16.12-.75-.2-2.02-2.9-2-7.25l-.34.07-5.66,1.12s.13,1.78.13,3.46c0,1.4-.07,2.82-.39,2.99-.41.04-.78.11-.78.11,0,0-4.79,3.37-5.1,7.93-.41,6.1,3.88,13.32.07,25.51-3.89,12.44,22.55,4.6,21.1,1.34Z" style="fill: #f5a26e;"/>
          <path d="m124.43,104.89s.13,1.78.13,3.46c3.17-.09,4.84-2.98,5.53-4.58l-5.66,1.12Z" style="fill: #ed9155;"/>
          <path d="m130.67,103.16s1.66-2.62,2.06-4.87c.28-1.6-.53-7.54-6.5-6.68,0,0-1.73.17-3.36,1.27-1.3.87-3.16,2.76-1.07,7.94l.54,1.75,8.33.59Z" style="fill: #5e1d6d;"/>
          <path d="m123.37,106.48s7.5.12,7.5-4.55c0-4.67.98-7.8-3.81-8.07-4.79-.28-5.72,1.5-6.1,3.06-.38,1.56.46,9.4,2.41,9.56Z" style="fill: #f5a26e;"/>
          <path d="m123.65,93.75s2.05,5.48,5.2,6.29c3.15.81,4.52-.03,4.52-.03,0,0-2.42-1.92-2.92-5.27,0,0-5.25-3.59-6.8-.98Z" style="fill: #5e1d6d;"/>
          <path d="m124.16,94.19s-1.53,1.22-1.91,2.41c-.37,1.19-.54,3.64-1.26,3.55,0,0-1.55-3.72.19-5.83,1.84-2.23,2.97-.14,2.97-.14Z" style="fill: #5e1d6d;"/>
          <path d="m149.22,152.49l-2.25.67s-7.42-12.32-8.1-15.52c-.22-1.04-.76-3.13-1.39-5.47-1.3-4.84-2.99-10.77-2.99-10.77l-.55-2.4-1.89-8.18s3.62.37,5.73,1.25c.7.29,1.24.64,1.42,1.05,1.55,3.42,3.11,12.05,4.2,18.2.61,3.43,1.07,6.09,1.31,6.66.67,1.57,2.74,10.24,4.5,14.51Z" style="fill: #f5a26e;"/>
          <path d="m123.87,94.38s1.46,5.74,5.44,7.57c0,0-3.97-3.52-4.31-7.31-.34-3.79-1.12-.26-1.12-.26Z" style="fill: #5e1d6d;"/>
          <path d="m140.81,201.6c-.8,8.53-4.32,14.05-4.32,14.05l-1.2,1.09s-1.1-6.25-1.89-13.4c-.75-6.8-1.79-14-2.96-16.19-1.75-3.28-3.03-9.99-3.96-17.08-1.53-11.73-2.07-24.51-2.07-24.51l14.1-.7c1.42,2.38,2.04,6.3,2.18,10.74.15,4.68-.21,9.94-.72,14.65-.71,6.59-1.71,12.08-1.94,13.32,0,0,0,0,0,0-.03.16.02.32.09.47,2.81,5.55,3.21,11.91,2.68,17.55Z" style="fill: #f5a26e;"/>
          <path d="m124.35,126.64c-.32,7.75-1.48,15.42-4.85,14.92-4.13-.6-5.21-4.46-5.43-7.33-.14-1.79.06-3.19.06-3.19,0,0,2.03,0,2.36-.31,1.56-1.44,1.1-15.6,1.87-17.07.77-1.47,5.79-2.41,5.79-2.41,0,0,.51,7.73.19,15.39Z" style="fill: #525caa;"/>
          <path d="m124.35,126.64c-.32,7.75-1.48,15.42-4.85,14.92-4.13-.6-5.21-4.46-5.43-7.33,1.01-.05,2.8-.3,3.51-1.38,1.02-1.55,4.19-11.53,4.19-11.53,0,0,1.25,2.24,2.58,5.32Z" style="fill: #5c88b8;"/>
          <path d="m132.83,202.8c-.37,1.48-.78,2.89-1.2,4.21-.09.28-.18.56-.27.83-.04.13-.09.27-.13.4-.09.26-.17.52-.26.76-.11.32-.23.64-.34.95-.08.23-.16.45-.24.67-1.24,3.33-2.28,5.44-2.28,5.44l-2.47-.17s.93-4.42,1.11-10.74c0-.23.01-.45.02-.68,0-.49.02-.99.02-1.5,0-.21,0-.42,0-.63-.05-5.45-.72-11.88-2.88-18.03-1.75-5-3.02-9.67-3.94-13.9,1.47.3,2.76,0,6.52-.32.39-.03,2.28,2.3,4.15,5.4.1,4.35,2.23,6.54,2.23,6.54,2.67,5.76,1.7,13.89-.03,20.79Z" style="fill: #32afc6;"/>
          <path d="m140.81,201.6c-.8,8.53-4.32,14.05-4.32,14.05l-1.2,1.09s-1.1-6.25-1.89-13.4c-.75-6.8-1.79-14-2.96-16.19-1.75-3.28-3.03-9.99-3.96-17.08,1.3.54,5.72,1.94,13.49.19-.71,6.59-1.71,12.08-1.94,13.32,0,0,0,0,0,0-.03.16.02.32.09.47,2.81,5.55,3.21,11.91,2.68,17.55Z" style="fill: #4dc2d6;"/>
          <path d="m143.51,160.07s-2.95.91-7.3,1.51c-5.38.74-12.91,1.01-19.62-1.51,0,0-.55-10,1.04-15.21,1.59-5.21,2.34-7.71,2.34-7.71,0,0,6.38,1.6,12.86.36.91-.17,1.82-.4,2.72-.7,0,0,4,8.48,5.09,12.12,1.1,3.64,2.88,11.14,2.88,11.14Z" style="fill: #4dc2d6;"/>
          <path d="m143.51,160.07s-2.95.91-7.3,1.51c-7.97-4.52-4.08-23.54-4.08-23.54.24-.19.47-.37.69-.53.91-.17,1.82-.4,2.72-.7,0,0,4,8.48,5.09,12.12,1.1,3.64,2.88,11.14,2.88,11.14Z" style="fill: #32afc6;"/>
          <path d="m150.04,141.04c0,1.95-1.98,3.14-4.12,3.72-2.05.56-4.23.55-4.91.1-1.18-.79-3.1-9.56-3.66-12.23-.1-.48-.16-.77-.16-.77,0,0-1.53,3.65-1.58,3.99-.02.15-.04.36-.05.55-.02.22-.02.41-.02.41,0,0-8.3,4.19-15.57.34,0,0-2.95-17.08-1.67-20.02.64-1.46,3.96-4.47,5.29-5.77.3-.29.27-.87.15-1.4-.1-.45.31-.84.75-.73.86.22,2.39.18,4.04-.36.82-.27,1.67-.66,2.47-1.21.23-.16.55-.01.59.27.13,1.02.43,2.88.99,2.88.77,0,6.05.64,6.44,1.3.13.23,1.51,3.33,3.24,7.45,0,0,0,0,0,.01,3.25,7.72,7.77,18.98,7.77,21.47Z" style="fill: #5c88b8;"/>
          <path d="m137.19,131.86s-1.53,3.65-1.58,3.99c-.02.15-.04.36-.05.55-.74.6-1.63,1.06-2.55,1.34-2.59.78-3.71-4.18-3.56-6.65.15-2.48,3.82-9.54,5.03-9.69,1.22-.15,2.7,10.46,2.7,10.46Z" style="fill: #525caa;"/>
          <path d="m137.35,132.63c-.1-.48-.16-.77-.16-.77.08.26.13.52.16.77Z" style="fill: #32afc6;"/>
          <path d="m126.74,139.04c-4.72,0-6.67-1.63-6.82-1.74l-.31-2.23s6.39,3.84,16.2.19l-.21,1.69c-3.77,1.4-6.41,2.08-8.87,2.08Z" style="fill: #525caa;"/>
          <path d="m150.04,141.04c0,1.95-1.98,3.14-4.12,3.72,2.94-3.5-3.49-24.65-3.65-25.19,3.25,7.72,7.77,18.98,7.77,21.47Z" style="fill: #525caa;"/>
          <path d="m132.59,110.82s-3.95,2.5-6.94,1.91c0,0-.72-.45.27-.91.93-.43,3.09-1.69,2.62-2.94.82-.27,1.67-.66,2.47-1.21.23-.16.55-.01.59.27.13,1.02.43,2.88.99,2.88Z" style="fill: #525caa;"/>
          <g>
            <path d="m129.53,218.13h-1.58c-.53-.08-.92-.24-1.46-.31-.82-.11-1.2.23-1.28.31-.01.01-.01.02-.01.02h-6.7c-.17-.24,0-.8.15-1.21.11-.28.34-.49.63-.57.71-.21,2.11-.39,3.4-1.55.72-.65,3.49-2.4,3.49-2.4h.01c.06,0,.35.09,1.61,1.15.65.55,1.76-.77,1.76-.77,0,0,.21.17.36.49.12.25.22.6.14,1.03-.1.6.22,1.73.48,2.49.16.46.29.79.29.79,0,0,.08.38-1.28.55Z" style="fill: #525caa;"/>
            <path d="m129.9,213.28c-.38.27-1.17.79-1.7.86-.71.09-2.04-1.72-2.04-1.72h.01c.06,0,.35.09,1.61,1.15.65.55,1.76-.77,1.76-.77,0,0,.21.17.36.49Z" style="fill: #4489c9;"/>
            <path d="m129.53,218.13h-1.58c-.53-.08-.92-.24-1.46-.31-.82-.11-1.2.23-1.28.31-.01.01-.01.02-.01.02h-6.7c-.17-.24,0-.8.15-1.21.2-.18.26.79.37.94.11.15,5.47.06,5.78-.17.31-.23,1.24-.62,2.53-.31,1.13.27,2.78-.42,3.2-.6.16.46.29.79.29.79,0,0,.08.38-1.28.55Z" style="fill: #4489c9;"/>
          </g>
          <g>
            <path d="m137.95,218.13h-1.58c-.53-.08-.92-.24-1.46-.31-.82-.11-1.2.23-1.28.31,0,.01-.01.02-.01.02h-6.7c-.17-.24,0-.8.15-1.21.11-.28.34-.49.63-.57.71-.21,2.11-.39,3.4-1.55.72-.65,3.49-2.4,3.49-2.4h.01c.06,0,.35.09,1.61,1.15.65.55,1.76-.77,1.76-.77,0,0,.21.17.36.49.12.25.22.6.14,1.03-.1.6.22,1.73.48,2.49.16.46.29.79.29.79,0,0,.08.38-1.28.55Z" style="fill: #525caa;"/>
            <path d="m138.32,213.28c-.38.27-1.17.79-1.7.86-.71.09-2.04-1.72-2.04-1.72h.01c.06,0,.35.09,1.61,1.15.65.55,1.76-.77,1.76-.77,0,0,.21.17.36.49Z" style="fill: #4489c9;"/>
            <path d="m137.95,218.13h-1.58c-.53-.08-.92-.24-1.46-.31-.82-.11-1.2.23-1.28.31,0,.01-.01.02-.01.02h-6.7c-.17-.24,0-.8.15-1.21.2-.18.26.79.37.94.11.15,5.47.06,5.78-.17.31-.23,1.24-.62,2.53-.31,1.13.27,2.78-.42,3.2-.6.16.46.29.79.29.79,0,0,.08.38-1.28.55Z" style="fill: #4489c9;"/>
          </g>
          <g>
            <path d="m154.79,162.08c-.16-.78-.71-1.42-1.46-1.7-1.21-.45-3.2-.86-5.65-.14-4.13,1.21-4.53,3.75-4.26,5.58.27,1.83-.54,4.73-.42,6.8.12,2.07.71,7.27,3.77,7,3.06-.27,12.91-2.92,12.91-2.92,0,0,1.7-3.24-1.79-7.93-2.07-2.78-2.83-5.32-3.1-6.69Z" style="fill: #f48130;"/>
            <g>
              <path d="m152.9,159.69l-.82.07s-.09-.57-.47-.92c-.29-.27-.69-.37-1.18-.29-.47.08-.81.29-.98.64-.24.49-.11,1.12-.11,1.13l-.8.18s-.24-1.07.18-1.93c.29-.59.8-.94,1.51-1.07.73-.12,1.35.06,1.84.53.68.65.82,1.61.83,1.65Z" style="fill: #f48130;"/>
              <g>
                <path d="m161.71,176.24s-9.85,2.65-12.91,2.92c-3.06.28-3.65-4.92-3.76-7-.12-2.06.69-4.97.42-6.8-.06-.35-.09-.73-.06-1.12.08-1.63.99-3.48,4.31-4.45,2.45-.72,4.44-.31,5.66.14.75.28,1.3.91,1.46,1.69.04.16.07.35.11.54.35,1.45,1.16,3.71,2.99,6.14,3.5,4.69,1.79,7.92,1.79,7.92Z" style="fill: #fbbe18;"/>
                <path d="m146.53,172.6l5.94-1.34s1.38,4.25-1.42,5.03c-2.81.77-3.97-.87-4.51-3.68Z" style="fill: #fa7f18;"/>
                <path d="m146.53,172.6s1.37,1.32,3.22.86c1.85-.47,2.72-2.2,2.72-2.2l-5.94,1.34Z" style="fill: #f48130;"/>
                <path d="m153.67,170.98l5.94-1.34s1.38,4.25-1.42,5.03c-2.81.77-3.97-.87-4.51-3.68Z" style="fill: #fa7f18;"/>
                <path d="m153.67,170.98s1.37,1.32,3.22.85c1.85-.47,2.72-2.2,2.72-2.2l-5.94,1.34Z" style="fill: #f48130;"/>
                <path d="m156.82,161.62c.04.16.07.35.11.54-.79,1.62-2.27,3.69-4.79,4.17-4.28.84-6.75-2.1-6.75-2.1.08-1.63.99-3.48,4.31-4.45,2.45-.72,4.44-.31,5.66.14.75.28,1.3.91,1.46,1.69Z" style="fill: #fa7f18;"/>
                <path d="m152.2,167.24h0c-.27.06-.54-.11-.6-.38l-.1-.44c-.06-.27.11-.54.38-.6h0c.27-.06.54.11.6.38l.1.44c.06.27-.11.54-.38.6Z" style="fill: #fa7f18;"/>
              </g>
            </g>
          </g>
          <path d="m149.06,152.12s.68,1.61,1.4,2.06c.71.45,1.39,1.53,1.54,2.4.27,1.6-.95,2.59-1.85,2.59s-1.76-1.23-2.29-4.16c-.03-.16-.88-1.84-.88-1.84l2.09-1.05Z" style="fill: #f5a26e;"/>
        </g>
        <g>
          <path d="m31.41,91.65c-1.08-1.63-5.34-.72-9.53,2.04-4.19,2.76-6.72,6.32-5.64,7.95,1.08,1.63,5.34.72,9.53-2.04,4.19-2.76,6.72-6.32,5.64-7.95Z" style="fill: #32afc6;"/>
          <path d="m9.51,152.31l.83.05s.32-14.45,1.59-20.29c2.36-10.88,8.52-19.39,8.59-19.47l-1.48-.47c-.07.08-1.24,1.89-2.9,5.23-1.53,3.08-3.98,8.21-5.06,14.18-1.07,5.9-1.6,20.69-1.56,20.77Z" style="fill: #f85b41;"/>
          <path d="m24.47,91.52s-5.41-1.15-8,3.24c-2.6,4.4-2.74,12.04-4.47,14.54-1.73,2.5-4.78,13.05-1.54,15.41,3.24,2.36,23.23-.09,24.35-1.16,1.12-1.08-.07-12.16-2.02-15.36-1.95-3.21,2.81-18.3-8.32-16.67Z" style="fill: #5e1d6d;"/>
          <path d="m32.52,139.67c6.12-1.56,12.85-11.05,12.85-11.05l-1.72-1.49c-1.78,2.1-9.2,5.72-9.2,5.72.04-1.92-.01-3.68-.13-5.28-.82-10.86-4.92-14.48-6.03-15.27-.18-.13-.28-.18-.28-.18,0,0,0,.08-.01.23-.02.32-.05.97-.08,1.86-.23,6.65-.5,26.76,4.61,25.46Z" style="fill: #ffbd8f;"/>
          <path d="m43.64,127.12c.03-.26.2-3.99.94-4.7.74-.71,2.2-1.68,2.62-1.6.42.08,1.85,2.45,1.17,4.09-.67,1.64-3.02,3.7-3.02,3.7l-1.72-1.49Z" style="fill: #ffbd8f;"/>
          <path d="m19.2,202.8c.37,1.48.78,2.89,1.2,4.21.09.28.18.56.27.83.04.13.09.27.13.4.09.26.17.52.26.76.11.32.23.64.34.95.08.23.16.45.24.67,1.24,3.33,2.28,5.44,2.28,5.44l2.47-.17s-.93-4.42-1.11-10.74c0-.23-.01-.45-.02-.68,0-.49-.02-.99-.02-1.5,0-.21,0-.42,0-.63.05-5.45.72-11.88,2.88-18.03,1.75-5,3.02-9.67,3.94-13.9,2.96-13.64,2.27-22.6,2.27-22.6l-13.91,1.63-.65.08c-.06,6.39-.22,15.06-.37,21.84-.02,1.18-.05,2.3-.07,3.34-.1,4.35-.17,7.33-.17,7.33-2.67,5.76-1.7,13.89.03,20.79Z" style="fill: #ffbd8f;"/>
          <path d="m12.56,146.23c2.63-5.89,3.89-7.56,3.93-9.42.03-1.47-.69-3.05-2.09-6.93-.33-.91-.56-1.85-.7-2.81-1.11-7.48,3.21-15.57,5.9-16.12.75-.2,2.02-2.9,2-7.25l.34.07,5.66,1.12s-.13,1.78-.13,3.46c0,1.4.07,2.82.39,2.99.41.04,4.85.83,5.66,2.11.79,1.25-.09,1.37.22,5.93.41,6.1-3.88,13.32-.07,25.51,3.89,12.44-22.55,4.6-21.1,1.34Z" style="fill: #ffbd8f;"/>
          <path d="m27.6,104.89s-.13,1.78-.13,3.46c-3.17-.09-4.84-2.98-5.53-4.58l5.66,1.12Z" style="fill: #ffaa78;"/>
          <path d="m28.66,106.48s-7.5.12-7.5-4.55c0-4.67-.98-7.8,3.81-8.07,4.79-.28,5.72,1.5,6.1,3.06.38,1.56-.46,9.4-2.41,9.56Z" style="fill: #ffbd8f;"/>
          <path d="m28.38,93.75s-2.05,5.48-5.2,6.29c-3.15.81-4.52-.03-4.52-.03,0,0,2.42-1.92,2.92-5.27,0,0,5.25-3.59,6.8-.98Z" style="fill: #5e1d6d;"/>
          <path d="m27.87,94.19s1.53,1.22,1.91,2.41c.37,1.19.54,3.64,1.26,3.55,0,0,1.55-3.72-.19-5.83-1.84-2.23-2.97-.14-2.97-.14Z" style="fill: #5e1d6d;"/>
          <path d="m2.81,152.49l2.25.67s7.42-12.32,8.1-15.52c.22-1.04.76-3.13,1.39-5.47,1.3-4.84,2.99-10.77,2.99-10.77l.55-2.4,1.89-8.18s-3.62.37-5.73,1.25c-.7.29-1.24.64-1.42,1.05-1.55,3.42-3.11,12.05-4.2,18.2-.61,3.43-1.07,6.09-1.31,6.66-.67,1.57-2.74,10.24-4.5,14.51Z" style="fill: #ffbd8f;"/>
          <path d="m28.16,94.38s-1.46,5.74-5.44,7.57c0,0,3.97-3.52,4.31-7.31.34-3.79,1.12-.26,1.12-.26Z" style="fill: #5e1d6d;"/>
          <path d="m11.22,201.6c.8,8.53,4.32,14.05,4.32,14.05l1.2,1.09s1.1-6.25,1.89-13.4c.75-6.8,1.79-14,2.95-16.19,1.75-3.28,3.03-9.99,3.96-17.08,1.53-11.73,2.07-24.51,2.07-24.51l-14.1-.7c-1.42,2.38-2.04,6.3-2.18,10.74-.15,4.68.21,9.94.72,14.65.71,6.59,1.71,12.08,1.94,13.32,0,0,0,0,0,0,.03.16-.02.32-.09.47-2.81,5.55-3.21,11.91-2.68,17.55Z" style="fill: #ffbd8f;"/>
          <path d="m37.95,134.23c-.22,2.87-1.3,6.73-5.43,7.33-1.46.21-2.51-1.11-3.25-3.3-.97-2.87-1.42-7.23-1.6-11.62-.17-4.16-.1-8.34,0-11.29,1.7-.19,4.81-1.63,5.76-1.99.03.03.05.06.08.09.02.02.04.05.06.07.03.05.06.09.09.14.41.78.47,5.18.68,9.32.18,3.63.47,7.07,1.19,7.75.33.3,2.36.31,2.36.31,0,0,.2,1.4.06,3.19Z" style="fill: #fa7f18;"/>
          <path d="m27.68,126.64c.32,7.75,1.48,15.42,4.85,14.92,4.13-.6,5.21-4.46,5.43-7.33-1.01-.05-2.8-.3-3.51-1.38-1.02-1.55-4.19-11.53-4.19-11.53,0,0-1.25,2.24-2.58,5.32Z" style="fill: #fbbe18;"/>
          <path d="m32.06,137.16s-8.3,2.08-15.57-.34c0,0-4,8.48-5.09,12.12-1.1,3.64-9.4,50.17-9.4,50.17,0,0,18.27,5.29,30.42.72,0,0,3.58-49.75,1.99-54.96-1.59-5.21-2.34-7.71-2.34-7.71Z" style="fill: #4dc2d6;"/>
          <path d="m34.34,122.95c-.61,6-2.27,14.13-2.27,14.13-.92.49-1.85.84-2.79,1.1-6.45,1.75-12.78-1.44-12.78-1.44,0,0,0-.19-.03-.41-.01-.19-.03-.39-.05-.55-.05-.34-1.58-3.98-1.58-3.98,0,0-.06.28-.16.77-.56,2.66-2.48,11.41-3.66,12.19-.68.45-2.86.46-4.91-.1-2.13-.58-4.12-1.77-4.12-3.71,0-2.48,4.52-13.71,7.77-21.4,0,0,0-.01,0-.01,1.73-4.1,2.74-6.96,4.06-7.27,0,0,8.91,3.63,13.85,3.07,1.7-.19,4.81-1.62,5.76-1.98.03.03.05.06.08.09.02.02.04.05.06.07.02.03.04.05.05.08.72,1.07.61,2.83.65,3.51.07,1.32.34,3.16.06,5.85Z" style="fill: #fa7f18;"/>
          <path d="m14.84,131.86s1.53,3.65,1.58,3.99c.02.15.04.36.05.55.74.6,1.63,1.06,2.55,1.34,2.59.78,3.71-4.18,3.56-6.65-.15-2.48-3.82-9.54-5.03-9.69-1.22-.15-2.7,10.46-2.7,10.46Z" style="fill: #fbbe18;"/>
          <path d="m14.68,132.63c.1-.48.16-.77.16-.77-.08.26-.13.52-.16.77Z" style="fill: #32afc6;"/>
          <path d="m25.36,138.74c4.72,0,6.6-1.33,6.74-1.44l.31-2.23s-6.39,3.84-16.2.19l.21,1.69c3.77,1.4,6.49,1.78,8.94,1.78Z" style="fill: #32afc6;"/>
          <path d="m1.99,141.04c0,1.95,1.98,3.14,4.12,3.72-2.94-3.5,3.49-24.65,3.65-25.19-3.25,7.72-7.77,18.98-7.77,21.47Z" style="fill: #fbbe18;"/>
          <g>
            <path d="m22.5,218.13h1.58c.53-.08.92-.24,1.46-.31.82-.11,1.2.23,1.28.31.01.01.01.02.01.02h6.7c.17-.24,0-.8-.15-1.21-.11-.28-.34-.49-.63-.57-.71-.21-2.11-.39-3.4-1.55-.72-.65-3.49-2.4-3.49-2.4h-.01c-.06,0-.35.09-1.61,1.15-.65.55-1.76-.77-1.76-.77,0,0-.21.17-.36.49-.12.25-.22.6-.14,1.03.1.6-.22,1.73-.48,2.49-.16.46-.29.79-.29.79,0,0-.08.38,1.28.55Z" style="fill: #525caa;"/>
            <path d="m22.13,213.28c.38.27,1.17.79,1.7.86.71.09,2.04-1.72,2.04-1.72h-.01c-.06,0-.35.09-1.61,1.15-.65.55-1.76-.77-1.76-.77,0,0-.21.17-.36.49Z" style="fill: #4489c9;"/>
            <path d="m22.5,218.13h1.58c.53-.08.92-.24,1.46-.31.82-.11,1.2.23,1.28.31.01.01.01.02.01.02h6.7c.17-.24,0-.8-.15-1.21-.2-.18-.26.79-.37.94-.11.15-5.47.06-5.78-.17-.31-.23-1.24-.62-2.53-.31-1.13.27-2.79-.42-3.2-.6-.16.46-.29.79-.29.79,0,0-.08.38,1.28.55Z" style="fill: #4489c9;"/>
          </g>
          <g>
            <path d="m14.08,218.13h1.58c.53-.08.92-.24,1.46-.31.82-.11,1.2.23,1.28.31.01.01.01.02.01.02h6.7c.17-.24,0-.8-.15-1.21-.11-.28-.34-.49-.63-.57-.71-.21-2.11-.39-3.4-1.55-.72-.65-3.49-2.4-3.49-2.4h-.01c-.06,0-.35.09-1.61,1.15-.65.55-1.76-.77-1.76-.77,0,0-.21.17-.36.49-.12.25-.22.6-.14,1.03.1.6-.22,1.73-.48,2.49-.16.46-.29.79-.29.79,0,0-.08.38,1.28.55Z" style="fill: #525caa;"/>
            <path d="m13.71,213.28c.38.27,1.17.79,1.7.86.71.09,2.04-1.72,2.04-1.72h-.01c-.06,0-.35.09-1.61,1.15-.65.55-1.76-.77-1.76-.77,0,0-.21.17-.36.49Z" style="fill: #4489c9;"/>
            <path d="m14.08,218.13h1.58c.53-.08.92-.24,1.46-.31.82-.11,1.2.23,1.28.31.01.01.01.02.01.02h6.7c.17-.24,0-.8-.15-1.21-.2-.18-.26.79-.37.94-.11.15-5.47.06-5.78-.17-.31-.23-1.24-.62-2.53-.31-1.13.27-2.79-.42-3.2-.6-.16.46-.29.79-.29.79,0,0-.08.38,1.28.55Z" style="fill: #4489c9;"/>
          </g>
          <path d="m2.97,152.12s-.68,1.61-1.4,2.06c-.71.45-1.39,1.53-1.54,2.4-.27,1.6.95,2.59,1.85,2.59s1.76-1.23,2.29-4.16c.03-.16.88-1.84.88-1.84l-2.09-1.05Z" style="fill: #ffbd8f;"/>
          <g>
            <polygon points="47.05 118.8 46.94 119.89 46.61 123.29 46.4 125.47 42.05 125.47 41.78 123.29 41.36 119.89 41.23 118.8 47.05 118.8" style="fill: #ffa255;"/>
            <polygon points="47.36 118.8 40.89 118.8 41.02 118.16 47.2 118.16 47.36 118.8" style="fill: #f18b3d;"/>
            <polygon points="46.94 119.89 46.61 123.29 41.78 123.29 41.36 119.89 46.94 119.89" style="fill: #f18b3d;"/>
          </g>
          <path d="m47.51,121.11s-1.1-1.23-2.2-.29c-1.1.94.07,2.94,1.03,3.49.95.55,1.26.83,1.26.83l-.09-4.03Z" style="fill: #ffbd8f;"/>
          <path d="m22.58,152.38l-.83-.06s1.62-14.46,1.15-20.45c-.88-11.17-5.85-20.5-5.9-20.58l1.53-.27c.06.09.98,2.05,2.17,5.61,1.1,3.28,2.84,8.72,3.12,14.83.27,6.03-1.19,20.86-1.23,20.93Z" style="fill: #f85b41;"/>
          <g>
            <path d="m12.57,149.2s.8-1.98,2.08-2.47l6.52,1.23s-1.61,1.53-1.76,2.53l-6.84-1.29Z" style="fill: #b7f8fb;"/>
            <path d="m12.3,148.03h7.52c.53,0,.96.43.96.96v11.34c0,.53-.43.96-.96.96h-7.52c-.53,0-.96-.43-.96-.96v-11.34c0-.53.43-.96.96-.96Z" transform="translate(-138.91 141.8) rotate(-79.33)" style="fill: #f85b41;"/>
            <g>
              <rect x="11.39" y="145.12" width="5.33" height="6.83" transform="translate(1.3 -.12) rotate(.5)" style="fill: #32afc6;"/>
              <rect x="11.08" y="145.12" width="5.33" height="6.83" transform="translate(1.3 -.11) rotate(.5)" style="fill: #ffa255;"/>
            </g>
            <g>
              <rect x="12.82" y="146.9" width="5.33" height="6.83" transform="translate(94.55 21.54) rotate(37.43)" style="fill: #41b2c2;"/>
              <rect x="12.35" y="146.54" width="5.33" height="6.83" transform="translate(94.23 21.75) rotate(37.43)" style="fill: #525caa;"/>
            </g>
            <rect x="8.85" y="147.56" width="9.45" height="13.27" rx="1.21" ry="1.21" transform="translate(-140.47 138.98) rotate(-79.33)" style="fill: #af3524;"/>
          </g>
          <path d="m15.51,97.59s-3.41-6.79,1.36-9.47c4.77-2.68,8.25-1.63,10.88,1.65l-12.23,7.82Z" style="fill: #32afc6;"/>
          <path d="m34.71,89.03c-.98-1.57-4.41-1.32-8.55.38-1.62.66-3.34,1.55-5.07,2.62-2.15,1.34-4.03,2.81-5.5,4.25-2.74,2.68-4.08,5.25-3.19,6.67.27.43.68.72,1.29.88.61-1.31,2.35-2.53,2.84-3.55.7-1.44,2.46-4.05,5.69-6.07,2.48-1.55,4.95-2.46,6.65-2.57.99-.06,1.72.14,2.04.66.25.4.22.94-.03,1.57.24.41.52.98.74,1.74,2.69-2.65,3.99-5.18,3.11-6.59Z" style="fill: #4dc2d6;"/>
        </g>
      </g>
      <g>
        <circle cx="79.98" cy="42.49" r="42.49" style="fill: #4faf4f;"/>
        <polygon points="49.96 65.27 50.6 93.47 75.88 83.39 49.96 65.27" style="fill: #4faf4f;"/>
      </g>
      <g>
        <text transform="translate(56.27 52.92)" style="fill: #fff; font-family: SourceHanSansTC-Regular-B5pc-H, &apos;Source Han Sans TC&apos;; font-size: 24.89px;"><tspan x="0" y="0">社會</tspan></text>
        <text transform="translate(56.27 52.92)" style="fill: #fff; font-family: SourceHanSansTC-Regular-B5pc-H, &apos;Source Han Sans TC&apos;; font-size: 24.89px;"><tspan x="0" y="0">社會</tspan></text>
      </g>
    </g>
  </g>
</svg>