<?xml version="1.0" encoding="utf-8"?>
<!-- Generator: Adobe Illustrator 27.3.1, SVG Export Plug-In . SVG Version: 6.00 Build 0)  -->
<svg version="1.1" id="_圖層_2" xmlns="http://www.w3.org/2000/svg" xmlns:xlink="http://www.w3.org/1999/xlink" x="0px" y="0px"
	 viewBox="0 0 263.6 263.6" style="enable-background:new 0 0 263.6 263.6;" xml:space="preserve">
<style type="text/css">
	.st0{clip-path:url(#SVGID_00000070081047187741036700000002478366909120197779_);}
	.st1{fill:#AFF0DA;}
	.st2{fill:#F7AA9F;}
	.st3{fill:#FFA03B;}
	.st4{fill:#FFBF66;}
	.st5{fill:none;stroke:#EB8736;stroke-width:0.45;stroke-miterlimit:10;}
	.st6{fill:#EB8736;}
	.st7{fill:#FFCCB6;}
	.st8{opacity:0.53;fill:#EF8B8B;enable-background:new    ;}
	.st9{fill:none;stroke:#FF7B7B;stroke-width:0.9;stroke-linecap:round;stroke-linejoin:round;}
	.st10{fill:#212433;}
	.st11{fill:#4B2B27;}
	.st12{fill:none;stroke:#DB4B60;stroke-width:0.9;stroke-linecap:round;stroke-miterlimit:10;}
	.st13{fill:#FFFFFF;}
	.st14{fill:#6B463A;}
	.st15{fill:#F06972;}
	.st16{fill:#E65568;}
	.st17{fill:#EF8B8B;}
	.st18{opacity:0.41;fill:#EF8B8B;enable-background:new    ;}
	.st19{fill:#4C252B;}
	.st20{fill:#6B3C39;}
	.st21{fill:#8E5448;}
	.st22{fill:#3C336B;}
	.st23{fill:#574F9E;}
	.st24{fill:#BBD4ED;}
	.st25{fill:#E9EEF5;}
	.st26{fill:#FFEAC2;}
	.st27{fill:#3B2F45;}
	.st28{fill:#FF6F47;}
	.st29{fill:#FFB452;}
	.st30{fill:#B8CAEB;}
	.st31{fill:#319E7A;}
	.st32{fill:#16B596;}
</style>
<g id="_第一cut">
	<g id="teachers_and_students">
		<g>
			<defs>
				<circle id="SVGID_1_" cx="131.9" cy="132" r="123"/>
			</defs>
			<clipPath id="SVGID_00000142890696575550927660000015026564006836093825_">
				<use xlink:href="#SVGID_1_"  style="overflow:visible;"/>
			</clipPath>
			<g style="clip-path:url(#SVGID_00000142890696575550927660000015026564006836093825_);">
				<circle class="st1" cx="131.9" cy="132" r="123"/>
				<g>
					<g>
						<g>
							<polygon class="st2" points="49.4,161.5 41,192.8 65.3,193.6 71.3,166.2 							"/>
							<g>
								<g>
									<path class="st3" d="M182.9,169.1l-5.9,0.1l-20.1,1.8l-10.9,1l3.2-53.6c0,0,22.6-5.2,29.5,2.4
										C185.5,128.4,182.9,169.1,182.9,169.1L182.9,169.1z"/>
									<path class="st3" d="M108.2,120.6l28.5-3.6l27.1,7.1c8.4,7.9,5.1,21.5,0,31.8c-7.2,14.6-14.8,41-10.9,70.6l-81.8-0.9
										c0,0-1.3-48.3,6.4-77.4C81.5,132.9,92.6,122.8,108.2,120.6L108.2,120.6z"/>
									<g>
										<path class="st2" d="M123.8,109.8c-2.2,4.6-4.5,9.3-5.5,14.4c-2.9,15.1,11.9,20.6,11.9,20.6s5.7-2.4,8.8-10.4
											c2.6-6.7,5.3-13.2,7.5-20.1c-1-4.5-5.2-8.3-9.2-9.3C133.2,104,125.8,105.7,123.8,109.8L123.8,109.8z"/>
										<path class="st4" d="M142.8,123.9c-2.1,8.4-7,15.7-12.6,20.9c10.2-2.4,18.7-3.7,26.6,7.2c0.2-5.8-0.2-14.1-0.7-19.8
											c-0.3-3.2-1-6.7-3.4-8.6C150,121.3,146.2,122.2,142.8,123.9z"/>
										<path class="st4" d="M130.2,144.8c-4.6-5.1-10.6-19.7-8.4-30.6c-4.3-2-9.4-1.1-13.6,2.7c-4.1,8.7-6.2,18.5-5.6,29
											C111.1,141.7,122.2,141.1,130.2,144.8z"/>
									</g>
									<path class="st5" d="M130.7,144.8c-7.2,25.9-10.4,52.8-9.5,79.6"/>
									<path class="st4" d="M134.6,171.6c-0.1-4.3,0.7-9,2.3-12.9c7.1,0.9,12.7,0.8,21,0.8c-1.2,3.8-2.5,7.5-4,12.7
										c-2.9,3.4-6.6,6-10.8,7.4C139.1,177.9,136.8,175.9,134.6,171.6L134.6,171.6z"/>
									<path class="st6" d="M157.9,171c6.8-11.8,11.5-25.3,13.8-39.2c0.5,8.5-1.3,17.1-5.2,24.6c3.9-4.3,7.4-9,10.4-14
										C173.5,153.4,166.9,163.9,157.9,171L157.9,171z"/>
								</g>
								<g>
									<polygon class="st7" points="178.7,169.1 178.5,173.1 176.1,224.6 158.7,225.1 157.8,179.6 157.9,171 									"/>
									<polygon class="st2" points="178.7,169.1 178.5,173.1 157.8,179.6 157.9,171 									"/>
								</g>
							</g>
						</g>
						<g>
							<path class="st2" d="M168.3,116.9c3.1,0.3,6.3,0.5,9.4,0.1s6.2-1.4,8.7-3.2s4.5-4.6,4.9-7.8c0.4-3.1-0.7-6.5-3.3-8.3
								s-6.4-1.9-8.7,0.2C173.9,102.9,171,109.9,168.3,116.9z"/>
							<g>
								<path class="st7" d="M173.5,119.9c-6.6,10.3-24.6,13.5-36.1,9.1c-12.6-4.8-20.8-12.6-24.7-24.9
									c-10.4-0.3-15.7-14.3-10.9-22.4c3-6.2,11.2-4.6,12.5,2c0.1-19.5,9.1-36.2,28.4-40c30.8-6,55.7,21.7,41.2,54.2
									C181.5,103.4,174,119.1,173.5,119.9z"/>
								<path class="st8" d="M119.8,79.5c6.3-2.1,11.8-6.5,15.1-12.3c2.1,5.4,9.3,8.2,14.6,5.6c3.1,3.7,6.5,7.3,10.8,9.5
									c4.3,2.2,9.6,2.9,13.9,0.7c1.5-0.8,2.9-1.9,4.6-2.1c2.6-0.3,5.1,1.7,6.1,4.1s1,5.2,0.9,7.8c6-6.9,4-18.1-2.1-25
									s-15-10.2-23.7-13.1c-8.5-2.8-17.6-5.3-26.2-2.9C123.3,54.7,115.5,65.8,119.8,79.5z"/>
							</g>
							<path class="st9" d="M111.3,97.9c-0.9,0.3-2-0.5-2.1-1.5s0.6-1.9,1.5-2.4s1.9-0.6,2.9-0.6c0.1-2.3-1-4.5-2.7-5.9
								s-4.3-1.9-6.5-1.3"/>
							<g>
								<path class="st10" d="M137.2,100c-0.5,2-1.9,3.3-3.2,3s-2.1-2.2-1.6-4.1c0.5-2,1.9-3.3,3.2-3C136.9,96.2,137.6,98,137.2,100
									z"/>
								<path class="st10" d="M161,108.2c-0.7,1.9-2.4,3-3.6,2.5s-1.7-2.4-1-4.3c0.7-1.9,2.4-3,3.6-2.5
									C161.3,104.4,161.8,106.3,161,108.2z"/>
								<path class="st11" d="M163.2,90.1c1.8-1,4.1-1.1,6.1-0.4s3.6,2.3,4.4,4.2C170.1,92.3,167,90.9,163.2,90.1L163.2,90.1z"/>
								<path class="st11" d="M132.2,78.7c1.8-1.1,4.1-1.3,6-0.7s3.7,2.2,4.5,4.1C139.2,80.7,136,79.4,132.2,78.7z"/>
								<path class="st12" d="M148.2,103.6c-0.2,3.3-1.2,5.8-2.7,7.2"/>
								<path class="st13" d="M148.2,117.1c-4.7-1.8-9.2-4.2-13.2-7.2c-2.3,2.3-2.9,6.1-1.5,9.1s4.8,4.8,8,4.5
									C144.8,123.2,147.7,120.6,148.2,117.1L148.2,117.1z"/>
							</g>
							<g>
								<path class="st11" d="M205.7,66.4c-0.5,4.6-5.1,8.3-9.7,7.8c3,1.9,4.3,6.1,3.1,9.4c-0.4,1.2-1.2,2.2-2.1,3
									c-1.8,1.4-4.2,2.1-6.6,1.2c-1.8,8.2-5.9,15.8-12.1,21.9c3.9-6.5,6.4-13.8,7.4-21.3c1.6-11.7-5.3-14.6-9.6-15.3
									c0.9,1.7,0.8,4-0.5,5.4c-1.2,1.3-3.2,1.8-5,1.5c-1.8-0.2-3.5-1.1-5.1-1.9c-6.3-3.2-12.9-7.1-15.9-13.4
									c0.5,2-1.5,4.3-3.7,4.4c-2.5,0.1-4.7-1.6-6.3-3.5s-2.9-4.1-5-5.5c-2.9,8.8-8.1,16.1-15.1,21c-1.1,2.9-2.4,6.4-3.7,9.8
									c0.6-5.5-2.8-11.3-7.9-13.5c-0.6-8,1.1-15.9,4.3-23.1c1.7-3.8,3.9-7.4,7.3-9.8c3.4-2.3,8.1-3.1,11.6-0.8
									c2.2-3.7,6-6.2,10.3-7.6c3-1,6.4-1.4,9.5-1.2c7.7,0.4,15,3.4,22.3,5.9c7.3,2.5,15.2,4.4,22.7,2.7c1.8-0.4,3.8-1.1,5.5-0.4
									c2.7,1,3.5,4.7,2.4,7.3c-1.1,2.7-3.5,4.5-5.9,6.2C202.6,57.2,206.2,61.9,205.7,66.4L205.7,66.4z"/>
								<path class="st14" d="M205.7,66.4c-0.5,4.6-5.1,8.3-9.7,7.8c3,1.9,4.3,6.1,3.1,9.4c-0.4,1.2-1.2,2.2-2.1,3
									c0.6-5.6-1.6-11.6-6.1-15c3.6,0.3,7.1-2.6,7.5-6.1s-2.5-7.2-6-7.6c2.5,0.2,4.1-3.2,3-5.5c-1.1-2.3-3.9-3.3-6.4-3.3
									c-2.5,0-5,0.7-7.6,0.8c-6,0.4-11.8-2.2-17-5.2c-5.2-3-10.4-6.4-16.2-7.9c-2.1-0.5-4.4-0.8-6.7-0.6c3-1,6.4-1.4,9.5-1.2
									c7.7,0.4,15,3.4,22.3,5.9c7.3,2.5,15.2,4.4,22.7,2.7c1.8-0.4,3.8-1.1,5.5-0.4c2.7,1,3.5,4.7,2.4,7.3
									c-1.1,2.7-3.5,4.5-5.9,6.2C202.6,57.2,206.3,61.9,205.7,66.4L205.7,66.4z"/>
							</g>
						</g>
					</g>
					<g>
						<g>
							<g>
								<path class="st15" d="M81.6,198.6l3.8-6.4c0,0,7.1,0.9,10.4,7.4c3.4,6.6,6.8,24.3,6.8,24.3l-17.4,0.4L81.6,198.6L81.6,198.6
									z"/>
								<path class="st16" d="M67.3,183.6l-11,2.8c-12.6,4.5-10.5,9.3-12.7,16.8l-5.2,21.1l52.3,0.8l0.8-15.9
									c0.4-8.4-4-16.4-11.3-20.5l-9.5-5.3"/>
								<path class="st15" d="M57.4,188c-0.8-0.6-2.3-0.7-4-0.3c-3.3,0.7-8.3,4.3-12.2,10.5c-1.8,2.8-5.8,9.5-5.8,9.5
									c3.1,6.7,11.3,9.4,16.2,9.8C51.6,217.5,63.3,192.9,57.4,188L57.4,188z"/>
								<path class="st17" d="M61.6,184.7c1.3,4,3.3,7.8,6,11.1c1.3,1.6,2.9,3.1,4.8,3.6c2.8,0.8,5.9-0.5,8-2.6s3.4-4.8,4.6-7.5
									C77.3,188.6,69.6,187.1,61.6,184.7L61.6,184.7z"/>
							</g>
							<g>
								<path class="st2" d="M105.3,181.3c2.9-0.3,5.8-0.7,8.6-1.6c2.8-0.9,5.4-2.4,7.4-4.5c2-2.1,3.3-5,3.1-8
									c-0.1-2.9-1.8-5.8-4.5-7.1c-2.7-1.2-6.2-0.6-7.9,1.8C107.9,167.5,106.5,174.5,105.3,181.3L105.3,181.3z"/>
								<g>
									<path class="st7" d="M47.5,161.4c-5.2-22,3.5-39.4,20.5-46.3c27.1-10.9,54.9,9.9,47.4,42.3c-1.3,5.5-5.3,21.2-5.6,22
										c-4.2,10.6-17.6,15.4-29.9,14.2c-12.5-1.3-22.8-7.3-28.5-17.8"/>
									<path class="st18" d="M54.2,164.9c1-4.1,3.5-7.8,7.2-9.9c4.6-0.9,8.9-3,12.4-5.8c4.2,3.3,11,2.6,14.5-1.5
										c2.3,2.1,5.6,3.2,8.6,2.7s5.9-2.4,7.5-5.1c2.1,4.7,6.8,8.2,12,8.7c0.1-4.9,0.2-10-1-14.8c-1.1-4.8-3.6-9.5-7.7-12.3
										c-3.3-2.2-7.4-3.1-11.4-3.5c-11.3-1.1-23.2,0.8-32.3,7.6C54.8,137.7,49.2,149.7,54.2,164.9L54.2,164.9z"/>
								</g>
								<g>
									<path class="st7" d="M57.4,181.1c-8.7,4.3-19.2-4.9-18.9-13.6c-0.3-6.4,7.1-8.7,11.1-3.9"/>
									<path class="st9" d="M50.8,177.5c-0.8,0.6-2,0.1-2.3-0.8s0-1.9,0.7-2.6c0.7-0.7,1.5-1.1,2.4-1.4c-0.5-2.1-2.1-3.8-4.1-4.5
										s-4.3-0.6-6.1,0.6"/>
								</g>
								<g>
									<path class="st10" d="M76.8,176.6c-0.1,1.9-1.2,3.4-2.4,3.3s-2.3-1.6-2.2-3.5s1.2-3.4,2.4-3.3S76.9,174.7,76.8,176.6z"/>
									<path class="st10" d="M101.3,176.9c-0.3,1.9-1.6,3.2-2.9,2.9s-2-1.9-1.7-3.8s1.6-3.2,2.9-2.9S101.7,175,101.3,176.9z"/>
									<path class="st19" d="M97.5,160.7c1.6-1.1,3.7-1.4,5.6-0.9c1.9,0.5,3.5,1.8,4.4,3.5C104.1,162.2,101.1,161.1,97.5,160.7z"
										/>
									<path class="st19" d="M67.3,162.8c1.2-1.6,3-2.6,4.9-2.8s3.9,0.5,5.4,1.8C74,161.9,70.7,161.9,67.3,162.8z"/>
									<path class="st12" d="M88.5,179c1.1,0.9,1,2.9-0.2,3.7"/>
									<path class="st12" d="M86.1,186.9c-3.1,1.1-7-0.6-8.2-3.7"/>
								</g>
								<g>
									<path class="st19" d="M120.6,148.8c-1.7,8.2-5.3,16.4-8.4,21.6c1.3-6,1.9-11.3,2.2-18.1c-6.5-4.1-8.2-12.7-7.4-19.4
										c-2,6.3-4.9,13.6-11.4,13c-1.9-0.1-3-1.8-4.4-5.6c-2.2,4.2-6.6,8.1-10.8,7.6c-3.2-0.3-4.5-3.4-3.5-7
										c-3.9,5.2-11.6,9.7-17.2,11.9c-3.6,5.3-4.6,10-5.3,17.5c-2.2-6.7-6.6-9.3-12.2-9c-7.7-20.6,1.3-38.6,15.8-47.8
										c16.2-10.4,39.3-9.9,53.8,9.6C121.7,127.2,122.8,138,120.6,148.8L120.6,148.8z"/>
									<path class="st20" d="M120.6,148.8c-0.2-3.5-0.8-6.9-2-10.2c-1-2.9-2.4-5.6-4.4-7.8c-2.1-2.2-4.9-3.8-7.9-4
										C99.2,118,89,112.1,78,110.7c-6.8-0.8-13.8,0.1-20.1,2.8c16.2-10.4,39.3-9.9,53.8,9.6C121.7,127.2,122.8,138,120.6,148.8
										L120.6,148.8z"/>
								</g>
							</g>
						</g>
						<g>
							<path class="st7" d="M57.2,185.8L57.2,185.8c-3.6-1.9-8.6-1.9-12.6-0.2s-7.2,4.7-9.1,8.2c-1.9,3.4-2.5,7.2-2.5,11
								c0,0.9,0,1.7,0.5,2.5c0.4,0.8,1.3,1.4,2.3,1.3c1.2-0.1,2-0.9,2.6-1.9c0,0,0,0,0.1,0c1.2,0.5,2.9-0.1,3.8-1.1
								c0.8-0.8,1.1-1.8,1.4-2.8c0.6,0.5,1.5,0.8,2.4,0.6c1.5-0.4,2.1-1.8,2.5-3.1c0.1-0.4,0.2-0.8,0.4-1.2c0.5,0.5,1.3,0.8,2.1,0.7
								c1.1-0.1,2-0.7,2.6-1.6c0.5-0.8,0.7-1.8,0.8-2.7c0.2-1.7,0.1-3.4,0.4-5.2C55,188.8,55.8,187.1,57.2,185.8
								C57.3,185.9,57.3,185.9,57.2,185.8z"/>
							<g>
								<path class="st12" d="M51.2,186.2c-2.1,3.6-3,7.9-2.4,12.1"/>
								<path class="st12" d="M44.7,189.1c-2.3,4-2.7,9-1.2,13.4"/>
								<path class="st12" d="M38.8,192.3c-1.9,4.3-2.1,9.2-0.6,13.6"/>
							</g>
						</g>
					</g>
					<polygon class="st21" points="20.4,271 15.4,221.1 199.8,221.1 322.9,250 					"/>
					<g>
						<g>
							<g>
								<g>
									<polygon class="st22" points="60.7,221.6 56.2,222.1 56.2,224.4 83.9,236.7 124.3,236.5 152.2,234.2 152.2,232.4 									
										"/>
									<polygon class="st23" points="124.1,235 84,234.9 56.2,222.1 63,220.2 124.1,224.6 152.2,232.4 									"/>
								</g>
								<g>
									<path class="st24" d="M123.8,233.9c9.9-3.9,16.5-4.2,26.2-2l0.2-4.9l-19.6-3.9l-13.8,4.7L123.8,233.9L123.8,233.9z"/>
									<path class="st25" d="M86.3,218.4c11.9-4,21.3-3.2,31-1.8l32.8,10.6c-11.4-1.8-16.9-1.8-25.9,2.1L86.3,218.4z"/>
								</g>
								<g>
									<path class="st24" d="M59.3,217.7l-0.6,3.6l25.4,12c17.4-2.1,24.8-1.4,39.7,0.6l0.2-4.7L59.3,217.7L59.3,217.7z"/>
									<path class="st13" d="M89,217.4l35.1,11.9c-15.6-3.3-26-4-39.5,0l-25.3-11.6C71.7,214.6,82.1,215.1,89,217.4L89,217.4z"/>
								</g>
							</g>
							<g>
								<g>
									<polygon class="st26" points="76.6,213.7 77.2,216.4 80,219.3 81.6,218.4 80.1,214.4 77.7,212.8 									"/>
									<path class="st27" d="M80,218.8c0.3-0.4,0.7-0.6,1.1-0.7c0.2,0,0.3,0.1,0.4,0.2l0.9,2.5c0.2,0.4-0.4,0.8-0.7,0.5l-1.8-1.9
										C79.8,219.2,79.9,218.9,80,218.8L80,218.8z"/>
									<path class="st28" d="M61.1,189.8l-0.7-0.8l-0.6-0.7c-0.8-1.7,1.8-3.8,3-2.2l0.6,0.7l0.4,1.4L61.1,189.8L61.1,189.8z"/>
									<g>
										<path class="st29" d="M61,189l0.9,2.2l15.4,25.2c0.6-1.4,1.6-2,2.8-2L64.8,189l-1.6-1.6L61,189L61,189z"/>
										<path class="st30" d="M61.8,191.2c0.7-1,1.7-1.8,3-2.2l-1.4-2.3c-1.3,0.3-2.3,1.1-3,2.2L61.8,191.2L61.8,191.2z"/>
									</g>
								</g>
								<g>
									<path class="st7" d="M58,209.5c1.4-3.8,5.6-6.3,9.7-6.3c4.1-0.1,8.1,1.9,11,4.8c0.8,0.8,1.5,1.6,1.9,2.6
										c0.3,1,0.2,2.2-0.5,3c-1.3,1.3-3.6,0.6-4.6,0.2c1,4.2-1,8.9-4.8,11c-3.8,2.1-8.9,1.5-12-1.5
										C55.6,220.2,55.8,215.6,58,209.5L58,209.5z"/>
									<path class="st7" d="M59.2,211.9l-16.6-2.5c-3.9-0.6-7.5,2-8.2,5.8l0,0c-0.9,4.5,2.6,8.7,7.2,8.6l19.1-0.1L59.2,211.9
										L59.2,211.9z"/>
								</g>
							</g>
						</g>
						<g>
							<path class="st7" d="M160.3,219.1c-6.2,5.3-5.7,12.7,0.9,16.9c3.9,2.5,8.8,3.2,6.6-1.5c-0.2-0.5-0.5-0.9-0.8-1.3l13,4.7
								c1.5,0.6,3.1,1.1,4.8,1c1-0.1,2.1-0.5,2.9-1.2l0.2,0.1c1.6,0.5,3.5,1,4.7-0.1c0.5-0.4,0.7-1,0.8-1.7c0.2,0,0.3,0,0.5,0
								c1-0.1,2-0.6,2.5-1.5c0.3-0.6,0.2-1.3,0-1.9C205.8,223.5,167.7,216.4,160.3,219.1L160.3,219.1z"/>
							<g>
								<path class="st12" d="M187.6,236.9c0.4-0.8,0.2-1.8-0.3-2.5s-1.3-1.2-2.1-1.6c-3.9-2.1-8.1-3.5-12.4-4.3"/>
								<path class="st12" d="M193.2,235.3c0.5-0.8,0.4-1.9-0.1-2.7s-1.2-1.4-2-2c-3.3-2.4-7.2-3.9-11.3-4.3"/>
								<path class="st12" d="M196.2,232.1c0.4-1.3-0.3-2.7-1.3-3.5s-2.3-1.3-3.5-1.8c-3-1-6.1-1.9-9.1-2.7"/>
							</g>
						</g>
					</g>
				</g>
			</g>
		</g>
		<g>
			<path class="st31" d="M131.9,263.6c-0.4,0-0.7-0.3-0.7-0.7s0.3-0.7,0.7-0.7c1.2,0,2.5,0,3.7,0c0.4,0,0.7,0.3,0.7,0.7
				c0,0.4-0.3,0.7-0.7,0.7C134.4,263.6,133.1,263.6,131.9,263.6L131.9,263.6z M128.1,263.5C128.1,263.5,128.1,263.5,128.1,263.5
				c-1.3,0-2.5-0.1-3.8-0.2c-0.4,0-0.7-0.4-0.7-0.7c0-0.4,0.3-0.7,0.7-0.7c1.2,0.1,2.5,0.1,3.7,0.1c0.4,0,0.7,0.3,0.7,0.7
				C128.8,263.2,128.5,263.5,128.1,263.5L128.1,263.5z M139.3,263.4c-0.4,0-0.7-0.3-0.7-0.7c0-0.4,0.3-0.7,0.7-0.7
				c1.2-0.1,2.5-0.2,3.7-0.3c0.4,0,0.7,0.2,0.8,0.6c0,0.4-0.2,0.7-0.6,0.8C141.9,263.2,140.6,263.3,139.3,263.4
				C139.4,263.4,139.4,263.4,139.3,263.4L139.3,263.4z M120.6,263.1C120.6,263.1,120.6,263.1,120.6,263.1c-1.3-0.1-2.6-0.2-3.8-0.4
				c-0.4,0-0.7-0.4-0.6-0.8c0-0.4,0.4-0.7,0.8-0.6c1.2,0.1,2.5,0.3,3.7,0.4c0.4,0,0.7,0.4,0.6,0.8
				C121.3,262.9,121,263.1,120.6,263.1L120.6,263.1z M146.8,262.8c-0.4,0-0.6-0.3-0.7-0.6c0-0.4,0.2-0.7,0.6-0.8
				c1.2-0.1,2.5-0.3,3.7-0.5c0.4-0.1,0.7,0.2,0.8,0.6c0.1,0.4-0.2,0.7-0.6,0.8C149.4,262.5,148.1,262.6,146.8,262.8
				C146.9,262.8,146.8,262.8,146.8,262.8L146.8,262.8z M113.2,262.3C113.2,262.3,113.1,262.3,113.2,262.3c-1.3-0.2-2.6-0.4-3.8-0.6
				c-0.4-0.1-0.6-0.4-0.6-0.8s0.4-0.6,0.8-0.6c1.2,0.2,2.5,0.4,3.7,0.6c0.4,0,0.7,0.4,0.6,0.8C113.8,262.1,113.5,262.3,113.2,262.3
				L113.2,262.3z M154.2,261.7c-0.3,0-0.6-0.2-0.7-0.6c-0.1-0.4,0.2-0.7,0.6-0.8c1.2-0.2,2.4-0.4,3.7-0.7c0.4-0.1,0.8,0.2,0.8,0.5
				c0.1,0.4-0.2,0.8-0.6,0.8c-1.2,0.2-2.5,0.5-3.7,0.7C154.3,261.7,154.3,261.7,154.2,261.7L154.2,261.7z M105.8,261
				c0,0-0.1,0-0.1,0c-1.2-0.2-2.5-0.5-3.7-0.8c-0.4-0.1-0.6-0.5-0.5-0.8c0.1-0.4,0.5-0.6,0.8-0.5c1.2,0.3,2.4,0.5,3.6,0.8
				c0.4,0.1,0.6,0.5,0.6,0.8C106.5,260.8,106.2,261,105.8,261L105.8,261z M161.6,260.2c-0.3,0-0.6-0.2-0.7-0.5
				c-0.1-0.4,0.1-0.8,0.5-0.8c1.2-0.3,2.4-0.6,3.6-0.9c0.4-0.1,0.8,0.1,0.9,0.5c0.1,0.4-0.1,0.8-0.5,0.9c-1.2,0.3-2.4,0.6-3.6,0.9
				C161.7,260.2,161.6,260.2,161.6,260.2L161.6,260.2z M98.5,259.3c-0.1,0-0.1,0-0.2,0c-1.2-0.3-2.4-0.7-3.6-1
				c-0.4-0.1-0.6-0.5-0.5-0.9s0.5-0.6,0.9-0.5c1.2,0.4,2.4,0.7,3.6,1c0.4,0.1,0.6,0.5,0.5,0.9C99.1,259.1,98.8,259.3,98.5,259.3z
				 M168.8,258.3c-0.3,0-0.6-0.2-0.7-0.5c-0.1-0.4,0.1-0.8,0.5-0.9c1.2-0.4,2.4-0.7,3.6-1.1c0.4-0.1,0.8,0.1,0.9,0.4
				c0.1,0.4-0.1,0.8-0.4,0.9c-1.2,0.4-2.4,0.8-3.6,1.1C168.9,258.3,168.9,258.3,168.8,258.3L168.8,258.3z M91.4,257.2
				c-0.1,0-0.1,0-0.2,0c-1.2-0.4-2.4-0.8-3.6-1.2c-0.4-0.1-0.6-0.5-0.4-0.9c0.1-0.4,0.5-0.6,0.9-0.4c1.2,0.4,2.4,0.8,3.5,1.2
				c0.4,0.1,0.6,0.5,0.4,0.9C91.9,257.1,91.6,257.2,91.4,257.2L91.4,257.2z M175.9,256c-0.3,0-0.6-0.2-0.7-0.5
				c-0.1-0.4,0.1-0.8,0.4-0.9c1.2-0.4,2.3-0.9,3.5-1.3c0.4-0.1,0.8,0,0.9,0.4s0,0.8-0.4,0.9c-1.2,0.5-2.4,0.9-3.5,1.3
				C176.1,256,176,256,175.9,256L175.9,256z M84.3,254.7c-0.1,0-0.2,0-0.2-0.1c-1.2-0.4-2.3-0.9-3.5-1.4c-0.4-0.1-0.5-0.6-0.4-0.9
				c0.2-0.4,0.6-0.5,0.9-0.4c1.1,0.5,2.3,1,3.5,1.4c0.4,0.1,0.5,0.6,0.4,0.9C84.8,254.6,84.6,254.7,84.3,254.7L84.3,254.7z
				 M182.9,253.3c-0.3,0-0.5-0.2-0.6-0.4c-0.1-0.4,0-0.8,0.4-0.9c1.1-0.5,2.3-1,3.4-1.5c0.4-0.2,0.8,0,0.9,0.4
				c0.2,0.4,0,0.8-0.4,0.9c-1.1,0.5-2.3,1-3.4,1.5C183,253.3,183,253.3,182.9,253.3L182.9,253.3z M77.3,251.8c-0.1,0-0.2,0-0.3-0.1
				c-1.1-0.5-2.3-1.1-3.4-1.6c-0.3-0.2-0.5-0.6-0.3-0.9s0.6-0.5,0.9-0.3c1.1,0.6,2.2,1.1,3.4,1.6c0.3,0.2,0.5,0.6,0.3,0.9
				C77.9,251.6,77.6,251.8,77.3,251.8z M189.6,250.2c-0.3,0-0.5-0.1-0.6-0.4c-0.2-0.4,0-0.8,0.3-0.9c1.1-0.5,2.2-1.1,3.3-1.7
				c0.3-0.2,0.8-0.1,0.9,0.3c0.2,0.3,0.1,0.8-0.3,0.9c-1.1,0.6-2.2,1.2-3.3,1.7C189.9,250.1,189.8,250.2,189.6,250.2L189.6,250.2z
				 M70.6,248.5c-0.1,0-0.2,0-0.3-0.1c-1.1-0.6-2.2-1.2-3.3-1.8c-0.3-0.2-0.5-0.6-0.3-0.9c0.2-0.3,0.6-0.4,0.9-0.3
				c1.1,0.6,2.2,1.2,3.3,1.8c0.3,0.2,0.5,0.6,0.3,0.9C71.1,248.4,70.9,248.5,70.6,248.5L70.6,248.5z M196.3,246.7
				c-0.2,0-0.5-0.1-0.6-0.4c-0.2-0.3-0.1-0.8,0.3-0.9c1.1-0.6,2.1-1.2,3.2-1.9c0.3-0.2,0.8-0.1,1,0.2c0.2,0.3,0.1,0.8-0.2,1
				c-1.1,0.6-2.2,1.3-3.2,1.9C196.5,246.7,196.4,246.7,196.3,246.7L196.3,246.7z M64.1,244.8c-0.1,0-0.2,0-0.4-0.1
				c-1.1-0.6-2.1-1.3-3.2-2c-0.3-0.2-0.4-0.6-0.2-1s0.6-0.4,1-0.2c1,0.7,2.1,1.3,3.2,2c0.3,0.2,0.4,0.6,0.2,1
				C64.6,244.7,64.3,244.8,64.1,244.8L64.1,244.8z M202.7,242.8c-0.2,0-0.5-0.1-0.6-0.3c-0.2-0.3-0.1-0.8,0.2-1
				c1-0.7,2.1-1.4,3.1-2.1c0.3-0.2,0.8-0.1,1,0.2c0.2,0.3,0.1,0.8-0.2,1c-1,0.7-2.1,1.4-3.1,2.1
				C202.9,242.8,202.8,242.8,202.7,242.8L202.7,242.8z M57.8,240.7c-0.1,0-0.3,0-0.4-0.1c-1-0.7-2.1-1.4-3.1-2.2
				c-0.3-0.2-0.4-0.7-0.2-1c0.2-0.3,0.7-0.4,1-0.1c1,0.7,2,1.4,3,2.1c0.3,0.2,0.4,0.6,0.2,1C58.2,240.6,58,240.7,57.8,240.7
				L57.8,240.7z M208.8,238.6c-0.2,0-0.4-0.1-0.6-0.3c-0.2-0.3-0.2-0.8,0.1-1c1-0.7,2-1.5,3-2.2c0.3-0.2,0.7-0.2,1,0.1
				c0.2,0.3,0.2,0.8-0.1,1c-1,0.8-2,1.5-3,2.2C209.1,238.6,209,238.6,208.8,238.6L208.8,238.6z M51.7,236.3c-0.2,0-0.3-0.1-0.4-0.1
				c-1-0.8-2-1.6-3-2.3c-0.3-0.2-0.3-0.7-0.1-1c0.2-0.3,0.7-0.3,1-0.1c1,0.8,1.9,1.6,2.9,2.3c0.3,0.2,0.4,0.7,0.1,1
				C52.1,236.2,51.9,236.3,51.7,236.3L51.7,236.3z M214.7,234c-0.2,0-0.4-0.1-0.5-0.3c-0.2-0.3-0.2-0.7,0.1-1c1-0.8,1.9-1.6,2.9-2.4
				c0.3-0.2,0.7-0.2,1,0.1c0.2,0.3,0.2,0.7-0.1,1c-0.9,0.8-1.9,1.6-2.9,2.4C215.1,234,214.9,234,214.7,234L214.7,234z M45.9,231.6
				c-0.2,0-0.3-0.1-0.5-0.2c-1-0.8-1.9-1.7-2.8-2.5c-0.3-0.3-0.3-0.7,0-1s0.7-0.3,1,0c0.9,0.8,1.8,1.7,2.8,2.5
				c0.3,0.2,0.3,0.7,0.1,1C46.3,231.5,46.1,231.6,45.9,231.6L45.9,231.6z M220.4,229.1c-0.2,0-0.4-0.1-0.5-0.2c-0.3-0.3-0.2-0.7,0-1
				c0.9-0.8,1.8-1.7,2.7-2.6c0.3-0.3,0.7-0.3,1,0c0.3,0.3,0.3,0.7,0,1c-0.9,0.9-1.8,1.7-2.7,2.6C220.7,229,220.6,229.1,220.4,229.1
				L220.4,229.1z M40.4,226.5c-0.2,0-0.3-0.1-0.5-0.2c-0.9-0.9-1.8-1.8-2.7-2.7c-0.3-0.3-0.3-0.7,0-1c0.3-0.3,0.7-0.3,1,0
				c0.9,0.9,1.8,1.8,2.6,2.6c0.3,0.3,0.3,0.7,0,1C40.8,226.4,40.6,226.5,40.4,226.5L40.4,226.5z M225.8,223.9
				c-0.2,0-0.4-0.1-0.5-0.2c-0.3-0.3-0.3-0.7,0-1c0.9-0.9,1.7-1.8,2.6-2.7c0.3-0.3,0.7-0.3,1,0c0.3,0.3,0.3,0.7,0,1
				c-0.9,0.9-1.7,1.8-2.6,2.7C226.1,223.8,226,223.9,225.8,223.9L225.8,223.9z M35.2,221.1c-0.2,0-0.4-0.1-0.5-0.2
				c-0.8-0.9-1.7-1.9-2.5-2.8c-0.2-0.3-0.2-0.7,0.1-1c0.3-0.2,0.7-0.2,1,0.1c0.8,0.9,1.7,1.9,2.5,2.8c0.3,0.3,0.2,0.7,0,1
				C35.6,221.1,35.4,221.1,35.2,221.1L35.2,221.1z M230.8,218.4c-0.2,0-0.3-0.1-0.5-0.2c-0.3-0.2-0.3-0.7-0.1-1
				c0.8-0.9,1.6-1.9,2.4-2.9c0.2-0.3,0.7-0.3,1-0.1c0.3,0.2,0.3,0.7,0.1,1c-0.8,1-1.6,1.9-2.4,2.9
				C231.2,218.3,231,218.4,230.8,218.4L230.8,218.4z M30.3,215.5c-0.2,0-0.4-0.1-0.5-0.3c-0.8-1-1.6-2-2.3-2.9
				c-0.2-0.3-0.2-0.8,0.1-1c0.3-0.2,0.8-0.2,1,0.1c0.8,1,1.5,1.9,2.3,2.9c0.2,0.3,0.2,0.7-0.1,1C30.6,215.5,30.5,215.5,30.3,215.5
				L30.3,215.5z M235.6,212.6c-0.1,0-0.3-0.1-0.4-0.1c-0.3-0.2-0.4-0.7-0.1-1c0.8-1,1.5-2,2.2-3c0.2-0.3,0.7-0.4,1-0.1
				c0.3,0.2,0.4,0.7,0.1,1c-0.7,1-1.5,2-2.3,3C236,212.5,235.8,212.6,235.6,212.6L235.6,212.6z M25.7,209.6c-0.2,0-0.4-0.1-0.6-0.3
				c-0.7-1-1.5-2-2.2-3.1c-0.2-0.3-0.1-0.8,0.2-1s0.8-0.1,1,0.2c0.7,1,1.4,2.1,2.1,3c0.2,0.3,0.2,0.8-0.1,1
				C26,209.5,25.9,209.6,25.7,209.6L25.7,209.6z M240,206.6c-0.1,0-0.3,0-0.4-0.1c-0.3-0.2-0.4-0.6-0.2-1c0.7-1,1.4-2.1,2.1-3.1
				c0.2-0.3,0.6-0.4,1-0.2c0.3,0.2,0.4,0.6,0.2,1c-0.7,1.1-1.4,2.1-2.1,3.1C240.4,206.5,240.2,206.6,240,206.6L240,206.6z
				 M21.5,203.4c-0.2,0-0.5-0.1-0.6-0.3c-0.7-1.1-1.3-2.1-2-3.2c-0.2-0.3-0.1-0.8,0.2-1c0.3-0.2,0.8-0.1,1,0.2
				c0.6,1.1,1.3,2.1,2,3.1c0.2,0.3,0.1,0.8-0.2,1C21.8,203.4,21.7,203.4,21.5,203.4L21.5,203.4z M244.1,200.2c-0.1,0-0.2,0-0.4-0.1
				c-0.3-0.2-0.4-0.6-0.2-1c0.6-1.1,1.3-2.1,1.9-3.2c0.2-0.3,0.6-0.4,0.9-0.3c0.3,0.2,0.4,0.6,0.3,0.9c-0.6,1.1-1.3,2.2-1.9,3.2
				C244.5,200.1,244.3,200.2,244.1,200.2L244.1,200.2z M17.7,197c-0.2,0-0.5-0.1-0.6-0.4c-0.6-1.1-1.2-2.2-1.8-3.3
				c-0.2-0.3-0.1-0.8,0.3-0.9s0.8-0.1,1,0.3c0.6,1.1,1.2,2.2,1.8,3.3c0.2,0.3,0.1,0.8-0.3,0.9C17.9,197,17.8,197,17.7,197L17.7,197z
				 M247.8,193.7c-0.1,0-0.2,0-0.3-0.1c-0.3-0.2-0.5-0.6-0.3-0.9c0.6-1.1,1.1-2.2,1.7-3.3c0.2-0.4,0.6-0.5,0.9-0.3s0.5,0.6,0.3,0.9
				c-0.6,1.1-1.1,2.2-1.7,3.4C248.3,193.6,248,193.7,247.8,193.7L247.8,193.7z M14.2,190.4c-0.3,0-0.5-0.1-0.6-0.4
				c-0.6-1.1-1.1-2.2-1.6-3.4c-0.2-0.4,0-0.8,0.3-0.9c0.4-0.2,0.8,0,0.9,0.3c0.5,1.1,1.1,2.2,1.6,3.4c0.2,0.4,0,0.8-0.3,0.9
				C14.4,190.4,14.3,190.4,14.2,190.4L14.2,190.4z M251.1,187c-0.1,0-0.2,0-0.3-0.1c-0.4-0.2-0.5-0.6-0.4-0.9c0.5-1.1,1-2.3,1.5-3.4
				c0.1-0.4,0.6-0.5,0.9-0.4c0.4,0.1,0.5,0.6,0.4,0.9c-0.5,1.1-1,2.3-1.5,3.4C251.6,186.9,251.3,187,251.1,187L251.1,187z
				 M11.1,183.6c-0.3,0-0.5-0.2-0.6-0.4c-0.5-1.1-1-2.3-1.4-3.5c-0.1-0.4,0-0.8,0.4-0.9s0.8,0,0.9,0.4c0.4,1.1,0.9,2.3,1.4,3.4
				c0.1,0.4,0,0.8-0.4,0.9C11.3,183.6,11.2,183.7,11.1,183.6L11.1,183.6z M254,180.1c-0.1,0-0.2,0-0.2-0.1c-0.4-0.1-0.5-0.6-0.4-0.9
				c0.4-1.2,0.9-2.3,1.3-3.5c0.1-0.4,0.5-0.6,0.9-0.4s0.5,0.5,0.4,0.9c-0.4,1.2-0.9,2.4-1.3,3.5C254.5,179.9,254.3,180.1,254,180.1
				L254,180.1z M8.3,176.7c-0.3,0-0.6-0.2-0.7-0.5c-0.4-1.2-0.8-2.4-1.2-3.6c-0.1-0.4,0.1-0.8,0.4-0.9c0.4-0.1,0.8,0.1,0.9,0.4
				c0.4,1.2,0.8,2.4,1.2,3.5c0.1,0.4-0.1,0.8-0.4,0.9C8.5,176.7,8.4,176.7,8.3,176.7L8.3,176.7z M256.5,173c-0.1,0-0.1,0-0.2,0
				c-0.4-0.1-0.6-0.5-0.4-0.9c0.4-1.2,0.8-2.4,1.1-3.6c0.1-0.4,0.5-0.6,0.9-0.5s0.6,0.5,0.5,0.9c-0.4,1.2-0.7,2.4-1.1,3.6
				C257.1,172.9,256.8,173,256.5,173L256.5,173z M6,169.6c-0.3,0-0.6-0.2-0.7-0.5c-0.3-1.2-0.7-2.4-1-3.6c-0.1-0.4,0.1-0.8,0.5-0.9
				c0.4-0.1,0.8,0.1,0.8,0.5c0.3,1.2,0.7,2.4,1,3.6c0.1,0.4-0.1,0.8-0.5,0.9C6.2,169.6,6.1,169.6,6,169.6L6,169.6z M258.6,165.8
				c-0.1,0-0.1,0-0.2,0c-0.4-0.1-0.6-0.5-0.5-0.9c0.3-1.2,0.6-2.4,0.9-3.6c0.1-0.4,0.5-0.6,0.8-0.5s0.6,0.5,0.5,0.8
				c-0.3,1.2-0.6,2.4-0.9,3.6C259.2,165.6,258.9,165.8,258.6,165.8L258.6,165.8z M4.1,162.3c-0.3,0-0.6-0.2-0.7-0.5
				c-0.3-1.2-0.5-2.5-0.8-3.7c-0.1-0.4,0.2-0.8,0.5-0.8c0.4-0.1,0.8,0.2,0.8,0.6c0.2,1.2,0.5,2.4,0.8,3.6c0.1,0.4-0.2,0.8-0.5,0.8
				C4.2,162.3,4.2,162.3,4.1,162.3L4.1,162.3z M260.3,158.5c0,0-0.1,0-0.1,0c-0.4-0.1-0.6-0.4-0.5-0.8c0.2-1.2,0.5-2.4,0.7-3.7
				c0.1-0.4,0.4-0.6,0.8-0.6c0.4,0.1,0.6,0.4,0.6,0.8c-0.2,1.2-0.4,2.5-0.7,3.7C260.9,158.3,260.7,158.5,260.3,158.5L260.3,158.5z
				 M2.6,155c-0.3,0-0.6-0.2-0.7-0.6c-0.2-1.2-0.4-2.5-0.6-3.7c-0.1-0.4,0.2-0.7,0.6-0.8c0.4-0.1,0.7,0.2,0.8,0.6
				c0.2,1.2,0.4,2.4,0.6,3.7c0.1,0.4-0.2,0.7-0.6,0.8C2.7,154.9,2.6,154.9,2.6,155L2.6,155z M261.6,151.1c0,0-0.1,0-0.1,0
				c-0.4-0.1-0.6-0.4-0.6-0.8c0.2-1.2,0.3-2.5,0.5-3.7c0-0.4,0.4-0.7,0.8-0.6c0.4,0,0.7,0.4,0.6,0.8c-0.1,1.2-0.3,2.5-0.5,3.7
				C262.2,150.9,261.9,151.1,261.6,151.1L261.6,151.1z M1.5,147.6c-0.4,0-0.6-0.3-0.7-0.6c-0.1-1.2-0.3-2.5-0.4-3.7
				c0-0.4,0.2-0.7,0.6-0.8s0.7,0.2,0.8,0.6c0.1,1.2,0.2,2.5,0.4,3.7C2.3,147.2,2,147.5,1.5,147.6C1.6,147.6,1.6,147.6,1.5,147.6
				L1.5,147.6z M262.4,143.7C262.4,143.7,262.4,143.7,262.4,143.7c-0.5,0-0.7-0.4-0.7-0.8c0.1-1.2,0.2-2.5,0.3-3.7
				c0-0.4,0.4-0.7,0.7-0.7c0.4,0,0.7,0.4,0.7,0.7c-0.1,1.2-0.2,2.5-0.3,3.8C263.1,143.4,262.8,143.7,262.4,143.7L262.4,143.7z
				 M0.9,140.1c-0.4,0-0.7-0.3-0.7-0.7c-0.1-1.2-0.1-2.5-0.2-3.8c0-0.4,0.3-0.7,0.7-0.7c0,0,0,0,0,0c0.4,0,0.7,0.3,0.7,0.7
				c0,1.2,0.1,2.5,0.2,3.7C1.6,139.8,1.4,140.1,0.9,140.1C0.9,140.1,0.9,140.1,0.9,140.1z M262.9,136.2
				C262.9,136.2,262.8,136.2,262.9,136.2c-0.4,0-0.7-0.3-0.7-0.7c0-1.2,0-2.5,0-3.7v-0.2c0-0.4,0.3-0.7,0.7-0.7s0.7,0.3,0.7,0.7v0.2
				c0,1.2,0,2.5,0,3.8C263.5,135.9,263.2,136.2,262.9,136.2L262.9,136.2z M0.7,132.6c-0.4,0-0.7-0.3-0.7-0.7v-0.1
				c0-1.2,0-2.4,0.1-3.6c0-0.4,0.3-0.7,0.7-0.7c0.4,0,0.7,0.3,0.7,0.7c0,1.2,0,2.4,0,3.6v0.1C1.4,132.3,1.1,132.6,0.7,132.6z
				 M262.8,128.5c-0.4,0-0.7-0.3-0.7-0.7c0-1.2-0.1-2.5-0.2-3.7c0-0.4,0.3-0.7,0.7-0.7c0.4,0,0.7,0.3,0.7,0.7
				c0.1,1.2,0.1,2.5,0.2,3.8C263.6,128.2,263.3,128.5,262.8,128.5C262.9,128.5,262.9,128.5,262.8,128.5L262.8,128.5z M0.9,125.1
				C0.9,125.1,0.9,125.1,0.9,125.1c-0.4,0-0.7-0.3-0.7-0.7c0.1-1.2,0.2-2.5,0.3-3.8c0-0.4,0.4-0.7,0.8-0.6c0.4,0,0.7,0.4,0.6,0.8
				c-0.1,1.2-0.2,2.5-0.3,3.7C1.6,124.8,1.3,125.1,0.9,125.1z M262.4,121c-0.4,0-0.7-0.3-0.7-0.6c-0.1-1.2-0.2-2.5-0.4-3.7
				c0-0.4,0.2-0.7,0.6-0.8c0.4,0,0.7,0.2,0.8,0.6c0.1,1.2,0.3,2.5,0.4,3.7C263.1,120.7,262.9,121,262.4,121
				C262.4,121,262.4,121,262.4,121L262.4,121z M1.5,117.7C1.5,117.7,1.5,117.7,1.5,117.7c-0.5,0-0.7-0.4-0.7-0.8
				c0.1-1.2,0.3-2.5,0.5-3.7c0-0.4,0.4-0.7,0.8-0.6s0.6,0.4,0.6,0.8c-0.2,1.2-0.3,2.5-0.5,3.7C2.2,117.4,1.9,117.7,1.5,117.7
				L1.5,117.7z M261.5,113.6c-0.3,0-0.6-0.2-0.7-0.6c-0.2-1.2-0.4-2.5-0.6-3.7c-0.1-0.4,0.2-0.7,0.6-0.8s0.7,0.2,0.8,0.6
				c0.2,1.2,0.4,2.5,0.6,3.7c0.1,0.4-0.2,0.7-0.6,0.8C261.6,113.6,261.6,113.6,261.5,113.6L261.5,113.6z M2.6,110.3c0,0-0.1,0-0.1,0
				c-0.4-0.1-0.6-0.4-0.6-0.8c0.2-1.2,0.4-2.5,0.7-3.7c0.1-0.4,0.5-0.6,0.8-0.6c0.4,0.1,0.6,0.4,0.5,0.8c-0.2,1.2-0.5,2.4-0.7,3.7
				C3.2,110,2.9,110.2,2.6,110.3L2.6,110.3z M260.3,106.2c-0.3,0-0.6-0.2-0.7-0.6c-0.2-1.2-0.5-2.4-0.8-3.6
				c-0.1-0.4,0.1-0.8,0.5-0.8c0.4-0.1,0.8,0.2,0.8,0.5c0.3,1.2,0.6,2.5,0.8,3.7c0.1,0.4-0.2,0.8-0.5,0.8
				C260.4,106.2,260.3,106.2,260.3,106.2L260.3,106.2z M4.1,102.9c-0.1,0-0.1,0-0.2,0c-0.4-0.1-0.6-0.5-0.5-0.8
				c0.3-1.2,0.6-2.4,0.9-3.7c0.1-0.4,0.5-0.6,0.8-0.5s0.6,0.5,0.5,0.8c-0.3,1.2-0.6,2.4-0.9,3.6C4.7,102.7,4.4,102.9,4.1,102.9z
				 M258.6,98.9c-0.3,0-0.6-0.2-0.7-0.5c-0.3-1.2-0.6-2.4-1-3.6c-0.1-0.4,0.1-0.8,0.5-0.9s0.8,0.1,0.9,0.5c0.4,1.2,0.7,2.4,1,3.6
				c0.1,0.4-0.1,0.8-0.5,0.9C258.7,98.9,258.6,98.9,258.6,98.9L258.6,98.9z M6,95.7c-0.1,0-0.1,0-0.2,0c-0.4-0.1-0.6-0.5-0.5-0.9
				c0.3-1.2,0.7-2.4,1.1-3.6c0.1-0.4,0.5-0.6,0.9-0.4s0.6,0.5,0.4,0.9C7.3,92.8,7,94,6.6,95.2C6.5,95.5,6.3,95.7,6,95.7L6,95.7z
				 M256.5,91.8c-0.3,0-0.6-0.2-0.7-0.5c-0.4-1.2-0.8-2.4-1.2-3.5c-0.1-0.4,0.1-0.8,0.4-0.9c0.4-0.1,0.8,0.1,0.9,0.4
				c0.4,1.2,0.8,2.4,1.2,3.6c0.1,0.4-0.1,0.8-0.5,0.9C256.6,91.7,256.5,91.7,256.5,91.8L256.5,91.8z M8.3,88.6c-0.1,0-0.2,0-0.2,0
				c-0.4-0.1-0.6-0.5-0.4-0.9c0.4-1.2,0.9-2.4,1.3-3.5c0.1-0.4,0.5-0.5,0.9-0.4c0.4,0.1,0.5,0.6,0.4,0.9c-0.4,1.2-0.9,2.3-1.3,3.5
				C8.8,88.4,8.6,88.6,8.3,88.6L8.3,88.6z M253.9,84.7c-0.3,0-0.5-0.2-0.6-0.4c-0.4-1.1-0.9-2.3-1.4-3.4c-0.1-0.4,0-0.8,0.4-0.9
				c0.4-0.2,0.8,0,0.9,0.4c0.5,1.2,1,2.3,1.4,3.5c0.1,0.4,0,0.8-0.4,0.9C254.1,84.7,254,84.7,253.9,84.7L253.9,84.7z M11,81.6
				c-0.1,0-0.2,0-0.3-0.1c-0.4-0.2-0.5-0.6-0.4-0.9c0.5-1.2,1-2.3,1.5-3.4c0.2-0.3,0.6-0.5,0.9-0.3s0.5,0.6,0.4,0.9
				c-0.5,1.1-1,2.3-1.5,3.4C11.5,81.4,11.3,81.6,11,81.6L11,81.6z M251,77.8c-0.3,0-0.5-0.2-0.6-0.4c-0.5-1.1-1.1-2.2-1.6-3.3
				c-0.2-0.3,0-0.8,0.3-0.9c0.4-0.2,0.8,0,0.9,0.3c0.6,1.1,1.1,2.3,1.6,3.4c0.2,0.3,0,0.8-0.3,0.9C251.2,77.8,251.1,77.8,251,77.8
				L251,77.8z M14.1,74.7c-0.1,0-0.2,0-0.3-0.1c-0.4-0.2-0.5-0.6-0.3-0.9c0.6-1.1,1.1-2.3,1.7-3.4c0.2-0.3,0.6-0.5,1-0.3
				c0.3,0.2,0.5,0.6,0.3,0.9c-0.6,1.1-1.1,2.2-1.7,3.3C14.6,74.6,14.4,74.7,14.1,74.7z M247.7,71.1c-0.2,0-0.5-0.1-0.6-0.4
				c-0.6-1.1-1.2-2.2-1.8-3.3c-0.2-0.3-0.1-0.8,0.3-0.9c0.3-0.2,0.8-0.1,0.9,0.3c0.6,1.1,1.2,2.2,1.8,3.3c0.2,0.3,0.1,0.8-0.3,0.9
				C247.9,71.1,247.8,71.1,247.7,71.1L247.7,71.1z M17.6,68.1c-0.1,0-0.2,0-0.3-0.1c-0.3-0.2-0.5-0.6-0.3-0.9
				c0.6-1.1,1.3-2.2,1.9-3.2c0.2-0.3,0.6-0.4,1-0.2c0.3,0.2,0.4,0.6,0.2,1c-0.6,1.1-1.3,2.1-1.9,3.2C18.1,68,17.8,68.1,17.6,68.1
				L17.6,68.1z M244,64.6c-0.2,0-0.5-0.1-0.6-0.3c-0.6-1.1-1.3-2.1-2-3.2c-0.2-0.3-0.1-0.8,0.2-1c0.3-0.2,0.8-0.1,1,0.2
				c0.7,1,1.3,2.1,2,3.2c0.2,0.3,0.1,0.8-0.2,1C244.3,64.6,244.1,64.6,244,64.6L244,64.6z M21.5,61.7c-0.1,0-0.3,0-0.4-0.1
				c-0.3-0.2-0.4-0.6-0.2-1c0.7-1,1.4-2.1,2.1-3.1c0.2-0.3,0.6-0.4,1-0.2s0.4,0.7,0.2,1c-0.7,1-1.4,2.1-2.1,3.1
				C21.9,61.5,21.7,61.7,21.5,61.7L21.5,61.7z M240,58.4c-0.2,0-0.4-0.1-0.6-0.3c-0.7-1-1.4-2-2.1-3c-0.2-0.3-0.2-0.8,0.1-1
				s0.8-0.2,1,0.2c0.7,1,1.5,2,2.2,3.1c0.2,0.3,0.1,0.8-0.2,1C240.2,58.3,240.1,58.4,240,58.4L240,58.4z M25.7,55.5
				c-0.1,0-0.3,0-0.4-0.1c-0.3-0.2-0.4-0.7-0.1-1c0.7-1,1.5-2,2.3-3c0.2-0.3,0.7-0.4,1-0.1c0.3,0.2,0.4,0.7,0.1,1
				c-0.8,1-1.5,2-2.2,3C26.1,55.4,25.9,55.5,25.7,55.5L25.7,55.5z M235.6,52.3c-0.2,0-0.4-0.1-0.6-0.3c-0.8-1-1.5-2-2.3-2.9
				c-0.2-0.3-0.2-0.7,0.1-1c0.3-0.2,0.7-0.2,1,0.1c0.8,1,1.6,2,2.3,2.9c0.2,0.3,0.2,0.8-0.1,1C235.9,52.3,235.7,52.3,235.6,52.3z
				 M30.3,49.5c-0.2,0-0.3,0-0.4-0.2c-0.3-0.2-0.3-0.7-0.1-1c0.8-1,1.6-1.9,2.4-2.9c0.2-0.3,0.7-0.3,1-0.1c0.3,0.2,0.3,0.7,0.1,1
				c-0.8,0.9-1.6,1.9-2.4,2.8C30.7,49.5,30.5,49.6,30.3,49.5L30.3,49.5z M230.8,46.5c-0.2,0-0.4-0.1-0.5-0.2
				c-0.8-0.9-1.6-1.9-2.5-2.8c-0.3-0.3-0.2-0.7,0-1s0.7-0.2,1,0c0.9,0.9,1.7,1.9,2.5,2.8c0.2,0.3,0.2,0.7-0.1,1
				C231.1,46.5,231,46.5,230.8,46.5L230.8,46.5z M35.2,43.9c-0.2,0-0.3-0.1-0.5-0.2c-0.3-0.3-0.3-0.7,0-1c0.8-0.9,1.7-1.8,2.6-2.7
				c0.3-0.3,0.7-0.3,1,0c0.3,0.3,0.3,0.7,0,1c-0.9,0.9-1.7,1.8-2.6,2.7C35.6,43.8,35.4,43.9,35.2,43.9L35.2,43.9z M225.7,41
				c-0.2,0-0.4-0.1-0.5-0.2c-0.9-0.9-1.8-1.8-2.6-2.6c-0.3-0.3-0.3-0.7,0-1c0.3-0.3,0.7-0.3,1,0c0.9,0.9,1.8,1.8,2.7,2.7
				c0.3,0.3,0.3,0.7,0,1C226.1,41,225.9,41,225.7,41L225.7,41z M40.4,38.5c-0.2,0-0.4-0.1-0.5-0.2c-0.3-0.3-0.3-0.7,0-1
				c0.9-0.9,1.8-1.7,2.7-2.6c0.3-0.3,0.7-0.2,1,0c0.3,0.3,0.2,0.7,0,1c-0.9,0.8-1.8,1.7-2.7,2.6C40.8,38.5,40.6,38.5,40.4,38.5z
				 M220.4,35.8c-0.2,0-0.3-0.1-0.5-0.2c-0.9-0.8-1.8-1.7-2.8-2.5c-0.3-0.2-0.3-0.7-0.1-1c0.2-0.3,0.7-0.3,1-0.1
				c0.9,0.8,1.9,1.7,2.8,2.5c0.3,0.3,0.3,0.7,0,1C220.8,35.7,220.6,35.8,220.4,35.8L220.4,35.8z M45.9,33.5c-0.2,0-0.4-0.1-0.5-0.2
				c-0.2-0.3-0.2-0.7,0.1-1c0.9-0.8,1.9-1.6,2.9-2.4c0.3-0.2,0.7-0.2,1,0.1c0.2,0.3,0.2,0.7-0.1,1c-1,0.8-1.9,1.6-2.8,2.4
				C46.2,33.4,46.1,33.4,45.9,33.5L45.9,33.5z M214.7,30.9c-0.2,0-0.3,0-0.4-0.2c-1-0.8-1.9-1.6-2.9-2.3c-0.3-0.2-0.4-0.7-0.1-1
				c0.2-0.3,0.7-0.4,1-0.1c1,0.8,2,1.5,2.9,2.3c0.3,0.2,0.3,0.7,0.1,1C215.1,30.8,214.9,30.9,214.7,30.9L214.7,30.9z M51.7,28.7
				c-0.2,0-0.4-0.1-0.5-0.3c-0.2-0.3-0.2-0.7,0.1-1c1-0.8,2-1.5,3-2.3c0.3-0.2,0.8-0.2,1,0.1s0.2,0.8-0.2,1c-1,0.7-2,1.5-3,2.2
				C52,28.6,51.9,28.7,51.7,28.7L51.7,28.7z M208.8,26.3c-0.1,0-0.3,0-0.4-0.1c-1-0.7-2-1.4-3.1-2.1c-0.3-0.2-0.4-0.6-0.2-1
				s0.6-0.4,1-0.2c1,0.7,2.1,1.4,3.1,2.2c0.3,0.2,0.4,0.7,0.1,1C209.2,26.2,209,26.3,208.8,26.3L208.8,26.3z M57.7,24.3
				c-0.2,0-0.4-0.1-0.6-0.3c-0.2-0.3-0.1-0.8,0.2-1c1-0.7,2.1-1.4,3.1-2.1c0.3-0.2,0.8-0.1,1,0.2c0.2,0.3,0.1,0.8-0.2,1
				c-1,0.7-2.1,1.4-3.1,2.1C58,24.3,57.9,24.3,57.7,24.3L57.7,24.3z M202.6,22.1c-0.1,0-0.3,0-0.4-0.1c-1.1-0.7-2.1-1.3-3.2-2
				c-0.3-0.2-0.4-0.6-0.2-1s0.6-0.4,1-0.2c1.1,0.6,2.1,1.3,3.2,2c0.3,0.2,0.4,0.6,0.2,1C203,22,202.8,22.1,202.6,22.1L202.6,22.1z
				 M64,20.2c-0.2,0-0.5-0.1-0.6-0.3c-0.2-0.3-0.1-0.8,0.2-1c1.1-0.6,2.2-1.3,3.2-1.9c0.3-0.2,0.8-0.1,0.9,0.3
				c0.2,0.3,0.1,0.8-0.3,1c-1.1,0.6-2.2,1.2-3.2,1.9C64.3,20.2,64.1,20.2,64,20.2L64,20.2z M196.2,18.2c-0.1,0-0.2,0-0.3-0.1
				c-1.1-0.6-2.2-1.2-3.3-1.8c-0.3-0.2-0.5-0.6-0.3-0.9c0.2-0.3,0.6-0.5,0.9-0.3c1.1,0.6,2.2,1.2,3.3,1.8c0.3,0.2,0.5,0.6,0.3,1
				C196.7,18.1,196.4,18.2,196.2,18.2L196.2,18.2z M70.5,16.6c-0.2,0-0.5-0.1-0.6-0.4c-0.2-0.3-0.1-0.8,0.3-0.9
				c1.1-0.6,2.2-1.2,3.3-1.7c0.3-0.2,0.8,0,0.9,0.3c0.2,0.4,0,0.8-0.3,0.9c-1.1,0.5-2.2,1.1-3.3,1.7C70.7,16.5,70.6,16.6,70.5,16.6
				L70.5,16.6z M189.5,14.7c-0.1,0-0.2,0-0.3-0.1c-1.1-0.6-2.2-1.1-3.4-1.6c-0.4-0.2-0.5-0.6-0.4-0.9c0.2-0.4,0.6-0.5,0.9-0.4
				c1.1,0.5,2.3,1.1,3.4,1.6c0.4,0.2,0.5,0.6,0.3,0.9C190,14.6,189.8,14.7,189.5,14.7L189.5,14.7z M77.2,13.3
				c-0.3,0-0.5-0.1-0.6-0.4c-0.2-0.4,0-0.8,0.3-0.9c1.1-0.5,2.3-1,3.4-1.5c0.4-0.1,0.8,0,0.9,0.4c0.2,0.4,0,0.8-0.4,0.9
				c-1.1,0.5-2.3,1-3.4,1.5C77.4,13.2,77.3,13.3,77.2,13.3L77.2,13.3z M182.7,11.6c-0.1,0-0.2,0-0.3-0.1c-1.1-0.5-2.3-0.9-3.5-1.4
				c-0.4-0.1-0.5-0.6-0.4-0.9s0.5-0.5,0.9-0.4c1.2,0.4,2.3,0.9,3.5,1.4c0.4,0.1,0.5,0.6,0.4,0.9C183.2,11.5,183,11.6,182.7,11.6z
				 M84.1,10.3c-0.3,0-0.5-0.2-0.7-0.4c-0.1-0.4,0-0.8,0.4-0.9c1.2-0.5,2.3-0.9,3.5-1.3c0.4-0.1,0.8,0.1,0.9,0.4
				c0.1,0.4-0.1,0.8-0.4,0.9c-1.2,0.4-2.3,0.9-3.5,1.3C84.3,10.3,84.2,10.3,84.1,10.3L84.1,10.3z M175.7,8.9c-0.1,0-0.2,0-0.2,0
				c-1.2-0.4-2.4-0.8-3.5-1.2c-0.4-0.1-0.6-0.5-0.4-0.9c0.1-0.4,0.5-0.6,0.9-0.4c1.2,0.4,2.4,0.8,3.6,1.2c0.4,0.1,0.6,0.5,0.4,0.9
				C176.3,8.7,176,8.9,175.7,8.9L175.7,8.9z M91.1,7.8c-0.3,0-0.6-0.2-0.7-0.5c-0.1-0.4,0.1-0.8,0.4-0.9c1.2-0.4,2.4-0.8,3.6-1.1
				c0.4-0.1,0.8,0.1,0.9,0.5s-0.1,0.8-0.5,0.9c-1.2,0.3-2.4,0.7-3.6,1.1C91.3,7.8,91.2,7.8,91.1,7.8L91.1,7.8z M168.6,6.6
				c-0.1,0-0.1,0-0.2,0c-1.2-0.3-2.4-0.7-3.6-1c-0.4-0.1-0.6-0.5-0.5-0.8s0.5-0.6,0.9-0.5c1.2,0.3,2.4,0.7,3.6,1
				c0.4,0.1,0.6,0.5,0.5,0.9C169.1,6.4,168.9,6.6,168.6,6.6L168.6,6.6z M98.3,5.7c-0.3,0-0.6-0.2-0.7-0.5c-0.1-0.4,0.1-0.8,0.5-0.9
				c1.2-0.3,2.4-0.6,3.7-0.9c0.4-0.1,0.8,0.2,0.8,0.5c0.1,0.4-0.2,0.8-0.5,0.8c-1.2,0.3-2.4,0.6-3.6,0.9C98.4,5.7,98.4,5.7,98.3,5.7
				L98.3,5.7z M161.3,4.7c-0.1,0-0.1,0-0.2,0c-1.2-0.3-2.4-0.5-3.6-0.8c-0.4-0.1-0.6-0.4-0.6-0.8s0.4-0.6,0.8-0.5
				c1.2,0.2,2.5,0.5,3.7,0.8c0.4,0.1,0.6,0.5,0.5,0.8C161.9,4.5,161.6,4.7,161.3,4.7L161.3,4.7z M105.6,4c-0.3,0-0.6-0.2-0.7-0.6
				c-0.1-0.4,0.2-0.8,0.6-0.8c1.2-0.2,2.5-0.5,3.7-0.7c0.4-0.1,0.7,0.2,0.8,0.6s-0.2,0.7-0.6,0.8c-1.2,0.2-2.4,0.4-3.7,0.7
				C105.7,4,105.7,4,105.6,4L105.6,4z M154,3.3c0,0-0.1,0-0.1,0c-1.2-0.2-2.4-0.4-3.7-0.6c-0.4,0-0.6-0.4-0.6-0.8
				c0.1-0.4,0.4-0.6,0.8-0.6c1.2,0.2,2.5,0.4,3.7,0.6c0.4,0.1,0.6,0.4,0.6,0.8C154.6,3,154.3,3.3,154,3.3L154,3.3z M113,2.7
				c-0.3,0-0.6-0.2-0.7-0.6c-0.1-0.4,0.2-0.7,0.6-0.8c1.2-0.2,2.5-0.3,3.7-0.5c0.4,0,0.7,0.2,0.8,0.6c0,0.4-0.2,0.7-0.6,0.8
				C115.5,2.4,114.3,2.6,113,2.7C113,2.7,113,2.7,113,2.7L113,2.7z M146.6,2.2C146.6,2.2,146.5,2.2,146.6,2.2
				c-1.3-0.1-2.6-0.3-3.8-0.4c-0.4,0-0.7-0.4-0.6-0.8c0-0.4,0.4-0.7,0.8-0.6c1.2,0.1,2.5,0.2,3.7,0.4c0.4,0,0.7,0.4,0.6,0.8
				C147.2,2,146.9,2.2,146.6,2.2L146.6,2.2z M120.4,1.9c-0.4,0-0.7-0.3-0.7-0.6c0-0.4,0.2-0.7,0.6-0.8c1.3-0.1,2.5-0.2,3.8-0.3
				c0.4,0,0.7,0.3,0.7,0.7s-0.3,0.7-0.7,0.7C123,1.7,121.7,1.8,120.4,1.9C120.5,1.9,120.4,1.9,120.4,1.9z M139.1,1.6
				C139.1,1.6,139.1,1.6,139.1,1.6c-1.3-0.1-2.5-0.1-3.8-0.1c-0.4,0-0.7-0.3-0.7-0.7c0-0.4,0.3-0.7,0.7-0.7c1.2,0,2.5,0.1,3.8,0.2
				c0.4,0,0.7,0.3,0.7,0.7C139.8,1.3,139.5,1.6,139.1,1.6L139.1,1.6z M127.9,1.5c-0.4,0-0.7-0.3-0.7-0.7c0-0.4,0.3-0.7,0.7-0.7
				c1.2,0,2.5-0.1,3.8-0.1l0,0c0.4,0,0.7,0.3,0.7,0.7s-0.3,0.7-0.7,0.7C130.4,1.4,129.1,1.4,127.9,1.5
				C127.9,1.5,127.9,1.5,127.9,1.5z"/>
			<path class="st32" d="M131.9,263.6c-0.4,0-0.7-0.3-0.7-0.7s0.3-0.7,0.7-0.7c1.2,0,2.5,0,3.7,0c0.4,0,0.7,0.3,0.7,0.7
				c0,0.4-0.3,0.7-0.7,0.7C134.4,263.6,133.1,263.6,131.9,263.6L131.9,263.6z M128.1,263.5C128.1,263.5,128.1,263.5,128.1,263.5
				c-1.3,0-2.5-0.1-3.8-0.2c-0.4,0-0.7-0.4-0.7-0.7c0-0.4,0.3-0.7,0.7-0.7c1.2,0.1,2.5,0.1,3.7,0.1c0.4,0,0.7,0.3,0.7,0.7
				C128.8,263.2,128.5,263.5,128.1,263.5L128.1,263.5z M139.3,263.4c-0.4,0-0.7-0.3-0.7-0.7c0-0.4,0.3-0.7,0.7-0.7
				c1.2-0.1,2.5-0.2,3.7-0.3c0.4,0,0.7,0.2,0.8,0.6c0,0.4-0.2,0.7-0.6,0.8C141.9,263.2,140.6,263.3,139.3,263.4
				C139.4,263.4,139.4,263.4,139.3,263.4L139.3,263.4z M120.6,263.1C120.6,263.1,120.6,263.1,120.6,263.1c-1.3-0.1-2.6-0.2-3.8-0.4
				c-0.4,0-0.7-0.4-0.6-0.8c0-0.4,0.4-0.7,0.8-0.6c1.2,0.1,2.5,0.3,3.7,0.4c0.4,0,0.7,0.4,0.6,0.8
				C121.3,262.9,121,263.1,120.6,263.1L120.6,263.1z M146.8,262.8c-0.4,0-0.6-0.3-0.7-0.6c0-0.4,0.2-0.7,0.6-0.8
				c1.2-0.1,2.5-0.3,3.7-0.5c0.4-0.1,0.7,0.2,0.8,0.6c0.1,0.4-0.2,0.7-0.6,0.8C149.4,262.5,148.1,262.6,146.8,262.8
				C146.9,262.8,146.8,262.8,146.8,262.8L146.8,262.8z M113.2,262.3C113.2,262.3,113.1,262.3,113.2,262.3c-1.3-0.2-2.6-0.4-3.8-0.6
				c-0.4-0.1-0.6-0.4-0.6-0.8s0.4-0.6,0.8-0.6c1.2,0.2,2.5,0.4,3.7,0.6c0.4,0,0.7,0.4,0.6,0.8C113.8,262.1,113.5,262.3,113.2,262.3
				L113.2,262.3z M154.2,261.7c-0.3,0-0.6-0.2-0.7-0.6c-0.1-0.4,0.2-0.7,0.6-0.8c1.2-0.2,2.4-0.4,3.7-0.7c0.4-0.1,0.8,0.2,0.8,0.5
				c0.1,0.4-0.2,0.8-0.6,0.8c-1.2,0.2-2.5,0.5-3.7,0.7C154.3,261.7,154.3,261.7,154.2,261.7L154.2,261.7z M105.8,261
				c0,0-0.1,0-0.1,0c-1.2-0.2-2.5-0.5-3.7-0.8c-0.4-0.1-0.6-0.5-0.5-0.8c0.1-0.4,0.5-0.6,0.8-0.5c1.2,0.3,2.4,0.5,3.6,0.8
				c0.4,0.1,0.6,0.5,0.6,0.8C106.5,260.8,106.2,261,105.8,261L105.8,261z M161.6,260.2c-0.3,0-0.6-0.2-0.7-0.5
				c-0.1-0.4,0.1-0.8,0.5-0.8c1.2-0.3,2.4-0.6,3.6-0.9c0.4-0.1,0.8,0.1,0.9,0.5c0.1,0.4-0.1,0.8-0.5,0.9c-1.2,0.3-2.4,0.6-3.6,0.9
				C161.7,260.2,161.6,260.2,161.6,260.2L161.6,260.2z M98.5,259.3c-0.1,0-0.1,0-0.2,0c-1.2-0.3-2.4-0.7-3.6-1
				c-0.4-0.1-0.6-0.5-0.5-0.9s0.5-0.6,0.9-0.5c1.2,0.4,2.4,0.7,3.6,1c0.4,0.1,0.6,0.5,0.5,0.9C99.1,259.1,98.8,259.3,98.5,259.3z
				 M168.8,258.3c-0.3,0-0.6-0.2-0.7-0.5c-0.1-0.4,0.1-0.8,0.5-0.9c1.2-0.4,2.4-0.7,3.6-1.1c0.4-0.1,0.8,0.1,0.9,0.4
				c0.1,0.4-0.1,0.8-0.4,0.9c-1.2,0.4-2.4,0.8-3.6,1.1C168.9,258.3,168.9,258.3,168.8,258.3L168.8,258.3z M91.4,257.2
				c-0.1,0-0.1,0-0.2,0c-1.2-0.4-2.4-0.8-3.6-1.2c-0.4-0.1-0.6-0.5-0.4-0.9c0.1-0.4,0.5-0.6,0.9-0.4c1.2,0.4,2.4,0.8,3.5,1.2
				c0.4,0.1,0.6,0.5,0.4,0.9C91.9,257.1,91.6,257.2,91.4,257.2L91.4,257.2z M175.9,256c-0.3,0-0.6-0.2-0.7-0.5
				c-0.1-0.4,0.1-0.8,0.4-0.9c1.2-0.4,2.3-0.9,3.5-1.3c0.4-0.1,0.8,0,0.9,0.4s0,0.8-0.4,0.9c-1.2,0.5-2.4,0.9-3.5,1.3
				C176.1,256,176,256,175.9,256L175.9,256z M84.3,254.7c-0.1,0-0.2,0-0.2-0.1c-1.2-0.4-2.3-0.9-3.5-1.4c-0.4-0.1-0.5-0.6-0.4-0.9
				c0.2-0.4,0.6-0.5,0.9-0.4c1.1,0.5,2.3,1,3.5,1.4c0.4,0.1,0.5,0.6,0.4,0.9C84.8,254.6,84.6,254.7,84.3,254.7L84.3,254.7z
				 M182.9,253.3c-0.3,0-0.5-0.2-0.6-0.4c-0.1-0.4,0-0.8,0.4-0.9c1.1-0.5,2.3-1,3.4-1.5c0.4-0.2,0.8,0,0.9,0.4
				c0.2,0.4,0,0.8-0.4,0.9c-1.1,0.5-2.3,1-3.4,1.5C183,253.3,183,253.3,182.9,253.3L182.9,253.3z M77.3,251.8c-0.1,0-0.2,0-0.3-0.1
				c-1.1-0.5-2.3-1.1-3.4-1.6c-0.3-0.2-0.5-0.6-0.3-0.9s0.6-0.5,0.9-0.3c1.1,0.6,2.2,1.1,3.4,1.6c0.3,0.2,0.5,0.6,0.3,0.9
				C77.9,251.6,77.6,251.8,77.3,251.8z M189.6,250.2c-0.3,0-0.5-0.1-0.6-0.4c-0.2-0.4,0-0.8,0.3-0.9c1.1-0.5,2.2-1.1,3.3-1.7
				c0.3-0.2,0.8-0.1,0.9,0.3c0.2,0.3,0.1,0.8-0.3,0.9c-1.1,0.6-2.2,1.2-3.3,1.7C189.9,250.1,189.8,250.2,189.6,250.2L189.6,250.2z
				 M70.6,248.5c-0.1,0-0.2,0-0.3-0.1c-1.1-0.6-2.2-1.2-3.3-1.8c-0.3-0.2-0.5-0.6-0.3-0.9c0.2-0.3,0.6-0.4,0.9-0.3
				c1.1,0.6,2.2,1.2,3.3,1.8c0.3,0.2,0.5,0.6,0.3,0.9C71.1,248.4,70.9,248.5,70.6,248.5L70.6,248.5z M196.3,246.7
				c-0.2,0-0.5-0.1-0.6-0.4c-0.2-0.3-0.1-0.8,0.3-0.9c1.1-0.6,2.1-1.2,3.2-1.9c0.3-0.2,0.8-0.1,1,0.2c0.2,0.3,0.1,0.8-0.2,1
				c-1.1,0.6-2.2,1.3-3.2,1.9C196.5,246.7,196.4,246.7,196.3,246.7L196.3,246.7z M64.1,244.8c-0.1,0-0.2,0-0.4-0.1
				c-1.1-0.6-2.1-1.3-3.2-2c-0.3-0.2-0.4-0.6-0.2-1s0.6-0.4,1-0.2c1,0.7,2.1,1.3,3.2,2c0.3,0.2,0.4,0.6,0.2,1
				C64.6,244.7,64.3,244.8,64.1,244.8L64.1,244.8z M202.7,242.8c-0.2,0-0.5-0.1-0.6-0.3c-0.2-0.3-0.1-0.8,0.2-1
				c1-0.7,2.1-1.4,3.1-2.1c0.3-0.2,0.8-0.1,1,0.2c0.2,0.3,0.1,0.8-0.2,1c-1,0.7-2.1,1.4-3.1,2.1
				C202.9,242.8,202.8,242.8,202.7,242.8L202.7,242.8z M57.8,240.7c-0.1,0-0.3,0-0.4-0.1c-1-0.7-2.1-1.4-3.1-2.2
				c-0.3-0.2-0.4-0.7-0.2-1c0.2-0.3,0.7-0.4,1-0.1c1,0.7,2,1.4,3,2.1c0.3,0.2,0.4,0.6,0.2,1C58.2,240.6,58,240.7,57.8,240.7
				L57.8,240.7z M208.8,238.6c-0.2,0-0.4-0.1-0.6-0.3c-0.2-0.3-0.2-0.8,0.1-1c1-0.7,2-1.5,3-2.2c0.3-0.2,0.7-0.2,1,0.1
				c0.2,0.3,0.2,0.8-0.1,1c-1,0.8-2,1.5-3,2.2C209.1,238.6,209,238.6,208.8,238.6L208.8,238.6z M51.7,236.3c-0.2,0-0.3-0.1-0.4-0.1
				c-1-0.8-2-1.6-3-2.3c-0.3-0.2-0.3-0.7-0.1-1c0.2-0.3,0.7-0.3,1-0.1c1,0.8,1.9,1.6,2.9,2.3c0.3,0.2,0.4,0.7,0.1,1
				C52.1,236.2,51.9,236.3,51.7,236.3L51.7,236.3z M214.7,234c-0.2,0-0.4-0.1-0.5-0.3c-0.2-0.3-0.2-0.7,0.1-1c1-0.8,1.9-1.6,2.9-2.4
				c0.3-0.2,0.7-0.2,1,0.1c0.2,0.3,0.2,0.7-0.1,1c-0.9,0.8-1.9,1.6-2.9,2.4C215.1,234,214.9,234,214.7,234L214.7,234z M45.9,231.6
				c-0.2,0-0.3-0.1-0.5-0.2c-1-0.8-1.9-1.7-2.8-2.5c-0.3-0.3-0.3-0.7,0-1s0.7-0.3,1,0c0.9,0.8,1.8,1.7,2.8,2.5
				c0.3,0.2,0.3,0.7,0.1,1C46.3,231.5,46.1,231.6,45.9,231.6L45.9,231.6z M220.4,229.1c-0.2,0-0.4-0.1-0.5-0.2c-0.3-0.3-0.2-0.7,0-1
				c0.9-0.8,1.8-1.7,2.7-2.6c0.3-0.3,0.7-0.3,1,0c0.3,0.3,0.3,0.7,0,1c-0.9,0.9-1.8,1.7-2.7,2.6C220.7,229,220.6,229.1,220.4,229.1
				L220.4,229.1z M40.4,226.5c-0.2,0-0.3-0.1-0.5-0.2c-0.9-0.9-1.8-1.8-2.7-2.7c-0.3-0.3-0.3-0.7,0-1c0.3-0.3,0.7-0.3,1,0
				c0.9,0.9,1.8,1.8,2.6,2.6c0.3,0.3,0.3,0.7,0,1C40.8,226.4,40.6,226.5,40.4,226.5L40.4,226.5z M225.8,223.9
				c-0.2,0-0.4-0.1-0.5-0.2c-0.3-0.3-0.3-0.7,0-1c0.9-0.9,1.7-1.8,2.6-2.7c0.3-0.3,0.7-0.3,1,0c0.3,0.3,0.3,0.7,0,1
				c-0.9,0.9-1.7,1.8-2.6,2.7C226.1,223.8,226,223.9,225.8,223.9L225.8,223.9z M35.2,221.1c-0.2,0-0.4-0.1-0.5-0.2
				c-0.8-0.9-1.7-1.9-2.5-2.8c-0.2-0.3-0.2-0.7,0.1-1c0.3-0.2,0.7-0.2,1,0.1c0.8,0.9,1.7,1.9,2.5,2.8c0.3,0.3,0.2,0.7,0,1
				C35.6,221.1,35.4,221.1,35.2,221.1L35.2,221.1z M230.8,218.4c-0.2,0-0.3-0.1-0.5-0.2c-0.3-0.2-0.3-0.7-0.1-1
				c0.8-0.9,1.6-1.9,2.4-2.9c0.2-0.3,0.7-0.3,1-0.1c0.3,0.2,0.3,0.7,0.1,1c-0.8,1-1.6,1.9-2.4,2.9
				C231.2,218.3,231,218.4,230.8,218.4L230.8,218.4z M30.3,215.5c-0.2,0-0.4-0.1-0.5-0.3c-0.8-1-1.6-2-2.3-2.9
				c-0.2-0.3-0.2-0.8,0.1-1c0.3-0.2,0.8-0.2,1,0.1c0.8,1,1.5,1.9,2.3,2.9c0.2,0.3,0.2,0.7-0.1,1C30.6,215.5,30.5,215.5,30.3,215.5
				L30.3,215.5z M235.6,212.6c-0.1,0-0.3-0.1-0.4-0.1c-0.3-0.2-0.4-0.7-0.1-1c0.8-1,1.5-2,2.2-3c0.2-0.3,0.7-0.4,1-0.1
				c0.3,0.2,0.4,0.7,0.1,1c-0.7,1-1.5,2-2.3,3C236,212.5,235.8,212.6,235.6,212.6L235.6,212.6z M25.7,209.6c-0.2,0-0.4-0.1-0.6-0.3
				c-0.7-1-1.5-2-2.2-3.1c-0.2-0.3-0.1-0.8,0.2-1s0.8-0.1,1,0.2c0.7,1,1.4,2.1,2.1,3c0.2,0.3,0.2,0.8-0.1,1
				C26,209.5,25.9,209.6,25.7,209.6L25.7,209.6z M240,206.6c-0.1,0-0.3,0-0.4-0.1c-0.3-0.2-0.4-0.6-0.2-1c0.7-1,1.4-2.1,2.1-3.1
				c0.2-0.3,0.6-0.4,1-0.2c0.3,0.2,0.4,0.6,0.2,1c-0.7,1.1-1.4,2.1-2.1,3.1C240.4,206.5,240.2,206.6,240,206.6L240,206.6z
				 M21.5,203.4c-0.2,0-0.5-0.1-0.6-0.3c-0.7-1.1-1.3-2.1-2-3.2c-0.2-0.3-0.1-0.8,0.2-1c0.3-0.2,0.8-0.1,1,0.2
				c0.6,1.1,1.3,2.1,2,3.1c0.2,0.3,0.1,0.8-0.2,1C21.8,203.4,21.7,203.4,21.5,203.4L21.5,203.4z M244.1,200.2c-0.1,0-0.2,0-0.4-0.1
				c-0.3-0.2-0.4-0.6-0.2-1c0.6-1.1,1.3-2.1,1.9-3.2c0.2-0.3,0.6-0.4,0.9-0.3c0.3,0.2,0.4,0.6,0.3,0.9c-0.6,1.1-1.3,2.2-1.9,3.2
				C244.5,200.1,244.3,200.2,244.1,200.2L244.1,200.2z M17.7,197c-0.2,0-0.5-0.1-0.6-0.4c-0.6-1.1-1.2-2.2-1.8-3.3
				c-0.2-0.3-0.1-0.8,0.3-0.9s0.8-0.1,1,0.3c0.6,1.1,1.2,2.2,1.8,3.3c0.2,0.3,0.1,0.8-0.3,0.9C17.9,197,17.8,197,17.7,197L17.7,197z
				 M247.8,193.7c-0.1,0-0.2,0-0.3-0.1c-0.3-0.2-0.5-0.6-0.3-0.9c0.6-1.1,1.1-2.2,1.7-3.3c0.2-0.4,0.6-0.5,0.9-0.3s0.5,0.6,0.3,0.9
				c-0.6,1.1-1.1,2.2-1.7,3.4C248.3,193.6,248,193.7,247.8,193.7L247.8,193.7z M14.2,190.4c-0.3,0-0.5-0.1-0.6-0.4
				c-0.6-1.1-1.1-2.2-1.6-3.4c-0.2-0.4,0-0.8,0.3-0.9c0.4-0.2,0.8,0,0.9,0.3c0.5,1.1,1.1,2.2,1.6,3.4c0.2,0.4,0,0.8-0.3,0.9
				C14.4,190.4,14.3,190.4,14.2,190.4L14.2,190.4z M251.1,187c-0.1,0-0.2,0-0.3-0.1c-0.4-0.2-0.5-0.6-0.4-0.9c0.5-1.1,1-2.3,1.5-3.4
				c0.1-0.4,0.6-0.5,0.9-0.4c0.4,0.1,0.5,0.6,0.4,0.9c-0.5,1.1-1,2.3-1.5,3.4C251.6,186.9,251.3,187,251.1,187L251.1,187z
				 M11.1,183.6c-0.3,0-0.5-0.2-0.6-0.4c-0.5-1.1-1-2.3-1.4-3.5c-0.1-0.4,0-0.8,0.4-0.9s0.8,0,0.9,0.4c0.4,1.1,0.9,2.3,1.4,3.4
				c0.1,0.4,0,0.8-0.4,0.9C11.3,183.6,11.2,183.7,11.1,183.6L11.1,183.6z M254,180.1c-0.1,0-0.2,0-0.2-0.1c-0.4-0.1-0.5-0.6-0.4-0.9
				c0.4-1.2,0.9-2.3,1.3-3.5c0.1-0.4,0.5-0.6,0.9-0.4s0.5,0.5,0.4,0.9c-0.4,1.2-0.9,2.4-1.3,3.5C254.5,179.9,254.3,180.1,254,180.1
				L254,180.1z M8.3,176.7c-0.3,0-0.6-0.2-0.7-0.5c-0.4-1.2-0.8-2.4-1.2-3.6c-0.1-0.4,0.1-0.8,0.4-0.9c0.4-0.1,0.8,0.1,0.9,0.4
				c0.4,1.2,0.8,2.4,1.2,3.5c0.1,0.4-0.1,0.8-0.4,0.9C8.5,176.7,8.4,176.7,8.3,176.7L8.3,176.7z M256.5,173c-0.1,0-0.1,0-0.2,0
				c-0.4-0.1-0.6-0.5-0.4-0.9c0.4-1.2,0.8-2.4,1.1-3.6c0.1-0.4,0.5-0.6,0.9-0.5s0.6,0.5,0.5,0.9c-0.4,1.2-0.7,2.4-1.1,3.6
				C257.1,172.9,256.8,173,256.5,173L256.5,173z M6,169.6c-0.3,0-0.6-0.2-0.7-0.5c-0.3-1.2-0.7-2.4-1-3.6c-0.1-0.4,0.1-0.8,0.5-0.9
				c0.4-0.1,0.8,0.1,0.8,0.5c0.3,1.2,0.7,2.4,1,3.6c0.1,0.4-0.1,0.8-0.5,0.9C6.2,169.6,6.1,169.6,6,169.6L6,169.6z M258.6,165.8
				c-0.1,0-0.1,0-0.2,0c-0.4-0.1-0.6-0.5-0.5-0.9c0.3-1.2,0.6-2.4,0.9-3.6c0.1-0.4,0.5-0.6,0.8-0.5s0.6,0.5,0.5,0.8
				c-0.3,1.2-0.6,2.4-0.9,3.6C259.2,165.6,258.9,165.8,258.6,165.8L258.6,165.8z M4.1,162.3c-0.3,0-0.6-0.2-0.7-0.5
				c-0.3-1.2-0.5-2.5-0.8-3.7c-0.1-0.4,0.2-0.8,0.5-0.8c0.4-0.1,0.8,0.2,0.8,0.6c0.2,1.2,0.5,2.4,0.8,3.6c0.1,0.4-0.2,0.8-0.5,0.8
				C4.2,162.3,4.2,162.3,4.1,162.3L4.1,162.3z M260.3,158.5c0,0-0.1,0-0.1,0c-0.4-0.1-0.6-0.4-0.5-0.8c0.2-1.2,0.5-2.4,0.7-3.7
				c0.1-0.4,0.4-0.6,0.8-0.6c0.4,0.1,0.6,0.4,0.6,0.8c-0.2,1.2-0.4,2.5-0.7,3.7C260.9,158.3,260.7,158.5,260.3,158.5L260.3,158.5z
				 M2.6,155c-0.3,0-0.6-0.2-0.7-0.6c-0.2-1.2-0.4-2.5-0.6-3.7c-0.1-0.4,0.2-0.7,0.6-0.8c0.4-0.1,0.7,0.2,0.8,0.6
				c0.2,1.2,0.4,2.4,0.6,3.7c0.1,0.4-0.2,0.7-0.6,0.8C2.7,154.9,2.6,154.9,2.6,155L2.6,155z M261.6,151.1c0,0-0.1,0-0.1,0
				c-0.4-0.1-0.6-0.4-0.6-0.8c0.2-1.2,0.3-2.5,0.5-3.7c0-0.4,0.4-0.7,0.8-0.6c0.4,0,0.7,0.4,0.6,0.8c-0.1,1.2-0.3,2.5-0.5,3.7
				C262.2,150.9,261.9,151.1,261.6,151.1L261.6,151.1z M1.5,147.6c-0.4,0-0.6-0.3-0.7-0.6c-0.1-1.2-0.3-2.5-0.4-3.7
				c0-0.4,0.2-0.7,0.6-0.8s0.7,0.2,0.8,0.6c0.1,1.2,0.2,2.5,0.4,3.7C2.3,147.2,2,147.5,1.5,147.6C1.6,147.6,1.6,147.6,1.5,147.6
				L1.5,147.6z M262.4,143.7C262.4,143.7,262.4,143.7,262.4,143.7c-0.5,0-0.7-0.4-0.7-0.8c0.1-1.2,0.2-2.5,0.3-3.7
				c0-0.4,0.4-0.7,0.7-0.7c0.4,0,0.7,0.4,0.7,0.7c-0.1,1.2-0.2,2.5-0.3,3.8C263.1,143.4,262.8,143.7,262.4,143.7L262.4,143.7z
				 M0.9,140.1c-0.4,0-0.7-0.3-0.7-0.7c-0.1-1.2-0.1-2.5-0.2-3.8c0-0.4,0.3-0.7,0.7-0.7c0,0,0,0,0,0c0.4,0,0.7,0.3,0.7,0.7
				c0,1.2,0.1,2.5,0.2,3.7C1.6,139.8,1.4,140.1,0.9,140.1C0.9,140.1,0.9,140.1,0.9,140.1z M262.9,136.2
				C262.9,136.2,262.8,136.2,262.9,136.2c-0.4,0-0.7-0.3-0.7-0.7c0-1.2,0-2.5,0-3.7v-0.2c0-0.4,0.3-0.7,0.7-0.7s0.7,0.3,0.7,0.7v0.2
				c0,1.2,0,2.5,0,3.8C263.5,135.9,263.2,136.2,262.9,136.2L262.9,136.2z M0.7,132.6c-0.4,0-0.7-0.3-0.7-0.7v-0.1
				c0-1.2,0-2.4,0.1-3.6c0-0.4,0.3-0.7,0.7-0.7c0.4,0,0.7,0.3,0.7,0.7c0,1.2,0,2.4,0,3.6v0.1C1.4,132.3,1.1,132.6,0.7,132.6z
				 M262.8,128.5c-0.4,0-0.7-0.3-0.7-0.7c0-1.2-0.1-2.5-0.2-3.7c0-0.4,0.3-0.7,0.7-0.7c0.4,0,0.7,0.3,0.7,0.7
				c0.1,1.2,0.1,2.5,0.2,3.8C263.6,128.2,263.3,128.5,262.8,128.5C262.9,128.5,262.9,128.5,262.8,128.5L262.8,128.5z M0.9,125.1
				C0.9,125.1,0.9,125.1,0.9,125.1c-0.4,0-0.7-0.3-0.7-0.7c0.1-1.2,0.2-2.5,0.3-3.8c0-0.4,0.4-0.7,0.8-0.6c0.4,0,0.7,0.4,0.6,0.8
				c-0.1,1.2-0.2,2.5-0.3,3.7C1.6,124.8,1.3,125.1,0.9,125.1z M262.4,121c-0.4,0-0.7-0.3-0.7-0.6c-0.1-1.2-0.2-2.5-0.4-3.7
				c0-0.4,0.2-0.7,0.6-0.8c0.4,0,0.7,0.2,0.8,0.6c0.1,1.2,0.3,2.5,0.4,3.7C263.1,120.7,262.9,121,262.4,121
				C262.4,121,262.4,121,262.4,121L262.4,121z M1.5,117.7C1.5,117.7,1.5,117.7,1.5,117.7c-0.5,0-0.7-0.4-0.7-0.8
				c0.1-1.2,0.3-2.5,0.5-3.7c0-0.4,0.4-0.7,0.8-0.6s0.6,0.4,0.6,0.8c-0.2,1.2-0.3,2.5-0.5,3.7C2.2,117.4,1.9,117.7,1.5,117.7
				L1.5,117.7z M261.5,113.6c-0.3,0-0.6-0.2-0.7-0.6c-0.2-1.2-0.4-2.5-0.6-3.7c-0.1-0.4,0.2-0.7,0.6-0.8s0.7,0.2,0.8,0.6
				c0.2,1.2,0.4,2.5,0.6,3.7c0.1,0.4-0.2,0.7-0.6,0.8C261.6,113.6,261.6,113.6,261.5,113.6L261.5,113.6z M2.6,110.3c0,0-0.1,0-0.1,0
				c-0.4-0.1-0.6-0.4-0.6-0.8c0.2-1.2,0.4-2.5,0.7-3.7c0.1-0.4,0.5-0.6,0.8-0.6c0.4,0.1,0.6,0.4,0.5,0.8c-0.2,1.2-0.5,2.4-0.7,3.7
				C3.2,110,2.9,110.2,2.6,110.3L2.6,110.3z M260.3,106.2c-0.3,0-0.6-0.2-0.7-0.6c-0.2-1.2-0.5-2.4-0.8-3.6
				c-0.1-0.4,0.1-0.8,0.5-0.8c0.4-0.1,0.8,0.2,0.8,0.5c0.3,1.2,0.6,2.5,0.8,3.7c0.1,0.4-0.2,0.8-0.5,0.8
				C260.4,106.2,260.3,106.2,260.3,106.2L260.3,106.2z M4.1,102.9c-0.1,0-0.1,0-0.2,0c-0.4-0.1-0.6-0.5-0.5-0.8
				c0.3-1.2,0.6-2.4,0.9-3.7c0.1-0.4,0.5-0.6,0.8-0.5s0.6,0.5,0.5,0.8c-0.3,1.2-0.6,2.4-0.9,3.6C4.7,102.7,4.4,102.9,4.1,102.9z
				 M258.6,98.9c-0.3,0-0.6-0.2-0.7-0.5c-0.3-1.2-0.6-2.4-1-3.6c-0.1-0.4,0.1-0.8,0.5-0.9s0.8,0.1,0.9,0.5c0.4,1.2,0.7,2.4,1,3.6
				c0.1,0.4-0.1,0.8-0.5,0.9C258.7,98.9,258.6,98.9,258.6,98.9L258.6,98.9z M6,95.7c-0.1,0-0.1,0-0.2,0c-0.4-0.1-0.6-0.5-0.5-0.9
				c0.3-1.2,0.7-2.4,1.1-3.6c0.1-0.4,0.5-0.6,0.9-0.4s0.6,0.5,0.4,0.9C7.3,92.8,7,94,6.6,95.2C6.5,95.5,6.3,95.7,6,95.7L6,95.7z
				 M256.5,91.8c-0.3,0-0.6-0.2-0.7-0.5c-0.4-1.2-0.8-2.4-1.2-3.5c-0.1-0.4,0.1-0.8,0.4-0.9c0.4-0.1,0.8,0.1,0.9,0.4
				c0.4,1.2,0.8,2.4,1.2,3.6c0.1,0.4-0.1,0.8-0.5,0.9C256.6,91.7,256.5,91.7,256.5,91.8L256.5,91.8z M8.3,88.6c-0.1,0-0.2,0-0.2,0
				c-0.4-0.1-0.6-0.5-0.4-0.9c0.4-1.2,0.9-2.4,1.3-3.5c0.1-0.4,0.5-0.5,0.9-0.4c0.4,0.1,0.5,0.6,0.4,0.9c-0.4,1.2-0.9,2.3-1.3,3.5
				C8.8,88.4,8.6,88.6,8.3,88.6L8.3,88.6z M253.9,84.7c-0.3,0-0.5-0.2-0.6-0.4c-0.4-1.1-0.9-2.3-1.4-3.4c-0.1-0.4,0-0.8,0.4-0.9
				c0.4-0.2,0.8,0,0.9,0.4c0.5,1.2,1,2.3,1.4,3.5c0.1,0.4,0,0.8-0.4,0.9C254.1,84.7,254,84.7,253.9,84.7L253.9,84.7z M11,81.6
				c-0.1,0-0.2,0-0.3-0.1c-0.4-0.2-0.5-0.6-0.4-0.9c0.5-1.2,1-2.3,1.5-3.4c0.2-0.3,0.6-0.5,0.9-0.3s0.5,0.6,0.4,0.9
				c-0.5,1.1-1,2.3-1.5,3.4C11.5,81.4,11.3,81.6,11,81.6L11,81.6z M251,77.8c-0.3,0-0.5-0.2-0.6-0.4c-0.5-1.1-1.1-2.2-1.6-3.3
				c-0.2-0.3,0-0.8,0.3-0.9c0.4-0.2,0.8,0,0.9,0.3c0.6,1.1,1.1,2.3,1.6,3.4c0.2,0.3,0,0.8-0.3,0.9C251.2,77.8,251.1,77.8,251,77.8
				L251,77.8z M14.1,74.7c-0.1,0-0.2,0-0.3-0.1c-0.4-0.2-0.5-0.6-0.3-0.9c0.6-1.1,1.1-2.3,1.7-3.4c0.2-0.3,0.6-0.5,1-0.3
				c0.3,0.2,0.5,0.6,0.3,0.9c-0.6,1.1-1.1,2.2-1.7,3.3C14.6,74.6,14.4,74.7,14.1,74.7z M247.7,71.1c-0.2,0-0.5-0.1-0.6-0.4
				c-0.6-1.1-1.2-2.2-1.8-3.3c-0.2-0.3-0.1-0.8,0.3-0.9c0.3-0.2,0.8-0.1,0.9,0.3c0.6,1.1,1.2,2.2,1.8,3.3c0.2,0.3,0.1,0.8-0.3,0.9
				C247.9,71.1,247.8,71.1,247.7,71.1L247.7,71.1z M17.6,68.1c-0.1,0-0.2,0-0.3-0.1c-0.3-0.2-0.5-0.6-0.3-0.9
				c0.6-1.1,1.3-2.2,1.9-3.2c0.2-0.3,0.6-0.4,1-0.2c0.3,0.2,0.4,0.6,0.2,1c-0.6,1.1-1.3,2.1-1.9,3.2C18.1,68,17.8,68.1,17.6,68.1
				L17.6,68.1z M244,64.6c-0.2,0-0.5-0.1-0.6-0.3c-0.6-1.1-1.3-2.1-2-3.2c-0.2-0.3-0.1-0.8,0.2-1c0.3-0.2,0.8-0.1,1,0.2
				c0.7,1,1.3,2.1,2,3.2c0.2,0.3,0.1,0.8-0.2,1C244.3,64.6,244.1,64.6,244,64.6L244,64.6z M21.5,61.7c-0.1,0-0.3,0-0.4-0.1
				c-0.3-0.2-0.4-0.6-0.2-1c0.7-1,1.4-2.1,2.1-3.1c0.2-0.3,0.6-0.4,1-0.2s0.4,0.7,0.2,1c-0.7,1-1.4,2.1-2.1,3.1
				C21.9,61.5,21.7,61.7,21.5,61.7L21.5,61.7z M240,58.4c-0.2,0-0.4-0.1-0.6-0.3c-0.7-1-1.4-2-2.1-3c-0.2-0.3-0.2-0.8,0.1-1
				s0.8-0.2,1,0.2c0.7,1,1.5,2,2.2,3.1c0.2,0.3,0.1,0.8-0.2,1C240.2,58.3,240.1,58.4,240,58.4L240,58.4z M25.7,55.5
				c-0.1,0-0.3,0-0.4-0.1c-0.3-0.2-0.4-0.7-0.1-1c0.7-1,1.5-2,2.3-3c0.2-0.3,0.7-0.4,1-0.1c0.3,0.2,0.4,0.7,0.1,1
				c-0.8,1-1.5,2-2.2,3C26.1,55.4,25.9,55.5,25.7,55.5L25.7,55.5z M235.6,52.3c-0.2,0-0.4-0.1-0.6-0.3c-0.8-1-1.5-2-2.3-2.9
				c-0.2-0.3-0.2-0.7,0.1-1c0.3-0.2,0.7-0.2,1,0.1c0.8,1,1.6,2,2.3,2.9c0.2,0.3,0.2,0.8-0.1,1C235.9,52.3,235.7,52.3,235.6,52.3z
				 M30.3,49.5c-0.2,0-0.3,0-0.4-0.2c-0.3-0.2-0.3-0.7-0.1-1c0.8-1,1.6-1.9,2.4-2.9c0.2-0.3,0.7-0.3,1-0.1c0.3,0.2,0.3,0.7,0.1,1
				c-0.8,0.9-1.6,1.9-2.4,2.8C30.7,49.5,30.5,49.6,30.3,49.5L30.3,49.5z M230.8,46.5c-0.2,0-0.4-0.1-0.5-0.2
				c-0.8-0.9-1.6-1.9-2.5-2.8c-0.3-0.3-0.2-0.7,0-1s0.7-0.2,1,0c0.9,0.9,1.7,1.9,2.5,2.8c0.2,0.3,0.2,0.7-0.1,1
				C231.1,46.5,231,46.5,230.8,46.5L230.8,46.5z M35.2,43.9c-0.2,0-0.3-0.1-0.5-0.2c-0.3-0.3-0.3-0.7,0-1c0.8-0.9,1.7-1.8,2.6-2.7
				c0.3-0.3,0.7-0.3,1,0c0.3,0.3,0.3,0.7,0,1c-0.9,0.9-1.7,1.8-2.6,2.7C35.6,43.8,35.4,43.9,35.2,43.9L35.2,43.9z M225.7,41
				c-0.2,0-0.4-0.1-0.5-0.2c-0.9-0.9-1.8-1.8-2.6-2.6c-0.3-0.3-0.3-0.7,0-1c0.3-0.3,0.7-0.3,1,0c0.9,0.9,1.8,1.8,2.7,2.7
				c0.3,0.3,0.3,0.7,0,1C226.1,41,225.9,41,225.7,41L225.7,41z M40.4,38.5c-0.2,0-0.4-0.1-0.5-0.2c-0.3-0.3-0.3-0.7,0-1
				c0.9-0.9,1.8-1.7,2.7-2.6c0.3-0.3,0.7-0.2,1,0c0.3,0.3,0.2,0.7,0,1c-0.9,0.8-1.8,1.7-2.7,2.6C40.8,38.5,40.6,38.5,40.4,38.5z
				 M220.4,35.8c-0.2,0-0.3-0.1-0.5-0.2c-0.9-0.8-1.8-1.7-2.8-2.5c-0.3-0.2-0.3-0.7-0.1-1c0.2-0.3,0.7-0.3,1-0.1
				c0.9,0.8,1.9,1.7,2.8,2.5c0.3,0.3,0.3,0.7,0,1C220.8,35.7,220.6,35.8,220.4,35.8L220.4,35.8z M45.9,33.5c-0.2,0-0.4-0.1-0.5-0.2
				c-0.2-0.3-0.2-0.7,0.1-1c0.9-0.8,1.9-1.6,2.9-2.4c0.3-0.2,0.7-0.2,1,0.1c0.2,0.3,0.2,0.7-0.1,1c-1,0.8-1.9,1.6-2.8,2.4
				C46.2,33.4,46.1,33.4,45.9,33.5L45.9,33.5z M214.7,30.9c-0.2,0-0.3,0-0.4-0.2c-1-0.8-1.9-1.6-2.9-2.3c-0.3-0.2-0.4-0.7-0.1-1
				c0.2-0.3,0.7-0.4,1-0.1c1,0.8,2,1.5,2.9,2.3c0.3,0.2,0.3,0.7,0.1,1C215.1,30.8,214.9,30.9,214.7,30.9L214.7,30.9z M51.7,28.7
				c-0.2,0-0.4-0.1-0.5-0.3c-0.2-0.3-0.2-0.7,0.1-1c1-0.8,2-1.5,3-2.3c0.3-0.2,0.8-0.2,1,0.1s0.2,0.8-0.2,1c-1,0.7-2,1.5-3,2.2
				C52,28.6,51.9,28.7,51.7,28.7L51.7,28.7z M208.8,26.3c-0.1,0-0.3,0-0.4-0.1c-1-0.7-2-1.4-3.1-2.1c-0.3-0.2-0.4-0.6-0.2-1
				s0.6-0.4,1-0.2c1,0.7,2.1,1.4,3.1,2.2c0.3,0.2,0.4,0.7,0.1,1C209.2,26.2,209,26.3,208.8,26.3L208.8,26.3z M57.7,24.3
				c-0.2,0-0.4-0.1-0.6-0.3c-0.2-0.3-0.1-0.8,0.2-1c1-0.7,2.1-1.4,3.1-2.1c0.3-0.2,0.8-0.1,1,0.2c0.2,0.3,0.1,0.8-0.2,1
				c-1,0.7-2.1,1.4-3.1,2.1C58,24.3,57.9,24.3,57.7,24.3L57.7,24.3z M202.6,22.1c-0.1,0-0.3,0-0.4-0.1c-1.1-0.7-2.1-1.3-3.2-2
				c-0.3-0.2-0.4-0.6-0.2-1s0.6-0.4,1-0.2c1.1,0.6,2.1,1.3,3.2,2c0.3,0.2,0.4,0.6,0.2,1C203,22,202.8,22.1,202.6,22.1L202.6,22.1z
				 M64,20.2c-0.2,0-0.5-0.1-0.6-0.3c-0.2-0.3-0.1-0.8,0.2-1c1.1-0.6,2.2-1.3,3.2-1.9c0.3-0.2,0.8-0.1,0.9,0.3
				c0.2,0.3,0.1,0.8-0.3,1c-1.1,0.6-2.2,1.2-3.2,1.9C64.3,20.2,64.1,20.2,64,20.2L64,20.2z M196.2,18.2c-0.1,0-0.2,0-0.3-0.1
				c-1.1-0.6-2.2-1.2-3.3-1.8c-0.3-0.2-0.5-0.6-0.3-0.9c0.2-0.3,0.6-0.5,0.9-0.3c1.1,0.6,2.2,1.2,3.3,1.8c0.3,0.2,0.5,0.6,0.3,1
				C196.7,18.1,196.4,18.2,196.2,18.2L196.2,18.2z M70.5,16.6c-0.2,0-0.5-0.1-0.6-0.4c-0.2-0.3-0.1-0.8,0.3-0.9
				c1.1-0.6,2.2-1.2,3.3-1.7c0.3-0.2,0.8,0,0.9,0.3c0.2,0.4,0,0.8-0.3,0.9c-1.1,0.5-2.2,1.1-3.3,1.7C70.7,16.5,70.6,16.6,70.5,16.6
				L70.5,16.6z M189.5,14.7c-0.1,0-0.2,0-0.3-0.1c-1.1-0.6-2.2-1.1-3.4-1.6c-0.4-0.2-0.5-0.6-0.4-0.9c0.2-0.4,0.6-0.5,0.9-0.4
				c1.1,0.5,2.3,1.1,3.4,1.6c0.4,0.2,0.5,0.6,0.3,0.9C190,14.6,189.8,14.7,189.5,14.7L189.5,14.7z M77.2,13.3
				c-0.3,0-0.5-0.1-0.6-0.4c-0.2-0.4,0-0.8,0.3-0.9c1.1-0.5,2.3-1,3.4-1.5c0.4-0.1,0.8,0,0.9,0.4c0.2,0.4,0,0.8-0.4,0.9
				c-1.1,0.5-2.3,1-3.4,1.5C77.4,13.2,77.3,13.3,77.2,13.3L77.2,13.3z M182.7,11.6c-0.1,0-0.2,0-0.3-0.1c-1.1-0.5-2.3-0.9-3.5-1.4
				c-0.4-0.1-0.5-0.6-0.4-0.9s0.5-0.5,0.9-0.4c1.2,0.4,2.3,0.9,3.5,1.4c0.4,0.1,0.5,0.6,0.4,0.9C183.2,11.5,183,11.6,182.7,11.6z
				 M84.1,10.3c-0.3,0-0.5-0.2-0.7-0.4c-0.1-0.4,0-0.8,0.4-0.9c1.2-0.5,2.3-0.9,3.5-1.3c0.4-0.1,0.8,0.1,0.9,0.4
				c0.1,0.4-0.1,0.8-0.4,0.9c-1.2,0.4-2.3,0.9-3.5,1.3C84.3,10.3,84.2,10.3,84.1,10.3L84.1,10.3z M175.7,8.9c-0.1,0-0.2,0-0.2,0
				c-1.2-0.4-2.4-0.8-3.5-1.2c-0.4-0.1-0.6-0.5-0.4-0.9c0.1-0.4,0.5-0.6,0.9-0.4c1.2,0.4,2.4,0.8,3.6,1.2c0.4,0.1,0.6,0.5,0.4,0.9
				C176.3,8.7,176,8.9,175.7,8.9L175.7,8.9z M91.1,7.8c-0.3,0-0.6-0.2-0.7-0.5c-0.1-0.4,0.1-0.8,0.4-0.9c1.2-0.4,2.4-0.8,3.6-1.1
				c0.4-0.1,0.8,0.1,0.9,0.5s-0.1,0.8-0.5,0.9c-1.2,0.3-2.4,0.7-3.6,1.1C91.3,7.8,91.2,7.8,91.1,7.8L91.1,7.8z M168.6,6.6
				c-0.1,0-0.1,0-0.2,0c-1.2-0.3-2.4-0.7-3.6-1c-0.4-0.1-0.6-0.5-0.5-0.8s0.5-0.6,0.9-0.5c1.2,0.3,2.4,0.7,3.6,1
				c0.4,0.1,0.6,0.5,0.5,0.9C169.1,6.4,168.9,6.6,168.6,6.6L168.6,6.6z M98.3,5.7c-0.3,0-0.6-0.2-0.7-0.5c-0.1-0.4,0.1-0.8,0.5-0.9
				c1.2-0.3,2.4-0.6,3.7-0.9c0.4-0.1,0.8,0.2,0.8,0.5c0.1,0.4-0.2,0.8-0.5,0.8c-1.2,0.3-2.4,0.6-3.6,0.9C98.4,5.7,98.4,5.7,98.3,5.7
				L98.3,5.7z M161.3,4.7c-0.1,0-0.1,0-0.2,0c-1.2-0.3-2.4-0.5-3.6-0.8c-0.4-0.1-0.6-0.4-0.6-0.8s0.4-0.6,0.8-0.5
				c1.2,0.2,2.5,0.5,3.7,0.8c0.4,0.1,0.6,0.5,0.5,0.8C161.9,4.5,161.6,4.7,161.3,4.7L161.3,4.7z M105.6,4c-0.3,0-0.6-0.2-0.7-0.6
				c-0.1-0.4,0.2-0.8,0.6-0.8c1.2-0.2,2.5-0.5,3.7-0.7c0.4-0.1,0.7,0.2,0.8,0.6s-0.2,0.7-0.6,0.8c-1.2,0.2-2.4,0.4-3.7,0.7
				C105.7,4,105.7,4,105.6,4L105.6,4z M154,3.3c0,0-0.1,0-0.1,0c-1.2-0.2-2.4-0.4-3.7-0.6c-0.4,0-0.6-0.4-0.6-0.8
				c0.1-0.4,0.4-0.6,0.8-0.6c1.2,0.2,2.5,0.4,3.7,0.6c0.4,0.1,0.6,0.4,0.6,0.8C154.6,3,154.3,3.3,154,3.3L154,3.3z M113,2.7
				c-0.3,0-0.6-0.2-0.7-0.6c-0.1-0.4,0.2-0.7,0.6-0.8c1.2-0.2,2.5-0.3,3.7-0.5c0.4,0,0.7,0.2,0.8,0.6c0,0.4-0.2,0.7-0.6,0.8
				C115.5,2.4,114.3,2.6,113,2.7C113,2.7,113,2.7,113,2.7L113,2.7z M146.6,2.2C146.6,2.2,146.5,2.2,146.6,2.2
				c-1.3-0.1-2.6-0.3-3.8-0.4c-0.4,0-0.7-0.4-0.6-0.8c0-0.4,0.4-0.7,0.8-0.6c1.2,0.1,2.5,0.2,3.7,0.4c0.4,0,0.7,0.4,0.6,0.8
				C147.2,2,146.9,2.2,146.6,2.2L146.6,2.2z M120.4,1.9c-0.4,0-0.7-0.3-0.7-0.6c0-0.4,0.2-0.7,0.6-0.8c1.3-0.1,2.5-0.2,3.8-0.3
				c0.4,0,0.7,0.3,0.7,0.7s-0.3,0.7-0.7,0.7C123,1.7,121.7,1.8,120.4,1.9C120.5,1.9,120.4,1.9,120.4,1.9z M139.1,1.6
				C139.1,1.6,139.1,1.6,139.1,1.6c-1.3-0.1-2.5-0.1-3.8-0.1c-0.4,0-0.7-0.3-0.7-0.7c0-0.4,0.3-0.7,0.7-0.7c1.2,0,2.5,0.1,3.8,0.2
				c0.4,0,0.7,0.3,0.7,0.7C139.8,1.3,139.5,1.6,139.1,1.6L139.1,1.6z M127.9,1.5c-0.4,0-0.7-0.3-0.7-0.7c0-0.4,0.3-0.7,0.7-0.7
				c1.2,0,2.5-0.1,3.8-0.1l0,0c0.4,0,0.7,0.3,0.7,0.7s-0.3,0.7-0.7,0.7C130.4,1.4,129.1,1.4,127.9,1.5
				C127.9,1.5,127.9,1.5,127.9,1.5z"/>
		</g>
	</g>
</g>
</svg>
