<?xml version="1.0" encoding="UTF-8"?>
<svg id="_圖層_2" data-name="圖層 2" xmlns="http://www.w3.org/2000/svg" width="387.21" height="312.63" viewBox="0 0 387.21 312.63">
  <g id="_第一cut" data-name="第一cut">
    <g id="teaching_methods_title">
      <g id="compass">
        <g>
          <path d="m319.71,13.22c0,1.44-7.43,28.8-7.43,28.8l10.33,9.37,4.93-11.85-7.83-26.32Z" style="fill: #dba952; stroke-width: 0px;"/>
          <polygon points="312.28 99.44 319.38 126.25 326.04 99.44 318.77 91.75 312.28 99.44" style="fill: #dba952; stroke-width: 0px;"/>
          <g>
            <polygon points="302.73 17.26 306.08 73.66 334.9 122.25 331.55 65.85 302.73 17.26" style="fill: #dba952; stroke-width: 0px;"/>
            <polygon points="266.32 85.84 322.72 82.49 374.79 69.67 353.77 64.07 371.31 53.67 314.91 57.02 290.57 62.73 263.78 70.29 283.93 75.39 266.32 85.84" style="fill: #dba952; stroke-width: 0px;"/>
            <polygon points="287.06 24.96 307.95 77.46 350.57 114.55 329.68 62.05 287.06 24.96" style="fill: #eecc8d; stroke-width: 0px;"/>
            <polygon points="274.02 101.51 326.52 80.62 363.61 38 311.11 58.89 274.02 101.51" style="fill: #eecc8d; stroke-width: 0px;"/>
            <polygon points="273.59 38.61 311.27 80.72 364.04 100.89 326.37 58.79 273.59 38.61" style="fill: #dba952; stroke-width: 0px;"/>
            <polygon points="287.68 114.98 329.78 77.31 349.96 24.53 307.85 62.2 287.68 114.98" style="fill: #dba952; stroke-width: 0px;"/>
            <polygon points="265.88 55.17 315.28 82.59 371.75 84.34 322.35 56.92 265.88 55.17" style="fill: #eecc8d; stroke-width: 0px;"/>
            <polygon points="304.23 122.69 331.65 73.29 333.4 16.82 305.98 66.22 304.23 122.69" style="fill: #eecc8d; stroke-width: 0px;"/>
          </g>
          <path d="m319.32,0l-15.51,63.95c-.44.35-.87.71-1.3,1.07-.45.38-.92.75-1.38,1.13-.23.19-.47.4-.69.61-.23.22-.45.4-.49.73-.02.15.1.27.23.29.31.05.54-.1.79-.26.27-.16.54-.34.79-.52.49-.36.97-.74,1.45-1.12.05-.04.1-.08.16-.13l-.52,2.16-.12.48,4.52,18.66c-.02.08-.03.16-.05.24-.02.11.07.19.16.22l11.95,49.28,16.47-67.92.11-.48L319.32,0Zm-6.26,93.83s.03-.09.05-.13c.29-.72.57-1.44.86-2.16.62-1.53,1.31-3.02,2-4.52,1.01-2.17,1.98-4.35,2.8-6.59v.59c-.95,2.97-2.34,5.81-3.65,8.63-.69,1.5-1.37,3.02-1.97,4.56l-.09-.38Zm.92,3.79l-.41-1.67c.18-.51.36-1.02.55-1.52.6-1.56,1.27-3.08,1.94-4.61,1.01-2.33,1.97-4.64,2.7-7.05v2.63c-1.01,2.49-2.03,4.97-3.01,7.47-.53,1.37-1.04,2.75-1.56,4.12-.08.21-.15.41-.22.62Zm.4,1.67c.25-.61.49-1.22.72-1.84.52-1.41,1.05-2.82,1.55-4.23.72-2.05,1.41-4.1,2.11-6.16v2.36s-.06.06-.07.11c-.92,3.6-2.79,6.89-4.18,10.33l-.14-.57Zm.58,2.4c.53-1.43,1.12-2.85,1.72-4.26.79-1.86,1.54-3.74,2.08-5.68v3.17c-.15-.14-.43-.15-.53.1-.76,1.95-1.51,3.9-2.23,5.86-.25.68-.5,1.35-.75,2.03l-.3-1.22Zm2.66,10.95l-.52-2.16c.19-.52.35-1.06.5-1.59l.87-2.91c.19-.63-.78-1-.97-.37-.29.97-.58,1.94-.87,2.91,0,0,0,.02,0,.02l-.18-.73c.09-.25.18-.51.26-.77.22-.73.45-1.46.65-2.19.43-1.53.86-3.06,1.28-4.59.15-.54-.64-.86-.82-.31-.52,1.53-1.02,3.06-1.53,4.59-.11.35-.24.71-.37,1.08l-.22-.92c.07-.19.14-.38.2-.57.34-.97.67-1.94,1-2.92.64-1.9,1.26-3.8,1.87-5.71v8.18c0,1.11,0,2.21,0,3.32-.21-.12-.56-.02-.57.27-.06,1.28-.16,2.56-.34,3.82-.07.51-.16,1.02-.23,1.53Zm.45,1.87c.39-1.02.58-2.11.71-3.19,0,1.64,0,3.29,0,4.93,0,.41,0,.82,0,1.23l-.72-2.97Zm.95-89.06c-.02,3.72-.11,7.44-.16,11.17-.01.98-.02,1.95-.03,2.93-.11.36-.17.71-.12,1.05.01.07.06.11.1.15-.04,4.69-.05,9.39-.05,14.08-.19.42-.37.87-.36,1.29,0,.19.18.39.36.39v22.24c-1.13,2.72-2.52,5.34-3.77,8-.69,1.46-1.37,2.93-1.97,4.43-.13.32-.25.65-.37.97l-.42-1.75c.16-.38.33-.76.49-1.14.64-1.49,1.27-2.99,1.91-4.47,1.29-2.98,2.52-5.97,3.75-8.97.11-.27-.29-.4-.42-.16-1.5,2.89-2.94,5.8-4.25,8.78-.64,1.44-1.28,2.89-1.88,4.35l-.35-1.46c.23-.5.46-1.01.69-1.51.66-1.46,1.33-2.93,2-4.39,1.33-2.89,2.64-5.78,4.02-8.64.1-.21-.25-.39-.36-.19-1.5,2.8-2.99,5.6-4.37,8.46-.68,1.42-1.36,2.84-2.01,4.28-.1.22-.2.44-.3.67l-.24-.97c.19-.42.38-.85.57-1.27.62-1.39,1.23-2.78,1.86-4.16,1.25-2.73,2.51-5.46,3.84-8.15.05-.1-.12-.2-.18-.1-1.49,2.6-2.93,5.23-4.24,7.93-.65,1.34-1.29,2.69-1.89,4.05-.08.18-.16.37-.23.56l-.49-2.03c.52-1.17,1.05-2.33,1.61-3.48,1.5-3.06,3.13-6.04,4.82-8.99.12-.21-.17-.44-.32-.23-1.96,2.78-3.69,5.72-5.23,8.75-.43.84-.83,1.68-1.24,2.54l-1.49-6.15c.06-.1.12-.19.17-.29.3-.55.6-1.11.91-1.66.6-1.11,1.18-2.23,1.76-3.35.11-.2-.24-.39-.36-.19-.65,1.11-1.3,2.21-1.92,3.33-.25.45-.51.9-.76,1.36l-.24-1c.15-.3.31-.59.46-.89.55-1.04,1.14-2.06,1.76-3.06.21-.34-.29-.71-.52-.37-.65.99-1.28,2-1.87,3.03-.04.06-.07.12-.1.18l-.13-.55c.11-.18.23-.36.33-.54.26-.45.52-.9.77-1.36.09-.16.08-.36-.08-.47-.14-.1-.37-.08-.47.08-.27.44-.53.88-.8,1.31l-.35-1.45,12.13-50c-.02,2.35.03,4.71.01,7.05Zm8.69,26.33c-.18-.1-.41-.09-.57.13-1.5,2.15-2.92,4.36-4.25,6.62-.65,1.1-1.27,2.21-1.87,3.34-.3.56-.6,1.12-.86,1.69-.1.22-.21.44-.3.66v-2.27c.14-.26.26-.54.39-.82.28-.6.57-1.2.86-1.8.58-1.18,1.2-2.34,1.87-3.48,1.26-2.16,2.67-4.24,4.21-6.22l.52,2.16Zm-.75-3.08c-.08.02-.16.07-.22.15-1.67,2.07-3.2,4.25-4.57,6.53-.68,1.12-1.31,2.27-1.91,3.43-.14.27-.27.54-.41.81v-1.19c.83-1.65,1.52-3.37,2.4-4.99,1.11-2.04,2.39-3.99,3.8-5.84.27-.35-.28-.74-.55-.4-1.46,1.88-2.78,3.87-3.94,5.96-.6,1.08-1.2,2.19-1.7,3.34,0-.61,0-1.21,0-1.82.22-.51.44-1.02.68-1.52.53-1.14,1.09-2.27,1.7-3.37,1.08-1.97,2.29-3.86,3.61-5.68l1.12,4.6Zm-1.37-5.67c-1.52,2.01-2.9,4.11-4.13,6.3-.57,1.01-1.1,2.04-1.6,3.08v-1.98c.09.05.19.05.27-.03.63-.66.99-1.61,1.41-2.41.44-.86.9-1.72,1.37-2.57.73-1.31,1.51-2.6,2.31-3.88l.36,1.49Zm-.61-2.5c-.96,1.48-1.89,2.98-2.76,4.51-.47.82-.92,1.65-1.36,2.49-.34.64-.77,1.34-.99,2.06,0-.99,0-1.98,0-2.96.31-.24.47-.64.64-.98.21-.41.41-.82.62-1.23.44-.86.9-1.71,1.39-2.54.63-1.09,1.31-2.16,2.02-3.2l.45,1.85Zm-.71-2.94c-.91,1.27-1.76,2.58-2.56,3.93-.47.8-.92,1.61-1.35,2.43-.18.33-.35.67-.51,1,0-.45,0-.89,0-1.34.34-.51.59-1.09.84-1.64.37-.79.75-1.58,1.16-2.35.64-1.21,1.32-2.4,2.05-3.56l.37,1.53Zm-2.9-11.94l.2.83c-.53.78-1,1.6-1.41,2.45.12-.3.22-.6.32-.88.24-.67.48-1.33.74-1.99.05-.13.1-.27.16-.4Zm-1.77-7.27l.76,3.11c-.27.59-.53,1.18-.76,1.78,0-1.63.02-3.26,0-4.89Zm.01,8.27c-.01-.57-.02-1.15-.02-1.72.16-.1.3-.35.35-.5.22-.6.45-1.19.69-1.78l.46,1.89c-.2.44-.39.88-.58,1.33-.26.63-.52,1.27-.76,1.91-.04.11-.08.22-.13.34,0-.49-.02-.97-.02-1.46Zm.08,5.74c.37-.98.65-2,1.07-2.96.3-.68.65-1.33,1.04-1.97l.37,1.54c-.48.77-.92,1.56-1.34,2.37-.39.74-.75,1.5-1.07,2.27-.02.05-.04.1-.06.15,0-.47-.02-.93-.02-1.4Zm.05,3.63c.17-.27.26-.62.38-.9.16-.39.34-.77.51-1.15.32-.74.65-1.48,1.02-2.21.26-.51.54-1.01.82-1.51l.39,1.59c-.85,1.26-1.63,2.55-2.33,3.9-.27.52-.53,1.06-.77,1.59,0-.44-.01-.87-.02-1.31Zm.05,3.59c.15-.35.26-.72.4-1.03.34-.81.71-1.6,1.11-2.38.56-1.1,1.18-2.16,1.85-3.19l.42,1.76c-.91,1.42-1.77,2.87-2.56,4.36-.41.77-.8,1.55-1.17,2.34,0,.02-.02.04-.03.07,0-.64-.01-1.28-.02-1.93Zm.03,77.87c.01-3.72.03-7.44.03-11.16,0-7.46,0-14.91,0-22.36,0-6.1,0-12.2,0-18.3.03,0,.05-.02.07-.04.44-.42.68-.93.98-1.46.33-.58.62-1.17.94-1.75.62-1.14,1.24-2.27,1.89-3.4,1.29-2.24,2.68-4.43,4.14-6.56l.47,1.95c-.09.02-.18.07-.26.17-1.71,2.07-3.31,4.23-4.8,6.47-.72,1.09-1.42,2.2-2.09,3.33-.32.54-.68,1.09-.9,1.68-.09.25-.17.51-.2.78-.04.33.07.41.21.67.13.22.45.24.55-.01.09-.2.18-.31.23-.55.06-.29.18-.56.31-.83.27-.55.6-1.09.92-1.62.65-1.1,1.33-2.18,2.04-3.25,1.32-1.99,2.74-3.92,4.24-5.78l3.14,12.94-11.91,49.1Z" style="fill: #502103; stroke-width: 0px;"/>
          <g>
            <path d="m313.8,69.78c-1.22,2.42-2.45,4.84-3.64,7.27-.59,1.2-1.19,2.4-1.76,3.61-.26.54-.54,1.09-.81,1.65-.11-.63-.23-1.27-.34-1.9.28-.54.49-1.13.74-1.65.46-.97.93-1.94,1.39-2.92.9-1.91,1.8-3.83,2.74-5.73.1-.2-.23-.38-.35-.19-1.04,1.8-2.07,3.61-3.03,5.46-.48.93-.93,1.87-1.38,2.81-.16.34-.36.7-.54,1.06l-39.03-9.47c1.83.12,3.67.18,5.51.21.06.13.19.22.36.14.08-.04.15-.09.23-.13,2.49.03,4.99.01,7.48.02,1.07,0,2.14,0,3.21,0,.04.01.08.01.12,0,0,0,0,0,0,0,.91,0,1.82,0,2.72,0,.06.06.15.07.26.01,0,0,.01,0,.02-.01,2.66,0,5.32.02,7.98.05l4.03.05c1.31.02,2.63.08,3.94-.14.38-.07.35-.59-.02-.66-1.2-.2-2.41-.16-3.62-.14-1.18.01-2.36.03-3.53.04-.62,0-1.22.01-1.84.02.21-.14.42-.29.63-.43.59-.43,1.19-.85,1.76-1.29,1.18-.91,2.34-1.84,3.47-2.81,1.53-1.31,3.1-2.63,4.52-4.07l.46-.11c-1.22,1.11-2.42,2.22-3.58,3.39-.73.73-1.46,1.46-2.18,2.2-.34.36-.68.72-1.03,1.07-.15.15-.3.3-.47.41-.19.11-.38.16-.54.32-.15.15-.16.37.01.5.73.58,1.79-.39,2.29-.87.84-.79,1.66-1.59,2.47-2.38,1.64-1.6,3.19-3.26,4.75-4.94.23-.25.05-.59-.22-.71.2-1.24.43-2.47.72-3.69l-57.29,13.89,56.66,13.74c-.12.31-.22.62-.29.94-.06.23.22.41.38.2.23-.3.44-.63.64-.97h.05s-.01-.04-.02-.06c.46-.8.83-1.67,1.23-2.48.61-1.23,1.2-2.47,1.79-3.7,1.18-2.47,2.32-4.96,3.48-7.44.16-.34-.38-.53-.54-.2Zm-12.08-8.31l1.19-.29c-1.04.94-2.08,1.89-3.14,2.79-1.11.95-2.21,1.89-3.33,2.82-.56.47-1.11.94-1.67,1.41-.29.24-.58.49-.87.74-.14.12-.21.22-.26.33-.82,0-1.64.02-2.46.03.49-.2.92-.48,1.37-.77.62-.4,1.22-.84,1.82-1.27,1.17-.86,2.33-1.72,3.46-2.62,1.13-.9,2.26-1.81,3.37-2.74.17-.15.35-.29.53-.44Zm-4.27,1.03l1.79-.43c-.69.54-1.37,1.09-2.06,1.62-1.12.87-2.23,1.75-3.35,2.61-.56.43-1.12.86-1.67,1.31-.57.46-1.16.91-1.57,1.52-.03.05-.04.12-.02.19-.42,0-.84,0-1.26,0-.16,0-.33,0-.49,0,.73-.51,1.42-1.05,2.13-1.6,1.06-.83,2.12-1.66,3.17-2.5,1.05-.84,2.1-1.68,3.13-2.55.07-.06.13-.11.2-.17Zm-4.91,1.19l2.79-.68c-.6.49-1.2.99-1.79,1.48-1.02.83-2.03,1.66-3.06,2.49-.94.76-1.89,1.5-2.77,2.33-.63,0-1.26,0-1.89,0,.08-.07.16-.15.24-.21.45-.39.9-.78,1.36-1.18.92-.81,1.86-1.6,2.82-2.37.77-.62,1.54-1.24,2.31-1.86Zm-3.62.88l1.27-.31c-.18.14-.36.28-.54.43-.95.78-1.88,1.58-2.8,2.4-.47.42-.93.85-1.39,1.28-.29.27-.67.58-.91.94-.63,0-1.26,0-1.89,0,.6-.4,1.18-.86,1.76-1.29.93-.7,1.85-1.39,2.77-2.11.57-.45,1.15-.89,1.72-1.34Zm-3.52.85l1.31-.32s-.07.06-.11.08c-.89.69-1.77,1.39-2.66,2.08-.84.65-1.73,1.27-2.47,2.04-.56,0-1.12,0-1.68,0,.04-.02.08-.05.12-.07.43-.26.84-.54,1.26-.82.91-.6,1.8-1.23,2.69-1.86.52-.37,1.03-.75,1.54-1.13Zm-4.44,1.19c.06-.05.12-.1.18-.16l1.56-.38c-.64.46-1.28.93-1.91,1.4-.44.33-.88.64-1.31.97-.33.25-.74.52-.99.87-.44,0-.89,0-1.33,0,.84-.48,1.64-1.03,2.41-1.62.47-.35.96-.7,1.39-1.09Zm-2.7.54l.98-.24c-.05.04-.1.07-.16.11-.97.67-1.94,1.33-2.86,2.07-.08.06-.11.15-.11.23-.38,0-.76,0-1.14.01,0,0,0,0-.01,0,.23-.15.46-.31.68-.46.67-.45,1.35-.88,2.01-1.33.2-.13.4-.26.6-.39Zm-3.65.97c.08-.05.17-.1.25-.15l1.03-.25c-.21.14-.42.29-.63.43-.55.38-1.1.76-1.6,1.21-.45,0-.9.02-1.35.03.23-.11.45-.23.68-.35.55-.29,1.09-.6,1.62-.92Zm-1.93.38c-.44.28-.89.55-1.28.91-.97.03-1.94.06-2.91.11l4.19-1.02Z" style="fill: #502103; stroke-width: 0px;"/>
            <g>
              <path d="m364.42,70.9s0,0,0,0c0-.03,0,0,0,0Z" style="fill: #502103; stroke-width: 0px;"/>
              <polygon points="363.87 70.97 363.87 70.96 363.87 70.96 363.87 70.97" style="fill: #502103; stroke-width: 0px;"/>
              <path d="m335.11,74.35c-.91,1.4-1.81,2.84-2.36,4.41,0,.01,0,.03,0,.04l-.88.21c-.35,1.47-.7,2.95-1.06,4.42l56.41-13.68-57.95-14.06c.1.44.2.88.3,1.32-.09-.04-.19-.03-.29.06-1.99,1.78-3.76,3.77-5.29,5.95-.76,1.09-1.46,2.21-2.11,3.37-.32.57-.62,1.15-.91,1.73-.29.59-.64,1.21-.63,1.89,0,.28.32.53.57.31.47-.42.7-1.01.98-1.58.28-.58.56-1.15.86-1.72.62-1.15,1.29-2.27,2.02-3.35,1.46-2.17,3.11-4.23,4.91-6.13,0,0,0-.01.01-.02.19.85.38,1.71.58,2.56l38.52,9.34c-1.28,0-2.55,0-3.83.01-.01-.05-.03-.09-.07-.12-.08-.08-.25-.11-.34-.01-.05.05-.09.09-.14.14-.81,0-1.63,0-2.44,0-1.92,0-3.84,0-5.75,0-.07-.05-.17-.06-.24,0-1.79,0-3.59,0-5.38,0,.15-.23.3-.46.45-.69.12-.19-.16-.4-.29-.21-.2.3-.41.6-.62.9-.3,0-.6,0-.91,0,.16-.23.33-.46.49-.7.1-.14-.11-.29-.22-.15-.21.28-.43.57-.65.85-.48,0-.95,0-1.42,0,.14-.2-.16-.39-.32-.22-.07.07-.13.15-.2.22-1.03,0-2.06,0-3.1.02-.35,0-.7,0-1.05,0,0-.12-.16-.21-.25-.09-.02.03-.04.06-.07.09-2.93,0-5.87-.03-8.8.15-.26.02-.25.45.01.46,1.02.06,2.04.09,3.07.11-1.69,2.31-3.4,4.67-4.67,7.23-.07.14.15.24.23.12.92-1.26,1.72-2.59,2.56-3.9.74-1.16,1.49-2.31,2.26-3.45.39,0,.78,0,1.17,0-.02.01-.04.03-.06.05-1.1,1.3-2.15,2.63-3.08,4.06Zm29.32-4.06c1.12,0,2.25,0,3.38,0l-3.41.83c.02-.08.03-.15.02-.23h0c0-.05,0-.09,0-.13-.02-.1-.07-.2-.13-.28.05-.07.1-.13.15-.19Zm-2.4.44c.08-.14.1-.3.05-.45.49,0,.99,0,1.48,0-.02.03-.05.05-.07.07-.08.11-.08.26-.01.37.07.11.18.16.31.16h0s0,0,.01,0c.03.02.02.01,0,0,0,0,0,0,0,0,.02.02.03.03.05.05,0,0,0,0,0,0,0,0,0,0,0,0,0,0,0,0,0,0,.03.03.02.01,0,0,.01,0,.02.02.03.03,0,0,0,0,0,0,0,0,0,.01,0,.02,0,.02-.02.06,0,0,0,.01-.01.03-.02.04-.02.04-.02.09-.02.13,0,.02,0,.04,0,.06l-2.58.63c.26-.37.52-.74.73-1.14Zm-2.35-.45c.49,0,.99,0,1.48,0-.33.57-.69,1.11-1.11,1.62-.1.12-.2.23-.3.35l-1.59.39c.55-.61,1.11-1.24,1.51-1.95.07-.13.08-.28,0-.4Zm-.61,0c-.62.64-1.17,1.35-1.77,2.01-.23.25-.47.49-.72.73l-.92.22c.05-.06.11-.12.16-.18.83-.92,1.66-1.85,2.49-2.78.25,0,.5,0,.76,0Zm-3.04,0c.52,0,1.04,0,1.56,0-.76.76-1.53,1.52-2.29,2.28-.33.33-.65.66-.97.99l-.8.2c.11-.14.22-.29.33-.43.44-.58.86-1.16,1.28-1.75.3-.42.62-.85.88-1.3Zm-.77,0c-.21.28-.42.57-.62.85-.43.58-.86,1.16-1.31,1.73-.3.39-.61.78-.92,1.17l-1.12.27c.13-.19.26-.37.39-.56.8-1.14,1.56-2.3,2.34-3.46h1.25Zm-3.28,0c.5,0,1,0,1.5,0-.78,1.03-1.56,2.05-2.32,3.09-.28.39-.57.77-.85,1.16l-1.68.41s.03-.04.05-.07c1.11-1.52,2.2-3.06,3.28-4.6h.02Zm-.46,0c-1.13,1.4-2.26,2.8-3.37,4.22-.18.23-.35.46-.53.69l-1.44.35c.36-.45.72-.9,1.07-1.35.98-1.27,1.9-2.58,2.79-3.91.49,0,.98,0,1.47,0Zm-1.98,0c-.86,1.19-1.76,2.36-2.68,3.51-.55.68-1.11,1.35-1.69,2.01l-.82.2c.26-.33.52-.65.78-.98,1.21-1.55,2.37-3.14,3.51-4.74.3,0,.6,0,.9,0Zm-1.33,0c-1.17,1.48-2.37,2.93-3.58,4.38-.45.54-.91,1.07-1.36,1.6l-1.48.36c.37-.45.74-.9,1.11-1.36,1.33-1.64,2.65-3.3,3.92-4.99.47,0,.93,0,1.4,0Zm-2.04,0c-1.33,1.49-2.63,3-3.92,4.53-.59.71-1.18,1.42-1.77,2.13l-1.48.36c.43-.52.86-1.05,1.29-1.57,1.46-1.78,2.95-3.57,4.28-5.45.53,0,1.06,0,1.6,0Zm-3.37-.01c.44,0,.87,0,1.31,0-1.49,1.61-2.87,3.32-4.27,5-.63.76-1.26,1.52-1.89,2.28l-.92.22c.73-.9,1.42-1.84,2.1-2.77,1.12-1.54,2.18-3.12,3.18-4.74.16,0,.33,0,.49,0Zm-.93,0c-1.07,1.43-2.14,2.86-3.2,4.3-.85,1.15-1.74,2.28-2.57,3.45l-1.77.43c.22-.28.43-.57.65-.86.65-.85,1.3-1.7,1.94-2.56,1.17-1.57,2.37-3.12,3.43-4.77.51,0,1.02,0,1.52,0Zm-3.42-.01c.47,0,.93,0,1.4,0-1.19,1.39-2.28,2.86-3.39,4.31-.63.82-1.25,1.65-1.87,2.48-.4.54-.81,1.07-1.2,1.62l-.17.04c.9-1.29,1.66-2.68,2.5-4,.9-1.41,1.82-2.81,2.8-4.17.08-.12.02-.23-.08-.28Z" style="fill: #502103; stroke-width: 0px;"/>
            </g>
          </g>
          <path d="m327.4,61.63c-1.1,1.21-2.11,2.49-3.01,3.85-.44.66-.85,1.33-1.24,2.02-.41.72-.83,1.45-1.05,2.25-.1.36.37.66.6.32.46-.65.79-1.36,1.18-2.05.4-.71.83-1.4,1.28-2.08.9-1.33,1.9-2.59,2.98-3.78.4-.44-.36-.98-.75-.54Z" style="fill: #502103; stroke-width: 0px;"/>
          <path d="m327.39,64.48c-.67.96-1.31,1.95-1.91,2.95-.3.5-.6,1.01-.88,1.52-.27.5-.56,1.03-.73,1.58-.09.3.28.5.48.26.36-.45.65-.97.95-1.47.29-.49.58-.97.89-1.45.62-.97,1.27-1.93,1.94-2.86.34-.47-.4-1.01-.74-.53Z" style="fill: #502103; stroke-width: 0px;"/>
          <path d="m329.04,64.77c-.5.74-.97,1.5-1.4,2.29-.41.76-.85,1.56-1.03,2.42-.04.18.23.27.32.12.47-.72.8-1.53,1.21-2.28.42-.76.87-1.5,1.36-2.21.21-.31-.26-.64-.47-.34Z" style="fill: #502103; stroke-width: 0px;"/>
          <path d="m330.18,66.57c-.07-.04-.15-.05-.23-.02-.1.03-.15.09-.2.18-.24.45-.48.9-.72,1.35-.06.11.02.26.12.31.11.06.26.03.33-.07.27-.43.53-.87.8-1.3.09-.15.06-.35-.11-.44Z" style="fill: #502103; stroke-width: 0px;"/>
          <path d="m334.41,69.38c0,8.7-7.05,15.76-15.76,15.76s-15.75-7.05-15.75-15.76,7.05-15.76,15.75-15.76,15.76,7.05,15.76,15.76Z" style="fill: #502103; stroke-width: 0px;"/>
          <path d="m331.24,69.38c0,6.95-5.64,12.59-12.59,12.59s-12.58-5.63-12.58-12.59,5.63-12.59,12.58-12.59,12.59,5.63,12.59,12.59Z" style="fill: #eecc8d; stroke-width: 0px;"/>
          <path d="m321.99,68.72c.01-1.55-.42-3.23-1.66-4.15-.64-.48-1.44-.7-2.24-.77-1.86-.17-3.86.56-4.88,2.12-1.02,1.56-.77,3.93.76,4.99,1.53,1.06,4.1.17,4.38-1.67.11-.72-.16-1.53-.8-1.87-.64-.33-1.6.07-1.65.79.15-1.1,1.69-1.58,2.6-.95.9.64,1.08,1.99.62,2.99-.46,1.01-1.41,1.71-2.41,2.17-1.23.57-2.65.86-3.97.5-2.05-.57-3.43-2.71-3.43-4.84,0-2.12,1.25-4.13,2.96-5.38,1.72-1.25,3.85-1.82,5.97-1.95,1.02-.06,2.05-.03,3.02.28,1.57.51,2.83,1.71,3.79,3.05,2.12,2.95,3.04,6.73,2.52,10.33-.34,2.37-1.33,4.69-3.02,6.41-2.41,2.45-6.16,3.43-9.51,2.65-3.35-.77-6.23-3.2-7.75-6.29.67,1.35,4.96,1.07,6.07.79,4.69-1.18,8.58-3.98,8.62-9.22Z" style="fill: #502103; stroke-width: 0px;"/>
        </g>
        <path d="m318.49,8.4c-33.74,0-61.1,27.35-61.1,61.1s27.36,61.1,61.1,61.1,61.1-27.35,61.1-61.1-27.35-61.1-61.1-61.1Zm0,120.55c-32.83,0-59.45-26.62-59.45-59.45s26.62-59.45,59.45-59.45,59.46,26.62,59.46,59.45-26.62,59.45-59.46,59.45Z" style="fill: #502103; stroke-width: 0px;"/>
        <path d="m371.33,90.34c2.64-6.53,4.1-13.66,4.12-21.13,0-3.37-.28-6.66-.83-9.87.1-.14.07-.35-.08-.43-1.5-8.31-4.88-16.24-9.83-23.08-15.54-21.51-44.93-29.49-69.18-18.69-4.42,1.97-8.58,4.5-12.36,7.52-1.93,1.54-3.76,3.21-5.47,4.99-1.26,1.31-2.79,4.17-4.31,5.03-.05.03-.09.06-.12.1-.03.04-.05.09-.06.13-7.14,9.48-11.39,21.26-11.42,34.04-.03,13.5,4.65,25.91,12.49,35.67-.02.17.13.37.3.38.81,1,1.67,1.97,2.55,2.91.03.07.09.13.16.17.37.39.75.78,1.12,1.16,0,.22.2.44.42.41.08.07.15.15.23.22,0,.19.17.38.36.35.12.11.24.22.35.33-.05.24.19.44.42.4.11.1.22.2.34.3,0,0,0,0,0,.02-.07.28.24.64.51.44.25.23.51.45.77.67.05.07.11.13.2.17.02.02.04.03.06.05-.03.28.23.58.52.43,7.42,6.1,16.42,10.35,26.3,12.06.02,0,.04.01.07.01,3.1.53,6.29.82,9.54.82,15.05.03,28.75-5.79,38.94-15.32.15.04.31,0,.36-.17.02-.07.04-.15.06-.22.26-.25.52-.5.77-.75.12-.03.22-.13.26-.26,5.17-5.19,9.34-11.37,12.21-18.23.02,0,.04-.01.06-.02.2-.07.33-.36.22-.55,0-.02-.02-.03-.03-.05Zm1.23-22.4s-.02,0-.02,0c-.03,0-.05,0-.08,0,.23-.17,0-.5-.25-.46.2-.21.05-.51-.19-.57.17-.08.34-.16.51-.23.02.41.02.83.03,1.25Zm-.06-1.99c-.36.14-.71.27-1.07.4-.1.04-.32.14-.54.23,0,0,.02-.02.02-.02.13-.11.27-.22.41-.32.33-.22.7-.39,1.09-.49.03,0,.06-.02.08-.03,0,.08,0,.15.01.23Zm-.05-.9s-.08,0-.13,0c-.03,0-.06.02-.09.02h0s-.03,0-.05.02c-.09.03-.19.05-.28.09-.45.13-.9.22-1.37.27.2-.16.48-.31.6-.38.35-.22.71-.41,1.09-.59.1-.05.16-.12.18-.2.02.25.04.51.05.77Zm-.07-1.01c-.07-.15-.23-.25-.42-.17-.33.13-.67.22-1.01.29.4-.35.86-.63,1.37-.84.02.24.05.48.07.72Zm-.19-1.84c.02.15.03.29.05.44-.2.06-.39.14-.58.22-.37.12-.74.2-1.13.23.26-.3.59-.54.96-.69.23-.05.47-.12.7-.19,0,0,0,0,0,0Zm-.07-.6s-.07-.01-.11,0c-.38.04-.74.15-1.07.31-.14.02-.28.03-.42.03.33-.21.67-.39,1.03-.53.18-.05.35-.11.52-.18.02.13.03.25.05.38Zm-.13-.96s-.03,0-.04.01h0s0,0-.02,0c-.26.07-.51.15-.76.25-.11.03-.22.05-.34.06.33-.16.68-.26,1.06-.31.03,0,.06-.02.08-.03,0,0,0,0,0,.01Zm-.08-.49s-.01,0-.02,0c-.51,0-1.02-.02-1.53-.08.08-.05.16-.1.24-.15.41-.07.82-.2,1.21-.37.03.2.07.4.1.6Zm-.31-1.79s-.03,0-.05,0c-.67.23-1.3.57-1.92.92-.03-.2-.07-.41-.11-.61.23-.05.47-.1.7-.14.45-.08.91-.15,1.37-.2,0,0,0,.01,0,.02Zm-1.75,20.58c.15.36.33.71.53,1.04.09.25.15.5.19.77-.51-.28-.93-.69-1.22-1.22,0-.02-.02-.03-.03-.04.09-.4.17-.81.25-1.21.03,0,.05,0,.07,0,.22.02.44.03.65.06,0,.02-.01.05-.02.07-.26-.05-.56.23-.43.53Zm-1.16,3.14c.03-.11.06-.23.09-.34.16.28.36.54.58.78.07.17.13.34.19.51.01.04.06.16.1.29-.09-.07-.18-.16-.26-.25-.19-.37-.42-.7-.7-1Zm.35,3.08c0,.06-.02.11-.08.14-.03.02-.07.02-.11.01-.23-.35-.51-.65-.84-.9,0-.03.02-.06.03-.08.31.39.67.74,1.01.83Zm.04-4.61c.03-.11.05-.23.08-.34.09.15.19.3.3.44.07.18.14.37.19.56-.16-.22-.33-.43-.51-.62-.02-.02-.03-.03-.05-.04Zm2.41-22.74c-.51.04-1.02.08-1.52.19-.19.04-.37.08-.56.13-.83-4.06-2.14-7.95-3.86-11.6.55-.47,1.16-.78,1.9-.9,1.81,3.84,3.18,7.93,4.05,12.19Zm-4.98-13.87s.04-.07.05-.1c.2.39.4.78.59,1.17-.32.07-.63.17-.92.29.16-.25.33-.5.49-.76.16-.26-.07-.51-.3-.48.03-.04.05-.08.08-.12Zm-.2-.57c-.11-.04-.23-.04-.34.06-.16.15-.31.3-.47.45.11-.28.23-.55.34-.83.15-.35-.38-.64-.59-.32-.15.23-.32.43-.51.62.22-.53.45-1.07.67-1.6.31.53.6,1.07.89,1.62Zm-4.1-6.55c1.06,1.46,2.06,2.97,2.98,4.53-.07-.01-.15,0-.21.06-.31.28-.62.57-.93.86.19-.41.42-.8.7-1.17.28-.36-.27-.72-.56-.4-.1.11-.21.22-.31.33.12-.21.24-.41.38-.61.28-.4-.32-.82-.61-.44-.2.26-.42.51-.64.75.13-.32.28-.63.46-.93.24-.41-.29-.81-.6-.44-.09.11-.18.2-.28.3.18-.4.36-.8.56-1.19h-.02c.1-.34-.35-.65-.56-.31-.04.07-.08.14-.12.2-.11.2-.23.39-.37.57.08-.21.16-.42.25-.62.15-.34-.36-.51-.53-.2-.07.13-.14.26-.22.38.15-.49.34-.97.6-1.44.04-.08.05-.16.04-.24Zm-.63-.84s0,0,0-.01c.14.18.27.35.41.53-.14-.06-.3-.05-.41.13-.07.1-.13.2-.21.3.08-.31.15-.63.21-.94Zm-.65-.85c.13.16.26.32.38.49-.13-.03-.28,0-.36.12-.12.16-.23.32-.35.48.11-.36.22-.73.34-1.09Zm-.47-.58c-.6.36-1.18.76-1.69,1.24-2.6-3.17-5.56-6.03-8.83-8.51.42-.56.8-1.16,1.12-1.79,3.49,2.63,6.64,5.67,9.4,9.05Zm-.28.89c-.16.5-.33,1-.5,1.5-.18-.23-.37-.47-.55-.7.34-.28.69-.55,1.05-.8Zm-9.99-10.58c-.17.07-.31.18-.44.32,0,0,0-.02.01-.02.17-.34-.4-.65-.6-.32-.09.14-.18.28-.28.41.05-.35.1-.7.16-1.04.01-.08-.02-.15-.08-.2.41.28.81.56,1.22.85Zm-2.41-1.65c.39.25.77.5,1.15.76-.1-.06-.25-.06-.32.06-.11.19-.23.38-.35.57.01-.25.02-.5.03-.76,0-.4-.5-.46-.62-.1.03-.18.06-.36.1-.54Zm-1.81-1.12c.41.24.82.49,1.22.74-.22.35-.37.73-.5,1.12-.03.11-.07.22-.11.34,0-.57,0-1.14-.04-1.72-.02-.34-.51-.29-.57.01,0,0,0,0,0,0,0-.15.01-.3.02-.45,0-.02,0-.03,0-.05Zm-2.24-1.25c.62.33,1.23.67,1.83,1.02-.08.03-.15.1-.16.23-.03.29-.07.58-.1.87-.03.21-.08.41-.13.61-.03.11-.07.21-.11.31.02-.58.08-1.16.17-1.74.03-.2-.29-.28-.35-.08-.1.21-.17.42-.23.63-.11.25-.23.49-.37.73,0-.57.04-1.15.2-1.69.07-.24-.28-.49-.42-.23-.16.29-.33.58-.49.87.05-.42.13-.83.23-1.23.03-.1,0-.21-.07-.28Zm-.62-.23s.02-.05.03-.07c.12.06.24.12.37.19-.08,0-.16.03-.22.13-.2.34-.42.67-.65,1,.08-.43.24-.85.47-1.24Zm-1.2-.68c-.52.52-1.09,1.02-1.7,1.45.28-.62.57-1.23.88-1.84.28.13.55.26.82.39Zm-.78,1.95c-.16-.08-.31-.15-.47-.22.22-.17.45-.34.67-.52-.08.24-.15.48-.2.74h0Zm-13.21-6.42c4.42.77,8.65,2.07,12.63,3.84-.4.6-.71,1.21-.96,1.87-3.7-1.64-7.64-2.86-11.74-3.59-.03-.53,0-1.04.08-1.56.02-.1.04-.21.05-.31.01-.1-.02-.18-.06-.24Zm-1.48,1.53c-.01.06-.02.13-.03.19-.01.06,0,.11.01.16-.11-.02-.22-.03-.33-.05.12-.09.24-.19.36-.3Zm-3.83-2.05s.03-.09.04-.13c.16.01.32.02.48.03-.02.04-.05.09-.07.13-.28.43-.6.82-.95,1.18.13-.42.29-.82.5-1.22Zm-1.4.16c.09-.13.09-.27.05-.38.15,0,.29.01.44.02-.26.29-.51.57-.77.86.08-.17.18-.34.28-.5Zm-1.49-.43c.13,0,.26,0,.39,0,.09,0,.18.02.28.02-.31.42-.64.82-.99,1.19l.34-.91c.04-.11.03-.22-.01-.31Zm-.78-1.75c.06.1.13.19.2.28-.06,0-.12,0-.18,0-.08,0-.16.02-.25.03.08-.1.16-.21.23-.32Zm-.3,1.86s.03-.08.03-.12c.03,0,.05,0,.08,0,.04,0,.07,0,.11,0-.15.26-.31.51-.49.75.08-.21.17-.42.27-.63Zm-1.3-.1c.12,0,.24,0,.36,0-.12.23-.26.45-.41.66.03-.08.07-.17.09-.25.06-.16.03-.29-.04-.4Zm-2.47.11c.57-.04,1.14-.07,1.71-.1-.01.02-.03.03-.05.06-.05.11-.12.22-.18.33-.12-.3-.6-.46-.79-.11-.21.37-.46.7-.73,1,.06-.23.13-.46.19-.69.06-.2-.02-.38-.16-.48Zm-.55.04s-.03.02-.04.04c-.25.33-.5.65-.74.98.03-.12.07-.23.11-.35.1-.28-.07-.5-.28-.58.32-.03.63-.07.95-.09Zm-1.68.45c.05-.1.05-.2,0-.29.1-.01.21-.02.31-.03-.07.05-.13.11-.17.21-.13.37-.3.73-.49,1.06.06-.33.17-.64.34-.96Zm-.81-.19c-.43.69-.84,1.4-1.24,2.11-.02-.17-.05-.33-.07-.5-.05-.45-.09-.9-.14-1.34,0-.02-.02-.05-.02-.07.49-.08.98-.14,1.48-.2Zm-2.07.3c-.02.46,0,.91.03,1.37.02.23.03.45.06.68,0,.02,0,.04,0,.06-4.24.72-8.3,1.96-12.12,3.65-.11-.2-.21-.41-.31-.62-.11-.23-.22-.47-.33-.7-.09-.19-.17-.39-.3-.56,4.08-1.81,8.43-3.13,12.97-3.88Zm-13.37,6.06c.02-.27.07-.53.11-.79.03.08.05.15.09.23.1.21.2.42.32.63-.18.08-.36.17-.53.26,0-.11,0-.22.01-.33Zm-2.63-.71c-.1.5-.24.98-.44,1.45.01-.06.02-.11.03-.17.02-.07.04-.15.06-.23.03-.12.06-.23.09-.35h0s.02-.06.02-.08c.04-.19-.1-.32-.26-.36.16-.09.33-.17.5-.26Zm-.9.48c-.1.4-.24.78-.4,1.16.01-.24.03-.47.05-.71,0-.09-.02-.16-.06-.23.13-.08.27-.15.41-.22Zm-2.3,1.32c.38-.23.76-.46,1.15-.68-.03.24-.08.48-.13.72-.12-.34-.77-.35-.8.11-.07.32-.13.64-.16.96-.05.21-.11.42-.18.62.03-.5.11-1,.19-1.5.02-.1-.01-.17-.05-.23Zm-.68.43s-.02.09-.03.13c-.07.32-.15.64-.24.96.01-.12.02-.24.03-.37.02-.22-.11-.35-.26-.41.16-.11.34-.21.5-.32Zm-1.05.68c-.03.15-.06.3-.08.45-.05.24-.09.49-.15.73,0-.21,0-.43,0-.64,0-.13-.05-.23-.13-.3.12-.08.24-.16.36-.24Zm-1.01.68c-.03.37-.06.75-.09,1.12,0-.21,0-.43-.02-.64,0-.14-.08-.23-.17-.28.09-.07.18-.13.28-.2Zm-.93.66c-.04.47-.07.95-.02,1.41-.01.08-.02.16-.03.25-.18-.36-.25-.75-.21-1.16.01-.11-.02-.19-.07-.24.11-.08.23-.17.34-.25Zm-.93.7c-.03.28-.02.56.04.83-.03-.03-.07-.06-.1-.09h0s0,0-.08-.07c-.02-.02-.04-.04-.06-.05-.1-.08-.19-.17-.28-.25.16-.12.32-.24.48-.36Zm-1.03.79s.02.03.03.05c.08.12.17.23.26.35.19.25.41.47.64.69.16.15.33.31.52.45-3.24,2.57-6.15,5.53-8.69,8.79-.04-.02-.09-.04-.13-.07-.02,0-.06-.03-.06-.03-.03-.01-.05-.03-.07-.04-.07-.04-.14-.08-.21-.12-.26-.16-.51-.33-.77-.49-.13-.08-.25-.17-.38-.25,0,0-.01,0-.02-.01-.02-.07-.06-.12-.11-.16,2.63-3.4,5.65-6.48,9-9.16Zm-9.58,9.93s.08.1.12.14c0,.24,0,.47,0,.71-.01-.09-.03-.17-.06-.24-.06-.13-.21-.11-.27-.02h0c-.08.11-.11.25-.12.39-.08.06-.17.11-.2.12-.05.02-.02.08.03.07.06-.02.11-.05.16-.08,0,.08,0,.16,0,.23,0,.27.02.53.09.8.11.43.27.84.5,1.21-.22.33-.44.65-.65.98.11-.55.14-1.1.03-1.66-.05-.26-.49-.29-.49,0,0,.34-.03.67-.09,1-.02-.03-.04-.06-.05-.09-.08-.48-.17-.95-.3-1.43-.02-.06-.05-.1-.09-.14.46-.67.92-1.34,1.41-1.99Zm-1.94,2.79c.03.24.08.48.14.71,0,.06.01.11.02.17-.12-.24-.52-.16-.56.12,0,0,0,0-.01,0-.02.22-.02.45,0,.66,0,.02,0,.03,0,.05-.02-.06-.04-.13-.07-.19-.06-.17-.23-.21-.37-.16.28-.46.57-.92.86-1.37Zm-1.06,1.71c.18.72.3,1.48.31,2.24-.2-.46-.34-.93-.46-1.41-.01-.14-.09-.22-.19-.25.11-.19.23-.38.34-.58Zm-.77,1.33c.03.22.07.43.13.64.03.3.05.61.07.91,0,.1,0,.2.01.3-.08-.32-.18-.64-.28-.96-.05-.16-.18-.23-.3-.23.12-.22.24-.45.37-.67Zm-.76,1.41c.03.35.1.71.21,1.05-.06-.1-.12-.21-.19-.32h0s0,0,0,0c-.01-.03-.03-.05-.04-.07-.07-.11-.16-.14-.25-.12.09-.18.18-.36.28-.54Zm-.54,1.05c.16.36.33.71.5,1.06.08.22.15.43.2.66-.33-.33-.63-.69-.86-1.1-.03-.04-.06-.07-.1-.09.08-.18.18-.36.26-.53Zm-.45.94c.14.35.31.69.52.99-.29-.11-.6-.18-.92-.14.13-.28.26-.56.39-.85Zm-.67,1.46s.07.03.11.03c.47.04.91.26,1.32.5.17.1.34.2.51.29-1.56,3.58-2.73,7.37-3.45,11.32-.16-.02-.32-.03-.48-.05-.5-.04-1.01-.1-1.51-.11-.04,0-.08,0-.12.02.75-4.19,1.97-8.21,3.63-12Zm-4.01,19.01c.09-.18.25-.36.33-.48.18-.25.37-.5.57-.73.3-.34.61-.7.95-1.01-.03.31-.04.63-.07.95-.58.46-1.18.87-1.79,1.27Zm1.73-.45c0,.09,0,.18-.01.27-.32.25-.65.48-.98.71.08-.09.16-.17.25-.25.24-.25.5-.49.75-.73Zm-.69-2.07c.29-.28.6-.55.93-.8,0,.1-.02.21-.03.31,0,0-.01,0-.02,0-.3.12-.6.3-.88.48Zm.21-1.37c.3-.31.6-.61.91-.91-.03.18-.06.36-.08.55-.28.12-.55.24-.83.37Zm-.27-1.03c.36-.37.77-.7,1.25-.97.04-.02.07-.05.1-.09-.02.14-.04.27-.06.41-.44.2-.87.42-1.29.65Zm-.73-1.37s.1.05.15.06c.24.04.48.07.72.09-.35.18-.67.41-.92.74-.07.09.02.22.12.21-.1.1-.19.21-.28.32.06-.47.13-.95.21-1.42Zm-.36,2.67s.05-.02.06-.04c.31-.26.66-.49,1.01-.7-.36.34-.73.67-1.1.99,0-.09.02-.17.03-.26Zm-.13,1.19s.05,0,.07-.02c.16-.07.32-.15.48-.22-.21.22-.4.45-.59.68.01-.15.02-.3.04-.45Zm-.1,1.46s.03,0,.05-.02c.32-.19.64-.38.96-.57-.14.16-.28.32-.41.48-.2.24-.47.51-.64.82.01-.24.03-.47.05-.71Zm-.12,3.6s.09.01.14.01c.47-.03.94-.07,1.42-.1.18-.01.36-.02.54-.04,0,3.73.4,7.36,1.15,10.87-.23.08-.46.17-.7.24-.22.07-.44.15-.65.25-.23.02-.45.04-.68.08-.79-3.65-1.21-7.43-1.22-11.31Zm4.68,19.12c.25-.28.52-.53.81-.76.03.07.05.14.08.2-.29.19-.59.38-.89.56Zm1.14.06c.05.11.09.22.13.34-.33.18-.67.37-.99.57.17-.18.36-.36.43-.43l.43-.47Zm-1.25-.98c.2-.22.41-.42.64-.61.03.08.07.17.09.25-.24.12-.49.24-.73.36Zm-.37-.99c.19-.24.4-.47.63-.69.04.1.07.21.11.31-.25.12-.5.24-.74.38Zm-.71-.42c.31-.42.66-.8,1.05-1.14,0,0,0,0,0,0,.05.17.11.33.16.5-.37.25-.79.46-1.22.64Zm.13-1.35c.21-.23.44-.45.67-.66.02.08.05.17.07.25-.24.15-.48.29-.74.41Zm-1.08-1c.31-.36.68-.69,1.08-.91.09-.04.18-.08.28-.13.03.13.07.26.11.39-.49.21-.98.43-1.46.65Zm1.25-1.29c-.4.12-.81.2-1.22.25.35-.31.72-.61,1.1-.87.05.21.11.41.16.62-.01,0-.02,0-.03,0Zm-2.44-1.27c.14-.01.28-.03.43-.04.2,0,.41,0,.61-.02-.06.04-.12.09-.18.14-.29.13-.55.28-.73.45-.04-.18-.08-.36-.13-.54Zm.68,2.66c-.05-.16-.09-.32-.13-.47.28-.05.56-.11.83-.19-.03.02-.07.04-.1.07-.21.18-.41.38-.6.59Zm.29.99s.1.04.15.03c.09-.02.17-.04.26-.07-.1.12-.21.25-.31.38-.04-.11-.07-.23-.1-.34Zm.43,1.35c-.05-.13-.09-.27-.13-.4.01,0,.03,0,.04,0,.15-.03.31-.08.46-.12-.13.17-.25.34-.37.53Zm.57,1.64s.07-.02.1-.04c.11-.08.23-.16.34-.23-.13.18-.23.37-.33.57-.04-.1-.07-.2-.11-.29Zm.3.8c.06.01.12,0,.18-.03.1-.05.19-.11.28-.16-.12.15-.24.31-.35.47-.04-.1-.08-.19-.11-.29Zm.48,1.2c-.06-.14-.11-.28-.17-.42.23-.11.45-.22.67-.34-.02.02-.05.05-.07.07-.2.21-.4.43-.43.69Zm.47,1.1s.04,0,.06,0c.11-.04.22-.08.33-.13.01.07.04.12.08.17-.01,0-.02.02-.03.02-.09.07-.21.15-.3.24-.05-.1-.09-.2-.13-.3Zm.37.84c.13-.04.26-.11.37-.18.23-.12.45-.26.68-.37.23-.11.46-.21.68-.32.05-.02.09-.04.14-.06,1.72,3.75,3.89,7.25,6.41,10.45-.5.5-.98,1.01-1.46,1.53-2.7-3.38-5-7.08-6.83-11.05Zm1.02-1.34c.16-.15.32-.3.48-.45.03.07.06.14.09.21-.03.01-.06.02-.09.03-.16.06-.32.13-.48.21Zm7.65,11.34c.11.14.22.27.33.4-.36.18-.74.34-1.13.47.27-.29.54-.58.8-.87Zm-.98,1.94s-.04.06-.05.09c-.1-.11-.19-.23-.29-.34.29-.1.57-.21.83-.33-.17.19-.34.39-.5.59Zm1.2,1.5s0,.02,0,.03c-.13-.15-.27-.29-.4-.44.24-.11.47-.23.7-.35-.12.24-.22.5-.3.76Zm.5-1.64c.13-.15.27-.3.42-.44.04.04.08.08.11.13-.18.11-.36.21-.53.32Zm.28,1.07c.18-.33.42-.62.7-.87.06.07.13.14.19.21-.29.23-.59.46-.89.67Zm.49,1.98c-.07-.07-.13-.14-.2-.21.13-.07.25-.13.36-.21-.05.14-.11.28-.16.42Zm.02-1.15c.2-.38.47-.73.79-1.03.07.07.13.13.2.2-.3.3-.63.58-.99.83Zm.93.5c.15-.3.31-.59.51-.85.07.07.14.14.21.21-.22.24-.46.45-.72.64Zm1,1.46c.09-.19.19-.37.3-.54.15-.17.29-.36.42-.56.09.09.19.18.28.27-.05,0-.11.03-.16.08-.26.27-.54.52-.83.75Zm.73.73c.18-.35.37-.69.58-1.03.03-.06.05-.12.04-.19.14.13.29.26.42.39-.13-.06-.28-.06-.39.1-.19.28-.41.53-.66.73Zm1.19-.35c.08-.12.07-.24,0-.34.1.1.21.19.31.28-.23.23-.47.46-.71.69.12-.21.24-.43.39-.63Zm.29,1.02c.13-.24.27-.47.45-.69.05.04.1.09.15.13-.2.19-.4.37-.6.56Zm.85,2.38c.57-.43,1.1-.91,1.56-1.44,3.33,2.65,6.99,4.9,10.92,6.68-.34.61-.63,1.26-.84,1.93-4.19-1.89-8.1-4.31-11.64-7.16Zm13.14,5.72c-.29.37-.56.74-.84,1.11.17-.48.36-.96.59-1.41.16.07.33.14.49.21-.09,0-.18.02-.24.1Zm.83,2.43c-.18-.07-.36-.14-.53-.21.22.08.42.03.59-.1-.03.11-.05.21-.06.31Zm-.16-1.18c.06-.31.19-.72.26-.94,0,0,0,0,0-.01h0s.02-.07.02-.09c.18.07.36.14.53.21-.18.17-.36.34-.53.51-.04.03-.16.18-.28.32Zm1.29.24c-.13.24-.3.76-.51.92-.17.13-.09.02-.11-.13-.01-.17.05-.42.08-.58.05-.25.1-.52.18-.77.06-.15.11-.29.15-.4.2.08.4.16.6.23-.13.24-.26.48-.39.73Zm.82,1.67c-.13-.05-.25-.09-.38-.13.14-.18.28-.36.41-.55-.02.19-.04.38-.05.58,0,.04,0,.07.02.1Zm-.28-1.19c.07-.35.17-.7.31-1.03.08.03.17.06.25.09-.18.32-.37.64-.57.94Zm1.17,1.5c-.17-.06-.33-.11-.5-.17.02-.02.05-.04.07-.06.2-.22.37-.46.54-.72-.06.31-.1.63-.11.95Zm-.32-1.03c.06-.41.15-.81.29-1.2.16.06.33.12.49.17-.02.04-.04.08-.05.12-.2.34-.44.63-.73.91Zm1.33-.34c-.16.35-.35.68-.58,1,.03-.54.13-1.08.3-1.59.15.05.29.09.44.14-.06.15-.12.3-.16.46Zm.34.85c.06-.4.15-.78.28-1.16.1.03.19.06.28.09-.14.38-.33.74-.56,1.08Zm.96,1.23s.02-.02.02-.03c.1-.14.19-.27.26-.42.03.19.07.38.13.56-.14-.04-.28-.08-.41-.12Zm.35-1.49c-.16.27-.35.53-.54.77,0-.35.15-.98.27-1.45.16.05.32.09.48.14-.09.17-.16.35-.21.53Zm.56-.43c.2.06.41.11.61.16-.23.45-.5.87-.77,1.29-.08-.49,0-.97.16-1.45Zm-.04,2.16c.15-.22.28-.45.41-.69-.02.24.01.49.23.61.2.11.39.05.54-.08-.02.16-.03.32.02.47-.41-.1-.81-.2-1.21-.31Zm1.41-1.43c-.09.14-.19.28-.28.42-.06.1-.15.35-.21.41,0,.09,0,.08,0-.03,0-.06,0-.12.02-.18.02-.16.04-.32.06-.48.02-.2.05-.41.07-.61.19.05.37.1.56.14-.07.11-.15.22-.22.33Zm.78.59c-.12.17-.23.35-.35.53,0,0-.02.03-.03.05.07-.21.09-.46.14-.68.05-.23.12-.46.19-.69.19.04.38.09.57.13-.16.23-.36.43-.52.66Zm1.67-.29c-.11.24-.26.46-.41.67.01-.07.02-.15.04-.22.07-.2.12-.41.16-.63.09.02.18.03.27.05-.02.04-.03.08-.05.13Zm.41,1.01s-.04.05-.06.08c.06-.26.14-.52.23-.77.05-.1.09-.22.13-.33.01,0,.02,0,.03,0-.09.34-.2.68-.33,1.01Zm9.42,1.92c-3.01,0-5.97-.26-8.84-.75.01-.11.03-.21.04-.32.03-.25.06-.5.09-.74.14-.31.2-.65.17-1.02,2.78.47,5.64.73,8.55.73,3.68,0,7.27-.37,10.73-1.09,0,.02,0,.03,0,.05.02.25.05.49.1.74.05.25.11.49.19.73.05.17.11.36.18.52-3.62.75-7.37,1.15-11.21,1.14Zm11.77-1.61c-.03-.08-.06-.17-.08-.25-.06-.21-.11-.42-.15-.64-.04-.22-.06-.44-.08-.66,0-.05,0-.11,0-.17.16-.03.32-.08.48-.11-.15.61-.2,1.22-.16,1.84Zm.71-.7s-.02.09-.03.13c-.06-.43-.09-.86-.1-1.3,0-.02,0-.05-.01-.07.07-.02.14-.03.22-.05-.09.42-.12.86-.07,1.29Zm1.2-1.29c-.02.14-.04.28-.07.42-.08.39-.1.89-.25,1.26-.04.09-.08.17-.15.23-.01-.03-.02-.06-.04-.1-.08-.09-.11-.31-.13-.49.11-.47.14-.96.08-1.46,0,0,0,0,0,0,.19-.05.39-.1.59-.15-.01.1-.02.2-.03.29Zm.57-.44c.18-.05.35-.1.53-.15-.08.56-.24,1.08-.45,1.6-.09-.47-.11-.96-.08-1.44Zm.44,2.06c.06-.16.12-.33.17-.5.05.16.13.29.24.38-.14.04-.27.08-.41.12Zm1.19-1.86c-.05.35-.06.74-.18,1.07-.06.16-.17.34-.32.19-.1-.1-.09-.35-.1-.47-.05-.41-.07-.83-.07-1.24,0,0,0-.01,0-.02.27-.08.54-.17.81-.26-.04.24-.09.49-.13.73Zm.21,1.44c.07-.14.12-.28.16-.42,0-.04.02-.09.03-.13.13.22.32.35.62.27.34-.09.46-.47.52-.81.07.15.15.3.24.45.03.05.08.07.12.08-.56.2-1.12.38-1.69.55Zm.46-2.35c.19-.06.37-.13.56-.19-.06.44-.14.87-.26,1.3-.01.03-.07.31-.12.3-.05-.01-.09-.41-.1-.45-.05-.32-.08-.63-.08-.95Zm1.01.29c.01-.21.02-.43.02-.65.2-.07.4-.15.6-.22-.07.53-.21,1.05-.38,1.56-.11-.22-.19-.45-.24-.69Zm.47,1.42s.04-.04.05-.07c.1-.21.18-.43.25-.65.05.16.1.33.16.49.01.02.02.04.03.05-.16.06-.33.12-.5.18Zm1.02-2.6c-.06.25-.14.5-.2.74-.03.11-.06.21-.08.32-.04-.31-.06-.63-.06-.94.11-.04.23-.09.34-.14,0,0,0,.01,0,.02Zm.65.42c-.03.16-.07.33-.12.49-.02-.38,0-.77.02-1.15.04-.02.08-.03.13-.05-.03.24-.03.47-.03.71Zm.66.62c-.05-.42-.08-.84-.1-1.27,0-.09,0-.19-.01-.28.15-.06.29-.12.44-.19-.06.41-.19,1.26-.32,1.74Zm.99.26s.04-.07.05-.11c.03-.12.06-.24.09-.36.04.11.08.24.14.36-.09.04-.19.08-.28.12Zm.93-.41c-.04-.12-.09-.24-.13-.33-.1-.25-.19-.5-.28-.75-.1-.3-.22-.59-.33-.89,3.84-1.75,7.43-3.95,10.71-6.54,0,0,0,.01.01.02.16.21.32.41.47.62.15.2.31.4.46.6.08.1.16.21.23.31.03.04.07.09.1.13-3.44,2.72-7.21,5.02-11.25,6.84Zm11.74-7.24s-.05-.07-.08-.11c-.08-.1-.16-.2-.24-.3-.16-.2-.32-.4-.48-.61l-.47-.59s-.02-.02-.03-.03c.18-.15.36-.3.53-.44.03.22.08.42.17.62.13.44.29.87.49,1.27.05.1.14.12.22.11-.04.03-.07.06-.11.09Zm-.02-2.45c0-.08-.04-.14-.08-.19.05-.04.1-.09.15-.13.05.38.15.74.32,1.07,0,.06,0,.12,0,.18-.21-.26-.35-.58-.38-.93Zm1.08-.03c-.08-.23-.18-.46-.31-.67-.03-.06-.08-.1-.13-.13.16-.14.32-.28.47-.43,0,.41,0,.83-.04,1.24Zm.63,1.05c.02-.24.04-.48.05-.73.09.15.18.29.28.43-.11.1-.22.2-.33.3Zm.55-1.83c0,.25-.02.49-.05.73-.3-.51-.5-1.07-.58-1.66.14-.13.28-.26.42-.39.02.35.09.69.21,1.01,0,.11,0,.21,0,.31Zm.95.26c-.18-.21-.32-.43-.43-.67-.02-.15-.04-.31-.07-.46-.06-.29-.19-.56-.26-.84.28-.27.55-.55.82-.83-.03.39.01.76.11,1.13,0,.56-.07,1.12-.17,1.68Zm.96-1.45c-.09-.17-.16-.36-.21-.54-.01-.33-.04-.67-.08-1.01-.02-.13-.1-.2-.2-.23.18-.19.36-.37.53-.57.01.09.01.18.02.28,0,.07,0,.14.01.21.03.62,0,1.25-.08,1.86Zm.96-1.07c-.1-.28-.19-.56-.24-.86-.02-.2-.04-.4-.07-.6-.02-.13-.12-.21-.24-.24.16-.18.33-.36.49-.54,0,.01,0,.02,0,.04,0,.45.07.88.23,1.27,0,.31-.06.62-.16.92Zm.85-1.21s-.01-.02-.02-.03c-.03-.35-.11-.71-.23-1.05-.07-.19-.29-.23-.45-.18.2-.23.4-.46.59-.69.02.37.07.73.17,1.08,0,.29-.02.58-.06.87Zm-3.84,1.18c-.04.12-.13.21-.24.24-.23.23-.46.45-.69.67-.02.07-.03.13-.05.2-.05.16-.19.19-.32.15-9.12,8.53-21.39,13.74-34.86,13.71-2.91,0-5.77-.26-8.54-.74-.02,0-.04,0-.06,0-8.84-1.53-16.89-5.33-23.54-10.79-.26.13-.5-.14-.47-.39-.02-.02-.04-.03-.06-.05-.07-.03-.14-.08-.18-.15-.23-.2-.46-.4-.69-.6-.24.18-.52-.14-.46-.39,0,0,0,0,0-.01-.1-.09-.2-.18-.3-.27-.21.04-.42-.14-.38-.35-.1-.1-.21-.19-.31-.29-.17.02-.33-.15-.33-.32-.07-.07-.14-.13-.2-.2-.2.03-.37-.17-.37-.37-.34-.34-.68-.69-1.01-1.04-.06-.03-.11-.09-.14-.15-.79-.84-1.55-1.71-2.28-2.6-.16,0-.29-.18-.27-.34-7.02-8.74-11.21-19.85-11.18-31.93.03-11.44,3.83-21.99,10.23-30.47,0-.04.03-.08.05-.12.03-.04.07-.07.11-.09,1.37-.77,2.73-3.33,3.86-4.5,1.53-1.59,3.17-3.08,4.9-4.46,3.38-2.7,7.11-4.97,11.06-6.73,21.7-9.66,48.01-2.52,61.92,16.73,4.42,6.13,7.46,13.23,8.8,20.66.13.08.16.26.07.39.5,2.87.75,5.82.75,8.83-.02,6.69-1.33,13.07-3.69,18.92,0,.01.02.03.03.04.1.17-.02.43-.2.49-.02,0-.03.01-.06.02-2.56,6.14-6.3,11.68-10.93,16.32Zm12.61-18.45c.22.3.43.6.65.89.08.11.18.21.24.33-.27-.24-.56-.46-.89-.64-.06-.03-.13-.04-.2-.04.07-.18.13-.36.2-.54Zm-1.03,2.92c.35.14.67.32.94.55-.43-.01-.85-.07-1.27-.17.07-.15.13-.31.2-.46.03.03.07.06.12.08Zm-5.38,12.69c-.08-.08-.19-.11-.33-.04-.03-.04-.05-.08-.07-.12,0-.12-.01-.24-.03-.37-.03-.28-.36-.36-.56-.25-.04-.23-.09-.46-.15-.69.13.15.28.28.42.41.15.15.31.3.46.45.13.13.27.29.42.41-.05.07-.11.13-.16.2Zm.59-.75s-.02-.01-.02-.02c-.04-.04-.08-.07-.12-.11-.08-.07-.15-.14-.23-.21-.16-.15-.33-.29-.49-.44-.16-.14-.31-.3-.48-.42-.08-.06-.17-.12-.25-.17,2.19-2.87,4.09-5.99,5.65-9.29.18.12.36.24.55.35.22.13.44.26.66.39.19.12.39.25.6.35-1.63,3.4-3.6,6.61-5.87,9.57Zm6.2-10.29c-.17-.1-.35-.2-.52-.29-.11-.07-.23-.13-.35-.2.34.07.68.1,1.05.09-.06.13-.11.27-.18.4Zm-1.13-2.38s-.07-.02-.1-.02c.15-.35.29-.71.43-1.07.21.3.61.69,1.02.88.11.13.22.26.32.4-.56.09-1.13.03-1.67-.2Zm2.08-1.91c-.16-.03-.37-.2-.5-.29-.23-.16-.43-.34-.63-.53.08-.23.16-.47.24-.7.19.21.42.38.68.48,0,0,.01,0,.02,0,.11.23.2.47.24.73.02.09.03.17.03.26.03.13.01.14-.08.03Zm.39,1.1c-.03-.15-.12-.3-.23-.44.22,0,.4-.1.5-.39.13-.35.03-.81-.12-1.19.2-.03.39-.13.49-.34.09-.19.08-.41.02-.63,0,0,.02-.01.02-.02.09-.13.12-.29.12-.46.14.04.27.03.4-.02-.36,1.18-.76,2.35-1.21,3.5Zm1.58-4.77c-.02-.07-.04-.14-.06-.21.05-.07.07-.15.07-.25-.02-.45-.12-.87-.26-1.28.18.11.36.22.55.3.02.01.05.02.08.02-.12.48-.25.95-.38,1.42Zm-.17-5.51c-.24-.02-.48-.02-.72-.02.51-2.9.79-5.87.79-8.92v-.02h.06c.24,0,.47,0,.71,0,.45-.01.89-.04,1.33-.1,0,.04,0,.09,0,.13,0,3.13-.29,6.18-.8,9.16-.44-.13-.92-.2-1.37-.23Z" style="fill: #502103; stroke-width: 0px;"/>
        <polygon points="290.66 107.17 296.2 92.69 281.09 98.7 293.33 95.57 290.66 107.17" style="fill: #522101; stroke-width: 0px;"/>
        <polygon points="278.99 95.81 288.82 84.59 274.71 85.34 284.78 86.17 278.99 95.81" style="fill: #522101; stroke-width: 0px;"/>
        <polygon points="272.3 82.13 282.66 76.14 280.72 75.55 272.3 82.13" style="fill: #522101; stroke-width: 0px;"/>
        <polygon points="271.19 58.12 281.56 63.87 277.79 65.11 271.19 58.12" style="fill: #522101; stroke-width: 0px;"/>
        <polygon points="274.71 55.44 289.04 55.89 278.79 44.42 284.78 53.81 274.71 55.44" style="fill: #522101; stroke-width: 0px;"/>
        <polygon points="281.72 41.72 295.75 47.08 290.57 33.78 292.43 43.16 281.72 41.72" style="fill: #522101; stroke-width: 0px;"/>
        <polygon points="293.49 30.29 304.23 40.05 303.3 26.63 302.19 35.67 293.49 30.29" style="fill: #522101; stroke-width: 0px;"/>
        <polygon points="306.11 22.95 312.46 33.66 313.35 30.63 306.11 22.95" style="fill: #522101; stroke-width: 0px;"/>
        <path d="m330.6,21.87c-.18.33-5.31,9.56-5.31,9.56l-.8-2.78,6.11-6.78Z" style="fill: #522101; stroke-width: 0px;"/>
        <polygon points="333.2 23.18 332.61 40.05 344.56 29.36 334.33 35.43 333.2 23.18" style="fill: #522101; stroke-width: 0px;"/>
        <polygon points="346.57 33.39 341.32 46.87 355.42 41.26 344.1 44.08 346.57 33.39" style="fill: #522101; stroke-width: 0px;"/>
        <polygon points="358.16 44.26 348.81 55.01 361.98 54.22 352.63 53.15 358.16 44.26" style="fill: #522101; stroke-width: 0px;"/>
        <polygon points="365.25 57.27 355.39 63.32 357.36 65.11 365.25 57.27" style="fill: #522101; stroke-width: 0px;"/>
        <path d="m331.24,116.09l-5.21-8.64s-2.1,2.93-1.38,2.95c.72.02,6.59,5.69,6.59,5.69Z" style="fill: #522101; stroke-width: 0px;"/>
        <path d="m294.03,109.04l11.02-9.6s-.53,14.23-.53,14.1c0-.13-.6-10.79-.6-10.79l-9.89,6.28Z" style="fill: #522101; stroke-width: 0px;"/>
        <polygon points="307.83 116.2 312.45 107.89 313.07 110.55 307.83 116.2" style="fill: #522101; stroke-width: 0px;"/>
        <polygon points="333.4 99.86 334.58 114.98 335.9 104.52 344.24 109.04 333.4 99.86" style="fill: #502103; stroke-width: 0px;"/>
        <polygon points="347.5 106.83 341.86 92.42 354.77 97.52 346.03 96.07 347.5 106.83" style="fill: #502103; stroke-width: 0px;"/>
        <polygon points="357.58 93.68 348.85 83.69 364.75 84.12 354.14 85.84 357.58 93.68" style="fill: #502103; stroke-width: 0px;"/>
        <polygon points="366.04 81.41 356.8 76.04 359.85 75.99 366.04 81.41" style="fill: #502103; stroke-width: 0px;"/>
      </g>
      <g id="teaching_methods" data-name="teaching methods">
        <g>
          <g>
            <ellipse cx="136.2" cy="233.99" rx="136.2" ry="78.64" style="fill: #adcd77; stroke-width: 0px;"/>
            <ellipse cx="136.2" cy="225.23" rx="136.2" ry="78.64" style="fill: #dbf9ac; stroke-width: 0px;"/>
          </g>
          <g>
            <g>
              <g>
                <g>
                  <g style="isolation: isolate;">
                    <polygon points="158.76 172.98 158.75 174.92 93.14 212.92 93.15 210.97 158.76 172.98" style="fill: #eb3c3c; stroke-width: 0px;"/>
                    <polygon points="93.15 210.97 93.14 212.92 48.48 187.13 48.49 185.19 93.15 210.97" style="fill: #eb3c3c; stroke-width: 0px;"/>
                    <polygon points="158.76 172.98 93.15 210.97 48.49 185.19 114.1 141.08 158.76 172.98" style="fill: #b83c2c; stroke-width: 0px;"/>
                  </g>
                  <polygon points="53.53 171.44 49.08 169.32 49.08 184.63 53.53 187.83 53.53 171.44" style="fill: #b83c2c; stroke-width: 0px;"/>
                  <g style="isolation: isolate;">
                    <polygon points="154.79 159.88 154.76 173.64 93.13 209.34 93.15 195.57 154.79 159.88" style="fill: #b6cfe6; stroke-width: 0px;"/>
                    <polygon points="52.01 171.85 52.01 185.62 93.13 209.34 93.15 195.57 52.01 171.85" style="fill: #f5f5f5; stroke-width: 0px;"/>
                    <polygon points="113.33 135.94 54.25 170.15 54.25 173.11 93.15 195.57 154.79 159.88 113.33 135.94" style="fill: #eee; stroke-width: 0px;"/>
                  </g>
                  <g style="isolation: isolate;">
                    <polygon points="158.76 155.64 158.75 157.58 93.14 195.59 93.15 193.63 158.76 155.64" style="fill: #eb3c3c; stroke-width: 0px;"/>
                    <polygon points="93.15 193.63 93.14 195.59 48.48 169.8 48.49 167.86 93.15 193.63" style="fill: #eb3c3c; stroke-width: 0px;"/>
                    <polygon points="158.76 155.64 93.15 193.63 48.49 167.86 114.1 129.86 158.76 155.64" style="fill: #ff6958; stroke-width: 0px;"/>
                  </g>
                  <polygon points="50.54 187.42 48.48 186.37 48.48 168.64 50.54 169.9 50.54 187.42" style="fill: #eb3c3c; stroke-width: 0px;"/>
                </g>
                <g>
                  <g style="isolation: isolate;">
                    <polygon points="146.68 153.46 146.67 154.95 96.14 184.22 96.15 182.72 146.68 153.46" style="fill: #f39441; stroke-width: 0px;"/>
                    <polygon points="96.15 182.72 96.14 184.22 61.75 164.36 61.76 162.87 96.15 182.72" style="fill: #f39441; stroke-width: 0px;"/>
                    <polygon points="146.68 153.46 96.15 182.72 61.76 162.87 112.29 133.6 146.68 153.46" style="fill: #c67718; stroke-width: 0px;"/>
                  </g>
                  <polygon points="65.64 156.98 62.21 155.34 62.21 162.42 65.64 164.9 65.64 156.98" style="fill: #c67718; stroke-width: 0px;"/>
                  <g style="isolation: isolate;">
                    <polygon points="143.61 148.08 143.6 153.97 96.14 181.46 96.14 175.56 143.61 148.08" style="fill: #b6cfe6; stroke-width: 0px;"/>
                    <polygon points="64.47 157.29 64.47 163.19 96.14 181.46 96.14 175.56 64.47 157.29" style="fill: #f5f5f5; stroke-width: 0px;"/>
                    <polygon points="111.69 129.65 66.2 155.99 66.2 158.27 96.14 175.56 143.61 148.08 111.69 129.65" style="fill: #eee; stroke-width: 0px;"/>
                  </g>
                  <g style="isolation: isolate;">
                    <polygon points="146.68 144.81 146.67 146.31 96.14 175.57 96.15 174.08 146.68 144.81" style="fill: #f39441; stroke-width: 0px;"/>
                    <polygon points="96.15 174.08 96.14 175.57 61.75 155.71 61.76 154.22 96.15 174.08" style="fill: #f39441; stroke-width: 0px;"/>
                    <polygon points="146.68 144.81 96.15 174.08 61.76 154.22 112.29 124.96 146.68 144.81" style="fill: #fdb63a; stroke-width: 0px;"/>
                  </g>
                  <polygon points="63.33 164.58 61.75 163.77 61.75 154.83 63.33 155.79 63.33 164.58" style="fill: #f39441; stroke-width: 0px;"/>
                </g>
                <g>
                  <g style="isolation: isolate;">
                    <polygon points="142.04 140.41 142.02 141.71 98.23 167.08 98.23 165.78 142.04 140.41" style="fill: #90be48; stroke-width: 0px;"/>
                    <polygon points="98.23 165.78 98.23 167.08 68.4 149.87 68.41 148.57 98.23 165.78" style="fill: #9ace4c; stroke-width: 0px;"/>
                    <polygon points="142.04 140.41 98.23 165.78 68.41 148.57 112.22 119.95 142.04 140.41" style="fill: #86b141; stroke-width: 0px;"/>
                  </g>
                  <polygon points="71.78 140.22 68.81 138.8 68.81 148.19 71.78 150.33 71.78 140.22" style="fill: #86b141; stroke-width: 0px;"/>
                  <g style="isolation: isolate;">
                    <polygon points="139.37 132.5 139.36 140.86 98.21 164.69 98.23 156.33 139.37 132.5" style="fill: #b6cfe6; stroke-width: 0px;"/>
                    <polygon points="70.76 140.49 70.76 148.86 98.21 164.69 98.23 156.33 70.76 140.49" style="fill: #f5f5f5; stroke-width: 0px;"/>
                    <polygon points="111.7 116.52 72.25 139.36 72.25 141.33 98.23 156.33 139.37 132.5 111.7 116.52" style="fill: #eee; stroke-width: 0px;"/>
                  </g>
                  <g style="isolation: isolate;">
                    <polygon points="142.04 129.68 142.02 130.97 98.23 156.34 98.23 155.04 142.04 129.68" style="fill: #90be48; stroke-width: 0px;"/>
                    <polygon points="98.23 155.04 98.23 156.34 68.4 139.13 68.41 137.83 98.23 155.04" style="fill: #9ace4c; stroke-width: 0px;"/>
                    <polygon points="142.04 129.68 98.23 155.04 68.41 137.83 112.22 112.46 142.04 129.68" style="fill: #d3e62d; stroke-width: 0px;"/>
                    <polygon points="134 130.57 99.75 150.4 76.44 136.94 110.69 117.11 134 130.57" style="fill: #b5cb27; stroke-width: 0px;"/>
                  </g>
                  <polygon points="69.78 150.07 68.4 149.35 68.4 138.36 69.78 139.2 69.78 150.07" style="fill: #9ace4c; stroke-width: 0px;"/>
                  <g>
                    <polygon points="97.55 127.24 116.27 138.04 110.25 141.52 91.54 130.72 97.55 127.24" style="fill: #d3e62d; stroke-width: 0px;"/>
                    <polygon points="128.11 130.78 119.28 135.9 100.57 125.1 109.39 119.99 128.11 130.78" style="fill: #d3e62d; stroke-width: 0px;"/>
                  </g>
                </g>
              </g>
              <g>
                <g>
                  <path d="m101.01,222.53c0,.58.37,1.16,1.13,1.6l1.98,1.15v-2.54s3.98-2.31,3.98-2.31l3.89,2.25-2.22,1.3-1.68-.97-1.73,1.02,1.67.97,3.96-2.31v.14l1.9-1.11c.15-.58.38-1.11.68-1.6l-1.26-.72v-2.6s3.97-2.31,3.97-2.31l.9.52v-1.04l3.96-2.31.89.51v-1.03l3.96-2.31,3.89,2.25v.63l.54-.32,3.89,2.26v.63l.54-.32,3.9,2.26v.63s.54-.32.54-.32l3.89,2.26v.63l.54-.32,3.9,2.26v.63s.53-.32.53-.32l3.9,2.27v.62l.54-.31,3.89,2.25v.63l.55-.32,3.89,2.26v.63s.54-.32.54-.32l3.89,2.26v.63l.54-.32,3.89,2.25v.63l.54-.32,3.9,2.26v.63l.54-.32,3.89,2.27v.62l.54-.31,3.89,2.25h0v.63s.53-.32.53-.32l3.89,2.26v2.32s1.99-1.17,1.99-1.17l3.9,2.27v2.36s1.85-1.07,1.85-1.07c.73-.44,1.11-1,1.11-1.57v2.59c0,.57-.38,1.14-1.12,1.56l-22.64,13.23c-1.49.86-3.93.86-5.44,0l-66.01-38.3c-.75-.44-1.13-1.02-1.12-1.6,0-.86,0-1.73,0-2.59Z" style="fill: #deedfb; stroke-width: 0px;"/>
                  <g>
                    <path d="m102.12,220.96l22.63-13.22c1.49-.87,3.93-.87,5.44,0l66.01,38.29c1.5.87,1.51,2.29.02,3.17l-22.64,13.21c-1.49.87-3.93.87-5.43,0l-66.01-38.29c-1.5-.88-1.5-2.3-.02-3.17Z" style="fill: #fff; stroke-width: 0px;"/>
                    <g>
                      <polygon points="126.98 208.82 123.02 211.13 126.9 213.38 130.87 211.07 126.98 208.82" style="fill: #7c9298; stroke-width: 0px;"/>
                      <polygon points="131.42 211.38 127.45 213.7 131.34 215.96 135.3 213.64 131.42 211.38" style="fill: #7c9298; stroke-width: 0px;"/>
                      <polygon points="135.85 213.95 131.88 216.27 135.77 218.52 139.74 216.22 135.85 213.95" style="fill: #7c9298; stroke-width: 0px;"/>
                      <polygon points="126.56 214.21 122.6 216.53 126.48 218.79 130.45 216.47 126.56 214.21" style="fill: #7c9298; stroke-width: 0px;"/>
                      <polygon points="117.27 214.48 113.31 216.79 117.2 219.05 121.17 216.74 117.27 214.48" style="fill: #7c9298; stroke-width: 0px;"/>
                      <polygon points="140.28 216.52 136.31 218.84 140.2 221.1 144.17 218.78 140.28 216.52" style="fill: #7c9298; stroke-width: 0px;"/>
                      <polygon points="121.71 217.06 117.74 219.37 121.63 221.62 125.6 219.31 121.71 217.06" style="fill: #7c9298; stroke-width: 0px;"/>
                      <polygon points="144.71 219.09 140.75 221.4 144.64 223.67 148.61 221.35 144.71 219.09" style="fill: #7c9298; stroke-width: 0px;"/>
                      <polygon points="126.13 219.62 122.18 221.93 126.06 224.2 130.03 221.88 126.13 219.62" style="fill: #7c9298; stroke-width: 0px;"/>
                      <polygon points="149.14 221.66 145.17 223.98 149.07 226.24 153.04 223.93 149.14 221.66" style="fill: #7c9298; stroke-width: 0px;"/>
                      <polygon points="137.31 220.45 133.35 222.77 144.22 229.07 148.18 226.76 137.31 220.45" style="fill: #7c9298; stroke-width: 0px;"/>
                      <polygon points="158.01 226.8 154.04 229.12 157.93 231.38 161.9 229.07 158.01 226.8" style="fill: #7c9298; stroke-width: 0px;"/>
                      <polygon points="148.72 227.08 144.76 229.38 148.65 231.64 152.6 229.32 148.72 227.08" style="fill: #7c9298; stroke-width: 0px;"/>
                      <polygon points="132.1 223.5 127.51 226.17 124.88 227.72 123.55 228.49 130.12 232.3 134.08 229.98 132.07 228.81 136.66 226.13 132.1 223.5" style="fill: #7c9298; stroke-width: 0px;"/>
                      <polygon points="162.44 229.38 158.47 231.69 162.36 233.95 166.32 231.64 162.44 229.38" style="fill: #7c9298; stroke-width: 0px;"/>
                      <polygon points="153.14 229.64 149.19 231.96 153.08 234.22 157.04 231.9 153.14 229.64" style="fill: #7c9298; stroke-width: 0px;"/>
                      <polygon points="146.85 231.64 142.89 233.95 146.78 236.21 150.74 233.9 146.85 231.64" style="fill: #7c9298; stroke-width: 0px;"/>
                      <polygon points="166.87 231.95 162.9 234.26 166.79 236.52 170.76 234.2 166.87 231.95" style="fill: #7c9298; stroke-width: 0px;"/>
                      <polygon points="157.58 232.21 153.62 234.52 157.51 236.78 161.47 234.47 157.58 232.21" style="fill: #7c9298; stroke-width: 0px;"/>
                      <polygon points="151.23 234.17 147.26 236.49 151.17 238.75 155.13 236.43 151.23 234.17" style="fill: #7c9298; stroke-width: 0px;"/>
                      <polygon points="171.3 234.52 167.33 236.83 171.23 239.1 175.19 236.78 171.3 234.52" style="fill: #7c9298; stroke-width: 0px;"/>
                      <polygon points="162.01 234.79 158.05 237.1 161.94 239.36 165.91 237.04 162.01 234.79" style="fill: #7c9298; stroke-width: 0px;"/>
                      <polygon points="131.96 234.32 128 236.64 135.74 241.13 139.7 238.81 131.96 234.32" style="fill: #7c9298; stroke-width: 0px;"/>
                      <polygon points="155.61 236.72 151.65 239.04 155.54 241.29 159.51 238.98 155.61 236.72" style="fill: #7c9298; stroke-width: 0px;"/>
                      <polygon points="175.73 237.09 171.76 239.4 175.66 241.67 179.62 239.35 175.73 237.09" style="fill: #7c9298; stroke-width: 0px;"/>
                      <polygon points="166.44 237.35 162.48 239.66 166.38 241.93 170.34 239.61 166.44 237.35" style="fill: #7c9298; stroke-width: 0px;"/>
                      <polygon points="159.99 239.26 156.03 241.57 159.92 243.83 163.88 241.52 159.99 239.26" style="fill: #7c9298; stroke-width: 0px;"/>
                      <polygon points="180.16 239.66 176.19 241.98 180.09 244.23 184.06 241.92 180.16 239.66" style="fill: #7c9298; stroke-width: 0px;"/>
                      <polygon points="170.88 239.92 166.91 242.24 170.81 244.5 174.77 242.18 170.88 239.92" style="fill: #7c9298; stroke-width: 0px;"/>
                      <polygon points="164.37 241.8 160.41 244.11 164.3 246.38 168.26 244.06 164.37 241.8" style="fill: #7c9298; stroke-width: 0px;"/>
                      <polygon points="184.59 242.23 180.62 244.55 184.52 246.8 188.48 244.49 184.59 242.23" style="fill: #7c9298; stroke-width: 0px;"/>
                      <polygon points="175.31 242.49 171.34 244.81 175.24 247.07 179.2 244.75 175.31 242.49" style="fill: #7c9298; stroke-width: 0px;"/>
                      <polygon points="168.75 244.34 164.79 246.65 168.68 248.91 172.64 246.6 168.75 244.34" style="fill: #7c9298; stroke-width: 0px;"/>
                      <polygon points="190.48 245.64 186.51 247.96 190.41 250.22 194.38 247.91 190.48 245.64" style="fill: #7c9298; stroke-width: 0px;"/>
                      <polygon points="173.13 246.88 169.17 249.2 173.06 251.46 177.02 249.14 173.13 246.88" style="fill: #7c9298; stroke-width: 0px;"/>
                      <polygon points="140.18 239.1 136.23 241.41 155.25 252.45 159.22 250.14 140.18 239.1" style="fill: #7c9298; stroke-width: 0px;"/>
                      <polygon points="179.93 245.18 175.97 247.49 185.56 253.05 189.52 250.74 179.93 245.18" style="fill: #7c9298; stroke-width: 0px;"/>
                      <polygon points="177.53 249.44 173.56 251.74 180.7 255.89 184.67 253.57 177.53 249.44" style="fill: #7c9298; stroke-width: 0px;"/>
                      <polygon points="159.82 250.49 155.86 252.8 162.43 256.62 166.39 254.3 159.82 250.49" style="fill: #7c9298; stroke-width: 0px;"/>
                      <polygon points="167.2 254.77 163.23 257.08 170.98 261.57 174.94 259.25 167.2 254.77" style="fill: #7c9298; stroke-width: 0px;"/>
                      <polygon points="122.13 211.65 118.17 213.96 122.05 216.22 126.02 213.9 122.13 211.65" style="fill: #7c9298; stroke-width: 0px;"/>
                      <polygon points="130.99 216.79 127.03 219.1 130.92 221.36 134.88 219.05 130.99 216.79" style="fill: #7c9298; stroke-width: 0px;"/>
                      <polygon points="108.1 220.43 104.13 222.74 108.02 225 111.99 222.68 108.1 220.43" style="fill: #7c9298; stroke-width: 0px;"/>
                      <polygon points="112.51 222.98 111.98 223.3 108.54 225.3 112.44 227.56 116.4 225.24 116 225.01 112.51 222.98" style="fill: #7c9298; stroke-width: 0px;"/>
                      <polygon points="116.79 220.43 116.26 220.74 112.83 222.74 116.72 225 120.69 222.68 120.29 222.45 116.79 220.43" style="fill: #7c9298; stroke-width: 0px;"/>
                      <polygon points="153.57 224.24 149.61 226.55 153.5 228.8 157.46 226.49 153.57 224.24" style="fill: #7c9298; stroke-width: 0px;"/>
                      <polygon points="116.79 225.47 112.83 227.78 116.72 230.05 120.69 227.73 116.79 225.47" style="fill: #7c9298; stroke-width: 0px;"/>
                      <polygon points="138.08 226.56 134.13 228.87 138.02 231.12 141.99 228.82 138.08 226.56" style="fill: #7c9298; stroke-width: 0px;"/>
                      <polygon points="142.47 229.09 138.5 231.4 142.4 233.67 146.36 231.35 142.47 229.09" style="fill: #7c9298; stroke-width: 0px;"/>
                      <polygon points="123.12 229.2 119.17 231.52 127.2 236.18 131.16 233.86 123.12 229.2" style="fill: #7c9298; stroke-width: 0px;"/>
                      <polygon points="165.8 248.27 161.83 250.59 165.72 252.85 169.69 250.54 165.8 248.27 165.8 248.27" style="fill: #7c9298; stroke-width: 0px;"/>
                      <polygon points="165.36 248.02 161.47 245.76 157.5 248.08 161.39 250.34 165.36 248.02 165.36 248.02" style="fill: #7c9298; stroke-width: 0px;"/>
                      <polygon points="160.98 245.48 157.08 243.22 153.12 245.54 157.01 247.8 160.98 245.48 160.98 245.48" style="fill: #7c9298; stroke-width: 0px;"/>
                      <polygon points="156.65 242.97 152.75 240.72 148.79 243.03 152.68 245.28 156.65 242.97 156.65 242.97" style="fill: #7c9298; stroke-width: 0px;"/>
                      <polygon points="152.13 240.34 148.23 238.08 144.26 240.4 148.16 242.66 152.13 240.34 152.13 240.34" style="fill: #7c9298; stroke-width: 0px;"/>
                      <polygon points="147.79 237.83 143.9 235.57 139.93 237.89 143.82 240.15 147.79 237.83 147.79 237.83" style="fill: #7c9298; stroke-width: 0px;"/>
                      <polygon points="143.41 235.29 139.52 233.03 135.55 235.35 139.44 237.61 143.41 235.29 143.41 235.29" style="fill: #7c9298; stroke-width: 0px;"/>
                      <polygon points="139.08 232.78 135.19 230.52 131.22 232.83 135.11 235.1 139.08 232.78 139.08 232.78" style="fill: #7c9298; stroke-width: 0px;"/>
                      <polygon points="179.82 256.4 170.22 250.84 166.26 253.16 175.85 258.72 179.82 256.4 179.82 256.4" style="fill: #7c9298; stroke-width: 0px;"/>
                    </g>
                  </g>
                </g>
                <g>
                  <g style="isolation: isolate;">
                    <polygon points="216.85 219.35 216.83 224.68 192.74 238.75 192.76 233.4 216.85 219.35" style="fill: #b6cfe6; stroke-width: 0px;"/>
                    <polygon points="192.76 233.4 192.74 238.75 141.05 208.76 141.07 203.42 192.76 233.4" style="fill: #deedfb; stroke-width: 0px;"/>
                    <polygon points="216.85 219.35 192.76 233.4 141.07 203.42 165.16 189.36 216.85 219.35" style="fill: #fff; stroke-width: 0px;"/>
                  </g>
                  <g>
                    <polygon points="163.06 178.83 156.9 182.42 196.37 205.31 196.78 213.97 162.21 193.92 156.06 197.51 155.77 202.71 197.39 226.85 203.53 223.26 203.27 217.74 202.52 201.72 163.06 178.83" style="fill: #181d1f; stroke-width: 0px;"/>
                    <polygon points="156.07 197.51 156.07 197.51 156.91 182.42 196.38 205.31 197.13 221.33 197.39 226.85 155.78 202.71 156.07 197.51" style="fill: #1c2124; stroke-width: 0px;"/>
                    <g>
                      <path d="m204.03,204.78l22.93,13.16v2.53c-.01,1.43-.53,2.44-1.34,2.92,2.19-1.28,4.38-2.56,6.56-3.83.82-.49,1.33-1.49,1.33-2.92v-5.77s.02-3.39.02-3.39l.16-54.24c0-2.88-2.02-6.43-4.52-7.87l-91.96-53.35c-1.26-.73-2.39-.79-3.22-.31l-6.56,3.83c.83-.48,1.97-.41,3.22.32l4.38,2.54-4.49,2.62c-.49.28-.79.89-.79,1.75l-.17,54.43-3.66,2.13,36.01,21.04,42.09,24.42Z" style="fill: #181d1f; stroke-width: 0px;"/>
                      <path d="m129.58,157.19l.17-54.43c0-.86.31-1.47.79-1.75l4.49-2.62-4.38-2.54c-1.25-.73-2.39-.8-3.22-.32l3.22-1.87c.65-.04,1.39.13,2.18.59l91.96,53.35c2.5,1.44,4.53,4.99,4.53,7.87l-.16,54.24-.02,3.38v3.24s-.01,2.54-.01,2.54c0,1.43-.51,2.44-1.33,2.92-.47.27-.93.55-1.41.82,0,0,0,0,0,0,.36-.54.57-1.25.57-2.15v-2.53s-22.92-13.16-22.92-13.16l-42.09-24.42-36.01-21.04,3.66-2.13Z" style="fill: #181d1f; stroke-width: 0px;"/>
                      <path d="m222.63,149.2c2.5,1.45,4.53,4.99,4.52,7.87l-.16,54.25v3.38s-.02,3.24-.02,3.24l-101.03-58.62v-3.23s.02-3.39.02-3.39l.17-54.24c0-2.88,2.05-4.06,4.55-2.61l91.95,53.35Zm.69,63.88l.17-55.93c.02-1.73-1.21-3.86-2.71-4.73l-88.3-51.22c-1.49-.87-2.72-.17-2.72,1.56l-.18,55.94,93.73,54.38h0Z" style="fill: #7c9298; stroke-width: 0px;"/>
                      <path d="m226.97,217.94v2.53c-.02,2.88-2.06,4.05-4.56,2.6l-91.96-53.34c-2.5-1.45-4.54-4.99-4.52-7.87v-2.54s101.04,58.62,101.04,58.62Z" style="fill: #7c9298; stroke-width: 0px;"/>
                      <path d="m129.61,157.98c-.03,2.55,1.78,5.68,3.98,6.96l85.73,49.75c2.2,1.28,4,.23,4.02-2.33l.14-55.21c.02-1.73-1.21-3.86-2.7-4.74l-5.75-3.34-3.43-1.99-3.91-2.28-11.39-6.6-3.93-2.28-36.38-21.1-10.61-6.15-4.19-2.44-8.71-5.05c-1.5-.87-2.73-.16-2.73,1.57l-.14,55.21Z" style="fill: #94d9f9; stroke-width: 0px;"/>
                    </g>
                  </g>
                </g>
              </g>
              <g>
                <polygon points="220.73 155.3 220.73 212.35 175.84 186.44 175.85 129.39 220.73 155.3" style="fill: #fff; stroke-width: 0px;"/>
                <polygon points="132.17 104.17 175.85 129.39 175.84 186.44 132.17 161.22 132.17 104.17" style="fill: #fff; stroke-width: 0px;"/>
                <polygon points="132.17 104.17 175.85 129.39 220.73 155.3 220.73 161.56 175.85 135.65 132.17 110.43 132.17 104.17" style="fill: #1766a2; stroke-width: 0px;"/>
                <g>
                  <polygon points="136.6 128.3 171.41 148.4 171.41 142.51 136.6 122.41 136.6 128.3" style="fill: #1766a2; stroke-width: 0px;"/>
                  <polygon points="136.6 138.1 171.41 158.2 171.41 152.31 136.6 132.2 136.6 138.1" style="fill: #1766a2; stroke-width: 0px;"/>
                  <polygon points="136.6 147.89 171.41 168 171.41 162.1 136.6 142 136.6 147.89" style="fill: #1766a2; stroke-width: 0px;"/>
                  <polygon points="136.6 157.69 171.41 177.79 171.41 171.9 136.6 151.8 136.6 157.69" style="fill: #1766a2; stroke-width: 0px;"/>
                </g>
                <g>
                  <g>
                    <path d="m177.94,161.95c0,6.37,2.23,13.42,5.84,19.67,1.85,3.21,4.06,6.2,6.52,8.79.02.01.04.04.06.05.31.33.63.66.95.98.91.89,1.84,1.72,2.8,2.48,1.15.92,2.33,1.74,3.54,2.46.08.05.16.09.24.14.02.02.05.04.07.05.04.02.08.05.13.08.18.1.36.2.53.29,1.09.58,2.15,1.06,3.19,1.41,1.24.43,2.43.7,3.58.82.07,0,.13.02.2.02,2.41.23,4.59-.21,6.42-1.26,3.61-2.09,5.84-6.56,5.84-12.92s-2.24-13.41-5.84-19.67c-3.61-6.25-8.6-11.72-14.11-14.9-11.03-6.36-19.96-1.2-19.96,11.52Z" style="fill: #deedfb; stroke-width: 0px;"/>
                    <polygon points="195.59 168.66 200.59 171.55 200.59 166.46 195.59 163.57 195.59 168.66" style="fill: #f4d0bf; stroke-width: 0px;"/>
                    <path d="m195.58,166.9v11.15c.48.96.94,1.88,1.34,2.66.11.23.22.44.33.65l3.33,1.92v-13.49l-5-2.89Z" style="fill: #deedfb; stroke-width: 0px;"/>
                    <g>
                      <path d="m197.13,168.32l.97.05v1.99c-.06-.04-.11-.1-.16-.17l-.61-.96-.2-.31c-.12-.18-.12-.57,0-.61Z" style="fill: #f83c3c; stroke-width: 0px;"/>
                      <path d="m199.08,169.45c.12.19.12.57,0,.61l-.2.08-.61.24s-.1,0-.16-.02v-1.99l.98,1.07Z" style="fill: #f85d5d; stroke-width: 0px;"/>
                    </g>
                    <g>
                      <path d="m193.93,158.48c0,3.25,1.86,6.96,4.15,8.28,2.3,1.32,4.15-.24,4.15-3.49s-.24-7.04-4.15-9.3c-4.15-2.4-4.15,1.26-4.15,4.51Z" style="fill: #f4d0bf; stroke-width: 0px;"/>
                      <g>
                        <path d="m201.7,163.07c-.14.61.02,1.34.36,1.62.34.29.72.01.86-.61.14-.62-.02-1.35-.36-1.63-.34-.28-.72-.01-.86.61Z" style="fill: #f4d0bf; stroke-width: 0px;"/>
                        <path d="m194.48,158.89c.14.78-.02,1.33-.36,1.22-.34-.11-.72-.82-.86-1.6-.14-.78.02-1.32.36-1.23.34.11.72.83.86,1.6Z" style="fill: #f4d0bf; stroke-width: 0px;"/>
                      </g>
                      <path d="m193.66,152.95c.56-1.61,2.41-1.25,4.45.04,2.04,1.07,3.89,2.84,4.45,5.1.21.83.01,3.62-.16,4.25-.11.38-.47,2.24-.59.67,0-.29.15-3.93-.1-4.55-.55-1.29-1.46-2.15-2.16-1.91-.44.15-2.4-1.03-2.86-1.65-.85-1.15-1.61-1.15-2.16-.48-.25.31-.1,4.05-.1,4.33-.13,1.43-.49-.86-.59-1.35-.18-.84-.37-3.86-.17-4.45Z" style="fill: #9094a3; stroke-width: 0px;"/>
                    </g>
                    <polygon points="200.4 171.18 202.65 171.52 200.59 167.86 198.1 168.38 200.4 171.18" style="fill: #fdfffe; stroke-width: 0px;"/>
                    <polygon points="195.81 168.52 193.56 166.27 195.62 164.99 198.1 168.38 195.81 168.52" style="fill: #fdfffe; stroke-width: 0px;"/>
                    <path d="m186.05,170.82c.29-1.17,1.38-6.96,1.77-7.01l2.82.81h0c1.04.29,2.48.69,3.68,1.06l3.76,17.09,3.36-12.98c1.21,1.03,2.64,2.28,3.68,3.19h0l2.83,2.45c.39.5,1.48,7.55,1.76,9.06.54,2.8,2.38,10.89,2.09,11.58-.15.35-5.86-8.65-6.04-10.16l-.21-4.21-.21,1.56s-.14,6.58-.07,8.72c.02.57.07,4.11.13,7.2-1.15-.12-2.34-.4-3.58-.82-1.04-.36-2.1-.83-3.19-1.41-.18-.09-.35-.19-.53-.29-.04-.03-.08-.05-.13-.08-.03,0-.05-.03-.07-.05-.08-.04-.16-.08-.24-.14-1.21-.71-2.39-1.54-3.54-2.46-.96-.76-1.89-1.59-2.8-2.48-.32-.32-.64-.65-.95-.98.06-3.01.1-6.49.12-7.04.07-2.07-.06-8.8-.06-8.8v-.05s-.23,9.78-.23,9.78c-.19,1.31-3.1.44-4.67-2.99-.47-1.02,0-8.37.53-10.55Z" style="fill: #3c86b8; stroke-width: 0px;"/>
                    <path d="m197.06,176.86l.27-7.61.61.96c.05.06.1.12.16.17h0c.06.02.12.04.16.02l.61-.24.42,11.33-1.2,1.52h0c-.04-.08-.37-.7-.85-1.64-.11-.21-.22-.42-.33-.65l.13-3.85Z" style="fill: #ff6958; stroke-width: 0px;"/>
                    <path d="m204.09,177.29c.22-.51-1.55-2.97-1.55-2.97,0,0,1.25-.42,1.28-.8.11-1.37-2.7-4.73-2.7-4.73l-3.02,14.2s5.19-3.93,5.99-5.71Z" style="fill: #1766a2; stroke-width: 0px;"/>
                    <path d="m192.12,170.37c.42,1.41,2.02,4.77,3.47,7.68.48.96.94,1.88,1.34,2.66.11.23.22.44.33.65.48.94.8,1.57.85,1.64h0s-.22-1.28-.22-1.28l-.83-4.86-1.47-8.65-.49-2.88s-2.82.09-2.71,1.6c.03.42,1.28,2.28,1.28,2.28,0,0-1.77.42-1.55,1.18Z" style="fill: #1766a2; stroke-width: 0px;"/>
                    <g>
                      <polygon points="198.79 176.82 200.35 177.45 199.62 169.72 197.66 168.92 198.79 176.82" style="fill: #a1c1cc; stroke-width: 0px;"/>
                      <path d="m197.04,169.19c-.13-1.14.5-1.76,1.43-1.39.92.38,1.78,1.61,1.91,2.75.14,1.15-.5,1.77-1.42,1.39-.92-.38-1.78-1.61-1.92-2.75Z" style="fill: #738b96; stroke-width: 0px;"/>
                    </g>
                    <path d="m202.57,177.05l-1.47-2.34c-.15-.25-.35-.45-.55-.57-.45-.29-1.3-.73-1.4-.76-.88-.2-1.02-.36-1.5.16-.21.22-.1.9.24.98.3.07.25.08.18.48-.05.27,0,.32.2.7.25.45.05.57.35,1.04.21.33.24.1.32.6.05.25.3.7.53.7.84,0,1.45.87,1.99,1.75.52.85,1.06,2.24,1.54,2.66l1.78-1.21s-2.02-3.92-2.21-4.2Z" style="fill: #f4d0bf; stroke-width: 0px;"/>
                    <path d="m200.93,179.93l3.08-.78s6.64,11.47,7.81,15.2c1.05,3.34-1.44,3.64-2.36,2.76-1.8-1.73-2.76-3.47-3.79-5.73-2.15-4.71-4.74-11.45-4.74-11.45Z" style="fill: #3a82b2; stroke-width: 0px;"/>
                    <path d="m181.78,158.23s.05.18.13.46c.1.35.93,3.28,1.06,3.73.05.16.07.26.07.26.08.15.14.2.19.19.14-.02.22-.4.25-.54.03-.27-.02-.61-.05-.93-.02-.22.02-.4.11-.51.11-.15.28-.22.46-.19.1.02.2.16.2.27.02,2.47.53,3.49.24,5.36-.05.29.02.67.13,1.1-.19-.04-.36-.06-.47-.09-.65-.13-1.31-.23-1.95-.35-.02-.04-.03-.08-.05-.13-.16-.25.02-.05-.49-.71-.31-.42-1.23-2.22-1.25-2.27-.44-.98-.81-1.91-1.13-2.9-.16-.48-.32-.97-.46-1.46-.06-.21-.22-.63-.16-.79.03-.1.18-.1.31.15.34.69.53,1.24.8,1.94.03.07.13.38.19.21,0-.02-.07-.2-.08-.24-.17-.52-.82-2.25-.88-2.59-.03-.21-.02-.37.12-.39.14,0,.29.2.42.44.14.26.25.58.31.72.32.77.82,2.61,1.17,2.6.16,0-1.17-3.61-1.21-3.7-.18-.42-.32-1.05.14-.82.38.19.49.72.64,1.14.01.05.58,1.7.8,2.25.05.13.31.94.45,1.02.21.12.08-.25.05-.37-.19-.83-.36-1.48-.48-1.98-.11-.44-.19-.76-.22-.99-.05-.33,0-.43.22-.38.18.05.37.26.43.48Z" style="fill: #f4d0bf; stroke-width: 0px;"/>
                    <path d="m184.76,166.53l-3.17-.02s2.68,12.66,4.38,16.01c.53,1.03,1.15,2.06,2.28,2.66.91.49,1.66.24,1.95-.53.55-1.51-.33-3.93-.92-5.96-1.24-4.23-4.51-12.16-4.51-12.16Z" style="fill: #3a82b2; stroke-width: 0px;"/>
                  </g>
                  <path d="m196.93,186.18c0-.79.55-1.11,1.23-.71.69.39,1.24,1.35,1.24,2.14s-.55,1.11-1.24.72c-.68-.39-1.23-1.35-1.23-2.14Z" style="fill: #1766a2; stroke-width: 0px;"/>
                  <path d="m196.93,191.81c0-.8.55-1.11,1.23-.72.69.39,1.24,1.36,1.24,2.14s-.55,1.12-1.24.71c-.68-.4-1.23-1.35-1.23-2.14Z" style="fill: #1766a2; stroke-width: 0px;"/>
                </g>
              </g>
            </g>
            <g>
              <g>
                <path d="m40.6,199.97l-.59,3.73.36,2.97c.06.29.24,1.69.99,1.99.5.2,3.44,1.01,3.53-.04.06-.7-.25-6.48-.25-6.48.02-.39.5-1.48.38-1.75l-.84-1.82-3.58,1.4Z" style="fill: #f4d0bf; stroke-width: 0px;"/>
                <path d="m40.98,180.63c-.21,2.27,1.46,4.27,3.72,4.48h0c2.26.21,4.25-1.47,4.45-3.74l1.57-16.09c.2-2.27-1.46-4.28-3.72-4.48h0c-2.26-.21-4.26,1.47-4.46,3.73l-1.56,16.09Z" style="fill: #3a82b2; stroke-width: 0px;"/>
                <path d="m39.35,197.65c-.2,2.28,1.46,4.28,3.72,4.48h0c2.26.21,4.25-1.47,4.46-3.74l1.57-16.08c.2-2.27-1.47-4.28-3.72-4.48h0c-2.25-.21-4.25,1.47-4.46,3.73l-1.57,16.09Z" style="fill: #3a82b2; stroke-width: 0px;"/>
              </g>
              <g>
                <g>
                  <path d="m58.12,180.99c-.46-.09-.76-.54-.66-.99h0c.09-.47.54-.76.99-.66l4.54.92c.46.09.76.53.66.99h0c-.09.45-.53.75-.99.66l-4.53-.91Z" style="fill: #f4d0bf; stroke-width: 0px;"/>
                  <path d="m58.35,178.61l3.16,2.34,1.92,2.45c.16.26,1.05,1.43.72,2.2-.22.51-1.81,3.27-2.64,2.56-.55-.47-4.56-4.98-4.56-4.98-.3-.27-1.45-.73-1.56-1.02l-.71-1.96,3.67-1.58Z" style="fill: #f4d0bf; stroke-width: 0px;"/>
                </g>
                <path d="m58.97,176.5c1.24,1.69.9,4.07-.79,5.31h0c-1.68,1.24-4.05.87-5.29-.81l-3.67-6.43c-1.25-1.69-.9-4.06.78-5.3h0c1.68-1.24,4.05-.87,5.29.82l3.67,6.42Z" style="fill: #fdfffe; stroke-width: 0px;"/>
              </g>
              <g>
                <path d="m49.17,162.71c0,1.86,3.28,2.35,5.8,2.61h.01c.52-.46.81-.91.81-.91l.07-3.74-6.6-.57-.13,2.55s.05.05.05.06Z" style="fill: #f4d0bf; stroke-width: 0px;"/>
                <path d="m48.29,157.44c3.09,3.25,4.3,3.2,7.39,1.02,3.09-2.18,4.37-5.26,3.63-9.83-.79-4.87-6.57-6.09-10.26-3.85-7.04,4.3-4.61,8.64-.76,12.66Z" style="fill: #983a1e; stroke-width: 0px;"/>
                <path d="m60.55,154.54c-.15-.38-.35-.7-.61-.94-.22-.23-.51-.44-.47-.9.02-.29.17-.61.23-.91.12-.63-.16-1.04-.26-1.56-.08-.38-.05-.85-.09-1.27-.04-.42-.14-.82-.42-.96-.02,0-.05-.02-.07-.04-1.1,1.49-2.52,2.72-3.02,4.65-.16.64-.21,1.25-.27,1.86-.07.6-.25,1.28-.28,1.87-.02.36.17.71-.16,1.13-.15.19-.76.28-.76.19,0-.51-.02-1.01-.13-1.43-.12-.42-.37-.75-.75-.79-.38-.03-.91.28-1.23.82-.37.64-.34,1.32-.27,1.87.12.8.53,1.53,1.35,1.24-.32.29-.5.79-.6,1.21-.02.1-.05.22-.11.31-.05.07-.12.11-.19.14-.06.03-.11.06-.16.1.18.15.37.3.61.31.31.02.25.18,1.28.47.3.08.68-.05,1.04-.13.76-.17,1.52-.35,2.28-.53.2-.05.4-.09.61-.23.42-.29.76-.89.99-1.44.05-.1.08-.2.1-.29.06-.38-.32-.48-.21-.88.06-.19.21-.37.29-.56.12-.28.05-.52-.02-.71.18-.07.32-.38.35-.61.03-.23,0-.44.09-.67.14-.38.47-.63.75-.93.11-.12.16-.29.12-.39Z" style="fill: #f4d0bf; stroke-width: 0px;"/>
                <path d="m44.63,149.86c.26-1.91,4.85-2.09,4.85-2.09.34-.26,2.35-7.61,10-1.63,1.59,1.24.95,3.9.95,3.9,0,0-.41.27-2.74-.27-1.22-.27-.61,2.28-1.03,2.62-.39.31-1.87,2.75-3.1,4.91-.17.29-.33.58-.49.86-.66,1.17.86,3.14.73,3.47-.24.66-4.33-.07-5.24-1.89-.22-.2-5.33-5.51-3.94-9.89Z" style="fill: #983a1e; stroke-width: 0px;"/>
                <path d="m59.95,153.6c-.22-.23-.51-.44-.47-.9.02-.29.17-.61.23-.91.12-.63-.16-1.04-.26-1.56-.01-.06-.02-.12-.02-.18-1.06.16-1.81-.93-2.54.01-.11.14-.88,2.02-1.02,2.56-.16.64-.21,1.25-.27,1.86-.07.6-.25,1.28-.28,1.87-.02.36.17.71-.16,1.13-.15.19-.76.28-.76.19,0-.51-.02-1.01-.13-1.43-.12-.42-.37-.75-.75-.79-.38-.03-.91.28-1.23.82-.37.64-.34,1.32-.27,1.87.12.8.53,1.53,1.35,1.24-.1.09-.19.21-.27.33h5.95s.04-.08.06-.12c.05-.1.08-.2.1-.29.06-.38-.32-.48-.21-.88.06-.19.21-.37.29-.56.12-.28.05-.52-.02-.71.18-.07.32-.38.35-.61.03-.23,0-.44.09-.67.14-.38.47-.63.75-.93.11-.12.16-.29.12-.39-.15-.38-.35-.7-.61-.94Z" style="fill: #f4d0bf; stroke-width: 0px;"/>
              </g>
              <path d="m43.34,246.5s-1,3.34.08,4.53c.3.32,1.6.43,3.1.11.98-.21,2.04-.81,3.02-.95,2.87-.4,3.61-1.64,4.8-3.22,2.53-3.36-2.07-2.35-5.07-1.3-3.15,1.11-5.93.82-5.93.82Z" style="fill: #231f20; stroke-width: 0px;"/>
              <path d="m47.61,249.09c-1.86-.35-3.35-1.02-4.7-1.96l.16-52.5,10.37,1.86-.17,51.41c-1.76.92-3.66,1.57-5.67,1.2Z" style="fill: #1766a2; stroke-width: 0px;"/>
              <path d="m52.58,247.66s-1,3.34.07,4.53c.3.33,1.6.44,3.11.11.98-.22,2.05-.81,3.02-.95,2.86-.4,3.61-1.64,4.79-3.23,2.54-3.36-2.06-2.35-5.06-1.29-3.15,1.12-5.93.82-5.93.82Z" style="fill: #231f20; stroke-width: 0px;"/>
              <path d="m57.85,250.54c1.86-.31,3.37-.99,4.74-1.97l.8-39.65.88-2.94-11.68-3.77-.37,46.85c1.75,1.06,3.64,1.83,5.64,1.5Z" style="fill: #3a82b2; stroke-width: 0px;"/>
              <path d="m57.65,167.84c-.43-.67-4.13-1.98-7.23-1.98s-4.65-2.76-4.65.34.46,17.27,3.56,17.27,10-13.02,8.32-15.64Z" style="fill: #eee; stroke-width: 0px;"/>
              <path d="m57.65,167.84c-.43-.67-4.13-1.98-7.23-1.98s-4.65-2.76-4.65.34.46,17.27,3.56,17.27,10-13.02,8.32-15.64Z" style="fill: #eee; stroke-width: 0px;"/>
              <path d="m57.77,165.31c.02-.4-1.33-2.92-1.67-2.65-1.29,1.03-5.07.8-5.99.33-.81-.42-1.02-1.47-1.02-1.47,0,0-4.89,4.33,2.27,5.73,1.44.27,3.05.17,4.36-.46,1.12-.54,3.08-.46,2.04-1.48Z" style="fill: #e6f9f5; stroke-width: 0px;"/>
              <path d="m64.28,213.03l.68-34.56c-.76-10.55-5.69-13.53-7.64-14.38,0,0-2.04,2.3-6.39,1.34-4.43-.97-2.44-3.86-2.44-3.86-5.79.08-6.13,7.83-6.31,10.51-.33,5.04-.87,26.72-.76,35.16l22.86,5.79Z" style="fill: #3c86b8; stroke-width: 0px;"/>
              <g>
                <g>
                  <path d="m69.83,206.87c-.33-.3-.36-.82-.07-1.15h0c.3-.33.82-.37,1.15-.07l3.31,2.96c.33.3.36.81.06,1.15h0c-.3.34-.81.36-1.15.06l-3.31-2.96Z" style="fill: #f4d0bf; stroke-width: 0px;"/>
                  <path d="m71.18,205l1.48,3.47.39,2.97c.02.29.18,1.7-.47,2.17-.44.32-3.09,1.82-3.44.82-.23-.66-1.34-6.34-1.34-6.34-.12-.37-.85-1.31-.8-1.6l.37-1.98,3.81.49Z" style="fill: #f4d0bf; stroke-width: 0px;"/>
                </g>
                <path d="m66.42,187.7c.21,2.27-1.46,4.27-3.71,4.48h0c-2.26.21-4.26-1.47-4.47-3.74l-1.56-16.09c-.2-2.27,1.46-4.27,3.72-4.48h0c2.26-.21,4.25,1.47,4.46,3.74l1.56,16.09Z" style="fill: #3a82b2; stroke-width: 0px;"/>
                <path d="m71.82,202.44c.76,2.15-.36,4.51-2.5,5.26h0c-2.13.76-4.48-.38-5.24-2.53l-5.47-15.21c-.75-2.15.37-4.5,2.5-5.26h0c2.14-.75,4.49.38,5.25,2.53l5.46,15.21Z" style="fill: #3a82b2; stroke-width: 0px;"/>
              </g>
            </g>
            <g>
              <path d="m95.81,203.61c.07-.23.57-1.03.67-1.27,2.52.3,7.79.28,8.72,1.44.91,1.11,1.45,2.37-1.39,4.03-1.08.63-5.28-.01-6.97-.34-1.07-1.24-1.49-2.36-1.03-3.86Z" style="fill: #f4d0bf; stroke-width: 0px;"/>
              <path d="m98.13,208.96c-.37.1-18.7.95-18.7.95-2.17-.07-2.87-2.14-2.8-4.3.08-2.16.89-3.61,3.06-3.54,0,0,18.13-.73,18.4-.66-.35,1.01-.41,5.96.05,7.54Z" style="fill: #9abc2a; stroke-width: 0px;"/>
              <path d="m75.64,195.68c.3-2.15-1.57-4.51-2.71-4.93-3.51-1.27-6.06,1.23-6.35,3.4l-.37,16.13c-.3,2.16,1.19,4.15,3.34,4.44h0c2.15.3,4.13-1.2,4.42-3.36l1.67-15.68Z" style="fill: #9abc2a; stroke-width: 0px;"/>
              <path d="m67.25,265.43s-1.05,3.53.08,4.78c.31.34,1.69.46,3.28.11,1.04-.22,2.16-.85,3.19-1,3.03-.42,4.83-2.04,6.08-3.71,2.67-3.54-2.17-2.49-5.35-1.37-3.32,1.17-7.28,1.18-7.28,1.18Z" style="fill: #a15b2c; stroke-width: 0px;"/>
              <path d="m74.59,266.7c1.9-.96,2.83-2.2,3.42-3.72v-36.73c0-3.15-2.56-5.7-5.7-5.7s-5.71,2.55-5.71,5.7v39.46c0,.08,0,.17,0,.25,2,2.21,5.4,2.03,7.97.74Z" style="fill: #1766a2; stroke-width: 0px;"/>
              <path d="m77.75,268.88s-1.05,3.54.08,4.79c.32.35,1.69.46,3.28.11,1.04-.22,2.16-.85,3.18-.99,3.03-.42,4.83-2.05,6.09-3.71,2.67-3.56-2.18-2.5-5.36-1.37-3.32,1.17-7.28,1.17-7.28,1.17Z" style="fill: #ab6030; stroke-width: 0px;"/>
              <path d="m85.1,270.16c1.89-.96,2.83-2.2,3.42-3.72v-36.73c0-3.15-2.55-5.7-5.7-5.7s-5.7,2.55-5.7,5.7v39.46c0,.08,0,.17,0,.25,2,2.21,5.4,2.03,7.97.74Z" style="fill: #3a82b2; stroke-width: 0px;"/>
              <g>
                <path d="m83.34,194.31c.53-.47-2.72-1.88-2.72-1.88l.07-3.85-6.13-.28-.26,2.69s-1.16-.32-1.38-.25c-1.02.29-2.96,3.04-2.96,3.04.02.02,13.38,3.44,13.38.53Z" style="fill: #f4d0bf; stroke-width: 0px;"/>
                <g>
                  <path d="m72.69,188.24c1.66,1.86,5.66,2.36,6.33,1.95h0c.11,0,1.09.08,1.42,0,.72-.17,1.44-.33,2.17-.49.19-.05.38-.1.58-.23.37-.25.67-.76.89-1.25.02-.04.04-.07.06-.11.04-.09.07-.18.08-.27.07-.36-.3-.47-.19-.84.05-.18.21-.35.28-.53.11-.27.05-.49-.02-.67.18-.07.31-.36.34-.58.03-.22,0-.42.09-.65.13-.36.45-.59.71-.89.11-.11.15-.27.11-.37-.13-.35-.33-.66-.57-.89-.22-.21-.48-.41-.45-.85.03-.27.16-.58.22-.87.07-.34.01-.62-.07-.89-.04-.13-.08-.25-.12-.37-.02-.07-.05-.15-.06-.23-.07-.36-.05-.8-.08-1.2v-.08c-.02-.08-.02-.16-.04-.24-.05-.28-.11-.54-.19-.8-.1-.3-.21-.59-.34-.86-.07-.12-.14-.25-.22-.37-.14-.23-.3-.45-.47-.66-.1-.11-.19-.21-.3-.31-.6-.58-1.32-1-2.1-1.28-.43-.16-.89-.27-1.35-.33h0c-1.63-.24-3.77-.07-5.25.69-2.18,1.11-4.24,3.47-4.63,5.66-.61,3.44,1.55,7,3.18,8.81Z" style="fill: #f4d0bf; stroke-width: 0px;"/>
                  <path d="m72.69,188.24c1.66,1.86,5.66,2.36,6.33,1.95h0s.05-.03.06-.05c.02-.02.03-.04.04-.06,0-.02,0-.03,0-.07,0-.02,0-.07-.02-.09-.05-.17-.18-.43-.32-.74-.08-.16-.15-.34-.22-.51-.04-.09-.08-.18-.1-.27-.02-.04-.03-.09-.05-.13,0,0,.01-.02.02-.03,0,0-.94-.34-1.03-1.49-.04-.53-.11-1.17.25-1.78.3-.51.8-.81,1.17-.78.35.03.58.33.69.72,0,0,.01.02.01.03.11.4.12.88.14,1.36,0,.07.37.03.58-.08.04-.26.08-.52.11-.79.09-.86-.2-1.69-.41-2.52-.03-.11-.06-.26-.09-.42-.57-1.21-.66-2.51.68-3.4,1.19-.78,2.95-.03,4.04.76.02,0,.05,0,.07-.02-.04-.13-.08-.25-.12-.37-.02-.07-.05-.15-.06-.23-.07-.36-.05-.8-.08-1.2v-.08c-.02-.08-.02-.16-.04-.24-.05-.28-.11-.54-.19-.8-.1-.3-.21-.59-.34-.86h-.01c-.07-.12-.14-.25-.21-.37-.14-.23-.3-.45-.47-.66-.1-.11-.19-.21-.3-.31-.6-.58-1.32-1-2.1-1.28-.43-.16-.89-.27-1.35-.33h0c-1.63-.24-3.77-.07-5.25.69-2.18,1.11-4.24,3.47-4.63,5.66-.61,3.44,1.55,7,3.18,8.81Z" style="fill: #921515; stroke-width: 0px;"/>
                </g>
                <path d="m69.38,233.58c5.66,1.21,20.4.06,21.22-1.06,0,0-3.84-16.35-2.83-24.73,1.29-10.71-3.85-13.89-5.83-14.75,0,0-2,2.28-6.44,1.3-4.52-.99-2.58-3.6-2.58-3.6-5.91.08-6.16,7.64-6.34,10.37-.33,5.16-.8,20.1-.68,28.69.49,2.06,1.48,3.36,3.48,3.79Z" style="fill: #b5cb27; stroke-width: 0px;"/>
              </g>
              <path d="m90.43,232.12c-.18.14-.77.89-.96,1.06,1.13,2.26,2.9,7.23,4.31,7.72,1.35.47,2.73.56,3.33-2.67.23-1.23-1.8-4.97-2.69-6.45-1.54-.58-2.72-.6-3.99.34Z" style="fill: #f4d0bf; stroke-width: 0px;"/>
              <path d="m96.26,232.49c-.03-.39-5.44-17.92-5.44-17.92-.8-2.02-2.99-1.98-5-1.18-2,.8-3.08,2.06-2.28,4.08l5.21,16.77c.11.28.24.52.41.76.83-.67,5.46-2.41,7.11-2.5Z" style="fill: #9abc2a; stroke-width: 0px;"/>
              <path d="m78.57,202.23c-.74-2.05.6-4.75,1.63-5.39,3.18-1.98,6.19-.04,6.93,2.01l3.69,15.71c.73,2.05-.32,4.3-2.35,5.04h0c-2.04.73-4.28-.33-5.02-2.37l-4.88-14.99Z" style="fill: #9abc2a; stroke-width: 0px;"/>
            </g>
            <g>
              <path d="m117.45,227.5c-.18,2.02-1.95,3.51-3.96,3.33h0c-2-.18-3.48-1.96-3.31-3.97l1.18-14.3c.18-2.02,1.95-3.51,3.96-3.34h0c2,.18,3.48,1.96,3.3,3.98l-1.18,14.3Z" style="fill: #fd96ba; stroke-width: 0px;"/>
              <g>
                <path d="m113.79,282.22c.57.78.24,1.52.28,2.63h.47c.03-.42,0-1.71.27-2.33.06-.13.15-.24.24-.33l-1.26.04Z" style="fill: #3c86b8; stroke-width: 0px;"/>
                <path d="m119.33,279.19c-.21-1.36-.35-2.66-.3-4.17.02-.54.41-13.08.59-16.81l-6.12-2.78c-.13,2.39-.77,11.01.43,16.07.18.72.85,4.08.96,4.9.05.45.15,1.4-.25,2.45-.08.2-.35.76-.43,1.04-.11.34,0,.41-.08.63-.18.49-.21.31.19.46.25.09.55.11.81.2.35.11.6.32.89.51.44.31,1.02.51,1.33.96.27.4.16,1.05.35,1.51.18.45.5.78,1.09.78h.03l1.41-.4c.19-.11.38-.23.56-.39.18-.15.34-.32.49-.48-.14-.08-.51-1.22-.68-1.3-.25-.13-1.04-1.89-1.24-3.18Z" style="fill: #f4d0bf; stroke-width: 0px;"/>
                <path d="m121.41,282.49c-.25-.1-1.08-.43-1.08-.43,0,0,.1.31-.23.47-.1.05-.21.09-.3.11-.29.09-.54.13-.79.11-.49-.05-.89-.28-1.2-.58-.83-.81-1.75-1.45-2.79-1.99-.34-.19-.69-.72-.76-.6-.34.53-.57,1.05-.61,1.22-.15.71-.28,1.47.07,1.86.22.24.84.54,1.57.31.59-.19,1.28-.19,1.51,0,.54.4-.02,2.36.95,2.19.89-.15,1.8-.38,2.71-.64.42-.12.85-.26,1.28-.44.21-.09.56-.21.75-.45.6-.76-.79-1.02-1.09-1.13Z" style="fill: #3c86b8; stroke-width: 0px;"/>
              </g>
              <path d="m122.08,224.18l4.6-.02,1.97.98c.18.12,1.11.58,1.13,1.18.02.4-.15,2.63-.9,2.44-.5-.13-4.43-1.78-4.43-1.78-.27-.08-1.15-.02-1.31-.17l-1.06-1.03v-1.59Z" style="fill: #f4d0bf; stroke-width: 0px;"/>
              <path d="m119.97,223.07c1.9-.46,3.81.71,4.26,2.6h0c.45,1.89-.73,3.79-2.63,4.24l-6.86.81c-1.9.45-3.81-.71-4.26-2.61h0c-.46-1.89.72-3.79,2.62-4.24l6.86-.8Z" style="fill: #fd96ba; stroke-width: 0px;"/>
              <path d="m125.55,212.79c.02-.37-2.84-1.5-3.17-1.24-1.19.95-2.62-.29-3.46-.74-.76-.39-.88-1.2-.88-1.2,0,0-.75,0-1.29.58-1.06,1.17-1.75,3.49,2.66,4.35,1.34.26,2.83.17,4.03-.41,1.03-.51,3.06-.39,2.1-1.34Z" style="fill: #fff; stroke-width: 0px;"/>
              <g>
                <path d="m122.03,285.21c.56.77.24,1.51.27,2.63l.48-.02c.03-.4,0-1.7.26-2.31.06-.14.14-.24.24-.34l-1.25.04Z" style="fill: #3c86b8; stroke-width: 0px;"/>
                <path d="m127.57,282.18c-.21-1.36-.35-2.66-.3-4.18.02-.54.42-13.08.59-16.82l-6.12-2.77c-.13,2.39-.77,11.01.43,16.07.18.72.85,4.08.96,4.9.05.45.15,1.4-.25,2.45-.07.19-.35.76-.43,1.03-.11.35,0,.41-.09.63-.17.49-.2.32.19.46.25.09.56.11.81.2.36.11.61.31.89.51.44.31,1.03.5,1.33.96.27.4.16,1.06.34,1.52.19.44.51.77,1.09.78,0,0,.02,0,.03,0l1.41-.39c.19-.11.38-.24.56-.4.18-.15.33-.31.48-.48-.14-.07-.51-1.21-.68-1.3-.25-.12-1.04-1.89-1.24-3.17Z" style="fill: #f4d0bf; stroke-width: 0px;"/>
                <path d="m129.65,285.48c-.26-.1-1.08-.43-1.08-.43,0,0,.1.32-.23.47-.1.05-.21.08-.3.11-.28.09-.54.12-.79.1-.49-.05-.89-.28-1.2-.59-.83-.8-1.75-1.44-2.8-1.99-.34-.18-.69-.71-.76-.6-.33.52-.57,1.05-.61,1.22-.15.71-.28,1.47.07,1.86.22.23.84.54,1.58.31.59-.19,1.27-.19,1.51,0,.54.41-.02,2.36.95,2.19.89-.16,1.8-.37,2.71-.64.42-.12.85-.25,1.29-.43.21-.09.55-.21.74-.45.6-.76-.79-1.02-1.09-1.14Z" style="fill: #3c86b8; stroke-width: 0px;"/>
              </g>
              <g>
                <path d="m113.18,230.92c.19-.47.38-.92.6-1.38,4.5-9.58-1.35-19.85,3.99-19.92,0,0-2.73,2.79,1.38,3.69,4.02.88,5.69-1.04,5.69-1.04,1.8.78,6.41,4.4,3.35,12.44-.54,1.41-.34,4.38.08,8.29-7.38,2.96-12.56,1.09-15.09-2.08Z" style="fill: #fe76a6; stroke-width: 0px;"/>
                <path d="m113.18,230.92c2.54,3.17,7.72,5.04,15.09,2.08.82,7.63,2.46,18.91.98,29.6-1.88,2.39-14-.47-16.83-2.97.07-2.83-3.84-17.16.76-28.71Z" style="fill: #3c86b8; stroke-width: 0px;"/>
              </g>
              <g>
                <path d="m117.94,210.71c-.04,1.98,5.14,2.54,5.57,1.16.31-1.01.25-3.96.25-3.96l-5.56-.53s-.26,3.32-.26,3.34Z" style="fill: #edc9b9; stroke-width: 0px;"/>
                <path d="m116.79,204.91c2.85,2.99,3.97,2.95,6.82.94,2.85-2.01,4.03-4.85,3.35-9.07-.73-4.49-6.07-5.63-9.47-3.55-6.5,3.96-4.25,7.97-.71,11.68Z" style="fill: #963123; stroke-width: 0px;"/>
                <path d="m118.02,202.03c.17,1.28.92,5,1.7,5.68,1.12.96,4.28,1.61,5.74.45,1.95-1.55,1.68-4.83,1.68-8.9s-2.63-4.84-4.87-3.11c-2.24,1.74-4.79,1.85-4.26,5.87Z" style="fill: #f4d0bf; stroke-width: 0px;"/>
                <path d="m113.42,197.92c.24-1.76,4.47-1.92,4.47-1.92.31-.25,2.17-7.02,9.23-1.51,1.47,1.15.99,5.14.99,5.14,0,0-3.2.32-3.59.63-.36.29-1.73,2.53-2.86,4.53-.16.28-.3.54-.45.79-.61,1.08-1.34,3.31-4.16,1.46-.21-.18-4.92-5.07-3.64-9.12Z" style="fill: #963123; stroke-width: 0px;"/>
                <path d="m121.51,203.31c.31.86.72,1.36,1.26,1.3.55-.07.84-.65.72-1.55-.12-.9-.91-1.56-1.45-1.49-.54.06-.86.77-.52,1.75Z" style="fill: #f4d0bf; stroke-width: 0px;"/>
              </g>
              <path d="m117.19,211.74c-.22-.47-.45-.95-.7-1.44-6.37-9.62,2.01-12.69,2.01-12.74.07-.57-.16-.95-.51-1.19-.28-.24-.64-.42-.97-.57-.15-.07-.83-.88-2.43-.91-2.29-.04-5.84,1.25-6.31,11.84-.09,2.13-.93,7.35.15,10.37.4.67,1.02,1.25,1.85,1.25.19,0,.4,0,.61,0,2.91-1.11,7.09-2.47,6.51-5.14-.1-.47-.16-.96-.21-1.47Z" style="fill: #1b0e0d; stroke-width: 0px;"/>
              <path d="m134.55,240.6l2.15,2.26,1.26,2.2c.1.22.69,1.27.42,1.84-.19.38-1.43,2.37-1.99,1.69-.38-.44-2.69-4.15-2.69-4.15,0,0,0-.82-.79-2.26l-1.04-.8,2.68-.78Z" style="fill: #f4d0bf; stroke-width: 0px;"/>
              <path d="m133.2,229.6c.48,1.97-.73,3.95-2.68,4.43h0c-1.96.47-3.93-.74-4.41-2.71l-3.46-13.93c-.47-1.97.73-3.96,2.68-4.42h0c1.96-.48,3.93.74,4.4,2.7l3.46,13.93Z" style="fill: #fd96ba; stroke-width: 0px;"/>
              <path d="m136.62,239.3c.88,1.76.17,3.87-1.58,4.75h0c-1.74.87-3.86.15-4.73-1.6l-3.96-10.46c-.87-1.75.6-1.98,2.35-2.85h0c1.74-.87,3.64-1.29,4.51.46l3.41,9.7Z" style="fill: #fd96ba; stroke-width: 0px;"/>
            </g>
          </g>
        </g>
        <path d="m242.21,52.17c0,26.45-21.44,47.88-47.88,47.88-26.45,0-47.88-21.44-47.88-47.88,0-26.45,21.44-47.88,47.88-47.88,26.45,0,47.88,21.44,47.88,47.88Z" style="fill: #8cd26f; stroke-width: 0px;"/>
        <polygon points="196.61 93.23 170.11 110.79 163.16 80.92 196.61 93.23" style="fill: #8cd26f; stroke-width: 0px;"/>
        <g>
          <g>
            <path d="m191,30.96c-.66,4.42-1.68,8.04-3.37,10.99,1.35,2.35,3.12,4.25,5.33,5.41-.5.41-1.13,1.16-1.44,1.74-2.1-1.24-3.78-3.01-5.14-5.22-1.63,2.18-3.73,3.95-6.44,5.36-.22-.5-.83-1.41-1.24-1.85,2.87-1.35,5-3.18,6.57-5.55-1.08-2.24-1.88-4.83-2.51-7.65-.52,1.22-1.19,2.29-1.85,3.26-.3-.33-.97-.94-1.49-1.3-1.13,1.33-2.71,2.65-4.17,3.65v1.1c1.77-.22,3.59-.47,5.41-.72l.03,1.8c-1.82.25-3.65.5-5.44.77v4.23c0,1.05-.22,1.55-.99,1.85-.75.3-1.93.3-3.67.3-.11-.55-.39-1.24-.66-1.8,1.38.06,2.54.03,2.9.03.39-.03.47-.11.47-.41v-3.95c-2.04.28-3.92.55-5.5.75l-.25-1.88c1.57-.19,3.56-.44,5.74-.69v-1.91c1.05-.61,2.24-1.57,3.15-2.46h-4.31c-1.08.83-2.18,1.6-3.34,2.26-.3-.39-1.05-1.19-1.46-1.57,2.24-1.13,4.28-2.62,6.02-4.36h-5.83v-1.82h4.78v-2.73h-3.62v-1.77h3.62v-2.9h1.91v2.9h2.84v1.69c.75-1.24,1.41-2.54,1.96-3.92l1.91.55c-.94,2.26-2.1,4.31-3.45,6.19h3.34v1.82h-4.81c-.63.69-1.27,1.38-1.96,2.02h4.03l.39-.11.97.72c2.1-2.87,3.51-7.26,4.31-11.85l2.04.33c-.3,1.66-.66,3.26-1.1,4.78h8.06v1.93h-1.74Zm-16.79.36h.83c.72-.86,1.35-1.8,1.96-2.73h-2.79v2.73Zm12.29,8.37c1.16-2.43,1.88-5.33,2.4-8.73h-4.83c.52,3.18,1.33,6.16,2.43,8.73Z" style="fill: #fff; stroke-width: 0px;"/>
            <path d="m205.5,39.41c-.61-.99-2.04-2.93-3.18-4.42v14.11h-2.04v-13.26c-1.19,3.23-2.76,6.38-4.39,8.26-.22-.58-.75-1.44-1.13-1.93,2.1-2.29,4.2-6.57,5.22-10.38h-4.28v-1.96h4.58v-5.91h2.04v5.91h3.76v1.96h-3.76v.72c1.02,1.1,3.78,4.34,4.47,5.14l-1.3,1.77Zm14.8-7.6h-2.84v14.53c0,1.41-.36,2.04-1.27,2.35-.91.36-2.54.41-4.86.41-.11-.58-.44-1.52-.75-2.1,1.8.06,3.56.03,4.09.03.5-.03.69-.17.69-.66v-11.77c-2.18,3.98-5.33,7.87-8.37,10.16-.36-.52-.97-1.24-1.46-1.66,3.45-2.35,7.07-6.96,9.11-11.3h-7.51v-1.96h8.23v-5.88h2.1v5.88h2.84v1.96Z" style="fill: #fff; stroke-width: 0px;"/>
            <path d="m191,64.1c-.66,4.42-1.68,8.04-3.37,10.99,1.35,2.35,3.12,4.25,5.33,5.41-.5.41-1.13,1.16-1.44,1.74-2.1-1.24-3.78-3.01-5.14-5.22-1.63,2.18-3.73,3.95-6.44,5.36-.22-.5-.83-1.41-1.24-1.85,2.87-1.35,5-3.18,6.57-5.55-1.08-2.24-1.88-4.83-2.51-7.65-.52,1.22-1.19,2.29-1.85,3.26-.3-.33-.97-.94-1.49-1.3-1.13,1.33-2.71,2.65-4.17,3.65v1.1c1.77-.22,3.59-.47,5.41-.72l.03,1.79c-1.82.25-3.65.5-5.44.77v4.23c0,1.05-.22,1.55-.99,1.85-.75.3-1.93.3-3.67.3-.11-.55-.39-1.24-.66-1.8,1.38.06,2.54.03,2.9.03.39-.03.47-.11.47-.41v-3.95c-2.04.28-3.92.55-5.5.75l-.25-1.88c1.57-.19,3.56-.44,5.74-.69v-1.91c1.05-.61,2.24-1.57,3.15-2.46h-4.31c-1.08.83-2.18,1.6-3.34,2.26-.3-.39-1.05-1.19-1.46-1.57,2.24-1.13,4.28-2.62,6.02-4.36h-5.83v-1.82h4.78v-2.73h-3.62v-1.77h3.62v-2.9h1.91v2.9h2.84v1.69c.75-1.24,1.41-2.54,1.96-3.92l1.91.55c-.94,2.26-2.1,4.31-3.45,6.19h3.34v1.82h-4.81c-.63.69-1.27,1.38-1.96,2.02h4.03l.39-.11.97.72c2.1-2.87,3.51-7.26,4.31-11.85l2.04.33c-.3,1.66-.66,3.26-1.1,4.78h8.06v1.93h-1.74Zm-16.79.36h.83c.72-.86,1.35-1.8,1.96-2.73h-2.79v2.73Zm12.29,8.37c1.16-2.43,1.88-5.33,2.4-8.73h-4.83c.52,3.18,1.33,6.16,2.43,8.73Z" style="fill: #fff; stroke-width: 0px;"/>
            <path d="m200.28,69.27c-1.13-.94-3.31-2.18-5.11-2.98l1.1-1.49c1.74.69,4,1.88,5.14,2.76l-1.13,1.71Zm-4.17,11.27c1.46-2.1,3.65-5.72,5.22-8.84l1.49,1.35c-1.44,2.9-3.37,6.32-5,8.87l-1.71-1.38Zm1.66-23.17c1.82.75,4.09,1.99,5.25,2.87l-1.19,1.71c-1.1-.94-3.34-2.26-5.16-3.09l1.1-1.49Zm20.24,24.88c-.28-.77-.75-1.71-1.27-2.73-10.25,1.27-11.41,1.46-12.15,1.82-.11-.47-.44-1.49-.69-2.04.52-.14,1.08-.8,1.77-1.8.61-.83,2.43-3.76,3.81-6.85h-6.16v-1.96h7.1v-4.92h-5.88v-1.96h5.88v-4.75h2.04v4.75h6.1v1.96h-6.1v4.92h7.26v1.96h-7.82c-1.44,2.93-3.15,5.85-4.86,8.17l8.73-.97c-.77-1.24-1.6-2.49-2.46-3.56l1.63-.77c1.96,2.4,4.03,5.69,4.89,7.82l-1.82.91Z" style="fill: #fff; stroke-width: 0px;"/>
          </g>
          <g>
            <path d="m191,30.96c-.66,4.42-1.68,8.04-3.37,10.99,1.35,2.35,3.12,4.25,5.33,5.41-.5.41-1.13,1.16-1.44,1.74-2.1-1.24-3.78-3.01-5.14-5.22-1.63,2.18-3.73,3.95-6.44,5.36-.22-.5-.83-1.41-1.24-1.85,2.87-1.35,5-3.18,6.57-5.55-1.08-2.24-1.88-4.83-2.51-7.65-.52,1.22-1.19,2.29-1.85,3.26-.3-.33-.97-.94-1.49-1.3-1.13,1.33-2.71,2.65-4.17,3.65v1.1c1.77-.22,3.59-.47,5.41-.72l.03,1.8c-1.82.25-3.65.5-5.44.77v4.23c0,1.05-.22,1.55-.99,1.85-.75.3-1.93.3-3.67.3-.11-.55-.39-1.24-.66-1.8,1.38.06,2.54.03,2.9.03.39-.03.47-.11.47-.41v-3.95c-2.04.28-3.92.55-5.5.75l-.25-1.88c1.57-.19,3.56-.44,5.74-.69v-1.91c1.05-.61,2.24-1.57,3.15-2.46h-4.31c-1.08.83-2.18,1.6-3.34,2.26-.3-.39-1.05-1.19-1.46-1.57,2.24-1.13,4.28-2.62,6.02-4.36h-5.83v-1.82h4.78v-2.73h-3.62v-1.77h3.62v-2.9h1.91v2.9h2.84v1.69c.75-1.24,1.41-2.54,1.96-3.92l1.91.55c-.94,2.26-2.1,4.31-3.45,6.19h3.34v1.82h-4.81c-.63.69-1.27,1.38-1.96,2.02h4.03l.39-.11.97.72c2.1-2.87,3.51-7.26,4.31-11.85l2.04.33c-.3,1.66-.66,3.26-1.1,4.78h8.06v1.93h-1.74Zm-16.79.36h.83c.72-.86,1.35-1.8,1.96-2.73h-2.79v2.73Zm12.29,8.37c1.16-2.43,1.88-5.33,2.4-8.73h-4.83c.52,3.18,1.33,6.16,2.43,8.73Z" style="fill: #fff; stroke-width: 0px;"/>
            <path d="m205.5,39.41c-.61-.99-2.04-2.93-3.18-4.42v14.11h-2.04v-13.26c-1.19,3.23-2.76,6.38-4.39,8.26-.22-.58-.75-1.44-1.13-1.93,2.1-2.29,4.2-6.57,5.22-10.38h-4.28v-1.96h4.58v-5.91h2.04v5.91h3.76v1.96h-3.76v.72c1.02,1.1,3.78,4.34,4.47,5.14l-1.3,1.77Zm14.8-7.6h-2.84v14.53c0,1.41-.36,2.04-1.27,2.35-.91.36-2.54.41-4.86.41-.11-.58-.44-1.52-.75-2.1,1.8.06,3.56.03,4.09.03.5-.03.69-.17.69-.66v-11.77c-2.18,3.98-5.33,7.87-8.37,10.16-.36-.52-.97-1.24-1.46-1.66,3.45-2.35,7.07-6.96,9.11-11.3h-7.51v-1.96h8.23v-5.88h2.1v5.88h2.84v1.96Z" style="fill: #fff; stroke-width: 0px;"/>
            <path d="m191,64.1c-.66,4.42-1.68,8.04-3.37,10.99,1.35,2.35,3.12,4.25,5.33,5.41-.5.41-1.13,1.16-1.44,1.74-2.1-1.24-3.78-3.01-5.14-5.22-1.63,2.18-3.73,3.95-6.44,5.36-.22-.5-.83-1.41-1.24-1.85,2.87-1.35,5-3.18,6.57-5.55-1.08-2.24-1.88-4.83-2.51-7.65-.52,1.22-1.19,2.29-1.85,3.26-.3-.33-.97-.94-1.49-1.3-1.13,1.33-2.71,2.65-4.17,3.65v1.1c1.77-.22,3.59-.47,5.41-.72l.03,1.79c-1.82.25-3.65.5-5.44.77v4.23c0,1.05-.22,1.55-.99,1.85-.75.3-1.93.3-3.67.3-.11-.55-.39-1.24-.66-1.8,1.38.06,2.54.03,2.9.03.39-.03.47-.11.47-.41v-3.95c-2.04.28-3.92.55-5.5.75l-.25-1.88c1.57-.19,3.56-.44,5.74-.69v-1.91c1.05-.61,2.24-1.57,3.15-2.46h-4.31c-1.08.83-2.18,1.6-3.34,2.26-.3-.39-1.05-1.19-1.46-1.57,2.24-1.13,4.28-2.62,6.02-4.36h-5.83v-1.82h4.78v-2.73h-3.62v-1.77h3.62v-2.9h1.91v2.9h2.84v1.69c.75-1.24,1.41-2.54,1.96-3.92l1.91.55c-.94,2.26-2.1,4.31-3.45,6.19h3.34v1.82h-4.81c-.63.69-1.27,1.38-1.96,2.02h4.03l.39-.11.97.72c2.1-2.87,3.51-7.26,4.31-11.85l2.04.33c-.3,1.66-.66,3.26-1.1,4.78h8.06v1.93h-1.74Zm-16.79.36h.83c.72-.86,1.35-1.8,1.96-2.73h-2.79v2.73Zm12.29,8.37c1.16-2.43,1.88-5.33,2.4-8.73h-4.83c.52,3.18,1.33,6.16,2.43,8.73Z" style="fill: #fff; stroke-width: 0px;"/>
            <path d="m200.28,69.27c-1.13-.94-3.31-2.18-5.11-2.98l1.1-1.49c1.74.69,4,1.88,5.14,2.76l-1.13,1.71Zm-4.17,11.27c1.46-2.1,3.65-5.72,5.22-8.84l1.49,1.35c-1.44,2.9-3.37,6.32-5,8.87l-1.71-1.38Zm1.66-23.17c1.82.75,4.09,1.99,5.25,2.87l-1.19,1.71c-1.1-.94-3.34-2.26-5.16-3.09l1.1-1.49Zm20.24,24.88c-.28-.77-.75-1.71-1.27-2.73-10.25,1.27-11.41,1.46-12.15,1.82-.11-.47-.44-1.49-.69-2.04.52-.14,1.08-.8,1.77-1.8.61-.83,2.43-3.76,3.81-6.85h-6.16v-1.96h7.1v-4.92h-5.88v-1.96h5.88v-4.75h2.04v4.75h6.1v1.96h-6.1v4.92h7.26v1.96h-7.82c-1.44,2.93-3.15,5.85-4.86,8.17l8.73-.97c-.77-1.24-1.6-2.49-2.46-3.56l1.63-.77c1.96,2.4,4.03,5.69,4.89,7.82l-1.82.91Z" style="fill: #fff; stroke-width: 0px;"/>
          </g>
        </g>
      </g>
    </g>
  </g>
</svg>