<?xml version="1.0" encoding="UTF-8"?>
<svg xmlns="http://www.w3.org/2000/svg" width="315" height="321.44" xmlns:xlink="http://www.w3.org/1999/xlink" viewBox="0 0 315 321.44">
  <defs>
    <clipPath id="clippath">
      <circle cx="158.17" cy="163.2" r="89.75" style="fill: none; stroke-width: 0px;"/>
    </clipPath>
    <linearGradient id="_未命名漸層_3" data-name="未命名漸層 3" x1="283.11" y1="1083.88" x2="49.72" y2="850.48" gradientTransform="translate(0 -796.55)" gradientUnits="userSpaceOnUse">
      <stop offset=".12" stop-color="#fff"/>
      <stop offset=".45" stop-color="#dbf2c5"/>
      <stop offset="1" stop-color="#49b0d6"/>
    </linearGradient>
    <clipPath id="clippath-1">
      <path d="m138.69,139.11s-.19-4.71-1.98-9.05l-7.82,2.45s2.07,2.54,3.86,8.39l5.94-1.79Z" style="fill: none; stroke-width: 0px;"/>
    </clipPath>
    <clipPath id="clippath-2">
      <path d="m138.69,139.11s-.19-4.71-1.98-9.05l-7.82,2.45s2.07,2.54,3.86,8.39l5.94-1.79Z" style="fill: none; stroke-width: 0px;"/>
    </clipPath>
    <clipPath id="clippath-3">
      <path d="m138.69,139.11s-.19-4.71-1.98-9.05l-7.82,2.45s2.07,2.54,3.86,8.39l5.94-1.79Z" style="fill: none; stroke-width: 0px;"/>
    </clipPath>
    <clipPath id="clippath-4">
      <path d="m138.69,139.11s-.19-4.71-1.98-9.05l-7.82,2.45s2.07,2.54,3.86,8.39l5.94-1.79Z" style="fill: none; stroke-width: 0px;"/>
    </clipPath>
    <clipPath id="clippath-5">
      <path d="m138.69,139.11s-.19-4.71-1.98-9.05l-7.82,2.45s2.07,2.54,3.86,8.39l5.94-1.79Z" style="fill: none; stroke-width: 0px;"/>
    </clipPath>
    <clipPath id="clippath-6">
      <path d="m138.69,139.11s-.19-4.71-1.98-9.05l-7.82,2.45s2.07,2.54,3.86,8.39l5.94-1.79Z" style="fill: none; stroke-width: 0px;"/>
    </clipPath>
    <clipPath id="clippath-7">
      <path d="m304,98.96s-4.15-22.71-10.37-34.49l-20.17,9.71s13.29,18.1,14.33,29.41l16.21-4.62Z" style="fill: none; stroke-width: 0px;"/>
    </clipPath>
    <clipPath id="clippath-8">
      <rect x="24.65" y=".76" width="300.56" height="300.56" style="fill: none; stroke-width: 0px;"/>
    </clipPath>
    <clipPath id="clippath-9">
      <path d="m94.3,269.36c-4.34-7.73-9.05-20.36-14.61-30.91-.94-1.79-3.11-2.83-5-2.26-4.34,1.23-1.79,7.54-3.39,11.4-1.23-5.37-3.49-10.46-6.41-15.08-1.6-2.45-3.77-5-6.69-5.18s-5.75,3.58-3.68,5.75c-3.3-5.94-7.35-11.5-12.16-16.3-1.7-1.7-3.77-3.49-6.31-2.73-1.51.47-2.64,1.7-3.11,3.2-.94,2.92.19,5.84,1.41,8.48,3.39,7.26,7.92,14.04,13.48,19.79-2.36-1.88-4.9-3.68-7.45-5.28-1.51-.94-3.2-1.88-5-.75-.85.57-1.41,1.41-1.7,2.36-.66,2.36.47,4.62,1.7,6.6,5.56,8.48,15.17,13.19,24.32,17.53,0,0-.09,0-.09-.09-5.37-2.92-13.57,1.51-5.28,8.48,4.43,3.77,9.99,6.03,15.46,7.82,8.48,2.64,17.34,3.68,26.11,4.62l-1.6-17.44Z" style="fill: none; stroke-width: 0px;"/>
    </clipPath>
    <clipPath id="clippath-10">
      <circle cx="174.32" cy="300.47" r="102.17" style="fill: none; stroke-width: 0px;"/>
    </clipPath>
    <clipPath id="clippath-11">
      <circle cx="174.32" cy="300.47" r="102.17" style="fill: none; stroke-width: 0px;"/>
    </clipPath>
    <clipPath id="clippath-12">
      <path d="m74.42,123.37s-1.98-12.82-9.52-17.25l-14.33,9.9s5.75,3.86,13.01,14.8l10.84-7.45Z" style="fill: none; stroke-width: 0px;"/>
    </clipPath>
  </defs>
  <g style="isolation: isolate;">
    <g id="_圖層_2" data-name="圖層 2">
      <g id="_第一cut" data-name="第一cut">
        <g id="teaching_methods1">
          <g>
            <path d="m172.05,286.1c64.59,0,116.95-52.36,116.95-116.96,0-59.62-44.62-108.79-102.29-116.01v-5.82c0-.28-.06-.55-.08-.83,5.07-4.2,8.31-10.54,8.31-17.64,0-12.64-10.25-22.89-22.89-22.89s-22.89,10.25-22.89,22.89c0,5.02,1.63,9.65,4.37,13.42-.04.09-.08.17-.12.26,1.16,1.55,2.53,2.93,4.03,4.15-.01.22-.07.42-.07.65v5.82c-57.66,7.22-102.29,56.39-102.29,116.01,0,64.59,52.36,116.96,116.96,116.96Zm0-274.34c9.43,0,17.08,7.65,17.08,17.08,0,2.95-.75,5.72-2.06,8.14-.07-.06-.13-.12-.19-.17-.74,1.41-1.68,2.69-2.77,3.83-1.82-2.01-4.43-3.29-7.36-3.29h-9.4c-3,0-5.66,1.35-7.49,3.45-3.02-3.08-4.89-7.3-4.89-11.96,0-9.43,7.65-17.08,17.08-17.08Z" style="fill: #e28a2b; mix-blend-mode: multiply; opacity: .19; stroke-width: 0px;"/>
            <g>
              <path d="m158.17,61.83c-55.99,0-101.37,45.39-101.37,101.37s45.39,101.37,101.37,101.37,101.37-45.39,101.37-101.37-45.39-101.37-101.37-101.37Z" style="fill: #ffefd2; stroke-width: 0px;"/>
              <g>
                <path d="m158.17,46.24c-64.59,0-116.96,52.36-116.96,116.96s52.36,116.96,116.96,116.96,116.96-52.36,116.96-116.96-52.36-116.96-116.96-116.96Zm0,216.01c-54.71,0-99.06-44.35-99.06-99.06s44.35-99.06,99.06-99.06,99.06,44.35,99.06,99.06-44.35,99.06-99.06,99.06Z" style="fill: #efaf3f; stroke-width: 0px;"/>
                <path d="m158.17,55.14c-59.68,0-108.06,48.38-108.06,108.06s48.38,108.06,108.06,108.06,108.06-48.38,108.06-108.06-48.38-108.06-108.06-108.06Zm0,207.12c-54.71,0-99.06-44.35-99.06-99.06s44.35-99.06,99.06-99.06,99.06,44.35,99.06,99.06-44.35,99.06-99.06,99.06Z" style="fill: #e28a2b; stroke-width: 0px;"/>
                <g style="clip-path: url(#clippath);">
                  <rect x="40.72" y="62.92" width="251.38" height="215.41" style="fill: url(#_未命名漸層_3); stroke-width: 0px;"/>
                  <rect x="24.65" y=".76" width="300.56" height="300.56" style="fill: #fffad8; stroke-width: 0px;"/>
                  <path d="m237.94,191.99h78.7l-10.84-5.09s2.54-4.52-2.54-9.61-12.82-3.2-12.82-3.2c0,0-1.32-9.61-8.95-10.27-8.95-.75-12.16,7.07-12.16,7.07,0,0-5.09-6.41-12.82-1.88s-4.52,10.84-4.52,10.84c0,0-5.09-3.2-10.84,1.32-4.62,3.58-3.2,10.84-3.2,10.84Z" style="fill: #fce29f; stroke-width: 0px;"/>
                  <path d="m46.61,124.6h78.7l-10.84-5.09s2.54-4.52-2.54-9.61c-5.09-5.09-12.82-3.2-12.82-3.2,0,0-1.32-9.61-8.95-10.27-8.95-.75-12.16,7.07-12.16,7.07,0,0-5.09-6.41-12.82-1.88-7.73,4.52-4.52,10.84-4.52,10.84,0,0-5.09-3.2-10.84,1.32-4.81,3.58-3.2,10.84-3.2,10.84Z" style="fill: #fce29f; stroke-width: 0px;"/>
                  <g>
                    <rect x="217.95" y="172.56" width="60.7" height="44.58" transform="translate(-66.15 222.07) rotate(-43.07)" style="fill: #fff; stroke-width: 0px;"/>
                    <path d="m243.97,184.82c2.26.09,4.52.28,6.69.66,1.79.28,4.52.38,6.13,1.23-.75-1.23-1.41-2.45-2.17-3.77v.66c.38-1.04.85-2.07,1.23-3.02-1.79,1.98-5.37,2.17-7.92,2.45-3.2.28-6.41.57-9.52,1.32-4.43,1.13-3.77,6.88,0,8.29,5.65,2.07,11.22,4.24,16.87,6.31-.66-2.45-1.23-4.81-1.88-7.26.38-.28-.09.09-.47.09h-1.32c-1.13,0-2.17-.09-3.3,0-2.54.19-4.81.94-6.6,2.83-1.88,1.98-1.6,5.47.85,6.79,1.41.75,2.83,1.51,4.34,2.36.66.38,1.32.66,1.88,1.04.28.19.66.38.94.47,1.13.75.94.09-.85-2.07.38-1.04.85-2.07,1.23-3.02.66-.38.47-.38-.66,0-.47.09-1.04.19-1.51.38-1.23.28-2.36.47-3.58.75-2.92.66-4.43,5.18-1.88,7.26,1.32,1.04,2.73,2.17,4.05,3.2,1.88,1.41,4.34,1.79,6.13,0,1.51-1.51,1.79-4.71,0-6.13-1.32-1.04-2.73-2.17-4.05-3.2-.66,2.45-1.23,4.81-1.88,7.26,3.96-.85,10.84-1.13,10.93-6.69.09-4.9-7.16-7.16-10.65-9.05.28,2.26.57,4.52.85,6.79.75-.85,3.77-.19,4.9-.19,2.64-.09,4.81-.85,6.79-2.64,2.64-2.36.85-6.13-1.88-7.26-5.65-2.07-11.22-4.24-16.87-6.31v8.29c4.24-1.13,8.67-.94,13.01-1.79,3.96-.85,9.71-3.02,9.42-7.92-.09-1.41-.75-3.02-2.17-3.77-5-2.45-11.69-2.73-17.15-3.02-5.37-.28-5.37,8.39.09,8.67h0Z" style="fill: #dc5a32; stroke-width: 0px;"/>
                  </g>
                  <polygon points="250.28 162.39 239.16 214.89 220.31 210.84 216.54 205.65 250.28 162.39" style="fill: #dfe1e0; stroke-width: 0px;"/>
                  <g>
                    <rect x="191.67" y="155.26" width="60.7" height="44.58" transform="translate(.86 356.16) rotate(-77.57)" style="fill: #fff; stroke-width: 0px;"/>
                    <path d="m216.83,171.35c1.98-1.51,4.15-2.83,6.41-3.96.57-.28,1.23-.57,1.88-.75,1.04-.28,1.13-.38.38-.19.75.47,1.41,1.88,1.79,2.64.28.47.47.85.75,1.32.38,1.32.66,1.23.94-.38.09.09-1.7.75-1.79.85-1.23.38-2.54.66-3.77.85-.75.09-1.41.09-2.17.19-1.41-.09-1.04.38,1.13,1.51v2.36c0-.09-1.32.57.09.57.09.09.19.28.28.38.09-.28.19-.57.28-.85-.47.28-.85.66-1.32.94-2.45,1.51-5.18,2.45-7.92,3.3-1.79.57-3.39,2.36-3.3,4.34.19,3.39,2.07,4.9,4.71,6.79,2.26,1.6,4.43,3.39,6.97,4.62,5.47,2.45,11.78-1.13,10.65-7.45-1.04-5.94-7.45-7.82-12.63-6.5-2.54.66-4.62,1.98-6.6,3.58-.47.38-2.07,1.41-2.17,1.6.19-.57.85,1.7.75.28,0-.57-.85-1.6-1.13-1.98-3.2-4.81-11.03-.28-7.82,4.52,1.79,2.73,2.92,5.28,6.5,5.94,3.3.66,6.31-.94,8.77-2.92,1.04-.85,1.88-1.7,3.11-2.17.38-.19.94-.38,1.41-.38,2.45-.19.28.09,1.04-.38-.66-1.04-.09-1.79,1.79-2.36-.19-.09-.47-.28-.66-.38-.47-.57-1.51-1.04-2.07-1.41-1.04-.75-3.58-1.88-4.34-3.02.19.75.38,1.51.66,2.26,0-.28,0-.47-.09-.75-1.13,1.41-2.17,2.92-3.3,4.34,4.43-1.41,9.9-3.11,13.19-6.6,3.49-3.58,2.83-8.77-.57-12.25-3.39-3.39-9.24-4.24-12.91-.75-3.77,3.49-2.83,9.99,2.45,11.4,4.15,1.13,10.46-.19,14.33-2.17,4.43-2.26,5.94-6.69,3.86-11.22-1.88-4.05-5-9.42-9.99-9.8-4.9-.28-10.46,3.39-14.23,6.22-1.98,1.51-2.92,3.86-1.6,6.13,1.23,2.07,4.34,3.2,6.22,1.7h0Z" style="fill: #fbc700; stroke-width: 0px;"/>
                  </g>
                  <g>
                    <g>
                      <polygon points="172.43 165.41 163.48 168.52 157.17 206.41 196.37 206.69 190.72 167.39 182.33 165.03 172.43 165.41" style="fill: #fbc700; stroke-width: 0px;"/>
                      <g>
                        <g>
                          <path d="m146.42,158.06c0-.85-.19-1.6-.66-2.26-.75-1.13-2.07-2.92-3.11-2.73-1.51.19-1.6,1.98-1.6,1.98,0,0-1.13-1.6-3.11-.47s-2.73,6.6-.94,8.39,4.43.94,4.43.94c0,0,1.51,1.13,3.3-.19,1.32-.94,1.6-3.96,1.7-5.65Z" style="fill: #f6c09c; stroke-width: 0px;"/>
                          <path d="m141.33,164.18h-.09c-.19-.09-.28-.19-.19-.38,0,0,1.13-3.68.75-5.84,0-.19.09-.38.28-.38s.38.09.38.28c.47,2.26-.66,5.94-.75,6.13,0,.09-.09.19-.38.19Z" style="fill: #d0805c; stroke-width: 0px;"/>
                        </g>
                        <path d="m164.42,168.05l-13.19,4.62-5.65-10.84-7.07,2.64s5.18,16.68,6.41,17.72,19.13,1.98,19.13,1.98c0,0,2.17-9.52.38-16.12Z" style="fill: #fbc700; stroke-width: 0px;"/>
                      </g>
                      <path d="m180.73,160.69l1.51,5.28s-4.24,2.45-9.9.38l1.51-5.37,6.88-.28Z" style="fill: #f6c09c; stroke-width: 0px;"/>
                    </g>
                    <path d="m190.72,167.39s7.16,3.96,16.12,14.42l-9.61,3.58-6.5-3.02v-14.99Z" style="fill: #fbc700; stroke-width: 0px;"/>
                    <g>
                      <path d="m192.7,198.58c5.56,3.86,14.42,6.6,25.26.47,12.44-6.97,11.12-22.15,3.11-25.92-6.31-3.02-11.03-.66-13.01,3.02s-2.54,5.94-7.54,5.47-8.95-.09-11.12,3.68c-2.64,4.62-.57,10.56,3.3,13.29Zm25.92-21.39c1.88.85,3.11,2.64,2.64,4.05-.47,1.32-2.45,1.79-4.34.94s-3.11-2.64-2.64-4.05c.57-1.41,2.45-1.79,4.34-.94Z" style="fill: #daab50; stroke-width: 0px;"/>
                      <path d="m201.65,192.93c-2.36.38.38-1.41-4.05-1.51-4.43-.19-4.24-2.17-1.79-3.86,2.36-1.7,6.03-3.68,7.35-1.98s4.9.66,3.49,3.3c-1.41,2.54-2.92,3.77-5,4.05Z" style="fill: #76ab39; stroke-width: 0px;"/>
                      <path d="m208.63,191.14c-2.92.85-6.79.94-5.47-.75s.57-1.13-1.13-3.2,2.83-2.83,5.28-3.68.75,1.79,2.83,3.02c1.98,1.23,2.45,3.39-1.51,4.62Z" style="fill: #fbc700; stroke-width: 0px;"/>
                    </g>
                    <path d="m221.73,187.93c.09,1.51-1.6,2.83-3.58,2.92-2.07.09-3.77-1.13-3.77-2.64-.09-1.51,1.6-2.83,3.58-2.92,1.98,0,3.58,1.13,3.77,2.64Z" style="fill: #76ab39; stroke-width: 0px;"/>
                    <path d="m216.07,194.34c.09,1.51-1.6,2.83-3.58,2.92-2.07.09-3.77-1.13-3.77-2.64-.09-1.51,1.6-2.83,3.58-2.92,2.07-.09,3.77,1.04,3.77,2.64Z" style="fill: #fbc700; stroke-width: 0px;"/>
                    <path d="m206.74,196.6c.09,1.51-1.6,2.83-3.58,2.92-2.07.09-3.77-1.13-3.77-2.64-.09-1.51,1.6-2.83,3.58-2.92,1.98-.09,3.77,1.13,3.77,2.64Z" style="fill: #fff; stroke-width: 0px;"/>
                    <path d="m215.41,177.28s5.75-.94,6.5,1.04-6.03,3.11-6.03,3.11c0,0-4.52-2.73-.47-4.15Z" style="fill: #f6c09c; stroke-width: 0px;"/>
                    <g>
                      <polygon points="132.66 141 138.69 139.11 139.26 143.54 138.5 145.24 136.15 145.9 134.45 144.96 132.66 141" style="fill: #c68034; stroke-width: 0px;"/>
                      <path d="m138.5,144.86l10.18,34.31c.09.47-.09.94-.57,1.13h0c-.47.19-.94-.09-1.13-.57l-11.31-33.93,2.83-.94Z" style="fill: #c68034; stroke-width: 0px;"/>
                      <g>
                        <path d="m138.69,139.11s-.19-4.71-1.98-9.05l-7.82,2.45s2.07,2.54,3.86,8.39l5.94-1.79Z" style="fill: #fff; stroke-width: 0px;"/>
                        <g style="clip-path: url(#clippath-1);">
                          <path d="m130.21,136.47c1.51,1.04,2.17.66,3.02-.28.94-.94,1.79-.85,2.54-.66.85.19,1.23-.94,2.17-1.41l.85-.47-1.23-4.34-9.61,3.11,2.26,4.05Z" style="fill: #569a36; stroke-width: 0px;"/>
                        </g>
                        <g style="clip-path: url(#clippath-2);">
                          <path d="m132.28,135.72q-.09,0,0,0c-.19.09-.28,0-.38-.09,0,0-1.04-2.64-2.64-4.43-.09-.09-.09-.28,0-.38.09-.09.28-.09.38,0,1.7,1.88,2.64,4.52,2.73,4.62,0,.09,0,.19-.09.28Z" style="fill: #308539; stroke-width: 0px;"/>
                        </g>
                        <g style="clip-path: url(#clippath-3);">
                          <path d="m133.51,135.34h0c-.19.09-.28,0-.38-.09,0,0-1.04-2.64-2.64-4.43-.09-.09-.09-.28,0-.38.09-.09.28-.09.38,0,1.7,1.88,2.64,4.52,2.73,4.62,0,.09,0,.19-.09.28Z" style="fill: #308539; stroke-width: 0px;"/>
                        </g>
                        <g style="clip-path: url(#clippath-4);">
                          <path d="m134.74,134.87h0c-.19.09-.28,0-.38-.09,0,0-1.04-2.64-2.64-4.43-.09-.09-.09-.28,0-.38.09-.09.28-.09.38,0,1.7,1.88,2.64,4.52,2.73,4.62.09.09-.09.28-.09.28Z" style="fill: #308539; stroke-width: 0px;"/>
                        </g>
                        <g style="clip-path: url(#clippath-5);">
                          <path d="m136.05,134.49s-.09,0,0,0c-.19.09-.28,0-.38-.09,0,0-1.04-2.64-2.64-4.43-.09-.09-.09-.28,0-.38.09-.09.28-.09.38,0,1.7,1.88,2.64,4.52,2.73,4.62,0,.09,0,.19-.09.28Z" style="fill: #308539; stroke-width: 0px;"/>
                        </g>
                        <g style="clip-path: url(#clippath-6);">
                          <path d="m137.28,134.12h0c-.19.09-.28,0-.38-.09,0,0-1.04-2.64-2.64-4.43-.09-.09-.09-.28,0-.38.09-.09.28-.09.38,0,1.7,1.88,2.64,4.52,2.73,4.62,0,.09,0,.19-.09.28Z" style="fill: #308539; stroke-width: 0px;"/>
                        </g>
                      </g>
                    </g>
                    <path d="m141.52,153.91c-2.07,2.45-3.02,5.75-1.32,5.84,1.7.19,3.58-2.26,3.58-2.26l-2.26-3.58Z" style="fill: #f6c09c; stroke-width: 0px;"/>
                    <path d="m137.09,153.63c3.77-1.04,5.94,8.39,2.07,9.52-3.77,1.13-5.37-8.48-2.07-9.52Z" style="fill: #f6c09c; stroke-width: 0px;"/>
                  </g>
                  <g>
                    <g>
                      <path d="m178.47,118.19c9.42-2.17,22.34-1.32,23.47,9.05,1.04,10.37-8.39,14.8-13.76,16.96-5.37,2.17-22.24,2.26-28.37-3.39s-10.46-13.85-4.43-20.55c8.01-9.05,23.09-2.07,23.09-2.07Z" style="fill: #dc5a32; stroke-width: 0px;"/>
                      <path d="m178.47,120.92h0c-.57.09-1.04-.19-1.13-.75,0-.19-1.13-5.28,2.92-9.33.38-.38.94-.38,1.32,0s.38.94,0,1.32c-3.3,3.3-2.45,7.35-2.45,7.54.19.57-.09,1.13-.66,1.23Z" style="fill: #dc5a32; stroke-width: 0px;"/>
                    </g>
                    <path d="m176.2,121.11c10.56-2.36,18.85,2.92,22.71,12.16,3.86,9.24-1.23,21.21-5.94,23.75-4.81,2.54-26.77,5.28-32.42.09-5.65-5.18-9.9-16.59-5.37-25.26,7.35-13.95,21.02-10.74,21.02-10.74Z" style="fill: #de913a; stroke-width: 0px;"/>
                    <g>
                      <path d="m193.64,144.3c3.49-1.7,8.2,1.88,6.22,6.6-2.07,4.71-5.47,4.43-5.47,4.43l-1.98-4.62,1.23-6.41Z" style="fill: #f6c09c; stroke-width: 0px;"/>
                      <g>
                        <path d="m192.89,135.06c2.83,2.83,3.11,9.14,1.13,14.51,0,0,1.88,2.83.66,5.75-1.7,4.05-8.11,7.54-17.06,7.82-8.86.28-13.95-2.45-16.12-4.15-2.54-2.07-3.11-6.03-1.88-7.35,0,0-3.02-5.84-1.51-11.4,1.51-5.56,7.63-9.71,16.3-10.93,8.77-1.13,15.36,2.54,18.47,5.75Z" style="fill: #f6c09c; stroke-width: 0px;"/>
                        <path d="m175.54,150.8h-.09c-.19-.09-.28-.28-.19-.38.19-.38.94-2.17,1.98-2.26,1.04-.09,1.98,1.79,2.17,2.07.09.19,0,.38-.19.47s-.38,0-.47-.19c-.38-.75-1.04-1.79-1.51-1.7-.47,0-1.13,1.13-1.41,1.88-.09,0-.09.09-.28.09Z" style="fill: #da842e; stroke-width: 0px;"/>
                        <g>
                          <path d="m184.5,143.16c4.81-.19,4.62,7.07.28,7.26-4.34.09-4.43-7.16-.28-7.26Z" style="fill: #fff; stroke-width: 0px;"/>
                          <path d="m184.69,144.58c3.11-.19,2.92,4.81.94,5.37-1.51.47-2.36-.19-2.73-.94-.57-.85-1.04-4.24,1.79-4.43Z" style="fill: #0097a0; stroke-width: 0px;"/>
                          <path d="m188.27,146.18c-.09,0-.28-.09-.28-.19-.57-1.51-1.41-2.45-2.45-2.83-1.04-.28-2.07.09-2.64.47-.19.09-.38.09-.47-.09-.09-.19-.09-.38.09-.47.75-.57,1.98-.94,3.2-.57.85.28,2.07,1.04,2.83,3.2.09.19,0,.38-.19.38q.09.09-.09.09Z" style="fill: #da842e; stroke-width: 0px;"/>
                        </g>
                        <g>
                          <path d="m169.42,143.73c-4.81-.28-4.81,7.07-.38,7.26,4.34.19,4.62-7.07.38-7.26Z" style="fill: #fff; stroke-width: 0px;"/>
                          <path d="m169.61,145.14c-3.11-.19-3.2,4.52-1.32,5.28,1.13.47,2.26,0,2.83-.75.85-.94,1.04-4.43-1.51-4.52Z" style="fill: #0097a0; stroke-width: 0px;"/>
                          <path d="m165.65,146.65h-.09c-.19-.09-.28-.28-.19-.38.85-2.17,2.07-2.92,2.92-3.11,1.23-.38,2.45.09,3.2.66.19.09.19.28.09.47-.09.19-.28.19-.47.09-.57-.47-1.6-.85-2.64-.57-1.04.28-1.88,1.23-2.45,2.73-.19.09-.38.09-.38.09Z" style="fill: #da842e; stroke-width: 0px;"/>
                        </g>
                      </g>
                      <path d="m194.58,155.7h0c-.28-.09-.38-.19-.28-.38.66-2.83-.57-5.56-.66-5.56v-.19l1.32-5.56c0-.19.19-.28.38-.28s.28.19.28.38l-1.23,5.47c.28.57,1.32,3.11.57,5.84-.09.19-.09.28-.38.28Z" style="fill: #d0805c; stroke-width: 0px;"/>
                      <path d="m197.88,148.07s-2.45-1.23-3.86,1.41l.57-1.98c0,.09,1.7-1.32,3.3.57Z" style="fill: #da842e; stroke-width: 0px;"/>
                      <path d="m159.99,145.43c-3.58-1.41-8.11,2.45-5.65,7.07,2.36,4.52,5.84,4.05,5.84,4.05l1.7-4.71-1.88-6.41Z" style="fill: #f6c09c; stroke-width: 0px;"/>
                      <path d="m159.62,156.93c-.09,0-.28-.09-.28-.19-.85-2.73,0-5.37.19-5.94l-1.6-5.37c-.09-.19,0-.38.19-.38.19-.09.38,0,.38.19l1.7,5.47v.19s-1.13,2.83-.19,5.56c.09.19,0,.38-.19.38q-.09.09-.19.09Z" style="fill: #d0805c; stroke-width: 0px;"/>
                      <path d="m155.94,149.57s2.36-1.41,3.96,1.23l-.66-1.98s-1.88-1.32-3.3.75Z" style="fill: #da842e; stroke-width: 0px;"/>
                    </g>
                    <path d="m159.43,148.16s-2.07-2.17-2.54-4.52c-.75-3.49-.38-16.3,17.06-17.91,20.36-1.88,24.13,9.8,23.37,15.74-.28,2.36-2.17,5-2.17,5l-1.51-6.22-12.82-8.77s1.32,5.37,2.83,6.22c-3.96-.19-8.58-1.98-11.12-6.5,0,0-4.15,5.09-12.44,13.29l-.66,3.68Z" style="fill: #de913a; stroke-width: 0px;"/>
                    <path d="m172.72,152.87s3.39,1.13,8.67.09c0,0-1.41,6.13-4.43,6.22-3.58.09-4.24-6.31-4.24-6.31Z" style="fill: #e95c3a; stroke-width: 0px;"/>
                    <path d="m154.06,132.89s8.86-9.9,23.47-8.77c14.61,1.04,21.49,9.14,21.49,9.14,0,0,0-12.91-21.21-13.38-19.79-.47-23.75,13.01-23.75,13.01Z" style="fill: #dc5a32; stroke-width: 0px;"/>
                  </g>
                  <path d="m301.18,112.06s8.2,9.24,3.39,18.85c-4.9,9.61-11.69,7.54-13.01,21.49-1.13,11.22-5.84,17.81-13.48,18.66-13.01,1.41-15.36-24.03,4.34-32.52,8.01-3.49,15.27-8.95,14.04-25.07l4.71-1.41Z" style="fill: #e95c3a; stroke-width: 0px;"/>
                  <g>
                    <g>
                      <g>
                        <path d="m304,98.96s-4.15-22.71-10.37-34.49l-20.17,9.71s13.29,18.1,14.33,29.41l16.21-4.62Z" style="fill: #cccfcf; stroke-width: 0px;"/>
                        <g style="clip-path: url(#clippath-7);">
                          <polygon points="304.48 93.78 283.27 100.56 273.66 80.4 299.76 68.71 304.48 93.78" style="fill: #e95c3a; stroke-width: 0px;"/>
                        </g>
                      </g>
                      <polygon points="304 98.96 300.71 106.5 293.35 108.1 287.79 103.58 304 98.96" style="fill: #b2b2b2; stroke-width: 0px;"/>
                      <polygon points="300.71 106.5 302.78 112.35 294.77 114.23 293.35 108.1 300.71 106.5" style="fill: #cccfcf; stroke-width: 0px;"/>
                      <polygon points="273.56 74.18 269.89 71.44 291 61.17 293.64 64.47 273.56 74.18" style="fill: #b2b2b2; stroke-width: 0px;"/>
                    </g>
                    <path d="m298.16,91.52c-.66,0-1.32-.47-1.51-1.23,0-.09-2.92-10.93-6.31-19.13-.38-.85,0-1.7.85-2.07.85-.38,1.7,0,2.07.85,3.49,8.39,6.31,19.13,6.41,19.51.19.85-.28,1.7-1.13,1.98-.19.09-.38.09-.38.09Z" style="fill: #fff; stroke-width: 0px;"/>
                  </g>
                  <g style="clip-path: url(#clippath-8);">
                    <g>
                      <g>
                        <g>
                          <path d="m294.77,233.27c10.84,6.13,18.38-12.82,12.16-24.88-13.29,6.22-21.96,19.32-12.16,24.88Z" style="fill: #71b939; stroke-width: 0px;"/>
                          <path d="m289.68,247.87c2.92,12.06,21.87,4.71,26.48-8.11-11.69-6.5-29.12-2.83-26.48,8.11Z" style="fill: #71b939; stroke-width: 0px;"/>
                          <path d="m281.86,243.63c12.35-1.23,7.63-21.02-4.34-27.33-8.2,10.74-6.79,28.56,4.34,27.33Z" style="fill: #71b939; stroke-width: 0px;"/>
                          <path d="m269.13,258.62c12.35-1.23,7.63-21.02-4.34-27.33-8.2,10.74-6.97,28.46,4.34,27.33Z" style="fill: #71b939; stroke-width: 0px;"/>
                          <path d="m275.26,265.88c2.92,12.06,21.87,4.71,26.48-8.11-13.01-6.6-29.12-2.83-26.48,8.11Z" style="fill: #71b939; stroke-width: 0px;"/>
                          <path d="m255,273.98c-.28,0-.57-.19-.75-.47-.28-.38-.09-.94.28-1.23,32.42-19.98,43.64-48.73,43.73-49.01.19-.47.66-.66,1.13-.57.47.19.66.66.57,1.13-.09.28-11.5,29.5-44.49,49.86,0,.28-.28.28-.47.28Z" style="fill: #40a240; stroke-width: 0px;"/>
                          <path d="m267.25,266.16c-.19,0-.47-.09-.66-.28-.19-.19-.28-.47-.28-.75l1.23-18.85c0-.47.47-.85.94-.85s.85.47.85.94l-1.23,17.81,18.66-2.54c.47-.09.94.28,1.04.75s-.28.94-.75,1.04l-19.79,2.73h0Z" style="fill: #40a240; stroke-width: 0px;"/>
                          <path d="m283.27,249.76c-.19,0-.38-.09-.57-.19-.19-.19-.38-.38-.38-.66l-1.04-13.67c0-.47.38-.94.85-.94s.94.38.94.85l.94,12.63,15.27-3.58c.47-.09.94.19,1.04.66s-.19.94-.66,1.04l-16.3,3.86q.09,0-.09,0Z" style="fill: #40a240; stroke-width: 0px;"/>
                        </g>
                        <g>
                          <path d="m94.3,269.36c-4.34-7.73-9.05-20.36-14.61-30.91-.94-1.79-3.11-2.83-5-2.26-4.34,1.23-1.79,7.54-3.39,11.4-1.23-5.37-3.49-10.46-6.41-15.08-1.6-2.45-3.77-5-6.69-5.18s-5.75,3.58-3.68,5.75c-3.3-5.94-7.35-11.5-12.16-16.3-1.7-1.7-3.77-3.49-6.31-2.73-1.51.47-2.64,1.7-3.11,3.2-.94,2.92.19,5.84,1.41,8.48,3.39,7.26,7.92,14.04,13.48,19.79-2.36-1.88-4.9-3.68-7.45-5.28-1.51-.94-3.2-1.88-5-.75-.85.57-1.41,1.41-1.7,2.36-.66,2.36.47,4.62,1.7,6.6,5.56,8.48,15.17,13.19,24.32,17.53,0,0-.09,0-.09-.09-5.37-2.92-13.57,1.51-5.28,8.48,4.43,3.77,9.99,6.03,15.46,7.82,8.48,2.64,17.34,3.68,26.11,4.62l-1.6-17.44Z" style="fill: #71b939; stroke-width: 0px;"/>
                          <g style="clip-path: url(#clippath-9);">
                            <path d="m100.43,282.28c-.09,0-.28,0-.38-.09-31.01-13.57-59.38-53.72-59.66-54.1s-.19-.94.19-1.23.94-.19,1.23.19,28.37,40.15,58.91,53.53c.47.19.66.75.47,1.23-.19.19-.38.47-.75.47Z" style="fill: #40a240; stroke-width: 0px;"/>
                          </g>
                        </g>
                        <g>
                          <circle cx="174.32" cy="300.47" r="102.17" style="fill: #8dcfdf; stroke-width: 0px;"/>
                          <g style="clip-path: url(#clippath-10);">
                            <g>
                              <path d="m131.25,199.71c8.2-1.23,15.83,5.65,18.47,13.48,2.54,7.92,1.41,16.4.09,24.6-.47,3.11-1.32,6.79-4.24,8.01-3.86,1.7-7.92-2.26-9.33-6.13-1.41-3.96-1.79-8.48-4.71-11.5-3.96-4.15-11.22-3.11-15.65.47-4.43,3.68-6.69,9.14-8.86,14.51,4.52-1.04,9.52,2.54,9.9,7.16.09,1.41,0,3.11,1.13,3.96,1.79,1.32,3.86-1.13,5.94-2.17,3.58-1.88,8.01,1.7,8.67,5.65s-1.23,7.82-3.02,11.4c-1.04,2.07-2.26,4.24-4.34,5.28-3.86,1.79-7.92-1.32-11.5-3.58s-9.61-2.83-10.84,1.23c1.7,7.63,2.92,17.06-3.11,22.05-2.45,2.07-5.65,2.92-8.48,4.43-7.82,4.43-11.12,13.76-16.02,21.3-1.32,1.98-3.58,4.15-5.84,3.3-1.51-.57-2.26-2.07-2.83-3.49-9.42-23.75-.57-50.71,10.74-73.61,5.84-11.88,12.44-23.66,22.15-32.7,9.71-9.05,23-14.99,36.1-13.29" style="fill: #35ab40; stroke-width: 0px;"/>
                              <path d="m185.91,207.91c-1.98,1.13-3.68,2.45-4.9,4.43-.75,1.23-1.13,2.54-1.13,3.96.09,3.77,3.11,5.28,5.75,6.88,4.34,2.73,8.01,6.5,10.56,10.93.47.85.94,1.79.94,2.73-.09,1.51-1.23,2.64-2.36,3.58-2.26,1.98-4.43,3.96-6.69,5.94-3.86,3.39-7.82,6.97-8.86,12.25-.47,2.45-.09,5.09,1.32,7.16,3.68,5.09,10.74,3.39,15.17,0,3.96-3.02,6.97-7.26,11.31-9.71,9.61-5.47,21.58-.66,32.23,2.26,2.83.75,5.84,1.41,8.67.66,4.34-1.13,7.63-5.47,12.06-5.84,3.11-.28,6.41,1.23,9.05-1.41,1.13-1.13,1.79-2.83,1.79-4.43.09-3.49-1.88-6.5-3.86-9.14-14.99-20.17-36.47-35.25-60.51-42.51-5.09-1.51-10.46-.66-14.99,2.17-.57.38-1.32.47-2.07.38-2.83-.28-4.52,2.92-2.73,5.09h0c1.32,1.41.85,3.68-.75,4.62Z" style="fill: #35ab40; stroke-width: 0px;"/>
                              <path d="m284.68,265.03c-5.56,1.04-11.31-3.96-16.49-1.79-5.75,2.36-4.9,10.93-9.52,14.89-5.75,4.9-14.8-.19-22.43.85-6.5.85-11.31,6.22-14.8,11.59-6.31,9.61-10.56,21.49-7.16,32.42.38,1.23,1.04,2.54,2.26,3.11,1.41.57,3.02-.09,4.34-.85,4.34-2.36,8.48-5.18,12.16-8.39,1.13-.94,2.26-1.98,3.68-2.17,2.83-.47,5.09,1.88,6.88,4.05,6.31,7.35,15.46,14.23,25.26,12.35,10.56-2.07,15.83-13.29,18.19-23.28s3.2-20.26,2.73-30.44c-.28-5.09-2.36-11.59-7.63-11.78" style="fill: #35ab40; stroke-width: 0px;"/>
                            </g>
                          </g>
                          <g style="clip-path: url(#clippath-11);">
                            <path d="m228.79,210.27s45.14,52.5,19.98,119.6c-24.79,66.07-88.12,74.55-88.12,74.55,0,0,89.16,12.63,116.49-73.42s-48.35-120.73-48.35-120.73Z" style="fill: #74bfd8; isolation: isolate; opacity: .56; stroke-width: 0px;"/>
                          </g>
                        </g>
                      </g>
                      <g>
                        <g>
                          <path d="m55.76,113.85c-2.07-8.2-12.44-11.5-20.73-10.08s-15.83,5.94-24.13,7.63c-10.84,2.26-23.09-1.04-29.97-9.61-6.97-8.58-7.07-22.53.85-30.16,3.77-3.58,8.77-5.56,12.54-9.05C-1.17,58.34,1.19,52.03.71,45.9c-.38-3.77-1.7-7.35-1.88-11.12-.57-10.84,7.35-22.53,17.81-25.64,23.94-7.16,26.95,10.84,37.7,15.55,6.79,2.92,14.8.85,21.87,3.02,10.56,3.2,16.4,16.87,11.4,26.77-5.18,10.18-13.01,16.49-20.55,25.07-8.11,9.33-7.63,17.81-5.56,31.29l-5.75,3.02Z" style="fill: #6cc4d2; stroke-width: 0px;"/>
                          <path d="m68.48,46.37c-3.3-4.05-3.96-9.05-1.41-11.12s7.26-.47,10.56,3.58,3.96,9.05,1.41,11.12-7.26.47-10.56-3.58Z" style="fill: #fff; stroke-width: 0px;"/>
                        </g>
                        <g>
                          <polygon points="63.58 130.82 74.42 123.37 78.28 131.95 77.81 135.81 73.66 138.74 69.33 137.79 63.58 130.82" style="fill: #df923a; stroke-width: 0px;"/>
                          <path d="m77.81,135.06l42.13,63.71c.57.85.38,1.98-.47,2.54h0c-.85.57-1.98.38-2.64-.47l-44.2-62.3,5.18-3.49Z" style="fill: #df923a; stroke-width: 0px;"/>
                          <g>
                            <path d="m74.42,123.37s-1.98-12.82-9.52-17.25l-14.33,9.9s5.75,3.86,13.01,14.8l10.84-7.45Z" style="fill: #fff; stroke-width: 0px;"/>
                            <g style="clip-path: url(#clippath-12);">
                              <path d="m55.85,123.84c5.47.47,5-2.26,6.88-5,1.79-2.73,3.2-.94,5.94-2.26,2.73-1.41,2.26-7.35,2.26-7.35l-5.94-5.47-17.34,11.88,9.61,8.67" style="fill: #6cc4d2; stroke-width: 0px;"/>
                            </g>
                          </g>
                        </g>
                      </g>
                    </g>
                  </g>
                  <rect x="112.59" y="235.26" width="27.05" height="3.96" transform="translate(-95.27 85) rotate(-27.49)" style="fill: #de913a; stroke-width: 0px;"/>
                  <polygon points="125.31 219.03 147.46 235.25 141.99 238.17 120.03 221.49 125.31 219.03" style="fill: #de913a; stroke-width: 0px;"/>
                  <polygon points="116.92 251.17 111.64 253.91 111.27 224.22 116.45 221.49 116.92 251.17" style="fill: #de913a; stroke-width: 0px;"/>
                  <polygon points="83.37 169.74 136.43 240.99 131.44 243.54 78.47 172.19 83.37 169.74" style="fill: #de913a; stroke-width: 0px;"/>
                  <rect x="66.96" y="172.46" width="72.29" height="51.84" transform="translate(-79.93 69.99) rotate(-27.49)" style="fill: #fff; stroke-width: 0px;"/>
                  <path d="m97.22,206.88c-.94-2.26-1.79-4.52-2.45-6.88-.57-1.88-1.6-4.52-1.6-6.5-.47,1.04-.85,2.17-1.32,3.2.09-.09.19-.19.38-.28-1.04.47-2.17.85-3.2,1.32-1.13,0,0,.28.38.66.57.47,1.13,1.13,1.6,1.7.85,1.04,1.51,2.26,2.26,3.49,1.7,2.83,3.3,5.56,5.47,8.11,2.45,2.92,8.01.57,7.73-3.2-.47-5.94-.94-11.97-1.51-17.91-1.88,1.41-3.77,2.92-5.75,4.34-1.23-.47.09.66.38,1.32.47,1.04.85,2.17,1.41,3.2,1.23,2.36,3.11,4.05,5.75,4.9,2.92.94,5.56-1.51,5.75-4.34.09-1.41.19-2.92.19-4.34,0-.57-.09-3.02,0-3.3-.94.66-1.79,1.41-2.73,2.07.19,0,.47-.09.66-.09-1.13-.19-2.36-.28-3.49-.47,1.32.75,2.64,3.2,3.49,4.43,2.17,2.83,7.26,3.11,8.2-1.04.38-1.7.75-3.39,1.13-5.09,1.32-5.65-7.45-8.11-8.67-2.36-.38,1.7-.75,3.39-1.13,5.09,2.73-.38,5.47-.75,8.2-1.04-2.73-3.49-6.03-10.08-11.5-7.73-4.62,1.98-3.49,9.99-3.68,14.04,1.88-1.41,3.77-2.92,5.75-4.34-.38-.09-1.51-3.39-1.88-4.15-1.32-2.54-3.02-4.05-5.65-5.18s-5.94,1.7-5.75,4.34c.47,5.94.94,11.97,1.51,17.91,2.54-1.04,5.09-2.17,7.73-3.2-4.43-5.28-6.5-13.19-13.38-16.12-4.34-1.79-8.2,1.41-7.45,6.03.75,4.81,2.45,9.52,4.24,14.04.94,2.26,3.02,3.86,5.56,3.11,2.36-.75,4.34-3.49,3.39-5.75h0Z" style="fill: #7ab236; stroke-width: 0px;"/>
                  <rect x="77.72" y="220.28" width="76.15" height="3.49" transform="translate(-89.41 78.52) rotate(-27.49)" style="fill: #de913a; stroke-width: 0px;"/>
                </g>
              </g>
              <path d="m158.17,0c-12.64,0-22.89,10.25-22.89,22.89s10.25,22.89,22.89,22.89,22.89-10.25,22.89-22.89S170.82,0,158.17,0Zm0,39.97c-9.43,0-17.08-7.65-17.08-17.08s7.65-17.08,17.08-17.08,17.08,7.65,17.08,17.08-7.65,17.08-17.08,17.08Z" style="fill: #efaf3f; stroke-width: 0px;"/>
              <path d="m173,30.86c-2.86,5.42-8.55,9.11-15.11,9.11s-11.87-3.46-14.82-8.59c-1.56,1.41-2.78,3.19-3.54,5.19,4.17,5.59,10.84,9.21,18.36,9.21s14.8-3.97,18.92-10.01c-.87-1.93-2.18-3.61-3.81-4.92Z" style="fill: #e28a2b; stroke-width: 0px;"/>
              <path d="m153.47,31.39h9.4c5.5,0,9.97,4.47,9.97,9.97v10.48h-29.34v-10.48c0-5.5,4.47-9.97,9.97-9.97Z" style="fill: #efaf3f; stroke-width: 0px;"/>
            </g>
          </g>
          <circle cx="18.22" cy="163.2" r="18.22" style="fill: #efaf3f; stroke-width: 0px;"/>
          <path d="m33.93,156.59c-2.35.33-2.7.64-3.61,3.38-1.06,3.2-3.7,11.59-5.59,17.72h-1.27c-1.73-5.14-3.91-11.32-5.68-16.28-1.9,5.62-3.82,11.19-5.53,16.28h-1.25c-1.61-5.56-3.56-11.93-5.37-17.79-.86-2.68-1.25-3.08-3.4-3.31v-.99h8.58v.99c-2.48.26-2.55.65-2.08,2.34,1.27,4.39,2.57,8.74,3.9,13.26,1.81-5.21,3.75-10.88,5.42-16.31h1.2c1.87,5.58,3.74,10.8,5.66,16.34,1.37-4.29,3.22-10.18,3.91-12.9.5-1.94.22-2.41-2.63-2.72v-.99h7.74v.99Z" style="fill: #fff5e6; stroke-width: 0px;"/>
          <circle cx="158.31" cy="22.97" r="18.22" style="fill: #efaf3f; stroke-width: 0px;"/>
          <path d="m170.27,13.12c-2.12.24-2.81.59-2.91,2.12-.05,1.11-.12,2.47-.12,5.54v13.38h-1.38l-14.24-17.34v8.21c0,2.99.09,4.46.17,5.43.08,1.66.89,2.21,3.31,2.4v.99h-8.15v-.99c2.04-.17,2.85-.67,3-2.29.11-1.09.17-2.54.17-5.56v-8.41c0-.97-.07-1.54-.67-2.3-.63-.84-1.35-1.02-2.94-1.18v-.99h5.28l13.91,16.45v-7.8c0-3.07-.06-4.45-.16-5.49-.1-1.49-.83-2-3.52-2.17v-.99h8.25v.99Z" style="fill: #fff5e6; stroke-width: 0px;"/>
          <circle cx="296.78" cy="163.06" r="18.22" style="fill: #efaf3f; stroke-width: 0px;"/>
          <path d="m306.38,170.18c-.19.88-1.1,4.39-1.43,5.38h-16.44v-.98c3.1-.25,3.32-.52,3.32-3.27v-13.12c0-2.95-.37-3.12-2.84-3.35v-.99h10.34c3.21,0,4.49-.03,4.9-.07.03.79.17,3.34.31,5.17l-1.06.17c-.3-1.14-.68-1.96-1.08-2.64-.55-1.02-1.25-1.25-3.21-1.25h-2.99c-1.08,0-1.16.09-1.16,1.09v7.31h3.63c2.39,0,2.59-.5,3.01-2.79h1.08v6.99h-1.08c-.45-2.42-.72-2.76-3.04-2.76h-3.6v6.49c0,2.33.61,2.62,2.36,2.66h2.98c2.01,0,2.37-.29,3.11-1.16.67-.75,1.37-2.1,1.85-3.12l1.04.27Z" style="fill: #fff5e6; stroke-width: 0px;"/>
          <circle cx="159.12" cy="300.72" r="18.22" style="fill: #efaf3f; stroke-width: 0px;"/>
          <path d="m163.23,296.5c-.51-1.91-1.32-3.84-4.04-3.84-2.16,0-3,1.57-3,3.1,0,1.93,1.24,2.94,3.68,4.19,3.42,1.75,5.01,3.12,5.01,5.9,0,3.12-2.68,5.47-6.5,5.47-1.76,0-3.3-.49-4.52-.95-.22-.79-.6-2.95-.8-4.48l.94-.24c.58,1.92,1.92,4.57,4.91,4.57,2.03,0,3.27-1.39,3.27-3.27,0-2.14-1.16-3.05-3.7-4.43-3.04-1.65-4.8-3.05-4.8-5.81s2.19-5.1,6.12-5.1c1.69,0,3.28.44,3.89.55.12,1.05.25,2.27.48,4.15l-.94.19Z" style="fill: #fff5e6; stroke-width: 0px;"/>
        </g>
      </g>
    </g>
  </g>
</svg>