<?xml version="1.0" encoding="UTF-8"?>
<svg id="_圖層_2" data-name="圖層 2" xmlns="http://www.w3.org/2000/svg" width="384.22" height="347.64" viewBox="0 0 384.22 347.64">
  <g id="_圖層_8" data-name="圖層 8">
    <g id="teaching_methods" data-name="teaching methods">
      <g>
        <g>
          <ellipse cx="172.58" cy="247.99" rx="172.58" ry="99.64" style="fill: #adcd77; stroke-width: 0px;"/>
          <ellipse cx="172.58" cy="236.89" rx="172.58" ry="99.64" style="fill: #dbf9ac; stroke-width: 0px;"/>
        </g>
        <g>
          <g>
            <g>
              <g>
                <g style="isolation: isolate;">
                  <polygon points="201.18 170.68 201.16 173.13 118.02 221.29 118.04 218.82 201.18 170.68" style="fill: #eb3c3c; stroke-width: 0px;"/>
                  <polygon points="118.04 218.82 118.02 221.29 61.44 188.61 61.44 186.15 118.04 218.82" style="fill: #eb3c3c; stroke-width: 0px;"/>
                  <polygon points="201.18 170.68 118.04 218.82 61.44 186.15 144.59 130.25 201.18 170.68" style="fill: #b83c2c; stroke-width: 0px;"/>
                </g>
                <polygon points="67.83 168.73 62.19 166.04 62.19 185.44 67.83 189.49 67.83 168.73" style="fill: #b83c2c; stroke-width: 0px;"/>
                <g style="isolation: isolate;">
                  <polygon points="196.14 154.08 196.11 171.52 118.02 216.75 118.04 199.31 196.14 154.08" style="fill: #b6cfe6; stroke-width: 0px;"/>
                  <polygon points="65.91 169.25 65.91 186.7 118.02 216.75 118.04 199.31 65.91 169.25" style="fill: #f5f5f5; stroke-width: 0px;"/>
                  <polygon points="143.61 123.75 68.74 167.09 68.74 170.85 118.04 199.31 196.14 154.08 143.61 123.75" style="fill: #eee; stroke-width: 0px;"/>
                </g>
                <g style="isolation: isolate;">
                  <polygon points="201.18 148.71 201.16 151.17 118.02 199.33 118.04 196.85 201.18 148.71" style="fill: #eb3c3c; stroke-width: 0px;"/>
                  <polygon points="118.04 196.85 118.02 199.33 61.44 166.65 61.44 164.19 118.04 196.85" style="fill: #eb3c3c; stroke-width: 0px;"/>
                  <polygon points="201.18 148.71 118.04 196.85 61.44 164.19 144.59 116.03 201.18 148.71" style="fill: #ff6958; stroke-width: 0px;"/>
                </g>
                <polygon points="64.04 188.98 61.44 187.64 61.44 165.18 64.04 166.78 64.04 188.98" style="fill: #eb3c3c; stroke-width: 0px;"/>
              </g>
              <g>
                <g style="isolation: isolate;">
                  <polygon points="185.87 145.95 185.85 147.83 121.83 184.92 121.83 183.02 185.87 145.95" style="fill: #f39441; stroke-width: 0px;"/>
                  <polygon points="121.83 183.02 121.83 184.92 78.25 159.76 78.26 157.87 121.83 183.02" style="fill: #f39441; stroke-width: 0px;"/>
                  <polygon points="185.87 145.95 121.83 183.02 78.26 157.87 142.28 120.78 185.87 145.95" style="fill: #c67718; stroke-width: 0px;"/>
                </g>
                <polygon points="83.18 150.41 78.83 148.32 78.83 157.3 83.18 160.44 83.18 150.41" style="fill: #c67718; stroke-width: 0px;"/>
                <g style="isolation: isolate;">
                  <polygon points="181.98 139.12 181.97 146.6 121.82 181.42 121.83 173.95 181.98 139.12" style="fill: #b6cfe6; stroke-width: 0px;"/>
                  <polygon points="81.7 150.79 81.7 158.28 121.82 181.42 121.83 173.95 81.7 150.79" style="fill: #f5f5f5; stroke-width: 0px;"/>
                  <polygon points="141.53 115.77 83.88 149.15 83.88 152.03 121.83 173.95 181.98 139.12 141.53 115.77" style="fill: #eee; stroke-width: 0px;"/>
                </g>
                <g style="isolation: isolate;">
                  <polygon points="185.87 134.98 185.85 136.89 121.83 173.96 121.83 172.07 185.87 134.98" style="fill: #f39441; stroke-width: 0px;"/>
                  <polygon points="121.83 172.07 121.83 173.96 78.25 148.8 78.26 146.91 121.83 172.07" style="fill: #f39441; stroke-width: 0px;"/>
                  <polygon points="185.87 134.98 121.83 172.07 78.26 146.91 142.28 109.83 185.87 134.98" style="fill: #fdb63a; stroke-width: 0px;"/>
                </g>
                <polygon points="80.25 160.04 78.25 159.01 78.25 147.68 80.25 148.9 80.25 160.04" style="fill: #f39441; stroke-width: 0px;"/>
              </g>
              <g>
                <g style="isolation: isolate;">
                  <polygon points="179.99 129.41 179.96 131.05 124.47 163.21 124.47 161.56 179.99 129.41" style="fill: #90be48; stroke-width: 0px;"/>
                  <polygon points="124.47 161.56 124.47 163.21 86.67 141.39 86.69 139.74 124.47 161.56" style="fill: #9ace4c; stroke-width: 0px;"/>
                  <polygon points="179.99 129.41 124.47 161.56 86.69 139.74 142.2 103.49 179.99 129.41" style="fill: #86b141; stroke-width: 0px;"/>
                </g>
                <polygon points="90.95 129.17 87.19 127.37 87.19 139.27 90.95 141.98 90.95 129.17" style="fill: #86b141; stroke-width: 0px;"/>
                <g style="isolation: isolate;">
                  <polygon points="176.61 119.39 176.6 129.98 124.45 160.17 124.47 149.58 176.61 119.39" style="fill: #b6cfe6; stroke-width: 0px;"/>
                  <polygon points="89.66 129.51 89.66 140.12 124.45 160.17 124.47 149.58 89.66 129.51" style="fill: #f5f5f5; stroke-width: 0px;"/>
                  <polygon points="141.54 99.14 91.55 128.08 91.55 130.58 124.47 149.58 176.61 119.39 141.54 99.14" style="fill: #eee; stroke-width: 0px;"/>
                </g>
                <g style="isolation: isolate;">
                  <polygon points="179.99 115.81 179.96 117.45 124.47 149.59 124.47 147.95 179.99 115.81" style="fill: #90be48; stroke-width: 0px;"/>
                  <polygon points="124.47 147.95 124.47 149.59 86.67 127.78 86.69 126.14 124.47 147.95" style="fill: #9ace4c; stroke-width: 0px;"/>
                  <polygon points="179.99 115.81 124.47 147.95 86.69 126.14 142.2 93.99 179.99 115.81" style="fill: #d3e62d; stroke-width: 0px;"/>
                  <polygon points="169.8 116.93 126.41 142.06 96.87 125.01 140.26 99.88 169.8 116.93" style="fill: #b5cb27; stroke-width: 0px;"/>
                </g>
                <polygon points="88.42 141.65 86.67 140.74 86.67 126.8 88.42 127.88 88.42 141.65" style="fill: #9ace4c; stroke-width: 0px;"/>
                <g>
                  <polygon points="123.61 112.71 147.33 126.41 139.71 130.81 116 117.13 123.61 112.71" style="fill: #d3e62d; stroke-width: 0px;"/>
                  <polygon points="162.34 117.21 151.15 123.69 127.44 110 138.62 103.53 162.34 117.21" style="fill: #d3e62d; stroke-width: 0px;"/>
                </g>
              </g>
            </g>
            <g>
              <g>
                <path d="m128,233.47c0,.73.47,1.47,1.43,2.03l2.5,1.46.02-3.21,5.03-2.93,4.93,2.86-2.82,1.65-2.13-1.23-2.19,1.29,2.12,1.23,5.02-2.93v.18l2.41-1.4c.2-.73.49-1.41.86-2.03l-1.6-.92v-3.29s5.03-2.93,5.03-2.93l1.14.65v-1.31l5.02-2.93,1.13.65v-1.31l5.02-2.93,4.93,2.86v.8l.69-.4,4.93,2.86v.8l.69-.41,4.94,2.87v.79s.69-.4.69-.4l4.93,2.86v.79l.68-.4,4.94,2.87v.8s.68-.4.68-.4l4.94,2.87v.78l.68-.39,4.93,2.85v.8l.69-.4,4.93,2.87v.8s.68-.4.68-.4l4.92,2.86v.8l.69-.4,4.93,2.86v.8l.68-.4,4.94,2.86v.8l.69-.4,4.93,2.87v.79l.68-.39,4.93,2.86h0v.8s.68-.4.68-.4l4.93,2.86v2.94s2.53-1.49,2.53-1.49l4.94,2.87v2.99s2.34-1.35,2.34-1.35c.93-.56,1.41-1.27,1.41-1.99v3.28c0,.72-.48,1.44-1.42,1.98l-28.68,16.76c-1.88,1.09-4.98,1.09-6.89,0l-83.64-48.53c-.95-.56-1.43-1.29-1.42-2.02,0-1.1,0-2.19,0-3.28Z" style="fill: #deedfb; stroke-width: 0px;"/>
                <g>
                  <path d="m129.41,231.47l28.68-16.75c1.89-1.11,4.99-1.11,6.89,0l83.64,48.52c1.9,1.1,1.91,2.9.03,4.02l-28.68,16.74c-1.89,1.1-4.99,1.1-6.88,0l-83.65-48.52c-1.9-1.11-1.91-2.91-.02-4.02Z" style="fill: #fff; stroke-width: 0px;"/>
                  <g>
                    <polygon points="160.91 216.09 155.88 219.02 160.81 221.88 165.84 218.95 160.91 216.09" style="fill: #7c9298; stroke-width: 0px;"/>
                    <polygon points="166.53 219.34 161.5 222.27 166.43 225.14 171.45 222.2 166.53 219.34" style="fill: #7c9298; stroke-width: 0px;"/>
                    <polygon points="172.14 222.6 167.12 225.53 172.04 228.39 177.08 225.47 172.14 222.6" style="fill: #7c9298; stroke-width: 0px;"/>
                    <polygon points="160.37 222.93 155.35 225.86 160.28 228.73 165.3 225.79 160.37 222.93" style="fill: #7c9298; stroke-width: 0px;"/>
                    <polygon points="148.6 223.27 143.58 226.19 148.51 229.06 153.54 226.14 148.6 223.27" style="fill: #7c9298; stroke-width: 0px;"/>
                    <polygon points="177.76 225.86 172.73 228.79 177.66 231.65 182.69 228.72 177.76 225.86" style="fill: #7c9298; stroke-width: 0px;"/>
                    <polygon points="154.23 226.53 149.2 229.46 154.13 232.32 159.15 229.38 154.23 226.53" style="fill: #7c9298; stroke-width: 0px;"/>
                    <polygon points="183.37 229.11 178.35 232.04 183.28 234.91 188.31 231.98 183.37 229.11" style="fill: #7c9298; stroke-width: 0px;"/>
                    <polygon points="159.83 229.78 154.82 232.71 159.74 235.58 164.77 232.65 159.83 229.78" style="fill: #7c9298; stroke-width: 0px;"/>
                    <polygon points="188.99 232.37 183.96 235.31 188.9 238.18 193.92 235.24 188.99 232.37" style="fill: #7c9298; stroke-width: 0px;"/>
                    <polygon points="174 230.84 168.98 233.77 182.75 241.76 187.77 238.83 174 230.84" style="fill: #7c9298; stroke-width: 0px;"/>
                    <polygon points="200.23 238.88 195.19 241.82 200.13 244.68 205.15 241.75 200.23 238.88" style="fill: #7c9298; stroke-width: 0px;"/>
                    <polygon points="188.45 239.23 183.44 242.15 188.36 245.02 193.38 242.08 188.45 239.23" style="fill: #7c9298; stroke-width: 0px;"/>
                    <polygon points="167.4 234.69 161.58 238.08 158.25 240.04 156.56 241.02 164.88 245.85 169.91 242.91 167.35 241.43 173.17 238.03 167.4 234.69" style="fill: #7c9298; stroke-width: 0px;"/>
                    <polygon points="205.84 242.15 200.81 245.08 205.74 247.94 210.76 245.01 205.84 242.15" style="fill: #7c9298; stroke-width: 0px;"/>
                    <polygon points="194.06 242.48 189.05 245.41 193.98 248.28 199 245.34 194.06 242.48" style="fill: #7c9298; stroke-width: 0px;"/>
                    <polygon points="186.08 245.01 181.07 247.94 185.99 250.81 191.02 247.87 186.08 245.01" style="fill: #7c9298; stroke-width: 0px;"/>
                    <polygon points="211.45 245.4 206.42 248.34 211.36 251.19 216.38 248.26 211.45 245.4" style="fill: #7c9298; stroke-width: 0px;"/>
                    <polygon points="199.69 245.74 194.66 248.66 199.59 251.53 204.61 248.6 199.69 245.74" style="fill: #7c9298; stroke-width: 0px;"/>
                    <polygon points="191.64 248.22 186.61 251.16 191.55 254.02 196.57 251.09 191.64 248.22" style="fill: #7c9298; stroke-width: 0px;"/>
                    <polygon points="217.06 248.66 212.04 251.59 216.98 254.46 222 251.52 217.06 248.66" style="fill: #7c9298; stroke-width: 0px;"/>
                    <polygon points="205.3 249 200.28 251.93 205.21 254.79 210.23 251.85 205.3 249" style="fill: #7c9298; stroke-width: 0px;"/>
                    <polygon points="167.22 248.41 162.2 251.35 172.01 257.03 177.03 254.1 167.22 248.41" style="fill: #7c9298; stroke-width: 0px;"/>
                    <polygon points="197.19 251.45 192.17 254.38 197.1 257.24 202.12 254.31 197.19 251.45" style="fill: #7c9298; stroke-width: 0px;"/>
                    <polygon points="222.68 251.91 217.65 254.85 222.59 257.72 227.61 254.79 222.68 251.91" style="fill: #7c9298; stroke-width: 0px;"/>
                    <polygon points="210.9 252.25 205.89 255.18 210.83 258.05 215.84 255.11 210.9 252.25" style="fill: #7c9298; stroke-width: 0px;"/>
                    <polygon points="202.73 254.66 197.72 257.6 202.65 260.46 207.67 257.53 202.73 254.66" style="fill: #7c9298; stroke-width: 0px;"/>
                    <polygon points="228.3 255.18 223.26 258.11 228.2 260.97 233.23 258.04 228.3 255.18" style="fill: #7c9298; stroke-width: 0px;"/>
                    <polygon points="216.53 255.51 211.51 258.44 216.44 261.31 221.47 258.37 216.53 255.51" style="fill: #7c9298; stroke-width: 0px;"/>
                    <polygon points="208.29 257.89 203.26 260.82 208.19 263.68 213.22 260.75 208.29 257.89" style="fill: #7c9298; stroke-width: 0px;"/>
                    <polygon points="233.91 258.43 228.88 261.37 233.82 264.23 238.84 261.3 233.91 258.43" style="fill: #7c9298; stroke-width: 0px;"/>
                    <polygon points="222.14 258.76 217.12 261.7 222.05 264.56 227.07 261.62 222.14 258.76" style="fill: #7c9298; stroke-width: 0px;"/>
                    <polygon points="213.83 261.11 208.81 264.04 213.75 266.9 218.77 263.97 213.83 261.11" style="fill: #7c9298; stroke-width: 0px;"/>
                    <polygon points="241.37 262.75 236.34 265.69 241.28 268.56 246.31 265.63 241.37 262.75" style="fill: #7c9298; stroke-width: 0px;"/>
                    <polygon points="219.39 264.32 214.37 267.27 219.3 270.12 224.32 267.19 219.39 264.32" style="fill: #7c9298; stroke-width: 0px;"/>
                    <polygon points="177.64 254.46 172.62 257.39 196.73 271.39 201.75 268.46 177.64 254.46" style="fill: #7c9298; stroke-width: 0px;"/>
                    <polygon points="228 262.17 222.98 265.09 235.13 272.15 240.16 269.21 228 262.17" style="fill: #7c9298; stroke-width: 0px;"/>
                    <polygon points="224.96 267.56 219.93 270.49 228.98 275.74 234.01 272.81 224.96 267.56" style="fill: #7c9298; stroke-width: 0px;"/>
                    <polygon points="202.52 268.9 197.5 271.83 205.83 276.66 210.85 273.73 202.52 268.9" style="fill: #7c9298; stroke-width: 0px;"/>
                    <polygon points="211.87 274.32 206.85 277.25 216.66 282.94 221.68 280 211.87 274.32" style="fill: #7c9298; stroke-width: 0px;"/>
                    <polygon points="154.76 219.68 149.74 222.61 154.66 225.47 159.69 222.53 154.76 219.68" style="fill: #7c9298; stroke-width: 0px;"/>
                    <polygon points="165.99 226.19 160.97 229.13 165.9 231.98 170.92 229.06 165.99 226.19" style="fill: #7c9298; stroke-width: 0px;"/>
                    <polygon points="136.98 230.8 131.95 233.74 136.89 236.59 141.91 233.66 136.98 230.8" style="fill: #7c9298; stroke-width: 0px;"/>
                    <polygon points="142.56 234.04 141.89 234.44 137.54 236.98 142.48 239.84 147.5 236.91 146.99 236.62 142.56 234.04" style="fill: #7c9298; stroke-width: 0px;"/>
                    <polygon points="147.99 230.8 147.32 231.2 142.97 233.74 147.9 236.59 152.93 233.66 152.42 233.37 147.99 230.8" style="fill: #7c9298; stroke-width: 0px;"/>
                    <polygon points="194.6 235.64 189.58 238.56 194.51 241.42 199.53 238.49 194.6 235.64" style="fill: #7c9298; stroke-width: 0px;"/>
                    <polygon points="147.99 237.19 142.97 240.12 147.9 243 152.93 240.06 147.99 237.19" style="fill: #7c9298; stroke-width: 0px;"/>
                    <polygon points="174.98 238.57 169.96 241.5 174.89 244.36 179.92 241.43 174.98 238.57" style="fill: #7c9298; stroke-width: 0px;"/>
                    <polygon points="180.53 241.79 175.51 244.71 180.44 247.59 185.46 244.65 180.53 241.79" style="fill: #7c9298; stroke-width: 0px;"/>
                    <polygon points="156.02 241.92 151 244.86 161.18 250.76 166.2 247.82 156.02 241.92" style="fill: #7c9298; stroke-width: 0px;"/>
                    <polygon points="210.09 266.09 205.06 269.03 210 271.89 215.03 268.96 210.09 266.09 210.09 266.09" style="fill: #7c9298; stroke-width: 0px;"/>
                    <polygon points="209.54 265.76 204.61 262.9 199.58 265.84 204.51 268.7 209.54 265.76 209.54 265.76" style="fill: #7c9298; stroke-width: 0px;"/>
                    <polygon points="203.99 262.55 199.05 259.69 194.03 262.62 198.96 265.49 203.99 262.55 203.99 262.55" style="fill: #7c9298; stroke-width: 0px;"/>
                    <polygon points="198.51 259.37 193.57 256.51 188.54 259.45 193.48 262.3 198.51 259.37 198.51 259.37" style="fill: #7c9298; stroke-width: 0px;"/>
                    <polygon points="192.77 256.04 187.83 253.18 182.81 256.11 187.74 258.97 192.77 256.04 192.77 256.04" style="fill: #7c9298; stroke-width: 0px;"/>
                    <polygon points="187.28 252.85 182.35 250 177.32 252.93 182.25 255.79 187.28 252.85 187.28 252.85" style="fill: #7c9298; stroke-width: 0px;"/>
                    <polygon points="181.73 249.64 176.8 246.77 171.76 249.71 176.7 252.57 181.73 249.64 181.73 249.64" style="fill: #7c9298; stroke-width: 0px;"/>
                    <polygon points="176.24 246.46 171.31 243.59 166.28 246.52 171.21 249.39 176.24 246.46 176.24 246.46" style="fill: #7c9298; stroke-width: 0px;"/>
                    <polygon points="227.87 276.39 215.7 269.35 210.67 272.28 222.83 279.33 227.87 276.39 227.87 276.39" style="fill: #7c9298; stroke-width: 0px;"/>
                  </g>
                </g>
              </g>
              <g>
                <g style="isolation: isolate;">
                  <polygon points="274.79 229.43 274.76 236.19 244.24 254.02 244.26 247.25 274.79 229.43" style="fill: #b6cfe6; stroke-width: 0px;"/>
                  <polygon points="244.26 247.25 244.24 254.02 178.73 216.02 178.76 209.26 244.26 247.25" style="fill: #deedfb; stroke-width: 0px;"/>
                  <polygon points="274.79 229.43 244.26 247.25 178.76 209.26 209.28 191.43 274.79 229.43" style="fill: #fff; stroke-width: 0px;"/>
                </g>
                <g>
                  <polygon points="206.62 178.09 198.82 182.64 248.83 211.65 249.35 222.62 205.55 197.21 197.76 201.76 197.39 208.35 250.12 238.95 257.91 234.39 257.58 227.39 256.62 207.1 206.62 178.09" style="fill: #181d1f; stroke-width: 0px;"/>
                  <polygon points="197.76 201.76 197.76 201.76 198.83 182.64 248.84 211.65 249.8 231.94 250.12 238.95 197.4 208.35 197.76 201.76" style="fill: #1c2124; stroke-width: 0px;"/>
                  <g>
                    <path d="m258.55,210.97l29.05,16.68-.02,3.21c0,1.81-.65,3.1-1.68,3.7,2.78-1.62,5.55-3.24,8.32-4.86,1.04-.62,1.69-1.89,1.69-3.7v-7.31s.03-4.3.03-4.3l.21-68.73c0-3.65-2.57-8.14-5.73-9.98l-116.53-67.6c-1.6-.93-3.03-1-4.08-.39l-8.32,4.85c1.05-.61,2.5-.52,4.08.4l5.55,3.22-5.69,3.32c-.62.36-1.01,1.13-1.01,2.22l-.21,68.97-4.63,2.7,45.63,26.66,53.34,30.94Z" style="fill: #181d1f; stroke-width: 0px;"/>
                    <path d="m164.21,150.67l.21-68.97c0-1.08.39-1.86,1.01-2.22l5.69-3.32-5.55-3.22c-1.59-.93-3.03-1.01-4.08-.4l4.07-2.37c.83-.05,1.76.16,2.76.74l116.52,67.6c3.16,1.82,5.74,6.33,5.74,9.98l-.21,68.73-.02,4.28v4.1s-.02,3.21-.02,3.21c0,1.81-.65,3.1-1.68,3.7-.59.34-1.18.7-1.78,1.04,0,0,0,.01-.01.01.45-.68.73-1.59.73-2.72l.02-3.21-29.05-16.68-53.34-30.94-45.63-26.66,4.63-2.7Z" style="fill: #181d1f; stroke-width: 0px;"/>
                    <path d="m282.11,140.55c3.17,1.83,5.74,6.33,5.72,9.97l-.2,68.75-.02,4.28v4.1s-128.03-74.28-128.03-74.28l.02-4.09v-4.3s.22-68.73.22-68.73c.01-3.65,2.59-5.14,5.77-3.31l116.52,67.6Zm.88,80.94l.22-70.87c.02-2.19-1.53-4.89-3.43-5.99l-111.89-64.9c-1.89-1.1-3.45-.21-3.45,1.98l-.23,70.88,118.78,68.9h0Z" style="fill: #7c9298; stroke-width: 0px;"/>
                    <path d="m287.61,227.65v3.21c-.02,3.65-2.61,5.13-5.78,3.3l-116.52-67.6c-3.17-1.84-5.75-6.33-5.73-9.97v-3.22s128.03,74.28,128.03,74.28Z" style="fill: #7c9298; stroke-width: 0px;"/>
                    <path d="m164.24,151.67c-.03,3.24,2.25,7.19,5.04,8.81l108.63,63.04c2.78,1.62,5.07.29,5.1-2.95l.18-69.96c.03-2.19-1.53-4.89-3.42-6l-7.29-4.23-4.35-2.52-4.95-2.88-14.43-8.36-4.99-2.88-46.1-26.73-13.44-7.8-5.31-3.09-11.04-6.39c-1.9-1.11-3.45-.21-3.45,1.99l-.18,69.96Z" style="fill: #94d9f9; stroke-width: 0px;"/>
                  </g>
                </g>
              </g>
            </g>
            <g>
              <polygon points="279.7 148.28 279.7 220.57 222.82 187.74 222.83 115.45 279.7 148.28" style="fill: #fff; stroke-width: 0px;"/>
              <polygon points="167.48 83.49 222.83 115.45 222.82 187.74 167.48 155.78 167.48 83.49" style="fill: #fff; stroke-width: 0px;"/>
              <polygon points="167.48 83.49 222.83 115.45 279.7 148.28 279.7 156.21 222.83 123.37 167.48 91.42 167.48 83.49" style="fill: #1766a2; stroke-width: 0px;"/>
              <g>
                <polygon points="173.1 114.06 217.21 139.53 217.21 132.07 173.1 106.6 173.1 114.06" style="fill: #1766a2; stroke-width: 0px;"/>
                <polygon points="173.1 126.48 217.21 151.95 217.21 144.48 173.1 119.01 173.1 126.48" style="fill: #1766a2; stroke-width: 0px;"/>
                <polygon points="173.1 138.89 217.21 164.36 217.21 156.89 173.1 131.42 173.1 138.89" style="fill: #1766a2; stroke-width: 0px;"/>
                <polygon points="173.1 151.3 217.21 176.77 217.21 169.31 173.1 143.84 173.1 151.3" style="fill: #1766a2; stroke-width: 0px;"/>
              </g>
              <g>
                <g>
                  <path d="m225.49,156.7c0,8.07,2.83,17,7.41,24.93,2.34,4.07,5.15,7.85,8.26,11.14.03.02.05.05.08.07.4.42.8.83,1.21,1.24,1.15,1.13,2.33,2.18,3.55,3.14,1.45,1.16,2.95,2.21,4.48,3.11.1.07.2.12.31.17.03.02.06.05.09.06.05.03.11.06.16.1.23.13.45.25.67.36,1.38.74,2.73,1.34,4.04,1.79,1.57.54,3.08.89,4.53,1.05.08.01.16.02.25.03,3.06.29,5.81-.27,8.13-1.6,4.57-2.65,7.41-8.32,7.41-16.38s-2.83-17-7.41-24.92c-4.58-7.93-10.9-14.85-17.88-18.88-13.97-8.06-25.29-1.52-25.29,14.6Z" style="fill: #deedfb; stroke-width: 0px;"/>
                  <polygon points="247.85 165.2 254.18 168.86 254.18 162.42 247.85 158.76 247.85 165.2" style="fill: #f4d0bf; stroke-width: 0px;"/>
                  <path d="m247.84,162.98v14.13c.6,1.22,1.19,2.39,1.7,3.37.14.29.28.56.42.82l4.22,2.44v-17.1l-6.34-3.66Z" style="fill: #deedfb; stroke-width: 0px;"/>
                  <g>
                    <path d="m249.8,164.78l1.23.07v2.53c-.08-.05-.15-.13-.21-.21l-.77-1.22-.25-.39c-.15-.23-.15-.72,0-.78Z" style="fill: #f83c3c; stroke-width: 0px;"/>
                    <path d="m252.27,166.2c.15.24.15.72,0,.78l-.26.11-.77.31c-.05.03-.13.01-.21-.02v-2.53l1.24,1.35Z" style="fill: #f85d5d; stroke-width: 0px;"/>
                  </g>
                  <g>
                    <path d="m245.75,152.31c0,4.12,2.36,8.82,5.26,10.5,2.91,1.68,5.26-.3,5.26-4.42s-.3-8.93-5.26-11.79c-5.26-3.04-5.26,1.59-5.26,5.71Z" style="fill: #f4d0bf; stroke-width: 0px;"/>
                    <g>
                      <path d="m255.59,158.12c-.18.78.03,1.7.45,2.06.42.37.91.02,1.08-.77.18-.79-.03-1.72-.45-2.06-.43-.36-.92-.02-1.08.78Z" style="fill: #f4d0bf; stroke-width: 0px;"/>
                      <path d="m246.44,152.83c.17.99-.03,1.68-.46,1.54-.43-.13-.92-1.03-1.08-2.02-.18-.99.02-1.68.45-1.55.43.14.91,1.05,1.09,2.03Z" style="fill: #f4d0bf; stroke-width: 0px;"/>
                    </g>
                    <path d="m245.4,145.3c.7-2.04,3.06-1.58,5.64.05,2.58,1.35,4.93,3.6,5.63,6.46.26,1.05.02,4.59-.21,5.39-.13.48-.6,2.84-.75.85-.01-.36.2-4.99-.13-5.76-.69-1.64-1.85-2.72-2.73-2.42-.56.19-3.04-1.3-3.62-2.09-1.08-1.46-2.04-1.46-2.73-.6-.32.39-.12,5.13-.13,5.48-.16,1.81-.62-1.08-.75-1.72-.23-1.06-.47-4.89-.21-5.64Z" style="fill: #9094a3; stroke-width: 0px;"/>
                  </g>
                  <polygon points="253.94 168.4 256.79 168.83 254.18 164.19 251.03 164.85 253.94 168.4" style="fill: #fdfffe; stroke-width: 0px;"/>
                  <polygon points="248.12 165.03 245.28 162.18 247.89 160.55 251.03 164.85 248.12 165.03" style="fill: #fdfffe; stroke-width: 0px;"/>
                  <path d="m235.76,167.94c.37-1.48,1.75-8.82,2.24-8.89l3.58,1.03h0c1.32.37,3.14.88,4.66,1.34l4.76,21.65,4.25-16.45c1.53,1.31,3.34,2.88,4.66,4.04h0l3.58,3.1c.49.63,1.88,9.57,2.24,11.48.68,3.55,3.01,13.8,2.64,14.68-.19.44-7.42-10.96-7.66-12.88l-.26-5.34-.26,1.97s-.17,8.33-.08,11.05c.02.72.08,5.21.16,9.12-1.46-.16-2.97-.5-4.53-1.05-1.32-.45-2.67-1.05-4.04-1.79-.22-.11-.44-.24-.67-.36-.05-.04-.11-.07-.16-.1-.03-.01-.07-.03-.09-.06-.11-.05-.21-.11-.31-.17-1.53-.9-3.03-1.95-4.48-3.11-1.22-.96-2.4-2.01-3.55-3.14-.41-.4-.81-.82-1.21-1.24.08-3.82.13-8.23.15-8.92.09-2.62-.08-11.15-.08-11.15v-.07s-.29,12.39-.29,12.39c-.24,1.66-3.93.56-5.92-3.79-.6-1.29,0-10.6.67-13.38Z" style="fill: #3c86b8; stroke-width: 0px;"/>
                  <path d="m249.71,175.59l.34-9.65.77,1.22c.06.08.13.16.21.21h0c.08.03.15.05.21.02l.77-.31.54,14.36-1.52,1.93h0c-.05-.1-.47-.89-1.07-2.08-.14-.26-.28-.54-.42-.82l.17-4.88Z" style="fill: #ff6958; stroke-width: 0px;"/>
                  <path d="m258.62,176.14c.28-.64-1.96-3.76-1.96-3.76,0,0,1.58-.54,1.62-1.01.15-1.73-3.42-5.99-3.42-5.99l-3.82,18s6.57-4.98,7.59-7.24Z" style="fill: #1766a2; stroke-width: 0px;"/>
                  <path d="m243.44,167.38c.53,1.79,2.57,6.05,4.4,9.73.6,1.22,1.19,2.39,1.7,3.37.14.29.28.56.42.82.6,1.19,1.02,1.98,1.07,2.08h0s-.28-1.62-.28-1.62l-1.05-6.16-1.87-10.97-.62-3.65s-3.57.11-3.43,2.03c.04.53,1.62,2.89,1.62,2.89,0,0-2.24.53-1.96,1.49Z" style="fill: #1766a2; stroke-width: 0px;"/>
                  <g>
                    <polygon points="251.9 175.54 253.87 176.35 252.95 166.55 250.47 165.54 251.9 175.54" style="fill: #a1c1cc; stroke-width: 0px;"/>
                    <path d="m249.68,165.87c-.17-1.44.64-2.23,1.81-1.76,1.17.48,2.26,2.04,2.42,3.48.18,1.46-.63,2.24-1.8,1.77-1.17-.48-2.25-2.04-2.43-3.48Z" style="fill: #738b96; stroke-width: 0px;"/>
                  </g>
                  <path d="m256.69,175.84l-1.86-2.97c-.2-.31-.44-.57-.7-.72-.57-.36-1.64-.92-1.78-.96-1.11-.25-1.29-.45-1.91.2-.26.28-.13,1.14.3,1.24.38.09.31.11.23.61-.06.34,0,.41.26.88.31.57.06.72.45,1.31.27.41.3.12.41.77.06.32.38.89.67.89,1.07,0,1.84,1.11,2.52,2.22.65,1.08,1.35,2.84,1.95,3.37l2.26-1.54s-2.55-4.96-2.79-5.32Z" style="fill: #f4d0bf; stroke-width: 0px;"/>
                  <path d="m254.61,179.49l3.91-.98s8.42,14.54,9.9,19.26c1.32,4.23-1.83,4.61-2.99,3.49-2.28-2.2-3.5-4.39-4.81-7.26-2.72-5.97-6.01-14.5-6.01-14.5Z" style="fill: #3a82b2; stroke-width: 0px;"/>
                  <path d="m230.34,151.98s.06.23.16.58c.13.44,1.18,4.15,1.34,4.73.06.21.09.33.09.33.1.19.18.25.25.24.18-.02.28-.5.32-.69.04-.34-.03-.78-.07-1.18-.03-.28.03-.5.15-.64.14-.19.35-.28.58-.24.12.02.25.2.25.34.02,3.13.67,4.42.31,6.79-.06.37.02.85.16,1.39-.25-.05-.46-.08-.6-.11-.83-.16-1.65-.29-2.48-.45-.03-.05-.04-.11-.07-.16-.2-.32.03-.06-.62-.9-.4-.54-1.55-2.81-1.59-2.88-.56-1.24-1.03-2.42-1.43-3.68-.2-.61-.41-1.23-.58-1.85-.08-.27-.28-.8-.2-1,.04-.12.23-.12.39.2.43.87.67,1.57,1.01,2.45.04.09.17.49.24.26,0-.03-.09-.26-.1-.31-.22-.66-1.04-2.86-1.11-3.29-.04-.27-.02-.47.15-.49.18,0,.36.26.53.56.17.33.31.74.39.92.41.98,1.04,3.3,1.48,3.29.21,0-1.49-4.57-1.53-4.69-.22-.53-.41-1.32.18-1.04.48.24.62.92.81,1.45.02.06.74,2.15,1.02,2.86.06.17.39,1.19.57,1.29.26.15.1-.31.06-.47-.24-1.06-.45-1.87-.61-2.5-.14-.56-.25-.97-.28-1.26-.07-.41,0-.54.28-.48.23.07.47.33.55.61Z" style="fill: #f4d0bf; stroke-width: 0px;"/>
                  <path d="m234.12,162.51l-4.02-.03s3.4,16.05,5.55,20.29c.67,1.3,1.46,2.62,2.88,3.37,1.16.62,2.11.31,2.47-.67.69-1.91-.42-4.98-1.17-7.55-1.57-5.36-5.72-15.41-5.72-15.41Z" style="fill: #3a82b2; stroke-width: 0px;"/>
                </g>
                <path d="m249.54,187.4c0-1,.7-1.4,1.56-.9.87.49,1.57,1.71,1.57,2.71s-.7,1.41-1.57.91c-.87-.5-1.56-1.71-1.56-2.71Z" style="fill: #1766a2; stroke-width: 0px;"/>
                <path d="m249.54,194.54c0-1.01.7-1.41,1.56-.91.87.5,1.57,1.72,1.57,2.71s-.7,1.41-1.57.9c-.87-.5-1.56-1.71-1.56-2.71Z" style="fill: #1766a2; stroke-width: 0px;"/>
              </g>
            </g>
          </g>
          <g>
            <g>
              <path d="m51.45,204.88l-.74,4.73.45,3.76c.07.36.3,2.14,1.25,2.53.64.25,4.36,1.28,4.48-.05.07-.89-.32-8.22-.32-8.22.03-.49.64-1.88.49-2.21l-1.06-2.31-4.53,1.78Z" style="fill: #f4d0bf; stroke-width: 0px;"/>
              <path d="m51.93,180.37c-.26,2.88,1.85,5.41,4.71,5.67h0c2.86.26,5.39-1.86,5.64-4.74l1.98-20.39c.26-2.88-1.85-5.42-4.71-5.67h0c-2.86-.26-5.4,1.86-5.65,4.73l-1.98,20.39Z" style="fill: #3a82b2; stroke-width: 0px;"/>
              <path d="m49.86,201.94c-.25,2.88,1.85,5.42,4.71,5.68h0c2.86.26,5.39-1.86,5.65-4.74l1.98-20.38c.25-2.88-1.86-5.42-4.71-5.68h0c-2.86-.26-5.39,1.86-5.65,4.73l-1.98,20.39Z" style="fill: #3a82b2; stroke-width: 0px;"/>
            </g>
            <g>
              <g>
                <path d="m73.65,180.83c-.58-.12-.96-.68-.84-1.26h0c.12-.59.68-.96,1.26-.84l5.75,1.16c.58.11.96.67.84,1.26h0c-.11.57-.68.95-1.26.83l-5.74-1.15Z" style="fill: #f4d0bf; stroke-width: 0px;"/>
                <path d="m73.94,177.81l4.01,2.96,2.44,3.11c.2.33,1.34,1.81.91,2.79-.28.65-2.29,4.14-3.35,3.24-.7-.6-5.77-6.31-5.77-6.31-.38-.34-1.84-.93-1.98-1.3l-.9-2.49,4.65-2Z" style="fill: #f4d0bf; stroke-width: 0px;"/>
              </g>
              <path d="m74.72,175.14c1.58,2.14,1.14,5.15-1,6.72h0c-2.13,1.57-5.13,1.11-6.7-1.03l-4.64-8.15c-1.58-2.14-1.14-5.14.99-6.72h0c2.13-1.57,5.14-1.11,6.71,1.04l4.65,8.14Z" style="fill: #fdfffe; stroke-width: 0px;"/>
            </g>
            <g>
              <path d="m62.31,157.67c0,2.36,4.16,2.98,7.34,3.31h.02c.66-.59,1.03-1.16,1.03-1.16l.08-4.74-8.37-.72-.16,3.24s.06.06.06.08Z" style="fill: #f4d0bf; stroke-width: 0px;"/>
              <path d="m61.19,150.99c3.92,4.11,5.45,4.05,9.37,1.29,3.91-2.76,5.54-6.66,4.6-12.46-1-6.16-8.33-7.72-13-4.88-8.92,5.44-5.84,10.95-.96,16.05Z" style="fill: #983a1e; stroke-width: 0px;"/>
              <path d="m76.73,147.31c-.19-.48-.45-.88-.77-1.19-.28-.29-.65-.56-.6-1.14.03-.36.21-.77.29-1.15.15-.8-.2-1.32-.33-1.98-.1-.49-.07-1.07-.11-1.61-.05-.53-.18-1.03-.53-1.21-.03-.01-.06-.03-.08-.05-1.39,1.89-3.19,3.44-3.82,5.9-.2.81-.26,1.58-.35,2.35-.08.77-.32,1.62-.36,2.37-.02.46.21.9-.21,1.43-.19.24-.96.35-.96.24,0-.64-.02-1.28-.17-1.81-.15-.54-.47-.95-.95-1-.48-.04-1.15.36-1.55,1.03-.47.82-.44,1.68-.34,2.37.15,1.01.67,1.94,1.71,1.57-.41.36-.64,1-.77,1.53-.02.13-.06.28-.15.39-.07.09-.15.15-.24.18-.08.04-.13.08-.2.12.22.2.47.38.77.39.39.02.32.22,1.62.59.38.1.86-.06,1.31-.16.96-.22,1.93-.44,2.89-.67.25-.06.51-.12.77-.29.54-.37.96-1.12,1.26-1.82.06-.12.1-.25.12-.36.08-.49-.41-.61-.27-1.11.07-.25.27-.47.37-.71.15-.36.06-.66-.03-.9.23-.08.41-.48.45-.77.04-.29,0-.56.11-.85.18-.49.6-.79.95-1.18.13-.15.2-.36.15-.49Z" style="fill: #f4d0bf; stroke-width: 0px;"/>
              <path d="m56.56,141.38c.33-2.42,6.15-2.65,6.15-2.65.43-.33,2.98-9.64,12.67-2.06,2.01,1.57,1.21,4.95,1.21,4.95,0,0-.52.34-3.47-.34-1.55-.35-.77,2.89-1.31,3.32-.49.39-2.37,3.48-3.93,6.23-.21.37-.42.73-.62,1.09-.83,1.49,1.08,3.98.93,4.39-.31.84-5.48-.09-6.64-2.39-.28-.25-6.75-6.98-4.99-12.54Z" style="fill: #983a1e; stroke-width: 0px;"/>
              <path d="m75.96,146.12c-.28-.29-.65-.56-.6-1.14.03-.36.21-.77.29-1.15.15-.8-.2-1.32-.33-1.98-.02-.08-.02-.16-.03-.23-1.34.21-2.29-1.18-3.22.02-.14.18-1.12,2.55-1.3,3.24-.2.81-.26,1.58-.35,2.35-.08.77-.32,1.62-.36,2.37-.02.46.21.9-.21,1.43-.19.24-.96.35-.96.24,0-.64-.02-1.28-.17-1.81-.15-.54-.47-.95-.95-1-.48-.04-1.15.36-1.55,1.03-.47.82-.44,1.68-.34,2.37.15,1.01.67,1.94,1.71,1.57-.12.11-.24.26-.34.42h7.54c.03-.06.05-.11.07-.15.06-.12.1-.25.12-.36.08-.49-.41-.61-.27-1.11.07-.25.27-.47.37-.71.15-.36.06-.66-.03-.9.23-.08.41-.48.45-.77.04-.29,0-.56.11-.85.18-.49.6-.79.95-1.18.13-.15.2-.36.15-.49-.19-.48-.45-.88-.77-1.19Z" style="fill: #f4d0bf; stroke-width: 0px;"/>
            </g>
            <path d="m54.92,263.84s-1.26,4.23.11,5.74c.38.41,2.02.54,3.93.13,1.25-.27,2.59-1.03,3.83-1.2,3.64-.51,4.57-2.08,6.08-4.08,3.21-4.25-2.62-2.98-6.42-1.64-3.99,1.41-7.52,1.05-7.52,1.05Z" style="fill: #231f20; stroke-width: 0px;"/>
            <path d="m60.33,267.13c-2.35-.44-4.24-1.29-5.95-2.49l.21-66.53,13.14,2.35-.21,65.14c-2.24,1.17-4.64,1.99-7.18,1.52Z" style="fill: #1766a2; stroke-width: 0px;"/>
            <path d="m66.63,265.31s-1.27,4.23.09,5.74c.38.42,2.03.55,3.94.14,1.25-.28,2.59-1.03,3.83-1.2,3.63-.51,4.57-2.08,6.07-4.09,3.22-4.25-2.61-2.98-6.42-1.64-3.99,1.41-7.51,1.05-7.51,1.05Z" style="fill: #231f20; stroke-width: 0px;"/>
            <path d="m73.3,268.96c2.36-.39,4.27-1.26,6-2.5l1.01-50.25,1.11-3.73-14.8-4.78-.47,59.36c2.21,1.34,4.61,2.32,7.15,1.9Z" style="fill: #3a82b2; stroke-width: 0px;"/>
            <path d="m73.06,164.16c-.54-.85-5.23-2.5-9.16-2.5s-5.89-3.5-5.89.44.58,21.88,4.51,21.88,12.67-16.5,10.54-19.82Z" style="fill: #eee; stroke-width: 0px;"/>
            <path d="m73.06,164.16c-.54-.85-5.23-2.5-9.16-2.5s-5.89-3.5-5.89.44.58,21.88,4.51,21.88,12.67-16.5,10.54-19.82Z" style="fill: #eee; stroke-width: 0px;"/>
            <path d="m73.2,160.96c.02-.51-1.68-3.7-2.12-3.35-1.64,1.3-6.43,1.02-7.59.41-1.03-.54-1.29-1.86-1.29-1.86,0,0-6.2,5.48,2.88,7.26,1.83.34,3.87.21,5.53-.58,1.42-.68,3.9-.58,2.59-1.88Z" style="fill: #e6f9f5; stroke-width: 0px;"/>
            <path d="m81.46,221.43l.87-43.79c-.96-13.37-7.21-17.15-9.68-18.22,0,0-2.58,2.91-8.1,1.7-5.62-1.23-3.09-4.89-3.09-4.89-7.34.1-7.77,9.92-7.99,13.31-.42,6.38-1.1,33.86-.97,44.55l28.97,7.34Z" style="fill: #3c86b8; stroke-width: 0px;"/>
            <g>
              <g>
                <path d="m88.49,213.62c-.42-.38-.46-1.04-.09-1.46h0c.38-.42,1.03-.46,1.46-.08l4.2,3.75c.42.38.46,1.03.08,1.45h0c-.38.43-1.02.46-1.45.08l-4.2-3.74Z" style="fill: #f4d0bf; stroke-width: 0px;"/>
                <path d="m90.2,211.26l1.88,4.4.5,3.76c.02.37.22,2.15-.6,2.75-.55.41-3.91,2.31-4.35,1.05-.29-.83-1.7-8.04-1.7-8.04-.15-.47-1.08-1.65-1.01-2.03l.47-2.51,4.82.62Z" style="fill: #f4d0bf; stroke-width: 0px;"/>
              </g>
              <path d="m84.16,189.33c.26,2.88-1.85,5.41-4.7,5.67h0c-2.86.26-5.4-1.86-5.66-4.74l-1.98-20.39c-.26-2.88,1.85-5.41,4.71-5.67h0c2.86-.26,5.39,1.86,5.65,4.73l1.98,20.39Z" style="fill: #3a82b2; stroke-width: 0px;"/>
              <path d="m91.01,208.01c.96,2.73-.46,5.71-3.17,6.66h0c-2.7.96-5.68-.48-6.64-3.2l-6.93-19.28c-.95-2.73.46-5.71,3.17-6.66h0c2.71-.95,5.69.48,6.65,3.21l6.92,19.27Z" style="fill: #3a82b2; stroke-width: 0px;"/>
            </g>
          </g>
          <g>
            <path d="m121.4,209.49c.09-.29.72-1.31.85-1.61,3.19.38,9.87.36,11.05,1.83,1.15,1.4,1.84,3-1.76,5.11-1.37.8-6.69-.02-8.84-.44-1.36-1.58-1.88-2.99-1.31-4.89Z" style="fill: #f4d0bf; stroke-width: 0px;"/>
            <path d="m124.34,216.27c-.47.13-23.7,1.21-23.7,1.21-2.75-.09-3.64-2.71-3.55-5.44.1-2.74,1.13-4.57,3.88-4.48,0,0,22.97-.92,23.31-.83-.44,1.28-.52,7.55.07,9.55Z" style="fill: #9abc2a; stroke-width: 0px;"/>
            <path d="m95.85,199.45c.38-2.73-1.98-5.72-3.43-6.25-4.45-1.61-7.67,1.56-8.05,4.3l-.47,20.44c-.38,2.73,1.51,5.25,4.23,5.63h0c2.72.38,5.23-1.52,5.61-4.25l2.12-19.87Z" style="fill: #9abc2a; stroke-width: 0px;"/>
            <path d="m85.21,287.83s-1.34,4.47.11,6.06c.4.44,2.14.58,4.15.14,1.32-.28,2.73-1.08,4.04-1.26,3.84-.54,6.12-2.59,7.71-4.7,3.39-4.49-2.75-3.15-6.78-1.73-4.21,1.48-9.23,1.5-9.23,1.5Z" style="fill: #a15b2c; stroke-width: 0px;"/>
            <path d="m94.52,289.43c2.4-1.21,3.59-2.79,4.34-4.72v-46.54c0-4-3.24-7.23-7.22-7.23s-7.23,3.23-7.23,7.23v50.01c0,.1.01.21.01.31,2.53,2.8,6.85,2.58,10.1.93Z" style="fill: #1766a2; stroke-width: 0px;"/>
            <path d="m98.52,292.2s-1.34,4.48.11,6.07c.41.44,2.14.58,4.15.14,1.32-.28,2.73-1.08,4.04-1.26,3.84-.54,6.12-2.6,7.72-4.71,3.39-4.51-2.76-3.17-6.79-1.73-4.21,1.48-9.22,1.49-9.22,1.49Z" style="fill: #ab6030; stroke-width: 0px;"/>
            <path d="m107.84,293.82c2.4-1.22,3.59-2.79,4.33-4.72v-46.54c0-3.99-3.24-7.23-7.23-7.23s-7.22,3.24-7.22,7.23v50c0,.1.01.21.01.32,2.53,2.81,6.84,2.57,10.1.94Z" style="fill: #3a82b2; stroke-width: 0px;"/>
            <g>
              <path d="m105.61,197.71c.67-.6-3.45-2.38-3.45-2.38l.09-4.88-7.76-.36-.33,3.4s-1.47-.41-1.75-.32c-1.29.37-3.75,3.86-3.75,3.86.03.02,16.95,4.36,16.95.67Z" style="fill: #f4d0bf; stroke-width: 0px;"/>
              <g>
                <path d="m92.11,190.01c2.11,2.35,7.18,2.99,8.03,2.47h.01c.14,0,1.38.11,1.8.01.92-.21,1.83-.42,2.75-.62.25-.06.49-.12.73-.29.47-.32.85-.96,1.13-1.59.02-.05.05-.09.07-.14.05-.11.09-.23.11-.34.08-.46-.38-.59-.25-1.06.07-.23.26-.44.35-.68.14-.34.06-.62-.03-.85.22-.08.39-.46.42-.73.03-.28,0-.53.11-.82.16-.46.57-.75.9-1.12.14-.13.2-.34.14-.47-.17-.44-.42-.84-.72-1.13-.28-.27-.61-.52-.57-1.07.03-.34.2-.74.28-1.1.08-.43.02-.79-.08-1.12-.05-.16-.1-.31-.15-.47-.03-.09-.06-.18-.08-.29-.09-.46-.07-1.01-.1-1.52v-.1c-.02-.11-.03-.21-.05-.3-.06-.36-.14-.69-.24-1.01-.12-.38-.26-.75-.43-1.09-.08-.15-.18-.31-.28-.47-.18-.29-.38-.57-.6-.83-.13-.13-.25-.27-.38-.39-.76-.73-1.67-1.27-2.67-1.62-.54-.2-1.13-.34-1.72-.42h0c-2.06-.3-4.78-.09-6.65.87-2.76,1.4-5.38,4.4-5.87,7.17-.77,4.36,1.96,8.87,4.03,11.16Z" style="fill: #f4d0bf; stroke-width: 0px;"/>
                <path d="m92.11,190.01c2.11,2.35,7.18,2.99,8.03,2.47h.01s.06-.04.07-.07c.03-.03.04-.05.05-.08.01-.02.01-.04.01-.08,0-.03-.01-.08-.03-.12-.07-.21-.22-.55-.41-.94-.1-.2-.19-.43-.28-.65-.05-.11-.1-.22-.13-.34-.02-.05-.04-.11-.06-.16,0,0,.02-.02.02-.04,0-.01-1.19-.43-1.31-1.88-.05-.68-.14-1.48.32-2.25.38-.65,1.01-1.02,1.49-.98.45.04.73.42.88.91,0,0,.02.03.02.03.15.51.16,1.12.17,1.72,0,.08.46.04.74-.11.05-.33.1-.66.14-1.01.11-1.09-.25-2.14-.52-3.19-.04-.15-.08-.33-.11-.53-.73-1.54-.84-3.18.87-4.3,1.51-.99,3.74-.03,5.12.96.03,0,.06-.01.09-.02-.05-.16-.1-.31-.15-.47-.03-.09-.06-.18-.08-.29-.09-.46-.07-1.01-.1-1.52v-.1c-.02-.11-.03-.21-.05-.3-.06-.36-.14-.69-.24-1.01-.12-.38-.26-.75-.43-1.09h-.02c-.08-.15-.17-.31-.26-.47-.18-.29-.38-.57-.6-.83-.13-.13-.25-.27-.38-.39-.76-.73-1.67-1.27-2.67-1.62-.54-.2-1.13-.34-1.72-.42h0c-2.06-.3-4.78-.09-6.65.87-2.76,1.4-5.38,4.4-5.87,7.17-.77,4.36,1.96,8.87,4.03,11.16Z" style="fill: #921515; stroke-width: 0px;"/>
              </g>
              <path d="m87.92,247.48c7.17,1.54,25.85.08,26.9-1.34,0,0-4.86-20.72-3.58-31.34,1.64-13.57-4.87-17.6-7.39-18.69,0,0-2.53,2.88-8.16,1.65-5.73-1.26-3.27-4.56-3.27-4.56-7.49.1-7.81,9.69-8.03,13.14-.42,6.53-1.01,25.47-.87,36.35.62,2.61,1.88,4.26,4.41,4.8Z" style="fill: #b5cb27; stroke-width: 0px;"/>
            </g>
            <path d="m114.6,245.62c-.23.18-.97,1.12-1.22,1.34,1.44,2.87,3.68,9.16,5.46,9.78,1.71.6,3.46.7,4.22-3.38.29-1.55-2.28-6.3-3.41-8.17-1.95-.74-3.44-.76-5.05.43Z" style="fill: #f4d0bf; stroke-width: 0px;"/>
            <path d="m121.98,246.09c-.04-.5-6.9-22.71-6.9-22.71-1.02-2.56-3.79-2.51-6.34-1.5-2.53,1.02-3.91,2.62-2.89,5.17l6.6,21.25c.13.35.31.66.52.96,1.05-.85,6.92-3.06,9.01-3.17Z" style="fill: #9abc2a; stroke-width: 0px;"/>
            <path d="m99.57,207.75c-.94-2.6.75-6.02,2.06-6.83,4.04-2.5,7.84-.05,8.78,2.54l4.68,19.91c.93,2.6-.41,5.45-2.98,6.38h0c-2.58.93-5.43-.41-6.36-3.01l-6.18-19Z" style="fill: #9abc2a; stroke-width: 0px;"/>
          </g>
          <g>
            <path d="m148.83,239.77c-.23,2.55-2.47,4.45-5.01,4.22h0c-2.54-.23-4.41-2.48-4.19-5.04l1.5-18.12c.23-2.56,2.47-4.45,5.02-4.23h0c2.53.23,4.41,2.49,4.18,5.04l-1.5,18.12Z" style="fill: #fd96ba; stroke-width: 0px;"/>
            <g>
              <path d="m144.19,309.1c.72.98.31,1.93.35,3.33h.6c.04-.53,0-2.17.34-2.95.08-.16.18-.3.3-.42l-1.6.05Z" style="fill: #3c86b8; stroke-width: 0px;"/>
              <path d="m151.22,305.26c-.27-1.72-.45-3.37-.38-5.29.02-.69.52-16.57.74-21.3l-7.75-3.52c-.16,3.03-.98,13.95.54,20.36.22.91,1.08,5.17,1.22,6.21.07.57.2,1.77-.32,3.1-.1.25-.44.97-.55,1.32-.14.43-.01.52-.11.8-.23.62-.26.4.24.58.32.11.7.15,1.03.25.44.14.77.4,1.12.65.56.39,1.3.64,1.68,1.22.34.51.2,1.34.44,1.91.23.57.64.99,1.38.99h.03l1.79-.5c.24-.13.48-.29.7-.49.23-.19.43-.4.62-.61-.17-.1-.65-1.54-.86-1.64-.31-.16-1.32-2.39-1.57-4.03Z" style="fill: #f4d0bf; stroke-width: 0px;"/>
              <path d="m153.85,309.45c-.32-.13-1.36-.54-1.36-.54,0,0,.12.39-.29.59-.13.06-.27.11-.38.15-.36.11-.69.16-1,.13-.62-.06-1.12-.36-1.52-.74-1.05-1.03-2.21-1.83-3.54-2.52-.44-.24-.87-.91-.96-.77-.42.67-.73,1.33-.77,1.54-.19.9-.36,1.86.09,2.36.28.3,1.06.69,1.99.39.75-.24,1.62-.24,1.91,0,.69.51-.03,2.99,1.21,2.77,1.12-.2,2.28-.48,3.43-.81.54-.15,1.07-.33,1.62-.56.27-.11.71-.27.95-.57.77-.96-1-1.29-1.39-1.44Z" style="fill: #3c86b8; stroke-width: 0px;"/>
            </g>
            <path d="m154.7,235.55l5.82-.03,2.5,1.24c.23.15,1.41.74,1.44,1.5.02.51-.19,3.34-1.14,3.09-.64-.16-5.61-2.25-5.61-2.25-.34-.1-1.46-.03-1.65-.22l-1.34-1.31v-2.02Z" style="fill: #f4d0bf; stroke-width: 0px;"/>
            <path d="m152.02,234.15c2.41-.58,4.83.9,5.4,3.3h0c.57,2.4-.92,4.8-3.33,5.37l-8.69,1.02c-2.41.57-4.83-.9-5.39-3.31h0c-.58-2.4.91-4.8,3.32-5.37l8.69-1.01Z" style="fill: #fd96ba; stroke-width: 0px;"/>
            <path d="m159.09,221.13c.02-.47-3.6-1.9-4.01-1.57-1.51,1.2-3.32-.37-4.39-.93-.96-.49-1.12-1.52-1.12-1.52,0,0-.95,0-1.63.74-1.34,1.49-2.21,4.42,3.37,5.51,1.69.33,3.58.21,5.11-.52,1.31-.64,3.88-.49,2.66-1.7Z" style="fill: #fff; stroke-width: 0px;"/>
            <g>
              <path d="m154.63,312.9c.71.98.3,1.91.34,3.33l.61-.02c.04-.51,0-2.16.33-2.93.08-.17.18-.31.3-.43l-1.59.05Z" style="fill: #3c86b8; stroke-width: 0px;"/>
              <path d="m161.65,309.05c-.26-1.72-.45-3.37-.38-5.29.02-.69.53-16.58.74-21.31l-7.75-3.51c-.16,3.03-.98,13.95.54,20.36.22.91,1.08,5.17,1.22,6.21.07.57.2,1.77-.32,3.1-.09.25-.44.96-.55,1.31-.14.44-.01.52-.11.8-.21.62-.26.4.25.59.31.11.7.15,1.03.25.45.14.77.39,1.12.65.56.39,1.31.64,1.68,1.21.34.51.2,1.34.44,1.92.24.56.64.98,1.38.98.01,0,.03,0,.04,0l1.78-.49c.25-.13.48-.3.71-.5.22-.19.42-.39.61-.61-.17-.09-.65-1.54-.86-1.64-.31-.16-1.31-2.39-1.57-4.02Z" style="fill: #f4d0bf; stroke-width: 0px;"/>
              <path d="m164.29,313.23c-.33-.13-1.36-.54-1.36-.54,0,0,.12.4-.29.6-.13.06-.27.1-.38.15-.36.11-.69.15-1,.13-.62-.06-1.13-.35-1.52-.74-1.06-1.01-2.21-1.83-3.54-2.52-.44-.23-.87-.9-.96-.76-.42.66-.73,1.32-.77,1.54-.19.9-.36,1.86.09,2.36.28.29,1.06.69,2,.39.74-.24,1.61-.24,1.91,0,.69.51-.03,2.99,1.2,2.77,1.12-.2,2.28-.47,3.43-.81.54-.15,1.08-.32,1.63-.55.26-.11.7-.27.94-.57.77-.96-1-1.3-1.39-1.44Z" style="fill: #3c86b8; stroke-width: 0px;"/>
            </g>
            <g>
              <path d="m143.42,244.1c.24-.59.48-1.17.76-1.75,5.71-12.14-1.72-25.16,5.06-25.24,0,0-3.45,3.54,1.74,4.68,5.1,1.11,7.21-1.32,7.21-1.32,2.28.99,8.12,5.57,4.25,15.77-.69,1.79-.43,5.54.1,10.5-9.35,3.76-15.91,1.38-19.13-2.63Z" style="fill: #fe76a6; stroke-width: 0px;"/>
              <path d="m143.42,244.1c3.22,4.02,9.78,6.39,19.13,2.63,1.04,9.67,3.11,23.96,1.24,37.51-2.38,3.03-17.74-.59-21.32-3.76.09-3.58-4.87-21.74.96-36.38Z" style="fill: #3c86b8; stroke-width: 0px;"/>
            </g>
            <g>
              <path d="m149.46,218.49c-.05,2.5,6.52,3.22,7.06,1.47.39-1.28.32-5.02.32-5.02l-7.05-.68s-.33,4.21-.33,4.23Z" style="fill: #edc9b9; stroke-width: 0px;"/>
              <path d="m147.99,211.15c3.61,3.79,5.04,3.74,8.64,1.19,3.61-2.55,5.11-6.15,4.25-11.49-.92-5.69-7.69-7.13-12-4.5-8.24,5.02-5.38,10.1-.9,14.81Z" style="fill: #963123; stroke-width: 0px;"/>
              <path d="m149.55,207.49c.21,1.62,1.16,6.34,2.16,7.2,1.41,1.22,5.43,2.04,7.28.57,2.48-1.97,2.13-6.12,2.13-11.28s-3.34-6.13-6.18-3.94c-2.84,2.2-6.07,2.35-5.39,7.44Z" style="fill: #f4d0bf; stroke-width: 0px;"/>
              <path d="m143.72,202.28c.31-2.23,5.67-2.44,5.67-2.44.39-.32,2.75-8.9,11.7-1.91,1.86,1.45,1.26,6.52,1.26,6.52,0,0-4.06.4-4.55.8-.45.37-2.19,3.21-3.63,5.74-.2.35-.38.68-.57,1.01-.77,1.37-1.69,4.2-5.27,1.85-.26-.23-6.23-6.43-4.61-11.56Z" style="fill: #963123; stroke-width: 0px;"/>
              <path d="m153.98,209.11c.39,1.09.91,1.73,1.59,1.64.7-.09,1.06-.82.91-1.97-.15-1.14-1.15-1.98-1.84-1.89-.69.08-1.09.98-.66,2.21Z" style="fill: #f4d0bf; stroke-width: 0px;"/>
            </g>
            <path d="m148.5,219.8c-.28-.6-.57-1.21-.89-1.82-8.07-12.19,2.54-16.09,2.55-16.14.08-.72-.21-1.21-.65-1.51-.36-.31-.81-.53-1.23-.72-.19-.08-1.05-1.11-3.08-1.15-2.91-.05-7.41,1.58-8,15-.12,2.7-1.18,9.31.18,13.14.51.85,1.29,1.59,2.34,1.59.24,0,.51,0,.78,0,3.69-1.41,8.99-3.13,8.25-6.51-.13-.59-.21-1.22-.26-1.87Z" style="fill: #1b0e0d; stroke-width: 0px;"/>
            <path d="m170.5,256.36l2.72,2.86,1.6,2.79c.13.28.87,1.61.54,2.33-.24.48-1.81,3-2.52,2.14-.48-.56-3.41-5.25-3.41-5.25,0,0,0-1.04-1.01-2.87l-1.32-1.01,3.4-.99Z" style="fill: #f4d0bf; stroke-width: 0px;"/>
            <path d="m168.79,242.42c.6,2.5-.92,5.01-3.4,5.61h0c-2.48.6-4.98-.94-5.58-3.44l-4.38-17.65c-.6-2.49.92-5.01,3.4-5.6h0c2.48-.61,4.98.93,5.58,3.43l4.38,17.65Z" style="fill: #fd96ba; stroke-width: 0px;"/>
            <path d="m173.12,254.71c1.11,2.22.21,4.91-2,6.02h0c-2.2,1.1-4.89.19-5.99-2.03l-5.02-13.25c-1.11-2.21.77-2.51,2.98-3.61h0c2.2-1.1,4.61-1.64,5.71.58l4.33,12.29Z" style="fill: #fd96ba; stroke-width: 0px;"/>
          </g>
        </g>
      </g>
      <path d="m384.22,60.68c0,33.51-27.17,60.68-60.68,60.68-33.51,0-60.68-27.17-60.68-60.68,0-33.51,27.17-60.68,60.68-60.68,33.51,0,60.68,27.17,60.68,60.68Z" style="fill: #8cd26f; stroke-width: 0px;"/>
      <polygon points="326.43 112.71 292.86 134.96 284.05 97.1 326.43 112.71" style="fill: #8cd26f; stroke-width: 0px;"/>
      <g>
        <g>
          <path d="m319.32,33.81c-.84,5.6-2.13,10.18-4.27,13.93,1.71,2.97,3.95,5.39,6.75,6.86-.63.52-1.43,1.47-1.82,2.2-2.66-1.57-4.79-3.81-6.51-6.61-2.06,2.76-4.72,5-8.15,6.79-.28-.63-1.05-1.78-1.57-2.34,3.64-1.71,6.33-4.02,8.33-7.03-1.36-2.83-2.38-6.12-3.18-9.69-.67,1.54-1.5,2.9-2.34,4.13-.38-.42-1.22-1.19-1.89-1.64-1.43,1.68-3.43,3.36-5.28,4.62v1.4c2.24-.28,4.55-.59,6.86-.91l.03,2.27c-2.31.31-4.62.63-6.89.98v5.35c0,1.33-.28,1.96-1.26,2.34-.94.38-2.45.38-4.65.38-.14-.7-.49-1.57-.84-2.27,1.75.07,3.22.04,3.67.04.49-.04.6-.14.6-.52v-5c-2.59.35-4.97.7-6.96.94l-.32-2.38c1.99-.24,4.51-.56,7.28-.87v-2.41c1.33-.77,2.83-1.99,3.99-3.11h-5.46c-1.37,1.05-2.76,2.03-4.23,2.87-.39-.49-1.33-1.5-1.85-1.99,2.83-1.43,5.42-3.32,7.63-5.53h-7.38v-2.31h6.05v-3.46h-4.58v-2.24h4.58v-3.67h2.41v3.67h3.6v2.13c.94-1.57,1.78-3.22,2.48-4.97l2.41.7c-1.19,2.87-2.66,5.46-4.37,7.84h4.23v2.31h-6.09c-.8.87-1.61,1.75-2.48,2.55h5.11l.49-.14,1.22.91c2.66-3.64,4.44-9.2,5.46-15.01l2.59.42c-.38,2.1-.84,4.13-1.4,6.05h10.22v2.45h-2.21Zm-21.27.46h1.05c.91-1.08,1.71-2.27,2.48-3.46h-3.53v3.46Zm15.57,10.6c1.47-3.08,2.38-6.75,3.04-11.06h-6.12c.67,4.02,1.68,7.8,3.08,11.06Z" style="fill: #fff; stroke-width: 0px;"/>
          <path d="m337.69,44.51c-.77-1.26-2.59-3.71-4.02-5.6v17.88h-2.59v-16.79c-1.5,4.09-3.5,8.08-5.56,10.46-.28-.73-.95-1.82-1.43-2.45,2.66-2.9,5.32-8.33,6.61-13.16h-5.42v-2.48h5.81v-7.49h2.59v7.49h4.76v2.48h-4.76v.91c1.29,1.4,4.79,5.49,5.67,6.51l-1.64,2.24Zm18.75-9.62h-3.6v18.4c0,1.78-.46,2.59-1.61,2.97-1.15.46-3.22.52-6.16.52-.14-.73-.56-1.92-.95-2.66,2.27.07,4.51.04,5.18.04.63-.04.88-.21.88-.84v-14.9c-2.76,5.04-6.75,9.97-10.6,12.88-.46-.66-1.22-1.57-1.85-2.1,4.37-2.97,8.96-8.82,11.55-14.31h-9.52v-2.48h10.43v-7.45h2.66v7.45h3.6v2.48Z" style="fill: #fff; stroke-width: 0px;"/>
          <path d="m319.32,75.8c-.84,5.6-2.13,10.18-4.27,13.93,1.71,2.97,3.95,5.39,6.75,6.86-.63.52-1.43,1.47-1.82,2.2-2.66-1.57-4.79-3.81-6.51-6.61-2.06,2.76-4.72,5-8.15,6.79-.28-.63-1.05-1.78-1.57-2.34,3.64-1.71,6.33-4.02,8.33-7.03-1.36-2.83-2.38-6.12-3.18-9.69-.67,1.54-1.5,2.9-2.34,4.13-.38-.42-1.22-1.19-1.89-1.64-1.43,1.68-3.43,3.36-5.28,4.62v1.4c2.24-.28,4.55-.59,6.86-.91l.03,2.27c-2.31.31-4.62.63-6.89.98v5.35c0,1.33-.28,1.96-1.26,2.34-.94.38-2.45.38-4.65.38-.14-.7-.49-1.57-.84-2.27,1.75.07,3.22.04,3.67.04.49-.04.6-.14.6-.52v-5c-2.59.35-4.97.7-6.96.94l-.32-2.38c1.99-.24,4.51-.56,7.28-.87v-2.41c1.33-.77,2.83-1.99,3.99-3.11h-5.46c-1.37,1.05-2.76,2.03-4.23,2.87-.39-.49-1.33-1.5-1.85-1.99,2.83-1.43,5.42-3.32,7.63-5.53h-7.38v-2.31h6.05v-3.46h-4.58v-2.24h4.58v-3.67h2.41v3.67h3.6v2.13c.94-1.57,1.78-3.22,2.48-4.97l2.41.7c-1.19,2.87-2.66,5.46-4.37,7.84h4.23v2.31h-6.09c-.8.87-1.61,1.75-2.48,2.55h5.11l.49-.14,1.22.91c2.66-3.64,4.44-9.2,5.46-15.01l2.59.42c-.38,2.1-.84,4.13-1.4,6.05h10.22v2.45h-2.21Zm-21.27.46h1.05c.91-1.08,1.71-2.27,2.48-3.46h-3.53v3.46Zm15.57,10.6c1.47-3.08,2.38-6.75,3.04-11.06h-6.12c.67,4.02,1.68,7.8,3.08,11.06Z" style="fill: #fff; stroke-width: 0px;"/>
          <path d="m331.08,82.34c-1.43-1.19-4.2-2.76-6.47-3.78l1.4-1.89c2.21.88,5.07,2.38,6.51,3.5l-1.43,2.17Zm-5.28,14.28c1.85-2.66,4.62-7.24,6.61-11.2l1.89,1.71c-1.82,3.67-4.27,8.01-6.33,11.23l-2.17-1.75Zm2.1-29.36c2.31.94,5.18,2.52,6.65,3.64l-1.5,2.17c-1.4-1.19-4.23-2.87-6.54-3.92l1.4-1.89Zm25.65,31.52c-.35-.98-.94-2.17-1.61-3.46-12.98,1.61-14.45,1.85-15.39,2.31-.14-.6-.56-1.89-.88-2.59.67-.17,1.36-1.01,2.24-2.27.77-1.05,3.08-4.76,4.83-8.68h-7.8v-2.48h8.99v-6.23h-7.45v-2.48h7.45v-6.02h2.59v6.02h7.73v2.48h-7.73v6.23h9.2v2.48h-9.9c-1.82,3.71-3.99,7.42-6.16,10.36l11.06-1.22c-.98-1.57-2.03-3.15-3.11-4.51l2.06-.98c2.48,3.04,5.11,7.21,6.19,9.9l-2.31,1.15Z" style="fill: #fff; stroke-width: 0px;"/>
        </g>
        <g>
          <path d="m319.32,33.81c-.84,5.6-2.13,10.18-4.27,13.93,1.71,2.97,3.95,5.39,6.75,6.86-.63.52-1.43,1.47-1.82,2.2-2.66-1.57-4.79-3.81-6.51-6.61-2.06,2.76-4.72,5-8.15,6.79-.28-.63-1.05-1.78-1.57-2.34,3.64-1.71,6.33-4.02,8.33-7.03-1.36-2.83-2.38-6.12-3.18-9.69-.67,1.54-1.5,2.9-2.34,4.13-.38-.42-1.22-1.19-1.89-1.64-1.43,1.68-3.43,3.36-5.28,4.62v1.4c2.24-.28,4.55-.59,6.86-.91l.03,2.27c-2.31.31-4.62.63-6.89.98v5.35c0,1.33-.28,1.96-1.26,2.34-.94.38-2.45.38-4.65.38-.14-.7-.49-1.57-.84-2.27,1.75.07,3.22.04,3.67.04.49-.04.6-.14.6-.52v-5c-2.59.35-4.97.7-6.96.94l-.32-2.38c1.99-.24,4.51-.56,7.28-.87v-2.41c1.33-.77,2.83-1.99,3.99-3.11h-5.46c-1.37,1.05-2.76,2.03-4.23,2.87-.39-.49-1.33-1.5-1.85-1.99,2.83-1.43,5.42-3.32,7.63-5.53h-7.38v-2.31h6.05v-3.46h-4.58v-2.24h4.58v-3.67h2.41v3.67h3.6v2.13c.94-1.57,1.78-3.22,2.48-4.97l2.41.7c-1.19,2.87-2.66,5.46-4.37,7.84h4.23v2.31h-6.09c-.8.87-1.61,1.75-2.48,2.55h5.11l.49-.14,1.22.91c2.66-3.64,4.44-9.2,5.46-15.01l2.59.42c-.38,2.1-.84,4.13-1.4,6.05h10.22v2.45h-2.21Zm-21.27.46h1.05c.91-1.08,1.71-2.27,2.48-3.46h-3.53v3.46Zm15.57,10.6c1.47-3.08,2.38-6.75,3.04-11.06h-6.12c.67,4.02,1.68,7.8,3.08,11.06Z" style="fill: #fff; stroke-width: 0px;"/>
          <path d="m337.69,44.51c-.77-1.26-2.59-3.71-4.02-5.6v17.88h-2.59v-16.79c-1.5,4.09-3.5,8.08-5.56,10.46-.28-.73-.95-1.82-1.43-2.45,2.66-2.9,5.32-8.33,6.61-13.16h-5.42v-2.48h5.81v-7.49h2.59v7.49h4.76v2.48h-4.76v.91c1.29,1.4,4.79,5.49,5.67,6.51l-1.64,2.24Zm18.75-9.62h-3.6v18.4c0,1.78-.46,2.59-1.61,2.97-1.15.46-3.22.52-6.16.52-.14-.73-.56-1.92-.95-2.66,2.27.07,4.51.04,5.18.04.63-.04.88-.21.88-.84v-14.9c-2.76,5.04-6.75,9.97-10.6,12.88-.46-.66-1.22-1.57-1.85-2.1,4.37-2.97,8.96-8.82,11.55-14.31h-9.52v-2.48h10.43v-7.45h2.66v7.45h3.6v2.48Z" style="fill: #fff; stroke-width: 0px;"/>
          <path d="m319.32,75.8c-.84,5.6-2.13,10.18-4.27,13.93,1.71,2.97,3.95,5.39,6.75,6.86-.63.52-1.43,1.47-1.82,2.2-2.66-1.57-4.79-3.81-6.51-6.61-2.06,2.76-4.72,5-8.15,6.79-.28-.63-1.05-1.78-1.57-2.34,3.64-1.71,6.33-4.02,8.33-7.03-1.36-2.83-2.38-6.12-3.18-9.69-.67,1.54-1.5,2.9-2.34,4.13-.38-.42-1.22-1.19-1.89-1.64-1.43,1.68-3.43,3.36-5.28,4.62v1.4c2.24-.28,4.55-.59,6.86-.91l.03,2.27c-2.31.31-4.62.63-6.89.98v5.35c0,1.33-.28,1.96-1.26,2.34-.94.38-2.45.38-4.65.38-.14-.7-.49-1.57-.84-2.27,1.75.07,3.22.04,3.67.04.49-.04.6-.14.6-.52v-5c-2.59.35-4.97.7-6.96.94l-.32-2.38c1.99-.24,4.51-.56,7.28-.87v-2.41c1.33-.77,2.83-1.99,3.99-3.11h-5.46c-1.37,1.05-2.76,2.03-4.23,2.87-.39-.49-1.33-1.5-1.85-1.99,2.83-1.43,5.42-3.32,7.63-5.53h-7.38v-2.31h6.05v-3.46h-4.58v-2.24h4.58v-3.67h2.41v3.67h3.6v2.13c.94-1.57,1.78-3.22,2.48-4.97l2.41.7c-1.19,2.87-2.66,5.46-4.37,7.84h4.23v2.31h-6.09c-.8.87-1.61,1.75-2.48,2.55h5.11l.49-.14,1.22.91c2.66-3.64,4.44-9.2,5.46-15.01l2.59.42c-.38,2.1-.84,4.13-1.4,6.05h10.22v2.45h-2.21Zm-21.27.46h1.05c.91-1.08,1.71-2.27,2.48-3.46h-3.53v3.46Zm15.57,10.6c1.47-3.08,2.38-6.75,3.04-11.06h-6.12c.67,4.02,1.68,7.8,3.08,11.06Z" style="fill: #fff; stroke-width: 0px;"/>
          <path d="m331.08,82.34c-1.43-1.19-4.2-2.76-6.47-3.78l1.4-1.89c2.21.88,5.07,2.38,6.51,3.5l-1.43,2.17Zm-5.28,14.28c1.85-2.66,4.62-7.24,6.61-11.2l1.89,1.71c-1.82,3.67-4.27,8.01-6.33,11.23l-2.17-1.75Zm2.1-29.36c2.31.94,5.18,2.52,6.65,3.64l-1.5,2.17c-1.4-1.19-4.23-2.87-6.54-3.92l1.4-1.89Zm25.65,31.52c-.35-.98-.94-2.17-1.61-3.46-12.98,1.61-14.45,1.85-15.39,2.31-.14-.6-.56-1.89-.88-2.59.67-.17,1.36-1.01,2.24-2.27.77-1.05,3.08-4.76,4.83-8.68h-7.8v-2.48h8.99v-6.23h-7.45v-2.48h7.45v-6.02h2.59v6.02h7.73v2.48h-7.73v6.23h9.2v2.48h-9.9c-1.82,3.71-3.99,7.42-6.16,10.36l11.06-1.22c-.98-1.57-2.03-3.15-3.11-4.51l2.06-.98c2.48,3.04,5.11,7.21,6.19,9.9l-2.31,1.15Z" style="fill: #fff; stroke-width: 0px;"/>
        </g>
      </g>
    </g>
  </g>
</svg>