<?xml version="1.0" encoding="UTF-8"?>
<svg xmlns="http://www.w3.org/2000/svg" width="315" height="321.44" xmlns:xlink="http://www.w3.org/1999/xlink" viewBox="0 0 315 321.44">
  <defs>
    <clipPath id="clippath">
      <circle cx="158.17" cy="163.2" r="89.75" style="fill: none; stroke-width: 0px;"/>
    </clipPath>
    <clipPath id="clippath-1">
      <path d="m219.02,193.59h-126.63s-7.46,62.17,63.31,62.17,63.31-62.17,63.31-62.17Z" style="fill: none; stroke-width: 0px;"/>
    </clipPath>
  </defs>
  <g style="isolation: isolate;">
    <g id="_圖層_2" data-name="圖層 2">
      <g id="_第一cut" data-name="第一cut">
        <g id="teaching_methods5">
          <g>
            <path d="m172.05,286.1c64.59,0,116.95-52.36,116.95-116.96,0-59.62-44.62-108.79-102.29-116.01v-5.82c0-.28-.06-.55-.08-.83,5.07-4.2,8.31-10.54,8.31-17.64,0-12.64-10.25-22.89-22.89-22.89s-22.89,10.25-22.89,22.89c0,5.02,1.63,9.65,4.37,13.42-.04.09-.08.17-.12.26,1.16,1.55,2.53,2.93,4.03,4.15-.01.22-.07.42-.07.65v5.82c-57.66,7.22-102.29,56.39-102.29,116.01,0,64.59,52.36,116.96,116.96,116.96Zm0-274.34c9.43,0,17.08,7.65,17.08,17.08,0,2.95-.75,5.72-2.06,8.14-.07-.06-.13-.12-.19-.17-.74,1.41-1.68,2.69-2.77,3.83-1.82-2.01-4.43-3.29-7.36-3.29h-9.4c-3,0-5.66,1.35-7.49,3.45-3.02-3.08-4.89-7.3-4.89-11.96,0-9.43,7.65-17.08,17.08-17.08Z" style="fill: #e28a2b; mix-blend-mode: multiply; opacity: .19; stroke-width: 0px;"/>
            <g>
              <path d="m158.17,61.83c-55.99,0-101.37,45.39-101.37,101.37s45.39,101.37,101.37,101.37,101.37-45.39,101.37-101.37-45.39-101.37-101.37-101.37Z" style="fill: #ffefd2; stroke-width: 0px;"/>
              <g>
                <path d="m158.17,46.24c-64.59,0-116.96,52.36-116.96,116.96s52.36,116.96,116.96,116.96,116.96-52.36,116.96-116.96-52.36-116.96-116.96-116.96Zm0,216.01c-54.71,0-99.06-44.35-99.06-99.06s44.35-99.06,99.06-99.06,99.06,44.35,99.06,99.06-44.35,99.06-99.06,99.06Z" style="fill: #efaf3f; stroke-width: 0px;"/>
                <path d="m158.17,55.14c-59.68,0-108.06,48.38-108.06,108.06s48.38,108.06,108.06,108.06,108.06-48.38,108.06-108.06-48.38-108.06-108.06-108.06Zm0,207.12c-54.71,0-99.06-44.35-99.06-99.06s44.35-99.06,99.06-99.06,99.06,44.35,99.06,99.06-44.35,99.06-99.06,99.06Z" style="fill: #e28a2b; stroke-width: 0px;"/>
                <g style="clip-path: url(#clippath);">
                  <rect x="5.67" y="-22.09" width="349.28" height="349.28" style="fill: #cff4ff; stroke-width: 0px;"/>
                  <g>
                    <g id="FOODS">
                      <g>
                        <path d="m150.64,183.42c-5.61-.52-10.13,3.93-9.69,9.88.38,5.07,7.32,3.82,7.32,3.82l-.13,2.75,4.07.55.13-3.17s4.67-1.41,5.93-4.36c1.98-4.62-2.23-8.96-7.62-9.46Z" style="fill: #7b6a59; stroke-width: 0px;"/>
                        <g>
                          <path d="m151.9,195.97c.12-.8,1.41-4.05,2.54-2.93.97.96-2.18,2.35-2.78,2.65-.29.14-.04.57.25.43,1.02-.51,4.2-1.87,2.89-3.43-1.47-1.74-3.22,2.1-3.38,3.15-.05.32.44.45.48.13h0Z" style="fill: #7b6a59; stroke-width: 0px;"/>
                          <path d="m149.96,195.6c-.56-.62-1.58-.94-2.35-1.2-.46-.15-1.76-.58-2.08.06-.89,1.84,3.68,1.55,4.44,1.8.31.1.44-.38.13-.48-.59-.2-1.29-.17-1.91-.22-.52-.04-2.15-.02-2.24-.74-.06-.46,1.65.1,1.84.17.59.21,1.39.49,1.82.96.22.24.57-.11.35-.35h0Z" style="fill: #7b6a59; stroke-width: 0px;"/>
                          <path d="m145.41,185.31c-.49.37-.99.73-1.43,1.16-.23.23.12.58.35.35.41-.4.87-.74,1.32-1.09.25-.19,0-.63-.25-.43h0Z" style="fill: #7b6a59; stroke-width: 0px;"/>
                          <path d="m143.49,187.6c-.25.27-.38.6-.54.93-.14.29.29.54.43.25.14-.28.24-.59.46-.82.22-.24-.13-.59-.35-.35h0Z" style="fill: #7b6a59; stroke-width: 0px;"/>
                          <path d="m157.15,190.21c-.15-.67-.5-1.26-.9-1.81-.19-.26-.62,0-.43.25.38.51.71,1.06.85,1.69.07.31.55.18.48-.13h0Z" style="fill: #7b6a59; stroke-width: 0px;"/>
                          <path d="m155.34,187.23c-.14-.14-.29-.28-.49-.31-.32-.05-.45.43-.13.48.11.02.18.11.26.19.23.23.58-.13.35-.35h0Z" style="fill: #7b6a59; stroke-width: 0px;"/>
                          <path d="m143.71,195.1c-.18-.19-.29-.44-.3-.7-.01-.32-.51-.32-.5,0,.01.39.18.76.45,1.05.22.24.57-.12.35-.35h0Z" style="fill: #7b6a59; stroke-width: 0px;"/>
                          <path d="m153.1,191.54c-.7.15-1.36.56-1.65,1.24-.13.29.3.55.43.25.25-.57.76-.88,1.35-1.01.31-.07.18-.55-.13-.48h0Z" style="fill: #7b6a59; stroke-width: 0px;"/>
                        </g>
                      </g>
                      <g>
                        <path d="m81.42,146.6c-4.28,4.21-5.18,8.06-1.65,13.53,3.53,5.47,10.13,3.66,14.2-.23,3.41-3.26,2.67-9.24-.09-12.18-2.76-2.94-8.54-4.97-12.46-1.12Z" style="fill: #ffba63; stroke-width: 0px;"/>
                        <g>
                          <path d="m85.51,153.08c-.61-1.85-1.18-3.7-1.7-5.58-.38.22-.74.5-1.08.84-.65.64-1.19,1.26-1.62,1.89,1.34,1.14,2.91,1.94,4.41,2.86Z" style="fill: #f59a4d; stroke-width: 0px;"/>
                          <path d="m85.69,154.21c.04-.06.08-.12.12-.17-1.71-1.08-3.53-1.95-5.07-3.26-.94,1.58-1.19,3.18-.64,5,1.88-.36,3.75-.97,5.59-1.57Z" style="fill: #f59a4d; stroke-width: 0px;"/>
                          <path d="m86.73,153.87s0,0,0,0c.48-.16.97-.31,1.45-.45,1.8-.53,3.66-1.17,5.55-1.42-.3-1.08-.82-2.08-1.52-2.81-.44-.47-.99-.91-1.6-1.28-1.1,2.11-2.5,4.03-3.88,5.97Z" style="fill: #f59a4d; stroke-width: 0px;"/>
                          <path d="m86.3,153.35c1.34-1.87,2.67-3.73,3.73-5.77-1.7-.86-3.77-1.2-5.62-.39.57,2.07,1.21,4.13,1.89,6.16Z" style="fill: #f59a4d; stroke-width: 0px;"/>
                          <path d="m83.15,158.24c.57-1.11,1.25-2.17,1.96-3.2-1.59.51-3.18,1.04-4.8,1.36.27.7.66,1.44,1.16,2.22.3.46.63.85.98,1.18.22-.53.44-1.06.7-1.57Z" style="fill: #f59a4d; stroke-width: 0px;"/>
                          <path d="m87.53,154.29c-.05.02-.11.03-.16.05,1.73,1.26,3.42,2.58,5.09,3.91,1.41-1.5,1.78-3.65,1.41-5.61-2.16.28-4.27,1.06-6.34,1.65Z" style="fill: #f59a4d; stroke-width: 0px;"/>
                          <path d="m86.74,154.66c.69,2.01,1.4,4.01,2.1,6.02,1.13-.45,2.21-1.14,3.14-1.97-1.71-1.38-3.43-2.81-5.25-4.05Z" style="fill: #f59a4d; stroke-width: 0px;"/>
                          <path d="m86.08,154.78c-.06.09-.12.18-.18.26-.94,1.36-1.86,2.75-2.52,4.28-.13.31-.26.62-.39.92,1.54,1.12,3.42,1.21,5.23.65-.72-2.04-1.44-4.07-2.14-6.11Z" style="fill: #f59a4d; stroke-width: 0px;"/>
                        </g>
                        <g>
                          <path d="m78.35,154.74c.08.94.35,1.86.68,2.74.15.4.76.16.62-.23-.31-.83-.56-1.68-.64-2.57-.04-.42-.69-.36-.66.06Z" style="fill: #f59a4d; stroke-width: 0px;"/>
                          <path d="m79.56,158.42c.09.23.18.46.26.69.15.4.77.16.62-.23-.09-.23-.18-.46-.26-.69-.15-.4-.77-.16-.62.23Z" style="fill: #f59a4d; stroke-width: 0px;"/>
                          <path d="m94.67,155.95c-.31.67-.76,1.27-1.12,1.92-.21.37.4.64.6.27.36-.65.8-1.25,1.12-1.92.18-.39-.42-.65-.6-.27Z" style="fill: #f59a4d; stroke-width: 0px;"/>
                          <path d="m90,145.84c-.52-.23-1.07-.36-1.61-.53-.4-.13-.67.47-.27.6.54.17,1.09.31,1.61.53.39.17.66-.43.27-.6Z" style="fill: #f59a4d; stroke-width: 0px;"/>
                        </g>
                      </g>
                      <g id="_Group_" data-name="&amp;lt;Group&amp;gt;">
                        <g>
                          <path d="m194.43,169.31c-3.18-6.82-12.9-12.65-21.2-10.63-8.3,2.02-10.76,10.05-10.76,10.05,0,0,1.58,27.8,4.2,32.94,2.63,5.15,10-.69,9.61-2.04-.56-1.36,1.3-6.94,8.7-9.78,7.41-2.84,12.62-13.72,9.43-20.53Zm-13.19.82c-.22,1.66-1.69,3.13-3.44,3-2.04-.16-3.96-1.62-3.68-3.83.26-2.06,2.34-3.23,4.26-3.03.01,0,.03,0,.04.01,0,0,.02,0,.03,0,1.9.38,3.04,1.91,2.79,3.85Z" style="fill: #ff9874; stroke-width: 0px;"/>
                          <g>
                            <path d="m162.62,176.16c1.1-2.7,2.06-5.5,3.74-7.92,1.92-2.75,5.02-4.54,8.3-5.1,6.04-1.02,12.21,2.57,13.78,8.53.61,2.33.4,4.82-.5,7.04-1.1,2.72-3.34,4.34-5.75,5.83-2.57,1.6-5.41,3.23-7.05,5.86-1.44,2.3-1.27,5.22-2.92,7.44-1.38,1.86-3.62,1.78-5.38.54-1.9-1.34-2.92-3.72-3.19-5.96-.04-.32-.53-.21-.49.11.4,3.33,2.98,7.85,6.94,7.24,1.92-.3,3.06-2.19,3.69-3.85.48-1.26.7-2.62,1.14-3.9.59-1.71,1.81-2.89,3.12-4.07,2.36-2.11,5.43-3.24,7.77-5.37,1.6-1.45,2.66-3.43,3.16-5.52,1-4.13-.5-8.79-3.77-11.52-4.16-3.49-10.12-3.92-14.87-1.45-4.68,2.43-6.34,7.32-8.21,11.9-.12.3.35.45.47.16h0Z" style="fill: #57637e; stroke-width: 0px;"/>
                            <path d="m178.39,166.27c-1.92-.2-4,.97-4.26,3.03-.28,2.2,1.64,3.66,3.68,3.83,1.74.14,3.22-1.33,3.44-3,.26-1.93-.89-3.47-2.79-3.85-.31-.06-.47.41-.16.48,1.53.3,2.52,1.37,2.49,2.95-.03,1.52-1.2,2.82-2.73,2.92-1.76.11-3.56-1.27-3.46-3.09.1-1.9,2.06-2.94,3.76-2.76.32.03.34-.47.02-.5h0Z" style="fill: #fff; stroke-width: 0px;"/>
                            <path d="m186.76,177.48c-.22,1.36-1.18,2.27-2.21,3.09-.25.2.09.57.34.37,1.15-.92,2.13-1.93,2.37-3.44.05-.32-.45-.34-.5-.02h0Z" style="fill: #57637e; stroke-width: 0px;"/>
                            <path d="m183.57,181.37c-.55.25-1.05.59-1.55.92-.27.18-.04.62.23.44.5-.34,1-.68,1.55-.93.29-.13.06-.58-.23-.44h0Z" style="fill: #57637e; stroke-width: 0px;"/>
                            <path d="m183.88,178.85c-.44.13-.83.36-1.21.59-.28.16-.05.61.23.44.35-.21.7-.43,1.09-.55.31-.09.2-.58-.11-.49h0Z" style="fill: #57637e; stroke-width: 0px;"/>
                            <path d="m178.74,161.2c-2.86-.62-5.78-.4-8.38.99-.28.15-.05.6.23.44,2.48-1.33,5.27-1.55,7.99-.96.31.07.47-.41.16-.48h0Z" style="fill: #57637e; stroke-width: 0px;"/>
                            <path d="m169.03,162.92c-.64.47-1.19,1.06-1.83,1.54-.26.19.08.56.34.37.64-.47,1.19-1.06,1.83-1.54.26-.19-.08-.56-.34-.37h0Z" style="fill: #57637e; stroke-width: 0px;"/>
                            <path d="m167.16,169.51c-.92,1.19-1.74,2.44-2.34,3.82-.13.3.35.45.48.16.58-1.35,1.39-2.55,2.28-3.71.2-.26-.22-.53-.42-.27h0Z" style="fill: #57637e; stroke-width: 0px;"/>
                            <path d="m179.5,187.8c-1.28.71-2.2,1.84-3.2,2.89-.22.23.11.6.34.37.97-1.01,1.85-2.12,3.09-2.81.28-.16.05-.6-.23-.44h0Z" style="fill: #57637e; stroke-width: 0px;"/>
                            <path d="m180.85,173.1c-1.37.63-2.75.9-4.21.39-.31-.11-.46.37-.16.48,1.58.55,3.11.26,4.59-.43.29-.14.06-.58-.23-.44h0Z" style="fill: #57637e; stroke-width: 0px;"/>
                            <path d="m190.07,174.2c.39,1.32-.08,2.56-.66,3.74-.14.29.32.48.46.19.64-1.33,1.08-2.66.66-4.13-.09-.31-.55-.11-.46.19h0Z" style="fill: #57637e; stroke-width: 0px;"/>
                            <path d="m190.95,183.22c-.6-.06-1.2-.02-1.8.02-.32.02-.34.52-.02.5.6-.04,1.2-.09,1.8-.03.32.03.34-.47.02-.5h0Z" style="fill: #57637e; stroke-width: 0px;"/>
                          </g>
                        </g>
                        <g>
                          <path d="m196.18,201.19l-.25-18.27,4.01-2s-.43,9.3,2.28,9.28c2.71-.02,3.64-10.77,3.64-10.77,0,0,5.23-1.35,5.45,1.94-1.9,6.08-4.18,12.49-1.68,13.25,2.5.75,8.16-8.54,8.16-8.54l4.53,4.63s-11.31,9.32-14.02,18.46c-10.34-6.8-12.12-7.97-12.12-7.97Z" style="fill: #00846b; stroke-width: 0px;"/>
                          <path d="m201.28,180.01s-.31,5.48-5.56,3.23c-1.84-1.06-2.24-3.42-2.24-3.42,0,0-2.04,1.05-3.79-1.29-1.75-2.35-.26-3.47-.26-3.47,0,0-4.34-.49-4.29-3.72.08-4.44,4.03-3.63,4.03-3.63,0,0-4.38-2.43-1.95-7.27,2.43-4.83,7.18-4.55,9.25-.65.67-3.75,4.02-4.98,6.29-3.65,2.26,1.34,3.14,3.64,2.45,6.06,1.25-2.13,3.79-.76,4.23,1.76.05-3.71,3.82-9.91,9.32-6.89,5.5,3.02,3.87,8.68,1.83,10.63,2.59-1.89,4.26-.34,3.65,1.95,2.2-3.34,7.85-3.07,9.82,1.22,1.97,4.29-1.73,8.14-4.18,8.32,3.27.8,3.42,2.85,2.04,4.04,3.16-.02,4.16,4.83,2.4,6.36-1.76,1.54-3.28,1.58-4.51.03,1.41,2.87-2.08,5.21-4.25,1.69-2.45,1.23-8.08-.68-7.53-5.85,0,0-5.98,2.5-6.72-4.12-1.34,1.81-5.93.14-6.22-2.6-.99,2.19-2.76,2.37-3.81,1.24Z" style="fill: #007861; stroke-width: 0px;"/>
                          <g>
                            <path d="m201.9,191.92c-.31-.09-.16-.56.15-.48.79.23,1.46-.2,2.04-.69.25-.21.58.17.33.38-.73.62-1.55,1.07-2.53.79Z" style="fill: #00735e; stroke-width: 0px;"/>
                            <path d="m209.37,182.7c-.31,1.62-.66,3.23-1.08,4.83-.08.31-.56.15-.48-.15.42-1.6.77-3.21,1.08-4.83.06-.32.54-.16.48.15Z" style="fill: #00735e; stroke-width: 0px;"/>
                            <path d="m198.4,195.47c.06,1.65-.2,3.28-.25,4.92,0,.32-.51.3-.5-.03.04-1.65.3-3.28.25-4.92-.01-.32.49-.29.5.03Z" style="fill: #00735e; stroke-width: 0px;"/>
                            <path d="m215.16,191.9c.24-.22.57.16.33.38-1.3,1.2-2.54,2.47-3.97,3.53-.26.19-.59-.18-.33-.38,1.43-1.05,2.67-2.32,3.96-3.53Z" style="fill: #00735e; stroke-width: 0px;"/>
                            <path d="m215.94,190.7c.2-.31.41-.58.7-.82.25-.2.58.17.33.38-.25.21-.43.45-.61.72-.18.27-.59,0-.42-.27Z" style="fill: #00735e; stroke-width: 0px;"/>
                            <path d="m208.42,195.32c.14.08.31.12.47.1.32-.05.42.44.1.49-.3.05-.59-.02-.85-.17-.28-.16,0-.58.27-.42Z" style="fill: #00735e; stroke-width: 0px;"/>
                            <path d="m198.32,193.32c-.03.28-.07.56-.1.83-.04.32-.54.29-.5-.03.03-.28.07-.55.1-.83.04-.32.54-.29.5.03Z" style="fill: #00735e; stroke-width: 0px;"/>
                            <path d="m207.97,188.89c-.03.26-.05.54-.18.78-.15.28-.57,0-.42-.27.08-.15.07-.37.09-.54.04-.32.54-.29.5.03Z" style="fill: #00735e; stroke-width: 0px;"/>
                            <path d="m220.6,190.77c-1.03,1.05-2.15,2.01-3.15,3.09-.22.24-.55-.14-.33-.38.97-1.05,2.06-1.98,3.06-3,.14.1.28.19.42.28Z" style="fill: #00735e; stroke-width: 0px;"/>
                            <path d="m200.18,190.1c.12.3-.33.52-.45.22-.82-2.11-1.05-4.34-1.26-6.58.17-.02.33-.06.49-.11.2,2.2.41,4.4,1.22,6.47Z" style="fill: #00735e; stroke-width: 0px;"/>
                          </g>
                          <g>
                            <path d="m191.46,158.14c.27-.17.49.28.22.45-1.22.77-1.95,2.17-2.06,3.58-.02.32-.52.29-.5-.03.12-1.61.96-3.14,2.33-4Z" style="fill: #006854; stroke-width: 0px;"/>
                            <path d="m189.19,164.36c.18.85.37,1.74,1.19,2.19.28.15,0,.57-.27.42-.94-.51-1.2-1.53-1.41-2.51-.07-.32.42-.42.49-.1Z" style="fill: #006854; stroke-width: 0px;"/>
                            <path d="m190.64,164.69c-.22-.66-.18-1.39.06-2.04.11-.3.59-.15.48.15-.22.58-.25,1.19-.05,1.78.1.31-.39.4-.49.1Z" style="fill: #006854; stroke-width: 0px;"/>
                            <path d="m220.8,163.82c.15-.9.14-1.78-.27-2.61-.14-.29.31-.51.45-.22.44.91.49,1.87.32,2.86-.05.31-.55.29-.5-.03Z" style="fill: #006854; stroke-width: 0px;"/>
                            <path d="m219.61,166.47c.28-.42.57-.86.64-1.37.05-.32.55-.29.5.03-.09.61-.39,1.12-.73,1.62-.18.27-.59,0-.42-.28Z" style="fill: #006854; stroke-width: 0px;"/>
                            <path d="m212.75,179.92c.02-.32.52-.3.5.03-.05,1.02.11,2.02.82,2.8.22.24-.16.57-.38.33-.8-.87-1.01-2.01-.95-3.15Z" style="fill: #006854; stroke-width: 0px;"/>
                            <path d="m233,185.46c1.02.53,1.11,1.69.54,2.6-.17.27-.59,0-.42-.27.44-.7.38-1.5-.39-1.91-.28-.15,0-.57.27-.42Z" style="fill: #006854; stroke-width: 0px;"/>
                            <path d="m232.03,188.75c.17,0,.25-.14.33-.27.18-.27.6,0,.42.27-.19.29-.41.51-.78.5-.32-.01-.3-.51.03-.5Z" style="fill: #006854; stroke-width: 0px;"/>
                            <path d="m232.73,174.44c.41-.92.32-1.78-.1-2.68-.14-.29.31-.52.45-.22.47,1,.58,2.02.12,3.05-.13.29-.61.14-.48-.15Z" style="fill: #006854; stroke-width: 0px;"/>
                            <path d="m231.16,176.51c.26-.37.62-.65.87-1.02.18-.27.6,0,.42.27-.26.37-.61.66-.87,1.02-.19.26-.6-.01-.42-.27Z" style="fill: #006854; stroke-width: 0px;"/>
                            <path d="m202.52,166.6c2.07.1,3.97,2.17,2.9,4.13.98,0,1.63.79,1.76,1.77.04.32-.45.42-.49.1-.1-.8-.58-1.51-1.47-1.37-.11.02-.19-.03-.24-.1-.15-.04-.28-.21-.16-.37,1.24-1.74-.52-3.58-2.33-3.67-.32-.02-.3-.51.03-.5Z" style="fill: #006854; stroke-width: 0px;"/>
                            <path d="m218.47,175.48c.04.06.05.12.04.18.02.11.05.21.09.32.11.3-.33.53-.45.22-.06-.15-.1-.3-.13-.45-.32-.23-.68-.4-1.09-.33-.46.08-.65.51-.66.93,0,.32-.51.3-.5-.03.01-.58.28-1.11.84-1.33.45-.18.93-.08,1.35.13,0-2.09,2.17-3.87,4.3-2.95.29.13.14.6-.15.48-1.9-.82-3.96.89-3.64,2.83Z" style="fill: #006854; stroke-width: 0px;"/>
                            <path d="m195.4,176.26c-.12.3-.59.15-.48-.15.67-1.71-1.3-3.33-2.9-2.64-.3.13-.52-.32-.22-.45,1.98-.85,4.43,1.11,3.6,3.24Z" style="fill: #006854; stroke-width: 0px;"/>
                            <path d="m222.56,185.91c-.31-.08-.16-.56.16-.48.33.09.67,0,.99.11.15.05.26.16.35.29.69-1.47,2.73-1.62,3.65-.07.16.28-.28.5-.45.22-.76-1.28-2.63-1.05-2.9.48-.04.23-.36.34-.47.1-.34-.71-.74-.49-1.34-.65Z" style="fill: #006854; stroke-width: 0px;"/>
                          </g>
                        </g>
                        <g>
                          <path d="m215.37,194.26l10.25-15.13-2.25-3.88s-4.75,8-7,6.5c-2.25-1.5,2.87-11,2.87-11,0,0-3.62-4-5.62-1.38-1.75,6.13-3.38,12.73-5.88,11.99-2.5-.74-2.13-11.62-2.13-11.62l-6.33,1.38s4.33,14,1.58,23.13h14.5Z" style="fill: #5bb58b; stroke-width: 0px;"/>
                          <path d="m222.75,173.76s-2.75,4.75,2.87,5.75c2.13.13,3.75-1.62,3.75-1.62,0,0,1.12,2,3.88,1,2.75-1,2.12-2.75,2.12-2.75,0,0,3.9,1.98,5.63-.75,2.38-3.75-1.37-5.25-1.37-5.25,0,0,5,.37,5.62-5,.63-5.38-3.5-7.75-7.37-5.63,1.5-3.5-.62-6.38-3.25-6.5-2.63-.13-4.63,1.32-5.38,3.72.13-2.47-2.75-2.72-4.5-.85,2-3.12,2.25-10.38-4-10.88-6.25-.5-8,5.13-7.38,7.87-1.13-3-3.38-2.63-4.13-.37,0-4-4.88-6.88-8.88-4.38-4,2.5-3.03,7.75-1.08,9.25-3.17-1.12-4.42.5-3.92,2.25-2.63-1.75-6.13,1.75-5.5,4,.62,2.25,1.87,3.13,3.75,2.5-2.75,1.63-1.12,5.5,2.62,3.75,1.38,2.37,7.13,3.88,9.5-.75,0,0,3.62,5.38,7.88.25.13,2.25,4.88,3.38,6.63,1.25-.38,2.37,1,3.5,2.5,3.12Z" style="fill: #008e73; stroke-width: 0px;"/>
                          <g>
                            <path d="m215.68,183.37c.31.1.44-.39.13-.48-.79-.25-1.11-.96-1.33-1.7-.09-.31-.57-.18-.48.13.27.92.71,1.75,1.67,2.05Z" style="fill: #008e73; stroke-width: 0px;"/>
                            <path d="m214.51,171.56c-.63,1.52-1.22,3.06-1.75,4.62-.1.31.38.44.48.13.53-1.56,1.12-3.1,1.75-4.63.12-.3-.36-.43-.48-.13Z" style="fill: #008e73; stroke-width: 0px;"/>
                            <path d="m216.66,188.26c-.95,1.35-1.63,2.85-2.5,4.25-.17.27.26.53.43.25.87-1.4,1.55-2.9,2.5-4.25.19-.26-.25-.51-.43-.25Z" style="fill: #008e73; stroke-width: 0px;"/>
                            <path d="m204.61,176.06c-.08-.31-.56-.18-.48.13.42,1.72.76,3.46,1.38,5.13.11.3.59.17.48-.13-.62-1.67-.95-3.41-1.38-5.13Z" style="fill: #008e73; stroke-width: 0px;"/>
                            <path d="m204.62,174.63c0-.37-.02-.72-.13-1.07-.1-.31-.58-.18-.48.13.1.31.12.61.12.93,0,.32.5.32.5,0Z" style="fill: #008e73; stroke-width: 0px;"/>
                            <path d="m208.37,182.63c-.17,0-.32-.06-.45-.18-.24-.21-.59.14-.35.35.23.2.5.31.8.32.32.02.32-.48,0-.5Z" style="fill: #008e73; stroke-width: 0px;"/>
                            <path d="m217.91,186.51c-.13.25-.25.5-.38.75-.14.29.29.54.43.25.13-.25.25-.5.38-.75.14-.29-.29-.54-.43-.25Z" style="fill: #008e73; stroke-width: 0px;"/>
                            <path d="m212.28,177.5c-.12.24-.26.48-.28.75-.03.32.47.32.5,0,.02-.17.14-.35.22-.5.14-.29-.29-.54-.43-.25Z" style="fill: #008e73; stroke-width: 0px;"/>
                            <path d="m200.69,172.13c.28,1.45.7,2.86.94,4.31.05.32.53.18.48-.13-.23-1.41-.63-2.78-.91-4.19-.17,0-.34,0-.51,0Z" style="fill: #008e73; stroke-width: 0px;"/>
                            <path d="m218.12,182.79c-.26.18-.01.62.25.43,1.85-1.31,3.26-3.05,4.66-4.8-.13-.12-.24-.24-.34-.36-1.37,1.72-2.76,3.45-4.57,4.74Z" style="fill: #008e73; stroke-width: 0px;"/>
                          </g>
                          <g>
                            <path d="m242.96,160.88c-.13-.29-.56-.04-.43.25.6,1.31.44,2.88-.25,4.12-.16.28.27.53.43.25.79-1.41.92-3.15.25-4.63Z" style="fill: #00735e; stroke-width: 0px;"/>
                            <path d="m241.45,167.33c-.61.61-1.27,1.25-2.2,1.18-.32-.03-.32.47,0,.5,1.07.09,1.85-.62,2.55-1.32.23-.23-.13-.58-.35-.35Z" style="fill: #00735e; stroke-width: 0px;"/>
                            <path d="m240.05,166.81c.55-.43.91-1.06,1.06-1.74.07-.31-.41-.45-.48-.13-.13.6-.45,1.13-.94,1.51-.25.2.1.55.35.35Z" style="fill: #00735e; stroke-width: 0px;"/>
                            <path d="m215.34,149.51c.37-.84.86-1.56,1.66-2.04.28-.16.03-.6-.25-.43-.87.52-1.44,1.3-1.84,2.22-.13.29.3.55.43.25Z" style="fill: #00735e; stroke-width: 0px;"/>
                            <path d="m214.87,152.38c0-.51,0-1.03.22-1.5.13-.29-.3-.54-.43-.25-.26.56-.28,1.15-.28,1.75,0,.32.5.32.5,0Z" style="fill: #00735e; stroke-width: 0px;"/>
                            <path d="m213.21,167.38c.16-.28-.27-.53-.43-.25-.52.88-1.2,1.63-2.23,1.88-.31.08-.18.56.13.48,1.14-.29,1.95-1.12,2.52-2.12Z" style="fill: #00735e; stroke-width: 0px;"/>
                            <path d="m193.25,160.88c-1.15-.11-1.85.8-1.88,1.87,0,.32.49.32.5,0,.02-.82.5-1.46,1.37-1.38.32.03.32-.47,0-.5Z" style="fill: #00735e; stroke-width: 0px;"/>
                            <path d="m192.25,164.16c-.15-.09-.13-.26-.13-.41,0-.32-.5-.32-.5,0,0,.35.06.65.37.84.28.17.53-.27.25-.43Z" style="fill: #00735e; stroke-width: 0px;"/>
                            <path d="m199.53,151.82c.16-.99.71-1.67,1.55-2.18.27-.17.02-.6-.25-.43-.94.58-1.6,1.37-1.78,2.48-.05.31.43.45.48.13Z" style="fill: #00735e; stroke-width: 0px;"/>
                            <path d="m199.7,154.42c-.01-.45-.16-.88-.17-1.33,0-.32-.51-.32-.5,0,0,.45.15.89.17,1.33.01.32.51.32.5,0Z" style="fill: #00735e; stroke-width: 0px;"/>
                            <path d="m229.08,161.87c-1.79-1.05-4.5-.37-4.7,1.86-.82-.54-1.8-.24-2.44.52-.21.24.15.6.35.35.52-.61,1.32-.94,1.98-.33.08.07.18.08.26.05.15.05.34-.02.34-.22-.07-2.14,2.4-2.7,3.96-1.78.28.16.53-.27.25-.43Z" style="fill: #00735e; stroke-width: 0px;"/>
                            <path d="m210.87,160.53c-.06.03-.1.07-.13.13-.08.07-.16.15-.25.21-.26.19,0,.62.25.43.13-.09.25-.2.36-.31.4-.02.79.05,1.09.32.35.32.27.78.04,1.14-.17.27.26.53.43.25.31-.49.37-1.08.03-1.58-.28-.39-.73-.58-1.2-.63,1.15-1.75.32-4.42-1.98-4.83-.32-.06-.45.43-.13.48,2.04.36,2.82,2.92,1.48,4.37Z" style="fill: #00735e; stroke-width: 0px;"/>
                            <path d="m229.72,173.86c-.07.31.42.45.48.13.38-1.79,2.91-2.07,3.88-.61.18.27.61.02.43-.25-1.19-1.8-4.32-1.51-4.79.73Z" style="fill: #00735e; stroke-width: 0px;"/>
                            <path d="m201.72,167c.31.1.44-.38.13-.48-.33-.11-.56-.37-.89-.45-.15-.04-.3,0-.45.05.23-1.6-1.39-2.85-3.01-2.07-.29.14-.04.57.25.43,1.34-.65,2.77.57,2.16,1.99-.09.21.11.48.34.34.67-.4.89,0,1.47.19Z" style="fill: #00735e; stroke-width: 0px;"/>
                          </g>
                        </g>
                        <g>
                          <path d="m166.23,165.86c-3.19-6.82-12.9-12.65-21.2-10.63-8.3,2.02-10.76,10.05-10.76,10.05,0,0,1.58,27.79,4.2,32.94,2.63,5.15,10-.69,9.61-2.04-.56-1.36,1.3-6.95,8.7-9.78,7.4-2.84,12.62-13.72,9.43-20.54Zm-13.19.82c-.22,1.67-1.69,3.13-3.44,3-2.04-.16-3.96-1.62-3.68-3.82.26-2.06,2.34-3.23,4.26-3.03.01,0,.03,0,.04.01,0,0,.02,0,.03,0,1.9.38,3.05,1.91,2.79,3.84Z" style="fill: #ffa47a; stroke-width: 0px;"/>
                          <g>
                            <path d="m134.42,172.71c1.1-2.7,2.06-5.5,3.74-7.92,1.92-2.75,5.02-4.54,8.3-5.1,6.03-1.02,12.21,2.57,13.78,8.53.61,2.33.4,4.82-.5,7.04-1.1,2.72-3.34,4.34-5.75,5.83-2.57,1.6-5.41,3.23-7.05,5.86-1.43,2.3-1.27,5.22-2.92,7.44-1.38,1.86-3.62,1.78-5.38.54-1.9-1.34-2.92-3.72-3.19-5.96-.04-.32-.53-.21-.49.11.4,3.33,2.98,7.85,6.94,7.24,1.92-.3,3.06-2.19,3.69-3.84.48-1.26.7-2.62,1.14-3.9.59-1.71,1.81-2.89,3.12-4.07,2.35-2.11,5.43-3.25,7.77-5.37,1.6-1.45,2.66-3.43,3.16-5.52,1-4.13-.5-8.79-3.77-11.52-4.16-3.49-10.12-3.92-14.87-1.45-4.68,2.43-6.34,7.32-8.21,11.9-.12.3.35.45.48.16h0Z" style="fill: #57637e; stroke-width: 0px;"/>
                            <path d="m150.19,162.82c-1.92-.2-4,.97-4.26,3.03-.28,2.2,1.64,3.66,3.68,3.82,1.74.14,3.22-1.33,3.44-3,.26-1.93-.89-3.47-2.79-3.84-.31-.06-.47.41-.16.47,1.53.3,2.52,1.37,2.49,2.95-.04,1.52-1.2,2.82-2.73,2.91-1.76.11-3.56-1.27-3.46-3.09.1-1.9,2.06-2.94,3.76-2.76.32.03.34-.47.02-.5h0Z" style="fill: #fff; stroke-width: 0px;"/>
                            <path d="m158.56,174.03c-.22,1.36-1.18,2.27-2.21,3.09-.25.2.08.57.34.37,1.15-.92,2.12-1.93,2.37-3.44.05-.32-.45-.34-.5-.02h0Z" style="fill: #57637e; stroke-width: 0px;"/>
                            <path d="m155.37,177.92c-.55.25-1.05.59-1.55.92-.26.18-.04.62.23.44.5-.34,1-.68,1.55-.93.29-.13.06-.58-.23-.44h0Z" style="fill: #57637e; stroke-width: 0px;"/>
                            <path d="m155.68,175.4c-.44.13-.83.36-1.22.59-.28.16-.05.61.23.44.35-.21.7-.43,1.09-.55.31-.09.2-.58-.11-.49h0Z" style="fill: #57637e; stroke-width: 0px;"/>
                            <path d="m150.54,157.75c-2.86-.62-5.78-.4-8.38.99-.28.15-.05.6.23.44,2.48-1.33,5.27-1.55,7.99-.96.31.07.47-.41.16-.48h0Z" style="fill: #57637e; stroke-width: 0px;"/>
                            <path d="m140.83,159.47c-.64.47-1.19,1.06-1.83,1.54-.26.19.08.56.34.37.64-.47,1.19-1.06,1.83-1.54.26-.19-.08-.56-.34-.37h0Z" style="fill: #57637e; stroke-width: 0px;"/>
                            <path d="m138.96,166.06c-.92,1.19-1.74,2.44-2.34,3.82-.13.3.35.45.47.16.58-1.35,1.39-2.55,2.28-3.71.2-.26-.22-.53-.42-.27h0Z" style="fill: #57637e; stroke-width: 0px;"/>
                            <path d="m151.3,184.35c-1.28.72-2.2,1.84-3.2,2.89-.22.23.11.6.34.37.97-1.01,1.85-2.12,3.09-2.81.28-.16.05-.6-.23-.44h0Z" style="fill: #57637e; stroke-width: 0px;"/>
                            <path d="m152.64,169.65c-1.37.63-2.76.9-4.21.39-.31-.11-.46.37-.16.48,1.58.55,3.11.26,4.59-.43.29-.13.06-.58-.23-.44h0Z" style="fill: #57637e; stroke-width: 0px;"/>
                            <path d="m161.87,170.75c.39,1.32-.08,2.56-.66,3.74-.14.29.32.48.46.19.64-1.33,1.08-2.66.66-4.13-.09-.31-.55-.11-.46.19h0Z" style="fill: #57637e; stroke-width: 0px;"/>
                            <path d="m162.75,179.77c-.6-.06-1.2-.02-1.8.02-.32.02-.34.52-.02.5.6-.04,1.2-.08,1.81-.02.32.03.34-.47.02-.5h0Z" style="fill: #57637e; stroke-width: 0px;"/>
                          </g>
                        </g>
                        <g>
                          <path d="m165.66,170.08s2.96,17.27.58,26.14c-2.38,8.87,16.34,8.24,16.63-3.85.29-12.09-1.28-25.64-2.45-26.71-1.17-1.07-14.76,4.41-14.76,4.41Z" style="fill: #4d4d67; stroke-width: 0px;"/>
                          <path d="m171.62,153.15s-.5-6.6-1.5-7.07c-1.5.03-3.75,1.41-3.75,1.41,0,0,3,4.48,3,6.24-3,.8-5.16,3.37-5.6,6.98-.46,3.79.97,10,.72,10.88-.25.88,2.25.47,2.25-1.52.75,2.14,2.5,1.9,2.25-.23.75,1.5,3.25.69,2.88-.72.62,1.47,2.25.97,2.25-.53,1.13,1.37,2.38.62,2-.88.75,1.5,2.62.42,2.25-.73.88,1.6,2.35.83,2.05-.72.95,1.45,2.11.85,1.41-1.47-.7-2.33-2.08-12.62-10.2-11.65Z" style="fill: #008e73; stroke-width: 0px;"/>
                          <g>
                            <path d="m167.44,155.67c-.3.24-.57.51-.8.82-.21.28-.38.59-.51.92-.05.12.05.28.17.31.14.03.26-.04.31-.17,0,0,.02-.06.02-.04-.01.02.01-.03.02-.04.02-.04.03-.07.05-.11.03-.07.07-.14.11-.21.08-.14.17-.27.27-.4-.02.02,0,0,0,0,.02-.02.03-.04.05-.06.03-.03.05-.06.08-.1.05-.06.11-.12.17-.18.13-.13.28-.26.42-.38.11-.08.09-.27,0-.35-.1-.1-.25-.08-.35,0h0Z" style="fill: #007b64; stroke-width: 0px;"/>
                            <path d="m165.78,158.59c-.27.55-.41,1.14-.41,1.75,0,.13.12.26.25.25s.25-.11.25-.25,0-.29.02-.43c.01-.1.03-.23.06-.37.06-.27.15-.48.26-.71.06-.12.03-.27-.09-.34-.11-.06-.28-.03-.34.09h0Z" style="fill: #007b64; stroke-width: 0px;"/>
                            <path d="m167.12,157.72c0,.05,0,.1-.01.16v-.07c-.03.26-.11.52-.11.79,0,.13.12.26.25.25s.25-.11.25-.25c0-.05,0-.1.01-.16v.07c.03-.26.11-.52.11-.79,0-.13-.12-.26-.25-.25s-.25.11-.25.25h0Z" style="fill: #007b64; stroke-width: 0px;"/>
                            <path d="m180.49,164.53c-.14-.41-.24-.84-.38-1.25-.04-.12-.17-.22-.31-.17-.12.04-.22.17-.17.31.14.41.24.84.38,1.25.04.12.17.22.31.17.12-.04.22-.17.17-.31h0Z" style="fill: #007b64; stroke-width: 0px;"/>
                            <path d="m179.59,161.47c-.11-.16-.21-.32-.29-.49-.02-.04-.04-.07-.05-.11,0-.02-.02-.04-.02-.06-.02-.04,0-.01,0,0,0,0,0-.02-.01-.03-.03-.09-.07-.17-.1-.26-.04-.12-.17-.22-.31-.17-.12.04-.22.17-.17.31.06.19.14.37.23.55s.19.34.3.51c.07.11.22.17.34.09.11-.07.17-.23.09-.34h0Z" style="fill: #007b64; stroke-width: 0px;"/>
                            <path d="m169.25,147.79c.12.5.25,1,.37,1.5.03.13.18.22.31.17s.21-.17.17-.31c-.13-.5-.25-1-.37-1.5-.03-.13-.18-.22-.31-.17s-.21.17-.17.31h0Z" style="fill: #007b64; stroke-width: 0px;"/>
                          </g>
                          <g>
                            <path d="m180.86,171.78c-.12-.71-.26-1.42-.38-2.12-.05-.32-.54-.18-.48.13.12.71.25,1.42.37,2.13.05.32.54.18.48-.13Z" style="fill: #33324c; stroke-width: 0px;"/>
                            <path d="m181.12,173.22c0-.32-.5-.32-.5,0,0,.61.02,1.21.13,1.82.06.32.54.18.48-.13-.11-.56-.12-1.12-.12-1.68Z" style="fill: #33324c; stroke-width: 0px;"/>
                            <path d="m179.21,171.72c-.13-.29-.56-.04-.43.25.12.28.13.59.25.87.13.29.56.04.43-.25-.12-.28-.13-.59-.25-.88Z" style="fill: #33324c; stroke-width: 0px;"/>
                            <path d="m169.11,177.28c-.12-.62-.14-1.25-.25-1.88-.06-.32-.54-.18-.48.13.12.62.14,1.25.25,1.88.06.32.54.18.48-.13Z" style="fill: #33324c; stroke-width: 0px;"/>
                            <path d="m168.74,182.22c0,.65.02,1.3.13,1.94.06.32.54.18.48-.13-.11-.6-.12-1.2-.12-1.81,0-.32-.5-.32-.5,0Z" style="fill: #33324c; stroke-width: 0px;"/>
                            <path d="m178.13,182.03c-.59,1.64-.75,3.33-.63,5.07.02.32.52.32.5,0-.11-1.69.04-3.33.62-4.93.11-.3-.37-.43-.48-.13Z" style="fill: #33324c; stroke-width: 0px;"/>
                            <path d="m178.24,189.35c0-.32-.5-.32-.5,0,0,.31.03.59.16.88.13.29.56.04.43-.25-.09-.2-.09-.41-.09-.62Z" style="fill: #33324c; stroke-width: 0px;"/>
                            <path d="m176.62,188.1c0-.32-.5-.32-.5,0,0,.31.03.59.16.88.13.29.56.04.43-.25-.09-.2-.09-.41-.09-.62Z" style="fill: #33324c; stroke-width: 0px;"/>
                          </g>
                        </g>
                        <g>
                          <g>
                            <path d="m194.76,168.13s8.47-19.47,6.22-20.3c-2.24-.83-7.82,19.98-7.82,19.98,0,0,6.73-30.91,3.47-31.83-3.26-.92-4.77,31.69-4.77,31.69,0,0-.34-27.24-3.01-27.27-2.67-.03,1.65,27.23,1.65,27.23,0,0-3.23-20.04-6.37-19.65-3.14.39,5.7,21.57,6.02,21.89.32.32,3.36,1.62,4.62-1.74Z" style="fill: #5bb58b; stroke-width: 0px;"/>
                            <path d="m188.74,166.77c-.44.27,0,0-1.25,3.65-8.68,1.21-16.81,11.18-9.44,24.54,7.36,13.36,19.92,9.96,24.06,3.1,7.06-11.71,6.36-22.25-6.27-27.3-.09-3.71-.74-3.85-.74-3.85,0,0-5.54-.99-6.35-.14Z" style="fill: #fdfdfd; stroke-width: 0px;"/>
                          </g>
                          <g>
                            <path d="m198.3,178.53c-.35-.87-.65-1.76-1-2.63-.12-.3-.59-.14-.47.16.35.87.65,1.76,1,2.63.12.3.59.14.47-.16Z" style="fill: #d5d5d5; stroke-width: 0px;"/>
                            <path d="m189.59,192.13c-.02.73.08,1.45.07,2.18,0,.32.49.29.5-.03.02-.73-.08-1.45-.07-2.18,0-.32-.49-.28-.5.03Z" style="fill: #d5d5d5; stroke-width: 0px;"/>
                            <path d="m185.72,197.78c-.27-1.2-.53-2.4-.8-3.61-.07-.31-.54-.15-.47.16.27,1.2.53,2.4.8,3.61.07.31.54.15.47-.16Z" style="fill: #d5d5d5; stroke-width: 0px;"/>
                            <path d="m200.39,173.16c-.4-.27-.81-.54-1.25-.8,2.74,3.26,3.96,7.28,4.92,11.42.07.31.55.15.47-.16-.88-3.75-1.96-7.37-4.15-10.46Z" style="fill: #d5d5d5; stroke-width: 0px;"/>
                            <g>
                              <path d="m195.33,176.32c-.64-3.26-2.14-6.38-2.29-9.72-.16-.02-.33-.04-.5-.06.11,3.01,1.32,5.86,2.06,8.75.95,3.71,1.48,7.67,1.62,11.49.14,3.9-.45,7.8-1.79,11.46-.75,2.04-1.75,3.97-2.89,5.82.2,0,.39-.01.59-.03.92-1.54,1.76-3.13,2.45-4.8,1.4-3.39,2.04-7.01,2.15-10.66.12-4.12-.6-8.23-1.39-12.26Z" style="fill: #d5d5d5; stroke-width: 0px;"/>
                              <path d="m191.14,204.08c1.41-6.12,2.39-12.35,2.1-18.65-.16-3.51-.78-7-1.18-10.49-.2-1.73-.33-3.47-.37-5.22-.03-1.03-.11-2.19.14-3.24-.23-.02-.46-.03-.69-.05-.24.87-.49,1.73-.74,2.6-.09,0-.18.02-.24.12-2.16,3.53-4.47,7.09-5.77,11.04-1.29,3.92-1.4,7.88-.39,11.88.08.31.55.15.47-.16-1.05-4.17-.82-8.29.66-12.32,1.21-3.29,3.07-6.32,4.91-9.3-1.36,4.82-2.63,9.66-3.2,14.65-.39,3.46-.32,6.95-.18,10.42.11,2.74.36,5.49.94,8.17.18.05.36.1.54.15-.62-2.74-.85-5.55-.98-8.35-.16-3.59-.18-7.18.22-10.75.55-4.83,1.8-9.53,3.14-14.2-.74,5.6-.5,11.29-.22,16.92.02.32.51.29.5-.03-.29-5.99-.56-12.04.38-17.98.01,1.26.08,2.53.18,3.79.29,3.51.88,6.98,1.23,10.48.69,6.89-.42,13.8-1.97,20.5.17,0,.34.01.51.01Z" style="fill: #d5d5d5; stroke-width: 0px;"/>
                            </g>
                            <path d="m186.74,203c-5.15-5.26-7.32-12.69-5.71-19.88.78-3.47,2.51-6.68,4.85-9.34,1.76-2.01,4.96-4.38,4.19-7.35-.19,0-.36.02-.52.04.51,1.93-.88,3.65-2.17,5.04-1.25,1.34-2.52,2.59-3.57,4.1-1.94,2.78-3.14,6.01-3.63,9.35-.95,6.57,1.35,13.18,5.83,17.99.26.12.52.22.78.32.03-.09.03-.19-.06-.27Z" style="fill: #d5d5d5; stroke-width: 0px;"/>
                            <path d="m199.26,175.99c-.85-1.56-1.77-3.02-2.82-4.45-.18-.24-.35-.49-.53-.75-.03-.01-.06-.03-.1-.04,0-.04,0-.07,0-.11-.79-1.17-1.45-2.45-1.51-3.86-.15-.02-.32-.05-.51-.07.03,2.88,2.4,4.99,3.77,7.33,2.12,3.64,4.15,7.4,4.9,11.6,1.01,5.59-.67,10.94-3.41,15.75.37-.28.72-.58,1.06-.9,2.19-4.19,3.51-8.75,3.03-13.59-.39-3.9-2.03-7.5-3.89-10.9Z" style="fill: #d5d5d5; stroke-width: 0px;"/>
                            <path d="m181.85,200.06c-2.82-3.94-4.66-8.5-4.58-13.45.09-5.14,2.41-10.12,6.06-13.7-1.21,1.59-2.25,3.3-3.23,5.05-.16.28.29.51.45.23,1.48-2.64,3.1-5.19,5.24-7.34.06-.04.12-.08.17-.12-.5.13-.99.29-1.47.47-4.56,3.67-7.38,9.21-7.7,15.1-.21,3.94.92,7.7,2.78,11.09.73,1.02,1.49,1.91,2.28,2.68Z" style="fill: #d5d5d5; stroke-width: 0px;"/>
                            <path d="m198.24,180.43c2.84,7.45,1.77,15.9-2.22,22.69.26-.11.51-.22.77-.34,3.79-6.8,4.74-15.14,1.93-22.51-.11-.3-.59-.14-.47.16Z" style="fill: #d5d5d5; stroke-width: 0px;"/>
                            <path d="m197.98,190.96c-.47,4.62-2.51,9.1-5.14,13,.23-.03.45-.07.68-.11,2.55-3.87,4.49-8.26,4.96-12.79.03-.32-.46-.42-.49-.1Z" style="fill: #d5d5d5; stroke-width: 0px;"/>
                            <path d="m189.72,203.99c.14-2.17.33-4.35.43-6.52.01-.32-.48-.28-.5.03-.1,2.14-.29,4.28-.42,6.42.16.03.33.05.49.07Z" style="fill: #d5d5d5; stroke-width: 0px;"/>
                          </g>
                          <g>
                            <path d="m195.73,137.95c-.17.82-.45,1.61-.62,2.42-.07.32.42.41.49.1.18-.82.45-1.61.62-2.43.07-.32-.42-.41-.49-.1Z" style="fill: #008e73; stroke-width: 0px;"/>
                            <path d="m194.99,141.63c-.07.33-.13.65-.2.98-.06.32.43.42.49.1.07-.33.13-.65.2-.98.06-.32-.43-.42-.49-.1Z" style="fill: #008e73; stroke-width: 0px;"/>
                            <path d="m187.5,157.4c-.17-.27-.59,0-.42.28.29.45.44.97.73,1.42.17.27.59,0,.42-.28-.29-.45-.44-.97-.73-1.43Z" style="fill: #008e73; stroke-width: 0px;"/>
                            <path d="m186.87,156.13c-.18-.27-.6,0-.42.28.07.1.13.2.2.29.18.27.59,0,.42-.28-.07-.1-.13-.2-.2-.3Z" style="fill: #008e73; stroke-width: 0px;"/>
                            <path d="m199.29,152.51c-.25.52-.47,1.04-.59,1.61-.07.31.42.41.49.1.11-.52.32-1,.55-1.48.14-.29-.31-.52-.45-.23Z" style="fill: #008e73; stroke-width: 0px;"/>
                          </g>
                        </g>
                        <g>
                          <path d="m137.62,171.99s2.67-2.26,7.33-1.25c4.67,1.02,10.8,5.38,9.4,10.7-1.4,5.32-4.23,7.58-6.9,5.87-2.67-1.71-4.17-1.62-2.17.17l.67.45-2.33,9.83h-3.33s.33-21.87-2.67-25.77Z" style="fill: #9f857a; stroke-width: 0px;"/>
                          <g>
                            <path d="m153.12,180.01c0,.44-.1.87-.34,1.25-.17.27.26.52.43.25.29-.45.4-.97.41-1.5,0-.32-.5-.32-.5,0h0Z" style="fill: #7b6a59; stroke-width: 0px;"/>
                            <path d="m152.03,182.88c-.25.39-.42.83-.63,1.25-.14.29.29.54.43.25.21-.42.37-.86.63-1.25.18-.27-.26-.52-.43-.25h0Z" style="fill: #7b6a59; stroke-width: 0px;"/>
                            <path d="m151.69,181.08c-.17.17-.3.34-.41.55-.15.28.28.54.43.25.09-.17.2-.31.34-.45.23-.23-.13-.58-.35-.35h0Z" style="fill: #7b6a59; stroke-width: 0px;"/>
                            <path d="m140.25,173.07c.37,1.58.74,3.15,1,4.75.05.32.53.18.48-.13-.26-1.6-.63-3.17-1-4.75-.07-.31-.55-.18-.48.13h0Z" style="fill: #7b6a59; stroke-width: 0px;"/>
                            <path d="m141.88,179.45c.12.72.27,1.43.5,2.12.1.31.58.17.48-.13-.23-.7-.38-1.4-.5-2.13-.05-.32-.54-.18-.48.13h0Z" style="fill: #7b6a59; stroke-width: 0px;"/>
                            <path d="m145.79,185.33c-.6-.58-1.55-.9-2.33-.46-.86.49-.4,1.51.1,2.07.21.24.57-.11.35-.35-.32-.36-.74-1.06-.09-1.34.56-.23,1.2.05,1.61.44.23.22.59-.13.35-.35h0Z" style="fill: #7b6a59; stroke-width: 0px;"/>
                            <path d="m146.62,186.26c.21.01.41.11.62.13.32.02.32-.48,0-.5-.21-.01-.41-.11-.62-.13-.32-.02-.32.48,0,.5h0Z" style="fill: #7b6a59; stroke-width: 0px;"/>
                            <path d="m149.42,174.2c-.78-.75-1.73-1.19-2.74-1.56-.3-.11-.43.37-.13.48.92.35,1.8.74,2.51,1.44.23.22.59-.13.35-.35h0Z" style="fill: #7b6a59; stroke-width: 0px;"/>
                          </g>
                        </g>
                        <g>
                          <path d="m162.57,181.03c-5.61-.52-10.13,3.93-9.69,9.87.38,5.07,7.32,3.82,7.32,3.82l-.13,2.75,4.07.55.13-3.17s4.67-1.41,5.93-4.36c1.98-4.63-2.23-8.96-7.63-9.46Z" style="fill: #9f857a; stroke-width: 0px;"/>
                          <g>
                            <path d="m163.83,193.58c.12-.8,1.41-4.05,2.54-2.93.97.96-2.18,2.35-2.78,2.65-.29.14-.04.57.25.43,1.02-.51,4.2-1.87,2.89-3.43-1.47-1.74-3.22,2.1-3.38,3.15-.05.32.44.45.48.13h0Z" style="fill: #7b6a59; stroke-width: 0px;"/>
                            <path d="m161.89,193.21c-.56-.62-1.58-.94-2.35-1.2-.46-.15-1.76-.58-2.08.07-.89,1.84,3.68,1.55,4.44,1.8.31.1.44-.38.13-.48-.59-.2-1.29-.17-1.91-.22-.52-.04-2.15-.02-2.24-.74-.06-.46,1.65.1,1.84.17.59.21,1.39.49,1.82.96.22.24.57-.12.35-.35h0Z" style="fill: #7b6a59; stroke-width: 0px;"/>
                            <path d="m157.34,182.92c-.49.37-.99.73-1.43,1.16-.23.23.12.58.35.35.41-.4.87-.74,1.32-1.09.25-.19,0-.62-.25-.43h0Z" style="fill: #7b6a59; stroke-width: 0px;"/>
                            <path d="m155.41,185.21c-.25.27-.38.6-.54.93-.14.29.29.54.43.25.14-.28.24-.59.46-.82.22-.24-.13-.59-.35-.35h0Z" style="fill: #7b6a59; stroke-width: 0px;"/>
                            <path d="m169.08,187.82c-.15-.67-.5-1.26-.9-1.81-.19-.26-.62,0-.43.25.38.51.71,1.06.85,1.69.07.32.55.18.48-.13h0Z" style="fill: #7b6a59; stroke-width: 0px;"/>
                            <path d="m167.27,184.83c-.14-.14-.28-.28-.48-.31-.32-.05-.45.43-.13.48.12.02.18.11.26.18.23.23.58-.13.35-.35h0Z" style="fill: #7b6a59; stroke-width: 0px;"/>
                            <path d="m155.64,192.71c-.18-.19-.29-.44-.3-.7-.01-.32-.51-.32-.5,0,.01.4.18.76.45,1.05.22.24.57-.12.35-.35h0Z" style="fill: #7b6a59; stroke-width: 0px;"/>
                            <path d="m165.02,189.14c-.7.15-1.36.56-1.65,1.24-.13.29.3.55.43.25.25-.57.76-.88,1.35-1.01.32-.07.18-.55-.13-.48h0Z" style="fill: #7b6a59; stroke-width: 0px;"/>
                          </g>
                        </g>
                        <g>
                          <path d="m94.01,153.15s-1.5-2.19-3.58-1.18c-2.08,1.01-1.18,3.23-3.51,3.33-2.32.1-3.41,1.68-2.82,3.1.58,1.42.67,3.25-.5,4.33-1.17,1.08,9.83,9.42,10.83,9.09,1-.33,3.17-3.26,3.17-3.26,0,0-5-14.56-3.59-15.4Z" style="fill: #00846b; stroke-width: 0px;"/>
                          <g>
                            <path d="m89.42,159.08c-.23-.94-.17-1.94.29-2.81.15-.28-.28-.54-.43-.25-.52.99-.6,2.12-.34,3.19.08.31.56.18.48-.13Z" style="fill: #007861; stroke-width: 0px;"/>
                            <path d="m90.14,161.27c-.16-.28-.28-.56-.35-.88-.07-.32-.55-.18-.48.13.08.35.22.68.4,1,.16.28.59.03.43-.25Z" style="fill: #007861; stroke-width: 0px;"/>
                            <path d="m84.85,156.89c-.22.39-.28.78-.06,1.19.15.28.58.03.43-.25-.13-.25-.07-.45.06-.69.16-.28-.27-.53-.43-.25Z" style="fill: #007861; stroke-width: 0px;"/>
                          </g>
                          <path d="m95.8,169.77s-2.38.71-3.63-1.95c-1.25-2.67-3.39-2.27-5.26-3.65-1.87-1.39-4.12-6.44-6.24-3.85-2.12,2.59-.12,5.41-2.5,6.31-2.38.9-2.63,3.16-.88,5.65,1.75,2.5,11,5.88,11,5.88,0,0,10.37,4.79,11.13,4.62.75-.17,3.88-2.8,3.88-2.8,0,0-3.88-8.25-7.5-10.2Z" style="fill: #007861; stroke-width: 0px;"/>
                          <g>
                            <path d="m102.36,181.33s-1.6-3.31-4.27-2.7c-2.67.6-6.64-1.88-8.16-4.72-1.51-2.84-4.35-6.5-8.35-5-4,1.5-8.83,2.75-6.67,6.04,2.17,3.29,3.33,4.32,3.17,6.39-.17,2.07,1.33,6.43,5.17,6.25,3.83-.18,4.57,1.82,5.12,3.82.55,2,5.05,1.66,7.22,3.83,2.17,2.17,19.65,3.6,17.91-.78-1.74-4.38-11.14-13.12-11.14-13.12Z" style="fill: #00846b; stroke-width: 0px;"/>
                            <g>
                              <path d="m77.83,176.65c.36.48.62,1.01.85,1.57.12.3.6.17.48-.13-.24-.6-.52-1.17-.9-1.69-.19-.26-.62,0-.43.25h0Z" style="fill: #00715b; stroke-width: 0px;"/>
                              <path d="m79.06,179.96c.14.55.23,1.11.24,1.68,0,.32.5.32.5,0,0-.62-.11-1.22-.26-1.82-.08-.31-.56-.18-.48.13h0Z" style="fill: #00715b; stroke-width: 0px;"/>
                              <path d="m86.3,186.61c.88-.44,1.71,1.08,1.88,1.73.09.31.57.18.48-.13-.28-1.01-1.38-2.64-2.62-2.03-.29.14-.04.58.25.43h0Z" style="fill: #00715b; stroke-width: 0px;"/>
                              <path d="m96.35,185.1c-.48-.47-1.01-.89-1.55-1.29-.26-.19-.51.24-.25.43.51.38,1,.77,1.45,1.21.23.23.58-.13.35-.35h0Z" style="fill: #00715b; stroke-width: 0px;"/>
                              <path d="m95.49,179.15c-.77-.23-1.5-.56-2.19-.97-.28-.16-.53.27-.25.43.73.43,1.5.78,2.31,1.03.31.09.44-.39.13-.48h0Z" style="fill: #00715b; stroke-width: 0px;"/>
                              <path d="m101.12,179.66c-.73-.23-1.5-.26-2.25-.37-.32-.05-.45.43-.13.48.75.12,1.52.15,2.25.37.31.1.44-.39.13-.48h0Z" style="fill: #00715b; stroke-width: 0px;"/>
                              <path d="m111.87,196.28c-1.9-.69-2.08-3.17-3.26-4.56-.21-.25-.56.11-.35.35,1.3,1.52,1.38,3.93,3.49,4.69.3.11.43-.37.13-.48h0Z" style="fill: #00715b; stroke-width: 0px;"/>
                            </g>
                            <path d="m105.75,193.92s-15.31-12.08-18.47-12.98c-3.16-.9,15.62,11.32,17.78,13.85,1.67-.04.69-.87.69-.87Z" style="fill: #5bb58b; stroke-width: 0px;"/>
                          </g>
                          <g>
                            <path d="m124.68,195.25s2.58-9-1.09-10.59c-3.67-1.59-4.34-5.5-4.17-7.96.17-2.47-2.38-7.61-4.6-8.12-2.23-.51-5.9-6.08-5.82-7.88.09-1.8-3.24-4.83-5.91-5.4-2.67-.57-2.17-3.22-5.17-3.14-3,.07-5.83.39-6.83,2.15-1,1.76-2,4.19,0,6.64,2,2.45,4.5,4.03,3.5,6.41-1,2.37-1.17,6.46,1.67,7.92,2.83,1.46,4.83,3.02,4.5,5.24-.33,2.22-2.46,4.8,1.6,5.93,4.07,1.13,6.89,3.39,7.14,5.09.26,1.7,2.47,3.73,2.47,3.73l12.7-.02Z" style="fill: #008e73; stroke-width: 0px;"/>
                            <path d="m120.68,195.66s-13.75-29.41-19.75-32.59c-.83-.18,15.47,24.19,17.9,32.59h1.85Z" style="fill: #5bb58b; stroke-width: 0px;"/>
                            <g>
                              <path d="m99.43,154.34c.31,1,1.15,1.65,2.17,1.8.32.05.45-.44.13-.48-.85-.13-1.56-.6-1.83-1.45-.1-.31-.58-.18-.48.13h0Z" style="fill: #007861; stroke-width: 0px;"/>
                              <path d="m102.86,156.51c.53.14,1,.4,1.44.72.26.19.51-.24.25-.43-.47-.35-.99-.62-1.56-.77-.31-.08-.44.4-.13.48h0Z" style="fill: #007861; stroke-width: 0px;"/>
                              <path d="m105.96,174.9c.38.63.83,1.22,1.29,1.8.2.25.55-.1.35-.35-.43-.55-.85-1.1-1.21-1.7-.17-.28-.6-.02-.43.25h0Z" style="fill: #007861; stroke-width: 0px;"/>
                              <path d="m108.68,178.65c.03.98.4,1.86.78,2.75.13.3.56.04.43-.25-.34-.8-.69-1.61-.72-2.5,0-.32-.51-.32-.5,0h0Z" style="fill: #007861; stroke-width: 0px;"/>
                              <path d="m118.39,196.15c-.85-1.34-1.61-2.73-2.38-4.13-.15-.28-.59-.03-.43.25.76,1.39,1.53,2.78,2.38,4.13.17.27.6.02.43-.25h0Z" style="fill: #007861; stroke-width: 0px;"/>
                              <path d="m114.77,190.77c-.36-.48-.72-.96-1-1.5-.15-.29-.58-.03-.43.25.28.54.64,1.02,1,1.5.19.25.63,0,.43-.25h0Z" style="fill: #007861; stroke-width: 0px;"/>
                              <path d="m101.33,183.65c.46.6,1.01,1.09,1.77,1.24.32.06.45-.42.13-.48-.63-.12-1.09-.51-1.48-1.01-.19-.25-.63,0-.43.25h0Z" style="fill: #007861; stroke-width: 0px;"/>
                              <path d="m104.8,185.61c.31.2.68.33.95.59.24.22.59-.13.35-.35-.31-.29-.7-.44-1.05-.66-.27-.18-.52.26-.25.43h0Z" style="fill: #007861; stroke-width: 0px;"/>
                              <path d="m94.81,170.2c-.12.76-.14,1.53.12,2.26.11.3.59.17.48-.13-.24-.65-.23-1.32-.12-1.99.05-.32-.43-.45-.48-.13h0Z" style="fill: #007861; stroke-width: 0px;"/>
                              <path d="m108.98,162.97c-.23-.25-.3-.62-.3-.95,0-.32-.51-.32-.5,0,0,.46.13.95.45,1.3.22.24.57-.12.35-.35h0Z" style="fill: #007861; stroke-width: 0px;"/>
                            </g>
                          </g>
                        </g>
                        <g>
                          <path d="m122.28,157.62s-.33-29.53-2.83-29.87c-2.5-.33-.83,13.85,0,20.18-5.83-18.18-10.5-26.84-13-25.68-2.5,1.17,11.83,31.74,11.83,31.74,0,0-12.67-18.46-15-17.6-2.33.86,13.67,22.36,14.17,22.36.5,0,4.83-1.14,4.83-1.14Z" style="fill: #008e73; stroke-width: 0px;"/>
                          <path d="m141.62,195.13s1.67-30.14-9.5-36.95c-9.28-5.65-17.75-.7-20.75,4.06-3,4.76-5.5,13.25,8.5,33.38,18.25,0,21.75-.5,21.75-.5Z" style="fill: #ffba63; stroke-width: 0px;"/>
                          <g>
                            <path d="m121.72,162.51c-.82.17-1.63.33-2.39.69-.29.14-.04.57.25.43.72-.34,1.5-.49,2.27-.64.32-.06.18-.54-.13-.48h0Z" style="fill: #f59a4d; stroke-width: 0px;"/>
                            <path d="m125.72,163.51c-3.95.68-7.74,1.88-11.39,3.53-.29.13-.04.56.25.43,3.61-1.62,7.37-2.8,11.27-3.48.32-.05.18-.54-.13-.48h0Z" style="fill: #f59a4d; stroke-width: 0px;"/>
                            <path d="m126.28,170.84c-1.4.04-2.72.49-4.07.84-.31.08-.18.56.13.48,1.3-.34,2.58-.79,3.93-.82.32,0,.32-.51,0-.5h0Z" style="fill: #f59a4d; stroke-width: 0px;"/>
                            <path d="m135.62,176.84c-2.84.36-5.55,1.18-8.23,2.18-.3.11-.17.59.13.48,2.63-.98,5.31-1.8,8.1-2.16.32-.04.32-.54,0-.5h0Z" style="fill: #f59a4d; stroke-width: 0px;"/>
                            <path d="m124.22,179.85c-.83.18-1.63.48-2.39.86-.29.14-.04.57.25.43.73-.36,1.48-.64,2.27-.81.32-.07.18-.55-.13-.48h0Z" style="fill: #f59a4d; stroke-width: 0px;"/>
                            <path d="m119.35,190c.55-.18,1.12-.32,1.67-.5.3-.1.17-.58-.13-.48-.55.18-1.12.32-1.67.5-.31.1-.17.58.13.48h0Z" style="fill: #f59a4d; stroke-width: 0px;"/>
                            <path d="m129.95,187.01c-.81.01-1.56.18-2.29.53-.29.14-.04.57.25.43.65-.31,1.32-.46,2.04-.47.32,0,.32-.5,0-.5h0Z" style="fill: #f59a4d; stroke-width: 0px;"/>
                            <path d="m134.72,189.85c-1.17.17-2.33.33-3.5.5-.32.05-.18.53.13.48,1.17-.17,2.33-.33,3.5-.5.32-.05.18-.53-.13-.48h0Z" style="fill: #f59a4d; stroke-width: 0px;"/>
                            <path d="m122.55,158.18c-.61.16-1.22.34-1.83.5-.31.08-.18.56.13.48.61-.16,1.22-.34,1.83-.5.31-.08.18-.56-.13-.48h0Z" style="fill: #f59a4d; stroke-width: 0px;"/>
                            <path d="m115.38,159.68c-.9.27-1.81.53-2.69.84-.24.26-.46.52-.66.78,1.14-.45,2.31-.79,3.49-1.14.31-.09.18-.57-.13-.48Z" style="fill: #f59a4d; stroke-width: 0px;"/>
                            <path d="m115.77,189.29c2.46-1.02,5.02-1.74,7.58-2.46.31-.09.18-.57-.13-.48-2.61.73-5.21,1.47-7.71,2.51.08.14.17.29.26.43Z" style="fill: #f59a4d; stroke-width: 0px;"/>
                            <path d="m141.55,185.09c-3.1.6-6.26.85-9.33,1.59-.31.08-.18.56.13.48,3.04-.73,6.16-.98,9.22-1.57,0-.17-.02-.34-.03-.5Z" style="fill: #f59a4d; stroke-width: 0px;"/>
                            <path d="m138.46,167.23c-3.45.41-6.74,1.49-10.08,2.45-.31.09-.18.57.13.48,3.34-.96,6.65-2.06,10.11-2.45-.06-.16-.11-.32-.17-.48Z" style="fill: #f59a4d; stroke-width: 0px;"/>
                            <path d="m133.65,159.33c-3.4.05-6.71.83-9.83,2.2-.29.13-.04.56.25.43,3.19-1.4,6.62-2.16,10.1-2.13-.17-.17-.34-.34-.52-.5Z" style="fill: #f59a4d; stroke-width: 0px;"/>
                            <path d="m139.88,172.2c-9.69.61-18.86,3.9-27.73,7.67-.3.13-.04.56.25.43,8.82-3.75,17.94-7.02,27.59-7.61-.04-.16-.07-.33-.11-.49Z" style="fill: #f59a4d; stroke-width: 0px;"/>
                            <path d="m115.38,171.68c-1.99.6-4.28,1.2-5.97,2.51.03.18.08.37.11.55,1.64-1.38,3.98-1.98,5.99-2.58.31-.09.18-.58-.13-.48Z" style="fill: #f59a4d; stroke-width: 0px;"/>
                            <path d="m141.7,190.32c-.89-.04-1.77-.09-2.65.03-.32.05-.18.53.13.48.83-.12,1.68-.05,2.52-.01,0-.16,0-.33,0-.5Z" style="fill: #f59a4d; stroke-width: 0px;"/>
                          </g>
                          <g>
                            <path d="m121.37,152.09v-2.67c0-.32-.5-.32-.5,0v2.67c0,.32.5.32.5,0h0Z" style="fill: #007b64; stroke-width: 0px;"/>
                            <path d="m121.37,154.42v-.67c0-.32-.5-.32-.5,0v.67c0,.32.5.32.5,0h0Z" style="fill: #007b64; stroke-width: 0px;"/>
                            <path d="m107.71,126.15c.31,1.06.65,2.12,1,3.17.1.3.58.17.48-.13-.35-1.05-.69-2.1-1-3.17-.09-.31-.57-.18-.48.13h0Z" style="fill: #007b64; stroke-width: 0px;"/>
                            <path d="m109.71,130.82c.14.42.33.83.53,1.23.14.29.58.04.43-.25-.18-.36-.34-.72-.47-1.11-.1-.3-.59-.17-.48.13h0Z" style="fill: #007b64; stroke-width: 0px;"/>
                            <path d="m113,148.46c-.28-.42-.52-.86-.87-1.22-.23-.23-.58.12-.35.35.32.33.54.73.79,1.12.18.27.61.02.43-.25h0Z" style="fill: #007b64; stroke-width: 0px;"/>
                            <path d="m111.2,146.42c-.03-.29-.21-.48-.41-.68-.23-.23-.58.12-.35.35.08.08.25.2.26.32.04.32.54.32.5,0h0Z" style="fill: #007b64; stroke-width: 0px;"/>
                          </g>
                        </g>
                      </g>
                      <g>
                        <path d="m132.04,105.97c-4.17,1.83-5.85,4.32-4.82,9.16,1.03,4.83,6.2,5.33,10.14,3.67,3.3-1.4,4.39-5.83,3.22-8.67-1.17-2.83-4.72-5.83-8.54-4.16Z" style="fill: #ff8c66; stroke-width: 0px;"/>
                        <g>
                          <path d="m133.2,111.67c.07-1.48.16-2.95.3-4.42-.33.06-.66.15-.99.3-.63.28-1.18.58-1.66.9.64,1.17,1.54,2.16,2.36,3.22Z" style="fill: #f87956; stroke-width: 0px;"/>
                          <path d="m133.02,112.52s.09-.06.13-.09c-.92-1.22-1.98-2.34-2.72-3.68-1.09.87-1.7,1.94-1.81,3.38,1.43.25,2.92.32,4.39.39Z" style="fill: #f87956; stroke-width: 0px;"/>
                          <path d="m133.84,112.56s0,0,0,0c.39.02.77.04,1.15.07,1.42.11,2.91.16,4.32.49.08-.85-.02-1.69-.32-2.41-.19-.45-.46-.91-.79-1.34-1.35,1.2-2.86,2.18-4.36,3.19Z" style="fill: #f87956; stroke-width: 0px;"/>
                          <path d="m133.68,112.08c1.45-.97,2.9-1.93,4.2-3.09-.97-1.07-2.35-1.87-3.88-1.79-.15,1.63-.25,3.25-.32,4.88Z" style="fill: #f87956; stroke-width: 0px;"/>
                          <path d="m130.13,114.7c.71-.63,1.47-1.2,2.25-1.74-1.26-.06-2.53-.12-3.77-.33,0,.57.08,1.2.22,1.89.09.41.22.77.38,1.1.3-.31.6-.63.92-.92Z" style="fill: #f87956; stroke-width: 0px;"/>
                          <path d="m134.3,113.08s-.09,0-.13,0c.89,1.36,1.73,2.75,2.56,4.15,1.41-.68,2.25-2.11,2.52-3.6-1.61-.39-3.32-.4-4.95-.54Z" style="fill: #f87956; stroke-width: 0px;"/>
                          <path d="m133.64,113.12c-.06,1.61-.09,3.23-.13,4.84.92-.01,1.88-.21,2.76-.55-.84-1.44-1.68-2.92-2.63-4.29Z" style="fill: #f87956; stroke-width: 0px;"/>
                          <path d="m133.14,113.04c-.07.05-.13.09-.2.14-1.04.71-2.06,1.45-2.94,2.36-.18.18-.35.37-.53.55.79,1.21,2.1,1.78,3.54,1.87.04-1.64.07-3.28.13-4.91Z" style="fill: #f87956; stroke-width: 0px;"/>
                        </g>
                        <g>
                          <path d="m127.67,110.91c-.2.69-.25,1.41-.26,2.13,0,.32.5.32.5,0,0-.67.06-1.34.24-2,.09-.31-.39-.44-.48-.13Z" style="fill: #f87956; stroke-width: 0px;"/>
                          <path d="m127.53,113.86v.56c0,.32.5.32.5,0v-.56c0-.32-.5-.32-.5,0Z" style="fill: #f87956; stroke-width: 0px;"/>
                          <path d="m138.92,116.18c-.4.39-.88.7-1.31,1.06-.25.21.11.56.35.35.43-.36.91-.67,1.31-1.06.23-.22-.12-.58-.35-.35Z" style="fill: #f87956; stroke-width: 0px;"/>
                          <path d="m138.34,107.74c-.31-.3-.66-.55-1-.81-.25-.2-.61.15-.35.35.34.27.69.51,1,.81.23.23.58-.13.35-.35Z" style="fill: #f87956; stroke-width: 0px;"/>
                        </g>
                      </g>
                      <g>
                        <path d="m150.66,133.58c-3.25,3.2-3.94,6.12-1.26,10.27,2.68,4.15,7.69,2.78,10.78-.18,2.59-2.48,2.03-7.01-.07-9.25-2.1-2.23-6.49-3.77-9.46-.85Z" style="fill: #ffba63; stroke-width: 0px;"/>
                        <g>
                          <path d="m153.77,138.49c-.46-1.4-.9-2.81-1.29-4.24-.29.17-.56.38-.82.63-.49.48-.9.96-1.23,1.43,1.02.87,2.21,1.47,3.35,2.17Z" style="fill: #f59a4d; stroke-width: 0px;"/>
                          <path d="m153.91,139.35s.06-.09.09-.13c-1.3-.82-2.68-1.48-3.85-2.47-.71,1.2-.9,2.42-.49,3.8,1.43-.27,2.84-.73,4.24-1.19Z" style="fill: #f59a4d; stroke-width: 0px;"/>
                          <path d="m154.69,139.09s0,0,0,0c.37-.12.73-.23,1.1-.34,1.36-.41,2.78-.89,4.21-1.08-.23-.82-.62-1.58-1.15-2.14-.34-.36-.75-.69-1.22-.97-.84,1.6-1.9,3.06-2.94,4.53Z" style="fill: #f59a4d; stroke-width: 0px;"/>
                          <path d="m154.37,138.7c1.01-1.42,2.03-2.83,2.83-4.38-1.29-.66-2.86-.91-4.27-.3.43,1.57.92,3.13,1.44,4.68Z" style="fill: #f59a4d; stroke-width: 0px;"/>
                          <path d="m151.98,142.41c.44-.84.95-1.65,1.49-2.43-1.2.39-2.41.79-3.64,1.04.21.53.5,1.09.88,1.69.23.35.48.64.75.89.17-.4.33-.8.53-1.19Z" style="fill: #f59a4d; stroke-width: 0px;"/>
                          <path d="m155.3,139.41s-.08.02-.12.04c1.31.96,2.6,1.96,3.87,2.97,1.07-1.14,1.35-2.77,1.07-4.26-1.64.21-3.24.81-4.82,1.25Z" style="fill: #f59a4d; stroke-width: 0px;"/>
                          <path d="m154.7,139.69c.52,1.53,1.06,3.05,1.6,4.57.86-.34,1.68-.86,2.39-1.49-1.3-1.05-2.6-2.13-3.98-3.07Z" style="fill: #f59a4d; stroke-width: 0px;"/>
                          <path d="m154.21,139.79c-.05.07-.09.13-.14.2-.71,1.03-1.42,2.09-1.91,3.25-.1.23-.2.47-.3.7,1.17.85,2.6.92,3.97.49-.54-1.55-1.09-3.09-1.62-4.64Z" style="fill: #f59a4d; stroke-width: 0px;"/>
                        </g>
                        <g>
                          <path d="m148.34,139.75c.06.72.26,1.41.51,2.08.11.3.58.12.47-.18-.24-.63-.42-1.28-.48-1.95-.03-.32-.53-.27-.5.05Z" style="fill: #f59a4d; stroke-width: 0px;"/>
                          <path d="m149.26,142.55c.07.18.13.35.2.53.12.3.58.12.47-.18-.07-.18-.13-.35-.2-.53-.11-.3-.58-.12-.47.18Z" style="fill: #f59a4d; stroke-width: 0px;"/>
                          <path d="m160.72,140.67c-.24.51-.58.97-.85,1.46-.16.28.3.48.46.21.27-.49.61-.95.85-1.46.14-.29-.32-.5-.46-.2Z" style="fill: #f59a4d; stroke-width: 0px;"/>
                          <path d="m157.18,132.99c-.4-.17-.81-.27-1.22-.4-.3-.1-.51.36-.2.46.41.13.83.23,1.22.4.3.13.5-.33.21-.46Z" style="fill: #f59a4d; stroke-width: 0px;"/>
                        </g>
                      </g>
                      <g>
                        <path d="m191.36,113.06c-4.17,1.83-5.85,4.32-4.82,9.16,1.03,4.83,6.2,5.33,10.14,3.67,3.3-1.4,4.39-5.83,3.22-8.67-1.17-2.83-4.72-5.83-8.54-4.16Z" style="fill: #ff8c66; stroke-width: 0px;"/>
                        <g>
                          <path d="m192.52,118.76c.07-1.47.16-2.95.3-4.42-.33.06-.66.15-.99.3-.63.28-1.18.58-1.66.9.64,1.17,1.54,2.16,2.36,3.22Z" style="fill: #f87956; stroke-width: 0px;"/>
                          <path d="m192.34,119.61s.09-.06.14-.09c-.92-1.22-1.98-2.34-2.72-3.68-1.09.87-1.7,1.94-1.81,3.38,1.43.25,2.92.32,4.39.39Z" style="fill: #f87956; stroke-width: 0px;"/>
                          <path d="m193.16,119.65s0,0,0,0c.39.02.77.04,1.15.07,1.42.11,2.91.16,4.32.49.08-.85-.02-1.69-.32-2.41-.19-.45-.46-.91-.79-1.34-1.35,1.2-2.86,2.18-4.36,3.19Z" style="fill: #f87956; stroke-width: 0px;"/>
                          <path d="m193,119.16c1.45-.97,2.9-1.93,4.2-3.09-.97-1.07-2.35-1.87-3.88-1.79-.15,1.63-.25,3.25-.32,4.88Z" style="fill: #f87956; stroke-width: 0px;"/>
                          <path d="m189.45,121.78c.71-.63,1.47-1.2,2.25-1.74-1.26-.06-2.53-.12-3.77-.33,0,.57.08,1.2.22,1.89.09.41.22.77.38,1.1.3-.31.6-.63.92-.92Z" style="fill: #f87956; stroke-width: 0px;"/>
                          <path d="m193.62,120.16s-.09,0-.13,0c.89,1.36,1.73,2.75,2.56,4.15,1.41-.68,2.25-2.11,2.52-3.6-1.61-.39-3.32-.4-4.95-.54Z" style="fill: #f87956; stroke-width: 0px;"/>
                          <path d="m192.96,120.21c-.06,1.61-.09,3.22-.13,4.84.92-.01,1.88-.21,2.76-.55-.84-1.44-1.68-2.92-2.63-4.29Z" style="fill: #f87956; stroke-width: 0px;"/>
                          <path d="m192.46,120.12c-.07.05-.13.09-.2.14-1.04.71-2.06,1.45-2.94,2.36-.18.18-.35.37-.53.55.79,1.21,2.1,1.78,3.54,1.87.04-1.64.08-3.28.13-4.91Z" style="fill: #f87956; stroke-width: 0px;"/>
                        </g>
                        <g>
                          <path d="m186.99,118c-.2.69-.25,1.41-.26,2.13,0,.32.5.32.5,0,0-.67.06-1.34.24-2,.09-.31-.39-.44-.48-.13Z" style="fill: #f87956; stroke-width: 0px;"/>
                          <path d="m186.85,120.94v.56c0,.32.5.32.5,0v-.56c0-.32-.5-.32-.5,0Z" style="fill: #f87956; stroke-width: 0px;"/>
                          <path d="m198.24,123.27c-.4.39-.88.7-1.31,1.06-.25.21.11.56.35.35.43-.36.91-.67,1.31-1.06.23-.23-.12-.58-.35-.35Z" style="fill: #f87956; stroke-width: 0px;"/>
                          <path d="m197.66,114.83c-.31-.3-.66-.55-1-.81-.25-.2-.61.15-.35.35.34.27.69.51,1,.81.23.23.58-.13.35-.35Z" style="fill: #f87956; stroke-width: 0px;"/>
                        </g>
                      </g>
                      <g>
                        <path d="m226.3,144c-4.28,4.21-5.18,8.06-1.66,13.53,3.53,5.47,10.13,3.66,14.2-.23,3.41-3.26,2.67-9.24-.09-12.18-2.76-2.94-8.54-4.97-12.46-1.12Z" style="fill: #ffba63; stroke-width: 0px;"/>
                        <g>
                          <path d="m230.4,150.47c-.61-1.85-1.18-3.7-1.7-5.58-.38.22-.74.5-1.08.83-.65.64-1.19,1.26-1.62,1.89,1.34,1.14,2.91,1.94,4.41,2.86Z" style="fill: #f59a4d; stroke-width: 0px;"/>
                          <path d="m230.57,151.6c.04-.06.08-.12.12-.18-1.71-1.07-3.53-1.95-5.07-3.26-.94,1.58-1.19,3.18-.64,5,1.88-.36,3.75-.97,5.59-1.57Z" style="fill: #f59a4d; stroke-width: 0px;"/>
                          <path d="m231.61,151.26s0,0,0,0c.48-.16.97-.31,1.45-.45,1.8-.53,3.66-1.17,5.55-1.42-.3-1.08-.82-2.07-1.52-2.81-.44-.47-.99-.91-1.6-1.28-1.1,2.11-2.5,4.03-3.87,5.97Z" style="fill: #f59a4d; stroke-width: 0px;"/>
                          <path d="m231.18,150.75c1.34-1.87,2.67-3.73,3.73-5.77-1.7-.86-3.77-1.2-5.62-.39.57,2.07,1.21,4.12,1.89,6.16Z" style="fill: #f59a4d; stroke-width: 0px;"/>
                          <path d="m228.04,155.63c.58-1.11,1.25-2.17,1.96-3.2-1.59.51-3.18,1.04-4.8,1.37.27.7.66,1.44,1.16,2.22.3.46.63.85.98,1.18.22-.53.44-1.06.7-1.57Z" style="fill: #f59a4d; stroke-width: 0px;"/>
                          <path d="m232.41,151.69c-.05.02-.11.03-.16.05,1.73,1.26,3.42,2.58,5.09,3.91,1.41-1.5,1.78-3.65,1.41-5.61-2.16.28-4.27,1.06-6.34,1.65Z" style="fill: #f59a4d; stroke-width: 0px;"/>
                          <path d="m231.62,152.05c.69,2.01,1.4,4.01,2.1,6.02,1.13-.45,2.21-1.14,3.15-1.97-1.71-1.38-3.43-2.81-5.25-4.05Z" style="fill: #f59a4d; stroke-width: 0px;"/>
                          <path d="m230.97,152.18c-.06.09-.12.17-.18.26-.94,1.36-1.86,2.75-2.52,4.28-.13.31-.26.62-.39.92,1.54,1.12,3.42,1.21,5.23.65-.72-2.04-1.44-4.07-2.14-6.11Z" style="fill: #f59a4d; stroke-width: 0px;"/>
                        </g>
                        <g>
                          <path d="m223.24,152.13c.08.94.35,1.86.68,2.74.15.4.76.16.61-.23-.31-.83-.56-1.68-.64-2.57-.04-.42-.69-.36-.66.06Z" style="fill: #f59a4d; stroke-width: 0px;"/>
                          <path d="m224.45,155.81c.09.23.17.46.26.69.15.4.77.16.62-.23-.09-.23-.18-.46-.26-.69-.15-.4-.77-.16-.62.23Z" style="fill: #f59a4d; stroke-width: 0px;"/>
                          <path d="m239.55,153.35c-.31.67-.76,1.27-1.12,1.92-.21.37.4.64.6.27.36-.65.81-1.25,1.12-1.92.18-.39-.42-.65-.6-.27Z" style="fill: #f59a4d; stroke-width: 0px;"/>
                          <path d="m234.89,143.23c-.52-.23-1.07-.36-1.61-.53-.4-.13-.67.47-.27.6.54.17,1.09.31,1.61.53.39.17.66-.43.27-.6Z" style="fill: #f59a4d; stroke-width: 0px;"/>
                        </g>
                      </g>
                      <g style="clip-path: url(#clippath-1);">
                        <path d="m219.02,193.59h-126.63s-7.46,62.17,63.31,62.17,63.31-62.17,63.31-62.17Z" style="fill: #ffd3a1; stroke-width: 0px;"/>
                        <path d="m102.72,232.25c2.92,1.81,8.46,3.7,10.81,6.45.04.09.09.16.17.21.13.17.25.35.36.54.04.08.1.13.16.17.55,2.42,1.12,4.84,1.67,7.27,0,.06.01.11.04.16.06.25.11.49.17.74-1.45-2.02-4-3.69-5.9-4.62-1.45-.71-5.38-1.76-5.81.94-.32,2.01,5.52,2.23,11.55,5.88.13.08.26.05.35,0,.06.18.21.28.37.3.54,2.44,1.04,4.89,1.47,7.35-1.07-1.38-2.57-2.62-3.85-3.6-1.19-.9-3.32-2.59-4.85-1.46-1.58,1.17-.32,3.41.96,4.13,2.38,1.35,5.42,1.18,7.78,2.45.06.1.15.17.25.19.21,1.33.4,2.66.56,4,.06.53.89.43.82-.1-.17-1.43-.38-2.86-.61-4.28,1.84-1.87,11.93-12.69,9.09-14.01-2.45-1.14-8.8,10.11-9.31,12.68-.63-3.59-1.42-7.16-2.25-10.72,5.62-11.09,16.53-10.29,16.22-13.33-.42-4.2-5.38-3.54-7.84-1.78-2,1.43-3.76,3.24-5.22,5.22-1.84,2.5-2.41,5.41-3.55,8.25-1.17-5.04-2.37-10.07-3.21-15.14,0,0,0,0,0,0,0,0,.01-.01.02-.02.01-.01.03-.02.04-.04,1.28-1.79,3.93-4.45,5.38-6.04,3.78-4.17,6.86-6.52,5.68-8.37-1.7-2.65-5.52,2.74-6.88,4.82-1.72,2.63-3.12,5.44-4.47,8.28-.13-.87-.66-5.27-.74-6.35,0-.02.01-.03.02-.04.86-5.34,1.5-10.84,3.53-15.8,2.76-6.74.64-10.1-1.05-7.31-1.58,2.61-2.6,6.11-2.92,9.03-.37,3.47-.32,9.85-.24,13.25-.73-2.98-3.12-7.22-4.43-9.64-.87-1.61-4.33-6.67-5.62-4.94-1.85,2.48,2.27,7.41,3.66,9.55,1.33,2.03,2.73,4.01,4.16,5.98.84,1.16,1.86,2.31,2.51,3.59.01.02.02.04.04.06.35,3.15.87,6.29,1.53,9.47.07.35.15.7.22,1.05-1.2-2.17-3.37-4.11-5.07-5.57-1.4-1.22-5.23-3.46-7.14-3.27-3.01.3-.34,3.37,1.36,4.43Z" style="fill: #ff8c66; stroke-width: 0px;"/>
                        <path d="m202.61,236.83c-1.53-1.16-5.96-1.25-7.8-.95-2.22.36-5.08.88-7.24,2.09.25-.26.5-.52.74-.78,2.23-2.35,4.32-4.77,6.26-7.26.02,0,.04-.02.06-.03,1.23-.75,2.7-1.2,4.02-1.74,2.24-.93,4.48-1.88,6.67-2.92,2.31-1.09,8.4-3.13,8.12-6.22-.19-2.15-5.79.34-7.37,1.26-2.38,1.38-6.64,3.74-8.82,5.89,1.85-2.86,5.24-8.26,6.74-11.41,1.26-2.65,2.22-6.16,2.24-9.22.02-3.26-3.55-1.52-4.73,5.67-.86,5.29-3.2,10.31-5.27,15.31,0,.02,0,.03,0,.05-.64.88-3.39,4.35-3.96,5.02.34-3.12.62-6.24.53-9.39-.07-2.48-.5-9.07-3.33-7.71-1.97.95-.58,4.57.46,10.1.4,2.12,1.26,5.77,1.42,7.96,0,.02.01.04.02.05,0,0,0,.02,0,.03,0,0,0,0,0,0-3.38,3.88-7.03,7.54-10.67,11.22.52-3.01,1.56-5.8,1.3-8.89-.2-2.45-.76-4.92-1.71-7.18-1.17-2.78-5.06-5.95-7.61-2.59-1.85,2.43,7.87,7.46,6.84,19.85-2.57,2.61-5.11,5.23-7.53,7.96.91-2.46,1.39-15.37-1.29-15.68-3.11-.36-.18,14.14.41,16.69-.94,1.09-1.87,2.2-2.76,3.33-.33.42.32.94.65.52.84-1.06,1.7-2.1,2.58-3.12.1.03.21.02.31-.04,2.67.15,5.17,1.89,7.91,1.99,1.47.05,3.71-1.2,2.98-3.02-.71-1.76-3.4-1.44-4.89-1.3-1.61.16-3.53.44-5.17,1.05,1.66-1.87,3.36-3.69,5.1-5.49.15.06.33.06.47-.07.05.1.14.19.3.19,7.05.05,12.13,2.92,12.92,1.04,1.05-2.52-2.85-3.69-4.45-3.85-2.11-.21-5.15-.12-7.45.84.18-.18.36-.36.54-.54.05-.03.08-.07.12-.12,1.74-1.77,3.49-3.54,5.23-5.32.07,0,.15-.01.23-.06.19-.11.39-.19.59-.27.08,0,.17-.03.25-.09,3.44-1.11,9.15.18,12.58.17,2,0,5.88-1.23,3.48-3.06Z" style="fill: #f87956; stroke-width: 0px;"/>
                        <path d="m129.62,223.44c1.76-.76,4.01-4.58,4.65-6.33.77-2.11,1.72-4.86,1.72-7.33.11.34.21.69.32,1.03.96,3.09,2.04,6.1,3.26,9.02,0,.02,0,.05,0,.07.05,1.44-.28,2.94-.45,4.36-.29,2.41-.56,4.82-.73,7.24-.18,2.55-1.38,8.86,1.44,10.13,1.97.89,2.54-5.22,2.51-7.05-.03-2.75,0-7.62-.82-10.58,1.58,3.01,4.63,8.61,6.65,11.46,1.69,2.39,4.29,4.96,6.94,6.47,2.83,1.62,3.06-2.35-2.63-6.9-4.19-3.34-7.42-7.84-10.76-12.09-.01-.01-.02-.02-.04-.03-.45-.99-2.13-5.08-2.44-5.91,2.55,1.83,5.14,3.6,7.93,5.06,2.2,1.15,8.16,4.01,8.35.87.14-2.18-3.7-2.75-9.03-4.55-2.04-.69-5.65-1.73-7.64-2.67-.02-.01-.04,0-.06-.01,0,0-.02,0-.03,0,0,0,0,0,0,0-1.73-4.84-3.13-9.82-4.55-14.79,2.37,1.93,4.29,4.2,7.11,5.49,2.23,1.02,4.66,1.75,7.1,2.03,3,.34,7.66-1.5,5.99-5.37-1.21-2.8-10.36,3.2-20.66-3.77-1.01-3.52-2.05-7.02-3.25-10.46,1.7,1.99,12.71,8.74,14.3,6.56,1.84-2.54-12.24-7.09-14.75-7.82-.49-1.36-1-2.71-1.55-4.04-.2-.5-.98-.19-.77.31.51,1.25,1,2.51,1.46,3.77-.07.07-.12.17-.12.29-1.44,2.26-4.18,3.58-5.6,5.92-.76,1.26-.78,3.82,1.17,4.08,1.88.25,2.93-2.26,3.53-3.63.65-1.48,1.35-3.29,1.62-5.02.82,2.36,1.57,4.74,2.29,7.13-.13.1-.21.26-.17.45-.11,0-.24.03-.31.17-3.5,6.12-8.49,9.15-7.23,10.75,1.68,2.15,4.61-.67,5.53-2,1.21-1.74,2.63-4.44,2.91-6.91.07.24.14.49.21.73,0,.06.02.11.05.16.69,2.39,1.37,4.78,2.07,7.16-.04.06-.06.14-.06.23,0,.22-.02.43-.05.64-.04.07-.06.16-.04.26-.72,3.54-4.64,7.88-6.31,10.89-.97,1.75-1.81,5.73.97,4.53Z" style="fill: #f87956; stroke-width: 0px;"/>
                        <path d="m165.68,197.67c1.5,1.2,5.93,1.4,7.77,1.15,2.22-.31,5.1-.75,7.29-1.91-.25.25-.51.51-.76.76-2.29,2.3-4.43,4.65-6.44,7.1-.02,0-.04.02-.07.03-1.25.72-2.73,1.13-4.07,1.64-2.26.87-4.52,1.77-6.74,2.75-2.34,1.03-8.48,2.92-8.28,6.01.14,2.16,5.8-.2,7.4-1.08,2.41-1.31,6.73-3.57,8.96-5.67-1.92,2.81-5.44,8.12-7.02,11.24-1.32,2.62-2.37,6.11-2.47,9.16-.1,3.26,3.51,1.6,4.87-5.55,1-5.26,3.46-10.22,5.65-15.17,0-.02,0-.03,0-.04.66-.86,3.5-4.26,4.08-4.92-.42,3.11-.78,6.23-.77,9.37,0,2.48.28,9.08,3.14,7.79,1.99-.9.7-4.55-.2-10.11-.34-2.12-1.12-5.8-1.22-8,0-.02-.01-.04-.01-.06,0,0,0-.02,0-.03,0,0,0,0,0,0,3.47-3.79,7.22-7.36,10.95-10.94-.59,3-1.7,5.75-1.52,8.85.14,2.45.63,4.93,1.53,7.22,1.1,2.81,4.91,6.07,7.55,2.78,1.91-2.38-7.68-7.66-6.34-20.02,2.63-2.54,5.24-5.1,7.73-7.77-.97,2.44-1.78,15.33.9,15.71,3.1.44.54-14.13.01-16.7.97-1.07,1.92-2.15,2.85-3.26.34-.41-.29-.95-.63-.54-.86,1.04-1.75,2.05-2.65,3.05-.1-.03-.2-.02-.31.03-2.67-.22-5.12-2.02-7.85-2.18-1.47-.09-3.74,1.1-3.06,2.94.66,1.78,3.36,1.53,4.86,1.42,1.61-.12,3.54-.35,5.19-.92-1.7,1.83-3.46,3.61-5.23,5.36-.14-.07-.33-.07-.47.06-.05-.1-.14-.19-.29-.2-7.05-.23-12.06-3.22-12.89-1.36-1.12,2.5,2.75,3.76,4.36,3.96,2.1.26,5.15.25,7.47-.66-.18.18-.37.35-.55.53-.05.03-.09.07-.12.12-1.79,1.73-3.58,3.45-5.36,5.18-.07,0-.15,0-.23.05-.19.1-.39.18-.59.26-.09,0-.17.03-.25.08-3.46,1.02-9.14-.41-12.58-.49-2-.04-5.91,1.08-3.55,2.97Z" style="fill: #ff8c66; stroke-width: 0px;"/>
                        <path d="m128.55,261.07c.54,3.4,2.73,8.82,2.19,12.39-.04.09-.06.17-.05.26-.04.21-.1.41-.17.62-.03.08-.03.16-.02.23-1.48,2-2.94,4.01-4.41,6.02-.04.04-.08.08-.1.13-.15.2-.3.41-.45.61.58-2.42.18-5.44-.36-7.49-.42-1.56-2.19-5.22-4.51-3.78-1.73,1.08,1.92,5.63,3.1,12.58.03.15.13.23.23.26-.1.16-.08.34.01.48-1.5,2-3.02,3.98-4.6,5.91.34-1.71.31-3.66.2-5.27-.1-1.49-.22-4.21-2.07-4.62-1.92-.43-2.79,1.99-2.5,3.43.53,2.69,2.65,4.87,3.23,7.48-.04.12-.03.22.02.31-.87,1.03-1.75,2.05-2.66,3.04-.36.4.26.95.62.56.97-1.06,1.92-2.15,2.84-3.26,2.62.17,17.4.73,16.54-2.28-.74-2.6-13.41-.04-15.69,1.25,2.3-2.82,4.49-5.76,6.64-8.71,12.07-3.01,18.59,5.77,20.7,3.56,2.91-3.06-.84-6.39-3.78-7.1-2.39-.58-4.91-.72-7.36-.53-3.09.24-5.67,1.72-8.56,2.71,3.04-4.18,6.07-8.37,9.35-12.33,0,0,0,0,0,0,0,0,.02,0,.03,0,.02,0,.03,0,.06,0,2.19-.2,5.93.07,8.09.12,5.63.14,9.42.92,10.04-1.17.89-3.01-5.68-2.38-8.14-2.05-3.12.42-6.16,1.19-9.18,2.03.57-.67,3.55-3.94,4.32-4.71.01,0,.03,0,.04-.02,4.6-2.85,9.18-5.96,14.26-7.66,6.9-2.32,8.06-6.12,4.84-5.57-3.01.51-6.33,2.02-8.74,3.69-2.87,1.98-7.66,6.2-10.18,8.48,1.78-2.5,3.42-7.08,4.4-9.65.65-1.71,2.22-7.64.06-7.48-3.09.22-4.12,6.56-4.83,9.02-.67,2.33-1.25,4.69-1.81,7.05-.33,1.39-.53,2.92-1.07,4.25,0,.02-.01.04-.02.07-2.15,2.32-4.2,4.77-6.16,7.35-.22.29-.43.57-.65.86.85-2.33.9-5.24.9-7.48,0-1.86-.8-6.22-2.19-7.54-2.19-2.08-2.78,1.95-2.46,3.92Z" style="fill: #ff8c66; stroke-width: 0px;"/>
                      </g>
                    </g>
                    <g id="SPARKLES">
                      <path d="m216.38,128.26c-.14-.21-.36-.21-.49,0l-.77,1.24c-.13.21-.41.5-.62.64l-1,.66c-.21.14-.21.37,0,.51l1.12.78c.21.14.49.43.63.64l.64.97c.14.21.37.21.5,0l.76-1.14c.14-.21.43-.49.64-.63l1.02-.65c.21-.13.21-.36,0-.5l-.97-.64c-.21-.14-.49-.42-.63-.64l-.83-1.28Z" style="fill: #ffba63; stroke-width: 0px;"/>
                      <path d="m211.91,135.23c-.08-.12-.21-.12-.29,0l-.45.73c-.08.13-.24.29-.37.38l-.59.39c-.12.08-.12.22,0,.3l.66.46c.12.08.29.25.37.38l.38.57c.08.12.21.12.3,0l.44-.67c.08-.12.25-.29.38-.37l.6-.38c.13-.08.13-.21,0-.29l-.57-.38c-.12-.08-.29-.25-.37-.37l-.49-.75Z" style="fill: #ffba63; stroke-width: 0px;"/>
                      <path d="m68,172.25c.14-.21.36-.21.49,0l.77,1.24c.13.21.41.5.62.64l1,.66c.21.14.21.37,0,.51l-1.12.78c-.21.14-.49.43-.63.64l-.64.97c-.14.21-.37.21-.5,0l-.76-1.14c-.14-.21-.43-.49-.64-.63l-1.02-.65c-.21-.13-.21-.36,0-.5l.97-.64c.21-.14.49-.42.63-.64l.83-1.28Z" style="fill: #ffba63; stroke-width: 0px;"/>
                      <path d="m72.47,180.22c.08-.12.21-.12.29,0l.45.73c.08.13.24.3.37.38l.59.39c.12.08.12.22,0,.3l-.66.46c-.12.08-.29.25-.37.38l-.38.57c-.08.12-.21.12-.3,0l-.44-.67c-.08-.12-.25-.29-.38-.37l-.6-.38c-.13-.08-.13-.21,0-.29l.57-.38c.12-.08.29-.25.37-.37l.49-.75Z" style="fill: #ffba63; stroke-width: 0px;"/>
                      <path d="m158.84,91.82c.14-.21.36-.21.49,0l.77,1.24c.13.21.41.5.62.64l1,.66c.21.14.21.37,0,.51l-1.12.78c-.21.14-.49.43-.63.64l-.64.97c-.14.21-.37.21-.5,0l-.76-1.14c-.14-.21-.43-.49-.64-.63l-1.02-.65c-.21-.13-.21-.36,0-.5l.97-.64c.21-.14.49-.42.63-.64l.83-1.28Z" style="fill: #ffba63; stroke-width: 0px;"/>
                      <path d="m91.77,125.38c.13-.19.33-.19.45,0l.71,1.14c.12.2.38.46.57.59l.92.61c.19.13.19.34,0,.47l-1.03.71c-.19.13-.45.4-.57.59l-.59.89c-.13.19-.33.19-.46,0l-.69-1.05c-.13-.19-.39-.45-.58-.57l-.94-.59c-.19-.12-.2-.33,0-.45l.89-.58c.19-.13.45-.39.58-.58l.76-1.17Z" style="fill: #ffba63; stroke-width: 0px;"/>
                      <path d="m136.46,146.68c.08-.12.21-.12.29,0l.45.73c.08.13.24.29.37.38l.59.39c.12.08.12.22,0,.3l-.66.46c-.12.08-.29.25-.37.38l-.38.57c-.08.12-.21.12-.3,0l-.44-.67c-.08-.12-.25-.29-.38-.37l-.6-.38c-.13-.08-.13-.21,0-.29l.57-.38c.12-.08.29-.25.37-.37l.49-.75Z" style="fill: #ffba63; stroke-width: 0px;"/>
                      <path d="m228.06,198.46c.08-.12.21-.12.29,0l.45.73c.08.13.24.3.37.38l.59.39c.12.08.12.22,0,.3l-.66.46c-.12.08-.29.25-.37.38l-.38.57c-.08.12-.21.12-.3,0l-.44-.67c-.08-.12-.25-.29-.38-.37l-.6-.38c-.13-.08-.13-.21,0-.29l.57-.38c.12-.08.29-.25.37-.37l.49-.75Z" style="fill: #ffba63; stroke-width: 0px;"/>
                      <path d="m243.63,179.66c-.14-.21-.36-.21-.49,0l-.77,1.24c-.13.21-.41.5-.62.64l-1,.66c-.21.14-.21.37,0,.51l1.12.78c.21.14.49.43.63.64l.64.97c.14.21.37.21.5,0l.76-1.15c.14-.21.43-.49.64-.63l1.02-.65c.21-.13.21-.36,0-.5l-.97-.64c-.21-.14-.49-.42-.63-.64l-.83-1.28Z" style="fill: #ffba63; stroke-width: 0px;"/>
                      <path d="m102.22,196.72c.08-.12.21-.12.29,0l.45.73c.08.13.24.3.37.38l.59.39c.12.08.12.22,0,.3l-.66.46c-.12.08-.29.25-.37.38l-.38.57c-.08.12-.21.12-.3,0l-.44-.67c-.08-.12-.25-.29-.38-.37l-.6-.38c-.13-.08-.13-.21,0-.29l.57-.38c.12-.08.29-.25.37-.37l.49-.75Z" style="fill: #fff; stroke-width: 0px;"/>
                      <path d="m82.85,193.24c.08-.12.21-.12.29,0l.45.73c.08.13.24.29.37.38l.59.39c.12.08.12.22,0,.3l-.66.46c-.12.08-.29.25-.37.38l-.38.57c-.08.12-.21.12-.3,0l-.44-.67c-.08-.12-.25-.29-.38-.37l-.6-.38c-.13-.08-.13-.21,0-.29l.57-.38c.12-.08.29-.25.37-.37l.49-.75Z" style="fill: #ffba63; stroke-width: 0px;"/>
                      <path d="m153.19,190.56c.13-.2.35-.2.48,0l.75,1.2c.13.21.4.49.6.62l.97.64c.2.13.21.36,0,.5l-1.09.76c-.2.14-.47.42-.61.62l-.62.94c-.13.2-.35.2-.49,0l-.73-1.11c-.13-.2-.41-.48-.62-.61l-.99-.63c-.21-.13-.21-.35,0-.48l.94-.62c.2-.13.48-.41.61-.62l.8-1.24Z" style="fill: #fff; stroke-width: 0px;"/>
                      <path d="m158.08,196.63c.08-.12.21-.12.29,0l.45.73c.08.13.24.29.37.38l.59.39c.12.08.12.22,0,.3l-.66.46c-.12.08-.29.25-.37.38l-.38.57c-.08.12-.21.12-.3,0l-.44-.67c-.08-.12-.25-.29-.38-.37l-.6-.38c-.13-.08-.13-.21,0-.29l.57-.38c.12-.08.29-.25.37-.37l.49-.75Z" style="fill: #fff; stroke-width: 0px;"/>
                      <path d="m134.94,220.95c.08-.12.21-.12.29,0l.45.73c.08.13.24.29.37.38l.59.39c.12.08.12.22,0,.3l-.66.46c-.12.08-.29.25-.37.38l-.38.57c-.08.12-.21.12-.3,0l-.44-.67c-.08-.12-.25-.29-.38-.37l-.6-.38c-.13-.08-.13-.21,0-.29l.57-.38c.12-.08.29-.25.37-.37l.49-.75Z" style="fill: #fff; stroke-width: 0px;"/>
                      <path d="m166.86,219.41c.08-.12.21-.12.29,0l.45.73c.08.13.24.29.37.38l.59.39c.12.08.12.22,0,.3l-.66.46c-.12.08-.29.25-.37.38l-.38.57c-.08.12-.21.12-.3,0l-.44-.67c-.08-.12-.25-.29-.38-.37l-.6-.38c-.13-.08-.13-.21,0-.29l.57-.38c.12-.08.29-.25.37-.37l.49-.75Z" style="fill: #fff; stroke-width: 0px;"/>
                      <path d="m210.93,191.99c.08-.12.21-.12.29,0l.45.73c.08.13.24.29.37.38l.59.39c.12.08.12.22,0,.3l-.66.46c-.12.08-.29.25-.37.38l-.38.57c-.08.12-.21.12-.3,0l-.44-.67c-.08-.12-.25-.29-.38-.37l-.6-.38c-.13-.08-.13-.21,0-.29l.57-.38c.12-.08.29-.25.37-.37l.49-.75Z" style="fill: #fff; stroke-width: 0px;"/>
                    </g>
                    <g id="CIRCLES">
                      <path d="m178.47,142.37c0,.76-.62,1.38-1.38,1.38s-1.38-.62-1.38-1.38.62-1.38,1.38-1.38,1.38.62,1.38,1.38Z" style="fill: none; stroke: #4d4d67; stroke-miterlimit: 10; stroke-width: .5px;"/>
                      <path d="m128.3,116.88c0,.76-.62,1.38-1.38,1.38s-1.38-.62-1.38-1.38.62-1.38,1.38-1.38,1.38.62,1.38,1.38Z" style="fill: none; stroke: #4d4d67; stroke-miterlimit: 10; stroke-width: .5px;"/>
                      <path d="m130.31,149.18c0,.76-.62,1.38-1.38,1.38s-1.38-.62-1.38-1.38.62-1.38,1.38-1.38,1.38.62,1.38,1.38Z" style="fill: none; stroke: #4d4d67; stroke-miterlimit: 10; stroke-width: .5px;"/>
                      <path d="m211.36,115.25c0,.76-.62,1.38-1.38,1.38s-1.38-.62-1.38-1.38.62-1.38,1.38-1.38,1.38.62,1.38,1.38Z" style="fill: none; stroke: #4d4d67; stroke-miterlimit: 10; stroke-width: .5px;"/>
                      <path d="m89.3,170.72c0,.76-.62,1.38-1.38,1.38s-1.38-.62-1.38-1.38.62-1.38,1.38-1.38,1.38.62,1.38,1.38Z" style="fill: none; stroke: #fff; stroke-miterlimit: 10; stroke-width: .5px;"/>
                      <path d="m171.55,111.66c0,.97-.79,1.76-1.76,1.76s-1.76-.79-1.76-1.76.79-1.76,1.76-1.76,1.76.79,1.76,1.76Z" style="fill: none; stroke: #4d4d67; stroke-miterlimit: 10; stroke-width: .64px;"/>
                      <path d="m223.85,174.26c0,.76-.62,1.38-1.38,1.38s-1.38-.62-1.38-1.38.62-1.38,1.38-1.38,1.38.62,1.38,1.38Z" style="fill: none; stroke: #fff; stroke-miterlimit: 10; stroke-width: .5px;"/>
                      <path d="m168.49,177.94c0,.76-.62,1.38-1.38,1.38s-1.38-.62-1.38-1.38.62-1.38,1.38-1.38,1.38.62,1.38,1.38Z" style="fill: none; stroke: #fff; stroke-miterlimit: 10; stroke-width: .5px;"/>
                      <path d="m181.55,138.51c0,.57-.46,1.03-1.03,1.03s-1.03-.46-1.03-1.03.46-1.03,1.03-1.03,1.03.46,1.03,1.03Z" style="fill: none; stroke: #4d4d67; stroke-miterlimit: 10; stroke-width: .5px;"/>
                      <path d="m91.06,173.95c0,.57-.46,1.03-1.03,1.03s-1.03-.46-1.03-1.03.46-1.03,1.03-1.03,1.03.46,1.03,1.03Z" style="fill: none; stroke: #fff; stroke-miterlimit: 10; stroke-width: .5px;"/>
                      <path d="m226.27,207.78c0,.76-.62,1.38-1.38,1.38s-1.38-.62-1.38-1.38.62-1.38,1.38-1.38,1.38.62,1.38,1.38Z" style="fill: none; stroke: #4d4d67; stroke-miterlimit: 10; stroke-width: .5px;"/>
                      <path d="m93.93,199.83c0,.97-.79,1.76-1.76,1.76s-1.76-.79-1.76-1.76.79-1.76,1.76-1.76,1.76.79,1.76,1.76Z" style="fill: none; stroke: #4d4d67; stroke-miterlimit: 10; stroke-width: .64px;"/>
                      <path d="m89.25,203.75c0,.57-.46,1.03-1.03,1.03s-1.03-.46-1.03-1.03.46-1.03,1.03-1.03,1.03.46,1.03,1.03Z" style="fill: none; stroke: #4d4d67; stroke-miterlimit: 10; stroke-width: .5px;"/>
                      <path d="m239.43,195.28c0,.57-.46,1.03-1.03,1.03s-1.03-.46-1.03-1.03.46-1.03,1.03-1.03,1.03.46,1.03,1.03Z" style="fill: none; stroke: #4d4d67; stroke-miterlimit: 10; stroke-width: .5px;"/>
                      <path d="m214.48,201.38c0,.76-.62,1.38-1.38,1.38s-1.38-.62-1.38-1.38.62-1.38,1.38-1.38,1.38.62,1.38,1.38Z" style="fill: none; stroke: #4d4d67; stroke-miterlimit: 10; stroke-width: .5px;"/>
                    </g>
                  </g>
                </g>
              </g>
              <path d="m158.17,0c-12.64,0-22.89,10.25-22.89,22.89s10.25,22.89,22.89,22.89,22.89-10.25,22.89-22.89S170.82,0,158.17,0Zm0,39.97c-9.43,0-17.08-7.65-17.08-17.08s7.65-17.08,17.08-17.08,17.08,7.65,17.08,17.08-7.65,17.08-17.08,17.08Z" style="fill: #efaf3f; stroke-width: 0px;"/>
              <path d="m173,30.86c-2.86,5.42-8.55,9.11-15.11,9.11s-11.87-3.46-14.82-8.59c-1.56,1.41-2.78,3.19-3.54,5.19,4.17,5.59,10.84,9.21,18.36,9.21s14.8-3.97,18.92-10.01c-.87-1.93-2.18-3.61-3.81-4.92Z" style="fill: #e28a2b; stroke-width: 0px;"/>
              <path d="m153.47,31.39h9.4c5.5,0,9.97,4.47,9.97,9.97v10.48h-29.34v-10.48c0-5.5,4.47-9.97,9.97-9.97Z" style="fill: #efaf3f; stroke-width: 0px;"/>
            </g>
          </g>
          <circle cx="18.22" cy="163.2" r="18.22" style="fill: #efaf3f; stroke-width: 0px;"/>
          <path d="m33.93,156.59c-2.35.33-2.7.64-3.61,3.38-1.06,3.2-3.7,11.59-5.59,17.72h-1.27c-1.73-5.14-3.91-11.32-5.68-16.28-1.9,5.62-3.82,11.19-5.53,16.28h-1.25c-1.61-5.56-3.56-11.93-5.37-17.79-.86-2.68-1.25-3.08-3.4-3.31v-.99h8.58v.99c-2.48.26-2.55.65-2.08,2.34,1.27,4.39,2.57,8.74,3.9,13.26,1.81-5.21,3.75-10.88,5.42-16.31h1.2c1.87,5.58,3.74,10.8,5.66,16.34,1.37-4.29,3.22-10.18,3.91-12.9.5-1.94.22-2.41-2.63-2.72v-.99h7.74v.99Z" style="fill: #fff5e6; stroke-width: 0px;"/>
          <circle cx="158.31" cy="22.97" r="18.22" style="fill: #efaf3f; stroke-width: 0px;"/>
          <path d="m170.27,13.12c-2.12.24-2.81.59-2.91,2.12-.05,1.11-.12,2.47-.12,5.54v13.38h-1.38l-14.24-17.34v8.21c0,2.99.09,4.46.17,5.43.08,1.66.89,2.21,3.31,2.4v.99h-8.15v-.99c2.04-.17,2.85-.67,3-2.29.11-1.09.17-2.54.17-5.56v-8.41c0-.97-.07-1.54-.67-2.3-.63-.84-1.35-1.02-2.94-1.18v-.99h5.28l13.91,16.45v-7.8c0-3.07-.06-4.45-.16-5.49-.1-1.49-.83-2-3.52-2.17v-.99h8.25v.99Z" style="fill: #fff5e6; stroke-width: 0px;"/>
          <circle cx="296.78" cy="163.06" r="18.22" style="fill: #efaf3f; stroke-width: 0px;"/>
          <path d="m306.38,170.18c-.19.88-1.1,4.39-1.43,5.38h-16.44v-.98c3.1-.25,3.32-.52,3.32-3.27v-13.12c0-2.95-.37-3.12-2.84-3.35v-.99h10.34c3.21,0,4.49-.03,4.9-.07.03.79.17,3.34.31,5.17l-1.06.17c-.3-1.14-.68-1.96-1.08-2.64-.55-1.02-1.25-1.25-3.21-1.25h-2.99c-1.08,0-1.16.09-1.16,1.09v7.31h3.63c2.39,0,2.59-.5,3.01-2.79h1.08v6.99h-1.08c-.45-2.42-.72-2.76-3.04-2.76h-3.6v6.49c0,2.33.61,2.62,2.36,2.66h2.98c2.01,0,2.37-.29,3.11-1.16.67-.75,1.37-2.1,1.85-3.12l1.04.27Z" style="fill: #fff5e6; stroke-width: 0px;"/>
          <circle cx="159.12" cy="300.72" r="18.22" style="fill: #efaf3f; stroke-width: 0px;"/>
          <path d="m163.23,296.5c-.51-1.91-1.32-3.84-4.04-3.84-2.16,0-3,1.57-3,3.1,0,1.93,1.24,2.94,3.68,4.19,3.42,1.75,5.01,3.12,5.01,5.9,0,3.12-2.68,5.47-6.5,5.47-1.76,0-3.3-.49-4.52-.95-.22-.79-.6-2.95-.8-4.48l.94-.24c.58,1.92,1.92,4.57,4.91,4.57,2.03,0,3.27-1.39,3.27-3.27,0-2.14-1.16-3.05-3.7-4.43-3.04-1.65-4.8-3.05-4.8-5.81s2.19-5.1,6.12-5.1c1.69,0,3.28.44,3.89.55.12,1.05.25,2.27.48,4.15l-.94.19Z" style="fill: #fff5e6; stroke-width: 0px;"/>
        </g>
      </g>
    </g>
  </g>
</svg>