<?xml version="1.0" encoding="UTF-8"?>
<svg id="_圖層_2" data-name="圖層 2" xmlns="http://www.w3.org/2000/svg" width="218.04" height="218.04" xmlns:xlink="http://www.w3.org/1999/xlink" viewBox="0 0 218.04 218.04">
  <defs>
    <clipPath id="clippath">
      <circle cx="109.91" cy="110.07" r="101" style="fill: none; stroke-width: 0px;"/>
    </clipPath>
  </defs>
  <g id="_圖層_2-2" data-name=" 圖層 2">
    <g id="_圖層_8" data-name=" 圖層 8">
      <g id="Topic_exploration10" data-name="Topic exploration10">
        <g>
          <path d="m108.99.06c-1.59,0-3.21.03-4.8.1l.35,8c.38-.02.77-.03,1.15-.04h.26c.64-.02,1.27-.03,1.91-.04h1.08V.06h.05Zm-7.67.27c-1.59.11-3.2.26-4.78.44l.91,7.96c.83-.09,1.66-.18,2.49-.25h.56c.44-.04.88-.07,1.32-.1l-.56-7.99h0l.06-.06Zm-7.64.8c-1.58.22-3.17.48-4.74.77l1.46,7.87c1.45-.27,2.92-.51,4.39-.72l-1.12-7.93h.01Zm-7.57,1.34c-1.56.33-3.13.71-4.67,1.11l2.02,7.75c1.05-.27,2.1-.53,3.16-.77h.17c.33-.07.66-.15.99-.22l-1.67-7.83h0v-.04Zm-7.45,1.87c-1.53.44-3.07.93-4.58,1.44l2.56,7.59c.51-.17,1.02-.34,1.54-.51h.01s.04-.01.06-.02h.02s.02,0,.04-.01c.01,0,.02,0,.04-.01h.02s.04-.01.05-.02h.02s.03-.01.05-.02h.01s.04-.01.06-.02h0c.77-.24,1.55-.48,2.33-.7l-2.22-7.69h0v-.03Zm-7.3,2.4c-1.5.55-3,1.14-4.47,1.76l3.1,7.39c.75-.31,1.5-.62,2.25-.91h0s.04-.02.06-.02h0s.04-.01.06-.02h.01s.04-.01.05-.02h.02s.03-.01.04-.02c0,0,.02,0,.03-.01h.03s.02-.01.04-.02c.01,0,.02,0,.03-.01.01,0,.02,0,.03-.01h.01s.04-.02.06-.02h0c.47-.18.94-.36,1.41-.53l-2.76-7.52h0v-.04Zm-7.11,2.91c-1.45.65-2.91,1.35-4.33,2.07l3.61,7.15c.14-.07.29-.15.43-.22h0s.04-.02.06-.03h0s.03-.02.05-.03h0s.04-.02.06-.03h0s.03-.02.05-.02h.01s.03-.02.05-.02h.02s.03-.02.05-.02h.02s.03-.02.04-.02h.02s.03-.01.04-.02c0,0,.02,0,.02-.01.01,0,.02-.01.03-.02.01,0,.02-.01.03-.02,0,0,.02-.01.03-.02,0,0,.02,0,.03-.01.01,0,.02-.01.04-.02,0,0,.02,0,.02-.01.01,0,.03-.01.04-.02,0,0,.02,0,.02-.01.01,0,.02-.01.03-.02l.03-.02s.02,0,.03-.01c.01,0,.03-.01.04-.02,0,0,.02,0,.03-.01.01,0,.02-.01.04-.02,0,0,.02-.01.03-.01,0,0,.02,0,.03-.01.01,0,.03-.01.04-.02,0,0,.02,0,.03-.01.01,0,.03-.01.04-.02,0,0,.02,0,.03-.01.01,0,.02,0,.03-.01.01,0,.02-.01.03-.02,0,0,.02,0,.03-.01.01,0,.02-.01.03-.02,0,0,.02-.01.03-.01s.02-.01.03-.02c.01,0,.02-.01.03-.02,0,0,.02,0,.02-.01.01,0,.03-.01.04-.02,0,0,.02,0,.03-.01.01,0,.02-.01.04-.02,0,0,.02,0,.03-.01,0,0,.02-.01.03-.01s.02-.01.03-.02c0,0,.02,0,.03-.01.01,0,.02,0,.03-.01.01,0,.02-.01.04-.02,0,0,.02,0,.02-.01.01,0,.03-.01.04-.02,0,0,.01,0,.02-.01.01,0,.03-.01.04-.02h.02s.03-.01.04-.02c0,0,.01,0,.02-.01.01,0,.03-.01.04-.02h.02s.03-.02.04-.03h.02s.03-.01.05-.02h.02s.03-.01.05-.02h.02s.03-.02.05-.02h.01s.03-.02.05-.02h.01s.04-.02.05-.02h.01s.04-.02.05-.02h.01s.04-.02.05-.02h.01s.03-.02.05-.03h0s.04-.02.06-.03h0s.04-.02.06-.03h0s.04-.02.06-.03h0s.04-.02.06-.03h0s.04-.02.06-.03h0s.04-.02.06-.03h0s.08-.04.12-.06h0s.04-.02.06-.03h0s.04-.02.06-.03h0c.08-.04.17-.08.25-.11h0s.04-.02.06-.03h0s.04-.02.06-.03h0s.04-.02.06-.03l-3.29-7.3h0l.08-.13Zm-6.89,3.4c-1.4.76-2.81,1.55-4.18,2.37l4.11,6.88c1.16-.69,2.34-1.36,3.53-2.01h0s.03-.02.05-.03c0,0,0,0,.02-.01,0,0,.02-.01.04-.02,0,0,.02,0,.03-.02,0,0,.02,0,.02-.01,0,0,.03-.02.04-.02h.02s.03-.02.05-.03h0s.04-.02.05-.03h0l-3.8-7.05h0v-.02Zm-6.63,3.88c-1.35.85-2.69,1.75-4,2.66l4.58,6.57s0,0,.02-.01c0,0,.02-.01.02-.02,0,0,.02-.01.03-.02,0,0,.02-.01.03-.02,0,0,0,0,.02-.01,0,0,.03-.02.04-.03,0,0,0,0,.02-.01.02-.01.03-.02.04-.03h0s.03-.02.05-.03h0s.03-.02.05-.03h0s.07-.05.11-.08h0s.04-.03.06-.04h0s.04-.03.06-.04h0c.65-.44,1.3-.88,1.96-1.31h0s.04-.02.05-.03h0s.03-.02.05-.03h0s.03-.02.05-.03h0s.03-.02.04-.03c0,0,0,0,.02-.01,0,0,.02-.01.03-.02,0,0,0,0,.02-.01,0,0,.02-.01.04-.02,0,0,.02-.01.02-.02,0,0,.02-.02.03-.02,0,0,.02-.01.03-.02,0,0,0,0,.02-.01.02-.01.03-.02.05-.03h0s.04-.02.06-.04h0c.2-.13.41-.26.62-.4l-4.29-6.77h0l.04-.06Zm-6.34,4.34c-1.28.94-2.56,1.93-3.8,2.93l5.03,6.23c.29-.23.58-.46.87-.69h0s.04-.03.05-.04h0s.03-.02.05-.04h0s.03-.03.05-.04h0s.03-.03.05-.04h0s.03-.02.05-.04h0s.03-.02.04-.03h0s.03-.02.04-.03h0s.03-.03.04-.04c0,0,0,0,.02-.01,0,0,.03-.02.04-.03,0,0,0,0,.02-.01,0,0,.03-.02.04-.03,0,0,0,0,.02-.01,0,0,.02-.02.03-.03,0,0,0-.01.02-.02,0,0,.02-.02.03-.02,0,0,.02-.01.02-.02,0,0,.02-.02.03-.02,0,0,0-.01.02-.02,0,0,.02-.02.03-.03,0,0,.02-.01.02-.02,0,0,.02-.02.03-.03,0,0,.02-.01.02-.02,0,0,0-.01.02-.02,0,0,.02-.02.03-.03,0,0,0,0,.02-.02,0,0,.03-.02.04-.03,0,0,0-.01.02-.01s.03-.02.04-.03c0,0,0,0,.02-.01l.04-.03s0-.01.02-.01l.03-.02s0-.01.02-.02c0,0,.02-.02.04-.03,0,0,0,0,0-.01,0-.01.03-.02.04-.03h0s.03-.03.05-.05h0s.03-.03.05-.04h0c.07-.05.14-.11.21-.16h0c.36-.27.72-.55,1.09-.81l-4.75-6.45h0l.07-.04Zm-6.02,4.77c-1.21,1.03-2.42,2.11-3.59,3.19l5.45,5.87c.87-.81,1.76-1.61,2.66-2.39h0s.04-.03.05-.05h0l.05-.05h0l.04-.04h0s.02-.02.03-.03l.03-.03.02-.02.03-.03s0,0,.02,0l.03-.03h0s.03-.03.04-.04h0s.03-.03.05-.04h0l.05-.05h0s.11-.09.16-.14l-5.19-6.1h.05Zm-5.67,5.18c-1.14,1.11-2.27,2.27-3.35,3.43l5.85,5.47c.78-.83,1.56-1.65,2.37-2.45h0l.05-.05h0s.03-.03.04-.05h0l.04-.04h0s.02-.03.03-.04l.02-.02.03-.03.02-.02.03-.03.02-.02h0l.05-.05h0s.03-.04.05-.05h0c.11-.11.22-.21.33-.32l-5.61-5.72h.02Zm-5.29,5.56c-1.06,1.19-2.1,2.42-3.11,3.66l6.22,5.05s.04-.05.06-.07h0s.04-.05.04-.05c0,0,.01-.02.02-.03,0,0,.01-.02.02-.02,0,0,.02-.02.03-.03,0,0,0,0,.01-.02.01,0,.02-.03.03-.04h0s.03-.03.04-.05h0s.03-.03.04-.05h0s.03-.03.04-.05h0l1.02-1.23h0s.03-.03.04-.05h0s.03-.03.04-.05h0s.03-.03.04-.05h0s.03-.03.04-.05h0l.04-.04h0s.02-.04.04-.05h0s.02-.04.03-.05c0,0,0,0,0-.02,0,0,.02-.03.03-.04,0,0,0,0,0-.02,0,0,.02-.02.02-.03l.02-.03.02-.02s.02-.02.03-.03l.02-.02s.02-.02.03-.03c0,0,0-.02.02-.02.02-.03.05-.05.07-.08h0s.03-.03.04-.05h0s.03-.03.04-.05h0c.26-.31.53-.61.8-.92l-5.99-5.31h0l.09-.06Zm-4.89,5.92c-.97,1.26-1.93,2.57-2.84,3.87l6.56,4.6c.85-1.22,1.73-2.41,2.63-3.59l-6.35-4.88h0Zm-4.46,6.25c-.88,1.33-1.74,2.69-2.56,4.06l6.87,4.12c.14-.24.29-.48.43-.71h0s.02-.04.04-.06h0l.03-.06h0s.02-.04.04-.06h0s.05-.08.07-.12h0s.02-.04.03-.05h0s.02-.04.03-.05h0s.02-.03.03-.05h0l.03-.06h0l.03-.06h0s.02-.03.03-.05h0l.03-.05h0s.02-.04.03-.06h0s.02-.03.03-.05h0s.02-.04.03-.06h0s.02-.03.03-.05h0s.02-.04.03-.06h0s.02-.04.03-.06v-.02s.03-.03.04-.04c0,0,0,0,.01-.02,0,0,.02-.03.03-.04,0,0,0,0,.01-.02,0,0,.02-.03.03-.04v-.02s.02-.03.03-.04h0l.03-.06h0s.02-.04.03-.05c0,0,0,0,.01-.02.01-.02.02-.03.03-.04v-.02s.02-.03.03-.05h0s.02-.04.03-.05h0s.02-.04.03-.05h0s.02-.04.03-.06h0s.02-.04.03-.06h0s.02-.04.03-.06h0s.02-.04.03-.06h0s.02-.04.03-.06h0s.02-.03.03-.05h0s.02-.03.03-.05h0s.02-.04.03-.06h0s.02-.04.03-.06h0s.02-.04.03-.05h0s.05-.08.07-.11h0s.02-.04.04-.06h0s.02-.04.04-.06h0c.13-.19.25-.39.38-.58l-6.68-4.42h0l.2-.08Zm-4.01,6.55c-.78,1.39-1.55,2.81-2.27,4.23l7.14,3.63h0c.45-.89.92-1.77,1.39-2.65h0l.03-.06h0c.03-.06.07-.12.1-.18h0l.03-.06h0s.02-.04.03-.06h0l.03-.06h0c.03-.06.07-.12.1-.18h0l.03-.06h0c.11-.2.23-.4.34-.61l-6.97-3.94h.02Zm-3.54,6.82c-.68,1.44-1.35,2.91-1.97,4.38l7.38,3.12c.58-1.37,1.18-2.72,1.82-4.06l-7.23-3.44h0Zm-3.05,7.05c-.58,1.48-1.14,3-1.65,4.51l7.58,2.58c.03-.1.07-.2.1-.3h0s.01-.04.02-.06v-.02s0-.02.01-.03c0-.01,0-.02.01-.04v-.03s0-.03.01-.04v-.02s.01-.03.02-.04v-.02s.01-.03.02-.05h0s.01-.05.02-.07h0s.01-.04.02-.06h0s.01-.04.02-.06h0c.26-.74.53-1.48.81-2.22h0s.02-.04.02-.06h0s.02-.04.02-.06h0s.02-.04.02-.06h0s.01-.04.02-.06h0s.01-.04.02-.06v-.02s.01-.03.02-.05v-.02s0-.02.01-.04c0-.01,0-.02.01-.03,0,0,0-.02.01-.03,0-.02.01-.03.02-.05v-.02c.07-.18.14-.36.21-.54l-7.46-2.92h.09Zm-2.54,7.25c-.47,1.52-.92,3.08-1.33,4.62l7.74,2.04c.38-1.44.79-2.86,1.23-4.28l-7.65-2.38h0Zm-2.02,7.41c-.36,1.55-.7,3.13-1,4.7l7.87,1.49c.05-.26.1-.51.15-.77h0v-.04h0v-.04h0v-.03h0v-.07h0v-.03h0v-.04h0v-.03h0v-.03h0c.15-.77.32-1.54.49-2.31h0s.01-.05.02-.07h0c.02-.09.04-.18.06-.27h0c.05-.2.09-.41.14-.61l-7.8-1.83h0l.07-.02Zm-1.49,7.54c-.25,1.57-.48,3.17-.66,4.76l7.95.93c.07-.63.15-1.27.24-1.9h0v-.03h0v-.04h0v-.03h0s.01-.08.02-.13h0v-.03h0v-.07h0v-.03h0c0-.05.01-.09.02-.13h0v-.03h0v-.11h0v-.03h0v-.06h0v-.03h0v-.02h0v-.07h0v-.04h0c0-.05.02-.11.02-.16h0v-.03h0v-.03h0c.07-.44.13-.89.21-1.33l-7.91-1.28h0l.11-.08Zm-.96,7.62c-.14,1.58-.25,3.2-.33,4.79l8,.37c.03-.72.07-1.45.12-2.16h0v-.03h0v-.25h0v-.03h0v-.03h0c.04-.63.1-1.27.15-1.9h0v-.02h0l-7.98-.73h.04Zm-.42,7.66c0,.74-.02,1.47-.02,2.21,0,.86.01,1.72.03,2.58l8.01-.19c0-.2,0-.4-.01-.59h0v-.08h0v-.04h0v-.04h0c0-.43-.01-.85-.01-1.27h0v-.04h0v-.03h0v-.03h0v-.04h0v-.04h0v-.04h0v-.08h0v-.05h0v-.06h0v-.07h0v-.42h0v-.08h0c0-.45,0-.89.02-1.34v-.1h0l-8.01-.16h-.04.03Zm8.11,7.28l-8,.4c.08,1.59.19,3.2.34,4.79l7.97-.74c-.03-.34-.06-.69-.09-1.03h0v-.03h0v-.1h0v-.04h0v-.04h0v-.04h0c-.08-1.05-.15-2.09-.2-3.15h0l-.02-.02Zm.6,7.09l-7.95.95c.19,1.58.42,3.18.68,4.75l7.9-1.3c-.24-1.46-.45-2.93-.63-4.41h0Zm1.1,7.03l-7.86,1.51c.3,1.57.64,3.15,1.01,4.7l7.79-1.86c-.11-.45-.21-.89-.31-1.34h0v-.04h0s-.01-.05-.02-.08h0v-.09h0v-.03h0v-.03h0c-.2-.9-.39-1.81-.56-2.72h0l-.05-.02Zm1.59,6.94l-7.74,2.07c.41,1.54.86,3.09,1.34,4.61l7.64-2.41c-.21-.68-.42-1.37-.62-2.06h0s-.01-.04-.02-.06h0s-.01-.05-.02-.07h0s-.01-.04-.02-.06h0s-.01-.04-.02-.06h0s-.01-.05-.02-.07h0s-.01-.05-.02-.07h0s-.01-.05-.02-.07h0s0-.04-.01-.06v-.02s-.01-.03-.02-.05v-.02s0-.03-.01-.05v-.02s0-.03-.01-.05v-.06s0-.02-.01-.04v-.07s-.02-.02-.02-.03v-.06s0-.03-.01-.05h0s-.01-.05-.02-.07h0s-.01-.05-.02-.08h0c-.02-.07-.03-.13-.05-.19h0s-.01-.05-.02-.08h0c-.07-.26-.14-.51-.21-.77h0l-.07.02Zm2.08,6.81l-7.57,2.61c.52,1.51,1.08,3.02,1.67,4.51l7.45-2.94c-.54-1.38-1.06-2.77-1.54-4.17h-.01Zm2.56,6.64l-7.37,3.14c.62,1.47,1.29,2.94,1.98,4.38l7.22-3.46c-.21-.44-.42-.88-.62-1.32h0s-.02-.04-.03-.06h0s-.02-.04-.03-.06h0s-.02-.04-.03-.06h0s-.02-.03-.02-.05h0s-.02-.04-.02-.06v-.02s-.01-.03-.02-.05v-.02s-.01-.03-.02-.04c0,0,0-.02-.01-.02,0,0,0-.02-.01-.03,0,0-.01-.02-.02-.04,0,0,0-.02-.01-.02,0-.02-.01-.03-.02-.05v-.02s-.02-.04-.03-.06h0c-.31-.68-.61-1.37-.9-2.06h0l-.04-.02Zm3.02,6.44l-7.13,3.65c.73,1.42,1.5,2.84,2.29,4.22l6.96-3.97h0s-.01-.03-.02-.05c0,0-.01-.02-.02-.03,0,0,0-.02-.01-.02,0-.02-.02-.03-.03-.05h0c-.5-.89-.99-1.78-1.46-2.68h0s-.02-.04-.03-.06h0s-.02-.04-.03-.05h0s-.02-.04-.02-.04c0,0-.01-.03-.02-.04,0,0,0-.02-.01-.02,0,0-.01-.03-.02-.04,0,0,0,0-.01-.02,0,0-.01-.03-.02-.04h0s-.02-.04-.03-.06h0s-.02-.05-.03-.06h0s-.02-.04-.03-.06h0c-.1-.18-.19-.37-.29-.56h0l-.04-.02Zm3.47,6.21l-6.85,4.15c.83,1.36,1.69,2.73,2.58,4.05l6.66-4.45c-.33-.5-.66-1-.99-1.51h0s-.02-.04-.04-.06h0s-.02-.03-.03-.05h0s-.02-.03-.03-.05h0s-.02-.04-.03-.05h0s-.02-.03-.03-.05h0s-.02-.03-.03-.05h0s-.02-.04-.03-.06h0s-.02-.04-.03-.06h0s-.02-.04-.03-.06h0s-.02-.04-.03-.05h0s-.02-.04-.03-.05h0s-.02-.04-.03-.05c0,0,0,0-.01-.02-.01-.02-.02-.03-.03-.04,0,0,0,0-.01-.02,0,0-.02-.03-.03-.04,0,0,0,0-.01-.02-.01-.02-.02-.03-.03-.04h0s-.02-.04-.02-.05c0,0,0,0-.01-.02,0,0-.02-.03-.03-.04h0s-.02-.04-.03-.05c0,0,0,0-.01-.02-.01-.02-.02-.03-.03-.04,0,0,0,0-.01-.02,0,0-.02-.03-.03-.04,0,0,0,0-.01-.02,0,0-.02-.03-.02-.04,0,0,0,0-.01-.02,0,0-.01-.02-.02-.03,0,0-.01-.02-.02-.02,0,0-.01-.02-.02-.04,0,0,0,0-.01-.02,0,0-.02-.03-.03-.04,0,0,0,0-.01-.02-.01-.02-.02-.03-.03-.04,0,0,0,0-.01-.02,0,0-.02-.03-.03-.04,0,0,0,0-.01-.02,0,0-.02-.03-.03-.04,0,0,0,0-.01-.02,0,0-.02-.02-.02-.04,0,0,0,0-.01-.02,0,0-.02-.03-.02-.04,0,0,0,0-.01-.02,0,0-.02-.03-.03-.04,0,0,0,0-.01-.02,0-.02-.02-.03-.03-.04,0,0,0,0-.01-.02,0,0-.02-.03-.03-.04,0,0,0,0-.01-.02,0,0-.02-.03-.02-.04,0,0,0,0-.01-.02,0,0-.02-.03-.02-.04,0,0,0,0-.01-.02,0-.02-.02-.03-.03-.04v-.02s-.02-.03-.03-.05v-.02s-.02-.03-.03-.05v-.02s-.02-.03-.03-.05h0l-.11-.04Zm3.9,5.95l-6.54,4.62c.92,1.3,1.88,2.6,2.85,3.86l6.33-4.9c-.58-.75-1.15-1.51-1.71-2.27h0s-.02-.03-.04-.05h0s-.02-.03-.03-.05h0s-.02-.04-.03-.05h-.01s-.02-.03-.03-.05c0,0,0,0-.01-.02,0,0-.02-.02-.02-.03,0,0-.01-.02-.02-.03,0,0-.01-.02-.02-.03,0,0-.02-.02-.03-.04,0,0-.01,0-.01-.02-.02-.03-.04-.06-.06-.09h0s-.03-.04-.04-.06h0c-.18-.26-.37-.52-.55-.77h0l-.03-.02Zm4.31,5.67l-6.2,5.07c1.01,1.23,2.06,2.46,3.12,3.65l5.97-5.33c-.05-.06-.1-.11-.15-.17,0,0,0,0-.02-.02l-.02-.03s-.02-.02-.03-.03h0s-.03-.04-.04-.05h0s-.03-.03-.04-.05h0s-.03-.03-.04-.05h0c-.54-.61-1.06-1.22-1.59-1.84h0s-.03-.03-.04-.05h0s-.02-.03-.04-.04h0s-.02-.04-.04-.05h-.01s-.02-.03-.03-.04c0,0-.01-.02-.02-.03,0,0-.01-.02-.02-.02,0,0-.02-.02-.03-.03,0,0,0,0-.02-.02-.01-.02-.03-.03-.04-.05h0c-.21-.26-.42-.51-.63-.77h0l-.03-.05Zm4.69,5.35l-5.83,5.49c1.09,1.16,2.22,2.31,3.37,3.42l5.59-5.74h0s-.03-.03-.04-.04h0s-.03-.03-.04-.05h0s-.03-.04-.04-.05c0,0,0,0-.02-.02,0,0-.02-.02-.03-.03,0,0-.02-.02-.03-.02,0,0,0,0-.02-.02,0,0-.02-.02-.03-.03,0,0,0,0-.02-.02,0,0-.02-.02-.03-.03l-.02-.02s-.09-.09-.13-.13h0s-.03-.04-.05-.05h0s-.03-.04-.05-.05h0c-.28-.28-.55-.55-.83-.83h0s-.03-.04-.05-.05h0s-.03-.04-.05-.05h0s-.09-.09-.13-.14h0s-.03-.03-.05-.05h0s-.03-.04-.04-.05h0s-.02-.03-.03-.05c0,0,0,0-.02-.02,0,0,0,0-.02-.02,0,0-.02-.02-.03-.03,0,0,0,0-.02-.02,0,0-.02-.02-.03-.03,0,0,0,0-.02-.02,0,0-.02-.02-.03-.03,0,0,0,0-.02-.02,0,0-.02-.02-.03-.03,0,0,0,0-.02-.02,0,0-.02-.02-.03-.03h0s-.03-.04-.04-.05h0s-.03-.03-.04-.04h0s-.03-.03-.04-.04h0c-.3-.32-.61-.63-.91-.95h0l-.06-.04Zm5.06,5.01l-5.43,5.88c1.17,1.08,2.38,2.15,3.6,3.18l5.17-6.12c-.57-.48-1.13-.96-1.68-1.45h0c-.09-.08-.17-.15-.26-.23h0s-.03-.03-.05-.04h0s-.03-.03-.05-.04h0s-.03-.03-.05-.04h0s-.06-.06-.1-.09h0s-.03-.03-.05-.04h0s-.03-.03-.05-.04h0s-.03-.03-.04-.04h0s-.03-.03-.04-.04h0s-.03-.03-.05-.04h0s-.03-.03-.04-.04h0s-.03-.03-.04-.04h0s-.03-.02-.04-.04h0s-.03-.03-.04-.04h0s-.03-.03-.04-.04h0s-.03-.03-.04-.04h0s-.03-.03-.04-.04h0s-.03-.03-.04-.04h0s-.03-.03-.04-.05h0s-.02-.03-.04-.04h0s-.03-.03-.04-.04c0,0,0,0-.02,0,0,0-.03-.02-.03-.03,0,0,0,0-.02-.02,0,0-.02-.02-.03-.03,0,0-.02,0-.02-.02,0,0-.02-.02-.03-.03,0,0,0,0-.02-.02,0,0-.02-.02-.03-.03,0,0,0,0-.02-.02,0,0-.02-.02-.03-.03,0,0,0,0-.02-.02,0,0-.02-.02-.03-.02h0s-.11-.12-.11-.12Zm5.39,4.64l-5.01,6.25c1.24,1,2.53,1.98,3.81,2.92l4.73-6.46c-.37-.27-.73-.54-1.09-.81h0s-.04-.03-.06-.05h0s-.02-.02-.03-.03c0,0-.02,0-.03-.02,0,0-.02,0-.03-.02,0,0-.02,0-.03-.02,0,0-.02,0-.03-.02,0,0-.02-.02-.03-.02,0,0,0,0-.02-.02,0,0-.03-.02-.04-.03h0s-.03-.02-.04-.03h0s-.03-.02-.05-.04h0s-.03-.03-.05-.04h0c-.66-.5-1.32-1.02-1.97-1.54h0v-.02Zm5.71,4.25l-4.56,6.59c1.31.91,2.66,1.8,4.01,2.64l4.26-6.78c-.3-.19-.61-.38-.91-.58h0s-.04-.03-.06-.04h0s-.03-.02-.05-.03c0,0,0,0-.02,0,0,0-.02,0-.03-.02,0,0-.02-.02-.03-.02,0,0-.02,0-.02-.02,0,0-.02-.02-.04-.02,0,0,0,0-.02,0,0,0-.03-.02-.04-.02,0,0,0,0-.02,0,0,0-.03-.02-.04-.03h0s-.03-.02-.05-.03h0s-.03-.02-.05-.03h0s-.03-.02-.05-.03h0s-.03-.02-.05-.03h0c-.74-.48-1.47-.97-2.19-1.47h0v-.05Zm5.99,3.84l-4.08,6.89c1.37.81,2.78,1.61,4.18,2.36l3.77-7.06c-.74-.4-1.48-.8-2.21-1.22h0s-.04-.02-.06-.04h-.02s-.03-.02-.04-.03c0,0,0,0-.02,0,0,0-.03,0-.04-.02,0,0-.02,0-.03,0,0,0-.02,0-.03-.02,0,0-.02,0-.03-.02,0,0,0,0-.02,0,0,0-.03-.02-.04-.02,0,0,0,0-.02,0,0,0-.03-.02-.05-.03h0s-.03-.02-.05-.03h0s-.04-.02-.05-.03h0s-.04-.02-.06-.03h0s-.04-.02-.05-.03h0s-.04-.02-.06-.03h0c-.32-.18-.64-.37-.96-.56h0l-.02-.04Zm6.25,3.41l-3.59,7.16c1.43.71,2.89,1.41,4.34,2.06l3.27-7.31c-.07-.03-.14-.06-.21-.1h0s-.04-.02-.06-.03h-.02s-.03,0-.04-.02c0,0-.02,0-.03,0,0,0-.02,0-.03,0-.01,0-.03,0-.04-.02h-.02s-.03,0-.05-.02h-.02s-.03-.02-.05-.02h-.01s-.04-.02-.05-.02h0s-.04-.02-.06-.03h0s-.04-.02-.06-.03h0s-.04-.02-.06-.03h0c-.93-.42-1.85-.86-2.76-1.31h0s-.04-.02-.06-.03h0s-.04-.02-.06-.03h0s-.04-.02-.05-.03h-.01s-.03-.02-.05-.02c0,0-.01,0-.02,0-.01,0-.03,0-.04-.02,0,0-.02,0-.03,0h-.02l-.05-.03h0s-.02,0-.03-.02h0l-.03-.06Zm6.47,2.96l-3.07,7.4c1.47.61,2.98,1.2,4.48,1.74l2.74-7.53c-.75-.27-1.5-.55-2.24-.84h0s-.04-.02-.07-.03h0s-.04-.02-.07-.03h0s-.07-.03-.11-.04h0s-.04-.02-.07-.03h0s-.04-.02-.06-.02h0s-.04-.02-.06-.03h0s-.05-.02-.07-.03h0s-.07-.03-.11-.04h0s-.04-.02-.07-.03h0s-.05-.02-.07-.03h0c-.37-.15-.75-.3-1.12-.46h-.03Zm6.67,2.49l-2.54,7.6c1.51.51,3.06.98,4.59,1.42l2.2-7.7c-.57-.16-1.14-.33-1.7-.5h0s-.05-.02-.07-.02h0c-.06-.02-.12-.04-.18-.06h0s-.04,0-.07-.02h0s-.05-.02-.07-.02h0s-.07-.02-.11-.04h0s-.05,0-.07-.02h0s-.04,0-.07-.02h0c-.63-.2-1.25-.4-1.88-.61h-.03Zm6.83,2.01l-1.99,7.76c1.54.4,3.12.76,4.68,1.09l1.65-7.84c-.36-.08-.73-.15-1.09-.23h-.06c-1.06-.24-2.12-.49-3.17-.76h0l-.02-.02Zm6.95,1.52l-1.44,7.88c1.57.29,3.16.54,4.74.76l1.09-7.93c-.87-.12-1.74-.25-2.61-.39h-.17c-.54-.09-1.08-.18-1.61-.28h0v-.04Zm7.04,1.03l-.88,7.96c1.58.17,3.19.32,4.78.42l.53-7.99c-1.11-.07-2.2-.16-3.29-.27h-.2c-.31-.03-.61-.06-.91-.1h0l-.03-.02Zm7.1.53l-.32,8c1.47.06,2.95.09,4.42.09h.37l-.03-8.01h-1.74c-.51,0-1.03-.02-1.54-.03h-.65c-.17,0-.34,0-.51-.02h0v-.03Zm11.56-.19c-1.47.11-2.95.18-4.44.23l.23,8.01c1.59-.05,3.2-.13,4.79-.24l-.58-7.99h0Zm7.08-.77c-.81.12-1.62.22-2.44.32h-.24c-.57.07-1.14.13-1.72.19l.79,7.97c1.59-.16,3.19-.35,4.77-.58l-1.14-7.93h0l-.02.03Zm7-1.26c-.71.15-1.43.3-2.15.44h-.15c-.68.13-1.36.26-2.05.37l1.35,7.89c1.57-.27,3.16-.58,4.72-.92l-1.7-7.83h0l-.02.05Zm6.9-1.76c-1.18.35-2.37.67-3.57.97h0s-.1.03-.15.04h-.15c-.13.03-.27.07-.4.1l1.91,7.78c1.55-.38,3.11-.8,4.64-1.25l-2.25-7.69h0l-.03.05Zm6.76-2.24s-.08.03-.13.05h0s-.04,0-.06.02h0s-.04,0-.05.02h0s-.03,0-.05.02h0s-.03,0-.05.02h-.02s-.03,0-.04.02h-.02s-.03,0-.05.02h-.02s-.03,0-.04.02h-.02s-.02,0-.03,0c0,0-.02,0-.04,0h-.03s-.03,0-.04,0h-.03s-.03,0-.04,0h-.03s-.02,0-.03,0c0,0-.02,0-.03,0,0,0-.03,0-.04,0h-.02s-.03,0-.05.02h-.02s-.03,0-.05.02h-.02s-.04,0-.05.02h-.02s-.02,0-.03,0h0s-.04,0-.05.02h-.02s-.04,0-.05.02h-.02s-.03,0-.05.02h-.02s-.03,0-.05.02h-.02s-.02,0-.03,0h-.02s-.03,0-.05.02h-.03s-.03,0-.04,0h-.02s-.03,0-.04,0h-.06s-.03,0-.04,0h-.03s-.03,0-.04,0h-.02s-.02,0-.03,0c0,0-.02,0-.03,0,0,0-.02,0-.03,0h-.03s-.03,0-.04,0h-.02s-.03,0-.05.02h-.02s-.03,0-.05.02h-.02s-.03,0-.05.02h0s-.03,0-.05.02h0s-.04,0-.05.02h0s-.04.02-.06.02h0s-.04,0-.06.02h0s-.04,0-.06.02h0s-.09.03-.13.04h0s-.04,0-.06.02h0c-.46.16-.92.31-1.39.46l2.45,7.62c1.52-.49,3.04-1.02,4.54-1.57l-2.79-7.51h0l-.04.26Zm6.58-2.72c-.17.08-.34.15-.5.23h0s-.04.02-.06.03h0s-.04.02-.06.03h0s-.08.04-.12.06h0s-.04.02-.06.03h0s-.04.02-.06.02h0s-.03.02-.05.02h0s-.04.02-.05.02h0s-.03,0-.05.02h0s-.03.02-.05.02h0s-.03,0-.05.02h-.02s-.03.02-.05.02h-.02s-.03,0-.05.02h0s-.03,0-.04.02h-.02s-.03,0-.04.02h-.02s-.03,0-.04.02c0,0-.02,0-.02,0,0,0-.03,0-.04.02,0,0-.02,0-.03,0,0,0-.02,0-.03,0,0,0-.02,0-.04.02,0,0-.02,0-.03,0,0,0-.03,0-.04.02,0,0,0,0-.02,0-.02,0-.03,0-.05.02h-.02s-.02,0-.03,0c0,0-.02,0-.04.02h-.03s0,.02-.02.02c-.02,0-.04.02-.05.02h0s-.04.02-.06.03h0s-.04.02-.06.03h0c-.06.03-.12.05-.18.08h0s-.05.02-.07.03h0c-.56.24-1.13.47-1.7.7l2.99,7.43c1.48-.59,2.96-1.23,4.42-1.89l-3.32-7.29h0l-.06.08Zm6.37-3.17c-.57.31-1.14.61-1.72.91h0s-.04.02-.06.03h0s-.03.02-.05.03h0s-.03.02-.05.03h0s-.03.02-.05.02h-.02s-.03,0-.04.02c0,0-.02,0-.02,0,0,0-.02,0-.03.02,0,0-.02,0-.03,0,0,0-.02,0-.03.02,0,0-.02,0-.02,0,0,0-.03,0-.04.02,0,0-.02,0-.03,0,0,0-.02,0-.03.02,0,0-.02,0-.03.02h-.02s-.03.02-.05.02h0l-.05.03h0c-.41.21-.81.41-1.22.61h-.02s-.03.02-.05.02c0,0,0,0-.02,0,0,0-.02,0-.04.02,0,0-.02,0-.03.02,0,0,0,0-.02,0,0,0-.03,0-.04.02h-.02s-.03,0-.05.02h0l3.51,7.2c1.43-.7,2.87-1.44,4.27-2.2l-3.82-7.04h0l-.05.08Zm6.13-3.62c-.98.62-1.96,1.23-2.96,1.82h0s-.03.02-.05.03h0s-.03.02-.05.03h-.02s-.02,0-.04.02c0,0-.02,0-.03.02,0,0-.02,0-.03.02-.02,0-.03.02-.05.03h0c-.19.11-.37.22-.56.33l4.01,6.93c1.38-.8,2.76-1.64,4.1-2.49l-4.31-6.75h0Zm5.86-4.04c-.64.48-1.29.95-1.94,1.41h0c-.07.05-.14.1-.21.15h0s-.03.02-.05.04h0s-.03.02-.05.04h0s-.03.02-.05.03h0s-.03.02-.04.03c0,0-.02,0-.02.02,0,0-.02,0-.03.02,0,0-.02,0-.03.02,0,0-.02,0-.03.02,0,0-.02,0-.02.02l-.03.02s-.02,0-.03.02c0,0-.02,0-.03.02,0,0-.02,0-.03.02,0,0,0,0-.02,0,0,0-.03.02-.04.03,0,0,0,0-.02,0,0,0-.03.02-.04.03h0s-.03.02-.05.03h0s-.03.02-.05.03h0c-.25.17-.49.34-.74.51l4.49,6.63c1.32-.89,2.64-1.83,3.92-2.78l-4.77-6.43h0l-.05.05Zm5.56-4.44c-.41.35-.83.7-1.24,1.05h0l-.05.05h0s-.03.03-.05.04h0s-.03.02-.04.03c0,0,0,0-.02,0,0,0-.02,0-.02.02,0,0-.02.02-.03.02,0,0-.02,0-.03.02l-.02.02s-.02.02-.03.03c0,0-.02,0-.02.02,0,0-.02.02-.03.02,0,0-.02,0-.03.02,0,0-.02,0-.02.02l-.03.03-.02.02s-.03.02-.04.03c0,0,0,0-.02,0,0,0-.02.02-.04.03h0s-.03.03-.04.04h0s-.03.02-.04.03h0s-.03.02-.04.03h0s-.03.02-.04.04h0s-.03.02-.05.04h0s-.03.03-.05.04h0s-.03.02-.05.04h0s-.07.06-.1.08h0s-.03.03-.05.04h0s-.03.03-.05.04h0s-.04.03-.05.04h0c-.32.26-.65.52-.98.78l4.94,6.3c1.25-.98,2.5-2.01,3.71-3.04l-5.21-6.08h0l-.08.09Zm5.24-4.82l-.21.21h0s-.02.03-.04.04c0,0-.02,0-.02.02,0,0-.02.02-.03.02l-.03.03h0s-.03.03-.04.05h0s-.03.04-.04.05h0l-.04.04h0c-.9.88-1.81,1.73-2.74,2.57l5.37,5.94c1.18-1.07,2.36-2.18,3.49-3.3l-5.62-5.7h0l-.02.03Zm4.89-5.17c-.21.24-.43.49-.64.72h0s-.03.03-.04.05h0l-.04.04h0s-.02.04-.04.05h0s-.02.04-.03.05c0,0,0,0,0,.02l-.03.03-.02.02-.03.03-.02.02-.03.03-.02.02-.03.03-.02.02-.03.03-.02.02-.02.02s-.02.02-.03.03l-.02.02-.03.03-.02.02-.03.03-.02.02s0,.02-.02.02c0,0-.02.02-.02.03l-.03.03s0,0,0,.02c0,0-.02.02-.03.04,0,0,0,0-.02.02,0,0-.02.02-.03.04l-.02.02-.03.03-.02.02s-.02.02-.03.03l-.02.02s0,.02-.02.02l-.03.03-.02.02-.03.03-.02.02s-.02.02-.02.03c0,0-.02.02-.02.03,0,0-.02.02-.02.03l-.02.02-.03.03s0,0,0,.02c0,0-.02.03-.04.04h0s-.02.03-.04.05h0s-.03.04-.04.05h0l-.04.04h0s-.03.03-.04.05h0l-.05.05h0l-.05.05h0c-.3.32-.6.64-.91.96l5.77,5.55c1.1-1.15,2.2-2.34,3.25-3.53l-6.01-5.29h0l-.02.03Zm4.51-5.5c-.08.1-.15.2-.23.29h0s-.03.03-.04.05h0s-.02.04-.03.05c0,0,0,0,0,.02,0,0-.02.03-.03.04,0,0,0,0,0,.02,0,0,0,.02-.02.03,0,0-.02.02-.03.03,0,0,0,.02-.02.02,0,0-.02.02-.03.03l-.02.02s-.02.02-.03.03l-.02.02s-.02.02-.02.03c0,0,0,.02-.02.02,0,0-.02.02-.02.03,0,0,0,0,0,.02,0,0-.02.03-.03.04,0,0,0,0,0,.02,0,0-.02.03-.03.04,0,0,0,0,0,.02,0,.02-.02.03-.03.04h0s-.02.04-.03.05h0s-.02.04-.03.05h0s-.02.04-.03.05h0s-.02.04-.04.06h0s-.02.03-.04.04h0s-.02.04-.03.05h0s-.02.04-.04.05h0s-.02.03-.04.05h0s-.02.03-.04.05h0s-.02.03-.04.05h0s-.02.04-.04.05h0s-.02.04-.04.05h0s-.02.03-.04.05h0s-.03.03-.04.04h0s-.02.03-.03.04h0s-.02.04-.04.05h0s-.02.04-.04.05h0s-.02.04-.03.05h0s-.02.04-.04.05h0s-.02.03-.04.04h0s-.02.03-.04.04h0s-.02.03-.04.05h0s-.02.04-.03.05h0s-.02.04-.03.05h0s-.02.04-.04.05h0s-.02.03-.04.04h0s-.02.03-.03.04h0s-.02.04-.04.05h0s-.02.04-.03.05h0s-.02.04-.04.05h0s-.02.04-.04.05h0s-.02.04-.03.05h0s-.02.03-.03.04h0s-.02.04-.04.05h0s-.02.04-.03.05h0s-.02.04-.03.05h0s-.02.04-.04.05h0s-.02.04-.03.05h0s-.02.04-.03.05h0s-.02.04-.04.05h0s-.02.04-.04.05h0s-.02.04-.04.05h0s-.02.04-.04.05h0s-.02.03-.04.04h0s-.02.03-.04.04h0s-.03.03-.04.05h0s-.02.03-.04.04h0l6.15,5.13c1.02-1.22,2.03-2.48,3-3.75l-6.37-4.86h0l-.3.32Zm4.12-5.81s-.06.09-.09.13h0s-.02.04-.03.06c0,0,0,0,0,.02,0,0-.02.03-.03.04l-.02.02s0,.02-.02.03c0,0,0,.02-.02.04,0,0,0,0,0,.02,0,0-.02.03-.03.04,0,0,0,0,0,.02,0,0-.02.03-.03.04,0,0,0,0,0,.02,0,.02-.02.03-.03.05h0s-.02.03-.03.05h0s-.02.04-.03.05h0s-.02.03-.03.05h0s-.02.04-.03.05h0s-.02.04-.04.05h0c-.65.96-1.31,1.91-1.99,2.85l6.49,4.69c.93-1.29,1.85-2.62,2.73-3.95l-6.69-4.4h0l-.04.03Zm3.7-6.08c-.12.22-.25.44-.38.66h0s-.02.03-.03.05h0s-.02.04-.03.06h0s-.02.04-.03.06h0s-.02.04-.02.05c0,0,0,0,0,.02,0,0,0,.02-.02.04,0,0,0,.02,0,.02,0,0,0,.02-.02.03,0,0,0,.02,0,.02,0,0,0,.02-.02.04,0,0,0,.02-.02.03,0,0,0,.02-.02.03,0,0,0,.02-.02.04h0s-.02.04-.03.06h0s-.02.04-.04.06h0c-.49.85-1,1.7-1.52,2.53l6.81,4.22c.84-1.35,1.66-2.75,2.44-4.14l-6.99-3.92h0l-.03.04Zm3.26-6.33c-.63,1.34-1.3,2.67-1.99,3.98l7.09,3.73c.74-1.41,1.46-2.86,2.14-4.3l-7.24-3.41h0Zm2.8-6.54c-.54,1.38-1.1,2.76-1.7,4.11l7.33,3.22c.64-1.46,1.26-2.95,1.83-4.44l-7.47-2.89h0Zm2.33-6.72c-.2.65-.41,1.31-.62,1.95h0s-.02.05-.02.07h0s-.02.05-.02.08h0s-.02.07-.03.11v.02s0,.03-.02.05v.02s0,.03,0,.04c0,0,0,.02,0,.03v.03s0,.03,0,.04v.02s0,.03-.02.05v.02s0,.03-.02.05v.02s0,.03-.02.05h0s0,.05-.02.06h0s0,.05-.02.06h0s0,.05-.02.06h0s0,.05-.02.07h0s0,.04-.02.06h0s0,.04-.02.06h0s0,.05-.02.07h0s0,.04-.02.06h0s-.03.08-.04.12h0s0,.04-.02.06h0s0,.04-.02.06h0s0,.04-.02.06h0s0,.04-.02.06h0s0,.04-.02.06h0s0,.04-.02.06h0s0,.04-.02.06h0s0,.05-.02.06h0s0,.04-.02.06v.02s0,.03-.02.04v.02s0,.03-.02.05v.02s0,.03-.02.04v.03s0,.02,0,.03c0,0,0,.03,0,.04v.04l7.54,2.69c.54-1.5,1.05-3.04,1.51-4.56l-7.65-2.36h0l-.14.09Zm1.85-6.87c-.05.2-.09.39-.14.59h0v.04h0v.04h0v.03h0v.03h0v.03s0,.03,0,.05h0s0,.05-.02.07h0v.03h0v.03h0c-.09.38-.19.76-.28,1.15h0v.03h0v.03h0v.03h0v.03h0v.03h0s0,.04,0,.06h0v.08h0v.04h0v.03h0v.04h0c-.15.6-.31,1.2-.48,1.79l7.71,2.15c.43-1.54.83-3.1,1.19-4.66l-7.8-1.81h0l-.16.04Zm1.36-6.99c-.09.57-.19,1.15-.29,1.72q-.07.38,0,0c.1-.57,0,.02,0,.03h0v.13h0v.04h0s0,.08-.02.12h0c-.13.71-.26,1.42-.4,2.13h0s-.02.08-.02.11v.07h0v.03h0l7.85,1.6c.32-1.56.61-3.15.85-4.73l-7.91-1.25h-.06Zm.86-7.06c-.03.4-.07.81-.11,1.21h0v.03h0v.04h0v.11h0v.08h0v.03h0v.03h0v.04h0c-.1.95-.21,1.9-.33,2.84l7.94,1.04c.21-1.58.38-3.18.52-4.77l-7.98-.69h-.04Zm.37-7.11c0,.35,0,.7-.02,1.04h0v.03h0v.15h0v.03h0v.03h0v.03h0c0,.51-.03,1-.06,1.5h0v.12h0v.04h0v.03h0v.04h0v.03h0v.19h0v.03h0c-.02.38-.04.74-.06,1.11l7.99.48c.1-1.59.16-3.2.18-4.79l-8.01-.13h0l-.02.04Zm7.87-7.54l-8,.42c.02.42.04.84.06,1.26h0v.04h0v.04h0v.09h0v.03h0v.04h0v.03h0c.03.77.05,1.54.06,2.32h0v.14h0v.08h0v.34l8.01-.07c0-1.59-.06-3.21-.15-4.79h0l.02.03Zm-.67-7.65l-7.95.98c.18,1.47.33,2.94.45,4.43l7.98-.63c-.13-1.59-.29-3.2-.48-4.78h0Zm-1.21-7.59l-7.86,1.54c.11.55.21,1.1.31,1.65h0v.04h0v.04h0s0,.08.02.12h0v.04h0v.03h0v.17h0v.06h0v.02h0v.03h0v.04h0v.03h0v.03h0c0,.05.02.09.02.13h0v.03h0v.03h0v.03h0c0,.08.03.16.04.24h0v.03h0c0,.07.02.14.03.2h0v.03h0v.03h0v.03h0v.03h0v.04h0v.07h0v.11h0v.04h0v.03h0c.05.3.09.6.14.9l7.92-1.19c-.24-1.58-.51-3.17-.82-4.73h0l.2.08Zm-1.74-7.49l-7.73,2.09c.16.59.32,1.19.47,1.79h0v.03s0,.01,0,.01v.02h0v.04h0v.11s0,.05.02.08h0v.03h0v.03h0v.04h0v.03h0c.17.7.34,1.4.49,2.1l7.82-1.75c-.35-1.56-.74-3.13-1.15-4.66h.07Zm-2.27-7.34l-7.56,2.64c.49,1.4.94,2.81,1.37,4.23l7.67-2.3c-.46-1.53-.96-3.07-1.48-4.57h0Zm-2.79-7.16l-7.36,3.17c.18.42.36.85.54,1.28h0s.02.04.02.06h0s.02.04.02.06h0s0,.05.02.06h0s0,.04.02.05c0,0,0,.02,0,.03,0,.01,0,.03.02.04v.02s0,.03.02.04c0,0,0,.02,0,.03,0,.01,0,.03.02.04,0,0,0,.02,0,.03v.02s0,.04.02.05h0s.02.05.03.07h0c.3.74.59,1.48.87,2.23l7.49-2.84c-.56-1.49-1.17-2.99-1.8-4.45h.04Zm-3.29-6.95l-7.11,3.68h0s.02.03.02.04v.02s.03.03.03.04c0,0,0,.02,0,.02,0,0,0,.02.02.04,0,0,0,.02.02.03,0,0,0,.02,0,.03,0,0,0,.03.02.04,0,0,0,0,0,.02,0,0,0,.03.02.04,0,0,0,.02,0,.02,0,.02.02.04.03.05h0s0,.02.02.03h0s.02.05.03.07h0s.02.05.03.07h0c.44.87.87,1.73,1.28,2.61h0s.02.04.02.06c0,0,0,.01,0,.02,0,.01,0,.03.02.04,0,.01,0,.02,0,.03,0,0,0,.02,0,.03,0,.01,0,.03.02.04v.02s.02.03.03.05v.02s.02.03.02.05h0c.07.14.14.29.2.44l7.27-3.36c-.67-1.45-1.38-2.9-2.11-4.31h0l.05.02Zm-3.77-6.7l-6.84,4.17c.23.38.45.75.68,1.13h0s.02.03.03.05h0s.02.03.03.05h0s.03.06.03.06h0s.02.04.02.05c0,0,0,0,0,.02,0,0,0,.02.02.03,0,0,0,.02.02.03,0,0,0,.02.02.03,0,0,0,0,0,.02,0,0,0,.02.02.04,0,0,0,.02,0,.03,0,0,0,.03.02.04,0,0,0,.02.02.03,0,0,0,0,0,.02,0,0,.02.03.03.04v.02s.02.03.03.05h0s.02.05.03.07h0s.06.11.09.16h0c.36.62.7,1.23,1.05,1.86l7.01-3.87c-.77-1.4-1.58-2.79-2.41-4.15h0l.06.02Zm-4.23-6.41l-6.53,4.64c.86,1.21,1.69,2.44,2.5,3.68l6.72-4.35c-.87-1.34-1.77-2.67-2.7-3.97h0Zm-4.67-6.1l-6.18,5.09c.43.52.86,1.05,1.28,1.59h0s.03.03.04.05h0s.03.03.04.05h0s.02.04.03.05v.02s.03.03.04.04h0s0,.03.02.04c0,0,0,0,0,.02s.02.03.03.04v.02s.03.03.04.04c0,0,0,0,0,.02,0,0,.02.02.03.04,0,0,0,0,0,.02l.03.04s0,0,0,.02c0,0,0,.02.02.03,0,0,.02.02.02.03,0,0,0,.02.02.03,0,0,0,.02.02.02,0,0,.02.02.03.03,0,0,0,0,.02.02,0,0,.02.02.03.04,0,0,0,0,0,.02,0,0,.02.03.03.04h0s.02.04.03.06h0s.03.05.04.06h0s.05.06.07.09h0s.03.04.04.06h0s.03.04.04.06h0c.2.27.41.53.61.8l6.4-4.81c-.96-1.27-1.96-2.54-2.97-3.77h.08Zm-5.08-5.76l-5.81,5.51c.08.08.16.17.24.25h0s.03.03.04.05h0s.03.03.04.04h0s.02.02.03.04c0,0,0,0,.02.02,0,0,.02.02.03.03,0,0,0,0,.02.02,0,0,.02.02.03.03,0,0,0,.02.02.02,0,0,0,0,.02.02,0,0,.02.03.04.04h0s.03.04.05.06h0c.81.87,1.61,1.76,2.4,2.67l6.05-5.25c-1.04-1.2-2.13-2.4-3.22-3.56h0Zm-5.47-5.39l-5.41,5.9c1.09,1,2.16,2.03,3.21,3.08l5.67-5.66c-1.13-1.13-2.29-2.24-3.47-3.32h0Zm-5.84-4.99l-4.99,6.27c.82.65,1.62,1.31,2.42,1.98h0s.03.03.05.04h0s.03.03.04.04h0s.03.02.04.04h0s.03.03.04.04h0s.02.03.03.04c0,0,0,0,.02.02,0,0,.02.02.03.03,0,0,0,0,.02,0,0,0,.02.02.04.03,0,0,0,0,.02.02,0,0,.02.02.04.03,0,0,0,0,.02.02,0,0,.02.02.03.03,0,0,0,0,.02.02,0,0,.02,0,.03.02,0,0,.02.02.03.03,0,0,0,0,.02.02,0,0,.02.02.03.03,0,0,0,0,.02.02,0,0,.02.02.03.03,0,0,.02,0,.02.02l.02.02s.02.02.03.03c0,0,0,0,.02.02,0,0,.02.02.03.03,0,0,0,0,.02.02,0,0,.02.02.03.03,0,0,0,0,.02.02,0,0,.02.02.03.03,0,0,.02,0,.02.02,0,0,.02.02.03.02,0,0,0,0,.02.02,0,0,.02.02.04.03h0l5.26-6.04c-1.2-1.05-2.44-2.08-3.69-3.07h.04Zm-6.17-4.57l-4.53,6.6c.59.41,1.18.82,1.76,1.24h0s.04.03.06.04h0s.07.05.11.08h0s.04.03.05.04h0s.03.02.05.03h0s.03.02.04.03h0s.03.02.04.03c0,0,0,0,0,.01,0,0,.03.02.04.03,0,0,0,0,.02.01,0,0,.02.02.03.02,0,0,.02.01.03.02,0,0,.02.01.03.02,0,0,0,0,.02.01,0,0,.02.02.04.03,0,0,.02.01.02.02,0,0,.02.02.03.02,0,0,.02.01.03.02,0,0,0,0,.02.01,0,.01.03.02.04.03h0s.03.02.05.04h0c.34.25.69.51,1.03.76l4.82-6.4c-1.27-.96-2.58-1.9-3.9-2.8h0l.03.06Zm-6.48-4.12l-4.06,6.9h0s.03.02.05.03h0s.04.02.05.03h0c.76.45,1.51.9,2.25,1.37h0s.04.02.06.03h0s.04.02.06.04h0s.08.05.11.07h0s.04.02.05.03h0s.03.02.05.03h0s.04.02.05.03h0s.04.02.05.03h0s.07.05.11.07h0s.04.02.05.03h0s.03.02.05.03h0s.04.02.05.03h0c.21.14.43.27.64.41l4.36-6.72c-1.34-.87-2.71-1.72-4.08-2.52h0l.09.08Zm-6.76-3.66l-3.56,7.17h0s.03.02.04.03c0,0,0,0,.02.01,0,0,.03.01.04.02,0,0,.02,0,.02.01,0,0,.03.01.04.02,0,0,.02,0,.03.01h.02s.03.02.05.02h0s.04.02.06.03h0s.04.03.06.04h0c1.19.6,2.37,1.22,3.53,1.86l3.87-7.01c-1.4-.77-2.83-1.52-4.25-2.23h0v.02Zm-7-3.17l-3.04,7.41c.55.23,1.1.46,1.65.69h0s.02.01.03.02h0s.04.02.06.03h.02s.03.01.04.02c0,0,.02,0,.03.01,0,0,.02,0,.03.01,0,0,.02.01.04.02h.02s.03.01.05.02h.02s.03.01.05.02h0s.03.02.05.02h0c.66.29,1.31.58,1.96.88l3.37-7.27c-1.45-.67-2.93-1.32-4.4-1.92h0v.04Zm-7.21-2.67l-2.51,7.6c.54.18,1.07.36,1.61.55h0s.04.02.06.02h.02s.03.01.05.02h.02s.02,0,.03.01c0,0,.03.01.04.01h.02s.03.01.04.02h.02s.03,0,.04.01h.02s.03.01.05.02h0s.04.01.05.02h0s.04.01.06.02h0c.67.24,1.35.49,2.02.74l2.85-7.49c-1.49-.57-3.01-1.11-4.53-1.61h0l.02.06Zm-7.38-2.15l-1.97,7.76h.03s.04.01.06.02h.04s.03,0,.04.01h.16s.03,0,.05.01h.02s.04,0,.05.01h.02s.04,0,.05.01h0s.04.01.06.02h0s.04.01.06.02h0s.04.01.06.02h0s.05.01.06.02h0c.78.21,1.57.42,2.34.64h0s.04.01.06.02h0s.04.01.06.02h0s.04.01.06.02h0s.03,0,.05.01h.02s.03,0,.04.01h.02s.03,0,.04.01h.03s.03,0,.04.01h.05s.04.01.06.02h0c.19.06.37.11.56.17l2.31-7.67c-1.53-.46-3.08-.89-4.63-1.28h0l.07.12Zm-7.51-1.62l-1.41,7.88h.16s.04,0,.06.01h.15c.08.01.16.03.24.04h.03c.08.02.16.03.24.04h.06c.05.01.11.02.17.03h.39c.94.18,1.87.38,2.8.59l1.76-7.81c-1.55-.35-3.14-.67-4.71-.95h0l.06.17Zm-7.61-1.09l-.85,7.96c.36.04.71.08,1.07.12h.28c.79.1,1.58.2,2.36.31h.12c.18.03.36.05.55.08l1.2-7.92c-1.57-.24-3.18-.45-4.76-.62h0l.03.07Zm-7.66-.55l-.29,8c.39.01.79.03,1.18.05h.31c.66.03,1.31.07,1.97.12h.31c.22.02.44.03.65.05l.64-7.98c-1.59-.13-3.2-.22-4.79-.28h0l.02.04Zm-4.05-.07v8.01h1.09l.06-7.95h-1.18l.03-.06Z" style="fill: #4bd996; stroke-width: 0px;"/>
          <circle cx="108.99" cy="109.07" r="101" style="fill: none; stroke: #fff; stroke-miterlimit: 10; stroke-width: 12.46px;"/>
          <circle cx="108.99" cy="109.07" r="101" style="fill: #41d992; isolation: isolate; opacity: .39; stroke-width: 0px;"/>
        </g>
        <g style="clip-path: url(#clippath);">
          <g>
            <g>
              <path d="m165.81,88.02s-3.81,0-9.74.01c-11.99.01-32.66.03-48.19.03-11.49,0-20.17-.01-20.46-.04,0,0,15.63-1.71,23.71-11.59,8.09-9.88,15.59-16.38,28.53-2.85,13.8,14.43,26.13,14.44,26.17,14.44h-.02Z" style="fill: #a6bc48; stroke-width: 0px;"/>
              <path d="m156.07,88.03c-11.99.01-32.66.03-48.19.03,2.96-1.63,5.84-3.77,8.12-6.55,8.08-9.88,15.59-16.38,28.52-2.85,4.07,4.26,8.01,7.26,11.55,9.37Z" style="fill: #bdd867; stroke-width: 0px;"/>
            </g>
            <g>
              <path d="m106.56,104.21H42.52s.76-29.26,15.2-29.45c5.36-.07,7.71,2.74,9.13,6.28,2.1,5.24,2.16,12.09,6.93,13.57.68.22,1.47.32,2.38.29,11.4-.38,1.14-31.73,15.77-32.68,3.73-.25,6.51,2.37,8.58,6.39,6.05,11.77,6.05,35.6,6.05,35.6Z" style="fill: #00776e; stroke-width: 0px;"/>
              <path d="m106.56,104.21h-59.14c1-8.45,4.27-23.95,14.76-24.1,1.9-.02,3.43.31,4.67.92,2.1,5.24,2.16,12.09,6.93,13.57,1.12,3.28,2.8,5.78,6.83,5.65,11.4-.38,1.14-31.73,15.77-32.69,1.53-.1,2.9.28,4.12,1.04,6.05,11.77,6.05,35.6,6.05,35.6h0Z" style="fill: #018f89; stroke-width: 0px;"/>
            </g>
            <g>
              <path d="m243.85,120.86c0,.83-.03,1.64-.07,2.45h-39.38c-.04-.81-.07-1.62-.07-2.45,0-16.76,8.85-30.34,19.76-30.34,4.42,0,8.49,2.22,11.78,5.99,4.85,5.53,7.98,14.38,7.98,24.36h0Z" style="fill: #217f2a; stroke-width: 0px;"/>
              <path d="m243.85,120.86c0,.83-.03,1.64-.07,2.45h-30.78c1.03-15.28,9.43-27.2,19.66-27.2,1.09,0,2.17.14,3.21.4,4.85,5.53,7.98,14.38,7.98,24.36h0Z" style="fill: #329a3f; stroke-width: 0px;"/>
              <path d="m177.47,123.31h-45.84c1.68-14.59,11.3-25.78,22.92-25.78,5.73,0,10.98,2.72,15.02,7.24,4.16,4.63,7.05,11.14,7.9,18.54Z" style="fill: #217f2a; stroke-width: 0px;"/>
              <path d="m177.47,123.31h-37.36c3.18-11.78,11.77-20.21,21.86-20.21,2.66,0,5.22.59,7.6,1.68,4.16,4.63,7.05,11.14,7.9,18.54h0Z" style="fill: #329a3f; stroke-width: 0px;"/>
              <path d="m209.84,111.31c0,4.2-.36,8.23-1.01,12h-37.49c-.66-3.77-1.01-7.8-1.01-12,0-20.94,8.85-37.91,19.76-37.91,4.8,0,9.2,3.28,12.63,8.74,4.36,6.95,7.14,17.44,7.14,29.16h-.02Z" style="fill: #217f2a; stroke-width: 0px;"/>
              <path d="m209.84,111.31c0,4.2-.36,8.23-1.01,12h-31.36c-.1-1.58-.16-3.19-.16-4.82,0-20.94,8.85-37.91,19.76-37.91,1.96,0,3.85.55,5.64,1.57,4.36,6.95,7.14,17.44,7.14,29.16h0Z" style="fill: #329a3f; stroke-width: 0px;"/>
            </g>
            <g>
              <rect x="186.89" y="53.03" width="40.55" height="64.98" style="fill: #fff; stroke-width: 0px;"/>
              <g>
                <rect x="188.6" y="53.03" width="40.55" height="64.98" style="fill: #7dd0b2; stroke-width: 0px;"/>
                <g>
                  <g>
                    <rect x="194.28" y="58.25" width="3.28" height="2.46" style="fill: #018f89; stroke-width: 0px;"/>
                    <rect x="194.28" y="64.88" width="3.28" height="2.46" style="fill: #fff; stroke-width: 0px;"/>
                    <rect x="194.28" y="71.5" width="3.28" height="2.46" style="fill: #018f89; stroke-width: 0px;"/>
                    <rect x="194.28" y="78.13" width="3.28" height="2.46" style="fill: #018f89; stroke-width: 0px;"/>
                    <rect x="194.28" y="84.76" width="3.28" height="2.46" style="fill: #018f89; stroke-width: 0px;"/>
                    <rect x="194.28" y="91.39" width="3.28" height="2.46" style="fill: #fff; stroke-width: 0px;"/>
                    <rect x="194.28" y="98.01" width="3.28" height="2.46" style="fill: #018f89; stroke-width: 0px;"/>
                    <rect x="194.28" y="104.64" width="3.28" height="2.46" style="fill: #018f89; stroke-width: 0px;"/>
                    <rect x="194.28" y="111.27" width="3.28" height="2.46" style="fill: #018f89; stroke-width: 0px;"/>
                  </g>
                  <g>
                    <rect x="202.91" y="58.25" width="3.28" height="2.46" style="fill: #fff; stroke-width: 0px;"/>
                    <rect x="202.91" y="64.88" width="3.28" height="2.46" style="fill: #018f89; stroke-width: 0px;"/>
                    <rect x="202.91" y="71.5" width="3.28" height="2.46" style="fill: #fff; stroke-width: 0px;"/>
                    <rect x="202.91" y="78.13" width="3.28" height="2.46" style="fill: #018f89; stroke-width: 0px;"/>
                    <rect x="202.91" y="84.76" width="3.28" height="2.46" style="fill: #018f89; stroke-width: 0px;"/>
                    <rect x="202.91" y="91.39" width="3.28" height="2.46" style="fill: #018f89; stroke-width: 0px;"/>
                    <rect x="202.91" y="98.01" width="3.28" height="2.46" style="fill: #fff; stroke-width: 0px;"/>
                    <rect x="202.91" y="104.64" width="3.28" height="2.46" style="fill: #018f89; stroke-width: 0px;"/>
                    <rect x="202.91" y="111.27" width="3.28" height="2.46" style="fill: #018f89; stroke-width: 0px;"/>
                  </g>
                  <g>
                    <rect x="211.55" y="58.25" width="3.28" height="2.46" style="fill: #018f89; stroke-width: 0px;"/>
                    <rect x="211.55" y="64.88" width="3.28" height="2.46" style="fill: #fff; stroke-width: 0px;"/>
                    <rect x="211.55" y="71.5" width="3.28" height="2.46" style="fill: #018f89; stroke-width: 0px;"/>
                    <rect x="211.55" y="78.13" width="3.28" height="2.46" style="fill: #018f89; stroke-width: 0px;"/>
                    <rect x="211.55" y="84.76" width="3.28" height="2.46" style="fill: #018f89; stroke-width: 0px;"/>
                    <rect x="211.55" y="91.39" width="3.28" height="2.46" style="fill: #018f89; stroke-width: 0px;"/>
                    <rect x="211.55" y="98.01" width="3.28" height="2.46" style="fill: #018f89; stroke-width: 0px;"/>
                    <rect x="211.55" y="104.64" width="3.28" height="2.46" style="fill: #018f89; stroke-width: 0px;"/>
                    <rect x="211.55" y="111.27" width="3.28" height="2.46" style="fill: #018f89; stroke-width: 0px;"/>
                  </g>
                </g>
              </g>
            </g>
            <g>
              <polygon points="101.43 31.07 73.69 31.07 62.28 49.29 62.28 112.75 112.83 112.75 112.83 49.29 101.43 31.07" style="fill: #fff; stroke-width: 0px;"/>
              <g>
                <g>
                  <rect x="63.99" y="49.29" width="50.54" height="63.47" style="fill: #b2f5fb; stroke-width: 0px;"/>
                  <polygon points="103.14 31.07 75.4 31.07 63.99 49.29 114.54 49.29 103.14 31.07" style="fill: #bc9c75; stroke-width: 0px;"/>
                </g>
                <g>
                  <g>
                    <rect x="69.24" y="56.86" width="2.32" height="6.86" style="fill: #fff; stroke-width: 0px;"/>
                    <rect x="75.4" y="56.86" width="2.32" height="6.86" style="fill: #7dd0b2; stroke-width: 0px;"/>
                    <rect x="81.56" y="56.86" width="2.32" height="6.86" style="fill: #7dd0b2; stroke-width: 0px;"/>
                    <rect x="87.73" y="56.86" width="2.32" height="6.86" style="fill: #fff; stroke-width: 0px;"/>
                    <rect x="93.89" y="56.86" width="2.32" height="6.86" style="fill: #7dd0b2; stroke-width: 0px;"/>
                    <rect x="100.05" y="56.86" width="2.32" height="6.86" style="fill: #fff; stroke-width: 0px;"/>
                    <rect x="106.21" y="56.86" width="2.32" height="6.86" style="fill: #7dd0b2; stroke-width: 0px;"/>
                  </g>
                  <g>
                    <rect x="69.24" y="67.79" width="2.32" height="6.86" style="fill: #7dd0b2; stroke-width: 0px;"/>
                    <rect x="75.4" y="67.79" width="2.32" height="6.86" style="fill: #fff; stroke-width: 0px;"/>
                    <rect x="81.56" y="67.79" width="2.32" height="6.86" style="fill: #7dd0b2; stroke-width: 0px;"/>
                    <rect x="87.73" y="67.79" width="2.32" height="6.86" style="fill: #7dd0b2; stroke-width: 0px;"/>
                    <rect x="93.89" y="67.79" width="2.32" height="6.86" style="fill: #7dd0b2; stroke-width: 0px;"/>
                    <rect x="100.05" y="67.79" width="2.32" height="6.86" style="fill: #7dd0b2; stroke-width: 0px;"/>
                    <rect x="106.21" y="67.79" width="2.32" height="6.86" style="fill: #fff; stroke-width: 0px;"/>
                  </g>
                  <g>
                    <rect x="69.24" y="78.72" width="2.32" height="6.86" style="fill: #7dd0b2; stroke-width: 0px;"/>
                    <rect x="75.4" y="78.72" width="2.32" height="6.86" style="fill: #7dd0b2; stroke-width: 0px;"/>
                    <rect x="81.56" y="78.72" width="2.32" height="6.86" style="fill: #fff; stroke-width: 0px;"/>
                    <rect x="87.73" y="78.72" width="2.32" height="6.86" style="fill: #7dd0b2; stroke-width: 0px;"/>
                    <rect x="93.89" y="78.72" width="2.32" height="6.86" style="fill: #fff; stroke-width: 0px;"/>
                    <rect x="100.05" y="78.72" width="2.32" height="6.86" style="fill: #7dd0b2; stroke-width: 0px;"/>
                    <rect x="106.21" y="78.72" width="2.32" height="6.86" style="fill: #7dd0b2; stroke-width: 0px;"/>
                  </g>
                  <g>
                    <rect x="69.24" y="89.66" width="2.32" height="6.86" style="fill: #7dd0b2; stroke-width: 0px;"/>
                    <rect x="75.4" y="89.66" width="2.32" height="6.86" style="fill: #7dd0b2; stroke-width: 0px;"/>
                    <rect x="81.56" y="89.66" width="2.32" height="6.86" style="fill: #7dd0b2; stroke-width: 0px;"/>
                    <rect x="87.73" y="89.66" width="2.32" height="6.86" style="fill: #7dd0b2; stroke-width: 0px;"/>
                    <rect x="93.89" y="89.66" width="2.32" height="6.86" style="fill: #7dd0b2; stroke-width: 0px;"/>
                    <rect x="100.05" y="89.66" width="2.32" height="6.86" style="fill: #fff; stroke-width: 0px;"/>
                    <rect x="106.21" y="89.66" width="2.32" height="6.86" style="fill: #7dd0b2; stroke-width: 0px;"/>
                  </g>
                  <g>
                    <rect x="69.24" y="100.59" width="2.32" height="6.86" style="fill: #7dd0b2; stroke-width: 0px;"/>
                    <rect x="75.4" y="100.59" width="2.32" height="6.86" style="fill: #7dd0b2; stroke-width: 0px;"/>
                    <rect x="81.56" y="100.59" width="2.32" height="6.86" style="fill: #7dd0b2; stroke-width: 0px;"/>
                    <rect x="87.73" y="100.59" width="2.32" height="6.86" style="fill: #7dd0b2; stroke-width: 0px;"/>
                    <rect x="93.89" y="100.59" width="2.32" height="6.86" style="fill: #7dd0b2; stroke-width: 0px;"/>
                    <rect x="100.05" y="100.59" width="2.32" height="6.86" style="fill: #7dd0b2; stroke-width: 0px;"/>
                    <rect x="106.21" y="100.59" width="2.32" height="6.86" style="fill: #7dd0b2; stroke-width: 0px;"/>
                  </g>
                </g>
              </g>
            </g>
            <g>
              <path d="m247.86,148.69l-15.2.05-189.42.62h-1.74l1.6-21.15s5.56-42.62,28.75-41.7c23.18.92,11.58,21.05,31.16,14.92,19.57-6.13,26.44-16.63,42.31,2.78,15.88,19.42,31.68,11.26,39.15,4.28,7.46-6.99,19.69-13.93,35.05,11.78,15.36,25.7,28.34,28.45,28.34,28.45v-.03Z" style="fill: #a6bc48; stroke-width: 0px;"/>
              <path d="m232.66,148.74l-189.42.62.72-9.48s5.56-42.63,28.75-41.7c23.18.92,11.58,21.05,31.16,14.92,19.57-6.13,26.44-16.63,42.31,2.78,15.88,19.41,31.68,11.26,39.15,4.28,7.46-6.99,19.69-13.93,35.05,11.78,4.37,7.31,8.55,12.76,12.28,16.82v-.02Z" style="fill: #bdd867; stroke-width: 0px;"/>
            </g>
            <g>
              <polygon points="41.81 103.92 35.49 103.92 36.63 73.89 40.67 73.89 41.81 103.92" style="fill: #b2be74; stroke-width: 0px;"/>
              <path d="m50.67,66.21c0,9.93-5.38,15.12-12.02,15.12s-12.02-5.2-12.02-15.12,5.38-20.82,12.02-20.82,12.02,10.9,12.02,20.82Z" style="fill: #329a3f; stroke-width: 0px;"/>
              <g>
                <path d="m38.88,77.16v-14.44c0-.37-.57-.37-.57,0v14.44c0,.37.57.37.57,0h0Z" style="fill: #b2be74; stroke-width: 0px;"/>
                <path d="m38.79,77.36c1.87-2.3,3.66-4.66,5.61-6.89.24-.27-.16-.68-.4-.4-1.95,2.23-3.74,4.59-5.61,6.89-.23.28.17.69.4.4h0Z" style="fill: #b2be74; stroke-width: 0px;"/>
                <path d="m31.56,72.03c2.15,1.93,4.68,3.4,6.83,5.33.27.24.68-.16.4-.4-2.15-1.93-4.68-3.4-6.83-5.33-.27-.24-.68.16-.4.4h0Z" style="fill: #b2be74; stroke-width: 0px;"/>
              </g>
            </g>
            <g>
              <polygon points="68.86 95.19 26.38 95.19 21.29 108.33 24.19 108.33 24.19 144.5 35.48 144.5 43.59 144.5 53.03 144.5 61.13 144.5 71.05 144.5 71.05 108.33 73.95 108.33 68.86 95.19" style="fill: #f6e968; stroke-width: 0px;"/>
              <g>
                <rect x="25.9" y="108.33" width="46.86" height="36.17" style="fill: #b2be74; stroke-width: 0px;"/>
                <polygon points="70.57 95.19 28.09 95.19 23 108.33 75.66 108.33 70.57 95.19" style="fill: #fff; stroke-width: 0px;"/>
                <g>
                  <g>
                    <rect x="29.89" y="112.64" width="3.2" height="3.7" style="fill: #018f89; stroke-width: 0px;"/>
                    <rect x="35.84" y="112.64" width="3.2" height="3.7" style="fill: #fff; stroke-width: 0px;"/>
                    <rect x="41.78" y="112.64" width="3.2" height="3.7" style="fill: #018f89; stroke-width: 0px;"/>
                    <rect x="47.73" y="112.64" width="3.2" height="3.7" style="fill: #018f89; stroke-width: 0px;"/>
                    <rect x="53.67" y="112.64" width="3.2" height="3.7" style="fill: #fff; stroke-width: 0px;"/>
                    <rect x="59.62" y="112.64" width="3.2" height="3.7" style="fill: #018f89; stroke-width: 0px;"/>
                    <rect x="65.57" y="112.64" width="3.2" height="3.7" style="fill: #018f89; stroke-width: 0px;"/>
                  </g>
                  <g>
                    <rect x="29.89" y="118.75" width="3.2" height="3.7" style="fill: #018f89; stroke-width: 0px;"/>
                    <rect x="35.84" y="118.75" width="3.2" height="3.7" style="fill: #018f89; stroke-width: 0px;"/>
                    <rect x="41.78" y="118.75" width="3.2" height="3.7" style="fill: #fff; stroke-width: 0px;"/>
                    <rect x="47.73" y="118.75" width="3.2" height="3.7" style="fill: #018f89; stroke-width: 0px;"/>
                    <rect x="53.67" y="118.75" width="3.2" height="3.7" style="fill: #018f89; stroke-width: 0px;"/>
                    <rect x="59.62" y="118.75" width="3.2" height="3.7" style="fill: #018f89; stroke-width: 0px;"/>
                    <rect x="65.57" y="118.75" width="3.2" height="3.7" style="fill: #018f89; stroke-width: 0px;"/>
                  </g>
                  <g>
                    <rect x="29.89" y="124.86" width="3.2" height="3.7" style="fill: #fff; stroke-width: 0px;"/>
                    <rect x="35.84" y="124.86" width="3.2" height="3.7" style="fill: #018f89; stroke-width: 0px;"/>
                    <rect x="41.78" y="124.86" width="3.2" height="3.7" style="fill: #018f89; stroke-width: 0px;"/>
                    <rect x="47.73" y="124.86" width="3.2" height="3.7" style="fill: #018f89; stroke-width: 0px;"/>
                    <rect x="53.67" y="124.86" width="3.2" height="3.7" style="fill: #fff; stroke-width: 0px;"/>
                    <rect x="59.62" y="124.86" width="3.2" height="3.7" style="fill: #fff; stroke-width: 0px;"/>
                    <rect x="65.57" y="124.86" width="3.2" height="3.7" style="fill: #018f89; stroke-width: 0px;"/>
                  </g>
                  <g>
                    <rect x="29.89" y="130.97" width="3.2" height="3.7" style="fill: #fff; stroke-width: 0px;"/>
                    <rect x="35.84" y="130.97" width="3.2" height="3.7" style="fill: #018f89; stroke-width: 0px;"/>
                    <rect x="41.78" y="130.97" width="3.2" height="3.7" style="fill: #fff; stroke-width: 0px;"/>
                    <rect x="47.73" y="130.97" width="3.2" height="3.7" style="fill: #018f89; stroke-width: 0px;"/>
                    <rect x="53.67" y="130.97" width="3.2" height="3.7" style="fill: #018f89; stroke-width: 0px;"/>
                    <rect x="59.62" y="130.97" width="3.2" height="3.7" style="fill: #018f89; stroke-width: 0px;"/>
                    <rect x="65.57" y="130.97" width="3.2" height="3.7" style="fill: #fff; stroke-width: 0px;"/>
                  </g>
                </g>
                <g>
                  <rect x="37.19" y="139.13" width="8.11" height="5.37" style="fill: #f6e968; stroke-width: 0px;"/>
                  <rect x="54.74" y="139.13" width="8.11" height="5.37" style="fill: #f6e968; stroke-width: 0px;"/>
                </g>
              </g>
            </g>
            <g>
              <path d="m258.25,149.98c0,1.61-.66,3.07-1.71,4.12-1.05,1.06-2.51,1.71-4.12,1.71H19.93c-3.22,0-5.83-2.61-5.83-5.83,0-1.61.66-3.07,1.7-4.12,1.06-1.05,2.51-1.71,4.12-1.71h232.49c2.7,0,4.97,1.84,5.64,4.33.13.48.19.98.19,1.5h0Z" style="fill: #217f2a; stroke-width: 0px;"/>
              <path d="m258.25,149.98c0,1.61-.66,3.07-1.71,4.12-1.05,1.06-2.51,1.71-4.12,1.71H25.57c-.13-.48-.19-.98-.19-1.5,0-1.61.65-3.06,1.7-4.12,1.05-1.05,2.51-1.7,4.12-1.7h226.86c.13.48.19.98.19,1.5h0Z" style="fill: #329a3f; stroke-width: 0px;"/>
            </g>
            <g>
              <path d="m63.7,163.11v8.88H12.97v-8.88c0-5.6,4.54-10.14,10.14-10.14h30.45c3.62,0,6.79,1.89,8.58,4.75.98,1.56,1.55,3.41,1.55,5.39h0Z" style="fill: #a6bc48; stroke-width: 0px;"/>
              <path d="m63.7,163.11v8.88H23.05v-4.13c0-5.6,4.54-10.14,10.14-10.14h28.96c.98,1.56,1.55,3.41,1.55,5.39Z" style="fill: #bdd867; stroke-width: 0px;"/>
            </g>
            <g>
              <polygon points="128.09 42.37 128.09 47.83 130.37 47.83 130.37 110.53 170.28 110.53 170.28 47.83 172.56 47.83 172.56 42.37 128.09 42.37" style="fill: #018f89; stroke-width: 0px;"/>
              <g>
                <rect x="132.08" y="47.83" width="39.9" height="62.71" style="fill: #5fa4e5; stroke-width: 0px;"/>
                <g>
                  <g>
                    <rect x="139.23" y="52.08" width="2.32" height="2.32" style="fill: #fff; stroke-width: 0px;"/>
                    <rect x="139.23" y="58.3" width="2.32" height="2.32" style="fill: #fff; stroke-width: 0px;"/>
                    <rect x="139.23" y="64.53" width="2.32" height="2.32" style="fill: #fff; stroke-width: 0px;"/>
                    <rect x="139.23" y="70.75" width="2.32" height="2.32" style="fill: #fff; stroke-width: 0px;"/>
                    <rect x="139.23" y="76.98" width="2.32" height="2.32" style="fill: #fff; stroke-width: 0px;"/>
                    <rect x="139.23" y="83.2" width="2.32" height="2.32" style="fill: #fff; stroke-width: 0px;"/>
                    <rect x="139.23" y="89.43" width="2.32" height="2.32" style="fill: #fff; stroke-width: 0px;"/>
                    <rect x="139.23" y="95.66" width="2.32" height="2.32" style="fill: #fff; stroke-width: 0px;"/>
                    <rect x="139.23" y="101.88" width="2.32" height="2.32" style="fill: #fff; stroke-width: 0px;"/>
                  </g>
                  <g>
                    <rect x="145.32" y="52.08" width="2.32" height="2.32" style="fill: #fff; stroke-width: 0px;"/>
                    <rect x="145.32" y="58.3" width="2.32" height="2.32" style="fill: #fff; stroke-width: 0px;"/>
                    <rect x="145.32" y="64.53" width="2.32" height="2.32" style="fill: #fff; stroke-width: 0px;"/>
                    <rect x="145.32" y="70.75" width="2.32" height="2.32" style="fill: #fff; stroke-width: 0px;"/>
                    <rect x="145.32" y="76.98" width="2.32" height="2.32" style="fill: #fff; stroke-width: 0px;"/>
                    <rect x="145.32" y="83.2" width="2.32" height="2.32" style="fill: #fff; stroke-width: 0px;"/>
                    <rect x="145.32" y="89.43" width="2.32" height="2.32" style="fill: #fff; stroke-width: 0px;"/>
                    <rect x="145.32" y="95.66" width="2.32" height="2.32" style="fill: #fff; stroke-width: 0px;"/>
                    <rect x="145.32" y="101.88" width="2.32" height="2.32" style="fill: #fff; stroke-width: 0px;"/>
                  </g>
                  <g>
                    <rect x="151.41" y="52.08" width="2.32" height="2.32" style="fill: #fff; stroke-width: 0px;"/>
                    <rect x="151.41" y="58.3" width="2.32" height="2.32" style="fill: #fff; stroke-width: 0px;"/>
                    <rect x="151.41" y="64.53" width="2.32" height="2.32" style="fill: #fff; stroke-width: 0px;"/>
                    <rect x="151.41" y="70.75" width="2.32" height="2.32" style="fill: #fff; stroke-width: 0px;"/>
                    <rect x="151.41" y="76.98" width="2.32" height="2.32" style="fill: #fff; stroke-width: 0px;"/>
                    <rect x="151.41" y="83.2" width="2.32" height="2.32" style="fill: #fff; stroke-width: 0px;"/>
                    <rect x="151.41" y="89.43" width="2.32" height="2.32" style="fill: #fff; stroke-width: 0px;"/>
                    <rect x="151.41" y="95.66" width="2.32" height="2.32" style="fill: #fff; stroke-width: 0px;"/>
                    <rect x="151.41" y="101.88" width="2.32" height="2.32" style="fill: #fff; stroke-width: 0px;"/>
                  </g>
                  <g>
                    <rect x="157.5" y="52.08" width="2.32" height="2.32" style="fill: #fff; stroke-width: 0px;"/>
                    <rect x="157.5" y="58.3" width="2.32" height="2.32" style="fill: #fff; stroke-width: 0px;"/>
                    <rect x="157.5" y="64.53" width="2.32" height="2.32" style="fill: #fff; stroke-width: 0px;"/>
                    <rect x="157.5" y="70.75" width="2.32" height="2.32" style="fill: #fff; stroke-width: 0px;"/>
                    <rect x="157.5" y="76.98" width="2.32" height="2.32" style="fill: #fff; stroke-width: 0px;"/>
                    <rect x="157.5" y="83.2" width="2.32" height="2.32" style="fill: #fff; stroke-width: 0px;"/>
                    <rect x="157.5" y="89.43" width="2.32" height="2.32" style="fill: #fff; stroke-width: 0px;"/>
                    <rect x="157.5" y="95.66" width="2.32" height="2.32" style="fill: #fff; stroke-width: 0px;"/>
                    <rect x="157.5" y="101.88" width="2.32" height="2.32" style="fill: #fff; stroke-width: 0px;"/>
                  </g>
                  <g>
                    <rect x="163.59" y="52.08" width="2.32" height="2.32" style="fill: #fff; stroke-width: 0px;"/>
                    <rect x="163.59" y="58.3" width="2.32" height="2.32" style="fill: #fff; stroke-width: 0px;"/>
                    <rect x="163.59" y="64.53" width="2.32" height="2.32" style="fill: #fff; stroke-width: 0px;"/>
                    <rect x="163.59" y="70.75" width="2.32" height="2.32" style="fill: #fff; stroke-width: 0px;"/>
                    <rect x="163.59" y="76.98" width="2.32" height="2.32" style="fill: #fff; stroke-width: 0px;"/>
                    <rect x="163.59" y="83.2" width="2.32" height="2.32" style="fill: #fff; stroke-width: 0px;"/>
                    <rect x="163.59" y="89.43" width="2.32" height="2.32" style="fill: #fff; stroke-width: 0px;"/>
                    <rect x="163.59" y="95.66" width="2.32" height="2.32" style="fill: #fff; stroke-width: 0px;"/>
                    <rect x="163.59" y="101.88" width="2.32" height="2.32" style="fill: #fff; stroke-width: 0px;"/>
                  </g>
                </g>
                <rect x="129.8" y="42.37" width="44.46" height="5.45" style="fill: #fff; stroke-width: 0px;"/>
              </g>
            </g>
            <g>
              <polygon points="144.04 110.4 144.04 83.77 104.9 83.77 104.9 110.4 96.54 110.4 96.54 148.2 152.4 148.2 152.4 110.4 144.04 110.4" style="fill: #fff; stroke-width: 0px;"/>
              <g>
                <g>
                  <rect x="98.25" y="110.4" width="55.86" height="37.8" style="fill: #018f89; stroke-width: 0px;"/>
                  <rect x="106.61" y="83.77" width="39.14" height="26.63" style="fill: #018f89; stroke-width: 0px;"/>
                </g>
                <g>
                  <g>
                    <rect x="103.01" y="114.4" width="3.82" height="3.82" style="fill: #b2f5fb; stroke-width: 0px;"/>
                    <rect x="110.09" y="114.4" width="3.82" height="3.82" style="fill: #b2f5fb; stroke-width: 0px;"/>
                    <rect x="117.18" y="114.4" width="3.82" height="3.82" style="fill: #b2f5fb; stroke-width: 0px;"/>
                    <rect x="124.27" y="114.4" width="3.82" height="3.82" style="fill: #b2f5fb; stroke-width: 0px;"/>
                    <rect x="131.36" y="114.4" width="3.82" height="3.82" style="fill: #b2f5fb; stroke-width: 0px;"/>
                    <rect x="138.45" y="114.4" width="3.82" height="3.82" style="fill: #fff; stroke-width: 0px;"/>
                    <rect x="145.54" y="114.4" width="3.82" height="3.82" style="fill: #b2f5fb; stroke-width: 0px;"/>
                  </g>
                  <g>
                    <rect x="103.01" y="120.72" width="3.82" height="3.82" style="fill: #b2f5fb; stroke-width: 0px;"/>
                    <rect x="110.09" y="120.72" width="3.82" height="3.82" style="fill: #fff; stroke-width: 0px;"/>
                    <rect x="117.18" y="120.72" width="3.82" height="3.82" style="fill: #b2f5fb; stroke-width: 0px;"/>
                    <rect x="124.27" y="120.72" width="3.82" height="3.82" style="fill: #fff; stroke-width: 0px;"/>
                    <rect x="131.36" y="120.72" width="3.82" height="3.82" style="fill: #b2f5fb; stroke-width: 0px;"/>
                    <rect x="138.45" y="120.72" width="3.82" height="3.82" style="fill: #b2f5fb; stroke-width: 0px;"/>
                    <rect x="145.54" y="120.72" width="3.82" height="3.82" style="fill: #b2f5fb; stroke-width: 0px;"/>
                  </g>
                  <g>
                    <rect x="103.01" y="127.03" width="3.82" height="3.82" style="fill: #b2f5fb; stroke-width: 0px;"/>
                    <rect x="110.09" y="127.03" width="3.82" height="3.82" style="fill: #b2f5fb; stroke-width: 0px;"/>
                    <rect x="117.18" y="127.03" width="3.82" height="3.82" style="fill: #b2f5fb; stroke-width: 0px;"/>
                    <rect x="124.27" y="127.03" width="3.82" height="3.82" style="fill: #b2f5fb; stroke-width: 0px;"/>
                    <rect x="131.36" y="127.03" width="3.82" height="3.82" style="fill: #fff; stroke-width: 0px;"/>
                    <rect x="138.45" y="127.03" width="3.82" height="3.82" style="fill: #b2f5fb; stroke-width: 0px;"/>
                    <rect x="145.54" y="127.03" width="3.82" height="3.82" style="fill: #b2f5fb; stroke-width: 0px;"/>
                  </g>
                  <g>
                    <rect x="103.01" y="133.34" width="3.82" height="3.82" style="fill: #b2f5fb; stroke-width: 0px;"/>
                    <rect x="110.09" y="133.34" width="3.82" height="3.82" style="fill: #b2f5fb; stroke-width: 0px;"/>
                    <rect x="117.18" y="133.34" width="3.82" height="3.82" style="fill: #b2f5fb; stroke-width: 0px;"/>
                    <rect x="124.27" y="133.34" width="3.82" height="3.82" style="fill: #b2f5fb; stroke-width: 0px;"/>
                    <rect x="131.36" y="133.34" width="3.82" height="3.82" style="fill: #b2f5fb; stroke-width: 0px;"/>
                    <rect x="138.45" y="133.34" width="3.82" height="3.82" style="fill: #fff; stroke-width: 0px;"/>
                    <rect x="145.54" y="133.34" width="3.82" height="3.82" style="fill: #b2f5fb; stroke-width: 0px;"/>
                  </g>
                  <g>
                    <rect x="103.01" y="139.66" width="3.82" height="3.82" style="fill: #b2f5fb; stroke-width: 0px;"/>
                    <rect x="110.09" y="139.66" width="3.82" height="3.82" style="fill: #b2f5fb; stroke-width: 0px;"/>
                    <rect x="117.18" y="139.66" width="3.82" height="3.82" style="fill: #b2f5fb; stroke-width: 0px;"/>
                    <rect x="124.27" y="139.66" width="3.82" height="3.82" style="fill: #b2f5fb; stroke-width: 0px;"/>
                    <rect x="131.36" y="139.66" width="3.82" height="3.82" style="fill: #b2f5fb; stroke-width: 0px;"/>
                    <rect x="138.45" y="139.66" width="3.82" height="3.82" style="fill: #b2f5fb; stroke-width: 0px;"/>
                    <rect x="145.54" y="139.66" width="3.82" height="3.82" style="fill: #b2f5fb; stroke-width: 0px;"/>
                  </g>
                </g>
                <g>
                  <g>
                    <rect x="110.05" y="88.24" width="2.66" height="2.66" style="fill: #b2f5fb; stroke-width: 0px;"/>
                    <rect x="114.99" y="88.24" width="2.66" height="2.66" style="fill: #b2f5fb; stroke-width: 0px;"/>
                    <rect x="119.92" y="88.24" width="2.66" height="2.66" style="fill: #b2f5fb; stroke-width: 0px;"/>
                    <rect x="124.85" y="88.24" width="2.66" height="2.66" style="fill: #b2f5fb; stroke-width: 0px;"/>
                    <rect x="129.79" y="88.24" width="2.66" height="2.66" style="fill: #b2f5fb; stroke-width: 0px;"/>
                    <rect x="134.72" y="88.24" width="2.66" height="2.66" style="fill: #fff; stroke-width: 0px;"/>
                    <rect x="139.65" y="88.24" width="2.66" height="2.66" style="fill: #fff; stroke-width: 0px;"/>
                  </g>
                  <g>
                    <rect x="110.05" y="92.63" width="2.66" height="2.66" style="fill: #b2f5fb; stroke-width: 0px;"/>
                    <rect x="114.99" y="92.63" width="2.66" height="2.66" style="fill: #b2f5fb; stroke-width: 0px;"/>
                    <rect x="119.92" y="92.63" width="2.66" height="2.66" style="fill: #fff; stroke-width: 0px;"/>
                    <rect x="124.85" y="92.63" width="2.66" height="2.66" style="fill: #b2f5fb; stroke-width: 0px;"/>
                    <rect x="129.79" y="92.63" width="2.66" height="2.66" style="fill: #fff; stroke-width: 0px;"/>
                    <rect x="134.72" y="92.63" width="2.66" height="2.66" style="fill: #b2f5fb; stroke-width: 0px;"/>
                    <rect x="139.65" y="92.63" width="2.66" height="2.66" style="fill: #b2f5fb; stroke-width: 0px;"/>
                  </g>
                  <g>
                    <rect x="110.05" y="97.03" width="2.66" height="2.66" style="fill: #fff; stroke-width: 0px;"/>
                    <rect x="114.99" y="97.03" width="2.66" height="2.66" style="fill: #b2f5fb; stroke-width: 0px;"/>
                    <rect x="119.92" y="97.03" width="2.66" height="2.66" style="fill: #b2f5fb; stroke-width: 0px;"/>
                    <rect x="124.85" y="97.03" width="2.66" height="2.66" style="fill: #fff; stroke-width: 0px;"/>
                    <rect x="129.79" y="97.03" width="2.66" height="2.66" style="fill: #b2f5fb; stroke-width: 0px;"/>
                    <rect x="134.72" y="97.03" width="2.66" height="2.66" style="fill: #b2f5fb; stroke-width: 0px;"/>
                    <rect x="139.65" y="97.03" width="2.66" height="2.66" style="fill: #b2f5fb; stroke-width: 0px;"/>
                  </g>
                  <g>
                    <rect x="110.05" y="101.42" width="2.66" height="2.66" style="fill: #b2f5fb; stroke-width: 0px;"/>
                    <rect x="114.99" y="101.42" width="2.66" height="2.66" style="fill: #fff; stroke-width: 0px;"/>
                    <rect x="119.92" y="101.42" width="2.66" height="2.66" style="fill: #b2f5fb; stroke-width: 0px;"/>
                    <rect x="124.85" y="101.42" width="2.66" height="2.66" style="fill: #b2f5fb; stroke-width: 0px;"/>
                    <rect x="129.79" y="101.42" width="2.66" height="2.66" style="fill: #fff; stroke-width: 0px;"/>
                    <rect x="134.72" y="101.42" width="2.66" height="2.66" style="fill: #fff; stroke-width: 0px;"/>
                    <rect x="139.65" y="101.42" width="2.66" height="2.66" style="fill: #b2f5fb; stroke-width: 0px;"/>
                  </g>
                  <g>
                    <rect x="110.05" y="105.81" width="2.66" height="2.66" style="fill: #b2f5fb; stroke-width: 0px;"/>
                    <rect x="114.99" y="105.81" width="2.66" height="2.66" style="fill: #b2f5fb; stroke-width: 0px;"/>
                    <rect x="119.92" y="105.81" width="2.66" height="2.66" style="fill: #fff; stroke-width: 0px;"/>
                    <rect x="124.85" y="105.81" width="2.66" height="2.66" style="fill: #b2f5fb; stroke-width: 0px;"/>
                    <rect x="129.79" y="105.81" width="2.66" height="2.66" style="fill: #b2f5fb; stroke-width: 0px;"/>
                    <rect x="134.72" y="105.81" width="2.66" height="2.66" style="fill: #b2f5fb; stroke-width: 0px;"/>
                    <rect x="139.65" y="105.81" width="2.66" height="2.66" style="fill: #b2f5fb; stroke-width: 0px;"/>
                  </g>
                </g>
              </g>
            </g>
            <g>
              <polygon points="74.55 144.9 68.23 144.9 69.37 114.86 73.41 114.86 74.55 144.9" style="fill: #bc9c75; stroke-width: 0px;"/>
              <circle cx="71.39" cy="111.41" r="11.78" style="fill: #e3f985; stroke-width: 0px;"/>
              <g>
                <path d="m71.75,119.54v-11.23c0-.37-.57-.37-.57,0v1.16c0,.37.57.37.57,0v-1.16c0-.37-.57-.37-.57,0v11.23c0,.37.57.37.57,0h0Z" style="fill: #bc9c75; stroke-width: 0px;"/>
                <path d="m64.88,115.02c2.12,1.62,4.14,3.4,6.44,4.76.32.19.6-.3.29-.49-2.3-1.37-4.32-3.15-6.44-4.76-.29-.22-.58.27-.29.49h0Z" style="fill: #bc9c75; stroke-width: 0px;"/>
                <path d="m71.61,119.78c2.4-1.85,4.77-3.73,7.23-5.5.29-.21.01-.71-.29-.49-2.45,1.78-4.83,3.65-7.23,5.5-.29.22,0,.72.29.49h0Z" style="fill: #bc9c75; stroke-width: 0px;"/>
              </g>
            </g>
            <g>
              <path d="m86.35,172.53c.04-.81.07-1.62.07-2.45,0-16.76-8.85-30.34-19.76-30.34s-19.76,13.58-19.76,30.34c0,.82.03,1.64.07,2.45h39.38Z" style="fill: #7dd0b2; stroke-width: 0px;"/>
              <path d="m159.12,172.53c-1.68-14.59-11.3-25.78-22.92-25.78s-21.24,11.19-22.92,25.78h45.84Z" style="fill: #bdd867; stroke-width: 0px;"/>
              <path d="m119.41,172.53c.66-3.77,1.02-7.8,1.02-12,0-20.94-8.85-37.91-19.76-37.91s-19.76,16.97-19.76,37.91c0,4.2.36,8.23,1.02,12h37.49,0Z" style="fill: #7dd0b2; stroke-width: 0px;"/>
            </g>
            <path d="m245.98,196.35c.04-.81.07-1.62.07-2.45,0-16.76-8.77-30.34-19.58-30.34s-19.58,13.58-19.58,30.34c0,.82.03,1.64.07,2.45h39.03-.01Z" style="fill: #bdd867; stroke-width: 0px;"/>
            <path d="m158.94,201.85c.65-3.77,1.01-7.8,1.01-12,0-20.94-8.77-37.91-19.58-37.91s-19.58,16.97-19.58,37.91c0,4.2.36,8.23,1.01,12h37.15,0Z" style="fill: #7dd0b2; stroke-width: 0px;"/>
            <g>
              <polygon points="221.01 118.43 215.58 118.43 216.56 92.64 220.03 92.64 221.01 118.43" style="fill: #bc9c75; stroke-width: 0px;"/>
              <circle cx="211.02" cy="92.63" r="6.84" style="fill: #8cc93d; stroke-width: 0px;"/>
              <circle cx="225.9" cy="92.64" r="10.32" style="fill: #8cc93d; stroke-width: 0px;"/>
              <circle cx="219.21" cy="83.17" r="9.46" style="fill: #8cc93d; stroke-width: 0px;"/>
              <path d="m210.11,90.55c2.65,1.65,5.56,2.84,8.21,4.5.31.19.6-.3.29-.49-2.65-1.65-5.56-2.84-8.21-4.5-.31-.19-.6.3-.29.49h0Z" style="fill: #bc9c75; stroke-width: 0px;"/>
            </g>
            <g>
              <polygon points="120.07 146.13 91.25 146.13 85.33 160.1 85.33 199.04 125.99 199.04 125.99 160.1 120.07 146.13" style="fill: #b2f5fb; stroke-width: 0px;"/>
              <g>
                <rect x="87.04" y="160.1" width="40.66" height="38.94" style="fill: #018f89; stroke-width: 0px;"/>
                <g>
                  <g>
                    <rect x="90.61" y="165.44" width="2.76" height="3.57" style="fill: #b2f5fb; stroke-width: 0px;"/>
                    <rect x="95.74" y="165.44" width="2.76" height="3.57" style="fill: #b2f5fb; stroke-width: 0px;"/>
                    <rect x="100.86" y="165.44" width="2.76" height="3.57" style="fill: #b2f5fb; stroke-width: 0px;"/>
                    <rect x="105.99" y="165.44" width="2.76" height="3.57" style="fill: #b2f5fb; stroke-width: 0px;"/>
                    <rect x="111.11" y="165.44" width="2.76" height="3.57" style="fill: #b2f5fb; stroke-width: 0px;"/>
                    <rect x="116.24" y="165.44" width="2.76" height="3.57" style="fill: #b2f5fb; stroke-width: 0px;"/>
                    <rect x="121.36" y="165.44" width="2.76" height="3.57" style="fill: #b2f5fb; stroke-width: 0px;"/>
                  </g>
                  <g>
                    <rect x="90.61" y="171.34" width="2.76" height="3.57" style="fill: #b2f5fb; stroke-width: 0px;"/>
                    <rect x="95.74" y="171.34" width="2.76" height="3.57" style="fill: #b2f5fb; stroke-width: 0px;"/>
                    <rect x="100.86" y="171.34" width="2.76" height="3.57" style="fill: #b2f5fb; stroke-width: 0px;"/>
                    <rect x="105.99" y="171.34" width="2.76" height="3.57" style="fill: #b2f5fb; stroke-width: 0px;"/>
                    <rect x="111.11" y="171.34" width="2.76" height="3.57" style="fill: #b2f5fb; stroke-width: 0px;"/>
                    <rect x="116.24" y="171.34" width="2.76" height="3.57" style="fill: #b2f5fb; stroke-width: 0px;"/>
                    <rect x="121.36" y="171.34" width="2.76" height="3.57" style="fill: #b2f5fb; stroke-width: 0px;"/>
                  </g>
                  <g>
                    <rect x="90.61" y="177.23" width="2.76" height="3.57" style="fill: #b2f5fb; stroke-width: 0px;"/>
                    <rect x="95.74" y="177.23" width="2.76" height="3.57" style="fill: #b2f5fb; stroke-width: 0px;"/>
                    <rect x="100.86" y="177.23" width="2.76" height="3.57" style="fill: #b2f5fb; stroke-width: 0px;"/>
                    <rect x="105.99" y="177.23" width="2.76" height="3.57" style="fill: #b2f5fb; stroke-width: 0px;"/>
                    <rect x="111.11" y="177.23" width="2.76" height="3.57" style="fill: #b2f5fb; stroke-width: 0px;"/>
                    <rect x="116.24" y="177.23" width="2.76" height="3.57" style="fill: #b2f5fb; stroke-width: 0px;"/>
                    <rect x="121.36" y="177.23" width="2.76" height="3.57" style="fill: #b2f5fb; stroke-width: 0px;"/>
                  </g>
                  <g>
                    <rect x="90.61" y="183.13" width="2.76" height="3.57" style="fill: #b2f5fb; stroke-width: 0px;"/>
                    <rect x="95.74" y="183.13" width="2.76" height="3.57" style="fill: #b2f5fb; stroke-width: 0px;"/>
                    <rect x="100.86" y="183.13" width="2.76" height="3.57" style="fill: #b2f5fb; stroke-width: 0px;"/>
                    <rect x="105.99" y="183.13" width="2.76" height="3.57" style="fill: #b2f5fb; stroke-width: 0px;"/>
                    <rect x="111.11" y="183.13" width="2.76" height="3.57" style="fill: #b2f5fb; stroke-width: 0px;"/>
                    <rect x="116.24" y="183.13" width="2.76" height="3.57" style="fill: #b2f5fb; stroke-width: 0px;"/>
                    <rect x="121.36" y="183.13" width="2.76" height="3.57" style="fill: #b2f5fb; stroke-width: 0px;"/>
                  </g>
                  <g>
                    <rect x="90.61" y="189.03" width="2.76" height="3.57" style="fill: #b2f5fb; stroke-width: 0px;"/>
                    <rect x="95.74" y="189.03" width="2.76" height="3.57" style="fill: #b2f5fb; stroke-width: 0px;"/>
                    <rect x="100.86" y="189.03" width="2.76" height="3.57" style="fill: #b2f5fb; stroke-width: 0px;"/>
                    <rect x="105.99" y="189.03" width="2.76" height="3.57" style="fill: #b2f5fb; stroke-width: 0px;"/>
                    <rect x="111.11" y="189.03" width="2.76" height="3.57" style="fill: #b2f5fb; stroke-width: 0px;"/>
                    <rect x="116.24" y="189.03" width="2.76" height="3.57" style="fill: #b2f5fb; stroke-width: 0px;"/>
                    <rect x="121.36" y="189.03" width="2.76" height="3.57" style="fill: #b2f5fb; stroke-width: 0px;"/>
                  </g>
                </g>
                <polygon points="121.78 146.13 92.96 146.13 87.04 160.1 127.7 160.1 121.78 146.13" style="fill: #bc9c75; stroke-width: 0px;"/>
              </g>
            </g>
            <g>
              <polygon points="79.73 152.03 47.62 152.03 47.62 152.03 29.09 169.89 29.09 204.85 47.62 204.85 66.15 204.85 66.15 169.89 48.28 152.67 66.15 169.89 66.15 204.85 98.26 204.85 98.26 169.89 79.73 152.03" style="fill: #fff; stroke-width: 0px;"/>
              <g>
                <rect x="67.86" y="169.89" width="32.11" height="34.96" style="fill: #f6e968; stroke-width: 0px;"/>
                <polygon points="81.44 152.03 49.33 152.03 67.86 169.89 99.97 169.89 81.44 152.03" style="fill: #5fa4e5; stroke-width: 0px;"/>
                <polygon points="49.33 152.03 30.8 169.89 30.8 204.85 49.33 204.85 67.86 204.85 67.86 169.89 49.33 152.03" style="fill: #b2be74; stroke-width: 0px;"/>
                <g>
                  <g>
                    <rect x="71.85" y="175.72" width="2.69" height="4.52" style="fill: #bc9c75; stroke-width: 0px;"/>
                    <rect x="79" y="175.72" width="2.69" height="4.52" style="fill: #bc9c75; stroke-width: 0px;"/>
                    <rect x="86.15" y="175.72" width="2.69" height="4.52" style="fill: #fff; stroke-width: 0px;"/>
                    <rect x="93.3" y="175.72" width="2.69" height="4.52" style="fill: #bc9c75; stroke-width: 0px;"/>
                  </g>
                  <g>
                    <rect x="71.85" y="182.93" width="2.69" height="4.52" style="fill: #bc9c75; stroke-width: 0px;"/>
                    <rect x="79" y="182.93" width="2.69" height="4.52" style="fill: #fff; stroke-width: 0px;"/>
                    <rect x="86.15" y="182.93" width="2.69" height="4.52" style="fill: #bc9c75; stroke-width: 0px;"/>
                    <rect x="93.3" y="182.93" width="2.69" height="4.52" style="fill: #bc9c75; stroke-width: 0px;"/>
                  </g>
                  <g>
                    <rect x="71.85" y="190.13" width="2.69" height="4.52" style="fill: #bc9c75; stroke-width: 0px;"/>
                    <rect x="79" y="190.13" width="2.69" height="4.52" style="fill: #bc9c75; stroke-width: 0px;"/>
                    <rect x="86.15" y="190.13" width="2.69" height="4.52" style="fill: #bc9c75; stroke-width: 0px;"/>
                    <rect x="93.3" y="190.13" width="2.69" height="4.52" style="fill: #fff; stroke-width: 0px;"/>
                  </g>
                </g>
              </g>
            </g>
            <g>
              <polygon points="137.98 190.25 132.38 190.25 133.39 163.63 136.97 163.63 137.98 190.25" style="fill: #bc9c75; stroke-width: 0px;"/>
              <circle cx="126.61" cy="164.05" r="4.88" style="fill: #217f2a; stroke-width: 0px;"/>
              <circle cx="135.17" cy="165.59" r="4.88" style="fill: #217f2a; stroke-width: 0px;"/>
              <circle cx="143.75" cy="164.07" r="4.88" style="fill: #217f2a; stroke-width: 0px;"/>
              <circle cx="130.55" cy="159.29" r="4.88" style="fill: #217f2a; stroke-width: 0px;"/>
              <circle cx="140.06" cy="159.18" r="4.88" style="fill: #217f2a; stroke-width: 0px;"/>
              <circle cx="135.18" cy="154.4" r="4.88" style="fill: #217f2a; stroke-width: 0px;"/>
              <path d="m135.22,166.28v-11.02c0-.37-.57-.37-.57,0v11.02c0,.37.57.37.57,0h0Z" style="fill: #bc9c75; stroke-width: 0px;"/>
              <path d="m128.75,159.61c1.73,2.49,3.91,4.66,5.98,6.87.25.27.65-.14.4-.4-2.04-2.17-4.18-4.31-5.89-6.75-.21-.3-.7,0-.49.29h0Z" style="fill: #bc9c75; stroke-width: 0px;"/>
              <path d="m135.18,166.42c1.84-2.41,3.44-4.97,4.95-7.6.18-.32-.31-.61-.49-.29-1.51,2.63-3.11,5.18-4.95,7.6-.22.29.27.58.49.29h0Z" style="fill: #bc9c75; stroke-width: 0px;"/>
            </g>
            <g>
              <path d="m165.01,199.93h-3.05c-8.73,0-34.42.03-53.39.03-12.22,0-21.66,0-21.96-.04,0,0,15.62-1.71,23.71-11.59,7.13-8.71,13.8-14.79,24.15-6.83,1.39,1.07,2.84,2.38,4.37,3.98,8.83,9.23,17.06,12.56,21.85,13.76,0,0,0,0,.02,0,2.69.67,4.29.67,4.3.67v.02Z" style="fill: #a6bc48; stroke-width: 0px;"/>
              <path d="m161.96,199.94c-.41-.21-.83-.43-1.25-.68h-.02c-4.79-1.2-13.02-4.53-21.85-13.76-1.53-1.6-2.99-2.92-4.37-3.98-5.64,0-10.23,4.68-15.03,10.54-2.99,3.65-6.99,6.18-10.87,7.92l53.39-.03h0Z" style="fill: #bdd867; stroke-width: 0px;"/>
            </g>
            <g>
              <path d="m112.44,208.95H18.19c0-5.66,4.59-10.24,10.24-10.24h73.76c3.18,0,6.02,1.45,7.9,3.72,1.47,1.77,2.34,4.04,2.34,6.52h.01Z" style="fill: #00776e; stroke-width: 0px;"/>
              <path d="m112.44,208.95H27.52c1.49-3.82,5.2-6.52,9.55-6.52h73.03c1.47,1.77,2.34,4.04,2.34,6.52Z" style="fill: #018f89; stroke-width: 0px;"/>
            </g>
            <g>
              <rect x="147.55" y="100.91" width="27.51" height="58.76" style="fill: #f6e968; stroke-width: 0px;"/>
              <g>
                <rect x="149.26" y="100.91" width="27.51" height="58.76" style="fill: #b2be74; stroke-width: 0px;"/>
                <g>
                  <g>
                    <rect x="153.11" y="105.63" width="2.23" height="2.23" style="fill: #018f89; stroke-width: 0px;"/>
                    <rect x="153.11" y="111.62" width="2.23" height="2.23" style="fill: #018f89; stroke-width: 0px;"/>
                    <rect x="153.11" y="117.62" width="2.23" height="2.23" style="fill: #018f89; stroke-width: 0px;"/>
                    <rect x="153.11" y="123.61" width="2.23" height="2.23" style="fill: #018f89; stroke-width: 0px;"/>
                    <rect x="153.11" y="129.6" width="2.23" height="2.23" style="fill: #018f89; stroke-width: 0px;"/>
                    <rect x="153.11" y="135.59" width="2.23" height="2.23" style="fill: #018f89; stroke-width: 0px;"/>
                    <rect x="153.11" y="141.59" width="2.23" height="2.23" style="fill: #018f89; stroke-width: 0px;"/>
                    <rect x="153.11" y="147.58" width="2.23" height="2.23" style="fill: #018f89; stroke-width: 0px;"/>
                    <rect x="153.11" y="153.57" width="2.23" height="2.23" style="fill: #018f89; stroke-width: 0px;"/>
                  </g>
                  <g>
                    <rect x="158.97" y="105.63" width="2.23" height="2.23" style="fill: #018f89; stroke-width: 0px;"/>
                    <rect x="158.97" y="111.62" width="2.23" height="2.23" style="fill: #018f89; stroke-width: 0px;"/>
                    <rect x="158.97" y="117.62" width="2.23" height="2.23" style="fill: #018f89; stroke-width: 0px;"/>
                    <rect x="158.97" y="123.61" width="2.23" height="2.23" style="fill: #018f89; stroke-width: 0px;"/>
                    <rect x="158.97" y="129.6" width="2.23" height="2.23" style="fill: #018f89; stroke-width: 0px;"/>
                    <rect x="158.97" y="135.59" width="2.23" height="2.23" style="fill: #018f89; stroke-width: 0px;"/>
                    <rect x="158.97" y="141.59" width="2.23" height="2.23" style="fill: #018f89; stroke-width: 0px;"/>
                    <rect x="158.97" y="147.58" width="2.23" height="2.23" style="fill: #018f89; stroke-width: 0px;"/>
                    <rect x="158.97" y="153.57" width="2.23" height="2.23" style="fill: #018f89; stroke-width: 0px;"/>
                  </g>
                  <g>
                    <rect x="164.83" y="105.63" width="2.23" height="2.23" style="fill: #018f89; stroke-width: 0px;"/>
                    <rect x="164.83" y="111.62" width="2.23" height="2.23" style="fill: #018f89; stroke-width: 0px;"/>
                    <rect x="164.83" y="117.62" width="2.23" height="2.23" style="fill: #018f89; stroke-width: 0px;"/>
                    <rect x="164.83" y="123.61" width="2.23" height="2.23" style="fill: #018f89; stroke-width: 0px;"/>
                    <rect x="164.83" y="129.6" width="2.23" height="2.23" style="fill: #018f89; stroke-width: 0px;"/>
                    <rect x="164.83" y="135.59" width="2.23" height="2.23" style="fill: #018f89; stroke-width: 0px;"/>
                    <rect x="164.83" y="141.59" width="2.23" height="2.23" style="fill: #018f89; stroke-width: 0px;"/>
                    <rect x="164.83" y="147.58" width="2.23" height="2.23" style="fill: #018f89; stroke-width: 0px;"/>
                    <rect x="164.83" y="153.57" width="2.23" height="2.23" style="fill: #018f89; stroke-width: 0px;"/>
                  </g>
                  <g>
                    <rect x="170.7" y="105.63" width="2.23" height="2.23" style="fill: #018f89; stroke-width: 0px;"/>
                    <rect x="170.7" y="111.62" width="2.23" height="2.23" style="fill: #018f89; stroke-width: 0px;"/>
                    <rect x="170.7" y="117.62" width="2.23" height="2.23" style="fill: #018f89; stroke-width: 0px;"/>
                    <rect x="170.7" y="123.61" width="2.23" height="2.23" style="fill: #018f89; stroke-width: 0px;"/>
                    <rect x="170.7" y="129.6" width="2.23" height="2.23" style="fill: #018f89; stroke-width: 0px;"/>
                    <rect x="170.7" y="135.59" width="2.23" height="2.23" style="fill: #018f89; stroke-width: 0px;"/>
                    <rect x="170.7" y="141.59" width="2.23" height="2.23" style="fill: #018f89; stroke-width: 0px;"/>
                    <rect x="170.7" y="147.58" width="2.23" height="2.23" style="fill: #018f89; stroke-width: 0px;"/>
                    <rect x="170.7" y="153.57" width="2.23" height="2.23" style="fill: #018f89; stroke-width: 0px;"/>
                  </g>
                </g>
              </g>
            </g>
            <g>
              <polygon points="230.64 109.18 213.93 127.04 230.64 109.18 201.68 109.18 184.97 127.04 184.97 162.01 213.93 162.01 227.32 162.01 230.64 162.01 233.95 162.01 247.34 162.01 247.34 127.04 230.64 109.18" style="fill: #fff; stroke-width: 0px;"/>
              <g>
                <rect x="186.69" y="127.05" width="28.96" height="34.96" style="fill: #bc9c75; stroke-width: 0px;"/>
                <polygon points="203.39 109.18 232.35 109.18 215.64 127.04 186.68 127.04 203.39 109.18" style="fill: #018f89; stroke-width: 0px;"/>
                <polygon points="232.35 109.18 249.05 127.04 249.05 162.01 232.35 162.01 215.64 162.01 215.64 127.04 232.35 109.18" style="fill: #f6e968; stroke-width: 0px;"/>
                <g>
                  <g>
                    <rect x="209.62" y="132.88" width="2.43" height="4.52" style="fill: #fff; stroke-width: 0px;"/>
                    <rect x="203.17" y="132.88" width="2.43" height="4.52" style="fill: #fff; stroke-width: 0px;"/>
                    <rect x="196.71" y="132.88" width="2.43" height="4.52" style="fill: #fff; stroke-width: 0px;"/>
                    <rect x="190.26" y="132.88" width="2.43" height="4.52" style="fill: #fff; stroke-width: 0px;"/>
                  </g>
                  <g>
                    <rect x="209.62" y="140.09" width="2.43" height="4.52" style="fill: #fff; stroke-width: 0px;"/>
                    <rect x="203.17" y="140.09" width="2.43" height="4.52" style="fill: #fff; stroke-width: 0px;"/>
                    <rect x="196.71" y="140.09" width="2.43" height="4.52" style="fill: #fff; stroke-width: 0px;"/>
                    <rect x="190.26" y="140.09" width="2.43" height="4.52" style="fill: #fff; stroke-width: 0px;"/>
                  </g>
                  <g>
                    <rect x="209.62" y="147.29" width="2.43" height="4.52" style="fill: #fff; stroke-width: 0px;"/>
                    <rect x="203.17" y="147.29" width="2.43" height="4.52" style="fill: #fff; stroke-width: 0px;"/>
                    <rect x="196.71" y="147.29" width="2.43" height="4.52" style="fill: #fff; stroke-width: 0px;"/>
                    <rect x="190.26" y="147.29" width="2.43" height="4.52" style="fill: #fff; stroke-width: 0px;"/>
                  </g>
                </g>
              </g>
            </g>
            <g>
              <path d="m262.71,170.69h-94.25c0-5.66,4.58-10.24,10.24-10.24h73.76c3.72,0,6.97,1.98,8.76,4.94.94,1.55,1.48,3.36,1.48,5.31h0Z" style="fill: #00776e; stroke-width: 0px;"/>
              <path d="m262.71,170.69h-85.28c1.73-3.19,5.12-5.36,9.01-5.36h73.76c.35,0,.69.02,1.03.05.94,1.55,1.48,3.36,1.48,5.31Z" style="fill: #018f89; stroke-width: 0px;"/>
            </g>
            <g>
              <path d="m260.06,193.54h-64.03s.76-29.26,15.2-29.45c6.05-.08,8.27,3.51,9.63,7.68,1.85,5.65,2.16,12.36,8.35,12.46h.45c11.4-.38,1.14-31.73,15.77-32.69,4.1-.27,7.06,2.92,9.18,7.65,5.44,12.12,5.44,34.35,5.44,34.35h0Z" style="fill: #79af2b; stroke-width: 0px;"/>
              <path d="m260.06,193.54h-56.39c1.28-8.69,4.81-21.9,14.49-22.03,1,0,1.9.07,2.71.26,1.85,5.65,2.16,12.36,8.35,12.46,1.16,4.1,2.65,7.58,7.38,7.42,11.4-.38,1.14-31.73,15.77-32.68.8-.05,1.55.03,2.26.22,5.44,12.12,5.44,34.35,5.44,34.35h-.01Z" style="fill: #8cc93d; stroke-width: 0px;"/>
            </g>
            <g>
              <path d="m254.39,207.55h-45.43c1.66-14.59,11.2-25.78,22.71-25.78,4.45,0,8.6,1.67,12.11,4.55,5.59,4.59,9.58,12.26,10.61,21.22h0Z" style="fill: #298933; stroke-width: 0px;"/>
              <path d="m254.39,207.55h-36.88c2.8-12.56,11.61-21.74,22.03-21.74,1.45,0,2.87.18,4.24.51,5.59,4.59,9.58,12.26,10.61,21.22h0Z" style="fill: #329a3f; stroke-width: 0px;"/>
            </g>
            <g>
              <polygon points="204.21 153.55 151.03 153.55 140.76 171.41 140.76 206.37 151.03 206.37 161.31 206.37 170.98 206.37 178.5 206.37 183.98 206.37 191.5 206.37 196.97 206.37 204.49 206.37 214.49 206.37 214.49 171.41 204.21 153.55" style="fill: #018f89; stroke-width: 0px;"/>
              <g>
                <rect x="163.02" y="171.41" width="53.18" height="34.96" style="fill: #7dd0b2; stroke-width: 0px;"/>
                <polygon points="205.92 153.55 152.74 153.55 163.02 171.41 216.2 171.41 205.92 153.55" style="fill: #5fa4e5; stroke-width: 0px;"/>
                <polygon points="152.74 153.55 142.47 171.41 142.47 206.37 152.74 206.37 163.02 206.37 163.02 171.41 152.74 153.55" style="fill: #fff; stroke-width: 0px;"/>
                <g>
                  <g>
                    <rect x="169.83" y="176.37" width="2.86" height="2.86" style="fill: #fff; stroke-width: 0px;"/>
                    <rect x="169.83" y="184.06" width="2.86" height="2.86" style="fill: #018f89; stroke-width: 0px;"/>
                    <rect x="169.83" y="191.75" width="2.86" height="2.86" style="fill: #018f89; stroke-width: 0px;"/>
                  </g>
                  <g>
                    <rect x="177.35" y="176.37" width="2.86" height="2.86" style="fill: #018f89; stroke-width: 0px;"/>
                    <rect x="177.35" y="184.06" width="2.86" height="2.86" style="fill: #fff; stroke-width: 0px;"/>
                    <rect x="177.35" y="191.75" width="2.86" height="2.86" style="fill: #018f89; stroke-width: 0px;"/>
                  </g>
                  <g>
                    <rect x="184.88" y="176.37" width="2.86" height="2.86" style="fill: #018f89; stroke-width: 0px;"/>
                    <rect x="184.88" y="184.06" width="2.86" height="2.86" style="fill: #018f89; stroke-width: 0px;"/>
                    <rect x="184.88" y="191.75" width="2.86" height="2.86" style="fill: #fff; stroke-width: 0px;"/>
                  </g>
                  <g>
                    <rect x="192.4" y="176.37" width="2.86" height="2.86" style="fill: #fff; stroke-width: 0px;"/>
                    <rect x="192.4" y="184.06" width="2.86" height="2.86" style="fill: #018f89; stroke-width: 0px;"/>
                    <rect x="192.4" y="191.75" width="2.86" height="2.86" style="fill: #018f89; stroke-width: 0px;"/>
                  </g>
                  <g>
                    <rect x="199.92" y="176.37" width="2.86" height="2.86" style="fill: #018f89; stroke-width: 0px;"/>
                    <rect x="199.92" y="184.06" width="2.86" height="2.86" style="fill: #018f89; stroke-width: 0px;"/>
                    <rect x="199.92" y="191.75" width="2.86" height="2.86" style="fill: #fff; stroke-width: 0px;"/>
                  </g>
                  <g>
                    <rect x="207.45" y="176.37" width="2.86" height="2.86" style="fill: #018f89; stroke-width: 0px;"/>
                    <rect x="207.45" y="184.06" width="2.86" height="2.86" style="fill: #018f89; stroke-width: 0px;"/>
                    <rect x="207.45" y="191.75" width="2.86" height="2.86" style="fill: #018f89; stroke-width: 0px;"/>
                  </g>
                </g>
                <rect x="172.69" y="198.85" width="7.52" height="7.52" style="fill: #018f89; stroke-width: 0px;"/>
                <rect x="185.69" y="198.85" width="7.52" height="7.52" style="fill: #018f89; stroke-width: 0px;"/>
                <rect x="198.68" y="198.85" width="7.52" height="7.52" style="fill: #018f89; stroke-width: 0px;"/>
              </g>
            </g>
            <g>
              <path d="m239.54,212.53h-84.95v-6.16h78.8c1.7,0,3.24.69,4.35,1.81.38.38.71.8.97,1.27.53.91.83,1.96.83,3.08h0Z" style="fill: #97a052; stroke-width: 0px;"/>
              <path d="m239.54,212.53h-79.58v-3.08h78.75c.53.91.83,1.96.83,3.08Z" style="fill: #b2be74; stroke-width: 0px;"/>
            </g>
            <g>
              <path d="m155.67,207v8.88h-50.73v-8.88c0-5.6,4.54-10.14,10.14-10.14h30.45c2.85,0,5.43,1.18,7.27,3.08,1.78,1.82,2.87,4.31,2.87,7.06Z" style="fill: #79af2b; stroke-width: 0px;"/>
              <path d="m155.67,207v8.88h-42.58v-5.8c0-5.6,4.54-10.14,10.14-10.14h29.57c1.78,1.82,2.87,4.31,2.87,7.06Z" style="fill: #8cc93d; stroke-width: 0px;"/>
            </g>
          </g>
        </g>
      </g>
    </g>
  </g>
</svg>