<?xml version="1.0" encoding="UTF-8"?>
<svg id="_圖層_2" data-name="圖層 2" xmlns="http://www.w3.org/2000/svg" width="218.04" height="218.04" xmlns:xlink="http://www.w3.org/1999/xlink" viewBox="0 0 218.04 218.04">
  <defs>
    <clipPath id="clippath">
      <circle cx="109.99" cy="109.07" r="101" style="fill: none; stroke-width: 0px;"/>
    </clipPath>
  </defs>
  <g id="_圖層_2-2" data-name=" 圖層 2">
    <g id="_圖層_8" data-name=" 圖層 8">
      <g id="Topic_exploration4" data-name="Topic exploration4">
        <g>
          <path d="m108.99.06c-1.59,0-3.21.03-4.8.1l.35,8c.38-.02.77-.03,1.15-.04h.26c.64-.02,1.27-.03,1.91-.04h1.09V.06h.04Zm-7.67.27c-1.59.11-3.2.26-4.78.44l.91,7.96c.83-.09,1.66-.18,2.49-.25h.56c.44-.04.88-.07,1.32-.1l-.56-7.99h0l.06-.06Zm-7.64.8c-1.58.22-3.17.48-4.74.77l1.46,7.87c1.45-.27,2.92-.51,4.39-.72l-1.12-7.93h.01Zm-7.57,1.34c-1.56.33-3.13.71-4.67,1.11l2.02,7.75c1.05-.27,2.1-.53,3.16-.77h.17c.33-.07.66-.15.99-.22l-1.67-7.83h0v-.04Zm-7.45,1.87c-1.53.44-3.07.93-4.58,1.44l2.56,7.59c.51-.17,1.02-.34,1.54-.51h.01s.04-.01.06-.02h.02s.02,0,.04-.01c.01,0,.02,0,.04-.01h.02s.04-.01.05-.02h.02s.03-.01.05-.02h.01s.04-.01.06-.02h0c.77-.24,1.55-.48,2.33-.7l-2.22-7.69h0v-.03Zm-7.3,2.4c-1.5.55-3,1.14-4.47,1.76l3.1,7.39c.75-.31,1.5-.62,2.25-.91h0s.04-.02.06-.02h0s.04-.01.06-.02h.01s.04-.01.05-.02h.02s.03-.01.04-.02c0,0,.02,0,.03-.01h.03s.02-.01.04-.02c.01,0,.02,0,.03-.01.01,0,.02,0,.03-.01h.01s.04-.02.06-.02h0c.47-.18.94-.36,1.41-.53l-2.76-7.52h0v-.04Zm-7.11,2.91c-1.45.65-2.91,1.35-4.33,2.07l3.61,7.15c.14-.07.29-.15.43-.22h0s.04-.02.06-.03h0s.03-.02.05-.03h0s.04-.02.06-.03h0s.03-.02.05-.02h.01s.03-.02.05-.02h.02s.03-.02.05-.02h.02s.03-.02.04-.02h.02s.03-.01.04-.02c0,0,.02,0,.02-.01.01,0,.02-.01.03-.02.01,0,.02-.01.03-.02,0,0,.02-.01.03-.02,0,0,.02,0,.03-.01.01,0,.02-.01.04-.02,0,0,.02,0,.02-.01.01,0,.03-.01.04-.02,0,0,.02,0,.02-.01.01,0,.02-.01.03-.02l.03-.02s.02,0,.03-.01c.01,0,.03-.01.04-.02,0,0,.02,0,.03-.01.01,0,.02-.01.04-.02,0,0,.02-.01.03-.01,0,0,.02,0,.03-.01.01,0,.03-.01.04-.02,0,0,.02,0,.03-.01.01,0,.03-.01.04-.02,0,0,.02,0,.03-.01.01,0,.02,0,.03-.01.01,0,.02-.01.03-.02,0,0,.02,0,.03-.01.01,0,.02-.01.03-.02,0,0,.02-.01.03-.01s.02-.01.03-.02c.01,0,.02-.01.03-.02,0,0,.02,0,.02-.01.01,0,.03-.01.04-.02,0,0,.02,0,.03-.01.01,0,.02-.01.04-.02,0,0,.02,0,.03-.01,0,0,.02-.01.03-.01s.02-.01.03-.02c0,0,.02,0,.03-.01.01,0,.02,0,.03-.01.01,0,.02-.01.04-.02,0,0,.02,0,.02-.01.01,0,.03-.01.04-.02,0,0,.01,0,.02-.01.01,0,.03-.01.04-.02h.02s.03-.01.04-.02c0,0,.01,0,.02-.01.01,0,.03-.01.04-.02h.02s.03-.02.04-.03h.02s.03-.01.05-.02h.02s.03-.01.05-.02h.02s.03-.02.05-.02h.01s.03-.02.05-.02h.01s.04-.02.05-.02h.01s.04-.02.05-.02h.01s.04-.02.05-.02h.01s.03-.02.05-.03h0s.04-.02.06-.03h0s.04-.02.06-.03h0s.04-.02.06-.03h0s.04-.02.06-.03h0s.04-.02.06-.03h0s.04-.02.06-.03h0s.08-.04.12-.06h0s.04-.02.06-.03h0s.04-.02.06-.03h0c.08-.04.17-.08.25-.11h0s.04-.02.06-.03h0s.04-.02.06-.03h0s.04-.02.06-.03l-3.29-7.3h0l.08-.13Zm-6.89,3.4c-1.4.76-2.81,1.55-4.18,2.37l4.11,6.88c1.16-.69,2.34-1.36,3.53-2.01h0s.03-.02.05-.03c0,0,0,0,.02-.01,0,0,.02-.01.04-.02,0,0,.02,0,.03-.02,0,0,.02,0,.02-.01,0,0,.03-.02.04-.02h.02s.03-.02.05-.03h0s.04-.02.05-.03h0l-3.8-7.05h0v-.02Zm-6.63,3.88c-1.35.85-2.69,1.75-4,2.66l4.58,6.57s0,0,.02-.01c0,0,.02-.01.02-.02,0,0,.02-.01.03-.02,0,0,.02-.01.03-.02,0,0,0,0,.02-.01,0,0,.03-.02.04-.03,0,0,0,0,.02-.01.02-.01.03-.02.04-.03h0s.03-.02.05-.03h0s.03-.02.05-.03h0s.07-.05.11-.08h0s.04-.03.06-.04h0s.04-.03.06-.04h0c.65-.44,1.3-.88,1.96-1.31h0s.04-.02.05-.03h0s.03-.02.05-.03h0s.03-.02.05-.03h0s.03-.02.04-.03c0,0,0,0,.02-.01,0,0,.02-.01.03-.02,0,0,0,0,.02-.01,0,0,.02-.01.04-.02,0,0,.02-.01.02-.02,0,0,.02-.02.03-.02,0,0,.02-.01.03-.02,0,0,0,0,.02-.01.02-.01.03-.02.05-.03h0s.04-.02.06-.04h0c.2-.13.41-.26.62-.4l-4.29-6.77h0l.04-.06Zm-6.34,4.34c-1.28.94-2.56,1.93-3.8,2.93l5.03,6.23c.29-.23.58-.46.87-.69h0s.04-.03.05-.04h0s.03-.02.05-.04h0s.03-.03.05-.04h0s.03-.03.05-.04h0s.03-.02.05-.04h0s.03-.02.04-.03h0s.03-.02.04-.03h0s.03-.03.04-.04c0,0,0,0,.02-.01,0,0,.03-.02.04-.03,0,0,0,0,.02-.01,0,0,.03-.02.04-.03,0,0,0,0,.02-.01,0,0,.02-.02.03-.03,0,0,0-.01.02-.02,0,0,.02-.02.03-.02,0,0,.02-.01.02-.02,0,0,.02-.02.03-.02,0,0,0-.01.02-.02,0,0,.02-.02.03-.03,0,0,.02-.01.02-.02,0,0,.02-.02.03-.03,0,0,.02-.01.02-.02,0,0,0-.01.02-.02,0,0,.02-.02.03-.03,0,0,0,0,.02-.02,0,0,.03-.02.04-.03,0,0,0-.01.02-.01s.03-.02.04-.03c0,0,0,0,.02-.01l.04-.03s0-.01.02-.01l.03-.02s0-.01.02-.02c0,0,.02-.02.04-.03,0,0,0,0,0-.01,0-.01.03-.02.04-.03h0s.03-.03.05-.05h0s.03-.03.05-.04h0c.07-.05.14-.11.21-.16h0c.36-.27.72-.55,1.09-.81l-4.75-6.45h0l.07-.04Zm-6.02,4.77c-1.21,1.03-2.42,2.11-3.59,3.19l5.45,5.87c.87-.81,1.76-1.61,2.66-2.39h0s.04-.03.05-.05h0l.05-.05h0l.04-.04h0s.02-.02.03-.03l.03-.03.02-.02.03-.03s0,0,.02,0l.03-.03h0s.03-.03.04-.04h0s.03-.03.05-.04h0l.05-.05h0s.11-.09.16-.14l-5.19-6.1h.05Zm-5.67,5.18c-1.14,1.11-2.27,2.27-3.35,3.43l5.85,5.47c.78-.83,1.56-1.65,2.37-2.45h0l.05-.05h0s.03-.03.04-.05h0l.04-.04h0s.02-.03.03-.04l.02-.02.03-.03.02-.02.03-.03.02-.02h0l.05-.05h0s.03-.04.05-.05h0c.11-.11.22-.21.33-.32l-5.61-5.72h.02Zm-5.29,5.56c-1.06,1.19-2.1,2.42-3.11,3.66l6.22,5.05s.04-.05.06-.07h0s.04-.05.04-.05c0,0,.01-.02.02-.03,0,0,.01-.02.02-.02,0,0,.02-.02.03-.03,0,0,0,0,.01-.02.01,0,.02-.03.03-.04h0s.03-.03.04-.05h0s.03-.03.04-.05h0s.03-.03.04-.05h0l1.02-1.23h0s.03-.03.04-.05h0s.03-.03.04-.05h0s.03-.03.04-.05h0s.03-.03.04-.05h0l.04-.04h0s.02-.04.04-.05h0s.02-.04.03-.05c0,0,0,0,0-.02,0,0,.02-.03.03-.04,0,0,0,0,0-.02,0,0,.02-.02.02-.03l.02-.03.02-.02s.02-.02.03-.03l.02-.02s.02-.02.03-.03c0,0,0-.02.02-.02.02-.03.05-.05.07-.08h0s.03-.03.04-.05h0s.03-.03.04-.05h0c.26-.31.53-.61.8-.92l-5.99-5.31h0l.09-.06Zm-4.89,5.92c-.97,1.26-1.93,2.57-2.84,3.87l6.56,4.6c.85-1.22,1.73-2.41,2.63-3.59l-6.35-4.88h0Zm-4.46,6.25c-.88,1.33-1.74,2.69-2.56,4.06l6.87,4.12c.14-.24.29-.48.43-.71h0s.02-.04.04-.06h0l.03-.06h0s.02-.04.04-.06h0s.05-.08.07-.12h0s.02-.04.03-.05h0s.02-.04.03-.05h0s.02-.03.03-.05h0l.03-.06h0l.03-.06h0s.02-.03.03-.05h0l.03-.05h0s.02-.04.03-.06h0s.02-.03.03-.05h0s.02-.04.03-.06h0s.02-.03.03-.05h0s.02-.04.03-.06h0s.02-.04.03-.06v-.02s.03-.03.04-.04c0,0,0,0,.01-.02,0,0,.02-.03.03-.04,0,0,0,0,.01-.02,0,0,.02-.03.03-.04v-.02s.02-.03.03-.04h0l.03-.06h0s.02-.04.03-.05c0,0,0,0,.01-.02.01-.02.02-.03.03-.04v-.02s.02-.03.03-.05h0s.02-.04.03-.05h0s.02-.04.03-.05h0s.02-.04.03-.06h0s.02-.04.03-.06h0s.02-.04.03-.06h0s.02-.04.03-.06h0s.02-.04.03-.06h0s.02-.03.03-.05h0s.02-.03.03-.05h0s.02-.04.03-.06h0s.02-.04.03-.06h0s.02-.04.03-.05h0s.05-.08.07-.11h0s.02-.04.04-.06h0s.02-.04.04-.06h0c.13-.19.25-.39.38-.58l-6.68-4.42h0l.2-.08Zm-4.01,6.55c-.78,1.39-1.55,2.81-2.27,4.23l7.14,3.63h0c.45-.89.92-1.77,1.39-2.65h0l.03-.06h0c.03-.06.07-.12.1-.18h0l.03-.06h0s.02-.04.03-.06h0l.03-.06h0c.03-.06.07-.12.1-.18h0l.03-.06h0c.11-.2.23-.4.34-.61l-6.97-3.94h.02Zm-3.54,6.82c-.68,1.44-1.35,2.91-1.97,4.38l7.38,3.12c.58-1.37,1.18-2.72,1.82-4.06l-7.23-3.44h0Zm-3.05,7.05c-.58,1.48-1.14,3-1.65,4.51l7.58,2.58c.03-.1.07-.2.1-.3h0s.01-.04.02-.06v-.02s0-.02.01-.03c0-.01,0-.02.01-.04v-.03s0-.03.01-.04v-.02s.01-.03.02-.04v-.02s.01-.03.02-.05h0s.01-.05.02-.07h0s.01-.04.02-.06h0s.01-.04.02-.06h0c.26-.74.53-1.48.81-2.22h0s.02-.04.02-.06h0s.02-.04.02-.06h0s.02-.04.02-.06h0s.01-.04.02-.06h0s.01-.04.02-.06v-.02s.01-.03.02-.05v-.02s0-.02.01-.04c0-.01,0-.02.01-.03,0,0,0-.02.01-.03,0-.02.01-.03.02-.05v-.02c.07-.18.14-.36.21-.54l-7.46-2.92h.09Zm-2.54,7.25c-.47,1.52-.92,3.08-1.33,4.62l7.74,2.04c.38-1.44.79-2.86,1.23-4.28l-7.65-2.38h0Zm-2.02,7.41c-.36,1.55-.7,3.13-1,4.7l7.87,1.49c.05-.26.1-.51.15-.77h0v-.04h0v-.04h0v-.03h0v-.07h0v-.03h0v-.04h0v-.03h0v-.03h0c.15-.77.32-1.54.49-2.31h0s.01-.05.02-.07h0c.02-.09.04-.18.06-.27h0c.05-.2.09-.41.14-.61l-7.8-1.83h0l.07-.02Zm-1.49,7.54c-.25,1.57-.48,3.17-.66,4.76l7.95.93c.07-.63.15-1.27.24-1.9h0v-.03h0v-.04h0v-.03h0s.01-.08.02-.13h0v-.03h0v-.07h0v-.03h0c0-.05.01-.09.02-.13h0v-.03h0v-.11h0v-.03h0v-.06h0v-.03h0v-.02h0v-.07h0v-.04h0c0-.05.02-.11.02-.16h0v-.03h0v-.03h0c.07-.44.13-.89.21-1.33l-7.91-1.28h0l.11-.08Zm-.96,7.62c-.14,1.58-.25,3.2-.33,4.79l8,.37c.03-.72.07-1.45.12-2.16h0v-.03h0v-.25h0v-.03h0v-.03h0c.04-.63.1-1.27.15-1.9h0v-.02h0l-7.98-.73h.04Zm-.42,7.66c0,.74-.02,1.47-.02,2.21,0,.86.01,1.72.03,2.58l8.01-.19c0-.2,0-.4-.01-.59h0v-.08h0v-.04h0v-.04h0c0-.43-.01-.85-.01-1.27h0v-.04h0v-.03h0v-.03h0v-.04h0v-.04h0v-.04h0v-.08h0v-.05h0v-.06h0v-.07h0v-.42h0v-.08h0c0-.45,0-.89.02-1.34v-.1h0l-8.01-.16h-.04.03Zm8.11,7.28l-8,.4c.08,1.59.19,3.2.34,4.79l7.97-.74c-.03-.34-.06-.69-.09-1.03h0v-.03h0v-.1h0v-.04h0v-.04h0v-.04h0c-.08-1.05-.15-2.09-.2-3.15h0l-.02-.02Zm.6,7.09l-7.95.95c.19,1.58.42,3.18.68,4.75l7.9-1.3c-.24-1.46-.45-2.93-.63-4.41h0Zm1.1,7.03l-7.86,1.51c.3,1.57.64,3.15,1.01,4.7l7.79-1.86c-.11-.45-.21-.89-.31-1.34h0v-.04h0s-.01-.05-.02-.08h0v-.09h0v-.03h0v-.03h0c-.2-.9-.39-1.81-.56-2.72h0l-.05-.02Zm1.59,6.94l-7.74,2.07c.41,1.54.86,3.09,1.34,4.61l7.64-2.41c-.21-.68-.42-1.37-.62-2.06h0s-.01-.04-.02-.06h0s-.01-.05-.02-.07h0s-.01-.04-.02-.06h0s-.01-.04-.02-.06h0s-.01-.05-.02-.07h0s-.01-.05-.02-.07h0s-.01-.05-.02-.07h0s0-.04-.01-.06v-.02s-.01-.03-.02-.05v-.02s0-.03-.01-.05v-.02s0-.03-.01-.05v-.06s0-.02-.01-.04v-.07s-.02-.02-.02-.03v-.06s0-.03-.01-.05h0s-.01-.05-.02-.07h0s-.01-.05-.02-.08h0c-.02-.07-.03-.13-.05-.19h0s-.01-.05-.02-.08h0c-.07-.26-.14-.51-.21-.77h0l-.07.02Zm2.08,6.81l-7.57,2.61c.52,1.51,1.08,3.02,1.67,4.51l7.45-2.94c-.54-1.38-1.06-2.77-1.54-4.17h-.01Zm2.56,6.64l-7.37,3.14c.62,1.47,1.29,2.94,1.98,4.38l7.22-3.46c-.21-.44-.42-.88-.62-1.32h0s-.02-.04-.03-.06h0s-.02-.04-.03-.06h0s-.02-.04-.03-.06h0s-.02-.03-.02-.05h0s-.02-.04-.02-.06v-.02s-.01-.03-.02-.05v-.02s-.01-.03-.02-.04c0,0,0-.02-.01-.02,0,0,0-.02-.01-.03,0,0-.01-.02-.02-.04,0,0,0-.02-.01-.02,0-.02-.01-.03-.02-.05v-.02s-.02-.04-.03-.06h0c-.31-.68-.61-1.37-.9-2.06h0l-.04-.02Zm3.02,6.44l-7.13,3.65c.73,1.42,1.5,2.84,2.29,4.22l6.96-3.97h0s-.01-.03-.02-.05c0,0-.01-.02-.02-.03,0,0,0-.02-.01-.02,0-.02-.02-.03-.03-.05h0c-.5-.89-.99-1.78-1.46-2.68h0s-.02-.04-.03-.06h0s-.02-.04-.03-.05h0s-.02-.04-.02-.04c0,0-.01-.03-.02-.04,0,0,0-.02-.01-.02,0,0-.01-.03-.02-.04,0,0,0,0-.01-.02,0,0-.01-.03-.02-.04h0s-.02-.04-.03-.06h0s-.02-.05-.03-.06h0s-.02-.04-.03-.06h0c-.1-.18-.19-.37-.29-.56h0l-.04-.02Zm3.47,6.21l-6.85,4.15c.83,1.36,1.69,2.73,2.58,4.05l6.66-4.45c-.33-.5-.66-1-.99-1.51h0s-.02-.04-.04-.06h0s-.02-.03-.03-.05h0s-.02-.03-.03-.05h0s-.02-.04-.03-.05h0s-.02-.03-.03-.05h0s-.02-.03-.03-.05h0s-.02-.04-.03-.06h0s-.02-.04-.03-.06h0s-.02-.04-.03-.06h0s-.02-.04-.03-.05h0s-.02-.04-.03-.05h0s-.02-.04-.03-.05c0,0,0,0-.01-.02-.01-.02-.02-.03-.03-.04,0,0,0,0-.01-.02,0,0-.02-.03-.03-.04,0,0,0,0-.01-.02-.01-.02-.02-.03-.03-.04h0s-.02-.04-.02-.05c0,0,0,0-.01-.02,0,0-.02-.03-.03-.04h0s-.02-.04-.03-.05c0,0,0,0-.01-.02-.01-.02-.02-.03-.03-.04,0,0,0,0-.01-.02,0,0-.02-.03-.03-.04,0,0,0,0-.01-.02,0,0-.02-.03-.02-.04,0,0,0,0-.01-.02,0,0-.01-.02-.02-.03,0,0-.01-.02-.02-.02,0,0-.01-.02-.02-.04,0,0,0,0-.01-.02,0,0-.02-.03-.03-.04,0,0,0,0-.01-.02-.01-.02-.02-.03-.03-.04,0,0,0,0-.01-.02,0,0-.02-.03-.03-.04,0,0,0,0-.01-.02,0,0-.02-.03-.03-.04,0,0,0,0-.01-.02,0,0-.02-.02-.02-.04,0,0,0,0-.01-.02,0,0-.02-.03-.02-.04,0,0,0,0-.01-.02,0,0-.02-.03-.03-.04,0,0,0,0-.01-.02,0-.02-.02-.03-.03-.04,0,0,0,0-.01-.02,0,0-.02-.03-.03-.04,0,0,0,0-.01-.02,0,0-.02-.03-.02-.04,0,0,0,0-.01-.02,0,0-.02-.03-.02-.04,0,0,0,0-.01-.02,0-.02-.02-.03-.03-.04v-.02s-.02-.03-.03-.05v-.02s-.02-.03-.03-.05v-.02s-.02-.03-.03-.05h0l-.11-.04Zm3.9,5.95l-6.54,4.62c.92,1.3,1.88,2.6,2.85,3.86l6.33-4.9c-.58-.75-1.15-1.51-1.71-2.27h0s-.02-.03-.04-.05h0s-.02-.03-.03-.05h0s-.02-.04-.03-.05h-.01s-.02-.03-.03-.05c0,0,0,0-.01-.02,0,0-.02-.02-.02-.03,0,0-.01-.02-.02-.03,0,0-.01-.02-.02-.03,0,0-.02-.02-.03-.04,0,0-.01,0-.01-.02-.02-.03-.04-.06-.06-.09h0s-.03-.04-.04-.06h0c-.18-.26-.37-.52-.55-.77h0l-.03-.02Zm4.31,5.67l-6.2,5.07c1.01,1.23,2.06,2.46,3.12,3.65l5.97-5.33c-.05-.06-.1-.11-.15-.17,0,0,0,0-.02-.02l-.02-.03s-.02-.02-.03-.03h0s-.03-.04-.04-.05h0s-.03-.03-.04-.05h0s-.03-.03-.04-.05h0c-.54-.61-1.06-1.22-1.59-1.84h0s-.03-.03-.04-.05h0s-.02-.03-.04-.04h0s-.02-.04-.04-.05h-.01s-.02-.03-.03-.04c0,0-.01-.02-.02-.03,0,0-.01-.02-.02-.02,0,0-.02-.02-.03-.03,0,0,0,0-.02-.02-.01-.02-.03-.03-.04-.05h0c-.21-.26-.42-.51-.63-.77h0l-.03-.05Zm4.69,5.35l-5.83,5.49c1.09,1.16,2.22,2.31,3.37,3.42l5.59-5.74h0s-.03-.03-.04-.04h0s-.03-.03-.04-.05h0s-.03-.04-.04-.05c0,0,0,0-.02-.02,0,0-.02-.02-.03-.03,0,0-.02-.02-.03-.02,0,0,0,0-.02-.02,0,0-.02-.02-.03-.03,0,0,0,0-.02-.02,0,0-.02-.02-.03-.03l-.02-.02s-.09-.09-.13-.13h0s-.03-.04-.05-.05h0s-.03-.04-.05-.05h0c-.28-.28-.55-.55-.83-.83h0s-.03-.04-.05-.05h0s-.03-.04-.05-.05h0s-.09-.09-.13-.14h0s-.03-.03-.05-.05h0s-.03-.04-.04-.05h0s-.02-.03-.03-.05c0,0,0,0-.02-.02,0,0,0,0-.02-.02,0,0-.02-.02-.03-.03,0,0,0,0-.02-.02,0,0-.02-.02-.03-.03,0,0,0,0-.02-.02,0,0-.02-.02-.03-.03,0,0,0,0-.02-.02,0,0-.02-.02-.03-.03,0,0,0,0-.02-.02,0,0-.02-.02-.03-.03h0s-.03-.04-.04-.05h0s-.03-.03-.04-.04h0s-.03-.03-.04-.04h0c-.3-.32-.61-.63-.91-.95h0l-.06-.04Zm5.06,5.01l-5.43,5.88c1.17,1.08,2.38,2.15,3.6,3.18l5.17-6.12c-.57-.48-1.13-.96-1.68-1.45h0c-.09-.08-.17-.15-.26-.23h0s-.03-.03-.05-.04h0s-.03-.03-.05-.04h0s-.03-.03-.05-.04h0s-.06-.06-.1-.09h0s-.03-.03-.05-.04h0s-.03-.03-.05-.04h0s-.03-.03-.04-.04h0s-.03-.03-.04-.04h0s-.03-.03-.05-.04h0s-.03-.03-.04-.04h0s-.03-.03-.04-.04h0s-.03-.02-.04-.04h0s-.03-.03-.04-.04h0s-.03-.03-.04-.04h0s-.03-.03-.04-.04h0s-.03-.03-.04-.04h0s-.03-.03-.04-.04h0s-.03-.03-.04-.05h0s-.02-.03-.04-.04h0s-.03-.03-.04-.04c0,0,0,0-.02,0,0,0-.03-.02-.03-.03,0,0,0,0-.02-.02,0,0-.02-.02-.03-.03,0,0-.02,0-.02-.02,0,0-.02-.02-.03-.03,0,0,0,0-.02-.02,0,0-.02-.02-.03-.03,0,0,0,0-.02-.02,0,0-.02-.02-.03-.03,0,0,0,0-.02-.02,0,0-.02-.02-.03-.02h0s-.11-.12-.11-.12Zm5.39,4.64l-5.01,6.25c1.24,1,2.53,1.98,3.81,2.92l4.73-6.46c-.37-.27-.73-.54-1.09-.81h0s-.04-.03-.06-.05h0s-.02-.02-.03-.03c0,0-.02,0-.03-.02,0,0-.02,0-.03-.02,0,0-.02,0-.03-.02,0,0-.02,0-.03-.02,0,0-.02-.02-.03-.02,0,0,0,0-.02-.02,0,0-.03-.02-.04-.03h0s-.03-.02-.04-.03h0s-.03-.02-.05-.04h0s-.03-.03-.05-.04h0c-.66-.5-1.32-1.02-1.97-1.54h0v-.02Zm5.71,4.25l-4.56,6.59c1.31.91,2.66,1.8,4.01,2.64l4.26-6.78c-.3-.19-.61-.38-.91-.58h0s-.04-.03-.06-.04h0s-.03-.02-.05-.03c0,0,0,0-.02,0,0,0-.02,0-.03-.02,0,0-.02-.02-.03-.02,0,0-.02,0-.02-.02,0,0-.02-.02-.04-.02,0,0,0,0-.02,0,0,0-.03-.02-.04-.02,0,0,0,0-.02,0,0,0-.03-.02-.04-.03h0s-.03-.02-.05-.03h0s-.03-.02-.05-.03h0s-.03-.02-.05-.03h0s-.03-.02-.05-.03h0c-.74-.48-1.47-.97-2.19-1.47h0v-.05Zm5.99,3.84l-4.08,6.89c1.37.81,2.78,1.61,4.18,2.36l3.77-7.06c-.74-.4-1.48-.8-2.21-1.22h0s-.04-.02-.06-.04h-.02s-.03-.02-.04-.03c0,0,0,0-.02,0,0,0-.03,0-.04-.02,0,0-.02,0-.03,0,0,0-.02,0-.03-.02,0,0-.02,0-.03-.02,0,0,0,0-.02,0,0,0-.03-.02-.04-.02,0,0,0,0-.02,0,0,0-.03-.02-.05-.03h0s-.03-.02-.05-.03h0s-.04-.02-.05-.03h0s-.04-.02-.06-.03h0s-.04-.02-.05-.03h0s-.04-.02-.06-.03h0c-.32-.18-.64-.37-.96-.56h0l-.02-.04Zm6.25,3.41l-3.59,7.16c1.43.71,2.89,1.41,4.34,2.06l3.27-7.31c-.07-.03-.14-.06-.21-.1h0s-.04-.02-.06-.03h-.02s-.03,0-.04-.02c0,0-.02,0-.03,0,0,0-.02,0-.03,0-.01,0-.03,0-.04-.02h-.02s-.03,0-.05-.02h-.02s-.03-.02-.05-.02h-.01s-.04-.02-.05-.02h0s-.04-.02-.06-.03h0s-.04-.02-.06-.03h0s-.04-.02-.06-.03h0c-.93-.42-1.85-.86-2.76-1.31h0s-.04-.02-.06-.03h0s-.04-.02-.06-.03h0s-.04-.02-.05-.03h-.01s-.03-.02-.05-.02c0,0-.01,0-.02,0-.01,0-.03,0-.04-.02,0,0-.02,0-.03,0h-.02l-.05-.03h0s-.02,0-.03-.02h0l-.03-.06Zm6.47,2.96l-3.07,7.4c1.47.61,2.98,1.2,4.48,1.74l2.74-7.53c-.75-.27-1.5-.55-2.24-.84h0s-.04-.02-.07-.03h0s-.04-.02-.07-.03h0s-.07-.03-.11-.04h0s-.04-.02-.07-.03h0s-.04-.02-.06-.02h0s-.04-.02-.06-.03h0s-.05-.02-.07-.03h0s-.07-.03-.11-.04h0s-.04-.02-.07-.03h0s-.05-.02-.07-.03h0c-.37-.15-.75-.3-1.12-.46h-.03Zm6.67,2.49l-2.54,7.6c1.51.51,3.06.98,4.59,1.42l2.2-7.7c-.57-.16-1.14-.33-1.7-.5h0s-.05-.02-.07-.02h0c-.06-.02-.12-.04-.18-.06h0s-.04,0-.07-.02h0s-.05-.02-.07-.02h0s-.07-.02-.11-.04h0s-.05,0-.07-.02h0s-.04,0-.07-.02h0c-.63-.2-1.25-.4-1.88-.61h-.03Zm6.83,2.01l-1.99,7.76c1.54.4,3.12.76,4.68,1.09l1.65-7.84c-.36-.08-.73-.15-1.09-.23h-.06c-1.06-.24-2.12-.49-3.17-.76h0l-.02-.02Zm6.95,1.52l-1.44,7.88c1.57.29,3.16.54,4.74.76l1.09-7.93c-.87-.12-1.74-.25-2.61-.39h-.17c-.54-.09-1.08-.18-1.61-.28h0v-.04Zm7.04,1.03l-.88,7.96c1.58.17,3.19.32,4.78.42l.53-7.99c-1.11-.07-2.2-.16-3.29-.27h-.2c-.31-.03-.61-.06-.91-.1h0l-.03-.02Zm7.1.53l-.32,8c1.47.06,2.95.09,4.42.09h.37l-.03-8.01h-1.74c-.51,0-1.03-.02-1.54-.03h-.65c-.17,0-.34,0-.51-.02h0v-.03Zm11.56-.19c-1.47.11-2.95.18-4.44.23l.23,8.01c1.59-.05,3.2-.13,4.79-.24l-.58-7.99h0Zm7.08-.77c-.81.12-1.62.22-2.44.32h-.24c-.57.07-1.14.13-1.72.19l.79,7.97c1.59-.16,3.19-.35,4.77-.58l-1.14-7.93h0l-.02.03Zm7-1.26c-.71.15-1.43.3-2.15.44h-.15c-.68.13-1.36.26-2.05.37l1.35,7.89c1.57-.27,3.16-.58,4.72-.92l-1.7-7.83h0l-.02.05Zm6.9-1.76c-1.18.35-2.37.67-3.57.97h0s-.1.03-.15.04h-.15c-.13.03-.27.07-.4.1l1.91,7.78c1.55-.38,3.11-.8,4.64-1.25l-2.25-7.69h0l-.03.05Zm6.76-2.24s-.08.03-.13.05h0s-.04,0-.06.02h0s-.04,0-.05.02h0s-.03,0-.05.02h0s-.03,0-.05.02h-.02s-.03,0-.04.02h-.02s-.03,0-.05.02h-.02s-.03,0-.04.02h-.02s-.02,0-.03,0c0,0-.02,0-.04,0h-.03s-.03,0-.04,0h-.03s-.03,0-.04,0h-.03s-.02.02-.03.02c0,0-.02,0-.03,0,0,0-.03,0-.04,0h-.02s-.03,0-.05.02h-.02s-.03,0-.05.02h-.02s-.04,0-.05.02h-.02s-.02,0-.03,0h-.02s-.04,0-.05.02h-.02s-.04,0-.05.02h-.02s-.03,0-.05.02h-.02s-.03,0-.05.02h-.02s-.02,0-.03,0h-.02s-.03,0-.05.02h-.03s-.03,0-.04,0h-.02s-.03,0-.04,0h-.06s-.03,0-.04,0h-.03s-.03.02-.04.02h-.02s-.02,0-.03,0c0,0-.02,0-.03,0,0,0-.02,0-.03,0h-.03s-.03,0-.04,0h-.02s-.03,0-.05.02h-.02s-.03,0-.05.02h-.02s-.03,0-.05.02h0s-.03,0-.05.02h0s-.04,0-.05.02h0s-.04,0-.06.02h0s-.04,0-.06.02h0s-.04,0-.06.02h0s-.09.03-.13.04h0s-.04,0-.06.02t0,0c-.46.16-.92.31-1.39.46l2.45,7.62c1.52-.49,3.04-1.02,4.54-1.57l-2.79-7.51h0l-.03.24Zm6.58-2.72c-.17.08-.34.15-.5.23h0s-.04.02-.06.03h0s-.04.02-.06.03h0s-.08.04-.12.06h0s-.04.02-.06.03h0s-.04.02-.06.02h0s-.03.02-.05.02h0s-.04.02-.05.02h0s-.03,0-.05.02h0s-.03.02-.05.02h0s-.03.02-.05.03h-.02s-.03.02-.05.02h-.02s-.03.02-.05.03h0s-.03,0-.04.02h-.02s-.03,0-.04.02h-.02s-.03,0-.04.02c0,0-.02,0-.02,0,0,0-.03,0-.04.02,0,0-.02,0-.03,0,0,0-.02,0-.03,0,0,0-.02,0-.04.02,0,0-.02,0-.03,0,0,0-.03,0-.04.02,0,0,0,0-.02,0-.02,0-.03,0-.05.02h-.02s-.02,0-.03,0c0,0-.02,0-.04.02,0,0-.02,0-.03,0h-.02s-.04.02-.05.02h0s-.04.02-.06.03h0s-.04.02-.06.03h0c-.06.03-.12.05-.18.08h0s-.05.02-.07.03h0c-.56.24-1.13.47-1.7.7l2.99,7.43c1.48-.59,2.96-1.23,4.42-1.89l-3.32-7.29h0l-.06.07Zm6.37-3.17c-.57.31-1.14.61-1.72.91h0s-.04.02-.06.03h0s-.03.02-.05.03h0s-.03.02-.05.03h0s-.03.02-.05.02h-.02s-.03,0-.04.02c0,0-.02,0-.02,0,0,0-.02,0-.03.02,0,0-.02,0-.03,0,0,0-.02,0-.03.02,0,0-.02,0-.02,0,0,0-.03,0-.04.02,0,0-.02,0-.03,0,0,0-.02,0-.03.02,0,0-.02,0-.03.02h-.02s-.03.02-.05.02h0s-.04.02-.05.03h0c-.41.21-.81.41-1.22.61h-.02s-.03.02-.05.02c0,0,0,0-.02,0,0,0-.02,0-.04.02,0,0-.02,0-.03.02,0,0,0,0-.02,0,0,0-.03,0-.04.02h-.02s-.03,0-.05.02h0l3.51,7.2c1.43-.7,2.87-1.44,4.27-2.2l-3.82-7.04h0l-.05.08Zm6.13-3.62c-.98.62-1.96,1.23-2.96,1.82h0s-.03.02-.05.03h0s-.03.03-.05.04h-.02s-.02,0-.04.02l-.03.02s-.02,0-.03.02c-.02,0-.03.02-.05.03h0c-.19.11-.37.22-.56.33l4.01,6.93c1.38-.8,2.76-1.64,4.1-2.49l-4.31-6.75h0Zm5.86-4.04c-.64.48-1.29.95-1.94,1.41h0c-.07.05-.14.1-.21.15h0s-.03.02-.05.04h0s-.03.02-.05.04h0s-.03.02-.05.03h0s-.03.02-.04.03c0,0-.02,0-.02.02,0,0-.02,0-.03.02,0,0-.02,0-.03.02,0,0-.02,0-.03.02,0,0-.02,0-.02.02,0,0-.02.02-.03.02,0,0-.02,0-.03.02,0,0-.02,0-.03.02,0,0-.02,0-.03.02,0,0,0,0-.02,0,0,0-.03.02-.04.03,0,0,0,0-.02,0,0,0-.03.02-.04.03h0s-.03.02-.05.03h0s-.03.02-.05.03h0c-.25.17-.49.34-.74.51l4.49,6.63c1.32-.89,2.64-1.83,3.92-2.78l-4.77-6.43h0l-.05.05Zm5.56-4.44c-.41.35-.83.7-1.24,1.05h0l-.05.05h0s-.03.03-.05.04h0s-.03.02-.04.03c0,0,0,0-.02,0,0,0-.02,0-.02.02,0,0-.02.02-.03.02l-.03.02s-.02,0-.02.02c0,0-.02.02-.03.03,0,0-.02,0-.02.02l-.03.02s-.02,0-.03.02c0,0-.02,0-.02.02l-.03.03-.02.02s-.03.02-.04.03c0,0,0,0-.02,0,0,0-.02.02-.04.03h0s-.03.03-.04.04h0s-.03.02-.04.03h0s-.03.02-.04.03h0l-.04.04h0s-.03.02-.05.04h0s-.03.03-.05.04h0s-.03.02-.05.04h0s-.07.06-.1.08h0s-.03.03-.05.04h0s-.03.03-.05.04h0s-.04.03-.05.04h0c-.32.26-.65.52-.98.78l4.94,6.3c1.25-.98,2.5-2.01,3.71-3.04l-5.21-6.08h0l-.08.09Zm5.24-4.82l-.21.21h0s-.02.03-.04.04c0,0-.02,0-.02.02,0,0-.02.02-.03.02l-.03.03h0s-.03.03-.04.05h0s-.03.04-.04.05h0l-.04.04h0c-.9.87-1.81,1.73-2.74,2.57l5.37,5.94c1.18-1.07,2.36-2.18,3.49-3.3l-5.62-5.7h0l-.02.03Zm4.89-5.17c-.21.24-.43.49-.64.72h0s-.03.03-.04.05h0l-.04.04h0s-.02.04-.04.05h0s-.02.04-.03.05c0,0,0,0,0,.02l-.03.03-.02.02-.03.03-.02.02-.03.03-.02.02-.03.03-.02.02-.03.03-.02.02-.02.02s-.02.02-.03.03l-.02.02-.03.03-.02.02-.03.03-.02.02s0,.02-.02.02c0,0-.02.02-.02.03l-.03.03s0,0,0,.02c0,0-.02.02-.03.04,0,0,0,0-.02.02,0,0-.02.02-.03.04l-.02.02-.03.03-.02.02s-.02.02-.03.03l-.02.02s0,.02-.02.02l-.03.03-.02.02-.03.03-.02.02s-.02.02-.02.03c0,0-.02.02-.02.03,0,0-.02.02-.02.03l-.02.02-.03.03s0,0,0,.02c0,0-.02.03-.04.04h0s-.02.03-.04.05h0s-.03.04-.04.05h0l-.04.04h0s-.03.03-.04.05h0l-.05.05h0l-.05.05h0c-.3.32-.6.64-.91.96l5.77,5.55c1.1-1.15,2.2-2.34,3.25-3.53l-6.01-5.29h0l-.02.03Zm4.51-5.5c-.08.1-.15.2-.23.29h0s-.03.03-.04.05h0s-.02.04-.03.05c0,0,0,0,0,.02,0,0-.02.03-.03.04,0,0,0,0,0,.02,0,0,0,.02-.02.03,0,0-.02.02-.03.03,0,0,0,.02-.02.02,0,0-.02.02-.03.03l-.02.02s-.02.02-.03.03l-.02.02s-.02.02-.02.03c0,0,0,.02-.02.02l-.03.03s0,0,0,.02c0,0-.02.03-.03.04,0,0,0,0,0,.02,0,0-.02.03-.03.04,0,0,0,0,0,.02,0,.02-.02.03-.03.04h0s-.02.04-.03.05h0s-.02.04-.03.05h0s-.02.04-.03.05h0s-.02.04-.04.06h0s-.02.03-.04.04h0s-.02.04-.03.06h0s-.02.04-.04.05h0s-.02.03-.04.05h0s-.02.03-.04.05h0s-.02.03-.04.05h0s-.02.04-.04.05h0s-.02.04-.04.05h0s-.02.03-.04.05h0s-.03.03-.04.04h0s-.02.03-.03.04h0s-.02.04-.04.05h0s-.02.04-.04.05h0s-.02.04-.03.05h0s-.02.04-.04.05h0s-.02.03-.04.04h0s-.02.03-.04.04h0s-.02.04-.04.05h0s-.02.04-.03.05h0s-.02.04-.03.05h0s-.02.04-.04.05h0s-.02.03-.04.04h0s-.02.03-.03.04h0s-.02.04-.04.05h0s-.02.04-.03.05h0s-.02.04-.04.05h0s-.02.04-.04.05h0s-.02.04-.03.05h0s-.02.03-.03.04h0s-.02.04-.04.05h0s-.02.04-.03.05h0s-.02.04-.03.05h0s-.02.04-.04.05h0s-.02.04-.03.05h0s-.02.04-.03.05h0s-.02.04-.04.05h0s-.02.04-.04.05h0s-.02.04-.04.05h0s-.02.04-.04.05h0s-.02.03-.04.04h0s-.02.03-.04.04h0s-.03.03-.04.05h0s-.02.03-.04.04h0l6.15,5.13c1.02-1.22,2.03-2.48,3-3.75l-6.37-4.86h0l-.29.31Zm4.12-5.81s-.06.09-.09.13h0s-.02.04-.03.06c0,0,0,0,0,.02,0,0-.02.03-.03.04,0,0,0,.02-.02.02,0,0,0,.02-.02.03,0,0,0,.02-.02.04,0,0,0,0,0,.02,0,0-.02.03-.03.04v.02l-.04.04v.02s-.03.03-.04.05h0s-.02.03-.03.05h0s-.02.04-.03.05h0s-.02.03-.03.05h0s-.02.04-.03.05h0s-.02.04-.04.05h0c-.65.96-1.31,1.91-1.99,2.85l6.49,4.69c.93-1.29,1.85-2.62,2.73-3.95l-6.69-4.4h0l-.04.03Zm3.7-6.08c-.12.22-.25.44-.38.66h0s-.02.03-.03.05h0s-.02.04-.03.06h0s-.02.04-.03.06h0s-.02.04-.02.05c0,0,0,0,0,.02,0,0,0,.02-.02.04v.02s-.03.02-.03.03c0,0,0,.02,0,.02,0,0,0,.02-.02.04,0,0,0,.02-.02.03,0,0,0,.02-.02.03,0,0,0,.02-.02.04h0s-.02.04-.03.06h0s-.02.04-.04.06h0c-.49.85-1,1.7-1.52,2.53l6.81,4.22c.84-1.35,1.66-2.75,2.44-4.14l-6.99-3.92h0l-.03.04Zm3.26-6.33c-.63,1.34-1.3,2.67-1.99,3.98l7.09,3.73c.74-1.41,1.46-2.86,2.14-4.3l-7.24-3.41h0Zm2.8-6.54c-.54,1.38-1.1,2.76-1.7,4.11l7.33,3.22c.64-1.46,1.26-2.95,1.83-4.44l-7.47-2.89h0Zm2.33-6.72c-.2.65-.41,1.31-.62,1.95h0s-.02.05-.02.07h0s-.02.05-.02.08h0s-.02.07-.03.11v.02s0,.03-.02.05v.02s0,.03,0,.04c0,0,0,.02,0,.03v.03s0,.03,0,.04v.02s0,.03-.02.05v.02s0,.03-.02.05v.02s0,.03-.02.05h0s0,.05-.02.06h0s0,.05-.02.06h0s0,.05-.02.07h0s0,.05-.02.07h0s0,.04-.02.06h0s0,.04-.02.06h0s0,.05-.02.07h0s0,.04-.02.06h0s-.03.08-.04.12h0s0,.04-.02.06h0s0,.04-.02.06h0s0,.05-.02.07h0s0,.04-.02.06h0s0,.04-.02.06h0s0,.04-.02.06h0s0,.04-.02.06h0s0,.05-.02.06h0s0,.04-.02.06v.02s0,.03-.02.04v.02s0,.03-.02.05v.02s0,.03-.02.04v.03s0,.02,0,.03c0,0,0,.03,0,.04v.04l7.54,2.69c.54-1.5,1.05-3.04,1.51-4.56l-7.65-2.36h0l-.14.07Zm1.85-6.87c-.05.2-.09.39-.14.59h0v.04h0v.04h0v.03h0v.03h0v.03s0,.03,0,.05h0s0,.05-.02.07h0v.03h0v.03h0c-.09.38-.19.76-.28,1.15h0v.03h0v.03h0v.03h0v.03h0v.03h0s0,.04,0,.06h0v.08h0v.04h0v.03h0v.04h0c-.15.6-.31,1.2-.48,1.79l7.71,2.15c.43-1.54.83-3.1,1.19-4.66l-7.8-1.81h0l-.16.04Zm1.36-6.99c-.09.57-.19,1.15-.29,1.72h0v.03h0v.13h0v.04h0s0,.08-.02.12h0c-.13.71-.26,1.42-.4,2.13h0s-.02.08-.02.11v.07h0v.03h0l7.85,1.6c.32-1.56.61-3.15.85-4.73l-7.91-1.25h-.06Zm.86-7.06c-.03.4-.07.81-.11,1.21h0v.03h0v.04h0v.11h0v.08h0v.03h0v.03h0v.04h0c-.1.95-.21,1.9-.33,2.84l7.94,1.04c.21-1.58.38-3.18.52-4.77l-7.98-.69h-.04Zm.37-7.11c0,.35,0,.7-.02,1.04h0v.03h0v.15h0v.03h0v.03h0v.03h0c0,.5-.03,1-.06,1.49h0v.12h0v.04h0v.03h0v.04h0v.03h0v.19h0v.03h0c-.02.38-.04.74-.06,1.11l7.99.48c.1-1.59.16-3.2.18-4.79l-8.01-.13h0l-.02.05Zm7.87-7.54l-8,.42c.02.42.04.84.06,1.26h0v.04h0v.04h0v.09h0v.03h0v.04h0v.03h0c.03.77.05,1.54.06,2.32h0v.14h0v.08h0v.34l8.01-.07c0-1.59-.06-3.21-.15-4.79h0l.02.03Zm-.67-7.65l-7.95.98c.18,1.47.33,2.94.45,4.43l7.98-.63c-.13-1.59-.29-3.2-.48-4.78h0Zm-1.21-7.59l-7.86,1.54c.11.55.21,1.1.31,1.65h0v.04h0v.04h0s0,.08.02.12h0v.04h0v.03h0v.17h0v.06h0v.02h0v.03h0v.04h0v.03h0v.03h0s.02.09.02.14h0v.03h0v.03h0v.03h0c0,.08.03.16.04.24h0v.03h0c0,.07.02.14.03.2h0v.03h0v.03h0v.03h0v.03h0v.04h0v.07h0v.11h0v.04h0v.03h0c.05.3.09.6.14.9l7.92-1.19c-.24-1.58-.51-3.17-.82-4.73h0l.2.07Zm-1.74-7.49l-7.73,2.09c.16.59.32,1.19.47,1.79h0v.03h0v.03h0v.04h0v.11s.02.05.02.08h0v.03h0v.03h0v.03h0v.03h0c.17.7.34,1.4.49,2.1l7.82-1.75c-.35-1.56-.74-3.13-1.15-4.66h0l.08.02Zm-2.27-7.34l-7.56,2.64c.49,1.4.94,2.81,1.37,4.23l7.67-2.3c-.46-1.53-.96-3.07-1.48-4.57h0Zm-2.79-7.16l-7.36,3.17c.18.42.36.85.54,1.28h0s.02.04.02.06h0s.02.04.02.06h0s0,.05.02.06h0s0,.04.02.05c0,0,0,.02,0,.03,0,.01,0,.03.02.04v.02s0,.03.02.04c0,0,0,.02,0,.03,0,.01,0,.03.02.04,0,0,0,.02,0,.03v.02s0,.04.02.05h0s.02.05.03.07h0c.3.74.59,1.48.87,2.23l7.49-2.84c-.56-1.49-1.17-2.99-1.8-4.45h.04Zm-3.29-6.95l-7.11,3.68h0s.02.03.02.04c0,0,0,0,0,.02,0,0,0,.03.02.04,0,0,0,.02,0,.02,0,0,0,.02.02.04,0,0,0,.02.02.03,0,0,0,.02,0,.03,0,0,0,.03.02.04,0,0,0,0,0,.02,0,0,0,.03.02.04,0,0,0,.02,0,.02,0,.02.02.04.03.05h0s0,.02.02.03h0s.02.05.03.07h0s.02.05.03.07h0c.44.87.87,1.73,1.28,2.61h0s.02.04.02.06c0,0,0,.01,0,.02,0,.01,0,.03.02.04,0,.01,0,.02,0,.03,0,0,0,.02,0,.03,0,.01,0,.03.02.04v.02s.02.03.03.05v.02s.02.03.02.05h0c.07.14.14.29.2.44l7.27-3.36c-.67-1.45-1.38-2.9-2.11-4.31h0l.05.02Zm-3.77-6.7l-6.84,4.17c.23.38.45.75.68,1.13h0s.02.03.03.05h0s.02.03.03.05h0s.03.06.03.06h0s.02.04.02.05c0,0,0,0,0,.02,0,0,0,.02.02.03,0,0,0,.02.02.03,0,0,0,.02.02.03,0,0,0,0,0,.02,0,0,0,.02.02.04,0,0,0,.02,0,.03,0,0,0,.03.02.04,0,0,0,.02.02.03,0,0,0,0,0,.02,0,0,.02.03.03.04v.02s.02.03.03.05h0s.02.05.03.07h0s.06.11.09.16h0c.36.62.7,1.23,1.05,1.86l7.01-3.87c-.77-1.4-1.58-2.79-2.41-4.15h0l.06.02Zm-4.23-6.41l-6.53,4.64c.86,1.21,1.69,2.44,2.5,3.68l6.72-4.35c-.87-1.34-1.77-2.67-2.7-3.97h0Zm-4.67-6.1l-6.18,5.09c.43.52.86,1.05,1.28,1.59h0s.03.03.04.05h0s.03.03.04.05h0s.02.04.03.05v.02s.03.03.04.04h0s0,.03.02.04c0,0,0,0,0,.02,0,0,.02.03.03.04v.02s.03.03.04.04c0,0,0,0,0,.02,0,0,.02.02.03.04,0,0,0,0,0,.02,0,0,.02.03.03.04,0,0,0,0,0,.02,0,0,0,.02.02.03,0,0,.02.02.02.03,0,0,0,.02.02.03,0,0,0,.02.02.02,0,0,.02.02.03.03,0,0,0,0,.02.02,0,0,.02.02.03.04,0,0,0,0,0,.02,0,0,.02.03.03.04h0s.02.04.03.06h0s.03.05.04.06h0s.05.06.07.09h0s.03.04.04.06h0s.03.04.04.06h0c.2.27.41.53.61.8l6.4-4.81c-.96-1.27-1.96-2.54-2.97-3.77h.08Zm-5.08-5.76l-5.81,5.51c.08.08.16.17.24.25h0s.03.03.04.05h0s.03.03.04.04h0s.02.02.03.04c0,0,0,0,.02.02,0,0,.02.02.03.03,0,0,0,0,.02.02,0,0,.02.02.03.03,0,0,0,.02.02.02,0,0,0,0,.02.02,0,0,.02.03.04.04h0s.03.04.05.06h0c.81.87,1.61,1.76,2.4,2.67l6.05-5.25c-1.04-1.2-2.13-2.4-3.22-3.56h0Zm-5.47-5.39l-5.41,5.9c1.09,1,2.16,2.03,3.21,3.08l5.67-5.66c-1.13-1.13-2.29-2.24-3.47-3.32h0Zm-5.84-4.99l-4.99,6.27c.82.65,1.62,1.31,2.42,1.98h0s.03.03.05.04h0s.03.03.04.04h0s.03.02.04.04h0s.03.03.04.04h0s.02.03.03.04c0,0,0,0,.02.02,0,0,.02.02.03.03,0,0,0,0,.02,0,0,0,.02.02.04.03,0,0,0,0,.02.02,0,0,.02.02.04.03,0,0,0,0,.02.02,0,0,.02.02.03.03,0,0,0,0,.02.02,0,0,.02,0,.03.02,0,0,.02.02.03.03,0,0,0,0,.02.02,0,0,.02.02.03.03,0,0,0,0,.02.02,0,0,.02.02.03.03,0,0,.02,0,.02.02,0,0,.02,0,.02.02,0,0,.02.02.03.03,0,0,0,0,.02.02,0,0,.02.02.03.03,0,0,0,0,.02.02,0,0,.02.02.03.03,0,0,0,0,.02.02,0,0,.02.02.03.03,0,0,.02,0,.02.02,0,0,.02.02.03.02,0,0,0,0,.02.02,0,0,.02.02.04.03h0l5.26-6.04c-1.2-1.05-2.44-2.08-3.69-3.07h.04Zm-6.17-4.57l-4.53,6.6c.59.41,1.18.82,1.76,1.24h0s.04.03.06.04h0s.07.05.11.08h0s.04.03.05.04h0s.03.02.05.03h0s.03.02.04.03h0s.03.02.04.03c0,0,0,0,0,.01,0,0,.03.02.04.03,0,0,0,0,.02.01,0,0,.02.02.03.02,0,0,.02.01.03.02,0,0,.02.01.03.02,0,0,0,0,.02.01,0,0,.02.02.04.03,0,0,.02.01.02.02,0,0,.02.02.03.02,0,0,.02.01.03.02,0,0,0,0,.02.01,0,.01.03.02.04.03h0s.03.02.05.04h0c.34.25.69.51,1.03.76l4.82-6.4c-1.27-.96-2.58-1.9-3.9-2.8h0l.03.06Zm-6.48-4.12l-4.06,6.9h0s.03.02.05.03h0s.04.02.05.03h0c.76.45,1.51.9,2.25,1.37h0s.04.02.06.03h0s.04.02.06.04h0s.08.05.11.07h0s.04.02.05.03h0s.03.02.05.03h0s.04.02.05.03h0s.04.02.05.03h0s.07.05.11.07h0s.04.02.05.03h0s.03.02.05.03h0s.04.02.05.03h0c.21.14.43.27.64.41l4.36-6.72c-1.34-.87-2.71-1.72-4.08-2.52h0l.09.08Zm-6.76-3.66l-3.56,7.17h0s.03.02.04.03c0,0,0,0,.02.01,0,0,.03.01.04.02,0,0,.02,0,.02.01,0,0,.03.01.04.02,0,0,.02,0,.03.01h.02s.03.02.05.02h0s.04.02.06.03h0s.04.03.06.04h0c1.19.6,2.37,1.22,3.53,1.86l3.87-7.01c-1.4-.77-2.83-1.52-4.25-2.23h0v.02Zm-7-3.17l-3.04,7.41c.55.23,1.1.46,1.65.69h0s.02.01.03.02h0s.04.02.06.03h.02s.03.01.04.02c0,0,.02,0,.03.01,0,0,.02,0,.03.01,0,0,.02.01.04.02h.02s.03.01.05.02h.02s.03.01.05.02h0s.03.02.05.02h0c.66.29,1.31.58,1.96.88l3.37-7.27c-1.45-.67-2.93-1.32-4.4-1.92h0v.04Zm-7.21-2.67l-2.51,7.6c.54.18,1.08.36,1.61.55h0s.04.02.06.02h.02s.03.01.05.02h.02s.02,0,.03.01c0,0,.03.01.04.01h.02s.03.01.04.02h.02s.03,0,.04.01h.02s.03.01.05.02h0s.04.01.05.02h0s.04.01.06.02h0c.67.24,1.35.49,2.02.74l2.85-7.49c-1.49-.57-3.01-1.11-4.53-1.61h0l.02.06Zm-7.38-2.15l-1.97,7.76h.03s.04.01.06.02h.04s.03,0,.04.01h.16s.03,0,.05.01h.02s.04,0,.05.01h.02s.04,0,.05.01h0s.04.01.06.02h0s.04.01.06.02h0s.04.01.06.02h0s.05.01.06.02h0c.78.21,1.57.42,2.34.64h0s.04.01.06.02h0s.04.01.06.02h0s.04.01.06.02h0s.03,0,.05.01h.02s.03,0,.04.01h.02s.03,0,.04.01h.03s.03,0,.04.01h.05s.04.01.06.02h0c.19.06.37.11.56.17l2.31-7.67c-1.53-.46-3.08-.89-4.63-1.28h0l.07.12Zm-7.51-1.62l-1.41,7.88h.16s.04,0,.06.01h.15c.08.01.16.03.24.04h.03c.08.02.16.03.24.04h.06c.05.01.11.02.17.03h.39c.94.18,1.87.38,2.8.59l1.76-7.81c-1.55-.35-3.14-.67-4.71-.95h0l.06.17Zm-7.6-1.09l-.85,7.96c.36.04.71.08,1.07.12h.28c.79.1,1.58.2,2.36.31h.12c.18.03.36.05.55.08l1.2-7.92c-1.57-.24-3.18-.45-4.76-.62h0l.03.07Zm-7.66-.55l-.29,8c.39.01.79.03,1.18.05h.31c.66.03,1.31.07,1.97.12h.31c.22.02.44.03.65.05l.64-7.98c-1.59-.13-3.2-.22-4.79-.28h0l.02.04Zm-4.05-.07v8.01h1.09l.05-7.95h-1.18l.04-.06Z" style="fill: #4bd996; stroke-width: 0px;"/>
          <circle cx="108.99" cy="109.07" r="101" style="fill: none; stroke: #fff; stroke-miterlimit: 10; stroke-width: 12.46px;"/>
          <circle cx="108.99" cy="109.07" r="101" style="fill: #41d992; isolation: isolate; opacity: .39; stroke-width: 0px;"/>
        </g>
        <g style="clip-path: url(#clippath);">
          <g>
            <path d="m82.54,179.72c12.88.31,21.4-.77,21.4-.77,0,0-.17,4.84.03,6.38.2,1.54.71,8.51.92,11.59.05.76-.52,5.15-1,11.45-1.22,15.98-2.42,31.67-3.55,47.34h-20.81c.22-16.28.38-32.42.58-49.34.01-1.06-.14-2.94-1.06-2.98-1.91.4-3.31,1.49-4.13,3.72-3.92,10.71-9.15,28.82-14.51,48.6h-22.67c2.48-15.87,4.67-31.8,6.08-47.91.91-10.35,3-21.32,6.66-31.16,11.79,1.96,23.69,2.83,32.07,3.09h-.01Z" style="fill: #595276; fill-rule: evenodd; stroke-width: 0px;"/>
            <path d="m82.54,179.72c12.88.31,21.4-.77,21.4-.77,0,0-.17,4.84.03,6.38.07.57.19,1.89.32,3.49-10.09,3.24-35.35,9.65-57.84,1.65,1.05-4.73,2.38-9.4,4.03-13.84,11.79,1.96,23.69,2.83,32.07,3.09h0Z" style="fill: #4c466a; fill-rule: evenodd; stroke-width: 0px;"/>
            <path d="m81.44,255.7c.36-26.48.61-49.68.53-50.38-.08-.74-.21-1.29-.34-1.67l3.14-.28c.27-.02.46-.26.44-.53s-.26-.47-.52-.45l-3.77.33h-.07l-1.22.11.48-2.78c1.08-.52,3.76-1.91,4.05-3.08.3-1.2,3.63-9.79,3.64-9.82.1-.25-.02-.54-.27-.64s-.53.02-.63.28c0,.03-3.36,8.68-3.68,9.94-.16.65-1.8,1.57-2.91,2.13l2.05-11.93c.05-.27-.13-.52-.39-.57s-.51.13-.56.4l-2.17,12.61c-.22.12-.32.39-.22.63.02.05.05.1.08.13l-.54,3.14s-.01.09,0,.14c.01.14.08.26.18.34h0l.02.02h.01l.02.02h0c.07.04.16.05.25.05l1.56-.14c.11.29.28.82.37,1.69.07.7-.17,23.84-.53,50.28h.96l.04.03Zm-42.95,0h.98c.85-5.7,1.72-11.44,2.54-16.92,2.26-15.05,4.21-28.06,4.85-32.51.5-3.51.98-6.4,1.39-8.74,8.77.91,13.53-5.38,13.55-5.39.17-.21.13-.52-.08-.69-.21-.17-.51-.14-.68.08,0,.02-4.43,5.84-12.62,5.04.91-5.04,1.51-7.19,1.51-7.2.07-.26-.08-.54-.34-.61s-.52.08-.6.34c0,0-.61,2.21-1.55,7.38-.19.05-.33.21-.36.41-.03.19.06.37.2.47-.42,2.35-.89,5.26-1.39,8.77-.62,4.31-2.58,17.38-4.85,32.5-.83,5.52-1.7,11.32-2.56,17.06h.01Zm60.16-69.61c.03-.27-.16-.52-.43-.55s-.5.17-.53.44c0,.02-.84,6.75,6.9,8.85.26.07.52-.09.59-.35.07-.26-.09-.54-.34-.6-6.92-1.88-6.19-7.77-6.18-7.79h-.01Z" style="fill: #4c466a; fill-rule: evenodd; stroke-width: 0px;"/>
            <path d="m48.43,182.3l-.37.87s-.56.63-.24,1.2c.32.57,13.27,9,20.25,11.92,6.98,2.92,10.56-5.04,13.33-9.93,2.77-4.89,7.19,1.34,7.19,1.34l4.63,4.17s1.28,1.14,2.49.5,8.41-5.09,8.41-5.09c0,0,.67-.5.56-1.1-.11-.61-1.49-3.49-1.18-3.49s-55.1-.38-55.1-.38h.03Z" style="fill: #fff; fill-rule: evenodd; stroke-width: 0px;"/>
            <g>
              <path d="m121.99,103.89c-.27,6.48-.93,17.58,4.15,22.67,3.56,3.56,6.23.64,6.23.64,10.8,5.62,23.57-9.13,6.47-15.46l-.43-2.33-11.6-9.28s-4.82,3.76-4.82,3.76Z" style="fill: #4c466a; fill-rule: evenodd; stroke-width: 0px;"/>
              <path d="m159.27,88.91c2.77,11.22,11.59,18.8,8.09,27.77-2.18,5.58-8.49,4.55-8.49,4.55-7.64,10.95-25.13-2.2-11.93-16.38l-.6-3.03,6.83-15.75,6.1,2.83h0Z" style="fill: #4c466a; fill-rule: evenodd; stroke-width: 0px;"/>
            </g>
            <g>
              <polygon points="182.5 73.33 183.43 80.04 183.42 80.53 184.2 85.49 191.99 84.65 192.29 79.64 191.88 77.63 190.52 72.03 182.5 73.33" style="fill: #fcd1c8; fill-rule: evenodd; stroke-width: 0px;"/>
              <path d="m183.03,77.11l.39,2.78c4.17.35,7.11-1.26,8.6-2.36l-.24-.89c-2.05.11-5.98.33-8.75.48h0Z" style="fill: #f8a8a0; fill-rule: evenodd; stroke-width: 0px;"/>
              <path d="m191.09,74.43c-2.38,1.35-5.37,2.12-8.1,1.83-.1-.01-.2.02-.27.1-.07.07-.1.17-.09.27l.31,2.21c.02.16.15.27.3.28,2.98.19,6.1-.6,8.75-1.97.14-.07.21-.23.17-.38l-.59-2.15c-.03-.1-.09-.18-.19-.22s-.2-.03-.29.02h0Z" style="fill: #9e6d82; fill-rule: evenodd; stroke-width: 0px;"/>
              <path d="m191.27,73.63c-.45.12-.58,1.14-.29,2.29.29,1.15.9,1.98,1.35,1.87.45-.12.58-1.14.29-2.29-.29-1.15-.9-1.98-1.35-1.87Z" style="fill: #9e6d82; fill-rule: evenodd; stroke-width: 0px;"/>
              <path d="m191.66,74.36c-.19.09-.19.72,0,1.41s.5,1.18.69,1.1c.19-.09.19-.72,0-1.41s-.5-1.18-.69-1.1Z" style="fill: #735974; fill-rule: evenodd; stroke-width: 0px;"/>
              <path d="m183.42,80.53c.17,1.57,2.12,28.91,2.21,30.42.56,9.43,15.64,7.77,14.08-2.23-1.05-6.71-6.67-25.29-7.42-29.08l-8.87.89h0Z" style="fill: #fcd1c8; fill-rule: evenodd; stroke-width: 0px;"/>
            </g>
            <path d="m183.47,107.28s-14.49,8.2-17.2,9.38c-2.71,1.17-4.74,1.6-4.74,1.6,0,0-2.89,2.99-1.53,11.12,1.35,8.12,7.88,10.4,7.88,10.4,0,0,1.17-3.06,7.16-6.91s19.03-12.9,22.52-15.89,5.99-7.27,4.49-12.04c-1.5-4.77-2.78-8.41-2.92-11.76-.14-3.35-2.56-3.06-2.56-3.06l-1.51-4.04s-.32-1.03-1.3-.78l.31,1.14s-2.35,3.42-10.04,1.92l-.08-1.1s-.59.16-.61.7c-.02.53.04,4.95.04,4.95,0,0-1.46.43-1.6,2.14s1.21,3.95,1.78,6.7c.57,2.74-.38,2.46-.06,5.53h-.03Z" style="fill: #fff; fill-rule: evenodd; stroke-width: 0px;"/>
            <path d="m163.16,136.32c2.22,2.59,4.72,3.46,4.72,3.46,0,0,1.17-3.06,7.16-6.91.97-.62,2.13-1.39,3.4-2.23-.03.02-10.46,5.77-14.21,1.18,0,0-.46,1.97-1.07,4.51h0Z" style="fill: #e4d9e1; fill-rule: evenodd; stroke-width: 0px;"/>
            <path d="m110.75,107.05s3.09,2.34,4.44,4.48c1.35,2.14,14.39,23.09,14.39,23.09,0,0-15.23,10.87-15.23,9.44s-18.26-16.14-16.69-18.63,13.09-18.37,13.09-18.37h0Z" style="fill: #fff; fill-rule: evenodd; stroke-width: 0px;"/>
            <path d="m116.72,143.19c-1.42.82-2.37,1.23-2.37.87,0-.86-6.61-6.52-11.53-11.45.86-3.11,2.55-6.36,2.55-6.36l5.12-1.36,7.79,9.08s-1.56,9.22-1.56,9.22Z" style="fill: #e4d9e1; fill-rule: evenodd; stroke-width: 0px;"/>
            <path d="m130.78,124.72s-2.81.6-5.23,2.81c-2.42,2.21-23.48,20.77-23.48,20.77l.64,14.32,1.71,1.92,19.3-11.36s9.82-25.46,7.06-28.47h0Z" style="fill: #fff; fill-rule: evenodd; stroke-width: 0px;"/>
            <path d="m102.41,155.7l.31,6.92,1.71,1.92,19.29-11.36s2.6-6.73,4.75-13.68c-4.35,4.45-14.74,14.9-18.1,16.8-4.3,2.43-4.9-2.32-4.9-2.32l-2.04.17s-.38.58-1.02,1.55Z" style="fill: #e4d9e1; fill-rule: evenodd; stroke-width: 0px;"/>
            <path d="m125.7,211.11c-.14,5.41.03,11.17.76,16.79,1.22,9.37,2.2,19.36,2.93,27.79h17.55l4.11-40.85s.12-2.51.18-6.13l-25.54,2.4h.01Z" style="fill: #fcd1c8; fill-rule: evenodd; stroke-width: 0px;"/>
            <path d="m125.7,211.11c-.14,5.41.03,11.17.76,16.79.47,3.62.91,7.33,1.31,11.01,1.64.44,8.5,2.14,18.29,1.17,0,0,.51-.14.6-.39.09-.25.11-.77.11-.77,0,0,.69-.04,1.88-.11l2.41-23.96s.12-2.51.18-6.13l-25.54,2.4h0Z" style="fill: #f8a8a0; fill-rule: evenodd; stroke-width: 0px;"/>
            <path d="m150.84,208.75c.06,1.68.09,3.28.08,4.74l4.24,42.2h16.32c1.94-18.15,5.48-33.51,4.34-49.29l-24.98,2.34h0Z" style="fill: #fcd1c8; fill-rule: evenodd; stroke-width: 0px;"/>
            <path d="m150.84,208.75c.06,1.68.09,3.28.08,4.74l2.51,24.94c5.66-.5,13.93-1.45,20.71-3.08,1.35-9.97,2.38-19.38,1.69-28.95l-24.98,2.34h-.01Z" style="fill: #f8a8a0; fill-rule: evenodd; stroke-width: 0px;"/>
            <path d="m130.51,177.34c-.79.07.18,5.43-.57,6.13-3.96,3.65-4.42,7.78-5.12,12.25-2,12.75-5.17,36.86-5.22,37.22-.06.48,3.39,2.19,5.1,2.28l-.15.73s.07.31.43.39c.37.08,7.67,2.36,18.66,1.26,0,0,.51-.14.6-.39.09-.25.11-.77.11-.77,0,0,18-.9,29.58-4.14,0,0,1.01-.44.86-1.6,0,0,6.24-3.16,10.22-4.8,0,0,1.1-.64.58-2.34-4.3-13.9-12.53-38.86-19.23-44.22l-1.15-4.83s.11-.71-1.07-.98c0,0-14.45,3.64-33.62,3.82h-.01Z" style="fill: #595276; fill-rule: evenodd; stroke-width: 0px;"/>
            <path d="m130.24,181.62c0,.88-.06,1.62-.31,1.85-3.96,3.65-4.42,7.78-5.12,12.25l-.14.93c7.59,2.7,27.31,7.48,49.3-5.23-2.57-5.63-5.2-10.14-7.62-12.08l-1.15-4.83s.11-.71-1.07-.98c0,0-10.53,2.65-25.54,3.54-3.04,1.38-5.88,2.9-8.35,4.56h0Z" style="fill: #4c466a; fill-rule: evenodd; stroke-width: 0px;"/>
            <path d="m124.28,235.19c-.02.23.15.42.38.44.23.02.42-.15.44-.38l3.12-42.55s.46-6.81,2.04-8.99c.13-.18.09-.44-.09-.57s-.44-.09-.57.09c-1.72,2.38-2.19,9.39-2.19,9.41l-3.12,42.55h0Zm50.1-4.4c.06.22.28.35.5.3s.35-.28.3-.5c-.02-.09-7.84-31-10.4-41.02-.46-1.83-.81-3.19-1.38-4.49-.58-1.32-1.38-2.56-2.73-4.12-.15-.17-.41-.19-.58-.04-.17.15-.19.41-.04.58,1.29,1.49,2.05,2.67,2.6,3.91.55,1.26.89,2.59,1.34,4.37,2.56,10.02,10.38,40.93,10.4,41.02h-.01Zm-30.45,5.67c0,.23.21.4.43.38.23,0,.4-.21.38-.44,0-.13-2.79-46.49-2.94-49-.15-2.48-.1-3.49-.1-3.49.02-.23-.15-.42-.38-.44-.23-.02-.42.15-.44.38,0,0-.06,1.06.1,3.6.15,2.51,2.93,48.87,2.94,49h.01Z" style="fill: #4c466a; fill-rule: evenodd; stroke-width: 0px;"/>
            <path d="m133.89,123.5l-3.11,1.22s-2.52,8.94-4.87,14.07-9.26,15.89-.85,21.59c0,0,1.21,6.41.5,11.54-.49,3.54-1.96,10.9-2.88,15.98l-.02.11c-.07.44-.23,2.13,1.2,2.84l-.46,2.49s-.21,1.3.72,1.78c2.96,1.35,8.82,2.24,16.91,2.24,12.11,0,27.22-8.26,30.93-11.54h0l.05-.08c.1-.18.3-.63-.02-1.18-.41-.71-1.01-1.69-1.01-1.69,0,0,1.43-1.45-.08-4.03-2.29-3.88-5.88-10.08-6.78-13.39-1.28-4.7,3.78-25.65,3.78-25.65,0,0-7.7-14.25-6.34-21.52l-5.44,1.05s-14.45,6.81-14.58,7.15c-.13.33-7.62-2.96-7.62-2.96l-.03-.02Z" style="fill: #b17a89; fill-rule: evenodd; stroke-width: 0px;"/>
            <path d="m125.05,160.37s.43,2.27.63,5.19c2.53-2.04,6-4.82,5.99-5.26-.02-.68-.69-.47-.69-.47l-5.92.53h-.01Zm39.31,5.9c-.1-.3-.19-.58-.26-.84-1.28-4.7,3.78-25.65,3.78-25.65,0,0-1.9-3.53-3.65-7.97h0s-1.6,6.86-2.78,11.51-3.47,12.35-12.43,14.44c0,0-.97.49-.14,1.15.83.66,3.23.87,7.88,2.26,4.65,1.39,7.61,5.11,7.61,5.11h-.01Z" style="fill: #735974; fill-rule: evenodd; stroke-width: 0px;"/>
            <path d="m155.2,119.73c-3.15,1.49-13.58,6.44-13.69,6.73-.1.25-4.42-1.57-6.51-2.47.22,1.39.49,3.1.81,5.21,1.35,8.76,9.62,4.7,11.33,2.07,1.71-2.64,8.06-11.52,8.06-11.52h0v-.02Z" style="fill: #e4d9e1; fill-rule: evenodd; stroke-width: 0px;"/>
            <path d="m143.44,132.07l.17,1.83c-1.54.64-3.29.9-4.76.25l.3-2.09,2.41-2.78,1.89,2.78h-.01Z" style="fill: #595276; fill-rule: evenodd; stroke-width: 0px;"/>
            <g>
              <g>
                <path d="m25.95,57.54s-.16-3.83-.08-5.16c.07-1.32,2.6-1.69,3.95,1.87,1.35,3.56-3.87,3.29-3.87,3.29Z" style="fill: #f8a8a0; fill-rule: evenodd; stroke-width: 0px;"/>
                <path d="m30.42,71.12s-.71-3.33-1.03-4c-.32-.67-4.66-6.4-5.01-7.72-.35-1.31-.12-2.08.96-3.04,1.09-.96,5.54-5.4,6.2-5.75s1.9-.33,3.22,1.07c0,0,1.14-.53,1.66-.24.52.29,1.81,2.28,1.81,2.28,0,0,2.1.38,2.07,2.59,0,0,.97.57,1.15,1.15s.04,3.87-.09,4.54c-.13.67-1.89,1.84-1.89,1.84,0,0,.38,1.3.39,2.16,0,.85-.6,1.92-.24,3.84l-9.21,1.29h.01Z" style="fill: #fcd1c8; fill-rule: evenodd; stroke-width: 0px;"/>
                <path d="m34.87,51.89c.12-.06.17-.2.11-.32-.06-.12-.2-.17-.32-.11,0,0-.66.32-1.29.81-.6.47-6.21,4.63-6.23,4.64-.11.08-.13.23-.05.33.08.11.23.13.33.05.02,0,5.62-4.17,6.24-4.65.59-.46,1.2-.76,1.2-.76h0Zm5.37,4.64s-.2-.07-.62.2c-.51.32-4.71,3.86-4.73,3.87-.1.08-.25.07-.34-.03-.08-.1-.07-.25.03-.34,0,0,4.26-3.57,4.77-3.91.61-.39,1.01-.25,1.01-.25.13.04.2.17.16.3s-.17.2-.3.16h.02Zm-.56,3.21c0-.13-.13-.23-.26-.22-.13,0-.23.13-.22.26,0,0,.05.6-.22,1.32,0,.02,0,.03-.02.05-.26.65-.79,1.38-1.87,1.84-.12.05-.18.19-.13.31.05.12.19.18.31.13.66-.28,1.13-.65,1.48-1.05l.48,1.53c.04.13.17.19.3.16.12-.04.19-.17.16-.3l-.59-1.86c.1-.17.19-.34.26-.5.7-.27,1.3-.92,1.3-.93.09-.1.08-.25,0-.34-.1-.09-.25-.08-.34,0,0,0-.32.35-.75.62.14-.59.1-1.02.1-1.02h.02Zm-1.42-5.8s-.23,0-.68.28c-.51.31-5.94,3.93-5.96,3.94-.11.07-.26.04-.33-.07s-.04-.26.07-.33c.02,0,5.47-3.65,5.97-3.95.55-.34.88-.35.88-.35.13,0,.25.08.26.21,0,.13-.08.25-.21.26h0Z" style="fill: #f8a8a0; fill-rule: evenodd; stroke-width: 0px;"/>
              </g>
              <polygon points="39.17 64.88 40.02 72.27 40.17 72.78 40.72 78.27 32.2 79.53 30.51 74.28 30.39 72.03 30.28 65.7 39.17 64.88" style="fill: #fcd1c8; fill-rule: evenodd; stroke-width: 0px;"/>
              <path d="m39.65,69.04l.35,3.06c-4.34,1.52-7.91.62-9.79-.14v-1.01c2.22-.44,6.45-1.29,9.44-1.91Z" style="fill: #f8a8a0; fill-rule: evenodd; stroke-width: 0px;"/>
              <path d="m30.34,68.41c2.9.78,6.29.77,9.12-.29.11-.04.22-.03.31.03.1.06.16.15.17.27l.28,2.43c.02.17-.08.33-.24.38-3.12,1.02-6.65,1.04-9.84.32-.17-.04-.28-.18-.28-.35l.03-2.45c0-.11.05-.21.14-.28s.2-.09.31-.06Z" style="fill: #9e6d82; fill-rule: evenodd; stroke-width: 0px;"/>
              <path d="m29.92,67.61c.51,0,.93,1.05.94,2.35,0,1.3-.41,2.36-.92,2.36s-.93-1.05-.94-2.35c0-1.3.41-2.36.92-2.36Z" style="fill: #9e6d82; fill-rule: evenodd; stroke-width: 0px;"/>
              <path d="m29.72,68.5c.23.04.4.71.39,1.5s-.21,1.4-.43,1.36c-.23-.04-.4-.71-.39-1.5s.21-1.4.44-1.36h-.01Z" style="fill: #735974; fill-rule: evenodd; stroke-width: 0px;"/>
              <path d="m40.17,72.78c.26,1.72,5.71,31.31,6.03,32.94,2.01,10.18-14.48,12.57-15.58,1.51-.73-7.42.12-28.71-.12-32.95,0,0,9.67-1.5,9.67-1.5Z" style="fill: #fcd1c8; fill-rule: evenodd; stroke-width: 0px;"/>
            </g>
            <path d="m30.43,86.18s5.53,1.69,11.73-2.36l-.29-1.57s1.03-.17,1.19.44,1.3,5.9,1.3,5.9c0,0,2.57.25,2.74,2.37.18,2.12.11,4.47.11,4.47,0,0,1.92,1.57,2.14,5.27l.12.97s5.5-2.07,9.3-3.24c.56-.17,1.32-.39,2.2-.64,3.45,1.36,7.87,8.08,8.11,11.03.29,3.42-12.93,15.48-12.93,15.48,0,0-11.58,3.26-19.13-.02-7.55-3.28-9.98-10.26-9.83-15.53.14-5.27.15-11.83-.63-14.11-.78-2.28,1.78-3.14,1.78-3.14l.21-6.27s.02-1.11,1.91-1.16l-.03,2.1h0Z" style="fill: #fff; fill-rule: evenodd; stroke-width: 0px;"/>
            <path d="m99.47,100.39s7.43,3.31,11.28,6.66c0,0,2.71,12.26-3.85,33.49,0,0-1.85,6.84-1.85,8.55l2.34,27.64s.26,3.1-1.6,3.6h0c-.09,2.17.61,3.27-1.64,4.02-6.84,2.28-37.92,8.62-56.48-1.37,0,0-.81-1.51-.57-2.71.24-1.2.26-.96.58-1.98,0,0-1.29-1.42-.4-4.05.89-2.64,9.11-26.68,9.11-26.68l-.22-23.26s8.14-14.15,3.51-26.14c4.58-1.33,15.69-4.07,15.69-4.07l24.1,6.31h0Z" style="fill: #fff; fill-rule: evenodd; stroke-width: 0px;"/>
            <path d="m99.47,100.39s1.14.51,2.76,1.33v20.4h-31.79v-26.8c2.79-.71,4.94-1.24,4.94-1.24l24.1,6.31h-.01Z" style="fill: #e4d9e1; fill-rule: evenodd; stroke-width: 0px;"/>
            <polygon points="89.12 110.19 87.23 130.71 93.15 135.48 95.57 133.56 96.49 131.71 93.5 110.19 91.01 107.41 89.12 110.19" style="fill: #595276; fill-rule: evenodd; stroke-width: 0px;"/>
            <path d="m138.24,193.83c-4.74,0-9.65-.78-14.47-2.76-.13-.05-.19-.2-.13-.32.05-.13.2-.19.32-.13,22.39,9.19,46.62-7.78,46.86-7.95.11-.08.27-.05.35.06s.05.27-.06.35c-.19.14-15.37,10.77-32.86,10.77v-.02Zm3.21-56.83c-.64,0-1.27-.09-1.9-.26-3.38-.96-6.79-4.91-6.24-13.13,0-.14.13-.25.26-.23.14,0,.24.13.23.26-.53,7.92,2.69,11.71,5.88,12.62,3.81,1.08,7.97-1.47,10.62-6.48.84-1.6,1.6-3.54,2.33-5.41.6-1.53,1.21-3.11,1.88-4.53.06-.12.21-.18.33-.12s.18.21.12.33c-.66,1.4-1.28,2.98-1.87,4.49-.74,1.89-1.5,3.84-2.36,5.46-2.33,4.42-5.83,6.99-9.3,6.99h.02Z" style="fill: #735974; stroke-width: 0px;"/>
            <path d="m100.86,101.04c2.34,1.13,7.07,3.56,9.89,6.01,0,0,2.71,12.26-3.85,33.49,0,0-1.85,6.84-1.85,8.55l2.34,27.64s.26,3.1-1.6,3.6h0c-.09,2.17.61,3.27-1.64,4.02-6.84,2.28-37.92,8.62-56.48-1.37,0,0-.81-1.51-.57-2.71.24-1.2.26-.96.58-1.98,0,0-1.29-1.42-.4-4.05.89-2.64,9.11-26.68,9.11-26.68l-1.53-20.65c-.09-1.31,1.32-1.77,1.32-1.51v.97c8.33-14.95,6.14-24.68,4.16-28.4,3.49-.98,9.62-2.53,12.87-3.34,5.86,5.69,10.24,21.95,18.27,21.15,8.62-.85,9.38-14.73,9.38-14.73h0Z" style="fill: #b17a89; fill-rule: evenodd; stroke-width: 0px;"/>
            <path d="m100.86,101.04c.39.19.86.42,1.36.68v20.4h-31.79v-26.8c1.04-.26,1.99-.5,2.78-.7,5.86,5.69,10.24,21.95,18.27,21.15,8.62-.85,9.38-14.73,9.38-14.73Z" style="fill: #b17a89; fill-rule: evenodd; stroke-width: 0px;"/>
            <path d="m82.39,82.18l-1.7,2.58s-.54,4.79-2.93,7.89,6.77,10.76,10.58,11.26c3.81.5,7.09-3.53,7.09-3.53l.21-.78s-.11-2.85.18-4.42-13.43-13-13.43-13Z" style="fill: #f8a8a0; fill-rule: evenodd; stroke-width: 0px;"/>
            <path d="m86.45,105.31l2.67,4.88s2.32-.86,4.38,0l1.78-4.38-4.27-3.99-4.56,3.49Z" style="fill: #595276; fill-rule: evenodd; stroke-width: 0px;"/>
            <polygon points="79.37 89.78 91.01 101.82 83.96 108.58 75.37 94.08 79.37 89.78" style="fill: #fff; fill-rule: evenodd; stroke-width: 0px;"/>
            <path d="m95.67,96.61l-4.66,5.2,6.27,7.2,2.1-8.01s.32-.78-.25-1.39-3.46-3-3.46-3Z" style="fill: #fff; fill-rule: evenodd; stroke-width: 0px;"/>
            <g>
              <path d="m181.61,58.92l-.78-11.51s-.25-.93.68-1.32c.93-.4,2.06.04,2.21,2.25.15,2.21.74,10.88.74,10.88l.56.18,1.03-1c1.88-1.25,3.03.68,3.02,1.22v.21l.34-.18c.32-.22,1.66,0,1.99.57.32.57.13,1.88,0,2.41-.05.2-.13.38-.24.52.22.43.43.91.63,1.42.79,2.06.68,3.69.36,5.4-1.18,6.36-10.06,4.97-11.5,1.4-2.57-6.38-4.44-11.57-7.62-18.29-.8-1.69.32-2.65.87-2.69.54-.04,1.74.29,2.37,1.89.63,1.6,4.04,7.46,4.18,7.66.14.21,1.2-.33,1.18-1l-.02-.02Z" style="fill: #fcd1c8; fill-rule: evenodd; stroke-width: 0px;"/>
              <path d="m189.03,70.79c-.09,0-.18-.05-.22-.13-1.12-2.15-3.57-3.31-3.59-3.32-.07-.03-.11-.09-.13-.16-.02-.07,0-.14.03-.2.02-.03,1.71-2.64,1.68-3.95-.02-.67-.45-1.11-.7-1.31-.38-.3-.73-.38-.81-.37-.13.12-.87,1.02-1.32,1.56-.17.21-.32.39-.42.5-.63.75-1.01,1.28-1.12,1.59-.06.16-.13.41-.23.74-.18.6-.43,1.42-.8,2.49-.04.13-.18.2-.31.15-.13-.04-.2-.19-.15-.32.36-1.06.61-1.87.79-2.47.1-.34.18-.59.24-.76.13-.37.51-.93,1.2-1.74.1-.12.24-.29.41-.5.67-.81,1.23-1.49,1.42-1.65.23-.19.64-.05.87.06.64.29,1.39.99,1.42,2.01.02.78-.45,1.89-.92,2.78.53.21.97.21,1.29.03.15-.09.26-.21.35-.34,0,0,0-.01,0-.02.25-.39.3-.87.3-.88l.51-4.88c0-.14.13-.23.27-.22s.23.14.22.27l-.5,4.88s-.04.43-.23.85c.39.13.74.14,1.03.02.43-.18.6-.58.6-.59l.71-1.86c.05-.13.19-.19.32-.14s.19.19.14.32l-.72,1.86s-.24.61-.87.86c-.43.18-.93.16-1.49-.05-.11.13-.24.25-.4.34-.47.28-1.07.27-1.78-.01-.18.33-.34.6-.46.78.68.36,2.58,1.51,3.57,3.41.06.12.02.27-.11.33-.04.02-.08.03-.11.03h0Z" style="fill: #f68b85; stroke-width: 0px;"/>
            </g>
            <path d="m137.04,120.51s1.33-1.09,1.62-3.58c.28-2.49-.5-6.8-.5-6.8l12.63-2.38s.24,5.39,1.39,7.84c1.15,2.45.37,3.66.37,3.66l-10.05,7.98-5.5-2.12.03-4.59h.01Z" style="fill: #fcd1c8; fill-rule: evenodd; stroke-width: 0px;"/>
            <path d="m138.29,118.49c.16-.44.29-.96.36-1.57.28-2.49-.5-6.8-.5-6.8l12.63-2.38s.11,2.56.56,4.96c-1.42,1.74-3.41,4.09-4.39,4.88-.97.78-2.28,1.3-3.62,1.55s-2.74.24-3.93-.13c-.31-.1-.69-.27-1.11-.5h0Z" style="fill: #f8a8a0; fill-rule: evenodd; stroke-width: 0px;"/>
            <path d="m146.06,127.84l-2.62,4.22s-2.27-.74-4.29,0l-1.75-3.79,4.19-3.45,4.47,3.02h0Z" style="fill: #595276; fill-rule: evenodd; stroke-width: 0px;"/>
            <polygon points="152.18 115.58 141.59 124.82 148.5 130.68 156.1 119.31 152.18 115.58" style="fill: #fff; fill-rule: evenodd; stroke-width: 0px;"/>
            <path d="m137.04,120.51l4.55,4.32-6.14,6.23-2.37-6.66s-.31-.68.24-1.2c.56-.52,3.72-2.68,3.72-2.68h0Z" style="fill: #fff; fill-rule: evenodd; stroke-width: 0px;"/>
            <g>
              <path d="m154.49,93.08s1.06-1.68,1.98-1.77,2.42,1.63,2.57,3.12c.16,1.49-.58,6.91-3.93,5.55-3.35-1.36-.63-6.9-.63-6.9h0Z" style="fill: #fcd1c8; fill-rule: evenodd; stroke-width: 0px;"/>
              <path d="m153.67,94.94c-.08.12-.08.3,0,.4.08.09.2.08.28,0h0s1.67,4.36,2.21,3.52c.53-.83,1.11-1.64,1.17-2.84s-1.16-2.05-.85-2.42c.3-.35.76.02.8.06h0c.37.33.59.76.6.76.07.12.2.15.3.05.1-.09.13-.27.06-.39,0,0-.85-1.62-2.09-1.32-1.19.28-2.49,2.19-2.49,2.19h0Z" style="fill: #f8a8a0; fill-rule: evenodd; stroke-width: 0px;"/>
              <path d="m128.31,98.03s-1.46-1.35-2.37-1.2-1.91,2.2-1.68,3.68c.24,1.48,2.35,6.52,5.24,4.34,2.88-2.18-1.19-6.83-1.19-6.83h0Z" style="fill: #fcd1c8; fill-rule: evenodd; stroke-width: 0px;"/>
              <path d="m129.59,99.61c.11.1.15.27.1.39-.05.11-.17.13-.28.07h0s-.48,4.64-1.22,3.98c-.73-.67-1.49-1.3-1.87-2.44-.37-1.14.59-2.28.19-2.56-.38-.26-.73.22-.76.26h0c-.27.42-.38.89-.38.89-.03.14-.16.2-.28.13-.12-.06-.2-.23-.16-.36,0,0,.4-1.78,1.68-1.82,1.22-.03,2.97,1.47,2.97,1.47h0Z" style="fill: #f8a8a0; fill-rule: evenodd; stroke-width: 0px;"/>
              <path d="m136.38,75.22c18.71-3.24,18.7,11.81,19.25,23.83.23,5.06-1.95,8.48-1.95,8.48,0,0-4.39,5.61-6.02,6.92-.97.78-2.28,1.3-3.62,1.55s-2.74.24-3.93-.13c-2-.63-6.84-4.46-6.84-4.46,0,0-3.27-2.4-4.89-7.2-3.85-11.4-10.61-25.21,8-28.99h0Z" style="fill: #fcd1c8; fill-rule: evenodd; stroke-width: 0px;"/>
              <path d="m147.54,76.04c.27.13.52.26.77.4h0c.16.1.31.19.46.29l.04.03c.15.1.29.2.43.3h.02c.37.29.72.58,1.05.89l.04.03c.12.12.24.24.36.36h0c.12.14.24.28.36.41h0c.18.22.35.43.51.66h0c.1.15.2.3.3.44l.02.04c.09.14.18.28.27.42l.03.04c.14.24.28.48.41.72h0c.08.16.16.32.24.49l.03.07c.07.15.14.3.21.46l.02.03c.07.16.14.33.2.49v.04c.05.09.08.17.12.26.03.09.07.18.1.28l.09.26.02.07c.05.16.11.32.16.49l.02.08c.04.15.09.29.13.44l.04.14c.04.13.07.25.1.38l.05.19.06.25v.02l.08.3.06.27.02.1c.03.15.07.3.1.46l.04.19.04.21.06.31v.04l.05.26h0l.05.32.05.29.02.11c.02.16.05.32.07.47l.03.2.05.36.03.24.03.24.04.32v.04l.03.27h0l.03.34.03.3v.12l.06.5v.11l.06.59h0c-.72.48-1.6.79-2.65.9-8.79.86-11.53-7.65-11.88-8.32-.36-.67-.81-.54-.81-.54,0,0-6.2.61-6.64.71s-.47.69-.47.69c-.39,8.98-3.42,13.18-5.59,15.05-1.12-3.18-2.26-6.44-2.86-9.55l-.12-2.07s.04-2.98.34-6.1c1.08-3.05,3.63-5.57,8.55-7.16l.06-.02c.19-.06.39-.12.59-.18l.28-.08c.14-.04.29-.08.43-.12s.28-.07.43-.11l.32-.08c3.98.04,8.56.3,12.27.57h0l.04-.02Z" style="fill: #f8a8a0; fill-rule: evenodd; stroke-width: 0px;"/>
              <path d="m129.37,84.46l.39,1.03s2.43-1.91,6.62-1.79c0,0,3.27-1.22,4.98-1,1.7.22-.35-1.38-3.12-1.13-2.77.24-6.41.03-6.68.44-.27.41-2.19,2.45-2.19,2.45Z" style="fill: #4c466a; fill-rule: evenodd; stroke-width: 0px;"/>
              <path d="m139.88,103.06c-.2-.13-.16-.82-.09-1.29.05-.36.11-.53.21-.53.09-.05.22.07.43.36.27.38.62.97.5,1.18-.15.28-.79.46-1.05.29h0Z" style="fill: #fcd1c8; fill-rule: evenodd; stroke-width: 0px;"/>
              <path d="m131.23,82.66c-.03-.18.1-.35.27-.37.18-.03.34.1.37.27,0,.04,2.04,12.67-5.47,17.27-.15.09-.35.05-.45-.11-.09-.15-.04-.36.11-.45,7.14-4.37,5.17-16.58,5.16-16.62h0Z" style="fill: #4c466a; fill-rule: evenodd; stroke-width: 0px;"/>
              <path d="m140.89,82.24c0-.18.13-.34.31-.35s.34.13.35.31c0,.03.54,9.19,8.22,9.46.18,0,.32.16.32.34s-.16.32-.34.31c-8.28-.29-8.85-10.05-8.85-10.07h-.01Z" style="fill: #4c466a; fill-rule: evenodd; stroke-width: 0px;"/>
              <path d="m155.31,92.9c-11.92,1.43-11.51-9.87-15.68-10.91-1.31-.32-2.77.51-3.25,1.71,0,0-2.62-2.19-4.34-.61s.24,17.42-10.05,20.81c0,0-1.67-12.56-.51-18.64,1.16-6.08,8.6-13.47,10.84-14.87,2.24-1.41,4.95-1.92,7.14-.41,0,0,15.5-7.14,19.8,18.94l-1.79,2.21-2.17,1.78h0Z" style="fill: #675d82; fill-rule: evenodd; stroke-width: 0px;"/>
              <path d="m134.03,69.53c1.82-.68,3.78-.7,5.43.44,0,0-1.29.66-1.5,1.45-.21.78-1.59,6.65-1.59,6.65,0,0,.73-6.64-2.34-8.53h0Z" style="fill: #4c466a; fill-rule: evenodd; stroke-width: 0px;"/>
              <path d="m155.31,92.9c-9.7,1.16-11.24-6.11-13.72-9.41,2.07,2.17,8.68,7.88,17.24,3.05.16.76.3,1.55.44,2.38l-1.79,2.21-2.17,1.78h0Zm-23.78-8.52c-.9,4.22-.59,16.57-9.53,19.51,0,0-.31-2.32-.57-5.45,3.24-.31,7.87-2.87,10.1-14.06h0Z" style="fill: #4c466a; fill-rule: evenodd; stroke-width: 0px;"/>
              <path d="m152.54,92.32l-.76.27s.74,4.16,3.76,4.29l-.1-2.07s-.12-2.15,1.64-3.36l-4.54.86h0Z" style="fill: #4c466a; fill-rule: evenodd; stroke-width: 0px;"/>
              <g>
                <path d="m143.38,92.97s-.38.18-.78.09c-.4-.09-.82-.64-.83-.79,0-.14.23.04.87-.41.62-.45,3.02-1.7,5.12-.24.36.25.18.54-.22.48-.4-.05-2.19-.56-4.16.87h0Z" style="fill: #4c466a; fill-rule: evenodd; stroke-width: 0px;"/>
                <path d="m134.37,97.27s.41.07.77-.14c.36-.2.6-.85.57-.99s-.21.11-.95-.15c-.73-.25-3.37-.76-4.98,1.23-.28.34-.02.57.35.4.37-.17,1.94-1.16,4.23-.36h0Z" style="fill: #4c466a; fill-rule: evenodd; stroke-width: 0px;"/>
                <path d="m138.96,98.34c.02-.17.18-.3.35-.28.18.02.3.18.29.35-.06.59-.42,3.91-.31,4.19.09.18.49.37.66.44.3.12.64.18.96.14.18-.02.34.11.36.28s-.11.34-.28.36c-.43.05-.87-.02-1.27-.18-.34-.13-.84-.42-1.01-.76-.19-.38.16-3.89.25-4.54h0Z" style="fill: #f68b85; fill-rule: evenodd; stroke-width: 0px;"/>
                <g>
                  <path d="m141.2,107.69c-.16.01-.3-.1-.32-.27,0-.16.11-.3.27-.32,0,0,.85-.08,1.85-.5.15-.06.32,0,.38.16.06.15,0,.32-.16.38-1.08.45-2.02.54-2.03.54h0Z" style="fill: #f68b85; fill-rule: evenodd; stroke-width: 0px;"/>
                  <path d="m138.58,106.63c-.16,0-.29-.15-.28-.31,0-.17.15-.29.31-.28,0,0,4.62.26,5.87-2.33.07-.15.25-.21.4-.14s.21.25.14.4c-1.42,2.96-6.42,2.67-6.44,2.67h0Z" style="fill: #f68b85; fill-rule: evenodd; stroke-width: 0px;"/>
                  <path d="m144.12,104c-.16.03-.32-.08-.35-.24-.03-.16.08-.32.24-.35,0,0,1.2-.24,1.38.9.03.16-.09.32-.25.34-.16.03-.32-.08-.34-.25-.08-.53-.68-.41-.68-.41h0Z" style="fill: #f68b85; fill-rule: evenodd; stroke-width: 0px;"/>
                </g>
                <path d="m130.38,101.1s-.45.08-.87-.18c-.42-.27-.15-1.31.28-2.04.43-.72,4.33-.98,6.16.63l-.4.37s-3.79.08-5.17,1.21h0Z" style="fill: #f8a8a0; fill-rule: evenodd; stroke-width: 0px;"/>
                <path d="m144.63,97.08l-.79.61s-.7-1.93.15-3.26c.85-1.33,2.77-1.7,4.35-1.08,1.58.63.62,2.89-.7,3.65-1.32.77-3.02.07-3.02.07h0Z" style="fill: #f8a8a0; fill-rule: evenodd; stroke-width: 0px;"/>
                <path d="m145.28,94.96h0c.39-.08.78-.03,1.13.12.2-.18.39-.45.37-.84,0-.18.13-.35.31-.36.19-.01.35.13.36.31.03.46-.12.82-.32,1.09.15-.04.29-.13.37-.32.07-.17.27-.25.44-.18s.25.27.18.44c-.17.41-.46.61-.76.69.09.17.16.35.2.55l.37,1.89c.2,1.04-.49,2.06-1.53,2.27h0c-1.04.2-2.06-.48-2.27-1.53l-.37-1.89c-.2-1.04.48-2.06,1.53-2.27v.03Z" style="fill: #4c466a; fill-rule: evenodd; stroke-width: 0px;"/>
                <path d="m134.81,100.73s.42.05.76-.17c.35-.22.57-.88.53-1.01-.04-.14-.21.11-.96-.11-.62-.18-2.59-.49-4.1.62-.19-.07-.4-.21-.5-.48-.05-.14-.21-.22-.36-.16-.14.05-.22.21-.16.36.13.33.34.54.57.68l-.03.04c-.1,0-.2-.03-.3-.12-.11-.1-.29-.1-.39.02-.1.11-.1.29.02.39.09.09.19.15.29.19-.16.3.09.46.43.29.37-.18,1.89-1.24,4.21-.54h0Z" style="fill: #4c466a; fill-rule: evenodd; stroke-width: 0px;"/>
              </g>
            </g>
            <g>
              <path d="m106.59,78.26s1.96-1.5,3.06-1.2c1.11.29,2.11,2.94,1.64,4.73-.46,1.8-3.65,7.77-6.95,4.75-3.3-3.02,2.25-8.28,2.25-8.28Z" style="fill: #f8a8a0; fill-rule: evenodd; stroke-width: 0px;"/>
              <path d="m97.9,53.16c20.09,3.62,14.55,18.81,10.7,31.16-1.62,5.2-5.08,7.86-5.08,7.86,0,0-4.5,3.98-6.63,4.7-1.27.43-2.78.48-4.23.24-1.44-.23-2.86-.77-3.93-1.58-1.36-1.04-5.75-5.33-7.79-7.33-2.6-2.56-3.24-5.12-3.15-8.96.3-12.94-.08-29.11,20.11-26.07v-.02Z" style="fill: #fcd1c8; fill-rule: evenodd; stroke-width: 0px;"/>
              <path d="m111.02,76.21h0s-13.19.57-16.38-13.82l1.33-.81-.69-.88-2.02.88s-.54,8.88-9.04,9.1c-8.51.22.04-11.45.5-11.6.47-.15,3.33-2.27,6.35-1.24,3.02,1.02,7.66,1.02,10.5,3.5,2.83,2.47,9.43,14.85,9.45,14.89v-.02Z" style="fill: #f8a8a0; fill-rule: evenodd; stroke-width: 0px;"/>
              <path d="m79.69,73.82s-1.37-2.04-2.51-2.12-2.94,2.1-3.08,3.95.96,8.53,5.06,6.73c4.1-1.8.53-8.56.53-8.56Z" style="fill: #fcd1c8; fill-rule: evenodd; stroke-width: 0px;"/>
              <path d="m79.83,76.07c.23.37-.34,1.17-.83.31-.24-.42-.64-1.1-.81-1.1-.24,0-.89,1.64-.89,2.62s.58,2.11.63,2.34c.01.06.03.15.03.26-.31.56-.58.86-.75.56-.55-.99-1.14-1.95-1.2-3.42s1.21-2.61.89-3.04c-.3-.41-.78.08-.83.12h0c-.38.43-.62.98-.62.98-.07.16-.21.19-.32.09-.1-.11-.13-.33-.06-.48,0,0,.88-2.05,2.17-1.77,1.23.27,2.57,2.52,2.57,2.53h.02Z" style="fill: #f8a8a0; fill-rule: evenodd; stroke-width: 0px;"/>
              <g>
                <path d="m92.01,77.85l.77-.37c-1.01-1.96-6.1-3.72-6.82-.75,0,0,4.1-1.23,6.04,1.12h.01Z" style="fill: #f8a8a0; fill-rule: evenodd; stroke-width: 0px;"/>
                <path d="m104.07,76.87h0c1.04.25,1.68,1.31,1.43,2.35l-.46,1.88c-.25,1.04-1.31,1.68-2.35,1.43h0c-1.04-.25-1.68-1.31-1.43-2.35l.46-1.88c.25-1.04,1.31-1.68,2.35-1.43Z" style="fill: #735974; fill-rule: evenodd; stroke-width: 0px;"/>
                <path d="m92.62,75.25s.42.31.92.35c.5.03,1.13-.4,1.17-.54.04-.15-.29-.03-.97-.71s-3.31-2.74-6.16-1.93c-.49.14-.33.5.17.57.5.08,2.76.14,4.86,2.26h.01Z" style="fill: #735974; fill-rule: evenodd; stroke-width: 0px;"/>
                <path d="m102.76,74.61s-.43.06-.8-.17c-.36-.23-.6-.91-.56-1.06.04-.15.22.12,1-.12.77-.23,3.56-.68,5.16,1.47.28.37,0,.59-.38.41-.38-.19-1.98-1.29-4.42-.53Z" style="fill: #735974; fill-rule: evenodd; stroke-width: 0px;"/>
                <path d="m99.34,78.59c-.02-.16-.16-.29-.33-.27-.17.02-.29.16-.27.33.05.55.37,3.69.26,3.95-.08.17-.47.35-.63.41-.29.11-.61.17-.91.13-.17-.02-.32.1-.34.26-.02.17.1.32.26.34.4.05.82-.02,1.2-.16.32-.12.8-.39.96-.71.18-.35-.12-3.67-.2-4.28Z" style="fill: #f68b85; fill-rule: evenodd; stroke-width: 0px;"/>
                <path d="m91.4,78.5s.45.25.94.16c.49-.09,1.04-.73,1.06-.91s-.29.04-1.04-.56c-.74-.58-3.58-2.25-6.23-.59-.46.29-.25.64.25.6s2.7-.55,5.02,1.3Z" style="fill: #735974; fill-rule: evenodd; stroke-width: 0px;"/>
                <path d="m97.14,90.18c.18,0,.33-.14.34-.32,0-.18-.14-.33-.32-.34,0,0-.96-.04-2.12-.44-.17-.06-.36.03-.42.21-.06.17.03.36.2.42,1.25.43,2.31.47,2.32.47Z" style="fill: #f68b85; fill-rule: evenodd; stroke-width: 0px;"/>
                <path d="m96.18,88.69h0c1.69.35,3.34-.73,3.7-2.42.05-.24-.03-.43-.17-.59h0s-.14-.13-.35-.09c-.24.05-1.28.22-2.58-.18s-1.87-1.12-2.5-.93c-.25.09-.44.24-.5.52-.35,1.69.73,3.34,2.42,3.7h-.02Z" style="fill: #735974; fill-rule: evenodd; stroke-width: 0px;"/>
                <path d="m98.68,88.14c-.56-.56-1.28-.96-2.11-1.14-.85-.18-1.7-.08-2.44.22.43.73,1.16,1.28,2.05,1.47h0c.91.19,1.81-.04,2.5-.55Z" style="fill: #ec797e; fill-rule: evenodd; stroke-width: 0px;"/>
                <path d="m94.26,84.47c-.06.54.3,1.05.84,1.16l3.29.69c.53.11,1.06-.2,1.23-.71-.06-.03-.15-.06-.27-.03-.24.05-1.28.22-2.58-.18s-1.87-1.12-2.51-.93Z" style="fill: #fff; fill-rule: evenodd; stroke-width: 0px;"/>
              </g>
              <path d="m113.06,72.73l-.54,1.59-1.62,4.12-.88,1.31s-.67-1.42-.21-3.37c0,0-1.09-1.36-.73-2.46.36-1.1,3.98-1.19,3.98-1.19Z" style="fill: #735974; fill-rule: evenodd; stroke-width: 0px;"/>
              <path d="m87.86,64.64s-.76,8.12-5.22,8.65c0,0,.19,3.08-1.62,4.44,0,0-.08-4.13-3-5.7,0,0-.69-.47-1.49-.19l.39-6.95,10.94-.27v.02Z" style="fill: #735974; fill-rule: evenodd; stroke-width: 0px;"/>
              <path d="m89.19,48.72c9.46-11.39,33.36,3.39,30.39,16.89-3.25,14.77-19.87,9.78-24.94-3.22.04-.62-1.1-1-1.41.09-2.95,7.44-14.28,8.88-16.97,3.99-3.59-6.53,3.4-21.93,12.94-17.75h0Z" style="fill: #9e6d82; fill-rule: evenodd; stroke-width: 0px;"/>
              <path d="m89.19,48.72c1.35-1.63,2.99-2.72,4.81-3.35,2.12,3.38-1.55,7.44-1.55,7.44-.89-3.05-3.26-4.08-3.26-4.08h0Z" style="fill: #735974; fill-rule: evenodd; stroke-width: 0px;"/>
              <path d="m92.11,63.34c.04-.14.19-.23.34-.19.15.04.23.19.19.34,0,.02-2.41,8.61-12.48,6.75-.15-.03-.25-.17-.22-.32s.17-.25.32-.22c9.58,1.78,11.85-6.34,11.86-6.36h0Zm-2.27-14.29c.11.1.11.28,0,.39-.1.11-.28.11-.39,0,0,0-2.22-2.18-5.36-1.76-.15.02-.29-.08-.31-.23-.02-.15.08-.29.23-.31,3.4-.46,5.81,1.9,5.82,1.91h0Zm5.94,14.99c-.04-.15.05-.3.2-.33.15-.04.29.05.33.2,0,.03,2.63,11.13,14.64,11.29.15,0,.27.13.27.28s-.13.27-.28.27c-12.44-.17-15.16-11.67-15.16-11.7h0Z" style="fill: #9e6d82; fill-rule: evenodd; stroke-width: 0px;"/>
              <path d="m117.28,70.98c-7.39.25-13.25-8.2-14.49-16.06,7.14,7.89,12.95,7.27,16.63,5.27.47,1.79.55,3.62.16,5.42-.49,2.23-1.28,4-2.3,5.37Z" style="fill: #b17a89; fill-rule: evenodd; stroke-width: 0px;"/>
            </g>
            <path d="m50.07,109.71c-.12,0-.23-.09-.25-.22-.21-1.65-.57-7.56-.59-7.81,0-.14.1-.25.23-.26.13-.02.25.1.26.23,0,.06.38,6.14.59,7.78.02.14-.08.26-.21.28h-.03Zm-15.74-16.55c-1.85,0-3.9-.4-6.09-1.43-.12-.06-.18-.21-.12-.33s.21-.18.33-.12c9.09,4.3,15.67-2.79,15.74-2.86.09-.1.25-.11.35-.02.1.09.11.25.02.35-.05.06-4.09,4.41-10.23,4.41Z" style="fill: #e4d9e1; stroke-width: 0px;"/>
            <path d="m185.11,111.03c-.07,0-.14-.03-.19-.09-1.24-1.49-1.67-3.52-1.69-3.6-.03-.13.06-.27.19-.29.13-.03.27.06.29.19,0,.02.42,2,1.58,3.39.09.11.07.26-.03.35-.05.04-.1.06-.16.06h.01Zm2.42-16.97c-1.36,0-2.8-.26-4.27-.91-.12-.06-.18-.2-.13-.33.06-.13.2-.18.33-.13,6.73,2.99,12.87-2.69,12.93-2.75.1-.09.26-.09.35.01.09.1.09.26,0,.35-.05.05-4.05,3.76-9.2,3.76h0Z" style="fill: #e4d9e1; stroke-width: 0px;"/>
            <path d="m80.18,183.97c-19.07,0-32.42-5.37-32.6-5.45-.13-.05-.19-.2-.13-.32.05-.13.2-.19.32-.14.26.11,26.47,10.65,57.96,2.03.13-.04.27.04.3.17.04.13-.04.27-.17.3-9.17,2.51-17.9,3.41-25.67,3.41h-.01Z" style="fill: #735974; stroke-width: 0px;"/>
            <path d="m111.01,140.66c-.07,0-.14-.03-.19-.08-.09-.1-.08-.26.02-.35l14.54-12.89c.1-.09.26-.08.35.02s.08.26-.02.35l-14.54,12.89s-.11.06-.16.06h0Z" style="fill: #e4d9e1; stroke-width: 0px;"/>
            <path d="m93.5,110.44s-.06,0-.09-.02c-1.95-.8-4.18,0-4.2,0-.13.05-.27-.02-.32-.15-.05-.13.02-.27.15-.32.1-.04,2.43-.88,4.56,0,.13.05.19.2.13.32-.04.1-.13.15-.23.15v.02Z" style="fill: #4c466a; stroke-width: 0px;"/>
            <path d="m139.15,132.31c-.1,0-.2-.06-.23-.16-.05-.13.02-.27.15-.32,2.08-.76,4.36-.03,4.46,0,.13.04.2.18.16.31s-.18.2-.31.16c-.02,0-2.22-.7-4.13,0-.03,0-.06.02-.09.02h-.01Z" style="fill: #4c466a; stroke-width: 0px;"/>
            <path d="m91.22,118.59c-4.99,0-9.26-4.03-13.24-12.4-2.94-6.18-5.24-9.38-6.66-10.98-.09-.1-.08-.26.02-.35s.26-.08.35.02c1.43,1.62,3.76,4.86,6.73,11.1,4.74,9.94,9.84,13.61,16.05,11.56,5.47-1.82,8.26-10.86,8.28-15.42,0-.14.11-.25.25-.25h0c.14,0,.25.11.25.25-.02,4.68-2.92,13.99-8.62,15.89-1.18.39-2.31.59-3.41.59h0Z" style="fill: #735974; stroke-width: 0px;"/>
          </g>
        </g>
      </g>
    </g>
  </g>
</svg>