<?xml version="1.0" encoding="UTF-8"?>
<svg xmlns="http://www.w3.org/2000/svg" width="218.01" height="218.02" xmlns:xlink="http://www.w3.org/1999/xlink" viewBox="0 0 218.01 218.02">
  <defs>
    <filter id="luminosity-noclip" x="31.56" y="98.06" width="21.01" height="21.9" color-interpolation-filters="sRGB" filterUnits="userSpaceOnUse">
      <feFlood flood-color="#fff" result="bg"/>
      <feBlend in="SourceGraphic" in2="bg"/>
    </filter>
    <filter id="luminosity-noclip-2" x="31.56" y="-10404.01" width="21.01" height="32766" color-interpolation-filters="sRGB" filterUnits="userSpaceOnUse">
      <feFlood flood-color="#fff" result="bg"/>
      <feBlend in="SourceGraphic" in2="bg"/>
    </filter>
    <mask id="mask-1" x="31.56" y="-10404.01" width="21.01" height="32766" maskUnits="userSpaceOnUse"/>
    <radialGradient id="radial-gradient" cx="42.07" cy="109.01" fx="42.07" fy="109.01" r="10.73" gradientUnits="userSpaceOnUse">
      <stop offset="0" stop-color="#fafafa"/>
      <stop offset=".33" stop-color="#f7f7f7"/>
      <stop offset=".47" stop-color="#f0f0f0"/>
      <stop offset=".57" stop-color="#e4e4e4"/>
      <stop offset=".65" stop-color="#d2d2d2"/>
      <stop offset=".73" stop-color="#bcbcbc"/>
      <stop offset=".79" stop-color="#9f9f9f"/>
      <stop offset=".85" stop-color="#7e7e7e"/>
      <stop offset=".91" stop-color="#575757"/>
      <stop offset=".96" stop-color="#2c2c2c"/>
      <stop offset="1" stop-color="#000"/>
    </radialGradient>
    <mask id="mask" x="31.56" y="98.06" width="21.01" height="21.9" maskUnits="userSpaceOnUse">
      <g style="filter: url(#luminosity-noclip);">
        <g style="mask: url(#mask-1);">
          <path d="m52.57,109.51c0,4.65-2.77,8.65-6.74,10.44-9.81-3.58-14.27-9.83-14.27-15.17,0-.55,0-1.09.02-1.62,2.05-3.08,5.56-5.11,9.54-5.11,6.33,0,11.46,5.13,11.46,11.46Z" style="fill: url(#radial-gradient); mix-blend-mode: multiply; stroke-width: 0px;"/>
        </g>
      </g>
    </mask>
    <radialGradient id="radial-gradient-2" cx="42.07" cy="109.01" fx="42.07" fy="109.01" r="10.73" gradientUnits="userSpaceOnUse">
      <stop offset="0" stop-color="#f696b1"/>
      <stop offset=".4" stop-color="#f698b2"/>
      <stop offset=".57" stop-color="#f69fb7"/>
      <stop offset=".7" stop-color="#f7abc0"/>
      <stop offset=".8" stop-color="#f9bdcd"/>
      <stop offset=".89" stop-color="#fbd3de"/>
      <stop offset=".96" stop-color="#fdeff3"/>
      <stop offset="1" stop-color="#fff"/>
    </radialGradient>
    <filter id="luminosity-noclip-3" x="77.24" y="98.06" width="21.01" height="21.9" color-interpolation-filters="sRGB" filterUnits="userSpaceOnUse">
      <feFlood flood-color="#fff" result="bg"/>
      <feBlend in="SourceGraphic" in2="bg"/>
    </filter>
    <filter id="luminosity-noclip-4" x="77.24" y="-10404.01" width="21.01" height="32766" color-interpolation-filters="sRGB" filterUnits="userSpaceOnUse">
      <feFlood flood-color="#fff" result="bg"/>
      <feBlend in="SourceGraphic" in2="bg"/>
    </filter>
    <mask id="mask-3" x="77.24" y="-10404.01" width="21.01" height="32766" maskUnits="userSpaceOnUse"/>
    <radialGradient id="radial-gradient-3" cx="-369.13" fx="-369.13" r="10.73" gradientTransform="translate(-281.38) rotate(-180) scale(1 -1)" xlink:href="#radial-gradient"/>
    <mask id="mask-2" x="77.24" y="98.06" width="21.01" height="21.9" maskUnits="userSpaceOnUse">
      <g style="filter: url(#luminosity-noclip-3);">
        <g style="mask: url(#mask-3);">
          <path d="m77.24,109.51c0,4.65,2.77,8.65,6.74,10.44,9.81-3.58,14.27-9.83,14.27-15.17,0-.55,0-1.09-.02-1.62-2.05-3.08-5.56-5.11-9.54-5.11-6.33,0-11.46,5.13-11.46,11.46Z" style="fill: url(#radial-gradient-3); mix-blend-mode: multiply; stroke-width: 0px;"/>
        </g>
      </g>
    </mask>
    <radialGradient id="radial-gradient-4" cx="-369.13" fx="-369.13" r="10.73" gradientTransform="translate(-281.38) rotate(-180) scale(1 -1)" xlink:href="#radial-gradient-2"/>
    <filter id="luminosity-noclip-5" x="118.56" y="101.77" width="20.12" height="21.67" color-interpolation-filters="sRGB" filterUnits="userSpaceOnUse">
      <feFlood flood-color="#fff" result="bg"/>
      <feBlend in="SourceGraphic" in2="bg"/>
    </filter>
    <filter id="luminosity-noclip-6" x="118.56" y="-10404.01" width="20.12" height="32766" color-interpolation-filters="sRGB" filterUnits="userSpaceOnUse">
      <feFlood flood-color="#fff" result="bg"/>
      <feBlend in="SourceGraphic" in2="bg"/>
    </filter>
    <mask id="mask-5" x="118.56" y="-10404.01" width="20.12" height="32766" maskUnits="userSpaceOnUse"/>
    <radialGradient id="radial-gradient-5" cx="255.01" cy="659.54" fx="255.01" fy="659.54" r="10.46" gradientTransform="translate(-74.59 -564.84) rotate(4.45)" xlink:href="#radial-gradient"/>
    <mask id="mask-4" x="118.56" y="101.77" width="20.12" height="21.67" maskUnits="userSpaceOnUse">
      <g style="filter: url(#luminosity-noclip-5);">
        <g style="mask: url(#mask-5);">
          <path d="m138.65,113.8c-.35,4.52-3.34,8.19-7.34,9.64-9.26-4.22-13.12-10.63-12.72-15.82.04-.53.09-1.05.14-1.57,2.23-2.84,5.79-4.55,9.66-4.25,6.15.48,10.74,5.85,10.26,12Z" style="fill: url(#radial-gradient-5); mix-blend-mode: multiply; stroke-width: 0px;"/>
        </g>
      </g>
    </mask>
    <radialGradient id="radial-gradient-6" cx="255.01" cy="659.54" fx="255.01" fy="659.54" r="10.46" gradientTransform="translate(-74.59 -564.84) rotate(4.45)" xlink:href="#radial-gradient-2"/>
    <filter id="luminosity-noclip-7" x="162.58" y="105.37" width="20.92" height="20.96" color-interpolation-filters="sRGB" filterUnits="userSpaceOnUse">
      <feFlood flood-color="#fff" result="bg"/>
      <feBlend in="SourceGraphic" in2="bg"/>
    </filter>
    <filter id="luminosity-noclip-8" x="162.58" y="-10404.01" width="20.92" height="32766" color-interpolation-filters="sRGB" filterUnits="userSpaceOnUse">
      <feFlood flood-color="#fff" result="bg"/>
      <feBlend in="SourceGraphic" in2="bg"/>
    </filter>
    <mask id="mask-7" x="162.58" y="-10404.01" width="20.92" height="32766" maskUnits="userSpaceOnUse"/>
    <radialGradient id="radial-gradient-7" cx="-581.08" cy="659.51" fx="-581.08" fy="659.51" r="10.46" gradientTransform="translate(-355.3 -586.65) rotate(-175.55) scale(1 -1)" xlink:href="#radial-gradient"/>
    <mask id="mask-6" x="162.58" y="105.37" width="20.92" height="20.96" maskUnits="userSpaceOnUse">
      <g style="filter: url(#luminosity-noclip-7);">
        <g style="mask: url(#mask-7);">
          <path d="m162.61,115.67c-.35,4.52,2.03,8.61,5.76,10.66,9.8-2.74,14.61-8.47,15.01-13.66.04-.53.08-1.05.11-1.57-1.76-3.15-5.02-5.39-8.88-5.69-6.15-.48-11.52,4.12-12,10.27Z" style="fill: url(#radial-gradient-7); mix-blend-mode: multiply; stroke-width: 0px;"/>
        </g>
      </g>
    </mask>
    <radialGradient id="radial-gradient-8" cx="-581.08" cy="659.51" fx="-581.08" fy="659.51" r="10.46" gradientTransform="translate(-355.3 -586.65) rotate(-175.55) scale(1 -1)" xlink:href="#radial-gradient-2"/>
  </defs>
  <g style="isolation: isolate;">
    <g id="_圖層_2" data-name="圖層 2">
      <g id="_圖層_8" data-name="圖層 8">
        <g id="Topic_exploration1">
          <g>
            <path d="m109.01,0c-1.59,0-3.21.03-4.8.1l.35,8c.38-.02.77-.03,1.15-.04,0,0,0,0,.01,0,0,0,.02,0,.02,0,0,0,.01,0,.02,0,0,0,.01,0,.02,0,0,0,.01,0,.02,0,0,0,.01,0,.02,0,.01,0,.01,0,.02,0,0,0,0,0,0,0,.03,0,.06,0,.1,0,0,0,0,0,0,0,.01,0,.02,0,.03,0,0,0,0,0,0,0,.64-.02,1.27-.03,1.91-.04,0,0,0,0,0,0,.01,0,.02,0,.03,0,0,0,0,0,0,0,.01,0,.02,0,.03,0,0,0,0,0,0,0,.04,0,.09,0,.13,0h0s.02,0,.03,0c0,0,0,0,0,0,0,0,.02,0,.03,0,0,0,0,0,.01,0,0,0,.02,0,.02,0,0,0,0,0,.01,0,.01,0,.02,0,.03,0,0,0,0,0,0,0,.02,0,.04,0,.06,0,0,0,0,0,0,0,0,0,.02,0,.03,0,0,0,0,0,.01,0,0,0,.02,0,.02,0,0,0,.01,0,.02,0,0,0,.01,0,.02,0h.02s.01,0,.02,0c0,0,.01,0,.02,0,0,0,.01,0,.02,0,0,0,.02,0,.02,0,0,0,.01,0,.02,0,.01,0,.02,0,.03,0h.02s.02,0,.02,0c0,0,.01,0,.02,0h.02s0,0,.02,0h.02s0,0,.02,0c0,0,.02,0,.03,0h.04s0,0,.01,0h.03s.01,0,.01,0h.08s.01,0,.02,0h.09V0h0Zm-7.67.27c-1.59.11-3.2.26-4.78.44l.91,7.96c.83-.09,1.66-.18,2.49-.25h0s.02,0,.04,0h0s.02,0,.03,0h0s.02,0,.03,0h0s.02,0,.03,0c0,0,0,0,0,0,.03,0,.05,0,.08,0,0,0,0,0,.01,0,0,0,.02,0,.03,0,0,0,.01,0,.01,0h.02s.01,0,.02,0c0,0,.01,0,.02,0,0,0,.02,0,.02,0,0,0,0,0,.01,0,.01,0,.01,0,.02,0,0,0,0,0,.01,0,.03,0,.06,0,.09,0,0,0,0,0,0,0,.01,0,.02,0,.03,0,0,0,0,0,0,0,.01,0,.02,0,.03,0,0,0,0,0,0,0,.01,0,.02,0,.03,0h0c.44-.04.88-.07,1.32-.1l-.56-7.99h0Zm-7.64.8c-1.58.22-3.17.48-4.74.77l1.46,7.87c1.45-.27,2.92-.51,4.39-.72l-1.12-7.93h0Zm-7.57,1.34c-1.56.33-3.13.71-4.67,1.11l2.02,7.75c1.05-.27,2.1-.53,3.16-.77,0,0,0,0,.01,0,0,0,.01,0,.02,0,0,0,.01,0,.02,0,0,0,.01,0,.02,0,0,0,.01,0,.02,0,0,0,0,0,.02,0,0,0,.02,0,.02,0,0,0,0,0,.01,0h.02s0,0,.01,0c.33-.07.66-.15.99-.22l-1.67-7.83h0Zm-7.45,1.87c-1.53.44-3.07.93-4.58,1.44l2.56,7.59c.51-.17,1.02-.34,1.54-.51,0,0,0,0,.01,0,.02,0,.04-.01.06-.02,0,0,.02,0,.02,0,.01,0,.02,0,.04-.01.01,0,.02,0,.04-.01,0,0,.01,0,.02,0,.02,0,.04-.01.05-.02,0,0,.01,0,.02,0,.02,0,.03-.01.05-.02,0,0,0,0,.01,0,.02,0,.04-.01.06-.02,0,0,0,0,0,0,.77-.24,1.55-.48,2.33-.7l-2.22-7.69h0Zm-7.3,2.4c-1.5.55-3,1.14-4.47,1.76l3.1,7.39c.75-.31,1.5-.62,2.25-.91h0s.04-.02.06-.02c0,0,0,0,0,0,.02,0,.04-.01.06-.02,0,0,0,0,.01,0,.02,0,.04-.01.05-.02,0,0,.01,0,.02,0,.02,0,.03-.01.04-.02,0,0,.02,0,.03-.01,0,0,.03-.01.03-.01.01,0,.02,0,.04-.01s.02,0,.03-.01c.01,0,.02,0,.03-.01,0,0,0,0,.01,0,.02,0,.04-.02.06-.02h0c.47-.18.94-.36,1.41-.53l-2.76-7.52h0Zm-7.11,2.91c-1.45.65-2.91,1.35-4.33,2.07l3.61,7.15c.14-.07.29-.15.43-.22h0s.04-.02.06-.03c0,0,0,0,0,0,.02-.01.03-.02.05-.03,0,0,0,0,0,0,.02,0,.04-.02.06-.03h0s.03-.02.05-.03c0,0,0,0,.01,0,.02,0,.03-.02.05-.02,0,0,.01,0,.02,0,.01,0,.03-.02.05-.02,0,0,.01,0,.02,0,.01,0,.03-.02.04-.02,0,0,.01,0,.02,0,.01,0,.03-.01.04-.02,0,0,.02,0,.02-.01.01,0,.02-.01.03-.02.01,0,.02-.01.03-.02,0,0,.02-.01.03-.02,0,0,.02,0,.03-.01.01,0,.02-.01.04-.02,0,0,.02,0,.02-.01.01,0,.03-.01.04-.02h.02s.02-.02.03-.03c.01,0,.02-.01.03-.02,0,0,.02,0,.03-.01.01,0,.03-.01.04-.02,0,0,.02,0,.03-.01.01,0,.02-.01.04-.02,0,0,.02-.01.03-.01s.02,0,.03-.01c.01,0,.03-.01.04-.02,0,0,.02,0,.03-.01.01,0,.03-.01.04-.02,0,0,.02,0,.03-.01.01,0,.02,0,.03-.01.01,0,.02-.01.03-.02,0,0,.02,0,.03-.01.01,0,.02-.01.03-.02,0,0,.02-.01.03-.01l.03-.02s.02-.01.03-.02c0,0,.02,0,.02-.01.01,0,.03-.01.04-.02,0,0,.02,0,.03-.01.01,0,.02-.01.04-.02,0,0,.02,0,.03-.01,0,0,.02-.01.03-.01.01,0,.02-.01.03-.02,0,0,.02,0,.03-.01.01,0,.02,0,.03-.01.01,0,.02-.01.04-.02,0,0,.02,0,.02-.01.01,0,.03-.01.04-.02,0,0,.01,0,.02-.01.01,0,.03-.01.04-.02h.02s.03-.02.04-.03c0,0,.01,0,.02-.01.01,0,.03-.01.04-.02,0,0,.01,0,.02,0,.01,0,.03-.01.04-.02,0,0,.01,0,.02,0,.01,0,.03-.01.05-.02h.02s.03-.02.05-.03c0,0,.01,0,.02,0,.01,0,.03-.02.05-.02h.01s.03-.02.05-.03c0,0,0,0,.01,0,.01,0,.04-.02.05-.02,0,0,0,0,.01,0,.02,0,.04-.02.05-.02,0,0,0,0,.01,0,.02,0,.04-.02.05-.02,0,0,0,0,.01,0,.02,0,.03-.02.05-.03,0,0,0,0,0,0,.02,0,.04-.02.06-.03,0,0,0,0,0,0,.02,0,.04-.02.06-.03,0,0,0,0,0,0,.02,0,.04-.02.06-.03h0s.04-.02.06-.03c0,0,0,0,0,0,.02,0,.04-.02.06-.03,0,0,0,0,0,0,.02,0,.04-.02.06-.03,0,0,0,0,0,0,.04-.02.08-.04.12-.06,0,0,0,0,0,0,.02,0,.04-.02.06-.03,0,0,0,0,0,0,.02,0,.04-.02.06-.03,0,0,0,0,0,0,.08-.04.17-.08.25-.11,0,0,0,0,0,0,.02,0,.04-.02.06-.03,0,0,0,0,0,0,.02,0,.04-.02.06-.03,0,0,0,0,0,0,.02,0,.04-.02.06-.03l-3.29-7.3h0Zm-6.89,3.4c-1.4.76-2.81,1.55-4.18,2.37l4.11,6.88c1.16-.69,2.34-1.36,3.53-2.01,0,0,0,0,0,0,.02,0,.03-.02.05-.03,0,0,.01,0,.02-.01.01,0,.02-.01.04-.02.01,0,.02,0,.03-.02,0,0,.02,0,.02-.01.01,0,.03-.02.04-.02,0,0,.01,0,.02,0,.01,0,.03-.02.05-.03,0,0,0,0,.01,0,.02,0,.04-.02.05-.03,0,0,0,0,0,0l-3.8-7.05h0Zm-6.63,3.88c-1.35.85-2.69,1.75-4,2.66l4.58,6.57s.01,0,.02-.01c0,0,.02-.01.02-.02.01,0,.02-.01.03-.02.01,0,.02-.01.03-.02,0,0,.01,0,.02-.01.01,0,.03-.02.04-.03h.02s.03-.03.04-.04c0,0,0,0,.01,0,.02-.01.03-.02.05-.03,0,0,0,0,0,0,.02-.01.03-.02.05-.03,0,0,0,0,0,0,.04-.03.07-.05.11-.08,0,0,0,0,0,0,.02-.01.04-.03.06-.04,0,0,0,0,0,0,.02-.01.04-.03.06-.04,0,0,0,0,0,0,.65-.44,1.3-.88,1.96-1.31,0,0,0,0,0,0,.02-.01.04-.02.05-.03,0,0,0,0,0,0,.02-.01.03-.02.05-.03,0,0,0,0,.01,0,.02-.01.03-.02.05-.03,0,0,0,0,.01,0,.01,0,.03-.02.04-.03,0,0,.01,0,.02-.01.01,0,.02-.01.04-.02,0,0,.01,0,.02-.01.01,0,.02-.01.04-.02,0,0,.02-.01.02-.02.01,0,.02-.02.04-.02,0,0,.02-.01.03-.02,0,0,.01,0,.02-.01.02-.01.03-.02.05-.03,0,0,0,0,0,0,.02-.01.04-.02.06-.04h0c.2-.13.41-.26.62-.4l-4.29-6.77h0Zm-6.34,4.34c-1.28.94-2.56,1.93-3.8,2.93l5.03,6.23c.29-.23.58-.46.87-.69,0,0,0,0,0,0,.01-.01.04-.03.05-.04,0,0,0,0,0,0,.02-.01.03-.02.05-.04,0,0,0,0,0,0,.01-.01.03-.03.05-.04,0,0,0,0,0,0,.01-.01.03-.03.05-.04,0,0,0,0,0,0,.01-.01.03-.02.05-.04,0,0,0,0,0,0,.01,0,.03-.02.04-.03,0,0,0,0,.01,0,.01-.01.03-.02.04-.03,0,0,0,0,.01-.01.02-.01.03-.02.04-.03,0,0,.01,0,.02-.01.01,0,.03-.02.04-.03,0,0,.01,0,.02-.01.01,0,.03-.02.04-.03h.02s.02-.03.03-.04c0,0,.02-.01.02-.02.01,0,.02-.02.03-.02l.02-.02s.02-.02.03-.02l.02-.02s.02-.02.03-.03c0,0,.02-.01.02-.02.01,0,.02-.02.03-.03,0,0,.02-.01.02-.02.01,0,.01-.01.02-.02.01,0,.02-.02.03-.03,0,0,.01,0,.02-.02.01,0,.03-.02.04-.03,0,0,.01-.01.02-.01.01,0,.03-.02.04-.03,0,0,.01,0,.02-.01.01,0,.03-.02.04-.03,0,0,.01-.01.02-.01l.03-.02s.01-.01.02-.02c.01,0,.02-.02.04-.03,0,0,.01,0,.01-.01.01-.01.03-.02.04-.03,0,0,0,0,.01-.01.02-.01.03-.02.05-.04,0,0,0,0,.01,0,.02-.01.03-.03.05-.04,0,0,0,0,0,0,.07-.05.14-.11.21-.16h0c.36-.27.72-.55,1.09-.81l-4.75-6.45h0Zm-6.02,4.77c-1.21,1.03-2.42,2.11-3.59,3.19l5.45,5.87c.87-.81,1.76-1.61,2.66-2.39h0s.04-.03.05-.05h0s.03-.03.05-.05c0,0,0,0,0,0,.01-.01.03-.03.04-.04,0,0,0,0,.01-.01,0,0,.02-.01.03-.02,0,0,.02-.02.03-.03,0,0,.01-.01.02-.02.01-.01.02-.02.03-.03,0,0,.01,0,.02-.01.01-.01.02-.02.03-.03,0,0,0,0,.01-.01.01-.01.03-.02.04-.03,0,0,0,0,0,0,.01-.01.03-.03.05-.04h0s.03-.03.05-.05c0,0,0,0,0,0,.05-.05.11-.09.16-.14l-5.19-6.1h0Zm-5.67,5.18c-1.14,1.11-2.27,2.27-3.35,3.43l5.85,5.47c.78-.83,1.56-1.65,2.37-2.45h0s.03-.03.05-.05h0s.03-.03.04-.05h0s.03-.03.04-.05h.01s.02-.03.03-.04c0,0,.01-.01.02-.02,0,0,.02-.02.03-.03,0,0,.01-.01.02-.02.01-.01.02-.02.03-.03,0,0,.02-.02.02-.02,0,0,0,0,0,0,.02-.02.03-.03.05-.05h0s.03-.04.05-.05h0c.11-.11.22-.21.33-.32l-5.61-5.72h0Zm-5.29,5.56c-1.06,1.19-2.1,2.42-3.11,3.66l6.22,5.05s.04-.05.06-.07c0,0,0,0,0-.01l.04-.04s.01-.02.02-.03c0,0,.01-.02.02-.02.01-.01.02-.02.03-.03,0,0,0-.01.01-.02.01-.01.02-.03.03-.04h0s.03-.04.04-.06c0,0,0,0,0,0,.01-.02.03-.03.04-.05,0,0,0,0,0,0,.01-.02.03-.03.04-.05,0,0,0,0,0,0,.34-.41.68-.82,1.02-1.23,0,0,0,0,0,0,.01-.02.03-.03.04-.05,0,0,0,0,0,0,.01-.02.03-.03.04-.05,0,0,0,0,0,0,.01-.02.03-.03.04-.05,0,0,0,0,0,0,.01-.02.03-.03.04-.05,0,0,0,0,0,0,.01-.01.03-.03.04-.04,0,0,0,0,0-.01.01-.01.02-.03.04-.04,0,0,0,0,.01-.01.01-.01.02-.03.03-.04,0,0,0-.01.01-.02.01-.01.02-.03.03-.04,0,0,.01-.01.02-.02,0,0,.02-.02.02-.03l.02-.03s.01-.01.02-.02c0-.01.02-.02.03-.03,0,0,.01-.01.02-.02,0-.01.02-.02.03-.03,0,0,.01-.02.02-.02.02-.03.05-.05.07-.08,0,0,0,0,0,0,.01-.02.03-.03.04-.05,0,0,0,0,0,0,.01-.02.03-.03.04-.05h0c.26-.31.53-.61.8-.92l-5.99-5.31h0Zm-4.89,5.92c-.97,1.26-1.93,2.57-2.84,3.87l6.56,4.6c.85-1.22,1.73-2.41,2.63-3.59l-6.35-4.88h0Zm-4.46,6.25c-.88,1.33-1.74,2.69-2.56,4.06l6.87,4.12c.14-.24.29-.48.43-.71h0s.02-.04.04-.06c0,0,0,0,0,0,.01-.02.02-.04.03-.06,0,0,0,0,0,0,.01-.02.02-.04.04-.06h0s.05-.08.07-.12c0,0,0,0,0,0,.01-.02.02-.04.03-.05,0,0,0,0,0,0,.01-.02.02-.04.03-.05,0,0,0,0,0,0,.01-.02.02-.03.03-.05,0,0,0,0,0,0,.01-.02.02-.04.03-.05,0,0,0,0,0,0,.01-.02.02-.03.03-.05,0,0,0,0,0,0,.01-.02.02-.03.03-.05,0,0,0,0,0,0,.01-.02.02-.03.03-.05,0,0,0,0,0-.01.01-.02.02-.03.03-.05h0s.02-.04.03-.06c0,0,0,0,0-.01.01-.02.02-.03.03-.05,0,0,0,0,0,0,.01-.02.02-.03.03-.05,0,0,0,0,0-.01.01-.02.02-.03.03-.05,0,0,0,0,0-.01,0-.01.02-.03.03-.05,0,0,0-.01,0-.02.01-.02.02-.03.03-.04,0,0,0-.01.01-.02,0-.01.02-.03.03-.04,0,0,0-.01.01-.02,0-.01.02-.03.03-.04,0,0,0-.01,0-.02,0-.01.02-.03.03-.04,0,0,0,0,0-.01.01-.02.02-.03.03-.04,0,0,0,0,0-.01,0-.01.02-.03.03-.04,0,0,0-.01.01-.02.01-.02.02-.03.03-.04,0,0,0-.01,0-.02,0-.01.02-.03.03-.05,0,0,0,0,0-.01,0-.01.02-.03.03-.04,0,0,0,0,0-.01,0-.01.02-.03.03-.04,0,0,0,0,0-.01.01-.02.02-.03.03-.05,0,0,0,0,0-.01.01-.02.02-.03.03-.05,0,0,0,0,0-.01.01-.02.02-.03.03-.05,0,0,0,0,0-.01.01-.02.02-.03.03-.05,0,0,0,0,0-.01.01-.02.02-.03.03-.05,0,0,0,0,0,0,.01-.02.02-.03.03-.05,0,0,0,0,0,0,.01-.02.02-.03.03-.05,0,0,0,0,0-.01.01-.02.02-.03.03-.05,0,0,0,0,0-.01.01-.02.02-.03.03-.05,0,0,0,0,0,0,.01-.02.02-.04.03-.05,0,0,0,0,0,0,.02-.04.05-.08.07-.11,0,0,0,0,0,0,.01-.02.02-.04.04-.06,0,0,0,0,0,0,.01-.02.02-.04.04-.06,0,0,0,0,0,0,.13-.19.25-.39.38-.58l-6.68-4.42h0Zm-4.01,6.55c-.78,1.39-1.55,2.81-2.27,4.23l7.14,3.63h0c.45-.89.92-1.77,1.39-2.65h0s.02-.04.03-.06t0,0c.03-.06.07-.12.1-.18,0,0,0,0,0,0,.01-.02.02-.04.03-.06,0,0,0,0,0,0,0-.02.02-.04.03-.06,0,0,0,0,0,0,.01-.02.02-.04.03-.06,0,0,0,0,0,0,.03-.06.07-.12.1-.18,0,0,0,0,0,0,.01-.02.02-.04.03-.06,0,0,0,0,0,0,.11-.2.23-.4.34-.61l-6.97-3.94h0Zm-3.54,6.82c-.68,1.44-1.35,2.91-1.97,4.38l7.38,3.12c.58-1.37,1.18-2.72,1.82-4.06l-7.23-3.44h0Zm-3.05,7.05c-.58,1.48-1.14,3-1.65,4.51l7.58,2.58c.03-.1.07-.2.1-.3h0s.01-.04.02-.06c0,0,0-.01,0-.02,0-.01,0-.02.01-.03,0-.01,0-.02.01-.04,0,0,0-.02,0-.03,0-.02,0-.03.01-.04,0,0,0-.02,0-.02,0-.01.01-.03.02-.04,0,0,0-.01,0-.02,0-.02.01-.03.02-.05h0s.01-.05.02-.07c0,0,0,0,0,0,0-.02.01-.04.02-.06,0,0,0,0,0,0,0-.02.01-.04.02-.06,0,0,0,0,0,0,.26-.74.53-1.48.81-2.22,0,0,0,0,0,0,0-.02.02-.04.02-.06,0,0,0,0,0,0,0-.02.02-.04.02-.06,0,0,0,0,0,0,0-.02.02-.04.02-.06,0,0,0,0,0,0,0-.02.01-.04.02-.06,0,0,0,0,0-.01,0-.02.01-.03.02-.05,0,0,0-.01,0-.02,0-.02.01-.03.02-.05,0,0,0-.01,0-.02,0-.01,0-.02.01-.04,0-.01,0-.02.01-.03,0,0,0-.02.01-.03,0-.02.01-.03.02-.05,0,0,0-.01,0-.02.07-.18.14-.36.21-.54l-7.46-2.92h0Zm-2.54,7.25c-.47,1.52-.92,3.08-1.33,4.62l7.74,2.04c.38-1.44.79-2.86,1.23-4.28l-7.65-2.38h0Zm-2.02,7.41c-.36,1.55-.7,3.13-1,4.7l7.87,1.49c.05-.26.1-.51.15-.77h0s0-.03,0-.04h0s0-.02,0-.04h0s0-.02,0-.03c0,0,0,0,0-.01,0,0,0-.01,0-.02,0-.01,0-.02,0-.04,0,0,0,0,0-.01,0,0,0-.02,0-.02,0,0,0,0,0-.01,0,0,0-.02,0-.03,0,0,0,0,0,0,0,0,0-.02,0-.03,0,0,0,0,0,0,0,0,0-.02,0-.03,0,0,0,0,0,0,.15-.77.32-1.54.49-2.31,0,0,0,0,0,0,0-.02.01-.05.02-.07h0c.02-.09.04-.18.06-.27h0c.05-.2.09-.41.14-.61l-7.8-1.83h0Zm-1.49,7.54c-.25,1.57-.48,3.17-.66,4.76l7.96.93c.07-.63.15-1.27.24-1.9,0,0,0,0,0,0,0,0,0-.02,0-.03h0s0-.03,0-.04c0,0,0,0,0,0,0,0,0-.02,0-.03,0,0,0,0,0,0,0-.04.01-.08.02-.13h0s0-.02,0-.03c0,0,0,0,0-.01,0,0,0-.01,0-.02,0,0,0-.01,0-.02,0,0,0-.01,0-.02,0,0,0,0,0-.01,0,0,0-.01,0-.02,0,0,0,0,0-.01,0-.04.01-.08.02-.12,0,0,0,0,0-.01,0,0,0-.01,0-.02,0,0,0,0,0-.01,0,0,0-.01,0-.02,0,0,0-.01,0-.02,0,0,0-.01,0-.02,0,0,0-.01,0-.02,0,0,0-.01,0-.02,0,0,0,0,0-.01,0,0,0-.02,0-.02,0,0,0,0,0,0,0-.02,0-.04,0-.06,0,0,0,0,0,0,0,0,0-.02,0-.03,0,0,0,0,0,0,0,0,0-.01,0-.02,0,0,0,0,0-.01,0,0,0-.01,0-.02,0,0,0-.01,0-.02,0,0,0-.02,0-.02,0,0,0,0,0-.01,0,0,0-.02,0-.03,0,0,0,0,0,0,0-.05.02-.11.02-.16,0,0,0,0,0,0,0,0,0-.02,0-.03,0,0,0,0,0,0,0,0,0-.02,0-.03,0,0,0,0,0,0,.07-.44.13-.89.21-1.33l-7.91-1.28h0Zm-.96,7.62c-.14,1.58-.25,3.2-.33,4.79l8,.37c.03-.72.07-1.45.12-2.16,0,0,0,0,0,0,0-.01,0-.02,0-.03,0,0,0,0,0-.01,0,0,0-.02,0-.03,0,0,0,0,0-.02v-.02s0-.01,0-.02c0,0,0-.01,0-.02,0-.04,0-.08,0-.13,0,0,0,0,0,0,0-.01,0-.02,0-.03,0,0,0,0,0,0,0-.01,0-.02,0-.03,0,0,0,0,0,0,.04-.63.1-1.27.15-1.9,0,0,0,0,0,0,0,0,0-.02,0-.02h0s-7.98-.73-7.98-.73H.44Zm-.42,7.66c-.01.74-.02,1.47-.02,2.21,0,.86.01,1.72.03,2.58l8.01-.19c0-.2,0-.4-.01-.59h0s0-.02,0-.03c0,0,0-.01,0-.02,0,0,0-.01,0-.02,0,0,0-.02,0-.02,0,0,0,0,0-.01,0-.01,0-.02,0-.03h0s0-.03,0-.04h0c0-.43-.01-.85-.01-1.27h0s0-.03,0-.04h0s0-.03,0-.04h0v-.04s0,0,0-.01v-.03h0s0-.03,0-.04h0v-.04h0s0-.03,0-.04v-.04h0v-.05h0v-.06h0s0-.05,0-.07h0v-.06s0-.01,0-.02v-.05s0-.01,0-.02c0-.01,0-.02,0-.04v-.02s0-.03,0-.05v-.03s0-.02,0-.03c0-.02,0-.03,0-.05,0,0,0-.01,0-.02,0-.01,0-.02,0-.03h0s0-.05,0-.08h0c0-.45,0-.89.02-1.34,0-.01,0-.02,0-.03,0,0,0-.02,0-.02,0-.02,0-.04,0-.05,0,0,0,0,0,0l-8.01-.16H.02Zm8.11,7.28l-8,.4c.08,1.59.19,3.2.34,4.79l7.97-.74c-.03-.34-.06-.69-.09-1.03,0,0,0,0,0,0,0,0,0-.02,0-.03,0,0,0,0,0,0,0-.01,0-.02,0-.03,0,0,0-.01,0-.02,0,0,0-.02,0-.02,0,0,0-.02,0-.03,0,0,0,0,0,0,0-.01,0-.03,0-.04h0s0-.03,0-.04h0s0-.03,0-.04h0c-.08-1.05-.15-2.09-.2-3.15h0Zm.6,7.09l-7.95.95c.19,1.58.42,3.18.68,4.75l7.9-1.3c-.24-1.46-.45-2.93-.63-4.41h0Zm1.1,7.03l-7.86,1.51c.3,1.57.64,3.15,1.01,4.7l7.79-1.86c-.11-.45-.21-.89-.31-1.34h0s0-.03,0-.04h0s-.01-.05-.02-.08c0,0,0,0,0,0,0,0,0-.02,0-.03,0,0,0-.02,0-.02,0,0,0-.01,0-.02,0,0,0-.01,0-.02,0,0,0,0,0-.01,0,0,0-.02,0-.02h0s0-.03,0-.04c0,0,0,0,0,0-.2-.9-.39-1.81-.56-2.72h0Zm1.59,6.94l-7.74,2.07c.41,1.54.86,3.09,1.34,4.61l7.64-2.41c-.21-.68-.42-1.37-.62-2.06,0,0,0,0,0,0,0-.02-.01-.04-.02-.06,0,0,0,0,0,0,0-.02-.01-.05-.02-.06,0,0,0,0,0,0,0-.02-.01-.04-.02-.06,0,0,0,0,0,0,0-.02-.01-.04-.02-.06,0,0,0,0,0-.01l-.02-.06h0s-.01-.05-.02-.07h0s-.01-.05-.02-.07c0,0,0,0,0-.01,0-.02,0-.03-.01-.05v-.02s-.01-.03-.02-.05c0,0,0-.01,0-.02,0-.02,0-.03-.01-.05,0,0,0-.01,0-.02,0-.02,0-.03-.01-.05,0,0,0-.02,0-.03,0-.01,0-.02,0-.03,0-.01,0-.02-.01-.04,0,0,0-.02,0-.03,0-.01,0-.03-.01-.04,0,0,0-.02,0-.03,0-.01,0-.02,0-.03,0,0,0-.02,0-.03,0-.02,0-.03-.01-.05,0,0,0-.01,0-.01,0-.02-.01-.04-.02-.06,0,0,0,0,0-.01,0-.02-.01-.04-.02-.07h0c-.02-.07-.03-.13-.05-.19h0s-.01-.05-.02-.08h0c-.07-.26-.14-.51-.21-.77h0Zm2.08,6.81l-7.57,2.61c.52,1.51,1.08,3.02,1.67,4.51l7.45-2.94c-.54-1.38-1.06-2.77-1.54-4.17h0Zm2.56,6.64l-7.37,3.14c.62,1.47,1.29,2.94,1.98,4.38l7.22-3.46c-.21-.44-.42-.88-.62-1.32,0,0,0,0,0,0,0-.02-.02-.04-.03-.06,0,0,0,0,0,0,0-.02-.02-.04-.03-.06,0,0,0,0,0,0,0-.02-.02-.04-.03-.06,0,0,0,0,0,0,0-.02-.02-.03-.02-.05,0,0,0,0,0-.01,0-.02-.02-.03-.02-.05,0,0,0-.01,0-.02,0-.02-.01-.03-.02-.05,0,0,0-.01,0-.02,0-.01-.01-.03-.02-.04,0,0,0-.02-.01-.02,0-.01,0-.02-.01-.03,0-.01-.01-.02-.02-.04,0,0,0-.02-.01-.02,0-.02-.01-.03-.02-.05,0,0,0-.01,0-.02,0-.02-.02-.04-.03-.06,0,0,0,0,0,0-.31-.68-.61-1.37-.9-2.06h0Zm3.02,6.44l-7.13,3.65c.73,1.42,1.5,2.84,2.29,4.22l6.96-3.97s0,0,0-.01c0-.01-.01-.02-.02-.04,0-.01-.01-.02-.02-.03,0,0,0-.02-.01-.02,0-.02-.02-.03-.03-.05,0,0,0-.01,0-.01-.5-.88-.99-1.77-1.46-2.67h0s-.02-.04-.03-.06c0,0,0,0,0,0,0-.02-.02-.04-.03-.05,0,0,0,0,0-.01l-.02-.03s-.01-.03-.02-.04c0,0,0-.02-.01-.02,0-.01-.01-.03-.02-.04,0,0,0-.01-.01-.02,0-.01-.01-.03-.02-.04,0,0,0,0,0-.01,0-.02-.02-.03-.03-.05,0,0,0,0,0-.01-.01-.02-.02-.04-.03-.05,0,0,0,0,0,0-.01-.02-.02-.04-.03-.06,0,0,0,0,0,0-.1-.18-.19-.37-.29-.56h0Zm3.47,6.21l-6.85,4.15c.83,1.36,1.69,2.73,2.58,4.05l6.66-4.45c-.33-.5-.66-1-.99-1.51,0,0,0,0,0,0-.01-.02-.02-.04-.04-.06,0,0,0,0,0,0-.01-.02-.02-.03-.03-.05,0,0,0,0,0,0-.01-.02-.02-.03-.03-.05h0s-.02-.04-.03-.06c0,0,0,0,0,0-.01-.02-.02-.03-.03-.05,0,0,0,0,0,0-.01-.02-.02-.03-.03-.05,0,0,0,0,0-.01-.01-.02-.02-.03-.03-.05,0,0,0,0,0-.01-.01-.02-.02-.03-.03-.05,0,0,0,0,0-.01-.01-.02-.02-.03-.03-.05,0,0,0,0,0-.01,0-.01-.02-.03-.03-.04,0,0,0,0,0-.01,0-.01-.02-.03-.03-.04,0,0,0,0,0-.01,0-.01-.02-.03-.03-.04,0,0,0-.01-.01-.02-.01-.02-.02-.03-.03-.04,0,0,0-.01-.01-.02,0-.01-.02-.03-.03-.04,0,0,0-.01-.01-.02-.01-.02-.02-.03-.03-.04,0,0,0,0,0-.01,0-.01-.02-.03-.02-.04,0,0,0-.01-.01-.02,0-.01-.02-.03-.03-.04,0,0,0-.01,0-.01,0-.01-.02-.03-.03-.04,0,0,0-.01-.01-.02-.01-.02-.02-.03-.03-.04,0,0,0-.01-.01-.02,0-.01-.02-.03-.03-.04,0,0,0-.01-.01-.02,0-.01-.02-.03-.02-.04,0,0,0-.01-.01-.02,0-.01-.01-.02-.02-.03,0,0-.01-.02-.02-.02,0-.01-.01-.02-.02-.04,0,0,0-.01-.01-.02,0-.01-.02-.03-.03-.04,0,0,0-.01-.01-.02-.01-.02-.02-.03-.03-.04,0,0,0-.01-.01-.02,0-.01-.02-.03-.03-.04,0,0,0-.01-.01-.02,0-.01-.02-.03-.03-.04,0,0,0-.01-.01-.02,0-.01-.02-.02-.02-.04,0,0,0-.01-.01-.02,0-.01-.02-.03-.02-.04,0,0,0-.01-.01-.02,0-.01-.02-.03-.03-.04,0,0,0-.01-.01-.02,0-.02-.02-.03-.03-.04,0,0,0-.01-.01-.02,0-.01-.02-.03-.03-.04,0,0,0-.01-.01-.02,0-.01-.02-.03-.02-.04,0,0,0-.01-.01-.02,0-.01-.02-.03-.02-.04,0,0,0-.01-.01-.02,0-.02-.02-.03-.03-.04,0,0,0-.01,0-.02,0-.01-.02-.03-.03-.05,0,0,0-.01,0-.02,0-.02-.02-.03-.03-.05,0,0,0-.01,0-.02,0-.01-.02-.03-.03-.05,0,0,0,0,0,0h0Zm3.9,5.95l-6.54,4.62c.92,1.3,1.88,2.6,2.85,3.86l6.33-4.9c-.58-.75-1.15-1.51-1.71-2.27,0,0,0,0,0,0-.01-.02-.02-.03-.04-.05,0,0,0,0,0,0-.01-.02-.02-.03-.03-.05,0,0,0,0,0-.01,0-.01-.02-.03-.03-.04,0,0,0,0-.01-.01-.01-.02-.02-.02-.03-.04,0,0,0-.01-.01-.02,0-.01-.02-.02-.02-.03,0,0-.01-.02-.02-.03,0,0-.01-.02-.02-.03,0-.01-.02-.02-.03-.04,0,0-.01-.01-.01-.02-.02-.03-.04-.06-.06-.09,0,0,0,0,0,0-.01-.02-.03-.04-.04-.06h0c-.18-.26-.37-.52-.55-.77h0Zm4.31,5.67l-6.2,5.07c1.01,1.23,2.06,2.46,3.12,3.65l5.97-5.33c-.05-.06-.1-.11-.15-.17,0,0-.01-.01-.02-.02,0,0-.02-.02-.02-.03-.01-.01-.02-.02-.03-.03,0,0,0,0-.01-.01-.01-.01-.03-.03-.04-.04,0,0,0,0,0,0-.01-.01-.03-.03-.04-.05,0,0,0,0,0,0-.01-.02-.03-.03-.04-.05,0,0,0,0,0,0-.54-.61-1.06-1.22-1.59-1.84,0,0,0,0,0,0-.01-.02-.03-.03-.04-.05,0,0,0,0,0,0-.01-.01-.03-.03-.04-.04,0,0,0,0,0-.01-.01-.01-.02-.03-.04-.04,0,0,0,0-.01-.01-.01-.01-.02-.02-.03-.03,0,0-.01-.02-.02-.03,0,0-.01-.02-.02-.02,0-.01-.02-.02-.03-.03,0,0,0-.01-.02-.02-.01-.02-.03-.03-.04-.05h0c-.21-.26-.42-.51-.63-.77h0Zm4.69,5.35l-5.83,5.49c1.09,1.16,2.22,2.31,3.37,3.42l5.59-5.74h0s-.03-.03-.04-.04c0,0,0,0-.01-.01-.01-.01-.03-.02-.04-.04,0,0,0,0-.01-.01-.01-.01-.03-.03-.04-.04,0,0-.01-.01-.02-.02,0,0-.02-.02-.03-.03,0,0-.02-.02-.03-.02,0,0-.01-.01-.02-.02,0,0-.02-.02-.03-.03,0,0-.01-.01-.02-.02-.01-.01-.02-.02-.03-.03,0,0,0,0-.02-.02-.04-.04-.09-.09-.13-.13h0s-.03-.04-.05-.05h0s-.03-.04-.05-.05h0c-.28-.28-.55-.55-.83-.83h0s-.04-.04-.05-.05h0s-.03-.04-.05-.05h0s-.09-.09-.13-.14c0,0,0,0,0,0-.02-.02-.03-.03-.05-.05,0,0,0,0-.01-.01l-.04-.04s0,0-.01-.01c-.01-.01-.02-.02-.03-.04,0,0-.01-.01-.02-.02,0,0-.01-.01-.02-.02-.01-.01-.02-.02-.03-.03,0,0-.01-.01-.02-.02,0,0-.02-.02-.03-.03,0,0-.01-.01-.02-.02-.01-.01-.02-.02-.03-.03,0,0-.01-.01-.02-.02-.01-.01-.02-.02-.03-.03,0,0-.01-.01-.02-.02-.01-.01-.02-.02-.03-.03,0,0,0,0,0-.01-.01-.01-.03-.03-.04-.04,0,0,0,0,0,0-.02-.02-.03-.03-.04-.04,0,0,0,0,0,0-.01-.01-.03-.03-.04-.04,0,0,0,0,0,0-.3-.32-.61-.63-.91-.95h0Zm5.06,5.01l-5.43,5.88c1.17,1.08,2.38,2.15,3.6,3.18l5.17-6.12c-.57-.48-1.13-.96-1.68-1.45,0,0,0,0,0,0-.09-.08-.17-.15-.26-.23,0,0,0,0,0,0-.02-.01-.03-.03-.05-.04,0,0,0,0,0,0-.02-.01-.03-.03-.05-.04,0,0,0,0,0,0-.02-.01-.03-.03-.05-.04,0,0,0,0,0,0-.04-.03-.06-.06-.1-.09h0s-.03-.03-.05-.04c0,0,0,0,0,0-.02-.01-.03-.03-.05-.04,0,0,0,0,0,0-.01-.01-.03-.03-.04-.04,0,0,0,0,0,0-.02-.01-.03-.03-.04-.04,0,0,0,0,0,0-.01-.01-.03-.03-.05-.04,0,0,0,0,0,0-.01-.01-.03-.03-.04-.04,0,0,0,0,0,0-.01-.01-.03-.03-.04-.04,0,0,0,0,0,0-.02-.01-.03-.02-.04-.04,0,0,0,0-.01,0-.01-.01-.03-.03-.04-.04,0,0,0,0-.01,0-.01-.01-.03-.03-.04-.04,0,0,0,0-.01,0-.01-.01-.03-.03-.04-.04,0,0,0,0,0,0-.01-.01-.03-.03-.04-.04,0,0,0,0,0,0-.01-.01-.03-.03-.04-.04,0,0,0,0-.01-.01-.01-.01-.03-.02-.04-.04,0,0,0,0-.01-.01-.01-.01-.02-.02-.04-.03,0,0,0,0-.01-.01-.01-.01-.03-.02-.04-.03,0,0-.01,0-.02-.01,0,0-.03-.02-.03-.03,0,0-.01-.01-.02-.02,0,0-.02-.02-.03-.03,0,0-.02-.01-.02-.02-.01-.01-.02-.02-.03-.03,0,0-.01-.01-.02-.02-.01-.01-.02-.02-.03-.03,0,0-.01-.01-.02-.02,0,0-.02-.02-.03-.03l-.02-.02s-.02-.02-.03-.02c0,0,0,0-.01-.01h0Zm5.39,4.64l-5.01,6.25c1.24,1,2.53,1.98,3.81,2.92l4.73-6.46c-.37-.27-.73-.54-1.09-.81h0s-.04-.03-.06-.05h0s-.02-.02-.03-.03c-.01,0-.02-.01-.03-.02,0,0-.02-.01-.03-.02-.01,0-.02-.01-.03-.02,0,0-.02-.01-.03-.02-.01,0-.02-.02-.03-.02,0,0-.01-.01-.02-.02-.01,0-.03-.02-.04-.03h-.01s-.03-.03-.04-.04c0,0,0,0-.01,0-.02-.01-.03-.02-.05-.04,0,0,0,0,0,0-.02-.01-.03-.03-.05-.04,0,0,0,0,0,0-.66-.5-1.32-1.02-1.97-1.54h0Zm5.71,4.25l-4.56,6.59c1.31.91,2.66,1.8,4.01,2.64l4.26-6.78c-.3-.19-.61-.38-.91-.58h0s-.04-.03-.06-.04c0,0,0,0,0,0-.02-.01-.03-.02-.05-.03,0,0-.01,0-.02-.01,0,0-.02-.01-.03-.02-.01,0-.02-.02-.03-.02,0,0-.02-.01-.02-.02-.01,0-.02-.02-.04-.02h-.02s-.03-.03-.04-.04c0,0-.01,0-.02-.01-.01,0-.03-.02-.04-.03,0,0,0,0-.01,0-.02-.01-.03-.02-.05-.03,0,0,0,0-.01,0-.01,0-.03-.02-.05-.03,0,0,0,0-.01,0-.02-.01-.03-.02-.05-.03,0,0,0,0,0,0-.02-.01-.03-.02-.05-.03,0,0,0,0,0,0-.74-.48-1.47-.97-2.19-1.47h0Zm5.99,3.84l-4.08,6.89c1.37.81,2.78,1.61,4.18,2.36l3.77-7.06c-.74-.4-1.48-.8-2.21-1.22h0s-.04-.02-.06-.04c0,0,0,0-.02,0-.01,0-.03-.02-.04-.03,0,0-.01,0-.02-.01-.01,0-.03-.01-.04-.02,0,0-.02,0-.03-.01,0,0-.02-.01-.03-.02-.01,0-.02-.01-.03-.02,0,0-.01,0-.02-.01-.01,0-.03-.02-.04-.02,0,0-.01,0-.02-.01-.01,0-.03-.02-.05-.03,0,0,0,0-.01,0-.02,0-.03-.02-.05-.03,0,0,0,0,0,0-.02,0-.04-.02-.05-.03,0,0,0,0,0,0-.02,0-.04-.02-.06-.03,0,0,0,0,0,0-.02-.01-.04-.02-.05-.03,0,0,0,0,0,0-.02,0-.04-.02-.06-.03h0c-.32-.19-.64-.37-.96-.56h0Zm6.25,3.41l-3.59,7.16c1.43.71,2.89,1.41,4.34,2.06l3.27-7.31c-.07-.03-.14-.06-.21-.1h0s-.04-.02-.06-.03c0,0-.01,0-.02,0-.01,0-.03-.01-.04-.02,0,0-.02,0-.03-.01-.01,0-.02,0-.03-.01-.01,0-.03-.01-.04-.02,0,0-.01,0-.02,0-.02,0-.03-.01-.05-.02,0,0-.01,0-.02,0-.01,0-.03-.02-.05-.02,0,0,0,0-.01,0-.02,0-.04-.02-.05-.02,0,0,0,0,0,0-.02,0-.04-.02-.06-.03h0s-.04-.02-.06-.03c0,0,0,0,0,0-.02,0-.04-.02-.06-.03,0,0,0,0,0,0-.93-.42-1.85-.86-2.76-1.31,0,0,0,0,0,0-.02-.01-.04-.02-.06-.03,0,0,0,0,0,0-.02,0-.04-.02-.06-.03,0,0,0,0,0,0-.02,0-.04-.02-.05-.03,0,0,0,0-.01,0-.01,0-.03-.02-.05-.02,0,0-.01,0-.02-.01-.01,0-.03-.01-.04-.02,0,0-.02,0-.03-.01,0,0-.01,0-.02,0-.02,0-.04-.02-.05-.03h0s-.02-.01-.03-.02h0Zm6.47,2.96l-3.07,7.4c1.47.61,2.98,1.2,4.48,1.74l2.74-7.53c-.75-.27-1.5-.55-2.24-.84h0s-.05-.02-.07-.03h0s-.04-.02-.07-.03h0s-.07-.03-.11-.04h0s-.04-.02-.07-.03c0,0,0,0,0,0-.02,0-.04-.02-.06-.02h0s-.04-.02-.06-.03h0s-.05-.02-.07-.03h0s-.07-.03-.11-.04h0s-.04-.02-.07-.03h0s-.05-.02-.07-.03h0c-.37-.15-.75-.3-1.12-.46h0Zm6.67,2.49l-2.54,7.6c1.51.51,3.06.98,4.59,1.42l2.2-7.7c-.57-.16-1.14-.33-1.7-.5h0s-.05-.02-.07-.02h0c-.06-.02-.12-.04-.18-.06,0,0,0,0,0,0-.02,0-.04-.01-.07-.02h0s-.05-.02-.07-.02h0s-.07-.02-.11-.04h0s-.05-.01-.07-.02c0,0,0,0,0,0-.02,0-.04-.01-.07-.02h0c-.63-.2-1.25-.4-1.88-.61h0Zm6.83,2.01l-1.99,7.76c1.54.4,3.12.76,4.68,1.09l1.65-7.84c-.36-.08-.73-.15-1.09-.23h0s-.02,0-.03,0c0,0,0,0,0,0-.01,0-.02,0-.03,0h0c-1.06-.24-2.12-.49-3.17-.76h0Zm6.95,1.52l-1.44,7.88c1.57.29,3.16.54,4.74.76l1.09-7.93c-.87-.12-1.74-.25-2.61-.39,0,0,0,0-.01,0,0,0-.01,0-.02,0,0,0-.01,0-.02,0,0,0-.01,0-.02,0,0,0-.01,0-.02,0,0,0,0,0-.01,0,0,0-.02,0-.03,0h0s-.02,0-.04,0h0c-.54-.09-1.08-.18-1.61-.28h0Zm7.04,1.03l-.88,7.96c1.58.17,3.19.32,4.78.42l.53-7.99c-1.1-.07-2.2-.16-3.29-.27,0,0,0,0,0,0-.01,0-.02,0-.03,0,0,0,0,0-.01,0,0,0-.02,0-.02,0h-.02s-.01,0-.02,0c-.01,0-.02,0-.03,0h0s-.02,0-.03,0h0s-.02,0-.04,0h0c-.31-.03-.61-.06-.91-.1h0Zm7.1.53l-.32,8c1.47.06,2.95.09,4.42.09h.37s-.03-8.01-.03-8.01c-.03,0-.05,0-.08,0,0,0-.01,0-.02,0h-.01c-.08,0-.16,0-.24,0h-.07s-.04,0-.06,0h-.06s0,0-.01,0c-.02,0-.03,0-.05,0h-.01s-.03,0-.05,0h0s-.04,0-.05,0h-.02s-.03,0-.05,0h-.02s-.03,0-.04,0c0,0-.01,0-.02,0-.02,0-.03,0-.05,0,0,0-.01,0-.02,0-.01,0-.02,0-.04,0,0,0-.01,0-.02,0-.02,0-.03,0-.05,0,0,0-.02,0-.02,0-.01,0-.02,0-.03,0-.01,0-.02,0-.03,0-.01,0-.02,0-.04,0,0,0-.02,0-.03,0-.01,0-.02,0-.03,0-.01,0-.03,0-.04,0-.01,0-.02,0-.03,0,0,0-.02,0-.03,0-.01,0-.02,0-.03,0-.01,0-.03,0-.04,0,0,0-.01,0-.02,0-.02,0-.04,0-.06,0,0,0-.01,0-.02,0-.01,0-.02,0-.03,0,0,0-.01,0-.02,0-.02,0-.04,0-.06,0,0,0,0,0-.01,0-.01,0-.02,0-.04,0,0,0,0,0-.01,0-.02,0-.04,0-.07,0,0,0,0,0-.01,0-.51,0-1.03-.02-1.54-.03h0s-.08,0-.12,0c0,0,0,0,0,0-.04,0-.07,0-.11,0,0,0-.01,0-.02,0-.02,0-.03,0-.05,0-.01,0-.02,0-.03,0,0,0-.02,0-.03,0-.01,0-.02,0-.03,0-.01,0-.02,0-.03,0-.01,0-.03,0-.04,0h-.02s-.03,0-.05,0c0,0,0,0-.01,0-.01,0-.03,0-.05,0h0s-.04,0-.06,0c0,0,0,0,0,0-.17,0-.34-.01-.51-.02h0Zm11.56-.19c-1.47.11-2.95.18-4.44.23l.23,8.01c1.59-.05,3.2-.13,4.79-.24l-.58-7.99h0Zm7.08-.77c-.81.12-1.62.22-2.44.32,0,0,0,0,0,0,0,0-.02,0-.03,0,0,0,0,0-.01,0,0,0-.01,0-.02,0,0,0-.01,0-.02,0,0,0-.01,0-.02,0-.02,0-.05,0-.07,0,0,0,0,0,0,0-.01,0-.02,0-.03,0h0s-.02,0-.04,0h0c-.57.07-1.14.13-1.72.19l.79,7.97c1.59-.16,3.19-.35,4.77-.58l-1.14-7.93h0Zm7-1.26c-.71.15-1.43.3-2.15.44h0s-.02,0-.03,0c0,0,0,0-.01,0,0,0-.02,0-.02,0,0,0-.01,0-.02,0,0,0-.01,0-.02,0,0,0-.02,0-.02,0,0,0,0,0,0,0,0,0-.02,0-.03,0,0,0,0,0,0,0-.68.13-1.36.26-2.05.37l1.35,7.89c1.57-.27,3.16-.58,4.72-.92l-1.7-7.83h0Zm6.9-1.76c-1.18.35-2.37.67-3.57.97h0s-.1.03-.15.04c0,0,0,0,0,0,0,0-.02,0-.03,0h-.02s0,0-.01,0c0,0-.02,0-.02,0,0,0,0,0-.01,0h-.03s0,0,0,0c0,0-.02,0-.03,0,0,0,0,0,0,0-.13.03-.27.07-.4.1l1.91,7.78c1.55-.38,3.11-.8,4.64-1.25l-2.25-7.69h0Zm6.76-2.24s-.08.03-.13.05c0,0,0,0,0,0-.02,0-.04.01-.06.02,0,0,0,0-.01,0-.02,0-.04.01-.05.02,0,0,0,0-.01,0-.02,0-.03.01-.05.02,0,0,0,0-.01,0-.02,0-.03.01-.05.02,0,0-.01,0-.02,0-.02,0-.03.01-.04.02,0,0-.01,0-.02,0-.02,0-.03.01-.05.02,0,0-.02,0-.02,0-.02,0-.03.01-.04.02,0,0-.02,0-.02,0-.01,0-.02,0-.03.01-.01,0-.02,0-.04.01,0,0-.02,0-.03,0-.01,0-.03,0-.04.01,0,0-.02,0-.03,0-.01,0-.03,0-.04.01,0,0-.02,0-.03,0-.01,0-.02,0-.03.01,0,0-.02,0-.03.01-.01,0-.03,0-.04.01,0,0-.01,0-.02,0-.02,0-.03.01-.05.02,0,0-.01,0-.02,0-.02,0-.03.01-.05.02,0,0-.01,0-.02,0-.02,0-.04.01-.05.02,0,0-.01,0-.02,0-.01,0-.02,0-.03.01,0,0,0,0-.01,0-.02,0-.04.01-.05.02,0,0-.01,0-.02,0-.02,0-.04.01-.05.02,0,0-.01,0-.02,0-.02,0-.03.01-.05.02,0,0-.01,0-.02,0-.02,0-.03.01-.05.02,0,0-.01,0-.02,0-.01,0-.02,0-.03.01,0,0-.02,0-.02,0-.02,0-.03.01-.05.02,0,0-.02,0-.03,0-.01,0-.03,0-.04.01,0,0-.02,0-.02,0-.01,0-.03.01-.04.01,0,0-.02,0-.03,0,0,0-.02,0-.03,0-.01,0-.03.01-.04.01,0,0-.02,0-.03,0-.02,0-.03,0-.04.01,0,0-.02,0-.02,0-.01,0-.02,0-.04.01-.01,0-.02,0-.03.01-.01,0-.02,0-.03.01,0,0-.02,0-.03,0-.01,0-.03,0-.04.01,0,0-.01,0-.02,0-.02,0-.03.01-.05.02,0,0-.01,0-.02,0-.02,0-.03.01-.05.02,0,0-.01,0-.02,0-.02,0-.03.01-.05.02,0,0,0,0-.01,0-.02,0-.03.01-.05.02,0,0,0,0-.01,0-.02,0-.04.01-.05.02h-.01s-.04.02-.06.02c0,0,0,0-.01,0-.02,0-.04.01-.06.02,0,0,0,0,0,0-.02,0-.04.01-.06.02,0,0,0,0,0,0-.04.01-.09.03-.13.04,0,0,0,0,0,0-.02,0-.04.01-.06.02t0,0c-.46.16-.92.31-1.39.46l2.45,7.62c1.52-.49,3.04-1.02,4.54-1.57l-2.79-7.51h0Zm6.58-2.72c-.17.08-.34.15-.51.23,0,0,0,0,0,0-.02,0-.04.02-.06.03,0,0,0,0,0,0-.02,0-.04.02-.06.03,0,0,0,0,0,0-.04.02-.08.04-.12.06,0,0,0,0,0,0-.02,0-.04.02-.06.03,0,0,0,0,0,0-.02,0-.04.02-.06.02,0,0,0,0-.01,0-.02,0-.03.02-.05.02,0,0,0,0-.01,0-.02,0-.04.02-.05.02,0,0,0,0,0,0-.02,0-.03.01-.05.02,0,0,0,0-.01,0-.02,0-.03.02-.05.02h-.01s-.03.02-.05.03c0,0-.01,0-.02,0-.01,0-.03.02-.05.02,0,0-.01,0-.02,0-.02,0-.03.01-.05.02,0,0,0,0-.01,0-.01,0-.03.01-.04.02h-.02s-.03.02-.04.03c0,0-.01,0-.02,0-.01,0-.03.01-.04.02,0,0-.02,0-.02.01-.01,0-.03.01-.04.02,0,0-.02,0-.03.01-.01,0-.02,0-.03.01-.01,0-.02.01-.04.02,0,0-.02,0-.03.01-.01,0-.03.01-.04.02,0,0-.01,0-.02.01-.02,0-.03.01-.05.02,0,0-.01,0-.02,0-.01,0-.02,0-.03.01-.01,0-.02.01-.04.02-.01,0-.02,0-.03.01,0,0-.01,0-.02,0-.02,0-.04.02-.05.02,0,0,0,0-.01,0l-.06.03s0,0,0,0c-.02,0-.04.02-.06.03h0c-.06.03-.12.05-.18.08h0s-.05.02-.07.03h0c-.56.24-1.13.47-1.7.7l2.99,7.43c1.48-.59,2.96-1.23,4.42-1.89l-3.32-7.29h0Zm6.37-3.17c-.57.31-1.14.61-1.72.91,0,0,0,0,0,0-.02.01-.04.02-.06.03,0,0,0,0,0,0-.02.01-.03.02-.05.03,0,0,0,0-.01,0-.02,0-.03.02-.05.03,0,0,0,0-.01,0-.01,0-.03.02-.05.02,0,0-.01,0-.02,0-.01,0-.03.01-.04.02,0,0-.02,0-.02.01-.01,0-.02.01-.03.02,0,0-.02,0-.03.01-.01,0-.02.01-.03.02,0,0-.02,0-.02.01-.01,0-.03.01-.04.02,0,0-.02,0-.03.01,0,0-.02.01-.03.02-.01,0-.02.01-.03.02,0,0-.01,0-.02,0-.02,0-.03.02-.05.02,0,0,0,0-.01,0-.02,0-.04.02-.05.03,0,0,0,0,0,0-.41.21-.81.41-1.22.61,0,0-.01,0-.02,0-.02,0-.03.02-.05.02,0,0-.01,0-.02.01-.01,0-.02.01-.04.02-.01,0-.02.01-.03.02,0,0-.01,0-.02.01-.01,0-.03.01-.04.02,0,0-.01,0-.02,0-.02,0-.03.01-.05.02,0,0,0,0,0,0l3.51,7.2c1.43-.7,2.87-1.44,4.27-2.2l-3.82-7.04h0Zm6.13-3.62c-.98.62-1.96,1.23-2.96,1.82,0,0,0,0,0,0-.02.01-.03.02-.05.03h0s-.03.03-.05.04c0,0-.01,0-.02,0-.01,0-.03.01-.04.02,0,0-.02.01-.03.02,0,0-.02.01-.03.02-.02,0-.03.02-.05.03,0,0,0,0-.01,0-.19.11-.37.22-.56.33l4.01,6.93c1.38-.8,2.76-1.64,4.1-2.49l-4.31-6.75h0Zm5.86-4.04c-.64.48-1.29.95-1.94,1.41h0c-.07.05-.14.1-.21.15,0,0,0,0,0,0l-.05.04s0,0,0,0c-.02.01-.03.02-.05.04,0,0,0,0-.01,0-.02.01-.03.02-.05.03,0,0,0,0-.01,0-.01,0-.03.02-.04.03,0,0-.02.01-.02.02,0,0-.02.01-.03.02,0,0-.02.01-.03.02-.01,0-.02.01-.03.02,0,0-.02.01-.02.02l-.03.02s-.02.01-.03.02c0,0-.02.01-.03.02-.01,0-.02.01-.03.02,0,0-.01,0-.02.01-.01,0-.03.02-.04.03,0,0-.01,0-.02.01-.01,0-.03.02-.04.03h-.01s-.03.03-.05.04c0,0,0,0-.01,0-.02.01-.03.02-.05.03,0,0,0,0,0,0-.25.17-.49.34-.74.51l4.49,6.63c1.32-.89,2.64-1.83,3.92-2.78l-4.77-6.43h0Zm5.56-4.44c-.41.35-.83.7-1.24,1.05h0s-.03.03-.05.05c0,0,0,0,0,0-.02.01-.03.03-.05.04,0,0,0,0-.01,0-.01.01-.03.02-.04.03,0,0-.01.01-.02.01,0,0-.02.01-.02.02,0,0-.02.02-.03.02,0,0-.02.01-.03.02,0,0-.02.01-.02.02-.01,0-.02.02-.03.03,0,0-.02.01-.02.02-.01,0-.02.02-.03.02,0,0-.02.01-.03.02,0,0-.02.01-.02.02,0,0-.02.02-.03.03,0,0-.01.01-.02.02-.01.01-.03.02-.04.03,0,0-.01,0-.02.01-.01.01-.02.02-.04.03,0,0,0,0-.01.01-.01.01-.03.02-.04.03,0,0,0,0-.01,0-.01.01-.03.02-.04.03,0,0,0,0,0,0-.01,0-.03.02-.04.03,0,0,0,0,0,0-.01.01-.03.02-.04.04,0,0,0,0-.01,0-.01.01-.03.02-.05.04,0,0,0,0,0,0-.01.01-.03.03-.05.04,0,0,0,0,0,0-.02.01-.03.02-.05.04,0,0,0,0,0,0-.03.03-.07.06-.1.08,0,0,0,0,0,0-.02.01-.03.03-.05.04h0s-.03.03-.05.04c0,0,0,0,0,0-.02.01-.04.03-.05.04,0,0,0,0,0,0-.32.26-.65.52-.98.78l4.94,6.3c1.25-.98,2.5-2.01,3.71-3.04l-5.21-6.08h0Zm5.24-4.82c-.07.07-.14.14-.21.21,0,0,0,0-.01.01-.01.01-.02.02-.04.03,0,0-.02.01-.02.02,0,0-.02.02-.03.02,0,0-.02.02-.03.03,0,0,0,0-.01.01-.01.01-.03.02-.04.04,0,0,0,0-.01.01-.01.01-.03.03-.04.04,0,0,0,0,0,0-.01.01-.03.03-.04.04,0,0,0,0,0,0-.9.87-1.81,1.73-2.74,2.57l5.37,5.94c1.18-1.07,2.36-2.18,3.49-3.3l-5.62-5.7h0Zm4.89-5.17c-.21.24-.43.49-.64.72,0,0,0,0,0,0-.01.02-.03.03-.04.05,0,0,0,0,0,0-.01.01-.03.03-.04.04,0,0,0,0-.01.01-.01.01-.02.03-.04.04,0,0,0,0-.01.01-.01.01-.02.03-.03.04,0,0,0,.01-.01.02-.01.01-.02.02-.03.03,0,0-.01.01-.02.02,0,0-.02.02-.03.03,0,0-.01.01-.02.02-.01.01-.02.02-.03.03,0,0-.01.01-.02.02-.01.01-.02.02-.03.03,0,0-.01.01-.02.02-.01.01-.02.02-.03.03,0,0-.01.01-.02.02,0,0-.02.02-.02.02,0,.01-.02.02-.03.03,0,0-.01.01-.02.02-.01.01-.02.02-.03.03,0,0-.01.01-.02.02-.01.01-.02.02-.03.03,0,0-.01.01-.02.02,0,0-.01.02-.02.02,0,0-.02.02-.02.03,0,0-.02.02-.03.03,0,0-.01.01-.01.02-.01.01-.02.02-.03.04,0,0,0,.01-.02.02-.01.01-.02.02-.03.04,0,0-.01.01-.02.02-.01.01-.02.02-.03.03,0,0-.01.01-.02.02,0,.01-.02.02-.03.03,0,0-.01.01-.02.02,0,0-.01.02-.02.02,0,0-.02.02-.03.03,0,0-.01.01-.02.02-.01.01-.02.02-.03.03,0,0-.01.01-.02.02,0,0-.02.02-.02.03,0,0-.02.02-.02.03,0,0-.02.02-.02.03,0,0-.01.01-.02.02-.01.01-.02.02-.03.03,0,0,0,.01-.01.02-.01.01-.02.03-.04.04,0,0,0,0-.01.01-.01.01-.02.02-.04.04,0,0,0,0-.01.01-.01.01-.03.03-.04.04,0,0,0,0,0,0-.01.01-.03.03-.04.04,0,0,0,0,0,0-.02.02-.03.03-.04.05,0,0,0,0,0,0-.02.02-.03.03-.05.05,0,0,0,0,0,0-.02.02-.03.03-.05.05,0,0,0,0,0,0-.3.32-.6.64-.91.96l5.77,5.55c1.1-1.15,2.2-2.34,3.25-3.53l-6.01-5.29h0Zm4.51-5.5c-.08.1-.15.2-.23.29,0,0,0,0,0,0-.01.02-.03.03-.04.05,0,0,0,0,0,.01l-.03.04s0,.01-.01.02c-.01.01-.02.03-.03.04,0,0,0,.01-.01.02,0,0-.01.02-.02.03,0,.01-.02.02-.03.03,0,0-.01.02-.02.02,0,.01-.02.02-.03.03,0,0-.01.01-.02.02,0,.01-.02.02-.03.03,0,0-.01.01-.02.02,0,.01-.02.02-.02.03,0,0-.01.02-.02.02,0,0-.02.02-.03.03,0,0,0,.01-.01.02,0,.01-.02.03-.03.04,0,0,0,.01-.01.02,0,.01-.02.03-.03.04,0,0,0,.01-.01.02-.01.02-.02.03-.03.04,0,0,0,0-.01.01-.01.01-.02.03-.03.04,0,0,0,0,0,.01,0,.01-.02.03-.03.04,0,0,0,0,0,.01,0,.01-.02.03-.03.04,0,0,0,0,0,.01-.01.01-.02.03-.04.05,0,0,0,0,0,0-.01.01-.02.03-.04.04h0s-.02.04-.03.06c0,0,0,0,0,.01-.01.01-.02.03-.04.04,0,0,0,0,0,0-.01.01-.02.03-.04.05h0s-.02.03-.04.05c0,0,0,0,0,0-.01.01-.02.03-.04.05,0,0,0,0,0,.01-.01.01-.02.03-.04.04,0,0,0,0,0,.01-.01.01-.02.03-.04.04,0,0,0,0,0,0-.01.01-.02.03-.04.05,0,0,0,0,0,0,0,.01-.03.03-.04.04,0,0,0,0,0,0,0,.01-.02.03-.03.04,0,0,0,0,0,.01-.01.01-.02.03-.04.04,0,0,0,0,0,.01-.01.01-.02.03-.04.04,0,0,0,0,0,.01-.01.01-.02.03-.04.04h0s-.02.04-.04.06c0,0,0,0,0,0-.01.01-.02.03-.04.04,0,0,0,0,0,0-.01.02-.02.03-.04.04,0,0,0,0,0,0-.01.01-.02.03-.04.05h0s-.02.04-.03.05c0,0,0,0-.01.01-.01.01-.02.03-.03.04,0,0,0,0,0,.01-.01.01-.02.03-.04.04,0,0,0,0,0,0-.01.01-.02.03-.04.04,0,0,0,0,0,0-.01.01-.02.03-.03.04,0,0,0,0,0,.01-.01.01-.02.03-.04.04,0,0,0,0-.01.01-.01.01-.02.03-.03.04,0,0,0,0-.01.01-.01.01-.02.03-.04.04,0,0,0,0,0,.01-.01.01-.02.03-.04.04,0,0,0,0,0,.01-.01.01-.02.03-.03.04,0,0,0,0,0,0,0,.01-.02.03-.03.04,0,0,0,0,0,.01-.01.01-.02.03-.04.04,0,0,0,0,0,.01-.01.01-.02.03-.03.04,0,0,0,0-.01.01-.01.01-.02.03-.03.04,0,0,0,0-.01.01-.01.01-.02.03-.04.04,0,0,0,0,0,.01-.01.01-.02.03-.03.04,0,0,0,0,0,.01-.01.01-.02.03-.03.04,0,0,0,0,0,.01-.01.01-.02.03-.04.04,0,0,0,0,0,.01-.01.01-.02.03-.04.04,0,0,0,0,0,.01-.01.01-.02.03-.04.04,0,0,0,0,0,.01-.01.01-.02.03-.04.04,0,0,0,0,0,0-.01.01-.02.03-.04.04,0,0,0,0,0,0-.01.01-.02.03-.04.04,0,0,0,0,0,0-.01.01-.03.03-.04.05,0,0,0,0,0,0-.01.01-.02.03-.04.04,0,0,0,0,0,0l6.15,5.13c1.02-1.22,2.03-2.48,3-3.75l-6.37-4.86h0Zm4.12-5.81s-.06.09-.09.13c0,0,0,.01,0,.01l-.03.05s0,.01-.01.02c0,.01-.02.03-.03.04l-.02.02s-.01.02-.02.03c0,.01-.01.02-.02.04,0,0,0,.01-.01.02,0,.01-.02.03-.03.04,0,0,0,.01-.01.02,0,.01-.02.03-.03.04v.02s-.03.03-.04.05c0,0,0,0,0,0-.01.02-.02.03-.03.05,0,0,0,0,0,0-.01.02-.02.04-.03.05,0,0,0,0,0,0-.01.02-.02.03-.03.05,0,0,0,0,0,0-.01.02-.02.04-.03.05,0,0,0,0,0,0-.01.02-.02.04-.04.05,0,0,0,0,0,0-.65.96-1.31,1.91-1.99,2.85l6.49,4.69c.93-1.29,1.85-2.62,2.73-3.95l-6.69-4.4h0Zm3.7-6.08c-.12.22-.25.44-.38.66,0,0,0,0,0,0-.01.02-.02.03-.03.05,0,0,0,0,0,.01,0,.02-.02.03-.03.05,0,0,0,0,0,.01,0,.02-.02.03-.03.05h0s-.02.04-.02.06c0,0,0,.01-.01.02,0,.01-.01.02-.02.04,0,0,0,.02-.01.02,0,.01-.01.02-.02.03,0,0,0,.02-.01.02,0,.01-.01.02-.02.04,0,0-.01.02-.02.03,0,0-.01.02-.02.03,0,.01-.01.02-.02.04,0,0,0,.01,0,.01-.01.02-.02.03-.03.05,0,0,0,0,0,0-.01.02-.02.04-.04.06h0c-.49.85-1,1.7-1.52,2.53l6.81,4.22c.84-1.35,1.66-2.75,2.44-4.14l-6.99-3.92h0Zm3.26-6.33c-.63,1.34-1.3,2.67-1.99,3.98l7.09,3.73c.74-1.41,1.46-2.86,2.14-4.3l-7.24-3.41h0Zm2.8-6.54c-.54,1.38-1.1,2.76-1.7,4.11l7.33,3.22c.64-1.46,1.26-2.95,1.83-4.44l-7.47-2.89h0Zm2.33-6.72c-.2.65-.41,1.31-.62,1.95h0s-.02.05-.02.07h0s-.02.05-.02.08h0s-.02.07-.03.11c0,0,0,.01,0,.02,0,.02-.01.03-.02.05,0,0,0,.02,0,.02v.04s-.02.02-.02.03c0,0,0,.02,0,.03,0,.02,0,.03-.01.04,0,0,0,.02,0,.02,0,.02-.01.03-.02.05,0,0,0,.01,0,.02,0,.02-.01.03-.02.05,0,0,0,.01,0,.02,0,.02-.01.03-.02.05h0s-.01.05-.02.07c0,0,0,0,0,.01,0,.02-.01.04-.02.05,0,0,0,0,0,.01,0,.02-.01.04-.02.05,0,0,0,0,0,.01,0,.02-.01.04-.02.06,0,0,0,0,0,0,0,.02-.01.04-.02.06,0,0,0,0,0,0,0,.02-.01.04-.02.06,0,0,0,0,0,.01,0,.02-.01.04-.02.06,0,0,0,0,0,0,0,.02-.01.04-.02.06,0,0,0,0,0,0-.01.04-.03.08-.04.12,0,0,0,0,0,0,0,.02-.01.04-.02.06,0,0,0,0,0,0,0,.02-.01.04-.02.06,0,0,0,0,0,0,0,.02-.01.04-.02.06,0,0,0,0,0,0,0,.02-.01.04-.02.06,0,0,0,0,0,0,0,.02-.01.04-.02.06,0,0,0,0,0,0,0,.02-.01.04-.02.06h0s-.01.05-.02.07c0,0,0,0,0,.01,0,.02-.01.04-.02.05,0,0,0,0,0,.01,0,.02-.01.03-.02.05,0,0,0,.01,0,.02,0,.02,0,.03-.02.04,0,0,0,.01,0,.02,0,.02-.01.03-.02.05,0,0,0,.02,0,.02,0,.01-.01.03-.02.04,0,0,0,.02,0,.03,0,0,0,.02-.01.03,0,.01,0,.03-.01.04,0,0,0,.01,0,.02v.02s7.53,2.69,7.53,2.69c.54-1.5,1.05-3.04,1.51-4.56l-7.65-2.36h0Zm1.85-6.87c-.05.2-.09.39-.14.59h0s0,.02,0,.04h0s0,.03,0,.04c0,0,0,0,0,0,0,0,0,.02,0,.03,0,0,0,.01,0,.01,0,0,0,.01,0,.02,0,0,0,.01,0,.01,0,0,0,.01,0,.02,0,.02,0,.03-.01.05,0,0,0,0,0,0,0,.02-.01.05-.02.07,0,0,0,0,0,0,0,0,0,.02,0,.03,0,0,0,0,0,0,0,.01,0,.02,0,.03,0,0,0,0,0,0-.09.38-.19.76-.28,1.15,0,0,0,0,0,0,0,0,0,.02,0,.03,0,0,0,0,0,0,0,0,0,.02,0,.03,0,0,0,0,0,.01,0,0,0,.02,0,.02,0,0,0,0,0,0,0,0,0,.02,0,.03,0,0,0,0,0,0,0,0,0,.02,0,.03,0,0,0,0,0,.01,0,.02,0,.03-.01.05,0,0,0,0,0,0,0,0,0,.01,0,.02,0,0,0,.01,0,.02,0,0,0,.01,0,.02,0,0,0,.01,0,.02,0,0,0,0,0,.01,0,0,0,.02,0,.03,0,0,0,0,0,0,0,0,0,.02,0,.03h0s0,.03,0,.04h0c-.15.6-.31,1.2-.48,1.79l7.71,2.15c.43-1.54.83-3.1,1.19-4.66l-7.8-1.81h0Zm1.36-6.99c-.09.57-.19,1.15-.29,1.72h0s0,.02,0,.03c0,0,0,0,0,.01,0,0,0,.01,0,.02,0,0,0,.01,0,.02,0,0,0,.01,0,.02,0,0,0,.01,0,.02,0,0,0,.01,0,.02,0,0,0,.02,0,.02,0,0,0,0,0,.01,0,.01,0,.02,0,.03h0s-.01.08-.02.12h0c-.13.71-.26,1.42-.4,2.13h0s-.02.08-.02.11c0,0,0,.01,0,.02,0,0,0,.01,0,.02,0,0,0,.02,0,.03h0s0,.03,0,.04c0,0,0,0,0,0l7.85,1.6c.32-1.56.61-3.15.85-4.73l-7.91-1.25h0Zm.86-7.06c-.03.4-.07.81-.11,1.21,0,0,0,0,0,0,0,0,0,.02,0,.03h0s0,.03,0,.04c0,0,0,0,0,.01,0,.01,0,.01,0,.02,0,0,0,.01,0,.02,0,0,0,.02,0,.02,0,.01,0,.02,0,.04,0,0,0,0,0,.01v.03s0,.01,0,.02c0,0,0,.02,0,.02,0,0,0,0,0,.01,0,0,0,.02,0,.02,0,0,0,0,0,.01,0,0,0,.02,0,.02,0,0,0,0,0,.01,0,.01,0,.02,0,.03h0c-.1.95-.21,1.9-.33,2.84l7.94,1.04c.21-1.58.38-3.18.52-4.77l-7.98-.69h0Zm.37-7.11c0,.35-.01.7-.02,1.04,0,0,0,0,0,0,0,.01,0,.02,0,.03,0,0,0,0,0,.01,0,0,0,.01,0,.02,0,0,0,.01,0,.02,0,0,0,.01,0,.02,0,0,0,.01,0,.02,0,0,0,.01,0,.02,0,.01,0,.02,0,.04,0,0,0,0,0,0,0,.01,0,.02,0,.03,0,0,0,0,0,0,0,.01,0,.02,0,.03,0,0,0,0,0,0,0,.01,0,.02,0,.03h0c-.01.51-.03,1-.06,1.5h0s0,.08,0,.12h0s0,.03,0,.04c0,0,0,0,0,0,0,.01,0,.02,0,.03h0s0,.03,0,.04c0,0,0,0,0,0,0,0,0,.02,0,.03,0,0,0,0,0,.01,0,0,0,.02,0,.03,0,.01,0,.02,0,.03,0,0,0,.01,0,.02,0,0,0,.01,0,.02,0,0,0,.01,0,.02,0,0,0,.02,0,.02,0,0,0,.01,0,.02,0,0,0,.02,0,.02h0s0,.03,0,.04c0,0,0,0,0,.01-.02.37-.04.73-.06,1.1l7.99.48c.1-1.59.16-3.2.18-4.79l-8.01-.13h0Zm7.87-7.54l-8,.42c.02.42.04.84.06,1.26h0s0,.03,0,.04h0s0,.03,0,.04c0,0,0,0,0,0,0,.02,0,.05,0,.07,0,0,0,.02,0,.02,0,0,0,0,0,.01,0,.01,0,.01,0,.02,0,0,0,0,0,.01,0,0,0,.02,0,.03,0,0,0,0,0,0,0,.01,0,.02,0,.03h0c.03.77.05,1.54.06,2.32,0,0,0,0,0,.01,0,0,0,.01,0,.02,0,0,0,.01,0,.02,0,0,0,.01,0,.02,0,0,0,.01,0,.02,0,0,0,.01,0,.02,0,.01,0,.02,0,.03,0,0,0,0,0,0,0,.03,0,.05,0,.08h0c0,.12,0,.23,0,.34l8.01-.07c-.01-1.59-.06-3.21-.15-4.79h0Zm-.67-7.65l-7.95.98c.18,1.47.33,2.94.45,4.43l7.98-.63c-.13-1.59-.29-3.2-.48-4.78h0Zm-1.21-7.59l-7.86,1.54c.11.55.21,1.1.31,1.65h0s0,.02,0,.04h0s0,.03,0,.04h0s.01.08.02.12h0s0,.03,0,.04c0,0,0,0,0,0,0,0,0,.02,0,.03,0,0,0,0,0,.01,0,0,0,.02,0,.02,0,0,0,.01,0,.02,0,0,0,.01,0,.02s0,.01,0,.02c0,0,0,.01,0,.02,0,0,0,.02,0,.02,0,0,0,.01,0,.02,0,0,0,.01,0,.02h0s0,.05,0,.06c0,0,0,0,0,0,0,0,0,.01,0,.02,0,0,0,0,0,.01,0,0,0,.01,0,.02,0,0,0,0,0,.01,0,0,0,.02,0,.03,0,0,0,0,0,0,0,0,0,.02,0,.03,0,0,0,0,0,0,0,0,0,.02,0,.03,0,0,0,0,0,0,0,.05.02.09.02.13,0,0,0,0,0,0,0,0,0,.02,0,.03,0,0,0,0,0,0,0,0,0,.02,0,.03,0,0,0,0,0,0,0,.01,0,.02,0,.03,0,0,0,0,0,0,.01.08.03.16.04.24,0,0,0,0,0,0,0,.01,0,.02,0,.03,0,0,0,0,0,0,.01.07.02.14.03.2,0,0,0,0,0,0,0,0,0,.02,0,.03,0,0,0,0,0,0,0,0,0,.02,0,.03,0,0,0,0,0,0,0,0,0,.02,0,.03,0,0,0,0,0,.01,0,0,0,.02,0,.02,0,0,0,0,0,.01,0,0,0,.02,0,.03,0,0,0,0,0,0,0,.01,0,.02,0,.04,0,0,0,.02,0,.03,0,0,0,0,0,.01,0,0,0,.02,0,.02,0,0,0,.01,0,.02,0,0,0,.01,0,.02,0,0,0,0,0,.02,0,0,0,.02,0,.02,0,0,0,0,0,.01,0,0,0,.02,0,.03,0,0,0,0,0,0,0,.01,0,.02,0,.03h0c.05.3.09.6.14.9l7.92-1.19c-.24-1.58-.51-3.17-.82-4.73h0Zm-1.74-7.49l-7.73,2.09c.16.59.32,1.19.47,1.79,0,0,0,0,0,0,0,0,0,.02,0,.03,0,0,0,.01,0,.01,0,0,0,.02,0,.02h0s0,.03,0,.04t0,.01s0,.01,0,.02v.02s0,.01,0,.02c0,0,0,.01,0,.02v.02s.02.05.02.08c0,0,0,0,0,0,0,0,0,.02,0,.03h0s0,.03,0,.03c0,0,0,0,0,0,0,0,0,.02,0,.03,0,0,0,0,0,0,0,0,0,.02,0,.03,0,0,0,0,0,0,.17.7.34,1.4.49,2.1l7.82-1.75c-.35-1.56-.74-3.13-1.15-4.66h0Zm-2.27-7.34l-7.56,2.64c.49,1.4.94,2.81,1.37,4.23l7.67-2.3c-.46-1.53-.96-3.07-1.48-4.57h0Zm-2.79-7.16l-7.36,3.17c.18.42.36.85.54,1.28,0,0,0,0,0,0,0,.02.02.04.02.06,0,0,0,0,0,0,0,.02.02.04.02.06,0,0,0,0,0,.01,0,.02.01.04.02.05,0,0,0,0,0,.01,0,.01.01.03.02.04,0,0,0,.02.01.03,0,.01.01.03.02.04,0,0,0,.01,0,.02,0,.01.01.03.02.04,0,0,0,.02.01.03,0,.01.01.03.02.04v.03s.02.01.02.02c0,.02.01.04.02.05,0,0,0,0,0,.01,0,.02.02.04.03.06h0c.3.74.59,1.48.87,2.23l7.49-2.84c-.56-1.49-1.17-2.99-1.8-4.45h0Zm-3.29-6.95l-7.11,3.68s0,0,0,0c0,.01.02.03.02.04,0,0,0,.01.01.02,0,.01.01.03.02.04,0,0,0,.02.01.02,0,.01.01.02.02.04,0,0,.01.02.02.03,0,0,0,.02.01.03,0,.01.01.03.02.04,0,0,0,.01.01.02,0,.01.01.03.02.04,0,0,0,.02.01.02,0,.02.02.04.03.05,0,0,0,0,0,0,0,.01.01.02.02.03h0s.02.05.03.07h0s.02.05.03.07h0c.44.87.87,1.73,1.28,2.61,0,0,0,.01,0,.01,0,.02.02.03.02.05,0,0,0,.01.01.02,0,.01.01.03.02.04,0,.01,0,.02.01.03v.03s.03.03.03.04v.02s.02.03.03.05c0,0,0,.01,0,.02,0,.02.02.03.02.05,0,0,0,0,0,0,.07.14.14.29.2.44l7.27-3.36c-.67-1.45-1.38-2.9-2.11-4.31h0Zm-3.77-6.7l-6.84,4.17c.23.38.45.75.68,1.13,0,0,0,0,0,0,.01.02.02.03.03.05h0s.02.04.03.06c0,0,0,0,0,.01l.03.05s0,0,0,.01c0,.01.02.03.02.04,0,0,0,.01.01.02,0,.01.01.02.02.03,0,0,.01.02.02.03,0,.01.01.02.02.03v.02s.03.02.04.04c0,0,.01.02.01.03,0,.01.01.03.02.04,0,0,.01.02.02.03,0,0,0,.01.01.02,0,.01.02.03.03.04,0,0,0,.01,0,.02,0,.02.02.03.03.05,0,0,0,0,0,.01.01.02.02.04.03.06,0,0,0,0,0,0,.03.05.06.11.09.16h0c.36.62.7,1.23,1.05,1.86l7.01-3.87c-.77-1.4-1.58-2.79-2.41-4.15h0Zm-4.23-6.41l-6.53,4.64c.86,1.21,1.69,2.44,2.5,3.68l6.72-4.35c-.87-1.34-1.77-2.67-2.7-3.97h0Zm-4.67-6.1l-6.18,5.09c.43.52.86,1.05,1.28,1.59,0,0,0,0,0,0,.01.02.03.03.04.05,0,0,0,0,0,0,.01.02.03.03.04.05,0,0,0,0,0,.01.01.01.02.03.03.04,0,0,0,0,.01.02.01.01.02.03.03.04,0,0,0,0,.01.01,0,0,.01.02.02.03,0,0,.01.01.01.02.01.01.02.03.03.04,0,0,0,0,.01.02.01.01.02.03.03.04,0,0,0,.01.01.02,0,.01.02.02.03.04,0,0,0,.01.01.02l.03.04s0,.01.01.02c0,0,.01.02.02.03,0,.01.02.02.02.03,0,0,.01.02.02.03,0,0,.01.02.02.02,0,.01.02.02.03.03,0,0,.01.01.02.02,0,.01.02.02.03.04,0,0,0,.01.01.02.01.01.02.03.03.04,0,0,0,0,.01.01.01.02.02.03.03.05,0,0,0,0,0,.01.01.02.03.04.04.05,0,0,0,0,0,0,.02.03.05.06.07.09h0s.03.04.04.06h0s.03.04.04.06h0c.2.27.41.53.61.8l6.4-4.81c-.96-1.27-1.96-2.54-2.97-3.77h0Zm-5.08-5.76l-5.81,5.51c.08.08.16.17.24.25,0,0,0,0,0,0,.02.02.03.03.04.05,0,0,0,0,0,0,.02.02.03.03.04.04,0,0,0,0,0,0,.01.01.02.02.03.04,0,0,.01.01.02.02,0,0,.02.02.03.03,0,0,.01.01.02.02,0,0,.02.02.03.03,0,0,.01.02.02.02,0,0,.01.01.02.02.01.01.02.03.04.04h0s.03.04.05.06h0c.81.87,1.61,1.76,2.4,2.67l6.05-5.25c-1.04-1.2-2.13-2.4-3.22-3.56h0Zm-5.47-5.39l-5.41,5.9c1.09,1,2.16,2.03,3.21,3.08l5.67-5.66c-1.13-1.13-2.29-2.24-3.47-3.32h0Zm-5.84-4.99l-4.99,6.27c.82.65,1.62,1.31,2.42,1.98,0,0,0,0,0,0,.02.01.03.03.05.04,0,0,0,0,0,0,.01.01.03.03.04.04,0,0,0,0,.01,0,.01.01.03.02.04.04,0,0,0,0,.01.01.01.01.03.02.04.03,0,0,0,0,.01.01.01.01.02.02.03.03,0,0,.01.01.02.02.01.01.02.02.03.03,0,0,.01,0,.02.01.01.01.02.02.04.03,0,0,.01.01.02.02.01.01.02.02.04.03,0,0,.01.01.02.02.01.01.02.02.03.03,0,0,.01.01.02.02,0,0,.02.01.03.02,0,0,.02.02.03.03,0,0,.01.01.02.02.01,0,.02.02.03.03,0,0,.01.01.02.02.01,0,.02.02.03.03,0,0,.02.01.02.02,0,0,.02.01.02.02.01.01.02.02.03.03,0,0,.01.01.02.02,0,0,.02.02.03.03,0,0,.01.01.02.02.01.01.02.02.03.03l.02.02s.02.02.03.03c0,0,.02.01.02.02,0,0,.02.02.03.02,0,0,.01.01.02.02.01.01.02.02.04.03,0,0,0,0,0,0l5.26-6.04c-1.2-1.05-2.44-2.08-3.69-3.07h0Zm-6.17-4.57l-4.53,6.6c.59.41,1.18.82,1.76,1.24,0,0,0,0,0,0,.02.01.04.03.06.04,0,0,0,0,0,0,.04.03.07.05.11.08,0,0,0,0,0,0,.02.01.04.03.05.04,0,0,0,0,0,0,.02.01.03.02.05.03,0,0,0,0,.01,0,.02.01.03.02.04.03,0,0,0,0,.01,0,.01,0,.03.02.04.03,0,0,0,0,.01.01.01,0,.03.02.04.03,0,0,.01,0,.02.01.01,0,.02.02.03.02,0,0,.02.01.03.02.01,0,.02.01.03.02h.02s.02.03.04.04c0,0,.02.01.02.02.01,0,.02.02.03.02,0,0,.02.01.03.02,0,0,.01,0,.02.01.01.01.03.02.04.03,0,0,0,0,.01,0,.02.01.03.02.05.04,0,0,0,0,0,0,.34.25.69.51,1.03.76l4.82-6.4c-1.27-.96-2.58-1.9-3.9-2.8h0Zm-6.48-4.12l-4.06,6.9h0s.03.02.05.03c0,0,0,0,.01,0,.02,0,.04.02.05.03,0,0,0,0,0,0,.76.45,1.51.9,2.25,1.37,0,0,0,0,0,0,.02.01.04.02.06.03,0,0,0,0,0,0,.02.01.04.02.06.04,0,0,0,0,0,0,.04.02.08.05.11.07,0,0,0,0,0,0,.02.01.04.02.05.03,0,0,0,0,0,0,.02.01.03.02.05.03h0s.04.03.05.04c0,0,0,0,0,0,.02.01.04.02.05.03,0,0,0,0,0,0,.04.02.07.05.11.07,0,0,0,0,0,0,.02.01.04.02.05.03,0,0,0,0,0,0,.02.01.03.02.05.03,0,0,0,0,0,0,.02.01.04.02.05.03,0,0,0,0,0,0,.21.14.43.27.64.41l4.36-6.72c-1.34-.87-2.71-1.72-4.08-2.52h0Zm-6.76-3.66l-3.56,7.17s0,0,.01,0c.01,0,.03.01.04.02,0,0,.01,0,.02.01.01,0,.03.01.04.02h.02s.03.03.04.03c0,0,.02,0,.03.01h.02s.03.03.05.03c0,0,0,0,.01,0,.02,0,.04.02.06.03h0s.04.03.06.04h0c1.19.6,2.37,1.22,3.53,1.86l3.87-7.01c-1.4-.77-2.83-1.52-4.25-2.23h0Zm-7-3.17l-3.04,7.41c.55.23,1.1.46,1.65.69h0s.02.01.03.02h0s.04.02.06.03c0,0,.01,0,.02,0,.01,0,.03.01.04.02,0,0,.02,0,.03.01.01,0,.02,0,.03.01.01,0,.02.01.04.02,0,0,.01,0,.02,0,.01,0,.03.01.05.02h.02s.03.02.05.03c0,0,0,0,.01,0,.02,0,.03.02.05.02h0c.66.29,1.31.58,1.96.89l3.37-7.27c-1.45-.67-2.93-1.32-4.4-1.92h0Zm-7.21-2.67l-2.51,7.6c.54.18,1.07.36,1.61.55h0s.04.02.06.02c0,0,0,0,.02,0,.02,0,.03.01.05.02,0,0,.02,0,.02,0,0,0,.02,0,.03.01.01,0,.03.01.04.01,0,0,.02,0,.02,0,.02,0,.03.01.04.02,0,0,.01,0,.02,0,.02,0,.03,0,.04.01,0,0,.01,0,.02,0,.02,0,.03.01.05.02,0,0,0,0,.01,0,.02,0,.04.01.05.02h.01s.04.02.06.02c0,0,0,0,0,0,.67.24,1.35.49,2.02.74l2.85-7.49c-1.49-.57-3.01-1.11-4.53-1.61h0Zm-7.38-2.15l-1.97,7.76s.02,0,.03,0h0s.04.01.06.02c0,0,0,0,.01,0,.01,0,.02,0,.03,0,.01,0,.03,0,.04.01,0,0,.02,0,.03,0,.01,0,.02,0,.03,0,.01,0,.02,0,.04,0,.01,0,.02,0,.03,0,0,0,.02,0,.03,0,.02,0,.03,0,.05.01,0,0,.01,0,.02,0,.02,0,.04,0,.05.01,0,0,.01,0,.02,0,.02,0,.04,0,.05.01,0,0,0,0,.01,0,.02,0,.04.01.06.02,0,0,0,0,0,0,.02,0,.04.01.06.02,0,0,0,0,0,0,.02,0,.04.01.06.02,0,0,0,0,0,0,.02,0,.05.01.06.02,0,0,0,0,0,0,.78.21,1.57.42,2.34.64,0,0,0,0,0,0,.02,0,.04.01.06.02,0,0,0,0,0,0,.02,0,.04.01.06.02,0,0,0,0,.01,0,.02,0,.04.01.06.02,0,0,0,0,.01,0,.02,0,.03,0,.05.01h.02s.03.01.04.02c0,0,.01,0,.02,0,.02,0,.03,0,.04.01,0,0,.02,0,.03,0,.01,0,.03,0,.04.01.01,0,.02,0,.03,0,0,0,.01,0,.02,0,.02,0,.04.01.06.02h0c.19.06.37.11.56.17l2.31-7.67c-1.53-.46-3.08-.89-4.63-1.28h0Zm-7.51-1.62l-1.41,7.88s0,0,0,0c0,0,0,0,.01,0,0,0,.02,0,.02,0,0,0,0,0,.01,0,0,0,.02,0,.02,0,0,0,0,0,.02,0,0,0,.01,0,.02,0,0,0,.01,0,.02,0,0,0,.01,0,.02,0,0,0,.01,0,.02,0,0,0,0,0,0,0,.02,0,.04,0,.06.01,0,0,0,0,0,0,0,0,.02,0,.03,0,0,0,0,0,0,0,0,0,.02,0,.03,0,0,0,0,0,0,0,0,0,.02,0,.03,0,0,0,0,0,0,0,0,0,.02,0,.03,0,0,0,0,0,0,0,0,0,.02,0,.03,0,0,0,0,0,0,0,.08.01.16.03.24.04h0s.02,0,.03,0c0,0,0,0,0,0,.08.02.16.03.24.04,0,0,0,0,0,0,.01,0,.02,0,.03,0,0,0,0,0,0,0,0,0,.02,0,.03,0,0,0,0,0,0,0,.05.01.11.02.17.03,0,0,0,0,0,0,0,0,.02,0,.03,0,0,0,0,0,0,0,0,0,.02,0,.03,0,0,0,0,0,.01,0,0,0,.02,0,.02,0,0,0,0,0,.01,0,0,0,.01,0,.02,0,0,0,0,0,.01,0,0,0,.02,0,.02,0,0,0,.01,0,.02,0,0,0,.02,0,.03,0,0,0,.02,0,.03,0,0,0,0,0,.01,0,0,0,.02,0,.03,0,0,0,0,0,.01,0,0,0,.02,0,.03,0,0,0,0,0,.01,0,0,0,.02,0,.03,0,0,0,0,0,.01,0,0,0,.02,0,.03,0h0c.94.18,1.87.38,2.8.59l1.76-7.81c-1.55-.35-3.14-.67-4.71-.95h0Zm-7.6-1.09l-.85,7.96c.36.04.71.08,1.07.12,0,0,0,0,0,0,.01,0,.02,0,.03,0,0,0,.01,0,.02,0,0,0,.01,0,.02,0,0,0,.01,0,.02,0,0,0,0,0,.01,0,.01,0,.03,0,.04,0h0s.02,0,.04,0h0s.02,0,.03,0h0s.02,0,.03,0h0s.03,0,.04,0h0c.79.1,1.58.2,2.36.31,0,0,0,0,.01,0,0,0,.02,0,.02,0,0,0,0,0,.02,0,0,0,.01,0,.02,0,0,0,.01,0,.02,0,0,0,0,0,.01,0,0,0,.02,0,.02,0,0,0,0,0,0,0,.18.03.36.05.55.08l1.2-7.92c-1.57-.24-3.18-.45-4.76-.62h0Zm-7.66-.55l-.29,8c.39.01.79.03,1.18.05,0,0,0,0,.01,0,0,0,.01,0,.02,0,0,0,.01,0,.02,0,0,0,.01,0,.02,0h.02s0,0,.02,0c0,0,.02,0,.03,0,0,0,0,0,.01,0,.04,0,.08,0,.12,0h0s.03,0,.04,0h0c.66.03,1.31.07,1.97.12h0s.02,0,.03,0c0,0,0,0,0,0,0,0,.02,0,.03,0,0,0,0,0,.01,0,0,0,.02,0,.02,0,0,0,.01,0,.01,0,0,0,.02,0,.03,0,0,0,0,0,0,0h.04s.02,0,.02,0c0,0,0,0,.01,0,.01,0,.02,0,.03,0,0,0,0,0,.01,0,0,0,.02,0,.03,0,0,0,0,0,.01,0,0,0,.02,0,.03,0,0,0,0,0,0,0,.22.02.44.03.65.05l.64-7.98c-1.59-.13-3.2-.22-4.79-.28h0Zm-4.05-.07v8.01h.09s.02,0,.03,0h0c.32,0,.64,0,.97,0L110.19,0c-.39,0-.78,0-1.18,0h0Z" style="fill: #4bd996; stroke-width: 0px;"/>
            <circle cx="109.01" cy="109.01" r="101" style="fill: none; stroke: #fff; stroke-miterlimit: 10; stroke-width: 12.46px;"/>
            <circle cx="109.01" cy="109.01" r="101" style="fill: #41d992; opacity: .39; stroke-width: 0px;"/>
          </g>
          <g>
            <g>
              <polygon points="67.24 162.08 72.55 162.08 74.98 149.19 66.87 149.19 67.24 162.08" style="fill: #faead7; stroke-width: 0px;"/>
              <path d="m72.43,163.78h-5.46v-6.66s2.67.62,6.66,0c0,1.24-1.2,6.66-1.2,6.66Z" style="fill: #e2e2e4; stroke-width: 0px;"/>
              <path d="m75.6,166.28h-8.78c-.27,0-.5-.22-.5-.5v-.24c0-3.08,2.52-5.6,5.6-5.6h0c2.6,0,4.7,2.1,4.7,4.7v.61c0,.57-.46,1.03-1.03,1.03Z" style="fill: #594a42; stroke-width: 0px;"/>
              <g>
                <path d="m72.69,159.09s.06-.02.07-.06l.25-1.51s-.02-.07-.06-.08c-.04,0-.07.02-.08.06l-.25,1.51s.02.07.06.08c0,0,0,0,.01,0Z" style="fill: #fbfbf5; stroke-width: 0px;"/>
                <path d="m72.11,159.24s.06-.02.07-.06l.22-1.52s-.02-.07-.06-.08c-.04,0-.07.02-.08.06l-.22,1.52s.02.07.06.08c0,0,0,0,0,0Z" style="fill: #fbfbf5; stroke-width: 0px;"/>
                <path d="m71.54,159.26s.06-.02.07-.06l.19-1.54s-.02-.07-.06-.07c-.04,0-.07.02-.07.06l-.19,1.54s.02.07.06.07c0,0,0,0,0,0Z" style="fill: #fbfbf5; stroke-width: 0px;"/>
                <path d="m70.97,159.28s.06-.03.07-.06l.16-1.56s-.02-.07-.06-.07c-.04,0-.07.02-.07.06l-.16,1.56s.02.07.06.07c0,0,0,0,0,0Z" style="fill: #fbfbf5; stroke-width: 0px;"/>
                <path d="m70.4,159.29s.06-.03.07-.06l.14-1.57s-.02-.07-.06-.07c-.04,0-.07.02-.07.06l-.14,1.57s.02.07.06.07c0,0,0,0,0,0Z" style="fill: #fbfbf5; stroke-width: 0px;"/>
                <path d="m69.83,159.31s.06-.03.07-.06l.11-1.59s-.03-.07-.06-.07c-.04,0-.07.03-.07.06l-.11,1.59s.03.07.06.07c0,0,0,0,0,0Z" style="fill: #fbfbf5; stroke-width: 0px;"/>
                <path d="m69.25,159.33s.07-.03.07-.06l.08-1.61s-.03-.07-.06-.07c-.04,0-.07.03-.07.06l-.08,1.61s.03.07.06.07c0,0,0,0,0,0Z" style="fill: #fbfbf5; stroke-width: 0px;"/>
                <path d="m68.68,159.35s.07-.03.07-.06l.05-1.63s-.03-.07-.06-.07c-.04,0-.07.03-.07.06l-.05,1.63s.03.07.06.07c0,0,0,0,0,0Z" style="fill: #fbfbf5; stroke-width: 0px;"/>
                <path d="m68.11,159.36s.07-.03.07-.07l.03-1.64s-.03-.07-.07-.07c-.04,0-.07.03-.07.07l-.03,1.64s.03.07.07.07h0Z" style="fill: #fbfbf5; stroke-width: 0px;"/>
                <path d="m67.4,159.25s.07-.03.07-.07v-1.66s-.03-.07-.07-.07-.07.03-.07.07v1.66s.03.07.07.07Z" style="fill: #fbfbf5; stroke-width: 0px;"/>
              </g>
              <polygon points="63.54 162.08 58.23 162.08 55.8 149.19 63.9 149.19 63.54 162.08" style="fill: #faead7; stroke-width: 0px;"/>
              <path d="m58.35,163.78h5.46v-6.66s-2.67.62-6.66,0c0,1.24,1.2,6.66,1.2,6.66Z" style="fill: #e2e2e4; stroke-width: 0px;"/>
              <path d="m65.14,141.28h-14.09s-1.18,9.54-1.17,9.59c.14.67,3.55,1.2,7.63,1.2s7.49-.53,7.63-1.2c0-.04,0-9.59,0-9.59Z" style="fill: #3fafdd; stroke-width: 0px;"/>
              <path d="m65.74,141.28h14.09s1.18,9.54,1.17,9.59c-.14.67-3.55,1.2-7.63,1.2s-7.49-.53-7.63-1.2c0-.04,0-9.59,0-9.59Z" style="fill: #3fafdd; stroke-width: 0px;"/>
              <path d="m55.18,166.28h8.78c.27,0,.5-.22.5-.5v-.24c0-3.08-2.52-5.6-5.6-5.6h0c-2.6,0-4.7,2.1-4.7,4.7v.61c0,.57.46,1.03,1.03,1.03Z" style="fill: #594a42; stroke-width: 0px;"/>
              <g>
                <path d="m58.09,159.09s-.06-.02-.07-.06l-.25-1.51s.02-.07.06-.08c.04,0,.07.02.08.06l.25,1.51s-.02.07-.06.08c0,0,0,0-.01,0Z" style="fill: #fbfbf5; stroke-width: 0px;"/>
                <path d="m58.66,159.24s-.06-.02-.07-.06l-.22-1.52s.02-.07.06-.08c.04,0,.07.02.08.06l.22,1.52s-.02.07-.06.08c0,0,0,0,0,0Z" style="fill: #fbfbf5; stroke-width: 0px;"/>
                <path d="m59.24,159.26s-.06-.02-.07-.06l-.19-1.54s.02-.07.06-.07c.04,0,.07.02.07.06l.19,1.54s-.02.07-.06.07c0,0,0,0,0,0Z" style="fill: #fbfbf5; stroke-width: 0px;"/>
                <path d="m59.81,159.28s-.06-.03-.07-.06l-.16-1.56s.02-.07.06-.07c.04,0,.07.02.07.06l.16,1.56s-.02.07-.06.07c0,0,0,0,0,0Z" style="fill: #fbfbf5; stroke-width: 0px;"/>
                <path d="m60.38,159.29s-.06-.03-.07-.06l-.14-1.57s.02-.07.06-.07c.04,0,.07.02.07.06l.14,1.57s-.02.07-.06.07c0,0,0,0,0,0Z" style="fill: #fbfbf5; stroke-width: 0px;"/>
                <path d="m60.95,159.31s-.06-.03-.07-.06l-.11-1.59s.03-.07.06-.07c.04,0,.07.03.07.06l.11,1.59s-.03.07-.06.07c0,0,0,0,0,0Z" style="fill: #fbfbf5; stroke-width: 0px;"/>
                <path d="m61.52,159.33s-.07-.03-.07-.06l-.08-1.61s.03-.07.06-.07c.04,0,.07.03.07.06l.08,1.61s-.03.07-.06.07c0,0,0,0,0,0Z" style="fill: #fbfbf5; stroke-width: 0px;"/>
                <path d="m62.1,159.35s-.07-.03-.07-.06l-.05-1.63s.03-.07.06-.07c.04,0,.07.03.07.06l.05,1.63s-.03.07-.06.07c0,0,0,0,0,0Z" style="fill: #fbfbf5; stroke-width: 0px;"/>
                <path d="m62.67,159.36s-.07-.03-.07-.07l-.03-1.64s.03-.07.07-.07c.04,0,.07.03.07.07l.03,1.64s-.03.07-.07.07h0Z" style="fill: #fbfbf5; stroke-width: 0px;"/>
                <path d="m63.38,159.25s-.07-.03-.07-.07v-1.66s.03-.07.07-.07.07.03.07.07v1.66s-.03.07-.07.07Z" style="fill: #fbfbf5; stroke-width: 0px;"/>
              </g>
            </g>
            <path d="m80.62,143.85c-.27,1.64-7.06,2.92-15.17,2.92s-14.9-1.28-15.17-2.92c-.02-.11,2.33-23.32,2.33-23.32h25.69s2.35,23.21,2.33,23.32Z" style="fill: #79d0ea; stroke-width: 0px;"/>
            <path d="m77.47,130.5c0-1.39-.7-2.51-1.57-2.51-.53,0-1,.42-1.28,1.06-.28-.64-.75-1.06-1.28-1.06s-1,.42-1.28,1.06c-.28-.64-.75-1.06-1.28-1.06-.87,0-1.57,1.12-1.57,2.51,0,.06,0,.13,0,.19,0,.03,0,.06,0,.09,0,2.29,1.85,4.14,4.14,4.14s4.14-1.85,4.14-4.14c0-.03,0-.06,0-.09,0-.06,0-.13,0-.19Z" style="fill: #f38eba; stroke-width: 0px;"/>
            <path d="m93.15,116.01c.21.75,1.07,2.48,1.77,3.61.71,1.14,1.87,2.68,2.48,3.19-5.21,3.18-10.82,5.31-16.83,6.38-2.22.33-5.05-.88-5.12-3.46h0c-.08-2.15,1.68-4.15,3.81-4.45,4.97-.9,9.57-2.64,13.89-5.26Z" style="fill: #79d0ea; stroke-width: 0px;"/>
            <g>
              <path d="m40.84,145.73c-.38-3.53,1.1-7.36,6.43-5.36,2.27.86,3.34,1.56,3.61,3.64.53,3.94-2.09,4.32-2.52,3.62-.56.93-1.16,1.68-2.23.94-1.3.79-1.71-.27-2.11-.7-1.52.8-2.03-.79-2.03-.79,0,0-1.01.07-1.16-1.36Z" style="fill: #faead7; stroke-width: 0px;"/>
              <path d="m48.81,145.78c.13-.09.25-.2.36-.33.05-.07.1-.14.13-.26.01-.06,0-.13-.02-.19-.03-.06-.08-.11-.12-.15-.04-.03-.11-.06-.18-.07-.07,0-.13.01-.19.03-.1.05-.17.12-.23.19-.11.14-.19.29-.25.44-.12.3-.16.63-.16.94,0,.32.05.63.11.94.01.06.07.1.13.09.06-.01.1-.07.09-.13,0,0,0,0,0,0-.07-.29-.08-.59-.05-.88.03-.29.09-.57.18-.84.05-.13.11-.26.18-.36.04-.05.08-.09.11-.11.04-.01.03-.02.07,0,.03.02.03.01.03.05,0,.04-.03.1-.06.15-.07.11-.17.22-.27.33h0s-.04.1,0,.14c.03.03.09.04.12.01Z" style="fill: #fcd4c4; stroke-width: 0px;"/>
            </g>
            <path d="m50.08,141.78c-.72-.3-2.6-.72-3.92-.88-1.34-.16-3.25-.22-4.04-.06.78-6.06,2.64-11.76,5.57-17.11,1.14-1.94,3.85-3.39,5.9-1.82h0c1.73,1.29,2.19,3.91,1.09,5.76-2.41,4.44-3.93,9.11-4.6,14.12Z" style="fill: #79d0ea; stroke-width: 0px;"/>
            <path d="m76.92,121.69c0,3.25-2.64,5.89-5.89,5.89-2.6,0-4.81-1.69-5.59-4.03-.78,2.34-2.98,4.03-5.59,4.03-3.25,0-5.89-2.64-5.89-5.89,0-.4.04-.78.11-1.16h22.72c.08.37.11.76.11,1.16Z" style="fill: #fff; stroke-width: 0px;"/>
            <g>
              <path d="m82.27,62.75c-1.03-.81-2.52-.25-3.35.59-.38.38-.63.85-.78,1.35-.23-.47-.49-.91-.81-1.31-.39-.49-.92-.84-1.57-.79-.62.05-1.18.41-1.45.98-.49,1.05.07,2.3.81,3.07.71.74,1.72,1.18,2.74,1.14.02.03.05.06.08.08.04.33.46.3.69.24,1.43-.37,2.91-.87,3.83-2.11.7-.95.84-2.42-.18-3.22Z" style="fill: #7d5948; stroke-width: 0px;"/>
              <ellipse cx="31.9" cy="97.3" rx="6.09" ry="7.38" style="fill: #faead7; stroke-width: 0px;"/>
              <path d="m32.29,100.74c0-1.9.98-3.45,2.18-3.45.14,0,.28.02.41.06,0-.02,0-.03,0-.05,0-2.97-1.33-5.39-2.98-5.39s-2.98,2.41-2.98,5.39,1.33,5.39,2.98,5.39c.25,0,.48-.05.71-.16-.2-.52-.32-1.14-.32-1.8Z" style="fill: #fcd4c4; stroke-width: 0px;"/>
              <ellipse cx="98.99" cy="97.3" rx="6.09" ry="7.38" style="fill: #faead7; stroke-width: 0px;"/>
              <path d="m98.6,100.74c0-1.9-.98-3.45-2.18-3.45-.14,0-.28.02-.41.06,0-.02,0-.03,0-.05,0-2.97,1.33-5.39,2.98-5.39s2.98,2.41,2.98,5.39-1.33,5.39-2.98,5.39c-.25,0-.48-.05-.71-.16.2-.52.32-1.14.32-1.8Z" style="fill: #fcd4c4; stroke-width: 0px;"/>
              <path d="m98.01,104.79c0,8.02-10.54,18.1-33.23,18.1-7.74,0-14.03-1.13-18.96-2.93-9.81-3.58-14.27-9.83-14.27-15.17,0-.55,0-1.09.02-1.62.1-4.35.74-8.12,3.54-10.45,0-.03,0-.05,0-.08,0-18.02,15.05-25.15,29.67-25.15s29.67,7.13,29.67,25.15c0,.03,0,.06,0,.08,3.15,2.61,3.56,7.04,3.56,12.06Z" style="fill: #faead7; stroke-width: 0px;"/>
              <g>
                <ellipse cx="78.55" cy="99.05" rx="3.73" ry="2.87" transform="translate(-21.05 176.89) rotate(-89.59)" style="fill: #334577; stroke-width: 0px;"/>
                <ellipse cx="51.72" cy="98.32" rx="3.73" ry="2.87" transform="translate(-46.97 149.34) rotate(-89.59)" style="fill: #334577; stroke-width: 0px;"/>
              </g>
              <path d="m72.32,108.14c0,1.81-.64,3.47-1.7,4.76-1.38,1.69-3.48,2.77-5.83,2.77s-4.45-1.08-5.83-2.77c-1.06-1.3-1.7-2.96-1.7-4.76,0-4.16,15.06-4.16,15.06,0Z" style="fill: #b52450; stroke-width: 0px;"/>
              <path d="m70.62,112.91c-1.38,1.69-3.48,2.77-5.83,2.77s-4.45-1.08-5.83-2.77c1.2-1.51,3.37-2.52,5.83-2.52s4.63,1.01,5.83,2.52Z" style="fill: #ef5ba1; stroke-width: 0px;"/>
              <path d="m75.73,88.73c.43-.7,1.32-1.12,2.08-1.32.84-.22,1.73-.16,2.54.13.41.15.42.71-.09.55-.64-.19-1.31-.2-1.95.01-.68.22-1.1.64-1.63,1.1-.26.22-1.2-.1-.97-.48Z" style="fill: #6f5241; stroke-width: 0px;"/>
              <path d="m97.6,92.48s-.81-6.13-1.61-9.19c-.81-3.06-5.8-18.05-31.16-18.05s-29.61,13.7-30.74,19.42c-.83,4.19-.86,2.55,3.36.2.35.76.7,1.53,1.05,2.3.4.86,1.36,1.31,2.29,1.11,1.83-.41,3.67-.78,5.51-1.11.93-.17,1.63-.96,1.67-1.91.04-1.28.08-2.56.12-3.85.42,1.21.84,2.43,1.25,3.64.31.9,1.22,1.44,2.16,1.33,1.86-.22,3.71-.41,5.58-.56.94-.08,1.72-.79,1.85-1.73.16-1.27.33-2.54.5-3.82.3,1.25.59,2.5.88,3.75.22.92,1.06,1.56,2.01,1.54,1.87-.04,3.73-.04,5.6,0,.95.02,1.79-.62,2.01-1.54.29-1.25.58-2.5.88-3.75.17,1.27.34,2.54.5,3.82.13.94.9,1.66,1.85,1.73,1.86.15,3.72.33,5.58.56.94.11,1.84-.44,2.16-1.33.41-1.2.82-2.4,1.24-3.6,0,0,0,0,.01,0,.05,1.27.09,2.53.12,3.8.04.95.74,1.74,1.67,1.91,1.85.33,3.68.7,5.51,1.11.68.15,1.37-.05,1.85-.51,3.82,2.77,6.31,4.72,6.31,4.72Z" style="fill: #7d5948; stroke-width: 0px;"/>
              <g style="mask: url(#mask);">
                <path d="m52.57,109.51c0,4.65-2.77,8.65-6.74,10.44-9.81-3.58-14.27-9.83-14.27-15.17,0-.55,0-1.09.02-1.62,2.05-3.08,5.56-5.11,9.54-5.11,6.33,0,11.46,5.13,11.46,11.46Z" style="fill: url(#radial-gradient-2); mix-blend-mode: multiply; opacity: .5; stroke-width: 0px;"/>
              </g>
              <g style="mask: url(#mask-2);">
                <path d="m77.24,109.51c0,4.65,2.77,8.65,6.74,10.44,9.81-3.58,14.27-9.83,14.27-15.17,0-.55,0-1.09-.02-1.62-2.05-3.08-5.56-5.11-9.54-5.11-6.33,0-11.46,5.13-11.46,11.46Z" style="fill: url(#radial-gradient-4); mix-blend-mode: multiply; opacity: .5; stroke-width: 0px;"/>
              </g>
              <path d="m53.6,87.67c-.49-.65-1.42-.99-2.2-1.12-.86-.14-1.73,0-2.52.37-.4.18-.35.74.14.54.62-.25,1.28-.32,1.94-.17.7.16,1.16.54,1.72.94.28.2,1.19-.21.92-.57Z" style="fill: #6f5241; stroke-width: 0px;"/>
            </g>
            <g>
              <circle cx="65.44" cy="52.9" r="1.89" style="fill: #efb41d; stroke-width: 0px;"/>
              <path d="m97.67,79.03c0,3.11-.67,6.09-1.9,8.85-2.87-4.83-8.87-8.77-16.55-10.95-4.18-1.19-8.85-1.85-13.78-1.85s-9.6.66-13.78,1.85c-7.68,2.18-13.68,6.12-16.55,10.95-1.23-2.76-1.9-5.74-1.9-8.85,0-1.48.15-2.93.44-4.34.11-.52.23-1.04.38-1.55.11-.39.23-.78.37-1.16,3.64-10.53,15.2-18.37,29.15-19.02.62-.03,1.25-.04,1.89-.04s1.26.01,1.89.04c13.94.65,25.51,8.49,29.15,19.02.13.38.26.77.37,1.16.15.51.27,1.03.38,1.55.29,1.41.44,2.86.44,4.34Z" style="fill: #ffd150; stroke-width: 0px;"/>
              <path d="m52.13,71.97c.13-.88.28-1.74.46-2.59.1-.48.21-.94.32-1.4,1.95-7.89,5.92-13.63,10.66-14.84.61-.16,1.24-.24,1.87-.24s1.26.08,1.87.24c4.73,1.21,8.71,6.95,10.66,14.84.11.46.22.93.32,1.4.18.84.33,1.7.46,2.59" style="fill: none; stroke: #efb41d; stroke-miterlimit: 10; stroke-width: .68px;"/>
              <path d="m105.38,82.72c0,.23-.01.45-.04.68-.36,3.23-3.26,6.21-7.95,8.64-.28-1.44-.83-2.84-1.62-4.16-2.87-4.83-8.87-8.77-16.55-10.95-4.18-1.19-8.85-1.85-13.78-1.85s-9.6.66-13.78,1.85c-7.68,2.18-13.68,6.12-16.55,10.95-.79,1.33-1.34,2.72-1.62,4.16-4.69-2.43-7.59-5.4-7.95-8.64-.03-.22-.04-.45-.04-.68,0-3.62,3.19-6.95,8.53-9.6.12-.06.24-.12.37-.18,4.76-2.28,11.16-4.03,18.5-4.97,3.94-.51,8.15-.78,12.53-.78s8.59.27,12.53.78c7.34.94,13.74,2.69,18.5,4.97.12.06.24.12.37.18,5.35,2.64,8.53,5.97,8.53,9.6Z" style="fill: #fcc853; stroke-width: 0px;"/>
              <path d="m105.38,84.09c0,3.46-2.9,6.65-7.81,9.23-.04-.43-.1-.85-.18-1.27-.28-1.44-.83-2.84-1.62-4.16-2.87-4.83-8.87-8.77-16.55-10.95-4.18-1.19-8.85-1.85-13.78-1.85s-9.6.66-13.78,1.85c-7.68,2.18-13.68,6.12-16.55,10.95-.79,1.33-1.34,2.72-1.62,4.16-.08.42-.14.84-.18,1.27-4.91-2.58-7.81-5.77-7.81-9.22,0-.23.01-.46.04-.68.37-3.27,3.33-6.28,8.12-8.72.24-.13.49-.25.75-.37,4.69-2.25,10.98-3.98,18.18-4.93,4.03-.53,8.35-.82,12.85-.82s8.82.29,12.85.82c7.21.95,13.49,2.68,18.18,4.93.25.12.5.24.75.37,4.78,2.44,7.75,5.45,8.12,8.72.03.23.04.45.04.68Z" style="fill: #efb41d; stroke-width: 0px;"/>
            </g>
            <g>
              <path d="m93.94,119.85s-1.53-.93-.87-4.91c.66-3.99.9-5.21,2.53-5.2,1.63,0,.57,3.8.57,3.8,0,0,2.22-2.13,3.12-4.69.89-2.56,2.12-2.16,2.42-.15.3,2.01-2.27,5.47-2.27,5.47,0,0,2.83-3.57,3.39-4.92.56-1.36,2.61-.07,1.78,2.35-.83,2.42-2.68,4.2-2.68,4.2,0,0,2.85-2.17,3.25-3.93.39-1.76,3.07-.73,1.71,2.07-1.36,2.8-2.98,4.57-2.98,4.57,0,0,1.79-2.95,2.53-2.45,1.92,1.32-6.8,11.92-12.49,3.79Z" style="fill: #faead7; stroke-width: 0px;"/>
              <path d="m96.79,113.87c.16,0,.37.04.56.09.19.05.38.13.57.21.37.17.73.4,1.06.65.34.25.65.54.95.83l.43.47.41.49h0c.05.07.14.07.2.02.06-.05.07-.14.02-.2l-.4-.51-.43-.49c-.3-.31-.61-.63-.96-.9-.34-.28-.71-.53-1.11-.73-.2-.1-.41-.19-.63-.26-.22-.07-.43-.12-.7-.13-.12,0-.23.09-.23.22s.09.23.22.23c0,0,0,0,0,0h.02Z" style="fill: #fcd4c4; stroke-width: 0px;"/>
            </g>
          </g>
          <g>
            <polygon points="146.45 166.07 141.46 164.7 142.51 151.96 150.13 154.06 146.45 166.07" style="fill: #faead7; stroke-width: 0px;"/>
            <path d="m141.14,166.33l5.13,1.41,1.72-6.26s-2.67-.11-6.26-1.72c-.32,1.16-.59,6.57-.59,6.57Z" style="fill: #e2e2e4; stroke-width: 0px;"/>
            <path d="m137.51,167.86l8.25,2.27c.26.07.52-.08.59-.34l.06-.22c.8-2.89-.92-5.91-3.82-6.71h0c-2.44-.67-4.96.76-5.63,3.2l-.16.57c-.15.53.17,1.08.7,1.23Z" style="fill: #594a42; stroke-width: 0px;"/>
            <g>
              <path d="m142.11,161.86s-.05-.04-.05-.07l.16-1.48s.04-.06.07-.06c.04,0,.06.04.06.07l-.16,1.48s-.04.06-.07.06c0,0,0,0-.01,0Z" style="fill: #fbfbf5; stroke-width: 0px;"/>
              <path d="m142.61,162.15s-.05-.04-.05-.07l.19-1.49s.04-.06.07-.06c.04,0,.06.04.06.07l-.19,1.49s-.04.06-.07.06c0,0,0,0,0,0Z" style="fill: #fbfbf5; stroke-width: 0px;"/>
              <path d="m143.14,162.31s-.05-.04-.05-.07l.22-1.5s.04-.06.07-.06c.04,0,.06.04.06.07l-.22,1.5s-.04.06-.07.06c0,0,0,0,0,0Z" style="fill: #fbfbf5; stroke-width: 0px;"/>
              <path d="m143.67,162.48s-.05-.04-.05-.07l.25-1.51s.04-.06.08-.05c.03,0,.06.04.05.08l-.25,1.51s-.04.06-.08.05c0,0,0,0,0,0Z" style="fill: #fbfbf5; stroke-width: 0px;"/>
              <path d="m144.2,162.64s-.05-.04-.05-.07l.28-1.51s.04-.06.08-.05c.04,0,.06.04.05.08l-.28,1.51s-.04.06-.08.05c0,0,0,0,0,0Z" style="fill: #fbfbf5; stroke-width: 0px;"/>
              <path d="m144.74,162.81s-.05-.04-.05-.08l.31-1.52s.04-.06.08-.05c.04,0,.06.04.05.08l-.31,1.52s-.04.06-.08.05c0,0,0,0,0,0Z" style="fill: #fbfbf5; stroke-width: 0px;"/>
              <path d="m145.27,162.97s-.05-.04-.05-.08l.34-1.53s.04-.06.08-.05c.03,0,.06.04.05.08l-.34,1.53s-.04.06-.08.05c0,0,0,0,0,0Z" style="fill: #fbfbf5; stroke-width: 0px;"/>
              <path d="m145.8,163.13s-.05-.04-.05-.08l.37-1.54s.04-.06.08-.05c.03,0,.06.04.05.08l-.37,1.54s-.04.06-.08.05c0,0,0,0,0,0Z" style="fill: #fbfbf5; stroke-width: 0px;"/>
              <path d="m146.34,163.3s-.05-.04-.05-.08l.4-1.55s.04-.06.08-.05c.04.01.06.04.05.08l-.4,1.55s-.04.06-.08.05c0,0,0,0,0,0Z" style="fill: #fbfbf5; stroke-width: 0px;"/>
              <path d="m147.03,163.37s-.06-.05-.05-.08l.43-1.56s.05-.06.08-.05c.03,0,.06.05.05.08l-.43,1.56s-.05.06-.08.05Z" style="fill: #fbfbf5; stroke-width: 0px;"/>
            </g>
            <polygon points="174.29 157.11 170.67 160.8 160.05 153.7 165.58 148.06 174.29 157.11" style="fill: #faead7; stroke-width: 0px;"/>
            <path d="m171.93,161.88l3.73-3.8-4.63-4.55s-1.39,2.28-4.55,4.63c.86.84,5.46,3.71,5.46,3.71Z" style="fill: #e2e2e4; stroke-width: 0px;"/>
            <path d="m171.55,166.99l6.34-7.69c.19-.19.18-.5,0-.68l-.17-.16c-2.14-2.1-5.5-2.57-7.36-.26-.25.32-.7,1.91-.7,1.91-1.77,1.81-1.75,4.71.06,6.48l.42.42c.39.39,1.03.38,1.41-.01Z" style="fill: #594a42; stroke-width: 0px;"/>
            <g>
              <path d="m168.5,158.86s-.06.03-.08,0l-1.22-.86s-.04-.06-.02-.09c.02-.03.06-.04.09-.02l1.22.86s.04.06.02.09c0,0,0,0,0,0Z" style="fill: #fbfbf5; stroke-width: 0px;"/>
              <path d="m169,158.57s-.06.03-.09,0l-1.21-.89s-.04-.06-.01-.09c.02-.03.06-.04.09-.01l1.21.89s.04.06.01.09c0,0,0,0,0,0Z" style="fill: #fbfbf5; stroke-width: 0px;"/>
              <path d="m169.4,158.18s-.06.03-.09,0l-1.2-.92s-.03-.06-.01-.09c.02-.03.06-.03.09-.01l1.2.92s.03.06.01.09c0,0,0,0,0,0Z" style="fill: #fbfbf5; stroke-width: 0px;"/>
              <path d="m169.8,157.79s-.06.03-.09,0l-1.19-.95s-.03-.06-.01-.09c.02-.03.06-.03.09-.01l1.19.95s.03.06.01.09c0,0,0,0,0,0Z" style="fill: #fbfbf5; stroke-width: 0px;"/>
              <path d="m170.2,157.41s-.06.03-.09,0l-1.19-.98s-.03-.06,0-.09c.02-.03.06-.03.09,0l1.19.98s.03.06,0,.09c0,0,0,0,0,0Z" style="fill: #fbfbf5; stroke-width: 0px;"/>
              <path d="m170.61,157.02s-.06.03-.09,0l-1.18-1.01s-.03-.06,0-.09c.02-.03.06-.03.09,0l1.18,1.01s.03.06,0,.09c0,0,0,0,0,0Z" style="fill: #fbfbf5; stroke-width: 0px;"/>
              <path d="m171.01,156.63s-.06.03-.09,0l-1.17-1.04s-.03-.07,0-.09c.02-.03.07-.03.09,0l1.17,1.04s.03.07,0,.09c0,0,0,0,0,0Z" style="fill: #fbfbf5; stroke-width: 0px;"/>
              <path d="m171.41,156.25s-.06.03-.09,0l-1.17-1.07s-.03-.07,0-.09c.02-.03.07-.03.09,0l1.17,1.07s.03.07,0,.09c0,0,0,0,0,0Z" style="fill: #fbfbf5; stroke-width: 0px;"/>
              <path d="m171.81,155.86s-.07.03-.09,0l-1.16-1.1s-.03-.07,0-.09c.03-.03.07-.03.09,0l1.16,1.1s.03.07,0,.09c0,0,0,0,0,0Z" style="fill: #fbfbf5; stroke-width: 0px;"/>
              <path d="m172.21,155.29s-.07.03-.09,0l-1.15-1.13s-.03-.07,0-.09c.03-.03.07-.03.09,0l1.15,1.13s.03.07,0,.09Z" style="fill: #fbfbf5; stroke-width: 0px;"/>
            </g>
            <path d="m169.35,151.82c-.07.88-6.56,3.08-14.48,4.93-7.92,1.86-14.71,2.77-15.16,2.01-.03-.05-.46-12.19-.46-12.19l25.09-5.88s5.01,11.07,5.01,11.13Z" style="fill: #f9c0c6; stroke-width: 0px;"/>
            <path d="m167.17,145.25c-.26,1.59-7.88,5.98-15.79,5.98s-14.52-1.25-14.79-2.84c-.02-.11,2.27-22.73,2.27-22.73h25.04s3.29,19.48,3.27,19.59Z" style="fill: #f9cadb; stroke-width: 0px;"/>
            <path d="m161.7,135.26c0-1.35-.69-2.45-1.53-2.45-.52,0-.97.41-1.25,1.03-.28-.63-.73-1.03-1.25-1.03s-.97.41-1.25,1.03c-.28-.63-.73-1.03-1.25-1.03-.85,0-1.53,1.1-1.53,2.45,0,.06,0,.12,0,.18,0,.03,0,.06,0,.09,0,2.23,1.81,4.03,4.03,4.03s4.03-1.81,4.03-4.03c0-.03,0-.06,0-.09,0-.06,0-.12,0-.18Z" style="fill: #f38eba; stroke-width: 0px;"/>
            <path d="m124.29,120.44c-.23.73-1.11,2.39-1.83,3.46-.73,1.09-1.89,2.55-2.51,3.03,4.99,3.25,10.39,5.48,16.21,6.69,2.16.38,4.95-.71,5.09-3.22h0c.14-2.09-1.52-4.09-3.58-4.45-4.82-1.02-9.24-2.85-13.38-5.52Z" style="fill: #f9cadb; stroke-width: 0px;"/>
            <path d="m161.15,126.68c0,3.17-2.57,5.74-5.74,5.74-2.54,0-4.69-1.65-5.44-3.93-.76,2.28-2.91,3.93-5.44,3.93-3.17,0-5.74-2.57-5.74-5.74,0-.39.04-.76.11-1.13h22.14c.07.37.11.74.11,1.13Z" style="fill: #fff; stroke-width: 0px;"/>
            <path d="m122.58,91.8s-10.19,16.33-6.18,27.48c.33.92,1.63.94,1.99.02l1.38-3.54s.17,2.39,1.17,4.69c.4.93,1.76.82,2.01-.16l1.07-4.2s-.06,2.4.89,4.73c.38.93,1.72.85,2-.11l1.27-4.3,1.87-24.04-7.46-.58Z" style="fill: #6f5241; stroke-width: 0px;"/>
            <path d="m182.05,96.43s7.4,17.39,2.01,27.82c-.5.97-1.95.78-2.19-.29l-.75-3.41s-.49,2.11-1.7,4.15c-.58.97-2.07.63-2.18-.5l-.37-3.98s-.28,2.14-1.42,4.21c-.55.99-2.04.7-2.19-.42l-.55-4.12,1.87-24.04,7.46.58Z" style="fill: #6f5241; stroke-width: 0px;"/>
            <ellipse cx="119.48" cy="100.37" rx="7.19" ry="5.93" transform="translate(10.14 211.7) rotate(-85.55)" style="fill: #faead7; stroke-width: 0px;"/>
            <path d="m119.6,103.74c.14-1.85,1.21-3.28,2.38-3.19.14.01.27.04.39.09,0-.01,0-.03,0-.04.22-2.89-.89-5.33-2.49-5.46-1.6-.12-3.08,2.12-3.3,5.01-.22,2.89.89,5.33,2.49,5.46.24.02.47-.02.7-.1-.16-.52-.22-1.13-.17-1.77Z" style="fill: #fcd4c4; stroke-width: 0px;"/>
            <ellipse cx="184.67" cy="105.45" rx="7.19" ry="5.93" transform="translate(65.22 281.38) rotate(-85.55)" style="fill: #faead7; stroke-width: 0px;"/>
            <path d="m184.03,108.75c.14-1.85-.69-3.43-1.86-3.52-.14-.01-.27,0-.4.03,0-.01,0-.03,0-.04.22-2.89,1.7-5.13,3.3-5.01,1.6.12,2.71,2.57,2.49,5.46-.22,2.89-1.7,5.13-3.3,5.01-.24-.02-.47-.09-.68-.21.24-.49.4-1.08.45-1.72Z" style="fill: #fcd4c4; stroke-width: 0px;"/>
            <path d="m183.15,112.64c-.61,7.8-11.61,16.79-33.65,15.08-7.52-.59-13.54-2.16-18.2-4.28-9.26-4.22-13.12-10.63-12.72-15.82.04-.53.09-1.05.14-1.57.43-4.22,1.33-7.84,4.23-9.88,0-.03,0-.05,0-.08,1.36-17.51,16.53-23.3,30.73-22.19,14.2,1.11,28.29,9.17,26.93,26.68,0,.03,0,.05,0,.08,2.86,2.77,2.92,7.11,2.54,11.99Z" style="fill: #faead7; stroke-width: 0px;"/>
            <ellipse cx="132.48" cy="102.83" rx="2.8" ry="3.81" style="fill: #334577; stroke-width: 0px;"/>
            <path d="m151.68,113.76c-.14,1.76-.88,3.32-2.01,4.5-1.47,1.54-3.59,2.43-5.88,2.25-2.29-.18-4.24-1.38-5.46-3.13-.93-1.34-1.43-3-1.29-4.76.31-4.04,14.95-2.9,14.63,1.14Z" style="fill: #b52450; stroke-width: 0px;"/>
            <path d="m149.67,118.26c-1.47,1.54-3.59,2.43-5.88,2.25-2.29-.18-4.24-1.38-5.46-3.13,1.28-1.38,3.46-2.2,5.86-2.01,2.4.19,4.42,1.33,5.48,2.89Z" style="fill: #ef5ba1; stroke-width: 0px;"/>
            <path d="m156.46,95.16c.47-.64,1.37-.99,2.13-1.12.84-.15,1.69-.02,2.46.32.39.17.35.72-.13.53-.61-.24-1.25-.29-1.89-.14-.68.17-1.12.54-1.67.94-.27.2-1.16-.19-.9-.54Z" style="fill: #6f5241; stroke-width: 0px;"/>
            <path d="m123.5,96.64c-.61,3.33-1.02,6.71-1.39,10.09-.12,1.11-.44,4.28-.94,4.33-.54.05-1.12-3.29-1.22-4.34-.35-3.55-.09-7.17.55-10.63.64-3.46,1.69-6.93,3.28-10.12.47-.95,2.23-3.85,2.69-3.62.48.23-.38,3.3-.66,4.38-.85,3.29-1.68,6.6-2.29,9.92Z" style="fill: #6f5241; stroke-width: 0px;"/>
            <path d="m180.64,99.91c.54,3.34.87,6.73,1.18,10.12.1,1.11.35,4.29.85,4.35.54.06,1.19-3.27,1.31-4.32.42-3.54.24-7.17-.32-10.64-.56-3.47-1.54-6.96-3.06-10.19-.45-.96-2.15-3.89-2.61-3.68-.49.22.31,3.31.57,4.39.78,3.31,1.54,6.63,2.08,9.97Z" style="fill: #6f5241; stroke-width: 0px;"/>
            <path d="m169.36,84.25s-3.03,8.57-13.59,10.67c-10.56,2.1-9.01.34-9.01.34l3.88-3.33s-10.03,4.84-18.83,2.76l4.13-4.22s-10.53,5.64-17.42,5.1c0,0,2.49-1.85,4.03-7.33,1.54-5.47,6.7-18.47,31.34-16.55s28.36,16.86,28.91,19.9c.55,3.04.87,9.05.87,9.05,0,0-10.79-7.14-14.32-16.4Z" style="fill: #7d5948; stroke-width: 0px;"/>
            <g style="mask: url(#mask-4);">
              <path d="m138.65,113.8c-.35,4.52-3.34,8.19-7.34,9.64-9.26-4.22-13.12-10.63-12.72-15.82.04-.53.09-1.05.14-1.57,2.23-2.84,5.79-4.55,9.66-4.25,6.15.48,10.74,5.85,10.26,12Z" style="fill: url(#radial-gradient-6); mix-blend-mode: multiply; opacity: .5; stroke-width: 0px;"/>
            </g>
            <g style="mask: url(#mask-6);">
              <path d="m162.61,115.67c-.35,4.52,2.03,8.61,5.76,10.66,9.8-2.74,14.61-8.47,15.01-13.66.04-.53.08-1.05.11-1.57-1.76-3.15-5.02-5.39-8.88-5.69-6.15-.48-11.52,4.12-12,10.27Z" style="fill: url(#radial-gradient-8); mix-blend-mode: multiply; opacity: .5; stroke-width: 0px;"/>
            </g>
            <path d="m135.05,92.45c-.43-.67-1.3-1.07-2.05-1.26-.83-.2-1.69-.13-2.48.17-.4.15-.4.7.1.54.62-.2,1.27-.21,1.9-.02.67.21,1.09.61,1.6,1.05.25.21,1.17-.11.94-.48Z" style="fill: #6f5241; stroke-width: 0px;"/>
            <path d="m191.25,79.47c-2.08-3.96-3.92-6.57-5.31-8.22-2.05-3.13-5.96-4.71-9.75-3.63-4.66,1.33-7.36,6.19-6.04,10.85.67,2.35,2.23,4.2,4.22,5.29h0c9.6,15.04,26.32,5,26.32,5,0,0-4.95-.71-9.44-9.28Z" style="fill: #7d5948; stroke-width: 0px;"/>
            <g>
              <circle cx="155.83" cy="58.47" r="1.84" style="fill: #efb41d; stroke-width: 0px;"/>
              <path d="m185.16,86.29c-.24,3.02-1.11,5.87-2.51,8.46-2.42-4.91-7.96-9.19-15.25-11.89-3.97-1.47-8.46-2.47-13.25-2.84-4.79-.37-9.38-.08-13.53.75-7.63,1.53-13.76,4.91-16.91,9.39-.98-2.78-1.41-5.73-1.17-8.75.11-1.44.37-2.84.76-4.19.14-.5.31-1,.49-1.48.14-.37.28-.74.44-1.1,4.33-9.96,16.16-16.7,29.76-16.28.61.02,1.22.05,1.84.1s1.22.11,1.83.19c13.5,1.69,24.15,10.18,26.88,20.69.1.38.19.77.27,1.16.1.51.19,1.02.25,1.54.18,1.39.22,2.82.1,4.25Z" style="fill: #ffd150; stroke-width: 0px;"/>
              <path d="m141.45,75.99c.19-.85.41-1.67.64-2.48.13-.45.27-.9.42-1.34,2.49-7.52,6.79-12.79,11.48-13.61.61-.11,1.22-.14,1.84-.09s1.22.17,1.8.37c4.51,1.54,7.93,7.41,9.23,15.23.07.46.14.92.2,1.39.11.83.19,1.68.25,2.55" style="fill: none; stroke: #efb41d; stroke-miterlimit: 10; stroke-width: .68px;"/>
              <path d="m192.37,90.47c-.02.22-.05.44-.09.66-.59,3.12-3.64,5.79-8.38,7.79-.17-1.42-.6-2.82-1.26-4.17-2.42-4.91-7.96-9.19-15.25-11.89-3.97-1.47-8.46-2.47-13.25-2.84-4.79-.37-9.38-.08-13.53.75-7.63,1.53-13.76,4.91-16.91,9.39-.87,1.23-1.5,2.54-1.89,3.92-4.37-2.71-6.97-5.82-7.07-8.99,0-.22,0-.44.01-.66.27-3.52,3.62-6.52,9.02-8.68.12-.05.24-.1.37-.15,4.8-1.86,11.15-3.07,18.36-3.43,3.87-.19,7.98-.14,12.23.19s8.33.92,12.12,1.71c7.06,1.47,13.15,3.65,17.6,6.23.12.07.23.13.34.2,5,2.97,7.84,6.45,7.57,9.97Z" style="fill: #fcc853; stroke-width: 0px;"/>
              <path d="m192.27,91.79c-.26,3.36-3.32,6.24-8.28,8.37,0-.42-.03-.83-.08-1.25-.17-1.42-.6-2.82-1.26-4.17-2.42-4.91-7.96-9.19-15.25-11.89-3.97-1.47-8.46-2.47-13.25-2.84-4.79-.37-9.38-.08-13.53.75-7.63,1.53-13.76,4.91-16.91,9.39-.87,1.23-1.5,2.54-1.89,3.92-.11.4-.2.81-.27,1.22-4.57-2.88-7.15-6.2-6.89-9.55.02-.22.05-.44.09-.66.6-3.15,3.71-5.85,8.54-7.86.25-.1.5-.2.75-.3,4.73-1.83,10.97-3.04,18.04-3.42,3.96-.21,8.18-.17,12.55.17,4.37.34,8.55.95,12.42,1.77,6.93,1.47,12.91,3.63,17.3,6.17.24.14.47.28.7.42,4.46,2.73,7.12,5.88,7.23,9.09,0,.22,0,.44-.02.67Z" style="fill: #efb41d; stroke-width: 0px;"/>
            </g>
            <g>
              <path d="m123.7,123.8s1.36-1.08.25-4.86c-1.12-3.77-1.5-4.92-3.07-4.72-1.57.2-.09,3.74-.09,3.74,0,0-2.41-1.79-3.59-4.16-1.18-2.37-2.31-1.83-2.36.14-.05,1.98,2.86,5.01,2.86,5.01,0,0-3.17-3.11-3.87-4.35-.71-1.25-2.53.25-1.44,2.49,1.09,2.24,3.1,3.74,3.1,3.74,0,0-3.02-1.75-3.61-3.4-.59-1.65-3.05-.33-1.4,2.21,1.65,2.54,3.43,4.06,3.43,4.06,0,0-2.09-2.64-2.74-2.06-1.7,1.51,8.02,10.71,12.54,2.15Z" style="fill: #faead7; stroke-width: 0px;"/>
              <path d="m120.22,118.36c-.15.02-.36.08-.53.16-.18.08-.36.17-.53.28-.34.21-.66.47-.95.76-.3.28-.56.6-.82.92l-.36.5-.34.52h0c-.04.07-.13.09-.19.05-.06-.04-.08-.12-.04-.19l.33-.54.35-.53c.25-.34.51-.68.82-.98.3-.31.62-.6.98-.84.18-.12.37-.23.57-.32.21-.09.4-.17.66-.21.12-.02.23.06.25.18.02.12-.06.23-.18.25,0,0,0,0,0,0h-.02Z" style="fill: #fcd4c4; stroke-width: 0px;"/>
            </g>
            <path d="m174.51,115.83c.42.63,1.73,1.99,2.72,2.82,1,.85,2.53,1.93,3.25,2.22-3.89,4.5-8.46,8.14-13.73,10.92-1.97.97-4.95.68-5.78-1.69h0c-.71-1.97.32-4.35,2.21-5.26,4.35-2.31,8.09-5.29,11.33-9.01Z" style="fill: #f9cadb; stroke-width: 0px;"/>
            <g>
              <path d="m176.01,118.9s-1.61-.66-1.58-4.6c.03-3.94.08-5.15,1.65-5.39,1.57-.24,1.12,3.57,1.12,3.57,0,0,1.82-2.39,2.29-4.99.47-2.6,1.71-2.4,2.31-.51.6,1.89-1.36,5.61-1.36,5.61,0,0,2.19-3.86,2.52-5.25.33-1.39,2.5-.46,2.07,1.99-.43,2.45-1.95,4.45-1.95,4.45,0,0,2.42-2.52,2.53-4.27.11-1.75,2.84-1.16,1.96,1.74-.89,2.9-2.18,4.85-2.18,4.85,0,0,1.28-3.11,2.06-2.74,2.05.98-4.74,12.51-11.45,5.54Z" style="fill: #faead7; stroke-width: 0px;"/>
              <path d="m177.85,112.71c.15-.02.37-.02.55,0,.2.02.39.07.58.12.39.11.76.27,1.12.46.36.19.7.42,1.04.66l.49.38.47.41h0c.06.05.14.05.19,0,.05-.06.04-.14,0-.19l-.46-.43-.49-.41c-.34-.26-.68-.51-1.06-.72-.37-.21-.76-.4-1.18-.53-.21-.06-.42-.12-.64-.15-.22-.03-.43-.05-.7-.02-.12.01-.21.12-.19.24s.12.2.24.19c0,0,0,0,0,0h.02Z" style="fill: #fcd4c4; stroke-width: 0px;"/>
            </g>
            <path d="m162.38,105.8c-.05-.01-.14-.04-.21-.06-.07-.02-.15-.04-.23-.06-.15-.04-.3-.08-.46-.1-.31-.06-.61-.11-.92-.14-.31-.03-.61-.04-.91-.03-.3.01-.6.04-.9.09-.59.1-1.16.28-1.71.53-.55.26-1.07.59-1.6.96h0c-.23.17-.54.11-.7-.11-.13-.18-.12-.42,0-.59.44-.58,1-1.09,1.64-1.48.65-.39,1.38-.66,2.13-.77.75-.11,1.52-.09,2.25.06.37.07.72.18,1.07.32.17.07.34.14.51.23.08.04.16.09.25.13.08.05.16.09.25.16.23.15.29.46.13.69-.12.18-.33.25-.52.21l-.08-.02Z" style="fill: #334577; stroke-width: 0px;"/>
            <g>
              <path d="m166.6,140l-3.37.39c-.63.07-1.21.31-1.68.66-6.65-2.34-12.67-6.25-17.75-11.21-1.9-1.86-2.12-1.88-3.72-4-.88-1.17-5.26-1.3-4.52-.03,4.94,8.5,12.94,14.67,22.06,18.17.86.33,1.72.63,2.6.9l.31,2.75c.22,1.92,1.95,3.3,3.88,3.08l3.37-.39c1.92-.22,3.3-1.95,3.08-3.88l-.39-3.37c-.22-1.92-1.95-3.3-3.88-3.08Z" style="fill: #fcc853; stroke-width: 0px;"/>
              <path d="m160.22,144.89s1.53.49,2.09.43c0,0,.05,2.84,1.37,4.09,1.31,1.25-1.33,1.33-2.2-.03-.87-1.36-1.25-4.48-1.25-4.48Z" style="fill: #efb41d; stroke-width: 0px;"/>
              <path d="m167.62,144.49c.04.36-.22.69-.58.73-.36.04-.69-.22-.73-.58-.04-.36.22-.69.58-.73.36-.04.69.22.73.58Z" style="fill: #efb41d; stroke-width: 0px;"/>
              <polygon points="167.23 146.79 163.48 145.83 163.59 145.42 167.15 146.33 169.77 144.44 170.02 144.78 167.23 146.79" style="fill: #efb41d; stroke-width: 0px;"/>
            </g>
          </g>
        </g>
      </g>
    </g>
  </g>
</svg>