<?xml version="1.0" encoding="UTF-8"?>
<svg id="_圖層_2" data-name="圖層 2" xmlns="http://www.w3.org/2000/svg" width="218.01" height="218.02" viewBox="0 0 218.01 218.02">
  <g id="_圖層_8" data-name="圖層 8">
    <g id="Topic_exploration2">
      <g>
        <path d="m109.01,0c-1.59,0-3.21.03-4.8.1l.35,8c.38-.02.77-.03,1.15-.04,0,0,0,0,.01,0,0,0,.02,0,.02,0,0,0,.01,0,.02,0,0,0,.01,0,.02,0,0,0,.01,0,.02,0,0,0,.01,0,.02,0,.01,0,.01,0,.02,0,0,0,0,0,0,0,.03,0,.06,0,.1,0,0,0,0,0,0,0,.01,0,.02,0,.03,0,0,0,0,0,0,0,.64-.02,1.27-.03,1.91-.04,0,0,0,0,0,0,.01,0,.02,0,.03,0,0,0,0,0,0,0,.01,0,.02,0,.03,0,0,0,0,0,0,0,.04,0,.09,0,.13,0h0s.02,0,.03,0c0,0,0,0,0,0,0,0,.02,0,.03,0,0,0,0,0,.01,0,0,0,.02,0,.02,0,0,0,0,0,.01,0,.01,0,.02,0,.03,0,0,0,0,0,0,0,.02,0,.04,0,.06,0,0,0,0,0,0,0,0,0,.02,0,.03,0,0,0,0,0,.01,0,0,0,.02,0,.02,0,0,0,.01,0,.02,0,0,0,.01,0,.02,0h.02s.01,0,.02,0c0,0,.01,0,.02,0,0,0,.01,0,.02,0,0,0,.02,0,.02,0,0,0,.01,0,.02,0,.01,0,.02,0,.03,0h.02s.02,0,.02,0c0,0,.01,0,.02,0h.02s0,0,.02,0h.02s0,0,.02,0c0,0,.02,0,.03,0h.04s0,0,.01,0h.03s.01,0,.01,0h.08s.01,0,.02,0h.09V0h0Zm-7.67.27c-1.59.11-3.2.26-4.78.44l.91,7.96c.83-.09,1.66-.18,2.49-.25h0s.02,0,.04,0h0s.02,0,.03,0h0s.02,0,.03,0h0s.02,0,.03,0c0,0,0,0,0,0,.03,0,.05,0,.08,0,0,0,0,0,.01,0,0,0,.02,0,.03,0,0,0,.01,0,.01,0h.02s.01,0,.02,0c0,0,.01,0,.02,0,0,0,.02,0,.02,0,0,0,0,0,.01,0,.01,0,.01,0,.02,0,0,0,0,0,.01,0,.03,0,.06,0,.09,0,0,0,0,0,0,0,.01,0,.02,0,.03,0,0,0,0,0,0,0,.01,0,.02,0,.03,0,0,0,0,0,0,0,.01,0,.02,0,.03,0h0c.44-.04.88-.07,1.32-.1l-.56-7.99h0Zm-7.64.8c-1.58.22-3.17.48-4.74.77l1.46,7.87c1.45-.27,2.92-.51,4.39-.72l-1.12-7.93h0Zm-7.57,1.34c-1.56.33-3.13.71-4.67,1.11l2.02,7.75c1.05-.27,2.1-.53,3.16-.77,0,0,0,0,.01,0,0,0,.01,0,.02,0,0,0,.01,0,.02,0,0,0,.01,0,.02,0,0,0,.01,0,.02,0,0,0,0,0,.02,0,0,0,.02,0,.02,0,0,0,0,0,.01,0h.02s0,0,.01,0c.33-.07.66-.15.99-.22l-1.67-7.83h0Zm-7.45,1.87c-1.53.44-3.07.93-4.58,1.44l2.56,7.59c.51-.17,1.02-.34,1.54-.51,0,0,0,0,.01,0,.02,0,.04-.01.06-.02,0,0,.02,0,.02,0,.01,0,.02,0,.04-.01.01,0,.02,0,.04-.01,0,0,.01,0,.02,0,.02,0,.04-.01.05-.02,0,0,.01,0,.02,0,.02,0,.03-.01.05-.02,0,0,0,0,.01,0,.02,0,.04-.01.06-.02,0,0,0,0,0,0,.77-.24,1.55-.48,2.33-.7l-2.22-7.69h0Zm-7.3,2.4c-1.5.55-3,1.14-4.47,1.76l3.1,7.39c.75-.31,1.5-.62,2.25-.91h0s.04-.02.06-.02c0,0,0,0,0,0,.02,0,.04-.01.06-.02,0,0,0,0,.01,0,.02,0,.04-.01.05-.02,0,0,.01,0,.02,0,.02,0,.03-.01.04-.02,0,0,.02,0,.03-.01,0,0,.03-.01.03-.01.01,0,.02,0,.04-.01s.02,0,.03-.01c.01,0,.02,0,.03-.01,0,0,0,0,.01,0,.02,0,.04-.02.06-.02h0c.47-.18.94-.36,1.41-.53l-2.76-7.52h0Zm-7.11,2.91c-1.45.65-2.91,1.35-4.33,2.07l3.61,7.15c.14-.07.29-.15.43-.22h0s.04-.02.06-.03c0,0,0,0,0,0,.02-.01.03-.02.05-.03,0,0,0,0,0,0,.02,0,.04-.02.06-.03h0s.03-.02.05-.03c0,0,0,0,.01,0,.02,0,.03-.02.05-.02,0,0,.01,0,.02,0,.01,0,.03-.02.05-.02,0,0,.01,0,.02,0,.01,0,.03-.02.04-.02,0,0,.01,0,.02,0,.01,0,.03-.01.04-.02,0,0,.02,0,.02-.01.01,0,.02-.01.03-.02.01,0,.02-.01.03-.02,0,0,.02-.01.03-.02,0,0,.02,0,.03-.01.01,0,.02-.01.04-.02,0,0,.02,0,.02-.01.01,0,.03-.01.04-.02h.02s.02-.02.03-.03c.01,0,.02-.01.03-.02,0,0,.02,0,.03-.01.01,0,.03-.01.04-.02,0,0,.02,0,.03-.01.01,0,.02-.01.04-.02,0,0,.02-.01.03-.01s.02,0,.03-.01c.01,0,.03-.01.04-.02,0,0,.02,0,.03-.01.01,0,.03-.01.04-.02,0,0,.02,0,.03-.01.01,0,.02,0,.03-.01.01,0,.02-.01.03-.02,0,0,.02,0,.03-.01.01,0,.02-.01.03-.02,0,0,.02-.01.03-.01l.03-.02s.02-.01.03-.02c0,0,.02,0,.02-.01.01,0,.03-.01.04-.02,0,0,.02,0,.03-.01.01,0,.02-.01.04-.02,0,0,.02,0,.03-.01,0,0,.02-.01.03-.01.01,0,.02-.01.03-.02,0,0,.02,0,.03-.01.01,0,.02,0,.03-.01.01,0,.02-.01.04-.02,0,0,.02,0,.02-.01.01,0,.03-.01.04-.02,0,0,.01,0,.02-.01.01,0,.03-.01.04-.02h.02s.03-.02.04-.03c0,0,.01,0,.02-.01.01,0,.03-.01.04-.02,0,0,.01,0,.02,0,.01,0,.03-.01.04-.02,0,0,.01,0,.02,0,.01,0,.03-.01.05-.02h.02s.03-.02.05-.03c0,0,.01,0,.02,0,.01,0,.03-.02.05-.02h.01s.03-.02.05-.03c0,0,0,0,.01,0,.01,0,.04-.02.05-.02,0,0,0,0,.01,0,.02,0,.04-.02.05-.02,0,0,0,0,.01,0,.02,0,.04-.02.05-.02,0,0,0,0,.01,0,.02,0,.03-.02.05-.03,0,0,0,0,0,0,.02,0,.04-.02.06-.03,0,0,0,0,0,0,.02,0,.04-.02.06-.03,0,0,0,0,0,0,.02,0,.04-.02.06-.03h0s.04-.02.06-.03c0,0,0,0,0,0,.02,0,.04-.02.06-.03,0,0,0,0,0,0,.02,0,.04-.02.06-.03,0,0,0,0,0,0,.04-.02.08-.04.12-.06,0,0,0,0,0,0,.02,0,.04-.02.06-.03,0,0,0,0,0,0,.02,0,.04-.02.06-.03,0,0,0,0,0,0,.08-.04.17-.08.25-.11,0,0,0,0,0,0,.02,0,.04-.02.06-.03,0,0,0,0,0,0,.02,0,.04-.02.06-.03,0,0,0,0,0,0,.02,0,.04-.02.06-.03l-3.29-7.3h0Zm-6.89,3.4c-1.4.76-2.81,1.55-4.18,2.37l4.11,6.88c1.16-.69,2.34-1.36,3.53-2.01,0,0,0,0,0,0,.02,0,.03-.02.05-.03,0,0,.01,0,.02-.01.01,0,.02-.01.04-.02.01,0,.02,0,.03-.02,0,0,.02,0,.02-.01.01,0,.03-.02.04-.02,0,0,.01,0,.02,0,.01,0,.03-.02.05-.03,0,0,0,0,.01,0,.02,0,.04-.02.05-.03,0,0,0,0,0,0l-3.8-7.05h0Zm-6.63,3.88c-1.35.85-2.69,1.75-4,2.66l4.58,6.57s.01,0,.02-.01c0,0,.02-.01.02-.02.01,0,.02-.01.03-.02.01,0,.02-.01.03-.02,0,0,.01,0,.02-.01.01,0,.03-.02.04-.03h.02s.03-.03.04-.04c0,0,0,0,.01,0,.02-.01.03-.02.05-.03,0,0,0,0,0,0,.02-.01.03-.02.05-.03,0,0,0,0,0,0,.04-.03.07-.05.11-.08,0,0,0,0,0,0,.02-.01.04-.03.06-.04,0,0,0,0,0,0,.02-.01.04-.03.06-.04,0,0,0,0,0,0,.65-.44,1.3-.88,1.96-1.31,0,0,0,0,0,0,.02-.01.04-.02.05-.03,0,0,0,0,0,0,.02-.01.03-.02.05-.03,0,0,0,0,.01,0,.02-.01.03-.02.05-.03,0,0,0,0,.01,0,.01,0,.03-.02.04-.03,0,0,.01,0,.02-.01.01,0,.02-.01.04-.02,0,0,.01,0,.02-.01.01,0,.02-.01.04-.02,0,0,.02-.01.02-.02.01,0,.02-.02.04-.02,0,0,.02-.01.03-.02,0,0,.01,0,.02-.01.02-.01.03-.02.05-.03,0,0,0,0,0,0,.02-.01.04-.02.06-.04h0c.2-.13.41-.26.62-.4l-4.29-6.77h0Zm-6.34,4.34c-1.28.94-2.56,1.93-3.8,2.93l5.03,6.23c.29-.23.58-.46.87-.69,0,0,0,0,0,0,.01-.01.04-.03.05-.04,0,0,0,0,0,0,.02-.01.03-.02.05-.04,0,0,0,0,0,0,.01-.01.03-.03.05-.04,0,0,0,0,0,0,.01-.01.03-.03.05-.04,0,0,0,0,0,0,.01-.01.03-.02.05-.04,0,0,0,0,0,0,.01,0,.03-.02.04-.03,0,0,0,0,.01,0,.01-.01.03-.02.04-.03,0,0,0,0,.01-.01.02-.01.03-.02.04-.03,0,0,.01,0,.02-.01.01,0,.03-.02.04-.03,0,0,.01,0,.02-.01.01,0,.03-.02.04-.03h.02s.02-.03.03-.04c0,0,.02-.01.02-.02.01,0,.02-.02.03-.02l.02-.02s.02-.02.03-.02l.02-.02s.02-.02.03-.03c0,0,.02-.01.02-.02.01,0,.02-.02.03-.03,0,0,.02-.01.02-.02.01,0,.01-.01.02-.02.01,0,.02-.02.03-.03,0,0,.01,0,.02-.02.01,0,.03-.02.04-.03,0,0,.01-.01.02-.01.01,0,.03-.02.04-.03,0,0,.01,0,.02-.01.01,0,.03-.02.04-.03,0,0,.01-.01.02-.01l.03-.02s.01-.01.02-.02c.01,0,.02-.02.04-.03,0,0,.01,0,.01-.01.01-.01.03-.02.04-.03,0,0,0,0,.01-.01.02-.01.03-.02.05-.04,0,0,0,0,.01,0,.02-.01.03-.03.05-.04,0,0,0,0,0,0,.07-.05.14-.11.21-.16h0c.36-.27.72-.55,1.09-.81l-4.75-6.45h0Zm-6.02,4.77c-1.21,1.03-2.42,2.11-3.59,3.19l5.45,5.87c.87-.81,1.76-1.61,2.66-2.39h0s.04-.03.05-.05h0s.03-.03.05-.05c0,0,0,0,0,0,.01-.01.03-.03.04-.04,0,0,0,0,.01-.01,0,0,.02-.01.03-.02,0,0,.02-.02.03-.03,0,0,.01-.01.02-.02.01-.01.02-.02.03-.03,0,0,.01,0,.02-.01.01-.01.02-.02.03-.03,0,0,0,0,.01-.01.01-.01.03-.02.04-.03,0,0,0,0,0,0,.01-.01.03-.03.05-.04h0s.03-.03.05-.05c0,0,0,0,0,0,.05-.05.11-.09.16-.14l-5.19-6.1h0Zm-5.67,5.18c-1.14,1.11-2.27,2.27-3.35,3.43l5.85,5.47c.78-.83,1.56-1.65,2.37-2.45h0s.03-.03.05-.05h0s.03-.03.04-.05h0s.03-.03.04-.05h.01s.02-.03.03-.04c0,0,.01-.01.02-.02,0,0,.02-.02.03-.03,0,0,.01-.01.02-.02.01-.01.02-.02.03-.03,0,0,.02-.02.02-.02,0,0,0,0,0,0,.02-.02.03-.03.05-.05h0s.03-.04.05-.05h0c.11-.11.22-.21.33-.32l-5.61-5.72h0Zm-5.29,5.56c-1.06,1.19-2.1,2.42-3.11,3.66l6.22,5.05s.04-.05.06-.07c0,0,0,0,0-.01l.04-.04s.01-.02.02-.03c0,0,.01-.02.02-.02.01-.01.02-.02.03-.03,0,0,0-.01.01-.02.01-.01.02-.03.03-.04h0s.03-.04.04-.06c0,0,0,0,0,0,.01-.02.03-.03.04-.05,0,0,0,0,0,0,.01-.02.03-.03.04-.05,0,0,0,0,0,0,.34-.41.68-.82,1.02-1.23,0,0,0,0,0,0,.01-.02.03-.03.04-.05,0,0,0,0,0,0,.01-.02.03-.03.04-.05,0,0,0,0,0,0,.01-.02.03-.03.04-.05,0,0,0,0,0,0,.01-.02.03-.03.04-.05,0,0,0,0,0,0,.01-.01.03-.03.04-.04,0,0,0,0,0-.01.01-.01.02-.03.04-.04,0,0,0,0,.01-.01.01-.01.02-.03.03-.04,0,0,0-.01.01-.02.01-.01.02-.03.03-.04,0,0,.01-.01.02-.02,0,0,.02-.02.02-.03l.02-.03s.01-.01.02-.02c0-.01.02-.02.03-.03,0,0,.01-.01.02-.02,0-.01.02-.02.03-.03,0,0,.01-.02.02-.02.02-.03.05-.05.07-.08,0,0,0,0,0,0,.01-.02.03-.03.04-.05,0,0,0,0,0,0,.01-.02.03-.03.04-.05h0c.26-.31.53-.61.8-.92l-5.99-5.31h0Zm-4.89,5.92c-.97,1.26-1.93,2.57-2.84,3.87l6.56,4.6c.85-1.22,1.73-2.41,2.63-3.59l-6.35-4.88h0Zm-4.46,6.25c-.88,1.33-1.74,2.69-2.56,4.06l6.87,4.12c.14-.24.29-.48.43-.71h0s.02-.04.04-.06c0,0,0,0,0,0,.01-.02.02-.04.03-.06,0,0,0,0,0,0,.01-.02.02-.04.04-.06h0s.05-.08.07-.12c0,0,0,0,0,0,.01-.02.02-.04.03-.05,0,0,0,0,0,0,.01-.02.02-.04.03-.05,0,0,0,0,0,0,.01-.02.02-.03.03-.05,0,0,0,0,0,0,.01-.02.02-.04.03-.05,0,0,0,0,0,0,.01-.02.02-.03.03-.05,0,0,0,0,0,0,.01-.02.02-.03.03-.05,0,0,0,0,0,0,.01-.02.02-.03.03-.05,0,0,0,0,0-.01.01-.02.02-.03.03-.05h0s.02-.04.03-.06c0,0,0,0,0-.01.01-.02.02-.03.03-.05,0,0,0,0,0,0,.01-.02.02-.03.03-.05,0,0,0,0,0-.01.01-.02.02-.03.03-.05,0,0,0,0,0-.01,0-.01.02-.03.03-.05,0,0,0-.01,0-.02.01-.02.02-.03.03-.04,0,0,0-.01.01-.02,0-.01.02-.03.03-.04,0,0,0-.01.01-.02,0-.01.02-.03.03-.04,0,0,0-.01,0-.02,0-.01.02-.03.03-.04,0,0,0,0,0-.01.01-.02.02-.03.03-.04,0,0,0,0,0-.01,0-.01.02-.03.03-.04,0,0,0-.01.01-.02.01-.02.02-.03.03-.04,0,0,0-.01,0-.02,0-.01.02-.03.03-.05,0,0,0,0,0-.01,0-.01.02-.03.03-.04,0,0,0,0,0-.01,0-.01.02-.03.03-.04,0,0,0,0,0-.01.01-.02.02-.03.03-.05,0,0,0,0,0-.01.01-.02.02-.03.03-.05,0,0,0,0,0-.01.01-.02.02-.03.03-.05,0,0,0,0,0-.01.01-.02.02-.03.03-.05,0,0,0,0,0-.01.01-.02.02-.03.03-.05,0,0,0,0,0,0,.01-.02.02-.03.03-.05,0,0,0,0,0,0,.01-.02.02-.03.03-.05,0,0,0,0,0-.01.01-.02.02-.03.03-.05,0,0,0,0,0-.01.01-.02.02-.03.03-.05,0,0,0,0,0,0,.01-.02.02-.04.03-.05,0,0,0,0,0,0,.02-.04.05-.08.07-.11,0,0,0,0,0,0,.01-.02.02-.04.04-.06,0,0,0,0,0,0,.01-.02.02-.04.04-.06,0,0,0,0,0,0,.13-.19.25-.39.38-.58l-6.68-4.42h0Zm-4.01,6.55c-.78,1.39-1.55,2.81-2.27,4.23l7.14,3.63h0c.45-.89.92-1.77,1.39-2.65h0s.02-.04.03-.06t0,0c.03-.06.07-.12.1-.18,0,0,0,0,0,0,.01-.02.02-.04.03-.06,0,0,0,0,0,0,0-.02.02-.04.03-.06,0,0,0,0,0,0,.01-.02.02-.04.03-.06,0,0,0,0,0,0,.03-.06.07-.12.1-.18,0,0,0,0,0,0,.01-.02.02-.04.03-.06,0,0,0,0,0,0,.11-.2.23-.4.34-.61l-6.97-3.94h0Zm-3.54,6.82c-.68,1.44-1.35,2.91-1.97,4.38l7.38,3.12c.58-1.37,1.18-2.72,1.82-4.06l-7.23-3.44h0Zm-3.05,7.05c-.58,1.48-1.14,3-1.65,4.51l7.58,2.58c.03-.1.07-.2.1-.3h0s.01-.04.02-.06c0,0,0-.01,0-.02,0-.01,0-.02.01-.03,0-.01,0-.02.01-.04,0,0,0-.02,0-.03,0-.02,0-.03.01-.04,0,0,0-.02,0-.02,0-.01.01-.03.02-.04,0,0,0-.01,0-.02,0-.02.01-.03.02-.05h0s.01-.05.02-.07c0,0,0,0,0,0,0-.02.01-.04.02-.06,0,0,0,0,0,0,0-.02.01-.04.02-.06,0,0,0,0,0,0,.26-.74.53-1.48.81-2.22,0,0,0,0,0,0,0-.02.02-.04.02-.06,0,0,0,0,0,0,0-.02.02-.04.02-.06,0,0,0,0,0,0,0-.02.02-.04.02-.06,0,0,0,0,0,0,0-.02.01-.04.02-.06,0,0,0,0,0-.01,0-.02.01-.03.02-.05,0,0,0-.01,0-.02,0-.02.01-.03.02-.05,0,0,0-.01,0-.02,0-.01,0-.02.01-.04,0-.01,0-.02.01-.03,0,0,0-.02.01-.03,0-.02.01-.03.02-.05,0,0,0-.01,0-.02.07-.18.14-.36.21-.54l-7.46-2.92h0Zm-2.54,7.25c-.47,1.52-.92,3.08-1.33,4.62l7.74,2.04c.38-1.44.79-2.86,1.23-4.28l-7.65-2.38h0Zm-2.02,7.41c-.36,1.55-.7,3.13-1,4.7l7.87,1.49c.05-.26.1-.51.15-.77h0s0-.03,0-.04h0s0-.02,0-.04h0s0-.02,0-.03c0,0,0,0,0-.01,0,0,0-.01,0-.02,0-.01,0-.02,0-.04,0,0,0,0,0-.01,0,0,0-.02,0-.02,0,0,0,0,0-.01,0,0,0-.02,0-.03,0,0,0,0,0,0,0,0,0-.02,0-.03,0,0,0,0,0,0,0,0,0-.02,0-.03,0,0,0,0,0,0,.15-.77.32-1.54.49-2.31,0,0,0,0,0,0,0-.02.01-.05.02-.07h0c.02-.09.04-.18.06-.27h0c.05-.2.09-.41.14-.61l-7.8-1.83h0Zm-1.49,7.54c-.25,1.57-.48,3.17-.66,4.76l7.96.93c.07-.63.15-1.27.24-1.9,0,0,0,0,0,0,0,0,0-.02,0-.03h0s0-.03,0-.04c0,0,0,0,0,0,0,0,0-.02,0-.03,0,0,0,0,0,0,0-.04.01-.08.02-.13h0s0-.02,0-.03c0,0,0,0,0-.01,0,0,0-.01,0-.02,0,0,0-.01,0-.02,0,0,0-.01,0-.02,0,0,0,0,0-.01,0,0,0-.01,0-.02,0,0,0,0,0-.01,0-.04.01-.08.02-.12,0,0,0,0,0-.01,0,0,0-.01,0-.02,0,0,0,0,0-.01,0,0,0-.01,0-.02,0,0,0-.01,0-.02,0,0,0-.01,0-.02,0,0,0-.01,0-.02,0,0,0-.01,0-.02,0,0,0,0,0-.01,0,0,0-.02,0-.02,0,0,0,0,0,0,0-.02,0-.04,0-.06,0,0,0,0,0,0,0,0,0-.02,0-.03,0,0,0,0,0,0,0,0,0-.01,0-.02,0,0,0,0,0-.01,0,0,0-.01,0-.02,0,0,0-.01,0-.02,0,0,0-.02,0-.02,0,0,0,0,0-.01,0,0,0-.02,0-.03,0,0,0,0,0,0,0-.05.02-.11.02-.16,0,0,0,0,0,0,0,0,0-.02,0-.03,0,0,0,0,0,0,0,0,0-.02,0-.03,0,0,0,0,0,0,.07-.44.13-.89.21-1.33l-7.91-1.28h0Zm-.96,7.62c-.14,1.58-.25,3.2-.33,4.79l8,.37c.03-.72.07-1.45.12-2.16,0,0,0,0,0,0,0-.01,0-.02,0-.03,0,0,0,0,0-.01,0,0,0-.02,0-.03,0,0,0,0,0-.02v-.02s0-.01,0-.02c0,0,0-.01,0-.02,0-.04,0-.08,0-.13,0,0,0,0,0,0,0-.01,0-.02,0-.03,0,0,0,0,0,0,0-.01,0-.02,0-.03,0,0,0,0,0,0,.04-.63.1-1.27.15-1.9,0,0,0,0,0,0,0,0,0-.02,0-.02h0s-7.98-.73-7.98-.73H.44Zm-.42,7.66c-.01.74-.02,1.47-.02,2.21,0,.86.01,1.72.03,2.58l8.01-.19c0-.2,0-.4-.01-.59h0s0-.02,0-.03c0,0,0-.01,0-.02,0,0,0-.01,0-.02,0,0,0-.02,0-.02,0,0,0,0,0-.01,0-.01,0-.02,0-.03h0s0-.03,0-.04h0c0-.43-.01-.85-.01-1.27h0s0-.03,0-.04h0s0-.03,0-.04h0v-.04s0,0,0-.01v-.03h0s0-.03,0-.04h0v-.04h0s0-.03,0-.04v-.04h0v-.05h0v-.06h0s0-.05,0-.07h0v-.06s0-.01,0-.02v-.05s0-.01,0-.02c0-.01,0-.02,0-.04v-.02s0-.03,0-.05v-.03s0-.02,0-.03c0-.02,0-.03,0-.05,0,0,0-.01,0-.02,0-.01,0-.02,0-.03h0s0-.05,0-.08h0c0-.45,0-.89.02-1.34,0-.01,0-.02,0-.03,0,0,0-.02,0-.02,0-.02,0-.04,0-.05,0,0,0,0,0,0l-8.01-.16H.02Zm8.11,7.28l-8,.4c.08,1.59.19,3.2.34,4.79l7.97-.74c-.03-.34-.06-.69-.09-1.03,0,0,0,0,0,0,0,0,0-.02,0-.03,0,0,0,0,0,0,0-.01,0-.02,0-.03,0,0,0-.01,0-.02,0,0,0-.02,0-.02,0,0,0-.02,0-.03,0,0,0,0,0,0,0-.01,0-.03,0-.04h0s0-.03,0-.04h0s0-.03,0-.04h0c-.08-1.05-.15-2.09-.2-3.15h0Zm.6,7.09l-7.95.95c.19,1.58.42,3.18.68,4.75l7.9-1.3c-.24-1.46-.45-2.93-.63-4.41h0Zm1.1,7.03l-7.86,1.51c.3,1.57.64,3.15,1.01,4.7l7.79-1.86c-.11-.45-.21-.89-.31-1.34h0s0-.03,0-.04h0s-.01-.05-.02-.08c0,0,0,0,0,0,0,0,0-.02,0-.03,0,0,0-.02,0-.02,0,0,0-.01,0-.02,0,0,0-.01,0-.02,0,0,0,0,0-.01,0,0,0-.02,0-.02h0s0-.03,0-.04c0,0,0,0,0,0-.2-.9-.39-1.81-.56-2.72h0Zm1.59,6.94l-7.74,2.07c.41,1.54.86,3.09,1.34,4.61l7.64-2.41c-.21-.68-.42-1.37-.62-2.06,0,0,0,0,0,0,0-.02-.01-.04-.02-.06,0,0,0,0,0,0,0-.02-.01-.05-.02-.06,0,0,0,0,0,0,0-.02-.01-.04-.02-.06,0,0,0,0,0,0,0-.02-.01-.04-.02-.06,0,0,0,0,0-.01l-.02-.06h0s-.01-.05-.02-.07h0s-.01-.05-.02-.07c0,0,0,0,0-.01,0-.02,0-.03-.01-.05v-.02s-.01-.03-.02-.05c0,0,0-.01,0-.02,0-.02,0-.03-.01-.05,0,0,0-.01,0-.02,0-.02,0-.03-.01-.05,0,0,0-.02,0-.03,0-.01,0-.02,0-.03,0-.01,0-.02-.01-.04,0,0,0-.02,0-.03,0-.01,0-.03-.01-.04,0,0,0-.02,0-.03,0-.01,0-.02,0-.03,0,0,0-.02,0-.03,0-.02,0-.03-.01-.05,0,0,0-.01,0-.01,0-.02-.01-.04-.02-.06,0,0,0,0,0-.01,0-.02-.01-.04-.02-.07h0c-.02-.07-.03-.13-.05-.19h0s-.01-.05-.02-.08h0c-.07-.26-.14-.51-.21-.77h0Zm2.08,6.81l-7.57,2.61c.52,1.51,1.08,3.02,1.67,4.51l7.45-2.94c-.54-1.38-1.06-2.77-1.54-4.17h0Zm2.56,6.64l-7.37,3.14c.62,1.47,1.29,2.94,1.98,4.38l7.22-3.46c-.21-.44-.42-.88-.62-1.32,0,0,0,0,0,0,0-.02-.02-.04-.03-.06,0,0,0,0,0,0,0-.02-.02-.04-.03-.06,0,0,0,0,0,0,0-.02-.02-.04-.03-.06,0,0,0,0,0,0,0-.02-.02-.03-.02-.05,0,0,0,0,0-.01,0-.02-.02-.03-.02-.05,0,0,0-.01,0-.02,0-.02-.01-.03-.02-.05,0,0,0-.01,0-.02,0-.01-.01-.03-.02-.04,0,0,0-.02-.01-.02,0-.01,0-.02-.01-.03,0-.01-.01-.02-.02-.04,0,0,0-.02-.01-.02,0-.02-.01-.03-.02-.05,0,0,0-.01,0-.02,0-.02-.02-.04-.03-.06,0,0,0,0,0,0-.31-.68-.61-1.37-.9-2.06h0Zm3.02,6.44l-7.13,3.65c.73,1.42,1.5,2.84,2.29,4.22l6.96-3.97s0,0,0-.01c0-.01-.01-.02-.02-.04,0-.01-.01-.02-.02-.03,0,0,0-.02-.01-.02,0-.02-.02-.03-.03-.05,0,0,0-.01,0-.01-.5-.88-.99-1.77-1.46-2.67h0s-.02-.04-.03-.06c0,0,0,0,0,0,0-.02-.02-.04-.03-.05,0,0,0,0,0-.01l-.02-.03s-.01-.03-.02-.04c0,0,0-.02-.01-.02,0-.01-.01-.03-.02-.04,0,0,0-.01-.01-.02,0-.01-.01-.03-.02-.04,0,0,0,0,0-.01,0-.02-.02-.03-.03-.05,0,0,0,0,0-.01-.01-.02-.02-.04-.03-.05,0,0,0,0,0,0-.01-.02-.02-.04-.03-.06,0,0,0,0,0,0-.1-.18-.19-.37-.29-.56h0Zm3.47,6.21l-6.85,4.15c.83,1.36,1.69,2.73,2.58,4.05l6.66-4.45c-.33-.5-.66-1-.99-1.51,0,0,0,0,0,0-.01-.02-.02-.04-.04-.06,0,0,0,0,0,0-.01-.02-.02-.03-.03-.05,0,0,0,0,0,0-.01-.02-.02-.03-.03-.05h0s-.02-.04-.03-.06c0,0,0,0,0,0-.01-.02-.02-.03-.03-.05,0,0,0,0,0,0-.01-.02-.02-.03-.03-.05,0,0,0,0,0-.01-.01-.02-.02-.03-.03-.05,0,0,0,0,0-.01-.01-.02-.02-.03-.03-.05,0,0,0,0,0-.01-.01-.02-.02-.03-.03-.05,0,0,0,0,0-.01,0-.01-.02-.03-.03-.04,0,0,0,0,0-.01,0-.01-.02-.03-.03-.04,0,0,0,0,0-.01,0-.01-.02-.03-.03-.04,0,0,0-.01-.01-.02-.01-.02-.02-.03-.03-.04,0,0,0-.01-.01-.02,0-.01-.02-.03-.03-.04,0,0,0-.01-.01-.02-.01-.02-.02-.03-.03-.04,0,0,0,0,0-.01,0-.01-.02-.03-.02-.04,0,0,0-.01-.01-.02,0-.01-.02-.03-.03-.04,0,0,0-.01,0-.01,0-.01-.02-.03-.03-.04,0,0,0-.01-.01-.02-.01-.02-.02-.03-.03-.04,0,0,0-.01-.01-.02,0-.01-.02-.03-.03-.04,0,0,0-.01-.01-.02,0-.01-.02-.03-.02-.04,0,0,0-.01-.01-.02,0-.01-.01-.02-.02-.03,0,0-.01-.02-.02-.02,0-.01-.01-.02-.02-.04,0,0,0-.01-.01-.02,0-.01-.02-.03-.03-.04,0,0,0-.01-.01-.02-.01-.02-.02-.03-.03-.04,0,0,0-.01-.01-.02,0-.01-.02-.03-.03-.04,0,0,0-.01-.01-.02,0-.01-.02-.03-.03-.04,0,0,0-.01-.01-.02,0-.01-.02-.02-.02-.04,0,0,0-.01-.01-.02,0-.01-.02-.03-.02-.04,0,0,0-.01-.01-.02,0-.01-.02-.03-.03-.04,0,0,0-.01-.01-.02,0-.02-.02-.03-.03-.04,0,0,0-.01-.01-.02,0-.01-.02-.03-.03-.04,0,0,0-.01-.01-.02,0-.01-.02-.03-.02-.04,0,0,0-.01-.01-.02,0-.01-.02-.03-.02-.04,0,0,0-.01-.01-.02,0-.02-.02-.03-.03-.04,0,0,0-.01,0-.02,0-.01-.02-.03-.03-.05,0,0,0-.01,0-.02,0-.02-.02-.03-.03-.05,0,0,0-.01,0-.02,0-.01-.02-.03-.03-.05,0,0,0,0,0,0h0Zm3.9,5.95l-6.54,4.62c.92,1.3,1.88,2.6,2.85,3.86l6.33-4.9c-.58-.75-1.15-1.51-1.71-2.27,0,0,0,0,0,0-.01-.02-.02-.03-.04-.05,0,0,0,0,0,0-.01-.02-.02-.03-.03-.05,0,0,0,0,0-.01,0-.01-.02-.03-.03-.04,0,0,0,0-.01-.01-.01-.02-.02-.02-.03-.04,0,0,0-.01-.01-.02,0-.01-.02-.02-.02-.03,0,0-.01-.02-.02-.03,0,0-.01-.02-.02-.03,0-.01-.02-.02-.03-.04,0,0-.01-.01-.01-.02-.02-.03-.04-.06-.06-.09,0,0,0,0,0,0-.01-.02-.03-.04-.04-.06h0c-.18-.26-.37-.52-.55-.77h0Zm4.31,5.67l-6.2,5.07c1.01,1.23,2.06,2.46,3.12,3.65l5.97-5.33c-.05-.06-.1-.11-.15-.17,0,0-.01-.01-.02-.02,0,0-.02-.02-.02-.03-.01-.01-.02-.02-.03-.03,0,0,0,0-.01-.01-.01-.01-.03-.03-.04-.04,0,0,0,0,0,0-.01-.01-.03-.03-.04-.05,0,0,0,0,0,0-.01-.02-.03-.03-.04-.05,0,0,0,0,0,0-.54-.61-1.06-1.22-1.59-1.84,0,0,0,0,0,0-.01-.02-.03-.03-.04-.05,0,0,0,0,0,0-.01-.01-.03-.03-.04-.04,0,0,0,0,0-.01-.01-.01-.02-.03-.04-.04,0,0,0,0-.01-.01-.01-.01-.02-.02-.03-.03,0,0-.01-.02-.02-.03,0,0-.01-.02-.02-.02,0-.01-.02-.02-.03-.03,0,0,0-.01-.02-.02-.01-.02-.03-.03-.04-.05h0c-.21-.26-.42-.51-.63-.77h0Zm4.69,5.35l-5.83,5.49c1.09,1.16,2.22,2.31,3.37,3.42l5.59-5.74h0s-.03-.03-.04-.04c0,0,0,0-.01-.01-.01-.01-.03-.02-.04-.04,0,0,0,0-.01-.01-.01-.01-.03-.03-.04-.04,0,0-.01-.01-.02-.02,0,0-.02-.02-.03-.03,0,0-.02-.02-.03-.02,0,0-.01-.01-.02-.02,0,0-.02-.02-.03-.03,0,0-.01-.01-.02-.02-.01-.01-.02-.02-.03-.03,0,0,0,0-.02-.02-.04-.04-.09-.09-.13-.13h0s-.03-.04-.05-.05h0s-.03-.04-.05-.05h0c-.28-.28-.55-.55-.83-.83h0s-.04-.04-.05-.05h0s-.03-.04-.05-.05h0s-.09-.09-.13-.14c0,0,0,0,0,0-.02-.02-.03-.03-.05-.05,0,0,0,0-.01-.01l-.04-.04s0,0-.01-.01c-.01-.01-.02-.02-.03-.04,0,0-.01-.01-.02-.02,0,0-.01-.01-.02-.02-.01-.01-.02-.02-.03-.03,0,0-.01-.01-.02-.02,0,0-.02-.02-.03-.03,0,0-.01-.01-.02-.02-.01-.01-.02-.02-.03-.03,0,0-.01-.01-.02-.02-.01-.01-.02-.02-.03-.03,0,0-.01-.01-.02-.02-.01-.01-.02-.02-.03-.03,0,0,0,0,0-.01-.01-.01-.03-.03-.04-.04,0,0,0,0,0,0-.02-.02-.03-.03-.04-.04,0,0,0,0,0,0-.01-.01-.03-.03-.04-.04,0,0,0,0,0,0-.3-.32-.61-.63-.91-.95h0Zm5.06,5.01l-5.43,5.88c1.17,1.08,2.38,2.15,3.6,3.18l5.17-6.12c-.57-.48-1.13-.96-1.68-1.45,0,0,0,0,0,0-.09-.08-.17-.15-.26-.23,0,0,0,0,0,0-.02-.01-.03-.03-.05-.04,0,0,0,0,0,0-.02-.01-.03-.03-.05-.04,0,0,0,0,0,0-.02-.01-.03-.03-.05-.04,0,0,0,0,0,0-.04-.03-.06-.06-.1-.09h0s-.03-.03-.05-.04c0,0,0,0,0,0-.02-.01-.03-.03-.05-.04,0,0,0,0,0,0-.01-.01-.03-.03-.04-.04,0,0,0,0,0,0-.02-.01-.03-.03-.04-.04,0,0,0,0,0,0-.01-.01-.03-.03-.05-.04,0,0,0,0,0,0-.01-.01-.03-.03-.04-.04,0,0,0,0,0,0-.01-.01-.03-.03-.04-.04,0,0,0,0,0,0-.02-.01-.03-.02-.04-.04,0,0,0,0-.01,0-.01-.01-.03-.03-.04-.04,0,0,0,0-.01,0-.01-.01-.03-.03-.04-.04,0,0,0,0-.01,0-.01-.01-.03-.03-.04-.04,0,0,0,0,0,0-.01-.01-.03-.03-.04-.04,0,0,0,0,0,0-.01-.01-.03-.03-.04-.04,0,0,0,0-.01-.01-.01-.01-.03-.02-.04-.04,0,0,0,0-.01-.01-.01-.01-.02-.02-.04-.03,0,0,0,0-.01-.01-.01-.01-.03-.02-.04-.03,0,0-.01,0-.02-.01,0,0-.03-.02-.03-.03,0,0-.01-.01-.02-.02,0,0-.02-.02-.03-.03,0,0-.02-.01-.02-.02-.01-.01-.02-.02-.03-.03,0,0-.01-.01-.02-.02-.01-.01-.02-.02-.03-.03,0,0-.01-.01-.02-.02,0,0-.02-.02-.03-.03l-.02-.02s-.02-.02-.03-.02c0,0,0,0-.01-.01h0Zm5.39,4.64l-5.01,6.25c1.24,1,2.53,1.98,3.81,2.92l4.73-6.46c-.37-.27-.73-.54-1.09-.81h0s-.04-.03-.06-.05h0s-.02-.02-.03-.03c-.01,0-.02-.01-.03-.02,0,0-.02-.01-.03-.02-.01,0-.02-.01-.03-.02,0,0-.02-.01-.03-.02-.01,0-.02-.02-.03-.02,0,0-.01-.01-.02-.02-.01,0-.03-.02-.04-.03h-.01s-.03-.03-.04-.04c0,0,0,0-.01,0-.02-.01-.03-.02-.05-.04,0,0,0,0,0,0-.02-.01-.03-.03-.05-.04,0,0,0,0,0,0-.66-.5-1.32-1.02-1.97-1.54h0Zm5.71,4.25l-4.56,6.59c1.31.91,2.66,1.8,4.01,2.64l4.26-6.78c-.3-.19-.61-.38-.91-.58h0s-.04-.03-.06-.04c0,0,0,0,0,0-.02-.01-.03-.02-.05-.03,0,0-.01,0-.02-.01,0,0-.02-.01-.03-.02-.01,0-.02-.02-.03-.02,0,0-.02-.01-.02-.02-.01,0-.02-.02-.04-.02h-.02s-.03-.03-.04-.04c0,0-.01,0-.02-.01-.01,0-.03-.02-.04-.03,0,0,0,0-.01,0-.02-.01-.03-.02-.05-.03,0,0,0,0-.01,0-.01,0-.03-.02-.05-.03,0,0,0,0-.01,0-.02-.01-.03-.02-.05-.03,0,0,0,0,0,0-.02-.01-.03-.02-.05-.03,0,0,0,0,0,0-.74-.48-1.47-.97-2.19-1.47h0Zm5.99,3.84l-4.08,6.89c1.37.81,2.78,1.61,4.18,2.36l3.77-7.06c-.74-.4-1.48-.8-2.21-1.22h0s-.04-.02-.06-.04c0,0,0,0-.02,0-.01,0-.03-.02-.04-.03,0,0-.01,0-.02-.01-.01,0-.03-.01-.04-.02,0,0-.02,0-.03-.01,0,0-.02-.01-.03-.02-.01,0-.02-.01-.03-.02,0,0-.01,0-.02-.01-.01,0-.03-.02-.04-.02,0,0-.01,0-.02-.01-.01,0-.03-.02-.05-.03,0,0,0,0-.01,0-.02,0-.03-.02-.05-.03,0,0,0,0,0,0-.02,0-.04-.02-.05-.03,0,0,0,0,0,0-.02,0-.04-.02-.06-.03,0,0,0,0,0,0-.02-.01-.04-.02-.05-.03,0,0,0,0,0,0-.02,0-.04-.02-.06-.03h0c-.32-.19-.64-.37-.96-.56h0Zm6.25,3.41l-3.59,7.16c1.43.71,2.89,1.41,4.34,2.06l3.27-7.31c-.07-.03-.14-.06-.21-.1h0s-.04-.02-.06-.03c0,0-.01,0-.02,0-.01,0-.03-.01-.04-.02,0,0-.02,0-.03-.01-.01,0-.02,0-.03-.01-.01,0-.03-.01-.04-.02,0,0-.01,0-.02,0-.02,0-.03-.01-.05-.02,0,0-.01,0-.02,0-.01,0-.03-.02-.05-.02,0,0,0,0-.01,0-.02,0-.04-.02-.05-.02,0,0,0,0,0,0-.02,0-.04-.02-.06-.03h0s-.04-.02-.06-.03c0,0,0,0,0,0-.02,0-.04-.02-.06-.03,0,0,0,0,0,0-.93-.42-1.85-.86-2.76-1.31,0,0,0,0,0,0-.02-.01-.04-.02-.06-.03,0,0,0,0,0,0-.02,0-.04-.02-.06-.03,0,0,0,0,0,0-.02,0-.04-.02-.05-.03,0,0,0,0-.01,0-.01,0-.03-.02-.05-.02,0,0-.01,0-.02-.01-.01,0-.03-.01-.04-.02,0,0-.02,0-.03-.01,0,0-.01,0-.02,0-.02,0-.04-.02-.05-.03h0s-.02-.01-.03-.02h0Zm6.47,2.96l-3.07,7.4c1.47.61,2.98,1.2,4.48,1.74l2.74-7.53c-.75-.27-1.5-.55-2.24-.84h0s-.05-.02-.07-.03h0s-.04-.02-.07-.03h0s-.07-.03-.11-.04h0s-.04-.02-.07-.03c0,0,0,0,0,0-.02,0-.04-.02-.06-.02h0s-.04-.02-.06-.03h0s-.05-.02-.07-.03h0s-.07-.03-.11-.04h0s-.04-.02-.07-.03h0s-.05-.02-.07-.03h0c-.37-.15-.75-.3-1.12-.46h0Zm6.67,2.49l-2.54,7.6c1.51.51,3.06.98,4.59,1.42l2.2-7.7c-.57-.16-1.14-.33-1.7-.5h0s-.05-.02-.07-.02h0c-.06-.02-.12-.04-.18-.06,0,0,0,0,0,0-.02,0-.04-.01-.07-.02h0s-.05-.02-.07-.02h0s-.07-.02-.11-.04h0s-.05-.01-.07-.02c0,0,0,0,0,0-.02,0-.04-.01-.07-.02h0c-.63-.2-1.25-.4-1.88-.61h0Zm6.83,2.01l-1.99,7.76c1.54.4,3.12.76,4.68,1.09l1.65-7.84c-.36-.08-.73-.15-1.09-.23h0s-.02,0-.03,0c0,0,0,0,0,0-.01,0-.02,0-.03,0h0c-1.06-.24-2.12-.49-3.17-.76h0Zm6.95,1.52l-1.44,7.88c1.57.29,3.16.54,4.74.76l1.09-7.93c-.87-.12-1.74-.25-2.61-.39,0,0,0,0-.01,0,0,0-.01,0-.02,0,0,0-.01,0-.02,0,0,0-.01,0-.02,0,0,0-.01,0-.02,0,0,0,0,0-.01,0,0,0-.02,0-.03,0h0s-.02,0-.04,0h0c-.54-.09-1.08-.18-1.61-.28h0Zm7.04,1.03l-.88,7.96c1.58.17,3.19.32,4.78.42l.53-7.99c-1.1-.07-2.2-.16-3.29-.27,0,0,0,0,0,0-.01,0-.02,0-.03,0,0,0,0,0-.01,0,0,0-.02,0-.02,0h-.02s-.01,0-.02,0c-.01,0-.02,0-.03,0h0s-.02,0-.03,0h0s-.02,0-.04,0h0c-.31-.03-.61-.06-.91-.1h0Zm7.1.53l-.32,8c1.47.06,2.95.09,4.42.09h.37s-.03-8.01-.03-8.01c-.03,0-.05,0-.08,0,0,0-.01,0-.02,0h-.01c-.08,0-.16,0-.24,0h-.07s-.04,0-.06,0h-.06s0,0-.01,0c-.02,0-.03,0-.05,0h-.01s-.03,0-.05,0h0s-.04,0-.05,0h-.02s-.03,0-.05,0h-.02s-.03,0-.04,0c0,0-.01,0-.02,0-.02,0-.03,0-.05,0,0,0-.01,0-.02,0-.01,0-.02,0-.04,0,0,0-.01,0-.02,0-.02,0-.03,0-.05,0,0,0-.02,0-.02,0-.01,0-.02,0-.03,0-.01,0-.02,0-.03,0-.01,0-.02,0-.04,0,0,0-.02,0-.03,0-.01,0-.02,0-.03,0-.01,0-.03,0-.04,0-.01,0-.02,0-.03,0,0,0-.02,0-.03,0-.01,0-.02,0-.03,0-.01,0-.03,0-.04,0,0,0-.01,0-.02,0-.02,0-.04,0-.06,0,0,0-.01,0-.02,0-.01,0-.02,0-.03,0,0,0-.01,0-.02,0-.02,0-.04,0-.06,0,0,0,0,0-.01,0-.01,0-.02,0-.04,0,0,0,0,0-.01,0-.02,0-.04,0-.07,0,0,0,0,0-.01,0-.51,0-1.03-.02-1.54-.03h0s-.08,0-.12,0c0,0,0,0,0,0-.04,0-.07,0-.11,0,0,0-.01,0-.02,0-.02,0-.03,0-.05,0-.01,0-.02,0-.03,0,0,0-.02,0-.03,0-.01,0-.02,0-.03,0-.01,0-.02,0-.03,0-.01,0-.03,0-.04,0h-.02s-.03,0-.05,0c0,0,0,0-.01,0-.01,0-.03,0-.05,0h0s-.04,0-.06,0c0,0,0,0,0,0-.17,0-.34-.01-.51-.02h0Zm11.56-.19c-1.47.11-2.95.18-4.44.23l.23,8.01c1.59-.05,3.2-.13,4.79-.24l-.58-7.99h0Zm7.08-.77c-.81.12-1.62.22-2.44.32,0,0,0,0,0,0,0,0-.02,0-.03,0,0,0,0,0-.01,0,0,0-.01,0-.02,0,0,0-.01,0-.02,0,0,0-.01,0-.02,0-.02,0-.05,0-.07,0,0,0,0,0,0,0-.01,0-.02,0-.03,0h0s-.02,0-.04,0h0c-.57.07-1.14.13-1.72.19l.79,7.97c1.59-.16,3.19-.35,4.77-.58l-1.14-7.93h0Zm7-1.26c-.71.15-1.43.3-2.15.44h0s-.02,0-.03,0c0,0,0,0-.01,0,0,0-.02,0-.02,0,0,0-.01,0-.02,0,0,0-.01,0-.02,0,0,0-.02,0-.02,0,0,0,0,0,0,0,0,0-.02,0-.03,0,0,0,0,0,0,0-.68.13-1.36.26-2.05.37l1.35,7.89c1.57-.27,3.16-.58,4.72-.92l-1.7-7.83h0Zm6.9-1.76c-1.18.35-2.37.67-3.57.97h0s-.1.03-.15.04c0,0,0,0,0,0,0,0-.02,0-.03,0h-.02s0,0-.01,0c0,0-.02,0-.02,0,0,0,0,0-.01,0h-.03s0,0,0,0c0,0-.02,0-.03,0,0,0,0,0,0,0-.13.03-.27.07-.4.1l1.91,7.78c1.55-.38,3.11-.8,4.64-1.25l-2.25-7.69h0Zm6.76-2.24s-.08.03-.13.05c0,0,0,0,0,0-.02,0-.04.01-.06.02,0,0,0,0-.01,0-.02,0-.04.01-.05.02,0,0,0,0-.01,0-.02,0-.03.01-.05.02,0,0,0,0-.01,0-.02,0-.03.01-.05.02,0,0-.01,0-.02,0-.02,0-.03.01-.04.02,0,0-.01,0-.02,0-.02,0-.03.01-.05.02,0,0-.02,0-.02,0-.02,0-.03.01-.04.02,0,0-.02,0-.02,0-.01,0-.02,0-.03.01-.01,0-.02,0-.04.01,0,0-.02,0-.03,0-.01,0-.03,0-.04.01,0,0-.02,0-.03,0-.01,0-.03,0-.04.01,0,0-.02,0-.03,0-.01,0-.02,0-.03.01,0,0-.02,0-.03.01-.01,0-.03,0-.04.01,0,0-.01,0-.02,0-.02,0-.03.01-.05.02,0,0-.01,0-.02,0-.02,0-.03.01-.05.02,0,0-.01,0-.02,0-.02,0-.04.01-.05.02,0,0-.01,0-.02,0-.01,0-.02,0-.03.01,0,0,0,0-.01,0-.02,0-.04.01-.05.02,0,0-.01,0-.02,0-.02,0-.04.01-.05.02,0,0-.01,0-.02,0-.02,0-.03.01-.05.02,0,0-.01,0-.02,0-.02,0-.03.01-.05.02,0,0-.01,0-.02,0-.01,0-.02,0-.03.01,0,0-.02,0-.02,0-.02,0-.03.01-.05.02,0,0-.02,0-.03,0-.01,0-.03,0-.04.01,0,0-.02,0-.02,0-.01,0-.03.01-.04.01,0,0-.02,0-.03,0,0,0-.02,0-.03,0-.01,0-.03.01-.04.01,0,0-.02,0-.03,0-.02,0-.03,0-.04.01,0,0-.02,0-.02,0-.01,0-.02,0-.04.01-.01,0-.02,0-.03.01-.01,0-.02,0-.03.01,0,0-.02,0-.03,0-.01,0-.03,0-.04.01,0,0-.01,0-.02,0-.02,0-.03.01-.05.02,0,0-.01,0-.02,0-.02,0-.03.01-.05.02,0,0-.01,0-.02,0-.02,0-.03.01-.05.02,0,0,0,0-.01,0-.02,0-.03.01-.05.02,0,0,0,0-.01,0-.02,0-.04.01-.05.02h-.01s-.04.02-.06.02c0,0,0,0-.01,0-.02,0-.04.01-.06.02,0,0,0,0,0,0-.02,0-.04.01-.06.02,0,0,0,0,0,0-.04.01-.09.03-.13.04,0,0,0,0,0,0-.02,0-.04.01-.06.02t0,0c-.46.16-.92.31-1.39.46l2.45,7.62c1.52-.49,3.04-1.02,4.54-1.57l-2.79-7.51h0Zm6.58-2.72c-.17.08-.34.15-.51.23,0,0,0,0,0,0-.02,0-.04.02-.06.03,0,0,0,0,0,0-.02,0-.04.02-.06.03,0,0,0,0,0,0-.04.02-.08.04-.12.06,0,0,0,0,0,0-.02,0-.04.02-.06.03,0,0,0,0,0,0-.02,0-.04.02-.06.02,0,0,0,0-.01,0-.02,0-.03.02-.05.02,0,0,0,0-.01,0-.02,0-.04.02-.05.02,0,0,0,0,0,0-.02,0-.03.01-.05.02,0,0,0,0-.01,0-.02,0-.03.02-.05.02h-.01s-.03.02-.05.03c0,0-.01,0-.02,0-.01,0-.03.02-.05.02,0,0-.01,0-.02,0-.02,0-.03.01-.05.02,0,0,0,0-.01,0-.01,0-.03.01-.04.02h-.02s-.03.02-.04.03c0,0-.01,0-.02,0-.01,0-.03.01-.04.02,0,0-.02,0-.02.01-.01,0-.03.01-.04.02,0,0-.02,0-.03.01-.01,0-.02,0-.03.01-.01,0-.02.01-.04.02,0,0-.02,0-.03.01-.01,0-.03.01-.04.02,0,0-.01,0-.02.01-.02,0-.03.01-.05.02,0,0-.01,0-.02,0-.01,0-.02,0-.03.01-.01,0-.02.01-.04.02-.01,0-.02,0-.03.01,0,0-.01,0-.02,0-.02,0-.04.02-.05.02,0,0,0,0-.01,0l-.06.03s0,0,0,0c-.02,0-.04.02-.06.03h0c-.06.03-.12.05-.18.08h0s-.05.02-.07.03h0c-.56.24-1.13.47-1.7.7l2.99,7.43c1.48-.59,2.96-1.23,4.42-1.89l-3.32-7.29h0Zm6.37-3.17c-.57.31-1.14.61-1.72.91,0,0,0,0,0,0-.02.01-.04.02-.06.03,0,0,0,0,0,0-.02.01-.03.02-.05.03,0,0,0,0-.01,0-.02,0-.03.02-.05.03,0,0,0,0-.01,0-.01,0-.03.02-.05.02,0,0-.01,0-.02,0-.01,0-.03.01-.04.02,0,0-.02,0-.02.01-.01,0-.02.01-.03.02,0,0-.02,0-.03.01-.01,0-.02.01-.03.02,0,0-.02,0-.02.01-.01,0-.03.01-.04.02,0,0-.02,0-.03.01,0,0-.02.01-.03.02-.01,0-.02.01-.03.02,0,0-.01,0-.02,0-.02,0-.03.02-.05.02,0,0,0,0-.01,0-.02,0-.04.02-.05.03,0,0,0,0,0,0-.41.21-.81.41-1.22.61,0,0-.01,0-.02,0-.02,0-.03.02-.05.02,0,0-.01,0-.02.01-.01,0-.02.01-.04.02-.01,0-.02.01-.03.02,0,0-.01,0-.02.01-.01,0-.03.01-.04.02,0,0-.01,0-.02,0-.02,0-.03.01-.05.02,0,0,0,0,0,0l3.51,7.2c1.43-.7,2.87-1.44,4.27-2.2l-3.82-7.04h0Zm6.13-3.62c-.98.62-1.96,1.23-2.96,1.82,0,0,0,0,0,0-.02.01-.03.02-.05.03h0s-.03.03-.05.04c0,0-.01,0-.02,0-.01,0-.03.01-.04.02,0,0-.02.01-.03.02,0,0-.02.01-.03.02-.02,0-.03.02-.05.03,0,0,0,0-.01,0-.19.11-.37.22-.56.33l4.01,6.93c1.38-.8,2.76-1.64,4.1-2.49l-4.31-6.75h0Zm5.86-4.04c-.64.48-1.29.95-1.94,1.41h0c-.07.05-.14.1-.21.15,0,0,0,0,0,0l-.05.04s0,0,0,0c-.02.01-.03.02-.05.04,0,0,0,0-.01,0-.02.01-.03.02-.05.03,0,0,0,0-.01,0-.01,0-.03.02-.04.03,0,0-.02.01-.02.02,0,0-.02.01-.03.02,0,0-.02.01-.03.02-.01,0-.02.01-.03.02,0,0-.02.01-.02.02l-.03.02s-.02.01-.03.02c0,0-.02.01-.03.02-.01,0-.02.01-.03.02,0,0-.01,0-.02.01-.01,0-.03.02-.04.03,0,0-.01,0-.02.01-.01,0-.03.02-.04.03h-.01s-.03.03-.05.04c0,0,0,0-.01,0-.02.01-.03.02-.05.03,0,0,0,0,0,0-.25.17-.49.34-.74.51l4.49,6.63c1.32-.89,2.64-1.83,3.92-2.78l-4.77-6.43h0Zm5.56-4.44c-.41.35-.83.7-1.24,1.05h0s-.03.03-.05.05c0,0,0,0,0,0-.02.01-.03.03-.05.04,0,0,0,0-.01,0-.01.01-.03.02-.04.03,0,0-.01.01-.02.01,0,0-.02.01-.02.02,0,0-.02.02-.03.02,0,0-.02.01-.03.02,0,0-.02.01-.02.02-.01,0-.02.02-.03.03,0,0-.02.01-.02.02-.01,0-.02.02-.03.02,0,0-.02.01-.03.02,0,0-.02.01-.02.02,0,0-.02.02-.03.03,0,0-.01.01-.02.02-.01.01-.03.02-.04.03,0,0-.01,0-.02.01-.01.01-.02.02-.04.03,0,0,0,0-.01.01-.01.01-.03.02-.04.03,0,0,0,0-.01,0-.01.01-.03.02-.04.03,0,0,0,0,0,0-.01,0-.03.02-.04.03,0,0,0,0,0,0-.01.01-.03.02-.04.04,0,0,0,0-.01,0-.01.01-.03.02-.05.04,0,0,0,0,0,0-.01.01-.03.03-.05.04,0,0,0,0,0,0-.02.01-.03.02-.05.04,0,0,0,0,0,0-.03.03-.07.06-.1.08,0,0,0,0,0,0-.02.01-.03.03-.05.04h0s-.03.03-.05.04c0,0,0,0,0,0-.02.01-.04.03-.05.04,0,0,0,0,0,0-.32.26-.65.52-.98.78l4.94,6.3c1.25-.98,2.5-2.01,3.71-3.04l-5.21-6.08h0Zm5.24-4.82c-.07.07-.14.14-.21.21,0,0,0,0-.01.01-.01.01-.02.02-.04.03,0,0-.02.01-.02.02,0,0-.02.02-.03.02,0,0-.02.02-.03.03,0,0,0,0-.01.01-.01.01-.03.02-.04.04,0,0,0,0-.01.01-.01.01-.03.03-.04.04,0,0,0,0,0,0-.01.01-.03.03-.04.04,0,0,0,0,0,0-.9.87-1.81,1.73-2.74,2.57l5.37,5.94c1.18-1.07,2.36-2.18,3.49-3.3l-5.62-5.7h0Zm4.89-5.17c-.21.24-.43.49-.64.72,0,0,0,0,0,0-.01.02-.03.03-.04.05,0,0,0,0,0,0-.01.01-.03.03-.04.04,0,0,0,0-.01.01-.01.01-.02.03-.04.04,0,0,0,0-.01.01-.01.01-.02.03-.03.04,0,0,0,.01-.01.02-.01.01-.02.02-.03.03,0,0-.01.01-.02.02,0,0-.02.02-.03.03,0,0-.01.01-.02.02-.01.01-.02.02-.03.03,0,0-.01.01-.02.02-.01.01-.02.02-.03.03,0,0-.01.01-.02.02-.01.01-.02.02-.03.03,0,0-.01.01-.02.02,0,0-.02.02-.02.02,0,.01-.02.02-.03.03,0,0-.01.01-.02.02-.01.01-.02.02-.03.03,0,0-.01.01-.02.02-.01.01-.02.02-.03.03,0,0-.01.01-.02.02,0,0-.01.02-.02.02,0,0-.02.02-.02.03,0,0-.02.02-.03.03,0,0-.01.01-.01.02-.01.01-.02.02-.03.04,0,0,0,.01-.02.02-.01.01-.02.02-.03.04,0,0-.01.01-.02.02-.01.01-.02.02-.03.03,0,0-.01.01-.02.02,0,.01-.02.02-.03.03,0,0-.01.01-.02.02,0,0-.01.02-.02.02,0,0-.02.02-.03.03,0,0-.01.01-.02.02-.01.01-.02.02-.03.03,0,0-.01.01-.02.02,0,0-.02.02-.02.03,0,0-.02.02-.02.03,0,0-.02.02-.02.03,0,0-.01.01-.02.02-.01.01-.02.02-.03.03,0,0,0,.01-.01.02-.01.01-.02.03-.04.04,0,0,0,0-.01.01-.01.01-.02.02-.04.04,0,0,0,0-.01.01-.01.01-.03.03-.04.04,0,0,0,0,0,0-.01.01-.03.03-.04.04,0,0,0,0,0,0-.02.02-.03.03-.04.05,0,0,0,0,0,0-.02.02-.03.03-.05.05,0,0,0,0,0,0-.02.02-.03.03-.05.05,0,0,0,0,0,0-.3.32-.6.64-.91.96l5.77,5.55c1.1-1.15,2.2-2.34,3.25-3.53l-6.01-5.29h0Zm4.51-5.5c-.08.1-.15.2-.23.29,0,0,0,0,0,0-.01.02-.03.03-.04.05,0,0,0,0,0,.01l-.03.04s0,.01-.01.02c-.01.01-.02.03-.03.04,0,0,0,.01-.01.02,0,0-.01.02-.02.03,0,.01-.02.02-.03.03,0,0-.01.02-.02.02,0,.01-.02.02-.03.03,0,0-.01.01-.02.02,0,.01-.02.02-.03.03,0,0-.01.01-.02.02,0,.01-.02.02-.02.03,0,0-.01.02-.02.02,0,0-.02.02-.03.03,0,0,0,.01-.01.02,0,.01-.02.03-.03.04,0,0,0,.01-.01.02,0,.01-.02.03-.03.04,0,0,0,.01-.01.02-.01.02-.02.03-.03.04,0,0,0,0-.01.01-.01.01-.02.03-.03.04,0,0,0,0,0,.01,0,.01-.02.03-.03.04,0,0,0,0,0,.01,0,.01-.02.03-.03.04,0,0,0,0,0,.01-.01.01-.02.03-.04.05,0,0,0,0,0,0-.01.01-.02.03-.04.04h0s-.02.04-.03.06c0,0,0,0,0,.01-.01.01-.02.03-.04.04,0,0,0,0,0,0-.01.01-.02.03-.04.05h0s-.02.03-.04.05c0,0,0,0,0,0-.01.01-.02.03-.04.05,0,0,0,0,0,.01-.01.01-.02.03-.04.04,0,0,0,0,0,.01-.01.01-.02.03-.04.04,0,0,0,0,0,0-.01.01-.02.03-.04.05,0,0,0,0,0,0,0,.01-.03.03-.04.04,0,0,0,0,0,0,0,.01-.02.03-.03.04,0,0,0,0,0,.01-.01.01-.02.03-.04.04,0,0,0,0,0,.01-.01.01-.02.03-.04.04,0,0,0,0,0,.01-.01.01-.02.03-.04.04h0s-.02.04-.04.06c0,0,0,0,0,0-.01.01-.02.03-.04.04,0,0,0,0,0,0-.01.02-.02.03-.04.04,0,0,0,0,0,0-.01.01-.02.03-.04.05h0s-.02.04-.03.05c0,0,0,0-.01.01-.01.01-.02.03-.03.04,0,0,0,0,0,.01-.01.01-.02.03-.04.04,0,0,0,0,0,0-.01.01-.02.03-.04.04,0,0,0,0,0,0-.01.01-.02.03-.03.04,0,0,0,0,0,.01-.01.01-.02.03-.04.04,0,0,0,0-.01.01-.01.01-.02.03-.03.04,0,0,0,0-.01.01-.01.01-.02.03-.04.04,0,0,0,0,0,.01-.01.01-.02.03-.04.04,0,0,0,0,0,.01-.01.01-.02.03-.03.04,0,0,0,0,0,0,0,.01-.02.03-.03.04,0,0,0,0,0,.01-.01.01-.02.03-.04.04,0,0,0,0,0,.01-.01.01-.02.03-.03.04,0,0,0,0-.01.01-.01.01-.02.03-.03.04,0,0,0,0-.01.01-.01.01-.02.03-.04.04,0,0,0,0,0,.01-.01.01-.02.03-.03.04,0,0,0,0,0,.01-.01.01-.02.03-.03.04,0,0,0,0,0,.01-.01.01-.02.03-.04.04,0,0,0,0,0,.01-.01.01-.02.03-.04.04,0,0,0,0,0,.01-.01.01-.02.03-.04.04,0,0,0,0,0,.01-.01.01-.02.03-.04.04,0,0,0,0,0,0-.01.01-.02.03-.04.04,0,0,0,0,0,0-.01.01-.02.03-.04.04,0,0,0,0,0,0-.01.01-.03.03-.04.05,0,0,0,0,0,0-.01.01-.02.03-.04.04,0,0,0,0,0,0l6.15,5.13c1.02-1.22,2.03-2.48,3-3.75l-6.37-4.86h0Zm4.12-5.81s-.06.09-.09.13c0,0,0,.01,0,.01l-.03.05s0,.01-.01.02c0,.01-.02.03-.03.04l-.02.02s-.01.02-.02.03c0,.01-.01.02-.02.04,0,0,0,.01-.01.02,0,.01-.02.03-.03.04,0,0,0,.01-.01.02,0,.01-.02.03-.03.04v.02s-.03.03-.04.05c0,0,0,0,0,0-.01.02-.02.03-.03.05,0,0,0,0,0,0-.01.02-.02.04-.03.05,0,0,0,0,0,0-.01.02-.02.03-.03.05,0,0,0,0,0,0-.01.02-.02.04-.03.05,0,0,0,0,0,0-.01.02-.02.04-.04.05,0,0,0,0,0,0-.65.96-1.31,1.91-1.99,2.85l6.49,4.69c.93-1.29,1.85-2.62,2.73-3.95l-6.69-4.4h0Zm3.7-6.08c-.12.22-.25.44-.38.66,0,0,0,0,0,0-.01.02-.02.03-.03.05,0,0,0,0,0,.01,0,.02-.02.03-.03.05,0,0,0,0,0,.01,0,.02-.02.03-.03.05h0s-.02.04-.02.06c0,0,0,.01-.01.02,0,.01-.01.02-.02.04,0,0,0,.02-.01.02,0,.01-.01.02-.02.03,0,0,0,.02-.01.02,0,.01-.01.02-.02.04,0,0-.01.02-.02.03,0,0-.01.02-.02.03,0,.01-.01.02-.02.04,0,0,0,.01,0,.01-.01.02-.02.03-.03.05,0,0,0,0,0,0-.01.02-.02.04-.04.06h0c-.49.85-1,1.7-1.52,2.53l6.81,4.22c.84-1.35,1.66-2.75,2.44-4.14l-6.99-3.92h0Zm3.26-6.33c-.63,1.34-1.3,2.67-1.99,3.98l7.09,3.73c.74-1.41,1.46-2.86,2.14-4.3l-7.24-3.41h0Zm2.8-6.54c-.54,1.38-1.1,2.76-1.7,4.11l7.33,3.22c.64-1.46,1.26-2.95,1.83-4.44l-7.47-2.89h0Zm2.33-6.72c-.2.65-.41,1.31-.62,1.95h0s-.02.05-.02.07h0s-.02.05-.02.08h0s-.02.07-.03.11c0,0,0,.01,0,.02,0,.02-.01.03-.02.05,0,0,0,.02,0,.02v.04s-.02.02-.02.03c0,0,0,.02,0,.03,0,.02,0,.03-.01.04,0,0,0,.02,0,.02,0,.02-.01.03-.02.05,0,0,0,.01,0,.02,0,.02-.01.03-.02.05,0,0,0,.01,0,.02,0,.02-.01.03-.02.05h0s-.01.05-.02.07c0,0,0,0,0,.01,0,.02-.01.04-.02.05,0,0,0,0,0,.01,0,.02-.01.04-.02.05,0,0,0,0,0,.01,0,.02-.01.04-.02.06,0,0,0,0,0,0,0,.02-.01.04-.02.06,0,0,0,0,0,0,0,.02-.01.04-.02.06,0,0,0,0,0,.01,0,.02-.01.04-.02.06,0,0,0,0,0,0,0,.02-.01.04-.02.06,0,0,0,0,0,0-.01.04-.03.08-.04.12,0,0,0,0,0,0,0,.02-.01.04-.02.06,0,0,0,0,0,0,0,.02-.01.04-.02.06,0,0,0,0,0,0,0,.02-.01.04-.02.06,0,0,0,0,0,0,0,.02-.01.04-.02.06,0,0,0,0,0,0,0,.02-.01.04-.02.06,0,0,0,0,0,0,0,.02-.01.04-.02.06h0s-.01.05-.02.07c0,0,0,0,0,.01,0,.02-.01.04-.02.05,0,0,0,0,0,.01,0,.02-.01.03-.02.05,0,0,0,.01,0,.02,0,.02,0,.03-.02.04,0,0,0,.01,0,.02,0,.02-.01.03-.02.05,0,0,0,.02,0,.02,0,.01-.01.03-.02.04,0,0,0,.02,0,.03,0,0,0,.02-.01.03,0,.01,0,.03-.01.04,0,0,0,.01,0,.02v.02s7.53,2.69,7.53,2.69c.54-1.5,1.05-3.04,1.51-4.56l-7.65-2.36h0Zm1.85-6.87c-.05.2-.09.39-.14.59h0s0,.02,0,.04h0s0,.03,0,.04c0,0,0,0,0,0,0,0,0,.02,0,.03,0,0,0,.01,0,.01,0,0,0,.01,0,.02,0,0,0,.01,0,.01,0,0,0,.01,0,.02,0,.02,0,.03-.01.05,0,0,0,0,0,0,0,.02-.01.05-.02.07,0,0,0,0,0,0,0,0,0,.02,0,.03,0,0,0,0,0,0,0,.01,0,.02,0,.03,0,0,0,0,0,0-.09.38-.19.76-.28,1.15,0,0,0,0,0,0,0,0,0,.02,0,.03,0,0,0,0,0,0,0,0,0,.02,0,.03,0,0,0,0,0,.01,0,0,0,.02,0,.02,0,0,0,0,0,0,0,0,0,.02,0,.03,0,0,0,0,0,0,0,0,0,.02,0,.03,0,0,0,0,0,.01,0,.02,0,.03-.01.05,0,0,0,0,0,0,0,0,0,.01,0,.02,0,0,0,.01,0,.02,0,0,0,.01,0,.02,0,0,0,.01,0,.02,0,0,0,0,0,.01,0,0,0,.02,0,.03,0,0,0,0,0,0,0,0,0,.02,0,.03h0s0,.03,0,.04h0c-.15.6-.31,1.2-.48,1.79l7.71,2.15c.43-1.54.83-3.1,1.19-4.66l-7.8-1.81h0Zm1.36-6.99c-.09.57-.19,1.15-.29,1.72h0s0,.02,0,.03c0,0,0,0,0,.01,0,0,0,.01,0,.02,0,0,0,.01,0,.02,0,0,0,.01,0,.02,0,0,0,.01,0,.02,0,0,0,.01,0,.02,0,0,0,.02,0,.02,0,0,0,0,0,.01,0,.01,0,.02,0,.03h0s-.01.08-.02.12h0c-.13.71-.26,1.42-.4,2.13h0s-.02.08-.02.11c0,0,0,.01,0,.02,0,0,0,.01,0,.02,0,0,0,.02,0,.03h0s0,.03,0,.04c0,0,0,0,0,0l7.85,1.6c.32-1.56.61-3.15.85-4.73l-7.91-1.25h0Zm.86-7.06c-.03.4-.07.81-.11,1.21,0,0,0,0,0,0,0,0,0,.02,0,.03h0s0,.03,0,.04c0,0,0,0,0,.01,0,.01,0,.01,0,.02,0,0,0,.01,0,.02,0,0,0,.02,0,.02,0,.01,0,.02,0,.04,0,0,0,0,0,.01v.03s0,.01,0,.02c0,0,0,.02,0,.02,0,0,0,0,0,.01,0,0,0,.02,0,.02,0,0,0,0,0,.01,0,0,0,.02,0,.02,0,0,0,0,0,.01,0,.01,0,.02,0,.03h0c-.1.95-.21,1.9-.33,2.84l7.94,1.04c.21-1.58.38-3.18.52-4.77l-7.98-.69h0Zm.37-7.11c0,.35-.01.7-.02,1.04,0,0,0,0,0,0,0,.01,0,.02,0,.03,0,0,0,0,0,.01,0,0,0,.01,0,.02,0,0,0,.01,0,.02,0,0,0,.01,0,.02,0,0,0,.01,0,.02,0,0,0,.01,0,.02,0,.01,0,.02,0,.04,0,0,0,0,0,0,0,.01,0,.02,0,.03,0,0,0,0,0,0,0,.01,0,.02,0,.03,0,0,0,0,0,0,0,.01,0,.02,0,.03h0c-.01.51-.03,1-.06,1.5h0s0,.08,0,.12h0s0,.03,0,.04c0,0,0,0,0,0,0,.01,0,.02,0,.03h0s0,.03,0,.04c0,0,0,0,0,0,0,0,0,.02,0,.03,0,0,0,0,0,.01,0,0,0,.02,0,.03,0,.01,0,.02,0,.03,0,0,0,.01,0,.02,0,0,0,.01,0,.02,0,0,0,.01,0,.02,0,0,0,.02,0,.02,0,0,0,.01,0,.02,0,0,0,.02,0,.02h0s0,.03,0,.04c0,0,0,0,0,.01-.02.37-.04.73-.06,1.1l7.99.48c.1-1.59.16-3.2.18-4.79l-8.01-.13h0Zm7.87-7.54l-8,.42c.02.42.04.84.06,1.26h0s0,.03,0,.04h0s0,.03,0,.04c0,0,0,0,0,0,0,.02,0,.05,0,.07,0,0,0,.02,0,.02,0,0,0,0,0,.01,0,.01,0,.01,0,.02,0,0,0,0,0,.01,0,0,0,.02,0,.03,0,0,0,0,0,0,0,.01,0,.02,0,.03h0c.03.77.05,1.54.06,2.32,0,0,0,0,0,.01,0,0,0,.01,0,.02,0,0,0,.01,0,.02,0,0,0,.01,0,.02,0,0,0,.01,0,.02,0,0,0,.01,0,.02,0,.01,0,.02,0,.03,0,0,0,0,0,0,0,.03,0,.05,0,.08h0c0,.12,0,.23,0,.34l8.01-.07c-.01-1.59-.06-3.21-.15-4.79h0Zm-.67-7.65l-7.95.98c.18,1.47.33,2.94.45,4.43l7.98-.63c-.13-1.59-.29-3.2-.48-4.78h0Zm-1.21-7.59l-7.86,1.54c.11.55.21,1.1.31,1.65h0s0,.02,0,.04h0s0,.03,0,.04h0s.01.08.02.12h0s0,.03,0,.04c0,0,0,0,0,0,0,0,0,.02,0,.03,0,0,0,0,0,.01,0,0,0,.02,0,.02,0,0,0,.01,0,.02,0,0,0,.01,0,.02s0,.01,0,.02c0,0,0,.01,0,.02,0,0,0,.02,0,.02,0,0,0,.01,0,.02,0,0,0,.01,0,.02h0s0,.05,0,.06c0,0,0,0,0,0,0,0,0,.01,0,.02,0,0,0,0,0,.01,0,0,0,.01,0,.02,0,0,0,0,0,.01,0,0,0,.02,0,.03,0,0,0,0,0,0,0,0,0,.02,0,.03,0,0,0,0,0,0,0,0,0,.02,0,.03,0,0,0,0,0,0,0,.05.02.09.02.13,0,0,0,0,0,0,0,0,0,.02,0,.03,0,0,0,0,0,0,0,0,0,.02,0,.03,0,0,0,0,0,0,0,.01,0,.02,0,.03,0,0,0,0,0,0,.01.08.03.16.04.24,0,0,0,0,0,0,0,.01,0,.02,0,.03,0,0,0,0,0,0,.01.07.02.14.03.2,0,0,0,0,0,0,0,0,0,.02,0,.03,0,0,0,0,0,0,0,0,0,.02,0,.03,0,0,0,0,0,0,0,0,0,.02,0,.03,0,0,0,0,0,.01,0,0,0,.02,0,.02,0,0,0,0,0,.01,0,0,0,.02,0,.03,0,0,0,0,0,0,0,.01,0,.02,0,.04,0,0,0,.02,0,.03,0,0,0,0,0,.01,0,0,0,.02,0,.02,0,0,0,.01,0,.02,0,0,0,.01,0,.02,0,0,0,0,0,.02,0,0,0,.02,0,.02,0,0,0,0,0,.01,0,0,0,.02,0,.03,0,0,0,0,0,0,0,.01,0,.02,0,.03h0c.05.3.09.6.14.9l7.92-1.19c-.24-1.58-.51-3.17-.82-4.73h0Zm-1.74-7.49l-7.73,2.09c.16.59.32,1.19.47,1.79,0,0,0,0,0,0,0,0,0,.02,0,.03,0,0,0,.01,0,.01,0,0,0,.02,0,.02h0s0,.03,0,.04t0,.01s0,.01,0,.02v.02s0,.01,0,.02c0,0,0,.01,0,.02v.02s.02.05.02.08c0,0,0,0,0,0,0,0,0,.02,0,.03h0s0,.03,0,.03c0,0,0,0,0,0,0,0,0,.02,0,.03,0,0,0,0,0,0,0,0,0,.02,0,.03,0,0,0,0,0,0,.17.7.34,1.4.49,2.1l7.82-1.75c-.35-1.56-.74-3.13-1.15-4.66h0Zm-2.27-7.34l-7.56,2.64c.49,1.4.94,2.81,1.37,4.23l7.67-2.3c-.46-1.53-.96-3.07-1.48-4.57h0Zm-2.79-7.16l-7.36,3.17c.18.42.36.85.54,1.28,0,0,0,0,0,0,0,.02.02.04.02.06,0,0,0,0,0,0,0,.02.02.04.02.06,0,0,0,0,0,.01,0,.02.01.04.02.05,0,0,0,0,0,.01,0,.01.01.03.02.04,0,0,0,.02.01.03,0,.01.01.03.02.04,0,0,0,.01,0,.02,0,.01.01.03.02.04,0,0,0,.02.01.03,0,.01.01.03.02.04v.03s.02.01.02.02c0,.02.01.04.02.05,0,0,0,0,0,.01,0,.02.02.04.03.06h0c.3.74.59,1.48.87,2.23l7.49-2.84c-.56-1.49-1.17-2.99-1.8-4.45h0Zm-3.29-6.95l-7.11,3.68s0,0,0,0c0,.01.02.03.02.04,0,0,0,.01.01.02,0,.01.01.03.02.04,0,0,0,.02.01.02,0,.01.01.02.02.04,0,0,.01.02.02.03,0,0,0,.02.01.03,0,.01.01.03.02.04,0,0,0,.01.01.02,0,.01.01.03.02.04,0,0,0,.02.01.02,0,.02.02.04.03.05,0,0,0,0,0,0,0,.01.01.02.02.03h0s.02.05.03.07h0s.02.05.03.07h0c.44.87.87,1.73,1.28,2.61,0,0,0,.01,0,.01,0,.02.02.03.02.05,0,0,0,.01.01.02,0,.01.01.03.02.04,0,.01,0,.02.01.03v.03s.03.03.03.04v.02s.02.03.03.05c0,0,0,.01,0,.02,0,.02.02.03.02.05,0,0,0,0,0,0,.07.14.14.29.2.44l7.27-3.36c-.67-1.45-1.38-2.9-2.11-4.31h0Zm-3.77-6.7l-6.84,4.17c.23.38.45.75.68,1.13,0,0,0,0,0,0,.01.02.02.03.03.05h0s.02.04.03.06c0,0,0,0,0,.01l.03.05s0,0,0,.01c0,.01.02.03.02.04,0,0,0,.01.01.02,0,.01.01.02.02.03,0,0,.01.02.02.03,0,.01.01.02.02.03v.02s.03.02.04.04c0,0,.01.02.01.03,0,.01.01.03.02.04,0,0,.01.02.02.03,0,0,0,.01.01.02,0,.01.02.03.03.04,0,0,0,.01,0,.02,0,.02.02.03.03.05,0,0,0,0,0,.01.01.02.02.04.03.06,0,0,0,0,0,0,.03.05.06.11.09.16h0c.36.62.7,1.23,1.05,1.86l7.01-3.87c-.77-1.4-1.58-2.79-2.41-4.15h0Zm-4.23-6.41l-6.53,4.64c.86,1.21,1.69,2.44,2.5,3.68l6.72-4.35c-.87-1.34-1.77-2.67-2.7-3.97h0Zm-4.67-6.1l-6.18,5.09c.43.52.86,1.05,1.28,1.59,0,0,0,0,0,0,.01.02.03.03.04.05,0,0,0,0,0,0,.01.02.03.03.04.05,0,0,0,0,0,.01.01.01.02.03.03.04,0,0,0,0,.01.02.01.01.02.03.03.04,0,0,0,0,.01.01,0,0,.01.02.02.03,0,0,.01.01.01.02.01.01.02.03.03.04,0,0,0,0,.01.02.01.01.02.03.03.04,0,0,0,.01.01.02,0,.01.02.02.03.04,0,0,0,.01.01.02l.03.04s0,.01.01.02c0,0,.01.02.02.03,0,.01.02.02.02.03,0,0,.01.02.02.03,0,0,.01.02.02.02,0,.01.02.02.03.03,0,0,.01.01.02.02,0,.01.02.02.03.04,0,0,0,.01.01.02.01.01.02.03.03.04,0,0,0,0,.01.01.01.02.02.03.03.05,0,0,0,0,0,.01.01.02.03.04.04.05,0,0,0,0,0,0,.02.03.05.06.07.09h0s.03.04.04.06h0s.03.04.04.06h0c.2.27.41.53.61.8l6.4-4.81c-.96-1.27-1.96-2.54-2.97-3.77h0Zm-5.08-5.76l-5.81,5.51c.08.08.16.17.24.25,0,0,0,0,0,0,.02.02.03.03.04.05,0,0,0,0,0,0,.02.02.03.03.04.04,0,0,0,0,0,0,.01.01.02.02.03.04,0,0,.01.01.02.02,0,0,.02.02.03.03,0,0,.01.01.02.02,0,0,.02.02.03.03,0,0,.01.02.02.02,0,0,.01.01.02.02.01.01.02.03.04.04h0s.03.04.05.06h0c.81.87,1.61,1.76,2.4,2.67l6.05-5.25c-1.04-1.2-2.13-2.4-3.22-3.56h0Zm-5.47-5.39l-5.41,5.9c1.09,1,2.16,2.03,3.21,3.08l5.67-5.66c-1.13-1.13-2.29-2.24-3.47-3.32h0Zm-5.84-4.99l-4.99,6.27c.82.65,1.62,1.31,2.42,1.98,0,0,0,0,0,0,.02.01.03.03.05.04,0,0,0,0,0,0,.01.01.03.03.04.04,0,0,0,0,.01,0,.01.01.03.02.04.04,0,0,0,0,.01.01.01.01.03.02.04.03,0,0,0,0,.01.01.01.01.02.02.03.03,0,0,.01.01.02.02.01.01.02.02.03.03,0,0,.01,0,.02.01.01.01.02.02.04.03,0,0,.01.01.02.02.01.01.02.02.04.03,0,0,.01.01.02.02.01.01.02.02.03.03,0,0,.01.01.02.02,0,0,.02.01.03.02,0,0,.02.02.03.03,0,0,.01.01.02.02.01,0,.02.02.03.03,0,0,.01.01.02.02.01,0,.02.02.03.03,0,0,.02.01.02.02,0,0,.02.01.02.02.01.01.02.02.03.03,0,0,.01.01.02.02,0,0,.02.02.03.03,0,0,.01.01.02.02.01.01.02.02.03.03l.02.02s.02.02.03.03c0,0,.02.01.02.02,0,0,.02.02.03.02,0,0,.01.01.02.02.01.01.02.02.04.03,0,0,0,0,0,0l5.26-6.04c-1.2-1.05-2.44-2.08-3.69-3.07h0Zm-6.17-4.57l-4.53,6.6c.59.41,1.18.82,1.76,1.24,0,0,0,0,0,0,.02.01.04.03.06.04,0,0,0,0,0,0,.04.03.07.05.11.08,0,0,0,0,0,0,.02.01.04.03.05.04,0,0,0,0,0,0,.02.01.03.02.05.03,0,0,0,0,.01,0,.02.01.03.02.04.03,0,0,0,0,.01,0,.01,0,.03.02.04.03,0,0,0,0,.01.01.01,0,.03.02.04.03,0,0,.01,0,.02.01.01,0,.02.02.03.02,0,0,.02.01.03.02.01,0,.02.01.03.02h.02s.02.03.04.04c0,0,.02.01.02.02.01,0,.02.02.03.02,0,0,.02.01.03.02,0,0,.01,0,.02.01.01.01.03.02.04.03,0,0,0,0,.01,0,.02.01.03.02.05.04,0,0,0,0,0,0,.34.25.69.51,1.03.76l4.82-6.4c-1.27-.96-2.58-1.9-3.9-2.8h0Zm-6.48-4.12l-4.06,6.9h0s.03.02.05.03c0,0,0,0,.01,0,.02,0,.04.02.05.03,0,0,0,0,0,0,.76.45,1.51.9,2.25,1.37,0,0,0,0,0,0,.02.01.04.02.06.03,0,0,0,0,0,0,.02.01.04.02.06.04,0,0,0,0,0,0,.04.02.08.05.11.07,0,0,0,0,0,0,.02.01.04.02.05.03,0,0,0,0,0,0,.02.01.03.02.05.03h0s.04.03.05.04c0,0,0,0,0,0,.02.01.04.02.05.03,0,0,0,0,0,0,.04.02.07.05.11.07,0,0,0,0,0,0,.02.01.04.02.05.03,0,0,0,0,0,0,.02.01.03.02.05.03,0,0,0,0,0,0,.02.01.04.02.05.03,0,0,0,0,0,0,.21.14.43.27.64.41l4.36-6.72c-1.34-.87-2.71-1.72-4.08-2.52h0Zm-6.76-3.66l-3.56,7.17s0,0,.01,0c.01,0,.03.01.04.02,0,0,.01,0,.02.01.01,0,.03.01.04.02h.02s.03.03.04.03c0,0,.02,0,.03.01h.02s.03.03.05.03c0,0,0,0,.01,0,.02,0,.04.02.06.03h0s.04.03.06.04h0c1.19.6,2.37,1.22,3.53,1.86l3.87-7.01c-1.4-.77-2.83-1.52-4.25-2.23h0Zm-7-3.17l-3.04,7.41c.55.23,1.1.46,1.65.69h0s.02.01.03.02h0s.04.02.06.03c0,0,.01,0,.02,0,.01,0,.03.01.04.02,0,0,.02,0,.03.01.01,0,.02,0,.03.01.01,0,.02.01.04.02,0,0,.01,0,.02,0,.01,0,.03.01.05.02h.02s.03.02.05.03c0,0,0,0,.01,0,.02,0,.03.02.05.02h0c.66.29,1.31.58,1.96.89l3.37-7.27c-1.45-.67-2.93-1.32-4.4-1.92h0Zm-7.21-2.67l-2.51,7.6c.54.18,1.07.36,1.61.55h0s.04.02.06.02c0,0,0,0,.02,0,.02,0,.03.01.05.02,0,0,.02,0,.02,0,0,0,.02,0,.03.01.01,0,.03.01.04.01,0,0,.02,0,.02,0,.02,0,.03.01.04.02,0,0,.01,0,.02,0,.02,0,.03,0,.04.01,0,0,.01,0,.02,0,.02,0,.03.01.05.02,0,0,0,0,.01,0,.02,0,.04.01.05.02h.01s.04.02.06.02c0,0,0,0,0,0,.67.24,1.35.49,2.02.74l2.85-7.49c-1.49-.57-3.01-1.11-4.53-1.61h0Zm-7.38-2.15l-1.97,7.76s.02,0,.03,0h0s.04.01.06.02c0,0,0,0,.01,0,.01,0,.02,0,.03,0,.01,0,.03,0,.04.01,0,0,.02,0,.03,0,.01,0,.02,0,.03,0,.01,0,.02,0,.04,0,.01,0,.02,0,.03,0,0,0,.02,0,.03,0,.02,0,.03,0,.05.01,0,0,.01,0,.02,0,.02,0,.04,0,.05.01,0,0,.01,0,.02,0,.02,0,.04,0,.05.01,0,0,0,0,.01,0,.02,0,.04.01.06.02,0,0,0,0,0,0,.02,0,.04.01.06.02,0,0,0,0,0,0,.02,0,.04.01.06.02,0,0,0,0,0,0,.02,0,.05.01.06.02,0,0,0,0,0,0,.78.21,1.57.42,2.34.64,0,0,0,0,0,0,.02,0,.04.01.06.02,0,0,0,0,0,0,.02,0,.04.01.06.02,0,0,0,0,.01,0,.02,0,.04.01.06.02,0,0,0,0,.01,0,.02,0,.03,0,.05.01h.02s.03.01.04.02c0,0,.01,0,.02,0,.02,0,.03,0,.04.01,0,0,.02,0,.03,0,.01,0,.03,0,.04.01.01,0,.02,0,.03,0,0,0,.01,0,.02,0,.02,0,.04.01.06.02h0c.19.06.37.11.56.17l2.31-7.67c-1.53-.46-3.08-.89-4.63-1.28h0Zm-7.51-1.62l-1.41,7.88s0,0,0,0c0,0,0,0,.01,0,0,0,.02,0,.02,0,0,0,0,0,.01,0,0,0,.02,0,.02,0,0,0,0,0,.02,0,0,0,.01,0,.02,0,0,0,.01,0,.02,0,0,0,.01,0,.02,0,0,0,.01,0,.02,0,0,0,0,0,0,0,.02,0,.04,0,.06.01,0,0,0,0,0,0,0,0,.02,0,.03,0,0,0,0,0,0,0,0,0,.02,0,.03,0,0,0,0,0,0,0,0,0,.02,0,.03,0,0,0,0,0,0,0,0,0,.02,0,.03,0,0,0,0,0,0,0,0,0,.02,0,.03,0,0,0,0,0,0,0,.08.01.16.03.24.04h0s.02,0,.03,0c0,0,0,0,0,0,.08.02.16.03.24.04,0,0,0,0,0,0,.01,0,.02,0,.03,0,0,0,0,0,0,0,0,0,.02,0,.03,0,0,0,0,0,0,0,.05.01.11.02.17.03,0,0,0,0,0,0,0,0,.02,0,.03,0,0,0,0,0,0,0,0,0,.02,0,.03,0,0,0,0,0,.01,0,0,0,.02,0,.02,0,0,0,0,0,.01,0,0,0,.01,0,.02,0,0,0,0,0,.01,0,0,0,.02,0,.02,0,0,0,.01,0,.02,0,0,0,.02,0,.03,0,0,0,.02,0,.03,0,0,0,0,0,.01,0,0,0,.02,0,.03,0,0,0,0,0,.01,0,0,0,.02,0,.03,0,0,0,0,0,.01,0,0,0,.02,0,.03,0,0,0,0,0,.01,0,0,0,.02,0,.03,0h0c.94.18,1.87.38,2.8.59l1.76-7.81c-1.55-.35-3.14-.67-4.71-.95h0Zm-7.6-1.09l-.85,7.96c.36.04.71.08,1.07.12,0,0,0,0,0,0,.01,0,.02,0,.03,0,0,0,.01,0,.02,0,0,0,.01,0,.02,0,0,0,.01,0,.02,0,0,0,0,0,.01,0,.01,0,.03,0,.04,0h0s.02,0,.04,0h0s.02,0,.03,0h0s.02,0,.03,0h0s.03,0,.04,0h0c.79.1,1.58.2,2.36.31,0,0,0,0,.01,0,0,0,.02,0,.02,0,0,0,0,0,.02,0,0,0,.01,0,.02,0,0,0,.01,0,.02,0,0,0,0,0,.01,0,0,0,.02,0,.02,0,0,0,0,0,0,0,.18.03.36.05.55.08l1.2-7.92c-1.57-.24-3.18-.45-4.76-.62h0Zm-7.66-.55l-.29,8c.39.01.79.03,1.18.05,0,0,0,0,.01,0,0,0,.01,0,.02,0,0,0,.01,0,.02,0,0,0,.01,0,.02,0h.02s0,0,.02,0c0,0,.02,0,.03,0,0,0,0,0,.01,0,.04,0,.08,0,.12,0h0s.03,0,.04,0h0c.66.03,1.31.07,1.97.12h0s.02,0,.03,0c0,0,0,0,0,0,0,0,.02,0,.03,0,0,0,0,0,.01,0,0,0,.02,0,.02,0,0,0,.01,0,.01,0,0,0,.02,0,.03,0,0,0,0,0,0,0h.04s.02,0,.02,0c0,0,0,0,.01,0,.01,0,.02,0,.03,0,0,0,0,0,.01,0,0,0,.02,0,.03,0,0,0,0,0,.01,0,0,0,.02,0,.03,0,0,0,0,0,0,0,.22.02.44.03.65.05l.64-7.98c-1.59-.13-3.2-.22-4.79-.28h0Zm-4.05-.07v8.01h.09s.02,0,.03,0h0c.32,0,.64,0,.97,0L110.19,0c-.39,0-.78,0-1.18,0h0Z" style="fill: #4bd996; stroke-width: 0px;"/>
        <circle cx="109.01" cy="109.01" r="101" style="fill: none; stroke: #fff; stroke-miterlimit: 10; stroke-width: 12.46px;"/>
        <circle cx="109.01" cy="109.01" r="101" style="fill: #41d992; opacity: .39; stroke-width: 0px;"/>
      </g>
      <g id="boy_namaste_pose" data-name="boy namaste pose">
        <ellipse cx="151.33" cy="171.85" rx="14.51" ry="2.91" style="fill: #dbcbbf; stroke-width: 0px;"/>
        <g>
          <g>
            <path d="m152.89,151.89c-.18,3.78,1.14,13.12,1.66,17.62,1.52.18,1.99.16,3.54-.2,1.04-4.4,2.71-14.25,2.28-18.58-.53-5.47-7.39-.83-7.48,1.17Z" style="fill: #f4ccb5; stroke-width: 0px;"/>
            <polygon points="154.13 167.68 158.52 167.68 158.25 171.24 154.66 171.24 154.13 167.68" style="fill: #e6f1fc; stroke-width: 0px;"/>
            <path d="m158.13,170.14c.53,0,1.01.82,1.01,1.64s-.21,1.68-.54,1.68h-4.11c-.37,0-.68-.34-.56-1.53.12-1.19.11-1.8.92-1.8h3.27Z" style="fill: #1a1a1a; stroke-width: 0px;"/>
          </g>
          <g>
            <path d="m149.22,151.89c.18,3.78-1.14,13.12-1.66,17.62-1.52.18-1.99.16-3.54-.2-1.04-4.4-2.71-14.25-2.28-18.58.53-5.47,7.39-.83,7.48,1.17Z" style="fill: #f4ccb5; stroke-width: 0px;"/>
            <polygon points="147.98 167.68 143.59 167.68 143.86 171.24 147.45 171.24 147.98 167.68" style="fill: #e6f1fc; stroke-width: 0px;"/>
            <path d="m143.98,170.14c-.53,0-1.01.82-1.01,1.64s.21,1.68.54,1.68h4.11c.37,0,.68-.34.56-1.53-.12-1.19-.11-1.8-.92-1.8h-3.27Z" style="fill: #1a1a1a; stroke-width: 0px;"/>
          </g>
          <path d="m141.35,140.19s11.45,1.02,18.33-.37c0,0,2.43,4.3,2.43,8.3s-1.93,12.32-1.93,12.32c0,0-4.15,1.1-8.2.32,0,0-.2-9.46-.17-10.14.03-.69-1.76-.18-1.76-.18l-.4,10.23s-7.11.37-7.82-.59c0,0-2.28-9.6-1.53-14.91.57-4.02,1.05-4.96,1.05-4.96Z" style="fill: #0759b1; stroke-width: 0px;"/>
          <path d="m153.74,148.9c.09-.38-1.43.79-2.84.98-1.34.18-2.96-.61-2.83-.32.27.64,1.09,1.15,1.09,1.98.07,2.96.14,6.24-.11,9.15.38-.01.61-.03.61-.03l.4-10.23s1.78-.5,1.76.18c-.03.69.17,10.14.17,10.14.28.05.56.1.84.14-.6-9.38.72-11.14.92-11.99Z" style="fill: #064e9c; stroke-width: 0px;"/>
          <g>
            <path d="m141.35,140.19s-.48.94-1.05,4.96c-.07.52-.12,1.09-.14,1.69,0,0,.84-1.71,2.78-2.62,3.75-1.75,15.01-1.75,18.8,1.7.04.04.1.04.16.06-.58-3.26-2.23-6.17-2.23-6.17-6.87,1.39-18.33.37-18.33.37Z" style="fill: #064e9c; stroke-width: 0px;"/>
            <g>
              <path d="m141.26,147.68c1.56.04,3.05-.79,3.84-2.13.21-.36.37-.76.47-1.17.04-.15-.2-.22-.24-.07-.35,1.41-1.43,2.56-2.83,2.96-.4.12-.82.17-1.24.16-.16,0-.16.24,0,.25h0Z" style="fill: #064e9c; stroke-width: 0px;"/>
              <path d="m156.06,144.69c.37,1.71,1.73,3.09,3.44,3.48.5.11,1.01.14,1.52.09.16-.02.16-.27,0-.25-.86.1-1.73-.06-2.5-.46-.72-.38-1.33-.96-1.74-1.66-.23-.39-.39-.82-.49-1.26-.03-.16-.27-.09-.24.07h0Z" style="fill: #064e9c; stroke-width: 0px;"/>
            </g>
          </g>
          <g>
            <rect x="143.83" y="116.08" width="12.77" height="9.04" style="fill: #e6967a; stroke-width: 0px;"/>
            <path d="m140.03,140.78c0-3.7.2-12.05.05-14.09-.01-3.2-.72-3.66,3.92-4.66,0,0,1.79,1.22,5.91,1.22,4.65,0,6.69-1.46,6.69-1.46,0,0,3.95.94,4.11,2.33.23,2.01.23,6.2.27,7.11.11,2.37.85,9.83,0,10.55-1.21,1.03-20.95,1.16-20.95-.98Z" style="fill: #ebf4fd; stroke-width: 0px;"/>
            <path d="m160.44,141.07c-1.01.85-16.85,2.32-19.58-.76-1.14-1.29.77-12.32-.76-13.21.11,2.58-.07,10.19-.07,13.68,0,2.14,19.74,2.01,20.95.98.85-.72.11-8.17,0-10.55-.03-.54-.03-2.25-.09-3.97-.04.21.52,13-.45,13.82Z" style="fill: #cde3f9; stroke-width: 0px;"/>
            <g>
              <path d="m156.64,121.57s.25.49.65.98c.4.49-5.37,5.87-5.37,5.87,0,0,1.77-3.77-2.15-5.19,0,0,3.04-.25,4.56-.69,1.13-.32,2.31-.98,2.31-.98Z" style="fill: #cde3f9; stroke-width: 0px;"/>
              <path d="m143.78,121.71s-.19.49-.57.98c-.38.49,4.82,5.74,4.82,5.74,0,0-1.68-4.33,2.05-5.19,0,0-3.15-.33-4.33-.69-1.07-.32-1.96-.85-1.96-.85Z" style="fill: #cde3f9; stroke-width: 0px;"/>
            </g>
          </g>
          <g>
            <g>
              <g>
                <path d="m176.37,101.06c.89-1.13,2.52-1.64,4.04-1.44,1.52.2,2.92,1.04,3.95,2.15,1.78,1.92,2.45,4.67,1.71,7.04-.74,2.36-2.86,4.26-5.41,4.83-1.37.31-2.87.25-4.18-.33-1.31-.58-2.38-1.71-2.66-3.03l2.56-9.22Z" style="fill: #f4ccb5; stroke-width: 0px;"/>
                <path d="m180.54,108.75c-.13-.14,0-.45.1-.87.11-.42.2-.98.08-1.55-.12-.57-.43-1.07-.71-1.43-.27-.36-.52-.61-.45-.79.03-.08.15-.13.33-.13.19,0,.44.06.73.21.29.14.6.38.87.71.27.33.5.75.6,1.23.1.48.06.94-.06,1.33-.12.39-.32.7-.53.91-.21.22-.42.35-.6.41-.17.06-.3.04-.37-.03Z" style="fill: #e6967a; stroke-width: 0px;"/>
              </g>
              <g>
                <path d="m128,95.06c-.34-1.4-1.6-2.54-3.07-2.99s-3.09-.27-4.48.31c-2.42,1-4.17,3.23-4.49,5.68s.82,5.06,2.9,6.65c1.12.85,2.51,1.43,3.94,1.45,1.43.02,2.88-.56,3.68-1.64l1.51-9.45Z" style="fill: #f4ccb5; stroke-width: 0px;"/>
                <path d="m120.99,100.31c.18-.07.19-.4.27-.83.07-.43.23-.97.57-1.44.35-.47.84-.79,1.24-1,.4-.22.73-.34.74-.53,0-.09-.08-.18-.25-.26-.17-.08-.43-.13-.75-.11-.32.01-.7.09-1.09.28-.38.18-.77.47-1.06.86-.29.39-.45.83-.5,1.23-.05.4,0,.77.1,1.05.1.29.24.5.37.62.13.12.26.16.34.13Z" style="fill: #e6967a; stroke-width: 0px;"/>
              </g>
            </g>
            <path d="m160.72,122.01c3.94-1.36,8.16-3.36,11.58-6.09,2.97-2.38,4.93-5.05,6.59-7.79,1.22-2.68,8.81-24.37,2.16-29.08-5.71-4-8.47-4.55-21.29-7.33-12.89-2.9-19.16-2.45-27.33,1.15-8.85,3.89-9.17,24.7-8.67,28.13.55,3.6,1.51,7.22,3.7,10.61,2.52,3.9,6.22,6.89,9.79,8.91,3.6,2.03,7.41,3.07,11.48,3.28,4.07.21,8.04-.43,11.99-1.78Z" style="fill: #f4ccb5; stroke-width: 0px;"/>
            <path d="m181.05,79.05c-5.71-4-8.47-4.55-21.29-7.33-12.89-2.9-19.16-2.45-27.33,1.15-5.77,2.54-7.92,12.27-8.57,19.68,4.54.06,9.05-2.22,12.95-4.57,3.02-1.79,6.01-7.23,7.42-10.38.06,10.63,25.27,21.72,38.16,19.22,1.62-7.02,2.42-15.11-1.34-17.78Z" style="fill: #e0a089; stroke-width: 0px;"/>
            <g>
              <g>
                <ellipse cx="165.88" cy="104.39" rx="6.39" ry="7.45" transform="translate(50.09 262.52) rotate(-85.97)" style="fill: #e88f6d; stroke-width: 0px;"/>
                <ellipse cx="135.18" cy="102.01" rx="6.39" ry="7.68" transform="translate(23.91 229.69) rotate(-85.97)" style="fill: #e88f6d; stroke-width: 0px;"/>
              </g>
              <g>
                <ellipse cx="138.95" cy="92.37" rx="6.79" ry="5.73" transform="translate(36.17 223.81) rotate(-85.59)" style="fill: #fff; stroke-width: 0px;"/>
                <g>
                  <ellipse cx="139.04" cy="92.77" rx="5.85" ry="5.1" transform="translate(35.86 224.27) rotate(-85.59)" style="fill: #7e4f37; stroke-width: 0px;"/>
                  <path d="m137.42,91.26c-.06-.19-.26-.31-.56-.28-.29.02-.68.2-1,.55-.32.35-.5.77-.54,1.11-.04.34.05.58.22.65.17.08.37,0,.57-.14.2-.14.42-.33.63-.56.21-.23.39-.46.53-.69.13-.22.21-.45.15-.64Z" style="fill: #fff; stroke-width: 0px;"/>
                </g>
              </g>
              <g>
                <ellipse cx="163.76" cy="94.03" rx="6.79" ry="5.73" transform="translate(57.42 250.08) rotate(-85.59)" style="fill: #fff; stroke-width: 0px;"/>
                <g>
                  <ellipse cx="163.73" cy="94.42" rx="5.85" ry="5.1" transform="translate(57.01 250.41) rotate(-85.59)" style="fill: #7e4f37; stroke-width: 0px;"/>
                  <path d="m165.57,93.18c.08-.18.3-.27.59-.19.29.07.64.31.9.7.26.39.38.84.36,1.18-.01.34-.14.56-.31.61-.18.05-.36-.06-.54-.22-.18-.17-.36-.39-.54-.65-.18-.26-.32-.52-.41-.76-.09-.24-.14-.48-.05-.66Z" style="fill: #fff; stroke-width: 0px;"/>
                </g>
              </g>
              <path d="m153.2,99.41c.13.13.15.33.1.5-.02.05-.04.11-.07.17-.03.06-.07.11-.12.17-.1.13-.23.23-.38.32-.08.05-.16.09-.26.13-.09.04-.19.07-.3.1-1.76.41-3.3-1.31-2.7-3.01.04-.1.08-.2.13-.29.05-.09.1-.17.16-.24.1-.13.22-.25.36-.34.06-.04.12-.07.18-.1.06-.02.12-.04.17-.05.65-.12.65.65.8,1.08,0,.04.03.08.04.12.01.04.03.08.04.11.06.13.12.27.21.37.03.04.06.07.09.1.03.03.05.06.09.1.09.09.22.17.34.24.03.02.07.04.11.06.03.01.07.04.11.05.28.15.65.19.89.42Z" style="fill: #f1775b; stroke-width: 0px;"/>
              <path d="m143.08,103.97c3.78,2.43,8.69,2.59,12.59.35,1.04-.6,1.99-1.34,2.81-2.21.33-.35-.16-.93-.49-.58-2.83,3-7.13,4.31-11.13,3.27-1.18-.31-2.31-.8-3.34-1.46-.41-.26-.84.36-.43.62h0Z" style="fill: #b83e3e; stroke-width: 0px;"/>
              <path d="m161.4,84.6c2.49.08,4.93,1.04,6.77,2.73.35.32.91-.16.56-.48-1.98-1.83-4.57-2.91-7.27-2.99-.47-.01-.53.72-.06.74h0Z" style="fill: #935c33; stroke-width: 0px;"/>
              <path d="m135.97,84.75c2.23-1.11,4.84-1.4,7.26-.78.45.12.73-.57.27-.69-2.61-.68-5.4-.41-7.82.79-.42.21-.13.89.3.67h0Z" style="fill: #935c33; stroke-width: 0px;"/>
            </g>
            <g>
              <g>
                <path d="m182.63,73.4c-.59-1.06-1.24-2.09-1.96-3.08-.98-1.34-2.11-2.59-3.35-3.71-3.09-7.04-11.19-10.87-19.02-11.94-10.32-1.41-19.32,1.69-27.95,7.07-6.44,4.02-8.93,7.8-12.79,16.05-6.77,20.29,6.53,25.05,6.53,25.05,0,0,.11-4.2,1.15-9.65,3.62-.57,8.44-3.47,10.81-6.34,2.97-3.59,6.95-10.45,8.62-14.8.17,5.43,2.57,12.93,7.77,15.03-.77-2.24-1-4.66-.68-7,2.48,4.82,6.88,8.62,12.01,10.38,3.15,1.08,6.56,1.38,9.87.92,2.58,1,5.38,1.92,8.4,2.73l-.82,8.29s4.73-10.68,4.86-15.51c.14-5.04-.99-9.04-3.45-13.49Z" style="fill: #be7b55; stroke-width: 0px;"/>
                <path d="m183.6,66.91c-.16.04-.34,0-.46-.13-1.77-1.89-4.73-2.65-7.19-1.85-.24.08-.5-.05-.58-.29-.08-.24.05-.5.29-.58,2.84-.92,6.11-.08,8.15,2.1.17.18.16.47-.02.65-.06.05-.12.09-.19.11Z" style="fill: #a86838; stroke-width: 0px;"/>
                <path d="m174.26,63.15c-.11.03-.24.02-.35-.04-.22-.13-.29-.41-.17-.63,1.18-2.05,3.47-3.42,5.83-3.49.25,0,.46.19.47.44,0,.25-.19.46-.44.47-2.05.06-4.04,1.25-5.07,3.03-.06.11-.16.18-.27.21Z" style="fill: #a86838; stroke-width: 0px;"/>
              </g>
              <g>
                <path d="m181.11,94.16c-.05.02-.11.02-.17,0-5.81-.9-11-5-13.22-10.44-.09-.21.01-.45.23-.54.21-.09.45.01.54.23,2.12,5.18,7.06,9.08,12.59,9.94.23.03.38.25.34.47-.03.17-.15.29-.3.33Z" style="fill: #a86838; stroke-width: 0px;"/>
                <path d="m164.78,91.25c-.08.02-.16.02-.24,0-4.31-1.42-8.18-4.14-11.18-7.84-3-3.7-4.86-8.05-5.36-12.56-.03-.23.14-.43.36-.46.23-.03.43.14.46.36.49,4.35,2.28,8.55,5.18,12.13,2.9,3.58,6.64,6.2,10.8,7.58.22.07.33.3.26.52-.04.14-.15.23-.28.27Z" style="fill: #a86838; stroke-width: 0px;"/>
                <path d="m148.92,84.52c-.15.04-.32,0-.43-.14-3.12-3.79-3.8-9.05-4.35-13.28-.03-.23.13-.43.36-.46.23-.03.43.13.46.36.54,4.12,1.2,9.25,4.17,12.86.14.18.12.44-.06.58-.05.04-.1.06-.15.08Z" style="fill: #a86838; stroke-width: 0px;"/>
                <path d="m126.01,93.4c-.09.03-.19.05-.28.08-.22.06-.45-.07-.5-.29-.06-.22.07-.44.29-.5,0,0,0,0,0,0,3.34-.87,6.5-2.63,9.14-5.08,2.63-2.45,4.61-5.47,5.73-8.75.07-.22.31-.33.52-.26.22.07.33.31.26.52-1.16,3.4-3.21,6.54-5.94,9.08-2.66,2.47-5.84,4.26-9.21,5.2Z" style="fill: #a86838; stroke-width: 0px;"/>
                <path d="m120.53,86.22c-.07.02-.15.02-.23,0-.22-.06-.34-.29-.28-.51,1.66-5.62,4.84-10.84,9.18-15.12,4.35-4.27,9.62-7.36,15.27-8.93,0,0,0,0,0,0,.22-.06.45.07.51.29.06.22-.07.45-.29.51-11.21,3.12-20.58,12.33-23.88,23.48-.04.14-.15.24-.29.28Z" style="fill: #a86838; stroke-width: 0px;"/>
                <path d="m179.35,81.71s0,0-.01,0c-.22.05-.44-.08-.5-.3-2.27-9.39-9.67-17.37-18.87-20.32-.22-.07-.34-.3-.27-.52.07-.22.3-.34.52-.27,9.47,3.04,17.09,11.25,19.42,20.91.05.22-.08.44-.29.49Z" style="fill: #a86838; stroke-width: 0px;"/>
                <path d="m168.72,82.75c.95,1.28,2.05,2.44,3.26,3.48,1.18,1.02,2.48,1.91,3.85,2.65.8.43,1.62.82,2.47,1.14.24.09.55-.03.64-.29.08-.26-.03-.54-.29-.64-.72-.28-1.43-.6-2.12-.96-.04-.02-.08-.04-.12-.06-.02-.01-.08-.04.02.01-.02-.01-.04-.02-.06-.03-.09-.05-.18-.1-.27-.15-.16-.09-.33-.19-.49-.28-.33-.2-.66-.4-.98-.62-.64-.43-1.26-.89-1.85-1.38-.15-.12-.3-.25-.44-.38-.07-.06-.14-.12-.2-.18-.03-.03-.07-.06-.1-.09-.02-.02-.03-.03-.05-.05.1.1.01.01,0,0-.28-.26-.56-.54-.83-.82-.6-.63-1.16-1.29-1.68-1.98-.15-.21-.51-.24-.7-.07-.21.19-.23.47-.07.7h0Z" style="fill: #a86838; stroke-width: 0px;"/>
              </g>
              <path d="m172.79,60.15c-4.19-3.16-9.21-5-14.4-5.69-5.33-.71-10.79-.27-15.97,1.1-5.17,1.37-10.15,3.69-14.32,7.06-4.22,3.42-7.58,7.89-9.78,12.85-2.18,4.92-3.27,10.34-2.94,15.72.04.66.1,1.32.19,1.98.06.48.82.48.76,0-.66-5.24.06-10.59,1.92-15.52,1.87-4.97,4.91-9.51,8.81-13.11,3.88-3.58,8.64-6.1,13.66-7.69,5.02-1.58,10.34-2.26,15.59-1.85,5.08.39,10.13,1.86,14.44,4.64.52.34,1.03.69,1.52,1.06.38.29.92-.25.53-.54h0Z" style="fill: #a86838; stroke-width: 0px;"/>
              <g>
                <path d="m142.27,61.1c-3.79-.67-7.03-3.78-7.87-7.53,5.99,2.12,12.51,2.75,18.8,1.82l-10.93,5.72Z" style="fill: #be7b55; stroke-width: 0px;"/>
                <path d="m146.62,55.58c-1.6.08-3.22,0-4.81-.23-1.6-.23-3.19-.62-4.72-1.16-.85-.3-1.69-.64-2.5-1.03-.2-.1-.41.07-.36.28.51,2.33,1.82,4.48,3.64,6.01.52.44,1.08.82,1.67,1.15.28.16.53-.28.25-.43-2-1.12-3.6-2.91-4.49-5.02-.18-.43-.34-.88-.46-1.34,1.33.6,2.72,1.1,4.13,1.46,1.6.41,3.24.67,4.88.77.92.06,1.85.06,2.77.02.32-.02.32-.51,0-.5Z" style="fill: #a86838; stroke-width: 0px;"/>
              </g>
            </g>
            <path d="m177.05,66.88c1.73,1.61,3.26,3.43,4.55,5.41,1.33,2.04,2.39,4.25,3.11,6.58.69,2.23,1.05,4.56,1.03,6.9-.02,2.14-.36,4.27-.94,6.33-.64,2.26-1.55,4.43-2.58,6.53-.14.28-.28.56-.42.84-.09.19-.04.42.14.52.17.1.43.04.52-.14,1.11-2.18,2.11-4.43,2.84-6.77.66-2.12,1.09-4.31,1.18-6.53.1-2.35-.17-4.72-.78-6.99-.65-2.43-1.67-4.77-2.97-6.92-1.26-2.08-2.78-4-4.51-5.71-.21-.21-.42-.41-.64-.61-.36-.34-.9.21-.54.55h0Z" style="fill: #a86838; stroke-width: 0px;"/>
          </g>
          <g>
            <g>
              <g>
                <path d="m150.35,133.91s.14-3.9.13-4.19c-.01-.29-.6-.06-.65.49-.05.55.09,3.39.52,3.7Z" style="fill: #e6967a; stroke-width: 0px;"/>
                <path d="m150.08,133.04s.25-4.33.45-5.24c.22-1.04-.62-1.56-.71-.73-.08.84-.75,5.63-.76,5.84-.01.22.73.83,1.02.13Z" style="fill: #e6967a; stroke-width: 0px;"/>
                <path d="m149.77,133.34s.06-4.7.36-5.63c.19-.59-.27-1.35-.55-.49-.15.46-.79,3.53-1.17,5.17-.29,1.28.61,2.72.6,2.85,0,0,.52-1.16.77-1.89Z" style="fill: #e8c2ac; stroke-width: 0px;"/>
                <path d="m149.59,136.17c-.88.27-1.27-.05-1.28-1.05,0-1,1.49-6.27,1.5-6.93,0-.66.57-.01.53.57-.03.58-.27,2.85-.11,3.63.16.78.31,3.49-.65,3.78Z" style="fill: #f4ccb5; stroke-width: 0px;"/>
              </g>
              <g>
                <path d="m150.54,133.91s-.14-3.9-.13-4.19c.01-.29.6-.06.65.49.05.55-.09,3.39-.52,3.7Z" style="fill: #e6967a; stroke-width: 0px;"/>
                <path d="m150.81,133.04s-.25-4.33-.45-5.24c-.22-1.04.62-1.56.71-.73s.75,5.63.76,5.84c.01.22-.73.83-1.02.13Z" style="fill: #e6967a; stroke-width: 0px;"/>
                <path d="m151.12,133.34s-.06-4.7-.36-5.63c-.19-.59.27-1.35.55-.49.15.46.79,3.53,1.17,5.17.29,1.28-.61,2.72-.6,2.85,0,0-.52-1.16-.77-1.89Z" style="fill: #e8c2ac; stroke-width: 0px;"/>
                <path d="m151.31,136.17c.88.27,1.27-.05,1.28-1.05s-1.49-6.27-1.5-6.93c0-.66-.57-.01-.53.57.03.58.27,2.85.11,3.63-.16.78-.31,3.49.65,3.78Z" style="fill: #f4ccb5; stroke-width: 0px;"/>
              </g>
            </g>
            <g>
              <path d="m160.74,124.07c.81,1.55,1.67,6.97,1.93,8.67.34,2.29-1.99,3.62-3.47,3.86-2.36.37-6.4.45-6.65.2-.26-.26-.31-3.14-.31-3.75s.46-.71,1.01-.83c.5-.1,2.88.12,4.8-.35.32-.99.69-4.66.85-5.83.13-.94,1.36-2.89,1.85-1.97Z" style="fill: #ebf4fd; stroke-width: 0px;"/>
              <path d="m152.22,133.05c0,.61.05,3.49.31,3.75.16.16,1.84.19,3.65.09-1.02-.03-2.27-.07-3.13-.44-.83-.36-.83-3.73-.83-3.4Z" style="fill: #cde3f9; stroke-width: 0px;"/>
              <path d="m162.66,132.74c-.08-.52-.21-1.39-.39-2.39.1,2.27.69,4.34-1.49,5.47-.59.3-2.52.85-3.2.97.57-.05,1.12-.11,1.6-.19,1.48-.23,3.81-1.56,3.47-3.86Z" style="fill: #cde3f9; stroke-width: 0px;"/>
              <path d="m158.93,132.19c.09.25-.33-3.96.14-6.75-.09.22-.15.43-.17.6-.16,1.18-.53,4.85-.85,5.83-.39.09-.8.16-1.2.21.21.11.35.04.83-.02.5-.06,1.17-.12,1.26.13Z" style="fill: #cde3f9; stroke-width: 0px;"/>
            </g>
            <g>
              <path d="m140.15,124.07c-.81,1.55-1.67,6.97-1.93,8.67-.34,2.29,1.99,3.62,3.47,3.86,2.36.37,6.4.45,6.65.2.26-.26.31-3.14.31-3.75s-.46-.71-1.01-.83c-.5-.1-2.88.12-4.8-.35-.32-.99-.69-4.66-.85-5.83-.13-.94-1.36-2.89-1.85-1.97Z" style="fill: #ebf4fd; stroke-width: 0px;"/>
              <path d="m148.67,133.05c0,.61-.05,3.49-.31,3.75-.16.16-1.84.19-3.65.09,1.02-.03,2.27-.07,3.13-.44.83-.36.83-3.73.83-3.4Z" style="fill: #cde3f9; stroke-width: 0px;"/>
              <path d="m138.23,132.74c.08-.52.21-1.39.39-2.39-.1,2.27-.96,3.87,1.49,5.47.55.36,2.52.85,3.2.97-.57-.05-1.12-.11-1.6-.19-1.48-.23-3.81-1.56-3.47-3.86Z" style="fill: #cde3f9; stroke-width: 0px;"/>
              <path d="m142.25,132.2c-.09.25.04-3.97-.43-6.76.09.22.15.43.17.6.16,1.18.53,4.85.85,5.83.39.09.8.16,1.2.21-.21.11-.35.04-.83-.02-.5-.06-.88-.11-.97.14Z" style="fill: #cde3f9; stroke-width: 0px;"/>
            </g>
          </g>
        </g>
      </g>
      <g id="girl_namaste_pose" data-name="girl namaste pose">
        <ellipse cx="74.1" cy="172.26" rx="14.18" ry="2.49" style="fill: #dbcbbf; stroke-width: 0px;"/>
        <g>
          <rect x="66.42" y="118.36" width="12.77" height="10.69" style="fill: #e6967a; stroke-width: 0px;"/>
          <g>
            <path d="m72.09,151.3c1.24,4.9,1.1,13.22.97,18.24l-3.78-.21c-1.36-4.05-3-11.76-5.15-15.57l7.96-2.46Z" style="fill: #f4ccb5; stroke-width: 0px;"/>
            <polygon points="68.74 168.23 73.22 168.1 73.36 171.18 69.34 171.18 68.74 168.23" style="fill: #e6f1fc; stroke-width: 0px;"/>
            <path d="m69.49,170.16c-.53,0-1.01.82-1.01,1.64s.36,1.68.69,1.68h3.55c.26,0,.96-.33.96-1.53s-.11-1.8-.92-1.8h-3.27Z" style="fill: #1a1a1a; stroke-width: 0px;"/>
          </g>
          <g>
            <path d="m73.93,151.36c-.61,4.14.08,13.85.14,18.03,1.48.46,2.12.4,3.68.32,1.45-4.2,4.07-13.73,4.08-18.14.01-5.56-7.6-2.19-7.89-.21Z" style="fill: #f4ccb5; stroke-width: 0px;"/>
            <polygon points="73.9 168.1 78.57 168.1 78.23 171.18 74.1 171.18 73.9 168.1" style="fill: #e6f1fc; stroke-width: 0px;"/>
            <path d="m78.09,170.16c.53,0,1.01.82,1.01,1.64s-.36,1.68-.69,1.68h-3.55c-.26,0-.96-.33-.96-1.53s.11-1.8.92-1.8h3.27Z" style="fill: #1a1a1a; stroke-width: 0px;"/>
          </g>
          <path d="m65.33,149.63c-.84-3.82-2.5-16.3-2.66-18.72-.01-3.78-.72-4.33,3.92-5.52,0,0,2.1,1.45,6.21,1.45s6.38-1.73,6.38-1.73c0,0,3.95,1.12,4.11,2.75.23,2.38-1.37,8.65-1.33,9.72.11,2.81-.03,9.44-.03,11.5,0,0-16.07,3.02-16.61.55Z" style="fill: #ebf4fd; stroke-width: 0px;"/>
          <path d="m82.79,132.79c-.84.35-1.87.13-2.11,1.01-.6,2.22-.52,6.44-1.49,7.41-.73.73-11.85.85-12.77.27-.52-.32-1.62-9.49-1.79-9.94-.18-.45-.08-.79-1.97-1.25,0,.2,0,.4,0,.62.16,2.42,1.82,14.9,2.66,18.72.54,2.47,16.61-.55,16.61-.55,0-2.06.15-8.69.03-11.5-.02-.57.43-2.63.81-4.79Z" style="fill: #cde3f9; stroke-width: 0px;"/>
          <g>
            <path d="m58.08,128.46c.77-2.41-.89-5.98-3.23-6.92,1.7-1.55,2.9-3.58,2.88-5.25-.01-1.62-.23-2.89-.95-3.78,0,0,.39-12.95-.98-18.13-1.37-5.18-13.44-5.18-13.44-5.18-3.1,3.53-5.02,9.39-4.9,14.09.09,3.59,1.43,7.18,3.77,9.88-.29.4-.52.85-.66,1.33-.41,1.39-.15,2.91.44,4.23,1.12,2.51,3.5,4.37,6.16,5.01-.3,2.12.3,4.39,1.74,5.94-.13,4.22-1.16,8.41-3.02,12.2,1.06-.05,2.12.02,3.17.2-.07.47-.14.93-.22,1.4,4.7.11,9.41-.25,14.04-1.06.01-5.01-1.71-10.01-4.78-13.96Z" style="fill: #be7b55; stroke-width: 0px;"/>
            <path d="m38.02,97.24c-.56,1.28-.95,2.63-1.13,4.01-.19,1.4-.18,2.81.01,4.21.19,1.31.56,2.57,1.08,3.78.5,1.15,1.16,2.23,1.93,3.22.76.98,1.65,1.87,2.64,2.63.13.1.26.2.39.29.16.12.43.03.52-.14.1-.2.04-.39-.14-.52-.06-.04-.12-.09-.18-.13-.03-.02-.06-.04-.09-.07,0,0-.1-.07-.04-.03-.12-.1-.25-.19-.37-.3-.23-.19-.46-.39-.68-.6-.44-.42-.85-.86-1.24-1.32-.21-.26-.32-.4-.52-.67-.18-.25-.35-.5-.51-.75-.32-.5-.61-1.02-.86-1.56-.06-.13-.12-.26-.18-.4-.01-.03-.03-.07-.04-.1,0,0-.05-.11-.02-.04-.03-.08-.06-.16-.1-.24-.11-.28-.22-.57-.31-.85-.2-.61-.36-1.24-.47-1.88-.11-.63-.18-1.23-.21-1.91-.03-.67,0-1.35.06-2.02.04-.39.08-.67.15-1.06.07-.37.15-.74.24-1.11.09-.37.2-.73.33-1.08.06-.18.13-.36.2-.53.03-.09.07-.18.11-.26.03-.08.04-.11.09-.21.08-.18.06-.42-.14-.52-.16-.09-.43-.06-.52.14h0Z" style="fill: #a86838; stroke-width: 0px;"/>
            <path d="m40.32,114.9c-.09,1.16.03,2.34.4,3.44.36,1.04.92,1.98,1.61,2.83.71.86,1.54,1.63,2.48,2.24,1,.65,2.11,1.13,3.26,1.46,1.27.36,2.61.55,3.93.49.2,0,.39-.17.38-.38,0-.2-.17-.39-.38-.38-.56.02-1.13,0-1.69-.06-.07,0-.13-.01-.2-.02-.03,0-.06,0-.09-.01.08.01-.04,0-.04,0-.15-.02-.3-.05-.45-.07-.28-.05-.56-.11-.84-.18-.57-.14-1.13-.32-1.67-.54-.02,0-.05-.02-.07-.03,0,0-.11-.05-.04-.02-.07-.03-.13-.06-.2-.09-.13-.06-.26-.12-.39-.19-.26-.13-.51-.26-.76-.41-.24-.14-.48-.3-.71-.46-.05-.03-.09-.07-.14-.1-.03-.02-.06-.04-.08-.06-.09-.07.06.05-.03-.03-.11-.09-.22-.17-.32-.26-.4-.35-.79-.73-1.14-1.13-.08-.09-.16-.18-.23-.27-.04-.05-.08-.1-.12-.15-.02-.03-.04-.05-.06-.08.04.05,0,0-.02-.03-.16-.21-.3-.42-.44-.64-.14-.22-.27-.44-.38-.67-.05-.11-.11-.21-.15-.32-.03-.06-.05-.12-.08-.18.03.08,0-.02-.01-.03-.01-.03-.02-.06-.04-.09-.22-.55-.37-1.12-.45-1.7,0-.01-.02-.12,0-.04,0-.05-.01-.09-.02-.14,0-.08-.02-.16-.02-.24-.01-.15-.02-.31-.03-.46,0-.33,0-.67.03-1,.02-.2-.19-.39-.38-.38-.22,0-.36.17-.38.38h0Z" style="fill: #a86838; stroke-width: 0px;"/>
            <path d="m52.08,123.04c1.69-.32,3.25-1.29,4.33-2.62,1.17-1.46,1.74-3.32,1.58-5.19-.09-1.08-.4-2.13-.94-3.07-.1-.17-.35-.25-.52-.14-.17.11-.24.33-.14.52.11.2.21.4.31.6,0,.01.06.14.04.08.02.05.04.1.06.16.04.11.08.22.12.34.07.21.13.42.17.63.02.1.04.21.06.31,0,.06.02.11.03.17,0,.02,0,.05.01.07,0,.02,0,.04,0,.06,0-.03,0-.04,0,0,.05.44.07.89.04,1.33,0,.11-.02.21-.03.32,0,.06-.01.11-.02.17,0-.02,0-.07,0,.01,0,.04-.01.07-.02.11-.04.22-.08.43-.14.64-.06.21-.12.42-.2.63-.02.05-.04.11-.06.16-.01.03-.02.06-.04.09,0,0-.03.07,0,.01-.04.1-.09.2-.13.29-.18.37-.39.72-.64,1.04-.01.02-.09.11-.04.06-.03.04-.06.07-.08.11-.07.08-.14.17-.21.25-.13.15-.27.29-.41.43-.15.14-.3.28-.46.4-.01,0-.12.09-.06.05-.04.03-.08.06-.12.09-.09.06-.18.13-.27.18-.19.13-.38.24-.58.35-.1.05-.2.1-.3.15-.05.02-.1.05-.15.07-.02,0-.04.02-.06.03-.07.03.05-.02-.03.01-.42.17-.86.3-1.3.39-.19.04-.32.28-.26.47.07.21.26.3.47.26h0Z" style="fill: #a86838; stroke-width: 0px;"/>
            <path d="m47.15,125.62c.03,1.26.42,2.51,1.12,3.56.69,1.03,1.66,1.86,2.79,2.37.66.3,1.34.48,2.06.56.2.02.39-.19.38-.38-.01-.22-.17-.35-.38-.38-.04,0-.07,0-.11-.01.08.01-.04,0-.05,0-.07-.01-.13-.02-.2-.03-.14-.03-.29-.06-.43-.1-.27-.07-.54-.16-.8-.27-.06-.03.08.04-.03-.01-.03-.01-.07-.03-.1-.04-.07-.03-.13-.06-.2-.09-.13-.07-.26-.14-.39-.21-.12-.07-.23-.14-.34-.22-.05-.03-.1-.07-.15-.11-.03-.02-.06-.04-.09-.07-.02-.01-.04-.03-.06-.04.03.02.02.02-.01,0-.22-.18-.43-.36-.63-.57-.09-.1-.19-.2-.27-.31-.04-.05-.08-.1-.12-.15.04.05-.03-.04-.03-.04-.03-.04-.06-.08-.09-.12-.17-.24-.32-.48-.45-.74-.06-.12-.12-.25-.18-.37,0,0-.05-.12-.02-.05,0-.02-.02-.05-.03-.07-.03-.08-.06-.16-.09-.25-.11-.31-.19-.62-.25-.95-.01-.07-.03-.15-.04-.22,0,0-.02-.13,0-.05,0-.05-.01-.1-.02-.15-.02-.16-.03-.33-.03-.49,0-.2-.17-.39-.38-.38-.2,0-.38.17-.38.38h0Z" style="fill: #a86838; stroke-width: 0px;"/>
            <path d="m50.08,121.64c-1.11-1.19-2.49-2.1-4-2.69-.19-.07-.42.08-.47.26-.05.22.07.39.26.47.1.04.19.07.29.11-.05-.02.06.02.07.03.04.02.08.04.12.06.18.08.35.16.52.25.34.18.66.37.98.58.61.41,1.16.89,1.69,1.45.14.15.4.15.54,0,.14-.16.14-.38,0-.54h0Z" style="fill: #a86838; stroke-width: 0px;"/>
            <path d="m53.9,130.17s-.02-.09-.02-.14c0-.05,0-.05,0,0,0-.02,0-.05,0-.07,0-.08-.02-.17-.02-.25,0-.18,0-.36,0-.53,0-.05,0-.09.01-.14,0-.01.02-.16,0-.08.01-.08.03-.16.04-.25.03-.17.08-.35.13-.52.03-.08.05-.16.08-.24.02-.04.03-.09.05-.13-.03.07.03-.06.03-.07.07-.16.16-.32.25-.47.04-.07.09-.14.14-.21.03-.04.05-.08.08-.12.01-.02.03-.04.04-.06-.02.03-.02.03,0,0,.11-.14.23-.27.36-.39.14-.14.15-.4,0-.54-.15-.14-.38-.15-.54,0-1.16,1.13-1.67,2.82-1.38,4.4.04.2.28.32.47.26.21-.07.3-.26.26-.47h0Z" style="fill: #a86838; stroke-width: 0px;"/>
            <path d="m57.46,130.02c1.23-1.86,1.27-4.36.27-6.33-.28-.55-.64-1.05-1.08-1.48-.14-.14-.4-.15-.54,0-.14.15-.15.39,0,.54.09.09.18.19.27.28.04.04.07.08.1.12.02.02.04.05.06.08-.05-.07.03.04.04.05.15.2.29.42.41.64.06.11.11.22.17.33.02.05.05.11.07.16.03.06-.03-.08,0,.01.02.04.03.08.05.12.09.24.17.49.23.74.03.12.05.23.07.35.01.06.02.13.03.19,0,.02,0,.04,0,.06-.01-.1,0,.04,0,.06.03.26.04.52.04.77,0,.25-.02.5-.05.74.01-.09,0,.01,0,.03,0,.03-.01.06-.02.1,0,.06-.02.12-.03.17-.03.13-.06.26-.09.39-.04.13-.08.27-.13.4-.03.07-.05.14-.08.21,0,.02-.02.04-.02.06.03-.08-.02.04-.03.06-.12.27-.26.52-.42.76-.11.17-.04.43.14.52.19.1.4.04.52-.14h0Z" style="fill: #a86838; stroke-width: 0px;"/>
            <path d="m49.23,143.24c.88-2.47,1.41-5.06,1.6-7.67.05-.74.07-1.47.07-2.21,0-.2-.17-.39-.38-.38-.2,0-.38.17-.38.38.02,2.6-.31,5.11-.99,7.61-.19.7-.41,1.39-.65,2.07-.07.19.08.42.26.47.21.05.39-.06.47-.26h0Z" style="fill: #a86838; stroke-width: 0px;"/>
            <path d="m46.17,141.88c1.15-2.6,2.04-5.31,2.62-8.09.16-.78.31-1.57.42-2.36.03-.2-.05-.42-.26-.47-.18-.04-.43.05-.47.26-.42,2.78-1.12,5.51-2.1,8.14-.13.36-.27.72-.42,1.08-.15.37-.28.68-.45,1.05-.08.18-.06.42.14.52.16.09.43.06.52-.14h0Z" style="fill: #a86838; stroke-width: 0px;"/>
            <path d="m58.83,130.18c.74,1.51,1.35,3.01,1.89,4.62.53,1.59.95,3.22,1.25,4.87.18.95.3,1.82.4,2.75.02.2.16.39.38.38.19,0,.4-.17.38-.38-.18-1.71-.48-3.42-.9-5.09-.41-1.65-.93-3.27-1.56-4.84-.36-.91-.76-1.81-1.19-2.69-.09-.18-.35-.24-.52-.14-.18.12-.23.33-.14.52h0Z" style="fill: #a86838; stroke-width: 0px;"/>
            <path d="m60.35,142.42c.17-2.39-.26-4.8-1.21-6.99-.26-.61-.57-1.21-.92-1.78-.1-.17-.34-.25-.52-.14-.17.11-.25.34-.14.52.61,1.01,1.06,2,1.41,3.11.35,1.11.55,2.2.63,3.32.04.65.04,1.31,0,1.96-.01.2.18.39.38.38.22,0,.36-.17.38-.38h0Z" style="fill: #a86838; stroke-width: 0px;"/>
            <path d="m56.93,135.25c.29.73.54,1.49.72,2.26.09.38.17.76.24,1.15.07.4.11.7.15,1.11.04.45.07.89.08,1.34,0,.2.17.39.38.38.2,0,.38-.17.38-.38-.03-1.61-.29-3.23-.77-4.77-.13-.44-.29-.87-.46-1.29-.07-.18-.26-.33-.47-.26-.18.06-.34.27-.26.47h0Z" style="fill: #a86838; stroke-width: 0px;"/>
          </g>
          <g>
            <path d="m81.62,157.61c3.27-1.63,7.64-3.23,8.35-3.45-1.33-4.9-4.19-9.43-8.16-12.83-5.64,1.4-11.57,1.79-17.37,1.14-3.36,3.61-5.21,7.66-7.09,15.18,3.99,3.48,10.05,4.04,15.35,2.94,3.1-.64,6.12-1.59,8.93-2.99Z" style="fill: #0759b1; stroke-width: 0px;"/>
            <path d="m65.51,142.58c-.36-.03-.71-.07-1.07-.11-3.36,3.61-5.21,7.66-7.09,15.18,1.31,1.15,2.86,1.98,4.52,2.53-1.23-6.01.27-12.44,3.64-17.61Z" style="fill: #064e9c; stroke-width: 0px;"/>
            <path d="m82.56,142c2.67,3.83,4.47,8.43,4.89,13.08,1.26-.49,2.22-.83,2.52-.92-1.25-4.58-3.83-8.84-7.41-12.16Z" style="fill: #064e9c; stroke-width: 0px;"/>
            <path d="m64.98,125.8s.41,16.21.18,17.26l.71-.04s-.64-16.35-.51-17.29c.02-.15-.37.07-.37.07Z" style="fill: #0759b1; stroke-width: 0px;"/>
            <path d="m80.85,125.62s-.4,16.32-.69,17.35h.71s.16-16.23.33-17.17c.03-.15-.35-.18-.35-.18Z" style="fill: #0759b1; stroke-width: 0px;"/>
          </g>
          <g>
            <g>
              <path d="m68.02,134.57c.9.13,2.48.48,3.24.65.18.04.34-.1.3-.26-.04-.15-.05-.3-.06-.45-.15-2.55.28-5.18,1.11-7.62-1.19-.09-2.49.43-3.31,1.12-.98.82-1.48,1.94-1.82,3.05-.31,1.01-.5,2.04-.9,3.02-.06.15.05.31.22.33.41.04.81.1,1.21.16Z" style="fill: #0759b1; stroke-width: 0px;"/>
              <path d="m78.35,133.77c-.86.25-2.33.8-3.06,1.07-.18.07-.37-.05-.37-.23,0-.15-.01-.29-.03-.43-.39-2.48-1.26-4.9-2.57-7.14-.04-.06,0-.14.08-.15,1.12-.2,2.36.07,3.28.62,1.14.68,1.88,1.7,2.45,2.74.5.91.9,1.86,1.47,2.73.12.19.01.44-.22.5-.34.09-.69.18-1.02.28Z" style="fill: #0759b1; stroke-width: 0px;"/>
            </g>
            <path d="m79.24,124.86s.32-.17.65.45c1.02,1.93-5.37,5.96-5.37,5.96,0,0-.11-3.78-2.15-4.44,0,0,2.81-.32,4.56-.81,1.15-.32,2.31-1.16,2.31-1.16Z" style="fill: #cde3f9; stroke-width: 0px;"/>
            <path d="m66.42,125.02s-.38-.2-.62.45c-.78,2.15,4.82,5.8,4.82,5.8,0,0,.07-3.86,2.05-4.44,0,0-3.14-.33-4.33-.81-1.05-.42-1.91-1-1.91-1Z" style="fill: #cde3f9; stroke-width: 0px;"/>
          </g>
          <g>
            <g>
              <g>
                <path d="m97.83,105.18c.9-1.12,2.53-1.62,4.05-1.4,1.52.21,2.91,1.07,3.93,2.18,1.76,1.93,2.41,4.69,1.65,7.05-.76,2.36-2.89,4.23-5.45,4.79-1.37.3-2.88.23-4.18-.36-1.3-.59-2.36-1.73-2.64-3.05l2.64-9.2Z" style="fill: #f4ccb5; stroke-width: 0px;"/>
                <path d="m101.94,112.91c-.13-.14,0-.45.11-.87.12-.42.21-.98.09-1.55-.12-.57-.43-1.08-.7-1.44-.27-.37-.51-.62-.44-.79.03-.08.15-.13.33-.13.19,0,.44.07.73.21.29.15.6.38.87.71.27.33.49.75.59,1.23.1.48.05.94-.07,1.33-.12.38-.32.69-.54.91-.21.22-.43.35-.6.4-.17.05-.3.04-.37-.03Z" style="fill: #e6967a; stroke-width: 0px;"/>
              </g>
              <g>
                <path d="m49.51,98.76c-.33-1.4-1.58-2.55-3.05-3.02-1.46-.46-3.09-.3-4.49.27-2.42.98-4.2,3.19-4.54,5.65s.78,5.07,2.85,6.68c1.11.86,2.5,1.45,3.92,1.48,1.43.03,2.88-.54,3.7-1.61l1.6-9.44Z" style="fill: #f4ccb5; stroke-width: 0px;"/>
                <path d="m42.46,103.95c.18-.07.2-.4.28-.83.07-.43.24-.97.59-1.44.35-.46.85-.79,1.25-.99.4-.21.73-.33.74-.52,0-.09-.08-.18-.25-.26-.17-.08-.43-.13-.75-.12-.32,0-.7.09-1.09.27-.38.18-.77.47-1.07.86-.29.39-.46.83-.51,1.23-.05.4,0,.77.09,1.05.1.29.23.5.37.62.13.12.25.17.34.13Z" style="fill: #e6967a; stroke-width: 0px;"/>
              </g>
            </g>
            <path d="m81.99,125.99c3.95-1.33,8.19-3.29,11.63-5.99,2.99-2.35,4.97-5,6.66-7.73,1.24-2.66,9.02-24.29,2.41-29.06-5.68-4.05-8.43-4.62-21.23-7.51-12.86-3.01-19.13-2.61-27.34.91-8.88,3.81-9.39,24.62-8.91,28.05.52,3.6,1.45,7.23,3.61,10.64,2.49,3.92,6.16,6.94,9.71,8.99,3.58,2.06,7.38,3.14,11.45,3.38,4.07.24,8.04-.36,12.01-1.68Z" style="fill: #f4ccb5; stroke-width: 0px;"/>
            <path d="m102.7,83.21c-5.68-4.05-8.43-4.62-21.23-7.51-12.86-3.01-19.13-2.61-27.34.91-5.72,2.46-7.97,11.97-8.71,19.34,8.72-1.56,17.07-10.22,22.24-17.53,3.19,6.26,9.93,13.38,15.9,16.9.76.37,13.4,7.61,19.62,8.43,2.08-7.48,3.77-17.49-.47-20.55Z" style="fill: #e0a089; stroke-width: 0px;"/>
            <g>
              <path d="m104.32,77.57c-.58-1.07-1.22-2.1-1.94-3.1-.97-1.35-2.08-2.61-3.32-3.74-3.03-7.07-11.1-10.97-18.92-12.11-10.3-1.5-19.34,1.52-28.01,6.83-6.48,3.96-9,7.73-12.92,15.94-4.44,11.77-1.45,26.61-1.45,26.61,0,0,16.92-19.39,29.41-34.35,0,0,8.57,16.89,36.38,24.62l-.89,8.28s4.82-10.64,5-15.46c.18-5.04-.91-9.05-3.33-13.52Z" style="fill: #be7b55; stroke-width: 0px;"/>
              <path d="m105.35,71.09c-.16.04-.34,0-.46-.13-1.75-1.91-4.7-2.69-7.18-1.91-.24.08-.5-.06-.58-.3-.08-.24.06-.5.3-.58,2.84-.9,6.11-.03,8.13,2.17.17.19.16.48-.03.65-.06.05-.12.09-.19.11Z" style="fill: #a86838; stroke-width: 0px;"/>
              <path d="m96.04,67.26c-.11.03-.24.02-.35-.05-.22-.13-.29-.41-.16-.63,1.2-2.04,3.5-3.39,5.86-3.44.25,0,.46.2.47.45,0,.25-.2.46-.45.47-2.05.04-4.05,1.21-5.09,2.98-.06.11-.16.18-.28.21Z" style="fill: #a86838; stroke-width: 0px;"/>
              <path d="m66.85,72.81c1.26,2.19,2.71,4.26,4.31,6.22,1.65,2.02,3.45,3.92,5.38,5.69,1.96,1.8,4.06,3.47,6.25,4.98,2.17,1.5,4.45,2.85,6.82,4.01,2.33,1.15,4.75,2.13,7.24,2.88.3.09.6.18.9.26.47.13.68-.61.2-.74-2.44-.68-4.82-1.58-7.11-2.65-2.38-1.12-4.66-2.42-6.85-3.87-2.18-1.45-4.26-3.05-6.22-4.79-1.94-1.72-3.76-3.58-5.44-5.56-1.61-1.9-3.08-3.92-4.36-6.05-.15-.25-.3-.5-.45-.76-.24-.43-.9-.04-.66.39h0Z" style="fill: #a86838; stroke-width: 0px;"/>
              <path d="m66.82,72.71c.87,2.82,2.23,5.47,3.9,7.89,1.8,2.6,3.95,4.96,6.32,7.05,2.47,2.17,5.19,4.07,8.07,5.65,2.94,1.61,6.06,2.89,9.29,3.77,3.2.87,6.53,1.35,9.85,1.33.4,0,.79-.01,1.19-.03.21,0,.38-.17.39-.38,0-.2-.17-.39-.38-.39-3.25.14-6.51-.21-9.68-.97-3.19-.77-6.29-1.93-9.21-3.43-2.89-1.48-5.63-3.28-8.13-5.36-2.38-1.99-4.58-4.25-6.41-6.72-.89-1.2-1.71-2.47-2.42-3.78-.69-1.26-1.26-2.52-1.72-3.85-.11-.32-.22-.65-.32-.97-.14-.47-.88-.27-.74.2h0Z" style="fill: #a86838; stroke-width: 0px;"/>
              <path d="m66.82,73.45c-1.45,2.15-2.99,4.23-4.67,6.2-1.46,1.72-3.03,3.36-4.68,4.89-.77.72-1.56,1.41-2.37,2.09-.79.66-1.58,1.29-2.37,1.89-1.64,1.25-3.33,2.43-5.03,3.59-1.78,1.21-3.58,2.4-5.37,3.6-.23.16-.47.32-.7.47-.18.12-.26.36-.15.56.11.18.37.27.56.15,1.82-1.24,3.66-2.45,5.48-3.68,1.72-1.16,3.42-2.34,5.08-3.58,1.68-1.26,3.32-2.58,4.88-3.99,1.67-1.51,3.24-3.11,4.72-4.8,1.7-1.94,3.27-3.99,4.74-6.11.2-.29.39-.57.59-.86.12-.18.03-.45-.15-.55-.2-.12-.43-.03-.55.15h0Z" style="fill: #a86838; stroke-width: 0px;"/>
              <path d="m70.65,72.8c2.13,2.61,4.56,4.95,7.24,6.99,2.58,1.96,5.38,3.62,8.33,4.95,2.97,1.34,6.08,2.37,9.25,3.1,3.24.74,6.55,1.17,9.86,1.33.93.05,1.87.1,2.79.05.98-.06,1.99-.28,2.79-.89.7-.53,1.23-1.33,1.23-2.23,0-.75-.37-1.49-1.02-1.89-.32-.19-.7-.28-1.08-.27-.52.02-.53.83,0,.81.61-.02,1.06.35,1.22.89.09.29.09.57.01.87-.1.36-.31.67-.57.93-.63.62-1.5.87-2.36.94-.91.08-1.83.02-2.73-.02-3.19-.14-6.37-.54-9.49-1.22-3.05-.67-6.05-1.61-8.91-2.85-2.87-1.25-5.61-2.8-8.15-4.64-2.59-1.88-4.96-4.07-7.05-6.49-.27-.31-.53-.62-.79-.94-.14-.17-.43-.14-.57,0-.17.17-.14.4,0,.57h0Z" style="fill: #a86838; stroke-width: 0px;"/>
              <path d="m64.3,68.25c-.93,2.65-2.23,5.16-3.81,7.48-1.59,2.32-3.47,4.42-5.58,6.28-2.1,1.85-4.43,3.44-6.91,4.72-2.48,1.28-5.13,2.25-7.86,2.84-2.96.65-6.12.87-9.06.02-.36-.1-.71-.22-1.05-.36-.2-.08-.45.09-.5.28-.06.23.08.42.28.5,2.97,1.16,6.31,1.12,9.41.57,2.84-.5,5.61-1.43,8.21-2.66,2.6-1.24,5.03-2.81,7.25-4.64,2.22-1.84,4.2-3.95,5.9-6.27,1.7-2.32,3.1-4.85,4.14-7.54.13-.33.25-.67.37-1,.07-.21-.08-.44-.28-.5-.22-.06-.43.08-.5.28h0Z" style="fill: #a86838; stroke-width: 0px;"/>
            </g>
            <path d="m98.8,71c1.71,1.63,3.23,3.46,4.5,5.45,1.31,2.05,2.35,4.27,3.05,6.61.67,2.24,1.01,4.57.97,6.91-.04,2.14-.4,4.26-1,6.32-.66,2.25-1.58,4.41-2.63,6.51-.14.28-.28.56-.43.84-.1.18-.05.42.14.53.17.1.43.04.53-.14,1.13-2.17,2.15-4.41,2.9-6.74.68-2.11,1.12-4.3,1.24-6.52.12-2.35-.13-4.72-.72-6.99-.63-2.44-1.63-4.78-2.91-6.94-1.24-2.09-2.75-4.03-4.46-5.75-.21-.21-.42-.41-.63-.62-.36-.34-.9.2-.54.55h0Z" style="fill: #a86838; stroke-width: 0px;"/>
            <path d="m94.59,64.24c-4.16-3.2-9.17-5.08-14.35-5.82-5.32-.75-10.79-.37-15.98.96-5.18,1.33-10.18,3.6-14.38,6.94-4.25,3.38-7.65,7.82-9.89,12.76-2.23,4.9-3.36,10.31-3.07,15.69.03.66.09,1.32.17,1.98.06.48.81.49.76,0-.61-5.25.15-10.59,2.05-15.5,1.91-4.95,4.99-9.47,8.92-13.03,3.92-3.55,8.69-6.03,13.73-7.57,5.03-1.54,10.36-2.17,15.6-1.72,5.08.44,10.12,1.95,14.4,4.76.52.34,1.02.7,1.51,1.08.38.29.92-.24.53-.54h0Z" style="fill: #a86838; stroke-width: 0px;"/>
            <g>
              <g>
                <ellipse cx="87.15" cy="108.81" rx="6.39" ry="7.45" transform="translate(-29.99 184.4) rotate(-84.14)" style="fill: #e88f6d; stroke-width: 0px;"/>
                <ellipse cx="56.54" cy="105.46" rx="6.39" ry="7.68" transform="translate(-54.14 150.94) rotate(-84.14)" style="fill: #e88f6d; stroke-width: 0px;"/>
              </g>
              <g>
                <ellipse cx="61.09" cy="95.92" rx="6.79" ry="5.73" transform="translate(-40.9 146.23) rotate(-83.76)" style="fill: #fff; stroke-width: 0px;"/>
                <g>
                  <ellipse cx="61.17" cy="96.33" rx="5.85" ry="5.1" transform="translate(-41.23 146.67) rotate(-83.76)" style="fill: #7e4f37; stroke-width: 0px;"/>
                  <path d="m59.59,94.76c-.05-.19-.25-.32-.55-.3-.3.01-.68.18-1.01.52-.33.34-.52.76-.57,1.09-.05.34.04.58.19.66.16.08.37.01.57-.12.21-.13.43-.32.65-.54.22-.22.41-.45.55-.67.14-.22.22-.44.17-.64Z" style="fill: #fff; stroke-width: 0px;"/>
                </g>
              </g>
              <g>
                <ellipse cx="84.83" cy="98.52" rx="6.79" ry="5.73" transform="translate(-22.32 172.14) rotate(-83.76)" style="fill: #fff; stroke-width: 0px;"/>
                <g>
                  <ellipse cx="84.79" cy="98.91" rx="5.85" ry="5.1" transform="translate(-22.74 172.45) rotate(-83.76)" style="fill: #7e4f37; stroke-width: 0px;"/>
                  <path d="m86.67,97.72c.09-.18.31-.26.6-.18.29.08.63.33.88.72.25.4.35.85.32,1.19-.02.34-.16.56-.33.6-.18.05-.36-.07-.53-.24-.18-.17-.35-.4-.51-.67-.17-.27-.3-.53-.39-.77-.08-.24-.12-.48-.03-.66Z" style="fill: #fff; stroke-width: 0px;"/>
                </g>
              </g>
              <path d="m74.64,103.43c.12.13.14.33.08.5-.02.05-.04.11-.07.16-.03.06-.07.11-.12.17-.11.12-.24.23-.39.31-.08.05-.17.08-.26.12-.09.04-.2.06-.3.09-1.77.35-3.25-1.42-2.6-3.1.04-.1.09-.2.14-.28.05-.09.1-.17.17-.24.11-.13.23-.24.37-.33.06-.04.12-.07.18-.09.06-.02.12-.04.17-.04.65-.1.63.67.77,1.1,0,.04.03.08.04.12.01.04.03.08.04.11.05.13.11.27.19.37.03.04.06.08.08.1.03.03.05.06.09.1.09.1.21.18.33.25.03.02.07.04.1.06.03.02.07.04.11.06.28.15.64.21.87.45Z" style="fill: #f1775b; stroke-width: 0px;"/>
              <path d="m64.69,107.59c3.7,2.54,8.61,2.87,12.58.75,1.06-.56,2.03-1.27,2.87-2.12.34-.34-.13-.94-.47-.59-2.92,2.91-7.26,4.08-11.23,2.91-1.17-.35-2.28-.87-3.29-1.56-.4-.28-.85.33-.45.61h0Z" style="fill: #b83e3e; stroke-width: 0px;"/>
              <path d="m82.77,89.01c2.49.16,4.89,1.2,6.68,2.95.33.33.91-.13.57-.46-1.92-1.89-4.47-3.05-7.17-3.22-.47-.03-.55.7-.08.73h0Z" style="fill: #935c33; stroke-width: 0px;"/>
              <path d="m58.35,88.21c2.27-1.04,4.88-1.25,7.28-.55.45.13.74-.54.29-.68-2.59-.76-5.39-.58-7.84.54-.43.2-.16.88.27.68h0Z" style="fill: #935c33; stroke-width: 0px;"/>
            </g>
          </g>
          <g>
            <g>
              <g>
                <path d="m72.83,136.77s.14-3.82.13-4.11-.59-.06-.64.48c-.05.53.08,3.32.51,3.63Z" style="fill: #e6967a; stroke-width: 0px;"/>
                <path d="m72.56,135.91s.25-4.24.44-5.14c.22-1.02-.61-1.53-.7-.71-.08.82-.73,5.51-.74,5.73-.01.21.72.81,1,.12Z" style="fill: #e6967a; stroke-width: 0px;"/>
                <path d="m72.26,136.21s.06-4.6.35-5.52c.19-.58-.26-1.33-.54-.48-.15.45-.78,3.46-1.15,5.07-.29,1.25.6,2.66.59,2.79,0,0,.51-1.14.75-1.86Z" style="fill: #e8c2ac; stroke-width: 0px;"/>
                <path d="m72.08,138.99c-.86.26-1.24-.04-1.25-1.03,0-.98,1.46-6.14,1.47-6.79,0-.65.55-.01.52.55-.03.57-.26,2.8-.1,3.56.16.76.31,3.42-.63,3.71Z" style="fill: #f4ccb5; stroke-width: 0px;"/>
              </g>
              <g>
                <path d="m73.02,136.77s-.14-3.82-.13-4.11.59-.06.64.48-.08,3.32-.51,3.63Z" style="fill: #e6967a; stroke-width: 0px;"/>
                <path d="m73.28,135.91s-.25-4.24-.44-5.14c-.22-1.02.61-1.53.7-.71.08.82.73,5.51.74,5.73s-.72.81-1,.12Z" style="fill: #e6967a; stroke-width: 0px;"/>
                <path d="m73.59,136.21s-.06-4.6-.35-5.52c-.19-.58.26-1.33.54-.48.15.45.78,3.46,1.15,5.07.29,1.25-.6,2.66-.59,2.79,0,0-.51-1.14-.75-1.86Z" style="fill: #e8c2ac; stroke-width: 0px;"/>
                <path d="m73.77,138.99c.86.26,1.24-.04,1.25-1.03,0-.98-1.46-6.14-1.47-6.79,0-.65-.55-.01-.52.55.03.57.26,2.8.1,3.56-.16.76-.31,3.42.63,3.71Z" style="fill: #f4ccb5; stroke-width: 0px;"/>
              </g>
            </g>
            <g>
              <path d="m83.01,127.13c.79,1.52,1.64,6.83,1.89,8.5.33,2.25-1.95,3.55-3.4,3.78-2.31.36-6.27.45-6.52.19s-.31-3.07-.31-3.67.45-.7.99-.81c.49-.1,2.82.11,4.7-.34.32-.97.68-4.56.84-5.72.12-.92,1.34-2.84,1.81-1.93Z" style="fill: #ebf4fd; stroke-width: 0px;"/>
              <path d="m74.67,135.92c0,.6.05,3.42.31,3.67.16.16,1.8.19,3.57.09-1-.03-2.23-.06-3.06-.43-.82-.36-.82-3.66-.82-3.34Z" style="fill: #cde3f9; stroke-width: 0px;"/>
              <path d="m84.9,135.63c-.08-.51-.21-1.36-.38-2.35.1,2.23.68,4.25-1.46,5.36-.57.3-2.47.83-3.13.95.56-.05,1.1-.11,1.57-.19,1.45-.23,3.74-1.53,3.4-3.78Z" style="fill: #cde3f9; stroke-width: 0px;"/>
              <path d="m80.74,135.07c.09.24-.09,1.77.13,1.77s.04-5.64.5-8.38c-.09.21-.15.42-.17.59-.16,1.15-.52,4.75-.84,5.72-.38.09-.78.16-1.18.2.21.11.34.04.82-.02.49-.06.65-.13.74.12Z" style="fill: #cde3f9; stroke-width: 0px;"/>
            </g>
            <g>
              <path d="m62.84,127.13c-.79,1.52-1.64,6.83-1.89,8.5-.33,2.25,1.95,3.55,3.4,3.78,2.31.36,6.27.45,6.52.19s.31-3.07.31-3.67-.45-.7-.99-.81c-.49-.1-2.82.11-4.7-.34-.32-.97-.68-4.56-.84-5.72-.12-.92-1.34-2.84-1.81-1.93Z" style="fill: #ebf4fd; stroke-width: 0px;"/>
              <path d="m71.18,135.92c0,.6-.05,3.42-.31,3.67-.16.16-1.8.19-3.57.09,1-.03,2.23-.06,3.06-.43.82-.36.82-3.66.82-3.34Z" style="fill: #cde3f9; stroke-width: 0px;"/>
              <path d="m60.95,135.63c.08-.51.21-1.36.38-2.35-.1,2.23-.94,3.79,1.46,5.36.54.35,2.47.83,3.13.95-.56-.05-1.1-.11-1.57-.19-1.45-.23-3.74-1.53-3.4-3.78Z" style="fill: #cde3f9; stroke-width: 0px;"/>
              <path d="m65.11,135.07c-.09.24.09,1.77-.13,1.77s-.04-5.64-.5-8.38c.09.21.15.42.17.59.16,1.15.52,4.75.84,5.72.38.09.78.16,1.18.2-.21.11-.34.04-.82-.02-.49-.06-.65-.13-.74.12Z" style="fill: #cde3f9; stroke-width: 0px;"/>
            </g>
          </g>
        </g>
      </g>
    </g>
  </g>
</svg>