<?xml version="1.0" encoding="UTF-8"?>
<svg id="_圖層_2" data-name="圖層 2" xmlns="http://www.w3.org/2000/svg" width="218.01" height="218.02" viewBox="0 0 218.01 218.02">
  <g id="_圖層_8" data-name="圖層 8">
    <g id="Topic_exploration11">
      <g>
        <path d="m109.01,0c-1.59,0-3.21.03-4.8.1l.35,8c.38-.02.77-.03,1.15-.04,0,0,0,0,.01,0,0,0,.02,0,.02,0,0,0,.01,0,.02,0,0,0,.01,0,.02,0,0,0,.01,0,.02,0,0,0,.01,0,.02,0,.01,0,.01,0,.02,0,0,0,0,0,0,0,.03,0,.06,0,.1,0,0,0,0,0,0,0,.01,0,.02,0,.03,0,0,0,0,0,0,0,.64-.02,1.27-.03,1.91-.04,0,0,0,0,0,0,.01,0,.02,0,.03,0h0s.02,0,.03,0h0s.09,0,.13,0c0,0,0,0,0,0,.01,0,.02,0,.03,0,0,0,0,0,0,0,0,0,.02,0,.03,0,0,0,0,0,.01,0,0,0,.02,0,.02,0,0,0,0,0,.01,0,.01,0,.02,0,.03,0,0,0,0,0,0,0,.02,0,.04,0,.06,0h0s.02,0,.03,0c0,0,0,0,.01,0,0,0,.02,0,.02,0,0,0,.01,0,.02,0,0,0,.01,0,.02,0,0,0,.01,0,.02,0,0,0,.01,0,.02,0,0,0,.01,0,.02,0,0,0,.01,0,.02,0,0,0,.02,0,.02,0,0,0,.01,0,.02,0,.01,0,.02,0,.03,0,0,0,.01,0,.02,0,0,0,.02,0,.02,0,0,0,.01,0,.02,0,0,0,.01,0,.02,0,0,0,0,0,.02,0,0,0,.01,0,.02,0,0,0,0,0,.02,0,0,0,.02,0,.03,0,0,0,0,0,.01,0,.01,0,.02,0,.03,0h.01s.02,0,.03,0h.01s.02,0,.02,0h.02s.02,0,.02,0h.04s0,0,.02,0h.08V0h0Zm-7.67.27c-1.59.11-3.2.26-4.78.44l.91,7.96c.83-.09,1.66-.18,2.49-.25h0s.02,0,.04,0h0s.02,0,.03,0h0s.02,0,.03,0h0s.02,0,.03,0c0,0,0,0,0,0,.03,0,.05,0,.08,0,0,0,0,0,.01,0,0,0,.02,0,.03,0,0,0,.01,0,.01,0,0,0,.01,0,.02,0,0,0,.01,0,.02,0,0,0,.01,0,.02,0,0,0,.02,0,.02,0,0,0,0,0,.01,0,.01,0,.01,0,.02,0h.01s.06,0,.09,0c0,0,0,0,0,0,.01,0,.02,0,.03,0,0,0,0,0,0,0,.01,0,.02,0,.03,0,0,0,0,0,0,0,.01,0,.02,0,.03,0,0,0,0,0,0,0,.44-.04.88-.07,1.32-.1l-.56-7.99h0Zm-7.64.8c-1.58.22-3.17.48-4.74.77l1.46,7.87c1.45-.27,2.92-.51,4.39-.72l-1.12-7.93h0Zm-7.57,1.34c-1.56.33-3.13.71-4.67,1.11l2.02,7.75c1.05-.27,2.1-.53,3.16-.77,0,0,0,0,.01,0,0,0,.01,0,.02,0,0,0,.01,0,.02,0,0,0,.01,0,.02,0,0,0,.01,0,.02,0,0,0,0,0,.02,0,0,0,.02,0,.02,0,0,0,0,0,.01,0h.02s0,0,.01,0c.33-.07.66-.15.99-.22l-1.67-7.83h0Zm-7.45,1.87c-1.53.44-3.07.93-4.58,1.44l2.56,7.59c.51-.17,1.02-.34,1.54-.51,0,0,0,0,.01,0,.02,0,.04-.01.06-.02,0,0,.02,0,.02,0,.01,0,.02,0,.04-.01.01,0,.02,0,.04-.01,0,0,.01,0,.02,0,.02,0,.04-.01.05-.02,0,0,.01,0,.02,0,.02,0,.03-.01.05-.02,0,0,0,0,.01,0,.02,0,.04-.01.06-.02,0,0,0,0,0,0,.77-.24,1.55-.48,2.33-.7l-2.22-7.69h0Zm-7.3,2.4c-1.5.55-3,1.14-4.47,1.76l3.1,7.39c.75-.31,1.5-.62,2.25-.91t0,0s.04-.02.06-.02c0,0,0,0,0,0,.02,0,.04-.01.06-.02,0,0,0,0,.01,0,.02,0,.04-.01.05-.02,0,0,.01,0,.02,0,.02,0,.03-.01.04-.02,0,0,.02,0,.03-.01,0,0,.03-.01.03-.01.01,0,.02,0,.04-.01.01,0,.02,0,.03-.01.01,0,.02,0,.03-.01,0,0,0,0,.01,0,.02,0,.04-.02.06-.02h0c.47-.18.94-.36,1.41-.53l-2.76-7.52h0Zm-7.11,2.91c-1.45.65-2.91,1.35-4.33,2.07l3.61,7.15c.14-.07.29-.15.43-.22h0s.04-.02.06-.03c0,0,0,0,0,0,.02,0,.03-.02.05-.03,0,0,0,0,0,0,.02,0,.04-.02.06-.03h0s.03-.02.05-.03c0,0,0,0,.01,0,.02,0,.03-.02.05-.02,0,0,.01,0,.02,0,.01,0,.03-.02.05-.02,0,0,.01,0,.02,0,.01,0,.03-.02.04-.02,0,0,.01,0,.02,0,.01,0,.03-.01.04-.02,0,0,.02,0,.02-.01.01,0,.02-.01.03-.02.01,0,.02-.01.03-.02,0,0,.02-.01.03-.02,0,0,.02,0,.03-.01.01,0,.02-.01.04-.02,0,0,.02,0,.02-.01.01,0,.03-.01.04-.02,0,0,.02,0,.02-.01.01,0,.02-.01.03-.02.01,0,.02-.01.03-.02,0,0,.02,0,.03-.01.01,0,.03-.01.04-.02,0,0,.02,0,.03-.01.01,0,.02-.01.04-.02,0,0,.02-.01.03-.01,0,0,.02,0,.03-.01.01,0,.03-.01.04-.02,0,0,.02,0,.03-.01.01,0,.03-.01.04-.02,0,0,.02,0,.03-.01.01,0,.02,0,.03-.01.01,0,.02-.01.03-.02,0,0,.02,0,.03-.01.01,0,.02-.01.03-.02,0,0,.02-.01.03-.01.01,0,.02,0,.03-.01.01,0,.02-.01.03-.02,0,0,.02,0,.02-.01.01,0,.03-.01.04-.02,0,0,.02,0,.03-.01.01,0,.02-.01.04-.02,0,0,.02,0,.03-.01,0,0,.02-.01.03-.01.01,0,.02-.01.03-.02,0,0,.02,0,.03-.01.01,0,.02,0,.03-.01.01,0,.02-.01.04-.02,0,0,.02,0,.02-.01.01,0,.03-.01.04-.02,0,0,.01,0,.02-.01.01,0,.03-.01.04-.02,0,0,.01,0,.02,0,.01,0,.03-.01.04-.02,0,0,.01,0,.02-.01.01,0,.03-.01.04-.02,0,0,.01,0,.02,0,.01,0,.03-.01.04-.02,0,0,.01,0,.02,0,.01,0,.03-.01.05-.02,0,0,.01,0,.02,0,.02,0,.03-.01.05-.02,0,0,.01,0,.02,0,.01,0,.03-.02.05-.02,0,0,0,0,.01,0,.01,0,.03-.02.05-.02,0,0,0,0,.01,0,.01,0,.04-.02.05-.02,0,0,0,0,.01,0,.02,0,.04-.02.05-.02,0,0,0,0,.01,0,.02,0,.04-.02.05-.02,0,0,0,0,.01,0,.02,0,.03-.02.05-.03,0,0,0,0,0,0,.02,0,.04-.02.06-.03,0,0,0,0,0,0,.02,0,.04-.02.06-.03,0,0,0,0,0,0,.02,0,.04-.02.06-.03,0,0,0,0,0,0,.02,0,.04-.02.06-.03,0,0,0,0,0,0,.02,0,.04-.02.06-.03,0,0,0,0,0,0,.02,0,.04-.02.06-.03h0s.08-.04.12-.06c0,0,0,0,0,0,.02,0,.04-.02.06-.03,0,0,0,0,0,0,.02,0,.04-.02.06-.03,0,0,0,0,0,0,.08-.04.17-.08.25-.11,0,0,0,0,0,0,.02,0,.04-.02.06-.03,0,0,0,0,0,0,.02,0,.04-.02.06-.03,0,0,0,0,0,0,.02,0,.04-.02.06-.03l-3.29-7.3h0Zm-6.89,3.4c-1.4.76-2.81,1.55-4.18,2.37l4.11,6.88c1.16-.69,2.34-1.36,3.53-2.01,0,0,0,0,0,0,.02,0,.03-.02.05-.03,0,0,.01,0,.02-.01.01,0,.02-.01.04-.02.01,0,.02,0,.03-.02,0,0,.02,0,.02-.01.01,0,.03-.02.04-.02,0,0,.01,0,.02,0,.01,0,.03-.02.05-.03,0,0,0,0,.01,0,.02,0,.04-.02.05-.03,0,0,0,0,0,0l-3.8-7.05h0Zm-6.63,3.88c-1.35.85-2.69,1.75-4,2.66l4.58,6.57s.01,0,.02-.01c0,0,.02-.01.02-.02.01,0,.02-.01.03-.02.01,0,.02-.01.03-.02,0,0,.01,0,.02-.01.01,0,.03-.02.04-.03,0,0,.01,0,.02-.01.02-.01.03-.02.04-.03,0,0,0,0,.01,0,.02-.01.03-.02.05-.03,0,0,0,0,0,0,.02-.01.03-.02.05-.03,0,0,0,0,0,0,.04-.03.07-.05.11-.08,0,0,0,0,0,0,.02-.01.04-.03.06-.04,0,0,0,0,0,0,.02-.01.04-.03.06-.04,0,0,0,0,0,0,.65-.44,1.3-.88,1.96-1.31,0,0,0,0,0,0,.02-.01.04-.02.05-.03,0,0,0,0,0,0,.02-.01.03-.02.05-.03,0,0,0,0,.01,0,.02-.01.03-.02.05-.03,0,0,0,0,.01,0,.01,0,.03-.02.04-.03,0,0,.01,0,.02-.01.01,0,.02-.01.04-.02,0,0,.01,0,.02-.01.01,0,.02-.01.04-.02l.02-.02s.02-.02.04-.02c0,0,.02-.01.03-.02,0,0,.01,0,.02-.01.02-.01.03-.02.05-.03,0,0,0,0,0,0,.02-.01.04-.02.06-.04h0c.2-.13.41-.26.62-.4l-4.29-6.77h0Zm-6.34,4.34c-1.28.94-2.56,1.93-3.8,2.93l5.03,6.23c.29-.23.58-.46.87-.69,0,0,0,0,0,0,.01-.01.04-.03.05-.04,0,0,0,0,0,0,.02-.01.03-.02.05-.04,0,0,0,0,0,0,.01-.01.03-.03.05-.04,0,0,0,0,0,0,.01-.01.03-.03.05-.04,0,0,0,0,0,0,.01-.01.03-.02.05-.04,0,0,0,0,0,0,.01,0,.03-.02.04-.03,0,0,0,0,.01,0,.01-.01.03-.02.04-.03,0,0,0,0,.01-.01.02-.01.03-.02.04-.03,0,0,.01,0,.02-.01.01,0,.03-.02.04-.03,0,0,.01,0,.02-.01.01,0,.03-.02.04-.03,0,0,.01,0,.02-.01.01,0,.02-.02.03-.03,0,0,.02-.01.02-.02.01,0,.02-.02.03-.02,0,0,.02-.01.02-.02.01,0,.02-.02.03-.02,0,0,.01-.01.02-.02.01,0,.02-.02.03-.03,0,0,.02-.01.02-.02.01,0,.02-.02.03-.03,0,0,.02-.01.02-.02.01,0,.01-.01.02-.02.01,0,.02-.02.03-.03,0,0,.01,0,.02-.02.01,0,.03-.02.04-.03,0,0,.01-.01.02-.01.01,0,.03-.02.04-.03,0,0,.01,0,.02-.01.01,0,.03-.02.04-.03,0,0,.01-.01.02-.01,0,0,.02-.01.03-.02,0,0,.01-.01.02-.02.01,0,.02-.02.04-.03,0,0,.01,0,.01-.01.01-.01.03-.02.04-.03,0,0,0,0,.01-.01.02-.01.03-.02.05-.04,0,0,0,0,.01,0,.02-.01.03-.03.05-.04,0,0,0,0,0,0,.07-.05.14-.11.21-.16h0c.36-.27.72-.55,1.09-.81l-4.75-6.45h0Zm-6.02,4.77c-1.21,1.03-2.42,2.11-3.59,3.19l5.45,5.87c.87-.81,1.76-1.61,2.66-2.39h0s.04-.03.05-.05h0s.03-.03.05-.05c0,0,0,0,0,0,.01-.01.03-.03.04-.04,0,0,0,0,.01-.01,0,0,.02-.01.03-.02,0,0,.02-.02.03-.03,0,0,.01-.01.02-.02.01-.01.02-.02.03-.03,0,0,.01,0,.02-.01.01-.01.02-.02.03-.03,0,0,0,0,.01-.01.01-.01.03-.02.04-.03,0,0,0,0,0,0,.01-.01.03-.03.05-.04,0,0,0,0,0,0,.02-.01.03-.03.05-.04,0,0,0,0,0,0,.05-.05.11-.09.16-.14l-5.19-6.1h0Zm-5.67,5.18c-1.14,1.11-2.27,2.27-3.35,3.43l5.85,5.47c.78-.83,1.56-1.65,2.37-2.45,0,0,0,0,0,0l.05-.05s0,0,0,0c.02-.02.03-.03.04-.04h0s.03-.03.04-.05c0,0,0,0,.01-.01.01-.01.02-.02.03-.03,0,0,.01-.01.02-.02,0,0,.02-.02.03-.03,0,0,.01-.01.02-.02.01-.01.02-.02.03-.03,0,0,.02-.02.02-.02,0,0,0,0,0,0,.02-.02.03-.03.05-.05h0s.03-.04.05-.05h0c.11-.11.22-.21.33-.32l-5.61-5.72h0Zm-5.29,5.56c-1.06,1.19-2.1,2.42-3.11,3.66l6.22,5.05s.04-.05.06-.07c0,0,0,0,0-.01l.04-.04s.01-.02.02-.03c0,0,.01-.02.02-.02.01-.01.02-.02.03-.03,0,0,0-.01.01-.02.01-.01.02-.03.03-.04,0,0,0,0,0-.01.01-.01.03-.03.04-.05,0,0,0,0,0,0,.01-.02.03-.03.04-.05,0,0,0,0,0,0,.01-.02.03-.03.04-.05,0,0,0,0,0,0,.34-.41.68-.82,1.02-1.23,0,0,0,0,0,0,.01-.02.03-.03.04-.05,0,0,0,0,0,0,.01-.02.03-.03.04-.05h0s.03-.04.04-.05c0,0,0,0,0,0,.01-.02.03-.03.04-.05,0,0,0,0,0,0,.01-.01.03-.03.04-.04,0,0,0,0,0-.01.01-.01.02-.03.04-.04,0,0,0,0,.01-.01.01-.01.02-.03.03-.04,0,0,0-.01.01-.02.01-.01.02-.03.03-.04,0,0,.01-.01.02-.02,0,0,.02-.02.02-.03l.02-.03s.01-.01.02-.02c0-.01.02-.02.03-.03,0,0,.01-.01.02-.02,0-.01.02-.02.03-.03,0,0,.01-.02.02-.02.02-.03.05-.05.07-.08,0,0,0,0,0,0,.01-.02.03-.03.04-.05,0,0,0,0,0,0,.01-.02.03-.03.04-.05h0c.26-.31.53-.61.8-.92l-5.99-5.31h0Zm-4.89,5.92c-.97,1.26-1.93,2.57-2.84,3.87l6.56,4.6c.85-1.22,1.73-2.41,2.63-3.59l-6.35-4.88h0Zm-4.46,6.25c-.88,1.33-1.74,2.69-2.56,4.06l6.87,4.12c.14-.24.29-.48.43-.71,0,0,0,0,0,0,.01-.02.02-.04.04-.06,0,0,0,0,0,0,.01-.02.02-.04.03-.06,0,0,0,0,0,0,.01-.02.02-.04.04-.06,0,0,0,0,0,0,.02-.04.05-.08.07-.12,0,0,0,0,0,0,.01-.02.02-.04.03-.05,0,0,0,0,0,0,.01-.02.02-.04.03-.05,0,0,0,0,0,0,.01-.02.02-.03.03-.05,0,0,0,0,0,0,.01-.02.02-.04.03-.05,0,0,0,0,0,0,.01-.02.02-.03.03-.05,0,0,0,0,0,0,.01-.02.02-.03.03-.05,0,0,0,0,0,0,.01-.02.02-.03.03-.05,0,0,0,0,0-.01.01-.02.02-.03.03-.05h0s.02-.04.03-.06c0,0,0,0,0-.01.01-.02.02-.03.03-.05,0,0,0,0,0,0,.01-.02.02-.03.03-.05,0,0,0,0,0-.01.01-.02.02-.03.03-.05,0,0,0,0,0-.01,0-.01.02-.03.03-.05,0,0,0-.01,0-.02.01-.02.02-.03.03-.04,0,0,0-.01.01-.02,0-.01.02-.03.03-.04,0,0,0-.01.01-.02,0-.01.02-.03.03-.04,0,0,0-.01,0-.02,0-.01.02-.03.03-.04,0,0,0,0,0-.01.01-.02.02-.03.03-.04,0,0,0,0,0-.01,0-.01.02-.03.03-.04,0,0,0-.01.01-.02.01-.02.02-.03.03-.04v-.02s.03-.03.04-.05c0,0,0,0,0-.01,0-.01.02-.03.03-.04,0,0,0,0,0-.01,0-.01.02-.03.03-.04,0,0,0,0,0-.01.01-.02.02-.03.03-.05,0,0,0,0,0-.01.01-.02.02-.03.03-.05h0s.02-.04.03-.06c0,0,0,0,0-.01.01-.02.02-.03.03-.05,0,0,0,0,0-.01.01-.02.02-.03.03-.05,0,0,0,0,0,0,.01-.02.02-.03.03-.05,0,0,0,0,0,0,.01-.02.02-.03.03-.05,0,0,0,0,0-.01.01-.02.02-.03.03-.05,0,0,0,0,0-.01.01-.02.02-.03.03-.05,0,0,0,0,0,0,.01-.02.02-.04.03-.05,0,0,0,0,0,0,.02-.04.05-.08.07-.11,0,0,0,0,0,0,.01-.02.02-.04.04-.06,0,0,0,0,0,0,.01-.02.02-.04.04-.06,0,0,0,0,0,0,.13-.19.25-.39.38-.58l-6.68-4.42h0Zm-4.01,6.55c-.78,1.39-1.55,2.81-2.27,4.23l7.14,3.63s0,0,0,0c.45-.89.92-1.77,1.39-2.64h0s.02-.04.03-.06h0c.03-.06.07-.12.1-.18,0,0,0,0,0,0,.01-.02.02-.04.03-.06,0,0,0,0,0,0,0-.02.02-.04.03-.06,0,0,0,0,0,0,.01-.02.02-.04.03-.06,0,0,0,0,0,0,.03-.06.07-.12.1-.18,0,0,0,0,0,0,.01-.02.02-.04.03-.06,0,0,0,0,0,0,.11-.2.23-.4.34-.61l-6.97-3.94h0Zm-3.54,6.82c-.68,1.44-1.35,2.91-1.97,4.38l7.38,3.12c.58-1.37,1.18-2.72,1.82-4.06l-7.23-3.44h0Zm-3.05,7.05c-.58,1.48-1.14,3-1.65,4.51l7.58,2.58c.03-.1.07-.2.1-.3h0s.01-.04.02-.06c0,0,0-.01,0-.02,0-.01,0-.02.01-.03,0-.01,0-.02.01-.04,0,0,0-.02,0-.03,0-.02,0-.03.01-.04,0,0,0-.02,0-.02,0-.01.01-.03.02-.04,0,0,0-.01,0-.02,0-.02.01-.03.02-.05,0,0,0,0,0-.01,0-.02.01-.04.02-.06,0,0,0,0,0,0,0-.02.01-.04.02-.06,0,0,0,0,0,0,0-.02.01-.04.02-.06,0,0,0,0,0,0,.26-.74.53-1.48.81-2.22,0,0,0,0,0,0,0-.02.02-.04.02-.06,0,0,0,0,0,0,0-.02.02-.04.02-.06,0,0,0,0,0,0,0-.02.02-.04.02-.06,0,0,0,0,0,0,0-.02.01-.04.02-.06,0,0,0,0,0-.01,0-.02.01-.03.02-.05v-.02s.02-.03.03-.05c0,0,0-.01,0-.02,0-.01,0-.02.01-.04,0-.01,0-.02.01-.03,0,0,0-.02.01-.03,0-.02.01-.03.02-.05,0,0,0-.01,0-.02.07-.18.14-.36.21-.54l-7.46-2.92h0Zm-2.54,7.25c-.47,1.52-.92,3.08-1.33,4.62l7.74,2.04c.38-1.44.79-2.86,1.23-4.28l-7.65-2.38h0Zm-2.02,7.41c-.36,1.55-.7,3.13-1,4.7l7.87,1.49c.05-.26.1-.51.15-.77h0s0-.03,0-.04h0s0-.02,0-.04h0s0-.02,0-.03c0,0,0,0,0-.01,0,0,0-.01,0-.02,0-.01,0-.02,0-.04,0,0,0,0,0-.01,0,0,0-.02,0-.02,0,0,0,0,0-.01,0,0,0-.02,0-.03,0,0,0,0,0,0,0,0,0-.02,0-.03,0,0,0,0,0,0,0,0,0-.02,0-.03,0,0,0,0,0,0,.15-.77.32-1.54.49-2.31,0,0,0,0,0,0,0-.02.01-.05.02-.07h0c.02-.09.04-.18.06-.27h0c.05-.2.09-.41.14-.61l-7.8-1.83h0Zm-1.49,7.54c-.25,1.57-.48,3.17-.66,4.76l7.96.93c.07-.63.15-1.27.24-1.9,0,0,0,0,0,0,0,0,0-.02,0-.03,0,0,0,0,0,0,0,0,0-.02,0-.03,0,0,0,0,0,0,0,0,0-.02,0-.03,0,0,0,0,0,0,0-.04.01-.08.02-.13h0s0-.02,0-.03c0,0,0,0,0-.01,0,0,0-.01,0-.02,0,0,0-.01,0-.02,0,0,0-.01,0-.02,0,0,0,0,0-.01,0,0,0-.01,0-.02,0,0,0,0,0-.01,0-.04.01-.08.02-.12,0,0,0,0,0-.01,0,0,0-.01,0-.02,0,0,0,0,0-.01,0,0,0-.01,0-.02,0,0,0-.01,0-.02,0,0,0-.01,0-.02,0,0,0-.01,0-.02,0,0,0-.01,0-.02,0,0,0,0,0-.01,0,0,0-.02,0-.02,0,0,0,0,0,0,0-.02,0-.04,0-.06,0,0,0,0,0,0,0,0,0-.02,0-.03,0,0,0,0,0,0,0,0,0-.01,0-.02,0,0,0,0,0-.01,0,0,0-.01,0-.02,0,0,0-.01,0-.02,0,0,0-.02,0-.02,0,0,0,0,0-.01,0,0,0-.02,0-.03,0,0,0,0,0,0,0-.05.02-.11.02-.16,0,0,0,0,0,0,0,0,0-.02,0-.03,0,0,0,0,0,0,0,0,0-.02,0-.03,0,0,0,0,0,0,.07-.44.13-.89.21-1.33l-7.91-1.28h0Zm-.96,7.62c-.14,1.58-.25,3.2-.33,4.79l8,.37c.03-.72.07-1.45.12-2.16,0,0,0,0,0,0,0-.01,0-.02,0-.03,0,0,0,0,0-.01,0,0,0-.02,0-.03,0,0,0,0,0-.02,0,0,0-.01,0-.02,0,0,0-.01,0-.02,0,0,0-.01,0-.02,0-.04,0-.08,0-.13,0,0,0,0,0,0,0-.01,0-.02,0-.03,0,0,0,0,0,0,0-.01,0-.02,0-.03,0,0,0,0,0,0,.04-.63.1-1.27.15-1.9,0,0,0,0,0,0,0,0,0-.02,0-.02,0,0,0,0,0-.01l-7.98-.72H.44Zm-.42,7.66c-.01.74-.02,1.47-.02,2.21,0,.86.01,1.72.03,2.58l8.01-.19c0-.2,0-.4-.01-.59h0s0-.02,0-.03c0,0,0-.01,0-.02,0,0,0-.01,0-.02,0,0,0-.02,0-.02,0,0,0,0,0-.01,0-.01,0-.02,0-.03h0s0-.03,0-.04h0c0-.43-.01-.85-.01-1.27h0s0-.03,0-.04h0s0-.03,0-.04h0v-.04s0,0,0-.01v-.03h0s0-.03,0-.04h0v-.04h0s0-.03,0-.04v-.04h0v-.05h0v-.06h0s0-.05,0-.07h0v-.06s0-.01,0-.02v-.05s0-.01,0-.02c0-.01,0-.02,0-.04v-.02s0-.03,0-.05v-.03s0-.02,0-.03c0-.02,0-.03,0-.05,0,0,0-.01,0-.02,0-.01,0-.02,0-.03h0s0-.05,0-.08h0c0-.45,0-.89.02-1.34,0-.01,0-.02,0-.03,0,0,0-.02,0-.02,0-.02,0-.04,0-.05,0,0,0,0,0,0l-8.01-.16H.02Zm8.11,7.28l-8,.4c.08,1.59.19,3.2.34,4.79l7.97-.74c-.03-.34-.06-.69-.09-1.03,0,0,0,0,0,0,0,0,0-.02,0-.03,0,0,0,0,0,0,0-.01,0-.02,0-.03,0,0,0-.01,0-.02,0,0,0-.02,0-.02,0,0,0-.02,0-.03,0,0,0,0,0,0,0-.01,0-.03,0-.04h0s0-.03,0-.04h0s0-.03,0-.04h0c-.08-1.05-.15-2.09-.2-3.15h0Zm.6,7.09l-7.95.95c.19,1.58.42,3.18.68,4.75l7.9-1.3c-.24-1.46-.45-2.93-.63-4.41h0Zm1.1,7.03l-7.86,1.51c.3,1.57.64,3.15,1.01,4.7l7.79-1.86c-.11-.45-.21-.89-.31-1.34h0s0-.03,0-.04h0s-.01-.05-.02-.08c0,0,0,0,0,0,0,0,0-.02,0-.03,0,0,0-.02,0-.02,0,0,0-.01,0-.02,0,0,0-.01,0-.02,0,0,0,0,0-.01,0,0,0-.02,0-.02,0,0,0,0,0,0,0,0,0-.02,0-.03,0,0,0,0,0,0-.2-.9-.39-1.81-.56-2.72h0Zm1.59,6.94l-7.74,2.07c.41,1.54.86,3.09,1.34,4.61l7.64-2.41c-.21-.68-.42-1.37-.62-2.06,0,0,0,0,0,0,0-.02-.01-.04-.02-.06,0,0,0,0,0,0,0-.02-.01-.05-.02-.06,0,0,0,0,0,0,0-.02-.01-.04-.02-.06,0,0,0,0,0,0,0-.02-.01-.04-.02-.06,0,0,0,0,0-.01l-.02-.06h0s-.01-.05-.02-.07c0,0,0,0,0-.01,0-.02-.01-.03-.02-.05,0,0,0,0,0-.01,0-.02,0-.03-.01-.05,0,0,0-.01,0-.02,0-.02,0-.03-.01-.05,0,0,0-.01,0-.02,0-.02,0-.03-.01-.05,0,0,0-.01,0-.02,0-.02,0-.03-.01-.05,0,0,0-.02,0-.03,0-.01,0-.02,0-.03,0-.01,0-.02-.01-.04,0,0,0-.02,0-.03,0-.01,0-.03-.01-.04,0,0,0-.02,0-.03,0-.01,0-.02,0-.03,0,0,0-.02,0-.03,0-.02,0-.03-.01-.05,0,0,0-.01,0-.01,0-.02-.01-.04-.02-.06,0,0,0,0,0-.01,0-.02-.01-.04-.02-.07h0c-.02-.07-.03-.13-.05-.19h0s-.01-.05-.02-.08h0c-.07-.26-.14-.51-.21-.77h0Zm2.08,6.81l-7.57,2.61c.52,1.51,1.08,3.02,1.67,4.51l7.45-2.94c-.54-1.38-1.06-2.77-1.54-4.17h0Zm2.56,6.64l-7.37,3.14c.62,1.47,1.29,2.94,1.98,4.38l7.22-3.46c-.21-.44-.42-.88-.62-1.32,0,0,0,0,0,0,0-.02-.02-.04-.03-.06,0,0,0,0,0,0,0-.02-.02-.04-.03-.06,0,0,0,0,0,0,0-.02-.02-.04-.03-.06,0,0,0,0,0,0,0-.02-.02-.03-.02-.05,0,0,0,0,0-.01,0-.02-.02-.03-.02-.05,0,0,0-.01,0-.02,0-.02-.01-.03-.02-.05,0,0,0-.01,0-.02,0-.01-.01-.03-.02-.04,0,0,0-.02-.01-.02,0-.01,0-.02-.01-.03,0-.01-.01-.02-.02-.04,0,0,0-.02-.01-.02,0-.02-.01-.03-.02-.05,0,0,0-.01,0-.02,0-.02-.02-.04-.03-.06,0,0,0,0,0,0-.31-.68-.61-1.37-.9-2.06h0Zm3.02,6.44l-7.13,3.65c.73,1.42,1.5,2.84,2.29,4.22l6.96-3.97s0,0,0-.01c0-.01-.01-.02-.02-.04,0-.01-.01-.02-.02-.03,0,0,0-.02-.01-.02l-.03-.05s0-.01,0-.01c-.5-.88-.99-1.77-1.46-2.67h0s-.02-.04-.03-.06c0,0,0,0,0,0,0-.02-.02-.04-.03-.05,0,0,0,0,0-.01,0,0-.01-.02-.02-.03,0-.01-.01-.03-.02-.04,0,0,0-.02-.01-.02,0-.01-.01-.03-.02-.04,0,0,0-.02-.01-.02,0-.01-.01-.03-.02-.04,0,0,0,0,0-.01,0-.02-.02-.03-.03-.05,0,0,0,0,0-.01-.01-.02-.02-.04-.03-.05,0,0,0,0,0,0-.01-.02-.02-.04-.03-.06,0,0,0,0,0,0-.1-.18-.19-.37-.29-.56h0Zm3.47,6.21l-6.85,4.15c.83,1.36,1.69,2.73,2.58,4.05l6.66-4.45c-.33-.5-.66-1-.99-1.51,0,0,0,0,0,0-.01-.02-.02-.04-.04-.06,0,0,0,0,0,0-.01-.02-.02-.03-.03-.05,0,0,0,0,0,0-.01-.02-.02-.03-.03-.05,0,0,0,0,0,0-.01-.02-.02-.04-.03-.05,0,0,0,0,0,0-.01-.02-.02-.03-.03-.05h0s-.02-.04-.03-.06c0,0,0,0,0-.01-.01-.02-.02-.03-.03-.05,0,0,0,0,0-.01-.01-.02-.02-.03-.03-.05,0,0,0,0,0-.01-.01-.02-.02-.03-.03-.05,0,0,0,0,0-.01,0-.01-.02-.03-.03-.04,0,0,0,0,0-.01,0-.01-.02-.03-.03-.04,0,0,0,0,0-.01,0-.01-.02-.03-.03-.04,0,0,0-.01-.01-.02-.01-.02-.02-.03-.03-.04,0,0,0-.01-.01-.02,0-.01-.02-.03-.03-.04,0,0,0-.01-.01-.02-.01-.02-.02-.03-.03-.04,0,0,0,0,0-.01,0-.01-.02-.03-.02-.04,0,0,0-.01-.01-.02,0-.01-.02-.03-.03-.04,0,0,0,0,0-.01,0-.01-.02-.03-.03-.04,0,0,0-.01-.01-.02-.01-.02-.02-.03-.03-.04,0,0,0-.01-.01-.02,0-.01-.02-.03-.03-.04,0,0,0-.01-.01-.02,0-.01-.02-.03-.02-.04,0,0,0-.01-.01-.02,0-.01-.01-.02-.02-.03,0,0-.01-.02-.02-.02,0-.01-.01-.02-.02-.04,0,0,0-.01-.01-.02,0-.01-.02-.03-.03-.04,0,0,0-.01-.01-.02-.01-.02-.02-.03-.03-.04,0,0,0-.01-.01-.02,0-.01-.02-.03-.03-.04,0,0,0-.01-.01-.02,0-.01-.02-.03-.03-.04v-.02s-.03-.02-.03-.04c0,0,0-.01-.01-.02,0-.01-.02-.03-.02-.04,0,0,0-.01-.01-.02,0-.01-.02-.03-.03-.04,0,0,0-.01-.01-.02,0-.02-.02-.03-.03-.04,0,0,0-.01-.01-.02,0-.01-.02-.03-.03-.04,0,0,0-.01-.01-.02,0-.01-.02-.03-.02-.04v-.02s-.03-.03-.03-.04c0,0,0-.01-.01-.02,0-.02-.02-.03-.03-.04,0,0,0-.01,0-.02,0-.01-.02-.03-.03-.05,0,0,0-.01,0-.02,0-.02-.02-.03-.03-.05,0,0,0-.01,0-.02,0-.01-.02-.03-.03-.05,0,0,0,0,0,0h0Zm3.9,5.95l-6.54,4.62c.92,1.3,1.88,2.6,2.85,3.86l6.33-4.9c-.58-.75-1.15-1.51-1.71-2.27,0,0,0,0,0,0-.01-.02-.02-.03-.04-.05,0,0,0,0,0,0-.01-.02-.02-.03-.03-.05,0,0,0,0,0-.01,0-.01-.02-.03-.03-.04,0,0,0,0-.01-.01-.01-.02-.02-.02-.03-.04,0,0,0-.01-.01-.02,0-.01-.02-.02-.02-.03,0,0-.01-.02-.02-.03,0,0-.01-.02-.02-.03,0-.01-.02-.02-.03-.04,0,0-.01-.01-.01-.02-.02-.03-.04-.06-.06-.09,0,0,0,0,0,0-.01-.02-.03-.04-.04-.06h0c-.18-.26-.37-.52-.55-.77h0Zm4.31,5.67l-6.2,5.07c1.01,1.23,2.06,2.46,3.12,3.65l5.97-5.33c-.05-.06-.1-.11-.15-.17,0,0-.01-.01-.02-.02,0,0-.02-.02-.02-.03-.01-.01-.02-.02-.03-.03,0,0,0,0-.01-.01-.01-.01-.03-.03-.04-.04,0,0,0,0,0,0-.01-.01-.03-.03-.04-.05,0,0,0,0,0,0-.01-.02-.03-.03-.04-.05,0,0,0,0,0,0-.54-.61-1.06-1.22-1.59-1.84h0s-.03-.03-.04-.05c0,0,0,0,0,0-.01-.01-.03-.03-.04-.04,0,0,0,0,0-.01-.01-.01-.02-.03-.04-.04,0,0,0,0-.01-.01-.01-.01-.02-.02-.03-.03,0,0-.01-.02-.02-.03,0,0-.01-.02-.02-.02,0-.01-.02-.02-.03-.03,0,0,0-.01-.02-.02-.01-.02-.03-.03-.04-.05h0c-.21-.26-.42-.51-.63-.77h0Zm4.69,5.35l-5.83,5.49c1.09,1.16,2.22,2.31,3.37,3.42l5.59-5.74h0s-.03-.03-.04-.04c0,0,0,0-.01-.01-.01-.01-.03-.02-.04-.04,0,0,0,0-.01-.01-.01-.01-.03-.03-.04-.04,0,0-.01-.01-.02-.02,0,0-.02-.02-.03-.03,0,0-.02-.02-.03-.02,0,0-.01-.01-.02-.02,0,0-.02-.02-.03-.03,0,0-.01-.01-.02-.02-.01-.01-.02-.02-.03-.03,0,0,0,0-.02-.02-.04-.04-.09-.09-.13-.13h0s-.03-.04-.05-.05h0s-.03-.04-.05-.05h0c-.28-.28-.55-.55-.83-.83h0s-.04-.04-.05-.05h0s-.03-.04-.05-.05h0s-.09-.09-.13-.14c0,0,0,0,0,0-.02-.02-.03-.03-.05-.05,0,0,0,0-.01-.01l-.04-.04s0,0-.01-.01c-.01-.01-.02-.02-.03-.04,0,0-.01-.01-.02-.02,0,0-.01-.01-.02-.02-.01-.01-.02-.02-.03-.03,0,0-.01-.01-.02-.02,0,0-.02-.02-.03-.03,0,0-.01-.01-.02-.02-.01-.01-.02-.02-.03-.03,0,0-.01-.01-.02-.02-.01-.01-.02-.02-.03-.03,0,0-.01-.01-.02-.02-.01-.01-.02-.02-.03-.03,0,0,0,0,0-.01-.01-.01-.03-.03-.04-.04,0,0,0,0,0,0-.02-.02-.03-.03-.04-.04,0,0,0,0,0,0-.01-.01-.03-.03-.04-.04,0,0,0,0,0,0-.3-.32-.61-.63-.91-.95h0Zm5.06,5.01l-5.43,5.88c1.17,1.08,2.38,2.15,3.6,3.18l5.17-6.12c-.57-.48-1.13-.96-1.68-1.45,0,0,0,0,0,0-.09-.08-.17-.15-.26-.23,0,0,0,0,0,0-.02-.01-.03-.03-.05-.04,0,0,0,0,0,0-.02-.01-.03-.03-.05-.04,0,0,0,0,0,0-.02-.01-.03-.03-.05-.04,0,0,0,0,0,0-.04-.03-.06-.06-.1-.09h0s-.03-.03-.05-.04c0,0,0,0,0,0-.02-.01-.03-.03-.05-.04,0,0,0,0,0,0-.01-.01-.03-.03-.04-.04,0,0,0,0,0,0-.02-.01-.03-.03-.04-.04,0,0,0,0,0,0-.01-.01-.03-.03-.05-.04,0,0,0,0,0,0-.01-.01-.03-.03-.04-.04,0,0,0,0,0,0-.01-.01-.03-.03-.04-.04,0,0,0,0,0,0-.02-.01-.03-.02-.04-.04,0,0,0,0-.01,0-.01-.01-.03-.03-.04-.04,0,0,0,0-.01,0-.01-.01-.03-.03-.04-.04,0,0,0,0-.01,0-.01-.01-.03-.03-.04-.04,0,0,0,0,0,0-.01-.01-.03-.03-.04-.04,0,0,0,0,0,0-.01-.01-.03-.03-.04-.04,0,0,0,0-.01-.01-.01-.01-.03-.02-.04-.04,0,0,0,0-.01-.01-.01-.01-.02-.02-.04-.03,0,0,0,0-.01-.01-.01-.01-.03-.02-.04-.03,0,0-.01,0-.02-.01,0,0-.03-.02-.03-.03,0,0-.01-.01-.02-.02,0,0-.02-.02-.03-.03,0,0-.02-.01-.02-.02-.01-.01-.02-.02-.03-.03,0,0-.01-.01-.02-.02-.01-.01-.02-.02-.03-.03,0,0-.01-.01-.02-.02,0,0-.02-.02-.03-.03,0,0-.01-.01-.02-.02,0,0-.02-.02-.03-.02,0,0,0,0-.01-.01h0Zm5.39,4.64l-5.01,6.25c1.24,1,2.53,1.98,3.81,2.92l4.73-6.46c-.37-.27-.73-.54-1.09-.81h0s-.04-.03-.06-.05h0s-.02-.02-.03-.03c-.01,0-.02-.01-.03-.02,0,0-.02-.01-.03-.02-.01,0-.02-.01-.03-.02,0,0-.02-.01-.03-.02-.01,0-.02-.02-.03-.02,0,0-.01-.01-.02-.02-.01,0-.03-.02-.04-.03h-.01s-.03-.03-.04-.04c0,0,0,0-.01,0-.02-.01-.03-.02-.05-.04,0,0,0,0,0,0-.02-.01-.03-.03-.05-.04,0,0,0,0,0,0-.66-.5-1.32-1.02-1.97-1.54h0Zm5.71,4.25l-4.56,6.59c1.31.91,2.66,1.8,4.01,2.64l4.26-6.78c-.3-.19-.61-.38-.91-.58h0s-.04-.03-.06-.04c0,0,0,0,0,0-.02-.01-.03-.02-.05-.03,0,0-.01,0-.02-.01,0,0-.02-.01-.03-.02-.01,0-.02-.02-.03-.02l-.02-.02s-.02-.02-.04-.02c0,0-.01,0-.02-.01-.01,0-.03-.02-.04-.02,0,0-.01,0-.02-.01-.01,0-.03-.02-.04-.03,0,0,0,0-.01,0-.02-.01-.03-.02-.05-.03h-.01s-.03-.03-.05-.04c0,0,0,0-.01,0-.02-.01-.03-.02-.05-.03,0,0,0,0,0,0-.02-.01-.03-.02-.05-.03,0,0,0,0,0,0-.74-.48-1.47-.97-2.19-1.47h0Zm5.99,3.84l-4.08,6.89c1.37.81,2.78,1.61,4.18,2.36l3.77-7.06c-.74-.4-1.48-.8-2.21-1.22h0s-.04-.02-.06-.04c0,0,0,0-.02,0-.01,0-.03-.02-.04-.03,0,0-.01,0-.02-.01-.01,0-.03-.01-.04-.02,0,0-.02,0-.03-.01,0,0-.02-.01-.03-.02-.01,0-.02-.01-.03-.02,0,0-.01,0-.02-.01-.01,0-.03-.02-.04-.02,0,0-.01,0-.02-.01-.01,0-.03-.02-.05-.03,0,0,0,0-.01,0-.02,0-.03-.02-.05-.03,0,0,0,0,0,0-.02,0-.04-.02-.05-.03,0,0,0,0,0,0-.02,0-.04-.02-.06-.03,0,0,0,0,0,0-.02-.01-.04-.02-.05-.03,0,0,0,0,0,0-.02,0-.04-.02-.06-.03h0c-.32-.19-.64-.37-.96-.56h0Zm6.25,3.41l-3.59,7.16c1.43.71,2.89,1.41,4.34,2.06l3.27-7.31c-.07-.03-.14-.06-.21-.1h0s-.04-.02-.06-.03c0,0-.01,0-.02,0-.01,0-.03-.01-.04-.02,0,0-.02,0-.03-.01-.01,0-.02,0-.03-.01-.01,0-.03-.01-.04-.02,0,0-.01,0-.02,0-.02,0-.03-.01-.05-.02,0,0-.01,0-.02,0-.01,0-.03-.02-.05-.02,0,0,0,0-.01,0-.02,0-.04-.02-.05-.02,0,0,0,0,0,0-.02,0-.04-.02-.06-.03,0,0,0,0,0,0-.02,0-.04-.02-.06-.03,0,0,0,0,0,0-.02,0-.04-.02-.06-.03,0,0,0,0,0,0-.93-.42-1.85-.86-2.76-1.31,0,0,0,0,0,0-.02-.01-.04-.02-.06-.03h0s-.04-.02-.06-.03h0s-.04-.02-.05-.03h-.01s-.03-.02-.05-.03c0,0-.01,0-.02-.01-.01,0-.03-.01-.04-.02h-.03s-.01-.02-.02-.02c-.02,0-.04-.02-.05-.03h0s-.02-.01-.03-.02h0Zm6.47,2.96l-3.07,7.4c1.47.61,2.98,1.2,4.48,1.74l2.74-7.53c-.75-.27-1.5-.55-2.24-.84h0s-.05-.02-.07-.03h0s-.04-.02-.07-.03h0s-.07-.03-.11-.04h0s-.04-.02-.07-.03c0,0,0,0,0,0-.02,0-.04-.02-.06-.02h0s-.04-.02-.06-.03h0s-.05-.02-.07-.03h0s-.07-.03-.11-.04h0s-.04-.02-.07-.03h0s-.05-.02-.07-.03h0c-.37-.15-.75-.3-1.12-.46h0Zm6.67,2.49l-2.54,7.6c1.51.51,3.06.98,4.59,1.42l2.2-7.7c-.57-.16-1.14-.33-1.7-.5h0s-.05-.02-.07-.02h0c-.06-.02-.12-.04-.18-.06,0,0,0,0,0,0-.02,0-.04-.01-.07-.02h0s-.05-.02-.07-.02h0s-.07-.02-.11-.03h0s-.05-.01-.07-.02c0,0,0,0,0,0-.02,0-.04-.01-.07-.02h0c-.63-.2-1.25-.4-1.88-.61h0Zm6.83,2.01l-1.99,7.76c1.54.4,3.12.76,4.68,1.09l1.65-7.84c-.36-.08-.73-.15-1.09-.23h0s-.02,0-.03,0c0,0,0,0,0,0-.01,0-.02,0-.03,0,0,0,0,0,0,0-1.06-.24-2.12-.49-3.17-.76h0Zm6.95,1.52l-1.44,7.88c1.57.29,3.16.54,4.74.76l1.09-7.93c-.87-.12-1.74-.25-2.61-.39,0,0,0,0-.01,0,0,0-.01,0-.02,0,0,0-.01,0-.02,0,0,0-.01,0-.02,0,0,0-.01,0-.02,0,0,0,0,0-.01,0,0,0-.02,0-.03,0h0s-.02,0-.04,0h0c-.54-.09-1.08-.18-1.61-.28h0Zm7.04,1.03l-.88,7.96c1.58.17,3.19.32,4.78.42l.53-7.99c-1.1-.07-2.2-.16-3.29-.27,0,0,0,0,0,0-.01,0-.02,0-.03,0,0,0,0,0-.01,0,0,0-.02,0-.02,0,0,0-.01,0-.02,0,0,0-.01,0-.02,0-.01,0-.02,0-.03,0h0s-.02,0-.03,0h0s-.02,0-.04,0h0c-.31-.03-.61-.06-.91-.1h0Zm7.1.53l-.32,8c1.47.06,2.95.09,4.42.09h.37s-.03-8.01-.03-8.01c-.03,0-.05,0-.08,0,0,0-.01,0-.02,0h-.01c-.08,0-.16,0-.24,0h-.07s-.04,0-.06,0c0,0,0,0-.01,0-.02,0-.03,0-.05,0h-.01s-.03,0-.05,0c0,0,0,0-.01,0-.02,0-.03,0-.05,0h0s-.04,0-.05,0c0,0-.01,0-.02,0-.02,0-.03,0-.05,0,0,0-.01,0-.02,0-.01,0-.03,0-.04,0,0,0-.01,0-.02,0-.02,0-.03,0-.05,0,0,0-.01,0-.02,0-.01,0-.02,0-.04,0,0,0-.01,0-.02,0-.02,0-.03,0-.05,0,0,0-.02,0-.02,0-.01,0-.02,0-.03,0-.01,0-.02,0-.03,0-.01,0-.02,0-.04,0,0,0-.02,0-.03,0-.01,0-.02,0-.03,0-.01,0-.03,0-.04,0-.01,0-.02,0-.03,0,0,0-.02,0-.03,0-.01,0-.02,0-.03,0-.01,0-.03,0-.04,0,0,0-.01,0-.02,0-.02,0-.04,0-.06,0,0,0-.01,0-.02,0-.01,0-.02,0-.03,0,0,0-.01,0-.02,0-.02,0-.04,0-.06,0,0,0,0,0-.01,0-.01,0-.02,0-.04,0,0,0,0,0-.01,0-.02,0-.04,0-.07,0,0,0,0,0-.01,0-.51,0-1.03-.02-1.54-.03h0s-.08,0-.12,0c0,0,0,0,0,0-.04,0-.07,0-.11,0,0,0-.01,0-.02,0-.02,0-.03,0-.05,0-.01,0-.02,0-.03,0,0,0-.02,0-.03,0-.01,0-.02,0-.03,0-.01,0-.02,0-.03,0-.01,0-.03,0-.04,0,0,0-.01,0-.02,0-.02,0-.03,0-.05,0,0,0,0,0-.01,0-.01,0-.03,0-.05,0h0s-.04,0-.06,0c0,0,0,0,0,0-.17,0-.34-.01-.51-.02h0Zm11.56-.19c-1.47.11-2.95.18-4.44.23l.23,8.01c1.59-.05,3.2-.13,4.79-.24l-.58-7.99h0Zm7.08-.77c-.81.12-1.62.22-2.44.32,0,0,0,0,0,0,0,0-.02,0-.03,0,0,0,0,0-.01,0,0,0-.01,0-.02,0,0,0-.01,0-.02,0,0,0-.01,0-.02,0-.02,0-.05,0-.07,0,0,0,0,0,0,0-.01,0-.02,0-.03,0h0s-.02,0-.04,0h0c-.57.07-1.14.13-1.72.19l.79,7.97c1.59-.16,3.19-.35,4.77-.58l-1.14-7.93h0Zm7-1.26c-.71.15-1.43.3-2.15.44h0s-.02,0-.03,0c0,0,0,0-.01,0,0,0-.02,0-.02,0,0,0-.01,0-.02,0,0,0-.01,0-.02,0,0,0-.02,0-.02,0,0,0,0,0,0,0,0,0-.02,0-.03,0,0,0,0,0,0,0-.68.13-1.36.26-2.05.37l1.35,7.89c1.57-.27,3.16-.58,4.72-.92l-1.7-7.83h0Zm6.9-1.76c-1.18.35-2.37.67-3.57.97h0s-.1.03-.15.04h0s-.02,0-.03,0c0,0-.01,0-.02,0h-.01s-.02,0-.02,0c0,0,0,0-.01,0h-.03s0,0,0,0c0,0-.02,0-.03,0,0,0,0,0,0,0-.13.03-.27.07-.4.1l1.91,7.78c1.55-.38,3.11-.8,4.64-1.25l-2.25-7.69h0Zm6.76-2.24s-.08.03-.13.05c0,0,0,0,0,0-.02,0-.04.01-.06.02,0,0,0,0-.01,0-.02,0-.04.01-.05.02,0,0,0,0-.01,0-.02,0-.03.01-.05.02,0,0,0,0-.01,0-.02,0-.03.01-.05.02,0,0-.01,0-.02,0-.02,0-.03.01-.04.02,0,0-.01,0-.02,0-.02,0-.03.01-.05.02,0,0-.02,0-.02,0-.02,0-.03.01-.04.02,0,0-.02,0-.02,0-.01,0-.02,0-.03.01-.01,0-.02,0-.04.01,0,0-.02,0-.03,0-.01,0-.03,0-.04.01,0,0-.02,0-.03,0-.01,0-.03,0-.04.01,0,0-.02,0-.03,0-.01,0-.02,0-.03.01,0,0-.02,0-.03.01-.01,0-.03,0-.04.01,0,0-.01,0-.02,0-.02,0-.03.01-.05.02,0,0-.01,0-.02,0-.02,0-.03.01-.05.02,0,0-.01,0-.02,0-.02,0-.04.01-.05.02,0,0-.01,0-.02,0-.01,0-.02,0-.03.01,0,0,0,0-.01,0-.02,0-.04.01-.05.02,0,0-.01,0-.02,0-.02,0-.04.01-.05.02,0,0-.01,0-.02,0-.02,0-.03.01-.05.02,0,0-.01,0-.02,0-.02,0-.03.01-.05.02,0,0-.01,0-.02,0-.01,0-.02,0-.03.01,0,0-.02,0-.02,0-.02,0-.03.01-.05.02,0,0-.02,0-.03,0-.01,0-.03,0-.04.01,0,0-.02,0-.02,0-.01,0-.03,0-.04.01,0,0-.02,0-.03,0,0,0-.02,0-.03,0-.01,0-.03.01-.04.01,0,0-.02,0-.03,0-.02,0-.03,0-.04.01,0,0-.02,0-.02,0-.01,0-.02,0-.04.01-.01,0-.02,0-.03.01-.01,0-.02,0-.03.01,0,0-.02,0-.03,0-.01,0-.03,0-.04.01,0,0-.01,0-.02,0-.02,0-.03.01-.05.02,0,0-.01,0-.02,0-.02,0-.03.01-.05.02,0,0-.01,0-.02,0-.02,0-.03.01-.05.02,0,0,0,0-.01,0-.02,0-.03.01-.05.02,0,0,0,0-.01,0-.02,0-.04.01-.05.02,0,0,0,0-.01,0-.02,0-.04.01-.06.02,0,0,0,0-.01,0-.02,0-.04.01-.06.02,0,0,0,0,0,0-.02,0-.04.01-.06.02,0,0,0,0,0,0-.04.01-.09.03-.13.04,0,0,0,0,0,0-.02,0-.04.01-.06.02h0c-.46.16-.92.31-1.39.46l2.45,7.62c1.52-.49,3.04-1.02,4.54-1.57l-2.79-7.51h0Zm6.58-2.72c-.17.08-.34.15-.51.23,0,0,0,0,0,0-.02,0-.04.02-.06.03,0,0,0,0,0,0-.02,0-.04.02-.06.03h0s-.08.04-.12.06c0,0,0,0,0,0-.02,0-.04.02-.06.03,0,0,0,0,0,0-.02,0-.04.02-.06.02,0,0,0,0-.01,0-.02,0-.03.02-.05.02,0,0,0,0-.01,0-.02,0-.04.02-.05.02,0,0,0,0,0,0-.02,0-.03.01-.05.02,0,0,0,0-.01,0-.02,0-.03.02-.05.02,0,0,0,0-.01,0-.02,0-.03.01-.05.02,0,0-.01,0-.02,0-.01,0-.03.02-.05.02,0,0-.01,0-.02,0-.02,0-.03.01-.05.02h-.01s-.03.02-.04.02h-.02s-.03.02-.04.03c0,0-.01,0-.02,0-.01,0-.03.01-.04.02,0,0-.02,0-.02.01-.01,0-.03.01-.04.02,0,0-.02,0-.03.01-.01,0-.02,0-.03.01-.01,0-.02.01-.04.02,0,0-.02,0-.03.01-.01,0-.03.01-.04.02,0,0-.01,0-.02.01-.02,0-.03.01-.05.02,0,0-.01,0-.02,0h-.03s-.02.02-.04.03c-.01,0-.02,0-.03.01,0,0-.01,0-.02,0-.02,0-.04.02-.05.02,0,0,0,0-.01,0-.02,0-.04.02-.06.03,0,0,0,0,0,0-.02,0-.04.02-.06.03h0c-.06.03-.12.05-.18.08h0s-.05.02-.07.03h0c-.56.24-1.13.48-1.7.7l2.99,7.43c1.48-.59,2.96-1.23,4.42-1.89l-3.32-7.29h0Zm6.37-3.17c-.57.31-1.14.61-1.72.91h0s-.04.02-.06.03c0,0,0,0,0,0-.02.01-.03.02-.05.03,0,0,0,0-.01,0-.02,0-.03.02-.05.03,0,0,0,0-.01,0-.01,0-.03.02-.05.02,0,0-.01,0-.02,0-.01,0-.03.01-.04.02,0,0-.02,0-.02.01-.01,0-.02.01-.03.02,0,0-.02,0-.03.01-.01,0-.02.01-.03.02,0,0-.02,0-.02.01-.01,0-.03.01-.04.02,0,0-.02,0-.03.01,0,0-.02.01-.03.02-.01,0-.02.01-.03.02,0,0-.01,0-.02,0-.02,0-.03.02-.05.02,0,0,0,0-.01,0-.02,0-.04.02-.05.03,0,0,0,0,0,0-.41.21-.81.41-1.22.61,0,0-.01,0-.02,0-.02,0-.03.02-.05.02,0,0-.01,0-.02.01-.01,0-.02.01-.04.02-.01,0-.02.01-.03.02,0,0-.01,0-.02.01-.01,0-.03.01-.04.02,0,0-.01,0-.02,0-.02,0-.03.01-.05.02,0,0,0,0,0,0l3.51,7.2c1.43-.7,2.87-1.44,4.27-2.2l-3.82-7.04h0Zm6.13-3.62c-.98.62-1.96,1.23-2.96,1.82,0,0,0,0,0,0-.02.01-.03.02-.05.03h0s-.03.03-.05.04c0,0-.01,0-.02,0-.01,0-.03.01-.04.02,0,0-.02.01-.03.02,0,0-.02.01-.03.02-.02,0-.03.02-.05.03,0,0,0,0-.01,0-.19.11-.37.22-.56.33l4.01,6.93c1.38-.8,2.76-1.64,4.1-2.49l-4.31-6.75h0Zm5.86-4.04c-.64.48-1.29.95-1.94,1.41h0c-.07.05-.14.1-.21.15,0,0,0,0,0,0-.02.01-.03.02-.05.04,0,0,0,0,0,0-.02.01-.03.02-.05.04,0,0,0,0-.01,0-.02.01-.03.02-.05.03,0,0,0,0-.01,0-.01,0-.03.02-.04.03,0,0-.02.01-.02.02,0,0-.02.01-.03.02,0,0-.02.01-.03.02-.01,0-.02.01-.03.02,0,0-.02.01-.02.02-.01,0-.02.02-.03.02,0,0-.02.01-.03.02,0,0-.02.01-.03.02-.01,0-.02.01-.03.02,0,0-.01,0-.02.01-.01,0-.03.02-.04.03,0,0-.01,0-.02.01-.01,0-.03.02-.04.03,0,0,0,0-.01,0-.02.01-.03.02-.05.03,0,0,0,0-.01,0-.02.01-.03.02-.05.03h0c-.25.17-.49.34-.74.51l4.49,6.63c1.32-.89,2.64-1.83,3.92-2.78l-4.77-6.43h0Zm5.56-4.44c-.41.35-.83.7-1.24,1.05h0s-.03.03-.05.05c0,0,0,0,0,0-.02.01-.03.03-.05.04,0,0,0,0-.01,0-.01.01-.03.02-.04.03,0,0-.01.01-.02.01,0,0-.02.01-.02.02,0,0-.02.02-.03.02l-.03.02s-.02.01-.02.02c-.01,0-.02.02-.03.03,0,0-.02.01-.02.02-.01,0-.02.02-.03.02,0,0-.02.01-.03.02,0,0-.02.01-.02.02,0,0-.02.02-.03.03,0,0-.01.01-.02.02-.01.01-.03.02-.04.03h-.02s-.02.03-.04.05c0,0,0,0-.01.01-.01.01-.03.02-.04.03,0,0,0,0-.01,0-.01,0-.03.02-.04.03,0,0,0,0,0,0-.01.01-.03.02-.04.03,0,0,0,0,0,0-.01.01-.03.02-.04.04,0,0,0,0-.01,0-.01.01-.03.02-.05.04,0,0,0,0,0,0-.01.01-.03.03-.05.04,0,0,0,0,0,0-.02.01-.03.02-.05.04,0,0,0,0,0,0-.03.03-.07.06-.1.08,0,0,0,0,0,0-.02.01-.03.03-.05.04,0,0,0,0,0,0-.02.01-.03.03-.05.04,0,0,0,0,0,0-.02.01-.04.03-.05.04,0,0,0,0,0,0-.32.26-.65.52-.98.78l4.94,6.3c1.25-.98,2.5-2.01,3.71-3.04l-5.21-6.08h0Zm5.24-4.82c-.07.07-.14.14-.21.21,0,0,0,0-.01.01-.01.01-.02.02-.04.03,0,0-.02.01-.02.02,0,0-.02.02-.03.02,0,0-.02.02-.03.03,0,0,0,0-.01.01-.01.01-.03.02-.04.04,0,0,0,0-.01.01-.01.01-.03.03-.04.04,0,0,0,0,0,0-.01.01-.03.03-.04.04,0,0,0,0,0,0-.9.87-1.81,1.73-2.74,2.57l5.37,5.94c1.18-1.07,2.36-2.18,3.49-3.3l-5.62-5.7h0Zm4.89-5.17c-.21.24-.43.48-.64.72,0,0,0,0,0,0-.01.02-.03.03-.04.05,0,0,0,0,0,0-.01.01-.03.03-.04.04h-.01s-.02.04-.04.05c0,0,0,0-.01.01-.01.01-.02.03-.03.04,0,0,0,.01-.01.02-.01.01-.02.02-.03.03,0,0-.01.01-.02.02,0,0-.02.02-.03.03,0,0-.01.01-.02.02-.01.01-.02.02-.03.03,0,0-.01.01-.02.02-.01.01-.02.02-.03.03,0,0-.01.01-.02.02-.01.01-.02.02-.03.03,0,0-.01.01-.02.02,0,0-.02.02-.02.02,0,.01-.02.02-.03.03,0,0-.01.01-.02.02-.01.01-.02.02-.03.03,0,0-.01.01-.02.02-.01.01-.02.02-.03.03,0,0-.01.01-.02.02,0,0-.01.02-.02.02,0,0-.02.02-.02.03,0,0-.02.02-.03.03,0,0-.01.01-.01.02-.01.01-.02.02-.03.04,0,0,0,.01-.02.02-.01.01-.02.02-.03.04,0,0-.01.01-.02.02-.01.01-.02.02-.03.03,0,0-.01.01-.02.02,0,.01-.02.02-.03.03,0,0-.01.01-.02.02,0,0-.01.02-.02.02,0,0-.02.02-.03.03,0,0-.01.01-.02.02-.01.01-.02.02-.03.03,0,0-.01.01-.02.02,0,0-.02.02-.02.03l-.02.03s-.02.02-.02.03c0,0-.01.01-.02.02-.01.01-.02.02-.03.03,0,0,0,.01-.01.02-.01.01-.02.03-.04.04,0,0,0,0-.01.01-.01.01-.02.02-.04.04,0,0,0,0-.01.01-.01.01-.03.03-.04.04,0,0,0,0,0,0-.01.01-.03.03-.04.04,0,0,0,0,0,0-.02.02-.03.03-.04.05,0,0,0,0,0,0-.02.02-.03.03-.05.05,0,0,0,0,0,0-.02.02-.03.03-.05.05,0,0,0,0,0,0-.3.32-.6.64-.91.96l5.77,5.55c1.1-1.15,2.2-2.34,3.25-3.53l-6.01-5.29h0Zm4.51-5.5c-.08.1-.15.2-.23.29,0,0,0,0,0,0-.01.02-.03.03-.04.05,0,0,0,0,0,.01-.01.01-.02.03-.03.04,0,0,0,.01-.01.02-.01.01-.02.03-.03.04,0,0,0,.01-.01.02,0,0-.01.02-.02.03,0,0-.02.02-.03.03,0,0-.01.02-.02.02,0,.01-.02.02-.03.03,0,0-.01.01-.02.02,0,0-.02.02-.03.03,0,0-.01.01-.02.02,0,0-.02.02-.02.03,0,0-.01.02-.02.02,0,.01-.02.02-.03.03,0,0,0,.01-.01.02,0,.01-.02.03-.03.04,0,0,0,.01-.01.02,0,.01-.02.03-.03.04,0,0,0,.01-.01.02-.01.01-.02.03-.03.04,0,0,0,0-.01.01-.01.01-.02.03-.03.04,0,0,0,0,0,.01,0,.01-.02.03-.03.04,0,0,0,0,0,.01,0,.01-.02.03-.03.04,0,0,0,0,0,.01-.01.01-.02.03-.04.05,0,0,0,0,0,0-.01.01-.02.03-.04.04,0,0,0,0,0,.01-.01.01-.02.03-.03.04,0,0,0,0,0,.01-.01.01-.02.03-.04.04,0,0,0,0,0,0-.01.01-.02.03-.04.05,0,0,0,0,0,0-.01.02-.02.03-.04.05,0,0,0,0,0,0-.01.01-.02.03-.04.05,0,0,0,0,0,.01-.01.01-.02.03-.04.04,0,0,0,0,0,.01-.01.01-.02.03-.04.04,0,0,0,0,0,0-.01.01-.02.03-.04.05,0,0,0,0,0,0,0,.01-.03.03-.04.04,0,0,0,0,0,0,0,.01-.02.03-.03.04,0,0,0,0,0,.01-.01.01-.02.03-.04.04,0,0,0,0,0,.01-.01.01-.02.03-.04.04h0s-.02.04-.03.06c0,0,0,0,0,.01-.01.01-.02.03-.04.04,0,0,0,0,0,0-.01.01-.02.03-.04.04,0,0,0,0,0,0-.01.02-.02.03-.04.04,0,0,0,0,0,0-.01.01-.02.03-.04.05,0,0,0,0,0,.01-.01.01-.02.03-.03.04,0,0,0,0-.01.01-.01.01-.02.03-.03.04,0,0,0,0,0,.01-.01.01-.02.03-.04.04,0,0,0,0,0,0-.01.01-.02.03-.04.04,0,0,0,0,0,0,0,.01-.02.03-.03.04,0,0,0,0,0,.01-.01.01-.02.03-.04.04,0,0,0,0-.01.01-.01.01-.02.03-.03.04,0,0,0,0-.01.01-.01.01-.02.03-.04.04,0,0,0,0,0,.01-.01.01-.02.03-.04.04,0,0,0,0,0,.01-.01.01-.02.03-.03.04,0,0,0,0,0,0-.01.01-.02.03-.03.04,0,0,0,0,0,.01-.01.01-.02.03-.04.04,0,0,0,0,0,.01-.01.01-.02.03-.03.04,0,0,0,0-.01.01-.01.01-.02.03-.03.04,0,0,0,0-.01.01-.01.01-.02.03-.04.04,0,0,0,0,0,.01-.01.01-.02.03-.03.04,0,0,0,0,0,.01-.01.01-.02.03-.03.04h0s-.02.04-.04.05c0,0,0,0,0,.01-.01.01-.02.03-.04.04,0,0,0,0,0,.01-.01.01-.02.03-.04.04,0,0,0,0,0,.01-.01.01-.02.03-.04.04,0,0,0,0,0,0-.01.01-.02.03-.04.04,0,0,0,0,0,0-.01.01-.02.03-.04.04,0,0,0,0,0,0-.01.01-.03.03-.04.05,0,0,0,0,0,0-.01.01-.02.03-.04.04,0,0,0,0,0,0l6.15,5.13c1.02-1.22,2.03-2.48,3-3.75l-6.37-4.86h0Zm4.12-5.81s-.06.09-.09.13c0,0,0,.01,0,.01-.01.02-.02.03-.03.05,0,0,0,.01-.01.02,0,.01-.02.03-.03.04,0,0-.01.02-.02.02,0,0-.01.02-.02.02,0,.01-.01.02-.02.04,0,0,0,.01-.01.02,0,.01-.02.03-.03.04,0,0,0,.01-.01.02,0,.01-.02.03-.03.04,0,0,0,.01-.01.02-.01.02-.02.03-.03.04,0,0,0,0,0,0-.01.02-.02.03-.03.05,0,0,0,0,0,0-.01.02-.02.04-.03.05,0,0,0,0,0,0-.01.02-.02.03-.03.05,0,0,0,0,0,0-.01.02-.02.04-.03.05,0,0,0,0,0,0-.01.02-.02.04-.04.05,0,0,0,0,0,0-.65.96-1.31,1.91-1.99,2.85l6.49,4.69c.93-1.29,1.85-2.62,2.73-3.95l-6.69-4.4h0Zm3.7-6.08c-.12.22-.25.44-.38.66,0,0,0,0,0,0-.01.02-.02.03-.03.05,0,0,0,0,0,.01,0,.02-.02.03-.03.05,0,0,0,0,0,.01,0,.02-.02.03-.03.05,0,0,0,0,0,.01,0,.01-.02.03-.02.04,0,0,0,.01-.01.02,0,.01-.01.02-.02.04,0,0,0,.02-.01.02,0,.01-.01.02-.02.03,0,0,0,.02-.01.02,0,.01-.01.02-.02.04,0,0-.01.02-.02.03,0,0-.01.02-.02.03,0,.01-.01.02-.02.04,0,0,0,.01,0,.01-.01.02-.02.03-.03.05,0,0,0,0,0,0-.01.02-.02.04-.04.06h0c-.49.85-1,1.7-1.52,2.53l6.81,4.22c.84-1.35,1.66-2.75,2.44-4.14l-6.99-3.92h0Zm3.26-6.33c-.63,1.34-1.3,2.67-1.99,3.98l7.09,3.73c.74-1.41,1.46-2.86,2.14-4.3l-7.24-3.41h0Zm2.8-6.54c-.54,1.38-1.1,2.76-1.7,4.11l7.33,3.22c.64-1.46,1.26-2.95,1.83-4.44l-7.47-2.89h0Zm2.33-6.72c-.2.65-.41,1.31-.62,1.95h0s-.02.05-.02.07h0s-.02.05-.02.08h0s-.02.07-.03.11c0,0,0,.01,0,.02,0,.02-.01.03-.02.05,0,0,0,.02,0,.02,0,.01,0,.03-.01.04,0,0,0,.02-.01.03,0,0,0,.02,0,.03,0,.02,0,.03-.01.04,0,0,0,.02,0,.02,0,.02-.01.03-.02.05,0,0,0,.01,0,.02,0,.02-.01.03-.02.05,0,0,0,.01,0,.02,0,.02-.01.03-.02.05,0,0,0,0,0,.01,0,.02-.01.04-.02.05,0,0,0,0,0,.01,0,.02-.01.04-.02.05h0s-.01.05-.02.07c0,0,0,0,0,.01,0,.02-.01.04-.02.06,0,0,0,0,0,0,0,.02-.01.04-.02.06,0,0,0,0,0,0,0,.02-.01.04-.02.06,0,0,0,0,0,.01,0,.02-.01.04-.02.06,0,0,0,0,0,0,0,.02-.01.04-.02.06,0,0,0,0,0,0-.01.04-.03.08-.04.12,0,0,0,0,0,0,0,.02-.01.04-.02.06,0,0,0,0,0,0,0,.02-.01.04-.02.06,0,0,0,0,0,.01,0,.02-.01.04-.02.06,0,0,0,0,0,0,0,.02-.01.04-.02.06,0,0,0,0,0,0,0,.02-.01.04-.02.06,0,0,0,0,0,0,0,.02-.01.04-.02.06,0,0,0,0,0,.01,0,.02-.01.03-.02.05,0,0,0,0,0,.01,0,.02-.01.04-.02.05,0,0,0,0,0,.01,0,.02-.01.03-.02.05,0,0,0,.01,0,.02,0,.02,0,.03-.02.04v.02s-.02.03-.02.05c0,0,0,.02,0,.02,0,.01-.01.03-.02.04,0,0,0,.02,0,.03,0,0,0,.02-.01.03,0,.01,0,.03-.01.04,0,0,0,.01,0,.02,0,0,0,.02,0,.02l7.54,2.69c.54-1.5,1.05-3.04,1.51-4.56l-7.65-2.36h0Zm1.85-6.87c-.05.2-.09.39-.14.59h0s0,.02,0,.04h0s0,.03,0,.04c0,0,0,0,0,0,0,0,0,.02,0,.03,0,0,0,.01,0,.01,0,0,0,.01,0,.02,0,0,0,.01,0,.01,0,0,0,.01,0,.02,0,.02,0,.03-.01.05,0,0,0,0,0,0,0,.02-.01.05-.02.07,0,0,0,0,0,0,0,0,0,.02,0,.03,0,0,0,0,0,0,0,.01,0,.02,0,.03,0,0,0,0,0,0-.09.38-.19.76-.28,1.15,0,0,0,0,0,0,0,0,0,.02,0,.03,0,0,0,0,0,0,0,0,0,.02,0,.03,0,0,0,0,0,.01,0,0,0,.02,0,.02,0,0,0,0,0,0,0,0,0,.02,0,.03,0,0,0,0,0,0,0,0,0,.02,0,.03,0,0,0,0,0,.01,0,.02,0,.03-.01.05,0,0,0,0,0,0,0,0,0,.01,0,.02,0,0,0,.01,0,.02,0,0,0,.01,0,.02,0,0,0,.01,0,.02,0,0,0,0,0,.01,0,0,0,.02,0,.03,0,0,0,0,0,0,0,0,0,.02,0,.03h0s0,.03,0,.04h0c-.15.6-.31,1.2-.48,1.79l7.71,2.15c.43-1.54.83-3.1,1.19-4.66l-7.8-1.81h0Zm1.36-6.99c-.09.57-.19,1.15-.29,1.72h0s0,.02,0,.03c0,0,0,0,0,.01,0,0,0,.01,0,.02,0,0,0,.01,0,.02,0,0,0,.01,0,.02,0,0,0,.01,0,.02,0,0,0,.01,0,.02,0,0,0,.02,0,.02,0,0,0,0,0,.01,0,.01,0,.02,0,.03h0s-.01.08-.02.12h0c-.13.71-.26,1.42-.4,2.13h0s-.02.08-.02.11c0,0,0,.01,0,.02,0,0,0,.01,0,.02,0,0,0,.02,0,.02,0,0,0,0,0,0,0,0,0,.02,0,.03,0,0,0,0,0,0l7.85,1.6c.32-1.56.61-3.15.85-4.73l-7.91-1.25h0Zm.86-7.06c-.03.4-.07.81-.11,1.21,0,0,0,0,0,0,0,0,0,.02,0,.03,0,0,0,0,0,.01,0,0,0,.02,0,.03,0,0,0,0,0,.01,0,.01,0,.01,0,.02,0,0,0,.01,0,.02,0,0,0,.02,0,.02,0,.01,0,.02,0,.04,0,0,0,0,0,.01,0,0,0,.02,0,.03,0,0,0,.01,0,.02,0,0,0,.02,0,.02,0,0,0,0,0,.01,0,0,0,.02,0,.02,0,0,0,0,0,.01,0,0,0,.02,0,.02,0,0,0,0,0,.01,0,.01,0,.02,0,.03h0c-.1.95-.21,1.9-.33,2.84l7.94,1.04c.21-1.58.38-3.18.52-4.77l-7.98-.69h0Zm.37-7.11c0,.35-.01.7-.02,1.04,0,0,0,0,0,0,0,.01,0,.02,0,.03,0,0,0,0,0,.01,0,0,0,.01,0,.02v.02s0,.01,0,.02c0,0,0,.01,0,.02,0,0,0,.01,0,.02,0,.01,0,.02,0,.04,0,0,0,0,0,0,0,.01,0,.02,0,.03,0,0,0,0,0,0,0,.01,0,.02,0,.03,0,0,0,0,0,0v.03s0,0,0,0c-.01.5-.03,1-.06,1.49h0s0,.08,0,.12h0s0,.03,0,.04c0,0,0,0,0,0,0,.01,0,.02,0,.03h0s0,.03,0,.04c0,0,0,0,0,0,0,0,0,.02,0,.03,0,0,0,0,0,.01,0,0,0,.02,0,.03,0,.01,0,.02,0,.03,0,0,0,.01,0,.02,0,0,0,.01,0,.02,0,0,0,.01,0,.02,0,0,0,.02,0,.02,0,0,0,.01,0,.02,0,0,0,.02,0,.02,0,0,0,0,0,.01,0,0,0,.02,0,.02h0c-.02.38-.04.74-.06,1.11l7.99.48c.1-1.59.16-3.2.18-4.79l-8.01-.13h0Zm7.87-7.54l-8,.42c.02.42.04.84.06,1.26h0s0,.03,0,.04h0s0,.03,0,.04c0,0,0,0,0,0,0,.02,0,.05,0,.07,0,0,0,.02,0,.02,0,0,0,0,0,.01,0,.01,0,.01,0,.02,0,0,0,0,0,.01,0,0,0,.02,0,.03,0,0,0,0,0,0,0,.01,0,.02,0,.03,0,0,0,0,0,0,.03.77.05,1.54.06,2.32,0,0,0,0,0,.01,0,0,0,.01,0,.02,0,0,0,.01,0,.02,0,0,0,.01,0,.02,0,0,0,.01,0,.02,0,0,0,.01,0,.02,0,.01,0,.02,0,.03,0,0,0,0,0,0,0,.03,0,.05,0,.08h0c0,.12,0,.23,0,.34l8.01-.07c-.01-1.59-.06-3.21-.15-4.79h0Zm-.67-7.65l-7.95.98c.18,1.47.33,2.94.45,4.43l7.98-.63c-.13-1.59-.29-3.2-.48-4.78h0Zm-1.21-7.59l-7.86,1.54c.11.55.21,1.1.31,1.65h0s0,.02,0,.04h0s0,.03,0,.04h0s.01.08.02.12h0s0,.03,0,.04c0,0,0,0,0,0,0,0,0,.02,0,.03,0,0,0,0,0,.01,0,0,0,.02,0,.02,0,0,0,.01,0,.02,0,0,0,.01,0,.02,0,0,0,.01,0,.02v.02s0,.02,0,.02c0,0,0,.01,0,.02,0,0,0,.01,0,.02,0,0,0,0,0,.01,0,.02,0,.03,0,.05,0,0,0,0,0,0,0,0,0,.01,0,.02,0,0,0,0,0,.01,0,0,0,.01,0,.02,0,0,0,0,0,.01,0,0,0,.02,0,.03,0,0,0,0,0,0,0,0,0,.02,0,.03,0,0,0,0,0,0,0,0,0,.02,0,.03h0s.02.09.02.14c0,0,0,0,0,0,0,0,0,.02,0,.03,0,0,0,0,0,0,0,0,0,.02,0,.03,0,0,0,0,0,0,0,.01,0,.02,0,.03,0,0,0,0,0,0,.01.08.03.16.04.24,0,0,0,0,0,0,0,.01,0,.02,0,.03,0,0,0,0,0,0,.01.07.02.14.03.2,0,0,0,0,0,0,0,0,0,.02,0,.03,0,0,0,0,0,0,0,0,0,.02,0,.03,0,0,0,0,0,0,0,0,0,.02,0,.03h0s0,.03,0,.04c0,0,0,0,0,.01,0,0,0,.02,0,.03,0,0,0,0,0,0,0,.01,0,.02,0,.04,0,0,0,.02,0,.03,0,0,0,0,0,.01,0,0,0,.02,0,.02,0,0,0,.01,0,.02,0,0,0,.01,0,.02,0,0,0,0,0,.02,0,0,0,.02,0,.02,0,0,0,0,0,.01,0,0,0,.02,0,.03,0,0,0,0,0,0,0,.01,0,.02,0,.03h0c.05.3.09.6.14.9l7.92-1.19c-.24-1.58-.51-3.17-.82-4.73h0Zm-1.74-7.49l-7.73,2.09c.16.59.32,1.19.47,1.79,0,0,0,0,0,0,0,0,0,.02,0,.03,0,0,0,0,0,.01,0,0,0,.02,0,.02,0,0,0,0,0,.01,0,0,0,.02,0,.03,0,0,0,0,0,.01,0,0,0,.01,0,.02,0,0,0,0,0,.02,0,0,0,.01,0,.02,0,0,0,.01,0,.02,0,0,0,.01,0,.02,0,.03.01.05.02.08,0,0,0,0,0,0,0,0,0,.02,0,.03,0,0,0,0,0,0,0,0,0,.02,0,.03,0,0,0,0,0,0,0,0,0,.02,0,.03,0,0,0,0,0,0,0,0,0,.02,0,.03,0,0,0,0,0,0,.17.7.34,1.4.49,2.1l7.82-1.75c-.35-1.56-.74-3.13-1.15-4.66h0Zm-2.27-7.34l-7.56,2.64c.49,1.4.94,2.81,1.37,4.23l7.67-2.3c-.46-1.53-.96-3.07-1.48-4.57h0Zm-2.79-7.16l-7.36,3.17c.18.42.36.85.54,1.28,0,0,0,0,0,0,0,.02.02.04.02.06,0,0,0,0,0,0,0,.02.02.04.02.06,0,0,0,0,0,.01,0,.02.01.04.02.05,0,0,0,0,0,.01,0,.01.01.03.02.04,0,0,0,.02.01.03,0,.01.01.03.02.04,0,0,0,.01,0,.02,0,.01.01.03.02.04,0,0,0,.02.01.03,0,.01.01.03.02.04,0,0,0,.02.01.03,0,0,0,.01,0,.02,0,.02.01.04.02.05,0,0,0,0,0,.01,0,.02.02.04.03.06h0c.3.74.59,1.48.87,2.23l7.49-2.84c-.56-1.49-1.17-2.99-1.8-4.45h0Zm-3.29-6.95l-7.11,3.68s0,0,0,0c0,.01.02.03.02.04,0,0,0,.01.01.02,0,.01.01.03.02.04,0,0,0,.02.01.02,0,.01.01.02.02.04,0,0,.01.02.02.03,0,0,0,.02.01.03,0,.01.01.03.02.04,0,0,0,.01.01.02,0,.01.01.03.02.04,0,0,0,.02.01.02,0,.02.02.04.03.05,0,0,0,0,0,0,0,.01.01.02.02.03h0s.02.05.03.07h0s.02.05.03.07h0c.44.87.87,1.73,1.28,2.61,0,0,0,.01,0,.01,0,.02.02.03.02.05,0,0,0,.01.01.02,0,.01.01.03.02.04,0,.01,0,.02.01.03,0,0,0,.02.01.03,0,.01.01.03.02.04,0,0,0,.01,0,.02,0,.01.02.03.02.05,0,0,0,.01,0,.02,0,.02.02.03.02.05,0,0,0,0,0,0,.07.14.14.29.2.44l7.27-3.36c-.67-1.45-1.38-2.9-2.11-4.31h0Zm-3.77-6.7l-6.84,4.17c.23.38.45.75.68,1.13,0,0,0,0,0,0,.01.02.02.03.03.05,0,0,0,0,0,0,0,.02.02.03.03.05,0,0,0,0,0,.01l.03.05s0,0,0,.01c0,.01.02.03.02.04,0,0,0,.01.01.02,0,.01.01.02.02.03,0,0,.01.02.02.03,0,.01.01.02.02.03,0,0,0,.01.01.02,0,.01.01.02.02.04,0,0,0,.02.01.03,0,.01.01.03.02.04,0,0,.01.02.02.03,0,0,0,.01.01.02,0,.01.02.03.03.04,0,0,0,.01,0,.02,0,.02.02.03.03.05,0,0,0,0,0,.01l.03.06s0,0,0,0c.03.05.06.11.09.16h0c.36.62.7,1.23,1.05,1.86l7.01-3.87c-.77-1.4-1.58-2.79-2.41-4.15h0Zm-4.23-6.41l-6.53,4.64c.86,1.21,1.69,2.44,2.5,3.68l6.72-4.35c-.87-1.34-1.77-2.67-2.7-3.97h0Zm-4.67-6.1l-6.18,5.09c.43.52.86,1.05,1.28,1.59,0,0,0,0,0,0,.01.02.03.03.04.05,0,0,0,0,0,0,.01.02.03.03.04.05,0,0,0,0,0,.01.01.01.02.03.03.04,0,0,0,0,.01.02.01.01.02.03.03.04,0,0,0,0,.01.01,0,0,.01.02.02.03,0,0,.01.01.01.02.01.01.02.03.03.04,0,0,0,0,.01.02.01.01.02.03.03.04,0,0,0,.01.01.02,0,.01.02.02.03.04,0,0,0,.01.01.02,0,.01.02.03.03.04,0,0,0,.01.01.02,0,0,.01.02.02.03,0,0,.02.02.02.03,0,0,.01.02.02.03,0,0,.01.02.02.02,0,.01.02.02.03.03,0,0,.01.01.02.02,0,.01.02.02.03.04,0,0,0,.01.01.02.01.01.02.03.03.04,0,0,0,0,.01.01.01.02.02.03.03.05,0,0,0,0,0,.01.01.02.03.04.04.05,0,0,0,0,0,0,.02.03.05.06.07.09h0s.03.04.04.06h0s.03.04.04.06h0c.2.27.41.53.61.8l6.4-4.81c-.96-1.27-1.96-2.54-2.97-3.77h0Zm-5.08-5.76l-5.81,5.51c.08.08.16.17.24.25,0,0,0,0,0,0,.02.02.03.03.04.05,0,0,0,0,0,0,.02.02.03.03.04.04,0,0,0,0,0,0,.01.01.02.02.03.04,0,0,.01.01.02.02,0,0,.02.02.03.03,0,0,.01.01.02.02,0,0,.02.02.03.03,0,0,.01.02.02.02,0,0,.01.01.02.02.01.01.02.03.04.04h0s.03.04.05.06h0c.81.87,1.61,1.76,2.4,2.67l6.05-5.25c-1.04-1.2-2.13-2.4-3.22-3.56h0Zm-5.47-5.39l-5.41,5.9c1.09,1,2.16,2.03,3.21,3.08l5.67-5.66c-1.13-1.13-2.29-2.24-3.47-3.32h0Zm-5.84-4.99l-4.99,6.27c.82.65,1.62,1.31,2.42,1.98,0,0,0,0,0,0,.02.01.03.03.05.04,0,0,0,0,0,0,.01.01.03.03.04.04,0,0,0,0,.01,0,.01.01.03.02.04.04,0,0,0,0,.01.01.01.01.03.02.04.03,0,0,0,0,.01.01.01.01.02.02.03.03,0,0,.01.01.02.02.01.01.02.02.03.03,0,0,.01,0,.02.01.01.01.02.02.04.03,0,0,.01.01.02.02.01.01.02.02.04.03,0,0,.01.01.02.02.01.01.02.02.03.03,0,0,.01.01.02.02,0,0,.02.01.03.02,0,0,.02.02.03.03,0,0,.01.01.02.02.01,0,.02.02.03.03,0,0,.01.01.02.02.01,0,.02.02.03.03,0,0,.02.01.02.02,0,0,.02.01.02.02.01.01.02.02.03.03,0,0,.01.01.02.02,0,0,.02.02.03.03,0,0,.01.01.02.02.01.01.02.02.03.03,0,0,.01,0,.02.02,0,0,.02.02.03.03,0,0,.02.01.02.02,0,0,.02.02.03.02,0,0,.01.01.02.02.01.01.02.02.04.03,0,0,0,0,0,0l5.26-6.04c-1.2-1.05-2.44-2.08-3.69-3.07h0Zm-6.17-4.57l-4.53,6.6c.59.41,1.18.82,1.76,1.24,0,0,0,0,0,0,.02.01.04.03.06.04,0,0,0,0,0,0,.04.03.07.05.11.08,0,0,0,0,0,0,.02.01.04.03.05.04,0,0,0,0,0,0,.02.01.03.02.05.03,0,0,0,0,.01,0,.02.01.03.02.04.03,0,0,0,0,.01,0,.01,0,.03.02.04.03,0,0,.01,0,.01.01.01,0,.03.02.04.03,0,0,.01,0,.02.01.01,0,.02.02.03.02,0,0,.02.01.03.02.01,0,.02.01.03.02,0,0,.01,0,.02.01.01,0,.02.02.04.03,0,0,.02.01.02.02.01,0,.02.02.03.02,0,0,.02.01.03.02,0,0,.01,0,.02.01.01.01.03.02.04.03,0,0,0,0,.01,0,.02.01.03.02.05.04,0,0,0,0,0,0,.34.25.69.51,1.03.76l4.82-6.4c-1.27-.96-2.58-1.9-3.9-2.8h0Zm-6.48-4.12l-4.06,6.9h0s.03.02.05.03c0,0,0,0,.01,0,.02,0,.04.02.05.03,0,0,0,0,0,0,.76.45,1.51.9,2.25,1.37h0s.04.03.06.04c0,0,0,0,0,0,.02.01.04.02.06.04,0,0,0,0,0,0,.04.02.08.05.11.07,0,0,0,0,0,0,.02.01.04.02.05.03,0,0,0,0,0,0,.02.01.03.02.05.03,0,0,0,0,0,0,.02.01.04.02.05.03,0,0,0,0,0,0,.02.01.04.02.05.03,0,0,0,0,0,0,.04.02.07.05.11.07,0,0,0,0,0,0,.02.01.04.02.05.03,0,0,0,0,0,0,.02.01.03.02.05.03,0,0,0,0,0,0,.02.01.04.02.05.03,0,0,0,0,0,0,.21.14.43.27.64.41l4.36-6.72c-1.34-.87-2.71-1.72-4.08-2.52h0Zm-6.76-3.66l-3.56,7.17s0,0,.01,0c.01,0,.03.01.04.02,0,0,.01,0,.02.01.01,0,.03.01.04.02,0,0,.02,0,.02.01.01,0,.03.01.04.02,0,0,.02,0,.03.01,0,0,.01,0,.02,0,.02,0,.03.02.05.02h.01s.04.02.06.03h0s.04.03.06.04h0c1.19.6,2.37,1.22,3.53,1.86l3.87-7.01c-1.4-.77-2.83-1.52-4.25-2.23h0Zm-7-3.17l-3.04,7.41c.55.23,1.1.46,1.65.69h0s.02.01.03.02h0s.04.02.06.03c0,0,.01,0,.02,0,.01,0,.03.01.04.02,0,0,.02,0,.03.01.01,0,.02,0,.03.01.01,0,.02.01.04.02,0,0,.01,0,.02,0,.01,0,.03.01.05.02,0,0,.01,0,.02,0,.02,0,.03.01.05.02,0,0,0,0,.01,0,.02,0,.03.02.05.02h0c.66.29,1.31.58,1.96.89l3.37-7.27c-1.45-.67-2.93-1.32-4.4-1.92h0Zm-7.21-2.67l-2.51,7.6c.54.18,1.07.36,1.61.55h0s.04.02.06.02c0,0,0,0,.02,0,.02,0,.03.01.05.02,0,0,.02,0,.02,0,0,0,.02,0,.03.01.01,0,.03.01.04.01,0,0,.02,0,.02,0,.02,0,.03.01.04.02,0,0,.01,0,.02,0,.02,0,.03,0,.04.01,0,0,.01,0,.02,0,.02,0,.03.01.05.02,0,0,0,0,.01,0,.02,0,.04.01.05.02,0,0,0,0,.01,0,.02,0,.04.01.06.02,0,0,0,0,0,0,.67.24,1.35.49,2.02.74l2.85-7.49c-1.49-.57-3.01-1.11-4.53-1.61h0Zm-7.38-2.15l-1.97,7.76s.02,0,.03,0h0s.04.01.06.02c0,0,0,0,.01,0,.01,0,.02,0,.03,0,.01,0,.03,0,.04.01,0,0,.02,0,.03,0,.01,0,.02,0,.03,0,.01,0,.02,0,.04,0,.01,0,.02,0,.03,0,0,0,.02,0,.03,0,.02,0,.03,0,.05.01,0,0,.01,0,.02,0,.02,0,.04,0,.05.01,0,0,.01,0,.02,0,.02,0,.04,0,.05.01,0,0,0,0,.01,0,.02,0,.04.01.06.02,0,0,0,0,0,0,.02,0,.04.01.06.02,0,0,0,0,0,0,.02,0,.04.01.06.02,0,0,0,0,0,0,.02,0,.05.01.06.02,0,0,0,0,0,0,.78.21,1.57.42,2.34.64,0,0,0,0,0,0,.02,0,.04.01.06.02,0,0,0,0,0,0,.02,0,.04.01.06.02,0,0,0,0,.01,0,.02,0,.04.01.06.02,0,0,0,0,.01,0,.02,0,.03.01.05.01h.02s.03.01.04.02c0,0,.01,0,.02,0,.02,0,.03,0,.04.01,0,0,.02,0,.03,0,.01,0,.03,0,.04.01.01,0,.02,0,.03,0,0,0,.01,0,.02,0,.02,0,.04.01.06.02h0c.19.06.37.11.56.17l2.31-7.67c-1.53-.46-3.08-.89-4.63-1.28h0Zm-7.51-1.62l-1.41,7.88s0,0,0,0c0,0,0,0,.01,0,0,0,.02,0,.02,0,0,0,0,0,.01,0,0,0,.02,0,.02,0,0,0,0,0,.02,0,0,0,.01,0,.02,0,0,0,.01,0,.02,0,0,0,.01,0,.02,0,0,0,.01,0,.02,0,0,0,0,0,0,0,.02,0,.04,0,.06.01,0,0,0,0,0,0,0,0,.02,0,.03,0,0,0,0,0,0,0,0,0,.02,0,.03,0,0,0,0,0,0,0,0,0,.02,0,.03,0,0,0,0,0,0,0,0,0,.02,0,.03,0,0,0,0,0,0,0,0,0,.02,0,.03,0,0,0,0,0,0,0,.08.01.16.03.24.04t0,0s.02,0,.03,0c0,0,0,0,0,0,.08.02.16.03.24.04,0,0,0,0,0,0,.01,0,.02,0,.03,0,0,0,0,0,0,0,0,0,.02,0,.03,0,0,0,0,0,0,0,.05.01.11.02.17.03,0,0,0,0,0,0,0,0,.02,0,.03,0,0,0,0,0,0,0,0,0,.02,0,.03,0,0,0,0,0,.01,0,0,0,.02,0,.02,0,0,0,0,0,.01,0,0,0,.01,0,.02,0,0,0,0,0,.01,0,0,0,.02,0,.02,0,0,0,.01,0,.02,0,0,0,.02,0,.03,0,0,0,.02,0,.03,0,0,0,0,0,.01,0,0,0,.02,0,.03,0,0,0,0,0,.01,0,0,0,.02,0,.03,0,0,0,0,0,.01,0,0,0,.02,0,.03,0,0,0,0,0,.01,0,0,0,.02,0,.03,0h0c.94.18,1.87.38,2.8.59l1.76-7.81c-1.55-.35-3.14-.67-4.71-.95h0Zm-7.6-1.09l-.85,7.96c.36.04.71.08,1.07.12,0,0,0,0,0,0,.01,0,.02,0,.03,0,0,0,.01,0,.02,0,0,0,.01,0,.02,0,0,0,.01,0,.02,0,0,0,0,0,.01,0,.01,0,.03,0,.04,0h0s.02,0,.04,0h0s.02,0,.03,0h0s.02,0,.03,0h0s.03,0,.04,0h0c.79.1,1.58.2,2.36.31,0,0,0,0,.01,0,0,0,.02,0,.02,0,0,0,0,0,.02,0,0,0,.01,0,.02,0,0,0,.01,0,.02,0,0,0,0,0,.01,0,0,0,.02,0,.02,0,0,0,0,0,0,0,.18.03.36.05.55.08l1.2-7.92c-1.57-.24-3.18-.45-4.76-.62h0Zm-7.66-.55l-.29,8c.39.01.79.03,1.18.05h.01s.01,0,.02,0c0,0,.01,0,.02,0,0,0,.01,0,.02,0h.02s0,0,.02,0c0,0,.02,0,.03,0,0,0,0,0,.01,0,.04,0,.08,0,.12,0h0s.03,0,.04,0h0c.66.03,1.31.07,1.97.12h0s.02,0,.03,0c0,0,0,0,0,0,0,0,.02,0,.03,0,0,0,0,0,.01,0,0,0,.02,0,.02,0,0,0,.01,0,.01,0,0,0,.02,0,.03,0,0,0,0,0,0,0,.01,0,.02,0,.04,0,0,0,.02,0,.02,0,0,0,0,0,.01,0,.01,0,.02,0,.03,0,0,0,0,0,.01,0,0,0,.02,0,.03,0,0,0,0,0,.01,0,0,0,.02,0,.03,0,0,0,0,0,0,0,.22.02.44.03.65.05l.64-7.98c-1.59-.13-3.2-.22-4.79-.28h0Zm-4.05-.07v8.01h.08s0,0,.01,0h.04c.32,0,.64,0,.97,0L110.19,0c-.39,0-.78,0-1.18,0h0Z" style="fill: #4bd996; stroke-width: 0px;"/>
        <circle cx="109.01" cy="109.01" r="101" style="fill: none; stroke: #fff; stroke-miterlimit: 10; stroke-width: 12.46px;"/>
        <circle cx="109.01" cy="109.01" r="101" style="fill: #41d992; opacity: .39; stroke-width: 0px;"/>
      </g>
      <path d="m159.16,152.91c-7.45,0-13.52-6.06-13.52-13.52s6.06-13.52,13.52-13.52,13.52,6.06,13.52,13.52-6.06,13.52-13.52,13.52Zm0-24.38c-5.99,0-10.87,4.87-10.87,10.87s4.87,10.87,10.87,10.87,10.87-4.88,10.87-10.87-4.88-10.87-10.87-10.87Z" style="fill: #daaa49; stroke-width: 0px;"/>
      <path d="m178.26,100.34c-5.93,0-10.75-4.82-10.75-10.75s4.82-10.75,10.75-10.75,10.75,4.82,10.75,10.75-4.82,10.75-10.75,10.75Zm0-18.85c-4.47,0-8.1,3.63-8.1,8.1s3.63,8.1,8.1,8.1,8.1-3.63,8.1-8.1-3.63-8.1-8.1-8.1Z" style="fill: #89bbe1; stroke-width: 0px;"/>
      <path d="m43.37,108.02c-6.85,0-12.43-5.57-12.43-12.43s5.57-12.43,12.43-12.43,12.43,5.57,12.43,12.43-5.57,12.43-12.43,12.43Zm0-22.2c-5.39,0-9.78,4.39-9.78,9.78s4.39,9.78,9.78,9.78,9.78-4.39,9.78-9.78-4.39-9.78-9.78-9.78Z" style="fill: #8bc3b6; stroke-width: 0px;"/>
      <path d="m60.53,156.19c-5.05,0-9.16-4.11-9.16-9.16s4.11-9.16,9.16-9.16,9.16,4.11,9.16,9.16-4.11,9.16-9.16,9.16Zm0-15.67c-3.59,0-6.51,2.92-6.51,6.51s2.92,6.51,6.51,6.51,6.51-2.92,6.51-6.51-2.92-6.51-6.51-6.51Z" style="fill: #d16e52; stroke-width: 0px;"/>
      <path d="m71.39,130.34c-2.48,0-4.51-2.02-4.51-4.51s2.02-4.51,4.51-4.51,4.51,2.02,4.51,4.51-2.02,4.51-4.51,4.51Zm0-6.36c-1.02,0-1.86.83-1.86,1.86s.83,1.86,1.86,1.86,1.86-.83,1.86-1.86-.83-1.86-1.86-1.86Z" style="fill: #daaa49; stroke-width: 0px;"/>
      <circle cx="36.06" cy="116.52" r="2.52" style="fill: #89bbe1; stroke-width: 0px;"/>
      <circle cx="105.76" cy="147.03" r="2.52" style="fill: #d16e52; stroke-width: 0px;"/>
      <circle cx="170.04" cy="114.45" r="2.52" style="fill: #d16e52; stroke-width: 0px;"/>
      <circle cx="149.51" cy="66.1" r="2.52" transform="translate(56.33 200.41) rotate(-79.1)" style="fill: #8bc3b6; stroke-width: 0px;"/>
      <circle cx="65.12" cy="66.1" r="2.52" style="fill: #d16e52; stroke-width: 0px;"/>
      <circle cx="109.03" cy="77.63" r="2.52" style="fill: #daaa49; stroke-width: 0px;"/>
      <circle cx="61.87" cy="130.67" r="2.52" style="fill: #8bc3b6; stroke-width: 0px;"/>
      <path d="m125.02,153.65c-2.48,0-4.51-2.02-4.51-4.51s2.02-4.51,4.51-4.51,4.51,2.02,4.51,4.51-2.02,4.51-4.51,4.51Zm0-6.36c-1.02,0-1.86.83-1.86,1.86s.83,1.86,1.86,1.86,1.86-.83,1.86-1.86-.83-1.86-1.86-1.86Z" style="fill: #8bc3b6; stroke-width: 0px;"/>
      <rect x="139.75" y="119.36" width="2.65" height="18" transform="translate(-40.97 185.27) rotate(-59.66)" style="fill: #daaa49; stroke-width: 0px;"/>
      <rect x="132.03" y="98.13" width="37.76" height="2.65" transform="translate(-23.59 52.39) rotate(-18.29)" style="fill: #89bbe1; stroke-width: 0px;"/>
      <rect x="67.08" y="87.67" width="2.65" height="29.79" transform="translate(-49.49 138.61) rotate(-73.3)" style="fill: #8bc3b6; stroke-width: 0px;"/>
      <rect x="74.02" y="121.95" width="8.75" height="2.65" transform="translate(-24.26 19.33) rotate(-12.19)" style="fill: #daaa49; stroke-width: 0px;"/>
      <rect x="65.91" y="136.2" width="23.56" height="2.65" transform="translate(-56.75 54.61) rotate(-28.87)" style="fill: #d16e52; stroke-width: 0px;"/>
      <rect x="120.75" y="137.93" width="2.65" height="8.42" transform="translate(-48.34 64.26) rotate(-24.78)" style="fill: #8bc3b6; stroke-width: 0px;"/>
      <path d="m90.41,75.18c2.48-.19,4.65,1.68,4.83,4.15.19,2.48-1.68,4.65-4.15,4.83-2.48.19-4.65-1.68-4.83-4.15-.19-2.48,1.68-4.65,4.15-4.83Zm.48,6.34c1.02-.08,1.79-.97,1.71-1.99-.08-1.02-.97-1.79-1.99-1.71-1.02.08-1.79.97-1.71,1.99.08,1.02.97,1.79,1.99,1.71Z" style="fill: #89bbe1; stroke-width: 0px;"/>
      <rect x="92.89" y="82.22" width="2.65" height="8.42" transform="translate(-30.14 56.72) rotate(-29.09)" style="fill: #89bbe1; stroke-width: 0px;"/>
      <path d="m134.56,69.08c1.39,2.06.84,4.87-1.23,6.25-2.06,1.39-4.87.84-6.25-1.23-1.39-2.06-.84-4.87,1.23-6.25,2.06-1.39,4.87-.84,6.25,1.23Zm-5.28,3.55c.57.85,1.73,1.08,2.58.51.85-.57,1.08-1.73.51-2.58-.57-.85-1.73-1.08-2.58-.51-.85.57-1.08,1.73-.51,2.58Z" style="fill: #d16e52; stroke-width: 0px;"/>
      <polygon points="129.98 75.04 120.92 90.59 118.65 89.21 127.71 73.66 129.98 75.04" style="fill: #d16e52; stroke-width: 0px;"/>
      <path d="m133.1,109.94l2.99-.21c-1.26-7.44-5.44-13.89-11.32-18.14l-1.57,2.54c5.09,3.74,8.73,9.35,9.9,15.81Z" style="fill: #d16e52; stroke-width: 0px;"/>
      <path d="m108.28,89.23c5.57,0,10.73,1.82,14.91,4.89l1.57-2.54c-4.64-3.35-10.33-5.33-16.48-5.33s-11.68,1.92-16.28,5.18l1.92,2.29c4.08-2.83,9.03-4.5,14.36-4.5Z" style="fill: #8bc3b6; stroke-width: 0px;"/>
      <path d="m93.93,93.73l-1.92-2.29c-3,2.13-5.57,4.83-7.55,7.95l2.58,1.49c1.8-2.81,4.15-5.24,6.89-7.15Z" style="fill: #daaa49; stroke-width: 0px;"/>
      <path d="m136.09,109.72l-2.99.21c.27,1.47.41,2.98.41,4.52,0,13.91-11.31,25.22-25.22,25.22s-25.22-11.31-25.22-25.22c0-4.99,1.46-9.65,3.98-13.57l-2.58-1.49c-2.77,4.36-4.37,9.53-4.37,15.07,0,15.55,12.65,28.2,28.2,28.2s28.2-12.65,28.2-28.2c0-1.61-.14-3.19-.4-4.73Z" style="fill: #89bbe1; stroke-width: 0px;"/>
      <path d="m65.12,146.12c0-.13-.09-.24-.22-.27l-.99-.22.54-.86c.07-.11.05-.25-.04-.35l-1.29-1.29c-.09-.09-.24-.11-.35-.04l-.86.54-.22-.99c-.03-.13-.14-.22-.27-.22h-1.82c-.13,0-.24.09-.27.22l-.22.99-.85-.54c-.11-.07-.26-.05-.35.04l-1.29,1.29c-.09.09-.11.23-.04.35l.54.86-.99.22c-.13.03-.22.14-.22.27v1.82c0,.13.09.24.22.27l.99.22-.54.86c-.07.11-.05.25.04.35l1.29,1.29c.09.09.24.11.35.04l.86-.54.22.99c.03.13.14.22.27.22h1.82c.13,0,.24-.09.27-.22l.22-.99.86.54c.11.07.26.05.35-.04l1.29-1.29c.09-.09.11-.24.04-.35l-.54-.86.99-.22c.13-.03.22-.14.22-.27v-1.82Zm-4.6,2.94h-.03c-1.03-.02-1.87-.88-1.87-1.91s.84-1.89,1.87-1.91c.01,0,.02,0,.03,0h0c1.05,0,1.9.86,1.9,1.91s-.86,1.91-1.92,1.91Z" style="fill: #3f6fa4; stroke-width: 0px;"/>
      <path d="m178.26,84.01c-3.57,0-6.47,2.28-6.47,5.08s2.9,5.08,6.47,5.08c.19,0,.38,0,.57-.02l.51,1.23c.04.09.12.16.22.18.02,0,.03,0,.05,0,.08,0,.16-.04.22-.1l1.85-2.06c1.91-.93,3.04-2.54,3.04-4.31,0-2.8-2.9-5.08-6.47-5.08Zm-2.42,6.39c-.43,0-.77-.35-.77-.77s.35-.77.77-.77.77.35.77.77-.35.77-.77.77Zm2.44,0c-.43,0-.77-.35-.77-.77s.35-.77.77-.77.77.35.77.77-.35.77-.77.77Zm2.33,0c-.43,0-.77-.35-.77-.77s.35-.77.77-.77.77.35.77.77-.35.77-.77.77Z" style="fill: #3f6fa4; stroke-width: 0px;"/>
      <g>
        <path d="m109.9,129.24l9.18-3.7c.3-.12.45-.46.34-.77l-.13-.36c-.02-.06,0-.12.03-.17,1.84-2.41.58-5.63.58-5.63l-1.85-4.72s0-.01,0-.02c-.04-.16-.55-2.41-2.23-2.41-.97,0-1.5.42-1.79.8-.09.12-.29.09-.32-.06-.12-.49-.5-1.1-1.67-1.23-1.3-.15-1.82.58-2.03,1.11-.05.14-.26.15-.32.02-.42-.87-1.32-1.89-2.45-1.51-.78.26-1.14.76-1.3,1.14-.06.15-.27.15-.33,0l-1.89-4.85s-.91-2.91-2.8-2.19c-1.89.72-.87,3.22-.87,3.22l4.36,11.51c.06.16-.11.3-.26.22l-2.08-1.26s-.01,0-.02-.02c-.15-.13-2.35-2-3.74-.54-1.38,1.46.14,3.05.26,3.17,0,0,.01,0,.02.02l10.31,7.49s.04.05.06.07l.17.37c.14.29.48.42.77.3Z" style="fill: #3f6fa4; stroke-width: 0px;"/>
        <path d="m122.75,131.08l-2.07-4.65c-.15-.33-.54-.49-.88-.35l-10.13,4.08c-.36.15-.53.56-.36.92l2.1,4.57c.15.33.53.48.87.35l10.09-3.99c.36-.14.53-.56.37-.91Z" style="fill: #3f6fa4; stroke-width: 0px;"/>
        <path d="m97.84,100.52c.18.48.64.78,1.13.78.14,0,.29-.03.43-.08.62-.24.93-.94.69-1.56l-1.26-3.28c-.24-.62-.94-.93-1.56-.69-.62.24-.93.94-.69,1.56l1.26,3.28Z" style="fill: #3f6fa4; stroke-width: 0px;"/>
        <path d="m92.36,102.54l3.22,1.43c.16.07.33.1.49.1.46,0,.91-.27,1.11-.72.27-.61,0-1.33-.62-1.6l-3.22-1.43c-.61-.27-1.33,0-1.6.62-.27.61,0,1.33.62,1.6Z" style="fill: #3f6fa4; stroke-width: 0px;"/>
        <path d="m109.38,107.41l-3.22-1.43c-.61-.27-1.33,0-1.6.62-.27.61,0,1.33.62,1.6l3.22,1.43c.16.07.33.1.49.1.46,0,.91-.27,1.11-.72.27-.61,0-1.33-.62-1.6Z" style="fill: #3f6fa4; stroke-width: 0px;"/>
        <path d="m97.11,106.44c-.24-.62-.94-.93-1.56-.69l-3.28,1.26c-.62.24-.93.94-.69,1.56.19.48.64.78,1.13.78.14,0,.29-.03.43-.08l3.28-1.26c.62-.24.93-.94.69-1.56Z" style="fill: #3f6fa4; stroke-width: 0px;"/>
        <path d="m104.63,103.51c.19.48.64.78,1.13.78.14,0,.29-.03.43-.08l3.28-1.26c.62-.24.93-.94.69-1.56-.24-.62-.94-.93-1.56-.69l-3.28,1.26c-.62.24-.93.94-.69,1.56Z" style="fill: #3f6fa4; stroke-width: 0px;"/>
        <path d="m98.43,113.48l1.43-3.22c.27-.61,0-1.33-.62-1.6-.61-.27-1.33,0-1.6.62l-1.43,3.22c-.27.61,0,1.33.62,1.6.16.07.33.1.49.1.46,0,.91-.27,1.11-.72Z" style="fill: #3f6fa4; stroke-width: 0px;"/>
        <path d="m102.49,101.28c.16.07.33.1.49.1.46,0,.91-.27,1.11-.72l1.43-3.22c.27-.61,0-1.33-.62-1.6-.61-.27-1.33,0-1.6.62l-1.43,3.22c-.27.61,0,1.33.62,1.6Z" style="fill: #3f6fa4; stroke-width: 0px;"/>
      </g>
      <path d="m162.19,131.83h-6.05c-.7,0-1.27.58-1.27,1.29v12.54c0,.71.57,1.29,1.27,1.29h6.05c.7,0,1.27-.58,1.27-1.29v-12.54c0-.71-.57-1.29-1.27-1.29Zm-2.24,14.07c0,.17-.14.31-.31.31h-.96c-.17,0-.31-.14-.31-.31v-.53c0-.17.14-.31.31-.31h.96c.17,0,.31.14.31.31v.53Zm1.72-1.72h-5.01c-.34,0-.62-.28-.62-.62v-9.67c0-.34.28-.62.62-.62h5.01c.34,0,.62.28.62.62v9.67c0,.34-.28.62-.62.62Z" style="fill: #3f6fa4; stroke-width: 0px;"/>
      <path d="m47.8,93.86c-.14,0-.27,0-.41.03.01-.13.02-.26.02-.38,0-2.09-1.7-3.79-3.79-3.79-1.65,0-3.11,1.08-3.6,2.64-.12-.01-.22-.02-.33-.02-2.21,0-4.02,1.8-4.02,4.02s1.8,4.02,4.02,4.02h8.11c1.8,0,3.26-1.46,3.26-3.26s-1.46-3.26-3.26-3.26Z" style="fill: #3f6fa4; stroke-width: 0px;"/>
    </g>
  </g>
</svg>