<?xml version="1.0" encoding="UTF-8"?>
<svg id="_圖層_2" data-name="圖層 2" xmlns="http://www.w3.org/2000/svg" width="218.03" height="218.04" xmlns:xlink="http://www.w3.org/1999/xlink" viewBox="0 0 218.03 218.04">
  <defs>
    <clipPath id="clippath">
      <circle cx="108.98" cy="109.07" r="101" style="fill: none; stroke-width: 0px;"/>
    </clipPath>
    <linearGradient id="_未命名漸層" data-name="未命名漸層" x1="109.96" y1="184.16" x2="109.96" y2="35.69" gradientTransform="translate(0 219.55) scale(1 -1)" gradientUnits="userSpaceOnUse">
      <stop offset=".04" stop-color="#a1a1a1"/>
      <stop offset="1" stop-color="#a1a1a1" stop-opacity="0"/>
    </linearGradient>
    <linearGradient id="_未命名漸層_19" data-name="未命名漸層 19" x1="49.2" y1="22.99" x2="68.23" y2="22.99" gradientTransform="translate(0 219.55) scale(1 -1)" gradientUnits="userSpaceOnUse">
      <stop offset=".15" stop-color="#020203"/>
      <stop offset="1" stop-color="#202021"/>
    </linearGradient>
    <linearGradient id="_未命名漸層_19-2" data-name="未命名漸層 19" x1="67.07" y1="25.44" x2="87.2" y2="25.44" xlink:href="#_未命名漸層_19"/>
    <linearGradient id="_未命名漸層_13" data-name="未命名漸層 13" x1="65.08" y1="125.87" x2="64.15" y2="41.47" gradientTransform="translate(0 219.55) scale(1 -1)" gradientUnits="userSpaceOnUse">
      <stop offset=".15" stop-color="#002191"/>
      <stop offset="1" stop-color="#173ba6"/>
    </linearGradient>
    <linearGradient id="_未命名漸層_17" data-name="未命名漸層 17" x1="70.65" y1="139.64" x2="114.6" y2="132.36" gradientTransform="translate(0 219.55) scale(1 -1)" gradientUnits="userSpaceOnUse">
      <stop offset=".23" stop-color="#d6d6d6"/>
      <stop offset=".75" stop-color="#ededed"/>
    </linearGradient>
    <linearGradient id="_未命名漸層_7" data-name="未命名漸層 7" x1="828.31" y1="386.91" x2="809.07" y2="385.62" gradientTransform="translate(-634.85 596.78) rotate(-9.21) scale(1 -1)" gradientUnits="userSpaceOnUse">
      <stop offset=".22" stop-color="#f2c9cc"/>
      <stop offset="1" stop-color="#e3aab0"/>
    </linearGradient>
    <linearGradient id="_未命名漸層_7-2" data-name="未命名漸層 7" x1="821.35" y1="383.87" x2="805.84" y2="383.87" xlink:href="#_未命名漸層_7"/>
    <linearGradient id="_未命名漸層_17-2" data-name="未命名漸層 17" x1="56.81" y1="153.83" x2="53.38" y2="159.01" xlink:href="#_未命名漸層_17"/>
    <linearGradient id="_未命名漸層_17-3" data-name="未命名漸層 17" x1="62.39" y1="155.12" x2="62.39" y2="130.82" xlink:href="#_未命名漸層_17"/>
    <linearGradient id="_未命名漸層_16" data-name="未命名漸層 16" x1="96.56" y1="179.79" x2="92.24" y2="177.6" gradientTransform="translate(0 219.55) scale(1 -1)" gradientUnits="userSpaceOnUse">
      <stop offset=".22" stop-color="#f2dddd"/>
      <stop offset="1" stop-color="#e3bfc3"/>
    </linearGradient>
    <linearGradient id="_未命名漸層_11" data-name="未命名漸層 11" x1="54.1" y1="162.12" x2="66.6" y2="179.21" gradientTransform="translate(0 219.55) scale(1 -1)" gradientUnits="userSpaceOnUse">
      <stop offset=".04" stop-color="#3b0011"/>
      <stop offset="1" stop-color="#66001c"/>
    </linearGradient>
    <linearGradient id="_未命名漸層_13-2" data-name="未命名漸層 13" x1="63.21" y1="151.57" x2="63.97" y2="146.11" xlink:href="#_未命名漸層_13"/>
    <linearGradient id="_未命名漸層_13-3" data-name="未命名漸層 13" x1="68.71" y1="152.33" x2="68.71" y2="130.14" xlink:href="#_未命名漸層_13"/>
    <linearGradient id="_未命名漸層_17-4" data-name="未命名漸層 17" x1="51.62" y1="162.47" x2="61.66" y2="147.2" xlink:href="#_未命名漸層_17"/>
    <linearGradient id="_未命名漸層_17-5" data-name="未命名漸層 17" x1="65.01" y1="154.5" x2="65.01" y2="150.59" xlink:href="#_未命名漸層_17"/>
    <linearGradient id="_未命名漸層_16-2" data-name="未命名漸層 16" x1="39.82" y1="77.2" x2="41.61" y2="90.49" xlink:href="#_未命名漸層_16"/>
    <linearGradient id="_未命名漸層_17-6" data-name="未命名漸層 17" x1="36.66" y1="98.36" x2="61.33" y2="149.69" xlink:href="#_未命名漸層_17"/>
    <linearGradient id="_未命名漸層_19-3" data-name="未命名漸層 19" x1="2038.51" y1="185.14" x2="2038.51" y2="171.87" gradientTransform="translate(-1786.08 355.34) scale(.95 -.9) skewX(-.02)" xlink:href="#_未命名漸層_19"/>
    <linearGradient id="_未命名漸層_19-4" data-name="未命名漸層 19" x1="1910.84" y1="129.65" x2="1910.84" y2="116.37" gradientTransform="translate(-1527.43 309.47) rotate(-.01) scale(.89 -.93) skewX(.03)" xlink:href="#_未命名漸層_19"/>
    <linearGradient id="_未命名漸層_31" data-name="未命名漸層 31" x1="4004.96" y1="120.89" x2="4004.96" y2="54.2" gradientTransform="translate(4165.51 253.83) rotate(-179.74)" gradientUnits="userSpaceOnUse">
      <stop offset=".15" stop-color="#0d0063"/>
      <stop offset="1" stop-color="#1c2ba6"/>
    </linearGradient>
    <linearGradient id="_未命名漸層_35" data-name="未命名漸層 35" x1="3698.16" y1="146.43" x2="3688.28" y2="111.44" gradientTransform="translate(3835.19 219.55) rotate(-180)" gradientUnits="userSpaceOnUse">
      <stop offset=".23" stop-color="#abdcf4"/>
      <stop offset=".75" stop-color="#dbeffb"/>
    </linearGradient>
    <linearGradient id="_未命名漸層_35-2" data-name="未命名漸層 35" x1="3778.51" y1="283.25" x2="3778.51" y2="259.24" gradientTransform="translate(3945.5 137.56) rotate(176.86)" xlink:href="#_未命名漸層_35"/>
    <linearGradient id="_未命名漸層_35-3" data-name="未命名漸層 35" x1="3701.01" y1="124.59" x2="3697.81" y2="113.26" xlink:href="#_未命名漸層_35"/>
    <linearGradient id="_未命名漸層_35-4" data-name="未命名漸層 35" x1="3703.71" y1="118.81" x2="3698.56" y2="100.58" xlink:href="#_未命名漸層_35"/>
    <linearGradient id="_未命名漸層_25" data-name="未命名漸層 25" x1="3699.46" y1="126.89" x2="3664.71" y2="98.6" gradientTransform="translate(3835.19 219.55) rotate(-180)" gradientUnits="userSpaceOnUse">
      <stop offset=".03" stop-color="#fffad1"/>
      <stop offset=".49" stop-color="#ffea4f"/>
      <stop offset="1" stop-color="#fedc1b"/>
    </linearGradient>
    <linearGradient id="_未命名漸層_34" data-name="未命名漸層 34" x1="3696.82" y1="124.89" x2="3708.48" y2="124.89" gradientTransform="translate(3835.19 219.55) rotate(-180)" gradientUnits="userSpaceOnUse">
      <stop offset=".22" stop-color="#f2d1d0"/>
      <stop offset="1" stop-color="#e3aead"/>
    </linearGradient>
    <linearGradient id="_未命名漸層_34-2" data-name="未命名漸層 34" x1="155.79" y1="150.87" x2="155.68" y2="162.63" gradientTransform="translate(0 219.55) scale(1 -1)" xlink:href="#_未命名漸層_34"/>
    <linearGradient id="_未命名漸層_34-3" data-name="未命名漸層 34" x1="154.16" y1="155.93" x2="154.66" y2="176.22" gradientTransform="translate(0 219.55) scale(1 -1)" xlink:href="#_未命名漸層_34"/>
    <linearGradient id="_未命名漸層_29" data-name="未命名漸層 29" x1="157.77" y1="165.58" x2="160.81" y2="165.58" gradientTransform="translate(0 219.55) scale(1 -1)" gradientUnits="userSpaceOnUse">
      <stop offset=".22" stop-color="#ffc6c1"/>
      <stop offset="1" stop-color="#ffa697"/>
    </linearGradient>
    <linearGradient id="_未命名漸層_31-2" data-name="未命名漸層 31" x1="3781.09" y1="280.59" x2="3781.09" y2="190.51" gradientTransform="translate(3945.5 137.56) rotate(176.86)" xlink:href="#_未命名漸層_31"/>
    <linearGradient id="_未命名漸層_31-3" data-name="未命名漸層 31" x1="3781.63" y1="276.98" x2="3781.63" y2="246.92" gradientTransform="translate(3945.5 137.56) rotate(176.86)" xlink:href="#_未命名漸層_31"/>
    <linearGradient id="_未命名漸層_35-5" data-name="未命名漸層 35" x1="3777.27" y1="288.26" x2="3777.27" y2="275.13" gradientTransform="translate(3945.5 137.56) rotate(176.86)" xlink:href="#_未命名漸層_35"/>
    <linearGradient id="_未命名漸層_35-6" data-name="未命名漸層 35" x1="3783.74" y1="290.81" x2="3783.74" y2="274.46" gradientTransform="translate(3945.5 137.56) rotate(176.86)" xlink:href="#_未命名漸層_35"/>
    <linearGradient id="_未命名漸層_34-4" data-name="未命名漸層 34" x1="2133.58" y1="122.67" x2="2153.29" y2="124.25" gradientTransform="translate(-1985.89 219.55) scale(1 -1)" xlink:href="#_未命名漸層_34"/>
    <linearGradient id="_未命名漸層_35-7" data-name="未命名漸層 35" x1="2148.84" y1="137.12" x2="2171.85" y2="137.12" gradientTransform="translate(-1985.89 219.55) scale(1 -1)" xlink:href="#_未命名漸層_35"/>
  </defs>
  <g id="_圖層_1-2" data-name="圖層 1">
    <g id="_圖層_2-2" data-name=" 圖層 2">
      <g id="_圖層_8" data-name=" 圖層 8">
        <g id="Topic_exploration6" data-name="Topic exploration6">
          <g>
            <path d="m108.98.06c-1.59,0-3.21.03-4.8.1l.35,8c.38-.02.77-.03,1.15-.04h.26c.64-.02,1.27-.03,1.91-.04h1.08V.06h.05Zm-7.67.27c-1.59.11-3.2.26-4.78.44l.91,7.96c.83-.09,1.66-.18,2.49-.25h.56c.44-.04.88-.07,1.32-.1l-.56-7.99h0l.06-.06Zm-7.64.8c-1.58.22-3.17.48-4.74.77l1.46,7.87c1.45-.27,2.92-.51,4.39-.72l-1.12-7.93h0Zm-7.57,1.34c-1.56.33-3.13.71-4.67,1.11l2.02,7.75c1.05-.27,2.1-.53,3.16-.77h.17c.33-.07.66-.15.99-.22l-1.67-7.83h0v-.04Zm-7.45,1.87c-1.53.44-3.07.93-4.58,1.44l2.56,7.59c.51-.17,1.02-.34,1.54-.51h0s.04-.01.06-.02h.02s.02,0,.04-.01c0,0,.02,0,.04-.01h.02s.04-.01.05-.02h.02s.03-.01.05-.02h0s.04-.01.06-.02h0c.77-.24,1.55-.48,2.33-.7l-2.22-7.69h0v-.03Zm-7.3,2.4c-1.5.55-3,1.14-4.47,1.76l3.1,7.39c.75-.31,1.5-.62,2.25-.91h0s.04-.02.06-.02h0s.04-.01.06-.02h.01s.04-.01.05-.02h.02s.03-.01.04-.02c0,0,.02,0,.03-.01h.03s.02-.01.04-.02.02,0,.03-.01c.01,0,.02,0,.03-.01h.01s.04-.02.06-.02h0c.47-.18.94-.36,1.41-.53l-2.76-7.52h0v-.04Zm-7.11,2.91c-1.45.65-2.91,1.35-4.33,2.07l3.61,7.15c.14-.07.29-.15.43-.22h0s.04-.02.06-.03h0s.03-.02.05-.03h0s.04-.02.06-.03h0s.03-.02.05-.03h.01s.03-.02.05-.02h.02s.03-.02.05-.02h.02s.03-.02.04-.02h.02s.03-.01.04-.02c0,0,.02,0,.02-.01.01,0,.02-.01.03-.02.01,0,.02-.01.03-.02,0,0,.02-.01.03-.02,0,0,.02,0,.03-.01.01,0,.02-.01.04-.02,0,0,.02,0,.02-.01.01,0,.03-.01.04-.02h.02s.02-.02.03-.03c.01,0,.02-.01.03-.02,0,0,.02,0,.03-.01.01,0,.03-.01.04-.02,0,0,.02,0,.03-.01.01,0,.02-.01.04-.02,0,0,.02-.01.03-.01s.02,0,.03-.01c.01,0,.03-.01.04-.02,0,0,.02,0,.03-.01.01,0,.03-.01.04-.02,0,0,.02,0,.03-.01.01,0,.02,0,.03-.01.01,0,.02-.01.03-.02,0,0,.02,0,.03-.01.01,0,.02-.01.03-.02,0,0,.02-.01.03-.01l.03-.02s.02-.01.03-.02c0,0,.02,0,.02-.01.01,0,.03-.01.04-.02,0,0,.02,0,.03-.01.01,0,.02-.01.04-.02,0,0,.02,0,.03-.01,0,0,.02-.01.03-.01s.02-.01.03-.02c0,0,.02,0,.03-.01.01,0,.02,0,.03-.01.01,0,.02-.01.04-.02,0,0,.02,0,.02-.01.01,0,.03-.01.04-.02,0,0,.01,0,.02-.01.01,0,.03-.01.04-.02h.02s.03-.02.04-.03c0,0,.01,0,.02-.01.01,0,.03-.01.04-.02h.02s.03-.01.04-.02h.02s.03-.01.05-.02h.02s.03-.02.05-.03h.02s.03-.02.05-.02h.01s.03-.02.05-.03h.01s.04-.02.05-.02h.01s.04-.02.05-.02h.01s.04-.02.05-.02h.01s.03-.02.05-.03h0s.04-.02.06-.03h0s.04-.02.06-.03h0s.04-.02.06-.03h0s.04-.02.06-.03h0s.04-.02.06-.03h0s.04-.02.06-.03h0s.08-.04.12-.06h0s.04-.02.06-.03h0s.04-.02.06-.03h0c.08-.04.17-.08.25-.11h0s.04-.02.06-.03h0s.04-.02.06-.03h0s.04-.02.06-.03l-3.29-7.3h0l.08-.1Zm-6.89,3.4c-1.4.76-2.81,1.55-4.18,2.37l4.11,6.88c1.16-.69,2.34-1.36,3.53-2.01h0s.03-.02.05-.03c0,0,.01,0,.02-.01.01,0,.02-.01.04-.02.01,0,.02,0,.03-.02,0,0,.02,0,.02-.01.01,0,.03-.02.04-.02h.02s.03-.02.05-.03h.01s.04-.02.05-.03h0l-3.8-7.05h0v-.02Zm-6.63,3.88c-1.35.85-2.69,1.75-4,2.66l4.58,6.57s.01,0,.02-.01c0,0,.02-.01.02-.02.01,0,.02-.01.03-.02.01,0,.02-.01.03-.02,0,0,.01,0,.02-.01.01,0,.03-.02.04-.03h.02s.03-.03.04-.04h.01s.03-.02.05-.03h0s.03-.02.05-.03h0s.07-.05.11-.08h0s.04-.03.06-.04h0s.04-.03.06-.04h0c.65-.44,1.3-.88,1.96-1.31h0s.04-.02.05-.03h0s.03-.02.05-.03h.01s.03-.02.05-.03h.01s.03-.02.04-.03c0,0,.01,0,.02-.01.01,0,.02-.01.04-.02,0,0,.01,0,.02-.01.01,0,.02-.01.04-.02,0,0,.02-.01.02-.02.01,0,.02-.02.04-.02,0,0,.02-.01.03-.02,0,0,.01,0,.02-.01.02-.01.03-.02.05-.03h0s.04-.02.06-.04h0c.2-.13.41-.26.62-.4l-4.29-6.77h0l.02-.06Zm-6.34,4.34c-1.28.94-2.56,1.93-3.8,2.93l5.03,6.23c.29-.23.58-.46.87-.69h0s.04-.03.05-.04h0s.03-.02.05-.04h0s.03-.03.05-.04h0s.03-.03.05-.04h0s.03-.02.05-.04h0s.03-.02.04-.03h.01s.03-.02.04-.03h.01s.03-.03.04-.04c0,0,.01,0,.02-.01.01,0,.03-.02.04-.03,0,0,.01,0,.02-.01.01,0,.03-.02.04-.03h.02s.02-.03.03-.04c0,0,.02-.01.02-.02.01,0,.02-.02.03-.02l.02-.02s.02-.02.03-.02l.02-.02s.02-.02.03-.03c0,0,.02-.01.02-.02.01,0,.02-.02.03-.03,0,0,.02-.01.02-.02.01,0,.01-.01.02-.02.01,0,.02-.02.03-.03,0,0,.01,0,.02-.02.01,0,.03-.02.04-.03,0,0,.01-.01.02-.01s.03-.02.04-.03c0,0,.01,0,.02-.01.01,0,.03-.02.04-.03,0,0,.01-.01.02-.01l.03-.02s.01-.01.02-.02c.01,0,.02-.02.04-.03,0,0,.01,0,.01-.01.01-.01.03-.02.04-.03h.01s.03-.03.05-.05h.01s.03-.03.05-.04h0c.07-.05.14-.11.21-.16h0c.36-.27.72-.55,1.09-.81l-4.75-6.45h0l.06-.04Zm-6.02,4.77c-1.21,1.03-2.42,2.11-3.59,3.19l5.45,5.87c.87-.81,1.76-1.61,2.66-2.39h0s.04-.03.05-.05h0s.03-.03.05-.05h0s.03-.03.04-.04h.01s.02-.02.03-.03c0,0,.02-.02.03-.03,0,0,.01,0,.02-.02.01,0,.02-.02.03-.03,0,0,.01,0,.02,0,.01,0,.02-.02.03-.03h.01s.03-.03.04-.04h0s.03-.03.05-.04h0s.03-.03.05-.05h0c.05-.05.11-.09.16-.14l-5.19-6.1h.05Zm-5.67,5.18c-1.14,1.11-2.27,2.27-3.35,3.43l5.85,5.47c.78-.83,1.56-1.65,2.37-2.45h0s.03-.03.05-.05h0s.03-.03.04-.05h0s.03-.03.04-.05h.01s.02-.03.03-.04c0,0,.01,0,.02-.02,0,0,.02-.02.03-.03,0,0,.01,0,.02-.02.01,0,.02-.02.03-.03l.02-.02h0s.03-.03.05-.05h0s.03-.04.05-.05h0c.11-.11.22-.21.33-.32l-5.61-5.72h.02Zm-5.29,5.56c-1.06,1.19-2.1,2.42-3.11,3.66l6.22,5.05s.04-.05.06-.07h0s.04-.05.04-.05c0,0,.01-.02.02-.03,0,0,.01-.02.02-.02.01,0,.02-.02.03-.03,0,0,0,0,.01-.02.01,0,.02-.03.03-.04h0s.03-.04.04-.06h0s.03-.03.04-.05h0s.03-.03.04-.05h0c.34-.41.68-.82,1.02-1.23h0s.03-.03.04-.05h0s.03-.03.04-.05h0s.03-.03.04-.05h0s.03-.03.04-.05h0s.03-.03.04-.04h0s.02-.04.04-.05h.01s.02-.04.03-.05c0,0,0,0,.01-.02.01,0,.02-.03.03-.04,0,0,.01,0,.02-.02,0,0,.02-.02.02-.03l.02-.03s.01,0,.02-.02c0,0,.02-.02.03-.03,0,0,.01,0,.02-.02,0,0,.02-.02.03-.03,0,0,.01-.02.02-.02.02-.03.05-.05.07-.08h0s.03-.03.04-.05h0s.03-.03.04-.05h0c.26-.31.53-.61.8-.92l-5.99-5.31h0l.08-.05Zm-4.89,5.92c-.97,1.26-1.93,2.57-2.84,3.87l6.56,4.6c.85-1.22,1.73-2.41,2.63-3.59l-6.35-4.88h0Zm-4.46,6.25c-.88,1.33-1.74,2.69-2.56,4.06l6.87,4.12c.14-.24.29-.48.43-.71h0s.02-.04.04-.06h0s.02-.04.03-.06h0s.02-.04.04-.06h0s.05-.08.07-.12h0s.02-.04.03-.05h0s.02-.04.03-.05h0s.02-.03.03-.05h0s.02-.04.03-.05h0s.02-.03.03-.05h0s.02-.03.03-.05h0s.02-.03.03-.05h0s.02-.04.03-.06h0s.02-.04.03-.06h0s.02-.04.03-.06h0s.02-.03.03-.05h0s.02-.04.03-.06h0s.02-.04.03-.06v-.02s.02-.03.03-.04c0,0,0,0,.01-.02,0,0,.02-.03.03-.04,0,0,0,0,.01-.02,0,0,.02-.03.03-.04v-.02s.02-.03.03-.04h0s.02-.04.03-.05h0s.02-.04.03-.05c0,0,0,0,.01-.02.01-.02.02-.03.03-.04v-.02s.02-.03.03-.05h0s.02-.04.03-.05h0s.02-.04.03-.05h0s.02-.04.03-.06h0s.02-.04.03-.06h0s.02-.04.03-.06h0s.02-.04.03-.06h0s.02-.04.03-.06h0s.02-.03.03-.05h0s.02-.03.03-.05h0s.02-.04.03-.06h0s.02-.04.03-.06h0s.02-.04.03-.05h0s.05-.08.07-.11h0s.02-.04.04-.06h0s.02-.04.04-.06h0c.13-.19.25-.39.38-.58l-6.68-4.42h0l.21-.1Zm-4.01,6.55c-.78,1.39-1.55,2.81-2.27,4.23l7.14,3.63h0c.45-.89.92-1.77,1.39-2.65h0s.02-.04.03-.06t0,0c.03-.06.07-.12.1-.18h0s.02-.04.03-.06h0s.02-.04.03-.06h0s.02-.04.03-.06h0c.03-.06.07-.12.1-.18h0s.02-.04.03-.06h0c.11-.2.23-.4.34-.61l-6.97-3.94h.02Zm-3.54,6.82c-.68,1.44-1.35,2.91-1.97,4.38l7.38,3.12c.58-1.37,1.18-2.72,1.82-4.06l-7.23-3.44h0Zm-3.05,7.05c-.58,1.48-1.14,3-1.65,4.51l7.58,2.58c.03-.1.07-.2.1-.3h0s.01-.04.02-.06v-.02s0-.02.01-.03c0-.01,0-.02.01-.04v-.03s0-.03.01-.04v-.02s.01-.03.02-.04v-.02s.01-.03.02-.05h0s.01-.05.02-.07h0s.01-.04.02-.06h0s.01-.04.02-.06h0c.26-.74.53-1.48.81-2.22h0s.02-.04.02-.06h0s.02-.04.02-.06h0s.02-.04.02-.06h0s.01-.04.02-.06h0s.01-.04.02-.06v-.02s.01-.03.02-.05v-.02s0-.02.01-.04c0-.01,0-.02.01-.03,0,0,0-.02.01-.03,0-.02.01-.03.02-.05v-.02l.21-.54-7.46-2.92h.09Zm-2.54,7.25c-.47,1.52-.92,3.08-1.33,4.62l7.74,2.04c.38-1.44.79-2.86,1.23-4.28l-7.65-2.38h.01Zm-2.02,7.41c-.36,1.55-.7,3.13-1,4.7l7.87,1.49c.05-.26.1-.51.15-.77h0v-.04h0v-.04h0v-.03h0v-.07h0v-.03h0v-.04h0v-.03h0v-.03h0c.15-.77.32-1.54.49-2.31h0s0-.05.02-.07h0c.02-.09.04-.18.06-.27h0c.05-.2.09-.41.14-.61l-7.8-1.83h0l.07-.02Zm-1.49,7.54c-.25,1.57-.48,3.17-.66,4.76l7.96.93c.07-.63.15-1.27.24-1.9h0v-.03h0v-.04h0v-.03h0s0-.08.02-.13h0v-.03h0v-.07h0v-.03h0c0-.05,0-.09.02-.13h0v-.03h0v-.11h0v-.03h0v-.06h0v-.03h0v-.02h0v-.07h0v-.04h0c0-.05.02-.11.02-.16h0v-.03h0v-.03h0c.07-.44.13-.89.21-1.33l-7.91-1.28h0l.1-.08Zm-.96,7.62c-.14,1.58-.25,3.2-.33,4.79l8,.37c.03-.72.07-1.45.12-2.16h0v-.03h0v-.25h0v-.03h0v-.03h0c.04-.63.1-1.27.15-1.9h0v-.02h0l-7.98-.73h.04Zm-.42,7.66c0,.74-.02,1.47-.02,2.21,0,.86,0,1.72.03,2.58l8.01-.19c0-.2,0-.4,0-.59h0v-.09h0v-.04h0v-.04h0c0-.43,0-.85,0-1.27h0v-.04h0v-.04h0v-.04h0v-.04h0v-.04h0v-.04h0v-.08h0v-.05h0v-.06h0v-.07h0v-.42h0v-.08h0c0-.45,0-.89.02-1.34v-.1h0l-8.01-.16H.03v.03Zm8.11,7.28l-8,.4c.08,1.59.19,3.2.34,4.79l7.97-.74c-.03-.34-.06-.69-.09-1.03h0v-.03h0v-.1h0v-.04h0v-.04h0v-.04h0c-.08-1.05-.15-2.09-.2-3.15h0l-.02-.02Zm.6,7.09l-7.95.95c.19,1.58.42,3.18.68,4.75l7.9-1.3c-.24-1.46-.45-2.93-.63-4.41h0Zm1.1,7.03l-7.86,1.51c.3,1.57.64,3.15,1.01,4.7l7.79-1.86c-.11-.45-.21-.89-.31-1.34h0v-.04h0s0-.05-.02-.08h0v-.09h0v-.03h0v-.04h0c-.2-.9-.39-1.81-.56-2.72h-.05Zm1.59,6.94l-7.74,2.07c.41,1.54.86,3.09,1.34,4.61l7.64-2.41c-.21-.68-.42-1.37-.62-2.06h0s0-.04-.02-.06h0s0-.05-.02-.06h0s0-.04-.02-.06h0s0-.04-.02-.06h0s-.02-.07-.02-.07h0s0-.05-.02-.07h0s0-.05-.02-.07h0s0-.04,0-.06v-.02s0-.03-.02-.05v-.02s0-.03,0-.05v-.02s0-.03,0-.05v-.06s0-.02,0-.04v-.03s0-.03,0-.04v-.09s0-.03,0-.05h0s0-.05-.02-.07h0s0-.05-.02-.08h0c-.02-.07-.03-.13-.05-.19h0s0-.05-.02-.08h0c-.07-.26-.14-.51-.21-.77h-.08Zm2.08,6.81l-7.57,2.61c.52,1.51,1.08,3.02,1.67,4.51l7.45-2.94c-.54-1.38-1.06-2.77-1.54-4.17h0Zm2.56,6.64l-7.37,3.14c.62,1.47,1.29,2.94,1.98,4.38l7.22-3.46c-.21-.44-.42-.88-.62-1.32h0s-.02-.04-.03-.06h0s-.02-.04-.03-.06h0s-.02-.04-.03-.06h0s-.02-.03-.02-.05h0s-.02-.04-.02-.06v-.02s-.01-.03-.02-.05v-.02s-.01-.03-.02-.04c0,0,0-.02-.01-.02,0,0,0-.02-.01-.03,0,0-.01-.02-.02-.04,0,0,0-.02-.01-.02,0-.02-.01-.03-.02-.05v-.02s-.02-.04-.03-.06h0c-.31-.68-.61-1.37-.9-2.06h0l-.04-.02Zm3.02,6.44l-7.13,3.65c.73,1.42,1.5,2.84,2.29,4.22l6.96-3.97h0s-.01-.03-.02-.05c0,0-.01-.02-.02-.03,0,0,0-.02-.01-.02,0-.02-.02-.03-.03-.05h0c-.5-.89-.99-1.78-1.46-2.68h0l-.03-.06h0s-.02-.04-.03-.05h0s-.02-.04-.02-.04c0,0-.01-.03-.02-.04,0,0,0-.02-.01-.02,0,0-.01-.03-.02-.04,0,0,0,0-.01-.02,0,0-.01-.03-.02-.04h0s-.02-.04-.03-.06h0s-.02-.05-.03-.06h0l-.03-.06h0c-.1-.18-.19-.37-.29-.56h0l-.04-.02Zm3.47,6.21l-6.85,4.15c.83,1.36,1.69,2.73,2.58,4.05l6.66-4.45c-.33-.5-.66-1-.99-1.51h0s-.02-.04-.04-.06h0s-.02-.03-.03-.05h0s-.02-.03-.03-.05h0l-.03-.06h0s-.02-.03-.03-.05h0s-.02-.03-.03-.05h0s-.02-.04-.03-.06h0s-.02-.04-.03-.06h0s-.02-.04-.03-.06h0s-.02-.04-.03-.05h0s-.02-.04-.03-.05h0s-.02-.04-.03-.05c0,0,0,0-.01-.02-.01-.02-.02-.03-.03-.04,0,0,0,0-.01-.02,0,0-.02-.03-.03-.04,0,0,0,0-.01-.02-.01-.02-.02-.03-.03-.04h0s-.02-.04-.02-.05c0,0,0,0-.01-.02,0,0-.02-.03-.03-.04h0s-.02-.04-.03-.05c0,0,0,0-.01-.02-.01-.02-.02-.03-.03-.04,0,0,0,0-.01-.02,0,0-.02-.03-.03-.04,0,0,0,0-.01-.02,0,0-.02-.03-.02-.04,0,0,0,0-.01-.02,0,0-.01-.02-.02-.03,0,0-.01-.02-.02-.02,0,0-.01-.02-.02-.04,0,0,0,0-.01-.02,0,0-.02-.03-.03-.04,0,0,0,0-.01-.02-.01-.02-.02-.03-.03-.04,0,0,0,0-.01-.02,0,0-.02-.03-.03-.04,0,0,0,0-.01-.02,0,0-.02-.03-.03-.04,0,0,0,0-.01-.02,0,0-.02-.02-.02-.04,0,0,0,0-.01-.02,0,0-.02-.03-.02-.04,0,0,0,0-.01-.02,0,0-.02-.03-.03-.04,0,0,0,0-.01-.02,0-.02-.02-.03-.03-.04,0,0,0,0-.01-.02,0,0-.02-.03-.03-.04,0,0,0,0-.01-.02,0,0-.02-.03-.02-.04,0,0,0,0-.01-.02,0,0-.02-.03-.02-.04,0,0,0,0-.01-.02,0-.02-.02-.03-.03-.04v-.02s-.02-.03-.03-.05v-.02s-.02-.03-.03-.05v-.02s-.02-.03-.03-.05h0l-.11-.03Zm3.9,5.95l-6.54,4.62c.92,1.3,1.88,2.6,2.85,3.86l6.33-4.9c-.58-.75-1.15-1.51-1.71-2.27h0s-.02-.03-.04-.05h0s-.02-.03-.03-.05h0s-.02-.04-.03-.05h-.01s-.02-.03-.03-.05c0,0,0,0-.01-.02,0,0-.02-.02-.02-.03,0,0-.01-.02-.02-.03,0,0-.01-.02-.02-.03,0,0-.02-.02-.03-.04,0,0-.01,0-.01-.02-.02-.03-.04-.06-.06-.09h0s-.03-.04-.04-.06h0c-.18-.26-.37-.52-.55-.77h0l-.03-.02Zm4.31,5.67l-6.2,5.07c1.01,1.23,2.06,2.46,3.12,3.65l5.97-5.33c-.05-.06-.1-.11-.15-.17,0,0-.01,0-.02-.02,0,0-.02-.02-.02-.03-.01,0-.02-.02-.03-.03h-.01s-.03-.04-.04-.05h0s-.03-.03-.04-.05h0s-.03-.03-.04-.05h0c-.54-.61-1.06-1.22-1.59-1.84h0s-.03-.03-.04-.05h0s-.03-.03-.04-.04h0s-.02-.04-.04-.05h-.01s-.02-.03-.03-.04c0,0-.01-.02-.02-.03,0,0-.01-.02-.02-.02,0,0-.02-.02-.03-.03,0,0,0,0-.02-.02-.01-.02-.03-.03-.04-.05h0c-.21-.26-.42-.51-.63-.77h0l-.03-.05Zm4.69,5.35l-5.83,5.49c1.09,1.16,2.22,2.31,3.37,3.42l5.59-5.74h0s-.03-.03-.04-.04h-.01s-.03-.03-.04-.05h-.01s-.03-.04-.04-.05c0,0-.01,0-.02-.02,0,0-.02-.02-.03-.03,0,0-.02-.02-.03-.02,0,0-.01,0-.02-.02,0,0-.02-.02-.03-.03,0,0-.01,0-.02-.02-.01,0-.02-.02-.03-.03l-.02-.02s-.09-.09-.13-.13h0s-.03-.04-.05-.05h0s-.03-.04-.05-.05h0l-.83-.83h0s-.04-.04-.05-.05h0s-.03-.04-.05-.05h0s-.09-.09-.13-.14h0s-.03-.03-.05-.05h-.01s-.04-.05-.04-.05h-.01s-.02-.03-.03-.05c0,0-.01,0-.02-.02,0,0-.01,0-.02-.02-.01,0-.02-.02-.03-.03,0,0-.01,0-.02-.02,0,0-.02-.02-.03-.03,0,0-.01,0-.02-.02-.01,0-.02-.02-.03-.03,0,0-.01,0-.02-.02-.01,0-.02-.02-.03-.03,0,0-.01,0-.02-.02-.01,0-.02-.02-.03-.03h0s-.03-.04-.04-.05h0s-.03-.03-.04-.04h0s-.03-.03-.04-.04h0c-.3-.32-.61-.63-.91-.95h0l-.06-.04Zm5.06,5.01l-5.43,5.88c1.17,1.08,2.38,2.15,3.6,3.18l5.17-6.12c-.57-.48-1.13-.96-1.68-1.45h0c-.09-.08-.17-.15-.26-.23h0s-.03-.03-.05-.04h0s-.03-.03-.05-.04h0s-.03-.03-.05-.04h0s-.06-.06-.1-.09h0s-.03-.03-.05-.04h0s-.03-.03-.05-.04h0s-.03-.03-.04-.04h0s-.03-.03-.04-.04h0s-.03-.03-.05-.04h0s-.03-.03-.04-.04h0s-.03-.03-.04-.04h0s-.03-.02-.04-.04h-.01s-.03-.03-.04-.04h-.01s-.03-.03-.04-.04h-.01s-.03-.03-.04-.04h0s-.03-.03-.04-.04h0s-.03-.03-.04-.04h-.01s-.03-.03-.04-.05h-.01s-.02-.03-.04-.04h-.01s-.03-.03-.04-.04c0,0-.01,0-.02,0,0,0-.03-.02-.03-.03,0,0-.01,0-.02-.02,0,0-.02-.02-.03-.03,0,0-.02,0-.02-.02-.01,0-.02-.02-.03-.03,0,0-.01,0-.02-.02-.01,0-.02-.02-.03-.03,0,0-.01,0-.02-.02,0,0-.02-.02-.03-.03l-.02-.02s-.02-.02-.03-.02h-.01s-.11-.12-.11-.12Zm5.39,4.64l-5.01,6.25c1.24,1,2.53,1.98,3.81,2.92l4.73-6.46c-.37-.27-.73-.54-1.09-.81h0s-.04-.03-.06-.05h0s-.02-.02-.03-.03c-.01,0-.02,0-.03-.02,0,0-.02,0-.03-.02-.01,0-.02,0-.03-.02,0,0-.02,0-.03-.02-.01,0-.02-.02-.03-.02,0,0-.01,0-.02-.02-.01,0-.03-.02-.04-.03h-.01s-.03-.03-.04-.04h-.01s-.03-.02-.05-.04h0s-.03-.03-.05-.04h0c-.66-.5-1.32-1.02-1.97-1.54h-.01Zm5.71,4.25l-4.56,6.59c1.31.91,2.66,1.8,4.01,2.64l4.26-6.78c-.3-.19-.61-.38-.91-.58h0s-.04-.03-.06-.04h0s-.03-.02-.05-.03c0,0-.01,0-.02,0,0,0-.02,0-.03-.02-.01,0-.02-.02-.03-.02,0,0-.02,0-.02-.02-.01,0-.02-.02-.04-.02h-.02s-.03-.03-.04-.04c0,0-.01,0-.02,0-.01,0-.03-.02-.04-.03h-.01s-.03-.02-.05-.03h-.01s-.03-.02-.05-.03h-.01s-.03-.02-.05-.03h0s-.03-.02-.05-.03h0c-.74-.48-1.47-.97-2.19-1.47h0v-.04Zm5.99,3.84l-4.08,6.89c1.37.81,2.78,1.61,4.18,2.36l3.77-7.06c-.74-.4-1.48-.8-2.21-1.22h0s-.04-.02-.06-.04h-.02s-.03-.02-.04-.03c0,0-.01,0-.02,0-.01,0-.03,0-.04-.02,0,0-.02,0-.03,0,0,0-.02,0-.03-.02-.01,0-.02,0-.03-.02,0,0-.01,0-.02,0-.01,0-.03-.02-.04-.02,0,0-.01,0-.02,0-.01,0-.03-.02-.05-.03h-.01s-.03-.02-.05-.03h0s-.04-.02-.05-.03h0s-.04-.02-.06-.03h0s-.04-.02-.05-.03h0s-.04-.02-.06-.03h0c-.32-.19-.64-.37-.96-.56h0l-.02-.04Zm6.25,3.41l-3.59,7.16c1.43.71,2.89,1.41,4.34,2.06l3.27-7.31c-.07-.03-.14-.06-.21-.1h0s-.04-.02-.06-.03h-.02s-.03,0-.04-.02c0,0-.02,0-.03,0-.01,0-.02,0-.03,0-.01,0-.03,0-.04-.02h-.02s-.03,0-.05-.02h-.02s-.03-.02-.05-.02h-.01s-.04-.02-.05-.02h0s-.04-.02-.06-.03h0s-.04-.02-.06-.03h0s-.04-.02-.06-.03h0c-.93-.42-1.85-.86-2.76-1.31h0s-.04-.02-.06-.03h0s-.04-.02-.06-.03h0s-.04-.02-.05-.03h-.01s-.03-.02-.05-.02c0,0-.01,0-.02,0-.01,0-.03,0-.04-.02,0,0-.02,0-.03,0h-.02s-.04-.02-.05-.03h0s-.02,0-.03-.02h0l-.03-.06Zm6.47,2.96l-3.07,7.4c1.47.61,2.98,1.2,4.48,1.74l2.74-7.53c-.75-.27-1.5-.55-2.24-.84h0s-.05-.02-.07-.03h0s-.04-.02-.07-.03h0s-.07-.03-.11-.04h0s-.04-.02-.07-.03h0s-.04-.02-.06-.02h0s-.04-.02-.06-.03h0s-.05-.02-.07-.03h0s-.07-.03-.11-.04h0s-.04-.02-.07-.03h0s-.05-.02-.07-.03h0c-.37-.15-.75-.3-1.12-.46h-.03Zm6.67,2.49l-2.54,7.6c1.51.51,3.06.98,4.59,1.42l2.2-7.7c-.57-.16-1.14-.33-1.7-.5h0s-.05-.02-.07-.02h0c-.06-.02-.12-.04-.18-.06h0s-.04,0-.07-.02h0s-.05-.02-.07-.02h0s-.07-.02-.11-.04h0s-.05,0-.07-.02h0s-.04,0-.07-.02h0c-.63-.2-1.25-.4-1.88-.61h-.03Zm6.83,2.01l-1.99,7.76c1.54.4,3.12.76,4.68,1.09l1.65-7.84c-.36-.08-.73-.15-1.09-.23h-.06c-1.06-.24-2.12-.49-3.17-.76h0l-.02-.02Zm6.95,1.52l-1.44,7.88c1.57.29,3.16.54,4.74.76l1.09-7.93c-.87-.12-1.74-.25-2.61-.39h-.17c-.54-.09-1.08-.18-1.61-.28h0v-.04Zm7.04,1.03l-.88,7.96c1.58.17,3.19.32,4.78.42l.53-7.99c-1.1-.07-2.2-.16-3.29-.27h-.2c-.31-.03-.61-.06-.91-.1h0l-.03-.02Zm7.1.53l-.32,8c1.47.06,2.95.09,4.42.09h.37l-.03-8.01h-1.74c-.51,0-1.03-.02-1.54-.03h-.65c-.17,0-.34,0-.51-.02h0v-.03Zm11.56-.19c-1.47.11-2.95.18-4.44.23l.23,8.01c1.59-.05,3.2-.13,4.79-.24l-.58-7.99h0Zm7.08-.77c-.81.12-1.62.22-2.44.32h-.24c-.57.07-1.14.13-1.72.19l.79,7.97c1.59-.16,3.19-.35,4.77-.58l-1.14-7.93h0l-.02.03Zm7-1.26c-.71.15-1.43.3-2.15.44h-.15c-.68.13-1.36.26-2.05.37l1.35,7.89c1.57-.27,3.16-.58,4.72-.92l-1.7-7.83h0l-.02.05Zm6.9-1.76c-1.18.35-2.37.67-3.57.97h0s-.1.03-.15.04h-.15c-.13.03-.27.07-.4.1l1.91,7.78c1.55-.38,3.11-.8,4.64-1.25l-2.25-7.69h0l-.03.05Zm6.76-2.24s-.08.03-.13.05h0s-.04,0-.06.02h0s-.04,0-.05.02h0s-.03,0-.05.02h0s-.03,0-.05.02h-.02s-.03,0-.04.02h-.02s-.03,0-.05.02h-.02s-.03,0-.04.02h-.02s-.02,0-.03,0c0,0-.02,0-.04,0h-.03s-.03,0-.04,0h-.03s-.03,0-.04,0h-.03s-.02,0-.03,0c0,0-.02,0-.03,0,0,0-.03,0-.04,0h-.02s-.03,0-.05.02h-.02s-.03,0-.05.02h-.02s-.04,0-.05.02h-.02s-.02,0-.03,0h0s-.04,0-.05.02h-.02s-.04,0-.05.02h-.02s-.03,0-.05.02h-.02s-.03,0-.05.02h-.02s-.02,0-.03,0h-.02s-.03,0-.05.02h-.03s-.03,0-.04,0h-.02s-.03,0-.04,0h-.06s-.03,0-.04,0h-.03s-.03,0-.04,0h-.02s-.02,0-.04,0c0,0-.02,0-.03,0,0,0-.02,0-.03,0h-.03s-.03,0-.04,0h-.02s-.03,0-.05.02h-.02s-.03,0-.05.02h-.02s-.03,0-.05.02h0s-.03,0-.05.02h0s-.04,0-.05.02h0s-.04.02-.06.02h0s-.04,0-.06.02h0s-.04,0-.06.02h0s-.09.03-.13.04h0s-.04,0-.06.02t0,0c-.46.16-.92.31-1.39.46l2.45,7.62c1.52-.49,3.04-1.02,4.54-1.57l-2.79-7.51h0l-.03.26Zm6.58-2.72c-.17.08-.34.15-.51.23h0s-.04.02-.06.03h0s-.04.02-.06.03h0s-.08.04-.12.06h0s-.04.02-.06.03h0s-.04.02-.06.02h0s-.03.02-.05.02h0s-.04.02-.05.02h0s-.03,0-.05.02h0s-.03.02-.05.02h0s-.03.02-.05.03h-.02s-.03.02-.05.02h-.02s-.03,0-.05.02h0s-.03,0-.04.02h-.02s-.03.02-.04.03h-.02s-.03,0-.04.02c0,0-.02,0-.02,0,0,0-.03,0-.04.02,0,0-.02,0-.03,0,0,0-.02,0-.03,0,0,0-.02,0-.04.02,0,0-.02,0-.03,0,0,0-.03,0-.04.02,0,0,0,0-.02,0-.02,0-.03,0-.05.02h-.02s-.02,0-.03,0c0,0-.02,0-.04.02,0,0-.02,0-.03,0h-.02s-.04.02-.05.02h0l-.06.03h0s-.04.02-.06.03h0c-.06.03-.12.05-.18.08h0s-.05.02-.07.03h0c-.56.24-1.13.47-1.7.7l2.99,7.43c1.48-.59,2.96-1.23,4.42-1.89l-3.32-7.29h0l-.05.07Zm6.37-3.17c-.57.31-1.14.61-1.72.91h0s-.04.02-.06.03h0s-.03.02-.05.03h0s-.03.02-.05.03h0s-.03.02-.05.02h-.02s-.03,0-.04.02c0,0-.02,0-.02,0,0,0-.02,0-.03.02,0,0-.02,0-.03,0,0,0-.02,0-.03.02,0,0-.02,0-.02,0,0,0-.03,0-.04.02,0,0-.02,0-.03,0,0,0-.02,0-.03.02,0,0-.02,0-.03.02h-.02s-.03.02-.05.02h0s-.04.02-.05.03h0c-.41.21-.81.41-1.22.61h-.02s-.03.02-.05.02c0,0,0,0-.02,0,0,0-.02,0-.04.02,0,0-.02,0-.03.02,0,0,0,0-.02,0,0,0-.03,0-.04.02h-.02s-.03,0-.05.02h0l3.51,7.2c1.43-.7,2.87-1.44,4.27-2.2l-3.82-7.04h0l-.05.08Zm6.13-3.62c-.98.62-1.96,1.23-2.96,1.82h0s-.03.02-.05.03h0s-.03.03-.05.04h-.02s-.03,0-.04.02c0,0-.02,0-.03.02,0,0-.02,0-.03.02-.02,0-.03.02-.05.03h0c-.19.11-.37.22-.56.33l4.01,6.93c1.38-.8,2.76-1.64,4.1-2.49l-4.31-6.75h0Zm5.86-4.04c-.64.48-1.29.95-1.94,1.41h0c-.07.05-.14.1-.21.15h0l-.05.04h0s-.03.02-.05.04h0s-.03.02-.05.03h0s-.03.02-.04.03c0,0-.02,0-.02.02,0,0-.02,0-.03.02,0,0-.02,0-.03.02,0,0-.02,0-.03.02,0,0-.02,0-.02.02l-.03.02s-.02,0-.03.02c0,0-.02,0-.03.02,0,0-.02,0-.03.02,0,0,0,0-.02,0,0,0-.03.02-.04.03,0,0,0,0-.02,0,0,0-.03.02-.04.03h0s-.03.03-.05.04h0s-.03.02-.05.03h0c-.25.17-.49.34-.74.51l4.49,6.63c1.32-.89,2.64-1.83,3.92-2.78l-4.77-6.43h0l-.05.04Zm5.56-4.44c-.41.35-.83.7-1.24,1.05h0l-.05.05h0s-.03.03-.05.04h0s-.03.02-.04.03c0,0,0,0-.02,0,0,0-.02,0-.02.02,0,0-.02.02-.03.02,0,0-.02,0-.03.02,0,0-.02,0-.02.02,0,0-.02.02-.03.03,0,0-.02,0-.02.02,0,0-.02.02-.03.02,0,0-.02,0-.03.02,0,0-.02,0-.02.02l-.03.03-.02.02s-.03.02-.04.03c0,0,0,0-.02,0,0,0-.02.02-.04.03h0s-.03.03-.04.04h0s-.03.02-.04.03h0s-.03.02-.04.03h0s-.03.02-.04.04h0s-.03.02-.05.04h0s-.03.03-.05.04h0s-.03.02-.05.04h0s-.07.06-.1.08h0s-.03.03-.05.04h0s-.03.03-.05.04h0s-.04.03-.05.04h0c-.32.26-.65.52-.98.78l4.94,6.3c1.25-.98,2.5-2.01,3.71-3.04l-5.21-6.08h0l-.08.09Zm5.24-4.82l-.21.21h0s-.02.03-.04.04c0,0-.02,0-.02.02,0,0-.02.02-.03.02l-.03.03h0s-.03.03-.04.05h0s-.03.04-.04.05h0l-.04.04h0c-.9.87-1.81,1.73-2.74,2.57l5.37,5.94c1.18-1.07,2.36-2.18,3.49-3.3l-5.62-5.7h0l-.02.03Zm4.89-5.17c-.21.24-.43.49-.64.72h0s-.03.03-.04.05h0l-.04.04h0s-.02.04-.04.05h0s-.02.04-.03.05c0,0,0,0,0,.02l-.03.03-.02.02-.03.03-.02.02-.03.03-.02.02-.03.03-.02.02-.03.03-.02.02-.02.02s-.02.02-.03.03l-.02.02-.03.03-.02.02-.03.03-.02.02s0,.02-.02.02c0,0-.02.02-.02.03l-.03.03s0,0,0,.02c0,0-.02.02-.03.04,0,0,0,0-.02.02,0,0-.02.02-.03.04l-.02.02-.03.03-.02.02s-.02.02-.03.03l-.02.02s0,.02-.02.02l-.03.03-.02.02-.03.03-.02.02s-.02.02-.02.03c0,0-.02.02-.02.03,0,0-.02.02-.02.03l-.02.02-.03.03s0,0,0,.02c0,0-.02.03-.04.04h0s-.02.03-.04.05h0s-.03.04-.04.05h0l-.04.04h0s-.03.03-.04.05h0l-.05.05h0l-.05.05h0c-.3.32-.6.64-.91.96l5.77,5.55c1.1-1.15,2.2-2.34,3.25-3.53l-6.01-5.29h0l-.02.03Zm4.51-5.5c-.08.1-.15.2-.23.29h0s-.03.03-.04.05h0s-.03.05-.03.05c0,0,0,0,0,.02,0,0-.02.03-.03.04,0,0,0,0,0,.02,0,0,0,.02-.02.03,0,0-.02.02-.03.03,0,0,0,.02-.02.02,0,0-.02.02-.03.03l-.02.02s-.02.02-.03.03l-.02.02s-.02.02-.02.03c0,0,0,.02-.02.02l-.03.03s0,0,0,.02c0,0-.02.03-.03.04,0,0,0,0,0,.02,0,0-.02.03-.03.04,0,0,0,0,0,.02,0,.02-.02.03-.03.04h0s-.02.04-.03.05h0s-.02.04-.03.05h0s-.02.04-.03.05h0s-.02.04-.04.06h0s-.02.03-.04.04h0s-.02.04-.03.06h0s-.02.04-.04.05h0s-.02.03-.04.05h0s-.02.03-.04.05h0s-.02.03-.04.05h0s-.02.04-.04.05h0s-.02.04-.04.05h0s-.02.03-.04.05h0s-.03.03-.04.04h0s-.02.03-.03.04h0s-.02.04-.04.05h0s-.02.04-.04.05h0s-.02.04-.04.05h0s-.02.04-.04.06h0s-.02.03-.04.04h0s-.02.03-.04.04h0s-.02.03-.04.05h0s-.02.04-.03.05h0s-.02.04-.03.05h0s-.02.04-.04.05h0s-.02.03-.04.04h0s-.02.03-.03.04h0s-.02.04-.04.05h0s-.02.04-.03.05h0s-.02.04-.04.05h0s-.02.04-.04.05h0s-.02.04-.03.05h0s-.02.03-.03.04h0s-.02.04-.04.05h0s-.02.04-.03.05h0s-.02.04-.03.05h0s-.02.04-.04.05h0s-.02.04-.03.05h0s-.02.04-.03.05h0s-.02.04-.04.05h0s-.02.04-.04.05h0s-.02.04-.04.05h0s-.02.04-.04.05h0s-.02.03-.04.04h0s-.02.03-.04.04h0s-.03.03-.04.05h0s-.02.03-.04.04h0l6.15,5.13c1.02-1.22,2.03-2.48,3-3.75l-6.37-4.86h0l-.28.3Zm4.12-5.81s-.06.09-.09.13h0s-.03.06-.03.06c0,0,0,0,0,.02,0,0-.02.03-.03.04l-.02.02s0,.02-.02.03c0,0,0,.02-.02.04,0,0,0,0,0,.02,0,0-.02.03-.03.04,0,0,0,0,0,.02,0,0-.02.03-.03.04v.02s-.03.03-.04.05h0s-.02.03-.03.05h0s-.02.04-.03.05h0s-.02.03-.03.05h0s-.02.04-.03.05h0s-.02.04-.04.05h0c-.65.96-1.31,1.91-1.99,2.85l6.49,4.69c.93-1.29,1.85-2.62,2.73-3.95l-6.69-4.4h0l-.04.03Zm3.7-6.08c-.12.22-.25.44-.38.66h0s-.02.03-.03.05h0s-.02.04-.03.06h0s-.02.04-.03.06h0s-.02.04-.02.06c0,0,0,0,0,.02,0,0,0,.02-.02.04,0,0,0,.02,0,.02,0,0,0,.02-.02.03,0,0,0,.02,0,.02,0,0,0,.02-.02.04,0,0,0,.02-.02.03,0,0,0,.02-.02.03,0,0,0,.02-.02.04h0s-.02.04-.03.06h0s-.02.04-.04.06h0c-.49.85-1,1.7-1.52,2.53l6.81,4.22c.84-1.35,1.66-2.75,2.44-4.14l-6.99-3.92h0l-.03.03Zm3.26-6.33c-.63,1.34-1.3,2.67-1.99,3.98l7.09,3.73c.74-1.41,1.46-2.86,2.14-4.3l-7.24-3.41h0Zm2.8-6.54c-.54,1.38-1.1,2.76-1.7,4.11l7.33,3.22c.64-1.46,1.26-2.95,1.83-4.44l-7.47-2.89h.01Zm2.33-6.72c-.2.65-.41,1.31-.62,1.95h0s-.02.05-.02.07h0s-.02.05-.02.08h0s-.02.07-.03.11v.02s-.01.03-.02.05v.06s-.02.02-.02.03v.03s0,.03-.01.04v.02s-.01.03-.02.05v.02s-.01.03-.02.05v.02s-.01.03-.02.05h0s-.01.05-.02.07h0s-.01.05-.02.06h0s-.01.05-.02.06h0s-.01.05-.02.07h0s-.01.04-.02.06h0s-.01.04-.02.06h0s-.01.05-.02.07h0s-.01.04-.02.06h0s-.03.08-.04.12h0s0,.04-.02.06h0s0,.04-.02.06h0s0,.04-.02.06h0s0,.04-.02.06h0s0,.04-.02.06h0s0,.04-.02.06h0s0,.05-.02.07h0s0,.05-.02.06h0s0,.04-.02.06v.02s0,.03-.02.04v.02s0,.03-.02.05v.02s0,.03-.02.04v.03s0,.02,0,.03c0,0,0,.03,0,.04v.04l7.53,2.69c.54-1.5,1.05-3.04,1.51-4.56l-7.65-2.36h0l-.13.07Zm1.85-6.87c-.05.2-.09.39-.14.59h0v.04h0v.04h0v.03h0v.03h0v.03s0,.03-.01.05h0s-.01.05-.02.07h0v.03h0v.03h0c-.09.38-.19.76-.28,1.15h0v.03h0v.03h0v.03h0v.03h0v.03h0s0,.04-.01.06h0v.08h0v.04h0v.03h0v.04h0c-.15.6-.31,1.2-.48,1.79l7.71,2.15c.43-1.54.83-3.1,1.19-4.66l-7.8-1.81h0l-.16.04Zm1.36-6.99c-.09.57-.19,1.15-.29,1.72h0v.03h0v.13h0v.04h0s-.01.08-.02.12h0c-.13.71-.26,1.42-.4,2.13h0s-.02.08-.02.11v.07h0v.04h0l7.85,1.6c.32-1.56.61-3.15.85-4.73l-7.91-1.25h-.06Zm.86-7.06c-.03.4-.07.81-.11,1.21h0v.03h0v.04h0v.11h0v.08h0v.03h0v.03h0v.04h0c-.1.95-.21,1.9-.33,2.84l7.94,1.04c.21-1.58.38-3.18.52-4.77l-7.98-.69h-.04Zm.37-7.11c0,.35-.01.7-.02,1.04h0v.03h0v.15h0v.03h0v.03h0v.03h0c-.01.51-.03,1-.06,1.5h0v.12h0v.04h0v.03h0v.04h0v.03h0v.19h0v.04h0c-.02.38-.04.74-.06,1.11l7.99.48c.1-1.59.16-3.2.18-4.79l-8.01-.13h0l-.02.03Zm7.87-7.54l-8,.42c.02.42.04.84.06,1.26h0v.04h0v.04h0v.09h0v.03h0v.04h0v.03h0c.03.77.05,1.54.06,2.32h0v.14h0v.08h0v.34l8.01-.07c-.01-1.59-.06-3.21-.15-4.79h0l.02.03Zm-.67-7.65l-7.95.98c.18,1.47.33,2.94.45,4.43l7.98-.63c-.13-1.59-.29-3.2-.48-4.78h0Zm-1.21-7.59l-7.86,1.54c.11.55.21,1.1.31,1.65h0v.04h0v.04h0s.01.08.02.12h0v.04h0v.03h0v.17h0v.06h0v.02h0v.03h0v.04h0v.03h0v.03h0c0,.05.02.09.02.13h0v.03h0v.03h0v.03h0c.01.08.03.16.04.24h0v.03h0c.01.07.02.14.03.2h0v.03h0v.03h0v.03h0v.03h0v.04h0v.07h0v.11h0v.04h0v.03h0c.05.3.09.6.14.9l7.92-1.19c-.24-1.58-.51-3.17-.82-4.73h0l.2.08Zm-1.74-7.49l-7.73,2.09c.16.59.32,1.19.47,1.79h0v.03h0v.03h0v.04h0v.11s.02.05.02.08h0v.03h0v.03h0v.03h0v.03h0c.17.7.34,1.4.49,2.1l7.82-1.75c-.35-1.56-.74-3.13-1.15-4.66h0l.08.02Zm-2.27-7.34l-7.56,2.64c.49,1.4.94,2.81,1.37,4.23l7.67-2.3c-.46-1.53-.96-3.07-1.48-4.57h0Zm-2.79-7.16l-7.36,3.17c.18.42.36.85.54,1.28h0s.02.04.02.06h0s.02.04.02.06h0s0,.05.02.06h0s0,.04.02.05c0,0,0,.02,0,.03,0,.01,0,.03.02.04v.02s0,.03.02.04c0,0,0,.02,0,.03,0,.01,0,.03.02.04v.03s.02.01.02.02c0,.02,0,.04.02.05h0s.02.05.03.07h0c.3.74.59,1.48.87,2.23l7.49-2.84c-.56-1.49-1.17-2.99-1.8-4.45h.03Zm-3.29-6.95l-7.11,3.68h0s.02.03.02.04c0,0,0,0,0,.02,0,0,0,.03.02.04,0,0,0,.02,0,.02,0,0,0,.02.02.04,0,0,0,.02.02.03,0,0,0,.02,0,.03,0,0,0,.03.02.04,0,0,0,0,0,.02,0,0,0,.03.02.04,0,0,0,.02,0,.02,0,.02.02.04.03.05h0s0,.02.02.03h0s.02.05.03.07h0s.02.05.03.07h0c.44.87.87,1.73,1.28,2.61h0s.02.04.02.06c0,0,0,.01,0,.02,0,.01,0,.03.02.04,0,.01,0,.02,0,.03v.03s.03.03.03.04v.02s.02.03.03.05v.02s.02.03.02.05h0c.07.14.14.29.2.44l7.27-3.36c-.67-1.45-1.38-2.9-2.11-4.31h0l.05.02Zm-3.77-6.7l-6.84,4.17c.23.38.45.75.68,1.13h0s.02.03.03.05h0s.02.04.03.06h0s.03.06.03.06h0s.02.04.02.05c0,0,0,0,0,.02,0,0,0,.02.02.03,0,0,0,.02.02.03,0,0,0,.02.02.03v.02s.03.02.04.04c0,0,0,.02,0,.03s0,.03.02.04c0,0,0,.02.02.03,0,0,0,0,0,.02,0,0,.02.03.03.04v.02s.02.03.03.05h0s.02.05.03.07h0s.06.11.09.16h0c.36.62.7,1.23,1.05,1.86l7.01-3.87c-.77-1.4-1.58-2.79-2.41-4.15h.05Zm-4.23-6.41l-6.53,4.64c.86,1.21,1.69,2.44,2.5,3.68l6.72-4.35c-.87-1.34-1.77-2.67-2.7-3.97h0Zm-4.67-6.1l-6.18,5.09c.43.52.86,1.05,1.28,1.59h0s.03.03.04.05h0s.03.03.04.05h0s.02.04.03.05v.02s.03.03.04.04h0s0,.03.02.04c0,0,0,0,0,.02,0,0,.02.03.03.04v.02s.03.03.04.04c0,0,0,0,0,.02,0,0,.02.02.03.04,0,0,0,0,0,.02l.03.04s0,0,0,.02c0,0,0,.02.02.03,0,0,.02.02.02.03,0,0,0,.02.02.03,0,0,0,.02.02.02,0,0,.02.02.03.03,0,0,0,0,.02.02,0,0,.02.02.03.04,0,0,0,0,0,.02,0,0,.02.03.03.04h0s.02.04.03.06h0s.03.05.04.06h0s.05.06.07.09h0s.03.04.04.06h0s.03.04.04.06h0c.2.27.41.53.61.8l6.4-4.81c-.96-1.27-1.96-2.54-2.97-3.77h.08Zm-5.08-5.76l-5.81,5.51c.08.08.16.17.24.25h0s.03.03.04.05h0s.03.03.04.04h0s.02.02.03.04c0,0,0,0,.02.02,0,0,.02.02.03.03,0,0,0,0,.02.02,0,0,.02.02.03.03,0,0,0,.02.02.02,0,0,0,0,.02.02,0,0,.02.03.04.04h0s.03.04.05.06h0c.81.87,1.61,1.76,2.4,2.67l6.05-5.25c-1.04-1.2-2.13-2.4-3.22-3.56h0Zm-5.47-5.39l-5.41,5.9c1.09,1,2.16,2.03,3.21,3.08l5.67-5.66c-1.13-1.13-2.29-2.24-3.47-3.32h0Zm-5.84-4.99l-4.99,6.27c.82.65,1.62,1.31,2.42,1.98h0s.03.03.05.04h0s.03.03.04.04h0s.03.02.04.04h0s.03.03.04.04h0s.02.03.03.04c0,0,0,0,.02.02,0,0,.02.02.03.03,0,0,0,0,.02,0,0,0,.02.02.04.03,0,0,0,0,.02.02,0,0,.02.02.04.03,0,0,0,0,.02.02,0,0,.02.02.03.03,0,0,0,0,.02.02,0,0,.02,0,.03.02,0,0,.02.02.03.03,0,0,0,0,.02.02,0,0,.02.02.03.03,0,0,0,0,.02.02,0,0,.02.02.03.03,0,0,.02,0,.02.02,0,0,.02,0,.02.02,0,0,.02.02.03.03,0,0,0,0,.02.02,0,0,.02.02.03.03,0,0,0,0,.02.02,0,0,.02.02.03.03l.02.02s.02.02.03.03c0,0,.02,0,.02.02,0,0,.02.02.03.02,0,0,0,0,.02.02,0,0,.02.02.04.03h0l5.26-6.04c-1.2-1.05-2.44-2.08-3.69-3.07h.04Zm-6.17-4.57l-4.53,6.6c.59.41,1.18.82,1.76,1.24h0s.04.03.06.04h0s.07.05.11.08h0s.04.03.05.04h0s.03.02.05.03h0s.03.02.04.03h0s.03.02.04.03h0s.03.03.04.04c0,0,0,0,.02.01,0,0,.02.02.03.02,0,0,.02.01.03.02,0,0,.02.01.03.02h.02s.02.03.04.04c0,0,.02.01.02.02,0,0,.02.02.03.02,0,0,.02.01.03.02,0,0,0,0,.02.01,0,.01.03.02.04.03h0s.03.02.05.04h0c.34.25.69.51,1.03.76l4.82-6.4c-1.27-.96-2.58-1.9-3.9-2.8h0l.03.06Zm-6.48-4.12l-4.06,6.9h0s.03.02.05.03h0s.04.02.05.03h0c.76.45,1.51.9,2.25,1.37h0s.04.02.06.03h0s.04.02.06.04h0s.08.05.11.07h0s.04.02.05.03h0s.03.02.05.03h0s.04.03.05.04h0s.04.02.05.03h0s.07.05.11.07h0s.04.02.05.03h0s.03.02.05.03h0s.04.02.05.03h0c.21.14.43.27.64.41l4.36-6.72c-1.34-.87-2.71-1.72-4.08-2.52h0l.09.07Zm-6.76-3.66l-3.56,7.17h0s.03.01.04.02c0,0,0,0,.02.01,0,0,.03.01.04.02h.02s.03.03.04.03c0,0,.02,0,.03.01h.02s.03.03.05.03h0s.04.02.06.03h0s.04.03.06.04h0c1.19.6,2.37,1.22,3.53,1.86l3.87-7.01c-1.4-.77-2.83-1.52-4.25-2.23h0v.02Zm-7-3.17l-3.04,7.41c.55.23,1.1.46,1.65.69h0s.02.01.03.02h0s.04.02.06.03h.02s.03.01.04.02c0,0,.02,0,.03.01,0,0,.02,0,.03.01,0,0,.02.01.04.02h.02s.03.01.05.02h.02s.03.02.05.03h0s.03.02.05.02h0c.66.29,1.31.58,1.96.89l3.37-7.27c-1.45-.67-2.93-1.32-4.4-1.92h0v.02Zm-7.21-2.67l-2.51,7.6c.54.18,1.07.36,1.61.55h0s.04.02.06.02h.02s.03.01.05.02h.02s.02,0,.03.01c0,0,.03.01.04.01h.02s.03.01.04.02h.02s.03,0,.04.01h.02s.03.01.05.02h0s.04.01.05.02h0s.04.02.06.02h0c.67.24,1.35.49,2.02.74l2.85-7.49c-1.49-.57-3.01-1.11-4.53-1.61h0l.02.06Zm-7.38-2.15l-1.97,7.76h.03s.04.01.06.02h.04s.03,0,.04.01h.16s.03,0,.05.01h.02s.04,0,.05.01h.02s.04,0,.05.01h0s.04.01.06.02h0s.04.01.06.02h0s.04.01.06.02h0s.05.01.06.02h0c.78.21,1.57.42,2.34.64h0s.04.01.06.02h0s.04.01.06.02h0s.04.01.06.02h0s.03,0,.05.01h.02s.03.01.04.02h.02s.03,0,.04.01h.03s.03,0,.04.01h.05s.04.01.06.02h0c.19.06.37.11.56.17l2.31-7.67c-1.53-.46-3.08-.89-4.63-1.28h0l.07.11Zm-7.51-1.62l-1.41,7.88h.16s.04,0,.06.01h.15c.08.01.16.03.24.04h.03c.08.02.16.03.24.04h.06c.05.01.11.02.17.03h.39c.94.18,1.87.38,2.8.59l1.76-7.81c-1.55-.35-3.14-.67-4.71-.95h0l.06.17Zm-7.6-1.09l-.85,7.96c.36.04.71.08,1.07.12h.28c.79.1,1.58.2,2.36.31h.12c.18.03.36.05.55.08l1.2-7.92c-1.57-.24-3.18-.45-4.76-.62h0l.03.07Zm-7.66-.55l-.29,8c.39.01.79.03,1.18.05h.31c.66.03,1.31.07,1.97.12h.31c.22.02.44.03.65.05l.64-7.98c-1.59-.13-3.2-.22-4.79-.28h0l.02.04Zm-4.05-.07v8.01h1.09L110.19,0h-1.18,0Z" style="fill: #4bd996; stroke-width: 0px;"/>
            <circle cx="108.98" cy="109.07" r="101" style="fill: none; stroke: #fff; stroke-miterlimit: 10; stroke-width: 12.46px;"/>
            <circle cx="108.98" cy="109.07" r="101" style="fill: #41d992; isolation: isolate; opacity: .39; stroke-width: 0px;"/>
          </g>
          <g style="clip-path: url(#clippath);">
            <g>
              <polygon points="267.21 135.06 260.4 136.46 260.4 148.02 250.98 148.02 250.98 122.51 237.67 122.51 237.67 146.93 236.96 147.11 236.96 164.08 235.55 164.08 235.55 145.06 231.21 144.52 231.21 141.12 220.34 141.12 220.34 141.12 215.08 141.73 215.08 146.08 208.25 147.42 208.25 150.43 203.32 151.14 199.61 154.26 201.15 154.26 201.15 156.71 196.92 156.71 196.92 147.29 183.85 147.29 183.85 124.95 177.58 124.95 177.58 124.95 175.15 126.07 175.15 158.27 174.48 158.27 174.48 134.5 171.63 134.5 171.63 134.04 169.57 134.04 169.57 134.5 167.19 134.5 167.19 154.8 158.44 154.8 158.44 143.69 156.07 143.69 154.84 141.59 151.71 141.59 150.31 143.69 148.34 143.69 148.34 146.07 145.55 145.97 145.55 144.75 132.27 144.04 126.81 145.05 126.81 135.31 97.69 135.31 97.69 105.57 97.69 105.57 92.41 105.28 92.41 102.83 84.92 102.12 79.52 103.33 79.52 105.93 78.22 106.18 74.92 106.83 74.92 152.07 74.19 152.18 74.19 153.74 70.02 153.74 70.02 159.61 66.72 160.72 66.72 145.87 65.24 145.87 65.24 144.72 63.86 144.72 63.86 145.87 63.26 145.87 63.26 143.27 61.45 143.27 61.45 145.87 60.07 145.87 60.07 143.27 58.26 143.27 58.26 145.87 57.66 145.87 57.66 144.72 56.28 144.72 56.28 145.87 54.82 145.87 54.82 155.32 53.06 155.32 53.06 158.51 51.76 158.51 51.76 164.08 50.91 164.08 50.91 141.25 46.24 141.25 44.65 139.99 42.46 139.99 42.46 133.27 41.55 133.27 41.55 127.23 40.83 127.23 40.83 133.27 40.49 133.27 40.49 113.56 39.82 128.05 39.82 133.27 39.14 133.27 39.14 139.99 37.02 139.99 35.43 141.25 30.07 141.25 30.07 146.44 29.21 145.61 29.21 94.99 28.16 94.99 28.16 93.54 29.21 93.54 29.21 91.02 28.39 91.02 28.39 88.66 23.04 88.66 23.04 88.66 20.69 89.55 20.69 91.02 11.27 91.02 11.27 88.66 5.92 88.66 5.92 88.66 3.57 89.55 3.57 91.85 2.35 92.28 2.35 94.67 3.24 94.39 3.24 95.87 2.35 96.17 2.35 143.37 -.55 143.37 -.55 133.95 -15.98 133.79 -15.98 133.95 -29.95 135.98 -29.95 146.66 -48.06 146.66 -48.05 151 -50.88 151 -50.88 198.44 270.8 198.44 270.8 135.57 267.21 135.06" style="fill: url(#_未命名漸層); stroke-width: 0px;"/>
              <g>
                <polygon points="107.92 194.75 107.9 172.34 103.44 172.34 103.43 194.75 107.92 194.75" style="fill: #71493c; stroke-width: 0px;"/>
                <path d="m107.91,187.42v-15.08h-4.47v15.08h0c1.33-.98,3.14-.98,4.48,0h0Z" style="fill: #b1b1b1; stroke-width: 0px;"/>
                <path d="m116.91,173.91c0-6.2-5.03-23.26-11.23-23.26s-11.23,17.06-11.23,23.26,5.03,11.23,11.23,11.23,11.23-5.03,11.23-11.23Z" style="fill: #007364; stroke-width: 0px;"/>
                <path d="m105.67,180.8c-3.98,0-7.62-1.02-10.43-2.71,1.66,4.13,5.7,7.05,10.43,7.05s8.77-2.92,10.43-7.05c-2.8,1.69-6.44,2.71-10.43,2.71h0Z" style="fill: #c7c6c6; isolation: isolate; opacity: .45; stroke-width: 0px;"/>
              </g>
              <g>
                <g>
                  <path d="m9.77,152.57c1.61,2.19,3.47,4.16,3.1,6.63-.15,1.02-.84,1.25-1.47,1.65s-1.18.96-.99,2.64c.24,2.15,1.6,3.41,2.97,4.64,1.4,1.23,2.8,2.44,3.1,4.56.17,1.28-.33,2.06-.88,2.84-.56.78-1.17,1.57-1.19,2.86,0,.7.24,1.49.68,2.36.45.87,1.13,1.8,1.92,2.79.8.99,1.73,2.02,2.73,3.09,1.03,1.06,2.15,2.15,3.28,3.26,2.22,2.23,4.63,4.48,6.56,6.74.07.08.14.17.21.25h2.16c-.49-1.87-1.03-4.08-1.61-6.55-1.82-7.93-3.57-18.67-4.32-29.51-.73-10.83-.43-21.71.31-29.82.07-1.02.18-1.98.28-2.91.1-.92.2-1.8.29-2.62.16-1.65.38-3.07.55-4.25.34-2.35.53-3.69.53-3.69-2.07-.34-3.22,2.61-4.04,5.91-.73,3.31-1.14,6.93-1.89,7.93-1.2,1.53-2.54,1.07-3.81.64-1.27-.43-2.48-.85-3.45.91-.45.83-.59,1.72-.51,2.6.08.88.34,1.77.62,2.61.57,1.69,1.16,3.21.63,4.35-.56,1.17-2.02.49-3.59.12-1.57-.36-3.23-.39-4.19,2.26-.55,1.55-.51,2.93-.05,4.2.45,1.27,1.23,2.41,2.04,3.51h.03Z" style="fill: #009e8f; stroke-width: 0px;"/>
                  <path d="m30.36,190.33c.58,2.47,1.12,4.68,1.61,6.55h1.68c.07-.45.16-.91.27-1.37.67-2.88,1.71-5.83,2.94-8.6.6-1.37,1.19-2.7,1.74-3.97.58-1.26,1.12-2.44,1.54-3.51.43-1.07.74-2.04.92-2.89.19-.85.21-1.57.02-2.15-.36-1.06-1.17-1.56-1.91-2.08-.75-.52-1.44-1.07-1.53-2.22-.16-1.92.94-3.26,2.06-4.56,1.14-1.31,2.31-2.58,2.21-4.41-.08-1.43-.69-1.84-1.34-2.1-.66-.27-1.37-.39-1.61-1.26-.59-2.12,1.03-3.99,2.61-5.91.78-.96,1.52-1.94,1.93-2.99.4-1.06.54-2.19,0-3.48-.89-2.22-2.56-2.3-4.13-2.06s-3.06.8-3.59-.28c-.52-1.05.27-2.39.96-3.84.35-.72.69-1.48.84-2.24.16-.77.19-1.55-.15-2.34-.69-1.67-1.95-1.51-3.27-1.31s-2.71.45-3.67-1.19c-.66-1.08-.27-4.56-.26-7.84.1-3.27-.15-6.36-2.22-6.7,0,0-.2,1.34-.54,3.69-.17,1.17-.39,2.6-.55,4.25-.09.82-.19,1.7-.29,2.62-.11.92-.22,1.89-.28,2.91-.74,8.1-1.04,18.98-.31,29.82.75,10.83,2.5,21.57,4.32,29.5v-.04Z" style="fill: #009e8f; stroke-width: 0px;"/>
                  <g>
                    <path d="m31.44,138.62c-.73.26-1.44.57-2.17.86-.72.3-1.43.62-2.15.96-.51.24-1.04.41-1.54.69-.04.68-.05,1.36-.06,2.04.69-.31,1.28-.92,1.94-1.39.68-.48,1.35-.97,2.02-1.47.67-.51,1.34-1,2-1.52.02-.02.04-.06.03-.1,0-.05-.04-.08-.07-.06h0Z" style="fill: #009e8f; stroke-width: 0px;"/>
                    <path d="m37.58,149.29c-1.23.62-2.45,1.3-3.68,1.96-1.22.69-2.44,1.4-3.66,2.12-1.22.73-2.47,1.33-3.58,2.28-.33.28-.66.57-.98.87l.08,1.61c.5-.26,1-.55,1.49-.84,1.21-.72,2.3-1.75,3.44-2.63,1.14-.89,2.32-1.76,3.48-2.62,1.16-.87,2.31-1.73,3.47-2.6.03-.02.04-.06.03-.1-.01-.04-.05-.07-.08-.05h0Z" style="fill: #009e8f; stroke-width: 0px;"/>
                    <path d="m36,163.75c-1.01.59-2,1.23-3.01,1.86-1,.66-1.95,1.32-2.93,1.99-.97.68-1.99,1.24-2.87,2.13-.14.14-.27.29-.41.43l.2,1.75c.3-.19.6-.38.9-.58.98-.66,1.83-1.64,2.74-2.46l2.71-2.47c.89-.84,1.84-1.65,2.74-2.49.02-.02.03-.07.02-.11s-.05-.07-.08-.05h0Z" style="fill: #009e8f; stroke-width: 0px;"/>
                    <path d="m37.59,176.71c-.98.66-1.91,1.37-2.85,2.07l-2.78,2.19c-.92.75-1.91,1.38-2.73,2.33-.13.15-.25.31-.38.46.11.58.2,1.16.33,1.73.29-.21.57-.42.84-.64.94-.73,1.72-1.76,2.57-2.65l2.54-2.66c.84-.89,1.68-1.77,2.53-2.67.02-.02.03-.07.01-.11s-.06-.06-.09-.04h0Z" style="fill: #009e8f; stroke-width: 0px;"/>
                  </g>
                  <g>
                    <path d="m25.66,141.02c-.42-.25-.86-.44-1.28-.69-.68-.4-1.36-.79-2.05-1.17-.69-.36-1.38-.76-2.08-1.1-.03-.02-.07,0-.08.06,0,.04,0,.09.02.11.61.62,1.23,1.19,1.84,1.77.62.57,1.25,1.12,1.88,1.66.54.47,1.09,1.03,1.68,1.39,0-.68.02-1.36.06-2.03h.01Z" style="fill: #009e8f; stroke-width: 0px;"/>
                    <path d="m25.74,156.36c-.29-.21-.57-.43-.86-.63-1.22-.86-2.52-1.39-3.75-2.09-1.24-.68-2.49-1.37-3.73-2.08-1.25-.69-2.51-1.39-3.76-2.07-.03-.02-.07,0-.08.06,0,.05,0,.1.03.12,1.18.96,2.38,1.86,3.57,2.77,1.2.88,2.38,1.74,3.61,2.59,1.23.83,2.42,1.8,3.69,2.4.45.22.91.42,1.36.61l-.08-1.67h0Z" style="fill: #009e8f; stroke-width: 0px;"/>
                    <path d="m26.83,169.99c-.09-.06-.19-.12-.28-.18-1.06-.67-2.19-1-3.29-1.48s-2.22-.96-3.3-1.45c-1.09-.47-2.19-.95-3.28-1.42-.03,0-.07.02-.07.07s.01.09.04.11c1.05.74,2.08,1.43,3.15,2.13l3.22,1.96c1.07.63,2.12,1.4,3.23,1.81.27.1.53.19.8.28l-.21-1.82h-.01Z" style="fill: #009e8f; stroke-width: 0px;"/>
                    <path d="m28.9,183.58c-.1-.05-.2-.11-.29-.16-1.1-.59-2.25-.84-3.37-1.25l-3.39-1.21c-1.13-.39-2.26-.79-3.39-1.18-.03,0-.07.02-.07.07s.02.09.05.11c1.08.67,2.22,1.27,3.32,1.89l3.33,1.73c1.11.56,2.2,1.25,3.33,1.58.27.08.55.15.83.22-.13-.6-.22-1.2-.34-1.8h-.01Z" style="fill: #009e8f; stroke-width: 0px;"/>
                  </g>
                  <path d="m32.47,196.88c-4.92-18.58-7.03-37.9-6.22-57.1.05-1.62.04-3.24.14-4.86l.27-4.86c.28-3.23.52-6.47.95-9.7h-.03c-.58,3.2-.98,6.42-1.41,9.65l-.5,4.86c-.18,1.62-.24,3.25-.37,4.87-.81,19.21,1.29,38.54,6.19,57.14h.98Z" style="fill: #2baea2; stroke-width: 0px;"/>
                </g>
                <g>
                  <path d="m202.49,196.88c.19-.08.39-.17.6-.27,1.57-.71,3.81-1.72,6.47-3,5.31-2.56,12.31-6.22,18.74-10.77,3.21-2.27,6.28-4.75,8.98-7.26,2.69-2.52,5.02-5.07,6.85-7.38,1.84-2.31,3.21-4.36,4.1-5.83.46-.73.78-1.33,1.01-1.72l.35-.61c-1.86-1-3.48.51-5.02,2.21-1.54,1.7-3.06,3.61-4.06,3.71-1.51.15-2.4-.93-3.27-1.91-.88-1-1.72-1.89-3.03-1.64-1.22.24-1.47,1.35-1.66,2.49-.21,1.12-.34,2.27-1.21,2.37-.89.1-1.62-1.24-2.59-2.49-.96-1.25-2.16-2.42-3.75-2.16-1.89.27-1.83,2.13-1.78,4.14.08,1.99.18,4.11-1.27,4.57-1.19.36-2-2-3.5-.86-.95.74-.93,2.2-.92,3.7-.01,1.48-.05,3.01-1.18,3.75-1.35.9-2.75-1.19-4.28-.78-1.66.44-2.66,4.81-4.35,9.51-1.41,4.01-3.28,8.22-5.78,10.24h.55Z" style="fill: #009e8f; stroke-width: 0px;"/>
                  <path d="m226.61,196.88c.16-.28.38-.53.73-.72,1.4-.77,2.92-.27,4.48.24.61.19,1.23.37,1.84.48h1.68c.36-.08.7-.21,1.04-.43,2.22-1.42,0-2.84,1.03-4.08,1.24-1.51,3.54-1.1,5.93-.99,2.37.13,4.83-.09,5.98-2.6.96-2.18-.22-3.38-1.49-4.33-1.28-.95-2.67-1.66-2.38-2.69.29-.99,1.59-1.35,2.97-1.86,1.36-.53,2.78-1.23,3.08-2.81.33-1.64-.82-2.25-1.98-2.87-1.18-.63-2.38-1.3-2.44-2.94-.04-1.06,1.66-3.22,2.76-5.54,1.11-2.32,1.6-4.71-.24-5.69,0,0-.12.21-.35.61-.24.39-.55.99-1.01,1.72-.9,1.47-2.27,3.51-4.1,5.83-1.84,2.31-4.16,4.86-6.85,7.38-2.7,2.51-5.77,4.99-8.98,7.26-6.43,4.55-13.43,8.21-18.74,10.77-2.66,1.28-4.9,2.3-6.47,3.01-.21.09-.4.18-.58.26h24.1,0Z" style="fill: #009e8f; stroke-width: 0px;"/>
                  <path d="m216.25,194.53c.95.63,1.9,1.24,2.87,1.85.27.16.54.33.82.49h.85l-1.22-1.01-2.61-2.14c-.87-.71-1.66-1.52-2.62-2.13l-.45-.28-1.13.58c.24.24.48.47.74.7.83.76,1.83,1.31,2.78,1.94h-.03Z" style="fill: #009e8f; stroke-width: 0px;"/>
                  <path d="m214,191.32l.02-.3c.05-1.13-.16-2.23-.28-3.35l-.4-3.33c-.16-1.1-.31-2.2-.51-3.3,0-.03-.04-.06-.07-.05-.03,0-.05.03-.05.06v3.35c.01,1.12.02,2.24,0,3.36,0,1.12-.12,2.26,0,3.37l.1.8,1.18-.61h.01Z" style="fill: #009e8f; stroke-width: 0px;"/>
                  <path d="m203.65,196.88c4.87-2.2,9.69-4.51,14.38-7.1,8.08-4.46,15.78-9.81,22.24-16.48,1.59-1.76,3.1-3.59,4.49-5.5,1.39-1.92,2.66-3.91,3.82-5.96h-.02c-1.29,1.96-2.68,3.86-4.18,5.67s-3.11,3.51-4.79,5.15c-6.38,6.59-13.99,11.88-22.02,16.31-5.27,2.91-10.72,5.48-16.23,7.93h2.31v-.02Z" style="fill: #2baea2; stroke-width: 0px;"/>
                </g>
                <g>
                  <path d="m125.55,167.93c1.89.63,3.92,1.27,3.84,2.79-.08,1.25-2.58,1.17-2.03,2.98.36,1.15,1.73,1.64,3.14,2.16,1.38.53,2.8,1.1,3.09,2.42.37,1.58-2.08,2.16-2.23,3.74-.17,1.71,3.57,4.18,7.38,7.41,2.71,2.27,5.44,4.89,6.87,7.46h.82c-.11-1.69-.27-3.99-.52-6.72-.53-5.87-1.51-13.71-3.51-21.33-1-3.8-2.24-7.55-3.65-10.96-1.42-3.41-2.99-6.48-4.51-9.01-1.52-2.53-2.96-4.53-4.02-5.89-.52-.69-.97-1.19-1.26-1.55-.29-.35-.45-.54-.45-.54-1.59,1.39-.74,3.44.3,5.48,1.05,2.04,2.31,4.13,2.05,5.1-.38,1.46-1.71,1.92-2.94,2.4-1.24.48-2.37.95-2.6,2.26-.2,1.22.75,1.85,1.75,2.43.98.59,2.01,1.11,1.79,1.96-.22.87-1.73,1.08-3.24,1.55-1.51.46-3.02,1.18-3.34,2.76-.41,1.87,1.35,2.47,3.25,3.12l.02-.02Z" style="fill: #009e8f; stroke-width: 0px;"/>
                  <path d="m130.22,142.98c1.06,1.36,2.5,3.36,4.02,5.89s3.09,5.6,4.51,9.01c1.41,3.41,2.65,7.15,3.65,10.96,2,7.62,2.98,15.46,3.52,21.33.25,2.73.41,5.03.52,6.72h.77c1.06-2.78,3.38-5.85,5.6-8.85,3.09-4.13,5.94-8.18,5.18-10.16-.71-1.82-3.17-1.57-3.46-3.48-.23-1.58.77-2.83,1.8-4.11.99-1.28,2.01-2.6,1.64-4.25-.55-2.58-2.66-1-3.46-2.4-.98-1.69.21-3.7,1.15-5.9.95-2.18,1.61-4.56-.34-6.52-1.71-1.66-3.24-.98-4.58-.12-1.34.87-2.49,1.92-3.36,1.28-.83-.62-.7-1.97-.7-3.43-.02-1.45-.18-3.03-1.55-3.87-1.42-.88-2.39-.02-3.38.85-1,.88-2.05,1.77-3.61,1.26-1.01-.34-2.43-2.68-4.22-4.53-1.78-1.85-3.84-3.15-5.41-1.77,0,0,.16.19.45.55s.74.87,1.26,1.55h0Z" style="fill: #009e8f; stroke-width: 0px;"/>
                  <g>
                    <path d="m141.81,151.06c-.53.54-1.05,1.07-1.58,1.61l-1.56,1.62c-.37.39-.78.73-1.14,1.13.21.44.41.89.6,1.35.53-.49.9-1.15,1.32-1.74.44-.61.86-1.24,1.27-1.89.4-.65.82-1.31,1.19-1.99,0-.03,0-.06,0-.09-.03-.03-.07-.03-.09,0h0Z" style="fill: #009e8f; stroke-width: 0px;"/>
                    <path d="m151.17,156.79c-.99.94-1.95,1.88-2.95,2.79-.99.93-1.98,1.84-2.98,2.73-.99.89-2.08,1.69-3.01,2.66l-.81.87c.11.37.23.74.33,1.12.45-.3.89-.63,1.32-.96,1.05-.81,1.93-1.86,2.86-2.84.94-.99,1.83-2,2.74-3.03.89-1.05,1.76-2.11,2.59-3.23.02-.03.02-.07,0-.1s-.06-.04-.09-.02h0Z" style="fill: #009e8f; stroke-width: 0px;"/>
                    <path d="m152.5,169.3l-2.78,1.95c-.91.66-1.85,1.3-2.78,1.94s-1.92,1.18-2.77,1.92l-.4.36.23,1.25c.3-.16.59-.33.88-.51.96-.58,1.79-1.39,2.65-2.13s1.72-1.49,2.57-2.26c.84-.79,1.67-1.58,2.48-2.41.02-.02.03-.06,0-.09-.02-.03-.06-.05-.09-.03h0Z" style="fill: #009e8f; stroke-width: 0px;"/>
                    <path d="m154.48,179.89l-2.94,1.69-2.92,1.7c-.97.56-2.01,1.02-2.91,1.7l-.42.33.15,1.26c.31-.14.61-.29.92-.44,1-.51,1.87-1.26,2.79-1.92.92-.67,1.83-1.35,2.74-2.04.89-.71,1.81-1.41,2.68-2.16.02-.02.03-.06.02-.09-.02-.04-.05-.05-.08-.03h-.03Z" style="fill: #009e8f; stroke-width: 0px;"/>
                  </g>
                  <g>
                    <path d="m137.57,155.33c-.46.03-.92.1-1.38.14-.74.06-1.48.13-2.21.22-.73.1-1.47.2-2.2.33-.03,0-.06.04-.05.07,0,.03.03.05.06.05.74.06,1.48.12,2.21.17.75.06,1.49.12,2.23.17.66.05,1.3.19,1.95.18-.19-.45-.39-.9-.6-1.34h0Z" style="fill: #009e8f; stroke-width: 0px;"/>
                    <path d="m141.46,165.72c-.31-.08-.62-.16-.93-.22-1.31-.28-2.63-.28-3.96-.36-1.32-.07-2.64-.13-3.95-.16-1.32,0-2.63,0-3.94.04-.03,0-.06.03-.06.06s.02.05.05.05c1.29.13,2.6.26,3.88.44,1.29.16,2.61.34,3.91.56,1.3.21,2.6.55,3.93.65.47.04.94.07,1.41.1-.1-.39-.23-.78-.34-1.16h0Z" style="fill: #009e8f; stroke-width: 0px;"/>
                    <path d="m143.82,175.34l-.28-.1c-1.07-.37-2.2-.46-3.3-.65-1.1-.18-2.19-.36-3.3-.52-1.11-.14-2.21-.28-3.32-.38-.03,0-.06.02-.07.05,0,.03.02.06.04.06,1.06.29,2.15.56,3.22.87,1.07.29,2.15.59,3.22.91,1.08.31,2.12.75,3.23.94l.8.13-.24-1.3h0Z" style="fill: #009e8f; stroke-width: 0px;"/>
                    <path d="m145.33,185.18l-.28-.12c-1.04-.45-2.15-.63-3.23-.91l-3.26-.79c-1.09-.23-2.17-.48-3.27-.68-.03,0-.07.02-.07.05s0,.06.04.07c1.05.39,2.09.78,3.14,1.17,1.05.38,2.1.77,3.15,1.18,1.05.39,2.07.91,3.16,1.18l.79.19-.15-1.32-.02-.02Z" style="fill: #009e8f; stroke-width: 0px;"/>
                  </g>
                  <path d="m136.81,154.67c3.93,8.28,6.22,17.27,7.55,26.34.78,5.26,1.25,10.55,1.6,15.86h.95c-.35-5.35-.82-10.69-1.61-16-1.34-9.14-3.65-18.22-7.64-26.61-1.09-2.11-2.27-4.16-3.58-6.14-1.31-1.97-2.73-3.87-4.25-5.67l-.02.02c1.4,1.9,2.68,3.87,3.85,5.91,1.17,2.04,2.2,4.15,3.14,6.29h0Z" style="fill: #2baea2; stroke-width: 0px;"/>
                </g>
                <g>
                  <path d="m14,191.36c1.62,1.88,3.3,3.71,4.99,5.52h8.9c-1.02-4.3-1.86-8.57-2.5-12.8-.9-5.55-4.66-10.14-9.68-11.97-1.7-.66-3.25-1.88-4.34-3.47-.84-1.25-1.82-2.36-3.06-3.2-.61-.42-1.27-.78-1.96-1.07-.7-.28-1.38-.52-2.13-.65l-1.28-.25c-.62-.12-1.18-.55-1.51-1.16-.35-.64-.73-1.25-1.14-1.84-.38-.6-.77-1.19-1.2-1.75-.85-1.12-1.81-2.15-2.86-3.09-1.98-1.91-4.29-3.44-6.87-4.45,2.66,7.18,6.13,14.04,10.14,20.55,4.27,6.94,9.17,13.48,14.49,19.64h.01Z" style="fill: #2baea2; stroke-width: 0px;"/>
                  <path d="m6.06,181.51l.83,1.11c.13-.08.22-.23.21-.42-.13-2.11-.27-4.18-.27-6.29l-.02-3.11c0-1.03,0-2.04.05-3.07-.14.97-.22,1.93-.3,2.9l-.23,2.93-.19,2.98c-.04.99-.06,1.97-.08,2.97h0Z" style="fill: #107874; stroke-width: 0px;"/>
                  <path d="m.48,173.39l.73,1.17c.14-.08.23-.22.23-.41,0-2.7,0-5.31.09-7.9-.42,2.34-.73,4.7-1.05,7.14Z" style="fill: #107874; stroke-width: 0px;"/>
                  <path d="m-10.86,166.19c.31.73.67,1.45,1.05,2.16h0c.37.68.47,1.45.26,2.08l-.42,1.33c-.53,1.65-.51,3.42-.12,5.19.2.88.49,1.77.86,2.62.19.43.4.85.63,1.26.24.4.51.79.79,1.16.78,1.04,1.38,2.16,1.82,3.33.22.58.4,1.18.55,1.78.16.59.28,1.18.35,1.77.19,1.47.61,2.95,1.2,4.36.54,1.33,1.32,2.53,2.17,3.64h20.67c-1.14-1.21-2.26-2.43-3.37-3.67-5.51-6.21-10.6-12.81-15.07-19.81-4.46-7-8.3-14.42-11.17-22.22-1.2,2.38-1.79,5.24-1.72,8.26.1,1.48.35,2.99.76,4.51.21.76.44,1.52.73,2.26h.03Z" style="fill: #009e8f; stroke-width: 0px;"/>
                  <path d="m6.22,181.47c-.97-.27-1.96-.55-2.93-.84l-2.89-.95-2.92-1c-.98-.34-1.97-.69-2.92-1.08.96.5,1.99.93,2.99,1.38l2.98,1.3c1.95.87,3.99,1.62,5.98,2.35h.04c.18.07.35,0,.45-.12l-.78-1.05h0Z" style="fill: #107874; stroke-width: 0px;"/>
                  <path d="m14.53,192.09l1.38,1.58c.19-.14.3-.37.26-.66-.46-3.2-.88-6.32-1.12-9.47-.12-1.57-.29-3.09-.34-4.66-.07-1.56-.12-3.1-.16-4.62-.15,2.87-.33,5.86-.28,8.8,0,1.48.02,2.98.05,4.5.04,1.5.13,2.99.22,4.52h-.01Z" style="fill: #107874; stroke-width: 0px;"/>
                  <path d="m14.77,192.01c-1.49-.3-3.02-.6-4.52-.94-1.49-.35-2.99-.72-4.51-1.11-3.06-.74-6.03-1.69-9.1-2.65,1.57.64,3.13,1.27,4.68,1.87,1.53.62,3.14,1.13,4.69,1.68,3.09,1.09,6.25,2.01,9.34,2.88l.07.02c.28.06.52-.06.66-.26l-1.3-1.5h-.01Z" style="fill: #107874; stroke-width: 0px;"/>
                  <path d="m21.75,196.88h.73c-.53-2.83-.98-5.65-1.35-8.44.07,1.97.25,3.89.4,5.87.07.85.15,1.71.23,2.57h-.01Z" style="fill: #107874; stroke-width: 0px;"/>
                  <path d="m.64,173.36c-2.3-.79-4.68-1.62-7.02-2.55,2.4,1.33,4.84,2.54,7.2,3.73.02,0,.05.02.07.03.17.06.33,0,.44-.1l-.69-1.11h0Z" style="fill: #107874; stroke-width: 0px;"/>
                  <path d="m-3.04,167.64c.74,1.47,1.64,2.85,2.47,4.26.85,1.41,1.68,2.83,2.61,4.18,3.55,5.54,7.59,10.76,11.83,15.79,1.44,1.69,2.91,3.35,4.41,5h1.42c-1.76-1.83-3.49-3.68-5.17-5.57-4.33-4.91-8.46-10.02-12.12-15.46-.97-1.33-1.82-2.72-2.7-4.11-.86-1.39-1.79-2.75-2.56-4.2l-2.41-4.29-2.17-4.42,2.07,4.47,2.32,4.35h0Z" style="fill: #107874; stroke-width: 0px;"/>
                </g>
                <g>
                  <path d="m84.56,196.88c1.86-5.23,4.02-10.22,6.47-14.89,1.8-3.52,1.58-7.68-.49-10.81-.69-1.08-1.06-2.42-1.01-3.78.05-1.05-.05-2.1-.4-3.09-.34-.99-.9-1.91-1.6-2.68l-.62-.67c-.3-.32-.44-.8-.37-1.29.07-.51.11-1.01.12-1.52.03-.5.06-1,.05-1.49,0-.99-.13-1.97-.33-2.94-.33-1.9-1-3.74-2.04-5.38-1.48,5.17-2.38,10.5-2.82,15.86-.88,10.92.06,21.93,2.2,32.66h.83v.02Z" style="fill: #2baea2; stroke-width: 0px;"/>
                  <path d="m81.16,172.48v.97c.12,0,.22-.04.3-.15.8-1.25,1.59-2.48,2.47-3.67.87-1.19,1.68-2.36,2.59-3.48-.95.99-1.81,2.02-2.72,3.08l-1.35,1.61c-.44.54-.86,1.09-1.28,1.65h0Z" style="fill: #107874; stroke-width: 0px;"/>
                  <path d="m81.38,165.57l-.08.96c.11,0,.22-.03.3-.14,1.12-1.53,2.21-3.01,3.34-4.43-1.21,1.15-2.37,2.36-3.57,3.61h.01Z" style="fill: #107874; stroke-width: 0px;"/>
                  <path d="m82.11,158.68l-.13.95c.11.02.23-.02.31-.13.82-1.05,1.62-2.08,2.52-3.06l-1.38,1.09-1.32,1.14h0Z" style="fill: #107874; stroke-width: 0px;"/>
                  <path d="m82.7,196.88h1.03c-.92-4.56-1.61-9.17-2.04-13.8h0c-.53-5.81-.67-11.67-.28-17.49s1.31-11.62,2.93-17.23c-1.67.85-3.2,2.22-4.41,3.96-.56.88-1.05,1.84-1.45,2.87-.2.51-.38,1.04-.53,1.58-.12.54-.23,1.1-.3,1.66h0c-.07.54-.34,1.01-.72,1.29l-.79.58c-.99.72-1.72,1.72-2.23,2.89-.26.58-.46,1.2-.6,1.85-.07.32-.13.65-.17.98-.03.33-.04.66-.04.99,0,.91-.12,1.8-.36,2.65-.12.42-.27.84-.43,1.24-.15.4-.33.78-.54,1.15-2.07,3.66-1.9,8.83.52,11.66,3.24,4.75,6.73,9.13,10.39,13.19l.02-.02Z" style="fill: #009e8f; stroke-width: 0px;"/>
                  <path d="m81.27,172.53l-1.31-1.7-1.24-1.74c-.81-1.17-1.68-2.38-2.44-3.61.7,1.37,1.51,2.7,2.26,4,.74,1.3,1.58,2.58,2.4,3.82l.02.03c.08.11.2.14.31.11v-.92h0Z" style="fill: #107874; stroke-width: 0px;"/>
                  <path d="m81.55,182l.12,1.47c.16,0,.33-.08.42-.26,1.07-2,2.13-3.94,3.31-5.83,1.12-1.89,2.36-3.71,3.58-5.46-1.28,1.56-2.63,3.18-3.83,4.87l-1.84,2.57c-.6.87-1.17,1.75-1.76,2.65h0Z" style="fill: #107874; stroke-width: 0px;"/>
                  <path d="m81.72,182.06c-.72-.79-1.46-1.6-2.17-2.41l-2.09-2.51c-1.43-1.7-2.71-3.47-4.05-5.29,1.24,2.04,2.48,4.01,3.83,5.91,1.29,1.91,2.7,3.74,4.08,5.52l.03.04c.14.15.32.18.48.13l-.11-1.39h0Z" style="fill: #107874; stroke-width: 0px;"/>
                  <path d="m82.46,189.78l.14.96c.11,0,.21-.07.27-.19,1.22-2.71,2.55-5.34,3.94-7.87-.78,1.14-1.48,2.3-2.22,3.49s-1.44,2.39-2.13,3.61h0Z" style="fill: #107874; stroke-width: 0px;"/>
                  <path d="m82.57,189.81c-1.03-.98-2.05-1.98-3.02-3.02-.98-1.03-2.01-2.08-2.96-3.16,1.87,2.44,3.78,4.77,5.77,7l.02.02c.1.09.22.11.32.07l-.13-.91Z" style="fill: #107874; stroke-width: 0px;"/>
                  <path d="m81.48,165.62c-.97-1.41-1.97-2.86-2.91-4.37.81,1.75,1.68,3.46,2.52,5.11,0,0,.02.03.03.04.07.1.19.14.29.12l.07-.91h0Z" style="fill: #107874; stroke-width: 0px;"/>
                  <path d="m82.21,158.74l-.98-1.53-.9-1.56c.41,1.29.93,2.55,1.45,3.8,0,.02.02.05.03.07.07.1.17.14.27.14l.12-.91h0Z" style="fill: #107874; stroke-width: 0px;"/>
                  <path d="m82.95,195.39c.09.5.19.99.28,1.49h.98c-.12-.55-.24-1.11-.36-1.66-.91-4.51-1.57-9.07-1.98-13.65-.4-4.58-.62-9.2-.42-13.8,0-1.15.1-2.3.18-3.45.09-1.15.13-2.3.3-3.44l.42-3.43.61-3.41-.69,3.39-.5,3.43c-.19,1.14-.26,2.29-.38,3.44-.11,1.15-.23,2.3-.26,3.46-.3,4.62-.18,9.25.12,13.86.32,4.62.87,9.22,1.69,13.78h.01Z" style="fill: #107874; stroke-width: 0px;"/>
                </g>
                <g>
                  <path d="m201.4,196.88c4.75-2.88,9.53-5.99,14.26-9.61,3.26-2.5,5.85-6.25,7.33-10.52,1.49-4.26,1.84-9.01.86-13.08-.67-2.84-.86-6.06-.51-9.32.27-2.55.02-5.16-.69-7.47-.74-2.32-1.92-4.33-3.49-5.76l-1.35-1.22c-.66-.57-1.13-1.52-1.28-2.57-.67-4.42-2.49-8.5-5.05-11.55-2.54-3.07-5.72-5.12-8.98-6.02,4.59,8.59,7.09,18.34,6.83,28.09-.1,5.19-.91,10.35-2.23,15.36-1.32,5.02-3.13,9.89-5.24,14.63s-4.51,9.34-7.03,13.87c-.96,1.73-1.95,3.45-2.93,5.17h9.51,0Z" style="fill: #2baea2; stroke-width: 0px;"/>
                  <path d="m207.17,162.65l-.45,1.7c.18.07.39.04.56-.12,3.95-3.63,7.66-7.85,10.88-12.84-1.68,2.2-3.45,4.23-5.28,6.1-1.84,1.87-3.76,3.58-5.71,5.16h0Z" style="fill: #107874; stroke-width: 0px;"/>
                  <path d="m209.16,150.3c-.02.58-.09,1.16-.14,1.74.19.03.39-.04.53-.24,1.97-2.75,3.76-5.77,5.28-9.06-1.72,2.76-3.63,5.27-5.68,7.55h.01Z" style="fill: #107874; stroke-width: 0px;"/>
                  <path d="m208.57,137.81c.1.57.18,1.15.25,1.72.19,0,.37-.13.47-.37.88-2.25,1.66-4.62,2.23-7.09-.45,1.01-.9,1.98-1.4,2.94l-.75,1.41-.8,1.38h0Z" style="fill: #107874; stroke-width: 0px;"/>
                  <path d="m186.98,188.84c.06,2.65.08,5.34.08,8.04h4.82c3.05-5.32,6.05-10.66,8.67-16.21h0c2.27-4.78,4.26-9.69,5.78-14.76,1.52-5.06,2.55-10.28,2.89-15.57.34-5.28-.05-10.6-1.2-15.77-1.15-5.16-3.07-10.14-5.53-14.82-1.1,3.23-1.68,6.61-1.91,9.94-.21,3.34-.13,6.63.38,9.93h0c.11.79-.15,1.58-.69,2.1l-1.15,1.06c-2.81,2.57-4.29,5.75-4.49,9.15-.13,2.36-1.38,4.55-3.23,6.07-2.28,1.89-4,4.23-4.99,6.86-1.01,2.62-1.32,5.55-.59,8.4.71,4.95,1.03,10.2,1.15,15.58h0Z" style="fill: #009e8f; stroke-width: 0px;"/>
                  <path d="m207.33,162.78c-.97-2.35-2.04-4.59-3.23-6.71-1.19-2.12-2.49-4.11-3.87-5.94,2.56,4.04,4.64,8.76,6.19,13.86l.02.06c.09.22.27.34.46.34l.43-1.61h0Z" style="fill: #107874; stroke-width: 0px;"/>
                  <path d="m201.3,178.84c-.37.81-.74,1.62-1.13,2.42.25.15.56.16.87-.03,6.85-4.38,13.62-9.54,19.72-16.44-6.14,5.97-12.78,10.39-19.46,14.05h0Z" style="fill: #107874; stroke-width: 0px;"/>
                  <path d="m201.5,179.07c-1.63-7.52-3.95-14.67-7.28-20.64,2.91,6.48,4.64,14.18,5.59,22.21v.09c.09.36.32.57.62.64.37-.76.72-1.53,1.07-2.29h0Z" style="fill: #107874; stroke-width: 0px;"/>
                  <path d="m194.87,191.48l-.86,1.54c.16.11.36.13.57.02,4.7-2.56,9.39-5.26,14.02-8.39-4.56,2.58-9.15,4.78-13.74,6.84h0Z" style="fill: #107874; stroke-width: 0px;"/>
                  <path d="m194.99,191.65c-.68-5.02-1.5-9.98-2.62-14.71.76,5.05,1.16,10.33,1.43,15.66v.06c.04.24.18.39.37.44l.81-1.45h.01Z" style="fill: #107874; stroke-width: 0px;"/>
                  <path d="m209.34,150.39c-1.75-2.55-3.67-4.88-5.73-6.94,1.88,2.49,3.58,5.27,5.05,8.28.01.03.03.06.05.08.13.19.31.26.5.24.04-.55.11-1.1.13-1.66Z" style="fill: #107874; stroke-width: 0px;"/>
                  <path d="m208.77,137.86l-1.21-1.03-1.25-.98c-.82-.64-1.68-1.24-2.52-1.81,1.64,1.59,3.15,3.36,4.61,5.26.03.03.06.07.09.1.16.15.35.18.52.12-.06-.55-.14-1.1-.24-1.65h0Z" style="fill: #107874; stroke-width: 0px;"/>
                  <path d="m201.2,177.97c-3,6.5-6.56,12.72-10.2,18.9h1.77c3.37-6.02,6.66-12.11,9.42-18.46,3.35-7.69,5.97-15.77,6.93-24.13.48-4.17.56-8.39.14-12.56-.2-2.09-.52-4.16-.97-6.2-.2-1.03-.48-2.04-.74-3.05-.3-1-.57-2.01-.93-3,.33.99.58,2.01.86,3.01.23,1.02.49,2.03.67,3.06.41,2.05.68,4.12.83,6.2.33,4.16.16,8.35-.41,12.47-1.13,8.26-3.9,16.21-7.38,23.76h0Z" style="fill: #107874; stroke-width: 0px;"/>
                </g>
              </g>
              <g>
                <g>
                  <path d="m50.34,192.35s-1.47,5.42-1.07,6.57c.82,2.36,15.12,3.47,18.65,1.38,1.92-1.14-5.52-4.81-8.5-7.45-1.62-1.43-9.28-1.38-9.08-.5h0Z" style="fill: url(#_未命名漸層_19); stroke-width: 0px;"/>
                  <path d="m67.35,190.46s-.62,4.94-.01,5.49c1.7,1.56,16.03,3.76,19.74,1.15,1.3-.91-8.27-6.41-11.36-7-3.08-.58-8.37.35-8.37.35h0Z" style="fill: url(#_未命名漸層_19-2); stroke-width: 0px;"/>
                  <path d="m52.07,106.73s-.95,25.85-1.17,38.34c-.32,18.05-.9,42.62-1.49,47.84,0,0,4.83,3.69,11.23.43,0,0,6.14-58.2,6.07-59.61,0,0-.49,48.69-.16,56.77,1.61,2.22,9.15,1.69,10.6-.6-.05-11.29,1.6-39.88,2.03-54.64.21-7.12-.85-31.98-.85-31.98,0,0-13.62-.9-26.27,3.44h.01Z" style="fill: url(#_未命名漸層_13); stroke-width: 0px;"/>
                </g>
                <g>
                  <path d="m72.51,68.7c1.36,1.37,9.23,11.58,13.61,15.95,1.43,1.43,17.19-.13,17.68-.22,2.03-.39,3.36,5.09,1.02,7.04-1.58,1.32-19.08,3.59-21.89,1.87-2.09-1.28-9.88-9.19-12.55-15.39-1.98-4.6,1.2-10.18,2.13-9.25Z" style="fill: url(#_未命名漸層_17); stroke-width: 0px;"/>
                  <path d="m105.41,91.26c1.46,1.41,6.34-.27,7.51-.89.28-.97-.09-5.95-.5-6.78-1.03-.05-3.4.24-3.88-.11-.47-.35,1.57-3.55.98-4.65-.58-1.1-1.4.26-1.78,1.16s-2.31,2.9-2.8,4.04c-.76,1.79-.9,5.93.46,7.24h.01Z" style="fill: url(#_未命名漸層_7); stroke-width: 0px;"/>
                  <path d="m108.8,84.87c-.35.07-.65.16-.88.24-1.17.43-.32,1.48.92,1.53.14,0,.51,0,.72.02-.58.09-1.1.22-1.44.35-1.02.38-.13,1.23.72,1.45-.27.06-.5.13-.69.2-1.12.41-.32,1.48.85,1.63,1.03.13,3.43.37,3.92.08.37-.22,1.17-.95.36-1.68.43-.33,1.03-1.03.13-1.73-.09-.07-.2-.12-.31-.18.43-.33,1.01-1.03.12-1.72-.02-.02-.05-.03-.07-.04.29-.31.71-.92.06-1.4-.9-.68-3.68-.3-4.74.1-.79.29-.31.88.33,1.16h0Z" style="fill: url(#_未命名漸層_7-2); stroke-width: 0px;"/>
                  <path d="m57.13,63.28s-2.01-.07-2.48,1.34c-.51,1.54,2.76,2.8,2.76,2.8l-.29-4.14h.01Z" style="fill: url(#_未命名漸層_17-2); stroke-width: 0px;"/>
                  <path d="m57.92,66.34c-5.93,1.07-11.72,6.94-12.36,9.11s4.42,30.55,5.19,33.92c.77,3.37,23.48,5.24,27.7-1.15,3.31-5.01-4.4-38.1-6.06-39.67-2.15-2.05-7.79-3.42-14.48-2.22h0Z" style="fill: url(#_未命名漸層_17-3); stroke-width: 0px;"/>
                  <path d="m55.37,66.71s.57-.96.7-2.2c.18-1.75.28-4.19-.3-5.83-1-2.8-2.65-8.72.57-10.71,3.22-1.99,6.92-1.68,8.88-.57s2.59,3.76,2.75,4.46,1.37,9.48,1.17,10.52c-.17.91-2.14,1.02-3.13,1.04-1,.02-1.11,3.53-1.14,3.94-.12,1.3-2.69,2.84-9.5-.65Z" style="fill: url(#_未命名漸層_16); stroke-width: 0px;"/>
                  <path d="m56.2,62.42s-.24-2.92-2.19-5.92c-1.66-2.56-1.66-7.4.73-9.44,2.39-2.04,5.66-2.62,8.27-1.81,3.15.98,4.06,2.5,3.62,3.45,0,0-2.24.59-3.98-.09,0,0,.6,1.58.29,3.12-.31,1.54-1.81,2.84-1.29,5.06l-.76-.03s-.65-1.56-1.8-1.58-1.37,1.78-.84,2.73c.54.95.27,1.68.03,2.06s-2.02,1.04-2.09,2.45h.01Z" style="fill: url(#_未命名漸層_11); stroke-width: 0px;"/>
                  <g>
                    <path d="m65.36,72.78l.03-4.02-2.23-.2-1.75,1.44,1.69,3.15s.98-.53,2.27-.37h0Z" style="fill: url(#_未命名漸層_13-2); stroke-width: 0px;"/>
                    <path d="m74.47,105.6c-.11-.36-4.7-20.23-5.67-23.46-.97-3.23-3.44-9.36-3.44-9.36-1.29-.16-2.27.37-2.27.37,0,0-.36,6.63.04,10.29s3.38,22.32,3.52,23.39c.14,1.08,4.74,4.2,5.2,4.27.47.07,2.73-5.13,2.62-5.49h0Z" style="fill: url(#_未命名漸層_13-3); stroke-width: 0px;"/>
                  </g>
                  <path d="m54.66,64.62c-.03.55,1.35,3.69,8.49,3.93,0,0-1.03,2.96-1.05,5.33,0,0-7.05-4.19-7.5-6.46,0,0-.18-2.18.06-2.8Z" style="fill: url(#_未命名漸層_17-4); stroke-width: 0px;"/>
                  <path d="m63.15,68.55s2.84,1.63,3.54,4.22c0,0,.33-2.11.09-4.2-.1-.86-.41-1.68-.9-2.39-.29-.42-.61-.83-.82-.9-.05.69-.31,2.59-1.91,3.27Z" style="fill: url(#_未命名漸層_17-5); stroke-width: 0px;"/>
                  <g>
                    <g>
                      <line x1="45.96" y1="142.29" x2="44.76" y2="138.49" style="fill: none; stroke: #bbbaba; stroke-linecap: round; stroke-linejoin: round; stroke-width: .54px;"/>
                      <line x1="34.5" y1="141.39" x2="36.28" y2="137.82" style="fill: none; stroke: #bbbaba; stroke-linecap: round; stroke-linejoin: round; stroke-width: .54px;"/>
                      <path d="m56.34,172.21l-36.77-2.89c-1.09-.09-1.9-1.04-1.82-2.13l1.51-19.23,40.7,3.2-1.51,19.23c-.09,1.09-1.04,1.9-2.13,1.82h0Z" style="fill: #33373d; stroke-width: 0px;"/>
                      <rect x="37.16" y="131.43" width="4.58" height="40.83" transform="translate(-115.03 179.26) rotate(-85.5)" style="fill: #5c5c5f; isolation: isolate; opacity: .4; stroke-width: 0px;"/>
                      <path d="m56.18,153.47l-33.51-2.64c-2.5-.2-4.38-2.39-4.18-4.89l.3-3.77c.06-.78.74-1.36,1.52-1.3l39.77,3.13c.78.06,1.36.74,1.3,1.52l-.3,3.77c-.2,2.5-2.39,4.38-4.89,4.18Z" style="fill: #33373d; stroke-width: 0px;"/>
                      <path d="m45.98,141.68l6.63.52c.57.04.99.54.95,1.11l-.02.19-7.66-.6c-.34-.03-.59-.32-.56-.66h0c.03-.34.32-.59.66-.56Z" style="fill: #474b51; stroke-width: 0px;"/>
                      <path d="m34.58,140.78l-6.63-.52c-.57-.04-1.07.38-1.11.95l-.02.19,7.66.6c.34.03.63-.23.66-.56h0c.03-.34-.23-.63-.56-.66Z" style="fill: #474b51; stroke-width: 0px;"/>
                      <path d="m35.32,138.07l.07.22c.12.41.49.7.91.73.12,0,.24,0,.35-.03,1.27-.34,2.57-.47,3.88-.36s2.58.43,3.77.97c.11.05.22.08.34.09.42.03.83-.2,1.01-.58l.1-.2c.13-.26.14-.54.04-.81-.1-.26-.3-.48-.55-.6-1.44-.65-2.96-1.04-4.54-1.16-1.57-.12-3.14.02-4.66.44-.27.07-.51.26-.64.5-.14.25-.17.54-.08.81v-.02Z" style="fill: #474b51; stroke-width: 0px;"/>
                    </g>
                    <path d="m43.75,130.23l-4.83-1.9c0,.69-.19,1.98-.38,2.68s-1.16,1.5-1.4,2.36c-.47,1.67-.76,4.36-.32,5.37.43,1.01,5.59,2.11,6.17,1.14.15-.25.31-1.8.41-3.09.33.1.66.21,1.14.38.28-2.21-.95-4.2-.98-4.63,0,0,.07-.94.18-2.33v.02Z" style="fill: url(#_未命名漸層_16-2); stroke-width: 0px;"/>
                  </g>
                  <path d="m45.56,75.45c-.37.97-3.52,13.47-5.76,27.76-1.49,9.49-2.28,20.29-2.66,27.16,1.57,1.86,6.43,2.19,7.88.64.3-4.7,1.7-15.13,3.07-25.1,1.52-11.02,3.51-20.14,3.63-22.1.48-7.95-5.6-9.81-6.15-8.37h0Z" style="fill: url(#_未命名漸層_17-6); stroke-width: 0px;"/>
                </g>
              </g>
              <g>
                <g>
                  <g>
                    <path d="m140.64,198.87c-1.79-1.78,10.84-8.4,11.82-8.39l6.96.44c.77.43,1.24,3.13.99,6.47-.35,2.22-16.64,4.61-19.77,1.48Z" style="fill: url(#_未命名漸層_19-3); stroke-width: 0px;"/>
                    <path d="m182.45,198.84c1.69-1.83-10.1-8.83-11.01-8.84l-6.53.4c-.73.44-1.19,3.24-.98,6.7.31,2.31,15.56,4.95,18.52,1.74h0Z" style="fill: url(#_未命名漸層_19-4); stroke-width: 0px;"/>
                  </g>
                  <path d="m173.72,105.04l-26.43-.3c-.61,4.19,1.8,84.34,1.94,86.36.13,2.01,11.19,2.41,10.98-.24-.21-2.65-.44-39.85.58-60.2.85,20.36,3.11,58.5,3.11,60.22s10.79,2.26,10.85-.27c.06-2.53.5-70.48-1.03-85.57h0Z" style="fill: url(#_未命名漸層_31); stroke-width: 0px;"/>
                </g>
                <g>
                  <path d="m144.47,74.92c-.34-1.73-3.25-6.99-3.67-5.59s-4.6,23.99-4.58,25.43c0,1.29,6.2,5.58,6.74,4.39,1.76-3.86,2.58-15.19,1.87-21.87-.09-.88-.02-.64-.36-2.37h0Z" style="fill: url(#_未命名漸層_35); stroke-width: 0px;"/>
                  <path d="m156.19,62.87c5.49-.3,11.64.85,15.9,1.9,4.06,1,2.97,38.97,2.44,40.83-1.02,3.6-24.44,4.15-27.58,1.28-1.17-1.07-1.3-9.78-2.57-18.39-1.4-9.45-3.89-18.84-3.53-19.43.8-1.49,9.86-5.88,15.34-6.18h0Z" style="fill: url(#_未命名漸層_35-2); stroke-width: 0px;"/>
                  <path d="m135.69,94.35c-5.63.52-8.85,1.45-8.85,2.85,0,1.77.89,6.53,4.52,6.85,3.64.33,11.16-2.3,11.81-5.53.65-3.23-4.03-4.48-7.49-4.17h.01Z" style="fill: url(#_未命名漸層_35-3); stroke-width: 0px;"/>
                  <path d="m133.7,94.57s.66,3.9-.29,6.65c-.99,2.87-2.7,2.74-2.99,2.64-.47-.16-.88-.41-1.24-.72-1.82-1.55-2.33-4.59-2.33-5.93,0-1.22,2.46-2.09,6.85-2.63h0Z" style="fill: url(#_未命名漸層_35-4); stroke-width: 0px;"/>
                  <path d="m135.44,99.4s-9.55-4.75-13.21-10.39c2.99-1.04,6.27-1.81,10.4-5.67,0,0,12.46,13.55,17.57,12.66,0,0-7.75,3.6-11.55,4.18-1.13.17-2.28-.12-3.21-.78h0Z" style="fill: url(#_未命名漸層_25); stroke-width: 0px;"/>
                  <path d="m136.83,89.83c.33.19.65.74-.14,1.82s-3.25,3.89-3,4.38,1.42-.65,2.08-1.25c.66-.61,1.24-1.92,2.16-1.76.92.16.16,1.16-.26,1.79s-1.45,1.97-1.82,2.37-1.77.97-2.1,1.61c-.32.63-1.69,3.11-4.07,2.44s-2.91-3.25-2.96-5.15c-.05-1.89.22-3.49.38-3.91.16-.42.73-2.51,1.08-3.16.29-.54,1.23-.27,1.09.54-.13.82-.37,2.26-.39,2.62-.03.36.03,1.82.32,1.95.29.13,1.23-2.04,1.89-3.2.66-1.16,1.61-3.03,2.32-2.93.71.11,1.13.82-.03,2.76-1.16,1.95-1.97,3.65-1.71,3.91.26.25,1.55-1.7,2.26-2.54.71-.84,2.19-2.69,2.9-2.29h0Z" style="fill: url(#_未命名漸層_34); stroke-width: 0px;"/>
                  <g>
                    <path d="m159.08,55.09s.41,4.4,1.15,6.1-2.6,5.09-7.2,4.6c-1.83-.2-1.71-3.97-1.87-4.77-.29-1.4.66-2.14,1.55-3.26,1.95-2.45,5.32-5.96,6.37-2.67Z" style="fill: url(#_未命名漸層_34-2); stroke-width: 0px;"/>
                    <path d="m151.83,43.87s5.08-1.87,7.59,1.49c2.51,3.37,1.24,7.41.59,9.05-.98,2.18-2.15,5.18-5.7,6.77s-4.87.62-5.33-1.44c-.31-1.39-.98-6.45-.93-8.88.04-2.43.69-5.59,3.78-6.99Z" style="fill: url(#_未命名漸層_34-3); stroke-width: 0px;"/>
                    <path d="m159.91,54.25c-.51.03-1.95.05-2.11.49-.11.32-.79.57-.81.38-.03-.37.75-3.6.46-4.47-.19-.57-.88-.97-1.12-1.53-.18-.4-.48-1.51-.34-3.07-1.09,2.69-6.72.27-7.63,2.2.21-2.62.62-4.53,3.39-6.01,2.1-1.12,7.41-1.69,9.27,2.08,1.34,2.73-.34,8.28-1,9.96-.04,0-.08-.02-.12-.02h0Z" style="stroke-width: 0px;"/>
                    <path d="m157.91,54.03s.4-2.42,2.06-2.24c1.58.17.82,3.78-1.47,4.36-.3.08-.6-.09-.68-.39-.08-.32-.1-.85.08-1.73h0Z" style="fill: url(#_未命名漸層_29); stroke-width: 0px;"/>
                  </g>
                  <path d="m153.11,66.02c.29,1.7.49,3.44.58,3.54,0,0,2.01.18,2.37,0,0,0,.58-3.5.38-4.03-.21-.53-3.56-.87-3.33.48h0Z" style="fill: url(#_未命名漸層_31-2); stroke-width: 0px;"/>
                  <path d="m156.06,69.57s1.22,4.06,1.9,9.74,1.71,20.3,1.71,20.3c0,0-2.59,3.49-2.98,3.56s-4-3.38-4.16-3.79.74-25.65,1.17-29.82c0,0,1.34-.55,2.37,0h0Z" style="fill: url(#_未命名漸層_31-3); stroke-width: 0px;"/>
                  <path d="m155.51,65.15s1.54,1.69,1.82,3.64c0,0,4.25-4.27,4.21-5.82-.02-.84-.95-2.3-1.54-2.47.33,1.47-3.15,4.51-4.48,4.65h-.01Z" style="fill: url(#_未命名漸層_35-5); stroke-width: 0px;"/>
                  <path d="m153.57,65.27c-.3.2-1.15,2.23-1.08,3.47,0,0-1.75-3.07-1.89-4.23-.07-.57.42-2.08.68-2.18.04.38.31,2.77,2.29,2.94h0Z" style="fill: url(#_未命名漸層_35-6); stroke-width: 0px;"/>
                  <g>
                    <path d="m155.46,94.71c-.34,0-5.13.15-6.47.17-.58,0-1.31-1.33.18-1.53,0,0,6.34-.72,7.09-.81.51-.47,1.54-1.69,2.49-1.53,0,0,2.09.21,4.17.75,2.08.53,1.56,6.33,1.57,7.61-.18.73-1.55,1.13-2.57,1.3,0,0-4.04.6-4.61.19-.55-.39-.68-.91-.71-1.59-.02-.35-.69-.81-.69-1.23s.36-.8.18-1.11-.55-.4-.7-.86.41-1.36.07-1.35h0Z" style="fill: url(#_未命名漸層_34-4); stroke-width: 0px;"/>
                    <path d="m172.65,65.2c1.53,1.34,11.47,20.63,13.08,27.21.38,1.55.58,5.7-1.82,6.63-1.29.5-18.29.72-19.37.72s-2.3-5.55-1.07-7.71l12.8-.67s-4.25-8.45-4.72-10.93-.43-16.59,1.1-15.25Z" style="fill: url(#_未命名漸層_35-7); stroke-width: 0px;"/>
                  </g>
                </g>
              </g>
            </g>
          </g>
        </g>
      </g>
    </g>
  </g>
</svg>