<?xml version="1.0" encoding="UTF-8"?>
<svg id="_圖層_2" data-name="圖層 2" xmlns="http://www.w3.org/2000/svg" width="218.01" height="218.02" xmlns:xlink="http://www.w3.org/1999/xlink" viewBox="0 0 218.01 218.02">
  <defs>
    <clipPath id="clippath">
      <rect x="162.56" y="74.59" width="6.32" height="4.14" style="fill: none; stroke-width: 0px;"/>
    </clipPath>
    <clipPath id="clippath-1">
      <rect x="144.45" y="74.59" width="6.32" height="4.14" style="fill: none; stroke-width: 0px;"/>
    </clipPath>
    <clipPath id="clippath-2">
      <rect x="127.5" y="73.78" width="5.94" height="3.65" style="fill: none; stroke-width: 0px;"/>
    </clipPath>
    <clipPath id="clippath-3">
      <rect x="82.8" y="71.46" width="6.04" height="4.14" style="fill: none; stroke-width: 0px;"/>
    </clipPath>
    <clipPath id="clippath-4">
      <rect x="45.57" y="74.27" width="6.32" height="4.14" style="fill: none; stroke-width: 0px;"/>
    </clipPath>
    <clipPath id="clippath-5">
      <rect x="62.85" y="73.4" width="6.32" height="4.14" style="fill: none; stroke-width: 0px;"/>
    </clipPath>
    <clipPath id="clippath-6">
      <rect x="107.5" y="71.79" width="6.04" height="4.14" style="fill: none; stroke-width: 0px;"/>
    </clipPath>
  </defs>
  <g id="_圖層_8" data-name="圖層 8">
    <g id="Topic_exploration7">
      <g>
        <path d="m109.01,0c-1.59,0-3.21.03-4.8.1l.35,8c.38-.02.77-.03,1.15-.04,0,0,0,0,.01,0,0,0,.02,0,.02,0,0,0,.01,0,.02,0,0,0,.01,0,.02,0,0,0,.01,0,.02,0,0,0,.01,0,.02,0,.01,0,.01,0,.02,0,0,0,0,0,0,0,.03,0,.06,0,.1,0,0,0,0,0,0,0,.01,0,.02,0,.03,0,0,0,0,0,0,0,.64-.02,1.27-.03,1.91-.04,0,0,0,0,0,0,.01,0,.02,0,.03,0,0,0,0,0,0,0,.01,0,.02,0,.03,0,0,0,0,0,0,0,.04,0,.09,0,.13,0h0s.02,0,.03,0c0,0,0,0,0,0,0,0,.02,0,.03,0,0,0,0,0,.01,0,0,0,.02,0,.02,0,0,0,0,0,.01,0,.01,0,.02,0,.03,0,0,0,0,0,0,0,.02,0,.04,0,.06,0,0,0,0,0,0,0,0,0,.02,0,.03,0,0,0,0,0,.01,0,0,0,.02,0,.02,0,0,0,.01,0,.02,0,0,0,.01,0,.02,0h.02s.01,0,.02,0c0,0,.01,0,.02,0,0,0,.01,0,.02,0,0,0,.02,0,.02,0,0,0,.01,0,.02,0,.01,0,.02,0,.03,0h.02s.02,0,.02,0c0,0,.01,0,.02,0h.02s0,0,.02,0h.02s0,0,.02,0c0,0,.02,0,.03,0h.04s0,0,.01,0h.03s.01,0,.01,0h.08s.01,0,.02,0h.09V0h0Zm-7.67.27c-1.59.11-3.2.26-4.78.44l.91,7.96c.83-.09,1.66-.18,2.49-.25h0s.02,0,.04,0h0s.02,0,.03,0h0s.02,0,.03,0h0s.02,0,.03,0c0,0,0,0,0,0,.03,0,.05,0,.08,0,0,0,0,0,.01,0,0,0,.02,0,.03,0,0,0,.01,0,.01,0h.02s.01,0,.02,0c0,0,.01,0,.02,0,0,0,.02,0,.02,0,0,0,0,0,.01,0,.01,0,.01,0,.02,0,0,0,0,0,.01,0,.03,0,.06,0,.09,0,0,0,0,0,0,0,.01,0,.02,0,.03,0,0,0,0,0,0,0,.01,0,.02,0,.03,0,0,0,0,0,0,0,.01,0,.02,0,.03,0h0c.44-.04.88-.07,1.32-.1l-.56-7.99h0Zm-7.64.8c-1.58.22-3.17.48-4.74.77l1.46,7.87c1.45-.27,2.92-.51,4.39-.72l-1.12-7.93h0Zm-7.57,1.34c-1.56.33-3.13.71-4.67,1.11l2.02,7.75c1.05-.27,2.1-.53,3.16-.77,0,0,0,0,.01,0,0,0,.01,0,.02,0,0,0,.01,0,.02,0,0,0,.01,0,.02,0,0,0,.01,0,.02,0,0,0,0,0,.02,0,0,0,.02,0,.02,0,0,0,0,0,.01,0h.02s0,0,.01,0c.33-.07.66-.15.99-.22l-1.67-7.83h0Zm-7.45,1.87c-1.53.44-3.07.93-4.58,1.44l2.56,7.59c.51-.17,1.02-.34,1.54-.51,0,0,0,0,.01,0,.02,0,.04-.01.06-.02,0,0,.02,0,.02,0,.01,0,.02,0,.04-.01.01,0,.02,0,.04-.01,0,0,.01,0,.02,0,.02,0,.04-.01.05-.02,0,0,.01,0,.02,0,.02,0,.03-.01.05-.02,0,0,0,0,.01,0,.02,0,.04-.01.06-.02,0,0,0,0,0,0,.77-.24,1.55-.48,2.33-.7l-2.22-7.69h0Zm-7.3,2.4c-1.5.55-3,1.14-4.47,1.76l3.1,7.39c.75-.31,1.5-.62,2.25-.91h0s.04-.02.06-.02c0,0,0,0,0,0,.02,0,.04-.01.06-.02,0,0,0,0,.01,0,.02,0,.04-.01.05-.02,0,0,.01,0,.02,0,.02,0,.03-.01.04-.02,0,0,.02,0,.03-.01,0,0,.03-.01.03-.01.01,0,.02,0,.04-.01s.02,0,.03-.01c.01,0,.02,0,.03-.01,0,0,0,0,.01,0,.02,0,.04-.02.06-.02h0c.47-.18.94-.36,1.41-.53l-2.76-7.52h0Zm-7.11,2.91c-1.45.65-2.91,1.35-4.33,2.07l3.61,7.15c.14-.07.29-.15.43-.22h0s.04-.02.06-.03c0,0,0,0,0,0,.02-.01.03-.02.05-.03,0,0,0,0,0,0,.02,0,.04-.02.06-.03h0s.03-.02.05-.03c0,0,0,0,.01,0,.02,0,.03-.02.05-.02,0,0,.01,0,.02,0,.01,0,.03-.02.05-.02,0,0,.01,0,.02,0,.01,0,.03-.02.04-.02,0,0,.01,0,.02,0,.01,0,.03-.01.04-.02,0,0,.02,0,.02-.01.01,0,.02-.01.03-.02.01,0,.02-.01.03-.02,0,0,.02-.01.03-.02,0,0,.02,0,.03-.01.01,0,.02-.01.04-.02,0,0,.02,0,.02-.01.01,0,.03-.01.04-.02h.02s.02-.02.03-.03c.01,0,.02-.01.03-.02,0,0,.02,0,.03-.01.01,0,.03-.01.04-.02,0,0,.02,0,.03-.01.01,0,.02-.01.04-.02,0,0,.02-.01.03-.01s.02,0,.03-.01c.01,0,.03-.01.04-.02,0,0,.02,0,.03-.01.01,0,.03-.01.04-.02,0,0,.02,0,.03-.01.01,0,.02,0,.03-.01.01,0,.02-.01.03-.02,0,0,.02,0,.03-.01.01,0,.02-.01.03-.02,0,0,.02-.01.03-.01l.03-.02s.02-.01.03-.02c0,0,.02,0,.02-.01.01,0,.03-.01.04-.02,0,0,.02,0,.03-.01.01,0,.02-.01.04-.02,0,0,.02,0,.03-.01,0,0,.02-.01.03-.01.01,0,.02-.01.03-.02,0,0,.02,0,.03-.01.01,0,.02,0,.03-.01.01,0,.02-.01.04-.02,0,0,.02,0,.02-.01.01,0,.03-.01.04-.02,0,0,.01,0,.02-.01.01,0,.03-.01.04-.02h.02s.03-.02.04-.03c0,0,.01,0,.02-.01.01,0,.03-.01.04-.02,0,0,.01,0,.02,0,.01,0,.03-.01.04-.02,0,0,.01,0,.02,0,.01,0,.03-.01.05-.02h.02s.03-.02.05-.03c0,0,.01,0,.02,0,.01,0,.03-.02.05-.02h.01s.03-.02.05-.03c0,0,0,0,.01,0,.01,0,.04-.02.05-.02,0,0,0,0,.01,0,.02,0,.04-.02.05-.02,0,0,0,0,.01,0,.02,0,.04-.02.05-.02,0,0,0,0,.01,0,.02,0,.03-.02.05-.03,0,0,0,0,0,0,.02,0,.04-.02.06-.03,0,0,0,0,0,0,.02,0,.04-.02.06-.03,0,0,0,0,0,0,.02,0,.04-.02.06-.03h0s.04-.02.06-.03c0,0,0,0,0,0,.02,0,.04-.02.06-.03,0,0,0,0,0,0,.02,0,.04-.02.06-.03,0,0,0,0,0,0,.04-.02.08-.04.12-.06,0,0,0,0,0,0,.02,0,.04-.02.06-.03,0,0,0,0,0,0,.02,0,.04-.02.06-.03,0,0,0,0,0,0,.08-.04.17-.08.25-.11,0,0,0,0,0,0,.02,0,.04-.02.06-.03,0,0,0,0,0,0,.02,0,.04-.02.06-.03,0,0,0,0,0,0,.02,0,.04-.02.06-.03l-3.29-7.3h0Zm-6.89,3.4c-1.4.76-2.81,1.55-4.18,2.37l4.11,6.88c1.16-.69,2.34-1.36,3.53-2.01,0,0,0,0,0,0,.02,0,.03-.02.05-.03,0,0,.01,0,.02-.01.01,0,.02-.01.04-.02.01,0,.02,0,.03-.02,0,0,.02,0,.02-.01.01,0,.03-.02.04-.02,0,0,.01,0,.02,0,.01,0,.03-.02.05-.03,0,0,0,0,.01,0,.02,0,.04-.02.05-.03,0,0,0,0,0,0l-3.8-7.05h0Zm-6.63,3.88c-1.35.85-2.69,1.75-4,2.66l4.58,6.57s.01,0,.02-.01c0,0,.02-.01.02-.02.01,0,.02-.01.03-.02.01,0,.02-.01.03-.02,0,0,.01,0,.02-.01.01,0,.03-.02.04-.03h.02s.03-.03.04-.04c0,0,0,0,.01,0,.02-.01.03-.02.05-.03,0,0,0,0,0,0,.02-.01.03-.02.05-.03,0,0,0,0,0,0,.04-.03.07-.05.11-.08,0,0,0,0,0,0,.02-.01.04-.03.06-.04,0,0,0,0,0,0,.02-.01.04-.03.06-.04,0,0,0,0,0,0,.65-.44,1.3-.88,1.96-1.31,0,0,0,0,0,0,.02-.01.04-.02.05-.03,0,0,0,0,0,0,.02-.01.03-.02.05-.03,0,0,0,0,.01,0,.02-.01.03-.02.05-.03,0,0,0,0,.01,0,.01,0,.03-.02.04-.03,0,0,.01,0,.02-.01.01,0,.02-.01.04-.02,0,0,.01,0,.02-.01.01,0,.02-.01.04-.02,0,0,.02-.01.02-.02.01,0,.02-.02.04-.02,0,0,.02-.01.03-.02,0,0,.01,0,.02-.01.02-.01.03-.02.05-.03,0,0,0,0,0,0,.02-.01.04-.02.06-.04h0c.2-.13.41-.26.62-.4l-4.29-6.77h0Zm-6.34,4.34c-1.28.94-2.56,1.93-3.8,2.93l5.03,6.23c.29-.23.58-.46.87-.69,0,0,0,0,0,0,.01-.01.04-.03.05-.04,0,0,0,0,0,0,.02-.01.03-.02.05-.04,0,0,0,0,0,0,.01-.01.03-.03.05-.04,0,0,0,0,0,0,.01-.01.03-.03.05-.04,0,0,0,0,0,0,.01-.01.03-.02.05-.04,0,0,0,0,0,0,.01,0,.03-.02.04-.03,0,0,0,0,.01,0,.01-.01.03-.02.04-.03,0,0,0,0,.01-.01.02-.01.03-.02.04-.03,0,0,.01,0,.02-.01.01,0,.03-.02.04-.03,0,0,.01,0,.02-.01.01,0,.03-.02.04-.03h.02s.02-.03.03-.04c0,0,.02-.01.02-.02.01,0,.02-.02.03-.02l.02-.02s.02-.02.03-.02l.02-.02s.02-.02.03-.03c0,0,.02-.01.02-.02.01,0,.02-.02.03-.03,0,0,.02-.01.02-.02.01,0,.01-.01.02-.02.01,0,.02-.02.03-.03,0,0,.01,0,.02-.02.01,0,.03-.02.04-.03,0,0,.01-.01.02-.01.01,0,.03-.02.04-.03,0,0,.01,0,.02-.01.01,0,.03-.02.04-.03,0,0,.01-.01.02-.01l.03-.02s.01-.01.02-.02c.01,0,.02-.02.04-.03,0,0,.01,0,.01-.01.01-.01.03-.02.04-.03,0,0,0,0,.01-.01.02-.01.03-.02.05-.04,0,0,0,0,.01,0,.02-.01.03-.03.05-.04,0,0,0,0,0,0,.07-.05.14-.11.21-.16h0c.36-.27.72-.55,1.09-.81l-4.75-6.45h0Zm-6.02,4.77c-1.21,1.03-2.42,2.11-3.59,3.19l5.45,5.87c.87-.81,1.76-1.61,2.66-2.39h0s.04-.03.05-.05h0s.03-.03.05-.05c0,0,0,0,0,0,.01-.01.03-.03.04-.04,0,0,0,0,.01-.01,0,0,.02-.01.03-.02,0,0,.02-.02.03-.03,0,0,.01-.01.02-.02.01-.01.02-.02.03-.03,0,0,.01,0,.02-.01.01-.01.02-.02.03-.03,0,0,0,0,.01-.01.01-.01.03-.02.04-.03,0,0,0,0,0,0,.01-.01.03-.03.05-.04h0s.03-.03.05-.05c0,0,0,0,0,0,.05-.05.11-.09.16-.14l-5.19-6.1h0Zm-5.67,5.18c-1.14,1.11-2.27,2.27-3.35,3.43l5.85,5.47c.78-.83,1.56-1.65,2.37-2.45h0s.03-.03.05-.05h0s.03-.03.04-.05h0s.03-.03.04-.05h.01s.02-.03.03-.04c0,0,.01-.01.02-.02,0,0,.02-.02.03-.03,0,0,.01-.01.02-.02.01-.01.02-.02.03-.03,0,0,.02-.02.02-.02,0,0,0,0,0,0,.02-.02.03-.03.05-.05h0s.03-.04.05-.05h0c.11-.11.22-.21.33-.32l-5.61-5.72h0Zm-5.29,5.56c-1.06,1.19-2.1,2.42-3.11,3.66l6.22,5.05s.04-.05.06-.07c0,0,0,0,0-.01l.04-.04s.01-.02.02-.03c0,0,.01-.02.02-.02.01-.01.02-.02.03-.03,0,0,0-.01.01-.02.01-.01.02-.03.03-.04h0s.03-.04.04-.06c0,0,0,0,0,0,.01-.02.03-.03.04-.05,0,0,0,0,0,0,.01-.02.03-.03.04-.05,0,0,0,0,0,0,.34-.41.68-.82,1.02-1.23,0,0,0,0,0,0,.01-.02.03-.03.04-.05,0,0,0,0,0,0,.01-.02.03-.03.04-.05,0,0,0,0,0,0,.01-.02.03-.03.04-.05,0,0,0,0,0,0,.01-.02.03-.03.04-.05,0,0,0,0,0,0,.01-.01.03-.03.04-.04,0,0,0,0,0-.01.01-.01.02-.03.04-.04,0,0,0,0,.01-.01.01-.01.02-.03.03-.04,0,0,0-.01.01-.02.01-.01.02-.03.03-.04,0,0,.01-.01.02-.02,0,0,.02-.02.02-.03l.02-.03s.01-.01.02-.02c0-.01.02-.02.03-.03,0,0,.01-.01.02-.02,0-.01.02-.02.03-.03,0,0,.01-.02.02-.02.02-.03.05-.05.07-.08,0,0,0,0,0,0,.01-.02.03-.03.04-.05,0,0,0,0,0,0,.01-.02.03-.03.04-.05h0c.26-.31.53-.61.8-.92l-5.99-5.31h0Zm-4.89,5.92c-.97,1.26-1.93,2.57-2.84,3.87l6.56,4.6c.85-1.22,1.73-2.41,2.63-3.59l-6.35-4.88h0Zm-4.46,6.25c-.88,1.33-1.74,2.69-2.56,4.06l6.87,4.12c.14-.24.29-.48.43-.71h0s.02-.04.04-.06c0,0,0,0,0,0,.01-.02.02-.04.03-.06,0,0,0,0,0,0,.01-.02.02-.04.04-.06h0s.05-.08.07-.12c0,0,0,0,0,0,.01-.02.02-.04.03-.05,0,0,0,0,0,0,.01-.02.02-.04.03-.05,0,0,0,0,0,0,.01-.02.02-.03.03-.05,0,0,0,0,0,0,.01-.02.02-.04.03-.05,0,0,0,0,0,0,.01-.02.02-.03.03-.05,0,0,0,0,0,0,.01-.02.02-.03.03-.05,0,0,0,0,0,0,.01-.02.02-.03.03-.05,0,0,0,0,0-.01.01-.02.02-.03.03-.05h0s.02-.04.03-.06c0,0,0,0,0-.01.01-.02.02-.03.03-.05,0,0,0,0,0,0,.01-.02.02-.03.03-.05,0,0,0,0,0-.01.01-.02.02-.03.03-.05,0,0,0,0,0-.01,0-.01.02-.03.03-.05,0,0,0-.01,0-.02.01-.02.02-.03.03-.04,0,0,0-.01.01-.02,0-.01.02-.03.03-.04,0,0,0-.01.01-.02,0-.01.02-.03.03-.04,0,0,0-.01,0-.02,0-.01.02-.03.03-.04,0,0,0,0,0-.01.01-.02.02-.03.03-.04,0,0,0,0,0-.01,0-.01.02-.03.03-.04,0,0,0-.01.01-.02.01-.02.02-.03.03-.04,0,0,0-.01,0-.02,0-.01.02-.03.03-.05,0,0,0,0,0-.01,0-.01.02-.03.03-.04,0,0,0,0,0-.01,0-.01.02-.03.03-.04,0,0,0,0,0-.01.01-.02.02-.03.03-.05,0,0,0,0,0-.01.01-.02.02-.03.03-.05,0,0,0,0,0-.01.01-.02.02-.03.03-.05,0,0,0,0,0-.01.01-.02.02-.03.03-.05,0,0,0,0,0-.01.01-.02.02-.03.03-.05,0,0,0,0,0,0,.01-.02.02-.03.03-.05,0,0,0,0,0,0,.01-.02.02-.03.03-.05,0,0,0,0,0-.01.01-.02.02-.03.03-.05,0,0,0,0,0-.01.01-.02.02-.03.03-.05,0,0,0,0,0,0,.01-.02.02-.04.03-.05,0,0,0,0,0,0,.02-.04.05-.08.07-.11,0,0,0,0,0,0,.01-.02.02-.04.04-.06,0,0,0,0,0,0,.01-.02.02-.04.04-.06,0,0,0,0,0,0,.13-.19.25-.39.38-.58l-6.68-4.42h0Zm-4.01,6.55c-.78,1.39-1.55,2.81-2.27,4.23l7.14,3.63h0c.45-.89.92-1.77,1.39-2.65h0s.02-.04.03-.06t0,0c.03-.06.07-.12.1-.18,0,0,0,0,0,0,.01-.02.02-.04.03-.06,0,0,0,0,0,0,0-.02.02-.04.03-.06,0,0,0,0,0,0,.01-.02.02-.04.03-.06,0,0,0,0,0,0,.03-.06.07-.12.1-.18,0,0,0,0,0,0,.01-.02.02-.04.03-.06,0,0,0,0,0,0,.11-.2.23-.4.34-.61l-6.97-3.94h0Zm-3.54,6.82c-.68,1.44-1.35,2.91-1.97,4.38l7.38,3.12c.58-1.37,1.18-2.72,1.82-4.06l-7.23-3.44h0Zm-3.05,7.05c-.58,1.48-1.14,3-1.65,4.51l7.58,2.58c.03-.1.07-.2.1-.3h0s.01-.04.02-.06c0,0,0-.01,0-.02,0-.01,0-.02.01-.03,0-.01,0-.02.01-.04,0,0,0-.02,0-.03,0-.02,0-.03.01-.04,0,0,0-.02,0-.02,0-.01.01-.03.02-.04,0,0,0-.01,0-.02,0-.02.01-.03.02-.05h0s.01-.05.02-.07c0,0,0,0,0,0,0-.02.01-.04.02-.06,0,0,0,0,0,0,0-.02.01-.04.02-.06,0,0,0,0,0,0,.26-.74.53-1.48.81-2.22,0,0,0,0,0,0,0-.02.02-.04.02-.06,0,0,0,0,0,0,0-.02.02-.04.02-.06,0,0,0,0,0,0,0-.02.02-.04.02-.06,0,0,0,0,0,0,0-.02.01-.04.02-.06,0,0,0,0,0-.01,0-.02.01-.03.02-.05,0,0,0-.01,0-.02,0-.02.01-.03.02-.05,0,0,0-.01,0-.02,0-.01,0-.02.01-.04,0-.01,0-.02.01-.03,0,0,0-.02.01-.03,0-.02.01-.03.02-.05,0,0,0-.01,0-.02.07-.18.14-.36.21-.54l-7.46-2.92h0Zm-2.54,7.25c-.47,1.52-.92,3.08-1.33,4.62l7.74,2.04c.38-1.44.79-2.86,1.23-4.28l-7.65-2.38h0Zm-2.02,7.41c-.36,1.55-.7,3.13-1,4.7l7.87,1.49c.05-.26.1-.51.15-.77h0s0-.03,0-.04h0s0-.02,0-.04h0s0-.02,0-.03c0,0,0,0,0-.01,0,0,0-.01,0-.02,0-.01,0-.02,0-.04,0,0,0,0,0-.01,0,0,0-.02,0-.02,0,0,0,0,0-.01,0,0,0-.02,0-.03,0,0,0,0,0,0,0,0,0-.02,0-.03,0,0,0,0,0,0,0,0,0-.02,0-.03,0,0,0,0,0,0,.15-.77.32-1.54.49-2.31,0,0,0,0,0,0,0-.02.01-.05.02-.07h0c.02-.09.04-.18.06-.27h0c.05-.2.09-.41.14-.61l-7.8-1.83h0Zm-1.49,7.54c-.25,1.57-.48,3.17-.66,4.76l7.96.93c.07-.63.15-1.27.24-1.9,0,0,0,0,0,0,0,0,0-.02,0-.03h0s0-.03,0-.04c0,0,0,0,0,0,0,0,0-.02,0-.03,0,0,0,0,0,0,0-.04.01-.08.02-.13h0s0-.02,0-.03c0,0,0,0,0-.01,0,0,0-.01,0-.02,0,0,0-.01,0-.02,0,0,0-.01,0-.02,0,0,0,0,0-.01,0,0,0-.01,0-.02,0,0,0,0,0-.01,0-.04.01-.08.02-.12,0,0,0,0,0-.01,0,0,0-.01,0-.02,0,0,0,0,0-.01,0,0,0-.01,0-.02,0,0,0-.01,0-.02,0,0,0-.01,0-.02,0,0,0-.01,0-.02,0,0,0-.01,0-.02,0,0,0,0,0-.01,0,0,0-.02,0-.02,0,0,0,0,0,0,0-.02,0-.04,0-.06,0,0,0,0,0,0,0,0,0-.02,0-.03,0,0,0,0,0,0,0,0,0-.01,0-.02,0,0,0,0,0-.01,0,0,0-.01,0-.02,0,0,0-.01,0-.02,0,0,0-.02,0-.02,0,0,0,0,0-.01,0,0,0-.02,0-.03,0,0,0,0,0,0,0-.05.02-.11.02-.16,0,0,0,0,0,0,0,0,0-.02,0-.03,0,0,0,0,0,0,0,0,0-.02,0-.03,0,0,0,0,0,0,.07-.44.13-.89.21-1.33l-7.91-1.28h0Zm-.96,7.62c-.14,1.58-.25,3.2-.33,4.79l8,.37c.03-.72.07-1.45.12-2.16,0,0,0,0,0,0,0-.01,0-.02,0-.03,0,0,0,0,0-.01,0,0,0-.02,0-.03,0,0,0,0,0-.02v-.02s0-.01,0-.02c0,0,0-.01,0-.02,0-.04,0-.08,0-.13,0,0,0,0,0,0,0-.01,0-.02,0-.03,0,0,0,0,0,0,0-.01,0-.02,0-.03,0,0,0,0,0,0,.04-.63.1-1.27.15-1.9,0,0,0,0,0,0,0,0,0-.02,0-.02h0s-7.98-.73-7.98-.73H.44Zm-.42,7.66c-.01.74-.02,1.47-.02,2.21,0,.86.01,1.72.03,2.58l8.01-.19c0-.2,0-.4-.01-.59h0s0-.02,0-.03c0,0,0-.01,0-.02,0,0,0-.01,0-.02,0,0,0-.02,0-.02,0,0,0,0,0-.01,0-.01,0-.02,0-.03h0s0-.03,0-.04h0c0-.43-.01-.85-.01-1.27h0s0-.03,0-.04h0s0-.03,0-.04h0v-.04s0,0,0-.01v-.03h0s0-.03,0-.04h0v-.04h0s0-.03,0-.04v-.04h0v-.05h0v-.06h0s0-.05,0-.07h0v-.06s0-.01,0-.02v-.05s0-.01,0-.02c0-.01,0-.02,0-.04v-.02s0-.03,0-.05v-.03s0-.02,0-.03c0-.02,0-.03,0-.05,0,0,0-.01,0-.02,0-.01,0-.02,0-.03h0s0-.05,0-.08h0c0-.45,0-.89.02-1.34,0-.01,0-.02,0-.03,0,0,0-.02,0-.02,0-.02,0-.04,0-.05,0,0,0,0,0,0l-8.01-.16H.02Zm8.11,7.28l-8,.4c.08,1.59.19,3.2.34,4.79l7.97-.74c-.03-.34-.06-.69-.09-1.03,0,0,0,0,0,0,0,0,0-.02,0-.03,0,0,0,0,0,0,0-.01,0-.02,0-.03,0,0,0-.01,0-.02,0,0,0-.02,0-.02,0,0,0-.02,0-.03,0,0,0,0,0,0,0-.01,0-.03,0-.04h0s0-.03,0-.04h0s0-.03,0-.04h0c-.08-1.05-.15-2.09-.2-3.15h0Zm.6,7.09l-7.95.95c.19,1.58.42,3.18.68,4.75l7.9-1.3c-.24-1.46-.45-2.93-.63-4.41h0Zm1.1,7.03l-7.86,1.51c.3,1.57.64,3.15,1.01,4.7l7.79-1.86c-.11-.45-.21-.89-.31-1.34h0s0-.03,0-.04h0s-.01-.05-.02-.08c0,0,0,0,0,0,0,0,0-.02,0-.03,0,0,0-.02,0-.02,0,0,0-.01,0-.02,0,0,0-.01,0-.02,0,0,0,0,0-.01,0,0,0-.02,0-.02h0s0-.03,0-.04c0,0,0,0,0,0-.2-.9-.39-1.81-.56-2.72h0Zm1.59,6.94l-7.74,2.07c.41,1.54.86,3.09,1.34,4.61l7.64-2.41c-.21-.68-.42-1.37-.62-2.06,0,0,0,0,0,0,0-.02-.01-.04-.02-.06,0,0,0,0,0,0,0-.02-.01-.05-.02-.06,0,0,0,0,0,0,0-.02-.01-.04-.02-.06,0,0,0,0,0,0,0-.02-.01-.04-.02-.06,0,0,0,0,0-.01l-.02-.06h0s-.01-.05-.02-.07h0s-.01-.05-.02-.07c0,0,0,0,0-.01,0-.02,0-.03-.01-.05v-.02s-.01-.03-.02-.05c0,0,0-.01,0-.02,0-.02,0-.03-.01-.05,0,0,0-.01,0-.02,0-.02,0-.03-.01-.05,0,0,0-.02,0-.03,0-.01,0-.02,0-.03,0-.01,0-.02-.01-.04,0,0,0-.02,0-.03,0-.01,0-.03-.01-.04,0,0,0-.02,0-.03,0-.01,0-.02,0-.03,0,0,0-.02,0-.03,0-.02,0-.03-.01-.05,0,0,0-.01,0-.01,0-.02-.01-.04-.02-.06,0,0,0,0,0-.01,0-.02-.01-.04-.02-.07h0c-.02-.07-.03-.13-.05-.19h0s-.01-.05-.02-.08h0c-.07-.26-.14-.51-.21-.77h0Zm2.08,6.81l-7.57,2.61c.52,1.51,1.08,3.02,1.67,4.51l7.45-2.94c-.54-1.38-1.06-2.77-1.54-4.17h0Zm2.56,6.64l-7.37,3.14c.62,1.47,1.29,2.94,1.98,4.38l7.22-3.46c-.21-.44-.42-.88-.62-1.32,0,0,0,0,0,0,0-.02-.02-.04-.03-.06,0,0,0,0,0,0,0-.02-.02-.04-.03-.06,0,0,0,0,0,0,0-.02-.02-.04-.03-.06,0,0,0,0,0,0,0-.02-.02-.03-.02-.05,0,0,0,0,0-.01,0-.02-.02-.03-.02-.05,0,0,0-.01,0-.02,0-.02-.01-.03-.02-.05,0,0,0-.01,0-.02,0-.01-.01-.03-.02-.04,0,0,0-.02-.01-.02,0-.01,0-.02-.01-.03,0-.01-.01-.02-.02-.04,0,0,0-.02-.01-.02,0-.02-.01-.03-.02-.05,0,0,0-.01,0-.02,0-.02-.02-.04-.03-.06,0,0,0,0,0,0-.31-.68-.61-1.37-.9-2.06h0Zm3.02,6.44l-7.13,3.65c.73,1.42,1.5,2.84,2.29,4.22l6.96-3.97s0,0,0-.01c0-.01-.01-.02-.02-.04,0-.01-.01-.02-.02-.03,0,0,0-.02-.01-.02,0-.02-.02-.03-.03-.05,0,0,0-.01,0-.01-.5-.88-.99-1.77-1.46-2.67h0s-.02-.04-.03-.06c0,0,0,0,0,0,0-.02-.02-.04-.03-.05,0,0,0,0,0-.01l-.02-.03s-.01-.03-.02-.04c0,0,0-.02-.01-.02,0-.01-.01-.03-.02-.04,0,0,0-.01-.01-.02,0-.01-.01-.03-.02-.04,0,0,0,0,0-.01,0-.02-.02-.03-.03-.05,0,0,0,0,0-.01-.01-.02-.02-.04-.03-.05,0,0,0,0,0,0-.01-.02-.02-.04-.03-.06,0,0,0,0,0,0-.1-.18-.19-.37-.29-.56h0Zm3.47,6.21l-6.85,4.15c.83,1.36,1.69,2.73,2.58,4.05l6.66-4.45c-.33-.5-.66-1-.99-1.51,0,0,0,0,0,0-.01-.02-.02-.04-.04-.06,0,0,0,0,0,0-.01-.02-.02-.03-.03-.05,0,0,0,0,0,0-.01-.02-.02-.03-.03-.05h0s-.02-.04-.03-.06c0,0,0,0,0,0-.01-.02-.02-.03-.03-.05,0,0,0,0,0,0-.01-.02-.02-.03-.03-.05,0,0,0,0,0-.01-.01-.02-.02-.03-.03-.05,0,0,0,0,0-.01-.01-.02-.02-.03-.03-.05,0,0,0,0,0-.01-.01-.02-.02-.03-.03-.05,0,0,0,0,0-.01,0-.01-.02-.03-.03-.04,0,0,0,0,0-.01,0-.01-.02-.03-.03-.04,0,0,0,0,0-.01,0-.01-.02-.03-.03-.04,0,0,0-.01-.01-.02-.01-.02-.02-.03-.03-.04,0,0,0-.01-.01-.02,0-.01-.02-.03-.03-.04,0,0,0-.01-.01-.02-.01-.02-.02-.03-.03-.04,0,0,0,0,0-.01,0-.01-.02-.03-.02-.04,0,0,0-.01-.01-.02,0-.01-.02-.03-.03-.04,0,0,0-.01,0-.01,0-.01-.02-.03-.03-.04,0,0,0-.01-.01-.02-.01-.02-.02-.03-.03-.04,0,0,0-.01-.01-.02,0-.01-.02-.03-.03-.04,0,0,0-.01-.01-.02,0-.01-.02-.03-.02-.04,0,0,0-.01-.01-.02,0-.01-.01-.02-.02-.03,0,0-.01-.02-.02-.02,0-.01-.01-.02-.02-.04,0,0,0-.01-.01-.02,0-.01-.02-.03-.03-.04,0,0,0-.01-.01-.02-.01-.02-.02-.03-.03-.04,0,0,0-.01-.01-.02,0-.01-.02-.03-.03-.04,0,0,0-.01-.01-.02,0-.01-.02-.03-.03-.04,0,0,0-.01-.01-.02,0-.01-.02-.02-.02-.04,0,0,0-.01-.01-.02,0-.01-.02-.03-.02-.04,0,0,0-.01-.01-.02,0-.01-.02-.03-.03-.04,0,0,0-.01-.01-.02,0-.02-.02-.03-.03-.04,0,0,0-.01-.01-.02,0-.01-.02-.03-.03-.04,0,0,0-.01-.01-.02,0-.01-.02-.03-.02-.04,0,0,0-.01-.01-.02,0-.01-.02-.03-.02-.04,0,0,0-.01-.01-.02,0-.02-.02-.03-.03-.04,0,0,0-.01,0-.02,0-.01-.02-.03-.03-.05,0,0,0-.01,0-.02,0-.02-.02-.03-.03-.05,0,0,0-.01,0-.02,0-.01-.02-.03-.03-.05,0,0,0,0,0,0h0Zm3.9,5.95l-6.54,4.62c.92,1.3,1.88,2.6,2.85,3.86l6.33-4.9c-.58-.75-1.15-1.51-1.71-2.27,0,0,0,0,0,0-.01-.02-.02-.03-.04-.05,0,0,0,0,0,0-.01-.02-.02-.03-.03-.05,0,0,0,0,0-.01,0-.01-.02-.03-.03-.04,0,0,0,0-.01-.01-.01-.02-.02-.02-.03-.04,0,0,0-.01-.01-.02,0-.01-.02-.02-.02-.03,0,0-.01-.02-.02-.03,0,0-.01-.02-.02-.03,0-.01-.02-.02-.03-.04,0,0-.01-.01-.01-.02-.02-.03-.04-.06-.06-.09,0,0,0,0,0,0-.01-.02-.03-.04-.04-.06h0c-.18-.26-.37-.52-.55-.77h0Zm4.31,5.67l-6.2,5.07c1.01,1.23,2.06,2.46,3.12,3.65l5.97-5.33c-.05-.06-.1-.11-.15-.17,0,0-.01-.01-.02-.02,0,0-.02-.02-.02-.03-.01-.01-.02-.02-.03-.03,0,0,0,0-.01-.01-.01-.01-.03-.03-.04-.04,0,0,0,0,0,0-.01-.01-.03-.03-.04-.05,0,0,0,0,0,0-.01-.02-.03-.03-.04-.05,0,0,0,0,0,0-.54-.61-1.06-1.22-1.59-1.84,0,0,0,0,0,0-.01-.02-.03-.03-.04-.05,0,0,0,0,0,0-.01-.01-.03-.03-.04-.04,0,0,0,0,0-.01-.01-.01-.02-.03-.04-.04,0,0,0,0-.01-.01-.01-.01-.02-.02-.03-.03,0,0-.01-.02-.02-.03,0,0-.01-.02-.02-.02,0-.01-.02-.02-.03-.03,0,0,0-.01-.02-.02-.01-.02-.03-.03-.04-.05h0c-.21-.26-.42-.51-.63-.77h0Zm4.69,5.35l-5.83,5.49c1.09,1.16,2.22,2.31,3.37,3.42l5.59-5.74h0s-.03-.03-.04-.04c0,0,0,0-.01-.01-.01-.01-.03-.02-.04-.04,0,0,0,0-.01-.01-.01-.01-.03-.03-.04-.04,0,0-.01-.01-.02-.02,0,0-.02-.02-.03-.03,0,0-.02-.02-.03-.02,0,0-.01-.01-.02-.02,0,0-.02-.02-.03-.03,0,0-.01-.01-.02-.02-.01-.01-.02-.02-.03-.03,0,0,0,0-.02-.02-.04-.04-.09-.09-.13-.13h0s-.03-.04-.05-.05h0s-.03-.04-.05-.05h0c-.28-.28-.55-.55-.83-.83h0s-.04-.04-.05-.05h0s-.03-.04-.05-.05h0s-.09-.09-.13-.14c0,0,0,0,0,0-.02-.02-.03-.03-.05-.05,0,0,0,0-.01-.01l-.04-.04s0,0-.01-.01c-.01-.01-.02-.02-.03-.04,0,0-.01-.01-.02-.02,0,0-.01-.01-.02-.02-.01-.01-.02-.02-.03-.03,0,0-.01-.01-.02-.02,0,0-.02-.02-.03-.03,0,0-.01-.01-.02-.02-.01-.01-.02-.02-.03-.03,0,0-.01-.01-.02-.02-.01-.01-.02-.02-.03-.03,0,0-.01-.01-.02-.02-.01-.01-.02-.02-.03-.03,0,0,0,0,0-.01-.01-.01-.03-.03-.04-.04,0,0,0,0,0,0-.02-.02-.03-.03-.04-.04,0,0,0,0,0,0-.01-.01-.03-.03-.04-.04,0,0,0,0,0,0-.3-.32-.61-.63-.91-.95h0Zm5.06,5.01l-5.43,5.88c1.17,1.08,2.38,2.15,3.6,3.18l5.17-6.12c-.57-.48-1.13-.96-1.68-1.45,0,0,0,0,0,0-.09-.08-.17-.15-.26-.23,0,0,0,0,0,0-.02-.01-.03-.03-.05-.04,0,0,0,0,0,0-.02-.01-.03-.03-.05-.04,0,0,0,0,0,0-.02-.01-.03-.03-.05-.04,0,0,0,0,0,0-.04-.03-.06-.06-.1-.09h0s-.03-.03-.05-.04c0,0,0,0,0,0-.02-.01-.03-.03-.05-.04,0,0,0,0,0,0-.01-.01-.03-.03-.04-.04,0,0,0,0,0,0-.02-.01-.03-.03-.04-.04,0,0,0,0,0,0-.01-.01-.03-.03-.05-.04,0,0,0,0,0,0-.01-.01-.03-.03-.04-.04,0,0,0,0,0,0-.01-.01-.03-.03-.04-.04,0,0,0,0,0,0-.02-.01-.03-.02-.04-.04,0,0,0,0-.01,0-.01-.01-.03-.03-.04-.04,0,0,0,0-.01,0-.01-.01-.03-.03-.04-.04,0,0,0,0-.01,0-.01-.01-.03-.03-.04-.04,0,0,0,0,0,0-.01-.01-.03-.03-.04-.04,0,0,0,0,0,0-.01-.01-.03-.03-.04-.04,0,0,0,0-.01-.01-.01-.01-.03-.02-.04-.04,0,0,0,0-.01-.01-.01-.01-.02-.02-.04-.03,0,0,0,0-.01-.01-.01-.01-.03-.02-.04-.03,0,0-.01,0-.02-.01,0,0-.03-.02-.03-.03,0,0-.01-.01-.02-.02,0,0-.02-.02-.03-.03,0,0-.02-.01-.02-.02-.01-.01-.02-.02-.03-.03,0,0-.01-.01-.02-.02-.01-.01-.02-.02-.03-.03,0,0-.01-.01-.02-.02,0,0-.02-.02-.03-.03l-.02-.02s-.02-.02-.03-.02c0,0,0,0-.01-.01h0Zm5.39,4.64l-5.01,6.25c1.24,1,2.53,1.98,3.81,2.92l4.73-6.46c-.37-.27-.73-.54-1.09-.81h0s-.04-.03-.06-.05h0s-.02-.02-.03-.03c-.01,0-.02-.01-.03-.02,0,0-.02-.01-.03-.02-.01,0-.02-.01-.03-.02,0,0-.02-.01-.03-.02-.01,0-.02-.02-.03-.02,0,0-.01-.01-.02-.02-.01,0-.03-.02-.04-.03h-.01s-.03-.03-.04-.04c0,0,0,0-.01,0-.02-.01-.03-.02-.05-.04,0,0,0,0,0,0-.02-.01-.03-.03-.05-.04,0,0,0,0,0,0-.66-.5-1.32-1.02-1.97-1.54h0Zm5.71,4.25l-4.56,6.59c1.31.91,2.66,1.8,4.01,2.64l4.26-6.78c-.3-.19-.61-.38-.91-.58h0s-.04-.03-.06-.04c0,0,0,0,0,0-.02-.01-.03-.02-.05-.03,0,0-.01,0-.02-.01,0,0-.02-.01-.03-.02-.01,0-.02-.02-.03-.02,0,0-.02-.01-.02-.02-.01,0-.02-.02-.04-.02h-.02s-.03-.03-.04-.04c0,0-.01,0-.02-.01-.01,0-.03-.02-.04-.03,0,0,0,0-.01,0-.02-.01-.03-.02-.05-.03,0,0,0,0-.01,0-.01,0-.03-.02-.05-.03,0,0,0,0-.01,0-.02-.01-.03-.02-.05-.03,0,0,0,0,0,0-.02-.01-.03-.02-.05-.03,0,0,0,0,0,0-.74-.48-1.47-.97-2.19-1.47h0Zm5.99,3.84l-4.08,6.89c1.37.81,2.78,1.61,4.18,2.36l3.77-7.06c-.74-.4-1.48-.8-2.21-1.22h0s-.04-.02-.06-.04c0,0,0,0-.02,0-.01,0-.03-.02-.04-.03,0,0-.01,0-.02-.01-.01,0-.03-.01-.04-.02,0,0-.02,0-.03-.01,0,0-.02-.01-.03-.02-.01,0-.02-.01-.03-.02,0,0-.01,0-.02-.01-.01,0-.03-.02-.04-.02,0,0-.01,0-.02-.01-.01,0-.03-.02-.05-.03,0,0,0,0-.01,0-.02,0-.03-.02-.05-.03,0,0,0,0,0,0-.02,0-.04-.02-.05-.03,0,0,0,0,0,0-.02,0-.04-.02-.06-.03,0,0,0,0,0,0-.02-.01-.04-.02-.05-.03,0,0,0,0,0,0-.02,0-.04-.02-.06-.03h0c-.32-.19-.64-.37-.96-.56h0Zm6.25,3.41l-3.59,7.16c1.43.71,2.89,1.41,4.34,2.06l3.27-7.31c-.07-.03-.14-.06-.21-.1h0s-.04-.02-.06-.03c0,0-.01,0-.02,0-.01,0-.03-.01-.04-.02,0,0-.02,0-.03-.01-.01,0-.02,0-.03-.01-.01,0-.03-.01-.04-.02,0,0-.01,0-.02,0-.02,0-.03-.01-.05-.02,0,0-.01,0-.02,0-.01,0-.03-.02-.05-.02,0,0,0,0-.01,0-.02,0-.04-.02-.05-.02,0,0,0,0,0,0-.02,0-.04-.02-.06-.03h0s-.04-.02-.06-.03c0,0,0,0,0,0-.02,0-.04-.02-.06-.03,0,0,0,0,0,0-.93-.42-1.85-.86-2.76-1.31,0,0,0,0,0,0-.02-.01-.04-.02-.06-.03,0,0,0,0,0,0-.02,0-.04-.02-.06-.03,0,0,0,0,0,0-.02,0-.04-.02-.05-.03,0,0,0,0-.01,0-.01,0-.03-.02-.05-.02,0,0-.01,0-.02-.01-.01,0-.03-.01-.04-.02,0,0-.02,0-.03-.01,0,0-.01,0-.02,0-.02,0-.04-.02-.05-.03h0s-.02-.01-.03-.02h0Zm6.47,2.96l-3.07,7.4c1.47.61,2.98,1.2,4.48,1.74l2.74-7.53c-.75-.27-1.5-.55-2.24-.84h0s-.05-.02-.07-.03h0s-.04-.02-.07-.03h0s-.07-.03-.11-.04h0s-.04-.02-.07-.03c0,0,0,0,0,0-.02,0-.04-.02-.06-.02h0s-.04-.02-.06-.03h0s-.05-.02-.07-.03h0s-.07-.03-.11-.04h0s-.04-.02-.07-.03h0s-.05-.02-.07-.03h0c-.37-.15-.75-.3-1.12-.46h0Zm6.67,2.49l-2.54,7.6c1.51.51,3.06.98,4.59,1.42l2.2-7.7c-.57-.16-1.14-.33-1.7-.5h0s-.05-.02-.07-.02h0c-.06-.02-.12-.04-.18-.06,0,0,0,0,0,0-.02,0-.04-.01-.07-.02h0s-.05-.02-.07-.02h0s-.07-.02-.11-.04h0s-.05-.01-.07-.02c0,0,0,0,0,0-.02,0-.04-.01-.07-.02h0c-.63-.2-1.25-.4-1.88-.61h0Zm6.83,2.01l-1.99,7.76c1.54.4,3.12.76,4.68,1.09l1.65-7.84c-.36-.08-.73-.15-1.09-.23h0s-.02,0-.03,0c0,0,0,0,0,0-.01,0-.02,0-.03,0h0c-1.06-.24-2.12-.49-3.17-.76h0Zm6.95,1.52l-1.44,7.88c1.57.29,3.16.54,4.74.76l1.09-7.93c-.87-.12-1.74-.25-2.61-.39,0,0,0,0-.01,0,0,0-.01,0-.02,0,0,0-.01,0-.02,0,0,0-.01,0-.02,0,0,0-.01,0-.02,0,0,0,0,0-.01,0,0,0-.02,0-.03,0h0s-.02,0-.04,0h0c-.54-.09-1.08-.18-1.61-.28h0Zm7.04,1.03l-.88,7.96c1.58.17,3.19.32,4.78.42l.53-7.99c-1.1-.07-2.2-.16-3.29-.27,0,0,0,0,0,0-.01,0-.02,0-.03,0,0,0,0,0-.01,0,0,0-.02,0-.02,0h-.02s-.01,0-.02,0c-.01,0-.02,0-.03,0h0s-.02,0-.03,0h0s-.02,0-.04,0h0c-.31-.03-.61-.06-.91-.1h0Zm7.1.53l-.32,8c1.47.06,2.95.09,4.42.09h.37s-.03-8.01-.03-8.01c-.03,0-.05,0-.08,0,0,0-.01,0-.02,0h-.01c-.08,0-.16,0-.24,0h-.07s-.04,0-.06,0h-.06s0,0-.01,0c-.02,0-.03,0-.05,0h-.01s-.03,0-.05,0h0s-.04,0-.05,0h-.02s-.03,0-.05,0h-.02s-.03,0-.04,0c0,0-.01,0-.02,0-.02,0-.03,0-.05,0,0,0-.01,0-.02,0-.01,0-.02,0-.04,0,0,0-.01,0-.02,0-.02,0-.03,0-.05,0,0,0-.02,0-.02,0-.01,0-.02,0-.03,0-.01,0-.02,0-.03,0-.01,0-.02,0-.04,0,0,0-.02,0-.03,0-.01,0-.02,0-.03,0-.01,0-.03,0-.04,0-.01,0-.02,0-.03,0,0,0-.02,0-.03,0-.01,0-.02,0-.03,0-.01,0-.03,0-.04,0,0,0-.01,0-.02,0-.02,0-.04,0-.06,0,0,0-.01,0-.02,0-.01,0-.02,0-.03,0,0,0-.01,0-.02,0-.02,0-.04,0-.06,0,0,0,0,0-.01,0-.01,0-.02,0-.04,0,0,0,0,0-.01,0-.02,0-.04,0-.07,0,0,0,0,0-.01,0-.51,0-1.03-.02-1.54-.03h0s-.08,0-.12,0c0,0,0,0,0,0-.04,0-.07,0-.11,0,0,0-.01,0-.02,0-.02,0-.03,0-.05,0-.01,0-.02,0-.03,0,0,0-.02,0-.03,0-.01,0-.02,0-.03,0-.01,0-.02,0-.03,0-.01,0-.03,0-.04,0h-.02s-.03,0-.05,0c0,0,0,0-.01,0-.01,0-.03,0-.05,0h0s-.04,0-.06,0c0,0,0,0,0,0-.17,0-.34-.01-.51-.02h0Zm11.56-.19c-1.47.11-2.95.18-4.44.23l.23,8.01c1.59-.05,3.2-.13,4.79-.24l-.58-7.99h0Zm7.08-.77c-.81.12-1.62.22-2.44.32,0,0,0,0,0,0,0,0-.02,0-.03,0,0,0,0,0-.01,0,0,0-.01,0-.02,0,0,0-.01,0-.02,0,0,0-.01,0-.02,0-.02,0-.05,0-.07,0,0,0,0,0,0,0-.01,0-.02,0-.03,0h0s-.02,0-.04,0h0c-.57.07-1.14.13-1.72.19l.79,7.97c1.59-.16,3.19-.35,4.77-.58l-1.14-7.93h0Zm7-1.26c-.71.15-1.43.3-2.15.44h0s-.02,0-.03,0c0,0,0,0-.01,0,0,0-.02,0-.02,0,0,0-.01,0-.02,0,0,0-.01,0-.02,0,0,0-.02,0-.02,0,0,0,0,0,0,0,0,0-.02,0-.03,0,0,0,0,0,0,0-.68.13-1.36.26-2.05.37l1.35,7.89c1.57-.27,3.16-.58,4.72-.92l-1.7-7.83h0Zm6.9-1.76c-1.18.35-2.37.67-3.57.97h0s-.1.03-.15.04c0,0,0,0,0,0,0,0-.02,0-.03,0h-.02s0,0-.01,0c0,0-.02,0-.02,0,0,0,0,0-.01,0h-.03s0,0,0,0c0,0-.02,0-.03,0,0,0,0,0,0,0-.13.03-.27.07-.4.1l1.91,7.78c1.55-.38,3.11-.8,4.64-1.25l-2.25-7.69h0Zm6.76-2.24s-.08.03-.13.05c0,0,0,0,0,0-.02,0-.04.01-.06.02,0,0,0,0-.01,0-.02,0-.04.01-.05.02,0,0,0,0-.01,0-.02,0-.03.01-.05.02,0,0,0,0-.01,0-.02,0-.03.01-.05.02,0,0-.01,0-.02,0-.02,0-.03.01-.04.02,0,0-.01,0-.02,0-.02,0-.03.01-.05.02,0,0-.02,0-.02,0-.02,0-.03.01-.04.02,0,0-.02,0-.02,0-.01,0-.02,0-.03.01-.01,0-.02,0-.04.01,0,0-.02,0-.03,0-.01,0-.03,0-.04.01,0,0-.02,0-.03,0-.01,0-.03,0-.04.01,0,0-.02,0-.03,0-.01,0-.02,0-.03.01,0,0-.02,0-.03.01-.01,0-.03,0-.04.01,0,0-.01,0-.02,0-.02,0-.03.01-.05.02,0,0-.01,0-.02,0-.02,0-.03.01-.05.02,0,0-.01,0-.02,0-.02,0-.04.01-.05.02,0,0-.01,0-.02,0-.01,0-.02,0-.03.01,0,0,0,0-.01,0-.02,0-.04.01-.05.02,0,0-.01,0-.02,0-.02,0-.04.01-.05.02,0,0-.01,0-.02,0-.02,0-.03.01-.05.02,0,0-.01,0-.02,0-.02,0-.03.01-.05.02,0,0-.01,0-.02,0-.01,0-.02,0-.03.01,0,0-.02,0-.02,0-.02,0-.03.01-.05.02,0,0-.02,0-.03,0-.01,0-.03,0-.04.01,0,0-.02,0-.02,0-.01,0-.03.01-.04.01,0,0-.02,0-.03,0,0,0-.02,0-.03,0-.01,0-.03.01-.04.01,0,0-.02,0-.03,0-.02,0-.03,0-.04.01,0,0-.02,0-.02,0-.01,0-.02,0-.04.01-.01,0-.02,0-.03.01-.01,0-.02,0-.03.01,0,0-.02,0-.03,0-.01,0-.03,0-.04.01,0,0-.01,0-.02,0-.02,0-.03.01-.05.02,0,0-.01,0-.02,0-.02,0-.03.01-.05.02,0,0-.01,0-.02,0-.02,0-.03.01-.05.02,0,0,0,0-.01,0-.02,0-.03.01-.05.02,0,0,0,0-.01,0-.02,0-.04.01-.05.02h-.01s-.04.02-.06.02c0,0,0,0-.01,0-.02,0-.04.01-.06.02,0,0,0,0,0,0-.02,0-.04.01-.06.02,0,0,0,0,0,0-.04.01-.09.03-.13.04,0,0,0,0,0,0-.02,0-.04.01-.06.02t0,0c-.46.16-.92.31-1.39.46l2.45,7.62c1.52-.49,3.04-1.02,4.54-1.57l-2.79-7.51h0Zm6.58-2.72c-.17.08-.34.15-.51.23,0,0,0,0,0,0-.02,0-.04.02-.06.03,0,0,0,0,0,0-.02,0-.04.02-.06.03,0,0,0,0,0,0-.04.02-.08.04-.12.06,0,0,0,0,0,0-.02,0-.04.02-.06.03,0,0,0,0,0,0-.02,0-.04.02-.06.02,0,0,0,0-.01,0-.02,0-.03.02-.05.02,0,0,0,0-.01,0-.02,0-.04.02-.05.02,0,0,0,0,0,0-.02,0-.03.01-.05.02,0,0,0,0-.01,0-.02,0-.03.02-.05.02h-.01s-.03.02-.05.03c0,0-.01,0-.02,0-.01,0-.03.02-.05.02,0,0-.01,0-.02,0-.02,0-.03.01-.05.02,0,0,0,0-.01,0-.01,0-.03.01-.04.02h-.02s-.03.02-.04.03c0,0-.01,0-.02,0-.01,0-.03.01-.04.02,0,0-.02,0-.02.01-.01,0-.03.01-.04.02,0,0-.02,0-.03.01-.01,0-.02,0-.03.01-.01,0-.02.01-.04.02,0,0-.02,0-.03.01-.01,0-.03.01-.04.02,0,0-.01,0-.02.01-.02,0-.03.01-.05.02,0,0-.01,0-.02,0-.01,0-.02,0-.03.01-.01,0-.02.01-.04.02-.01,0-.02,0-.03.01,0,0-.01,0-.02,0-.02,0-.04.02-.05.02,0,0,0,0-.01,0l-.06.03s0,0,0,0c-.02,0-.04.02-.06.03h0c-.06.03-.12.05-.18.08h0s-.05.02-.07.03h0c-.56.24-1.13.47-1.7.7l2.99,7.43c1.48-.59,2.96-1.23,4.42-1.89l-3.32-7.29h0Zm6.37-3.17c-.57.31-1.14.61-1.72.91,0,0,0,0,0,0-.02.01-.04.02-.06.03,0,0,0,0,0,0-.02.01-.03.02-.05.03,0,0,0,0-.01,0-.02,0-.03.02-.05.03,0,0,0,0-.01,0-.01,0-.03.02-.05.02,0,0-.01,0-.02,0-.01,0-.03.01-.04.02,0,0-.02,0-.02.01-.01,0-.02.01-.03.02,0,0-.02,0-.03.01-.01,0-.02.01-.03.02,0,0-.02,0-.02.01-.01,0-.03.01-.04.02,0,0-.02,0-.03.01,0,0-.02.01-.03.02-.01,0-.02.01-.03.02,0,0-.01,0-.02,0-.02,0-.03.02-.05.02,0,0,0,0-.01,0-.02,0-.04.02-.05.03,0,0,0,0,0,0-.41.21-.81.41-1.22.61,0,0-.01,0-.02,0-.02,0-.03.02-.05.02,0,0-.01,0-.02.01-.01,0-.02.01-.04.02-.01,0-.02.01-.03.02,0,0-.01,0-.02.01-.01,0-.03.01-.04.02,0,0-.01,0-.02,0-.02,0-.03.01-.05.02,0,0,0,0,0,0l3.51,7.2c1.43-.7,2.87-1.44,4.27-2.2l-3.82-7.04h0Zm6.13-3.62c-.98.62-1.96,1.23-2.96,1.82,0,0,0,0,0,0-.02.01-.03.02-.05.03h0s-.03.03-.05.04c0,0-.01,0-.02,0-.01,0-.03.01-.04.02,0,0-.02.01-.03.02,0,0-.02.01-.03.02-.02,0-.03.02-.05.03,0,0,0,0-.01,0-.19.11-.37.22-.56.33l4.01,6.93c1.38-.8,2.76-1.64,4.1-2.49l-4.31-6.75h0Zm5.86-4.04c-.64.48-1.29.95-1.94,1.41h0c-.07.05-.14.1-.21.15,0,0,0,0,0,0l-.05.04s0,0,0,0c-.02.01-.03.02-.05.04,0,0,0,0-.01,0-.02.01-.03.02-.05.03,0,0,0,0-.01,0-.01,0-.03.02-.04.03,0,0-.02.01-.02.02,0,0-.02.01-.03.02,0,0-.02.01-.03.02-.01,0-.02.01-.03.02,0,0-.02.01-.02.02l-.03.02s-.02.01-.03.02c0,0-.02.01-.03.02-.01,0-.02.01-.03.02,0,0-.01,0-.02.01-.01,0-.03.02-.04.03,0,0-.01,0-.02.01-.01,0-.03.02-.04.03h-.01s-.03.03-.05.04c0,0,0,0-.01,0-.02.01-.03.02-.05.03,0,0,0,0,0,0-.25.17-.49.34-.74.51l4.49,6.63c1.32-.89,2.64-1.83,3.92-2.78l-4.77-6.43h0Zm5.56-4.44c-.41.35-.83.7-1.24,1.05h0s-.03.03-.05.05c0,0,0,0,0,0-.02.01-.03.03-.05.04,0,0,0,0-.01,0-.01.01-.03.02-.04.03,0,0-.01.01-.02.01,0,0-.02.01-.02.02,0,0-.02.02-.03.02,0,0-.02.01-.03.02,0,0-.02.01-.02.02-.01,0-.02.02-.03.03,0,0-.02.01-.02.02-.01,0-.02.02-.03.02,0,0-.02.01-.03.02,0,0-.02.01-.02.02,0,0-.02.02-.03.03,0,0-.01.01-.02.02-.01.01-.03.02-.04.03,0,0-.01,0-.02.01-.01.01-.02.02-.04.03,0,0,0,0-.01.01-.01.01-.03.02-.04.03,0,0,0,0-.01,0-.01.01-.03.02-.04.03,0,0,0,0,0,0-.01,0-.03.02-.04.03,0,0,0,0,0,0-.01.01-.03.02-.04.04,0,0,0,0-.01,0-.01.01-.03.02-.05.04,0,0,0,0,0,0-.01.01-.03.03-.05.04,0,0,0,0,0,0-.02.01-.03.02-.05.04,0,0,0,0,0,0-.03.03-.07.06-.1.08,0,0,0,0,0,0-.02.01-.03.03-.05.04h0s-.03.03-.05.04c0,0,0,0,0,0-.02.01-.04.03-.05.04,0,0,0,0,0,0-.32.26-.65.52-.98.78l4.94,6.3c1.25-.98,2.5-2.01,3.71-3.04l-5.21-6.08h0Zm5.24-4.82c-.07.07-.14.14-.21.21,0,0,0,0-.01.01-.01.01-.02.02-.04.03,0,0-.02.01-.02.02,0,0-.02.02-.03.02,0,0-.02.02-.03.03,0,0,0,0-.01.01-.01.01-.03.02-.04.04,0,0,0,0-.01.01-.01.01-.03.03-.04.04,0,0,0,0,0,0-.01.01-.03.03-.04.04,0,0,0,0,0,0-.9.87-1.81,1.73-2.74,2.57l5.37,5.94c1.18-1.07,2.36-2.18,3.49-3.3l-5.62-5.7h0Zm4.89-5.17c-.21.24-.43.49-.64.72,0,0,0,0,0,0-.01.02-.03.03-.04.05,0,0,0,0,0,0-.01.01-.03.03-.04.04,0,0,0,0-.01.01-.01.01-.02.03-.04.04,0,0,0,0-.01.01-.01.01-.02.03-.03.04,0,0,0,.01-.01.02-.01.01-.02.02-.03.03,0,0-.01.01-.02.02,0,0-.02.02-.03.03,0,0-.01.01-.02.02-.01.01-.02.02-.03.03,0,0-.01.01-.02.02-.01.01-.02.02-.03.03,0,0-.01.01-.02.02-.01.01-.02.02-.03.03,0,0-.01.01-.02.02,0,0-.02.02-.02.02,0,.01-.02.02-.03.03,0,0-.01.01-.02.02-.01.01-.02.02-.03.03,0,0-.01.01-.02.02-.01.01-.02.02-.03.03,0,0-.01.01-.02.02,0,0-.01.02-.02.02,0,0-.02.02-.02.03,0,0-.02.02-.03.03,0,0-.01.01-.01.02-.01.01-.02.02-.03.04,0,0,0,.01-.02.02-.01.01-.02.02-.03.04,0,0-.01.01-.02.02-.01.01-.02.02-.03.03,0,0-.01.01-.02.02,0,.01-.02.02-.03.03,0,0-.01.01-.02.02,0,0-.01.02-.02.02,0,0-.02.02-.03.03,0,0-.01.01-.02.02-.01.01-.02.02-.03.03,0,0-.01.01-.02.02,0,0-.02.02-.02.03,0,0-.02.02-.02.03,0,0-.02.02-.02.03,0,0-.01.01-.02.02-.01.01-.02.02-.03.03,0,0,0,.01-.01.02-.01.01-.02.03-.04.04,0,0,0,0-.01.01-.01.01-.02.02-.04.04,0,0,0,0-.01.01-.01.01-.03.03-.04.04,0,0,0,0,0,0-.01.01-.03.03-.04.04,0,0,0,0,0,0-.02.02-.03.03-.04.05,0,0,0,0,0,0-.02.02-.03.03-.05.05,0,0,0,0,0,0-.02.02-.03.03-.05.05,0,0,0,0,0,0-.3.32-.6.64-.91.96l5.77,5.55c1.1-1.15,2.2-2.34,3.25-3.53l-6.01-5.29h0Zm4.51-5.5c-.08.1-.15.2-.23.29,0,0,0,0,0,0-.01.02-.03.03-.04.05,0,0,0,0,0,.01l-.03.04s0,.01-.01.02c-.01.01-.02.03-.03.04,0,0,0,.01-.01.02,0,0-.01.02-.02.03,0,.01-.02.02-.03.03,0,0-.01.02-.02.02,0,.01-.02.02-.03.03,0,0-.01.01-.02.02,0,.01-.02.02-.03.03,0,0-.01.01-.02.02,0,.01-.02.02-.02.03,0,0-.01.02-.02.02,0,0-.02.02-.03.03,0,0,0,.01-.01.02,0,.01-.02.03-.03.04,0,0,0,.01-.01.02,0,.01-.02.03-.03.04,0,0,0,.01-.01.02-.01.02-.02.03-.03.04,0,0,0,0-.01.01-.01.01-.02.03-.03.04,0,0,0,0,0,.01,0,.01-.02.03-.03.04,0,0,0,0,0,.01,0,.01-.02.03-.03.04,0,0,0,0,0,.01-.01.01-.02.03-.04.05,0,0,0,0,0,0-.01.01-.02.03-.04.04h0s-.02.04-.03.06c0,0,0,0,0,.01-.01.01-.02.03-.04.04,0,0,0,0,0,0-.01.01-.02.03-.04.05h0s-.02.03-.04.05c0,0,0,0,0,0-.01.01-.02.03-.04.05,0,0,0,0,0,.01-.01.01-.02.03-.04.04,0,0,0,0,0,.01-.01.01-.02.03-.04.04,0,0,0,0,0,0-.01.01-.02.03-.04.05,0,0,0,0,0,0,0,.01-.03.03-.04.04,0,0,0,0,0,0,0,.01-.02.03-.03.04,0,0,0,0,0,.01-.01.01-.02.03-.04.04,0,0,0,0,0,.01-.01.01-.02.03-.04.04,0,0,0,0,0,.01-.01.01-.02.03-.04.04h0s-.02.04-.04.06c0,0,0,0,0,0-.01.01-.02.03-.04.04,0,0,0,0,0,0-.01.02-.02.03-.04.04,0,0,0,0,0,0-.01.01-.02.03-.04.05h0s-.02.04-.03.05c0,0,0,0-.01.01-.01.01-.02.03-.03.04,0,0,0,0,0,.01-.01.01-.02.03-.04.04,0,0,0,0,0,0-.01.01-.02.03-.04.04,0,0,0,0,0,0-.01.01-.02.03-.03.04,0,0,0,0,0,.01-.01.01-.02.03-.04.04,0,0,0,0-.01.01-.01.01-.02.03-.03.04,0,0,0,0-.01.01-.01.01-.02.03-.04.04,0,0,0,0,0,.01-.01.01-.02.03-.04.04,0,0,0,0,0,.01-.01.01-.02.03-.03.04,0,0,0,0,0,0,0,.01-.02.03-.03.04,0,0,0,0,0,.01-.01.01-.02.03-.04.04,0,0,0,0,0,.01-.01.01-.02.03-.03.04,0,0,0,0-.01.01-.01.01-.02.03-.03.04,0,0,0,0-.01.01-.01.01-.02.03-.04.04,0,0,0,0,0,.01-.01.01-.02.03-.03.04,0,0,0,0,0,.01-.01.01-.02.03-.03.04,0,0,0,0,0,.01-.01.01-.02.03-.04.04,0,0,0,0,0,.01-.01.01-.02.03-.04.04,0,0,0,0,0,.01-.01.01-.02.03-.04.04,0,0,0,0,0,.01-.01.01-.02.03-.04.04,0,0,0,0,0,0-.01.01-.02.03-.04.04,0,0,0,0,0,0-.01.01-.02.03-.04.04,0,0,0,0,0,0-.01.01-.03.03-.04.05,0,0,0,0,0,0-.01.01-.02.03-.04.04,0,0,0,0,0,0l6.15,5.13c1.02-1.22,2.03-2.48,3-3.75l-6.37-4.86h0Zm4.12-5.81s-.06.09-.09.13c0,0,0,.01,0,.01l-.03.05s0,.01-.01.02c0,.01-.02.03-.03.04l-.02.02s-.01.02-.02.03c0,.01-.01.02-.02.04,0,0,0,.01-.01.02,0,.01-.02.03-.03.04,0,0,0,.01-.01.02,0,.01-.02.03-.03.04v.02s-.03.03-.04.05c0,0,0,0,0,0-.01.02-.02.03-.03.05,0,0,0,0,0,0-.01.02-.02.04-.03.05,0,0,0,0,0,0-.01.02-.02.03-.03.05,0,0,0,0,0,0-.01.02-.02.04-.03.05,0,0,0,0,0,0-.01.02-.02.04-.04.05,0,0,0,0,0,0-.65.96-1.31,1.91-1.99,2.85l6.49,4.69c.93-1.29,1.85-2.62,2.73-3.95l-6.69-4.4h0Zm3.7-6.08c-.12.22-.25.44-.38.66,0,0,0,0,0,0-.01.02-.02.03-.03.05,0,0,0,0,0,.01,0,.02-.02.03-.03.05,0,0,0,0,0,.01,0,.02-.02.03-.03.05h0s-.02.04-.02.06c0,0,0,.01-.01.02,0,.01-.01.02-.02.04,0,0,0,.02-.01.02,0,.01-.01.02-.02.03,0,0,0,.02-.01.02,0,.01-.01.02-.02.04,0,0-.01.02-.02.03,0,0-.01.02-.02.03,0,.01-.01.02-.02.04,0,0,0,.01,0,.01-.01.02-.02.03-.03.05,0,0,0,0,0,0-.01.02-.02.04-.04.06h0c-.49.85-1,1.7-1.52,2.53l6.81,4.22c.84-1.35,1.66-2.75,2.44-4.14l-6.99-3.92h0Zm3.26-6.33c-.63,1.34-1.3,2.67-1.99,3.98l7.09,3.73c.74-1.41,1.46-2.86,2.14-4.3l-7.24-3.41h0Zm2.8-6.54c-.54,1.38-1.1,2.76-1.7,4.11l7.33,3.22c.64-1.46,1.26-2.95,1.83-4.44l-7.47-2.89h0Zm2.33-6.72c-.2.65-.41,1.31-.62,1.95h0s-.02.05-.02.07h0s-.02.05-.02.08h0s-.02.07-.03.11c0,0,0,.01,0,.02,0,.02-.01.03-.02.05,0,0,0,.02,0,.02v.04s-.02.02-.02.03c0,0,0,.02,0,.03,0,.02,0,.03-.01.04,0,0,0,.02,0,.02,0,.02-.01.03-.02.05,0,0,0,.01,0,.02,0,.02-.01.03-.02.05,0,0,0,.01,0,.02,0,.02-.01.03-.02.05h0s-.01.05-.02.07c0,0,0,0,0,.01,0,.02-.01.04-.02.05,0,0,0,0,0,.01,0,.02-.01.04-.02.05,0,0,0,0,0,.01,0,.02-.01.04-.02.06,0,0,0,0,0,0,0,.02-.01.04-.02.06,0,0,0,0,0,0,0,.02-.01.04-.02.06,0,0,0,0,0,.01,0,.02-.01.04-.02.06,0,0,0,0,0,0,0,.02-.01.04-.02.06,0,0,0,0,0,0-.01.04-.03.08-.04.12,0,0,0,0,0,0,0,.02-.01.04-.02.06,0,0,0,0,0,0,0,.02-.01.04-.02.06,0,0,0,0,0,0,0,.02-.01.04-.02.06,0,0,0,0,0,0,0,.02-.01.04-.02.06,0,0,0,0,0,0,0,.02-.01.04-.02.06,0,0,0,0,0,0,0,.02-.01.04-.02.06h0s-.01.05-.02.07c0,0,0,0,0,.01,0,.02-.01.04-.02.05,0,0,0,0,0,.01,0,.02-.01.03-.02.05,0,0,0,.01,0,.02,0,.02,0,.03-.02.04,0,0,0,.01,0,.02,0,.02-.01.03-.02.05,0,0,0,.02,0,.02,0,.01-.01.03-.02.04,0,0,0,.02,0,.03,0,0,0,.02-.01.03,0,.01,0,.03-.01.04,0,0,0,.01,0,.02v.02s7.53,2.69,7.53,2.69c.54-1.5,1.05-3.04,1.51-4.56l-7.65-2.36h0Zm1.85-6.87c-.05.2-.09.39-.14.59h0s0,.02,0,.04h0s0,.03,0,.04c0,0,0,0,0,0,0,0,0,.02,0,.03,0,0,0,.01,0,.01,0,0,0,.01,0,.02,0,0,0,.01,0,.01,0,0,0,.01,0,.02,0,.02,0,.03-.01.05,0,0,0,0,0,0,0,.02-.01.05-.02.07,0,0,0,0,0,0,0,0,0,.02,0,.03,0,0,0,0,0,0,0,.01,0,.02,0,.03,0,0,0,0,0,0-.09.38-.19.76-.28,1.15,0,0,0,0,0,0,0,0,0,.02,0,.03,0,0,0,0,0,0,0,0,0,.02,0,.03,0,0,0,0,0,.01,0,0,0,.02,0,.02,0,0,0,0,0,0,0,0,0,.02,0,.03,0,0,0,0,0,0,0,0,0,.02,0,.03,0,0,0,0,0,.01,0,.02,0,.03-.01.05,0,0,0,0,0,0,0,0,0,.01,0,.02,0,0,0,.01,0,.02,0,0,0,.01,0,.02,0,0,0,.01,0,.02,0,0,0,0,0,.01,0,0,0,.02,0,.03,0,0,0,0,0,0,0,0,0,.02,0,.03h0s0,.03,0,.04h0c-.15.6-.31,1.2-.48,1.79l7.71,2.15c.43-1.54.83-3.1,1.19-4.66l-7.8-1.81h0Zm1.36-6.99c-.09.57-.19,1.15-.29,1.72h0s0,.02,0,.03c0,0,0,0,0,.01,0,0,0,.01,0,.02,0,0,0,.01,0,.02,0,0,0,.01,0,.02,0,0,0,.01,0,.02,0,0,0,.01,0,.02,0,0,0,.02,0,.02,0,0,0,0,0,.01,0,.01,0,.02,0,.03h0s-.01.08-.02.12h0c-.13.71-.26,1.42-.4,2.13h0s-.02.08-.02.11c0,0,0,.01,0,.02,0,0,0,.01,0,.02,0,0,0,.02,0,.03h0s0,.03,0,.04c0,0,0,0,0,0l7.85,1.6c.32-1.56.61-3.15.85-4.73l-7.91-1.25h0Zm.86-7.06c-.03.4-.07.81-.11,1.21,0,0,0,0,0,0,0,0,0,.02,0,.03h0s0,.03,0,.04c0,0,0,0,0,.01,0,.01,0,.01,0,.02,0,0,0,.01,0,.02,0,0,0,.02,0,.02,0,.01,0,.02,0,.04,0,0,0,0,0,.01v.03s0,.01,0,.02c0,0,0,.02,0,.02,0,0,0,0,0,.01,0,0,0,.02,0,.02,0,0,0,0,0,.01,0,0,0,.02,0,.02,0,0,0,0,0,.01,0,.01,0,.02,0,.03h0c-.1.95-.21,1.9-.33,2.84l7.94,1.04c.21-1.58.38-3.18.52-4.77l-7.98-.69h0Zm.37-7.11c0,.35-.01.7-.02,1.04,0,0,0,0,0,0,0,.01,0,.02,0,.03,0,0,0,0,0,.01,0,0,0,.01,0,.02,0,0,0,.01,0,.02,0,0,0,.01,0,.02,0,0,0,.01,0,.02,0,0,0,.01,0,.02,0,.01,0,.02,0,.04,0,0,0,0,0,0,0,.01,0,.02,0,.03,0,0,0,0,0,0,0,.01,0,.02,0,.03,0,0,0,0,0,0,0,.01,0,.02,0,.03h0c-.01.51-.03,1-.06,1.5h0s0,.08,0,.12h0s0,.03,0,.04c0,0,0,0,0,0,0,.01,0,.02,0,.03h0s0,.03,0,.04c0,0,0,0,0,0,0,0,0,.02,0,.03,0,0,0,0,0,.01,0,0,0,.02,0,.03,0,.01,0,.02,0,.03,0,0,0,.01,0,.02,0,0,0,.01,0,.02,0,0,0,.01,0,.02,0,0,0,.02,0,.02,0,0,0,.01,0,.02,0,0,0,.02,0,.02h0s0,.03,0,.04c0,0,0,0,0,.01-.02.37-.04.73-.06,1.1l7.99.48c.1-1.59.16-3.2.18-4.79l-8.01-.13h0Zm7.87-7.54l-8,.42c.02.42.04.84.06,1.26h0s0,.03,0,.04h0s0,.03,0,.04c0,0,0,0,0,0,0,.02,0,.05,0,.07,0,0,0,.02,0,.02,0,0,0,0,0,.01,0,.01,0,.01,0,.02,0,0,0,0,0,.01,0,0,0,.02,0,.03,0,0,0,0,0,0,0,.01,0,.02,0,.03h0c.03.77.05,1.54.06,2.32,0,0,0,0,0,.01,0,0,0,.01,0,.02,0,0,0,.01,0,.02,0,0,0,.01,0,.02,0,0,0,.01,0,.02,0,0,0,.01,0,.02,0,.01,0,.02,0,.03,0,0,0,0,0,0,0,.03,0,.05,0,.08h0c0,.12,0,.23,0,.34l8.01-.07c-.01-1.59-.06-3.21-.15-4.79h0Zm-.67-7.65l-7.95.98c.18,1.47.33,2.94.45,4.43l7.98-.63c-.13-1.59-.29-3.2-.48-4.78h0Zm-1.21-7.59l-7.86,1.54c.11.55.21,1.1.31,1.65h0s0,.02,0,.04h0s0,.03,0,.04h0s.01.08.02.12h0s0,.03,0,.04c0,0,0,0,0,0,0,0,0,.02,0,.03,0,0,0,0,0,.01,0,0,0,.02,0,.02,0,0,0,.01,0,.02,0,0,0,.01,0,.02s0,.01,0,.02c0,0,0,.01,0,.02,0,0,0,.02,0,.02,0,0,0,.01,0,.02,0,0,0,.01,0,.02h0s0,.05,0,.06c0,0,0,0,0,0,0,0,0,.01,0,.02,0,0,0,0,0,.01,0,0,0,.01,0,.02,0,0,0,0,0,.01,0,0,0,.02,0,.03,0,0,0,0,0,0,0,0,0,.02,0,.03,0,0,0,0,0,0,0,0,0,.02,0,.03,0,0,0,0,0,0,0,.05.02.09.02.13,0,0,0,0,0,0,0,0,0,.02,0,.03,0,0,0,0,0,0,0,0,0,.02,0,.03,0,0,0,0,0,0,0,.01,0,.02,0,.03,0,0,0,0,0,0,.01.08.03.16.04.24,0,0,0,0,0,0,0,.01,0,.02,0,.03,0,0,0,0,0,0,.01.07.02.14.03.2,0,0,0,0,0,0,0,0,0,.02,0,.03,0,0,0,0,0,0,0,0,0,.02,0,.03,0,0,0,0,0,0,0,0,0,.02,0,.03,0,0,0,0,0,.01,0,0,0,.02,0,.02,0,0,0,0,0,.01,0,0,0,.02,0,.03,0,0,0,0,0,0,0,.01,0,.02,0,.04,0,0,0,.02,0,.03,0,0,0,0,0,.01,0,0,0,.02,0,.02,0,0,0,.01,0,.02,0,0,0,.01,0,.02,0,0,0,0,0,.02,0,0,0,.02,0,.02,0,0,0,0,0,.01,0,0,0,.02,0,.03,0,0,0,0,0,0,0,.01,0,.02,0,.03h0c.05.3.09.6.14.9l7.92-1.19c-.24-1.58-.51-3.17-.82-4.73h0Zm-1.74-7.49l-7.73,2.09c.16.59.32,1.19.47,1.79,0,0,0,0,0,0,0,0,0,.02,0,.03,0,0,0,.01,0,.01,0,0,0,.02,0,.02h0s0,.03,0,.04t0,.01s0,.01,0,.02v.02s0,.01,0,.02c0,0,0,.01,0,.02v.02s.02.05.02.08c0,0,0,0,0,0,0,0,0,.02,0,.03h0s0,.03,0,.03c0,0,0,0,0,0,0,0,0,.02,0,.03,0,0,0,0,0,0,0,0,0,.02,0,.03,0,0,0,0,0,0,.17.7.34,1.4.49,2.1l7.82-1.75c-.35-1.56-.74-3.13-1.15-4.66h0Zm-2.27-7.34l-7.56,2.64c.49,1.4.94,2.81,1.37,4.23l7.67-2.3c-.46-1.53-.96-3.07-1.48-4.57h0Zm-2.79-7.16l-7.36,3.17c.18.42.36.85.54,1.28,0,0,0,0,0,0,0,.02.02.04.02.06,0,0,0,0,0,0,0,.02.02.04.02.06,0,0,0,0,0,.01,0,.02.01.04.02.05,0,0,0,0,0,.01,0,.01.01.03.02.04,0,0,0,.02.01.03,0,.01.01.03.02.04,0,0,0,.01,0,.02,0,.01.01.03.02.04,0,0,0,.02.01.03,0,.01.01.03.02.04v.03s.02.01.02.02c0,.02.01.04.02.05,0,0,0,0,0,.01,0,.02.02.04.03.06h0c.3.74.59,1.48.87,2.23l7.49-2.84c-.56-1.49-1.17-2.99-1.8-4.45h0Zm-3.29-6.95l-7.11,3.68s0,0,0,0c0,.01.02.03.02.04,0,0,0,.01.01.02,0,.01.01.03.02.04,0,0,0,.02.01.02,0,.01.01.02.02.04,0,0,.01.02.02.03,0,0,0,.02.01.03,0,.01.01.03.02.04,0,0,0,.01.01.02,0,.01.01.03.02.04,0,0,0,.02.01.02,0,.02.02.04.03.05,0,0,0,0,0,0,0,.01.01.02.02.03h0s.02.05.03.07h0s.02.05.03.07h0c.44.87.87,1.73,1.28,2.61,0,0,0,.01,0,.01,0,.02.02.03.02.05,0,0,0,.01.01.02,0,.01.01.03.02.04,0,.01,0,.02.01.03v.03s.03.03.03.04v.02s.02.03.03.05c0,0,0,.01,0,.02,0,.02.02.03.02.05,0,0,0,0,0,0,.07.14.14.29.2.44l7.27-3.36c-.67-1.45-1.38-2.9-2.11-4.31h0Zm-3.77-6.7l-6.84,4.17c.23.38.45.75.68,1.13,0,0,0,0,0,0,.01.02.02.03.03.05h0s.02.04.03.06c0,0,0,0,0,.01l.03.05s0,0,0,.01c0,.01.02.03.02.04,0,0,0,.01.01.02,0,.01.01.02.02.03,0,0,.01.02.02.03,0,.01.01.02.02.03v.02s.03.02.04.04c0,0,.01.02.01.03,0,.01.01.03.02.04,0,0,.01.02.02.03,0,0,0,.01.01.02,0,.01.02.03.03.04,0,0,0,.01,0,.02,0,.02.02.03.03.05,0,0,0,0,0,.01.01.02.02.04.03.06,0,0,0,0,0,0,.03.05.06.11.09.16h0c.36.62.7,1.23,1.05,1.86l7.01-3.87c-.77-1.4-1.58-2.79-2.41-4.15h0Zm-4.23-6.41l-6.53,4.64c.86,1.21,1.69,2.44,2.5,3.68l6.72-4.35c-.87-1.34-1.77-2.67-2.7-3.97h0Zm-4.67-6.1l-6.18,5.09c.43.52.86,1.05,1.28,1.59,0,0,0,0,0,0,.01.02.03.03.04.05,0,0,0,0,0,0,.01.02.03.03.04.05,0,0,0,0,0,.01.01.01.02.03.03.04,0,0,0,0,.01.02.01.01.02.03.03.04,0,0,0,0,.01.01,0,0,.01.02.02.03,0,0,.01.01.01.02.01.01.02.03.03.04,0,0,0,0,.01.02.01.01.02.03.03.04,0,0,0,.01.01.02,0,.01.02.02.03.04,0,0,0,.01.01.02l.03.04s0,.01.01.02c0,0,.01.02.02.03,0,.01.02.02.02.03,0,0,.01.02.02.03,0,0,.01.02.02.02,0,.01.02.02.03.03,0,0,.01.01.02.02,0,.01.02.02.03.04,0,0,0,.01.01.02.01.01.02.03.03.04,0,0,0,0,.01.01.01.02.02.03.03.05,0,0,0,0,0,.01.01.02.03.04.04.05,0,0,0,0,0,0,.02.03.05.06.07.09h0s.03.04.04.06h0s.03.04.04.06h0c.2.27.41.53.61.8l6.4-4.81c-.96-1.27-1.96-2.54-2.97-3.77h0Zm-5.08-5.76l-5.81,5.51c.08.08.16.17.24.25,0,0,0,0,0,0,.02.02.03.03.04.05,0,0,0,0,0,0,.02.02.03.03.04.04,0,0,0,0,0,0,.01.01.02.02.03.04,0,0,.01.01.02.02,0,0,.02.02.03.03,0,0,.01.01.02.02,0,0,.02.02.03.03,0,0,.01.02.02.02,0,0,.01.01.02.02.01.01.02.03.04.04h0s.03.04.05.06h0c.81.87,1.61,1.76,2.4,2.67l6.05-5.25c-1.04-1.2-2.13-2.4-3.22-3.56h0Zm-5.47-5.39l-5.41,5.9c1.09,1,2.16,2.03,3.21,3.08l5.67-5.66c-1.13-1.13-2.29-2.24-3.47-3.32h0Zm-5.84-4.99l-4.99,6.27c.82.65,1.62,1.31,2.42,1.98,0,0,0,0,0,0,.02.01.03.03.05.04,0,0,0,0,0,0,.01.01.03.03.04.04,0,0,0,0,.01,0,.01.01.03.02.04.04,0,0,0,0,.01.01.01.01.03.02.04.03,0,0,0,0,.01.01.01.01.02.02.03.03,0,0,.01.01.02.02.01.01.02.02.03.03,0,0,.01,0,.02.01.01.01.02.02.04.03,0,0,.01.01.02.02.01.01.02.02.04.03,0,0,.01.01.02.02.01.01.02.02.03.03,0,0,.01.01.02.02,0,0,.02.01.03.02,0,0,.02.02.03.03,0,0,.01.01.02.02.01,0,.02.02.03.03,0,0,.01.01.02.02.01,0,.02.02.03.03,0,0,.02.01.02.02,0,0,.02.01.02.02.01.01.02.02.03.03,0,0,.01.01.02.02,0,0,.02.02.03.03,0,0,.01.01.02.02.01.01.02.02.03.03l.02.02s.02.02.03.03c0,0,.02.01.02.02,0,0,.02.02.03.02,0,0,.01.01.02.02.01.01.02.02.04.03,0,0,0,0,0,0l5.26-6.04c-1.2-1.05-2.44-2.08-3.69-3.07h0Zm-6.17-4.57l-4.53,6.6c.59.41,1.18.82,1.76,1.24,0,0,0,0,0,0,.02.01.04.03.06.04,0,0,0,0,0,0,.04.03.07.05.11.08,0,0,0,0,0,0,.02.01.04.03.05.04,0,0,0,0,0,0,.02.01.03.02.05.03,0,0,0,0,.01,0,.02.01.03.02.04.03,0,0,0,0,.01,0,.01,0,.03.02.04.03,0,0,0,0,.01.01.01,0,.03.02.04.03,0,0,.01,0,.02.01.01,0,.02.02.03.02,0,0,.02.01.03.02.01,0,.02.01.03.02h.02s.02.03.04.04c0,0,.02.01.02.02.01,0,.02.02.03.02,0,0,.02.01.03.02,0,0,.01,0,.02.01.01.01.03.02.04.03,0,0,0,0,.01,0,.02.01.03.02.05.04,0,0,0,0,0,0,.34.25.69.51,1.03.76l4.82-6.4c-1.27-.96-2.58-1.9-3.9-2.8h0Zm-6.48-4.12l-4.06,6.9h0s.03.02.05.03c0,0,0,0,.01,0,.02,0,.04.02.05.03,0,0,0,0,0,0,.76.45,1.51.9,2.25,1.37,0,0,0,0,0,0,.02.01.04.02.06.03,0,0,0,0,0,0,.02.01.04.02.06.04,0,0,0,0,0,0,.04.02.08.05.11.07,0,0,0,0,0,0,.02.01.04.02.05.03,0,0,0,0,0,0,.02.01.03.02.05.03h0s.04.03.05.04c0,0,0,0,0,0,.02.01.04.02.05.03,0,0,0,0,0,0,.04.02.07.05.11.07,0,0,0,0,0,0,.02.01.04.02.05.03,0,0,0,0,0,0,.02.01.03.02.05.03,0,0,0,0,0,0,.02.01.04.02.05.03,0,0,0,0,0,0,.21.14.43.27.64.41l4.36-6.72c-1.34-.87-2.71-1.72-4.08-2.52h0Zm-6.76-3.66l-3.56,7.17s0,0,.01,0c.01,0,.03.01.04.02,0,0,.01,0,.02.01.01,0,.03.01.04.02h.02s.03.03.04.03c0,0,.02,0,.03.01h.02s.03.03.05.03c0,0,0,0,.01,0,.02,0,.04.02.06.03h0s.04.03.06.04h0c1.19.6,2.37,1.22,3.53,1.86l3.87-7.01c-1.4-.77-2.83-1.52-4.25-2.23h0Zm-7-3.17l-3.04,7.41c.55.23,1.1.46,1.65.69h0s.02.01.03.02h0s.04.02.06.03c0,0,.01,0,.02,0,.01,0,.03.01.04.02,0,0,.02,0,.03.01.01,0,.02,0,.03.01.01,0,.02.01.04.02,0,0,.01,0,.02,0,.01,0,.03.01.05.02h.02s.03.02.05.03c0,0,0,0,.01,0,.02,0,.03.02.05.02h0c.66.29,1.31.58,1.96.89l3.37-7.27c-1.45-.67-2.93-1.32-4.4-1.92h0Zm-7.21-2.67l-2.51,7.6c.54.18,1.07.36,1.61.55h0s.04.02.06.02c0,0,0,0,.02,0,.02,0,.03.01.05.02,0,0,.02,0,.02,0,0,0,.02,0,.03.01.01,0,.03.01.04.01,0,0,.02,0,.02,0,.02,0,.03.01.04.02,0,0,.01,0,.02,0,.02,0,.03,0,.04.01,0,0,.01,0,.02,0,.02,0,.03.01.05.02,0,0,0,0,.01,0,.02,0,.04.01.05.02h.01s.04.02.06.02c0,0,0,0,0,0,.67.24,1.35.49,2.02.74l2.85-7.49c-1.49-.57-3.01-1.11-4.53-1.61h0Zm-7.38-2.15l-1.97,7.76s.02,0,.03,0h0s.04.01.06.02c0,0,0,0,.01,0,.01,0,.02,0,.03,0,.01,0,.03,0,.04.01,0,0,.02,0,.03,0,.01,0,.02,0,.03,0,.01,0,.02,0,.04,0,.01,0,.02,0,.03,0,0,0,.02,0,.03,0,.02,0,.03,0,.05.01,0,0,.01,0,.02,0,.02,0,.04,0,.05.01,0,0,.01,0,.02,0,.02,0,.04,0,.05.01,0,0,0,0,.01,0,.02,0,.04.01.06.02,0,0,0,0,0,0,.02,0,.04.01.06.02,0,0,0,0,0,0,.02,0,.04.01.06.02,0,0,0,0,0,0,.02,0,.05.01.06.02,0,0,0,0,0,0,.78.21,1.57.42,2.34.64,0,0,0,0,0,0,.02,0,.04.01.06.02,0,0,0,0,0,0,.02,0,.04.01.06.02,0,0,0,0,.01,0,.02,0,.04.01.06.02,0,0,0,0,.01,0,.02,0,.03,0,.05.01h.02s.03.01.04.02c0,0,.01,0,.02,0,.02,0,.03,0,.04.01,0,0,.02,0,.03,0,.01,0,.03,0,.04.01.01,0,.02,0,.03,0,0,0,.01,0,.02,0,.02,0,.04.01.06.02h0c.19.06.37.11.56.17l2.31-7.67c-1.53-.46-3.08-.89-4.63-1.28h0Zm-7.51-1.62l-1.41,7.88s0,0,0,0c0,0,0,0,.01,0,0,0,.02,0,.02,0,0,0,0,0,.01,0,0,0,.02,0,.02,0,0,0,0,0,.02,0,0,0,.01,0,.02,0,0,0,.01,0,.02,0,0,0,.01,0,.02,0,0,0,.01,0,.02,0,0,0,0,0,0,0,.02,0,.04,0,.06.01,0,0,0,0,0,0,0,0,.02,0,.03,0,0,0,0,0,0,0,0,0,.02,0,.03,0,0,0,0,0,0,0,0,0,.02,0,.03,0,0,0,0,0,0,0,0,0,.02,0,.03,0,0,0,0,0,0,0,0,0,.02,0,.03,0,0,0,0,0,0,0,.08.01.16.03.24.04h0s.02,0,.03,0c0,0,0,0,0,0,.08.02.16.03.24.04,0,0,0,0,0,0,.01,0,.02,0,.03,0,0,0,0,0,0,0,0,0,.02,0,.03,0,0,0,0,0,0,0,.05.01.11.02.17.03,0,0,0,0,0,0,0,0,.02,0,.03,0,0,0,0,0,0,0,0,0,.02,0,.03,0,0,0,0,0,.01,0,0,0,.02,0,.02,0,0,0,0,0,.01,0,0,0,.01,0,.02,0,0,0,0,0,.01,0,0,0,.02,0,.02,0,0,0,.01,0,.02,0,0,0,.02,0,.03,0,0,0,.02,0,.03,0,0,0,0,0,.01,0,0,0,.02,0,.03,0,0,0,0,0,.01,0,0,0,.02,0,.03,0,0,0,0,0,.01,0,0,0,.02,0,.03,0,0,0,0,0,.01,0,0,0,.02,0,.03,0h0c.94.18,1.87.38,2.8.59l1.76-7.81c-1.55-.35-3.14-.67-4.71-.95h0Zm-7.6-1.09l-.85,7.96c.36.04.71.08,1.07.12,0,0,0,0,0,0,.01,0,.02,0,.03,0,0,0,.01,0,.02,0,0,0,.01,0,.02,0,0,0,.01,0,.02,0,0,0,0,0,.01,0,.01,0,.03,0,.04,0h0s.02,0,.04,0h0s.02,0,.03,0h0s.02,0,.03,0h0s.03,0,.04,0h0c.79.1,1.58.2,2.36.31,0,0,0,0,.01,0,0,0,.02,0,.02,0,0,0,0,0,.02,0,0,0,.01,0,.02,0,0,0,.01,0,.02,0,0,0,0,0,.01,0,0,0,.02,0,.02,0,0,0,0,0,0,0,.18.03.36.05.55.08l1.2-7.92c-1.57-.24-3.18-.45-4.76-.62h0Zm-7.66-.55l-.29,8c.39.01.79.03,1.18.05,0,0,0,0,.01,0,0,0,.01,0,.02,0,0,0,.01,0,.02,0,0,0,.01,0,.02,0h.02s0,0,.02,0c0,0,.02,0,.03,0,0,0,0,0,.01,0,.04,0,.08,0,.12,0h0s.03,0,.04,0h0c.66.03,1.31.07,1.97.12h0s.02,0,.03,0c0,0,0,0,0,0,0,0,.02,0,.03,0,0,0,0,0,.01,0,0,0,.02,0,.02,0,0,0,.01,0,.01,0,0,0,.02,0,.03,0,0,0,0,0,0,0h.04s.02,0,.02,0c0,0,0,0,.01,0,.01,0,.02,0,.03,0,0,0,0,0,.01,0,0,0,.02,0,.03,0,0,0,0,0,.01,0,0,0,.02,0,.03,0,0,0,0,0,0,0,.22.02.44.03.65.05l.64-7.98c-1.59-.13-3.2-.22-4.79-.28h0Zm-4.05-.07v8.01h.09s.02,0,.03,0h0c.32,0,.64,0,.97,0L110.19,0c-.39,0-.78,0-1.18,0h0Z" style="fill: #4bd996; stroke-width: 0px;"/>
        <circle cx="109.01" cy="109.01" r="101" style="fill: none; stroke: #fff; stroke-miterlimit: 10; stroke-width: 12.46px;"/>
        <circle cx="109.01" cy="109.01" r="101" style="fill: #41d992; opacity: .39; stroke-width: 0px;"/>
      </g>
      <g>
        <g style="opacity: .1;">
          <path d="m182.01,162.4c0,3.58-33.84,6.49-75.58,6.49s-75.58-2.9-75.58-6.49,33.84-6.49,75.58-6.49,75.58,2.9,75.58,6.49" style="fill: #4b5863; stroke-width: 0px;"/>
        </g>
        <g>
          <path d="m172.32,71.49s.98,3.25,2.08,2.85c0,0-3.18,5.48-8.03,2.08-4.84-3.39,5.84-4.93,5.84-4.93" style="fill: #594a42; stroke-width: 0px;"/>
          <path d="m159.13,72.03s-.98,3.25-2.08,2.85c0,0,3.18,5.48,8.03,2.08,4.84-3.39-5.85-4.93-5.85-4.93" style="fill: #594a42; stroke-width: 0px;"/>
          <path d="m172.78,69.01c0,3.97-3.22,7.18-7.18,7.18s-7.18-3.22-7.18-7.18,3.22-7.18,7.18-7.18,7.18,3.22,7.18,7.18" style="fill: #594a42; stroke-width: 0px;"/>
          <path d="m174.18,140.11c-.28,1.72-2.11,15.51-2.02,16.54.09,1.03,1.94,4.97,1.87,6.13l.04.39-5.23.03s.25-2.07.67-3.43c.42-1.36.14-5.24,0-6.98" style="fill: #ffd6bb; stroke-width: 0px;"/>
          <path d="m163.7,148.63l.34,4.66c-.14,1.75-.14,5.01.28,6.37.42,1.36.67,3.43.67,3.43l-5.23-.03.04-.39c-.07-1.16,1.78-5.1,1.87-6.13.09-1.03-1.22-14.91-1.5-16.64" style="fill: #ffd6bb; stroke-width: 0px;"/>
          <path d="m173.83,81.5c-1.02-1.55-6.29-3.21-6.29-3.21l1.6-1.65-1.15-3.29-2.73,1.08-.02-.23-2.35-.09-.28,4.99s-2.93,1.27-3.94,2.82l1.36,3.98,4.8.98v.49s1.2-.24,1.2-.24l.55.11-.02-.22,4.82-.98,2.46-4.52Z" style="fill: #ffd6bb; stroke-width: 0px;"/>
          <g style="opacity: .82;">
            <g style="clip-path: url(#clippath);">
              <path d="m168.71,75.04s-5.42.12-5.91-.45l-.23,4.14,6.32-2.82-.18-.87Z" style="fill: #ffbfa6; stroke-width: 0px;"/>
            </g>
          </g>
          <path d="m169.72,157.52c-.13-2.08-.11-3.96-.11-3.96,0,0-1.75-12.31-1.34-14.16.41-1.85-2.12-21.35-2.12-21.35l1.42-14.15,6.15,2.13s3.1,4.48,2.68,10.03c-.42,5.56-2.72,19.96-2.72,19.96,0,0,1.19,3.6.93,5.66-.19,1.52-1.49,10.9-2.12,16.2" style="fill: #77b4c6; stroke-width: 0px;"/>
          <path d="m164.03,157.67c.13-2.08.2-4.04.2-4.04,0,0,1.75-12.31,1.34-14.16-.41-1.85.88-20.76.88-20.76l.93-14.81-7.26,2.2s-3.1,4.48-2.68,10.03c.42,5.56,2.72,19.96,2.72,19.96,0,0-1.19,3.6-.93,5.66.19,1.51,1.48,10.82,2.11,16.13" style="fill: #77b4c6; stroke-width: 0px;"/>
          <path d="m160.19,68.87s-1.83,7.6,4.88,7.64c0,0,4.11.04,5.37-3.95l.13-5.78-5.59-4.69-4.72,3.64-.06,3.14Z" style="fill: #ffd6bb; stroke-width: 0px;"/>
          <path d="m169.44,70.92c0,.9.51,1.62,1.15,1.62s1.15-.73,1.15-1.62-.51-1.62-1.15-1.62-1.15.73-1.15,1.62" style="fill: #ffd6bb; stroke-width: 0px;"/>
          <path d="m162.01,79.25l-4.41,2.28-1.19,21.41v11.67s-.83-.45,8.3.37c11.28,1.01,11.74,1.27,11.74,1.27,0,0,1.56-7.23.62-11.12-.94-3.89-2.84-5.63-2.84-5.63,0,0,2.42-9.63,2.48-11.91.05-2.28-.39-4.18-1.78-5.75-1.39-1.56-4.66-3.58-4.66-3.58,0,0-6.16,2.62-6.55,2.69-.39.07-1.69-1.72-1.69-1.72" style="fill: #bcbec0; stroke-width: 0px;"/>
          <polygon points="168.92 76.01 163.7 80.98 166.68 84.05 170.68 78.31 168.92 76.01" style="fill: #a0a1a3; stroke-width: 0px;"/>
          <polygon points="163.7 80.98 162.61 77.86 160.89 80.03 161.49 83.28 163.7 80.98" style="fill: #a0a1a3; stroke-width: 0px;"/>
          <path d="m159.81,163.94l5.27.06s.31-1.16-.23-2.38c-.49-1.12-4.33-1.07-5.08.16-.75,1.22.04,2.17.04,2.17" style="fill: #4b5863; stroke-width: 0px;"/>
          <path d="m164.06,158.05s1.9,4.95,1.04,5.9c-.23.25-1.15-1.77-1.15-1.77l.11-4.13Z" style="fill: #4b5863; stroke-width: 0px;"/>
          <path d="m161.18,158.13s-2.25,4.82-1.39,5.77c.23.25,1.15-1.77,1.15-1.77l.24-4Z" style="fill: #4b5863; stroke-width: 0px;"/>
          <path d="m168.48,164.12l5.27.06s.31-1.16-.23-2.38c-.49-1.12-4.33-1.06-5.08.16-.75,1.22.04,2.17.04,2.17" style="fill: #4b5863; stroke-width: 0px;"/>
          <path d="m172.62,158.25s2.18,4.74,1.15,5.88c-.23.25-1.15-1.77-1.15-1.77v-4.11Z" style="fill: #4b5863; stroke-width: 0px;"/>
          <path d="m169.76,158.31s-2.16,4.82-1.3,5.77c.23.25,1.15-1.77,1.15-1.77l.14-4Z" style="fill: #4b5863; stroke-width: 0px;"/>
          <path d="m176.42,84.23c1.92,5.12-.98,15.13-1.31,17.1-.33,1.96-6.84,9.13-6.84,9.13l-2.11-2.2,4.76-9.23s-.96-14.99-.56-16.6c.5-2.05,4.14-3.32,6.06,1.8" style="fill: #ffdecc; stroke-width: 0px;"/>
          <path d="m170.88,67.04s-8.93,3.68-11.42,1.85c0,0-.98-2.59.39-4.35,1.38-1.77,5.86-2.78,5.86-2.78l5.17,5.29Z" style="fill: #594a42; stroke-width: 0px;"/>
        </g>
        <g>
          <path d="m156.07,140.11c-.28,1.72-2.11,15.51-2.02,16.54.09,1.03,1.94,4.97,1.87,6.13l.04.39-5.23.03s.25-2.07.67-3.43c.42-1.36.14-5.24,0-6.98" style="fill: #ffd6bb; stroke-width: 0px;"/>
          <path d="m142.07,139.9c.28,1.72,1.59,15.6,1.5,16.64-.09,1.03-1.94,4.97-1.87,6.13l-.04.39,5.23.03s-.25-2.07-.67-3.43c-.42-1.36-.42-4.62-.28-6.37" style="fill: #ffd6bb; stroke-width: 0px;"/>
          <path d="m151.31,158.25c-.14-1.96-1.86-21.46-1.4-23.2.46-1.74-1.2-18.68-1.2-18.68l.28-14.87,6.97,2.13s2.71,5.33,2.24,10.56c-.47,5.23-.8,17.75-.8,17.75,0,0-.17,3.32-.45,5.25-.28,1.94-2.08,19.84-1.99,21.01" style="fill: #4b5863; stroke-width: 0px;"/>
          <path d="m146.34,157.95c.14-1.96,1.94-21.38,1.74-23.16-.21-1.87.98-18.23.98-18.23l.42-15.13-7.53,2.49s-3.44,4.21-2.97,9.45c.47,5.23,1.46,19.35,1.46,19.35,0,0,.24,2.84.52,4.78.28,1.94,1.97,19.14,1.88,20.31" style="fill: #4b5863; stroke-width: 0px;"/>
          <path d="m155.72,81.5c-1.02-1.55-6.29-3.21-6.29-3.21l1.6-1.65-1.15-3.29-2.73,1.08-.02-.23-2.35-.09-.28,4.99s-2.93,1.27-3.94,2.82l1.36,3.98,4.8.98v.49s1.2-.24,1.2-.24l.55.11-.02-.22,4.82-.98,2.46-4.52Z" style="fill: #ffd6bb; stroke-width: 0px;"/>
          <g style="opacity: .82;">
            <g style="clip-path: url(#clippath-1);">
              <path d="m150.59,75.04s-5.42.12-5.91-.45l-.23,4.14,6.32-2.82-.18-.87Z" style="fill: #ffbfa6; stroke-width: 0px;"/>
            </g>
          </g>
          <path d="m142.08,68.87s-1.83,7.6,4.88,7.64c0,0,4.11.04,5.37-3.95l.13-5.78-5.59-4.69-4.72,3.64-.06,3.14Z" style="fill: #ffd6bb; stroke-width: 0px;"/>
          <path d="m143.9,79.25l-4.41,2.28-1.19,21.41.15,9.05s-.07.78,9.06,1.6c11.28,1.01,11.81-.83,11.81-.83l-3.22-13.25s2.42-9.63,2.48-11.91c.05-2.28-.39-4.18-1.78-5.75-1.39-1.56-4.66-3.58-4.66-3.58,0,0-6.16,2.62-6.55,2.69-.39.07-1.69-1.72-1.69-1.72" style="fill: #5b6977; stroke-width: 0px;"/>
          <polygon points="150.81 76.01 145.59 80.98 148.57 84.05 152.56 78.31 150.81 76.01" style="fill: #4b5863; stroke-width: 0px;"/>
          <polygon points="145.59 80.98 144.5 77.86 142.77 80.03 143.38 83.28 145.59 80.98" style="fill: #4b5863; stroke-width: 0px;"/>
          <path d="m141.7,163.94l5.27.06s.31-1.16-.23-2.38c-.49-1.12-4.33-1.07-5.08.16-.75,1.22.04,2.17.04,2.17" style="fill: #5b6977; stroke-width: 0px;"/>
          <path d="m145.95,158.05s1.9,4.95,1.04,5.9c-.23.25-1.15-1.77-1.15-1.77l.11-4.13Z" style="fill: #5b6977; stroke-width: 0px;"/>
          <path d="m143.07,158.13s-2.25,4.82-1.39,5.77c.23.25,1.15-1.77,1.15-1.77l.24-4Z" style="fill: #5b6977; stroke-width: 0px;"/>
          <path d="m150.36,164.12l5.27.06s.31-1.16-.23-2.38c-.49-1.12-4.33-1.06-5.08.16-.75,1.22.04,2.17.04,2.17" style="fill: #5b6977; stroke-width: 0px;"/>
          <path d="m154.5,158.25s2.18,4.74,1.15,5.88c-.23.25-1.15-1.77-1.15-1.77v-4.11Z" style="fill: #5b6977; stroke-width: 0px;"/>
          <path d="m151.64,158.31s-2.16,4.82-1.3,5.77c.23.25,1.15-1.77,1.15-1.77l.14-4Z" style="fill: #5b6977; stroke-width: 0px;"/>
          <path d="m150.94,99.01s2.48-14.81,3.23-16.29c.96-1.88,4.79-2.29,5.49,3.13.7,5.42-4.39,14.52-5.17,16.35l-3.55-3.19Z" style="fill: #4b5863; stroke-width: 0px;"/>
          <path d="m151.22,70.04c0,.97.55,1.75,1.24,1.75s1.24-.78,1.24-1.75-.55-1.75-1.24-1.75-1.24.78-1.24,1.75" style="fill: #ffd6bb; stroke-width: 0px;"/>
          <path d="m152.12,70.89s2.08-4.21.36-6.41c-2.65-3.4-8.98-1.4-10.25-3.4,0,0-1.3,2.13.09,3.9,0,0-1.29,1.69-.43,5.12,0,0,.83-4.02,3.18-3.38,2.35.63,4.18.47,4.55.25.37-.22,2.44,2.14,2.5,3.91Z" style="fill: #aa724f; stroke-width: 0px;"/>
        </g>
        <g>
          <path d="m137.61,67.39c0,4.34-3.24,7.86-7.23,7.86s-7.65-4.18-7.65-8.52,3.65-7.19,7.65-7.19,7.23,3.52,7.23,7.86" style="fill: #844c3d; stroke-width: 0px;"/>
          <path d="m126.06,77.76s-3.36.18-3.45,2.81c-.1,2.63-1.27,12.21-1.27,12.21l5.84-.38-1.11-14.63Z" style="fill: #f9d1bd; stroke-width: 0px;"/>
          <path d="m137.34,77.86c-1.01-1.55-3.43-1.31-3.43-1.31l-1.32-4.08-2.73,1.08-.02-.23-2.35-.09v4.2s-1.38-.05-2.14.55l.04,7.19,4.04.82v.49s1.2-.24,1.2-.24l.55.11-.02-.22,4.82-.98,1.36-7.29Z" style="fill: #ffd6bb; stroke-width: 0px;"/>
          <g style="opacity: .82;">
            <g style="clip-path: url(#clippath-2);">
              <path d="m133.01,73.78s-3.98,1.44-5.52.45v3.2l5.94-2.36-.42-1.29Z" style="fill: #ffbfa6; stroke-width: 0px;"/>
            </g>
          </g>
          <path d="m124.68,67.43s-1.83,7.6,4.88,7.64c0,0,4.11.04,5.37-3.95l.13-5.77-5.59-4.69-4.72,3.64-.06,3.14Z" style="fill: #ffd6bb; stroke-width: 0px;"/>
          <path d="m126.88,102.3s-3.35,4.34-2.89,9.73c.46,5.39,2.94,19.36,2.94,19.36,0,0-1.28,3.49-1.01,5.49.28,2,2.75,17.97,2.66,19.17-.09,1.2-1.79,5.79-1.72,7.14l.38.16,4.57.28s-.24-2.4-.65-3.97c-.41-1.57-.41-5.35-.28-7.37.14-2.02.45-3.89.45-3.89,0,0,1.89-11.94,1.44-13.74-.29-1.17-.38-8.62-.27-13.95.05-2.87.29-5.39.29-5.39l-.09-14.97-5.83,1.94Z" style="fill: #ffd6bb; stroke-width: 0px;"/>
          <path d="m138.86,102.16s3.35,4.34,2.89,9.73c-.46,5.39-2.94,19.36-2.94,19.36,0,0,1.28,3.49,1.01,5.49-.28,2-2.75,17.97-2.66,19.17.09,1.2,1.4,4.11.95,7.07v.49l-4.18.03s.24-2.4.65-3.97c.41-1.57.41-5.35.28-7.37-.14-2.02-.45-3.89-.45-3.89,0,0-1.89-11.94-1.44-13.74.27-1.1.54-8.06.4-13.34-.09-3.37-.58-6.06-.58-6.06l-.5-15.22,6.57,2.26Z" style="fill: #ffd6bb; stroke-width: 0px;"/>
          <path d="m126.91,102.19s-4.19,4.05-3.38,12.23c.81,8.18,2.7,19.28,2.7,19.28l13.17-.45s2.86-20.67,2.7-23.03c-.23-3.3-2.57-7.5-2.57-7.5l-12.62-.53Z" style="fill: #bcbec0; stroke-width: 0px;"/>
          <path d="m125.11,77.93s-.38,2.13-.33,4.77c.03,1.59,2.13,19.49,2.13,19.49l12.62.52-.53-11.91.41-13.5s-3.48-1.71-4.76-.35c-.95,1.02-1.55,4.05-4.33,4-1.79-.03-3.06-2.26-3.71-3.2-.52-.76-1.52.16-1.52.16" style="fill: #a0a1a3; stroke-width: 0px;"/>
          <path d="m127.01,163.92l4.73.06s.28-1.21-.2-2.48c-.44-1.16-3.89-1.11-4.56.16-.67,1.27.04,2.25.04,2.25" style="fill: #a0a1a3; stroke-width: 0px;"/>
          <path d="m130.83,157.8s1.71,5.15.93,6.14c-.2.26-1.03-1.84-1.03-1.84l.1-4.29Z" style="fill: #a0a1a3; stroke-width: 0px;"/>
          <path d="m128.24,157.89s-2.02,5.01-1.25,6c.2.26,1.03-1.84,1.03-1.84l.21-4.16Z" style="fill: #a0a1a3; stroke-width: 0px;"/>
          <path d="m133.75,163.92l4.74.06s.28-1.21-.2-2.48c-.44-1.16-3.9-1.11-4.57.16-.68,1.27.04,2.25.04,2.25" style="fill: #a0a1a3; stroke-width: 0px;"/>
          <path d="m137.47,157.82s1.96,4.93,1.04,6.12c-.2.26-1.04-1.84-1.04-1.84v-4.27Z" style="fill: #a0a1a3; stroke-width: 0px;"/>
          <path d="m134.9,157.88s-1.94,5.01-1.17,6c.2.26,1.04-1.84,1.04-1.84l.13-4.16Z" style="fill: #a0a1a3; stroke-width: 0px;"/>
          <path d="m137.24,89.94c.15-1.24,1.17-1.19,1.76-2.89.56-1.62-.33-3.13-.83-3.82h.01s-.05-.08-.16-.19c-.1-.13-.17-.2-.17-.2h-.03c-.84-.8-3.17-2.38-6.57.15v.11c-2.4-2.5-6.48,0-6.48,0-2.45,4.45,1.13,7.12,1.13,7.12" style="fill: #a0a1a3; stroke-width: 0px;"/>
          <path d="m140.2,91.49l-3.02-6.84s-.75-1.94-.75-4.42c0-2.48,2.42-3.07,2.42-3.07,3.99.31,5.45,10.02,5.45,10.02,0,0,1.61,5.91,1.07,7.57l-5.17-3.26Z" style="fill: #f9d1bd; stroke-width: 0px;"/>
          <path d="m129.6,63.26s-.55,3.8,3.68,3.92c0,0,1.67,1.15,1.59,2.67-.08,1.52-.73,1.7-.73,1.7,0,0,.93.79,1.49-.88.76-2.25.03-2.73.03-2.73l.13-3.16-6.4-4.77.21,3.25Z" style="fill: #844c3d; stroke-width: 0px;"/>
          <path d="m129.71,63.74s-1.52,3.13-4.1,3.25c-2.58.12-1.85,1.03-1.85,1.03,0,0,.05-3.82.97-4.4.91-.58,4.41-3.22,4.41-3.22l1.75,1.15-1.18,2.19Z" style="fill: #844c3d; stroke-width: 0px;"/>
          <path d="m134.09,68.6c0,.97.55,1.75,1.24,1.75s1.24-.78,1.24-1.75-.55-1.75-1.24-1.75-1.24.78-1.24,1.75" style="fill: #ffd6bb; stroke-width: 0px;"/>
          <path d="m133.59,73.08c0,1.64,1.33,2.98,2.98,2.98s2.98-1.33,2.98-2.98-1.33-2.98-2.98-2.98-2.98,1.33-2.98,2.98" style="fill: #844c3d; stroke-width: 0px;"/>
        </g>
        <g>
          <path d="m91.06,66.81c0,3.26-2.46,5.9-5.49,5.9s-5.49-2.64-5.49-5.9,2.46-5.9,5.49-5.9,5.49,2.64,5.49,5.9" style="fill: #aa724f; stroke-width: 0px;"/>
          <path d="m90.7,65.09c0,3.26-2.46,5.9-5.49,5.9s-5.49-2.64-5.49-5.9,2.46-5.9,5.49-5.9,5.49,2.64,5.49,5.9" style="fill: #aa724f; stroke-width: 0px;"/>
          <path d="m77.57,78.37c1.02-1.55,4.78-3.24,4.78-3.24l1.06-4.91,2.73,1.08.02-.23,2.35-.09.28,4.99s2.93,1.27,3.94,2.82l-1.36,3.98-4.8.98v.49s-1.2-.24-1.2-.24l-.55.11.02-.22-4.82-.98-2.46-4.52Z" style="fill: #ffd6bb; stroke-width: 0px;"/>
          <g style="opacity: .82;">
            <g style="clip-path: url(#clippath-3);">
              <path d="m83.15,71.46s4.97.57,5.46,0l.23,4.14-6.04-2.54.35-1.6Z" style="fill: #ffbfa6; stroke-width: 0px;"/>
            </g>
          </g>
          <path d="m78.74,139.78c.28,1.72,2.11,15.51,2.02,16.54-.09,1.03-1.94,4.97-1.87,6.13l-.04.39,5.23.03s-.25-2.07-.67-3.43c-.42-1.36-.14-5.24,0-6.98" style="fill: #ffd6bb; stroke-width: 0px;"/>
          <path d="m92.14,139.57c-.28,1.72-1.59,15.6-1.5,16.64.09,1.03,1.94,4.97,1.87,6.13l.04.39-5.23.03s.25-2.07.67-3.43c.42-1.36.42-4.62.28-6.37" style="fill: #ffd6bb; stroke-width: 0px;"/>
          <path d="m83.5,157.92c.14-1.96,1.86-21.46,1.4-23.2-.46-1.74,1.2-18.68,1.2-18.68l-.28-14.87-6.97,2.13s-2.71,5.33-2.24,10.56c.47,5.23.8,17.75.8,17.75,0,0,.17,3.32.45,5.25.28,1.94,2.08,19.84,1.99,21.01" style="fill: #a0a1a3; stroke-width: 0px;"/>
          <path d="m87.81,157.81c-.14-1.96-1.94-21.38-1.74-23.16.21-1.88-.98-18.23-.98-18.23l-.42-15.13,7.53,2.49s2.96,4.4,2.49,9.64c-.47,5.23-.98,19.16-.98,19.16,0,0-.24,2.84-.52,4.78-.28,1.94-1.98,19.14-1.88,20.31" style="fill: #a0a1a3; stroke-width: 0px;"/>
          <path d="m92.51,163.61l-5.27.06s-.31-1.16.23-2.38c.49-1.12,4.33-1.07,5.08.16.75,1.22-.04,2.17-.04,2.17" style="fill: #6d7b84; stroke-width: 0px;"/>
          <path d="m88.26,157.72s-1.9,4.95-1.04,5.9c.23.25,1.15-1.77,1.15-1.77l-.11-4.13Z" style="fill: #6d7b84; stroke-width: 0px;"/>
          <path d="m91.14,157.8s2.25,4.82,1.39,5.77c-.23.25-1.15-1.77-1.15-1.77l-.24-4Z" style="fill: #6d7b84; stroke-width: 0px;"/>
          <path d="m84.45,163.79l-5.27.06s-.31-1.16.23-2.38c.49-1.12,4.33-1.06,5.08.16.75,1.22-.04,2.17-.04,2.17" style="fill: #6d7b84; stroke-width: 0px;"/>
          <path d="m80.31,157.92s-2.18,4.74-1.15,5.88c.23.25,1.15-1.77,1.15-1.77v-4.11Z" style="fill: #6d7b84; stroke-width: 0px;"/>
          <path d="m83.17,157.98s2.16,4.82,1.3,5.77c-.23.25-1.15-1.77-1.15-1.77l-.14-4Z" style="fill: #6d7b84; stroke-width: 0px;"/>
          <polygon points="93.44 81.82 92.06 96.9 94.13 102.98 77.37 103.55 79 97.56 78.03 81.62 93.44 81.82" style="fill: #ffd6bb; stroke-width: 0px;"/>
          <path d="m92.97,75.6l-1.2,17.87,2.92,18-17.64.48,1.67-17.84-.19-18.65s3.62,2.44,7.1,2.45c3.48.01,7.34-2.31,7.34-2.31" style="fill: #63737f; stroke-width: 0px;"/>
          <path d="m75.99,76.57s-1.54,1.64-2.16,3.4c-.62,1.76-3.03,15.61-3.03,15.61l3.62,2.46,4.11-9.88-2.54-11.6Z" style="fill: #a0a1a3; stroke-width: 0px;"/>
          <path d="m83.07,87.31v26.86s-7.01,1.27-7.15,1.54c-.13.26,1.06-14.04,1.06-14.04l.66-12.24-1.72-12.92s2.86-1.68,5.91-1.15" style="fill: #a7a9ac; stroke-width: 0px;"/>
          <path d="m81.88,75.17l1.19,12.14-3.07-6.16-1.48-5.68s.53-.15,1.42-.3c.91-.16,1.94,0,1.94,0" style="fill: #bcbec0; stroke-width: 0px;"/>
          <path d="m95.14,76.57s1.54,1.64,2.16,3.4c.62,1.76,3.03,15.61,3.03,15.61l-3.62,2.46-4.11-9.88,2.54-11.6Z" style="fill: #a0a1a3; stroke-width: 0px;"/>
          <path d="m88.06,87.31v26.86s7.01,1.27,7.15,1.54c.13.26-1.06-14.04-1.06-14.04l-.66-12.24,1.72-12.92s-2.87-1.68-5.91-1.15" style="fill: #a7a9ac; stroke-width: 0px;"/>
          <path d="m89.25,75.17l-1.19,12.14,3.07-6.16,1.48-5.68s-.53-.15-1.42-.3c-.91-.16-1.94,0-1.94,0" style="fill: #bcbec0; stroke-width: 0px;"/>
          <polygon points="82.44 74.76 85.62 77.92 83.72 79.68 80.52 75.31 82.44 74.76" style="fill: #5b6977; stroke-width: 0px;"/>
          <polygon points="88.81 74.79 85.62 77.95 87.53 79.7 90.73 75.34 88.81 74.79" style="fill: #5b6977; stroke-width: 0px;"/>
          <path d="m90.99,65.19s1.75,7.6-4.67,7.64c0,0-3.93.04-5.13-3.95l-.12-5.77,3.25-4.07,6.62,3.02.06,3.14Z" style="fill: #ffd6bb; stroke-width: 0px;"/>
          <path d="m82.3,66.35c0,.89-.51,1.6-1.13,1.6s-1.13-.72-1.13-1.6.51-1.6,1.13-1.6,1.13.72,1.13,1.6" style="fill: #ffd6bb; stroke-width: 0px;"/>
          <path d="m91.21,67.74s-.61-5.34-1.63-4.85c-1.02.49-3.36.45-5.7-.08-2.34-.52-1.65,4.25-2.11,4.5-.46.25-.46.15-.46.15l.1-2.59s-1.44.65-.9-2.67c.48-2.96,4.03-5.28,6.09-4.66l-.07.8s2.1-1.32,3.33-.87l-.59,1.22,1.57-.68.4,2.37.77-.71s.1,2.63,0,3.64c-.1,1-.82,4.43-.82,4.43" style="fill: #aa724f; stroke-width: 0px;"/>
        </g>
        <g>
          <path d="m40.28,139.78c.28,1.72,2.11,15.51,2.02,16.54-.09,1.03-1.94,4.97-1.87,6.13l-.04.39,5.23.03s-.25-2.07-.67-3.43c-.42-1.36-.14-5.24,0-6.98" style="fill: #ffd6bb; stroke-width: 0px;"/>
          <path d="m54.28,139.57c-.28,1.72-1.59,15.6-1.5,16.64.09,1.03,1.94,4.97,1.87,6.13l.04.39-5.23.03s.25-2.07.67-3.43c.42-1.36.42-4.62.28-6.37" style="fill: #ffd6bb; stroke-width: 0px;"/>
          <path d="m45.04,157.92c.14-1.96,2.6-41.88,2.6-41.88l-.28-14.87-6.97,2.13s-2.71,5.33-2.24,10.56c.47,5.23.8,17.75.8,17.75,0,0,.17,3.32.45,5.25.28,1.94,2.08,19.84,1.99,21.01" style="fill: #63737f; stroke-width: 0px;"/>
          <path d="m50.01,157.63c-.14-1.96-2.72-41.39-2.72-41.39l-.42-15.13,7.53,2.49s3.44,4.21,2.97,9.45c-.47,5.23-1.46,19.35-1.46,19.35,0,0-.24,2.84-.52,4.78-.28,1.94-1.98,19.14-1.88,20.31" style="fill: #63737f; stroke-width: 0px;"/>
          <path d="m40.63,81.17c1.02-1.55,6.29-3.21,6.29-3.21l-1.6-1.65,1.15-3.29,2.73,1.08.02-.23,2.35-.09.28,4.99s2.93,1.27,3.94,2.82l-1.36,3.98-4.8.98v.49s-1.2-.24-1.2-.24l-.55.11.02-.22-4.82-.98-2.46-4.52Z" style="fill: #ffd6bb; stroke-width: 0px;"/>
          <g style="opacity: .82;">
            <g style="clip-path: url(#clippath-4);">
              <path d="m45.75,74.72s5.42.12,5.91-.45l.23,4.14-6.32-2.82.18-.87Z" style="fill: #ffbfa6; stroke-width: 0px;"/>
            </g>
          </g>
          <path d="m54.27,68.55s1.83,7.6-4.88,7.64c0,0-4.11.04-5.37-3.95l-.13-5.77,5.59-4.69,4.72,3.64.06,3.14Z" style="fill: #ffd6bb; stroke-width: 0px;"/>
          <path d="m45.13,69.71c0,.97-.55,1.75-1.24,1.75s-1.24-.78-1.24-1.75.55-1.75,1.24-1.75,1.24.78,1.24,1.75" style="fill: #ffd6bb; stroke-width: 0px;"/>
          <path d="m52.45,78.93l4.41,2.28,1.19,21.41-.15,9.05s.07.78-9.06,1.6c-11.28,1.01-11.81-.83-11.81-.83l3.22-13.25s-2.42-9.63-2.48-11.91c-.05-2.28.4-4.18,1.78-5.75,1.39-1.56,4.66-3.58,4.66-3.58,0,0,6.16,2.62,6.55,2.69.39.07,1.69-1.72,1.69-1.72" style="fill: #77b4c6; stroke-width: 0px;"/>
          <polygon points="45.54 75.68 50.76 80.65 47.78 83.73 43.79 77.98 45.54 75.68" style="fill: #9accd8; stroke-width: 0px;"/>
          <polygon points="50.76 80.65 51.85 77.54 53.57 79.7 52.97 82.96 50.76 80.65" style="fill: #9accd8; stroke-width: 0px;"/>
          <path d="m54.65,163.61l-5.27.06s-.31-1.16.23-2.38c.49-1.12,4.33-1.07,5.08.16.75,1.22-.04,2.17-.04,2.17" style="fill: #4b5863; stroke-width: 0px;"/>
          <path d="m50.4,157.72s-1.9,4.95-1.04,5.9c.23.25,1.15-1.77,1.15-1.77l-.11-4.13Z" style="fill: #4b5863; stroke-width: 0px;"/>
          <path d="m45.98,163.79l-5.27.06s-.31-1.16.23-2.38c.49-1.12,4.33-1.06,5.08.16.75,1.22-.04,2.17-.04,2.17" style="fill: #4b5863; stroke-width: 0px;"/>
          <path d="m41.84,157.92s-2.18,4.74-1.15,5.88c.23.25,1.15-1.77,1.15-1.77v-4.11Z" style="fill: #4b5863; stroke-width: 0px;"/>
          <path d="m44.71,157.98s2.16,4.82,1.3,5.77c-.23.25-1.15-1.77-1.15-1.77l-.14-4Z" style="fill: #4b5863; stroke-width: 0px;"/>
          <path d="m52.03,64.41l.28.31,1.8,2.74.15,2.16.24.96s.24-2.96.22-4.06c-.02-1.1-.73-4.18-2.4-3.3" style="fill: #594a42; stroke-width: 0px;"/>
          <path d="m44.56,71.05s.24-2.63.7-3.47c.47-.85,1.27-2,1.27-2,0,0,3.79,1.14,5.79-.38,2.2-1.66,2.09-2.72,1.98-3.03,0,0-1.08-1.3-3.51-1.06-.68.06-5.63,1.07-6.17,3.29,0,0-2.06.25-1.41,2.79.65,2.54.89,3.87.89,3.87h.46Z" style="fill: #594a42; stroke-width: 0px;"/>
        </g>
        <g>
          <path d="m72.74,67.56c0,4.25-3.01,7.69-6.72,7.69s-6.72-3.44-6.72-7.69,3.01-7.69,6.72-7.69,6.72,3.44,6.72,7.69" style="fill: #edbf7c; stroke-width: 0px;"/>
          <path d="m57.9,80.31c1.02-1.55,6.29-3.21,6.29-3.21l-1.6-1.65,1.15-3.29,2.73,1.08.02-.23,2.35-.09.28,4.99s2.93,1.27,3.94,2.82l-1.36,3.98-4.8.98v.49s-1.2-.24-1.2-.24l-.55.11.02-.22-4.82-.98-2.46-4.52Z" style="fill: #ffd6bb; stroke-width: 0px;"/>
          <g style="opacity: .82;">
            <g style="clip-path: url(#clippath-5);">
              <path d="m63.33,73.46s5.12.51,5.61-.06l.23,4.14-6.32-2.82.48-1.26Z" style="fill: #ffbfa6; stroke-width: 0px;"/>
            </g>
          </g>
          <path d="m71.37,67.32s1.78,7.6-4.74,7.64c0,0-4,.04-5.21-3.95l-.13-5.77,5.81-2.56,4.22,1.51.06,3.14Z" style="fill: #ffd6bb; stroke-width: 0px;"/>
          <path d="m62.25,69.17c0,.86-.49,1.56-1.1,1.56s-1.1-.7-1.1-1.56.49-1.56,1.1-1.56,1.1.7,1.1,1.56" style="fill: #ffd6bb; stroke-width: 0px;"/>
          <path d="m69.47,101.97s3.35,4.34,2.89,9.73c-.46,5.39-2.94,19.36-2.94,19.36,0,0,1.28,3.49,1.01,5.49-.28,2-2.75,17.97-2.66,19.17.09,1.2,1.79,5.79,1.72,7.14l-.38.16-4.57.28s.24-2.4.65-3.97c.41-1.57.41-5.35.28-7.37-.14-2.02-.45-3.89-.45-3.89,0,0-1.89-11.94-1.44-13.74.29-1.17.38-8.62.27-13.95-.06-2.87-.29-5.39-.29-5.39l.09-14.97,5.83,1.94Z" style="fill: #ffd6bb; stroke-width: 0px;"/>
          <path d="m57.48,101.84s-3.35,4.34-2.89,9.73c.46,5.39,2.94,19.36,2.94,19.36,0,0-1.29,3.49-1.01,5.49.28,2,2.75,17.97,2.66,19.17-.09,1.2-1.4,4.11-.95,7.07v.49l4.18.03s-.24-2.4-.65-3.97c-.41-1.57-.41-5.35-.28-7.37.14-2.02.45-3.89.45-3.89,0,0,1.89-11.94,1.44-13.74-.27-1.1-.54-8.06-.4-13.34.09-3.37.58-6.06.58-6.06l.5-15.22-6.57,2.26Z" style="fill: #ffd6bb; stroke-width: 0px;"/>
          <path d="m69.43,101.87s4.19,4.05,3.38,12.23c-.81,8.18-2.7,19.28-2.7,19.28l-13.17-.45s-2.86-20.67-2.7-23.03c.23-3.3,2.57-7.5,2.57-7.5l12.62-.52Z" style="fill: #4b5863; stroke-width: 0px;"/>
          <path d="m70.29,77.44s2.95.08,3.36,1.62c.41,1.54-2.95,24.5-2.95,24.5h-14.48l1.12-13.07-.41-13.5,3.41-.75,6.42,3.45,2.19-.62,1.35-1.63Z" style="fill: #4b5863; stroke-width: 0px;"/>
          <path d="m69.34,163.6l-4.73.06s-.28-1.21.2-2.48c.44-1.16,3.89-1.11,4.56.16.67,1.27-.04,2.25-.04,2.25" style="fill: #77b4c6; stroke-width: 0px;"/>
          <path d="m65.52,157.48s-1.71,5.15-.93,6.14c.2.26,1.03-1.84,1.03-1.84l-.1-4.29Z" style="fill: #77b4c6; stroke-width: 0px;"/>
          <path d="m68.11,157.56s2.02,5.01,1.25,6c-.2.26-1.04-1.84-1.04-1.84l-.21-4.16Z" style="fill: #77b4c6; stroke-width: 0px;"/>
          <path d="m62.6,163.6l-4.74.06s-.28-1.21.2-2.48c.44-1.16,3.9-1.11,4.57.16.68,1.27-.04,2.25-.04,2.25" style="fill: #77b4c6; stroke-width: 0px;"/>
          <path d="m58.88,157.5s-1.96,4.93-1.04,6.12c.2.26,1.04-1.84,1.04-1.84v-4.27Z" style="fill: #77b4c6; stroke-width: 0px;"/>
          <path d="m61.45,157.56s1.94,5.01,1.17,6c-.2.26-1.04-1.84-1.04-1.84l-.13-4.16Z" style="fill: #77b4c6; stroke-width: 0px;"/>
          <path d="m71.59,91.19c.38-1.31,1.48-1.07,2.41-2.79.89-1.64.23-3.43-.19-4.27h.01s-.04-.09-.13-.23c-.09-.16-.14-.24-.14-.24h-.03c-.76-1.02-2.96-3.15-7.07-1.05v.12c-2.14-3.13-7.44-.73-7.44-.73-3.45,4.34.38,7.41.38,7.41" style="fill: #4b5863; stroke-width: 0px;"/>
          <path d="m65.24,78.82s2.46,9.75,2.71,9.79c.25.04,1.61-10.03,1.61-10.03l-4.32.24Z" style="fill: #77b4c6; stroke-width: 0px;"/>
          <polygon points="62.64 75.34 66.75 78.74 64.19 81.72 60.09 76.19 62.64 75.34" style="fill: #9accd8; stroke-width: 0px;"/>
          <polygon points="68.53 78.65 69.1 76.18 70.65 77.54 70.38 80.56 68.53 78.65" style="fill: #9accd8; stroke-width: 0px;"/>
          <path d="m61.79,73.59s-3.79,2.62-2.37,6.28c1.41,3.66.46,4.58.46,4.58,0,0,3.62-1.66,2.87-4.97-.75-3.31.18-3.95.18-3.95l.04-1,.25-.86s-1.2-.45-1.43-.08" style="fill: #edbf7c; stroke-width: 0px;"/>
          <path d="m61.34,67.73s5.7-.52,6.56-2.98c0,0,.85,2.86,3.47,2.24l.11-3.23-2.48-1.76-3.89-.24-3.69,2.14-.62,2.29.54,1.53Z" style="fill: #edbf7c; stroke-width: 0px;"/>
        </g>
        <g>
          <path d="m103.09,65.13c0,4.25-.71,13.45,7.37,13.78,10.04.4,6.89-9.73,6.89-13.98s-3.83-7.49-7.54-7.49-6.72,3.44-6.72,7.69" style="fill: #e1884c; stroke-width: 0px;"/>
          <path d="m118.77,78.69c-1.02-1.55-4.78-3.25-4.78-3.25l-1.06-4.91-2.73,1.08-.02-.23-2.35-.09-.28,4.99s-2.93,1.27-3.94,2.82l1.36,3.98,4.8.98v.49s1.2-.24,1.2-.24l.55.11-.02-.22,4.82-.98,2.46-4.52Z" style="fill: #ffd6bb; stroke-width: 0px;"/>
          <g style="opacity: .82;">
            <g style="clip-path: url(#clippath-6);">
              <path d="m113.2,71.79s-4.97.57-5.46,0l-.23,4.14,6.04-2.54-.35-1.6Z" style="fill: #ffbfa6; stroke-width: 0px;"/>
            </g>
          </g>
          <path d="m104.9,65.51s-1.83,7.6,4.88,7.64c0,0,4.11.04,5.37-3.95l.13-5.77-7.49-4.83-2.82,3.78-.06,3.14Z" style="fill: #ffd6bb; stroke-width: 0px;"/>
          <path d="m114.04,67.18c0,.91.52,1.66,1.17,1.66s1.17-.74,1.17-1.66-.52-1.66-1.17-1.66-1.17.74-1.17,1.66" style="fill: #ffd6bb; stroke-width: 0px;"/>
          <path d="m117.6,140.11c-.28,1.72-2.11,15.51-2.02,16.54.09,1.03,1.94,4.97,1.87,6.13l.04.39-5.23.03s.25-2.07.67-3.43c.42-1.36.14-5.24,0-6.98" style="fill: #ffd6bb; stroke-width: 0px;"/>
          <path d="m104.2,139.9c.28,1.72,1.59,15.6,1.5,16.64-.09,1.03-1.94,4.97-1.87,6.13l-.04.39,5.23.03s-.25-2.07-.67-3.43c-.42-1.36-.42-4.62-.28-6.37" style="fill: #ffd6bb; stroke-width: 0px;"/>
          <path d="m113.22,157.56c-.13-2.08-.41-4.01-.41-4.01,0,0-1.75-12.31-1.34-14.16.41-1.85-1.4-20.74-1.4-20.74l1.46-14.64,5.39,2.01s3.1,4.48,2.68,10.03c-.43,5.56-2.72,19.96-2.72,19.96,0,0,1.19,3.6.93,5.66-.19,1.52-1.49,10.9-2.12,16.2" style="fill: #77b4c6; stroke-width: 0px;"/>
          <path d="m107.97,157.75c.13-2.08.41-4.01.41-4.01,0,0,1.75-12.31,1.34-14.16-.41-1.85.88-20.76.88-20.76l.93-14.81-7.26,2.2s-3.1,4.48-2.68,10.03c.43,5.56,2.72,19.96,2.72,19.96,0,0-1.19,3.6-.93,5.66.19,1.51,1.48,10.82,2.11,16.13" style="fill: #77b4c6; stroke-width: 0px;"/>
          <path d="m103.83,163.94l5.27.06s.31-1.16-.23-2.38c-.49-1.12-4.33-1.07-5.08.16-.75,1.22.04,2.17.04,2.17" style="fill: #4b5863; stroke-width: 0px;"/>
          <path d="m108.09,158.05s1.9,4.95,1.04,5.9c-.23.25-1.15-1.77-1.15-1.77l.11-4.13Z" style="fill: #4b5863; stroke-width: 0px;"/>
          <path d="m105.2,158.13s-2.25,4.82-1.39,5.77c.23.25,1.15-1.77,1.15-1.77l.24-4Z" style="fill: #4b5863; stroke-width: 0px;"/>
          <path d="m111.9,164.12l5.27.06s.31-1.16-.23-2.38c-.49-1.12-4.33-1.06-5.08.16-.75,1.22.04,2.17.04,2.17" style="fill: #4b5863; stroke-width: 0px;"/>
          <path d="m116.04,158.25s2.18,4.74,1.15,5.88c-.23.25-1.15-1.77-1.15-1.77v-4.11Z" style="fill: #4b5863; stroke-width: 0px;"/>
          <path d="m113.18,158.31s-2.16,4.82-1.3,5.77c.23.25,1.15-1.77,1.15-1.77l.14-4Z" style="fill: #4b5863; stroke-width: 0px;"/>
          <polygon points="102.9 82.14 104.29 97.22 104.66 104.57 117.66 104.22 117.34 97.88 118.31 81.94 102.9 82.14" style="fill: #ffd6bb; stroke-width: 0px;"/>
          <path d="m102.66,77.88l1.92,16.19-2.92,18.28,17.64.49-1.67-18.12-1.12-18.16s-2.54,3.39-6.03,3.4c-3.48.01-7.82-2.08-7.82-2.08" style="fill: #4b5863; stroke-width: 0px;"/>
          <path d="m119.95,76.31s1.95,2.22,2.57,3.98c.62,1.76,3.03,15.61,3.03,15.61l-3.62,2.46-4.27-12.07,2.29-9.98Z" style="fill: #9accd8; stroke-width: 0px;"/>
          <path d="m112.8,83.6v18.11s7.01.86,7.15,1.04c.13.18-1.06-9.47-1.06-9.47l-.66-8.25,1.72-8.71s-2.86-1.13-5.91-.77" style="fill: #77b4c6; stroke-width: 0px;"/>
          <path d="m101.66,76.61s-1.99,1.93-2.61,3.68c-.62,1.76-3.03,15.61-3.03,15.61l3.62,2.46,4.11-12.27-2.09-9.49Z" style="fill: #9accd8; stroke-width: 0px;"/>
          <path d="m108.72,83.92v18.12s-7.01.86-7.15,1.04c-.13.18,1.06-9.47,1.06-9.47l.66-8.25-1.72-8.71s2.87-1.13,5.91-.77" style="fill: #77b4c6; stroke-width: 0px;"/>
          <path d="m117.74,90.97c.17-1.42,1.35-1.37,2.02-3.32.64-1.86-.37-3.6-.95-4.39h.01s-.06-.09-.18-.22c-.12-.15-.19-.23-.19-.23h-.03c-.97-.91-3.64-2.73-7.54.17v.12c-2.76-2.87-7.85.57-7.85.57-2.81,5.11,1.72,7.61,1.72,7.61" style="fill: #77b4c6; stroke-width: 0px;"/>
          <path d="m114,75.38l-1.21,8.42,3.09-2.44,1.48-5.68s-.53-.15-1.42-.3c-.91-.16-1.94,0-1.94,0" style="fill: #9accd8; stroke-width: 0px;"/>
          <path d="m107.53,75.87l1.19,8.06-3.07-2.08-1.48-5.68s.53-.15,1.42-.3c.91-.16,1.94,0,1.94,0" style="fill: #9accd8; stroke-width: 0px;"/>
          <path d="m112.78,83.61l.69-4.47c-.87.48-1.89.83-3.01.83-.78,0-1.6-.1-2.41-.26l.65,4.22v18.11s-3.42.42-5.53.73l-1.53,9.58,17.64.49-.96-10.39c-2.11-.31-5.54-.73-5.54-.73v-18.12Z" style="fill: #4b5863; stroke-width: 0px;"/>
          <path d="m109.23,61.62l-.51,2.92s-2.74,1.46-4.04.38l.18-3.37,3.34-3.47,7.19,3.1.09,3.77s-4.79.37-5.03-.49c-.04-.15-1.21-2.84-1.21-2.84" style="fill: #e1884c; stroke-width: 0px;"/>
        </g>
        <g>
          <g>
            <path d="m51.79,108.91s3.02-1.52,2.9-.68c-.12.85-.6,1.03-.6,1.03,0,0,2.42,1.38,2.01,2.65-.42,1.27-1.43,4.42-5.08.81-3.64-3.61.77-3.81.77-3.81" style="fill: #ffdecc; stroke-width: 0px;"/>
            <path d="m36.85,85.55c-1.53,5.25,2.09,15.02,2.57,16.95.48,1.93,10.56,8.97,10.56,8.97l1.81-2.57-8.37-9s-.16-15.02-.67-16.6c-.66-2.01-4.38-3.01-5.91,2.24" style="fill: #9accd8; stroke-width: 0px;"/>
          </g>
          <g>
            <path d="m66.89,94.09s2.01-2.72,2.28-1.91c.28.81-.07,1.19-.07,1.19,0,0,2.79.14,2.99,1.46.2,1.32.71,4.59-4.17,3.01-4.88-1.58-1.03-3.75-1.03-3.75" style="fill: #ffdecc; stroke-width: 0px;"/>
            <path d="m57.77,76.83c-3.99.31-5.45,10.02-5.45,10.02,0,0-1.61,5.91-1.07,7.57.43,1.31,15.19,2.89,15.19,2.89l.42-3.26-10.44-2.89,3.02-6.84s.74-1.94.75-4.42c0-2.48-2.42-3.07-2.42-3.07" style="fill: #5b6977; stroke-width: 0px;"/>
          </g>
          <path d="m77.21,88.74s2.34,1.73,1.65,1.96c-.7.24-1.02-.06-1.02-.06,0,0-.12,2.4-1.26,2.57-1.14.17-4.25,1-2.95-3.22,1.1-3.59,3.59-1.25,3.59-1.25" style="fill: #ffdecc; stroke-width: 0px;"/>
          <path d="m92.8,88.74s-2.34,1.73-1.65,1.96c.7.24,1.02-.06,1.02-.06,0,0,.12,2.4,1.26,2.57,1.14.17,4.25,1,2.95-3.22-1.1-3.59-3.59-1.25-3.59-1.25" style="fill: #ffdecc; stroke-width: 0px;"/>
          <path d="m117.71,88.74s-2.34,1.73-1.65,1.96c.7.24,1.02-.06,1.02-.06,0,0,.12,2.4,1.26,2.57,1.14.17,4.25,1,2.95-3.22-1.1-3.59-3.59-1.25-3.59-1.25" style="fill: #ffdecc; stroke-width: 0px;"/>
          <path d="m166.16,108.27s-3.12-1.3-2.94-.46c.18.84.67.98.67.98,0,0-2.32,1.56-1.81,2.79.51,1.24,1.76,4.3,5.12.43,3.37-3.87-1.05-3.74-1.05-3.74" style="fill: #ffdecc; stroke-width: 0px;"/>
          <path d="m138.18,88.96s-2.66,1.17-2.04,1.56c.63.38,1.01.16,1.01.16,0,0-.41,2.37.66,2.78,1.07.42,3.92,1.9,3.59-2.5-.29-3.75-3.23-2.01-3.23-2.01" style="fill: #ffdecc; stroke-width: 0px;"/>
          <path d="m150.16,88.76s-2.34,1.73-1.65,1.97c.7.24,1.03-.06,1.03-.06,0,0,.12,2.4,1.26,2.57,1.14.17,4.25,1,2.95-3.22-1.1-3.59-3.59-1.25-3.59-1.25" style="fill: #ffdecc; stroke-width: 0px;"/>
          <path d="m103.54,88.76s2.34,1.73,1.65,1.97c-.7.24-1.02-.06-1.02-.06,0,0-.12,2.4-1.26,2.57-1.14.17-4.25,1-2.95-3.22,1.1-3.59,3.59-1.25,3.59-1.25" style="fill: #ffdecc; stroke-width: 0px;"/>
        </g>
      </g>
    </g>
  </g>
</svg>