<?xml version="1.0" encoding="UTF-8"?>
<svg id="_圖層_2" data-name="圖層 2" xmlns="http://www.w3.org/2000/svg" width="218.01" height="218.02" viewBox="0 0 218.01 218.02">
  <g id="_圖層_8" data-name="圖層 8">
    <g id="Topic_exploration5">
      <g>
        <path d="m109.01,0c-1.59,0-3.21.03-4.8.1l.35,8c.38-.02.77-.03,1.15-.04,0,0,0,0,.01,0,0,0,.02,0,.02,0,0,0,.01,0,.02,0,0,0,.01,0,.02,0,0,0,.01,0,.02,0,0,0,.01,0,.02,0,.01,0,.01,0,.02,0,0,0,0,0,0,0,.03,0,.06,0,.1,0,0,0,0,0,0,0,.01,0,.02,0,.03,0,0,0,0,0,0,0,.64-.02,1.27-.03,1.91-.04,0,0,0,0,0,0,.01,0,.02,0,.03,0,0,0,0,0,0,0,.01,0,.02,0,.03,0,0,0,0,0,0,0,.04,0,.09,0,.13,0h0s.02,0,.03,0c0,0,0,0,0,0,0,0,.02,0,.03,0,0,0,0,0,.01,0,0,0,.02,0,.02,0,0,0,0,0,.01,0,.01,0,.02,0,.03,0,0,0,0,0,0,0,.02,0,.04,0,.06,0,0,0,0,0,0,0,0,0,.02,0,.03,0,0,0,0,0,.01,0,0,0,.02,0,.02,0,0,0,.01,0,.02,0,0,0,.01,0,.02,0h.02s.01,0,.02,0c0,0,.01,0,.02,0,0,0,.01,0,.02,0,0,0,.02,0,.02,0,0,0,.01,0,.02,0,.01,0,.02,0,.03,0h.02s.02,0,.02,0c0,0,.01,0,.02,0h.02s0,0,.02,0h.02s0,0,.02,0c0,0,.02,0,.03,0h.04s0,0,.01,0h.03s.01,0,.01,0h.08s.01,0,.02,0h.09V0h0Zm-7.67.27c-1.59.11-3.2.26-4.78.44l.91,7.96c.83-.09,1.66-.18,2.49-.25h0s.02,0,.04,0h0s.02,0,.03,0h0s.02,0,.03,0h0s.02,0,.03,0c0,0,0,0,0,0,.03,0,.05,0,.08,0,0,0,0,0,.01,0,0,0,.02,0,.03,0,0,0,.01,0,.01,0,0,0,.01,0,.02,0,0,0,.01,0,.02,0,0,0,.01,0,.02,0,0,0,.02,0,.02,0,0,0,0,0,.01,0,0,0,.01,0,.02,0,0,0,0,0,.01,0,.03,0,.06,0,.09,0,0,0,0,0,0,0,0,0,.02,0,.03,0,0,0,0,0,0,0,.01,0,.02,0,.03,0,0,0,0,0,0,0,.01,0,.02,0,.03,0,0,0,0,0,0,0,.44-.04.88-.07,1.32-.1l-.56-7.99h0Zm-7.64.8c-1.58.22-3.17.48-4.74.77l1.46,7.87c1.45-.27,2.92-.51,4.39-.72l-1.12-7.93h0Zm-7.57,1.34c-1.56.33-3.13.71-4.67,1.11l2.02,7.75c1.05-.27,2.1-.53,3.16-.77,0,0,0,0,.01,0,0,0,.01,0,.02,0,0,0,.01,0,.02,0,0,0,.01,0,.02,0,0,0,.01,0,.02,0,0,0,0,0,.02,0,0,0,.02,0,.02,0,0,0,0,0,.01,0,0,0,.02,0,.02,0,0,0,0,0,.01,0,.33-.07.66-.15.99-.22l-1.67-7.83h0Zm-7.45,1.87c-1.53.44-3.07.93-4.58,1.44l2.56,7.59c.51-.17,1.02-.34,1.54-.51,0,0,0,0,.01,0,.02,0,.04-.01.06-.02,0,0,.02,0,.02,0,.01,0,.02,0,.04-.01.01,0,.02,0,.04-.01,0,0,.01,0,.02,0,.02,0,.04-.01.05-.02,0,0,.01,0,.02,0,.02,0,.03-.01.05-.02,0,0,0,0,.01,0,.02,0,.04-.01.06-.02,0,0,0,0,0,0,.77-.24,1.55-.48,2.33-.7l-2.22-7.69h0Zm-7.3,2.4c-1.5.55-3,1.14-4.47,1.76l3.1,7.39c.75-.31,1.5-.62,2.25-.91h0s.04-.02.06-.02c0,0,0,0,0,0,.02,0,.04-.01.06-.02,0,0,0,0,.01,0,.02,0,.04-.01.05-.02,0,0,.01,0,.02,0,.01,0,.03-.01.04-.02,0,0,.02,0,.03-.01,0,0,.03-.01.03-.01.01,0,.02,0,.04-.01.01,0,.02,0,.03-.01.01,0,.02,0,.03-.01,0,0,0,0,.01,0,.02,0,.04-.02.06-.02h0c.47-.18.94-.36,1.41-.53l-2.76-7.52h0Zm-7.11,2.91c-1.45.65-2.91,1.35-4.33,2.07l3.61,7.15c.14-.07.29-.15.43-.22h0s.04-.02.06-.03c0,0,0,0,0,0,.02-.01.03-.02.05-.03,0,0,0,0,0,0,.02,0,.04-.02.06-.03,0,0,0,0,0,0,.02,0,.03-.02.05-.02,0,0,0,0,.01,0,.02,0,.03-.02.05-.02,0,0,.01,0,.02,0,.01,0,.03-.02.05-.02,0,0,.01,0,.02,0,.01,0,.03-.02.04-.02,0,0,.01,0,.02,0,.01,0,.03-.01.04-.02,0,0,.02,0,.02-.01.01,0,.02-.01.03-.02.01,0,.02-.01.03-.02,0,0,.02-.01.03-.02,0,0,.02,0,.03-.01.01,0,.02-.01.04-.02,0,0,.02,0,.02-.01.01,0,.03-.01.04-.02,0,0,.02,0,.02-.01.01,0,.02-.01.03-.02l.03-.02s.02,0,.03-.01c.01,0,.03-.01.04-.02,0,0,.02,0,.03-.01.01,0,.02-.01.04-.02,0,0,.02-.01.03-.01,0,0,.02,0,.03-.01.01,0,.03-.01.04-.02,0,0,.02,0,.03-.01.01,0,.03-.01.04-.02,0,0,.02,0,.03-.01.01,0,.02,0,.03-.01.01,0,.02-.01.03-.02,0,0,.02,0,.03-.01.01,0,.02-.01.03-.02,0,0,.02-.01.03-.01.01,0,.02-.01.03-.02.01,0,.02-.01.03-.02,0,0,.02,0,.02-.01.01,0,.03-.01.04-.02,0,0,.02,0,.03-.01.01,0,.02-.01.04-.02,0,0,.02,0,.03-.01,0,0,.02-.01.03-.01.01,0,.02-.01.03-.02,0,0,.02,0,.03-.01.01,0,.02,0,.03-.01.01,0,.02-.01.04-.02,0,0,.02,0,.02-.01.01,0,.03-.01.04-.02,0,0,.01,0,.02-.01.01,0,.03-.01.04-.02,0,0,.01,0,.02,0,.01,0,.03-.01.04-.02,0,0,.01,0,.02-.01.01,0,.03-.01.04-.02h.02s.03-.02.04-.03c0,0,.01,0,.02,0,.01,0,.03-.01.05-.02,0,0,.01,0,.02,0,.02,0,.03-.01.05-.02,0,0,.01,0,.02,0,.01,0,.03-.02.05-.02,0,0,0,0,.01,0,.01,0,.03-.02.05-.02,0,0,0,0,.01,0,.01,0,.04-.02.05-.02,0,0,0,0,.01,0,.02,0,.04-.02.05-.02,0,0,0,0,.01,0,.02,0,.04-.02.05-.02,0,0,0,0,.01,0,.02,0,.03-.02.05-.03,0,0,0,0,0,0,.02,0,.04-.02.06-.03,0,0,0,0,0,0,.02,0,.04-.02.06-.03,0,0,0,0,0,0,.02,0,.04-.02.06-.03,0,0,0,0,0,0,.02,0,.04-.02.06-.03,0,0,0,0,0,0,.02,0,.04-.02.06-.03,0,0,0,0,0,0,.02,0,.04-.02.06-.03,0,0,0,0,0,0,.04-.02.08-.04.12-.06,0,0,0,0,0,0,.02,0,.04-.02.06-.03,0,0,0,0,0,0,.02,0,.04-.02.06-.03,0,0,0,0,0,0,.08-.04.17-.08.25-.11,0,0,0,0,0,0,.02,0,.04-.02.06-.03,0,0,0,0,0,0,.02,0,.04-.02.06-.03,0,0,0,0,0,0,.02,0,.04-.02.06-.03l-3.29-7.3h0Zm-6.89,3.4c-1.4.76-2.81,1.55-4.18,2.37l4.11,6.88c1.16-.69,2.34-1.36,3.53-2.01,0,0,0,0,0,0,.02,0,.03-.02.05-.03,0,0,.01,0,.02-.01.01,0,.02-.01.04-.02.01,0,.02,0,.03-.02,0,0,.02,0,.02-.01.01,0,.03-.02.04-.02,0,0,.01,0,.02,0,.01,0,.03-.02.05-.03,0,0,0,0,.01,0,.02,0,.04-.02.05-.03,0,0,0,0,0,0l-3.8-7.05h0Zm-6.63,3.88c-1.35.85-2.69,1.75-4,2.66l4.58,6.57s.01,0,.02-.01c0,0,.02-.01.02-.02.01,0,.02-.01.03-.02.01,0,.02-.01.03-.02,0,0,.01,0,.02-.01.01,0,.03-.02.04-.03,0,0,.01,0,.02-.01.02-.01.03-.02.04-.03,0,0,0,0,.01,0,.02-.01.03-.02.05-.03,0,0,0,0,0,0,.02-.01.03-.02.05-.03,0,0,0,0,0,0,.04-.03.07-.05.11-.08,0,0,0,0,0,0,.02-.01.04-.03.06-.04,0,0,0,0,0,0,.02-.01.04-.03.06-.04,0,0,0,0,0,0,.65-.44,1.3-.88,1.96-1.31,0,0,0,0,0,0,.02-.01.04-.02.05-.03,0,0,0,0,0,0,.02-.01.03-.02.05-.03,0,0,0,0,.01,0,.02-.01.03-.02.05-.03,0,0,0,0,.01,0,.01,0,.03-.02.04-.03,0,0,.01,0,.02-.01.01,0,.02-.01.03-.02,0,0,.01,0,.02-.01.01,0,.02-.01.04-.02,0,0,.02-.01.02-.02.01,0,.02-.02.03-.02,0,0,.02-.01.03-.02,0,0,.01,0,.02-.01.02-.01.03-.02.05-.03,0,0,0,0,0,0,.02-.01.04-.02.06-.04h0c.2-.13.41-.26.62-.4l-4.29-6.77h0Zm-6.34,4.34c-1.28.94-2.56,1.93-3.8,2.93l5.03,6.23c.29-.23.58-.46.87-.69,0,0,0,0,0,0,.01-.01.04-.03.05-.04,0,0,0,0,0,0,.02-.01.03-.02.05-.04,0,0,0,0,0,0,.01-.01.03-.03.05-.04,0,0,0,0,0,0,.01-.01.03-.03.05-.04,0,0,0,0,0,0,.01-.01.03-.02.05-.04,0,0,0,0,0,0,.01,0,.03-.02.04-.03,0,0,0,0,.01,0,.01-.01.03-.02.04-.03,0,0,0,0,.01-.01.01-.01.03-.02.04-.03,0,0,.01,0,.02-.01.01,0,.03-.02.04-.03,0,0,.01,0,.02-.01.01,0,.03-.02.04-.03,0,0,.01,0,.02-.01.01,0,.02-.02.03-.03,0,0,.01-.01.02-.02.01,0,.02-.02.03-.02,0,0,.02-.01.02-.02.01,0,.02-.02.03-.02,0,0,.01-.01.02-.02.01,0,.02-.02.03-.03,0,0,.02-.01.02-.02,0,0,.02-.02.03-.03,0,0,.02-.01.02-.02.01,0,.01-.01.02-.02.01,0,.02-.02.03-.03,0,0,.01,0,.02-.02.01,0,.03-.02.04-.03,0,0,.01-.01.02-.01.01,0,.03-.02.04-.03,0,0,.01,0,.02-.01l.04-.03s.01-.01.02-.01l.03-.02s.01-.01.02-.02c.01,0,.02-.02.04-.03,0,0,.01,0,.01-.01.01-.01.03-.02.04-.03,0,0,0,0,.01-.01.02-.01.03-.02.05-.04,0,0,0,0,0,0,.02-.01.03-.03.05-.04,0,0,0,0,0,0,.07-.05.14-.11.21-.16h0c.36-.27.72-.55,1.09-.81l-4.75-6.45h0Zm-6.02,4.77c-1.21,1.03-2.42,2.11-3.59,3.19l5.45,5.87c.87-.81,1.76-1.61,2.66-2.39h0s.04-.03.05-.05h0s.03-.03.05-.05c0,0,0,0,0,0,.01-.01.03-.03.04-.04,0,0,0,0,.01-.01,0,0,.02-.01.03-.02,0,0,.02-.02.03-.03,0,0,.01-.01.02-.02.01-.01.02-.02.03-.03,0,0,.01,0,.02-.01.01-.01.02-.02.03-.03,0,0,0,0,.01-.01.01-.01.03-.02.04-.03,0,0,0,0,0,0,.01-.01.03-.03.05-.04h0s.03-.03.05-.05c0,0,0,0,0,0,.05-.05.11-.09.16-.14l-5.19-6.1h0Zm-5.67,5.18c-1.14,1.11-2.27,2.27-3.35,3.43l5.85,5.47c.78-.83,1.56-1.65,2.37-2.45,0,0,0,0,0,0,.02-.02.03-.03.05-.05h0s.03-.03.04-.05c0,0,0,0,0,0,.01-.01.03-.03.04-.04,0,0,0,0,.01-.01.01-.01.02-.02.03-.03,0,0,.01-.01.02-.02,0,0,.02-.02.03-.03,0,0,.01-.01.02-.02.01-.01.02-.02.03-.03,0,0,.02-.02.02-.02,0,0,0,0,0,0,.02-.02.03-.03.05-.05h0s.03-.04.05-.05h0c.11-.11.22-.21.33-.32l-5.61-5.72h0Zm-5.29,5.56c-1.06,1.19-2.1,2.42-3.11,3.66l6.22,5.05s.04-.05.06-.07c0,0,0,0,0-.01l.04-.04s.01-.02.02-.03c0,0,.01-.02.02-.02,0-.01.02-.02.03-.03,0,0,0-.01.01-.02.01-.01.02-.03.03-.04,0,0,0,0,0,0,.01-.01.03-.03.04-.05,0,0,0,0,0,0,.01-.02.03-.03.04-.05,0,0,0,0,0,0,.01-.02.03-.03.04-.05,0,0,0,0,0,0,.34-.41.68-.82,1.02-1.23,0,0,0,0,0,0,.01-.02.03-.03.04-.05,0,0,0,0,0,0,.01-.02.03-.03.04-.05,0,0,0,0,0,0,.01-.02.03-.03.04-.05,0,0,0,0,0,0,.01-.02.03-.03.04-.05,0,0,0,0,0,0,.01-.01.03-.03.04-.04,0,0,0,0,0-.01.01-.01.02-.03.04-.04,0,0,0,0,.01-.01.01-.01.02-.03.03-.04,0,0,0-.01.01-.02.01-.01.02-.03.03-.04,0,0,0-.01.01-.02,0,0,.02-.02.02-.03l.02-.03s.01-.01.02-.02c0-.01.02-.02.03-.03,0,0,.01-.01.02-.02,0-.01.02-.02.03-.03,0,0,.01-.02.02-.02.02-.03.05-.05.07-.08,0,0,0,0,0,0,.01-.02.03-.03.04-.05,0,0,0,0,0,0,.01-.02.03-.03.04-.05h0c.26-.31.53-.61.8-.92l-5.99-5.31h0Zm-4.89,5.92c-.97,1.26-1.93,2.57-2.84,3.87l6.56,4.6c.85-1.22,1.73-2.41,2.63-3.59l-6.35-4.88h0Zm-4.46,6.25c-.88,1.33-1.74,2.69-2.56,4.06l6.87,4.12c.14-.24.29-.48.43-.71,0,0,0,0,0,0,.01-.02.02-.04.04-.06,0,0,0,0,0,0,.01-.02.02-.04.03-.06,0,0,0,0,0,0,.01-.02.02-.04.04-.06,0,0,0,0,0,0,.02-.04.05-.08.07-.12,0,0,0,0,0,0,.01-.02.02-.04.03-.05,0,0,0,0,0,0,0-.02.02-.04.03-.05,0,0,0,0,0,0,.01-.02.02-.03.03-.05h0s.02-.04.03-.06h0s.02-.04.03-.06c0,0,0,0,0,0,.01-.02.02-.03.03-.05,0,0,0,0,0,0l.03-.05s0,0,0-.01c.01-.02.02-.03.03-.05,0,0,0,0,0,0,.01-.02.02-.03.03-.05,0,0,0,0,0-.01.01-.02.02-.03.03-.05,0,0,0,0,0,0,.01-.02.02-.03.03-.05,0,0,0,0,0-.01.01-.02.02-.03.03-.05,0,0,0,0,0-.01,0-.01.02-.03.03-.05v-.02s.03-.03.04-.04c0,0,0-.01.01-.02,0-.01.02-.03.03-.04,0,0,0-.01.01-.02,0-.01.02-.03.03-.04,0,0,0-.01,0-.02,0-.01.02-.03.03-.04h0s.02-.04.03-.06c0,0,0,0,0-.01,0-.01.02-.03.03-.04,0,0,0-.01.01-.02.01-.02.02-.03.03-.04,0,0,0-.01,0-.02,0-.01.02-.03.03-.05,0,0,0,0,0-.01,0-.01.02-.03.03-.04,0,0,0,0,0-.01,0-.01.02-.03.03-.04,0,0,0,0,0-.01.01-.02.02-.03.03-.05,0,0,0,0,0-.01.01-.02.02-.03.03-.05,0,0,0,0,0-.01.01-.02.02-.03.03-.05,0,0,0,0,0-.01.01-.02.02-.03.03-.05,0,0,0,0,0-.01.01-.02.02-.03.03-.05,0,0,0,0,0,0,.01-.02.02-.03.03-.05,0,0,0,0,0,0,.01-.02.02-.03.03-.05,0,0,0,0,0-.01.01-.02.02-.03.03-.05,0,0,0,0,0-.01.01-.02.02-.03.03-.05,0,0,0,0,0,0,.01-.02.02-.04.03-.05,0,0,0,0,0,0,.02-.04.05-.08.07-.11h0s.02-.04.04-.06c0,0,0,0,0,0,.01-.02.02-.04.04-.06,0,0,0,0,0,0,.13-.19.25-.39.38-.58l-6.68-4.42h0Zm-4.01,6.55c-.78,1.39-1.55,2.81-2.27,4.23l7.14,3.63h0c.45-.89.92-1.77,1.39-2.65h0s.02-.04.03-.06c0,0,0,0,0,0,.03-.06.07-.12.1-.18,0,0,0,0,0,0,.01-.02.02-.04.03-.06,0,0,0,0,0,0,0-.02.02-.04.03-.06,0,0,0,0,0,0,.01-.02.02-.04.03-.06,0,0,0,0,0,0,.03-.06.07-.12.1-.18h0s.02-.04.03-.06c0,0,0,0,0,0,.11-.2.23-.4.34-.61l-6.97-3.94h0Zm-3.54,6.82c-.68,1.44-1.35,2.91-1.97,4.38l7.38,3.12c.58-1.37,1.18-2.72,1.82-4.06l-7.23-3.44h0Zm-3.05,7.05c-.58,1.48-1.14,3-1.65,4.51l7.58,2.58c.03-.1.07-.2.1-.3h0s.01-.04.02-.06c0,0,0-.01,0-.02,0-.01,0-.02.01-.03,0-.01,0-.02.01-.04,0,0,0-.02,0-.03,0-.02,0-.03.01-.04,0,0,0-.02,0-.02,0-.01.01-.03.02-.04,0,0,0-.01,0-.02,0-.02.01-.03.02-.05h0s.01-.05.02-.07c0,0,0,0,0,0,0-.02.01-.04.02-.06,0,0,0,0,0,0,0-.02.01-.04.02-.06,0,0,0,0,0,0,.26-.74.53-1.48.81-2.22,0,0,0,0,0,0,0-.02.02-.04.02-.06,0,0,0,0,0,0,0-.02.02-.04.02-.06,0,0,0,0,0,0,0-.02.02-.04.02-.06,0,0,0,0,0,0,0-.02.01-.04.02-.06,0,0,0,0,0-.01,0-.02.01-.03.02-.05,0,0,0-.01,0-.02,0-.02.01-.03.02-.05,0,0,0-.01,0-.02,0-.01,0-.02.01-.04,0-.01,0-.02.01-.03,0,0,0-.02.01-.03,0-.02.01-.03.02-.05,0,0,0-.01,0-.02.07-.18.14-.36.21-.54l-7.46-2.92h0Zm-2.54,7.25c-.47,1.52-.92,3.08-1.33,4.62l7.74,2.04c.38-1.44.79-2.86,1.23-4.28l-7.65-2.38h0Zm-2.02,7.41c-.36,1.55-.7,3.13-1,4.7l7.87,1.49c.05-.26.1-.51.15-.77h0s0-.03,0-.04h0s0-.02,0-.04h0s0-.02,0-.03c0,0,0,0,0-.01,0,0,0-.01,0-.02,0-.01,0-.02,0-.04,0,0,0,0,0-.01,0,0,0-.02,0-.02,0,0,0,0,0-.01,0,0,0-.02,0-.03,0,0,0,0,0,0,0,0,0-.02,0-.03,0,0,0,0,0,0,0,0,0-.02,0-.03,0,0,0,0,0,0,.15-.77.32-1.54.49-2.31,0,0,0,0,0,0,0-.02.01-.05.02-.07h0c.02-.09.04-.18.06-.27h0c.05-.2.09-.41.14-.61l-7.8-1.83h0Zm-1.49,7.54c-.25,1.57-.48,3.17-.66,4.76l7.95.93c.07-.63.15-1.27.24-1.9,0,0,0,0,0,0,0,0,0-.02,0-.03h0s0-.03,0-.04c0,0,0,0,0,0,0,0,0-.02,0-.03,0,0,0,0,0,0,0-.04.01-.08.02-.13,0,0,0,0,0-.01,0,0,0-.01,0-.02,0,0,0,0,0-.01,0,0,0-.01,0-.02,0,0,0-.01,0-.02,0,0,0-.01,0-.02,0,0,0,0,0-.01,0,0,0-.01,0-.02,0,0,0,0,0-.01,0-.04.01-.08.02-.12,0,0,0,0,0-.01,0,0,0-.01,0-.02,0,0,0,0,0-.01,0,0,0-.01,0-.02,0,0,0-.01,0-.02,0,0,0-.01,0-.02,0,0,0-.01,0-.02,0,0,0-.01,0-.02,0,0,0,0,0-.01,0,0,0-.02,0-.02,0,0,0,0,0,0,0-.02,0-.04,0-.06,0,0,0,0,0,0,0,0,0-.02,0-.03,0,0,0,0,0,0,0,0,0-.01,0-.02,0,0,0,0,0-.01,0,0,0-.01,0-.02,0,0,0-.01,0-.02,0,0,0-.02,0-.02,0,0,0,0,0-.01,0,0,0-.02,0-.03,0,0,0,0,0,0,0-.05.02-.11.02-.16,0,0,0,0,0,0,0,0,0-.02,0-.03,0,0,0,0,0,0,0,0,0-.02,0-.03,0,0,0,0,0,0,.07-.44.13-.89.21-1.33l-7.91-1.28h0Zm-.96,7.62c-.14,1.58-.25,3.2-.33,4.79l8,.37c.03-.72.07-1.45.12-2.16,0,0,0,0,0,0v-.03s0,0,0-.01c0,0,0-.02,0-.03,0,0,0,0,0-.02v-.02s0-.01,0-.02c0,0,0-.01,0-.02,0-.04,0-.08,0-.13,0,0,0,0,0,0,0-.01,0-.02,0-.03,0,0,0,0,0,0,0-.01,0-.02,0-.03,0,0,0,0,0,0,.04-.63.1-1.27.15-1.9,0,0,0,0,0,0,0,0,0-.02,0-.02h0s-7.98-.73-7.98-.73H.44Zm-.42,7.66c-.01.74-.02,1.47-.02,2.21,0,.86.01,1.72.03,2.58l8.01-.19c0-.2,0-.4-.01-.59,0,0,0,0,0,0,0,0,0-.02,0-.02,0,0,0-.01,0-.02,0,0,0-.01,0-.02,0,0,0-.02,0-.02,0,0,0,0,0-.01,0-.01,0-.02,0-.03h0s0-.03,0-.04h0c0-.43-.01-.85-.01-1.27h0s0-.03,0-.04c0,0,0,0,0,0,0-.01,0-.02,0-.03,0,0,0,0,0,0,0,0,0-.02,0-.03h0s0-.03,0-.04c0,0,0,0,0-.01,0,0,0-.02,0-.03h0s0-.03,0-.04h0v-.05s0-.02,0-.03h0v-.05h0v-.06h0s0-.05,0-.07c0,0,0,0,0-.01,0-.02,0-.03,0-.05v-.02s0-.03,0-.05c0,0,0-.01,0-.02,0-.01,0-.02,0-.04v-.02s0-.03,0-.05c0,0,0-.02,0-.03,0-.01,0-.02,0-.03,0-.02,0-.03,0-.05,0,0,0-.01,0-.02,0-.01,0-.02,0-.03h0s0-.05,0-.08h0c0-.45,0-.89.02-1.34,0-.01,0-.02,0-.03,0,0,0-.02,0-.02,0-.02,0-.04,0-.05,0,0,0,0,0,0l-8.01-.16H.02Zm8.11,7.28l-8,.4c.08,1.59.19,3.2.34,4.79l7.97-.74c-.03-.34-.06-.69-.09-1.03,0,0,0,0,0,0,0,0,0-.02,0-.03,0,0,0,0,0,0,0-.01,0-.02,0-.03,0,0,0-.01,0-.02,0,0,0-.02,0-.02,0,0,0-.02,0-.03,0,0,0,0,0,0,0-.01,0-.03,0-.04h0s0-.03,0-.04h0s0-.03,0-.04h0c-.08-1.05-.15-2.09-.2-3.15h0Zm.6,7.09l-7.95.95c.19,1.58.42,3.18.68,4.75l7.9-1.3c-.24-1.46-.45-2.93-.63-4.41h0Zm1.1,7.03l-7.86,1.51c.3,1.57.64,3.15,1.01,4.7l7.79-1.86c-.11-.45-.21-.89-.31-1.34h0s0-.03,0-.04h0s-.01-.05-.02-.08c0,0,0,0,0,0,0,0,0-.02,0-.03,0,0,0-.02,0-.02,0,0,0-.01,0-.02,0,0,0-.01,0-.02,0,0,0,0,0-.01,0,0,0-.02,0-.02,0,0,0,0,0,0,0,0,0-.02,0-.03,0,0,0,0,0,0-.2-.9-.39-1.81-.56-2.72h0Zm1.59,6.94l-7.74,2.07c.41,1.54.86,3.09,1.34,4.61l7.64-2.41c-.21-.68-.42-1.37-.62-2.06,0,0,0,0,0,0,0-.02-.01-.04-.02-.06h0s-.01-.05-.02-.07c0,0,0,0,0,0,0-.02-.01-.04-.02-.06,0,0,0,0,0,0,0-.02-.01-.04-.02-.06,0,0,0,0,0-.01,0-.02-.01-.04-.02-.06,0,0,0,0,0-.01,0-.02-.01-.04-.02-.06h0s-.01-.05-.02-.07c0,0,0,0,0-.01,0-.02,0-.03-.01-.05v-.02s-.01-.03-.02-.05c0,0,0-.01,0-.02,0-.02,0-.03-.01-.05,0,0,0-.01,0-.02,0-.02,0-.03-.01-.05,0,0,0-.02,0-.03,0-.01,0-.02,0-.03,0-.01,0-.02-.01-.04,0,0,0-.02,0-.03v-.04s-.02-.02-.02-.03c0-.01,0-.02,0-.03,0,0,0-.02,0-.03,0-.02,0-.03-.01-.05,0,0,0-.01,0-.01,0-.02-.01-.04-.02-.06,0,0,0,0,0-.01,0-.02-.01-.04-.02-.07h0c-.02-.07-.03-.13-.05-.19h0s-.01-.05-.02-.08h0c-.07-.26-.14-.51-.21-.77h0Zm2.08,6.81l-7.57,2.61c.52,1.51,1.08,3.02,1.67,4.51l7.45-2.94c-.54-1.38-1.06-2.77-1.54-4.17h0Zm2.56,6.64l-7.37,3.14c.62,1.47,1.29,2.94,1.98,4.38l7.22-3.46c-.21-.44-.42-.88-.62-1.32,0,0,0,0,0,0,0-.02-.02-.04-.03-.06,0,0,0,0,0,0,0-.02-.02-.04-.03-.06,0,0,0,0,0,0,0-.02-.02-.04-.03-.06,0,0,0,0,0,0,0-.02-.02-.03-.02-.05,0,0,0,0,0-.01,0-.02-.02-.03-.02-.05,0,0,0-.01,0-.02,0-.02-.01-.03-.02-.05,0,0,0-.01,0-.02,0-.01-.01-.03-.02-.04,0,0,0-.02-.01-.02,0-.01,0-.02-.01-.03,0-.01-.01-.02-.02-.04,0,0,0-.02-.01-.02,0-.02-.01-.03-.02-.05,0,0,0-.01,0-.02,0-.02-.02-.04-.03-.06,0,0,0,0,0,0-.31-.68-.61-1.37-.9-2.06h0Zm3.02,6.44l-7.13,3.65c.73,1.42,1.5,2.84,2.29,4.22l6.96-3.97s0,0,0-.01c0-.01-.01-.02-.02-.04,0-.01-.01-.02-.02-.03,0,0,0-.02-.01-.02,0-.02-.02-.03-.03-.05,0,0,0-.01,0-.01-.5-.88-.99-1.77-1.46-2.67h0s-.02-.04-.03-.06c0,0,0,0,0,0,0-.02-.02-.04-.03-.05,0,0,0,0,0-.01l-.02-.03s-.01-.03-.02-.04c0,0,0-.02-.01-.02,0-.01-.01-.03-.02-.04,0,0,0-.01-.01-.02,0-.01-.01-.03-.02-.04,0,0,0,0,0-.01,0-.02-.02-.03-.03-.05,0,0,0,0,0-.01-.01-.02-.02-.04-.03-.05,0,0,0,0,0,0-.01-.02-.02-.04-.03-.06,0,0,0,0,0,0-.1-.18-.19-.37-.29-.56h0Zm3.47,6.21l-6.85,4.15c.83,1.36,1.69,2.73,2.58,4.05l6.66-4.45c-.33-.5-.66-1-.99-1.51,0,0,0,0,0,0-.01-.02-.02-.04-.04-.06,0,0,0,0,0,0-.01-.02-.02-.03-.03-.05,0,0,0,0,0,0-.01-.02-.02-.03-.03-.05,0,0,0,0,0,0-.01-.02-.02-.04-.03-.05,0,0,0,0,0,0-.01-.02-.02-.03-.03-.05,0,0,0,0,0,0-.01-.02-.02-.03-.03-.05,0,0,0,0,0-.01-.01-.02-.02-.03-.03-.05,0,0,0,0,0-.01-.01-.02-.02-.03-.03-.05,0,0,0,0,0-.01-.01-.02-.02-.03-.03-.05,0,0,0,0,0-.01,0-.01-.02-.03-.03-.04,0,0,0,0,0-.01,0-.01-.02-.03-.03-.04,0,0,0,0,0-.01,0-.01-.02-.03-.03-.04,0,0,0-.01-.01-.02-.01-.02-.02-.03-.03-.04,0,0,0-.01-.01-.02,0-.01-.02-.03-.03-.04,0,0,0-.01-.01-.02-.01-.02-.02-.03-.03-.04,0,0,0,0,0-.01,0-.01-.02-.03-.02-.04,0,0,0-.01-.01-.02,0-.01-.02-.03-.03-.04,0,0,0-.01,0-.01,0-.01-.02-.03-.03-.04,0,0,0-.01-.01-.02-.01-.02-.02-.03-.03-.04,0,0,0-.01-.01-.02,0-.01-.02-.03-.03-.04,0,0,0-.01-.01-.02,0-.01-.02-.03-.02-.04,0,0,0-.01-.01-.02,0-.01-.01-.02-.02-.03,0,0-.01-.02-.02-.02,0-.01-.01-.02-.02-.04,0,0,0-.01-.01-.02,0-.01-.02-.03-.03-.04,0,0,0-.01-.01-.02-.01-.02-.02-.03-.03-.04,0,0,0-.01-.01-.02,0-.01-.02-.03-.03-.04,0,0,0-.01-.01-.02,0-.01-.02-.03-.03-.04,0,0,0-.01-.01-.02,0-.01-.02-.02-.02-.04,0,0,0-.01-.01-.02,0-.01-.02-.03-.02-.04,0,0,0-.01-.01-.02,0-.01-.02-.03-.03-.04,0,0,0-.01-.01-.02,0-.02-.02-.03-.03-.04,0,0,0-.01-.01-.02,0-.01-.02-.03-.03-.04,0,0,0-.01-.01-.02,0-.01-.02-.03-.02-.04,0,0,0-.01-.01-.02,0-.01-.02-.03-.02-.04,0,0,0-.01-.01-.02,0-.02-.02-.03-.03-.04,0,0,0-.01,0-.02,0-.01-.02-.03-.03-.05,0,0,0-.01,0-.02,0-.02-.02-.03-.03-.05,0,0,0-.01,0-.02,0-.01-.02-.03-.03-.05,0,0,0,0,0,0h0Zm3.9,5.95l-6.54,4.62c.92,1.3,1.88,2.6,2.85,3.86l6.33-4.9c-.58-.75-1.15-1.51-1.71-2.27,0,0,0,0,0,0-.01-.02-.02-.03-.04-.05,0,0,0,0,0,0-.01-.02-.02-.03-.03-.05,0,0,0,0,0-.01,0-.01-.02-.03-.03-.04,0,0,0,0-.01-.01-.01-.02-.02-.02-.03-.04,0,0,0-.01-.01-.02,0-.01-.02-.02-.02-.03,0,0-.01-.02-.02-.03,0,0-.01-.02-.02-.03,0-.01-.02-.02-.03-.04,0,0-.01-.01-.01-.02-.02-.03-.04-.06-.06-.09,0,0,0,0,0,0-.01-.02-.03-.04-.04-.06h0c-.18-.26-.37-.52-.55-.77h0Zm4.31,5.67l-6.2,5.07c1.01,1.23,2.06,2.46,3.12,3.65l5.97-5.33c-.05-.06-.1-.11-.15-.17,0,0-.01-.01-.02-.02l-.02-.03s-.02-.02-.03-.03c0,0,0,0-.01-.01-.01-.01-.03-.03-.04-.04,0,0,0,0,0,0-.01-.01-.03-.03-.04-.05,0,0,0,0,0,0-.01-.02-.03-.03-.04-.05,0,0,0,0,0,0-.54-.61-1.06-1.22-1.59-1.84,0,0,0,0,0,0-.01-.02-.03-.03-.04-.05,0,0,0,0,0,0-.01-.01-.02-.03-.04-.04,0,0,0,0,0-.01-.01-.01-.02-.03-.04-.04,0,0,0,0-.01-.01-.01-.01-.02-.02-.03-.03,0,0-.01-.02-.02-.03,0,0-.01-.02-.02-.02,0-.01-.02-.02-.03-.03,0,0,0-.01-.02-.02-.01-.02-.03-.03-.04-.05h0c-.21-.26-.42-.51-.63-.77h0Zm4.69,5.35l-5.83,5.49c1.09,1.16,2.22,2.31,3.37,3.42l5.59-5.74s0,0,0,0c-.01-.01-.03-.03-.04-.04,0,0,0,0-.01-.01-.01-.01-.03-.02-.04-.04,0,0,0,0-.01-.01-.01-.01-.03-.03-.04-.04,0,0-.01-.01-.02-.02,0,0-.02-.02-.03-.03,0,0-.02-.02-.03-.02,0,0-.01-.01-.02-.02,0,0-.02-.02-.03-.03,0,0-.01-.01-.02-.02-.01-.01-.02-.02-.03-.03,0,0,0,0-.02-.02-.04-.04-.09-.09-.13-.13h0s-.03-.04-.05-.05h0s-.03-.04-.05-.05h0c-.28-.28-.55-.55-.83-.83h0s-.03-.04-.05-.05h0s-.03-.04-.05-.05h0s-.09-.09-.13-.14c0,0,0,0,0,0-.02-.02-.03-.03-.05-.05,0,0,0,0-.01-.01-.01-.01-.03-.03-.04-.04,0,0,0,0-.01-.01-.01-.01-.02-.02-.03-.04,0,0-.01-.01-.02-.02,0,0-.01-.01-.02-.02-.01-.01-.02-.02-.03-.03,0,0-.01-.01-.02-.02,0,0-.02-.02-.03-.03,0,0-.01-.01-.02-.02-.01-.01-.02-.02-.03-.03,0,0-.01-.01-.02-.02-.01-.01-.02-.02-.03-.03,0,0-.01-.01-.02-.02-.01-.01-.02-.02-.03-.03,0,0,0,0,0-.01-.01-.01-.03-.03-.04-.04,0,0,0,0,0,0-.02-.02-.03-.03-.04-.04,0,0,0,0,0,0-.01-.01-.03-.03-.04-.04,0,0,0,0,0,0-.3-.32-.61-.63-.91-.95h0Zm5.06,5.01l-5.43,5.88c1.17,1.08,2.38,2.15,3.6,3.18l5.17-6.12c-.57-.48-1.13-.96-1.68-1.45h0c-.09-.08-.17-.15-.26-.23,0,0,0,0,0,0-.02-.01-.03-.03-.05-.04,0,0,0,0,0,0-.02-.01-.03-.03-.05-.04,0,0,0,0,0,0-.02-.01-.03-.03-.05-.04,0,0,0,0,0,0-.04-.03-.06-.06-.1-.09,0,0,0,0,0,0-.02-.01-.03-.03-.05-.04,0,0,0,0,0,0-.02-.01-.03-.03-.05-.04,0,0,0,0,0,0-.01-.01-.03-.03-.04-.04,0,0,0,0,0,0-.02-.01-.03-.03-.04-.04,0,0,0,0,0,0-.01-.01-.03-.03-.05-.04,0,0,0,0,0,0-.01-.01-.03-.03-.04-.04,0,0,0,0,0,0-.01-.01-.03-.03-.04-.04,0,0,0,0,0,0-.02-.01-.03-.02-.04-.04,0,0,0,0-.01,0-.01-.01-.03-.03-.04-.04,0,0,0,0-.01,0-.01-.01-.03-.03-.04-.04,0,0,0,0-.01,0-.01-.01-.03-.03-.04-.04,0,0,0,0,0,0-.01-.01-.03-.03-.04-.04,0,0,0,0,0,0-.01-.01-.03-.03-.04-.04,0,0,0,0-.01-.01-.01-.01-.03-.02-.04-.04,0,0,0,0-.01-.01-.01-.01-.02-.02-.04-.03,0,0,0,0-.01-.01-.01-.01-.03-.02-.04-.03,0,0-.01,0-.02-.01,0,0-.03-.02-.03-.03,0,0-.01-.01-.02-.02,0,0-.02-.02-.03-.03,0,0-.02-.01-.02-.02-.01-.01-.02-.02-.03-.03,0,0-.01-.01-.02-.02-.01-.01-.02-.02-.03-.03,0,0-.01-.01-.02-.02,0,0-.02-.02-.03-.03,0,0-.01-.01-.02-.02,0,0-.02-.02-.03-.02,0,0,0,0-.01-.01h0Zm5.39,4.64l-5.01,6.25c1.24,1,2.53,1.98,3.81,2.92l4.73-6.46c-.37-.27-.73-.54-1.09-.81h0s-.04-.03-.06-.05h0s-.02-.02-.03-.03c-.01,0-.02-.01-.03-.02,0,0-.02-.01-.03-.02-.01,0-.02-.01-.03-.02,0,0-.02-.01-.03-.02-.01,0-.02-.02-.03-.02,0,0-.01-.01-.02-.02-.01,0-.03-.02-.04-.03,0,0,0,0-.01,0-.02-.01-.03-.02-.04-.03,0,0,0,0-.01,0-.02-.01-.03-.02-.05-.04,0,0,0,0,0,0-.02-.01-.03-.03-.05-.04,0,0,0,0,0,0-.66-.5-1.32-1.02-1.97-1.54h0Zm5.71,4.25l-4.56,6.59c1.31.91,2.66,1.8,4.01,2.64l4.26-6.78c-.3-.19-.61-.38-.91-.58h0s-.04-.03-.06-.04c0,0,0,0,0,0-.02-.01-.03-.02-.05-.03,0,0-.01,0-.02-.01,0,0-.02-.01-.03-.02-.01,0-.02-.02-.03-.02,0,0-.02-.01-.02-.02-.01,0-.02-.02-.04-.02,0,0-.01,0-.02-.01-.01,0-.03-.02-.04-.02,0,0-.01,0-.02-.01-.01,0-.03-.02-.04-.03,0,0,0,0-.01,0-.02-.01-.03-.02-.05-.03,0,0,0,0-.01,0-.01,0-.03-.02-.05-.03,0,0,0,0-.01,0-.02-.01-.03-.02-.05-.03,0,0,0,0,0,0-.02-.01-.03-.02-.05-.03,0,0,0,0,0,0-.74-.48-1.47-.97-2.19-1.47h0Zm5.99,3.84l-4.08,6.89c1.37.81,2.78,1.61,4.18,2.36l3.77-7.06c-.74-.4-1.48-.8-2.21-1.22h0s-.04-.02-.06-.04c0,0,0,0-.02,0-.01,0-.03-.02-.04-.03,0,0-.01,0-.02-.01-.01,0-.03-.01-.04-.02,0,0-.02,0-.03-.01-.01,0-.02-.01-.03-.02-.01,0-.02-.01-.03-.02,0,0-.01,0-.02-.01-.01,0-.03-.02-.04-.02,0,0-.01,0-.02-.01-.01,0-.03-.02-.05-.03,0,0,0,0-.01,0-.02,0-.03-.02-.05-.03,0,0,0,0,0,0-.02,0-.04-.02-.05-.03,0,0,0,0,0,0-.02,0-.04-.02-.06-.03,0,0,0,0,0,0-.02-.01-.04-.02-.05-.03,0,0,0,0,0,0-.02,0-.04-.02-.06-.03,0,0,0,0,0,0-.32-.18-.64-.37-.96-.56h0Zm6.25,3.41l-3.59,7.16c1.43.71,2.89,1.41,4.34,2.06l3.27-7.31c-.07-.03-.14-.06-.21-.1h0s-.04-.02-.06-.03c0,0-.01,0-.02,0-.01,0-.03-.01-.04-.02,0,0-.02,0-.03-.01,0,0-.02,0-.03-.01-.01,0-.03-.01-.04-.02,0,0-.01,0-.02,0-.02,0-.03-.01-.05-.02,0,0-.01,0-.02,0-.01,0-.03-.02-.05-.02,0,0,0,0-.01,0-.02,0-.04-.02-.05-.02,0,0,0,0,0,0-.02,0-.04-.02-.06-.03,0,0,0,0,0,0-.02,0-.04-.02-.06-.03,0,0,0,0,0,0-.02,0-.04-.02-.06-.03,0,0,0,0,0,0-.93-.42-1.85-.86-2.76-1.31,0,0,0,0,0,0-.02-.01-.04-.02-.06-.03,0,0,0,0,0,0-.02,0-.04-.02-.06-.03,0,0,0,0,0,0-.02,0-.04-.02-.05-.03,0,0,0,0-.01,0-.01,0-.03-.02-.05-.02,0,0-.01,0-.02-.01-.01,0-.03-.01-.04-.02,0,0-.02,0-.03-.01,0,0-.01,0-.02,0l-.05-.03h0s-.02-.01-.03-.02h0Zm6.47,2.96l-3.07,7.4c1.47.61,2.98,1.2,4.48,1.74l2.74-7.53c-.75-.27-1.5-.55-2.24-.84h0s-.04-.02-.07-.03h0s-.04-.02-.07-.03h0s-.07-.03-.11-.04h0s-.04-.02-.07-.03c0,0,0,0,0,0-.02,0-.04-.02-.06-.02h0s-.04-.02-.06-.03h0s-.05-.02-.07-.03h0s-.07-.03-.11-.04h0s-.04-.02-.07-.03h0s-.05-.02-.07-.03h0c-.37-.15-.75-.3-1.12-.46h0Zm6.67,2.49l-2.54,7.6c1.51.51,3.06.98,4.59,1.42l2.2-7.7c-.57-.16-1.14-.33-1.7-.5h0s-.05-.02-.07-.02h0c-.06-.02-.12-.04-.18-.06,0,0,0,0,0,0-.02,0-.04-.01-.07-.02h0s-.05-.02-.07-.02h0s-.07-.02-.11-.04h0s-.05-.01-.07-.02c0,0,0,0,0,0-.02,0-.04-.01-.07-.02h0c-.63-.2-1.25-.4-1.88-.61h0Zm6.83,2.01l-1.99,7.76c1.54.4,3.12.76,4.68,1.09l1.65-7.84c-.36-.08-.73-.15-1.09-.23,0,0,0,0,0,0,0,0-.02,0-.03,0,0,0,0,0,0,0-.01,0-.02,0-.03,0h0c-1.06-.24-2.12-.49-3.17-.76h0Zm6.95,1.52l-1.44,7.88c1.57.29,3.16.54,4.74.76l1.09-7.93c-.87-.12-1.74-.25-2.61-.39,0,0,0,0-.01,0,0,0-.01,0-.02,0,0,0-.01,0-.02,0,0,0-.01,0-.02,0,0,0-.01,0-.02,0,0,0,0,0-.01,0,0,0-.02,0-.03,0h0s-.02,0-.04,0h0c-.54-.09-1.08-.18-1.61-.28h0Zm7.04,1.03l-.88,7.96c1.58.17,3.19.32,4.78.42l.53-7.99c-1.11-.07-2.2-.16-3.29-.27,0,0,0,0,0,0,0,0-.02,0-.03,0,0,0,0,0-.01,0,0,0-.02,0-.02,0,0,0-.01,0-.02,0,0,0-.01,0-.02,0-.01,0-.02,0-.03,0h0s-.02,0-.03,0h0s-.02,0-.04,0h0c-.31-.03-.61-.06-.91-.1h0Zm7.1.53l-.32,8c1.47.06,2.95.09,4.42.09h.37s-.03-8.01-.03-8.01c-.03,0-.05,0-.08,0,0,0-.01,0-.02,0h-.01c-.08,0-.16,0-.24,0h-.07s-.04,0-.06,0h-.06s0,0-.01,0c-.02,0-.03,0-.05,0h-.01s-.03,0-.05,0h0s-.04,0-.05,0h-.02s-.03,0-.05,0h-.02s-.03,0-.04,0c0,0-.01,0-.02,0-.02,0-.03,0-.05,0,0,0-.01,0-.02,0-.01,0-.02,0-.04,0,0,0-.01,0-.02,0-.02,0-.03,0-.05,0,0,0-.02,0-.02,0-.01,0-.02,0-.03,0-.01,0-.02,0-.03,0-.01,0-.02,0-.04,0,0,0-.02,0-.03,0-.01,0-.02,0-.03,0-.01,0-.03,0-.04,0-.01,0-.02,0-.03,0,0,0-.02,0-.03,0-.01,0-.02,0-.03,0-.01,0-.03,0-.04,0,0,0-.01,0-.02,0-.02,0-.04,0-.06,0,0,0-.01,0-.02,0-.01,0-.02,0-.03,0,0,0-.01,0-.02,0-.02,0-.04,0-.06,0,0,0,0,0-.01,0-.01,0-.02,0-.04,0,0,0,0,0-.01,0-.02,0-.04,0-.07,0,0,0,0,0-.01,0-.51,0-1.03-.02-1.54-.03h0s-.08,0-.12,0c0,0,0,0,0,0-.04,0-.07,0-.11,0,0,0-.01,0-.02,0-.02,0-.03,0-.05,0-.01,0-.02,0-.03,0,0,0-.02,0-.03,0-.01,0-.02,0-.03,0-.01,0-.02,0-.03,0-.01,0-.03,0-.04,0,0,0-.01,0-.02,0-.02,0-.03,0-.05,0,0,0,0,0-.01,0-.01,0-.03,0-.05,0,0,0,0,0,0,0-.02,0-.04,0-.06,0,0,0,0,0,0,0-.17,0-.34-.01-.51-.02h0Zm11.56-.19c-1.47.11-2.95.18-4.44.23l.23,8.01c1.59-.05,3.2-.13,4.79-.24l-.58-7.99h0Zm7.08-.77c-.81.12-1.62.22-2.44.32,0,0,0,0,0,0,0,0-.02,0-.03,0,0,0,0,0-.01,0,0,0-.01,0-.02,0,0,0-.01,0-.02,0,0,0-.01,0-.02,0-.02,0-.05,0-.07,0,0,0,0,0,0,0h-.03s0,0,0,0c-.01,0-.02,0-.04,0h0c-.57.07-1.14.13-1.72.19l.79,7.97c1.59-.16,3.19-.35,4.77-.58l-1.14-7.93h0Zm7-1.26c-.71.15-1.43.3-2.15.44h0s-.02,0-.03,0c0,0,0,0-.01,0,0,0-.02,0-.02,0,0,0-.01,0-.02,0,0,0-.01,0-.02,0,0,0-.02,0-.02,0,0,0,0,0,0,0,0,0-.02,0-.03,0,0,0,0,0,0,0-.68.13-1.36.26-2.05.37l1.35,7.89c1.57-.27,3.16-.58,4.72-.92l-1.7-7.83h0Zm6.9-1.76c-1.18.35-2.37.67-3.57.97h0s-.1.03-.15.04c0,0,0,0,0,0,0,0-.02,0-.03,0,0,0-.01,0-.02,0,0,0,0,0-.01,0,0,0-.02,0-.02,0,0,0,0,0-.01,0,0,0-.02,0-.03,0,0,0,0,0,0,0,0,0-.02,0-.03,0,0,0,0,0,0,0-.13.03-.27.07-.4.1l1.91,7.78c1.55-.38,3.11-.8,4.64-1.25l-2.25-7.69h0Zm6.76-2.24s-.08.03-.13.05c0,0,0,0,0,0-.02,0-.04.01-.06.02,0,0,0,0-.01,0-.02,0-.04.01-.05.02,0,0,0,0-.01,0-.02,0-.03.01-.05.02,0,0,0,0-.01,0-.02,0-.03.01-.05.02,0,0-.01,0-.02,0-.02,0-.03.01-.04.02,0,0-.01,0-.02,0-.02,0-.03.01-.05.02,0,0-.02,0-.02,0-.02,0-.03.01-.04.02,0,0-.02,0-.02,0-.01,0-.02,0-.03.01-.01,0-.02,0-.04.01,0,0-.02,0-.03,0-.01,0-.03,0-.04.01,0,0-.02,0-.03,0-.01,0-.03,0-.04.01,0,0-.02,0-.03,0-.01,0-.02,0-.03.01,0,0-.02,0-.03.01-.01,0-.03,0-.04.01,0,0,0,0-.02,0-.02,0-.03.01-.05.02,0,0-.01,0-.02,0-.02,0-.03.01-.05.02,0,0-.01,0-.02,0-.02,0-.04.01-.05.02,0,0-.01,0-.02,0-.01,0-.02,0-.03.01,0,0,0,0-.01,0-.02,0-.04.01-.05.02,0,0-.01,0-.02,0-.02,0-.04.01-.05.02,0,0-.01,0-.02,0-.02,0-.03.01-.05.02,0,0-.01,0-.02,0-.02,0-.03.01-.05.02,0,0-.01,0-.02,0-.01,0-.02,0-.03.01,0,0-.02,0-.02,0-.02,0-.03.01-.05.02,0,0-.02,0-.03,0-.01,0-.03,0-.04.01,0,0-.02,0-.02,0-.01,0-.03.01-.04.01,0,0-.02,0-.03,0,0,0-.02,0-.03,0-.01,0-.03.01-.04.01,0,0-.02,0-.03,0-.02,0-.03,0-.04.01,0,0-.02,0-.02,0-.01,0-.02,0-.03.01-.01,0-.02,0-.03.01-.01,0-.02,0-.03.01,0,0-.02,0-.03,0-.01,0-.03,0-.04.01,0,0-.01,0-.02,0-.02,0-.03.01-.05.02,0,0-.01,0-.02,0-.02,0-.03.01-.05.02,0,0-.01,0-.02,0-.02,0-.03.01-.05.02,0,0,0,0-.01,0-.02,0-.03.01-.05.02,0,0,0,0-.01,0-.02,0-.04.01-.05.02h-.01s-.04.02-.06.02c0,0,0,0-.01,0-.02,0-.04.01-.06.02,0,0,0,0,0,0-.02,0-.04.01-.06.02,0,0,0,0,0,0-.04.01-.09.03-.13.04,0,0,0,0,0,0-.02,0-.04.01-.06.02,0,0,0,0,0,0-.46.16-.92.31-1.39.46l2.45,7.62c1.52-.49,3.04-1.02,4.54-1.57l-2.79-7.51h0Zm6.58-2.72c-.17.08-.34.15-.5.23,0,0,0,0,0,0-.02,0-.04.02-.06.03h0s-.04.02-.06.03c0,0,0,0,0,0-.04.02-.08.04-.12.06,0,0,0,0,0,0-.02,0-.04.02-.06.03,0,0,0,0,0,0-.02,0-.04.02-.06.02,0,0,0,0-.01,0-.02,0-.03.02-.05.02,0,0,0,0-.01,0-.02,0-.04.02-.05.02,0,0,0,0,0,0-.02,0-.03.01-.05.02,0,0,0,0-.01,0-.02,0-.03.02-.05.02,0,0,0,0-.01,0-.02,0-.03.01-.05.02,0,0-.01,0-.02,0-.01,0-.03.02-.05.02,0,0-.01,0-.02,0-.02,0-.03.01-.05.02,0,0,0,0-.01,0-.01,0-.03.01-.04.02,0,0-.01,0-.02,0-.01,0-.03.01-.04.02,0,0-.01,0-.02,0-.01,0-.03.01-.04.02,0,0-.02,0-.02.01-.01,0-.03.01-.04.02,0,0-.02,0-.03.01-.01,0-.02,0-.03.01-.01,0-.02.01-.04.02,0,0-.02,0-.03.01-.01,0-.03.01-.04.02,0,0-.01,0-.02.01-.02,0-.03.01-.05.02,0,0-.01,0-.02,0-.01,0-.02,0-.03.01-.01,0-.02.01-.04.02h-.03s-.01.02-.02.02c-.02,0-.04.02-.05.02,0,0,0,0-.01,0-.02,0-.04.02-.06.03,0,0,0,0,0,0-.02,0-.04.02-.06.03h0c-.06.03-.12.05-.18.08h0s-.05.02-.07.03h0c-.56.24-1.13.47-1.7.7l2.99,7.43c1.48-.59,2.96-1.23,4.42-1.89l-3.32-7.29h0Zm6.37-3.17c-.57.31-1.14.61-1.72.91,0,0,0,0,0,0-.02.01-.04.02-.06.03,0,0,0,0,0,0-.02.01-.03.02-.05.03,0,0,0,0-.01,0-.02,0-.03.02-.05.03,0,0,0,0-.01,0-.01,0-.03.02-.05.02,0,0-.01,0-.02,0-.01,0-.03.01-.04.02,0,0-.02,0-.02.01-.01,0-.02.01-.03.02,0,0-.02,0-.03.01-.01,0-.02.01-.03.02,0,0-.02,0-.02.01-.01,0-.03.01-.04.02,0,0-.02,0-.03.01,0,0-.02.01-.03.02-.01,0-.02.01-.03.02,0,0-.01,0-.02,0-.02,0-.03.02-.05.02,0,0,0,0-.01,0l-.05.03s0,0,0,0c-.41.21-.81.41-1.22.61,0,0-.01,0-.02,0-.02,0-.03.02-.05.02,0,0-.01,0-.02.01-.01,0-.02.01-.04.02-.01,0-.02.01-.03.02,0,0-.01,0-.02.01-.01,0-.03.01-.04.02,0,0-.01,0-.02,0-.02,0-.03.01-.05.02,0,0,0,0,0,0l3.51,7.2c1.43-.7,2.87-1.44,4.27-2.2l-3.82-7.04h0Zm6.13-3.62c-.98.62-1.96,1.23-2.96,1.82,0,0,0,0,0,0-.02.01-.03.02-.05.03,0,0,0,0,0,0-.02,0-.03.02-.05.03,0,0-.01,0-.02,0-.01,0-.02.01-.04.02,0,0-.02.01-.03.02,0,0-.02.01-.03.02-.02,0-.03.02-.05.03,0,0,0,0-.01,0-.19.11-.37.22-.56.33l4.01,6.93c1.38-.8,2.76-1.64,4.1-2.49l-4.31-6.75h0Zm5.86-4.04c-.64.48-1.29.95-1.94,1.41h0c-.07.05-.14.1-.21.15,0,0,0,0,0,0-.02.01-.03.02-.05.04,0,0,0,0,0,0-.02.01-.03.02-.05.04,0,0,0,0-.01,0-.02.01-.03.02-.05.03,0,0,0,0-.01,0-.01,0-.03.02-.04.03,0,0-.02.01-.02.02,0,0-.02.01-.03.02,0,0-.02.01-.03.02-.01,0-.02.01-.03.02,0,0-.02.01-.02.02l-.03.02s-.02.01-.03.02c0,0-.02.01-.03.02-.01,0-.02.01-.03.02,0,0-.01,0-.02.01-.01,0-.03.02-.04.03,0,0-.01,0-.02.01-.01,0-.03.02-.04.03,0,0,0,0-.01,0-.02.01-.03.02-.05.03,0,0,0,0-.01,0-.02.01-.03.02-.05.03,0,0,0,0,0,0-.25.17-.49.34-.74.51l4.49,6.63c1.32-.89,2.64-1.83,3.92-2.78l-4.77-6.43h0Zm5.56-4.44c-.41.35-.83.7-1.24,1.05h0s-.03.03-.05.05c0,0,0,0,0,0-.02.01-.03.03-.05.04,0,0,0,0-.01,0-.01.01-.03.02-.04.03,0,0-.01.01-.02.01,0,0-.02.01-.02.02,0,0-.02.02-.03.02,0,0-.02.01-.03.02,0,0-.01.01-.02.02-.01,0-.02.02-.03.03,0,0-.02.01-.02.02-.01,0-.02.02-.03.02,0,0-.02.01-.03.02,0,0-.02.01-.02.02,0,0-.02.02-.03.03,0,0-.01.01-.02.02-.01.01-.03.02-.04.03,0,0-.01,0-.02.01-.01.01-.02.02-.04.03,0,0,0,0-.01.01-.01.01-.03.02-.04.03,0,0,0,0-.01,0-.01.01-.03.02-.04.03,0,0,0,0,0,0-.01,0-.03.02-.04.03,0,0,0,0,0,0-.01.01-.03.02-.04.04,0,0,0,0-.01,0-.01.01-.03.02-.05.04,0,0,0,0,0,0-.01.01-.03.03-.05.04,0,0,0,0,0,0-.02.01-.03.02-.05.04,0,0,0,0,0,0-.03.03-.07.06-.1.08,0,0,0,0,0,0-.02.01-.03.03-.05.04,0,0,0,0,0,0-.02.01-.03.03-.05.04,0,0,0,0,0,0-.02.01-.04.03-.05.04,0,0,0,0,0,0-.32.26-.65.52-.98.78l4.94,6.3c1.25-.98,2.5-2.01,3.71-3.04l-5.21-6.08h0Zm5.24-4.82c-.07.07-.14.14-.21.21,0,0,0,0-.01.01-.01.01-.02.02-.04.03,0,0-.02.01-.02.02,0,0-.02.02-.03.02,0,0-.02.02-.03.03,0,0,0,0-.01.01-.01.01-.03.02-.04.04,0,0,0,0-.01.01-.01.01-.03.03-.04.04,0,0,0,0,0,0-.01.01-.03.03-.04.04h0c-.9.88-1.81,1.73-2.74,2.57l5.37,5.94c1.18-1.07,2.36-2.18,3.49-3.3l-5.62-5.7h0Zm4.89-5.17c-.21.24-.43.49-.64.72,0,0,0,0,0,0-.01.02-.03.03-.04.05,0,0,0,0,0,0-.01.01-.03.03-.04.04,0,0,0,0-.01.01-.01.01-.02.03-.04.04,0,0,0,0-.01.01-.01.01-.02.03-.03.04,0,0,0,.01-.01.02-.01.01-.02.02-.03.03,0,0-.01.01-.02.02,0,0-.02.02-.03.03,0,0-.01.01-.02.02-.01.01-.02.02-.03.03,0,0-.01.01-.02.02-.01.01-.02.02-.03.03,0,0-.01.01-.02.02-.01.01-.02.02-.03.03,0,0-.01.01-.02.02,0,0-.02.02-.02.02,0,.01-.02.02-.03.03,0,0-.01.01-.02.02-.01.01-.02.02-.03.03,0,0-.01.01-.02.02-.01.01-.02.02-.03.03,0,0-.01.01-.02.02,0,0-.01.02-.02.02,0,0-.02.02-.02.03,0,0-.02.02-.03.03,0,0-.01.01-.01.02-.01.01-.02.02-.03.04,0,0,0,.01-.02.02-.01.01-.02.02-.03.04,0,0-.01.01-.02.02-.01.01-.02.02-.03.03,0,0-.01.01-.02.02,0,.01-.02.02-.03.03,0,0-.01.01-.02.02,0,0-.01.02-.02.02,0,0-.02.02-.03.03,0,0-.01.01-.02.02-.01.01-.02.02-.03.03,0,0-.01.01-.02.02,0,0-.02.02-.02.03,0,0-.02.02-.02.03,0,0-.02.02-.02.03,0,0-.01.01-.02.02-.01.01-.02.02-.03.03,0,0,0,.01-.01.02-.01.01-.02.03-.04.04,0,0,0,0-.01.01-.01.01-.02.02-.04.04,0,0,0,0-.01.01-.01.01-.03.03-.04.04,0,0,0,0,0,0-.01.01-.03.03-.04.04,0,0,0,0,0,0-.02.02-.03.03-.04.05,0,0,0,0,0,0-.02.02-.03.03-.05.05,0,0,0,0,0,0-.02.02-.03.03-.05.05,0,0,0,0,0,0-.3.32-.6.64-.91.96l5.77,5.55c1.1-1.15,2.2-2.34,3.25-3.53l-6.01-5.29h0Zm4.51-5.5c-.08.1-.15.2-.23.29,0,0,0,0,0,0-.01.02-.03.03-.04.05,0,0,0,0,0,.01-.01.01-.02.03-.03.04,0,0,0,.01-.01.02-.01.01-.02.03-.03.04,0,0,0,.01-.01.02,0,0-.01.02-.02.03,0,.01-.02.02-.03.03,0,0-.01.02-.02.02,0,.01-.02.02-.03.03,0,0-.01.01-.02.02,0,.01-.02.02-.03.03,0,0-.01.01-.02.02,0,.01-.02.02-.02.03,0,0-.01.02-.02.02,0,0-.02.02-.02.03,0,0,0,.01-.01.02,0,.01-.02.03-.03.04,0,0,0,.01-.01.02,0,.01-.02.03-.03.04,0,0,0,.01-.01.02-.01.02-.02.03-.03.04,0,0,0,0-.01.01-.01.01-.02.03-.03.04,0,0,0,0,0,.01,0,.01-.02.03-.03.04,0,0,0,0,0,.01,0,.01-.02.03-.03.04,0,0,0,0,0,.01-.01.01-.02.03-.04.05,0,0,0,0,0,0-.01.01-.02.03-.04.04,0,0,0,0,0,.01-.01.01-.02.03-.03.04,0,0,0,0,0,.01-.01.01-.02.03-.04.04,0,0,0,0,0,0-.01.01-.02.03-.04.05,0,0,0,0,0,0-.01.02-.02.03-.04.05,0,0,0,0,0,0-.01.01-.02.03-.04.05,0,0,0,0,0,.01-.01.01-.02.03-.04.04,0,0,0,0,0,.01-.01.01-.02.03-.04.04,0,0,0,0,0,0-.01.01-.02.03-.04.05,0,0,0,0,0,0,0,.01-.03.03-.04.04,0,0,0,0,0,0,0,.01-.02.03-.03.04,0,0,0,0,0,.01-.01.01-.02.03-.04.04,0,0,0,0,0,.01-.01.01-.02.03-.04.04,0,0,0,0,0,.01-.01.01-.02.03-.03.04,0,0,0,0,0,.01-.01.01-.02.03-.04.04,0,0,0,0,0,0-.01.01-.02.03-.04.04,0,0,0,0,0,0-.01.02-.02.03-.04.04,0,0,0,0,0,0-.01.01-.02.03-.04.05h0s-.02.04-.03.05c0,0,0,0-.01.01-.01.01-.02.03-.03.04,0,0,0,0,0,.01-.01.01-.02.03-.04.04,0,0,0,0,0,0-.01.01-.02.03-.04.04,0,0,0,0,0,0,0,.01-.02.03-.03.04,0,0,0,0,0,.01-.01.01-.02.03-.04.04,0,0,0,0-.01.01-.01.01-.02.03-.03.04,0,0,0,0-.01.01-.01.01-.02.03-.04.04,0,0,0,0,0,.01-.01.01-.02.03-.04.04,0,0,0,0,0,.01-.01.01-.02.03-.03.04,0,0,0,0,0,0-.01.01-.02.03-.03.04,0,0,0,0,0,.01-.01.01-.02.03-.04.04,0,0,0,0,0,.01-.01.01-.02.03-.03.04,0,0,0,0-.01.01-.01.01-.02.03-.03.04,0,0,0,0-.01.01-.01.01-.02.03-.04.04,0,0,0,0,0,.01-.01.01-.02.03-.03.04,0,0,0,0,0,.01-.01.01-.02.03-.03.04,0,0,0,0,0,.01-.01.01-.02.03-.04.04,0,0,0,0,0,.01-.01.01-.02.03-.04.04,0,0,0,0,0,.01-.01.01-.02.03-.04.04,0,0,0,0,0,.01-.01.01-.02.03-.04.04,0,0,0,0,0,0-.01.01-.02.03-.04.04,0,0,0,0,0,0-.01.01-.02.03-.04.04,0,0,0,0,0,0-.01.01-.03.03-.04.05,0,0,0,0,0,0-.01.01-.02.03-.04.04,0,0,0,0,0,0l6.15,5.13c1.02-1.22,2.03-2.48,3-3.75l-6.37-4.86h0Zm4.12-5.81s-.06.09-.09.13c0,0,0,.01,0,.01-.01.02-.02.03-.03.05,0,0,0,.01-.01.02,0,.01-.02.03-.03.04l-.02.02s-.01.02-.02.03c0,.01-.01.02-.02.04,0,0,0,.01-.01.02,0,.01-.02.03-.03.04,0,0,0,.01-.01.02,0,.01-.02.03-.03.04,0,0,0,.01-.01.02-.01.02-.02.03-.03.05,0,0,0,0,0,0-.01.02-.02.03-.03.05,0,0,0,0,0,0-.01.02-.02.04-.03.05,0,0,0,0,0,0-.01.02-.02.03-.03.05,0,0,0,0,0,0-.01.02-.02.04-.03.05,0,0,0,0,0,0-.01.02-.02.04-.04.05h0c-.65.96-1.31,1.91-1.99,2.85l6.49,4.69c.93-1.29,1.85-2.62,2.73-3.95l-6.69-4.4h0Zm3.7-6.08c-.12.22-.25.44-.38.66,0,0,0,0,0,0-.01.02-.02.03-.03.05,0,0,0,0,0,.01,0,.02-.02.03-.03.05,0,0,0,0,0,.01,0,.02-.02.03-.03.05,0,0,0,0,0,.01,0,.01-.02.03-.02.04,0,0,0,.01-.01.02,0,.01-.01.02-.02.04,0,0,0,.02-.01.02,0,.01-.01.02-.02.03,0,0,0,.02-.01.02,0,.01-.01.02-.02.04,0,0-.01.02-.02.03,0,0-.01.02-.02.03,0,.01-.01.02-.02.04,0,0,0,.01,0,.01,0,.02-.02.03-.03.05,0,0,0,0,0,0-.01.02-.02.04-.04.06h0c-.49.85-1,1.7-1.52,2.53l6.81,4.22c.84-1.35,1.66-2.75,2.44-4.14l-6.99-3.92h0Zm3.26-6.33c-.63,1.34-1.3,2.67-1.99,3.98l7.09,3.73c.74-1.41,1.46-2.86,2.14-4.3l-7.24-3.41h0Zm2.8-6.54c-.54,1.38-1.1,2.76-1.7,4.11l7.33,3.22c.64-1.46,1.26-2.95,1.83-4.44l-7.47-2.89h0Zm2.33-6.72c-.2.65-.41,1.31-.62,1.95h0s-.02.05-.02.07h0s-.02.05-.02.08h0s-.02.07-.03.11c0,0,0,.01,0,.02,0,.02-.01.03-.02.05,0,0,0,.02,0,.02,0,.01,0,.03-.01.04,0,0,0,.02-.01.03,0,0,0,.02,0,.03,0,.02,0,.03-.01.04,0,0,0,.02,0,.02,0,.02-.01.03-.02.05,0,0,0,.01,0,.02,0,.02-.01.03-.02.05,0,0,0,.01,0,.02,0,.02-.01.03-.02.05,0,0,0,0,0,.01,0,.02-.01.04-.02.05,0,0,0,0,0,.01,0,.02-.01.04-.02.05,0,0,0,0,0,.01,0,.02-.01.04-.02.05,0,0,0,0,0,.01,0,.02-.01.04-.02.06,0,0,0,0,0,0,0,.02-.01.04-.02.06,0,0,0,0,0,0,0,.02-.01.04-.02.06,0,0,0,0,0,.01,0,.02-.01.04-.02.06,0,0,0,0,0,0,0,.02-.01.04-.02.06,0,0,0,0,0,0-.01.04-.03.08-.04.12,0,0,0,0,0,0,0,.02-.01.04-.02.06,0,0,0,0,0,0,0,.02-.01.04-.02.06,0,0,0,0,0,0,0,.02-.01.04-.02.06,0,0,0,0,0,0,0,.02-.01.04-.02.06,0,0,0,0,0,0,0,.02-.01.04-.02.06,0,0,0,0,0,0,0,.02-.01.04-.02.06,0,0,0,0,0,.01,0,.02-.01.03-.02.05,0,0,0,0,0,.01,0,.02-.01.04-.02.05,0,0,0,0,0,.01,0,.02-.01.03-.02.05,0,0,0,.01,0,.02,0,.02,0,.03-.02.04,0,0,0,.01,0,.02,0,.02-.01.03-.02.05,0,0,0,.02,0,.02,0,.01-.01.03-.02.04,0,0,0,.02,0,.03,0,0,0,.02-.01.03,0,.01,0,.03-.01.04,0,0,0,.01,0,.02,0,0,0,.02,0,.02l7.54,2.69c.54-1.5,1.05-3.04,1.51-4.56l-7.65-2.36h0Zm1.85-6.87c-.05.2-.09.39-.14.59h0s0,.02,0,.04h0s0,.03,0,.04c0,0,0,0,0,0,0,0,0,.02,0,.03,0,0,0,.01,0,.01,0,0,0,.01,0,.02,0,0,0,.01,0,.01,0,0,0,.01,0,.02,0,.02,0,.03-.01.05,0,0,0,0,0,0,0,.02-.01.05-.02.07,0,0,0,0,0,0,0,0,0,.02,0,.03,0,0,0,0,0,0,0,.01,0,.02,0,.03,0,0,0,0,0,0-.09.38-.19.76-.28,1.15,0,0,0,0,0,0,0,0,0,.02,0,.03,0,0,0,0,0,0,0,0,0,.02,0,.03,0,0,0,0,0,.01,0,0,0,.02,0,.02,0,0,0,0,0,0,0,0,0,.02,0,.03,0,0,0,0,0,0,0,0,0,.02,0,.03,0,0,0,0,0,.01,0,.02,0,.03-.01.05,0,0,0,0,0,0,0,0,0,.01,0,.02,0,0,0,.01,0,.02,0,0,0,.01,0,.02,0,0,0,.01,0,.02,0,0,0,0,0,.01,0,0,0,.02,0,.03,0,0,0,0,0,0,0,0,0,.02,0,.03h0s0,.03,0,.04h0c-.15.6-.31,1.2-.48,1.79l7.71,2.15c.43-1.54.83-3.1,1.19-4.66l-7.8-1.81h0Zm1.36-6.99c-.09.57-.19,1.15-.29,1.72t0,0s0,.02,0,.03c0,0,0,0,0,.01,0,0,0,.01,0,.02,0,0,0,.01,0,.02,0,0,0,.01,0,.02,0,0,0,.01,0,.02,0,0,0,.01,0,.02,0,0,0,.02,0,.02,0,0,0,0,0,.01,0,.01,0,.02,0,.03h0s-.01.08-.02.12h0c-.13.71-.26,1.42-.4,2.13h0s-.02.08-.02.11c0,0,0,.01,0,.02,0,0,0,.01,0,.02,0,0,0,.02,0,.03,0,0,0,0,0,0,0,0,0,.02,0,.03,0,0,0,0,0,0l7.85,1.6c.32-1.56.61-3.15.85-4.73l-7.91-1.25h0Zm.86-7.06c-.03.4-.07.81-.11,1.21,0,0,0,0,0,0,0,0,0,.02,0,.03,0,0,0,0,0,.01,0,0,0,.02,0,.03,0,0,0,0,0,.01,0,.01,0,.01,0,.02,0,0,0,.01,0,.02,0,0,0,.02,0,.02,0,.01,0,.02,0,.04,0,0,0,0,0,.01,0,0,0,.02,0,.03,0,0,0,.01,0,.02,0,0,0,.02,0,.02,0,0,0,0,0,.01v.02s0,0,0,.01c0,0,0,.02,0,.02,0,0,0,0,0,.01,0,.01,0,.02,0,.03h0c-.1.95-.21,1.9-.33,2.84l7.94,1.04c.21-1.58.38-3.18.52-4.77l-7.98-.69h0Zm.37-7.11c0,.35-.01.7-.02,1.04,0,0,0,0,0,0,0,.01,0,.02,0,.03,0,0,0,0,0,.01,0,0,0,.01,0,.02s0,.01,0,.02,0,.01,0,.02c0,0,0,.01,0,.02,0,0,0,.01,0,.02,0,.01,0,.02,0,.04,0,0,0,0,0,0,0,.01,0,.02,0,.03,0,0,0,0,0,0,0,.01,0,.02,0,.03,0,0,0,0,0,0,0,.01,0,.02,0,.03h0c-.01.51-.03,1-.06,1.5h0s0,.08,0,.12h0s0,.03,0,.04c0,0,0,0,0,0,0,.01,0,.02,0,.03h0s0,.03,0,.04c0,0,0,0,0,0,0,0,0,.02,0,.03,0,0,0,0,0,.01,0,0,0,.02,0,.03,0,.01,0,.02,0,.03,0,0,0,.01,0,.02,0,0,0,.01,0,.02,0,0,0,.01,0,.02,0,0,0,.02,0,.02,0,0,0,.01,0,.02,0,0,0,.02,0,.02,0,0,0,0,0,.01,0,0,0,.02,0,.02,0,0,0,0,0,.01-.02.37-.04.73-.06,1.1l7.99.48c.1-1.59.16-3.2.18-4.79l-8.01-.13h0Zm7.87-7.54l-8,.42c.02.42.04.84.06,1.26h0s0,.03,0,.04h0s0,.03,0,.04c0,0,0,0,0,0,0,.02,0,.05,0,.07,0,0,0,.02,0,.02,0,0,0,0,0,.01,0,.01,0,.01,0,.02,0,0,0,0,0,.01,0,0,0,.02,0,.03,0,0,0,0,0,0,0,.01,0,.02,0,.03,0,0,0,0,0,0,.03.77.05,1.54.06,2.32,0,0,0,0,0,.01,0,0,0,.01,0,.02,0,0,0,.01,0,.02,0,0,0,.01,0,.02,0,0,0,.01,0,.02,0,0,0,.01,0,.02,0,.01,0,.02,0,.03,0,0,0,0,0,0,0,.03,0,.05,0,.08h0c0,.12,0,.23,0,.34l8.01-.07c-.01-1.59-.06-3.21-.15-4.79h0Zm-.67-7.65l-7.95.98c.18,1.47.33,2.94.45,4.43l7.98-.63c-.13-1.59-.29-3.2-.48-4.78h0Zm-1.21-7.59l-7.86,1.54c.11.55.21,1.1.31,1.65h0s0,.02,0,.04h0s0,.03,0,.04h0s.01.08.02.12h0s0,.03,0,.04c0,0,0,0,0,0v.03s0,0,0,.01c0,0,0,.02,0,.02,0,0,0,.01,0,.02,0,0,0,.01,0,.02s0,.01,0,.02c0,0,0,.01,0,.02,0,0,0,.02,0,.02,0,0,0,.01,0,.02,0,0,0,.01,0,.02,0,0,0,0,0,.01,0,.02,0,.03,0,.05,0,0,0,0,0,0,0,0,0,.01,0,.02,0,0,0,0,0,.01,0,0,0,.01,0,.02,0,0,0,0,0,.01,0,0,0,.02,0,.03,0,0,0,0,0,0,0,0,0,.02,0,.03,0,0,0,0,0,0,0,0,0,.02,0,.03,0,0,0,0,0,0,0,.05.02.09.02.13,0,0,0,0,0,0,0,0,0,.02,0,.03,0,0,0,0,0,0,0,0,0,.02,0,.03,0,0,0,0,0,0,0,.01,0,.02,0,.03,0,0,0,0,0,0,.01.08.03.16.04.24,0,0,0,0,0,0,0,.01,0,.02,0,.03,0,0,0,0,0,0,.01.07.02.14.03.2h0s0,.02,0,.03c0,0,0,0,0,0,0,0,0,.02,0,.03,0,0,0,0,0,0,0,0,0,.02,0,.03,0,0,0,0,0,.01,0,0,0,.02,0,.02,0,0,0,0,0,.01,0,0,0,.02,0,.03,0,0,0,0,0,0,0,.01,0,.02,0,.04,0,0,0,.02,0,.03,0,0,0,0,0,.01,0,0,0,.02,0,.02,0,0,0,.01,0,.02,0,0,0,.01,0,.02,0,0,0,0,0,.02v.02s0,0,0,.01c0,0,0,.02,0,.03,0,0,0,0,0,0,0,.01,0,.02,0,.03h0c.05.3.09.6.14.9l7.92-1.19c-.24-1.58-.51-3.17-.82-4.73h0Zm-1.74-7.49l-7.73,2.09c.16.59.32,1.19.47,1.79,0,0,0,0,0,0v.03s0,.01.01.01c0,0,0,.02,0,.02,0,0,0,0,0,.01,0,0,0,.02,0,.03,0,0,0,0,0,.01,0,0,0,.01,0,.02v.02s0,.01,0,.02,0,.01,0,.02,0,.01,0,.02c0,.03.01.05.02.08,0,0,0,0,0,0,0,0,0,.02,0,.03,0,0,0,0,0,0,0,0,0,.02,0,.03h0s0,.03,0,.04c0,0,0,0,0,0,0,0,0,.02,0,.03,0,0,0,0,0,0,.17.7.34,1.4.49,2.1l7.82-1.75c-.35-1.56-.74-3.13-1.15-4.66h0Zm-2.27-7.34l-7.56,2.64c.49,1.4.94,2.81,1.37,4.23l7.67-2.3c-.46-1.53-.96-3.07-1.48-4.57h0Zm-2.79-7.16l-7.36,3.17c.18.42.36.85.54,1.28,0,0,0,0,0,0,0,.02.02.04.02.06,0,0,0,0,0,0,0,.02.02.04.02.06,0,0,0,0,0,.01,0,.02.01.04.02.05,0,0,0,0,0,.01,0,.01.01.03.02.04,0,0,0,.02.01.03,0,.01.01.03.02.04,0,0,0,.01,0,.02,0,.01.01.03.02.04,0,0,0,.02.01.03,0,.01.01.03.02.04,0,0,0,.02.01.03,0,0,0,.01,0,.02,0,.02.01.04.02.05,0,0,0,0,0,.01,0,.02.02.04.03.06h0c.3.74.59,1.48.87,2.23l7.49-2.84c-.56-1.49-1.17-2.99-1.8-4.45h0Zm-3.29-6.95l-7.11,3.68s0,0,0,0c0,.01.02.03.02.04v.02s.03.03.03.04c0,0,0,.02.01.02,0,.01.01.02.02.04,0,0,.01.02.02.03,0,0,0,.02.01.03,0,.01.01.03.02.04,0,0,0,.01.01.02,0,.01.01.03.02.04,0,0,0,.02.01.02,0,.02.02.04.03.05,0,0,0,0,0,0,0,.01.01.02.02.03h0s.02.05.03.07h0s.02.05.03.07h0c.44.87.87,1.73,1.28,2.61,0,0,0,.01,0,.01,0,.02.02.03.02.05,0,0,0,.01.01.02,0,.01.01.03.02.04,0,.01,0,.02.01.03,0,0,0,.02.01.03,0,.01.01.03.02.04v.02s.02.03.03.05c0,0,0,.01,0,.02,0,.02.02.03.02.05,0,0,0,0,0,0,.07.14.14.29.2.44l7.27-3.36c-.67-1.45-1.38-2.9-2.11-4.31h0Zm-3.77-6.7l-6.84,4.17c.23.38.45.75.68,1.13,0,0,0,0,0,0,.01.02.02.03.03.05,0,0,0,0,0,0,0,.02.02.03.03.05,0,0,0,0,0,.01l.03.05s0,0,0,.01c0,.01.02.03.02.04,0,0,0,.01.01.02,0,.01.01.02.02.03,0,0,.01.02.02.03,0,.01.01.02.02.03,0,0,0,.01.01.02,0,.01.01.02.02.04,0,0,0,.02.01.03,0,.01.01.03.02.04,0,0,.01.02.02.03,0,0,0,.01.01.02,0,.01.02.03.03.04,0,0,0,.01,0,.02,0,.02.02.03.03.05,0,0,0,0,0,.01.01.02.02.04.03.06,0,0,0,0,0,0,.03.05.06.11.09.16h0c.36.62.7,1.23,1.05,1.86l7.01-3.87c-.77-1.4-1.58-2.79-2.41-4.15h0Zm-4.23-6.41l-6.53,4.64c.86,1.21,1.69,2.44,2.5,3.68l6.72-4.35c-.87-1.34-1.77-2.67-2.7-3.97h0Zm-4.67-6.1l-6.18,5.09c.43.52.86,1.05,1.28,1.59,0,0,0,0,0,0,.01.02.03.03.04.05,0,0,0,0,0,0,.01.02.03.03.04.05,0,0,0,0,0,.01.01.01.02.03.03.04,0,0,0,0,.01.02.01.01.02.03.03.04,0,0,0,0,.01.01,0,0,.01.02.02.03,0,0,.01.01.01.02,0,.01.02.03.03.04,0,0,0,0,.01.02.01.01.02.03.03.04,0,0,0,.01.01.02,0,.01.02.02.03.04,0,0,0,.01.01.02l.03.04s0,.01.01.02c0,0,.01.02.02.03,0,.01.02.02.02.03,0,0,.01.02.02.03,0,0,.01.02.02.02,0,.01.02.02.03.03,0,0,.01.01.02.02,0,.01.02.02.03.04,0,0,0,.01.01.02.01.01.02.03.03.04,0,0,0,0,.01.01.01.02.02.03.03.05,0,0,0,0,0,.01.01.02.03.04.04.05,0,0,0,0,0,0,.02.03.05.06.07.09h0s.03.04.04.06h0s.03.04.04.06h0c.2.27.41.53.61.8l6.4-4.81c-.96-1.27-1.96-2.54-2.97-3.77h0Zm-5.08-5.76l-5.81,5.51c.08.08.16.17.24.25,0,0,0,0,0,0,.02.02.03.03.04.05,0,0,0,0,0,0,.02.02.03.03.04.04,0,0,0,0,0,0,.01.01.02.02.03.04,0,0,.01.01.02.02,0,0,.02.02.03.03,0,0,.01.01.02.02,0,0,.02.02.03.03,0,0,.01.02.02.02,0,0,.01.01.02.02.01.01.02.03.04.04h0s.03.04.05.06h0c.81.87,1.61,1.76,2.4,2.67l6.05-5.25c-1.04-1.2-2.13-2.4-3.22-3.56h0Zm-5.47-5.39l-5.41,5.9c1.09,1,2.16,2.03,3.21,3.08l5.67-5.66c-1.13-1.13-2.29-2.24-3.47-3.32h0Zm-5.84-4.99l-4.99,6.27c.82.65,1.62,1.31,2.42,1.98,0,0,0,0,0,0,.02.01.03.03.05.04,0,0,0,0,0,0,.01.01.03.03.04.04,0,0,0,0,.01,0,.01.01.03.02.04.04,0,0,0,0,.01.01.01.01.03.02.04.03,0,0,0,0,.01.01.01.01.02.02.03.03,0,0,.01.01.02.02.01.01.02.02.03.03,0,0,.01,0,.02.01.01.01.02.02.04.03,0,0,.01.01.02.02.01.01.02.02.04.03,0,0,.01.01.02.02.01.01.02.02.03.03,0,0,.01.01.02.02,0,0,.02.01.03.02,0,0,.02.02.03.03,0,0,.01.01.02.02.01,0,.02.02.03.03,0,0,.01.01.02.02.01,0,.02.02.03.03,0,0,.02.01.02.02l.02.02s.02.02.03.03c0,0,.01.01.02.02,0,0,.02.02.03.03,0,0,.01.01.02.02.01.01.02.02.03.03,0,0,.01.01.02.02,0,0,.02.02.03.03,0,0,.02.01.02.02,0,0,.02.02.03.02,0,0,.01.01.02.02.01.01.02.02.04.03,0,0,0,0,0,0l5.26-6.04c-1.2-1.05-2.44-2.08-3.69-3.07h0Zm-6.17-4.57l-4.53,6.6c.59.41,1.18.82,1.76,1.24,0,0,0,0,0,0,.02.01.04.03.06.04,0,0,0,0,0,0,.04.03.07.05.11.08,0,0,0,0,0,0,.02.01.04.03.05.04,0,0,0,0,0,0,.02.01.03.02.05.03,0,0,0,0,.01,0,.02.01.03.02.04.03,0,0,0,0,.01,0,.01,0,.03.02.04.03,0,0,.01,0,.01.01.01,0,.03.02.04.03,0,0,.01,0,.02.01.01,0,.02.02.03.02,0,0,.02.01.03.02.01,0,.02.01.03.02,0,0,.01,0,.02.01.01,0,.02.02.04.03,0,0,.02.01.02.02.01,0,.02.02.03.02,0,0,.02.01.03.02,0,0,.01,0,.02.01.01.01.03.02.04.03,0,0,0,0,.01,0,.02.01.03.02.05.04,0,0,0,0,0,0,.34.25.69.51,1.03.76l4.82-6.4c-1.27-.96-2.58-1.9-3.9-2.8h0Zm-6.48-4.12l-4.06,6.9s0,0,0,0c.02,0,.03.02.05.03,0,0,0,0,.01,0,.02,0,.04.02.05.03,0,0,0,0,0,0,.76.45,1.51.9,2.25,1.37,0,0,0,0,0,0,.02.01.04.02.06.03,0,0,0,0,0,0,.02.01.04.02.06.04,0,0,0,0,0,0,.04.02.08.05.11.07,0,0,0,0,0,0,.02.01.04.02.05.03,0,0,0,0,0,0,.02.01.03.02.05.03,0,0,0,0,0,0,.02.01.04.02.05.03,0,0,0,0,0,0,.02.01.04.02.05.03,0,0,0,0,0,0,.04.02.07.05.11.07,0,0,0,0,0,0,.02.01.04.02.05.03,0,0,0,0,0,0,.02.01.03.02.05.03,0,0,0,0,0,0,.02.01.04.02.05.03,0,0,0,0,0,0,.21.14.43.27.64.41l4.36-6.72c-1.34-.87-2.71-1.72-4.08-2.52h0Zm-6.76-3.66l-3.56,7.17h.01s.03.02.04.03c0,0,.01,0,.02.01.01,0,.03.01.04.02,0,0,.02,0,.02.01.01,0,.03.01.04.02,0,0,.02,0,.03.01,0,0,.01,0,.02,0,.02,0,.03.02.05.02,0,0,0,0,.01,0,.02,0,.04.02.06.03h0s.04.03.06.04h0c1.19.6,2.37,1.22,3.53,1.86l3.87-7.01c-1.4-.77-2.83-1.52-4.25-2.23h0Zm-7-3.17l-3.04,7.41c.55.23,1.1.46,1.65.69h0s.02.01.03.02h0s.04.02.06.03c0,0,.01,0,.02,0,.01,0,.03.01.04.02,0,0,.02,0,.03.01.01,0,.02,0,.03.01.01,0,.02.01.04.02,0,0,.01,0,.02,0,.01,0,.03.01.05.02,0,0,.01,0,.02,0,.02,0,.03.01.05.02,0,0,0,0,.01,0,.02,0,.03.02.05.02,0,0,0,0,0,0,.66.29,1.31.58,1.96.88l3.37-7.27c-1.45-.67-2.93-1.32-4.4-1.92h0Zm-7.21-2.67l-2.51,7.6c.54.18,1.07.36,1.61.55h0s.04.02.06.02c0,0,0,0,.02,0,.02,0,.03.01.05.02,0,0,.02,0,.02,0,0,0,.02,0,.03.01.01,0,.03.01.04.01,0,0,.02,0,.02,0,.02,0,.03.01.04.02,0,0,.01,0,.02,0,.02,0,.03,0,.04.01,0,0,.01,0,.02,0,.02,0,.03.01.05.02,0,0,0,0,.01,0,.02,0,.04.01.05.02,0,0,0,0,.01,0,.02,0,.04.01.06.02,0,0,0,0,0,0,.67.24,1.35.49,2.02.74l2.85-7.49c-1.49-.57-3.01-1.11-4.53-1.61h0Zm-7.38-2.15l-1.97,7.76s.02,0,.03,0h0s.04.01.06.02c0,0,0,0,.01,0,.01,0,.02,0,.03,0,.01,0,.03,0,.04.01,0,0,.02,0,.03,0,.01,0,.02,0,.03,0,.01,0,.02,0,.04,0,.01,0,.02,0,.03,0,0,0,.02,0,.03,0,.02,0,.03,0,.05.01,0,0,.01,0,.02,0,.02,0,.04,0,.05.01,0,0,.01,0,.02,0,.02,0,.04,0,.05.01,0,0,0,0,.01,0,.02,0,.04.01.06.02,0,0,0,0,0,0,.02,0,.04.01.06.02,0,0,0,0,0,0,.02,0,.04.01.06.02h0s.05.01.06.02c0,0,0,0,0,0,.78.21,1.57.42,2.34.64,0,0,0,0,0,0,.02,0,.04.01.06.02,0,0,0,0,0,0,.02,0,.04.01.06.02,0,0,0,0,.01,0,.02,0,.04.01.06.02,0,0,0,0,.01,0,.02,0,.03,0,.05.01,0,0,.01,0,.02,0,.02,0,.03,0,.04.01,0,0,.01,0,.02,0,.02,0,.03,0,.04.01,0,0,.02,0,.03,0,.01,0,.03,0,.04.01.01,0,.02,0,.03,0,0,0,.01,0,.02,0,.02,0,.04.01.06.02h0c.19.06.37.11.56.17l2.31-7.67c-1.53-.46-3.08-.89-4.63-1.28h0Zm-7.51-1.62l-1.41,7.88s0,0,0,0c0,0,0,0,.01,0,0,0,.02,0,.02,0,0,0,0,0,.01,0h.02s0,0,.02,0c0,0,.01,0,.02,0,0,0,.01,0,.02,0,0,0,.01,0,.02,0,0,0,.01,0,.02,0,0,0,0,0,0,0,.02,0,.04,0,.06.01,0,0,0,0,0,0,0,0,.02,0,.03,0,0,0,0,0,0,0,0,0,.02,0,.03,0,0,0,0,0,0,0,0,0,.02,0,.03,0,0,0,0,0,0,0,0,0,.02,0,.03,0,0,0,0,0,0,0,0,0,.02,0,.03,0,0,0,0,0,0,0,.08.01.16.03.24.04h0s.02,0,.03,0c0,0,0,0,0,0,.08.02.16.03.24.04,0,0,0,0,0,0,.01,0,.02,0,.03,0,0,0,0,0,0,0,0,0,.02,0,.03,0,0,0,0,0,0,0,.05.01.11.02.17.03,0,0,0,0,0,0,0,0,.02,0,.03,0,0,0,0,0,0,0,0,0,.02,0,.03,0,0,0,0,0,.01,0,0,0,.02,0,.02,0,0,0,0,0,.01,0,0,0,.01,0,.02,0,0,0,0,0,.01,0,0,0,.02,0,.02,0,0,0,.01,0,.02,0,0,0,.02,0,.03,0,0,0,.02,0,.03,0,0,0,0,0,.01,0,0,0,.02,0,.03,0,0,0,0,0,.01,0,0,0,.02,0,.03,0,0,0,0,0,.01,0,0,0,.02,0,.03,0,0,0,0,0,.01,0,0,0,.02,0,.03,0h0c.94.18,1.87.38,2.8.59l1.76-7.81c-1.55-.35-3.14-.67-4.71-.95h0Zm-7.61-1.09l-.85,7.96c.36.04.71.08,1.07.12,0,0,0,0,0,0,0,0,.02,0,.03,0,0,0,.01,0,.02,0,0,0,.01,0,.02,0,0,0,.02,0,.02,0,0,0,0,0,.01,0,.01,0,.03,0,.04,0h0s.02,0,.04,0h0s.02,0,.03,0h0s.02,0,.03,0h0s.03,0,.04,0h0c.79.1,1.58.2,2.36.31,0,0,0,0,.01,0,0,0,.02,0,.02,0,0,0,0,0,.02,0,0,0,.01,0,.02,0,0,0,.01,0,.02,0,0,0,0,0,.01,0,0,0,.02,0,.02,0,0,0,0,0,0,0,.18.03.36.05.55.08l1.2-7.92c-1.57-.24-3.18-.45-4.76-.62h0Zm-7.66-.55l-.29,8c.39.01.79.03,1.18.05,0,0,0,0,.01,0,0,0,.01,0,.02,0,0,0,.01,0,.02,0,0,0,.01,0,.02,0,0,0,.01,0,.02,0,0,0,0,0,.02,0,0,0,.02,0,.03,0,0,0,0,0,.01,0,.04,0,.08,0,.12,0h0s.03,0,.04,0h0c.66.03,1.31.07,1.97.12h0s.02,0,.03,0c0,0,0,0,0,0,0,0,.02,0,.03,0,0,0,0,0,.01,0,0,0,.02,0,.02,0,0,0,.01,0,.01,0,0,0,.02,0,.03,0,0,0,0,0,0,0,.01,0,.02,0,.04,0,0,0,.02,0,.02,0,0,0,0,0,.01,0,.01,0,.02,0,.03,0,0,0,0,0,.01,0,0,0,.02,0,.03,0,0,0,0,0,.01,0,0,0,.02,0,.03,0,0,0,0,0,0,0,.22.02.44.03.65.05l.64-7.98c-1.59-.13-3.2-.22-4.79-.28h0Zm-4.05-.07v8.01h.09s.02,0,.03,0h0c.32,0,.64,0,.97,0L110.19,0c-.39,0-.78,0-1.18,0h0Z" style="fill: #4bd996; stroke-width: 0px;"/>
        <circle cx="109.01" cy="109.01" r="101" style="fill: none; stroke: #fff; stroke-miterlimit: 10; stroke-width: 12.46px;"/>
        <circle cx="109.01" cy="109.01" r="101" style="fill: #41d992; opacity: .39; stroke-width: 0px;"/>
      </g>
      <g>
        <g>
          <g>
            <polygon points="167.84 117.16 83.13 115.2 55.81 118.52 55.81 132.24 109.82 144.4 167.82 127.96 167.84 127.66 167.84 117.16" style="fill: #fff; stroke-width: 0px;"/>
            <path d="m112.66,132.77v11.06l-55.98-11.4s-3.06-11.6,1.03-13.52c4.09-1.92,54.95,13.86,54.95,13.86Z" style="fill: #c6d2db; stroke-width: 0px;"/>
            <polygon points="168.64 114.7 158.23 117.14 116.24 109.02 67.74 118.48 56.68 116.19 56.68 120.64 112.66 132.77 168.64 119.15 168.64 114.7" style="fill: #2a95f5; stroke-width: 0px;"/>
            <polygon points="168.64 114.7 112.66 128.33 56.68 116.19 116.24 104.57 168.64 114.7" style="fill: #45c0ff; stroke-width: 0px;"/>
            <path d="m164.44,128.42s-51.66,13.76-52.43,13.76c-.69,0-45.28-9.01-53.89-10.65-1.73-4.15.16-10.9.16-10.9l-.56-1.72h-.01c1.11-1.6-1.03-2.73-1.03-2.73,0,0-1.48-.48-2.47,3.84-.33,1.42-.44,3.37-.44,5.34,0,.08.12,6.7,1.2,8.29l56.71,13.22,57.41-16.4v-3.26l-4.64,1.21Z" style="fill: #2a95f5; stroke-width: 0px;"/>
            <path d="m61.21,126.43s-1.37,12.42-.7,12.29c.67-.13,3.77-2.77,3.77-2.77,0,0,4,5.45,4,4.78s1.47-12.44,1.47-12.44l-8.54-1.85Z" style="fill: #f54f91; stroke-width: 0px;"/>
          </g>
          <path d="m84.66,112.62c.78.28,31.83-5.87,31.83-5.87l27.17,5.05-58.99.82Z" style="fill: #2a95f5; stroke-width: 0px;"/>
          <polygon points="78.6 118.52 113.38 123.86 145.52 116.94 78.6 118.52" style="fill: #2a95f5; stroke-width: 0px;"/>
        </g>
        <g>
          <g>
            <polygon points="51.94 101.13 136.65 99.17 163.96 102.49 163.96 116.21 109.96 128.37 51.96 111.93 51.94 111.63 51.94 101.13" style="fill: #c6d2db; stroke-width: 0px;"/>
            <path d="m107.12,116.75v11.06l55.98-11.4s3.06-11.6-1.03-13.52c-4.09-1.92-54.95,13.86-54.95,13.86Z" style="fill: #fff; stroke-width: 0px;"/>
            <polygon points="51.14 98.67 61.55 101.11 103.54 92.99 152.04 102.45 163.1 100.16 163.1 104.61 107.12 116.75 51.14 103.12 51.14 98.67" style="fill: #d71d5c; stroke-width: 0px;"/>
            <polygon points="51.14 98.67 107.12 112.3 163.1 100.16 103.54 88.54 51.14 98.67" style="fill: #f75392; stroke-width: 0px;"/>
            <path d="m55.34,112.39s51.66,13.76,52.43,13.76c.69,0,45.28-9.01,53.89-10.65,1.73-4.15-.16-10.9-.16-10.9l.56-1.72h.01c-1.11-1.6,1.03-2.73,1.03-2.73,0,0,1.48-.48,2.47,3.84.33,1.42.44,3.37.44,5.34,0,.08-.12,6.7-1.2,8.29l-56.71,13.22-57.41-16.4v-3.26l4.64,1.21Z" style="fill: #d71d5c; stroke-width: 0px;"/>
          </g>
          <polygon points="130.16 97.43 94.19 105.23 107.12 108.37 144.6 100.24 130.16 97.43" style="fill: #fe84ab; stroke-width: 0px;"/>
        </g>
        <g>
          <path d="m112.01,65.8l-41.49,4.96v26.56s11.54,8.07,41.49,8.07,41.49-8.07,41.49-8.07v-26.56l-41.49-4.96Z" style="fill: #1d4a69; stroke-width: 0px;"/>
          <path d="m139.7,69.11h0c0,15.95-12.12,29.3-27.99,30.79-4.01.37-8.5.6-13.5.6-11.59,0-20.42-1.21-26.89-2.69,3.06,1.74,15.21,7.58,40.69,7.58,29.95,0,41.49-8.07,41.49-8.07v-26.56l-13.8-1.65Z" style="fill: #1a3e57; stroke-width: 0px;"/>
          <polygon points="112.01 48.66 45.01 65.8 45.01 67.99 112.01 85.13 179.01 67.99 179.01 65.8 112.01 48.66" style="fill: #1c5f8c; stroke-width: 0px;"/>
          <polygon points="112.01 48.66 45.01 65.8 112.01 82.94 179.01 65.8 112.01 48.66" style="fill: #2271a9; stroke-width: 0px;"/>
          <polygon points="91.55 77.71 118.22 50.25 112.01 48.66 45.01 65.8 91.55 77.71" style="fill: #2880b5; stroke-width: 0px;"/>
          <path d="m162.41,101.59l-.69-.02s.09-2.93,0-7.6c-.03-1.5-.08-2.15-.12-2.73-.09-1.21-.15-2.01.09-9.64.01-.44.04-.91.07-1.4.16-2.97.36-6.67-1.87-8.57-1.71-1.46-4.13-1.52-6.47-1.57-.92-.02-1.79-.04-2.62-.14-4.26-.53-8.6-.99-12.8-1.44l-3.12-.34c-10.27-1.11-19.07-1.98-19.16-1.99l.07-.69c.09,0,8.89.88,19.16,1.99l3.12.34c4.2.45,8.54.92,12.81,1.44.79.1,1.65.12,2.55.14,2.47.06,5.01.11,6.91,1.74,2.49,2.13,2.28,6.02,2.11,9.14-.03.48-.05.95-.06,1.39-.23,7.6-.18,8.38-.09,9.57.04.58.09,1.24.12,2.76.09,4.69,0,7.61,0,7.63Z" style="fill: #ffc501; stroke-width: 0px;"/>
          <path d="m116.51,65.8c0,1.1-2.02,1.99-4.5,1.99s-4.5-.89-4.5-1.99,2.02-1.99,4.5-1.99,4.5.89,4.5,1.99Z" style="fill: #1d4a69; stroke-width: 0px;"/>
          <g>
            <path d="m164.3,98.7c0,1.26-1.02,2.27-2.27,2.27s-2.27-1.02-2.27-2.27,1.02-2.27,2.27-2.27,2.27,1.02,2.27,2.27Z" style="fill: #ffc501; stroke-width: 0px;"/>
            <path d="m162.02,99.9c-1.78,0-2.13-.33-2.13-.33v1.84h4.25v-1.84s-.34.33-2.12.33Z" style="fill: #fd8703; stroke-width: 0px;"/>
            <g>
              <path d="m165.13,102.05c-.72-.95-1.85-1.55-3.06-1.55-1.34,0-2.61.73-3.29,1.89-1.68,2.84-.36,7.08,1.49,9.52.11.15.22.3.32.45.02.04.05.07.07.11.08.12.16.24.23.36.02.03.04.06.05.09.08.13.16.27.23.4,0,.02.02.03.03.05.08.15.16.3.24.45.29.58.52,1.14.7,1.61,1.07-.93,1.82-2.14,2.51-3.36.73-1.29,1.36-2.63,1.6-4.11.64-3.91-1.11-5.93-1.11-5.92Z" style="fill: #ffc501; stroke-width: 0px;"/>
              <path d="m160.87,101.25s-.12.12-.29.35c-.18.22-.41.56-.64.99-.13.21-.23.45-.34.7-.05.13-.09.26-.14.4-.05.14-.1.28-.13.42-.04.15-.07.29-.11.44-.02.15-.04.31-.06.46l-.03.23v.24s-.01.48-.01.48c.02.32.05.64.1.95.08.3.13.61.22.9.11.28.2.56.29.82.12.25.24.49.34.71.05.11.1.22.15.32.06.1.11.19.16.27.1.17.19.32.27.44.15.25.23.39.23.39,0,0-.1-.13-.28-.35-.09-.11-.2-.25-.32-.41-.06-.08-.13-.17-.2-.26-.06-.1-.12-.2-.18-.31-.12-.22-.26-.45-.4-.7-.11-.26-.23-.54-.35-.83-.1-.3-.17-.62-.26-.93-.06-.33-.09-.66-.12-1v-.51s.02-.25.02-.25l.04-.25c.03-.16.05-.33.08-.49.04-.16.09-.31.13-.46.04-.15.09-.3.16-.44.06-.14.11-.28.18-.41.14-.25.26-.5.41-.7.13-.21.28-.39.41-.55.13-.15.25-.28.35-.38.2-.21.34-.3.34-.3Z" style="fill: #ff8c03; stroke-width: 0px;"/>
              <path d="m161.64,101.25s-.03.17-.1.47c-.03.15-.06.33-.1.54-.04.21-.07.44-.12.7-.08.51-.16,1.11-.22,1.76-.04.32-.05.65-.07.99-.03.34-.02.68-.03,1.02,0,.34.02.69.03,1.02.04.33.06.67.1.98.06.31.09.62.16.91.08.28.14.56.21.8.09.24.17.46.24.66.06.2.17.35.23.49.13.27.21.43.21.43,0,0-.1-.14-.27-.4-.08-.13-.2-.28-.29-.47-.09-.19-.2-.41-.31-.65-.09-.25-.18-.52-.27-.81-.09-.29-.15-.6-.22-.93-.05-.32-.09-.66-.13-1.01-.01-.35-.04-.7-.04-1.05.01-.35,0-.7.04-1.05.02-.34.06-.68.1-1.01.03-.33.1-.64.15-.93.05-.3.12-.57.18-.83.12-.51.25-.93.34-1.22.09-.29.16-.45.16-.45Z" style="fill: #ff8c03; stroke-width: 0px;"/>
              <path d="m162.2,102.47s.06.16.14.44c.07.29.19.69.28,1.19.05.25.09.52.15.8.04.29.1.59.13.9.08.63.13,1.3.15,1.98.02.34,0,.68,0,1.01,0,.33-.02.66-.03.98,0,.32-.05.62-.07.91-.02.29-.06.56-.1.81-.06.5-.15.91-.21,1.2-.06.29-.1.45-.1.45,0,0,.01-.17.03-.46.01-.15.03-.32.04-.53.01-.2.03-.43.04-.69.02-.25.04-.52.04-.81,0-.29.02-.59.02-.9,0-.31.01-.64,0-.97,0-.33,0-.66-.02-1-.01-.67-.06-1.33-.1-1.96-.05-.62-.1-1.21-.16-1.71-.06-.5-.11-.91-.16-1.21-.05-.29-.07-.46-.07-.46Z" style="fill: #ff8c03; stroke-width: 0px;"/>
              <path d="m162.54,101.12s.09.13.22.38c.13.25.31.6.49,1.04.18.44.36.97.53,1.54.07.29.16.59.21.9.06.31.12.62.16.94.05.32.07.63.09.95.03.31.02.62.02.92,0,.3-.03.59-.05.86-.01.14-.03.27-.04.4-.02.13-.04.25-.06.37-.04.24-.07.45-.12.64-.05.19-.1.35-.13.48-.08.27-.12.42-.12.42,0,0,.02-.16.06-.43.02-.14.04-.3.07-.49.02-.19.03-.41.05-.64.01-.12.02-.24.03-.37,0-.13,0-.26,0-.39,0-.27.01-.55,0-.84,0-.29-.02-.59-.05-.9-.02-.31-.05-.62-.1-.93-.03-.31-.09-.62-.14-.92-.05-.3-.12-.6-.18-.89-.07-.28-.13-.56-.2-.82-.07-.26-.14-.51-.21-.73-.14-.45-.26-.82-.36-1.08-.1-.26-.16-.41-.16-.41Z" style="fill: #ff8c03; stroke-width: 0px;"/>
              <path d="m164.3,102.47s.29.58.56,1.52c.06.24.14.49.19.76.06.27.12.56.16.87.05.3.08.62.11.94.02.32.03.65.03.98-.02.33-.02.66-.07.98-.04.32-.08.64-.16.94-.07.3-.13.59-.24.85-.1.26-.17.52-.29.74-.11.22-.21.42-.3.6-.11.17-.21.31-.29.43-.16.23-.26.36-.26.36,0,0,.07-.14.2-.4.06-.13.15-.27.23-.45.07-.18.15-.39.24-.61.1-.22.15-.48.23-.74.09-.26.12-.55.18-.84.07-.29.08-.6.12-.91.04-.31.03-.63.05-.95,0-.32,0-.64-.02-.95-.03-.31-.03-.62-.07-.92-.03-.3-.06-.59-.11-.86-.03-.27-.09-.53-.13-.77-.1-.47-.18-.87-.25-1.14-.07-.27-.11-.43-.11-.43Z" style="fill: #ff8c03; stroke-width: 0px;"/>
            </g>
          </g>
        </g>
        <g>
          <g>
            <path d="m146.72,174.72s-8.8-2.01-13.36-7.75c-4.56-5.74-10.95-7.92-10.95-7.92l3.42-1.54c.73-.33,3.06.77,3.72,1.02,3.8,1.48,6.64,4.65,10.45,6.21,2.81,1.15,6.94,2.9,10.04,2.01,0,0,.8,5.66-3.31,7.97Z" style="fill: #ce4538; stroke-width: 0px;"/>
            <path d="m131.28,173.16s-.06-7.09-3.69-11.55c-3.63-4.47-4.22-9.74-4.22-9.74l-1.76,2.36c-.37.5.07,2.48.16,3.03.49,3.17,2.44,5.88,3,9.06.41,2.35,1.06,5.81-.15,8.04,0,0,4.2,1.57,6.67-1.2Z" style="fill: #ce4538; stroke-width: 0px;"/>
          </g>
          <g>
            <path d="m74.39,159.93s2.17,6.84,8.93,16.03c-.13-.36,12.69-6.6,13.64-7.08,7.48-3.82,15.1-7.02,23.18-9.23,2.84-.78,5.69-1.46,8.52-2.27,2.79-.79,5.58-1.58,8.39-2.28,7.29-1.81,19.43-2.39,19.43-2.39l-4.58-3.38-61.31,8.24-6.96-9.04-9.25,11.4Z" style="fill: #dbdbdb; stroke-width: 0px;"/>
            <path d="m153.66,138.1c-1.64-.97-3.18-1.11-3.18-1.11,0,0-27.34,4.01-38.03,5.34-10.69,1.34-34.82,2.99-34.82,2.99l5.59,23.83c2.54-1.32,31.03-9.66,39.59-12.27,8.56-2.6,31.3-7.15,31.3-7.15.6-.43,1.04-.98,1.38-1.59,1.94-3.53,1.56-8.05-1.83-10.05Z" style="fill: #f4f4f4; stroke-width: 0px;"/>
            <path d="m156.58,144.87c-.25.3-.53.57-.86.8,0,0-23.87,4.71-32.85,7.41-8.32,2.51-34.58,10.13-40.52,12.33l.88,3.74c2.54-1.32,31.03-9.66,39.59-12.27,8.56-2.6,31.3-7.15,31.3-7.15.6-.43,1.04-.98,1.38-1.59.57-1.04.94-2.16,1.09-3.28Z" style="fill: #ededed; stroke-width: 0px;"/>
            <path d="m82.99,169.22c-2.39.65-7.33-4-8.98-10.58-1.65-6.58.61-12.58,3.01-13.24,2.39-.65,5.67,4.15,7.32,10.73,1.65,6.58,1.05,12.44-1.34,13.09Z" style="fill: #c5c9c9; stroke-width: 0px;"/>
            <g>
              <path d="m85.08,160.14c-.1.03-.2.05-.31.05-1.65.02-3.01-4.95-3.01-4.95l1.55-2.47c-.57-1.53-1.21-2.89-1.9-4.02h-.05s-2.56.81-2.98,4.99c-.07.7-.05,1.39.05,2.05h0s.26,2.36,1.52,4.59h0c2.02,4.02,4.27,4.17,5.29,3.99.09-1.26.04-2.69-.14-4.24Z" style="fill: #babdbd; stroke-width: 0px;"/>
              <path d="m84.77,160.19c.11,0,.22-.02.31-.05-.15-1.28-.4-2.63-.74-4.01-.3-1.18-.65-2.31-1.04-3.36l-1.55,2.47s1.37,4.97,3.01,4.95Z" style="fill: #a8abab; stroke-width: 0px;"/>
            </g>
            <path d="m122.55,140.82c-2.58-.41-5.13.86-5.13.86,0,0,9.07,5.87,4.97,17.37,2.56.23,5.31-1.4,5.31-1.4,4.1-11.5-5.15-16.83-5.15-16.83Z" style="fill: #e54c3c; stroke-width: 0px;"/>
          </g>
        </g>
      </g>
    </g>
  </g>
</svg>