<?xml version="1.0" encoding="UTF-8"?>
<svg id="_圖層_2" data-name="圖層 2" xmlns="http://www.w3.org/2000/svg" width="218.01" height="218.02" viewBox="0 0 218.01 218.02">
  <g id="_圖層_8" data-name="圖層 8">
    <g id="Topic_exploration12">
      <g>
        <path d="m109.01,0c-1.59,0-3.21.03-4.8.1l.35,8c.38-.02.77-.03,1.15-.04,0,0,0,0,.01,0,0,0,.02,0,.02,0,0,0,.01,0,.02,0,0,0,.01,0,.02,0,0,0,.01,0,.02,0h.02s.01,0,.02,0c0,0,0,0,0,0,.03,0,.06,0,.1,0,0,0,0,0,0,0,.01,0,.02,0,.03,0,0,0,0,0,0,0,.64-.02,1.27-.03,1.91-.04,0,0,0,0,0,0,.01,0,.02,0,.03,0h0s.02,0,.03,0h0s.09,0,.13,0c0,0,0,0,0,0,.01,0,.02,0,.03,0,0,0,0,0,0,0,0,0,.02,0,.03,0,0,0,0,0,.01,0,0,0,.02,0,.03,0,0,0,0,0,.01,0,.01,0,.02,0,.03,0,0,0,0,0,0,0,.02,0,.04,0,.06,0h0s.02,0,.03,0c0,0,0,0,.01,0,0,0,.02,0,.02,0,0,0,.01,0,.02,0,0,0,.01,0,.02,0,0,0,.01,0,.02,0,0,0,.01,0,.02,0,0,0,.01,0,.02,0,0,0,.01,0,.02,0,0,0,.02,0,.02,0,0,0,.01,0,.02,0h.03s.01,0,.02,0c0,0,.02,0,.02,0,0,0,.01,0,.02,0,0,0,.01,0,.02,0,0,0,0,0,.02,0,0,0,.01,0,.02,0,0,0,0,0,.02,0,0,0,.02,0,.03,0,0,0,0,0,.01,0,.01,0,.02,0,.03,0h.01s.02,0,.03,0h.01s.02,0,.02,0h.02s.02,0,.02,0h.04s0,0,.02,0h.08V0h0Zm-7.67.27c-1.59.11-3.2.26-4.78.44l.91,7.96c.83-.09,1.66-.18,2.49-.25h0s.02,0,.04,0h0s.02,0,.03,0h0s.02,0,.03,0h0s.02,0,.03,0c0,0,0,0,0,0,.03,0,.05,0,.08,0,0,0,0,0,.01,0,0,0,.02,0,.03,0,0,0,.01,0,.01,0,0,0,.01,0,.02,0,0,0,.01,0,.02,0,0,0,.01,0,.02,0,0,0,.02,0,.02,0,0,0,0,0,.01,0,.01,0,.01,0,.02,0,0,0,0,0,.01,0,.03,0,.06,0,.09,0,0,0,0,0,0,0,.01,0,.02,0,.03,0,0,0,0,0,0,0,0,0,.02,0,.03,0,0,0,0,0,0,0,.01,0,.02,0,.03,0,0,0,0,0,0,0,.44-.04.88-.07,1.32-.1l-.56-7.99h0Zm-7.64.8c-1.58.22-3.17.48-4.74.77l1.46,7.87c1.45-.27,2.92-.51,4.39-.72l-1.12-7.93h0Zm-7.57,1.34c-1.56.33-3.13.71-4.67,1.11l2.02,7.75c1.05-.27,2.1-.53,3.16-.77,0,0,0,0,.01,0,0,0,.01,0,.02,0,0,0,.01,0,.02,0,0,0,.01,0,.02,0,0,0,.01,0,.02,0,0,0,0,0,.02,0,0,0,.02,0,.02,0,0,0,0,0,.01,0,0,0,.02,0,.02,0,0,0,0,0,.01,0,.33-.07.66-.15.99-.22l-1.67-7.83h0Zm-7.45,1.87c-1.53.44-3.07.93-4.58,1.44l2.56,7.59c.51-.17,1.02-.34,1.54-.51,0,0,0,0,.01,0,.02,0,.04-.01.06-.02,0,0,.02,0,.02,0,.01,0,.02,0,.04-.01.01,0,.02,0,.04-.01,0,0,.01,0,.02,0,.02,0,.04-.01.05-.02,0,0,.01,0,.02,0,.02,0,.03-.01.05-.02,0,0,0,0,.01,0,.02,0,.04-.01.06-.02,0,0,0,0,0,0,.77-.24,1.55-.48,2.33-.7l-2.22-7.69h0Zm-7.3,2.4c-1.5.55-3,1.14-4.47,1.76l3.1,7.39c.75-.31,1.5-.62,2.25-.91,0,0,0,0,0,0,.02,0,.04-.02.06-.02,0,0,0,0,0,0,.02,0,.04-.01.06-.02,0,0,0,0,.01,0,.02,0,.04-.01.05-.02,0,0,.01,0,.02,0,.02,0,.03-.01.04-.02,0,0,.02,0,.03-.01,0,0,.03-.01.03-.01.01,0,.02,0,.04-.01.01,0,.02,0,.03-.01.01,0,.02,0,.03-.01,0,0,0,0,.01,0,.02,0,.04-.02.06-.02h0c.47-.18.94-.36,1.41-.53l-2.76-7.52h0Zm-7.11,2.91c-1.45.65-2.91,1.35-4.33,2.07l3.61,7.15c.14-.07.29-.15.43-.22h0s.04-.02.06-.03c0,0,0,0,0,0,.02,0,.03-.02.05-.03,0,0,0,0,0,0,.02,0,.04-.02.06-.03,0,0,0,0,0,0,.02,0,.03-.02.05-.02,0,0,0,0,.01,0,.02,0,.03-.02.05-.02,0,0,.01,0,.02,0,.01,0,.03-.02.05-.02,0,0,.01,0,.02,0,.01,0,.03-.02.04-.02,0,0,.01,0,.02,0,.01,0,.03-.01.04-.02,0,0,.02,0,.02-.01.01,0,.02-.01.03-.02.01,0,.02-.01.03-.02,0,0,.02-.01.03-.02,0,0,.02,0,.03-.01.01,0,.02-.01.04-.02,0,0,.02,0,.02-.01.01,0,.03-.01.04-.02,0,0,.02,0,.02-.01.01,0,.02-.01.03-.02.01,0,.02-.01.03-.02,0,0,.02,0,.03-.01.01,0,.03-.01.04-.02,0,0,.02,0,.03-.01.01,0,.02-.01.04-.02,0,0,.02-.01.03-.01,0,0,.02,0,.03-.01.01,0,.03-.01.04-.02,0,0,.02,0,.03-.01.01,0,.03-.01.04-.02,0,0,.02,0,.03-.01.01,0,.02,0,.03-.01.01,0,.02-.01.03-.02,0,0,.02,0,.03-.01.01,0,.02-.01.03-.02,0,0,.02-.01.03-.01.01,0,.02,0,.03-.01.01,0,.02-.01.03-.02,0,0,.02,0,.02-.01.01,0,.03-.01.04-.02,0,0,.02,0,.03-.01.01,0,.02-.01.04-.02,0,0,.02,0,.03-.01,0,0,.02-.01.03-.01.01,0,.02-.01.03-.02,0,0,.02,0,.03-.01.01,0,.02,0,.03-.01.01,0,.02-.01.04-.02,0,0,.02,0,.02-.01.01,0,.03-.01.04-.02,0,0,.01,0,.02-.01.01,0,.03-.01.04-.02,0,0,.01,0,.02,0,.01,0,.03-.01.04-.02,0,0,.01,0,.02-.01.01,0,.03-.01.04-.02,0,0,.01,0,.02,0,.01,0,.03-.01.04-.02,0,0,.01,0,.02,0,.01,0,.03-.01.05-.02,0,0,.01,0,.02,0,.02,0,.03-.01.05-.02,0,0,.01,0,.02,0,.01,0,.03-.02.05-.02,0,0,0,0,.01,0,.01,0,.03-.02.05-.02,0,0,0,0,.01,0,.01,0,.04-.02.05-.02,0,0,0,0,.01,0,.02,0,.04-.02.05-.02,0,0,0,0,.01,0,.02,0,.04-.02.05-.02,0,0,0,0,.01,0,.02,0,.03-.02.05-.03,0,0,0,0,0,0,.02,0,.04-.02.06-.03,0,0,0,0,0,0,.02,0,.04-.02.06-.03,0,0,0,0,0,0,.02,0,.04-.02.06-.03,0,0,0,0,0,0,.02,0,.04-.02.06-.03,0,0,0,0,0,0,.02,0,.04-.02.06-.03,0,0,0,0,0,0,.02,0,.04-.02.06-.03,0,0,0,0,0,0,.04-.02.08-.04.12-.06h0s.04-.02.06-.03c0,0,0,0,0,0,.02,0,.04-.02.06-.03,0,0,0,0,0,0,.08-.04.17-.08.25-.11,0,0,0,0,0,0,.02,0,.04-.02.06-.03,0,0,0,0,0,0,.02,0,.04-.02.06-.03,0,0,0,0,0,0,.02,0,.04-.02.06-.03l-3.29-7.3h0Zm-6.89,3.4c-1.4.76-2.81,1.55-4.18,2.37l4.11,6.88c1.16-.69,2.34-1.36,3.53-2.01,0,0,0,0,0,0,.02,0,.03-.02.05-.03,0,0,.01,0,.02-.01.01,0,.02-.01.04-.02.01,0,.02,0,.03-.02,0,0,.02,0,.02-.01.01,0,.03-.02.04-.02,0,0,.01,0,.02,0,.01,0,.03-.02.05-.03,0,0,0,0,.01,0,.02,0,.04-.02.05-.03,0,0,0,0,0,0l-3.8-7.05h0Zm-6.63,3.88c-1.35.85-2.69,1.75-4,2.66l4.58,6.57h.02s.02-.02.02-.03c.01,0,.02-.01.03-.02.01,0,.02-.01.03-.02,0,0,.01,0,.02-.01.01,0,.03-.02.04-.03,0,0,.01,0,.02-.01.02-.01.03-.02.04-.03,0,0,0,0,.01,0,.02-.01.03-.02.05-.03,0,0,0,0,0,0,.02-.01.03-.02.05-.03,0,0,0,0,0,0,.04-.03.07-.05.11-.08h0s.04-.03.06-.04c0,0,0,0,0,0,.02-.01.04-.03.06-.04,0,0,0,0,0,0,.65-.44,1.3-.88,1.96-1.31,0,0,0,0,0,0,.02-.01.04-.02.05-.03,0,0,0,0,0,0,.02-.01.03-.02.05-.03,0,0,0,0,.01,0,.02-.01.03-.02.05-.03,0,0,0,0,.01,0,.01,0,.03-.02.04-.03,0,0,.01,0,.02-.01.01,0,.02-.01.03-.02,0,0,.01,0,.02-.01.01,0,.02-.01.04-.02,0,0,.02-.01.02-.02.01,0,.02-.02.03-.02,0,0,.02-.01.03-.02,0,0,.01,0,.02-.01.02-.01.03-.02.05-.03,0,0,0,0,0,0,.02-.01.04-.02.06-.04h0c.2-.13.41-.26.62-.4l-4.29-6.77h0Zm-6.34,4.34c-1.28.94-2.56,1.93-3.8,2.93l5.03,6.23c.29-.23.58-.46.87-.69,0,0,0,0,0,0,.01-.01.04-.03.05-.04,0,0,0,0,0,0,.02-.01.03-.02.05-.04,0,0,0,0,0,0,.01-.01.03-.03.05-.04,0,0,0,0,0,0,.01-.01.03-.03.05-.04,0,0,0,0,0,0,.01-.01.03-.02.05-.04,0,0,0,0,0,0,.01,0,.03-.02.04-.03,0,0,0,0,.01,0,.01-.01.03-.02.04-.03,0,0,0,0,.01-.01.01-.01.03-.02.04-.03,0,0,.01,0,.02-.01.01,0,.03-.02.04-.03,0,0,.01,0,.02-.01.01,0,.03-.02.04-.03,0,0,.01,0,.02-.01.01,0,.02-.02.03-.03,0,0,.01-.01.02-.02.01,0,.02-.02.03-.02,0,0,.02-.01.02-.02.01,0,.02-.02.03-.02,0,0,.01-.01.02-.02.01,0,.02-.02.03-.03,0,0,.02-.01.02-.02,0,0,.02-.02.03-.03,0,0,.02-.01.02-.02.01,0,.01-.01.02-.02.01,0,.02-.02.03-.03,0,0,.01,0,.02-.02.01,0,.03-.02.04-.03,0,0,.01-.01.02-.01.01,0,.03-.02.04-.03,0,0,.01,0,.02-.01l.04-.03s.01-.01.02-.01c0,0,.02-.01.03-.02,0,0,.01-.01.02-.02.01,0,.02-.02.04-.03,0,0,.01,0,.01-.01.01-.01.03-.02.04-.03,0,0,0,0,.01-.01.02-.01.03-.02.05-.04,0,0,0,0,0,0,.02-.01.03-.03.05-.04,0,0,0,0,0,0,.07-.05.14-.11.21-.16h0c.36-.27.72-.55,1.09-.81l-4.75-6.45h0Zm-6.02,4.77c-1.21,1.03-2.42,2.11-3.59,3.19l5.45,5.87c.87-.81,1.76-1.61,2.66-2.39h0s.04-.03.05-.05h0s.03-.03.05-.05c0,0,0,0,0,0,.01-.01.03-.03.04-.04,0,0,0,0,.01-.01,0,0,.02-.01.03-.02,0,0,.02-.02.03-.03,0,0,.01-.01.02-.02.01-.01.02-.02.03-.03,0,0,.01,0,.02-.01.01-.01.02-.02.03-.03,0,0,0,0,.01-.01.01-.01.03-.02.04-.03,0,0,0,0,0,0,.01-.01.03-.03.05-.04,0,0,0,0,0,0,.02-.01.03-.03.05-.04,0,0,0,0,0,0,.05-.05.11-.09.16-.14l-5.19-6.1h0Zm-5.67,5.18c-1.14,1.11-2.27,2.27-3.35,3.43l5.85,5.47c.78-.83,1.56-1.65,2.37-2.45,0,0,0,0,0,0,.02-.02.03-.03.05-.05,0,0,0,0,0,0,.02-.02.03-.03.04-.04,0,0,0,0,0,0,.01-.01.03-.03.04-.04h.01s.02-.03.03-.04c0,0,.01-.01.02-.02,0,0,.02-.02.03-.03,0,0,.01-.01.02-.02.01-.01.02-.02.03-.03,0,0,.02-.02.02-.02h0s.03-.04.05-.05h0s.03-.04.05-.05h0c.11-.11.22-.21.33-.32l-5.61-5.72h0Zm-5.29,5.56c-1.06,1.19-2.1,2.42-3.11,3.66l6.22,5.05s.04-.05.06-.07c0,0,0,0,0-.01l.04-.04s.01-.02.02-.03c0,0,.01-.02.02-.02,0-.01.02-.02.03-.03,0,0,0-.01.01-.02.01-.01.02-.03.03-.04,0,0,0,0,0-.01.01-.01.03-.03.04-.05,0,0,0,0,0,0,.01-.02.03-.03.04-.05,0,0,0,0,0,0,.01-.02.03-.03.04-.05,0,0,0,0,0,0,.34-.41.68-.82,1.02-1.23,0,0,0,0,0,0,.01-.02.03-.03.04-.05,0,0,0,0,0,0,.01-.02.03-.03.04-.05h0s.03-.04.04-.05c0,0,0,0,0,0,.01-.02.03-.03.04-.05,0,0,0,0,0,0,.01-.01.03-.03.04-.04,0,0,0,0,0-.01.01-.01.02-.03.04-.04,0,0,0,0,.01-.01.01-.01.02-.03.03-.04,0,0,0-.01.01-.02.01-.01.02-.03.03-.04,0,0,0-.01.01-.02,0,0,.02-.02.02-.03l.02-.03s.01-.01.02-.02c0-.01.02-.02.03-.03,0,0,.01-.01.02-.02,0-.01.02-.02.03-.03,0,0,.01-.02.02-.02.02-.03.05-.05.07-.08,0,0,0,0,0,0,.01-.02.03-.03.04-.05,0,0,0,0,0,0,.01-.02.03-.03.04-.05h0c.26-.31.53-.61.8-.92l-5.99-5.31h0Zm-4.89,5.92c-.97,1.26-1.93,2.57-2.84,3.87l6.56,4.6c.85-1.22,1.73-2.41,2.63-3.59l-6.35-4.88h0Zm-4.46,6.25c-.88,1.33-1.74,2.69-2.56,4.06l6.87,4.12c.14-.24.29-.48.43-.71,0,0,0,0,0,0,.01-.02.02-.04.04-.06h0s.02-.04.03-.06c0,0,0,0,0,0,.01-.02.02-.04.04-.06,0,0,0,0,0,0,.02-.04.05-.08.07-.12,0,0,0,0,0,0,.01-.02.02-.04.03-.05,0,0,0,0,0,0,0-.02.02-.04.03-.05,0,0,0,0,0,0,.01-.02.02-.03.03-.05,0,0,0,0,0,0,.01-.02.02-.04.03-.05,0,0,0,0,0,0,.01-.02.02-.03.03-.05,0,0,0,0,0,0,.01-.02.02-.03.03-.05,0,0,0,0,0,0,.01-.02.02-.03.03-.05,0,0,0,0,0-.01.01-.02.02-.03.03-.05,0,0,0,0,0,0,.01-.02.02-.03.03-.05,0,0,0,0,0-.01.01-.02.02-.03.03-.05,0,0,0,0,0,0,.01-.02.02-.03.03-.05,0,0,0,0,0-.01.01-.02.02-.03.03-.05,0,0,0,0,0-.01,0-.01.02-.03.03-.05v-.02s.03-.03.04-.04c0,0,0-.01.01-.02,0-.01.02-.03.03-.04,0,0,0-.01.01-.02,0-.01.02-.03.03-.04,0,0,0-.01,0-.02,0-.01.02-.03.03-.04,0,0,0,0,0-.01.01-.02.02-.03.03-.04,0,0,0,0,0-.01,0-.01.02-.03.03-.04,0,0,0-.01.01-.02.01-.02.02-.03.03-.04v-.02s.03-.03.04-.05c0,0,0,0,0-.01,0-.01.02-.03.03-.04,0,0,0,0,0-.01,0-.01.02-.03.03-.04,0,0,0,0,0-.01.01-.02.02-.03.03-.05,0,0,0,0,0-.01.01-.02.02-.03.03-.05,0,0,0,0,0-.01.01-.02.02-.03.03-.05,0,0,0,0,0-.01.01-.02.02-.03.03-.05,0,0,0,0,0-.01.01-.02.02-.03.03-.05,0,0,0,0,0,0,.01-.02.02-.03.03-.05,0,0,0,0,0,0,.01-.02.02-.03.03-.05h0s.02-.04.03-.06c0,0,0,0,0-.01.01-.02.02-.03.03-.05,0,0,0,0,0,0,.01-.02.02-.04.03-.05,0,0,0,0,0,0,.02-.04.05-.08.07-.11,0,0,0,0,0,0,.01-.02.02-.04.04-.06,0,0,0,0,0,0,.01-.02.02-.04.04-.06,0,0,0,0,0,0,.13-.19.25-.39.38-.58l-6.68-4.42h0Zm-4.01,6.55c-.78,1.39-1.55,2.81-2.27,4.23l7.14,3.63s0,0,0,0c.45-.89.92-1.77,1.39-2.64h0s.02-.04.03-.06c0,0,0,0,0,0,.03-.06.07-.12.1-.18,0,0,0,0,0,0,.01-.02.02-.04.03-.06h0s.02-.04.03-.06c0,0,0,0,0,0,.01-.02.02-.04.03-.06,0,0,0,0,0,0,.03-.06.07-.12.1-.18,0,0,0,0,0,0,.01-.02.02-.04.03-.06,0,0,0,0,0,0,.11-.2.23-.4.34-.61l-6.97-3.94h0Zm-3.54,6.82c-.68,1.44-1.35,2.91-1.97,4.38l7.38,3.12c.58-1.37,1.18-2.72,1.82-4.06l-7.23-3.44h0Zm-3.05,7.05c-.58,1.48-1.14,3-1.65,4.51l7.58,2.58c.03-.1.07-.2.1-.3h0s.01-.04.02-.06c0,0,0-.01,0-.02,0-.01,0-.02.01-.03,0-.01,0-.02.01-.04,0,0,0-.02,0-.03,0-.02,0-.03.01-.04,0,0,0-.02,0-.02,0-.01.01-.03.02-.04,0,0,0-.01,0-.02,0-.02.01-.03.02-.05,0,0,0,0,0-.01,0-.02.01-.04.02-.06,0,0,0,0,0,0,0-.02.01-.04.02-.06,0,0,0,0,0,0,0-.02.01-.04.02-.06,0,0,0,0,0,0,.26-.74.53-1.48.81-2.22,0,0,0,0,0,0,0-.02.02-.04.02-.06,0,0,0,0,0,0,0-.02.02-.04.02-.06,0,0,0,0,0,0,0-.02.02-.04.02-.06,0,0,0,0,0,0,0-.02.01-.04.02-.06,0,0,0,0,0-.01,0-.02.01-.03.02-.05v-.02s.02-.03.03-.05c0,0,0-.01,0-.02,0-.01,0-.02.01-.04,0-.01,0-.02.01-.03,0,0,0-.02.01-.03,0-.02.01-.03.02-.05,0,0,0-.01,0-.02.07-.18.14-.36.21-.54l-7.46-2.92h0Zm-2.54,7.25c-.47,1.52-.92,3.08-1.33,4.62l7.74,2.04c.38-1.44.79-2.86,1.23-4.28l-7.65-2.38h0Zm-2.02,7.41c-.36,1.55-.7,3.13-1,4.7l7.87,1.49c.05-.26.1-.51.15-.77h0s0-.03,0-.04h0s0-.02,0-.04h0s0-.02,0-.03c0,0,0,0,0-.01,0,0,0-.01,0-.02,0-.01,0-.02,0-.04,0,0,0,0,0-.01,0,0,0-.02,0-.02,0,0,0,0,0-.01,0,0,0-.02,0-.03,0,0,0,0,0,0,0,0,0-.02,0-.03,0,0,0,0,0,0,0,0,0-.02,0-.03,0,0,0,0,0,0,.15-.77.32-1.54.49-2.31,0,0,0,0,0,0,0-.02.01-.05.02-.07h0c.02-.09.04-.18.06-.27h0c.05-.2.09-.41.14-.61l-7.8-1.83h0Zm-1.49,7.54c-.25,1.57-.48,3.17-.66,4.76l7.95.93c.07-.63.15-1.27.24-1.9,0,0,0,0,0,0,0,0,0-.02,0-.03,0,0,0,0,0,0,0,0,0-.02,0-.03,0,0,0,0,0,0,0,0,0-.02,0-.03,0,0,0,0,0,0,0-.04.01-.08.02-.13,0,0,0,0,0-.01,0,0,0-.01,0-.02,0,0,0,0,0-.01,0,0,0-.01,0-.02,0,0,0-.01,0-.02,0,0,0-.01,0-.02,0,0,0,0,0-.01,0,0,0-.01,0-.02,0,0,0,0,0-.01,0-.04.01-.08.02-.12,0,0,0,0,0-.01,0,0,0-.01,0-.02,0,0,0,0,0-.01,0,0,0-.01,0-.02,0,0,0-.01,0-.02,0,0,0-.01,0-.02,0,0,0-.01,0-.02,0,0,0-.01,0-.02,0,0,0,0,0-.01,0,0,0-.02,0-.02,0,0,0,0,0,0,0-.02,0-.04,0-.06,0,0,0,0,0,0,0,0,0-.02,0-.03,0,0,0,0,0,0,0,0,0-.01,0-.02,0,0,0,0,0-.01,0,0,0-.01,0-.02,0,0,0-.01,0-.02,0,0,0-.02,0-.02,0,0,0,0,0-.01,0,0,0-.02,0-.03,0,0,0,0,0,0,0-.05.02-.11.02-.16,0,0,0,0,0,0,0,0,0-.02,0-.03,0,0,0,0,0,0,0,0,0-.02,0-.03,0,0,0,0,0,0,.07-.44.13-.89.21-1.33l-7.91-1.28h0Zm-.96,7.62c-.14,1.58-.25,3.2-.33,4.79l8,.37c.03-.72.07-1.45.12-2.16,0,0,0,0,0,0v-.03s0,0,0-.01c0,0,0-.02,0-.03,0,0,0,0,0-.02,0,0,0-.01,0-.02,0,0,0-.01,0-.02,0,0,0-.01,0-.02,0-.04,0-.08,0-.13,0,0,0,0,0,0,0-.01,0-.02,0-.03,0,0,0,0,0,0,0-.01,0-.02,0-.03,0,0,0,0,0,0,.04-.63.1-1.27.15-1.9,0,0,0,0,0,0,0,0,0-.02,0-.02,0,0,0,0,0-.01l-7.98-.72H.44Zm-.42,7.66c-.01.74-.02,1.47-.02,2.21,0,.86.01,1.72.03,2.58l8.01-.19c0-.2,0-.4-.01-.59,0,0,0,0,0,0,0,0,0-.02,0-.02,0,0,0-.01,0-.02,0,0,0-.01,0-.02,0,0,0-.02,0-.02,0,0,0,0,0-.01,0-.01,0-.02,0-.03h0s0-.03,0-.04h0c0-.43-.01-.85-.01-1.27h0s0-.03,0-.04c0,0,0,0,0,0,0-.01,0-.02,0-.03,0,0,0,0,0,0,0,0,0-.02,0-.03h0s0-.03,0-.04c0,0,0,0,0-.01,0,0,0-.02,0-.03h0s0-.03,0-.04h0v-.05s0-.02,0-.03h0v-.05h0v-.06h0s0-.05,0-.07c0,0,0,0,0-.01,0-.02,0-.03,0-.05v-.02s0-.03,0-.05c0,0,0-.01,0-.02,0-.01,0-.02,0-.04v-.02s0-.03,0-.05c0,0,0-.02,0-.03,0-.01,0-.02,0-.03,0-.02,0-.03,0-.05,0,0,0-.01,0-.02,0-.01,0-.02,0-.03h0s0-.05,0-.08h0c0-.45,0-.89.02-1.34,0-.01,0-.02,0-.03,0,0,0-.02,0-.02,0-.02,0-.04,0-.05,0,0,0,0,0,0l-8.01-.16H.02Zm8.11,7.28l-8,.4c.08,1.59.19,3.2.34,4.79l7.97-.74c-.03-.34-.06-.69-.09-1.03,0,0,0,0,0,0,0,0,0-.02,0-.03,0,0,0,0,0,0,0-.01,0-.02,0-.03,0,0,0-.01,0-.02,0,0,0-.02,0-.02,0,0,0-.02,0-.03,0,0,0,0,0,0,0-.01,0-.03,0-.04h0s0-.03,0-.04h0s0-.03,0-.04h0c-.08-1.05-.15-2.09-.2-3.15h0Zm.6,7.09l-7.95.95c.19,1.58.42,3.18.68,4.75l7.9-1.3c-.24-1.46-.45-2.93-.63-4.41h0Zm1.1,7.03l-7.86,1.51c.3,1.57.64,3.15,1.01,4.7l7.79-1.86c-.11-.45-.21-.89-.31-1.34h0s0-.03,0-.04h0s-.01-.05-.02-.08c0,0,0,0,0,0,0,0,0-.02,0-.03,0,0,0-.02,0-.02,0,0,0-.01,0-.02,0,0,0-.01,0-.02,0,0,0,0,0-.01,0,0,0-.02,0-.02,0,0,0,0,0,0,0,0,0-.02,0-.03,0,0,0,0,0,0-.2-.9-.39-1.81-.56-2.72h0Zm1.59,6.94l-7.74,2.07c.41,1.54.86,3.09,1.34,4.61l7.64-2.41c-.21-.68-.42-1.37-.62-2.06,0,0,0,0,0,0,0-.02-.01-.04-.02-.06,0,0,0,0,0,0,0-.02-.01-.05-.02-.06,0,0,0,0,0,0,0-.02-.01-.04-.02-.06,0,0,0,0,0,0,0-.02-.01-.04-.02-.06,0,0,0,0,0-.01,0-.02-.01-.04-.02-.06,0,0,0,0,0-.01,0-.02-.01-.04-.02-.06,0,0,0,0,0-.01,0-.02-.01-.03-.02-.05,0,0,0,0,0-.01,0-.02,0-.03-.01-.05,0,0,0-.01,0-.02,0-.02,0-.03-.01-.05,0,0,0-.01,0-.02,0-.02,0-.03-.01-.05,0,0,0-.01,0-.02,0-.02,0-.03-.01-.05,0,0,0-.02,0-.03,0-.01,0-.02,0-.03,0-.01,0-.02-.01-.04,0,0,0-.02,0-.03,0-.01,0-.03-.01-.04,0,0,0-.02,0-.03,0-.01,0-.02,0-.03,0,0,0-.02,0-.03,0-.02,0-.03-.01-.05,0,0,0-.01,0-.01,0-.02-.01-.04-.02-.06,0,0,0,0,0-.01,0-.02-.01-.04-.02-.07h0c-.02-.07-.03-.13-.05-.19h0s-.01-.05-.02-.08h0c-.07-.26-.14-.51-.21-.77h0Zm2.08,6.81l-7.57,2.61c.52,1.51,1.08,3.02,1.67,4.51l7.45-2.94c-.54-1.38-1.06-2.77-1.54-4.17h0Zm2.56,6.64l-7.37,3.14c.62,1.47,1.29,2.94,1.98,4.38l7.22-3.46c-.21-.44-.42-.88-.62-1.32,0,0,0,0,0,0,0-.02-.02-.04-.03-.06,0,0,0,0,0,0,0-.02-.02-.04-.03-.06,0,0,0,0,0,0,0-.02-.02-.04-.03-.06,0,0,0,0,0,0,0-.02-.02-.03-.02-.05,0,0,0,0,0-.01,0-.02-.02-.03-.02-.05,0,0,0-.01,0-.02,0-.02-.01-.03-.02-.05,0,0,0-.01,0-.02,0-.01-.01-.03-.02-.04,0,0,0-.02-.01-.02,0-.01,0-.02-.01-.03,0-.01-.01-.02-.02-.04,0,0,0-.02-.01-.02,0-.02-.01-.03-.02-.05,0,0,0-.01,0-.02,0-.02-.02-.04-.03-.06,0,0,0,0,0,0-.31-.68-.61-1.37-.9-2.06h0Zm3.02,6.44l-7.13,3.65c.73,1.42,1.5,2.84,2.29,4.22l6.96-3.97s0,0,0-.01c0-.01-.01-.02-.02-.04,0-.01-.01-.02-.02-.03,0,0,0-.02-.01-.02,0-.02-.02-.03-.03-.05,0,0,0-.01,0-.01-.5-.88-.99-1.77-1.46-2.67h0s-.02-.04-.03-.06c0,0,0,0,0,0,0-.02-.02-.04-.03-.05,0,0,0,0,0-.01,0,0-.01-.02-.02-.03,0-.01-.01-.03-.02-.04,0,0,0-.02-.01-.02,0-.01-.01-.03-.02-.04,0,0,0-.02-.01-.02,0-.01-.01-.03-.02-.04,0,0,0,0,0-.01,0-.02-.02-.03-.03-.05,0,0,0,0,0-.01-.01-.02-.02-.04-.03-.05,0,0,0,0,0,0-.01-.02-.02-.04-.03-.06,0,0,0,0,0,0-.1-.18-.19-.37-.29-.56h0Zm3.47,6.21l-6.85,4.15c.83,1.36,1.69,2.73,2.58,4.05l6.66-4.45c-.33-.5-.66-1-.99-1.51,0,0,0,0,0,0-.01-.02-.02-.04-.04-.06,0,0,0,0,0,0-.01-.02-.02-.03-.03-.05,0,0,0,0,0,0-.01-.02-.02-.03-.03-.05,0,0,0,0,0,0-.01-.02-.02-.04-.03-.05,0,0,0,0,0,0-.01-.02-.02-.03-.03-.05,0,0,0,0,0,0-.01-.02-.02-.03-.03-.05,0,0,0,0,0-.01-.01-.02-.02-.03-.03-.05,0,0,0,0,0-.01-.01-.02-.02-.03-.03-.05,0,0,0,0,0-.01-.01-.02-.02-.03-.03-.05,0,0,0,0,0-.01,0-.01-.02-.03-.03-.04,0,0,0,0,0-.01,0-.01-.02-.03-.03-.04,0,0,0,0,0-.01,0-.01-.02-.03-.03-.04,0,0,0-.01-.01-.02-.01-.02-.02-.03-.03-.04,0,0,0-.01-.01-.02,0-.01-.02-.03-.03-.04,0,0,0-.01-.01-.02-.01-.02-.02-.03-.03-.04,0,0,0,0,0-.01,0-.01-.02-.03-.02-.04,0,0,0-.01-.01-.02,0-.01-.02-.03-.03-.04,0,0,0,0,0-.01,0-.01-.02-.03-.03-.04,0,0,0-.01-.01-.02-.01-.02-.02-.03-.03-.04,0,0,0-.01-.01-.02,0-.01-.02-.03-.03-.04,0,0,0-.01-.01-.02,0-.01-.02-.03-.02-.04,0,0,0-.01-.01-.02,0-.01-.01-.02-.02-.03,0,0-.01-.02-.02-.02,0-.01-.01-.02-.02-.04,0,0,0-.01-.01-.02,0-.01-.02-.03-.03-.04,0,0,0-.01-.01-.02-.01-.02-.02-.03-.03-.04,0,0,0-.01-.01-.02,0-.01-.02-.03-.03-.04,0,0,0-.01-.01-.02,0-.01-.02-.03-.03-.04,0,0,0-.01-.01-.02,0-.01-.02-.02-.02-.04,0,0,0-.01-.01-.02,0-.01-.02-.03-.02-.04,0,0,0-.01-.01-.02,0-.01-.02-.03-.03-.04,0,0,0-.01-.01-.02,0-.02-.02-.03-.03-.04v-.02s-.03-.03-.04-.04c0,0,0-.01-.01-.02,0-.01-.02-.03-.02-.04,0,0,0-.01-.01-.02,0-.01-.02-.03-.02-.04,0,0,0-.01-.01-.02,0-.02-.02-.03-.03-.04,0,0,0-.01,0-.02,0-.01-.02-.03-.03-.05,0,0,0-.01,0-.02,0-.02-.02-.03-.03-.05,0,0,0-.01,0-.02,0-.01-.02-.03-.03-.05,0,0,0,0,0,0h0Zm3.9,5.95l-6.54,4.62c.92,1.3,1.88,2.6,2.85,3.86l6.33-4.9c-.58-.75-1.15-1.51-1.71-2.27,0,0,0,0,0,0-.01-.02-.02-.03-.04-.05,0,0,0,0,0,0-.01-.02-.02-.03-.03-.05,0,0,0,0,0-.01,0-.01-.02-.03-.03-.04,0,0,0,0-.01-.01-.01-.02-.02-.02-.03-.04,0,0,0-.01-.01-.02,0-.01-.02-.02-.02-.03,0,0-.01-.02-.02-.03,0,0-.01-.02-.02-.03,0-.01-.02-.02-.03-.04,0,0-.01-.01-.01-.02-.02-.03-.04-.06-.06-.09,0,0,0,0,0,0-.01-.02-.03-.04-.04-.06h0c-.18-.26-.37-.52-.55-.77h0Zm4.31,5.67l-6.2,5.07c1.01,1.23,2.06,2.46,3.12,3.65l5.97-5.33c-.05-.06-.1-.11-.15-.17,0,0-.01-.01-.02-.02,0,0-.02-.02-.02-.03-.01-.01-.02-.02-.03-.03,0,0,0,0-.01-.01-.01-.01-.03-.03-.04-.04,0,0,0,0,0,0-.01-.01-.03-.03-.04-.05h0s-.03-.04-.04-.05c0,0,0,0,0,0-.54-.61-1.06-1.22-1.59-1.84,0,0,0,0,0,0-.01-.02-.03-.03-.04-.05,0,0,0,0,0,0-.01-.01-.02-.03-.04-.04,0,0,0,0,0-.01-.01-.01-.02-.03-.04-.04,0,0,0,0-.01-.01-.01-.01-.02-.02-.03-.03,0,0-.01-.02-.02-.03,0,0-.01-.02-.02-.02,0-.01-.02-.02-.03-.03,0,0,0-.01-.02-.02-.01-.02-.03-.03-.04-.05h0c-.21-.26-.42-.51-.63-.77h0Zm4.69,5.35l-5.83,5.49c1.09,1.16,2.22,2.31,3.37,3.42l5.59-5.74s0,0,0,0c-.01-.01-.03-.03-.04-.04,0,0,0,0-.01-.01-.01-.01-.03-.02-.04-.04,0,0,0,0-.01-.01-.01-.01-.03-.03-.04-.04,0,0-.01-.01-.02-.02,0,0-.02-.02-.03-.03,0,0-.02-.02-.03-.02,0,0-.01-.01-.02-.02,0,0-.02-.02-.03-.03,0,0-.01-.01-.02-.02-.01-.01-.02-.02-.03-.03,0,0,0,0-.02-.02-.04-.04-.09-.09-.13-.13h0s-.03-.04-.05-.05h0s-.03-.04-.05-.05h0c-.28-.28-.55-.55-.83-.83h0s-.03-.04-.05-.05h0s-.03-.04-.05-.05h0s-.09-.09-.13-.14c0,0,0,0,0,0-.02-.02-.03-.03-.05-.05,0,0,0,0-.01-.01-.01-.01-.03-.03-.04-.04,0,0,0,0-.01-.01-.01-.01-.02-.02-.03-.04,0,0-.01-.01-.02-.02,0,0-.01-.01-.02-.02-.01-.01-.02-.02-.03-.03,0,0-.01-.01-.02-.02,0,0-.02-.02-.03-.03,0,0-.01-.01-.02-.02-.01-.01-.02-.02-.03-.03,0,0-.01-.01-.02-.02-.01-.01-.02-.02-.03-.03,0,0-.01-.01-.02-.02-.01-.01-.02-.02-.03-.03,0,0,0,0,0-.01-.01-.01-.03-.03-.04-.04,0,0,0,0,0,0-.02-.02-.03-.03-.04-.04,0,0,0,0,0,0-.01-.01-.03-.03-.04-.04,0,0,0,0,0,0-.3-.32-.61-.63-.91-.95h0Zm5.06,5.01l-5.43,5.88c1.17,1.08,2.38,2.15,3.6,3.18l5.17-6.12c-.57-.48-1.13-.96-1.68-1.45,0,0,0,0,0,0-.09-.08-.17-.15-.26-.23,0,0,0,0,0,0-.02-.01-.03-.03-.05-.04,0,0,0,0,0,0-.02-.01-.03-.03-.05-.04,0,0,0,0,0,0-.02-.01-.03-.03-.05-.04,0,0,0,0,0,0-.04-.03-.06-.06-.1-.09,0,0,0,0,0,0-.02-.01-.03-.03-.05-.04,0,0,0,0,0,0-.02-.01-.03-.03-.05-.04,0,0,0,0,0,0-.01-.01-.03-.03-.04-.04,0,0,0,0,0,0-.02-.01-.03-.03-.04-.04,0,0,0,0,0,0-.01-.01-.03-.03-.05-.04,0,0,0,0,0,0-.01-.01-.03-.03-.04-.04,0,0,0,0,0,0-.01-.01-.03-.03-.04-.04,0,0,0,0,0,0-.02-.01-.03-.02-.04-.04,0,0,0,0-.01,0-.01-.01-.03-.03-.04-.04,0,0,0,0-.01,0-.01-.01-.03-.03-.04-.04,0,0,0,0-.01,0-.01-.01-.03-.03-.04-.04,0,0,0,0,0,0-.01-.01-.03-.03-.04-.04,0,0,0,0,0,0-.01-.01-.03-.03-.04-.04,0,0,0,0-.01-.01-.01-.01-.03-.02-.04-.04,0,0,0,0-.01-.01-.01-.01-.02-.02-.04-.03,0,0,0,0-.01-.01-.01-.01-.03-.02-.04-.03,0,0-.01,0-.02-.01,0,0-.03-.02-.03-.03,0,0-.01-.01-.02-.02,0,0-.02-.02-.03-.03,0,0-.02-.01-.02-.02-.01-.01-.02-.02-.03-.03,0,0-.01-.01-.02-.02-.01-.01-.02-.02-.03-.03,0,0-.01-.01-.02-.02,0,0-.02-.02-.03-.03,0,0-.01-.01-.02-.02,0,0-.02-.02-.03-.02,0,0,0,0-.01-.01h0Zm5.39,4.64l-5.01,6.25c1.24,1,2.53,1.98,3.81,2.92l4.73-6.46c-.37-.27-.73-.54-1.09-.81h0s-.04-.03-.06-.05h0s-.02-.02-.03-.03c-.01,0-.02-.01-.03-.02,0,0-.02-.01-.03-.02-.01,0-.02-.01-.03-.02,0,0-.02-.01-.03-.02-.01,0-.02-.02-.03-.02l-.02-.02s-.03-.02-.04-.03c0,0,0,0-.01,0-.02-.01-.03-.02-.04-.03,0,0,0,0-.01,0-.02-.01-.03-.02-.05-.04,0,0,0,0,0,0-.02-.01-.03-.03-.05-.04,0,0,0,0,0,0-.66-.5-1.32-1.02-1.97-1.54h0Zm5.71,4.25l-4.56,6.59c1.31.91,2.66,1.8,4.01,2.64l4.26-6.78c-.3-.19-.61-.38-.91-.58h0s-.04-.03-.06-.04c0,0,0,0,0,0-.02-.01-.03-.02-.05-.03,0,0-.01,0-.02-.01,0,0-.02-.01-.03-.02-.01,0-.02-.02-.03-.02,0,0-.02-.01-.02-.02-.01,0-.02-.02-.04-.02,0,0-.01,0-.02-.01-.01,0-.03-.02-.04-.02,0,0-.01,0-.02-.01-.01,0-.03-.02-.04-.03,0,0,0,0-.01,0-.02-.01-.03-.02-.05-.03,0,0,0,0-.01,0-.01,0-.03-.02-.05-.03,0,0,0,0-.01,0-.02-.01-.03-.02-.05-.03,0,0,0,0,0,0-.02-.01-.03-.02-.05-.03,0,0,0,0,0,0-.74-.48-1.47-.97-2.19-1.47h0Zm5.99,3.84l-4.08,6.89c1.37.81,2.78,1.61,4.18,2.36l3.77-7.06c-.74-.4-1.48-.8-2.21-1.22h0s-.04-.02-.06-.04c0,0,0,0-.02,0-.01,0-.03-.02-.04-.03,0,0-.01,0-.02-.01-.01,0-.03-.01-.04-.02,0,0-.02,0-.03-.01-.01,0-.02-.01-.03-.02-.01,0-.02-.01-.03-.02,0,0-.01,0-.02-.01-.01,0-.03-.02-.04-.02,0,0-.01,0-.02-.01-.01,0-.03-.02-.05-.03,0,0,0,0-.01,0-.02,0-.03-.02-.05-.03,0,0,0,0,0,0-.02,0-.04-.02-.05-.03,0,0,0,0,0,0-.02,0-.04-.02-.06-.03,0,0,0,0,0,0-.02-.01-.04-.02-.05-.03,0,0,0,0,0,0-.02,0-.04-.02-.06-.03,0,0,0,0,0,0-.32-.18-.64-.37-.96-.56h0Zm6.25,3.41l-3.59,7.16c1.43.71,2.89,1.41,4.34,2.06l3.27-7.31c-.07-.03-.14-.06-.21-.1h0s-.04-.02-.06-.03c0,0-.01,0-.02,0-.01,0-.03-.01-.04-.02,0,0-.02,0-.03-.01,0,0-.02,0-.03-.01-.01,0-.03-.01-.04-.02,0,0-.01,0-.02,0-.02,0-.03-.01-.05-.02,0,0-.01,0-.02,0-.01,0-.03-.02-.05-.02,0,0,0,0-.01,0-.02,0-.04-.02-.05-.02,0,0,0,0,0,0-.02,0-.04-.02-.06-.03,0,0,0,0,0,0-.02,0-.04-.02-.06-.03,0,0,0,0,0,0-.02,0-.04-.02-.06-.03,0,0,0,0,0,0-.93-.42-1.85-.86-2.76-1.31,0,0,0,0,0,0-.02-.01-.04-.02-.06-.03,0,0,0,0,0,0-.02,0-.04-.02-.06-.03,0,0,0,0,0,0-.02,0-.04-.02-.05-.03,0,0,0,0-.01,0-.01,0-.03-.02-.05-.02,0,0-.01,0-.02-.01-.01,0-.03-.01-.04-.02,0,0-.02,0-.03-.01,0,0-.01,0-.02,0-.02,0-.04-.02-.05-.03h0s-.02-.01-.03-.02h0Zm6.47,2.96l-3.07,7.4c1.47.61,2.98,1.2,4.48,1.74l2.74-7.53c-.75-.27-1.5-.55-2.24-.84h0s-.04-.02-.07-.03h0s-.04-.02-.07-.03h0s-.07-.03-.11-.04h0s-.04-.02-.07-.03c0,0,0,0,0,0-.02,0-.04-.02-.06-.02h0s-.04-.02-.06-.03h0s-.05-.02-.07-.03h0s-.07-.03-.11-.04h0s-.04-.02-.07-.03h0s-.05-.02-.07-.03h0c-.37-.15-.75-.3-1.12-.46h0Zm6.67,2.49l-2.54,7.6c1.51.51,3.06.98,4.59,1.42l2.2-7.7c-.57-.16-1.14-.33-1.7-.5h0s-.05-.02-.07-.02h0c-.06-.02-.12-.04-.18-.06,0,0,0,0,0,0-.02,0-.04-.01-.07-.02h0s-.05-.02-.07-.02h0s-.07-.02-.11-.03h0s-.05-.01-.07-.02c0,0,0,0,0,0-.02,0-.04-.01-.07-.02h0c-.63-.2-1.25-.4-1.88-.61h0Zm6.83,2.01l-1.99,7.76c1.54.4,3.12.76,4.68,1.09l1.65-7.84c-.36-.08-.73-.15-1.09-.23h0s-.02,0-.03,0c0,0,0,0,0,0-.01,0-.02,0-.03,0,0,0,0,0,0,0-1.06-.24-2.12-.49-3.17-.76h0Zm6.95,1.52l-1.44,7.88c1.57.29,3.16.54,4.74.76l1.09-7.93c-.87-.12-1.74-.25-2.61-.39,0,0,0,0-.01,0,0,0-.01,0-.02,0,0,0-.01,0-.02,0,0,0-.01,0-.02,0,0,0-.01,0-.02,0,0,0,0,0-.01,0,0,0-.02,0-.03,0h0s-.02,0-.04,0h0c-.54-.09-1.08-.18-1.61-.28h0Zm7.04,1.03l-.88,7.96c1.58.17,3.19.32,4.78.42l.53-7.99c-1.11-.07-2.2-.16-3.29-.27,0,0,0,0,0,0,0,0-.02,0-.03,0,0,0,0,0-.01,0,0,0-.02,0-.02,0,0,0-.01,0-.02,0,0,0-.01,0-.02,0-.01,0-.02,0-.03,0h0s-.02,0-.03,0h0s-.02,0-.04,0h0c-.31-.03-.61-.06-.91-.1h0Zm7.1.53l-.32,8c1.47.06,2.95.09,4.42.09h.37s-.03-8.01-.03-8.01c-.03,0-.05,0-.08,0,0,0-.01,0-.02,0h-.01c-.08,0-.16,0-.24,0h-.07s-.04,0-.06,0c0,0,0,0-.01,0-.02,0-.03,0-.05,0h-.01s-.03,0-.05,0c0,0,0,0-.01,0-.02,0-.03,0-.05,0h0s-.04,0-.05,0c0,0-.01,0-.02,0-.02,0-.03,0-.05,0,0,0-.01,0-.02,0-.01,0-.03,0-.04,0,0,0-.01,0-.02,0-.02,0-.03,0-.05,0,0,0-.01,0-.02,0-.01,0-.02,0-.04,0,0,0-.01,0-.02,0-.02,0-.03,0-.05,0,0,0-.02,0-.02,0-.01,0-.02,0-.03,0-.01,0-.02,0-.03,0-.01,0-.02,0-.04,0,0,0-.02,0-.03,0-.01,0-.02,0-.03,0-.01,0-.03,0-.04,0-.01,0-.02,0-.03,0,0,0-.02,0-.03,0-.01,0-.02,0-.03,0-.01,0-.03,0-.04,0,0,0-.01,0-.02,0-.02,0-.04,0-.06,0,0,0-.01,0-.02,0-.01,0-.02,0-.03,0,0,0-.01,0-.02,0-.02,0-.04,0-.06,0,0,0,0,0-.01,0-.01,0-.02,0-.04,0,0,0,0,0-.01,0-.02,0-.04,0-.07,0,0,0,0,0-.01,0-.51,0-1.03-.02-1.54-.03h0s-.08,0-.12,0c0,0,0,0,0,0-.04,0-.07,0-.11,0,0,0-.01,0-.02,0-.02,0-.03,0-.05,0-.01,0-.02,0-.03,0,0,0-.02,0-.03,0-.01,0-.02,0-.03,0-.01,0-.02,0-.03,0-.01,0-.03,0-.04,0,0,0-.01,0-.02,0-.02,0-.03,0-.05,0,0,0,0,0-.01,0-.01,0-.03,0-.05,0,0,0,0,0,0,0-.02,0-.04,0-.06,0,0,0,0,0,0,0-.17,0-.34-.01-.51-.02h0Zm11.56-.19c-1.47.11-2.95.18-4.44.23l.23,8.01c1.59-.05,3.2-.13,4.79-.24l-.58-7.99h0Zm7.08-.77c-.81.12-1.62.22-2.44.32,0,0,0,0,0,0,0,0-.02,0-.03,0h-.01s-.01,0-.02,0c0,0-.01,0-.02,0,0,0-.01,0-.02,0-.02,0-.05,0-.07,0,0,0,0,0,0,0-.01,0-.02,0-.03,0h0s-.02,0-.04,0h0c-.57.07-1.14.13-1.72.19l.79,7.97c1.59-.16,3.19-.35,4.77-.58l-1.14-7.93h0Zm7-1.26c-.71.15-1.43.3-2.15.44h0s-.02,0-.03,0c0,0,0,0-.01,0,0,0-.02,0-.02,0,0,0-.01,0-.02,0,0,0-.01,0-.02,0,0,0-.02,0-.02,0,0,0,0,0,0,0,0,0-.02,0-.03,0,0,0,0,0,0,0-.68.13-1.36.26-2.05.37l1.35,7.89c1.57-.27,3.16-.58,4.72-.92l-1.7-7.83h0Zm6.9-1.76c-1.18.35-2.37.67-3.57.97h0s-.1.03-.15.04h0s-.02,0-.03,0c0,0-.01,0-.02,0,0,0,0,0-.01,0,0,0-.02,0-.02,0,0,0,0,0-.01,0,0,0-.02,0-.03,0,0,0,0,0,0,0,0,0-.02,0-.03,0,0,0,0,0,0,0-.13.03-.27.07-.4.1l1.91,7.78c1.55-.38,3.11-.8,4.64-1.25l-2.25-7.69h0Zm6.76-2.24s-.08.03-.13.05c0,0,0,0,0,0-.02,0-.04.01-.06.02,0,0,0,0-.01,0-.02,0-.04.01-.05.02,0,0,0,0-.01,0-.02,0-.03.01-.05.02,0,0,0,0-.01,0-.02,0-.03.01-.05.02,0,0-.01,0-.02,0-.02,0-.03.01-.04.02,0,0-.01,0-.02,0-.02,0-.03.01-.05.02,0,0-.02,0-.02,0-.02,0-.03.01-.04.02,0,0-.02,0-.02,0-.01,0-.02,0-.03.01-.01,0-.02,0-.04.01,0,0-.02,0-.03,0-.01,0-.03,0-.04.01,0,0-.02,0-.03,0-.01,0-.03,0-.04.01,0,0-.02,0-.03,0-.01,0-.02,0-.03.01,0,0-.02,0-.03.01-.01,0-.03,0-.04.01,0,0,0,0-.02,0-.02,0-.03.01-.05.02,0,0-.01,0-.02,0-.02,0-.03.01-.05.02,0,0-.01,0-.02,0-.02,0-.04.01-.05.02,0,0-.01,0-.02,0-.01,0-.02,0-.03.01,0,0,0,0-.02,0-.02,0-.04.01-.05.02,0,0-.01,0-.02,0-.02,0-.04.01-.05.02,0,0-.01,0-.02,0-.02,0-.03.01-.05.02,0,0-.01,0-.02,0-.02,0-.03.01-.05.02,0,0-.01,0-.02,0-.01,0-.02,0-.03.01,0,0-.02,0-.02,0-.02,0-.03.01-.05.02,0,0-.02,0-.03,0-.01,0-.03,0-.04.01,0,0-.02,0-.02,0-.01,0-.03,0-.04.01,0,0-.02,0-.03,0,0,0-.02,0-.03,0-.01,0-.03.01-.04.01h-.03s-.03.02-.04.02c0,0-.02,0-.02,0-.01,0-.02,0-.03.01-.01,0-.02,0-.03.01-.01,0-.02,0-.03.01,0,0-.02,0-.03,0-.01,0-.03,0-.04.01,0,0-.01,0-.02,0-.02,0-.03.01-.05.02,0,0-.01,0-.02,0-.02,0-.03.01-.05.02,0,0-.01,0-.02,0-.02,0-.03.01-.05.02,0,0,0,0-.01,0-.02,0-.03.01-.05.02,0,0,0,0-.01,0-.02,0-.04.01-.05.02,0,0,0,0-.01,0-.02,0-.04.01-.06.02,0,0,0,0-.01,0-.02,0-.04.01-.06.02,0,0,0,0,0,0-.02,0-.04.01-.06.02,0,0,0,0,0,0-.04.01-.09.03-.13.04,0,0,0,0,0,0-.02,0-.04.01-.06.02t0,0c-.46.16-.92.31-1.39.46l2.45,7.62c1.52-.49,3.04-1.02,4.54-1.57l-2.79-7.51h0Zm6.58-2.72c-.17.08-.34.15-.5.23,0,0,0,0,0,0-.02,0-.04.02-.06.03,0,0,0,0,0,0-.02,0-.04.02-.06.03,0,0,0,0,0,0-.04.02-.08.04-.12.06,0,0,0,0,0,0-.02,0-.04.02-.06.03,0,0,0,0,0,0-.02,0-.04.02-.06.02,0,0,0,0-.01,0-.02,0-.03.02-.05.02,0,0,0,0-.01,0-.02,0-.04.02-.05.02,0,0,0,0,0,0-.02,0-.03.01-.05.02,0,0,0,0-.01,0-.02,0-.03.02-.05.02,0,0,0,0-.01,0-.02,0-.03.01-.05.02,0,0-.01,0-.02,0-.01,0-.03.02-.05.02h-.02s-.03.02-.05.03c0,0,0,0-.01,0-.01,0-.03.01-.04.02,0,0-.01,0-.02,0-.01,0-.03.01-.04.02,0,0-.01,0-.02,0-.01,0-.03.01-.04.02,0,0-.02,0-.02.01-.01,0-.03.01-.04.02,0,0-.02,0-.03.01-.01,0-.02,0-.03.01-.01,0-.02.01-.04.02,0,0-.02,0-.03.01-.01,0-.03.01-.04.02,0,0-.01,0-.02.01-.02,0-.03.01-.05.02,0,0-.01,0-.02,0-.01,0-.02,0-.03.01-.01,0-.02.01-.04.02-.01,0-.02,0-.03.01,0,0-.01,0-.02,0-.02,0-.04.02-.05.02,0,0,0,0-.01,0-.02,0-.04.02-.06.03,0,0,0,0,0,0-.02,0-.04.02-.06.03h0c-.06.03-.12.05-.18.08h0s-.05.02-.07.03h0c-.56.24-1.13.48-1.7.7l2.99,7.43c1.48-.59,2.96-1.23,4.42-1.89l-3.32-7.29h0Zm6.37-3.17c-.57.31-1.14.61-1.72.91,0,0,0,0,0,0-.02.01-.04.02-.06.03,0,0,0,0,0,0-.02.01-.03.02-.05.03,0,0,0,0-.01,0-.02,0-.03.02-.05.03,0,0,0,0-.01,0-.01,0-.03.02-.05.02,0,0-.01,0-.02,0-.01,0-.03.01-.04.02,0,0-.02,0-.02.01-.01,0-.02.01-.03.02,0,0-.02,0-.03.01-.01,0-.02.01-.03.02,0,0-.02,0-.02.01-.01,0-.03.01-.04.02,0,0-.02,0-.03.01,0,0-.02.01-.03.02-.01,0-.02.01-.03.02,0,0-.01,0-.02,0-.02,0-.03.02-.05.02,0,0,0,0-.01,0-.02,0-.04.02-.05.03,0,0,0,0,0,0-.41.21-.81.41-1.22.61,0,0-.01,0-.02,0-.02,0-.03.02-.05.02,0,0-.01,0-.02.01-.01,0-.02.01-.04.02-.01,0-.02.01-.03.02,0,0-.01,0-.02.01-.01,0-.03.01-.04.02,0,0-.01,0-.02,0-.02,0-.03.01-.05.02,0,0,0,0,0,0l3.51,7.2c1.43-.7,2.87-1.44,4.27-2.2l-3.82-7.04h0Zm6.13-3.62c-.98.62-1.96,1.23-2.96,1.82,0,0,0,0,0,0-.02.01-.03.02-.05.03h0s-.03.03-.05.04c0,0-.01,0-.02,0-.01,0-.02.01-.04.02l-.03.02s-.02.01-.03.02c-.02,0-.03.02-.05.03,0,0,0,0-.01,0-.19.11-.37.22-.56.33l4.01,6.93c1.38-.8,2.76-1.64,4.1-2.49l-4.31-6.75h0Zm5.86-4.04c-.64.48-1.29.95-1.94,1.41h0c-.07.05-.14.1-.21.15,0,0,0,0,0,0-.02.01-.03.02-.05.04,0,0,0,0,0,0-.02.01-.03.02-.05.04,0,0,0,0-.01,0-.02.01-.03.02-.05.03,0,0,0,0-.01,0-.01,0-.03.02-.04.03,0,0-.02.01-.02.02,0,0-.02.01-.03.02,0,0-.02.01-.03.02-.01,0-.02.01-.03.02,0,0-.02.01-.02.02-.01,0-.02.02-.03.02,0,0-.02.01-.03.02,0,0-.02.01-.03.02-.01,0-.02.01-.03.02,0,0-.01,0-.02.01-.01,0-.03.02-.04.03,0,0-.01,0-.02.01-.01,0-.03.02-.04.03,0,0,0,0-.01,0-.02.01-.03.02-.05.03,0,0,0,0-.01,0-.02.01-.03.02-.05.03h0c-.25.17-.49.34-.74.51l4.49,6.63c1.32-.89,2.64-1.83,3.92-2.78l-4.77-6.43h0Zm5.56-4.44c-.41.35-.83.7-1.24,1.05h0s-.03.03-.05.05c0,0,0,0,0,0-.02.01-.03.03-.05.04,0,0,0,0-.01,0-.01.01-.03.02-.04.03,0,0-.01.01-.02.01,0,0-.02.01-.02.02,0,0-.02.02-.03.02l-.03.02s-.02.01-.02.02c-.01,0-.02.02-.03.03,0,0-.02.01-.02.02-.01,0-.02.02-.03.02,0,0-.02.01-.03.02,0,0-.02.01-.02.02,0,0-.02.02-.03.03,0,0-.01.01-.02.02-.01.01-.03.02-.04.03h-.02s-.02.03-.04.05c0,0,0,0-.01.01-.01.01-.03.02-.04.03,0,0,0,0-.01,0-.01,0-.03.02-.04.03,0,0,0,0,0,0-.01.01-.03.02-.04.03,0,0,0,0,0,0-.01.01-.03.02-.04.04,0,0,0,0-.01,0-.01.01-.03.02-.05.04,0,0,0,0,0,0-.01.01-.03.03-.05.04,0,0,0,0,0,0-.02.01-.03.02-.05.04,0,0,0,0,0,0-.03.03-.07.06-.1.08,0,0,0,0,0,0-.02.01-.03.03-.05.04,0,0,0,0,0,0-.02.01-.03.03-.05.04,0,0,0,0,0,0-.02.01-.04.03-.05.04,0,0,0,0,0,0-.32.26-.65.52-.98.78l4.94,6.3c1.25-.98,2.5-2.01,3.71-3.04l-5.21-6.08h0Zm5.24-4.82c-.07.07-.14.14-.21.21,0,0,0,0-.01.01-.01.01-.02.02-.04.03,0,0-.02.01-.02.02,0,0-.02.02-.03.02,0,0-.02.02-.03.03,0,0,0,0-.01.01-.01.01-.03.02-.04.04,0,0,0,0-.01.01-.01.01-.03.03-.04.04,0,0,0,0,0,0-.01.01-.03.03-.04.04,0,0,0,0,0,0-.9.87-1.81,1.73-2.74,2.57l5.37,5.94c1.18-1.07,2.36-2.18,3.49-3.3l-5.62-5.7h0Zm4.89-5.17c-.21.24-.43.48-.64.72,0,0,0,0,0,0-.01.02-.03.03-.04.05,0,0,0,0,0,0-.01.01-.03.03-.04.04h-.01s-.02.04-.04.05c0,0,0,0-.01.01-.01.01-.02.03-.03.04,0,0,0,.01-.01.02-.01.01-.02.02-.03.03,0,0-.01.01-.02.02,0,0-.02.02-.03.03,0,0-.01.01-.02.02-.01.01-.02.02-.03.03,0,0-.01.01-.02.02-.01.01-.02.02-.03.03,0,0-.01.01-.02.02-.01.01-.02.02-.03.03,0,0-.01.01-.02.02,0,0-.02.02-.02.02,0,.01-.02.02-.03.03,0,0-.01.01-.02.02-.01.01-.02.02-.03.03,0,0-.01.01-.02.02-.01.01-.02.02-.03.03,0,0-.01.01-.02.02,0,0-.01.02-.02.02,0,0-.02.02-.02.03,0,0-.02.02-.03.03,0,0-.01.01-.01.02-.01.01-.02.02-.03.04,0,0,0,.01-.02.02-.01.01-.02.02-.03.04,0,0-.01.01-.02.02-.01.01-.02.02-.03.03,0,0-.01.01-.02.02,0,.01-.02.02-.03.03,0,0-.01.01-.02.02,0,0-.01.02-.02.02,0,0-.02.02-.03.03,0,0-.01.01-.02.02-.01.01-.02.02-.03.03,0,0-.01.01-.02.02,0,0-.02.02-.02.03l-.02.03s-.02.02-.02.03c0,0-.01.01-.02.02-.01.01-.02.02-.03.03,0,0,0,.01-.01.02-.01.01-.02.03-.04.04,0,0,0,0-.01.01-.01.01-.02.02-.04.04,0,0,0,0-.01.01-.01.01-.03.03-.04.04,0,0,0,0,0,0-.01.01-.03.03-.04.04,0,0,0,0,0,0-.02.02-.03.03-.04.05,0,0,0,0,0,0-.02.02-.03.03-.05.05,0,0,0,0,0,0-.02.02-.03.03-.05.05,0,0,0,0,0,0-.3.32-.6.64-.91.96l5.77,5.55c1.1-1.15,2.2-2.34,3.25-3.53l-6.01-5.29h0Zm4.51-5.5c-.08.1-.15.2-.23.29,0,0,0,0,0,0-.01.02-.03.03-.04.05,0,0,0,0,0,.01-.01.01-.02.03-.03.04,0,0,0,.01-.01.02-.01.01-.02.03-.03.04,0,0,0,.01-.01.02,0,0-.01.02-.02.03,0,0-.02.02-.03.03,0,0-.01.02-.02.02,0,.01-.02.02-.03.03,0,0-.01.01-.02.02,0,0-.02.02-.03.03,0,0-.01.01-.02.02,0,0-.02.02-.02.03,0,0-.01.02-.02.02,0,.01-.02.02-.03.03,0,0,0,.01-.01.02,0,.01-.02.03-.03.04,0,0,0,.01-.01.02,0,.01-.02.03-.03.04,0,0,0,.01-.01.02-.01.01-.02.03-.03.04,0,0,0,0-.01.01-.01.01-.02.03-.03.04,0,0,0,0,0,.01,0,.01-.02.03-.03.04,0,0,0,0,0,.01,0,.01-.02.03-.03.04,0,0,0,0,0,.01-.01.01-.02.03-.04.05,0,0,0,0,0,0-.01.01-.02.03-.04.04,0,0,0,0,0,.01-.01.01-.02.03-.03.04,0,0,0,0,0,.01-.01.01-.02.03-.04.04,0,0,0,0,0,0-.01.01-.02.03-.04.05,0,0,0,0,0,0-.01.02-.02.03-.04.05,0,0,0,0,0,0-.01.01-.02.03-.04.05,0,0,0,0,0,.01-.01.01-.02.03-.04.04,0,0,0,0,0,.01-.01.01-.02.03-.04.04,0,0,0,0,0,0-.01.01-.02.03-.04.05,0,0,0,0,0,0,0,.01-.03.03-.04.04,0,0,0,0,0,0,0,.01-.02.03-.03.04,0,0,0,0,0,.01-.01.01-.02.03-.04.04,0,0,0,0,0,.01-.01.01-.02.03-.04.04h0s-.02.04-.03.06c0,0,0,0,0,.01-.01.01-.02.03-.04.04,0,0,0,0,0,0-.01.01-.02.03-.04.04,0,0,0,0,0,0-.01.02-.02.03-.04.04,0,0,0,0,0,0-.01.01-.02.03-.04.05,0,0,0,0,0,.01-.01.01-.02.03-.03.04,0,0,0,0-.01.01-.01.01-.02.03-.03.04,0,0,0,0,0,.01-.01.01-.02.03-.04.04,0,0,0,0,0,0-.01.01-.02.03-.04.04,0,0,0,0,0,0,0,.01-.02.03-.03.04,0,0,0,0,0,.01-.01.01-.02.03-.04.04,0,0,0,0-.01.01-.01.01-.02.03-.03.04,0,0,0,0-.01.01-.01.01-.02.03-.04.04,0,0,0,0,0,.01-.01.01-.02.03-.04.04,0,0,0,0,0,.01-.01.01-.02.03-.03.04,0,0,0,0,0,0-.01.01-.02.03-.03.04,0,0,0,0,0,.01-.01.01-.02.03-.04.04,0,0,0,0,0,.01-.01.01-.02.03-.03.04,0,0,0,0-.01.01-.01.01-.02.03-.03.04,0,0,0,0-.01.01-.01.01-.02.03-.04.04,0,0,0,0,0,.01-.01.01-.02.03-.03.04,0,0,0,0,0,.01-.01.01-.02.03-.03.04h0s-.02.04-.04.05c0,0,0,0,0,.01-.01.01-.02.03-.04.04,0,0,0,0,0,.01-.01.01-.02.03-.04.04,0,0,0,0,0,.01-.01.01-.02.03-.04.04,0,0,0,0,0,0-.01.01-.02.03-.04.04,0,0,0,0,0,0-.01.01-.02.03-.04.04,0,0,0,0,0,0-.01.01-.03.03-.04.05,0,0,0,0,0,0-.01.01-.02.03-.04.04,0,0,0,0,0,0l6.15,5.13c1.02-1.22,2.03-2.48,3-3.75l-6.37-4.86h0Zm4.12-5.81s-.06.09-.09.13c0,0,0,.01,0,.01-.01.02-.02.03-.03.05,0,0,0,.01-.01.02,0,.01-.02.03-.03.04,0,0-.01.02-.02.02,0,0-.01.02-.02.02,0,.01-.01.02-.02.04,0,0,0,.01-.01.02,0,.01-.02.03-.03.04,0,0,0,.01-.01.02,0,.01-.02.03-.03.04,0,0,0,.01-.01.02-.01.02-.02.03-.03.04,0,0,0,0,0,0-.01.02-.02.03-.03.05,0,0,0,0,0,0-.01.02-.02.04-.03.05,0,0,0,0,0,0-.01.02-.02.03-.03.05,0,0,0,0,0,0-.01.02-.02.04-.03.05,0,0,0,0,0,0-.01.02-.02.04-.04.05,0,0,0,0,0,0-.65.96-1.31,1.91-1.99,2.85l6.49,4.69c.93-1.29,1.85-2.62,2.73-3.95l-6.69-4.4h0Zm3.7-6.08c-.12.22-.25.44-.38.66,0,0,0,0,0,0-.01.02-.02.03-.03.05,0,0,0,0,0,.01,0,.02-.02.03-.03.05,0,0,0,0,0,.01,0,.02-.02.03-.03.05,0,0,0,0,0,.01,0,.01-.02.03-.02.04,0,0,0,.01-.01.02,0,.01-.01.02-.02.04,0,0,0,.02-.01.02,0,.01-.01.02-.02.03,0,0,0,.02-.01.02,0,.01-.01.02-.02.04,0,0-.01.02-.02.03,0,0-.01.02-.02.03,0,.01-.01.02-.02.04,0,0,0,.01,0,.01-.01.02-.02.03-.03.05,0,0,0,0,0,0-.01.02-.02.04-.04.06h0c-.49.85-1,1.7-1.52,2.53l6.81,4.22c.84-1.35,1.66-2.75,2.44-4.14l-6.99-3.92h0Zm3.26-6.33c-.63,1.34-1.3,2.67-1.99,3.98l7.09,3.73c.74-1.41,1.46-2.86,2.14-4.3l-7.24-3.41h0Zm2.8-6.54c-.54,1.38-1.1,2.76-1.7,4.11l7.33,3.22c.64-1.46,1.26-2.95,1.83-4.44l-7.47-2.89h0Zm2.33-6.72c-.2.65-.41,1.31-.62,1.95h0s-.02.05-.02.07h0s-.02.05-.02.08h0s-.02.07-.03.11c0,0,0,.01,0,.02,0,.02-.01.03-.02.05,0,0,0,.02,0,.02,0,.01,0,.03-.01.04,0,0,0,.02-.01.03,0,0,0,.02,0,.03,0,.02,0,.03-.01.04,0,0,0,.02,0,.02,0,.02-.01.03-.02.05,0,0,0,.01,0,.02,0,.02-.01.03-.02.05,0,0,0,.01,0,.02,0,.02-.01.03-.02.05,0,0,0,0,0,.01,0,.02-.01.04-.02.05,0,0,0,0,0,.01,0,.02-.01.04-.02.05h0s-.01.05-.02.07c0,0,0,0,0,.01,0,.02-.01.04-.02.06,0,0,0,0,0,0,0,.02-.01.04-.02.06,0,0,0,0,0,0,0,.02-.01.04-.02.06,0,0,0,0,0,.01,0,.02-.01.04-.02.06,0,0,0,0,0,0,0,.02-.01.04-.02.06,0,0,0,0,0,0-.01.04-.03.08-.04.12,0,0,0,0,0,0,0,.02-.01.04-.02.06,0,0,0,0,0,0,0,.02-.01.04-.02.06,0,0,0,0,0,.01,0,.02-.01.04-.02.06,0,0,0,0,0,0,0,.02-.01.04-.02.06,0,0,0,0,0,0,0,.02-.01.04-.02.06,0,0,0,0,0,0,0,.02-.01.04-.02.06,0,0,0,0,0,.01,0,.02-.01.03-.02.05,0,0,0,0,0,.01,0,.02-.01.04-.02.05,0,0,0,0,0,.01,0,.02-.01.03-.02.05,0,0,0,.01,0,.02,0,.02,0,.03-.02.04v.02s-.02.03-.02.05c0,0,0,.02,0,.02,0,.01-.01.03-.02.04,0,0,0,.02,0,.03,0,0,0,.02-.01.03,0,.01,0,.03-.01.04,0,0,0,.01,0,.02,0,0,0,.02,0,.02l7.54,2.69c.54-1.5,1.05-3.04,1.51-4.56l-7.65-2.36h0Zm1.85-6.87c-.05.2-.09.39-.14.59h0s0,.02,0,.04h0s0,.03,0,.04c0,0,0,0,0,0,0,0,0,.02,0,.03,0,0,0,.01,0,.01,0,0,0,.01,0,.02,0,0,0,.01,0,.01,0,0,0,.01,0,.02,0,.02,0,.03-.01.05,0,0,0,0,0,0,0,.02-.01.05-.02.07,0,0,0,0,0,0,0,0,0,.02,0,.03,0,0,0,0,0,0,0,.01,0,.02,0,.03,0,0,0,0,0,0-.09.38-.19.76-.28,1.15,0,0,0,0,0,0,0,0,0,.02,0,.03,0,0,0,0,0,0,0,0,0,.02,0,.03,0,0,0,0,0,.01,0,0,0,.02,0,.02,0,0,0,0,0,0,0,0,0,.02,0,.03,0,0,0,0,0,0,0,0,0,.02,0,.03,0,0,0,0,0,.01,0,.02,0,.03-.01.05,0,0,0,0,0,0,0,0,0,.01,0,.02,0,0,0,.01,0,.02,0,0,0,.01,0,.02,0,0,0,.01,0,.02,0,0,0,0,0,.01,0,0,0,.02,0,.03,0,0,0,0,0,0,0,0,0,.02,0,.03h0s0,.03,0,.04h0c-.15.6-.31,1.2-.48,1.79l7.71,2.15c.43-1.54.83-3.1,1.19-4.66l-7.8-1.81h0Zm1.36-6.99c-.09.57-.19,1.15-.29,1.72h0s0,.02,0,.03c0,0,0,0,0,.01,0,0,0,.01,0,.02,0,0,0,.01,0,.02,0,0,0,.01,0,.02,0,0,0,.01,0,.02,0,0,0,.01,0,.02,0,0,0,.02,0,.02,0,0,0,0,0,.01,0,.01,0,.02,0,.03h0s-.01.08-.02.12h0c-.13.71-.26,1.42-.4,2.13h0s-.02.08-.02.11c0,0,0,.01,0,.02,0,0,0,.01,0,.02,0,0,0,.02,0,.02,0,0,0,0,0,0,0,0,0,.02,0,.03,0,0,0,0,0,0l7.85,1.6c.32-1.56.61-3.15.85-4.73l-7.91-1.25h0Zm.86-7.06c-.03.4-.07.81-.11,1.21,0,0,0,0,0,0,0,0,0,.02,0,.03,0,0,0,0,0,.01,0,0,0,.02,0,.03,0,0,0,0,0,.01,0,.01,0,.01,0,.02,0,0,0,.01,0,.02,0,0,0,.02,0,.02,0,.01,0,.02,0,.04,0,0,0,0,0,.01,0,0,0,.02,0,.03,0,0,0,.01,0,.02,0,0,0,.02,0,.02,0,0,0,0,0,.01,0,0,0,.02,0,.02,0,0,0,0,0,.01,0,0,0,.02,0,.02,0,0,0,0,0,.01,0,.01,0,.02,0,.03h0c-.1.95-.21,1.9-.33,2.84l7.94,1.04c.21-1.58.38-3.18.52-4.77l-7.98-.69h0Zm.37-7.11c0,.35-.01.7-.02,1.04,0,0,0,0,0,0,0,.01,0,.02,0,.03,0,0,0,0,0,.01,0,0,0,.01,0,.02v.02s0,.01,0,.02c0,0,0,.01,0,.02,0,0,0,.01,0,.02,0,.01,0,.02,0,.04,0,0,0,0,0,0,0,.01,0,.02,0,.03,0,0,0,0,0,0,0,.01,0,.02,0,.03,0,0,0,0,0,0v.03s0,0,0,0c-.01.5-.03,1-.06,1.49h0s0,.08,0,.12h0s0,.03,0,.04c0,0,0,0,0,0,0,.01,0,.02,0,.03h0s0,.03,0,.04c0,0,0,0,0,0,0,0,0,.02,0,.03,0,0,0,0,0,.01,0,0,0,.02,0,.03,0,.01,0,.02,0,.03,0,0,0,.01,0,.02,0,0,0,.01,0,.02,0,0,0,.01,0,.02,0,0,0,.02,0,.02,0,0,0,.01,0,.02,0,0,0,.02,0,.02,0,0,0,0,0,.01,0,0,0,.02,0,.02h0c-.02.38-.04.74-.06,1.11l7.99.48c.1-1.59.16-3.2.18-4.79l-8.01-.13h0Zm7.87-7.54l-8,.42c.02.42.04.84.06,1.26h0s0,.03,0,.04h0s0,.03,0,.04c0,0,0,0,0,0,0,.02,0,.05,0,.07,0,0,0,.02,0,.02,0,0,0,0,0,.01,0,.01,0,.01,0,.02,0,0,0,0,0,.01,0,0,0,.02,0,.03,0,0,0,0,0,0,0,.01,0,.02,0,.03,0,0,0,0,0,0,.03.77.05,1.54.06,2.32,0,0,0,0,0,.01,0,0,0,.01,0,.02,0,0,0,.01,0,.02,0,0,0,.01,0,.02,0,0,0,.01,0,.02,0,0,0,.01,0,.02,0,.01,0,.02,0,.03,0,0,0,0,0,0,0,.03,0,.05,0,.08h0c0,.12,0,.23,0,.34l8.01-.07c-.01-1.59-.06-3.21-.15-4.79h0Zm-.67-7.65l-7.95.98c.18,1.47.33,2.94.45,4.43l7.98-.63c-.13-1.59-.29-3.2-.48-4.78h0Zm-1.21-7.59l-7.86,1.54c.11.55.21,1.1.31,1.65h0s0,.02,0,.04h0s0,.03,0,.04h0s.01.08.02.12h0s0,.03,0,.04c0,0,0,0,0,0,0,0,0,.02,0,.03,0,0,0,0,0,.01,0,0,0,.02,0,.02,0,0,0,.01,0,.02,0,0,0,.01,0,.02,0,0,0,.01,0,.02v.02s0,.02,0,.02c0,0,0,.01,0,.02,0,0,0,.01,0,.02,0,0,0,0,0,.01,0,.02,0,.03,0,.05,0,0,0,0,0,0,0,0,0,.01,0,.02,0,0,0,0,0,.01,0,0,0,.01,0,.02,0,0,0,0,0,.01,0,0,0,.02,0,.03,0,0,0,0,0,0,0,0,0,.02,0,.03,0,0,0,0,0,0,0,0,0,.02,0,.03h0s.02.09.02.14c0,0,0,0,0,0,0,0,0,.02,0,.03,0,0,0,0,0,0,0,0,0,.02,0,.03,0,0,0,0,0,0,0,.01,0,.02,0,.03,0,0,0,0,0,0,.01.08.03.16.04.24,0,0,0,0,0,0,0,.01,0,.02,0,.03,0,0,0,0,0,0,.01.07.02.14.03.2,0,0,0,0,0,0,0,0,0,.02,0,.03,0,0,0,0,0,0,0,0,0,.02,0,.03,0,0,0,0,0,0,0,0,0,.02,0,.03h0s0,.03,0,.04c0,0,0,0,0,.01,0,0,0,.02,0,.03,0,0,0,0,0,0,0,.01,0,.02,0,.04,0,0,0,.02,0,.03,0,0,0,0,0,.01,0,0,0,.02,0,.02,0,0,0,.01,0,.02,0,0,0,.01,0,.02,0,0,0,0,0,.02,0,0,0,.02,0,.02,0,0,0,0,0,.01,0,0,0,.02,0,.03,0,0,0,0,0,0,0,.01,0,.02,0,.03h0c.05.3.09.6.14.9l7.92-1.19c-.24-1.58-.51-3.17-.82-4.73h0Zm-1.74-7.49l-7.73,2.09c.16.59.32,1.19.47,1.79,0,0,0,0,0,0,0,0,0,.02,0,.03,0,0,0,0,0,.01,0,0,0,.02,0,.02,0,0,0,0,0,.01,0,0,0,.02,0,.03,0,0,0,0,0,.01,0,0,0,.01,0,.02,0,0,0,0,0,.02,0,0,0,.01,0,.02,0,0,0,.01,0,.02,0,0,0,.01,0,.02,0,.03.01.05.02.08,0,0,0,0,0,0,0,0,0,.02,0,.03,0,0,0,0,0,0,0,0,0,.02,0,.03,0,0,0,0,0,0,0,0,0,.02,0,.03,0,0,0,0,0,0,0,0,0,.02,0,.03,0,0,0,0,0,0,.17.7.34,1.4.49,2.1l7.82-1.75c-.35-1.56-.74-3.13-1.15-4.66h0Zm-2.27-7.34l-7.56,2.64c.49,1.4.94,2.81,1.37,4.23l7.67-2.3c-.46-1.53-.96-3.07-1.48-4.57h0Zm-2.79-7.16l-7.36,3.17c.18.42.36.85.54,1.28,0,0,0,0,0,0,0,.02.02.04.02.06,0,0,0,0,0,0,0,.02.02.04.02.06,0,0,0,0,0,.01,0,.02.01.04.02.05,0,0,0,0,0,.01,0,.01.01.03.02.04,0,0,0,.02.01.03,0,.01.01.03.02.04,0,0,0,.01,0,.02,0,.01.01.03.02.04,0,0,0,.02.01.03,0,.01.01.03.02.04,0,0,0,.02.01.03,0,0,0,.01,0,.02,0,.02.01.04.02.05,0,0,0,0,0,.01,0,.02.02.04.03.06h0c.3.74.59,1.48.87,2.23l7.49-2.84c-.56-1.49-1.17-2.99-1.8-4.45h0Zm-3.29-6.95l-7.11,3.68s0,0,0,0c0,.01.02.03.02.04,0,0,0,.01.01.02,0,.01.01.03.02.04,0,0,0,.02.01.02,0,.01.01.02.02.04,0,0,.01.02.02.03,0,0,0,.02.01.03,0,.01.01.03.02.04,0,0,0,.01.01.02,0,.01.01.03.02.04,0,0,0,.02.01.02,0,.02.02.04.03.05,0,0,0,0,0,0,0,.01.01.02.02.03h0s.02.05.03.07h0s.02.05.03.07h0c.44.87.87,1.73,1.28,2.61,0,0,0,.01,0,.01,0,.02.02.03.02.05,0,0,0,.01.01.02,0,.01.01.03.02.04,0,.01,0,.02.01.03,0,0,0,.02.01.03,0,.01.01.03.02.04,0,0,0,.01,0,.02,0,.01.02.03.02.05,0,0,0,.01,0,.02,0,.02.02.03.02.05,0,0,0,0,0,0,.07.14.14.29.2.44l7.27-3.36c-.67-1.45-1.38-2.9-2.11-4.31h0Zm-3.77-6.7l-6.84,4.17c.23.38.45.75.68,1.13,0,0,0,0,0,0,.01.02.02.03.03.05,0,0,0,0,0,0,0,.02.02.03.03.05,0,0,0,0,0,.01l.03.05s0,0,0,.01c0,.01.02.03.02.04,0,0,0,.01.01.02,0,.01.01.02.02.03,0,0,.01.02.02.03,0,.01.01.02.02.03,0,0,0,.01.01.02,0,.01.01.02.02.04,0,0,0,.02.01.03,0,.01.01.03.02.04,0,0,.01.02.02.03,0,0,0,.01.01.02,0,.01.02.03.03.04,0,0,0,.01,0,.02,0,.02.02.03.03.05,0,0,0,0,0,.01l.03.06s0,0,0,0c.03.05.06.11.09.16h0c.36.62.7,1.23,1.05,1.86l7.01-3.87c-.77-1.4-1.58-2.79-2.41-4.15h0Zm-4.23-6.41l-6.53,4.64c.86,1.21,1.69,2.44,2.5,3.68l6.72-4.35c-.87-1.34-1.77-2.67-2.7-3.97h0Zm-4.67-6.1l-6.18,5.09c.43.52.86,1.05,1.28,1.59,0,0,0,0,0,0,.01.02.03.03.04.05,0,0,0,0,0,0,.01.02.03.03.04.05,0,0,0,0,0,.01.01.01.02.03.03.04,0,0,0,0,.01.02.01.01.02.03.03.04,0,0,0,0,.01.01,0,0,.01.02.02.03,0,0,.01.01.01.02.01.01.02.03.03.04,0,0,0,0,.01.02.01.01.02.03.03.04,0,0,0,.01.01.02,0,.01.02.02.03.04,0,0,0,.01.01.02,0,.01.02.03.03.04,0,0,0,.01.01.02,0,0,.01.02.02.03,0,0,.02.02.02.03,0,0,.01.02.02.03,0,0,.01.02.02.02,0,.01.02.02.03.03,0,0,.01.01.02.02,0,.01.02.02.03.04,0,0,0,.01.01.02.01.01.02.03.03.04,0,0,0,0,.01.01.01.02.02.03.03.05,0,0,0,0,0,.01.01.02.03.04.04.05,0,0,0,0,0,0,.02.03.05.06.07.09h0s.03.04.04.06h0s.03.04.04.06h0c.2.27.41.53.61.8l6.4-4.81c-.96-1.27-1.96-2.54-2.97-3.77h0Zm-5.08-5.76l-5.81,5.51c.08.08.16.17.24.25,0,0,0,0,0,0,.02.02.03.03.04.05,0,0,0,0,0,0,.02.02.03.03.04.04,0,0,0,0,0,0,.01.01.02.02.03.04,0,0,.01.01.02.02,0,0,.02.02.03.03,0,0,.01.01.02.02,0,0,.02.02.03.03,0,0,.01.02.02.02,0,0,.01.01.02.02.01.01.02.03.04.04h0s.03.04.05.06h0c.81.87,1.61,1.76,2.4,2.67l6.05-5.25c-1.04-1.2-2.13-2.4-3.22-3.56h0Zm-5.47-5.39l-5.41,5.9c1.09,1,2.16,2.03,3.21,3.08l5.67-5.66c-1.13-1.13-2.29-2.24-3.47-3.32h0Zm-5.84-4.99l-4.99,6.27c.82.65,1.62,1.31,2.42,1.98,0,0,0,0,0,0,.02.01.03.03.05.04,0,0,0,0,0,0,.01.01.03.03.04.04,0,0,0,0,.01,0,.01.01.03.02.04.04,0,0,0,0,.01.01.01.01.03.02.04.03,0,0,0,0,.01.01.01.01.02.02.03.03,0,0,.01.01.02.02.01.01.02.02.03.03,0,0,.01,0,.02.01.01.01.02.02.04.03,0,0,.01.01.02.02.01.01.02.02.04.03,0,0,.01.01.02.02.01.01.02.02.03.03,0,0,.01.01.02.02,0,0,.02.01.03.02,0,0,.02.02.03.03,0,0,.01.01.02.02.01,0,.02.02.03.03,0,0,.01.01.02.02.01,0,.02.02.03.03,0,0,.02.01.02.02,0,0,.02.01.02.02.01.01.02.02.03.03,0,0,.01.01.02.02,0,0,.02.02.03.03,0,0,.01.01.02.02.01.01.02.02.03.03,0,0,.01,0,.02.02,0,0,.02.02.03.03,0,0,.02.01.02.02,0,0,.02.02.03.02,0,0,.01.01.02.02.01.01.02.02.04.03,0,0,0,0,0,0l5.26-6.04c-1.2-1.05-2.44-2.08-3.69-3.07h0Zm-6.17-4.57l-4.53,6.6c.59.41,1.18.82,1.76,1.24,0,0,0,0,0,0,.02.01.04.03.06.04,0,0,0,0,0,0,.04.03.07.05.11.08,0,0,0,0,0,0,.02.01.04.03.05.04,0,0,0,0,0,0,.02.01.03.02.05.03,0,0,0,0,.01,0,.02.01.03.02.04.03,0,0,0,0,.01,0,.01,0,.03.02.04.03,0,0,.01,0,.01.01.01,0,.03.02.04.03,0,0,.01,0,.02.01.01,0,.02.02.03.02,0,0,.02.01.03.02.01,0,.02.01.03.02,0,0,.01,0,.02.01.01,0,.02.02.04.03,0,0,.02.01.02.02.01,0,.02.02.03.02,0,0,.02.01.03.02,0,0,.01,0,.02.01.01.01.03.02.04.03,0,0,0,0,.01,0,.02.01.03.02.05.04,0,0,0,0,0,0,.34.25.69.51,1.03.76l4.82-6.4c-1.27-.96-2.58-1.9-3.9-2.8h0Zm-6.48-4.12l-4.06,6.9s0,0,0,0c.02,0,.03.02.05.03,0,0,0,0,.01,0,.02,0,.04.02.05.03,0,0,0,0,0,0,.76.45,1.51.9,2.25,1.37h0s.04.03.06.04c0,0,0,0,0,0,.02.01.04.02.06.04,0,0,0,0,0,0,.04.02.08.05.11.07,0,0,0,0,0,0,.02.01.04.02.05.03,0,0,0,0,0,0,.02.01.03.02.05.03,0,0,0,0,0,0,.02.01.04.02.05.03,0,0,0,0,0,0,.02.01.04.02.05.03,0,0,0,0,0,0,.04.02.07.05.11.07,0,0,0,0,0,0,.02.01.04.02.05.03,0,0,0,0,0,0,.02.01.03.02.05.03,0,0,0,0,0,0,.02.01.04.02.05.03,0,0,0,0,0,0,.21.14.43.27.64.41l4.36-6.72c-1.34-.87-2.71-1.72-4.08-2.52h0Zm-6.76-3.66l-3.56,7.17s0,0,.01,0c.01,0,.03.01.04.02,0,0,.01,0,.02.01.01,0,.03.01.04.02,0,0,.02,0,.02.01.01,0,.03.01.04.02,0,0,.02,0,.03.01,0,0,.01,0,.02,0,.02,0,.03.02.05.02,0,0,0,0,.01,0,.02,0,.04.02.06.03h0s.04.03.06.04h0c1.19.6,2.37,1.22,3.53,1.86l3.87-7.01c-1.4-.77-2.83-1.52-4.25-2.23h0Zm-7-3.17l-3.04,7.41c.55.23,1.1.46,1.65.69h0s.02.01.03.02h0s.04.02.06.03c0,0,.01,0,.02,0,.01,0,.03.01.04.02,0,0,.02,0,.03.01.01,0,.02,0,.03.01.01,0,.02.01.04.02,0,0,.01,0,.02,0,.01,0,.03.01.05.02,0,0,.01,0,.02,0,.02,0,.03.01.05.02,0,0,0,0,.01,0,.02,0,.03.02.05.02,0,0,0,0,0,0,.66.29,1.31.58,1.96.88l3.37-7.27c-1.45-.67-2.93-1.32-4.4-1.92h0Zm-7.21-2.67l-2.51,7.6c.54.18,1.08.36,1.61.55h0s.04.02.06.02c0,0,0,0,.02,0,.02,0,.03.01.05.02,0,0,.02,0,.02,0,0,0,.02,0,.03.01.01,0,.03.01.04.01,0,0,.02,0,.02,0,.02,0,.03.01.04.02,0,0,.01,0,.02,0,.02,0,.03,0,.04.01,0,0,.01,0,.02,0,.02,0,.03.01.05.02,0,0,0,0,.01,0,.02,0,.04.01.05.02,0,0,0,0,.01,0,.02,0,.04.01.06.02,0,0,0,0,0,0,.67.24,1.35.49,2.02.74l2.85-7.49c-1.49-.57-3.01-1.11-4.53-1.61h0Zm-7.38-2.15l-1.97,7.76s.02,0,.03,0h0s.04.01.06.02c0,0,0,0,.01,0,.01,0,.02,0,.03,0,.01,0,.03,0,.04.01,0,0,.02,0,.03,0,.01,0,.02,0,.03,0,.01,0,.02,0,.04,0,.01,0,.02,0,.03,0,0,0,.02,0,.03,0,.02,0,.03,0,.05.01,0,0,.01,0,.02,0,.02,0,.04,0,.05.01,0,0,.01,0,.02,0,.02,0,.04,0,.05.01,0,0,0,0,.01,0,.02,0,.04.01.06.02,0,0,0,0,0,0,.02,0,.04.01.06.02,0,0,0,0,0,0,.02,0,.04.01.06.02h0s.05.01.06.02c0,0,0,0,0,0,.78.21,1.57.42,2.34.64,0,0,0,0,0,0,.02,0,.04.01.06.02,0,0,0,0,0,0,.02,0,.04.01.06.02,0,0,0,0,.01,0,.02,0,.04.01.06.02,0,0,0,0,.01,0,.02,0,.03.01.05.01,0,0,.01,0,.02,0,.02,0,.03,0,.04.01,0,0,.01,0,.02,0,.02,0,.03,0,.04.01,0,0,.02,0,.03,0,.01,0,.03,0,.04.01.01,0,.02,0,.03,0,0,0,.01,0,.02,0,.02,0,.04.01.06.02h0c.19.06.37.11.56.17l2.31-7.67c-1.53-.46-3.08-.89-4.63-1.28h0Zm-7.51-1.62l-1.41,7.88s0,0,0,0c0,0,0,0,.01,0,0,0,.02,0,.02,0,0,0,0,0,.01,0,0,0,.02,0,.02,0,0,0,0,0,.02,0,0,0,.01,0,.02,0,0,0,.01,0,.02,0,0,0,.01,0,.02,0,0,0,.01,0,.02,0,0,0,0,0,0,0,.02,0,.04,0,.06.01,0,0,0,0,0,0,0,0,.02,0,.03,0,0,0,0,0,0,0,0,0,.02,0,.03,0,0,0,0,0,0,0,0,0,.02,0,.03,0h0s.02,0,.03,0c0,0,0,0,0,0,0,0,.02,0,.03,0,0,0,0,0,0,0,.08.01.16.03.24.04,0,0,0,0,0,0,0,0,.02,0,.03,0,0,0,0,0,0,0,.08.02.16.03.24.04,0,0,0,0,0,0,.01,0,.02,0,.03,0,0,0,0,0,0,0,0,0,.02,0,.03,0,0,0,0,0,0,0,.05.01.11.02.17.03,0,0,0,0,0,0,0,0,.02,0,.03,0,0,0,0,0,0,0,0,0,.02,0,.03,0,0,0,0,0,.01,0,0,0,.02,0,.02,0,0,0,0,0,.01,0,0,0,.01,0,.02,0,0,0,0,0,.01,0,0,0,.02,0,.02,0,0,0,.01,0,.02,0,0,0,.02,0,.03,0,0,0,.02,0,.03,0,0,0,0,0,.01,0,0,0,.02,0,.03,0,0,0,0,0,.01,0,0,0,.02,0,.03,0,0,0,0,0,.01,0,0,0,.02,0,.03,0,0,0,0,0,.01,0,0,0,.02,0,.03,0h0c.94.18,1.87.38,2.8.59l1.76-7.81c-1.55-.35-3.14-.67-4.71-.95h0Zm-7.6-1.09l-.85,7.96c.36.04.71.08,1.07.12,0,0,0,0,0,0,0,0,.02,0,.03,0,0,0,.01,0,.02,0,0,0,.01,0,.02,0,0,0,.02,0,.02,0,0,0,0,0,.01,0,.01,0,.03,0,.04,0h0s.02,0,.04,0h0s.02,0,.03,0h0s.02,0,.03,0h0s.03,0,.04,0h0c.79.1,1.58.2,2.36.31,0,0,0,0,.01,0,0,0,.02,0,.02,0,0,0,0,0,.02,0,0,0,.01,0,.02,0,0,0,.01,0,.02,0,0,0,0,0,.01,0,0,0,.02,0,.02,0,0,0,0,0,0,0,.18.03.36.05.55.08l1.2-7.92c-1.57-.24-3.18-.45-4.76-.62h0Zm-7.66-.55l-.29,8c.39.01.79.03,1.18.05,0,0,0,0,.01,0,0,0,.01,0,.02,0,0,0,.01,0,.02,0,0,0,.01,0,.02,0,0,0,.01,0,.02,0,0,0,0,0,.02,0,0,0,.02,0,.03,0,0,0,0,0,.01,0,.04,0,.08,0,.12,0h0s.03,0,.04,0h0c.66.03,1.31.07,1.97.12h0s.02,0,.03,0c0,0,0,0,0,0,0,0,.02,0,.03,0,0,0,0,0,.01,0,0,0,.02,0,.02,0,0,0,.01,0,.01,0,0,0,.02,0,.03,0,0,0,0,0,0,0,.01,0,.02,0,.04,0,0,0,.02,0,.02,0,0,0,0,0,.01,0,.01,0,.02,0,.03,0,0,0,0,0,.01,0,0,0,.02,0,.03,0,0,0,0,0,.01,0,0,0,.02,0,.03,0,0,0,0,0,0,0,.22.02.44.03.65.05l.64-7.98c-1.59-.13-3.2-.22-4.79-.28h0Zm-4.05-.07v8.01h.08s0,0,.01,0h.04c.32,0,.64,0,.97,0L110.19,0c-.39,0-.78,0-1.18,0h0Z" style="fill: #4bd996; stroke-width: 0px;"/>
        <circle cx="109.01" cy="109.01" r="101" style="fill: none; stroke: #fff; stroke-miterlimit: 10; stroke-width: 12.46px;"/>
        <circle cx="109.01" cy="109.01" r="101" style="fill: #41d992; opacity: .39; stroke-width: 0px;"/>
      </g>
      <path d="m180.01,68.1c-3.16,2.57-7.64,5.41-11.34,6.64l5.49,1.03-22.67,26.73-45.19,13-53.47,57.03h42.12s21.46-34.47,21.46-34.47l43-25.55,16.7-35.59,3.56,4.31c-.71-3.83-.39-9.13.33-13.13Z" style="fill: #f7cc7f; stroke-width: 0px;"/>
      <path d="m45.61,128.47s-2.45-4.39-3.04-5.32c-.6-.93-2.15-4.64-2.2-4.79-.06-.15,1.07-1.9.82-1.96-.25-.06-.53.93-.8.81-.27-.12-1.05-2.49-1.2-2.37-.29.22.42,1.47.27,1.55-.15.08-.61-1.38-.91-1.33-.3.04.57,1.33.48,1.45-.08.11-.98-1.1-1.15-.84-.09.14.83,1.06.65,1.15-.18.09-.99-.51-1.08-.34-.09.17.75.41,1.01.87.25.46.68.66.86,1.52s.44,3.95,1.35,5.5c.91,1.55,2.91,4.97,2.91,4.97l2.03-.85Z" style="fill: #f79c8d; stroke-width: 0px;"/>
      <path d="m44.93,127.04s2.71,2.92,3.11,4.1-.39,2.86-1.49,2.93c-1.1.07-3.54-5.18-3.54-5.18l1.92-1.85Z" style="fill: #355389; stroke-width: 0px;"/>
      <path d="m57.69,148.18c-.2-.16-.44-.09-1.12-.41-.13-.06-.48-.16-.64-.19-.03,0-.05-.03-.06-.06-.21-.79-1.12-4.43-1.22-5.48-.1-1.07-.79-5.62-.9-6.31,0-.05-.05-.08-.1-.06l-1.99.55s-.07.05-.06.09c.12.54.89,3.95,1.11,5.67.18,1.37,2.23,5.78,2.27,6.06,0,0,0,0,0,0,.01.08.09.15.17.15.5,0,2.12,0,2.22,0,.08,0,.38.02.32-.03Z" style="fill: #f48c7f; stroke-width: 0px;"/>
      <path d="m53.27,133.77c-1.06-3.21-2.24-3.07-2.24-3.07l.92,6.75c.65-.18,1.5-.58,2.16-.76-.22-1.01-.57-2.12-.83-2.91Z" style="fill: #13375b; stroke-width: 0px;"/>
      <path d="m52.94,125.43c-.32-2.11-2.23-3.63-4.23-2.6-.45.23-1.06.7-1.37,1.1-.84,1.08-1.05,2.41-1.92,3.45.32.24.7.49,1.16.74l.54-.72-.19.9c1.34.64,3.23,1.17,5.82,1.16.33-1.47.35-2.89.18-4.02Z" style="fill: #f7cc7f; stroke-width: 0px;"/>
      <path d="m53.56,172.22c-.3-.22-.55-.37-1.52-.85-.06-.03-.29-.18-.38-.23-.21-.13-.42-.33-.61-.54-.17-.19-.26-.82-.3-1.32.1-1.11,1.71-18.93,2.05-20.86.35-1.99-.18-5.03-.18-5.03l-1.24-.47-2.36,8.18.19,6.23s-.55,1.79-.62,2.87c-.07,1.07.8,9.78.8,9.78h0c0,.31-.01.59-.05.77-.06.33-.42,1-.26,1.3.16.31.35.38.35.38l4.24.07c.23,0,.08-.15-.11-.28Z" style="fill: #f48c7f; stroke-width: 0px;"/>
      <path d="m47.12,142.76s-1.47,2.22-1.82,4.06c-.35,1.84.26,7.49-.42,9.9-.37,1.3-1.75,3.32-1.96,5-.21,1.69-.94,6.55-.94,6.55h0c-.11.51-.28,1.14-.51,1.44-.14.18-.39.41-.55.73-.26.51-.12,1.26.07,1.67.1.21,0,.21.21.28.66.2,1.36-.14,1.63-.77.16-.35.29-.82.32-1.41.03-.63.13-1.13.23-1.49h0l4.71-11.55,3.41-9.96.87-5.13-5.26.69Z" style="fill: #f79c8d; stroke-width: 0px;"/>
      <path d="m42.97,171.29c-1.02.19-1.7-.41-2.05-.86-.26.51-.39,1.26-.19,1.68.17.37.66.36,1.04.37.41.02.72-.21.93-.57.09-.17.19-.37.27-.62Z" style="fill: #86b1f2; stroke-width: 0px;"/>
      <path d="m51.66,171.15c-1.12.29-1.95.09-2.41-.1-.12.34-.28.77-.19,1.01.1.3.25.37.38.37,1.02.03,3.75.06,4.53.07.11,0,.17-.13.1-.21-.19-.23-2.32-1.1-2.4-1.15Z" style="fill: #86b1f2; stroke-width: 0px;"/>
      <path d="m48.08,157.19c.09,0,.18.01.27.02,0,0,0,0,.01,0,.09,0,.18.01.26.01,0,0,.01,0,.02,0,.09,0,.18,0,.27.01,0,0,0,0,.01,0,.09,0,.18,0,.27.01,1.01.03,2.25.02,3.04-.12.41-4.07.56-7.78.71-8.6.36-1.99-.32-5.13-.32-5.13l-.33-.06.21-1.16-5.47.69s-1.53,2.22-1.9,4.06c-.36,1.84.27,7.49-.43,9.9,0,0,1.56.24,3.38.37Z" style="fill: #f7cc7f; stroke-width: 0px;"/>
      <path d="m48.32,130.13s-1.95-.12-2.72.72c-.77.84,1.71,7.51,1.85,8.58.14,1.07-.71,3.92-.71,3.92,0,0,4.58.92,5.89.06,0,0,.14-7.71,0-8.48-.14-.77-1.31-3.88-1.59-4.19-.28-.31-2.71-.61-2.71-.61Z" style="fill: #355389; stroke-width: 0px;"/>
      <path d="m48.96,127.51s-.01.06-.03.16c-.09.47-.42,2.03-.65,2.46-.27.52.94,2.17,2.1,1.97.35-.06-.29-1.52-.26-1.67.06-.3.14-.7.22-1.11.05-.23.09-.47.14-.69.12-.63.23-1.15.23-1.15l-1.74.04Z" style="fill: #f7a491; stroke-width: 0px;"/>
      <path d="m48.94,127.67c.02-.1.03-.16.03-.16l1.74-.04s-.1.52-.23,1.15c-.04.22-.09.46-.14.69-.27-.04-.55-.17-.83-.42-.31-.27-.51-.59-.63-.94.02-.11.04-.21.05-.28Z" style="fill: #f47458; stroke-width: 0px;"/>
      <path d="m50.14,123.54s-.82-.1-1.34.57c-.52.67-1.07,2.73.21,3.86,1.28,1.12,2.54-.15,2.73-1.5.19-1.35.26-2.98-1.6-2.93Z" style="fill: #f7a491; stroke-width: 0px;"/>
      <path d="m52.12,126.46c-.15.3-.41.46-.57.37-.16-.09-.17-.41-.02-.71.15-.3.41-.46.57-.37.16.09.17.41.02.71Z" style="fill: #f7a491; stroke-width: 0px;"/>
      <path d="m50.23,123.32s-1.1,1.96-1.88,2.05-.89,1.13-.89,1.13c0,0,.28-2.4,1.06-2.87.78-.46,1.71-.32,1.71-.32Z" style="fill: #f7cc7f; stroke-width: 0px;"/>
      <path d="m48.55,125.87c.06.35-.06.67-.29.71-.22.05-.45-.2-.52-.55-.06-.35.06-.67.29-.71.22-.05.45.2.52.55Z" style="fill: #f7a491; stroke-width: 0px;"/>
      <path d="m49.52,127.14l1.19.23s-.12.45-.64.36c-.64-.11-.55-.59-.55-.59Z" style="fill: #fff; stroke-width: 0px;"/>
      <g>
        <rect x="146.33" y="161.35" width=".5" height="11.36" transform="translate(321.7 303.82) rotate(169.26)" style="fill: #3c8f7c; stroke-width: 0px;"/>
        <polygon points="124.85 172.71 124.27 172.71 126.45 161.4 126.94 161.49 124.85 172.71" style="fill: #3c8f7c; stroke-width: 0px;"/>
        <polygon points="141.96 172.71 141.37 172.71 143.55 161.4 144.04 161.49 141.96 172.71" style="fill: #3c8f7c; stroke-width: 0px;"/>
        <polygon points="130.19 172.71 130.67 172.71 128.57 161.45 128.09 161.54 130.19 172.71" style="fill: #184655; stroke-width: 0px;"/>
        <path d="m138.62,136.89c2.6.28,5.97.57,9.34,6.31,3.69,6.27,1.75,15.63-1.17,18.23-2.91,2.6-12.43,5.81-20.44,1,0,0-4.83-2.91-2.35-7.75,3.82-7.44,3.28-8.99,4.98-11.91,1.71-2.92,4.11-6.47,9.63-5.88Z" style="fill: #f47458; stroke-width: 0px;"/>
        <path d="m147.97,143.2c-2.31-3.91-4.61-5.29-6.66-5.86.79.82,1.6,1.88,2.41,3.25,3.69,6.27,1.75,15.63-1.17,18.23-2.58,2.31-10.36,5.09-17.67,2.34.75.83,1.49,1.28,1.49,1.28,8,4.81,17.52,1.6,20.44-1,2.91-2.6,4.86-11.96,1.17-18.23Z" style="fill: #b75742; stroke-width: 0px;"/>
        <polygon points="130.27 146.42 129.6 148.42 131.64 147.62 130.27 146.42" style="fill: #f79c8d; stroke-width: 0px;"/>
        <path d="m132.37,140.45c-.14,0-.51.13-1.05,1.15-.69,1.31-1.71,5.26-1.71,5.26l3.03,1.13.39-.83.64-6.35s-1.26-.37-1.3-.36Z" style="fill: #6394db; stroke-width: 0px;"/>
        <path d="m136.38,139.88c-.87,0-3.01.25-4.01.57,0,0-.73,6.27.66,11.03.31,1.07-.26,4.42-.26,4.42l8.98-.12s-1.06-8.1-.66-9.41c.4-1.31.41-5.87.41-5.87,0,0-.06,0-2.02-.35-.91-.16-2.18-.27-3.11-.27Z" style="fill: #86b1f2; stroke-width: 0px;"/>
        <path d="m137.43,167.52s-.2,2.29-.56,2.92c-.37.63.02,1.71.04,1.86s.77.36,1.96.23c1.19-.13,1.17-.4,1.08-.84-.1-.44-.73-1.01-.77-1.43-.04-.42.37-1.94.37-1.94l-2.11-.79Z" style="fill: #f7a491; stroke-width: 0px;"/>
        <path d="m133.79,154.01s-6.2-.34-7.59.49c-1.38.84.25,2.55.25,2.55,0,0,5.05,2.19,13.5,2.67,2,.12,2.17-5.2,1.8-5.64-.37-.44-7.96-.08-7.96-.08Z" style="fill: #e5b05c; stroke-width: 0px;"/>
        <path d="m139.01,172.71c1.23-.13,1.08-.73.98-1.19-.06-.29-.41-.62-.62-.94-.11.09-.29.24-.82.4-.55.16-1.31-.16-1.8-.36-.17.64-.18,1.45-.16,1.58.02.15,1.2.64,2.43.51Z" style="fill: #f47458; stroke-width: 0px;"/>
        <path d="m138.33,158.43c-.25,1.87-1.47,11.17-1.47,11.17l2.85.35s3.5-12.14,3.32-14c-.18-1.86-1.49-2.01-1.49-2.01,0,0-2.55-.46-3.2,4.49Z" style="fill: #f7cc7f; stroke-width: 0px;"/>
        <path d="m141.6,141.19c-.84-.31-1.25,7.23-1.36,10.33-1.49.14-4.08,0-4.73-.05-.3-.02-1-.28-1.31-.32-.31-.04-.59-.06-.74-.03-.06,0-1.61.64-1.74.78-.16.17-.61.61-.53.79.08.19.86-.52.86-.52l.38-.21c-.47.46-1.38,1.07-1.25,1.29.13.22.94-.4,1.53-.82-.5.45-1.12,1.25-.98,1.38.13.11.83-.82,1.59-1.09.28-.1.56.18.78.21.16.02.41.08.57.03l.82-.23c.28.03.29.19.57.25.33.07.86.14,1.28.24,2.39.58,3.19.85,3.92.85,2.22,0,2.35-12.14.36-12.89Z" style="fill: #f7a491; stroke-width: 0px;"/>
        <path d="m143.2,148.27c.16-3.18.13-7.1-1.65-7.77-.71-.26-1.95,1.32-1.73,7.83.95.08,2.36.14,3.38-.06Z" style="fill: #86b1f2; stroke-width: 0px;"/>
        <path d="m129.1,169.48s.25.79-.2,1.32c-.44.52-2.29,1.04-2.54,1.32-.24.28-.22.53-.22.53l5.19-.14-.06-1.56-.24-1.12-1.94-.34Z" style="fill: #f7a491; stroke-width: 0px;"/>
        <path d="m128.58,171.06s1.33.54,1.98.22c.64-.32.62-.41.81-.29.19.12.25,1.71.25,1.71l-5.83.04c-.41,0-.61-.31-.28-.56.23-.17.49-.29.64-.38.46-.26,2.44-.75,2.44-.75Z" style="fill: #f47458; stroke-width: 0px;"/>
        <path d="m129.3,155.47c-.4-.84-1.31-1.94-2.92-1.28-1.53.63-1.94,2.17-1.46,3.76.48,1.58,3.66,10.89,3.77,12.16l2.54.02s-.46-7.37-.57-9.15c-.11-1.71-.67-4.06-1.36-5.52Z" style="fill: #f7cc7f; stroke-width: 0px;"/>
        <path d="m125.18,146.91h8.48c.22,0,.43.14.51.34l2.61,6.37h4.68c.13,0,.24.11.24.24h0c0,.13-.11.24-.24.24h-13.31c-.37,0-.7-.21-.85-.55l-2.63-5.86c-.16-.37.1-.78.5-.78Z" style="fill: #355389; stroke-width: 0px;"/>
        <path d="m129.75,150.61c.06.29.31.48.56.43.25-.05.41-.32.35-.61s-.31-.48-.56-.43c-.25.05-.41.32-.35.61Z" style="fill: #fff; stroke-width: 0px;"/>
        <path d="m137.41,137.2l.42,2.74s-1.52,3.26-2.42,2.97c-.76-.24-.29-3.12-.29-3.12,0,0,.41-1.55.29-2.32-.12-.77,2.01-.27,2.01-.27Z" style="fill: #f7a491; stroke-width: 0px;"/>
        <path d="m135.4,137.47c-.12-.77,2.01-.27,2.01-.27l.03.23c-.06.15-.14.28-.23.38-.48.51-1.22.82-1.86.84.06-.42.1-.87.05-1.18Z" style="fill: #f47458; opacity: .2; stroke-width: 0px;"/>
        <g>
          <path d="m137.76,133.33c.06-.02.48,3.12-.32,3.98-.8.86-2.37,1.15-2.93.47-.62-.75-.59-4.12.66-5.01,1.25-.89,2.59.57,2.59.57Z" style="fill: #f7a491; stroke-width: 0px;"/>
          <path d="m135.65,131.08c.96.2,1.59.79,1.82,1.04.44.05,1.03.29,1.65,1.31.76,1.25.2,2.64-.68,3.32-.88.68-.87,1.47-.87,1.47l-.14-.41c-.1-.31-.14-.63-.11-.96.02-.19.06-.4.14-.58.21-.45-.45-.76-.64-1.13-.14-.29-.15-.96-.38-1.44l-.27-.37s-.62-.49-1.23-.35c-.61.14-.52-2.16.71-1.9Z" style="fill: #f7cc7f; stroke-width: 0px;"/>
          <path d="m136.86,135.7c0,.38.17.7.39.7.22,0,.41-.3.41-.69,0-.38-.17-.7-.39-.7-.22,0-.41.3-.41.69Z" style="fill: #f7a491; stroke-width: 0px;"/>
        </g>
        <path d="m135.77,136.76l-1.21-.06s0,.46.54.5c.65.05.67-.44.67-.44Z" style="fill: #fff; stroke-width: 0px;"/>
      </g>
      <g>
        <path d="m159.86,121.51c.13.54.37,1.4.37,1.4-.02.24-.09,1.22-.17,2.42l1.77-.71s-.02-1.96.06-2.08c.07-.1.18.03.72-.75.16-.22.19-.62.19-.62,0,0,.03-.49-.08-.54-.11-.05-.24.03-.28.11-.04.08-.03.28-.07.37-.04.08-.3.19-.4.18-.11,0,.01-1.45.01-1.45,0,0,.06-.41.09-.55.03-.11.13-.45.13-.45,0,0,.12-.49-.03-.52-.09-.02-.32.37-.47.79-.17.45-.26.93-.31.93-.11-.02-.05-.81-.05-.81,0,0,.11-.36.11-.54.11-.21.18-.6-.01-.63-.03,0-.28.49-.28.49,0,0-.1.35-.15.51-.1.29-.11.74-.17.94-.04.17-.08.1-.1.11-.01,0,.01-.22.04-.54.01-.16,0-.34.04-.52.04-.17.06-.41.08-.55.03-.41-.23-.37-.32,0-.03.14-.07.3-.11.46-.14.62-.14,1.21-.2,1.21-.09,0-.03-1.07-.03-1.07,0,0-.13-.6-.26-.04-.15.64-.14,1.17-.13,1.19.01.16-.1.72.03,1.26Z" style="fill: #f8a492; stroke-width: 0px;"/>
        <path d="m178.6,120.08c-.13.54-.37,1.4-.37,1.4.02.24.09,1.22.17,2.42l-1.77-.71s.02-1.96-.06-2.08c-.07-.1-.18.03-.72-.75-.16-.22-.19-.62-.19-.62,0,0-.03-.49.08-.54.11-.05.24.03.28.11.04.08.03.28.07.37.04.08.3.19.4.18.11,0-.01-1.45-.01-1.45,0,0-.06-.41-.09-.55-.03-.11-.13-.45-.13-.45,0,0-.12-.49.03-.52.09-.02.32.37.47.79.17.45.26.93.31.93.11-.02.05-.81.05-.81,0,0-.11-.36-.11-.54-.11-.21-.18-.6.01-.63.03,0,.28.49.28.49,0,0,.1.35.15.51.1.29.11.74.17.94.04.17.08.1.1.11.01,0-.01-.22-.04-.54-.01-.16,0-.34-.04-.52-.04-.17-.06-.41-.08-.55-.03-.41.23-.37.32,0,.03.14.07.3.11.46.14.62.14,1.21.2,1.21.09,0,.03-1.07.03-1.07,0,0,.13-.6.26-.04.15.64.14,1.17.13,1.19-.01.16.1.72-.03,1.26Z" style="fill: #f8a492; stroke-width: 0px;"/>
        <path d="m173.77,166.14s.98,1.21,1.22,1.36c.24.15-.11,1.91-.77,2.03-.37.07-.58-.35-.58-.35l.11-.51-1.4-1.44,1.42-1.1Z" style="fill: #f7a491; stroke-width: 0px;"/>
        <path d="m168.73,166.44s.82,1.33,1.04,1.51c.22.18-.35,1.88-1.03,1.91-.38.02-.53-.42-.53-.42l.17-.49-1.2-1.61,1.55-.9Z" style="fill: #f7a491; stroke-width: 0px;"/>
        <path d="m169.72,167.89s-.47.6-.72.84c-.33.31-.75.61-.75.61,0,0-.48.87-.61,1.17-.29.68-.62,1.43-.57,1.81.02.12.29.25.51.18.95-.29,3.36-2.5,3.67-3.1.35-.68-1.53-1.5-1.53-1.5Z" style="fill: #13375b; stroke-width: 0px;"/>
        <path d="m162.82,147.65c.09-.25.17-.47.25-.69,1.01.22,2.14.46,3.31.71l.14,4.28c0-.33-.88,6.83-.88,6.83,0,0,2.27,5.03,3.82,7.96-.64.8-.94,1.05-1.86,1.59-2.41-2.89-5.57-8.18-5.7-9.06-.08-.51-.14-8.68.91-11.63Z" style="fill: #3c8f7c; stroke-width: 0px;"/>
        <path d="m171.8,148.89c-.31,3.34-.99,9.72-.93,10.23.17.64,3.21,6.54,3.76,7.4-.43.65-1.11,1.36-1.83,1.56-.14.04-5.16-7.1-5.43-7.67-.31-.64-.82-4.13-.83-8.46l-.14-4.28c1.95.42,3.74.82,5.41,1.22Z" style="fill: #50bfa5; stroke-width: 0px;"/>
        <path d="m165.4,133.67l2.29.31s1.83.03,2.06.03,1.67,8.37,2.09,11.52c.42,3.15.09,3.7.09,3.7,0,0-2.91.65-5.06.46-2.24-.2-4.75-1.41-4.75-1.41,0,0,1.91-6.05,2.29-7.93s.98-6.69.98-6.69Z" style="fill: #355389; stroke-width: 0px;"/>
        <path d="m159.84,123.55s-.15,6.23.09,6.71c.34.69,4.19,5.61,4.19,5.61,0,0-1.84,7.69-2.61,10.35-.08.27-.42,2-.42,2.16,0,.37,1.63.85,1.82.82.17-.03,1.59-7.34,2.5-10.92.31-1.21.83-2.36,1.55-3.38l.63-.9-4.84-4.85s-.6-5.39-.6-5.84c0-.12-2.08-.21-2.32.23Z" style="fill: #86b1f2; stroke-width: 0px;"/>
        <path d="m169.68,134.02l6.03-6.14s.84-5.81.9-6.03c.06-.21,1.56-.33,2.16-.39.19-.02-.1,6.19-.39,7.23-.34,1.23-4.9,6.83-4.9,6.83,0,0-.82,3.03-.62,5.26.33,3.7,1.21,8.78,1.05,8.94-.98.62-4.74.68-4.98.3-2.63-4.23.75-15.99.75-15.99Z" style="fill: #86b1f2; stroke-width: 0px;"/>
        <path d="m174.94,167.45s-.39.65-.61.92c-.29.35-.67.7-.67.7,0,0-.36.92-.45,1.24-.2.71-.43,1.56-.34,1.93.03.12.29.34.51.2.83-.54,3.04-3.07,3.27-3.7.26-.72-1.71-1.3-1.71-1.3Z" style="fill: #13375b; stroke-width: 0px;"/>
        <path d="m167.86,126.02c.26,0,.51,0,.77-.02.29-.03.66-.04.87,0,.45.09,1.15.41,1.39.99.29.73,1.35.62.1,3.38-1.41,3.13-3.06,2.1-3.08,2.03-.02-.07-.81-2.65-.81-2.65,0,0-.99.98-.97.93.02-.04-1.34-4.79,1.74-4.68Z" style="fill: #0e2e35; stroke-width: 0px;"/>
        <path d="m167.72,132.85l-.16,1.22s-.37,1.76.11,2.1c.47.34,2.01-2.15,2.01-2.15l-.16-3.1-1.79,1.93Z" style="fill: #f7a491; stroke-width: 0px;"/>
        <path d="m169.57,131.93c-.39,1.06-1.32,1.71-1.98,1.96l.14-1.04,1.79-1.93.05,1Z" style="fill: #f47458; stroke-width: 0px;"/>
        <path d="m168.98,127.42c-.88-.51-2.01-.07-2.34.88-.14.41-.3.93-.43,1.52-.29,1.4.17,2.9.8,3.02.64.12,2.56-.45,3.01-2.43.27-1.22-.12-2.46-1.05-2.99Z" style="fill: #f7a491; stroke-width: 0px;"/>
        <path d="m169.53,130.48c-.06.31.1.6.35.65.25.05.5-.16.56-.47.06-.31-.1-.6-.35-.65-.25-.05-.5.16-.56.47Z" style="fill: #f7a491; stroke-width: 0px;"/>
        <path d="m170.09,130s-.79-.09-.88-.66c-.09-.56-.67-1.92-2.04-1.97-1.37-.04,1.45-.6,1.55-.57.1.04,1.27.47,1.27.47,0,0,.62,1.08.62,1.17,0,.09-.07,1.08-.07,1.08l-.44.47Z" style="fill: #0e2e35; stroke-width: 0px;"/>
        <path d="m168.05,131.44l-1.41-.24s-.06.54.55.67c.75.15.85-.42.85-.42Z" style="fill: #fff; stroke-width: 0px;"/>
      </g>
      <g>
        <path d="m97,137.16c.05.18.08.24.15.37.43.79,1.44,1.92,1.44,1.92l.78-1.76s-.13-.55-.35-1.34c-.75.2-1.47.31-2.03.81Z" style="fill: #f8a492; stroke-width: 0px;"/>
        <path d="m101.48,135.64s-4.35,1.87-4.49,1.84c-.09-.02-1.78-2.86-1.8-5.53,0-1.23,1.27-2.71,2.7-2.42.72.15.71.35,1.77,1.89,1.06,1.54,1.83,4.22,1.83,4.22Z" style="fill: #13375b; stroke-width: 0px;"/>
        <path d="m105.19,169.23s-.1,1.71-.1,1.71c-.04.22-.19.75-.19.95,0,.74,3.52-.63,2.73-.96-.07-.03-.45-.25-.47-.51-.04-.39-.13-1.17-.13-1.17l-1.84-.02Z" style="fill: #f7a491; stroke-width: 0px;"/>
        <path d="m107.62,170.93s-.83.23-1.25.28c-.42.06-.98-.42-1.28-.29-.33.14-.32,1.42-.32,1.42,0,0,4.43.36,5.68-.01.49-.15-1.14-.87-2.83-1.4Z" style="fill: #dd513a; stroke-width: 0px;"/>
        <path d="m97.99,169.23s-.1,1.71-.1,1.71c-.04.22-.19.75-.19.95,0,.74,3.52-.63,2.73-.96-.07-.03-.56-.42-.58-.67-.04-.39-.02-1.01-.02-1.01l-1.84-.02Z" style="fill: #f7a491; stroke-width: 0px;"/>
        <path d="m100.42,170.93s-.83.23-1.25.28c-.42.06-.98-.42-1.28-.29-.33.14-.34,1.42-.34,1.42,0,0,4.45.42,5.7-.01.49-.17-1.14-.87-2.83-1.4Z" style="fill: #dd513a; stroke-width: 0px;"/>
        <g>
          <path d="m99.07,138.11l3.1-4.34s.04-.12.08-.23c.16-.43.48-1.33.76-2.22h0c.09-.32.28-.86.46-1.39.2-.58.45-1.31.46-1.43,0-.02-.02-.06-.04-.11-.11-.29-.27-1-.32-1.3-.03-.19-.07-.67.16-.67.36,0,.19.47.36.77.06-.2.19-.59.25-.98l.06-.92c.01-.07-.06-.58.19-.58h.01c.23.02.22.56.32,1.47.03-.11.06-.23.08-.35,0-.06.04-.34.08-.48-.05-.26-.02-.66.25-.62.14.02.12.58.12.58,0,.08,0,.67,0,.79.03-.2.14-1.05.35-1.05.18,0,.19.23.19.41,0,.11-.11,1.03-.12,1.13.08-.14.18-.95.26-.95.34,0,.22,1.15.09,1.45-.01.03-.02.09-.04.16-.04.21-.12.55-.3.86-.22.37-.51.96-.56,1.05-.03.18-.14.85-.27,1.68-.06.36-.12.75-.18,1.15h0c-.01.09-.08.37-.32,1.41-.34,1.43-.37,1.49-.39,1.52-.15.26-3.49,4.8-3.63,4.99l-.08.11-1.41-1.89Z" style="fill: #f7a491; stroke-width: 0px;"/>
          <path d="m104.83,127.98s-.25-.64-.7-.64c0,0,.25-.09.46.08.21.17.23.56.23.56Z" style="fill: #f47458; stroke-width: 0px;"/>
        </g>
        <g>
          <path d="m98.32,126.74l-.4,2.52s1.52,1.22,2.41.96c.74-.22.23-1.19.23-1.19,0,0-.4-1.35-.27-2.05.12-.71-1.97-.25-1.97-.25Z" style="fill: #f7a491; stroke-width: 0px;"/>
          <path d="m98.61,127.5c.38.18,1.13.43,1.72.48-.06-.35-.09-.73-.04-1,.06-.33-.36-.4-.82-.39-.61.05-1.15.15-1.15.15l-.08.48c.12.12.24.22.36.28Z" style="fill: #fe875e; stroke-width: 0px;"/>
          <path d="m96.4,123.83c-.06,0,.6,2.82,1.63,3.3,1.03.48,2.56.23,2.85-.53.32-.84-.84-3.71-2.29-4.08-1.44-.37-2.19,1.3-2.19,1.3Z" style="fill: #f7a491; stroke-width: 0px;"/>
          <path d="m97.59,121.24c-.82.47-1.2,1.17-1.32,1.46-.39.18-.85.58-1.07,1.64-.27,1.31.7,2.32,1.74,2.62,1.04.3,1.2.99,1.2.99l.12-.74s-.23-.64-.58-.96c-.35-.32.16-.79.21-1.17.03-.29-.18-.87-.14-1.35,0,0,.58-.87,1.14-1.09.97-.37-.24-2.01-1.3-1.4Z" style="fill: #13375b; stroke-width: 0px;"/>
          <path d="m98.03,125.57c.13.33.08.65-.12.72-.2.07-.47-.13-.61-.46-.13-.33-.08-.65.12-.72.2-.07.47.13.61.46Z" style="fill: #f7a491; stroke-width: 0px;"/>
        </g>
        <path d="m101.85,138.18l5.98-.97s-.68-1.71-.92-1.71-4.52,1.87-4.52,1.87l-.34.68-.19.14Z" style="fill: #f8a492; stroke-width: 0px;"/>
        <path d="m98.79,142.28s-.6,2.88-.35,5.07c.24,2.19.26,9.95.26,9.95l-.93,12.42,2.2.05s2.61-12.42,2.56-12.1c-.05.32.87-8.74.87-8.74l-3.11-6.92-1.51.27Z" style="fill: #184655; stroke-width: 0px;"/>
        <path d="m99.37,142.14s-.39,2.6.1,3.73c.49,1.14,4.17,12.31,4.22,13.22.05.91,1.27,10.98,1.27,10.98l2.56-.07.55-11.19-1.16-14.07-1.13-3.56-6.41.96Z" style="fill: #13375b; stroke-width: 0px;"/>
        <path d="m97.92,129.26s.63.41,1.22.37c.59-.05,1.42-.59,1.42-.59l-.12-.39s-1.52-.22-1.56-.2c-.04.02-.96.81-.96.81Z" style="fill: #f7a491; stroke-width: 0px;"/>
        <path d="m104.64,135.41s2.26,2.13,3.28,1.77c1.02-.36,1.44-1.61-1.05-3.43-2.23-1.63-2.23,1.66-2.23,1.66Z" style="fill: #f8a492; stroke-width: 0px;"/>
        <path d="m106.18,138.04c-.34-1.83-2.77-7.51-2.96-8.56-.09-.51-1.41-.52-2.66-.45-1.32.07-2.63.24-2.63.24,0,0-1.17.19-1.68.67-.51.48-.65,1.82.09,4.35.58,2,1.31,3.1,1.67,4.55.07.49.13.97.22,1.53.13,2.18,0,5.05,0,5.05,0,0,6.37,1.32,8.75-.68,0,0-.43-4.82-.78-6.69Z" style="fill: #355389; stroke-width: 0px;"/>
        <path d="m107.8,134.11s-2.5,2.06-2.64,2.06c-.09,0-3.56-2.55-4.37-4.65-.44-1.16.49-2.46,1.55-2.45.74,0,1.06.19,2.52,1.42,1.46,1.23,2.94,3.62,2.94,3.62Z" style="fill: #466eb6; stroke-width: 0px;"/>
      </g>
      <path d="m118.09,88.64c-.61-.41-1.24-.8-1.84-1.23-.11-.08-.21-.28-.19-.41.08-.85.21-1.7.28-2.55.02-.25.08-.38.31-.47.84-.33,1.66-.68,2.49-1.02.13-.06.27-.12.5-.22-.4-1.27-.79-2.54-1.19-3.83-1.07.21-2.04.39-3.01.61-.34.08-.53.04-.75-.28-.45-.65-.99-1.23-1.47-1.85-.07-.1-.11-.29-.06-.4.33-.85.66-1.7,1.03-2.53.18-.4.09-.61-.26-.8-.14-.07-.25-.19-.37-.29-.61-.33-1.23-.66-1.84-.99-.08-.02-.16-.02-.23-.05-.75-.31-.61-.3-1.03.33-.52.76-1.02,1.53-1.47,2.2-1.15-.11-2.22-.21-3.33-.31-.42-1.02-.86-2.08-1.3-3.15-1.35.18-2.6.61-3.82,1.19.21,1.05.41,2.08.62,3.1.04.18.03.3-.15.43-.71.53-1.4,1.07-2.06,1.65-.19.17-.32.17-.52.08-.85-.36-1.71-.7-2.57-1.05-.21-.09-.35-.08-.51.13-.7.93-1.19,1.97-1.58,3.06-.08.22.03.31.19.41.75.49,1.5,1,2.25,1.48.22.14.28.26.24.54-.15.97-.24,1.96-.37,3.01-.93.38-1.98.81-3.03,1.25.18,1.38.55,2.65,1.16,3.87,1.15-.24,2.26-.46,3.27-.67.63.73,1.2,1.42,1.81,2.07.23.25.27.43.14.73-.36.81-.69,1.63-1.02,2.45-.07.16-.19.35.06.48,1.03.54,2.06,1.09,3.09,1.63.22.12.36.04.49-.16.49-.77,1.02-1.51,1.5-2.29.19-.3.38-.31.69-.27.77.1,1.54.19,2.31.21.33,0,.45.09.57.39.36.95.76,1.89,1.13,2.81.82,0,3.07-.7,3.88-1.21-.21-1.01-.42-2.04-.65-3.06-.06-.25.02-.36.21-.52.63-.49,1.22-1.03,1.85-1.54.1-.08.32-.13.44-.08.76.3,1.51.62,2.26.95.42.18.59.26.75.15l1.76-3.27c0-.27-.18-.39-.67-.73Zm-6.54-1.15c-1.57,2.92-5.22,4.02-8.14,2.45h0c-2.92-1.57-4.02-5.22-2.45-8.14h0c1.57-2.92,5.22-4.02,8.14-2.45h0c2.92,1.57,4.02,5.22,2.45,8.14h0Z" style="fill: #cae1f9; stroke-width: 0px;"/>
      <path d="m87.5,102.64c-.99.1-1.97.23-2.96.3-.18.01-.45-.11-.55-.26-.65-.95-1.24-1.94-1.89-2.88-.19-.28-.24-.46-.08-.76.59-1.06,1.15-2.13,1.72-3.2.09-.17.18-.35.33-.65-1.51-.98-2.99-1.96-4.52-2.95-.93,1.14-1.79,2.16-2.61,3.21-.29.37-.51.49-1.01.35-1.02-.29-2.08-.43-3.11-.66-.16-.04-.36-.21-.41-.36-.39-1.16-.78-2.33-1.1-3.51-.15-.57-.43-.71-.96-.6-.2.04-.42.01-.63.02-.92.18-1.84.37-2.76.55-.09.05-.18.12-.28.15-1.04.32-.89.21-.79,1.22.12,1.24.25,2.47.36,3.54-1.28.87-2.48,1.69-3.72,2.53-1.31-.7-2.68-1.43-4.06-2.16-1.25,1.35-2.17,2.86-2.94,4.51,1.12.91,2.21,1.8,3.31,2.68.2.16.28.28.21.58-.28,1.15-.53,2.31-.73,3.48-.06.34-.19.44-.47.53-1.19.36-2.38.75-3.57,1.11-.3.09-.43.22-.42.57.07,1.57.46,3.07.99,4.54.1.29.29.3.55.27,1.2-.14,2.41-.25,3.61-.39.35-.04.52.03.72.36.68,1.14,1.42,2.24,2.2,3.45-.63,1.19-1.35,2.54-2.07,3.89,1.37,1.28,2.85,2.28,4.53,3.02.99-1.23,1.95-2.42,2.82-3.51,1.28.21,2.46.44,3.65.59.45.06.65.21.77.65.32,1.15.69,2.28,1.05,3.42.07.22.1.53.48.45,1.54-.32,3.07-.64,4.61-.96.33-.07.41-.26.37-.59-.15-1.22-.24-2.45-.41-3.66-.06-.47.13-.65.49-.87.88-.55,1.76-1.12,2.58-1.77.35-.28.55-.29.92-.08,1.19.68,2.41,1.31,3.59,1.94.86-.71,2.58-3.37,2.99-4.58-1.09-.87-2.18-1.76-3.3-2.62-.28-.21-.29-.39-.22-.72.23-1.05.38-2.12.6-3.18.04-.18.22-.41.38-.46,1.05-.34,2.11-.65,3.16-.96.59-.17.83-.24.91-.49l-.98-4.9c-.22-.28-.52-.25-1.32-.18Zm-7.77,4.42c.88,4.38-1.97,8.65-6.35,9.53h0c-4.38.88-8.65-1.97-9.53-6.35h0c-.88-4.38,1.97-8.65,6.35-9.53h0c4.38-.88,8.65,1.97,9.53,6.35h0Z" style="fill: #9bc1f9; stroke-width: 0px;"/>
      <path d="m85.45,77.15c-.4-.19-.8-.36-1.19-.56-.07-.04-.15-.14-.15-.22-.03-.51-.03-1.02-.06-1.52,0-.15.01-.23.14-.3.46-.27.92-.55,1.38-.82.07-.04.15-.09.27-.17-.35-.71-.69-1.42-1.04-2.14-.61.22-1.17.41-1.72.63-.19.08-.31.07-.46-.1-.32-.34-.69-.63-1.03-.96-.05-.05-.09-.16-.07-.23.12-.53.23-1.06.38-1.58.07-.25,0-.37-.23-.44-.09-.03-.16-.09-.24-.14-.39-.14-.78-.28-1.17-.42-.05,0-.1,0-.14,0-.47-.11-.38-.12-.58.28-.24.49-.47.99-.67,1.42-.68.04-1.32.08-1.99.11-.34-.56-.69-1.15-1.05-1.74-.78.23-1.47.59-2.14,1.04.22.6.43,1.18.64,1.77.04.1.04.17-.05.27-.37.37-.73.76-1.07,1.15-.1.11-.17.13-.3.09-.53-.13-1.07-.26-1.6-.39-.13-.03-.21-.02-.29.12-.33.61-.52,1.27-.66,1.94-.03.13.04.18.15.23.49.22.97.45,1.46.67.14.06.19.13.19.3,0,.59.03,1.17.05,1.8-.51.31-1.09.65-1.67,1,.23.79.56,1.51,1.03,2.17.65-.24,1.29-.47,1.86-.69.44.37.83.73,1.25,1.05.16.12.2.23.15.42-.14.51-.26,1.02-.38,1.53-.02.1-.08.22.08.28.65.23,1.31.46,1.96.68.14.05.21,0,.27-.14.22-.49.46-.98.68-1.48.08-.19.2-.22.38-.22.46,0,.92-.02,1.38-.08.2-.03.28.01.37.18.3.53.61,1.04.92,1.55.48-.07,1.74-.69,2.17-1.06-.21-.58-.43-1.16-.65-1.74-.06-.14-.02-.22.08-.32.33-.35.63-.72.95-1.07.05-.06.18-.11.25-.09.47.11.94.23,1.42.36.26.07.37.1.45.02l.74-2.08c-.02-.16-.14-.21-.46-.37Zm-3.94-.09c-.66,1.86-2.71,2.83-4.57,2.16h0c-1.86-.66-2.83-2.71-2.16-4.57h0c.66-1.86,2.71-2.83,4.57-2.16h0c1.86.66,2.83,2.71,2.16,4.57h0Z" style="fill: #9bc1f9; opacity: .2; stroke-width: 0px;"/>
      <path d="m79.15,171.78h-1.18c.16-5.14.29-12.93.03-13.37,0,0,.02.03.08.06l.95-.25c.15.08.25.12.28,2.31.02,1.12.01,2.67-.02,4.61-.05,3.3-.15,6.61-.15,6.64Z" style="fill: #355389; stroke-width: 0px;"/>
      <path d="m82.6,171.72h-7.94c-.37,0-.66.3-.66.66h0c0,.06.05.12.12.12h9.03c.06,0,.12-.05.12-.12h0c0-.37-.3-.66-.66-.66Z" style="fill: #355389; stroke-width: 0px;"/>
      <path d="m79.03,171.07h-.97c-.29,0-.52.23-.52.52h0c0,.29.23.52.52.52h.97c.29,0,.52-.23.52-.52h0c0-.29-.23-.52-.52-.52Z" style="fill: #355389; stroke-width: 0px;"/>
      <rect x="50.42" y="149.08" width=".47" height="23.4" style="fill: #13375b; stroke-width: 0px;"/>
      <path d="m74.56,136.14c-.04-1.04.11-2.07.58-3.03.4-.83,1.39-1.31,2.29-1.31,2.87,0,3.23,3.79,5.06,5.25.56.45,1.18.81,1.71,1.29,1.95,1.78,1.07,5.07-.72,6.63-1.24,1.08-3.19,1.7-4.72.85-.8-.44-1.41-1.18-1.84-1.98-.61-1.14-1.01-2.46-1.44-3.67-.46-1.29-.85-2.64-.91-4.02Z" style="fill: #13375b; stroke-width: 0px;"/>
      <path d="m66.64,147.03l6.24-1.74s1.31-1.77,3.01-4.14c.55.55.86,1.39,1.42,1.93l-4.13,4.57c-.15.16-.36.26-.58.26l-5.73.02-1.96.16v-1.26l1.75.2Z" style="fill: #f48c7f; stroke-width: 0px;"/>
      <path d="m75.63,145.71s2.14-2.2,2.69-3.15c.55-.95-.38-.33-1.32-.58-.36-.1-.27-2.2-.95-1.51-1.11,1.12-2.51,3.08-2.51,3.08l2.08,2.17Z" style="fill: #96d9c9; stroke-width: 0px;"/>
      <path d="m78.67,139.5s1.92-.38,2.8.35c.88.73-.19,7.25-.19,8.33,0,1.08.6,4.13.6,4.13,0,0-5.83,1.02-6.75-.6,0,0-.26-6.18-.22-6.95.04-.78.9-3.95,1.14-4.29.24-.34,2.62-.96,2.62-.96Z" style="fill: #50bfa5; stroke-width: 0px;"/>
      <path d="m78.69,136.53s.01.06.03.16c.09.47.42,2.03.65,2.45.27.52-.94,2.17-2.11,1.96-.35-.06.29-1.52.26-1.67-.06-.3-.14-.7-.22-1.11-.05-.23-.09-.47-.14-.69-.12-.63-.23-1.15-.23-1.15l1.75.04Z" style="fill: #f7a491; stroke-width: 0px;"/>
      <path d="m78.71,136.68c-.02-.1-.03-.16-.03-.16l-1.75-.04s.1.52.23,1.15c.04.22.09.46.14.69.27-.04.55-.17.83-.42.31-.27.51-.59.63-.94-.02-.11-.04-.21-.05-.28Z" style="fill: #f47458; stroke-width: 0px;"/>
      <path d="m77.51,132.56s.82-.1,1.34.57c.52.67,1.07,2.73-.21,3.85-1.28,1.12-2.55-.15-2.74-1.49-.19-1.35-.26-2.98,1.61-2.93Z" style="fill: #f7a491; stroke-width: 0px;"/>
      <path d="m75.52,135.47c.15.3.41.46.57.37.16-.09.17-.41.02-.71-.15-.3-.41-.46-.57-.37-.16.09-.17.41-.02.71Z" style="fill: #f7a491; stroke-width: 0px;"/>
      <path d="m77.42,132.34s1.1,1.96,1.89,2.05c.79.09.89,1.13.89,1.13,0,0-.28-2.4-1.06-2.86-.78-.46-1.72-.32-1.72-.32Z" style="fill: #13375b; stroke-width: 0px;"/>
      <path d="m79.1,134.88c-.06.35.06.67.29.71.22.05.46-.2.52-.55.06-.35-.06-.67-.29-.71-.22-.05-.46.2-.52.55Z" style="fill: #f7a491; stroke-width: 0px;"/>
      <g>
        <path d="m71.69,167.18s1.77,2.12,1.78,2.3c.01.18-.07,2.2-.28,2.38-.21.18-.83.32-.63.52.15.16,1.31.12,2.07.08.22-.01.5-1.79.59-2.06.13-.38.44-1.24.32-1.5-.06-.13-.33-.39-.71-.64-.4-.26-1.95-2.41-1.95-2.41l-1.2,1.32Z" style="fill: #f48c7f; stroke-width: 0px;"/>
        <path d="m74.81,168.26s-1.19,3.34-1.65,3.5c-.12.04-.72.15-.83.41-.03.08,0,.34,0,.34h2.48s.31-1.47.44-2.12c0,0,.66-1.58.58-1.73-.07-.14-1.01-.42-1.01-.42Z" style="fill: #b75742; stroke-width: 0px;"/>
        <path d="m61.1,168.2s-1.44,2.03-1.32,2.68c.07.34.37.8.2,1.12-.17.32-.37.41-.37.41l-4.5.07c-.25,0-.08-.15.11-.3.32-.24.59-.39,1.62-.89.07-.03.31-.19.4-.24.22-.14.45-.35.64-.57.32-.36,1.75-3.29,1.75-3.29l1.47,1.02Z" style="fill: #f7a491; stroke-width: 0px;"/>
        <path d="m57.23,171.04c1.19.31,2.07.1,2.56-.1.13.36.3.81.21,1.07-.11.32-.27.39-.4.39-1.09.03-3.99.07-4.82.08-.12,0-.18-.13-.11-.22.21-.25,2.46-1.16,2.55-1.22Z" style="fill: #b75742; stroke-width: 0px;"/>
        <path d="m66.32,155.66s1.79,2.04,2.24,2.36c.46.32,4.83,8.38,4.83,8.38l-1.56,1.14s-3.91-4.88-5.75-7.49c-1.55-2.21-.98-2.07-1.89-3.41-.5-.74-.39-1.74.27-2.34.08-.07.17-.15.27-.23,1.35-1.13,10.62-2.4,10.62-2.4l5.93.58s-4.84,3.4-5.02,3.49c-.18.09-6.69,1.04-6.82,1.04s-3.12-1.13-3.12-1.13Z" style="fill: #b75742; stroke-width: 0px;"/>
        <path d="m81.89,152.31s1.02,3.05-.51,4.47c-1.53,1.42-10.59,1.27-13.57,1.27,0,0-1.22,3.34-1.36,3.89-.14.54-6.06,7.55-6.06,7.55l-1.63-1.04s6.37-12.38,6.87-12.93c.5-.54,7.59-2.71,9.35-3.21,1.76-.5,6.89,0,6.89,0Z" style="fill: #f47458; stroke-width: 0px;"/>
      </g>
      <path d="m70.1,146.82l5.41-1.2s1.96-2.51,3.84-4.68c.55.55.86,1.39,1.42,1.93l-4.13,4.57c-.15.16-.36.26-.58.26l-5.73.02-1.96.16v-1.26l1.75.2Z" style="fill: #f7a491; stroke-width: 0px;"/>
      <path d="m79.08,145.5s2.14-2.2,2.69-3.15c.55-.95.14-2.55-.8-2.8-.95-.25-3.97,3.79-3.97,3.79l2.08,2.17Z" style="fill: #96d9c9; stroke-width: 0px;"/>
      <g>
        <path d="m58.98,140.67h8.92c.24,0,.45.14.54.36l2.75,6.7h4.92c.14,0,.25.11.25.25h0c0,.14-.11.25-.25.25h-14c-.38,0-.73-.23-.89-.58l-2.77-6.16c-.17-.39.11-.82.53-.82Z" style="fill: #b75742; stroke-width: 0px;"/>
        <path d="m63.79,144.57c.06.3.32.5.59.45.26-.05.43-.34.37-.64-.06-.3-.32-.5-.59-.45-.26.05-.43.34-.37.64Z" style="fill: #fff; stroke-width: 0px;"/>
      </g>
      <path d="m77.05,149.36h-26.66c-.31,0-.57-.25-.57-.57h0c0-.31.25-.57.57-.57h26.66c.31,0,.57.25.57.57h0c0,.31-.25.57-.57.57Z" style="fill: #184655; stroke-width: 0px;"/>
      <path d="m77.01,136.24l1.21-.06s0,.46-.54.5c-.65.05-.67-.44-.67-.44Z" style="fill: #fff; stroke-width: 0px;"/>
      <path d="m73.23,158.37l.55-2.27c.38-1.59,1.79-2.75,3.42-2.81l6.92-.28.21-.7-7.16.29c-1.94.08-3.62,1.45-4.07,3.34l-.58,2.42c.2,0,.44.01.71.02Z" style="fill: #355389; stroke-width: 0px;"/>
      <path d="m82.51,157.15s-9.5.16-10.49,0c-.99-.16-1.42,1.08-1.12,1.73s1.11.9,2.31.96c1.2.06,11.16.34,11.44.07.23-.22,3.25-10.54,4.35-14.32.22-.75-.21-1.54-.97-1.76h0c-.75-.22-1.54.21-1.77.95l-3.75,12.37Z" style="fill: #184655; stroke-width: 0px;"/>
      <rect x="76.58" y="149.08" width=".47" height="23.4" style="fill: #13375b; stroke-width: 0px;"/>
      <rect x="50.42" y="150.6" width="26.52" height=".25" style="fill: #13375b; stroke-width: 0px;"/>
      <g>
        <path d="m147.65,36.5s3.44,2.23,11.94,1.93c0,0-9.1,3.44-12.66,3.97l-1.46-5.78,2.19-.11Z" style="fill: #e25a44; stroke-width: 0px;"/>
        <path d="m149.28,39.42s-.7,1.63-2.35,2.98l-.76-3.01.05-1.46,3.06,1.49Z" style="fill: #b75742; stroke-width: 0px;"/>
        <path d="m136.18,33.2s9.95-.67,11.5-.1l1.6,6.32s-5.66-.49-11.18,1.35l-1.92-7.57Z" style="fill: #f47458; stroke-width: 0px;"/>
        <path d="m130.19,103.6s-.48.78-.44,1.01c.04.23.62,2.68.94,2.85.32.16,1.12.13.94.45-.14.24-1.57.56-2.53.75-.28.05-1.18-2.06-1.37-2.36-.28-.43-.93-1.39-.87-1.76.03-.18.28-.59.68-1.02.42-.45.71-1.29.71-1.29l1.94,1.36Z" style="fill: #f48c7f; stroke-width: 0px;"/>
        <path d="m137.15,103.38s-.16,1.75-.16,1.76c.02.27.01.94.07,1.17.22.87,3.74-1.73,2.76-1.9-.09-.01-.41-.23-.51-.52-.16-.45.07-1.11.07-1.11l-2.23.6Z" style="fill: #f7a491; stroke-width: 0px;"/>
        <path d="m135.72,71.86s1.02,2.81,1.03,2.86c1.18,4.67,4.41,13.55,4.46,14.47.11,2.25-1.74,14.33-1.74,14.33l-2.57.33-.06-13.89-2.53-4.96-4.33-9.97,5.74-3.17Z" style="fill: #3c8f7c; stroke-width: 0px;"/>
        <path d="m127.99,76.53l.22,2.85,1.57,11.58-2.1,12.23s1.09,1.43,2.16,1.39l4.91-13.26,1.17-15.67-.98-3.17-6.95,4.04Z" style="fill: #50bfa5; stroke-width: 0px;"/>
        <path d="m127.56,103.51s2.51,3.76,3.14,3.81c.17.01.93-.04,1.15.25.07.09.21.52.21.52l-3.15.91s-.85-1.95-1.21-2.72c0,0-1.3-1.75-1.26-1.95.05-.2,1.12-.83,1.12-.83Z" style="fill: #13375b; stroke-width: 0px;"/>
        <path d="m136.91,106.75l.1-1.64s1.05.16,1.5-.03c.46-.19,1.31-.69,1.31-.69,2.04.14,3.66.05,3.51.62h0l-6.41,1.72Z" style="fill: #13375b; stroke-width: 0px;"/>
        <path d="m141.78,62.37l1.36,1.04c.26-.2.83-1.05,1.21-1.32l-1.24-1.35h0c-.1-.07-.16-.2-.15-.32,0-.09.02-.17.03-.21.04-.11.07-.23.11-.34.04-.11-.22-.32-.35-.36-.13-.04-.18.48-.24.63-.18.46-.39,1.73-.43,1.94l-.31.29Z" style="fill: #f48c7f; stroke-width: 0px;"/>
        <path d="m143.29,63.28c-.38-.41-.92-.64-1.32-1.06l-6.03,4.15s-4.66-5.52-7.2-3.56c1.11,1.87,2.44,3.66,3.13,4.51,1.55,1.92,3.91,2.83,4.38,2.62.52-.24,6.91-6.5,7.04-6.66Z" style="fill: #13375b; stroke-width: 0px;"/>
        <path d="m116.9,49.47c.2.53.54,1.37.54,1.37,0,.24.06,1.24.12,2.46l1.7-.93s-.26-1.98-.2-2.11c.05-.11.18,0,.64-.85.13-.24.11-.65.11-.65,0,0-.03-.5-.14-.53-.12-.03-.24.06-.27.15-.03.09,0,.29-.03.38-.03.09-.28.23-.38.23-.11,0-.16-1.47-.16-1.47,0,0,.01-.42.02-.56.01-.12.08-.47.08-.47,0,0,.06-.51-.09-.53-.09-.01-.27.42-.38.86-.11.48-.15.97-.2.97-.12,0-.15-.81-.15-.81,0,0,.07-.38.05-.55.08-.23.1-.63-.09-.64-.04,0-.22.53-.22.53,0,0-.06.36-.09.54-.07.3-.02.76-.05.97-.02.17-.07.11-.09.12-.01,0-.02-.23-.03-.55,0-.16-.05-.35-.02-.53.02-.17.02-.42,0-.57-.02-.42-.28-.34-.32.05-.02.15-.03.31-.05.48-.07.64.01,1.24-.06,1.25-.09.02-.16-1.08-.16-1.08,0,0-.21-.59-.27-.01-.08.67,0,1.2,0,1.22.03.16-.01.74.19,1.27Z" style="fill: #f8a492; stroke-width: 0px;"/>
        <path d="m128.81,54.55s-1.02-.85-1.61.41c0,0-.6-.25-.93.36,0,0-1.05-.18-1.12,1.37,0,0-.54-.04-.53.59s.37,1.01.37,1.01c0,0-.27.26-.06.81.17.47.58.5.58.5,0,0,.21.81.59,1.01.39.2.85.03.85.03,0,0,.18.43.59.34.41-.09.88-.55,1.36-.43.49.12,1.67-.21,1.67-.21,0,0,1.28-.77.71-2.1,0,0,.63-.73-.08-1.42,0,0,.31-1.26-.68-1.86-.98-.6-1.72-.4-1.72-.4Z" style="fill: #f47458; stroke-width: 0px;"/>
        <path d="m131.71,63.26l-2.08-1.07s-1.85.27-2.08.3c-.23.03-.66,8.65-.7,11.88-.04,3.23.36,3.75.36,3.75,0,0,3.02.31,5.17-.15,2.23-.47,4.63-2,4.63-2,0,0-2.67-5.88-3.28-7.74-.61-1.86-2.01-4.97-2.01-4.97Z" style="fill: #f7cc7f; stroke-width: 0px;"/>
        <path d="m127.63,62.46l-6.84-5.47s-1.56-5.77-1.65-5.98c-.09-.21-1.61-.14-2.23-.13-.2,0,.86,6.24,1.28,7.26.49,1.2,5.78,6.3,5.78,6.3,0,0,1.2,2.96,1.27,5.24.12,3.77-.15,9.02.03,9.16,1.07.5,4.87.11,5.07-.31,2.14-4.6-2.71-16.06-2.71-16.06Z" style="fill: #13375b; stroke-width: 0px;"/>
        <path d="m129.45,61.07l.31,1.2s.58,1.71.15,2.11c-.43.4-2.27-1.9-2.27-1.9l-.21-3.11,2.03,1.7Z" style="fill: #f7a491; stroke-width: 0px;"/>
        <path d="m127.49,60.37c.52,1.01,1.53,1.54,2.22,1.71l-.26-1.02-2.03-1.7.07,1.01Z" style="fill: #f47458; stroke-width: 0px;"/>
        <path d="m124.65,57.57c.06.47.37.82.7.78s.55-.45.49-.92c-.06-.47-.37-.82-.7-.78-.33.04-.55.45-.49.92Z" style="fill: #f47458; stroke-width: 0px;"/>
        <path d="m126.22,55.52c.03.27.38.45.79.4.4-.05.7-.31.67-.58-.03-.27-.38-.45-.79-.4-.4.05-.7.31-.67.58Z" style="fill: #f47458; stroke-width: 0px;"/>
        <path d="m128.12,55.99c.92-.45,2.02.07,2.29,1.04.12.42.24.96.32,1.55.2,1.42-.37,2.9-1.02,2.97-.65.08-2.55-.63-2.86-2.64-.19-1.24.3-2.45,1.26-2.92Z" style="fill: #f7a491; stroke-width: 0px;"/>
        <path d="m127.36,59.01c.04.31-.14.59-.4.63-.26.03-.5-.2-.53-.51-.04-.31.14-.59.4-.63.26-.03.5.2.53.51Z" style="fill: #f7a491; stroke-width: 0px;"/>
        <path d="m130.84,54.94c.73.45,1.06,1.22.74,1.73-.32.51-1.18.56-1.91.11-.73-.45-1.06-1.22-.74-1.73.32-.51,1.18-.56,1.91-.11Z" style="fill: #f47458; stroke-width: 0px;"/>
        <path d="m129.14,55.58c.03.23-.23.45-.57.49-.34.04-.64-.11-.67-.34-.03-.23.23-.45.57-.49.34-.04.64.11.67.34Z" style="fill: #f47458; stroke-width: 0px;"/>
        <path d="m131.2,57.13c.04.3-.17.56-.46.6-.29.04-.56-.18-.59-.47-.04-.3.17-.56.46-.6s.56.18.59.47Z" style="fill: #f47458; stroke-width: 0px;"/>
        <path d="m133.45,64.54s2.89,6.84,3.92,9.25c.11.26.67,1.96.69,2.14.05.38-1.54,1.06-1.74,1.05-.18,0-2.51-7.23-3.86-10.73-.46-1.19-1.13-2.28-1.98-3.23l-.66-.54-.06-.2s2.94.26,3.69,2.27Z" style="fill: #13375b; stroke-width: 0px;"/>
        <rect x="141.51" y="31.28" width=".53" height="48.04" transform="translate(-9.24 36.49) rotate(-14.21)" style="fill: #13375b; stroke-width: 0px;"/>
        <path d="m144.6,61.48c-.02-.1-.05-.21-.09-.31-.05-.11-.13-.25-.18-.29-.03-.03-.06-.11-.09-.19-.01-.03-.02-.05-.04-.08,0,0,0,0,0,0-.05-.07-.11-.12-.18-.17-.06-.05-.12-.11-.19-.21-.06-.08-.13-.15-.22-.19-.09-.04-.15-.04-.18,0-.14.24-.85,1.02-.57,1.4.24.32.56.64.62.79.09.2.4.19.59.12.35-.13.63-.36.53-.89Z" style="fill: #f7a491; stroke-width: 0px;"/>
      </g>
      <g>
        <path d="m133.99,52.45c.03-.06.13-.07.17-.03.08.08.15.15.23.23.17.17.17.18.19.18.06,0,.06-.12.06-.16,0-.09-.04-.18-.02-.27.02-.17.18-.26.33-.15.13.11.26.22.38.34,0-.19.01-.38.03-.57,0-.07.07-.1.13-.06.12.09.46.36.58.45.03.02.15.15.19.12.03-.02.03-.15.03-.18.02-.16.03-.22.1-.75,0-.06.11-.09.15-.04.41.49.47.44.51.58,0,.03-.02.05-.05.05-.08,0-.1-.02-.3-.21-.05-.05-.1-.1-.15-.16-.07.64-.08.81-.24.86-.11.03-.13,0-.79-.52,0,.2-.01.4-.02.6,0,.08-.09.11-.14.06-.47-.39-.47-.42-.52-.44,0,0,0-.04,0,.01-.01.08.07.27,0,.42-.05.14-.2.24-.34.17-.08-.04-.11-.08-.36-.32-.07.15-.17.3-.28.44-.05.06-.09.1-.17.12-.06.02-.14-.04-.11-.11.06-.18.22-.22.43-.7Z" style="fill: #f47458; stroke-width: 0px;"/>
        <path d="m131.83,50.09c.18.03.35.05.53.05.04,0,.1,0,.12-.03.06-.08-.09-.22-.15-.55-.03-.14-.1-.44.1-.5.1-.03.22,0,.32,0,.08,0,.15,0,.23,0-.14-.54-.17-.51-.11-.63.01-.03.06-.05.09-.03.11.07.08.06.26.73.02.06-.03.14-.1.13-.1,0-.58-.04-.64-.04,0,0,0,.03,0,.04,0,.22.08.41.16.62.06.17.06.39-.15.44-.12.03-.35,0-.53-.01.1.33.19.66.29.98.02.06-.03.15-.11.15-.21-.02-.42-.03-.64-.04.06.19.15.38.26.54.08.12-.09.27-.28-.05-.11-.18-.19-.37-.24-.58-.02-.07.03-.15.11-.15.21,0,.42.02.63.03-.09-.33-.18-.66-.27-.98-.02-.08.05-.15.13-.13Z" style="fill: #66ccb2; stroke-width: 0px;"/>
        <path d="m126.92,48.26c-.06,0-.1-.04-.11-.1-.04-.29-.06-.57,0-.86.03-.15.25-.09.23.05-.03.23-.05.47-.03.7.17,0,.34-.02.5-.06.06-.02.15.03.14.1-.01.19-.07.89-.08.89,0,0,0,0,.02,0,.07.01.32-.04.44-.03.13,0,.17.18.18.29.01.21-.15.45-.07.65.07.2.39-.02.62.14.18.13.12.34.04.67-.02.08-.04.16-.12.2-.02.01-.05.01-.07,0-.09-.1-.04-.22.02-.53,0-.04.03-.1,0-.14-.09-.12-.36.05-.57-.09-.17-.11-.19-.32-.16-.5.02-.14.11-.32.06-.46-.12,0-.24.02-.37.01-.13,0-.22-.07-.23-.21,0-.15.02-.31.03-.46,0-.1.02-.2.02-.3-.17.03-.33.04-.5.03Z" style="fill: #07345a; stroke-width: 0px;"/>
        <path d="m135.7,55.62c.51.65.03.96-.18.78-.09-.08-.1-.22.01-.29.05-.03.13.02.11.08-.02.05.04.06.06.01.03-.07-.02-.16-.05-.22-.07-.14-.16-.33-.34-.36-.27-.04-.55.22-.41.63.21.59,1.16.58,1.33-.03.09-.33-.04-.7-.31-.91-.05-.04.01-.11.07-.09.4.17.55.7.4,1.09-.15.4-.58.6-1,.53-.43-.07-.78-.45-.73-.91.06-.5.68-.76,1.04-.31Z" style="fill: #3c8f7c; stroke-width: 0px;"/>
        <path d="m125.24,50.19c.07.11.11.32-.03.39-.07.03-.15.01-.17-.07-.02-.08.02-.14-.05-.2-.06-.05-.14-.02-.2.02-.17.13-.12.43-.04.6.14.27.51.32.7.04.06-.09.07-.19.1-.29.01-.05.1-.08.13-.02.11.23-.04.5-.24.63-.2.14-.49.12-.69-.01-.22-.15-.33-.44-.32-.71.02-.54.58-.72.81-.38Z" style="fill: #f7cc7f; stroke-width: 0px;"/>
      </g>
      <path d="m99.52,126.24s.24.39.72.16c.58-.29.35-.73.35-.73l-1.07.57Z" style="fill: #fff; stroke-width: 0px;"/>
      <path d="m128.96,59.95s.05.46.58.45c.65,0,.63-.5.63-.5l-1.21.05Z" style="fill: #fff; stroke-width: 0px;"/>
    </g>
  </g>
</svg>