<?xml version="1.0" encoding="utf-8"?>
<!-- Generator: Adobe Illustrator 27.8.1, SVG Export Plug-In . SVG Version: 6.00 Build 0)  -->
<!DOCTYPE svg PUBLIC "-//W3C//DTD SVG 1.1//EN" "http://www.w3.org/Graphics/SVG/1.1/DTD/svg11.dtd" [
	<!ENTITY ns_extend "http://ns.adobe.com/Extensibility/1.0/">
	<!ENTITY ns_ai "http://ns.adobe.com/AdobeIllustrator/10.0/">
	<!ENTITY ns_graphs "http://ns.adobe.com/Graphs/1.0/">
	<!ENTITY ns_vars "http://ns.adobe.com/Variables/1.0/">
	<!ENTITY ns_imrep "http://ns.adobe.com/ImageReplacement/1.0/">
	<!ENTITY ns_sfw "http://ns.adobe.com/SaveForWeb/1.0/">
	<!ENTITY ns_custom "http://ns.adobe.com/GenericCustomNamespace/1.0/">
	<!ENTITY ns_adobe_xpath "http://ns.adobe.com/XPath/1.0/">
]>
<svg class="globe" version="1.1" id="_圖層_2" xmlns:x="&ns_extend;" xmlns:i="&ns_ai;" xmlns:graph="&ns_graphs;"
	 xmlns="http://www.w3.org/2000/svg" xmlns:xlink="http://www.w3.org/1999/xlink" x="0px" y="0px" width="505.5px" height="606.2px"
	 viewBox="0 0 505.5 606.2" style="enable-background:new 0 0 505.5 606.2;" xml:space="preserve">
<style type="text/css">
	.st0{fill-rule:evenodd;clip-rule:evenodd;fill:#B96E41;}
	.st1{fill-rule:evenodd;clip-rule:evenodd;fill:#D08F67;}
	.st2{fill-rule:evenodd;clip-rule:evenodd;fill:#AC6134;}
	.st3{fill-rule:evenodd;clip-rule:evenodd;fill:#FFBC93;}
	.st4{fill:#34C0F8;}
	.st5{fill:#BA8CEA;}
	.st6{fill:#FFA792;}
	.st7{fill:#8CD26F;}
	.st8{fill:#FFFFFF;}
	.st9{fill:#FFFFE6;}
	.st10{fill:#00CCFA;}
	.st11{fill:#00AC94;}
	.st12{fill:#008581;}
	.st13{fill:#003C6C;}
	.st14{fill:#FF7A1F;}
</style>
<metadata>
	<sfw  xmlns="&ns_sfw;">
		<slices></slices>
		<sliceSourceBounds  bottomLeftOrigin="true" height="577" width="445.4" x="41" y="-40"></sliceSourceBounds>
	</sfw>
</metadata>
<g id="_圖層_1-2">
	<g>
		<g id="_地球儀">
			<path class="st0" d="M207.1,484.6c13.8-0.1,27.6-0.3,41.3-0.5c13.8-0.3,27.6-0.4,41.3-0.5c1.1,17.7,2.2,35.4,3.3,53.1
				c1.1,17.7,2.2,35.4,3.4,53.1h-96.3c1.2-17.5,2.3-35.1,3.5-52.6C204.8,519.6,206,502.1,207.1,484.6"/>
			<path class="st1" d="M217.5,484.5c3.9,0,7.8-0.1,11.7-0.1c-0.6,17.6-1.1,35.1-1.7,52.7c-0.6,17.6-1.1,35.1-1.7,52.7h-13.6
				c0.9-17.5,1.7-35.1,2.6-52.6C215.7,519.6,216.6,502.1,217.5,484.5"/>
			<path class="st2" d="M261.2,483.8c3.5,0,7-0.1,10.6-0.1c3.5,0,7.1-0.1,10.6-0.1c0.9,17.7,1.8,35.4,2.7,53.1
				c0.9,17.7,1.8,35.4,2.7,53.1h-24.7c-0.3-17.7-0.7-35.3-1-53S261.5,501.5,261.2,483.8"/>
			<path class="st3" d="M467.2,308.2c4.3-18.3,6-36.8,4.9-54.9c-5.6-90.7-44.8-153.1-110.2-191.7C349.5,54.3,335.4,48.1,321,43l4-13
				l2.7-0.8l-3.5,11.6c87.5,30.3,150.3,113.4,150.3,211.2C474.4,271.4,471.9,290.2,467.2,308.2 M269.1,486.8
				c-6.1,0.8-12.2,1.2-18.1,1.3c-69.2,1.6-115-27.6-124.8-32.7l7.3-11.1l3-0.5l-6.6,10.1c35.4,21.2,76.8,33.5,121.1,33.5
				C257.1,487.5,263.1,487.2,269.1,486.8L269.1,486.8z M486.5,251.9c0,1.3,0,2.5,0,3.8C486.4,254.5,486.5,253.2,486.5,251.9z"/>
			<path class="st0" d="M170.2,443.5l-6.8,14.8l-16.7-7.7l6.8-14.8c0.3,0.2,0.7,0.3,1,0.5l0.3,0.1l0,0c0.5,0.2,1,0.5,1.5,0.7l0,0
				l0.4,0.2c0.6,0.3,1.2,0.6,1.8,0.9c0.4,0.2,0.8,0.4,1.2,0.6l0,0l0,0c0.4,0.2,0.8,0.4,1.2,0.5l0,0l0,0l0,0c0.4,0.2,0.9,0.4,1.4,0.6
				c0.8,0.3,1.5,0.7,2.3,1l0.1,0c0.3,0.1,0.6,0.3,0.9,0.4l0.7,0.3c1.1,0.5,2.2,0.9,3.3,1.4L170.2,443.5L170.2,443.5L170.2,443.5z
				 M333.2,42.8l16.7,7.7l-6.7,14.7c-5.5-2.8-11.1-5.4-16.7-7.7C326.5,57.6,333.2,42.8,333.2,42.8z"/>
			<path class="st1" d="M157.9,438l-6.7,14.6l-2.4-1.1l6.7-14.7c0.1,0.1,0.2,0.1,0.4,0.2h0l0,0l0.8,0.4h0
				C157.2,437.6,157.5,437.8,157.9,438 M335.3,43.8l2.4,1.1L331,59.5c-0.8-0.3-1.6-0.7-2.4-1L335.3,43.8L335.3,43.8z"/>
			<path class="st2" d="M168.7,442.8l-6.7,14.7l-4.3-2l6.7-14.6h0c0.5,0.2,1,0.5,1.5,0.7h0c0.3,0.1,0.6,0.3,1,0.4
				c0.5,0.2,1,0.4,1.5,0.6l0.1,0l0.1,0L168.7,442.8L168.7,442.8L168.7,442.8z M344.1,47.8l4.3,2l-6.7,14.7c-1.4-0.7-2.8-1.4-4.2-2.1
				L344.1,47.8L344.1,47.8z"/>
			<path class="st0" d="M327.6,29.2C420.1,61,486.5,148.7,486.5,251.9c0,130.1-105.5,235.5-235.5,235.5
				c-44.3,0-85.7-12.2-121.1-33.5l6.6-10.1c33.5,20,72.6,31.5,114.4,31.5c123.4,0,223.4-100,223.4-223.4
				c0-97.8-62.8-180.9-150.3-211.2L327.6,29.2L327.6,29.2z"/>
			<path class="st0" d="M155.9,589.8h186.4c2.5,2.7,5.1,5.5,7.6,8.2s5.1,5.5,7.6,8.2H139.3c2.8-2.7,5.5-5.5,8.3-8.2
				S153.1,592.5,155.9,589.8"/>
			<path class="st1" d="M179.1,589.8h26.3c-1.3,2.7-2.7,5.5-4.1,8.2c-1.4,2.7-2.7,5.5-4.1,8.2h-30.8c2.1-2.7,4.2-5.5,6.3-8.2
				C174.9,595.2,177,592.5,179.1,589.8"/>
			<path class="st2" d="M277.6,589.8h47.7c2.1,2.7,4.1,5.5,6.2,8.2c2,2.7,4.1,5.5,6.1,8.2h-55.9c-0.7-2.7-1.4-5.5-2.1-8.2
				C279,595.2,278.4,592.5,277.6,589.8"/>
		</g>
		 <g class="roulette animated rotateIn">
		<g id="_4個選單">
			<g>
				 <a title="自我學習" href="#">
				<path id="自我學習" class="st4" d="M249.9,41.2v120.5c-47.1,2.7-84.7,40.6-86.9,87.8H58.4c-5.5,0-11-0.1-16.5,0h-0.7
					c0,0-0.1,0-0.1,0C42.8,135.1,135.4,42.7,249.9,41.2L249.9,41.2z"/>
			 <title>自我學習</title>
				</a>
				  <a title="參加活動" href="#">
				<path id="參加活動" class="st5" d="M249.9,464.5C135.2,463,42.5,370.3,41,255.5c0,0,0.1,0,0.2,0h121.6
					c0.9,48.4,39,87.8,87,90.5V447c0,5.5-0.1,11,0,16.5v0.7C249.8,464.3,249.8,464.4,249.9,464.5L249.9,464.5z"/>
				 <title>參加活動</title>
                </a>
				  <a title="競技切戳" href="#">
				<path id="競技切戳" class="st6" d="M464.4,249.5H347.5c-2.3-48.7-42.3-87.6-91.5-88V58c0-5.5,0.1-11,0-16.5v-0.4
					C370.2,42.9,462.6,135.2,464.4,249.5L464.4,249.5z"/>
					 <title>競技切戳</title>
                </a>
				  <a title="環境教學" href="#">
				<path id="環境教學" class="st7" d="M464.4,255.5c-1.4,114.6-93.9,207.3-208.5,208.9c0-0.1,0-0.2,0-0.3v-118
					c50.1-0.4,90.7-40.7,91.6-90.7h99.8c5.5,0,11,0.1,16.5,0C464,255.5,464.2,255.6,464.4,255.5L464.4,255.5z"/>
			 <title>環境教學</title>
                </a>
			</g>
			<g>
				<path class="st8" d="M96.5,158.2l24.1,12.4l-2,3.8l-1.5-0.8l-7.3,14.3l1.5,0.8l-1.9,3.6l-24.2-12.4l4-7.7
					c-1.1-1-2.4-2.1-3.5-2.8l2.7-4.1c1,1.1,1.9,2.2,2.7,3.2L96.5,158.2z M90.6,178.1l3.1,1.6l7.3-14.3l-3.1-1.6L90.6,178.1z
					 M97,181.4l3.1,1.6l7.3-14.3l-3.1-1.6L97,181.4z M113.9,172l-3.1-1.6l-7.3,14.3l3.1,1.6L113.9,172z"/>
				<path class="st8" d="M129.2,134.2c1.2,2.9,1.9,5.9,2.2,9c2.6,0.9,4.5,1.1,5.1,0.3c0.4-0.6-0.6-1.9-3.6-4.5
					c1.3-0.1,2.9-0.6,3.9-1.1c4.2,4.2,4.6,6.1,2.6,8.5c-1.6,1.9-4.3,2.1-7.8,1.2c0,2.5-0.2,5.1-0.7,7.5c-1.1-0.2-2.9-0.2-4.2,0
					c0.7-2.8,1.1-5.8,1-8.9c-2.5-1.1-5.3-2.6-8.1-4.4l-4.3,5.3l3,2.4c0.8-1.5,1.7-3.1,2.5-4.6l3,2.1l-2.6,5l4.5,3.6
					c1.7,1.4,2.2,2.4,1.9,3.9c-0.3,1.4-1.5,3.1-3.2,5.2c-1-0.6-2.8-1.2-4-1.5c1.3-1.4,2.5-3,2.8-3.4c0.4-0.5,0.4-0.7,0-1.1l-3.8-3.1
					c-1,2-2,3.9-2.9,5.5l-3.8-1.8c1-1.7,2.2-3.8,3.5-6.2l-3.5-2.9l-4,5l-3-2.4l4-5l-3-2.4c-0.9,1.6-1.9,3.2-2.8,4.7
					c-0.9-0.5-2.4-1-3.4-1.2c2.5-4.1,4.9-8.8,6.2-12.2l4.4,0.1c-0.7,1.6-1.5,3.4-2.4,5.1l3.5,2.9l4.1-5c-2.5-1.7-5-3.6-7.5-5.5
					l2.7-3.3c2.4,2,4.9,3.9,7.4,5.6l5.8-7.1l3,2.4l-5.5,6.8c1.7,1.1,3.5,2,5.1,2.8c-0.4-1.9-0.8-3.7-1.5-5.4L129.2,134.2z
					 M121.9,131.4c-1.8-0.3-4.9-0.2-7.4,0.2l0.3-3.7c2.3-0.4,5.5-0.7,7.3-0.5L121.9,131.4z"/>
				<path class="st8" d="M138.6,129.6l-3,2.4l-4.4-5.4l2-1.6l-6.8-7.4c1.4-1.5,3.1-4.1,4.1-5.8l2.8,0.8c-0.7,1.2-1.8,2.7-2.8,3.9
					l0.7,0.7l3.3-2.7l1.6,1.9l-3.2,2.6l0.8,0.9l3.2-2.6l1.1,1.3c0.4-0.8,0.8-1.7,1-2.5c-0.8,0.1-1.5,0.2-2.2,0.3l0.4-2.4
					c0.7-0.2,1.5-0.3,2.4-0.4c0.1-0.6,0.1-1.3,0.1-1.9l2.5-1.1c0.1,0.9,0,1.8-0.1,2.7c1-0.1,1.8-0.1,2.6-0.1l-0.5,2.6
					c-0.7-0.1-1.6-0.1-2.6-0.1c-0.3,1.1-0.6,2.1-1,3.1l8.5-6.9l-0.6-1l-3.1,2.5l-1.6-1.9l3.3-2.7l-0.7-0.9l-3.2,2.6l-1.6-1.9
					l3.3-2.7l-0.6-0.9l-3.5,2.9l-1.6-2l6.6-5.3c2.1,2.9,4.6,6.4,6.4,9l1.9-1.6l4.4,5.4l-3.1,2.5l-2.5-3.1l-16.9,13.7L138.6,129.6z
					 M140.3,111.2c-0.6-0.1-1.4,0-2.3,0c-0.3,1.1-0.6,2.1-1.1,3c-0.6-0.1-2-0.1-2.8-0.1c0.5-0.8,0.9-1.7,1.2-2.6
					c-0.7,0.1-1.4,0.2-2.1,0.4l0.4-2.3c0.7-0.2,1.5-0.3,2.3-0.5c0.1-0.6,0.1-1.2,0.1-1.8l2.5-1.1c0,0.8,0,1.7-0.1,2.5
					c0.8-0.1,1.6-0.1,2.2-0.1L140.3,111.2z M136.1,122.6l4.3-3.5c-0.6-0.1-1.5-0.2-2.2-0.2l0.2,0.3l-3.1,2.5L136.1,122.6z
					 M162.9,118l-10,8.1l1.5,1.9c1.1,1.4,1.4,2.3,0.6,3.6c-0.8,1.2-2.2,2.4-4.2,4c-0.8-0.7-2.1-1.4-3.1-1.9c1.3-0.9,2.9-2.2,3.2-2.6
					c0.4-0.3,0.5-0.5,0.2-0.8l-1.4-1.8l-10.6,8.6l-2-2.5l10.6-8.6l-0.6-0.8c0.6-1.1,1.2-2.5,1.7-3.9l-8.4,6.8l-1.8-2.2l11.4-9.3
					l0.5-0.7l3.1,0.2c-0.6,2.2-1.5,4.7-2.6,7.1l9.8-8L162.9,118z"/>
				<path class="st8" d="M175.9,99.2c0,1,0,1.9,0,2.8l9.5-4.9l6.5,12.7l-3.7,1.9l-0.6-1.1l-12.9,6.6l0.6,1.1l-3.5,1.8l-6.5-12.7
					l7.1-3.6c-0.1-0.7-0.2-1.4-0.3-2.1l-0.1,0.1c-0.7,0.9-2.1,1.6-3.9,2.5c-0.5-0.7-1.5-1.6-2.2-2.1c1-0.5,2.2-1.1,2.5-1.3
					c0.3-0.2,0.4-0.4,0.2-0.7l-3.7-7.2l-5.8,3c1.5,0,3.4,0.2,4.5,0.5l-0.6,3.2c-1.2-0.5-3.5-0.8-5.2-0.8l0.6-2.6l-2.3,1.2l-1.4-2.8
					l12-6.2l5.1,9.9c0.3,0.7,0.5,1.2,0.6,1.7L175.9,99.2z M167.1,100.4c-1.9,2.3-3.9,4.7-5.6,6.6l-2.7-2.3c1.6-1.6,4.1-4.2,6.4-6.6
					L167.1,100.4z M185.5,91.6c0.7,1.4,0.8,2.3,0,3.3c-0.8,1-2.2,1.7-4.2,2.7c-0.6-0.8-1.6-1.7-2.4-2.2c1.2-0.5,2.5-1.2,2.9-1.4
					c0.4-0.2,0.4-0.4,0.3-0.7l-3.6-7.1l-5.7,3c1.6,0,3.4,0.2,4.4,0.4l-0.5,3c0.7-0.8,1.5-1.6,2.3-2.4l1.9,2.3
					c-2.1,2.3-4.3,4.8-6.1,6.7l-2.6-2.1c1.2-1.1,2.7-2.7,4.3-4.3c-1.3-0.4-3.5-0.6-5.1-0.7l0.5-2.5l-2,1l-1.4-2.8l12-6.2L185.5,91.6
					z M183.1,101.7l-12.9,6.6l0.9,1.7l12.9-6.6L183.1,101.7z M186.3,107.9l-0.9-1.7l-12.9,6.6l0.9,1.7L186.3,107.9z"/>
				<path class="st8" d="M341.1,115.4c-1.5,0-3,0-4.3-0.1c0.7,1.5,1.8,2.9,3.2,4.2c-1.1,0.3-2.6,1-3.5,1.6c-3.3-3.4-4.5-7.6-4-12.2
					c-1.3,0.3-2.6,0.5-4,0.5l-1.3,2.6l4.7,1.4c-0.5,0.7-1.1,1.9-1.4,2.6c-6.1-1.7-7.3-1.9-8-1.8c0.2-0.8,0.2-2.2,0.1-3
					c0.7,0,1.6-0.2,2.3-1.4l0.1-0.3c-1-0.1-2-0.2-2.9-0.4c-0.1-0.7-0.3-1.6-0.5-2.5l-0.1,0.2c-3.2-0.6-6.5-1.4-9.3-2l1.1-3.6
					c1,0.3,2,0.5,3.3,0.8l3.8-7.4l-2.3-1.2l1.6-3.1l2.3,1.2l2.9-5.6l-2.5-1.3l1.6-3.1l8.1,4.2l-1.6,3.1l-2.5-1.3l-2.9,5.6l2.2,1.1
					l-1.6,3.1l-2.2-1.1l-3.4,6.6l2.6,0.6l-0.8,2.2c2.4,0.5,5.1,0.8,7.4,0.8l-3.5-1.8l3.4-6.6l14.9,7.7l-3.4,6.6l-5-2.6
					c-0.1,0.9,0,1.8,0.2,2.7c1.4-0.1,3-0.3,4-0.5L341.1,115.4z M346.3,105.7l-18.4-9.5l1.5-2.8l18.4,9.5L346.3,105.7z M330.1,103.9
					l8.4,4.4l0.9-1.7l-8.4-4.4L330.1,103.9z M347.3,101.4l-16.3-8.5l3.5-6.8l16.3,8.5L347.3,101.4z M338,91l-1.9-1l-1,2l1.9,1
					L338,91z M342.2,93.2l-1.9-1l-1,2l1.9,1L342.2,93.2z M346.5,95.4l-2-1l-1,2l2,1L346.5,95.4z"/>
				<path class="st8" d="M352.6,123.6c-3.6-1.1-7.6-2.3-10.7-3.3l1.6-4c1.1,0.4,2.4,1,3.8,1.5l6.6-8.1l-2.5-2.1l2.4-3l2.5,2.1
					l4.8-5.9l3,2.5l-4.8,5.9l2.2,1.8l-2.4,3l-2.2-1.8l-5.7,7c1,0.4,2.1,0.7,3.1,1.1L352.6,123.6z M361.8,137
					c0.2,0.2,0.4,0.3,0.6,0.4c0.2,0.1,0.4,0,0.7-0.3c0.3-0.3,0.9-1,1.7-1.9c0.1,0.9,0.8,2.4,1.3,3.2c-0.9,0.9-1.8,1.9-2.4,2.1
					c-0.6,0.3-1.2,0.3-1.9,0.1c-0.5-0.2-1.3-0.7-1.8-1.1l-1.7-1.4c-0.7-0.6-1.3-1.4-1.5-2.3c-0.1-0.9,0.1-1.6,1.4-3.2l2.6-3.2
					L359,128c-3.3,3.1-6.3,4.2-12.2,1.4c0.3-0.9,0.5-2.7,0.3-3.7c4.7,2.5,6.7,1.9,9-0.1l-2.2-1.8l6.5-7.9l12.5,10.2l-6.5,7.9
					l-2.7-2.2l-2.7,3.2c-0.3,0.3-0.4,0.5-0.4,0.7c0,0.2,0.2,0.3,0.4,0.5L361.8,137z M358.4,124.3l6.7,5.5l0.9-1.1l-6.7-5.5
					L358.4,124.3z M374.9,126.4l-14.8-12.1l2.1-2.6l3.2,2.6c0.3-0.7,0.6-1.5,0.8-2.2l2.9,1.6c-0.2,0.9-0.6,2.1-1,2.9l3,2.4
					c0.9-0.5,1.9-1.1,2.6-1.6l2.4,2.8c-0.8,0.3-1.5,0.7-2.3,1l3.2,2.7L374.9,126.4z M360.7,121.4l6.7,5.5l0.9-1.1l-6.7-5.5
					L360.7,121.4z M378.2,121l-13.4-11l2.1-2.5l5.2,4.2c0.2-0.5,0.4-1.1,0.6-1.6l3.4,1.8c-0.2,0.7-0.5,1.6-0.7,2.4l5.1,4.1
					L378.2,121z"/>
				<path class="st8" d="M398.9,152.4c-4.3,2.6-8.3,4.3-12.1,5.1c-0.9,2.7-1.2,5.5-0.6,8.2c-1.2-0.2-3.2-0.2-4.5,0.1
					c-0.4-2.7-0.1-5.3,0.6-7.8c-2.9-0.1-5.8-0.7-8.8-2.1c0.5-0.9,1.2-3,1.4-4.1c3.1,1.6,6.1,2.2,9.1,2c1.1-2,2.3-4.1,3.9-6.1
					c-1,0.1-1.9,0.2-2.8,0.3c0.1-0.7,0.2-1.9,0.2-3.1c-2-0.1-4.3-0.4-6.3-0.9l-0.7,0.5c1.4,1.4,2.7,2.9,4.1,4.3l-2.7,2.1
					c-1.4-1.4-2.8-2.8-4.2-4.2l-2.6,2.1c-1.4,1.1-2.3,1.4-3.4,0.9s-2.2-1.8-3.5-3.5c0.7-0.8,1.5-2,1.9-3c0.8,1,1.7,2.2,2,2.5
					c0.3,0.3,0.5,0.4,0.7,0.2l2.3-1.8c-1.6-1.7-3.2-3.3-4.5-4.6l2.5-2.6c1.3,1.4,2.9,3.1,4.7,5l1.4-1.2c1.1,0.3,2.3,0.5,3.6,0.7
					l-2.2-2.7c-1.5-0.3-2.9-0.9-4.3-1.4c0.3-0.9,0.6-2.9,0.7-4c2.3,1.1,4.8,1.9,7.3,2.3l-3.8-4.7l2.7-2.2l3.2,4l1.8-1.4l-2.4-3
					l2.6-2.1l2.4,3l2.4-1.9l2.3,2.9l-2.4,1.9l1.9,2.3l-1.7,1.4c1.6-0.2,3.2-0.6,4.8-1.1l1.5,3.5c-2.6,0.8-5.1,1.2-7.6,1.4l1.5,1.9
					l-2.1,1.7c3.5-0.8,7.3-2.5,10.9-4.6l2.1,3.6c-1.7,0.9-3.4,1.8-5.1,2.5l5.6,7l-2.9,2.3L398.9,152.4z M385.6,143.6
					c0.9,0,1.9-0.1,2.9-0.3l-3-3.7c-0.8,0-1.6,0-2.3-0.2l1.8,2.2l0.6,0.4L385.6,143.6z M386.7,135.5l0.3,0.4c1,0,1.9,0,2.8-0.1
					l-1.4-1.7L386.7,135.5z M393.8,146.1c-1.9,2.1-3.5,4.3-4.8,6.6c2.3-0.8,4.7-2,7.3-3.6L393.8,146.1z"/>
				<path class="st8" d="M403.2,192.8l-5.9-11.5l-2.2,1.1c-1.6,0.8-2.6,0.9-3.7-0.1c-1.1-1-1.9-2.7-3.1-4.9c0.9-0.6,1.8-1.8,2.5-2.6
					c0.7,1.4,1.6,3.2,1.9,3.7c0.2,0.5,0.4,0.6,0.8,0.4l2-1l-6.2-12.2l2.8-1.5l6.3,12.2l0.9-0.4c1,0.9,2.2,1.7,3.4,2.4l-5-9.7
					l2.5-1.3l6.7,13.1l0.6,0.7l-0.8,3c-2.1-1-4.3-2.4-6.4-4l5.8,11.2L403.2,192.8z M396.9,166.6l-1.7-3.4l6.2-3.2l1.2,2.3l8.7-5.1
					c1.2,1.6,3.4,3.9,4.8,5.2l-1.3,2.5c-1.1-0.9-2.2-2.3-3.3-3.5l-0.8,0.5l2,3.8l-2.2,1.1l-1.9-3.7l-1,0.6l1.9,3.7l-1.5,0.8
					c0.7,0.5,1.5,1.1,2.2,1.5c0.1-0.8,0.1-1.5,0.1-2.2l2.3,0.9c0,0.8,0,1.6-0.1,2.4c0.6,0.2,1.3,0.4,1.9,0.5l0.5,2.7
					c-0.9-0.1-1.7-0.4-2.6-0.7c-0.1,1-0.2,1.8-0.4,2.5l-2.5-1c0.2-0.7,0.4-1.5,0.6-2.5c-1-0.5-1.9-1.1-2.8-1.6l5,9.7l1.1-0.4
					l-1.8-3.5l2.2-1.1l1.9,3.8l1.1-0.5l-1.9-3.7l2.2-1.1l2,3.8l1-0.4l-2.1-4l2.3-1.2l3.9,7.5c-3.2,1.5-7.2,3.2-10.1,4.4l1.1,2.2
					l-6.2,3.2l-1.8-3.5l3.6-1.8l-9.9-19.3L396.9,166.6z M404.2,165.6l2.5,4.9c0.2-0.5,0.5-1.4,0.7-2.1l-0.3,0.2l-1.8-3.6
					L404.2,165.6z M414.5,172.1c0.2-0.6,0.3-1.4,0.5-2.2c-1-0.5-1.9-1.1-2.8-1.7c0.2-0.6,0.5-1.9,0.6-2.7c0.7,0.6,1.5,1.2,2.3,1.7
					c0-0.7,0.1-1.4,0.1-2.1l2.2,0.9c0,0.7,0,1.5,0,2.3c0.6,0.2,1.2,0.4,1.8,0.5l0.5,2.7c-0.8-0.1-1.6-0.3-2.4-0.7
					c-0.1,0.8-0.3,1.6-0.4,2.2L414.5,172.1z"/>
				<path class="st8" d="M387.6,337.1c-0.1,0.2-0.2,0.4-0.2,0.5c0,0.2,0.1,0.3,0.4,0.6c0.4,0.3,1.2,0.7,2.2,1.3
					c-0.8,0.3-1.9,1.1-2.6,1.7c-1.1-0.7-2.3-1.5-2.7-1.9c-0.4-0.5-0.6-1.1-0.6-1.6c0-0.5,0.3-1.3,0.6-1.8l0.9-1.6
					c0.4-0.7,1-1.5,1.8-1.7c0.8-0.3,1.5-0.2,3.3,0.8l5.6,2.9l0.6-1.2c-4.1-2.7-6.9-5.6-6.7-11.1c1,0,2.6-0.2,3.5-0.6
					c-0.3,4.4,1.8,6.5,4.9,8.5l0.9-1.8l6.8,3.5l-6,11.5l-6.8-3.5l1.2-2.3l-5.6-2.9c-0.4-0.2-0.7-0.3-0.9-0.3c-0.1,0-0.2,0.1-0.3,0.3
					L387.6,337.1z M398,327.6c-0.9-0.3-2.3-0.7-3-0.7c-0.3-5.7-0.4-6.8-0.7-7.5l0.3,0.1c1,0.3,2.7,0.6,3.7,0.5
					c0,0.6,0.3,1.2,1.3,1.8l3.5,1.8l0.7-1.3c-3.9-2.5-6.7-5.1-7-9.8c0.9,0,2.6-0.2,3.5-0.7c0.1,3.6,2.3,5.6,5.1,7.4l0.9-1.8l6.9,3.6
					l-5.6,10.8l-6.9-3.6l0.8-1.6l-3.5-1.8L398,327.6z M400.3,334.3l-2.9,5.5l2.2,1.2l2.9-5.5L400.3,334.3z M400.8,347l7-13.4
					l2.8,1.5l-1.2,2.4c0.9,0.2,1.8,0.3,2.7,0.4l-0.9,3.1c-1.1-0.1-2.4-0.2-3.4-0.5l-1,1.9c0.8,0.8,1.7,1.8,2.5,2.4l-2.1,2.8
					c-0.7-0.8-1.3-1.6-1.9-2.3l-1.7,3.2L400.8,347z M407,321.4l-2.5,4.8l2.2,1.2l2.5-4.8L407,321.4z M407,349.4l6.5-12.4l2.7,1.4
					l-2.3,4.3c0.6,0.1,1.2,0.2,1.7,0.3l-1.1,3.4c-0.7,0-1.6-0.2-2.4-0.3l-2.4,4.7L407,349.4z M408,333.1l6.8-13l2.8,1.4l-1.4,2.6
					c0.9,0.2,1.9,0.3,2.7,0.4l-0.9,3.1c-1.1-0.1-2.4-0.2-3.5-0.5l-1,2c0.8,0.8,1.7,1.7,2.5,2.3l-2.2,2.9l-1.9-2.2l-1.2,2.3
					L408,333.1z M413.9,336.1l6.4-12.4l2.7,1.4l-2.4,4.6c0.6,0.1,1.2,0.2,1.8,0.2l-1,3.5c-0.8,0-1.7-0.2-2.6-0.3l-2.3,4.4
					L413.9,336.1z"/>
				<path class="st8" d="M377.3,374.1c-2.8-4-4.3-8-4.7-12c-2.6,0.7-5.1,2-7.6,3.9c-0.1-1.2-0.6-3.1-1.1-4.2
					c2.8-1.9,5.7-3.2,8.6-3.8c0.3-3.2,1.1-6.4,2.4-9.5c1.1,0.3,3,0.7,4.2,0.7c-1.3,2.8-2.2,5.6-2.6,8.4c3-0.1,6.1,0.4,9.3,1.4
					l-0.4,1l1.1-1.4l2.8,2.3l-4.2,5.2l3.1,2.6l4.6-5.6l2.9,2.4l-4.6,5.6l3.7,3.1l-2.5,3.1l-3.7-3.1l-4.8,5.9l-2.9-2.4l4.8-5.9
					l-3.1-2.6l-2.6,3.1l-0.3,0.7L377.3,374.1z M383.7,362c-2.3-0.7-4.8-0.9-7.2-0.7c0.2,2.4,0.8,4.8,1.9,7.1L383.7,362z
					 M385.7,356.7c0.5-1.1,1-2.3,1.5-3.4l-6.3-5.1c-1.5-1.2-2-2.1-1.8-3.4c0.2-1.2,1.2-2.6,2.7-4.4c0.9,0.5,2.4,1.2,3.5,1.5
					c-0.9,1-1.7,2.1-2,2.4c-0.3,0.4-0.3,0.6,0.1,0.9l5.4,4.4l1.5-3.1l3.6,1.6c-0.6,1.1-1.3,2.5-2,4l4.6,3.8l2.5-3l2.9,2.4l-2.5,3
					l4.9,4.1l-2.5,3.1l-4.9-4.1l-2.1,2.6l-2.9-2.4l2.1-2.6l-3.9-3.2l-1.4,2.9L385.7,356.7z"/>
				<path class="st8" d="M356.4,405.8c0,0-0.9-1.2-1.2-1.6c-10.2-13.3-13.6-18.1-13.8-20.4c-0.1-1.6,0.3-2.5,1.1-3.5
					c0.8-0.9,2.3-2,3.7-3.1c0.8,0.9,2.3,1.9,3.6,2.4c-1.5,1-2.7,2-3.4,2.5c-0.4,0.4-0.6,0.7-0.6,1.3c-0.1,1.5,3,6,11.3,16.8l4-3.2
					c-6.5-8.5-11.7-16.3-8.6-25.7c1.2,0.5,3,0.8,4.2,0.8c-3.1,8.3,1.6,14.8,7.5,22.4l3.7-2.9l2.4,3L356.4,405.8z M360.3,382.2
					c-0.8-0.8-2-1.9-2.7-2.4c3.9-7.8,4.4-9.2,4.6-10.3c0.8,0.6,2.6,1.4,3.6,1.7c-0.3,0.8-0.5,2.2,0.4,3.3l4.7,5.8l2.2-2.6l2.8,2.5
					l-2.6,3.1l5.1,6.4l-3,2.4l-4.6-5.8l-3.6,4.3l-2.8-2.4l4.1-4.8l-5.2-6.5L360.3,382.2z"/>
				<path class="st8" d="M311.2,401.9l-1.6-3.2l14.8-7.5l1.3,2.6c0.2-1.7,0.7-3.3,1.4-4.7c0.8,0.4,2.7,1,3.7,1.2
					c-0.5,0.9-0.8,1.8-1.1,2.8l4.6-2.4l-1.2-2.3l3-1.5l3.7,7.3c0.1-0.5,0.1-1,0.2-1.5c0.8,0.7,2.6,2,3.7,2.4
					c-0.5,3.9,0.6,8.7,2.3,13.7l2.9-1.5l1.7,3.3l-11,5.6l-1.7-3.3l4.8-2.4c-0.7-2-1.3-4-1.7-5.9l-5.1,2.6l-6.5-12.7
					c-0.5,2.7-0.1,5.7,0.8,8.8l2.3-1.2l1.5,3l-6.5,3.3l0.9,1.7l5.3-2.7l1.4,2.8l-5.3,2.7l0.8,1.6l5.9-3l1.4,2.8l-2.8,1.4
					c0.8,0.7,1.9,1.5,2.9,2l-2.4,2.6c-1.3-0.6-2.8-1.6-3.6-2.3l1-1.2l-5.8,2.9l1.9-0.3c-0.1,1.2-0.2,3.1-0.1,4.3l-4,0.9
					c0.2-1.5,0.3-2.9,0.5-4l-3.3,1.7l-1.4-2.8l6.3-3.2l-0.8-1.6l-5.7,2.9l-1.4-2.8l5.7-2.9L324,410l-6.7,3.4l-1.5-3l10.9-5.5
					c-0.2-0.8-0.4-1.6-0.6-2.3l-10.3,5.3l-1.6-3.1l4.2-2.2l-1.8-3.5L311.2,401.9z M325.7,400.4c-0.3-2.1-0.4-4-0.2-5.8l-5.5,2.8
					l1.8,3.5l3.3-1.7L325.7,400.4z M337.2,402.3l2.3-1.2l-3.8-7.5l-2.3,1.2L337.2,402.3z"/>
				<path class="st8" d="M155.4,394.6c-0.1,0.4-0.1,0.9-0.2,1.4c2.3,1.2,3.8,1.9,4.9,2.4c-1.6-2.9-4-5.9-6.6-8.4
					c1.1-0.2,2.8-0.9,3.7-1.4c3.9,4,6.8,9.1,8.2,14c3-1,6.2-1.3,9.5-1.2c-3.1-0.8-6.7-1.5-9.1-1.3l-1.7-2.7c3.4-0.3,8,0.3,11.5,1.3
					c0.1,0.8,0.2,1.9,0.5,2.9c1.7,0.1,3.3,0.4,5,0.7c-0.1,0.9,0,2.8,0.2,3.9c-3.5-1-7.1-1.4-10.3-1.1c4.4,2.2,5.3,2.5,6.1,2.6
					c-0.2,0.8-0.4,2.4-0.5,3.4c-0.4-0.1-1-0.1-1.5,0.1c-0.5,0.2-2.2,0.9-3.5,2l-0.1-0.1c-0.2,0.7-0.5,2.2-0.6,3.2
					c-0.6-0.3-1.4-0.4-2.3-0.4c-1-0.1-4.2-0.3-6.9,0.2l-2.2-3.3c1.5-0.1,3.1-0.2,4.7-0.1l-7.7-4.3c0.4,1,0.8,2.1,1.2,2.9l-3.3-0.3
					c-1.2-2.6-2.6-6.3-3-8.6l3.6,0.3c0.1,0.5,0.2,1.1,0.4,1.8c12.4,6.7,14.6,7.9,16,8.3l-2.1-2.7c0.9-0.5,2-0.9,3-1.3l-2.1-1.1
					c-0.1,0.6-0.1,1.1-0.1,1.6l-2.9-0.7c0-0.9,0.1-1.9,0.2-2.8c-1.3,0.4-2.4,0.8-3.5,1.5l-2.6-2.8c0.4-0.2,0.7-0.4,1.1-0.6
					c-0.1-0.4-0.2-0.9-0.3-1.3c-0.4-0.1-0.9-0.1-1.4,0.2c-0.4,0.2-1.9,1-3.1,2l-2.4-3c0.8-0.5,1.7-1,2.7-1.3l-2.5-1.3
					c0,0.6,0.1,1.2,0.2,1.7l-2.9-0.5c-0.4-2-0.5-4.6-0.2-6.2L155.4,394.6z M160.7,387.9c6.2-1.8,14.1,0.2,22.1,3.6
					c-0.2,1-0.2,2.6-0.1,3.7c-7.4-3.4-14.9-5.6-20-4.3L160.7,387.9z M162.4,392.9c4.7-0.8,10.8,0.3,16.2,2.2
					c-0.1,0.9,0.1,2.4,0.3,3.5c-4.9-1.9-10.8-3.4-14.6-2.8L162.4,392.9z"/>
				<path class="st8" d="M119.5,378.7l18-19.9l3,2.7l-1.4,1.6l3.2,2.9l1.6-1.7l2.9,2.6l-18.1,20L119.5,378.7z M136.5,366l-11.4,12.6
					l3.2,2.9l11.4-12.6L136.5,366z M131.5,386.6c0,0,0.9-1,1.3-1.3c9.9-10.5,13.5-14.1,15.4-14.6c1.3-0.3,2.1-0.1,3.1,0.5
					c0.9,0.5,2,1.5,3.1,2.6c-0.7,0.9-1.6,2.4-1.9,3.8c-0.9-1-1.8-1.8-2.3-2.3c-0.4-0.3-0.7-0.4-1.3-0.3c-1.1,0.2-4.1,3.2-11.8,11.4
					l2.5,2.3c6.3-6.5,12.3-11.3,18.9-12.1c-0.2,1.1-0.1,3,0.2,4.2c-5.7,0.6-10.7,4.8-16.2,10.5l2.9,2.6l-2.6,2.9l-2.9-2.7
					c-1.2,1.3-2.5,2.7-3.8,4.1l-2.9-2.7c1.3-1.4,2.5-2.8,3.8-4.1L131.5,386.6z"/>
				<path class="st8" d="M108.7,348.8l3.5-2.5l-4-5.6l10.9-7.9l2.2,3.1l-1,0.7l6,8.2l1.1-0.8l2.1,3l-11.1,8l-4-5.6l-3.4,2.5l5.3,7.3
					l-3.1,2.3l-5.3-7.3l-3.2,2.3c1.6,1.6,3.1,3.3,4.5,4.9c-0.7,0.7-1.6,2.1-2.1,3c-3.8-4.3-8.5-8.8-11.9-10.9l0.8-4.4
					c1.9,1.3,4,2.9,5.9,4.8l3.8-2.7l-5-7l3.1-2.3L108.7,348.8z M112.2,364.8c0,1.7,0.4,4.9,0.6,7.2l-3.7-0.1c-0.3-2.1-0.9-5.3-1-7.1
					L112.2,364.8z M113.3,341.6l6,8.2l4-2.9l-6-8.2L113.3,341.6z M120.5,360.5c0,1.7,0.4,5,0.7,7.2l-3.7,0c-0.4-2-0.9-5.3-1.1-7.1
					L120.5,360.5z M133.8,358.1c-3.1,0-8,0.4-12.4,1.1l0.5-4c3.9-0.6,8.3-1.2,12.2-1.4L133.8,358.1z"/>
				<path class="st8" d="M83.4,312.5c0,0,1.2-0.5,1.6-0.7c12.7-5.4,17.3-7.2,19.2-6.8c1.3,0.2,2,0.8,2.6,1.7
					c0.6,0.8,1.2,2.3,1.8,3.8c-1,0.5-2.3,1.6-3,2.7c-0.5-1.4-1-2.6-1.2-3.2c-0.2-0.5-0.5-0.7-1-0.8c-1.1-0.3-5,1.1-15.1,5.4l1.2,2.8
					c8.4-3.3,15.4-4.8,21.9-1.4c-0.5,0.8-1.1,2.1-1.5,3.3c2.5,4.2,4.9,8.5,6.7,11.7l-2.9,1.8c-0.9-1.7-2-3.8-3.3-6.1l-1.8,0.8
					l2.4,5.4l-2.6,1.2l-2.4-5.4l-1.2,0.5l2.4,5.3l-9.5,4.3l-2.4-5.3l-1.2,0.5l2.7,6.1l-2.7,1.2l-2.7-6.1l-1.2,0.6
					c0.9,1.7,1.8,3.4,2.6,5.1c-0.7,0.5-1.7,1.3-2.2,2c-2.3-4.4-5.2-9.5-7.5-12.6l2-2.8c1.1,1.5,2.2,3.3,3.3,5.2l1.5-0.7l-2.7-5.9
					l1.7-0.8l-1.3-2.9c-2,0.9-4.2,1.8-6.5,2.9l-1.6-3.5c2.3-1,4.4-2,6.5-2.8L83.4,312.5z M108.8,323.4c-0.9-1.7-1.9-3.5-2.8-5.2
					c-4.4-0.9-9.2,0.3-14.8,2.6l1.3,2.8l-2.4,1.1l2.7,5.9l1.2-0.5l-2.5-5.5l9.5-4.3l2.5,5.5l1.2-0.5l-2.5-5.6l2.6-1.2l2.5,5.6
					L108.8,323.4z M96.5,326l-1.4,0.6l1.1,2.4l1.4-0.6L96.5,326z M100.1,334.1l-1.1-2.4l-1.4,0.6l1.1,2.4L100.1,334.1z M99.7,327.4
					l1.4-0.6l-1.1-2.4l-1.4,0.6L99.7,327.4z M102.6,330.1l-1.4,0.6l1.1,2.4l1.4-0.6L102.6,330.1z"/>
			</g>
		</g>
		</g>
		<g id="_地球">
			<ellipse class="st9" cx="252.7" cy="252.8" rx="131.8" ry="131.9"/>
			<g>
				<ellipse class="st10" cx="252.7" cy="252.9" rx="125.2" ry="125.3"/>
				<g>
					<path class="st11" d="M138.6,216.3c1.3,4.2,6.4,12.3,6.4,12.3l8.3,7.3l1.8-4.6l28.3-6.4l8.5,2.4l7.5,8.2c0,0,8.4,8.1,11.1,8.4
						s3.1-9.1,3.1-9.1l-7.8-16.1l6.4-4.9c0,0,7.1-1.4,18.1,2c11,3.4,25.6,7,25.6,7L264,210c0,0,4-17.8,2.6-24.8
						s-15.9-20.5-15.9-20.5l-29.1-12.8c0,0-4.7-10.9-7.6-18.1c-35.9,11.6-64.6,38.9-78.1,74.2c-0.6,1.4-1.1,2.9-1.6,4.4
						C136.2,213.2,138.1,214.5,138.6,216.3L138.6,216.3z"/>
					<path class="st11" d="M307,184.7l-14.8,14l-5.7,6.4l-6.3,14.4l-0.6,15.4l4.3,5.8l4.1,12.7l-14.2-1.4l-12.4,0.2l-15.8,9.1
						l-9.5,24.6l7.8,17l10.1,12.1l-13.3,22.8l-0.4,13.8l12.5,8.1l11-3.1l13.5-7.5l9.6-18.5l13.4-1.8c0,0,5.6,10,11.2-8.8
						c5.6-18.8,8.8-2.8,5.6-18.8s-1.5-14.1-1.5-14.1l-12.2-16.2L302,250l3.2-11.5l-2.9-7.3l16.5,3.1l12.7,8.6l5.4,7.4l11,2.2
						c0,0,5.7-10.5,12.6-6.2c7,4.3,3.2-2,7,4.3l3.7,6.3l6.7,2.4c2-40.4-15.5-79.3-47.1-104.5l-10,24.1L307,184.7L307,184.7z"/>
					<path class="st11" d="M376.7,270.3l-14.2-6l-12.2,8.4l-20.1-5.3l-6,10.4l6,20.8c0,0,7.4,8.6,4.1,15.9s-11,10.5-11,10.5
						l-8.1,10.4l-2.7,16.6l3.4,9c24.6-14.3,43.6-36.6,53.8-63.2C373,288.9,375.4,279.7,376.7,270.3L376.7,270.3z"/>
					<path class="st11" d="M212.6,360l-12.8-9.4l3.9-11.2l3.1-19.7l-4.7-11.2l-2.4-12l10.6-8.2l-1.3-22.2l-29.4-18.3l-15.1,0.8
						l-18.6,4.7l-17.1-17.8c-8.1,57.8,24.6,113.5,79.1,134.4c8,3.1,16.2,5.3,24.7,6.7l-9.8-15.1L212.6,360L212.6,360z"/>
				</g>
				<path class="st11" d="M319,244l-5.7-1.3l-3.4,11.9l-2,13.9l5.9,5.1l5.5-4.1l-0.5-9.7l1.8-4.1l2-5.1L319,244L319,244z"/>
				<path class="st11" d="M232.6,222c-1.7-0.7-12.1-2.1-12.1-2.1l-4.5,5l3.4,9.4l-0.9,8.9l4.5,2.9l10-4.9l4.2-6.5l0.6-10.4
					L232.6,222L232.6,222z"/>
				<path class="st11" d="M215.5,289c-1.3,1.2-7.7,10.5-7.7,10.5l1.4,8.7l4.1,11.1l-2.2,10.9l-1.4,10.1l7.4-1.1l5.5-11.4l-2.5-12.5
					l-0.2-6.8l1.7-7.2l-0.2-9.1L215.5,289L215.5,289z"/>
				<g>
					<path class="st12" d="M335.9,202.1l-1.8-13.5l-8.2,8.4l-0.6-0.6l9.5-9.8l2,15.3L335.9,202.1z"/>
					<path class="st12" d="M352.6,221.3l-1.8-13.5l-8.2,8.4l-0.6-0.6l9.5-9.8l2,15.3L352.6,221.3z"/>
					<path class="st12" d="M342.5,239.1l-1.8-13.5l-8.2,8.4l-0.6-0.6l9.5-9.8l2,15.3L342.5,239.1z"/>
					<path class="st12" d="M303.3,221.9l-1.8-13.5l-8.2,8.4l-0.6-0.6l9.5-9.8l2,15.3L303.3,221.9z"/>
					<path class="st12" d="M299,243.8l-1.8-13.5l-8.2,8.4l-0.6-0.6l9.5-9.8l2,15.3L299,243.8z"/>
					<path class="st12" d="M294.6,281l-1.8-13.5l-8.2,8.4l-0.6-0.6l9.5-9.8l2,15.3L294.6,281L294.6,281z"/>
					<path class="st12" d="M341.6,293.2l-1.8-13.5l-8.2,8.4l-0.6-0.6l9.5-9.8l2,15.3L341.6,293.2L341.6,293.2z"/>
					<path class="st12" d="M353.8,316.3l-1.8-13.5l-8.2,8.4l-0.6-0.6l9.5-9.8l2,15.3L353.8,316.3L353.8,316.3z"/>
					<path class="st12" d="M359.8,291.5L358,278l-8.2,8.4l-0.6-0.6l9.5-9.8l2,15.3L359.8,291.5L359.8,291.5z"/>
					<path class="st12" d="M336.8,336l-1.4-10.3l-6.3,6.5l-0.5-0.5l7.3-7.5l1.5,11.8L336.8,336z"/>
					<path class="st12" d="M283.2,306.7l-1.8-13.5l-8.2,8.4l-0.6-0.6l9.5-9.8l2,15.3L283.2,306.7L283.2,306.7z"/>
					<path class="st12" d="M222,196l-1.8-13.5l-8.2,8.4l-0.6-0.6l9.5-9.8l2,15.3L222,196L222,196z"/>
					<path class="st12" d="M168.9,222.2l-1.8-13.5l-8.2,8.4l-0.6-0.6l9.5-9.8l2,15.3L168.9,222.2L168.9,222.2z"/>
					<path class="st12" d="M198.1,207.3l-1.8-13.5l-8.2,8.4l-0.6-0.6l9.5-9.8l2,15.3L198.1,207.3L198.1,207.3z"/>
					<path class="st12" d="M193.7,289.2l-1.8-13.5l-8.2,8.4l-0.6-0.6l9.5-9.8l2,15.3L193.7,289.2L193.7,289.2z"/>
					<path class="st12" d="M179.8,333.8l-1.8-13.5l-8.2,8.4l-0.6-0.6l9.5-9.8l2,15.3L179.8,333.8L179.8,333.8z"/>
					<path class="st12" d="M159.8,312.4l-1.8-13.5l-8.2,8.4l-0.6-0.6l9.5-9.8l2,15.3L159.8,312.4L159.8,312.4z"/>
					<path class="st12" d="M164,280.4l-1.8-13.5l-8.2,8.4l-0.6-0.6l9.5-9.8l2,15.3L164,280.4L164,280.4z"/>
					<path class="st12" d="M180.6,270.5l-1.8-13.5l-8.2,8.4l-0.6-0.6l9.5-9.8l2,15.3L180.6,270.5L180.6,270.5z"/>
					<path class="st12" d="M177.6,305.6l-1.8-13.5l-8.2,8.4l-0.6-0.6l9.5-9.8l2,15.3L177.6,305.6L177.6,305.6z"/>
					<path class="st12" d="M210.6,173.2l-1.8-13.5l-8.2,8.4l-0.6-0.6l9.5-9.8l2,15.3L210.6,173.2L210.6,173.2z"/>
					<path class="st12" d="M195.5,179.3l-1.8-13.5l-8.2,8.4l-0.6-0.6l9.5-9.8l2,15.3L195.5,179.3L195.5,179.3z"/>
					<path class="st12" d="M171.9,194.9l-1.8-13.5l-8.2,8.4l-0.6-0.6l9.5-9.8l2,15.3L171.9,194.9L171.9,194.9z"/>
					<path class="st12" d="M249,193.9l-1.8-13.5l-8.2,8.4l-0.6-0.6l9.5-9.8l2,15.3L249,193.9L249,193.9z"/>
					<path class="st12" d="M276,330.1l-1.8-13.5L266,325l-0.6-0.6l9.5-9.8l2,15.3L276,330.1L276,330.1z"/>
					<path class="st12" d="M264.4,347l-1.8-13.5l-8.2,8.4l-0.6-0.6l9.5-9.8l2,15.3L264.4,347L264.4,347z"/>
					<path class="st12" d="M300.9,307.8l-1.8-13.5l-8.2,8.4l-0.6-0.6l9.5-9.8l2,15.3L300.9,307.8L300.9,307.8z"/>
					<path class="st12" d="M264.5,298l-1.8-13.5l-8.2,8.4l-0.6-0.6l9.5-9.8l2,15.3L264.5,298L264.5,298z"/>
					<path class="st12" d="M265.2,276.2l-1.8-13.5l-8.2,8.4l-0.6-0.6l9.5-9.8l2,15.3L265.2,276.2L265.2,276.2z"/>
				</g>
				<g>
					<path class="st9" d="M273.8,182.3c-0.2-0.1-0.4-0.1-0.5-0.2l0.4-0.8c1.2,0.6,2.7,0.6,3.9-0.1c1.3-0.7,2.4-1.6,3.3-2.6l0.8-0.8
						l0,1.1c0,1.6,0.9,3.2,2.3,4c1.4,0.7,3.2,0.2,4-1.1l0.7-1.3l0.2,1.5c0.4,2.4,2.4,4.3,4.8,4.5l0,0.9c-1.4-0.1-2.8-0.7-3.8-1.6
						c-0.8-0.7-1.4-1.6-1.7-2.6c-0.5,0.4-1,0.8-1.7,0.9c-1,0.3-2,0.2-2.9-0.3c-1.4-0.8-2.5-2.2-2.7-3.8c-0.8,0.9-1.8,1.6-2.9,2.1
						C276.7,182.6,275.2,182.7,273.8,182.3z"/>
					<path class="st9" d="M280.4,199.9c-0.5-0.2-1-0.5-1.4-0.9c-0.8-0.7-1.3-1.7-1.5-2.8c-0.5,0.5-1.1,0.8-1.8,0.9
						c-1.2,0.3-2.4,0.1-3.4-0.7l0.6-0.7c0.7,0.6,1.7,0.8,2.6,0.5c0.9-0.2,1.7-0.8,2.1-1.6l1.6-3.6l-0.7,3.9
						c-0.2,1.3,0.2,2.6,1.2,3.4c1,0.9,2.3,1.2,3.5,0.8l0.2,0.9C282.4,200.3,281.3,200.3,280.4,199.9L280.4,199.9z"/>
					<path class="st9" d="M274.5,234.4c-0.8-0.3-1.5-0.8-2.1-1.4c-0.6-0.7-1.1-1.6-1.3-2.5c-0.3,0.3-0.7,0.6-1.1,0.7
						c-0.8,0.3-1.7,0.4-2.5,0.1c-1-0.4-1.7-1.2-2-2.2c-0.3-0.6-0.4-1.3-0.5-2c-0.7,0.5-1.6,0.9-2.5,1c-1.2,0.2-2.5,0-3.6-0.6
						l0.4-0.8c1.9,1,4.2,0.6,5.7-0.9l0.8-0.9l0,1.2c0,1.7,0.5,3.7,2,4.3c1.2,0.4,2.6-0.1,3.2-1.3l0.9-1.7l0,1.9
						c0,2.3,1.8,4.3,4.1,4.5l-0.1,0.9C275.5,234.6,275,234.5,274.5,234.4L274.5,234.4z"/>
					<path class="st9" d="M249.4,240.5c-1.4-0.5-2.6-1.6-3-3.1l0.9-0.2c0.5,1.8,2.5,2.8,4.3,2.8c2-0.1,3.9-0.7,5.6-1.6l0.9-0.4
						l-0.3,0.9c-0.4,1.7,0.4,3.4,1.9,4.2c1.6,0.7,3.4,0.2,4.5-1.1l0.4-0.6l0.3,0.6c0.8,1.6,2.3,2.6,4,3c1.7,0.3,3.5-0.2,4.8-1.4
						l0.6,0.7c-1.5,1.4-3.6,1.9-5.6,1.6c-1.8-0.3-3.4-1.4-4.4-2.9c-1.4,1.3-3.4,1.7-5.2,0.9c-0.9-0.5-1.7-1.2-2.1-2.2
						c-0.3-0.7-0.5-1.4-0.4-2.2c-1.6,0.8-3.4,1.3-5.3,1.3C250.8,240.9,250.1,240.8,249.4,240.5L249.4,240.5z"/>
					<path class="st9" d="M211.5,253.2c-0.4-0.1-0.7-0.3-1-0.5c-0.7-0.5-1.2-1.3-1.4-2.1l0.9-0.1c0.1,0.6,0.5,1.2,1,1.5
						c0.9,0.6,2,0.8,3.1,0.6c1.4-0.4,2.6-1,3.8-1.8c0.4-0.3,0.9-0.6,1.3-0.8l0.8-0.5l-0.1,0.9c-0.2,1.7,0.6,3.3,2.1,4.2
						c1.5,0.8,3.3,0.6,4.6-0.4l0.5-0.4l0.2,0.5c0.7,1.4,1.9,2.5,3.5,2.9c1.5,0.5,3.2,0.3,4.5-0.5l0.5,0.8c-1.6,1-3.5,1.2-5.3,0.6
						c-1.6-0.5-3-1.5-3.8-2.9c-1.6,1-3.6,1-5.2,0.1c-1.5-0.9-2.5-2.5-2.6-4.2c-0.2,0.1-0.4,0.2-0.6,0.4c-1.2,0.9-2.6,1.5-4.1,1.9
						C213.4,253.6,212.4,253.5,211.5,253.2L211.5,253.2z"/>
					<path class="st9" d="M172.4,236.7c-0.8-0.3-1.4-0.7-2-1.3l0.7-0.6c1,1,2.4,1.5,3.8,1.4c1.4-0.2,2.7-1.1,3.3-2.3l0.6-1.2
						l0.2,1.4c0.2,1.7,1.1,3.2,2.6,4.1c0.8,0.4,1.7,0.5,2.6,0.2c0.7-0.2,1.2-0.6,1.5-1.2l1.1-2.1l-0.2,2.3c0,1.2,0.6,2.4,1.6,3
						c1.1,0.6,2.4,0.9,3.7,0.9v0.9c-1.4,0.1-2.9-0.3-4.1-1c-1-0.6-1.7-1.5-2-2.6c-0.4,0.3-0.8,0.6-1.3,0.7c-1.1,0.3-2.3,0.2-3.3-0.3
						c-1.4-0.8-2.4-2.1-2.8-3.7c-0.9,1-2.1,1.7-3.4,1.9C174.2,237.2,173.3,237,172.4,236.7L172.4,236.7z"/>
					<path class="st9" d="M225.6,271.5c-0.2-0.1-0.4-0.2-0.6-0.3c-1.1-0.8-1.7-2-1.8-3.3c-0.5,0.4-1.1,0.7-1.8,0.9
						c-1,0.3-2.1,0.2-3.1-0.3l0.4-0.8c1.6,0.7,3.4,0.3,4.5-1.1l0.9-1.2l-0.1,1.5c-0.2,1.4,0.4,2.7,1.5,3.6c0.6,0.4,1.3,0.5,2,0.2
						c0.5-0.1,0.9-0.5,1.1-1l0.7-2l0.1,2.1c0.2,1.6,1.6,2.9,3.2,2.9l0.1,0.9c-1,0-2-0.3-2.8-1c-0.5-0.4-0.9-1-1.1-1.6
						c-0.3,0.3-0.6,0.5-1,0.6C227.1,271.8,226.3,271.7,225.6,271.5L225.6,271.5z"/>
					<path class="st9" d="M242.6,315.1c-0.4-0.2-0.8-0.4-1.2-0.6c-1-0.6-1.7-1.6-1.9-2.8c-1.1,0.7-2.6,0.7-3.8,0.1
						c-1.1-0.7-1.9-1.9-1.9-3.2c-1.3,0.7-3.3,1.5-4.9,0.3l0.5-0.7c1.5,1.1,3.7-0.2,4.6-0.8l1-0.7l-0.3,1.2c-0.3,1.2,0.3,2.5,1.4,3.2
						c1.1,0.6,2.5,0.4,3.4-0.5l0.9-0.9l-0.1,1.3c0,1.2,0.6,2.3,1.6,2.9c1.1,0.6,2.3,1,3.5,1.1l-0.1,0.9
						C244.4,315.6,243.5,315.4,242.6,315.1L242.6,315.1z"/>
					<path class="st9" d="M232.1,323.2c-0.8-0.3-1.4-0.8-1.9-1.5l0.8-0.5c0.7,0.9,1.8,1.5,2.9,1.4c1.1-0.1,2.1-0.9,2.6-1.9l0.5-1.3
						l0.3,1.4c0.2,1.1,0.7,2.2,1.3,3.1c0.6,0.9,1.7,1.3,2.7,1.3l0.1,0.9c-1.4,0.1-2.7-0.5-3.5-1.6c-0.6-0.7-1-1.5-1.2-2.4
						c-0.7,0.8-1.7,1.4-2.8,1.5C233.4,323.5,232.7,323.4,232.1,323.2L232.1,323.2z"/>
					<path class="st9" d="M232.7,356.8c-0.1-0.1-0.3-0.1-0.4-0.2c-1.3-0.7-2.1-2-2.3-3.5c-1.4,0.8-3,0.8-4.4,0c-1.2-0.8-2-2.1-2-3.5
						c-1.2,0.9-2.7,1.3-4.2,1.2c-2-0.2-3.7-1.4-4.7-3.1l0.8-0.4c0.8,1.5,2.3,2.4,4,2.6c1.7,0.2,3.3-0.5,4.4-1.7l1.5-1.7l-0.7,2.1
						c-0.4,1.4,0.1,3,1.4,3.8c1.3,0.8,2.9,0.6,4-0.5l1-1l-0.2,1.4c-0.2,1.4,0.5,2.8,1.8,3.5c1.3,0.6,2.8,0.4,3.9-0.5l0.5-0.4
						l0.2,0.6c0.9,2,3.2,3,5.3,2.3l0.3,0.9c-1.2,0.4-2.6,0.3-3.7-0.2c-1-0.4-1.8-1.2-2.4-2.1C235.6,357.1,234.1,357.3,232.7,356.8
						L232.7,356.8z"/>
					<path class="st9" d="M261.8,365.2c-0.5-0.2-0.8-0.5-1-1l0.8-0.3c0.3,0.7,1.5,0.6,2.1,0.5c2.2-0.5,4.2-1.4,6-2.9l0.8-0.7
						l-0.1,1.1c-0.1,1.4,0.8,2.7,2.1,3.2c1.4,0.4,2.8-0.2,3.5-1.4l0.5-0.9l0.3,1c0.9,2.2,3.2,3.4,5.5,2.8l0.3,0.9
						c-1.3,0.4-2.7,0.3-4-0.4c-1-0.5-1.8-1.2-2.3-2.2c-1,1.1-2.6,1.6-4.1,1.2c-1.4-0.5-2.5-1.7-2.7-3.2c-1.7,1.2-3.6,2.1-5.7,2.5
						C263.2,365.5,262.5,365.4,261.8,365.2L261.8,365.2z"/>
					<path class="st9" d="M282.8,353.4c-0.1-0.1-0.3-0.1-0.5-0.2l0.4-0.8c2.2,1,4.8,0.4,6.3-1.5l0.9-1.1l0,1.4
						c-0.1,1.3,0.5,2.6,1.5,3.4c0.6,0.3,1.3,0.4,1.9,0.2c0.5-0.1,0.9-0.5,1.1-0.9l0.8-1.8l0.1,1.9c0.1,1.1,0.7,2.1,1.7,2.7
						c1,0.5,2.2,0.5,3.2-0.1l0.5,0.8c-1.3,0.7-2.8,0.8-4.1,0.1c-0.9-0.5-1.6-1.4-2-2.4c-0.3,0.2-0.6,0.4-1,0.5
						c-0.9,0.3-1.9,0.2-2.7-0.3c-1-0.7-1.7-1.8-1.9-3.1C287.3,353.7,284.9,354.2,282.8,353.4L282.8,353.4z"/>
					<path class="st9" d="M293.2,339.4l0.2-0.9c1.8,0.4,3.6-0.2,4.9-1.4l0.6-0.6l0.1,0.9c0.1,1.3,0.8,2.5,1.7,3.3
						c0.9,0.7,2.3,0.7,3.1-0.2l0.5-0.7l0.2,0.8c0.3,1.1,1.1,2,2,2.5l-0.4,0.8c-1-0.5-1.8-1.4-2.2-2.4c-0.5,0.3-1,0.5-1.6,0.5
						c-0.8,0-1.6-0.2-2.3-0.7c-1-0.8-1.7-1.9-1.9-3.1c-0.6,0.5-1.3,0.8-2,1C295.3,339.5,294.2,339.6,293.2,339.4L293.2,339.4z"/>
					<path class="st9" d="M141.9,238.2c-0.4-0.2-0.8-0.4-1.1-0.7l0.6-0.7c0.8,0.6,1.8,0.9,2.8,0.7c1.1-0.3,2.1-0.7,3-1.2l0.8-0.4
						l-0.2,0.9c-0.3,1.4,1,2.8,2.3,3.3c0.6,0.3,1.2,0.4,1.8,0.3c0.6-0.1,1-0.4,1.2-1l0.6-1.9l0.3,2c0.2,1.1,0.8,2,1.7,2.6
						c0.9,0.6,1.9,0.9,3,0.8l0.1,0.9c-1.3,0.2-2.6-0.2-3.7-1c-0.8-0.6-1.4-1.3-1.8-2.2c-0.4,0.3-0.8,0.6-1.3,0.6
						c-0.8,0.1-1.6,0-2.3-0.4c-1.5-0.6-2.6-1.9-2.9-3.5c-0.8,0.4-1.7,0.8-2.6,1C143.5,238.5,142.6,238.5,141.9,238.2L141.9,238.2z"
						/>
					<path class="st9" d="M330,258.1c-0.7-0.3-1.4-0.7-2-1.2l0.6-0.7c1.4,1.2,3.2,1.7,5,1.4c1.8-0.2,3.4-1.2,4.4-2.7l0.5-0.9l0.3,1
						c0.7,2.5,1.6,3.8,3,4.2c1.9,0.6,3.9-0.8,5.5-2.3l1-0.8l-0.2,1.2c-0.2,1.4,0.5,2.8,1.8,3.4c1.3,0.6,2.8,0.4,3.8-0.6l0.3-0.3
						l0.3,0.2l1.1,0.8l1.1,0.8l-0.5,0.7l-1.1-0.8l-0.8-0.6c-1.3,1-3.1,1.2-4.6,0.5c-1.2-0.7-2.1-1.9-2.2-3.3c-0.7,0.6-1.4,1-2.1,1.4
						c-1.1,0.6-2.3,0.7-3.5,0.4c-1-0.4-1.8-1.1-2.4-2c-0.4-0.6-0.7-1.3-0.9-2c-1.2,1.3-2.8,2.1-4.5,2.4
						C332.5,258.7,331.2,258.6,330,258.1L330,258.1z"/>
				</g>
			</g>
		</g>
		   <g class="expression animated fadeIn">
		<g class="expression_open" id="_張眼笑">
			<g>
				<path class="st13" d="M221,228.6c0,8.7-7,15.7-15.7,15.7c-8.7,0-15.7-7-15.7-15.7c0-8.7,7-15.7,15.7-15.7l0,0
					C214,212.8,221,219.9,221,228.6L221,228.6z"/>
				<path class="st13" d="M319,228.5c0,8.7-7,15.7-15.7,15.7c-8.7,0-15.7-7-15.7-15.7c0-8.7,7-15.7,15.7-15.7l0,0
					C311.9,212.8,318.9,219.8,319,228.5L319,228.5L319,228.5z"/>
			</g>
			<g>
				<path class="st14" d="M248.2,263.1c-4.9-1.4-10.1-1.5-15.2-0.5c3.8,6.3,10.1,11.6,19.3,11.8c3.7,0.1,7.3-0.6,10.7-2.1
					C259,267.9,253.9,264.7,248.2,263.1L248.2,263.1z"/>
				<path class="st13" d="M277.3,241.8c-6.9-2.4-15.6,13-23.2,13.1s-16.3-17-22.8-12.9c-3.7,2.3-3.2,12.3,1.8,20.6
					c5-1,10.2-0.9,15.2,0.5c5.7,1.7,10.8,4.9,14.8,9.2C278.7,265.4,283,243.7,277.3,241.8L277.3,241.8z"/>
			</g>
			<g>
				
					<ellipse transform="matrix(1 -1.047197e-03 1.047197e-03 1 -0.275 0.3401)" class="st14" cx="324.7" cy="262.8" rx="15.7" ry="10"/>
				<path class="st14" d="M168.1,262.9c0,5.5,7.1,10,15.7,10s15.7-4.5,15.7-10s-7.1-10-15.7-10S168.1,257.4,168.1,262.9z"/>
			</g>
		</g>
		<g class="expression_smile" id="_瞇眼笑">
			<g>
				<path class="st13" d="M219.3,238.6c-1.6,0-2.8-1.2-2.8-2.8l0,0c0-7.6-6.2-13.8-13.8-13.8s-13.8,6.2-13.8,13.8
					c0,1.6-1.3,2.8-2.8,2.8s-2.8-1.3-2.8-2.8l0,0c0-10.7,8.7-19.4,19.4-19.4s19.4,8.7,19.4,19.4l0,0
					C222.1,237.3,220.9,238.6,219.3,238.6C219.3,238.6,219.3,238.6,219.3,238.6L219.3,238.6z"/>
				<path class="st13" d="M318.6,238.6c-1.5,0-2.8-1.2-2.8-2.8l0,0c0-7.6-6.2-13.8-13.8-13.8s-13.8,6.2-13.8,13.8
					c0,1.6-1.3,2.8-2.8,2.8s-2.8-1.3-2.8-2.8l0,0c0.2-10.7,9.1-19.2,19.8-19c10.4,0.2,18.8,8.6,19,19
					C321.4,237.4,320.1,238.6,318.6,238.6L318.6,238.6z"/>
				<path class="st13" d="M226,251.3c1.6,0,2.8,1.2,2.8,2.8l0,0c0,3.8,2.3,7.4,6.5,10.2c10.6,6.3,23.8,6.3,34.5,0
					c4.2-2.8,6.6-6.5,6.5-10.2c0-1.6,1.3-2.8,2.8-2.8s2.8,1.3,2.8,2.8c0,3-0.9,5.9-2.6,8.5c-1.7,2.6-3.9,4.8-6.5,6.5
					c-12.5,7.6-28.2,7.6-40.7,0c-2.6-1.7-4.8-3.9-6.5-6.5c-1.6-2.5-2.6-5.5-2.6-8.5C223.2,252.5,224.4,251.3,226,251.3L226,251.3
					L226,251.3L226,251.3z"/>
			</g>
			<g>
				<ellipse class="st14" cx="323.8" cy="263.5" rx="15.9" ry="10.1"/>
				<path class="st14" d="M165.7,262.6c0,5.6,7.1,10.2,15.9,10.1c8.8,0,15.9-4.5,15.9-10.2s-7.1-10.2-15.9-10.1
					S165.8,256.9,165.7,262.6z"/>
			</g>
		</g>
			</g>
	</g>
</g>
</svg>
